<?xml version="1.0" encoding="utf-8" ?>
<svg baseProfile="full" height="256" version="1.1" width="256" xmlns="http://www.w3.org/2000/svg" xmlns:ev="http://www.w3.org/2001/xml-events" xmlns:xlink="http://www.w3.org/1999/xlink"><defs /><path d="M2154 -215Q2125 -215 2104 -194L1406 503Q1396 513 1387.0 533.0Q1378 553 1369.5 575.5Q1361 598 1352.0 618.0Q1343 638 1334 647L554 1427Q543 1438 543 1452Q543 1467 554 1478L647 1571Q657 1581 672 1581Q688 1581 698 1571L1478 791Q1481 788 1501.5 777.5Q1522 767 1546.0 755.0Q1570 743 1592.0 732.5Q1614 722 1622 719L2319 21Q2340 0 2340 -30Q2340 -59 2319 -80L2205 -194Q2184 -215 2154 -215Z" style="fill:#d48c00;stroke:none" transform="scale(1,-1) translate(0,-256)" /></svg>