<?xml version="1.0" encoding="utf-8" ?>
<svg baseProfile="full" height="256" version="1.1" width="256" xmlns="http://www.w3.org/2000/svg" xmlns:ev="http://www.w3.org/2001/xml-events" xmlns:xlink="http://www.w3.org/1999/xlink"><defs /><path d="M2076 467 2421 123Q2451 93 2467.5 53.0Q2484 13 2484 -30Q2484 -73 2467.5 -112.5Q2451 -152 2421 -182L2307 -296Q2276 -327 2237.0 -343.0Q2198 -359 2154 -359Q2111 -359 2071.5 -342.5Q2032 -326 2002 -296L1442 264L882 -296Q851 -327 812.0 -343.0Q773 -359 729 -359Q686 -359 646.5 -342.5Q607 -326 577 -296L463 -182Q433 -152 416.5 -112.5Q400 -73 400 -30Q400 14 416.0 53.0Q432 92 463 123L987 647H628L256 1019V1282L401 1427Q400 1433 400.0 1439.0Q400 1445 400 1451Q400 1485 411.5 1513.5Q423 1542 441.5 1567.5Q460 1593 483.5 1615.5Q507 1638 530 1659L545 1673Q577 1702 608.0 1713.5Q639 1725 682 1725Q686 1725 690.0 1725.0Q694 1725 698 1723L843 1869H1106L1442 1533L1778 1869H2040L2186 1723Q2199 1726 2212 1726Q2245 1726 2280.0 1711.0Q2315 1696 2338 1673L2431 1580Q2457 1554 2470.5 1521.0Q2484 1488 2484 1452Q2484 1425 2476.5 1399.5Q2469 1374 2453 1352Q2468 1303 2476.0 1252.0Q2484 1201 2484 1150Q2484 1022 2437.5 902.0Q2391 782 2300 691Z" style="fill:#000000;stroke:none" transform="scale(1,-1) translate(0,-256)" /></svg>