<?xml version="1.0" encoding="utf-8" ?>
<svg baseProfile="full" height="256" version="1.1" width="256" xmlns="http://www.w3.org/2000/svg" xmlns:ev="http://www.w3.org/2001/xml-events" xmlns:xlink="http://www.w3.org/1999/xlink"><defs /><path d="M1370 1222Q1340 1222 1314.0 1233.5Q1288 1245 1268.5 1264.5Q1249 1284 1237.5 1310.0Q1226 1336 1226 1366Q1226 1396 1237.5 1422.0Q1249 1448 1268.5 1467.5Q1288 1487 1314.0 1498.5Q1340 1510 1370 1510Q1400 1510 1426.0 1498.5Q1452 1487 1471.5 1467.5Q1491 1448 1502.5 1422.0Q1514 1396 1514 1366Q1514 1336 1502.5 1310.0Q1491 1284 1471.5 1264.5Q1452 1245 1426.0 1233.5Q1400 1222 1370 1222ZM1550 1150Q1571 1150 1587.5 1139.5Q1604 1129 1614 1110L1830 679Q1838 663 1838 647Q1838 617 1816.5 596.0Q1795 575 1765 575Q1745 575 1727.5 586.0Q1710 597 1701 615L1550 918V719Q1550 717 1559.5 688.0Q1569 659 1583.5 615.0Q1598 571 1615.5 519.0Q1633 467 1649.0 419.5Q1665 372 1677.0 336.0Q1689 300 1693 288H1550V0Q1550 -30 1529.0 -51.0Q1508 -72 1478 -72Q1448 -72 1427.0 -51.0Q1406 -30 1406 0V288H1334V0Q1334 -30 1313.0 -51.0Q1292 -72 1262 -72Q1233 -72 1211.5 -50.5Q1190 -29 1190 0V288H1047Q1051 300 1063.0 336.0Q1075 372 1091.0 419.5Q1107 467 1124.5 519.0Q1142 571 1156.5 615.0Q1171 659 1180.5 688.0Q1190 717 1190 719V918L1039 615Q1030 597 1012.5 586.0Q995 575 975 575Q946 575 924.5 596.5Q903 618 903 647Q903 663 911 679L1126 1110Q1135 1129 1152.0 1139.5Q1169 1150 1190 1150Z" style="fill:#ffffff;stroke:none" transform="scale(1,-1) translate(0,-256)" /></svg>