<?xml version="1.0" encoding="utf-8" ?>
<svg baseProfile="full" height="256" version="1.1" width="256" xmlns="http://www.w3.org/2000/svg" xmlns:ev="http://www.w3.org/2001/xml-events" xmlns:xlink="http://www.w3.org/1999/xlink"><defs /><path d="M2197 1725Q2197 1680 2185.5 1636.5Q2174 1593 2153.0 1554.0Q2132 1515 2102.0 1482.0Q2072 1449 2034 1424Q1956 1466 1869.5 1487.5Q1783 1509 1694 1509Q1624 1509 1555.0 1495.5Q1486 1482 1421 1455Q1449 1401 1463.5 1342.0Q1478 1283 1478 1222H903Q799 1222 707.0 1261.5Q615 1301 547.0 1369.0Q479 1437 439.5 1529.0Q400 1621 400 1725H975Q1045 1725 1110.5 1706.5Q1176 1688 1233.5 1653.5Q1291 1619 1338.0 1569.5Q1385 1520 1418 1459Q1434 1518 1467.5 1567.0Q1501 1616 1546.5 1651.0Q1592 1686 1648.0 1705.5Q1704 1725 1765 1725Z" style="fill:#13a10e;stroke:none" transform="scale(1,-1) translate(0,-256)" /></svg>