<?xml version="1.0" encoding="utf-8" ?>
<svg baseProfile="full" height="256" version="1.1" width="256" xmlns="http://www.w3.org/2000/svg" xmlns:ev="http://www.w3.org/2001/xml-events" xmlns:xlink="http://www.w3.org/1999/xlink"><defs /><path d="M1708 342Q1678 342 1657.0 363.5Q1636 385 1636 415Q1636 427 1641 442Q1666 506 1680.0 569.0Q1694 632 1694 701Q1694 793 1670.0 878.0Q1646 963 1603.0 1036.5Q1560 1110 1499.0 1171.0Q1438 1232 1364.5 1275.0Q1291 1318 1206.0 1342.0Q1121 1366 1029 1366Q960 1366 897.0 1352.0Q834 1338 770 1314Q756 1308 741 1308Q712 1308 691.0 1329.5Q670 1351 670 1380Q670 1403 682.0 1419.5Q694 1436 714 1446Q748 1462 787.5 1474.0Q827 1486 868.0 1494.0Q909 1502 950.0 1506.0Q991 1510 1029 1510Q1141 1510 1244.0 1481.0Q1347 1452 1437.0 1399.5Q1527 1347 1600.5 1273.0Q1674 1199 1726.5 1109.5Q1779 1020 1808.0 916.5Q1837 813 1837 701Q1837 664 1833.5 622.5Q1830 581 1822.0 539.5Q1814 498 1802.0 458.5Q1790 419 1774 386Q1764 366 1747.5 354.0Q1731 342 1708 342Z" style="fill:#f03a17;stroke:none" transform="scale(1,-1) translate(0,-256)" /></svg>