<?xml version="1.0" encoding="utf-8" ?>
<svg baseProfile="full" height="256" version="1.1" width="256" xmlns="http://www.w3.org/2000/svg" xmlns:ev="http://www.w3.org/2001/xml-events" xmlns:xlink="http://www.w3.org/1999/xlink"><defs /><path d="M1119 1510Q1269 1510 1406 1449L1420 1455Q1436 1465 1440.5 1469.0Q1445 1473 1448.0 1475.0Q1451 1477 1456.0 1480.0Q1461 1483 1477 1491Q1528 1516 1583.5 1520.5Q1639 1525 1694 1525Q1730 1525 1768.0 1523.0Q1806 1521 1844.5 1514.5Q1883 1508 1919.0 1496.0Q1955 1484 1986 1464Q2003 1453 2007.0 1450.0Q2011 1447 2011 1446Q2011 1441 2020.0 1434.5Q2029 1428 2034 1424Q2046 1415 2060.0 1408.0Q2074 1401 2087 1393Q2106 1380 2124.5 1366.5Q2143 1353 2160 1338Q2220 1287 2267.0 1224.5Q2314 1162 2346.0 1092.0Q2378 1022 2395.0 946.0Q2412 870 2412 791Q2412 613 2334.0 464.0Q2256 315 2115 209L1490 -260Q1473 -274 1450.5 -280.5Q1428 -287 1406 -287Q1384 -287 1361.5 -280.5Q1339 -274 1322 -260L699 208Q556 315 478.0 463.0Q400 611 400 791Q400 890 425.5 982.0Q451 1074 498.0 1154.0Q545 1234 610.5 1299.5Q676 1365 756.0 1412.0Q836 1459 928.0 1484.5Q1020 1510 1119 1510Z" style="fill:#f7894a;stroke:none" transform="scale(1,-1) translate(0,-256)" /></svg>