<?xml version="1.0" encoding="utf-8" ?>
<svg baseProfile="full" height="256" version="1.1" width="256" xmlns="http://www.w3.org/2000/svg" xmlns:ev="http://www.w3.org/2001/xml-events" xmlns:xlink="http://www.w3.org/1999/xlink"><defs /><path d="M2255 1445Q2327 1383 2383.0 1309.0Q2439 1235 2477.5 1151.0Q2516 1067 2536.0 976.0Q2556 885 2556 791Q2556 686 2532.0 587.5Q2508 489 2462.0 400.0Q2416 311 2350.5 234.0Q2285 157 2201 94L1574 -377Q1539 -403 1494.0 -417.0Q1449 -431 1406 -431Q1361 -431 1316.5 -416.5Q1272 -402 1236 -375L615 91Q531 154 464.0 231.5Q397 309 351.0 398.0Q305 487 280.5 586.0Q256 685 256 791Q256 928 297.0 1056.5Q338 1185 419 1295Q341 1384 298.5 1495.0Q256 1606 256 1725V1869H975Q1093 1869 1201.5 1828.0Q1310 1787 1399 1710Q1471 1786 1565.5 1827.5Q1660 1869 1765 1869H2340V1725Q2340 1650 2318.5 1578.5Q2297 1507 2255 1445Z" style="fill:#000000;stroke:none" transform="scale(1,-1) translate(0,-256)" /></svg>