<?xml version="1.0" encoding="utf-8" ?>
<svg baseProfile="full" height="256" version="1.1" width="256" xmlns="http://www.w3.org/2000/svg" xmlns:ev="http://www.w3.org/2001/xml-events" xmlns:xlink="http://www.w3.org/1999/xlink"><defs /><path d="M1753 1366H2268Q2328 1366 2380.5 1343.5Q2433 1321 2472.0 1282.0Q2511 1243 2533.5 1190.5Q2556 1138 2556 1078V-215H2382Q2361 -263 2327.0 -303.0Q2293 -343 2249.5 -371.5Q2206 -400 2156.0 -415.5Q2106 -431 2053 -431Q1999 -431 1949.0 -415.5Q1899 -400 1856.0 -371.5Q1813 -343 1779.0 -303.5Q1745 -264 1723 -215H1088Q1067 -263 1033.0 -303.0Q999 -343 955.5 -371.5Q912 -400 862.0 -415.5Q812 -431 759 -431Q706 -431 656.0 -415.5Q606 -400 562.5 -371.5Q519 -343 485.0 -303.0Q451 -263 430 -215H256V1078Q256 1136 279.0 1188.5Q302 1241 341.0 1280.5Q380 1320 432.0 1343.0Q484 1366 543 1366H1118V1438H1203L1047 1594V1869H1765V1594L1729 1557Q1747 1531 1756.0 1500.5Q1765 1470 1765 1438Q1765 1400 1753 1366Z" style="fill:#000000;stroke:none" transform="scale(1,-1) translate(0,-256)" /></svg>