<?xml version="1.0" encoding="utf-8" ?>
<svg baseProfile="full" height="256" version="1.1" width="256" xmlns="http://www.w3.org/2000/svg" xmlns:ev="http://www.w3.org/2001/xml-events" xmlns:xlink="http://www.w3.org/1999/xlink"><defs /><path d="M1550 1510Q1579 1510 1600.5 1488.5Q1622 1467 1622 1438Q1622 1405 1599.5 1386.0Q1577 1367 1547 1367Q1543 1367 1539.0 1367.0Q1535 1367 1531 1368L1359 1197L1309 1247L1480 1419Q1479 1424 1478.5 1428.5Q1478 1433 1478 1438Q1478 1443 1478.5 1447.0Q1479 1451 1480 1456L1309 1628L1359 1679L1531 1507Q1540 1510 1550 1510ZM400 935V1006H543V935L472 864Z" style="fill:#757575;stroke:none" transform="scale(1,-1) translate(0,-256)" /></svg>