<?xml version="1.0" encoding="utf-8" ?>
<svg baseProfile="full" height="256" version="1.1" width="256" xmlns="http://www.w3.org/2000/svg" xmlns:ev="http://www.w3.org/2001/xml-events" xmlns:xlink="http://www.w3.org/1999/xlink"><defs /><path d="M977 216Q994 196 1012.5 178.5Q1031 161 1051 144H400V1294H1203L1131 1222H543V935H905Q897 917 889.0 899.0Q881 881 874 863H543V575H833Q835 557 836.5 539.0Q838 521 842 503H543V216ZM2412 1222H1716Q1730 1239 1743.0 1256.5Q1756 1274 1767 1294H2412ZM1872 144 1870 154Q1900 183 1926 216H2412V144ZM2412 863H1960Q1933 902 1900 935H2412ZM2412 503H2048Q2050 521 2051.5 539.0Q2053 557 2053 575H2412Z" style="fill:#757575;stroke:none" transform="scale(1,-1) translate(0,-256)" /></svg>