<?xml version="1.0" encoding="utf-8" ?>
<svg baseProfile="full" height="256" version="1.1" width="256" xmlns="http://www.w3.org/2000/svg" xmlns:ev="http://www.w3.org/2001/xml-events" xmlns:xlink="http://www.w3.org/1999/xlink"><defs /><path d="M1909 575Q1909 463 1856.0 367.5Q1803 272 1709 211L1759 -9Q1764 -32 1764 -51Q1764 -100 1742.5 -143.0Q1721 -186 1686.0 -218.0Q1651 -250 1606.0 -268.5Q1561 -287 1514 -287Q1462 -287 1416.0 -267.5Q1370 -248 1336.0 -214.0Q1302 -180 1282.0 -134.0Q1262 -88 1262 -36Q1262 -14 1270.5 6.0Q1279 26 1293.5 40.5Q1308 55 1327.5 63.5Q1347 72 1370 72Q1392 72 1412.0 63.5Q1432 55 1446.5 40.5Q1461 26 1469.5 6.0Q1478 -14 1478 -36Q1478 -59 1469.0 -78.5Q1460 -98 1445.0 -112.5Q1430 -127 1410.0 -135.5Q1390 -144 1368 -144Q1393 -177 1430.5 -196.0Q1468 -215 1510 -215Q1546 -215 1579.0 -201.5Q1612 -188 1637.5 -164.5Q1663 -141 1678.0 -109.5Q1693 -78 1693 -41Q1693 -14 1688.0 14.0Q1683 42 1676.5 70.0Q1670 98 1662.0 125.5Q1654 153 1648 179Q1595 157 1547.0 150.5Q1499 144 1442 144Q1345 144 1260.0 180.5Q1175 217 1111.5 280.5Q1048 344 1011.5 429.0Q975 514 975 611Q975 668 986.5 726.0Q998 784 1019.5 838.5Q1041 893 1072.5 942.5Q1104 992 1143 1034Q1163 1055 1184.5 1074.5Q1206 1094 1226 1114L1392 1280L1338 1511Q1334 1527 1334 1546Q1334 1583 1348.5 1616.0Q1363 1649 1388.0 1673.0Q1413 1697 1446.5 1711.0Q1480 1725 1517 1725Q1554 1725 1586.0 1710.5Q1618 1696 1642.0 1671.5Q1666 1647 1679.5 1614.5Q1693 1582 1693 1546Q1693 1482 1676.0 1434.5Q1659 1387 1630.5 1347.5Q1602 1308 1564.5 1272.0Q1527 1236 1486 1194L1545 935Q1621 935 1687.0 907.5Q1753 880 1802.5 831.5Q1852 783 1880.5 717.0Q1909 651 1909 575ZM1478 252Q1516 252 1553.5 255.0Q1591 258 1626 272L1512 761Q1463 732 1434.5 682.0Q1406 632 1406 575Q1406 533 1426.0 495.0Q1446 457 1478 431Q1433 431 1394.0 448.0Q1355 465 1325.5 494.5Q1296 524 1279.0 563.0Q1262 602 1262 647Q1262 695 1277.5 739.5Q1293 784 1321.5 821.0Q1350 858 1388.5 885.0Q1427 912 1474 925L1426 1134Q1388 1096 1349.0 1059.0Q1310 1022 1272 984Q1200 910 1159.0 812.0Q1118 714 1118 611Q1118 536 1146.5 471.0Q1175 406 1223.5 357.0Q1272 308 1337.5 280.0Q1403 252 1478 252ZM1688 303Q1758 348 1797.5 419.5Q1837 491 1837 575Q1837 620 1820.0 659.0Q1803 698 1774.0 727.5Q1745 757 1706.0 774.0Q1667 791 1622 791Q1597 791 1578 787ZM1406 1553Q1406 1526 1411.5 1499.0Q1417 1472 1424.5 1445.5Q1432 1419 1440.0 1392.5Q1448 1366 1453 1339Q1498 1379 1524.0 1432.5Q1550 1486 1550 1546Q1550 1575 1528.5 1596.0Q1507 1617 1478 1617Q1466 1617 1453.0 1612.0Q1440 1607 1429.5 1598.0Q1419 1589 1412.5 1577.5Q1406 1566 1406 1553Z" style="fill:#00bcf2;stroke:none" transform="scale(1,-1) translate(0,-256)" /></svg>