<?xml version="1.0" encoding="utf-8" ?>
<svg baseProfile="full" height="256" version="1.1" width="256" xmlns="http://www.w3.org/2000/svg" xmlns:ev="http://www.w3.org/2001/xml-events" xmlns:xlink="http://www.w3.org/1999/xlink"><defs /><path d="M1825 1438H2556V0H1903Q1905 -14 1906.0 -26.5Q1907 -39 1907 -53Q1907 -131 1874.5 -200.0Q1842 -269 1787.0 -320.5Q1732 -372 1661.0 -401.5Q1590 -431 1514 -431Q1432 -431 1360.0 -400.0Q1288 -369 1234.0 -315.5Q1180 -262 1149.0 -190.0Q1118 -118 1118 -36V0H256V1438H1208Q1200 1465 1195.0 1492.5Q1190 1520 1190 1549Q1190 1615 1217.0 1673.0Q1244 1731 1289.0 1774.5Q1334 1818 1393.0 1843.5Q1452 1869 1517 1869Q1584 1869 1642.0 1843.5Q1700 1818 1743.5 1774.0Q1787 1730 1812.0 1671.0Q1837 1612 1837 1546Q1837 1490 1825 1438Z" style="fill:#000000;stroke:none" transform="scale(1,-1) translate(0,-256)" /></svg>