<?xml version="1.0" encoding="utf-8" ?>
<svg baseProfile="full" height="256" version="1.1" width="256" xmlns="http://www.w3.org/2000/svg" xmlns:ev="http://www.w3.org/2001/xml-events" xmlns:xlink="http://www.w3.org/1999/xlink"><defs /><path d="M1765 1006Q1825 1006 1877.5 983.5Q1930 961 1969.0 922.0Q2008 883 2030.5 831.0Q2053 779 2053 719V503Q2053 444 2030.0 392.0Q2007 340 1967.5 301.0Q1928 262 1875.5 239.0Q1823 216 1765 216H1262Q1232 216 1206.0 227.0Q1180 238 1160.5 257.5Q1141 277 1129.5 303.0Q1118 329 1118 359V431H1262V324Q1262 309 1272.5 298.5Q1283 288 1298 288Q1313 288 1323.5 298.5Q1334 309 1334 324V431H1406V324Q1406 309 1416.5 298.5Q1427 288 1442 288Q1457 288 1467.5 298.5Q1478 309 1478 324V431H1550V324Q1550 309 1560.5 298.5Q1571 288 1586 288Q1601 288 1611.5 298.5Q1622 309 1622 324V431H1693V324Q1693 310 1704.0 299.0Q1715 288 1729 288Q1744 288 1754.5 298.5Q1765 309 1765 324V431Q1794 431 1815.5 452.5Q1837 474 1837 503V647Q1837 677 1825.5 703.0Q1814 729 1794.5 748.5Q1775 768 1749.0 779.5Q1723 791 1693 791H1365Q1284 791 1210.0 815.0Q1136 839 1074.5 883.0Q1013 927 966.0 989.0Q919 1051 891 1127L863 1204Q899 1157 943.5 1120.5Q988 1084 1039.0 1058.5Q1090 1033 1146.5 1019.5Q1203 1006 1262 1006Q1262 994 1261.0 982.5Q1260 971 1260 959Q1260 949 1261.0 938.5Q1262 928 1266.0 919.0Q1270 910 1277.5 904.5Q1285 899 1298 899Q1322 899 1329.0 917.5Q1336 936 1336 959Q1336 973 1335.0 985.0Q1334 997 1334 1006H1406V863Q1406 848 1416.5 837.5Q1427 827 1442 827Q1457 827 1467.5 837.5Q1478 848 1478 863V1006H1550V863Q1550 848 1560.5 837.5Q1571 827 1586 827Q1601 827 1611.5 837.5Q1622 848 1622 863V1006H1693V863Q1693 849 1704.0 838.0Q1715 827 1729 827Q1744 827 1754.5 837.5Q1765 848 1765 863ZM1945 647Q1960 647 1970.5 657.5Q1981 668 1981 683Q1981 698 1970.5 708.5Q1960 719 1945 719Q1930 719 1919.5 708.5Q1909 698 1909 683Q1909 668 1919.5 657.5Q1930 647 1945 647ZM1873 863Q1858 863 1847.5 852.5Q1837 842 1837 827Q1837 812 1847.5 801.5Q1858 791 1873 791Q1888 791 1898.5 801.5Q1909 812 1909 827Q1909 842 1898.5 852.5Q1888 863 1873 863ZM1945 503Q1960 503 1970.5 513.5Q1981 524 1981 539Q1981 554 1970.5 564.5Q1960 575 1945 575Q1930 575 1919.5 564.5Q1909 554 1909 539Q1909 524 1919.5 513.5Q1930 503 1945 503ZM1873 360Q1888 360 1898.5 370.5Q1909 381 1909 396Q1909 410 1898.0 420.5Q1887 431 1873 431Q1859 431 1848.0 420.5Q1837 410 1837 396Q1837 381 1847.5 370.5Q1858 360 1873 360Z" style="fill:#bad80a;stroke:none" transform="scale(1,-1) translate(0,-256)" /></svg>