<?xml version="1.0" encoding="utf-8" ?>
<svg baseProfile="full" height="256" version="1.1" width="256" xmlns="http://www.w3.org/2000/svg" xmlns:ev="http://www.w3.org/2001/xml-events" xmlns:xlink="http://www.w3.org/1999/xlink"><defs /><path d="M2252 378 2341 296Q2363 276 2377.0 261.0Q2391 246 2399.0 230.0Q2407 214 2410.5 194.5Q2414 175 2414 145Q2414 108 2413.0 72.0Q2412 36 2412 0H2197Q2197 29 2208.0 55.5Q2219 82 2239 102L2155 185Q2119 141 2075.0 106.5Q2031 72 1981.0 48.5Q1931 25 1876.5 12.5Q1822 0 1765 0H1478L1334 -287H1119Q1119 -257 1130.0 -231.0Q1141 -205 1160.5 -185.5Q1180 -166 1206.0 -155.0Q1232 -144 1262 -144V0L1142 72H543Q513 72 487.0 83.5Q461 95 441.5 114.5Q422 134 411.0 160.0Q400 186 400 216H759Q789 216 810.0 237.0Q831 258 831 288V321L432 587Q417 597 408.5 613.0Q400 629 400 647Q400 677 421.0 698.0Q442 719 472 719Q501 719 522.0 698.0Q543 677 543 648Q573 646 598.0 639.0Q623 632 649 615L925 431H1118Q1127 410 1147.0 397.5Q1167 385 1190 385Q1213 385 1233.0 397.5Q1253 410 1262 431H1334L1370 393L1406 431H1478L1515 389L1550 431H1622L1659 390L1693 431H1765Q1775 431 1781.0 423.0Q1787 415 1798 415Q1805 415 1815.0 421.0Q1825 427 1834.0 435.0Q1843 443 1849.5 452.5Q1856 462 1856 469Q1856 480 1846.5 486.0Q1837 492 1837 503Q1837 533 1816.0 554.0Q1795 575 1765 575H1478Q1349 575 1229.5 608.5Q1110 642 1006.0 703.0Q902 764 817.0 849.0Q732 934 671.0 1038.0Q610 1142 576.5 1261.5Q543 1381 543 1510V1725Q596 1713 634.5 1668.5Q673 1624 701.5 1566.5Q730 1509 750.5 1448.0Q771 1387 788 1343Q802 1305 821.0 1271.0Q840 1237 863 1204Q874 1190 882.0 1174.5Q890 1159 900 1144Q957 1054 1038.5 1003.0Q1120 952 1229 952L1262 1006H1334L1369 956L1406 1006H1478L1514 962L1550 1006H1622L1658 966L1693 1006H1765Q1869 1006 1960.5 966.5Q2052 927 2120.5 858.5Q2189 790 2228.5 698.5Q2268 607 2268 503Q2268 438 2252 378Z" style="fill:#73aa24;stroke:none" transform="scale(1,-1) translate(0,-256)" /></svg>