<?xml version="1.0" encoding="utf-8" ?>
<svg baseProfile="full" height="256" version="1.1" width="256" xmlns="http://www.w3.org/2000/svg" xmlns:ev="http://www.w3.org/2001/xml-events" xmlns:xlink="http://www.w3.org/1999/xlink"><defs /><path d="M975 -431V-287Q975 -224 1000.0 -169.0Q1025 -114 1073 -72H543Q484 -72 432.0 -49.0Q380 -26 341.0 13.5Q302 53 279.0 105.0Q256 157 256 216V275L367 386Q315 418 285.5 465.5Q256 513 256 576Q256 584 257.5 593.0Q259 602 259 610Q259 619 257.5 628.5Q256 638 256 647Q256 692 273.0 731.0Q290 770 319.0 799.0Q348 828 387.0 845.0Q426 862 471 862Q524 862 568.5 839.5Q613 817 645 775Q686 762 725 737Q647 813 586.5 902.5Q526 992 484.5 1091.0Q443 1190 421.5 1295.5Q400 1401 400 1510V1869H543Q546 1869 555.0 1866.5Q564 1864 574.5 1860.0Q585 1856 594.5 1852.5Q604 1849 607 1848Q682 1818 731.5 1768.5Q781 1719 815.0 1657.5Q849 1596 873.5 1527.5Q898 1459 923 1391Q943 1337 976.5 1292.5Q1010 1248 1054.0 1216.5Q1098 1185 1151.0 1167.5Q1204 1150 1262 1150H1765Q1854 1150 1937.0 1127.0Q2020 1104 2091.5 1061.5Q2163 1019 2222.0 960.0Q2281 901 2323.5 829.5Q2366 758 2389.0 675.0Q2412 592 2412 503Q2412 484 2411.0 466.0Q2410 448 2408 429Q2437 402 2464.0 376.0Q2491 350 2511.5 321.0Q2532 292 2544.0 257.5Q2556 223 2556 180V-144H2053V-76Q1991 -107 1932.5 -121.5Q1874 -136 1814.5 -141.0Q1755 -146 1694.0 -145.0Q1633 -144 1567 -144L1423 -431Z" style="fill:#000000;stroke:none" transform="scale(1,-1) translate(0,-256)" /></svg>