<?xml version="1.0" encoding="utf-8" ?>
<svg baseProfile="full" height="256" version="1.1" width="256" xmlns="http://www.w3.org/2000/svg" xmlns:ev="http://www.w3.org/2001/xml-events" xmlns:xlink="http://www.w3.org/1999/xlink"><defs /><path d="M2412 575Q2412 495 2384.0 423.0Q2356 351 2307.0 294.0Q2258 237 2191.0 199.0Q2124 161 2045 149L2043 144Q2053 120 2053 89Q2053 60 2043.0 34.5Q2033 9 2015.5 -12.0Q1998 -33 1974.0 -47.0Q1950 -61 1922 -66Q1899 -92 1867.5 -107.0Q1836 -122 1801 -122Q1783 -122 1763 -117L1756 -144Q1765 -170 1765 -197Q1765 -226 1755.0 -252.0Q1745 -278 1728.0 -299.0Q1711 -320 1687.0 -334.0Q1663 -348 1635 -353Q1612 -380 1580.5 -395.0Q1549 -410 1514 -410Q1479 -410 1447.5 -395.0Q1416 -380 1393 -353Q1366 -348 1342.5 -334.5Q1319 -321 1301.5 -301.5Q1284 -282 1273.5 -257.5Q1263 -233 1262 -205Q1257 -261 1222.5 -302.0Q1188 -343 1132 -353Q1109 -380 1077.5 -395.0Q1046 -410 1011 -410Q976 -410 944.5 -395.0Q913 -380 890 -353Q863 -348 839.5 -334.5Q816 -321 798.5 -301.5Q781 -282 770.5 -257.5Q760 -233 759 -205Q754 -261 719.5 -302.0Q685 -343 628 -353Q606 -380 574.5 -395.0Q543 -410 508 -410Q473 -410 441.5 -395.0Q410 -380 387 -353Q359 -348 335.0 -334.0Q311 -320 293.5 -299.5Q276 -279 266.0 -253.0Q256 -227 256 -198Q256 -184 258.5 -170.5Q261 -157 266 -144Q256 -118 256 -89Q256 -61 266.0 -35.0Q276 -9 293.5 12.0Q311 33 335.0 47.0Q359 61 387 66Q410 92 441.5 107.0Q473 122 508 122Q530 122 546 118L553 144Q544 166 544 192Q478 223 425.0 271.0Q372 319 334.5 378.0Q297 437 276.5 505.5Q256 574 256 647Q256 751 295.5 842.5Q335 934 403.5 1002.5Q472 1071 563.5 1110.5Q655 1150 759 1150Q776 1150 792.0 1149.0Q808 1148 825 1146Q865 1229 926.5 1296.0Q988 1363 1063.5 1410.5Q1139 1458 1226.5 1484.0Q1314 1510 1406 1510Q1520 1510 1623.5 1472.5Q1727 1435 1811.0 1367.5Q1895 1300 1954.0 1207.0Q2013 1114 2038 1003Q2118 992 2186.5 954.5Q2255 917 2305.0 859.5Q2355 802 2383.5 729.0Q2412 656 2412 575Z" style="fill:#000000;stroke:none" transform="scale(1,-1) translate(0,-256)" /></svg>