<?xml version="1.0" encoding="utf-8" ?>
<svg baseProfile="full" height="256" version="1.1" width="256" xmlns="http://www.w3.org/2000/svg" xmlns:ev="http://www.w3.org/2001/xml-events" xmlns:xlink="http://www.w3.org/1999/xlink"><defs /><path d="M1873 144Q1881 139 1891.0 134.5Q1901 130 1910.0 124.0Q1919 118 1925.0 109.5Q1931 101 1931 90Q1931 76 1920.0 65.0Q1909 54 1895 54Q1881 54 1864.5 65.0Q1848 76 1837 82Q1837 76 1837.5 68.5Q1838 61 1838 53Q1838 33 1831.5 16.5Q1825 0 1801 0Q1777 0 1770.5 16.5Q1764 33 1764 53Q1764 61 1764.5 68.5Q1765 76 1765 82Q1754 76 1738.0 65.0Q1722 54 1708 54Q1694 54 1683.0 64.5Q1672 75 1672 90Q1672 101 1678.0 109.5Q1684 118 1692.5 124.0Q1701 130 1711.0 134.5Q1721 139 1729 144Q1721 148 1711.0 153.0Q1701 158 1692.5 164.0Q1684 170 1678.0 178.5Q1672 187 1672 198Q1672 213 1683.0 223.5Q1694 234 1708 234Q1722 234 1738.0 223.5Q1754 213 1765 206Q1765 212 1764.5 219.5Q1764 227 1764 235Q1764 255 1770.5 271.5Q1777 288 1801 288Q1825 288 1831.5 271.5Q1838 255 1838 235Q1838 227 1837.5 219.5Q1837 212 1837 206Q1848 213 1864.5 223.5Q1881 234 1895 234Q1909 234 1920.0 223.5Q1931 213 1931 198Q1931 187 1925.0 178.5Q1919 170 1910.0 164.0Q1901 158 1891.0 153.0Q1881 148 1873 144ZM1586 -144Q1595 -149 1605.0 -153.5Q1615 -158 1623.5 -164.0Q1632 -170 1637.5 -178.5Q1643 -187 1643 -199Q1643 -201 1642.5 -202.0Q1642 -203 1642 -205Q1637 -219 1632.5 -222.0Q1628 -225 1616 -232Q1614 -232 1611.5 -232.5Q1609 -233 1607 -233Q1591 -233 1577.0 -223.5Q1563 -214 1550 -206Q1550 -211 1550.5 -217.5Q1551 -224 1551 -232Q1551 -252 1544.5 -269.5Q1538 -287 1514 -287Q1500 -287 1491.5 -279.0Q1483 -271 1478 -258V-206Q1465 -214 1450.5 -223.5Q1436 -233 1420 -233Q1409 -233 1402.0 -228.5Q1395 -224 1389 -216Q1387 -212 1386.5 -208.5Q1386 -205 1384 -203V-198Q1384 -186 1389.5 -178.0Q1395 -170 1403.0 -164.0Q1411 -158 1421.5 -153.5Q1432 -149 1442 -144Q1436 -140 1426.0 -135.5Q1416 -131 1406.5 -125.0Q1397 -119 1390.5 -111.0Q1384 -103 1384 -92Q1384 -83 1387 -74Q1391 -64 1401.0 -59.0Q1411 -54 1419 -54Q1435 -54 1450.5 -64.0Q1466 -74 1478 -81Q1478 -74 1477.5 -67.0Q1477 -60 1477 -52Q1477 -32 1483.5 -16.0Q1490 0 1514 0Q1519 0 1523.0 -1.0Q1527 -2 1532 -4Q1544 -17 1547.5 -24.5Q1551 -32 1551 -43Q1551 -50 1550.5 -58.5Q1550 -67 1550 -81Q1563 -74 1578.0 -64.0Q1593 -54 1608 -54Q1623 -54 1633.0 -65.5Q1643 -77 1643 -91Q1643 -102 1637.0 -110.0Q1631 -118 1622.0 -124.0Q1613 -130 1603.0 -135.0Q1593 -140 1586 -144ZM867 144Q874 140 883.5 135.0Q893 130 902.0 123.5Q911 117 917.5 109.0Q924 101 924 90Q924 72 912.5 63.0Q901 54 884 54Q880 54 872.0 58.0Q864 62 855.5 67.0Q847 72 840.0 76.5Q833 81 831 82Q831 75 831.5 68.0Q832 61 832 53Q832 33 825.5 16.5Q819 0 795 0Q790 0 784.0 1.0Q778 2 775 6L772 7Q763 15 760.5 25.5Q758 36 758 48Q758 57 758.5 65.5Q759 74 759 82Q747 74 732.0 64.0Q717 54 702 54Q686 54 675.5 64.5Q665 75 665 91Q665 101 671.5 109.5Q678 118 687.0 124.0Q696 130 706.0 135.0Q716 140 723 144Q715 149 705.0 153.5Q695 158 686.5 164.0Q678 170 672.0 178.0Q666 186 666 198Q666 206 668.5 210.0Q671 214 674 221Q681 227 686.5 230.5Q692 234 702 234Q717 234 732.0 223.5Q747 213 759 206Q759 212 758.5 219.5Q758 227 758 235Q758 255 764.5 271.5Q771 288 795 288Q819 288 825.5 270.0Q832 252 832 232Q832 224 831.5 217.5Q831 211 831 206Q835 208 842.0 213.0Q849 218 857.0 222.5Q865 227 873.0 230.5Q881 234 887 234Q898 234 908.0 228.0Q918 222 922 212Q922 210 923.0 208.0Q924 206 924 204Q924 190 919.5 181.5Q915 173 907.5 167.0Q900 161 889.5 156.0Q879 151 867 144ZM1083 -144Q1089 -147 1098.5 -151.5Q1108 -156 1117.0 -162.0Q1126 -168 1132.5 -175.5Q1139 -183 1139 -192V-203Q1139 -217 1127.0 -225.0Q1115 -233 1104 -233Q1088 -233 1074.0 -223.5Q1060 -214 1047 -206Q1047 -215 1046.0 -225.5Q1045 -236 1045 -246Q1045 -249 1045.0 -252.5Q1045 -256 1046 -259Q1041 -271 1033.0 -279.0Q1025 -287 1011 -287Q987 -287 980.5 -271.5Q974 -256 974 -237Q974 -229 974.5 -221.0Q975 -213 975 -206Q962 -214 947.5 -223.5Q933 -233 917 -233Q902 -233 891.5 -222.5Q881 -212 881 -196Q881 -185 887.0 -177.0Q893 -169 902.0 -163.0Q911 -157 921.0 -152.5Q931 -148 939 -144Q932 -140 922.0 -135.5Q912 -131 903.0 -125.0Q894 -119 887.5 -111.0Q881 -103 881 -92Q881 -76 890.5 -65.0Q900 -54 917 -54Q932 -54 948.0 -64.5Q964 -75 975 -81Q975 -73 974.5 -65.0Q974 -57 974 -49Q974 -29 981.0 -14.5Q988 0 1014 0H1018Q1026 -3 1031.0 -6.5Q1036 -10 1041 -16Q1042 -16 1042 -17Q1042 -19 1043 -19Q1043 -21 1044.0 -23.0Q1045 -25 1046 -27Q1046 -41 1046.5 -54.0Q1047 -67 1047 -81Q1049 -80 1055.5 -76.5Q1062 -73 1069.0 -69.0Q1076 -65 1082.0 -61.5Q1088 -58 1088 -57Q1098 -53 1105 -53Q1118 -53 1129.0 -64.0Q1140 -75 1140 -88Q1140 -100 1135 -107Q1122 -119 1111.0 -126.5Q1100 -134 1083 -144ZM1370 144Q1378 139 1388.0 134.5Q1398 130 1407.0 124.0Q1416 118 1422.0 109.5Q1428 101 1428 90Q1428 75 1416.5 64.5Q1405 54 1391 54Q1385 54 1377.0 57.5Q1369 61 1361.0 65.5Q1353 70 1346.0 74.5Q1339 79 1334 82Q1334 76 1334.5 68.5Q1335 61 1335 53Q1335 33 1328.5 16.5Q1322 0 1298 0Q1274 0 1267.5 16.5Q1261 33 1261 53Q1261 61 1261.5 68.5Q1262 76 1262 82Q1251 76 1234.5 65.0Q1218 54 1205 54Q1190 54 1179.5 64.5Q1169 75 1169 90Q1169 101 1175.0 109.5Q1181 118 1189.5 124.0Q1198 130 1208.0 134.5Q1218 139 1226 144Q1218 148 1208.0 153.0Q1198 158 1189.5 164.0Q1181 170 1175.0 178.5Q1169 187 1169 198Q1169 213 1180.0 223.5Q1191 234 1205 234Q1219 234 1235.0 223.5Q1251 213 1262 206Q1262 212 1261.5 219.5Q1261 227 1261 235Q1261 255 1267.5 271.5Q1274 288 1298 288Q1322 288 1328.5 271.5Q1335 255 1335 235Q1335 227 1334.5 219.5Q1334 212 1334 206Q1345 213 1361.5 223.5Q1378 234 1392 234Q1406 234 1417.0 223.5Q1428 213 1428 198Q1428 187 1422.0 178.5Q1416 170 1407.0 164.0Q1398 158 1388.0 153.0Q1378 148 1370 144ZM579 -144Q587 -149 597.0 -153.5Q607 -158 616.0 -164.0Q625 -170 631.0 -178.0Q637 -186 637 -197Q637 -212 626.0 -222.5Q615 -233 601 -233Q585 -233 570.5 -223.5Q556 -214 543 -206Q543 -212 543.5 -219.0Q544 -226 544 -234Q544 -253 537.5 -270.0Q531 -287 508 -287Q484 -287 477.5 -271.0Q471 -255 471 -235Q471 -227 471.5 -219.5Q472 -212 472 -206Q459 -214 444.5 -223.5Q430 -233 414 -233Q400 -233 389.0 -222.5Q378 -212 378 -197Q378 -186 384.0 -178.0Q390 -170 399.0 -164.0Q408 -158 418.0 -153.5Q428 -149 436 -144Q428 -140 418.0 -135.0Q408 -130 399.0 -124.0Q390 -118 384.0 -109.5Q378 -101 378 -90Q378 -76 388.5 -65.0Q399 -54 414 -54Q428 -54 444.5 -64.5Q461 -75 472 -81Q472 -75 471.5 -67.5Q471 -60 471 -52Q471 -32 477.5 -16.0Q484 0 508 0Q531 0 537.5 -17.0Q544 -34 544 -53Q544 -61 543.5 -68.0Q543 -75 543 -81Q554 -75 570.5 -64.5Q587 -54 601 -54Q616 -54 626.5 -65.0Q637 -76 637 -90Q637 -101 631.0 -109.5Q625 -118 616.0 -124.0Q607 -130 597.0 -135.0Q587 -140 579 -144Z" style="fill:#b3dbf2;stroke:none" transform="scale(1,-1) translate(0,-256)" /></svg>