<?xml version="1.0" encoding="utf-8" ?>
<svg baseProfile="full" height="256" version="1.1" width="256" xmlns="http://www.w3.org/2000/svg" xmlns:ev="http://www.w3.org/2001/xml-events" xmlns:xlink="http://www.w3.org/1999/xlink"><defs /><path d="M1875 503 2315 257Q2340 243 2363.0 228.5Q2386 214 2407 194Q2441 162 2468.5 123.0Q2496 84 2515.5 40.0Q2535 -4 2545.5 -51.0Q2556 -98 2556 -144V-431H831V144Q831 169 829.5 198.0Q828 227 821.0 254.0Q814 281 799.5 304.0Q785 327 759 339V-431H256V1078Q256 1243 334.0 1364.0Q412 1485 567 1544Q603 1557 635.0 1564.5Q667 1572 698.0 1576.0Q729 1580 761.5 1580.5Q794 1581 832 1581L1623 503Z" style="fill:#000000;stroke:none" transform="scale(1,-1) translate(0,-256)" /></svg>