<?xml version="1.0" encoding="utf-8" ?>
<svg baseProfile="full" height="256" version="1.1" width="256" xmlns="http://www.w3.org/2000/svg" xmlns:ev="http://www.w3.org/2001/xml-events" xmlns:xlink="http://www.w3.org/1999/xlink"><defs /><path d="M1048 -195V126Q1048 242 1012.0 326.5Q976 411 911.5 465.5Q847 520 756.0 546.5Q665 573 556 573L400 647V1078Q400 1208 459.5 1294.5Q519 1381 645 1419Q673 1427 701.5 1432.5Q730 1438 759 1438L1550 360H1837Q1940 303 2041.5 247.5Q2143 192 2244 132Q2267 119 2287.5 104.5Q2308 90 2326 71Q2344 51 2360.0 25.0Q2376 -1 2387.5 -29.5Q2399 -58 2405.5 -87.5Q2412 -117 2412 -144L2368 -195Z" style="fill:#f03a17;stroke:none" transform="scale(1,-1) translate(0,-256)" /></svg>