<?xml version="1.0" encoding="utf-8" ?>
<svg baseProfile="full" height="256" version="1.1" width="256" xmlns="http://www.w3.org/2000/svg" xmlns:ev="http://www.w3.org/2001/xml-events" xmlns:xlink="http://www.w3.org/1999/xlink"><defs /><path d="M1909 444Q1909 414 1930.0 393.0Q1951 372 1981 372Q2025 372 2064.5 355.0Q2104 338 2133.5 308.5Q2163 279 2180.0 239.5Q2197 200 2197 156Q2197 121 2186.5 89.5Q2176 58 2157.0 32.0Q2138 6 2111.5 -14.5Q2085 -35 2053 -47V-131H1909V-47Q1877 -35 1850.5 -14.5Q1824 6 1805.0 32.0Q1786 58 1775.5 89.5Q1765 121 1765 156H1909Q1909 127 1930.5 105.5Q1952 84 1981 84Q2010 84 2031.5 105.5Q2053 127 2053 156Q2053 186 2032.0 207.0Q2011 228 1981 228Q1937 228 1897.5 245.0Q1858 262 1828.5 291.5Q1799 321 1782.0 360.5Q1765 400 1765 444Q1765 478 1775.5 510.0Q1786 542 1805.0 568.0Q1824 594 1850.5 614.5Q1877 635 1909 647V731H2053V647Q2085 635 2111.5 614.5Q2138 594 2157.0 568.0Q2176 542 2186.5 510.0Q2197 478 2197 444H2053Q2053 473 2031.5 494.5Q2010 516 1981 516Q1952 516 1930.5 494.5Q1909 473 1909 444Z" style="fill:#16c60c;stroke:none" transform="scale(1,-1) translate(0,-256)" /></svg>