<?xml version="1.0" encoding="utf-8" ?>
<svg baseProfile="full" height="256" version="1.1" width="256" xmlns="http://www.w3.org/2000/svg" xmlns:ev="http://www.w3.org/2001/xml-events" xmlns:xlink="http://www.w3.org/1999/xlink"><defs /><path d="M1837 473 1886 359V300Q1794 197 1669.5 140.5Q1545 84 1406 84Q1333 84 1262.5 100.5Q1192 117 1127.5 148.0Q1063 179 1006.0 223.5Q949 268 903 325V156H759V588H1190V444H993Q1027 394 1073.0 354.0Q1119 314 1172.5 286.0Q1226 258 1285.5 243.0Q1345 228 1406 228Q1472 228 1535.0 245.0Q1598 262 1654.0 294.0Q1710 326 1756.5 371.0Q1803 416 1837 473ZM1909 1306H2053V875H1622V1019H1819Q1784 1069 1738.0 1109.0Q1692 1149 1638.5 1176.5Q1585 1204 1526.0 1219.0Q1467 1234 1406 1234Q1306 1234 1216.0 1197.0Q1126 1160 1054 1091H1046L862 1164Q872 1181 881.0 1193.0Q890 1205 900.0 1214.5Q910 1224 922.5 1232.5Q935 1241 952 1251Q957 1254 963.5 1258.0Q970 1262 977 1262Q988 1262 998.5 1257.5Q1009 1253 1020 1251Q1068 1283 1112.5 1307.0Q1157 1331 1202.5 1346.5Q1248 1362 1297.5 1370.0Q1347 1378 1406 1378Q1479 1378 1549.5 1361.5Q1620 1345 1684.5 1314.0Q1749 1283 1806.0 1238.5Q1863 1194 1909 1137Z" style="fill:#f2f2f2;stroke:none" transform="scale(1,-1) translate(0,-256)" /></svg>