<?xml version="1.0" encoding="utf-8" ?>
<svg baseProfile="full" height="256" version="1.1" width="256" xmlns="http://www.w3.org/2000/svg" xmlns:ev="http://www.w3.org/2001/xml-events" xmlns:xlink="http://www.w3.org/1999/xlink"><defs /><path d="M2197 730Q2264 679 2302.0 604.0Q2340 529 2340 444V156Q2340 71 2302.0 -4.0Q2264 -79 2197 -130V-275H1765V-130Q1702 -82 1666 -15Q1539 -59 1406 -59Q1321 -59 1239.0 -40.5Q1157 -22 1080 13H615V803H472V1217L268 1420L573 1725L831 1467L1089 1725L1299 1515Q1325 1519 1352.0 1520.5Q1379 1522 1406 1522Q1491 1522 1573.0 1503.5Q1655 1485 1732 1450H2197Z" style="fill:#000000;stroke:none" transform="scale(1,-1) translate(0,-256)" /></svg>