<?xml version="1.0" encoding="utf-8" ?>
<svg baseProfile="full" height="256" version="1.1" width="256" xmlns="http://www.w3.org/2000/svg" xmlns:ev="http://www.w3.org/2001/xml-events" xmlns:xlink="http://www.w3.org/1999/xlink"><defs /><path d="M2121 791Q2124 773 2124 755Q2124 717 2110.0 684.5Q2096 652 2072.0 627.5Q2048 603 2015.0 589.0Q1982 575 1945 575H579Q541 575 508 590L494 731L649 919L725 1137L875 1177L891 1379L1429 1445L1531 1545L1478 1653Q1538 1653 1590.0 1630.5Q1642 1608 1681.0 1569.0Q1720 1530 1742.5 1477.5Q1765 1425 1765 1365Q1765 1287 1724 1220L1896 1078Q1905 1055 1908.0 1027.0Q1911 999 1911 969Q1911 943 1910.0 918.0Q1909 893 1909 873Z" style="fill:#e6808a;stroke:none" transform="scale(1,-1) translate(0,-256)" /></svg>