<?xml version="1.0" encoding="utf-8" ?>
<svg baseProfile="full" height="256" version="1.1" width="256" xmlns="http://www.w3.org/2000/svg" xmlns:ev="http://www.w3.org/2001/xml-events" xmlns:xlink="http://www.w3.org/1999/xlink"><defs /><path d="M687 935H1945Q1977 935 2006.0 924.5Q2035 914 2058.5 894.5Q2082 875 2098.5 848.5Q2115 822 2121 791H723Q681 791 643.0 775.5Q605 760 576.0 733.0Q547 706 529.0 669.0Q511 632 508 590Q458 611 429.0 656.0Q400 701 400 755Q400 792 414.0 825.0Q428 858 452.5 882.5Q477 907 509.5 921.0Q542 935 579 935H615V981Q615 1006 617.0 1030.0Q619 1054 628 1078Q654 1151 711.5 1186.5Q769 1222 844 1222Q837 1239 834.0 1257.5Q831 1276 831 1294Q831 1339 848.0 1378.5Q865 1418 894.5 1447.0Q924 1476 963.0 1493.0Q1002 1510 1047 1510H1406Q1430 1510 1444.5 1519.5Q1459 1529 1466.5 1544.0Q1474 1559 1476.0 1577.5Q1478 1596 1478 1615V1634V1650L1481 1649Q1514 1629 1532.5 1597.0Q1551 1565 1551 1527Q1551 1494 1539.0 1465.0Q1527 1436 1505.5 1414.0Q1484 1392 1455.0 1379.0Q1426 1366 1393 1366H1047Q1017 1366 990.5 1354.5Q964 1343 944.5 1323.5Q925 1304 914.0 1278.0Q903 1252 903 1222H1693Q1727 1222 1759.0 1211.5Q1791 1201 1817.5 1182.5Q1844 1164 1864.5 1137.5Q1885 1111 1896 1078H831Q801 1078 775.0 1067.0Q749 1056 729.5 1036.5Q710 1017 698.5 991.0Q687 965 687 935Z" style="fill:#f4abba;stroke:none" transform="scale(1,-1) translate(0,-256)" /></svg>