<?xml version="1.0" encoding="utf-8" ?>
<svg baseProfile="full" height="256" version="1.1" width="256" xmlns="http://www.w3.org/2000/svg" xmlns:ev="http://www.w3.org/2001/xml-events" xmlns:xlink="http://www.w3.org/1999/xlink"><defs /><path d="M651 -431 498 182Q466 204 447.0 229.0Q428 254 418.5 281.5Q409 309 406.0 339.5Q403 370 403 402Q403 422 403.5 442.0Q404 462 404 483Q335 528 295.5 600.0Q256 672 256 755Q256 807 272.0 855.0Q288 903 317.0 943.5Q346 984 386.5 1014.5Q427 1045 476 1062Q483 1108 501.5 1149.5Q520 1191 547.5 1226.5Q575 1262 611.5 1290.5Q648 1319 690 1337Q697 1394 721.5 1446.5Q746 1499 786 1541Q837 1595 905.0 1624.0Q973 1653 1047 1653H1334V1797H1478Q1567 1797 1645.5 1763.0Q1724 1729 1782.5 1670.5Q1841 1612 1875.0 1533.5Q1909 1455 1909 1366Q1909 1349 1907.5 1331.5Q1906 1314 1904 1297Q1962 1255 2000.0 1193.5Q2038 1132 2049 1061Q2098 1044 2138.5 1014.0Q2179 984 2207.5 943.5Q2236 903 2252.0 855.0Q2268 807 2268 755Q2268 676 2231.5 605.0Q2195 534 2129 489Q2129 467 2129.5 446.0Q2130 425 2130 404Q2130 372 2127.0 341.5Q2124 311 2114.5 282.5Q2105 254 2086.0 229.0Q2067 204 2035 182L1882 -431Z" style="fill:#000000;stroke:none" transform="scale(1,-1) translate(0,-256)" /></svg>