<?xml version="1.0" encoding="utf-8" ?>
<svg baseProfile="full" height="256" version="1.1" width="256" xmlns="http://www.w3.org/2000/svg" xmlns:ev="http://www.w3.org/2001/xml-events" xmlns:xlink="http://www.w3.org/1999/xlink"><defs /><path d="M1907 1083Q1941 1083 1963.5 1060.0Q1986 1037 1986 1004Q1986 975 1966 955L1802 790L1797 792Q1786 781 1775.0 768.5Q1764 756 1751.0 745.0Q1738 734 1724.0 726.5Q1710 719 1693 719H1556Q1583 717 1602.5 696.0Q1622 675 1622 647Q1622 618 1600.5 596.5Q1579 575 1550 575H1262Q1248 575 1234.5 580.5Q1221 586 1211 596L1015 793H1008L919 881Q908 891 903.5 905.0Q899 919 899 933Q899 966 920.0 988.0Q941 1010 974 1010Q1007 1010 1029 988L1105 912L1106 904L1292 719H1400Q1372 721 1353.0 741.5Q1334 762 1334 791Q1334 821 1355.0 842.0Q1376 863 1406 863H1664L1706 905V909L1854 1062Q1864 1073 1878.5 1078.0Q1893 1083 1907 1083ZM996 1252Q996 1279 1001.0 1315.5Q1006 1352 1016.5 1389.0Q1027 1426 1043.5 1457.5Q1060 1489 1083 1505Q1098 1516 1115.5 1520.5Q1133 1525 1151 1525Q1175 1525 1200.0 1518.0Q1225 1511 1249.0 1499.5Q1273 1488 1294.0 1472.0Q1315 1456 1330 1438Q1334 1422 1334 1402V1330Q1334 1293 1320.0 1260.0Q1306 1227 1281.5 1202.5Q1257 1178 1224.0 1164.0Q1191 1150 1154 1150Q1104 1150 1062.0 1175.5Q1020 1201 996 1244ZM1815 1256V1244Q1792 1200 1749.5 1175.0Q1707 1150 1658 1150Q1621 1150 1588.0 1164.0Q1555 1178 1530.5 1202.5Q1506 1227 1492.0 1260.0Q1478 1293 1478 1330V1402Q1478 1420 1481 1438Q1496 1456 1517.5 1472.0Q1539 1488 1563.0 1499.5Q1587 1511 1612.0 1518.0Q1637 1525 1661 1525Q1707 1525 1736.5 1496.0Q1766 1467 1783.5 1425.5Q1801 1384 1808.0 1337.5Q1815 1291 1815 1256ZM1719 935H1093L1065 1078H1748ZM1097 308Q1118 285 1118 257V0Q1082 -14 1047 -14Q1011 -14 975 0V144L831 289Q831 303 847.5 327.0Q864 351 887.0 374.0Q910 397 934.5 414.0Q959 431 975 431ZM1693 257Q1693 271 1699.0 284.0Q1705 297 1715 308L1837 431Q1855 429 1878.0 413.5Q1901 398 1922.0 376.0Q1943 354 1959.5 330.0Q1976 306 1981 288L1837 144V0Q1801 -14 1765 -14Q1729 -14 1693 0ZM459 0Q459 1 461.5 8.5Q464 16 466.0 24.0Q468 32 470.0 39.0Q472 46 472 46V288L523 411H653Q666 364 673.0 339.5Q680 315 683 303L687 287Q687 282 681.5 260.5Q676 239 668.0 209.5Q660 180 650.5 146.0Q641 112 632.0 82.0Q623 52 616.5 29.5Q610 7 608 0Q592 -14 573.5 -25.0Q555 -36 532 -36Q511 -36 492.5 -25.5Q474 -15 459 0ZM2304 399Q2305 395 2311.0 377.5Q2317 360 2323.5 340.5Q2330 321 2335.0 305.0Q2340 289 2340 288Q2341 282 2341.0 274.5Q2341 267 2341 258Q2341 229 2339.5 190.0Q2338 151 2338 113Q2338 76 2341.0 45.0Q2344 14 2353 0Q2323 -25 2286 -25Q2264 -25 2243.5 -18.0Q2223 -11 2204 0L2127 268Q2125 273 2125.0 278.0Q2125 283 2125 288L2177 399Z" style="fill:#ffc83d;stroke:none" transform="scale(1,-1) translate(0,-256)" /></svg>