<?xml version="1.0" encoding="utf-8" ?>
<svg baseProfile="full" height="256" version="1.1" width="256" xmlns="http://www.w3.org/2000/svg" xmlns:ev="http://www.w3.org/2001/xml-events" xmlns:xlink="http://www.w3.org/1999/xlink"><defs /><path d="M1658 1581Q1695 1581 1727.5 1567.0Q1760 1553 1784.5 1528.5Q1809 1504 1823.0 1471.5Q1837 1439 1837 1402V1330Q1837 1286 1815 1245L1755 1304Q1765 1316 1765 1330Q1765 1345 1754.5 1355.5Q1744 1366 1729 1366Q1713 1366 1704 1355L1622 1438H1481Q1487 1469 1503.5 1495.5Q1520 1522 1544.0 1541.0Q1568 1560 1597.0 1570.5Q1626 1581 1658 1581ZM1154 1581Q1186 1581 1215.0 1570.5Q1244 1560 1267.5 1541.0Q1291 1522 1307.5 1495.5Q1324 1469 1330 1438H1190L1108 1355Q1097 1366 1083 1366Q1068 1366 1057.5 1355.5Q1047 1345 1047 1330Q1047 1316 1057 1304L997 1245Q975 1286 975 1330V1402Q975 1439 989.0 1471.5Q1003 1504 1027.5 1528.5Q1052 1553 1084.5 1567.0Q1117 1581 1154 1581Z" style="fill:#8e562e;stroke:none" transform="scale(1,-1) translate(0,-256)" /></svg>