<?xml version="1.0" encoding="utf-8" ?>
<svg baseProfile="full" height="256" version="1.1" width="256" xmlns="http://www.w3.org/2000/svg" xmlns:ev="http://www.w3.org/2001/xml-events" xmlns:xlink="http://www.w3.org/1999/xlink"><defs /><path d="M1975 1276Q2010 1264 2043.0 1244.5Q2076 1225 2102 1199L2389 912Q2435 866 2459.5 807.0Q2484 748 2484 683V272Q2484 231 2482.5 200.0Q2481 169 2481 137Q2481 106 2484 66Q2484 64 2488.5 48.0Q2493 32 2499.5 9.0Q2506 -14 2514.0 -40.5Q2522 -67 2529.0 -91.0Q2536 -115 2541.0 -133.0Q2546 -151 2548 -156Q2556 -186 2556 -215V-431H1478Q1478 -406 1477.0 -381.5Q1476 -357 1476 -333Q1476 -275 1489.0 -222.5Q1502 -170 1550 -127V257Q1550 292 1558.5 319.0Q1567 346 1581.0 368.5Q1595 391 1614.5 411.5Q1634 432 1657 454Q1662 458 1665.5 462.0Q1669 466 1674 471Q1647 452 1615.0 441.5Q1583 431 1550 431H1262Q1195 431 1139 470Q1164 444 1186.5 422.0Q1209 400 1225.5 376.0Q1242 352 1252.0 323.5Q1262 295 1262 257V-127Q1296 -157 1315.0 -199.0Q1334 -241 1334 -287V-431H256V-215Q256 -186 264 -156Q265 -151 270.5 -133.0Q276 -115 283.0 -91.0Q290 -67 298.0 -40.5Q306 -14 312.5 9.0Q319 32 323.5 48.0Q328 64 328 66Q331 106 331 137Q331 169 329.5 200.0Q328 231 328 272V683Q328 749 352.0 807.0Q376 865 423 912L710 1199Q736 1225 768.5 1244.5Q801 1264 836 1276Q834 1290 832.5 1303.0Q831 1316 831 1330V1382Q831 1404 832.0 1425.0Q833 1446 838 1467Q850 1523 879.0 1570.5Q908 1618 950.0 1652.5Q992 1687 1044.0 1706.0Q1096 1725 1154 1725Q1228 1725 1294.0 1693.0Q1360 1661 1406 1604Q1452 1661 1518.0 1693.0Q1584 1725 1658 1725Q1724 1725 1783.0 1699.5Q1842 1674 1886.0 1630.0Q1930 1586 1955.5 1527.0Q1981 1468 1981 1402V1374Q1981 1349 1980.0 1325.0Q1979 1301 1975 1276Z" style="fill:#000000;stroke:none" transform="scale(1,-1) translate(0,-256)" /></svg>