<?xml version="1.0" encoding="utf-8" ?>
<svg baseProfile="full" height="256" version="1.1" width="256" xmlns="http://www.w3.org/2000/svg" xmlns:ev="http://www.w3.org/2001/xml-events" xmlns:xlink="http://www.w3.org/1999/xlink"><defs /><path d="M814 592 975 431 831 288 687 431V288H472V683Q472 718 485.5 751.5Q499 785 524 810L812 1098Q837 1123 870.5 1136.5Q904 1150 939 1150Q976 1150 1009.0 1136.0Q1042 1122 1066.0 1097.5Q1090 1073 1104.0 1040.5Q1118 1008 1118 971Q1118 936 1106 905L1026 985Q1016 995 1002.5 1000.5Q989 1006 975 1006Q945 1006 924.0 985.0Q903 964 903 934Q903 905 924 884L1015 793Z" style="fill:#f03a17;stroke:none" transform="scale(1,-1) translate(0,-256)" /></svg>