<?xml version="1.0" encoding="utf-8" ?>
<svg baseProfile="full" height="256" version="1.1" width="256" xmlns="http://www.w3.org/2000/svg" xmlns:ev="http://www.w3.org/2001/xml-events" xmlns:xlink="http://www.w3.org/1999/xlink"><defs /><path d="M2374 -72Q2377 -84 2383.5 -104.0Q2390 -124 2396.5 -145.0Q2403 -166 2407.5 -185.0Q2412 -204 2412 -215V-287H2197Q2197 -258 2217.0 -237.5Q2237 -217 2266 -216L2224 -72Q2260 -55 2298 -55Q2337 -55 2374 -72ZM546 -216Q575 -217 595.0 -237.5Q615 -258 615 -287H400V-215Q400 -204 404.5 -184.5Q409 -165 415.5 -144.0Q422 -123 428.5 -103.0Q435 -83 438 -71Q476 -55 515 -55Q555 -55 587 -71ZM1693 -72Q1709 -61 1727.0 -54.0Q1745 -47 1765 -47Q1785 -47 1803.0 -54.0Q1821 -61 1837 -72V-287H1622Q1622 -258 1643.0 -236.5Q1664 -215 1693 -215ZM1118 -215Q1147 -215 1168.5 -236.5Q1190 -258 1190 -287H975V-72Q992 -62 1010.0 -56.5Q1028 -51 1047 -51Q1067 -51 1084.5 -56.5Q1102 -62 1118 -72Z" style="fill:#cccccc;stroke:none" transform="scale(1,-1) translate(0,-256)" /></svg>