<?xml version="1.0" encoding="utf-8" ?>
<svg baseProfile="full" height="256" version="1.1" width="256" xmlns="http://www.w3.org/2000/svg" xmlns:ev="http://www.w3.org/2001/xml-events" xmlns:xlink="http://www.w3.org/1999/xlink"><defs /><path d="M1873 1150Q1908 1150 1941.5 1136.5Q1975 1123 2000 1098L2288 810Q2313 785 2326.5 751.5Q2340 718 2340 683V288H2125V431L1981 288L1837 431L1998 592L1797 793L1960 956Q1981 977 1981 1006Q1981 1036 1959.5 1057.0Q1938 1078 1909 1078Q1879 1078 1858 1057L1706 905Q1694 936 1694 971Q1694 1008 1708.0 1040.5Q1722 1073 1746.0 1097.5Q1770 1122 1802.5 1136.0Q1835 1150 1873 1150Z" style="fill:#3a96dd;stroke:none" transform="scale(1,-1) translate(0,-256)" /></svg>