<?xml version="1.0" encoding="utf-8" ?>
<svg baseProfile="full" height="256" version="1.1" width="256" xmlns="http://www.w3.org/2000/svg" xmlns:ev="http://www.w3.org/2001/xml-events" xmlns:xlink="http://www.w3.org/1999/xlink"><defs /><path d="M1406 1150H1837V719Q1837 580 1801.0 451.5Q1765 323 1699.5 211.0Q1634 99 1542.5 7.5Q1451 -84 1339.0 -149.5Q1227 -215 1098.5 -251.0Q970 -287 831 -287H400V144Q400 283 436.0 411.5Q472 540 537.5 652.0Q603 764 694.5 855.5Q786 947 898.0 1012.5Q1010 1078 1138.5 1114.0Q1267 1150 1406 1150Z" style="fill:#f7630c;stroke:none" transform="scale(1,-1) translate(0,-256)" /></svg>