<?xml version="1.0" encoding="utf-8" ?>
<svg baseProfile="full" height="256" version="1.1" width="256" xmlns="http://www.w3.org/2000/svg" xmlns:ev="http://www.w3.org/2001/xml-events" xmlns:xlink="http://www.w3.org/1999/xlink"><defs /><path d="M256 -431V144Q256 302 297.0 449.0Q338 596 413.0 724.0Q488 852 593.0 957.0Q698 1062 826.0 1137.0Q954 1212 1100.5 1253.0Q1247 1294 1406 1294H1676Q1696 1314 1712.5 1339.5Q1729 1365 1740.5 1393.5Q1752 1422 1758.5 1452.0Q1765 1482 1765 1510Q1765 1554 1782.5 1593.0Q1800 1632 1829.5 1661.5Q1859 1691 1898.0 1708.0Q1937 1725 1981 1725Q2024 1725 2063.5 1708.0Q2103 1691 2132.5 1661.5Q2162 1632 2179.5 1593.0Q2197 1554 2197 1510Q2197 1439 2182.5 1367.5Q2168 1296 2140.0 1228.5Q2112 1161 2072.0 1099.5Q2032 1038 1981 989V920Q2106 894 2211.5 829.0Q2317 764 2393.5 670.0Q2470 576 2513.0 460.0Q2556 344 2556 216V-287H2053Q1930 -287 1815.5 -248.0Q1701 -209 1605 -131Q1526 -203 1435.0 -259.0Q1344 -315 1245.5 -353.0Q1147 -391 1042.5 -411.0Q938 -431 831 -431Z" style="fill:#000000;stroke:none" transform="scale(1,-1) translate(0,-256)" /></svg>