<?xml version="1.0" encoding="utf-8" ?>
<svg baseProfile="full" height="256" version="1.1" width="256" xmlns="http://www.w3.org/2000/svg" xmlns:ev="http://www.w3.org/2001/xml-events" xmlns:xlink="http://www.w3.org/1999/xlink"><defs /><path d="M2032 288 2258 62Q2268 52 2268 36Q2268 22 2257.5 11.0Q2247 0 2233 0Q2218 0 2207 11L1981 237V36Q1981 21 1970.5 10.5Q1960 0 1945 0Q1930 0 1919.5 10.5Q1909 21 1909 36V309L1704 514Q1693 525 1693 539Q1693 553 1704.0 564.0Q1715 575 1729 575Q1745 575 1755 565L1960 360H2232Q2247 360 2257.5 349.5Q2268 339 2268 324Q2268 309 2257.5 298.5Q2247 288 2232 288Z" style="fill:#d48c00;stroke:none" transform="scale(1,-1) translate(0,-256)" /></svg>