<?xml version="1.0" encoding="utf-8" ?>
<svg baseProfile="full" height="256" version="1.1" width="256" xmlns="http://www.w3.org/2000/svg" xmlns:ev="http://www.w3.org/2001/xml-events" xmlns:xlink="http://www.w3.org/1999/xlink"><defs /><path d="M2053 1510Q2053 1456 2041.5 1399.5Q2030 1343 2008.5 1289.0Q1987 1235 1956.5 1186.0Q1926 1137 1888 1099L1550 761V360Q1550 330 1529.0 309.0Q1508 288 1478 288Q1448 288 1427.0 309.0Q1406 330 1406 360V617L1190 402V0Q1190 -30 1169.0 -51.0Q1148 -72 1118 -72Q1089 -72 1068.0 -50.5Q1047 -29 1047 0V258L738 -51Q717 -72 687 -72Q657 -72 636.0 -51.0Q615 -30 615 0Q615 30 636 51L945 360H687Q658 360 636.5 381.0Q615 402 615 431Q615 461 636.0 482.0Q657 503 687 503H1089L1304 719H1047Q1017 719 996.0 740.0Q975 761 975 791Q975 821 996.0 842.0Q1017 863 1047 863H1448L1786 1201Q1814 1229 1836.5 1266.0Q1859 1303 1875.0 1344.0Q1891 1385 1900.0 1428.0Q1909 1471 1909 1510Q1909 1539 1930.5 1560.0Q1952 1581 1981 1581Q2010 1581 2031.5 1560.0Q2053 1539 2053 1510Z" style="fill:#af0d1a;stroke:none" transform="scale(1,-1) translate(0,-256)" /></svg>