<?xml version="1.0" encoding="utf-8" ?>
<svg baseProfile="full" height="256" version="1.1" width="256" xmlns="http://www.w3.org/2000/svg" xmlns:ev="http://www.w3.org/2001/xml-events" xmlns:xlink="http://www.w3.org/1999/xlink"><defs /><path d="M1478 935Q1486 935 1491.5 932.0Q1497 929 1503 924Q1545 885 1569.5 860.0Q1594 835 1611.0 811.5Q1628 788 1642.5 759.5Q1657 731 1679 686L1690 663Q1694 656 1694 647Q1694 632 1683.0 621.5Q1672 611 1657 611Q1637 611 1625 631Q1605 665 1591.5 701.0Q1578 737 1556 770Q1539 794 1515.5 813.5Q1492 833 1472 853L1555 521Q1560 500 1571.0 461.5Q1582 423 1593.0 381.5Q1604 340 1612.5 303.5Q1621 267 1621 251Q1621 237 1610.5 226.5Q1600 216 1586 216Q1574 216 1564.0 223.5Q1554 231 1551 243L1485 504Q1481 520 1467.5 529.0Q1454 538 1438 538Q1419 538 1407 526L1334 453V252Q1334 237 1323.5 226.5Q1313 216 1298 216Q1283 216 1272.5 226.5Q1262 237 1262 252V467Q1262 482 1273 493L1359 579L1299 820L1240 703Q1234 690 1218 684Q1208 680 1189.0 674.0Q1170 668 1149.5 662.0Q1129 656 1110.5 651.5Q1092 647 1082 647Q1068 647 1057.5 657.5Q1047 668 1047 682Q1047 694 1054.5 704.5Q1062 715 1073 718L1183 749L1266 915Q1277 935 1298 935ZM1370 1006Q1348 1006 1328.5 1014.5Q1309 1023 1294.0 1038.0Q1279 1053 1270.5 1072.5Q1262 1092 1262 1114Q1262 1136 1270.5 1155.5Q1279 1175 1294.0 1190.0Q1309 1205 1328.5 1213.5Q1348 1222 1370 1222Q1392 1222 1411.5 1213.5Q1431 1205 1446.0 1190.0Q1461 1175 1469.5 1155.5Q1478 1136 1478 1114Q1478 1092 1469.5 1072.5Q1461 1053 1446.0 1038.0Q1431 1023 1411.5 1014.5Q1392 1006 1370 1006Z" style="fill:#000000;stroke:none" transform="scale(1,-1) translate(0,-256)" /></svg>