<?xml version="1.0" encoding="utf-8" ?>
<svg baseProfile="full" height="256" version="1.1" width="256" xmlns="http://www.w3.org/2000/svg" xmlns:ev="http://www.w3.org/2001/xml-events" xmlns:xlink="http://www.w3.org/1999/xlink"><defs /><path d="M1921 719 2180 288H1662L1406 -139L1150 288H632L891 719L632 1150H1150L1406 1577L1662 1150H2180ZM1753 719 1581 1006H1231L1059 719L1231 431H1581ZM1406 647Q1376 647 1355.0 668.0Q1334 689 1334 719Q1334 749 1355.0 770.0Q1376 791 1406 791Q1436 791 1457.0 770.0Q1478 749 1478 719Q1478 689 1457.0 668.0Q1436 647 1406 647ZM1406 1298 1317 1150H1495ZM1406 140 1495 288H1317ZM886 431H1063L975 579ZM1837 579 1749 431H1926ZM886 1006 975 859 1063 1006ZM1926 1006H1749L1837 859Z" style="fill:#ffffff;stroke:none" transform="scale(1,-1) translate(0,-256)" /></svg>