<?xml version="1.0" encoding="utf-8" ?>
<svg baseProfile="full" height="256" version="1.1" width="256" xmlns="http://www.w3.org/2000/svg" xmlns:ev="http://www.w3.org/2001/xml-events" xmlns:xlink="http://www.w3.org/1999/xlink"><defs /><path d="M1226 1294Q1263 1294 1296.0 1280.0Q1329 1266 1353.5 1241.5Q1378 1217 1392.0 1184.0Q1406 1151 1406 1114Q1406 1077 1392.0 1044.5Q1378 1012 1353.5 987.5Q1329 963 1296.0 949.0Q1263 935 1226 935Q1189 935 1156.5 949.0Q1124 963 1099.5 987.5Q1075 1012 1061.0 1044.5Q1047 1077 1047 1114Q1047 1151 1061.0 1184.0Q1075 1217 1099.5 1241.5Q1124 1266 1156.5 1280.0Q1189 1294 1226 1294Z" style="fill:#e5e5e5;stroke:none" transform="scale(1,-1) translate(0,-256)" /></svg>