<?xml version="1.0" encoding="utf-8" ?>
<svg baseProfile="full" height="256" version="1.1" width="256" xmlns="http://www.w3.org/2000/svg" xmlns:ev="http://www.w3.org/2001/xml-events" xmlns:xlink="http://www.w3.org/1999/xlink"><defs /><path d="M1656 853 1577 826 1605 904Q1631 930 1659.0 940.5Q1687 951 1722 958Q1755 965 1781.0 973.5Q1807 982 1829.5 994.5Q1852 1007 1873.0 1024.5Q1894 1042 1919 1066Q1943 1089 1966.5 1105.0Q1990 1121 2014.5 1132.5Q2039 1144 2066.0 1152.0Q2093 1160 2125 1168Q2161 1177 2199.0 1190.5Q2237 1204 2268.5 1225.5Q2300 1247 2320.5 1278.5Q2341 1310 2341 1355Q2341 1407 2313.5 1460.0Q2286 1513 2243.0 1556.0Q2200 1599 2147.0 1626.5Q2094 1654 2042 1654Q1997 1654 1966.0 1634.0Q1935 1614 1913.0 1582.5Q1891 1551 1877.5 1512.5Q1864 1474 1855 1438Q1847 1406 1839.0 1379.0Q1831 1352 1819.5 1327.5Q1808 1303 1792.0 1279.5Q1776 1256 1753 1232Q1729 1207 1711.5 1186.0Q1694 1165 1681.5 1142.5Q1669 1120 1660.5 1094.0Q1652 1068 1645 1035Q1638 1000 1627.5 972.0Q1617 944 1591 918L1512 891L1540 969Q1557 986 1563.0 1005.5Q1569 1025 1574 1048Q1581 1087 1591.5 1118.0Q1602 1149 1617.5 1176.0Q1633 1203 1654.0 1228.5Q1675 1254 1703 1283Q1730 1311 1745.5 1341.5Q1761 1372 1771.0 1403.5Q1781 1435 1788.5 1468.0Q1796 1501 1807.5 1533.5Q1819 1566 1837.0 1598.0Q1855 1630 1886 1661Q1951 1726 2040 1726Q2085 1726 2130.0 1711.0Q2175 1696 2216.5 1669.5Q2258 1643 2294.0 1607.0Q2330 1571 2356.5 1529.5Q2383 1488 2398.0 1443.0Q2413 1398 2413 1353Q2413 1265 2348 1200Q2317 1168 2284.5 1150.0Q2252 1132 2219.5 1120.5Q2187 1109 2154.5 1101.5Q2122 1094 2090.5 1084.0Q2059 1074 2028.5 1058.5Q1998 1043 1970 1016Q1941 988 1915.5 967.0Q1890 946 1863.0 930.5Q1836 915 1805.0 904.5Q1774 894 1735 887Q1712 882 1692.5 876.0Q1673 870 1656 853Z" style="fill:#e84757;stroke:none" transform="scale(1,-1) translate(0,-256)" /></svg>