<?xml version="1.0" encoding="utf-8" ?>
<svg baseProfile="full" height="256" version="1.1" width="256" xmlns="http://www.w3.org/2000/svg" xmlns:ev="http://www.w3.org/2001/xml-events" xmlns:xlink="http://www.w3.org/1999/xlink"><defs /><path d="M2346 1254Q2339 1243 2330.0 1232.5Q2321 1222 2310 1214L2194 1330L2078 1235L2170 1143Q2155 1138 2139.5 1135.0Q2124 1132 2109 1127L2037 1200L1921 1105L1965 1061L1926 1024L1879 1070L1763 975L1798 940Q1783 935 1768.0 931.5Q1753 928 1738 924L1722 940L1690 914Q1658 905 1640.0 887.5Q1622 870 1599 847Q1586 865 1568.5 882.0Q1551 899 1533 912Q1555 934 1572.5 953.0Q1590 972 1599 1001L1627 1035L1610 1051Q1614 1067 1617.5 1082.0Q1621 1097 1627 1112L1662 1076L1757 1192L1710 1239Q1719 1250 1729.0 1259.0Q1739 1268 1747 1279L1792 1234L1887 1350L1813 1423Q1818 1438 1821.0 1453.5Q1824 1469 1829 1484L1922 1391L2017 1507L1900 1624Q1910 1634 1920.0 1643.0Q1930 1652 1941 1660L2052 1549L2148 1665Q2160 1659 2172.0 1652.5Q2184 1646 2196 1639L2090 1510L2197 1403L2326 1509Q2333 1497 2339.5 1485.0Q2346 1473 2351 1460L2236 1365ZM2040 1273 2156 1369 2056 1469 1960 1353ZM1883 1143 1998 1239 1925 1311 1830 1196ZM1725 1013 1841 1108 1795 1154 1700 1038ZM1580 893 1683 978 1665 996Z" style="fill:#a6a6a6;stroke:none" transform="scale(1,-1) translate(0,-256)" /></svg>