<?xml version="1.0" encoding="utf-8" ?>
<svg baseProfile="full" height="256" version="1.1" width="256" xmlns="http://www.w3.org/2000/svg" xmlns:ev="http://www.w3.org/2001/xml-events" xmlns:xlink="http://www.w3.org/1999/xlink"><defs /><path d="M2022 1869Q2131 1869 2225.0 1827.5Q2319 1786 2396 1709Q2426 1679 2454.5 1639.5Q2483 1600 2505.5 1556.0Q2528 1512 2542.0 1466.0Q2556 1420 2556 1377V1330Q2556 1265 2525.5 1204.0Q2495 1143 2450 1098Q2419 1067 2388.0 1045.5Q2357 1024 2323.5 1008.0Q2290 992 2254.0 980.5Q2218 969 2177 959Q2148 951 2121.0 943.0Q2094 935 2071 914Q2031 876 1996.0 848.5Q1961 821 1924.0 801.0Q1887 781 1845.0 767.0Q1803 753 1749 744Q1737 734 1719.0 720.5Q1701 707 1682.0 692.5Q1663 678 1646.0 664.0Q1629 650 1619 640L571 -408Q548 -431 516 -431Q484 -431 461 -408L279 -226Q268 -215 262.0 -201.0Q256 -187 256 -171Q256 -139 279 -116L1188 793Q1127 800 1075.0 828.0Q1023 856 984.5 899.5Q946 943 924.5 998.0Q903 1053 903 1114Q903 1181 928.5 1240.0Q954 1299 998.0 1343.0Q1042 1387 1100.5 1412.5Q1159 1438 1226 1438Q1270 1438 1311.5 1426.5Q1353 1415 1389.5 1393.5Q1426 1372 1456.5 1341.0Q1487 1310 1509 1272Q1529 1304 1552.0 1330.5Q1575 1357 1601 1384Q1621 1406 1630.0 1433.0Q1639 1460 1646 1488Q1656 1530 1667.5 1566.5Q1679 1603 1694.5 1636.0Q1710 1669 1732.0 1700.0Q1754 1731 1786 1763Q1832 1808 1894.0 1838.5Q1956 1869 2022 1869Z" style="fill:#000000;stroke:none" transform="scale(1,-1) translate(0,-256)" /></svg>