<?xml version="1.0" encoding="utf-8" ?>
<svg baseProfile="full" height="256" version="1.1" width="256" xmlns="http://www.w3.org/2000/svg" xmlns:ev="http://www.w3.org/2001/xml-events" xmlns:xlink="http://www.w3.org/1999/xlink"><defs /><path d="M1208 1222Q1208 1196 1198.0 1173.0Q1188 1150 1171.0 1133.0Q1154 1116 1131.5 1106.0Q1109 1096 1083 1096Q1057 1096 1034.0 1106.0Q1011 1116 994.0 1133.0Q977 1150 967.0 1173.0Q957 1196 957 1222Q957 1248 967.0 1271.0Q977 1294 994.0 1311.0Q1011 1328 1034.0 1338.0Q1057 1348 1083 1348Q1109 1348 1132.0 1338.0Q1155 1328 1172.0 1311.0Q1189 1294 1198.5 1271.0Q1208 1248 1208 1222ZM1783 1222Q1783 1196 1773.0 1173.0Q1763 1150 1746.0 1133.0Q1729 1116 1706.5 1106.0Q1684 1096 1658 1096Q1632 1096 1609.0 1106.0Q1586 1116 1569.0 1133.0Q1552 1150 1542.0 1173.0Q1532 1196 1532 1222Q1532 1248 1542.0 1271.0Q1552 1294 1569.0 1311.0Q1586 1328 1609.0 1338.0Q1632 1348 1658 1348Q1684 1348 1707.0 1338.0Q1730 1328 1747.0 1311.0Q1764 1294 1773.5 1271.0Q1783 1248 1783 1222Z" style="fill:#000000;stroke:none" transform="scale(1,-1) translate(0,-256)" /></svg>