<?xml version="1.0" encoding="utf-8" ?>
<svg baseProfile="full" height="256" version="1.1" width="256" xmlns="http://www.w3.org/2000/svg" xmlns:ev="http://www.w3.org/2001/xml-events" xmlns:xlink="http://www.w3.org/1999/xlink"><defs /><path d="M2340 216Q2385 216 2424.0 199.0Q2463 182 2492.5 152.5Q2522 123 2539.0 84.0Q2556 45 2556 0Q2556 -45 2539.0 -84.0Q2522 -123 2492.5 -152.0Q2463 -181 2424.0 -198.0Q2385 -215 2340 -215H1711Q1676 -240 1635.0 -265.5Q1594 -291 1549.5 -312.0Q1505 -333 1459.5 -346.0Q1414 -359 1370 -359Q1326 -359 1280.5 -346.0Q1235 -333 1190.5 -312.0Q1146 -291 1105.0 -265.5Q1064 -240 1029 -215H472Q427 -215 388.0 -198.0Q349 -181 319.5 -152.0Q290 -123 273.0 -84.0Q256 -45 256 0Q256 45 273.0 84.0Q290 123 319.5 152.5Q349 182 388.0 199.0Q427 216 472 216H642Q597 300 570.0 389.5Q543 479 543 575Q543 699 577.0 815.0Q611 931 683 1032Q651 1125 651 1222Q651 1275 660.5 1326.5Q670 1378 688 1428Q637 1470 608.0 1528.5Q579 1587 579 1653V1707Q579 1740 592.0 1769.5Q605 1799 627.0 1821.0Q649 1843 678.5 1856.0Q708 1869 741 1869Q782 1869 817.5 1849.5Q853 1830 876 1797H1041Q1119 1832 1202.0 1850.5Q1285 1869 1370 1869Q1455 1869 1538.0 1850.5Q1621 1832 1699 1797H1865Q1888 1830 1923.0 1849.5Q1958 1869 1999 1869Q2032 1869 2061.5 1856.0Q2091 1843 2113.0 1821.0Q2135 1799 2148.0 1769.5Q2161 1740 2161 1707Q2161 1663 2157.5 1625.0Q2154 1587 2143.0 1553.0Q2132 1519 2110.0 1488.0Q2088 1457 2052 1428Q2070 1378 2079.5 1326.5Q2089 1275 2089 1222Q2089 1125 2057 1032Q2129 931 2163.0 815.0Q2197 699 2197 575Q2197 479 2170.0 389.5Q2143 300 2098 216Z" style="fill:#000000;stroke:none" transform="scale(1,-1) translate(0,-256)" /></svg>