<?xml version="1.0" encoding="utf-8" ?>
<svg baseProfile="full" height="256" version="1.1" width="256" xmlns="http://www.w3.org/2000/svg" xmlns:ev="http://www.w3.org/2001/xml-events" xmlns:xlink="http://www.w3.org/1999/xlink"><defs /><path d="M1999 1725Q2007 1725 2012.0 1720.0Q2017 1715 2017 1707V1653Q2017 1623 2005.5 1597.0Q1994 1571 1974.5 1551.5Q1955 1532 1929.0 1521.0Q1903 1510 1873 1510H1637Q1593 1510 1552.0 1497.0Q1511 1484 1476.0 1460.5Q1441 1437 1413.5 1403.5Q1386 1370 1370 1330Q1353 1370 1326.0 1403.5Q1299 1437 1264.0 1460.5Q1229 1484 1188.0 1497.0Q1147 1510 1103 1510H867Q837 1510 811.0 1521.0Q785 1532 765.5 1551.5Q746 1571 734.5 1597.0Q723 1623 723 1653V1707Q723 1715 728.0 1720.0Q733 1725 741 1725Q753 1725 756.0 1713.5Q759 1702 763.5 1688.5Q768 1675 778.0 1664.0Q788 1653 813 1653H1083Q1142 1653 1194.5 1630.5Q1247 1608 1286.0 1569.0Q1325 1530 1347.5 1477.5Q1370 1425 1370 1366Q1370 1426 1392.5 1478.0Q1415 1530 1454.0 1569.0Q1493 1608 1545.5 1630.5Q1598 1653 1658 1653H1927Q1952 1653 1962.0 1664.0Q1972 1675 1976.5 1688.5Q1981 1702 1984.0 1713.5Q1987 1725 1999 1725Z" style="fill:#eba300;stroke:none" transform="scale(1,-1) translate(0,-256)" /></svg>