<?xml version="1.0" encoding="utf-8" ?>
<svg baseProfile="full" height="256" version="1.1" width="256" xmlns="http://www.w3.org/2000/svg" xmlns:ev="http://www.w3.org/2001/xml-events" xmlns:xlink="http://www.w3.org/1999/xlink"><defs /><path d="M1693 144Q1723 144 1744.0 123.0Q1765 102 1765 72V0Q1765 -29 1743.5 -50.5Q1722 -72 1693 -72V-6Q1691 -33 1670.5 -52.5Q1650 -72 1622 -72V-6Q1620 -33 1599.0 -52.5Q1578 -72 1550 -72V72Q1550 102 1571.0 123.0Q1592 144 1622 144ZM1190 144Q1220 144 1241.0 123.0Q1262 102 1262 72V-72Q1234 -72 1213.0 -52.5Q1192 -33 1190 -6V-72Q1162 -72 1141.0 -52.5Q1120 -33 1118 -6V-72Q1089 -72 1068.0 -50.5Q1047 -29 1047 0V72Q1047 101 1068.0 122.5Q1089 144 1118 144ZM1478 1042 1370 827 1262 1042 1370 1150Z" style="fill:#ffb900;stroke:none" transform="scale(1,-1) translate(0,-256)" /></svg>