<?xml version="1.0" encoding="utf-8" ?>
<svg baseProfile="full" height="256" version="1.1" width="256" xmlns="http://www.w3.org/2000/svg" xmlns:ev="http://www.w3.org/2001/xml-events" xmlns:xlink="http://www.w3.org/1999/xlink"><defs /><path d="M1298 1222Q1298 1177 1281.0 1138.0Q1264 1099 1235.0 1069.5Q1206 1040 1167.0 1023.0Q1128 1006 1083 1006Q1038 1006 999.0 1023.0Q960 1040 930.5 1069.5Q901 1099 884.0 1138.0Q867 1177 867 1222Q867 1267 884.0 1306.0Q901 1345 930.5 1374.5Q960 1404 999.0 1421.0Q1038 1438 1083 1438Q1128 1438 1167.0 1421.0Q1206 1404 1235.0 1374.5Q1264 1345 1281.0 1306.0Q1298 1267 1298 1222ZM1873 1222Q1873 1177 1856.0 1138.0Q1839 1099 1810.0 1069.5Q1781 1040 1742.0 1023.0Q1703 1006 1658 1006Q1613 1006 1574.0 1023.0Q1535 1040 1505.5 1069.5Q1476 1099 1459.0 1138.0Q1442 1177 1442 1222Q1442 1267 1459.0 1306.0Q1476 1345 1505.5 1374.5Q1535 1404 1574.0 1421.0Q1613 1438 1658 1438Q1703 1438 1742.0 1421.0Q1781 1404 1810.0 1374.5Q1839 1345 1856.0 1306.0Q1873 1267 1873 1222Z" style="fill:#f7d7c4;stroke:none" transform="scale(1,-1) translate(0,-256)" /></svg>