<?xml version="1.0" encoding="utf-8" ?>
<svg baseProfile="full" height="256" version="1.1" width="256" xmlns="http://www.w3.org/2000/svg" xmlns:ev="http://www.w3.org/2001/xml-events" xmlns:xlink="http://www.w3.org/1999/xlink"><defs /><path d="M1837 575Q1837 498 1819.0 416.5Q1801 335 1766.5 257.5Q1732 180 1683.0 113.0Q1634 46 1571 0H1169Q1106 46 1057.0 113.0Q1008 180 973.5 257.5Q939 335 921.0 416.5Q903 498 903 575Q903 649 920.5 721.0Q938 793 976 856Q1059 787 1161.0 753.0Q1263 719 1370 719Q1477 719 1579.0 753.0Q1681 787 1764 856Q1802 793 1819.5 721.0Q1837 649 1837 575Z" style="fill:#f7894a;stroke:none" transform="scale(1,-1) translate(0,-256)" /></svg>