<?xml version="1.0" encoding="utf-8" ?>
<svg baseProfile="full" height="256" version="1.1" width="256" xmlns="http://www.w3.org/2000/svg" xmlns:ev="http://www.w3.org/2001/xml-events" xmlns:xlink="http://www.w3.org/1999/xlink"><defs /><path d="M1891 1009Q1974 919 2013.5 807.5Q2053 696 2053 575Q2053 504 2033.0 434.0Q2013 364 1978.0 296.5Q1943 229 1896.5 166.5Q1850 104 1796.0 48.0Q1742 -8 1684.5 -55.0Q1627 -102 1570 -137Q1550 -149 1525.0 -163.0Q1500 -177 1473.5 -188.5Q1447 -200 1420.5 -207.5Q1394 -215 1370 -215Q1346 -215 1319.5 -207.5Q1293 -200 1266.5 -188.5Q1240 -177 1215.0 -163.0Q1190 -149 1170 -137Q1113 -102 1055.5 -55.0Q998 -8 944.0 48.0Q890 104 843.5 166.5Q797 229 762.0 296.5Q727 364 707.0 434.0Q687 504 687 575Q687 696 726.5 807.5Q766 919 849 1009Q823 1058 809.0 1112.0Q795 1166 795 1222Q795 1298 818.0 1365.5Q841 1433 881.0 1488.5Q921 1544 976.0 1588.0Q1031 1632 1095.0 1662.5Q1159 1693 1229.0 1709.0Q1299 1725 1370 1725Q1441 1725 1511.0 1709.0Q1581 1693 1645.0 1662.5Q1709 1632 1764.0 1588.0Q1819 1544 1859.0 1488.5Q1899 1433 1922.0 1365.5Q1945 1298 1945 1222Q1945 1166 1931.0 1112.0Q1917 1058 1891 1009Z" style="fill:#ca5010;stroke:none" transform="scale(1,-1) translate(0,-256)" /></svg>