<?xml version="1.0" encoding="utf-8" ?>
<svg baseProfile="full" height="256" version="1.1" width="256" xmlns="http://www.w3.org/2000/svg" xmlns:ev="http://www.w3.org/2001/xml-events" xmlns:xlink="http://www.w3.org/1999/xlink"><defs /><path d="M1981 791V647H1732Q1744 498 1801.5 364.0Q1859 230 1962 121L1857 23Q1737 151 1669.0 311.5Q1601 472 1589 647H1223Q1211 472 1143.0 311.5Q1075 151 955 23L850 121Q953 230 1010.5 364.0Q1068 498 1079 647H831V791H1079Q1068 940 1010.5 1074.0Q953 1208 850 1317L955 1415Q1075 1287 1143.0 1126.5Q1211 966 1223 791H1589Q1601 966 1669.0 1126.5Q1737 1287 1857 1415L1962 1317Q1859 1208 1801.5 1074.0Q1744 940 1732 791Z" style="fill:#ffffff;stroke:none" transform="scale(1,-1) translate(0,-256)" /></svg>