<?xml version="1.0" encoding="utf-8" ?>
<svg baseProfile="full" height="256" version="1.1" width="256" xmlns="http://www.w3.org/2000/svg" xmlns:ev="http://www.w3.org/2001/xml-events" xmlns:xlink="http://www.w3.org/1999/xlink"><defs /><path d="M1190 1510Q1219 1510 1240.5 1488.5Q1262 1467 1262 1438Q1262 1408 1241.0 1387.0Q1220 1366 1190 1366Q1074 1366 983.0 1321.0Q892 1276 813 1195Q802 1184 789.0 1177.5Q776 1171 759 1171Q729 1171 708.0 1192.0Q687 1213 687 1243Q687 1268 705 1291Q748 1343 804.0 1383.5Q860 1424 924.0 1452.0Q988 1480 1056.0 1495.0Q1124 1510 1190 1510ZM1622 1510Q1688 1510 1756.0 1495.0Q1824 1480 1888.0 1452.0Q1952 1424 2008.0 1383.5Q2064 1343 2107 1291Q2125 1268 2125 1243Q2125 1214 2104.0 1192.5Q2083 1171 2053 1171Q2036 1171 2023.0 1177.5Q2010 1184 1999 1195Q1959 1235 1917.0 1267.0Q1875 1299 1829.0 1321.0Q1783 1343 1731.5 1354.5Q1680 1366 1622 1366Q1592 1366 1571.0 1387.0Q1550 1408 1550 1438Q1550 1467 1571.5 1488.5Q1593 1510 1622 1510Z" style="fill:#d48c00;stroke:none" transform="scale(1,-1) translate(0,-256)" /></svg>