<?xml version="1.0" encoding="utf-8" ?>
<svg baseProfile="full" height="256" version="1.1" width="256" xmlns="http://www.w3.org/2000/svg" xmlns:ev="http://www.w3.org/2001/xml-events" xmlns:xlink="http://www.w3.org/1999/xlink"><defs /><path d="M1251 828Q1251 778 1232.0 734.5Q1213 691 1180.5 658.5Q1148 626 1104.0 607.0Q1060 588 1011 588Q961 588 917.5 607.0Q874 626 841.5 658.5Q809 691 790.0 734.5Q771 778 771 828Q771 877 790.0 921.0Q809 965 841.5 997.5Q874 1030 917.5 1049.0Q961 1068 1011 1068Q1060 1068 1104.0 1049.0Q1148 1030 1180.5 997.5Q1213 965 1232.0 921.0Q1251 877 1251 828ZM1801 1067Q1850 1067 1894.0 1048.0Q1938 1029 1970.5 996.5Q2003 964 2022.0 920.0Q2041 876 2041 827Q2041 777 2022.0 733.5Q2003 690 1970.5 657.5Q1938 625 1894.5 606.0Q1851 587 1801 587Q1751 587 1707.5 606.0Q1664 625 1631.5 657.5Q1599 690 1580.0 733.5Q1561 777 1561 827Q1561 876 1580.0 920.0Q1599 964 1631.5 996.5Q1664 1029 1707.5 1048.0Q1751 1067 1801 1067ZM1406 503Q1466 503 1518.0 480.5Q1570 458 1609.0 419.0Q1648 380 1670.5 328.0Q1693 276 1693 216V144Q1693 84 1670.5 31.5Q1648 -21 1609.0 -60.0Q1570 -99 1518.0 -121.5Q1466 -144 1406 -144Q1346 -144 1293.5 -121.5Q1241 -99 1202.0 -60.0Q1163 -21 1140.5 31.5Q1118 84 1118 144V216Q1118 276 1140.5 328.0Q1163 380 1202.0 419.0Q1241 458 1293.5 480.5Q1346 503 1406 503Z" style="fill:#000000;stroke:none" transform="scale(1,-1) translate(0,-256)" /></svg>