<?xml version="1.0" encoding="utf-8" ?>
<svg baseProfile="full" height="256" version="1.1" width="256" xmlns="http://www.w3.org/2000/svg" xmlns:ev="http://www.w3.org/2001/xml-events" xmlns:xlink="http://www.w3.org/1999/xlink"><defs /><path d="M1478 1295Q1449 1295 1428.0 1315.5Q1407 1336 1407 1365Q1407 1394 1428.0 1415.5Q1449 1437 1478 1437Q1507 1437 1528.0 1415.5Q1549 1394 1549 1365Q1549 1336 1528.0 1315.5Q1507 1295 1478 1295ZM1190 1222Q1161 1222 1140.0 1243.0Q1119 1264 1119 1293Q1119 1322 1140.0 1343.5Q1161 1365 1190 1365Q1219 1365 1240.0 1343.5Q1261 1322 1261 1293Q1261 1264 1240.0 1243.0Q1219 1222 1190 1222ZM902 1006Q873 1006 852.0 1027.0Q831 1048 831 1077Q831 1106 852.0 1127.5Q873 1149 902 1149Q932 1149 953.0 1128.0Q974 1107 974 1077Q974 1048 952.5 1027.0Q931 1006 902 1006ZM758 720Q729 720 708.0 741.0Q687 762 687 791Q687 820 708.0 841.5Q729 863 758 863Q788 863 809.0 842.0Q830 821 830 791Q830 762 808.5 741.0Q787 720 758 720ZM831 432Q802 432 781.0 453.0Q760 474 760 503Q760 532 781.0 553.5Q802 575 831 575Q861 575 881.5 554.0Q902 533 902 503Q902 474 881.0 453.0Q860 432 831 432ZM1046 431Q1076 431 1097.0 410.5Q1118 390 1118 360Q1118 331 1096.5 310.0Q1075 289 1046 289Q1017 289 996.0 310.0Q975 331 975 360Q975 389 996.0 410.0Q1017 431 1046 431ZM1334 503Q1363 503 1384.5 482.0Q1406 461 1406 432Q1406 403 1384.5 382.0Q1363 361 1334 361Q1305 361 1284.5 382.0Q1264 403 1264 432Q1264 461 1284.5 482.0Q1305 503 1334 503ZM1622 719Q1652 719 1673.0 698.0Q1694 677 1694 647Q1694 618 1672.5 597.0Q1651 576 1622 576Q1593 576 1572.0 597.0Q1551 618 1551 647Q1551 676 1572.0 697.5Q1593 719 1622 719ZM1766 1005Q1796 1005 1816.5 984.5Q1837 964 1837 934Q1837 904 1816.5 883.5Q1796 863 1766 863Q1737 863 1716.0 884.0Q1695 905 1695 934Q1695 963 1716.0 984.0Q1737 1005 1766 1005ZM1693 1293Q1723 1293 1744.0 1272.5Q1765 1252 1765 1222Q1765 1193 1743.5 1172.0Q1722 1151 1693 1151Q1664 1151 1643.0 1172.0Q1622 1193 1622 1222Q1622 1251 1643.0 1272.0Q1664 1293 1693 1293Z" style="fill:#000000;stroke:none" transform="scale(1,-1) translate(0,-256)" /></svg>