<?xml version="1.0" encoding="utf-8" ?>
<svg baseProfile="full" height="256" version="1.1" width="256" xmlns="http://www.w3.org/2000/svg" xmlns:ev="http://www.w3.org/2001/xml-events" xmlns:xlink="http://www.w3.org/1999/xlink"><defs /><path d="M1554 -431Q1405 -431 1253.5 -395.0Q1102 -359 959.5 -294.0Q817 -229 689.0 -139.5Q561 -50 459 58Q354 169 305.0 297.5Q256 426 256 579Q256 739 307.0 897.0Q358 1055 447.5 1198.5Q537 1342 659.0 1464.5Q781 1587 924.0 1677.0Q1067 1767 1225.0 1818.0Q1383 1869 1544 1869Q1698 1869 1826.5 1820.5Q1955 1772 2067 1666Q2175 1564 2265.0 1436.0Q2355 1308 2419.5 1165.0Q2484 1022 2520.0 870.0Q2556 718 2556 569Q2556 423 2522.5 292.0Q2489 161 2426.0 50.0Q2363 -61 2273.5 -150.0Q2184 -239 2073.0 -301.5Q1962 -364 1831.0 -397.5Q1700 -431 1554 -431Z" style="fill:#000000;stroke:none" transform="scale(1,-1) translate(0,-256)" /></svg>