<?xml version="1.0" encoding="utf-8" ?>
<svg baseProfile="full" height="256" version="1.1" width="256" xmlns="http://www.w3.org/2000/svg" xmlns:ev="http://www.w3.org/2001/xml-events" xmlns:xlink="http://www.w3.org/1999/xlink"><defs /><path d="M982 -2Q852 -2 744.5 40.5Q637 83 560.5 159.5Q484 236 442.0 343.5Q400 451 400 581Q400 721 445.5 860.5Q491 1000 571.5 1127.0Q652 1254 761.0 1363.5Q870 1473 997.0 1553.0Q1124 1633 1263.5 1679.0Q1403 1725 1543 1725Q1673 1725 1780.5 1683.0Q1888 1641 1965.0 1564.5Q2042 1488 2084.5 1380.5Q2127 1273 2127 1143Q2127 1003 2081.0 863.5Q2035 724 1954.5 597.0Q1874 470 1764.5 360.5Q1655 251 1528.0 170.5Q1401 90 1261.5 44.0Q1122 -2 982 -2Z" style="fill:#8cbd18;stroke:none" transform="scale(1,-1) translate(0,-256)" /></svg>