<?xml version="1.0" encoding="utf-8" ?>
<svg baseProfile="full" height="256" version="1.1" width="256" xmlns="http://www.w3.org/2000/svg" xmlns:ev="http://www.w3.org/2001/xml-events" xmlns:xlink="http://www.w3.org/1999/xlink"><defs /><path d="M1151 503Q1096 503 1050.5 521.0Q1005 539 972.0 572.0Q939 605 921.0 651.0Q903 697 903 752Q903 810 921.5 867.5Q940 925 973.0 977.0Q1006 1029 1051.0 1074.0Q1096 1119 1148.0 1152.0Q1200 1185 1257.5 1203.5Q1315 1222 1373 1222Q1428 1222 1474.0 1204.0Q1520 1186 1553.0 1153.0Q1586 1120 1604.0 1074.5Q1622 1029 1622 974Q1622 916 1603.5 858.5Q1585 801 1552.0 748.5Q1519 696 1474.0 651.0Q1429 606 1376.5 573.0Q1324 540 1266.5 521.5Q1209 503 1151 503Z" style="fill:#e4f577;stroke:none" transform="scale(1,-1) translate(0,-256)" /></svg>