<?xml version="1.0" encoding="utf-8" ?>
<svg baseProfile="full" height="256" version="1.1" width="256" xmlns="http://www.w3.org/2000/svg" xmlns:ev="http://www.w3.org/2001/xml-events" xmlns:xlink="http://www.w3.org/1999/xlink"><defs /><path d="M1298 -36Q1298 -21 1308.5 -10.5Q1319 0 1334 0Q1350 0 1361 -11L1433 -83Q1438 -88 1440.0 -94.5Q1442 -101 1442 -107Q1442 -122 1432.0 -133.0Q1422 -144 1406 -144Q1392 -144 1380 -132L1308 -60Q1298 -50 1298 -36ZM1586 72Q1586 87 1596.5 97.5Q1607 108 1622 108Q1637 108 1648 97L1720 25Q1730 15 1730 0Q1730 -14 1719.0 -25.0Q1708 -36 1694 -36Q1679 -36 1667 -24L1595 48Q1586 57 1586 72ZM2197 539Q2197 555 2207.0 565.0Q2217 575 2233 575Q2248 575 2259 564L2331 492Q2341 482 2341 467Q2341 452 2329.5 441.5Q2318 431 2304 431Q2290 431 2278 443L2206 515Q2197 524 2197 539ZM1837 36Q1837 51 1848.0 61.5Q1859 72 1874 72Q1889 72 1900 61L1972 -11Q1981 -20 1981 -36Q1981 -51 1970.5 -61.5Q1960 -72 1945 -72Q1931 -72 1919 -60L1847 12Q1837 22 1837 36ZM1837 252Q1837 266 1848.0 277.0Q1859 288 1873 288Q1888 288 1900 276L1972 204Q1981 195 1981 180Q1981 165 1970.5 154.5Q1960 144 1945 144Q1930 144 1919 155L1847 227Q1837 237 1837 252ZM2125 791Q2125 806 2135.5 816.5Q2146 827 2161 827Q2175 827 2187 815L2259 743Q2269 733 2269 719Q2269 704 2257.5 693.5Q2246 683 2232 683Q2217 683 2206 694L2135 766Q2125 776 2125 791ZM1550 -107Q1550 -92 1560.5 -82.0Q1571 -72 1586 -72Q1601 -72 1612 -83L1684 -155Q1694 -165 1694 -179Q1694 -194 1683.5 -204.5Q1673 -215 1658 -215Q1642 -215 1631 -204L1560 -132Q1550 -122 1550 -107ZM2017 503Q2017 518 2027.5 528.5Q2038 539 2053 539Q2068 539 2079 528L2151 456Q2161 446 2161 432Q2161 418 2150.5 406.5Q2140 395 2125 395Q2111 395 2099 407L2027 479Q2017 489 2017 503ZM2053 252Q2053 266 2064.0 277.0Q2075 288 2089 288Q2103 288 2115 276L2187 204Q2197 194 2197 180Q2197 166 2186.0 155.0Q2175 144 2161 144Q2146 144 2135 155L2063 227Q2053 237 2053 252Z" style="fill:#613d30;stroke:none" transform="scale(1,-1) translate(0,-256)" /></svg>