<?xml version="1.0" encoding="utf-8" ?>
<svg baseProfile="full" height="256" version="1.1" width="256" xmlns="http://www.w3.org/2000/svg" xmlns:ev="http://www.w3.org/2001/xml-events" xmlns:xlink="http://www.w3.org/1999/xlink"><defs /><path d="M1352 1078Q1352 1108 1373.0 1129.0Q1394 1150 1424 1150Q1454 1150 1475.0 1129.0Q1496 1108 1496 1078V1006Q1496 977 1474.5 956.0Q1453 935 1424 935Q1395 935 1373.5 956.0Q1352 977 1352 1006ZM993 1150Q1022 1150 1043.5 1128.5Q1065 1107 1065 1078V1006Q1065 977 1043.5 956.0Q1022 935 993 935Q964 935 942.5 956.0Q921 977 921 1006V1078Q921 1108 942.0 1129.0Q963 1150 993 1150Z" style="fill:#000000;stroke:none" transform="scale(1,-1) translate(0,-256)" /></svg>