<?xml version="1.0" encoding="utf-8" ?>
<svg baseProfile="full" height="256" version="1.1" width="256" xmlns="http://www.w3.org/2000/svg" xmlns:ev="http://www.w3.org/2001/xml-events" xmlns:xlink="http://www.w3.org/1999/xlink"><defs /><path d="M1711 1222V1006Q1711 934 1691 863H1382Q1365 863 1351.0 870.5Q1337 878 1325.0 888.5Q1313 899 1301.5 911.5Q1290 924 1280 935H1136Q1125 924 1114.5 911.5Q1104 899 1091.5 888.0Q1079 877 1065.0 870.0Q1051 863 1035 863H726Q716 898 710.5 934.0Q705 970 705 1006V1150Q747 1150 789.0 1149.5Q831 1149 873 1149Q894 1149 915.0 1149.0Q936 1149 957 1150Q1035 1153 1104.5 1169.5Q1174 1186 1242 1222ZM1981 -72H1693V379L1706 385Q1775 352 1826.5 304.5Q1878 257 1912.5 198.0Q1947 139 1964.0 71.0Q1981 3 1981 -72ZM687 379V-72H400V-50Q400 20 419.5 85.5Q439 151 474.5 207.5Q510 264 561.0 309.5Q612 355 675 385Z" style="fill:#3a96dd;stroke:none" transform="scale(1,-1) translate(0,-256)" /></svg>