<?xml version="1.0" encoding="utf-8" ?>
<svg baseProfile="full" height="256" version="1.1" width="256" xmlns="http://www.w3.org/2000/svg" xmlns:ev="http://www.w3.org/2001/xml-events" xmlns:xlink="http://www.w3.org/1999/xlink"><defs /><path d="M1625 500Q1726 490 1818.5 456.5Q1911 423 1990.5 369.5Q2070 316 2134.5 244.5Q2199 173 2244.5 89.0Q2290 5 2315.0 -90.0Q2340 -185 2340 -287H2268Q2268 -162 2227.0 -47.5Q2186 67 2112.5 160.0Q2039 253 1936.5 319.0Q1834 385 1712 413L1729 396L1190 144L651 396L795 539L831 503H1550L1586 539Z" style="fill:#e81224;stroke:none" transform="scale(1,-1) translate(0,-256)" /></svg>