<?xml version="1.0" encoding="utf-8" ?>
<svg baseProfile="full" height="256" version="1.1" width="256" xmlns="http://www.w3.org/2000/svg" xmlns:ev="http://www.w3.org/2001/xml-events" xmlns:xlink="http://www.w3.org/1999/xlink"><defs /><path d="M2048 505Q2150 440 2231.0 353.5Q2312 267 2368.5 165.0Q2425 63 2454.5 -51.5Q2484 -166 2484 -287V-431H256V-50Q256 62 295.5 168.5Q335 275 409 360Q428 382 448.5 399.5Q469 417 489 437L683 630Q648 679 624.5 727.5Q601 776 587.0 827.0Q573 878 567.0 932.0Q561 986 561 1045Q528 1064 501.5 1091.0Q475 1118 456.5 1150.5Q438 1183 428.0 1219.5Q418 1256 418 1294V1510H629Q664 1587 724.5 1652.5Q785 1718 860.0 1766.0Q935 1814 1020.0 1841.5Q1105 1869 1189 1869Q1298 1869 1394.5 1841.5Q1491 1814 1581 1751Q1658 1797 1747 1797Q1814 1797 1873.0 1771.5Q1932 1746 1976.0 1702.0Q2020 1658 2045.5 1599.5Q2071 1541 2071 1474V1006H2215V827Q2215 730 2171.0 645.5Q2127 561 2048 505Z" style="fill:#000000;stroke:none" transform="scale(1,-1) translate(0,-256)" /></svg>