<?xml version="1.0" encoding="utf-8" ?>
<svg baseProfile="full" height="256" version="1.1" width="256" xmlns="http://www.w3.org/2000/svg" xmlns:ev="http://www.w3.org/2001/xml-events" xmlns:xlink="http://www.w3.org/1999/xlink"><defs /><path d="M1747 1653Q1784 1653 1817.0 1639.0Q1850 1625 1874.5 1600.5Q1899 1576 1913.0 1543.5Q1927 1511 1927 1474V1006Q1927 976 1938.5 950.0Q1950 924 1969.5 904.5Q1989 885 2015.0 874.0Q2041 863 2071 863V827Q2071 775 2051.0 729.0Q2031 683 1997.0 649.0Q1963 615 1917.0 595.0Q1871 575 1819 575Q1772 575 1730.0 591.5Q1688 608 1654.5 637.0Q1621 666 1599.0 705.5Q1577 745 1570 791V1042H957L705 1150Q675 1150 649.0 1161.5Q623 1173 603.5 1192.5Q584 1212 572.5 1238.0Q561 1264 561 1294V1366H726Q750 1446 797.0 1512.0Q844 1578 907.5 1625.5Q971 1673 1048.0 1699.0Q1125 1725 1208 1725Q1317 1725 1416.0 1680.5Q1515 1636 1587 1554Q1610 1600 1653.0 1626.5Q1696 1653 1747 1653Z" style="fill:#8e562e;stroke:none" transform="scale(1,-1) translate(0,-256)" /></svg>