<?xml version="1.0" encoding="utf-8" ?>
<svg baseProfile="full" height="256" version="1.1" width="256" xmlns="http://www.w3.org/2000/svg" xmlns:ev="http://www.w3.org/2001/xml-events" xmlns:xlink="http://www.w3.org/1999/xlink"><defs /><path d="M1208 647Q1193 647 1169.0 652.5Q1145 658 1121.5 668.5Q1098 679 1081.0 694.0Q1064 709 1064 727Q1064 741 1074.5 751.0Q1085 761 1099 761Q1108 761 1117.5 754.0Q1127 747 1139.0 739.0Q1151 731 1167.5 724.0Q1184 717 1208 717Q1232 717 1248.5 724.0Q1265 731 1277.5 739.0Q1290 747 1299.5 754.0Q1309 761 1318 761Q1332 761 1342.0 751.0Q1352 741 1352 727Q1352 708 1335.0 693.5Q1318 679 1295.0 668.5Q1272 658 1247.5 652.5Q1223 647 1208 647ZM1281 935Q1281 905 1260.0 884.0Q1239 863 1209 863Q1179 863 1158.0 884.0Q1137 905 1137 935L1208 1006Z" style="fill:#f7894a;stroke:none" transform="scale(1,-1) translate(0,-256)" /></svg>