<?xml version="1.0" encoding="utf-8" ?>
<svg baseProfile="full" height="256" version="1.1" width="256" xmlns="http://www.w3.org/2000/svg" xmlns:ev="http://www.w3.org/2001/xml-events" xmlns:xlink="http://www.w3.org/1999/xlink"><defs /><path d="M1691 863Q1667 783 1619.5 717.0Q1572 651 1508.5 603.5Q1445 556 1368.0 529.5Q1291 503 1208 503Q1124 503 1047.5 529.5Q971 556 907.5 603.5Q844 651 797.0 717.0Q750 783 726 863L1159 1093L1239 1220Q1303 1254 1358.5 1300.0Q1414 1346 1460 1402L1640 1222ZM1478 431 1190 144 903 431ZM1693 -72 1837 9 1981 -72V-287H1693ZM400 -72 543 9 687 -72V-287H400Z" style="fill:#ffc83d;stroke:none" transform="scale(1,-1) translate(0,-256)" /></svg>