<?xml version="1.0" encoding="utf-8" ?>
<svg baseProfile="full" height="256" version="1.1" width="256" xmlns="http://www.w3.org/2000/svg" xmlns:ev="http://www.w3.org/2001/xml-events" xmlns:xlink="http://www.w3.org/1999/xlink"><defs /><path d="M1837 1725Q1896 1725 1948.5 1702.5Q2001 1680 2040.0 1641.0Q2079 1602 2102.0 1549.5Q2125 1497 2125 1438V938H1550V1438Q1550 1497 1572.5 1549.5Q1595 1602 1634.0 1641.0Q1673 1680 1725.5 1702.5Q1778 1725 1837 1725ZM759 1725Q802 1725 841.5 1708.0Q881 1691 910.5 1661.5Q940 1632 957.5 1593.0Q975 1554 975 1510V1493Q975 1481 957.5 1470.0Q940 1459 917.5 1450.0Q895 1441 873.5 1435.5Q852 1430 843 1428Q822 1424 801.0 1422.5Q780 1421 759 1421Q718 1421 678.5 1417.5Q639 1414 598 1414Q592 1414 583.0 1414.5Q574 1415 565.0 1417.0Q556 1419 549.5 1424.0Q543 1429 543 1438V1510Q543 1555 560.0 1594.0Q577 1633 606.5 1662.0Q636 1691 675.0 1708.0Q714 1725 759 1725Z" style="fill:#8e562e;stroke:none" transform="scale(1,-1) translate(0,-256)" /></svg>