<?xml version="1.0" encoding="utf-8" ?>
<svg baseProfile="full" height="256" version="1.1" width="256" xmlns="http://www.w3.org/2000/svg" xmlns:ev="http://www.w3.org/2001/xml-events" xmlns:xlink="http://www.w3.org/1999/xlink"><defs /><path d="M1182 863Q1179 839 1160.5 824.5Q1142 810 1118 810Q1107 810 1092.0 814.5Q1077 819 1062.0 826.5Q1047 834 1034.5 843.5Q1022 853 1016 863L975 934V503H543L509 542V816Q503 811 487.5 810.0Q472 809 469 809Q460 809 448.0 813.5Q436 818 425.5 825.5Q415 833 407.5 843.0Q400 853 400 863V1006Q400 1036 411.0 1062.0Q422 1088 441.5 1107.5Q461 1127 487.0 1138.5Q513 1150 543 1150H975Q995 1150 1011.0 1140.5Q1027 1131 1037 1114Z" style="fill:#0078d7;stroke:none" transform="scale(1,-1) translate(0,-256)" /></svg>