<?xml version="1.0" encoding="utf-8" ?>
<svg baseProfile="full" height="256" version="1.1" width="256" xmlns="http://www.w3.org/2000/svg" xmlns:ev="http://www.w3.org/2001/xml-events" xmlns:xlink="http://www.w3.org/1999/xlink"><defs /><path d="M867 1438Q882 1438 892.5 1427.5Q903 1417 903 1402Q903 1387 892.5 1376.5Q882 1366 867 1366Q852 1366 841.5 1376.5Q831 1387 831 1402Q831 1417 841.5 1427.5Q852 1438 867 1438ZM651 1438Q666 1438 676.5 1427.5Q687 1417 687 1402Q687 1387 676.5 1376.5Q666 1366 651 1366Q636 1366 625.5 1376.5Q615 1387 615 1402Q615 1417 625.5 1427.5Q636 1438 651 1438ZM1945 1441Q1960 1441 1970.5 1430.5Q1981 1420 1981 1405Q1981 1390 1970.5 1379.5Q1960 1369 1945 1369Q1930 1369 1919.5 1379.5Q1909 1390 1909 1405Q1909 1420 1919.5 1430.5Q1930 1441 1945 1441ZM1729 1441Q1744 1441 1754.5 1430.5Q1765 1420 1765 1405Q1765 1390 1754.5 1379.5Q1744 1369 1729 1369Q1715 1369 1704.0 1380.0Q1693 1391 1693 1405Q1693 1419 1704.0 1430.0Q1715 1441 1729 1441Z" style="fill:#000000;stroke:none" transform="scale(1,-1) translate(0,-256)" /></svg>