<?xml version="1.0" encoding="utf-8" ?>
<svg baseProfile="full" height="256" version="1.1" width="256" xmlns="http://www.w3.org/2000/svg" xmlns:ev="http://www.w3.org/2001/xml-events" xmlns:xlink="http://www.w3.org/1999/xlink"><defs /><path d="M2197 -127Q2231 -157 2249.5 -199.5Q2268 -242 2268 -287V-431H1406Q1406 -405 1405.0 -380.0Q1404 -355 1404 -330Q1404 -273 1417.0 -221.5Q1430 -170 1478 -127V72H1278L1358 312Q1343 307 1328.5 305.5Q1314 304 1298 304Q1270 304 1247.5 309.0Q1225 314 1205.5 324.0Q1186 334 1168.0 349.0Q1150 364 1132 383Q1128 387 1124.5 390.5Q1121 394 1118 399V-127Q1153 -157 1171.5 -199.0Q1190 -241 1190 -287V-431H328Q328 -405 327.0 -380.0Q326 -355 326 -330Q326 -273 339.0 -221.5Q352 -170 400 -127V228Q368 240 341.5 260.0Q315 280 296.0 307.0Q277 334 266.5 365.5Q256 397 256 431V1006Q256 1051 269.5 1092.5Q283 1134 307.0 1169.0Q331 1204 365.0 1231.0Q399 1258 441 1274Q400 1350 400 1438V1510Q400 1584 428.0 1649.5Q456 1715 505.0 1763.5Q554 1812 619.5 1840.5Q685 1869 759 1869Q833 1869 898.5 1840.5Q964 1812 1012.5 1763.5Q1061 1715 1089.5 1649.5Q1118 1584 1118 1510V1480Q1118 1430 1114.0 1387.5Q1110 1345 1088 1294L1298 949L1406 1136V1438Q1406 1527 1440.0 1605.5Q1474 1684 1532.5 1742.5Q1591 1801 1669.5 1835.0Q1748 1869 1837 1869Q1926 1869 2004.5 1835.0Q2083 1801 2141.5 1742.5Q2200 1684 2234.0 1605.5Q2268 1527 2268 1438V1196Q2303 1157 2321.5 1108.0Q2340 1059 2340 1006V431Q2340 375 2312 325L2396 72H2197Z" style="fill:#000000;stroke:none" transform="scale(1,-1) translate(0,-256)" /></svg>