<?xml version="1.0" encoding="utf-8" ?>
<svg baseProfile="full" height="256" version="1.1" width="256" xmlns="http://www.w3.org/2000/svg" xmlns:ev="http://www.w3.org/2001/xml-events" xmlns:xlink="http://www.w3.org/1999/xlink"><defs /><path d="M543 524Q557 550 580.5 569.5Q604 589 632.5 601.5Q661 614 691.0 620.5Q721 627 749 627Q779 627 811.0 620.0Q843 613 873.0 599.5Q903 586 929.5 567.0Q956 548 975 524V-148Q966 -171 945.0 -186.5Q924 -202 899 -202Q890 -202 878.0 -197.5Q866 -193 855.5 -185.5Q845 -178 838.0 -168.5Q831 -159 831 -148V287Q831 317 810.0 337.5Q789 358 759 358Q729 358 708.0 337.5Q687 317 687 287V-150Q687 -160 679.0 -169.5Q671 -179 660.0 -186.0Q649 -193 636.5 -197.5Q624 -202 614 -202Q605 -202 593.0 -198.0Q581 -194 569.5 -187.0Q558 -180 550.5 -170.5Q543 -161 543 -150Z" style="fill:#d48c00;stroke:none" transform="scale(1,-1) translate(0,-256)" /></svg>