<?xml version="1.0" encoding="utf-8" ?>
<svg baseProfile="full" height="256" version="1.1" width="256" xmlns="http://www.w3.org/2000/svg" xmlns:ev="http://www.w3.org/2001/xml-events" xmlns:xlink="http://www.w3.org/1999/xlink"><defs /><path d="M615 1510H975V1438Q975 1393 958.0 1354.0Q941 1315 911.5 1285.5Q882 1256 843.0 1239.0Q804 1222 759 1222Q714 1222 675.0 1239.0Q636 1256 606.5 1285.5Q577 1315 560.0 1354.0Q543 1393 543 1438ZM2053 1438Q2053 1393 2036.0 1354.0Q2019 1315 1989.5 1285.5Q1960 1256 1921.0 1239.0Q1882 1222 1837 1222Q1792 1222 1753.0 1239.0Q1714 1256 1685.0 1285.5Q1656 1315 1639.0 1354.0Q1622 1393 1622 1438Q1660 1440 1692.0 1459.0Q1724 1478 1744 1510V1441Q1782 1441 1814.5 1460.0Q1847 1479 1867 1511V1440Q1902 1440 1932.5 1456.0Q1963 1472 1983 1500Q1988 1474 2007.0 1457.5Q2026 1441 2052 1441Q2052 1440 2052.5 1439.5Q2053 1439 2053 1438ZM400 863H543V431Q543 402 522.0 381.0Q501 360 472 360Q443 360 421.5 381.0Q400 402 400 431ZM1227 519Q1227 537 1236 554L1414 863H1580L1360 482Q1351 466 1333.5 456.5Q1316 447 1298 447Q1269 447 1248.0 468.5Q1227 490 1227 519ZM2197 863V431Q2197 408 2183.0 389.5Q2169 371 2147 363Q2145 368 2137.5 390.5Q2130 413 2120.0 444.5Q2110 476 2098.0 511.5Q2086 547 2076.0 577.0Q2066 607 2059.5 627.0Q2053 647 2053 647V863ZM1909 216H2053V-144H1909ZM1622 216H1765V-144H1622Z" style="fill:#ffc83d;stroke:none" transform="scale(1,-1) translate(0,-256)" /></svg>