<?xml version="1.0" encoding="utf-8" ?>
<svg baseProfile="full" height="256" version="1.1" width="256" xmlns="http://www.w3.org/2000/svg" xmlns:ev="http://www.w3.org/2001/xml-events" xmlns:xlink="http://www.w3.org/1999/xlink"><defs /><path d="M1239 479Q1238 480 1222.5 506.5Q1207 533 1183.5 573.5Q1160 614 1132.5 661.5Q1105 709 1080.5 751.5Q1056 794 1038.0 825.0Q1020 856 1016 863H1182L1298 662Q1300 659 1301.5 651.0Q1303 643 1304.0 633.5Q1305 624 1305.5 615.5Q1306 607 1306 603Q1306 592 1305.0 578.5Q1304 565 1301 554Q1298 545 1292.0 533.0Q1286 521 1277.5 509.0Q1269 497 1259.0 488.5Q1249 480 1239 479Z" style="fill:#eba300;stroke:none" transform="scale(1,-1) translate(0,-256)" /></svg>