<?xml version="1.0" encoding="utf-8" ?>
<svg baseProfile="full" height="256" version="1.1" width="256" xmlns="http://www.w3.org/2000/svg" xmlns:ev="http://www.w3.org/2001/xml-events" xmlns:xlink="http://www.w3.org/1999/xlink"><defs /><path d="M1622 647H2116L2137 458Q2140 430 2141.0 410.5Q2142 391 2147 363Q2149 352 2155.5 332.0Q2162 312 2170.0 290.5Q2178 269 2185.5 248.5Q2193 228 2197 216H2053Q2044 193 2024.0 173.5Q2004 154 1978 154Q1953 154 1935.0 174.0Q1917 194 1909 216H1765Q1755 195 1735.0 180.0Q1715 165 1691 165Q1668 165 1649.5 180.5Q1631 196 1622 216H1478Z" style="fill:#af0d1a;stroke:none" transform="scale(1,-1) translate(0,-256)" /></svg>