<?xml version="1.0" encoding="utf-8" ?>
<svg baseProfile="full" height="256" version="1.1" width="256" xmlns="http://www.w3.org/2000/svg" xmlns:ev="http://www.w3.org/2001/xml-events" xmlns:xlink="http://www.w3.org/1999/xlink"><defs /><path d="M1622 -144Q1631 -125 1650.0 -113.5Q1669 -102 1690 -102Q1712 -102 1733.5 -113.0Q1755 -124 1765 -144V-287H1550Q1550 -258 1571.5 -236.5Q1593 -215 1622 -215ZM2053 -215Q2082 -215 2103.5 -236.5Q2125 -258 2125 -287H1909V-144Q1918 -125 1938.5 -116.5Q1959 -108 1978 -108Q1998 -108 2020.5 -116.5Q2043 -125 2053 -144ZM975 -215Q1004 -215 1025.5 -236.5Q1047 -258 1047 -287H831V-144H975ZM543 -144H687V-287H472Q472 -258 493.0 -236.5Q514 -215 543 -215Z" style="fill:#757575;stroke:none" transform="scale(1,-1) translate(0,-256)" /></svg>