<?xml version="1.0" encoding="utf-8" ?>
<svg baseProfile="full" height="256" version="1.1" width="256" xmlns="http://www.w3.org/2000/svg" xmlns:ev="http://www.w3.org/2001/xml-events" xmlns:xlink="http://www.w3.org/1999/xlink"><defs /><path d="M2053 1150Q2083 1150 2109.0 1138.5Q2135 1127 2154.5 1107.5Q2174 1088 2185.5 1062.0Q2197 1036 2197 1006V863Q2187 839 2172.5 829.0Q2158 819 2143.0 816.5Q2128 814 2113.5 814.0Q2099 814 2089 810L2094 807L2053 547H1622Q1622 603 1622.5 657.5Q1623 712 1623 768Q1623 810 1622.5 851.0Q1622 892 1621 934L1611 916Q1600 896 1588.0 877.0Q1576 858 1561.0 843.5Q1546 829 1526.0 820.5Q1506 812 1478 812Q1455 812 1435.0 824.5Q1415 837 1414 863L1559 1114Q1569 1131 1586.0 1140.0Q1603 1149 1622 1149Z" style="fill:#f03a17;stroke:none" transform="scale(1,-1) translate(0,-256)" /></svg>