<?xml version="1.0" encoding="utf-8" ?>
<svg baseProfile="full" height="256" version="1.1" width="256" xmlns="http://www.w3.org/2000/svg" xmlns:ev="http://www.w3.org/2001/xml-events" xmlns:xlink="http://www.w3.org/1999/xlink"><defs /><path d="M1011 827Q1048 827 1080.5 841.0Q1113 855 1137.5 879.5Q1162 904 1176.0 936.5Q1190 969 1190 1006H1262V971Q1262 919 1242.5 873.0Q1223 827 1189.0 793.0Q1155 759 1109.0 739.0Q1063 719 1011 719Q959 719 913.0 739.0Q867 759 833.0 793.0Q799 827 779.0 873.0Q759 919 759 971V1006H831Q831 968 845.0 935.5Q859 903 883.5 879.0Q908 855 940.5 841.0Q973 827 1011 827ZM1981 1006H2053V971Q2053 919 2033.0 873.0Q2013 827 1979.0 793.0Q1945 759 1899.0 739.0Q1853 719 1801 719Q1749 719 1703.0 739.0Q1657 759 1623.0 793.0Q1589 827 1569.5 873.0Q1550 919 1550 971V1006H1622Q1622 969 1636.0 936.5Q1650 904 1674.5 879.5Q1699 855 1731.5 841.0Q1764 827 1801 827Q1838 827 1871.0 841.0Q1904 855 1928.5 879.0Q1953 903 1967.0 935.5Q1981 968 1981 1006Z" style="fill:#000000;stroke:none" transform="scale(1,-1) translate(0,-256)" /></svg>