<?xml version="1.0" encoding="utf-8" ?>
<svg baseProfile="full" height="256" version="1.1" width="256" xmlns="http://www.w3.org/2000/svg" xmlns:ev="http://www.w3.org/2001/xml-events" xmlns:xlink="http://www.w3.org/1999/xlink"><defs /><path d="M1981 647 2402 857Q2407 822 2409.5 788.0Q2412 754 2412 719L1981 503V360H2345Q2331 322 2314.0 286.5Q2297 251 2277 216H1981V144Q1981 99 1964.0 60.0Q1947 21 1917.5 -8.5Q1888 -38 1849.0 -55.0Q1810 -72 1765 -72H1047Q1002 -72 963.0 -55.0Q924 -38 894.5 -8.5Q865 21 848.0 60.0Q831 99 831 144V216H535Q515 251 498.0 286.5Q481 322 467 360H831V503L400 719Q400 754 402.5 788.0Q405 822 410 857L831 647Z" style="fill:#ffffff;stroke:none" transform="scale(1,-1) translate(0,-256)" /></svg>