<?xml version="1.0" encoding="utf-8" ?>
<svg baseProfile="full" height="256" version="1.1" width="256" xmlns="http://www.w3.org/2000/svg" xmlns:ev="http://www.w3.org/2001/xml-events" xmlns:xlink="http://www.w3.org/1999/xlink"><defs /><path d="M975 216 833 224V360Q842 375 850.0 394.5Q858 414 866.5 433.5Q875 453 884.0 471.5Q893 490 903 503Q935 543 973.0 577.0Q1011 611 1047 647L1334 935L1436 908L1405 1006L2053 1653H2255L2268 1438L1621 790L1523 818L1550 719L1262 432Q1226 396 1192.0 358.0Q1158 320 1118 288Q1105 278 1086.5 269.0Q1068 260 1048.5 251.5Q1029 243 1009.5 234.0Q990 225 975 216Z" style="fill:#383838;stroke:none" transform="scale(1,-1) translate(0,-256)" /></svg>