<?xml version="1.0" encoding="utf-8" ?>
<svg baseProfile="full" height="256" version="1.1" width="256" xmlns="http://www.w3.org/2000/svg" xmlns:ev="http://www.w3.org/2001/xml-events" xmlns:xlink="http://www.w3.org/1999/xlink"><defs /><path d="M436 -359Q398 -359 365.5 -345.0Q333 -331 308.5 -306.5Q284 -282 270.0 -249.5Q256 -217 256 -179Q256 -147 267.0 -117.0Q278 -87 299 -63L430 329L681 413Q697 418 710.5 441.0Q724 464 736.0 492.5Q748 521 760.0 548.0Q772 575 785 588L1978 1782Q2020 1824 2074.5 1846.5Q2129 1869 2188 1869Q2249 1869 2303.0 1845.5Q2357 1822 2397.0 1782.0Q2437 1742 2460.5 1688.0Q2484 1634 2484 1573Q2484 1513 2461.5 1459.0Q2439 1405 2397 1363L1204 170Q1191 157 1164.0 145.5Q1137 134 1108.5 122.0Q1080 110 1057.0 96.5Q1034 83 1028 66L945 -185L552 -316Q528 -337 498.0 -348.0Q468 -359 436 -359Z" style="fill:#000000;stroke:none" transform="scale(1,-1) translate(0,-256)" /></svg>