<?xml version="1.0" encoding="utf-8" ?>
<svg baseProfile="full" height="256" version="1.1" width="256" xmlns="http://www.w3.org/2000/svg" xmlns:ev="http://www.w3.org/2001/xml-events" xmlns:xlink="http://www.w3.org/1999/xlink"><defs /><path d="M2340 1572Q2340 1526 2319.5 1496.5Q2299 1467 2268 1438L2053 1653Q2068 1669 2082.0 1682.5Q2096 1696 2112.0 1705.5Q2128 1715 2146.5 1720.0Q2165 1725 2188 1725Q2220 1725 2247.5 1713.0Q2275 1701 2295.5 1680.5Q2316 1660 2328.0 1632.0Q2340 1604 2340 1572ZM1621 1042Q1621 1057 1632 1068L2002 1438L2053 1387L1683 1017Q1672 1006 1658 1006Q1644 1006 1632.5 1016.5Q1621 1027 1621 1042ZM1334 935 1406 1006 1622 791 1550 719ZM759 288 831 360 975 216 903 144Z" style="fill:#ffc83d;stroke:none" transform="scale(1,-1) translate(0,-256)" /></svg>