<?xml version="1.0" encoding="utf-8" ?>
<svg baseProfile="full" height="256" version="1.1" width="256" xmlns="http://www.w3.org/2000/svg" xmlns:ev="http://www.w3.org/2001/xml-events" xmlns:xlink="http://www.w3.org/1999/xlink"><defs /><path d="M2412 719Q2412 616 2395.5 518.0Q2379 420 2342 323Q2334 301 2319.0 268.0Q2304 235 2289.5 199.5Q2275 164 2264.0 131.5Q2253 99 2253 79Q2253 52 2264.0 36.5Q2275 21 2292.0 12.5Q2309 4 2331.0 2.0Q2353 0 2374 0H2412Q2412 -59 2389.5 -111.5Q2367 -164 2328.0 -203.0Q2289 -242 2236.5 -264.5Q2184 -287 2125 -287Q2077 -287 2032.0 -271.0Q1987 -255 1950.0 -226.5Q1913 -198 1886.0 -158.5Q1859 -119 1847 -72H965Q952 -119 925.5 -158.5Q899 -198 862.0 -226.5Q825 -255 780.5 -271.0Q736 -287 687 -287Q627 -287 575.0 -264.5Q523 -242 484.0 -203.0Q445 -164 422.5 -112.0Q400 -60 400 0Q411 0 420.5 -0.5Q430 -1 441 -1Q462 -1 483.0 1.5Q504 4 520.5 12.5Q537 21 547.5 36.5Q558 52 558 79Q558 99 547.0 131.5Q536 164 521.5 199.0Q507 234 492.0 267.5Q477 301 469 323Q434 420 417.0 518.0Q400 616 400 719Q400 831 424.5 940.0Q449 1049 497 1150Q509 1152 536.5 1158.5Q564 1165 593.0 1175.0Q622 1185 644.0 1197.5Q666 1210 666 1224Q666 1237 656.5 1248.5Q647 1260 633.5 1269.0Q620 1278 605.0 1284.5Q590 1291 580 1294Q651 1396 742.5 1476.0Q834 1556 940.0 1611.5Q1046 1667 1164.0 1696.0Q1282 1725 1406 1725Q1530 1725 1648.0 1696.0Q1766 1667 1872.0 1611.5Q1978 1556 2069.5 1476.0Q2161 1396 2232 1294Q2208 1289 2186.5 1270.0Q2165 1251 2165 1224Q2165 1207 2183.5 1194.0Q2202 1181 2227.0 1172.0Q2252 1163 2277.0 1157.5Q2302 1152 2315 1150Q2363 1049 2387.5 940.0Q2412 831 2412 719Z" style="fill:#8e562e;stroke:none" transform="scale(1,-1) translate(0,-256)" /></svg>