<?xml version="1.0" encoding="utf-8" ?>
<svg baseProfile="full" height="256" version="1.1" width="256" xmlns="http://www.w3.org/2000/svg" xmlns:ev="http://www.w3.org/2001/xml-events" xmlns:xlink="http://www.w3.org/1999/xlink"><defs /><path d="M1406 0Q1340 0 1269.0 22.0Q1198 44 1147 87Q1133 98 1125.5 111.5Q1118 125 1118 143Q1118 172 1139.0 194.0Q1160 216 1190 216Q1205 216 1226.5 204.5Q1248 193 1275.5 179.5Q1303 166 1335.5 155.0Q1368 144 1406 144Q1443 144 1476.0 155.0Q1509 166 1536.5 179.5Q1564 193 1585.5 204.5Q1607 216 1622 216Q1652 216 1673.0 194.0Q1694 172 1694 143Q1694 125 1686.5 111.5Q1679 98 1665 87Q1614 44 1543.0 22.0Q1472 0 1406 0Z" style="fill:#f03a17;stroke:none" transform="scale(1,-1) translate(0,-256)" /></svg>