<?xml version="1.0" encoding="utf-8" ?>
<svg baseProfile="full" height="256" version="1.1" width="256" xmlns="http://www.w3.org/2000/svg" xmlns:ev="http://www.w3.org/2001/xml-events" xmlns:xlink="http://www.w3.org/1999/xlink"><defs /><path d="M2231 1294Q2255 1260 2275.5 1224.0Q2296 1188 2314 1150H498Q516 1188 536.5 1224.0Q557 1260 581 1294H1047V1438Q1047 1468 1058.0 1494.0Q1069 1520 1088.5 1539.5Q1108 1559 1134.0 1570.0Q1160 1581 1190 1581H1262Q1262 1611 1273.5 1637.0Q1285 1663 1304.5 1682.5Q1324 1702 1350.0 1713.5Q1376 1725 1406 1725Q1436 1725 1462.0 1713.5Q1488 1702 1507.5 1682.5Q1527 1663 1538.5 1637.0Q1550 1611 1550 1581H1622Q1652 1581 1678.0 1570.0Q1704 1559 1723.5 1539.5Q1743 1520 1754.0 1494.0Q1765 1468 1765 1438V1294Z" style="fill:#83beec;stroke:none" transform="scale(1,-1) translate(0,-256)" /></svg>