<?xml version="1.0" encoding="utf-8" ?>
<svg baseProfile="full" height="256" version="1.1" width="256" xmlns="http://www.w3.org/2000/svg" xmlns:ev="http://www.w3.org/2001/xml-events" xmlns:xlink="http://www.w3.org/1999/xlink"><defs /><path d="M1406 1448Q1446 1317 1523.0 1209.5Q1600 1102 1704.5 1025.0Q1809 948 1934.5 905.5Q2060 863 2197 863V503Q2197 394 2168.5 293.0Q2140 192 2088.5 104.5Q2037 17 1965.0 -55.5Q1893 -128 1805.0 -179.5Q1717 -231 1616.0 -259.0Q1515 -287 1406 -287Q1297 -287 1196.0 -259.0Q1095 -231 1007.0 -179.5Q919 -128 847.0 -55.5Q775 17 723.5 104.5Q672 192 643.5 293.0Q615 394 615 503V863Q751 863 877.0 905.5Q1003 948 1107.0 1025.0Q1211 1102 1288.5 1209.5Q1366 1317 1406 1448Z" style="fill:#ffc83d;stroke:none" transform="scale(1,-1) translate(0,-256)" /></svg>