<?xml version="1.0" encoding="utf-8" ?>
<svg baseProfile="full" height="256" version="1.1" width="256" xmlns="http://www.w3.org/2000/svg" xmlns:ev="http://www.w3.org/2001/xml-events" xmlns:xlink="http://www.w3.org/1999/xlink"><defs /><path d="M1406 1653Q1436 1653 1457.0 1632.0Q1478 1611 1478 1581V1366Q1478 1336 1457.0 1315.0Q1436 1294 1406 1294Q1376 1294 1355.0 1315.0Q1334 1336 1334 1366V1581Q1334 1611 1355.0 1632.0Q1376 1653 1406 1653ZM1190 1510Q1219 1510 1240.5 1488.5Q1262 1467 1262 1438V1294Q1262 1264 1241.0 1243.0Q1220 1222 1190 1222Q1161 1222 1139.5 1243.5Q1118 1265 1118 1294V1438Q1118 1467 1139.5 1488.5Q1161 1510 1190 1510ZM1622 1510Q1651 1510 1672.0 1488.5Q1693 1467 1693 1438V1294Q1693 1265 1672.0 1243.5Q1651 1222 1622 1222Q1592 1222 1571.0 1243.0Q1550 1264 1550 1294V1438Q1550 1467 1571.5 1488.5Q1593 1510 1622 1510Z" style="fill:#b3dbf2;stroke:none" transform="scale(1,-1) translate(0,-256)" /></svg>