<?xml version="1.0" encoding="utf-8" ?>
<svg baseProfile="full" height="256" version="1.1" width="256" xmlns="http://www.w3.org/2000/svg" xmlns:ev="http://www.w3.org/2001/xml-events" xmlns:xlink="http://www.w3.org/1999/xlink"><defs /><path d="M2125 -431Q2047 -431 1973.5 -403.5Q1900 -376 1841 -323Q1740 -377 1630.0 -404.0Q1520 -431 1406 -431Q1292 -431 1182.0 -404.0Q1072 -377 971 -323Q912 -376 838.5 -403.5Q765 -431 687 -431Q598 -431 519.5 -397.0Q441 -363 382.5 -304.5Q324 -246 290.0 -167.5Q256 -89 256 0V144H387Q354 216 329.5 285.0Q305 354 288.5 424.0Q272 494 264.0 567.0Q256 640 256 719Q256 877 297.0 1024.0Q338 1171 413.0 1299.0Q488 1427 593.0 1532.0Q698 1637 826.0 1712.0Q954 1787 1100.5 1828.0Q1247 1869 1406 1869Q1564 1869 1711.0 1828.0Q1858 1787 1986.0 1712.0Q2114 1637 2219.0 1532.0Q2324 1427 2399.0 1299.0Q2474 1171 2515.0 1024.0Q2556 877 2556 719Q2556 637 2547.0 566.5Q2538 496 2521.5 429.0Q2505 362 2481.5 295.0Q2458 228 2428 153Q2426 147 2424 144H2556V0Q2556 -89 2522.0 -167.5Q2488 -246 2429.5 -304.5Q2371 -363 2292.5 -397.0Q2214 -431 2125 -431Z" style="fill:#000000;stroke:none" transform="scale(1,-1) translate(0,-256)" /></svg>