<?xml version="1.0" encoding="utf-8" ?>
<svg baseProfile="full" height="256" version="1.1" width="256" xmlns="http://www.w3.org/2000/svg" xmlns:ev="http://www.w3.org/2001/xml-events" xmlns:xlink="http://www.w3.org/1999/xlink"><defs /><path d="M256 -431V-156L843 431L484 791L738 1045Q789 1096 854.5 1123.0Q920 1150 992 1150Q1083 1150 1161 1108L1418 1366Q1406 1406 1406 1450Q1406 1508 1427.5 1559.5Q1449 1611 1490 1653L1693 1857L2544 1006L2340 803Q2298 762 2246.5 740.5Q2195 719 2137 719Q2093 719 2053 731L1795 474Q1815 435 1826.0 392.5Q1837 350 1837 305Q1837 233 1810.0 167.5Q1783 102 1732 51L1478 -203L1118 156L531 -431Z" style="fill:#000000;stroke:none" transform="scale(1,-1) translate(0,-256)" /></svg>