<?xml version="1.0" encoding="utf-8" ?>
<svg baseProfile="full" height="256" version="1.1" width="256" xmlns="http://www.w3.org/2000/svg" xmlns:ev="http://www.w3.org/2001/xml-events" xmlns:xlink="http://www.w3.org/1999/xlink"><defs /><path d="M992 1007Q1035 1007 1075.0 990.0Q1115 973 1145 943L1630 458Q1660 428 1677.0 388.0Q1694 348 1694 305Q1694 260 1677.5 222.5Q1661 185 1630 153L1478 0L687 791L840 943Q872 974 909.5 990.5Q947 1007 992 1007ZM1693 1653 2340 1006 2239 905Q2219 885 2192.5 874.0Q2166 863 2137 863Q2108 863 2081.5 874.0Q2055 885 2035 905L1592 1348Q1572 1368 1561.0 1394.5Q1550 1421 1550 1450Q1550 1479 1561.0 1505.5Q1572 1532 1592 1552Z" style="fill:#f03a17;stroke:none" transform="scale(1,-1) translate(0,-256)" /></svg>