<?xml version="1.0" encoding="utf-8" ?>
<svg baseProfile="full" height="256" version="1.1" width="256" xmlns="http://www.w3.org/2000/svg" xmlns:ev="http://www.w3.org/2001/xml-events" xmlns:xlink="http://www.w3.org/1999/xlink"><defs /><path d="M2054 935H2125Q2183 935 2235.5 912.0Q2288 889 2327.0 849.5Q2366 810 2389.0 757.5Q2412 705 2412 647V144L2125 -287H1981L2268 144L1873 539Q1812 478 1755.5 420.0Q1699 362 1637.0 316.5Q1575 271 1501.5 243.5Q1428 216 1334 216H1232L1076 60L1208 -72H1334V-215Q1298 -215 1262.5 -215.5Q1227 -216 1191 -216Q1172 -216 1156.5 -212.0Q1141 -208 1127 -194L924 9Q903 30 903 60Q903 90 924 111L1047 233V503L831 935H687Q687 905 675.5 878.5Q664 852 644.5 832.5Q625 813 599.0 802.0Q573 791 543 791Q513 791 487.0 802.5Q461 814 441.5 833.5Q422 853 411.0 879.0Q400 905 400 935Q400 965 412.0 992.5Q424 1020 447 1040L512 1110L542 1119L547 1147L687 1295Q718 1329 759 1348V1510Q789 1510 815.0 1498.5Q841 1487 860.5 1467.5Q880 1448 891.5 1422.0Q903 1396 903 1366L938 1296L975 1304L1262 1058Q1298 1027 1333.0 995.5Q1368 964 1406 935Q1435 912 1465.5 893.5Q1496 875 1526 855L1765 694Z" style="fill:#ca5010;stroke:none" transform="scale(1,-1) translate(0,-256)" /></svg>