<?xml version="1.0" encoding="utf-8" ?>
<svg baseProfile="full" height="256" version="1.1" width="256" xmlns="http://www.w3.org/2000/svg" xmlns:ev="http://www.w3.org/2001/xml-events" xmlns:xlink="http://www.w3.org/1999/xlink"><defs /><path d="M1190 1006Q1190 1036 1211.0 1057.0Q1232 1078 1262 1078H1334L1414 1006L1334 935H1262Q1233 935 1211.5 956.0Q1190 977 1190 1006ZM1190 1510 1336 1590 1478 1510Q1478 1480 1466.5 1454.0Q1455 1428 1435.5 1408.5Q1416 1389 1390.0 1377.5Q1364 1366 1334 1366Q1304 1366 1278.0 1377.5Q1252 1389 1232.5 1408.5Q1213 1428 1201.5 1454.0Q1190 1480 1190 1510Z" style="fill:#ffc83d;stroke:none" transform="scale(1,-1) translate(0,-256)" /></svg>