<?xml version="1.0" encoding="utf-8" ?>
<svg baseProfile="full" height="256" version="1.1" width="256" xmlns="http://www.w3.org/2000/svg" xmlns:ev="http://www.w3.org/2001/xml-events" xmlns:xlink="http://www.w3.org/1999/xlink"><defs /><path d="M1190 1294Q1190 1256 1179.5 1219.5Q1169 1183 1150 1150H1334Q1334 1091 1311.5 1038.5Q1289 986 1250.0 947.0Q1211 908 1158.5 885.5Q1106 863 1047 863L831 1294H557Q569 1326 589.0 1352.5Q609 1379 635.5 1398.0Q662 1417 693.0 1427.5Q724 1438 759 1438H1047Q1047 1400 1036.5 1363.5Q1026 1327 1007 1294ZM2340 1438Q2369 1438 2390.5 1416.5Q2412 1395 2412 1366H2340V1078Q2340 1033 2323.0 994.0Q2306 955 2277.0 926.0Q2248 897 2209.0 880.0Q2170 863 2125 863H1990Q2033 864 2071.0 881.5Q2109 899 2137.0 928.5Q2165 958 2181.0 996.5Q2197 1035 2197 1078V1294Q2197 1324 2208.0 1350.0Q2219 1376 2238.5 1395.5Q2258 1415 2284.0 1426.5Q2310 1438 2340 1438Z" style="fill:#d48c00;stroke:none" transform="scale(1,-1) translate(0,-256)" /></svg>