<?xml version="1.0" encoding="utf-8" ?>
<svg baseProfile="full" height="256" version="1.1" width="256" xmlns="http://www.w3.org/2000/svg" xmlns:ev="http://www.w3.org/2001/xml-events" xmlns:xlink="http://www.w3.org/1999/xlink"><defs /><path d="M1550 1438H1765V1150H1550V1006Q1550 977 1528.5 956.0Q1507 935 1478 935H1334V1078H1406V1294Q1406 1324 1417.5 1350.0Q1429 1376 1448.5 1395.5Q1468 1415 1494.0 1426.5Q1520 1438 1550 1438ZM1478 1581V1510H1118L1190 1581Q1190 1611 1201.5 1637.0Q1213 1663 1232.5 1682.5Q1252 1702 1278.0 1713.5Q1304 1725 1334 1725Q1364 1725 1390.0 1713.5Q1416 1702 1435.5 1682.5Q1455 1663 1466.5 1637.0Q1478 1611 1478 1581Z" style="fill:#886ce4;stroke:none" transform="scale(1,-1) translate(0,-256)" /></svg>