<?xml version="1.0" encoding="utf-8" ?>
<svg baseProfile="full" height="256" version="1.1" width="256" xmlns="http://www.w3.org/2000/svg" xmlns:ev="http://www.w3.org/2001/xml-events" xmlns:xlink="http://www.w3.org/1999/xlink"><defs /><path d="M1551 1653V1078H473V1653ZM1766 334H1838V-36Q1838 -58 1829.5 -77.5Q1821 -97 1806.0 -112.0Q1791 -127 1771.5 -135.5Q1752 -144 1730 -144Q1708 -144 1688.5 -135.5Q1669 -127 1654.5 -112.0Q1640 -97 1631.5 -77.5Q1623 -58 1623 -36V190Q1623 219 1601.5 240.5Q1580 262 1551 262V334Q1581 334 1607.0 322.5Q1633 311 1652.5 291.5Q1672 272 1683.0 246.0Q1694 220 1694 190V-36Q1694 -50 1705.0 -61.0Q1716 -72 1730 -72Q1745 -72 1755.5 -61.5Q1766 -51 1766 -36Z" style="fill:#757575;stroke:none" transform="scale(1,-1) translate(0,-256)" /></svg>