<?xml version="1.0" encoding="utf-8" ?>
<svg baseProfile="full" height="256" version="1.1" width="256" xmlns="http://www.w3.org/2000/svg" xmlns:ev="http://www.w3.org/2001/xml-events" xmlns:xlink="http://www.w3.org/1999/xlink"><defs /><path d="M1551 1006H473Q444 1006 422.5 1027.5Q401 1049 401 1078V1653Q401 1683 422.0 1704.0Q443 1725 473 1725H1551Q1580 1725 1601.5 1703.5Q1623 1682 1623 1653V1078Q1623 1055 1609.0 1036.0Q1595 1017 1573 1010L1648 934L1684 851L1597 884L1551 930ZM401 -287V-215H1623V-287ZM1816 622V546Q1796 547 1774.5 549.0Q1753 551 1735.0 558.5Q1717 566 1705.5 580.5Q1694 595 1694 622ZM1766 406 1803 436 1838 406V334L1804 304L1766 334Z" style="fill:#e5e5e5;stroke:none" transform="scale(1,-1) translate(0,-256)" /></svg>