<?xml version="1.0" encoding="utf-8" ?>
<svg baseProfile="full" height="256" version="1.1" width="256" xmlns="http://www.w3.org/2000/svg" xmlns:ev="http://www.w3.org/2001/xml-events" xmlns:xlink="http://www.w3.org/1999/xlink"><defs /><path d="M1980 804V-36Q1980 -83 1963.5 -125.0Q1947 -167 1918.0 -200.0Q1889 -233 1850.0 -255.5Q1811 -278 1765 -285V-432H255V-73H327V918Q293 948 274.0 990.5Q255 1033 255 1078V1653Q255 1697 272.5 1736.0Q290 1775 320.0 1804.5Q350 1834 389.5 1851.0Q429 1868 473 1868H1551Q1596 1868 1635.0 1851.0Q1674 1834 1703.0 1805.0Q1732 1776 1748.5 1737.0Q1765 1698 1765 1653V1078Q1765 1051 1759 1026Z" style="fill:#000000;stroke:none" transform="scale(1,-1) translate(0,-256)" /></svg>