<?xml version="1.0" encoding="utf-8" ?>
<svg baseProfile="full" height="256" version="1.1" width="256" xmlns="http://www.w3.org/2000/svg" xmlns:ev="http://www.w3.org/2001/xml-events" xmlns:xlink="http://www.w3.org/1999/xlink"><defs /><path d="M1096 230V1236H1415Q1469 1236 1525.5 1224.0Q1582 1212 1627.5 1185.0Q1673 1158 1702.5 1114.0Q1732 1070 1732 1006Q1732 916 1683.0 854.5Q1634 793 1549 768Q1600 761 1642.0 741.0Q1684 721 1714.5 689.0Q1745 657 1761.5 614.0Q1778 571 1778 519Q1778 445 1746.5 390.5Q1715 336 1664.0 300.5Q1613 265 1549.0 247.5Q1485 230 1419 230ZM1262 682V363H1405Q1444 363 1479.5 372.0Q1515 381 1541.5 400.5Q1568 420 1584.0 450.5Q1600 481 1600 525Q1600 573 1581.0 603.5Q1562 634 1531.0 651.5Q1500 669 1461.5 675.5Q1423 682 1383 682ZM1262 1102V816H1371Q1408 816 1442.0 825.0Q1476 834 1501.5 853.0Q1527 872 1542.0 901.5Q1557 931 1557 973Q1557 1012 1542.5 1037.0Q1528 1062 1503.5 1076.5Q1479 1091 1448.0 1096.5Q1417 1102 1384 1102Z" style="fill:#ffffff;stroke:none" transform="scale(1,-1) translate(0,-256)" /></svg>