<?xml version="1.0" encoding="utf-8" ?>
<svg baseProfile="full" height="256" version="1.1" width="256" xmlns="http://www.w3.org/2000/svg" xmlns:ev="http://www.w3.org/2001/xml-events" xmlns:xlink="http://www.w3.org/1999/xlink"><defs /><path d="M1401 1598 2466 1066Q2504 1046 2525.5 1011.5Q2547 977 2547 934Q2547 889 2526.0 857.0Q2505 825 2466 803Q2416 776 2365.5 752.0Q2315 728 2264 702V465Q2264 415 2250.0 367.5Q2236 320 2210.5 278.5Q2185 237 2149.0 203.5Q2113 170 2068 148L1560 -106Q1486 -144 1401 -144Q1369 -144 1342.0 -139.0Q1315 -134 1289.5 -125.5Q1264 -117 1239.5 -105.0Q1215 -93 1188 -79L1174 -72H683V181Q616 232 577.5 306.0Q539 380 539 465V702Q488 728 437.5 752.0Q387 776 337 803Q298 825 277.0 857.0Q256 889 256 934Q256 977 277.5 1011.5Q299 1046 337 1066Z" style="fill:#000000;stroke:none" transform="scale(1,-1) translate(0,-256)" /></svg>