<?xml version="1.0" encoding="utf-8" ?>
<svg baseProfile="full" height="256" version="1.1" width="256" xmlns="http://www.w3.org/2000/svg" xmlns:ev="http://www.w3.org/2001/xml-events" xmlns:xlink="http://www.w3.org/1999/xlink"><defs /><path d="M1365 935Q1380 935 1391.0 924.5Q1402 914 1402 899Q1402 890 1396.0 880.0Q1390 870 1382 866L970 661V360L951 326L970 288V282Q1002 271 1022.0 243.0Q1042 215 1042 180V72L1006 108L970 72L934 108L898 72L862 108L826 72V180Q826 215 846.0 243.0Q866 271 898 282V288L912 324L898 360V705Q912 712 951.0 732.0Q990 752 1040.0 777.5Q1090 803 1145.0 831.0Q1200 859 1247.0 882.0Q1294 905 1326.5 920.0Q1359 935 1365 935Z" style="fill:#eba300;stroke:none" transform="scale(1,-1) translate(0,-256)" /></svg>