<?xml version="1.0" encoding="utf-8" ?>
<svg baseProfile="full" height="256" version="1.1" width="256" xmlns="http://www.w3.org/2000/svg" xmlns:ev="http://www.w3.org/2001/xml-events" xmlns:xlink="http://www.w3.org/1999/xlink"><defs /><path d="M831 647V-144Q818 -146 786.5 -152.0Q755 -158 720.0 -164.0Q685 -170 655.0 -174.5Q625 -179 615 -179Q605 -179 575.0 -174.5Q545 -170 510.5 -164.0Q476 -158 444.5 -152.0Q413 -146 400 -144V1725H687V719Q687 694 696.5 680.0Q706 666 721.0 658.5Q736 651 755.0 649.0Q774 647 793 647ZM2340 1725V-144Q2327 -146 2295.5 -152.0Q2264 -158 2229.5 -164.0Q2195 -170 2165.0 -174.5Q2135 -179 2125 -179Q2115 -179 2085.0 -174.5Q2055 -170 2020.0 -164.0Q1985 -158 1953.5 -152.0Q1922 -146 1909 -144V647H1947Q1966 647 1985.0 649.0Q2004 651 2019.0 658.5Q2034 666 2043.5 680.0Q2053 694 2053 719V1725ZM1837 647V-144Q1824 -146 1792.5 -152.0Q1761 -158 1726.5 -164.0Q1692 -170 1662.0 -174.5Q1632 -179 1622 -179Q1612 -179 1582.0 -174.5Q1552 -170 1517.0 -164.0Q1482 -158 1450.5 -152.0Q1419 -146 1406 -144V647H1444Q1463 647 1482.0 649.0Q1501 651 1516.0 658.5Q1531 666 1540.5 680.0Q1550 694 1550 719V1725H1693V719Q1693 694 1702.5 680.0Q1712 666 1727.0 658.5Q1742 651 1761.0 649.0Q1780 647 1799 647ZM1334 647V-144Q1321 -146 1289.5 -152.0Q1258 -158 1223.0 -164.0Q1188 -170 1158.0 -174.5Q1128 -179 1118 -179Q1108 -179 1078.0 -174.5Q1048 -170 1013.5 -164.0Q979 -158 947.5 -152.0Q916 -146 903 -144V647H941Q960 647 979.0 649.0Q998 651 1013.0 658.5Q1028 666 1037.5 680.0Q1047 694 1047 719V1725H1190V719Q1190 694 1199.5 680.0Q1209 666 1224.0 658.5Q1239 651 1258.0 649.0Q1277 647 1296 647Z" style="fill:#f2f2f2;stroke:none" transform="scale(1,-1) translate(0,-256)" /></svg>