<?xml version="1.0" encoding="utf-8" ?>
<svg baseProfile="full" height="256" version="1.1" width="256" xmlns="http://www.w3.org/2000/svg" xmlns:ev="http://www.w3.org/2001/xml-events" xmlns:xlink="http://www.w3.org/1999/xlink"><defs /><path d="M939 791H795Q780 791 769.5 801.5Q759 812 759 827V1725H975V827Q975 812 964.5 801.5Q954 791 939 791ZM1442 791H1298Q1283 791 1272.5 801.5Q1262 812 1262 827V1725H1478V827Q1478 812 1467.5 801.5Q1457 791 1442 791ZM1945 791H1801Q1786 791 1775.5 801.5Q1765 812 1765 827V1725H1981V827Q1981 812 1970.5 801.5Q1960 791 1945 791Z" style="fill:#383838;stroke:none" transform="scale(1,-1) translate(0,-256)" /></svg>