<?xml version="1.0" encoding="utf-8" ?>
<svg baseProfile="full" height="256" version="1.1" width="256" xmlns="http://www.w3.org/2000/svg" xmlns:ev="http://www.w3.org/2001/xml-events" xmlns:xlink="http://www.w3.org/1999/xlink"><defs /><path d="M687 -287Q602 -287 528.0 -248.0Q454 -209 400 -144Q430 -144 456.0 -132.5Q482 -121 501.5 -101.5Q521 -82 532.0 -56.0Q543 -30 543 0Q543 60 565.5 112.5Q588 165 627.0 204.0Q666 243 718.5 265.5Q771 288 831 288Q843 288 855.5 287.0Q868 286 880 286Q909 286 939.0 291.5Q969 297 999.0 305.0Q1029 313 1058.0 322.0Q1087 331 1115 338Q1110 325 1099.0 297.0Q1088 269 1077.0 238.0Q1066 207 1057.0 180.5Q1048 154 1047 144Q1046 138 1046.0 132.0Q1046 126 1046 120Q1046 108 1046.5 96.0Q1047 84 1047 72Q1047 -3 1018.5 -68.0Q990 -133 941.5 -182.0Q893 -231 827.5 -259.0Q762 -287 687 -287Z" style="fill:#ca5010;stroke:none" transform="scale(1,-1) translate(0,-256)" /></svg>