<?xml version="1.0" encoding="utf-8" ?>
<svg baseProfile="full" height="256" version="1.1" width="256" xmlns="http://www.w3.org/2000/svg" xmlns:ev="http://www.w3.org/2001/xml-events" xmlns:xlink="http://www.w3.org/1999/xlink"><defs /><path d="M2209 1797Q2281 1797 2344.0 1770.0Q2407 1743 2454.5 1695.5Q2502 1648 2529.0 1585.0Q2556 1522 2556 1450Q2556 1377 2529.5 1317.5Q2503 1258 2454 1205Q2395 1142 2332.5 1082.5Q2270 1023 2210 962L1516 267Q1493 244 1467.5 220.0Q1442 196 1422 170Q1419 164 1414.0 160.0Q1409 156 1404 151Q1354 105 1303.5 73.0Q1253 41 1188 21Q1178 -75 1134.5 -157.5Q1091 -240 1024.0 -301.0Q957 -362 870.5 -396.5Q784 -431 687 -431Q616 -431 556.0 -414.0Q496 -397 443.5 -366.0Q391 -335 345.0 -291.5Q299 -248 256 -195V0H400Q400 81 429.0 155.0Q458 229 509.0 286.5Q560 344 629.5 381.5Q699 419 780 428Q799 494 831.5 544.5Q864 595 910 645Q915 650 919.0 655.0Q923 660 929 663Q955 683 979.0 708.5Q1003 734 1026 757L1721 1451Q1782 1512 1841.5 1574.0Q1901 1636 1964 1695Q2018 1746 2076.0 1771.5Q2134 1797 2209 1797Z" style="fill:#000000;stroke:none" transform="scale(1,-1) translate(0,-256)" /></svg>