<?xml version="1.0" encoding="utf-8" ?>
<svg baseProfile="full" height="256" version="1.1" width="256" xmlns="http://www.w3.org/2000/svg" xmlns:ev="http://www.w3.org/2001/xml-events" xmlns:xlink="http://www.w3.org/1999/xlink"><defs /><path d="M1622 1581Q1651 1581 1672.0 1560.0Q1693 1539 1693 1510V1222Q1693 1202 1682.5 1184.5Q1672 1167 1654 1158L1366 1014Q1354 1008 1340.5 1006.0Q1327 1004 1313 1004Q1300 1004 1287.0 1005.0Q1274 1006 1262 1006L1190 863H975L920 1006L687 890V647Q687 617 666.0 596.0Q645 575 615 575Q586 575 564.5 596.5Q543 618 543 647V935Q543 955 554.0 972.5Q565 990 583 999L871 1143Q885 1150 903 1150H1317L1550 1266V1510Q1550 1539 1571.5 1560.0Q1593 1581 1622 1581ZM1118 1222Q1074 1222 1035.0 1238.0Q996 1254 966.5 1282.5Q937 1311 920.0 1349.5Q903 1388 903 1432V1511Q960 1511 1011.5 1517.0Q1063 1523 1110.5 1538.0Q1158 1553 1202.5 1578.0Q1247 1603 1291 1641Q1313 1614 1323.5 1582.5Q1334 1551 1334 1516V1432Q1334 1388 1316.5 1349.5Q1299 1311 1269.5 1282.5Q1240 1254 1200.5 1238.0Q1161 1222 1118 1222ZM1406 288 1693 -144Q1696 -149 1698.0 -161.0Q1700 -173 1700 -179Q1700 -211 1678.5 -230.0Q1657 -249 1626 -249Q1607 -249 1593 -244L1334 144Z" style="fill:#ffc83d;stroke:none" transform="scale(1,-1) translate(0,-256)" /></svg>