<?xml version="1.0" encoding="utf-8" ?>
<svg baseProfile="full" height="256" version="1.1" width="256" xmlns="http://www.w3.org/2000/svg" xmlns:ev="http://www.w3.org/2001/xml-events" xmlns:xlink="http://www.w3.org/1999/xlink"><defs /><path d="M1118 1725Q1169 1725 1214.0 1702.5Q1259 1680 1291 1641Q1253 1607 1209.5 1582.5Q1166 1558 1118 1541V1006H1047V935L903 791Q903 761 882.0 740.0Q861 719 831 719V1150Q801 1150 780.0 1171.0Q759 1192 759 1222V1438Q759 1467 780.5 1488.5Q802 1510 831 1510V1516Q799 1527 779.0 1554.5Q759 1582 759 1617Q759 1639 767.5 1659.0Q776 1679 790.5 1693.5Q805 1708 824.5 1716.5Q844 1725 867 1725Q899 1725 925.5 1708.0Q952 1691 965 1662Q995 1692 1035.0 1708.5Q1075 1725 1118 1725ZM1334 1438V1222Q1304 1222 1283.0 1243.0Q1262 1264 1262 1294V1438Z" style="fill:#8e562e;stroke:none" transform="scale(1,-1) translate(0,-256)" /></svg>