<?xml version="1.0" encoding="utf-8" ?>
<svg baseProfile="full" height="256" version="1.1" width="256" xmlns="http://www.w3.org/2000/svg" xmlns:ev="http://www.w3.org/2001/xml-events" xmlns:xlink="http://www.w3.org/1999/xlink"><defs /><path d="M1622 359Q1622 225 1571.0 107.5Q1520 -10 1432.5 -98.0Q1345 -186 1227.0 -236.5Q1109 -287 975 -287H400V-215Q400 -148 420.5 -83.0Q441 -18 489 30L656 197Q691 232 711.5 268.0Q732 304 743.0 341.5Q754 379 757.0 418.0Q760 457 760 499Q760 526 759.5 554.0Q759 582 759 611Q759 647 769.5 681.0Q780 715 799.0 744.5Q818 774 844.5 798.0Q871 822 903 838V1150H975V1042Q975 1020 983.5 1000.5Q992 981 1007.0 966.5Q1022 952 1041.5 943.5Q1061 935 1083 935Q1105 935 1124.5 943.5Q1144 952 1158.5 966.5Q1173 981 1181.5 1000.5Q1190 1020 1190 1042V1150H1262Q1269 1135 1281.0 1111.0Q1293 1087 1305.0 1060.5Q1317 1034 1325.5 1009.5Q1334 985 1334 970Q1334 936 1314.0 908.0Q1294 880 1262 869V647L1376 748Q1399 768 1423.0 779.5Q1447 791 1478 791Q1508 791 1534.0 779.5Q1560 768 1579.5 748.5Q1599 729 1610.5 703.0Q1622 677 1622 647ZM1765 -144Q1795 -144 1821.0 -155.0Q1847 -166 1866.5 -185.5Q1886 -205 1897.5 -231.0Q1909 -257 1909 -287H1622L1593 -244L1693 -144Z" style="fill:#f03a17;stroke:none" transform="scale(1,-1) translate(0,-256)" /></svg>