<?xml version="1.0" encoding="utf-8" ?>
<svg baseProfile="full" height="256" version="1.1" width="256" xmlns="http://www.w3.org/2000/svg" xmlns:ev="http://www.w3.org/2001/xml-events" xmlns:xlink="http://www.w3.org/1999/xlink"><defs /><path d="M1545 -431 1442 -278Q1339 -353 1221.0 -392.0Q1103 -431 975 -431H256V-215Q256 -118 281.5 -47.0Q307 24 345.5 78.5Q384 133 429.5 175.5Q475 218 515.0 257.5Q555 297 583.0 338.0Q611 379 615 431Q570 431 531.0 448.0Q492 465 463.0 494.5Q434 524 417.0 563.0Q400 602 400 647V935Q400 984 415.5 1019.0Q431 1054 456.5 1079.5Q482 1105 516.0 1125.0Q550 1145 587 1164L615 1178V1438Q615 1460 620.0 1482.0Q625 1504 633 1524Q625 1547 620.0 1570.0Q615 1593 615 1617Q615 1669 635.0 1715.0Q655 1761 689.0 1795.0Q723 1829 769.0 1849.0Q815 1869 867 1869Q896 1869 925.0 1862.0Q954 1855 980 1842Q1046 1869 1118 1869Q1181 1869 1228.5 1852.0Q1276 1835 1316.5 1806.5Q1357 1778 1394.0 1741.0Q1431 1704 1472 1664Q1502 1694 1541.0 1709.5Q1580 1725 1622 1725Q1666 1725 1705.0 1708.0Q1744 1691 1773.5 1661.5Q1803 1632 1820.0 1593.0Q1837 1554 1837 1510V1222Q1837 1159 1806.0 1108.5Q1775 1058 1718 1029L1522 931Q1574 923 1618.5 897.5Q1663 872 1695.5 833.5Q1728 795 1746.5 747.0Q1765 699 1765 647V359Q1765 216 1715 83L1770 0Q1828 -1 1880.0 -24.0Q1932 -47 1970.0 -86.0Q2008 -125 2030.5 -177.0Q2053 -229 2053 -287V-431Z" style="fill:#000000;stroke:none" transform="scale(1,-1) translate(0,-256)" /></svg>