<?xml version="1.0" encoding="utf-8" ?>
<svg baseProfile="full" height="256" version="1.1" width="256" xmlns="http://www.w3.org/2000/svg" xmlns:ev="http://www.w3.org/2001/xml-events" xmlns:xlink="http://www.w3.org/1999/xlink"><defs /><path d="M615 -431Q541 -431 475.5 -403.0Q410 -375 361.0 -326.0Q312 -277 284.0 -211.5Q256 -146 256 -72V72H472V1510Q472 1584 500.0 1649.5Q528 1715 577.0 1763.5Q626 1812 691.5 1840.5Q757 1869 831 1869H1981Q2051 1869 2104.5 1836.0Q2158 1803 2194.5 1751.5Q2231 1700 2249.5 1636.0Q2268 1572 2268 1510V1366H1981V-72Q1981 -146 1952.5 -211.5Q1924 -277 1875.5 -326.0Q1827 -375 1761.5 -403.0Q1696 -431 1622 -431Z" style="fill:#000000;stroke:none" transform="scale(1,-1) translate(0,-256)" /></svg>