<?xml version="1.0" encoding="utf-8" ?>
<svg baseProfile="full" height="256" version="1.1" width="256" xmlns="http://www.w3.org/2000/svg" xmlns:ev="http://www.w3.org/2001/xml-events" xmlns:xlink="http://www.w3.org/1999/xlink"><defs /><path d="M1837 1510V-72Q1837 -117 1820.0 -156.0Q1803 -195 1774.0 -224.0Q1745 -253 1706.0 -270.0Q1667 -287 1622 -287Q1525 -287 1426.5 -269.0Q1328 -251 1232 -230L1210 -225Q1059 -192 911.0 -154.0Q763 -116 615 -72V1510Q615 1555 632.0 1594.0Q649 1633 678.5 1662.0Q708 1691 747.0 1708.0Q786 1725 831 1725H1973Q1937 1722 1911.5 1699.5Q1886 1677 1869.5 1645.0Q1853 1613 1845.0 1576.5Q1837 1540 1837 1510Z" style="fill:#ffffff;stroke:none" transform="scale(1,-1) translate(0,-256)" /></svg>