<?xml version="1.0" encoding="utf-8" ?>
<svg baseProfile="full" height="256" version="1.1" width="256" xmlns="http://www.w3.org/2000/svg" xmlns:ev="http://www.w3.org/2001/xml-events" xmlns:xlink="http://www.w3.org/1999/xlink"><defs /><path d="M759 1510H1693V1366H759ZM759 72V144H1334V72ZM1334 503H759V575H1334ZM759 791H1334V719H759ZM1334 288H759V360H1334ZM759 1222H1334V1150H759ZM1334 935H759V1006H1334ZM1478 791H1693V719H1478ZM1693 288H1478V360H1693ZM1693 503H1478V575H1693ZM1478 1222H1693V1150H1478ZM1478 72V144H1693V72ZM1693 935H1478V1006H1693Z" style="fill:#a6a6a6;stroke:none" transform="scale(1,-1) translate(0,-256)" /></svg>