<?xml version="1.0" encoding="utf-8" ?>
<svg baseProfile="full" height="256" version="1.1" width="256" xmlns="http://www.w3.org/2000/svg" xmlns:ev="http://www.w3.org/2001/xml-events" xmlns:xlink="http://www.w3.org/1999/xlink"><defs /><path d="M1276 595V230H1110V1236H1415Q1490 1236 1556.5 1219.0Q1623 1202 1672.5 1165.0Q1722 1128 1751.0 1069.5Q1780 1011 1780 928Q1780 847 1751.0 784.5Q1722 722 1672.0 680.0Q1622 638 1554.5 616.5Q1487 595 1411 595ZM1276 1099V731H1385Q1431 731 1471.5 741.5Q1512 752 1541.0 775.0Q1570 798 1587.0 834.0Q1604 870 1604 921Q1604 970 1588.5 1004.0Q1573 1038 1546.0 1059.0Q1519 1080 1481.0 1089.5Q1443 1099 1398 1099Z" style="fill:#ffffff;stroke:none" transform="scale(1,-1) translate(0,-256)" /></svg>