<?xml version="1.0" encoding="utf-8" ?>
<svg baseProfile="full" height="256" version="1.1" width="256" xmlns="http://www.w3.org/2000/svg" xmlns:ev="http://www.w3.org/2001/xml-events" xmlns:xlink="http://www.w3.org/1999/xlink"><defs /><path d="M2022 1643Q2137 1622 2235.0 1564.0Q2333 1506 2404.0 1421.0Q2475 1336 2515.0 1229.5Q2555 1123 2555 1006Q2555 907 2555.5 810.0Q2556 713 2556 614Q2556 492 2528.0 375.5Q2500 259 2445.5 155.0Q2391 51 2310.0 -37.0Q2229 -125 2124 -189V-431Q2100 -431 2076.5 -431.5Q2053 -432 2029 -432Q1984 -432 1940.5 -429.0Q1897 -426 1856.5 -416.0Q1816 -406 1777.5 -387.5Q1739 -369 1703 -338Q1634 -349 1564.5 -354.0Q1495 -359 1425 -359H615Q553 -359 500.5 -337.0Q448 -315 409.5 -277.0Q371 -239 349.0 -186.5Q327 -134 327 -72V67Q293 115 274.5 171.5Q256 228 256 287V575Q256 693 312.5 780.0Q369 867 481 909Q443 940 421.0 984.0Q399 1028 399 1078Q399 1152 427.5 1217.5Q456 1283 505.0 1332.0Q554 1381 619.5 1409.5Q685 1438 759 1438Q832 1438 902 1407Q972 1438 1046 1438Q1120 1438 1185.5 1409.5Q1251 1381 1299.5 1332.0Q1348 1283 1376.5 1217.5Q1405 1152 1405 1078Q1405 1038 1391.0 1001.0Q1377 964 1350 935H1477V1869H1621Q1684 1869 1744.5 1856.5Q1805 1844 1857.5 1816.5Q1910 1789 1952.5 1746.0Q1995 1703 2022 1643Z" style="fill:#000000;stroke:none" transform="scale(1,-1) translate(0,-256)" /></svg>