<?xml version="1.0" encoding="utf-8" ?>
<svg baseProfile="full" height="256" version="1.1" width="256" xmlns="http://www.w3.org/2000/svg" xmlns:ev="http://www.w3.org/2001/xml-events" xmlns:xlink="http://www.w3.org/1999/xlink"><defs /><path d="M1908 1510Q2012 1510 2103.5 1470.0Q2195 1430 2263.5 1361.5Q2332 1293 2371.5 1201.0Q2411 1109 2411 1006Q2411 907 2411.5 809.0Q2412 711 2412 612Q2412 568 2409.0 519.5Q2406 471 2392 429Q2390 422 2381.5 406.0Q2373 390 2363.5 372.5Q2354 355 2344.5 339.0Q2335 323 2330 317Q2267 233 2196.0 157.0Q2125 81 2054 5Q2031 -20 2013.0 -47.0Q1995 -74 1980 -104V-287Q1911 -287 1852.5 -263.5Q1794 -240 1752 -183Q1731 -179 1710.5 -170.0Q1690 -161 1672.0 -151.5Q1654 -142 1638.5 -134.5Q1623 -127 1611 -124Q1602 -122 1592.5 -122.0Q1583 -122 1574 -122Q1547 -122 1520.0 -122.5Q1493 -123 1466 -123L1334 -215H615Q583 -215 557.0 -204.5Q531 -194 511.5 -175.0Q492 -156 481.5 -130.0Q471 -104 471 -72H831Q862 -72 888.5 -61.5Q915 -51 934.5 -31.5Q954 -12 964.5 14.0Q975 40 975 72H616Q569 72 529.0 88.0Q489 104 460.5 132.5Q432 161 416.0 201.0Q400 241 400 288V575Q400 622 416.0 662.0Q432 702 460.5 730.5Q489 759 529.0 775.0Q569 791 616 791H831Q840 812 860.0 829.5Q880 847 904 847Q928 847 947.0 829.5Q966 812 974 791H1908Q1953 791 1992.0 808.0Q2031 825 2060.5 854.0Q2090 883 2107.0 922.0Q2124 961 2124 1006Q2124 1051 2107.0 1090.0Q2090 1129 2061.0 1158.5Q2032 1188 1993.0 1205.0Q1954 1222 1909 1222Q1909 1202 1904.5 1185.0Q1900 1168 1892 1151Q1873 1109 1844.5 1081.0Q1816 1053 1781.0 1036.5Q1746 1020 1705.0 1013.0Q1664 1006 1621 1006V1294L1693 1366L1621 1438V1725Q1662 1725 1703.0 1718.0Q1744 1711 1780.5 1694.0Q1817 1677 1846.0 1649.5Q1875 1622 1892 1581Q1899 1564 1903.5 1546.0Q1908 1528 1908 1510Z" style="fill:#00bcf2;stroke:none" transform="scale(1,-1) translate(0,-256)" /></svg>