<?xml version="1.0" encoding="utf-8" ?>
<svg baseProfile="full" height="256" version="1.1" width="256" xmlns="http://www.w3.org/2000/svg" xmlns:ev="http://www.w3.org/2001/xml-events" xmlns:xlink="http://www.w3.org/1999/xlink"><defs /><path d="M256 140V744L1079 1156Q1026 1215 998.0 1288.5Q970 1362 970 1441Q970 1529 1003.5 1607.0Q1037 1685 1095.5 1743.5Q1154 1802 1231.5 1835.5Q1309 1869 1398 1869Q1486 1869 1564.0 1835.5Q1642 1802 1700.5 1743.5Q1759 1685 1792.5 1607.0Q1826 1529 1826 1441Q1826 1362 1797.5 1288.5Q1769 1215 1716 1156L2539 744V140L1398 -431Z" style="fill:#000000;stroke:none" transform="scale(1,-1) translate(0,-256)" /></svg>