<?xml version="1.0" encoding="utf-8" ?>
<svg baseProfile="full" height="256" version="1.1" width="256" xmlns="http://www.w3.org/2000/svg" xmlns:ev="http://www.w3.org/2001/xml-events" xmlns:xlink="http://www.w3.org/1999/xlink"><defs /><path d="M1683 1441Q1683 1382 1660.5 1330.0Q1638 1278 1599.5 1239.0Q1561 1200 1509.0 1177.5Q1457 1155 1398 1155Q1339 1155 1287.0 1177.5Q1235 1200 1196.0 1239.0Q1157 1278 1134.5 1330.0Q1112 1382 1112 1441Q1112 1500 1134.5 1552.0Q1157 1604 1196.0 1642.5Q1235 1681 1287.0 1703.5Q1339 1726 1398 1726Q1457 1726 1509.0 1703.5Q1561 1681 1599.5 1642.5Q1638 1604 1660.5 1552.0Q1683 1500 1683 1441ZM898 727Q898 706 881.5 692.5Q865 679 842.5 671.0Q820 663 795.5 659.5Q771 656 756 656Q741 656 716.5 659.5Q692 663 669.0 671.0Q646 679 629.5 692.5Q613 706 613 727Q613 748 629.5 762.0Q646 776 669.0 784.0Q692 792 716.0 795.5Q740 799 756 799Q772 799 796.0 795.5Q820 792 842.5 784.0Q865 776 881.5 762.0Q898 748 898 727Z" style="fill:#e81224;stroke:none" transform="scale(1,-1) translate(0,-256)" /></svg>