<?xml version="1.0" encoding="utf-8" ?>
<svg baseProfile="full" height="256" version="1.1" width="256" xmlns="http://www.w3.org/2000/svg" xmlns:ev="http://www.w3.org/2001/xml-events" xmlns:xlink="http://www.w3.org/1999/xlink"><defs /><path d="M1826 656Q1826 615 1803.0 583.0Q1780 551 1742.5 527.0Q1705 503 1658.0 487.0Q1611 471 1563.5 461.0Q1516 451 1472.0 446.5Q1428 442 1398 442Q1356 442 1314.5 446.0Q1273 450 1231 459Q1196 466 1151.0 481.5Q1106 497 1065.5 521.5Q1025 546 997.5 579.5Q970 613 970 656Q970 699 997.5 732.5Q1025 766 1065.5 790.5Q1106 815 1151.0 830.5Q1196 846 1231 853Q1273 862 1314.5 866.0Q1356 870 1398 870Q1428 870 1472.0 865.5Q1516 861 1563.5 851.0Q1611 841 1658.0 825.0Q1705 809 1742.5 785.0Q1780 761 1803.0 729.0Q1826 697 1826 656Z" style="fill:#1f1f1f;stroke:none" transform="scale(1,-1) translate(0,-256)" /></svg>