<?xml version="1.0" encoding="utf-8" ?>
<svg baseProfile="full" height="256" version="1.1" width="256" xmlns="http://www.w3.org/2000/svg" xmlns:ev="http://www.w3.org/2001/xml-events" xmlns:xlink="http://www.w3.org/1999/xlink"><defs /><path d="M1406 1869Q1528 1869 1642.0 1839.0Q1756 1809 1856.5 1753.5Q1957 1698 2041.0 1619.5Q2125 1541 2188.0 1445.0Q2251 1349 2290.0 1237.5Q2329 1126 2338 1005Q2374 970 2393.0 923.5Q2412 877 2412 827V611Q2412 573 2401.0 538.0Q2390 503 2370.5 473.0Q2351 443 2322.5 419.0Q2294 395 2260 380Q2245 264 2203.0 159.0Q2161 54 2097.0 -36.5Q2033 -127 1949.5 -199.5Q1866 -272 1768.0 -323.5Q1670 -375 1560.5 -403.0Q1451 -431 1334 -431Q1217 -431 1107.5 -403.0Q998 -375 900.0 -323.5Q802 -272 718.5 -199.0Q635 -126 571.0 -36.0Q507 54 465.0 159.0Q423 264 408 380Q374 395 346.0 419.0Q318 443 298.0 473.0Q278 503 267.0 538.0Q256 573 256 611V827Q256 877 275.5 923.5Q295 970 330 1005Q339 1126 377.5 1237.5Q416 1349 479.0 1445.0Q542 1541 626.5 1619.5Q711 1698 811.5 1753.0Q912 1808 1026.0 1838.5Q1140 1869 1262 1869Z" style="fill:#000000;stroke:none" transform="scale(1,-1) translate(0,-256)" /></svg>