<?xml version="1.0" encoding="utf-8" ?>
<svg baseProfile="full" height="256" version="1.1" width="256" xmlns="http://www.w3.org/2000/svg" xmlns:ev="http://www.w3.org/2001/xml-events" xmlns:xlink="http://www.w3.org/1999/xlink"><defs /><path d="M2053 719V611Q2053 574 2039.0 541.0Q2025 508 2000.5 483.5Q1976 459 1943.0 445.0Q1910 431 1873 431H1586Q1549 431 1516.0 445.0Q1483 459 1458.5 483.5Q1434 508 1420.0 541.0Q1406 574 1406 611V647Q1406 677 1385.0 698.0Q1364 719 1334 719Q1304 719 1283.0 698.0Q1262 677 1262 647V611Q1262 574 1248.0 541.0Q1234 508 1209.5 483.5Q1185 459 1152.5 445.0Q1120 431 1083 431H795Q758 431 725.0 445.0Q692 459 667.5 483.5Q643 508 629.0 541.0Q615 574 615 611V719H687L935 607L1210 719Q1230 752 1263.0 771.5Q1296 791 1334 791Q1372 791 1405.0 771.5Q1438 752 1458 719L1743 612L1981 719Z" style="fill:#f03a17;stroke:none" transform="scale(1,-1) translate(0,-256)" /></svg>