<?xml version="1.0" encoding="utf-8" ?>
<svg baseProfile="full" height="256" version="1.1" width="256" xmlns="http://www.w3.org/2000/svg" xmlns:ev="http://www.w3.org/2001/xml-events" xmlns:xlink="http://www.w3.org/1999/xlink"><defs /><path d="M1406 1725Q1515 1725 1616.0 1697.0Q1717 1669 1805.0 1617.5Q1893 1566 1965.5 1494.0Q2038 1422 2089.5 1334.0Q2141 1246 2169.0 1145.0Q2197 1044 2197 935H2125Q2125 849 2086.0 775.0Q2047 701 1981 647Q1981 766 1936.0 871.0Q1891 976 1813.0 1054.0Q1735 1132 1630.0 1177.0Q1525 1222 1406 1222Q1406 1136 1445.0 1062.5Q1484 989 1550 935H1406Q1320 935 1239.5 955.5Q1159 976 1086.5 1013.5Q1014 1051 949.5 1104.0Q885 1157 831 1222Q831 1136 810.5 1056.0Q790 976 752.5 903.0Q715 830 661.5 765.5Q608 701 543 647V863Q543 892 522.0 913.0Q501 934 472 935Q472 1044 500.0 1145.0Q528 1246 579.5 1334.0Q631 1422 703.0 1494.0Q775 1566 863.0 1617.5Q951 1669 1052.0 1697.0Q1153 1725 1262 1725Z" style="fill:#f2f2f2;stroke:none" transform="scale(1,-1) translate(0,-256)" /></svg>