<?xml version="1.0" encoding="utf-8" ?>
<svg baseProfile="full" height="256" version="1.1" width="256" xmlns="http://www.w3.org/2000/svg" xmlns:ev="http://www.w3.org/2001/xml-events" xmlns:xlink="http://www.w3.org/1999/xlink"><defs /><path d="M1334 -12Q1265 -12 1197.0 10.0Q1129 32 1075 75Q1061 86 1053.5 100.5Q1046 115 1046 132Q1046 162 1068.0 183.0Q1090 204 1119 204Q1135 204 1154.5 192.5Q1174 181 1199.5 167.5Q1225 154 1258.0 143.0Q1291 132 1334 132Q1377 132 1410.0 143.0Q1443 154 1468.5 167.5Q1494 181 1513.5 192.5Q1533 204 1549 204Q1578 204 1600.0 183.0Q1622 162 1622 132Q1622 98 1593 75Q1539 32 1471.0 10.0Q1403 -12 1334 -12ZM1478 503Q1478 473 1466.5 447.0Q1455 421 1435.5 401.5Q1416 382 1390.0 371.0Q1364 360 1334 360Q1304 360 1278.0 371.0Q1252 382 1232.5 401.5Q1213 421 1201.5 447.0Q1190 473 1190 503Z" style="fill:#f7894a;stroke:none" transform="scale(1,-1) translate(0,-256)" /></svg>