<?xml version="1.0" encoding="utf-8" ?>
<svg baseProfile="full" height="256" version="1.1" width="256" xmlns="http://www.w3.org/2000/svg" xmlns:ev="http://www.w3.org/2001/xml-events" xmlns:xlink="http://www.w3.org/1999/xlink"><defs /><path d="M2268 827V611Q2268 589 2259.5 569.5Q2251 550 2236.5 535.0Q2222 520 2202.5 511.5Q2183 503 2161 503H2125Q2125 394 2096.5 293.0Q2068 192 2016.5 104.5Q1965 17 1893.0 -55.5Q1821 -128 1733.0 -179.5Q1645 -231 1544.0 -259.0Q1443 -287 1334 -287Q1225 -287 1124.0 -259.0Q1023 -231 935.0 -179.5Q847 -128 775.0 -55.5Q703 17 651.5 104.5Q600 192 571.5 293.0Q543 394 543 503H508Q486 503 466.5 511.5Q447 520 432.0 535.0Q417 550 408.5 569.5Q400 589 400 611V827Q400 849 408.5 868.5Q417 888 432.0 903.0Q447 918 466.5 926.5Q486 935 508 935H543L547 1006L1329 1266L2121 1006L2125 935H2161Q2183 935 2202.5 926.5Q2222 918 2236.5 903.0Q2251 888 2259.5 868.5Q2268 849 2268 827Z" style="fill:#ffc83d;stroke:none" transform="scale(1,-1) translate(0,-256)" /></svg>