<?xml version="1.0" encoding="utf-8" ?>
<svg baseProfile="full" height="256" version="1.1" width="256" xmlns="http://www.w3.org/2000/svg" xmlns:ev="http://www.w3.org/2001/xml-events" xmlns:xlink="http://www.w3.org/1999/xlink"><defs /><path d="M1442 1258Q1442 1235 1433.5 1215.5Q1425 1196 1410.5 1181.5Q1396 1167 1376.0 1158.5Q1356 1150 1334 1150Q1311 1150 1291.5 1158.5Q1272 1167 1257.5 1181.5Q1243 1196 1234.5 1215.5Q1226 1235 1226 1258Q1226 1280 1234.5 1300.0Q1243 1320 1257.5 1334.5Q1272 1349 1291.5 1357.5Q1311 1366 1334 1366Q1356 1366 1376.0 1357.5Q1396 1349 1410.5 1334.5Q1425 1320 1433.5 1300.0Q1442 1280 1442 1258Z" style="fill:#fff100;stroke:none" transform="scale(1,-1) translate(0,-256)" /></svg>