<?xml version="1.0" encoding="utf-8" ?>
<svg baseProfile="full" height="256" version="1.1" width="256" xmlns="http://www.w3.org/2000/svg" xmlns:ev="http://www.w3.org/2001/xml-events" xmlns:xlink="http://www.w3.org/1999/xlink"><defs /><path d="M1334 -72Q1274 -72 1222.0 -49.5Q1170 -27 1131.0 12.0Q1092 51 1069.5 103.5Q1047 156 1047 216H1622Q1622 156 1599.5 103.5Q1577 51 1538.0 12.0Q1499 -27 1446.5 -49.5Q1394 -72 1334 -72ZM939 934Q961 934 980.5 925.5Q1000 917 1015.0 902.5Q1030 888 1038.5 868.5Q1047 849 1047 827V683Q1047 661 1038.5 641.5Q1030 622 1015.0 607.0Q1000 592 980.5 583.5Q961 575 939 575Q916 575 896.5 583.5Q877 592 862.5 606.5Q848 621 839.5 640.5Q831 660 831 683V827Q831 849 839.5 869.0Q848 889 863.0 903.0Q878 917 897.5 925.5Q917 934 939 934ZM1729 934Q1751 934 1770.5 925.5Q1790 917 1805.0 903.0Q1820 889 1828.5 869.0Q1837 849 1837 827V683Q1837 660 1828.5 640.5Q1820 621 1805.5 606.5Q1791 592 1771.0 583.5Q1751 575 1729 575Q1706 575 1686.5 583.5Q1667 592 1653.0 607.0Q1639 622 1630.5 641.5Q1622 661 1622 683V827Q1622 849 1630.5 868.5Q1639 888 1653.5 902.5Q1668 917 1687.5 925.5Q1707 934 1729 934Z" style="fill:#000000;stroke:none" transform="scale(1,-1) translate(0,-256)" /></svg>