<?xml version="1.0" encoding="utf-8" ?>
<svg baseProfile="full" height="256" version="1.1" width="256" xmlns="http://www.w3.org/2000/svg" xmlns:ev="http://www.w3.org/2001/xml-events" xmlns:xlink="http://www.w3.org/1999/xlink"><defs /><path d="M1334 -431Q1217 -431 1107.5 -403.0Q998 -375 900.0 -323.5Q802 -272 718.5 -199.0Q635 -126 571.0 -36.0Q507 54 465.0 159.0Q423 264 408 380Q374 395 346.0 419.0Q318 443 298.0 473.0Q278 503 267.0 538.0Q256 573 256 611V827Q256 863 266.5 897.5Q277 932 295.5 962.0Q314 992 341.0 1016.0Q368 1040 401 1055Q408 1178 447.0 1286.0Q486 1394 550.5 1484.5Q615 1575 701.0 1646.5Q787 1718 888.5 1767.5Q990 1817 1103.0 1843.0Q1216 1869 1334 1869Q1452 1869 1565.0 1843.0Q1678 1817 1779.5 1767.5Q1881 1718 1967.0 1646.5Q2053 1575 2117.5 1484.5Q2182 1394 2221.0 1286.0Q2260 1178 2267 1055Q2300 1040 2327.0 1016.0Q2354 992 2372.5 962.0Q2391 932 2401.5 897.5Q2412 863 2412 827V611Q2412 535 2370.5 473.0Q2329 411 2260 380Q2245 264 2203.0 159.0Q2161 54 2097.0 -36.5Q2033 -127 1949.5 -199.5Q1866 -272 1768.0 -323.5Q1670 -375 1560.5 -403.0Q1451 -431 1334 -431Z" style="fill:#000000;stroke:none" transform="scale(1,-1) translate(0,-256)" /></svg>