<?xml version="1.0" encoding="utf-8" ?>
<svg baseProfile="full" height="256" version="1.1" width="256" xmlns="http://www.w3.org/2000/svg" xmlns:ev="http://www.w3.org/2001/xml-events" xmlns:xlink="http://www.w3.org/1999/xlink"><defs /><path d="M1332 1128Q1294 1128 1253.5 1120.5Q1213 1113 1175.0 1098.0Q1137 1083 1103.5 1060.0Q1070 1037 1047 1006H543Q543 1114 573.0 1209.5Q603 1305 656.5 1385.0Q710 1465 784.0 1528.0Q858 1591 946.0 1635.0Q1034 1679 1132.5 1702.0Q1231 1725 1334 1725Q1437 1725 1535.5 1702.0Q1634 1679 1722.0 1635.0Q1810 1591 1884.0 1528.0Q1958 1465 2011.5 1385.0Q2065 1305 2095.0 1209.5Q2125 1114 2125 1006H1622Q1598 1037 1564.0 1060.0Q1530 1083 1491.0 1098.0Q1452 1113 1411.0 1120.5Q1370 1128 1332 1128Z" style="fill:#af0d1a;stroke:none" transform="scale(1,-1) translate(0,-256)" /></svg>