<?xml version="1.0" encoding="utf-8" ?>
<svg baseProfile="full" height="256" version="1.1" width="256" xmlns="http://www.w3.org/2000/svg" xmlns:ev="http://www.w3.org/2001/xml-events" xmlns:xlink="http://www.w3.org/1999/xlink"><defs /><path d="M2256 247Q2290 265 2318.5 291.5Q2347 318 2367.5 350.0Q2388 382 2399.5 419.0Q2411 456 2412 495V360Q2412 271 2389.0 188.0Q2366 105 2323.5 33.5Q2281 -38 2222.0 -97.0Q2163 -156 2091.5 -198.5Q2020 -241 1937.0 -264.0Q1854 -287 1765 -287H831Q801 -287 780.0 -266.0Q759 -245 759 -215Q759 -185 780.5 -164.5Q802 -144 831 -144H1765Q1853 -144 1933.0 -115.0Q2013 -86 2078.5 -34.0Q2144 18 2190.0 89.5Q2236 161 2256 247ZM1226 1438Q1278 1438 1324.0 1418.0Q1370 1398 1404.0 1364.0Q1438 1330 1458.0 1284.0Q1478 1238 1478 1186Q1478 1134 1458.0 1088.0Q1438 1042 1404.0 1008.0Q1370 974 1324.0 954.5Q1278 935 1226 935H975V1186Q975 1238 994.5 1284.0Q1014 1330 1048.0 1364.0Q1082 1398 1128.0 1418.0Q1174 1438 1226 1438ZM1190 216 1252 360H1478L1334 72H975Q975 102 986.0 128.0Q997 154 1016.5 173.5Q1036 193 1062.0 204.5Q1088 216 1118 216ZM1478 72Q1478 102 1489.5 128.0Q1501 154 1520.5 173.5Q1540 193 1566.0 204.5Q1592 216 1622 216H2125Q2125 186 2113.5 160.0Q2102 134 2082.5 114.5Q2063 95 2037.0 83.5Q2011 72 1981 72ZM543 575Q513 575 487.0 586.5Q461 598 441.5 617.5Q422 637 411.0 663.0Q400 689 400 719L543 815Z" style="fill:#ee9889;stroke:none" transform="scale(1,-1) translate(0,-256)" /></svg>