<?xml version="1.0" encoding="utf-8" ?>
<svg baseProfile="full" height="256" version="1.1" width="256" xmlns="http://www.w3.org/2000/svg" xmlns:ev="http://www.w3.org/2001/xml-events" xmlns:xlink="http://www.w3.org/1999/xlink"><defs /><path d="M1577 1366H1909Q1998 1366 2081.0 1343.0Q2164 1320 2235.5 1277.5Q2307 1235 2366.0 1176.0Q2425 1117 2467.5 1045.5Q2510 974 2533.0 891.0Q2556 808 2556 719V360Q2556 251 2527.5 150.0Q2499 49 2447.5 -39.0Q2396 -127 2324.0 -199.0Q2252 -271 2164.0 -322.5Q2076 -374 1975.0 -402.5Q1874 -431 1765 -431H831Q786 -431 747.0 -414.0Q708 -397 678.5 -367.5Q649 -338 632.0 -299.0Q615 -260 615 -215Q615 -170 632.0 -131.0Q649 -92 678.5 -63.0Q708 -34 747.5 -17.0Q787 0 831 0V72Q831 128 851.5 178.0Q872 228 907.5 266.5Q943 305 991.0 329.5Q1039 354 1095 359L1161 513L1141 522Q1092 477 1030.5 454.0Q969 431 903 431H543Q484 431 432.0 454.0Q380 477 341.0 516.5Q302 556 279.0 608.0Q256 660 256 719V796L831 1179Q831 1262 861.0 1335.5Q891 1409 944.5 1463.5Q998 1518 1070.0 1549.5Q1142 1581 1226 1581Q1281 1581 1333.5 1565.5Q1386 1550 1431.5 1522.0Q1477 1494 1514.0 1454.5Q1551 1415 1577 1366Z" style="fill:#000000;stroke:none" transform="scale(1,-1) translate(0,-256)" /></svg>