<?xml version="1.0" encoding="utf-8" ?>
<svg baseProfile="full" height="256" version="1.1" width="256" xmlns="http://www.w3.org/2000/svg" xmlns:ev="http://www.w3.org/2001/xml-events" xmlns:xlink="http://www.w3.org/1999/xlink"><defs /><path d="M1909 1222Q2013 1222 2104.5 1182.5Q2196 1143 2264.5 1074.5Q2333 1006 2372.5 914.5Q2412 823 2412 719V503Q2412 440 2401.0 378.0Q2390 316 2380 253L2255 247Q2225 231 2192.0 223.5Q2159 216 2125 216L1998 146L1909 216Q1864 216 1825.0 233.0Q1786 250 1756.5 279.0Q1727 308 1710.0 347.0Q1693 386 1693 431V503H1550L1478 360L1358 289L1252 360Q1259 378 1268.0 396.5Q1277 415 1285.5 434.5Q1294 454 1299.5 473.5Q1305 493 1305 513Q1305 558 1284.5 587.0Q1264 616 1233.5 636.0Q1203 656 1166.0 669.5Q1129 683 1096 698Q1070 641 1017.5 608.0Q965 575 903 575H543L483 693L543 815L1047 1150V1222Z" style="fill:#ffffff;stroke:none" transform="scale(1,-1) translate(0,-256)" /></svg>