<?xml version="1.0" encoding="utf-8" ?>
<svg baseProfile="full" height="256" version="1.1" width="256" xmlns="http://www.w3.org/2000/svg" xmlns:ev="http://www.w3.org/2001/xml-events" xmlns:xlink="http://www.w3.org/1999/xlink"><defs /><path d="M1765 647Q1795 647 1821.0 635.5Q1847 624 1866.5 604.5Q1886 585 1897.5 559.0Q1909 533 1909 503Q1909 475 1898.0 448.5Q1887 422 1867 402L1319 -130Q1241 -206 1145.0 -246.5Q1049 -287 939 -287Q827 -287 729.0 -244.5Q631 -202 558.0 -129.0Q485 -56 442.5 42.0Q400 140 400 252V1294Q400 1316 408.5 1336.0Q417 1356 431.5 1370.5Q446 1385 465.5 1393.5Q485 1402 508 1402Q529 1402 548.0 1393.5Q567 1385 581.5 1371.0Q596 1357 605.0 1338.0Q614 1319 615 1298V1510Q615 1521 622.5 1539.5Q630 1558 640.5 1576.5Q651 1595 663.5 1611.0Q676 1627 685 1633Q701 1643 720.5 1648.0Q740 1653 759 1653Q788 1653 813.5 1642.5Q839 1632 858.5 1613.5Q878 1595 890.0 1570.0Q902 1545 903 1516Q905 1533 911.5 1546.5Q918 1560 927 1574L938 1589Q950 1606 959.5 1618.5Q969 1631 980.5 1638.5Q992 1646 1007.5 1649.5Q1023 1653 1047 1653Q1077 1653 1103.0 1642.0Q1129 1631 1148.5 1611.5Q1168 1592 1179.0 1566.0Q1190 1540 1190 1510V1376Q1192 1392 1199.5 1404.5Q1207 1417 1216 1430L1219 1435Q1232 1454 1242.0 1468.0Q1252 1482 1264.0 1491.5Q1276 1501 1292.5 1505.5Q1309 1510 1334 1510Q1364 1510 1390.0 1498.5Q1416 1487 1435.5 1467.5Q1455 1448 1466.5 1422.0Q1478 1396 1478 1366V503L1468 478L1478 448L1664 605Q1688 625 1710.5 636.0Q1733 647 1765 647Z" style="fill:#ffc83d;stroke:none" transform="scale(1,-1) translate(0,-256)" /></svg>