<?xml version="1.0" encoding="utf-8" ?>
<svg baseProfile="full" height="256" version="1.1" width="256" xmlns="http://www.w3.org/2000/svg" xmlns:ev="http://www.w3.org/2001/xml-events" xmlns:xlink="http://www.w3.org/1999/xlink"><defs /><path d="M1478 448 1458 431H1226Q1159 431 1100.5 405.5Q1042 380 998.0 336.0Q954 292 928.5 233.5Q903 175 903 108Q903 93 892.5 82.5Q882 72 867 72Q852 72 841.5 82.5Q831 93 831 108Q831 190 862.0 262.0Q893 334 946.5 387.5Q1000 441 1072.0 472.0Q1144 503 1226 503H1478ZM939 791Q924 791 913.5 801.5Q903 812 903 827V1510Q903 1548 922.5 1581.0Q942 1614 975 1633V827Q975 812 964.5 801.5Q954 791 939 791ZM615 1510Q615 1548 634.5 1581.0Q654 1614 687 1633V827Q687 812 676.5 801.5Q666 791 651 791Q636 791 625.5 801.5Q615 812 615 827ZM1226 791Q1211 791 1200.5 801.5Q1190 812 1190 827V1366Q1190 1404 1210.0 1437.0Q1230 1470 1262 1490V827Q1262 812 1251.5 801.5Q1241 791 1226 791Z" style="fill:#d48c00;stroke:none" transform="scale(1,-1) translate(0,-256)" /></svg>