<?xml version="1.0" encoding="utf-8" ?>
<svg baseProfile="full" height="256" version="1.1" width="256" xmlns="http://www.w3.org/2000/svg" xmlns:ev="http://www.w3.org/2001/xml-events" xmlns:xlink="http://www.w3.org/1999/xlink"><defs /><path d="M939 -431Q845 -431 757.5 -406.5Q670 -382 594.0 -337.5Q518 -293 456.0 -231.0Q394 -169 349.5 -93.0Q305 -17 280.5 70.5Q256 158 256 252V1294Q256 1341 272.5 1383.5Q289 1426 318.5 1459.5Q348 1493 387.5 1515.0Q427 1537 474 1543Q480 1597 505.0 1643.5Q530 1690 568.0 1724.0Q606 1758 655.5 1777.5Q705 1797 759 1797Q797 1797 833.5 1787.0Q870 1777 903 1758Q935 1778 972.0 1787.5Q1009 1797 1047 1797Q1125 1797 1191.5 1758.0Q1258 1719 1297 1651Q1300 1653 1303.5 1653.0Q1307 1653 1310 1653Q1373 1653 1430.0 1633.0Q1487 1613 1529.5 1576.0Q1572 1539 1597.0 1485.5Q1622 1432 1622 1366V752Q1654 771 1690.5 781.0Q1727 791 1765 791Q1825 791 1877.5 768.5Q1930 746 1969.0 707.0Q2008 668 2030.5 615.5Q2053 563 2053 503Q2053 445 2032.0 393.0Q2011 341 1969 300L1419 -233Q1319 -330 1199.0 -380.5Q1079 -431 939 -431Z" style="fill:#000000;stroke:none" transform="scale(1,-1) translate(0,-256)" /></svg>