<?xml version="1.0" encoding="utf-8" ?>
<svg baseProfile="full" height="256" version="1.1" width="256" xmlns="http://www.w3.org/2000/svg" xmlns:ev="http://www.w3.org/2001/xml-events" xmlns:xlink="http://www.w3.org/1999/xlink"><defs /><path d="M975 72Q975 117 992.0 156.0Q1009 195 1038.0 224.5Q1067 254 1106.0 271.0Q1145 288 1190 288H2197V-144H1190Q1145 -144 1106.0 -127.0Q1067 -110 1038.0 -80.5Q1009 -51 992.0 -12.0Q975 27 975 72ZM1981 719V431H903Q873 431 847.0 442.5Q821 454 801.5 473.5Q782 493 770.5 519.0Q759 545 759 575Q759 605 770.0 631.0Q781 657 800.5 676.5Q820 696 846.5 707.5Q873 719 903 719ZM1047 1150Q1017 1150 991.0 1161.5Q965 1173 945.5 1192.5Q926 1212 914.5 1238.0Q903 1264 903 1294Q903 1324 914.5 1350.0Q926 1376 945.5 1395.5Q965 1415 991.0 1426.5Q1017 1438 1047 1438H2053V1150ZM1047 1006H2197V863H1047Q1017 863 996.0 884.0Q975 905 975 935Q975 964 996.5 985.0Q1018 1006 1047 1006Z" style="fill:#ffffff;stroke:none" transform="scale(1,-1) translate(0,-256)" /></svg>