<?xml version="1.0" encoding="utf-8" ?>
<svg baseProfile="full" height="256" version="1.1" width="256" xmlns="http://www.w3.org/2000/svg" xmlns:ev="http://www.w3.org/2001/xml-events" xmlns:xlink="http://www.w3.org/1999/xlink"><defs /><path d="M687 -359Q598 -359 519.5 -325.0Q441 -291 382.5 -232.5Q324 -174 290.0 -95.5Q256 -17 256 72Q256 144 279.0 212.0Q302 280 347 337Q302 386 279.0 447.5Q256 509 256 575Q256 663 295.5 740.0Q335 817 407 868Q400 899 400 935Q400 996 424 1050Q376 1101 352.0 1163.0Q328 1225 328 1294Q328 1368 356.5 1433.5Q385 1499 433.5 1547.5Q482 1596 547.5 1624.5Q613 1653 687 1653H2268V1222H2340V647H2197V503H2340V-359Z" style="fill:#000000;stroke:none" transform="scale(1,-1) translate(0,-256)" /></svg>