<?xml version="1.0" encoding="utf-8" ?>
<svg baseProfile="full" height="256" version="1.1" width="256" xmlns="http://www.w3.org/2000/svg" xmlns:ev="http://www.w3.org/2001/xml-events" xmlns:xlink="http://www.w3.org/1999/xlink"><defs /><path d="M759 1725Q774 1713 795.0 1697.0Q816 1681 837.5 1664.5Q859 1648 877.5 1631.5Q896 1615 907 1602Q921 1585 933.0 1562.5Q945 1540 958 1521L1981 0V-287H615Q585 -287 559.0 -276.0Q533 -265 513.5 -245.5Q494 -226 483.0 -200.0Q472 -174 472 -144V-65L419 6L472 138V151L416 220L472 353V366L417 442L472 569V582L419 649L472 784V797L422 862Q426 871 434.5 892.5Q443 914 451.0 937.5Q459 961 465.5 981.5Q472 1002 472 1010Q472 1012 464.5 1022.0Q457 1032 447.5 1043.5Q438 1055 429.5 1065.5Q421 1076 419 1079L472 1216V1229L418 1302L472 1431V1444L421 1516L435 1581Q440 1599 455.5 1609.5Q471 1620 481 1634Q483 1637 484.5 1639.5Q486 1642 488 1644Q501 1663 512.5 1678.0Q524 1693 538.0 1703.5Q552 1714 570.0 1719.5Q588 1725 615 1725Z" style="fill:#eba300;stroke:none" transform="scale(1,-1) translate(0,-256)" /></svg>