<?xml version="1.0" encoding="utf-8" ?>
<svg baseProfile="full" height="256" version="1.1" width="256" xmlns="http://www.w3.org/2000/svg" xmlns:ev="http://www.w3.org/2001/xml-events" xmlns:xlink="http://www.w3.org/1999/xlink"><defs /><path d="M508 144Q530 144 550.0 135.5Q570 127 584.0 112.0Q598 97 606.5 77.5Q615 58 615 36Q615 21 604.5 10.5Q594 0 579 0Q559 0 553.0 11.0Q547 22 543.5 35.5Q540 49 533.5 60.5Q527 72 508 72Q493 72 482.5 61.5Q472 51 472 36V-65Q440 -54 420.0 -26.5Q400 1 400 36Q400 58 408.5 78.0Q417 98 431.5 112.5Q446 127 465.5 135.5Q485 144 508 144ZM508 1222Q530 1222 550.0 1213.5Q570 1205 584.0 1190.0Q598 1175 606.5 1155.5Q615 1136 615 1114Q615 1099 604.5 1088.5Q594 1078 579 1078Q559 1078 553.0 1089.0Q547 1100 543.5 1113.5Q540 1127 533.5 1138.5Q527 1150 508 1150Q493 1150 482.5 1139.5Q472 1129 472 1114V1013Q440 1024 420.0 1051.5Q400 1079 400 1114Q400 1136 408.5 1156.0Q417 1176 431.5 1190.5Q446 1205 465.5 1213.5Q485 1222 508 1222ZM508 791Q530 791 550.0 782.5Q570 774 584.0 759.0Q598 744 606.5 724.5Q615 705 615 683Q615 668 604.5 657.5Q594 647 579 647Q559 647 553.0 658.0Q547 669 543.5 682.5Q540 696 533.5 707.5Q527 719 508 719Q493 719 482.5 708.5Q472 698 472 683V582Q440 593 420.0 620.5Q400 648 400 683Q400 705 408.5 725.0Q417 745 431.5 759.5Q446 774 465.5 782.5Q485 791 508 791ZM508 575Q530 575 550.0 566.5Q570 558 584.0 543.0Q598 528 606.5 508.5Q615 489 615 467Q615 453 604.0 442.0Q593 431 579 431Q559 431 553.0 442.0Q547 453 543.5 466.5Q540 480 533.5 491.5Q527 503 508 503Q493 503 482.5 492.5Q472 482 472 467V366Q440 377 420.0 405.0Q400 433 400 467Q400 489 408.5 509.0Q417 529 431.5 543.5Q446 558 465.5 566.5Q485 575 508 575ZM508 1438Q530 1438 549.5 1429.5Q569 1421 583.5 1406.0Q598 1391 606.5 1371.5Q615 1352 615 1330Q615 1315 604.5 1304.5Q594 1294 579 1294Q559 1294 553.0 1305.0Q547 1316 543.5 1329.5Q540 1343 533.5 1354.5Q527 1366 508 1366Q493 1366 482.5 1355.5Q472 1345 472 1330V1229Q440 1240 420.0 1267.5Q400 1295 400 1330Q400 1352 408.5 1371.5Q417 1391 432.0 1406.0Q447 1421 466.5 1429.5Q486 1438 508 1438ZM472 1444Q440 1455 420.0 1483.0Q400 1511 400 1546Q400 1568 408.5 1588.0Q417 1608 432.0 1622.0Q447 1636 466.5 1644.5Q486 1653 508 1653Q530 1653 549.5 1644.5Q569 1636 583.5 1621.5Q598 1607 606.5 1587.5Q615 1568 615 1546Q615 1531 604.5 1520.5Q594 1510 579 1510Q559 1510 553.0 1521.0Q547 1532 543.5 1545.5Q540 1559 533.5 1570.0Q527 1581 508 1581Q494 1581 483.0 1570.5Q472 1560 472 1546ZM508 360Q530 360 549.5 351.5Q569 343 583.5 328.0Q598 313 606.5 293.5Q615 274 615 252Q615 237 604.5 226.5Q594 216 579 216Q559 216 553.0 227.0Q547 238 543.5 251.5Q540 265 533.5 276.5Q527 288 508 288Q493 288 482.5 277.5Q472 267 472 252V151Q440 162 420.0 190.0Q400 218 400 252Q400 274 408.5 293.5Q417 313 432.0 328.0Q447 343 466.5 351.5Q486 360 508 360ZM508 1006Q530 1006 549.5 997.5Q569 989 583.5 974.5Q598 960 606.5 940.5Q615 921 615 899Q615 884 604.5 873.5Q594 863 579 863Q559 863 553.0 874.0Q547 885 543.5 898.5Q540 912 533.5 923.5Q527 935 508 935Q494 935 483.0 924.0Q472 913 472 899V797Q440 808 420.0 836.0Q400 864 400 899Q400 921 408.5 941.0Q417 961 432.0 975.0Q447 989 466.5 997.5Q486 1006 508 1006Z" style="fill:#cccccc;stroke:none" transform="scale(1,-1) translate(0,-256)" /></svg>