<?xml version="1.0" encoding="utf-8" ?>
<svg baseProfile="full" height="256" version="1.1" width="256" xmlns="http://www.w3.org/2000/svg" xmlns:ev="http://www.w3.org/2001/xml-events" xmlns:xlink="http://www.w3.org/1999/xlink"><defs /><path d="M1981 1222Q2026 1222 2065.0 1205.0Q2104 1188 2133.5 1158.5Q2163 1129 2180.0 1090.0Q2197 1051 2197 1006V431Q2197 386 2180.0 347.0Q2163 308 2133.5 279.0Q2104 250 2065.0 233.0Q2026 216 1981 216H831Q786 216 747.0 233.0Q708 250 678.5 279.0Q649 308 632.0 347.0Q615 386 615 431V1006Q615 1051 632.0 1090.0Q649 1129 678.5 1158.5Q708 1188 747.0 1205.0Q786 1222 831 1222ZM1047 288H1765V1150H1047ZM2125 431V1006Q2125 1036 2113.5 1062.0Q2102 1088 2082.5 1107.5Q2063 1127 2037.0 1138.5Q2011 1150 1981 1150H1837V288H1981Q2011 288 2037.0 299.0Q2063 310 2082.5 329.5Q2102 349 2113.5 375.0Q2125 401 2125 431ZM831 288H975V1150H831Q801 1150 775.0 1138.5Q749 1127 729.5 1107.5Q710 1088 698.5 1062.0Q687 1036 687 1006V431Q687 401 698.5 375.0Q710 349 729.5 329.5Q749 310 775.0 299.0Q801 288 831 288Z" style="fill:#f03a17;stroke:none" transform="scale(1,-1) translate(0,-256)" /></svg>