<?xml version="1.0" encoding="utf-8" ?>
<svg baseProfile="full" height="256" version="1.1" width="256" xmlns="http://www.w3.org/2000/svg" xmlns:ev="http://www.w3.org/2001/xml-events" xmlns:xlink="http://www.w3.org/1999/xlink"><defs /><path d="M1622 1006Q1651 1006 1672.0 985.0Q1693 964 1693 935V791Q1693 762 1672.0 740.5Q1651 719 1622 719H1190Q1161 719 1139.5 740.5Q1118 762 1118 791V935Q1118 964 1139.5 985.0Q1161 1006 1190 1006ZM1981 1006Q2010 1006 2031.5 985.0Q2053 964 2053 935V503Q2053 474 2031.5 452.5Q2010 431 1981 431Q1952 431 1930.5 452.5Q1909 474 1909 503V935Q1909 964 1930.5 985.0Q1952 1006 1981 1006ZM831 1006Q860 1006 881.5 985.0Q903 964 903 935V503Q903 474 881.5 452.5Q860 431 831 431Q802 431 780.5 452.5Q759 474 759 503V935Q759 964 780.5 985.0Q802 1006 831 1006ZM1550 575Q1579 575 1600.5 553.5Q1622 532 1622 503Q1622 474 1600.5 452.5Q1579 431 1550 431H1262Q1233 431 1211.5 452.5Q1190 474 1190 503Q1190 533 1211.0 554.0Q1232 575 1262 575Z" style="fill:#d48c00;stroke:none" transform="scale(1,-1) translate(0,-256)" /></svg>