<?xml version="1.0" encoding="utf-8" ?>
<svg baseProfile="full" height="256" version="1.1" width="256" xmlns="http://www.w3.org/2000/svg" xmlns:ev="http://www.w3.org/2001/xml-events" xmlns:xlink="http://www.w3.org/1999/xlink"><defs /><path d="M2197 1366Q2197 1321 2214.0 1282.0Q2231 1243 2260.0 1213.5Q2289 1184 2328.0 1167.0Q2367 1150 2412 1150V288Q2367 288 2328.0 271.0Q2289 254 2260.0 224.5Q2231 195 2214.0 156.0Q2197 117 2197 72H615Q615 117 598.0 156.0Q581 195 552.0 224.5Q523 254 484.0 271.0Q445 288 400 288V1150Q445 1150 484.0 1167.0Q523 1184 552.0 1213.5Q581 1243 598.0 1282.0Q615 1321 615 1366Z" style="fill:#ffc83d;stroke:none" transform="scale(1,-1) translate(0,-256)" /></svg>