<?xml version="1.0" encoding="utf-8" ?>
<svg baseProfile="full" height="256" version="1.1" width="256" xmlns="http://www.w3.org/2000/svg" xmlns:ev="http://www.w3.org/2001/xml-events" xmlns:xlink="http://www.w3.org/1999/xlink"><defs /><path d="M472 -72V9Q472 56 468.5 83.0Q465 110 452.0 123.5Q439 137 412.0 140.5Q385 144 339 144H256V1294H337Q384 1294 411.0 1297.5Q438 1301 451.5 1314.0Q465 1327 468.5 1353.5Q472 1380 472 1427V1510H2340V1429Q2340 1382 2343.5 1355.0Q2347 1328 2360.0 1314.5Q2373 1301 2399.5 1297.5Q2426 1294 2473 1294H2556V144H2475Q2428 144 2401.0 140.5Q2374 137 2360.5 124.0Q2347 111 2343.5 84.0Q2340 57 2340 11V-72Z" style="fill:#000000;stroke:none" transform="scale(1,-1) translate(0,-256)" /></svg>