<?xml version="1.0" encoding="utf-8" ?>
<svg baseProfile="full" height="256" version="1.1" width="256" xmlns="http://www.w3.org/2000/svg" xmlns:ev="http://www.w3.org/2001/xml-events" xmlns:xlink="http://www.w3.org/1999/xlink"><defs /><path d="M1406 1725Q1545 1725 1673.5 1689.0Q1802 1653 1914.0 1587.5Q2026 1522 2117.5 1430.5Q2209 1339 2274.5 1227.0Q2340 1115 2376.0 986.5Q2412 858 2412 719Q2412 580 2376.0 451.5Q2340 323 2274.5 211.0Q2209 99 2117.5 7.5Q2026 -84 1914.0 -149.5Q1802 -215 1673.5 -251.0Q1545 -287 1406 -287Q1267 -287 1138.5 -251.0Q1010 -215 898.0 -149.5Q786 -84 694.5 7.5Q603 99 537.5 211.0Q472 323 436.0 451.5Q400 580 400 719Q400 858 436.0 986.5Q472 1115 537.5 1227.0Q603 1339 694.5 1430.5Q786 1522 898.0 1587.5Q1010 1653 1138.5 1689.0Q1267 1725 1406 1725ZM543 719Q543 600 574.0 490.0Q605 380 661.0 284.0Q717 188 796.0 109.0Q875 30 971.0 -26.0Q1067 -82 1177.0 -113.0Q1287 -144 1406 -144Q1561 -144 1703.0 -92.0Q1845 -40 1963 60L747 1276Q647 1158 595.0 1016.0Q543 874 543 719ZM2065 162Q2165 280 2216.5 422.0Q2268 564 2268 719Q2268 838 2237.0 948.0Q2206 1058 2150.0 1154.0Q2094 1250 2015.5 1328.5Q1937 1407 1841.0 1463.0Q1745 1519 1635.0 1550.0Q1525 1581 1406 1581Q1251 1581 1109.0 1529.5Q967 1478 849 1378Z" style="fill:#f03a17;stroke:none" transform="scale(1,-1) translate(0,-256)" /></svg>