<?xml version="1.0" encoding="utf-8" ?>
<svg baseProfile="full" height="256" version="1.1" width="256" xmlns="http://www.w3.org/2000/svg" xmlns:ev="http://www.w3.org/2001/xml-events" xmlns:xlink="http://www.w3.org/1999/xlink"><defs /><path d="M1349 511Q1349 555 1360.5 596.0Q1372 637 1394.5 672.0Q1417 707 1450.0 734.0Q1483 761 1525 776Q1494 793 1468.0 816.0Q1442 839 1423.0 867.0Q1404 895 1393.0 927.5Q1382 960 1382 996Q1382 1058 1408.0 1106.0Q1434 1154 1476.0 1186.5Q1518 1219 1572.0 1236.0Q1626 1253 1683 1253Q1740 1253 1794.0 1236.0Q1848 1219 1890.0 1186.5Q1932 1154 1958.0 1106.0Q1984 1058 1984 996Q1984 960 1973.0 927.5Q1962 895 1943.5 867.0Q1925 839 1899.0 816.0Q1873 793 1843 776Q1930 743 1975.0 672.5Q2020 602 2020 511Q2020 439 1993.0 383.5Q1966 328 1920.0 290.5Q1874 253 1813.0 233.5Q1752 214 1685 214Q1618 214 1557.5 233.5Q1497 253 1450.5 291.0Q1404 329 1376.5 384.0Q1349 439 1349 511ZM1160 1259V230H997V1060Q951 1024 897.0 1002.5Q843 981 786 967V1106Q868 1133 944.5 1170.5Q1021 1208 1091 1259ZM1508 525Q1508 484 1520.0 450.0Q1532 416 1554.5 391.5Q1577 367 1610.0 353.5Q1643 340 1685 340Q1726 340 1758.5 354.0Q1791 368 1814.0 392.5Q1837 417 1849.5 451.0Q1862 485 1862 525Q1862 564 1849.0 597.5Q1836 631 1813.0 656.5Q1790 682 1757.5 696.5Q1725 711 1685 711Q1645 711 1612.5 696.5Q1580 682 1556.5 657.0Q1533 632 1520.5 598.0Q1508 564 1508 525ZM1542 979Q1542 950 1553.0 923.0Q1564 896 1583.0 875.5Q1602 855 1628.0 843.0Q1654 831 1684 831Q1714 831 1740.0 843.0Q1766 855 1784.5 875.5Q1803 896 1814.0 923.0Q1825 950 1825 979Q1825 1009 1814.5 1036.5Q1804 1064 1785.5 1084.0Q1767 1104 1741.0 1116.0Q1715 1128 1684 1128Q1652 1128 1626.0 1116.0Q1600 1104 1581.5 1084.0Q1563 1064 1552.5 1037.0Q1542 1010 1542 979Z" style="fill:#000000;stroke:none" transform="scale(1,-1) translate(0,-256)" /></svg>