<?xml version="1.0" encoding="utf-8" ?>
<svg baseProfile="full" height="256" version="1.1" width="256" xmlns="http://www.w3.org/2000/svg" xmlns:ev="http://www.w3.org/2001/xml-events" xmlns:xlink="http://www.w3.org/1999/xlink"><defs /><path d="M2340 1294Q2340 1218 2319.5 1145.0Q2299 1072 2261 1006H2556V-287H2306L2120 -194Q2111 -245 2085.0 -288.5Q2059 -332 2021.0 -363.5Q1983 -395 1936.0 -413.0Q1889 -431 1837 -431H831Q772 -431 720.0 -408.0Q668 -385 628.5 -346.0Q589 -307 566.0 -255.0Q543 -203 543 -144V216H256V935H453Q392 1011 360.0 1103.5Q328 1196 328 1294Q328 1412 373.5 1517.0Q419 1622 497.0 1700.0Q575 1778 679.5 1823.5Q784 1869 903 1869Q1028 1869 1140.0 1818.5Q1252 1768 1334 1674Q1419 1768 1528.5 1818.5Q1638 1869 1765 1869Q1883 1869 1988.0 1823.5Q2093 1778 2171.0 1700.0Q2249 1622 2294.5 1517.0Q2340 1412 2340 1294Z" style="fill:#000000;stroke:none" transform="scale(1,-1) translate(0,-256)" /></svg>