<?xml version="1.0" encoding="utf-8" ?>
<svg baseProfile="full" height="256" version="1.1" width="256" xmlns="http://www.w3.org/2000/svg" xmlns:ev="http://www.w3.org/2001/xml-events" xmlns:xlink="http://www.w3.org/1999/xlink"><defs /><path d="M2053 719 2340 863Q2341 858 2347.5 839.0Q2354 820 2361.5 800.0Q2369 780 2374.5 763.5Q2380 747 2380 747V-45L2340 -144L2053 0L2013 83V86Q2002 59 1990.5 31.5Q1979 4 1979 -25Q1979 -55 1980.0 -84.5Q1981 -114 1981 -144Q1981 -174 1969.5 -200.0Q1958 -226 1938.5 -245.5Q1919 -265 1893.0 -276.0Q1867 -287 1837 -287L1753 -217H917L831 -287Q801 -287 775.0 -276.0Q749 -265 729.5 -245.5Q710 -226 698.5 -200.0Q687 -174 687 -144V719Q687 749 698.5 775.0Q710 801 729.5 820.5Q749 840 775.0 851.5Q801 863 831 863H903Q814 863 735.5 897.0Q657 931 598.5 989.5Q540 1048 506.0 1126.5Q472 1205 472 1294Q472 1383 506.0 1461.5Q540 1540 598.5 1598.5Q657 1657 735.5 1691.0Q814 1725 903 1725Q992 1725 1070.5 1691.0Q1149 1657 1207.5 1598.5Q1266 1540 1300.0 1461.5Q1334 1383 1334 1294Q1334 1383 1368.0 1461.5Q1402 1540 1460.5 1598.5Q1519 1657 1597.5 1691.0Q1676 1725 1765 1725Q1854 1725 1932.5 1691.0Q2011 1657 2070.0 1598.5Q2129 1540 2163.0 1461.5Q2197 1383 2197 1294Q2197 1205 2163.0 1126.5Q2129 1048 2070.0 989.5Q2011 931 1932.5 897.0Q1854 863 1765 863H1837Q1889 863 1926.0 832.0Q1963 801 1977 752Q1979 744 1979.0 735.5Q1979 727 1981 719Q1986 693 1995.5 666.5Q2005 640 2013 614V619ZM400 791H472L543 719L593 575L543 431L472 360H400Z" style="fill:#383838;stroke:none" transform="scale(1,-1) translate(0,-256)" /></svg>