<?xml version="1.0" encoding="utf-8" ?>
<svg baseProfile="full" height="256" version="1.1" width="256" xmlns="http://www.w3.org/2000/svg" xmlns:ev="http://www.w3.org/2001/xml-events" xmlns:xlink="http://www.w3.org/1999/xlink"><defs /><path d="M2423 299 2324 0H2340V-431H472Q427 -431 388.0 -414.0Q349 -397 319.5 -367.5Q290 -338 273.0 -299.0Q256 -260 256 -215V647Q256 681 266.5 713.0Q277 745 296.0 771.5Q315 798 341.5 818.5Q368 839 400 851V1078Q400 1187 428.0 1288.0Q456 1389 507.5 1477.0Q559 1565 631.5 1637.0Q704 1709 791.5 1760.5Q879 1812 980.0 1840.5Q1081 1869 1190 1869Q1299 1869 1400.0 1840.5Q1501 1812 1589.0 1760.5Q1677 1709 1749.0 1637.0Q1821 1565 1872.5 1477.0Q1924 1389 1952.5 1288.0Q1981 1187 1981 1078V1039Q2023 1031 2049.5 1009.0Q2076 987 2099 954Q2107 943 2110.0 931.0Q2113 919 2119 908Z" style="fill:#000000;stroke:none" transform="scale(1,-1) translate(0,-256)" /></svg>