<?xml version="1.0" encoding="utf-8" ?>
<svg baseProfile="full" height="256" version="1.1" width="256" xmlns="http://www.w3.org/2000/svg" xmlns:ev="http://www.w3.org/2001/xml-events" xmlns:xlink="http://www.w3.org/1999/xlink"><defs /><path d="M1981 354Q2013 343 2033.0 315.0Q2053 287 2053 252Q2053 230 2044.5 210.5Q2036 191 2021.0 176.0Q2006 161 1986.5 152.5Q1967 144 1945 144Q1922 144 1902.5 152.5Q1883 161 1868.5 175.5Q1854 190 1845.5 209.5Q1837 229 1837 252Q1837 287 1857.0 315.0Q1877 343 1909 354V863Q1909 878 1919.5 888.5Q1930 899 1945 899Q1960 899 1970.5 888.5Q1981 878 1981 863Z" style="fill:#757575;stroke:none" transform="scale(1,-1) translate(0,-256)" /></svg>