<?xml version="1.0" encoding="utf-8" ?>
<svg baseProfile="full" height="256" version="1.1" width="256" xmlns="http://www.w3.org/2000/svg" xmlns:ev="http://www.w3.org/2001/xml-events" xmlns:xlink="http://www.w3.org/1999/xlink"><defs /><path d="M1550 1114Q1550 1099 1539.5 1088.5Q1529 1078 1514 1078Q1499 1078 1488.5 1088.5Q1478 1099 1478 1114Q1478 1129 1488.5 1139.5Q1499 1150 1514 1150Q1529 1150 1539.5 1139.5Q1550 1129 1550 1114ZM1334 1114Q1334 1099 1323.5 1088.5Q1313 1078 1298 1078Q1283 1078 1272.5 1088.5Q1262 1099 1262 1114Q1262 1129 1272.5 1139.5Q1283 1150 1298 1150Q1313 1150 1323.5 1139.5Q1334 1129 1334 1114Z" style="fill:#000000;stroke:none" transform="scale(1,-1) translate(0,-256)" /></svg>