<?xml version="1.0" encoding="utf-8" ?>
<svg baseProfile="full" height="256" version="1.1" width="256" xmlns="http://www.w3.org/2000/svg" xmlns:ev="http://www.w3.org/2001/xml-events" xmlns:xlink="http://www.w3.org/1999/xlink"><defs /><path d="M2161 719Q2176 719 2186.0 708.5Q2196 698 2196 683Q2196 660 2174 650Q2171 649 2156.5 643.0Q2142 637 2121.5 628.5Q2101 620 2077.5 611.0Q2054 602 2034.0 594.0Q2014 586 1999.5 580.5Q1985 575 1983 575H1622V503H1873Q1889 503 1899 493L2042 349Q2052 339 2052 323Q2052 309 2041.5 298.0Q2031 287 2017 287Q2002 287 1991 298L1858 431H1622V360H1765Q1780 360 1791 349L1863 277Q1873 267 1873 252Q1873 237 1862.5 226.5Q1852 216 1837 216Q1826 216 1814.0 224.5Q1802 233 1790.0 245.0Q1778 257 1767.5 269.0Q1757 281 1750 288H1579Q1592 286 1601.5 276.0Q1611 266 1611 252Q1611 234 1604.0 211.5Q1597 189 1592 171Q1585 146 1562 144Q1569 143 1575.0 139.0Q1581 135 1581 126Q1581 117 1577.0 106.0Q1573 95 1571 86Q1569 77 1563.0 74.5Q1557 72 1549 72Q1555 71 1559.5 66.5Q1564 62 1564 56Q1564 44 1559.0 11.5Q1554 -21 1548.0 -58.5Q1542 -96 1536.0 -130.5Q1530 -165 1527 -180Q1519 -226 1486.5 -256.5Q1454 -287 1406 -287Q1358 -287 1325.5 -257.0Q1293 -227 1285 -180Q1282 -164 1276.0 -130.0Q1270 -96 1264.0 -58.5Q1258 -21 1253.0 11.5Q1248 44 1248 56Q1248 62 1252.5 66.5Q1257 71 1263 72Q1255 72 1249.0 74.5Q1243 77 1241 86Q1239 95 1235.0 106.0Q1231 117 1231 126Q1231 135 1236.5 139.0Q1242 143 1250 144Q1239 145 1230.0 152.5Q1221 160 1219 171Q1214 188 1207.0 211.0Q1200 234 1200 251Q1200 265 1209.5 275.5Q1219 286 1233 288H1061Q1054 281 1043.5 269.0Q1033 257 1021.5 245.0Q1010 233 997.5 224.5Q985 216 975 216Q960 216 949.5 226.5Q939 237 939 252Q939 267 949 277L1021 349Q1032 360 1047 360H1190V431H954L820 298Q810 288 795 288Q780 288 769.5 298.5Q759 309 759 324Q759 338 770 349L913 493Q923 503 939 503H1190V575H831Q827 575 812.5 580.0Q798 585 778.0 593.0Q758 601 735.0 610.5Q712 620 691.5 628.0Q671 636 656.5 642.0Q642 648 638 650Q615 660 615 683Q615 697 625.5 708.0Q636 719 651 719Q657 719 683.5 709.0Q710 699 741.0 686.5Q772 674 800.0 662.5Q828 651 838 647H1190V719H867Q851 719 841 729L698 873Q687 884 687 898Q687 913 698.0 923.5Q709 934 723 934Q739 934 749 924L882 791H1190V995Q1190 1052 1208.5 1101.0Q1227 1150 1262 1195V1486Q1262 1520 1249.0 1550.5Q1236 1581 1213.0 1604.0Q1190 1627 1159.5 1640.0Q1129 1653 1095 1653Q1060 1653 1035.5 1641.5Q1011 1630 993.5 1616.5Q976 1603 963.0 1592.0Q950 1581 938 1581Q924 1581 913.0 1592.0Q902 1603 902 1617Q902 1631 909.5 1639.0Q917 1647 926 1655Q962 1689 1003.0 1707.0Q1044 1725 1095 1725Q1144 1725 1188.0 1706.0Q1232 1687 1264.0 1655.0Q1296 1623 1315.0 1579.0Q1334 1535 1334 1486V1259Q1351 1270 1369.0 1278.5Q1387 1287 1406 1294Q1425 1287 1443.0 1278.5Q1461 1270 1478 1259V1486Q1478 1535 1497.0 1579.0Q1516 1623 1548.0 1655.0Q1580 1687 1623.5 1706.0Q1667 1725 1717 1725Q1770 1725 1817.0 1703.0Q1864 1681 1899 1643Q1909 1633 1909 1617Q1909 1603 1898.5 1592.0Q1888 1581 1873 1581Q1862 1581 1849.0 1592.0Q1836 1603 1818.5 1616.5Q1801 1630 1776.5 1641.5Q1752 1653 1717 1653Q1682 1653 1652.0 1640.0Q1622 1627 1599.0 1604.0Q1576 1581 1563.0 1550.5Q1550 1520 1550 1486V1195Q1585 1153 1603.5 1101.5Q1622 1050 1622 995V791H1930L2063 924Q2073 934 2088 934Q2103 934 2113.5 923.5Q2124 913 2124 898Q2124 883 2114 873L1970 729Q1960 719 1945 719H1622V647H1974Q1984 651 2012.0 662.5Q2040 674 2071.0 686.5Q2102 699 2128.5 709.0Q2155 719 2161 719ZM903 1186Q903 1149 889.0 1116.0Q875 1083 850.5 1058.5Q826 1034 793.0 1020.0Q760 1006 723 1006Q656 1006 597.5 1031.5Q539 1057 495.0 1101.0Q451 1145 425.5 1204.0Q400 1263 400 1330V1493Q400 1540 415.0 1582.0Q430 1624 458.0 1656.0Q486 1688 526.0 1706.5Q566 1725 615 1725V1474Q615 1452 623.5 1432.5Q632 1413 647.0 1398.0Q662 1383 681.5 1374.5Q701 1366 723 1366Q760 1366 793.0 1352.0Q826 1338 850.5 1313.5Q875 1289 889.0 1256.0Q903 1223 903 1186ZM2197 1725Q2246 1725 2286.0 1706.5Q2326 1688 2354.0 1656.0Q2382 1624 2397.0 1582.0Q2412 1540 2412 1493V1330Q2412 1263 2386.5 1204.0Q2361 1145 2317.0 1101.0Q2273 1057 2214.5 1031.5Q2156 1006 2089 1006Q2052 1006 2019.0 1020.0Q1986 1034 1961.5 1058.5Q1937 1083 1923.0 1116.0Q1909 1149 1909 1186Q1909 1223 1923.0 1256.0Q1937 1289 1961.5 1313.5Q1986 1338 2019.0 1352.0Q2052 1366 2089 1366Q2111 1366 2130.5 1374.5Q2150 1383 2165.0 1398.0Q2180 1413 2188.5 1432.5Q2197 1452 2197 1474Z" style="fill:#e81224;stroke:none" transform="scale(1,-1) translate(0,-256)" /></svg>