<?xml version="1.0" encoding="utf-8" ?>
<svg baseProfile="full" height="256" version="1.1" width="256" xmlns="http://www.w3.org/2000/svg" xmlns:ev="http://www.w3.org/2001/xml-events" xmlns:xlink="http://www.w3.org/1999/xlink"><defs /><path d="M1909 1186V1438Q1909 1468 1920.5 1494.0Q1932 1520 1951.5 1539.5Q1971 1559 1997.0 1570.0Q2023 1581 2053 1581V1222L2140 1135L1888 884Q1867 863 1837 863H1550V1006H1807L1987 1186ZM903 1186H825L1004 1006H1262V863H975Q945 863 924 884L672 1135L759 1222V1581Q789 1581 815.0 1570.0Q841 1559 860.5 1539.5Q880 1520 891.5 1494.0Q903 1468 903 1438ZM1478 144 1740 -118Q1765 -143 1765 -180Q1765 -197 1758.5 -213.0Q1752 -229 1740 -241Q1726 -255 1716.5 -263.5Q1707 -272 1697.5 -277.5Q1688 -283 1675.5 -285.0Q1663 -287 1644 -287Q1633 -287 1623.0 -285.0Q1613 -283 1603 -278L1406 -179ZM1298 108 1406 -179 1209 -278Q1199 -283 1189.0 -285.0Q1179 -287 1168 -287Q1149 -287 1136.5 -285.0Q1124 -283 1114.5 -277.5Q1105 -272 1095.0 -263.5Q1085 -255 1072 -241Q1060 -229 1053.0 -213.0Q1046 -197 1046 -180Q1046 -163 1053.0 -146.5Q1060 -130 1072 -118Z" style="fill:#af0d1a;stroke:none" transform="scale(1,-1) translate(0,-256)" /></svg>