<?xml version="1.0" encoding="utf-8" ?>
<svg baseProfile="full" height="256" version="1.1" width="256" xmlns="http://www.w3.org/2000/svg" xmlns:ev="http://www.w3.org/2001/xml-events" xmlns:xlink="http://www.w3.org/1999/xlink"><defs /><path d="M2053 1869H2197Q2276 1869 2342.0 1839.0Q2408 1809 2455.5 1758.0Q2503 1707 2529.5 1638.5Q2556 1570 2556 1493V1330Q2556 1259 2535.5 1193.0Q2515 1127 2477.5 1071.0Q2440 1015 2386.5 970.5Q2333 926 2268 899Q2268 882 2265.5 866.0Q2263 850 2257 835Q2296 810 2318.0 770.0Q2340 730 2340 683Q2340 636 2324.0 604.0Q2308 572 2281.5 550.5Q2255 529 2220.5 514.0Q2186 499 2149 485L2121 474Q2155 441 2176.0 408.0Q2197 375 2197 326Q2197 289 2183.0 256.0Q2169 223 2145.0 198.0Q2121 173 2088.5 158.5Q2056 144 2019 144Q2001 144 1983 147Q1957 112 1919.0 92.0Q1881 72 1837 72Q1773 72 1724 112Q1724 110 1723.5 107.0Q1723 104 1723 102L1842 -17Q1874 -49 1891.5 -91.5Q1909 -134 1909 -180Q1909 -228 1888.0 -273.5Q1867 -319 1832.0 -354.0Q1797 -389 1752.0 -410.0Q1707 -431 1658 -431Q1637 -431 1621.5 -430.0Q1606 -429 1591.5 -425.5Q1577 -422 1562.0 -416.0Q1547 -410 1528 -401Q1471 -431 1406 -431Q1374 -431 1343.5 -423.0Q1313 -415 1284 -401Q1266 -410 1251.0 -416.0Q1236 -422 1221.5 -425.5Q1207 -429 1191.0 -430.0Q1175 -431 1154 -431Q1105 -431 1059.5 -410.0Q1014 -389 979.0 -354.0Q944 -319 923.0 -274.0Q902 -229 902 -180Q902 -134 920.0 -91.5Q938 -49 970 -17L1089 102Q1089 104 1088.5 107.0Q1088 110 1088 112Q1064 92 1034.5 82.0Q1005 72 974 72Q931 72 892.5 92.0Q854 112 829 147Q811 144 793 144Q755 144 722.5 158.5Q690 173 666.0 198.0Q642 223 628.5 256.0Q615 289 615 326Q615 375 636.0 408.0Q657 441 691 474L663 485Q626 499 591.5 514.0Q557 529 530.5 551.0Q504 573 488.0 604.5Q472 636 472 684Q472 730 494.0 770.0Q516 810 555 835Q549 850 546.5 866.0Q544 882 544 899Q479 926 425.5 970.5Q372 1015 334.5 1071.0Q297 1127 276.5 1193.0Q256 1259 256 1330V1493Q256 1570 282.5 1638.5Q309 1707 356.5 1758.0Q404 1809 470.0 1839.0Q536 1869 615 1869H759V1725L793 1723Q847 1792 927.0 1830.5Q1007 1869 1094 1869Q1187 1869 1269.5 1827.0Q1352 1785 1406 1709Q1460 1785 1542.0 1827.0Q1624 1869 1717 1869Q1759 1869 1802.0 1859.0Q1845 1849 1884.5 1830.5Q1924 1812 1958.5 1784.5Q1993 1757 2018 1723L2053 1725Z" style="fill:#000000;stroke:none" transform="scale(1,-1) translate(0,-256)" /></svg>