<?xml version="1.0" encoding="utf-8" ?>
<svg baseProfile="full" height="256" version="1.1" width="256" xmlns="http://www.w3.org/2000/svg" xmlns:ev="http://www.w3.org/2001/xml-events" xmlns:xlink="http://www.w3.org/1999/xlink"><defs /><path d="M1478 360Q1478 335 1477.0 315.0Q1476 295 1474.0 276.0Q1472 257 1470.0 237.0Q1468 217 1467 192L1444 -144Q1443 -159 1432.0 -169.0Q1421 -179 1406 -179Q1391 -179 1380.0 -169.0Q1369 -159 1368 -144L1345 192Q1343 217 1341.5 237.0Q1340 257 1338.0 276.0Q1336 295 1335.0 315.0Q1334 335 1334 360V983Q1334 1005 1339.0 1022.0Q1344 1039 1353.0 1053.5Q1362 1068 1374.5 1081.5Q1387 1095 1401 1109L1406 1114L1411 1109Q1425 1095 1437.5 1081.5Q1450 1068 1459.0 1053.5Q1468 1039 1473.0 1022.0Q1478 1005 1478 983Z" style="fill:#e84757;stroke:none" transform="scale(1,-1) translate(0,-256)" /></svg>