<?xml version="1.0" encoding="utf-8" ?>
<svg baseProfile="full" height="256" version="1.1" width="256" xmlns="http://www.w3.org/2000/svg" xmlns:ev="http://www.w3.org/2001/xml-events" xmlns:xlink="http://www.w3.org/1999/xlink"><defs /><path d="M1441 272Q1375 239 1303.5 226.0Q1232 213 1159 213Q1047 213 957.5 250.0Q868 287 805.5 353.5Q743 420 709.5 512.0Q676 604 676 714Q676 831 713.5 929.5Q751 1028 819.0 1100.0Q887 1172 983.5 1212.5Q1080 1253 1199 1253Q1261 1253 1322.5 1244.5Q1384 1236 1441 1212V1046Q1390 1077 1333.5 1092.0Q1277 1107 1217 1107Q1132 1107 1064.0 1078.0Q996 1049 948.5 998.0Q901 947 875.5 876.5Q850 806 850 723Q850 643 873.0 576.5Q896 510 940.0 461.5Q984 413 1048.0 386.0Q1112 359 1194 359Q1260 359 1323.0 374.5Q1386 390 1441 426ZM2176 230H1618V1236H1785V371H2176Z" style="fill:#ffffff;stroke:none" transform="scale(1,-1) translate(0,-256)" /></svg>