<?xml version="1.0" encoding="utf-8" ?>
<svg baseProfile="full" height="256" version="1.1" width="256" xmlns="http://www.w3.org/2000/svg" xmlns:ev="http://www.w3.org/2001/xml-events" xmlns:xlink="http://www.w3.org/1999/xlink"><defs /><path d="M1118 1078Q1118 1074 1128.0 1043.0Q1138 1012 1154.0 966.5Q1170 921 1189.0 867.5Q1208 814 1225.0 764.5Q1242 715 1255.5 677.0Q1269 639 1273 624L1650 447Q1697 425 1746.0 406.0Q1795 387 1838 358Q1873 334 1900.5 301.5Q1928 269 1958 239L2197 0H1909L1765 144H867Q807 144 750.5 158.5Q694 173 643.0 200.5Q592 228 549.0 268.0Q506 308 474 358L569 606L474 863L687 1294L642 1474L687 1653Q718 1687 759.5 1706.0Q801 1725 847 1725H1334Q1334 1684 1306 1653L1118 1445Z" style="fill:#f03a17;stroke:none" transform="scale(1,-1) translate(0,-256)" /></svg>