<?xml version="1.0" encoding="utf-8" ?>
<svg baseProfile="full" height="256" version="1.1" width="256" xmlns="http://www.w3.org/2000/svg" xmlns:ev="http://www.w3.org/2001/xml-events" xmlns:xlink="http://www.w3.org/1999/xlink"><defs /><path d="M1262 1390V1138L2556 -144H1850L1706 0H1344L1289 -96Q1327 -116 1350.0 -140.5Q1373 -165 1386.0 -195.0Q1399 -225 1403.0 -259.5Q1407 -294 1407 -333Q1407 -358 1406.5 -382.0Q1406 -406 1406 -431H400V-287Q400 -242 417.0 -203.0Q434 -164 463.0 -135.0Q492 -106 531.0 -89.0Q570 -72 615 -72H686L735 14Q630 37 542.5 93.0Q455 149 391.0 228.5Q327 308 291.5 406.0Q256 504 256 611Q256 662 261.5 702.5Q267 743 278.5 779.5Q290 816 307.5 853.0Q325 890 348 933Q377 987 403.0 1041.5Q429 1096 456 1150H256Q256 1176 255.0 1201.0Q254 1226 254 1252Q254 1284 256.5 1311.5Q259 1339 266.5 1364.5Q274 1390 287.0 1414.0Q300 1438 321 1463Q384 1537 449.0 1608.5Q514 1680 581 1750Q635 1807 701.0 1838.0Q767 1869 847 1869H1478V1725Q1478 1677 1461.0 1635.0Q1444 1593 1412 1557Z" style="fill:#000000;stroke:none" transform="scale(1,-1) translate(0,-256)" /></svg>