<?xml version="1.0" encoding="utf-8" ?>
<svg baseProfile="full" height="256" version="1.1" width="256" xmlns="http://www.w3.org/2000/svg" xmlns:ev="http://www.w3.org/2001/xml-events" xmlns:xlink="http://www.w3.org/1999/xlink"><defs /><path d="M1118 791Q1148 791 1169.0 770.0Q1190 749 1190 719Q1190 689 1169.0 668.0Q1148 647 1118 647Q1088 647 1067.0 668.0Q1046 689 1046 719Q1046 749 1067.0 770.0Q1088 791 1118 791ZM1622 -144Q1651 -144 1672.5 -165.0Q1694 -186 1694 -215Q1694 -245 1673.0 -266.0Q1652 -287 1622 -287Q1592 -287 1571.0 -266.0Q1550 -245 1550 -215Q1550 -186 1571.5 -165.0Q1593 -144 1622 -144Z" style="fill:#fff100;stroke:none" transform="scale(1,-1) translate(0,-256)" /></svg>