<?xml version="1.0" encoding="utf-8" ?>
<svg baseProfile="full" height="256" version="1.1" width="256" xmlns="http://www.w3.org/2000/svg" xmlns:ev="http://www.w3.org/2001/xml-events" xmlns:xlink="http://www.w3.org/1999/xlink"><defs /><path d="M1838 -144V-215Q1838 -260 1821.0 -299.0Q1804 -338 1774.5 -367.5Q1745 -397 1706.0 -414.0Q1667 -431 1622 -431Q1577 -431 1538.0 -414.0Q1499 -397 1469.5 -367.5Q1440 -338 1423.0 -299.0Q1406 -260 1406 -215V-144H1334V-251Q1334 -289 1320.0 -321.5Q1306 -354 1281.5 -378.5Q1257 -403 1224.0 -417.0Q1191 -431 1154 -431Q1122 -431 1092.5 -420.0Q1063 -409 1039.5 -389.5Q1016 -370 999.5 -343.5Q983 -317 977 -285Q930 -279 890.0 -257.0Q850 -235 821.0 -201.5Q792 -168 775.0 -125.5Q758 -83 758 -36Q758 44 804 108L758 144Q713 144 674.0 161.0Q635 178 606.0 207.5Q577 237 560.0 276.0Q543 315 543 360Q543 362 540.5 363.0Q538 364 536 365Q514 379 493.0 393.0Q472 407 452 424Q406 464 369.5 518.5Q333 573 308.0 634.5Q283 696 269.5 761.0Q256 826 256 886Q256 1019 308.0 1133.0Q360 1247 448.5 1331.0Q537 1415 654.0 1462.5Q771 1510 902 1510H1046Q1083 1510 1116.0 1524.0Q1149 1538 1173.5 1562.5Q1198 1587 1212.0 1619.5Q1226 1652 1226 1689Q1226 1726 1240.0 1759.0Q1254 1792 1278.5 1816.5Q1303 1841 1335.5 1855.0Q1368 1869 1406 1869Q1443 1869 1476.0 1855.0Q1509 1841 1533.5 1816.5Q1558 1792 1572.0 1759.0Q1586 1726 1586 1689Q1586 1652 1600.0 1619.5Q1614 1587 1638.5 1562.5Q1663 1538 1696.0 1524.0Q1729 1510 1766 1510H1910Q1997 1510 2078.5 1488.5Q2160 1467 2232.0 1427.0Q2304 1387 2363.5 1330.5Q2423 1274 2466.0 1205.0Q2509 1136 2532.5 1055.0Q2556 974 2556 886Q2556 826 2542.5 761.0Q2529 696 2504.0 634.5Q2479 573 2442.5 518.5Q2406 464 2360 424Q2340 407 2319.0 393.0Q2298 379 2276 365Q2274 364 2271.5 363.0Q2269 362 2269 360Q2269 325 2260.0 290.5Q2251 256 2233.0 227.0Q2215 198 2188.0 176.0Q2161 154 2125 144V72Q2125 27 2108.0 -12.0Q2091 -51 2062.0 -80.5Q2033 -110 1994.0 -127.0Q1955 -144 1910 -144Z" style="fill:#000000;stroke:none" transform="scale(1,-1) translate(0,-256)" /></svg>