<?xml version="1.0" encoding="utf-8" ?>
<svg baseProfile="full" height="256" version="1.1" width="256" xmlns="http://www.w3.org/2000/svg" xmlns:ev="http://www.w3.org/2001/xml-events" xmlns:xlink="http://www.w3.org/1999/xlink"><defs /><path d="M2054 431Q2083 431 2104.0 410.0Q2125 389 2125 360Q2125 331 2104.0 309.5Q2083 288 2054 288Q2024 288 2003.0 309.0Q1982 330 1982 360Q1982 389 2003.5 410.0Q2025 431 2054 431ZM1406 575Q1436 575 1457.0 554.0Q1478 533 1478 503Q1478 474 1456.5 452.5Q1435 431 1406 431Q1377 431 1355.5 452.5Q1334 474 1334 503Q1334 533 1355.0 554.0Q1376 575 1406 575ZM1154 503Q1167 503 1174.5 497.0Q1182 491 1186.0 482.0Q1190 473 1191.0 462.5Q1192 452 1192 442Q1192 413 1188.5 385.0Q1185 357 1173.5 335.5Q1162 314 1140.0 301.0Q1118 288 1082 288Q1070 288 1058.5 289.0Q1047 290 1035 290Q1025 290 1014.0 289.0Q1003 288 994.0 284.0Q985 280 979.5 272.5Q974 265 974 252Q974 228 992.5 221.0Q1011 214 1034 214Q1048 214 1060.5 215.0Q1073 216 1082 216Q1104 216 1123.5 207.5Q1143 199 1158.0 184.0Q1173 169 1181.5 149.5Q1190 130 1190 108Q1190 86 1181.5 66.5Q1173 47 1158.0 32.0Q1143 17 1123.5 8.5Q1104 0 1082 0Q1070 0 1058.5 1.0Q1047 2 1035 2Q1025 2 1014.0 1.0Q1003 0 994.0 -4.0Q985 -8 979.5 -15.5Q974 -23 974 -36Q974 -60 992.5 -67.0Q1011 -74 1034 -74Q1048 -74 1060.5 -73.0Q1073 -72 1082 -72Q1104 -72 1123.5 -80.5Q1143 -89 1158.0 -103.5Q1173 -118 1181.5 -137.5Q1190 -157 1190 -179Q1190 -191 1191.0 -202.5Q1192 -214 1192 -226Q1192 -236 1191.0 -247.0Q1190 -258 1186.0 -267.0Q1182 -276 1174.5 -281.5Q1167 -287 1154 -287Q1130 -287 1123.5 -269.5Q1117 -252 1117 -231Q1117 -222 1117.5 -213.5Q1118 -205 1118 -198Q1118 -188 1117.0 -178.5Q1116 -169 1112.5 -161.5Q1109 -154 1101.5 -149.0Q1094 -144 1082 -144H1010Q988 -144 968.5 -135.5Q949 -127 934.0 -112.0Q919 -97 910.5 -77.5Q902 -58 902 -36Q902 -14 910.5 5.5Q919 25 934.0 40.0Q949 55 968.5 63.5Q988 72 1010 72Q1022 72 1033.5 71.0Q1045 70 1057 70Q1067 70 1078.0 71.0Q1089 72 1098.0 76.0Q1107 80 1112.5 87.5Q1118 95 1118 108Q1118 132 1099.5 139.0Q1081 146 1058 146Q1044 146 1031.5 145.0Q1019 144 1010 144Q988 144 968.5 152.5Q949 161 934.0 176.0Q919 191 910.5 210.5Q902 230 902 252Q902 274 910.5 293.5Q919 313 934.0 328.0Q949 343 968.5 351.5Q988 360 1010 360H1082Q1106 360 1113.0 376.5Q1120 393 1120 413Q1120 424 1119.0 434.5Q1118 445 1118 453Q1118 472 1124.5 487.5Q1131 503 1154 503Z" style="fill:#00bcf2;stroke:none" transform="scale(1,-1) translate(0,-256)" /></svg>