<?xml version="1.0" encoding="utf-8" ?>
<svg baseProfile="full" height="256" version="1.1" width="256" xmlns="http://www.w3.org/2000/svg" xmlns:ev="http://www.w3.org/2001/xml-events" xmlns:xlink="http://www.w3.org/1999/xlink"><defs /><path d="M1919 1368Q2017 1368 2106.5 1330.0Q2196 1292 2264.0 1226.5Q2332 1161 2372.5 1073.0Q2413 985 2413 886Q2413 841 2402.5 790.0Q2392 739 2371.5 690.0Q2351 641 2322.5 598.0Q2294 555 2258 526Q2247 517 2235.0 510.0Q2223 503 2209 503Q2193 503 2180.0 509.5Q2167 516 2156 526Q2131 546 2110.5 570.0Q2090 594 2067 617L1669 1023Q1645 1048 1619.5 1070.5Q1594 1093 1572 1120Q1562 1132 1556.0 1142.0Q1550 1152 1550 1169Q1550 1184 1556.5 1197.5Q1563 1211 1573 1222Q1602 1256 1643.0 1283.5Q1684 1311 1731.0 1329.5Q1778 1348 1826.5 1358.0Q1875 1368 1919 1368ZM399 886Q399 985 439.5 1073.0Q480 1161 548.0 1226.5Q616 1292 705.5 1330.0Q795 1368 893 1368Q937 1368 985.5 1358.0Q1034 1348 1081.0 1329.5Q1128 1311 1169.0 1283.5Q1210 1256 1239 1222Q1249 1211 1255.5 1197.5Q1262 1184 1262 1169Q1262 1154 1256.5 1145.0Q1251 1136 1243 1125L1239 1120Q1217 1094 1192.0 1070.5Q1167 1047 1143 1023L745 617Q722 594 701.5 570.0Q681 546 656 526Q645 516 632.0 509.5Q619 503 603 503Q589 503 577.0 510.0Q565 517 554 526Q518 555 489.5 598.0Q461 641 440.5 690.0Q420 739 409.5 790.0Q399 841 399 886Z" style="fill:#ffc83d;stroke:none" transform="scale(1,-1) translate(0,-256)" /></svg>