<?xml version="1.0" encoding="utf-8" ?>
<svg baseProfile="full" height="256" version="1.1" width="256" xmlns="http://www.w3.org/2000/svg" xmlns:ev="http://www.w3.org/2001/xml-events" xmlns:xlink="http://www.w3.org/1999/xlink"><defs /><path d="M1406 1725Q1421 1725 1431.5 1714.5Q1442 1704 1442 1689Q1442 1622 1467.5 1563.5Q1493 1505 1537.0 1461.0Q1581 1417 1640.0 1391.5Q1699 1366 1766 1366H1910V1294H1766Q1708 1294 1653.5 1310.5Q1599 1327 1552.0 1357.0Q1505 1387 1467.5 1430.0Q1430 1473 1406 1526Q1382 1473 1344.5 1430.0Q1307 1387 1260.0 1357.0Q1213 1327 1158.5 1310.5Q1104 1294 1046 1294H902V1366H1046Q1113 1366 1172.0 1391.5Q1231 1417 1275.0 1461.0Q1319 1505 1344.5 1563.5Q1370 1622 1370 1689Q1370 1704 1380.5 1714.5Q1391 1725 1406 1725Z" style="fill:#cccccc;stroke:none" transform="scale(1,-1) translate(0,-256)" /></svg>