<?xml version="1.0" encoding="utf-8" ?>
<svg baseProfile="full" height="256" version="1.1" width="256" xmlns="http://www.w3.org/2000/svg" xmlns:ev="http://www.w3.org/2001/xml-events" xmlns:xlink="http://www.w3.org/1999/xlink"><defs /><path d="M758 431Q787 431 808.5 410.0Q830 389 830 360Q830 330 809.0 309.0Q788 288 758 288Q729 288 707.5 309.5Q686 331 686 360Q686 389 707.5 410.0Q729 431 758 431ZM1622 467Q1622 443 1640.5 436.0Q1659 429 1682 429Q1696 429 1708.5 430.0Q1721 431 1730 431Q1752 431 1771.5 422.5Q1791 414 1806.0 399.5Q1821 385 1829.5 365.5Q1838 346 1838 324Q1838 302 1829.5 282.5Q1821 263 1806.0 248.0Q1791 233 1771.5 224.5Q1752 216 1730 216H1658Q1634 216 1627.5 198.5Q1621 181 1621 160Q1621 151 1621.5 142.5Q1622 134 1622 127Q1622 117 1621.0 107.5Q1620 98 1616.5 90.0Q1613 82 1605.5 77.0Q1598 72 1586 72Q1573 72 1565.5 77.5Q1558 83 1554.0 92.0Q1550 101 1549.0 111.5Q1548 122 1548 132Q1548 144 1549.0 156.0Q1550 168 1550 180Q1550 202 1558.5 221.5Q1567 241 1582.0 256.0Q1597 271 1616.5 279.5Q1636 288 1658 288Q1670 288 1681.5 287.0Q1693 286 1705 286Q1715 286 1726.0 287.0Q1737 288 1746.0 292.0Q1755 296 1760.5 303.5Q1766 311 1766 324Q1766 348 1747.5 355.0Q1729 362 1706 362Q1692 362 1679.5 361.0Q1667 360 1658 360Q1636 360 1616.5 368.5Q1597 377 1582.0 391.0Q1567 405 1558.5 424.5Q1550 444 1550 467Q1550 489 1558.5 509.0Q1567 529 1581.5 543.5Q1596 558 1615.5 566.5Q1635 575 1658 575Q1670 575 1681.5 574.0Q1693 573 1705 573Q1715 573 1726.0 574.0Q1737 575 1746.0 579.0Q1755 583 1760.5 590.5Q1766 598 1766 611Q1766 624 1760.5 631.5Q1755 639 1746.0 643.0Q1737 647 1726.5 648.0Q1716 649 1706 649Q1694 649 1682.0 648.0Q1670 647 1658 647Q1622 647 1600.5 660.0Q1579 673 1567.0 695.0Q1555 717 1551.5 744.5Q1548 772 1548 802Q1548 812 1549.0 823.0Q1550 834 1554.0 843.0Q1558 852 1565.5 857.5Q1573 863 1586 863Q1609 863 1616.0 847.0Q1623 831 1623 811Q1623 800 1622.0 789.5Q1621 779 1621 771Q1621 742 1631.5 729.0Q1642 716 1671 716Q1686 716 1700.5 717.5Q1715 719 1730 719Q1752 719 1771.5 710.5Q1791 702 1806.0 687.0Q1821 672 1829.5 652.5Q1838 633 1838 611Q1838 589 1829.5 569.5Q1821 550 1806.0 535.0Q1791 520 1771.5 511.5Q1752 503 1730 503Q1718 503 1706.5 504.0Q1695 505 1683 505Q1673 505 1662.0 504.0Q1651 503 1642.0 499.0Q1633 495 1627.5 487.5Q1622 480 1622 467Z" style="fill:#886ce4;stroke:none" transform="scale(1,-1) translate(0,-256)" /></svg>