<?xml version="1.0" encoding="utf-8" ?>
<svg baseProfile="full" height="256" version="1.1" width="256" xmlns="http://www.w3.org/2000/svg" xmlns:ev="http://www.w3.org/2001/xml-events" xmlns:xlink="http://www.w3.org/1999/xlink"><defs /><path d="M1406 1006Q1435 1006 1456.5 985.0Q1478 964 1478 935Q1478 905 1457.0 884.0Q1436 863 1406 863Q1376 863 1355.0 884.0Q1334 905 1334 935Q1334 964 1355.5 985.0Q1377 1006 1406 1006ZM1910 144Q1939 144 1960.5 122.5Q1982 101 1982 72Q1982 43 1960.5 21.5Q1939 0 1910 0Q1880 0 1859.0 21.0Q1838 42 1838 72Q1838 102 1859.0 123.0Q1880 144 1910 144ZM1406 144Q1436 144 1457.0 123.0Q1478 102 1478 72Q1478 42 1457.0 21.0Q1436 0 1406 0Q1376 0 1355.0 21.0Q1334 42 1334 72Q1334 102 1355.0 123.0Q1376 144 1406 144Z" style="fill:#f03a17;stroke:none" transform="scale(1,-1) translate(0,-256)" /></svg>