<?xml version="1.0" encoding="utf-8" ?>
<svg baseProfile="full" height="256" version="1.1" width="256" xmlns="http://www.w3.org/2000/svg" xmlns:ev="http://www.w3.org/2001/xml-events" xmlns:xlink="http://www.w3.org/1999/xlink"><defs /><path d="M1718 1200Q1531 1076 1346.0 953.0Q1161 830 975 704V-273L903 -259V743L1126 891Q1011 970 895.0 1046.0Q779 1122 662 1200L722 1299L508 1257L700 1497L824 1536L687 1366L867 1402L759 1222L1190 935L1622 1222L1514 1402L1693 1366L1557 1536L1681 1497L1873 1257L1659 1299ZM1334 1510Q1363 1510 1384.5 1488.5Q1406 1467 1406 1438V1354Q1406 1325 1395.0 1298.5Q1384 1272 1364 1252L1190 1078L1017 1252Q975 1294 975 1353V1438Q975 1467 996.5 1488.5Q1018 1510 1047 1510Z" style="fill:#1f1f1f;stroke:none" transform="scale(1,-1) translate(0,-256)" /></svg>