<?xml version="1.0" encoding="utf-8" ?>
<svg baseProfile="full" height="256" version="1.1" width="256" xmlns="http://www.w3.org/2000/svg" xmlns:ev="http://www.w3.org/2001/xml-events" xmlns:xlink="http://www.w3.org/1999/xlink"><defs /><path d="M1681 1497 1881 1433Q1926 1419 1953.5 1381.0Q1981 1343 1981 1296V-144H1765V971Q1765 985 1754.0 995.5Q1743 1006 1729 1006Q1715 1006 1704.0 995.5Q1693 985 1693 971V-144Q1687 -157 1671.0 -170.5Q1655 -184 1644 -192Q1600 -222 1543.0 -240.5Q1486 -259 1424.5 -269.5Q1363 -280 1302.0 -283.5Q1241 -287 1190 -287Q1136 -287 1082.0 -284.0Q1028 -281 974 -273Q969 -265 958.5 -254.5Q948 -244 937 -244Q927 -244 919.5 -248.5Q912 -253 904 -258Q901 -261 893 -261Q881 -261 861.5 -254.5Q842 -248 819.5 -237.5Q797 -227 773.5 -213.5Q750 -200 731.0 -187.0Q712 -174 700.0 -162.5Q688 -151 687 -144V971Q687 985 676.0 995.5Q665 1006 651 1006Q637 1006 626.0 995.5Q615 985 615 971V-144H400V1296Q400 1343 427.5 1381.0Q455 1419 500 1433L700 1497L727 1480L824 1536L953 1698Q974 1725 1009 1725H1371Q1406 1725 1428 1698Q1440 1682 1457.0 1660.0Q1474 1638 1492.0 1614.5Q1510 1591 1527.0 1570.0Q1544 1549 1557 1536Q1558 1535 1570.0 1526.5Q1582 1518 1596.0 1508.0Q1610 1498 1623.0 1489.0Q1636 1480 1639 1478Z" style="fill:#383838;stroke:none" transform="scale(1,-1) translate(0,-256)" /></svg>