<?xml version="1.0" encoding="utf-8" ?>
<svg baseProfile="full" height="256" version="1.1" width="256" xmlns="http://www.w3.org/2000/svg" xmlns:ev="http://www.w3.org/2001/xml-events" xmlns:xlink="http://www.w3.org/1999/xlink"><defs /><path d="M1190 -431Q1124 -431 1047.0 -425.5Q970 -420 894.0 -404.0Q818 -388 748.0 -360.0Q678 -332 625 -287H256V1296Q256 1343 270.5 1386.5Q285 1430 311.0 1466.0Q337 1502 374.0 1528.5Q411 1555 456 1570L738 1660Q764 1692 789.5 1724.0Q815 1756 841 1788Q873 1827 915.5 1848.0Q958 1869 1009 1869H1371Q1421 1869 1464.5 1847.5Q1508 1826 1540 1788L1642 1660L1925 1570Q1970 1556 2006.5 1529.0Q2043 1502 2069.5 1466.0Q2096 1430 2110.5 1386.5Q2125 1343 2125 1296V-287H1756Q1703 -332 1632.5 -360.0Q1562 -388 1486.0 -404.0Q1410 -420 1333.0 -425.5Q1256 -431 1190 -431Z" style="fill:#000000;stroke:none" transform="scale(1,-1) translate(0,-256)" /></svg>