<?xml version="1.0" encoding="utf-8" ?>
<svg baseProfile="full" height="256" version="1.1" width="256" xmlns="http://www.w3.org/2000/svg" xmlns:ev="http://www.w3.org/2001/xml-events" xmlns:xlink="http://www.w3.org/1999/xlink"><defs /><path d="M1190 647Q1190 617 1169.0 596.0Q1148 575 1118 575Q1089 575 1068.0 596.5Q1047 618 1047 647Q1047 676 1068.0 697.5Q1089 719 1118 719Q1148 719 1169.0 698.0Q1190 677 1190 647ZM1406 647Q1406 617 1385.0 596.0Q1364 575 1334 575Q1304 575 1283.0 596.0Q1262 617 1262 647Q1262 677 1283.0 698.0Q1304 719 1334 719Q1364 719 1385.0 698.0Q1406 677 1406 647ZM1190 360Q1190 330 1169.0 309.0Q1148 288 1118 288Q1089 288 1068.0 309.5Q1047 331 1047 360Q1047 389 1068.0 410.0Q1089 431 1118 431Q1147 431 1168.5 410.0Q1190 389 1190 360ZM1406 360Q1406 330 1385.0 309.0Q1364 288 1334 288Q1304 288 1283.0 309.0Q1262 330 1262 360Q1262 389 1283.5 410.0Q1305 431 1334 431Q1363 431 1384.5 410.0Q1406 389 1406 360ZM1190 72Q1190 42 1169.0 21.0Q1148 0 1118 0Q1089 0 1068.0 21.5Q1047 43 1047 72Q1047 101 1068.0 122.5Q1089 144 1118 144Q1148 144 1169.0 123.0Q1190 102 1190 72ZM1406 72Q1406 42 1385.0 21.0Q1364 0 1334 0Q1304 0 1283.0 21.0Q1262 42 1262 72Q1262 102 1283.0 123.0Q1304 144 1334 144Q1364 144 1385.0 123.0Q1406 102 1406 72Z" style="fill:#757575;stroke:none" transform="scale(1,-1) translate(0,-256)" /></svg>