<?xml version="1.0" encoding="utf-8" ?>
<svg baseProfile="full" height="256" version="1.1" width="256" xmlns="http://www.w3.org/2000/svg" xmlns:ev="http://www.w3.org/2001/xml-events" xmlns:xlink="http://www.w3.org/1999/xlink"><defs /><path d="M2121 216H2161Q2213 216 2259.0 196.0Q2305 176 2339.0 142.0Q2373 108 2392.5 62.0Q2412 16 2412 -36Q2412 -89 2392.5 -134.5Q2373 -180 2339.0 -214.0Q2305 -248 2259.0 -267.5Q2213 -287 2161 -287H651Q598 -287 552.5 -267.5Q507 -248 473.0 -214.0Q439 -180 419.5 -134.5Q400 -89 400 -36Q400 16 419.5 62.0Q439 108 473.0 142.0Q507 176 553.0 196.0Q599 216 651 216H691Q654 251 634.5 298.0Q615 345 615 396Q615 448 635.0 493.5Q655 539 689.5 573.0Q724 607 769.5 627.0Q815 647 867 647H979Q942 682 922.5 729.0Q903 776 903 827Q903 879 922.5 925.0Q942 971 976.0 1005.0Q1010 1039 1055.5 1058.5Q1101 1078 1154 1078H1334Q1379 1078 1418.0 1095.0Q1457 1112 1486.5 1141.5Q1516 1171 1533.0 1210.0Q1550 1249 1550 1294V1438Q1628 1424 1694.0 1384.5Q1760 1345 1807.5 1287.0Q1855 1229 1882.0 1157.0Q1909 1085 1909 1006Q1909 952 1895.5 900.5Q1882 849 1857.5 802.5Q1833 756 1797.0 716.5Q1761 677 1716 647H1945Q1997 647 2042.5 627.0Q2088 607 2122.5 573.0Q2157 539 2177.0 493.5Q2197 448 2197 396Q2197 345 2177.0 298.5Q2157 252 2121 216Z" style="fill:#8e562e;stroke:none" transform="scale(1,-1) translate(0,-256)" /></svg>