<?xml version="1.0" encoding="utf-8" ?>
<svg baseProfile="full" height="256" version="1.1" width="256" xmlns="http://www.w3.org/2000/svg" xmlns:ev="http://www.w3.org/2001/xml-events" xmlns:xlink="http://www.w3.org/1999/xlink"><defs /><path d="M1233 -170Q1190 -146 1155.5 -112.5Q1121 -79 1097.0 -38.5Q1073 2 1060.0 48.0Q1047 94 1047 144H1765Q1765 94 1752.0 48.0Q1739 2 1715.0 -38.5Q1691 -79 1656.5 -112.5Q1622 -146 1579 -170Q1570 -128 1527 -128Q1495 -128 1464.0 -136.5Q1433 -145 1401 -145Q1370 -145 1341.0 -136.5Q1312 -128 1281 -128Q1260 -128 1249.0 -139.0Q1238 -150 1233 -170ZM1190 611V462Q1190 438 1180.0 419.0Q1170 400 1153.5 387.0Q1137 374 1116.5 367.0Q1096 360 1074 360Q1053 360 1035.0 369.5Q1017 379 1003.5 394.0Q990 409 982.5 428.0Q975 447 975 467V615Q975 637 984.0 656.0Q993 675 1008.0 689.0Q1023 703 1042.5 711.0Q1062 719 1083 719Q1105 719 1125.0 710.5Q1145 702 1159.0 687.0Q1173 672 1181.5 652.5Q1190 633 1190 611ZM1733 719Q1753 719 1772.0 710.5Q1791 702 1805.5 687.5Q1820 673 1828.5 654.0Q1837 635 1837 615V467Q1837 443 1828.0 423.5Q1819 404 1803.5 389.5Q1788 375 1767.5 367.5Q1747 360 1724 360Q1706 360 1687.5 368.0Q1669 376 1654.5 389.5Q1640 403 1631.0 421.0Q1622 439 1622 458V620Q1622 642 1632.0 660.0Q1642 678 1657.5 691.0Q1673 704 1693.0 711.5Q1713 719 1733 719Z" style="fill:#000000;stroke:none" transform="scale(1,-1) translate(0,-256)" /></svg>