<?xml version="1.0" encoding="utf-8" ?>
<svg baseProfile="full" height="256" version="1.1" width="256" xmlns="http://www.w3.org/2000/svg" xmlns:ev="http://www.w3.org/2001/xml-events" xmlns:xlink="http://www.w3.org/1999/xlink"><defs /><path d="M425 -144H2387Q2372 -177 2348.0 -203.0Q2324 -229 2294.5 -248.0Q2265 -267 2231.0 -277.0Q2197 -287 2161 -287H651Q615 -287 581.0 -277.0Q547 -267 517.5 -248.0Q488 -229 464.0 -203.0Q440 -177 425 -144ZM2119 216H693Q631 276 619 360H2193Q2181 276 2119 216ZM1714 647H980Q951 676 932.0 713.0Q913 750 906 791H1851Q1800 704 1714 647Z" style="fill:#613d30;stroke:none" transform="scale(1,-1) translate(0,-256)" /></svg>