<?xml version="1.0" encoding="utf-8" ?>
<svg baseProfile="full" height="256" version="1.1" width="256" xmlns="http://www.w3.org/2000/svg" xmlns:ev="http://www.w3.org/2001/xml-events" xmlns:xlink="http://www.w3.org/1999/xlink"><defs /><path d="M651 -431Q569 -431 497.0 -400.0Q425 -369 371.5 -315.5Q318 -262 287.0 -190.0Q256 -118 256 -36Q256 21 272.0 74.0Q288 127 317.0 173.5Q346 220 387.0 257.5Q428 295 479 320Q475 339 473.5 358.0Q472 377 472 396Q472 463 493.5 524.0Q515 585 553.0 635.0Q591 685 644.5 722.0Q698 759 762 777Q759 802 759 827Q759 909 790.0 981.0Q821 1053 874.5 1106.5Q928 1160 1000.0 1191.0Q1072 1222 1154 1222H1334Q1364 1222 1385.0 1243.0Q1406 1264 1406 1294V1581H1550Q1623 1581 1689.0 1557.5Q1755 1534 1811.0 1492.5Q1867 1451 1911.5 1395.5Q1956 1340 1987.5 1276.5Q2019 1213 2036.0 1143.5Q2053 1074 2053 1006Q2053 892 2009 786Q2081 774 2141.5 739.0Q2202 704 2246.0 652.0Q2290 600 2315.0 534.5Q2340 469 2340 396Q2340 377 2338.5 358.0Q2337 339 2333 320Q2384 295 2425.0 257.5Q2466 220 2495.0 173.5Q2524 127 2540.0 74.0Q2556 21 2556 -36Q2556 -118 2525.0 -190.0Q2494 -262 2440.5 -315.5Q2387 -369 2315.0 -400.0Q2243 -431 2161 -431Z" style="fill:#000000;stroke:none" transform="scale(1,-1) translate(0,-256)" /></svg>