<?xml version="1.0" encoding="utf-8" ?>
<svg baseProfile="full" height="256" version="1.1" width="256" xmlns="http://www.w3.org/2000/svg" xmlns:ev="http://www.w3.org/2001/xml-events" xmlns:xlink="http://www.w3.org/1999/xlink"><defs /><path d="M1729 791Q1766 791 1799.0 777.0Q1832 763 1856.5 738.5Q1881 714 1895.0 681.0Q1909 648 1909 611V467Q1909 430 1895.0 397.5Q1881 365 1856.5 340.5Q1832 316 1799.0 302.0Q1766 288 1729 288Q1692 288 1659.5 302.0Q1627 316 1602.5 340.5Q1578 365 1564.0 397.5Q1550 430 1550 467V611Q1550 648 1564.0 681.0Q1578 714 1602.5 738.5Q1627 763 1659.5 777.0Q1692 791 1729 791ZM1083 791Q1120 791 1152.5 777.0Q1185 763 1209.5 738.5Q1234 714 1248.0 681.0Q1262 648 1262 611V467Q1262 430 1248.0 397.5Q1234 365 1209.5 340.5Q1185 316 1152.5 302.0Q1120 288 1083 288Q1046 288 1013.0 302.0Q980 316 955.5 340.5Q931 365 917.0 397.5Q903 430 903 467V611Q903 648 917.0 681.0Q931 714 955.5 738.5Q980 763 1012.5 777.0Q1045 791 1083 791Z" style="fill:#ffffff;stroke:none" transform="scale(1,-1) translate(0,-256)" /></svg>