<?xml version="1.0" encoding="utf-8" ?>
<svg baseProfile="full" height="256" version="1.1" width="256" xmlns="http://www.w3.org/2000/svg" xmlns:ev="http://www.w3.org/2001/xml-events" xmlns:xlink="http://www.w3.org/1999/xlink"><defs /><path d="M256 360V935H1262Q1188 935 1122.5 963.0Q1057 991 1008.0 1040.0Q959 1089 931.0 1154.5Q903 1220 903 1294Q903 1368 931.5 1433.5Q960 1499 1008.5 1547.5Q1057 1596 1122.5 1624.5Q1188 1653 1262 1653Q1326 1653 1384.0 1631.5Q1442 1610 1489.0 1572.0Q1536 1534 1568.5 1481.5Q1601 1429 1614 1366H1693Q1757 1366 1815.0 1344.5Q1873 1323 1920.5 1284.5Q1968 1246 2000.5 1193.5Q2033 1141 2046 1078H2143Q2192 1078 2235.0 1073.0Q2278 1068 2315.5 1052.5Q2353 1037 2385.5 1009.0Q2418 981 2446 935H2556V360Z" style="fill:#000000;stroke:none" transform="scale(1,-1) translate(0,-256)" /></svg>