<?xml version="1.0" encoding="utf-8" ?>
<svg baseProfile="full" height="256" version="1.1" width="256" xmlns="http://www.w3.org/2000/svg" xmlns:ev="http://www.w3.org/2001/xml-events" xmlns:xlink="http://www.w3.org/1999/xlink"><defs /><path d="M1047 503V791H2125V503ZM1262 1510Q1307 1510 1346.0 1493.0Q1385 1476 1414.5 1446.5Q1444 1417 1461.0 1378.0Q1478 1339 1478 1294Q1478 1264 1499.0 1243.0Q1520 1222 1550 1222H1693Q1738 1222 1777.5 1205.0Q1817 1188 1846.0 1159.0Q1875 1130 1892.0 1090.5Q1909 1051 1909 1006Q1909 977 1930.5 956.0Q1952 935 1981 935H2197Q2227 935 2253.0 923.5Q2279 912 2298.5 892.5Q2318 873 2329.0 847.0Q2340 821 2340 791H2197Q2197 820 2175.5 841.5Q2154 863 2125 863H1909Q1879 863 1853.0 874.0Q1827 885 1807.5 904.5Q1788 924 1776.5 950.0Q1765 976 1765 1006Q1765 1036 1744.0 1057.0Q1723 1078 1693 1078H1262Q1217 1078 1178.0 1095.0Q1139 1112 1110.0 1141.5Q1081 1171 1064.0 1210.0Q1047 1249 1047 1294Q1047 1339 1064.0 1378.0Q1081 1417 1110.0 1446.5Q1139 1476 1178.0 1493.0Q1217 1510 1262 1510Z" style="fill:#f2f2f2;stroke:none" transform="scale(1,-1) translate(0,-256)" /></svg>