<?xml version="1.0" encoding="utf-8" ?>
<svg baseProfile="full" height="256" version="1.1" width="256" xmlns="http://www.w3.org/2000/svg" xmlns:ev="http://www.w3.org/2001/xml-events" xmlns:xlink="http://www.w3.org/1999/xlink"><defs /><path d="M904 1150Q934 1150 960.0 1138.5Q986 1127 1005.5 1107.5Q1025 1088 1036.0 1062.0Q1047 1036 1047 1006V647Q1011 630 976.5 609.5Q942 589 904 575Q860 559 814.0 550.0Q768 541 723 530Q672 540 632.5 550.5Q593 561 556.5 574.0Q520 587 483.0 604.5Q446 622 400 647V1006Q400 1036 411.0 1062.0Q422 1088 441.5 1107.5Q461 1127 487.0 1138.5Q513 1150 543 1150ZM472 1438Q442 1438 421.0 1459.0Q400 1480 400 1510Q412 1510 424.0 1509.5Q436 1509 448 1509Q497 1509 544.0 1519.0Q591 1529 639 1534Q658 1536 675.5 1540.0Q693 1544 712 1546Q657 1550 604.0 1562.0Q551 1574 496 1581L527 1676Q534 1698 553.0 1711.5Q572 1725 595 1725Q611 1725 627.0 1720.0Q643 1715 658.5 1708.5Q674 1702 690.0 1697.0Q706 1692 723 1692Q740 1692 755.5 1697.0Q771 1702 787.0 1708.5Q803 1715 818.5 1720.0Q834 1725 851 1725Q873 1725 892.0 1711.0Q911 1697 919 1676L951 1581Q896 1574 842.0 1561.5Q788 1549 733 1546Q794 1538 854.5 1528.0Q915 1518 975 1510Q981 1509 987.0 1509.0Q993 1509 999 1509Q1011 1509 1023.0 1509.5Q1035 1510 1047 1510Q1047 1481 1025.5 1459.5Q1004 1438 975 1438ZM975 -251Q975 -266 964.5 -276.5Q954 -287 939 -287H508Q493 -287 482.5 -276.5Q472 -266 472 -251Q472 -237 483.0 -226.0Q494 -215 508 -215H939Q953 -215 964.0 -226.0Q975 -237 975 -251ZM616 116 688 72V0Q688 -29 666.5 -50.5Q645 -72 616 -72Q587 -72 565.5 -50.5Q544 -29 544 0V72ZM831 108 904 72V0Q904 -29 882.5 -50.5Q861 -72 832 -72Q803 -72 781.5 -50.5Q760 -29 760 0V72Z" style="fill:#757575;stroke:none" transform="scale(1,-1) translate(0,-256)" /></svg>