<?xml version="1.0" encoding="utf-8" ?>
<svg baseProfile="full" height="256" version="1.1" width="256" xmlns="http://www.w3.org/2000/svg" xmlns:ev="http://www.w3.org/2001/xml-events" xmlns:xlink="http://www.w3.org/1999/xlink"><defs /><path d="M939 1510V1438Q939 1393 922.0 1354.0Q905 1315 875.5 1285.5Q846 1256 807.0 1239.0Q768 1222 723 1222Q678 1222 639.0 1239.0Q600 1256 571.0 1285.5Q542 1315 525.0 1354.0Q508 1393 508 1438V1510ZM544 575Q544 546 522.5 524.5Q501 503 472 503Q443 503 421.5 524.5Q400 546 400 575L472 611ZM1047 575Q1047 546 1025.5 524.5Q1004 503 975 503Q946 503 925.0 524.5Q904 546 904 575L975 611Z" style="fill:#ffc83d;stroke:none" transform="scale(1,-1) translate(0,-256)" /></svg>