<?xml version="1.0" encoding="utf-8" ?>
<svg baseProfile="full" height="256" version="1.1" width="256" xmlns="http://www.w3.org/2000/svg" xmlns:ev="http://www.w3.org/2001/xml-events" xmlns:xlink="http://www.w3.org/1999/xlink"><defs /><path d="M1036 1260Q1108 1222 1149.5 1154.5Q1191 1087 1191 1006V575Q1191 505 1152.0 450.5Q1113 396 1047 372V0Q1047 -50 1024 -94Q1067 -117 1092.5 -159.0Q1118 -201 1118 -250Q1118 -289 1103.0 -322.0Q1088 -355 1062.5 -379.0Q1037 -403 1003.0 -417.0Q969 -431 931 -431H515Q477 -431 443.5 -417.5Q410 -404 384.0 -380.0Q358 -356 343.0 -323.0Q328 -290 328 -252Q328 -201 353.0 -159.0Q378 -117 423 -94Q400 -50 400 0V372Q334 396 295.0 450.5Q256 505 256 575V1006Q256 1087 297.5 1154.5Q339 1222 411 1260Q404 1273 398.0 1285.0Q392 1297 387 1311Q349 1327 324.0 1350.5Q299 1374 284.0 1403.5Q269 1433 262.5 1467.5Q256 1502 256 1541Q256 1564 265.0 1584.5Q274 1605 289.0 1620.0Q304 1635 324.5 1644.0Q345 1653 368 1653L391 1722Q402 1755 422.5 1782.0Q443 1809 469.5 1828.5Q496 1848 528.0 1858.5Q560 1869 595 1869Q628 1869 659.5 1858.0Q691 1847 723 1839Q755 1847 786.5 1858.0Q818 1869 851 1869Q886 1869 918.0 1858.5Q950 1848 976.5 1828.5Q1003 1809 1023.5 1782.0Q1044 1755 1055 1722L1078 1653Q1101 1653 1121.5 1644.0Q1142 1635 1157.0 1620.0Q1172 1605 1181.0 1584.5Q1190 1564 1190 1541V1510Q1190 1445 1155.0 1391.5Q1120 1338 1060 1312Q1050 1287 1036 1260Z" style="fill:#000000;stroke:none" transform="scale(1,-1) translate(0,-256)" /></svg>