<?xml version="1.0" encoding="utf-8" ?>
<svg baseProfile="full" height="256" version="1.1" width="256" xmlns="http://www.w3.org/2000/svg" xmlns:ev="http://www.w3.org/2001/xml-events" xmlns:xlink="http://www.w3.org/1999/xlink"><defs /><path d="M472 -431V-2Q472 4 468.0 13.0Q464 22 458.5 31.0Q453 40 447.0 48.0Q441 56 437 61Q426 75 412.5 87.0Q399 99 385 111Q356 138 332.5 165.0Q309 192 292.0 221.5Q275 251 265.5 285.0Q256 319 256 360V1617Q256 1669 276.0 1715.0Q296 1761 330.0 1795.0Q364 1829 410.0 1849.0Q456 1869 508 1869Q560 1869 605.5 1849.0Q651 1829 685.0 1794.5Q719 1760 739.0 1714.5Q759 1669 759 1617V1222H1118V1617Q1118 1669 1138.0 1715.0Q1158 1761 1192.0 1795.0Q1226 1829 1272.0 1849.0Q1318 1869 1370 1869Q1422 1869 1468.0 1849.0Q1514 1829 1548.0 1795.0Q1582 1761 1602.0 1715.0Q1622 1669 1622 1617V360Q1622 309 1606.0 268.0Q1590 227 1566.0 193.0Q1542 159 1514.0 131.5Q1486 104 1462.0 81.0Q1438 58 1422.0 38.0Q1406 18 1406 -2V-431Z" style="fill:#000000;stroke:none" transform="scale(1,-1) translate(0,-256)" /></svg>