<?xml version="1.0" encoding="utf-8" ?>
<svg baseProfile="full" height="256" version="1.1" width="256" xmlns="http://www.w3.org/2000/svg" xmlns:ev="http://www.w3.org/2001/xml-events" xmlns:xlink="http://www.w3.org/1999/xlink"><defs /><path d="M1262 861Q1325 853 1382.0 822.0Q1439 791 1478 740V539Q1478 591 1458.0 637.0Q1438 683 1404.0 717.0Q1370 751 1324.0 771.0Q1278 791 1226 791H651Q629 791 609.5 782.5Q590 774 575.0 759.0Q560 744 551.5 724.5Q543 705 543 683Q543 661 551.5 641.5Q560 622 575.0 607.0Q590 592 609.5 583.5Q629 575 651 575H867Q882 575 892.5 564.5Q903 554 903 539V252Q903 237 892.5 226.5Q882 216 867 216Q852 216 841.5 226.5Q831 237 831 252V503H651Q614 503 581.5 517.0Q549 531 524.5 555.5Q500 580 486.0 613.0Q472 646 472 683Q472 714 482.5 743.5Q493 773 512.0 796.5Q531 820 557.5 836.5Q584 853 615 859V1078H687V863H903V1078H975V863H1190V1078H1262Z" style="fill:#d48c00;stroke:none" transform="scale(1,-1) translate(0,-256)" /></svg>