<?xml version="1.0" encoding="utf-8" ?>
<svg baseProfile="full" height="256" version="1.1" width="256" xmlns="http://www.w3.org/2000/svg" xmlns:ev="http://www.w3.org/2001/xml-events" xmlns:xlink="http://www.w3.org/1999/xlink"><defs /><path d="M831 1653Q874 1653 907 1622L1381 1165Q1462 1087 1505.5 996.0Q1549 905 1549 791Q1549 687 1509.5 595.5Q1470 504 1401.5 435.5Q1333 367 1241.5 327.5Q1150 288 1046 288Q942 288 850.0 327.5Q758 367 690.0 435.0Q622 503 582.5 595.0Q543 687 543 791V1045Q575 1025 612.0 1015.5Q649 1006 687 1006H903Q940 1006 972.5 1020.0Q1005 1034 1029.5 1058.5Q1054 1083 1068.0 1116.0Q1082 1149 1082 1186Q1082 1223 1068.0 1256.0Q1054 1289 1029.5 1313.5Q1005 1338 972.5 1352.0Q940 1366 903 1366H651Q628 1366 608.5 1374.5Q589 1383 574.5 1397.5Q560 1412 551.5 1431.5Q543 1451 543 1474Q543 1496 551.5 1515.5Q560 1535 575.0 1549.5Q590 1564 609.5 1572.5Q629 1581 651 1581Q692 1581 724 1552Q727 1597 756.5 1625.0Q786 1653 831 1653ZM2268 72Q2298 72 2324.0 60.5Q2350 49 2369.5 29.5Q2389 10 2400.5 -16.0Q2412 -42 2412 -72V-144Q2412 -174 2400.5 -200.0Q2389 -226 2369.5 -245.5Q2350 -265 2324.0 -276.0Q2298 -287 2268 -287H2124Q2094 -287 2068.0 -276.0Q2042 -265 2022.5 -245.5Q2003 -226 1992.0 -200.0Q1981 -174 1981 -144V-72Q1981 -42 1992.0 -16.0Q2003 10 2022.5 29.5Q2042 49 2068.0 60.5Q2094 72 2124 72ZM1118 72Q1148 72 1174.0 60.5Q1200 49 1219.5 29.5Q1239 10 1250.5 -16.0Q1262 -42 1262 -72V-144Q1262 -174 1250.5 -200.0Q1239 -226 1219.5 -245.5Q1200 -265 1174.0 -276.0Q1148 -287 1118 -287H974Q944 -287 918.0 -276.0Q892 -265 872.5 -245.5Q853 -226 842.0 -200.0Q831 -174 831 -144V-72Q831 -42 842.0 -16.0Q853 10 872.5 29.5Q892 49 918.0 60.5Q944 72 974 72ZM2124 1078Q2094 1078 2068.0 1089.5Q2042 1101 2022.5 1120.5Q2003 1140 1992.0 1166.0Q1981 1192 1981 1222Q1981 1252 1992.0 1278.0Q2003 1304 2022.5 1323.5Q2042 1343 2068.0 1354.5Q2094 1366 2124 1366Q2154 1366 2180.0 1354.5Q2206 1343 2225.5 1323.5Q2245 1304 2256.5 1278.0Q2268 1252 2268 1222Q2268 1192 2256.5 1166.0Q2245 1140 2225.5 1120.5Q2206 1101 2180.0 1089.5Q2154 1078 2124 1078ZM425 1176Q400 1234 400 1294H543Z" style="fill:#757575;stroke:none" transform="scale(1,-1) translate(0,-256)" /></svg>