<?xml version="1.0" encoding="utf-8" ?>
<svg baseProfile="full" height="256" version="1.1" width="256" xmlns="http://www.w3.org/2000/svg" xmlns:ev="http://www.w3.org/2001/xml-events" xmlns:xlink="http://www.w3.org/1999/xlink"><defs /><path d="M2125 -431Q2066 -431 2013.5 -408.0Q1961 -385 1922.0 -346.0Q1883 -307 1860.0 -255.0Q1837 -203 1837 -144V-72Q1837 9 1879 77Q1852 97 1823.5 116.5Q1795 136 1767.0 156.0Q1739 176 1713.0 198.5Q1687 221 1666 247Q1619 227 1568.5 220.5Q1518 214 1467 214Q1436 214 1405.0 215.0Q1374 216 1342 216Q1322 206 1302.5 197.5Q1283 189 1263 182V177Q1329 138 1367.5 71.5Q1406 5 1406 -72V-144Q1406 -203 1383.0 -255.0Q1360 -307 1321.0 -346.0Q1282 -385 1229.5 -408.0Q1177 -431 1118 -431H975Q916 -431 863.5 -408.0Q811 -385 772.0 -346.0Q733 -307 710.0 -255.0Q687 -203 687 -144V-72Q687 6 725.5 72.0Q764 138 831 177V182Q736 215 658.0 274.0Q580 333 524.0 411.0Q468 489 435.5 581.5Q403 674 400 774Q375 795 361.0 817.5Q347 840 339.5 864.5Q332 889 330.0 916.5Q328 944 328 975Q328 994 328.5 1012.5Q329 1031 333 1050Q308 1085 292.5 1119.5Q277 1154 269.0 1189.5Q261 1225 258.0 1263.0Q255 1301 255 1343Q255 1367 255.5 1390.5Q256 1414 256 1438H402Q400 1447 400.0 1456.0Q400 1465 400 1474Q400 1527 420.0 1573.0Q440 1619 475.0 1652.5Q510 1686 556.0 1705.5Q602 1725 655 1725Q690 1760 735.5 1778.5Q781 1797 831 1797Q882 1797 927.0 1777.5Q972 1758 1009 1723L1481 1269Q1541 1211 1585.0 1148.0Q1629 1085 1656 1006H1765L1851 1135Q1837 1179 1837 1222Q1837 1282 1859.5 1334.5Q1882 1387 1921.0 1426.0Q1960 1465 2012.5 1487.5Q2065 1510 2125 1510Q2184 1510 2236.0 1487.0Q2288 1464 2327.0 1425.0Q2366 1386 2389.0 1333.5Q2412 1281 2412 1222Q2412 1167 2392.0 1117.0Q2372 1067 2336.5 1028.0Q2301 989 2253.0 964.5Q2205 940 2150 936L2076 826Q2109 772 2118.0 713.5Q2127 655 2127 595Q2127 566 2126.0 538.5Q2125 511 2125 482L2346 205Q2392 192 2430.5 165.0Q2469 138 2497.0 101.5Q2525 65 2540.5 20.5Q2556 -24 2556 -72V-144Q2556 -203 2533.0 -255.0Q2510 -307 2471.0 -346.0Q2432 -385 2379.5 -408.0Q2327 -431 2268 -431Z" style="fill:#000000;stroke:none" transform="scale(1,-1) translate(0,-256)" /></svg>