<?xml version="1.0" encoding="utf-8" ?>
<svg baseProfile="full" height="256" version="1.1" width="256" xmlns="http://www.w3.org/2000/svg" xmlns:ev="http://www.w3.org/2001/xml-events" xmlns:xlink="http://www.w3.org/1999/xlink"><defs /><path d="M1981 431 2268 72V-72H2124V72L1837 288Q1812 307 1792.5 324.0Q1773 341 1758.0 360.5Q1743 380 1731.5 403.0Q1720 426 1711 457Q1675 411 1623.5 385.5Q1572 360 1513 360H1262V863H1765Q1783 863 1800.0 859.5Q1817 856 1834 850L2095 1242L2154 1202L1897 816Q1928 792 1945.5 766.0Q1963 740 1970.5 711.5Q1978 683 1979.5 651.5Q1981 620 1981 585ZM1172 1181Q1172 1156 1158.0 1125.0Q1144 1094 1120.5 1062.0Q1097 1030 1067.0 999.0Q1037 968 1005.5 944.0Q974 920 943.0 905.5Q912 891 887 891Q861 891 836.5 893.0Q812 895 787 897L587 908Q578 908 567.0 917.5Q556 927 547.0 940.0Q538 953 531.5 966.5Q525 980 525 988Q525 997 528.5 1004.0Q532 1011 536.5 1017.0Q541 1023 544.5 1028.0Q548 1033 548 1038Q548 1040 546.5 1041.5Q545 1043 543 1045Q502 1073 474.0 1101.5Q446 1130 425 1176L473 1258L543 1294H615Q646 1332 692.0 1368.0Q738 1404 781 1427L970 1442Q997 1421 1032.0 1391.5Q1067 1362 1098.0 1328.0Q1129 1294 1150.5 1256.5Q1172 1219 1172 1181ZM974 0V431H1119V0Z" style="fill:#e5e5e5;stroke:none" transform="scale(1,-1) translate(0,-256)" /></svg>