<?xml version="1.0" encoding="utf-8" ?>
<svg baseProfile="full" height="256" version="1.1" width="256" xmlns="http://www.w3.org/2000/svg" xmlns:ev="http://www.w3.org/2001/xml-events" xmlns:xlink="http://www.w3.org/1999/xlink"><defs /><path d="M400 1524Q400 1565 415.5 1601.5Q431 1638 458.0 1665.5Q485 1693 521.5 1709.0Q558 1725 600 1725Q621 1725 638.0 1721.0Q655 1717 675 1710Q750 1683 822.5 1667.0Q895 1651 975 1651Q1055 1651 1127.0 1667.0Q1199 1683 1274 1710Q1294 1717 1311.5 1721.0Q1329 1725 1350 1725Q1396 1725 1433.0 1708.0Q1470 1691 1496.0 1661.5Q1522 1632 1536.0 1593.0Q1550 1554 1550 1510Q1550 1401 1538.5 1292.5Q1527 1184 1502 1078Q1488 1017 1464.5 945.5Q1441 874 1407.5 802.0Q1374 730 1330.5 663.0Q1287 596 1233.5 544.5Q1180 493 1115.5 462.0Q1051 431 975 431Q899 431 834.5 462.0Q770 493 716.5 544.5Q663 596 619.5 663.0Q576 730 542.5 802.0Q509 874 485.5 945.5Q462 1017 448 1078Q423 1184 411.5 1292.5Q400 1401 400 1510Z" style="fill:#00bcf2;stroke:none" transform="scale(1,-1) translate(0,-256)" /></svg>