<?xml version="1.0" encoding="utf-8" ?>
<svg baseProfile="full" height="256" version="1.1" width="256" xmlns="http://www.w3.org/2000/svg" xmlns:ev="http://www.w3.org/2001/xml-events" xmlns:xlink="http://www.w3.org/1999/xlink"><defs /><path d="M2556 1581V791Q2556 666 2542.0 542.0Q2528 418 2497 297Q2477 220 2446.5 136.5Q2416 53 2373.5 -28.0Q2331 -109 2276.5 -182.0Q2222 -255 2155.0 -310.5Q2088 -366 2008.5 -398.5Q1929 -431 1837 -431Q1741 -431 1659.5 -396.5Q1578 -362 1509.5 -304.0Q1441 -246 1386.5 -169.5Q1332 -93 1289.5 -8.5Q1247 76 1217.0 163.5Q1187 251 1169 330Q1123 310 1073.5 299.0Q1024 288 973 288Q956 288 938.0 289.0Q920 290 903 293V-215H771L651 -95L531 -215H400V72H328V967Q328 979 323.5 990.5Q319 1002 316 1013Q308 1042 301.5 1072.0Q295 1102 290 1132Q256 1317 256 1510V1524Q256 1595 283.0 1657.5Q310 1720 357.0 1767.0Q404 1814 467.0 1841.5Q530 1869 601 1869Q635 1869 666.5 1862.0Q698 1855 730 1843Q790 1820 849.5 1807.5Q909 1795 974 1795Q1039 1795 1099.5 1807.5Q1160 1820 1220 1843Q1252 1855 1283.5 1862.0Q1315 1869 1349 1869Q1425 1869 1488.5 1840.5Q1552 1812 1597.5 1763.0Q1643 1714 1668.0 1648.5Q1693 1583 1693 1510Q1693 1407 1683.5 1305.5Q1674 1204 1654 1103Q1699 1089 1745.0 1083.0Q1791 1077 1839 1077Q1949 1077 2053 1113V1222H1981V1869H2112L2233 1749L2353 1869H2484V1581Z" style="fill:#000000;stroke:none" transform="scale(1,-1) translate(0,-256)" /></svg>