<?xml version="1.0" encoding="utf-8" ?>
<svg baseProfile="full" height="256" version="1.1" width="256" xmlns="http://www.w3.org/2000/svg" xmlns:ev="http://www.w3.org/2001/xml-events" xmlns:xlink="http://www.w3.org/1999/xlink"><defs /><path d="M723 1258Q680 1258 642.5 1239.0Q605 1220 579 1186H543Q543 1223 557.0 1256.0Q571 1289 595.5 1313.5Q620 1338 653.0 1352.0Q686 1366 723 1366Q760 1366 793.0 1352.0Q826 1338 850.5 1313.5Q875 1289 889.0 1256.0Q903 1223 903 1186H867Q841 1220 803.5 1239.0Q766 1258 723 1258ZM975 848Q1026 848 1071.5 871.0Q1117 894 1147 935H1190Q1190 890 1173.0 851.0Q1156 812 1127.0 782.5Q1098 753 1059.0 736.0Q1020 719 975 719Q930 719 891.0 736.0Q852 753 822.5 782.5Q793 812 776.0 851.0Q759 890 759 935H802Q833 894 878.5 871.0Q924 848 975 848ZM1226 1258Q1184 1258 1146.0 1239.5Q1108 1221 1083 1186H1047Q1047 1223 1061.0 1256.0Q1075 1289 1099.5 1313.5Q1124 1338 1156.5 1352.0Q1189 1366 1226 1366Q1263 1366 1296.0 1352.0Q1329 1338 1353.5 1313.5Q1378 1289 1392.0 1256.0Q1406 1223 1406 1186H1370Q1344 1220 1306.5 1239.0Q1269 1258 1226 1258Z" style="fill:#0063b1;stroke:none" transform="scale(1,-1) translate(0,-256)" /></svg>