<?xml version="1.0" encoding="utf-8" ?>
<svg baseProfile="full" height="256" version="1.1" width="256" xmlns="http://www.w3.org/2000/svg" xmlns:ev="http://www.w3.org/2001/xml-events" xmlns:xlink="http://www.w3.org/1999/xlink"><defs /><path d="M1478 1066 1723 821Q1743 801 1754.0 774.5Q1765 748 1765 719Q1765 689 1753.5 662.5Q1742 636 1722.5 616.5Q1703 597 1677.0 586.0Q1651 575 1621 575Q1596 575 1576.5 582.0Q1557 589 1540.5 600.5Q1524 612 1509.0 627.0Q1494 642 1478 659ZM1226 647Q1241 647 1251.5 636.5Q1262 626 1262 611V360H1190V611Q1190 626 1200.5 636.5Q1211 647 1226 647ZM939 647Q954 647 964.5 636.5Q975 626 975 611V360H903V611Q903 626 913.5 636.5Q924 647 939 647ZM651 719Q666 719 676.5 708.5Q687 698 687 683V503H615V683Q615 698 625.5 708.5Q636 719 651 719Z" style="fill:#d48c00;stroke:none" transform="scale(1,-1) translate(0,-256)" /></svg>