<?xml version="1.0" encoding="utf-8" ?>
<svg baseProfile="full" height="256" version="1.1" width="256" xmlns="http://www.w3.org/2000/svg" xmlns:ev="http://www.w3.org/2001/xml-events" xmlns:xlink="http://www.w3.org/1999/xlink"><defs /><path d="M256 647V1869H1262V1581Q1262 1567 1263.5 1549.0Q1265 1531 1268.5 1513.0Q1272 1495 1278.5 1478.5Q1285 1462 1295 1452L1825 922Q1866 881 1887.5 828.5Q1909 776 1909 719Q1909 659 1886.5 607.0Q1864 555 1825.0 516.0Q1786 477 1734.0 454.5Q1682 432 1622 432V-179Q1622 -231 1602.0 -277.0Q1582 -323 1548.0 -357.0Q1514 -391 1468.0 -411.0Q1422 -431 1370 -431Q1318 -431 1272.0 -411.0Q1226 -391 1192.0 -357.0Q1158 -323 1138.0 -277.0Q1118 -231 1118 -179V216H831Q753 216 687.0 254.5Q621 293 582 360H543Q484 360 431.5 382.5Q379 405 340.0 444.0Q301 483 278.5 535.5Q256 588 256 647Z" style="fill:#000000;stroke:none" transform="scale(1,-1) translate(0,-256)" /></svg>