<?xml version="1.0" encoding="utf-8" ?>
<svg baseProfile="full" height="256" version="1.1" width="256" xmlns="http://www.w3.org/2000/svg" xmlns:ev="http://www.w3.org/2001/xml-events" xmlns:xlink="http://www.w3.org/1999/xlink"><defs /><path d="M543 1438H1550Q1550 1359 1532.0 1289.5Q1514 1220 1481.0 1158.5Q1448 1097 1401.5 1041.5Q1355 986 1298 935Q1257 898 1224.0 858.5Q1191 819 1167.5 775.0Q1144 731 1131.0 681.5Q1118 632 1118 575V72Q1118 42 1139.5 21.0Q1161 0 1190 0Q1180 -12 1162.5 -20.0Q1145 -28 1125.5 -32.0Q1106 -36 1086.0 -37.5Q1066 -39 1051 -39Q1034 -39 1013.5 -37.5Q993 -36 972.5 -32.0Q952 -28 933.5 -20.0Q915 -12 903 0Q933 0 954.0 21.0Q975 42 975 72V575Q975 632 962.0 681.5Q949 731 925.5 775.0Q902 819 869.0 858.5Q836 898 795 935Q738 986 691.5 1041.5Q645 1097 612.0 1158.5Q579 1220 561.0 1289.5Q543 1359 543 1438Z" style="fill:#ffc83d;stroke:none" transform="scale(1,-1) translate(0,-256)" /></svg>