<?xml version="1.0" encoding="utf-8" ?>
<svg baseProfile="full" height="256" version="1.1" width="256" xmlns="http://www.w3.org/2000/svg" xmlns:ev="http://www.w3.org/2001/xml-events" xmlns:xlink="http://www.w3.org/1999/xlink"><defs /><path d="M472 -72Q472 -6 485.0 60.0Q498 126 523.0 188.5Q548 251 584.0 308.0Q620 365 665 413Q688 437 712.0 458.5Q736 480 759 503Q794 540 812.5 586.0Q831 632 831 683Q831 734 812.5 780.0Q794 826 759 863Q736 886 712.0 907.5Q688 929 665 953Q620 1001 584.0 1058.0Q548 1115 523.0 1177.5Q498 1240 485.0 1306.0Q472 1372 472 1438Q520 1475 593.0 1500.0Q666 1525 745.5 1540.5Q825 1556 904.0 1562.5Q983 1569 1043 1569Q1084 1569 1134.0 1566.0Q1184 1563 1237.0 1556.5Q1290 1550 1344.0 1540.0Q1398 1530 1449.0 1515.5Q1500 1501 1544.0 1481.5Q1588 1462 1622 1438Q1622 1373 1608.5 1307.0Q1595 1241 1570.0 1178.0Q1545 1115 1509.0 1058.0Q1473 1001 1428 953Q1405 929 1381.0 907.5Q1357 886 1334 863Q1299 826 1280.5 780.0Q1262 734 1262 683Q1262 632 1280.5 586.0Q1299 540 1334 503Q1357 480 1381.0 458.5Q1405 437 1428 413Q1473 365 1509.0 308.0Q1545 251 1570.0 188.0Q1595 125 1608.5 59.0Q1622 -7 1622 -72Q1591 -102 1548.0 -124.0Q1505 -146 1454.5 -162.0Q1404 -178 1349.5 -188.5Q1295 -199 1241.5 -205.0Q1188 -211 1137.5 -213.5Q1087 -216 1046 -216Q985 -216 904.5 -210.0Q824 -204 743.0 -188.5Q662 -173 589.5 -145.0Q517 -117 472 -72Z" style="fill:#f2f2f2;stroke:none" transform="scale(1,-1) translate(0,-256)" /></svg>