<?xml version="1.0" encoding="utf-8" ?>
<svg baseProfile="full" height="256" version="1.1" width="256" xmlns="http://www.w3.org/2000/svg" xmlns:ev="http://www.w3.org/2001/xml-events" xmlns:xlink="http://www.w3.org/1999/xlink"><defs /><path d="M543 -72Q543 -43 564.5 -21.5Q586 0 615 0H1478Q1508 0 1529.0 -21.0Q1550 -42 1550 -72ZM1406 1186Q1406 1171 1395.5 1160.5Q1385 1150 1370 1150Q1355 1150 1344.5 1160.5Q1334 1171 1334 1186Q1334 1201 1344.5 1211.5Q1355 1222 1370 1222Q1385 1222 1395.5 1211.5Q1406 1201 1406 1186ZM1190 1186Q1190 1171 1179.5 1160.5Q1169 1150 1154 1150Q1140 1150 1129.0 1161.0Q1118 1172 1118 1186Q1118 1200 1129.0 1211.0Q1140 1222 1154 1222Q1169 1222 1179.5 1211.5Q1190 1201 1190 1186ZM1190 971Q1190 956 1179.5 945.5Q1169 935 1154 935Q1140 935 1129.0 946.0Q1118 957 1118 971Q1118 985 1129.0 995.5Q1140 1006 1154 1006Q1168 1006 1179.0 995.5Q1190 985 1190 971Z" style="fill:#ffd679;stroke:none" transform="scale(1,-1) translate(0,-256)" /></svg>