<?xml version="1.0" encoding="utf-8" ?>
<svg baseProfile="full" height="256" version="1.1" width="256" xmlns="http://www.w3.org/2000/svg" xmlns:ev="http://www.w3.org/2001/xml-events" xmlns:xlink="http://www.w3.org/1999/xlink"><defs /><path d="M1622 1578V1438H1544Q1497 1405 1435.0 1382.0Q1373 1359 1306.0 1345.0Q1239 1331 1172.5 1324.5Q1106 1318 1049 1318Q992 1318 924.5 1324.5Q857 1331 789.5 1345.5Q722 1360 659.0 1383.0Q596 1406 548 1438H472V1578ZM472 -213V-72H547Q568 -63 606.0 -56.5Q644 -50 690.5 -45.5Q737 -41 788.5 -39.0Q840 -37 888.5 -35.5Q937 -34 978.0 -34.0Q1019 -34 1046 -34Q1072 -34 1113.5 -34.5Q1155 -35 1203.5 -36.0Q1252 -37 1303.0 -39.5Q1354 -42 1401.0 -46.0Q1448 -50 1485.5 -56.5Q1523 -63 1545 -72H1622V-213Z" style="fill:#af0d1a;stroke:none" transform="scale(1,-1) translate(0,-256)" /></svg>