<?xml version="1.0" encoding="utf-8" ?>
<svg baseProfile="full" height="256" version="1.1" width="256" xmlns="http://www.w3.org/2000/svg" xmlns:ev="http://www.w3.org/2001/xml-events" xmlns:xlink="http://www.w3.org/1999/xlink"><defs /><path d="M877 790Q908 821 950.5 848.0Q993 875 1041.0 894.5Q1089 914 1138.0 925.0Q1187 936 1231 936H1239Q1208 905 1165.5 878.5Q1123 852 1075.0 832.5Q1027 813 977.5 801.5Q928 790 885 790ZM1458 324Q1506 344 1556.5 352.0Q1607 360 1658 360Q1709 360 1759.5 351.5Q1810 343 1857 323Q1810 303 1759.5 295.5Q1709 288 1658 288Q1607 288 1556.0 296.0Q1505 304 1458 324Z" style="fill:#ffffff;stroke:none" transform="scale(1,-1) translate(0,-256)" /></svg>