<?xml version="1.0" encoding="utf-8" ?>
<svg baseProfile="full" height="256" version="1.1" width="256" xmlns="http://www.w3.org/2000/svg" xmlns:ev="http://www.w3.org/2001/xml-events" xmlns:xlink="http://www.w3.org/1999/xlink"><defs /><path d="M2412 360V288Q2412 187 2380.5 105.0Q2349 23 2294.0 -41.0Q2239 -105 2165.5 -151.5Q2092 -198 2008.0 -228.5Q1924 -259 1834.0 -274.0Q1744 -289 1657 -289Q1570 -289 1480.5 -274.0Q1391 -259 1307.0 -228.5Q1223 -198 1149.5 -151.5Q1076 -105 1021.0 -41.0Q966 23 934.5 105.0Q903 187 903 288V360Q903 307 929.0 263.5Q955 220 997.0 184.5Q1039 149 1093.0 121.5Q1147 94 1202.5 74.0Q1258 54 1310.5 41.0Q1363 28 1403 21Q1529 0 1658 0Q1786 0 1912 21Q1952 28 2005.0 41.5Q2058 55 2113.5 75.0Q2169 95 2222.5 122.5Q2276 150 2318.0 185.0Q2360 220 2386.0 264.0Q2412 308 2412 360ZM1810 948Q1810 892 1785.0 832.5Q1760 773 1718.5 714.5Q1677 656 1622.5 601.0Q1568 546 1510.0 499.5Q1452 453 1394.5 418.0Q1337 383 1288 365Q1235 345 1171.0 328.5Q1107 312 1040.0 300.5Q973 289 907.5 282.5Q842 276 785 276Q739 276 687.0 281.5Q635 287 587.0 302.5Q539 318 499.5 347.5Q460 377 439 425Q399 516 399 615Q399 718 439.5 808.5Q480 899 548.5 974.5Q617 1050 707.0 1109.0Q797 1168 895.5 1209.5Q994 1251 1095.0 1272.5Q1196 1294 1286 1294Q1365 1294 1442.5 1277.5Q1520 1261 1588.0 1226.0Q1656 1191 1711.5 1136.5Q1767 1082 1801 1006Q1807 993 1808.5 977.5Q1810 962 1810 948Z" style="fill:#eba300;stroke:none" transform="scale(1,-1) translate(0,-256)" /></svg>