<?xml version="1.0" encoding="utf-8" ?>
<svg baseProfile="full" height="256" version="1.1" width="256" xmlns="http://www.w3.org/2000/svg" xmlns:ev="http://www.w3.org/2001/xml-events" xmlns:xlink="http://www.w3.org/1999/xlink"><defs /><path d="M903 360Q903 408 925.5 449.0Q948 490 984.5 523.5Q1021 557 1068.0 584.0Q1115 611 1164.5 631.0Q1214 651 1261.0 665.0Q1308 679 1346 687Q1423 704 1501.0 711.5Q1579 719 1658 719Q1736 719 1814.0 711.5Q1892 704 1969 687Q2006 679 2053.5 665.0Q2101 651 2150.5 631.0Q2200 611 2247.0 584.0Q2294 557 2330.5 523.5Q2367 490 2389.5 449.0Q2412 408 2412 360Q2412 272 2374.5 205.5Q2337 139 2275.5 91.0Q2214 43 2134.5 10.5Q2055 -22 1971.0 -41.0Q1887 -60 1805.5 -68.0Q1724 -76 1658 -76Q1591 -76 1509.0 -68.0Q1427 -60 1343.5 -41.0Q1260 -22 1180.5 10.0Q1101 42 1039.5 90.5Q978 139 940.5 205.5Q903 272 903 360Z" style="fill:#f7d7c4;stroke:none" transform="scale(1,-1) translate(0,-256)" /></svg>