<?xml version="1.0" encoding="utf-8" ?>
<svg baseProfile="full" height="256" version="1.1" width="256" xmlns="http://www.w3.org/2000/svg" xmlns:ev="http://www.w3.org/2001/xml-events" xmlns:xlink="http://www.w3.org/1999/xlink"><defs /><path d="M1981 360Q1981 331 1962.5 309.5Q1944 288 1915.0 272.0Q1886 256 1849.5 245.0Q1813 234 1777.0 227.5Q1741 221 1709.5 218.5Q1678 216 1658 216Q1626 216 1576.5 221.5Q1527 227 1477.5 241.0Q1428 255 1388.0 279.0Q1348 303 1337 340Q1278 314 1215.0 291.5Q1152 269 1087.0 252.0Q1022 235 956.0 225.5Q890 216 825 216Q768 216 712.0 225.5Q656 235 605.5 257.5Q555 280 514.0 317.0Q473 354 446 409Q478 383 514.5 366.0Q551 349 590.0 338.5Q629 328 670.0 323.5Q711 319 751 319Q872 319 996.0 350.0Q1120 381 1231 426Q1285 448 1348.5 479.5Q1412 511 1475.5 550.5Q1539 590 1598.0 637.5Q1657 685 1702.5 740.0Q1748 795 1775.0 857.0Q1802 919 1802 988Q1802 993 1801.5 997.0Q1801 1001 1801 1006Q1818 971 1827.5 935.0Q1837 899 1837 861Q1837 805 1818.0 754.0Q1799 703 1768.0 658.0Q1737 613 1697.5 573.5Q1658 534 1616 502Q1627 503 1637.0 503.0Q1647 503 1658 503Q1677 503 1709.0 500.5Q1741 498 1776.5 491.5Q1812 485 1848.5 474.5Q1885 464 1914.5 448.0Q1944 432 1962.5 410.0Q1981 388 1981 360ZM884 720Q864 720 840.0 723.0Q816 726 795.0 735.0Q774 744 759.5 759.5Q745 775 745 801Q745 838 772.5 873.0Q800 908 839.0 937.5Q878 967 919.5 989.0Q961 1011 990 1023Q1040 1043 1095.5 1056.5Q1151 1070 1205 1070Q1224 1070 1248.0 1067.0Q1272 1064 1293.5 1055.0Q1315 1046 1329.5 1030.0Q1344 1014 1344 989Q1344 965 1331.0 941.0Q1318 917 1297.0 895.0Q1276 873 1250.0 853.0Q1224 833 1196.5 816.5Q1169 800 1143.5 787.5Q1118 775 1099 767Q1049 747 993.5 733.5Q938 720 884 720Z" style="fill:#d48c00;stroke:none" transform="scale(1,-1) translate(0,-256)" /></svg>