<?xml version="1.0" encoding="utf-8" ?>
<svg baseProfile="full" height="256" version="1.1" width="256" xmlns="http://www.w3.org/2000/svg" xmlns:ev="http://www.w3.org/2001/xml-events" xmlns:xlink="http://www.w3.org/1999/xlink"><defs /><path d="M1658 -431Q1526 -431 1392.0 -402.5Q1258 -374 1140.5 -313.5Q1023 -253 931.5 -157.5Q840 -62 794 73Q715 76 641.0 94.0Q567 112 503.5 148.0Q440 184 389.5 238.5Q339 293 307 369Q282 428 269.0 489.5Q256 551 256 615Q256 740 301.5 849.5Q347 959 425.0 1050.0Q503 1141 606.0 1213.0Q709 1285 824.0 1335.0Q939 1385 1058.5 1411.0Q1178 1437 1289 1437Q1396 1437 1496.0 1413.0Q1596 1389 1681.0 1340.0Q1766 1291 1833.5 1216.0Q1901 1141 1944 1038Q1981 949 1981 857Q1981 851 1980.5 844.5Q1980 838 1980 832Q2038 820 2103.0 800.5Q2168 781 2232.0 752.5Q2296 724 2355.0 685.5Q2414 647 2458.5 598.5Q2503 550 2529.5 490.5Q2556 431 2556 360V288Q2556 165 2519.5 64.0Q2483 -37 2419.5 -117.0Q2356 -197 2270.0 -256.0Q2184 -315 2084.0 -354.0Q1984 -393 1875.5 -412.0Q1767 -431 1658 -431Z" style="fill:#000000;stroke:none" transform="scale(1,-1) translate(0,-256)" /></svg>