<?xml version="1.0" encoding="utf-8" ?>
<svg baseProfile="full" height="256" version="1.1" width="256" xmlns="http://www.w3.org/2000/svg" xmlns:ev="http://www.w3.org/2001/xml-events" xmlns:xlink="http://www.w3.org/1999/xlink"><defs /><path d="M1406 -215Q1257 -215 1126.5 -158.5Q996 -102 898.0 -4.5Q800 93 743.5 223.5Q687 354 687 503Q687 671 736.0 826.5Q785 982 882 1120Q843 1106 812.0 1089.0Q781 1072 754.0 1051.0Q727 1030 702.0 1005.5Q677 981 650 954Q627 930 606.5 913.0Q586 896 565.5 884.5Q545 873 522.5 868.0Q500 863 472 863Q427 863 388.0 880.0Q349 897 319.5 926.0Q290 955 273.0 994.0Q256 1033 256 1078Q256 1121 269.0 1151.5Q282 1182 306 1216Q365 1299 450.5 1366.5Q536 1434 635.0 1481.5Q734 1529 840.0 1555.0Q946 1581 1047 1581Q1139 1581 1229.0 1566.0Q1319 1551 1406 1520Q1493 1551 1583.0 1566.0Q1673 1581 1765 1581Q1865 1581 1971.5 1555.0Q2078 1529 2177.0 1481.5Q2276 1434 2361.5 1366.5Q2447 1299 2506 1216Q2530 1182 2543.0 1151.5Q2556 1121 2556 1078Q2556 1033 2539.0 994.0Q2522 955 2492.5 926.0Q2463 897 2424.0 880.0Q2385 863 2340 863Q2312 863 2289.5 868.0Q2267 873 2247.5 883.0Q2228 893 2210.5 907.5Q2193 922 2174 941Q2145 971 2118.0 996.5Q2091 1022 2062.5 1044.5Q2034 1067 2002.0 1086.0Q1970 1105 1930 1120Q2027 982 2076.0 826.5Q2125 671 2125 503Q2125 404 2099.0 312.5Q2073 221 2026.5 141.0Q1980 61 1914.0 -4.5Q1848 -70 1768.5 -117.0Q1689 -164 1597.0 -189.5Q1505 -215 1406 -215ZM1406 1041Q1339 996 1285.5 937.0Q1232 878 1195.0 808.0Q1158 738 1138.0 661.0Q1118 584 1118 503Q1118 444 1141.0 392.0Q1164 340 1203.5 301.0Q1243 262 1295.0 239.0Q1347 216 1406 216Q1465 216 1517.5 238.5Q1570 261 1609.0 300.0Q1648 339 1670.5 391.5Q1693 444 1693 503Q1693 584 1673.5 661.5Q1654 739 1617.5 808.5Q1581 878 1527.5 937.0Q1474 996 1406 1041Z" style="fill:#000000;stroke:none" transform="scale(1,-1) translate(0,-256)" /></svg>