<?xml version="1.0" encoding="utf-8" ?>
<svg baseProfile="full" height="256" version="1.1" width="256" xmlns="http://www.w3.org/2000/svg" xmlns:ev="http://www.w3.org/2001/xml-events" xmlns:xlink="http://www.w3.org/1999/xlink"><defs /><path d="M1406 -72Q1287 -72 1182.5 -26.5Q1078 19 1000.0 97.0Q922 175 876.5 279.5Q831 384 831 503Q831 617 858.5 727.0Q886 837 938.0 936.5Q990 1036 1065.0 1121.0Q1140 1206 1234 1271Q1140 1294 1047 1294Q920 1294 806.0 1246.0Q692 1198 601 1110Q581 1091 564.0 1070.5Q547 1050 527 1032Q514 1020 502.0 1013.5Q490 1007 472 1007Q442 1007 421.0 1028.0Q400 1049 400 1079Q400 1096 411.5 1116.0Q423 1136 439.5 1154.5Q456 1173 474.0 1189.5Q492 1206 504 1217Q621 1323 754.5 1380.5Q888 1438 1047 1438Q1140 1438 1230.0 1419.5Q1320 1401 1406 1366Q1492 1401 1582.0 1419.5Q1672 1438 1765 1438Q1923 1438 2058.0 1380.5Q2193 1323 2308 1217L2314 1211Q2327 1199 2344.0 1183.0Q2361 1167 2376.0 1149.0Q2391 1131 2401.5 1112.5Q2412 1094 2412 1079Q2412 1049 2391.0 1028.0Q2370 1007 2340 1007Q2322 1007 2310.0 1013.5Q2298 1020 2285 1032Q2265 1050 2248.0 1070.5Q2231 1091 2211 1110Q2120 1198 2006.0 1246.0Q1892 1294 1765 1294Q1672 1294 1578 1271Q1672 1206 1747.0 1120.5Q1822 1035 1874.0 936.0Q1926 837 1953.5 727.0Q1981 617 1981 503Q1981 384 1935.5 279.5Q1890 175 1812.0 97.0Q1734 19 1629.0 -26.5Q1524 -72 1406 -72ZM1406 1207Q1307 1156 1227.5 1081.5Q1148 1007 1091.5 915.5Q1035 824 1005.0 719.0Q975 614 975 503Q975 414 1009.0 335.5Q1043 257 1101.5 198.5Q1160 140 1238.5 106.0Q1317 72 1406 72Q1495 72 1573.5 106.0Q1652 140 1710.5 198.5Q1769 257 1803.0 335.5Q1837 414 1837 503Q1837 614 1807.0 719.0Q1777 824 1720.5 915.5Q1664 1007 1584.5 1081.5Q1505 1156 1406 1207Z" style="fill:#00bcf2;stroke:none" transform="scale(1,-1) translate(0,-256)" /></svg>