<?xml version="1.0" encoding="utf-8" ?>
<svg baseProfile="full" height="256" version="1.1" width="256" xmlns="http://www.w3.org/2000/svg" xmlns:ev="http://www.w3.org/2001/xml-events" xmlns:xlink="http://www.w3.org/1999/xlink"><defs /><path d="M975 253Q975 273 984.0 286.0Q993 299 1007 312Q1041 342 1091.0 364.5Q1141 387 1196.0 401.5Q1251 416 1306.5 423.5Q1362 431 1406 431Q1450 431 1505.5 423.5Q1561 416 1616.0 401.5Q1671 387 1721.0 364.5Q1771 342 1805 312Q1819 299 1828.0 286.0Q1837 273 1837 253Q1837 224 1815.5 202.5Q1794 181 1765 181Q1753 181 1744.5 184.5Q1736 188 1725 193L1711 200Q1671 220 1636.5 236.0Q1602 252 1566.5 263.5Q1531 275 1492.5 281.5Q1454 288 1406 288Q1359 288 1321.5 282.0Q1284 276 1250.5 265.0Q1217 254 1183.5 239.0Q1150 224 1112 205L1087 193Q1076 191 1067.0 186.0Q1058 181 1047 181Q1017 181 996.0 202.0Q975 223 975 253ZM1119 827Q1119 805 1110.5 785.5Q1102 766 1087.0 751.0Q1072 736 1052.5 727.5Q1033 719 1011 719Q988 719 968.5 727.5Q949 736 934.5 750.5Q920 765 911.5 784.5Q903 804 903 827V971Q903 993 911.5 1013.0Q920 1033 935.0 1047.0Q950 1061 969.5 1069.5Q989 1078 1011 1078Q1033 1078 1052.5 1069.5Q1072 1061 1087.0 1046.5Q1102 1032 1110.5 1012.5Q1119 993 1119 971ZM1801 1078Q1823 1078 1842.5 1069.5Q1862 1061 1877.0 1047.0Q1892 1033 1900.5 1013.0Q1909 993 1909 971V827Q1909 804 1900.5 784.5Q1892 765 1877.5 750.5Q1863 736 1843.0 727.5Q1823 719 1801 719Q1778 719 1758.5 727.5Q1739 736 1725.0 751.0Q1711 766 1702.5 785.5Q1694 805 1694 827V971Q1694 993 1702.5 1012.5Q1711 1032 1725.5 1046.5Q1740 1061 1759.5 1069.5Q1779 1078 1801 1078Z" style="fill:#000000;stroke:none" transform="scale(1,-1) translate(0,-256)" /></svg>