<?xml version="1.0" encoding="utf-8" ?>
<svg baseProfile="full" height="256" version="1.1" width="256" xmlns="http://www.w3.org/2000/svg" xmlns:ev="http://www.w3.org/2001/xml-events" xmlns:xlink="http://www.w3.org/1999/xlink"><defs /><path d="M2053 1527 2544 1036 2239 731 2228 742Q2194 636 2135.5 544.0Q2077 452 1999.0 378.0Q1921 304 1825.5 251.0Q1730 198 1622 171V-431H1190V171Q1082 198 986.5 251.0Q891 304 813.0 378.0Q735 452 676.5 544.0Q618 636 584 742L573 731L268 1036L759 1527L939 1347L1406 1815L1873 1347Z" style="fill:#000000;stroke:none" transform="scale(1,-1) translate(0,-256)" /></svg>