<?xml version="1.0" encoding="utf-8" ?>
<svg baseProfile="full" height="256" version="1.1" width="256" xmlns="http://www.w3.org/2000/svg" xmlns:ev="http://www.w3.org/2001/xml-events" xmlns:xlink="http://www.w3.org/1999/xlink"><defs /><path d="M603.1348266601562 -430.88592529296875Q531.1392211914062 -430.88592529296875 468.14306640625 -403.3876037597656Q405.14691162109375 -375.8892822265625 358.1497802734375 -328.89215087890625Q311.15264892578125 -281.89501953125 283.6543273925781 -218.89886474609375Q256.156005859375 -155.9027099609375 256.156005859375 -83.9071044921875Q256.156005859375 -14.91131591796875 282.6543884277344 48.584808349609375Q309.15277099609375 112.0809326171875 358.1497802734375 161.07794189453125L1879.0569458007812 1682.9850463867188Q1904.055419921875 1707.9835205078125 1936.053466796875 1717.98291015625L2366.0272216796875 1860.9741821289062Q2390.0257568359375 1868.9736938476562 2413.0243530273438 1868.9736938476562Q2442.0225830078125 1868.9736938476562 2468.02099609375 1857.4743957519531Q2494.0194091796875 1845.97509765625 2513.5182189941406 1826.4762878417969Q2533.0170288085938 1806.9774780273438 2544.516326904297 1780.9790649414062Q2556.015625 1754.9806518554688 2556.015625 1725.982421875Q2556.015625 1702.9838256835938 2548.01611328125 1678.9852905273438L2405.0248413085938 1249.0115356445312Q2395.0254516601562 1217.0134887695312 2370.0269775390625 1192.0150146484375L848.119873046875 -328.89215087890625Q746.1260986328125 -430.88592529296875 603.1348266601562 -430.88592529296875Z" style="fill:#000000;stroke:none" transform="scale(1,-1) translate(0,-256)" /></svg>