<?xml version="1.0" encoding="utf-8" ?>
<svg baseProfile="full" height="256" version="1.1" width="256" xmlns="http://www.w3.org/2000/svg" xmlns:ev="http://www.w3.org/2001/xml-events" xmlns:xlink="http://www.w3.org/1999/xlink"><defs /><path d="M400.147216796875 -83.9071044921875Q400.147216796875 -44.90948486328125 413.14642333984375 -13.411407470703125Q426.1456298828125 18.086669921875 446.1444091796875 44.585052490234375Q466.1431884765625 71.08343505859375 492.1416015625 95.08197021484375Q518.1400146484375 119.08050537109375 543.1384887695312 144.0789794921875L663.1311645507812 155.07830810546875L830.1209716796875 -22.91082763671875V-142.90350341796875Q805.1224975585938 -167.9019775390625 781.6239318847656 -193.900390625Q758.1253662109375 -219.8988037109375 731.6269836425781 -240.39755249023438Q705.1286010742188 -260.89630126953125 673.6305236816406 -273.8955078125Q642.1324462890625 -286.89471435546875 603.1348266601562 -286.89471435546875Q561.1373901367188 -286.89471435546875 524.1396484375 -270.89569091796875Q487.14190673828125 -254.89666748046875 459.6435852050781 -227.39834594726562Q432.145263671875 -199.9000244140625 416.146240234375 -162.90228271484375Q400.147216796875 -125.904541015625 400.147216796875 -83.9071044921875Z" style="fill:#e84757;stroke:none" transform="scale(1,-1) translate(0,-256)" /></svg>