<?xml version="1.0" encoding="utf-8" ?>
<svg baseProfile="full" height="256" version="1.1" width="256" xmlns="http://www.w3.org/2000/svg" xmlns:ev="http://www.w3.org/2001/xml-events" xmlns:xlink="http://www.w3.org/1999/xlink"><defs /><path d="M1909 1405Q1945 1327 1963.0 1244.5Q1981 1162 1981 1076V349Q2050 264 2087.5 162.5Q2125 61 2125 -48V-431H256V-48Q256 61 293.5 162.5Q331 264 400 349V1076Q400 1162 418.0 1244.5Q436 1327 472 1405V1493Q437 1523 418.5 1565.0Q400 1607 400 1653V1869H1981V1653Q1981 1608 1962.0 1565.5Q1943 1523 1909 1493Z" style="fill:#000000;stroke:none" transform="scale(1,-1) translate(0,-256)" /></svg>