<?xml version="1.0" encoding="utf-8" ?>
<svg baseProfile="full" height="256" version="1.1" width="256" xmlns="http://www.w3.org/2000/svg" xmlns:ev="http://www.w3.org/2001/xml-events" xmlns:xlink="http://www.w3.org/1999/xlink"><defs /><path d="M1658 1546 1765 1510V862Q1765 833 1743.5 812.0Q1722 791 1693 791Q1664 791 1643.0 812.0Q1622 833 1622 862V1006Q1622 1036 1610.5 1062.0Q1599 1088 1579.5 1107.5Q1560 1127 1534.0 1138.5Q1508 1150 1478 1150H1441Q1421 1150 1402.0 1152.0Q1383 1154 1368.0 1161.5Q1353 1169 1343.5 1183.5Q1334 1198 1334 1222Q1334 1252 1355.0 1273.0Q1376 1294 1406 1294Q1435 1294 1461.0 1305.0Q1487 1316 1507.0 1335.5Q1527 1355 1538.5 1381.0Q1550 1407 1550 1436V1510ZM1047 1223Q1047 1198 1038.0 1184.0Q1029 1170 1014.0 1162.5Q999 1155 980.0 1153.0Q961 1151 942 1151H903Q873 1151 846.5 1139.5Q820 1128 800.5 1108.5Q781 1089 770.0 1062.5Q759 1036 759 1006V862Q759 833 737.5 812.0Q716 791 687 791Q658 791 636.5 812.0Q615 833 615 862V1510L733 1536L831 1510V1436Q831 1407 842.5 1381.0Q854 1355 874.0 1336.0Q894 1317 920.0 1306.0Q946 1295 975 1295Q1004 1295 1025.5 1273.5Q1047 1252 1047 1223Z" style="fill:#eba300;stroke:none" transform="scale(1,-1) translate(0,-256)" /></svg>