<?xml version="1.0" encoding="utf-8" ?>
<svg baseProfile="full" height="256" version="1.1" width="256" xmlns="http://www.w3.org/2000/svg" xmlns:ev="http://www.w3.org/2001/xml-events" xmlns:xlink="http://www.w3.org/1999/xlink"><defs /><path d="M1262 718Q1262 688 1241.0 667.0Q1220 646 1190 646Q1161 646 1139.5 667.5Q1118 689 1118 718Q1118 747 1139.5 768.5Q1161 790 1190 790Q1220 790 1241.0 769.0Q1262 748 1262 718ZM1550 1077V1062Q1550 1040 1541.5 1020.5Q1533 1001 1518.0 986.0Q1503 971 1483.5 962.5Q1464 954 1442 954Q1419 954 1399.5 962.5Q1380 971 1365.5 985.5Q1351 1000 1342.5 1019.5Q1334 1039 1334 1062V1077H1365Q1365 1045 1387.5 1022.5Q1410 1000 1442 1000Q1474 1000 1496.5 1022.5Q1519 1045 1519 1077ZM939 1000Q982 1000 999.0 1016.5Q1016 1033 1016 1077H1047V1061Q1047 1039 1038.5 1019.5Q1030 1000 1015.0 985.0Q1000 970 980.5 961.5Q961 953 939 953Q917 953 897.5 961.5Q878 970 863.0 985.0Q848 1000 839.5 1019.5Q831 1039 831 1061V1077H862Q862 1032 878.0 1016.0Q894 1000 939 1000Z" style="fill:#000000;stroke:none" transform="scale(1,-1) translate(0,-256)" /></svg>