<?xml version="1.0" encoding="utf-8" ?>
<svg baseProfile="full" height="256" version="1.1" width="256" xmlns="http://www.w3.org/2000/svg" xmlns:ev="http://www.w3.org/2001/xml-events" xmlns:xlink="http://www.w3.org/1999/xlink"><defs /><path d="M1262 1437Q1290 1377 1336.0 1324.5Q1382 1272 1439.0 1233.0Q1496 1194 1561.0 1171.5Q1626 1149 1693 1149V1007Q1693 903 1653.5 811.0Q1614 719 1545.5 650.5Q1477 582 1385.5 542.0Q1294 502 1190 502Q1086 502 994.0 542.0Q902 582 834.0 650.5Q766 719 726.5 811.0Q687 903 687 1007V1149Q792 1150 867.0 1206.5Q942 1263 973 1363Q994 1320 1024.5 1292.5Q1055 1265 1091.5 1249.0Q1128 1233 1170.0 1227.0Q1212 1221 1256 1221H1262ZM1334 430Q1364 430 1385.0 409.0Q1406 388 1406 358Q1406 343 1398 327L1254 39Q1245 21 1227.5 10.0Q1210 -1 1190 -1Q1170 -1 1152.5 10.0Q1135 21 1126 39L983 327Q975 343 975 358Q975 388 996.0 409.0Q1017 430 1047 430Z" style="fill:#ffc83d;stroke:none" transform="scale(1,-1) translate(0,-256)" /></svg>