<?xml version="1.0" encoding="utf-8" ?>
<svg baseProfile="full" height="256" version="1.1" width="256" xmlns="http://www.w3.org/2000/svg" xmlns:ev="http://www.w3.org/2001/xml-events" xmlns:xlink="http://www.w3.org/1999/xlink"><defs /><path d="M1550 789Q1550 759 1538.5 733.0Q1527 707 1507.5 687.5Q1488 668 1462.0 656.5Q1436 645 1406 645H1262Q1232 645 1206.0 656.5Q1180 668 1160.5 687.5Q1141 707 1129.5 733.0Q1118 759 1118 789V1292Q1118 1322 1129.5 1348.0Q1141 1374 1160.5 1393.5Q1180 1413 1206.0 1424.5Q1232 1436 1262 1436H1406Q1436 1436 1462.0 1424.5Q1488 1413 1507.5 1393.5Q1527 1374 1538.5 1348.0Q1550 1322 1550 1292Z" style="fill:#f495bf;stroke:none" transform="scale(1,-1) translate(0,-256)" /></svg>