<?xml version="1.0" encoding="utf-8" ?>
<svg baseProfile="full" height="256" version="1.1" width="256" xmlns="http://www.w3.org/2000/svg" xmlns:ev="http://www.w3.org/2001/xml-events" xmlns:xlink="http://www.w3.org/1999/xlink"><defs /><path d="M2412 638Q2412 588 2396.0 543.0Q2380 498 2351.0 462.0Q2322 426 2281.5 400.5Q2241 375 2192 365L2302 219Q2320 195 2330.0 166.5Q2340 138 2340 108Q2340 71 2326.0 38.0Q2312 5 2287.5 -19.5Q2263 -44 2230.5 -58.0Q2198 -72 2161 -72H1981V-179Q1981 -217 1967.0 -249.5Q1953 -282 1928.5 -306.5Q1904 -331 1871.0 -345.0Q1838 -359 1801 -359Q1764 -359 1726.0 -342.5Q1688 -326 1665 -297L1334 126L1007 -291Q981 -323 945.0 -341.0Q909 -359 867 -359Q829 -359 796.5 -345.0Q764 -331 739.5 -306.5Q715 -282 701.0 -249.5Q687 -217 687 -179V-72H508Q470 -72 437.5 -58.0Q405 -44 380.5 -19.5Q356 5 342.0 37.5Q328 70 328 108Q328 140 338.0 167.0Q348 194 367 219L476 365Q427 376 386.5 401.0Q346 426 317.0 462.0Q288 498 272.0 543.0Q256 588 256 638V1445Q256 1503 277.5 1554.0Q299 1605 336.5 1642.5Q374 1680 424.5 1702.0Q475 1724 534 1724Q566 1724 597.0 1717.0Q628 1710 657 1695L1052 1490Q1084 1524 1117.0 1542.5Q1150 1561 1185.0 1570.0Q1220 1579 1258.5 1580.5Q1297 1582 1341 1582Q1382 1582 1419.0 1579.5Q1456 1577 1489.5 1568.0Q1523 1559 1554.5 1540.5Q1586 1522 1616 1490L2009 1694Q2038 1709 2070.5 1716.5Q2103 1724 2135 1724Q2193 1724 2243.5 1702.0Q2294 1680 2331.5 1642.0Q2369 1604 2390.5 1553.5Q2412 1503 2412 1445Z" style="fill:#000000;stroke:none" transform="scale(1,-1) translate(0,-256)" /></svg>