<?xml version="1.0" encoding="utf-8" ?>
<svg baseProfile="full" height="256" version="1.1" width="256" xmlns="http://www.w3.org/2000/svg" xmlns:ev="http://www.w3.org/2001/xml-events" xmlns:xlink="http://www.w3.org/1999/xlink"><defs /><path d="M2268 1438V647H1801L2188 129Q2192 124 2194.5 118.5Q2197 113 2197 106Q2197 91 2186.5 80.5Q2176 70 2161 70H1837V-181Q1837 -196 1826.5 -206.5Q1816 -217 1801 -217Q1784 -217 1774 -204L1334 358L894 -204Q884 -217 867 -217Q852 -217 841.5 -206.5Q831 -196 831 -181V70H508Q493 70 482.5 80.5Q472 91 472 106Q472 118 480 129L867 645H400V1438Q400 1467 409.5 1492.5Q419 1518 436.5 1537.0Q454 1556 478.5 1567.0Q503 1578 533 1578Q565 1578 593 1564L1118 1292H1550L2075 1564Q2103 1578 2135 1578Q2165 1578 2189.5 1567.0Q2214 1556 2231.5 1537.0Q2249 1518 2258.5 1492.5Q2268 1467 2268 1438Z" style="fill:#ee3f86;stroke:none" transform="scale(1,-1) translate(0,-256)" /></svg>