<?xml version="1.0" encoding="utf-8" ?>
<svg baseProfile="full" height="256" version="1.1" width="256" xmlns="http://www.w3.org/2000/svg" xmlns:ev="http://www.w3.org/2001/xml-events" xmlns:xlink="http://www.w3.org/1999/xlink"><defs /><path d="M1478 1653Q1433 1653 1393 1640L966 1508L1352 1696Q1412 1725 1478 1725Q1537 1725 1589.5 1702.5Q1642 1680 1681.0 1641.0Q1720 1602 1742.5 1549.5Q1765 1497 1765 1438Q1765 1429 1765.0 1420.0Q1765 1411 1763 1402Q1756 1456 1731.0 1501.5Q1706 1547 1667.5 1581.0Q1629 1615 1580.5 1634.0Q1532 1653 1478 1653Z" style="fill:#cccccc;stroke:none" transform="scale(1,-1) translate(0,-256)" /></svg>