<?xml version="1.0" encoding="utf-8" ?>
<svg baseProfile="full" height="256" version="1.1" width="256" xmlns="http://www.w3.org/2000/svg" xmlns:ev="http://www.w3.org/2001/xml-events" xmlns:xlink="http://www.w3.org/1999/xlink"><defs /><path d="M903 360Q933 360 959.0 348.5Q985 337 1004.5 317.5Q1024 298 1035.0 272.0Q1046 246 1046 216Q1046 186 1035.0 160.0Q1024 134 1004.5 114.5Q985 95 959.0 83.5Q933 72 903 72Q873 72 846.5 83.0Q820 94 800.5 113.5Q781 133 770.0 159.5Q759 186 759 216Q759 246 770.5 272.0Q782 298 801.5 317.5Q821 337 847.0 348.5Q873 360 903 360ZM903 144Q932 144 953.5 165.5Q975 187 975 216Q975 245 953.5 266.5Q932 288 903 288Q873 288 852.0 267.0Q831 246 831 216Q831 186 852.0 165.0Q873 144 903 144ZM1478 1294H1154Q1140 1294 1129.0 1305.0Q1118 1316 1118 1330Q1118 1344 1129.0 1355.0Q1140 1366 1154 1366H1478Q1507 1366 1528.5 1387.5Q1550 1409 1550 1438Q1550 1453 1560.5 1463.5Q1571 1474 1586 1474Q1601 1474 1611.5 1463.5Q1622 1453 1622 1438Q1622 1408 1610.5 1382.0Q1599 1356 1579.5 1336.5Q1560 1317 1534.0 1305.5Q1508 1294 1478 1294ZM687 1114Q687 1092 678.5 1072.5Q670 1053 655.0 1038.0Q640 1023 620.5 1014.5Q601 1006 579 1006Q557 1006 537.5 1014.5Q518 1023 503.5 1038.0Q489 1053 480.5 1072.5Q472 1092 472 1114Q472 1136 480.5 1155.5Q489 1175 503.0 1190.0Q517 1205 536.5 1213.5Q556 1222 579 1222Q601 1222 621.0 1213.5Q641 1205 655.5 1190.5Q670 1176 678.5 1156.0Q687 1136 687 1114ZM914 683Q914 646 900.0 613.0Q886 580 861.5 555.5Q837 531 804.5 517.0Q772 503 735 503Q678 503 631.0 535.5Q584 568 565 622L470 888Q523 863 579 863Q638 863 692 889L827 957L904 744Q909 730 911.5 714.0Q914 698 914 683Z" style="fill:#757575;stroke:none" transform="scale(1,-1) translate(0,-256)" /></svg>