<?xml version="1.0" encoding="utf-8" ?>
<svg baseProfile="full" height="256" version="1.1" width="256" xmlns="http://www.w3.org/2000/svg" xmlns:ev="http://www.w3.org/2001/xml-events" xmlns:xlink="http://www.w3.org/1999/xlink"><defs /><path d="M795 288 903 320 986 288Q1007 230 1064 205Q1106 187 1130.0 152.0Q1154 117 1154 71Q1154 27 1130.0 -7.0Q1106 -41 1068 -61L615 -287H472Q442 -287 421.0 -266.0Q400 -245 400 -215Q400 -186 421.5 -165.0Q443 -144 472 -144Q483 -144 494.0 -144.5Q505 -145 516 -145Q542 -145 564.0 -138.0Q586 -131 599 -104ZM1455 1689H1488Q1546 1689 1596.5 1667.0Q1647 1645 1684.0 1606.5Q1721 1568 1742.0 1517.0Q1763 1466 1763 1408V1402Q1755 1348 1730.5 1302.0Q1706 1256 1668.5 1222.0Q1631 1188 1582.0 1169.0Q1533 1150 1478 1150H1053L660 953Q622 935 579 935Q542 935 509.5 949.0Q477 963 452.5 987.5Q428 1012 414.0 1044.5Q400 1077 400 1114Q400 1166 426.5 1209.0Q453 1252 499 1275L810 1430Q833 1442 851.5 1451.5Q870 1461 887.5 1470.0Q905 1479 924.0 1488.0Q943 1497 966 1508Q985 1517 1001.0 1524.0Q1017 1531 1032.5 1537.0Q1048 1543 1064.0 1549.0Q1080 1555 1100 1563L1367 1674Q1390 1684 1410.0 1686.5Q1430 1689 1455 1689Z" style="fill:#a6a6a6;stroke:none" transform="scale(1,-1) translate(0,-256)" /></svg>