<?xml version="1.0" encoding="utf-8" ?>
<svg baseProfile="full" height="256" version="1.1" width="256" xmlns="http://www.w3.org/2000/svg" xmlns:ev="http://www.w3.org/2001/xml-events" xmlns:xlink="http://www.w3.org/1999/xlink"><defs /><path d="M472 -431Q427 -431 388.0 -414.0Q349 -397 319.5 -367.5Q290 -338 273.0 -299.0Q256 -260 256 -215Q256 -171 273.0 -132.0Q290 -93 319.5 -63.5Q349 -34 388.5 -17.0Q428 0 472 0H491L618 255Q619 257 621.0 266.0Q623 275 625.5 285.5Q628 296 630.5 306.5Q633 317 635 322L613 383Q550 409 501.5 458.5Q453 508 430 573L272 1013Q264 1036 260.0 1062.5Q256 1089 256 1114Q256 1160 268.5 1203.5Q281 1247 304.0 1284.5Q327 1322 360.5 1352.5Q394 1383 435 1404Q544 1458 650.5 1511.5Q757 1565 866 1619Q972 1672 1077.5 1723.0Q1183 1774 1289 1826Q1333 1847 1381.5 1858.0Q1430 1869 1478 1869Q1567 1869 1645.5 1835.0Q1724 1801 1782.5 1742.5Q1841 1684 1875.0 1605.5Q1909 1527 1909 1438Q1909 1349 1875.0 1270.0Q1841 1191 1782.5 1132.5Q1724 1074 1645.5 1040.0Q1567 1006 1478 1006H1087L981 953Q992 923 1005.5 889.0Q1019 855 1030.5 820.0Q1042 785 1050.0 750.5Q1058 716 1058 683Q1058 642 1048.0 603.0Q1038 564 1019 529L1041 468Q1089 442 1123.5 400.5Q1158 359 1175 308Q1231 268 1264.5 205.0Q1298 142 1298 73Q1298 31 1286.0 -8.5Q1274 -48 1252.5 -82.0Q1231 -116 1200.0 -143.5Q1169 -171 1132 -190L649 -431Z" style="fill:#000000;stroke:none" transform="scale(1,-1) translate(0,-256)" /></svg>