<?xml version="1.0" encoding="utf-8" ?>
<svg baseProfile="full" height="256" version="1.1" width="256" xmlns="http://www.w3.org/2000/svg" xmlns:ev="http://www.w3.org/2001/xml-events" xmlns:xlink="http://www.w3.org/1999/xlink"><defs /><path d="M752 -7Q724 -7 701 14Q664 48 634.5 93.5Q605 139 585.0 189.5Q565 240 554.0 293.0Q543 346 543 396Q543 442 551.0 486.5Q559 531 574 575Q594 634 626.5 682.0Q659 730 697 778L711 797Q754 853 795.5 909.0Q837 965 880 1021Q902 1051 938 1051Q968 1051 989.0 1029.5Q1010 1008 1010 979Q1010 957 996 937Q957 877 912.5 821.0Q868 765 824 708Q791 665 759.0 622.0Q727 579 709 527Q687 465 687 397Q687 312 717.0 245.0Q747 178 803 116Q813 105 818.5 93.0Q824 81 824 65Q824 35 803.0 14.0Q782 -7 752 -7Z" style="fill:#ef6950;stroke:none" transform="scale(1,-1) translate(0,-256)" /></svg>