<?xml version="1.0" encoding="utf-8" ?>
<svg baseProfile="full" height="256" version="1.1" width="256" xmlns="http://www.w3.org/2000/svg" xmlns:ev="http://www.w3.org/2001/xml-events" xmlns:xlink="http://www.w3.org/1999/xlink"><defs /><path d="M1083 1689Q1125 1565 1184.0 1453.0Q1243 1341 1313.0 1235.0Q1383 1129 1460.5 1027.5Q1538 926 1615 823Q1688 725 1726.5 622.0Q1765 519 1765 396Q1765 302 1740.5 214.5Q1716 127 1672.0 51.0Q1628 -25 1565.5 -87.0Q1503 -149 1427.5 -193.5Q1352 -238 1264.5 -262.5Q1177 -287 1083 -287Q989 -287 901.5 -262.5Q814 -238 738.0 -194.0Q662 -150 599.5 -87.5Q537 -25 493.0 51.0Q449 127 424.5 214.0Q400 301 400 396Q400 519 438.5 622.0Q477 725 550 823Q627 926 704.5 1027.5Q782 1129 852.0 1235.0Q922 1341 981.5 1453.0Q1041 1565 1083 1689Z" style="fill:#e81224;stroke:none" transform="scale(1,-1) translate(0,-256)" /></svg>