<?xml version="1.0" encoding="utf-8" ?>
<svg baseProfile="full" height="256" version="1.1" width="256" xmlns="http://www.w3.org/2000/svg" xmlns:ev="http://www.w3.org/2001/xml-events" xmlns:xlink="http://www.w3.org/1999/xlink"><defs /><path d="M1148 1869Q1159 1869 1168.5 1862.0Q1178 1855 1182 1844L1219 1735Q1254 1633 1302.5 1537.0Q1351 1441 1408.5 1350.0Q1466 1259 1530.0 1172.0Q1594 1085 1660 1000L1730 910Q1817 796 1863.0 668.0Q1909 540 1909 396Q1909 282 1879.5 176.5Q1850 71 1796.0 -21.0Q1742 -113 1666.5 -188.5Q1591 -264 1499.5 -318.0Q1408 -372 1302.5 -401.5Q1197 -431 1083 -431Q969 -431 863.5 -401.5Q758 -372 666.0 -318.0Q574 -264 498.5 -188.5Q423 -113 369.0 -21.0Q315 71 285.5 176.5Q256 282 256 396Q256 543 302.5 670.5Q349 798 438 913L505 1000Q571 1085 635.0 1172.0Q699 1259 756.5 1350.0Q814 1441 862.5 1537.0Q911 1633 946 1735L983 1844Q987 1855 996.5 1862.0Q1006 1869 1017 1869Z" style="fill:#000000;stroke:none" transform="scale(1,-1) translate(0,-256)" /></svg>