<?xml version="1.0" encoding="utf-8" ?>
<svg baseProfile="full" height="256" version="1.1" width="256" xmlns="http://www.w3.org/2000/svg" xmlns:ev="http://www.w3.org/2001/xml-events" xmlns:xlink="http://www.w3.org/1999/xlink"><defs /><path d="M1982 971Q1982 877 1948.0 796.5Q1914 716 1851 647H1982V288Q1982 228 1958.5 175.5Q1935 123 1895.5 84.0Q1856 45 1803.0 22.5Q1750 0 1690 0Q1628 0 1576.0 -22.0Q1524 -44 1486.5 -82.0Q1449 -120 1428.0 -173.0Q1407 -226 1407 -287V-431H832V-287Q832 -225 811.0 -172.5Q790 -120 752.5 -81.5Q715 -43 662.5 -21.5Q610 0 548 0Q487 0 434.0 22.0Q381 44 341.5 83.0Q302 122 279.5 174.5Q257 227 257 288V647H387Q323 713 289.5 796.0Q256 879 256 971Q256 1026 269.0 1079.0Q282 1132 306.0 1180.0Q330 1228 365.0 1269.5Q400 1311 444 1344L577 1869H904V1322L1002 1078H1239L1336 1318V1869H1663L1795 1343Q1838 1310 1872.5 1268.0Q1907 1226 1931.5 1178.0Q1956 1130 1969.0 1077.5Q1982 1025 1982 971Z" style="fill:#000000;stroke:none" transform="scale(1,-1) translate(0,-256)" /></svg>