<?xml version="1.0" encoding="utf-8" ?>
<svg baseProfile="full" height="256" version="1.1" width="256" xmlns="http://www.w3.org/2000/svg" xmlns:ev="http://www.w3.org/2001/xml-events" xmlns:xlink="http://www.w3.org/1999/xlink"><defs /><path d="M722 647Q655 647 596.0 672.5Q537 698 493.0 742.0Q449 786 423.5 845.0Q398 904 398 971Q398 1016 410.0 1057.5Q422 1099 444.5 1136.0Q467 1173 498.5 1203.0Q530 1233 569 1254L687 1725H759V1294L903 935H1334L1478 1290V1725H1550L1668 1253Q1706 1232 1737.5 1202.0Q1769 1172 1791.0 1135.0Q1813 1098 1825.0 1056.5Q1837 1015 1837 971Q1837 904 1811.5 845.0Q1786 786 1742.5 742.0Q1699 698 1640.0 672.5Q1581 647 1514 647Q1433 647 1370.0 686.0Q1307 725 1262 791H975Q930 725 866.5 686.0Q803 647 722 647ZM400 288V503H1837V288Q1837 257 1825.5 231.0Q1814 205 1793.5 185.5Q1773 166 1746.0 155.0Q1719 144 1689 144Q1597 144 1519.0 111.0Q1441 78 1384.0 20.0Q1327 -38 1294.5 -117.0Q1262 -196 1262 -287H975Q975 -196 942.5 -117.0Q910 -38 852.5 20.0Q795 78 716.5 111.0Q638 144 547 144Q517 144 490.0 155.0Q463 166 443.0 185.5Q423 205 411.5 231.0Q400 257 400 288Z" style="fill:#f03a17;stroke:none" transform="scale(1,-1) translate(0,-256)" /></svg>