<?xml version="1.0" encoding="utf-8" ?>
<svg baseProfile="full" height="256" version="1.1" width="256" xmlns="http://www.w3.org/2000/svg" xmlns:ev="http://www.w3.org/2001/xml-events" xmlns:xlink="http://www.w3.org/1999/xlink"><defs /><path d="M687 1078Q658 1078 636.5 1099.5Q615 1121 615 1150Q615 1179 636.5 1200.5Q658 1222 687 1222Q717 1222 738.0 1201.0Q759 1180 759 1150Q759 1120 738.0 1099.0Q717 1078 687 1078ZM615 935Q615 905 594.0 884.0Q573 863 543 863Q514 863 493.0 884.5Q472 906 472 935Q472 964 493.0 985.0Q514 1006 543 1006Q572 1006 593.5 985.0Q615 964 615 935ZM759 863Q789 863 810.0 842.0Q831 821 831 791Q831 761 810.0 740.0Q789 719 759 719Q729 719 708.0 740.0Q687 761 687 791Q687 821 708.0 842.0Q729 863 759 863ZM903 216Q933 216 954.0 195.0Q975 174 975 144Q975 114 954.0 93.0Q933 72 903 72Q873 72 852.0 93.0Q831 114 831 144Q831 174 852.0 195.0Q873 216 903 216ZM615 431Q644 431 665.5 410.0Q687 389 687 360Q687 330 666.0 309.0Q645 288 615 288Q586 288 564.5 309.5Q543 331 543 360Q543 389 564.5 410.0Q586 431 615 431ZM1118 431Q1147 431 1168.5 410.0Q1190 389 1190 360Q1190 330 1169.0 309.0Q1148 288 1118 288Q1089 288 1068.0 309.5Q1047 331 1047 360Q1047 389 1068.0 410.0Q1089 431 1118 431ZM1118 0Q1148 0 1169.0 -21.0Q1190 -42 1190 -72Q1190 -101 1168.5 -122.5Q1147 -144 1118 -144Q1089 -144 1068.0 -122.5Q1047 -101 1047 -72Q1047 -43 1068.0 -21.5Q1089 0 1118 0ZM1622 431Q1651 431 1672.0 410.0Q1693 389 1693 360Q1693 331 1672.0 309.5Q1651 288 1622 288Q1592 288 1571.0 309.0Q1550 330 1550 360Q1550 389 1571.5 410.0Q1593 431 1622 431ZM1334 216Q1364 216 1385.0 195.0Q1406 174 1406 144Q1406 114 1385.0 93.0Q1364 72 1334 72Q1304 72 1283.0 93.0Q1262 114 1262 144Q1262 174 1283.0 195.0Q1304 216 1334 216ZM1478 863Q1508 863 1529.0 842.0Q1550 821 1550 791Q1550 761 1529.0 740.0Q1508 719 1478 719Q1448 719 1427.0 740.0Q1406 761 1406 791Q1406 821 1427.0 842.0Q1448 863 1478 863ZM1693 1006Q1722 1006 1743.5 985.0Q1765 964 1765 935Q1765 905 1744.0 884.0Q1723 863 1693 863Q1664 863 1643.0 884.5Q1622 906 1622 935Q1622 964 1643.0 985.0Q1664 1006 1693 1006ZM1550 1078Q1520 1078 1499.0 1099.0Q1478 1120 1478 1150Q1478 1180 1499.0 1201.0Q1520 1222 1550 1222Q1579 1222 1600.5 1200.5Q1622 1179 1622 1150Q1622 1121 1600.5 1099.5Q1579 1078 1550 1078Z" style="fill:#ffffff;stroke:none" transform="scale(1,-1) translate(0,-256)" /></svg>