<?xml version="1.0" encoding="utf-8" ?>
<svg baseProfile="full" height="256" version="1.1" width="256" xmlns="http://www.w3.org/2000/svg" xmlns:ev="http://www.w3.org/2001/xml-events" xmlns:xlink="http://www.w3.org/1999/xlink"><defs /><path d="M1107 795 1095 783Q1078 765 1048.5 736.0Q1019 707 989.0 679.0Q959 651 933.5 630.5Q908 610 898 610Q891 610 884.0 618.5Q877 627 872 633Q872 638 862.0 650.0Q852 662 839.5 675.0Q827 688 814.5 699.5Q802 711 797 715Q919 791 1014.5 892.0Q1110 993 1174 1123H1008Q966 1123 924.0 1121.5Q882 1120 840 1120Q825 1120 825 1135V1239Q825 1253 840 1253Q882 1253 924.0 1251.0Q966 1249 1008 1249H1227Q1243 1295 1254.0 1342.0Q1265 1389 1265 1438H1269Q1281 1436 1308.5 1432.5Q1336 1429 1364.0 1423.0Q1392 1417 1413.5 1409.5Q1435 1402 1435 1392Q1435 1386 1429.0 1379.0Q1423 1372 1419 1367Q1411 1356 1404.5 1341.5Q1398 1327 1392.5 1310.5Q1387 1294 1382.5 1278.0Q1378 1262 1374 1249H1812Q1854 1249 1896.5 1251.0Q1939 1253 1981 1253Q1994 1253 1994 1239V1135Q1994 1129 1991.0 1124.5Q1988 1120 1981 1120Q1939 1120 1896.5 1121.5Q1854 1123 1812 1123H1324Q1310 1094 1295.5 1066.5Q1281 1039 1265 1012H1621Q1669 1012 1715.5 1013.5Q1762 1015 1810 1015Q1826 1015 1826 1002Q1826 957 1824.0 913.0Q1822 869 1822 824V579Q1822 525 1824.0 473.0Q1826 421 1826 367Q1826 338 1817.0 309.5Q1808 281 1785 261Q1771 249 1742.5 241.5Q1714 234 1682.0 230.0Q1650 226 1619.0 225.0Q1588 224 1569 224Q1561 224 1556.5 225.0Q1552 226 1545 230Q1543 231 1536.5 249.5Q1530 268 1522.5 291.0Q1515 314 1508.0 335.5Q1501 357 1497 364Q1528 361 1558.0 360.0Q1588 359 1619 359Q1645 359 1661.5 366.0Q1678 373 1678 404V485H1251V383Q1251 345 1253.0 306.5Q1255 268 1255 230Q1255 216 1241 216H1119Q1104 216 1104 230Q1104 268 1105.5 306.5Q1107 345 1107 383ZM1678 596V690H1251V596ZM1678 799V889H1251V799Z" style="fill:#ffffff;stroke:none" transform="scale(1,-1) translate(0,-256)" /></svg>