<?xml version="1.0" encoding="utf-8" ?>
<svg baseProfile="full" height="256" version="1.1" width="256" xmlns="http://www.w3.org/2000/svg" xmlns:ev="http://www.w3.org/2001/xml-events" xmlns:xlink="http://www.w3.org/1999/xlink"><defs /><path d="M1118 1365Q1118 1345 1109 1329Q1118 1312 1118 1293Q1118 1264 1096.5 1243.0Q1075 1222 1046 1222Q1026 1222 1010 1231Q993 1222 974 1222Q945 1222 924.0 1243.0Q903 1264 903 1293Q903 1312 912 1329Q903 1345 903 1365Q903 1394 924.0 1415.5Q945 1437 974 1437Q993 1437 1010 1428Q1026 1437 1046 1437Q1076 1437 1097.0 1416.0Q1118 1395 1118 1365Z" style="fill:#ee9889;stroke:none" transform="scale(1,-1) translate(0,-256)" /></svg>