<?xml version="1.0" encoding="utf-8" ?>
<svg baseProfile="full" height="256" version="1.1" width="256" xmlns="http://www.w3.org/2000/svg" xmlns:ev="http://www.w3.org/2001/xml-events" xmlns:xlink="http://www.w3.org/1999/xlink"><defs /><path d="M1010 1365Q1025 1365 1035.5 1354.5Q1046 1344 1046 1329Q1046 1315 1035.0 1304.0Q1024 1293 1010 1293Q996 1293 985.0 1304.0Q974 1315 974 1329Q974 1343 985.0 1354.0Q996 1365 1010 1365ZM939 1222Q953 1222 963.5 1211.0Q974 1200 974 1186Q974 1172 963.5 1161.0Q953 1150 939 1150Q924 1150 913.5 1160.5Q903 1171 903 1186Q903 1201 913.5 1211.5Q924 1222 939 1222Z" style="fill:#f2d6c9;stroke:none" transform="scale(1,-1) translate(0,-256)" /></svg>