<?xml version="1.0" encoding="utf-8" ?>
<svg baseProfile="full" height="256" version="1.1" width="256" xmlns="http://www.w3.org/2000/svg" xmlns:ev="http://www.w3.org/2001/xml-events" xmlns:xlink="http://www.w3.org/1999/xlink"><defs /><path d="M1046 1222Q1046 1202 1037 1186Q1046 1169 1046 1150Q1046 1120 1025.0 1099.0Q1004 1078 974 1078Q965 1078 956.0 1080.5Q947 1083 939 1088Q923 1078 903 1078Q873 1078 852.0 1099.0Q831 1120 831 1150Q831 1169 840 1186Q831 1202 831 1222Q831 1251 852.5 1272.0Q874 1293 903 1293Q922 1293 939 1284Q955 1293 974 1293Q1003 1293 1024.5 1272.0Q1046 1251 1046 1222Z" style="fill:#f7b189;stroke:none" transform="scale(1,-1) translate(0,-256)" /></svg>