<?xml version="1.0" encoding="utf-8" ?>
<svg baseProfile="full" height="256" version="1.1" width="256" xmlns="http://www.w3.org/2000/svg" xmlns:ev="http://www.w3.org/2001/xml-events" xmlns:xlink="http://www.w3.org/1999/xlink"><defs /><path d="M1693 1581Q1693 1552 1682.5 1526.5Q1672 1501 1653.5 1481.5Q1635 1462 1610.0 1450.5Q1585 1439 1556 1438Q1583 1436 1602.5 1414.5Q1622 1393 1622 1366Q1622 1337 1600.5 1315.5Q1579 1294 1550 1294Q1520 1294 1499.0 1315.0Q1478 1336 1478 1366Q1478 1395 1496.5 1415.5Q1515 1436 1544 1438Q1515 1439 1490.0 1450.5Q1465 1462 1446.0 1481.5Q1427 1501 1416.5 1526.5Q1406 1552 1406 1581Q1406 1611 1417.0 1637.0Q1428 1663 1447.5 1682.5Q1467 1702 1493.5 1713.5Q1520 1725 1550 1725Q1555 1725 1559.0 1723.5Q1563 1722 1568 1722Q1529 1715 1503.5 1686.0Q1478 1657 1478 1617Q1478 1595 1486.5 1575.5Q1495 1556 1510.0 1541.5Q1525 1527 1544.5 1518.5Q1564 1510 1586 1510Q1625 1510 1654.0 1535.5Q1683 1561 1690 1599Q1691 1594 1692.0 1590.0Q1693 1586 1693 1581ZM543 1725Q575 1698 595.0 1661.0Q615 1624 615 1581Q615 1552 593.5 1531.0Q572 1510 543 1510Q514 1510 493.0 1531.0Q472 1552 472 1581Q472 1624 491.5 1661.0Q511 1698 543 1725Z" style="fill:#ffc83d;stroke:none" transform="scale(1,-1) translate(0,-256)" /></svg>