<?xml version="1.0" encoding="utf-8" ?>
<svg baseProfile="full" height="256" version="1.1" width="256" xmlns="http://www.w3.org/2000/svg" xmlns:ev="http://www.w3.org/2001/xml-events" xmlns:xlink="http://www.w3.org/1999/xlink"><defs /><path d="M2340 719H2412V-431H256V-156L328 -84V372L256 444V719H328V875L256 947V1222H328V1581Q328 1639 344.5 1684.5Q361 1730 389.0 1767.5Q417 1805 454.0 1837.5Q491 1870 532 1903L543 1912Q586 1877 625.0 1844.0Q664 1811 694.0 1772.5Q724 1734 741.5 1687.5Q759 1641 759 1581V1222H831V863Q831 962 872.0 1051.5Q913 1141 978.5 1217.0Q1044 1293 1126.5 1353.0Q1209 1413 1292 1453Q1278 1483 1270.0 1515.5Q1262 1548 1262 1581Q1262 1641 1284.5 1693.5Q1307 1746 1346.0 1785.0Q1385 1824 1437.5 1846.5Q1490 1869 1550 1869Q1608 1869 1660.5 1846.0Q1713 1823 1752.0 1783.5Q1791 1744 1814.0 1691.5Q1837 1639 1837 1581Q1837 1548 1829.0 1515.5Q1821 1483 1807 1453Q1890 1412 1972.5 1352.0Q2055 1292 2120.5 1216.5Q2186 1141 2227.0 1052.0Q2268 963 2268 863H2340Z" style="fill:#000000;stroke:none" transform="scale(1,-1) translate(0,-256)" /></svg>