<?xml version="1.0" encoding="utf-8" ?>
<svg baseProfile="full" height="256" version="1.1" width="256" xmlns="http://www.w3.org/2000/svg" xmlns:ev="http://www.w3.org/2001/xml-events" xmlns:xlink="http://www.w3.org/1999/xlink"><defs /><path d="M1622 1366Q1635 1366 1652.5 1361.0Q1670 1356 1688.0 1349.5Q1706 1343 1723.0 1335.0Q1740 1327 1752 1321Q1813 1290 1879.0 1242.5Q1945 1195 1999.5 1135.5Q2054 1076 2089.5 1006.5Q2125 937 2125 863Q2125 822 2109.0 790.5Q2093 759 2067.5 734.0Q2042 709 2010.5 688.5Q1979 668 1948 649H1144Q1111 672 1080.0 694.5Q1049 717 1026.0 742.0Q1003 767 989.0 796.5Q975 826 975 863Q975 938 1010.5 1007.5Q1046 1077 1100.5 1136.0Q1155 1195 1221.0 1242.5Q1287 1290 1348 1321Q1361 1328 1377.5 1335.5Q1394 1343 1411.5 1350.0Q1429 1357 1446.0 1361.5Q1463 1366 1478 1366Z" style="fill:#16c60c;stroke:none" transform="scale(1,-1) translate(0,-256)" /></svg>