<?xml version="1.0" encoding="utf-8" ?>
<svg baseProfile="full" height="256" version="1.1" width="256" xmlns="http://www.w3.org/2000/svg" xmlns:ev="http://www.w3.org/2001/xml-events" xmlns:xlink="http://www.w3.org/1999/xlink"><defs /><path d="M1981 1581Q2060 1581 2133.5 1560.5Q2207 1540 2270.5 1502.5Q2334 1465 2387.0 1412.5Q2440 1360 2477.5 1296.0Q2515 1232 2535.5 1159.0Q2556 1086 2556 1007Q2556 930 2536.0 857.0Q2516 784 2478.5 719.5Q2441 655 2388.0 601.0Q2335 547 2268 509V-203L2040 -431H472Q427 -431 388.0 -414.0Q349 -397 319.5 -367.5Q290 -338 273.0 -299.0Q256 -260 256 -215V647Q256 681 266.5 713.0Q277 745 296.0 771.5Q315 798 341.5 818.5Q368 839 400 851V1078Q400 1187 428.0 1288.0Q456 1389 507.5 1477.0Q559 1565 631.5 1637.0Q704 1709 791.5 1760.5Q879 1812 980.0 1840.5Q1081 1869 1190 1869Q1282 1869 1371.0 1848.0Q1460 1827 1541.0 1787.0Q1622 1747 1692.5 1689.0Q1763 1631 1819 1558Q1900 1581 1981 1581Z" style="fill:#000000;stroke:none" transform="scale(1,-1) translate(0,-256)" /></svg>