<?xml version="1.0" encoding="utf-8" ?>
<svg baseProfile="full" height="256" version="1.1" width="256" xmlns="http://www.w3.org/2000/svg" xmlns:ev="http://www.w3.org/2001/xml-events" xmlns:xlink="http://www.w3.org/1999/xlink"><defs /><path d="M1981 1438Q2070 1438 2148.5 1404.0Q2227 1370 2285.5 1311.5Q2344 1253 2378.0 1174.5Q2412 1096 2412 1007Q2412 939 2391.0 875.5Q2370 812 2332.5 758.5Q2295 705 2242.0 664.0Q2189 623 2125 600V-143L2053 -215L2008 -189L1981 -287L1837 -143L1909 -71L1837 0L1909 72L1837 144L1909 216L1837 288V600Q1773 623 1720.0 664.0Q1667 705 1629.5 758.5Q1592 812 1571.0 875.5Q1550 939 1550 1007Q1550 1096 1584.0 1174.5Q1618 1253 1676.5 1311.5Q1735 1370 1813.5 1404.0Q1892 1438 1981 1438ZM1981 1150Q2010 1150 2031.5 1171.5Q2053 1193 2053 1222Q2053 1251 2031.5 1272.5Q2010 1294 1981 1294Q1951 1294 1930.0 1273.0Q1909 1252 1909 1222Q1909 1192 1930.0 1171.0Q1951 1150 1981 1150Z" style="fill:#eba300;stroke:none" transform="scale(1,-1) translate(0,-256)" /></svg>