<?xml version="1.0" encoding="utf-8" ?>
<svg baseProfile="full" height="256" version="1.1" width="256" xmlns="http://www.w3.org/2000/svg" xmlns:ev="http://www.w3.org/2001/xml-events" xmlns:xlink="http://www.w3.org/1999/xlink"><defs /><path d="M1909 1294H2412Q2412 1190 2372.5 1098.5Q2333 1007 2264.5 938.5Q2196 870 2104.5 830.5Q2013 791 1909 791H1478V72Q1478 42 1457.0 21.0Q1436 0 1406 0Q1376 0 1355.0 21.0Q1334 42 1334 72V1078Q1334 1108 1322.5 1134.0Q1311 1160 1291.5 1179.5Q1272 1199 1246.0 1210.5Q1220 1222 1190 1222H903Q799 1222 707.0 1261.5Q615 1301 547.0 1369.0Q479 1437 439.5 1529.0Q400 1621 400 1725H831Q920 1725 1003.0 1702.0Q1086 1679 1157.5 1636.5Q1229 1594 1288.0 1535.0Q1347 1476 1389.5 1404.5Q1432 1333 1455.0 1250.0Q1478 1167 1478 1078V1049Q1512 1106 1558.5 1151.0Q1605 1196 1661.0 1228.0Q1717 1260 1780.0 1277.0Q1843 1294 1909 1294Z" style="fill:#bad80a;stroke:none" transform="scale(1,-1) translate(0,-256)" /></svg>