<?xml version="1.0" encoding="utf-8" ?>
<svg baseProfile="full" height="256" version="1.1" width="256" xmlns="http://www.w3.org/2000/svg" xmlns:ev="http://www.w3.org/2001/xml-events" xmlns:xlink="http://www.w3.org/1999/xlink"><defs /><path d="M2125 1150Q2154 1150 2175.5 1128.5Q2197 1107 2197 1078Q2197 1049 2175.5 1027.5Q2154 1006 2125 1006H1765Q1736 1006 1714.5 1027.5Q1693 1049 1693 1078Q1693 1107 1714.5 1128.5Q1736 1150 1765 1150ZM1047 1581Q1076 1581 1097.0 1560.0Q1118 1539 1118 1510Q1118 1481 1097.0 1459.5Q1076 1438 1047 1438H687Q657 1438 636.0 1459.0Q615 1480 615 1510Q615 1539 636.5 1560.0Q658 1581 687 1581Z" style="fill:#73aa24;stroke:none" transform="scale(1,-1) translate(0,-256)" /></svg>