<?xml version="1.0" encoding="utf-8" ?>
<svg baseProfile="full" height="256" version="1.1" width="256" xmlns="http://www.w3.org/2000/svg" xmlns:ev="http://www.w3.org/2001/xml-events" xmlns:xlink="http://www.w3.org/1999/xlink"><defs /><path d="M1406 -431Q1302 -431 1210.5 -391.5Q1119 -352 1051.0 -284.0Q983 -216 943.5 -124.5Q904 -33 904 71Q904 172 942.0 264.0Q980 356 1050 428Q1084 463 1119.5 496.5Q1155 530 1190 565V1078H903Q798 1078 699.0 1112.0Q600 1146 517.5 1207.5Q435 1269 374.0 1354.0Q313 1439 283 1540Q264 1604 260.0 1669.5Q256 1735 256 1801V1869H831Q955 1869 1071.5 1831.0Q1188 1793 1285.5 1724.0Q1383 1655 1458.0 1558.5Q1533 1462 1575 1345Q1650 1391 1735.5 1414.5Q1821 1438 1909 1438H2556V1294Q2556 1205 2533.0 1122.5Q2510 1040 2467.5 968.0Q2425 896 2366.0 837.0Q2307 778 2235.0 735.5Q2163 693 2080.5 670.0Q1998 647 1909 647H1622V565L1646 543Q1700 491 1748.0 442.0Q1796 393 1831.0 338.5Q1866 284 1886.5 219.0Q1907 154 1907 70Q1907 -34 1868.0 -125.5Q1829 -217 1761.0 -285.0Q1693 -353 1601.5 -392.0Q1510 -431 1406 -431Z" style="fill:#000000;stroke:none" transform="scale(1,-1) translate(0,-256)" /></svg>