<?xml version="1.0" encoding="utf-8" ?>
<svg baseProfile="full" height="256" version="1.1" width="256" xmlns="http://www.w3.org/2000/svg" xmlns:ev="http://www.w3.org/2001/xml-events" xmlns:xlink="http://www.w3.org/1999/xlink"><defs /><path d="M1262 1222Q1337 1222 1400.0 1199.5Q1463 1177 1521.5 1150.0Q1580 1123 1638.5 1100.5Q1697 1078 1763 1078H2053Q2157 1078 2248.5 1038.5Q2340 999 2408.5 930.5Q2477 862 2516.5 770.5Q2556 679 2556 575V-431H2053V13L1894 172L1837 144V-431H831V-143H687Q598 -143 519.5 -109.0Q441 -75 382.5 -16.5Q324 42 290.0 120.5Q256 199 256 288V575Q256 708 303.0 823.0Q350 938 441 1035L687 1294V1006Q738 1044 793.5 1061.0Q849 1078 912 1078Q982 1147 1072.5 1184.5Q1163 1222 1262 1222Z" style="fill:#000000;stroke:none" transform="scale(1,-1) translate(0,-256)" /></svg>