<?xml version="1.0" encoding="utf-8" ?>
<svg baseProfile="full" height="256" version="1.1" width="256" xmlns="http://www.w3.org/2000/svg" xmlns:ev="http://www.w3.org/2001/xml-events" xmlns:xlink="http://www.w3.org/1999/xlink"><defs /><path d="M1262 1078Q1303 1078 1341.5 1067.5Q1380 1057 1418.5 1041.0Q1457 1025 1496.0 1006.5Q1535 988 1577.0 972.0Q1619 956 1665.0 945.5Q1711 935 1763 935H2053Q2127 935 2192.5 906.5Q2258 878 2306.5 829.0Q2355 780 2383.5 714.5Q2412 649 2412 575V-287H2197V72L1909 360Q1871 323 1818.5 296.0Q1766 269 1707.5 251.0Q1649 233 1589.5 224.5Q1530 216 1478 216V72L1190 -144V-287H975V-72Q975 -43 986.0 -16.5Q997 10 1017 30L1232 246L1047 431Q1047 372 1024.0 320.0Q1001 268 961.5 229.0Q922 190 869.5 167.0Q817 144 759 144H687V0Q627 0 575.0 22.5Q523 45 484.0 84.0Q445 123 422.5 175.5Q400 228 400 288V326Q400 362 405.5 383.0Q411 404 422.5 415.0Q434 426 450.5 429.0Q467 432 490 432Q502 432 515.0 431.5Q528 431 543 431Q573 431 599.0 442.5Q625 454 644.5 473.5Q664 493 675.5 519.0Q687 545 687 575V719Q687 764 704.0 803.0Q721 842 750.5 871.5Q780 901 819.0 918.0Q858 935 903 935H976Q1027 1002 1102.0 1040.0Q1177 1078 1262 1078Z" style="fill:#cccccc;stroke:none" transform="scale(1,-1) translate(0,-256)" /></svg>