<?xml version="1.0" encoding="utf-8" ?>
<svg baseProfile="full" height="256" version="1.1" width="256" xmlns="http://www.w3.org/2000/svg" xmlns:ev="http://www.w3.org/2001/xml-events" xmlns:xlink="http://www.w3.org/1999/xlink"><defs /><path d="M1190 1725Q1279 1725 1362.0 1702.0Q1445 1679 1517.0 1637.0Q1589 1595 1648.0 1536.0Q1707 1477 1749.0 1405.0Q1791 1333 1814.0 1250.0Q1837 1167 1837 1078V509H1693V1078Q1693 1182 1653.5 1273.5Q1614 1365 1545.5 1433.5Q1477 1502 1385.5 1541.5Q1294 1581 1190 1581Q1086 1581 994.0 1541.5Q902 1502 834.0 1433.5Q766 1365 726.5 1273.5Q687 1182 687 1078H543Q543 1167 566.0 1250.0Q589 1333 631.5 1404.5Q674 1476 733.0 1535.0Q792 1594 863.5 1636.5Q935 1679 1018.0 1702.0Q1101 1725 1190 1725Z" style="fill:#cccccc;stroke:none" transform="scale(1,-1) translate(0,-256)" /></svg>