<?xml version="1.0" encoding="utf-8" ?>
<svg baseProfile="full" height="256" version="1.1" width="256" xmlns="http://www.w3.org/2000/svg" xmlns:ev="http://www.w3.org/2001/xml-events" xmlns:xlink="http://www.w3.org/1999/xlink"><defs /><path d="M1981 850Q2013 841 2039.5 820.0Q2066 799 2085.0 771.5Q2104 744 2114.5 712.0Q2125 680 2125 647V-215Q2125 -260 2108.0 -299.0Q2091 -338 2061.5 -367.5Q2032 -397 1993.0 -414.0Q1954 -431 1909 -431H472Q427 -431 388.0 -414.0Q349 -397 319.5 -367.5Q290 -338 273.0 -299.0Q256 -260 256 -215V647Q256 681 266.5 713.0Q277 745 296.0 771.0Q315 797 341.5 817.5Q368 838 400 850V1078Q400 1187 428.0 1288.0Q456 1389 507.5 1477.0Q559 1565 631.5 1637.0Q704 1709 791.5 1760.5Q879 1812 980.0 1840.5Q1081 1869 1190 1869Q1299 1869 1400.0 1840.5Q1501 1812 1589.0 1760.5Q1677 1709 1749.0 1637.0Q1821 1565 1872.5 1477.0Q1924 1389 1952.5 1288.0Q1981 1187 1981 1078Z" style="fill:#000000;stroke:none" transform="scale(1,-1) translate(0,-256)" /></svg>