<?xml version="1.0" encoding="utf-8" ?>
<svg baseProfile="full" height="256" version="1.1" width="256" xmlns="http://www.w3.org/2000/svg" xmlns:ev="http://www.w3.org/2001/xml-events" xmlns:xlink="http://www.w3.org/1999/xlink"><defs /><path d="M1622 1581 1693 1653 2161 1186 2089 1114ZM1550 1294 1981 863 1909 791 1478 1222ZM1550 761Q1550 741 1543.5 726.0Q1537 711 1526.5 697.5Q1516 684 1503.5 672.0Q1491 660 1478 647L1334 791Q1347 804 1359.0 816.5Q1371 829 1384.5 839.5Q1398 850 1413.0 856.5Q1428 863 1448 863Q1469 863 1487.5 855.0Q1506 847 1520.0 833.0Q1534 819 1542.0 800.5Q1550 782 1550 761ZM1981 1438V1510H2053V1438ZM1837 1581V1653H1909V1581ZM2053 1581H1981V1653H2053Z" style="fill:#e5e5e5;stroke:none" transform="scale(1,-1) translate(0,-256)" /></svg>