<?xml version="1.0" encoding="utf-8" ?>
<svg baseProfile="full" height="256" version="1.1" width="256" xmlns="http://www.w3.org/2000/svg" xmlns:ev="http://www.w3.org/2001/xml-events" xmlns:xlink="http://www.w3.org/1999/xlink"><defs /><path d="M1981 863Q1866 863 1777.0 913.0Q1688 963 1622 1055Q1619 1059 1619 1065Q1619 1083 1640.0 1118.5Q1661 1154 1696.0 1199.5Q1731 1245 1777.0 1297.0Q1823 1349 1873.0 1400.5Q1923 1452 1973.0 1499.5Q2023 1547 2067.0 1583.5Q2111 1620 2145.0 1642.0Q2179 1664 2197 1664Q2201 1664 2205 1662Q2302 1597 2357.0 1504.5Q2412 1412 2412 1294Q2412 1205 2378.0 1126.5Q2344 1048 2285.5 989.5Q2227 931 2148.5 897.0Q2070 863 1981 863Z" style="fill:#a6a6a6;stroke:none" transform="scale(1,-1) translate(0,-256)" /></svg>