<?xml version="1.0" encoding="utf-8" ?>
<svg baseProfile="full" height="256" version="1.1" width="256" xmlns="http://www.w3.org/2000/svg" xmlns:ev="http://www.w3.org/2001/xml-events" xmlns:xlink="http://www.w3.org/1999/xlink"><defs /><path d="M275 66 1373 1320Q1381 1330 1390.5 1339.0Q1400 1348 1409 1357Q1421 1466 1471.0 1559.5Q1521 1653 1597.5 1722.0Q1674 1791 1772.5 1830.0Q1871 1869 1981 1869Q2099 1869 2204.0 1823.5Q2309 1778 2387.0 1700.0Q2465 1622 2510.5 1517.0Q2556 1412 2556 1294Q2556 1184 2517.0 1085.5Q2478 987 2409.0 910.5Q2340 834 2246.5 784.0Q2153 734 2044 722Q2035 713 2026.0 703.5Q2017 694 2007 686L753 -412Z" style="fill:#000000;stroke:none" transform="scale(1,-1) translate(0,-256)" /></svg>