<?xml version="1.0" encoding="utf-8" ?>
<svg baseProfile="full" height="256" version="1.1" width="256" xmlns="http://www.w3.org/2000/svg" xmlns:ev="http://www.w3.org/2001/xml-events" xmlns:xlink="http://www.w3.org/1999/xlink"><defs /><path d="M2340 1006 2268 935 2104 1099Q2047 1054 1978.0 1030.0Q1909 1006 1837 1006Q1777 1006 1720.5 1022.0Q1664 1038 1613 1069Q1581 1120 1565.5 1177.0Q1550 1234 1550 1294Q1550 1383 1584.0 1461.5Q1618 1540 1676.5 1598.5Q1735 1657 1813.5 1691.0Q1892 1725 1981 1725Q2041 1725 2097.5 1709.0Q2154 1693 2205 1662Q2236 1611 2252.0 1554.5Q2268 1498 2268 1438Q2268 1366 2244.5 1297.0Q2221 1228 2176 1171Z" style="fill:#cccccc;stroke:none" transform="scale(1,-1) translate(0,-256)" /></svg>