<?xml version="1.0" encoding="utf-8" ?>
<svg baseProfile="full" height="256" version="1.1" width="256" xmlns="http://www.w3.org/2000/svg" xmlns:ev="http://www.w3.org/2001/xml-events" xmlns:xlink="http://www.w3.org/1999/xlink"><defs /><path d="M1765 1150V715Q1765 698 1759.5 682.5Q1754 667 1754 650Q1754 608 1760.0 566.5Q1766 525 1766 483Q1766 461 1765.5 439.5Q1765 418 1765 396Q1765 302 1740.5 214.5Q1716 127 1672.0 51.0Q1628 -25 1565.5 -87.0Q1503 -149 1427.5 -193.5Q1352 -238 1264.5 -262.5Q1177 -287 1083 -287Q988 -287 901.0 -262.5Q814 -238 738.0 -194.0Q662 -150 599.5 -87.5Q537 -25 493.0 51.0Q449 127 424.5 214.5Q400 302 400 396V935Q400 980 417.0 1019.0Q434 1058 463.0 1087.0Q492 1116 531.0 1133.0Q570 1150 615 1150H687Q695 1150 706.5 1146.0Q718 1142 726 1139L759 1150Q759 1195 776.0 1234.0Q793 1273 822.5 1302.5Q852 1332 891.0 1349.0Q930 1366 975 1366H1047Q1055 1366 1066.5 1362.0Q1078 1358 1086 1355Q1087 1355 1092.5 1357.0Q1098 1359 1103.5 1361.0Q1109 1363 1113.5 1364.5Q1118 1366 1118 1366H1406Q1416 1366 1425.5 1363.5Q1435 1361 1444 1359Q1458 1364 1472.5 1365.5Q1487 1367 1502 1367Q1514 1367 1526.0 1366.5Q1538 1366 1550 1366Q1595 1366 1634.0 1349.0Q1673 1332 1702.0 1302.5Q1731 1273 1748.0 1234.0Q1765 1195 1765 1150Z" style="fill:#ffc83d;stroke:none" transform="scale(1,-1) translate(0,-256)" /></svg>