<?xml version="1.0" encoding="utf-8" ?>
<svg baseProfile="full" height="256" version="1.1" width="256" xmlns="http://www.w3.org/2000/svg" xmlns:ev="http://www.w3.org/2001/xml-events" xmlns:xlink="http://www.w3.org/1999/xlink"><defs /><path d="M1478 863Q1564 863 1639.0 824.5Q1714 786 1765 717V515Q1763 573 1739.5 623.0Q1716 673 1677.0 710.5Q1638 748 1587.0 769.5Q1536 791 1478 791H687Q657 791 631.0 779.5Q605 768 585.5 748.5Q566 729 554.5 703.0Q543 677 543 647Q543 617 554.5 591.0Q566 565 585.5 545.5Q605 526 631.0 514.5Q657 503 687 503H1011Q1026 503 1036.5 492.5Q1047 482 1047 467V108Q1047 93 1036.5 82.5Q1026 72 1011 72Q996 72 985.5 82.5Q975 93 975 108V431H687Q642 431 603.0 448.0Q564 465 535.0 494.5Q506 524 489.0 563.0Q472 602 472 647Q472 692 489.0 731.0Q506 770 535.0 799.5Q564 829 603.0 846.0Q642 863 687 863V1150H759V863H1047V1366H1119V863H1406V1366H1478Z" style="fill:#d48c00;stroke:none" transform="scale(1,-1) translate(0,-256)" /></svg>