<?xml version="1.0" encoding="utf-8" ?>
<svg baseProfile="full" height="256" version="1.1" width="256" xmlns="http://www.w3.org/2000/svg" xmlns:ev="http://www.w3.org/2001/xml-events" xmlns:xlink="http://www.w3.org/1999/xlink"><defs /><path d="M1083 -431Q969 -431 863.5 -401.5Q758 -372 666.0 -318.0Q574 -264 498.5 -188.5Q423 -113 369.0 -21.0Q315 71 285.5 176.5Q256 282 256 396V935Q256 1009 284.5 1074.5Q313 1140 361.5 1188.5Q410 1237 475.5 1265.5Q541 1294 615 1294H645Q667 1342 701.5 1381.5Q736 1421 779.0 1449.5Q822 1478 872.0 1494.0Q922 1510 975 1510H1550Q1624 1510 1689.5 1481.5Q1755 1453 1803.5 1404.0Q1852 1355 1880.5 1289.5Q1909 1224 1909 1150V395Q1909 281 1879.5 175.5Q1850 70 1796.0 -21.5Q1742 -113 1666.5 -188.5Q1591 -264 1499.5 -318.0Q1408 -372 1302.5 -401.5Q1197 -431 1083 -431Z" style="fill:#000000;stroke:none" transform="scale(1,-1) translate(0,-256)" /></svg>