<?xml version="1.0" encoding="utf-8" ?>
<svg baseProfile="full" height="256" version="1.1" width="256" xmlns="http://www.w3.org/2000/svg" xmlns:ev="http://www.w3.org/2001/xml-events" xmlns:xlink="http://www.w3.org/1999/xlink"><defs /><path d="M2412 -144 2340 -287H2124Q2124 -257 2135.5 -231.0Q2147 -205 2166.5 -185.5Q2186 -166 2212.0 -155.0Q2238 -144 2268 -144V0L2112 118L2034 128Q2026 139 2017.5 153.5Q2009 168 2000.0 182.0Q1991 196 1981.0 209.0Q1971 222 1962 231Q1951 241 1938.5 249.0Q1926 257 1914 267Q1881 294 1862.0 333.0Q1843 372 1839 414Q1805 356 1747.0 322.0Q1689 288 1622 288H1263V-144L1190 -287H975Q975 -257 986.0 -231.0Q997 -205 1016.5 -185.5Q1036 -166 1062.0 -155.0Q1088 -144 1118 -144V72L997 316Q959 334 928.5 361.0Q898 388 876.0 421.5Q854 455 842.5 494.0Q831 533 831 575V935H687Q601 935 531.0 980.5Q461 1026 425 1104L469 1190L543 1222H615L631 1239Q651 1260 674.0 1282.0Q697 1304 722.0 1323.0Q747 1342 774.5 1354.0Q802 1366 831 1366H1046L1334 935H2091Q2117 960 2148.0 988.0Q2179 1016 2205.5 1047.0Q2232 1078 2250.0 1112.5Q2268 1147 2268 1186Q2268 1223 2254.0 1255.5Q2240 1288 2215.5 1312.5Q2191 1337 2158.0 1351.0Q2125 1365 2088 1365Q2052 1365 2019.5 1352.0Q1987 1339 1961 1313Q1909 1260 1909 1184V1006Q1875 1010 1848.0 1026.5Q1821 1043 1802.5 1067.5Q1784 1092 1774.5 1122.5Q1765 1153 1765 1186Q1765 1253 1790.5 1312.0Q1816 1371 1860.0 1415.0Q1904 1459 1963.0 1484.5Q2022 1510 2089 1510Q2156 1510 2214.5 1484.5Q2273 1459 2317.0 1415.0Q2361 1371 2386.5 1312.0Q2412 1253 2412 1186Q2412 1129 2393.5 1077.5Q2375 1026 2341.5 984.5Q2308 943 2261.5 913.5Q2215 884 2160 871Q2195 843 2216.5 812.5Q2238 782 2249.5 748.5Q2261 715 2265.0 677.5Q2269 640 2269 597Q2269 519 2268.5 442.5Q2268 366 2268 288L2411 72Z" style="fill:#ffd679;stroke:none" transform="scale(1,-1) translate(0,-256)" /></svg>