<?xml version="1.0" encoding="utf-8" ?>
<svg baseProfile="full" height="256" version="1.1" width="256" xmlns="http://www.w3.org/2000/svg" xmlns:ev="http://www.w3.org/2001/xml-events" xmlns:xlink="http://www.w3.org/1999/xlink"><defs /><path d="M1550 -431V-287Q1550 -244 1562.5 -203.0Q1575 -162 1598.0 -127.5Q1621 -93 1653.5 -66.0Q1686 -39 1726 -22L1794 182Q1752 164 1709.0 154.0Q1666 144 1621 144H1407V-178L1279 -431H831V-287Q831 -209 869.5 -143.0Q908 -77 975 -38V38L888 212Q842 241 805.0 281.0Q768 321 741.5 368.0Q715 415 701.0 468.0Q687 521 687 575V702Q658 676 620.5 661.5Q583 647 543 647Q498 647 459.0 664.0Q420 681 391.0 710.5Q362 740 345.0 779.0Q328 818 328 863V935Q328 946 329.0 956.5Q330 967 333 978Q308 1013 293.0 1047.5Q278 1082 269.5 1118.0Q261 1154 258.0 1191.5Q255 1229 255 1271Q255 1295 255.5 1318.5Q256 1342 256 1366H556Q583 1394 614.0 1420.5Q645 1447 679.5 1466.5Q714 1486 752.0 1498.0Q790 1510 831 1510H1123L1411 1078H1637Q1621 1129 1621 1186Q1621 1282 1658.0 1367.0Q1695 1452 1758.5 1515.5Q1822 1579 1907.0 1616.0Q1992 1653 2088 1653Q2185 1653 2270.0 1616.5Q2355 1580 2418.5 1516.5Q2482 1453 2519.0 1368.0Q2556 1283 2556 1186Q2556 1132 2544.0 1080.5Q2532 1029 2508.5 981.5Q2485 934 2452.0 892.5Q2419 851 2377 818Q2412 736 2412 647V331L2555 116V-178L2428 -431Z" style="fill:#000000;stroke:none" transform="scale(1,-1) translate(0,-256)" /></svg>