<?xml version="1.0" encoding="utf-8" ?>
<svg baseProfile="full" height="256" version="1.1" width="256" xmlns="http://www.w3.org/2000/svg" xmlns:ev="http://www.w3.org/2001/xml-events" xmlns:xlink="http://www.w3.org/1999/xlink"><defs /><path d="M2112 118 1909 -287H1693Q1693 -257 1704.5 -231.0Q1716 -205 1735.5 -185.5Q1755 -166 1781.0 -155.0Q1807 -144 1837 -144L1962 231ZM1119 1076Q1119 1053 1110.5 1033.5Q1102 1014 1087.5 999.5Q1073 985 1053.0 977.0Q1033 969 1011 969Q989 969 969.5 977.0Q950 985 935.0 999.5Q920 1014 911.5 1033.0Q903 1052 903 1075Q903 1105 919 1134L1011 1294L1103 1134Q1111 1120 1115.0 1106.5Q1119 1093 1119 1076Z" style="fill:#eba300;stroke:none" transform="scale(1,-1) translate(0,-256)" /></svg>