<?xml version="1.0" encoding="utf-8" ?>
<svg baseProfile="full" height="256" version="1.1" width="256" xmlns="http://www.w3.org/2000/svg" xmlns:ev="http://www.w3.org/2001/xml-events" xmlns:xlink="http://www.w3.org/1999/xlink"><defs /><path d="M2340 1653Q2385 1653 2424.0 1636.0Q2463 1619 2492.5 1590.0Q2522 1561 2539.0 1522.0Q2556 1483 2556 1438V101L2128 500Q2126 454 2125.0 408.5Q2124 363 2124 318Q2124 266 2124.5 214.5Q2125 163 2125 111H2053V72Q2053 27 2036.0 -12.0Q2019 -51 1989.5 -80.5Q1960 -110 1921.0 -127.0Q1882 -144 1837 -144H1693V-59Q1632 -37 1594 13L1585 -50Q1580 -86 1565.5 -116.5Q1551 -147 1528.0 -168.5Q1505 -190 1474.0 -202.5Q1443 -215 1406 -215Q1368 -215 1337.5 -202.5Q1307 -190 1284.0 -168.5Q1261 -147 1246.5 -116.5Q1232 -86 1227 -50L1218 13Q1199 -12 1173.0 -30.0Q1147 -48 1118 -59V-144H975Q930 -144 891.0 -127.0Q852 -110 822.5 -80.5Q793 -51 776.0 -12.0Q759 27 759 72V111H687V503L256 101V1438Q256 1483 273.0 1522.0Q290 1561 319.5 1590.0Q349 1619 388.0 1636.0Q427 1653 472 1653Q515 1653 554.5 1636.5Q594 1620 624 1590L1047 1168V1330Q1047 1367 1061.0 1400.0Q1075 1433 1099.5 1457.5Q1124 1482 1156.5 1496.0Q1189 1510 1226 1510Q1258 1510 1282.5 1501.0Q1307 1492 1327.5 1477.5Q1348 1463 1366.5 1444.0Q1385 1425 1406 1404Q1427 1425 1445.5 1444.0Q1464 1463 1484.5 1477.5Q1505 1492 1529.5 1501.0Q1554 1510 1586 1510Q1623 1510 1655.5 1496.0Q1688 1482 1712.5 1457.5Q1737 1433 1751.0 1400.0Q1765 1367 1765 1330V1167L2188 1590Q2218 1620 2257.5 1636.5Q2297 1653 2340 1653Z" style="fill:#000000;stroke:none" transform="scale(1,-1) translate(0,-256)" /></svg>