<?xml version="1.0" encoding="utf-8" ?>
<svg baseProfile="full" height="256" version="1.1" width="256" xmlns="http://www.w3.org/2000/svg" xmlns:ev="http://www.w3.org/2001/xml-events" xmlns:xlink="http://www.w3.org/1999/xlink"><defs /><path d="M1298 1150Q1313 1150 1323.5 1139.5Q1334 1129 1334 1114V1042Q1334 1028 1323.0 1017.0Q1312 1006 1298 1006Q1284 1006 1273.0 1017.0Q1262 1028 1262 1042V1114Q1262 1129 1272.5 1139.5Q1283 1150 1298 1150ZM1514 1150Q1529 1150 1539.5 1139.5Q1550 1129 1550 1114V1042Q1550 1028 1539.0 1017.0Q1528 1006 1514 1006Q1500 1006 1489.0 1017.0Q1478 1028 1478 1042V1114Q1478 1129 1488.5 1139.5Q1499 1150 1514 1150Z" style="fill:#000000;stroke:none" transform="scale(1,-1) translate(0,-256)" /></svg>