<?xml version="1.0" encoding="utf-8" ?>
<svg baseProfile="full" height="256" version="1.1" width="256" xmlns="http://www.w3.org/2000/svg" xmlns:ev="http://www.w3.org/2001/xml-events" xmlns:xlink="http://www.w3.org/1999/xlink"><defs /><path d="M1442 1006Q1456 1006 1467.0 995.5Q1478 985 1478 971Q1478 956 1467.5 945.5Q1457 935 1442 935Q1428 935 1417.5 942.5Q1407 950 1406 964Q1403 950 1393.5 942.5Q1384 935 1370 935Q1355 935 1344.5 945.5Q1334 956 1334 971Q1334 985 1345.0 995.5Q1356 1006 1370 1006Q1384 1006 1394.0 996.5Q1404 987 1406 974Q1407 987 1417.5 996.5Q1428 1006 1442 1006Z" style="fill:#ee9889;stroke:none" transform="scale(1,-1) translate(0,-256)" /></svg>