<?xml version="1.0" encoding="utf-8" ?>
<svg baseProfile="full" height="256" version="1.1" width="256" xmlns="http://www.w3.org/2000/svg" xmlns:ev="http://www.w3.org/2001/xml-events" xmlns:xlink="http://www.w3.org/1999/xlink"><defs /><path d="M400 431V1438L1190 647V437Q1189 465 1177.0 490.5Q1165 516 1145.5 534.5Q1126 553 1100.0 564.0Q1074 575 1046 575Q1016 575 991.5 564.0Q967 553 945 533L831 431V503Q831 533 819.5 559.0Q808 585 788.5 604.5Q769 624 743.0 635.5Q717 647 687 647Q657 647 632.5 636.0Q608 625 586 605ZM1622 647 2412 1438V431L2226 605Q2204 625 2179.0 636.0Q2154 647 2124 647Q2094 647 2068.0 635.5Q2042 624 2022.5 604.5Q2003 585 1992.0 559.0Q1981 533 1981 503V431L1867 533Q1844 553 1819.5 564.0Q1795 575 1765 575Q1736 575 1710.5 564.0Q1685 553 1665.5 534.5Q1646 516 1634.5 490.5Q1623 465 1622 437ZM1406 791Q1436 791 1462.0 779.5Q1488 768 1507.5 748.5Q1527 729 1538.5 703.0Q1550 677 1550 647V431Q1550 401 1538.5 375.0Q1527 349 1507.5 329.5Q1488 310 1462.0 299.0Q1436 288 1406 288Q1376 288 1350.0 299.0Q1324 310 1304.5 329.5Q1285 349 1273.5 375.0Q1262 401 1262 431V647Q1262 677 1273.5 703.0Q1285 729 1304.5 748.5Q1324 768 1350.0 779.5Q1376 791 1406 791Z" style="fill:#cccccc;stroke:none" transform="scale(1,-1) translate(0,-256)" /></svg>