<?xml version="1.0" encoding="utf-8" ?>
<svg baseProfile="full" height="256" version="1.1" width="256" xmlns="http://www.w3.org/2000/svg" xmlns:ev="http://www.w3.org/2001/xml-events" xmlns:xlink="http://www.w3.org/1999/xlink"><defs /><path d="M1622 431 1880 181Q1900 161 1904.5 136.5Q1909 112 1909 86Q1909 51 1892.5 25.5Q1876 0 1837 0V108Q1837 123 1826.5 133.5Q1816 144 1801 144Q1776 144 1770.5 128.0Q1765 112 1765 93V72Q1736 72 1714.5 93.5Q1693 115 1693 144Q1693 155 1697.0 165.0Q1701 175 1707 184L1622 270L1463 112L1442 -36Q1440 -51 1431.5 -61.5Q1423 -72 1406 -72Q1389 -72 1380.5 -61.5Q1372 -51 1370 -36L1349 112L1190 270L1104 184Q1118 167 1118 144Q1118 115 1097.0 93.5Q1076 72 1047 72V93Q1047 112 1041.5 128.0Q1036 144 1011 144Q996 144 985.5 133.5Q975 123 975 108V0Q936 0 919.5 25.5Q903 51 903 86Q903 112 907.0 136.5Q911 161 931 181L1190 431V526L400 1438Q400 1467 421.0 1488.5Q442 1510 471 1510Q501 1510 522 1489L981 1030Q999 1012 1024.5 994.5Q1050 977 1078.0 964.0Q1106 951 1135.0 943.0Q1164 935 1190 935H1246Q1220 964 1205.0 1001.0Q1190 1038 1190 1078V1330Q1190 1345 1200.5 1355.5Q1211 1366 1226 1366Q1240 1366 1249 1357L1406 1201L1563 1357Q1572 1366 1586 1366Q1601 1366 1611.5 1355.5Q1622 1345 1622 1330V1078Q1622 1038 1607.0 1001.0Q1592 964 1566 935H1622Q1648 935 1677.0 943.0Q1706 951 1734.0 964.0Q1762 977 1787.5 994.5Q1813 1012 1831 1030L2290 1489Q2311 1510 2340 1510Q2369 1510 2390.5 1488.5Q2412 1467 2412 1438L1622 521Z" style="fill:#757575;stroke:none" transform="scale(1,-1) translate(0,-256)" /></svg>