<?xml version="1.0" encoding="utf-8" ?>
<svg baseProfile="full" height="256" version="1.1" width="256" xmlns="http://www.w3.org/2000/svg" xmlns:ev="http://www.w3.org/2001/xml-events" xmlns:xlink="http://www.w3.org/1999/xlink"><defs /><path d="M2053 647Q2083 647 2104.0 626.0Q2125 605 2125 575V431Q2125 386 2108.0 347.0Q2091 308 2061.5 279.0Q2032 250 1993.0 233.0Q1954 216 1909 216Q1864 216 1825.0 233.0Q1786 250 1756.5 279.0Q1727 308 1710.0 347.0Q1693 386 1693 431V575Q1693 604 1714.5 625.5Q1736 647 1765 647ZM1047 647Q1076 647 1097.0 625.5Q1118 604 1118 575V431Q1118 386 1101.0 347.0Q1084 308 1055.0 279.0Q1026 250 987.0 233.0Q948 216 903 216Q858 216 819.0 233.0Q780 250 750.5 279.0Q721 308 704.0 347.0Q687 386 687 431V575Q687 605 708.0 626.0Q729 647 759 647Z" style="fill:#000000;stroke:none" transform="scale(1,-1) translate(0,-256)" /></svg>