<?xml version="1.0" encoding="utf-8" ?>
<svg baseProfile="full" height="256" version="1.1" width="256" xmlns="http://www.w3.org/2000/svg" xmlns:ev="http://www.w3.org/2001/xml-events" xmlns:xlink="http://www.w3.org/1999/xlink"><defs /><path d="M1047 719Q1077 719 1103.0 707.5Q1129 696 1148.5 676.5Q1168 657 1179.0 631.0Q1190 605 1190 575V431Q1190 372 1167.5 319.5Q1145 267 1106.0 228.0Q1067 189 1014.5 166.5Q962 144 903 144Q844 144 792.0 167.0Q740 190 700.5 229.0Q661 268 638.0 320.0Q615 372 615 431V575Q615 605 626.5 631.0Q638 657 657.5 676.5Q677 696 703.0 707.5Q729 719 759 719ZM2053 719Q2083 719 2109.0 707.5Q2135 696 2154.5 676.5Q2174 657 2185.5 631.0Q2197 605 2197 575V431Q2197 372 2174.0 320.0Q2151 268 2111.5 229.0Q2072 190 2019.5 167.0Q1967 144 1909 144Q1850 144 1797.5 166.5Q1745 189 1706.0 228.0Q1667 267 1644.5 319.5Q1622 372 1622 431V575Q1622 605 1633.0 631.0Q1644 657 1663.5 676.5Q1683 696 1709.0 707.5Q1735 719 1765 719ZM1013 1294 678 791H505L915 1406Q926 1420 941.5 1429.0Q957 1438 975 1438H1118Q1148 1438 1169.0 1417.0Q1190 1396 1190 1366Q1190 1336 1169.0 1315.0Q1148 1294 1118 1294ZM2307 791H2134L1799 1294H1693Q1664 1294 1643.0 1315.5Q1622 1337 1622 1366Q1622 1395 1643.0 1416.5Q1664 1438 1693 1438H1837Q1853 1438 1870.5 1428.5Q1888 1419 1897 1406ZM1406 647Q1436 647 1462.0 635.5Q1488 624 1507.5 604.5Q1527 585 1538.5 559.0Q1550 533 1550 503V455Q1550 431 1551.0 407.0Q1552 383 1556 360Q1529 360 1513.5 368.0Q1498 376 1490.0 390.0Q1482 404 1479.5 421.5Q1477 439 1477 459Q1477 470 1477.5 481.0Q1478 492 1478 503Q1478 533 1457.0 554.0Q1436 575 1406 575Q1376 575 1355.0 554.0Q1334 533 1334 503V465Q1334 445 1332.0 426.0Q1330 407 1322.0 392.5Q1314 378 1298.5 369.0Q1283 360 1256 360Q1260 381 1261.0 402.0Q1262 423 1262 445V503Q1262 533 1273.5 559.0Q1285 585 1304.5 604.5Q1324 624 1350.0 635.5Q1376 647 1406 647Z" style="fill:#383838;stroke:none" transform="scale(1,-1) translate(0,-256)" /></svg>