<?xml version="1.0" encoding="utf-8" ?>
<svg baseProfile="full" height="256" version="1.1" width="256" xmlns="http://www.w3.org/2000/svg" xmlns:ev="http://www.w3.org/2001/xml-events" xmlns:xlink="http://www.w3.org/1999/xlink"><defs /><path d="M2214 817Q2233 812 2247.5 807.5Q2262 803 2276.0 799.0Q2290 795 2305.0 793.0Q2320 791 2340 791Q2370 791 2391.0 770.0Q2412 749 2412 719Q2412 689 2391.0 668.0Q2370 647 2340 647Q2311 647 2289.5 625.5Q2268 604 2268 575V425Q2268 351 2239.5 286.5Q2211 222 2162.0 174.5Q2113 127 2047.5 99.5Q1982 72 1909 72Q1858 72 1809.5 86.0Q1761 100 1719.0 125.5Q1677 151 1642.5 187.5Q1608 224 1586 270Q1575 292 1570.0 315.0Q1565 338 1556 360Q1553 368 1546.0 376.5Q1539 385 1532.0 393.0Q1525 401 1519.5 409.0Q1514 417 1514 425Q1514 442 1514.5 460.0Q1515 478 1515 495Q1515 556 1491.5 581.5Q1468 607 1406 607Q1368 607 1345.5 598.5Q1323 590 1311.0 574.0Q1299 558 1295.5 536.5Q1292 515 1292 490Q1292 475 1292.5 458.5Q1293 442 1293 425Q1293 417 1288.5 409.0Q1284 401 1277.5 392.5Q1271 384 1265.0 375.5Q1259 367 1256 360Q1246 338 1241.5 315.0Q1237 292 1226 270Q1203 224 1169.0 187.0Q1135 150 1093.0 124.5Q1051 99 1002.5 85.5Q954 72 903 72Q830 72 764.5 99.5Q699 127 650.0 174.5Q601 222 572.0 286.5Q543 351 543 425V575Q543 602 532.5 615.5Q522 629 506.0 636.0Q490 643 471.5 646.5Q453 650 437.0 657.0Q421 664 410.5 678.0Q400 692 400 719Q400 749 421.0 770.0Q442 791 472 791H494Q520 791 544.5 802.0Q569 813 595 820Q599 819 612.0 814.5Q625 810 639.5 804.5Q654 799 666.0 795.0Q678 791 678 791H1190Q1220 791 1241.0 770.0Q1262 749 1262 719H1550Q1550 749 1571.0 770.0Q1592 791 1622 791H2134Q2135 791 2146.0 794.5Q2157 798 2170.5 802.5Q2184 807 2196.5 811.5Q2209 816 2214 817Z" style="fill:#757575;stroke:none" transform="scale(1,-1) translate(0,-256)" /></svg>