<?xml version="1.0" encoding="utf-8" ?>
<svg baseProfile="full" height="256" version="1.1" width="256" xmlns="http://www.w3.org/2000/svg" xmlns:ev="http://www.w3.org/2001/xml-events" xmlns:xlink="http://www.w3.org/1999/xlink"><defs /><path d="M903 575Q844 575 789.5 556.5Q735 538 687 503V575Q687 605 708.0 626.0Q729 647 759 647H1047Q1076 647 1097.0 625.5Q1118 604 1118 575V503Q1071 538 1016.0 556.5Q961 575 903 575ZM1909 575Q1850 575 1795.5 556.5Q1741 538 1693 503V575Q1693 604 1714.5 625.5Q1736 647 1765 647H2053Q2083 647 2104.0 626.0Q2125 605 2125 575V503Q2077 538 2022.5 556.5Q1968 575 1909 575Z" style="fill:#757575;stroke:none" transform="scale(1,-1) translate(0,-256)" /></svg>