<?xml version="1.0" encoding="utf-8" ?>
<svg baseProfile="full" height="256" version="1.1" width="256" xmlns="http://www.w3.org/2000/svg" xmlns:ev="http://www.w3.org/2001/xml-events" xmlns:xlink="http://www.w3.org/1999/xlink"><defs /><path d="M2340 755V503Q2340 437 2320.0 374.0Q2300 311 2262 257Q2297 231 2318.5 192.0Q2340 153 2340 108Q2340 71 2326.0 38.0Q2312 5 2287.5 -19.5Q2263 -44 2230.5 -58.0Q2198 -72 2161 -72H1447L1433 -96Q1471 -116 1494.0 -141.0Q1517 -166 1530.0 -196.0Q1543 -226 1547.0 -261.5Q1551 -297 1551 -336Q1551 -360 1550.5 -383.5Q1550 -407 1550 -431H543V-287Q543 -242 560.0 -203.0Q577 -164 606.5 -135.0Q636 -106 675.0 -89.0Q714 -72 759 -72H829L838 -57Q727 -32 628.0 30.0Q529 92 461 183Q452 195 443.5 208.5Q435 222 427 235Q420 246 412.5 257.0Q405 268 399 279Q391 295 384.5 312.0Q378 329 372 346Q358 385 349.5 419.0Q341 453 336.0 487.0Q331 521 329.0 556.0Q327 591 327 632V710Q327 759 330.0 806.5Q333 854 345.5 898.5Q358 943 382.5 983.5Q407 1024 449 1059Q463 1070 477.5 1079.0Q492 1088 506 1100Q520 1111 532.0 1124.0Q544 1137 556 1150H256V1294Q256 1353 278.5 1405.5Q301 1458 340.0 1497.0Q379 1536 431.5 1558.5Q484 1581 543 1581Q555 1581 567.0 1580.5Q579 1580 591 1580Q619 1580 639.0 1586.0Q659 1592 681 1610Q702 1627 720.0 1647.5Q738 1668 757 1688Q796 1729 835.5 1762.5Q875 1796 918.0 1819.5Q961 1843 1010.0 1856.0Q1059 1869 1118 1869Q1207 1869 1285.5 1835.0Q1364 1801 1423.0 1742.5Q1482 1684 1516.0 1605.5Q1550 1527 1550 1438Q1550 1368 1533.5 1314.5Q1517 1261 1487.5 1216.0Q1458 1171 1418.5 1129.5Q1379 1088 1333 1042Q1356 1025 1379.0 1006.5Q1402 988 1424 969L1718 719H1723Q1740 719 1752.5 727.5Q1765 736 1765 755Q1765 792 1779.0 825.0Q1793 858 1817.5 882.5Q1842 907 1874.5 921.0Q1907 935 1945 935Q1974 935 2002.0 925.5Q2030 916 2053 899Q2076 916 2104.0 925.5Q2132 935 2161 935Q2198 935 2230.5 921.0Q2263 907 2287.5 882.5Q2312 858 2326.0 825.0Q2340 792 2340 755Z" style="fill:#000000;stroke:none" transform="scale(1,-1) translate(0,-256)" /></svg>