<?xml version="1.0" encoding="utf-8" ?>
<svg baseProfile="full" height="256" version="1.1" width="256" xmlns="http://www.w3.org/2000/svg" xmlns:ev="http://www.w3.org/2001/xml-events" xmlns:xlink="http://www.w3.org/1999/xlink"><defs /><path d="M975 1006Q1054 1006 1131.0 982.0Q1208 958 1271 910Q1286 899 1299.5 886.5Q1313 874 1327 862L2185 134Q2197 125 2197 108Q2197 93 2186.5 82.5Q2176 72 2161 72H975Q902 72 833.0 92.5Q764 113 705.0 151.0Q646 189 598.0 242.5Q550 296 519 362Q524 373 528.0 385.0Q532 397 532 409Q532 416 530.0 421.5Q528 427 528 434L534 503Z" style="fill:#f2f2f2;stroke:none" transform="scale(1,-1) translate(0,-256)" /></svg>