<?xml version="1.0" encoding="utf-8" ?>
<svg baseProfile="full" height="256" version="1.1" width="256" xmlns="http://www.w3.org/2000/svg" xmlns:ev="http://www.w3.org/2001/xml-events" xmlns:xlink="http://www.w3.org/1999/xlink"><defs /><path d="M2161 791Q2176 791 2186.5 780.5Q2197 770 2197 755V503Q2197 443 2174.5 391.0Q2152 339 2113.0 300.0Q2074 261 2021.5 238.5Q1969 216 1909 216L1550 575H1729Q1766 575 1799.0 589.0Q1832 603 1856.5 627.5Q1881 652 1895.0 684.5Q1909 717 1909 755Q1909 770 1919.5 780.5Q1930 791 1945 791Q1960 791 1970.5 780.5Q1981 770 1981 755V579Q2012 585 2038.5 601.5Q2065 618 2084.0 641.5Q2103 665 2114.0 694.0Q2125 723 2125 755Q2125 770 2135.5 780.5Q2146 791 2161 791Z" style="fill:#cccccc;stroke:none" transform="scale(1,-1) translate(0,-256)" /></svg>