<?xml version="1.0" encoding="utf-8" ?>
<svg baseProfile="full" height="256" version="1.1" width="256" xmlns="http://www.w3.org/2000/svg" xmlns:ev="http://www.w3.org/2001/xml-events" xmlns:xlink="http://www.w3.org/1999/xlink"><defs /><path d="M2125 -431V-149L2004 -431H1553L1765 100V216H1478V84L1406 13V-431H975V274Q912 309 866.5 361.5Q821 414 793 480L663 791H543Q484 791 431.5 813.5Q379 836 340.0 875.0Q301 914 278.5 966.5Q256 1019 256 1078V1138L510 1392Q472 1463 472 1546Q472 1583 486.0 1615.5Q500 1648 524.5 1672.5Q549 1697 581.5 1711.0Q614 1725 651 1725Q673 1725 690 1721Q696 1753 712.0 1780.0Q728 1807 751.5 1827.0Q775 1847 804.5 1858.0Q834 1869 867 1869Q928 1869 975 1833Q998 1851 1026.0 1860.0Q1054 1869 1083 1869Q1112 1869 1139.5 1859.5Q1167 1850 1190 1833Q1213 1851 1241.0 1860.0Q1269 1869 1298 1869Q1335 1869 1368.0 1855.0Q1401 1841 1425.5 1816.5Q1450 1792 1464.0 1759.0Q1478 1726 1478 1689Q1478 1622 1452.5 1563.5Q1427 1505 1383.0 1461.0Q1339 1417 1280.0 1391.5Q1221 1366 1154 1366H1123L1361 1128Q1382 1107 1415.5 1092.5Q1449 1078 1478 1078H1909V1366H2053Q2111 1366 2163.5 1343.0Q2216 1320 2255.0 1280.5Q2294 1241 2317.0 1188.5Q2340 1136 2340 1078V967Q2409 906 2446.5 822.5Q2484 739 2484 647V347L2556 275V-431Z" style="fill:#000000;stroke:none" transform="scale(1,-1) translate(0,-256)" /></svg>