<?xml version="1.0" encoding="utf-8" ?>
<svg baseProfile="full" height="256" version="1.1" width="256" xmlns="http://www.w3.org/2000/svg" xmlns:ev="http://www.w3.org/2001/xml-events" xmlns:xlink="http://www.w3.org/1999/xlink"><defs /><path d="M1298 1725Q1313 1725 1323.5 1714.5Q1334 1704 1334 1689Q1334 1652 1320.0 1619.5Q1306 1587 1281.5 1562.5Q1257 1538 1224.0 1524.0Q1191 1510 1154 1510H1011Q989 1510 969.5 1501.5Q950 1493 935.0 1478.0Q920 1463 911.5 1443.5Q903 1424 903 1402V1294H831V1366H795Q757 1366 724.5 1380.0Q692 1394 667.5 1418.5Q643 1443 629.0 1475.5Q615 1508 615 1546Q615 1560 626.0 1570.5Q637 1581 651 1581Q665 1581 676.0 1570.5Q687 1560 687 1546Q687 1524 695.5 1504.5Q704 1485 719.0 1470.0Q734 1455 753.5 1446.5Q773 1438 795 1438H831V1689Q831 1704 841.5 1714.5Q852 1725 867 1725Q882 1725 892.5 1714.5Q903 1704 903 1689V1545Q921 1558 937.5 1565.5Q954 1573 971.5 1576.5Q989 1580 1007.5 1580.5Q1026 1581 1047 1581V1689Q1047 1704 1057.5 1714.5Q1068 1725 1083 1725Q1097 1725 1107.5 1714.0Q1118 1703 1118 1689V1581H1154Q1176 1581 1195.5 1589.5Q1215 1598 1230.0 1613.0Q1245 1628 1253.5 1647.5Q1262 1667 1262 1689Q1262 1704 1272.5 1714.5Q1283 1725 1298 1725Z" style="fill:#ffb900;stroke:none" transform="scale(1,-1) translate(0,-256)" /></svg>