<?xml version="1.0" encoding="utf-8" ?>
<svg baseProfile="full" height="256" version="1.1" width="256" xmlns="http://www.w3.org/2000/svg" xmlns:ev="http://www.w3.org/2001/xml-events" xmlns:xlink="http://www.w3.org/1999/xlink"><defs /><path d="M2340 288 2412 216V-287H2268V72L1981 360L1754 460H1438L1334 360V144L1262 72V-287H1118V369Q1077 379 1044.5 398.5Q1012 418 987.0 444.5Q962 471 943.0 504.0Q924 537 909 575L947 774L759 935H543Q505 935 472.0 954.5Q439 974 419 1006L444 1047L400 1078L615 1294Q637 1316 657.0 1330.0Q677 1344 699.0 1352.0Q721 1360 745.5 1363.0Q770 1366 800 1366Q853 1366 893.5 1356.0Q934 1346 975 1310L1259 1026Q1279 1006 1305.0 989.0Q1331 972 1360.0 960.0Q1389 948 1419.0 941.5Q1449 935 1478 935H2053V1222Q2083 1222 2109.0 1210.5Q2135 1199 2154.5 1179.5Q2174 1160 2185.5 1134.0Q2197 1108 2197 1078V895Q2263 856 2301.5 790.5Q2340 725 2340 647Z" style="fill:#bb9167;stroke:none" transform="scale(1,-1) translate(0,-256)" /></svg>