<?xml version="1.0" encoding="utf-8" ?>
<svg baseProfile="full" height="256" version="1.1" width="256" xmlns="http://www.w3.org/2000/svg" xmlns:ev="http://www.w3.org/2001/xml-events" xmlns:xlink="http://www.w3.org/1999/xlink"><defs /><path d="M1982 934Q2070 934 2148.5 899.5Q2227 865 2285.5 805.5Q2344 746 2378.0 667.5Q2412 589 2412 501Q2412 393 2411.5 286.5Q2411 180 2411 72L1689 614Q1683 555 1660.0 502.5Q1637 450 1600.0 408.0Q1563 366 1513.5 336.5Q1464 307 1406 295V-251Q1406 -265 1395.0 -276.0Q1384 -287 1370 -287Q1355 -287 1344.5 -276.5Q1334 -266 1334 -251V288Q1297 288 1260.5 294.5Q1224 301 1190 316Q1190 285 1191.0 255.0Q1192 225 1192 194Q1192 186 1192.0 170.0Q1192 154 1191.0 136.0Q1190 118 1188.0 103.0Q1186 88 1182 84L892 -272Q882 -285 864 -285Q849 -285 838.5 -275.0Q828 -265 828 -250Q828 -237 836 -227L1118 144V360Q1049 411 1011.5 487.0Q974 563 974 649Q974 684 974.5 720.0Q975 756 975 791H791Q740 791 689.0 814.5Q638 838 591.5 874.0Q545 910 505.5 953.0Q466 996 438 1035Q427 1051 413.5 1074.0Q400 1097 400 1117Q400 1134 411.0 1154.0Q422 1174 432 1189L434 1192Q460 1230 496.5 1270.0Q533 1310 575.5 1344.5Q618 1379 665.0 1404.5Q712 1430 759 1438Q759 1485 743.0 1524.5Q727 1564 698.0 1592.5Q669 1621 629.5 1637.0Q590 1653 543 1653H507Q492 1653 482.0 1663.5Q472 1674 472 1689Q472 1701 477.0 1708.5Q482 1716 490.0 1719.5Q498 1723 508.0 1724.0Q518 1725 528 1725Q581 1725 626.5 1714.5Q672 1704 708.5 1681.0Q745 1658 772.0 1621.0Q799 1584 815 1531Q822 1508 826.5 1485.0Q831 1462 831 1438Q889 1430 941.5 1407.5Q994 1385 1033.0 1349.0Q1072 1313 1095.0 1263.0Q1118 1213 1118 1150V1006H1406Q1462 1006 1506.0 990.0Q1550 974 1584.5 945.5Q1619 917 1645.5 876.5Q1672 836 1693 788Q1752 855 1820.5 894.5Q1889 934 1982 934Z" style="fill:#f7630c;stroke:none" transform="scale(1,-1) translate(0,-256)" /></svg>