<?xml version="1.0" encoding="utf-8" ?>
<svg baseProfile="full" height="256" version="1.1" width="256" xmlns="http://www.w3.org/2000/svg" xmlns:ev="http://www.w3.org/2001/xml-events" xmlns:xlink="http://www.w3.org/1999/xlink"><defs /><path d="M2556 -72H1960L1965 -78Q1981 -97 1996.0 -116.5Q2011 -136 2023.0 -157.0Q2035 -178 2042.5 -201.0Q2050 -224 2050 -249Q2050 -287 2036.0 -320.0Q2022 -353 1997.5 -377.5Q1973 -402 1940.0 -416.5Q1907 -431 1870 -431Q1828 -431 1791.5 -413.0Q1755 -395 1729 -363L1549 -137V-252Q1549 -289 1535.0 -321.5Q1521 -354 1496.5 -378.5Q1472 -403 1439.5 -417.0Q1407 -431 1370 -431Q1332 -431 1299.5 -417.0Q1267 -403 1242.5 -378.5Q1218 -354 1204.0 -321.5Q1190 -289 1190 -251V-135L1004 -363Q978 -395 942.0 -412.0Q906 -429 864 -429Q826 -429 793.5 -415.0Q761 -401 736.5 -376.5Q712 -352 698.0 -319.5Q684 -287 684 -249Q684 -216 694.0 -189.5Q704 -163 724 -137L974 193V295Q905 365 867.5 456.5Q830 548 830 647H791Q722 647 650.5 676.5Q579 706 514.5 753.0Q450 800 396.5 858.0Q343 916 308 972Q288 1005 272.0 1041.0Q256 1077 256 1117Q256 1171 287.5 1229.0Q319 1287 365.0 1340.0Q411 1393 463.5 1437.5Q516 1482 559 1509Q546 1510 533.0 1510.0Q520 1510 507 1510Q469 1510 436.5 1524.0Q404 1538 380.0 1562.5Q356 1587 342.0 1619.5Q328 1652 328 1690Q328 1727 342.0 1759.5Q356 1792 380.5 1816.5Q405 1841 438.0 1855.0Q471 1869 508 1869H544Q620 1869 687.0 1848.0Q754 1827 807.5 1787.0Q861 1747 899.5 1689.0Q938 1631 958 1556Q1026 1533 1082.0 1494.0Q1138 1455 1178.0 1403.0Q1218 1351 1240.0 1287.0Q1262 1223 1262 1150H1336Q1393 1150 1445.0 1146.5Q1497 1143 1544.5 1128.5Q1592 1114 1637.0 1085.0Q1682 1056 1726 1006Q1843 1078 1982 1078Q2061 1078 2134.0 1057.5Q2207 1037 2271.0 999.5Q2335 962 2387.5 909.0Q2440 856 2477.5 792.5Q2515 729 2535.5 655.5Q2556 582 2556 503Z" style="fill:#000000;stroke:none" transform="scale(1,-1) translate(0,-256)" /></svg>