<?xml version="1.0" encoding="utf-8" ?>
<svg baseProfile="full" height="256" version="1.1" width="256" xmlns="http://www.w3.org/2000/svg" xmlns:ev="http://www.w3.org/2001/xml-events" xmlns:xlink="http://www.w3.org/1999/xlink"><defs /><path d="M2091 789Q2091 766 2098.5 749.5Q2106 733 2121 716Q2141 693 2164.0 672.0Q2187 651 2209 629Q2255 582 2292.5 537.5Q2330 493 2356.5 444.0Q2383 395 2397.5 339.5Q2412 284 2412 216V-144Q2412 -174 2400.5 -200.0Q2389 -226 2369.5 -245.5Q2350 -265 2324.0 -276.0Q2298 -287 2268 -287H1909Q1840 -287 1784.5 -272.5Q1729 -258 1680.5 -232.0Q1632 -206 1587.5 -168.5Q1543 -131 1497 -84Q1475 -62 1453.5 -39.0Q1432 -16 1409 4Q1392 19 1375.5 26.5Q1359 34 1336 34Q1318 34 1297.5 27.0Q1277 20 1264 7L1078 -179Q1033 -136 1010.0 -79.5Q987 -23 987 39Q987 103 1011.0 159.0Q1035 215 1076.5 256.5Q1118 298 1174.0 322.0Q1230 346 1294 346Q1366 346 1432 314L1811 693Q1779 759 1779 831Q1779 895 1803.0 951.0Q1827 1007 1868.5 1048.5Q1910 1090 1966.0 1114.0Q2022 1138 2086 1138Q2148 1138 2204.5 1115.0Q2261 1092 2304 1047L2118 861Q2105 848 2098.0 827.5Q2091 807 2091 789Z" style="fill:#73aa24;stroke:none" transform="scale(1,-1) translate(0,-256)" /></svg>