<?xml version="1.0" encoding="utf-8" ?>
<svg baseProfile="full" height="256" version="1.1" width="256" xmlns="http://www.w3.org/2000/svg" xmlns:ev="http://www.w3.org/2001/xml-events" xmlns:xlink="http://www.w3.org/1999/xlink"><defs /><path d="M1909 -431Q1777 -431 1661.5 -383.5Q1546 -336 1452 -242L1335 -125L1078 -383L976 -281Q913 -217 878.0 -136.0Q843 -55 843 35Q843 44 843.5 53.5Q844 63 845 72H544V216Q544 280 560.0 341.0Q576 402 606.0 456.5Q636 511 679.0 557.5Q722 604 776 639L448 966Q418 996 394.0 1033.5Q370 1071 356 1112L277 1348Q256 1409 256 1475Q256 1557 287.0 1628.5Q318 1700 371.5 1753.5Q425 1807 496.5 1838.0Q568 1869 650 1869Q683 1869 714.5 1863.5Q746 1858 778 1848Q823 1834 876.0 1818.0Q929 1802 980.5 1782.0Q1032 1762 1079.0 1736.5Q1126 1711 1159 1678L1486 1349Q1521 1403 1567.5 1446.0Q1614 1489 1668.5 1519.0Q1723 1549 1784.0 1565.0Q1845 1581 1909 1581H2053V1280Q2061 1281 2070.0 1281.0Q2079 1281 2087 1281Q2157 1281 2211.5 1265.0Q2266 1249 2312.0 1220.5Q2358 1192 2399.0 1153.5Q2440 1115 2485 1070L2508 1047L2250 790L2367 673Q2461 579 2508.5 463.5Q2556 348 2556 216V-144Q2556 -203 2533.0 -255.0Q2510 -307 2470.5 -346.0Q2431 -385 2378.5 -408.0Q2326 -431 2268 -431Z" style="fill:#000000;stroke:none" transform="scale(1,-1) translate(0,-256)" /></svg>