<?xml version="1.0" encoding="utf-8" ?>
<svg baseProfile="full" height="256" version="1.1" width="256" xmlns="http://www.w3.org/2000/svg" xmlns:ev="http://www.w3.org/2001/xml-events" xmlns:xlink="http://www.w3.org/1999/xlink"><defs /><path d="M616 1438Q586 1438 565.0 1459.0Q544 1480 544 1510Q544 1539 565.5 1560.0Q587 1581 616 1581Q645 1581 666.0 1560.0Q687 1539 687 1510Q687 1481 666.0 1459.5Q645 1438 616 1438ZM616 1294Q645 1294 666.0 1272.5Q687 1251 687 1222Q687 1193 666.0 1171.5Q645 1150 616 1150Q586 1150 565.0 1171.0Q544 1192 544 1222Q544 1252 565.0 1273.0Q586 1294 616 1294ZM759 1294Q730 1294 708.5 1315.5Q687 1337 687 1366Q687 1395 708.5 1416.5Q730 1438 759 1438Q789 1438 810.0 1417.0Q831 1396 831 1366Q831 1336 810.0 1315.0Q789 1294 759 1294ZM903 1438Q873 1438 852.0 1459.0Q831 1480 831 1510Q831 1539 852.5 1560.0Q874 1581 903 1581Q932 1581 953.5 1560.0Q975 1539 975 1510Q975 1480 954.0 1459.0Q933 1438 903 1438ZM759 1150Q789 1150 810.0 1129.0Q831 1108 831 1078Q831 1049 809.5 1027.5Q788 1006 759 1006Q730 1006 708.5 1027.5Q687 1049 687 1078Q687 1107 708.5 1128.5Q730 1150 759 1150ZM903 1294Q933 1294 954.0 1273.0Q975 1252 975 1222Q975 1192 954.0 1171.0Q933 1150 903 1150Q873 1150 852.0 1171.0Q831 1192 831 1222Q831 1252 852.0 1273.0Q873 1294 903 1294ZM1047 1294Q1017 1294 996.0 1315.0Q975 1336 975 1366Q975 1396 996.0 1417.0Q1017 1438 1047 1438Q1077 1438 1098.0 1417.0Q1119 1396 1119 1366Q1119 1336 1098.0 1315.0Q1077 1294 1047 1294ZM903 1006Q932 1006 953.5 985.0Q975 964 975 935Q975 905 954.0 884.0Q933 863 903 863Q873 863 852.0 884.0Q831 905 831 935Q831 964 852.5 985.0Q874 1006 903 1006ZM1047 1006Q1018 1006 996.5 1027.5Q975 1049 975 1078Q975 1108 996.0 1129.0Q1017 1150 1047 1150Q1077 1150 1098.0 1129.0Q1119 1108 1119 1078Q1119 1049 1097.5 1027.5Q1076 1006 1047 1006ZM1191 1150Q1161 1150 1140.0 1171.0Q1119 1192 1119 1222Q1119 1252 1140.0 1273.0Q1161 1294 1191 1294Q1220 1294 1241.0 1272.5Q1262 1251 1262 1222Q1262 1193 1241.0 1171.5Q1220 1150 1191 1150ZM1047 863Q1077 863 1098.0 842.0Q1119 821 1119 791Q1119 761 1098.0 740.0Q1077 719 1047 719Q1017 719 996.0 740.0Q975 761 975 791Q975 821 996.0 842.0Q1017 863 1047 863ZM1191 863Q1161 863 1140.0 884.0Q1119 905 1119 935Q1119 964 1140.5 985.0Q1162 1006 1191 1006Q1220 1006 1241.0 985.0Q1262 964 1262 935Q1262 906 1241.0 884.5Q1220 863 1191 863ZM1334 1006Q1305 1006 1283.5 1027.5Q1262 1049 1262 1078Q1262 1107 1283.5 1128.5Q1305 1150 1334 1150Q1364 1150 1385.0 1129.0Q1406 1108 1406 1078Q1406 1049 1384.5 1027.5Q1363 1006 1334 1006ZM1191 719Q1220 719 1241.0 697.5Q1262 676 1262 647Q1262 618 1241.0 596.5Q1220 575 1191 575Q1161 575 1140.0 596.0Q1119 617 1119 647Q1119 677 1140.0 698.0Q1161 719 1191 719ZM1334 719Q1305 719 1283.5 740.5Q1262 762 1262 791Q1262 820 1283.5 841.5Q1305 863 1334 863Q1364 863 1385.0 842.0Q1406 821 1406 791Q1406 761 1385.0 740.0Q1364 719 1334 719ZM1478 863Q1448 863 1427.0 884.0Q1406 905 1406 935Q1406 964 1427.5 985.0Q1449 1006 1478 1006Q1507 1006 1528.5 985.0Q1550 964 1550 935Q1550 905 1529.0 884.0Q1508 863 1478 863ZM1334 575Q1364 575 1385.0 554.0Q1406 533 1406 503Q1406 474 1384.5 452.5Q1363 431 1334 431Q1305 431 1283.5 452.5Q1262 474 1262 503Q1262 532 1283.5 553.5Q1305 575 1334 575ZM1478 575Q1448 575 1427.0 596.0Q1406 617 1406 647Q1406 677 1427.0 698.0Q1448 719 1478 719Q1508 719 1529.0 698.0Q1550 677 1550 647Q1550 617 1529.0 596.0Q1508 575 1478 575ZM1622 719Q1592 719 1571.0 740.0Q1550 761 1550 791Q1550 821 1571.0 842.0Q1592 863 1622 863Q1651 863 1672.5 841.5Q1694 820 1694 791Q1694 762 1672.5 740.5Q1651 719 1622 719ZM1478 431Q1507 431 1528.5 410.0Q1550 389 1550 360Q1550 330 1529.0 309.0Q1508 288 1478 288Q1448 288 1427.0 309.0Q1406 330 1406 360Q1406 389 1427.5 410.0Q1449 431 1478 431ZM1622 431Q1593 431 1571.5 452.5Q1550 474 1550 503Q1550 533 1571.0 554.0Q1592 575 1622 575Q1651 575 1672.5 553.5Q1694 532 1694 503Q1694 474 1672.5 452.5Q1651 431 1622 431ZM1765 575Q1736 575 1715.0 596.5Q1694 618 1694 647Q1694 676 1715.0 697.5Q1736 719 1765 719Q1795 719 1816.0 698.0Q1837 677 1837 647Q1837 617 1816.0 596.0Q1795 575 1765 575ZM1622 288Q1651 288 1672.5 266.5Q1694 245 1694 216Q1694 187 1672.5 165.5Q1651 144 1622 144Q1592 144 1571.0 165.0Q1550 186 1550 216Q1550 246 1571.0 267.0Q1592 288 1622 288ZM1765 431Q1794 431 1815.5 410.0Q1837 389 1837 360Q1837 330 1816.0 309.0Q1795 288 1765 288Q1736 288 1715.0 309.5Q1694 331 1694 360Q1694 389 1715.0 410.0Q1736 431 1765 431ZM1909 431Q1880 431 1858.5 452.5Q1837 474 1837 503Q1837 533 1858.0 554.0Q1879 575 1909 575Q1939 575 1960.0 554.0Q1981 533 1981 503Q1981 474 1959.5 452.5Q1938 431 1909 431ZM1909 288Q1939 288 1960.0 267.0Q1981 246 1981 216Q1981 186 1960.0 165.0Q1939 144 1909 144Q1879 144 1858.0 165.0Q1837 186 1837 216Q1837 246 1858.0 267.0Q1879 288 1909 288Z" style="fill:#ffd679;stroke:none" transform="scale(1,-1) translate(0,-256)" /></svg>