<?xml version="1.0" encoding="utf-8" ?>
<svg baseProfile="full" height="256" version="1.1" width="256" xmlns="http://www.w3.org/2000/svg" xmlns:ev="http://www.w3.org/2001/xml-events" xmlns:xlink="http://www.w3.org/1999/xlink"><defs /><path d="M1047 575Q1121 575 1186.5 546.5Q1252 518 1300.5 469.5Q1349 421 1377.5 355.5Q1406 290 1406 216H687Q687 290 715.5 355.5Q744 421 793.0 469.5Q842 518 907.5 546.5Q973 575 1047 575ZM1550 1078Q1550 1152 1578.0 1217.5Q1606 1283 1655.0 1332.0Q1704 1381 1769.5 1409.5Q1835 1438 1909 1438V719Q1835 719 1769.5 747.0Q1704 775 1655.0 824.0Q1606 873 1578.0 938.5Q1550 1004 1550 1078Z" style="fill:#107c10;stroke:none" transform="scale(1,-1) translate(0,-256)" /></svg>