<?xml version="1.0" encoding="utf-8" ?>
<svg baseProfile="full" height="256" version="1.1" width="256" xmlns="http://www.w3.org/2000/svg" xmlns:ev="http://www.w3.org/2001/xml-events" xmlns:xlink="http://www.w3.org/1999/xlink"><defs /><path d="M759 647V503Q759 414 793.0 335.5Q827 257 885.5 198.5Q944 140 1022.5 106.0Q1101 72 1190 72V-144Q1086 -144 994.0 -104.5Q902 -65 834.0 3.5Q766 72 726.5 164.0Q687 256 687 360V575Q687 605 708.0 626.0Q729 647 759 647ZM2053 647Q2083 647 2104.0 626.0Q2125 605 2125 575V360Q2125 256 2085.5 164.5Q2046 73 1977.5 4.5Q1909 -64 1817.5 -104.0Q1726 -144 1622 -144V72Q1711 72 1789.5 106.0Q1868 140 1926.5 198.5Q1985 257 2019.0 335.5Q2053 414 2053 503Z" style="fill:#ffffff;stroke:none" transform="scale(1,-1) translate(0,-256)" /></svg>