<?xml version="1.0" encoding="utf-8" ?>
<svg baseProfile="full" height="256" version="1.1" width="256" xmlns="http://www.w3.org/2000/svg" xmlns:ev="http://www.w3.org/2001/xml-events" xmlns:xlink="http://www.w3.org/1999/xlink"><defs /><path d="M1406 360Q1437 360 1461.0 348.5Q1485 337 1508 317L1755 96Q1794 61 1815.5 21.5Q1837 -18 1837 -72Q1837 -117 1820.0 -156.0Q1803 -195 1774.0 -224.0Q1745 -253 1706.0 -270.0Q1667 -287 1622 -287H1190Q1145 -287 1106.0 -270.0Q1067 -253 1038.0 -224.0Q1009 -195 992.0 -156.0Q975 -117 975 -72Q975 -25 994.0 16.5Q1013 58 1048 89L1304 317Q1326 337 1351.0 348.5Q1376 360 1406 360ZM400 1294V1725L780 1345Q757 1316 735.0 1272.5Q713 1229 693.0 1181.5Q673 1134 655.5 1089.0Q638 1044 625 1013Q576 1024 534.5 1050.5Q493 1077 463.0 1114.5Q433 1152 416.5 1198.0Q400 1244 400 1294ZM2032 1345 2412 1725V1294Q2412 1244 2395.5 1198.0Q2379 1152 2349.0 1114.5Q2319 1077 2277.5 1050.5Q2236 1024 2187 1013Q2174 1044 2156.5 1089.0Q2139 1134 2119.0 1181.5Q2099 1229 2076.5 1272.5Q2054 1316 2032 1345Z" style="fill:#ee9889;stroke:none" transform="scale(1,-1) translate(0,-256)" /></svg>