<?xml version="1.0" encoding="utf-8" ?>
<svg baseProfile="full" height="256" version="1.1" width="256" xmlns="http://www.w3.org/2000/svg" xmlns:ev="http://www.w3.org/2001/xml-events" xmlns:xlink="http://www.w3.org/1999/xlink"><defs /><path d="M1244 72Q1284 72 1309.0 44.0Q1334 16 1334 -23V-178L1200 -100Q1152 -72 1152 -19Q1152 20 1179.0 46.0Q1206 72 1244 72ZM1568 72Q1606 72 1633.0 46.0Q1660 20 1660 -19Q1660 -45 1647.0 -66.0Q1634 -87 1612 -100L1478 -178V-23Q1478 16 1503.0 44.0Q1528 72 1568 72Z" style="fill:#af0d1a;stroke:none" transform="scale(1,-1) translate(0,-256)" /></svg>