<?xml version="1.0" encoding="utf-8" ?>
<svg baseProfile="full" height="256" version="1.1" width="256" xmlns="http://www.w3.org/2000/svg" xmlns:ev="http://www.w3.org/2001/xml-events" xmlns:xlink="http://www.w3.org/1999/xlink"><defs /><path d="M2412 1725 2100 1222H1801Q1749 1222 1703.5 1202.0Q1658 1182 1624.0 1148.0Q1590 1114 1570.0 1068.5Q1550 1023 1550 971V144H1262V971Q1262 1023 1242.0 1068.5Q1222 1114 1188.0 1148.0Q1154 1182 1108.5 1202.0Q1063 1222 1011 1222H712L400 1725H543Q603 1725 655.5 1702.5Q708 1680 747.0 1641.0Q786 1602 808.5 1550.0Q831 1498 831 1438V1398Q843 1409 855.0 1418.5Q867 1428 881 1437L1262 1690L1406 1581L1550 1690L1931 1437Q1945 1428 1957.0 1418.5Q1969 1409 1981 1398V1438Q1981 1497 2003.5 1549.5Q2026 1602 2065.0 1641.0Q2104 1680 2156.5 1702.5Q2209 1725 2268 1725Z" style="fill:#8e562e;stroke:none" transform="scale(1,-1) translate(0,-256)" /></svg>