<?xml version="1.0" encoding="utf-8" ?>
<svg baseProfile="full" height="256" version="1.1" width="256" xmlns="http://www.w3.org/2000/svg" xmlns:ev="http://www.w3.org/2001/xml-events" xmlns:xlink="http://www.w3.org/1999/xlink"><defs /><path d="M1887 1639Q1915 1692 1955.5 1734.5Q1996 1777 2045.5 1807.0Q2095 1837 2151.5 1853.0Q2208 1869 2268 1869H2556V1294Q2556 1188 2508.5 1095.0Q2461 1002 2373 941L2556 503H2429L2556 216H2252Q2223 88 2147.0 -17.0Q2071 -122 1959 -191Q1940 -245 1906.5 -289.0Q1873 -333 1828.5 -364.5Q1784 -396 1731.5 -413.5Q1679 -431 1622 -431H1190Q1133 -431 1080.0 -413.5Q1027 -396 982.5 -364.5Q938 -333 904.5 -289.0Q871 -245 852 -191Q741 -122 665.0 -17.0Q589 88 560 216H256L383 503H256L439 941Q351 1002 303.5 1095.0Q256 1188 256 1294V1869H543Q603 1869 659.5 1852.5Q716 1836 765.5 1806.0Q815 1776 856.0 1733.5Q897 1691 925 1639L1262 1869L1406 1762L1550 1869Z" style="fill:#000000;stroke:none" transform="scale(1,-1) translate(0,-256)" /></svg>