<?xml version="1.0" encoding="utf-8" ?>
<svg baseProfile="full" height="256" version="1.1" width="256" xmlns="http://www.w3.org/2000/svg" xmlns:ev="http://www.w3.org/2001/xml-events" xmlns:xlink="http://www.w3.org/1999/xlink"><defs /><path d="M1327 445H1067Q1067 437 1068.0 429.5Q1069 422 1069 414Q1069 405 1066.5 394.0Q1064 383 1052 383H942Q929 383 929 397Q929 469 931.5 540.0Q934 611 934 683V850Q934 905 932.5 959.0Q931 1013 931 1068Q931 1081 944 1081Q987 1081 1029.5 1079.5Q1072 1078 1115 1078H1327V1118Q1327 1156 1325.0 1193.5Q1323 1231 1317 1269H1332Q1342 1269 1366.0 1268.5Q1390 1268 1415.0 1266.0Q1440 1264 1459.5 1259.5Q1479 1255 1479 1246Q1479 1244 1476.0 1234.5Q1473 1225 1472 1223Q1466 1203 1464.5 1177.5Q1463 1152 1463 1126V1078H1684Q1727 1078 1769.5 1079.5Q1812 1081 1855 1081Q1870 1081 1870 1068Q1870 1020 1868.5 971.5Q1867 923 1867 875V687Q1867 615 1869.5 544.5Q1872 474 1872 402Q1872 388 1857 388H1747Q1737 388 1734.0 396.5Q1731 405 1731 416Q1731 424 1732.0 432.0Q1733 440 1733 445H1463V364Q1463 306 1465.0 248.0Q1467 190 1467 132Q1467 119 1454 119H1336Q1323 119 1323 132Q1323 210 1325.0 288.5Q1327 367 1327 445ZM1463 707V563H1733V707ZM1327 707H1067V563H1327ZM1463 823H1733V960H1463ZM1327 823V960H1067V823Z" style="fill:#ffffff;stroke:none" transform="scale(1,-1) translate(0,-256)" /></svg>