<?xml version="1.0" encoding="utf-8" ?>
<svg baseProfile="full" height="256" version="1.1" width="256" xmlns="http://www.w3.org/2000/svg" xmlns:ev="http://www.w3.org/2001/xml-events" xmlns:xlink="http://www.w3.org/1999/xlink"><defs /><path d="M975 791Q1004 791 1025.5 769.5Q1047 748 1047 719V144Q1047 115 1025.5 93.5Q1004 72 975 72H687Q658 72 636.5 93.5Q615 115 615 144V719Q615 748 636.5 769.5Q658 791 687 791ZM1337 1098 1385 1078H1550V928H1190V1078H1283ZM1355 1344Q1331 1351 1315.0 1355.5Q1299 1360 1285.5 1362.5Q1272 1365 1259.0 1365.5Q1246 1366 1229 1366H1190L1118 1438H1550L1478 1366H1385ZM1406 1581 1478 1510H1190L1262 1581Z" style="fill:#cccccc;stroke:none" transform="scale(1,-1) translate(0,-256)" /></svg>