<?xml version="1.0" encoding="utf-8" ?>
<svg baseProfile="full" height="256" version="1.1" width="256" xmlns="http://www.w3.org/2000/svg" xmlns:ev="http://www.w3.org/2001/xml-events" xmlns:xlink="http://www.w3.org/1999/xlink"><defs /><path d="M2484 863V-144Q2484 -203 2461.5 -255.5Q2439 -308 2400.0 -347.0Q2361 -386 2308.5 -408.5Q2256 -431 2197 -431H543Q484 -431 431.5 -408.5Q379 -386 340.0 -347.0Q301 -308 278.5 -255.5Q256 -203 256 -144V863Q256 922 278.5 974.5Q301 1027 340.0 1066.0Q379 1105 431.5 1127.5Q484 1150 543 1150H1047V1277L1030 1294H687V1653H1131L1203 1725H1465Q1502 1690 1537 1653H1981V1294H1681Q1689 1271 1691.0 1246.5Q1693 1222 1693 1198V1150H2197Q2256 1150 2308.5 1127.5Q2361 1105 2400.0 1066.0Q2439 1027 2461.5 974.5Q2484 922 2484 863Z" style="fill:#000000;stroke:none" transform="scale(1,-1) translate(0,-256)" /></svg>