<?xml version="1.0" encoding="utf-8" ?>
<svg baseProfile="full" height="256" version="1.1" width="256" xmlns="http://www.w3.org/2000/svg" xmlns:ev="http://www.w3.org/2001/xml-events" xmlns:xlink="http://www.w3.org/1999/xlink"><defs /><path d="M1459 1292Q1463 1293 1467.0 1293.0Q1471 1293 1475 1293Q1507 1293 1528.5 1273.5Q1550 1254 1550 1222Q1550 1192 1529.0 1171.0Q1508 1150 1478 1150Q1468 1150 1459 1153L1385 1078H1283L1408 1203Q1407 1208 1406.5 1212.5Q1406 1217 1406 1222Q1406 1227 1406.5 1231.5Q1407 1236 1408 1241L1283 1366H1385ZM1478 1366Q1448 1366 1427.0 1387.0Q1406 1408 1406 1438Q1406 1467 1427.5 1488.5Q1449 1510 1478 1510Q1507 1510 1528.5 1488.5Q1550 1467 1550 1438Q1550 1408 1529.0 1387.0Q1508 1366 1478 1366ZM1190 1510Q1219 1510 1240.5 1488.5Q1262 1467 1262 1438Q1262 1408 1241.0 1387.0Q1220 1366 1190 1366Q1161 1366 1139.5 1387.5Q1118 1409 1118 1438Q1118 1467 1139.5 1488.5Q1161 1510 1190 1510Z" style="fill:#757575;stroke:none" transform="scale(1,-1) translate(0,-256)" /></svg>