<?xml version="1.0" encoding="utf-8" ?>
<svg baseProfile="full" height="256" version="1.1" width="256" xmlns="http://www.w3.org/2000/svg" xmlns:ev="http://www.w3.org/2001/xml-events" xmlns:xlink="http://www.w3.org/1999/xlink"><defs /><path d="M2340 863V719L2237 518L2340 288V0L2231 -80H503L400 0V288L503 518L400 719V863L540 933H1190L1240 987H1499L1550 933H2206ZM1174 1417 1118 1438H831V1510H1190Q1200 1510 1208.5 1515.0Q1217 1520 1227 1520H1446Q1455 1520 1462.0 1515.0Q1469 1510 1478 1510H1837V1438H1550Q1534 1438 1517.5 1427.5Q1501 1417 1486 1417Z" style="fill:#f2f2f2;stroke:none" transform="scale(1,-1) translate(0,-256)" /></svg>