<?xml version="1.0" encoding="utf-8" ?>
<svg baseProfile="full" height="256" version="1.1" width="256" xmlns="http://www.w3.org/2000/svg" xmlns:ev="http://www.w3.org/2001/xml-events" xmlns:xlink="http://www.w3.org/1999/xlink"><defs /><path d="M795 -431Q683 -431 584.5 -388.5Q486 -346 413.0 -272.5Q340 -199 298.0 -100.5Q256 -2 256 110Q256 226 303.0 329.5Q350 433 437 510L983 995Q988 1017 995.5 1037.5Q1003 1058 1014 1078Q974 1146 974 1223Q974 1282 996.5 1334.0Q1019 1386 1058.0 1425.0Q1097 1464 1149.5 1486.5Q1202 1509 1261 1509Q1261 1569 1284.0 1621.5Q1307 1674 1346.0 1713.0Q1385 1752 1437.0 1774.5Q1489 1797 1548 1797Q1618 1797 1683 1763Q1708 1787 1732.5 1806.5Q1757 1826 1783.5 1839.5Q1810 1853 1840.0 1860.5Q1870 1868 1907 1868Q1946 1868 1983.0 1858.0Q2020 1848 2052.5 1829.0Q2085 1810 2112.5 1782.5Q2140 1755 2159 1721Q2208 1715 2251.0 1693.5Q2294 1672 2327.5 1639.0Q2361 1606 2382.5 1563.0Q2404 1520 2410 1471Q2479 1433 2517.5 1365.5Q2556 1298 2556 1220Q2556 1149 2528.0 1096.5Q2500 1044 2450 996Q2484 931 2484 861Q2484 802 2461.0 750.0Q2438 698 2399.0 659.0Q2360 620 2308.0 597.5Q2256 575 2197 575Q2197 515 2174.0 463.0Q2151 411 2112.0 372.0Q2073 333 2020.5 310.5Q1968 288 1910 288Q1833 288 1765 328Q1745 317 1725.0 308.5Q1705 300 1683 295L1198 -250Q1121 -337 1016.0 -384.0Q911 -431 795 -431Z" style="fill:#000000;stroke:none" transform="scale(1,-1) translate(0,-256)" /></svg>