<?xml version="1.0" encoding="utf-8" ?>
<svg baseProfile="full" height="256" version="1.1" width="256" xmlns="http://www.w3.org/2000/svg" xmlns:ev="http://www.w3.org/2001/xml-events" xmlns:xlink="http://www.w3.org/1999/xlink"><defs /><path d="M1867 1201 1066 335Q991 255 917.0 177.0Q843 99 768 21Q754 7 742.5 -7.5Q731 -22 715 -33Q677 -59 636.0 -83.0Q595 -107 555 -132Q562 -158 572.5 -183.5Q583 -209 597 -233Q550 -207 513.5 -170.0Q477 -133 452.0 -89.0Q427 -45 413.5 5.0Q400 55 400 108Q400 195 434.0 270.5Q468 346 533 403L1443 1213Q1488 1252 1543.5 1273.0Q1599 1294 1658 1294Q1673 1294 1701.0 1282.5Q1729 1271 1760.5 1255.0Q1792 1239 1821.0 1223.5Q1850 1208 1867 1201Z" style="fill:#e5e5e5;stroke:none" transform="scale(1,-1) translate(0,-256)" /></svg>