<?xml version="1.0" encoding="utf-8" ?>
<svg baseProfile="full" height="256" version="1.1" width="256" xmlns="http://www.w3.org/2000/svg" xmlns:ev="http://www.w3.org/2001/xml-events" xmlns:xlink="http://www.w3.org/1999/xlink"><defs /><path d="M1887 1179 1894 1171Q1911 1151 1927.0 1129.5Q1943 1108 1959 1087Q1964 1080 1968.0 1064.5Q1972 1049 1975.0 1031.0Q1978 1013 1979.5 996.0Q1981 979 1981 970Q1981 911 1960.0 855.5Q1939 800 1900 756L1090 -154Q1033 -218 957.0 -252.5Q881 -287 794 -287Q741 -287 690.0 -273.5Q639 -260 594 -233L527 -144Q529 -141 538.0 -128.0Q547 -115 559.0 -98.0Q571 -81 584.5 -62.0Q598 -43 609.0 -26.5Q620 -10 628.0 1.0Q636 12 637 13Z" style="fill:#16c60c;stroke:none" transform="scale(1,-1) translate(0,-256)" /></svg>