<?xml version="1.0" encoding="utf-8" ?>
<svg baseProfile="full" height="256" version="1.1" width="256" xmlns="http://www.w3.org/2000/svg" xmlns:ev="http://www.w3.org/2001/xml-events" xmlns:xlink="http://www.w3.org/1999/xlink"><defs /><path d="M2413 1222Q2413 1193 2403.0 1170.5Q2393 1148 2378.0 1129.5Q2363 1111 2345.0 1095.0Q2327 1079 2312.0 1065.0Q2297 1051 2287.0 1036.5Q2277 1022 2277 1007Q2277 993 2287.0 980.0Q2297 967 2308.5 951.0Q2320 935 2330.0 914.0Q2340 893 2340 862Q2340 832 2328.5 806.5Q2317 781 2297.5 761.5Q2278 742 2252.0 731.0Q2226 720 2197 720Q2165 720 2144.5 730.0Q2124 740 2109.0 751.5Q2094 763 2081.0 773.0Q2068 783 2052 783Q2041 783 2030.0 777.0Q2019 771 2010.0 762.0Q2001 753 1995.5 741.5Q1990 730 1990 719Q1990 704 1999.5 691.0Q2009 678 2021.0 662.0Q2033 646 2042.5 625.0Q2052 604 2052 574Q2052 544 2040.5 518.5Q2029 493 2009.5 473.5Q1990 454 1964.0 443.0Q1938 432 1909 432Q1877 432 1856.5 442.0Q1836 452 1821.0 463.5Q1806 475 1793.5 485.0Q1781 495 1765 495Q1750 495 1736.5 485.0Q1723 475 1706.5 463.0Q1690 451 1669.0 441.0Q1648 431 1618 431Q1589 431 1563.5 443.0Q1538 455 1519.0 475.5Q1500 496 1489.0 522.0Q1478 548 1478 576Q1478 602 1485.0 621.5Q1492 641 1503.5 657.0Q1515 673 1530.0 688.0Q1545 703 1562 720L1405 877Q1388 860 1373.0 845.0Q1358 830 1342.0 818.5Q1326 807 1306.5 800.0Q1287 793 1261 793Q1231 793 1205.5 804.0Q1180 815 1161.0 834.0Q1142 853 1131.0 878.5Q1120 904 1120 934Q1120 965 1129.5 986.5Q1139 1008 1150.0 1023.5Q1161 1039 1170.5 1052.5Q1180 1066 1180 1081Q1180 1096 1170.5 1108.5Q1161 1121 1149.0 1136.0Q1137 1151 1127.5 1171.5Q1118 1192 1118 1224Q1118 1253 1129.0 1279.0Q1140 1305 1159.0 1324.5Q1178 1344 1203.5 1355.5Q1229 1367 1259 1367Q1289 1367 1310.0 1357.5Q1331 1348 1347.0 1336.0Q1363 1324 1376.5 1314.5Q1390 1305 1405 1305Q1416 1305 1427.5 1310.5Q1439 1316 1448.0 1325.0Q1457 1334 1462.5 1345.0Q1468 1356 1468 1367Q1468 1383 1458.0 1396.0Q1448 1409 1436.5 1424.0Q1425 1439 1415.0 1459.5Q1405 1480 1405 1512Q1405 1541 1416.0 1567.0Q1427 1593 1446.5 1612.5Q1466 1632 1491.5 1643.5Q1517 1655 1547 1655Q1578 1655 1599.0 1645.0Q1620 1635 1636.0 1623.5Q1652 1612 1665.0 1602.0Q1678 1592 1692 1592Q1715 1592 1735.5 1613.0Q1756 1634 1780.0 1659.5Q1804 1685 1834.5 1706.0Q1865 1727 1908 1727Q1938 1727 1963.5 1716.0Q1989 1705 2008.5 1685.5Q2028 1666 2039.0 1640.5Q2050 1615 2050 1585Q2050 1578 2049.5 1571.5Q2049 1565 2048 1559Q2082 1581 2125 1581Q2155 1581 2181.0 1569.5Q2207 1558 2226.5 1538.5Q2246 1519 2257.0 1493.0Q2268 1467 2268 1437Q2268 1397 2248 1363Q2254 1364 2259.5 1364.5Q2265 1365 2271 1365Q2300 1365 2326.0 1354.0Q2352 1343 2371.5 1323.5Q2391 1304 2402.0 1278.0Q2413 1252 2413 1222Z" style="fill:#13a10e;stroke:none" transform="scale(1,-1) translate(0,-256)" /></svg>