<?xml version="1.0" encoding="utf-8" ?>
<svg baseProfile="full" height="256" version="1.1" width="256" xmlns="http://www.w3.org/2000/svg" xmlns:ev="http://www.w3.org/2001/xml-events" xmlns:xlink="http://www.w3.org/1999/xlink"><defs /><path d="M1989 1150H2161Q2175 1150 2186.0 1139.0Q2197 1128 2197 1114Q2197 1100 2186.0 1089.0Q2175 1078 2161 1078H1917L1827 988H1999Q2021 988 2037.0 973.0Q2053 958 2053 935Q2053 912 2037.5 896.5Q2022 881 1999 881H1719L1629 791H1765Q1795 791 1816.0 770.0Q1837 749 1837 719Q1837 689 1816.0 668.0Q1795 647 1765 647H1497Q1478 612 1478 575V565L947 -11Q888 -75 813.5 -109.5Q739 -144 651 -144Q601 -144 555 -132Q543 -86 543 -36Q543 52 577.5 126.5Q612 201 676 260L1254 793H1263Q1301 793 1334 812V1078Q1334 1108 1355.0 1129.0Q1376 1150 1406 1150Q1436 1150 1457.0 1129.0Q1478 1108 1478 1078V944L1568 1034V1312Q1568 1335 1583.5 1350.5Q1599 1366 1622 1366Q1645 1366 1660.0 1350.0Q1675 1334 1675 1312V1142L1765 1232V1474Q1765 1488 1776.0 1499.0Q1787 1510 1801 1510Q1815 1510 1826.0 1499.0Q1837 1488 1837 1474V1304L1941 1407Q1956 1422 1976.0 1430.0Q1996 1438 2017 1438Q2039 1438 2058.5 1429.5Q2078 1421 2092.5 1406.5Q2107 1392 2115.5 1372.5Q2124 1353 2124 1331Q2124 1310 2116.0 1290.0Q2108 1270 2093 1255Z" style="fill:#79db75;stroke:none" transform="scale(1,-1) translate(0,-256)" /></svg>