<?xml version="1.0" encoding="utf-8" ?>
<svg baseProfile="full" height="256" version="1.1" width="256" xmlns="http://www.w3.org/2000/svg" xmlns:ev="http://www.w3.org/2001/xml-events" xmlns:xlink="http://www.w3.org/1999/xlink"><defs /><path d="M903 719Q903 651 933 593L827 487Q794 539 776.5 598.0Q759 657 759 719Q759 808 793.0 886.5Q827 965 885.5 1023.5Q944 1082 1022.5 1116.0Q1101 1150 1190 1150H1622V1366L1909 1078L1622 791V1006H1190Q1131 1006 1078.5 983.5Q1026 961 987.0 922.0Q948 883 925.5 830.5Q903 778 903 719ZM1985 951Q2018 899 2035.5 840.0Q2053 781 2053 719Q2053 630 2019.0 551.5Q1985 473 1926.5 414.5Q1868 356 1789.5 322.0Q1711 288 1622 288H1190V72L903 360L1190 647V431H1622Q1680 431 1732.5 454.0Q1785 477 1824.0 516.5Q1863 556 1886.0 608.0Q1909 660 1909 719Q1909 786 1879 845Z" style="fill:#ffffff;stroke:none" transform="scale(1,-1) translate(0,-256)" /></svg>