<?xml version="1.0" encoding="utf-8" ?>
<svg baseProfile="full" height="256" version="1.1" width="256" xmlns="http://www.w3.org/2000/svg" xmlns:ev="http://www.w3.org/2001/xml-events" xmlns:xlink="http://www.w3.org/1999/xlink"><defs /><path d="M651 935Q666 935 676.5 924.5Q687 914 687 899V827Q687 812 676.5 801.5Q666 791 651 791Q636 791 625.5 801.5Q615 812 615 827V899Q615 914 625.5 924.5Q636 935 651 935ZM1083 863Q1097 863 1107.5 852.0Q1118 841 1118 827Q1118 813 1107.5 802.0Q1097 791 1083 791Q1068 791 1057.5 801.5Q1047 812 1047 827Q1047 842 1057.5 852.5Q1068 863 1083 863ZM867 863Q882 863 892.5 852.5Q903 842 903 827Q903 812 892.5 801.5Q882 791 867 791Q852 791 841.5 801.5Q831 812 831 827Q831 842 841.5 852.5Q852 863 867 863ZM1011 719Q1026 719 1036.5 708.5Q1047 698 1047 683Q1047 668 1036.5 657.5Q1026 647 1011 647Q996 647 985.5 657.5Q975 668 975 683Q975 698 985.5 708.5Q996 719 1011 719ZM1442 503Q1457 503 1467.5 492.5Q1478 482 1478 467Q1478 453 1467.0 442.0Q1456 431 1442 431Q1428 431 1417.0 442.0Q1406 453 1406 467Q1406 482 1416.5 492.5Q1427 503 1442 503ZM1658 503Q1672 503 1682.5 492.0Q1693 481 1693 467Q1693 453 1682.5 442.0Q1672 431 1658 431Q1644 431 1633.0 442.0Q1622 453 1622 467Q1622 482 1632.5 492.5Q1643 503 1658 503ZM2017 719Q2032 719 2042.5 708.5Q2053 698 2053 683Q2053 668 2042.5 657.5Q2032 647 2017 647Q2002 647 1991.5 657.5Q1981 668 1981 683Q1981 698 1991.5 708.5Q2002 719 2017 719ZM1406 719Q1376 719 1355.0 740.0Q1334 761 1334 791H1478Q1478 761 1457.0 740.0Q1436 719 1406 719ZM1693 719Q1664 719 1643.0 740.5Q1622 762 1622 791H1765Q1765 761 1744.0 740.0Q1723 719 1693 719ZM1262 719Q1292 719 1313.0 698.0Q1334 677 1334 647Q1334 617 1313.0 596.0Q1292 575 1262 575Q1232 575 1211.0 596.0Q1190 617 1190 647Q1190 677 1211.0 698.0Q1232 719 1262 719ZM1550 719Q1579 719 1600.5 697.5Q1622 676 1622 647Q1622 618 1600.5 596.5Q1579 575 1550 575Q1520 575 1499.0 596.0Q1478 617 1478 647Q1478 677 1499.0 698.0Q1520 719 1550 719ZM1837 719Q1867 719 1888.0 698.0Q1909 677 1909 647Q1909 617 1888.0 596.0Q1867 575 1837 575Q1807 575 1786.0 596.0Q1765 617 1765 647Q1765 677 1786.0 698.0Q1807 719 1837 719Z" style="fill:#000000;stroke:none" transform="scale(1,-1) translate(0,-256)" /></svg>