<?xml version="1.0" encoding="utf-8" ?>
<svg baseProfile="full" height="256" version="1.1" width="256" xmlns="http://www.w3.org/2000/svg" xmlns:ev="http://www.w3.org/2001/xml-events" xmlns:xlink="http://www.w3.org/1999/xlink"><defs /><path d="M1829 216 1884 93 1693 -287H1478V-215Q1478 -191 1487.0 -177.0Q1496 -163 1510.5 -155.5Q1525 -148 1543.0 -145.5Q1561 -143 1580 -143Q1591 -143 1601.5 -143.5Q1612 -144 1622 -144V216L1656 294ZM806 960Q819 973 833.0 989.5Q847 1006 867 1006Q881 1006 891.5 995.0Q902 984 902 970Q902 951 885.0 936.0Q868 921 856 909Z" style="fill:#d48c00;stroke:none" transform="scale(1,-1) translate(0,-256)" /></svg>