<?xml version="1.0" encoding="utf-8" ?>
<svg baseProfile="full" height="256" version="1.1" width="256" xmlns="http://www.w3.org/2000/svg" xmlns:ev="http://www.w3.org/2001/xml-events" xmlns:xlink="http://www.w3.org/1999/xlink"><defs /><path d="M2358 431Q2376 431 2387.0 424.0Q2398 417 2403.5 405.5Q2409 394 2411.0 380.0Q2413 366 2413 351Q2413 340 2412.5 328.5Q2412 317 2412 306Q2412 258 2393.5 215.5Q2375 173 2343.5 141.0Q2312 109 2269.5 90.5Q2227 72 2179 72Q2165 72 2152.0 74.0Q2139 76 2125 79V-144L2053 -287H1837V-215Q1837 -191 1846.5 -177.0Q1856 -163 1871.0 -155.5Q1886 -148 1905.0 -145.5Q1924 -143 1944 -143Q1956 -143 1967.5 -143.5Q1979 -144 1989 -144L1884 93L1806 130L1829 216L1737 276H1348L1262 216L1047 -287H831V-215Q831 -191 840.0 -176.5Q849 -162 864.0 -155.0Q879 -148 898.0 -146.0Q917 -144 936 -144H975V360L759 575H508L400 791L543 935Q556 948 573.0 960.5Q590 973 609.5 983.0Q629 993 649.0 999.5Q669 1006 687 1006H750L759 1016Q782 1040 806.5 1059.0Q831 1078 867 1078Q889 1078 908.5 1069.5Q928 1061 943.0 1046.5Q958 1032 966.5 1012.5Q975 993 975 971Q1084 917 1191.0 864.0Q1298 811 1404 751L1478 791H1622L1691 751L1765 791H1909Q1969 791 2021.5 768.5Q2074 746 2113.0 707.0Q2152 668 2174.5 615.5Q2197 563 2197 503Q2197 451 2178.0 402.5Q2159 354 2125 315V192Q2150 180 2179 180Q2205 180 2228.0 190.0Q2251 200 2268.0 217.0Q2285 234 2294.5 257.0Q2304 280 2304 306Q2304 317 2303.5 328.5Q2303 340 2303 351Q2303 365 2305.0 379.5Q2307 394 2312.5 405.5Q2318 417 2329.0 424.0Q2340 431 2358 431Z" style="fill:#ffb900;stroke:none" transform="scale(1,-1) translate(0,-256)" /></svg>