<?xml version="1.0" encoding="utf-8" ?>
<svg baseProfile="full" height="256" version="1.1" width="256" xmlns="http://www.w3.org/2000/svg" xmlns:ev="http://www.w3.org/2001/xml-events" xmlns:xlink="http://www.w3.org/1999/xlink"><defs /><path d="M2335 574Q2341 575 2347.5 575.5Q2354 576 2360 576Q2400 576 2435.5 560.0Q2471 544 2498.0 517.0Q2525 490 2540.5 454.0Q2556 418 2556 378V306Q2556 241 2534.5 181.5Q2513 122 2474.5 73.5Q2436 25 2383.5 -10.0Q2331 -45 2268 -61V-177L2142 -431H1334V-215Q1334 -181 1345.0 -149.5Q1356 -118 1375.0 -91.5Q1394 -65 1420.5 -44.5Q1447 -24 1478 -12V72H1357L1141 -431H687V-215Q687 -181 698.0 -149.5Q709 -118 728.0 -91.5Q747 -65 773.5 -44.5Q800 -24 831 -12V300L700 431H508Q456 431 410.0 451.0Q364 471 330.0 505.0Q296 539 276.0 585.0Q256 631 256 683V850L442 1036Q492 1086 555.5 1118.0Q619 1150 691 1150Q726 1185 771.5 1203.5Q817 1222 867 1222Q904 1222 939.5 1211.0Q975 1200 1005.5 1180.0Q1036 1160 1060.0 1131.5Q1084 1103 1098 1069L1368 935H1909Q1988 935 2059.5 907.5Q2131 880 2188.0 832.0Q2245 784 2283.5 718.0Q2322 652 2335 574Z" style="fill:#000000;stroke:none" transform="scale(1,-1) translate(0,-256)" /></svg>