<?xml version="1.0" encoding="utf-8" ?>
<svg baseProfile="full" height="256" version="1.1" width="256" xmlns="http://www.w3.org/2000/svg" xmlns:ev="http://www.w3.org/2001/xml-events" xmlns:xlink="http://www.w3.org/1999/xlink"><defs /><path d="M1658 360Q1638 360 1615.0 362.5Q1592 365 1569.0 371.0Q1546 377 1525.5 387.0Q1505 397 1490 411Q1486 415 1482.0 420.5Q1478 426 1478 431Q1478 437 1482.0 442.0Q1486 447 1490 451Q1505 466 1525.5 476.0Q1546 486 1569.0 492.0Q1592 498 1615.0 500.5Q1638 503 1658 503Q1677 503 1700.0 500.5Q1723 498 1745.5 492.0Q1768 486 1788.5 476.5Q1809 467 1824 453Q1828 449 1832.5 443.0Q1837 437 1837 431Q1837 425 1832.5 419.5Q1828 414 1824 410Q1809 396 1788.5 386.5Q1768 377 1745.5 371.0Q1723 365 1700.0 362.5Q1677 360 1658 360Z" style="fill:#f2d6c9;stroke:none" transform="scale(1,-1) translate(0,-256)" /></svg>