<?xml version="1.0" encoding="utf-8" ?>
<svg baseProfile="full" height="256" version="1.1" width="256" xmlns="http://www.w3.org/2000/svg" xmlns:ev="http://www.w3.org/2001/xml-events" xmlns:xlink="http://www.w3.org/1999/xlink"><defs /><path d="M2412 575V216H2018Q1874 159 1717.0 133.5Q1560 108 1406 108Q1252 108 1095.0 133.5Q938 159 794 216H400V575H436Q436 638 467.0 691.5Q498 745 547.5 789.5Q597 834 661.0 869.5Q725 905 791.0 931.5Q857 958 920.5 976.5Q984 995 1033 1005Q1125 1024 1218.5 1033.0Q1312 1042 1406 1042Q1500 1042 1593.5 1033.0Q1687 1024 1779 1005Q1828 995 1891.5 976.5Q1955 958 2021.0 931.5Q2087 905 2151.0 869.5Q2215 834 2264.5 789.5Q2314 745 2345.0 691.5Q2376 638 2376 575Z" style="fill:#cccccc;stroke:none" transform="scale(1,-1) translate(0,-256)" /></svg>