<?xml version="1.0" encoding="utf-8" ?>
<svg baseProfile="full" height="256" version="1.1" width="256" xmlns="http://www.w3.org/2000/svg" xmlns:ev="http://www.w3.org/2001/xml-events" xmlns:xlink="http://www.w3.org/1999/xlink"><defs /><path d="M2274 370Q2222 321 2157.0 282.5Q2092 244 2018.0 215.0Q1944 186 1865.0 165.5Q1786 145 1706.5 132.5Q1627 120 1550.5 114.0Q1474 108 1406 108Q1338 108 1261.5 114.0Q1185 120 1105.5 132.5Q1026 145 947.0 165.5Q868 186 794.0 215.0Q720 244 654.5 282.5Q589 321 538 370Q585 423 649.0 464.5Q713 506 787.0 537.0Q861 568 942.0 589.0Q1023 610 1104.0 623.0Q1185 636 1262.5 641.5Q1340 647 1406 647Q1472 647 1549.5 641.5Q1627 636 1708.0 623.0Q1789 610 1870.0 589.0Q1951 568 2025.0 537.0Q2099 506 2163.0 464.5Q2227 423 2274 370Z" style="fill:#b3dbf2;stroke:none" transform="scale(1,-1) translate(0,-256)" /></svg>