<?xml version="1.0" encoding="utf-8" ?>
<svg baseProfile="full" height="256" version="1.1" width="256" xmlns="http://www.w3.org/2000/svg" xmlns:ev="http://www.w3.org/2001/xml-events" xmlns:xlink="http://www.w3.org/1999/xlink"><defs /><path d="M831 108Q831 131 840.0 152.5Q849 174 863 191Q994 147 1131.5 127.5Q1269 108 1406 108Q1406 59 1375.5 25.0Q1345 -9 1300.5 -30.5Q1256 -52 1206.0 -62.0Q1156 -72 1118 -72Q1080 -72 1030.0 -62.0Q980 -52 936.0 -30.5Q892 -9 861.5 25.5Q831 60 831 108ZM1909 -36Q1909 -47 1900.5 -53.5Q1892 -60 1880.5 -64.5Q1869 -69 1856.5 -70.5Q1844 -72 1837 -72Q1829 -72 1817.0 -70.5Q1805 -69 1793.5 -64.5Q1782 -60 1773.5 -53.5Q1765 -47 1765 -36Q1765 -26 1773.5 -19.0Q1782 -12 1793.5 -7.5Q1805 -3 1817.0 -1.5Q1829 0 1837 0Q1844 0 1856.5 -1.5Q1869 -3 1880.5 -7.5Q1892 -12 1900.5 -19.0Q1909 -26 1909 -36Z" style="fill:#f7630c;stroke:none" transform="scale(1,-1) translate(0,-256)" /></svg>