<?xml version="1.0" encoding="utf-8" ?>
<svg baseProfile="full" height="256" version="1.1" width="256" xmlns="http://www.w3.org/2000/svg" xmlns:ev="http://www.w3.org/2001/xml-events" xmlns:xlink="http://www.w3.org/1999/xlink"><defs /><path d="M1406 431Q1406 471 1434.0 499.0Q1462 527 1501.5 543.5Q1541 560 1584.5 567.5Q1628 575 1658 575Q1688 575 1731.0 567.5Q1774 560 1813.5 543.0Q1853 526 1881.0 498.5Q1909 471 1909 431Q1909 391 1881.0 363.5Q1853 336 1813.5 319.5Q1774 303 1731.0 295.5Q1688 288 1658 288Q1628 288 1585.0 295.5Q1542 303 1502.0 319.5Q1462 336 1434.0 363.5Q1406 391 1406 431ZM1118 288Q1156 288 1206.0 278.0Q1256 268 1300.5 246.5Q1345 225 1375.5 191.0Q1406 157 1406 108Q1269 108 1131.5 127.5Q994 147 863 191Q885 217 915.5 235.5Q946 254 980.0 265.5Q1014 277 1049.5 282.5Q1085 288 1118 288ZM1118 467Q1118 457 1109.5 450.0Q1101 443 1090.0 439.0Q1079 435 1066.5 433.0Q1054 431 1047 431Q1039 431 1027.0 433.0Q1015 435 1003.5 439.0Q992 443 983.5 450.0Q975 457 975 467Q975 477 983.5 484.0Q992 491 1003.5 495.5Q1015 500 1027.0 501.5Q1039 503 1047 503Q1054 503 1066.5 501.5Q1079 500 1090.0 495.5Q1101 491 1109.5 484.0Q1118 477 1118 467Z" style="fill:#f7894a;stroke:none" transform="scale(1,-1) translate(0,-256)" /></svg>