<?xml version="1.0" encoding="utf-8" ?>
<svg baseProfile="full" height="256" version="1.1" width="256" xmlns="http://www.w3.org/2000/svg" xmlns:ev="http://www.w3.org/2001/xml-events" xmlns:xlink="http://www.w3.org/1999/xlink"><defs /><path d="M2412 216Q2412 147 2381.5 89.5Q2351 32 2300.5 -16.0Q2250 -64 2185.5 -101.5Q2121 -139 2053.0 -168.0Q1985 -197 1918.5 -217.0Q1852 -237 1798 -248Q1701 -268 1603.0 -277.5Q1505 -287 1406 -287Q1307 -287 1209.0 -277.5Q1111 -268 1014 -248Q960 -237 893.5 -217.0Q827 -197 759.0 -168.0Q691 -139 626.5 -101.5Q562 -64 511.5 -16.0Q461 32 430.5 90.0Q400 148 400 216Q400 284 430.5 342.0Q461 400 511.5 448.0Q562 496 626.5 533.5Q691 571 759.0 600.0Q827 629 893.5 648.5Q960 668 1014 680Q1111 700 1209.0 709.5Q1307 719 1406 719Q1505 719 1603.0 709.5Q1701 700 1798 680Q1852 668 1918.5 648.5Q1985 629 2053.0 600.0Q2121 571 2185.5 533.5Q2250 496 2300.5 448.0Q2351 400 2381.5 342.0Q2412 284 2412 216Z" style="fill:#a6a6a6;stroke:none" transform="scale(1,-1) translate(0,-256)" /></svg>