<?xml version="1.0" encoding="utf-8" ?>
<svg baseProfile="full" height="256" version="1.1" width="256" xmlns="http://www.w3.org/2000/svg" xmlns:ev="http://www.w3.org/2001/xml-events" xmlns:xlink="http://www.w3.org/1999/xlink"><defs /><path d="M1406 1078Q1505 1078 1603.0 1068.5Q1701 1059 1798 1039Q1852 1027 1918.5 1007.5Q1985 988 2053.0 959.0Q2121 930 2185.5 892.5Q2250 855 2300.5 807.0Q2351 759 2381.5 701.0Q2412 643 2412 575Q2412 506 2381.5 448.5Q2351 391 2300.5 343.0Q2250 295 2185.5 257.5Q2121 220 2053.0 191.0Q1985 162 1918.5 142.0Q1852 122 1798 111Q1701 91 1603.0 81.5Q1505 72 1406 72Q1307 72 1209.0 81.5Q1111 91 1014 111Q960 122 893.5 142.0Q827 162 759.0 191.0Q691 220 626.5 257.5Q562 295 511.5 343.0Q461 391 430.5 448.5Q400 506 400 575Q400 643 430.5 701.0Q461 759 511.5 807.0Q562 855 626.5 892.5Q691 930 759.0 959.0Q827 988 893.5 1007.5Q960 1027 1014 1039Q1111 1059 1209.0 1068.5Q1307 1078 1406 1078ZM1406 144Q1509 144 1609.5 154.0Q1710 164 1810 187Q1852 196 1908.0 213.5Q1964 231 2022.5 255.5Q2081 280 2138.0 312.5Q2195 345 2240.0 385.0Q2285 425 2312.5 472.5Q2340 520 2340 575Q2340 632 2311.0 680.5Q2282 729 2235.0 769.5Q2188 810 2128.5 842.5Q2069 875 2008.0 900.0Q1947 925 1889.0 942.0Q1831 959 1788 968Q1693 988 1598.0 997.0Q1503 1006 1406 1006Q1309 1006 1214.0 997.0Q1119 988 1024 968Q981 959 923.0 942.0Q865 925 804.0 900.0Q743 875 683.5 842.5Q624 810 577.0 769.5Q530 729 501.0 680.5Q472 632 472 575Q472 520 499.5 472.5Q527 425 572.0 385.0Q617 345 674.0 312.5Q731 280 789.5 255.5Q848 231 904.0 213.5Q960 196 1002 187Q1102 164 1202.5 154.0Q1303 144 1406 144Z" style="fill:#f2f2f2;stroke:none" transform="scale(1,-1) translate(0,-256)" /></svg>