<?xml version="1.0" encoding="utf-8" ?>
<svg baseProfile="full" height="256" version="1.1" width="256" xmlns="http://www.w3.org/2000/svg" xmlns:ev="http://www.w3.org/2001/xml-events" xmlns:xlink="http://www.w3.org/1999/xlink"><defs /><path d="M1406 108Q1508 108 1627.5 121.5Q1747 135 1865.0 165.5Q1983 196 2090.0 246.0Q2197 296 2274 370Q2302 338 2321.0 298.5Q2340 259 2340 216Q2340 159 2311.0 110.5Q2282 62 2235.0 21.5Q2188 -19 2128.5 -51.5Q2069 -84 2008.0 -109.0Q1947 -134 1889.0 -151.0Q1831 -168 1788 -177Q1693 -197 1598.0 -206.0Q1503 -215 1406 -215Q1309 -215 1214.0 -206.0Q1119 -197 1024 -177Q981 -168 923.0 -151.0Q865 -134 804.0 -109.0Q743 -84 683.5 -51.5Q624 -19 577.0 21.5Q530 62 501.0 111.0Q472 160 472 216Q472 259 491.0 298.5Q510 338 538 370Q615 296 722.0 246.0Q829 196 947.0 165.5Q1065 135 1184.5 121.5Q1304 108 1406 108Z" style="fill:#83beec;stroke:none" transform="scale(1,-1) translate(0,-256)" /></svg>