<?xml version="1.0" encoding="utf-8" ?>
<svg baseProfile="full" height="256" version="1.1" width="256" xmlns="http://www.w3.org/2000/svg" xmlns:ev="http://www.w3.org/2001/xml-events" xmlns:xlink="http://www.w3.org/1999/xlink"><defs /><path d="M1406 -431Q1291 -431 1176.5 -419.5Q1062 -408 950 -382Q878 -366 799.0 -339.0Q720 -312 643.0 -274.5Q566 -237 496.0 -188.5Q426 -140 372.5 -79.0Q319 -18 287.5 55.5Q256 129 256 216V575Q256 662 287.5 735.5Q319 809 372.5 870.0Q426 931 496.0 979.5Q566 1028 643.0 1065.5Q720 1103 799.0 1129.5Q878 1156 950 1173Q1062 1199 1176.5 1210.5Q1291 1222 1406 1222Q1521 1222 1635.5 1210.5Q1750 1199 1862 1173Q1933 1156 2012.5 1129.5Q2092 1103 2169.0 1065.5Q2246 1028 2316.0 979.5Q2386 931 2439.5 870.0Q2493 809 2524.5 735.5Q2556 662 2556 575V216Q2556 129 2524.5 55.5Q2493 -18 2439.5 -79.0Q2386 -140 2316.0 -188.5Q2246 -237 2169.0 -274.5Q2092 -312 2012.5 -338.5Q1933 -365 1862 -382Q1750 -408 1635.5 -419.5Q1521 -431 1406 -431Z" style="fill:#000000;stroke:none" transform="scale(1,-1) translate(0,-256)" /></svg>