<?xml version="1.0" encoding="utf-8" ?>
<svg baseProfile="full" height="256" version="1.1" width="256" xmlns="http://www.w3.org/2000/svg" xmlns:ev="http://www.w3.org/2001/xml-events" xmlns:xlink="http://www.w3.org/1999/xlink"><defs /><path d="M831 1078Q802 1078 780.5 1099.5Q759 1121 759 1150Q759 1180 780.0 1201.0Q801 1222 831 1222Q896 1222 957 1245Q1069 1288 1125 1396Q1135 1415 1152.0 1426.5Q1169 1438 1191 1438Q1220 1438 1241.0 1416.5Q1262 1395 1262 1366Q1262 1352 1255 1335Q1229 1274 1183.5 1226.5Q1138 1179 1081.0 1146.0Q1024 1113 959.5 1095.5Q895 1078 831 1078ZM1981 1078Q1917 1078 1852.5 1095.5Q1788 1113 1731.0 1146.0Q1674 1179 1628.5 1226.5Q1583 1274 1556 1335Q1550 1348 1550 1365Q1550 1395 1570.5 1416.5Q1591 1438 1621 1438Q1643 1438 1660.0 1426.5Q1677 1415 1687 1396Q1742 1287 1855 1245Q1916 1222 1981 1222Q2011 1222 2032.0 1201.0Q2053 1180 2053 1150Q2053 1121 2031.5 1099.5Q2010 1078 1981 1078Z" style="fill:#d48c00;stroke:none" transform="scale(1,-1) translate(0,-256)" /></svg>