<?xml version="1.0" encoding="utf-8" ?>
<svg baseProfile="full" height="256" version="1.1" width="256" xmlns="http://www.w3.org/2000/svg" xmlns:ev="http://www.w3.org/2001/xml-events" xmlns:xlink="http://www.w3.org/1999/xlink"><defs /><path d="M831 72Q831 191 876.0 296.0Q921 401 999.0 479.0Q1077 557 1182.0 602.0Q1287 647 1406 647Q1525 647 1630.0 602.0Q1735 557 1813.0 479.0Q1891 401 1936.0 296.0Q1981 191 1981 72ZM1246 1045Q1262 1007 1262 963Q1262 930 1252.5 899.5Q1243 869 1226.0 843.0Q1209 817 1184.0 796.5Q1159 776 1129 763L1063 735Q1025 719 981 719Q948 719 917.5 728.5Q887 738 860.5 755.5Q834 773 813.5 797.5Q793 822 781 852L847 880Q855 860 873.5 848.0Q892 836 914 836Q926 836 957.5 847.5Q989 859 1024.5 873.5Q1060 888 1092.5 902.5Q1125 917 1140 923Q1160 931 1172.5 949.0Q1185 967 1185 989Q1185 1003 1179 1017ZM1566 1045 1633 1017Q1627 1003 1627 989Q1627 968 1639.0 949.5Q1651 931 1671 923Q1686 917 1718.5 902.5Q1751 888 1787.0 873.5Q1823 859 1854.5 847.5Q1886 836 1898 836Q1920 836 1938.5 848.0Q1957 860 1965 880L2031 852Q2006 791 1951.5 755.0Q1897 719 1831 719Q1787 719 1749 735L1683 763Q1653 776 1628.0 796.5Q1603 817 1586.0 843.0Q1569 869 1559.5 899.5Q1550 930 1550 963Q1550 1007 1566 1045Z" style="fill:#000000;stroke:none" transform="scale(1,-1) translate(0,-256)" /></svg>