<?xml version="1.0" encoding="utf-8" ?>
<svg baseProfile="full" height="256" version="1.1" width="256" xmlns="http://www.w3.org/2000/svg" xmlns:ev="http://www.w3.org/2001/xml-events" xmlns:xlink="http://www.w3.org/1999/xlink"><defs /><path d="M1190 1725Q1294 1725 1385.5 1685.5Q1477 1646 1545.5 1577.5Q1614 1509 1653.5 1417.5Q1693 1326 1693 1222V144Q1664 144 1643.0 165.5Q1622 187 1622 216V1204Q1622 1252 1603.5 1295.0Q1585 1338 1553.5 1369.5Q1522 1401 1479.0 1419.5Q1436 1438 1388 1438Q1328 1438 1275.0 1408.5Q1222 1379 1190 1328Q1158 1379 1105.5 1408.5Q1053 1438 993 1438Q945 1438 902.0 1419.5Q859 1401 827.5 1369.5Q796 1338 777.5 1295.0Q759 1252 759 1204V216Q759 186 738.0 165.0Q717 144 687 144V1222Q687 1326 726.5 1417.5Q766 1509 834.5 1577.5Q903 1646 994.5 1685.5Q1086 1725 1190 1725Z" style="fill:#fce100;stroke:none" transform="scale(1,-1) translate(0,-256)" /></svg>