<?xml version="1.0" encoding="utf-8" ?>
<svg baseProfile="full" height="256" version="1.1" width="256" xmlns="http://www.w3.org/2000/svg" xmlns:ev="http://www.w3.org/2001/xml-events" xmlns:xlink="http://www.w3.org/1999/xlink"><defs /><path d="M1190 647Q1175 647 1151.0 652.5Q1127 658 1103.5 668.5Q1080 679 1063.0 693.5Q1046 708 1046 726Q1046 740 1056.5 750.5Q1067 761 1081 761Q1090 761 1099.5 754.0Q1109 747 1121.0 738.5Q1133 730 1149.5 723.0Q1166 716 1190 716Q1214 716 1230.5 723.0Q1247 730 1259.0 738.5Q1271 747 1280.5 754.0Q1290 761 1300 761Q1314 761 1324.0 751.0Q1334 741 1334 726Q1334 708 1317.0 693.0Q1300 678 1276.5 668.0Q1253 658 1229.0 652.5Q1205 647 1190 647ZM1190 862Q1161 862 1139.5 883.5Q1118 905 1118 934H1262Q1262 904 1241.0 883.0Q1220 862 1190 862Z" style="fill:#f7894a;stroke:none" transform="scale(1,-1) translate(0,-256)" /></svg>