<?xml version="1.0" encoding="utf-8" ?>
<svg baseProfile="full" height="256" version="1.1" width="256" xmlns="http://www.w3.org/2000/svg" xmlns:ev="http://www.w3.org/2001/xml-events" xmlns:xlink="http://www.w3.org/1999/xlink"><defs /><path d="M1837 482Q1904 440 1957.5 383.5Q2011 327 2048.0 260.0Q2085 193 2105.0 118.0Q2125 43 2125 -36V-431H256V-36Q256 43 276.0 118.0Q296 193 333.0 260.0Q370 327 423.0 383.5Q476 440 543 482V811Q510 824 484.0 847.0Q458 870 439.0 899.5Q420 929 410.0 962.5Q400 996 400 1031V1340Q400 1375 413.5 1405.5Q427 1436 450.0 1459.0Q473 1482 503.5 1495.5Q534 1509 569 1509Q580 1509 589.0 1508.5Q598 1508 608 1504Q648 1588 709.5 1655.5Q771 1723 846.5 1770.5Q922 1818 1009.5 1843.5Q1097 1869 1190 1869Q1283 1869 1370.5 1843.5Q1458 1818 1533.5 1770.5Q1609 1723 1670.0 1655.5Q1731 1588 1772 1504Q1777 1506 1783.5 1507.5Q1790 1509 1795 1509Q1833 1509 1867.0 1498.0Q1901 1487 1926.5 1465.0Q1952 1443 1966.5 1411.5Q1981 1380 1981 1340V1031Q1981 996 1971.0 962.0Q1961 928 1942.0 899.0Q1923 870 1896.5 847.0Q1870 824 1837 811Z" style="fill:#000000;stroke:none" transform="scale(1,-1) translate(0,-256)" /></svg>