<?xml version="1.0" encoding="utf-8" ?>
<svg baseProfile="full" height="256" version="1.1" width="256" xmlns="http://www.w3.org/2000/svg" xmlns:ev="http://www.w3.org/2001/xml-events" xmlns:xlink="http://www.w3.org/1999/xlink"><defs /><path d="M1190 320Q1196 324 1218.0 341.5Q1240 359 1264.5 378.5Q1289 398 1310.0 413.5Q1331 429 1334 431Q1344 436 1374.0 446.5Q1404 457 1438.5 468.0Q1473 479 1504.5 488.5Q1536 498 1550 503L1190 -216L831 503Q845 498 877.0 488.5Q909 479 943.5 467.5Q978 456 1007.5 446.0Q1037 436 1047 431Q1050 429 1070.5 413.5Q1091 398 1116.0 378.5Q1141 359 1162.5 341.5Q1184 324 1190 320Z" style="fill:#16c60c;stroke:none" transform="scale(1,-1) translate(0,-256)" /></svg>