<?xml version="1.0" encoding="utf-8" ?>
<svg baseProfile="full" height="256" version="1.1" width="256" xmlns="http://www.w3.org/2000/svg" xmlns:ev="http://www.w3.org/2001/xml-events" xmlns:xlink="http://www.w3.org/1999/xlink"><defs /><path d="M1663 1227Q1695 1259 1727.5 1294.0Q1760 1329 1794 1358Q1803 1365 1813 1365Q1823 1365 1830.0 1357.5Q1837 1350 1837 1340V1031Q1837 1006 1828.0 987.5Q1819 969 1803.0 957.0Q1787 945 1766.5 939.5Q1746 934 1724 934H1688Q1675 842 1630.5 763.0Q1586 684 1519.0 626.0Q1452 568 1367.5 535.5Q1283 503 1190 503Q1097 503 1012.5 535.5Q928 568 861.0 626.0Q794 684 749.5 762.5Q705 841 692 934H660Q645 934 631.0 935.5Q617 937 603 942Q576 953 559.5 977.5Q543 1002 543 1031V1340Q543 1351 550.0 1358.0Q557 1365 568 1365Q579 1365 586 1358Q619 1329 650.5 1296.0Q682 1263 713 1231Q715 1338 754.5 1409.0Q794 1480 859.5 1522.0Q925 1564 1010.5 1581.5Q1096 1599 1190 1599Q1285 1599 1370.5 1581.5Q1456 1564 1520.5 1521.5Q1585 1479 1623.5 1407.0Q1662 1335 1663 1227ZM1046 431H1334L1190 0Z" style="fill:#ffc83d;stroke:none" transform="scale(1,-1) translate(0,-256)" /></svg>