<?xml version="1.0" encoding="utf-8" ?>
<svg baseProfile="full" height="256" version="1.1" width="256" xmlns="http://www.w3.org/2000/svg" xmlns:ev="http://www.w3.org/2001/xml-events" xmlns:xlink="http://www.w3.org/1999/xlink"><defs /><path d="M1809 39H1709V83Q1691 56 1665.0 43.5Q1639 31 1607 31Q1572 31 1546.5 44.5Q1521 58 1504.5 80.5Q1488 103 1480.5 132.0Q1473 161 1473 193Q1473 227 1482.0 258.5Q1491 290 1509.0 315.0Q1527 340 1554.5 355.0Q1582 370 1620 370Q1647 370 1670.5 360.0Q1694 350 1708 325V518H1809ZM1612 853 1610 815H1511V1294H1610V1090Q1629 1119 1656.5 1132.5Q1684 1146 1717 1146Q1753 1146 1777.5 1133.0Q1802 1120 1817.5 1097.5Q1833 1075 1840.0 1046.0Q1847 1017 1847 986Q1847 952 1838.5 920.0Q1830 888 1812.5 863.0Q1795 838 1767.5 822.5Q1740 807 1702 807Q1673 807 1650.5 818.0Q1628 829 1612 853ZM1253 815H1159V862Q1125 807 1061 807Q1016 807 988.0 833.0Q960 859 960 905Q960 948 979.5 970.5Q999 993 1028.5 1003.5Q1058 1014 1093.0 1017.5Q1128 1021 1159 1025Q1159 1052 1143.5 1065.5Q1128 1079 1102 1079Q1042 1079 992 1044V1119Q1020 1133 1052.0 1139.5Q1084 1146 1115 1146Q1253 1146 1253 1008ZM1248 51Q1226 38 1201.0 34.5Q1176 31 1151 31Q1114 31 1083.5 42.0Q1053 53 1031.0 74.0Q1009 95 996.5 125.0Q984 155 984 193Q984 278 1033.0 324.0Q1082 370 1166 370Q1187 370 1208.5 368.0Q1230 366 1248 355V270Q1218 294 1179 294Q1134 294 1109.5 269.0Q1085 244 1085 199Q1085 157 1109.0 132.0Q1133 107 1175 107Q1195 107 1213.5 113.5Q1232 120 1248 131ZM1711 196V221Q1711 250 1693.5 272.0Q1676 294 1645 294Q1625 294 1611.0 285.0Q1597 276 1589.0 262.0Q1581 248 1577.5 230.5Q1574 213 1574 196Q1574 179 1577.5 163.5Q1581 148 1589.0 135.0Q1597 122 1610.0 114.5Q1623 107 1642 107Q1660 107 1673.0 115.0Q1686 123 1694.5 135.5Q1703 148 1707.0 164.0Q1711 180 1711 196ZM1609 989V956Q1609 927 1625.5 905.5Q1642 884 1673 884Q1694 884 1708.0 893.0Q1722 902 1730.5 916.5Q1739 931 1742.0 949.0Q1745 967 1745 985Q1745 1001 1741.5 1016.5Q1738 1032 1730.0 1044.0Q1722 1056 1709.0 1063.0Q1696 1070 1678 1070Q1644 1070 1626.5 1045.0Q1609 1020 1609 989ZM1159 947V968Q1145 966 1127.0 965.5Q1109 965 1092.0 960.5Q1075 956 1063.5 946.5Q1052 937 1052 917Q1052 898 1065.5 888.0Q1079 878 1096 878Q1127 878 1143.0 898.0Q1159 918 1159 947Z" style="fill:#ffffff;stroke:none" transform="scale(1,-1) translate(0,-256)" /></svg>