<?xml version="1.0" encoding="utf-8" ?>
<svg baseProfile="full" height="256" version="1.1" width="256" xmlns="http://www.w3.org/2000/svg" xmlns:ev="http://www.w3.org/2001/xml-events" xmlns:xlink="http://www.w3.org/1999/xlink"><defs /><path d="M2268 119Q2332 96 2385.0 55.5Q2438 15 2476.0 -38.5Q2514 -92 2535.0 -155.5Q2556 -219 2556 -287V-431H256V-287Q256 -219 277.0 -155.5Q298 -92 335.5 -38.5Q373 15 426.0 55.5Q479 96 543 119V1510Q543 1584 571.5 1649.5Q600 1715 649.0 1763.5Q698 1812 763.5 1840.5Q829 1869 903 1869H1909Q1983 1869 2048.5 1840.5Q2114 1812 2162.5 1763.5Q2211 1715 2239.5 1649.5Q2268 1584 2268 1510Z" style="fill:#000000;stroke:none" transform="scale(1,-1) translate(0,-256)" /></svg>