<?xml version="1.0" encoding="utf-8" ?>
<svg baseProfile="full" height="256" version="1.1" width="256" xmlns="http://www.w3.org/2000/svg" xmlns:ev="http://www.w3.org/2001/xml-events" xmlns:xlink="http://www.w3.org/1999/xlink"><defs /><path d="M2125 0Q2185 0 2237.0 -22.5Q2289 -45 2328.0 -84.0Q2367 -123 2389.5 -175.0Q2412 -227 2412 -287H400Q400 -227 422.5 -175.0Q445 -123 484.0 -84.0Q523 -45 575.0 -22.5Q627 0 687 0V1510Q687 1555 704.0 1594.0Q721 1633 750.5 1662.0Q780 1691 819.0 1708.0Q858 1725 903 1725H1909Q1954 1725 1993.0 1708.0Q2032 1691 2061.5 1662.0Q2091 1633 2108.0 1594.0Q2125 1555 2125 1510Z" style="fill:#383838;stroke:none" transform="scale(1,-1) translate(0,-256)" /></svg>