<?xml version="1.0" encoding="utf-8" ?>
<svg baseProfile="full" height="256" version="1.1" width="256" xmlns="http://www.w3.org/2000/svg" xmlns:ev="http://www.w3.org/2001/xml-events" xmlns:xlink="http://www.w3.org/1999/xlink"><defs /><path d="M1996 518 2298 216 1996 -87 1894 15 2023 144H1909Q1850 144 1797.5 166.5Q1745 189 1706.0 228.0Q1667 267 1644.5 319.5Q1622 372 1622 431V1006Q1622 1036 1610.5 1062.0Q1599 1088 1579.5 1107.5Q1560 1127 1534.0 1138.5Q1508 1150 1478 1150Q1448 1150 1422.0 1138.5Q1396 1127 1376.5 1107.5Q1357 1088 1345.5 1062.0Q1334 1036 1334 1006V288H1190V1006Q1190 1036 1179.0 1062.0Q1168 1088 1148.5 1107.5Q1129 1127 1103.0 1138.5Q1077 1150 1047 1150Q1017 1150 990.5 1138.5Q964 1127 944.5 1107.5Q925 1088 914.0 1062.0Q903 1036 903 1006V288H759V1006Q759 1036 747.5 1062.0Q736 1088 716.5 1107.5Q697 1127 671.0 1138.5Q645 1150 615 1150V1294Q678 1294 733.5 1268.0Q789 1242 831 1195Q873 1242 928.5 1268.0Q984 1294 1047 1294Q1110 1294 1165.0 1268.0Q1220 1242 1262 1195Q1304 1242 1359.5 1268.0Q1415 1294 1478 1294Q1536 1294 1588.5 1271.0Q1641 1248 1680.0 1208.5Q1719 1169 1742.0 1116.5Q1765 1064 1765 1006V431Q1765 401 1776.5 375.0Q1788 349 1807.5 329.5Q1827 310 1853.0 299.0Q1879 288 1909 288H2023L1894 417Z" style="fill:#ffffff;stroke:none" transform="scale(1,-1) translate(0,-256)" /></svg>