<?xml version="1.0" encoding="utf-8" ?>
<svg baseProfile="full" height="256" version="1.1" width="256" xmlns="http://www.w3.org/2000/svg" xmlns:ev="http://www.w3.org/2001/xml-events" xmlns:xlink="http://www.w3.org/1999/xlink"><defs /><path d="M2340 -72H2412V-287H400V-72H687L759 -144Q802 -144 839.0 -124.0Q876 -104 903 -72Q930 -104 967.0 -124.0Q1004 -144 1047 -144Q1089 -144 1126.5 -124.0Q1164 -104 1190 -72Q1217 -104 1254.0 -124.0Q1291 -144 1334 -144Q1377 -144 1414.0 -124.0Q1451 -104 1478 -72Q1505 -104 1542.0 -124.0Q1579 -144 1622 -144Q1664 -144 1701.5 -124.0Q1739 -104 1765 -72Q1792 -104 1829.0 -124.0Q1866 -144 1909 -144Q1952 -144 1989.0 -124.0Q2026 -104 2053 -72Q2080 -104 2117.0 -124.0Q2154 -144 2197 -144Q2239 -144 2276.5 -124.0Q2314 -104 2340 -72Z" style="fill:#00bcf2;stroke:none" transform="scale(1,-1) translate(0,-256)" /></svg>