<?xml version="1.0" encoding="utf-8" ?>
<svg baseProfile="full" height="256" version="1.1" width="256" xmlns="http://www.w3.org/2000/svg" xmlns:ev="http://www.w3.org/2001/xml-events" xmlns:xlink="http://www.w3.org/1999/xlink"><defs /><path d="M2556 431V-431H256V431H475Q472 449 472 467Q472 525 505.5 572.0Q539 619 594 638L1047 1544V1689Q1047 1726 1061.0 1759.0Q1075 1792 1099.5 1816.5Q1124 1841 1156.5 1855.0Q1189 1869 1226 1869Q1264 1869 1297.0 1855.0Q1330 1841 1354.0 1816.0Q1378 1791 1392.0 1758.0Q1406 1725 1406 1687L1931 637Q1986 618 2019.5 571.5Q2053 525 2053 467Q2053 447 2049 431Z" style="fill:#000000;stroke:none" transform="scale(1,-1) translate(0,-256)" /></svg>