<?xml version="1.0" encoding="utf-8" ?>
<svg baseProfile="full" height="256" version="1.1" width="256" xmlns="http://www.w3.org/2000/svg" xmlns:ev="http://www.w3.org/2001/xml-events" xmlns:xlink="http://www.w3.org/1999/xlink"><defs /><path d="M980 -431Q880 -431 787.5 -405.0Q695 -379 614.5 -332.0Q534 -285 468.0 -219.0Q402 -153 355.0 -72.5Q308 8 282.0 100.5Q256 193 256 293Q256 440 310.5 570.5Q365 701 468 805L888 1230Q905 1247 924.0 1261.5Q943 1276 960 1292Q1007 1335 1051.5 1381.0Q1096 1427 1140.0 1473.5Q1184 1520 1228.5 1566.0Q1273 1612 1319 1656Q1428 1760 1554.5 1814.5Q1681 1869 1832 1869Q1932 1869 2024.5 1843.0Q2117 1817 2197.5 1770.0Q2278 1723 2344.0 1657.0Q2410 1591 2457.0 1510.5Q2504 1430 2530.0 1337.5Q2556 1245 2556 1145Q2556 998 2501.5 867.5Q2447 737 2344 633L1924 208Q1907 191 1888.0 176.5Q1869 162 1852 146Q1758 59 1671.5 -35.5Q1585 -130 1493 -218Q1384 -322 1257.5 -376.5Q1131 -431 980 -431ZM1118 719Q1118 659 1141.0 605.5Q1164 552 1204.0 512.0Q1244 472 1297.5 449.0Q1351 426 1411 426Q1430 426 1451.5 429.0Q1473 432 1494.0 437.5Q1515 443 1534.5 452.0Q1554 461 1569 473Q1626 518 1659.5 582.0Q1693 646 1693 719Q1693 780 1670.0 833.0Q1647 886 1607.5 926.0Q1568 966 1515.0 989.0Q1462 1012 1401 1012Q1383 1012 1361.5 1009.0Q1340 1006 1318.5 1000.0Q1297 994 1277.5 985.5Q1258 977 1243 965Q1186 920 1152.0 856.0Q1118 792 1118 719Z" style="fill:#000000;stroke:none" transform="scale(1,-1) translate(0,-256)" /></svg>