<?xml version="1.0" encoding="utf-8" ?>
<svg baseProfile="full" height="256" version="1.1" width="256" xmlns="http://www.w3.org/2000/svg" xmlns:ev="http://www.w3.org/2001/xml-events" xmlns:xlink="http://www.w3.org/1999/xlink"><defs /><path d="M1372 69Q1384 68 1396.0 67.5Q1408 67 1420 67Q1514 67 1599 95Q1546 41 1495.0 -12.0Q1444 -65 1390 -117Q1305 -200 1201.5 -243.5Q1098 -287 980 -287Q860 -287 754.0 -241.5Q648 -196 569.5 -117.5Q491 -39 445.5 67.0Q400 173 400 293Q400 414 442.5 515.5Q485 617 570 703L795 931Q864 1001 927.0 1067.5Q990 1134 1059.0 1185.5Q1128 1237 1210.0 1268.0Q1292 1299 1401 1299Q1512 1299 1612.5 1258.5Q1713 1218 1791.0 1147.5Q1869 1077 1918.5 981.0Q1968 885 1978 774L1825 620Q1837 668 1837 719Q1837 809 1803.0 888.5Q1769 968 1709.5 1027.5Q1650 1087 1570.5 1121.0Q1491 1155 1401 1155Q1312 1155 1233.5 1122.5Q1155 1090 1092 1028Q1026 963 962.5 897.0Q899 831 833 765Q780 712 728.0 662.5Q676 613 635.0 558.5Q594 504 568.5 439.5Q543 375 543 293Q543 203 577.5 123.0Q612 43 671.0 -16.0Q730 -75 810.0 -109.5Q890 -144 980 -144Q1049 -144 1102.0 -128.0Q1155 -112 1200.0 -83.5Q1245 -55 1286.0 -16.0Q1327 23 1372 69Z" style="fill:#cccccc;stroke:none" transform="scale(1,-1) translate(0,-256)" /></svg>