<?xml version="1.0" encoding="utf-8" ?>
<svg baseProfile="full" height="256" version="1.1" width="256" xmlns="http://www.w3.org/2000/svg" xmlns:ev="http://www.w3.org/2001/xml-events" xmlns:xlink="http://www.w3.org/1999/xlink"><defs /><path d="M1832 1725Q1952 1725 2057.5 1679.5Q2163 1634 2242.0 1555.0Q2321 1476 2366.5 1370.5Q2412 1265 2412 1145Q2412 1027 2368.5 923.5Q2325 820 2242 735L2017 507Q1948 437 1885.5 371.0Q1823 305 1753.0 253.5Q1683 202 1601.0 170.5Q1519 139 1411 139Q1300 139 1199.5 179.5Q1099 220 1021.0 290.5Q943 361 893.5 457.0Q844 553 834 664L986 818Q975 768 975 719Q975 629 1009.0 549.5Q1043 470 1102.5 410.5Q1162 351 1241.5 317.0Q1321 283 1411 283Q1500 283 1578.5 315.5Q1657 348 1720 410Q1786 475 1850.0 541.0Q1914 607 1979 673Q2032 726 2083.5 775.5Q2135 825 2176.0 879.5Q2217 934 2242.5 998.0Q2268 1062 2268 1145Q2268 1235 2234.0 1314.5Q2200 1394 2140.5 1453.5Q2081 1513 2001.5 1547.0Q1922 1581 1832 1581Q1763 1581 1710.0 1565.5Q1657 1550 1612.0 1521.5Q1567 1493 1526.0 1454.0Q1485 1415 1440 1369Q1428 1370 1415.5 1370.5Q1403 1371 1391 1371Q1297 1371 1212 1343L1422 1555Q1506 1640 1610.0 1682.5Q1714 1725 1832 1725Z" style="fill:#e5e5e5;stroke:none" transform="scale(1,-1) translate(0,-256)" /></svg>