<?xml version="1.0" encoding="utf-8" ?>
<svg baseProfile="full" height="256" version="1.1" width="256" xmlns="http://www.w3.org/2000/svg" xmlns:ev="http://www.w3.org/2001/xml-events" xmlns:xlink="http://www.w3.org/1999/xlink"><defs /><path d="M1191 864Q1191 872 1204.0 878.0Q1217 884 1224 884Q1234 884 1245.0 877.0Q1256 870 1263 863V-287H1191ZM1407 863 1694 -287H1622L1335 863L1365 886ZM1047 863 1081 881 1119 863 832 -287H760ZM2197 1150 2156 1337 2197 1510H2341Q2347 1465 2356.5 1421.0Q2366 1377 2366 1331Q2366 1285 2356.5 1240.0Q2347 1195 2341 1150ZM1335 1006 1238 975 1119 1006V1150Q1146 1153 1172.5 1159.0Q1199 1165 1226 1165Q1254 1165 1281.0 1159.5Q1308 1154 1335 1150ZM400 1222V1438H472L502 1329L472 1222ZM832 1596V1487H760V1596Z" style="fill:#757575;stroke:none" transform="scale(1,-1) translate(0,-256)" /></svg>