<?xml version="1.0" encoding="utf-8" ?>
<svg baseProfile="full" height="256" version="1.1" width="256" xmlns="http://www.w3.org/2000/svg" xmlns:ev="http://www.w3.org/2001/xml-events" xmlns:xlink="http://www.w3.org/1999/xlink"><defs /><path d="M1981 575Q1981 476 1955.5 384.0Q1930 292 1883.0 212.0Q1836 132 1770.5 66.5Q1705 1 1625.0 -46.0Q1545 -93 1453.0 -118.5Q1361 -144 1262 -144Q1163 -144 1071.0 -118.5Q979 -93 899.0 -46.0Q819 1 753.5 66.5Q688 132 641.0 212.0Q594 292 568.5 384.0Q543 476 543 575Q543 674 568.5 766.0Q594 858 641.0 938.0Q688 1018 753.5 1083.5Q819 1149 899.0 1196.0Q979 1243 1071.0 1268.5Q1163 1294 1262 1294Q1361 1294 1453.0 1268.5Q1545 1243 1625.0 1196.0Q1705 1149 1770.5 1083.5Q1836 1018 1883.0 938.0Q1930 858 1955.5 766.0Q1981 674 1981 575Z" style="fill:#ffffff;stroke:none" transform="scale(1,-1) translate(0,-256)" /></svg>