<?xml version="1.0" encoding="utf-8" ?>
<svg baseProfile="full" height="256" version="1.1" width="256" xmlns="http://www.w3.org/2000/svg" xmlns:ev="http://www.w3.org/2001/xml-events" xmlns:xlink="http://www.w3.org/1999/xlink"><defs /><path d="M1334 1150Q1334 1121 1312.5 1099.5Q1291 1078 1262 1078Q1233 1078 1211.5 1099.5Q1190 1121 1190 1150Q1190 1179 1211.5 1200.5Q1233 1222 1262 1222Q1292 1222 1313.0 1201.0Q1334 1180 1334 1150ZM1550 1006Q1520 1006 1499.0 1027.5Q1478 1049 1478 1079Q1478 1109 1499.0 1129.5Q1520 1150 1550 1150Q1580 1150 1601.0 1129.0Q1622 1108 1622 1078Q1622 1049 1600.5 1027.5Q1579 1006 1550 1006ZM1766 791Q1736 791 1714.5 812.0Q1693 833 1693 863Q1693 892 1714.5 913.5Q1736 935 1765 935Q1795 935 1816.0 914.0Q1837 893 1837 863Q1837 833 1816.5 812.0Q1796 791 1766 791ZM1837 503Q1808 503 1786.5 524.5Q1765 546 1765 575Q1765 604 1786.5 625.5Q1808 647 1837 647Q1867 647 1888.0 626.0Q1909 605 1909 575Q1909 546 1887.5 524.5Q1866 503 1837 503ZM1693 288Q1693 317 1714.5 338.5Q1736 360 1765 360Q1795 360 1816.0 338.5Q1837 317 1837 287Q1837 257 1816.0 236.5Q1795 216 1765 216Q1735 216 1714.0 237.0Q1693 258 1693 288ZM1478 72Q1478 101 1499.5 122.5Q1521 144 1550 144Q1579 144 1600.5 122.5Q1622 101 1622 72Q1622 43 1600.5 21.5Q1579 0 1550 0Q1520 0 1499.0 21.0Q1478 42 1478 72ZM1190 0Q1190 29 1211.5 50.5Q1233 72 1262 72Q1292 72 1313.0 51.0Q1334 30 1334 0Q1334 -29 1312.5 -50.5Q1291 -72 1262 -72Q1233 -72 1211.5 -50.5Q1190 -29 1190 0ZM975 144Q1004 144 1025.5 122.5Q1047 101 1047 72Q1047 43 1025.5 21.5Q1004 0 975 0Q945 0 924.0 21.5Q903 43 903 73Q903 102 924.5 123.0Q946 144 975 144ZM759 360Q788 360 809.5 338.5Q831 317 831 288Q831 259 810.0 237.5Q789 216 760 216Q730 216 708.5 237.0Q687 258 687 288Q687 317 708.5 338.5Q730 360 759 360ZM687 647Q717 647 738.0 626.0Q759 605 759 575Q759 546 737.5 524.5Q716 503 687 503Q658 503 636.5 524.5Q615 546 615 575Q615 604 636.5 625.5Q658 647 687 647ZM831 863Q831 834 809.5 812.5Q788 791 759 791Q729 791 708.0 812.0Q687 833 687 863Q687 892 708.5 913.5Q730 935 759 935Q788 935 809.5 913.5Q831 892 831 863ZM1047 1078Q1047 1049 1025.5 1027.5Q1004 1006 975 1006Q945 1006 924.0 1027.0Q903 1048 903 1078Q903 1108 923.5 1129.0Q944 1150 974 1150Q1004 1150 1025.5 1129.0Q1047 1108 1047 1078Z" style="fill:#e5e5e5;stroke:none" transform="scale(1,-1) translate(0,-256)" /></svg>