<?xml version="1.0" encoding="utf-8" ?>
<svg baseProfile="full" height="256" version="1.1" width="256" xmlns="http://www.w3.org/2000/svg" xmlns:ev="http://www.w3.org/2001/xml-events" xmlns:xlink="http://www.w3.org/1999/xlink"><defs /><path d="M1083 719Q1105 719 1125.0 727.5Q1145 736 1159.0 751.0Q1173 766 1181.5 785.5Q1190 805 1190 827V1510Q1190 1548 1209.5 1581.0Q1229 1614 1262 1633V824Q1262 787 1247.5 755.0Q1233 723 1208.5 699.0Q1184 675 1151.5 661.0Q1119 647 1083 647Q1040 647 1002.5 666.5Q965 686 939 720Q913 686 875.5 666.5Q838 647 795 647Q758 647 725.0 661.0Q692 675 667.5 699.5Q643 724 629.0 757.0Q615 790 615 827V1078Q615 1108 636.0 1129.0Q657 1150 687 1150V827Q687 805 695.5 785.5Q704 766 719.0 751.0Q734 736 753.5 727.5Q773 719 795 719Q817 719 837.0 727.5Q857 736 871.5 750.5Q886 765 894.5 784.5Q903 804 903 827V1150Q913 1150 922.0 1147.0Q931 1144 939 1139Q947 1144 956.0 1147.0Q965 1150 975 1150V827Q975 804 983.5 784.5Q992 765 1006.5 750.5Q1021 736 1040.5 727.5Q1060 719 1083 719ZM1459 575H1226Q1159 575 1100.5 549.5Q1042 524 998.0 480.0Q954 436 928.5 377.5Q903 319 903 252Q903 237 892.5 226.5Q882 216 867 216Q852 216 841.5 226.5Q831 237 831 252Q831 334 862.0 406.0Q893 478 946.5 531.5Q1000 585 1072.0 616.0Q1144 647 1226 647H1478V591Z" style="fill:#d48c00;stroke:none" transform="scale(1,-1) translate(0,-256)" /></svg>