<?xml version="1.0" encoding="utf-8" ?>
<svg baseProfile="full" height="256" version="1.1" width="256" xmlns="http://www.w3.org/2000/svg" xmlns:ev="http://www.w3.org/2001/xml-events" xmlns:xlink="http://www.w3.org/1999/xlink"><defs /><path d="M1765 791Q1795 791 1821.0 779.5Q1847 768 1866.5 748.5Q1886 729 1897.5 703.0Q1909 677 1909 647Q1909 619 1898.0 592.0Q1887 565 1867 545L1319 14Q1240 -62 1145.0 -103.0Q1050 -144 939 -144Q828 -144 729.5 -101.5Q631 -59 558.0 14.0Q485 87 442.5 185.5Q400 284 400 395V1438Q400 1460 408.5 1479.5Q417 1499 432.0 1514.0Q447 1529 466.5 1537.5Q486 1546 508 1546Q530 1546 549.5 1537.5Q569 1529 583.5 1514.0Q598 1499 606.5 1479.5Q615 1460 615 1438V1079L687 1150H903L939 1088L975 1150H1190L1262 1634Q1297 1653 1334 1653Q1364 1653 1390.0 1642.0Q1416 1631 1435.5 1611.5Q1455 1592 1466.5 1566.0Q1478 1540 1478 1510V647L1433 616L1478 592L1664 749Q1688 769 1710.5 780.0Q1733 791 1765 791Z" style="fill:#ffc83d;stroke:none" transform="scale(1,-1) translate(0,-256)" /></svg>