<?xml version="1.0" encoding="utf-8" ?>
<svg baseProfile="full" height="256" version="1.1" width="256" xmlns="http://www.w3.org/2000/svg" xmlns:ev="http://www.w3.org/2001/xml-events" xmlns:xlink="http://www.w3.org/1999/xlink"><defs /><path d="M939 -287Q798 -287 673.5 -233.5Q549 -180 456.5 -87.0Q364 6 310.0 130.0Q256 254 256 395V1438Q256 1490 276.0 1535.5Q296 1581 330.5 1615.0Q365 1649 410.5 1669.0Q456 1689 508 1689Q560 1689 605.5 1669.0Q651 1649 685.0 1615.0Q719 1581 739.0 1535.5Q759 1490 759 1438V1294H903Q912 1294 921.0 1292.5Q930 1291 939 1291Q948 1291 957.0 1292.5Q966 1294 975 1294H1047V1510Q1047 1569 1069.5 1621.5Q1092 1674 1131.0 1713.0Q1170 1752 1222.5 1774.5Q1275 1797 1334 1797Q1393 1797 1445.5 1774.5Q1498 1752 1537.0 1713.0Q1576 1674 1599.0 1621.5Q1622 1569 1622 1510V896Q1655 915 1691.5 925.0Q1728 935 1766 935Q1825 935 1877.5 912.0Q1930 889 1969.0 850.0Q2008 811 2030.5 758.5Q2053 706 2053 647Q2053 590 2031.5 536.5Q2010 483 1969 444L1420 -89Q1320 -186 1199.5 -236.5Q1079 -287 939 -287Z" style="fill:#000000;stroke:none" transform="scale(1,-1) translate(0,-256)" /></svg>