<?xml version="1.0" encoding="utf-8" ?>
<svg baseProfile="full" height="256" version="1.1" width="256" xmlns="http://www.w3.org/2000/svg" xmlns:ev="http://www.w3.org/2001/xml-events" xmlns:xlink="http://www.w3.org/1999/xlink"><defs /><path d="M2556 1653Q2556 1621 2548.0 1594.0Q2540 1567 2523 1540L2072 785Q2133 690 2165.0 581.5Q2197 473 2197 360Q2197 251 2168.5 150.0Q2140 49 2088.5 -39.0Q2037 -127 1965.0 -199.0Q1893 -271 1805.0 -322.5Q1717 -374 1616.0 -402.5Q1515 -431 1406 -431Q1297 -431 1196.0 -402.5Q1095 -374 1007.0 -322.5Q919 -271 847.0 -199.0Q775 -127 723.5 -39.0Q672 49 643.5 150.0Q615 251 615 360Q615 473 647.0 581.5Q679 690 740 785L288 1543Q272 1569 264.0 1595.5Q256 1622 256 1653Q256 1698 273.0 1737.0Q290 1776 319.5 1805.5Q349 1835 388.0 1852.0Q427 1869 472 1869H2340Q2385 1869 2424.0 1852.0Q2463 1835 2492.5 1805.5Q2522 1776 2539.0 1737.0Q2556 1698 2556 1653Z" style="fill:#000000;stroke:none" transform="scale(1,-1) translate(0,-256)" /></svg>