<?xml version="1.0" encoding="utf-8" ?>
<svg baseProfile="full" height="256" version="1.1" width="256" xmlns="http://www.w3.org/2000/svg" xmlns:ev="http://www.w3.org/2001/xml-events" xmlns:xlink="http://www.w3.org/1999/xlink"><defs /><path d="M1406 791Q1495 791 1573.5 757.0Q1652 723 1710.5 664.5Q1769 606 1803.0 527.5Q1837 449 1837 360Q1837 270 1803.5 191.5Q1770 113 1711.5 54.5Q1653 -4 1574.5 -38.0Q1496 -72 1406 -72Q1316 -72 1237.5 -38.0Q1159 -4 1100.5 54.5Q1042 113 1008.5 191.5Q975 270 975 360Q975 449 1009.0 527.5Q1043 606 1101.5 664.5Q1160 723 1238.5 757.0Q1317 791 1406 791ZM1622 387V575L1550 647H1262L1190 575V503H1478V431L1190 216V72H1622V216H1406Z" style="fill:#757575;stroke:none" transform="scale(1,-1) translate(0,-256)" /></svg>