<?xml version="1.0" encoding="utf-8" ?>
<svg baseProfile="full" height="256" version="1.1" width="256" xmlns="http://www.w3.org/2000/svg" xmlns:ev="http://www.w3.org/2001/xml-events" xmlns:xlink="http://www.w3.org/1999/xlink"><defs /><path d="M1406 1022 2443 137Q2483 103 2505.5 67.5Q2528 32 2539.0 -6.0Q2550 -44 2553.0 -87.0Q2556 -130 2556 -179Q2556 -231 2536.0 -277.0Q2516 -323 2482.0 -357.0Q2448 -391 2402.0 -411.0Q2356 -431 2304 -431H2233Q2200 -431 2166.5 -424.0Q2133 -417 2101.5 -403.5Q2070 -390 2042.5 -370.5Q2015 -351 1993 -325L1103 719H903Q835 719 769.5 737.5Q704 756 646.0 790.5Q588 825 541.0 873.5Q494 922 462 983L330 1236Q299 1295 277.5 1350.5Q256 1406 256 1474Q256 1556 287.0 1628.0Q318 1700 371.5 1753.5Q425 1807 497.0 1838.0Q569 1869 651 1869Q687 1869 717.5 1863.5Q748 1858 776.0 1848.0Q804 1838 831.5 1824.0Q859 1810 890 1794L1159 1654L1163 1651Q1221 1609 1266.0 1564.5Q1311 1520 1342.0 1468.5Q1373 1417 1389.5 1356.0Q1406 1295 1406 1222Z" style="fill:#000000;stroke:none" transform="scale(1,-1) translate(0,-256)" /></svg>