<?xml version="1.0" encoding="utf-8" ?>
<svg baseProfile="full" height="256" version="1.1" width="256" xmlns="http://www.w3.org/2000/svg" xmlns:ev="http://www.w3.org/2001/xml-events" xmlns:xlink="http://www.w3.org/1999/xlink"><defs /><path d="M651 1725Q686 1725 714.5 1716.0Q743 1707 774 1692L804 1677L1045 1436Q1080 1401 1099.0 1354.5Q1118 1308 1118 1258Q1118 1206 1098.5 1160.0Q1079 1114 1045.0 1080.0Q1011 1046 965.0 1026.0Q919 1006 867 1006Q817 1006 770.5 1025.5Q724 1045 689 1080L447 1322Q445 1323 442.0 1329.0Q439 1335 435.5 1342.0Q432 1349 429.0 1355.5Q426 1362 425 1365Q413 1391 406.5 1418.0Q400 1445 400 1474Q400 1526 419.5 1572.0Q439 1618 473.0 1652.0Q507 1686 552.5 1705.5Q598 1725 651 1725ZM1693 431 2075 122Q2093 107 2125.5 84.0Q2158 61 2189.5 34.5Q2221 8 2244.5 -20.0Q2268 -48 2268 -72Q2268 -101 2246.5 -122.5Q2225 -144 2196 -144Q2179 -144 2168.5 -138.5Q2158 -133 2146 -122Q2104 -84 2071.0 -38.5Q2038 7 2003 50Z" style="fill:#f2f2f2;stroke:none" transform="scale(1,-1) translate(0,-256)" /></svg>