<?xml version="1.0" encoding="utf-8" ?>
<svg baseProfile="full" height="256" version="1.1" width="256" xmlns="http://www.w3.org/2000/svg" xmlns:ev="http://www.w3.org/2001/xml-events" xmlns:xlink="http://www.w3.org/1999/xlink"><defs /><path d="M1262 956 2350 27Q2392 -9 2402.0 -52.5Q2412 -96 2412 -148V-179Q2412 -202 2403.5 -221.5Q2395 -241 2380.5 -255.5Q2366 -270 2346.0 -278.5Q2326 -287 2304 -287H2268Q2220 -287 2176.5 -277.0Q2133 -267 2100 -228L1169 863H903Q802 863 720.0 913.0Q638 963 589 1051Q585 1058 571.0 1084.5Q557 1111 539.0 1146.0Q521 1181 500.5 1220.0Q480 1259 463.0 1292.0Q446 1325 435.0 1347.0Q424 1369 424 1369Q424 1380 446.5 1408.5Q469 1437 503.0 1473.0Q537 1509 579.0 1548.0Q621 1587 659.0 1619.0Q697 1651 727.5 1672.0Q758 1693 770 1693Q770 1693 792.0 1682.0Q814 1671 847.0 1654.0Q880 1637 919.0 1617.0Q958 1597 993.5 1578.5Q1029 1560 1055.0 1546.5Q1081 1533 1088 1529Q1128 1506 1160.5 1472.5Q1193 1439 1215.5 1398.5Q1238 1358 1250.0 1313.0Q1262 1268 1262 1222Z" style="fill:#cccccc;stroke:none" transform="scale(1,-1) translate(0,-256)" /></svg>