<?xml version="1.0" encoding="utf-8" ?>
<svg baseProfile="full" height="256" version="1.1" width="256" xmlns="http://www.w3.org/2000/svg" xmlns:ev="http://www.w3.org/2001/xml-events" xmlns:xlink="http://www.w3.org/1999/xlink"><defs /><path d="M723 503Q738 503 748.5 492.5Q759 482 759 467Q759 453 748.0 442.0Q737 431 723 431Q709 431 698.0 442.0Q687 453 687 467Q687 482 697.5 492.5Q708 503 723 503ZM508 503Q522 503 532.5 492.0Q543 481 543 467Q543 453 532.5 442.0Q522 431 508 431Q494 431 483.0 442.0Q472 453 472 467Q472 482 482.5 492.5Q493 503 508 503ZM508 288Q522 288 532.5 277.0Q543 266 543 252Q543 238 532.5 227.0Q522 216 508 216Q493 216 482.5 226.5Q472 237 472 252Q472 267 482.5 277.5Q493 288 508 288ZM2233 360Q2247 360 2257.5 349.0Q2268 338 2268 324Q2268 310 2257.5 299.0Q2247 288 2233 288Q2218 288 2207.5 298.5Q2197 309 2197 324Q2197 338 2208.0 349.0Q2219 360 2233 360ZM2017 575Q2032 575 2042.5 564.5Q2053 554 2053 539Q2053 524 2042.5 513.5Q2032 503 2017 503Q2002 503 1991.5 513.5Q1981 524 1981 539Q1981 554 1991.5 564.5Q2002 575 2017 575ZM2233 503Q2218 503 2207.5 513.5Q2197 524 2197 539Q2197 554 2207.5 564.5Q2218 575 2233 575Q2247 575 2257.5 564.0Q2268 553 2268 539Q2268 525 2257.5 514.0Q2247 503 2233 503Z" style="fill:#ffb900;stroke:none" transform="scale(1,-1) translate(0,-256)" /></svg>