<?xml version="1.0" encoding="utf-8" ?>
<svg baseProfile="full" height="256" version="1.1" width="256" xmlns="http://www.w3.org/2000/svg" xmlns:ev="http://www.w3.org/2001/xml-events" xmlns:xlink="http://www.w3.org/1999/xlink"><defs /><path d="M2268 -72Q2268 -117 2251.0 -156.0Q2234 -195 2205.0 -224.5Q2176 -254 2137.0 -271.0Q2098 -288 2053 -288Q2008 -288 1969.0 -271.0Q1930 -254 1900.5 -224.5Q1871 -195 1854.0 -156.0Q1837 -117 1837 -72Q1837 -27 1854.0 12.0Q1871 51 1900.5 80.5Q1930 110 1969.0 127.0Q2008 144 2053 144Q2098 144 2137.0 127.0Q2176 110 2205.0 80.5Q2234 51 2251.0 12.0Q2268 -27 2268 -72ZM975 -72Q975 -117 958.0 -156.0Q941 -195 911.5 -224.5Q882 -254 843.0 -271.0Q804 -288 759 -288Q714 -288 675.0 -271.0Q636 -254 606.5 -224.5Q577 -195 560.0 -156.0Q543 -117 543 -72Q543 -27 560.0 12.0Q577 51 606.5 80.5Q636 110 675.0 127.0Q714 144 759 144Q804 144 843.0 127.0Q882 110 911.5 80.5Q941 51 958.0 12.0Q975 -27 975 -72Z" style="fill:#383838;stroke:none" transform="scale(1,-1) translate(0,-256)" /></svg>