<?xml version="1.0" encoding="utf-8" ?>
<svg baseProfile="full" height="256" version="1.1" width="256" xmlns="http://www.w3.org/2000/svg" xmlns:ev="http://www.w3.org/2001/xml-events" xmlns:xlink="http://www.w3.org/1999/xlink"><defs /><path d="M2556 1509V-216H2382Q2361 -264 2326.5 -304.0Q2292 -344 2249.0 -372.5Q2206 -401 2155.5 -416.5Q2105 -432 2053 -432Q2000 -432 1950.0 -416.5Q1900 -401 1857.0 -372.5Q1814 -344 1779.5 -304.0Q1745 -264 1723 -216H1088Q1067 -264 1032.5 -304.0Q998 -344 955.0 -372.5Q912 -401 861.5 -416.5Q811 -432 759 -432Q706 -432 656.0 -416.5Q606 -401 562.5 -372.5Q519 -344 485.0 -304.0Q451 -264 430 -216H256V1006Q256 1052 274.5 1095.0Q293 1138 328 1169V1245Q357 1276 387.5 1306.0Q418 1336 448 1366H711L741 1335L915 1509Z" style="fill:#000000;stroke:none" transform="scale(1,-1) translate(0,-256)" /></svg>