<?xml version="1.0" encoding="utf-8" ?>
<svg baseProfile="full" height="256" version="1.1" width="256" xmlns="http://www.w3.org/2000/svg" xmlns:ev="http://www.w3.org/2001/xml-events" xmlns:xlink="http://www.w3.org/1999/xlink"><defs /><path d="M2412 1078V503L2353 438L2412 359V287L2350 217L2412 144V69L2362 8H464L400 72V144L466 212L400 287V359Q427 384 448.5 418.0Q470 452 484.5 490.0Q499 528 507.0 567.5Q515 607 515 643Q515 680 507.0 720.5Q499 761 484.0 799.5Q469 838 448.0 872.5Q427 907 400 934Q400 946 399.5 957.5Q399 969 399 981Q399 1000 401.5 1018.0Q404 1036 412.0 1049.0Q420 1062 434.5 1070.0Q449 1078 472 1078L490 1097H671L687 1078H759L819 1128H932Q962 1095 990.0 1059.0Q1018 1023 1045 986Q1073 1024 1103.5 1061.0Q1134 1098 1171 1128H2326Z" style="fill:#e81224;stroke:none" transform="scale(1,-1) translate(0,-256)" /></svg>