<?xml version="1.0" encoding="utf-8" ?>
<svg baseProfile="full" height="256" version="1.1" width="256" xmlns="http://www.w3.org/2000/svg" xmlns:ev="http://www.w3.org/2001/xml-events" xmlns:xlink="http://www.w3.org/1999/xlink"><defs /><path d="M975 118V1078H1118V72H1008Q1001 84 992.5 95.5Q984 107 975 118ZM759 0Q789 0 810.0 -21.0Q831 -42 831 -72Q831 -102 810.0 -123.0Q789 -144 759 -144Q729 -144 708.0 -123.0Q687 -102 687 -72Q687 -42 708.0 -21.0Q729 0 759 0ZM2053 0Q2083 0 2104.0 -21.0Q2125 -42 2125 -72Q2125 -102 2104.0 -123.0Q2083 -144 2053 -144Q2023 -144 2002.0 -123.0Q1981 -102 1981 -72Q1981 -42 2002.0 -21.0Q2023 0 2053 0Z" style="fill:#cccccc;stroke:none" transform="scale(1,-1) translate(0,-256)" /></svg>