<?xml version="1.0" encoding="utf-8" ?>
<svg baseProfile="full" height="256" version="1.1" width="256" xmlns="http://www.w3.org/2000/svg" xmlns:ev="http://www.w3.org/2001/xml-events" xmlns:xlink="http://www.w3.org/1999/xlink"><defs /><path d="M2412 1294H2268V1150H2412V1078H1118L1108 1058H985L975 1078H759V1150L975 1366H2412ZM468 563 543 503H2412V359H400V503ZM1118 1150V1294H1004L861 1150ZM1334 1150V1294H1190V1150ZM1550 1150V1294H1406V1150ZM2197 1150V1294H2053V1150ZM1981 1150V1294H1837V1150ZM1765 1150V1294H1622V1150Z" style="fill:#f2f2f2;stroke:none" transform="scale(1,-1) translate(0,-256)" /></svg>