<?xml version="1.0" encoding="utf-8" ?>
<svg baseProfile="full" height="256" version="1.1" width="256" xmlns="http://www.w3.org/2000/svg" xmlns:ev="http://www.w3.org/2001/xml-events" xmlns:xlink="http://www.w3.org/1999/xlink"><defs /><path d="M2302 72H2412V-71H2268Q2268 -26 2251.0 13.0Q2234 52 2205.0 81.0Q2176 110 2137.0 127.0Q2098 144 2053 144Q2010 144 1971.5 128.0Q1933 112 1903.5 84.0Q1874 56 1856.0 18.5Q1838 -19 1837 -62Q1835 -19 1817.5 18.5Q1800 56 1771.0 84.0Q1742 112 1703.5 128.0Q1665 144 1622 144Q1577 144 1538.0 127.0Q1499 110 1469.5 81.0Q1440 52 1423.0 13.0Q1406 -26 1406 -71H975Q975 -26 958.0 13.0Q941 52 911.5 81.0Q882 110 843.0 127.0Q804 144 759 144Q714 144 675.0 127.0Q636 110 606.5 81.0Q577 52 560.0 13.0Q543 -26 543 -71H400V72H510Q549 139 615.0 177.5Q681 216 759 216Q837 216 903.0 177.5Q969 139 1008 72H1373Q1392 105 1419.0 132.0Q1446 159 1478.0 177.5Q1510 196 1546.5 206.0Q1583 216 1622 216Q1683 216 1739.0 190.0Q1795 164 1837 119Q1879 165 1934.5 190.5Q1990 216 2053 216Q2131 216 2197.0 177.5Q2263 139 2302 72ZM2053 0Q2082 0 2103.5 -21.0Q2125 -42 2125 -71Q2125 -101 2104.0 -122.0Q2083 -143 2053 -143Q2023 -143 2002.0 -122.0Q1981 -101 1981 -71Q1981 -42 2002.5 -21.0Q2024 0 2053 0ZM759 0Q788 0 809.5 -21.0Q831 -42 831 -71Q831 -101 810.0 -122.0Q789 -143 759 -143Q729 -143 708.0 -122.0Q687 -101 687 -71Q687 -42 708.5 -21.0Q730 0 759 0ZM1622 0Q1651 0 1672.0 -21.0Q1693 -42 1693 -71Q1693 -100 1672.0 -121.5Q1651 -143 1622 -143Q1592 -143 1571.0 -122.0Q1550 -101 1550 -71Q1550 -42 1571.5 -21.0Q1593 0 1622 0Z" style="fill:#e5e5e5;stroke:none" transform="scale(1,-1) translate(0,-256)" /></svg>