<?xml version="1.0" encoding="utf-8" ?>
<svg baseProfile="full" height="256" version="1.1" width="256" xmlns="http://www.w3.org/2000/svg" xmlns:ev="http://www.w3.org/2001/xml-events" xmlns:xlink="http://www.w3.org/1999/xlink"><defs /><path d="M2053 184Q2087 184 2128.5 169.0Q2170 154 2206.5 128.0Q2243 102 2267.5 67.5Q2292 33 2292 -5Q2292 -41 2268 -71Q2268 -116 2251.0 -155.0Q2234 -194 2205.0 -223.5Q2176 -253 2137.0 -270.0Q2098 -287 2053 -287Q2010 -287 1971.0 -271.0Q1932 -255 1903.0 -227.0Q1874 -199 1856.0 -161.5Q1838 -124 1837 -80Q1835 -124 1817.5 -161.5Q1800 -199 1771.0 -227.0Q1742 -255 1703.5 -271.0Q1665 -287 1622 -287Q1577 -287 1537.5 -270.0Q1498 -253 1469.0 -224.0Q1440 -195 1423.0 -155.5Q1406 -116 1406 -71Q1385 -39 1385 -4Q1385 35 1409.0 69.0Q1433 103 1468.5 128.5Q1504 154 1545.5 169.0Q1587 184 1622 184Q1651 184 1682.5 174.5Q1714 165 1743.0 148.5Q1772 132 1797.0 110.5Q1822 89 1838 65Q1854 91 1878.5 113.0Q1903 135 1931.5 150.5Q1960 166 1991.5 175.0Q2023 184 2053 184ZM759 184Q793 184 835.0 169.0Q877 154 913.5 128.0Q950 102 974.5 67.5Q999 33 999 -5Q999 -41 975 -71Q975 -116 958.0 -155.0Q941 -194 911.5 -223.5Q882 -253 843.0 -270.0Q804 -287 759 -287Q714 -287 675.0 -270.0Q636 -253 606.5 -223.5Q577 -194 560.0 -155.0Q543 -116 543 -71Q522 -39 522 -5Q522 34 546.0 68.5Q570 103 605.5 128.5Q641 154 682.5 169.0Q724 184 759 184Z" style="fill:#383838;stroke:none" transform="scale(1,-1) translate(0,-256)" /></svg>