<?xml version="1.0" encoding="utf-8" ?>
<svg baseProfile="full" height="256" version="1.1" width="256" xmlns="http://www.w3.org/2000/svg" xmlns:ev="http://www.w3.org/2001/xml-events" xmlns:xlink="http://www.w3.org/1999/xlink"><defs /><path d="M2361 214 2412 144V72L2342 -1H1260Q1242 16 1223.0 33.5Q1204 51 1190 72Q1182 84 1176.0 98.5Q1170 113 1164 127Q1144 170 1128.5 218.0Q1113 266 1102.0 316.5Q1091 367 1085.5 417.5Q1080 468 1080 515Q1080 566 1087.5 621.5Q1095 677 1109.0 732.0Q1123 787 1143.5 839.0Q1164 891 1190 935V1079L1265 1119H2333L2412 1079V288Z" style="fill:#16c60c;stroke:none" transform="scale(1,-1) translate(0,-256)" /></svg>