<?xml version="1.0" encoding="utf-8" ?>
<svg baseProfile="full" height="256" version="1.1" width="256" xmlns="http://www.w3.org/2000/svg" xmlns:ev="http://www.w3.org/2001/xml-events" xmlns:xlink="http://www.w3.org/1999/xlink"><defs /><path d="M1190 863 1250 813V122L1190 -1H470L400 72V144Q414 160 424.0 182.0Q434 204 440.0 228.5Q446 253 448.5 277.5Q451 302 451 323Q451 344 448.5 369.0Q446 394 440.0 418.5Q434 443 424.0 465.5Q414 488 400 504V575Q426 575 452.5 574.0Q479 573 505 573H511Q532 573 558.5 574.0Q585 575 602 583Q669 612 701.0 659.5Q733 707 733 781Q733 802 731.0 822.5Q729 843 723 863L759 935H1190Z" style="fill:#ffb900;stroke:none" transform="scale(1,-1) translate(0,-256)" /></svg>