<?xml version="1.0" encoding="utf-8" ?>
<svg baseProfile="full" height="256" version="1.1" width="256" xmlns="http://www.w3.org/2000/svg" xmlns:ev="http://www.w3.org/2001/xml-events" xmlns:xlink="http://www.w3.org/1999/xlink"><defs /><path d="M1047 1294H2556V-216H2382Q2361 -264 2326.5 -304.0Q2292 -344 2249.0 -372.0Q2206 -400 2155.5 -415.5Q2105 -431 2053 -431Q1994 -431 1939.5 -412.5Q1885 -394 1837 -359Q1790 -394 1735.0 -412.5Q1680 -431 1622 -431Q1568 -431 1518.0 -415.5Q1468 -400 1425.0 -372.0Q1382 -344 1348.0 -304.5Q1314 -265 1292 -216H1088Q1067 -264 1032.5 -304.0Q998 -344 955.0 -372.0Q912 -400 861.5 -415.5Q811 -431 759 -431Q706 -431 656.0 -415.5Q606 -400 563.0 -372.0Q520 -344 485.5 -304.0Q451 -264 430 -216H256V719H491L670 1078H1047Z" style="fill:#000000;stroke:none" transform="scale(1,-1) translate(0,-256)" /></svg>