<?xml version="1.0" encoding="utf-8" ?>
<svg baseProfile="full" height="256" version="1.1" width="256" xmlns="http://www.w3.org/2000/svg" xmlns:ev="http://www.w3.org/2001/xml-events" xmlns:xlink="http://www.w3.org/1999/xlink"><defs /><path d="M256 503H1765Q1794 503 1815.5 524.5Q1837 546 1837 575V863Q1837 892 1815.5 913.5Q1794 935 1765 935H256V1797H1765Q1874 1797 1975.0 1768.5Q2076 1740 2164.0 1688.5Q2252 1637 2324.0 1565.0Q2396 1493 2447.5 1405.0Q2499 1317 2527.5 1216.0Q2556 1115 2556 1006V431Q2556 322 2527.5 221.0Q2499 120 2447.5 32.5Q2396 -55 2324.0 -127.5Q2252 -200 2164.0 -251.5Q2076 -303 1975.0 -331.0Q1874 -359 1765 -359H256Z" style="fill:#000000;stroke:none" transform="scale(1,-1) translate(0,-256)" /></svg>