<?xml version="1.0" encoding="utf-8" ?>
<svg baseProfile="full" height="256" version="1.1" width="256" xmlns="http://www.w3.org/2000/svg" xmlns:ev="http://www.w3.org/2001/xml-events" xmlns:xlink="http://www.w3.org/1999/xlink"><defs /><path d="M1765 -72H759V360H1765Q1809 360 1848.5 377.0Q1888 394 1917.5 423.0Q1947 452 1964.0 491.5Q1981 531 1981 575V1006Q1981 1051 1964.0 1090.0Q1947 1129 1917.5 1158.5Q1888 1188 1849.0 1205.0Q1810 1222 1765 1222H759V1653H1765Q1854 1653 1937.0 1630.0Q2020 1607 2091.5 1564.5Q2163 1522 2222.0 1463.0Q2281 1404 2323.5 1332.5Q2366 1261 2389.0 1178.0Q2412 1095 2412 1006V575Q2412 486 2389.0 403.5Q2366 321 2323.5 249.0Q2281 177 2222.0 118.0Q2163 59 2091.0 16.5Q2019 -26 1936.5 -49.0Q1854 -72 1765 -72Z" style="fill:#e81224;stroke:none" transform="scale(1,-1) translate(0,-256)" /></svg>