<?xml version="1.0" encoding="utf-8" ?>
<svg baseProfile="full" height="256" version="1.1" width="256" xmlns="http://www.w3.org/2000/svg" xmlns:ev="http://www.w3.org/2001/xml-events" xmlns:xlink="http://www.w3.org/1999/xlink"><defs /><path d="M1581 719Q1618 684 1638.0 637.0Q1658 590 1658 539Q1658 487 1638.0 441.5Q1618 396 1583.5 362.0Q1549 328 1503.5 308.0Q1458 288 1406 288Q1354 288 1308.5 308.0Q1263 328 1228.5 362.0Q1194 396 1174.0 441.5Q1154 487 1154 539Q1154 590 1174.0 636.5Q1194 683 1230 719Q1194 755 1174.0 801.5Q1154 848 1154 899Q1154 951 1174.0 996.5Q1194 1042 1228.5 1076.0Q1263 1110 1308.5 1130.0Q1354 1150 1406 1150Q1458 1150 1503.5 1130.0Q1549 1110 1583.5 1076.0Q1618 1042 1638.0 996.5Q1658 951 1658 899Q1658 848 1638.0 801.0Q1618 754 1581 719ZM1298 899Q1298 877 1306.5 857.5Q1315 838 1330.0 823.0Q1345 808 1364.5 799.5Q1384 791 1406 791Q1428 791 1447.5 799.5Q1467 808 1482.0 823.0Q1497 838 1505.5 857.5Q1514 877 1514 899Q1514 921 1505.5 940.5Q1497 960 1482.0 974.5Q1467 989 1447.5 997.5Q1428 1006 1406 1006Q1384 1006 1364.5 997.5Q1345 989 1330.0 974.5Q1315 960 1306.5 940.5Q1298 921 1298 899ZM1406 431Q1428 431 1447.5 439.5Q1467 448 1482.0 463.0Q1497 478 1505.5 497.5Q1514 517 1514 539Q1514 561 1505.5 580.5Q1497 600 1482.0 615.0Q1467 630 1447.5 638.5Q1428 647 1406 647Q1384 647 1364.5 638.5Q1345 630 1330.0 615.0Q1315 600 1306.5 580.5Q1298 561 1298 539Q1298 517 1306.5 497.5Q1315 478 1330.0 463.0Q1345 448 1364.5 439.5Q1384 431 1406 431Z" style="fill:#383838;stroke:none" transform="scale(1,-1) translate(0,-256)" /></svg>