<?xml version="1.0" encoding="utf-8" ?>
<svg baseProfile="full" height="256" version="1.1" width="256" xmlns="http://www.w3.org/2000/svg" xmlns:ev="http://www.w3.org/2001/xml-events" xmlns:xlink="http://www.w3.org/1999/xlink"><defs /><path d="M1406 719Q1311 719 1222.0 740.5Q1133 762 1052.5 802.5Q972 843 903.0 900.0Q834 957 779.0 1028.5Q724 1100 686.0 1183.5Q648 1267 630 1360Q702 1447 790.0 1514.5Q878 1582 977.5 1629.0Q1077 1676 1185.0 1700.5Q1293 1725 1406 1725Q1518 1725 1626.5 1700.5Q1735 1676 1835.0 1629.0Q1935 1582 2023.0 1514.0Q2111 1446 2182 1360Q2164 1267 2126.0 1183.5Q2088 1100 2033.0 1028.5Q1978 957 1909.0 900.0Q1840 843 1759.5 802.5Q1679 762 1590.0 740.5Q1501 719 1406 719Z" style="fill:#757575;stroke:none" transform="scale(1,-1) translate(0,-256)" /></svg>