<?xml version="1.0" encoding="utf-8" ?>
<svg baseProfile="full" height="256" version="1.1" width="256" xmlns="http://www.w3.org/2000/svg" xmlns:ev="http://www.w3.org/2001/xml-events" xmlns:xlink="http://www.w3.org/1999/xlink"><defs /><path d="M2304 755Q2320 737 2340 737Q2326 720 2308.0 710.5Q2290 701 2268 701Q2248 701 2233 683Q2219 666 2200.5 656.5Q2182 647 2161 647Q2140 647 2121.5 656.5Q2103 666 2089 683Q2074 701 2053 701Q2032 701 2017 683Q2002 665 1981 665Q1960 665 1945 683Q1930 701 1909 701Q1888 701 1873 683Q1859 666 1840.5 656.5Q1822 647 1801 647Q1780 647 1761.5 656.5Q1743 666 1729 683Q1714 701 1693 701Q1673 701 1658 683Q1644 666 1625.5 656.5Q1607 647 1586 647Q1565 647 1546.5 656.5Q1528 666 1514 683Q1499 701 1478 701Q1457 701 1442 683Q1427 665 1406 665Q1385 665 1370 683Q1355 701 1334 701Q1313 701 1298 683Q1284 666 1265.5 656.5Q1247 647 1226 647Q1205 647 1186.5 656.5Q1168 666 1154 683Q1139 701 1118 701Q1098 701 1083 683Q1069 666 1050.5 656.5Q1032 647 1011 647Q990 647 971.5 656.5Q953 666 939 683Q924 701 903 701Q882 701 867 683Q852 665 831 665Q810 665 795 683Q780 701 759 701Q738 701 723 683Q709 666 690.5 656.5Q672 647 651 647Q630 647 611.5 656.5Q593 666 579 683Q564 701 543 701Q522 701 504.0 710.5Q486 720 472 737Q492 737 508 755Q522 772 540.0 781.5Q558 791 579 791Q600 791 618.5 781.5Q637 772 651 755Q666 737 687 737Q708 737 723 755Q738 773 759 773Q780 773 795 755Q810 737 831 737Q852 737 867 755Q881 772 899.5 781.5Q918 791 939 791Q960 791 978.5 781.5Q997 772 1011 755Q1026 737 1047 737Q1067 737 1083 755Q1098 773 1118 773Q1139 773 1154 755Q1170 737 1190 737Q1211 737 1226 755Q1240 772 1258.5 781.5Q1277 791 1298 791Q1319 791 1337.5 781.5Q1356 772 1370 755Q1385 737 1406 737Q1427 737 1442 755Q1456 772 1474.5 781.5Q1493 791 1514 791Q1535 791 1553.5 781.5Q1572 772 1586 755Q1601 737 1622 737Q1642 737 1658 755Q1673 773 1693 773Q1714 773 1729 755Q1745 737 1765 737Q1786 737 1801 755Q1815 772 1833.5 781.5Q1852 791 1873 791Q1894 791 1912.5 781.5Q1931 772 1945 755Q1960 737 1981 737Q2002 737 2017 755Q2032 773 2053 773Q2074 773 2089 755Q2104 737 2125 737Q2145 737 2161 755Q2175 772 2193.0 781.5Q2211 791 2233 791Q2254 791 2272.0 781.5Q2290 772 2304 755Z" style="fill:#13a10e;stroke:none" transform="scale(1,-1) translate(0,-256)" /></svg>