<?xml version="1.0" encoding="utf-8" ?>
<svg baseProfile="full" height="256" version="1.1" width="256" xmlns="http://www.w3.org/2000/svg" xmlns:ev="http://www.w3.org/2001/xml-events" xmlns:xlink="http://www.w3.org/1999/xlink"><defs /><path d="M2412 360Q2412 330 2401.0 304.5Q2390 279 2371.0 259.5Q2352 240 2326.5 228.5Q2301 217 2272 216H2268L1393 119Q1180 143 1034.5 159.5Q889 176 794.0 187.0Q699 198 647.5 204.0Q596 210 572.5 212.5Q549 215 544.5 215.5Q540 216 540 216Q511 217 485.5 228.5Q460 240 441.0 259.5Q422 279 411.0 304.5Q400 330 400 360Q400 390 411.0 415.5Q422 441 441.5 460.0Q461 479 487.0 490.0Q513 501 543 503L1389 545L2268 503H2272Q2301 502 2326.5 490.5Q2352 479 2371.0 460.0Q2390 441 2401.0 415.0Q2412 389 2412 360Z" style="fill:#8e562e;stroke:none" transform="scale(1,-1) translate(0,-256)" /></svg>