<?xml version="1.0" encoding="utf-8" ?>
<svg baseProfile="full" height="256" version="1.1" width="256" xmlns="http://www.w3.org/2000/svg" xmlns:ev="http://www.w3.org/2001/xml-events" xmlns:xlink="http://www.w3.org/1999/xlink"><defs /><path d="M2413 608Q2478 571 2517.0 505.5Q2556 440 2556 360Q2556 279 2516.5 213.0Q2477 147 2412 110V72Q2412 13 2389.5 -39.5Q2367 -92 2328.0 -131.0Q2289 -170 2236.5 -192.5Q2184 -215 2125 -215H687Q628 -215 575.5 -192.5Q523 -170 484.0 -131.0Q445 -92 422.5 -39.5Q400 13 400 72V110Q335 147 295.5 213.0Q256 279 256 360Q256 440 295.0 505.5Q334 571 399 608Q376 626 361 645Q344 665 336.0 688.5Q328 712 328 737Q328 771 341 798Q364 845 411 867Q429 989 475.0 1100.0Q521 1211 590.0 1306.0Q659 1401 748.5 1478.5Q838 1556 942.5 1611.0Q1047 1666 1164.0 1695.5Q1281 1725 1406 1725Q1531 1725 1648.0 1695.5Q1765 1666 1869.5 1611.0Q1974 1556 2063.5 1478.5Q2153 1401 2222.0 1306.0Q2291 1211 2337.0 1100.0Q2383 989 2401 867Q2424 856 2441.5 838.5Q2459 821 2470 798Q2484 767 2484 736Q2484 684 2451 645Q2436 626 2413 608Z" style="fill:#000000;stroke:none" transform="scale(1,-1) translate(0,-256)" /></svg>