<?xml version="1.0" encoding="utf-8" ?>
<svg baseProfile="full" height="256" version="1.1" width="256" xmlns="http://www.w3.org/2000/svg" xmlns:ev="http://www.w3.org/2001/xml-events" xmlns:xlink="http://www.w3.org/1999/xlink"><defs /><path d="M2246 1370Q2207 1334 2157.0 1314.0Q2107 1294 2053 1294Q1994 1294 1942.0 1317.0Q1890 1340 1850.5 1379.0Q1811 1418 1788.0 1470.0Q1765 1522 1765 1581Q1765 1636 1787 1691Q1927 1652 2044.0 1570.0Q2161 1488 2246 1370ZM2391 1050Q2412 958 2412 863V791Q2412 761 2401.0 735.0Q2390 709 2370.5 689.5Q2351 670 2325.0 658.5Q2299 647 2269 647H2021Q2001 679 1991.0 716.0Q1981 753 1981 791Q1981 850 2003.5 902.5Q2026 955 2065.0 994.0Q2104 1033 2156.5 1055.5Q2209 1078 2268 1078Q2300 1078 2331.0 1071.5Q2362 1065 2391 1050ZM544 1078Q603 1078 655.5 1055.5Q708 1033 747.0 994.0Q786 955 808.5 902.5Q831 850 831 791Q831 753 821.0 716.0Q811 679 791 647H544Q514 647 487.5 658.0Q461 669 441.5 688.5Q422 708 411.0 734.5Q400 761 400 791V863Q400 958 421 1050Q450 1065 481.0 1071.5Q512 1078 544 1078ZM566 1370Q651 1486 768.5 1569.0Q886 1652 1025 1691Q1047 1636 1047 1581Q1047 1522 1024.0 1470.0Q1001 1418 961.5 1379.0Q922 1340 869.5 1317.0Q817 1294 759 1294Q705 1294 655.0 1314.0Q605 1334 566 1370ZM1406 1438Q1466 1438 1518.0 1415.5Q1570 1393 1609.0 1354.0Q1648 1315 1670.5 1262.5Q1693 1210 1693 1150Q1693 1090 1670.5 1038.0Q1648 986 1609.0 947.0Q1570 908 1518.0 885.5Q1466 863 1406 863Q1346 863 1293.5 885.5Q1241 908 1202.0 947.0Q1163 986 1140.5 1038.0Q1118 1090 1118 1150Q1118 1210 1140.5 1262.5Q1163 1315 1202.0 1354.0Q1241 1393 1293.5 1415.5Q1346 1438 1406 1438Z" style="fill:#f495bf;stroke:none" transform="scale(1,-1) translate(0,-256)" /></svg>