<?xml version="1.0" encoding="utf-8" ?>
<svg baseProfile="full" height="256" version="1.1" width="256" xmlns="http://www.w3.org/2000/svg" xmlns:ev="http://www.w3.org/2001/xml-events" xmlns:xlink="http://www.w3.org/1999/xlink"><defs /><path d="M1118 -431Q1059 -431 1006.5 -408.5Q954 -386 915.0 -347.0Q876 -308 853.5 -255.5Q831 -203 831 -144Q831 -122 835.0 -100.5Q839 -79 845 -58L1001 503H543Q484 503 432.0 526.0Q380 549 341.0 588.5Q302 628 279.0 680.0Q256 732 256 791V863Q256 1001 292.0 1129.5Q328 1258 393.5 1370.0Q459 1482 551.0 1574.0Q643 1666 755.0 1731.5Q867 1797 995.0 1833.0Q1123 1869 1262 1869H1550Q1667 1869 1778.5 1842.5Q1890 1816 1991.0 1766.5Q2092 1717 2179.5 1647.0Q2267 1577 2337.0 1489.5Q2407 1402 2457.0 1299.0Q2507 1196 2532 1081Q2548 1009 2552.0 936.5Q2556 864 2556 791Q2556 731 2533.5 678.5Q2511 626 2472.0 587.0Q2433 548 2380.5 525.5Q2328 503 2268 503H1811L1969 -62Q1974 -82 1977.5 -102.5Q1981 -123 1981 -144Q1981 -203 1958.0 -255.0Q1935 -307 1895.5 -346.0Q1856 -385 1803.5 -408.0Q1751 -431 1693 -431Z" style="fill:#000000;stroke:none" transform="scale(1,-1) translate(0,-256)" /></svg>