<?xml version="1.0" encoding="utf-8" ?>
<svg baseProfile="full" height="256" version="1.1" width="256" xmlns="http://www.w3.org/2000/svg" xmlns:ev="http://www.w3.org/2001/xml-events" xmlns:xlink="http://www.w3.org/1999/xlink"><defs /><path d="M1622 647 1830 -101Q1833 -112 1835.0 -122.5Q1837 -133 1837 -144Q1837 -174 1825.5 -200.0Q1814 -226 1794.5 -245.5Q1775 -265 1749.0 -276.0Q1723 -287 1693 -287H1118Q1088 -287 1062.0 -276.0Q1036 -265 1016.5 -245.5Q997 -226 986.0 -200.0Q975 -174 975 -144Q975 -133 977.0 -122.5Q979 -112 982 -101L1190 647L1414 777Z" style="fill:#f7d7c4;stroke:none" transform="scale(1,-1) translate(0,-256)" /></svg>