<?xml version="1.0" encoding="utf-8" ?>
<svg baseProfile="full" height="256" version="1.1" width="256" xmlns="http://www.w3.org/2000/svg" xmlns:ev="http://www.w3.org/2001/xml-events" xmlns:xlink="http://www.w3.org/1999/xlink"><defs /><path d="M2053 575 2120 629 2196 575V-215Q2196 -244 2175.0 -265.5Q2154 -287 2125 -287Q2095 -287 2074.0 -266.0Q2053 -245 2053 -215ZM1765 216Q1795 216 1816.0 195.0Q1837 174 1837 144Q1837 114 1816.0 93.0Q1795 72 1765 72Q1735 72 1714.0 93.0Q1693 114 1693 144Q1693 174 1714.0 195.0Q1735 216 1765 216ZM1909 360Q1938 360 1959.5 338.5Q1981 317 1981 288Q1981 258 1960.0 237.0Q1939 216 1909 216Q1879 216 1858.0 237.0Q1837 258 1837 288Q1837 317 1858.5 338.5Q1880 360 1909 360ZM1765 360Q1736 360 1714.5 381.0Q1693 402 1693 431Q1693 461 1714.0 482.0Q1735 503 1765 503Q1795 503 1816.0 482.0Q1837 461 1837 431Q1837 402 1815.5 381.0Q1794 360 1765 360ZM1621 360Q1650 360 1671.5 338.5Q1693 317 1693 288Q1693 258 1672.0 237.0Q1651 216 1621 216Q1592 216 1571.0 237.5Q1550 259 1550 288Q1550 317 1571.0 338.5Q1592 360 1621 360Z" style="fill:#757575;stroke:none" transform="scale(1,-1) translate(0,-256)" /></svg>