<?xml version="1.0" encoding="utf-8" ?>
<svg baseProfile="full" height="256" version="1.1" width="256" xmlns="http://www.w3.org/2000/svg" xmlns:ev="http://www.w3.org/2001/xml-events" xmlns:xlink="http://www.w3.org/1999/xlink"><defs /><path d="M1765 575Q1823 575 1875.5 552.0Q1928 529 1967.5 490.0Q2007 451 2030.0 398.5Q2053 346 2053 288Q2053 228 2030.5 175.5Q2008 123 1969.0 84.0Q1930 45 1877.5 22.5Q1825 0 1765 0Q1705 0 1653.0 22.5Q1601 45 1562.0 84.0Q1523 123 1500.5 175.5Q1478 228 1478 288Q1478 347 1500.5 399.5Q1523 452 1562.0 491.0Q1601 530 1653.5 552.5Q1706 575 1765 575ZM759 791 687 935V1402H759Z" style="fill:#cccccc;stroke:none" transform="scale(1,-1) translate(0,-256)" /></svg>