<?xml version="1.0" encoding="utf-8" ?>
<svg baseProfile="full" height="256" version="1.1" width="256" xmlns="http://www.w3.org/2000/svg" xmlns:ev="http://www.w3.org/2001/xml-events" xmlns:xlink="http://www.w3.org/1999/xlink"><defs /><path d="M1334 1869Q1473 1869 1601.5 1833.0Q1730 1797 1841.5 1731.5Q1953 1666 2045.0 1574.0Q2137 1482 2202.5 1370.5Q2268 1259 2304.0 1130.5Q2340 1002 2340 863V-215Q2340 -259 2323.0 -298.0Q2306 -337 2276.5 -366.5Q2247 -396 2208.0 -413.5Q2169 -431 2125 -431Q2080 -431 2041.0 -414.0Q2002 -397 1972.5 -367.5Q1943 -338 1926.0 -299.0Q1909 -260 1909 -215V-144H1765Q1676 -144 1597.5 -110.0Q1519 -76 1460.5 -17.0Q1402 42 1368.0 120.5Q1334 199 1334 288Q1334 377 1368.0 455.5Q1402 534 1460.5 592.5Q1519 651 1597.5 685.0Q1676 719 1765 719H1909V863Q1909 981 1863.5 1086.0Q1818 1191 1740.0 1269.0Q1662 1347 1557.0 1392.5Q1452 1438 1334 1438Q1263 1438 1205.5 1425.0Q1148 1412 1097.5 1387.0Q1047 1362 1000.0 1326.0Q953 1290 903 1244V1063L1101 888L1104 884Q1141 838 1170.0 795.5Q1199 753 1219.5 708.5Q1240 664 1250.5 614.0Q1261 564 1261 503Q1261 434 1247.0 375.5Q1233 317 1206.0 265.0Q1179 213 1140.5 166.0Q1102 119 1054 72L1079 37Q1107 -2 1128.0 -34.5Q1149 -67 1163.0 -100.5Q1177 -134 1184.0 -174.0Q1191 -214 1191 -269Q1191 -310 1190.5 -350.0Q1190 -390 1190 -431H328Q328 -388 327.0 -345.0Q326 -302 326 -259Q326 -207 334.5 -167.0Q343 -127 359.0 -92.0Q375 -57 397.5 -23.5Q420 10 447 48L464 72Q415 120 376.5 167.0Q338 214 311.0 265.0Q284 316 270.0 374.0Q256 432 256 503Q256 592 278.0 660.5Q300 729 338.5 787.5Q377 846 429.5 898.0Q482 950 543 1006V1394Q543 1437 555.5 1471.5Q568 1506 589.0 1535.0Q610 1564 637.5 1589.0Q665 1614 696 1640Q973 1869 1334 1869Z" style="fill:#000000;stroke:none" transform="scale(1,-1) translate(0,-256)" /></svg>