<?xml version="1.0" encoding="utf-8" ?>
<svg baseProfile="full" height="256" version="1.1" width="256" xmlns="http://www.w3.org/2000/svg" xmlns:ev="http://www.w3.org/2001/xml-events" xmlns:xlink="http://www.w3.org/1999/xlink"><defs /><path d="M831 935 1003 783Q1031 758 1052.5 725.0Q1074 692 1088.5 655.0Q1103 618 1110.5 579.0Q1118 540 1118 503Q1118 437 1100.5 385.0Q1083 333 1054.0 288.5Q1025 244 986.0 204.5Q947 165 905 125L868 89L978 -72L687 -192V216L797 350L687 503V935ZM903 575Q932 575 953.5 596.5Q975 618 975 647Q975 676 953.5 697.5Q932 719 903 719H831Q801 719 780.0 698.0Q759 677 759 647Q759 617 780.0 596.0Q801 575 831 575Z" style="fill:#31d2f7;stroke:none" transform="scale(1,-1) translate(0,-256)" /></svg>