<?xml version="1.0" encoding="utf-8" ?>
<svg baseProfile="full" height="256" version="1.1" width="256" xmlns="http://www.w3.org/2000/svg" xmlns:ev="http://www.w3.org/2001/xml-events" xmlns:xlink="http://www.w3.org/1999/xlink"><defs /><path d="M978 -72Q990 -89 1002.0 -105.0Q1014 -121 1023.5 -138.5Q1033 -156 1039.5 -175.0Q1046 -194 1046 -215V-287H471V-215Q471 -194 477.5 -175.0Q484 -156 494.0 -138.5Q504 -121 516.0 -104.5Q528 -88 540 -72ZM903 288V216H687V503Q732 503 771.0 486.0Q810 469 839.5 440.0Q869 411 886.0 372.0Q903 333 903 288Z" style="fill:#0078d7;stroke:none" transform="scale(1,-1) translate(0,-256)" /></svg>