<?xml version="1.0" encoding="utf-8" ?>
<svg baseProfile="full" height="256" version="1.1" width="256" xmlns="http://www.w3.org/2000/svg" xmlns:ev="http://www.w3.org/2001/xml-events" xmlns:xlink="http://www.w3.org/1999/xlink"><defs /><path d="M2196 863V575H2053V863Q2053 962 2027.0 1053.5Q2001 1145 1954.5 1225.0Q1908 1305 1842.0 1370.5Q1776 1436 1696.5 1483.0Q1617 1530 1525.0 1555.5Q1433 1581 1334 1581Q1207 1581 1092.0 1540.5Q977 1500 880 1419Q862 1404 845.0 1387.5Q828 1371 811 1355Q798 1344 787.0 1338.0Q776 1332 759 1332Q729 1332 708.0 1354.0Q687 1376 687 1405Q687 1419 693.0 1431.0Q699 1443 707 1454Q760 1520 833.5 1570.5Q907 1621 991.0 1655.5Q1075 1690 1163.0 1707.5Q1251 1725 1334 1725Q1453 1725 1563.0 1694.0Q1673 1663 1768.5 1607.0Q1864 1551 1943.0 1472.0Q2022 1393 2078.0 1297.5Q2134 1202 2165.0 1092.0Q2196 982 2196 863Z" style="fill:#f7894a;stroke:none" transform="scale(1,-1) translate(0,-256)" /></svg>