<?xml version="1.0" encoding="utf-8" ?>
<svg baseProfile="full" height="256" version="1.1" width="256" xmlns="http://www.w3.org/2000/svg" xmlns:ev="http://www.w3.org/2001/xml-events" xmlns:xlink="http://www.w3.org/1999/xlink"><defs /><path d="M1118 396Q1118 374 1109.5 354.5Q1101 335 1087.0 320.0Q1073 305 1053.0 296.5Q1033 288 1011 288Q988 288 968.5 296.5Q949 305 934.5 319.5Q920 334 911.5 353.5Q903 373 903 396Q903 418 911.5 438.0Q920 458 935.0 472.0Q950 486 969.5 494.5Q989 503 1011 503Q1033 503 1052.5 494.5Q1072 486 1086.5 471.5Q1101 457 1109.5 437.5Q1118 418 1118 396Z" style="fill:#f03a17;stroke:none" transform="scale(1,-1) translate(0,-256)" /></svg>