<?xml version="1.0" encoding="utf-8" ?>
<svg baseProfile="full" height="256" version="1.1" width="256" xmlns="http://www.w3.org/2000/svg" xmlns:ev="http://www.w3.org/2001/xml-events" xmlns:xlink="http://www.w3.org/1999/xlink"><defs /><path d="M687 360Q687 389 708.5 410.0Q730 431 759 431Q759 402 737.5 381.0Q716 360 687 360ZM975 360Q975 389 996.5 410.0Q1018 431 1047 431Q1047 402 1025.5 381.0Q1004 360 975 360ZM1262 360Q1262 389 1283.5 410.0Q1305 431 1334 431Q1334 402 1312.5 381.0Q1291 360 1262 360ZM687 72Q687 102 708.0 123.0Q729 144 759 144Q759 114 738.0 93.0Q717 72 687 72ZM975 72Q975 102 996.0 123.0Q1017 144 1047 144Q1047 115 1025.5 93.5Q1004 72 975 72ZM1262 72Q1262 102 1283.0 123.0Q1304 144 1334 144Q1334 114 1313.0 93.0Q1292 72 1262 72Z" style="fill:#e5e5e5;stroke:none" transform="scale(1,-1) translate(0,-256)" /></svg>