<?xml version="1.0" encoding="utf-8" ?>
<svg baseProfile="full" height="256" version="1.1" width="256" xmlns="http://www.w3.org/2000/svg" xmlns:ev="http://www.w3.org/2001/xml-events" xmlns:xlink="http://www.w3.org/1999/xlink"><defs /><path d="M1190 1438 1229 1366V827H472V1510Q498 1510 514.0 1498.5Q530 1487 543.5 1473.5Q557 1460 573.0 1449.0Q589 1438 615 1438Q642 1438 658.0 1449.0Q674 1460 687.5 1473.5Q701 1487 717.0 1498.5Q733 1510 759 1510Q787 1510 802.5 1521.0Q818 1532 831.0 1545.5Q844 1559 859.5 1570.0Q875 1581 903 1581Q930 1581 946.0 1570.0Q962 1559 975.5 1545.5Q989 1532 1005.0 1521.0Q1021 1510 1047 1510Q1070 1510 1086.5 1500.5Q1103 1491 1118 1474Q1133 1457 1149.5 1447.5Q1166 1438 1190 1438Z" style="fill:#8cbd18;stroke:none" transform="scale(1,-1) translate(0,-256)" /></svg>