<?xml version="1.0" encoding="utf-8" ?>
<svg baseProfile="full" height="256" version="1.1" width="256" xmlns="http://www.w3.org/2000/svg" xmlns:ev="http://www.w3.org/2001/xml-events" xmlns:xlink="http://www.w3.org/1999/xlink"><defs /><path d="M615 503Q586 503 564.5 524.5Q543 546 543 575Q573 575 594.0 554.0Q615 533 615 503ZM903 216Q873 216 852.0 237.0Q831 258 831 288Q861 288 882.0 267.0Q903 246 903 216ZM1190 503Q1161 503 1139.5 524.5Q1118 546 1118 575Q1148 575 1169.0 554.0Q1190 533 1190 503ZM1478 503Q1448 503 1427.0 524.0Q1406 545 1406 575Q1436 575 1457.0 554.0Q1478 533 1478 503Z" style="fill:#cccccc;stroke:none" transform="scale(1,-1) translate(0,-256)" /></svg>