<?xml version="1.0" encoding="utf-8" ?>
<svg baseProfile="full" height="256" version="1.1" width="256" xmlns="http://www.w3.org/2000/svg" xmlns:ev="http://www.w3.org/2001/xml-events" xmlns:xlink="http://www.w3.org/1999/xlink"><defs /><path d="M2197 1150Q2226 1150 2247.0 1128.5Q2268 1107 2268 1078Q2268 1048 2257.0 1022.0Q2246 996 2226.5 976.5Q2207 957 2181.0 946.0Q2155 935 2125 935H1478Q1449 935 1427.5 956.0Q1406 977 1406 1006Q1406 1046 1425 1078H1334V1222Q1334 1263 1354.5 1297.0Q1375 1331 1411 1350Q1421 1400 1447.5 1442.5Q1474 1485 1511.5 1515.5Q1549 1546 1595.5 1563.5Q1642 1581 1693 1581H2053Q2098 1581 2137.0 1564.0Q2176 1547 2205.0 1518.0Q2234 1489 2251.0 1450.0Q2268 1411 2268 1366L2189 1326Q2195 1313 2197.0 1290.0Q2199 1267 2199 1241Q2199 1215 2198.0 1190.5Q2197 1166 2197 1150Z" style="fill:#f7630c;stroke:none" transform="scale(1,-1) translate(0,-256)" /></svg>