<?xml version="1.0" encoding="utf-8" ?>
<svg baseProfile="full" height="256" version="1.1" width="256" xmlns="http://www.w3.org/2000/svg" xmlns:ev="http://www.w3.org/2001/xml-events" xmlns:xlink="http://www.w3.org/1999/xlink"><defs /><path d="M1492 1366 1539 1389 1572 1366 1644 1222 1619 1195 1563 1222ZM1707 1366 1743 1389 1788 1366 1859 1222 1844 1195 1779 1222ZM2003 1366 2075 1222 2045 1195 1995 1222 1923 1366 1965 1389ZM1658 1006Q1648 1006 1639.0 1012.0Q1630 1018 1625 1026L1563 1150L1597 1175L1644 1150Q1648 1142 1656.5 1127.0Q1665 1112 1673.0 1096.0Q1681 1080 1687.5 1065.5Q1694 1051 1694 1043Q1694 1028 1683.5 1017.0Q1673 1006 1658 1006ZM1873 1006Q1850 1006 1841 1026L1779 1150L1812 1175L1859 1150Q1863 1141 1871.5 1126.5Q1880 1112 1888.5 1096.0Q1897 1080 1903.0 1065.0Q1909 1050 1909 1042Q1909 1028 1898.0 1017.0Q1887 1006 1873 1006ZM2075 1150Q2079 1141 2087.5 1126.5Q2096 1112 2104.5 1096.0Q2113 1080 2119.0 1065.0Q2125 1050 2125 1042Q2125 1028 2114.0 1017.0Q2103 1006 2089 1006Q2066 1006 2057 1026L1995 1150L2028 1175ZM1550 1474Q1550 1488 1560.5 1499.0Q1571 1510 1585 1510Q1598 1510 1607.0 1502.5Q1616 1495 1622.5 1483.5Q1629 1472 1634.0 1459.5Q1639 1447 1644 1438L1613 1415L1563 1438Q1558 1448 1554.0 1455.5Q1550 1463 1550 1474ZM1765 1474Q1765 1488 1776.0 1499.0Q1787 1510 1801 1510Q1814 1510 1823.0 1502.0Q1832 1494 1838.0 1483.0Q1844 1472 1849.0 1459.5Q1854 1447 1859 1438L1823 1415L1779 1438Q1774 1446 1769.5 1455.0Q1765 1464 1765 1474ZM2017 1510Q2030 1510 2039.0 1502.0Q2048 1494 2054.0 1483.0Q2060 1472 2065.0 1459.5Q2070 1447 2075 1438L2053 1415L1995 1438Q1990 1446 1985.5 1455.0Q1981 1464 1981 1474Q1981 1488 1992.0 1499.0Q2003 1510 2017 1510Z" style="fill:#ca5010;stroke:none" transform="scale(1,-1) translate(0,-256)" /></svg>