<?xml version="1.0" encoding="utf-8" ?>
<svg baseProfile="full" height="256" version="1.1" width="256" xmlns="http://www.w3.org/2000/svg" xmlns:ev="http://www.w3.org/2001/xml-events" xmlns:xlink="http://www.w3.org/1999/xlink"><defs /><path d="M2268 -72H543Q513 -72 487.0 -60.5Q461 -49 441.5 -29.5Q422 -10 411.0 16.0Q400 42 400 72V1581Q400 1611 411.0 1637.0Q422 1663 441.5 1682.5Q461 1702 487.0 1713.5Q513 1725 543 1725H2268Q2298 1725 2324.0 1713.5Q2350 1702 2369.5 1682.5Q2389 1663 2400.5 1637.0Q2412 1611 2412 1581V72Q2412 42 2400.5 16.0Q2389 -10 2369.5 -29.5Q2350 -49 2324.0 -60.5Q2298 -72 2268 -72Z" style="fill:#757575;stroke:none" transform="scale(1,-1) translate(0,-256)" /></svg>