<?xml version="1.0" encoding="utf-8" ?>
<svg baseProfile="full" height="256" version="1.1" width="256" xmlns="http://www.w3.org/2000/svg" xmlns:ev="http://www.w3.org/2001/xml-events" xmlns:xlink="http://www.w3.org/1999/xlink"><defs /><path d="M2197 1150Q2042 1150 1889.5 1150.5Q1737 1151 1582 1151Q1532 1151 1492.5 1137.5Q1453 1124 1425 1078H1334Q1334 1108 1345.0 1134.0Q1356 1160 1375.5 1179.5Q1395 1199 1421.5 1210.5Q1448 1222 1478 1222H2125Q2154 1222 2175.5 1200.5Q2197 1179 2197 1150ZM2197 1438Q2226 1438 2247.0 1416.5Q2268 1395 2268 1366Q2268 1337 2247.0 1315.5Q2226 1294 2197 1294Q2197 1323 2175.5 1344.5Q2154 1366 2125 1366H1478Q1450 1366 1419 1353Q1436 1391 1472.0 1414.5Q1508 1438 1550 1438Z" style="fill:#f2d6c9;stroke:none" transform="scale(1,-1) translate(0,-256)" /></svg>