<?xml version="1.0" encoding="utf-8" ?>
<svg baseProfile="full" height="256" version="1.1" width="256" xmlns="http://www.w3.org/2000/svg" xmlns:ev="http://www.w3.org/2001/xml-events" xmlns:xlink="http://www.w3.org/1999/xlink"><defs /><path d="M2017 431Q1995 431 1975.5 439.5Q1956 448 1941.0 463.0Q1926 478 1917.5 497.5Q1909 517 1909 539Q1909 561 1917.5 581.0Q1926 601 1940.5 615.5Q1955 630 1974.5 638.5Q1994 647 2017 647Q2039 647 2058.5 638.5Q2078 630 2093.0 615.0Q2108 600 2116.5 580.5Q2125 561 2125 539Q2125 517 2116.5 497.5Q2108 478 2093.0 463.0Q2078 448 2058.5 439.5Q2039 431 2017 431ZM832 1151Q832 1172 846.5 1197.0Q861 1222 882.5 1243.5Q904 1265 928.5 1279.5Q953 1294 974 1294Q993 1294 1009.0 1286.5Q1025 1279 1039.5 1267.0Q1054 1255 1067.0 1241.0Q1080 1227 1092 1215Q1106 1201 1113.0 1185.5Q1120 1170 1120 1150Q1120 1112 1093 1085Q1081 1072 1068.5 1058.5Q1056 1045 1041.5 1033.5Q1027 1022 1011.0 1014.5Q995 1007 976 1007Q956 1007 940.0 1014.5Q924 1022 909.5 1034.0Q895 1046 882.5 1060.0Q870 1074 858 1087Q832 1115 832 1151ZM544 1367Q544 1386 551.5 1402.0Q559 1418 570.5 1432.0Q582 1446 596.0 1458.5Q610 1471 622 1483Q649 1510 686 1510Q705 1510 721.0 1502.0Q737 1494 751.5 1482.5Q766 1471 779.0 1457.0Q792 1443 804 1431Q819 1417 825.5 1401.5Q832 1386 832 1365Q832 1345 824.5 1329.0Q817 1313 805.5 1299.5Q794 1286 780.0 1273.5Q766 1261 753 1249Q726 1222 688 1222Q667 1222 642.0 1237.0Q617 1252 595.5 1273.5Q574 1295 559.0 1320.5Q544 1346 544 1367Z" style="fill:#ffb900;stroke:none" transform="scale(1,-1) translate(0,-256)" /></svg>