<?xml version="1.0" encoding="utf-8" ?>
<svg baseProfile="full" height="256" version="1.1" width="256" xmlns="http://www.w3.org/2000/svg" xmlns:ev="http://www.w3.org/2001/xml-events" xmlns:xlink="http://www.w3.org/1999/xlink"><defs /><path d="M2268 1869Q2328 1869 2380.5 1846.5Q2433 1824 2472.0 1785.0Q2511 1746 2533.5 1693.5Q2556 1641 2556 1581V-144Q2556 -203 2533.0 -255.5Q2510 -308 2471.0 -347.0Q2432 -386 2379.5 -408.5Q2327 -431 2268 -431H543Q484 -431 431.5 -408.5Q379 -386 340.0 -347.0Q301 -308 278.5 -255.5Q256 -203 256 -144V1581Q256 1640 278.5 1692.5Q301 1745 340.0 1784.0Q379 1823 431.5 1846.0Q484 1869 543 1869Z" style="fill:#000000;stroke:none" transform="scale(1,-1) translate(0,-256)" /></svg>