<?xml version="1.0" encoding="utf-8" ?>
<svg baseProfile="full" height="256" version="1.1" width="256" xmlns="http://www.w3.org/2000/svg" xmlns:ev="http://www.w3.org/2001/xml-events" xmlns:xlink="http://www.w3.org/1999/xlink"><defs /><path d="M615 216Q586 216 564.5 237.5Q543 259 543 288Q573 288 594.0 267.0Q615 246 615 216ZM903 503Q873 503 852.0 524.0Q831 545 831 575Q861 575 882.0 554.0Q903 533 903 503ZM1190 216Q1161 216 1139.5 237.5Q1118 259 1118 288Q1148 288 1169.0 267.0Q1190 246 1190 216ZM1478 216Q1448 216 1427.0 237.0Q1406 258 1406 288Q1436 288 1457.0 267.0Q1478 246 1478 216Z" style="fill:#ffffff;stroke:none" transform="scale(1,-1) translate(0,-256)" /></svg>