<?xml version="1.0" encoding="utf-8" ?>
<svg baseProfile="full" height="256" version="1.1" width="256" xmlns="http://www.w3.org/2000/svg" xmlns:ev="http://www.w3.org/2001/xml-events" xmlns:xlink="http://www.w3.org/1999/xlink"><defs /><path d="M2125 935H2135Q2161 935 2185.0 929.0Q2209 923 2227.5 910.0Q2246 897 2257.0 876.5Q2268 856 2268 827V611Q2268 581 2257.0 560.5Q2246 540 2227.0 527.5Q2208 515 2184.0 509.0Q2160 503 2135 503H2125Q2125 394 2096.5 293.0Q2068 192 2016.5 104.5Q1965 17 1893.0 -55.5Q1821 -128 1733.0 -179.5Q1645 -231 1544.0 -259.0Q1443 -287 1334 -287Q1225 -287 1124.0 -259.0Q1023 -231 935.0 -179.5Q847 -128 775.0 -55.5Q703 17 651.5 104.5Q600 192 571.5 293.0Q543 394 543 503H532Q506 503 482.0 509.0Q458 515 440.0 527.5Q422 540 411.0 560.5Q400 581 400 611V827Q400 857 411.0 877.5Q422 898 440.5 911.0Q459 924 482.5 929.5Q506 935 532 935H543Q543 1044 571.5 1145.0Q600 1246 651.5 1333.5Q703 1421 775.0 1493.5Q847 1566 935.0 1617.5Q1023 1669 1124.0 1697.0Q1225 1725 1334 1725Q1443 1725 1544.0 1697.0Q1645 1669 1733.0 1617.5Q1821 1566 1893.0 1493.5Q1965 1421 2016.5 1333.5Q2068 1246 2096.5 1145.0Q2125 1044 2125 935Z" style="fill:#ffc83d;stroke:none" transform="scale(1,-1) translate(0,-256)" /></svg>