<?xml version="1.0" encoding="utf-8" ?>
<svg baseProfile="full" height="256" version="1.1" width="256" xmlns="http://www.w3.org/2000/svg" xmlns:ev="http://www.w3.org/2001/xml-events" xmlns:xlink="http://www.w3.org/1999/xlink"><defs /><path d="M615 1366Q645 1366 666.0 1345.0Q687 1324 687 1294V791H544V935Q537 947 525.0 966.5Q513 986 501.0 1006.5Q489 1027 480.5 1046.0Q472 1065 472 1078V1294Q472 1323 493.0 1344.5Q514 1366 543 1366ZM2125 1366Q2154 1366 2175.5 1344.5Q2197 1323 2197 1294V1078Q2197 1066 2188.0 1046.5Q2179 1027 2167.0 1006.0Q2155 985 2143.0 966.0Q2131 947 2125 935V791H1981V1294Q1981 1324 2002.0 1345.0Q2023 1366 2053 1366Z" style="fill:#f2f2f2;stroke:none" transform="scale(1,-1) translate(0,-256)" /></svg>