<?xml version="1.0" encoding="utf-8" ?>
<svg baseProfile="full" height="256" version="1.1" width="256" xmlns="http://www.w3.org/2000/svg" xmlns:ev="http://www.w3.org/2001/xml-events" xmlns:xlink="http://www.w3.org/1999/xlink"><defs /><path d="M1334 -431Q1217 -431 1107.5 -403.0Q998 -375 900.0 -323.5Q802 -272 718.5 -199.0Q635 -126 571.0 -36.0Q507 54 465.0 159.0Q423 264 408 380Q374 395 346.0 419.0Q318 443 298.0 473.0Q278 503 267.0 538.0Q256 573 256 611V827Q256 880 278.0 929.0Q300 978 339 1013Q334 1028 331.5 1047.0Q329 1066 327.5 1085.5Q326 1105 326.0 1124.0Q326 1143 326 1159Q326 1193 327.0 1226.5Q328 1260 328 1294Q328 1338 345.0 1377.5Q362 1417 391.0 1446.5Q420 1476 459.5 1493.0Q499 1510 543 1510H598Q665 1595 748.0 1661.5Q831 1728 925.0 1774.0Q1019 1820 1122.5 1844.5Q1226 1869 1334 1869Q1442 1869 1545.5 1844.5Q1649 1820 1743.0 1774.0Q1837 1728 1920.0 1661.5Q2003 1595 2070 1510H2125Q2170 1510 2209.0 1493.0Q2248 1476 2277.0 1446.5Q2306 1417 2323.0 1378.0Q2340 1339 2340 1294V1078Q2340 1043 2330 1013Q2369 977 2390.5 928.5Q2412 880 2412 827V611Q2412 535 2370.5 473.0Q2329 411 2260 380Q2245 264 2203.0 159.0Q2161 54 2097.0 -36.5Q2033 -127 1949.5 -199.5Q1866 -272 1768.0 -323.5Q1670 -375 1560.5 -403.0Q1451 -431 1334 -431Z" style="fill:#000000;stroke:none" transform="scale(1,-1) translate(0,-256)" /></svg>