<?xml version="1.0" encoding="utf-8" ?>
<svg baseProfile="full" height="256" version="1.1" width="256" xmlns="http://www.w3.org/2000/svg" xmlns:ev="http://www.w3.org/2001/xml-events" xmlns:xlink="http://www.w3.org/1999/xlink"><defs /><path d="M939 1294Q924 1294 913.5 1304.5Q903 1315 903 1330Q903 1345 913.5 1355.5Q924 1366 939 1366H1729Q1744 1366 1754.5 1355.5Q1765 1345 1765 1330Q1765 1315 1754.5 1304.5Q1744 1294 1729 1294ZM939 1150Q924 1150 913.5 1160.5Q903 1171 903 1186Q903 1201 913.5 1211.5Q924 1222 939 1222H1729Q1744 1222 1754.5 1211.5Q1765 1201 1765 1186Q1765 1171 1754.5 1160.5Q1744 1150 1729 1150ZM1334 -12Q1315 -12 1286.5 -8.0Q1258 -4 1226.0 4.0Q1194 12 1162.0 24.0Q1130 36 1104.0 52.0Q1078 68 1062.0 88.0Q1046 108 1046 132Q1046 162 1068.0 183.0Q1090 204 1119 204Q1134 204 1155.0 192.5Q1176 181 1203.5 167.5Q1231 154 1263.5 143.0Q1296 132 1334 132Q1371 132 1404.0 143.0Q1437 154 1464.5 167.5Q1492 181 1513.0 192.5Q1534 204 1549 204Q1578 204 1600.0 183.0Q1622 162 1622 132Q1622 108 1606.0 88.0Q1590 68 1564.0 52.0Q1538 36 1506.0 24.0Q1474 12 1442.0 4.0Q1410 -4 1381.5 -8.0Q1353 -12 1334 -12Z" style="fill:#d48c00;stroke:none" transform="scale(1,-1) translate(0,-256)" /></svg>