<?xml version="1.0" encoding="utf-8" ?>
<svg baseProfile="full" height="256" version="1.1" width="256" xmlns="http://www.w3.org/2000/svg" xmlns:ev="http://www.w3.org/2001/xml-events" xmlns:xlink="http://www.w3.org/1999/xlink"><defs /><path d="M2053 719V611Q2053 574 2039.0 541.5Q2025 509 2000.5 484.5Q1976 460 1943.0 446.0Q1910 432 1873 432H1586Q1549 432 1516.0 446.0Q1483 460 1458.5 484.5Q1434 509 1420.0 541.5Q1406 574 1406 611V647Q1406 677 1385.0 698.0Q1364 719 1334 719Q1304 719 1283.0 698.0Q1262 677 1262 647V611Q1262 574 1248.0 541.5Q1234 509 1209.5 484.5Q1185 460 1152.5 446.0Q1120 432 1083 432H795Q758 432 725.0 446.0Q692 460 667.5 484.5Q643 509 629.0 541.5Q615 574 615 611V719H687Q692 704 702.5 677.5Q713 651 727.0 626.0Q741 601 758.5 582.5Q776 564 795 564H1083Q1108 564 1125.0 581.0Q1142 598 1157.0 623.0Q1172 648 1186.5 677.5Q1201 707 1220.5 732.0Q1240 757 1267.0 774.0Q1294 791 1334 791Q1373 791 1400.5 774.0Q1428 757 1447.5 732.0Q1467 707 1482.0 677.5Q1497 648 1512.0 623.0Q1527 598 1544.0 581.0Q1561 564 1586 564H1873Q1892 564 1909.5 582.5Q1927 601 1941.0 626.0Q1955 651 1965.5 677.5Q1976 704 1981 719Z" style="fill:#757575;stroke:none" transform="scale(1,-1) translate(0,-256)" /></svg>