<?xml version="1.0" encoding="utf-8" ?>
<svg baseProfile="full" height="256" version="1.1" width="256" xmlns="http://www.w3.org/2000/svg" xmlns:ev="http://www.w3.org/2001/xml-events" xmlns:xlink="http://www.w3.org/1999/xlink"><defs /><path d="M400 1653H2268V1222H400ZM903 431Q933 431 959.0 420.0Q985 409 1004.5 389.5Q1024 370 1035.5 344.0Q1047 318 1047 288Q1047 258 1035.5 232.0Q1024 206 1004.5 186.5Q985 167 959.0 155.5Q933 144 903 144Q858 144 827.5 173.0Q797 202 795 247Q790 216 759 216Q744 216 733.5 226.5Q723 237 723 252Q723 289 737.0 321.5Q751 354 775.5 378.5Q800 403 833.0 417.0Q866 431 903 431ZM831 288Q850 288 856.5 276.5Q863 265 867.0 251.5Q871 238 877.0 227.0Q883 216 903 216Q932 216 953.5 237.5Q975 259 975 288Q975 317 953.5 338.5Q932 360 903 360Q882 360 863.5 352.5Q845 345 830.5 331.5Q816 318 806.5 300.0Q797 282 795 262Q798 273 808.0 280.5Q818 288 831 288Z" style="fill:#f03a17;stroke:none" transform="scale(1,-1) translate(0,-256)" /></svg>