<?xml version="1.0" encoding="utf-8" ?>
<svg baseProfile="full" height="256" version="1.1" width="256" xmlns="http://www.w3.org/2000/svg" xmlns:ev="http://www.w3.org/2001/xml-events" xmlns:xlink="http://www.w3.org/1999/xlink"><defs /><path d="M615 647V791H759V647ZM1478 0V144H1622V0ZM1262 431V575H1406V431ZM1693 216V360H1837V216ZM831 647V791H975V647ZM1909 647V791H2053V647ZM1693 431V575H1837V431ZM1262 0V144H1406V0ZM831 0V144H975V0ZM1478 431V575H1622V431ZM831 431V575H975V431ZM1262 216V360H1406V216ZM1478 216V360H1622V216ZM615 431V575H759V431ZM1909 431V575H2053V431ZM1262 647V791H1406V647ZM615 0V144H759V0ZM1693 647V791H1837V647ZM831 216V360H975V216ZM1478 647V791H1622V647ZM615 216V360H759V216ZM1909 216V360H2053V216ZM1047 216V360H1190V216ZM1047 647V791H1190V647ZM1478 863V1006H1622V863ZM1047 0V144H1190V0ZM1909 1006H2053V863H1909ZM1693 863V1006H1837V863ZM1047 431V575H1190V431ZM1262 863V1006H1406V863ZM1047 863V1006H1190V863Z" style="fill:#a6a6a6;stroke:none" transform="scale(1,-1) translate(0,-256)" /></svg>