<?xml version="1.0" encoding="utf-8" ?>
<svg baseProfile="full" height="256" version="1.1" width="256" xmlns="http://www.w3.org/2000/svg" xmlns:ev="http://www.w3.org/2001/xml-events" xmlns:xlink="http://www.w3.org/1999/xlink"><defs /><path d="M256 1725Q256 1755 267.0 1781.0Q278 1807 297.5 1826.5Q317 1846 343.5 1857.5Q370 1869 400 1869H1693Q1723 1869 1749.0 1857.5Q1775 1846 1794.5 1826.5Q1814 1807 1825.5 1781.0Q1837 1755 1837 1725V-215Q1837 -260 1820.0 -299.0Q1803 -338 1774.0 -367.5Q1745 -397 1706.0 -414.0Q1667 -431 1622 -431H472Q427 -431 387.5 -414.0Q348 -397 319.0 -368.0Q290 -339 273.0 -299.5Q256 -260 256 -215Z" style="fill:#000000;stroke:none" transform="scale(1,-1) translate(0,-256)" /></svg>