<?xml version="1.0" encoding="utf-8" ?>
<svg baseProfile="full" height="256" version="1.1" width="256" xmlns="http://www.w3.org/2000/svg" xmlns:ev="http://www.w3.org/2001/xml-events" xmlns:xlink="http://www.w3.org/1999/xlink"><defs /><path d="M1262 971Q1262 956 1251.5 945.5Q1241 935 1226 935Q1211 935 1200.5 945.5Q1190 956 1190 971Q1190 985 1201.0 995.5Q1212 1006 1226 1006Q1240 1006 1251.0 995.5Q1262 985 1262 971ZM1262 827Q1262 812 1251.5 801.5Q1241 791 1226 791Q1211 791 1200.5 801.5Q1190 812 1190 827Q1190 842 1200.5 852.5Q1211 863 1226 863Q1241 863 1251.5 852.5Q1262 842 1262 827ZM1262 683Q1262 668 1251.5 657.5Q1241 647 1226 647Q1211 647 1200.5 657.5Q1190 668 1190 683Q1190 698 1200.5 708.5Q1211 719 1226 719Q1241 719 1251.5 708.5Q1262 698 1262 683ZM1406 539Q1406 524 1395.5 513.5Q1385 503 1370 503Q1355 503 1344.5 513.5Q1334 524 1334 539Q1334 554 1344.5 564.5Q1355 575 1370 575Q1385 575 1395.5 564.5Q1406 554 1406 539ZM1550 396Q1550 381 1539.5 370.5Q1529 360 1514 360Q1499 360 1488.5 370.5Q1478 381 1478 396Q1478 410 1489.0 420.5Q1500 431 1514 431Q1528 431 1539.0 420.5Q1550 410 1550 396ZM1047 791H400V1006Q400 1036 421.0 1057.0Q442 1078 472 1078H1118V863Q1118 834 1097.0 812.5Q1076 791 1047 791Z" style="fill:#383838;stroke:none" transform="scale(1,-1) translate(0,-256)" /></svg>