<?xml version="1.0" encoding="utf-8" ?>
<svg baseProfile="full" height="256" version="1.1" width="256" xmlns="http://www.w3.org/2000/svg" xmlns:ev="http://www.w3.org/2001/xml-events" xmlns:xlink="http://www.w3.org/1999/xlink"><defs /><path d="M1226 863H1334Q1349 863 1359.5 852.5Q1370 842 1370 827Q1370 812 1359.5 801.5Q1349 791 1334 791H1226ZM1226 719H1334Q1349 719 1359.5 708.5Q1370 698 1370 683Q1370 668 1359.5 657.5Q1349 647 1334 647H1226ZM1226 1006H1334Q1348 1006 1359.0 995.5Q1370 985 1370 971Q1370 956 1359.5 945.5Q1349 935 1334 935H1226ZM1488 421 1560 493Q1570 503 1585 503Q1600 503 1610.5 492.5Q1621 482 1621 467Q1621 452 1611 442L1539 370ZM1345 565 1416 637Q1426 647 1442 647Q1457 647 1467.0 636.5Q1477 626 1477 611Q1477 596 1467 586L1395 514Z" style="fill:#ffb900;stroke:none" transform="scale(1,-1) translate(0,-256)" /></svg>