<?xml version="1.0" encoding="utf-8" ?>
<svg baseProfile="full" height="256" version="1.1" width="256" xmlns="http://www.w3.org/2000/svg" xmlns:ev="http://www.w3.org/2001/xml-events" xmlns:xlink="http://www.w3.org/1999/xlink"><defs /><path d="M1837 1869V1581Q1837 1552 1858.5 1531.0Q1880 1510 1909 1510H2125Q2199 1510 2264.5 1481.5Q2330 1453 2378.5 1404.0Q2427 1355 2455.5 1289.5Q2484 1224 2484 1150V955Q2519 903 2537.5 842.5Q2556 782 2556 719V110L2285 -431H1820Q1895 -282 1969.5 -134.0Q2044 14 2116 165L1837 -67V-287H1406V48L1493 164Q1440 150 1386.5 147.0Q1333 144 1279 144L992 -431H526L694 -96L535 63Q504 94 488.0 133.0Q472 172 472 216V503Q472 548 489.0 587.0Q506 626 535.0 655.5Q564 685 603.0 702.0Q642 719 687 719H814L763 821Q721 773 664.0 746.0Q607 719 543 719Q484 719 431.5 741.5Q379 764 340.0 803.0Q301 842 278.5 894.5Q256 947 256 1006Q256 1015 256.5 1031.5Q257 1048 260 1056Q264 1069 275.5 1086.0Q287 1103 295 1115Q311 1141 325.5 1168.0Q340 1195 353 1223Q381 1285 398.0 1343.0Q415 1401 439.0 1452.5Q463 1504 502.5 1547.0Q542 1590 615 1623V1725Q640 1725 664.5 1725.5Q689 1726 714 1726Q780 1726 838.5 1712.5Q897 1699 948 1653H1334V1510H1478V1653Q1478 1697 1495.0 1736.5Q1512 1776 1541.0 1805.5Q1570 1835 1609.5 1852.0Q1649 1869 1693 1869Z" style="fill:#000000;stroke:none" transform="scale(1,-1) translate(0,-256)" /></svg>