<?xml version="1.0" encoding="utf-8" ?>
<svg baseProfile="full" height="256" version="1.1" width="256" xmlns="http://www.w3.org/2000/svg" xmlns:ev="http://www.w3.org/2001/xml-events" xmlns:xlink="http://www.w3.org/1999/xlink"><defs /><path d="M1406 1366Q1406 1328 1395.5 1291.5Q1385 1255 1366 1222H1550Q1550 1162 1527.5 1110.0Q1505 1058 1466.0 1019.0Q1427 980 1374.5 957.5Q1322 935 1262 935L831 1366H557Q569 1398 589.0 1424.5Q609 1451 635.5 1470.0Q662 1489 693.0 1499.5Q724 1510 759 1510H1190Q1190 1472 1180.0 1435.0Q1170 1398 1150 1366ZM1693 1725V1581Q1693 1536 1710.0 1497.0Q1727 1458 1756.5 1429.0Q1786 1400 1825.0 1383.0Q1864 1366 1909 1366H2125Q2170 1366 2209.0 1349.0Q2248 1332 2277.0 1302.5Q2306 1273 2323.0 1234.0Q2340 1195 2340 1150V899H2268V935Q2268 980 2251.0 1019.0Q2234 1058 2205.0 1087.0Q2176 1116 2137.0 1133.0Q2098 1150 2053 1150H1837Q1792 1150 1753.0 1167.0Q1714 1184 1685.0 1213.5Q1656 1243 1639.0 1282.0Q1622 1321 1622 1366V1653Q1622 1682 1643.0 1703.5Q1664 1725 1693 1725Z" style="fill:#8e562e;stroke:none" transform="scale(1,-1) translate(0,-256)" /></svg>