<?xml version="1.0" encoding="utf-8" ?>
<svg baseProfile="full" height="256" version="1.1" width="256" xmlns="http://www.w3.org/2000/svg" xmlns:ev="http://www.w3.org/2001/xml-events" xmlns:xlink="http://www.w3.org/1999/xlink"><defs /><path d="M1406 1006H2125Q2184 1006 2236.5 983.5Q2289 961 2328.0 922.0Q2367 883 2389.5 830.5Q2412 778 2412 719V144L2197 -287H2053Q2114 -167 2173.0 -48.0Q2232 71 2292 192L1873 611Q1811 549 1755.0 491.0Q1699 433 1637.5 388.0Q1576 343 1503.0 315.5Q1430 288 1334 288H1190L903 -287H759Q832 -143 903.5 0.0Q975 143 1047 288V575L831 1006Q798 1003 764 1003Q639 1003 521 1028L512 1182L687 1367Q703 1384 720.5 1397.0Q738 1410 759 1420V1581Q789 1581 815.0 1570.0Q841 1559 860.5 1539.5Q880 1520 891.5 1494.0Q903 1468 903 1438Z" style="fill:#f7894a;stroke:none" transform="scale(1,-1) translate(0,-256)" /></svg>