<?xml version="1.0" encoding="utf-8" ?>
<svg baseProfile="full" height="256" version="1.1" width="256" xmlns="http://www.w3.org/2000/svg" xmlns:ev="http://www.w3.org/2001/xml-events" xmlns:xlink="http://www.w3.org/1999/xlink"><defs /><path d="M2340 755 2304 791 2197 683 2304 575 2340 611V324L2304 360L2197 252L2304 144L2340 180V-235H2300Q2291 -178 2263.0 -128.5Q2235 -79 2191 -41L2268 36L2161 144L2053 36L2063 25Q2043 31 2022.0 33.5Q2001 36 1981 36L1873 144L1765 36H1693L1586 144L1478 36H1334L1226 144L1118 36H1047L939 144L831 36Q790 36 748 25L759 36L651 144L543 36L621 -41Q576 -79 549.0 -128.5Q522 -178 512 -235H472V180L508 144L615 252L508 360L472 324V611L508 575L615 683L508 791L472 755V827Q472 881 501.0 925.5Q530 970 580 992Q584 1048 608.5 1096.5Q633 1145 671.5 1181.0Q710 1217 760.5 1237.5Q811 1258 867 1258H1945Q2001 1258 2051.5 1237.5Q2102 1217 2140.5 1181.0Q2179 1145 2203.5 1096.5Q2228 1048 2232 992Q2282 970 2311.0 925.5Q2340 881 2340 827ZM1550 683 1442 791 1406 755 1370 791 1262 683 1370 575 1406 611 1442 575ZM1370 1222 1262 1114 1370 1006 1406 1042 1442 1006 1550 1114 1442 1222 1406 1186ZM1442 144 1550 252 1442 360 1406 324 1370 360 1262 252 1370 144 1406 180ZM2017 1222 1909 1114 2017 1006 2125 1114ZM795 144 903 252 795 360 687 252ZM2125 683 2017 791 1909 683 2017 575ZM2017 144 2125 252 2017 360 1909 252ZM903 683 795 791 687 683 795 575ZM795 1222 687 1114 795 1006 903 1114ZM831 467 939 360 1047 467 939 575ZM1729 144 1837 252 1729 360 1622 252ZM543 467 651 360 759 467 651 575ZM1765 467 1873 360 1981 467 1873 575ZM1190 683 1083 791 975 683 1083 575ZM1981 899 1873 1006 1765 899 1873 791ZM543 899 651 791 759 899 651 1006ZM1047 899 939 1006 831 899 939 791ZM1837 683 1729 791 1622 683 1729 575ZM1334 899 1226 1006 1118 899 1226 791ZM1083 144 1190 252 1083 360 975 252ZM1083 1222 975 1114 1083 1006 1190 1114ZM1118 467 1226 360 1334 467 1226 575ZM1729 1222 1622 1114 1729 1006 1837 1114ZM1478 467 1586 360 1693 467 1586 575ZM2268 467 2161 575 2053 467 2161 360ZM2161 791 2268 899 2161 1006 2053 899ZM1693 899 1586 1006 1478 899 1586 791Z" style="fill:#757575;stroke:none" transform="scale(1,-1) translate(0,-256)" /></svg>