<?xml version="1.0" encoding="utf-8" ?>
<svg baseProfile="full" height="256" version="1.1" width="256" xmlns="http://www.w3.org/2000/svg" xmlns:ev="http://www.w3.org/2001/xml-events" xmlns:xlink="http://www.w3.org/1999/xlink"><defs /><path d="M1478 72H1981Q2068 72 2142.0 34.5Q2216 -3 2268 -72Q2274 -80 2282.5 -92.0Q2291 -104 2298.5 -117.0Q2306 -130 2311.0 -143.5Q2316 -157 2316 -167Q2316 -181 2311.5 -197.0Q2307 -213 2299.5 -229.5Q2292 -246 2283.5 -261.0Q2275 -276 2268 -287Q2268 -228 2245.5 -175.5Q2223 -123 2184.0 -84.0Q2145 -45 2092.5 -22.5Q2040 0 1981 0H831Q772 0 719.5 -22.5Q667 -45 628.0 -84.0Q589 -123 566.0 -175.5Q543 -228 543 -287Q535 -275 527.0 -260.0Q519 -245 512.0 -229.0Q505 -213 500.5 -197.0Q496 -181 496 -167Q496 -157 501.0 -144.0Q506 -131 513.5 -117.5Q521 -104 529.0 -92.0Q537 -80 543 -72Q596 -3 670.0 34.5Q744 72 831 72H1334V1222H831Q786 1222 747.0 1205.0Q708 1188 678.5 1158.5Q649 1129 632.0 1090.0Q615 1051 615 1006H543Q543 1066 565.5 1118.5Q588 1171 627.0 1210.0Q666 1249 718.5 1271.5Q771 1294 831 1294H1981Q2041 1294 2093.5 1271.5Q2146 1249 2184.5 1210.0Q2223 1171 2245.5 1118.5Q2268 1066 2268 1006H2197Q2197 1051 2180.0 1090.0Q2163 1129 2133.5 1158.5Q2104 1188 2065.0 1205.0Q2026 1222 1981 1222H1478Z" style="fill:#a6a6a6;stroke:none" transform="scale(1,-1) translate(0,-256)" /></svg>