<?xml version="1.0" encoding="utf-8" ?>
<svg baseProfile="full" height="256" version="1.1" width="256" xmlns="http://www.w3.org/2000/svg" xmlns:ev="http://www.w3.org/2001/xml-events" xmlns:xlink="http://www.w3.org/1999/xlink"><defs /><path d="M2412 -287H2268V827Q2268 849 2259.5 868.5Q2251 888 2236.5 903.0Q2222 918 2202.5 926.5Q2183 935 2161 935H651Q629 935 609.5 926.5Q590 918 575.0 903.0Q560 888 551.5 868.5Q543 849 543 827V-287H400V827Q400 879 419.5 925.0Q439 971 473.0 1005.0Q507 1039 552.5 1058.5Q598 1078 651 1078H2161Q2213 1078 2259.0 1058.5Q2305 1039 2339.0 1005.0Q2373 971 2392.5 925.0Q2412 879 2412 827Z" style="fill:#f03a17;stroke:none" transform="scale(1,-1) translate(0,-256)" /></svg>