<?xml version="1.0" encoding="utf-8" ?>
<svg baseProfile="full" height="256" version="1.1" width="256" xmlns="http://www.w3.org/2000/svg" xmlns:ev="http://www.w3.org/2001/xml-events" xmlns:xlink="http://www.w3.org/1999/xlink"><defs /><path d="M2388 1150Q2467 1094 2511.5 1009.0Q2556 924 2556 827V-431H2125V-287Q2125 -257 2113.5 -231.0Q2102 -205 2082.5 -185.5Q2063 -166 2037.0 -155.0Q2011 -144 1981 -144H831Q801 -144 775.0 -155.0Q749 -166 729.5 -185.5Q710 -205 698.5 -231.0Q687 -257 687 -287V-431H256V827Q256 924 300.5 1009.0Q345 1094 424 1150Q447 1215 487.5 1268.0Q528 1321 581.5 1359.0Q635 1397 698.5 1417.5Q762 1438 831 1438H1981Q2050 1438 2113.5 1417.5Q2177 1397 2230.5 1359.0Q2284 1321 2324.5 1268.0Q2365 1215 2388 1150Z" style="fill:#000000;stroke:none" transform="scale(1,-1) translate(0,-256)" /></svg>