<?xml version="1.0" encoding="utf-8" ?>
<svg baseProfile="full" height="256" version="1.1" width="256" xmlns="http://www.w3.org/2000/svg" xmlns:ev="http://www.w3.org/2001/xml-events" xmlns:xlink="http://www.w3.org/1999/xlink"><defs /><path d="M2314 1484Q2340 1427 2340 1366Q2340 1306 2317.5 1253.5Q2295 1201 2256.0 1162.0Q2217 1123 2165.0 1100.5Q2113 1078 2053 1078Q2022 1078 1988 1086L1039 137Q1047 103 1047 72Q1047 12 1024.5 -40.0Q1002 -92 963.0 -131.0Q924 -170 871.5 -192.5Q819 -215 759 -215Q699 -215 641 -190L831 0V72L759 144H687L497 -46Q472 12 472 72Q472 132 494.5 184.5Q517 237 556.0 276.0Q595 315 647.0 337.5Q699 360 759 360Q790 360 824 352L1773 1301Q1765 1335 1765 1366Q1765 1426 1787.5 1478.0Q1810 1530 1849.0 1569.0Q1888 1608 1940.5 1630.5Q1993 1653 2053 1653Q2114 1653 2171 1627L1981 1438V1366L2053 1294H2125Z" style="fill:#e5e5e5;stroke:none" transform="scale(1,-1) translate(0,-256)" /></svg>