<?xml version="1.0" encoding="utf-8" ?>
<svg baseProfile="full" height="256" version="1.1" width="256" xmlns="http://www.w3.org/2000/svg" xmlns:ev="http://www.w3.org/2001/xml-events" xmlns:xlink="http://www.w3.org/1999/xlink"><defs /><path d="M2226 -359Q2183 -359 2143.5 -342.5Q2104 -326 2074 -296L1442 336L1190 84Q1190 -8 1157.5 -88.5Q1125 -169 1067.5 -229.0Q1010 -289 931.0 -324.0Q852 -359 759 -359Q670 -359 591.5 -325.0Q513 -291 454.5 -232.5Q396 -174 362.0 -95.5Q328 -17 328 72Q328 165 363.0 244.0Q398 323 458.0 380.5Q518 438 598.5 470.5Q679 503 771 503L1059 791L1011 839L965 793L900 872L738 710Q708 680 668.0 663.5Q628 647 586 647Q498 647 433 710L319 824Q256 889 256 977Q256 1020 272.5 1059.5Q289 1099 319 1129L484 1294H552L557 1312Q543 1346 543 1381Q543 1418 556.5 1450.0Q570 1482 596 1508L689 1601Q743 1653 816 1653Q833 1653 850 1650Q988 1756 1145.5 1812.5Q1303 1869 1478 1869H1622V1725Q1622 1680 1605.0 1641.0Q1588 1602 1558.5 1573.0Q1529 1544 1490.0 1527.0Q1451 1510 1406 1510Q1376 1510 1350.0 1498.5Q1324 1487 1304.5 1467.5Q1285 1448 1273.5 1422.0Q1262 1396 1262 1366Q1262 1354 1268.0 1347.0Q1274 1340 1282 1333L1404 1232L1358 1186L1406 1138L1622 1354Q1622 1445 1654.5 1526.0Q1687 1607 1744.5 1667.0Q1802 1727 1881.0 1762.0Q1960 1797 2053 1797Q2142 1797 2220.5 1763.0Q2299 1729 2357.5 1670.5Q2416 1612 2450.0 1533.5Q2484 1455 2484 1366Q2484 1273 2449.0 1194.0Q2414 1115 2354.0 1057.5Q2294 1000 2213.0 967.5Q2132 935 2041 935L1861 755L2493 123Q2523 93 2539.5 53.0Q2556 13 2556 -30Q2556 -73 2539.5 -112.5Q2523 -152 2493 -182L2379 -296Q2314 -359 2226 -359Z" style="fill:#000000;stroke:none" transform="scale(1,-1) translate(0,-256)" /></svg>