<?xml version="1.0" encoding="utf-8" ?>
<svg baseProfile="full" height="256" version="1.1" width="256" xmlns="http://www.w3.org/2000/svg" xmlns:ev="http://www.w3.org/2001/xml-events" xmlns:xlink="http://www.w3.org/1999/xlink"><defs /><path d="M2226 -215Q2197 -215 2176 -194L1550 431Q1540 441 1531.0 461.0Q1522 481 1513.5 503.5Q1505 526 1496.0 546.0Q1487 566 1478 575L698 1355Q687 1366 687 1380Q687 1395 698 1406L791 1499Q801 1509 816 1509Q831 1509 841 1499L1622 719Q1635 706 1654.0 698.0Q1673 690 1693.5 683.0Q1714 676 1733.0 668.0Q1752 660 1765 647L2391 21Q2412 0 2412 -30Q2412 -59 2391 -80L2277 -194Q2256 -215 2226 -215Z" style="fill:#eba300;stroke:none" transform="scale(1,-1) translate(0,-256)" /></svg>