<?xml version="1.0" encoding="utf-8" ?>
<svg baseProfile="full" height="256" version="1.1" width="256" xmlns="http://www.w3.org/2000/svg" xmlns:ev="http://www.w3.org/2001/xml-events" xmlns:xlink="http://www.w3.org/1999/xlink"><defs /><path d="M2172 575H2556V-431H436Q398 -431 365.5 -417.0Q333 -403 308.5 -378.5Q284 -354 270.0 -321.5Q256 -289 256 -251Q256 -203 276.0 -170.0Q296 -137 328 -105V-12L456 116Q429 154 414.5 197.5Q400 241 400 288Q400 345 421.5 397.5Q443 450 484 491L915 922Q956 963 1008.5 984.5Q1061 1006 1118 1006H1346L1909 1569L2256 1222L1891 857Z" style="fill:#000000;stroke:none" transform="scale(1,-1) translate(0,-256)" /></svg>