<?xml version="1.0" encoding="utf-8" ?>
<svg baseProfile="full" height="256" version="1.1" width="256" xmlns="http://www.w3.org/2000/svg" xmlns:ev="http://www.w3.org/2001/xml-events" xmlns:xlink="http://www.w3.org/1999/xlink"><defs /><path d="M1837 503Q1849 503 1877.0 493.0Q1905 483 1937.5 470.0Q1970 457 2001.5 446.0Q2033 435 2053 432Q2061 431 2068.5 430.5Q2076 430 2084 430Q2095 430 2104.5 430.5Q2114 431 2125 431H2412V-287H831Q801 -287 775.0 -276.0Q749 -265 729.5 -245.5Q710 -226 698.5 -200.0Q687 -174 687 -144Q687 -114 698.5 -88.0Q710 -62 729.5 -42.5Q749 -23 775.0 -11.5Q801 0 831 0H1118Q1179 0 1231.5 22.5Q1284 45 1322.0 84.0Q1360 123 1382.0 175.5Q1404 228 1406 288Q1406 299 1406.5 308.5Q1407 318 1407 329Q1407 348 1404.5 366.5Q1402 385 1394.5 399.0Q1387 413 1373.0 422.0Q1359 431 1336 431L1363 494Q1482 496 1600.0 499.5Q1718 503 1837 503Z" style="fill:#ffc83d;stroke:none" transform="scale(1,-1) translate(0,-256)" /></svg>