<?xml version="1.0" encoding="utf-8" ?>
<svg baseProfile="full" height="256" version="1.1" width="256" xmlns="http://www.w3.org/2000/svg" xmlns:ev="http://www.w3.org/2001/xml-events" xmlns:xlink="http://www.w3.org/1999/xlink"><defs /><path d="M1190 1510Q1219 1510 1240.5 1488.5Q1262 1467 1262 1438Q1262 1408 1241.0 1387.0Q1220 1366 1190 1366Q1103 1366 1021.5 1337.0Q940 1308 873 1253Q856 1239 842.0 1224.5Q828 1210 813 1195Q789 1171 759 1171Q729 1171 708.0 1192.5Q687 1214 687 1243Q687 1268 705 1291Q748 1343 804.5 1384.0Q861 1425 924.0 1453.0Q987 1481 1055.0 1495.5Q1123 1510 1190 1510ZM1622 1510Q1689 1510 1757.0 1495.5Q1825 1481 1888.0 1453.0Q1951 1425 2007.0 1384.0Q2063 1343 2107 1291Q2125 1268 2125 1243Q2125 1214 2104.0 1192.5Q2083 1171 2054 1171Q2023 1171 1999 1195Q1984 1210 1970.0 1224.5Q1956 1239 1939 1253Q1872 1308 1790.5 1337.0Q1709 1366 1622 1366Q1592 1366 1571.0 1387.0Q1550 1408 1550 1438Q1550 1467 1571.5 1488.5Q1593 1510 1622 1510Z" style="fill:#d48c00;stroke:none" transform="scale(1,-1) translate(0,-256)" /></svg>