<?xml version="1.0" encoding="utf-8" ?>
<svg baseProfile="full" height="256" version="1.1" width="256" xmlns="http://www.w3.org/2000/svg" xmlns:ev="http://www.w3.org/2001/xml-events" xmlns:xlink="http://www.w3.org/1999/xlink"><defs /><path d="M2179 899Q2179 821 2149.0 752.5Q2119 684 2067.5 632.5Q2016 581 1947.5 551.0Q1879 521 1801 521Q1738 521 1682.0 545.0Q1626 569 1585.0 610.5Q1544 652 1520.0 708.0Q1496 764 1496 827Q1496 883 1517.0 932.0Q1538 981 1574.5 1017.5Q1611 1054 1660.0 1075.0Q1709 1096 1765 1096Q1806 1096 1842.0 1080.5Q1878 1065 1905.0 1038.5Q1932 1012 1947.5 976.0Q1963 940 1963 899Q1963 866 1950.5 836.5Q1938 807 1916.0 785.0Q1894 763 1864.5 750.0Q1835 737 1802 737Q1787 737 1768.5 742.0Q1750 747 1734.0 756.5Q1718 766 1707.0 780.0Q1696 794 1696 812Q1696 835 1712.0 850.5Q1728 866 1750 866Q1762 866 1769.5 862.5Q1777 859 1782.0 855.5Q1787 852 1791.0 848.5Q1795 845 1801 845Q1824 845 1839.5 860.5Q1855 876 1855 899Q1855 937 1829.0 962.5Q1803 988 1765 988Q1732 988 1702.5 975.5Q1673 963 1651.0 941.0Q1629 919 1616.5 889.5Q1604 860 1604 827Q1604 786 1619.5 750.0Q1635 714 1661.5 687.0Q1688 660 1724.0 644.5Q1760 629 1801 629Q1857 629 1906.0 650.0Q1955 671 1992.0 708.0Q2029 745 2050.0 794.0Q2071 843 2071 899Q2071 934 2064.0 967.0Q2057 1000 2044 1032Q2040 1041 2040 1053Q2040 1076 2056.0 1091.0Q2072 1106 2094 1106Q2127 1106 2143 1074Q2162 1036 2170.5 988.5Q2179 941 2179 899ZM1011 1132Q1074 1132 1129.5 1108.0Q1185 1084 1226.5 1042.5Q1268 1001 1292.0 945.5Q1316 890 1316 827Q1316 771 1295.0 722.0Q1274 673 1237.5 636.0Q1201 599 1152.0 578.0Q1103 557 1047 557Q1006 557 970.0 572.5Q934 588 907.0 615.0Q880 642 864.5 678.0Q849 714 849 755Q849 788 861.5 817.5Q874 847 895.5 869.0Q917 891 946.5 904.0Q976 917 1010 917Q1025 917 1043.5 912.0Q1062 907 1078.0 897.5Q1094 888 1105.0 874.0Q1116 860 1116 842Q1116 820 1100.0 803.5Q1084 787 1061 787Q1038 787 1023 804Q1020 806 1017.5 807.5Q1015 809 1011 809Q988 809 972.5 793.5Q957 778 957 755Q957 717 983.0 691.0Q1009 665 1047 665Q1080 665 1109.5 678.0Q1139 691 1161.0 713.0Q1183 735 1195.5 764.5Q1208 794 1208 827Q1208 868 1192.5 904.0Q1177 940 1150.5 966.5Q1124 993 1088.0 1008.5Q1052 1024 1011 1024Q955 1024 906.0 1003.0Q857 982 820.0 945.5Q783 909 762.0 860.0Q741 811 741 755Q741 719 748.0 687.0Q755 655 768 622Q772 613 772 601Q772 579 756.5 563.0Q741 547 719 547Q702 547 689.5 556.0Q677 565 669 580Q650 618 641.5 665.5Q633 713 633 755Q633 833 663.0 902.0Q693 971 744.0 1022.0Q795 1073 864.0 1102.5Q933 1132 1011 1132ZM1190 216Q1190 261 1207.0 300.0Q1224 339 1253.5 368.0Q1283 397 1322.0 414.0Q1361 431 1406 431Q1451 431 1490.0 414.0Q1529 397 1558.5 368.0Q1588 339 1605.0 300.0Q1622 261 1622 216V144Q1622 99 1605.0 60.0Q1588 21 1558.5 -8.5Q1529 -38 1490.0 -55.0Q1451 -72 1406 -72Q1361 -72 1322.0 -55.0Q1283 -38 1253.5 -8.5Q1224 21 1207.0 60.0Q1190 99 1190 144Z" style="fill:#000000;stroke:none" transform="scale(1,-1) translate(0,-256)" /></svg>