<?xml version="1.0" encoding="utf-8" ?>
<svg baseProfile="full" height="256" version="1.1" width="256" xmlns="http://www.w3.org/2000/svg" xmlns:ev="http://www.w3.org/2001/xml-events" xmlns:xlink="http://www.w3.org/1999/xlink"><defs /><path d="M609 1653H508Q493 1653 482.5 1642.5Q472 1632 472 1617Q472 1597 483.0 1591.0Q494 1585 507.5 1581.5Q521 1578 532.0 1571.5Q543 1565 543 1546Q543 1532 532.5 1521.0Q522 1510 508 1510Q486 1510 466.5 1518.5Q447 1527 432.0 1541.0Q417 1555 408.5 1574.5Q400 1594 400 1617Q400 1639 408.5 1659.0Q417 1679 431.5 1693.5Q446 1708 465.5 1716.5Q485 1725 508 1725Q542 1725 570.0 1705.0Q598 1685 609 1653ZM824 1653H723Q708 1653 697.5 1642.5Q687 1632 687 1617Q687 1597 698.0 1591.0Q709 1585 722.5 1581.5Q736 1578 747.5 1571.5Q759 1565 759 1546Q759 1531 748.5 1520.5Q738 1510 723 1510Q701 1510 681.5 1518.5Q662 1527 647.0 1541.5Q632 1556 623.5 1575.5Q615 1595 615 1617Q615 1639 623.5 1658.5Q632 1678 647.0 1693.0Q662 1708 681.5 1716.5Q701 1725 723 1725Q757 1725 785.0 1705.0Q813 1685 824 1653ZM1040 1653H939Q924 1653 913.5 1642.5Q903 1632 903 1617Q903 1597 914.0 1591.0Q925 1585 938.5 1581.5Q952 1578 963.5 1571.5Q975 1565 975 1546Q975 1531 964.5 1520.5Q954 1510 939 1510Q917 1510 897.5 1518.5Q878 1527 863.0 1541.0Q848 1555 839.5 1574.5Q831 1594 831 1617Q831 1639 839.5 1659.0Q848 1679 862.5 1693.5Q877 1708 896.5 1716.5Q916 1725 939 1725Q974 1725 1001.5 1705.0Q1029 1685 1040 1653ZM1256 1653H1154Q1140 1653 1129.0 1642.0Q1118 1631 1118 1617Q1118 1597 1129.0 1591.0Q1140 1585 1153.5 1581.5Q1167 1578 1178.5 1571.5Q1190 1565 1190 1546Q1190 1531 1179.5 1520.5Q1169 1510 1154 1510Q1132 1510 1112.5 1518.5Q1093 1527 1078.5 1541.5Q1064 1556 1055.5 1575.5Q1047 1595 1047 1617Q1047 1639 1055.5 1658.5Q1064 1678 1078.0 1693.0Q1092 1708 1111.5 1716.5Q1131 1725 1154 1725Q1189 1725 1217.0 1705.0Q1245 1685 1256 1653ZM1471 1653H1370Q1355 1653 1344.5 1642.5Q1334 1632 1334 1617Q1334 1597 1345.0 1591.0Q1356 1585 1369.5 1581.5Q1383 1578 1394.5 1571.5Q1406 1565 1406 1546Q1406 1531 1395.5 1520.5Q1385 1510 1370 1510Q1348 1510 1328.5 1518.5Q1309 1527 1294.0 1541.0Q1279 1555 1270.5 1574.5Q1262 1594 1262 1617Q1262 1639 1270.5 1659.0Q1279 1679 1293.5 1693.5Q1308 1708 1327.5 1716.5Q1347 1725 1370 1725Q1405 1725 1432.5 1705.0Q1460 1685 1471 1653ZM1687 1653H1586Q1571 1653 1560.5 1642.5Q1550 1632 1550 1617Q1550 1597 1561.0 1591.0Q1572 1585 1585.5 1581.5Q1599 1578 1610.5 1571.5Q1622 1565 1622 1546Q1622 1532 1611.0 1521.0Q1600 1510 1586 1510Q1564 1510 1544.5 1518.5Q1525 1527 1510.0 1541.0Q1495 1555 1486.5 1574.5Q1478 1594 1478 1617Q1478 1639 1486.5 1659.0Q1495 1679 1509.5 1693.5Q1524 1708 1543.5 1716.5Q1563 1725 1586 1725Q1621 1725 1648.5 1705.0Q1676 1685 1687 1653ZM1902 1653H1801Q1786 1653 1775.5 1642.5Q1765 1632 1765 1617Q1765 1597 1776.0 1591.0Q1787 1585 1800.5 1581.5Q1814 1578 1825.5 1571.5Q1837 1565 1837 1546Q1837 1531 1826.5 1520.5Q1816 1510 1801 1510Q1779 1510 1759.5 1518.5Q1740 1527 1725.0 1541.5Q1710 1556 1701.5 1575.5Q1693 1595 1693 1617Q1693 1639 1701.5 1658.5Q1710 1678 1725.0 1693.0Q1740 1708 1759.5 1716.5Q1779 1725 1801 1725Q1835 1725 1863.0 1705.0Q1891 1685 1902 1653ZM1981 1617Q1981 1597 1992.0 1591.0Q2003 1585 2016.5 1581.5Q2030 1578 2041.5 1571.5Q2053 1565 2053 1546Q2053 1531 2042.5 1520.5Q2032 1510 2017 1510Q1995 1510 1975.5 1518.5Q1956 1527 1941.0 1541.0Q1926 1555 1917.5 1574.5Q1909 1594 1909 1617Q1909 1639 1917.5 1659.0Q1926 1679 1940.5 1693.5Q1955 1708 1974.5 1716.5Q1994 1725 2017 1725Q2052 1725 2079.5 1705.0Q2107 1685 2118 1653H2017Q2002 1653 1991.5 1642.5Q1981 1632 1981 1617Z" style="fill:#e5e5e5;stroke:none" transform="scale(1,-1) translate(0,-256)" /></svg>