<?xml version="1.0" encoding="utf-8" ?>
<svg baseProfile="full" height="256" version="1.1" width="256" xmlns="http://www.w3.org/2000/svg" xmlns:ev="http://www.w3.org/2001/xml-events" xmlns:xlink="http://www.w3.org/1999/xlink"><defs /><path d="M1262 719Q1262 656 1236.0 600.5Q1210 545 1163 503Q1211 461 1236.5 406.0Q1262 351 1262 288Q1262 229 1239.0 177.0Q1216 125 1177.0 85.5Q1138 46 1085.5 23.0Q1033 0 975 0Q915 0 862.5 22.5Q810 45 771.0 84.0Q732 123 709.5 175.5Q687 228 687 288H831Q831 258 842.0 231.5Q853 205 872.5 185.5Q892 166 918.5 155.0Q945 144 975 144Q1005 144 1031.0 155.5Q1057 167 1076.5 186.5Q1096 206 1107.0 232.0Q1118 258 1118 288Q1118 318 1107.0 344.0Q1096 370 1076.5 389.5Q1057 409 1031.0 420.0Q1005 431 975 431V575Q1005 575 1031.0 586.5Q1057 598 1076.5 617.5Q1096 637 1107.0 663.0Q1118 689 1118 719Q1118 749 1107.0 775.0Q1096 801 1076.5 820.5Q1057 840 1031.0 851.5Q1005 863 975 863Q945 863 919.0 851.5Q893 840 873.5 820.5Q854 801 842.5 775.0Q831 749 831 719H687Q687 779 709.5 831.0Q732 883 771.0 922.0Q810 961 862.5 983.5Q915 1006 975 1006Q1034 1006 1086.5 983.5Q1139 961 1178.0 922.0Q1217 883 1239.5 830.5Q1262 778 1262 719ZM1550 1006H1693V0H1550V719H1406V863Q1436 863 1462.0 874.0Q1488 885 1507.5 904.5Q1527 924 1538.5 950.0Q1550 976 1550 1006Z" style="fill:#757575;stroke:none" transform="scale(1,-1) translate(0,-256)" /></svg>