<?xml version="1.0" encoding="utf-8" ?>
<svg baseProfile="full" height="256" version="1.1" width="256" xmlns="http://www.w3.org/2000/svg" xmlns:ev="http://www.w3.org/2001/xml-events" xmlns:xlink="http://www.w3.org/1999/xlink"><defs /><path d="M2125 1653V1222L1949 1058H551L400 1222V1617L496 1696L608 1653H622L720 1696L824 1653H837L937 1700L1040 1653H1053L1153 1690Q1162 1687 1178.0 1680.5Q1194 1674 1210.5 1668.0Q1227 1662 1242.0 1657.5Q1257 1653 1265 1653Q1267 1653 1282.0 1658.5Q1297 1664 1314.5 1671.0Q1332 1678 1348.0 1684.0Q1364 1690 1368 1692L1471 1653H1484L1584 1694L1686 1653H1700L1797 1690Q1807 1687 1823.0 1681.0Q1839 1675 1856.0 1668.5Q1873 1662 1888.5 1657.5Q1904 1653 1912 1653Q1914 1653 1929.0 1658.5Q1944 1664 1962.0 1671.0Q1980 1678 1996.0 1684.0Q2012 1690 2016 1692L2118 1653Z" style="fill:#f03a17;stroke:none" transform="scale(1,-1) translate(0,-256)" /></svg>