<?xml version="1.0" encoding="utf-8" ?>
<svg baseProfile="full" height="256" version="1.1" width="256" xmlns="http://www.w3.org/2000/svg" xmlns:ev="http://www.w3.org/2001/xml-events" xmlns:xlink="http://www.w3.org/1999/xlink"><defs /><path d="M1550 1150Q1624 1150 1689.5 1121.5Q1755 1093 1803.5 1044.5Q1852 996 1880.5 930.5Q1909 865 1909 791V719L1654 464Q1652 433 1639.5 409.5Q1627 386 1607.5 369.0Q1588 352 1563.0 340.5Q1538 329 1511 321L1501 329Q1485 342 1468.0 357.0Q1451 372 1437.5 389.0Q1424 406 1415.0 425.5Q1406 445 1406 467Q1406 489 1414.5 509.0Q1423 529 1438 544L1685 791H1406V683Q1406 660 1397.5 640.5Q1389 621 1374.5 606.5Q1360 592 1340.0 583.5Q1320 575 1298 575H1047Q1025 597 1009.5 624.0Q994 651 994 683Q994 715 1009.5 742.0Q1025 769 1047 791H1190V1042Q1190 1064 1198.5 1083.5Q1207 1103 1222.0 1118.0Q1237 1133 1256.5 1141.5Q1276 1150 1298 1150ZM1190 1258Q1190 1221 1176.0 1188.0Q1162 1155 1137.5 1130.5Q1113 1106 1080.5 1092.0Q1048 1078 1011 1078Q954 1078 910.0 1108.0Q866 1138 844 1190Q841 1198 838.0 1206.0Q835 1214 835 1222V1366Q835 1374 838.0 1382.0Q841 1390 844 1398Q866 1450 910.0 1480.0Q954 1510 1011 1510Q1048 1510 1080.5 1496.0Q1113 1482 1137.5 1457.5Q1162 1433 1176.0 1400.0Q1190 1367 1190 1330Z" style="fill:#f03a17;stroke:none" transform="scale(1,-1) translate(0,-256)" /></svg>