<?xml version="1.0" encoding="utf-8" ?>
<svg baseProfile="full" height="256" version="1.1" width="256" xmlns="http://www.w3.org/2000/svg" xmlns:ev="http://www.w3.org/2001/xml-events" xmlns:xlink="http://www.w3.org/1999/xlink"><defs /><path d="M1699 257Q1684 257 1673 268L1494 447Q1483 458 1483 472Q1483 487 1494 498L1765 770Q1763 807 1748.5 837.5Q1734 868 1710.0 890.0Q1686 912 1654.5 923.5Q1623 935 1586 935H1334V755Q1334 740 1323.5 729.5Q1313 719 1298 719Q1283 719 1272.5 729.5Q1262 740 1262 755V971Q1262 985 1273.0 995.5Q1284 1006 1298 1006H1586Q1641 1006 1687.0 987.5Q1733 969 1766.5 935.5Q1800 902 1818.5 856.0Q1837 810 1837 755Q1837 739 1827 729L1570 473L1724 318Q1734 308 1734 293Q1734 279 1723.5 268.0Q1713 257 1699 257Z" style="fill:#ffffff;stroke:none" transform="scale(1,-1) translate(0,-256)" /></svg>