<?xml version="1.0" encoding="utf-8" ?>
<svg baseProfile="full" height="256" version="1.1" width="256" xmlns="http://www.w3.org/2000/svg" xmlns:ev="http://www.w3.org/2001/xml-events" xmlns:xlink="http://www.w3.org/1999/xlink"><defs /><path d="M2247 476Q2316 451 2373.0 406.5Q2430 362 2470.5 304.5Q2511 247 2533.5 178.0Q2556 109 2556 36Q2556 -60 2519.0 -145.0Q2482 -230 2418.5 -293.5Q2355 -357 2270.0 -394.0Q2185 -431 2089 -431Q2016 -431 1951.0 -411.0Q1886 -391 1831.0 -353.5Q1776 -316 1732.5 -263.0Q1689 -210 1659 -144H1334Q1249 -144 1167 -110Q1144 -182 1100.0 -241.0Q1056 -300 997.0 -342.0Q938 -384 868.0 -407.5Q798 -431 723 -431Q626 -431 541.0 -394.5Q456 -358 392.5 -294.5Q329 -231 292.5 -146.0Q256 -61 256 36Q256 151 307.0 250.0Q358 349 452 416Q392 479 360.0 555.0Q328 631 328 719Q328 800 357.5 873.0Q387 946 438.0 1003.5Q489 1061 558.0 1099.0Q627 1137 707 1147Q693 1185 690.0 1222.5Q687 1260 687 1301Q687 1325 688.0 1348.0Q689 1371 694 1395Q705 1452 734.5 1499.0Q764 1546 806.5 1580.5Q849 1615 901.5 1634.0Q954 1653 1011 1653Q1078 1653 1136.5 1627.5Q1195 1602 1239.0 1558.0Q1283 1514 1308.5 1455.5Q1334 1397 1334 1330V1294H1550Q1634 1294 1711.0 1268.5Q1788 1243 1851.5 1195.5Q1915 1148 1961.5 1082.0Q2008 1016 2032 935H2125Q2183 935 2235.5 912.0Q2288 889 2327.0 849.5Q2366 810 2389.0 757.5Q2412 705 2412 647V558Z" style="fill:#000000;stroke:none" transform="scale(1,-1) translate(0,-256)" /></svg>