<?xml version="1.0" encoding="utf-8" ?>
<svg baseProfile="full" height="256" version="1.1" width="256" xmlns="http://www.w3.org/2000/svg" xmlns:ev="http://www.w3.org/2001/xml-events" xmlns:xlink="http://www.w3.org/1999/xlink"><defs /><path d="M1819 575 2120 54Q2122 51 2123.5 45.5Q2125 40 2125 36Q2125 21 2114.5 10.5Q2104 0 2089 0Q2068 0 2058 18L1736 575ZM687 36Q687 40 688.5 45.5Q690 51 692 54L962 521L1024 485L754 18Q749 10 740.5 5.0Q732 0 723 0Q709 0 698.0 11.0Q687 22 687 36Z" style="fill:#d48c00;stroke:none" transform="scale(1,-1) translate(0,-256)" /></svg>