<?xml version="1.0" encoding="utf-8" ?>
<svg baseProfile="full" height="256" version="1.1" width="256" xmlns="http://www.w3.org/2000/svg" xmlns:ev="http://www.w3.org/2001/xml-events" xmlns:xlink="http://www.w3.org/1999/xlink"><defs /><path d="M511 863Q532 874 554.5 880.5Q577 887 601 887Q624 887 645.5 880.5Q667 874 687 863V755Q687 732 695.5 712.5Q704 693 718.5 678.5Q733 664 752.5 655.5Q772 647 795 647H1047V431H759Q699 431 647.0 453.5Q595 476 556.0 515.0Q517 554 494.5 606.5Q472 659 472 719Q472 757 482.0 793.5Q492 830 511 863Z" style="fill:#f2f2f2;stroke:none" transform="scale(1,-1) translate(0,-256)" /></svg>