<?xml version="1.0" encoding="utf-8" ?>
<svg baseProfile="full" height="256" version="1.1" width="256" xmlns="http://www.w3.org/2000/svg" xmlns:ev="http://www.w3.org/2001/xml-events" xmlns:xlink="http://www.w3.org/1999/xlink"><defs /><path d="M1406 863Q1451 863 1490.0 846.0Q1529 829 1558.5 799.5Q1588 770 1605.0 731.0Q1622 692 1622 647V503H994V647Q994 677 1014.0 693.0Q1034 709 1063.5 718.5Q1093 728 1128.0 736.5Q1163 745 1192.5 758.5Q1222 772 1242.0 796.0Q1262 820 1262 862H1280Q1294 862 1323.0 862.5Q1352 863 1406 863ZM1406 360Q1436 360 1462.0 348.5Q1488 337 1507.5 317.5Q1527 298 1538.5 272.0Q1550 246 1550 216Q1550 186 1538.5 160.0Q1527 134 1507.5 114.5Q1488 95 1462.0 83.5Q1436 72 1406 72Q1376 72 1350.0 83.5Q1324 95 1304.5 114.5Q1285 134 1273.5 160.0Q1262 186 1262 216Q1262 246 1273.5 272.0Q1285 298 1304.5 317.5Q1324 337 1350.0 348.5Q1376 360 1406 360ZM2125 791Q2155 791 2181.0 779.5Q2207 768 2226.5 748.5Q2246 729 2257.0 703.0Q2268 677 2268 647L1981 503V791ZM723 144Q745 144 765.0 135.5Q785 127 799.5 112.5Q814 98 822.5 78.0Q831 58 831 36Q831 14 822.5 -5.5Q814 -25 799.0 -40.0Q784 -55 764.5 -63.5Q745 -72 723 -72Q701 -72 681.5 -63.5Q662 -55 647.0 -40.0Q632 -25 623.5 -5.5Q615 14 615 36Q615 58 623.5 77.5Q632 97 647.0 112.0Q662 127 681.5 135.5Q701 144 723 144ZM2089 144Q2111 144 2130.5 135.5Q2150 127 2165.0 112.0Q2180 97 2188.5 77.5Q2197 58 2197 36Q2197 14 2188.5 -5.5Q2180 -25 2165.0 -40.0Q2150 -55 2130.5 -63.5Q2111 -72 2089 -72Q2067 -72 2047.5 -63.5Q2028 -55 2013.0 -40.0Q1998 -25 1989.5 -5.5Q1981 14 1981 36Q1981 58 1989.5 78.0Q1998 98 2012.5 112.5Q2027 127 2046.5 135.5Q2066 144 2089 144Z" style="fill:#cccccc;stroke:none" transform="scale(1,-1) translate(0,-256)" /></svg>