<?xml version="1.0" encoding="utf-8" ?>
<svg baseProfile="full" height="256" version="1.1" width="256" xmlns="http://www.w3.org/2000/svg" xmlns:ev="http://www.w3.org/2001/xml-events" xmlns:xlink="http://www.w3.org/1999/xlink"><defs /><path d="M1654 464 1837 288 1622 0Q1596 14 1576.5 40.0Q1557 66 1557 97Q1557 132 1576.5 162.0Q1596 192 1620 216L1511 321ZM759 683Q759 705 767.5 725.0Q776 745 790.5 759.5Q805 774 824.5 782.5Q844 791 867 791H1047V575H867Q844 575 824.5 583.5Q805 592 790.5 606.5Q776 621 767.5 640.5Q759 660 759 683Z" style="fill:#af0d1a;stroke:none" transform="scale(1,-1) translate(0,-256)" /></svg>