<?xml version="1.0" encoding="utf-8" ?>
<svg baseProfile="full" height="256" version="1.1" width="256" xmlns="http://www.w3.org/2000/svg" xmlns:ev="http://www.w3.org/2001/xml-events" xmlns:xlink="http://www.w3.org/1999/xlink"><defs /><path d="M1316 623H1262Q1218 623 1174.5 621.0Q1131 619 1087 619Q1073 619 1073 633Q1073 657 1075.0 681.0Q1077 705 1077 729V847Q1077 870 1075.0 894.0Q1073 918 1073 941Q1073 957 1087 957Q1131 957 1174.5 955.0Q1218 953 1262 953H1562Q1607 953 1650.0 955.0Q1693 957 1738 957Q1745 957 1747.5 951.5Q1750 946 1750 941Q1750 918 1748.0 894.0Q1746 870 1746 847V729Q1746 705 1748.0 681.0Q1750 657 1750 633Q1750 619 1738 619Q1693 619 1650.0 621.0Q1607 623 1562 623H1462Q1454 600 1444.5 577.5Q1435 555 1424 533H1677Q1725 533 1773.0 535.0Q1821 537 1869 537Q1876 537 1878.5 531.5Q1881 526 1881 521Q1881 495 1879.5 469.0Q1878 443 1878 417V319Q1878 271 1879.5 224.0Q1881 177 1881 129Q1881 115 1869 115H1746Q1736 115 1733.0 123.0Q1730 131 1730 142Q1730 150 1731.0 157.0Q1732 164 1732 169H1094Q1094 161 1095.0 154.0Q1096 147 1096 139Q1096 131 1093.5 119.0Q1091 107 1080 107H957Q949 107 946.0 112.0Q943 117 943 124Q943 193 944.5 262.5Q946 332 946 401Q946 431 944.5 461.0Q943 491 943 521Q943 537 957 537Q1005 537 1052.0 535.0Q1099 533 1147 533H1278Q1289 555 1298.5 577.5Q1308 600 1316 623ZM1061 1158Q1058 1165 1045.5 1188.0Q1033 1211 1019.5 1235.5Q1006 1260 995.5 1279.5Q985 1299 985 1301Q985 1304 1000.5 1311.5Q1016 1319 1036.5 1327.5Q1057 1336 1076.0 1342.0Q1095 1348 1101 1348Q1108 1348 1124.0 1328.5Q1140 1309 1156.5 1284.0Q1173 1259 1185.0 1235.0Q1197 1211 1197 1203Q1197 1199 1181.0 1192.0Q1165 1185 1145.0 1177.5Q1125 1170 1105.5 1164.0Q1086 1158 1080 1155H1612Q1641 1201 1666.0 1249.5Q1691 1298 1702 1352Q1710 1349 1735.0 1343.0Q1760 1337 1787.0 1329.5Q1814 1322 1835.0 1313.5Q1856 1305 1856 1297Q1856 1290 1851.0 1282.5Q1846 1275 1839.0 1267.5Q1832 1260 1825.5 1253.0Q1819 1246 1815 1240L1763 1155H1970Q1972 1156 1976 1156Q1984 1156 1984 1144Q1984 1126 1982.0 1108.0Q1980 1090 1980 1072V1009Q1980 971 1982.0 934.5Q1984 898 1984 860Q1984 846 1969 846H1856Q1840 846 1840 860V1036H984V862Q984 846 968 846H855Q840 846 840 862Q840 899 842.0 935.5Q844 972 844 1009V1062Q844 1082 842.0 1103.0Q840 1124 840 1144Q840 1158 854 1158Q894 1158 933.5 1156.0Q973 1154 1013 1154Q1027 1154 1039.5 1154.5Q1052 1155 1066 1155ZM1094 291H1732V411H1094ZM1215 845V732H1609V845ZM1421 1361Q1425 1361 1433.0 1351.0Q1441 1341 1450.0 1325.5Q1459 1310 1469.0 1291.5Q1479 1273 1487.0 1255.5Q1495 1238 1500.0 1224.5Q1505 1211 1505 1206Q1505 1202 1498.0 1199.5Q1491 1197 1488 1196Q1478 1193 1463.0 1187.0Q1448 1181 1431.5 1175.0Q1415 1169 1400.5 1164.5Q1386 1160 1377 1160Q1371 1160 1368.5 1165.0Q1366 1170 1364 1174Q1361 1179 1350.0 1201.5Q1339 1224 1327.0 1249.5Q1315 1275 1305.5 1295.0Q1296 1315 1296 1316Q1303 1321 1320.5 1329.0Q1338 1337 1357.5 1344.0Q1377 1351 1395.0 1356.0Q1413 1361 1421 1361Z" style="fill:#ffffff;stroke:none" transform="scale(1,-1) translate(0,-256)" /></svg>