<?xml version="1.0" encoding="utf-8" ?>
<svg baseProfile="full" height="256" version="1.1" width="256" xmlns="http://www.w3.org/2000/svg" xmlns:ev="http://www.w3.org/2001/xml-events" xmlns:xlink="http://www.w3.org/1999/xlink"><defs /><path d="M2197 -431Q2137 -431 2082.0 -412.0Q2027 -393 1981.0 -359.0Q1935 -325 1901.5 -277.5Q1868 -230 1851 -172Q1805 -233 1747.5 -281.0Q1690 -329 1623.5 -362.5Q1557 -396 1483.5 -413.5Q1410 -431 1334 -431Q1245 -431 1162.0 -408.0Q1079 -385 1007.5 -342.5Q936 -300 877.0 -241.0Q818 -182 775.5 -110.5Q733 -39 710.0 44.0Q687 127 687 216V254Q591 288 511.5 349.0Q432 410 375.5 490.5Q319 571 287.5 666.0Q256 761 256 863V1438Q256 1527 290.0 1605.5Q324 1684 382.5 1742.5Q441 1801 519.5 1835.0Q598 1869 687 1869H759Q799 1869 836.5 1854.5Q874 1840 903 1814Q925 1834 947.5 1845.0Q970 1856 993.0 1861.5Q1016 1867 1040.0 1868.0Q1064 1869 1090 1869H1118Q1207 1869 1286.0 1835.0Q1365 1801 1423.5 1742.5Q1482 1684 1516.0 1605.5Q1550 1527 1550 1438V863Q1550 761 1518.5 666.0Q1487 571 1430.0 490.5Q1373 410 1293.5 349.0Q1214 288 1118 254V216Q1118 171 1135.0 132.0Q1152 93 1181.5 63.5Q1211 34 1250.0 17.0Q1289 0 1334 0Q1379 0 1418.0 17.0Q1457 34 1486.5 63.5Q1516 93 1533.0 132.0Q1550 171 1550 216V360Q1550 449 1584.0 527.5Q1618 606 1676.5 664.5Q1735 723 1813.5 757.0Q1892 791 1981 791Q2070 791 2148.5 757.0Q2227 723 2285.5 664.5Q2344 606 2378.0 527.5Q2412 449 2412 360V215Q2480 164 2518.0 88.5Q2556 13 2556 -72Q2556 -146 2527.5 -211.5Q2499 -277 2450.5 -326.0Q2402 -375 2336.5 -403.0Q2271 -431 2197 -431ZM687 1222Q687 1177 704.0 1138.0Q721 1099 750.5 1069.5Q780 1040 819.0 1023.0Q858 1006 903 1006Q948 1006 987.0 1023.0Q1026 1040 1055.0 1069.5Q1084 1099 1101.0 1138.0Q1118 1177 1118 1222V1438H1097H1089Q1062 1438 1038.0 1439.0Q1014 1440 991.5 1445.0Q969 1450 947.0 1461.5Q925 1473 903 1493Q880 1473 858.0 1461.5Q836 1450 813.5 1445.0Q791 1440 767.0 1439.0Q743 1438 716 1438H687Z" style="fill:#000000;stroke:none" transform="scale(1,-1) translate(0,-256)" /></svg>