<?xml version="1.0" encoding="utf-8" ?>
<svg baseProfile="full" height="256" version="1.1" width="256" xmlns="http://www.w3.org/2000/svg" xmlns:ev="http://www.w3.org/2001/xml-events" xmlns:xlink="http://www.w3.org/1999/xlink"><defs /><path d="M2268 132V216H2125V132Q2159 144 2196 144Q2233 144 2268 132ZM759 1581H687V1725H759Q789 1725 810.0 1704.0Q831 1683 831 1653Q831 1624 809.5 1602.5Q788 1581 759 1581ZM1047 1581H1118V1725H1047Q1017 1725 996.0 1704.0Q975 1683 975 1653Q975 1624 996.5 1602.5Q1018 1581 1047 1581Z" style="fill:#a6a6a6;stroke:none" transform="scale(1,-1) translate(0,-256)" /></svg>