<?xml version="1.0" encoding="utf-8" ?>
<svg baseProfile="full" height="256" version="1.1" width="256" xmlns="http://www.w3.org/2000/svg" xmlns:ev="http://www.w3.org/2001/xml-events" xmlns:xlink="http://www.w3.org/1999/xlink"><defs /><path d="M1981 647Q2040 647 2092.5 624.5Q2145 602 2184.0 563.0Q2223 524 2245.5 471.5Q2268 419 2268 360L2199 299L2125 360Q2125 390 2113.5 416.0Q2102 442 2082.5 461.5Q2063 481 2037.0 492.0Q2011 503 1981 503Q1951 503 1925.0 492.0Q1899 481 1879.5 461.5Q1860 442 1848.5 416.0Q1837 390 1837 360Q1837 335 1837.5 311.0Q1838 287 1838 264Q1838 201 1831.0 142.0Q1824 83 1798 20Q1769 -50 1721.0 -107.0Q1673 -164 1612.5 -204.0Q1552 -244 1481.0 -265.5Q1410 -287 1334 -287Q1230 -287 1138.0 -247.5Q1046 -208 978.0 -140.0Q910 -72 870.5 20.0Q831 112 831 216V365Q738 378 659.0 422.5Q580 467 522.5 533.5Q465 600 432.5 684.5Q400 769 400 863V935L472 1028L543 935V863Q543 789 571.5 723.5Q600 658 649.0 609.0Q698 560 763.5 531.5Q829 503 903 503Q977 503 1042.5 531.5Q1108 560 1156.5 609.0Q1205 658 1233.5 723.5Q1262 789 1262 863V935L1334 1009L1406 935V863Q1406 770 1373.5 685.0Q1341 600 1283.0 533.5Q1225 467 1146.5 422.5Q1068 378 975 365V216Q975 142 1003.0 76.5Q1031 11 1080.0 -38.0Q1129 -87 1194.5 -115.5Q1260 -144 1334 -144Q1408 -144 1473.5 -115.5Q1539 -87 1587.5 -38.0Q1636 11 1664.5 76.5Q1693 142 1693 216V360Q1693 419 1716.0 471.5Q1739 524 1778.0 563.0Q1817 602 1869.5 624.5Q1922 647 1981 647Z" style="fill:#0078d7;stroke:none" transform="scale(1,-1) translate(0,-256)" /></svg>