<?xml version="1.0" encoding="utf-8" ?>
<svg baseProfile="full" height="256" version="1.1" width="256" xmlns="http://www.w3.org/2000/svg" xmlns:ev="http://www.w3.org/2001/xml-events" xmlns:xlink="http://www.w3.org/1999/xlink"><defs /><path d="M2197 -215Q2167 -215 2141.0 -204.0Q2115 -193 2095.5 -173.5Q2076 -154 2064.5 -128.0Q2053 -102 2053 -72Q2053 -42 2064.0 -16.0Q2075 10 2094.5 29.5Q2114 49 2140.5 60.5Q2167 72 2197 72Q2227 72 2253.0 60.5Q2279 49 2298.5 29.5Q2318 10 2329.0 -16.0Q2340 -42 2340 -72Q2340 -102 2329.0 -128.0Q2318 -154 2298.5 -173.5Q2279 -193 2253.0 -204.0Q2227 -215 2197 -215Z" style="fill:#757575;stroke:none" transform="scale(1,-1) translate(0,-256)" /></svg>