<?xml version="1.0" encoding="utf-8" ?>
<svg baseProfile="full" height="256" version="1.1" width="256" xmlns="http://www.w3.org/2000/svg" xmlns:ev="http://www.w3.org/2001/xml-events" xmlns:xlink="http://www.w3.org/1999/xlink"><defs /><path d="M2268 132Q2300 120 2326.5 100.0Q2353 80 2372.0 53.0Q2391 26 2401.5 -6.0Q2412 -38 2412 -72Q2412 -117 2395.0 -156.0Q2378 -195 2349.0 -224.0Q2320 -253 2281.0 -270.0Q2242 -287 2197 -287Q2152 -287 2113.0 -270.0Q2074 -253 2044.5 -224.0Q2015 -195 1998.0 -156.0Q1981 -117 1981 -72Q1981 -38 1991.5 -6.0Q2002 26 2021.0 53.0Q2040 80 2066.5 100.0Q2093 120 2125 132L2148 174L2125 216V360H2268V216L2242 174L2268 132Z" style="fill:#cccccc;stroke:none" transform="scale(1,-1) translate(0,-256)" /></svg>