<?xml version="1.0" encoding="utf-8" ?>
<svg baseProfile="full" height="256" version="1.1" width="256" xmlns="http://www.w3.org/2000/svg" xmlns:ev="http://www.w3.org/2001/xml-events" xmlns:xlink="http://www.w3.org/1999/xlink"><defs /><path d="M1118 1725Q1178 1725 1230.5 1702.5Q1283 1680 1322.0 1641.0Q1361 1602 1383.5 1550.0Q1406 1498 1406 1438V935H1262V984Q1201 893 1107.5 842.0Q1014 791 904 791Q794 791 699.0 842.0Q604 893 543 984V935H400V1438Q400 1497 422.5 1549.5Q445 1602 484.0 1641.0Q523 1680 575.5 1702.5Q628 1725 687 1725L745 1658L687 1581Q657 1581 631.0 1570.0Q605 1559 585.5 1539.5Q566 1520 554.5 1494.0Q543 1468 543 1438V1222Q543 1148 571.5 1082.5Q600 1017 649.0 968.0Q698 919 763.5 891.0Q829 863 903 863Q977 863 1042.5 891.0Q1108 919 1156.5 968.0Q1205 1017 1233.5 1082.5Q1262 1148 1262 1222V1438Q1262 1468 1250.5 1494.0Q1239 1520 1219.5 1539.5Q1200 1559 1174.0 1570.0Q1148 1581 1118 1581L1070 1658L1118 1725Z" style="fill:#e5e5e5;stroke:none" transform="scale(1,-1) translate(0,-256)" /></svg>