<?xml version="1.0" encoding="utf-8" ?>
<svg baseProfile="full" height="256" version="1.1" width="256" xmlns="http://www.w3.org/2000/svg" xmlns:ev="http://www.w3.org/2001/xml-events" xmlns:xlink="http://www.w3.org/1999/xlink"><defs /><path d="M1406 1078Q1345 1078 1262.0 1082.0Q1179 1086 1086.0 1096.0Q993 1106 897.0 1123.0Q801 1140 715.0 1165.5Q629 1191 558.5 1226.0Q488 1261 446 1307Q428 1327 419.0 1344.0Q410 1361 401 1387L400 1390V1394Q400 1417 405.0 1434.5Q410 1452 423 1471Q459 1523 529.0 1562.5Q599 1602 688.5 1630.0Q778 1658 879.0 1676.5Q980 1695 1077.0 1705.5Q1174 1716 1260.0 1720.5Q1346 1725 1406 1725Q1465 1725 1551.5 1720.5Q1638 1716 1735.5 1705.0Q1833 1694 1934.0 1676.0Q2035 1658 2124.5 1629.5Q2214 1601 2284.0 1562.0Q2354 1523 2389 1471Q2412 1437 2412 1397Q2412 1390 2411 1387Q2402 1362 2392.5 1344.5Q2383 1327 2365 1307Q2322 1260 2251.5 1225.0Q2181 1190 2095.0 1165.0Q2009 1140 1913.5 1123.0Q1818 1106 1725.5 1096.0Q1633 1086 1550.0 1082.0Q1467 1078 1406 1078ZM551 1402Q567 1387 586.5 1374.5Q606 1362 626 1354Q637 1350 651.5 1349.0Q666 1348 677 1346Q861 1320 1043.0 1311.0Q1225 1302 1411 1302Q1594 1302 1772.5 1311.5Q1951 1321 2132 1345Q2146 1347 2159.5 1348.0Q2173 1349 2186 1354Q2205 1362 2225.5 1375.0Q2246 1388 2261 1402Q2259 1403 2258.0 1404.5Q2257 1406 2255 1407Q2202 1444 2136.0 1471.0Q2070 1498 1997.0 1517.5Q1924 1537 1846.0 1549.0Q1768 1561 1691.0 1568.5Q1614 1576 1541.5 1578.5Q1469 1581 1406 1581Q1248 1581 1090.5 1566.0Q933 1551 780 1506Q754 1498 722.5 1487.5Q691 1477 659.5 1464.5Q628 1452 599.5 1436.0Q571 1420 551 1402Z" style="fill:#00bcf2;stroke:none" transform="scale(1,-1) translate(0,-256)" /></svg>