<?xml version="1.0" encoding="utf-8" ?>
<svg baseProfile="full" height="256" version="1.1" width="256" xmlns="http://www.w3.org/2000/svg" xmlns:ev="http://www.w3.org/2001/xml-events" xmlns:xlink="http://www.w3.org/1999/xlink"><defs /><path d="M1406 1725Q1520 1725 1629.0 1700.0Q1738 1675 1837.5 1627.5Q1937 1580 2025.5 1511.0Q2114 1442 2186 1354Q2104 1315 2005.5 1289.5Q1907 1264 1804.0 1249.0Q1701 1234 1598.5 1228.0Q1496 1222 1406 1222Q1316 1222 1213.5 1228.0Q1111 1234 1008.0 1249.0Q905 1264 806.5 1289.5Q708 1315 626 1354Q698 1442 786.5 1511.0Q875 1580 974.5 1627.5Q1074 1675 1183.0 1700.0Q1292 1725 1406 1725Z" style="fill:#ffc83d;stroke:none" transform="scale(1,-1) translate(0,-256)" /></svg>