<?xml version="1.0" encoding="utf-8" ?>
<svg baseProfile="full" height="256" version="1.1" width="256" xmlns="http://www.w3.org/2000/svg" xmlns:ev="http://www.w3.org/2001/xml-events" xmlns:xlink="http://www.w3.org/1999/xlink"><defs /><path d="M1836 496Q1865 496 1886.5 474.5Q1908 453 1908 424Q1908 413 1905.5 405.0Q1903 397 1898 387Q1863 323 1809.0 271.5Q1755 220 1689.0 183.5Q1623 147 1550.5 127.5Q1478 108 1406 108Q1334 108 1261.0 127.5Q1188 147 1122.0 183.5Q1056 220 1001.5 271.5Q947 323 913 387Q908 397 905.5 405.0Q903 413 903 424Q903 453 924.5 474.5Q946 496 975 496Q998 496 1010.5 487.0Q1023 478 1036 461Q1050 444 1062.0 426.0Q1074 408 1088 391Q1116 358 1153.0 332.0Q1190 306 1232.0 288.0Q1274 270 1318.0 261.0Q1362 252 1406 252Q1449 252 1493.5 261.5Q1538 271 1579.5 288.5Q1621 306 1657.5 332.0Q1694 358 1723 391Q1737 408 1749.0 426.0Q1761 444 1775 461Q1788 478 1800.5 487.0Q1813 496 1836 496ZM1190 755Q1190 792 1176.0 825.0Q1162 858 1138.0 882.5Q1114 907 1081.0 921.0Q1048 935 1011 935Q973 935 940.5 921.0Q908 907 883.5 882.5Q859 858 845.0 825.0Q831 792 831 755H759V791Q759 843 779.0 889.0Q799 935 833.0 969.0Q867 1003 913.0 1022.5Q959 1042 1011 1042Q1063 1042 1109.0 1022.5Q1155 1003 1189.0 969.0Q1223 935 1242.5 889.0Q1262 843 1262 791V755ZM1801 1042Q1853 1042 1899.0 1022.5Q1945 1003 1979.0 969.0Q2013 935 2033.0 889.0Q2053 843 2053 791V755H1981Q1981 792 1967.0 825.0Q1953 858 1928.5 882.5Q1904 907 1871.0 921.0Q1838 935 1801 935Q1763 935 1730.5 921.0Q1698 907 1674.0 882.5Q1650 858 1636.0 825.0Q1622 792 1622 755H1550V791Q1550 843 1569.5 889.0Q1589 935 1623.0 969.0Q1657 1003 1702.5 1022.5Q1748 1042 1801 1042Z" style="fill:#000000;stroke:none" transform="scale(1,-1) translate(0,-256)" /></svg>