<?xml version="1.0" encoding="utf-8" ?>
<svg baseProfile="full" height="256" version="1.1" width="256" xmlns="http://www.w3.org/2000/svg" xmlns:ev="http://www.w3.org/2001/xml-events" xmlns:xlink="http://www.w3.org/1999/xlink"><defs /><path d="M2556 1402Q2556 1339 2528.0 1285.5Q2500 1232 2454 1190Q2505 1078 2530.5 959.5Q2556 841 2556 719Q2556 560 2515.0 413.0Q2474 266 2399.0 138.5Q2324 11 2219.0 -94.0Q2114 -199 1986.5 -274.0Q1859 -349 1712.0 -390.0Q1565 -431 1406 -431Q1247 -431 1100.0 -390.0Q953 -349 825.5 -274.0Q698 -199 593.0 -94.0Q488 11 413.0 138.5Q338 266 297.0 413.0Q256 560 256 719Q256 841 281.5 959.5Q307 1078 358 1190Q312 1232 284.0 1285.5Q256 1339 256 1402Q256 1475 292.0 1533.0Q328 1591 386.0 1636.5Q444 1682 518.5 1715.5Q593 1749 670.0 1773.0Q747 1797 820.0 1812.5Q893 1828 949 1836Q1063 1853 1177.0 1861.0Q1291 1869 1406 1869Q1521 1869 1635.0 1861.0Q1749 1853 1863 1836Q1919 1827 1992.0 1812.0Q2065 1797 2142.0 1773.0Q2219 1749 2293.5 1715.5Q2368 1682 2426.0 1636.5Q2484 1591 2520.0 1533.0Q2556 1475 2556 1402Z" style="fill:#000000;stroke:none" transform="scale(1,-1) translate(0,-256)" /></svg>