<?xml version="1.0" encoding="utf-8" ?>
<svg baseProfile="full" height="256" version="1.1" width="256" xmlns="http://www.w3.org/2000/svg" xmlns:ev="http://www.w3.org/2001/xml-events" xmlns:xlink="http://www.w3.org/1999/xlink"><defs /><path d="M1837 863Q1897 863 1949.5 840.5Q2002 818 2041.0 779.0Q2080 740 2102.5 687.5Q2125 635 2125 575Q2125 506 2101.5 451.5Q2078 397 2033 346Q1975 281 1902.5 230.0Q1830 179 1748.0 144.0Q1666 109 1579.0 90.5Q1492 72 1406 72Q1223 72 1063.5 143.0Q904 214 779 346L883 445Q986 336 1120.5 276.0Q1255 216 1406 216Q1495 216 1581.0 238.0Q1667 260 1745 303Q1702 318 1666.0 345.0Q1630 372 1604.5 408.0Q1579 444 1564.5 486.5Q1550 529 1550 575Q1550 633 1573.0 685.5Q1596 738 1635.0 777.5Q1674 817 1726.0 840.0Q1778 863 1837 863ZM1693 575Q1693 545 1704.5 519.0Q1716 493 1735.5 473.5Q1755 454 1781.0 442.5Q1807 431 1837 431Q1867 431 1893.0 442.5Q1919 454 1938.5 473.5Q1958 493 1969.5 519.0Q1981 545 1981 575Q1981 605 1969.5 631.0Q1958 657 1938.5 676.5Q1919 696 1893.0 707.5Q1867 719 1837 719Q1807 719 1781.0 707.5Q1755 696 1735.5 676.5Q1716 657 1704.5 631.0Q1693 605 1693 575ZM1262 863Q1262 804 1239.0 752.0Q1216 700 1177.0 660.5Q1138 621 1085.5 598.0Q1033 575 975 575Q915 575 862.5 597.5Q810 620 771.0 659.0Q732 698 709.5 750.5Q687 803 687 863Q687 932 710.5 986.5Q734 1041 779 1092Q837 1157 909.5 1208.0Q982 1259 1064.0 1294.0Q1146 1329 1233.0 1347.5Q1320 1366 1406 1366Q1589 1366 1748.5 1295.0Q1908 1224 2033 1092L1929 993Q1826 1102 1691.5 1162.0Q1557 1222 1406 1222Q1317 1222 1231.0 1200.0Q1145 1178 1067 1135Q1110 1120 1146.0 1093.0Q1182 1066 1207.5 1030.0Q1233 994 1247.5 951.5Q1262 909 1262 863ZM831 863Q831 833 842.0 806.5Q853 780 872.5 760.5Q892 741 918.5 730.0Q945 719 975 719Q1005 719 1031.0 730.5Q1057 742 1076.5 761.5Q1096 781 1107.0 807.0Q1118 833 1118 863Q1118 893 1107.0 919.0Q1096 945 1076.5 964.5Q1057 984 1031.0 995.0Q1005 1006 975 1006Q945 1006 919.0 995.0Q893 984 873.5 964.5Q854 945 842.5 919.0Q831 893 831 863Z" style="fill:#ffffff;stroke:none" transform="scale(1,-1) translate(0,-256)" /></svg>