<?xml version="1.0" encoding="utf-8" ?>
<svg baseProfile="full" height="256" version="1.1" width="256" xmlns="http://www.w3.org/2000/svg" xmlns:ev="http://www.w3.org/2001/xml-events" xmlns:xlink="http://www.w3.org/1999/xlink"><defs /><path d="M831 0 1478 609V1222Q1448 1237 1421.5 1259.5Q1395 1282 1375.5 1310.5Q1356 1339 1345.0 1371.0Q1334 1403 1334 1438V1510Q1334 1555 1351.0 1594.0Q1368 1633 1397.5 1662.0Q1427 1691 1466.0 1708.0Q1505 1725 1550 1725Q1595 1725 1634.0 1708.0Q1673 1691 1702.0 1662.0Q1731 1633 1748.0 1594.0Q1765 1555 1765 1510V1438Q1765 1404 1753.5 1371.5Q1742 1339 1722.5 1311.0Q1703 1283 1677.0 1260.0Q1651 1237 1622 1222Q1622 1174 1637.5 1134.5Q1653 1095 1681.5 1066.5Q1710 1038 1749.5 1022.0Q1789 1006 1837 1006Q1884 1006 1924.0 1022.0Q1964 1038 1992.5 1066.5Q2021 1095 2037.0 1135.0Q2053 1175 2053 1222Q2023 1237 1996.5 1259.5Q1970 1282 1950.5 1310.5Q1931 1339 1920.0 1371.0Q1909 1403 1909 1438V1510Q1909 1555 1926.0 1594.0Q1943 1633 1972.5 1662.0Q2002 1691 2041.0 1708.0Q2080 1725 2125 1725Q2170 1725 2209.0 1708.0Q2248 1691 2277.0 1662.0Q2306 1633 2323.0 1594.0Q2340 1555 2340 1510V1438Q2340 1404 2328.5 1371.5Q2317 1339 2297.5 1311.0Q2278 1283 2252.0 1260.0Q2226 1237 2197 1222V1006Q2242 1006 2281.0 989.0Q2320 972 2349.0 943.0Q2378 914 2395.0 875.0Q2412 836 2412 791Q2412 746 2395.0 707.0Q2378 668 2349.0 638.5Q2320 609 2281.0 592.0Q2242 575 2197 575V144Q2197 -7 2129.0 -108.5Q2061 -210 1917 -259Q1880 -272 1842.0 -279.5Q1804 -287 1765 -287H400Q422 -215 465.0 -161.0Q508 -107 565.0 -71.0Q622 -35 690.5 -17.5Q759 0 831 0Z" style="fill:#f7b189;stroke:none" transform="scale(1,-1) translate(0,-256)" /></svg>