<?xml version="1.0" encoding="utf-8" ?>
<svg baseProfile="full" height="256" version="1.1" width="256" xmlns="http://www.w3.org/2000/svg" xmlns:ev="http://www.w3.org/2001/xml-events" xmlns:xlink="http://www.w3.org/1999/xlink"><defs /><path d="M1011 863Q1093 863 1165.0 832.0Q1237 801 1290.5 747.0Q1344 693 1375.0 621.0Q1406 549 1406 467Q1406 385 1375.0 313.0Q1344 241 1290.5 187.5Q1237 134 1165.0 103.0Q1093 72 1011 72Q929 72 857.0 103.0Q785 134 731.0 187.5Q677 241 646.0 313.0Q615 385 615 467Q615 549 646.0 621.0Q677 693 731.0 747.0Q785 801 857.0 832.0Q929 863 1011 863ZM1011 360Q1033 360 1052.5 368.5Q1072 377 1086.5 391.5Q1101 406 1109.5 425.5Q1118 445 1118 467Q1118 489 1109.5 508.5Q1101 528 1087.0 543.0Q1073 558 1053.0 566.5Q1033 575 1011 575Q988 575 968.5 566.5Q949 558 934.5 543.5Q920 529 911.5 509.0Q903 489 903 467Q903 444 911.5 424.5Q920 405 935.0 391.0Q950 377 969.5 368.5Q989 360 1011 360Z" style="fill:#8e562e;stroke:none" transform="scale(1,-1) translate(0,-256)" /></svg>