<?xml version="1.0" encoding="utf-8" ?>
<svg baseProfile="full" height="256" version="1.1" width="256" xmlns="http://www.w3.org/2000/svg" xmlns:ev="http://www.w3.org/2001/xml-events" xmlns:xlink="http://www.w3.org/1999/xlink"><defs /><path d="M1838 431H1550Q1550 306 1507.0 201.0Q1464 96 1387.0 19.0Q1310 -58 1204.5 -101.0Q1099 -144 975 -144Q850 -144 744.5 -101.0Q639 -58 562.5 18.5Q486 95 443.0 200.5Q400 306 400 431Q400 529 427.5 615.0Q455 701 504.5 772.5Q554 844 621.5 901.0Q689 958 768.5 997.0Q848 1036 937.5 1057.0Q1027 1078 1119 1078Q1208 1078 1296.5 1056.5Q1385 1035 1464.5 994.5Q1544 954 1612.5 896.5Q1681 839 1731.0 767.0Q1781 695 1809.5 610.5Q1838 526 1838 431Z" style="fill:#613d30;stroke:none" transform="scale(1,-1) translate(0,-256)" /></svg>