<?xml version="1.0" encoding="utf-8" ?>
<svg baseProfile="full" height="256" version="1.1" width="256" xmlns="http://www.w3.org/2000/svg" xmlns:ev="http://www.w3.org/2001/xml-events" xmlns:xlink="http://www.w3.org/1999/xlink"><defs /><path d="M1622 72Q1651 72 1672.0 50.5Q1693 29 1693 0Q1693 -29 1672.0 -50.5Q1651 -72 1622 -72Q1592 -72 1571.0 -51.0Q1550 -30 1550 0Q1550 30 1571.0 51.0Q1592 72 1622 72ZM1873 144Q1895 144 1915.0 135.5Q1935 127 1949.5 112.5Q1964 98 1972.5 78.0Q1981 58 1981 36Q1981 14 1972.5 -5.5Q1964 -25 1949.0 -40.0Q1934 -55 1914.5 -63.5Q1895 -72 1873 -72Q1851 -72 1831.5 -63.5Q1812 -55 1797.0 -40.0Q1782 -25 1773.5 -5.5Q1765 14 1765 36Q1765 58 1773.5 77.5Q1782 97 1797.0 112.0Q1812 127 1831.5 135.5Q1851 144 1873 144ZM1909 216Q1879 216 1858.0 237.0Q1837 258 1837 288Q1837 317 1858.5 338.5Q1880 360 1909 360Q1938 360 1959.5 338.5Q1981 317 1981 288Q1981 258 1960.0 237.0Q1939 216 1909 216Z" style="fill:#f7894a;stroke:none" transform="scale(1,-1) translate(0,-256)" /></svg>