<?xml version="1.0" encoding="utf-8" ?>
<svg baseProfile="full" height="256" version="1.1" width="256" xmlns="http://www.w3.org/2000/svg" xmlns:ev="http://www.w3.org/2001/xml-events" xmlns:xlink="http://www.w3.org/1999/xlink"><defs /><path d="M256 431Q256 549 288.5 653.5Q321 758 379.5 846.0Q438 934 518.5 1004.0Q599 1074 695.0 1122.5Q791 1171 898.5 1196.5Q1006 1222 1119 1222Q1199 1222 1273 1209Q1244 1245 1227.5 1280.0Q1211 1315 1203.0 1351.5Q1195 1388 1192.5 1427.0Q1190 1466 1190 1510Q1190 1584 1218.5 1649.5Q1247 1715 1296.0 1763.5Q1345 1812 1410.5 1840.5Q1476 1869 1550 1869Q1635 1869 1710.5 1831.0Q1786 1793 1837 1725Q1888 1793 1964.0 1831.0Q2040 1869 2125 1869Q2199 1869 2264.5 1840.5Q2330 1812 2378.5 1763.5Q2427 1715 2455.5 1649.5Q2484 1584 2484 1510V1438Q2484 1396 2473.0 1355.0Q2462 1314 2443.0 1276.5Q2424 1239 2397.5 1205.5Q2371 1172 2340 1145V1120Q2389 1099 2429.0 1065.0Q2469 1031 2497.0 988.0Q2525 945 2540.5 894.5Q2556 844 2556 791Q2556 737 2540.5 687.0Q2525 637 2496.5 594.0Q2468 551 2428.5 517.0Q2389 483 2340 461V144Q2340 54 2318.0 -26.5Q2296 -107 2253.5 -174.5Q2211 -242 2147.0 -295.0Q2083 -348 1999 -383Q1943 -406 1884.0 -418.5Q1825 -431 1765 -431H256V-287Q256 -285 257.5 -279.0Q259 -273 261.5 -266.5Q264 -260 266.0 -254.0Q268 -248 269 -245Q293 -182 324.0 -123.5Q355 -65 404 -17Q332 80 294.0 195.0Q256 310 256 431Z" style="fill:#000000;stroke:none" transform="scale(1,-1) translate(0,-256)" /></svg>