<?xml version="1.0" encoding="utf-8" ?>
<svg baseProfile="full" height="256" version="1.1" width="256" xmlns="http://www.w3.org/2000/svg" xmlns:ev="http://www.w3.org/2001/xml-events" xmlns:xlink="http://www.w3.org/1999/xlink"><defs /><path d="M2125 1581Q2154 1581 2175.5 1560.0Q2197 1539 2197 1510V1438Q2197 1409 2175.5 1387.5Q2154 1366 2125 1366Q2095 1366 2074.0 1387.0Q2053 1408 2053 1438V1510Q2053 1539 2074.5 1560.0Q2096 1581 2125 1581ZM1550 1581Q1579 1581 1600.5 1560.0Q1622 1539 1622 1510V1438Q1622 1409 1600.5 1387.5Q1579 1366 1550 1366Q1520 1366 1499.0 1387.0Q1478 1408 1478 1438V1510Q1478 1539 1499.5 1560.0Q1521 1581 1550 1581Z" style="fill:#000000;stroke:none" transform="scale(1,-1) translate(0,-256)" /></svg>