<?xml version="1.0" encoding="utf-8" ?>
<svg baseProfile="full" height="256" version="1.1" width="256" xmlns="http://www.w3.org/2000/svg" xmlns:ev="http://www.w3.org/2001/xml-events" xmlns:xlink="http://www.w3.org/1999/xlink"><defs /><path d="M2053 1085Q2076 1078 2106.0 1067.0Q2136 1056 2168.0 1041.5Q2200 1027 2231.0 1008.5Q2262 990 2286.0 967.5Q2310 945 2325.0 919.0Q2340 893 2340 863V791H759V863Q759 893 773.5 918.5Q788 944 810.5 965.0Q833 986 859.0 1002.5Q885 1019 909 1031Q921 1130 956.0 1220.0Q991 1310 1045.0 1387.0Q1099 1464 1169.5 1526.5Q1240 1589 1323.0 1633.0Q1406 1677 1499.5 1701.0Q1593 1725 1693 1725Q1800 1725 1900.5 1699.5Q2001 1674 2092.0 1627.0Q2183 1580 2263.5 1513.5Q2344 1447 2412 1366H2197Q2167 1366 2140.5 1354.5Q2114 1343 2094.5 1323.5Q2075 1304 2064.0 1278.0Q2053 1252 2053 1222ZM2186 233Q2261 164 2300.5 72.5Q2340 -19 2340 -120V-287H831L759 -235L687 -287H543Q513 -287 487.0 -276.0Q461 -265 441.5 -245.5Q422 -226 411.0 -200.0Q400 -174 400 -144V-63L761 -78Q769 12 808.5 92.0Q848 172 914 233Q903 260 903 288Q903 318 914.5 344.0Q926 370 945.5 389.5Q965 409 991.0 420.0Q1017 431 1047 431H2053Q2083 431 2109.0 420.0Q2135 409 2154.5 389.5Q2174 370 2185.5 344.0Q2197 318 2197 288Q2197 260 2186 233Z" style="fill:#3a96dd;stroke:none" transform="scale(1,-1) translate(0,-256)" /></svg>