<?xml version="1.0" encoding="utf-8" ?>
<svg baseProfile="full" height="256" version="1.1" width="256" xmlns="http://www.w3.org/2000/svg" xmlns:ev="http://www.w3.org/2001/xml-events" xmlns:xlink="http://www.w3.org/1999/xlink"><defs /><path d="M1550 431Q1535 431 1511.0 436.5Q1487 442 1463.5 452.5Q1440 463 1423.0 478.0Q1406 493 1406 511Q1406 525 1416.0 535.0Q1426 545 1440 545Q1449 545 1458.5 538.0Q1468 531 1480.5 523.0Q1493 515 1509.5 508.0Q1526 501 1550 501Q1574 501 1590.5 508.0Q1607 515 1619.0 523.0Q1631 531 1640.5 538.0Q1650 545 1659 545Q1673 545 1683.0 535.0Q1693 525 1693 511Q1693 493 1676.0 478.0Q1659 463 1636.0 452.5Q1613 442 1589.0 436.5Q1565 431 1550 431Z" style="fill:#f7894a;stroke:none" transform="scale(1,-1) translate(0,-256)" /></svg>