<?xml version="1.0" encoding="utf-8" ?>
<svg baseProfile="full" height="256" version="1.1" width="256" xmlns="http://www.w3.org/2000/svg" xmlns:ev="http://www.w3.org/2001/xml-events" xmlns:xlink="http://www.w3.org/1999/xlink"><defs /><path d="M1550 1006Q1659 1006 1767.0 996.5Q1875 987 1981 963Q1982 959 1985.0 945.5Q1988 932 1992.0 913.0Q1996 894 2001.0 873.0Q2006 852 2010.0 834.0Q2014 816 2016.5 804.0Q2019 792 2019 791Q2019 689 1985.5 597.5Q1952 506 1890.5 437.5Q1829 369 1742.5 328.5Q1656 288 1550 288Q1444 288 1357.5 328.5Q1271 369 1210.0 437.5Q1149 506 1116.0 597.5Q1083 689 1083 791Q1083 792 1085.5 804.5Q1088 817 1091.5 834.5Q1095 852 1099.5 873.0Q1104 894 1107.5 912.5Q1111 931 1114.0 945.0Q1117 959 1118 963Q1224 986 1332.5 996.0Q1441 1006 1550 1006ZM831 144Q863 144 883.0 124.5Q903 105 903 73V-71Q903 -103 883.0 -123.0Q863 -143 831 -143Q831 -175 811.0 -195.0Q791 -215 759 -215H554Q522 -215 494.0 -203.0Q466 -191 445.0 -170.5Q424 -150 412.0 -122.5Q400 -95 400 -63Q400 -34 410.5 -6.0Q421 22 441 43L652 269Q665 284 687 287V144Z" style="fill:#ffc83d;stroke:none" transform="scale(1,-1) translate(0,-256)" /></svg>