<?xml version="1.0" encoding="utf-8" ?>
<svg baseProfile="full" height="256" version="1.1" width="256" xmlns="http://www.w3.org/2000/svg" xmlns:ev="http://www.w3.org/2001/xml-events" xmlns:xlink="http://www.w3.org/1999/xlink"><defs /><path d="M543 -431Q484 -431 431.5 -408.5Q379 -386 340.0 -347.0Q301 -308 278.5 -255.5Q256 -203 256 -144V-63Q256 -6 277.0 46.5Q298 99 336 141L543 363V436Q508 471 490.0 516.5Q472 562 472 611Q472 661 490 706Q447 742 423.5 792.5Q400 843 400 899Q400 955 423.5 1006.0Q447 1057 490 1092Q472 1137 472 1186Q472 1238 492.0 1283.5Q512 1329 546.0 1363.5Q580 1398 625.5 1418.0Q671 1438 723 1438Q765 1438 804.0 1424.5Q843 1411 876 1386Q937 1497 1025.0 1586.5Q1113 1676 1219.0 1739.0Q1325 1802 1445.5 1835.5Q1566 1869 1693 1869Q1897 1869 2079.5 1792.5Q2262 1716 2411 1577Q2440 1549 2469.0 1519.5Q2498 1490 2523 1458Q2539 1437 2547.5 1415.0Q2556 1393 2556 1367Q2556 1337 2544.5 1310.5Q2533 1284 2513.5 1264.5Q2494 1245 2468.0 1233.5Q2442 1222 2412 1222H2197V1186Q2248 1165 2299.0 1135.0Q2350 1105 2391.5 1065.0Q2433 1025 2458.5 974.5Q2484 924 2484 863V791Q2484 738 2464.5 693.0Q2445 648 2412.5 611.0Q2380 574 2338.5 544.5Q2297 515 2253 493Q2299 449 2319.5 395.0Q2340 341 2340 278Q2410 193 2447.0 91.5Q2484 -10 2484 -120V-431Z" style="fill:#000000;stroke:none" transform="scale(1,-1) translate(0,-256)" /></svg>