<?xml version="1.0" encoding="utf-8" ?>
<svg baseProfile="full" height="256" version="1.1" width="256" xmlns="http://www.w3.org/2000/svg" xmlns:ev="http://www.w3.org/2001/xml-events" xmlns:xlink="http://www.w3.org/1999/xlink"><defs /><path d="M1406 791Q1406 761 1385.0 740.0Q1364 719 1334 719Q1304 719 1283.0 740.0Q1262 761 1262 791V863Q1262 892 1283.5 913.5Q1305 935 1334 935Q1363 935 1384.5 913.5Q1406 892 1406 863ZM1765 935Q1794 935 1815.5 913.5Q1837 892 1837 863V791Q1837 761 1816.0 740.0Q1795 719 1765 719Q1736 719 1714.5 740.5Q1693 762 1693 791V863Q1693 892 1714.5 913.5Q1736 935 1765 935Z" style="fill:#000000;stroke:none" transform="scale(1,-1) translate(0,-256)" /></svg>