<?xml version="1.0" encoding="utf-8" ?>
<svg baseProfile="full" height="256" version="1.1" width="256" xmlns="http://www.w3.org/2000/svg" xmlns:ev="http://www.w3.org/2001/xml-events" xmlns:xlink="http://www.w3.org/1999/xlink"><defs /><path d="M759 791Q759 833 786.5 868.0Q814 903 857.5 930.5Q901 958 955.0 979.5Q1009 1001 1063.0 1016.5Q1117 1032 1164.5 1041.5Q1212 1051 1242 1056Q1319 1067 1395.5 1072.5Q1472 1078 1550 1078Q1632 1078 1714.0 1072.0Q1796 1066 1877 1052Q1906 1047 1952.0 1037.5Q1998 1028 2049.5 1012.5Q2101 997 2153.0 976.0Q2205 955 2246.5 927.5Q2288 900 2314.0 866.0Q2340 832 2340 791Q2340 750 2314.0 715.5Q2288 681 2246.5 653.5Q2205 626 2153.0 605.0Q2101 584 2049.5 568.5Q1998 553 1952.0 543.5Q1906 534 1877 529Q1796 515 1714.0 509.0Q1632 503 1550 503Q1472 503 1395.5 508.5Q1319 514 1242 526Q1212 530 1164.5 540.0Q1117 550 1063.0 565.5Q1009 581 955.0 602.0Q901 623 857.5 651.0Q814 679 786.5 714.0Q759 749 759 791ZM2053 360Q2082 360 2103.5 338.5Q2125 317 2125 288L1550 -144L975 288Q975 317 996.5 338.5Q1018 360 1047 360Z" style="fill:#0063b1;stroke:none" transform="scale(1,-1) translate(0,-256)" /></svg>