<?xml version="1.0" encoding="utf-8" ?>
<svg baseProfile="full" height="256" version="1.1" width="256" xmlns="http://www.w3.org/2000/svg" xmlns:ev="http://www.w3.org/2001/xml-events" xmlns:xlink="http://www.w3.org/1999/xlink"><defs /><path d="M2053 945V791Q2053 641 2017.0 500.5Q1981 360 1915.5 232.5Q1850 105 1757.0 -8.0Q1664 -121 1550 -215Q1436 -121 1343.0 -8.0Q1250 105 1184.5 232.5Q1119 360 1083.0 500.5Q1047 641 1047 791V945L1118 963V791Q1118 746 1135.0 707.0Q1152 668 1181.5 638.5Q1211 609 1250.0 592.0Q1289 575 1334 575Q1334 605 1345.0 631.0Q1356 657 1375.5 676.5Q1395 696 1421.0 707.5Q1447 719 1477 719Q1477 689 1498.0 668.0Q1519 647 1549 647Q1579 647 1600.0 668.0Q1621 689 1621 719Q1651 719 1677.0 707.5Q1703 696 1722.5 676.5Q1742 657 1753.5 631.0Q1765 605 1765 575Q1810 575 1849.0 592.0Q1888 609 1917.5 638.5Q1947 668 1964.0 707.0Q1981 746 1981 791V963Z" style="fill:#f2f2f2;stroke:none" transform="scale(1,-1) translate(0,-256)" /></svg>