<?xml version="1.0" encoding="utf-8" ?>
<svg baseProfile="full" height="256" version="1.1" width="256" xmlns="http://www.w3.org/2000/svg" xmlns:ev="http://www.w3.org/2001/xml-events" xmlns:xlink="http://www.w3.org/1999/xlink"><defs /><path d="M615 899Q615 884 625.5 873.5Q636 863 651 863H867Q889 863 908.5 854.5Q928 846 943.0 831.0Q958 816 966.5 796.5Q975 777 975 755Q975 733 966.5 713.5Q958 694 943.0 679.0Q928 664 908.5 655.5Q889 647 867 647H831V719H851Q860 719 869.5 720.0Q879 721 886.5 724.5Q894 728 898.5 735.5Q903 743 903 755Q903 770 892.5 780.5Q882 791 867 791H651Q629 791 609.5 799.5Q590 808 575.0 823.0Q560 838 551.5 857.5Q543 877 543 899Q543 921 551.5 940.5Q560 960 575.0 974.5Q590 989 609.5 997.5Q629 1006 651 1006H687V935H675Q665 935 654.5 934.5Q644 934 635.0 930.5Q626 927 620.5 919.5Q615 912 615 899ZM687 1186Q687 1162 706.0 1155.0Q725 1148 748 1148Q762 1148 774.5 1149.0Q787 1150 795 1150Q817 1150 837.0 1141.5Q857 1133 871.5 1118.5Q886 1104 894.5 1084.0Q903 1064 903 1042Q903 1008 883.0 980.0Q863 952 831 941V1042Q831 1066 812.0 1073.0Q793 1080 770 1080Q756 1080 743.5 1079.0Q731 1078 723 1078Q701 1078 681.5 1086.5Q662 1095 647.0 1110.0Q632 1125 623.5 1144.5Q615 1164 615 1186Q615 1220 635.0 1248.0Q655 1276 687 1287ZM687 712V611Q687 596 697.5 585.5Q708 575 723 575H831Q861 575 882.0 554.0Q903 533 903 503Q903 474 881.5 452.5Q860 431 831 431V503H723Q701 503 681.5 511.5Q662 520 647.0 535.0Q632 550 623.5 569.5Q615 589 615 611Q615 645 635.0 673.0Q655 701 687 712Z" style="fill:#8e562e;stroke:none" transform="scale(1,-1) translate(0,-256)" /></svg>