<?xml version="1.0" encoding="utf-8" ?>
<svg baseProfile="full" height="256" version="1.1" width="256" xmlns="http://www.w3.org/2000/svg" xmlns:ev="http://www.w3.org/2001/xml-events" xmlns:xlink="http://www.w3.org/1999/xlink"><defs /><path d="M1729 1150Q1796 1150 1855.0 1124.5Q1914 1099 1958.0 1055.0Q2002 1011 2027.5 952.5Q2053 894 2053 827Q2053 766 2034.0 718.5Q2015 671 1984.0 630.5Q1953 590 1914.5 553.5Q1876 517 1837 478V-78Q1790 -127 1743.0 -166.0Q1696 -205 1644.5 -232.0Q1593 -259 1534.5 -273.0Q1476 -287 1406 -287Q1336 -287 1277.5 -273.0Q1219 -259 1167.5 -232.0Q1116 -205 1069.0 -166.0Q1022 -127 975 -78V478Q936 517 897.5 553.5Q859 590 828.0 630.5Q797 671 778.0 718.5Q759 766 759 827Q759 894 784.5 952.5Q810 1011 854.0 1055.0Q898 1099 957.0 1124.5Q1016 1150 1083 1150Q1140 1150 1183.5 1134.0Q1227 1118 1264.0 1092.0Q1301 1066 1335.0 1031.5Q1369 997 1406 961Q1443 998 1476.5 1032.0Q1510 1066 1547.0 1092.5Q1584 1119 1628.0 1134.5Q1672 1150 1729 1150ZM505 1145Q529 1145 549.0 1125.0Q569 1105 583.5 1077.5Q598 1050 606.5 1020.0Q615 990 615 971V735Q649 704 668.0 662.5Q687 621 687 575V360H400V971Q400 990 407.5 1020.0Q415 1050 428.5 1077.5Q442 1105 461.5 1125.0Q481 1145 505 1145ZM2412 971V360H2125V575Q2125 621 2144.0 662.5Q2163 704 2197 735V971Q2197 991 2205.5 1022.0Q2214 1053 2229.0 1082.5Q2244 1112 2264.5 1133.5Q2285 1155 2309 1155Q2333 1155 2352.0 1133.5Q2371 1112 2384.5 1082.0Q2398 1052 2405.0 1021.0Q2412 990 2412 971Z" style="fill:#f7b189;stroke:none" transform="scale(1,-1) translate(0,-256)" /></svg>