<?xml version="1.0" encoding="utf-8" ?>
<svg baseProfile="full" height="256" version="1.1" width="256" xmlns="http://www.w3.org/2000/svg" xmlns:ev="http://www.w3.org/2001/xml-events" xmlns:xlink="http://www.w3.org/1999/xlink"><defs /><path d="M1406 -431Q1285 -431 1172.5 -390.5Q1060 -350 967 -272Q957 -307 937.0 -336.0Q917 -365 889.5 -386.0Q862 -407 828.5 -419.0Q795 -431 759 -431H472Q427 -431 388.0 -414.0Q349 -397 319.5 -367.5Q290 -338 273.0 -299.0Q256 -260 256 -215V1186Q256 1238 276.0 1284.0Q296 1330 330.0 1364.0Q364 1398 410.0 1418.0Q456 1438 508 1438Q559 1438 606 1417Q670 1522 757.0 1605.5Q844 1689 947.5 1747.5Q1051 1806 1167.0 1837.5Q1283 1869 1406 1869Q1529 1869 1645.0 1837.5Q1761 1806 1864.5 1747.5Q1968 1689 2055.0 1605.5Q2142 1522 2206 1417Q2252 1438 2304 1438Q2356 1438 2402.0 1418.0Q2448 1398 2482.0 1364.0Q2516 1330 2536.0 1284.0Q2556 1238 2556 1186V-215Q2556 -260 2539.0 -299.0Q2522 -338 2492.5 -367.5Q2463 -397 2424.0 -414.0Q2385 -431 2340 -431H2053Q2017 -431 1983.5 -419.0Q1950 -407 1922.0 -386.0Q1894 -365 1874.0 -335.5Q1854 -306 1845 -271Q1752 -349 1639.5 -390.0Q1527 -431 1406 -431Z" style="fill:#000000;stroke:none" transform="scale(1,-1) translate(0,-256)" /></svg>