<?xml version="1.0" encoding="utf-8" ?>
<svg baseProfile="full" height="256" version="1.1" width="256" xmlns="http://www.w3.org/2000/svg" xmlns:ev="http://www.w3.org/2001/xml-events" xmlns:xlink="http://www.w3.org/1999/xlink"><defs /><path d="M400 1186Q400 1208 408.5 1228.0Q417 1248 431.5 1262.5Q446 1277 465.5 1285.5Q485 1294 508 1294Q530 1294 550.0 1285.5Q570 1277 584.0 1262.0Q598 1247 606.5 1227.5Q615 1208 615 1186V975Q614 996 605.0 1014.5Q596 1033 581.5 1047.5Q567 1062 548.0 1070.0Q529 1078 508 1078Q487 1078 468.0 1070.5Q449 1063 434.5 1049.5Q420 1036 410.5 1018.0Q401 1000 400 979ZM2304 1078Q2283 1078 2264.5 1070.5Q2246 1063 2231.0 1049.5Q2216 1036 2207.0 1018.0Q2198 1000 2197 979V1186Q2197 1208 2205.5 1227.5Q2214 1247 2228.0 1262.0Q2242 1277 2261.5 1285.5Q2281 1294 2304 1294Q2326 1294 2346.0 1285.5Q2366 1277 2380.5 1262.5Q2395 1248 2403.5 1228.0Q2412 1208 2412 1186V975Q2411 996 2402.0 1015.0Q2393 1034 2378.5 1048.0Q2364 1062 2344.5 1070.0Q2325 1078 2304 1078Z" style="fill:#f7894a;stroke:none" transform="scale(1,-1) translate(0,-256)" /></svg>