<?xml version="1.0" encoding="utf-8" ?>
<svg baseProfile="full" height="256" version="1.1" width="256" xmlns="http://www.w3.org/2000/svg" xmlns:ev="http://www.w3.org/2001/xml-events" xmlns:xlink="http://www.w3.org/1999/xlink"><defs /><path d="M1406 1725Q1515 1725 1616.0 1697.0Q1717 1669 1805.0 1617.5Q1893 1566 1965.0 1493.5Q2037 1421 2088.5 1333.5Q2140 1246 2168.5 1145.0Q2197 1044 2197 935V391L2275 425L2412 360V-215Q2412 -245 2391.0 -266.0Q2370 -287 2340 -287H2053Q2023 -287 2002.0 -266.0Q1981 -245 1981 -215Q1981 -210 1987.5 -182.5Q1994 -155 2003.5 -116.5Q2013 -78 2024.5 -33.0Q2036 12 2046.5 52.5Q2057 93 2065.0 123.5Q2073 154 2076 165L1787 -129Q1712 -205 1612.0 -246.0Q1512 -287 1406 -287Q1300 -287 1200.0 -246.0Q1100 -205 1025 -129L736 165Q739 154 747.0 123.5Q755 93 765.5 52.5Q776 12 787.5 -33.0Q799 -78 808.5 -116.5Q818 -155 824.5 -182.5Q831 -210 831 -215Q831 -245 810.0 -266.0Q789 -287 759 -287H472Q442 -287 421.0 -266.0Q400 -245 400 -215V360L551 456L615 411V935Q615 1044 643.5 1145.0Q672 1246 723.5 1333.5Q775 1421 847.0 1493.5Q919 1566 1007.0 1617.5Q1095 1669 1196.0 1697.0Q1297 1725 1406 1725Z" style="fill:#613d30;stroke:none" transform="scale(1,-1) translate(0,-256)" /></svg>