<?xml version="1.0" encoding="utf-8" ?>
<svg baseProfile="full" height="256" version="1.1" width="256" xmlns="http://www.w3.org/2000/svg" xmlns:ev="http://www.w3.org/2001/xml-events" xmlns:xlink="http://www.w3.org/1999/xlink"><defs /><path d="M1262 575Q1292 575 1313.0 554.0Q1334 533 1334 503Q1334 474 1312.5 452.5Q1291 431 1262 431Q1233 431 1211.5 452.5Q1190 474 1190 503Q1190 533 1211.0 554.0Q1232 575 1262 575ZM1550 575Q1579 575 1600.5 553.5Q1622 532 1622 503Q1622 474 1600.5 452.5Q1579 431 1550 431Q1521 431 1499.5 452.5Q1478 474 1478 503Q1478 533 1499.0 554.0Q1520 575 1550 575Z" style="fill:#ca5010;stroke:none" transform="scale(1,-1) translate(0,-256)" /></svg>