<?xml version="1.0" encoding="utf-8" ?>
<svg baseProfile="full" height="256" version="1.1" width="256" xmlns="http://www.w3.org/2000/svg" xmlns:ev="http://www.w3.org/2001/xml-events" xmlns:xlink="http://www.w3.org/1999/xlink"><defs /><path d="M633 1599 844 1318V952Q820 943 791.5 930.0Q763 917 733.5 905.5Q704 894 674.0 885.5Q644 877 617 877Q574 877 540.0 908.5Q506 940 480.5 985.0Q455 1030 438.5 1078.5Q422 1127 413 1161Q405 1190 402.5 1218.0Q400 1246 400 1276Q400 1331 417.0 1382.0Q434 1433 464.5 1475.0Q495 1517 538.0 1549.0Q581 1581 633 1599ZM1923 226 2214 18Q2197 -34 2165.0 -77.0Q2133 -120 2090.5 -150.5Q2048 -181 1997.0 -198.0Q1946 -215 1891 -215Q1856 -215 1813.0 -211.0Q1770 -207 1736 -196Q1701 -184 1658.5 -158.0Q1616 -132 1579.0 -97.5Q1542 -63 1517.5 -22.5Q1493 18 1493 59Q1493 82 1500.0 105.0Q1507 128 1518.0 150.5Q1529 173 1542.0 194.0Q1555 215 1567 233Z" style="fill:#f03a17;stroke:none" transform="scale(1,-1) translate(0,-256)" /></svg>