<?xml version="1.0" encoding="utf-8" ?>
<svg baseProfile="full" height="256" version="1.1" width="256" xmlns="http://www.w3.org/2000/svg" xmlns:ev="http://www.w3.org/2001/xml-events" xmlns:xlink="http://www.w3.org/1999/xlink"><defs /><path d="M256 1276Q256 1356 280.0 1427.5Q304 1499 347.5 1558.5Q391 1618 452.0 1663.0Q513 1708 587 1735Q609 1743 637.0 1754.0Q665 1765 694.5 1774.5Q724 1784 752.5 1790.5Q781 1797 804 1797Q838 1797 870.5 1786.0Q903 1775 930.0 1755.5Q957 1736 977.5 1708.5Q998 1681 1009 1649L1179 1139Q1190 1104 1190 1071Q1190 1024 1177.0 990.0Q1164 956 1140.0 931.0Q1116 906 1082.5 887.5Q1049 869 1009 854Q988 846 965.0 839.5Q942 833 922 823Q915 819 909.0 809.0Q903 799 903 791Q903 777 911.5 769.0Q920 761 928 753L1369 313Q1377 305 1384.5 296.5Q1392 288 1406 288Q1414 288 1424.0 294.0Q1434 300 1438 307Q1448 327 1454.5 350.0Q1461 373 1469 394Q1484 434 1502.5 467.0Q1521 500 1546.0 524.0Q1571 548 1605.0 561.5Q1639 575 1686 575Q1719 575 1754 564L2264 394Q2296 383 2323.5 362.5Q2351 342 2370.5 315.0Q2390 288 2401.0 255.5Q2412 223 2412 189Q2412 166 2405.5 137.5Q2399 109 2389.5 79.5Q2380 50 2369.5 22.0Q2359 -6 2351 -28Q2332 -80 2302.5 -128.5Q2273 -177 2234.0 -217.0Q2195 -257 2148.0 -287.0Q2101 -317 2046 -332Q2006 -343 1961.0 -351.5Q1916 -360 1874 -360Q1865 -360 1855.5 -359.5Q1846 -359 1837 -359Q1619 -359 1417.0 -302.5Q1215 -246 1039.0 -143.0Q863 -40 719.0 104.0Q575 248 472.0 424.0Q369 600 312.5 802.0Q256 1004 256 1222Z" style="fill:#000000;stroke:none" transform="scale(1,-1) translate(0,-256)" /></svg>