<?xml version="1.0" encoding="utf-8" ?>
<svg baseProfile="full" height="256" version="1.1" width="256" xmlns="http://www.w3.org/2000/svg" xmlns:ev="http://www.w3.org/2001/xml-events" xmlns:xlink="http://www.w3.org/1999/xlink"><defs /><path d="M1550 126Q1550 55 1576.5 -7.0Q1603 -69 1649.5 -115.5Q1696 -162 1758.0 -188.5Q1820 -215 1891 -215H1837Q1638 -215 1454.5 -163.5Q1271 -112 1111.5 -18.5Q952 75 821.0 206.0Q690 337 596.5 496.5Q503 656 451.5 840.0Q400 1024 400 1222V1276Q400 1205 427.0 1143.0Q454 1081 500.0 1035.0Q546 989 608.0 962.0Q670 935 741 935Q795 935 849 952Q794 1114 740.5 1275.0Q687 1436 633 1599L831 1653L1047 1006L849 952Q811 919 785.0 881.5Q759 844 759 791Q759 744 779.0 711.0Q799 678 831 647L1262 216Q1294 184 1326.5 164.0Q1359 144 1406 144Q1434 144 1455.5 151.0Q1477 158 1496.0 170.0Q1515 182 1532.0 198.0Q1549 214 1567 233Q1550 179 1550 126ZM2214 18 1567 233 1622 431 2268 216Z" style="fill:#af0d1a;stroke:none" transform="scale(1,-1) translate(0,-256)" /></svg>