<?xml version="1.0" encoding="utf-8" ?>
<svg baseProfile="full" height="256" version="1.1" width="256" xmlns="http://www.w3.org/2000/svg" xmlns:ev="http://www.w3.org/2001/xml-events" xmlns:xlink="http://www.w3.org/1999/xlink"><defs /><path d="M903 -215Q903 -245 882.0 -266.0Q861 -287 831 -287Q801 -287 780.0 -266.0Q759 -245 759 -215Q759 -186 780.5 -165.0Q802 -144 831 -144Q860 -144 881.5 -165.0Q903 -186 903 -215ZM1478 -215Q1478 -245 1457.0 -266.0Q1436 -287 1406 -287Q1376 -287 1355.0 -266.0Q1334 -245 1334 -215Q1334 -186 1355.5 -165.0Q1377 -144 1406 -144Q1435 -144 1456.5 -165.0Q1478 -186 1478 -215ZM615 -215Q615 -245 594.0 -266.0Q573 -287 543 -287Q514 -287 493.0 -265.5Q472 -244 472 -215Q472 -186 493.0 -165.0Q514 -144 543 -144Q572 -144 593.5 -165.0Q615 -186 615 -215ZM1765 -215Q1765 -245 1744.0 -266.0Q1723 -287 1693 -287Q1664 -287 1643.0 -265.5Q1622 -244 1622 -215Q1622 -186 1643.0 -165.0Q1664 -144 1693 -144Q1722 -144 1743.5 -165.0Q1765 -186 1765 -215ZM1334 1581 1298 1542 1262 1581V1689H1334ZM975 1581 939 1542 903 1581V1689H975Z" style="fill:#757575;stroke:none" transform="scale(1,-1) translate(0,-256)" /></svg>