<?xml version="1.0" encoding="utf-8" ?>
<svg baseProfile="full" height="256" version="1.1" width="256" xmlns="http://www.w3.org/2000/svg" xmlns:ev="http://www.w3.org/2001/xml-events" xmlns:xlink="http://www.w3.org/1999/xlink"><defs /><path d="M615 -144Q644 -144 665.5 -165.0Q687 -186 687 -215Q687 -245 666.0 -266.0Q645 -287 615 -287H543V-144ZM903 -144Q932 -144 953.5 -165.0Q975 -186 975 -215Q975 -245 954.0 -266.0Q933 -287 903 -287H831V-144ZM1478 -144Q1507 -144 1528.5 -165.0Q1550 -186 1550 -215Q1550 -245 1529.0 -266.0Q1508 -287 1478 -287H1406V-144ZM1765 -144Q1794 -144 1815.5 -165.0Q1837 -186 1837 -215Q1837 -245 1816.0 -266.0Q1795 -287 1765 -287H1693V-144Z" style="fill:#383838;stroke:none" transform="scale(1,-1) translate(0,-256)" /></svg>