<?xml version="1.0" encoding="utf-8" ?>
<svg baseProfile="full" height="256" version="1.1" width="256" xmlns="http://www.w3.org/2000/svg" xmlns:ev="http://www.w3.org/2001/xml-events" xmlns:xlink="http://www.w3.org/1999/xlink"><defs /><path d="M1981 1150V0Q1981 -60 1956 -116Q1981 -163 1981 -215Q1981 -260 1964.0 -299.0Q1947 -338 1917.5 -367.5Q1888 -397 1849.0 -414.0Q1810 -431 1765 -431H1716Q1682 -431 1651.0 -426.5Q1620 -422 1586 -402Q1536 -431 1478 -431H1406Q1337 -431 1281.5 -391.5Q1226 -352 1203 -287H1106Q1094 -319 1074.0 -345.5Q1054 -372 1027.5 -391.0Q1001 -410 969.0 -420.5Q937 -431 903 -431H854Q819 -431 787.5 -426.5Q756 -422 723 -402Q673 -431 615 -431H543Q499 -431 459.5 -414.0Q420 -397 391.0 -367.5Q362 -338 345.0 -298.5Q328 -259 328 -215Q328 -209 328.0 -203.0Q328 -197 329 -191Q294 -152 275.0 -102.5Q256 -53 256 0V1150Q256 1239 290.0 1317.5Q324 1396 382.5 1454.5Q441 1513 519.5 1547.0Q598 1581 687 1581V1869H1550V1581Q1639 1581 1717.5 1547.0Q1796 1513 1854.5 1454.5Q1913 1396 1947.0 1317.5Q1981 1239 1981 1150Z" style="fill:#000000;stroke:none" transform="scale(1,-1) translate(0,-256)" /></svg>