<?xml version="1.0" encoding="utf-8" ?>
<svg baseProfile="full" height="256" version="1.1" width="256" xmlns="http://www.w3.org/2000/svg" xmlns:ev="http://www.w3.org/2001/xml-events" xmlns:xlink="http://www.w3.org/1999/xlink"><defs /><path d="M975 1438H1262Q1322 1438 1374.5 1415.5Q1427 1393 1466.0 1354.0Q1505 1315 1527.5 1262.5Q1550 1210 1550 1150V0Q1550 -30 1538.5 -56.0Q1527 -82 1507.5 -101.5Q1488 -121 1462.0 -132.5Q1436 -144 1406 -144H543Q513 -144 487.0 -132.5Q461 -121 441.5 -101.5Q422 -82 411.0 -56.0Q400 -30 400 0V1150Q400 1210 422.5 1262.5Q445 1315 484.0 1354.0Q523 1393 575.0 1415.5Q627 1438 687 1438H903L939 1482ZM1406 1653H831V1725H1406Z" style="fill:#859599;stroke:none" transform="scale(1,-1) translate(0,-256)" /></svg>