<?xml version="1.0" encoding="utf-8" ?>
<svg baseProfile="full" height="256" version="1.1" width="256" xmlns="http://www.w3.org/2000/svg" xmlns:ev="http://www.w3.org/2001/xml-events" xmlns:xlink="http://www.w3.org/1999/xlink"><defs /><path d="M543 575 833 605Q854 607 871.5 609.5Q889 612 905.5 614.5Q922 617 939.5 618.5Q957 620 978 620Q999 620 1016.0 618.5Q1033 617 1049.5 614.5Q1066 612 1083.0 609.5Q1100 607 1121 605L1406 575V0H543ZM1387 1222Q1406 1187 1406 1150V719H543V1150Q543 1169 548.5 1187.0Q554 1205 563 1222L848 1255Q869 1258 886.0 1261.0Q903 1264 919.5 1266.5Q936 1269 953.0 1270.5Q970 1272 991 1272Q1010 1272 1026.0 1270.5Q1042 1269 1057.0 1266.5Q1072 1264 1088.0 1261.0Q1104 1258 1123 1255Z" style="fill:#a0aeb2;stroke:none" transform="scale(1,-1) translate(0,-256)" /></svg>