<?xml version="1.0" encoding="utf-8" ?>
<svg baseProfile="full" height="256" version="1.1" width="256" xmlns="http://www.w3.org/2000/svg" xmlns:ev="http://www.w3.org/2001/xml-events" xmlns:xlink="http://www.w3.org/1999/xlink"><defs /><path d="M1305 1581Q1319 1595 1337.5 1606.0Q1356 1617 1377 1617Q1398 1617 1416.5 1606.0Q1435 1595 1449 1581V1340Q1449 1324 1444.0 1308.5Q1439 1293 1428 1282L1162 1006L1357 863Q1367 855 1372.5 839.5Q1378 824 1378 812Q1378 782 1357 761L1162 575H874Q874 565 874.5 555.0Q875 545 875 535Q875 503 871.0 483.0Q867 463 856.0 451.5Q845 440 825.5 435.5Q806 431 775 431H731V1006L587 863V647Q572 634 553.5 626.0Q535 618 515 618Q495 618 477.0 626.0Q459 634 444 647Q444 710 443.5 772.0Q443 834 443 897Q443 913 449.5 924.0Q456 935 465 947L617 1150Q629 1166 638.5 1179.5Q648 1193 659.5 1203.0Q671 1213 685.5 1218.5Q700 1224 722 1224Q742 1224 762.5 1223.0Q783 1222 803 1222Q834 1198 870.0 1182.0Q906 1166 946 1166Q986 1166 1022.5 1182.0Q1059 1198 1090 1222H1162L1305 1366Z" style="fill:#0078d7;stroke:none" transform="scale(1,-1) translate(0,-256)" /></svg>