<?xml version="1.0" encoding="utf-8" ?>
<svg baseProfile="full" height="256" version="1.1" width="256" xmlns="http://www.w3.org/2000/svg" xmlns:ev="http://www.w3.org/2001/xml-events" xmlns:xlink="http://www.w3.org/1999/xlink"><defs /><path d="M874 1581H1158Q1162 1566 1162 1546V1474Q1162 1436 1148.0 1403.5Q1134 1371 1109.5 1346.5Q1085 1322 1052.0 1308.0Q1019 1294 982 1294Q945 1294 912.5 1308.0Q880 1322 855.5 1346.5Q831 1371 817.0 1404.0Q803 1437 803 1474V1510ZM1377 1725Q1407 1725 1428.0 1704.0Q1449 1683 1449 1653V1581H1305V1653Q1305 1683 1326.0 1704.0Q1347 1725 1377 1725ZM443 575V647H587V575Q587 545 566.0 524.0Q545 503 515 503Q485 503 464.0 524.0Q443 545 443 575Z" style="fill:#ffc83d;stroke:none" transform="scale(1,-1) translate(0,-256)" /></svg>