<?xml version="1.0" encoding="utf-8" ?>
<svg baseProfile="full" height="256" version="1.1" width="256" xmlns="http://www.w3.org/2000/svg" xmlns:ev="http://www.w3.org/2001/xml-events" xmlns:xlink="http://www.w3.org/1999/xlink"><defs /><path d="M659 -163Q691 -183 711.0 -216.0Q731 -249 731 -287H587L443 -72L555 32Q591 31 611.5 18.5Q632 6 642.5 -14.5Q653 -35 656.0 -60.5Q659 -86 659 -113ZM1306 -144Q1336 -144 1362.0 -155.0Q1388 -166 1407.5 -185.5Q1427 -205 1438.0 -231.0Q1449 -257 1449 -287H1162V-72Q1173 -56 1189.5 -44.5Q1206 -33 1226 -33Q1249 -33 1269.0 -45.5Q1289 -58 1306 -72Z" style="fill:#d48c00;stroke:none" transform="scale(1,-1) translate(0,-256)" /></svg>