<?xml version="1.0" encoding="utf-8" ?>
<svg baseProfile="full" height="256" version="1.1" width="256" xmlns="http://www.w3.org/2000/svg" xmlns:ev="http://www.w3.org/2001/xml-events" xmlns:xlink="http://www.w3.org/1999/xlink"><defs /><path d="M659 1366V1546Q659 1613 684.5 1671.5Q710 1730 754.0 1774.0Q798 1818 856.5 1843.5Q915 1869 982 1869Q1044 1869 1101.0 1845.5Q1158 1822 1203 1780Q1234 1822 1279.5 1845.5Q1325 1869 1377 1869Q1422 1869 1461.0 1852.0Q1500 1835 1529.5 1805.5Q1559 1776 1576.0 1737.0Q1593 1698 1593 1653V1340Q1593 1246 1530 1180L1379 1025L1451 972Q1467 960 1480.0 940.5Q1493 921 1502.0 899.5Q1511 878 1516.0 855.0Q1521 832 1521 812Q1521 772 1507.0 738.5Q1493 705 1471.0 675.5Q1449 646 1421.5 620.0Q1394 594 1367 570L1345 551Q1361 524 1379.5 497.0Q1398 470 1413.5 442.0Q1429 414 1439.0 384.0Q1449 354 1449 321V-38Q1516 -77 1554.5 -143.0Q1593 -209 1593 -287V-431H1018V89L817 -116Q854 -166 864.5 -219.0Q875 -272 875 -332Q875 -357 874.5 -381.5Q874 -406 874 -431H510L256 -50Q341 28 425.0 105.5Q509 183 587 268V360H515Q470 360 431.0 377.0Q392 394 362.5 423.0Q333 452 316.0 491.0Q299 530 299 575Q299 653 299.5 729.0Q300 805 300 883Q300 910 302.5 929.5Q305 949 311.0 966.5Q317 984 327.5 1001.0Q338 1018 354 1039L502 1236Q520 1260 534.5 1281.5Q549 1303 565.5 1320.5Q582 1338 604.0 1350.0Q626 1362 659 1366Z" style="fill:#000000;stroke:none" transform="scale(1,-1) translate(0,-256)" /></svg>