<?xml version="1.0" encoding="utf-8" ?>
<svg baseProfile="full" height="256" version="1.1" width="256" xmlns="http://www.w3.org/2000/svg" xmlns:ev="http://www.w3.org/2001/xml-events" xmlns:xlink="http://www.w3.org/1999/xlink"><defs /><path d="M1162 575 1294 360Q1299 351 1302.5 341.5Q1306 332 1306 321V-72H1162V216L1028 418Q1024 423 1012.5 427.0Q1001 431 995 431Q978 431 967.5 424.0Q957 417 952.0 406.0Q947 395 945.5 381.0Q944 367 944 354Q944 336 945.5 317.5Q947 299 947 281Q947 261 943.0 238.0Q939 215 925 200L659 -72L555 32L731 208Q731 258 730.5 306.5Q730 355 730 405Q730 459 743.5 509.5Q757 560 766 612Q802 633 842.5 646.5Q883 660 925 660Q957 660 988.0 652.5Q1019 645 1048.5 633.0Q1078 621 1106.5 606.0Q1135 591 1162 575Z" style="fill:#0027b4;stroke:none" transform="scale(1,-1) translate(0,-256)" /></svg>