<?xml version="1.0" encoding="utf-8" ?>
<svg baseProfile="full" height="256" version="1.1" width="256" xmlns="http://www.w3.org/2000/svg" xmlns:ev="http://www.w3.org/2001/xml-events" xmlns:xlink="http://www.w3.org/1999/xlink"><defs /><path d="M1862 647H2268Q2298 647 2324.0 635.5Q2350 624 2369.5 604.5Q2389 585 2400.5 559.0Q2412 533 2412 503Q2412 473 2400.5 447.0Q2389 421 2369.5 401.5Q2350 382 2324.0 371.0Q2298 360 2268 360H543Q513 360 487.0 371.0Q461 382 441.5 401.5Q422 421 411.0 447.0Q400 473 400 503Q400 533 411.0 559.0Q422 585 441.5 604.5Q461 624 487.0 635.5Q513 647 543 647H950L543 882Q510 901 491.0 935.0Q472 969 472 1007Q472 1036 483.5 1062.0Q495 1088 514.5 1107.5Q534 1127 560.0 1138.5Q586 1150 615 1150Q655 1150 687 1131L965 971L778 1294Q759 1329 759 1366Q759 1396 770.0 1422.0Q781 1448 800.5 1467.5Q820 1487 846.5 1498.0Q873 1509 903 1509Q941 1509 974.0 1490.0Q1007 1471 1027 1438L1262 1031V1510Q1262 1540 1273.5 1566.0Q1285 1592 1304.5 1611.5Q1324 1631 1350.0 1642.0Q1376 1653 1406 1653Q1436 1653 1462.0 1642.0Q1488 1631 1507.5 1611.5Q1527 1592 1538.5 1566.0Q1550 1540 1550 1510V1031L1785 1438Q1805 1471 1838.0 1490.0Q1871 1509 1909 1509Q1939 1509 1965.0 1498.0Q1991 1487 2010.5 1467.5Q2030 1448 2041.5 1422.0Q2053 1396 2053 1366Q2053 1329 2034 1294L1847 971L2125 1131Q2160 1150 2196 1150Q2226 1150 2252.0 1139.0Q2278 1128 2297.5 1108.5Q2317 1089 2328.5 1063.0Q2340 1037 2340 1007Q2340 969 2320.5 935.5Q2301 902 2268 882Z" style="fill:#79db75;stroke:none" transform="scale(1,-1) translate(0,-256)" /></svg>