<?xml version="1.0" encoding="utf-8" ?>
<svg baseProfile="full" height="256" version="1.1" width="256" xmlns="http://www.w3.org/2000/svg" xmlns:ev="http://www.w3.org/2001/xml-events" xmlns:xlink="http://www.w3.org/1999/xlink"><defs /><path d="M2366 774Q2409 759 2444.0 731.5Q2479 704 2504.0 668.5Q2529 633 2542.5 590.5Q2556 548 2556 503Q2556 444 2533.0 391.5Q2510 339 2471.0 300.0Q2432 261 2379.5 238.5Q2327 216 2268 216H1976Q1980 185 1980.5 155.0Q1981 125 1981 94V0H1504L1476 -83Q1508 -95 1535.0 -115.0Q1562 -135 1581.5 -162.0Q1601 -189 1611.5 -221.0Q1622 -253 1622 -287V-431H687V-287Q687 -245 702.5 -207.5Q718 -170 744.5 -141.0Q771 -112 807.0 -93.5Q843 -75 885 -72L951 126Q897 165 852 216H543Q484 216 431.5 238.5Q379 261 340.0 300.0Q301 339 278.5 391.5Q256 444 256 503Q256 548 269.5 590.5Q283 633 308.0 668.5Q333 704 368.0 731.5Q403 759 446 774Q390 814 359.0 876.0Q328 938 328 1007Q328 1067 351.0 1119.0Q374 1171 413.0 1210.0Q452 1249 504.5 1271.5Q557 1294 616 1294H624Q615 1328 615 1365Q615 1425 637.5 1477.5Q660 1530 699.0 1569.0Q738 1608 790.0 1630.5Q842 1653 902 1653Q965 1653 1022.5 1626.5Q1080 1600 1122 1552Q1129 1605 1154.5 1650.0Q1180 1695 1218.0 1727.5Q1256 1760 1304.5 1778.5Q1353 1797 1406 1797Q1459 1797 1507.5 1778.5Q1556 1760 1594.0 1727.5Q1632 1695 1657.0 1650.0Q1682 1605 1690 1552Q1731 1600 1788.5 1626.5Q1846 1653 1909 1653Q1968 1653 2020.5 1630.5Q2073 1608 2112.0 1569.0Q2151 1530 2174.0 1477.5Q2197 1425 2197 1366Q2197 1328 2188 1294H2200Q2258 1294 2309.5 1271.0Q2361 1248 2400.0 1209.0Q2439 1170 2461.5 1117.5Q2484 1065 2484 1007Q2484 938 2453.0 876.0Q2422 814 2366 774Z" style="fill:#000000;stroke:none" transform="scale(1,-1) translate(0,-256)" /></svg>