<?xml version="1.0" encoding="utf-8" ?>
<svg baseProfile="full" height="256" version="1.1" width="256" xmlns="http://www.w3.org/2000/svg" xmlns:ev="http://www.w3.org/2001/xml-events" xmlns:xlink="http://www.w3.org/1999/xlink"><defs /><path d="M2135 898Q2105 898 2083.5 919.5Q2062 941 2062 971Q2062 1000 2083.5 1021.5Q2105 1043 2134 1043Q2164 1043 2185.0 1021.5Q2206 1000 2206 971Q2206 941 2185.0 919.5Q2164 898 2135 898ZM1885 755Q1856 755 1834.5 776.5Q1813 798 1813 827Q1813 856 1834.5 877.5Q1856 899 1885 899Q1916 899 1936.5 878.0Q1957 857 1957 827Q1957 797 1936.0 776.0Q1915 755 1885 755ZM1873 1231Q1843 1231 1822.0 1252.5Q1801 1274 1801 1303Q1801 1333 1822.5 1354.5Q1844 1376 1874 1376Q1903 1376 1924.0 1354.5Q1945 1333 1945 1304Q1945 1274 1924.0 1252.5Q1903 1231 1873 1231ZM1729 982Q1699 982 1678.0 1003.5Q1657 1025 1657 1055Q1657 1084 1678.5 1105.5Q1700 1127 1729 1127Q1759 1127 1780.5 1105.5Q1802 1084 1802 1054Q1802 1025 1780.0 1003.5Q1758 982 1729 982ZM2125 503Q2125 533 2146.0 554.0Q2167 575 2197 575Q2226 575 2247.0 553.5Q2268 532 2268 503Q2268 474 2247.0 452.5Q2226 431 2197 431Q2168 431 2146.5 452.5Q2125 474 2125 503ZM1837 503Q1837 533 1858.0 554.0Q1879 575 1909 575Q1939 575 1960.0 554.0Q1981 533 1981 503Q1981 474 1959.5 452.5Q1938 431 1909 431Q1880 431 1858.5 452.5Q1837 474 1837 503ZM677 898Q648 898 627.0 919.5Q606 941 606 971Q606 1000 627.0 1021.5Q648 1043 678 1043Q707 1043 728.5 1021.5Q750 1000 750 971Q750 941 728.5 919.5Q707 898 677 898ZM939 1231Q909 1231 888.0 1252.5Q867 1274 867 1303Q867 1333 888.0 1354.5Q909 1376 938 1376Q968 1376 989.5 1354.5Q1011 1333 1011 1303Q1011 1274 989.5 1252.5Q968 1231 939 1231ZM1406 1366Q1376 1366 1355.0 1387.0Q1334 1408 1334 1438Q1334 1467 1355.5 1488.5Q1377 1510 1406 1510Q1435 1510 1456.5 1488.5Q1478 1467 1478 1438Q1478 1408 1457.0 1387.0Q1436 1366 1406 1366ZM1406 1078Q1377 1078 1355.5 1099.5Q1334 1121 1334 1150Q1334 1180 1355.0 1201.0Q1376 1222 1406 1222Q1436 1222 1457.0 1201.0Q1478 1180 1478 1150Q1478 1121 1456.5 1099.5Q1435 1078 1406 1078ZM687 503Q687 474 665.5 452.5Q644 431 615 431Q586 431 564.5 452.5Q543 474 543 503Q543 532 564.5 553.5Q586 575 615 575Q645 575 666.0 554.0Q687 533 687 503ZM1837 144H1334Q1230 144 1138.0 183.5Q1046 223 978.0 291.0Q910 359 870.5 451.0Q831 543 831 647V693Q831 759 841.0 816.5Q851 874 880 935Q894 964 918.5 1001.5Q943 1039 974.5 1072.0Q1006 1105 1043.0 1127.5Q1080 1150 1118 1150Q1148 1150 1174.0 1138.5Q1200 1127 1219.5 1107.5Q1239 1088 1250.5 1062.0Q1262 1036 1262 1006Q1262 976 1250.5 950.0Q1239 924 1219.5 904.5Q1200 885 1174.0 874.0Q1148 863 1118 863Q1078 863 1047 882V719Q1047 689 1058.0 663.0Q1069 637 1088.5 617.5Q1108 598 1134.0 586.5Q1160 575 1190 575H1406Q1495 575 1573.5 541.0Q1652 507 1710.5 448.5Q1769 390 1803.0 311.5Q1837 233 1837 144Z" style="fill:#0027b4;stroke:none" transform="scale(1,-1) translate(0,-256)" /></svg>