<?xml version="1.0" encoding="utf-8" ?>
<svg baseProfile="full" height="256" version="1.1" width="256" xmlns="http://www.w3.org/2000/svg" xmlns:ev="http://www.w3.org/2001/xml-events" xmlns:xlink="http://www.w3.org/1999/xlink"><defs /><path d="M1047 315V-63Q1027 -63 1010.0 -54.0Q993 -45 975 -36L653 125Q635 134 625.0 151.5Q615 169 615 189V531Q615 541 618.5 551.0Q622 561 627 569L1007 379Q1025 370 1036.0 352.5Q1047 335 1047 315ZM1262 423V45Q1242 45 1225.0 54.0Q1208 63 1190 72V387Q1190 407 1180.0 424.0Q1170 441 1153 450L831 611V638Q831 658 842 677L1222 487Q1241 478 1251.5 461.0Q1262 444 1262 423Z" style="fill:#fce100;stroke:none" transform="scale(1,-1) translate(0,-256)" /></svg>