<?xml version="1.0" encoding="utf-8" ?>
<svg baseProfile="full" height="256" version="1.1" width="256" xmlns="http://www.w3.org/2000/svg" xmlns:ev="http://www.w3.org/2001/xml-events" xmlns:xlink="http://www.w3.org/1999/xlink"><defs /><path d="M1228 324 1262 423 1264 437Q1267 454 1277.5 466.5Q1288 479 1302 487L2113 893Q2118 884 2121.5 874.5Q2125 865 2125 854V512Q2125 494 2119.0 482.0Q2113 470 2103.0 461.0Q2093 452 2080.0 445.0Q2067 438 2053 431L1292 51Q1285 47 1277.5 46.0Q1270 45 1262 45L1214 232L1190 72Q1188 58 1188.0 45.5Q1188 33 1185.5 21.5Q1183 10 1176.0 0.0Q1169 -10 1153 -18Q1142 -24 1129.0 -31.5Q1116 -39 1102.0 -46.0Q1088 -53 1074.0 -58.0Q1060 -63 1047 -63L967 181L1047 315Q1047 335 1057.5 352.5Q1068 370 1086 379L1179 426Q1182 421 1190.0 405.5Q1198 390 1206.5 373.5Q1215 357 1221.5 342.5Q1228 328 1228 324Z" style="fill:#dfbe00;stroke:none" transform="scale(1,-1) translate(0,-256)" /></svg>