<?xml version="1.0" encoding="utf-8" ?>
<svg baseProfile="full" height="256" version="1.1" width="256" xmlns="http://www.w3.org/2000/svg" xmlns:ev="http://www.w3.org/2001/xml-events" xmlns:xlink="http://www.w3.org/1999/xlink"><defs /><path d="M256 -17V233L472 341V531Q472 559 480.0 587.5Q488 616 502.5 641.5Q517 667 538.0 687.5Q559 708 585 721Q623 740 660.5 758.5Q698 777 741 781Q753 795 768.5 808.0Q784 821 801 829L1600 1228Q1621 1239 1645.5 1244.0Q1670 1249 1693 1249Q1716 1249 1739.5 1244.5Q1763 1240 1783 1230L2152 1046Q2179 1032 2200.5 1011.5Q2222 991 2237.0 966.0Q2252 941 2260.0 912.5Q2268 884 2268 854V664L2484 556V307L1047 -412Z" style="fill:#000000;stroke:none" transform="scale(1,-1) translate(0,-256)" /></svg>