<?xml version="1.0" encoding="utf-8" ?>
<svg baseProfile="full" height="256" version="1.1" width="256" xmlns="http://www.w3.org/2000/svg" xmlns:ev="http://www.w3.org/2001/xml-events" xmlns:xlink="http://www.w3.org/1999/xlink"><defs /><path d="M1179 426 1047 288 627 569Q633 580 646.5 589.5Q660 599 675.5 607.0Q691 615 706.0 621.0Q721 627 730 632Q746 639 759 639Q780 639 796.0 628.5Q812 618 831 611L970 562Q990 555 1004.5 551.0Q1019 547 1039 538Q1049 533 1065.0 523.0Q1081 513 1098.0 502.0Q1115 491 1131.5 480.0Q1148 469 1160 462L842 677Q846 684 853.5 691.0Q861 698 868 702L1664 1099Q1677 1106 1693 1106Q1710 1106 1723 1099L2087 917Q2103 910 2113 893L1265 391L1167 457Q1173 451 1173.5 442.0Q1174 433 1179 426Z" style="fill:#faec6e;stroke:none" transform="scale(1,-1) translate(0,-256)" /></svg>