<?xml version="1.0" encoding="utf-8" ?>
<svg baseProfile="full" height="256" version="1.1" width="256" xmlns="http://www.w3.org/2000/svg" xmlns:ev="http://www.w3.org/2001/xml-events" xmlns:xlink="http://www.w3.org/1999/xlink"><defs /><path d="M1837 174 1930 267Q1951 288 1981 288Q2011 288 2032.0 267.0Q2053 246 2053 216Q2053 186 2032 165L1888 21Q1867 0 1837 0Q1823 0 1809.5 5.0Q1796 10 1786 21L1622 186L1457 21Q1436 0 1406 0Q1376 0 1355 21L1190 186L1026 21Q1006 0 975 0Q945 0 924 21L780 165Q759 186 759 216Q759 246 780.0 267.0Q801 288 831 288Q861 288 882 267L975 174L1140 339Q1161 360 1190 360Q1220 360 1241 339L1406 174L1571 339Q1592 360 1621 360Q1651 360 1672 339ZM1334 683Q1334 663 1323.0 645.5Q1312 628 1294 619L759 360V431L1101 683L759 935V1006L1294 747Q1312 738 1323.0 720.5Q1334 703 1334 683ZM2053 1006V935L1710 683L2053 431V360L1518 619Q1500 628 1489.0 645.5Q1478 663 1478 683Q1478 703 1489.0 720.5Q1500 738 1518 747Z" style="fill:#000000;stroke:none" transform="scale(1,-1) translate(0,-256)" /></svg>