<?xml version="1.0" encoding="utf-8" ?>
<svg baseProfile="full" height="256" version="1.1" width="256" xmlns="http://www.w3.org/2000/svg" xmlns:ev="http://www.w3.org/2001/xml-events" xmlns:xlink="http://www.w3.org/1999/xlink"><defs /><path d="M687 1078Q657 1078 636.0 1099.0Q615 1120 615 1150Q615 1180 636.0 1201.0Q657 1222 687 1222Q751 1222 801.0 1233.5Q851 1245 894.0 1266.5Q937 1288 977.5 1319.5Q1018 1351 1065 1392Q1079 1404 1089.5 1410.5Q1100 1417 1119 1417Q1148 1417 1169.5 1395.5Q1191 1374 1191 1345Q1191 1330 1186.0 1319.0Q1181 1308 1172 1297Q1132 1245 1075.5 1204.5Q1019 1164 954.0 1136.0Q889 1108 820.0 1093.0Q751 1078 687 1078ZM2125 1078Q2062 1078 1992.5 1093.0Q1923 1108 1858.0 1136.0Q1793 1164 1736.0 1204.5Q1679 1245 1640 1297Q1632 1308 1626.5 1319.5Q1621 1331 1621 1345Q1621 1374 1642.5 1395.5Q1664 1417 1693 1417Q1712 1417 1722.5 1410.5Q1733 1404 1747 1392Q1793 1351 1834.0 1319.5Q1875 1288 1918.0 1266.5Q1961 1245 2010.5 1233.5Q2060 1222 2125 1222Q2154 1222 2175.5 1200.5Q2197 1179 2197 1150Q2197 1121 2175.5 1099.5Q2154 1078 2125 1078Z" style="fill:#d48c00;stroke:none" transform="scale(1,-1) translate(0,-256)" /></svg>