<?xml version="1.0" encoding="utf-8" ?>
<svg baseProfile="full" height="256" version="1.1" width="256" xmlns="http://www.w3.org/2000/svg" xmlns:ev="http://www.w3.org/2001/xml-events" xmlns:xlink="http://www.w3.org/1999/xlink"><defs /><path d="M1909 360H1693L1684 386L1622 360H1334L1323 382Q1320 381 1310.5 377.5Q1301 374 1290.5 370.0Q1280 366 1271.0 363.0Q1262 360 1262 360H974L965 383L903 360H615L606 383L543 360V575H759L764 546L830 575H1119L1122 545L1189 575H1478L1491 550L1549 575H1837L1849 552L1909 575Z" style="fill:#f2f2f2;stroke:none" transform="scale(1,-1) translate(0,-256)" /></svg>