<?xml version="1.0" encoding="utf-8" ?>
<svg baseProfile="full" height="256" version="1.1" width="256" xmlns="http://www.w3.org/2000/svg" xmlns:ev="http://www.w3.org/2001/xml-events" xmlns:xlink="http://www.w3.org/1999/xlink"><defs /><path d="M2268 1438Q2328 1438 2380.5 1415.5Q2433 1393 2472.0 1354.0Q2511 1315 2533.5 1262.5Q2556 1210 2556 1150V144Q2556 85 2533.0 32.5Q2510 -20 2471.0 -59.0Q2432 -98 2379.5 -121.0Q2327 -144 2268 -144H543Q484 -144 432.0 -121.0Q380 -98 341.0 -58.5Q302 -19 279.0 33.0Q256 85 256 144V1150Q256 1208 279.0 1260.5Q302 1313 341.0 1352.5Q380 1392 432.0 1415.0Q484 1438 543 1438Z" style="fill:#000000;stroke:none" transform="scale(1,-1) translate(0,-256)" /></svg>