<?xml version="1.0" encoding="utf-8" ?>
<svg baseProfile="full" height="256" version="1.1" width="256" xmlns="http://www.w3.org/2000/svg" xmlns:ev="http://www.w3.org/2001/xml-events" xmlns:xlink="http://www.w3.org/1999/xlink"><defs /><path d="M558 -431 402 831Q402 834 395.5 854.5Q389 875 379.0 904.5Q369 934 357.5 968.5Q346 1003 335.5 1033.5Q325 1064 317.0 1087.0Q309 1110 307 1117L401 1212L275 1465Q256 1505 256 1545Q256 1582 270.0 1615.0Q284 1648 308.0 1672.5Q332 1697 364.5 1711.0Q397 1725 434 1725Q463 1725 490.5 1715.5Q518 1706 541 1689Q541 1726 555.5 1758.5Q570 1791 594.0 1815.5Q618 1840 650.5 1854.5Q683 1869 720 1869Q751 1869 779.0 1859.0Q807 1849 830.0 1830.5Q853 1812 869.0 1787.0Q885 1762 893 1732L949 1510H1315L1363 1461L1411 1510H2243L2556 1194L2497 955Q2492 938 2488.0 923.5Q2484 909 2480.0 895.5Q2476 882 2473.0 868.0Q2470 854 2467 836Q2458 774 2451.5 723.5Q2445 673 2439.5 625.0Q2434 577 2428.0 526.0Q2422 475 2415 414L2310 -431Z" style="fill:#000000;stroke:none" transform="scale(1,-1) translate(0,-256)" /></svg>