<?xml version="1.0" encoding="utf-8" ?>
<svg baseProfile="full" height="256" version="1.1" width="256" xmlns="http://www.w3.org/2000/svg" xmlns:ev="http://www.w3.org/2001/xml-events" xmlns:xlink="http://www.w3.org/1999/xlink"><defs /><path d="M1047 503Q1047 474 1068.5 452.5Q1090 431 1119 431Q1149 431 1175.0 420.0Q1201 409 1220.5 389.5Q1240 370 1251.0 344.0Q1262 318 1262 288H1190Q1190 317 1169.0 338.5Q1148 360 1119 360Q1087 360 1061.5 371.0Q1036 382 1017.5 401.0Q999 420 988.5 446.5Q978 473 975 503L957 696Q954 724 951.0 743.5Q948 763 948 792Q948 824 961.0 853.5Q974 883 996.5 906.0Q1019 929 1048.0 943.0Q1077 957 1109 957Q1124 957 1144.0 954.5Q1164 952 1185.0 948.5Q1206 945 1226.5 941.0Q1247 937 1262 935V863H1119Q1089 863 1068.0 842.0Q1047 821 1047 791Z" style="fill:#ffc83d;stroke:none" transform="scale(1,-1) translate(0,-256)" /></svg>