<?xml version="1.0" encoding="utf-8" ?>
<svg baseProfile="full" height="256" version="1.1" width="256" xmlns="http://www.w3.org/2000/svg" xmlns:ev="http://www.w3.org/2001/xml-events" xmlns:xlink="http://www.w3.org/1999/xlink"><defs /><path d="M939 791Q927 791 917.0 798.5Q907 806 904 818Q900 832 889.0 876.0Q878 920 862.0 982.5Q846 1045 827.0 1120.5Q808 1196 788.5 1273.0Q769 1350 750.5 1423.0Q732 1496 718.0 1553.5Q704 1611 695.5 1647.5Q687 1684 687 1689Q687 1703 697.5 1714.0Q708 1725 723 1725Q735 1725 745.0 1717.5Q755 1710 758 1698Q762 1684 773.0 1640.0Q784 1596 800.0 1533.5Q816 1471 835.0 1395.5Q854 1320 873.5 1243.0Q893 1166 911.5 1093.0Q930 1020 944.0 962.5Q958 905 966.5 868.0Q975 831 975 827Q975 812 964.5 801.5Q954 791 939 791ZM795 791Q773 791 763 811L404 1529Q400 1536 400 1546Q400 1560 410.0 1570.5Q420 1581 435 1581Q445 1581 454.0 1576.0Q463 1571 468 1562L827 843Q831 836 831 827Q831 812 820.0 801.5Q809 791 795 791Z" style="fill:#bb9167;stroke:none" transform="scale(1,-1) translate(0,-256)" /></svg>