<?xml version="1.0" encoding="utf-8" ?>
<svg baseProfile="full" height="256" version="1.1" width="256" xmlns="http://www.w3.org/2000/svg" xmlns:ev="http://www.w3.org/2001/xml-events" xmlns:xlink="http://www.w3.org/1999/xlink"><defs /><path d="M1118 1006Q1144 1006 1170.5 1000.0Q1197 994 1220 981L1253 924L1202 908Q1183 921 1162.0 928.0Q1141 935 1118 935Q1088 935 1062.0 923.5Q1036 912 1016.5 892.5Q997 873 986.0 847.0Q975 821 975 791V503Q975 473 963.5 447.0Q952 421 932.5 401.5Q913 382 887.0 371.0Q861 360 831 360V431Q860 431 881.5 452.5Q903 474 903 503V791Q903 836 920.0 875.0Q937 914 966.0 943.0Q995 972 1034.0 989.0Q1073 1006 1118 1006Z" style="fill:#ffd679;stroke:none" transform="scale(1,-1) translate(0,-256)" /></svg>