<?xml version="1.0" encoding="utf-8" ?>
<svg baseProfile="full" height="256" version="1.1" width="256" xmlns="http://www.w3.org/2000/svg" xmlns:ev="http://www.w3.org/2001/xml-events" xmlns:xlink="http://www.w3.org/1999/xlink"><defs /><path d="M2313 647H1217L1199 791H2331ZM2224 -72 2206 -215H1325L1307 -72ZM2053 180Q2013 131 1957.0 101.5Q1901 72 1837 72Q1773 72 1717.5 101.5Q1662 131 1622 180L1837 288Q1794 288 1757.0 308.0Q1720 328 1693 360L1837 431Q1816 431 1797.5 441.0Q1779 451 1765 467L1837 503L1909 467Q1895 450 1876.5 440.5Q1858 431 1837 431L1981 360Q1954 328 1917.0 308.0Q1880 288 1837 288Z" style="fill:#e81224;stroke:none" transform="scale(1,-1) translate(0,-256)" /></svg>