<?xml version="1.0" encoding="utf-8" ?>
<svg baseProfile="full" height="256" version="1.1" width="256" xmlns="http://www.w3.org/2000/svg" xmlns:ev="http://www.w3.org/2001/xml-events" xmlns:xlink="http://www.w3.org/1999/xlink"><defs /><path d="M2197 791H2125Q2066 791 2013.5 813.5Q1961 836 1922.0 875.0Q1883 914 1860.0 966.5Q1837 1019 1837 1078V1366H1406V935Q1377 935 1355.5 955.5Q1334 976 1334 1006V1366H975V1078Q975 1019 952.0 966.5Q929 914 890.0 875.0Q851 836 798.5 813.5Q746 791 687 791H615L633 863H687Q732 863 771.0 880.0Q810 897 839.5 926.0Q869 955 886.0 994.0Q903 1033 903 1078V1366H759V1510H2053V1366H1909V1078Q1909 1033 1926.0 994.0Q1943 955 1972.5 926.0Q2002 897 2041.0 880.0Q2080 863 2125 863H2179ZM436 72 1298 -144 1262 -287 400 -72ZM2412 -72 1550 -287 1514 -144 2376 72Z" style="fill:#d48c00;stroke:none" transform="scale(1,-1) translate(0,-256)" /></svg>