<?xml version="1.0" encoding="utf-8" ?>
<svg baseProfile="full" height="256" version="1.1" width="256" xmlns="http://www.w3.org/2000/svg" xmlns:ev="http://www.w3.org/2001/xml-events" xmlns:xlink="http://www.w3.org/1999/xlink"><defs /><path d="M1961 -144H1514L1429 195Q1424 213 1406 213Q1388 213 1383 195L1298 -144L829 -120L436 72L615 791L656 825L633 863L759 1366L1186 1425Q1217 1429 1242.5 1434.5Q1268 1440 1292.0 1444.5Q1316 1449 1341.5 1452.0Q1367 1455 1399 1455Q1431 1455 1457.5 1452.0Q1484 1449 1508.5 1444.5Q1533 1440 1559.0 1434.5Q1585 1429 1617 1425L2053 1366L2179 863L2138 827L2197 791L2376 72Z" style="fill:#ffb900;stroke:none" transform="scale(1,-1) translate(0,-256)" /></svg>