<?xml version="1.0" encoding="utf-8" ?>
<svg baseProfile="full" height="256" version="1.1" width="256" xmlns="http://www.w3.org/2000/svg" xmlns:ev="http://www.w3.org/2001/xml-events" xmlns:xlink="http://www.w3.org/1999/xlink"><defs /><path d="M2053 1653Q2083 1653 2109.0 1642.0Q2135 1631 2154.5 1611.5Q2174 1592 2185.5 1566.0Q2197 1540 2197 1510Q2197 1494 2196.0 1469.5Q2195 1445 2195 1422Q2195 1411 2195.5 1401.0Q2196 1391 2197 1384Q2200 1366 2206.0 1340.0Q2212 1314 2219.5 1286.0Q2227 1258 2234.0 1231.0Q2241 1204 2246 1185L2516 107Q2520 90 2527.0 66.0Q2534 42 2540.5 17.0Q2547 -8 2551.5 -31.5Q2556 -55 2556 -72Q2556 -122 2525.5 -160.5Q2495 -199 2447 -211L1585 -427Q1570 -431 1550 -431Q1492 -431 1455.0 -395.0Q1418 -359 1406 -305Q1394 -359 1357.0 -395.0Q1320 -431 1262 -431Q1242 -431 1227 -427L365 -211Q317 -199 286.5 -160.5Q256 -122 256 -72Q256 -55 260.5 -31.5Q265 -8 271.5 17.0Q278 42 285.0 66.0Q292 90 296 107L566 1185Q571 1204 578.0 1231.0Q585 1258 592.5 1286.0Q600 1314 606.0 1340.0Q612 1366 615 1384Q616 1391 616.5 1401.0Q617 1411 617 1422Q617 1445 616.0 1469.5Q615 1494 615 1510Q615 1540 626.5 1566.0Q638 1592 657.5 1611.5Q677 1631 703.0 1642.0Q729 1653 759 1653H2053Z" style="fill:#000000;stroke:none" transform="scale(1,-1) translate(0,-256)" /></svg>