<?xml version="1.0" encoding="utf-8" ?>
<svg baseProfile="full" height="256" version="1.1" width="256" xmlns="http://www.w3.org/2000/svg" xmlns:ev="http://www.w3.org/2001/xml-events" xmlns:xlink="http://www.w3.org/1999/xlink"><defs /><path d="M400 575H1262Q1290 564 1319.0 557.5Q1348 551 1378 551Q1431 551 1478 575H2412V-287H1478Q1440 -287 1401.5 -275.0Q1363 -263 1325 -255Q1242 -239 1158.0 -233.0Q1074 -227 990 -227Q900 -227 811.5 -234.5Q723 -242 634 -256Q599 -262 572.0 -267.5Q545 -273 519.0 -277.5Q493 -282 465.0 -284.5Q437 -287 400 -287Z" style="fill:#16c60c;stroke:none" transform="scale(1,-1) translate(0,-256)" /></svg>