<?xml version="1.0" encoding="utf-8" ?>
<svg baseProfile="full" height="256" version="1.1" width="256" xmlns="http://www.w3.org/2000/svg" xmlns:ev="http://www.w3.org/2001/xml-events" xmlns:xlink="http://www.w3.org/1999/xlink"><defs /><path d="M472 -287Q568 -180 682.0 -88.0Q796 4 924.0 71.5Q1052 139 1191.5 177.5Q1331 216 1478 216Q1508 216 1534.0 227.0Q1560 238 1579.5 257.5Q1599 277 1610.5 303.0Q1622 329 1622 359Q1622 389 1610.5 415.0Q1599 441 1579.5 460.5Q1560 480 1534.0 491.5Q1508 503 1478 503H1262V575H1478Q1563 575 1643.5 554.5Q1724 534 1797.0 496.5Q1870 459 1934.5 406.0Q1999 353 2053 288L1574 -24Q1553 -38 1535.0 -60.0Q1517 -82 1504.5 -108.0Q1492 -134 1485.0 -162.0Q1478 -190 1478 -215V-287Z" style="fill:#31d2f7;stroke:none" transform="scale(1,-1) translate(0,-256)" /></svg>