<?xml version="1.0" encoding="utf-8" ?>
<svg baseProfile="full" height="256" version="1.1" width="256" xmlns="http://www.w3.org/2000/svg" xmlns:ev="http://www.w3.org/2001/xml-events" xmlns:xlink="http://www.w3.org/1999/xlink"><defs /><path d="M1406 1581Q1453 1581 1485.5 1561.5Q1518 1542 1550 1510L1837 1222Q1811 1222 1795.5 1210.5Q1780 1199 1766.0 1185.5Q1752 1172 1736.0 1161.0Q1720 1150 1693 1150Q1667 1150 1651.0 1161.0Q1635 1172 1621.5 1185.5Q1608 1199 1592.0 1210.5Q1576 1222 1550 1222Q1524 1222 1508.0 1210.5Q1492 1199 1477.5 1185.5Q1463 1172 1447.0 1161.0Q1431 1150 1406 1150Q1380 1150 1364.0 1161.0Q1348 1172 1333.5 1185.5Q1319 1199 1303.0 1210.5Q1287 1222 1262 1222Q1236 1222 1220.5 1210.5Q1205 1199 1191.0 1185.5Q1177 1172 1161.0 1161.0Q1145 1150 1118 1150Q1092 1150 1076.0 1161.0Q1060 1172 1046.5 1185.5Q1033 1199 1017.0 1210.5Q1001 1222 975 1222L1262 1510Q1294 1542 1326.5 1561.5Q1359 1581 1406 1581Z" style="fill:#f2f2f2;stroke:none" transform="scale(1,-1) translate(0,-256)" /></svg>