<?xml version="1.0" encoding="utf-8" ?>
<svg baseProfile="full" height="256" version="1.1" width="256" xmlns="http://www.w3.org/2000/svg" xmlns:ev="http://www.w3.org/2001/xml-events" xmlns:xlink="http://www.w3.org/1999/xlink"><defs /><path d="M2412 647V575L1773 479Q1733 473 1693.0 464.5Q1653 456 1613.5 448.5Q1574 441 1534.0 436.0Q1494 431 1453 431Q1408 431 1364.0 436.0Q1320 441 1276.5 448.5Q1233 456 1189.5 464.5Q1146 473 1102 479L400 575V647L975 1222Q1078 1264 1186.0 1286.5Q1294 1309 1406 1309Q1518 1309 1626.0 1286.5Q1734 1264 1837 1222Q1982 1077 2124.0 933.5Q2266 790 2412 647Z" style="fill:#cccccc;stroke:none" transform="scale(1,-1) translate(0,-256)" /></svg>