<?xml version="1.0" encoding="utf-8" ?>
<svg baseProfile="full" height="256" version="1.1" width="256" xmlns="http://www.w3.org/2000/svg" xmlns:ev="http://www.w3.org/2001/xml-events" xmlns:xlink="http://www.w3.org/1999/xlink"><defs /><path d="M1981 431 2116 332Q2133 319 2151.0 308.5Q2169 298 2183 282Q2204 259 2221.0 233.5Q2238 208 2257 183L2405 -15Q2412 -26 2412 -36Q2412 -50 2401.0 -61.0Q2390 -72 2376 -72Q2371 -72 2353.0 -63.5Q2335 -55 2309.5 -42.5Q2284 -30 2255.5 -14.5Q2227 1 2200.5 15.5Q2174 30 2153.5 41.5Q2133 53 2125 58V-36Q2125 -50 2114.0 -61.0Q2103 -72 2089 -72Q2083 -72 2074.5 -69.0Q2066 -66 2062 -60L1981 72L1900 -60Q1896 -66 1887.5 -69.0Q1879 -72 1873 -72Q1849 -72 1843.0 -57.0Q1837 -42 1837 -23V0L1608 -64Q1601 -66 1597.5 -69.0Q1594 -72 1586 -72Q1571 -72 1560.5 -61.0Q1550 -50 1550 -35Q1550 -24 1556 -15L1705 183Q1724 208 1741.0 233.5Q1758 259 1779 282Q1793 298 1811.0 308.5Q1829 319 1846 332ZM738 360Q742 360 745.5 360.5Q749 361 753 361Q766 361 772 355Q776 351 787.5 336.5Q799 322 813.5 302.5Q828 283 844.0 261.0Q860 239 873.0 219.5Q886 200 894.5 186.0Q903 172 903 169Q903 144 878 144Q870 144 853.5 156.0Q837 168 818.5 183.5Q800 199 783.0 214.0Q766 229 759 235V169Q759 144 734 144Q728 144 723.5 145.5Q719 147 715 152L651 244L587 152Q584 148 578.5 146.0Q573 144 568 144Q551 144 546.0 159.5Q541 175 541 193Q541 206 542.0 217.0Q543 228 543 235Q536 229 519.5 214.0Q503 199 484.0 183.0Q465 167 448.5 155.0Q432 143 425 143Q414 143 406.5 149.5Q399 156 399 167Q399 170 407.5 184.0Q416 198 429.5 217.5Q443 237 459.0 259.5Q475 282 489.5 302.0Q504 322 515.0 336.5Q526 351 530 355Q534 359 539.5 360.0Q545 361 550 361Q555 361 558.5 360.5Q562 360 565 360Q560 368 555.5 375.5Q551 383 551 393Q551 404 557.5 412.0Q564 420 575 420Q582 420 592.5 414.0Q603 408 613.5 399.0Q624 390 633.5 381.0Q643 372 649 366Q650 365 652 365Q657 365 669.5 373.5Q682 382 697.0 392.0Q712 402 726.5 410.5Q741 419 751 419Q763 419 770.0 410.5Q777 402 777 391Q777 381 771 374ZM1313 647Q1317 647 1320.5 647.5Q1324 648 1328 648Q1333 648 1338.5 647.0Q1344 646 1347 642Q1352 637 1363.5 622.0Q1375 607 1389.5 588.0Q1404 569 1419.5 547.5Q1435 526 1448.0 507.0Q1461 488 1469.5 474.0Q1478 460 1478 456Q1478 431 1453 431Q1446 431 1429.0 443.5Q1412 456 1393.5 471.5Q1375 487 1358.0 502.0Q1341 517 1334 523V457Q1334 446 1327.0 438.5Q1320 431 1309 431Q1296 431 1290 440L1226 532L1162 440Q1156 431 1143 431Q1132 431 1125.0 438.5Q1118 446 1118 457V523Q1111 517 1094.5 502.0Q1078 487 1059.5 471.5Q1041 456 1024.0 443.5Q1007 431 1000 431Q989 431 981.5 437.0Q974 443 974 454Q974 457 982.5 471.0Q991 485 1004.0 504.5Q1017 524 1032.5 546.0Q1048 568 1063.0 587.5Q1078 607 1089.5 622.0Q1101 637 1105 642Q1110 648 1124 648Q1129 648 1133.0 647.5Q1137 647 1140 647Q1135 655 1130.5 662.5Q1126 670 1126 680Q1126 691 1132.0 699.5Q1138 708 1150 708Q1159 708 1169.0 701.0Q1179 694 1189.0 684.5Q1199 675 1208.5 665.5Q1218 656 1226 651L1308 698Q1314 706 1325 706Q1336 706 1344.0 698.0Q1352 690 1352 679Q1352 668 1346 661Z" style="fill:#107c10;stroke:none" transform="scale(1,-1) translate(0,-256)" /></svg>