<?xml version="1.0" encoding="utf-8" ?>
<svg baseProfile="full" height="256" version="1.1" width="256" xmlns="http://www.w3.org/2000/svg" xmlns:ev="http://www.w3.org/2001/xml-events" xmlns:xlink="http://www.w3.org/1999/xlink"><defs /><path d="M2220 360 2334 201Q2340 192 2340 180Q2340 165 2329.5 154.5Q2319 144 2304 144Q2292 144 2282 152L2073 314L2014 167Q2004 144 1981 144Q1958 144 1948 167L1889 314L1680 152Q1670 144 1658 144Q1643 144 1632.5 154.5Q1622 165 1622 180Q1622 192 1628 201L1742 360Q1723 360 1708.0 366.5Q1693 373 1693 396Q1693 405 1706.0 425.0Q1719 445 1735.5 467.5Q1752 490 1768.0 510.5Q1784 531 1790 541Q1779 545 1772.0 554.5Q1765 564 1765 575Q1765 580 1767.5 586.0Q1770 592 1773 596L1952 847Q1957 854 1965.0 858.5Q1973 863 1981 863Q1989 863 1997.0 858.5Q2005 854 2010 847L2189 596Q2192 592 2194.5 586.0Q2197 580 2197 575Q2197 564 2190.0 554.5Q2183 545 2172 542L2261 417Q2268 406 2268 396Q2268 373 2254.0 366.5Q2240 360 2220 360ZM819 360Q825 352 838.5 334.5Q852 317 866.5 298.0Q881 279 892.0 262.0Q903 245 903 238Q903 227 896.0 221.5Q889 216 878 216Q872 216 860.0 223.5Q848 231 832.0 242.5Q816 254 798.5 268.0Q781 282 764.5 295.0Q748 308 735.0 319.0Q722 330 716 335L675 232Q669 216 651 216Q634 216 628 232L587 335Q578 328 554.0 308.5Q530 289 503.5 268.0Q477 247 454.0 231.0Q431 215 425 215Q414 215 406.5 221.0Q399 227 399 238Q399 245 410.0 262.0Q421 279 435.5 298.5Q450 318 464.0 335.0Q478 352 484 360Q469 360 459.5 366.0Q450 372 450 389Q450 398 458.5 412.5Q467 427 478.0 442.5Q489 458 500.5 472.0Q512 486 518 494Q500 498 500 518Q500 522 508.5 536.0Q517 550 530.0 569.5Q543 589 558.5 611.0Q574 633 589.0 653.0Q604 673 615.0 688.0Q626 703 631 708Q636 713 639.5 716.0Q643 719 651 719Q663 719 672 708Q676 702 687.5 687.0Q699 672 713.5 652.0Q728 632 743.5 609.5Q759 587 772.0 567.5Q785 548 793.5 534.0Q802 520 802 517Q802 500 785 493Q790 487 801.5 472.5Q813 458 824.5 442.0Q836 426 844.5 411.0Q853 396 853 389Q853 373 843.0 366.5Q833 360 819 360ZM1394 647Q1400 639 1413.5 621.5Q1427 604 1441.5 585.0Q1456 566 1467.0 549.0Q1478 532 1478 525Q1478 515 1470.0 509.0Q1462 503 1453 503Q1446 503 1423.0 519.0Q1400 535 1374.0 555.5Q1348 576 1324.0 595.5Q1300 615 1291 622L1250 519Q1244 503 1226 503Q1209 503 1203 519L1162 622Q1156 617 1143.0 606.5Q1130 596 1113.5 583.0Q1097 570 1079.0 555.5Q1061 541 1044.5 529.0Q1028 517 1016.0 509.5Q1004 502 1000 502Q990 502 982.0 508.5Q974 515 974 525Q974 532 985.0 549.0Q996 566 1010.5 585.5Q1025 605 1039.0 622.0Q1053 639 1059 647Q1044 647 1034.5 653.0Q1025 659 1025 676Q1025 685 1033.5 699.5Q1042 714 1053.0 729.5Q1064 745 1075.5 759.5Q1087 774 1093 782Q1075 786 1075 805Q1075 808 1083.5 822.0Q1092 836 1105.0 855.5Q1118 875 1134.0 897.5Q1150 920 1164.5 940.0Q1179 960 1190.5 975.0Q1202 990 1206 995Q1215 1006 1226 1006Q1234 1006 1238.0 1003.0Q1242 1000 1247 995Q1251 989 1262.5 974.0Q1274 959 1288.5 939.0Q1303 919 1318.5 897.0Q1334 875 1347.0 855.5Q1360 836 1368.5 822.5Q1377 809 1377 805Q1377 785 1360 781Q1365 775 1376.5 760.5Q1388 746 1399.5 729.5Q1411 713 1419.5 698.0Q1428 683 1428 676Q1428 660 1418.0 653.5Q1408 647 1394 647Z" style="fill:#13a10e;stroke:none" transform="scale(1,-1) translate(0,-256)" /></svg>