<?xml version="1.0" encoding="utf-8" ?>
<svg baseProfile="full" height="256" version="1.1" width="256" xmlns="http://www.w3.org/2000/svg" xmlns:ev="http://www.w3.org/2001/xml-events" xmlns:xlink="http://www.w3.org/1999/xlink"><defs /><path d="M256 -431V707L1156 1607Q1183 1634 1210.5 1656.0Q1238 1678 1268.0 1693.0Q1298 1708 1332.0 1716.5Q1366 1725 1406 1725Q1484 1725 1543.0 1693.0Q1602 1661 1656 1607Q1802 1461 1915.5 1347.0Q2029 1233 2116.0 1145.5Q2203 1058 2266.0 994.5Q2329 931 2374.0 885.5Q2419 840 2448.5 810.5Q2478 781 2497.5 761.5Q2517 742 2530.5 729.5Q2544 717 2556 707V-431Z" style="fill:#000000;stroke:none" transform="scale(1,-1) translate(0,-256)" /></svg>