<?xml version="1.0" encoding="utf-8" ?>
<svg baseProfile="full" height="256" version="1.1" width="256" xmlns="http://www.w3.org/2000/svg" xmlns:ev="http://www.w3.org/2001/xml-events" xmlns:xlink="http://www.w3.org/1999/xlink"><defs /><path d="M400 575H759Q832 575 903.0 558.5Q974 542 1041 515Q1134 477 1214.0 420.0Q1294 363 1352.5 288.5Q1411 214 1444.5 123.5Q1478 33 1478 -72H2412Q2410 -120 2394.0 -160.0Q2378 -200 2349.5 -228.0Q2321 -256 2281.5 -271.5Q2242 -287 2193 -287H1190Q1190 -187 1163.5 -96.0Q1137 -5 1084.0 64.5Q1031 134 949.5 175.0Q868 216 759 216V-287H400Z" style="fill:#d8b094;stroke:none" transform="scale(1,-1) translate(0,-256)" /></svg>