<?xml version="1.0" encoding="utf-8" ?>
<svg baseProfile="full" height="256" version="1.1" width="256" xmlns="http://www.w3.org/2000/svg" xmlns:ev="http://www.w3.org/2001/xml-events" xmlns:xlink="http://www.w3.org/1999/xlink"><defs /><path d="M1585 616 2556 72V-72Q2556 -150 2528.5 -216.0Q2501 -282 2452.0 -329.5Q2403 -377 2337.0 -404.0Q2271 -431 2193 -431H1047V-351Q1047 -297 1043.5 -241.0Q1040 -185 1025.5 -133.5Q1011 -82 982.0 -38.0Q953 6 903 36V-431H256V719H759Q851 719 943.5 697.5Q1036 676 1123.0 636.5Q1210 597 1288.0 542.0Q1366 487 1428 420Z" style="fill:#000000;stroke:none" transform="scale(1,-1) translate(0,-256)" /></svg>