<?xml version="1.0" encoding="utf-8" ?>
<svg baseProfile="full" height="256" version="1.1" width="256" xmlns="http://www.w3.org/2000/svg" xmlns:ev="http://www.w3.org/2001/xml-events" xmlns:xlink="http://www.w3.org/1999/xlink"><defs /><path d="M493 412Q493 426 502 435L616 548Q626 558 638 558Q651 558 661 548L734 475Q744 465 744 452Q744 440 734 430L621 316Q612 307 598 307Q585 307 576 316L502 390Q493 399 493 412ZM994 -89Q994 -77 1004 -67L1118 47Q1127 56 1140 56Q1153 56 1162 47L1236 -27Q1245 -36 1245 -50Q1245 -63 1236 -72L1122 -185Q1112 -195 1100 -195Q1088 -195 1078 -185L1004 -111Q994 -101 994 -89ZM1569 1488Q1569 1502 1578 1511L1691 1624Q1701 1634 1714 1634Q1726 1634 1736 1624L1810 1550Q1820 1540 1820 1528Q1820 1515 1810 1505L1697 1392Q1688 1383 1674 1383Q1661 1383 1652 1392L1578 1466Q1569 1475 1569 1488ZM2070 987Q2070 1000 2079 1009L2193 1123Q2202 1132 2215 1132Q2229 1132 2238 1123L2312 1048Q2321 1039 2321 1026Q2321 1013 2312 1004L2198 890Q2189 881 2176 881Q2163 881 2154 890L2079 965Q2070 974 2070 987Z" style="fill:#ffffff;stroke:none" transform="scale(1,-1) translate(0,-256)" /></svg>