<?xml version="1.0" encoding="utf-8" ?>
<svg baseProfile="full" height="256" version="1.1" width="256" xmlns="http://www.w3.org/2000/svg" xmlns:ev="http://www.w3.org/2001/xml-events" xmlns:xlink="http://www.w3.org/1999/xlink"><defs /><path d="M2086 1721Q2087 1713 2087.5 1704.0Q2088 1695 2088 1686Q2088 1614 2061.0 1549.0Q2034 1484 1983 1433L1147 590Q1069 511 991.5 432.5Q914 354 833 277L820 264Q769 215 715.5 166.5Q662 118 602 80Q567 58 534.5 48.0Q502 38 460 38Q446 38 432.5 38.5Q419 39 405 40Q404 49 403.5 58.0Q403 67 403 76Q403 81 403.5 85.0Q404 89 404 94Q418 92 432.5 90.5Q447 89 462 89Q497 89 527.0 101.5Q557 114 586 134Q648 177 704.0 230.0Q760 283 814 335Q971 489 1126 647Q1332 855 1536.0 1059.0Q1740 1263 1945 1471Q1987 1514 2010.0 1569.0Q2033 1624 2033 1684Q2033 1694 2033.0 1703.0Q2033 1712 2031 1721Q2038 1722 2044.5 1722.0Q2051 1722 2058 1722Q2066 1722 2072.5 1722.0Q2079 1722 2086 1721ZM2408 1398Q2409 1389 2409.5 1380.0Q2410 1371 2410 1362Q2410 1357 2409.5 1353.0Q2409 1349 2409 1344Q2400 1346 2391.0 1346.0Q2382 1346 2372 1346Q2312 1346 2256.5 1322.5Q2201 1299 2158 1257Q1950 1053 1746.0 848.5Q1542 644 1335 439Q1177 284 1023 127Q971 73 918.0 17.5Q865 -38 822 -100Q802 -129 789.5 -158.5Q777 -188 777 -223Q777 -239 778.5 -254.0Q780 -269 782 -284Q777 -284 773.0 -284.5Q769 -285 764 -285Q754 -285 745.0 -284.5Q736 -284 727 -283Q725 -268 724.0 -253.0Q723 -238 723 -222Q723 -182 735.0 -150.0Q747 -118 769 -84Q807 -24 856.5 30.0Q906 84 957 136L971 150Q1049 231 1127.5 309.5Q1206 388 1285 466Q1496 674 1702.5 880.5Q1909 1087 2120 1295Q2173 1348 2238.0 1373.5Q2303 1399 2378 1399Q2386 1399 2393.0 1399.0Q2400 1399 2408 1398Z" style="fill:#3a96dd;stroke:none" transform="scale(1,-1) translate(0,-256)" /></svg>