<?xml version="1.0" encoding="utf-8" ?>
<svg baseProfile="full" height="256" version="1.1" width="256" xmlns="http://www.w3.org/2000/svg" xmlns:ev="http://www.w3.org/2001/xml-events" xmlns:xlink="http://www.w3.org/1999/xlink"><defs /><path d="M2158 968 1941 1185Q1936 1168 1921.5 1158.5Q1907 1149 1890 1149Q1867 1149 1852.0 1164.5Q1837 1180 1837 1203Q1837 1221 1846.5 1234.5Q1856 1248 1873 1253L1656 1470L1732 1546L2234 1044ZM1158 -31 1082 -107 580 394 656 470 873 254Q878 270 892.0 279.5Q906 289 923 289Q946 289 961.0 273.0Q976 257 976 234Q976 217 967.0 204.0Q958 191 942 185Z" style="fill:#bac8cc;stroke:none" transform="scale(1,-1) translate(0,-256)" /></svg>