<?xml version="1.0" encoding="utf-8" ?>
<svg baseProfile="full" height="256" version="1.1" width="256" xmlns="http://www.w3.org/2000/svg" xmlns:ev="http://www.w3.org/2001/xml-events" xmlns:xlink="http://www.w3.org/1999/xlink"><defs /><path d="M476 61Q462 61 447.0 62.5Q432 64 418 66Q416 74 410.0 81.5Q404 89 404 94Q404 141 414.5 175.5Q425 210 451 248Q487 303 532.0 351.5Q577 400 622 447Q699 527 776.5 603.5Q854 680 932 758Q1150 974 1364.5 1188.5Q1579 1403 1798 1618Q1843 1663 1904.5 1692.0Q1966 1721 2031 1721Q2037 1721 2043.0 1720.5Q2049 1720 2055 1719Q2059 1703 2059 1683Q2059 1616 2034.5 1558.0Q2010 1500 1963 1452Q1882 1368 1799.5 1287.0Q1717 1206 1635 1123L1146 626Q1068 547 991.0 468.5Q914 390 835 312Q781 259 725.0 205.5Q669 152 606 108Q576 87 545.0 74.0Q514 61 476 61ZM2396 1363Q2398 1355 2403.5 1353.0Q2409 1351 2409 1344Q2409 1279 2379.5 1217.0Q2350 1155 2305 1110Q2088 890 1872.0 674.0Q1656 458 1438 238Q1360 160 1283.0 82.5Q1206 5 1126 -71Q1080 -116 1032.0 -160.0Q984 -204 930 -239Q911 -252 894.0 -260.5Q877 -269 859.5 -274.5Q842 -280 823.0 -282.0Q804 -284 782 -284Q776 -284 770.5 -280.0Q765 -276 758 -275V-245Q756 -238 755.0 -231.0Q754 -224 754 -216Q754 -178 766.0 -147.5Q778 -117 799 -86Q837 -29 884.0 22.0Q931 73 979 122L1810 946Q1894 1028 1975.0 1111.5Q2056 1195 2140 1276Q2185 1320 2237.0 1343.0Q2289 1366 2352 1366Q2373 1366 2396 1363Z" style="fill:#0063b1;stroke:none" transform="scale(1,-1) translate(0,-256)" /></svg>