<?xml version="1.0" encoding="utf-8" ?>
<svg baseProfile="full" height="256" version="1.1" width="256" xmlns="http://www.w3.org/2000/svg" xmlns:ev="http://www.w3.org/2001/xml-events" xmlns:xlink="http://www.w3.org/1999/xlink"><defs /><path d="M940 381Q956 381 966 371L1059 279Q1069 269 1069 253Q1069 238 1059 228L894 64Q883 53 869 53Q855 53 844 64L751 156Q740 167 740 181Q740 196 751 207L915 371Q925 381 940 381ZM1872 1056Q1858 1056 1847 1067L1754 1159Q1743 1170 1743 1184Q1743 1199 1754 1210L1919 1374Q1929 1384 1944 1384Q1959 1384 1969 1374L2062 1282Q2072 1272 2072 1256Q2072 1241 2062 1231L1898 1067Q1887 1056 1872 1056Z" style="fill:#4a5459;stroke:none" transform="scale(1,-1) translate(0,-256)" /></svg>