<?xml version="1.0" encoding="utf-8" ?>
<svg baseProfile="full" height="256" version="1.1" width="256" xmlns="http://www.w3.org/2000/svg" xmlns:ev="http://www.w3.org/2001/xml-events" xmlns:xlink="http://www.w3.org/1999/xlink"><defs /><path d="M1757 1770Q1821 1817 1894.5 1843.0Q1968 1869 2048 1869Q2149 1869 2241.5 1827.5Q2334 1786 2404.0 1716.0Q2474 1646 2515.5 1554.0Q2557 1462 2557 1361Q2557 1281 2531.0 1207.5Q2505 1134 2458 1070Q2464 1047 2464 1025Q2464 989 2451.0 959.0Q2438 929 2413 903Q2390 879 2364.0 850.5Q2338 822 2309.0 796.5Q2280 771 2247.5 754.0Q2215 737 2179 737Q2161 737 2139 742L1385 -12Q1387 -22 1388.0 -32.0Q1389 -42 1389 -52Q1389 -87 1372.0 -119.5Q1355 -152 1330.0 -182.0Q1305 -212 1276.0 -238.5Q1247 -265 1224 -287Q1198 -311 1167.0 -324.5Q1136 -338 1101 -338Q1078 -338 1056 -332Q992 -379 918.5 -405.0Q845 -431 765 -431Q697 -431 633.5 -412.0Q570 -393 513.0 -359.5Q456 -326 409.0 -279.0Q362 -232 328.0 -175.5Q294 -119 275.0 -55.0Q256 9 256 77Q256 157 282.0 230.5Q308 304 355 368Q349 389 349 412Q349 449 362.5 479.5Q376 510 401 536Q424 560 450.0 588.5Q476 617 504.5 642.0Q533 667 565.5 683.5Q598 700 635 700Q657 700 674 696L1429 1451Q1425 1467 1425 1487Q1425 1524 1438.5 1555.0Q1452 1586 1477 1612Q1499 1636 1525.5 1664.5Q1552 1693 1581.0 1717.5Q1610 1742 1642.5 1759.0Q1675 1776 1711 1776Q1734 1776 1757 1770Z" style="fill:#000000;stroke:none" transform="scale(1,-1) translate(0,-256)" /></svg>