<?xml version="1.0" encoding="utf-8" ?>
<svg baseProfile="full" height="256" version="1.1" width="256" xmlns="http://www.w3.org/2000/svg" xmlns:ev="http://www.w3.org/2001/xml-events" xmlns:xlink="http://www.w3.org/1999/xlink"><defs /><path d="M2053 1581Q2098 1581 2137.0 1564.0Q2176 1547 2205.5 1518.0Q2235 1489 2252.0 1450.0Q2269 1411 2269 1366Q2269 1331 2257.0 1297.0Q2245 1263 2224.0 1235.0Q2203 1207 2173.5 1186.5Q2144 1166 2110 1158Q2120 1132 2122.5 1105.5Q2125 1079 2125 1052V1006H2197V647H2020L1925 553Q1952 490 1966.5 423.5Q1981 357 1981 288Q1981 188 1955.5 96.5Q1930 5 1883.0 -75.0Q1836 -155 1770.5 -220.5Q1705 -286 1625.0 -333.0Q1545 -380 1453.5 -405.5Q1362 -431 1262 -431Q1163 -431 1071.0 -405.5Q979 -380 899.5 -333.0Q820 -286 754.5 -220.5Q689 -155 642.0 -75.0Q595 5 569.5 97.0Q544 189 544 288Q544 426 599 553L505 647H328V1006H400Q400 1020 399.5 1032.5Q399 1045 399 1059Q399 1085 402.0 1109.5Q405 1134 415 1158Q380 1166 351.0 1186.5Q322 1207 301.0 1235.0Q280 1263 268.0 1297.0Q256 1331 256 1366Q256 1411 273.0 1450.0Q290 1489 319.5 1518.0Q349 1547 388.0 1564.0Q427 1581 472 1581Q513 1581 551 1566Q561 1601 581.0 1630.5Q601 1660 628.5 1681.0Q656 1702 689.0 1713.5Q722 1725 759 1725Q796 1725 831 1713V1869H1694V1713Q1728 1725 1766 1725Q1841 1725 1896.0 1680.5Q1951 1636 1974 1566Q2011 1581 2053 1581Z" style="fill:#000000;stroke:none" transform="scale(1,-1) translate(0,-256)" /></svg>