<?xml version="1.0" encoding="utf-8" ?>
<svg baseProfile="full" height="256" version="1.1" width="256" xmlns="http://www.w3.org/2000/svg" xmlns:ev="http://www.w3.org/2001/xml-events" xmlns:xlink="http://www.w3.org/1999/xlink"><defs /><path d="M1550 1366H1694V1294H831V1366H975V1725H1550ZM1550 1078Q1550 1049 1528.5 1027.5Q1507 1006 1478 1006Q1449 1006 1427.5 1027.5Q1406 1049 1406 1078V1150Q1406 1180 1427.0 1201.0Q1448 1222 1478 1222Q1508 1222 1529.0 1201.0Q1550 1180 1550 1150ZM1119 1078Q1119 1049 1097.5 1027.5Q1076 1006 1047 1006Q1018 1006 996.5 1027.5Q975 1049 975 1078V1150Q975 1180 996.0 1201.0Q1017 1222 1047 1222Q1077 1222 1098.0 1201.0Q1119 1180 1119 1150ZM1334 144Q1334 114 1313.0 93.0Q1292 72 1262 72Q1233 72 1212.0 93.5Q1191 115 1191 144Q1191 173 1212.0 194.5Q1233 216 1262 216Q1292 216 1313.0 195.0Q1334 174 1334 144ZM1334 431Q1334 402 1312.5 381.0Q1291 360 1262 360Q1233 360 1212.0 381.0Q1191 402 1191 431Q1191 460 1212.0 481.5Q1233 503 1262 503Q1292 503 1313.0 482.0Q1334 461 1334 431Z" style="fill:#383838;stroke:none" transform="scale(1,-1) translate(0,-256)" /></svg>