<?xml version="1.0" encoding="utf-8" ?>
<svg baseProfile="full" height="256" version="1.1" width="256" xmlns="http://www.w3.org/2000/svg" xmlns:ev="http://www.w3.org/2001/xml-events" xmlns:xlink="http://www.w3.org/1999/xlink"><defs /><path d="M1981 863H2053V791H1960L1748 579Q1739 580 1731.5 586.5Q1724 593 1718.0 601.5Q1712 610 1708.5 619.5Q1705 629 1705 637L1909 842V935H1981ZM820 637Q818 632 817.0 629.0Q816 626 814 623Q811 615 809.0 610.5Q807 606 804.0 602.0Q801 598 796.5 594.5Q792 591 785 585L782 583L777 579L565 791H472V863H544V935H616V842Z" style="fill:#8e562e;stroke:none" transform="scale(1,-1) translate(0,-256)" /></svg>