<?xml version="1.0" encoding="utf-8" ?>
<svg baseProfile="full" height="256" version="1.1" width="256" xmlns="http://www.w3.org/2000/svg" xmlns:ev="http://www.w3.org/2001/xml-events" xmlns:xlink="http://www.w3.org/1999/xlink"><defs /><path d="M1909 1150Q1939 1150 1960.0 1129.0Q1981 1108 1981 1078Q1981 1049 1959.5 1027.5Q1938 1006 1909 1006Q1880 1006 1858.5 1027.5Q1837 1049 1837 1078Q1837 1107 1858.5 1128.5Q1880 1150 1909 1150ZM759 1438Q730 1438 708.5 1459.5Q687 1481 687 1510Q687 1539 708.5 1560.0Q730 1581 759 1581Q788 1581 809.5 1560.0Q831 1539 831 1510Q831 1480 810.0 1459.0Q789 1438 759 1438ZM1837 1366Q1867 1366 1888.0 1345.0Q1909 1324 1909 1294Q1909 1264 1888.0 1243.0Q1867 1222 1837 1222Q1808 1222 1787.0 1243.5Q1766 1265 1766 1294Q1766 1323 1787.0 1344.5Q1808 1366 1837 1366ZM2053 1438Q2083 1438 2104.0 1417.0Q2125 1396 2125 1366Q2125 1336 2104.0 1315.0Q2083 1294 2053 1294Q2023 1294 2002.0 1315.0Q1981 1336 1981 1366Q1981 1396 2002.0 1417.0Q2023 1438 2053 1438ZM1837 1510Q1837 1481 1816.0 1459.5Q1795 1438 1766 1438Q1736 1438 1715.0 1459.0Q1694 1480 1694 1510Q1694 1539 1715.5 1560.0Q1737 1581 1766 1581Q1795 1581 1816.0 1560.0Q1837 1539 1837 1510ZM687 1366Q717 1366 738.0 1345.0Q759 1324 759 1294Q759 1264 738.0 1243.0Q717 1222 687 1222Q658 1222 637.0 1243.5Q616 1265 616 1294Q616 1323 637.0 1344.5Q658 1366 687 1366ZM616 1150Q645 1150 666.0 1128.5Q687 1107 687 1078Q687 1049 666.0 1027.5Q645 1006 616 1006Q587 1006 565.5 1027.5Q544 1049 544 1078Q544 1108 565.0 1129.0Q586 1150 616 1150ZM544 1366Q544 1336 523.0 1315.0Q502 1294 472 1294Q442 1294 421.0 1315.0Q400 1336 400 1366Q400 1396 421.0 1417.0Q442 1438 472 1438Q502 1438 523.0 1417.0Q544 1396 544 1366ZM1622 863Q1533 856 1445.5 849.5Q1358 843 1269 843Q1177 843 1086.0 849.5Q995 856 903 863Q867 908 849.0 964.0Q831 1020 831 1078Q831 1136 849.0 1192.0Q867 1248 903 1294H1622Q1658 1248 1676.0 1192.0Q1694 1136 1694 1078Q1694 1020 1676.0 964.0Q1658 908 1622 863ZM903 719Q999 724 1093.0 728.0Q1187 732 1283 732Q1368 732 1452.5 728.0Q1537 724 1622 719Q1670 680 1710.0 631.0Q1750 582 1778.0 527.0Q1806 472 1821.5 411.5Q1837 351 1837 288Q1837 169 1792.0 64.0Q1747 -41 1669.0 -119.0Q1591 -197 1486.0 -242.0Q1381 -287 1262 -287Q1143 -287 1038.5 -241.5Q934 -196 856.0 -118.0Q778 -40 732.5 64.5Q687 169 687 288Q687 352 702.5 412.5Q718 473 746.5 527.5Q775 582 814.5 630.5Q854 679 903 719Z" style="fill:#ffffff;stroke:none" transform="scale(1,-1) translate(0,-256)" /></svg>