<?xml version="1.0" encoding="utf-8" ?>
<svg baseProfile="full" height="256" version="1.1" width="256" xmlns="http://www.w3.org/2000/svg" xmlns:ev="http://www.w3.org/2001/xml-events" xmlns:xlink="http://www.w3.org/1999/xlink"><defs /><path d="M1118 1366Q1148 1366 1169.0 1345.0Q1190 1324 1190 1294Q1190 1264 1169.0 1243.0Q1148 1222 1118 1222Q1056 1222 1006.0 1210.5Q956 1199 912.0 1177.0Q868 1155 826.5 1123.5Q785 1092 741 1052Q728 1040 716.5 1033.5Q705 1027 687 1027Q657 1027 636.0 1048.5Q615 1070 615 1100Q615 1114 620.0 1125.0Q625 1136 633 1147Q672 1198 729.0 1239.0Q786 1280 851.0 1308.0Q916 1336 985.5 1351.0Q1055 1366 1118 1366ZM1693 1366Q1757 1366 1826.0 1351.5Q1895 1337 1960.0 1309.0Q2025 1281 2082.0 1240.0Q2139 1199 2179 1147Q2187 1136 2192.0 1125.0Q2197 1114 2197 1100Q2197 1070 2176.0 1048.5Q2155 1027 2125 1027Q2107 1027 2095.5 1033.5Q2084 1040 2071 1052Q2027 1092 1985.5 1123.5Q1944 1155 1899.5 1177.0Q1855 1199 1805.0 1210.5Q1755 1222 1693 1222Q1664 1222 1643.0 1243.5Q1622 1265 1622 1294Q1622 1323 1643.0 1344.5Q1664 1366 1693 1366Z" style="fill:#d48c00;stroke:none" transform="scale(1,-1) translate(0,-256)" /></svg>