<?xml version="1.0" encoding="utf-8" ?>
<svg baseProfile="full" height="256" version="1.1" width="256" xmlns="http://www.w3.org/2000/svg" xmlns:ev="http://www.w3.org/2001/xml-events" xmlns:xlink="http://www.w3.org/1999/xlink"><defs /><path d="M1836 460Q1865 460 1886.5 438.5Q1908 417 1908 388Q1908 377 1905.5 369.0Q1903 361 1898 351Q1863 287 1809.0 235.5Q1755 184 1689.0 147.5Q1623 111 1550.5 91.5Q1478 72 1406 72Q1334 72 1261.0 91.5Q1188 111 1122.0 147.5Q1056 184 1001.5 235.5Q947 287 913 351Q908 361 905.5 369.0Q903 377 903 388Q903 417 924.0 438.5Q945 460 974 460Q996 460 1009.5 450.5Q1023 441 1036 425Q1050 408 1062.0 390.0Q1074 372 1088 355Q1117 322 1154.0 296.0Q1191 270 1232.0 252.0Q1273 234 1317.5 225.0Q1362 216 1406 216Q1449 216 1493.5 225.5Q1538 235 1579.5 252.5Q1621 270 1657.5 296.0Q1694 322 1723 355Q1737 372 1749.0 390.0Q1761 408 1775 425Q1788 442 1800.5 451.0Q1813 460 1836 460ZM1190 791Q1190 820 1168.5 841.5Q1147 863 1118 863H903Q874 863 852.5 841.5Q831 820 831 791H759Q759 836 776.0 875.0Q793 914 822.5 943.0Q852 972 891.0 989.0Q930 1006 975 1006H1047Q1092 1006 1131.0 989.0Q1170 972 1199.0 943.0Q1228 914 1245.0 875.0Q1262 836 1262 791ZM1837 1006Q1882 1006 1921.0 989.0Q1960 972 1989.5 943.0Q2019 914 2036.0 875.0Q2053 836 2053 791H1981Q1981 820 1959.5 841.5Q1938 863 1909 863H1693Q1664 863 1643.0 841.5Q1622 820 1622 791H1550Q1550 836 1567.0 875.0Q1584 914 1613.0 943.0Q1642 972 1681.0 989.0Q1720 1006 1765 1006Z" style="fill:#000000;stroke:none" transform="scale(1,-1) translate(0,-256)" /></svg>