<?xml version="1.0" encoding="utf-8" ?>
<svg baseProfile="full" height="256" version="1.1" width="256" xmlns="http://www.w3.org/2000/svg" xmlns:ev="http://www.w3.org/2001/xml-events" xmlns:xlink="http://www.w3.org/1999/xlink"><defs /><path d="M2053 360Q2053 271 2030.0 188.0Q2007 105 1964.5 33.5Q1922 -38 1863.0 -97.0Q1804 -156 1732.5 -198.5Q1661 -241 1578.0 -264.0Q1495 -287 1406 -287Q1317 -287 1234.0 -264.0Q1151 -241 1079.5 -198.5Q1008 -156 949.0 -97.0Q890 -38 847.5 33.5Q805 105 782.0 188.0Q759 271 759 360Q759 494 810.0 611.5Q861 729 948.5 817.0Q1036 905 1154.0 955.5Q1272 1006 1406 1006Q1540 1006 1658.0 955.5Q1776 905 1863.5 817.0Q1951 729 2002.0 611.5Q2053 494 2053 360Z" style="fill:#ffb900;stroke:none" transform="scale(1,-1) translate(0,-256)" /></svg>