<?xml version="1.0" encoding="utf-8" ?>
<svg baseProfile="full" height="256" version="1.1" width="256" xmlns="http://www.w3.org/2000/svg" xmlns:ev="http://www.w3.org/2001/xml-events" xmlns:xlink="http://www.w3.org/1999/xlink"><defs /><path d="M1392 944Q1327 942 1264.0 925.0Q1201 908 1144.5 877.5Q1088 847 1039.5 804.0Q991 761 954 707L411 1616Q400 1633 400 1653Q400 1683 421.0 1704.0Q442 1725 472 1725H573Q589 1711 610.5 1705.0Q632 1699 653 1699Q670 1699 688.5 1704.0Q707 1709 717 1725H932ZM2340 1725Q2370 1725 2391.0 1704.0Q2412 1683 2412 1653Q2412 1642 2408.5 1633.5Q2405 1625 2400 1616L1860 710Q1822 764 1773.0 806.5Q1724 849 1667.5 879.0Q1611 909 1548.5 925.5Q1486 942 1420 944L1880 1725H2095Q2095 1716 2102.0 1710.0Q2109 1704 2118.0 1700.5Q2127 1697 2136.5 1695.5Q2146 1694 2153 1694Q2176 1694 2199.5 1700.5Q2223 1707 2239 1725Z" style="fill:#f03a17;stroke:none" transform="scale(1,-1) translate(0,-256)" /></svg>