<?xml version="1.0" encoding="utf-8" ?>
<svg baseProfile="full" height="256" version="1.1" width="256" xmlns="http://www.w3.org/2000/svg" xmlns:ev="http://www.w3.org/2001/xml-events" xmlns:xlink="http://www.w3.org/1999/xlink"><defs /><path d="M975 1367H2556V-215H2382Q2361 -263 2327.0 -303.0Q2293 -343 2249.5 -371.5Q2206 -400 2156.0 -415.5Q2106 -431 2053 -431Q2000 -431 1950.0 -415.5Q1900 -400 1857.0 -371.5Q1814 -343 1779.5 -303.0Q1745 -263 1723 -215H1088Q1067 -263 1033.0 -303.0Q999 -343 955.5 -371.5Q912 -400 862.0 -415.5Q812 -431 759 -431Q706 -431 656.0 -415.5Q606 -400 562.5 -371.5Q519 -343 485.0 -303.0Q451 -263 430 -215H256V466Q325 602 392.5 736.0Q460 870 526 1007H975Z" style="fill:#000000;stroke:none" transform="scale(1,-1) translate(0,-256)" /></svg>