<?xml version="1.0" encoding="utf-8" ?>
<svg baseProfile="full" height="256" version="1.1" width="256" xmlns="http://www.w3.org/2000/svg" xmlns:ev="http://www.w3.org/2001/xml-events" xmlns:xlink="http://www.w3.org/1999/xlink"><defs /><path d="M759 184Q793 184 835.0 169.5Q877 155 913.5 129.5Q950 104 975.0 70.0Q1000 36 1000 -2Q1000 -21 993.0 -38.5Q986 -56 975 -71Q975 -116 958.0 -155.0Q941 -194 911.5 -223.5Q882 -253 843.0 -270.0Q804 -287 759 -287Q714 -287 675.0 -270.0Q636 -253 606.5 -223.5Q577 -194 560.0 -155.0Q543 -116 543 -71Q522 -44 522 -8Q522 30 546.0 65.0Q570 100 605.5 126.5Q641 153 682.5 168.5Q724 184 759 184ZM2053 184Q2086 184 2128.0 168.0Q2170 152 2208.0 125.0Q2246 98 2272.0 63.5Q2298 29 2298 -7Q2298 -46 2268 -71Q2268 -116 2251.0 -155.0Q2234 -194 2205.0 -223.5Q2176 -253 2137.0 -270.0Q2098 -287 2053 -287Q2008 -287 1969.0 -270.0Q1930 -253 1900.5 -223.5Q1871 -194 1854.0 -155.0Q1837 -116 1837 -71Q1825 -57 1817.0 -40.5Q1809 -24 1809 -5Q1809 32 1834.5 66.5Q1860 101 1897.5 127.0Q1935 153 1977.5 168.5Q2020 184 2053 184Z" style="fill:#383838;stroke:none" transform="scale(1,-1) translate(0,-256)" /></svg>