<?xml version="1.0" encoding="utf-8" ?>
<svg baseProfile="full" height="256" version="1.1" width="256" xmlns="http://www.w3.org/2000/svg" xmlns:ev="http://www.w3.org/2001/xml-events" xmlns:xlink="http://www.w3.org/1999/xlink"><defs /><path d="M2302 72H2412V-71H2268Q2268 -26 2251.0 13.0Q2234 52 2205.0 81.0Q2176 110 2137.0 127.0Q2098 144 2053 144Q2008 144 1969.0 127.0Q1930 110 1900.5 81.0Q1871 52 1854.0 13.0Q1837 -26 1837 -71H975Q975 -26 958.0 13.0Q941 52 911.5 81.0Q882 110 843.0 127.0Q804 144 759 144Q714 144 675.0 127.0Q636 110 606.5 81.0Q577 52 560.0 13.0Q543 -26 543 -71H400V72H510Q549 139 615.0 177.5Q681 216 759 216Q837 216 903.0 177.5Q969 139 1008 72H1804Q1843 139 1909.0 177.5Q1975 216 2053 216Q2131 216 2197.0 177.5Q2263 139 2302 72ZM831 -71Q831 -101 810.0 -122.0Q789 -143 759 -143Q729 -143 708.0 -122.0Q687 -101 687 -71Q687 -42 708.5 -20.5Q730 1 759 1Q788 1 809.5 -20.5Q831 -42 831 -71ZM2125 -71Q2125 -101 2104.0 -122.0Q2083 -143 2053 -143Q2023 -143 2002.0 -122.0Q1981 -101 1981 -71Q1981 -42 2002.5 -20.5Q2024 1 2053 1Q2082 1 2103.5 -20.5Q2125 -42 2125 -71Z" style="fill:#e5e5e5;stroke:none" transform="scale(1,-1) translate(0,-256)" /></svg>