<?xml version="1.0" encoding="utf-8" ?>
<svg baseProfile="full" height="256" version="1.1" width="256" xmlns="http://www.w3.org/2000/svg" xmlns:ev="http://www.w3.org/2001/xml-events" xmlns:xlink="http://www.w3.org/1999/xlink"><defs /><path d="M1678 213Q1609 213 1558.0 235.0Q1507 257 1470.0 294.0Q1433 331 1409.0 380.5Q1385 430 1370.5 486.0Q1356 542 1350.5 600.0Q1345 658 1345 713Q1345 772 1350.5 835.5Q1356 899 1371.0 959.0Q1386 1019 1411.5 1072.5Q1437 1126 1476.5 1166.0Q1516 1206 1571.5 1229.5Q1627 1253 1702 1253Q1773 1253 1825.5 1230.5Q1878 1208 1915.0 1169.0Q1952 1130 1975.0 1079.0Q1998 1028 2011.0 970.5Q2024 913 2029.0 853.0Q2034 793 2034 737Q2034 679 2027.5 617.5Q2021 556 2005.5 497.5Q1990 439 1964.0 387.5Q1938 336 1898.5 297.0Q1859 258 1804.5 235.5Q1750 213 1678 213ZM1694 1123Q1650 1123 1619.5 1102.0Q1589 1081 1568.5 1046.5Q1548 1012 1536.5 968.0Q1525 924 1519.5 879.5Q1514 835 1512.5 793.0Q1511 751 1511 720Q1511 689 1512.5 649.5Q1514 610 1519.5 568.0Q1525 526 1536.5 485.5Q1548 445 1568.0 413.0Q1588 381 1618.0 361.5Q1648 342 1691 342Q1733 342 1762.5 362.0Q1792 382 1811.5 415.0Q1831 448 1842.5 489.5Q1854 531 1859.5 573.5Q1865 616 1866.5 656.0Q1868 696 1868 726Q1868 755 1866.5 796.0Q1865 837 1860.0 881.0Q1855 925 1844.0 968.5Q1833 1012 1813.5 1046.0Q1794 1080 1765.0 1101.5Q1736 1123 1694 1123ZM1155 1259V230H993V1060Q945 1025 891.5 1003.0Q838 981 781 967V1106Q864 1133 940.0 1170.5Q1016 1208 1087 1259Z" style="fill:#ffffff;stroke:none" transform="scale(1,-1) translate(0,-256)" /></svg>