<?xml version="1.0" encoding="utf-8" ?>
<svg baseProfile="full" height="256" version="1.1" width="256" xmlns="http://www.w3.org/2000/svg" xmlns:ev="http://www.w3.org/2001/xml-events" xmlns:xlink="http://www.w3.org/1999/xlink"><defs /><path d="M399 1217Q399 1322 439.0 1414.5Q479 1507 548.5 1576.0Q618 1645 710.5 1685.0Q803 1725 908 1725Q1010 1725 1102.5 1686.5Q1195 1648 1267 1576L2124 719L1267 -138Q1195 -210 1102.5 -248.5Q1010 -287 908 -287Q803 -287 710.5 -247.0Q618 -207 548.5 -138.0Q479 -69 439.0 23.5Q399 116 399 221Q399 303 419.0 367.0Q439 431 473.5 485.0Q508 539 554.5 587.5Q601 636 654 687L687 719L654 751Q601 802 554.5 850.0Q508 898 473.5 952.0Q439 1006 419.0 1070.0Q399 1134 399 1217Z" style="fill:#e81224;stroke:none" transform="scale(1,-1) translate(0,-256)" /></svg>