<?xml version="1.0" encoding="utf-8" ?>
<svg baseProfile="full" height="256" version="1.1" width="256" xmlns="http://www.w3.org/2000/svg" xmlns:ev="http://www.w3.org/2001/xml-events" xmlns:xlink="http://www.w3.org/1999/xlink"><defs /><path d="M908 -431Q818 -431 734.5 -408.0Q651 -385 578.5 -342.5Q506 -300 446.5 -240.5Q387 -181 344.5 -108.5Q302 -36 279.0 47.5Q256 131 256 221Q256 298 271.5 366.0Q287 434 316.0 494.5Q345 555 387.5 610.5Q430 666 484 719Q430 772 387.5 827.5Q345 883 315.5 943.5Q286 1004 271.0 1072.0Q256 1140 256 1217Q256 1307 279.5 1390.5Q303 1474 345.0 1546.0Q387 1618 447.0 1678.0Q507 1738 579.0 1780.0Q651 1822 734.5 1845.5Q818 1869 908 1869Q1040 1869 1157.5 1820.5Q1275 1772 1369 1678L2328 719L1369 -240Q1275 -334 1157.5 -382.5Q1040 -431 908 -431Z" style="fill:#000000;stroke:none" transform="scale(1,-1) translate(0,-256)" /></svg>