<?xml version="1.0" encoding="utf-8" ?>
<svg baseProfile="full" height="256" version="1.1" width="256" xmlns="http://www.w3.org/2000/svg" xmlns:ev="http://www.w3.org/2001/xml-events" xmlns:xlink="http://www.w3.org/1999/xlink"><defs /><path d="M1693 216Q1693 177 1682.5 140.0Q1672 103 1652.5 70.5Q1633 38 1606.0 11.0Q1579 -16 1545 -35Q1534 4 1495 4Q1474 4 1453.0 0.5Q1432 -3 1411 -3Q1388 -3 1366.5 0.5Q1345 4 1322 4Q1301 4 1287.0 -5.0Q1273 -14 1267 -35Q1232 -16 1204.5 11.0Q1177 38 1158.0 70.5Q1139 103 1128.5 140.0Q1118 177 1118 216Z" style="fill:#000000;stroke:none" transform="scale(1,-1) translate(0,-256)" /></svg>