<?xml version="1.0" encoding="utf-8" ?>
<svg baseProfile="full" height="256" version="1.1" width="256" xmlns="http://www.w3.org/2000/svg" xmlns:ev="http://www.w3.org/2001/xml-events" xmlns:xlink="http://www.w3.org/1999/xlink"><defs /><path d="M2197 319Q2204 300 2223.0 255.5Q2242 211 2266.0 155.0Q2290 99 2316.0 37.5Q2342 -24 2363.0 -77.0Q2384 -130 2398.0 -168.0Q2412 -206 2412 -215Q2412 -245 2391.0 -266.0Q2370 -287 2340 -287H2053Q2034 -287 2015.5 -276.0Q1997 -265 1989 -247L1767 288H1045L823 -247Q815 -264 796.5 -275.5Q778 -287 759 -287H472Q442 -287 421.0 -266.0Q400 -245 400 -215Q400 -206 414.0 -168.0Q428 -130 449.0 -77.0Q470 -24 496.0 37.5Q522 99 546.0 155.0Q570 211 589.0 255.5Q608 300 615 319V502L528 722L615 935Q615 1044 643.5 1145.0Q672 1246 723.5 1333.5Q775 1421 847.0 1493.5Q919 1566 1007.0 1617.5Q1095 1669 1196.0 1697.0Q1297 1725 1406 1725Q1515 1725 1616.0 1697.0Q1717 1669 1805.0 1617.5Q1893 1566 1965.0 1493.5Q2037 1421 2088.5 1333.5Q2140 1246 2168.5 1145.0Q2197 1044 2197 935L2286 754Q2283 744 2275.0 723.0Q2267 702 2257.5 676.0Q2248 650 2237.5 621.0Q2227 592 2218.0 567.5Q2209 543 2203.0 525.0Q2197 507 2197 503Q2196 498 2196.0 493.0Q2196 488 2196 483Q2196 472 2196.5 462.0Q2197 452 2197 442Z" style="fill:#613d30;stroke:none" transform="scale(1,-1) translate(0,-256)" /></svg>