<?xml version="1.0" encoding="utf-8" ?>
<svg baseProfile="full" height="256" version="1.1" width="256" xmlns="http://www.w3.org/2000/svg" xmlns:ev="http://www.w3.org/2001/xml-events" xmlns:xlink="http://www.w3.org/1999/xlink"><defs /><path d="M1729 1150Q1796 1150 1855.0 1124.5Q1914 1099 1958.0 1055.0Q2002 1011 2027.5 952.5Q2053 894 2053 827Q2053 766 2034.0 718.5Q2015 671 1984.0 630.5Q1953 590 1914.5 553.5Q1876 517 1837 478V431H1707L1895 -20L1787 -129Q1711 -205 1612.5 -246.0Q1514 -287 1406 -287Q1298 -287 1199.5 -246.0Q1101 -205 1025 -129L917 -20L1105 431H975V478Q936 517 897.5 553.5Q859 590 828.0 630.5Q797 671 778.0 718.5Q759 766 759 827Q759 894 784.5 952.5Q810 1011 854.0 1055.0Q898 1099 957.0 1124.5Q1016 1150 1083 1150Q1140 1150 1183.5 1134.0Q1227 1118 1264.0 1092.0Q1301 1066 1334.5 1031.5Q1368 997 1406 961Q1443 998 1476.5 1032.0Q1510 1066 1547.0 1092.5Q1584 1119 1628.0 1134.5Q1672 1150 1729 1150ZM400 935Q400 965 411.0 991.0Q422 1017 441.5 1036.5Q461 1056 487.0 1067.0Q513 1078 543 1078H628Q622 1043 618.5 1007.0Q615 971 615 935V503H543Q513 503 487.0 514.5Q461 526 441.5 545.5Q422 565 411.0 591.0Q400 617 400 647ZM2268 1078Q2298 1078 2324.0 1067.0Q2350 1056 2369.5 1036.5Q2389 1017 2400.5 991.0Q2412 965 2412 935V647Q2412 617 2400.5 591.0Q2389 565 2369.5 545.5Q2350 526 2324.0 514.5Q2298 503 2268 503H2197V935Q2197 971 2193.5 1007.0Q2190 1043 2184 1078Z" style="fill:#f7b189;stroke:none" transform="scale(1,-1) translate(0,-256)" /></svg>