<?xml version="1.0" encoding="utf-8" ?>
<svg baseProfile="full" height="256" version="1.1" width="256" xmlns="http://www.w3.org/2000/svg" xmlns:ev="http://www.w3.org/2001/xml-events" xmlns:xlink="http://www.w3.org/1999/xlink"><defs /><path d="M2053 666 2150 431H1707L1621 639L1491 769Q1476 784 1467.5 804.0Q1459 824 1459 845Q1459 866 1467.5 886.0Q1476 906 1491 921L1617 1047Q1632 1062 1652.0 1070.0Q1672 1078 1693 1078Q1739 1078 1770 1047L1909 907Q1909 923 1908.0 939.0Q1907 955 1907 971Q1907 990 1909.5 1009.5Q1912 1029 1920.0 1044.0Q1928 1059 1942.5 1068.5Q1957 1078 1981 1078Q2011 1078 2032.0 1057.0Q2053 1036 2053 1006ZM1118 1078Q1164 1078 1195 1047L1320 921Q1335 905 1343.5 886.0Q1352 867 1352 845Q1352 823 1343.5 804.0Q1335 785 1320 769L1191 639L1105 431H662L759 666V1006Q759 1036 780.0 1057.0Q801 1078 831 1078Q855 1078 869.5 1068.5Q884 1059 892.0 1044.0Q900 1029 902.5 1010.0Q905 991 905 971Q905 954 904.0 937.5Q903 921 903 907L1042 1047Q1057 1062 1077.0 1070.0Q1097 1078 1118 1078Z" style="fill:#f7894a;stroke:none" transform="scale(1,-1) translate(0,-256)" /></svg>