<?xml version="1.0" encoding="utf-8" ?>
<svg baseProfile="full" height="256" version="1.1" width="256" xmlns="http://www.w3.org/2000/svg" xmlns:ev="http://www.w3.org/2001/xml-events" xmlns:xlink="http://www.w3.org/1999/xlink"><defs /><path d="M2556 647Q2556 598 2540.0 553.0Q2524 508 2495.5 471.0Q2467 434 2427.0 407.5Q2387 381 2340 369V348L2539 -132Q2556 -172 2556 -215Q2556 -260 2539.0 -299.0Q2522 -338 2492.5 -367.5Q2463 -397 2424.0 -414.0Q2385 -431 2340 -431H2053Q1975 -431 1922.5 -387.5Q1870 -344 1844 -272Q1750 -350 1638.5 -390.5Q1527 -431 1406 -431Q1285 -431 1173.0 -390.5Q1061 -350 968 -272Q941 -344 890.0 -387.5Q839 -431 759 -431H472Q427 -431 388.0 -414.0Q349 -397 319.5 -367.5Q290 -338 273.0 -299.0Q256 -260 256 -215Q256 -192 260.5 -171.5Q265 -151 274 -130L472 348V369Q425 381 385.0 407.5Q345 434 316.5 471.0Q288 508 272.0 553.0Q256 598 256 647V935Q256 990 276.0 1040.0Q296 1090 331.5 1128.5Q367 1167 414.5 1191.5Q462 1216 517 1221Q563 1366 650.5 1485.0Q738 1604 855.5 1689.5Q973 1775 1113.5 1822.0Q1254 1869 1406 1869Q1557 1869 1697.5 1822.0Q1838 1775 1955.5 1689.5Q2073 1604 2161.0 1484.5Q2249 1365 2295 1221Q2350 1216 2397.5 1191.5Q2445 1167 2480.5 1128.5Q2516 1090 2536.0 1040.0Q2556 990 2556 935Z" style="fill:#000000;stroke:none" transform="scale(1,-1) translate(0,-256)" /></svg>