<?xml version="1.0" encoding="utf-8" ?>
<svg baseProfile="full" height="256" version="1.1" width="256" xmlns="http://www.w3.org/2000/svg" xmlns:ev="http://www.w3.org/2001/xml-events" xmlns:xlink="http://www.w3.org/1999/xlink"><defs /><path d="M543 1294H2268V1222H543ZM1047 863H975V719H903V935H1047ZM759 719V863H687V935H759V863H831V719ZM1765 719V863H1693V935H1765V863H1837V719ZM1622 719V791H1550V935H1622V791H1693V719ZM2053 791V863H1981V935H2053V863H2125V791ZM1909 863H1981V791H2053V719H1981V791H1909ZM1190 791V863H1118V935H1190V863H1262V791ZM1334 791V863H1478V791ZM1047 863H1118V791H1190V719H1118V791H1047ZM1909 863H1837V935H1909Z" style="fill:#bad80a;stroke:none" transform="scale(1,-1) translate(0,-256)" /></svg>