<?xml version="1.0" encoding="utf-8" ?>
<svg baseProfile="full" height="256" version="1.1" width="256" xmlns="http://www.w3.org/2000/svg" xmlns:ev="http://www.w3.org/2001/xml-events" xmlns:xlink="http://www.w3.org/1999/xlink"><defs /><path d="M615 288H1047Q1076 288 1097.0 266.5Q1118 245 1118 216Q1118 187 1097.0 165.5Q1076 144 1047 144H615Q586 144 564.5 165.5Q543 187 543 216Q543 245 564.5 266.5Q586 288 615 288ZM1334 288H1765Q1795 288 1816.0 267.0Q1837 246 1837 216Q1837 186 1816.0 165.0Q1795 144 1765 144H1334Q1304 144 1283.0 165.0Q1262 186 1262 216Q1262 246 1283.0 267.0Q1304 288 1334 288Z" style="fill:#cccccc;stroke:none" transform="scale(1,-1) translate(0,-256)" /></svg>