<?xml version="1.0" encoding="utf-8" ?>
<svg baseProfile="full" height="256" version="1.1" width="256" xmlns="http://www.w3.org/2000/svg" xmlns:ev="http://www.w3.org/2001/xml-events" xmlns:xlink="http://www.w3.org/1999/xlink"><defs /><path d="M1693 1078V431H1118V1078H1190V1222Q1190 1251 1211.5 1272.5Q1233 1294 1262 1294H1550Q1579 1294 1600.5 1272.5Q1622 1251 1622 1222V1078ZM1981 216H2125V144H687V216H831Q831 231 841.5 241.5Q852 252 867 252Q882 252 892.5 241.5Q903 231 903 216H1047Q1047 231 1057.5 241.5Q1068 252 1083 252Q1097 252 1107.5 241.0Q1118 230 1118 216H1262Q1262 231 1272.5 241.5Q1283 252 1298 252Q1313 252 1323.5 241.5Q1334 231 1334 216H1478Q1478 231 1488.5 241.5Q1499 252 1514 252Q1529 252 1539.5 241.5Q1550 231 1550 216H1693Q1693 230 1704.0 241.0Q1715 252 1729 252Q1744 252 1754.5 241.5Q1765 231 1765 216H1909Q1909 231 1919.5 241.5Q1930 252 1945 252Q1960 252 1970.5 241.5Q1981 231 1981 216ZM903 431Q874 431 852.5 452.5Q831 474 831 503V1006Q831 1036 852.0 1057.0Q873 1078 903 1078H975V431ZM1981 503Q1981 474 1959.5 452.5Q1938 431 1909 431H1837V1078H1909Q1939 1078 1960.0 1057.0Q1981 1036 1981 1006ZM1550 1078V1222H1262V1078Z" style="fill:#ffffff;stroke:none" transform="scale(1,-1) translate(0,-256)" /></svg>