<?xml version="1.0" encoding="utf-8" ?>
<svg baseProfile="full" height="256" version="1.1" width="256" xmlns="http://www.w3.org/2000/svg" xmlns:ev="http://www.w3.org/2001/xml-events" xmlns:xlink="http://www.w3.org/1999/xlink"><defs /><path d="M2017 -144Q1954 -144 1899.0 -131.0Q1844 -118 1794.5 -94.0Q1745 -70 1699.5 -35.0Q1654 0 1611 44L394 450L256 588V1497L412 1653H1322L1460 1515L1866 298Q1883 281 1899.0 266.0Q1915 251 1932.5 240.0Q1950 229 1970.5 222.5Q1991 216 2017 216Q2052 216 2084.5 231.0Q2117 246 2142.0 270.5Q2167 295 2182.0 327.5Q2197 360 2197 395Q2197 428 2184.0 459.5Q2171 491 2148 514Q2085 576 2029.0 631.0Q1973 686 1930.0 746.0Q1887 806 1862.0 876.5Q1837 947 1837 1042Q1837 1152 1880.0 1250.0Q1923 1348 1996.5 1421.5Q2070 1495 2168.0 1538.0Q2266 1581 2376 1581Q2413 1581 2446.0 1567.0Q2479 1553 2503.5 1528.5Q2528 1504 2542.0 1471.5Q2556 1439 2556 1402Q2556 1365 2542.0 1332.0Q2528 1299 2503.5 1274.5Q2479 1250 2446.0 1236.0Q2413 1222 2376 1222Q2341 1222 2308.5 1207.0Q2276 1192 2251.0 1167.0Q2226 1142 2211.0 1109.5Q2196 1077 2196 1042Q2196 1008 2209.0 978.0Q2222 948 2246 924Q2308 862 2364.5 807.0Q2421 752 2463.5 692.0Q2506 632 2531.0 561.0Q2556 490 2556 396Q2556 323 2536.5 254.5Q2517 186 2481.5 126.0Q2446 66 2396.0 16.5Q2346 -33 2286.5 -69.0Q2227 -105 2158.5 -124.5Q2090 -144 2017 -144Z" style="fill:#000000;stroke:none" transform="scale(1,-1) translate(0,-256)" /></svg>