<?xml version="1.0" encoding="utf-8" ?>
<svg baseProfile="full" height="256" version="1.1" width="256" xmlns="http://www.w3.org/2000/svg" xmlns:ev="http://www.w3.org/2001/xml-events" xmlns:xlink="http://www.w3.org/1999/xlink"><defs /><path d="M973 -431V-149L983 -140Q963 -142 944.5 -143.0Q926 -144 906 -144Q771 -144 652.5 -93.0Q534 -42 446.0 46.0Q358 134 307.0 252.5Q256 371 256 506Q256 635 305.5 754.5Q355 874 446 965L1331 1850L2215 965Q2308 872 2356.5 754.0Q2405 636 2405 505Q2405 370 2354.0 252.0Q2303 134 2215.0 46.0Q2127 -42 2009.0 -93.0Q1891 -144 1756 -144Q1736 -144 1717.0 -143.0Q1698 -142 1678 -140L1689 -149V-431Z" style="fill:#000000;stroke:none" transform="scale(1,-1) translate(0,-256)" /></svg>