<?xml version="1.0" encoding="utf-8" ?>
<svg baseProfile="full" height="256" version="1.1" width="256" xmlns="http://www.w3.org/2000/svg" xmlns:ev="http://www.w3.org/2001/xml-events" xmlns:xlink="http://www.w3.org/1999/xlink"><defs /><path d="M1331 1647 2114 864Q2186 792 2224.0 699.5Q2262 607 2262 505Q2262 400 2222.5 308.0Q2183 216 2114.0 147.0Q2045 78 1953.0 38.5Q1861 -1 1756 -1Q1656 -1 1565.5 36.0Q1475 73 1403 143V71Q1403 -15 1441.5 -88.5Q1480 -162 1546 -216V-288H1116V-216Q1181 -162 1220.0 -88.0Q1259 -14 1259 71V143Q1187 74 1096.5 36.5Q1006 -1 906 -1Q801 -1 708.5 38.5Q616 78 547.5 147.0Q479 216 439.0 308.0Q399 400 399 505Q399 607 437.5 699.5Q476 792 548 864ZM1756 142Q1831 142 1897.5 170.5Q1964 199 2013.0 248.5Q2062 298 2090.5 364.5Q2119 431 2119 506Q2119 578 2091.5 645.0Q2064 712 2013 763L1331 1444L649 763Q598 712 570.5 645.0Q543 578 543 506Q543 431 571.5 364.5Q600 298 649.0 248.5Q698 199 764.5 170.5Q831 142 906 142Q962 142 1005.5 155.0Q1049 168 1086.0 190.5Q1123 213 1156.5 244.0Q1190 275 1226 310L1244 328H1417L1429 316Q1466 280 1500.0 248.0Q1534 216 1572.0 192.5Q1610 169 1654.5 155.5Q1699 142 1756 142Z" style="fill:#2b2b2b;stroke:none" transform="scale(1,-1) translate(0,-256)" /></svg>