<?xml version="1.0" encoding="utf-8" ?>
<svg baseProfile="full" height="256" version="1.1" width="256" xmlns="http://www.w3.org/2000/svg" xmlns:ev="http://www.w3.org/2001/xml-events" xmlns:xlink="http://www.w3.org/1999/xlink"><defs /><path d="M1947 230H1781V881Q1781 930 1783.5 979.0Q1786 1028 1791 1077Q1783 1053 1776.5 1029.0Q1770 1005 1761 982L1460 230H1345L1044 977Q1034 1001 1028.0 1026.0Q1022 1051 1017 1077Q1019 1027 1019.5 978.5Q1020 930 1020 880V230H866V1236H1101L1370 554Q1380 528 1389.5 503.0Q1399 478 1405 451Q1417 481 1428.0 510.5Q1439 540 1451 569L1720 1236H1947Z" style="fill:#ffffff;stroke:none" transform="scale(1,-1) translate(0,-256)" /></svg>