<?xml version="1.0" encoding="utf-8" ?>
<svg baseProfile="full" height="256" version="1.1" width="256" xmlns="http://www.w3.org/2000/svg" xmlns:ev="http://www.w3.org/2001/xml-events" xmlns:xlink="http://www.w3.org/1999/xlink"><defs /><path d="M1622 1725V1172Q1622 1094 1622.0 1016.5Q1622 939 1624 861H1837V0Q1837 -60 1814.5 -112.0Q1792 -164 1753.0 -203.0Q1714 -242 1662.0 -264.5Q1610 -287 1550 -287H687V2Q615 1 543.5 0.5Q472 0 400 0V1006Q445 1006 484.0 1023.0Q523 1040 552.0 1069.5Q581 1099 598.0 1138.0Q615 1177 615 1222V1725H831V1438Q831 1379 854.0 1327.0Q877 1275 916.0 1235.5Q955 1196 1007.0 1173.0Q1059 1150 1118 1150Q1178 1150 1230.5 1172.5Q1283 1195 1322.0 1234.0Q1361 1273 1383.5 1325.5Q1406 1378 1406 1438V1725Z" style="fill:#31d2f7;stroke:none" transform="scale(1,-1) translate(0,-256)" /></svg>