<?xml version="1.0" encoding="utf-8" ?>
<svg baseProfile="full" height="256" version="1.1" width="256" xmlns="http://www.w3.org/2000/svg" xmlns:ev="http://www.w3.org/2001/xml-events" xmlns:xlink="http://www.w3.org/1999/xlink"><defs /><path d="M939 989Q987 989 1030.0 970.5Q1073 952 1104.5 920.5Q1136 889 1154.5 846.0Q1173 803 1173 755Q1173 707 1154.5 664.0Q1136 621 1104.5 589.5Q1073 558 1030.0 539.5Q987 521 939 521Q891 521 848.0 539.5Q805 558 773.5 589.5Q742 621 723.5 664.0Q705 707 705 755Q705 803 723.5 846.0Q742 889 773.5 920.5Q805 952 848.0 970.5Q891 989 939 989ZM1873 986Q1921 986 1963.0 968.0Q2005 950 2036.5 918.5Q2068 887 2086.0 845.0Q2104 803 2104 755Q2104 707 2086.0 665.0Q2068 623 2036.5 591.5Q2005 560 1963.0 542.0Q1921 524 1873 524Q1825 524 1783.0 542.0Q1741 560 1709.5 591.5Q1678 623 1660.0 665.0Q1642 707 1642 755Q1642 803 1660.0 845.0Q1678 887 1709.5 918.5Q1741 950 1783.0 968.0Q1825 986 1873 986ZM1622 216Q1651 216 1672.0 194.5Q1693 173 1693 144Q1693 115 1672.0 93.5Q1651 72 1622 72H1190Q1161 72 1139.5 93.5Q1118 115 1118 144Q1118 173 1139.5 194.5Q1161 216 1190 216Z" style="fill:#000000;stroke:none" transform="scale(1,-1) translate(0,-256)" /></svg>