<?xml version="1.0" encoding="utf-8" ?>
<svg baseProfile="full" height="256" version="1.1" width="256" xmlns="http://www.w3.org/2000/svg" xmlns:ev="http://www.w3.org/2001/xml-events" xmlns:xlink="http://www.w3.org/1999/xlink"><defs /><path d="M1118 1438Q1148 1438 1169.0 1417.0Q1190 1396 1190 1366Q1190 1336 1169.0 1315.0Q1148 1294 1118 1294Q1054 1294 1004.5 1282.5Q955 1271 911.5 1249.0Q868 1227 827.5 1195.5Q787 1164 741 1124Q727 1112 716.5 1105.5Q706 1099 687 1099Q658 1099 636.5 1120.5Q615 1142 615 1171Q615 1185 620.0 1196.5Q625 1208 633 1219Q670 1270 727.5 1310.5Q785 1351 851.0 1379.5Q917 1408 986.5 1423.0Q1056 1438 1118 1438ZM1693 1438Q1755 1438 1824.5 1423.0Q1894 1408 1960.5 1380.0Q2027 1352 2084.0 1311.0Q2141 1270 2179 1219Q2187 1208 2192.0 1196.5Q2197 1185 2197 1171Q2197 1142 2175.5 1120.5Q2154 1099 2125 1099Q2106 1099 2095.5 1105.5Q2085 1112 2071 1124Q2025 1164 1984.0 1195.5Q1943 1227 1899.5 1249.0Q1856 1271 1806.5 1282.5Q1757 1294 1693 1294Q1664 1294 1643.0 1315.5Q1622 1337 1622 1366Q1622 1395 1643.0 1416.5Q1664 1438 1693 1438Z" style="fill:#d48c00;stroke:none" transform="scale(1,-1) translate(0,-256)" /></svg>