<?xml version="1.0" encoding="utf-8" ?>
<svg baseProfile="full" height="256" version="1.1" width="256" xmlns="http://www.w3.org/2000/svg" xmlns:ev="http://www.w3.org/2001/xml-events" xmlns:xlink="http://www.w3.org/1999/xlink"><defs /><path d="M939 1078Q1006 1078 1064.5 1052.5Q1123 1027 1167.0 983.0Q1211 939 1236.5 880.5Q1262 822 1262 755Q1262 688 1236.5 629.0Q1211 570 1167.0 526.0Q1123 482 1064.5 456.5Q1006 431 939 431Q872 431 813.0 456.5Q754 482 710.0 526.0Q666 570 640.5 629.0Q615 688 615 755Q615 822 640.5 881.0Q666 940 710.0 983.5Q754 1027 813.0 1052.5Q872 1078 939 1078ZM939 611Q969 611 995.0 622.5Q1021 634 1040.5 653.5Q1060 673 1071.5 699.0Q1083 725 1083 755Q1083 785 1071.5 811.0Q1060 837 1040.5 856.5Q1021 876 995.0 887.5Q969 899 939 899Q909 899 883.0 887.5Q857 876 837.5 856.5Q818 837 806.5 811.0Q795 785 795 755Q795 725 806.5 699.0Q818 673 837.5 653.5Q857 634 883.0 622.5Q909 611 939 611ZM1873 1078Q1940 1078 1999.0 1052.5Q2058 1027 2102.0 983.5Q2146 940 2171.5 881.0Q2197 822 2197 755Q2197 688 2171.5 629.0Q2146 570 2102.0 526.0Q2058 482 1999.0 456.5Q1940 431 1873 431Q1806 431 1747.0 456.5Q1688 482 1644.5 526.0Q1601 570 1575.5 629.0Q1550 688 1550 755Q1550 822 1575.5 881.0Q1601 940 1644.5 983.5Q1688 1027 1747.0 1052.5Q1806 1078 1873 1078ZM1873 611Q1903 611 1929.0 622.5Q1955 634 1974.5 653.5Q1994 673 2005.5 699.0Q2017 725 2017 755Q2017 785 2005.5 811.0Q1994 837 1974.5 856.5Q1955 876 1929.0 887.5Q1903 899 1873 899Q1843 899 1817.0 887.5Q1791 876 1771.5 856.5Q1752 837 1740.5 811.0Q1729 785 1729 755Q1729 725 1740.5 699.0Q1752 673 1771.5 653.5Q1791 634 1817.0 622.5Q1843 611 1873 611Z" style="fill:#ffffff;stroke:none" transform="scale(1,-1) translate(0,-256)" /></svg>