<?xml version="1.0" encoding="utf-8" ?>
<svg baseProfile="full" height="256" version="1.1" width="256" xmlns="http://www.w3.org/2000/svg" xmlns:ev="http://www.w3.org/2001/xml-events" xmlns:xlink="http://www.w3.org/1999/xlink"><defs /><path d="M1622 356H1854Q1813 305 1762.5 265.0Q1712 225 1654.5 197.0Q1597 169 1534.0 154.5Q1471 140 1406 140Q1330 140 1257.0 160.0Q1184 180 1118 218V-147Q1118 -177 1107.0 -203.0Q1096 -229 1076.5 -248.5Q1057 -268 1031.0 -279.5Q1005 -291 975 -291Q945 -291 918.5 -280.0Q892 -269 872.5 -249.5Q853 -230 842.0 -203.5Q831 -177 831 -147V-63L717 -177Q697 -197 670.5 -208.0Q644 -219 615 -219Q585 -219 559.0 -208.0Q533 -197 513.5 -177.5Q494 -158 483.0 -132.0Q472 -106 472 -76Q472 -47 483.0 -20.5Q494 6 514 26L628 140H543Q513 140 487.0 151.5Q461 163 441.5 182.5Q422 202 411.0 228.0Q400 254 400 284Q400 314 411.0 340.0Q422 366 441.5 385.5Q461 405 487.0 416.5Q513 428 543 428H909Q871 494 851.0 566.5Q831 639 831 715Q831 849 887.5 964.0Q944 1079 1047 1164V931H1334V644H1622Z" style="fill:#f2f2f2;stroke:none" transform="scale(1,-1) translate(0,-256)" /></svg>