<?xml version="1.0" encoding="utf-8" ?>
<svg baseProfile="full" height="256" version="1.1" width="256" xmlns="http://www.w3.org/2000/svg" xmlns:ev="http://www.w3.org/2001/xml-events" xmlns:xlink="http://www.w3.org/1999/xlink"><defs /><path d="M2184 1290H2268Q2298 1290 2324.0 1279.0Q2350 1268 2369.5 1248.5Q2389 1229 2400.5 1203.0Q2412 1177 2412 1147Q2412 1117 2400.5 1090.5Q2389 1064 2369.5 1044.5Q2350 1025 2324.0 1014.0Q2298 1003 2268 1003H1903Q1941 937 1961.0 864.0Q1981 791 1981 715Q1981 616 1948.5 524.5Q1916 433 1854 356L1617 308L997 891L1047 1164Q1123 1227 1215.5 1258.5Q1308 1290 1406 1290Q1481 1290 1554.0 1270.5Q1627 1251 1693 1213V1578Q1693 1608 1704.5 1634.0Q1716 1660 1735.5 1679.5Q1755 1699 1781.0 1710.5Q1807 1722 1837 1722Q1867 1722 1893.0 1710.5Q1919 1699 1938.5 1679.5Q1958 1660 1969.5 1634.0Q1981 1608 1981 1578V1494L2095 1608Q2137 1650 2196 1650Q2226 1650 2252.0 1638.5Q2278 1627 2297.5 1607.5Q2317 1588 2328.5 1562.0Q2340 1536 2340 1506Q2340 1477 2329.0 1450.5Q2318 1424 2298 1404Z" style="fill:#f03a17;stroke:none" transform="scale(1,-1) translate(0,-256)" /></svg>