<?xml version="1.0" encoding="utf-8" ?>
<svg baseProfile="full" height="256" version="1.1" width="256" xmlns="http://www.w3.org/2000/svg" xmlns:ev="http://www.w3.org/2001/xml-events" xmlns:xlink="http://www.w3.org/1999/xlink"><defs /><path d="M975 -431Q944 -431 912.0 -424.0Q880 -417 850.5 -403.5Q821 -390 795.5 -370.5Q770 -351 752 -325Q720 -342 685.5 -350.5Q651 -359 615 -359Q555 -359 503.0 -336.5Q451 -314 412.0 -275.0Q373 -236 350.5 -184.0Q328 -132 328 -72Q328 -36 336.5 -1.5Q345 33 362 65Q336 84 316.5 109.0Q297 134 283.5 163.5Q270 193 263.0 224.5Q256 256 256 288Q256 347 278.5 399.5Q301 452 340.0 491.0Q379 530 431.5 552.5Q484 575 543 575H702Q687 645 687 719Q687 818 713.0 910.0Q739 1002 785.5 1081.5Q832 1161 898.0 1227.0Q964 1293 1043.5 1339.5Q1123 1386 1215.0 1412.0Q1307 1438 1406 1438Q1479 1438 1550 1423V1581Q1550 1639 1573.0 1691.5Q1596 1744 1635.0 1783.5Q1674 1823 1726.0 1846.0Q1778 1869 1837 1869Q1903 1869 1960.5 1841.5Q2018 1814 2060 1763Q2092 1780 2126.5 1788.5Q2161 1797 2197 1797Q2256 1797 2308.5 1774.5Q2361 1752 2400.0 1713.0Q2439 1674 2461.5 1621.5Q2484 1569 2484 1510Q2484 1474 2475.5 1439.5Q2467 1405 2450 1373Q2501 1331 2528.5 1273.5Q2556 1216 2556 1150Q2556 1091 2533.0 1039.0Q2510 987 2470.5 948.0Q2431 909 2378.5 886.0Q2326 863 2268 863H2110Q2125 792 2125 719Q2125 620 2099.0 528.0Q2073 436 2026.5 356.5Q1980 277 1914.0 211.0Q1848 145 1768.5 98.5Q1689 52 1597.0 26.0Q1505 0 1406 0Q1332 0 1262 15V-144Q1262 -203 1239.5 -255.5Q1217 -308 1178.0 -347.0Q1139 -386 1086.5 -408.5Q1034 -431 975 -431Z" style="fill:#000000;stroke:none" transform="scale(1,-1) translate(0,-256)" /></svg>