<?xml version="1.0" encoding="utf-8" ?>
<svg baseProfile="full" height="256" version="1.1" width="256" xmlns="http://www.w3.org/2000/svg" xmlns:ev="http://www.w3.org/2001/xml-events" xmlns:xlink="http://www.w3.org/1999/xlink"><defs /><path d="M1981 791V144Q1981 102 1953.5 67.0Q1926 32 1882.5 4.0Q1839 -24 1785.0 -45.0Q1731 -66 1677.0 -81.5Q1623 -97 1575.5 -107.0Q1528 -117 1498 -121Q1421 -133 1344.5 -138.5Q1268 -144 1190 -144Q1108 -144 1026.5 -138.0Q945 -132 864 -118Q834 -113 788.5 -103.5Q743 -94 691.5 -78.5Q640 -63 588.0 -42.0Q536 -21 494.0 6.5Q452 34 426.0 68.5Q400 103 400 144V791Z" style="fill:#d48c00;stroke:none" transform="scale(1,-1) translate(0,-256)" /></svg>