<?xml version="1.0" encoding="utf-8" ?>
<svg baseProfile="full" height="256" version="1.1" width="256" xmlns="http://www.w3.org/2000/svg" xmlns:ev="http://www.w3.org/2001/xml-events" xmlns:xlink="http://www.w3.org/1999/xlink"><defs /><path d="M1190 1869Q1275 1869 1358.5 1863.0Q1442 1857 1526 1843Q1578 1835 1642.5 1820.5Q1707 1806 1773.5 1783.5Q1840 1761 1903.0 1729.5Q1966 1698 2015.5 1655.5Q2065 1613 2095.0 1559.0Q2125 1505 2125 1438V0Q2125 -68 2095.0 -121.5Q2065 -175 2015.5 -217.5Q1966 -260 1903.0 -291.5Q1840 -323 1773.5 -345.5Q1707 -368 1642.5 -382.5Q1578 -397 1526 -405Q1442 -419 1358.5 -425.0Q1275 -431 1190 -431Q1099 -431 1010.0 -424.0Q921 -417 833 -402Q782 -393 719.5 -378.0Q657 -363 593.0 -340.5Q529 -318 468.0 -286.5Q407 -255 360.0 -213.5Q313 -172 284.5 -119.0Q256 -66 256 0V1438Q256 1504 284.5 1557.0Q313 1610 360.0 1651.5Q407 1693 468.0 1724.5Q529 1756 593.0 1778.5Q657 1801 719.5 1816.0Q782 1831 833 1840Q921 1855 1010.0 1862.0Q1099 1869 1190 1869Z" style="fill:#000000;stroke:none" transform="scale(1,-1) translate(0,-256)" /></svg>