<?xml version="1.0" encoding="utf-8" ?>
<svg baseProfile="full" height="256" version="1.1" width="256" xmlns="http://www.w3.org/2000/svg" xmlns:ev="http://www.w3.org/2001/xml-events" xmlns:xlink="http://www.w3.org/1999/xlink"><defs /><path d="M1190 1653Q1236 1653 1295.0 1650.0Q1354 1647 1417.5 1640.0Q1481 1633 1546.5 1621.5Q1612 1610 1672.0 1592.0Q1732 1574 1784.0 1550.0Q1836 1526 1872 1495Q1883 1485 1896.0 1470.0Q1909 1455 1909 1438Q1909 1421 1896.0 1406.0Q1883 1391 1872 1380Q1836 1349 1784.5 1325.0Q1733 1301 1673.0 1283.5Q1613 1266 1547.0 1254.5Q1481 1243 1417.0 1235.5Q1353 1228 1294.5 1225.0Q1236 1222 1190 1222Q1144 1222 1086.0 1225.0Q1028 1228 963.5 1235.5Q899 1243 833.0 1254.5Q767 1266 706.5 1283.5Q646 1301 595.0 1325.0Q544 1349 509 1380Q498 1391 485.0 1406.0Q472 1421 472 1438Q472 1455 485.0 1469.5Q498 1484 509 1495Q544 1526 595.5 1550.0Q647 1574 707.5 1591.5Q768 1609 833.5 1621.0Q899 1633 963.0 1640.0Q1027 1647 1085.5 1650.0Q1144 1653 1190 1653Z" style="fill:#cccccc;stroke:none" transform="scale(1,-1) translate(0,-256)" /></svg>