<?xml version="1.0" encoding="utf-8" ?>
<svg baseProfile="full" height="256" version="1.1" width="256" xmlns="http://www.w3.org/2000/svg" xmlns:ev="http://www.w3.org/2001/xml-events" xmlns:xlink="http://www.w3.org/1999/xlink"><defs /><path d="M1190 1725Q1268 1725 1344.5 1719.5Q1421 1714 1498 1702Q1528 1697 1575.5 1687.5Q1623 1678 1676.5 1663.0Q1730 1648 1784.5 1626.5Q1839 1605 1882.5 1577.0Q1926 1549 1953.5 1514.5Q1981 1480 1981 1438Q1981 1396 1953.5 1361.0Q1926 1326 1882.5 1298.0Q1839 1270 1785.0 1249.0Q1731 1228 1677.0 1212.5Q1623 1197 1575.5 1187.0Q1528 1177 1498 1173Q1421 1161 1344.5 1155.5Q1268 1150 1190 1150Q1108 1150 1026.5 1156.0Q945 1162 864 1176Q834 1181 788.5 1190.5Q743 1200 691.5 1215.5Q640 1231 588.0 1252.0Q536 1273 494.0 1300.5Q452 1328 426.0 1362.5Q400 1397 400 1438Q400 1479 426.0 1513.0Q452 1547 494.0 1574.5Q536 1602 588.0 1623.0Q640 1644 691.5 1659.5Q743 1675 788.5 1684.5Q834 1694 864 1699Q945 1713 1026.5 1719.0Q1108 1725 1190 1725Z" style="fill:#ffffff;stroke:none" transform="scale(1,-1) translate(0,-256)" /></svg>