<?xml version="1.0" encoding="utf-8" ?>
<svg baseProfile="full" height="256" version="1.1" width="256" xmlns="http://www.w3.org/2000/svg" xmlns:ev="http://www.w3.org/2001/xml-events" xmlns:xlink="http://www.w3.org/1999/xlink"><defs /><path d="M1693 800V569Q1572 532 1444.5 517.5Q1317 503 1190 503Q1172 503 1154.0 503.5Q1136 504 1118 505V364Q1118 350 1107.5 339.0Q1097 328 1083 328Q1068 328 1057.5 338.5Q1047 349 1047 364V508Q983 512 904.5 522.5Q826 533 747.0 552.5Q668 572 595.5 601.0Q523 630 472 671V800Z" style="fill:#ffc83d;stroke:none" transform="scale(1,-1) translate(0,-256)" /></svg>