<?xml version="1.0" encoding="utf-8" ?>
<svg baseProfile="full" height="256" version="1.1" width="256" xmlns="http://www.w3.org/2000/svg" xmlns:ev="http://www.w3.org/2001/xml-events" xmlns:xlink="http://www.w3.org/1999/xlink"><defs /><path d="M1981 791Q1981 761 1966.0 735.0Q1951 709 1926.5 686.5Q1902 664 1871.5 645.5Q1841 627 1809.0 612.5Q1777 598 1746.5 587.0Q1716 576 1693 569Q1675 534 1641.5 508.0Q1608 482 1565.0 463.5Q1522 445 1473.5 433.0Q1425 421 1377.0 414.0Q1329 407 1284.0 404.5Q1239 402 1205 402Q1089 402 974 420Q939 425 891.5 435.0Q844 445 792.5 459.5Q741 474 689.0 494.5Q637 515 592.5 541.0Q548 567 515.5 599.5Q483 632 471 671Q443 692 421.5 723.0Q400 754 400 791Q400 832 426.5 866.5Q453 901 495.5 928.5Q538 956 590.5 977.0Q643 998 695.0 1013.5Q747 1029 793.5 1039.0Q840 1049 870 1054Q950 1067 1029.5 1072.5Q1109 1078 1190 1078Q1271 1078 1350.5 1072.5Q1430 1067 1510 1054Q1540 1049 1586.5 1039.0Q1633 1029 1685.5 1013.5Q1738 998 1790.5 977.0Q1843 956 1885.5 928.5Q1928 901 1954.5 866.5Q1981 832 1981 791Z" style="fill:#ffb900;stroke:none" transform="scale(1,-1) translate(0,-256)" /></svg>