<?xml version="1.0" encoding="utf-8" ?>
<svg baseProfile="full" height="256" version="1.1" width="256" xmlns="http://www.w3.org/2000/svg" xmlns:ev="http://www.w3.org/2001/xml-events" xmlns:xlink="http://www.w3.org/1999/xlink"><defs /><path d="M1406 825Q1406 799 1382 791L1118 698V597L1083 584L1047 597V698L783 791Q759 799 759 825Q759 840 769.5 850.5Q780 861 795 861Q800 861 821.0 854.5Q842 848 871.0 838.0Q900 828 933.5 816.0Q967 804 997.0 793.0Q1027 782 1050.5 773.0Q1074 764 1083 761Q1092 764 1115.0 772.5Q1138 781 1168.5 792.0Q1199 803 1232.0 815.5Q1265 828 1294.0 838.0Q1323 848 1343.5 854.5Q1364 861 1369 861Q1384 861 1395.0 850.0Q1406 839 1406 825Z" style="fill:#f2f2f2;stroke:none" transform="scale(1,-1) translate(0,-256)" /></svg>