<?xml version="1.0" encoding="utf-8" ?>
<svg baseProfile="full" height="256" version="1.1" width="256" xmlns="http://www.w3.org/2000/svg" xmlns:ev="http://www.w3.org/2001/xml-events" xmlns:xlink="http://www.w3.org/1999/xlink"><defs /><path d="M1981 144V0Q1981 -42 1953.5 -77.0Q1926 -112 1882.5 -139.5Q1839 -167 1785.0 -188.5Q1731 -210 1677.0 -225.5Q1623 -241 1575.5 -250.5Q1528 -260 1498 -265Q1421 -276 1344.5 -281.5Q1268 -287 1190 -287Q1108 -287 1026.5 -281.0Q945 -275 864 -261Q834 -256 788.5 -246.5Q743 -237 691.5 -221.5Q640 -206 588.0 -185.0Q536 -164 494.0 -136.5Q452 -109 426.0 -75.0Q400 -41 400 0V144Z" style="fill:#cccccc;stroke:none" transform="scale(1,-1) translate(0,-256)" /></svg>