<?xml version="1.0" encoding="utf-8" ?>
<svg baseProfile="full" height="256" version="1.1" width="256" xmlns="http://www.w3.org/2000/svg" xmlns:ev="http://www.w3.org/2001/xml-events" xmlns:xlink="http://www.w3.org/1999/xlink"><defs /><path d="M1496 1401Q1655 1401 1792.0 1343.5Q1929 1286 2042 1175L2186 1032Q2296 923 2354.0 781.5Q2412 640 2412 485Q2412 378 2384.5 279.5Q2357 181 2306.5 95.0Q2256 9 2185.5 -61.5Q2115 -132 2029.0 -182.5Q1943 -233 1844.5 -260.5Q1746 -288 1639 -288Q1484 -288 1343.0 -229.5Q1202 -171 1093 -61L950 83Q839 196 781.0 333.0Q723 470 723 629Q723 735 750.5 834.0Q778 933 828.5 1018.5Q879 1104 949.5 1174.5Q1020 1245 1106.0 1295.5Q1192 1346 1291.0 1373.5Q1390 1401 1496 1401Z" style="fill:#e4f577;stroke:none" transform="scale(1,-1) translate(0,-256)" /></svg>