<?xml version="1.0" encoding="utf-8" ?>
<svg baseProfile="full" height="256" version="1.1" width="256" xmlns="http://www.w3.org/2000/svg" xmlns:ev="http://www.w3.org/2001/xml-events" xmlns:xlink="http://www.w3.org/1999/xlink"><defs /><path d="M1694 575Q1724 575 1750.0 563.5Q1776 552 1795.5 532.5Q1815 513 1826.5 487.0Q1838 461 1838 431Q1838 401 1826.5 375.0Q1815 349 1795.5 329.5Q1776 310 1750.0 299.0Q1724 288 1694 288Q1664 288 1638.0 299.0Q1612 310 1592.5 329.5Q1573 349 1561.5 375.0Q1550 401 1550 431Q1550 461 1561.0 487.0Q1572 513 1591.5 532.5Q1611 552 1637.5 563.5Q1664 575 1694 575ZM1262 288Q1292 288 1318.0 276.5Q1344 265 1363.5 245.5Q1383 226 1394.5 200.0Q1406 174 1406 144Q1406 114 1394.5 88.0Q1383 62 1363.5 42.5Q1344 23 1318.0 11.5Q1292 0 1262 0Q1232 0 1206.0 11.5Q1180 23 1160.5 42.5Q1141 62 1130.0 88.0Q1119 114 1119 144Q1119 174 1130.0 200.0Q1141 226 1160.5 245.5Q1180 265 1206.0 276.5Q1232 288 1262 288ZM1226 431Q1204 431 1184.5 439.5Q1165 448 1150.5 463.0Q1136 478 1127.5 497.5Q1119 517 1119 539Q1119 561 1127.5 580.5Q1136 600 1150.0 615.0Q1164 630 1183.5 638.5Q1203 647 1226 647Q1248 647 1268.0 638.5Q1288 630 1302.5 615.5Q1317 601 1325.5 581.0Q1334 561 1334 539Q1334 517 1325.5 497.5Q1317 478 1302.0 463.0Q1287 448 1267.5 439.5Q1248 431 1226 431ZM1658 72Q1680 72 1699.5 63.5Q1719 55 1734.0 40.0Q1749 25 1757.5 5.5Q1766 -14 1766 -36Q1766 -58 1757.5 -77.5Q1749 -97 1734.0 -112.0Q1719 -127 1699.5 -135.5Q1680 -144 1658 -144Q1636 -144 1616.5 -135.5Q1597 -127 1582.0 -112.0Q1567 -97 1558.5 -77.5Q1550 -58 1550 -36Q1550 -14 1558.5 6.0Q1567 26 1581.5 40.5Q1596 55 1615.5 63.5Q1635 72 1658 72ZM2017 288Q2039 288 2058.5 279.5Q2078 271 2093.0 256.0Q2108 241 2116.5 221.5Q2125 202 2125 180Q2125 157 2116.5 137.5Q2108 118 2093.5 103.5Q2079 89 2059.0 80.5Q2039 72 2017 72Q1995 72 1975.5 80.5Q1956 89 1941.0 104.0Q1926 119 1917.5 138.5Q1909 158 1909 180Q1909 202 1917.5 221.5Q1926 241 1941.0 256.0Q1956 271 1975.5 279.5Q1995 288 2017 288Z" style="fill:#8cbd18;stroke:none" transform="scale(1,-1) translate(0,-256)" /></svg>