<?xml version="1.0" encoding="utf-8" ?>
<svg baseProfile="full" height="256" version="1.1" width="256" xmlns="http://www.w3.org/2000/svg" xmlns:ev="http://www.w3.org/2001/xml-events" xmlns:xlink="http://www.w3.org/1999/xlink"><defs /><path d="M1550 1725Q1580 1725 1601.0 1704.0Q1622 1683 1622 1653Q1622 1624 1600.5 1602.5Q1579 1581 1550 1581H1333Q1268 1581 1219.5 1569.0Q1171 1557 1130.0 1533.5Q1089 1510 1051.0 1477.0Q1013 1444 968 1402L1182 1188L1080 1087L853 1314Q810 1288 768.5 1270.5Q727 1253 684.0 1242.5Q641 1232 596.0 1227.0Q551 1222 502 1222Q482 1222 464.0 1224.0Q446 1226 431.5 1233.5Q417 1241 408.5 1255.5Q400 1270 400 1294Q400 1318 409.5 1332.5Q419 1347 434.0 1354.5Q449 1362 468.0 1364.5Q487 1367 506 1367Q517 1367 527.5 1366.5Q538 1366 548 1366Q597 1366 643.0 1378.0Q689 1390 731.5 1411.0Q774 1432 812.5 1460.5Q851 1489 886 1522Q938 1572 986.5 1610.0Q1035 1648 1087.0 1673.5Q1139 1699 1198.5 1712.0Q1258 1725 1333 1725Z" style="fill:#d48c00;stroke:none" transform="scale(1,-1) translate(0,-256)" /></svg>