<?xml version="1.0" encoding="utf-8" ?>
<svg baseProfile="full" height="256" version="1.1" width="256" xmlns="http://www.w3.org/2000/svg" xmlns:ev="http://www.w3.org/2001/xml-events" xmlns:xlink="http://www.w3.org/1999/xlink"><defs /><path d="M1640 -431Q1452 -431 1288.5 -363.0Q1125 -295 992 -163L848 -19Q716 114 647.5 277.5Q579 441 579 629Q579 754 611.0 873.5Q643 993 709 1099Q650 1085 591.0 1081.5Q532 1078 472 1078Q427 1078 388.0 1095.0Q349 1112 319.5 1141.5Q290 1171 273.0 1210.0Q256 1249 256 1294Q256 1339 273.0 1378.0Q290 1417 319.5 1446.5Q349 1476 388.0 1493.0Q427 1510 472 1510H544Q606 1510 657.0 1536.5Q708 1563 757.5 1603.0Q807 1643 860.5 1689.5Q914 1736 980.5 1776.0Q1047 1816 1132.5 1842.5Q1218 1869 1333 1869H1550Q1595 1869 1634.0 1852.0Q1673 1835 1702.5 1805.5Q1732 1776 1749.0 1737.0Q1766 1698 1766 1653Q1766 1615 1754.0 1581.0Q1742 1547 1718 1518Q1844 1488 1948.5 1428.0Q2053 1368 2144 1277L2288 1133Q2420 1000 2488.0 836.0Q2556 672 2556 485Q2556 358 2523.5 241.0Q2491 124 2431.5 22.0Q2372 -80 2288.5 -163.5Q2205 -247 2103.0 -306.5Q2001 -366 1884.0 -398.5Q1767 -431 1640 -431Z" style="fill:#000000;stroke:none" transform="scale(1,-1) translate(0,-256)" /></svg>