<?xml version="1.0" encoding="utf-8" ?>
<svg baseProfile="full" height="256" version="1.1" width="256" xmlns="http://www.w3.org/2000/svg" xmlns:ev="http://www.w3.org/2001/xml-events" xmlns:xlink="http://www.w3.org/1999/xlink"><defs /><path d="M1622 503Q1622 543 1633.0 582.0Q1644 621 1665.0 654.5Q1686 688 1715.5 715.5Q1745 743 1781 761Q1739 791 1716.0 837.0Q1693 883 1693 934Q1693 979 1710.0 1018.0Q1727 1057 1756.5 1086.5Q1786 1116 1825.0 1133.0Q1864 1150 1909 1150Q1954 1150 1993.0 1133.0Q2032 1116 2061.5 1086.5Q2091 1057 2108.0 1018.0Q2125 979 2125 934Q2125 883 2102.0 837.0Q2079 791 2037 761Q2074 743 2103.5 715.5Q2133 688 2154.0 654.5Q2175 621 2186.0 582.0Q2197 543 2197 503ZM400 144H2412V72H400Z" style="fill:#d8b094;stroke:none" transform="scale(1,-1) translate(0,-256)" /></svg>