<?xml version="1.0" encoding="utf-8" ?>
<svg baseProfile="full" height="256" version="1.1" width="256" xmlns="http://www.w3.org/2000/svg" xmlns:ev="http://www.w3.org/2001/xml-events" xmlns:xlink="http://www.w3.org/1999/xlink"><defs /><path d="M1909 288H2125Q2125 198 2091.0 119.5Q2057 41 1998.5 -17.5Q1940 -76 1861.5 -110.0Q1783 -144 1693 -144H1334V-181Q1334 -200 1332.0 -219.0Q1330 -238 1322.5 -253.0Q1315 -268 1300.5 -277.5Q1286 -287 1262 -287Q1238 -287 1223.5 -277.5Q1209 -268 1201.5 -253.0Q1194 -238 1192.0 -219.0Q1190 -200 1190 -181V-144H831Q741 -144 662.5 -110.0Q584 -76 525.5 -17.5Q467 41 433.5 119.5Q400 198 400 288H615Q712 288 796 237L1190 0V431H1334V0L1728 237Q1769 261 1815.0 274.5Q1861 288 1909 288Z" style="fill:#13a10e;stroke:none" transform="scale(1,-1) translate(0,-256)" /></svg>