<?xml version="1.0" encoding="utf-8" ?>
<svg baseProfile="full" height="256" version="1.1" width="256" xmlns="http://www.w3.org/2000/svg" xmlns:ev="http://www.w3.org/2001/xml-events" xmlns:xlink="http://www.w3.org/1999/xlink"><defs /><path d="M1609 1150H1837Q1867 1150 1893.0 1138.5Q1919 1127 1938.5 1107.5Q1958 1088 1969.5 1062.0Q1981 1036 1981 1006Q1981 976 1969.5 950.0Q1958 924 1938.5 904.5Q1919 885 1893.0 874.0Q1867 863 1837 863H1609L1770 701Q1790 681 1801.5 654.5Q1813 628 1813 599Q1813 569 1801.5 543.0Q1790 517 1770.0 497.5Q1750 478 1724.0 467.0Q1698 456 1668 456Q1609 456 1567 498L1406 659V431Q1406 401 1394.5 375.0Q1383 349 1363.5 329.5Q1344 310 1318.0 299.0Q1292 288 1262 288Q1232 288 1206.0 299.0Q1180 310 1160.5 329.5Q1141 349 1129.5 375.0Q1118 401 1118 431V659L957 498Q937 478 910.5 467.0Q884 456 855 456Q825 456 799.0 467.0Q773 478 753.5 497.5Q734 517 723.0 543.0Q712 569 712 599Q712 628 723.0 654.5Q734 681 754 701L915 863H687Q657 863 631.0 874.0Q605 885 585.5 904.5Q566 924 554.5 950.0Q543 976 543 1006Q543 1036 554.5 1062.0Q566 1088 585.5 1107.5Q605 1127 631.0 1138.5Q657 1150 687 1150H915L754 1311Q734 1331 723.0 1357.5Q712 1384 712 1413Q712 1443 723.0 1469.0Q734 1495 753.5 1514.5Q773 1534 799.0 1545.5Q825 1557 855 1557Q884 1557 910.5 1546.0Q937 1535 957 1515L1118 1353V1581Q1118 1611 1129.5 1637.0Q1141 1663 1160.5 1682.5Q1180 1702 1206.0 1713.5Q1232 1725 1262 1725Q1292 1725 1318.0 1713.5Q1344 1702 1363.5 1682.5Q1383 1663 1394.5 1637.0Q1406 1611 1406 1581V1353L1567 1515Q1587 1535 1613.5 1546.0Q1640 1557 1668 1557Q1698 1557 1724.0 1545.5Q1750 1534 1770.0 1514.5Q1790 1495 1801.5 1469.0Q1813 1443 1813 1413Q1813 1384 1801.5 1357.5Q1790 1331 1770 1311Z" style="fill:#ffffff;stroke:none" transform="scale(1,-1) translate(0,-256)" /></svg>