<?xml version="1.0" encoding="utf-8" ?>
<svg baseProfile="full" height="256" version="1.1" width="256" xmlns="http://www.w3.org/2000/svg" xmlns:ev="http://www.w3.org/2001/xml-events" xmlns:xlink="http://www.w3.org/1999/xlink"><defs /><path d="M1550 1006Q1550 947 1527.0 895.0Q1504 843 1464.5 804.0Q1425 765 1372.5 742.0Q1320 719 1262 719Q1203 719 1150.5 741.5Q1098 764 1059.0 803.0Q1020 842 997.5 894.5Q975 947 975 1006Q975 1066 997.5 1118.5Q1020 1171 1059.0 1210.0Q1098 1249 1150.0 1271.5Q1202 1294 1262 1294Q1322 1294 1374.5 1271.5Q1427 1249 1466.0 1210.0Q1505 1171 1527.5 1118.5Q1550 1066 1550 1006Z" style="fill:#f7630c;stroke:none" transform="scale(1,-1) translate(0,-256)" /></svg>