<?xml version="1.0" encoding="utf-8" ?>
<svg baseProfile="full" height="256" version="1.1" width="256" xmlns="http://www.w3.org/2000/svg" xmlns:ev="http://www.w3.org/2001/xml-events" xmlns:xlink="http://www.w3.org/1999/xlink"><defs /><path d="M1262 -431Q1227 -431 1195.5 -420.5Q1164 -410 1138.0 -391.0Q1112 -372 1091.5 -345.5Q1071 -319 1059 -287H831Q712 -287 607.5 -241.5Q503 -196 425.0 -118.0Q347 -40 301.5 64.5Q256 169 256 288V431H623Q595 468 581.5 511.0Q568 554 568 600Q568 670 600 732Q555 746 518.5 773.0Q482 800 455.5 836.5Q429 873 414.5 916.0Q400 959 400 1006Q400 1052 414.5 1096.0Q429 1140 455.5 1176.5Q482 1213 518.5 1240.0Q555 1267 600 1281Q568 1343 568 1413Q568 1473 590.5 1525.5Q613 1578 652.0 1617.0Q691 1656 743.5 1678.5Q796 1701 856 1701Q891 1701 924.0 1692.5Q957 1684 988 1668Q1002 1713 1029.0 1750.0Q1056 1787 1092.0 1813.5Q1128 1840 1171.5 1854.5Q1215 1869 1262 1869Q1309 1869 1352.5 1854.5Q1396 1840 1432.0 1813.5Q1468 1787 1495.0 1750.0Q1522 1713 1536 1668Q1567 1684 1600.5 1692.5Q1634 1701 1669 1701Q1727 1701 1779.5 1678.0Q1832 1655 1871.0 1615.5Q1910 1576 1933.0 1523.5Q1956 1471 1956 1413Q1956 1343 1924 1281Q1969 1267 2006.0 1240.0Q2043 1213 2069.5 1176.5Q2096 1140 2110.5 1096.5Q2125 1053 2125 1006Q2125 959 2110.5 915.5Q2096 872 2069.5 836.0Q2043 800 2006.0 773.0Q1969 746 1924 732Q1956 670 1956 600Q1956 555 1942.0 511.5Q1928 468 1902 431H2268V288Q2268 169 2222.5 64.5Q2177 -40 2099.0 -118.0Q2021 -196 1916.0 -241.5Q1811 -287 1693 -287H1465Q1453 -319 1432.5 -345.5Q1412 -372 1386.0 -391.0Q1360 -410 1328.0 -420.5Q1296 -431 1262 -431Z" style="fill:#000000;stroke:none" transform="scale(1,-1) translate(0,-256)" /></svg>