<?xml version="1.0" encoding="utf-8" ?>
<svg baseProfile="full" height="256" version="1.1" width="256" xmlns="http://www.w3.org/2000/svg" xmlns:ev="http://www.w3.org/2001/xml-events" xmlns:xlink="http://www.w3.org/1999/xlink"><defs /><path d="M1391 1725Q1490 1725 1587.5 1719.5Q1685 1714 1783 1700Q1819 1695 1879.0 1684.5Q1939 1674 2007.0 1656.5Q2075 1639 2144.5 1615.5Q2214 1592 2270.0 1560.5Q2326 1529 2361.5 1489.5Q2397 1450 2397 1402Q2397 1367 2376.0 1337.0Q2355 1307 2324.5 1282.0Q2294 1257 2259.0 1238.5Q2224 1220 2196 1209Q2180 1202 2162.0 1196.5Q2144 1191 2129 1183Q2121 1178 2113.5 1172.5Q2106 1167 2098 1162Q2081 1151 2062.0 1142.5Q2043 1134 2024 1126Q1961 1100 1880.0 1084.5Q1799 1069 1713.5 1061.0Q1628 1053 1544.0 1050.5Q1460 1048 1391 1048Q1324 1048 1253.0 1049.5Q1182 1051 1111.0 1057.0Q1040 1063 970.5 1074.5Q901 1086 837 1106Q806 1116 775.5 1127.5Q745 1139 716 1153Q706 1158 697.5 1163.0Q689 1168 679 1173Q663 1180 647.0 1185.0Q631 1190 614 1196Q583 1207 543.5 1226.5Q504 1246 468.5 1272.0Q433 1298 409.0 1331.0Q385 1364 385 1402Q385 1450 420.5 1489.0Q456 1528 512.0 1559.5Q568 1591 637.5 1615.0Q707 1639 775.5 1656.0Q844 1673 903.5 1684.0Q963 1695 999 1700Q1097 1714 1194.5 1719.5Q1292 1725 1391 1725ZM749 1302Q1070 1302 1386.5 1305.5Q1703 1309 2023 1309Q2032 1309 2041.0 1309.0Q2050 1309 2058 1310Q2074 1312 2101.0 1322.5Q2128 1333 2156.0 1347.0Q2184 1361 2209.0 1376.0Q2234 1391 2246 1402Q2218 1428 2170.5 1450.5Q2123 1473 2069.5 1490.5Q2016 1508 1963.0 1520.5Q1910 1533 1872 1540Q1852 1544 1831.0 1546.0Q1810 1548 1790 1554Q1774 1559 1759.0 1565.0Q1744 1571 1727 1575Q1646 1595 1563.0 1599.0Q1480 1603 1397 1603Q1363 1603 1313.0 1601.5Q1263 1600 1210.5 1595.5Q1158 1591 1110.0 1582.5Q1062 1574 1033 1559Q1001 1555 958.0 1548.0Q915 1541 867.5 1531.0Q820 1521 771.0 1507.5Q722 1494 677.5 1478.0Q633 1462 596.0 1443.0Q559 1424 536 1402Q554 1385 573.5 1373.0Q593 1361 614.5 1351.5Q636 1342 658.0 1334.0Q680 1326 702 1317Q714 1312 724.5 1307.0Q735 1302 749 1302Z" style="fill:#00bcf2;stroke:none" transform="scale(1,-1) translate(0,-256)" /></svg>