<?xml version="1.0" encoding="utf-8" ?>
<svg baseProfile="full" height="256" version="1.1" width="256" xmlns="http://www.w3.org/2000/svg" xmlns:ev="http://www.w3.org/2001/xml-events" xmlns:xlink="http://www.w3.org/1999/xlink"><defs /><path d="M1011 791Q1033 791 1053.0 782.5Q1073 774 1087.5 759.5Q1102 745 1110.5 725.0Q1119 705 1119 683V539Q1119 516 1110.5 496.5Q1102 477 1087.0 463.0Q1072 449 1052.5 440.5Q1033 432 1011 432Q989 432 969.5 440.5Q950 449 935.0 463.5Q920 478 911.5 497.5Q903 517 903 539V683Q903 705 911.5 724.5Q920 744 935.0 759.0Q950 774 969.5 782.5Q989 791 1011 791ZM1801 791Q1823 791 1842.5 782.5Q1862 774 1877.0 759.0Q1892 744 1900.5 724.5Q1909 705 1909 683V539Q1909 517 1900.5 497.5Q1892 478 1877.0 463.5Q1862 449 1842.5 440.5Q1823 432 1801 432Q1779 432 1759.5 440.5Q1740 449 1725.0 463.0Q1710 477 1701.5 496.5Q1693 516 1693 539V683Q1693 705 1701.5 725.0Q1710 745 1724.5 759.5Q1739 774 1758.5 782.5Q1778 791 1801 791Z" style="fill:#000000;stroke:none" transform="scale(1,-1) translate(0,-256)" /></svg>