<?xml version="1.0" encoding="utf-8" ?>
<svg baseProfile="full" height="256" version="1.1" width="256" xmlns="http://www.w3.org/2000/svg" xmlns:ev="http://www.w3.org/2001/xml-events" xmlns:xlink="http://www.w3.org/1999/xlink"><defs /><path d="M1405 216Q1375 216 1349.0 227.5Q1323 239 1303.5 258.5Q1284 278 1273.0 304.0Q1262 330 1262 360H1549Q1549 330 1537.5 303.5Q1526 277 1506.5 257.5Q1487 238 1461.0 227.0Q1435 216 1405 216ZM1621 144Q1650 144 1671.5 122.5Q1693 101 1693 72Q1693 48 1677.0 28.0Q1661 8 1635.0 -8.0Q1609 -24 1577.0 -36.0Q1545 -48 1513.0 -56.0Q1481 -64 1452.5 -68.0Q1424 -72 1405 -72Q1386 -72 1357.5 -68.0Q1329 -64 1297.0 -56.0Q1265 -48 1233.0 -36.0Q1201 -24 1175.5 -8.0Q1150 8 1134.0 28.5Q1118 49 1118 73Q1118 102 1139.0 123.0Q1160 144 1189 144Q1204 144 1225.5 132.5Q1247 121 1274.5 107.5Q1302 94 1334.5 83.0Q1367 72 1405 72Q1442 72 1475.5 83.0Q1509 94 1537.0 107.5Q1565 121 1586.0 132.5Q1607 144 1621 144Z" style="fill:#f7894a;stroke:none" transform="scale(1,-1) translate(0,-256)" /></svg>