<?xml version="1.0" encoding="utf-8" ?>
<svg baseProfile="full" height="256" version="1.1" width="256" xmlns="http://www.w3.org/2000/svg" xmlns:ev="http://www.w3.org/2001/xml-events" xmlns:xlink="http://www.w3.org/1999/xlink"><defs /><path d="M2341 72H2197Q2165 72 2145.0 52.0Q2125 32 2125 0H2305L2269 -72H2125Q2093 -72 2073.0 -92.0Q2053 -112 2053 -144H2209Q2171 -179 2122.0 -197.0Q2073 -215 2021 -215Q1943 -215 1878.0 -176.5Q1813 -138 1774 -72V216H2413ZM471 72 399 216H1046V-72Q1001 -138 935.0 -176.5Q869 -215 791 -215Q739 -215 690.0 -197.0Q641 -179 603 -144H760Q760 -112 740.0 -92.0Q720 -72 688 -72H543L507 0H688Q688 32 668.0 52.0Q648 72 616 72Z" style="fill:#ffffff;stroke:none" transform="scale(1,-1) translate(0,-256)" /></svg>