<?xml version="1.0" encoding="utf-8" ?>
<svg baseProfile="full" height="256" version="1.1" width="256" xmlns="http://www.w3.org/2000/svg" xmlns:ev="http://www.w3.org/2001/xml-events" xmlns:xlink="http://www.w3.org/1999/xlink"><defs /><path d="M2197 791H2233Q2255 791 2275.0 782.5Q2295 774 2309.5 759.5Q2324 745 2332.5 725.0Q2341 705 2341 683V467Q2341 445 2332.5 425.5Q2324 406 2309.0 391.5Q2294 377 2274.5 368.5Q2255 360 2233 360H2183Q2166 266 2128.5 182.0Q2091 98 2036.0 26.0Q1981 -46 1912.0 -104.0Q1843 -162 1762.0 -202.5Q1681 -243 1591.5 -265.0Q1502 -287 1407 -287Q1264 -287 1134.5 -238.5Q1005 -190 901.5 -104.0Q798 -18 726.5 101.0Q655 220 630 360H580Q558 360 538.5 368.5Q519 377 504.0 391.5Q489 406 480.5 425.5Q472 445 472 467V683Q472 705 480.5 725.0Q489 745 503.5 759.5Q518 774 537.5 782.5Q557 791 580 791H616L646 863Q646 978 675.0 1066.0Q704 1154 755.5 1220.0Q807 1286 878.0 1330.5Q949 1375 1033.5 1402.0Q1118 1429 1213.0 1441.0Q1308 1453 1407 1453Q1506 1453 1601.0 1441.0Q1696 1429 1780.0 1402.0Q1864 1375 1935.5 1330.5Q2007 1286 2058.0 1220.0Q2109 1154 2138.0 1066.0Q2167 978 2167 863Z" style="fill:#ffc83d;stroke:none" transform="scale(1,-1) translate(0,-256)" /></svg>