<?xml version="1.0" encoding="utf-8" ?>
<svg baseProfile="full" height="256" version="1.1" width="256" xmlns="http://www.w3.org/2000/svg" xmlns:ev="http://www.w3.org/2001/xml-events" xmlns:xlink="http://www.w3.org/1999/xlink"><defs /><path d="M2129 1183Q2163 1108 2180.0 1027.0Q2197 946 2197 863V791L1946 1042L1766 863L1586 1042L1406 863L1227 1042L1047 863L867 1042L616 791V863Q616 943 632.0 1021.0Q648 1099 679 1173Q763 1146 852.0 1128.0Q941 1110 1031.5 1099.0Q1122 1088 1212.5 1083.0Q1303 1078 1391 1078Q1480 1078 1575.0 1083.5Q1670 1089 1764.5 1101.5Q1859 1114 1951.5 1134.0Q2044 1154 2129 1183ZM2058 1310Q1979 1284 1896.0 1267.0Q1813 1250 1728.5 1240.0Q1644 1230 1559.0 1226.0Q1474 1222 1391 1222Q1228 1222 1067.0 1239.0Q906 1256 749 1302Q804 1384 876.5 1449.0Q949 1514 1033.5 1559.5Q1118 1605 1212.5 1629.0Q1307 1653 1406 1653Q1503 1653 1596.5 1629.5Q1690 1606 1774.5 1562.0Q1859 1518 1931.0 1454.5Q2003 1391 2058 1310Z" style="fill:#fce100;stroke:none" transform="scale(1,-1) translate(0,-256)" /></svg>