<?xml version="1.0" encoding="utf-8" ?>
<svg baseProfile="full" height="256" version="1.1" width="256" xmlns="http://www.w3.org/2000/svg" xmlns:ev="http://www.w3.org/2001/xml-events" xmlns:xlink="http://www.w3.org/1999/xlink"><defs /><path d="M2459 360H2556V160Q2514 84 2475.0 7.5Q2436 -69 2392 -144Q2363 -194 2323.0 -234.0Q2283 -274 2235.0 -301.5Q2187 -329 2132.5 -344.0Q2078 -359 2020 -359Q1928 -359 1844 -321Q1743 -375 1632.0 -403.0Q1521 -431 1406 -431Q1291 -431 1180.0 -403.0Q1069 -375 967 -321Q883 -359 791 -359Q733 -359 678.5 -344.0Q624 -329 576.0 -301.5Q528 -274 488.0 -234.0Q448 -194 419 -144Q375 -69 337.0 8.0Q299 85 257 160V360H353Q339 386 333.5 412.0Q328 438 328 467V683Q328 757 367.5 818.5Q407 880 474 911Q475 956 483.5 1000.0Q492 1044 500 1089Q450 1113 406.0 1142.5Q362 1172 328.5 1210.0Q295 1248 275.5 1295.5Q256 1343 256 1402Q256 1478 293.5 1539.0Q331 1600 394.5 1647.0Q458 1694 542.5 1728.5Q627 1763 721.0 1788.0Q815 1813 913.0 1828.5Q1011 1844 1102.0 1853.0Q1193 1862 1271.0 1865.5Q1349 1869 1403 1869Q1457 1869 1535.5 1865.5Q1614 1862 1705.0 1853.0Q1796 1844 1894.5 1828.5Q1993 1813 2087.5 1788.0Q2182 1763 2267.0 1728.5Q2352 1694 2416.5 1647.0Q2481 1600 2518.5 1539.0Q2556 1478 2556 1402Q2556 1350 2533.0 1305.0Q2510 1260 2474.5 1222.0Q2439 1184 2395.0 1154.0Q2351 1124 2309 1103Q2320 1055 2328.0 1007.5Q2336 960 2339 911Q2406 880 2445.0 818.5Q2484 757 2484 683V467Q2484 438 2478.5 412.0Q2473 386 2459 360Z" style="fill:#000000;stroke:none" transform="scale(1,-1) translate(0,-256)" /></svg>