<?xml version="1.0" encoding="utf-8" ?>
<svg baseProfile="full" height="256" version="1.1" width="256" xmlns="http://www.w3.org/2000/svg" xmlns:ev="http://www.w3.org/2001/xml-events" xmlns:xlink="http://www.w3.org/1999/xlink"><defs /><path d="M1118 1438Q1148 1438 1169.0 1417.0Q1190 1396 1190 1366Q1190 1336 1169.0 1315.0Q1148 1294 1118 1294H1013L603 679L484 759L915 1406Q926 1420 941.5 1429.0Q957 1438 975 1438ZM2328 759 2209 679 1799 1294H1693Q1664 1294 1643.0 1315.5Q1622 1337 1622 1366Q1622 1395 1643.0 1416.5Q1664 1438 1693 1438H1837Q1855 1438 1870.5 1428.5Q1886 1419 1896 1405ZM1550 683Q1579 683 1600.5 661.5Q1622 640 1622 611V431Q1622 402 1600.5 381.0Q1579 360 1550 360Q1521 360 1499.5 381.0Q1478 402 1478 431V467Q1478 486 1476.0 505.5Q1474 525 1466.5 540.5Q1459 556 1444.5 565.5Q1430 575 1406 575Q1381 575 1367.0 566.0Q1353 557 1345.5 542.0Q1338 527 1336.0 508.0Q1334 489 1334 470V431Q1334 402 1312.5 381.0Q1291 360 1262 360Q1233 360 1211.5 381.0Q1190 402 1190 431V611Q1190 640 1211.5 661.5Q1233 683 1262 683Z" style="fill:#383838;stroke:none" transform="scale(1,-1) translate(0,-256)" /></svg>