<?xml version="1.0" encoding="utf-8" ?>
<svg baseProfile="full" height="256" version="1.1" width="256" xmlns="http://www.w3.org/2000/svg" xmlns:ev="http://www.w3.org/2001/xml-events" xmlns:xlink="http://www.w3.org/1999/xlink"><defs /><path d="M1262 719V431Q1262 357 1233.5 291.5Q1205 226 1156.5 177.5Q1108 129 1042.5 100.5Q977 72 903 72Q829 72 763.5 100.5Q698 129 649.0 177.5Q600 226 571.5 291.5Q543 357 543 431V719ZM2268 719V431Q2268 357 2239.5 291.5Q2211 226 2162.5 177.5Q2114 129 2048.5 100.5Q1983 72 1909 72Q1835 72 1769.5 100.0Q1704 128 1655.0 177.0Q1606 226 1578.0 291.5Q1550 357 1550 431V719ZM2197 647H1622V431Q1622 372 1644.5 319.5Q1667 267 1706.0 228.0Q1745 189 1797.5 166.5Q1850 144 1909 144Q1967 144 2019.5 167.0Q2072 190 2111.5 229.0Q2151 268 2174.0 320.0Q2197 372 2197 431ZM1190 647H615V431Q615 372 638.0 320.0Q661 268 700.5 229.0Q740 190 792.0 167.0Q844 144 903 144Q962 144 1014.5 166.5Q1067 189 1106.0 228.0Q1145 267 1167.5 319.5Q1190 372 1190 431Z" style="fill:#0078d7;stroke:none" transform="scale(1,-1) translate(0,-256)" /></svg>