<?xml version="1.0" encoding="utf-8" ?>
<svg baseProfile="full" height="256" version="1.1" width="256" xmlns="http://www.w3.org/2000/svg" xmlns:ev="http://www.w3.org/2001/xml-events" xmlns:xlink="http://www.w3.org/1999/xlink"><defs /><path d="M903 107Q836 107 777.0 132.5Q718 158 673.5 202.0Q629 246 603.5 305.0Q578 364 578 431V684H1227V431Q1227 364 1201.5 305.0Q1176 246 1132.0 202.0Q1088 158 1029.0 132.5Q970 107 903 107ZM1909 107Q1842 107 1783.0 132.5Q1724 158 1680.0 202.0Q1636 246 1610.5 305.0Q1585 364 1585 431V684H2233V431Q2233 364 2207.5 305.0Q2182 246 2138.0 202.0Q2094 158 2035.0 132.5Q1976 107 1909 107Z" style="fill:#00bcf2;stroke:none" transform="scale(1,-1) translate(0,-256)" /></svg>