<?xml version="1.0" encoding="utf-8" ?>
<svg baseProfile="full" height="256" version="1.1" width="256" xmlns="http://www.w3.org/2000/svg" xmlns:ev="http://www.w3.org/2001/xml-events" xmlns:xlink="http://www.w3.org/1999/xlink"><defs /><path d="M2387 929Q2424 921 2455.0 901.5Q2486 882 2508.5 854.0Q2531 826 2543.5 791.5Q2556 757 2556 719Q2556 649 2517.0 594.5Q2478 540 2412 516V425Q2412 321 2372.0 230.5Q2332 140 2263.5 72.5Q2195 5 2103.5 -33.5Q2012 -72 1909 -72Q1832 -72 1759.5 -49.5Q1687 -27 1625.5 14.5Q1564 56 1516.0 115.0Q1468 174 1440 246L1406 271L1372 246Q1344 174 1296.0 115.0Q1248 56 1186.5 14.5Q1125 -27 1052.5 -49.5Q980 -72 903 -72Q800 -72 708.5 -33.5Q617 5 548.5 72.5Q480 140 440.0 230.5Q400 321 400 425V516Q334 540 295.0 594.5Q256 649 256 719Q256 757 268.5 791.5Q281 826 303.5 854.0Q326 882 357.0 901.5Q388 921 425 929L795 1485Q816 1516 841.0 1535.0Q866 1554 894.5 1564.5Q923 1575 954.5 1578.5Q986 1582 1021 1582Q1046 1582 1070.0 1581.5Q1094 1581 1118 1581Q1163 1581 1202.0 1564.0Q1241 1547 1270.5 1518.0Q1300 1489 1317.0 1450.0Q1334 1411 1334 1366Q1334 1321 1317.0 1282.0Q1300 1243 1270.5 1213.5Q1241 1184 1202.0 1167.0Q1163 1150 1118 1150H1090L946 935H1190Q1236 935 1278.0 916.0Q1320 897 1351 863H1461Q1491 898 1533.5 916.5Q1576 935 1622 935H1866L1722 1150H1693Q1649 1150 1609.5 1167.0Q1570 1184 1541.0 1213.5Q1512 1243 1495.0 1282.5Q1478 1322 1478 1366Q1478 1410 1495.0 1449.0Q1512 1488 1541.5 1517.5Q1571 1547 1610.0 1564.0Q1649 1581 1693 1581Q1718 1581 1742.0 1582.0Q1766 1583 1791 1583Q1826 1583 1858.0 1579.5Q1890 1576 1918.5 1565.5Q1947 1555 1971.5 1535.5Q1996 1516 2017 1485Z" style="fill:#000000;stroke:none" transform="scale(1,-1) translate(0,-256)" /></svg>