<?xml version="1.0" encoding="utf-8" ?>
<svg baseProfile="full" height="256" version="1.1" width="256" xmlns="http://www.w3.org/2000/svg" xmlns:ev="http://www.w3.org/2001/xml-events" xmlns:xlink="http://www.w3.org/1999/xlink"><defs /><path d="M1406 144Q1489 144 1572.0 165.5Q1655 187 1727 229Q1738 236 1752.0 246.0Q1766 256 1780.5 265.5Q1795 275 1809.5 281.5Q1824 288 1838 288Q1867 288 1888.0 266.5Q1909 245 1909 216Q1909 197 1901.5 184.0Q1894 171 1880 158Q1838 119 1780.0 89.5Q1722 60 1657.5 40.0Q1593 20 1527.5 10.0Q1462 0 1406 0Q1350 0 1284.5 10.0Q1219 20 1155.0 40.0Q1091 60 1032.5 89.5Q974 119 932 158Q918 171 910.5 184.0Q903 197 903 216Q903 245 924.5 266.0Q946 287 975 287Q988 287 1002.5 280.5Q1017 274 1031.5 265.0Q1046 256 1060.0 246.0Q1074 236 1085 229Q1157 186 1239.5 165.0Q1322 144 1406 144ZM1693 863H1909V611Q1909 588 1900.5 568.5Q1892 549 1877.5 534.5Q1863 520 1843.0 511.5Q1823 503 1801 503Q1779 503 1759.5 511.5Q1740 520 1725.0 535.0Q1710 550 1701.5 569.5Q1693 589 1693 611ZM1012 503Q989 503 969.5 511.5Q950 520 935.5 534.5Q921 549 912.5 568.5Q904 588 904 611V863H1120V611Q1120 589 1111.5 569.5Q1103 550 1088.0 535.0Q1073 520 1053.5 511.5Q1034 503 1012 503Z" style="fill:#000000;stroke:none" transform="scale(1,-1) translate(0,-256)" /></svg>