<?xml version="1.0" encoding="utf-8" ?>
<svg baseProfile="full" height="256" version="1.1" width="256" xmlns="http://www.w3.org/2000/svg" xmlns:ev="http://www.w3.org/2001/xml-events" xmlns:xlink="http://www.w3.org/1999/xlink"><defs /><path d="M2268 1581Q2326 1581 2378.5 1558.0Q2431 1535 2470.5 1496.0Q2510 1457 2533.0 1404.5Q2556 1352 2556 1294V1150Q2556 1088 2537.0 1028.5Q2518 969 2485.0 916.0Q2452 863 2407.0 818.5Q2362 774 2310 743Q2341 626 2341 502Q2341 373 2307.5 254.0Q2274 135 2213.0 31.5Q2152 -72 2066.5 -157.5Q1981 -243 1877.5 -303.5Q1774 -364 1654.5 -397.5Q1535 -431 1407 -431Q1278 -431 1159.0 -397.5Q1040 -364 936.5 -303.5Q833 -243 747.5 -157.5Q662 -72 601.0 31.5Q540 135 506.5 254.5Q473 374 473 502Q473 563 480.5 623.0Q488 683 504 742Q451 773 405.5 817.0Q360 861 327.0 914.5Q294 968 275.0 1027.5Q256 1087 256 1150V1294Q256 1353 278.5 1405.5Q301 1458 340.0 1497.0Q379 1536 431.5 1558.5Q484 1581 543 1581Q613 1581 674.5 1549.5Q736 1518 777 1461Q795 1543 836.5 1617.5Q878 1692 938.0 1747.5Q998 1803 1074.5 1836.0Q1151 1869 1239 1869Q1286 1869 1329.0 1853.0Q1372 1837 1406 1805Q1441 1837 1484.0 1853.0Q1527 1869 1575 1869Q1663 1869 1739.5 1836.5Q1816 1804 1876.0 1748.5Q1936 1693 1977.0 1619.5Q2018 1546 2036 1463Q2078 1519 2138.0 1550.0Q2198 1581 2268 1581Z" style="fill:#000000;stroke:none" transform="scale(1,-1) translate(0,-256)" /></svg>