<?xml version="1.0" encoding="utf-8" ?>
<svg baseProfile="full" height="256" version="1.1" width="256" xmlns="http://www.w3.org/2000/svg" xmlns:ev="http://www.w3.org/2001/xml-events" xmlns:xlink="http://www.w3.org/1999/xlink"><defs /><path d="M798 1006H2015Q2106 900 2152.0 770.5Q2198 641 2198 502Q2198 393 2169.5 292.0Q2141 191 2089.5 103.5Q2038 16 1965.5 -56.0Q1893 -128 1805.5 -179.5Q1718 -231 1617.0 -259.0Q1516 -287 1407 -287Q1298 -287 1197.0 -259.0Q1096 -231 1008.5 -179.5Q921 -128 848.5 -56.0Q776 16 724.5 103.5Q673 191 644.5 292.0Q616 393 616 502Q616 641 661.5 770.5Q707 900 798 1006Z" style="fill:#ffc83d;stroke:none" transform="scale(1,-1) translate(0,-256)" /></svg>