<?xml version="1.0" encoding="utf-8" ?>
<svg baseProfile="full" height="256" version="1.1" width="256" xmlns="http://www.w3.org/2000/svg" xmlns:ev="http://www.w3.org/2001/xml-events" xmlns:xlink="http://www.w3.org/1999/xlink"><defs /><path d="M2268 1438Q2298 1438 2324.0 1426.5Q2350 1415 2369.5 1395.5Q2389 1376 2400.5 1350.0Q2412 1324 2412 1294V1150Q2412 1122 2403.5 1089.0Q2395 1056 2383 1030Q2351 960 2299.5 914.0Q2248 868 2185.0 840.5Q2122 813 2051.0 802.0Q1980 791 1909 791H903Q832 791 761.0 802.0Q690 813 627.0 840.5Q564 868 512.5 914.0Q461 960 429 1030Q417 1056 408.5 1088.5Q400 1121 400 1150V1294Q400 1324 411.0 1350.0Q422 1376 441.5 1395.5Q461 1415 487.0 1426.5Q513 1438 543 1438Q573 1438 599.0 1426.5Q625 1415 644.5 1395.5Q664 1376 675.5 1350.0Q687 1324 687 1294Q687 1264 698.5 1238.0Q710 1212 729.5 1192.5Q749 1173 775.0 1161.5Q801 1150 831 1150H904Q917 1166 925.5 1185.0Q934 1204 934 1225Q934 1266 904 1294Q904 1356 915.0 1416.5Q926 1477 951.5 1530.5Q977 1584 1018.0 1627.0Q1059 1670 1120 1697Q1148 1710 1178.0 1717.5Q1208 1725 1239 1725Q1272 1725 1290.5 1714.5Q1309 1704 1318.5 1688.0Q1328 1672 1333.5 1653.0Q1339 1634 1346.5 1618.0Q1354 1602 1367.0 1591.5Q1380 1581 1406 1581Q1432 1581 1445.5 1591.5Q1459 1602 1466.5 1618.0Q1474 1634 1479.0 1653.0Q1484 1672 1494.5 1688.0Q1505 1704 1523.0 1714.5Q1541 1725 1575 1725Q1606 1725 1636.0 1717.5Q1666 1710 1694 1697Q1755 1670 1796.0 1627.0Q1837 1584 1862.5 1530.5Q1888 1477 1899.0 1416.5Q1910 1356 1910 1294Q1898 1278 1890.5 1260.0Q1883 1242 1883 1222Q1883 1202 1890.5 1184.0Q1898 1166 1910 1150H1981Q2011 1150 2037.0 1161.5Q2063 1173 2082.5 1192.5Q2102 1212 2113.5 1238.0Q2125 1264 2125 1294Q2125 1324 2136.0 1350.0Q2147 1376 2166.5 1395.5Q2186 1415 2212.0 1426.5Q2238 1438 2268 1438Z" style="fill:#8e562e;stroke:none" transform="scale(1,-1) translate(0,-256)" /></svg>