<?xml version="1.0" encoding="utf-8" ?>
<svg baseProfile="full" height="256" version="1.1" width="256" xmlns="http://www.w3.org/2000/svg" xmlns:ev="http://www.w3.org/2001/xml-events" xmlns:xlink="http://www.w3.org/1999/xlink"><defs /><path d="M1189 448Q1138 448 1097.5 465.0Q1057 482 1028.5 512.5Q1000 543 984.5 584.5Q969 626 969 676Q969 728 984.5 772.0Q1000 816 1029.0 848.0Q1058 880 1100.0 898.0Q1142 916 1196 916Q1247 916 1287.5 898.5Q1328 881 1356.0 850.0Q1384 819 1398.5 776.5Q1413 734 1413 685Q1413 634 1397.5 591.0Q1382 548 1353.5 516.0Q1325 484 1283.0 466.0Q1241 448 1189 448ZM1687 448Q1637 448 1596.0 465.0Q1555 482 1526.5 512.5Q1498 543 1482.5 585.0Q1467 627 1467 676Q1467 728 1482.5 772.0Q1498 816 1527.0 848.0Q1556 880 1598.0 898.0Q1640 916 1694 916Q1745 916 1785.5 898.5Q1826 881 1854.0 850.0Q1882 819 1896.5 776.5Q1911 734 1911 685Q1911 634 1895.5 590.5Q1880 547 1851.5 515.5Q1823 484 1781.0 466.0Q1739 448 1687 448ZM917 472Q887 458 854.0 453.0Q821 448 788 448Q682 448 623.0 507.0Q564 566 564 672Q564 726 581.5 771.0Q599 816 630.5 848.5Q662 881 706.5 898.5Q751 916 806 916Q835 916 863.0 913.0Q891 910 917 899V801Q894 815 867.5 821.5Q841 828 814 828Q747 828 709.5 787.0Q672 746 672 680Q672 617 707.0 576.5Q742 536 808 536Q867 536 917 565ZM2262 456H1992V909H2094V538H2262ZM1691 828Q1660 828 1638.0 815.5Q1616 803 1602.0 782.5Q1588 762 1581.5 735.5Q1575 709 1575 682Q1575 655 1581.0 628.5Q1587 602 1600.5 581.5Q1614 561 1635.5 548.5Q1657 536 1689 536Q1720 536 1742.0 548.0Q1764 560 1777.5 580.5Q1791 601 1797.5 627.0Q1804 653 1804 680Q1804 707 1798.0 733.5Q1792 760 1779.0 781.0Q1766 802 1744.0 815.0Q1722 828 1691 828ZM1193 828Q1162 828 1140.0 815.5Q1118 803 1103.5 782.5Q1089 762 1082.5 735.5Q1076 709 1076 682Q1076 655 1082.5 629.0Q1089 603 1103.0 582.0Q1117 561 1138.5 548.5Q1160 536 1191 536Q1222 536 1244.0 548.0Q1266 560 1279.5 580.5Q1293 601 1299.0 627.0Q1305 653 1305 680Q1305 707 1299.5 733.5Q1294 760 1280.5 781.0Q1267 802 1245.5 815.0Q1224 828 1193 828Z" style="fill:#ffffff;stroke:none" transform="scale(1,-1) translate(0,-256)" /></svg>