<?xml version="1.0" encoding="utf-8" ?>
<svg baseProfile="full" height="256" version="1.1" width="256" xmlns="http://www.w3.org/2000/svg" xmlns:ev="http://www.w3.org/2001/xml-events" xmlns:xlink="http://www.w3.org/1999/xlink"><defs /><path d="M1409 1582Q1437 1582 1456.0 1573.0Q1475 1564 1489.0 1550.5Q1503 1537 1514.5 1521.5Q1526 1506 1540.0 1492.5Q1554 1479 1573.0 1470.0Q1592 1461 1620 1461Q1636 1461 1651.0 1465.0Q1666 1469 1682 1469Q1735 1469 1762.0 1439.0Q1789 1409 1803 1363Q1810 1338 1818.5 1321.5Q1827 1305 1838.5 1293.5Q1850 1282 1866.5 1274.0Q1883 1266 1907 1259Q1953 1245 1982.5 1218.0Q2012 1191 2012 1138Q2012 1122 2008.0 1107.5Q2004 1093 2004 1077Q2004 1049 2013.0 1030.0Q2022 1011 2035.5 997.0Q2049 983 2064.5 971.5Q2080 960 2093.5 946.0Q2107 932 2116.0 913.5Q2125 895 2125 866Q2125 846 2117.0 828.0Q2109 810 2100.0 792.5Q2091 775 2083.0 757.0Q2075 739 2075 719Q2075 699 2083.0 681.0Q2091 663 2100.0 645.5Q2109 628 2117.0 610.0Q2125 592 2125 572Q2125 544 2116.0 525.5Q2107 507 2093.5 492.5Q2080 478 2064.5 466.5Q2049 455 2035.5 440.5Q2022 426 2013.0 407.5Q2004 389 2004 361Q2004 345 2008.0 330.5Q2012 316 2012 300Q2012 247 1982.5 220.0Q1953 193 1907 179Q1881 171 1864.5 163.0Q1848 155 1837.0 144.0Q1826 133 1818.0 116.0Q1810 99 1803 74Q1789 28 1761.5 -1.5Q1734 -31 1682 -31Q1666 -31 1651.0 -27.0Q1636 -23 1620 -23Q1592 -23 1573.0 -32.0Q1554 -41 1540.0 -54.5Q1526 -68 1514.5 -83.5Q1503 -99 1489.0 -112.5Q1475 -126 1456.0 -135.0Q1437 -144 1409 -144Q1389 -144 1371.0 -136.0Q1353 -128 1335.5 -119.0Q1318 -110 1300.0 -102.0Q1282 -94 1262 -94Q1242 -94 1224.0 -102.0Q1206 -110 1189.0 -119.0Q1172 -128 1154.0 -136.0Q1136 -144 1116 -144Q1089 -144 1070.5 -135.0Q1052 -126 1037.5 -112.5Q1023 -99 1010.5 -83.5Q998 -68 983.5 -54.5Q969 -41 950.5 -32.0Q932 -23 905 -23Q889 -23 874.0 -27.0Q859 -31 843 -31Q817 -31 797.5 -23.5Q778 -16 763.5 -2.0Q749 12 739.0 31.5Q729 51 722 74Q714 99 706.5 115.5Q699 132 687.5 143.5Q676 155 659.5 163.0Q643 171 618 179Q594 186 574.5 195.5Q555 205 541.0 219.0Q527 233 519.5 252.5Q512 272 512 300Q512 316 516.0 330.5Q520 345 520 361Q520 388 511.0 407.0Q502 426 488.5 440.0Q475 454 459.5 466.5Q444 479 430.5 493.0Q417 507 408.0 526.0Q399 545 399 572Q399 592 407.0 610.0Q415 628 424.0 645.5Q433 663 441.0 681.0Q449 699 449 719Q449 739 441.0 757.0Q433 775 424.0 792.5Q415 810 407.0 828.0Q399 846 399 866Q399 893 408.0 912.0Q417 931 430.5 945.0Q444 959 459.5 971.5Q475 984 488.5 998.0Q502 1012 511.0 1031.0Q520 1050 520 1077Q520 1093 516.0 1107.5Q512 1122 512 1138Q512 1165 519.5 1184.5Q527 1204 541.0 1218.5Q555 1233 574.5 1242.5Q594 1252 618 1259Q643 1266 660.0 1273.5Q677 1281 688.5 1292.5Q700 1304 707.5 1320.5Q715 1337 722 1363Q735 1410 762.5 1439.5Q790 1469 843 1469Q859 1469 874.0 1465.0Q889 1461 905 1461Q932 1461 950.5 1470.0Q969 1479 983.5 1492.5Q998 1506 1010.5 1521.5Q1023 1537 1037.5 1550.5Q1052 1564 1070.5 1573.0Q1089 1582 1116 1582Q1136 1582 1154.0 1574.0Q1172 1566 1189.0 1557.0Q1206 1548 1224.0 1540.0Q1242 1532 1262 1532Q1282 1532 1300.0 1540.0Q1318 1548 1335.5 1557.0Q1353 1566 1371.0 1574.0Q1389 1582 1409 1582Z" style="fill:#e5e5e5;stroke:none" transform="scale(1,-1) translate(0,-256)" /></svg>