<?xml version="1.0" encoding="utf-8" ?>
<svg baseProfile="full" height="256" version="1.1" width="256" xmlns="http://www.w3.org/2000/svg" xmlns:ev="http://www.w3.org/2001/xml-events" xmlns:xlink="http://www.w3.org/1999/xlink"><defs /><path d="M2151 1087Q2207 1049 2237.5 990.5Q2268 932 2268 865Q2268 826 2257.0 788.5Q2246 751 2224 719Q2246 687 2257.0 649.5Q2268 612 2268 573Q2268 506 2237.5 447.5Q2207 389 2151 351Q2156 323 2156 300Q2156 253 2140.0 209.5Q2124 166 2095.5 131.0Q2067 96 2027.5 72.0Q1988 48 1942 39Q1933 -7 1909.0 -46.5Q1885 -86 1850.0 -114.5Q1815 -143 1772.0 -159.0Q1729 -175 1682 -175Q1658 -175 1630 -170Q1593 -224 1534.0 -255.5Q1475 -287 1409 -287Q1370 -287 1332.5 -275.5Q1295 -264 1262 -243Q1230 -265 1192.0 -276.0Q1154 -287 1115 -287Q1049 -287 990.0 -255.5Q931 -224 894 -170Q866 -175 843 -175Q796 -175 752.5 -159.0Q709 -143 674.0 -114.5Q639 -86 615.0 -47.0Q591 -8 582 39Q536 48 497.0 72.0Q458 96 429.5 130.5Q401 165 385.0 208.0Q369 251 369 298Q369 312 370.0 325.0Q371 338 374 351Q319 388 287.5 447.0Q256 506 256 572Q256 611 267.5 648.5Q279 686 300 719Q279 752 267.5 789.5Q256 827 256 866Q256 932 287.5 991.0Q319 1050 374 1087Q371 1100 370.0 1113.0Q369 1126 369 1140Q369 1187 385.0 1230.0Q401 1273 429.5 1307.5Q458 1342 497.0 1366.0Q536 1390 582 1399Q591 1445 615.0 1484.5Q639 1524 674.0 1552.5Q709 1581 752.5 1597.0Q796 1613 843 1613Q868 1613 894 1607Q931 1662 990.0 1693.5Q1049 1725 1115 1725Q1154 1725 1191.5 1713.5Q1229 1702 1262 1681Q1295 1702 1332.5 1713.5Q1370 1725 1409 1725Q1475 1725 1534.0 1693.5Q1593 1662 1630 1607Q1655 1613 1682 1613Q1729 1613 1772.0 1597.0Q1815 1581 1850.0 1552.5Q1885 1524 1909.0 1484.5Q1933 1445 1942 1399Q1988 1390 2027.5 1365.5Q2067 1341 2095.5 1306.0Q2124 1271 2140.0 1227.5Q2156 1184 2156 1137Q2156 1124 2154.5 1111.5Q2153 1099 2151 1087Z" style="fill:#000000;stroke:none" transform="scale(1,-1) translate(0,-256)" /></svg>