<?xml version="1.0" encoding="utf-8" ?>
<svg baseProfile="full" height="256" version="1.1" width="256" xmlns="http://www.w3.org/2000/svg" xmlns:ev="http://www.w3.org/2001/xml-events" xmlns:xlink="http://www.w3.org/1999/xlink"><defs /><path d="M1981 719Q1981 620 1955.5 528.0Q1930 436 1883.0 356.0Q1836 276 1770.5 210.5Q1705 145 1625.0 98.0Q1545 51 1453.0 25.5Q1361 0 1262 0Q1163 0 1071.0 25.5Q979 51 899.0 98.0Q819 145 753.5 210.5Q688 276 641.0 356.0Q594 436 568.5 528.0Q543 620 543 719Q543 818 568.5 910.0Q594 1002 641.0 1082.0Q688 1162 753.5 1227.5Q819 1293 899.0 1340.0Q979 1387 1071.0 1412.5Q1163 1438 1262 1438Q1361 1438 1453.0 1412.5Q1545 1387 1625.0 1340.0Q1705 1293 1770.5 1227.5Q1836 1162 1883.0 1082.0Q1930 1002 1955.5 910.0Q1981 818 1981 719Z" style="fill:#f2f2f2;stroke:none" transform="scale(1,-1) translate(0,-256)" /></svg>