<?xml version="1.0" encoding="utf-8" ?>
<svg baseProfile="full" height="256" version="1.1" width="256" xmlns="http://www.w3.org/2000/svg" xmlns:ev="http://www.w3.org/2001/xml-events" xmlns:xlink="http://www.w3.org/1999/xlink"><defs /><path d="M903 719Q903 630 937.0 551.5Q971 473 1029.5 414.5Q1088 356 1166.5 322.0Q1245 288 1334 288Q1394 288 1446.5 310.5Q1499 333 1538.0 372.0Q1577 411 1599.5 463.0Q1622 515 1622 575Q1622 635 1599.5 687.5Q1577 740 1538.0 779.0Q1499 818 1446.5 840.5Q1394 863 1334 863Q1304 863 1278.0 851.5Q1252 840 1232.5 820.5Q1213 801 1201.5 775.0Q1190 749 1190 719Q1190 661 1211.5 609.5Q1233 558 1270.0 519.0Q1307 480 1357.5 456.5Q1408 433 1466 431H1334Q1274 431 1222.0 453.5Q1170 476 1131.0 515.0Q1092 554 1069.5 606.5Q1047 659 1047 719Q1047 779 1069.5 831.0Q1092 883 1131.0 922.0Q1170 961 1222.0 983.5Q1274 1006 1334 1006Q1423 1006 1501.5 972.0Q1580 938 1638.5 879.5Q1697 821 1731.0 742.5Q1765 664 1765 575Q1765 486 1731.0 407.5Q1697 329 1638.5 270.5Q1580 212 1501.5 178.0Q1423 144 1334 144Q1215 144 1110.0 189.0Q1005 234 927.0 312.0Q849 390 804.0 495.0Q759 600 759 719Q759 838 804.0 943.0Q849 1048 927.0 1126.0Q1005 1204 1110.0 1249.0Q1215 1294 1334 1294H1478Q1359 1294 1254.0 1249.0Q1149 1204 1071.0 1126.0Q993 1048 948.0 943.0Q903 838 903 719Z" style="fill:#f4abba;stroke:none" transform="scale(1,-1) translate(0,-256)" /></svg>