<?xml version="1.0" encoding="utf-8" ?>
<svg baseProfile="full" height="256" version="1.1" width="256" xmlns="http://www.w3.org/2000/svg" xmlns:ev="http://www.w3.org/2001/xml-events" xmlns:xlink="http://www.w3.org/1999/xlink"><defs /><path d="M1334 719Q1334 656 1308.0 600.5Q1282 545 1235 503Q1283 461 1308.5 406.0Q1334 351 1334 288Q1334 229 1311.0 177.0Q1288 125 1249.0 85.5Q1210 46 1157.5 23.0Q1105 0 1047 0Q987 0 934.5 22.5Q882 45 843.0 84.0Q804 123 781.5 175.5Q759 228 759 288H903Q903 258 914.0 231.5Q925 205 944.5 185.5Q964 166 990.5 155.0Q1017 144 1047 144Q1077 144 1103.0 155.5Q1129 167 1148.5 186.5Q1168 206 1179.0 232.0Q1190 258 1190 288Q1190 318 1179.0 344.0Q1168 370 1148.5 389.5Q1129 409 1103.0 420.0Q1077 431 1047 431V575Q1077 575 1103.0 586.5Q1129 598 1148.5 617.5Q1168 637 1179.0 663.0Q1190 689 1190 719Q1190 749 1179.0 775.0Q1168 801 1148.5 820.5Q1129 840 1103.0 851.5Q1077 863 1047 863Q1017 863 991.0 851.5Q965 840 945.5 820.5Q926 801 914.5 775.0Q903 749 903 719H759Q759 779 781.5 831.0Q804 883 843.0 922.0Q882 961 934.5 983.5Q987 1006 1047 1006Q1106 1006 1158.5 983.5Q1211 961 1250.0 922.0Q1289 883 1311.5 830.5Q1334 778 1334 719ZM1693 1006H1837V0H1693V719H1550V863Q1580 863 1606.0 874.0Q1632 885 1651.5 904.5Q1671 924 1682.0 950.0Q1693 976 1693 1006Z" style="fill:#757575;stroke:none" transform="scale(1,-1) translate(0,-256)" /></svg>