<?xml version="1.0" encoding="utf-8" ?>
<svg baseProfile="full" height="256" version="1.1" width="256" xmlns="http://www.w3.org/2000/svg" xmlns:ev="http://www.w3.org/2001/xml-events" xmlns:xlink="http://www.w3.org/1999/xlink"><defs /><path d="M2053 0H2268L2053 -215ZM1909 1510Q1938 1510 1959.5 1488.5Q1981 1467 1981 1438Q1981 1408 1960.0 1387.0Q1939 1366 1909 1366Q1879 1366 1858.0 1387.0Q1837 1408 1837 1438Q1837 1467 1858.5 1488.5Q1880 1510 1909 1510ZM759 1510Q788 1510 809.5 1488.5Q831 1467 831 1438Q831 1408 810.0 1387.0Q789 1366 759 1366Q729 1366 708.0 1387.0Q687 1408 687 1438Q687 1467 708.5 1488.5Q730 1510 759 1510Z" style="fill:#ffffff;stroke:none" transform="scale(1,-1) translate(0,-256)" /></svg>