<?xml version="1.0" encoding="utf-8" ?>
<svg baseProfile="full" height="256" version="1.1" width="256" xmlns="http://www.w3.org/2000/svg" xmlns:ev="http://www.w3.org/2001/xml-events" xmlns:xlink="http://www.w3.org/1999/xlink"><defs /><path d="M2556 719V288Q2556 214 2527.5 148.5Q2499 83 2450.5 34.0Q2402 -15 2336.5 -43.5Q2271 -72 2197 -72H2137L1849 216H1753L1178 -359H975Q931 -359 891.5 -342.0Q852 -325 822.5 -296.0Q793 -267 776.0 -227.5Q759 -188 759 -144V-36Q759 27 782.0 83.5Q805 140 845.5 183.5Q886 227 940.5 254.5Q995 282 1058 287L1140 368Q1105 391 1074.0 419.5Q1043 448 1014 477L771 719H603L319 442Q308 431 294 431Q278 431 267.0 442.0Q256 453 256 469V863Q256 952 290.0 1030.5Q324 1109 382.5 1167.5Q441 1226 519.5 1260.0Q598 1294 687 1294H993Q1017 1389 1070.5 1468.5Q1124 1548 1198.0 1605.0Q1272 1662 1362.0 1693.5Q1452 1725 1550 1725H2556V1581Q2556 1523 2541.0 1468.5Q2526 1414 2498.0 1365.5Q2470 1317 2430.0 1277.0Q2390 1237 2340 1208Q2336 1133 2298.0 1070.5Q2260 1008 2194 972Q2184 895 2137.5 833.0Q2091 771 2019 741L2040 719Z" style="fill:#000000;stroke:none" transform="scale(1,-1) translate(0,-256)" /></svg>