<?xml version="1.0" encoding="utf-8" ?>
<svg baseProfile="full" height="256" version="1.1" width="256" xmlns="http://www.w3.org/2000/svg" xmlns:ev="http://www.w3.org/2001/xml-events" xmlns:xlink="http://www.w3.org/1999/xlink"><defs /><path d="M400 863Q400 923 422.5 975.0Q445 1027 484.0 1066.0Q523 1105 575.0 1127.5Q627 1150 687 1150V863H543L400 719ZM1083 144Q1120 144 1152.5 130.0Q1185 116 1209.5 91.5Q1234 67 1248.0 34.0Q1262 1 1262 -36V-72L1190 -144V-36Q1190 -14 1181.5 5.5Q1173 25 1158.5 40.0Q1144 55 1124.5 63.5Q1105 72 1083 72Q1060 72 1040.5 63.5Q1021 55 1006.5 40.5Q992 26 983.5 6.0Q975 -14 975 -36Q975 -58 983.5 -77.5Q992 -97 1007.0 -112.0Q1022 -127 1041.5 -135.5Q1061 -144 1083 -144H1190L1118 -215H975Q946 -215 924.5 -194.0Q903 -173 903 -144V-36Q903 1 917.0 34.0Q931 67 955.5 91.5Q980 116 1012.5 130.0Q1045 144 1083 144Z" style="fill:#ffb900;stroke:none" transform="scale(1,-1) translate(0,-256)" /></svg>