<?xml version="1.0" encoding="utf-8" ?>
<svg baseProfile="full" height="256" version="1.1" width="256" xmlns="http://www.w3.org/2000/svg" xmlns:ev="http://www.w3.org/2001/xml-events" xmlns:xlink="http://www.w3.org/1999/xlink"><defs /><path d="M2412 1581Q2412 1522 2389.5 1469.5Q2367 1417 2328.0 1378.0Q2289 1339 2236.5 1316.5Q2184 1294 2125 1294H1693Q1693 1265 1714.5 1243.5Q1736 1222 1765 1222H2197Q2197 1192 2185.5 1166.0Q2174 1140 2154.5 1120.5Q2135 1101 2109.0 1089.5Q2083 1078 2053 1078H1550Q1550 1049 1571.5 1027.5Q1593 1006 1622 1006H2053Q2053 976 2041.5 950.0Q2030 924 2010.5 904.5Q1991 885 1965.0 874.0Q1939 863 1909 863H1693L2197 360H1693L1406 72H1176Q1159 90 1135.5 100.5Q1112 111 1086 111L1379 404Q1323 425 1279.5 449.5Q1236 474 1197.5 504.0Q1159 534 1123.0 569.5Q1087 605 1047 647L1118 719V1150Q1118 1240 1152.0 1318.5Q1186 1397 1244.5 1455.5Q1303 1514 1381.5 1547.5Q1460 1581 1550 1581Z" style="fill:#8e562e;stroke:none" transform="scale(1,-1) translate(0,-256)" /></svg>