<?xml version="1.0" encoding="utf-8" ?>
<svg baseProfile="full" height="256" version="1.1" width="256" xmlns="http://www.w3.org/2000/svg" xmlns:ev="http://www.w3.org/2001/xml-events" xmlns:xlink="http://www.w3.org/1999/xlink"><defs /><path d="M1334 647Q1334 624 1321.5 606.0Q1309 588 1288 580Q1300 562 1300 540Q1300 511 1280 491L1026 237Q1021 232 1013 232Q1001 232 984.5 242.0Q968 252 953.5 266.5Q939 281 929.0 297.5Q919 314 919 326Q919 334 924 339L1137 551L1179 575H903Q893 575 887.0 583.5Q881 592 878.0 604.0Q875 616 874.0 628.0Q873 640 873 647Q873 654 874.0 666.0Q875 678 878.0 690.0Q881 702 887.0 710.5Q893 719 903 719H1179L1136 743L924 956Q919 961 919 969Q919 981 929.0 997.5Q939 1014 953.5 1028.0Q968 1042 984.5 1052.0Q1001 1062 1013 1062Q1021 1062 1026 1057L1280 803Q1300 783 1300 754Q1300 732 1288 714Q1308 706 1321.0 687.5Q1334 669 1334 647ZM1631 719H1909Q1919 719 1925.0 710.5Q1931 702 1934.0 690.0Q1937 678 1938.0 666.0Q1939 654 1939 647Q1939 640 1938.0 628.0Q1937 616 1934.0 604.0Q1931 592 1925.0 583.5Q1919 575 1909 575H1631L1674 552L1888 339Q1893 334 1893 326Q1893 314 1883.0 297.5Q1873 281 1858.5 266.5Q1844 252 1827.5 242.0Q1811 232 1799 232Q1791 232 1786 237L1532 491Q1512 511 1512 540Q1512 562 1524 580Q1503 588 1490.5 606.0Q1478 624 1478 647Q1478 670 1490.5 688.0Q1503 706 1524 714Q1512 732 1512 754Q1512 783 1532 803L1786 1057Q1791 1062 1799 1062Q1811 1062 1827.0 1052.0Q1843 1042 1858.0 1027.5Q1873 1013 1883.0 997.0Q1893 981 1893 969Q1893 961 1888 956L1674 742ZM1406 719Q1376 719 1355.0 740.0Q1334 761 1334 791V1150Q1334 1160 1342.5 1166.0Q1351 1172 1363.0 1175.0Q1375 1178 1387.0 1179.0Q1399 1180 1406 1180Q1413 1180 1425.0 1179.0Q1437 1178 1449.0 1175.0Q1461 1172 1469.5 1166.0Q1478 1160 1478 1150V791Q1478 761 1457.0 740.0Q1436 719 1406 719ZM1406 575Q1436 575 1457.0 554.0Q1478 533 1478 503V144Q1478 134 1469.5 128.0Q1461 122 1449.0 119.0Q1437 116 1425.0 115.0Q1413 114 1406 114Q1399 114 1387.0 115.0Q1375 116 1363.0 119.0Q1351 122 1342.5 128.0Q1334 134 1334 144V503Q1334 533 1355.0 554.0Q1376 575 1406 575Z" style="fill:#ffffff;stroke:none" transform="scale(1,-1) translate(0,-256)" /></svg>