<?xml version="1.0" encoding="utf-8" ?>
<svg baseProfile="full" height="256" version="1.1" width="256" xmlns="http://www.w3.org/2000/svg" xmlns:ev="http://www.w3.org/2001/xml-events" xmlns:xlink="http://www.w3.org/1999/xlink"><defs /><path d="M1837 -431Q1767 -431 1706.0 -414.0Q1645 -397 1591.5 -366.0Q1538 -335 1492.0 -290.5Q1446 -246 1406 -191Q1328 -302 1220.5 -366.5Q1113 -431 974 -431H687V-215H472Q472 -167 471.5 -120.5Q471 -74 471 -26Q471 35 474.0 89.0Q477 143 489.0 193.5Q501 244 523.5 292.5Q546 341 585 391Q504 421 442.5 479.0Q381 537 339.5 611.0Q298 685 277.0 769.0Q256 853 256 935V1078H416L374 1203Q420 1239 463.0 1269.0Q506 1299 552.0 1320.5Q598 1342 648.5 1354.0Q699 1366 759 1366Q832 1366 903 1345V1438Q903 1540 937.0 1612.0Q971 1684 1027.5 1737.0Q1084 1790 1157.5 1830.5Q1231 1871 1311 1911L1406 1769L1500 1911Q1585 1868 1659.5 1826.0Q1734 1784 1789.5 1730.5Q1845 1677 1877.0 1607.0Q1909 1537 1909 1438V1345Q1978 1366 2052 1366Q2113 1366 2163.5 1354.0Q2214 1342 2259.5 1320.0Q2305 1298 2348.0 1268.5Q2391 1239 2437 1203L2396 1078H2556V935Q2556 853 2535.0 769.0Q2514 685 2472.5 611.0Q2431 537 2369.5 479.0Q2308 421 2227 391Q2263 347 2285.0 301.5Q2307 256 2319.0 208.5Q2331 161 2335.5 110.5Q2340 60 2340 5V-215H2125V-431Z" style="fill:#000000;stroke:none" transform="scale(1,-1) translate(0,-256)" /></svg>