<?xml version="1.0" encoding="utf-8" ?>
<svg baseProfile="full" height="256" version="1.1" width="256" xmlns="http://www.w3.org/2000/svg" xmlns:ev="http://www.w3.org/2001/xml-events" xmlns:xlink="http://www.w3.org/1999/xlink"><defs /><path d="M1406 1078Q1376 1078 1355.0 1099.0Q1334 1120 1334 1150Q1334 1180 1355.0 1201.0Q1376 1222 1406 1222Q1436 1222 1457.0 1201.0Q1478 1180 1478 1150Q1478 1120 1457.0 1099.0Q1436 1078 1406 1078ZM1406 216Q1436 216 1457.0 195.0Q1478 174 1478 144Q1478 114 1457.0 93.0Q1436 72 1406 72Q1376 72 1355.0 93.0Q1334 114 1334 144Q1334 174 1355.0 195.0Q1376 216 1406 216ZM1909 719Q1939 719 1960.0 698.0Q1981 677 1981 647Q1981 617 1960.0 596.0Q1939 575 1909 575Q1879 575 1858.0 596.0Q1837 617 1837 647Q1837 677 1858.0 698.0Q1879 719 1909 719ZM1909 1006Q1909 977 1887.5 956.0Q1866 935 1837 935Q1808 935 1786.5 956.0Q1765 977 1765 1006Q1765 1035 1786.5 1056.5Q1808 1078 1837 1078Q1866 1078 1887.5 1056.5Q1909 1035 1909 1006ZM975 647Q975 617 954.0 596.0Q933 575 903 575Q873 575 852.0 596.0Q831 617 831 647Q831 677 852.0 698.0Q873 719 903 719Q933 719 954.0 698.0Q975 677 975 647ZM903 1006Q903 1036 924.0 1057.0Q945 1078 975 1078Q1004 1078 1025.5 1056.5Q1047 1035 1047 1006Q1047 977 1025.5 956.0Q1004 935 975 935Q946 935 924.5 956.0Q903 977 903 1006ZM903 288Q903 317 924.5 338.5Q946 360 975 360Q1005 360 1026.0 339.0Q1047 318 1047 288Q1047 259 1025.5 237.5Q1004 216 975 216Q945 216 924.0 237.0Q903 258 903 288ZM1765 288Q1765 318 1786.0 339.0Q1807 360 1837 360Q1866 360 1887.5 338.5Q1909 317 1909 288Q1909 259 1887.5 237.5Q1866 216 1837 216Q1807 216 1786.0 237.0Q1765 258 1765 288ZM1406 935Q1466 935 1518.0 912.5Q1570 890 1609.0 851.0Q1648 812 1670.5 759.5Q1693 707 1693 647Q1693 587 1670.5 535.0Q1648 483 1609.0 444.0Q1570 405 1518.0 382.5Q1466 360 1406 360Q1346 360 1293.5 382.5Q1241 405 1202.0 444.0Q1163 483 1140.5 535.0Q1118 587 1118 647Q1118 707 1140.5 759.5Q1163 812 1202.0 851.0Q1241 890 1293.5 912.5Q1346 935 1406 935Z" style="fill:#ee3f86;stroke:none" transform="scale(1,-1) translate(0,-256)" /></svg>