<?xml version="1.0" encoding="utf-8" ?>
<svg baseProfile="full" height="256" version="1.1" width="256" xmlns="http://www.w3.org/2000/svg" xmlns:ev="http://www.w3.org/2001/xml-events" xmlns:xlink="http://www.w3.org/1999/xlink"><defs /><path d="M1550 647Q1550 617 1538.5 591.0Q1527 565 1507.5 545.5Q1488 526 1462.0 514.5Q1436 503 1406 503Q1376 503 1350.0 514.5Q1324 526 1304.5 545.5Q1285 565 1273.5 591.0Q1262 617 1262 647Q1262 677 1273.0 703.0Q1284 729 1303.5 748.5Q1323 768 1349.5 779.5Q1376 791 1406 791Q1436 791 1462.0 779.5Q1488 768 1507.5 748.5Q1527 729 1538.5 703.0Q1550 677 1550 647Z" style="fill:#c30052;stroke:none" transform="scale(1,-1) translate(0,-256)" /></svg>