<?xml version="1.0" encoding="utf-8" ?>
<svg baseProfile="full" height="256" version="1.1" width="256" xmlns="http://www.w3.org/2000/svg" xmlns:ev="http://www.w3.org/2001/xml-events" xmlns:xlink="http://www.w3.org/1999/xlink"><defs /><path d="M1334 791 1382 408Q1388 360 1397.0 312.5Q1406 265 1406 216Q1406 112 1366.5 20.5Q1327 -71 1258.5 -139.5Q1190 -208 1098.5 -247.5Q1007 -287 903 -287Q799 -287 707.0 -247.5Q615 -208 547.0 -140.0Q479 -72 439.5 20.0Q400 112 400 216Q400 320 439.5 411.5Q479 503 547.5 571.5Q616 640 707.5 679.5Q799 719 903 719Q933 719 954.0 740.0Q975 761 975 791Q975 836 992.0 875.0Q1009 914 1038.0 943.5Q1067 973 1106.0 990.0Q1145 1007 1190 1007Q1223 1007 1237.5 991.0Q1252 975 1257.0 951.0Q1262 927 1261.5 899.0Q1261 871 1265.5 847.0Q1270 823 1284.0 807.0Q1298 791 1330 791Z" style="fill:#da3b01;stroke:none" transform="scale(1,-1) translate(0,-256)" /></svg>