<?xml version="1.0" encoding="utf-8" ?>
<svg baseProfile="full" height="256" version="1.1" width="256" xmlns="http://www.w3.org/2000/svg" xmlns:ev="http://www.w3.org/2001/xml-events" xmlns:xlink="http://www.w3.org/1999/xlink"><defs /><path d="M256 215Q256 339 300.5 451.0Q345 563 423.0 649.5Q501 736 607.5 791.5Q714 847 838 859Q850 922 882.5 975.5Q915 1029 962.0 1067.5Q1009 1106 1067.5 1128.0Q1126 1150 1190 1150Q1249 1150 1299.5 1120.0Q1350 1090 1379 1039L1837 1497V1641L1972 1776Q2018 1821 2074.5 1845.0Q2131 1869 2196 1869Q2262 1869 2317.5 1845.0Q2373 1821 2421 1776Q2451 1748 2476.0 1719.0Q2501 1690 2518.5 1657.5Q2536 1625 2546.0 1588.0Q2556 1551 2556 1509Q2556 1444 2532.0 1387.5Q2508 1331 2463 1285L2328 1150H2184L1654 620Q1705 591 1735.0 540.5Q1765 490 1765 431Q1765 381 1749.0 336.0Q1733 291 1704.0 254.0Q1675 217 1635.0 190.5Q1595 164 1547 152Q1535 28 1479.5 -78.5Q1424 -185 1337.0 -263.5Q1250 -342 1138.0 -386.5Q1026 -431 902 -431Q769 -431 651.5 -380.0Q534 -329 446.0 -241.0Q358 -153 307.0 -35.5Q256 82 256 215Z" style="fill:#000000;stroke:none" transform="scale(1,-1) translate(0,-256)" /></svg>