<?xml version="1.0" encoding="utf-8" ?>
<svg baseProfile="full" height="256" version="1.1" width="256" xmlns="http://www.w3.org/2000/svg" xmlns:ev="http://www.w3.org/2001/xml-events" xmlns:xlink="http://www.w3.org/1999/xlink"><defs /><path d="M2053 503Q2053 475 2042.0 448.5Q2031 422 2011 402L1463 -130Q1385 -205 1288.5 -246.0Q1192 -287 1083 -287Q971 -287 873.0 -244.5Q775 -202 702.0 -129.0Q629 -56 586.5 42.0Q544 140 544 252V676L409 999Q400 1020 400 1042Q400 1084 427.5 1114.5Q455 1145 497 1149Q579 1007 635 850L680 882L481 1359Q472 1380 472 1401Q472 1423 480.5 1442.5Q489 1462 503.5 1477.0Q518 1492 537.5 1500.5Q557 1509 579 1509Q611 1509 638.0 1491.5Q665 1474 678 1445L892 940Q901 919 909.5 893.0Q918 867 931.0 844.5Q944 822 963.0 806.5Q982 791 1011 791Q1039 791 1056.5 804.0Q1074 817 1087 840Q1100 864 1109.0 889.5Q1118 915 1129 940L1343 1445Q1356 1474 1383.5 1491.5Q1411 1509 1443 1509Q1465 1509 1484.5 1500.5Q1504 1492 1518.5 1477.5Q1533 1463 1541.5 1443.5Q1550 1424 1550 1402Q1550 1380 1541 1359L1334 863V791L1353 805Q1391 894 1434.0 979.5Q1477 1065 1525 1149Q1567 1145 1594.5 1114.5Q1622 1084 1622 1042Q1622 1020 1613 999L1478 676V513Q1478 475 1493.0 453.0Q1508 431 1550 431Q1567 431 1588.0 433.5Q1609 436 1623 448L1808 605Q1832 625 1854.5 636.0Q1877 647 1909 647Q1939 647 1965.0 635.5Q1991 624 2010.5 604.5Q2030 585 2041.5 559.0Q2053 533 2053 503Z" style="fill:#ffc83d;stroke:none" transform="scale(1,-1) translate(0,-256)" /></svg>