<?xml version="1.0" encoding="utf-8" ?>
<svg baseProfile="full" height="256" version="1.1" width="256" xmlns="http://www.w3.org/2000/svg" xmlns:ev="http://www.w3.org/2001/xml-events" xmlns:xlink="http://www.w3.org/1999/xlink"><defs /><path d="M1479 503Q1481 477 1496.0 455.0Q1511 433 1540 431H1442Q1360 431 1288.0 400.0Q1216 369 1162.5 315.5Q1109 262 1078.0 190.0Q1047 118 1047 36Q1047 21 1036.5 10.5Q1026 0 1011 0Q996 0 985.5 10.5Q975 21 975 36Q975 132 1012.0 217.0Q1049 302 1112.5 365.5Q1176 429 1261.0 466.0Q1346 503 1442 503ZM794 642Q793 628 783.0 619.5Q773 611 759 611Q749 611 739.5 617.0Q730 623 726 632L497 1149Q500 1149 503.0 1149.5Q506 1150 509 1150Q531 1150 557.5 1138.0Q584 1126 595 1106Q615 1071 629.0 1032.5Q643 994 660 957Q695 878 728.5 800.0Q762 722 794 642ZM1227 642 1361 957Q1377 995 1392.5 1032.5Q1408 1070 1427 1106Q1438 1126 1464.5 1138.0Q1491 1150 1513 1150Q1516 1150 1519.0 1149.5Q1522 1149 1525 1149L1295 632Q1285 611 1262 611Q1248 611 1239.0 620.0Q1230 629 1227 642Z" style="fill:#d48c00;stroke:none" transform="scale(1,-1) translate(0,-256)" /></svg>