<?xml version="1.0" encoding="utf-8" ?>
<svg baseProfile="full" height="256" version="1.1" width="256" xmlns="http://www.w3.org/2000/svg" xmlns:ev="http://www.w3.org/2001/xml-events" xmlns:xlink="http://www.w3.org/1999/xlink"><defs /><path d="M1083 -431Q989 -431 901.5 -406.5Q814 -382 738.0 -337.5Q662 -293 600.0 -231.0Q538 -169 493.5 -93.0Q449 -17 424.5 70.5Q400 158 400 252V647L276 944Q266 967 260.5 991.0Q255 1015 255 1040Q255 1104 285.0 1160.5Q315 1217 369 1252Q354 1289 340.5 1324.0Q327 1359 327 1400Q327 1453 346.5 1499.0Q366 1545 400.5 1579.5Q435 1614 481.0 1633.5Q527 1653 580 1653Q653 1653 700.0 1625.0Q747 1597 779.0 1552.0Q811 1507 833.0 1451.5Q855 1396 878 1341L1011 1028L1211 1501Q1226 1535 1249.5 1563.5Q1273 1592 1303.5 1611.5Q1334 1631 1369.0 1642.0Q1404 1653 1442 1653Q1495 1653 1541.0 1633.5Q1587 1614 1621.0 1579.5Q1655 1545 1674.5 1499.0Q1694 1453 1694 1400Q1694 1359 1681.5 1323.5Q1669 1288 1652 1252Q1706 1219 1736.0 1162.5Q1766 1106 1766 1043Q1766 1017 1760.0 991.0Q1754 965 1744 941L1622 647V636Q1656 665 1687.0 693.0Q1718 721 1751.0 742.5Q1784 764 1822.5 777.5Q1861 791 1909 791Q1969 791 2021.5 768.5Q2074 746 2113.0 707.0Q2152 668 2174.5 615.5Q2197 563 2197 503Q2197 445 2176.0 393.0Q2155 341 2113 300L1563 -233Q1463 -330 1343.0 -380.5Q1223 -431 1083 -431Z" style="fill:#000000;stroke:none" transform="scale(1,-1) translate(0,-256)" /></svg>