<?xml version="1.0" encoding="utf-8" ?>
<svg baseProfile="full" height="256" version="1.1" width="256" xmlns="http://www.w3.org/2000/svg" xmlns:ev="http://www.w3.org/2001/xml-events" xmlns:xlink="http://www.w3.org/1999/xlink"><defs /><path d="M1583 947Q1614 879 1644.5 812.0Q1675 745 1705 676Q1765 542 1765 396Q1765 302 1740.5 214.5Q1716 127 1672.0 51.0Q1628 -25 1565.5 -87.0Q1503 -149 1427.5 -193.5Q1352 -238 1264.5 -262.5Q1177 -287 1083 -287Q988 -287 901.0 -262.5Q814 -238 738.0 -194.0Q662 -150 599.5 -87.5Q537 -25 493.0 51.0Q449 127 424.5 214.5Q400 302 400 396Q400 542 460 676Q490 745 520.5 812.0Q551 879 582 947Z" style="fill:#ca5010;stroke:none" transform="scale(1,-1) translate(0,-256)" /></svg>