<?xml version="1.0" encoding="utf-8" ?>
<svg baseProfile="full" height="256" version="1.1" width="256" xmlns="http://www.w3.org/2000/svg" xmlns:ev="http://www.w3.org/2001/xml-events" xmlns:xlink="http://www.w3.org/1999/xlink"><defs /><path d="M1083 -431Q969 -431 863.5 -401.5Q758 -372 666.0 -318.0Q574 -264 498.5 -188.5Q423 -113 369.0 -21.0Q315 71 285.5 176.5Q256 282 256 396Q256 484 274.0 569.5Q292 655 328 735L569 1268Q600 1337 658.5 1383.5Q717 1430 788.5 1458.0Q860 1486 937.0 1498.0Q1014 1510 1083 1510Q1129 1510 1174.0 1505.0Q1219 1500 1264 1491Q1263 1496 1263.0 1502.0Q1263 1508 1263 1513Q1263 1544 1273.5 1572.5Q1284 1601 1302.5 1623.5Q1321 1646 1347.0 1662.0Q1373 1678 1403 1685Q1433 1719 1465.0 1751.5Q1497 1784 1530 1816Q1556 1842 1588.0 1855.5Q1620 1869 1657 1869Q1694 1869 1727.0 1855.0Q1760 1841 1784.5 1816.5Q1809 1792 1823.0 1759.0Q1837 1726 1837 1689Q1837 1652 1823.5 1622.0Q1810 1592 1789.0 1566.0Q1768 1540 1742.5 1517.0Q1717 1494 1693 1470V1461Q1693 1407 1662.5 1361.5Q1632 1316 1582 1295L1584 1291Q1594 1275 1605.5 1250.5Q1617 1226 1629.0 1199.5Q1641 1173 1651.5 1147.5Q1662 1122 1670 1105L1836 735Q1909 573 1909 396Q1909 282 1879.5 176.5Q1850 71 1796.0 -21.0Q1742 -113 1666.5 -188.5Q1591 -264 1499.5 -318.0Q1408 -372 1302.5 -401.5Q1197 -431 1083 -431Z" style="fill:#000000;stroke:none" transform="scale(1,-1) translate(0,-256)" /></svg>