<?xml version="1.0" encoding="utf-8" ?>
<svg baseProfile="full" height="256" version="1.1" width="256" xmlns="http://www.w3.org/2000/svg" xmlns:ev="http://www.w3.org/2001/xml-events" xmlns:xlink="http://www.w3.org/1999/xlink"><defs /><path d="M1657 1725Q1672 1725 1682.5 1714.5Q1693 1704 1693 1689Q1693 1674 1683 1664Q1628 1609 1590.5 1568.5Q1553 1528 1523.0 1487.5Q1493 1447 1465.5 1399.0Q1438 1351 1404 1281Q1406 1279 1415.5 1267.5Q1425 1256 1436.0 1243.5Q1447 1231 1456.0 1220.5Q1465 1210 1465 1209Q1478 1184 1485.5 1165.5Q1493 1147 1504 1122L1583 947Q1547 883 1490.0 839.5Q1433 796 1365.5 769.0Q1298 742 1224.5 730.5Q1151 719 1083 719Q1015 719 941.5 730.5Q868 742 800.0 769.0Q732 796 675.0 839.5Q618 883 582 947L700 1209L1341 1317Q1364 1363 1387.0 1405.5Q1410 1448 1436.0 1488.0Q1462 1528 1491.5 1566.0Q1521 1604 1558 1641Q1565 1648 1578.0 1662.5Q1591 1677 1605.0 1690.5Q1619 1704 1633.0 1714.5Q1647 1725 1657 1725Z" style="fill:#cccccc;stroke:none" transform="scale(1,-1) translate(0,-256)" /></svg>