<?xml version="1.0" encoding="utf-8" ?>
<svg baseProfile="full" height="256" version="1.1" width="256" xmlns="http://www.w3.org/2000/svg" xmlns:ev="http://www.w3.org/2001/xml-events" xmlns:xlink="http://www.w3.org/1999/xlink"><defs /><path d="M1404 1281Q1436 1257 1457.0 1224.5Q1478 1192 1478 1150Q1478 1107 1457.5 1074.5Q1437 1042 1404.0 1018.0Q1371 994 1328.5 978.0Q1286 962 1242.0 952.5Q1198 943 1156.5 939.0Q1115 935 1083 935Q1051 935 1009.5 939.0Q968 943 924.0 952.5Q880 962 837.5 978.0Q795 994 761.5 1018.0Q728 1042 707.5 1074.5Q687 1107 687 1150Q687 1193 707.5 1225.5Q728 1258 761.5 1282.0Q795 1306 837.5 1322.5Q880 1339 924.0 1348.5Q968 1358 1009.5 1362.0Q1051 1366 1083 1366Q1149 1366 1215.0 1354.5Q1281 1343 1341 1317L1190 1015Q1213 1019 1236.0 1024.0Q1259 1029 1282 1037Z" style="fill:#e5e5e5;stroke:none" transform="scale(1,-1) translate(0,-256)" /></svg>