<?xml version="1.0" encoding="utf-8" ?>
<svg baseProfile="full" height="256" version="1.1" width="256" xmlns="http://www.w3.org/2000/svg" xmlns:ev="http://www.w3.org/2001/xml-events" xmlns:xlink="http://www.w3.org/1999/xlink"><defs /><path d="M1190 1015Q1163 1010 1136.0 1008.5Q1109 1007 1082 1007Q1049 1007 1011.0 1010.5Q973 1014 935.5 1022.0Q898 1030 863.5 1043.5Q829 1057 802 1078Q829 1099 863.5 1112.5Q898 1126 935.5 1134.5Q973 1143 1011.0 1146.5Q1049 1150 1082 1150Q1124 1150 1165.5 1145.5Q1207 1141 1248 1130Q1234 1102 1220.5 1071.5Q1207 1041 1190 1015ZM1316 1106Q1340 1096 1363 1078Q1345 1064 1324.5 1054.5Q1304 1045 1282 1037Z" style="fill:#107c10;stroke:none" transform="scale(1,-1) translate(0,-256)" /></svg>