<?xml version="1.0" encoding="utf-8" ?>
<svg baseProfile="full" height="256" version="1.1" width="256" xmlns="http://www.w3.org/2000/svg" xmlns:ev="http://www.w3.org/2001/xml-events" xmlns:xlink="http://www.w3.org/1999/xlink"><defs /><path d="M1190 1015Q1137 1006 1083 1006Q1063 1006 1031.5 1008.5Q1000 1011 964.0 1017.5Q928 1024 891.5 1035.0Q855 1046 825.5 1062.0Q796 1078 777.5 1099.5Q759 1121 759 1150Q759 1179 777.5 1200.5Q796 1222 825.5 1238.0Q855 1254 891.5 1265.0Q928 1276 964.0 1282.5Q1000 1289 1031.5 1291.5Q1063 1294 1083 1294Q1140 1294 1198.5 1285.0Q1257 1276 1309 1253ZM1406 1510Q1406 1524 1416.0 1534.5Q1426 1545 1441 1545Q1450 1545 1463.5 1538.5Q1477 1532 1490.5 1523.0Q1504 1514 1515.5 1505.0Q1527 1496 1534 1492Q1550 1481 1550 1461Q1550 1447 1539.0 1436.5Q1528 1426 1514 1426Q1505 1426 1492.0 1432.5Q1479 1439 1465.5 1448.0Q1452 1457 1440.5 1466.0Q1429 1475 1422 1480Q1406 1491 1406 1510ZM1371 1215Q1385 1203 1395.5 1186.5Q1406 1170 1406 1150Q1406 1128 1393.0 1110.0Q1380 1092 1361.5 1077.5Q1343 1063 1321.5 1053.0Q1300 1043 1282 1037Z" style="fill:#a6a6a6;stroke:none" transform="scale(1,-1) translate(0,-256)" /></svg>