<?xml version="1.0" encoding="utf-8" ?>
<svg baseProfile="full" height="256" version="1.1" width="256" xmlns="http://www.w3.org/2000/svg" xmlns:ev="http://www.w3.org/2001/xml-events" xmlns:xlink="http://www.w3.org/1999/xlink"><defs /><path d="M1190 288H975L903 1725H1262ZM687 288H472L400 1725H759ZM759 -108Q759 -71 745.0 -38.0Q731 -5 706.5 19.5Q682 44 649.0 58.0Q616 72 579 72Q542 72 509.5 58.0Q477 44 452.5 19.5Q428 -5 414.0 -38.0Q400 -71 400 -108Q400 -145 414.0 -177.5Q428 -210 452.5 -234.5Q477 -259 509.5 -273.0Q542 -287 579 -287Q616 -287 649.0 -273.0Q682 -259 706.5 -234.5Q731 -210 745.0 -177.5Q759 -145 759 -108ZM1262 -108Q1262 -71 1248.0 -38.0Q1234 -5 1209.5 19.5Q1185 44 1152.5 58.0Q1120 72 1083 72Q1045 72 1012.5 58.0Q980 44 955.5 19.5Q931 -5 917.0 -38.0Q903 -71 903 -108Q903 -145 917.0 -177.5Q931 -210 955.5 -234.5Q980 -259 1013.0 -273.0Q1046 -287 1083 -287Q1120 -287 1152.5 -273.0Q1185 -259 1209.5 -234.5Q1234 -210 1248.0 -177.5Q1262 -145 1262 -108Z" style="fill:#f03a17;stroke:none" transform="scale(1,-1) translate(0,-256)" /></svg>