<?xml version="1.0" encoding="utf-8" ?>
<svg baseProfile="full" height="256" version="1.1" width="256" xmlns="http://www.w3.org/2000/svg" xmlns:ev="http://www.w3.org/2001/xml-events" xmlns:xlink="http://www.w3.org/1999/xlink"><defs /><path d="M1335 94Q1370 51 1388.0 -1.0Q1406 -53 1406 -108Q1406 -175 1380.5 -233.5Q1355 -292 1311.0 -336.0Q1267 -380 1208.5 -405.5Q1150 -431 1083 -431Q1010 -431 943.5 -399.5Q877 -368 831 -311Q785 -368 718.5 -399.5Q652 -431 579 -431Q512 -431 453.5 -405.5Q395 -380 351.0 -336.0Q307 -292 281.5 -233.5Q256 -175 256 -108Q256 -53 274.0 -1.0Q292 51 327 94L256 1869H1406Z" style="fill:#000000;stroke:none" transform="scale(1,-1) translate(0,-256)" /></svg>