<?xml version="1.0" encoding="utf-8" ?>
<svg baseProfile="full" height="256" version="1.1" width="256" xmlns="http://www.w3.org/2000/svg" xmlns:ev="http://www.w3.org/2001/xml-events" xmlns:xlink="http://www.w3.org/1999/xlink"><defs /><path d="M1622 721Q1675 684 1715.5 636.0Q1756 588 1783.0 531.5Q1810 475 1823.5 413.5Q1837 352 1837 288Q1837 215 1821.5 144.5Q1806 74 1776.0 10.0Q1746 -54 1702.5 -108.5Q1659 -163 1603.0 -202.5Q1547 -242 1479.5 -264.5Q1412 -287 1334 -287H1262L1130 -175V716ZM1406 1438Q1454 1438 1492.5 1421.5Q1531 1405 1559.0 1376.0Q1587 1347 1603.5 1307.5Q1620 1268 1622 1222Q1623 1202 1623.0 1182.5Q1623 1163 1623 1143H688V1222Q688 1267 704.5 1306.5Q721 1346 750.5 1375.5Q780 1405 819.5 1421.5Q859 1438 904 1438L966 1504H1336ZM1263 1617V1536H1047V1617Q1047 1639 1055.5 1658.5Q1064 1678 1079.0 1693.0Q1094 1708 1113.5 1716.5Q1133 1725 1155 1725Q1177 1725 1197.0 1716.5Q1217 1708 1231.5 1693.5Q1246 1679 1254.5 1659.0Q1263 1639 1263 1617Z" style="fill:#f7894a;stroke:none" transform="scale(1,-1) translate(0,-256)" /></svg>