<?xml version="1.0" encoding="utf-8" ?>
<svg baseProfile="full" height="256" version="1.1" width="256" xmlns="http://www.w3.org/2000/svg" xmlns:ev="http://www.w3.org/2001/xml-events" xmlns:xlink="http://www.w3.org/1999/xlink"><defs /><path d="M2053 935Q2053 838 2016.5 749.5Q1980 661 1914 592Q1981 447 1981 288Q1981 195 1959.0 106.0Q1937 17 1895.5 -63.0Q1854 -143 1795.5 -210.5Q1737 -278 1663.5 -327.0Q1590 -376 1503.0 -403.5Q1416 -431 1319 -431H1262Q1223 -431 1178.5 -424.5Q1134 -418 1088.5 -407.0Q1043 -396 1000.0 -381.5Q957 -367 922 -352Q796 -297 697.5 -221.5Q599 -146 525.0 -54.0Q451 38 400.0 144.5Q349 251 317.0 368.0Q285 485 270.5 610.0Q256 735 256 863V935Q256 1007 278.5 1073.0Q301 1139 342.5 1193.5Q384 1248 441.0 1288.5Q498 1329 567 1349Q596 1425 654.0 1481.5Q712 1538 789 1564Q809 1606 841.0 1639.0Q873 1672 915 1693Q928 1732 951.5 1764.0Q975 1796 1006.5 1819.5Q1038 1843 1076.0 1856.0Q1114 1869 1155 1869Q1196 1869 1234.0 1856.5Q1272 1844 1304.0 1820.5Q1336 1797 1359.5 1764.5Q1383 1732 1395 1693Q1437 1672 1469.5 1638.5Q1502 1605 1522 1563Q1599 1537 1657.0 1480.5Q1715 1424 1744 1348Q1812 1328 1869.0 1287.5Q1926 1247 1967.0 1192.5Q2008 1138 2030.5 1072.0Q2053 1006 2053 935Z" style="fill:#000000;stroke:none" transform="scale(1,-1) translate(0,-256)" /></svg>