<?xml version="1.0" encoding="utf-8" ?>
<svg baseProfile="full" height="256" version="1.1" width="256" xmlns="http://www.w3.org/2000/svg" xmlns:ev="http://www.w3.org/2001/xml-events" xmlns:xlink="http://www.w3.org/1999/xlink"><defs /><path d="M1190 1078Q1220 1078 1246.0 1067.0Q1272 1056 1291.5 1036.5Q1311 1017 1322.5 991.0Q1334 965 1334 935Q1334 905 1322.5 878.5Q1311 852 1291.5 832.5Q1272 813 1246.0 802.0Q1220 791 1190 791Q1160 791 1134.0 802.5Q1108 814 1088.5 833.5Q1069 853 1058.0 879.0Q1047 905 1047 935Q1047 965 1058.0 991.0Q1069 1017 1088.5 1036.5Q1108 1056 1134.0 1067.0Q1160 1078 1190 1078ZM1011 647Q1033 647 1053.0 638.5Q1073 630 1087.0 615.0Q1101 600 1109.5 580.5Q1118 561 1118 539Q1118 517 1109.5 497.5Q1101 478 1086.5 463.0Q1072 448 1052.5 439.5Q1033 431 1011 431Q989 431 969.5 439.5Q950 448 935.0 463.0Q920 478 911.5 497.5Q903 517 903 539Q903 561 911.5 581.0Q920 601 934.5 615.5Q949 630 968.5 638.5Q988 647 1011 647ZM687 791Q717 791 738.0 770.0Q759 749 759 719Q759 689 738.0 668.0Q717 647 687 647Q657 647 636.0 668.0Q615 689 615 719Q615 749 636.0 770.0Q657 791 687 791Z" style="fill:#ca5010;stroke:none" transform="scale(1,-1) translate(0,-256)" /></svg>