<?xml version="1.0" encoding="utf-8" ?>
<svg baseProfile="full" height="256" version="1.1" width="256" xmlns="http://www.w3.org/2000/svg" xmlns:ev="http://www.w3.org/2001/xml-events" xmlns:xlink="http://www.w3.org/1999/xlink"><defs /><path d="M930 397Q934 412 946.5 421.5Q959 431 975 431Q991 431 1003.0 421.5Q1015 412 1019 397L1186 -269Q1082 -287 975 -287Q866 -287 764 -269ZM608 401Q611 415 622.0 423.5Q633 432 647 432Q664 432 675.5 420.0Q687 408 687 391V-253Q569 -224 464 -175ZM1303 432Q1317 432 1327.5 423.5Q1338 415 1342 401L1486 -175Q1380 -224 1262 -253V391Q1262 408 1274.0 420.0Q1286 432 1303 432Z" style="fill:#af0d1a;stroke:none" transform="scale(1,-1) translate(0,-256)" /></svg>