<?xml version="1.0" encoding="utf-8" ?>
<svg baseProfile="full" height="256" version="1.1" width="256" xmlns="http://www.w3.org/2000/svg" xmlns:ev="http://www.w3.org/2001/xml-events" xmlns:xlink="http://www.w3.org/1999/xlink"><defs /><path d="M687 1006Q702 1029 714 1049Q725 1066 733.0 1083.5Q741 1101 743 1109Q745 1123 740.0 1142.5Q735 1162 729 1180Q722 1201 712 1223Q704 1342 650 1449L1047 1581L1226 1725H1262L1300 1451Q1299 1406 1298.0 1363.0Q1297 1320 1291.0 1279.5Q1285 1239 1273.0 1201.0Q1261 1163 1239 1127L600 490L527 364L687 1006Z" style="fill:#13a10e;stroke:none" transform="scale(1,-1) translate(0,-256)" /></svg>