<?xml version="1.0" encoding="utf-8" ?>
<svg baseProfile="full" height="256" version="1.1" width="256" xmlns="http://www.w3.org/2000/svg" xmlns:ev="http://www.w3.org/2001/xml-events" xmlns:xlink="http://www.w3.org/1999/xlink"><defs /><path d="M1693 575Q1693 503 1661.5 443.0Q1630 383 1576 344L1689 -109Q1701 -157 1681.5 -202.0Q1662 -247 1617 -270Q1469 -349 1306.0 -390.0Q1143 -431 975 -431Q806 -431 643.5 -390.0Q481 -349 332 -270Q288 -247 268.0 -202.0Q248 -157 260 -109L557 1077Q571 1131 570.5 1185.5Q570 1240 556 1294H328V1581Q328 1641 350.5 1693.5Q373 1746 412.0 1785.0Q451 1824 503.5 1846.5Q556 1869 615 1869H707Q741 1869 773.0 1858.5Q805 1848 831.5 1829.5Q858 1811 878.5 1784.5Q899 1758 910 1726Q936 1745 960.5 1767.5Q985 1790 1008 1817L1051 1869H1334Q1394 1869 1446.5 1846.5Q1499 1824 1538.0 1785.0Q1577 1746 1599.5 1693.5Q1622 1641 1622 1581V1294H1550V719H1693V575Z" style="fill:#000000;stroke:none" transform="scale(1,-1) translate(0,-256)" /></svg>