<?xml version="1.0" encoding="utf-8" ?>
<svg baseProfile="full" height="256" version="1.1" width="256" xmlns="http://www.w3.org/2000/svg" xmlns:ev="http://www.w3.org/2001/xml-events" xmlns:xlink="http://www.w3.org/1999/xlink"><defs /><path d="M1189 1472Q1182 1374 1140.0 1289.0Q1098 1204 1030.5 1141.0Q963 1078 875.0 1042.0Q787 1006 687 1006L696 1043Q707 1088 711.0 1133.0Q715 1178 712 1223Q782 1226 848.0 1244.0Q914 1262 974.5 1294.5Q1035 1327 1089.0 1371.5Q1143 1416 1189 1472ZM1406 719Q1406 689 1417.0 662.5Q1428 636 1447.5 616.5Q1467 597 1493.5 586.0Q1520 575 1550 575Q1550 545 1538.5 519.0Q1527 493 1507.5 473.5Q1488 454 1462.0 442.5Q1436 431 1406 431L1253 1043Q1251 1053 1249.0 1062.5Q1247 1072 1245 1082L1334 1438H1406Z" style="fill:#107c10;stroke:none" transform="scale(1,-1) translate(0,-256)" /></svg>