<?xml version="1.0" encoding="utf-8" ?>
<svg baseProfile="full" height="256" version="1.1" width="256" xmlns="http://www.w3.org/2000/svg" xmlns:ev="http://www.w3.org/2001/xml-events" xmlns:xlink="http://www.w3.org/1999/xlink"><defs /><path d="M1550 -144Q1534 -152 1518.0 -159.5Q1502 -167 1486 -175Q1474 -181 1459.5 -175.0Q1445 -169 1430.5 -160.5Q1416 -152 1401.5 -146.0Q1387 -140 1374 -144Q1359 -150 1345.5 -166.0Q1332 -182 1319.0 -200.0Q1306 -218 1292.0 -233.5Q1278 -249 1262 -253Q1243 -258 1224.5 -262.0Q1206 -266 1186 -269Q1160 -274 1134.0 -265.5Q1108 -257 1081.5 -245.0Q1055 -233 1028.5 -222.5Q1002 -212 975 -212Q948 -212 921.0 -222.5Q894 -233 868.0 -245.0Q842 -257 815.5 -265.5Q789 -274 764 -269Q744 -266 725.0 -262.0Q706 -258 687 -253Q670 -249 655.0 -228.5Q640 -208 625.0 -184.0Q610 -160 595.5 -139.0Q581 -118 565 -112Q553 -108 540.0 -119.0Q527 -130 514.0 -144.5Q501 -159 488.0 -170.0Q475 -181 464 -175Q447 -167 431.5 -159.5Q416 -152 400 -144L527 364L746 1038Q771 1138 760.0 1241.5Q749 1345 704 1438L472 1510V1581Q472 1611 483.0 1637.0Q494 1663 513.5 1682.5Q533 1702 559.0 1713.5Q585 1725 615 1725H707Q730 1725 749.0 1711.5Q768 1698 775 1676L831 1510L1108 1184L1334 1725Q1364 1725 1390.0 1713.5Q1416 1702 1435.5 1682.5Q1455 1663 1466.5 1637.0Q1478 1611 1478 1581V1510L1334 1438Q1302 1377 1279 1315Q1269 1288 1260.5 1259.0Q1252 1230 1247.0 1200.0Q1242 1170 1241.0 1140.0Q1240 1110 1245 1082Q1247 1072 1249.0 1062.5Q1251 1053 1253 1043L1262 1006Z" style="fill:#e81224;stroke:none" transform="scale(1,-1) translate(0,-256)" /></svg>