<?xml version="1.0" encoding="utf-8" ?>
<svg baseProfile="full" height="256" version="1.1" width="256" xmlns="http://www.w3.org/2000/svg" xmlns:ev="http://www.w3.org/2001/xml-events" xmlns:xlink="http://www.w3.org/1999/xlink"><defs /><path d="M1406 -215Q1277 -215 1157.5 -181.5Q1038 -148 934.0 -87.5Q830 -27 745.0 58.0Q660 143 599.5 247.0Q539 351 505.5 470.5Q472 590 472 719Q472 848 505.5 967.5Q539 1087 599.5 1191.0Q660 1295 745.5 1380.0Q831 1465 934.5 1525.5Q1038 1586 1157.5 1619.5Q1277 1653 1406 1653Q1535 1653 1654.5 1619.5Q1774 1586 1878.0 1525.5Q1982 1465 2067.5 1379.5Q2153 1294 2214.0 1190.5Q2275 1087 2308.5 968.0Q2342 849 2342 720Q2342 591 2308.5 471.5Q2275 352 2214.0 248.0Q2153 144 2067.5 59.0Q1982 -26 1878.0 -87.0Q1774 -148 1654.5 -181.5Q1535 -215 1406 -215ZM1406 1581Q1287 1581 1177.0 1550.0Q1067 1519 971.0 1463.0Q875 1407 796.0 1328.5Q717 1250 661.0 1154.0Q605 1058 574.0 948.0Q543 838 543 719Q543 600 574.0 490.0Q605 380 661.0 284.0Q717 188 796.0 109.0Q875 30 971.0 -26.0Q1067 -82 1177.0 -113.0Q1287 -144 1406 -144Q1525 -144 1635.0 -113.0Q1745 -82 1841.0 -26.0Q1937 30 2015.5 109.0Q2094 188 2150.0 284.0Q2206 380 2237.0 490.0Q2268 600 2268 719Q2268 838 2237.0 948.0Q2206 1058 2150.0 1154.0Q2094 1250 2015.5 1328.5Q1937 1407 1841.0 1463.0Q1745 1519 1635.0 1550.0Q1525 1581 1406 1581Z" style="fill:#ffd679;stroke:none" transform="scale(1,-1) translate(0,-256)" /></svg>