<?xml version="1.0" encoding="utf-8" ?>
<svg baseProfile="full" height="256" version="1.1" width="256" xmlns="http://www.w3.org/2000/svg" xmlns:ev="http://www.w3.org/2001/xml-events" xmlns:xlink="http://www.w3.org/1999/xlink"><defs /><path d="M1404 575Q1374 575 1348.5 586.5Q1323 598 1303.5 618.0Q1284 638 1273.0 664.5Q1262 691 1262 721Q1262 750 1273.5 776.0Q1285 802 1304.5 821.0Q1324 840 1350.5 851.0Q1377 862 1406 862Q1436 862 1462.0 851.0Q1488 840 1507.5 820.5Q1527 801 1538.0 775.0Q1549 749 1549 719Q1549 689 1537.5 662.5Q1526 636 1506.5 616.5Q1487 597 1460.5 586.0Q1434 575 1404 575Z" style="fill:#757575;stroke:none" transform="scale(1,-1) translate(0,-256)" /></svg>