<?xml version="1.0" encoding="utf-8" ?>
<svg baseProfile="full" height="256" version="1.1" width="256" xmlns="http://www.w3.org/2000/svg" xmlns:ev="http://www.w3.org/2001/xml-events" xmlns:xlink="http://www.w3.org/1999/xlink"><defs /><path d="M1909 719 1478 647 1406 216 1342 597 1190 503 1290 664 903 719 1343 782 1406 1222 1461 835 1622 935 1528 783ZM857 1370 974 1253Q984 1243 984 1227Q984 1212 974 1202L923 1151Q912 1140 897 1140Q883 1140 872 1151L755 1268ZM763 178 872 287Q882 297 897 297Q913 297 923 287L974 236Q984 226 984 210Q984 195 974 185L865 76ZM1946 78 1838 185Q1827 196 1827 210Q1827 225 1838 236L1889 287Q1899 297 1914 297Q1930 297 1940 287L2047 179ZM2046 1257 1940 1151Q1929 1140 1914 1140Q1900 1140 1889 1151L1838 1202Q1827 1213 1827 1227Q1827 1242 1838 1253L1944 1359Z" style="fill:#cccccc;stroke:none" transform="scale(1,-1) translate(0,-256)" /></svg>