<?xml version="1.0" encoding="utf-8" ?>
<svg baseProfile="full" height="256" version="1.1" width="256" xmlns="http://www.w3.org/2000/svg" xmlns:ev="http://www.w3.org/2001/xml-events" xmlns:xlink="http://www.w3.org/1999/xlink"><defs /><path d="M1406 1653Q1535 1653 1654.5 1619.5Q1774 1586 1877.5 1525.5Q1981 1465 2066.5 1379.5Q2152 1294 2212.5 1190.5Q2273 1087 2306.5 967.5Q2340 848 2340 719Q2340 590 2306.5 470.5Q2273 351 2212.5 247.5Q2152 144 2066.5 58.5Q1981 -27 1877.5 -87.5Q1774 -148 1654.5 -181.5Q1535 -215 1406 -215Q1277 -215 1157.5 -181.5Q1038 -148 934.5 -87.5Q831 -27 745.5 58.5Q660 144 599.5 247.5Q539 351 505.5 470.5Q472 590 472 719Q472 848 505.5 967.5Q539 1087 599.5 1190.5Q660 1294 745.5 1379.5Q831 1465 934.5 1525.5Q1038 1586 1157.5 1619.5Q1277 1653 1406 1653ZM1406 0Q1505 0 1597.0 25.5Q1689 51 1769.0 98.0Q1849 145 1914.5 210.5Q1980 276 2027.0 356.0Q2074 436 2099.5 528.0Q2125 620 2125 719Q2125 818 2099.5 910.0Q2074 1002 2027.0 1082.0Q1980 1162 1914.5 1227.5Q1849 1293 1769.0 1340.0Q1689 1387 1597.0 1412.5Q1505 1438 1406 1438Q1307 1438 1215.0 1412.5Q1123 1387 1043.0 1340.0Q963 1293 897.5 1227.5Q832 1162 785.0 1082.0Q738 1002 712.5 910.0Q687 818 687 719Q687 620 712.5 528.0Q738 436 785.0 356.0Q832 276 897.5 210.5Q963 145 1043.0 98.0Q1123 51 1215.0 25.5Q1307 0 1406 0Z" style="fill:#e5e5e5;stroke:none" transform="scale(1,-1) translate(0,-256)" /></svg>