<?xml version="1.0" encoding="utf-8" ?>
<svg baseProfile="full" height="256" version="1.1" width="256" xmlns="http://www.w3.org/2000/svg" xmlns:ev="http://www.w3.org/2001/xml-events" xmlns:xlink="http://www.w3.org/1999/xlink"><defs /><path d="M1478 1547V1402Q1478 1387 1467.5 1376.5Q1457 1366 1442 1366H1370Q1355 1366 1344.5 1376.5Q1334 1387 1334 1402V1547ZM1327 693Q1304 728 1277.5 761.0Q1251 794 1225 826L1054 1046Q1034 1072 1013.5 1097.5Q993 1123 975 1150Q1102 1074 1227.5 997.5Q1353 921 1478 843Q1440 806 1402.5 768.0Q1365 730 1327 693Z" style="fill:#e81224;stroke:none" transform="scale(1,-1) translate(0,-256)" /></svg>