<?xml version="1.0" encoding="utf-8" ?>
<svg baseProfile="full" height="256" version="1.1" width="256" xmlns="http://www.w3.org/2000/svg" xmlns:ev="http://www.w3.org/2001/xml-events" xmlns:xlink="http://www.w3.org/1999/xlink"><defs /><path d="M580 791H723Q738 791 748.5 780.5Q759 770 759 755V683Q759 668 748.5 657.5Q738 647 723 647H580ZM1334 -107V36Q1334 51 1344.5 61.5Q1355 72 1370 72H1442Q1457 72 1467.5 61.5Q1478 51 1478 36V-107ZM2229 647H2089Q2074 647 2063.5 657.5Q2053 668 2053 683V755Q2053 770 2063.5 780.5Q2074 791 2089 791H2229ZM1530 791Q1608 666 1684.5 540.5Q1761 415 1837 288Q1709 364 1585.5 442.5Q1462 521 1334 597Q1383 646 1432.5 693.5Q1482 741 1530 791Z" style="fill:#a6a6a6;stroke:none" transform="scale(1,-1) translate(0,-256)" /></svg>