<?xml version="1.0" encoding="utf-8" ?>
<svg baseProfile="full" height="256" version="1.1" width="256" xmlns="http://www.w3.org/2000/svg" xmlns:ev="http://www.w3.org/2001/xml-events" xmlns:xlink="http://www.w3.org/1999/xlink"><defs /><path d="M1981 503Q1981 394 1952.5 293.0Q1924 192 1872.5 104.5Q1821 17 1749.0 -55.5Q1677 -128 1589.0 -179.5Q1501 -231 1400.0 -259.0Q1299 -287 1190 -287Q1026 -287 882.5 -225.0Q739 -163 631.5 -55.5Q524 52 462.0 195.5Q400 339 400 503Q400 612 428.0 713.0Q456 814 507.5 902.0Q559 990 631.5 1062.0Q704 1134 791.5 1185.5Q879 1237 980.0 1265.5Q1081 1294 1190 1294Q1299 1294 1400.0 1266.0Q1501 1238 1589.0 1186.5Q1677 1135 1749.5 1062.5Q1822 990 1873.5 902.0Q1925 814 1953.0 713.0Q1981 612 1981 503Z" style="fill:#383838;stroke:none" transform="scale(1,-1) translate(0,-256)" /></svg>