<?xml version="1.0" encoding="utf-8" ?>
<svg baseProfile="full" height="256" version="1.1" width="256" xmlns="http://www.w3.org/2000/svg" xmlns:ev="http://www.w3.org/2001/xml-events" xmlns:xlink="http://www.w3.org/1999/xlink"><defs /><path d="M2412 1533 2544 1402 2412 1270V1078H2106Q2120 1052 2130.0 1025.5Q2140 999 2151 973L2049 871Q2087 783 2106.0 690.5Q2125 598 2125 503Q2125 374 2091.5 255.0Q2058 136 1997.0 32.0Q1936 -72 1850.5 -157.0Q1765 -242 1661.0 -303.0Q1557 -364 1438.0 -397.5Q1319 -431 1190 -431Q1061 -431 942.0 -397.5Q823 -364 719.0 -303.0Q615 -242 530.0 -157.0Q445 -72 384.0 32.0Q323 136 289.5 255.0Q256 374 256 503Q256 632 289.5 751.0Q323 870 384.0 974.0Q445 1078 530.0 1163.5Q615 1249 719.0 1310.0Q823 1371 942.0 1404.5Q1061 1438 1190 1438Q1285 1438 1377.5 1419.0Q1470 1400 1558 1362L1660 1464Q1686 1453 1712.5 1443.0Q1739 1433 1765 1419V1725H1957L2089 1857L2220 1725H2412Z" style="fill:#000000;stroke:none" transform="scale(1,-1) translate(0,-256)" /></svg>