<?xml version="1.0" encoding="utf-8" ?>
<svg baseProfile="full" height="256" version="1.1" width="256" xmlns="http://www.w3.org/2000/svg" xmlns:ev="http://www.w3.org/2001/xml-events" xmlns:xlink="http://www.w3.org/1999/xlink"><defs /><path d="M975 863Q975 833 963.5 807.0Q952 781 932.5 761.5Q913 742 887.0 730.5Q861 719 831 719Q801 719 775.0 730.5Q749 742 729.5 761.5Q710 781 698.5 807.0Q687 833 687 863Q687 893 698.5 919.0Q710 945 729.5 964.5Q749 984 775.0 995.0Q801 1006 831 1006Q861 1006 887.0 995.0Q913 984 932.5 964.5Q952 945 963.5 919.0Q975 893 975 863Z" style="fill:#757575;stroke:none" transform="scale(1,-1) translate(0,-256)" /></svg>