<?xml version="1.0" encoding="utf-8" ?>
<svg baseProfile="full" height="256" version="1.1" width="256" xmlns="http://www.w3.org/2000/svg" xmlns:ev="http://www.w3.org/2001/xml-events" xmlns:xlink="http://www.w3.org/1999/xlink"><defs /><path d="M400 1006 1528 1338Q1538 1341 1549 1341Q1579 1341 1600.5 1319.5Q1622 1298 1622 1268V864Q1622 834 1600.5 812.5Q1579 791 1549 791H1502Q1486 791 1460.5 786.0Q1435 781 1406.5 774.5Q1378 768 1350.5 761.5Q1323 755 1304 752Q1213 736 1122.0 727.5Q1031 719 939 719Q802 719 667.5 737.5Q533 756 400 791Z" style="fill:#cccccc;stroke:none" transform="scale(1,-1) translate(0,-256)" /></svg>