<?xml version="1.0" encoding="utf-8" ?>
<svg baseProfile="full" height="256" version="1.1" width="256" xmlns="http://www.w3.org/2000/svg" xmlns:ev="http://www.w3.org/2001/xml-events" xmlns:xlink="http://www.w3.org/1999/xlink"><defs /><path d="M474 -431Q429 -431 389.5 -414.0Q350 -397 320.5 -368.0Q291 -339 273.5 -299.5Q256 -260 256 -215V1653Q256 1698 273.5 1737.5Q291 1777 320.5 1806.0Q350 1835 389.5 1852.0Q429 1869 474 1869H1407Q1451 1869 1490.0 1851.5Q1529 1834 1558.5 1804.5Q1588 1775 1605.0 1735.5Q1622 1696 1622 1653V1425Q1654 1413 1680.5 1392.5Q1707 1372 1726.0 1345.5Q1745 1319 1755.5 1287.0Q1766 1255 1766 1221V817Q1766 782 1755.5 747.5Q1745 713 1726.5 682.5Q1708 652 1681.5 628.0Q1655 604 1622 590V-215Q1622 -259 1605.0 -298.0Q1588 -337 1558.5 -366.5Q1529 -396 1490.0 -413.5Q1451 -431 1407 -431Z" style="fill:#000000;stroke:none" transform="scale(1,-1) translate(0,-256)" /></svg>