<?xml version="1.0" encoding="utf-8" ?>
<svg baseProfile="full" height="256" version="1.1" width="256" xmlns="http://www.w3.org/2000/svg" xmlns:ev="http://www.w3.org/2001/xml-events" xmlns:xlink="http://www.w3.org/1999/xlink"><defs /><path d="M401 1006V1294Q412 1313 412 1333Q412 1350 401 1366V1653Q401 1683 422.5 1704.0Q444 1725 474 1725H903Q920 1715 937 1715Q955 1715 975 1725H1407Q1437 1725 1458.0 1704.0Q1479 1683 1479 1653V1366Q1464 1346 1464 1325Q1464 1316 1468 1311Q1216 1174 951.0 1100.5Q686 1027 401 1006Z" style="fill:#8e562e;stroke:none" transform="scale(1,-1) translate(0,-256)" /></svg>