<?xml version="1.0" encoding="utf-8" ?>
<svg baseProfile="full" height="256" version="1.1" width="256" xmlns="http://www.w3.org/2000/svg" xmlns:ev="http://www.w3.org/2001/xml-events" xmlns:xlink="http://www.w3.org/1999/xlink"><defs /><path d="M1116 -431Q997 -431 887.0 -400.5Q777 -370 681.5 -314.0Q586 -258 507.5 -179.5Q429 -101 373.0 -5.5Q317 90 286.5 200.0Q256 310 256 429Q256 513 272.5 596.5Q289 680 321.0 758.5Q353 837 400.0 908.0Q447 979 508 1038Q555 1084 607.5 1120.5Q660 1157 717 1190Q751 1210 784.0 1230.5Q817 1251 846 1279Q875 1308 896.0 1342.5Q917 1377 938 1412Q970 1467 1006.0 1519.0Q1042 1571 1087 1617Q1146 1678 1217.0 1725.0Q1288 1772 1366.5 1804.0Q1445 1836 1528.5 1852.5Q1612 1869 1696 1869Q1815 1869 1925.0 1838.5Q2035 1808 2130.5 1752.0Q2226 1696 2304.5 1617.5Q2383 1539 2439.0 1443.5Q2495 1348 2525.5 1238.0Q2556 1128 2556 1009Q2556 836 2491.0 679.0Q2426 522 2304 400L1725 -179Q1603 -301 1446.0 -366.0Q1289 -431 1116 -431Z" style="fill:#000000;stroke:none" transform="scale(1,-1) translate(0,-256)" /></svg>