<?xml version="1.0" encoding="utf-8" ?>
<svg baseProfile="full" height="256" version="1.1" width="256" xmlns="http://www.w3.org/2000/svg" xmlns:ev="http://www.w3.org/2001/xml-events" xmlns:xlink="http://www.w3.org/1999/xlink"><defs /><path d="M1116 -287Q1017 -287 925.5 -261.5Q834 -236 754.5 -189.5Q675 -143 609.5 -77.5Q544 -12 497.5 67.5Q451 147 425.5 238.5Q400 330 400 429Q400 440 400.0 451.0Q400 462 401 473Q452 380 526.0 305.5Q600 231 689.0 178.5Q778 126 879.0 98.0Q980 70 1086 70Q1243 70 1386.5 129.5Q1530 189 1641 300L2274 933Q2351 1010 2406 1108Q2409 1084 2411.0 1059.5Q2413 1035 2413 1010Q2413 865 2359.0 735.0Q2305 605 2202 502L1623 -77Q1522 -178 1390.5 -232.5Q1259 -287 1116 -287ZM1442 1081Q1434 1081 1427.0 1083.0Q1420 1085 1412 1088Q1339 1117 1269.0 1133.5Q1199 1150 1120 1150Q969 1150 830 1089Q864 1110 892.0 1130.5Q920 1151 944.0 1174.5Q968 1198 989.0 1225.5Q1010 1253 1031 1287Q1054 1289 1078.0 1290.5Q1102 1292 1125 1292Q1165 1292 1210.5 1287.5Q1256 1283 1302.5 1274.0Q1349 1265 1392.5 1251.0Q1436 1237 1471 1218Q1491 1207 1502.5 1191.5Q1514 1176 1514 1153Q1514 1124 1492.5 1102.5Q1471 1081 1442 1081ZM1571 468Q1548 468 1531.5 479.5Q1515 491 1505 511Q1491 539 1478.0 562.5Q1465 586 1450.5 607.0Q1436 628 1419.0 649.0Q1402 670 1381 694Q1360 717 1360 745Q1360 775 1381.0 796.0Q1402 817 1432 817Q1460 817 1483 796Q1494 786 1510.5 767.0Q1527 748 1544.5 725.0Q1562 702 1579.5 675.5Q1597 649 1611.0 624.0Q1625 599 1633.5 577.0Q1642 555 1642 540Q1642 510 1621.5 489.0Q1601 468 1571 468ZM831 719Q831 689 810.0 668.0Q789 647 759 647Q729 647 708.0 668.0Q687 689 687 719Q687 749 708.0 770.0Q729 791 759 791Q789 791 810.0 770.0Q831 749 831 719ZM1118 360Q1118 331 1097.0 309.5Q1076 288 1047 288Q1017 288 996.0 309.0Q975 330 975 360Q975 389 996.5 410.0Q1018 431 1047 431Q1076 431 1097.0 410.0Q1118 389 1118 360ZM2125 1294Q2125 1264 2104.0 1243.0Q2083 1222 2053 1222Q2023 1222 2002.0 1243.0Q1981 1264 1981 1294Q1981 1324 2002.0 1345.0Q2023 1366 2053 1366Q2083 1366 2104.0 1345.0Q2125 1324 2125 1294ZM1622 1438Q1622 1409 1600.5 1387.5Q1579 1366 1550 1366Q1520 1366 1499.0 1387.0Q1478 1408 1478 1438Q1478 1467 1499.5 1488.5Q1521 1510 1550 1510Q1579 1510 1600.5 1488.5Q1622 1467 1622 1438ZM1981 863Q1981 833 1960.0 812.0Q1939 791 1909 791Q1879 791 1858.0 812.0Q1837 833 1837 863Q1837 892 1858.5 913.5Q1880 935 1909 935Q1938 935 1959.5 913.5Q1981 892 1981 863Z" style="fill:#8e562e;stroke:none" transform="scale(1,-1) translate(0,-256)" /></svg>