<?xml version="1.0" encoding="utf-8" ?>
<svg baseProfile="full" height="256" version="1.1" width="256" xmlns="http://www.w3.org/2000/svg" xmlns:ev="http://www.w3.org/2001/xml-events" xmlns:xlink="http://www.w3.org/1999/xlink"><defs /><path d="M1129 -211Q1058 -211 992.5 -195.5Q927 -180 866.0 -151.5Q805 -123 749.5 -83.0Q694 -43 645 6Q598 52 563.5 93.0Q529 134 502.5 178.0Q476 222 456.5 272.0Q437 322 421 385Q416 405 408.5 429.0Q401 453 401 473Q401 489 403.0 504.0Q405 519 408 535Q408 536 408.5 536.5Q409 537 409 538Q409 590 427.0 645.5Q445 701 474.0 754.0Q503 807 538.5 854.0Q574 901 610 936Q658 984 714.5 1020.5Q771 1057 830 1089Q849 1100 875.5 1111.5Q902 1123 929.0 1135.0Q956 1147 979.5 1160.0Q1003 1173 1018 1187Q1028 1197 1035.5 1209.0Q1043 1221 1043 1236Q1043 1249 1039.5 1262.0Q1036 1275 1031 1287Q1067 1347 1103.5 1405.5Q1140 1464 1189 1515Q1289 1617 1421.0 1671.0Q1553 1725 1695 1725Q1785 1725 1869.0 1704.0Q1953 1683 2027.5 1644.0Q2102 1605 2165.5 1549.5Q2229 1494 2278.0 1425.5Q2327 1357 2360.0 1276.5Q2393 1196 2406 1108Q2382 1030 2367.0 961.0Q2352 892 2331.0 828.0Q2310 764 2276.0 703.0Q2242 642 2180 581L1588 -8Q1494 -102 1378.5 -156.5Q1263 -211 1129 -211Z" style="fill:#bb9167;stroke:none" transform="scale(1,-1) translate(0,-256)" /></svg>