<?xml version="1.0" encoding="utf-8" ?>
<svg baseProfile="full" height="256" version="1.1" width="256" xmlns="http://www.w3.org/2000/svg" xmlns:ev="http://www.w3.org/2001/xml-events" xmlns:xlink="http://www.w3.org/1999/xlink"><defs /><path d="M400.147216796875 1522.0Q400.147216796875 1483.0 413.14642333984375 1451.5Q426.1456298828125 1420.0 446.1444091796875 1393.5Q466.1431884765625 1367.0 492.1416015625 1343.0Q518.1400146484375 1319.0 543.1384887695312 1294.0L663.1311645507812 1283.0L830.1209716796875 1461.0V1581.0Q805.1224975585938 1606.0 781.6239318847656 1632.0Q758.1253662109375 1658.0 731.6269836425781 1678.5Q705.1286010742188 1699.0 673.6305236816406 1712.0Q642.1324462890625 1725.0 603.1348266601562 1725.0Q561.1373901367188 1725.0 524.1396484375 1709.0Q487.14190673828125 1693.0 459.6435852050781 1665.5Q432.145263671875 1638.0 416.146240234375 1601.0Q400.147216796875 1564.0 400.147216796875 1522.0Z" style="fill:#e84757;stroke:none" transform="scale(1,-1) translate(0,-256)" /></svg>