<?xml version="1.0" encoding="utf-8" ?>
<svg baseProfile="full" height="256" version="1.1" width="256" xmlns="http://www.w3.org/2000/svg" xmlns:ev="http://www.w3.org/2001/xml-events" xmlns:xlink="http://www.w3.org/1999/xlink"><defs /><path d="M603.1348266601562 1869.0Q531.1392211914062 1869.0 468.14306640625 1841.5Q405.14691162109375 1814.0 358.1497802734375 1767.0Q311.15264892578125 1720.0 283.6543273925781 1657.0Q256.156005859375 1594.0 256.156005859375 1522.0Q256.156005859375 1453.0 282.6543884277344 1389.5Q309.15277099609375 1326.0 358.1497802734375 1277.0L1879.0569458007812 -245.0Q1904.055419921875 -270.0 1936.053466796875 -280.0L2366.0272216796875 -423.0Q2390.0257568359375 -431.0 2413.0243530273438 -431.0Q2442.0225830078125 -431.0 2468.02099609375 -419.5Q2494.0194091796875 -408.0 2513.5182189941406 -388.5Q2533.0170288085938 -369.0 2544.516326904297 -343.0Q2556.015625 -317.0 2556.015625 -288.0Q2556.015625 -265.0 2548.01611328125 -241.0L2405.0248413085938 189.0Q2395.0254516601562 221.0 2370.0269775390625 246.0L848.119873046875 1767.0Q746.1260986328125 1869.0 603.1348266601562 1869.0Z" style="fill:#000000;stroke:none" transform="scale(1,-1) translate(0,-256)" /></svg>