<?xml version="1.0" encoding="utf-8" ?>
<svg baseProfile="full" height="256" version="1.1" width="256" xmlns="http://www.w3.org/2000/svg" xmlns:ev="http://www.w3.org/2001/xml-events" xmlns:xlink="http://www.w3.org/1999/xlink"><defs /><path d="M2331 230V-12Q2331 -42 2309.5 -63.0Q2288 -84 2259 -84Q2235 -84 2216 -69Q2181 -44 2148.0 -20.0Q2115 4 2078 26Q1923 120 1750.5 168.0Q1578 216 1396 216Q1215 216 1042.0 168.0Q869 120 714 26Q678 4 645.0 -20.0Q612 -44 577 -69Q557 -84 534 -84Q505 -84 483.5 -63.0Q462 -42 462 -12V230Q462 251 481 262Q506 277 533.0 290.0Q560 303 587 314L602 320Q695 359 793.0 386.5Q891 414 991.5 432.0Q1092 450 1194.0 458.5Q1296 467 1396 467Q1496 467 1598.0 458.5Q1700 450 1800.5 432.0Q1901 414 1999.0 386.5Q2097 359 2190 320Q2221 307 2252.5 293.0Q2284 279 2312 262Q2331 251 2331 230Z" style="fill:#0027b4;stroke:none" transform="scale(1,-1) translate(0,-256)" /></svg>