<?xml version="1.0" encoding="utf-8" ?>
<svg baseProfile="full" height="256" version="1.1" width="256" xmlns="http://www.w3.org/2000/svg" xmlns:ev="http://www.w3.org/2001/xml-events" xmlns:xlink="http://www.w3.org/1999/xlink"><defs /><path d="M1557 1510Q1675 1510 1786.0 1482.0Q1897 1454 1995.5 1402.5Q2094 1351 2177.5 1277.5Q2261 1204 2325.5 1113.0Q2390 1022 2431.5 915.5Q2473 809 2488 691L2535 314Q2536 306 2536.5 300.0Q2537 294 2537 288Q2537 242 2520.5 206.5Q2504 171 2475 137V-12Q2475 -56 2458.0 -95.5Q2441 -135 2411.5 -164.5Q2382 -194 2342.5 -211.0Q2303 -228 2259 -228Q2222 -228 2188.5 -215.5Q2155 -203 2126 -181Q2074 -142 2021.0 -108.0Q1968 -74 1909 -45Q1781 -60 1653.0 -66.0Q1525 -72 1396 -72Q1267 -72 1139.5 -65.5Q1012 -59 884 -45Q826 -74 771.5 -108.0Q717 -142 666 -181Q637 -204 604.5 -216.0Q572 -228 535 -228Q490 -228 450.5 -211.0Q411 -194 381.5 -164.5Q352 -135 335.0 -96.0Q318 -57 318 -12V137Q289 171 272.5 205.5Q256 240 256 285Q256 292 256.5 298.5Q257 305 258 312L305 691Q320 809 361.5 915.5Q403 1022 467.0 1113.0Q531 1204 615.0 1277.5Q699 1351 797.5 1402.5Q896 1454 1006.5 1482.0Q1117 1510 1236 1510Q1248 1527 1267.5 1540.0Q1287 1553 1308.5 1562.0Q1330 1571 1353.0 1576.0Q1376 1581 1396 1581Q1444 1581 1484.0 1563.0Q1524 1545 1557 1510Z" style="fill:#000000;stroke:none" transform="scale(1,-1) translate(0,-256)" /></svg>