<?xml version="1.0" encoding="utf-8" ?>
<svg baseProfile="full" height="256" version="1.1" width="256" xmlns="http://www.w3.org/2000/svg" xmlns:ev="http://www.w3.org/2001/xml-events" xmlns:xlink="http://www.w3.org/1999/xlink"><defs /><path d="M2223 198Q2223 178 2189.5 161.5Q2156 145 2104.5 132.5Q2053 120 1991.5 111.0Q1930 102 1874.0 95.5Q1818 89 1775.0 86.0Q1732 83 1718 82Q1637 77 1557.0 74.5Q1477 72 1396 72Q1310 72 1225.0 74.5Q1140 77 1055 83Q1041 84 1000.0 87.5Q959 91 905.0 97.0Q851 103 792.0 112.5Q733 122 683.5 134.0Q634 146 602.0 162.0Q570 178 570 198Q570 217 602.0 233.0Q634 249 683.5 261.5Q733 274 792.0 283.0Q851 292 905.0 298.5Q959 305 1000.0 308.5Q1041 312 1055 313Q1140 319 1225.0 321.5Q1310 324 1396 324Q1477 324 1557.0 321.5Q1637 319 1718 314Q1732 313 1775.0 309.5Q1818 306 1874.0 300.0Q1930 294 1991.5 284.5Q2053 275 2104.5 262.5Q2156 250 2189.5 234.0Q2223 218 2223 198Z" style="fill:#383838;stroke:none" transform="scale(1,-1) translate(0,-256)" /></svg>