<?xml version="1.0" encoding="utf-8" ?>
<svg baseProfile="full" height="256" version="1.1" width="256" xmlns="http://www.w3.org/2000/svg" xmlns:ev="http://www.w3.org/2001/xml-events" xmlns:xlink="http://www.w3.org/1999/xlink"><defs /><path d="M2340 503H2153L2268 288H1981Q1936 288 1897.0 271.0Q1858 254 1828.5 224.5Q1799 195 1782.0 156.0Q1765 117 1765 72H1047Q1047 117 1030.0 156.0Q1013 195 983.5 224.5Q954 254 915.0 271.0Q876 288 831 288H543L659 503H472L687 905V758Q687 691 712.5 632.0Q738 573 782.0 529.0Q826 485 885.0 459.5Q944 434 1011 434H1801Q1868 434 1927.0 459.5Q1986 485 2030.0 529.0Q2074 573 2099.5 632.0Q2125 691 2125 758V905ZM1791 1306Q1791 1317 1795.0 1328.5Q1799 1340 1808 1348L2125 1635V1078L1822 1251Q1808 1259 1799.5 1274.0Q1791 1289 1791 1306ZM687 1635 1004 1348Q1013 1340 1017.0 1328.5Q1021 1317 1021 1306Q1021 1289 1012.0 1274.0Q1003 1259 989 1251L687 1078Z" style="fill:#cccccc;stroke:none" transform="scale(1,-1) translate(0,-256)" /></svg>