<?xml version="1.0" encoding="utf-8" ?>
<svg baseProfile="full" height="256" version="1.1" width="256" xmlns="http://www.w3.org/2000/svg" xmlns:ev="http://www.w3.org/2001/xml-events" xmlns:xlink="http://www.w3.org/1999/xlink"><defs /><path d="M1406 791Q1429 791 1446.0 777.5Q1463 764 1473 744L1734 218Q1750 186 1757.5 147.0Q1765 108 1765 72Q1765 -2 1736.5 -67.5Q1708 -133 1659.5 -181.5Q1611 -230 1545.5 -258.5Q1480 -287 1406 -287Q1332 -287 1266.5 -259.0Q1201 -231 1152.0 -182.0Q1103 -133 1075.0 -67.5Q1047 -2 1047 72Q1047 107 1054.0 145.5Q1061 184 1077 216L1341 748Q1351 768 1367.0 779.5Q1383 791 1406 791Z" style="fill:#ffffff;stroke:none" transform="scale(1,-1) translate(0,-256)" /></svg>