<?xml version="1.0" encoding="utf-8" ?>
<svg baseProfile="full" height="256" version="1.1" width="256" xmlns="http://www.w3.org/2000/svg" xmlns:ev="http://www.w3.org/2001/xml-events" xmlns:xlink="http://www.w3.org/1999/xlink"><defs /><path d="M655 760Q655 779 659.5 797.0Q664 815 669.5 832.5Q675 850 680.0 868.0Q685 886 687 905Q689 919 689.0 933.5Q689 948 689 963Q689 992 688.0 1020.5Q687 1049 687 1078L811 1356L687 1635Q687 1653 690.5 1669.0Q694 1685 702.5 1697.5Q711 1710 725.0 1717.5Q739 1725 759 1725Q774 1725 785.0 1720.5Q796 1716 807 1706L1261 1294H1548L2005 1706Q2025 1725 2053 1725Q2093 1725 2109.0 1698.0Q2125 1671 2125 1635L2014 1356L2125 1078Q2125 1043 2124.0 1007.0Q2123 971 2123 936Q2123 913 2129.5 890.5Q2136 868 2144.0 848.0Q2152 828 2158.5 811.0Q2165 794 2165 782V713Q2165 646 2139.5 587.5Q2114 529 2070.0 485.0Q2026 441 1967.5 415.5Q1909 390 1842 390H979Q912 390 853.5 415.5Q795 441 751.0 485.0Q707 529 681.5 587.5Q656 646 656 713Q656 725 655.5 736.5Q655 748 655 760Z" style="fill:#757575;stroke:none" transform="scale(1,-1) translate(0,-256)" /></svg>