<?xml version="1.0" encoding="utf-8" ?>
<svg baseProfile="full" height="256" version="1.1" width="256" xmlns="http://www.w3.org/2000/svg" xmlns:ev="http://www.w3.org/2001/xml-events" xmlns:xlink="http://www.w3.org/1999/xlink"><defs /><path d="M1406 -431Q1302 -431 1210.5 -391.5Q1119 -352 1050.5 -283.5Q982 -215 942.5 -123.5Q903 -32 903 72Q903 102 882.0 123.0Q861 144 831 144H303L419 360H256L543 941V1653Q543 1698 560.0 1737.0Q577 1776 606.5 1805.5Q636 1835 675.0 1852.0Q714 1869 759 1869Q842 1869 905 1812L1316 1438H1493L1908 1813Q1970 1869 2053 1869Q2098 1869 2137.0 1852.0Q2176 1835 2205.0 1805.5Q2234 1776 2251.0 1737.0Q2268 1698 2268 1653V941L2556 360H2393L2509 144H1981Q1951 144 1930.0 123.0Q1909 102 1909 72Q1909 -32 1869.5 -123.5Q1830 -215 1761.5 -283.5Q1693 -352 1601.5 -391.5Q1510 -431 1406 -431Z" style="fill:#000000;stroke:none" transform="scale(1,-1) translate(0,-256)" /></svg>