<?xml version="1.0" encoding="utf-8" ?>
<svg baseProfile="full" height="256" version="1.1" width="256" xmlns="http://www.w3.org/2000/svg" xmlns:ev="http://www.w3.org/2001/xml-events" xmlns:xlink="http://www.w3.org/1999/xlink"><defs /><path d="M1047 -431Q988 -431 935.5 -408.0Q883 -385 844.0 -346.0Q805 -307 782.0 -255.0Q759 -203 759 -144V288H615Q541 288 475.5 316.0Q410 344 361.0 393.0Q312 442 284.0 507.5Q256 573 256 647V669L492 1409Q509 1463 543.0 1508.0Q577 1553 622.5 1585.0Q668 1617 721.5 1635.0Q775 1653 831 1653H861Q883 1702 917.0 1741.5Q951 1781 993.5 1809.5Q1036 1838 1086.0 1853.5Q1136 1869 1190 1869H1622Q1676 1869 1726.0 1853.5Q1776 1838 1818.5 1809.5Q1861 1781 1895.0 1741.5Q1929 1702 1951 1653H1981Q2036 1653 2089.0 1635.5Q2142 1618 2187.5 1586.5Q2233 1555 2267.5 1511.0Q2302 1467 2319 1414L2556 669V647Q2556 573 2527.5 507.5Q2499 442 2450.5 393.5Q2402 345 2336.5 316.5Q2271 288 2197 288H2053V-144Q2053 -203 2030.0 -255.0Q2007 -307 1968.0 -346.0Q1929 -385 1876.5 -408.0Q1824 -431 1765 -431Z" style="fill:#000000;stroke:none" transform="scale(1,-1) translate(0,-256)" /></svg>