<?xml version="1.0" encoding="utf-8" ?>
<svg baseProfile="full" height="256" version="1.1" width="256" xmlns="http://www.w3.org/2000/svg" xmlns:ev="http://www.w3.org/2001/xml-events" xmlns:xlink="http://www.w3.org/1999/xlink"><defs /><path d="M2413 642Q2413 598 2395.5 560.0Q2378 522 2348.0 493.0Q2318 464 2279.0 447.5Q2240 431 2197 431H2125L1909 1132V503Q1900 500 1893.5 490.5Q1887 481 1883.5 470.0Q1880 459 1878.5 447.5Q1877 436 1877 427Q1877 419 1878.5 408.0Q1880 397 1884.0 386.5Q1888 376 1894.0 368.0Q1900 360 1909 359V-144Q1909 -174 1897.5 -200.0Q1886 -226 1866.5 -245.5Q1847 -265 1821.0 -276.0Q1795 -287 1765 -287H1047Q1017 -287 991.0 -276.0Q965 -265 945.5 -245.5Q926 -226 914.5 -200.0Q903 -174 903 -144V359Q913 359 920.0 367.5Q927 376 930.5 387.0Q934 398 935.5 410.0Q937 422 937 430Q937 438 935.5 450.0Q934 462 930.0 473.5Q926 485 919.5 493.5Q913 502 903 503V1132L687 431H615Q572 431 533.0 447.5Q494 464 464.0 493.0Q434 522 416.5 560.0Q399 598 399 642Q399 644 408.0 673.5Q417 703 432.5 751.0Q448 799 467.5 860.5Q487 922 507.5 987.0Q528 1052 548.5 1115.5Q569 1179 586.0 1231.5Q603 1284 614.5 1320.0Q626 1356 629 1366Q639 1398 659.5 1424.5Q680 1451 707.0 1470.0Q734 1489 766.0 1499.5Q798 1510 831 1510H975Q975 1555 992.0 1594.0Q1009 1633 1038.0 1662.0Q1067 1691 1106.0 1708.0Q1145 1725 1190 1725H1622Q1667 1725 1706.0 1708.0Q1745 1691 1774.0 1662.0Q1803 1633 1820.0 1594.0Q1837 1555 1837 1510H1981Q2014 1510 2046.0 1499.5Q2078 1489 2105.0 1470.0Q2132 1451 2152.5 1424.5Q2173 1398 2183 1366Q2186 1356 2197.5 1320.0Q2209 1284 2226.0 1231.5Q2243 1179 2263.5 1115.5Q2284 1052 2304.5 987.0Q2325 922 2344.5 860.5Q2364 799 2379.5 751.0Q2395 703 2404.0 673.5Q2413 644 2413 642Z" style="fill:#ffffff;stroke:none" transform="scale(1,-1) translate(0,-256)" /></svg>