<?xml version="1.0" encoding="utf-8" ?>
<svg baseProfile="full" height="256" version="1.1" width="256" xmlns="http://www.w3.org/2000/svg" xmlns:ev="http://www.w3.org/2001/xml-events" xmlns:xlink="http://www.w3.org/1999/xlink"><defs /><path d="M1586 1581Q1608 1581 1627.5 1572.5Q1647 1564 1661.5 1549.5Q1676 1535 1684.5 1515.5Q1693 1496 1693 1474Q1693 1462 1690.5 1450.0Q1688 1438 1683 1427L1469 997Q1469 996 1459.5 987.0Q1450 978 1439.0 967.0Q1428 956 1418.0 946.0Q1408 936 1406 935L1129 1427Q1124 1437 1121.0 1450.0Q1118 1463 1118 1474Q1118 1496 1126.5 1515.5Q1135 1535 1150.0 1549.5Q1165 1564 1184.5 1572.5Q1204 1581 1226 1581Z" style="fill:#a6a6a6;stroke:none" transform="scale(1,-1) translate(0,-256)" /></svg>