<?xml version="1.0" encoding="utf-8" ?>
<svg baseProfile="full" height="256" version="1.1" width="256" xmlns="http://www.w3.org/2000/svg" xmlns:ev="http://www.w3.org/2001/xml-events" xmlns:xlink="http://www.w3.org/1999/xlink"><defs /><path d="M939 1438Q1052 1438 1155.0 1393.5Q1258 1349 1334 1264Q1412 1348 1513.5 1393.0Q1615 1438 1729 1438Q1840 1438 1938.5 1395.5Q2037 1353 2110.0 1280.0Q2183 1207 2225.5 1108.5Q2268 1010 2268 899Q2268 848 2258.5 796.0Q2249 744 2229 697L1870 -115Q1853 -154 1822.0 -185.5Q1791 -217 1752.0 -239.5Q1713 -262 1670.0 -274.5Q1627 -287 1586 -287Q1511 -287 1445.5 -255.0Q1380 -223 1334 -165Q1288 -222 1222.5 -254.5Q1157 -287 1083 -287Q1042 -287 998.5 -274.5Q955 -262 916.5 -239.5Q878 -217 846.5 -185.5Q815 -154 798 -115L439 697Q419 744 409.5 796.0Q400 848 400 899Q400 1010 442.5 1108.5Q485 1207 558.0 1280.0Q631 1353 729.5 1395.5Q828 1438 939 1438Z" style="fill:#f03a17;stroke:none" transform="scale(1,-1) translate(0,-256)" /></svg>