<?xml version="1.0" encoding="utf-8" ?>
<svg baseProfile="full" height="256" version="1.1" width="256" xmlns="http://www.w3.org/2000/svg" xmlns:ev="http://www.w3.org/2001/xml-events" xmlns:xlink="http://www.w3.org/1999/xlink"><defs /><path d="M1083 -431Q1018 -431 957.0 -413.5Q896 -396 843.0 -364.0Q790 -332 746.0 -286.0Q702 -240 671 -183L306 644Q280 704 268.0 768.5Q256 833 256 899Q256 1033 306.0 1155.0Q356 1277 448 1373Q403 1430 379.0 1484.0Q355 1538 343.5 1593.0Q332 1648 330.0 1706.5Q328 1765 328 1831V1869H903Q975 1869 1044.0 1851.5Q1113 1834 1176 1800Q1206 1833 1247.5 1851.0Q1289 1869 1334 1869Q1379 1869 1418.0 1852.0Q1457 1835 1486.5 1805.5Q1516 1776 1533.0 1737.0Q1550 1698 1550 1653V1557Q1637 1581 1729 1581Q1870 1581 1994.5 1527.5Q2119 1474 2211.5 1381.0Q2304 1288 2358.0 1164.0Q2412 1040 2412 899Q2412 833 2399.5 766.0Q2387 699 2361 639L2001 -173Q1975 -232 1930.5 -279.5Q1886 -327 1830.5 -361.0Q1775 -395 1712.0 -413.0Q1649 -431 1586 -431Q1519 -431 1455.0 -411.5Q1391 -392 1334 -357Q1277 -393 1213.5 -412.0Q1150 -431 1083 -431Z" style="fill:#000000;stroke:none" transform="scale(1,-1) translate(0,-256)" /></svg>