<?xml version="1.0" encoding="utf-8" ?>
<svg baseProfile="full" height="256" version="1.1" width="256" xmlns="http://www.w3.org/2000/svg" xmlns:ev="http://www.w3.org/2001/xml-events" xmlns:xlink="http://www.w3.org/1999/xlink"><defs /><path d="M1909 1150 2340 719 2040 418Q2008 386 1977.5 350.5Q1947 315 1909 288L1642 555Q1667 591 1680.0 633.0Q1693 675 1693 719Q1693 763 1680.0 805.0Q1667 847 1642 883ZM1242 483Q1278 458 1319.5 444.5Q1361 431 1406 431Q1451 431 1492.5 444.5Q1534 458 1570 483L1837 216L1537 -85Q1505 -117 1474.5 -152.5Q1444 -188 1406 -215L975 216ZM1170 883Q1145 847 1131.5 805.5Q1118 764 1118 719Q1118 629 1171 555Q1105 486 1038.5 420.0Q972 354 903 288L472 719L903 1150ZM1571 954Q1535 980 1493.0 993.0Q1451 1006 1406 1006Q1362 1006 1320.0 993.0Q1278 980 1242 955L975 1222L1406 1653L1837 1222Z" style="fill:#00bcf2;stroke:none" transform="scale(1,-1) translate(0,-256)" /></svg>