<?xml version="1.0" encoding="utf-8" ?>
<svg baseProfile="full" height="256" version="1.1" width="256" xmlns="http://www.w3.org/2000/svg" xmlns:ev="http://www.w3.org/2001/xml-events" xmlns:xlink="http://www.w3.org/1999/xlink"><defs /><path d="M1441 456H1324Q1316 468 1301.5 494.5Q1287 521 1270.0 548.5Q1253 576 1236.5 598.5Q1220 621 1208 625Q1196 630 1184 630Q1179 630 1173.5 629.5Q1168 629 1163 629V456H1061V909H1223Q1254 909 1284.0 903.5Q1314 898 1337.0 884.0Q1360 870 1374.0 846.0Q1388 822 1388 785Q1388 736 1359.5 704.5Q1331 673 1286 659Q1309 651 1326.5 630.0Q1344 609 1356 590ZM1765 456H1493V909H1755V826H1595V725H1744V642H1595V538H1765ZM2120 456H1848V909H2110V826H1950V725H2099V642H1950V538H2120ZM985 826H825V714H972V632H825V456H723V909H985ZM1163 832V706H1208Q1239 706 1259.5 723.5Q1280 741 1280 773Q1280 807 1259.5 819.5Q1239 832 1209 832Z" style="fill:#ffffff;stroke:none" transform="scale(1,-1) translate(0,-256)" /></svg>