<?xml version="1.0" encoding="utf-8" ?>
<svg baseProfile="full" height="256" version="1.1" width="256" xmlns="http://www.w3.org/2000/svg" xmlns:ev="http://www.w3.org/2001/xml-events" xmlns:xlink="http://www.w3.org/1999/xlink"><defs /><path d="M2277 622Q2306 596 2322.5 560.0Q2339 524 2339 485Q2339 448 2325.0 415.5Q2311 383 2286.5 358.5Q2262 334 2229.5 320.0Q2197 306 2160 306Q2137 306 2114.0 312.5Q2091 319 2071 330L1853 456Q1815 478 1791.5 516.0Q1768 554 1764 598Q1726 551 1684.0 508.5Q1642 466 1593 430Q1704 421 1801.0 372.0Q1898 323 1969.0 246.0Q2040 169 2081.0 69.0Q2122 -31 2122 -143V-430H256V-143Q256 -40 291.0 54.0Q326 148 388.5 223.5Q451 299 537.0 351.0Q623 403 724 422Q648 476 588.0 545.0Q528 614 486.0 693.5Q444 773 421.5 861.5Q399 950 399 1043Q399 1187 450.0 1315.5Q501 1444 590.5 1544.5Q680 1645 802.0 1710.0Q924 1775 1067 1792L1029 1869H1476Q1535 1869 1587.5 1846.5Q1640 1824 1679.0 1785.0Q1718 1746 1740.5 1693.5Q1763 1641 1763 1582Q1763 1539 1751 1499Q1820 1411 1858.5 1309.5Q1897 1208 1905 1098L1913 1089L2071 1180Q2111 1204 2160 1204Q2197 1204 2229.5 1190.0Q2262 1176 2286.5 1152.0Q2311 1128 2325.0 1095.5Q2339 1063 2339 1026Q2339 987 2322.5 951.0Q2306 915 2277 889Q2306 863 2321.5 828.0Q2337 793 2337 755Q2337 717 2321.5 682.5Q2306 648 2277 622Z" style="fill:#000000;stroke:none" transform="scale(1,-1) translate(0,-256)" /></svg>