<?xml version="1.0" encoding="utf-8" ?>
<svg baseProfile="full" height="256" version="1.1" width="256" xmlns="http://www.w3.org/2000/svg" xmlns:ev="http://www.w3.org/2001/xml-events" xmlns:xlink="http://www.w3.org/1999/xlink"><defs /><path d="M722 611 693 1143 1003 1510H1404V1599Q1488 1561 1554.5 1503.0Q1621 1445 1667.5 1372.0Q1714 1299 1738.5 1214.0Q1763 1129 1763 1037Q1773 1027 1786.0 1015.5Q1799 1004 1809.5 991.5Q1820 979 1827.5 964.5Q1835 950 1835 935Q1835 912 1826.5 898.0Q1818 884 1804.0 876.0Q1790 868 1772.5 865.5Q1755 863 1736 863H1490Q1475 863 1464.5 852.5Q1454 842 1454 827Q1454 813 1465 802L1618 648Q1530 545 1409.5 488.5Q1289 432 1153 432Q1031 432 919.5 478.0Q808 524 722 611ZM1548 288Q1637 288 1715.5 254.0Q1794 220 1852.5 161.5Q1911 103 1945.0 24.5Q1979 -54 1979 -143V-287H400V-143Q400 -54 433.5 24.5Q467 103 525.5 161.5Q584 220 662.5 254.0Q741 288 830 288Z" style="fill:#757575;stroke:none" transform="scale(1,-1) translate(0,-256)" /></svg>