<?xml version="1.0" encoding="utf-8" ?>
<svg baseProfile="full" height="256" version="1.1" width="256" xmlns="http://www.w3.org/2000/svg" xmlns:ev="http://www.w3.org/2001/xml-events" xmlns:xlink="http://www.w3.org/1999/xlink"><defs /><path d="M1943 648Q1947 648 1964.0 639.5Q1981 631 2005.5 618.0Q2030 605 2058.0 589.0Q2086 573 2110.5 558.5Q2135 544 2153.5 532.5Q2172 521 2178 517Q2186 511 2191.0 504.0Q2196 497 2196 486Q2196 472 2185.0 461.0Q2174 450 2160 450Q2156 450 2138.5 458.5Q2121 467 2096.5 480.0Q2072 493 2044.0 508.5Q2016 524 1991.5 538.5Q1967 553 1948.5 564.5Q1930 576 1925 580Q1918 586 1912.5 593.5Q1907 601 1907 611Q1907 626 1917.5 637.0Q1928 648 1943 648ZM2196 1025Q2196 1013 2191.5 1007.0Q2187 1001 2178 994Q2171 989 2152.5 977.5Q2134 966 2110.0 951.5Q2086 937 2058.5 921.0Q2031 905 2007.0 892.5Q1983 880 1965.5 871.5Q1948 863 1943 863Q1929 863 1918.0 874.0Q1907 885 1907 899Q1907 910 1912.0 917.0Q1917 924 1925 930Q1930 934 1949.0 945.5Q1968 957 1992.5 971.5Q2017 986 2045.0 1002.0Q2073 1018 2097.5 1031.0Q2122 1044 2139.0 1052.5Q2156 1061 2160 1061Q2175 1061 2185.5 1050.5Q2196 1040 2196 1025ZM1943 719Q1928 719 1917.5 729.5Q1907 740 1907 755Q1907 770 1917.5 780.5Q1928 791 1943 791H2158Q2173 791 2183.5 780.5Q2194 770 2194 755Q2194 740 2183.5 729.5Q2173 719 2158 719Z" style="fill:#e5e5e5;stroke:none" transform="scale(1,-1) translate(0,-256)" /></svg>