<?xml version="1.0" encoding="utf-8" ?>
<svg baseProfile="full" height="256" version="1.1" width="256" xmlns="http://www.w3.org/2000/svg" xmlns:ev="http://www.w3.org/2001/xml-events" xmlns:xlink="http://www.w3.org/1999/xlink"><defs /><path d="M1620 1582Q1620 1552 1608.5 1526.0Q1597 1500 1577.5 1480.5Q1558 1461 1532.0 1449.5Q1506 1438 1476 1438H1117Q1088 1438 1066.5 1416.5Q1045 1395 1045 1366V1079H974Q974 1108 952.5 1129.0Q931 1150 902 1150Q876 1150 861.5 1140.0Q847 1130 840.0 1114.0Q833 1098 831.0 1078.0Q829 1058 829 1038Q829 1020 831.5 1001.5Q834 983 841.5 968.0Q849 953 863.0 944.0Q877 935 899 935V791L722 611Q634 698 588.5 808.5Q543 919 543 1043Q543 1169 591.0 1280.0Q639 1391 722.0 1474.0Q805 1557 916.0 1605.0Q1027 1653 1153 1653Q1230 1653 1307 1633L1261 1725H1476Q1506 1725 1532.0 1714.0Q1558 1703 1577.5 1683.5Q1597 1664 1608.5 1638.0Q1620 1612 1620 1582ZM1548 1222Q1578 1222 1599.0 1201.0Q1620 1180 1620 1150V1079Q1620 1049 1599.0 1028.0Q1578 1007 1548 1007Q1518 1007 1497.0 1028.0Q1476 1049 1476 1079V1150Q1476 1180 1497.0 1201.0Q1518 1222 1548 1222Z" style="fill:#2b2b2b;stroke:none" transform="scale(1,-1) translate(0,-256)" /></svg>