<?xml version="1.0" encoding="utf-8" ?>
<svg baseProfile="full" height="256" version="1.1" width="256" xmlns="http://www.w3.org/2000/svg" xmlns:ev="http://www.w3.org/2001/xml-events" xmlns:xlink="http://www.w3.org/1999/xlink"><defs /><path d="M1406 1051 1478 1015 1538 929 1478 854 1302 942Q1285 950 1274.0 964.5Q1263 979 1262 998V863Q1153 809 1046.5 755.0Q940 701 831 647V1120L687 977V791L616 731L543 791V1078Q543 1108 564 1129L852 1417Q873 1438 903 1438H1334V1366Q1364 1366 1385.0 1345.0Q1406 1324 1406 1294Z" style="fill:#e5e5e5;stroke:none" transform="scale(1,-1) translate(0,-256)" /></svg>