<?xml version="1.0" encoding="utf-8" ?>
<svg baseProfile="full" height="256" version="1.1" width="256" xmlns="http://www.w3.org/2000/svg" xmlns:ev="http://www.w3.org/2001/xml-events" xmlns:xlink="http://www.w3.org/1999/xlink"><defs /><path d="M1622 360H1659Q1678 360 1697.0 358.0Q1716 356 1731.0 348.5Q1746 341 1755.5 326.5Q1765 312 1765 288V216H1406V503H1622ZM831 36V144H1047V36Q1047 14 1038.5 -5.5Q1030 -25 1015.0 -40.0Q1000 -55 980.5 -63.5Q961 -72 939 -72Q917 -72 897.5 -63.5Q878 -55 863.0 -40.0Q848 -25 839.5 -5.5Q831 14 831 36ZM1047 1476V1562Q1048 1563 1058.5 1566.0Q1069 1569 1082.0 1572.5Q1095 1576 1105.5 1578.5Q1116 1581 1118 1581H1190L1262 1510Z" style="fill:#383838;stroke:none" transform="scale(1,-1) translate(0,-256)" /></svg>