<?xml version="1.0" encoding="utf-8" ?>
<svg baseProfile="full" height="256" version="1.1" width="256" xmlns="http://www.w3.org/2000/svg" xmlns:ev="http://www.w3.org/2001/xml-events" xmlns:xlink="http://www.w3.org/1999/xlink"><defs /><path d="M1909 1438H1550Q1498 1438 1450.0 1413.5Q1402 1389 1373 1345L1262 1175Q1233 1130 1184.5 1104.0Q1136 1078 1082 1078Q1037 1078 998.0 1095.0Q959 1112 930.0 1141.5Q901 1171 884.0 1210.0Q867 1249 867 1294Q867 1339 884.0 1378.0Q901 1417 930.0 1446.5Q959 1476 998.0 1493.0Q1037 1510 1082 1510Q1153 1510 1210 1467Q1226 1509 1253.0 1543.5Q1280 1578 1315.0 1602.0Q1350 1626 1391.5 1639.5Q1433 1653 1478 1653H1765ZM1478 1015 1654 927Q1672 918 1683.0 900.5Q1694 883 1694 863Q1694 833 1672.0 812.0Q1650 791 1621 791Q1607 791 1588.0 798.5Q1569 806 1548.5 816.0Q1528 826 1509.5 836.5Q1491 847 1478 854ZM543 647V791H687V647Q687 617 666.0 596.0Q645 575 615 575Q586 575 564.5 596.5Q543 618 543 647Z" style="fill:#f03a17;stroke:none" transform="scale(1,-1) translate(0,-256)" /></svg>