<?xml version="1.0" encoding="utf-8" ?>
<svg baseProfile="full" height="256" version="1.1" width="256" xmlns="http://www.w3.org/2000/svg" xmlns:ev="http://www.w3.org/2001/xml-events" xmlns:xlink="http://www.w3.org/1999/xlink"><defs /><path d="M2556 1006Q2556 962 2538.5 921.5Q2521 881 2489 851Q2521 806 2538.5 754.0Q2556 702 2556 647V288Q2556 214 2527.5 148.5Q2499 83 2450.5 34.0Q2402 -15 2336.5 -43.5Q2271 -72 2197 -72H2023Q2001 -121 1967.0 -161.0Q1933 -201 1890.0 -229.0Q1847 -257 1797.0 -272.0Q1747 -287 1693 -287H1216Q1177 -287 1137.5 -284.5Q1098 -282 1059 -282Q1039 -282 1018.5 -283.0Q998 -284 978 -287Q948 -292 917.5 -304.5Q887 -317 858 -327Q789 -350 720.5 -374.5Q652 -399 582 -419Q564 -424 545.5 -427.5Q527 -431 508 -431Q456 -431 410.0 -411.0Q364 -391 330.0 -357.0Q296 -323 276.0 -277.0Q256 -231 256 -179V-36Q256 -2 265.0 31.0Q274 64 291.0 92.5Q308 121 332.5 145.0Q357 169 387 185Q402 193 418.0 198.5Q434 204 451 209Q518 230 584.0 252.5Q650 275 716 298L792 449L763 491Q734 462 695.5 446.5Q657 431 615 431Q570 431 531.0 448.0Q492 465 463.0 494.5Q434 524 417.0 563.0Q400 602 400 647V1078Q400 1122 416.0 1161.0Q432 1200 463 1231L687 1455V1725H814Q859 1793 930.0 1831.0Q1001 1869 1082 1869H1406V1797H1842L2130 1365Q2163 1364 2194.0 1353.0Q2225 1342 2250.5 1323.5Q2276 1305 2296.0 1278.5Q2316 1252 2327 1221Q2374 1221 2415.5 1205.5Q2457 1190 2488.5 1162.0Q2520 1134 2538.0 1094.5Q2556 1055 2556 1006Z" style="fill:#000000;stroke:none" transform="scale(1,-1) translate(0,-256)" /></svg>