<?xml version="1.0" encoding="utf-8" ?>
<svg baseProfile="full" height="256" version="1.1" width="256" xmlns="http://www.w3.org/2000/svg" xmlns:ev="http://www.w3.org/2001/xml-events" xmlns:xlink="http://www.w3.org/1999/xlink"><defs /><path d="M2017 575Q2039 575 2058.5 566.5Q2078 558 2093.0 543.0Q2108 528 2116.5 508.5Q2125 489 2125 467V324Q2125 281 2101.0 256.0Q2077 231 2039 218L537 -283Q525 -287 508 -287Q485 -287 465.5 -278.5Q446 -270 431.5 -255.5Q417 -241 408.5 -221.5Q400 -202 400 -179V-36Q400 9 424.5 33.0Q449 57 488 70L1966 562Q1980 567 1991.0 571.0Q2002 575 2017 575Z" style="fill:#00cea6;stroke:none" transform="scale(1,-1) translate(0,-256)" /></svg>