<?xml version="1.0" encoding="utf-8" ?>
<svg baseProfile="full" height="256" version="1.1" width="256" xmlns="http://www.w3.org/2000/svg" xmlns:ev="http://www.w3.org/2001/xml-events" xmlns:xlink="http://www.w3.org/1999/xlink"><defs /><path d="M687 -431Q598 -431 519.5 -397.0Q441 -363 382.5 -304.5Q324 -246 290.0 -167.5Q256 -89 256 0Q256 93 291.0 172.0Q326 251 386.0 308.5Q446 366 526.5 398.5Q607 431 699 431L1694 1426Q1694 1429 1693.5 1432.0Q1693 1435 1693 1438Q1693 1527 1727.0 1605.5Q1761 1684 1820.0 1742.5Q1879 1801 1957.5 1835.0Q2036 1869 2125 1869Q2214 1869 2292.5 1835.0Q2371 1801 2429.5 1742.5Q2488 1684 2522.0 1605.5Q2556 1527 2556 1438Q2556 1349 2522.5 1270.5Q2489 1192 2430.5 1133.5Q2372 1075 2294.0 1041.0Q2216 1007 2127 1007H2113L1118 12Q1118 -80 1085.5 -160.5Q1053 -241 995.5 -301.0Q938 -361 859.0 -396.0Q780 -431 687 -431Z" style="fill:#000000;stroke:none" transform="scale(1,-1) translate(0,-256)" /></svg>