<?xml version="1.0" encoding="utf-8" ?>
<svg baseProfile="full" height="256" version="1.1" width="256" xmlns="http://www.w3.org/2000/svg" xmlns:ev="http://www.w3.org/2001/xml-events" xmlns:xlink="http://www.w3.org/1999/xlink"><defs /><path d="M2386 1556Q2412 1499 2412 1438Q2412 1379 2389.0 1327.0Q2366 1275 2327.0 1235.5Q2288 1196 2235.5 1173.0Q2183 1150 2125 1150Q2108 1150 2092.0 1152.0Q2076 1154 2060 1157L967 65Q975 31 975 0Q975 -60 952.5 -112.0Q930 -164 891.0 -203.0Q852 -242 799.5 -264.5Q747 -287 687 -287Q626 -287 569 -261L759 -72V0L687 72H615L426 -118Q400 -61 400 0Q400 60 422.5 112.5Q445 165 484.0 204.0Q523 243 575.0 265.5Q627 288 687 288Q718 288 752 280L1844 1373Q1841 1389 1839.0 1405.0Q1837 1421 1837 1438Q1837 1496 1860.0 1548.5Q1883 1601 1922.5 1640.0Q1962 1679 2014.0 1702.0Q2066 1725 2125 1725Q2186 1725 2243 1699L2053 1510V1438L2125 1366H2197Z" style="fill:#cccccc;stroke:none" transform="scale(1,-1) translate(0,-256)" /></svg>