<?xml version="1.0" encoding="utf-8" ?>
<svg baseProfile="full" height="256" version="1.1" width="256" xmlns="http://www.w3.org/2000/svg" xmlns:ev="http://www.w3.org/2001/xml-events" xmlns:xlink="http://www.w3.org/1999/xlink"><defs /><path d="M1693 791Q1693 762 1714.5 740.5Q1736 719 1765 719H2161Q2213 719 2259.0 699.0Q2305 679 2339.0 645.0Q2373 611 2392.5 565.0Q2412 519 2412 467Q2412 414 2392.5 368.5Q2373 323 2339.0 289.0Q2305 255 2259.0 235.5Q2213 216 2161 216H2125Q2095 216 2074.0 195.0Q2053 174 2053 144V108Q2053 56 2033.0 10.0Q2013 -36 1979.0 -70.0Q1945 -104 1899.0 -124.0Q1853 -144 1801 -144Q1749 -144 1703.0 -124.0Q1657 -104 1623.0 -70.0Q1589 -36 1569.5 10.0Q1550 56 1550 108V360Q1550 398 1530.0 430.5Q1510 463 1478 483V-215Q1478 -245 1457.0 -266.0Q1436 -287 1406 -287Q1376 -287 1355.0 -266.0Q1334 -245 1334 -215V483Q1302 463 1282.0 430.5Q1262 398 1262 360V108Q1262 56 1242.5 10.0Q1223 -36 1189.0 -70.0Q1155 -104 1109.0 -124.0Q1063 -144 1011 -144Q959 -144 913.0 -124.0Q867 -104 833.0 -70.0Q799 -36 779.0 10.0Q759 56 759 108V144Q759 174 738.0 195.0Q717 216 687 216H651Q598 216 552.5 235.5Q507 255 473.0 289.0Q439 323 419.5 368.5Q400 414 400 467Q400 519 419.5 565.0Q439 611 473.0 645.0Q507 679 553.0 699.0Q599 719 651 719H1047Q1076 719 1097.0 740.5Q1118 762 1118 791Q1118 820 1097.0 841.5Q1076 863 1047 863H723Q670 863 624.5 882.5Q579 902 545.0 936.0Q511 970 491.5 1015.5Q472 1061 472 1114Q472 1166 491.5 1212.0Q511 1258 545.0 1292.0Q579 1326 625.0 1346.0Q671 1366 723 1366H759Q789 1366 810.0 1387.0Q831 1408 831 1438V1474Q831 1526 851.0 1572.0Q871 1618 905.0 1652.0Q939 1686 985.0 1705.5Q1031 1725 1083 1725Q1135 1725 1180.5 1705.0Q1226 1685 1260.0 1651.0Q1294 1617 1314.0 1571.5Q1334 1526 1334 1474V1078Q1334 1049 1355.5 1027.5Q1377 1006 1406 1006Q1435 1006 1456.5 1027.5Q1478 1049 1478 1078V1474Q1478 1526 1497.5 1572.0Q1517 1618 1551.0 1652.0Q1585 1686 1630.5 1705.5Q1676 1725 1729 1725Q1781 1725 1827.0 1705.5Q1873 1686 1907.0 1652.0Q1941 1618 1961.0 1572.0Q1981 1526 1981 1474V1438Q1981 1408 2002.0 1387.0Q2023 1366 2053 1366H2089Q2141 1366 2187.0 1346.0Q2233 1326 2267.0 1292.0Q2301 1258 2320.5 1212.0Q2340 1166 2340 1114Q2340 1061 2320.5 1015.5Q2301 970 2267.0 936.0Q2233 902 2187.0 882.5Q2141 863 2089 863H1765Q1736 863 1714.5 841.5Q1693 820 1693 791Z" style="fill:#13a10e;stroke:none" transform="scale(1,-1) translate(0,-256)" /></svg>