<?xml version="1.0" encoding="utf-8" ?>
<svg baseProfile="full" height="256" version="1.1" width="256" xmlns="http://www.w3.org/2000/svg" xmlns:ev="http://www.w3.org/2001/xml-events" xmlns:xlink="http://www.w3.org/1999/xlink"><defs /><path d="M759 288Q759 318 780 339L1140 698Q1161 719 1190 719Q1219 719 1240.5 697.5Q1262 676 1262 647Q1262 617 1241 596L882 237Q861 216 831 216Q802 216 780.5 237.5Q759 259 759 288ZM1621 719Q1651 719 1672 698L2032 339Q2053 318 2053 288Q2053 259 2031.5 237.5Q2010 216 1981 216Q1951 216 1930 237L1571 596Q1550 617 1550 647Q1550 676 1571.0 697.5Q1592 719 1621 719ZM903 1366Q933 1366 954 1345L1241 1057Q1262 1036 1262 1006Q1262 977 1240.5 956.0Q1219 935 1190 935Q1161 935 1140 956L852 1243Q831 1264 831 1294Q831 1324 852.0 1345.0Q873 1366 903 1366ZM1981 1294Q1981 1264 1960 1243L1672 956Q1651 935 1621 935Q1592 935 1571.0 956.0Q1550 977 1550 1006Q1550 1036 1571 1057L1858 1345Q1879 1366 1909 1366Q1939 1366 1960.0 1345.0Q1981 1324 1981 1294Z" style="fill:#79db75;stroke:none" transform="scale(1,-1) translate(0,-256)" /></svg>