<?xml version="1.0" encoding="utf-8" ?>
<svg baseProfile="full" height="256" version="1.1" width="256" xmlns="http://www.w3.org/2000/svg" xmlns:ev="http://www.w3.org/2001/xml-events" xmlns:xlink="http://www.w3.org/1999/xlink"><defs /><path d="M1406 -431Q1365 -431 1328.5 -416.5Q1292 -402 1263.5 -377.0Q1235 -352 1216.0 -317.5Q1197 -283 1192 -243Q1107 -287 1011 -287Q934 -287 865.5 -259.5Q797 -232 743.5 -183.0Q690 -134 656.5 -68.5Q623 -3 617 74Q540 80 474.5 113.5Q409 147 360.0 200.0Q311 253 283.5 321.5Q256 390 256 467Q256 521 270.5 573.0Q285 625 312.0 670.0Q339 715 377.5 752.5Q416 790 464 816Q398 873 363.0 950.0Q328 1027 328 1114Q328 1190 355.5 1259.0Q383 1328 432.0 1381.5Q481 1435 546.5 1468.5Q612 1502 689 1508Q695 1584 728.5 1650.0Q762 1716 815.5 1765.0Q869 1814 937.5 1841.5Q1006 1869 1083 1869Q1180 1869 1264.5 1824.0Q1349 1779 1406 1701Q1463 1779 1547.5 1824.0Q1632 1869 1729 1869Q1805 1869 1874.0 1841.0Q1943 1813 1996.0 1764.5Q2049 1716 2083.0 1650.0Q2117 1584 2123 1508Q2199 1502 2265.0 1468.0Q2331 1434 2379.5 1381.0Q2428 1328 2456.0 1259.0Q2484 1190 2484 1114Q2484 1027 2449.0 950.0Q2414 873 2348 816Q2396 790 2434.5 752.5Q2473 715 2500.0 670.0Q2527 625 2541.5 573.0Q2556 521 2556 467Q2556 390 2528.5 321.5Q2501 253 2452.0 200.0Q2403 147 2337.0 113.5Q2271 80 2195 74Q2189 -3 2155.5 -68.5Q2122 -134 2068.5 -183.0Q2015 -232 1946.0 -259.5Q1877 -287 1801 -287Q1705 -287 1620 -243Q1615 -283 1596.0 -317.5Q1577 -352 1548.5 -377.0Q1520 -402 1483.0 -416.5Q1446 -431 1406 -431Z" style="fill:#000000;stroke:none" transform="scale(1,-1) translate(0,-256)" /></svg>