<?xml version="1.0" encoding="utf-8" ?>
<svg baseProfile="full" height="256" version="1.1" width="256" xmlns="http://www.w3.org/2000/svg" xmlns:ev="http://www.w3.org/2001/xml-events" xmlns:xlink="http://www.w3.org/1999/xlink"><defs /><path d="M1619 48Q1569 24 1515.0 12.0Q1461 0 1406 0Q1351 0 1297.0 12.0Q1243 24 1193 48Q1234 95 1289.0 119.5Q1344 144 1406 144Q1468 144 1523.0 119.5Q1578 95 1619 48ZM1051 1438Q1102 1438 1147.0 1418.5Q1192 1399 1225.5 1365.0Q1259 1331 1278.5 1286.0Q1298 1241 1298 1190Q1298 1131 1272 1079L1027 589L536 834Q505 850 480.0 873.5Q455 897 437.0 926.5Q419 956 409.5 989.0Q400 1022 400 1057Q400 1108 419.5 1153.0Q439 1198 472.0 1231.0Q505 1264 550.0 1283.5Q595 1303 646 1303Q694 1303 728.5 1289.0Q763 1275 805 1254L829 1301Q861 1364 920.5 1401.0Q980 1438 1051 1438ZM2007 1254Q2028 1264 2046.5 1273.0Q2065 1282 2083.0 1288.5Q2101 1295 2121.0 1299.0Q2141 1303 2165 1303Q2216 1303 2261.0 1283.5Q2306 1264 2339.5 1231.0Q2373 1198 2392.5 1153.0Q2412 1108 2412 1057Q2412 986 2375.0 926.0Q2338 866 2275 834L1785 589L1540 1079Q1514 1131 1514 1190Q1514 1241 1533.5 1286.0Q1553 1331 1586.5 1365.0Q1620 1399 1665.0 1418.5Q1710 1438 1761 1438Q1832 1438 1891.5 1401.0Q1951 1364 1983 1301Z" style="fill:#f03a17;stroke:none" transform="scale(1,-1) translate(0,-256)" /></svg>