<?xml version="1.0" encoding="utf-8" ?>
<svg baseProfile="full" height="256" version="1.1" width="256" xmlns="http://www.w3.org/2000/svg" xmlns:ev="http://www.w3.org/2001/xml-events" xmlns:xlink="http://www.w3.org/1999/xlink"><defs /><path d="M2536 933Q2546 879 2551.0 826.0Q2556 773 2556 719Q2556 560 2515.0 413.5Q2474 267 2399.0 139.0Q2324 11 2219.0 -94.0Q2114 -199 1986.0 -274.0Q1858 -349 1711.0 -390.0Q1564 -431 1406 -431Q1247 -431 1100.5 -390.0Q954 -349 826.0 -274.0Q698 -199 593.0 -94.0Q488 11 413.0 139.0Q338 267 297.0 414.0Q256 561 256 719Q256 773 261.0 826.0Q266 879 276 933Q256 995 256 1058Q256 1116 272.5 1170.5Q289 1225 320.0 1271.5Q351 1318 394.5 1355.0Q438 1392 491 1415Q573 1522 675.5 1606.5Q778 1691 895.0 1749.5Q1012 1808 1141.5 1838.5Q1271 1869 1406 1869Q1541 1869 1670.5 1838.5Q1800 1808 1917.0 1749.5Q2034 1691 2136.5 1606.5Q2239 1522 2321 1415Q2374 1392 2417.5 1355.0Q2461 1318 2491.5 1271.5Q2522 1225 2539.0 1170.5Q2556 1116 2556 1058Q2556 995 2536 933Z" style="fill:#000000;stroke:none" transform="scale(1,-1) translate(0,-256)" /></svg>