<?xml version="1.0" encoding="utf-8" ?>
<svg baseProfile="full" height="256" version="1.1" width="256" xmlns="http://www.w3.org/2000/svg" xmlns:ev="http://www.w3.org/2001/xml-events" xmlns:xlink="http://www.w3.org/1999/xlink"><defs /><path d="M2197 719H2376Q2391 719 2401.5 708.5Q2412 698 2412 683Q2412 677 2394.5 642.0Q2377 607 2350.5 556.0Q2324 505 2292.5 445.5Q2261 386 2231.5 332.0Q2202 278 2179.5 236.5Q2157 195 2149 180Q2128 141 2105.5 103.0Q2083 65 2056 30Q1997 -45 1924.0 -104.0Q1851 -163 1767.5 -203.5Q1684 -244 1592.5 -265.5Q1501 -287 1406 -287Q1310 -287 1218.5 -265.5Q1127 -244 1044.0 -203.5Q961 -163 888.0 -104.0Q815 -45 756 30Q728 65 705.5 103.0Q683 141 662 180L654 194Q641 217 617.5 261.0Q594 305 565.5 357.5Q537 410 507.5 465.5Q478 521 454.5 567.5Q431 614 415.5 646.0Q400 678 400 683Q400 698 410.5 708.5Q421 719 436 719H615V1653Q615 1683 636.0 1704.0Q657 1725 687 1725Q695 1725 706.5 1722.0Q718 1719 726 1714L1190 1438H1194L1197 1436Q1269 1436 1339.5 1437.0Q1410 1438 1482 1438L1487 1436H1612L1617 1438H1622L2085 1714Q2092 1718 2104.5 1721.5Q2117 1725 2125 1725Q2164 1725 2180.5 1699.0Q2197 1673 2197 1638L2195 1630Q2195 1401 2196.0 1174.5Q2197 948 2197 719Z" style="fill:#ffc83d;stroke:none" transform="scale(1,-1) translate(0,-256)" /></svg>