<?xml version="1.0" encoding="utf-8" ?>
<svg baseProfile="full" height="256" version="1.1" width="256" xmlns="http://www.w3.org/2000/svg" xmlns:ev="http://www.w3.org/2001/xml-events" xmlns:xlink="http://www.w3.org/1999/xlink"><defs /><path d="M1118 0Q1059 0 1007.0 23.0Q955 46 916.0 85.5Q877 125 854.0 177.0Q831 229 831 288Q831 347 853.5 399.5Q876 452 915.0 491.0Q954 530 1006.5 552.5Q1059 575 1118 575H1194L1197 573Q1322 573 1445.0 574.0Q1568 575 1693 575Q1751 575 1803.5 552.0Q1856 529 1895.5 490.0Q1935 451 1958.0 398.5Q1981 346 1981 288Q1981 228 1958.5 175.5Q1936 123 1897.0 84.0Q1858 45 1805.5 22.5Q1753 0 1693 0Q1636 0 1584.5 21.5Q1533 43 1494.0 80.5Q1455 118 1431.5 168.5Q1408 219 1406 276Q1404 218 1380.5 167.5Q1357 117 1318.0 80.0Q1279 43 1227.5 21.5Q1176 0 1118 0Z" style="fill:#ffffff;stroke:none" transform="scale(1,-1) translate(0,-256)" /></svg>