<?xml version="1.0" encoding="utf-8" ?>
<svg baseProfile="full" height="256" version="1.1" width="256" xmlns="http://www.w3.org/2000/svg" xmlns:ev="http://www.w3.org/2001/xml-events" xmlns:xlink="http://www.w3.org/1999/xlink"><defs /><path d="M1501 431Q1600 431 1687.5 393.5Q1775 356 1840.5 291.0Q1906 226 1943.5 138.5Q1981 51 1981 -48V-287H1478Q1411 -253 1338.0 -234.0Q1265 -215 1190 -215Q1115 -215 1042.5 -234.0Q970 -253 903 -287H400V-48Q400 51 437.5 138.5Q475 226 540.5 291.0Q606 356 693.5 393.5Q781 431 880 431H903Q970 405 1039.5 391.5Q1109 378 1181 378Q1232 378 1285.0 384.0Q1338 390 1388 404Q1417 412 1444.0 421.5Q1471 431 1501 431Z" style="fill:#383838;stroke:none" transform="scale(1,-1) translate(0,-256)" /></svg>