<?xml version="1.0" encoding="utf-8" ?>
<svg baseProfile="full" height="256" version="1.1" width="256" xmlns="http://www.w3.org/2000/svg" xmlns:ev="http://www.w3.org/2001/xml-events" xmlns:xlink="http://www.w3.org/1999/xlink"><defs /><path d="M1406 333V171Q1406 160 1398.0 152.0Q1390 144 1379 144Q1373 144 1356.0 151.5Q1339 159 1320.0 168.5Q1301 178 1283.5 187.5Q1266 197 1259 201Q1254 176 1235.0 160.0Q1216 144 1190 144Q1165 144 1145.5 160.5Q1126 177 1121 201Q1112 197 1095.0 187.5Q1078 178 1059.0 168.5Q1040 159 1024.0 151.5Q1008 144 1001 144Q990 144 982.5 152.0Q975 160 975 171V333Q975 344 982.5 352.0Q990 360 1001 360Q1007 360 1024.0 352.5Q1041 345 1060.5 335.5Q1080 326 1097.5 316.5Q1115 307 1122 303Q1127 328 1145.5 344.0Q1164 360 1190 360Q1216 360 1235.0 343.5Q1254 327 1259 302Q1266 306 1283.5 315.5Q1301 325 1320.0 335.0Q1339 345 1356.0 352.5Q1373 360 1379 360Q1390 360 1398.0 352.0Q1406 344 1406 333ZM1190 72Q1220 72 1241.0 51.0Q1262 30 1262 0Q1262 -30 1241.0 -51.0Q1220 -72 1190 -72Q1161 -72 1139.5 -50.5Q1118 -29 1118 0Q1118 29 1139.5 50.5Q1161 72 1190 72ZM1190 -215Q1219 -215 1240.5 -236.5Q1262 -258 1262 -287H1118Q1118 -258 1139.5 -236.5Q1161 -215 1190 -215Z" style="fill:#383838;stroke:none" transform="scale(1,-1) translate(0,-256)" /></svg>