<?xml version="1.0" encoding="utf-8" ?>
<svg baseProfile="full" height="256" version="1.1" width="256" xmlns="http://www.w3.org/2000/svg" xmlns:ev="http://www.w3.org/2001/xml-events" xmlns:xlink="http://www.w3.org/1999/xlink"><defs /><path d="M749 1366 1649 1402 1678 1234Q1682 1213 1687.5 1192.5Q1693 1172 1693 1150V1008Q1693 904 1653.5 812.0Q1614 720 1545.5 651.5Q1477 583 1385.5 543.0Q1294 503 1190 503Q1086 503 994.0 543.0Q902 583 834.0 651.5Q766 720 726.5 812.0Q687 904 687 1008V1150Q687 1153 691.0 1168.5Q695 1184 701.0 1206.0Q707 1228 714.5 1253.0Q722 1278 729.0 1301.0Q736 1324 741.5 1341.5Q747 1359 749 1366Z" style="fill:#ffc83d;stroke:none" transform="scale(1,-1) translate(0,-256)" /></svg>