<?xml version="1.0" encoding="utf-8" ?>
<svg baseProfile="full" height="256" version="1.1" width="256" xmlns="http://www.w3.org/2000/svg" xmlns:ev="http://www.w3.org/2001/xml-events" xmlns:xlink="http://www.w3.org/1999/xlink"><defs /><path d="M1047 1078V1006Q1047 977 1025.5 956.0Q1004 935 975 935Q946 935 924.5 956.0Q903 977 903 1006V1078Q903 1108 924.0 1129.0Q945 1150 975 1150Q1004 1150 1025.5 1128.5Q1047 1107 1047 1078ZM1406 1150Q1436 1150 1457.0 1129.0Q1478 1108 1478 1078V1006Q1478 977 1456.5 956.0Q1435 935 1406 935Q1377 935 1355.5 956.0Q1334 977 1334 1006V1078Q1334 1108 1355.0 1129.0Q1376 1150 1406 1150ZM1190 647Q1160 647 1134.0 658.5Q1108 670 1088.5 689.5Q1069 709 1058.0 735.0Q1047 761 1047 791H1334Q1334 761 1322.5 734.5Q1311 708 1291.5 688.5Q1272 669 1246.0 658.0Q1220 647 1190 647Z" style="fill:#000000;stroke:none" transform="scale(1,-1) translate(0,-256)" /></svg>