<?xml version="1.0" encoding="utf-8" ?>
<svg baseProfile="full" height="256" version="1.1" width="256" xmlns="http://www.w3.org/2000/svg" xmlns:ev="http://www.w3.org/2001/xml-events" xmlns:xlink="http://www.w3.org/1999/xlink"><defs /><path d="M1406 1294Q1290 1294 1185.0 1335.5Q1080 1377 997 1458L891 1563L993 1665L1009 1649Q1054 1604 1095.5 1565.5Q1137 1527 1182.5 1498.5Q1228 1470 1282.0 1454.0Q1336 1438 1406 1438Q1476 1438 1530.0 1454.5Q1584 1471 1630.5 1499.5Q1677 1528 1719.0 1567.5Q1761 1607 1806 1652L1819 1665L1921 1563L1815 1458Q1732 1377 1627.0 1335.5Q1522 1294 1406 1294ZM561 204 460 306 476 322Q521 367 559.5 408.5Q598 450 626.5 495.5Q655 541 671.0 595.0Q687 649 687 719Q687 789 670.5 843.0Q654 897 625.5 943.5Q597 990 557.5 1032.0Q518 1074 473 1119L460 1132L561 1234L667 1128Q707 1087 737.5 1039.5Q768 992 789.0 939.5Q810 887 820.5 831.5Q831 776 831 719Q831 601 789.5 498.0Q748 395 667 310Q641 283 614.0 256.5Q587 230 561 204ZM2250 204 2145 310Q2064 393 2022.5 498.0Q1981 603 1981 719Q1981 776 1991.5 831.5Q2002 887 2023.0 939.5Q2044 992 2074.5 1039.5Q2105 1087 2145 1128L2250 1234L2352 1132L2339 1119Q2294 1074 2254.5 1032.0Q2215 990 2186.5 943.5Q2158 897 2141.5 843.0Q2125 789 2125 719Q2125 649 2141.0 595.0Q2157 541 2185.5 495.5Q2214 450 2252.5 408.5Q2291 367 2336 322L2352 306ZM1819 -227 1806 -214Q1761 -169 1719.0 -129.5Q1677 -90 1630.5 -61.5Q1584 -33 1530.0 -16.5Q1476 0 1406 0Q1336 0 1282.0 -16.0Q1228 -32 1182.5 -60.5Q1137 -89 1095.5 -127.5Q1054 -166 1009 -211L993 -227L891 -126L997 -20Q1037 20 1085.0 50.5Q1133 81 1185.5 102.0Q1238 123 1293.5 133.5Q1349 144 1406 144Q1523 144 1626.5 102.0Q1730 60 1815 -20Q1842 -46 1868.5 -73.0Q1895 -100 1921 -126Z" style="fill:#e81224;stroke:none" transform="scale(1,-1) translate(0,-256)" /></svg>