<?xml version="1.0" encoding="utf-8" ?>
<svg baseProfile="full" height="256" version="1.1" width="256" xmlns="http://www.w3.org/2000/svg" xmlns:ev="http://www.w3.org/2001/xml-events" xmlns:xlink="http://www.w3.org/1999/xlink"><defs /><path d="M1819 -431Q1768 -380 1717.5 -328.0Q1667 -276 1614 -226Q1569 -184 1518.5 -164.0Q1468 -144 1406 -144Q1344 -144 1293.5 -164.0Q1243 -184 1198 -226Q1145 -276 1094.5 -328.0Q1044 -380 993 -431L688 -126L895 82Q945 132 1004.5 170.5Q1064 209 1130.0 235.0Q1196 261 1266.0 274.5Q1336 288 1406 288Q1476 288 1546.5 274.5Q1617 261 1683.0 234.5Q1749 208 1808.5 169.5Q1868 131 1918 81L2124 -126ZM561 1 256 306Q307 357 359.0 407.5Q411 458 461 511Q503 556 523.0 606.5Q543 657 543 719Q543 781 523.0 831.5Q503 882 461 927Q411 980 359.0 1030.5Q307 1081 256 1132L561 1437L769 1229Q819 1179 857.5 1119.5Q896 1060 922.0 994.5Q948 929 961.5 859.0Q975 789 975 719Q975 648 961.5 578.5Q948 509 921.5 443.0Q895 377 856.5 317.0Q818 257 768 207ZM1406 1150Q1335 1150 1265.0 1163.5Q1195 1177 1129.5 1203.0Q1064 1229 1004.0 1268.0Q944 1307 894 1357L688 1563L993 1868L1198 1664Q1240 1623 1294.0 1602.0Q1348 1581 1406 1581Q1464 1581 1518.0 1602.0Q1572 1623 1614 1664L1819 1868L2124 1563Q2070 1511 2019.0 1458.5Q1968 1406 1915 1354Q1813 1254 1681.0 1202.0Q1549 1150 1406 1150ZM2250 1 2043 208Q1993 258 1954.5 318.0Q1916 378 1890.0 443.5Q1864 509 1850.5 578.5Q1837 648 1837 719Q1837 789 1850.5 859.0Q1864 929 1890.0 995.0Q1916 1061 1955.0 1121.0Q1994 1181 2044 1231L2250 1437L2555 1132L2351 927Q2310 885 2289.0 831.0Q2268 777 2268 719Q2268 661 2289.0 607.0Q2310 553 2351 511L2555 306Z" style="fill:#000000;stroke:none" transform="scale(1,-1) translate(0,-256)" /></svg>