<?xml version="1.0" encoding="utf-8" ?>
<svg baseProfile="full" height="256" version="1.1" width="256" xmlns="http://www.w3.org/2000/svg" xmlns:ev="http://www.w3.org/2001/xml-events" xmlns:xlink="http://www.w3.org/1999/xlink"><defs /><path d="M1478 291Q1579 300 1672.0 333.5Q1765 367 1845.0 420.5Q1925 474 1990.0 545.5Q2055 617 2101.0 701.5Q2147 786 2172.0 881.0Q2197 976 2197 1078H2340Q2340 956 2310.0 842.5Q2280 729 2224.5 628.5Q2169 528 2091.0 444.0Q2013 360 1917.5 297.0Q1822 234 1710.5 195.5Q1599 157 1478 148V0Q1508 0 1534.0 -11.5Q1560 -23 1579.5 -42.5Q1599 -62 1610.5 -88.0Q1622 -114 1622 -144H1190Q1190 -114 1201.0 -88.0Q1212 -62 1231.5 -42.5Q1251 -23 1277.5 -11.5Q1304 0 1334 0V148Q1213 157 1102.0 195.5Q991 234 895.0 297.0Q799 360 721.0 444.5Q643 529 587.5 629.0Q532 729 502.0 843.0Q472 957 472 1078H615Q615 976 640.0 881.0Q665 786 711.0 701.5Q757 617 822.0 545.5Q887 474 967.0 420.5Q1047 367 1140.0 333.5Q1233 300 1334 291V363Q1196 376 1078.0 438.0Q960 500 873.0 596.0Q786 692 736.5 816.0Q687 940 687 1078H831Q831 970 869.5 872.5Q908 775 975.5 698.5Q1043 622 1135.0 572.0Q1227 522 1334 508V581Q1242 594 1163.0 638.5Q1084 683 1026.0 749.5Q968 816 935.5 900.5Q903 985 903 1078H1047Q1047 1014 1068.5 956.0Q1090 898 1128.0 851.0Q1166 804 1218.5 771.5Q1271 739 1334 726V801Q1287 813 1247.0 839.5Q1207 866 1178.5 902.5Q1150 939 1134.0 984.0Q1118 1029 1118 1078H1262Q1262 1040 1281.0 1007.0Q1300 974 1334 955V1222H1478V955Q1512 974 1531.0 1007.0Q1550 1040 1550 1078H1693Q1693 1029 1677.0 984.0Q1661 939 1632.5 902.5Q1604 866 1564.5 839.5Q1525 813 1478 801V726Q1541 739 1593.5 771.5Q1646 804 1684.0 851.0Q1722 898 1743.5 956.0Q1765 1014 1765 1078H1909Q1909 985 1876.0 900.5Q1843 816 1785.5 749.5Q1728 683 1649.0 638.5Q1570 594 1478 581V508Q1585 522 1677.0 572.0Q1769 622 1836.5 698.5Q1904 775 1942.5 872.5Q1981 970 1981 1078H2125Q2125 940 2075.5 816.0Q2026 692 1939.0 596.0Q1852 500 1734.0 438.0Q1616 376 1478 363ZM1406 1294Q1376 1294 1355.0 1315.0Q1334 1336 1334 1366Q1334 1409 1354.0 1446.0Q1374 1483 1406 1510Q1438 1483 1458.0 1446.0Q1478 1409 1478 1366Q1478 1336 1457.0 1315.0Q1436 1294 1406 1294ZM2053 1150Q2023 1150 2002.0 1171.0Q1981 1192 1981 1222Q1981 1265 2001.0 1302.0Q2021 1339 2053 1366Q2085 1339 2105.0 1302.0Q2125 1265 2125 1222Q2125 1192 2104.0 1171.0Q2083 1150 2053 1150ZM759 1150Q729 1150 708.0 1171.0Q687 1192 687 1222Q687 1265 707.0 1302.0Q727 1339 759 1366Q791 1339 811.0 1302.0Q831 1265 831 1222Q831 1192 810.0 1171.0Q789 1150 759 1150ZM1190 1150Q1161 1150 1139.5 1171.5Q1118 1193 1118 1222Q1118 1265 1138.0 1302.0Q1158 1339 1190 1366Q1222 1339 1242.0 1302.0Q1262 1265 1262 1222Q1262 1192 1241.0 1171.0Q1220 1150 1190 1150ZM975 1150Q945 1150 924.0 1171.0Q903 1192 903 1222Q903 1265 923.0 1302.0Q943 1339 975 1366Q1007 1339 1027.0 1302.0Q1047 1265 1047 1222Q1047 1193 1025.5 1171.5Q1004 1150 975 1150ZM1837 1150Q1808 1150 1786.5 1171.5Q1765 1193 1765 1222Q1765 1265 1785.0 1302.0Q1805 1339 1837 1366Q1869 1339 1889.0 1302.0Q1909 1265 1909 1222Q1909 1192 1888.0 1171.0Q1867 1150 1837 1150ZM1622 1150Q1592 1150 1571.0 1171.0Q1550 1192 1550 1222Q1550 1265 1570.0 1302.0Q1590 1339 1622 1366Q1654 1339 1673.5 1302.0Q1693 1265 1693 1222Q1693 1193 1672.0 1171.5Q1651 1150 1622 1150ZM2268 1150Q2239 1150 2218.0 1171.5Q2197 1193 2197 1222Q2197 1265 2216.5 1302.0Q2236 1339 2268 1366Q2300 1339 2320.0 1302.0Q2340 1265 2340 1222Q2340 1192 2319.0 1171.0Q2298 1150 2268 1150ZM543 1150Q514 1150 493.0 1171.5Q472 1193 472 1222Q472 1265 491.5 1302.0Q511 1339 543 1366Q575 1339 595.0 1302.0Q615 1265 615 1222Q615 1192 594.0 1171.0Q573 1150 543 1150Z" style="fill:#f2f2f2;stroke:none" transform="scale(1,-1) translate(0,-256)" /></svg>