<?xml version="1.0" encoding="utf-8" ?>
<svg baseProfile="full" height="256" version="1.1" width="256" xmlns="http://www.w3.org/2000/svg" xmlns:ev="http://www.w3.org/2001/xml-events" xmlns:xlink="http://www.w3.org/1999/xlink"><defs /><path d="M1118 1438Q1148 1438 1169.0 1417.0Q1190 1396 1190 1366Q1190 1336 1169.0 1315.0Q1148 1294 1118 1294Q1003 1294 911.0 1249.5Q819 1205 741 1124Q718 1099 687 1099Q657 1099 636.0 1120.5Q615 1142 615 1171Q615 1196 633 1219Q676 1271 732.0 1311.5Q788 1352 852.0 1380.0Q916 1408 984.0 1423.0Q1052 1438 1118 1438ZM2125 1006Q2096 1006 2074.5 1027.5Q2053 1049 2053 1078Q2053 1123 2036.0 1162.0Q2019 1201 1989.5 1230.5Q1960 1260 1921.0 1277.0Q1882 1294 1837 1294Q1807 1294 1786.0 1315.0Q1765 1336 1765 1366Q1765 1396 1786.0 1417.0Q1807 1438 1837 1438Q1911 1438 1976.5 1409.5Q2042 1381 2091.0 1332.0Q2140 1283 2168.5 1217.5Q2197 1152 2197 1078Q2197 1049 2175.5 1027.5Q2154 1006 2125 1006Z" style="fill:#d48c00;stroke:none" transform="scale(1,-1) translate(0,-256)" /></svg>