<?xml version="1.0" encoding="utf-8" ?>
<svg baseProfile="full" height="256" version="1.1" width="256" xmlns="http://www.w3.org/2000/svg" xmlns:ev="http://www.w3.org/2001/xml-events" xmlns:xlink="http://www.w3.org/1999/xlink"><defs /><path d="M1550 144H1693V-72H1550Q1550 -93 1533.5 -106.5Q1517 -120 1493.5 -128.5Q1470 -137 1445.5 -140.5Q1421 -144 1406 -144Q1390 -144 1365.5 -141.0Q1341 -138 1318.0 -129.5Q1295 -121 1278.5 -107.0Q1262 -93 1262 -72H1118V144H1262V228Q1264 208 1281.0 195.0Q1298 182 1320.5 174.0Q1343 166 1366.5 163.0Q1390 160 1406 160Q1422 160 1445.5 163.0Q1469 166 1491.5 174.0Q1514 182 1531.0 195.0Q1548 208 1550 228Z" style="fill:#0063b1;stroke:none" transform="scale(1,-1) translate(0,-256)" /></svg>