<?xml version="1.0" encoding="utf-8" ?>
<svg baseProfile="full" height="256" version="1.1" width="256" xmlns="http://www.w3.org/2000/svg" xmlns:ev="http://www.w3.org/2001/xml-events" xmlns:xlink="http://www.w3.org/1999/xlink"><defs /><path d="M1406 807Q1460 861 1512.5 916.5Q1565 972 1622 1023Q1669 1065 1717.5 1104.5Q1766 1144 1814 1185L2197 1510L2340 1366V0H1478Q1449 0 1428.5 -19.0Q1408 -38 1406 -66Q1404 -38 1383.5 -19.0Q1363 0 1334 0H472V1366L615 1510L998 1185Q1046 1144 1094.5 1104.5Q1143 1065 1190 1023Q1247 972 1299.5 916.5Q1352 861 1406 807Z" style="fill:#cccccc;stroke:none" transform="scale(1,-1) translate(0,-256)" /></svg>