<?xml version="1.0" encoding="utf-8" ?>
<svg baseProfile="full" height="256" version="1.1" width="256" xmlns="http://www.w3.org/2000/svg" xmlns:ev="http://www.w3.org/2001/xml-events" xmlns:xlink="http://www.w3.org/1999/xlink"><defs /><path d="M1406 1294Q1406 1339 1423.0 1378.0Q1440 1417 1469.5 1446.5Q1499 1476 1538.0 1493.0Q1577 1510 1622 1510H2197V144Q2066 145 1937.0 145.5Q1808 146 1677 146Q1628 146 1581.0 136.0Q1534 126 1496.5 102.5Q1459 79 1434.5 41.0Q1410 3 1406 -53V-21Q1406 -13 1400.5 3.5Q1395 20 1387.0 40.5Q1379 61 1369.5 83.5Q1360 106 1352.0 126.5Q1344 147 1338.5 163.0Q1333 179 1333 187V1294Z" style="fill:#ffffff;stroke:none" transform="scale(1,-1) translate(0,-256)" /></svg>