<?xml version="1.0" encoding="utf-8" ?>
<svg baseProfile="full" height="256" version="1.1" width="256" xmlns="http://www.w3.org/2000/svg" xmlns:ev="http://www.w3.org/2001/xml-events" xmlns:xlink="http://www.w3.org/1999/xlink"><defs /><path d="M1665 1006Q1722 972 1767.0 925.5Q1812 879 1843.5 823.0Q1875 767 1892.0 704.0Q1909 641 1909 575Q1909 471 1869.5 379.5Q1830 288 1761.5 219.5Q1693 151 1601.5 111.5Q1510 72 1406 72Q1302 72 1210.5 111.5Q1119 151 1050.5 219.5Q982 288 942.5 379.5Q903 471 903 575Q903 641 920.0 704.0Q937 767 968.5 823.0Q1000 879 1045.0 925.5Q1090 972 1147 1006Q1090 1040 1045.0 1087.0Q1000 1134 968.5 1190.0Q937 1246 920.0 1309.0Q903 1372 903 1438H1047Q1047 1364 1075.0 1298.5Q1103 1233 1152.0 1184.0Q1201 1135 1266.5 1106.5Q1332 1078 1406 1078Q1480 1078 1545.5 1106.5Q1611 1135 1659.5 1184.0Q1708 1233 1736.5 1298.5Q1765 1364 1765 1438H1909Q1909 1372 1892.0 1309.0Q1875 1246 1843.5 1190.0Q1812 1134 1767.0 1087.0Q1722 1040 1665 1006ZM1406 216Q1480 216 1545.5 244.5Q1611 273 1659.5 321.5Q1708 370 1736.5 435.5Q1765 501 1765 575Q1765 649 1736.5 714.5Q1708 780 1659.5 829.0Q1611 878 1545.5 906.5Q1480 935 1406 935Q1332 935 1266.5 906.5Q1201 878 1152.5 829.0Q1104 780 1075.5 714.5Q1047 649 1047 575Q1047 501 1075.0 435.5Q1103 370 1152.0 321.0Q1201 272 1266.5 244.0Q1332 216 1406 216Z" style="fill:#ffffff;stroke:none" transform="scale(1,-1) translate(0,-256)" /></svg>