<?xml version="1.0" encoding="utf-8" ?>
<svg baseProfile="full" height="256" version="1.1" width="256" xmlns="http://www.w3.org/2000/svg" xmlns:ev="http://www.w3.org/2001/xml-events" xmlns:xlink="http://www.w3.org/1999/xlink"><defs /><path d="M1083 1294Q1068 1294 1057.5 1304.5Q1047 1315 1047 1330Q1047 1360 1036.5 1382.5Q1026 1405 1010.0 1423.5Q994 1442 975.0 1459.5Q956 1477 940.0 1499.0Q924 1521 913.5 1549.0Q903 1577 903 1617Q903 1632 913.5 1642.5Q924 1653 939 1653Q954 1653 964.5 1642.5Q975 1632 975 1617Q975 1587 985.5 1565.0Q996 1543 1012.0 1524.5Q1028 1506 1046.5 1488.0Q1065 1470 1081.0 1448.0Q1097 1426 1107.5 1397.5Q1118 1369 1118 1330Q1118 1316 1107.5 1305.0Q1097 1294 1083 1294ZM1442 1294Q1427 1294 1416.5 1304.5Q1406 1315 1406 1330Q1406 1360 1395.5 1382.5Q1385 1405 1369.0 1423.5Q1353 1442 1334.0 1459.5Q1315 1477 1299.0 1499.0Q1283 1521 1272.5 1549.0Q1262 1577 1262 1617Q1262 1632 1272.5 1642.5Q1283 1653 1298 1653Q1313 1653 1323.5 1642.5Q1334 1632 1334 1617Q1334 1587 1344.5 1565.0Q1355 1543 1371.0 1524.5Q1387 1506 1406.0 1488.0Q1425 1470 1441.0 1448.0Q1457 1426 1467.5 1398.0Q1478 1370 1478 1330Q1478 1315 1467.5 1304.5Q1457 1294 1442 1294ZM1801 1294Q1786 1294 1775.5 1304.5Q1765 1315 1765 1330Q1765 1360 1754.5 1382.0Q1744 1404 1728.0 1422.5Q1712 1441 1693.5 1459.0Q1675 1477 1659.0 1499.0Q1643 1521 1632.5 1549.0Q1622 1577 1622 1617Q1622 1632 1632.5 1642.5Q1643 1653 1658 1653Q1672 1653 1682.5 1642.0Q1693 1631 1693 1617Q1693 1587 1703.5 1565.0Q1714 1543 1730.0 1524.5Q1746 1506 1765.0 1488.0Q1784 1470 1800.0 1448.0Q1816 1426 1826.5 1398.0Q1837 1370 1837 1330Q1837 1315 1826.5 1304.5Q1816 1294 1801 1294Z" style="fill:#ffffff;stroke:none" transform="scale(1,-1) translate(0,-256)" /></svg>