<?xml version="1.0" encoding="utf-8" ?>
<svg baseProfile="full" height="256" version="1.1" width="256" xmlns="http://www.w3.org/2000/svg" xmlns:ev="http://www.w3.org/2001/xml-events" xmlns:xlink="http://www.w3.org/1999/xlink"><defs /><path d="M1406 1186Q1461 1186 1529.5 1179.5Q1598 1173 1667.0 1158.5Q1736 1144 1799.0 1120.0Q1862 1096 1907 1060Q1918 1051 1931.5 1036.5Q1945 1022 1945 1006Q1945 1001 1943.0 996.5Q1941 992 1939 987Q1885 952 1818.5 928.5Q1752 905 1681.5 890.5Q1611 876 1540.0 869.5Q1469 863 1406 863Q1343 863 1272.0 869.5Q1201 876 1130.5 890.5Q1060 905 993.5 928.5Q927 952 873 987Q871 992 869.0 996.5Q867 1001 867 1006Q867 1022 880.5 1036.5Q894 1051 905 1060Q950 1096 1013.0 1120.0Q1076 1144 1145.0 1158.5Q1214 1173 1282.5 1179.5Q1351 1186 1406 1186Z" style="fill:#8e562e;stroke:none" transform="scale(1,-1) translate(0,-256)" /></svg>