<?xml version="1.0" encoding="utf-8" ?>
<svg baseProfile="full" height="256" version="1.1" width="256" xmlns="http://www.w3.org/2000/svg" xmlns:ev="http://www.w3.org/2001/xml-events" xmlns:xlink="http://www.w3.org/1999/xlink"><defs /><path d="M400 360Q400 426 429.0 483.0Q458 540 506.0 586.5Q554 633 616.0 671.0Q678 709 743.5 737.5Q809 766 873.0 786.0Q937 806 990 818Q1093 841 1196.5 852.0Q1300 863 1406 863Q1512 863 1615.5 852.0Q1719 841 1822 818Q1874 806 1938.5 786.0Q2003 766 2068.5 737.5Q2134 709 2196.0 671.0Q2258 633 2306.0 586.5Q2354 540 2383.0 483.0Q2412 426 2412 360Q2412 291 2381.5 233.5Q2351 176 2301.0 128.0Q2251 80 2186.0 42.0Q2121 4 2053.0 -25.0Q1985 -54 1918.5 -74.0Q1852 -94 1798 -105Q1701 -125 1603.0 -134.5Q1505 -144 1406 -144Q1307 -144 1209.0 -134.5Q1111 -125 1014 -105Q960 -94 893.5 -74.0Q827 -54 759.0 -25.0Q691 4 626.0 42.0Q561 80 511.0 128.0Q461 176 430.5 234.0Q400 292 400 360Z" style="fill:#e5e5e5;stroke:none" transform="scale(1,-1) translate(0,-256)" /></svg>