<?xml version="1.0" encoding="utf-8" ?>
<svg baseProfile="full" height="256" version="1.1" width="256" xmlns="http://www.w3.org/2000/svg" xmlns:ev="http://www.w3.org/2001/xml-events" xmlns:xlink="http://www.w3.org/1999/xlink"><defs /><path d="M2396 698Q2473 624 2514.5 539.0Q2556 454 2556 346V288Q2556 202 2525.0 129.5Q2494 57 2442.0 -3.5Q2390 -64 2321.5 -112.5Q2253 -161 2177.5 -198.5Q2102 -236 2024.0 -263.0Q1946 -290 1875 -307Q1760 -334 1642.5 -346.5Q1525 -359 1406 -359Q1287 -359 1169.5 -346.5Q1052 -334 936 -306Q865 -289 787.5 -262.5Q710 -236 634.5 -198.5Q559 -161 490.5 -112.5Q422 -64 370.0 -3.5Q318 57 287.0 130.0Q256 203 256 288V360Q256 434 280.0 498.5Q304 563 345.0 618.5Q386 674 440.0 720.0Q494 766 554 802Q549 835 546.0 868.0Q543 901 543 935V1150Q543 1208 562.0 1259.5Q581 1311 613.0 1355.5Q645 1400 687.5 1436.5Q730 1473 778 1502Q769 1530 764.0 1559.0Q759 1588 759 1617Q759 1654 773.0 1687.0Q787 1720 811.5 1744.5Q836 1769 869.0 1783.0Q902 1797 939 1797Q975 1797 1007.0 1784.0Q1039 1771 1063.0 1748.0Q1087 1725 1101.5 1694.0Q1116 1663 1118 1627Q1120 1663 1135.0 1694.0Q1150 1725 1174.0 1748.0Q1198 1771 1230.0 1784.0Q1262 1797 1298 1797Q1330 1797 1359.5 1786.0Q1389 1775 1412.5 1756.0Q1436 1737 1452.5 1710.0Q1469 1683 1475 1652H1481Q1487 1683 1503.5 1710.0Q1520 1737 1543.5 1756.0Q1567 1775 1596.5 1786.0Q1626 1797 1658 1797Q1695 1797 1727.5 1783.0Q1760 1769 1784.5 1744.5Q1809 1720 1823.0 1687.5Q1837 1655 1837 1618Q1849 1606 1862.0 1595.5Q1875 1585 1886 1572Q1928 1556 1970.5 1535.5Q2013 1515 2052.5 1489.5Q2092 1464 2127.5 1433.0Q2163 1402 2191 1366Q2267 1366 2333.5 1338.5Q2400 1311 2449.5 1262.0Q2499 1213 2527.5 1147.0Q2556 1081 2556 1005Q2556 952 2544.5 910.5Q2533 869 2512.0 833.5Q2491 798 2461.5 765.0Q2432 732 2396 698Z" style="fill:#000000;stroke:none" transform="scale(1,-1) translate(0,-256)" /></svg>