<?xml version="1.0" encoding="utf-8" ?>
<svg baseProfile="full" height="256" version="1.1" width="256" xmlns="http://www.w3.org/2000/svg" xmlns:ev="http://www.w3.org/2001/xml-events" xmlns:xlink="http://www.w3.org/1999/xlink"><defs /><path d="M2197 1222Q2242 1222 2281.0 1205.0Q2320 1188 2349.0 1158.5Q2378 1129 2395.0 1090.0Q2412 1051 2412 1006Q2412 919 2349 854Q2292 796 2234.5 740.0Q2177 684 2114 634L2019 560Q1970 480 1903.5 416.0Q1837 352 1757.5 307.5Q1678 263 1589.0 239.5Q1500 216 1406 216Q1307 216 1215.0 241.5Q1123 267 1043.0 314.0Q963 361 897.5 426.5Q832 492 785.0 572.0Q738 652 712.5 744.0Q687 836 687 935V1150Q687 1200 709.5 1241.5Q732 1283 768.5 1317.5Q805 1352 852.5 1379.5Q900 1407 949.5 1427.5Q999 1448 1047.5 1462.0Q1096 1476 1135 1484Q1202 1498 1269.5 1504.0Q1337 1510 1406 1510Q1472 1510 1538.0 1504.0Q1604 1498 1670 1485Q1708 1477 1752.0 1465.0Q1796 1453 1841.0 1436.0Q1886 1419 1930.0 1396.0Q1974 1373 2011.0 1345.0Q2048 1317 2075.5 1282.0Q2103 1247 2116 1206Q2154 1222 2197 1222ZM2031 1075Q2041 1092 2047.0 1111.0Q2053 1130 2053 1150Q2053 1191 2032.0 1225.0Q2011 1259 1976.5 1287.0Q1942 1315 1898.0 1336.5Q1854 1358 1809.5 1374.0Q1765 1390 1723.0 1400.0Q1681 1410 1650 1416Q1531 1438 1406 1438Q1282 1438 1162 1417Q1131 1411 1089.0 1400.5Q1047 1390 1002.5 1374.0Q958 1358 914.0 1336.5Q870 1315 835.5 1287.0Q801 1259 780.0 1225.0Q759 1191 759 1150Q759 1130 764.5 1112.0Q770 1094 780 1077ZM2087 704Q2116 727 2143.0 751.5Q2170 776 2196 802L2298 905Q2318 925 2329.0 951.0Q2340 977 2340 1006Q2340 1036 2328.5 1062.0Q2317 1088 2297.5 1107.5Q2278 1127 2252.0 1138.5Q2226 1150 2196 1150Q2160 1150 2125 1131Q2125 1094 2125.5 1060.0Q2126 1026 2126 993Q2126 920 2119.0 850.0Q2112 780 2087 704Z" style="fill:#f2f2f2;stroke:none" transform="scale(1,-1) translate(0,-256)" /></svg>