<?xml version="1.0" encoding="utf-8" ?>
<svg baseProfile="full" height="256" version="1.1" width="256" xmlns="http://www.w3.org/2000/svg" xmlns:ev="http://www.w3.org/2001/xml-events" xmlns:xlink="http://www.w3.org/1999/xlink"><defs /><path d="M1406 935Q1361 935 1310.5 939.0Q1260 943 1210.0 951.0Q1160 959 1112.0 972.5Q1064 986 1022 1006Q1063 1026 1111.5 1039.5Q1160 1053 1210.5 1061.5Q1261 1070 1311.0 1074.0Q1361 1078 1406 1078Q1451 1078 1501.0 1074.0Q1551 1070 1601.5 1061.5Q1652 1053 1700.0 1039.5Q1748 1026 1790 1006Q1748 986 1700.0 972.5Q1652 959 1602.0 951.0Q1552 943 1502.0 939.0Q1452 935 1406 935Z" style="fill:#bb9167;stroke:none" transform="scale(1,-1) translate(0,-256)" /></svg>