<?xml version="1.0" encoding="utf-8" ?>
<svg baseProfile="full" height="256" version="1.1" width="256" xmlns="http://www.w3.org/2000/svg" xmlns:ev="http://www.w3.org/2001/xml-events" xmlns:xlink="http://www.w3.org/1999/xlink"><defs /><path d="M1406 1294Q1450 1294 1506.5 1290.0Q1563 1286 1624.5 1276.0Q1686 1266 1747.5 1250.0Q1809 1234 1864.0 1210.0Q1919 1186 1963.0 1153.5Q2007 1121 2032 1078Q2032 1070 2020.0 1056.5Q2008 1043 1992.0 1029.0Q1976 1015 1961.0 1003.0Q1946 991 1939 987H873Q846 1004 821.5 1026.5Q797 1049 780 1077Q805 1120 849.0 1153.0Q893 1186 948.0 1210.0Q1003 1234 1064.5 1250.0Q1126 1266 1187.5 1276.0Q1249 1286 1305.5 1290.0Q1362 1294 1406 1294Z" style="fill:#613d30;stroke:none" transform="scale(1,-1) translate(0,-256)" /></svg>