<?xml version="1.0" encoding="utf-8" ?>
<svg baseProfile="full" height="256" version="1.1" width="256" xmlns="http://www.w3.org/2000/svg" xmlns:ev="http://www.w3.org/2001/xml-events" xmlns:xlink="http://www.w3.org/1999/xlink"><defs /><path d="M2412 288Q2412 219 2381.5 161.5Q2351 104 2300.5 56.0Q2250 8 2185.5 -29.5Q2121 -67 2053.0 -96.0Q1985 -125 1918.5 -144.5Q1852 -164 1798 -176Q1701 -196 1603.0 -205.5Q1505 -215 1406 -215Q1307 -215 1209.0 -205.5Q1111 -196 1014 -176Q960 -165 893.5 -145.0Q827 -125 759.0 -96.0Q691 -67 626.5 -29.5Q562 8 511.5 56.0Q461 104 430.5 162.0Q400 220 400 288V359H2412ZM774 1067Q763 1084 756.0 1107.0Q749 1130 749 1150Q749 1189 767.5 1222.0Q786 1255 815.0 1281.5Q844 1308 878.0 1328.5Q912 1349 944 1363Q995 1386 1053.0 1402.5Q1111 1419 1170.5 1429.0Q1230 1439 1290.0 1443.5Q1350 1448 1406 1448Q1461 1448 1521.0 1443.5Q1581 1439 1641.0 1429.0Q1701 1419 1759.0 1402.5Q1817 1386 1868 1363Q1899 1349 1933.5 1328.5Q1968 1308 1997.0 1281.5Q2026 1255 2044.5 1222.0Q2063 1189 2063 1150Q2063 1127 2056.0 1105.5Q2049 1084 2036 1065Z" style="fill:#a6a6a6;stroke:none" transform="scale(1,-1) translate(0,-256)" /></svg>