<?xml version="1.0" encoding="utf-8" ?>
<svg baseProfile="full" height="256" version="1.1" width="256" xmlns="http://www.w3.org/2000/svg" xmlns:ev="http://www.w3.org/2001/xml-events" xmlns:xlink="http://www.w3.org/1999/xlink"><defs /><path d="M2125 360Q2125 318 2101.0 284.0Q2077 250 2038.5 222.0Q2000 194 1951.5 172.5Q1903 151 1854.0 135.5Q1805 120 1760.5 110.0Q1716 100 1686 95Q1616 83 1546.5 77.5Q1477 72 1406 72Q1335 72 1265.5 77.5Q1196 83 1126 95Q1095 100 1051.0 110.0Q1007 120 958.0 135.5Q909 151 860.5 172.5Q812 194 773.5 222.0Q735 250 711.0 284.0Q687 318 687 360Q687 400 710.0 433.5Q733 467 770.0 494.5Q807 522 853.5 543.0Q900 564 947.0 579.5Q994 595 1036.5 605.5Q1079 616 1109 621Q1183 635 1257.0 641.0Q1331 647 1406 647Q1481 647 1555.0 641.0Q1629 635 1703 621Q1732 616 1775.0 605.5Q1818 595 1865.0 579.5Q1912 564 1958.5 543.0Q2005 522 2042.0 494.5Q2079 467 2102.0 433.5Q2125 400 2125 360Z" style="fill:#cccccc;stroke:none" transform="scale(1,-1) translate(0,-256)" /></svg>