<?xml version="1.0" encoding="utf-8" ?>
<svg baseProfile="full" height="256" version="1.1" width="256" xmlns="http://www.w3.org/2000/svg" xmlns:ev="http://www.w3.org/2001/xml-events" xmlns:xlink="http://www.w3.org/1999/xlink"><defs /><path d="M1688 1328Q1688 1305 1696.5 1285.5Q1705 1266 1720.0 1252.0Q1735 1238 1754.5 1230.0Q1774 1222 1796 1222H1845Q1873 1220 1898.0 1208.0Q1923 1196 1941.5 1176.5Q1960 1157 1970.5 1132.0Q1981 1107 1981 1078Q1981 1048 1969.5 1022.0Q1958 996 1938.5 976.5Q1919 957 1893.0 946.0Q1867 935 1837 935H1548Q1617 884 1655.0 808.5Q1693 733 1693 647V-144Q1693 -173 1672.0 -194.0Q1651 -215 1622 -215Q1593 -215 1571.5 -194.0Q1550 -173 1550 -144V216Q1550 240 1545.5 270.0Q1541 300 1532.0 330.5Q1523 361 1509.5 387.5Q1496 414 1478 431L1145 734Q1122 755 1093.5 766.5Q1065 778 1034.0 783.5Q1003 789 971.5 790.0Q940 791 911 791H903Q858 791 819.0 774.0Q780 757 750.5 727.5Q721 698 704.0 659.0Q687 620 687 575V72Q687 42 666.0 21.0Q645 0 615 0Q586 0 564.5 21.5Q543 43 543 72V863Q543 930 567.0 978.5Q591 1027 627.5 1062.5Q664 1098 706.0 1125.5Q748 1153 784.5 1178.5Q821 1204 845.0 1232.0Q869 1260 869 1297Q869 1332 852.0 1353.5Q835 1375 814.0 1395.5Q793 1416 776.0 1441.5Q759 1467 759 1509Q759 1539 770.0 1565.0Q781 1591 800.5 1610.5Q820 1630 846.5 1641.5Q873 1653 903 1653Q933 1653 958.0 1642.0Q983 1631 1005 1611Q1062 1558 1126.5 1523.0Q1191 1488 1271 1488Q1320 1488 1356.5 1500.0Q1393 1512 1422.0 1530.5Q1451 1549 1474.5 1570.5Q1498 1592 1520.5 1610.5Q1543 1629 1567.0 1641.0Q1591 1653 1621 1653Q1651 1653 1677.0 1641.5Q1703 1630 1722.5 1610.5Q1742 1591 1753.5 1565.0Q1765 1539 1765 1509Q1765 1473 1753.0 1451.5Q1741 1430 1726.5 1412.5Q1712 1395 1700.0 1376.5Q1688 1358 1688 1328Z" style="fill:#ca5010;stroke:none" transform="scale(1,-1) translate(0,-256)" /></svg>