<?xml version="1.0" encoding="utf-8" ?>
<svg baseProfile="full" height="256" version="1.1" width="256" xmlns="http://www.w3.org/2000/svg" xmlns:ev="http://www.w3.org/2001/xml-events" xmlns:xlink="http://www.w3.org/1999/xlink"><defs /><path d="M1478 1725Q1567 1725 1650.0 1702.0Q1733 1679 1804.5 1636.5Q1876 1594 1935.0 1535.0Q1994 1476 2036.5 1404.5Q2079 1333 2102.0 1250.0Q2125 1167 2125 1078V503Q2125 362 2079.5 234.0Q2034 106 1949.5 9.5Q1865 -87 1745.5 -144.0Q1626 -201 1478 -201H1047Q895 -201 775.0 -145.5Q655 -90 571.5 6.0Q488 102 444.0 230.0Q400 358 400 503V1078Q400 1167 423.0 1250.0Q446 1333 488.0 1405.0Q530 1477 589.0 1536.0Q648 1595 720.0 1637.0Q792 1679 874.5 1702.0Q957 1725 1047 1725Z" style="fill:#eba300;stroke:none" transform="scale(1,-1) translate(0,-256)" /></svg>