<?xml version="1.0" encoding="utf-8" ?>
<svg baseProfile="full" height="256" version="1.1" width="256" xmlns="http://www.w3.org/2000/svg" xmlns:ev="http://www.w3.org/2001/xml-events" xmlns:xlink="http://www.w3.org/1999/xlink"><defs /><path d="M1047 -431Q938 -431 837.0 -402.5Q736 -374 648.0 -322.5Q560 -271 488.0 -199.0Q416 -127 364.5 -39.0Q313 49 284.5 150.0Q256 251 256 360V1078Q256 1187 284.5 1288.0Q313 1389 364.5 1477.0Q416 1565 488.0 1637.0Q560 1709 648.0 1760.5Q736 1812 837.0 1840.5Q938 1869 1047 1869H1478Q1587 1869 1688.0 1840.5Q1789 1812 1876.5 1760.5Q1964 1709 2036.5 1637.0Q2109 1565 2160.5 1477.0Q2212 1389 2240.0 1288.0Q2268 1187 2268 1078V360Q2268 251 2240.0 150.0Q2212 49 2160.5 -39.0Q2109 -127 2036.5 -199.0Q1964 -271 1876.5 -322.5Q1789 -374 1688.0 -402.5Q1587 -431 1478 -431Z" style="fill:#000000;stroke:none" transform="scale(1,-1) translate(0,-256)" /></svg>