<?xml version="1.0" encoding="utf-8" ?>
<svg baseProfile="full" height="256" version="1.1" width="256" xmlns="http://www.w3.org/2000/svg" xmlns:ev="http://www.w3.org/2001/xml-events" xmlns:xlink="http://www.w3.org/1999/xlink"><defs /><path d="M1478 144Q1567 144 1650.0 167.0Q1733 190 1804.5 232.5Q1876 275 1935.0 334.0Q1994 393 2036.5 464.5Q2079 536 2102.0 619.0Q2125 702 2125 791V647Q2125 558 2102.0 475.0Q2079 392 2036.5 320.5Q1994 249 1935.0 190.0Q1876 131 1804.5 88.5Q1733 46 1650.0 23.0Q1567 0 1478 0H1047Q958 0 875.0 23.0Q792 46 720.5 88.5Q649 131 590.0 190.0Q531 249 488.5 320.5Q446 392 423.0 475.0Q400 558 400 647V791Q400 702 423.0 619.0Q446 536 488.5 464.5Q531 393 590.0 334.0Q649 275 720.5 232.5Q792 190 875.0 167.0Q958 144 1047 144ZM1478 431Q1567 431 1650.0 454.0Q1733 477 1804.5 519.5Q1876 562 1935.0 621.0Q1994 680 2036.5 751.5Q2079 823 2102.0 906.0Q2125 989 2125 1078V935Q2125 846 2102.0 763.0Q2079 680 2036.5 608.5Q1994 537 1935.0 478.0Q1876 419 1804.5 376.5Q1733 334 1650.0 311.0Q1567 288 1478 288H1047Q912 288 794.5 338.5Q677 389 589.0 477.0Q501 565 450.5 682.5Q400 800 400 935V1078Q400 989 423.0 906.0Q446 823 488.5 751.5Q531 680 590.0 621.0Q649 562 720.5 519.5Q792 477 875.0 454.0Q958 431 1047 431ZM1478 -144Q1567 -144 1650.0 -121.0Q1733 -98 1804.5 -55.5Q1876 -13 1935.0 46.0Q1994 105 2036.5 176.5Q2079 248 2102.0 331.0Q2125 414 2125 503V360Q2125 271 2102.0 188.0Q2079 105 2036.5 33.5Q1994 -38 1935.0 -97.0Q1876 -156 1804.5 -198.5Q1733 -241 1650.0 -264.0Q1567 -287 1478 -287H1047Q957 -287 874.5 -264.0Q792 -241 720.0 -199.0Q648 -157 589.0 -98.0Q530 -39 488.0 33.0Q446 105 423.0 188.0Q400 271 400 360V503Q400 414 423.0 331.0Q446 248 488.5 176.5Q531 105 590.0 46.0Q649 -13 720.5 -55.5Q792 -98 875.0 -121.0Q958 -144 1047 -144Z" style="fill:#faec6e;stroke:none" transform="scale(1,-1) translate(0,-256)" /></svg>