<?xml version="1.0" encoding="utf-8" ?>
<svg baseProfile="full" height="256" version="1.1" width="256" xmlns="http://www.w3.org/2000/svg" xmlns:ev="http://www.w3.org/2001/xml-events" xmlns:xlink="http://www.w3.org/1999/xlink"><defs /><path d="M400 647Q400 722 428.0 787.0Q456 852 505.0 901.0Q554 950 619.0 978.0Q684 1006 759 1006Q837 1006 906.5 1024.0Q976 1042 1038.0 1075.0Q1100 1108 1156.0 1154.5Q1212 1201 1262 1258Q1312 1315 1367.5 1361.5Q1423 1408 1485.5 1441.0Q1548 1474 1617.5 1492.0Q1687 1510 1765 1510Q1854 1510 1937.0 1487.0Q2020 1464 2091.5 1421.5Q2163 1379 2222.0 1320.0Q2281 1261 2323.5 1189.5Q2366 1118 2389.0 1035.0Q2412 952 2412 863Q2412 773 2389.0 690.5Q2366 608 2324.0 536.0Q2282 464 2223.0 405.0Q2164 346 2092.0 304.0Q2020 262 1937.0 239.0Q1854 216 1765 216H831Q742 216 663.5 250.0Q585 284 526.5 342.5Q468 401 434.0 479.5Q400 558 400 647Z" style="fill:#f7d7c4;stroke:none" transform="scale(1,-1) translate(0,-256)" /></svg>