<?xml version="1.0" encoding="utf-8" ?>
<svg baseProfile="full" height="256" version="1.1" width="256" xmlns="http://www.w3.org/2000/svg" xmlns:ev="http://www.w3.org/2001/xml-events" xmlns:xlink="http://www.w3.org/1999/xlink"><defs /><path d="M2053 719Q1996 719 1954 758Q1925 707 1874.5 677.0Q1824 647 1765 647Q1720 647 1681.0 664.0Q1642 681 1613.0 710.5Q1584 740 1567.0 779.0Q1550 818 1550 863Q1550 922 1580.0 972.5Q1610 1023 1661 1051Q1622 1093 1622 1150H1693Q1693 1121 1714.5 1099.5Q1736 1078 1765 1078Q1810 1078 1849.0 1061.0Q1888 1044 1917.5 1015.0Q1947 986 1964.0 947.0Q1981 908 1981 863Q1981 833 2002.0 812.0Q2023 791 2053 791Z" style="fill:#f2f2f2;stroke:none" transform="scale(1,-1) translate(0,-256)" /></svg>