<?xml version="1.0" encoding="utf-8" ?>
<svg baseProfile="full" height="256" version="1.1" width="256" xmlns="http://www.w3.org/2000/svg" xmlns:ev="http://www.w3.org/2001/xml-events" xmlns:xlink="http://www.w3.org/1999/xlink"><defs /><path d="M1459 573Q1467 565 1472.0 558.0Q1477 551 1477 539Q1477 525 1466.5 514.0Q1456 503 1442 503Q1431 503 1424.0 508.0Q1417 513 1409 521L1406 524L1313 431Q1323 422 1328.5 415.0Q1334 408 1334 395Q1334 381 1323.5 370.0Q1313 359 1298 359Q1285 359 1277.5 366.0Q1270 373 1262 381L1259 377Q1252 369 1245.0 364.0Q1238 359 1226 359Q1212 359 1201.0 370.0Q1190 381 1190 395Q1190 406 1195.0 413.0Q1200 420 1208 428L1211 431L1118 524L1026 431Q1035 422 1040.5 414.5Q1046 407 1046 395Q1046 381 1035.5 370.0Q1025 359 1010 359Q997 359 990.0 365.5Q983 372 975 381Q967 373 959.5 366.0Q952 359 938 359Q924 359 913.0 370.0Q902 381 902 395Q902 407 907.0 414.0Q912 421 920 428L924 431L831 524Q823 516 815.0 509.5Q807 503 795 503Q780 503 769.5 514.0Q759 525 759 539Q759 550 764.0 557.0Q769 564 777 572L780 575Q772 584 765.5 591.5Q759 599 759 611Q759 626 769.5 636.5Q780 647 795 647Q806 647 813.0 642.0Q820 637 828 629L831 626L924 719Q914 728 908.0 735.5Q902 743 902 755Q902 769 913.0 779.5Q924 790 938 790Q951 790 958.5 784.0Q966 778 975 770L1068 863Q1059 871 1052.5 878.0Q1046 885 1046 898Q1046 913 1057.0 923.5Q1068 934 1082 934Q1094 934 1101.0 929.0Q1108 924 1116 916Q1127 922 1134.5 928.0Q1142 934 1154 934Q1169 934 1179.5 923.5Q1190 913 1190 898Q1190 886 1184.5 879.5Q1179 873 1171 865L1262 770Q1271 778 1278.5 784.0Q1286 790 1298 790Q1313 790 1323.5 779.5Q1334 769 1334 755Q1334 742 1328.0 734.5Q1322 727 1313 719L1406 626Q1414 635 1421.5 641.0Q1429 647 1442 647Q1456 647 1466.5 636.5Q1477 626 1477 611Q1477 599 1471.0 591.5Q1465 584 1459 573ZM1355 575 1262 668 1169 575 1262 482ZM1068 575 975 668 882 575 975 482ZM1026 719 1118 626 1211 719 1118 812Z" style="fill:#af0d1a;stroke:none" transform="scale(1,-1) translate(0,-256)" /></svg>