<?xml version="1.0" encoding="utf-8" ?>
<svg baseProfile="full" height="256" version="1.1" width="256" xmlns="http://www.w3.org/2000/svg" xmlns:ev="http://www.w3.org/2001/xml-events" xmlns:xlink="http://www.w3.org/1999/xlink"><defs /><path d="M1909 863Q1909 833 1897.5 806.5Q1886 780 1866.5 760.5Q1847 741 1821.0 730.0Q1795 719 1765 719Q1735 719 1709.0 730.5Q1683 742 1663.5 761.5Q1644 781 1633.0 807.0Q1622 833 1622 863Q1622 893 1633.0 919.0Q1644 945 1663.5 964.5Q1683 984 1709.0 995.0Q1735 1006 1765 1006Q1795 1006 1821.0 995.0Q1847 984 1866.5 964.5Q1886 945 1897.5 919.0Q1909 893 1909 863Z" style="fill:#af0d1a;stroke:none" transform="scale(1,-1) translate(0,-256)" /></svg>