<?xml version="1.0" encoding="utf-8" ?>
<svg baseProfile="full" height="256" version="1.1" width="256" xmlns="http://www.w3.org/2000/svg" xmlns:ev="http://www.w3.org/2001/xml-events" xmlns:xlink="http://www.w3.org/1999/xlink"><defs /><path d="M831 288Q757 288 691.5 316.0Q626 344 577.0 393.0Q528 442 500.0 507.5Q472 573 472 647Q472 706 494.5 758.5Q517 811 556.0 850.0Q595 889 647.5 912.0Q700 935 759 935Q845 935 922.5 954.5Q1000 974 1069.5 1010.0Q1139 1046 1200.5 1097.5Q1262 1149 1318 1212Q1363 1263 1412.0 1304.5Q1461 1346 1516.5 1376.0Q1572 1406 1633.5 1422.0Q1695 1438 1765 1438Q1884 1438 1988.5 1392.5Q2093 1347 2171.0 1269.0Q2249 1191 2294.5 1086.5Q2340 982 2340 863Q2340 744 2294.5 639.5Q2249 535 2171.0 457.0Q2093 379 1988.5 333.5Q1884 288 1765 288Z" style="fill:#e81224;stroke:none" transform="scale(1,-1) translate(0,-256)" /></svg>