<?xml version="1.0" encoding="utf-8" ?>
<svg baseProfile="full" height="256" version="1.1" width="256" xmlns="http://www.w3.org/2000/svg" xmlns:ev="http://www.w3.org/2001/xml-events" xmlns:xlink="http://www.w3.org/1999/xlink"><defs /><path d="M1298 1114Q1298 1045 1265.5 990.5Q1233 936 1176 900Q1154 886 1132.5 874.0Q1111 862 1094.5 846.5Q1078 831 1067.5 810.5Q1057 790 1057 759Q1057 726 1072 701L1238 414Q1262 373 1262 324Q1262 286 1248.0 253.5Q1234 221 1209.5 196.5Q1185 172 1152.0 158.0Q1119 144 1082 144Q1034 144 992.5 168.0Q951 192 927 234L573 854Q558 880 550.5 910.0Q543 940 543 971Q543 1038 575.5 1095.0Q608 1152 666 1185L927 1335Q954 1351 984.5 1358.5Q1015 1366 1047 1366Q1099 1366 1145.0 1346.0Q1191 1326 1225.0 1292.0Q1259 1258 1278.5 1212.0Q1298 1166 1298 1114ZM1765 935Q1829 935 1885 903L2146 754Q2174 737 2197.0 714.0Q2220 691 2235.5 663.0Q2251 635 2259.5 603.5Q2268 572 2268 539Q2268 509 2261.0 479.0Q2254 449 2239 423L1885 -197Q1861 -239 1819.0 -263.0Q1777 -287 1729 -287Q1692 -287 1659.5 -273.0Q1627 -259 1602.5 -234.5Q1578 -210 1564.0 -177.5Q1550 -145 1550 -108Q1550 -59 1574 -18L1740 270Q1755 297 1755 328Q1755 359 1744.5 379.5Q1734 400 1717.5 415.0Q1701 430 1679.5 442.0Q1658 454 1636 468Q1579 504 1546.5 559.5Q1514 615 1514 683Q1514 735 1533.5 781.0Q1553 827 1587.0 861.0Q1621 895 1667.0 915.0Q1713 935 1765 935ZM1622 1042Q1622 1020 1613.5 1000.5Q1605 981 1590.0 966.5Q1575 952 1555.5 943.5Q1536 935 1514 935Q1492 935 1472.5 943.5Q1453 952 1438.0 966.0Q1423 980 1414.5 999.5Q1406 1019 1406 1042V1186Q1406 1208 1414.5 1228.0Q1423 1248 1437.5 1262.5Q1452 1277 1471.5 1285.5Q1491 1294 1514 1294Q1536 1294 1555.5 1285.5Q1575 1277 1590.0 1262.0Q1605 1247 1613.5 1227.5Q1622 1208 1622 1186ZM1406 1617V1474Q1406 1451 1397.5 1431.5Q1389 1412 1374.5 1397.5Q1360 1383 1340.0 1374.5Q1320 1366 1298 1366Q1276 1366 1256.5 1374.5Q1237 1383 1222.0 1398.0Q1207 1413 1198.5 1432.5Q1190 1452 1190 1474V1617Q1190 1639 1198.5 1658.5Q1207 1678 1222.0 1693.0Q1237 1708 1256.5 1716.5Q1276 1725 1298 1725Q1320 1725 1340.0 1716.5Q1360 1708 1374.5 1693.5Q1389 1679 1397.5 1659.0Q1406 1639 1406 1617ZM1765 1006Q1736 1006 1714.5 1027.5Q1693 1049 1693 1078V1150Q1693 1179 1714.5 1200.5Q1736 1222 1765 1222Q1795 1222 1816.0 1201.0Q1837 1180 1837 1150V1078Q1837 1049 1815.5 1027.5Q1794 1006 1765 1006ZM1981 935Q1952 935 1930.5 956.0Q1909 977 1909 1006V1078Q1909 1108 1930.0 1129.0Q1951 1150 1981 1150Q2011 1150 2032.0 1129.0Q2053 1108 2053 1078V1006Q2053 977 2031.5 956.0Q2010 935 1981 935ZM831 1366Q801 1366 780.0 1387.0Q759 1408 759 1438V1510Q759 1539 780.5 1560.0Q802 1581 831 1581Q860 1581 881.5 1560.0Q903 1539 903 1510V1438Q903 1408 882.0 1387.0Q861 1366 831 1366ZM1047 1438Q1017 1438 996.0 1459.0Q975 1480 975 1510V1581Q975 1611 996.0 1632.0Q1017 1653 1047 1653Q1076 1653 1097.0 1631.5Q1118 1610 1118 1581V1510Q1118 1481 1097.0 1459.5Q1076 1438 1047 1438ZM2340 791Q2370 791 2391.0 770.0Q2412 749 2412 719Q2412 689 2391.0 668.0Q2370 647 2340 647Q2311 647 2289.5 668.5Q2268 690 2268 719Q2268 748 2289.5 769.5Q2311 791 2340 791ZM615 1294Q586 1294 564.5 1315.5Q543 1337 543 1366Q543 1395 564.5 1416.5Q586 1438 615 1438Q645 1438 666.0 1417.0Q687 1396 687 1366Q687 1336 666.0 1315.0Q645 1294 615 1294ZM472 1222Q501 1222 522.0 1200.5Q543 1179 543 1150Q543 1121 522.0 1099.5Q501 1078 472 1078Q442 1078 421.0 1099.0Q400 1120 400 1150Q400 1180 421.0 1201.0Q442 1222 472 1222ZM2197 863Q2167 863 2146.0 884.0Q2125 905 2125 935Q2125 964 2146.5 985.0Q2168 1006 2197 1006Q2226 1006 2247.0 985.0Q2268 964 2268 935Q2268 906 2247.0 884.5Q2226 863 2197 863Z" style="fill:#f03a17;stroke:none" transform="scale(1,-1) translate(0,-256)" /></svg>