<?xml version="1.0" encoding="utf-8" ?>
<svg baseProfile="full" height="256" version="1.1" width="256" xmlns="http://www.w3.org/2000/svg" xmlns:ev="http://www.w3.org/2001/xml-events" xmlns:xlink="http://www.w3.org/1999/xlink"><defs /><path d="M2411 922Q2476 898 2516.0 843.5Q2556 789 2556 719Q2556 649 2516.0 594.5Q2476 540 2411 516Q2408 474 2397.5 433.5Q2387 393 2366 356L2010 -269Q1989 -307 1958.5 -337.0Q1928 -367 1891.5 -388.0Q1855 -409 1813.5 -420.0Q1772 -431 1729 -431Q1662 -431 1603.0 -405.5Q1544 -380 1500.5 -336.0Q1457 -292 1431.5 -233.0Q1406 -174 1406 -107Q1406 -21 1449 54L1603 321L1504 388L1362 164Q1314 88 1245.0 44.0Q1176 0 1083 0Q1040 0 998.5 11.0Q957 22 920.5 43.0Q884 64 853.5 94.0Q823 124 802 162L448 783Q427 820 415.5 862.5Q404 905 401 947Q336 971 296.0 1025.5Q256 1080 256 1150Q256 1184 266.5 1216.0Q277 1248 296.0 1274.5Q315 1301 342.0 1321.5Q369 1342 401 1353Q401 1402 416.5 1443.5Q432 1485 460.0 1515.5Q488 1546 528.0 1563.0Q568 1580 618 1580H628Q652 1645 706.5 1685.0Q761 1725 831 1725Q856 1725 882 1719Q913 1756 956.0 1776.5Q999 1797 1047 1797Q1079 1797 1112 1786Q1148 1825 1196.0 1847.0Q1244 1869 1298 1869Q1350 1869 1396.0 1849.0Q1442 1829 1476.0 1795.0Q1510 1761 1530.0 1715.0Q1550 1669 1550 1617Q1550 1591 1551.0 1565.5Q1552 1540 1552 1514Q1552 1494 1551.0 1474.0Q1550 1454 1546 1434Q1591 1429 1630.5 1408.0Q1670 1387 1699 1354Q1715 1359 1731.5 1362.5Q1748 1366 1765 1366Q1813 1366 1856.5 1345.5Q1900 1325 1930 1287Q1943 1290 1955.5 1292.0Q1968 1294 1981 1294Q2051 1294 2105.5 1254.0Q2160 1214 2184 1149Q2232 1149 2273.5 1133.5Q2315 1118 2345.5 1089.5Q2376 1061 2393.5 1021.0Q2411 981 2411 932Z" style="fill:#000000;stroke:none" transform="scale(1,-1) translate(0,-256)" /></svg>