<?xml version="1.0" encoding="utf-8" ?>
<svg baseProfile="full" height="256" version="1.1" width="256" xmlns="http://www.w3.org/2000/svg" xmlns:ev="http://www.w3.org/2001/xml-events" xmlns:xlink="http://www.w3.org/1999/xlink"><defs /><path d="M1981 503Q1981 384 1935.5 279.5Q1890 175 1812.0 97.0Q1734 19 1629.5 -26.5Q1525 -72 1406 -72Q1287 -72 1182.5 -26.5Q1078 19 1000.0 97.0Q922 175 876.5 279.5Q831 384 831 503ZM1801 1222Q1823 1222 1843.0 1213.5Q1863 1205 1877.5 1190.5Q1892 1176 1900.5 1156.0Q1909 1136 1909 1114V827Q1909 804 1900.5 784.5Q1892 765 1877.5 750.5Q1863 736 1843.0 727.5Q1823 719 1801 719Q1779 719 1759.5 727.5Q1740 736 1725.0 751.0Q1710 766 1701.5 785.5Q1693 805 1693 827V1114Q1693 1136 1701.5 1155.5Q1710 1175 1725.0 1190.0Q1740 1205 1759.5 1213.5Q1779 1222 1801 1222ZM1011 1222Q1033 1222 1053.0 1213.5Q1073 1205 1087.0 1190.0Q1101 1175 1109.5 1155.5Q1118 1136 1118 1114V827Q1118 805 1109.5 785.5Q1101 766 1087.0 751.0Q1073 736 1053.0 727.5Q1033 719 1011 719Q988 719 968.5 727.5Q949 736 934.5 750.5Q920 765 911.5 784.5Q903 804 903 827V1114Q903 1136 911.5 1156.0Q920 1176 934.5 1190.5Q949 1205 968.5 1213.5Q988 1222 1011 1222Z" style="fill:#000000;stroke:none" transform="scale(1,-1) translate(0,-256)" /></svg>