<?xml version="1.0" encoding="utf-8" ?>
<svg baseProfile="full" height="256" version="1.1" width="256" xmlns="http://www.w3.org/2000/svg" xmlns:ev="http://www.w3.org/2001/xml-events" xmlns:xlink="http://www.w3.org/1999/xlink"><defs /><path d="M1406 288Q1297 288 1196.5 316.0Q1096 344 1008.0 395.5Q920 447 847.5 518.5Q775 590 723.5 677.5Q672 765 643.5 865.5Q615 966 615 1075Q729 1237 872.0 1368.0Q1015 1499 1178 1610Q1206 1629 1237.0 1649.5Q1268 1670 1298.5 1686.5Q1329 1703 1356.5 1714.0Q1384 1725 1406 1725Q1428 1725 1455.5 1714.5Q1483 1704 1511.5 1688.0Q1540 1672 1567.5 1654.5Q1595 1637 1617 1622Q1792 1503 1938.0 1370.0Q2084 1237 2196 1075Q2196 966 2167.5 866.0Q2139 766 2087.5 678.5Q2036 591 1963.5 519.0Q1891 447 1803.0 395.5Q1715 344 1614.5 316.0Q1514 288 1406 288Z" style="fill:#f7630c;stroke:none" transform="scale(1,-1) translate(0,-256)" /></svg>