<?xml version="1.0" encoding="utf-8" ?>
<svg baseProfile="full" height="256" version="1.1" width="256" xmlns="http://www.w3.org/2000/svg" xmlns:ev="http://www.w3.org/2001/xml-events" xmlns:xlink="http://www.w3.org/1999/xlink"><defs /><path d="M1118 -431Q999 -431 889.5 -400.0Q780 -369 684.0 -313.0Q588 -257 509.0 -178.0Q430 -99 374.0 -3.0Q318 93 287.0 203.0Q256 313 256 431Q256 571 288.5 702.0Q321 833 378.5 953.5Q436 1074 515.5 1183.5Q595 1293 689.5 1391.5Q784 1490 890.0 1576.0Q996 1662 1107 1736Q1142 1760 1179.0 1783.5Q1216 1807 1254.0 1826.0Q1292 1845 1330.0 1857.0Q1368 1869 1406 1869Q1445 1869 1483.5 1857.5Q1522 1846 1559.0 1827.5Q1596 1809 1630.0 1786.5Q1664 1764 1696 1742Q1809 1665 1916.5 1577.5Q2024 1490 2119.5 1391.5Q2215 1293 2295.0 1184.0Q2375 1075 2433.0 955.0Q2491 835 2523.5 704.0Q2556 573 2556 431Q2556 312 2525.0 202.0Q2494 92 2438.0 -3.5Q2382 -99 2303.0 -178.0Q2224 -257 2128.0 -313.0Q2032 -369 1922.0 -400.0Q1812 -431 1693 -431Z" style="fill:#000000;stroke:none" transform="scale(1,-1) translate(0,-256)" /></svg>