<?xml version="1.0" encoding="utf-8" ?>
<svg baseProfile="full" height="256" version="1.1" width="256" xmlns="http://www.w3.org/2000/svg" xmlns:ev="http://www.w3.org/2001/xml-events" xmlns:xlink="http://www.w3.org/1999/xlink"><defs /><path d="M2053 935Q2082 935 2103.5 913.5Q2125 892 2125 863V647Q2125 623 2115.5 608.5Q2106 594 2091.0 586.5Q2076 579 2056.5 577.0Q2037 575 2018 575H1981V-72Q1981 -102 1969.5 -128.0Q1958 -154 1938.5 -173.5Q1919 -193 1893.0 -204.0Q1867 -215 1837 -215H687Q657 -215 631.0 -204.0Q605 -193 585.5 -173.5Q566 -154 554.5 -128.0Q543 -102 543 -72V575H506Q487 575 468.0 577.0Q449 579 434.0 586.5Q419 594 409.5 608.5Q400 623 400 647V863Q400 892 421.5 913.5Q443 935 472 935H687V863H1837V935Z" style="fill:#757575;stroke:none" transform="scale(1,-1) translate(0,-256)" /></svg>