<?xml version="1.0" encoding="utf-8" ?>
<svg baseProfile="full" height="256" version="1.1" width="256" xmlns="http://www.w3.org/2000/svg" xmlns:ev="http://www.w3.org/2001/xml-events" xmlns:xlink="http://www.w3.org/1999/xlink"><defs /><path d="M1406 719Q1466 719 1518.0 696.5Q1570 674 1609.0 635.0Q1648 596 1670.5 543.5Q1693 491 1693 431V396Q1693 374 1684.5 354.5Q1676 335 1661.5 320.0Q1647 305 1627.5 296.5Q1608 288 1586 288Q1558 288 1534.0 301.5Q1510 315 1495 338Q1469 315 1437.0 301.5Q1405 288 1370 288Q1348 288 1328.5 296.5Q1309 305 1294.0 320.0Q1279 335 1270.5 354.5Q1262 374 1262 396Q1262 433 1276.0 465.5Q1290 498 1314.5 522.5Q1339 547 1372.0 561.0Q1405 575 1442 575Q1464 575 1483.5 566.5Q1503 558 1518.0 543.0Q1533 528 1541.5 508.5Q1550 489 1550 467Q1550 455 1549.0 443.5Q1548 432 1548 420Q1548 410 1549.0 399.5Q1550 389 1554.0 380.0Q1558 371 1565.5 365.5Q1573 360 1586 360Q1598 360 1605.5 365.0Q1613 370 1616.5 378.5Q1620 387 1621.0 397.0Q1622 407 1622 416Q1622 463 1607.0 505.0Q1592 547 1563.5 578.5Q1535 610 1495.0 628.5Q1455 647 1406 647Q1361 647 1322.0 630.0Q1283 613 1253.5 583.5Q1224 554 1207.0 515.0Q1190 476 1190 431Q1190 387 1207.0 347.5Q1224 308 1253.5 279.0Q1283 250 1322.5 233.0Q1362 216 1406 216H1550V144H1406Q1347 144 1295.0 167.0Q1243 190 1203.5 229.0Q1164 268 1141.0 320.0Q1118 372 1118 431Q1118 491 1140.5 543.5Q1163 596 1202.0 635.0Q1241 674 1293.5 696.5Q1346 719 1406 719ZM1370 360Q1392 360 1411.5 368.5Q1431 377 1446.0 391.5Q1461 406 1469.5 425.5Q1478 445 1478 467Q1478 482 1467.5 492.5Q1457 503 1442 503Q1420 503 1400.5 494.5Q1381 486 1366.0 472.0Q1351 458 1342.5 438.0Q1334 418 1334 396Q1334 381 1344.5 370.5Q1355 360 1370 360Z" style="fill:#f03a17;stroke:none" transform="scale(1,-1) translate(0,-256)" /></svg>