<?xml version="1.0" encoding="utf-8" ?>
<svg baseProfile="full" height="256" version="1.1" width="256" xmlns="http://www.w3.org/2000/svg" xmlns:ev="http://www.w3.org/2001/xml-events" xmlns:xlink="http://www.w3.org/1999/xlink"><defs /><path d="M1059 791 1295 828Q1311 824 1334.5 817.5Q1358 811 1382.0 805.0Q1406 799 1428.5 795.0Q1451 791 1466 791H2304Q2326 791 2346.0 782.5Q2366 774 2380.5 759.5Q2395 745 2403.5 725.0Q2412 705 2412 683Q2412 660 2403.5 640.5Q2395 621 2380.5 606.5Q2366 592 2346.0 583.5Q2326 575 2304 575H1765L1748 543L1765 503V288L1751 253L1765 217V144Q1765 114 1754.0 88.0Q1743 62 1723.5 42.5Q1704 23 1678.0 11.5Q1652 0 1622 0L1609 -35Q1618 -50 1620.5 -67.0Q1623 -84 1623 -101Q1623 -112 1622.5 -122.5Q1622 -133 1622 -144Q1622 -174 1610.5 -200.0Q1599 -226 1579.5 -245.5Q1560 -265 1534.0 -276.0Q1508 -287 1478 -287H400V431H588Q612 431 638.0 436.5Q664 442 688.5 452.0Q713 462 735.5 476.0Q758 490 775 507Z" style="fill:#ffc83d;stroke:none" transform="scale(1,-1) translate(0,-256)" /></svg>