<?xml version="1.0" encoding="utf-8" ?>
<svg baseProfile="full" height="256" version="1.1" width="256" xmlns="http://www.w3.org/2000/svg" xmlns:ev="http://www.w3.org/2001/xml-events" xmlns:xlink="http://www.w3.org/1999/xlink"><defs /><path d="M472 -431Q427 -431 388.0 -414.0Q349 -397 319.5 -368.0Q290 -339 273.0 -300.0Q256 -261 256 -216Q256 -173 272.5 -133.0Q289 -93 319 -63L1128 746Q1083 831 1065.0 916.0Q1047 1001 1047 1096Q1047 1105 1047.0 1113.5Q1047 1122 1049 1131Q1023 1142 997.0 1152.0Q971 1162 946 1176Q892 1207 861.5 1255.0Q831 1303 831 1366V1581H975V1725H1118V1869H1334Q1383 1869 1428.0 1847.0Q1473 1825 1503 1786Q1581 1827 1665.5 1848.0Q1750 1869 1838 1869Q1937 1869 2028.5 1843.0Q2120 1817 2200.0 1770.5Q2280 1724 2345.5 1658.0Q2411 1592 2458.0 1512.5Q2505 1433 2530.5 1341.0Q2556 1249 2556 1150Q2556 1003 2502.0 875.0Q2448 747 2345 642L2274 570Q2172 467 2041.0 413.5Q1910 360 1766 360Q1678 360 1594.5 381.0Q1511 402 1433 441L624 -368Q594 -398 554.5 -414.5Q515 -431 472 -431Z" style="fill:#000000;stroke:none" transform="scale(1,-1) translate(0,-256)" /></svg>