<?xml version="1.0" encoding="utf-8" ?>
<svg baseProfile="full" height="256" version="1.1" width="256" xmlns="http://www.w3.org/2000/svg" xmlns:ev="http://www.w3.org/2001/xml-events" xmlns:xlink="http://www.w3.org/1999/xlink"><defs /><path d="M1765 647Q1676 647 1597.5 681.0Q1519 715 1460.5 773.5Q1402 832 1368.0 910.5Q1334 989 1334 1078Q1346 1087 1359.5 1091.5Q1373 1096 1387.5 1099.0Q1402 1102 1416.5 1104.5Q1431 1107 1445 1111Q1449 1112 1456.5 1115.0Q1464 1118 1464 1123Q1464 1129 1447.0 1134.0Q1430 1139 1408.5 1142.5Q1387 1146 1367.0 1148.5Q1347 1151 1340 1151Q1353 1228 1387.5 1287.0Q1422 1346 1477 1400L1526 1386L1516 1439Q1570 1493 1628.5 1528.0Q1687 1563 1764 1575Q1775 1565 1784.0 1554.0Q1793 1543 1801 1531Q1806 1545 1816.0 1557.5Q1826 1570 1837 1581Q1927 1581 2005.5 1547.5Q2084 1514 2142.5 1455.5Q2201 1397 2234.5 1318.5Q2268 1240 2268 1150Q2260 1141 2250.5 1133.5Q2241 1126 2231 1119Q2239 1108 2246.5 1098.0Q2254 1088 2262 1078Q2248 1003 2213.5 942.5Q2179 882 2125 828L2080 836L2088 791Q2034 737 1974.0 701.5Q1914 666 1839 653Q1828 664 1818.0 675.5Q1808 687 1798 699Q1791 685 1783.5 671.5Q1776 658 1765 647Z" style="fill:#b3dbf2;stroke:none" transform="scale(1,-1) translate(0,-256)" /></svg>