<?xml version="1.0" encoding="utf-8" ?>
<svg baseProfile="full" height="256" version="1.1" width="256" xmlns="http://www.w3.org/2000/svg" xmlns:ev="http://www.w3.org/2001/xml-events" xmlns:xlink="http://www.w3.org/1999/xlink"><defs /><path d="M2262 1078H2125V828L2088 791H1837V653Q1819 651 1801.0 649.0Q1783 647 1765 647V791H1478V1078H1334Q1334 1114 1340 1150H1478V1401L1515 1438H1765V1575Q1801 1581 1837 1581V1438H2125V1150H2268Q2268 1114 2262 1078ZM2053 1150V1366H1837V1150ZM1765 1150V1366H1550V1150ZM2053 863V1078H1837V863ZM1765 863V1078H1550V863Z" style="fill:#83beec;stroke:none" transform="scale(1,-1) translate(0,-256)" /></svg>