<?xml version="1.0" encoding="utf-8" ?>
<svg baseProfile="full" height="256" version="1.1" width="256" xmlns="http://www.w3.org/2000/svg" xmlns:ev="http://www.w3.org/2001/xml-events" xmlns:xlink="http://www.w3.org/1999/xlink"><defs /><path d="M1837 1725Q1956 1725 2061.0 1680.0Q2166 1635 2244.0 1557.0Q2322 1479 2367.0 1374.0Q2412 1269 2412 1150Q2412 1034 2368.5 930.5Q2325 827 2244 744L2172 672Q2090 591 1986.0 547.0Q1882 503 1766 503Q1669 503 1579.0 533.5Q1489 564 1413 624L885 97L754 75L784 198L1311 726Q1251 802 1220.5 892.0Q1190 982 1190 1079Q1190 1195 1234.0 1299.0Q1278 1403 1359 1485L1431 1557Q1514 1638 1617.5 1681.5Q1721 1725 1837 1725Z" style="fill:#757575;stroke:none" transform="scale(1,-1) translate(0,-256)" /></svg>