<?xml version="1.0" encoding="utf-8" ?>
<svg baseProfile="full" height="256" version="1.1" width="256" xmlns="http://www.w3.org/2000/svg" xmlns:ev="http://www.w3.org/2001/xml-events" xmlns:xlink="http://www.w3.org/1999/xlink"><defs /><path d="M2412 288Q2412 258 2391.0 237.0Q2370 216 2340 216H472Q442 216 421.0 237.0Q400 258 400 288V1438Q400 1467 421.5 1488.5Q443 1510 472 1510H2340Q2369 1510 2390.5 1488.5Q2412 1467 2412 1438ZM1909 -144H903V-72Q903 -42 924.0 -21.0Q945 0 975 0H1837Q1867 0 1888.0 -21.0Q1909 -42 1909 -72Z" style="fill:#cccccc;stroke:none" transform="scale(1,-1) translate(0,-256)" /></svg>