<?xml version="1.0" encoding="utf-8" ?>
<svg baseProfile="full" height="256" version="1.1" width="256" xmlns="http://www.w3.org/2000/svg" xmlns:ev="http://www.w3.org/2001/xml-events" xmlns:xlink="http://www.w3.org/1999/xlink"><defs /><path d="M2340 1653Q2385 1653 2424.0 1636.0Q2463 1619 2492.5 1590.0Q2522 1561 2539.0 1522.0Q2556 1483 2556 1438V288Q2556 243 2539.0 204.0Q2522 165 2492.5 135.5Q2463 106 2424.0 89.0Q2385 72 2340 72H1998Q2024 43 2038.5 5.5Q2053 -32 2053 -72V-287H759V-72Q759 -32 773.5 5.5Q788 43 814 72H472Q427 72 388.0 89.0Q349 106 319.5 135.5Q290 165 273.0 204.0Q256 243 256 288V1438Q256 1483 273.0 1522.0Q290 1561 319.5 1590.0Q349 1619 388.0 1636.0Q427 1653 472 1653Z" style="fill:#000000;stroke:none" transform="scale(1,-1) translate(0,-256)" /></svg>