<?xml version="1.0" encoding="utf-8" ?>
<svg baseProfile="full" height="256" version="1.1" width="256" xmlns="http://www.w3.org/2000/svg" xmlns:ev="http://www.w3.org/2001/xml-events" xmlns:xlink="http://www.w3.org/1999/xlink"><defs /><path d="M1837 360H2053L1765 72L1478 360H1693V863Q1693 912 1677.0 957.5Q1661 1003 1632.0 1039.5Q1603 1076 1563.0 1102.5Q1523 1129 1475 1141L1329 1286Q1369 1294 1406 1294Q1495 1294 1573.5 1260.0Q1652 1226 1710.5 1167.5Q1769 1109 1803.0 1030.5Q1837 952 1837 863ZM1118 575Q1118 525 1134.0 480.0Q1150 435 1179.5 398.5Q1209 362 1249.0 335.5Q1289 309 1337 297L1483 151Q1464 148 1445.0 146.0Q1426 144 1406 144Q1317 144 1238.5 178.0Q1160 212 1101.5 270.5Q1043 329 1009.0 407.5Q975 486 975 575V1078H759L1047 1366L1334 1078H1118Z" style="fill:#ffffff;stroke:none" transform="scale(1,-1) translate(0,-256)" /></svg>