<?xml version="1.0" encoding="utf-8" ?>
<svg baseProfile="full" height="256" version="1.1" width="256" xmlns="http://www.w3.org/2000/svg" xmlns:ev="http://www.w3.org/2001/xml-events" xmlns:xlink="http://www.w3.org/1999/xlink"><defs /><path d="M723 1581Q758 1581 785.0 1570.0Q812 1559 835.0 1541.0Q858 1523 878.5 1501.0Q899 1479 922 1457L668 1203Q645 1224 622.5 1245.0Q600 1266 582.5 1290.0Q565 1314 554.0 1341.5Q543 1369 543 1402Q543 1439 557.0 1472.0Q571 1505 595.5 1529.0Q620 1553 652.5 1567.0Q685 1581 723 1581ZM2089 1581Q2126 1581 2159.0 1567.0Q2192 1553 2216.5 1529.0Q2241 1505 2255.0 1472.0Q2269 1439 2269 1402Q2269 1368 2258.0 1341.0Q2247 1314 2229.0 1290.5Q2211 1267 2188.5 1245.5Q2166 1224 2144 1203L1890 1457Q1912 1479 1933.0 1501.0Q1954 1523 1977.0 1541.0Q2000 1559 2027.0 1570.0Q2054 1581 2089 1581Z" style="fill:#f7894a;stroke:none" transform="scale(1,-1) translate(0,-256)" /></svg>