<?xml version="1.0" encoding="utf-8" ?>
<svg baseProfile="full" height="256" version="1.1" width="256" xmlns="http://www.w3.org/2000/svg" xmlns:ev="http://www.w3.org/2001/xml-events" xmlns:xlink="http://www.w3.org/1999/xlink"><defs /><path d="M1406 934Q1440 934 1461 907L1790 493Q1813 464 1825.0 430.0Q1837 396 1837 359V36Q1837 15 1829.0 -4.0Q1821 -23 1807.0 -37.5Q1793 -52 1774.5 -61.0Q1756 -70 1735 -71Q1714 -120 1680.0 -160.0Q1646 -200 1603.0 -228.0Q1560 -256 1509.5 -271.5Q1459 -287 1406 -287Q1353 -287 1303.0 -271.5Q1253 -256 1209.5 -227.5Q1166 -199 1132.0 -159.0Q1098 -119 1077 -71Q1056 -70 1037.5 -61.0Q1019 -52 1005.0 -37.5Q991 -23 983.0 -4.0Q975 15 975 36V359Q975 396 987.0 430.0Q999 464 1022 493L1351 907Q1372 934 1406 934Z" style="fill:#f7b189;stroke:none" transform="scale(1,-1) translate(0,-256)" /></svg>