<?xml version="1.0" encoding="utf-8" ?>
<svg baseProfile="full" height="256" version="1.1" width="256" xmlns="http://www.w3.org/2000/svg" xmlns:ev="http://www.w3.org/2001/xml-events" xmlns:xlink="http://www.w3.org/1999/xlink"><defs /><path d="M1011 1006Q1033 1006 1052.5 997.5Q1072 989 1087.0 974.0Q1102 959 1110.5 939.5Q1119 920 1119 898V755Q1119 733 1110.5 713.5Q1102 694 1087.0 679.0Q1072 664 1052.5 655.5Q1033 647 1011 647Q988 647 968.5 655.5Q949 664 934.5 678.5Q920 693 911.5 712.5Q903 732 903 755V898Q903 920 911.5 940.0Q920 960 934.5 974.5Q949 989 968.5 997.5Q988 1006 1011 1006ZM1801 1006Q1823 1006 1843.0 997.5Q1863 989 1877.5 974.5Q1892 960 1900.5 940.0Q1909 920 1909 898V755Q1909 732 1900.5 712.5Q1892 693 1877.5 678.5Q1863 664 1843.0 655.5Q1823 647 1801 647Q1778 647 1758.5 655.5Q1739 664 1725.0 679.0Q1711 694 1702.5 713.5Q1694 733 1694 755V898Q1694 920 1702.5 939.5Q1711 959 1725.0 974.0Q1739 989 1758.5 997.5Q1778 1006 1801 1006ZM1406 144Q1392 144 1378.0 149.0Q1364 154 1355 165L1190 359H1622L1457 165Q1448 154 1434.0 149.0Q1420 144 1406 144Z" style="fill:#000000;stroke:none" transform="scale(1,-1) translate(0,-256)" /></svg>