<?xml version="1.0" encoding="utf-8" ?>
<svg baseProfile="full" height="256" version="1.1" width="256" xmlns="http://www.w3.org/2000/svg" xmlns:ev="http://www.w3.org/2001/xml-events" xmlns:xlink="http://www.w3.org/1999/xlink"><defs /><path d="M2088 1725Q2155 1725 2214.0 1699.5Q2273 1674 2317.0 1630.0Q2361 1586 2386.5 1527.0Q2412 1468 2412 1401Q2412 1350 2399.0 1309.0Q2386 1268 2363.5 1233.5Q2341 1199 2312.0 1168.0Q2283 1137 2250 1105L2222 1077L2365 575H2197V503Q2197 462 2187.0 420.5Q2177 379 2158.5 341.5Q2140 304 2112.5 271.5Q2085 239 2051 216L1622 -72H1190L761 216Q726 239 699.0 271.5Q672 304 653.5 341.5Q635 379 625.0 420.5Q615 462 615 503V575H447L590 1077L562 1105Q529 1137 500.0 1168.0Q471 1199 448.5 1233.5Q426 1268 413.0 1309.0Q400 1350 400 1401Q400 1468 425.5 1527.0Q451 1586 495.0 1630.0Q539 1674 597.5 1699.5Q656 1725 723 1725Q771 1725 808.0 1714.5Q845 1704 877.5 1685.0Q910 1666 939.5 1639.5Q969 1613 1001 1581H1811Q1842 1613 1871.5 1639.5Q1901 1666 1933.5 1685.0Q1966 1704 2003.5 1714.5Q2041 1725 2088 1725Z" style="fill:#8e562e;stroke:none" transform="scale(1,-1) translate(0,-256)" /></svg>