<?xml version="1.0" encoding="utf-8" ?>
<svg baseProfile="full" height="256" version="1.1" width="256" xmlns="http://www.w3.org/2000/svg" xmlns:ev="http://www.w3.org/2001/xml-events" xmlns:xlink="http://www.w3.org/1999/xlink"><defs /><path d="M2556 1402Q2556 1289 2510.0 1200.5Q2464 1112 2383 1036L2556 431H2335Q2323 333 2270.0 246.0Q2217 159 2138 101Q2099 72 2058.5 46.0Q2018 20 1977 -6Q1966 -67 1928.5 -117.0Q1891 -167 1834 -193Q1799 -248 1752.5 -292.0Q1706 -336 1650.5 -367.0Q1595 -398 1533.0 -414.5Q1471 -431 1406 -431Q1341 -431 1279.0 -414.5Q1217 -398 1161.5 -367.0Q1106 -336 1059.0 -292.0Q1012 -248 978 -193Q921 -167 883.5 -117.0Q846 -67 835 -6Q766 38 706.5 78.5Q647 119 600.5 168.0Q554 217 522.5 279.5Q491 342 477 431H256L429 1036Q348 1111 302.0 1200.0Q256 1289 256 1402Q256 1498 293.0 1583.0Q330 1668 393.5 1731.5Q457 1795 542.0 1832.0Q627 1869 723 1869Q817 1869 902.5 1833.5Q988 1798 1054 1732L1060 1725H1752L1758 1732Q1824 1798 1909.5 1833.5Q1995 1869 2089 1869Q2185 1869 2270.0 1832.0Q2355 1795 2418.5 1731.5Q2482 1668 2519.0 1583.0Q2556 1498 2556 1402Z" style="fill:#000000;stroke:none" transform="scale(1,-1) translate(0,-256)" /></svg>