<?xml version="1.0" encoding="utf-8" ?>
<svg baseProfile="full" height="256" version="1.1" width="256" xmlns="http://www.w3.org/2000/svg" xmlns:ev="http://www.w3.org/2001/xml-events" xmlns:xlink="http://www.w3.org/1999/xlink"><defs /><path d="M543 935Q514 935 493.0 956.0Q472 977 472 1006Q472 1035 493.0 1056.5Q514 1078 543 1078Q543 1107 564.5 1128.5Q586 1150 615 1150Q615 1179 636.5 1200.5Q658 1222 687 1222Q687 1252 708.0 1273.0Q729 1294 759 1294Q759 1324 780.0 1345.0Q801 1366 831 1366Q831 1396 852.0 1417.0Q873 1438 903 1438Q903 1467 924.5 1488.5Q946 1510 975 1510Q975 1539 996.5 1560.0Q1018 1581 1047 1581Q1047 1610 1068.0 1631.5Q1089 1653 1118 1653Q1148 1653 1169.0 1632.0Q1190 1611 1190 1581Q1219 1581 1240.5 1560.0Q1262 1539 1262 1510Q1291 1510 1312.5 1488.5Q1334 1467 1334 1438Q1364 1438 1385.0 1417.0Q1406 1396 1406 1366Q1436 1366 1457.0 1345.0Q1478 1324 1478 1294Q1508 1294 1529.0 1273.0Q1550 1252 1550 1222Q1579 1222 1600.5 1200.5Q1622 1179 1622 1150Q1651 1150 1672.0 1128.5Q1693 1107 1693 1078Q1723 1078 1744.0 1057.0Q1765 1036 1765 1006Q1765 977 1743.5 956.0Q1722 935 1693 935Z" style="fill:#faec6e;stroke:none" transform="scale(1,-1) translate(0,-256)" /></svg>