<?xml version="1.0" encoding="utf-8" ?>
<svg baseProfile="full" height="256" version="1.1" width="256" xmlns="http://www.w3.org/2000/svg" xmlns:ev="http://www.w3.org/2001/xml-events" xmlns:xlink="http://www.w3.org/1999/xlink"><defs /><path d="M1907 1115Q1942 1090 1961.5 1052.0Q1981 1014 1981 971Q1981 920 1954.0 876.5Q1927 833 1882 810Q1810 516 1736.0 225.5Q1662 -65 1590 -359H647Q575 -65 501.5 225.5Q428 516 354 810Q309 833 282.5 876.5Q256 920 256 971Q256 1016 275.5 1053.0Q295 1090 330 1116Q334 1142 350.0 1169.5Q366 1197 388.5 1221.0Q411 1245 437.5 1263.0Q464 1281 490 1288Q506 1310 519.0 1331.0Q532 1352 547.0 1369.5Q562 1387 581.0 1401.0Q600 1415 628 1425Q637 1453 650.5 1472.0Q664 1491 682.0 1506.0Q700 1521 720.5 1534.0Q741 1547 763 1562Q776 1622 819.0 1665.0Q862 1708 922 1721Q941 1752 960.5 1779.5Q980 1807 1004.0 1826.5Q1028 1846 1058.5 1857.5Q1089 1869 1129 1869Q1166 1869 1199.0 1857.0Q1232 1845 1258.5 1823.0Q1285 1801 1303.5 1771.5Q1322 1742 1330 1706Q1374 1680 1410.5 1649.5Q1447 1619 1466 1569Q1488 1561 1503.5 1552.0Q1519 1543 1530.5 1532.0Q1542 1521 1552.0 1507.0Q1562 1493 1573 1476L1582 1462Q1589 1452 1595.5 1443.0Q1602 1434 1607 1423Q1618 1418 1627.0 1411.5Q1636 1405 1646 1398L1664 1386Q1679 1376 1691.0 1367.0Q1703 1358 1713.5 1347.0Q1724 1336 1733.0 1322.0Q1742 1308 1750 1289Q1781 1281 1808.0 1265.0Q1835 1249 1855.5 1226.5Q1876 1204 1889.5 1175.5Q1903 1147 1907 1115Z" style="fill:#000000;stroke:none" transform="scale(1,-1) translate(0,-256)" /></svg>