<?xml version="1.0" encoding="utf-8" ?>
<svg baseProfile="full" height="256" version="1.1" width="256" xmlns="http://www.w3.org/2000/svg" xmlns:ev="http://www.w3.org/2001/xml-events" xmlns:xlink="http://www.w3.org/1999/xlink"><defs /><path d="M964 1458Q938 1458 920.5 1476.0Q903 1494 903 1520Q903 1546 920.5 1563.5Q938 1581 964 1581Q990 1581 1008.0 1563.5Q1026 1546 1026 1520Q1034 1520 1040.5 1513.5Q1047 1507 1047 1499Q1047 1491 1040.5 1485.0Q1034 1479 1026 1479Q1026 1471 1020.0 1464.5Q1014 1458 1006 1458Q1006 1450 999.5 1444.0Q993 1438 985 1438Q977 1438 970.5 1444.0Q964 1450 964 1458ZM985 1273Q1011 1273 1029.0 1255.5Q1047 1238 1047 1212Q1047 1186 1029.0 1168.0Q1011 1150 985 1150Q959 1150 941.0 1168.0Q923 1186 923 1212Q915 1212 909.0 1218.0Q903 1224 903 1232Q903 1240 909.0 1246.5Q915 1253 923 1253Q923 1261 929.5 1267.0Q936 1273 944 1273Q944 1281 950.0 1287.5Q956 1294 964 1294Q973 1294 979.0 1288.0Q985 1282 985 1273ZM882 1089Q890 1089 896.5 1082.5Q903 1076 903 1068Q903 1060 896.5 1054.0Q890 1048 882 1048Q882 1040 876.0 1033.5Q870 1027 862 1027Q862 1019 855.5 1012.5Q849 1006 841 1006Q833 1006 827.0 1012.5Q821 1019 821 1027Q795 1027 777.0 1045.0Q759 1063 759 1089Q759 1115 777.0 1132.5Q795 1150 821 1150Q847 1150 864.5 1132.5Q882 1115 882 1089ZM1108 1027Q1082 1027 1064.5 1045.0Q1047 1063 1047 1089Q1047 1115 1064.5 1132.5Q1082 1150 1108 1150Q1134 1150 1152.0 1132.5Q1170 1115 1170 1089Q1178 1089 1184.0 1082.5Q1190 1076 1190 1068Q1190 1060 1184.0 1054.0Q1178 1048 1170 1048Q1170 1039 1164.0 1033.0Q1158 1027 1149 1027Q1149 1019 1143.0 1012.5Q1137 1006 1129 1006Q1121 1006 1114.5 1012.5Q1108 1019 1108 1027ZM1396 1314Q1370 1314 1352.0 1332.0Q1334 1350 1334 1376Q1334 1402 1352.0 1420.0Q1370 1438 1396 1438Q1422 1438 1439.5 1420.0Q1457 1402 1457 1376Q1465 1376 1471.5 1370.0Q1478 1364 1478 1356Q1478 1347 1472.0 1341.0Q1466 1335 1457 1335Q1457 1327 1451.0 1320.5Q1445 1314 1437 1314Q1437 1306 1430.5 1300.0Q1424 1294 1416 1294Q1408 1294 1402.0 1300.0Q1396 1306 1396 1314ZM554 1130Q580 1130 597.5 1112.0Q615 1094 615 1068Q615 1042 597.5 1024.0Q580 1006 554 1006Q528 1006 510.0 1024.0Q492 1042 492 1068Q484 1068 478.0 1074.5Q472 1081 472 1089Q472 1097 478.0 1103.0Q484 1109 492 1109Q492 1117 498.5 1123.5Q505 1130 513 1130Q513 1138 519.0 1144.0Q525 1150 533 1150Q541 1150 547.5 1144.0Q554 1138 554 1130ZM1211 1499Q1203 1499 1196.5 1505.5Q1190 1512 1190 1520Q1190 1528 1196.5 1534.0Q1203 1540 1211 1540Q1211 1548 1217.0 1554.5Q1223 1561 1231 1561Q1231 1569 1237.5 1575.0Q1244 1581 1252 1581Q1260 1581 1266.0 1575.0Q1272 1569 1272 1561Q1298 1561 1316.0 1543.0Q1334 1525 1334 1499Q1334 1473 1316.0 1455.5Q1298 1438 1272 1438Q1246 1438 1228.5 1455.5Q1211 1473 1211 1499ZM1560 1273Q1586 1273 1604.0 1255.5Q1622 1238 1622 1212Q1622 1186 1604.0 1168.0Q1586 1150 1560 1150Q1534 1150 1516.0 1168.0Q1498 1186 1498 1212Q1490 1212 1484.0 1218.0Q1478 1224 1478 1232Q1478 1240 1484.0 1246.5Q1490 1253 1498 1253Q1498 1261 1504.5 1267.0Q1511 1273 1519 1273Q1519 1281 1525.0 1287.5Q1531 1294 1539 1294Q1548 1294 1554.0 1288.0Q1560 1282 1560 1273ZM821 1294Q795 1294 777.0 1312.0Q759 1330 759 1356Q759 1382 777.0 1399.5Q795 1417 821 1417Q821 1425 827.0 1431.5Q833 1438 841 1438Q850 1438 856.0 1432.0Q862 1426 862 1417Q870 1417 876.0 1411.0Q882 1405 882 1397Q890 1397 896.5 1390.5Q903 1384 903 1376Q903 1368 896.5 1362.0Q890 1356 882 1356Q882 1330 864.5 1312.0Q847 1294 821 1294ZM1704 1150Q1730 1150 1747.5 1132.5Q1765 1115 1765 1089Q1765 1063 1747.5 1045.0Q1730 1027 1704 1027Q1704 1019 1697.5 1012.5Q1691 1006 1683 1006Q1675 1006 1669.0 1012.5Q1663 1019 1663 1027Q1654 1027 1648.0 1033.0Q1642 1039 1642 1048Q1634 1048 1628.0 1054.0Q1622 1060 1622 1068Q1622 1076 1628.0 1082.5Q1634 1089 1642 1089Q1642 1115 1660.0 1132.5Q1678 1150 1704 1150ZM697 1294Q723 1294 741.0 1276.0Q759 1258 759 1232Q759 1206 741.0 1188.5Q723 1171 697 1171Q697 1163 691.0 1156.5Q685 1150 677 1150Q669 1150 662.5 1156.5Q656 1163 656 1171Q648 1171 642.0 1177.0Q636 1183 636 1191Q628 1191 621.5 1197.5Q615 1204 615 1212Q615 1220 621.5 1226.0Q628 1232 636 1232Q636 1258 653.5 1276.0Q671 1294 697 1294ZM1252 1150Q1226 1150 1208.0 1168.0Q1190 1186 1190 1212Q1190 1238 1208.0 1255.5Q1226 1273 1252 1273Q1252 1281 1258.0 1287.5Q1264 1294 1272 1294Q1281 1294 1287.0 1288.0Q1293 1282 1293 1273Q1301 1273 1307.5 1267.0Q1314 1261 1314 1253Q1322 1253 1328.0 1246.5Q1334 1240 1334 1232Q1334 1224 1328.0 1218.0Q1322 1212 1314 1212Q1314 1186 1296.0 1168.0Q1278 1150 1252 1150ZM1272 390Q1298 390 1316.0 372.5Q1334 355 1334 329Q1334 303 1316.0 285.0Q1298 267 1272 267Q1272 241 1254.5 223.5Q1237 206 1211 206Q1211 180 1193.0 162.0Q1175 144 1149 144Q1123 144 1105.5 162.0Q1088 180 1088 206Q1050 206 1016.5 220.5Q983 235 957.5 260.0Q932 285 917.5 318.5Q903 352 903 390Q903 428 917.5 462.0Q932 496 957.0 521.0Q982 546 1016.0 560.5Q1050 575 1088 575Q1126 575 1159.5 560.5Q1193 546 1218.0 520.5Q1243 495 1257.5 461.5Q1272 428 1272 390ZM1416 1150Q1442 1150 1460.0 1132.5Q1478 1115 1478 1089Q1478 1063 1460.0 1045.0Q1442 1027 1416 1027Q1416 1019 1410.0 1012.5Q1404 1006 1396 1006Q1388 1006 1381.5 1012.5Q1375 1019 1375 1027Q1367 1027 1361.0 1033.5Q1355 1040 1355 1048Q1347 1048 1340.5 1054.0Q1334 1060 1334 1068Q1334 1076 1340.5 1082.5Q1347 1089 1355 1089Q1355 1115 1372.5 1132.5Q1390 1150 1416 1150ZM1129 1438Q1155 1438 1172.5 1420.0Q1190 1402 1190 1376Q1190 1350 1172.5 1332.0Q1155 1314 1129 1314Q1129 1306 1122.5 1300.0Q1116 1294 1108 1294Q1100 1294 1094.0 1300.0Q1088 1306 1088 1314Q1080 1314 1073.5 1320.5Q1067 1327 1067 1335Q1059 1335 1053.0 1341.5Q1047 1348 1047 1356Q1047 1364 1053.0 1370.0Q1059 1376 1067 1376Q1067 1402 1085.0 1420.0Q1103 1438 1129 1438ZM1067 1623Q1059 1623 1053.0 1629.0Q1047 1635 1047 1643Q1047 1651 1053.0 1657.5Q1059 1664 1067 1664Q1067 1690 1085.0 1707.5Q1103 1725 1129 1725Q1155 1725 1172.5 1707.5Q1190 1690 1190 1664Q1190 1638 1172.5 1620.0Q1155 1602 1129 1602Q1129 1594 1122.5 1587.5Q1116 1581 1108 1581Q1100 1581 1094.0 1587.5Q1088 1594 1088 1602Q1079 1602 1073.0 1608.0Q1067 1614 1067 1623Z" style="fill:#f8ffb3;stroke:none" transform="scale(1,-1) translate(0,-256)" /></svg>