<?xml version="1.0" encoding="utf-8" ?>
<svg baseProfile="full" height="256" version="1.1" width="256" xmlns="http://www.w3.org/2000/svg" xmlns:ev="http://www.w3.org/2001/xml-events" xmlns:xlink="http://www.w3.org/1999/xlink"><defs /><path d="M974 1670Q974 1682 981.5 1692.0Q989 1702 999.5 1709.5Q1010 1717 1022.5 1721.0Q1035 1725 1046 1725Q1056 1725 1069.0 1721.0Q1082 1717 1092.5 1709.5Q1103 1702 1110.5 1692.0Q1118 1682 1118 1670V1438L974 1518ZM1477 1670Q1477 1682 1484.5 1692.0Q1492 1702 1502.5 1709.5Q1513 1717 1525.5 1721.0Q1538 1725 1549 1725Q1559 1725 1572.0 1721.0Q1585 1717 1595.5 1709.5Q1606 1702 1613.5 1692.0Q1621 1682 1621 1670V1518L1477 1438ZM1765 1670Q1765 1682 1772.5 1692.0Q1780 1702 1790.5 1709.5Q1801 1717 1813.5 1721.0Q1826 1725 1837 1725Q1847 1725 1860.0 1721.0Q1873 1717 1883.5 1709.5Q1894 1702 1901.5 1692.0Q1909 1682 1909 1670V1438L1765 1518ZM687 1670Q687 1682 694.5 1692.0Q702 1702 712.5 1709.5Q723 1717 735.5 1721.0Q748 1725 759 1725Q769 1725 782.0 1721.0Q795 1717 805.5 1709.5Q816 1702 823.5 1692.0Q831 1682 831 1670V1518L687 1438Z" style="fill:#383838;stroke:none" transform="scale(1,-1) translate(0,-256)" /></svg>