<?xml version="1.0" encoding="utf-8" ?>
<svg baseProfile="full" height="256" version="1.1" width="256" xmlns="http://www.w3.org/2000/svg" xmlns:ev="http://www.w3.org/2001/xml-events" xmlns:xlink="http://www.w3.org/1999/xlink"><defs /><path d="M1765 1330Q1765 1345 1775.5 1355.5Q1786 1366 1801 1366Q1816 1366 1826.5 1355.5Q1837 1345 1837 1330Q1837 1315 1826.5 1304.5Q1816 1294 1801 1294Q1786 1294 1775.5 1304.5Q1765 1315 1765 1330ZM1549 1330Q1549 1344 1560.0 1355.0Q1571 1366 1585 1366Q1600 1366 1610.5 1355.5Q1621 1345 1621 1330Q1621 1315 1610.5 1304.5Q1600 1294 1585 1294Q1571 1294 1560.0 1305.0Q1549 1316 1549 1330ZM975 1330Q975 1345 985.5 1355.5Q996 1366 1011 1366Q1026 1366 1036.5 1355.5Q1047 1345 1047 1330Q1047 1315 1036.5 1304.5Q1026 1294 1011 1294Q996 1294 985.5 1304.5Q975 1315 975 1330ZM759 1330Q759 1345 769.5 1355.5Q780 1366 795 1366Q810 1366 820.5 1355.5Q831 1345 831 1330Q831 1315 820.5 1304.5Q810 1294 795 1294Q780 1294 769.5 1304.5Q759 1315 759 1330Z" style="fill:#000000;stroke:none" transform="scale(1,-1) translate(0,-256)" /></svg>