<?xml version="1.0" encoding="utf-8" ?>
<svg baseProfile="full" height="256" version="1.1" width="256" xmlns="http://www.w3.org/2000/svg" xmlns:ev="http://www.w3.org/2001/xml-events" xmlns:xlink="http://www.w3.org/1999/xlink"><defs /><path d="M1693 1650Q1753 1650 1805.5 1627.5Q1858 1605 1897.0 1566.0Q1936 1527 1958.5 1475.0Q1981 1423 1981 1363V935H1406V1363Q1406 1422 1428.5 1474.5Q1451 1527 1490.0 1566.0Q1529 1605 1581.5 1627.5Q1634 1650 1693 1650ZM903 1650Q963 1650 1015.0 1627.5Q1067 1605 1106.0 1566.0Q1145 1527 1167.5 1475.0Q1190 1423 1190 1363V935H615V1363Q615 1423 637.5 1475.0Q660 1527 699.0 1566.0Q738 1605 790.5 1627.5Q843 1650 903 1650Z" style="fill:#8e562e;stroke:none" transform="scale(1,-1) translate(0,-256)" /></svg>