<?xml version="1.0" encoding="utf-8" ?>
<svg baseProfile="full" height="256" version="1.1" width="256" xmlns="http://www.w3.org/2000/svg" xmlns:ev="http://www.w3.org/2001/xml-events" xmlns:xlink="http://www.w3.org/1999/xlink"><defs /><path d="M1560 -216 1478 -144V503L1673 530Q1675 514 1678.5 491.0Q1682 468 1685.0 443.5Q1688 419 1690.5 396.5Q1693 374 1693 360L1752 513L1909 503L1825 581Q1833 591 1844.0 606.0Q1855 621 1866.5 636.5Q1878 652 1889.0 665.5Q1900 679 1909 688Q1918 696 1931.5 706.5Q1945 717 1960.0 727.5Q1975 738 1989.5 748.0Q2004 758 2015 766L1909 863L1922 946L2053 935L2175 809Q2196 786 2196 758Q2196 747 2190.5 731.0Q2185 715 2175 707L1909 503Q1958 340 2007.0 179.0Q2056 18 2107 -144L2060 -211L1938 -144L1693 360Q1693 335 1691.0 315.0Q1689 295 1685.5 276.0Q1682 257 1678.5 237.0Q1675 217 1672 192L1631 -144ZM562 -208 489 -144Q540 18 589.0 179.0Q638 340 687 503L421 707Q411 715 405.0 730.5Q399 746 399 758Q399 787 421 809L543 932H657L687 863L581 766Q604 749 635.5 728.0Q667 707 687 688Q696 679 707.0 666.5Q718 654 728.5 640.0Q739 626 749.0 612.5Q759 599 768 589L687 503L816 508L903 360L658 -144ZM1043 -214 965 -144 903 360 965 513 1118 503 1035 584 1118 719 1334 935 1446 951 1478 863 1118 503V-144ZM1118 1366Q1118 1365 1118.5 1364.5Q1119 1364 1119 1363Q1119 1318 1102.0 1279.0Q1085 1240 1055.5 1210.5Q1026 1181 987.0 1164.0Q948 1147 903 1147Q858 1147 819.0 1164.0Q780 1181 750.5 1210.5Q721 1240 704.0 1280.0Q687 1320 687 1366Q713 1366 731.0 1372.5Q749 1379 764.0 1388.5Q779 1398 794.5 1410.5Q810 1423 831 1435V1366Q850 1366 869.5 1374.0Q889 1382 903 1394V1365Q945 1365 977.0 1377.5Q1009 1390 1034 1425Q1037 1411 1045.5 1400.5Q1054 1390 1066.0 1382.0Q1078 1374 1091.5 1370.0Q1105 1366 1118 1366ZM1908 1366Q1908 1365 1908.5 1364.5Q1909 1364 1909 1363Q1909 1318 1892.0 1279.0Q1875 1240 1845.5 1210.5Q1816 1181 1777.0 1164.0Q1738 1147 1693 1147Q1648 1147 1609.0 1164.0Q1570 1181 1541.0 1210.5Q1512 1240 1495.0 1280.0Q1478 1320 1478 1366Q1503 1366 1521.0 1372.5Q1539 1379 1554.5 1389.0Q1570 1399 1585.0 1411.0Q1600 1423 1621 1435V1366Q1640 1366 1659.5 1374.0Q1679 1382 1693 1394V1365Q1735 1365 1767.0 1377.5Q1799 1390 1824 1425Q1827 1411 1835.5 1400.5Q1844 1390 1856.0 1382.0Q1868 1374 1881.5 1370.0Q1895 1366 1908 1366Z" style="fill:#ffc83d;stroke:none" transform="scale(1,-1) translate(0,-256)" /></svg>