<?xml version="1.0" encoding="utf-8" ?>
<svg baseProfile="full" height="256" version="1.1" width="256" xmlns="http://www.w3.org/2000/svg" xmlns:ev="http://www.w3.org/2001/xml-events" xmlns:xlink="http://www.w3.org/1999/xlink"><defs /><path d="M1837 1078Q1868 1078 1898.0 1063.5Q1928 1049 1955.5 1027.0Q1983 1005 2007.0 980.5Q2031 956 2052 935L1909 863V503L1693 360L1477 503V863L1334 935Q1355 956 1379.0 980.5Q1403 1005 1430.5 1027.0Q1458 1049 1487.5 1063.5Q1517 1078 1549 1078ZM1046 1078Q1078 1078 1108.0 1063.5Q1138 1049 1165.0 1027.0Q1192 1005 1216.5 980.5Q1241 956 1262 935L1118 863V503L903 360L687 503V863L543 935Q564 956 588.5 980.5Q613 1005 640.0 1027.0Q667 1049 697.0 1063.5Q727 1078 759 1078ZM471 -214Q471 -196 477.5 -178.5Q484 -161 489 -144H658L607 -250Q599 -267 580.0 -277.0Q561 -287 543 -287Q511 -287 491.0 -266.0Q471 -245 471 -214ZM2107 -144Q2112 -161 2118.0 -178.0Q2124 -195 2124 -213Q2124 -244 2104.5 -265.5Q2085 -287 2053 -287Q2035 -287 2016.0 -277.0Q1997 -267 1989 -250L1938 -144ZM1478 -144H1631Q1628 -165 1626.5 -189.5Q1625 -214 1617.5 -236.0Q1610 -258 1595.0 -272.5Q1580 -287 1550 -287Q1520 -287 1499.0 -266.0Q1478 -245 1478 -215ZM1046 -287Q1016 -287 1001.0 -272.5Q986 -258 978.5 -236.0Q971 -214 969.5 -189.5Q968 -165 965 -144H1118V-215Q1118 -245 1097.0 -266.0Q1076 -287 1046 -287Z" style="fill:#383838;stroke:none" transform="scale(1,-1) translate(0,-256)" /></svg>