<?xml version="1.0" encoding="utf-8" ?>
<svg baseProfile="full" height="256" version="1.1" width="256" xmlns="http://www.w3.org/2000/svg" xmlns:ev="http://www.w3.org/2001/xml-events" xmlns:xlink="http://www.w3.org/1999/xlink"><defs /><path d="M2328 790Q2332 791 2339 791Q2368 791 2390.0 770.0Q2412 749 2412 719Q2412 689 2391.0 668.0Q2370 647 2340 647Q2332 647 2328 648L2327 645Q2344 635 2354.0 618.5Q2364 602 2364 582Q2364 553 2342.5 531.5Q2321 510 2292 510Q2279 510 2271.0 513.5Q2263 517 2254 522Q2251 525 2249 525Q2246 528 2244 528L2241 525Q2257 504 2257 480Q2257 451 2235.5 430.0Q2214 409 2185 409Q2167 409 2150.5 418.0Q2134 427 2124 443L2120 441Q2125 436 2126.5 425.5Q2128 415 2128 409Q2128 380 2106.5 358.5Q2085 337 2056 337Q2033 337 2016.5 349.5Q2000 362 1989 382L1985 381Q1987 377 1988.0 369.5Q1989 362 1989 358Q1989 328 1967.5 307.0Q1946 286 1917 286Q1894 286 1874.0 300.5Q1854 315 1848 339L1844 335Q1844 332 1844.5 328.5Q1845 325 1845 321Q1845 292 1824.0 271.0Q1803 250 1774 250Q1763 250 1751.0 255.0Q1739 260 1728.0 268.0Q1717 276 1710.0 286.0Q1703 296 1703 306V310L1699 309V298Q1699 286 1694.0 273.5Q1689 261 1680.0 251.0Q1671 241 1659.5 234.5Q1648 228 1635 228Q1604 228 1582.5 244.0Q1561 260 1556 293L1552 291Q1552 277 1546.5 264.0Q1541 251 1532.0 240.5Q1523 230 1510.5 223.5Q1498 217 1483 217Q1452 217 1431.0 235.5Q1410 254 1408 286Q1408 288 1406 288Q1404 288 1404 286Q1402 257 1381.5 237.0Q1361 217 1332 217Q1301 217 1280.5 239.0Q1260 261 1260 293H1256V288Q1256 276 1249.0 265.0Q1242 254 1231.0 246.0Q1220 238 1207.5 233.0Q1195 228 1185 228Q1154 228 1133.5 249.0Q1113 270 1113 300V309L1109 310V306Q1109 296 1102.0 286.0Q1095 276 1084.0 268.0Q1073 260 1060.5 255.0Q1048 250 1038 250Q1009 250 988.0 271.0Q967 292 967 321Q967 325 967.5 329.0Q968 333 968 338L964 337Q958 314 938.0 300.0Q918 286 895 286Q865 286 844.0 307.0Q823 328 823 358Q823 369 827 380L823 382Q812 362 795.5 349.5Q779 337 756 337Q727 337 705.5 358.5Q684 380 684 409Q684 415 685.5 425.5Q687 436 692 441L688 443Q678 427 661.5 418.0Q645 409 627 409Q598 409 576.5 430.0Q555 451 555 480Q555 504 571 525L568 528Q556 520 545.5 515.0Q535 510 520 510Q491 510 469.5 531.5Q448 553 448 582Q448 602 458.0 618.5Q468 635 485 645L484 648Q480 647 472 647Q444 647 422.0 666.5Q400 686 400 716Q400 748 420.0 769.5Q440 791 473 791Q480 791 484 790Q502 840 539.5 881.5Q577 923 626.0 957.0Q675 991 732.5 1017.5Q790 1044 849.0 1064.0Q908 1084 964.0 1098.0Q1020 1112 1067 1121Q1151 1136 1235.5 1143.0Q1320 1150 1406 1150Q1492 1150 1576.5 1143.0Q1661 1136 1745 1121Q1792 1112 1848.0 1098.0Q1904 1084 1963.0 1064.0Q2022 1044 2079.5 1017.5Q2137 991 2186.0 957.0Q2235 923 2272.5 881.5Q2310 840 2328 790Z" style="fill:#eba300;stroke:none" transform="scale(1,-1) translate(0,-256)" /></svg>