<?xml version="1.0" encoding="utf-8" ?>
<svg baseProfile="full" height="256" version="1.1" width="256" xmlns="http://www.w3.org/2000/svg" xmlns:ev="http://www.w3.org/2001/xml-events" xmlns:xlink="http://www.w3.org/1999/xlink"><defs /><path d="M1478 503Q1478 474 1456.5 452.5Q1435 431 1406 431Q1377 431 1355.5 452.5Q1334 474 1334 503Q1334 516 1343.0 546.0Q1352 576 1364.0 609.0Q1376 642 1388.0 672.5Q1400 703 1406 719Q1412 703 1424.0 672.5Q1436 642 1448.0 609.0Q1460 576 1469.0 546.0Q1478 516 1478 503ZM687 719Q658 719 636.5 740.5Q615 762 615 791Q615 820 636.5 841.5Q658 863 687 863Q700 863 730.0 854.0Q760 845 793.0 833.0Q826 821 856.5 809.0Q887 797 903 791Q887 785 856.5 773.0Q826 761 793.0 749.0Q760 737 730.0 728.0Q700 719 687 719ZM2125 719Q2154 719 2175.5 740.5Q2197 762 2197 791Q2197 820 2175.5 841.5Q2154 863 2125 863Q2111 863 2081.5 854.0Q2052 845 2019.0 833.0Q1986 821 1955.5 809.0Q1925 797 1909 791Q1925 785 1955.5 773.0Q1986 761 2019.0 749.0Q2052 737 2081.5 728.0Q2111 719 2125 719ZM972 504Q943 504 923.0 524.0Q903 544 903 572Q903 601 923 621Q931 630 957.5 644.0Q984 658 1014.5 672.5Q1045 687 1074.5 700.0Q1104 713 1118 719Q1112 705 1099.5 676.0Q1087 647 1072.5 616.0Q1058 585 1044.0 559.0Q1030 533 1021 524Q1001 504 972 504ZM1840 504Q1869 504 1889.0 524.0Q1909 544 1909 572Q1909 601 1889 621Q1881 630 1854.5 644.0Q1828 658 1797.0 672.5Q1766 687 1736.5 700.0Q1707 713 1693 719Q1699 705 1712.0 675.5Q1725 646 1739.5 615.5Q1754 585 1768.0 558.5Q1782 532 1791 524Q1811 504 1840 504Z" style="fill:#af0d1a;stroke:none" transform="scale(1,-1) translate(0,-256)" /></svg>