<?xml version="1.0" encoding="utf-8" ?>
<svg baseProfile="full" height="256" version="1.1" width="256" xmlns="http://www.w3.org/2000/svg" xmlns:ev="http://www.w3.org/2001/xml-events" xmlns:xlink="http://www.w3.org/1999/xlink"><defs /><path d="M2241 279Q2237 267 2230.5 245.5Q2224 224 2215.5 197.5Q2207 171 2197.5 143.0Q2188 115 2179.0 90.0Q2170 65 2161.5 45.5Q2153 26 2146 17Q2111 -28 2057.5 -62.5Q2004 -97 1939.0 -122.5Q1874 -148 1802.0 -166.0Q1730 -184 1659.5 -194.5Q1589 -205 1523.5 -210.0Q1458 -215 1406 -215Q1353 -215 1287.5 -210.5Q1222 -206 1151.5 -195.0Q1081 -184 1009.5 -166.5Q938 -149 873.5 -123.0Q809 -97 755.0 -62.5Q701 -28 666 17Q659 26 650.0 46.5Q641 67 631.5 93.0Q622 119 612.5 148.0Q603 177 594.5 203.0Q586 229 579.5 249.5Q573 270 570 279Z" style="fill:#cccccc;stroke:none" transform="scale(1,-1) translate(0,-256)" /></svg>