<?xml version="1.0" encoding="utf-8" ?>
<svg baseProfile="full" height="256" version="1.1" width="256" xmlns="http://www.w3.org/2000/svg" xmlns:ev="http://www.w3.org/2001/xml-events" xmlns:xlink="http://www.w3.org/1999/xlink"><defs /><path d="M1406 -359Q1339 -359 1262.5 -353.0Q1186 -347 1107.0 -334.0Q1028 -321 949.0 -299.5Q870 -278 798.0 -246.5Q726 -215 663.5 -172.5Q601 -130 556 -75Q538 -53 527.0 -32.5Q516 -12 507 15L415 290Q346 353 301.0 434.0Q256 515 256 611Q256 626 258.5 641.5Q261 657 261 672Q261 683 258.5 695.0Q256 707 256 719Q256 751 265.5 781.5Q275 812 292.0 838.0Q309 864 333.5 884.5Q358 905 388 917Q438 996 514.0 1053.0Q590 1110 673 1149Q610 1227 576.5 1318.5Q543 1410 543 1510Q543 1554 560.0 1593.0Q577 1632 606.5 1661.5Q636 1691 675.5 1708.0Q715 1725 759 1725Q803 1725 842.5 1708.0Q882 1691 911.5 1661.5Q941 1632 958.0 1593.0Q975 1554 975 1510Q975 1554 992.0 1593.0Q1009 1632 1038.0 1661.5Q1067 1691 1106.5 1708.0Q1146 1725 1190 1725Q1234 1725 1273.5 1708.0Q1313 1691 1342.5 1661.5Q1372 1632 1389.0 1593.0Q1406 1554 1406 1510Q1406 1554 1423.0 1593.0Q1440 1632 1469.5 1661.5Q1499 1691 1538.5 1708.0Q1578 1725 1622 1725Q1666 1725 1705.0 1708.0Q1744 1691 1773.5 1661.5Q1803 1632 1820.0 1593.0Q1837 1554 1837 1510Q1837 1472 1856.5 1442.0Q1876 1412 1903 1388Q1955 1343 1996.5 1293.0Q2038 1243 2068 1180Q2119 1160 2169.5 1134.0Q2220 1108 2267.0 1075.5Q2314 1043 2354.0 1003.5Q2394 964 2424 917Q2454 907 2478.0 886.0Q2502 865 2519.5 838.0Q2537 811 2546.5 780.0Q2556 749 2556 719Q2556 708 2553.5 696.0Q2551 684 2551 673Q2551 658 2553.5 642.5Q2556 627 2556 611Q2556 515 2511.0 434.0Q2466 353 2397 290L2305 15Q2288 -36 2256 -75Q2211 -130 2149.5 -172.0Q2088 -214 2015.5 -246.0Q1943 -278 1863.5 -299.5Q1784 -321 1704.5 -334.0Q1625 -347 1548.5 -353.0Q1472 -359 1406 -359Z" style="fill:#000000;stroke:none" transform="scale(1,-1) translate(0,-256)" /></svg>