<?xml version="1.0" encoding="utf-8" ?>
<svg baseProfile="full" height="256" version="1.1" width="256" xmlns="http://www.w3.org/2000/svg" xmlns:ev="http://www.w3.org/2001/xml-events" xmlns:xlink="http://www.w3.org/1999/xlink"><defs /><path d="M400 611Q400 649 411 681H2401Q2412 645 2412 611Q2412 544 2379.0 488.5Q2346 433 2292.0 388.0Q2238 343 2169.5 307.5Q2101 272 2030.0 246.0Q1959 220 1892.0 202.5Q1825 185 1774 176Q1682 159 1590.5 151.5Q1499 144 1406 144Q1313 144 1221.5 151.5Q1130 159 1038 176Q987 185 920.0 202.5Q853 220 782.0 246.0Q711 272 642.5 307.5Q574 343 520.0 388.0Q466 433 433.0 488.5Q400 544 400 611Z" style="fill:#d48c00;stroke:none" transform="scale(1,-1) translate(0,-256)" /></svg>