<?xml version="1.0" encoding="utf-8" ?>
<svg baseProfile="full" height="256" version="1.1" width="256" xmlns="http://www.w3.org/2000/svg" xmlns:ev="http://www.w3.org/2001/xml-events" xmlns:xlink="http://www.w3.org/1999/xlink"><defs /><path d="M705 827Q705 871 726.0 907.5Q747 944 781.5 974.5Q816 1005 860.0 1029.0Q904 1053 950.0 1071.0Q996 1089 1039.5 1101.5Q1083 1114 1117 1121Q1189 1136 1261.0 1143.0Q1333 1150 1406 1150Q1479 1150 1551.0 1143.0Q1623 1136 1695 1121Q1729 1114 1772.5 1101.5Q1816 1089 1862.0 1071.0Q1908 1053 1952.0 1029.0Q1996 1005 2030.5 974.5Q2065 944 2086.0 907.5Q2107 871 2107 827Q2107 782 2085.0 744.0Q2063 706 2027.0 675.5Q1991 645 1945.0 620.5Q1899 596 1851.5 577.5Q1804 559 1758.5 547.0Q1713 535 1679 528Q1611 515 1543.0 509.0Q1475 503 1406 503Q1337 503 1269.0 509.0Q1201 515 1133 528Q1098 535 1053.0 547.0Q1008 559 960.5 577.5Q913 596 867.0 620.5Q821 645 785.0 675.5Q749 706 727.0 744.0Q705 782 705 827Z" style="fill:#ffc83d;stroke:none" transform="scale(1,-1) translate(0,-256)" /></svg>