<?xml version="1.0" encoding="utf-8" ?>
<svg baseProfile="full" height="256" version="1.1" width="256" xmlns="http://www.w3.org/2000/svg" xmlns:ev="http://www.w3.org/2001/xml-events" xmlns:xlink="http://www.w3.org/1999/xlink"><defs /><path d="M1047 863Q1017 863 996.0 884.0Q975 905 975 935Q975 1006 942.5 1064.0Q910 1122 857 1167Q778 1234 732.5 1319.0Q687 1404 687 1510Q687 1539 708.5 1560.0Q730 1581 759 1581Q788 1581 809.5 1560.0Q831 1539 831 1510Q831 1438 863.5 1380.0Q896 1322 949 1277Q1027 1210 1072.5 1125.0Q1118 1040 1118 935Q1118 906 1097.0 884.5Q1076 863 1047 863ZM1478 863Q1448 863 1427.0 884.0Q1406 905 1406 935Q1406 1006 1373.5 1064.0Q1341 1122 1288 1167Q1210 1234 1164.0 1319.0Q1118 1404 1118 1510Q1118 1539 1139.5 1560.0Q1161 1581 1190 1581Q1219 1581 1240.5 1560.0Q1262 1539 1262 1510Q1262 1438 1294.5 1380.0Q1327 1322 1380 1277Q1458 1210 1504.0 1125.0Q1550 1040 1550 935Q1550 905 1529.0 884.0Q1508 863 1478 863ZM1909 863Q1879 863 1858.0 884.0Q1837 905 1837 935Q1837 1006 1804.5 1064.0Q1772 1122 1719 1167Q1641 1234 1595.5 1319.0Q1550 1404 1550 1510Q1550 1539 1571.5 1560.0Q1593 1581 1622 1581Q1651 1581 1672.0 1560.0Q1693 1539 1693 1510Q1693 1438 1725.5 1380.0Q1758 1322 1811 1277Q1890 1210 1935.5 1125.5Q1981 1041 1981 935Q1981 905 1960.0 884.0Q1939 863 1909 863Z" style="fill:#f2f2f2;stroke:none" transform="scale(1,-1) translate(0,-256)" /></svg>