<?xml version="1.0" encoding="utf-8" ?>
<svg baseProfile="full" height="256" version="1.1" width="256" xmlns="http://www.w3.org/2000/svg" xmlns:ev="http://www.w3.org/2001/xml-events" xmlns:xlink="http://www.w3.org/1999/xlink"><defs /><path d="M1622 -52Q1603 -52 1589.5 -43.0Q1576 -34 1563.5 -20.0Q1551 -6 1538.0 10.0Q1525 26 1507.5 40.0Q1490 54 1465.5 63.0Q1441 72 1406 72Q1371 72 1346.5 63.0Q1322 54 1304.5 40.0Q1287 26 1274.0 10.0Q1261 -6 1249.0 -20.0Q1237 -34 1223.5 -43.0Q1210 -52 1191 -52Q1161 -52 1139.5 -30.5Q1118 -9 1118 21Q1118 32 1120.5 39.5Q1123 47 1128 57Q1147 94 1177.5 123.5Q1208 153 1245.0 173.5Q1282 194 1323.5 205.0Q1365 216 1406 216Q1447 216 1488.0 205.0Q1529 194 1566.0 173.5Q1603 153 1633.0 123.5Q1663 94 1683 57Q1688 47 1690.5 39.0Q1693 31 1693 20Q1693 -9 1672.0 -30.5Q1651 -52 1622 -52Z" style="fill:#cccccc;stroke:none" transform="scale(1,-1) translate(0,-256)" /></svg>