<?xml version="1.0" encoding="utf-8" ?>
<svg baseProfile="full" height="256" version="1.1" width="256" xmlns="http://www.w3.org/2000/svg" xmlns:ev="http://www.w3.org/2001/xml-events" xmlns:xlink="http://www.w3.org/1999/xlink"><defs /><path d="M1083 -287H903Q897 -276 881.0 -246.0Q865 -216 842.0 -173.5Q819 -131 791.5 -80.0Q764 -29 736.0 23.0Q708 75 682.0 124.5Q656 174 636.0 213.5Q616 253 604.0 278.5Q592 304 592 308Q592 330 612 340L723 396L540 487Q525 495 516.5 508.5Q508 522 508 539Q508 556 516.5 569.5Q525 583 540 591L867 755ZM1514 755 1841 591Q1856 583 1864.5 569.5Q1873 556 1873 539Q1873 522 1864.5 508.5Q1856 495 1841 487L1658 396L1768 340Q1788 330 1788 308Q1788 303 1776.0 277.5Q1764 252 1744.0 213.0Q1724 174 1698.0 124.5Q1672 75 1644.5 23.0Q1617 -29 1589.5 -80.0Q1562 -131 1539.0 -173.5Q1516 -216 1500.0 -246.0Q1484 -276 1478 -287H1298Z" style="fill:#757575;stroke:none" transform="scale(1,-1) translate(0,-256)" /></svg>