<?xml version="1.0" encoding="utf-8" ?>
<svg baseProfile="full" height="256" version="1.1" width="256" xmlns="http://www.w3.org/2000/svg" xmlns:ev="http://www.w3.org/2001/xml-events" xmlns:xlink="http://www.w3.org/1999/xlink"><defs /><path d="M2125 755Q2125 693 2103.0 637.5Q2081 582 2042.5 539.0Q2004 496 1951.0 468.0Q1898 440 1837 433V194H1765V433Q1703 440 1650.5 468.0Q1598 496 1560.0 539.5Q1522 583 1500.0 638.0Q1478 693 1478 755Q1478 822 1503.5 880.5Q1529 939 1573.0 983.0Q1617 1027 1675.5 1052.5Q1734 1078 1801 1078Q1868 1078 1927.0 1052.5Q1986 1027 2030.0 983.5Q2074 940 2099.5 881.0Q2125 822 2125 755Z" style="fill:#a6a6a6;stroke:none" transform="scale(1,-1) translate(0,-256)" /></svg>