<?xml version="1.0" encoding="utf-8" ?>
<svg baseProfile="full" height="256" version="1.1" width="256" xmlns="http://www.w3.org/2000/svg" xmlns:ev="http://www.w3.org/2001/xml-events" xmlns:xlink="http://www.w3.org/1999/xlink"><defs /><path d="M2340 -139Q2340 -199 2318.0 -252.5Q2296 -306 2257.5 -345.5Q2219 -385 2166.5 -408.0Q2114 -431 2053 -431H256V-120Q256 8 306.0 126.0Q356 244 450 332Q452 340 453.5 350.0Q455 360 459 368Q414 395 389.0 441.0Q364 487 364 539Q364 588 380.0 622.0Q396 656 422.5 680.5Q449 705 483.5 723.5Q518 742 556 760L587 775L581 791H549Q546 842 544.0 894.0Q542 946 542 998Q542 1012 542.5 1026.0Q543 1040 543 1054Q493 1088 464.5 1122.0Q436 1156 421.5 1192.5Q407 1229 403.5 1269.0Q400 1309 400 1357V1438H620L706 1697Q719 1736 742.5 1767.5Q766 1799 797.5 1821.5Q829 1844 866.5 1856.5Q904 1869 945 1869Q980 1869 1011.5 1859.0Q1043 1849 1073.0 1834.0Q1103 1819 1132.0 1801.0Q1161 1783 1190 1766Q1219 1782 1248.0 1800.5Q1277 1819 1307.0 1834.0Q1337 1849 1368.5 1859.0Q1400 1869 1435 1869Q1476 1869 1513.5 1856.5Q1551 1844 1582.5 1821.5Q1614 1799 1638.0 1767.0Q1662 1735 1675 1696L1761 1438H1981V1294Q1981 1242 1960 1194Q2029 1169 2086.0 1125.0Q2143 1081 2183.5 1023.5Q2224 966 2246.0 897.5Q2268 829 2268 755Q2268 687 2249.5 623.5Q2231 560 2196.0 505.0Q2161 450 2111.5 406.0Q2062 362 2001 333Q2029 317 2047 297L2260 69Q2301 25 2320.5 -27.0Q2340 -79 2340 -139Z" style="fill:#000000;stroke:none" transform="scale(1,-1) translate(0,-256)" /></svg>