<?xml version="1.0" encoding="utf-8" ?>
<svg baseProfile="full" height="256" version="1.1" width="256" xmlns="http://www.w3.org/2000/svg" xmlns:ev="http://www.w3.org/2001/xml-events" xmlns:xlink="http://www.w3.org/1999/xlink"><defs /><path d="M1673 1006Q1673 903 1637.0 811.5Q1601 720 1536.5 651.5Q1472 583 1383.5 543.0Q1295 503 1190 503Q1094 503 1010.0 535.5Q926 568 860.5 626.0Q795 684 751.0 763.0Q707 842 692 935Q691 938 691 945Q691 961 694.5 975.5Q698 990 698 1006V1078Q698 1110 708.0 1146.5Q718 1183 729 1213Q756 1291 801.0 1345.0Q846 1399 904.5 1433.0Q963 1467 1033.5 1482.5Q1104 1498 1183 1498H1210Q1290 1498 1361.0 1485.5Q1432 1473 1489.5 1441.5Q1547 1410 1588.5 1354.5Q1630 1299 1651 1214Q1659 1182 1665.5 1146.5Q1672 1111 1673 1078Z" style="fill:#ffc83d;stroke:none" transform="scale(1,-1) translate(0,-256)" /></svg>