<?xml version="1.0" encoding="utf-8" ?>
<svg baseProfile="full" height="256" version="1.1" width="256" xmlns="http://www.w3.org/2000/svg" xmlns:ev="http://www.w3.org/2001/xml-events" xmlns:xlink="http://www.w3.org/1999/xlink"><defs /><path d="M1837 1294Q1837 1258 1815.5 1228.0Q1794 1198 1760.0 1174.0Q1726 1150 1683.0 1131.5Q1640 1113 1597.0 1099.0Q1554 1085 1515.0 1076.0Q1476 1067 1450 1063Q1385 1052 1320.5 1047.0Q1256 1042 1190 1042Q1124 1042 1059.5 1047.0Q995 1052 931 1063Q904 1067 865.0 1076.0Q826 1085 783.0 1099.0Q740 1113 697.0 1131.5Q654 1150 620.0 1174.0Q586 1198 564.5 1228.0Q543 1258 543 1294H723L819 1366L771 1438L842 1651Q853 1683 881.5 1704.0Q910 1725 945 1725Q974 1725 1000 1710L1190 1599L1381 1710Q1406 1725 1435 1725Q1470 1725 1498.5 1705.0Q1527 1685 1538 1651L1609 1438L1579 1366L1658 1294Z" style="fill:#757575;stroke:none" transform="scale(1,-1) translate(0,-256)" /></svg>