<?xml version="1.0" encoding="utf-8" ?>
<svg baseProfile="full" height="256" version="1.1" width="256" xmlns="http://www.w3.org/2000/svg" xmlns:ev="http://www.w3.org/2001/xml-events" xmlns:xlink="http://www.w3.org/1999/xlink"><defs /><path d="M2196 -132Q2196 -164 2186.0 -192.0Q2176 -220 2157.5 -241.0Q2139 -262 2112.5 -274.5Q2086 -287 2053 -287H1765Q1736 -287 1714.5 -265.5Q1693 -244 1693 -215Q1664 -215 1643.0 -194.0Q1622 -173 1622 -144V0Q1622 29 1643.0 50.5Q1664 72 1693 72H1909V215Q1931 212 1944 197L2155 -29Q2196 -73 2196 -132Z" style="fill:#ffc83d;stroke:none" transform="scale(1,-1) translate(0,-256)" /></svg>