<?xml version="1.0" encoding="utf-8" ?>
<svg baseProfile="full" height="256" version="1.1" width="256" xmlns="http://www.w3.org/2000/svg" xmlns:ev="http://www.w3.org/2001/xml-events" xmlns:xlink="http://www.w3.org/1999/xlink"><defs /><path d="M2053 755Q2053 703 2033.0 657.0Q2013 611 1979.0 577.0Q1945 543 1899.0 523.0Q1853 503 1801 503Q1749 503 1703.0 523.0Q1657 543 1623.0 577.0Q1589 611 1569.5 657.0Q1550 703 1550 755Q1550 807 1569.5 853.0Q1589 899 1623.0 933.0Q1657 967 1703.0 986.5Q1749 1006 1801 1006Q1853 1006 1899.0 986.5Q1945 967 1979.0 933.0Q2013 899 2033.0 853.0Q2053 807 2053 755Z" style="fill:#31d2f7;stroke:none" transform="scale(1,-1) translate(0,-256)" /></svg>