<?xml version="1.0" encoding="utf-8" ?>
<svg baseProfile="full" height="256" version="1.1" width="256" xmlns="http://www.w3.org/2000/svg" xmlns:ev="http://www.w3.org/2001/xml-events" xmlns:xlink="http://www.w3.org/1999/xlink"><defs /><path d="M1945 216Q1896 216 1851.0 234.0Q1806 252 1771 286L1694 479Q1696 529 1717.0 573.0Q1738 617 1771.5 649.5Q1805 682 1850.0 700.5Q1895 719 1945 719H2089Q2139 719 2183.5 700.0Q2228 681 2262.0 648.5Q2296 616 2317.0 572.5Q2338 529 2340 479L2263 286Q2228 253 2182.5 234.5Q2137 216 2089 216ZM1298 1222Q1313 1222 1323.5 1211.5Q1334 1201 1334 1186V1078Q1334 1049 1312.5 1027.5Q1291 1006 1262 1006V1072Q1260 1044 1239.0 1025.0Q1218 1006 1190 1006V1072Q1188 1044 1167.0 1025.0Q1146 1006 1118 1006V1186Q1118 1200 1129.0 1211.0Q1140 1222 1154 1222Q1169 1222 1179.5 1211.5Q1190 1201 1190 1186Q1190 1201 1200.5 1211.5Q1211 1222 1226 1222Q1241 1222 1251.5 1211.5Q1262 1201 1262 1186Q1262 1201 1272.5 1211.5Q1283 1222 1298 1222ZM2161 1617Q2175 1617 2186.0 1606.0Q2197 1595 2197 1581V1474Q2197 1445 2175.5 1423.5Q2154 1402 2125 1402V1468Q2123 1440 2102.0 1421.0Q2081 1402 2053 1402V1468Q2051 1440 2030.5 1421.0Q2010 1402 1981 1402V1581Q1981 1596 1991.5 1606.5Q2002 1617 2017 1617Q2031 1617 2041.0 1607.5Q2051 1598 2053 1584Q2054 1598 2064.5 1607.5Q2075 1617 2089 1617Q2103 1617 2113.0 1607.5Q2123 1598 2125 1584Q2126 1598 2136.5 1607.5Q2147 1617 2161 1617Z" style="fill:#f7d7c4;stroke:none" transform="scale(1,-1) translate(0,-256)" /></svg>