<?xml version="1.0" encoding="utf-8" ?>
<svg baseProfile="full" height="256" version="1.1" width="256" xmlns="http://www.w3.org/2000/svg" xmlns:ev="http://www.w3.org/2001/xml-events" xmlns:xlink="http://www.w3.org/1999/xlink"><defs /><path d="M1873 575Q1895 575 1915.0 566.5Q1935 558 1949.5 543.5Q1964 529 1972.5 509.0Q1981 489 1981 467Q1981 444 1972.5 424.5Q1964 405 1949.0 391.0Q1934 377 1914.5 368.5Q1895 360 1873 360Q1838 360 1810.0 339.5Q1782 319 1771 286Q1734 321 1713.5 368.5Q1693 416 1693 467Q1693 470 1693.5 473.0Q1694 476 1694 479Q1723 524 1771.0 549.5Q1819 575 1873 575ZM2340 479Q2340 422 2322.5 374.0Q2305 326 2263 286Q2252 319 2224.0 339.5Q2196 360 2161 360Q2139 360 2119.5 368.5Q2100 377 2085.0 391.0Q2070 405 2061.5 424.5Q2053 444 2053 467Q2053 489 2061.5 509.0Q2070 529 2084.5 543.5Q2099 558 2118.5 566.5Q2138 575 2161 575Q2215 575 2262.5 549.5Q2310 524 2340 479Z" style="fill:#757575;stroke:none" transform="scale(1,-1) translate(0,-256)" /></svg>