<?xml version="1.0" encoding="utf-8" ?>
<svg baseProfile="full" height="256" version="1.1" width="256" xmlns="http://www.w3.org/2000/svg" xmlns:ev="http://www.w3.org/2001/xml-events" xmlns:xlink="http://www.w3.org/1999/xlink"><defs /><path d="M2197 575 1693 395 1918 1434 2142 1546 1981 1581V1626L1957 1614Q1970 1669 2000.0 1697.0Q2030 1725 2088 1725H2125Q2154 1725 2175.5 1703.5Q2197 1682 2197 1653ZM1039 994 1334 1142V431H1262Q1173 431 1092.5 463.0Q1012 495 944 551ZM1262 1366Q1292 1366 1313.0 1345.0Q1334 1324 1334 1294V1186L1226 1133L1118 1186V1195L1077 1174Q1084 1205 1090.5 1239.0Q1097 1273 1110.5 1301.5Q1124 1330 1148.5 1348.0Q1173 1366 1215 1366Q1222 1366 1225 1365Z" style="fill:#8e562e;stroke:none" transform="scale(1,-1) translate(0,-256)" /></svg>