<?xml version="1.0" encoding="utf-8" ?>
<svg baseProfile="full" height="256" version="1.1" width="256" xmlns="http://www.w3.org/2000/svg" xmlns:ev="http://www.w3.org/2001/xml-events" xmlns:xlink="http://www.w3.org/1999/xlink"><defs /><path d="M2017 288Q2009 288 1991.0 291.0Q1973 294 1955.0 299.5Q1937 305 1923.0 312.5Q1909 320 1909 330Q1909 344 1922 344Q1924 344 1933.5 339.5Q1943 335 1956.5 330.0Q1970 325 1986.0 320.5Q2002 316 2017 316Q2032 316 2047.5 320.5Q2063 325 2076.5 330.0Q2090 335 2099.5 339.5Q2109 344 2112 344Q2117 344 2121.0 339.5Q2125 335 2125 329Q2125 320 2111.0 312.0Q2097 304 2079.0 299.0Q2061 294 2043.0 291.0Q2025 288 2017 288Z" style="fill:#d8b094;stroke:none" transform="scale(1,-1) translate(0,-256)" /></svg>