<?xml version="1.0" encoding="utf-8" ?>
<svg baseProfile="full" height="256" version="1.1" width="256" xmlns="http://www.w3.org/2000/svg" xmlns:ev="http://www.w3.org/2001/xml-events" xmlns:xlink="http://www.w3.org/1999/xlink"><defs /><path d="M1909 467Q1909 453 1898.0 442.0Q1887 431 1873 431Q1859 431 1848.0 442.0Q1837 453 1837 467Q1837 482 1847.5 492.5Q1858 503 1873 503Q1888 503 1898.5 492.5Q1909 482 1909 467ZM2125 467Q2125 482 2135.5 492.5Q2146 503 2161 503Q2175 503 2186.0 492.0Q2197 481 2197 467Q2197 453 2186.0 442.0Q2175 431 2161 431Q2147 431 2136.0 442.0Q2125 453 2125 467Z" style="fill:#000000;stroke:none" transform="scale(1,-1) translate(0,-256)" /></svg>