<?xml version="1.0" encoding="utf-8" ?>
<svg baseProfile="full" height="256" version="1.1" width="256" xmlns="http://www.w3.org/2000/svg" xmlns:ev="http://www.w3.org/2001/xml-events" xmlns:xlink="http://www.w3.org/1999/xlink"><defs /><path d="M472 719Q442 719 421.0 739.5Q400 760 400 790Q400 810 410.5 828.0Q421 846 439 855L1077 1174L1191 1278Q1193 1278 1204.5 1280.0Q1216 1282 1232.0 1284.5Q1248 1287 1266.0 1290.0Q1284 1293 1299.0 1295.5Q1314 1298 1324.0 1300.0Q1334 1302 1334 1302L1957 1614Q1958 1614 1972.5 1626.0Q1987 1638 2004.5 1653.0Q2022 1668 2037.0 1681.0Q2052 1694 2055 1696L2161 1716Q2167 1721 2177.5 1723.0Q2188 1725 2196 1725Q2225 1725 2247.0 1704.0Q2269 1683 2269 1653Q2269 1630 2260.5 1617.5Q2252 1605 2240.5 1597.5Q2229 1590 2216.5 1585.0Q2204 1580 2197 1573L2077 1458Q2073 1457 2047.5 1453.5Q2022 1450 1993.5 1445.5Q1965 1441 1941.5 1437.5Q1918 1434 1918 1434L1529 1239Q1500 1225 1476.5 1214.0Q1453 1203 1430.5 1192.5Q1408 1182 1384.5 1170.0Q1361 1158 1334 1142Q1332 1141 1312.0 1122.5Q1292 1104 1267.0 1081.5Q1242 1059 1220.5 1038.5Q1199 1018 1195 1014Q1191 1014 1166.0 1010.5Q1141 1007 1113.0 1003.5Q1085 1000 1062.0 997.0Q1039 994 1039 994Q1012 983 990.5 972.5Q969 962 949.0 951.5Q929 941 908.0 929.5Q887 918 861 905L504 727Q488 719 472 719ZM1539 355Q1539 328 1527.0 291.0Q1515 254 1494.0 221.0Q1473 188 1445.5 164.5Q1418 141 1387 141Q1336 141 1283.0 146.5Q1230 152 1179 155Q1138 158 1091.5 168.0Q1045 178 1000.5 196.5Q956 215 917.5 241.0Q879 267 853 302Q851 305 847.5 310.5Q844 316 840.5 322.0Q837 328 834.0 334.0Q831 340 831 343Q821 440 813.0 536.0Q805 632 796 729Q825 678 862.0 633.5Q899 589 944 551L1146 566L1334 431Q1364 431 1390.0 442.5Q1416 454 1435.5 473.5Q1455 493 1466.5 519.0Q1478 545 1478 575Q1479 571 1484.0 553.5Q1489 536 1495.5 511.5Q1502 487 1510.0 459.5Q1518 432 1524.5 409.0Q1531 386 1535.0 370.5Q1539 355 1539 355Z" style="fill:#d8b094;stroke:none" transform="scale(1,-1) translate(0,-256)" /></svg>