<?xml version="1.0" encoding="utf-8" ?>
<svg baseProfile="full" height="256" version="1.1" width="256" xmlns="http://www.w3.org/2000/svg" xmlns:ev="http://www.w3.org/2001/xml-events" xmlns:xlink="http://www.w3.org/1999/xlink"><defs /><path d="M2340 860Q2390 828 2430.0 785.0Q2470 742 2498.0 691.0Q2526 640 2541.0 583.5Q2556 527 2556 467Q2556 387 2530.0 314.0Q2504 241 2457.0 181.5Q2410 122 2345.0 78.5Q2280 35 2203 16Q2139 -89 2052.5 -171.5Q1966 -254 1863.5 -312.0Q1761 -370 1645.0 -400.5Q1529 -431 1406 -431H1334Q1227 -431 1127.5 -403.5Q1028 -376 939.0 -327.0Q850 -278 771.5 -209.5Q693 -141 628 -59L444 33Q390 60 359.0 110.5Q328 161 328 221Q328 266 347.0 308.0Q366 350 400 380Q382 438 369.0 496.5Q356 555 347 615Q304 645 280.0 691.5Q256 738 256 791Q256 837 275.0 879.0Q294 921 328 952V1039Q328 1092 348.0 1138.5Q368 1185 402.5 1219.5Q437 1254 483.5 1274.0Q530 1294 583 1294Q643 1294 697.5 1266.5Q752 1239 787 1190L951 1272L958 1302Q969 1347 992.5 1385.5Q1016 1424 1050.0 1451.5Q1084 1479 1126.0 1494.5Q1168 1510 1215 1510Q1247 1510 1276.5 1504.5Q1306 1499 1335 1485Q1339 1536 1360.5 1579.5Q1382 1623 1417.0 1655.5Q1452 1688 1497.0 1706.5Q1542 1725 1593 1725Q1681 1725 1750 1671L1838 1715Q1854 1750 1879.0 1778.5Q1904 1807 1935.0 1827.0Q1966 1847 2002.5 1858.0Q2039 1869 2077 1869H2196Q2241 1869 2280.0 1852.0Q2319 1835 2348.5 1806.0Q2378 1777 2395.0 1737.5Q2412 1698 2412 1653Q2412 1607 2393.5 1565.0Q2375 1523 2340 1492Z" style="fill:#000000;stroke:none" transform="scale(1,-1) translate(0,-256)" /></svg>