<?xml version="1.0" encoding="utf-8" ?>
<svg baseProfile="full" height="256" version="1.1" width="256" xmlns="http://www.w3.org/2000/svg" xmlns:ev="http://www.w3.org/2001/xml-events" xmlns:xlink="http://www.w3.org/1999/xlink"><defs /><path d="M2412 467Q2412 404 2388.5 347.0Q2365 290 2324.5 246.5Q2284 203 2229.0 176.0Q2174 149 2111 145Q2060 45 1985.5 -35.0Q1911 -115 1819.5 -171.0Q1728 -227 1623.0 -257.0Q1518 -287 1406 -287H1334Q1239 -287 1151.5 -261.5Q1064 -236 986.0 -190.0Q908 -144 841.0 -81.5Q774 -19 719 56L508 161Q491 169 481.5 186.0Q472 203 472 221Q472 246 482.0 259.5Q492 273 507.5 279.5Q523 286 542.0 287.0Q561 288 579 288H587Q544 387 520.5 477.0Q497 567 486.5 656.5Q476 746 474.0 839.5Q472 933 472 1039Q472 1062 480.5 1082.5Q489 1103 504.0 1118.0Q519 1133 539.5 1141.5Q560 1150 583 1150Q628 1150 657.0 1121.5Q686 1093 693 1050Q702 993 713.5 939.5Q725 886 747 832Q755 812 763.0 793.5Q771 775 781 756Q785 749 789.0 742.5Q793 736 796 728Q825 645 854.0 562.5Q883 480 912 396Q926 356 951.5 323.0Q977 290 1010.0 266.0Q1043 242 1082.5 229.0Q1122 216 1165 216H1334Q1364 216 1390.0 227.5Q1416 239 1435.5 258.5Q1455 278 1466.5 304.0Q1478 330 1478 360V1466Q1478 1490 1487.0 1511.0Q1496 1532 1511.5 1547.5Q1527 1563 1548.0 1572.0Q1569 1581 1593 1581Q1636 1581 1669.0 1553.0Q1702 1525 1708 1482L1811 762Q1854 782 1898.5 787.0Q1943 792 1989 792Q2014 792 2039.0 791.5Q2064 791 2089 791Q2156 791 2215.0 765.5Q2274 740 2317.5 696.0Q2361 652 2386.5 593.0Q2412 534 2412 467Z" style="fill:#bb9167;stroke:none" transform="scale(1,-1) translate(0,-256)" /></svg>