<?xml version="1.0" encoding="utf-8" ?>
<svg baseProfile="full" height="256" version="1.1" width="256" xmlns="http://www.w3.org/2000/svg" xmlns:ev="http://www.w3.org/2001/xml-events" xmlns:xlink="http://www.w3.org/1999/xlink"><defs /><path d="M1845 1110V919H2039Q2041 920 2045 920Q2054 920 2054 908V795Q2054 779 2039 779Q1990 779 1942.0 781.0Q1894 783 1845 783V575Q1880 576 1913.5 577.5Q1947 579 1982 579Q1999 579 1999 562V461Q1999 444 1982 444Q1933 444 1885.0 445.5Q1837 447 1788 447H1008Q960 447 912.0 445.5Q864 444 816 444Q801 444 801 461V562Q801 579 816 579H962V783H749Q746 782 742 782Q732 782 732 795V908Q732 923 749 923Q789 923 828.5 920.5Q868 918 908 918Q922 918 935.0 918.0Q948 918 962 919V1055Q954 1047 940.0 1033.0Q926 1019 911.0 1006.0Q896 993 882.5 983.0Q869 973 862 973Q851 984 838.0 998.0Q825 1012 811.0 1025.5Q797 1039 783.0 1051.0Q769 1063 756 1071Q801 1101 847.0 1142.5Q893 1184 932.5 1232.0Q972 1280 1003.0 1332.5Q1034 1385 1050 1438Q1059 1436 1084.5 1429.5Q1110 1423 1136.5 1414.0Q1163 1405 1184.0 1394.5Q1205 1384 1205 1375Q1205 1367 1202.0 1363.0Q1199 1359 1194 1354Q1168 1328 1150.0 1300.0Q1132 1272 1111 1243H1769Q1820 1243 1869.0 1245.0Q1918 1247 1969 1247Q1986 1247 1986 1232V1121Q1986 1106 1969 1106Q1938 1106 1907.0 1107.5Q1876 1109 1845 1110ZM936 409Q942 409 962.0 400.5Q982 392 1003.0 381.5Q1024 371 1041.0 361.0Q1058 351 1058 348Q1058 339 1046.0 315.0Q1034 291 1015.5 260.5Q997 230 974.0 196.5Q951 163 930.0 135.5Q909 108 892.5 90.0Q876 72 869 72Q864 72 845.0 84.5Q826 97 805.5 113.0Q785 129 768.5 142.5Q752 156 752 159Q752 163 758.0 170.5Q764 178 772.5 186.5Q781 195 789.0 202.5Q797 210 800 213Q838 253 869.0 300.0Q900 347 925 397Q928 400 929.0 404.5Q930 409 936 409ZM2028 165Q2028 162 2010.0 150.0Q1992 138 1969.5 124.0Q1947 110 1926.0 99.0Q1905 88 1899 88Q1894 88 1891.0 92.5Q1888 97 1886 101Q1852 164 1816.0 224.5Q1780 285 1738 343Q1736 346 1734.5 348.0Q1733 350 1733 354Q1733 357 1749.5 367.0Q1766 377 1787.0 388.0Q1808 399 1827.5 407.5Q1847 416 1853 416Q1858 416 1872.5 399.5Q1887 383 1906.5 357.5Q1926 332 1947.5 301.5Q1969 271 1987.0 243.5Q2005 216 2016.5 194.5Q2028 173 2028 165ZM1286 376Q1294 376 1300.5 359.5Q1307 343 1312.0 317.5Q1317 292 1321.0 261.5Q1325 231 1327.5 202.5Q1330 174 1331.5 151.0Q1333 128 1333 119Q1333 108 1327.5 104.5Q1322 101 1313 99Q1284 92 1252.5 90.0Q1221 88 1191 88Q1178 88 1178 102Q1178 163 1171.5 223.0Q1165 283 1154 343Q1153 346 1153 353Q1153 360 1171.0 364.5Q1189 369 1212.5 371.5Q1236 374 1257.5 375.0Q1279 376 1286 376ZM1662 129Q1662 123 1642.5 116.5Q1623 110 1598.0 104.5Q1573 99 1549.5 95.5Q1526 92 1518 92Q1512 92 1510.5 96.0Q1509 100 1508 105Q1508 129 1502.5 155.0Q1497 181 1488.5 208.0Q1480 235 1471.0 262.0Q1462 289 1455 314Q1453 322 1451.5 326.5Q1450 331 1448.5 334.5Q1447 338 1445.5 341.5Q1444 345 1442 351Q1442 353 1447.0 355.5Q1452 358 1454 359Q1463 362 1479.0 367.0Q1495 372 1513.0 376.0Q1531 380 1547.0 383.0Q1563 386 1572 386Q1578 386 1581.0 382.5Q1584 379 1586 374Q1586 364 1591.5 345.0Q1597 326 1605.5 302.0Q1614 278 1624.0 252.0Q1634 226 1642.5 202.0Q1651 178 1656.5 158.5Q1662 139 1662 129ZM1701 783H1587V575H1701ZM1217 783H1104V575H1217ZM1457 783H1347V575H1457ZM1701 1110H1587V919H1701ZM1217 1110H1104V919H1217ZM1457 1110H1347V919H1457Z" style="fill:#ffffff;stroke:none" transform="scale(1,-1) translate(0,-256)" /></svg>