<?xml version="1.0" encoding="utf-8" ?>
<svg baseProfile="full" height="256" version="1.1" width="256" xmlns="http://www.w3.org/2000/svg" xmlns:ev="http://www.w3.org/2001/xml-events" xmlns:xlink="http://www.w3.org/1999/xlink"><defs /><path d="M2053 144Q2053 101 2073.0 64.0Q2093 27 2125 0Q2071 -65 1997.0 -104.5Q1923 -144 1837 -144H831Q745 -144 671.0 -104.5Q597 -65 543 0Q575 27 595.0 64.0Q615 101 615 144V547Q582 596 555.5 627.0Q529 658 510.5 688.5Q492 719 482.0 758.0Q472 797 472 863Q472 982 503.0 1092.0Q534 1202 590.0 1298.0Q646 1394 724.5 1472.5Q803 1551 899.0 1607.0Q995 1663 1105.0 1694.0Q1215 1725 1334 1725H2053L1909 1581H2125L1981 1438H1977Q2084 1318 2140.5 1171.0Q2197 1024 2197 863Q2197 797 2187.0 758.0Q2177 719 2158.5 688.5Q2140 658 2113.0 627.0Q2086 596 2053 547Z" style="fill:#8e562e;stroke:none" transform="scale(1,-1) translate(0,-256)" /></svg>