<?xml version="1.0" encoding="utf-8" ?>
<svg baseProfile="full" height="256" version="1.1" width="256" xmlns="http://www.w3.org/2000/svg" xmlns:ev="http://www.w3.org/2001/xml-events" xmlns:xlink="http://www.w3.org/1999/xlink"><defs /><path d="M974 288Q995 288 1011.0 277.5Q1027 267 1038 250Q1088 168 1161.5 120.0Q1235 72 1334 72Q1364 72 1385.0 51.0Q1406 30 1406 0Q1406 -30 1385.0 -51.0Q1364 -72 1334 -72Q1270 -72 1207.0 -54.0Q1144 -36 1088.5 -3.0Q1033 30 987.5 76.5Q942 123 912 181Q903 197 903 216Q903 246 924.0 267.0Q945 288 974 288ZM1478 503Q1478 474 1466.0 448.5Q1454 423 1434.0 403.0Q1414 383 1388.0 371.5Q1362 360 1334 360Q1306 360 1280.0 371.5Q1254 383 1234.0 403.0Q1214 423 1202.0 448.5Q1190 474 1190 503Z" style="fill:#f7894a;stroke:none" transform="scale(1,-1) translate(0,-256)" /></svg>