<?xml version="1.0" encoding="utf-8" ?>
<svg baseProfile="full" height="256" version="1.1" width="256" xmlns="http://www.w3.org/2000/svg" xmlns:ev="http://www.w3.org/2001/xml-events" xmlns:xlink="http://www.w3.org/1999/xlink"><defs /><path d="M472 145Q448 202 432.0 260.5Q416 319 408 380Q374 395 346.0 419.0Q318 443 298.0 473.0Q278 503 267.0 538.0Q256 573 256 611V827Q256 881 278.0 930.0Q300 979 340 1014Q359 1136 405.5 1247.0Q452 1358 521.5 1453.0Q591 1548 680.0 1624.5Q769 1701 873.5 1755.5Q978 1810 1094.5 1839.5Q1211 1869 1334 1869H2400L2256 1725H2472L2169 1423Q2232 1331 2271.5 1227.5Q2311 1124 2328 1014Q2368 979 2390.0 930.0Q2412 881 2412 827V611Q2412 573 2401.0 538.0Q2390 503 2370.5 473.0Q2351 443 2322.5 419.0Q2294 395 2260 380Q2252 319 2236.0 260.5Q2220 202 2197 145Q2197 134 2202.5 125.5Q2208 117 2216 111L2327 19L2235 -92Q2157 -186 2055.5 -236.5Q1954 -287 1831 -287Q1719 -358 1593.0 -394.5Q1467 -431 1334 -431Q1201 -431 1075.0 -394.5Q949 -358 837 -287Q714 -287 612.5 -236.5Q511 -186 433 -92L341 19L452 111Q460 117 466.0 125.5Q472 134 472 145Z" style="fill:#000000;stroke:none" transform="scale(1,-1) translate(0,-256)" /></svg>