<?xml version="1.0" encoding="utf-8" ?>
<svg baseProfile="full" height="256" version="1.1" width="256" xmlns="http://www.w3.org/2000/svg" xmlns:ev="http://www.w3.org/2001/xml-events" xmlns:xlink="http://www.w3.org/1999/xlink"><defs /><path d="M1011 791Q988 791 968.5 799.5Q949 808 934.5 822.5Q920 837 911.5 856.5Q903 876 903 899V1042Q903 1064 911.5 1084.0Q920 1104 934.5 1118.5Q949 1133 968.5 1141.5Q988 1150 1011 1150Q1033 1150 1052.5 1141.5Q1072 1133 1087.0 1118.0Q1102 1103 1110.5 1083.5Q1119 1064 1119 1042V899Q1119 877 1110.5 857.5Q1102 838 1087.0 823.0Q1072 808 1052.5 799.5Q1033 791 1011 791ZM1801 791Q1778 791 1758.5 799.5Q1739 808 1725.0 823.0Q1711 838 1702.5 857.5Q1694 877 1694 899V1042Q1694 1064 1702.5 1083.5Q1711 1103 1725.0 1118.0Q1739 1133 1758.5 1141.5Q1778 1150 1801 1150Q1823 1150 1843.0 1141.5Q1863 1133 1877.5 1118.5Q1892 1104 1900.5 1084.0Q1909 1064 1909 1042V899Q1909 876 1900.5 856.5Q1892 837 1877.5 822.5Q1863 808 1843.0 799.5Q1823 791 1801 791ZM1406 647Q1503 647 1599.5 620.0Q1696 593 1781.0 542.5Q1866 492 1934.5 420.0Q2003 348 2045 258Q2049 250 2051.0 242.0Q2053 234 2053 225Q2053 196 2031.5 174.5Q2010 153 1981 153Q1957 153 1944.0 163.5Q1931 174 1917 192Q1898 217 1883.5 244.0Q1869 271 1849 295Q1810 344 1759.0 382.5Q1708 421 1650.5 448.0Q1593 475 1530.5 489.0Q1468 503 1406 503Q1344 503 1281.5 489.0Q1219 475 1161.0 448.0Q1103 421 1052.5 382.5Q1002 344 963 295Q943 271 928.0 244.0Q913 217 895 192Q881 173 868.5 163.0Q856 153 831 153Q802 153 780.5 174.5Q759 196 759 225Q759 234 761.0 242.0Q763 250 767 258Q809 348 877.5 420.0Q946 492 1031.0 542.5Q1116 593 1212.0 620.0Q1308 647 1406 647Z" style="fill:#000000;stroke:none" transform="scale(1,-1) translate(0,-256)" /></svg>