<?xml version="1.0" encoding="utf-8" ?>
<svg baseProfile="full" height="256" version="1.1" width="256" xmlns="http://www.w3.org/2000/svg" xmlns:ev="http://www.w3.org/2001/xml-events" xmlns:xlink="http://www.w3.org/1999/xlink"><defs /><path d="M1011 1006Q1033 1006 1052.5 997.5Q1072 989 1086.5 974.5Q1101 960 1109.5 940.5Q1118 921 1118 899V755Q1118 733 1109.5 713.5Q1101 694 1087.0 679.0Q1073 664 1053.0 655.5Q1033 647 1011 647Q988 647 968.5 655.5Q949 664 934.5 678.5Q920 693 911.5 712.5Q903 732 903 755V899Q903 921 911.5 941.0Q920 961 935.0 975.0Q950 989 969.5 997.5Q989 1006 1011 1006ZM1801 1006Q1823 1006 1842.5 997.5Q1862 989 1877.0 975.0Q1892 961 1900.5 941.0Q1909 921 1909 899V755Q1909 732 1900.5 712.5Q1892 693 1877.5 678.5Q1863 664 1843.0 655.5Q1823 647 1801 647Q1779 647 1759.5 655.5Q1740 664 1725.0 679.0Q1710 694 1701.5 713.5Q1693 733 1693 755V899Q1693 921 1701.5 940.5Q1710 960 1725.0 974.5Q1740 989 1759.5 997.5Q1779 1006 1801 1006ZM1406 575Q1451 575 1490.0 558.0Q1529 541 1558.5 512.0Q1588 483 1605.0 444.0Q1622 405 1622 360Q1622 315 1605.0 276.0Q1588 237 1558.5 207.5Q1529 178 1490.0 161.0Q1451 144 1406 144Q1361 144 1322.0 161.0Q1283 178 1253.5 207.5Q1224 237 1207.0 276.0Q1190 315 1190 360Q1190 405 1207.0 444.0Q1224 483 1253.5 512.0Q1283 541 1322.0 558.0Q1361 575 1406 575Z" style="fill:#000000;stroke:none" transform="scale(1,-1) translate(0,-256)" /></svg>