<?xml version="1.0" encoding="utf-8" ?>
<svg baseProfile="full" height="256" version="1.1" width="256" xmlns="http://www.w3.org/2000/svg" xmlns:ev="http://www.w3.org/2001/xml-events" xmlns:xlink="http://www.w3.org/1999/xlink"><defs /><path d="M1873 144Q1895 144 1915.0 135.5Q1935 127 1949.5 112.5Q1964 98 1972.5 78.0Q1981 58 1981 36Q1981 14 1972.5 -5.5Q1964 -25 1949.0 -40.0Q1934 -55 1914.5 -63.5Q1895 -72 1873 -72H1837V72H1514Q1499 72 1488.5 82.5Q1478 93 1478 108Q1478 123 1488.5 133.5Q1499 144 1514 144ZM1837 -144H1514Q1500 -144 1489.0 -133.0Q1478 -122 1478 -108Q1478 -93 1488.5 -82.5Q1499 -72 1514 -72H1837Z" style="fill:#8e562e;stroke:none" transform="scale(1,-1) translate(0,-256)" /></svg>