<?xml version="1.0" encoding="utf-8" ?>
<svg baseProfile="full" height="256" version="1.1" width="256" xmlns="http://www.w3.org/2000/svg" xmlns:ev="http://www.w3.org/2001/xml-events" xmlns:xlink="http://www.w3.org/1999/xlink"><defs /><path d="M2556 719Q2556 561 2514.0 411.5Q2472 262 2394.0 130.5Q2316 -1 2204.5 -109.0Q2093 -217 1954 -292Q1938 -324 1914.0 -349.5Q1890 -375 1861.0 -393.0Q1832 -411 1798.5 -421.0Q1765 -431 1729 -431H1370Q1363 -431 1356.5 -430.5Q1350 -430 1343 -429Q1308 -429 1269.5 -424.5Q1231 -420 1192.5 -412.0Q1154 -404 1117.0 -394.5Q1080 -385 1048 -374Q871 -316 725.0 -208.0Q579 -100 475.0 44.0Q371 188 313.5 360.5Q256 533 256 719Q256 878 297.0 1025.0Q338 1172 413.0 1299.5Q488 1427 593.0 1532.0Q698 1637 825.5 1712.0Q953 1787 1100.0 1828.0Q1247 1869 1406 1869Q1565 1869 1712.0 1828.0Q1859 1787 1986.5 1712.0Q2114 1637 2219.0 1532.0Q2324 1427 2399.0 1299.5Q2474 1172 2515.0 1025.0Q2556 878 2556 719Z" style="fill:#000000;stroke:none" transform="scale(1,-1) translate(0,-256)" /></svg>