<?xml version="1.0" encoding="utf-8" ?>
<svg baseProfile="full" height="256" version="1.1" width="256" xmlns="http://www.w3.org/2000/svg" xmlns:ev="http://www.w3.org/2001/xml-events" xmlns:xlink="http://www.w3.org/1999/xlink"><defs /><path d="M709 1258 911 1497Q923 1510 939 1510Q956 1510 966 1497L1198 1222L1172 1173H430L400 1222V1474Q400 1489 411.0 1499.5Q422 1510 437 1510Q450 1510 462 1498ZM2373 961Q2390 961 2401.0 950.5Q2412 940 2412 923V575Q2398 562 2372.5 553.0Q2347 544 2315.0 537.5Q2283 531 2247.5 527.0Q2212 523 2178.5 521.0Q2145 519 2116.0 518.0Q2087 517 2067 517Q2032 517 1980.0 519.0Q1928 521 1874.0 527.5Q1820 534 1771.0 545.5Q1722 557 1693 575L1881 796Q1892 809 1910 809Q1929 809 1939 796L2053 647L2347 951Q2357 961 2373 961ZM1693 1402V1222Q1682 1210 1665.0 1202.0Q1648 1194 1629.0 1189.0Q1610 1184 1591.0 1182.0Q1572 1180 1556 1180Q1541 1180 1522.5 1182.0Q1504 1184 1486.0 1188.5Q1468 1193 1452.5 1201.0Q1437 1209 1427 1222L1632 1427Q1643 1438 1658 1438Q1672 1438 1682.5 1427.0Q1693 1416 1693 1402Z" style="fill:#e5e5e5;stroke:none" transform="scale(1,-1) translate(0,-256)" /></svg>