<?xml version="1.0" encoding="utf-8" ?>
<svg baseProfile="full" height="256" version="1.1" width="256" xmlns="http://www.w3.org/2000/svg" xmlns:ev="http://www.w3.org/2001/xml-events" xmlns:xlink="http://www.w3.org/1999/xlink"><defs /><path d="M2374 1105Q2412 1105 2445.0 1091.0Q2478 1077 2503.0 1052.0Q2528 1027 2542.0 994.0Q2556 961 2556 923V-431H256V1474Q256 1511 270.0 1543.5Q284 1576 308.5 1600.5Q333 1625 366.0 1639.0Q399 1653 436 1653Q462 1653 482.5 1647.0Q503 1641 521.0 1630.5Q539 1620 555.5 1605.5Q572 1591 590 1574Q621 1641 669.5 1695.5Q718 1750 778.5 1788.5Q839 1827 908.5 1848.0Q978 1869 1052 1869Q1134 1869 1209.0 1844.0Q1284 1819 1345.5 1774.0Q1407 1729 1453.5 1665.0Q1500 1601 1525 1523Q1535 1537 1550.5 1547.5Q1566 1558 1584.0 1565.5Q1602 1573 1621.0 1577.0Q1640 1581 1657 1581Q1694 1581 1727.0 1567.0Q1760 1553 1784.5 1529.0Q1809 1505 1823.0 1472.0Q1837 1439 1837 1402V938Q1871 953 1910 953Q1960 953 1993.5 933.0Q2027 913 2059 878L2249 1056Q2301 1105 2374 1105Z" style="fill:#000000;stroke:none" transform="scale(1,-1) translate(0,-256)" /></svg>