<?xml version="1.0" encoding="utf-8" ?>
<svg baseProfile="full" height="256" version="1.1" width="256" xmlns="http://www.w3.org/2000/svg" xmlns:ev="http://www.w3.org/2001/xml-events" xmlns:xlink="http://www.w3.org/1999/xlink"><defs /><path d="M1765 719Q1765 600 1720.0 495.0Q1675 390 1597.0 312.0Q1519 234 1414.0 189.0Q1309 144 1190 144H1115Q1107 184 1083 216H1118Q1207 216 1286.0 249.5Q1365 283 1423.5 341.5Q1482 400 1516.0 478.5Q1550 557 1550 647V719Q1550 790 1532.0 858.0Q1514 926 1475 986Q1509 1013 1547.0 1033.5Q1585 1054 1627 1065Q1581 1144 1506.5 1200.0Q1432 1256 1343 1278Q1313 1249 1286.5 1217.0Q1260 1185 1240 1148Q1235 1149 1229.0 1150.0Q1223 1151 1218 1151Q1140 1154 1064.0 1163.5Q988 1173 912 1193L883 1221L830 1216Q825 1218 821.0 1219.0Q817 1220 812 1222Q732 1248 653.5 1284.5Q575 1321 505 1366H1226Q1337 1366 1435.5 1323.5Q1534 1281 1607.0 1208.0Q1680 1135 1722.5 1037.0Q1765 939 1765 827Z" style="fill:#bac8cc;stroke:none" transform="scale(1,-1) translate(0,-256)" /></svg>