<?xml version="1.0" encoding="utf-8" ?>
<svg baseProfile="full" height="256" version="1.1" width="256" xmlns="http://www.w3.org/2000/svg" xmlns:ev="http://www.w3.org/2001/xml-events" xmlns:xlink="http://www.w3.org/1999/xlink"><defs /><path d="M1994 1319Q1925 1431 1827.0 1516.0Q1729 1601 1608 1653H2018Q2059 1653 2101.0 1645.5Q2143 1638 2183.5 1623.0Q2224 1608 2260.5 1586.0Q2297 1564 2327 1535Q2334 1529 2337.0 1523.0Q2340 1517 2340 1507Q2340 1492 2331.0 1483.0Q2322 1474 2308 1472Q2289 1469 2270.5 1467.5Q2252 1466 2232 1461Q2163 1445 2102.5 1408.0Q2042 1371 1994 1319ZM1047 1258Q1047 1243 1036.5 1232.5Q1026 1222 1011 1222Q985 1222 960.0 1214.5Q935 1207 912 1193Q891 1198 870.5 1204.0Q850 1210 830 1216Q866 1254 912.0 1274.0Q958 1294 1011 1294Q1026 1294 1036.5 1283.5Q1047 1273 1047 1258Z" style="fill:#4a5459;stroke:none" transform="scale(1,-1) translate(0,-256)" /></svg>