<?xml version="1.0" encoding="utf-8" ?>
<svg baseProfile="full" height="256" version="1.1" width="256" xmlns="http://www.w3.org/2000/svg" xmlns:ev="http://www.w3.org/2001/xml-events" xmlns:xlink="http://www.w3.org/1999/xlink"><defs /><path d="M669 -431Q628 -431 592.0 -415.5Q556 -400 529.5 -373.0Q503 -346 487.5 -310.0Q472 -274 472 -233Q472 -215 475.0 -196.5Q478 -178 485 -161L588 101L344 657Q328 692 328 735Q328 776 343.5 812.5Q359 849 385.5 876.0Q412 903 448.0 919.0Q484 935 525 935Q563 935 601.0 920.0Q639 905 665 877L1145 361Q1190 365 1231.0 382.5Q1272 400 1305.0 428.0Q1338 456 1362.0 493.0Q1386 530 1397 574Q1354 543 1301 543Q1258 543 1222.0 563.5Q1186 584 1158.0 617.0Q1130 650 1109.0 693.0Q1088 736 1074.0 781.0Q1060 826 1053.0 869.5Q1046 913 1046 948Q1046 966 1047.5 984.0Q1049 1002 1051 1020Q859 1046 681.0 1117.0Q503 1188 345 1300Q302 1331 279.0 1375.0Q256 1419 256 1472Q256 1535 288.0 1585.0Q320 1635 376 1663Q583 1766 807.0 1817.5Q1031 1869 1262 1869Q1359 1869 1452.5 1851.0Q1546 1833 1636 1797H2018Q2130 1797 2235.0 1757.5Q2340 1718 2423 1643Q2452 1617 2468.0 1583.0Q2484 1549 2484 1508Q2484 1472 2471.5 1440.5Q2459 1409 2436.5 1385.5Q2414 1362 2384.0 1347.5Q2354 1333 2318 1329Q2280 1325 2245.0 1315.0Q2210 1305 2176 1285Q2222 1185 2245.0 1078.5Q2268 972 2268 863Q2268 714 2229.5 576.0Q2191 438 2121.0 318.5Q2051 199 1952.5 100.5Q1854 2 1734.5 -68.0Q1615 -138 1477.0 -176.5Q1339 -215 1190 -215H1040L782 -396Q757 -413 728.0 -422.0Q699 -431 669 -431Z" style="fill:#000000;stroke:none" transform="scale(1,-1) translate(0,-256)" /></svg>