<?xml version="1.0" encoding="utf-8" ?>
<svg baseProfile="full" height="256" version="1.1" width="256" xmlns="http://www.w3.org/2000/svg" xmlns:ev="http://www.w3.org/2001/xml-events" xmlns:xlink="http://www.w3.org/1999/xlink"><defs /><path d="M1262 1725Q1392 1725 1518 1687Q1541 1680 1563.5 1669.5Q1586 1659 1608 1653Q1625 1648 1644.0 1646.0Q1663 1644 1681 1641Q1715 1635 1753.0 1627.0Q1791 1619 1827.0 1606.5Q1863 1594 1896.0 1575.5Q1929 1557 1955 1531Q1982 1504 1992.5 1466.5Q2003 1429 2003 1391Q2003 1355 1994 1319Q2059 1216 2092.0 1100.0Q2125 984 2125 863Q2125 734 2091.5 614.5Q2058 495 1997.0 391.0Q1936 287 1851.0 202.0Q1766 117 1662.0 56.0Q1558 -5 1438.5 -38.5Q1319 -72 1190 -72H995L700 -278Q686 -287 669 -287Q647 -287 631.0 -272.0Q615 -257 615 -234Q615 -228 623.5 -203.5Q632 -179 645.0 -145.0Q658 -111 673.5 -71.5Q689 -32 703.5 3.5Q718 39 729.0 66.5Q740 94 744 104Q739 116 724.5 148.5Q710 181 689.5 226.0Q669 271 645.0 325.0Q621 379 597.0 434.0Q573 489 550.0 541.5Q527 594 509.5 635.5Q492 677 481.5 704.5Q471 732 471 737Q471 760 487.0 775.5Q503 791 525 791Q550 791 565 774L1070 230Q1073 226 1076.0 222.5Q1079 219 1083 215Q1086 211 1103.5 209.0Q1121 207 1146.0 205.5Q1171 204 1201.0 203.0Q1231 202 1259.0 201.5Q1287 201 1310.5 201.0Q1334 201 1346 201H1352H1382L1658 611V863L1558 1009Q1555 1008 1542.0 1004.5Q1529 1001 1514.5 997.5Q1500 994 1488.0 990.5Q1476 987 1475 986Q1445 964 1421.0 935.0Q1397 906 1379.0 873.0Q1361 840 1348.5 804.0Q1336 768 1329 733Q1329 732 1328.5 731.0Q1328 730 1328 729Q1327 723 1325.0 716.0Q1323 709 1320.0 702.0Q1317 695 1312.5 690.5Q1308 686 1301 686Q1290 686 1280.5 696.0Q1271 706 1265 714Q1264 716 1264 716Q1228 766 1209.5 827.5Q1191 889 1191 950Q1191 1055 1240 1148L1231 1233L506 1365Q492 1374 473.5 1385.0Q455 1396 438.5 1409.0Q422 1422 411.0 1437.5Q400 1453 400 1472Q400 1514 437 1533Q530 1581 631.5 1617.0Q733 1653 838.5 1677.0Q944 1701 1051.0 1713.0Q1158 1725 1262 1725Z" style="fill:#69797e;stroke:none" transform="scale(1,-1) translate(0,-256)" /></svg>