<?xml version="1.0" encoding="utf-8" ?>
<svg baseProfile="full" height="256" version="1.1" width="256" xmlns="http://www.w3.org/2000/svg" xmlns:ev="http://www.w3.org/2001/xml-events" xmlns:xlink="http://www.w3.org/1999/xlink"><defs /><path d="M1334 -347Q1185 -347 1047.5 -308.5Q910 -270 790.5 -199.5Q671 -129 572.5 -30.5Q474 68 403.5 187.5Q333 307 294.5 445.0Q256 583 256 731Q256 879 293.5 1007.5Q331 1136 398.5 1248.5Q466 1361 560.5 1459.0Q655 1557 768 1644L1047 1366L1334 1653L1622 1366L1900 1644Q2013 1557 2107.0 1459.0Q2201 1361 2269.0 1248.5Q2337 1136 2374.5 1007.5Q2412 879 2412 731Q2412 582 2373.5 444.5Q2335 307 2264.5 187.5Q2194 68 2095.5 -30.5Q1997 -129 1877.5 -199.5Q1758 -270 1620.0 -308.5Q1482 -347 1334 -347Z" style="fill:#000000;stroke:none" transform="scale(1,-1) translate(0,-256)" /></svg>