<?xml version="1.0" encoding="utf-8" ?>
<svg baseProfile="full" height="256" version="1.1" width="256" xmlns="http://www.w3.org/2000/svg" xmlns:ev="http://www.w3.org/2001/xml-events" xmlns:xlink="http://www.w3.org/1999/xlink"><defs /><path d="M1909 1450Q1990 1382 2056.0 1301.5Q2122 1221 2169.5 1130.0Q2217 1039 2242.5 938.5Q2268 838 2268 731Q2268 602 2234.5 482.5Q2201 363 2140.5 259.5Q2080 156 1994.5 70.5Q1909 -15 1805.5 -75.5Q1702 -136 1582.5 -169.5Q1463 -203 1334 -203Q1205 -203 1085.5 -169.5Q966 -136 862.5 -75.5Q759 -15 673.5 70.5Q588 156 527.5 259.5Q467 363 433.5 482.5Q400 602 400 731Q400 838 425.5 938.5Q451 1039 498.5 1130.0Q546 1221 612.0 1301.5Q678 1382 759 1450L1047 1163L1334 1450L1622 1163Z" style="fill:#f03a17;stroke:none" transform="scale(1,-1) translate(0,-256)" /></svg>