<?xml version="1.0" encoding="utf-8" ?>
<svg baseProfile="full" height="256" version="1.1" width="256" xmlns="http://www.w3.org/2000/svg" xmlns:ev="http://www.w3.org/2001/xml-events" xmlns:xlink="http://www.w3.org/1999/xlink"><defs /><path d="M1837 863Q1867 863 1893.0 851.5Q1919 840 1938.5 820.5Q1958 801 1969.5 775.0Q1981 749 1981 719V144Q1981 114 1960.0 93.0Q1939 72 1909 72H1334V216H1837V360H1334ZM1334 557V689L1169 524Q1148 503 1118 503Q1089 503 1068 524L852 740Q831 761 831 791Q831 821 852.0 842.0Q873 863 903 863Q933 863 954 842L1118 677L1283 842Q1304 863 1334 863H1640ZM1047 1294V935H759V1294L975 1366V1294ZM1765 1294V1150H1334V1222H1406V1366ZM1586 899Q1549 899 1516.0 913.0Q1483 927 1458.5 951.5Q1434 976 1420.0 1008.5Q1406 1041 1406 1078H1765Q1765 1041 1751.0 1008.5Q1737 976 1712.5 951.5Q1688 927 1655.5 913.0Q1623 899 1586 899Z" style="fill:#ffffff;stroke:none" transform="scale(1,-1) translate(0,-256)" /></svg>