<?xml version="1.0" encoding="utf-8" ?>
<svg baseProfile="full" height="256" version="1.1" width="256" xmlns="http://www.w3.org/2000/svg" xmlns:ev="http://www.w3.org/2001/xml-events" xmlns:xlink="http://www.w3.org/1999/xlink"><defs /><path d="M2484 1042Q2516 1016 2536.0 978.5Q2556 941 2556 899Q2556 856 2537.0 818.5Q2518 781 2484 755V324Q2484 286 2470.0 253.5Q2456 221 2431.5 196.5Q2407 172 2374.0 158.0Q2341 144 2304 144Q2267 144 2234.5 158.0Q2202 172 2177.5 196.5Q2153 221 2139.0 254.0Q2125 287 2125 324V374L1393 -348Q1352 -388 1299.5 -409.5Q1247 -431 1190 -431Q1133 -431 1080.0 -409.0Q1027 -387 987 -347L340 300Q299 341 277.5 393.5Q256 446 256 503Q256 561 277.5 613.0Q299 665 340 707L1274 1653H1461Q1501 1704 1551.5 1744.0Q1602 1784 1660.0 1812.0Q1718 1840 1781.0 1854.5Q1844 1869 1909 1869Q2027 1869 2132.0 1823.5Q2237 1778 2315.0 1700.0Q2393 1622 2438.5 1517.0Q2484 1412 2484 1294Z" style="fill:#000000;stroke:none" transform="scale(1,-1) translate(0,-256)" /></svg>