<?xml version="1.0" encoding="utf-8" ?>
<svg baseProfile="full" height="256" version="1.1" width="256" xmlns="http://www.w3.org/2000/svg" xmlns:ev="http://www.w3.org/2001/xml-events" xmlns:xlink="http://www.w3.org/1999/xlink"><defs /><path d="M2340 935H2361Q2380 935 2396.0 929.5Q2412 924 2412 899Q2412 875 2396.5 869.0Q2381 863 2363 863H2340V324Q2340 309 2329.5 298.5Q2319 288 2304 288Q2290 288 2279.0 299.0Q2268 310 2268 324V863H2197V935H2268V1294Q2268 1368 2239.5 1433.5Q2211 1499 2162.5 1547.5Q2114 1596 2048.5 1624.5Q1983 1653 1909 1653Q1835 1653 1769.5 1624.5Q1704 1596 1655.5 1547.5Q1607 1499 1578.5 1433.5Q1550 1368 1550 1294Q1550 1232 1570.5 1175.5Q1591 1119 1627.5 1073.0Q1664 1027 1714.0 994.0Q1764 961 1824 946Q1816 927 1802.0 911.5Q1788 896 1771 885Q1705 907 1651.0 948.0Q1597 989 1558.5 1043.0Q1520 1097 1499.0 1161.0Q1478 1225 1478 1294Q1478 1383 1512.0 1461.5Q1546 1540 1604.5 1598.5Q1663 1657 1741.5 1691.0Q1820 1725 1909 1725Q1998 1725 2076.5 1691.0Q2155 1657 2213.5 1598.5Q2272 1540 2306.0 1461.5Q2340 1383 2340 1294Z" style="fill:#f03a17;stroke:none" transform="scale(1,-1) translate(0,-256)" /></svg>