<?xml version="1.0" encoding="utf-8" ?>
<svg baseProfile="full" height="256" version="1.1" width="256" xmlns="http://www.w3.org/2000/svg" xmlns:ev="http://www.w3.org/2001/xml-events" xmlns:xlink="http://www.w3.org/1999/xlink"><defs /><path d="M975 1869Q1074 1869 1165.5 1843.0Q1257 1817 1337.0 1770.5Q1417 1724 1482.5 1658.0Q1548 1592 1595.0 1512.5Q1642 1433 1667.5 1341.0Q1693 1249 1693 1150Q1693 1058 1673.5 978.5Q1654 899 1617.5 828.0Q1581 757 1528.5 693.0Q1476 629 1410 569Q1378 540 1351.0 509.5Q1324 479 1304.5 444.5Q1285 410 1273.5 371.5Q1262 333 1262 288V37Q1280 4 1289.0 -33.0Q1298 -70 1298 -108Q1298 -175 1272.5 -233.5Q1247 -292 1203.0 -336.0Q1159 -380 1100.5 -405.5Q1042 -431 975 -431Q908 -431 849.0 -405.5Q790 -380 746.0 -336.0Q702 -292 676.5 -233.5Q651 -175 651 -108Q651 -70 660.5 -33.5Q670 3 687 37V288Q687 459 749.0 616.0Q811 773 926 900Q954 930 983.5 957.0Q1013 984 1043 1012Q1074 1041 1096.0 1073.0Q1118 1105 1118 1150Q1118 1180 1107.0 1206.0Q1096 1232 1076.5 1251.5Q1057 1271 1031.0 1282.5Q1005 1294 975 1294Q945 1294 919.0 1282.5Q893 1271 873.5 1251.5Q854 1232 842.5 1206.0Q831 1180 831 1150V1006H256V1150Q256 1249 282.0 1341.0Q308 1433 354.5 1512.5Q401 1592 467.0 1658.0Q533 1724 612.5 1770.5Q692 1817 784.0 1843.0Q876 1869 975 1869Z" style="fill:#000000;stroke:none" transform="scale(1,-1) translate(0,-256)" /></svg>