<?xml version="1.0" encoding="utf-8" ?>
<svg baseProfile="full" height="256" version="1.1" width="256" xmlns="http://www.w3.org/2000/svg" xmlns:ev="http://www.w3.org/2001/xml-events" xmlns:xlink="http://www.w3.org/1999/xlink"><defs /><path d="M1118 -359Q999 -359 889.0 -328.0Q779 -297 683.5 -241.0Q588 -185 509.0 -106.0Q430 -27 374.0 68.5Q318 164 287.0 274.0Q256 384 256 503V647Q256 683 267.0 715.5Q278 748 298.5 775.0Q319 802 347.0 822.0Q375 842 409 853Q426 977 471.5 1090.5Q517 1204 586.0 1300.5Q655 1397 744.5 1475.5Q834 1554 939.0 1609.5Q1044 1665 1162.0 1695.0Q1280 1725 1406 1725Q1532 1725 1650.0 1695.0Q1768 1665 1873.0 1609.5Q1978 1554 2067.5 1475.5Q2157 1397 2226.0 1300.5Q2295 1204 2340.5 1090.5Q2386 977 2403 853Q2453 839 2483.5 812.0Q2514 785 2530.5 750.0Q2547 715 2552.0 672.5Q2557 630 2557 584Q2557 564 2556.5 543.5Q2556 523 2556 503Q2556 384 2525.0 274.0Q2494 164 2438.0 68.5Q2382 -27 2303.0 -106.0Q2224 -185 2128.0 -241.0Q2032 -297 1922.0 -328.0Q1812 -359 1693 -359Z" style="fill:#000000;stroke:none" transform="scale(1,-1) translate(0,-256)" /></svg>