<?xml version="1.0" encoding="utf-8" ?>
<svg baseProfile="full" height="256" version="1.1" width="256" xmlns="http://www.w3.org/2000/svg" xmlns:ev="http://www.w3.org/2001/xml-events" xmlns:xlink="http://www.w3.org/1999/xlink"><defs /><path d="M2340 719Q2370 719 2391.0 698.0Q2412 677 2412 647V503Q2412 484 2411.0 466.0Q2410 448 2408 429Q2393 408 2384.0 383.5Q2375 359 2375 333Q2375 308 2379 288Q2344 175 2276.5 82.5Q2209 -10 2118.5 -76.0Q2028 -142 1919.0 -178.5Q1810 -215 1693 -215H1118Q1001 -215 892.0 -178.5Q783 -142 693.0 -75.5Q603 -9 535.5 83.5Q468 176 433 288Q441 317 441 344Q441 370 431.0 391.5Q421 413 403 431Q400 467 400 503V647Q400 677 421.0 698.0Q442 719 472 719Z" style="fill:#f03a17;stroke:none" transform="scale(1,-1) translate(0,-256)" /></svg>