<?xml version="1.0" encoding="utf-8" ?>
<svg baseProfile="full" height="256" version="1.1" width="256" xmlns="http://www.w3.org/2000/svg" xmlns:ev="http://www.w3.org/2001/xml-events" xmlns:xlink="http://www.w3.org/1999/xlink"><defs /><path d="M1370 863Q1356 863 1345.0 873.5Q1334 884 1334 898Q1334 913 1345 924L1416 996Q1426 1006 1442 1006Q1456 1006 1466.5 995.0Q1477 984 1477 970Q1477 955 1467 945L1395 873Q1385 863 1370 863ZM1442 1366Q1426 1366 1416 1376L1345 1448Q1334 1459 1334 1473Q1334 1488 1344.5 1498.5Q1355 1509 1370 1509Q1385 1509 1395 1499L1467 1427Q1477 1417 1477 1401Q1477 1387 1466.5 1376.5Q1456 1366 1442 1366Z" style="fill:#cccccc;stroke:none" transform="scale(1,-1) translate(0,-256)" /></svg>