<?xml version="1.0" encoding="utf-8" ?>
<svg baseProfile="full" height="256" version="1.1" width="256" xmlns="http://www.w3.org/2000/svg" xmlns:ev="http://www.w3.org/2001/xml-events" xmlns:xlink="http://www.w3.org/1999/xlink"><defs /><path d="M867 863Q851 863 841 873L770 945Q759 956 759 970Q759 985 769.5 995.5Q780 1006 795 1006Q810 1006 820 996L892 924Q902 914 902 898Q902 884 891.5 873.5Q881 863 867 863ZM1658 1150Q1644 1150 1632.5 1160.5Q1621 1171 1621 1186Q1621 1201 1632 1212L1704 1283Q1714 1293 1729 1293Q1744 1293 1754.5 1283.0Q1765 1273 1765 1258Q1765 1243 1755 1233L1683 1161Q1672 1150 1658 1150Z" style="fill:#ffffff;stroke:none" transform="scale(1,-1) translate(0,-256)" /></svg>