<?xml version="1.0" encoding="utf-8" ?>
<svg baseProfile="full" height="256" version="1.1" width="256" xmlns="http://www.w3.org/2000/svg" xmlns:ev="http://www.w3.org/2001/xml-events" xmlns:xlink="http://www.w3.org/1999/xlink"><defs /><path d="M2017 863Q2001 863 1991 873L1920 945Q1909 956 1909 970Q1909 985 1919.5 995.5Q1930 1006 1945 1006Q1960 1006 1970 996L2042 924Q2052 914 2052 898Q2052 884 2041.5 873.5Q2031 863 2017 863ZM1154 1150Q1140 1150 1129 1161L1057 1233Q1046 1244 1046 1258Q1046 1272 1057.0 1282.5Q1068 1293 1082 1293Q1098 1293 1108 1283L1180 1212Q1190 1202 1190 1186Q1190 1172 1179.0 1161.0Q1168 1150 1154 1150Z" style="fill:#e5e5e5;stroke:none" transform="scale(1,-1) translate(0,-256)" /></svg>