<?xml version="1.0" encoding="utf-8" ?>
<svg baseProfile="full" height="256" version="1.1" width="256" xmlns="http://www.w3.org/2000/svg" xmlns:ev="http://www.w3.org/2001/xml-events" xmlns:xlink="http://www.w3.org/1999/xlink"><defs /><path d="M543 719Q543 838 574.0 948.0Q605 1058 661.0 1154.0Q717 1250 796.0 1328.5Q875 1407 971.0 1463.0Q1067 1519 1177.0 1550.0Q1287 1581 1406 1581Q1525 1581 1635.0 1550.0Q1745 1519 1841.0 1463.0Q1937 1407 2015.5 1328.5Q2094 1250 2150.0 1154.0Q2206 1058 2237.0 948.0Q2268 838 2268 719Q2051 692 1836.0 678.0Q1621 664 1403 664Q1186 664 972.0 677.5Q758 691 543 719Z" style="fill:#f2f2f2;stroke:none" transform="scale(1,-1) translate(0,-256)" /></svg>