<?xml version="1.0" encoding="utf-8" ?>
<svg baseProfile="full" height="256" version="1.1" width="256" xmlns="http://www.w3.org/2000/svg" xmlns:ev="http://www.w3.org/2001/xml-events" xmlns:xlink="http://www.w3.org/1999/xlink"><defs /><path d="M1406 899Q1406 876 1397.5 856.5Q1389 837 1374.5 822.5Q1360 808 1340.0 799.5Q1320 791 1298 791Q1276 791 1256.5 799.5Q1237 808 1222.0 823.0Q1207 838 1198.5 857.5Q1190 877 1190 899Q1190 921 1198.5 940.5Q1207 960 1222.0 974.5Q1237 989 1256.5 997.5Q1276 1006 1298 1006Q1320 1006 1339.5 997.5Q1359 989 1374.0 975.0Q1389 961 1397.5 941.0Q1406 921 1406 899ZM1406 323Q1406 300 1397.5 280.5Q1389 261 1374.0 247.0Q1359 233 1339.5 224.5Q1320 216 1298 216Q1276 216 1256.5 224.5Q1237 233 1222.0 247.5Q1207 262 1198.5 281.5Q1190 301 1190 323Q1190 345 1198.5 364.5Q1207 384 1222.0 399.0Q1237 414 1256.5 422.5Q1276 431 1298 431Q1320 431 1340.0 422.5Q1360 414 1374.5 399.5Q1389 385 1397.5 365.0Q1406 345 1406 323ZM1586 503Q1564 503 1544.5 511.5Q1525 520 1510.0 535.0Q1495 550 1486.5 569.5Q1478 589 1478 611Q1478 633 1486.5 653.0Q1495 673 1509.5 687.5Q1524 702 1543.5 710.5Q1563 719 1586 719Q1608 719 1628.0 710.5Q1648 702 1662.0 687.0Q1676 672 1684.5 652.5Q1693 633 1693 611Q1693 589 1684.5 569.5Q1676 550 1661.5 535.0Q1647 520 1627.5 511.5Q1608 503 1586 503ZM1010 503Q988 503 968.5 511.5Q949 520 934.5 535.0Q920 550 911.5 569.5Q903 589 903 611Q903 633 911.5 652.5Q920 672 934.0 687.0Q948 702 967.5 710.5Q987 719 1010 719Q1032 719 1052.0 710.5Q1072 702 1086.5 687.5Q1101 673 1109.5 653.0Q1118 633 1118 611Q1118 589 1109.5 569.5Q1101 550 1086.0 535.0Q1071 520 1051.5 511.5Q1032 503 1010 503ZM1514 718Q1491 718 1471.5 726.5Q1452 735 1437.0 750.0Q1422 765 1413.5 784.5Q1405 804 1405 827Q1405 849 1413.5 869.0Q1422 889 1437.0 903.0Q1452 917 1471.5 925.5Q1491 934 1514 934Q1536 934 1555.5 925.5Q1575 917 1589.5 902.5Q1604 888 1612.5 868.5Q1621 849 1621 827Q1621 804 1612.5 784.5Q1604 765 1590.0 750.0Q1576 735 1556.0 726.5Q1536 718 1514 718ZM1082 287Q1060 287 1040.5 295.5Q1021 304 1006.0 319.0Q991 334 982.5 353.5Q974 373 974 395Q974 417 982.5 436.5Q991 456 1006.0 471.0Q1021 486 1040.5 494.5Q1060 503 1082 503Q1104 503 1124.0 494.5Q1144 486 1158.5 471.5Q1173 457 1181.5 437.0Q1190 417 1190 395Q1190 373 1181.5 353.5Q1173 334 1158.0 319.0Q1143 304 1123.5 295.5Q1104 287 1082 287ZM1405 395Q1405 417 1413.5 437.0Q1422 457 1437.0 471.5Q1452 486 1471.5 494.5Q1491 503 1514 503Q1536 503 1556.0 494.5Q1576 486 1590.0 471.5Q1604 457 1612.5 437.0Q1621 417 1621 395Q1621 373 1612.5 353.5Q1604 334 1590.0 319.0Q1576 304 1556.0 295.5Q1536 287 1514 287Q1491 287 1471.5 295.5Q1452 304 1437.0 318.5Q1422 333 1413.5 352.5Q1405 372 1405 395ZM974 827Q974 849 982.5 869.0Q991 889 1006.0 903.0Q1021 917 1040.5 925.5Q1060 934 1082 934Q1104 934 1124.0 925.5Q1144 917 1158.5 903.0Q1173 889 1181.5 869.0Q1190 849 1190 827Q1190 804 1181.5 784.5Q1173 765 1158.5 750.0Q1144 735 1124.0 726.5Q1104 718 1082 718Q1059 718 1039.5 726.5Q1020 735 1005.5 750.0Q991 765 982.5 784.5Q974 804 974 827Z" style="fill:#cccccc;stroke:none" transform="scale(1,-1) translate(0,-256)" /></svg>