<?xml version="1.0" encoding="utf-8" ?>
<svg baseProfile="full" height="256" version="1.1" width="256" xmlns="http://www.w3.org/2000/svg" xmlns:ev="http://www.w3.org/2001/xml-events" xmlns:xlink="http://www.w3.org/1999/xlink"><defs /><path d="M1047 863Q1077 863 1103.0 851.5Q1129 840 1148.5 820.5Q1168 801 1179.0 775.0Q1190 749 1190 719Q1190 689 1179.0 663.0Q1168 637 1148.5 617.5Q1129 598 1103.0 586.5Q1077 575 1047 575Q1017 575 991.0 586.5Q965 598 945.5 617.5Q926 637 914.5 663.0Q903 689 903 719Q903 749 914.5 775.0Q926 801 945.5 820.5Q965 840 991.0 851.5Q1017 863 1047 863ZM1406 503Q1436 503 1462.0 492.0Q1488 481 1507.5 461.5Q1527 442 1538.5 416.0Q1550 390 1550 360Q1550 330 1538.5 304.0Q1527 278 1507.5 258.5Q1488 239 1462.0 227.5Q1436 216 1406 216Q1376 216 1350.0 227.5Q1324 239 1304.5 258.5Q1285 278 1273.5 304.0Q1262 330 1262 360Q1262 390 1273.5 416.0Q1285 442 1304.5 461.5Q1324 481 1350.0 492.0Q1376 503 1406 503ZM1765 863Q1795 863 1821.0 851.5Q1847 840 1866.5 820.5Q1886 801 1897.5 775.0Q1909 749 1909 719Q1909 689 1897.5 663.0Q1886 637 1866.5 617.5Q1847 598 1821.0 586.5Q1795 575 1765 575Q1735 575 1709.0 586.5Q1683 598 1663.5 617.5Q1644 637 1633.0 663.0Q1622 689 1622 719Q1622 749 1633.0 775.0Q1644 801 1663.5 820.5Q1683 840 1709.0 851.5Q1735 863 1765 863Z" style="fill:#8e562e;stroke:none" transform="scale(1,-1) translate(0,-256)" /></svg>