<?xml version="1.0" encoding="utf-8" ?>
<svg baseProfile="full" height="256" version="1.1" width="256" xmlns="http://www.w3.org/2000/svg" xmlns:ev="http://www.w3.org/2001/xml-events" xmlns:xlink="http://www.w3.org/1999/xlink"><defs /><path d="M2195 528Q2247 482 2275.5 419.5Q2304 357 2304 288Q2304 221 2278.5 162.0Q2253 103 2209.0 59.0Q2165 15 2106.5 -10.5Q2048 -36 1981 -36Q1952 -36 1924.0 -30.5Q1896 -25 1869 -15Q1787 -53 1706.5 -63.0Q1626 -73 1542 -73Q1509 -73 1475.5 -72.5Q1442 -72 1407 -72Q1386 -113 1355.5 -146.0Q1325 -179 1287.5 -202.5Q1250 -226 1207.0 -238.5Q1164 -251 1118 -251Q1049 -251 990.5 -225.0Q932 -199 888.5 -154.5Q845 -110 820.5 -50.5Q796 9 796 77V86Q708 167 661.5 275.5Q615 384 615 503Q615 612 653.0 709.5Q691 807 758.5 883.0Q826 959 918.0 1009.0Q1010 1059 1118 1073V1516Q1086 1527 1066.5 1555.0Q1047 1583 1047 1617Q1047 1639 1055.5 1658.5Q1064 1678 1078.5 1693.0Q1093 1708 1112.5 1716.5Q1132 1725 1154 1725H1298Q1320 1725 1340.0 1716.5Q1360 1708 1374.5 1693.5Q1389 1679 1397.5 1659.0Q1406 1639 1406 1617Q1406 1583 1386.0 1555.0Q1366 1527 1334 1516V1078H1622Q1737 1078 1839.0 1035.0Q1941 992 2018.5 917.5Q2096 843 2143.0 743.0Q2190 643 2195 528ZM1118 -179Q1180 -179 1234.5 -151.0Q1289 -123 1324 -72H1286Q1227 -72 1175.0 -70.5Q1123 -69 1073.5 -59.5Q1024 -50 974.5 -30.5Q925 -11 872 25Q880 -19 902.5 -56.5Q925 -94 958.0 -121.0Q991 -148 1032.0 -163.5Q1073 -179 1118 -179ZM1981 36Q2033 36 2079.0 56.0Q2125 76 2159.0 110.0Q2193 144 2213.0 190.0Q2233 236 2233 288Q2233 325 2222.0 360.0Q2211 395 2191 426Q2174 309 2115.0 208.5Q2056 108 1959 38Q1964 38 1970.0 37.0Q1976 36 1981 36ZM1190 1510V1078H1262V1510Z" style="fill:#ffc83d;stroke:none" transform="scale(1,-1) translate(0,-256)" /></svg>