<?xml version="1.0" encoding="utf-8" ?>
<svg baseProfile="full" height="256" version="1.1" width="256" xmlns="http://www.w3.org/2000/svg" xmlns:ev="http://www.w3.org/2001/xml-events" xmlns:xlink="http://www.w3.org/1999/xlink"><defs /><path d="M1693 719H1837Q1882 719 1921.0 702.0Q1960 685 1989.5 655.5Q2019 626 2036.0 587.0Q2053 548 2053 503Q2053 458 2036.0 419.0Q2019 380 1989.5 351.0Q1960 322 1921.0 305.0Q1882 288 1837 288H1406Q1406 243 1389.0 204.0Q1372 165 1342.5 135.5Q1313 106 1274.0 89.0Q1235 72 1190 72H831Q786 72 747.0 89.0Q708 106 678.5 135.5Q649 165 632.0 204.0Q615 243 615 288Q615 333 632.0 372.0Q649 411 678.5 440.0Q708 469 747.0 486.0Q786 503 831 503H1047Q1092 503 1131.0 520.0Q1170 537 1199.0 566.5Q1228 596 1245.0 635.0Q1262 674 1262 719V791Q1262 836 1279.0 875.0Q1296 914 1325.5 943.0Q1355 972 1394.0 989.0Q1433 1006 1478 1006Q1523 1006 1562.0 989.0Q1601 972 1630.0 943.0Q1659 914 1676.0 875.0Q1693 836 1693 791Z" style="fill:#da3b01;stroke:none" transform="scale(1,-1) translate(0,-256)" /></svg>