<?xml version="1.0" encoding="utf-8" ?>
<svg baseProfile="full" height="256" version="1.1" width="256" xmlns="http://www.w3.org/2000/svg" xmlns:ev="http://www.w3.org/2001/xml-events" xmlns:xlink="http://www.w3.org/1999/xlink"><defs /><path d="M1622 1294Q1731 1294 1832.0 1265.5Q1933 1237 2020.5 1185.5Q2108 1134 2180.5 1062.0Q2253 990 2304.5 902.0Q2356 814 2384.0 713.0Q2412 612 2412 503Q2412 394 2384.0 293.0Q2356 192 2304.5 104.5Q2253 17 2180.5 -55.5Q2108 -128 2020.5 -179.5Q1933 -231 1832.0 -259.0Q1731 -287 1622 -287H1190Q1026 -287 882.5 -225.0Q739 -163 631.5 -55.5Q524 52 462.0 195.5Q400 339 400 503Q400 612 428.0 713.0Q456 814 507.5 902.0Q559 990 631.5 1062.0Q704 1134 791.5 1185.5Q879 1237 980.0 1265.5Q1081 1294 1190 1294Z" style="fill:#ffffff;stroke:none" transform="scale(1,-1) translate(0,-256)" /></svg>