<?xml version="1.0" encoding="utf-8" ?>
<svg baseProfile="full" height="256" version="1.1" width="256" xmlns="http://www.w3.org/2000/svg" xmlns:ev="http://www.w3.org/2001/xml-events" xmlns:xlink="http://www.w3.org/1999/xlink"><defs /><path d="M1478 1438H1622Q1751 1438 1870.0 1404.5Q1989 1371 2093.0 1310.0Q2197 1249 2282.0 1163.5Q2367 1078 2428.0 974.0Q2489 870 2522.5 751.0Q2556 632 2556 503Q2556 374 2522.5 255.0Q2489 136 2428.0 32.0Q2367 -72 2282.0 -157.0Q2197 -242 2093.0 -303.0Q1989 -364 1870.0 -397.5Q1751 -431 1622 -431H1190Q1061 -431 942.0 -397.5Q823 -364 719.0 -303.0Q615 -242 530.0 -157.0Q445 -72 384.0 32.0Q323 136 289.5 255.0Q256 374 256 503Q256 666 308.5 814.5Q361 963 456.5 1083.5Q552 1204 684.0 1289.5Q816 1375 975 1413V1441Q944 1447 917.5 1463.5Q891 1480 872.0 1503.5Q853 1527 842.0 1556.0Q831 1585 831 1617Q831 1649 842.0 1678.0Q853 1707 872.0 1730.5Q891 1754 917.5 1770.5Q944 1787 975 1794Q1010 1829 1056.5 1849.0Q1103 1869 1154 1869H2304Q2341 1869 2374.0 1855.0Q2407 1841 2431.5 1816.5Q2456 1792 2470.0 1759.0Q2484 1726 2484 1689Q2484 1652 2470.0 1619.5Q2456 1587 2431.5 1562.5Q2407 1538 2374.0 1524.0Q2341 1510 2304 1510H1577Q1542 1482 1498 1465L1478 1442Z" style="fill:#000000;stroke:none" transform="scale(1,-1) translate(0,-256)" /></svg>