<?xml version="1.0" encoding="utf-8" ?>
<svg baseProfile="full" height="256" version="1.1" width="256" xmlns="http://www.w3.org/2000/svg" xmlns:ev="http://www.w3.org/2001/xml-events" xmlns:xlink="http://www.w3.org/1999/xlink"><defs /><path d="M1370 1581H1011Q997 1581 986.0 1592.0Q975 1603 975 1617Q975 1632 985.5 1642.5Q996 1653 1011 1653H1370Q1394 1653 1415.0 1664.0Q1436 1675 1454.5 1688.5Q1473 1702 1488.0 1713.5Q1503 1725 1514 1725H2304Q2319 1725 2329.5 1714.5Q2340 1704 2340 1689Q2340 1674 2329.5 1663.5Q2319 1653 2304 1653H1528Q1495 1625 1455.0 1603.0Q1415 1581 1370 1581Z" style="fill:#cccccc;stroke:none" transform="scale(1,-1) translate(0,-256)" /></svg>