<?xml version="1.0" encoding="utf-8" ?>
<svg baseProfile="full" height="256" version="1.1" width="256" xmlns="http://www.w3.org/2000/svg" xmlns:ev="http://www.w3.org/2001/xml-events" xmlns:xlink="http://www.w3.org/1999/xlink"><defs /><path d="M1406 935Q1376 935 1350.0 946.0Q1324 957 1304.5 976.5Q1285 996 1273.5 1022.0Q1262 1048 1262 1078Q1262 1108 1273.5 1134.0Q1285 1160 1304.5 1179.5Q1324 1199 1350.0 1210.5Q1376 1222 1406 1222Q1436 1222 1462.0 1210.5Q1488 1199 1507.5 1179.5Q1527 1160 1538.5 1134.0Q1550 1108 1550 1078Q1550 1048 1538.5 1022.0Q1527 996 1507.5 976.5Q1488 957 1462.0 946.0Q1436 935 1406 935ZM1406 1582Q1412 1582 1418.0 1581.0Q1424 1580 1429 1578L2076 1362Q2098 1354 2111.5 1335.5Q2125 1317 2125 1294Q2125 1265 2104.0 1243.5Q2083 1222 2053 1222Q2041 1222 2030 1226L1406 1434L782 1226Q777 1224 771.0 1223.0Q765 1222 759 1222Q729 1222 708.0 1243.5Q687 1265 687 1294Q687 1317 700.5 1335.5Q714 1354 736 1362L1383 1578Q1388 1580 1394.0 1581.0Q1400 1582 1406 1582ZM1909 72Q1939 72 1960.0 51.0Q1981 30 1981 0Q1981 -29 1959.5 -50.5Q1938 -72 1909 -72H1406Q1377 -72 1355.5 -50.0Q1334 -28 1334 1Q1334 30 1355 51L1591 287L1464 667L1294 583Q1278 575 1262 575Q1232 575 1211 596L996 812Q975 833 975 863Q975 892 996.0 913.5Q1017 935 1046 935Q1076 935 1097 914L1276 735L1431 812Q1449 821 1467.5 831.0Q1486 841 1505 849Q1516 853 1527.0 855.5Q1538 858 1550 858Q1585 858 1613.0 837.5Q1641 817 1652 784L1791 367Q1797 350 1797 333Q1797 303 1785.5 285.0Q1774 267 1754 247L1579 72Z" style="fill:#ffffff;stroke:none" transform="scale(1,-1) translate(0,-256)" /></svg>