<?xml version="1.0" encoding="utf-8" ?>
<svg baseProfile="full" height="256" version="1.1" width="256" xmlns="http://www.w3.org/2000/svg" xmlns:ev="http://www.w3.org/2001/xml-events" xmlns:xlink="http://www.w3.org/1999/xlink"><defs /><path d="M2275 1025Q2275 931 2239.5 846.0Q2204 761 2138 695L1430 -13Q1364 -79 1280.0 -111.5Q1196 -144 1103 -144Q1038 -144 975.5 -129.0Q913 -114 855.0 -87.0Q797 -60 744.5 -22.0Q692 16 647 61L546 162Q475 234 437.0 325.0Q399 416 399 516Q399 603 426.0 678.5Q453 754 500.5 817.5Q548 881 611.5 932.0Q675 983 749 1021Q816 1056 868.0 1099.0Q920 1142 972 1196Q985 1209 1005.0 1232.0Q1025 1255 1044.5 1281.0Q1064 1307 1080.0 1332.5Q1096 1358 1102 1377Q1139 1450 1191.0 1513.5Q1243 1577 1307.5 1624.0Q1372 1671 1447.5 1698.5Q1523 1726 1608 1726Q1709 1726 1800.0 1688.0Q1891 1650 1963 1579L2064 1478Q2109 1433 2147.5 1381.0Q2186 1329 2214.5 1272.0Q2243 1215 2259.0 1153.0Q2275 1091 2275 1025Z" style="fill:#ffc83d;stroke:none" transform="scale(1,-1) translate(0,-256)" /></svg>