<?xml version="1.0" encoding="utf-8" ?>
<svg baseProfile="full" height="256" version="1.1" width="256" xmlns="http://www.w3.org/2000/svg" xmlns:ev="http://www.w3.org/2001/xml-events" xmlns:xlink="http://www.w3.org/1999/xlink"><defs /><path d="M256 516Q256 624 288.5 718.5Q321 813 378.0 893.5Q435 974 513.5 1038.5Q592 1103 684 1151Q715 1167 739.0 1183.0Q763 1199 784.0 1216.0Q805 1233 825.5 1252.5Q846 1272 870 1297Q904 1332 927.5 1365.0Q951 1398 974 1441Q1022 1532 1087.0 1610.5Q1152 1689 1232.0 1746.5Q1312 1804 1406.5 1836.5Q1501 1869 1608 1869Q1740 1869 1855.0 1820.5Q1970 1772 2064 1681Q2142 1606 2217.5 1530.0Q2293 1454 2368 1377Q2459 1283 2507.5 1167.5Q2556 1052 2556 921Q2556 814 2523.5 719.5Q2491 625 2433.5 545.0Q2376 465 2297.5 400.0Q2219 335 2128 287Q2085 264 2052.0 240.5Q2019 217 1984 183Q1959 159 1939.5 138.5Q1920 118 1903.0 97.0Q1886 76 1870.0 52.0Q1854 28 1838 -3Q1790 -95 1725.5 -173.5Q1661 -252 1580.5 -309.0Q1500 -366 1405.5 -398.5Q1311 -431 1203 -431Q1072 -431 957.0 -382.5Q842 -334 748 -243Q684 -180 621.0 -116.5Q558 -53 495 10L444 61Q353 153 304.5 269.5Q256 386 256 516Z" style="fill:#000000;stroke:none" transform="scale(1,-1) translate(0,-256)" /></svg>