<?xml version="1.0" encoding="utf-8" ?>
<svg baseProfile="full" height="256" version="1.1" width="256" xmlns="http://www.w3.org/2000/svg" xmlns:ev="http://www.w3.org/2001/xml-events" xmlns:xlink="http://www.w3.org/1999/xlink"><defs /><path d="M1203 -288Q1103 -288 1011.5 -250.0Q920 -212 849 -141L654 54Q724 -13 813.5 -49.5Q903 -86 1001 -86Q1087 -86 1162.5 -59.0Q1238 -32 1302.0 15.5Q1366 63 1417.5 126.5Q1469 190 1507 263Q1534 314 1565.5 358.5Q1597 403 1638 445Q1666 473 1690.5 497.0Q1715 521 1741.0 541.5Q1767 562 1796.0 580.5Q1825 599 1861 618Q1934 656 1998.0 707.0Q2062 758 2109.0 822.0Q2156 886 2183.5 961.5Q2211 1037 2211 1124Q2211 1221 2174.5 1311.0Q2138 1401 2071 1471L2266 1276Q2337 1205 2375.0 1113.5Q2413 1022 2413 921Q2413 835 2386.0 759.5Q2359 684 2311.5 620.5Q2264 557 2200.5 505.0Q2137 453 2064 415Q2013 389 1969.0 357.5Q1925 326 1883 285Q1854 257 1830.5 232.0Q1807 207 1786.5 181.0Q1766 155 1747.5 126.0Q1729 97 1710 61Q1672 -12 1620.5 -75.5Q1569 -139 1505.0 -186.5Q1441 -234 1365.0 -261.0Q1289 -288 1203 -288ZM1007 871Q1007 849 998.5 829.5Q990 810 975.5 795.0Q961 780 941.5 771.5Q922 763 900 763Q878 763 858.5 771.5Q839 780 824.0 795.0Q809 810 800.5 829.5Q792 849 792 871Q792 893 800.5 912.5Q809 932 824.0 946.5Q839 961 858.5 969.5Q878 978 900 978Q922 978 941.5 969.5Q961 961 975.5 946.5Q990 932 998.5 912.5Q1007 893 1007 871ZM1108 162Q1108 140 1099.5 120.5Q1091 101 1076.5 86.0Q1062 71 1042.5 62.5Q1023 54 1001 54Q979 54 959.5 62.5Q940 71 925.0 86.0Q910 101 901.5 120.5Q893 140 893 162Q893 184 901.5 203.5Q910 223 925.0 237.5Q940 252 959.5 260.5Q979 269 1001 269Q1023 269 1042.5 260.5Q1062 252 1076.5 237.5Q1091 223 1099.5 203.5Q1108 184 1108 162ZM1614 1478Q1614 1456 1605.5 1436.5Q1597 1417 1582.5 1402.0Q1568 1387 1548.5 1378.5Q1529 1370 1507 1370Q1485 1370 1465.5 1378.5Q1446 1387 1431.0 1402.0Q1416 1417 1407.5 1436.5Q1399 1456 1399 1478Q1399 1500 1407.5 1519.5Q1416 1539 1431.0 1553.5Q1446 1568 1465.5 1576.5Q1485 1585 1507 1585Q1529 1585 1548.5 1576.5Q1568 1568 1582.5 1553.5Q1597 1539 1605.5 1519.5Q1614 1500 1614 1478ZM1867 719Q1867 697 1858.5 677.5Q1850 658 1835.5 643.0Q1821 628 1801.5 619.5Q1782 611 1760 611Q1738 611 1718.5 619.5Q1699 628 1684.0 643.0Q1669 658 1660.5 677.5Q1652 697 1652 719Q1652 741 1660.5 760.5Q1669 780 1684.0 794.5Q1699 809 1718.5 817.5Q1738 826 1760 826Q1782 826 1801.5 817.5Q1821 809 1835.5 794.5Q1850 780 1858.5 760.5Q1867 741 1867 719ZM1478 617Q1478 588 1456.5 567.0Q1435 546 1406 546Q1377 546 1355.5 567.0Q1334 588 1334 617Q1334 647 1355.5 668.0Q1377 689 1406 689Q1435 689 1456.5 668.0Q1478 647 1478 617ZM769 314Q769 285 748.0 263.5Q727 242 697 242Q668 242 647.0 263.5Q626 285 626 314Q626 343 647.0 364.5Q668 386 697 386Q727 386 748.0 364.5Q769 343 769 314ZM1376 314Q1376 285 1355.0 263.5Q1334 242 1304 242Q1275 242 1254.0 263.5Q1233 285 1233 314Q1233 343 1254.0 364.5Q1275 386 1304 386Q1334 386 1355.0 364.5Q1376 343 1376 314ZM718 668Q718 639 697.0 618.0Q676 597 646 597Q617 597 596.0 618.0Q575 639 575 668Q575 698 596.0 719.0Q617 740 646 740Q676 740 697.0 719.0Q718 698 718 668ZM1528 1174Q1528 1145 1507.0 1124.0Q1486 1103 1456 1103Q1427 1103 1406.0 1124.0Q1385 1145 1385 1174Q1385 1204 1406.0 1225.0Q1427 1246 1456 1246Q1486 1246 1507.0 1225.0Q1528 1204 1528 1174ZM1832 1073Q1832 1044 1811.0 1023.0Q1790 1002 1760 1002Q1731 1002 1710.0 1023.0Q1689 1044 1689 1073Q1689 1103 1710.0 1124.0Q1731 1145 1760 1145Q1790 1145 1811.0 1124.0Q1832 1103 1832 1073ZM1123 466Q1123 437 1102.0 415.5Q1081 394 1051 394Q1022 394 1001.0 415.5Q980 437 980 466Q980 496 1001.0 516.5Q1022 537 1051 537Q1081 537 1102.0 516.5Q1123 496 1123 466ZM2135 1073Q2135 1044 2114.5 1023.0Q2094 1002 2064 1002Q2035 1002 2013.5 1023.0Q1992 1044 1992 1073Q1992 1103 2013.5 1124.0Q2035 1145 2064 1145Q2094 1145 2114.5 1124.0Q2135 1103 2135 1073ZM1224 1174Q1224 1145 1203.5 1124.0Q1183 1103 1153 1103Q1124 1103 1102.5 1124.0Q1081 1145 1081 1174Q1081 1204 1102.5 1225.0Q1124 1246 1153 1246Q1183 1246 1203.5 1225.0Q1224 1204 1224 1174ZM1326 870Q1326 841 1304.5 820.0Q1283 799 1254 799Q1225 799 1204.0 820.0Q1183 841 1183 870Q1183 900 1204.0 921.0Q1225 942 1254 942Q1283 942 1304.5 921.0Q1326 900 1326 870ZM1882 1427Q1882 1398 1861.0 1377.0Q1840 1356 1811 1356Q1782 1356 1760.5 1377.0Q1739 1398 1739 1427Q1739 1457 1760.5 1478.0Q1782 1499 1811 1499Q1840 1499 1861.0 1478.0Q1882 1457 1882 1427Z" style="fill:#eba300;stroke:none" transform="scale(1,-1) translate(0,-256)" /></svg>