<?xml version="1.0" encoding="utf-8" ?>
<svg baseProfile="full" height="256" version="1.1" width="256" xmlns="http://www.w3.org/2000/svg" xmlns:ev="http://www.w3.org/2001/xml-events" xmlns:xlink="http://www.w3.org/1999/xlink"><defs /><path d="M2340 -72Q2278 -72 2226.5 -39.5Q2175 -7 2147 48L1634 1074L1415 854Q1385 824 1345.0 807.5Q1305 791 1262 791Q1173 791 1110 854L890 1074L664 623Q636 566 585.5 534.5Q535 503 472 503Q427 503 388.0 520.0Q349 537 319.5 566.5Q290 596 273.0 635.0Q256 674 256 719Q256 769 279 815L638 1534Q667 1591 717.0 1622.0Q767 1653 831 1653Q874 1653 913.5 1636.5Q953 1620 983 1590L1262 1311L1541 1590Q1571 1620 1611.0 1636.5Q1651 1653 1694 1653Q1755 1653 1807.0 1621.0Q1859 1589 1886 1534L2533 240Q2556 194 2556 144Q2556 99 2539.0 60.0Q2522 21 2492.5 -8.5Q2463 -38 2424.0 -55.0Q2385 -72 2340 -72Z" style="fill:#000000;stroke:none" transform="scale(1,-1) translate(0,-256)" /></svg>