<?xml version="1.0" encoding="utf-8" ?>
<svg baseProfile="full" height="256" version="1.1" width="256" xmlns="http://www.w3.org/2000/svg" xmlns:ev="http://www.w3.org/2001/xml-events" xmlns:xlink="http://www.w3.org/1999/xlink"><defs /><path d="M2340 72Q2320 72 2302.5 83.0Q2285 94 2276 112L1674 1316L1313 956Q1292 935 1262 935Q1232 935 1211 956L851 1316L536 687Q527 669 509.5 658.0Q492 647 472 647Q442 647 421.0 668.0Q400 689 400 719Q400 737 407 751L767 1470Q776 1488 793.5 1499.0Q811 1510 831 1510Q861 1510 882 1489L1262 1108L1643 1489Q1664 1510 1695 1510Q1715 1510 1732.0 1498.5Q1749 1487 1758 1470L2405 176Q2412 162 2412 145Q2412 115 2391.0 93.5Q2370 72 2340 72Z" style="fill:#fce100;stroke:none" transform="scale(1,-1) translate(0,-256)" /></svg>