<?xml version="1.0" encoding="utf-8" ?>
<svg baseProfile="full" height="256" version="1.1" width="256" xmlns="http://www.w3.org/2000/svg" xmlns:ev="http://www.w3.org/2001/xml-events" xmlns:xlink="http://www.w3.org/1999/xlink"><defs /><path d="M1118 1438Q1148 1438 1169.0 1417.0Q1190 1396 1190 1366Q1190 1336 1169.0 1315.0Q1148 1294 1118 1294Q1003 1294 911.5 1249.5Q820 1205 741 1124Q718 1099 687 1099Q672 1099 659.0 1105.0Q646 1111 636.5 1121.0Q627 1131 621.0 1144.0Q615 1157 615 1171Q615 1196 633 1219Q676 1271 732.5 1312.0Q789 1353 852.0 1381.0Q915 1409 983.0 1423.5Q1051 1438 1118 1438ZM1693 1438Q1760 1438 1828.0 1423.5Q1896 1409 1959.5 1381.0Q2023 1353 2079.5 1312.0Q2136 1271 2179 1219Q2197 1196 2197 1171Q2197 1157 2191.0 1144.0Q2185 1131 2175.5 1121.0Q2166 1111 2153.0 1105.0Q2140 1099 2125 1099Q2094 1099 2071 1124Q1992 1205 1900.0 1249.5Q1808 1294 1693 1294Q1664 1294 1643.0 1315.5Q1622 1337 1622 1366Q1622 1395 1643.0 1416.5Q1664 1438 1693 1438Z" style="fill:#0063b1;stroke:none" transform="scale(1,-1) translate(0,-256)" /></svg>