<?xml version="1.0" encoding="utf-8" ?>
<svg baseProfile="full" height="256" version="1.1" width="256" xmlns="http://www.w3.org/2000/svg" xmlns:ev="http://www.w3.org/2001/xml-events" xmlns:xlink="http://www.w3.org/1999/xlink"><defs /><path d="M1047 0Q1047 75 1075.0 140.5Q1103 206 1152.0 254.5Q1201 303 1266.0 331.5Q1331 360 1406 360Q1480 360 1545.5 331.5Q1611 303 1659.5 254.0Q1708 205 1736.5 139.5Q1765 74 1765 0ZM2122 755Q2122 703 2102.5 657.5Q2083 612 2049.0 578.5Q2015 545 1970.0 525.5Q1925 506 1873 506Q1821 506 1775.5 525.5Q1730 545 1696.5 578.5Q1663 612 1643.5 657.5Q1624 703 1624 755Q1624 806 1643.5 851.5Q1663 897 1697.0 931.0Q1731 965 1776.5 984.5Q1822 1004 1873 1004Q1924 1004 1969.5 984.5Q2015 965 2049.0 931.0Q2083 897 2102.5 851.5Q2122 806 2122 755ZM1188 755Q1188 703 1168.5 657.5Q1149 612 1115.0 578.5Q1081 545 1036.0 525.5Q991 506 939 506Q887 506 841.5 525.5Q796 545 762.5 578.5Q729 612 709.5 657.5Q690 703 690 755Q690 807 709.5 852.0Q729 897 762.5 931.0Q796 965 841.5 984.5Q887 1004 939 1004Q990 1004 1035.5 984.5Q1081 965 1115.0 931.0Q1149 897 1168.5 851.5Q1188 806 1188 755Z" style="fill:#000000;stroke:none" transform="scale(1,-1) translate(0,-256)" /></svg>