<?xml version="1.0" encoding="utf-8" ?>
<svg baseProfile="full" height="256" version="1.1" width="256" xmlns="http://www.w3.org/2000/svg" xmlns:ev="http://www.w3.org/2001/xml-events" xmlns:xlink="http://www.w3.org/1999/xlink"><defs /><path d="M2412 719Q2412 580 2376.0 451.5Q2340 323 2274.5 211.0Q2209 99 2117.5 7.5Q2026 -84 1914.0 -149.5Q1802 -215 1673.5 -251.0Q1545 -287 1406 -287Q1267 -287 1138.5 -251.0Q1010 -215 898.0 -149.5Q786 -84 694.5 7.5Q603 99 537.5 211.0Q472 323 436.0 451.5Q400 580 400 719Q447 848 498.5 961.5Q550 1075 612.0 1170.0Q674 1265 750.5 1339.5Q827 1414 923.0 1466.0Q1019 1518 1138.5 1545.5Q1258 1573 1406 1573Q1583 1573 1727.0 1534.5Q1871 1496 1985.5 1417.0Q2100 1338 2188.0 1217.5Q2276 1097 2341 933Q2343 927 2349.0 911.0Q2355 895 2363.0 873.0Q2371 851 2379.5 826.0Q2388 801 2395.5 779.0Q2403 757 2407.5 740.5Q2412 724 2412 719Z" style="fill:#ffc83d;stroke:none" transform="scale(1,-1) translate(0,-256)" /></svg>