<?xml version="1.0" encoding="utf-8" ?>
<svg baseProfile="full" height="256" version="1.1" width="256" xmlns="http://www.w3.org/2000/svg" xmlns:ev="http://www.w3.org/2001/xml-events" xmlns:xlink="http://www.w3.org/1999/xlink"><defs /><path d="M2306 443 2038 577Q2004 594 1970.0 608.5Q1936 623 1904 644Q1872 665 1846.0 690.5Q1820 716 1791 740L1565 933L1280 996Q1244 1004 1208.0 1010.0Q1172 1016 1137 1028Q1100 1040 1069.0 1059.0Q1038 1078 1003 1095L735 1229Q790 1341 873.0 1431.0Q956 1521 1058.5 1584.0Q1161 1647 1278.5 1681.0Q1396 1715 1521 1715Q1642 1715 1754.5 1683.5Q1867 1652 1964.5 1594.5Q2062 1537 2142.0 1456.5Q2222 1376 2279.0 1278.0Q2336 1180 2367.5 1068.0Q2399 956 2399 835Q2399 732 2375.5 633.0Q2352 534 2306 443Z" style="fill:#e81224;stroke:none" transform="scale(1,-1) translate(0,-256)" /></svg>