<?xml version="1.0" encoding="utf-8" ?>
<svg baseProfile="full" height="256" version="1.1" width="256" xmlns="http://www.w3.org/2000/svg" xmlns:ev="http://www.w3.org/2001/xml-events" xmlns:xlink="http://www.w3.org/1999/xlink"><defs /><path d="M613 -107Q613 -122 602.5 -132.5Q592 -143 577 -143Q563 -143 552.5 -132.0Q542 -121 542 -107Q542 -93 552.5 -82.0Q563 -71 577 -71Q592 -71 602.5 -81.5Q613 -92 613 -107ZM828 -107Q828 -122 817.5 -132.5Q807 -143 792 -143Q777 -143 766.5 -132.5Q756 -122 756 -107Q756 -92 766.5 -81.5Q777 -71 792 -71Q807 -71 817.5 -81.5Q828 -92 828 -107ZM542 107Q542 121 552.5 132.0Q563 143 577 143Q592 143 602.5 132.5Q613 122 613 107Q613 93 602.0 82.5Q591 72 577 72Q563 72 552.5 82.5Q542 93 542 107Z" style="fill:#ffc83d;stroke:none" transform="scale(1,-1) translate(0,-256)" /></svg>