<?xml version="1.0" encoding="utf-8" ?>
<svg baseProfile="full" height="256" version="1.1" width="256" xmlns="http://www.w3.org/2000/svg" xmlns:ev="http://www.w3.org/2001/xml-events" xmlns:xlink="http://www.w3.org/1999/xlink"><defs /><path d="M2113 1667Q2218 1593 2298.0 1495.5Q2378 1398 2432.5 1285.5Q2487 1173 2514.5 1049.0Q2542 925 2542 798V-428H256V572H1182L1291 791L543 1165L607 1293Q673 1423 769.0 1527.5Q865 1632 983.0 1705.5Q1101 1779 1237.0 1818.0Q1373 1857 1520 1857Q1670 1857 1816 1813Q1841 1836 1871.5 1847.0Q1902 1858 1935 1858Q1977 1858 2010.0 1843.0Q2043 1828 2066.0 1802.0Q2089 1776 2101.0 1741.0Q2113 1706 2113 1667Z" style="fill:#000000;stroke:none" transform="scale(1,-1) translate(0,-256)" /></svg>