<?xml version="1.0" encoding="utf-8" ?>
<svg baseProfile="full" height="256" version="1.1" width="256" xmlns="http://www.w3.org/2000/svg" xmlns:ev="http://www.w3.org/2001/xml-events" xmlns:xlink="http://www.w3.org/1999/xlink"><defs /><path d="M1190 144Q1190 97 1171.5 55.5Q1153 14 1118 -17L1178 -121L1118 -215L562 -286Q557 -287 552.5 -287.0Q548 -287 543 -287Q513 -287 487.0 -276.0Q461 -265 441.5 -245.5Q422 -226 411.0 -200.0Q400 -174 400 -144Q400 -105 419.5 -71.0Q439 -37 473 -18L759 144Q766 145 783.5 148.5Q801 152 823.5 156.0Q846 160 871.0 164.0Q896 168 917.5 171.5Q939 175 954.5 177.5Q970 180 975 180Q979 180 995.0 177.5Q1011 175 1032.5 171.5Q1054 168 1078.5 164.0Q1103 160 1125.5 156.0Q1148 152 1165.5 148.5Q1183 145 1190 144Z" style="fill:#3a96dd;stroke:none" transform="scale(1,-1) translate(0,-256)" /></svg>