<?xml version="1.0" encoding="utf-8" ?>
<svg baseProfile="full" height="256" version="1.1" width="256" xmlns="http://www.w3.org/2000/svg" xmlns:ev="http://www.w3.org/2001/xml-events" xmlns:xlink="http://www.w3.org/1999/xlink"><defs /><path d="M1418 -30Q1478 -63 1514.0 -122.5Q1550 -182 1550 -251V-431H1228L1093 -364L580 -429Q571 -430 561.5 -430.5Q552 -431 543 -431Q484 -431 431.5 -408.5Q379 -386 340.0 -347.0Q301 -308 278.5 -255.5Q256 -203 256 -144Q256 -86 271.5 -44.0Q287 -2 312.0 29.0Q337 60 369.5 83.0Q402 106 435.5 125.0Q469 144 501.5 161.5Q534 179 559.0 200.0Q584 221 599.5 247.5Q615 274 615 311V647Q615 704 636.5 756.0Q658 808 698 849Q658 897 636.5 956.0Q615 1015 615 1078V1150Q615 1224 643.5 1289.5Q672 1355 721.0 1404.0Q770 1453 835.5 1481.5Q901 1510 975 1510Q1052 1510 1117.5 1479.5Q1183 1449 1231.0 1397.0Q1279 1345 1306.5 1277.0Q1334 1209 1334 1134Q1334 1096 1332.5 1062.0Q1331 1028 1324.5 996.0Q1318 964 1304.5 933.0Q1291 902 1267 870L1266 866L1251 849Q1291 808 1312.5 756.0Q1334 704 1334 647V144Q1334 120 1331 98Q1363 75 1385.0 41.5Q1407 8 1418 -30Z" style="fill:#000000;stroke:none" transform="scale(1,-1) translate(0,-256)" /></svg>