<?xml version="1.0" encoding="utf-8" ?>
<svg baseProfile="full" height="256" version="1.1" width="256" xmlns="http://www.w3.org/2000/svg" xmlns:ev="http://www.w3.org/2001/xml-events" xmlns:xlink="http://www.w3.org/1999/xlink"><defs /><path d="M903 647H1047V360Q1047 330 1026 309L810 93Q789 72 759 72Q729 72 708.0 93.0Q687 114 687 144Q687 174 708 195L903 389ZM1139 938Q1108 903 1065.5 883.0Q1023 863 975 863Q930 863 891.0 880.0Q852 897 822.5 926.0Q793 955 776.0 994.0Q759 1033 759 1078V1114Q768 1114 777.5 1113.5Q787 1113 798 1113Q816 1113 834.5 1115.0Q853 1117 868.0 1124.0Q883 1131 892.5 1144.0Q902 1157 903 1180Q904 1151 915.5 1126.0Q927 1101 946.5 1082.0Q966 1063 992.0 1052.5Q1018 1042 1047 1042V1062Q1047 1071 1048.0 1080.5Q1049 1090 1052.5 1097.5Q1056 1105 1063.5 1109.5Q1071 1114 1083 1114Q1097 1114 1107.5 1103.0Q1118 1092 1118 1078V1042Q1118 1027 1108 1017L1118 1006Q1118 1000 1117.5 994.0Q1117 988 1117 982Q1117 968 1121.0 956.5Q1125 945 1139 938Z" style="fill:#ffc83d;stroke:none" transform="scale(1,-1) translate(0,-256)" /></svg>