<?xml version="1.0" encoding="utf-8" ?>
<svg baseProfile="full" height="256" version="1.1" width="256" xmlns="http://www.w3.org/2000/svg" xmlns:ev="http://www.w3.org/2001/xml-events" xmlns:xlink="http://www.w3.org/1999/xlink"><defs /><path d="M933 500Q988 494 1035.0 469.5Q1082 445 1116.5 407.0Q1151 369 1170.5 320.0Q1190 271 1190 216V193Q1190 173 1183.5 158.5Q1177 144 1154 144Q1139 144 1131.5 151.5Q1124 159 1121.0 169.5Q1118 180 1118.5 192.5Q1119 205 1119 216Q1119 261 1102.0 300.0Q1085 339 1055.5 368.0Q1026 397 987.0 414.0Q948 431 903 431H867Q853 432 842.0 442.5Q831 453 831 467Q831 479 837 488L1027 767Q1046 795 1046 828Q1046 850 1037.5 869.5Q1029 889 1014.0 903.0Q999 917 979.5 925.5Q960 934 938 934Q911 934 887.5 922.0Q864 910 849 887L472 294V431L789 927Q814 965 853.5 986.0Q893 1007 938 1007Q975 1007 1008.0 992.5Q1041 978 1065.0 953.5Q1089 929 1103.0 896.0Q1117 863 1117 826Q1117 800 1109.5 774.0Q1102 748 1087 726ZM715 1343 589 1096 409 1502Q400 1523 400 1545Q400 1567 408.5 1586.5Q417 1606 432.0 1621.0Q447 1636 466.5 1644.5Q486 1653 508 1653Q540 1653 566.5 1635.5Q593 1618 606 1589ZM1262 791H1334V539Q1334 524 1323.5 513.5Q1313 503 1298 503Q1283 503 1272.5 513.5Q1262 524 1262 539Z" style="fill:#d48c00;stroke:none" transform="scale(1,-1) translate(0,-256)" /></svg>