<?xml version="1.0" encoding="utf-8" ?>
<svg baseProfile="full" height="256" version="1.1" width="256" xmlns="http://www.w3.org/2000/svg" xmlns:ev="http://www.w3.org/2001/xml-events" xmlns:xlink="http://www.w3.org/1999/xlink"><defs /><path d="M831 935 935 965 1011 935H1119Q1149 935 1175.0 923.5Q1201 912 1220.5 892.5Q1240 873 1251.0 847.0Q1262 821 1262 791L1298 756L1334 791H1406Q1436 791 1462.0 779.5Q1488 768 1507.5 748.5Q1527 729 1538.5 703.0Q1550 677 1550 647V254Q1550 143 1507.5 44.5Q1465 -54 1392.0 -127.5Q1319 -201 1220.5 -244.0Q1122 -287 1011 -287Q899 -287 801.0 -244.5Q703 -202 630.0 -129.0Q557 -56 514.5 42.0Q472 140 472 252V294L509 383L472 431V692Q472 750 480.5 801.0Q489 852 505.0 901.0Q521 950 542.0 997.5Q563 1045 589 1096Q589 1103 588.5 1109.5Q588 1116 588 1123Q588 1157 593.5 1192.0Q599 1227 613.5 1257.0Q628 1287 652.5 1310.0Q677 1333 715 1343L840 1589Q855 1619 880.0 1636.0Q905 1653 939 1653Q961 1653 980.5 1644.5Q1000 1636 1015.0 1621.5Q1030 1607 1038.5 1587.5Q1047 1568 1047 1546Q1047 1531 1044.5 1523.5Q1042 1516 1037 1502Z" style="fill:#ffc83d;stroke:none" transform="scale(1,-1) translate(0,-256)" /></svg>