<?xml version="1.0" encoding="utf-8" ?>
<svg baseProfile="full" height="256" version="1.1" width="256" xmlns="http://www.w3.org/2000/svg" xmlns:ev="http://www.w3.org/2001/xml-events" xmlns:xlink="http://www.w3.org/1999/xlink"><defs /><path d="M1693 647V251Q1693 157 1668.5 70.0Q1644 -17 1599.5 -93.0Q1555 -169 1493.0 -231.0Q1431 -293 1355.0 -337.5Q1279 -382 1192.0 -406.5Q1105 -431 1011 -431Q917 -431 829.5 -406.5Q742 -382 666.0 -337.5Q590 -293 528.0 -231.0Q466 -169 421.5 -93.0Q377 -17 352.5 70.5Q328 158 328 252V692Q328 801 355.0 902.0Q382 1003 430 1100L278 1444Q256 1494 256 1545Q256 1597 276.0 1643.0Q296 1689 330.0 1723.0Q364 1757 410.0 1777.0Q456 1797 508 1797Q574 1797 631.5 1764.0Q689 1731 723 1674Q757 1731 815.0 1764.0Q873 1797 939 1797Q991 1797 1036.5 1777.0Q1082 1757 1116.5 1723.0Q1151 1689 1171.0 1643.5Q1191 1598 1191 1546Q1191 1520 1185.5 1496.5Q1180 1473 1171 1449L1036 1078H1119Q1156 1078 1192.5 1068.0Q1229 1058 1261.5 1039.0Q1294 1020 1321.0 994.0Q1348 968 1367 935H1406Q1466 935 1518.0 912.5Q1570 890 1609.0 851.0Q1648 812 1670.5 759.5Q1693 707 1693 647Z" style="fill:#000000;stroke:none" transform="scale(1,-1) translate(0,-256)" /></svg>