<?xml version="1.0" encoding="utf-8" ?>
<svg baseProfile="full" height="256" version="1.1" width="256" xmlns="http://www.w3.org/2000/svg" xmlns:ev="http://www.w3.org/2001/xml-events" xmlns:xlink="http://www.w3.org/1999/xlink"><defs /><path d="M1909 -431Q1835 -431 1769.5 -403.0Q1704 -375 1655.0 -326.0Q1606 -277 1578.0 -211.5Q1550 -146 1550 -72Q1550 -32 1542.0 11.0Q1534 54 1518.5 95.0Q1503 136 1480.5 173.0Q1458 210 1429 239L926 742Q897 771 860.0 793.5Q823 816 782.0 831.5Q741 847 698.0 855.0Q655 863 615 863Q541 863 475.5 891.0Q410 919 361.0 968.0Q312 1017 284.0 1082.5Q256 1148 256 1222Q256 1286 278.0 1345.0Q300 1404 339.0 1451.0Q378 1498 432.0 1530.5Q486 1563 549 1575Q561 1639 593.5 1693.0Q626 1747 673.5 1786.0Q721 1825 779.5 1847.0Q838 1869 903 1869Q977 1869 1042.5 1840.5Q1108 1812 1156.5 1763.5Q1205 1715 1233.5 1649.5Q1262 1584 1262 1510Q1262 1469 1270.0 1426.5Q1278 1384 1293.5 1343.0Q1309 1302 1331.5 1265.0Q1354 1228 1383 1199L1886 696Q1915 667 1952.0 644.5Q1989 622 2030.0 606.5Q2071 591 2113.5 583.0Q2156 575 2197 575Q2271 575 2336.5 546.5Q2402 518 2450.5 469.5Q2499 421 2527.5 355.5Q2556 290 2556 216Q2556 151 2534.0 92.5Q2512 34 2473.0 -13.5Q2434 -61 2380.0 -93.5Q2326 -126 2262 -138Q2250 -201 2217.5 -255.0Q2185 -309 2138.0 -348.0Q2091 -387 2032.0 -409.0Q1973 -431 1909 -431Z" style="fill:#000000;stroke:none" transform="scale(1,-1) translate(0,-256)" /></svg>