<?xml version="1.0" encoding="utf-8" ?>
<svg baseProfile="full" height="256" version="1.1" width="256" xmlns="http://www.w3.org/2000/svg" xmlns:ev="http://www.w3.org/2001/xml-events" xmlns:xlink="http://www.w3.org/1999/xlink"><defs /><path d="M2412 216Q2412 171 2395.0 132.0Q2378 93 2349.0 63.5Q2320 34 2281.0 17.0Q2242 0 2197 0Q2193 11 2183.5 21.0Q2174 31 2160 31Q2149 31 2142.0 18.0Q2135 5 2131.5 -12.5Q2128 -30 2126.5 -47.0Q2125 -64 2125 -72Q2125 -117 2108.0 -156.0Q2091 -195 2061.5 -224.0Q2032 -253 1993.0 -270.0Q1954 -287 1909 -287Q1864 -287 1825.0 -270.0Q1786 -253 1756.5 -224.0Q1727 -195 1710.0 -156.0Q1693 -117 1693 -72Q1693 -16 1682.5 40.5Q1672 97 1651.5 150.0Q1631 203 1600.5 251.5Q1570 300 1530 340L1027 843Q987 883 938.5 913.5Q890 944 837.0 964.5Q784 985 727.5 995.5Q671 1006 615 1006Q570 1006 531.0 1023.0Q492 1040 463.0 1069.5Q434 1099 417.0 1138.0Q400 1177 400 1222Q400 1267 417.0 1306.0Q434 1345 463.0 1374.5Q492 1404 531.0 1421.0Q570 1438 615 1438Q622 1438 641.0 1439.5Q660 1441 679.5 1445.0Q699 1449 714.0 1455.5Q729 1462 729 1471Q729 1477 724.0 1483.5Q719 1490 712.5 1495.0Q706 1500 698.5 1504.0Q691 1508 687 1510Q687 1555 704.0 1594.0Q721 1633 750.5 1662.0Q780 1691 819.0 1708.0Q858 1725 903 1725Q948 1725 987.0 1708.0Q1026 1691 1055.0 1662.0Q1084 1633 1101.0 1594.0Q1118 1555 1118 1510Q1118 1454 1128.5 1397.5Q1139 1341 1160.0 1288.0Q1181 1235 1211.5 1186.5Q1242 1138 1282 1098L1785 595Q1825 555 1873.5 524.5Q1922 494 1975.0 473.0Q2028 452 2084.5 441.5Q2141 431 2197 431Q2242 431 2281.0 414.0Q2320 397 2349.0 368.0Q2378 339 2395.0 300.0Q2412 261 2412 216Z" style="fill:#f2f2f2;stroke:none" transform="scale(1,-1) translate(0,-256)" /></svg>