<?xml version="1.0" encoding="utf-8" ?>
<svg baseProfile="full" height="256" version="1.1" width="256" xmlns="http://www.w3.org/2000/svg" xmlns:ev="http://www.w3.org/2001/xml-events" xmlns:xlink="http://www.w3.org/1999/xlink"><defs /><path d="M2197 0Q2185 0 2172.5 -6.0Q2160 -12 2149.5 -22.0Q2139 -32 2132.5 -44.5Q2126 -57 2125 -69V36Q2125 90 2154.5 135.5Q2184 181 2235 201Q2242 204 2249 204Q2264 204 2274.0 193.0Q2284 182 2284 168Q2284 151 2270.5 142.0Q2257 133 2240.5 121.0Q2224 109 2210.5 90.0Q2197 71 2197 36ZM723 1438H617Q630 1439 642.5 1445.5Q655 1452 665.0 1462.5Q675 1473 681.0 1485.5Q687 1498 687 1510H723Q758 1510 777.0 1523.5Q796 1537 808.0 1553.5Q820 1570 829.0 1583.5Q838 1597 855 1597Q869 1597 880.0 1587.0Q891 1577 891 1562Q891 1555 888 1548Q868 1497 822.5 1467.5Q777 1438 723 1438Z" style="fill:#a6a6a6;stroke:none" transform="scale(1,-1) translate(0,-256)" /></svg>