<?xml version="1.0" encoding="utf-8" ?>
<svg baseProfile="full" height="256" version="1.1" width="256" xmlns="http://www.w3.org/2000/svg" xmlns:ev="http://www.w3.org/2001/xml-events" xmlns:xlink="http://www.w3.org/1999/xlink"><defs /><path d="M1997 418Q1982 418 1959.0 425.0Q1936 432 1911.5 442.0Q1887 452 1864.0 462.5Q1841 473 1826 479Q1765 505 1696.5 540.0Q1628 575 1557.5 615.5Q1487 656 1416.5 702.0Q1346 748 1282.0 797.0Q1218 846 1162.5 898.0Q1107 950 1066 1002Q1058 1013 1052.0 1025.5Q1046 1038 1046 1052Q1046 1081 1067.5 1102.5Q1089 1124 1118 1124Q1135 1124 1146.0 1118.0Q1157 1112 1170 1101Q1199 1076 1224.5 1048.5Q1250 1021 1279 995Q1397 889 1527.0 803.0Q1657 717 1800 648Q1835 631 1871.0 615.5Q1907 600 1944 585Q1962 577 1981.0 571.5Q2000 566 2018 558Q2041 547 2054.5 532.0Q2068 517 2068 490Q2068 460 2047.5 439.0Q2027 418 1997 418Z" style="fill:#886ce4;stroke:none" transform="scale(1,-1) translate(0,-256)" /></svg>