<?xml version="1.0" encoding="utf-8" ?>
<svg baseProfile="full" height="256" version="1.1" width="256" xmlns="http://www.w3.org/2000/svg" xmlns:ev="http://www.w3.org/2001/xml-events" xmlns:xlink="http://www.w3.org/1999/xlink"><defs /><path d="M1909 -431Q1734 -431 1581.5 -380.5Q1429 -330 1297.5 -241.5Q1166 -153 1054.5 -34.0Q943 85 851.0 222.0Q759 359 685.5 507.0Q612 655 556 801Q527 793 498.5 791.0Q470 789 440 789Q412 789 384.0 790.0Q356 791 328 791V1438Q328 1465 332 1488Q297 1520 276.5 1562.5Q256 1605 256 1653Q256 1698 273.0 1737.5Q290 1777 319.0 1806.0Q348 1835 387.5 1852.0Q427 1869 472 1869Q519 1869 562.5 1849.0Q606 1829 636 1793Q659 1797 687 1797H1334V1653Q1334 1596 1316.0 1541.0Q1298 1486 1263 1440Q1341 1333 1436.5 1242.0Q1532 1151 1639.5 1075.0Q1747 999 1864.5 938.5Q1982 878 2105 832Q2207 794 2290.0 734.5Q2373 675 2432.5 597.0Q2492 519 2524.0 423.5Q2556 328 2556 216Q2556 127 2533.0 44.0Q2510 -39 2467.5 -110.5Q2425 -182 2366.0 -241.0Q2307 -300 2235.5 -342.5Q2164 -385 2081.0 -408.0Q1998 -431 1909 -431Z" style="fill:#000000;stroke:none" transform="scale(1,-1) translate(0,-256)" /></svg>