<?xml version="1.0" encoding="utf-8" ?>
<svg baseProfile="full" height="256" version="1.1" width="256" xmlns="http://www.w3.org/2000/svg" xmlns:ev="http://www.w3.org/2001/xml-events" xmlns:xlink="http://www.w3.org/1999/xlink"><defs /><path d="M1047 1510Q1115 1388 1205.5 1279.5Q1296 1171 1402.0 1078.0Q1508 985 1627.0 908.0Q1746 831 1872 773Q1935 744 2004.5 720.0Q2074 696 2135 665Q2199 631 2250.0 584.0Q2301 537 2337.0 479.5Q2373 422 2392.5 355.5Q2412 289 2412 216Q2412 112 2372.5 20.5Q2333 -71 2264.5 -139.5Q2196 -208 2104.5 -247.5Q2013 -287 1909 -287Q1763 -287 1634.5 -245.5Q1506 -204 1394.0 -132.0Q1282 -60 1186.0 38.0Q1090 136 1009.0 248.0Q928 360 862.0 482.0Q796 604 743 724Q737 737 725.5 765.5Q714 794 699.5 830.0Q685 866 670.0 905.5Q655 945 643.0 980.0Q631 1015 623.0 1041.5Q615 1068 615 1078V1510Z" style="fill:#5e4a9d;stroke:none" transform="scale(1,-1) translate(0,-256)" /></svg>