<?xml version="1.0" encoding="utf-8" ?>
<svg baseProfile="full" height="256" version="1.1" width="256" xmlns="http://www.w3.org/2000/svg" xmlns:ev="http://www.w3.org/2001/xml-events" xmlns:xlink="http://www.w3.org/1999/xlink"><defs /><path d="M687 1653H1190Q1190 1608 1173.0 1569.0Q1156 1530 1127.0 1501.0Q1098 1472 1059.0 1455.0Q1020 1438 975 1438H903Q903 1393 886.0 1354.0Q869 1315 839.5 1285.5Q810 1256 771.0 1239.0Q732 1222 687 1222V1150Q687 1105 670.0 1066.0Q653 1027 624.0 998.0Q595 969 556.0 952.0Q517 935 472 935V1438Q472 1462 477.5 1485.0Q483 1508 493 1530Q482 1542 466.0 1556.0Q450 1570 435.5 1586.0Q421 1602 410.5 1619.0Q400 1636 400 1653Q400 1682 421.0 1703.5Q442 1725 471 1725Q501 1725 522 1704L595 1632Q617 1642 640.0 1647.5Q663 1653 687 1653Z" style="fill:#8cbd18;stroke:none" transform="scale(1,-1) translate(0,-256)" /></svg>