<?xml version="1.0" encoding="utf-8" ?>
<svg baseProfile="full" height="256" version="1.1" width="256" xmlns="http://www.w3.org/2000/svg" xmlns:ev="http://www.w3.org/2001/xml-events" xmlns:xlink="http://www.w3.org/1999/xlink"><defs /><path d="M839 1032Q829 1032 819.5 1031.5Q810 1031 800 1031H789Q782 1031 775.5 1031.5Q769 1032 763 1035Q762 1040 762 1050Q762 1092 763.5 1134.5Q765 1177 765 1219Q765 1236 763.5 1252.5Q762 1269 762 1286Q762 1301 777 1301Q826 1301 875.0 1299.0Q924 1297 973 1297H1073V1314Q1073 1364 1064 1414Q1103 1412 1142.0 1410.0Q1181 1408 1219 1403Q1227 1402 1234.5 1399.0Q1242 1396 1242 1386Q1242 1373 1235 1357Q1230 1342 1228.5 1327.5Q1227 1313 1227 1297H1324Q1372 1297 1420.5 1299.0Q1469 1301 1517 1301Q1534 1301 1534 1286Q1534 1259 1532.0 1232.0Q1530 1205 1530 1178Q1530 1146 1532.0 1114.0Q1534 1082 1534 1050Q1534 1032 1517 1032H1459V963Q1459 946 1441 946Q1385 946 1330.5 948.0Q1276 950 1220 950V872H1422Q1426 874 1428 874Q1437 874 1437 861V779Q1437 762 1422 762Q1384 762 1346.5 764.5Q1309 767 1271 767Q1258 767 1245.5 767.0Q1233 767 1220 766V688H1326Q1374 688 1422.5 690.0Q1471 692 1519 692Q1536 692 1536 677V590Q1536 573 1519 573Q1471 573 1422.5 575.0Q1374 577 1326 577H953Q904 577 855.5 575.0Q807 573 758 573Q742 573 742 590V677Q742 692 758 692Q807 692 855.5 690.0Q904 688 953 688H1079V766H1038Q997 766 956.5 764.0Q916 762 875 762Q859 762 859 779V861Q859 877 875 877Q915 877 955.0 874.0Q995 871 1035 871Q1046 871 1057.0 871.0Q1068 871 1079 872V950H1013Q974 950 935.5 948.0Q897 946 858 946Q839 946 839 963ZM1005 140Q1005 132 1006.0 123.5Q1007 115 1007 107Q1007 98 1004.5 85.0Q1002 72 990 72H869Q854 72 854 88Q854 136 856.0 182.0Q858 228 858 276V369Q858 399 856.0 429.0Q854 459 854 489Q854 506 869 506Q911 506 953.5 504.5Q996 503 1038 503H1272Q1314 503 1355.5 504.5Q1397 506 1439 506Q1454 506 1454 489Q1454 463 1452.5 437.5Q1451 412 1451 386V289Q1451 242 1452.5 196.0Q1454 150 1454 103Q1454 88 1439 88H1324Q1315 88 1312.5 96.0Q1310 104 1310 114Q1310 122 1310.5 129.0Q1311 136 1311 140ZM1662 254Q1697 249 1732.0 246.5Q1767 244 1802 244Q1836 244 1853.5 252.5Q1871 261 1871 300V1184Q1871 1236 1869.5 1288.0Q1868 1340 1859 1392Q1898 1390 1937.5 1387.5Q1977 1385 2016 1381Q2027 1380 2034.5 1378.0Q2042 1376 2042 1365Q2042 1358 2038.0 1349.5Q2034 1341 2032 1334Q2029 1323 2027.0 1308.5Q2025 1294 2024.5 1278.0Q2024 1262 2023.5 1247.0Q2023 1232 2023 1221V569Q2023 496 2025.0 424.0Q2027 352 2027 279Q2027 209 2006.5 171.0Q1986 133 1950.0 115.5Q1914 98 1865.0 95.0Q1816 92 1759 92Q1751 92 1737.5 93.0Q1724 94 1718 99Q1713 104 1710.0 118.0Q1707 132 1705 139Q1697 169 1687.5 198.0Q1678 227 1662 254ZM1597 1279H1620Q1629 1279 1653.0 1278.5Q1677 1278 1702.0 1276.0Q1727 1274 1746.5 1268.5Q1766 1263 1766 1254Q1766 1242 1759.0 1221.0Q1752 1200 1752 1172Q1752 1043 1752.5 916.0Q1753 789 1753 660Q1753 611 1755.0 563.0Q1757 515 1757 466Q1757 450 1739 450H1618Q1603 450 1603 466Q1603 515 1604.5 563.0Q1606 611 1606 660V1070Q1606 1123 1605.0 1175.0Q1604 1227 1597 1279ZM1394 1060V1175H904V1060Q931 1059 958.5 1058.5Q986 1058 1013 1058H1079Q1077 1080 1074.5 1101.5Q1072 1123 1069 1145Q1104 1143 1140.0 1140.0Q1176 1137 1211 1134Q1219 1133 1227.0 1130.5Q1235 1128 1235 1117Q1235 1102 1225 1089Q1223 1081 1222.0 1074.0Q1221 1067 1220 1059Q1221 1058 1228 1058H1283Q1311 1058 1338.5 1058.5Q1366 1059 1394 1060ZM1005 259H1311V384H1005Z" style="fill:#ffffff;stroke:none" transform="scale(1,-1) translate(0,-256)" /></svg>