<?xml version="1.0" encoding="utf-8" ?>
<svg baseProfile="full" height="256" version="1.1" width="256" xmlns="http://www.w3.org/2000/svg" xmlns:ev="http://www.w3.org/2001/xml-events" xmlns:xlink="http://www.w3.org/1999/xlink"><defs /><path d="M2412 719H2268L2122 579H1101V935H328L831 1438H903L1406 935H2197ZM1622 1438Q1622 1408 1610.5 1382.0Q1599 1356 1579.5 1336.5Q1560 1317 1534.0 1305.5Q1508 1294 1478 1294H1190V1581Q1190 1611 1201.5 1637.0Q1213 1663 1232.5 1682.5Q1252 1702 1278.0 1713.5Q1304 1725 1334 1725Q1364 1725 1390.0 1713.5Q1416 1702 1435.5 1682.5Q1455 1663 1466.5 1637.0Q1478 1611 1478 1581Q1508 1581 1534.0 1570.0Q1560 1559 1579.5 1539.5Q1599 1520 1610.5 1494.0Q1622 1468 1622 1438Z" style="fill:#e81224;stroke:none" transform="scale(1,-1) translate(0,-256)" /></svg>