<?xml version="1.0" encoding="utf-8" ?>
<svg baseProfile="full" height="256" version="1.1" width="256" xmlns="http://www.w3.org/2000/svg" xmlns:ev="http://www.w3.org/2001/xml-events" xmlns:xlink="http://www.w3.org/1999/xlink"><defs /><path d="M687 1869H1047V1797H1148Q1186 1831 1234.5 1850.0Q1283 1869 1334 1869Q1375 1869 1415.0 1857.0Q1455 1845 1489.5 1822.5Q1524 1800 1551.5 1769.0Q1579 1738 1596 1700Q1643 1679 1678.5 1643.0Q1714 1607 1737 1562Q1761 1571 1786.0 1576.0Q1811 1581 1837 1581Q1879 1581 1919.0 1569.0Q1959 1557 1993.5 1535.0Q2028 1513 2055.0 1482.0Q2082 1451 2099 1412Q2138 1395 2169.0 1368.0Q2200 1341 2222.0 1306.5Q2244 1272 2256.0 1232.0Q2268 1192 2268 1150Q2268 1111 2258 1077L2484 850V575H2412V-431H328V791H256V1066L615 1425V1797H687Z" style="fill:#000000;stroke:none" transform="scale(1,-1) translate(0,-256)" /></svg>