<?xml version="1.0" encoding="utf-8" ?>
<svg baseProfile="full" height="256" version="1.1" width="256" xmlns="http://www.w3.org/2000/svg" xmlns:ev="http://www.w3.org/2001/xml-events" xmlns:xlink="http://www.w3.org/1999/xlink"><defs /><path d="M1981 1294Q2011 1294 2037.0 1282.5Q2063 1271 2082.5 1251.5Q2102 1232 2113.5 1206.0Q2125 1180 2125 1150Q2125 1120 2113.5 1094.0Q2102 1068 2082.5 1048.5Q2063 1029 2037.0 1017.5Q2011 1006 1981 1006H1693V1294Q1693 1324 1704.5 1350.0Q1716 1376 1735.5 1395.5Q1755 1415 1781.0 1426.5Q1807 1438 1837 1438Q1867 1438 1893.0 1426.5Q1919 1415 1938.5 1395.5Q1958 1376 1969.5 1350.0Q1981 1324 1981 1294Z" style="fill:#e6808a;stroke:none" transform="scale(1,-1) translate(0,-256)" /></svg>