<?xml version="1.0" encoding="utf-8" ?>
<svg baseProfile="full" height="256" version="1.1" width="256" xmlns="http://www.w3.org/2000/svg" xmlns:ev="http://www.w3.org/2001/xml-events" xmlns:xlink="http://www.w3.org/1999/xlink"><defs /><path d="M1406 -431Q1241 -431 1087.0 -374.5Q933 -318 806 -212Q689 -201 588.5 -148.5Q488 -96 414.0 -14.0Q340 68 298.0 173.5Q256 279 256 396V1042Q256 1108 281.5 1167.0Q307 1226 350.5 1270.5Q394 1315 452.5 1340.5Q511 1366 578 1366Q638 1482 726.0 1575.0Q814 1668 921.5 1733.5Q1029 1799 1152.0 1834.0Q1275 1869 1406 1869Q1536 1869 1659.5 1834.0Q1783 1799 1890.5 1733.5Q1998 1668 2086.0 1575.0Q2174 1482 2234 1366Q2301 1366 2359.5 1340.5Q2418 1315 2461.5 1270.5Q2505 1226 2530.5 1167.0Q2556 1108 2556 1042V396Q2556 279 2514.0 173.5Q2472 68 2398.0 -14.0Q2324 -96 2223.5 -148.5Q2123 -201 2006 -212Q1879 -318 1725.0 -374.5Q1571 -431 1406 -431Z" style="fill:#000000;stroke:none" transform="scale(1,-1) translate(0,-256)" /></svg>