<?xml version="1.0" encoding="utf-8" ?>
<svg baseProfile="full" height="256" version="1.1" width="256" xmlns="http://www.w3.org/2000/svg" xmlns:ev="http://www.w3.org/2001/xml-events" xmlns:xlink="http://www.w3.org/1999/xlink"><defs /><path d="M1011 935Q1033 935 1052.5 926.5Q1072 918 1086.5 903.0Q1101 888 1109.5 868.5Q1118 849 1118 827V683Q1118 661 1109.5 641.5Q1101 622 1086.5 607.0Q1072 592 1052.5 583.5Q1033 575 1011 575Q989 575 969.5 583.5Q950 592 935.0 607.0Q920 622 911.5 641.5Q903 661 903 683V827Q903 849 911.5 868.5Q920 888 935.0 903.0Q950 918 969.5 926.5Q989 935 1011 935ZM1801 935Q1823 935 1842.5 926.5Q1862 918 1877.0 903.0Q1892 888 1900.5 868.5Q1909 849 1909 827V683Q1909 661 1900.5 641.5Q1892 622 1877.0 607.0Q1862 592 1842.5 583.5Q1823 575 1801 575Q1779 575 1759.5 583.5Q1740 592 1725.5 607.0Q1711 622 1702.5 641.5Q1694 661 1694 683V827Q1694 849 1702.5 868.5Q1711 888 1725.5 903.0Q1740 918 1759.5 926.5Q1779 935 1801 935Z" style="fill:#000000;stroke:none" transform="scale(1,-1) translate(0,-256)" /></svg>