<?xml version="1.0" encoding="utf-8" ?>
<svg baseProfile="full" height="256" version="1.1" width="256" xmlns="http://www.w3.org/2000/svg" xmlns:ev="http://www.w3.org/2001/xml-events" xmlns:xlink="http://www.w3.org/1999/xlink"><defs /><path d="M2412 1042V396Q2412 299 2375.5 214.0Q2339 129 2275.5 65.5Q2212 2 2127.0 -35.0Q2042 -72 1945 -72H867Q770 -72 685.0 -35.0Q600 2 536.5 65.5Q473 129 436.5 214.0Q400 299 400 396V1042Q400 1079 414.0 1112.0Q428 1145 452.5 1169.5Q477 1194 509.5 1208.0Q542 1222 579 1222H670Q714 1336 788.5 1429.0Q863 1522 960.0 1587.5Q1057 1653 1170.5 1689.0Q1284 1725 1406 1725Q1528 1725 1641.5 1689.0Q1755 1653 1852.0 1587.5Q1949 1522 2023.5 1429.0Q2098 1336 2142 1222H2233Q2270 1222 2302.5 1208.0Q2335 1194 2359.5 1169.5Q2384 1145 2398.0 1112.0Q2412 1079 2412 1042Z" style="fill:#f2f2f2;stroke:none" transform="scale(1,-1) translate(0,-256)" /></svg>