<?xml version="1.0" encoding="utf-8" ?>
<svg baseProfile="full" height="256" version="1.1" width="256" xmlns="http://www.w3.org/2000/svg" xmlns:ev="http://www.w3.org/2001/xml-events" xmlns:xlink="http://www.w3.org/1999/xlink"><defs /><path d="M1534 1447Q1572 1356 1632.5 1280.5Q1693 1205 1770.0 1148.5Q1847 1092 1937.0 1056.5Q2027 1021 2125 1011V175Q2077 70 2002.0 -15.5Q1927 -101 1833.5 -161.5Q1740 -222 1631.0 -254.5Q1522 -287 1406 -287Q1290 -287 1181.0 -254.5Q1072 -222 978.5 -161.5Q885 -101 810.0 -15.5Q735 70 687 175V1006H759Q897 1006 1024.5 1056.5Q1152 1107 1252 1203Z" style="fill:#ffc83d;stroke:none" transform="scale(1,-1) translate(0,-256)" /></svg>