<?xml version="1.0" encoding="utf-8" ?>
<svg baseProfile="full" height="256" version="1.1" width="256" xmlns="http://www.w3.org/2000/svg" xmlns:ev="http://www.w3.org/2001/xml-events" xmlns:xlink="http://www.w3.org/1999/xlink"><defs /><path d="M1904 1581Q2009 1581 2101.5 1541.0Q2194 1501 2263.0 1432.0Q2332 1363 2372.0 1270.5Q2412 1178 2412 1073Q2412 971 2373.5 878.5Q2335 786 2263 714L1406 -144L549 714Q477 786 438.5 878.5Q400 971 400 1073Q400 1178 440.0 1270.5Q480 1363 549.0 1432.0Q618 1501 710.5 1541.0Q803 1581 908 1581Q1027 1581 1121.5 1533.5Q1216 1486 1298 1402L1118 1222L1406 935L1190 719L1076 689L1145 539Q1183 522 1223.5 507.5Q1264 493 1297 468Q1328 445 1353.0 415.5Q1378 386 1406 360L1334 647L1622 935L1334 1222Q1387 1275 1439.0 1328.0Q1491 1381 1545 1433Q1620 1505 1709.5 1543.0Q1799 1581 1904 1581Z" style="fill:#e81224;stroke:none" transform="scale(1,-1) translate(0,-256)" /></svg>