<?xml version="1.0" encoding="utf-8" ?>
<svg baseProfile="full" height="256" version="1.1" width="256" xmlns="http://www.w3.org/2000/svg" xmlns:ev="http://www.w3.org/2001/xml-events" xmlns:xlink="http://www.w3.org/1999/xlink"><defs /><path d="M1837 1150Q1862 1150 1881.5 1135.0Q1901 1120 1907 1096L2033 593Q2035 583 2035 576Q2035 546 2014.0 524.5Q1993 503 1963 503Q1938 503 1918.5 518.5Q1899 534 1893 558L1837 782V0Q1837 -29 1815.5 -50.5Q1794 -72 1765 -72Q1736 -72 1714.5 -50.5Q1693 -29 1693 0V467Q1693 482 1682.5 492.5Q1672 503 1657 503Q1643 503 1632.5 492.0Q1622 481 1622 467V0Q1622 -29 1600.5 -50.5Q1579 -72 1550 -72Q1521 -72 1499.5 -50.5Q1478 -29 1478 0V905L1385 812Q1364 791 1334 791H1047Q1017 791 996.0 812.0Q975 833 975 863Q975 893 996.0 914.0Q1017 935 1047 935H1304L1499 1129Q1520 1150 1550 1150ZM1190 0V575H1262V-72H759V575H831V0ZM1658 1222Q1628 1222 1601.5 1233.0Q1575 1244 1555.5 1263.5Q1536 1283 1525.0 1309.5Q1514 1336 1514 1366Q1514 1396 1525.5 1422.0Q1537 1448 1556.5 1467.5Q1576 1487 1602.0 1498.5Q1628 1510 1658 1510Q1688 1510 1714.0 1498.5Q1740 1487 1759.5 1467.5Q1779 1448 1790.0 1422.0Q1801 1396 1801 1366Q1801 1336 1790.0 1310.0Q1779 1284 1759.5 1264.5Q1740 1245 1714.0 1233.5Q1688 1222 1658 1222ZM939 647Q924 647 913.5 657.5Q903 668 903 683Q903 698 913.5 708.5Q924 719 939 719Q954 719 964.5 708.5Q975 698 975 683Q975 668 964.5 657.5Q954 647 939 647ZM1118 539Q1118 525 1107.5 514.0Q1097 503 1083 503Q1068 503 1057.5 513.5Q1047 524 1047 539Q1047 554 1057.5 564.5Q1068 575 1083 575Q1097 575 1107.5 564.0Q1118 553 1118 539ZM1011 360Q996 360 985.5 370.5Q975 381 975 396Q975 410 986.0 420.5Q997 431 1011 431Q1025 431 1036.0 420.5Q1047 410 1047 396Q1047 382 1036.0 371.0Q1025 360 1011 360Z" style="fill:#ffffff;stroke:none" transform="scale(1,-1) translate(0,-256)" /></svg>