<?xml version="1.0" encoding="utf-8" ?>
<svg baseProfile="full" height="256" version="1.1" width="256" xmlns="http://www.w3.org/2000/svg" xmlns:ev="http://www.w3.org/2001/xml-events" xmlns:xlink="http://www.w3.org/1999/xlink"><defs /><path d="M975 791Q1120 646 1263.5 504.0Q1407 362 1550 216Q1576 190 1601.0 162.5Q1626 135 1652 109Q1706 56 1769.0 13.5Q1832 -29 1901.0 -60.5Q1970 -92 2044.0 -112.0Q2118 -132 2193 -139L2197 -215Q2102 -215 2009.0 -193.5Q1916 -172 1830.0 -132.5Q1744 -93 1666.5 -36.5Q1589 20 1525 90Q1513 104 1501.5 117.5Q1490 131 1478 144Q1338 293 1192.5 434.0Q1047 575 903 719Z" style="fill:#f2f2f2;stroke:none" transform="scale(1,-1) translate(0,-256)" /></svg>