<?xml version="1.0" encoding="utf-8" ?>
<svg baseProfile="full" height="256" version="1.1" width="256" xmlns="http://www.w3.org/2000/svg" xmlns:ev="http://www.w3.org/2001/xml-events" xmlns:xlink="http://www.w3.org/1999/xlink"><defs /><path d="M1190 1150Q1353 987 1512.5 825.0Q1672 663 1837 503Q1867 474 1897.5 446.5Q1928 419 1957 388Q2057 279 2118.5 144.0Q2180 9 2193 -139L2154 -186Q2068 -183 1983.5 -156.5Q1899 -130 1820.5 -87.0Q1742 -44 1671.5 12.0Q1601 68 1544 129Q1520 155 1496.5 181.0Q1473 207 1450 234Q1440 245 1431.5 256.5Q1423 268 1412 279L972 699L975 791L1047 863L975 935ZM867 1294Q882 1294 892.5 1283.5Q903 1273 903 1258Q903 1243 892.5 1232.5Q882 1222 867 1222Q852 1222 841.5 1232.5Q831 1243 831 1258Q831 1273 841.5 1283.5Q852 1294 867 1294ZM651 1510Q665 1510 676.0 1499.0Q687 1488 687 1474Q687 1459 676.5 1448.5Q666 1438 651 1438Q636 1438 625.5 1448.5Q615 1459 615 1474Q615 1488 626.0 1499.0Q637 1510 651 1510Z" style="fill:#cccccc;stroke:none" transform="scale(1,-1) translate(0,-256)" /></svg>