<?xml version="1.0" encoding="utf-8" ?>
<svg baseProfile="full" height="256" version="1.1" width="256" xmlns="http://www.w3.org/2000/svg" xmlns:ev="http://www.w3.org/2001/xml-events" xmlns:xlink="http://www.w3.org/1999/xlink"><defs /><path d="M2137 1579Q2195 1579 2245.0 1558.0Q2295 1537 2332.0 1500.5Q2369 1464 2390.5 1414.0Q2412 1364 2412 1306V-144H2268V1306Q2268 1334 2258.0 1357.5Q2248 1381 2230.0 1398.5Q2212 1416 2188.0 1426.0Q2164 1436 2137 1436Q2114 1436 2094.0 1428.0Q2074 1420 2056.5 1407.5Q2039 1395 2023.5 1379.5Q2008 1364 1993 1348L1981 1336V554L1927 557L1100 1384L1097 1438H1879L1889 1448Q1917 1477 1943.0 1501.0Q1969 1525 1997.0 1542.5Q2025 1560 2058.5 1569.5Q2092 1579 2137 1579Z" style="fill:#e5e5e5;stroke:none" transform="scale(1,-1) translate(0,-256)" /></svg>