<?xml version="1.0" encoding="utf-8" ?>
<svg baseProfile="full" height="256" version="1.1" width="256" xmlns="http://www.w3.org/2000/svg" xmlns:ev="http://www.w3.org/2001/xml-events" xmlns:xlink="http://www.w3.org/1999/xlink"><defs /><path d="M2137 1723Q2224 1723 2300.5 1690.5Q2377 1658 2434.0 1602.0Q2491 1546 2523.5 1469.5Q2556 1393 2556 1306V-287H2125V495Q2077 445 2028.0 397.0Q1979 349 1930 300Q1897 332 1864.5 365.0Q1832 398 1800 431Q1797 426 1793.5 422.0Q1790 418 1785 413L1138 -234Q1112 -260 1079.0 -273.5Q1046 -287 1010 -287H436Q398 -287 365.5 -273.0Q333 -259 308.5 -235.0Q284 -211 270.0 -178.5Q256 -146 256 -108V467Q256 504 270.0 536.0Q284 568 309 594Q335 622 362.5 649.0Q390 676 417 703Q543 832 670 959Q680 969 704.0 993.5Q728 1018 759.0 1049.5Q790 1081 824.0 1115.0Q858 1149 888.5 1179.0Q919 1209 942.0 1230.0Q965 1251 974 1256L843 1387Q892 1436 941.0 1484.0Q990 1532 1038 1581H1820Q1886 1650 1963.0 1686.5Q2040 1723 2137 1723Z" style="fill:#000000;stroke:none" transform="scale(1,-1) translate(0,-256)" /></svg>