<?xml version="1.0" encoding="utf-8" ?>
<svg baseProfile="full" height="256" version="1.1" width="256" xmlns="http://www.w3.org/2000/svg" xmlns:ev="http://www.w3.org/2001/xml-events" xmlns:xlink="http://www.w3.org/1999/xlink"><defs /><path d="M1370 862Q1385 862 1395.0 851.5Q1405 841 1405 826Q1405 811 1395 801L461 -133Q450 -144 436 -144Q422 -144 410.5 -133.5Q399 -123 399 -108Q399 -93 410 -82L1345 852Q1355 862 1370 862ZM436 144Q420 144 409.5 154.0Q399 164 399 180Q399 194 410 205L1201 996Q1211 1006 1226 1006Q1241 1006 1251.5 995.5Q1262 985 1262 970Q1262 955 1252 945L461 154Q451 144 436 144ZM436 431Q422 431 410.5 441.5Q399 452 399 467Q399 482 410 493L1057 1140Q1067 1150 1082 1150Q1097 1150 1107.5 1139.5Q1118 1129 1118 1114Q1118 1099 1108 1089L461 442Q450 431 436 431ZM1513 719Q1528 719 1538.5 708.5Q1549 698 1549 683Q1549 668 1539 658L748 -133Q737 -144 723 -144Q709 -144 698.0 -133.0Q687 -122 687 -108Q687 -93 698 -82L1488 709Q1498 719 1513 719ZM1657 575Q1672 575 1682.5 564.5Q1693 554 1693 539Q1693 524 1683 514L1036 -133Q1026 -143 1010 -143Q996 -143 985.0 -132.5Q974 -122 974 -108Q974 -93 985 -82L1632 565Q1642 575 1657 575Z" style="fill:#00bcf2;stroke:none" transform="scale(1,-1) translate(0,-256)" /></svg>