<?xml version="1.0" encoding="utf-8" ?>
<svg baseProfile="full" height="256" version="1.1" width="256" xmlns="http://www.w3.org/2000/svg" xmlns:ev="http://www.w3.org/2001/xml-events" xmlns:xlink="http://www.w3.org/1999/xlink"><defs /><path d="M1276 979Q1247 1000 1225 1034Q1310 1078 1406 1078Q1502 1078 1587 1034Q1565 1000 1536 979Q1505 992 1472.5 999.0Q1440 1006 1406 1006Q1372 1006 1339.5 999.0Q1307 992 1276 979ZM1603 428Q1651 465 1681.5 514.5Q1712 564 1723 624Q1759 640 1799 645Q1790 554 1742.0 477.5Q1694 401 1619 350Q1603 390 1603 428ZM1209 428Q1209 390 1193 350Q1116 399 1068.5 476.5Q1021 554 1013 645Q1053 640 1089 624Q1100 565 1130.5 514.5Q1161 464 1209 428ZM1531 432Q1531 373 1553.5 321.0Q1576 269 1615.0 230.0Q1654 191 1706.0 168.0Q1758 145 1817 145Q1869 145 1918.5 163.0Q1968 181 2006 216H2013Q1950 147 1868.5 109.5Q1787 72 1693 72Q1612 72 1539.0 100.5Q1466 129 1406 183Q1346 129 1272.5 100.5Q1199 72 1118 72Q1024 72 942.5 109.5Q861 147 799 216H806Q844 181 893.5 163.0Q943 145 995 145Q1054 145 1106.0 168.0Q1158 191 1197.0 230.0Q1236 269 1258.5 321.0Q1281 373 1281 432Q1281 491 1258.0 543.0Q1235 595 1196.0 634.0Q1157 673 1104.5 696.0Q1052 719 993 719Q934 719 882.0 696.5Q830 674 791.5 635.0Q753 596 730.5 544.0Q708 492 708 433Q708 396 717 360H713Q701 395 694.0 430.5Q687 466 687 503Q687 573 708.5 638.0Q730 703 769.0 756.5Q808 810 863.0 850.5Q918 891 985 913Q980 936 977.5 959.5Q975 983 975 1006Q975 1084 1002.0 1155.5Q1029 1227 1077.0 1284.0Q1125 1341 1190.5 1379.5Q1256 1418 1334 1431Q1287 1417 1247.0 1389.5Q1207 1362 1178.5 1325.5Q1150 1289 1134.0 1244.0Q1118 1199 1118 1150Q1118 1090 1140.5 1038.0Q1163 986 1202.0 947.0Q1241 908 1293.5 885.5Q1346 863 1406 863Q1466 863 1518.0 885.5Q1570 908 1609.0 947.0Q1648 986 1670.5 1038.0Q1693 1090 1693 1150Q1693 1199 1677.0 1243.5Q1661 1288 1632.5 1325.0Q1604 1362 1564.5 1388.5Q1525 1415 1478 1428Q1556 1416 1621.5 1378.0Q1687 1340 1735.0 1283.5Q1783 1227 1810.0 1155.5Q1837 1084 1837 1006Q1837 983 1834.5 959.5Q1832 936 1827 913Q1894 891 1949.0 850.5Q2004 810 2043.0 756.5Q2082 703 2103.5 638.0Q2125 573 2125 503Q2125 466 2118.0 430.5Q2111 395 2099 360H2095Q2104 396 2104 433Q2104 492 2081.5 544.0Q2059 596 2020.0 635.0Q1981 674 1929.0 696.5Q1877 719 1818 719Q1759 719 1706.5 696.5Q1654 674 1615.0 635.0Q1576 596 1553.5 543.5Q1531 491 1531 432ZM1406 575Q1428 575 1448.0 583.5Q1468 592 1482.5 606.5Q1497 621 1505.5 640.5Q1514 660 1514 683Q1514 705 1505.5 725.0Q1497 745 1482.5 759.5Q1468 774 1448.0 782.5Q1428 791 1406 791Q1383 791 1363.5 782.5Q1344 774 1329.5 759.5Q1315 745 1306.5 725.0Q1298 705 1298 683Q1298 660 1306.5 640.5Q1315 621 1329.5 606.5Q1344 592 1363.5 583.5Q1383 575 1406 575Z" style="fill:#000000;stroke:none" transform="scale(1,-1) translate(0,-256)" /></svg>