<?xml version="1.0" encoding="utf-8" ?>
<svg baseProfile="full" height="256" version="1.1" width="256" xmlns="http://www.w3.org/2000/svg" xmlns:ev="http://www.w3.org/2001/xml-events" xmlns:xlink="http://www.w3.org/1999/xlink"><defs /><path d="M2053 1725Q2127 1725 2192.5 1696.5Q2258 1668 2306.5 1619.5Q2355 1571 2383.5 1505.5Q2412 1440 2412 1366V360Q2412 286 2383.5 220.5Q2355 155 2306.5 106.0Q2258 57 2192.5 28.5Q2127 0 2053 0Q2024 16 2003.0 45.0Q1982 74 1982 109Q1982 143 2003.0 172.0Q2024 201 2053 216Q2084 216 2110.5 226.5Q2137 237 2156.5 256.5Q2176 276 2186.5 302.0Q2197 328 2197 360V1366Q2197 1397 2186.5 1423.5Q2176 1450 2156.5 1469.5Q2137 1489 2110.5 1499.5Q2084 1510 2053 1510Q2021 1510 1995.0 1499.5Q1969 1489 1949.5 1469.5Q1930 1450 1919.5 1423.5Q1909 1397 1909 1366H1693Q1693 1440 1721.5 1505.5Q1750 1571 1799.0 1619.5Q1848 1668 1913.5 1696.5Q1979 1725 2053 1725ZM759 1725Q833 1725 898.5 1696.5Q964 1668 1012.5 1619.5Q1061 1571 1089.5 1505.5Q1118 1440 1118 1366H903Q903 1397 892.5 1423.5Q882 1450 862.5 1469.5Q843 1489 816.5 1499.5Q790 1510 759 1510Q727 1510 701.0 1499.5Q675 1489 655.5 1469.5Q636 1450 625.5 1423.5Q615 1397 615 1366V360Q615 320 636.0 283.0Q657 246 694 229Q704 224 712.0 222.0Q720 220 726.5 219.0Q733 218 740.5 217.5Q748 217 759 216Q764 215 767.5 212.5Q771 210 775 207Q800 185 811.0 166.0Q822 147 822 113Q822 80 805.5 48.0Q789 16 759 0Q685 0 619.5 28.5Q554 57 505.5 106.0Q457 155 428.5 220.5Q400 286 400 360V1366Q400 1440 428.5 1505.5Q457 1571 505.5 1619.5Q554 1668 619.5 1696.5Q685 1725 759 1725Z" style="fill:#bb9167;stroke:none" transform="scale(1,-1) translate(0,-256)" /></svg>