<?xml version="1.0" encoding="utf-8" ?>
<svg baseProfile="full" height="256" version="1.1" width="256" xmlns="http://www.w3.org/2000/svg" xmlns:ev="http://www.w3.org/2001/xml-events" xmlns:xlink="http://www.w3.org/1999/xlink"><defs /><path d="M975 180V431H1190V180Q1190 158 1181.5 138.5Q1173 119 1159.0 104.0Q1145 89 1125.0 80.5Q1105 72 1083 72Q1060 72 1040.5 80.5Q1021 89 1006.5 103.5Q992 118 983.5 137.5Q975 157 975 180ZM1622 431H1837V180Q1837 157 1828.5 137.5Q1820 118 1805.5 103.5Q1791 89 1771.0 80.5Q1751 72 1729 72Q1706 72 1686.5 80.5Q1667 89 1653.0 104.0Q1639 119 1630.5 138.5Q1622 158 1622 180Z" style="fill:#ffb900;stroke:none" transform="scale(1,-1) translate(0,-256)" /></svg>