<?xml version="1.0" encoding="utf-8" ?>
<svg baseProfile="full" height="256" version="1.1" width="256" xmlns="http://www.w3.org/2000/svg" xmlns:ev="http://www.w3.org/2001/xml-events" xmlns:xlink="http://www.w3.org/1999/xlink"><defs /><path d="M2053 1869Q2157 1869 2248.5 1829.5Q2340 1790 2408.5 1721.5Q2477 1653 2516.5 1561.5Q2556 1470 2556 1366V360Q2556 276 2529.5 199.0Q2503 122 2455.0 58.0Q2407 -6 2340.0 -53.0Q2273 -100 2193 -124Q2183 -190 2151.0 -246.0Q2119 -302 2071.5 -343.5Q2024 -385 1964.0 -408.0Q1904 -431 1837 -431H975Q908 -431 848.0 -408.0Q788 -385 740.5 -343.5Q693 -302 661.0 -246.0Q629 -190 619 -124Q539 -100 472.0 -53.0Q405 -6 357.0 58.0Q309 122 282.5 199.0Q256 276 256 360V1366Q256 1470 295.5 1561.5Q335 1653 403.5 1721.5Q472 1790 563.5 1829.5Q655 1869 759 1869Q831 1869 900.0 1848.5Q969 1828 1028.5 1790.5Q1088 1753 1135.5 1700.0Q1183 1647 1214 1581H1598Q1629 1647 1676.5 1700.0Q1724 1753 1783.5 1790.5Q1843 1828 1912.0 1848.5Q1981 1869 2053 1869Z" style="fill:#000000;stroke:none" transform="scale(1,-1) translate(0,-256)" /></svg>