<?xml version="1.0" encoding="utf-8" ?>
<svg baseProfile="full" height="256" version="1.1" width="256" xmlns="http://www.w3.org/2000/svg" xmlns:ev="http://www.w3.org/2001/xml-events" xmlns:xlink="http://www.w3.org/1999/xlink"><defs /><path d="M2053 1222V503Q2053 458 2036.0 419.0Q2019 380 1989.5 351.0Q1960 322 1921.0 305.0Q1882 288 1837 288H975Q930 288 891.0 305.0Q852 322 822.5 351.0Q793 380 776.0 419.0Q759 458 759 503V1222Q759 1267 776.0 1306.0Q793 1345 822.5 1374.5Q852 1404 891.0 1421.0Q930 1438 975 1438H1837Q1882 1438 1921.0 1421.0Q1960 1404 1989.5 1374.5Q2019 1345 2036.0 1306.0Q2053 1267 2053 1222Z" style="fill:#f03a17;stroke:none" transform="scale(1,-1) translate(0,-256)" /></svg>