<?xml version="1.0" encoding="utf-8" ?>
<svg baseProfile="full" height="256" version="1.1" width="256" xmlns="http://www.w3.org/2000/svg" xmlns:ev="http://www.w3.org/2001/xml-events" xmlns:xlink="http://www.w3.org/1999/xlink"><defs /><path d="M1874 880Q1841 880 1813.5 896.0Q1786 912 1765 936Q1727 908 1688.0 894.0Q1649 880 1601 880Q1568 880 1537.0 887.5Q1506 895 1482.5 911.5Q1459 928 1444.5 954.0Q1430 980 1430 1018Q1430 1043 1439.0 1063.5Q1448 1084 1463.0 1100.5Q1478 1117 1498.0 1129.0Q1518 1141 1540 1149Q1517 1165 1500.5 1190.0Q1484 1215 1484 1244Q1484 1272 1496.5 1292.0Q1509 1312 1528.5 1324.5Q1548 1337 1573.0 1342.5Q1598 1348 1622 1348Q1644 1348 1667.5 1342.0Q1691 1336 1710.0 1324.0Q1729 1312 1741.0 1293.0Q1753 1274 1753 1249Q1753 1210 1729.5 1185.5Q1706 1161 1673 1146Q1706 1132 1733.0 1106.5Q1760 1081 1780 1052Q1806 1084 1817.0 1121.0Q1828 1158 1828 1198Q1828 1209 1827.0 1219.5Q1826 1230 1822 1241H1907Q1910 1230 1912.0 1220.0Q1914 1210 1914 1199Q1914 1136 1890.0 1085.0Q1866 1034 1824 989Q1837 977 1852.5 966.5Q1868 956 1887 956Q1902 956 1917.0 958.5Q1932 961 1946 968V893Q1909 880 1874 880ZM1082 228Q1069 201 1049.5 184.5Q1030 168 1000 168Q974 168 955.5 178.0Q937 188 925.5 204.5Q914 221 908.5 242.5Q903 264 903 287Q903 315 910.5 344.0Q918 373 934.0 396.5Q950 420 973.5 435.0Q997 450 1029 450Q1049 450 1065.0 441.5Q1081 433 1088 413L1092 444H1164L1162 427Q1157 388 1153.0 348.0Q1149 308 1149 268Q1149 262 1149.5 254.5Q1150 247 1152.5 240.0Q1155 233 1160.0 228.5Q1165 224 1173 224Q1192 224 1203.5 237.5Q1215 251 1221.0 270.5Q1227 290 1229.0 310.5Q1231 331 1231 345Q1231 385 1218.0 416.5Q1205 448 1181.0 469.5Q1157 491 1124.5 502.0Q1092 513 1053 513Q1007 513 968.5 496.0Q930 479 902.0 449.5Q874 420 858.5 380.5Q843 341 843 296Q843 250 857.5 215.0Q872 180 898.0 156.0Q924 132 960.5 120.0Q997 108 1042 108Q1076 108 1108.5 114.5Q1141 121 1172 135V74Q1139 60 1103.5 55.5Q1068 51 1033 51Q977 51 928.5 67.5Q880 84 845.0 116.0Q810 148 790.0 193.5Q770 239 770 298Q770 358 791.5 408.0Q813 458 850.5 493.5Q888 529 939.0 549.0Q990 569 1049 569Q1100 569 1146.5 555.5Q1193 542 1227.5 514.0Q1262 486 1282.5 444.5Q1303 403 1303 348Q1303 314 1294.0 281.5Q1285 249 1266.5 224.0Q1248 199 1220.0 183.5Q1192 168 1154 168Q1125 168 1104.5 182.5Q1084 197 1082 228ZM1197 1148H1093V887H990V1148H887V1231H1197ZM1659 334Q1608 334 1580.0 365.5Q1552 397 1552 447Q1552 501 1581.0 535.5Q1610 570 1667 570Q1721 570 1747.5 539.0Q1774 508 1774 456Q1774 401 1745.0 367.5Q1716 334 1659 334ZM1941 104Q1889 104 1861.5 135.5Q1834 167 1834 218Q1834 273 1863.0 306.5Q1892 340 1949 340Q2003 340 2029.5 309.5Q2056 279 2056 227Q2056 174 2026.0 139.0Q1996 104 1941 104ZM1990 564 1695 111H1618L1912 564ZM1606 955Q1638 955 1668.0 966.5Q1698 978 1722 999Q1697 1039 1668.0 1063.0Q1639 1087 1597 1108Q1570 1094 1550.5 1074.5Q1531 1055 1531 1022Q1531 990 1553.5 972.5Q1576 955 1606 955ZM887 1281V1340H1196V1281ZM1040 395Q1022 395 1009.5 383.5Q997 372 989.5 355.5Q982 339 979.0 320.0Q976 301 976 287Q976 277 978.0 265.5Q980 254 985.0 244.5Q990 235 998.5 229.0Q1007 223 1019 223Q1039 223 1051.5 235.5Q1064 248 1071.0 266.5Q1078 285 1080.5 305.0Q1083 325 1083 340Q1083 360 1073.0 377.5Q1063 395 1040 395ZM1946 285Q1918 285 1909.0 264.5Q1900 244 1900 221Q1900 198 1909.0 179.0Q1918 160 1945 160Q1973 160 1981.5 180.0Q1990 200 1990 223Q1990 233 1988.0 244.0Q1986 255 1980.5 264.0Q1975 273 1966.5 279.0Q1958 285 1946 285ZM1665 514Q1637 514 1628.0 493.5Q1619 473 1619 450Q1619 427 1628.0 408.5Q1637 390 1663 390Q1691 390 1699.5 410.0Q1708 430 1708 453Q1708 476 1700.0 495.0Q1692 514 1665 514ZM1664 1242Q1664 1260 1651.5 1270.5Q1639 1281 1622 1281Q1604 1281 1589.0 1270.5Q1574 1260 1574 1240Q1574 1222 1586.0 1207.0Q1598 1192 1613 1184Q1633 1190 1648.5 1204.5Q1664 1219 1664 1242Z" style="fill:#ffffff;stroke:none" transform="scale(1,-1) translate(0,-256)" /></svg>