<?xml version="1.0" encoding="utf-8" ?>
<svg baseProfile="full" height="256" version="1.1" width="256" xmlns="http://www.w3.org/2000/svg" xmlns:ev="http://www.w3.org/2001/xml-events" xmlns:xlink="http://www.w3.org/1999/xlink"><defs /><path d="M1044 1486Q1029 1472 1016.5 1455.0Q1004 1438 990 1424Q975 1409 957.5 1397.0Q940 1385 926 1368Q920 1367 914.5 1366.5Q909 1366 903 1366Q876 1366 851.5 1375.5Q827 1385 808.0 1401.5Q789 1418 776.5 1441.0Q764 1464 761 1491Q863 1575 981 1630Q1010 1610 1028.5 1578.0Q1047 1546 1047 1510Q1047 1504 1046.0 1498.0Q1045 1492 1044 1486ZM926 70Q939 56 955.5 47.0Q972 38 986 24Q1003 7 1014.5 -13.0Q1026 -33 1044 -48Q1045 -54 1046.0 -60.0Q1047 -66 1047 -72Q1047 -108 1028.5 -140.0Q1010 -172 981 -192Q863 -137 761 -53Q764 -26 776.5 -3.5Q789 19 808.5 36.0Q828 53 852.0 62.5Q876 72 903 72Q909 72 914.5 71.5Q920 71 926 70ZM472 935Q517 935 556.0 918.0Q595 901 624.0 871.5Q653 842 670.0 803.0Q687 764 687 719Q687 674 670.0 635.0Q653 596 624.0 566.5Q595 537 556.0 520.0Q517 503 472 503Q459 503 446.5 505.0Q434 507 422 510Q411 562 405.5 614.0Q400 666 400 719Q400 772 405.5 824.0Q411 876 422 928Q434 931 446.5 933.0Q459 935 472 935Z" style="fill:#eba300;stroke:none" transform="scale(1,-1) translate(0,-256)" /></svg>