<?xml version="1.0" encoding="utf-8" ?>
<svg baseProfile="full" height="256" version="1.1" width="256" xmlns="http://www.w3.org/2000/svg" xmlns:ev="http://www.w3.org/2001/xml-events" xmlns:xlink="http://www.w3.org/1999/xlink"><defs /><path d="M1550 1714Q1559 1714 1567.5 1712.0Q1576 1710 1585 1708Q1659 1692 1727.0 1670.5Q1795 1649 1863 1615Q1898 1573 1942.5 1541.0Q1987 1509 2041 1498Q2116 1437 2177.5 1364.0Q2239 1291 2285.5 1208.0Q2332 1125 2362.0 1034.5Q2392 944 2404 848Q2393 810 2391.0 772.0Q2389 734 2389 695V679Q2389 655 2391.5 634.0Q2394 613 2404 590Q2392 496 2362.5 406.5Q2333 317 2288.0 235.0Q2243 153 2183.0 80.0Q2123 7 2051 -53Q2039 -53 2027.0 -52.0Q2015 -51 2003 -51Q1990 -51 1978.0 -61.5Q1966 -72 1956.0 -86.5Q1946 -101 1938.0 -116.5Q1930 -132 1926 -142Q1850 -187 1770.0 -217.0Q1690 -247 1603 -267Q1589 -270 1576.5 -273.0Q1564 -276 1550 -276Q1531 -276 1513.0 -272.0Q1495 -268 1477 -263Q1233 -207 1044 -48Q1039 -32 1026.0 -13.5Q1013 5 996.0 22.0Q979 39 960.5 52.0Q942 65 926 70Q808 208 747.5 373.0Q687 538 687 719Q687 900 747.5 1065.0Q808 1230 926 1368Q944 1371 963.5 1383.0Q983 1395 1000.0 1412.0Q1017 1429 1029.0 1448.5Q1041 1468 1044 1486Q1233 1645 1477 1701Q1495 1706 1513.0 1710.0Q1531 1714 1550 1714Z" style="fill:#757575;stroke:none" transform="scale(1,-1) translate(0,-256)" /></svg>