<?xml version="1.0" encoding="utf-8" ?>
<svg baseProfile="full" height="256" version="1.1" width="256" xmlns="http://www.w3.org/2000/svg" xmlns:ev="http://www.w3.org/2001/xml-events" xmlns:xlink="http://www.w3.org/1999/xlink"><defs /><path d="M1406 1725Q1442 1725 1478.0 1722.0Q1514 1719 1550 1714Q1493 1706 1447.0 1669.0Q1401 1632 1365.5 1578.0Q1330 1524 1303.0 1457.0Q1276 1390 1257.0 1323.0Q1238 1256 1226.0 1193.0Q1214 1130 1208 1083Q1184 901 1184 719Q1184 536 1208 355Q1214 308 1226.0 245.0Q1238 182 1257.0 115.0Q1276 48 1303.0 -19.0Q1330 -86 1365.5 -140.0Q1401 -194 1447.0 -231.0Q1493 -268 1550 -276Q1514 -281 1478.0 -284.0Q1442 -287 1406 -287Q1295 -287 1187.5 -264.0Q1080 -241 980 -193Q960 -160 927.5 -139.0Q895 -118 862 -101Q837 -88 810.5 -77.5Q784 -67 761 -53Q744 -44 728.5 -28.5Q713 -13 700 1L698 4L686 16Q586 123 518.5 244.0Q451 365 422 510Q439 561 444.0 613.5Q449 666 449 719Q449 773 440.0 824.5Q431 876 422 928Q457 1096 543.0 1239.0Q629 1382 761 1491Q776 1493 795.5 1498.0Q815 1503 835.5 1510.0Q856 1517 874.0 1525.5Q892 1534 904 1543Q916 1552 924.5 1563.5Q933 1575 941.5 1586.5Q950 1598 958.5 1609.5Q967 1621 978 1630Q987 1637 1000.0 1641.0Q1013 1645 1024 1650Q1118 1687 1212.0 1706.0Q1306 1725 1406 1725Z" style="fill:#ffc83d;stroke:none" transform="scale(1,-1) translate(0,-256)" /></svg>