<?xml version="1.0" encoding="utf-8" ?>
<svg baseProfile="full" height="256" version="1.1" width="256" xmlns="http://www.w3.org/2000/svg" xmlns:ev="http://www.w3.org/2001/xml-events" xmlns:xlink="http://www.w3.org/1999/xlink"><defs /><path d="M1729 647Q1796 647 1855.0 621.5Q1914 596 1958.0 552.0Q2002 508 2027.5 449.5Q2053 391 2053 324Q2053 257 2027.5 198.0Q2002 139 1958.0 95.0Q1914 51 1855.0 25.5Q1796 0 1729 0Q1656 0 1589.5 32.0Q1523 64 1478 121Q1449 86 1417.0 62.5Q1385 39 1349.5 25.0Q1314 11 1274.5 5.5Q1235 0 1190 0V144H1226Q1263 144 1296.0 158.0Q1329 172 1353.5 196.5Q1378 221 1392.0 253.5Q1406 286 1406 324V1114Q1406 1151 1392.0 1184.0Q1378 1217 1353.5 1241.5Q1329 1266 1296.0 1280.0Q1263 1294 1226 1294Q1189 1294 1156.5 1280.0Q1124 1266 1099.5 1241.5Q1075 1217 1061.0 1184.0Q1047 1151 1047 1114V288H903V1114Q903 1151 889.0 1184.0Q875 1217 850.5 1241.5Q826 1266 793.0 1280.0Q760 1294 723 1294H687V1438Q775 1438 846.5 1412.5Q918 1387 975 1317Q1020 1374 1086.5 1406.0Q1153 1438 1226 1438Q1293 1438 1352.0 1412.5Q1411 1387 1455.0 1343.0Q1499 1299 1524.5 1240.0Q1550 1181 1550 1114V592Q1589 619 1635.0 633.0Q1681 647 1729 647ZM1729 144Q1766 144 1799.0 158.0Q1832 172 1856.5 196.5Q1881 221 1895.0 253.5Q1909 286 1909 324Q1909 361 1895.0 393.5Q1881 426 1856.5 450.5Q1832 475 1799.0 489.0Q1766 503 1729 503Q1692 503 1659.5 489.0Q1627 475 1602.5 450.5Q1578 426 1564.0 393.5Q1550 361 1550 324Q1550 287 1564.0 254.0Q1578 221 1602.5 196.5Q1627 172 1659.5 158.0Q1692 144 1729 144Z" style="fill:#ffffff;stroke:none" transform="scale(1,-1) translate(0,-256)" /></svg>