<?xml version="1.0" encoding="utf-8" ?>
<svg baseProfile="full" height="256" version="1.1" width="256" xmlns="http://www.w3.org/2000/svg" xmlns:ev="http://www.w3.org/2001/xml-events" xmlns:xlink="http://www.w3.org/1999/xlink"><defs /><path d="M2268 719H2289Q2308 719 2324.0 713.5Q2340 708 2340 683Q2340 659 2325.0 653.0Q2310 647 2291 647H2268L1998 106L2114 -10Q2124 -20 2124 -36Q2124 -50 2113.0 -61.0Q2102 -72 2088 -72Q2074 -72 2063 -61L1947 55L1406 -215V-236Q1406 -255 1400.5 -271.0Q1395 -287 1370 -287Q1346 -287 1340.0 -272.0Q1334 -257 1334 -238V-215L793 55L677 -61Q666 -72 651 -72Q637 -72 626.0 -61.0Q615 -50 615 -36Q615 -21 626 -10L742 106L472 647H451Q432 647 416.0 652.5Q400 658 400 683Q400 707 415.0 713.0Q430 719 449 719H472L742 1260L626 1376Q615 1387 615 1401Q615 1415 626.0 1426.0Q637 1437 651 1437Q667 1437 677 1427L793 1311L1334 1581V1602Q1334 1621 1339.5 1637.0Q1345 1653 1370 1653Q1394 1653 1400.0 1638.0Q1406 1623 1406 1604V1581L1947 1311L2063 1427Q2073 1437 2088 1437Q2103 1437 2113.5 1426.5Q2124 1416 2124 1401Q2124 1386 2114 1376L1998 1260ZM1334 1510 836 1268 937 1167 1334 1366ZM785 1217 543 719H687L886 1116ZM1406 -144 1902 100 1803 199 1406 0ZM1953 151 2197 647H2053L1854 250ZM543 647 789 153 886 250 687 647ZM840 102 1334 -144V0L937 199ZM1899 1263 1406 1510V1366L1802 1166ZM2197 719 1950 1212 1855 1117 2053 719ZM1710 393 1808 296 1981 647H1837ZM1406 216V72L1757 245L1660 343ZM1030 973 934 1068 759 719H903ZM1334 1150V1294L985 1119L1080 1023ZM1080 343 986 248 1334 72V216ZM1837 719H1981L1805 1067L1710 973ZM1660 1023 1754 1118 1406 1294V1150ZM903 647H759L935 299L1030 393ZM1406 1078V770L1614 978ZM1457 719H1765L1665 927ZM1457 647 1663 441 1765 647ZM1406 596V288L1612 390ZM1283 647H975L1078 442ZM1334 596 1129 391 1334 288ZM1283 719 1079 924 975 719ZM1334 770V1078L1129 975Z" style="fill:#ffffff;stroke:none" transform="scale(1,-1) translate(0,-256)" /></svg>