<?xml version="1.0" encoding="utf-8" ?>
<svg baseProfile="full" height="256" version="1.1" width="256" xmlns="http://www.w3.org/2000/svg" xmlns:ev="http://www.w3.org/2001/xml-events" xmlns:xlink="http://www.w3.org/1999/xlink"><defs /><path d="M2362 853Q2417 834 2450.5 787.5Q2484 741 2484 683Q2484 625 2450.5 578.5Q2417 532 2362 513L2173 134L2179 128Q2198 110 2214.0 92.5Q2230 75 2242.0 56.5Q2254 38 2261.0 15.5Q2268 -7 2268 -36Q2268 -74 2254.0 -106.5Q2240 -139 2216.0 -163.0Q2192 -187 2159.0 -201.0Q2126 -215 2089 -215Q2059 -215 2036.0 -208.0Q2013 -201 1993.5 -188.0Q1974 -175 1956.0 -157.5Q1938 -140 1919 -120L1540 -309Q1521 -364 1474.5 -397.5Q1428 -431 1370 -431Q1312 -431 1265.5 -397.5Q1219 -364 1200 -309L821 -120L815 -126Q797 -145 779.5 -161.0Q762 -177 743.5 -189.0Q725 -201 702.5 -208.0Q680 -215 651 -215Q613 -215 580.5 -201.0Q548 -187 523.5 -163.0Q499 -139 485.0 -106.5Q471 -74 471 -36Q471 -8 478.0 14.5Q485 37 497.0 56.0Q509 75 525.0 92.0Q541 109 559 127L567 134L378 513Q323 532 289.5 578.5Q256 625 256 683Q256 741 289.5 787.5Q323 834 378 853L567 1232L559 1239Q541 1257 525.0 1274.0Q509 1291 497.0 1309.5Q485 1328 478.5 1350.0Q472 1372 472 1401Q472 1438 486.0 1471.0Q500 1504 524.0 1528.5Q548 1553 580.5 1567.0Q613 1581 651 1581Q680 1581 702.5 1574.0Q725 1567 743.5 1555.0Q762 1543 779.5 1527.0Q797 1511 815 1492L821 1486L1200 1675Q1219 1730 1265.5 1763.5Q1312 1797 1370 1797Q1428 1797 1474.5 1763.5Q1521 1730 1540 1675L1919 1486Q1938 1506 1956.0 1523.5Q1974 1541 1993.5 1553.5Q2013 1566 2036.5 1573.5Q2060 1581 2089 1581Q2126 1581 2159.0 1567.0Q2192 1553 2216.0 1528.5Q2240 1504 2254.0 1471.0Q2268 1438 2268 1401Q2268 1371 2260.5 1348.0Q2253 1325 2240.5 1305.5Q2228 1286 2210.5 1268.5Q2193 1251 2173 1232Z" style="fill:#000000;stroke:none" transform="scale(1,-1) translate(0,-256)" /></svg>