<?xml version="1.0" encoding="utf-8" ?>
<svg baseProfile="full" height="256" version="1.1" width="256" xmlns="http://www.w3.org/2000/svg" xmlns:ev="http://www.w3.org/2001/xml-events" xmlns:xlink="http://www.w3.org/1999/xlink"><defs /><path d="M1765 1725Q1828 1725 1891.0 1721.0Q1954 1717 2017 1708Q2039 1705 2077.5 1698.0Q2116 1691 2159.5 1680.0Q2203 1669 2248.0 1653.0Q2293 1637 2329.5 1616.0Q2366 1595 2389.0 1568.5Q2412 1542 2412 1510V1504Q2403 1459 2361.5 1425.5Q2320 1392 2259.5 1369.0Q2199 1346 2127.0 1331.0Q2055 1316 1986.0 1308.0Q1917 1300 1858.0 1297.0Q1799 1294 1765 1294Q1730 1294 1671.5 1297.0Q1613 1300 1544.0 1308.0Q1475 1316 1403.5 1331.0Q1332 1346 1272.0 1369.0Q1212 1392 1170.0 1425.5Q1128 1459 1119 1504V1509Q1119 1541 1142.0 1567.5Q1165 1594 1201.5 1615.0Q1238 1636 1283.0 1652.0Q1328 1668 1371.5 1679.5Q1415 1691 1453.5 1698.0Q1492 1705 1514 1708Q1577 1717 1639.5 1721.0Q1702 1725 1765 1725ZM1765 -144Q1634 -144 1505 -126Q1483 -123 1446.0 -116.0Q1409 -109 1366.0 -97.5Q1323 -86 1279.0 -70.0Q1235 -54 1199.5 -33.0Q1164 -12 1141.5 14.0Q1119 40 1119 72Q1119 87 1126.5 104.0Q1134 121 1144.5 137.0Q1155 153 1167.0 167.5Q1179 182 1187 194Q1219 207 1249.0 211.5Q1279 216 1314 216H1329Q1372 195 1427.5 181.0Q1483 167 1542.5 158.5Q1602 150 1659.5 147.0Q1717 144 1765 144Q1814 144 1862.5 146.5Q1911 149 1960 155Q1975 157 2003.5 161.5Q2032 166 2066.5 173.0Q2101 180 2136.5 191.0Q2172 202 2201.5 216.0Q2231 230 2249.5 248.0Q2268 266 2268 288V302L2395 121Q2403 110 2408.0 97.5Q2413 85 2413 71Q2413 40 2390.5 14.0Q2368 -12 2332.5 -33.0Q2297 -54 2253.0 -69.5Q2209 -85 2166.0 -96.5Q2123 -108 2086.0 -115.5Q2049 -123 2027 -126Q1896 -144 1765 -144ZM1765 1438Q1775 1438 1800.0 1439.0Q1825 1440 1857.0 1443.0Q1889 1446 1923.5 1451.0Q1958 1456 1987.0 1464.0Q2016 1472 2034.5 1483.0Q2053 1494 2053 1510Q2053 1525 2034.5 1536.5Q2016 1548 1987.0 1555.5Q1958 1563 1923.5 1568.0Q1889 1573 1857.0 1576.0Q1825 1579 1799.5 1580.0Q1774 1581 1765 1581Q1755 1581 1730.5 1580.0Q1706 1579 1674.0 1576.0Q1642 1573 1607.5 1568.0Q1573 1563 1544.0 1555.5Q1515 1548 1496.5 1536.5Q1478 1525 1478 1510Q1478 1494 1496.5 1483.0Q1515 1472 1543.5 1464.0Q1572 1456 1606.5 1451.0Q1641 1446 1673.0 1443.0Q1705 1440 1730.0 1439.0Q1755 1438 1765 1438Z" style="fill:#f7d7c4;stroke:none" transform="scale(1,-1) translate(0,-256)" /></svg>