<?xml version="1.0" encoding="utf-8" ?>
<svg baseProfile="full" height="256" version="1.1" width="256" xmlns="http://www.w3.org/2000/svg" xmlns:ev="http://www.w3.org/2001/xml-events" xmlns:xlink="http://www.w3.org/1999/xlink"><defs /><path d="M1135 1317 1394 1601H2108L2395 1317Q2361 1268 2327.5 1219.5Q2294 1171 2259 1122Q2242 1098 2206.0 1080.0Q2170 1062 2124.0 1049.0Q2078 1036 2026.0 1027.5Q1974 1019 1925.0 1014.5Q1876 1010 1834.0 1008.0Q1792 1006 1765 1006Q1738 1006 1696.0 1008.0Q1654 1010 1604.5 1014.5Q1555 1019 1503.5 1027.5Q1452 1036 1406.5 1049.0Q1361 1062 1325.0 1080.0Q1289 1098 1272 1122Z" style="fill:#bb9167;stroke:none" transform="scale(1,-1) translate(0,-256)" /></svg>