<?xml version="1.0" encoding="utf-8" ?>
<svg baseProfile="full" height="256" version="1.1" width="256" xmlns="http://www.w3.org/2000/svg" xmlns:ev="http://www.w3.org/2001/xml-events" xmlns:xlink="http://www.w3.org/1999/xlink"><defs /><path d="M2412 72V-72Q2412 -103 2390.0 -129.0Q2368 -155 2333.0 -175.5Q2298 -196 2255.0 -212.0Q2212 -228 2170.0 -239.5Q2128 -251 2091.5 -258.0Q2055 -265 2033 -268Q1966 -278 1899.0 -282.5Q1832 -287 1765 -287Q1698 -287 1631.0 -282.5Q1564 -278 1498 -268Q1476 -265 1439.5 -258.0Q1403 -251 1360.5 -239.5Q1318 -228 1275.0 -212.0Q1232 -196 1197.0 -175.5Q1162 -155 1140.0 -129.0Q1118 -103 1118 -72V72ZM2412 1510V1366Q2412 1334 2389.0 1307.5Q2366 1281 2329.5 1260.0Q2293 1239 2248.0 1223.0Q2203 1207 2159.5 1195.5Q2116 1184 2077.5 1177.0Q2039 1170 2017 1167Q1954 1158 1891.0 1154.0Q1828 1150 1765 1150Q1702 1150 1639.0 1154.0Q1576 1158 1513 1167Q1491 1170 1453.0 1177.0Q1415 1184 1371.0 1195.5Q1327 1207 1282.0 1223.0Q1237 1239 1200.5 1260.0Q1164 1281 1141.0 1307.5Q1118 1334 1118 1366V1510L1765 1379Z" style="fill:#d8b094;stroke:none" transform="scale(1,-1) translate(0,-256)" /></svg>