<?xml version="1.0" encoding="utf-8" ?>
<svg baseProfile="full" height="256" version="1.1" width="256" xmlns="http://www.w3.org/2000/svg" xmlns:ev="http://www.w3.org/2001/xml-events" xmlns:xlink="http://www.w3.org/1999/xlink"><defs /><path d="M1765 431Q1814 431 1863.0 433.5Q1912 436 1961 442Q1976 444 2004.5 448.5Q2033 453 2067.0 460.5Q2101 468 2136.5 478.5Q2172 489 2201.0 503.0Q2230 517 2249.0 535.0Q2268 553 2268 575V459Q2223 429 2159.0 410.0Q2095 391 2025.5 380.0Q1956 369 1887.5 364.5Q1819 360 1765 360Q1710 360 1641.5 364.5Q1573 369 1504.0 380.0Q1435 391 1371.0 410.0Q1307 429 1262 459V575Q1262 553 1281.0 535.0Q1300 517 1329.0 503.0Q1358 489 1393.5 478.5Q1429 468 1463.0 460.5Q1497 453 1525.5 448.5Q1554 444 1569 442Q1618 436 1667.0 433.5Q1716 431 1765 431ZM1765 288Q1814 288 1863.0 290.5Q1912 293 1961 299Q1976 301 2004.5 305.0Q2033 309 2067.0 316.5Q2101 324 2136.5 334.5Q2172 345 2201.0 359.0Q2230 373 2249.0 391.0Q2268 409 2268 431V316Q2222 286 2158.0 266.5Q2094 247 2024.5 235.5Q1955 224 1887.0 220.0Q1819 216 1765 216Q1711 216 1643.0 220.0Q1575 224 1505.5 235.5Q1436 247 1372.0 266.5Q1308 286 1262 316V431Q1262 409 1281.0 391.0Q1300 373 1329.0 359.0Q1358 345 1393.5 334.5Q1429 324 1463.0 316.5Q1497 309 1525.5 305.0Q1554 301 1569 299Q1618 293 1667.0 290.5Q1716 288 1765 288ZM1765 575Q1814 575 1863.0 577.5Q1912 580 1961 586Q1976 588 2004.5 592.5Q2033 597 2067.0 604.5Q2101 612 2136.5 622.5Q2172 633 2201.0 647.0Q2230 661 2249.0 679.0Q2268 697 2268 719V603Q2222 573 2158.0 554.0Q2094 535 2024.5 523.5Q1955 512 1887.0 508.0Q1819 504 1765 504Q1711 504 1643.0 508.0Q1575 512 1505.5 523.5Q1436 535 1372.0 554.0Q1308 573 1262 603V719Q1262 697 1281.0 679.0Q1300 661 1329.0 647.0Q1358 633 1393.5 622.5Q1429 612 1463.0 604.5Q1497 597 1525.5 592.5Q1554 588 1569 586Q1618 580 1667.0 577.5Q1716 575 1765 575ZM1765 719Q1814 719 1863.0 721.5Q1912 724 1961 730Q1976 732 2004.5 736.5Q2033 741 2067.0 748.5Q2101 756 2136.5 766.5Q2172 777 2201.0 791.0Q2230 805 2249.0 823.0Q2268 841 2268 863V747Q2222 717 2158.0 698.0Q2094 679 2024.5 667.5Q1955 656 1887.0 652.0Q1819 648 1765 648Q1711 648 1643.0 652.0Q1575 656 1505.5 667.5Q1436 679 1372.0 698.0Q1308 717 1262 747V863Q1262 841 1281.0 823.0Q1300 805 1329.0 791.0Q1358 777 1393.5 766.5Q1429 756 1463.0 748.5Q1497 741 1525.5 736.5Q1554 732 1569 730Q1618 724 1667.0 721.5Q1716 719 1765 719ZM1765 863Q1814 863 1863.0 865.5Q1912 868 1961 874Q1976 876 2004.5 880.0Q2033 884 2067.0 891.5Q2101 899 2136.5 909.5Q2172 920 2201.0 934.0Q2230 948 2249.0 966.0Q2268 984 2268 1006V891Q2222 861 2158.0 841.5Q2094 822 2024.5 810.5Q1955 799 1887.0 795.0Q1819 791 1765 791Q1711 791 1643.0 795.0Q1575 799 1505.5 810.5Q1436 822 1372.0 841.5Q1308 861 1262 891V1006Q1262 984 1281.0 966.0Q1300 948 1329.0 934.0Q1358 920 1393.5 909.5Q1429 899 1463.0 891.5Q1497 884 1525.5 880.0Q1554 876 1569 874Q1618 868 1667.0 865.5Q1716 863 1765 863Z" style="fill:#0078d7;stroke:none" transform="scale(1,-1) translate(0,-256)" /></svg>