<?xml version="1.0" encoding="utf-8" ?>
<svg baseProfile="full" height="256" version="1.1" width="256" xmlns="http://www.w3.org/2000/svg" xmlns:ev="http://www.w3.org/2001/xml-events" xmlns:xlink="http://www.w3.org/1999/xlink"><defs /><path d="M1765 1294Q1854 1294 1943 1285Q1958 1283 1988.0 1279.0Q2018 1275 2054.0 1267.5Q2090 1260 2128.0 1249.0Q2166 1238 2197.0 1223.5Q2228 1209 2248.0 1191.0Q2268 1173 2268 1150V1047Q2268 1011 2267.0 975.0Q2266 939 2264 903Q2267 898 2267.5 892.5Q2268 887 2268 881V872Q2268 843 2266.5 813.5Q2265 784 2263 755L2268 747V724Q2268 695 2266.0 667.0Q2264 639 2262 611L2268 603V583Q2268 554 2267.0 525.0Q2266 496 2264 467L2268 459V440Q2268 411 2266.5 382.0Q2265 353 2263 324L2268 316Q2268 305 2268.5 293.5Q2269 282 2269 270Q2269 255 2267.0 241.0Q2265 227 2258 216Q2245 197 2222.0 177.0Q2199 157 2181 143Q2137 110 2087.0 83.5Q2037 57 1984.0 38.0Q1931 19 1875.5 9.0Q1820 -1 1765 -1Q1716 -1 1654.0 15.5Q1592 32 1528.0 56.0Q1464 80 1403.5 106.5Q1343 133 1297 153Q1289 156 1273.5 162.5Q1258 169 1241.5 175.5Q1225 182 1209.5 187.0Q1194 192 1185 192Q1175 192 1159.0 183.5Q1143 175 1126.5 163.5Q1110 152 1096.0 140.0Q1082 128 1075 121L926 -28Q870 -84 797.0 -114.0Q724 -144 646 -144H436Q422 -144 411.0 -133.0Q400 -122 400 -108Q400 -93 410.5 -82.5Q421 -72 436 -72H646Q711 -72 770.0 -47.5Q829 -23 875 23L1024 172Q1072 220 1133.0 249.0Q1194 278 1262 286V316L1271 324Q1269 354 1265.5 384.5Q1262 415 1262 445V459L1270 467Q1268 498 1265.0 529.0Q1262 560 1262 591Q1262 602 1265.5 612.5Q1269 623 1269 634Q1269 658 1265.5 682.5Q1262 707 1262 731V747L1269 763Q1267 791 1264.5 819.0Q1262 847 1262 875V891L1269 899Q1267 925 1264.5 952.5Q1262 980 1262 1006V1150Q1262 1173 1282.0 1191.0Q1302 1209 1333.0 1223.5Q1364 1238 1402.0 1249.0Q1440 1260 1476.0 1267.5Q1512 1275 1542.0 1279.0Q1572 1283 1587 1285Q1675 1294 1765 1294Z" style="fill:#0063b1;stroke:none" transform="scale(1,-1) translate(0,-256)" /></svg>