<?xml version="1.0" encoding="utf-8" ?>
<svg baseProfile="full" height="256" version="1.1" width="256" xmlns="http://www.w3.org/2000/svg" xmlns:ev="http://www.w3.org/2001/xml-events" xmlns:xlink="http://www.w3.org/1999/xlink"><defs /><path d="M1765 -431Q1711 -431 1640.0 -427.0Q1569 -423 1492.0 -412.0Q1415 -401 1336.5 -382.0Q1258 -363 1190.0 -333.0Q1122 -303 1070.0 -260.5Q1018 -218 993 -161Q942 -204 892.0 -229.0Q842 -254 791.0 -267.0Q740 -280 687.0 -284.0Q634 -288 577 -288Q543 -288 508.0 -287.5Q473 -287 436 -287Q399 -287 366.0 -273.0Q333 -259 308.5 -234.5Q284 -210 270.0 -177.5Q256 -145 256 -108Q256 -71 270.0 -38.0Q284 -5 308.5 19.5Q333 44 366.0 58.0Q399 72 436 72H646Q682 72 714.5 85.5Q747 99 773 125Q813 165 851.5 205.5Q890 246 931.0 282.0Q972 318 1017.5 348.5Q1063 379 1118 399V1090L1075 1149Q1039 1200 1018.5 1236.0Q998 1272 988.5 1304.5Q979 1337 977.0 1372.0Q975 1407 975 1455V1486V1510Q975 1569 1000.0 1615.5Q1025 1662 1067.5 1698.0Q1110 1734 1167.0 1761.0Q1224 1788 1288.0 1807.0Q1352 1826 1419.0 1838.0Q1486 1850 1549.0 1857.0Q1612 1864 1668.0 1866.5Q1724 1869 1765 1869Q1806 1869 1862.0 1866.5Q1918 1864 1981.0 1857.0Q2044 1850 2111.5 1838.0Q2179 1826 2243.0 1807.0Q2307 1788 2363.5 1761.0Q2420 1734 2463.0 1698.0Q2506 1662 2531.0 1615.5Q2556 1569 2556 1510V1366Q2556 1330 2544.5 1296.5Q2533 1263 2513 1234Q2488 1198 2463.0 1162.0Q2438 1126 2412 1090V348Q2438 312 2463.0 276.0Q2488 240 2513 204Q2542 162 2550.0 117.5Q2558 73 2558 26Q2558 2 2557.0 -22.5Q2556 -47 2556 -72Q2556 -131 2531.0 -177.5Q2506 -224 2463.0 -260.0Q2420 -296 2363.5 -323.0Q2307 -350 2243.0 -369.0Q2179 -388 2111.5 -400.0Q2044 -412 1981.0 -419.0Q1918 -426 1862.0 -428.5Q1806 -431 1765 -431Z" style="fill:#000000;stroke:none" transform="scale(1,-1) translate(0,-256)" /></svg>