<?xml version="1.0" encoding="utf-8" ?>
<svg baseProfile="full" height="256" version="1.1" width="256" xmlns="http://www.w3.org/2000/svg" xmlns:ev="http://www.w3.org/2001/xml-events" xmlns:xlink="http://www.w3.org/1999/xlink"><defs /><path d="M1481 1150Q1555 1150 1620.0 1122.0Q1685 1094 1733.0 1046.0Q1781 998 1809.0 933.0Q1837 868 1837 794Q1837 722 1810.5 658.0Q1784 594 1733 543L1118 -72L504 543Q453 594 426.5 658.0Q400 722 400 794Q400 867 428.0 932.0Q456 997 504.0 1045.5Q552 1094 616.5 1122.0Q681 1150 755 1150Q813 1150 859.5 1135.0Q906 1120 945.5 1094.0Q985 1068 1020.0 1034.0Q1055 1000 1091 963L1118 935Q1160 976 1198.0 1015.0Q1236 1054 1277.0 1084.0Q1318 1114 1367.0 1132.0Q1416 1150 1481 1150Z" style="fill:#e81224;stroke:none" transform="scale(1,-1) translate(0,-256)" /></svg>