<?xml version="1.0" encoding="utf-8" ?>
<svg baseProfile="full" height="256" version="1.1" width="256" xmlns="http://www.w3.org/2000/svg" xmlns:ev="http://www.w3.org/2001/xml-events" xmlns:xlink="http://www.w3.org/1999/xlink"><defs /><path d="M2056 1581Q2159 1581 2250.5 1542.0Q2342 1503 2409.5 1435.5Q2477 1368 2516.5 1277.0Q2556 1186 2556 1082Q2556 979 2518.5 891.5Q2481 804 2410 729Q2352 667 2291.5 608.0Q2231 549 2171 489Q2051 369 1932.5 250.0Q1814 131 1693 13L1550 156L1118 -275Q1000 -154 881.0 -35.5Q762 83 642 203Q582 263 521.5 321.0Q461 379 402 441Q332 515 294.0 603.0Q256 691 256 794Q256 897 295.0 988.0Q334 1079 401.5 1146.5Q469 1214 559.5 1253.5Q650 1293 753 1293Q811 1293 872 1279Q900 1348 947.5 1403.5Q995 1459 1055.5 1498.5Q1116 1538 1186.0 1559.5Q1256 1581 1330 1581Q1379 1581 1429.5 1570.5Q1480 1560 1527.5 1540.0Q1575 1520 1617.5 1491.0Q1660 1462 1693 1425Q1768 1500 1858.5 1540.5Q1949 1581 2056 1581Z" style="fill:#000000;stroke:none" transform="scale(1,-1) translate(0,-256)" /></svg>