<?xml version="1.0" encoding="utf-8" ?>
<svg baseProfile="full" height="256" version="1.1" width="256" xmlns="http://www.w3.org/2000/svg" xmlns:ev="http://www.w3.org/2001/xml-events" xmlns:xlink="http://www.w3.org/1999/xlink"><defs /><path d="M2056 1437Q2129 1437 2194.0 1409.0Q2259 1381 2307.5 1333.0Q2356 1285 2384.0 1220.0Q2412 1155 2412 1082Q2412 1010 2385.5 945.5Q2359 881 2308 830L1693 216L1079 830Q1028 881 1001.5 945.5Q975 1010 975 1082Q975 1155 1003.0 1220.0Q1031 1285 1079.0 1333.0Q1127 1381 1191.5 1409.0Q1256 1437 1330 1437Q1391 1437 1438.5 1421.5Q1486 1406 1526.0 1379.0Q1566 1352 1601.5 1316.5Q1637 1281 1675 1241L1693 1222L1720 1250Q1756 1287 1791.0 1321.0Q1826 1355 1865.5 1381.0Q1905 1407 1951.0 1422.0Q1997 1437 2056 1437Z" style="fill:#e6808a;stroke:none" transform="scale(1,-1) translate(0,-256)" /></svg>