<?xml version="1.0" encoding="utf-8" ?>
<svg baseProfile="full" height="256" version="1.1" width="256" xmlns="http://www.w3.org/2000/svg" xmlns:ev="http://www.w3.org/2001/xml-events" xmlns:xlink="http://www.w3.org/1999/xlink"><defs /><path d="M472 1581Q665 1581 836.0 1537.0Q1007 1493 1159.5 1412.0Q1312 1331 1448.5 1216.5Q1585 1102 1710 961L1718 952Q1701 924 1696.5 897.5Q1692 871 1692 842Q1692 830 1692.5 817.5Q1693 805 1693 791V611Q1693 597 1682.5 586.0Q1672 575 1658 575Q1634 575 1627.5 592.5Q1621 610 1621 630Q1621 640 1621.5 648.5Q1622 657 1622 665Q1622 675 1621.0 684.5Q1620 694 1616.5 701.5Q1613 709 1605.5 714.0Q1598 719 1586 719Q1571 719 1560.5 708.5Q1550 698 1550 683V467Q1550 453 1539.0 442.0Q1528 431 1514 431Q1500 431 1489.0 442.0Q1478 453 1478 467V791L543 -144V-251Q543 -265 532.5 -276.0Q522 -287 508 -287Q493 -287 482.5 -276.5Q472 -266 472 -251Z" style="fill:#ffc83d;stroke:none" transform="scale(1,-1) translate(0,-256)" /></svg>