<?xml version="1.0" encoding="utf-8" ?>
<svg baseProfile="full" height="256" version="1.1" width="256" xmlns="http://www.w3.org/2000/svg" xmlns:ev="http://www.w3.org/2001/xml-events" xmlns:xlink="http://www.w3.org/1999/xlink"><defs /><path d="M472 1869Q683 1869 888.5 1817.5Q1094 1766 1282.5 1671.0Q1471 1576 1635.5 1442.5Q1800 1309 1931 1144Q1954 1114 1967.5 1079.0Q1981 1044 1981 1006Q1981 936 1941.0 881.5Q1901 827 1836 803V611Q1836 579 1825.0 549.5Q1814 520 1794.5 496.5Q1775 473 1748.0 456.5Q1721 440 1690 434Q1684 402 1668.0 375.5Q1652 349 1628.5 329.5Q1605 310 1575.5 299.0Q1546 288 1514 288Q1460 288 1417.5 315.0Q1375 342 1352 390L685 -277Q680 -310 664.5 -338.5Q649 -367 625.0 -387.5Q601 -408 571.0 -419.5Q541 -431 507 -431Q469 -431 436.5 -417.0Q404 -403 379.5 -378.5Q355 -354 341.0 -321.5Q327 -289 327 -251V1493Q293 1523 274.5 1565.5Q256 1608 256 1653Q256 1698 273.0 1737.0Q290 1776 319.5 1805.5Q349 1835 388.0 1852.0Q427 1869 472 1869Z" style="fill:#000000;stroke:none" transform="scale(1,-1) translate(0,-256)" /></svg>