<?xml version="1.0" encoding="utf-8" ?>
<svg baseProfile="full" height="256" version="1.1" width="256" xmlns="http://www.w3.org/2000/svg" xmlns:ev="http://www.w3.org/2001/xml-events" xmlns:xlink="http://www.w3.org/1999/xlink"><defs /><path d="M723 1078Q685 1078 652.5 1092.0Q620 1106 595.5 1130.5Q571 1155 557.0 1187.5Q543 1220 543 1258Q543 1295 557.0 1328.0Q571 1361 595.5 1385.5Q620 1410 652.5 1424.0Q685 1438 723 1438Q760 1438 793.0 1424.0Q826 1410 850.5 1385.5Q875 1361 889.0 1328.0Q903 1295 903 1258Q903 1220 889.0 1187.5Q875 1155 850.5 1130.5Q826 1106 793.0 1092.0Q760 1078 723 1078ZM723 575Q760 575 793.0 561.0Q826 547 850.5 522.5Q875 498 889.0 465.5Q903 433 903 396Q903 358 889.0 325.5Q875 293 850.5 268.5Q826 244 793.0 230.0Q760 216 723 216Q685 216 652.5 230.0Q620 244 595.5 268.5Q571 293 557.0 325.5Q543 358 543 396Q543 433 557.0 465.5Q571 498 595.5 522.5Q620 547 653.0 561.0Q686 575 723 575ZM1083 1006Q1120 1006 1152.5 992.0Q1185 978 1209.5 953.5Q1234 929 1248.0 896.5Q1262 864 1262 827Q1262 790 1248.0 757.0Q1234 724 1209.5 699.5Q1185 675 1152.5 661.0Q1120 647 1083 647Q1045 647 1012.5 661.0Q980 675 955.5 699.5Q931 724 917.0 756.5Q903 789 903 827Q903 864 917.0 896.5Q931 929 955.5 953.5Q980 978 1013.0 992.0Q1046 1006 1083 1006Z" style="fill:#af0d1a;stroke:none" transform="scale(1,-1) translate(0,-256)" /></svg>