<?xml version="1.0" encoding="utf-8" ?>
<svg baseProfile="full" height="256" version="1.1" width="256" xmlns="http://www.w3.org/2000/svg" xmlns:ev="http://www.w3.org/2001/xml-events" xmlns:xlink="http://www.w3.org/1999/xlink"><defs /><path d="M2304 1258 2340 1222V1120L1601 381Q1577 357 1555.5 332.0Q1534 307 1509 284Q1400 182 1262.0 127.0Q1124 72 975 72Q892 72 813.5 89.5Q735 107 662.5 140.0Q590 173 523.5 219.5Q457 266 400 325V431H452Q552 310 685.0 248.0Q818 186 975 186Q1036 186 1096.5 198.5Q1157 211 1214.5 234.0Q1272 257 1324.5 289.5Q1377 322 1423 362Q1448 384 1469.5 408.0Q1491 432 1514 455Z" style="fill:#757575;stroke:none" transform="scale(1,-1) translate(0,-256)" /></svg>