<?xml version="1.0" encoding="utf-8" ?>
<svg baseProfile="full" height="256" version="1.1" width="256" xmlns="http://www.w3.org/2000/svg" xmlns:ev="http://www.w3.org/2001/xml-events" xmlns:xlink="http://www.w3.org/1999/xlink"><defs /><path d="M2017 1725Q2043 1725 2051 1701Q2059 1679 2067.5 1656.0Q2076 1633 2081 1610Q2095 1544 2101.5 1478.0Q2108 1412 2121 1346Q2122 1342 2123.5 1338.5Q2125 1335 2125 1330Q2125 1316 2114.0 1305.0Q2103 1294 2089 1294Q2066 1294 2057 1314L1994 1439Q1984 1437 1979 1437Q1965 1437 1952.5 1443.0Q1940 1449 1930 1459Q1930 1479 1934.5 1496.5Q1939 1514 1939 1531Q1939 1544 1934.5 1555.0Q1930 1566 1924.0 1576.0Q1918 1586 1913.5 1596.5Q1909 1607 1909 1618Q1909 1632 1919.5 1642.5Q1930 1653 1944 1653Q1960 1653 1969.5 1642.0Q1979 1631 1986.0 1616.5Q1993 1602 1999.0 1587.0Q2005 1572 2015 1563Q2017 1564 2017.5 1566.5Q2018 1569 2018 1571Q2018 1575 2012.0 1590.0Q2006 1605 1999.5 1623.5Q1993 1642 1987.0 1660.0Q1981 1678 1981 1689Q1981 1703 1992.0 1714.0Q2003 1725 2017 1725Z" style="fill:#f7d7c4;stroke:none" transform="scale(1,-1) translate(0,-256)" /></svg>