<?xml version="1.0" encoding="utf-8" ?>
<svg baseProfile="full" height="256" version="1.1" width="256" xmlns="http://www.w3.org/2000/svg" xmlns:ev="http://www.w3.org/2001/xml-events" xmlns:xlink="http://www.w3.org/1999/xlink"><defs /><path d="M2221 839Q2220 836 2220.0 832.5Q2220 829 2220 826V814L2228 822V750L2089 611L2219 481Q2218 473 2217.5 465.5Q2217 458 2217 450Q2217 439 2217.5 429.0Q2218 419 2218 409L2197 431V360L2089 252L2220 120V107Q2220 99 2219 95V24L2089 -108L2228 -247L2196 -287L2053 -144L1909 -287L1874 -251L2017 -108L1886 23V95L2053 -72L2197 72L2053 216L1909 72Q1911 77 1911 90Q1911 98 1910.5 105.0Q1910 112 1910 118Q1910 125 1910.0 131.0Q1910 137 1909 144L2017 252L1894 375V416L1887 409Q1889 414 1889 427Q1889 435 1888.5 442.0Q1888 449 1888 455Q1888 462 1888.0 468.0Q1888 474 1887 481L2017 611L1909 719V791L2053 647L2197 791L2018 970L2053 1006ZM1658 252 1801 108V38Q1801 38 1799.0 35.5Q1797 33 1783.5 19.0Q1770 5 1740.5 -24.5Q1711 -54 1658 -108L1765 -215Q1764 -223 1763.5 -230.0Q1763 -237 1763 -245Q1763 -256 1763.5 -266.0Q1764 -276 1764 -286L1622 -144L1478 -287L1445 -248L1586 -108L1453 25V47L1443 37Q1445 42 1445 55Q1445 63 1444.5 70.0Q1444 77 1444 83Q1444 90 1444.0 96.0Q1444 102 1443 109L1586 252L1478 360H1550L1622 288L1787 454V382ZM1365 113V41L1364 31L1226 -108L1361 -242L1334 -287L1190 -144L1047 -287L1022 -240L1154 -108L1022 25V97L1190 -72L1334 72L1262 144V216ZM615 72 759 -72 932 101V29L795 -108L924 -237Q922 -241 919.0 -248.0Q916 -255 912.0 -263.0Q908 -271 905.5 -277.5Q903 -284 903 -287L759 -144L615 -287L583 -247L723 -108L597 18V54L591 47Q592 52 592.0 58.0Q592 64 592 70Q592 82 591.5 94.5Q591 107 590 119L687 216V144ZM1622 -72 1765 72 1622 216 1478 72ZM1909 431 2053 288 2197 431 2053 575ZM1801 863Q1816 863 1826.5 852.5Q1837 842 1837 827Q1837 812 1826.5 801.5Q1816 791 1801 791Q1786 791 1775.5 801.5Q1765 812 1765 827Q1765 842 1775.5 852.5Q1786 863 1801 863ZM2089 1078Q2074 1078 2063.5 1088.5Q2053 1099 2053 1114Q2053 1129 2063.5 1139.5Q2074 1150 2089 1150Q2104 1150 2114.5 1139.5Q2125 1129 2125 1114Q2125 1099 2114.5 1088.5Q2104 1078 2089 1078ZM1514 503Q1499 503 1488.5 513.5Q1478 524 1478 539Q1478 554 1488.5 564.5Q1499 575 1514 575Q1529 575 1539.5 564.5Q1550 554 1550 539Q1550 524 1539.5 513.5Q1529 503 1514 503ZM1658 647Q1643 647 1632.5 657.5Q1622 668 1622 683Q1622 698 1632.5 708.5Q1643 719 1658 719Q1672 719 1682.5 708.0Q1693 697 1693 683Q1693 669 1682.5 658.0Q1672 647 1658 647ZM2233 1294Q2247 1294 2257.5 1283.0Q2268 1272 2268 1258Q2268 1244 2257.5 1233.0Q2247 1222 2233 1222Q2218 1222 2207.5 1232.5Q2197 1243 2197 1258Q2197 1273 2207.5 1283.5Q2218 1294 2233 1294ZM1945 935Q1930 935 1919.5 945.5Q1909 956 1909 971Q1909 985 1920.0 995.5Q1931 1006 1945 1006Q1959 1006 1970.0 995.5Q1981 985 1981 971Q1981 956 1970.5 945.5Q1960 935 1945 935Z" style="fill:#383838;stroke:none" transform="scale(1,-1) translate(0,-256)" /></svg>