<?xml version="1.0" encoding="utf-8" ?>
<svg baseProfile="full" height="256" version="1.1" width="256" xmlns="http://www.w3.org/2000/svg" xmlns:ev="http://www.w3.org/2001/xml-events" xmlns:xlink="http://www.w3.org/1999/xlink"><defs /><path d="M975 216Q1094 216 1205.5 261.0Q1317 306 1405 385Q1429 406 1450.0 430.0Q1471 454 1494 477L2340 1324V1222L1550 431Q1527 408 1506.0 384.5Q1485 361 1462 339Q1412 294 1355.0 258.0Q1298 222 1236.0 196.5Q1174 171 1108.0 157.5Q1042 144 975 144Q889 144 809.0 164.5Q729 185 656.0 222.5Q583 260 518.5 313.0Q454 366 400 431V533Q436 497 471.0 458.0Q506 419 544 385Q633 306 744.5 261.0Q856 216 975 216Z" style="fill:#cccccc;stroke:none" transform="scale(1,-1) translate(0,-256)" /></svg>