<?xml version="1.0" encoding="utf-8" ?>
<svg baseProfile="full" height="256" version="1.1" width="256" xmlns="http://www.w3.org/2000/svg" xmlns:ev="http://www.w3.org/2001/xml-events" xmlns:xlink="http://www.w3.org/1999/xlink"><defs /><path d="M1729 1438Q1743 1438 1750.5 1432.0Q1758 1426 1763 1413Q1771 1390 1780.0 1367.5Q1789 1345 1794 1322Q1808 1256 1813.5 1190.0Q1819 1124 1833 1058Q1834 1053 1835.5 1050.0Q1837 1047 1837 1042Q1837 1028 1826.0 1017.0Q1815 1006 1801 1006Q1778 1006 1769 1026L1707 1151Q1697 1149 1692 1149Q1678 1149 1665.5 1155.0Q1653 1161 1643 1171V1177Q1643 1194 1647.5 1211.0Q1652 1228 1652 1245Q1652 1257 1647.5 1267.5Q1643 1278 1637.0 1288.0Q1631 1298 1626.5 1308.0Q1622 1318 1622 1329Q1622 1344 1632.0 1355.0Q1642 1366 1658 1366Q1675 1366 1686.0 1352.0Q1697 1338 1704.5 1320.5Q1712 1303 1717.0 1289.0Q1722 1275 1727 1275Q1729 1275 1730.0 1278.0Q1731 1281 1731 1283Q1731 1287 1725.0 1302.0Q1719 1317 1712.0 1335.0Q1705 1353 1699.0 1371.5Q1693 1390 1693 1401Q1693 1416 1703.5 1427.0Q1714 1438 1729 1438Z" style="fill:#8e562e;stroke:none" transform="scale(1,-1) translate(0,-256)" /></svg>