<?xml version="1.0" encoding="utf-8" ?>
<svg baseProfile="full" height="256" version="1.1" width="256" xmlns="http://www.w3.org/2000/svg" xmlns:ev="http://www.w3.org/2001/xml-events" xmlns:xlink="http://www.w3.org/1999/xlink"><defs /><path d="M328 -431V194Q309 211 291.5 230.0Q274 249 256 267V880L566 569Q611 524 655.5 486.0Q700 448 749.5 420.0Q799 392 854.0 376.0Q909 360 975 360Q1046 360 1112.5 380.5Q1179 401 1239 439Q1216 468 1203.0 503.0Q1190 538 1190 575Q1190 691 1243 794Q1217 823 1203.5 860.0Q1190 897 1190 935Q1190 962 1198 991Q1191 1015 1191 1042Q1191 1091 1216.0 1134.0Q1241 1177 1284 1200Q1307 1245 1349.5 1269.5Q1392 1294 1442 1294Q1461 1294 1483 1289Q1478 1311 1478 1330Q1478 1380 1502.5 1422.5Q1527 1465 1572 1488Q1596 1533 1637.0 1557.0Q1678 1581 1729 1581Q1740 1581 1750.0 1580.0Q1760 1579 1770 1577Q1765 1599 1765 1617Q1765 1667 1789.5 1709.5Q1814 1752 1859 1775Q1882 1820 1924.5 1844.5Q1967 1869 2017 1869Q2076 1869 2112.0 1844.0Q2148 1819 2170.5 1780.0Q2193 1741 2206.5 1693.5Q2220 1646 2235 1602L2325 1512L2484 1671V-431Z" style="fill:#000000;stroke:none" transform="scale(1,-1) translate(0,-256)" /></svg>