<?xml version="1.0" encoding="utf-8" ?>
<svg baseProfile="full" height="256" version="1.1" width="256" xmlns="http://www.w3.org/2000/svg" xmlns:ev="http://www.w3.org/2001/xml-events" xmlns:xlink="http://www.w3.org/1999/xlink"><defs /><path d="M1693 791Q1608 590 1406 503Q1376 503 1355.0 524.0Q1334 545 1334 575Q1342 586 1347.5 598.5Q1353 611 1353 625Q1353 642 1344 657Q1356 705 1377.5 742.0Q1399 779 1426.5 811.0Q1454 843 1485.5 872.5Q1517 902 1550 935L1586 899Q1589 866 1622 863ZM2089 1114 1981 1222Q1973 1250 1945 1258L1909 1294L2125 1510L2161 1474Q2165 1444 2197 1438L2268 1366ZM1783 845 1693 935Q1691 949 1681.5 958.0Q1672 967 1658 971L1622 1006L1837 1222L1873 1186Q1874 1170 1884.5 1161.5Q1895 1153 1909 1150L1999 1060Z" style="fill:#e5e5e5;stroke:none" transform="scale(1,-1) translate(0,-256)" /></svg>