<?xml version="1.0" encoding="utf-8" ?>
<svg baseProfile="full" height="256" version="1.1" width="256" xmlns="http://www.w3.org/2000/svg" xmlns:ev="http://www.w3.org/2001/xml-events" xmlns:xlink="http://www.w3.org/1999/xlink"><defs /><path d="M1442 1150Q1468 1150 1476 1126Q1484 1104 1492.5 1081.0Q1501 1058 1506 1035Q1520 969 1526.5 903.0Q1533 837 1546 771Q1547 767 1548.5 763.5Q1550 760 1550 755Q1550 741 1539.0 730.0Q1528 719 1514 719Q1491 719 1482 739L1419 864Q1409 862 1404 862Q1390 862 1377.5 868.0Q1365 874 1355 884Q1355 904 1359.5 921.5Q1364 939 1364 956Q1364 969 1359.5 980.0Q1355 991 1349.0 1001.0Q1343 1011 1338.5 1021.5Q1334 1032 1334 1043Q1334 1057 1344.5 1067.5Q1355 1078 1369 1078Q1385 1078 1394.5 1067.0Q1404 1056 1411.0 1041.5Q1418 1027 1424.0 1012.0Q1430 997 1440 988Q1442 989 1442.5 991.5Q1443 994 1443 996Q1443 1000 1437.0 1015.0Q1431 1030 1424.5 1048.5Q1418 1067 1412.0 1085.0Q1406 1103 1406 1114Q1406 1128 1417.0 1139.0Q1428 1150 1442 1150Z" style="fill:#d8b094;stroke:none" transform="scale(1,-1) translate(0,-256)" /></svg>