<?xml version="1.0" encoding="utf-8" ?>
<svg baseProfile="full" height="256" version="1.1" width="256" xmlns="http://www.w3.org/2000/svg" xmlns:ev="http://www.w3.org/2001/xml-events" xmlns:xlink="http://www.w3.org/1999/xlink"><defs /><path d="M2340 -287H2197V1150L2340 1222ZM1909 -287H1765V719L1909 863ZM1478 -287H1334V288L1478 360ZM615 -287H472V360L615 288ZM1047 -287H903V174H1047ZM1344 657 1586 899 1622 863 1334 575Q1334 618 1344 657ZM2161 1474 2197 1438 1981 1222 1945 1258ZM1658 971 1873 1186 1909 1150 1693 935Z" style="fill:#e81224;stroke:none" transform="scale(1,-1) translate(0,-256)" /></svg>