<?xml version="1.0" encoding="utf-8" ?>
<svg baseProfile="full" height="256" version="1.1" width="256" xmlns="http://www.w3.org/2000/svg" xmlns:ev="http://www.w3.org/2001/xml-events" xmlns:xlink="http://www.w3.org/1999/xlink"><defs /><path d="M1858 1273H1960V1171L1097 309H996V410ZM615 -179Q615 -201 606.5 -220.5Q598 -240 584.0 -255.0Q570 -270 550.0 -278.5Q530 -287 508 -287Q485 -287 465.5 -278.5Q446 -270 431.5 -255.5Q417 -241 408.5 -221.5Q400 -202 400 -179Q400 -157 408.5 -137.0Q417 -117 432.0 -103.0Q447 -89 466.5 -80.5Q486 -72 508 -72Q530 -72 549.5 -80.5Q569 -89 583.5 -103.5Q598 -118 606.5 -137.5Q615 -157 615 -179Z" style="fill:#ffffff;stroke:none" transform="scale(1,-1) translate(0,-256)" /></svg>