<?xml version="1.0" encoding="utf-8" ?>
<svg baseProfile="full" height="256" version="1.1" width="256" xmlns="http://www.w3.org/2000/svg" xmlns:ev="http://www.w3.org/2001/xml-events" xmlns:xlink="http://www.w3.org/1999/xlink"><defs /><path d="M2340 1869Q2385 1869 2424.5 1852.0Q2464 1835 2493.0 1806.0Q2522 1777 2539.0 1737.5Q2556 1698 2556 1653V1150Q2556 1090 2533.5 1038.0Q2511 986 2472.0 947.0Q2433 908 2380.5 885.5Q2328 863 2268 863Q2186 863 2118.0 905.5Q2050 948 2012 1020L822 -170Q803 -189 785.5 -208.0Q768 -227 750 -246Q739 -287 715.5 -321.0Q692 -355 660.0 -379.5Q628 -404 589.0 -417.5Q550 -431 508 -431Q456 -431 410.0 -411.0Q364 -391 330.0 -357.0Q296 -323 276.0 -277.0Q256 -231 256 -179Q256 -137 269.5 -98.0Q283 -59 307.5 -27.0Q332 5 366.0 28.5Q400 52 441 63Q461 82 480.5 100.0Q500 118 520 138L2188 1806Q2218 1836 2257.5 1852.5Q2297 1869 2340 1869Z" style="fill:#000000;stroke:none" transform="scale(1,-1) translate(0,-256)" /></svg>