<?xml version="1.0" encoding="utf-8" ?>
<svg baseProfile="full" height="256" version="1.1" width="256" xmlns="http://www.w3.org/2000/svg" xmlns:ev="http://www.w3.org/2001/xml-events" xmlns:xlink="http://www.w3.org/1999/xlink"><defs /><path d="M2340 1653 2199 1170Q2196 1161 2196 1151Q2196 1122 2217.5 1100.0Q2239 1078 2268 1078Q2298 1078 2319.0 1099.0Q2340 1120 2340 1150ZM2271 1674 2412 1653V1150Q2412 1120 2400.5 1094.0Q2389 1068 2369.5 1048.5Q2350 1029 2324.0 1017.5Q2298 1006 2268 1006Q2238 1006 2212.0 1017.5Q2186 1029 2166.5 1049.0Q2147 1069 2135.5 1095.0Q2124 1121 2124 1151Q2124 1171 2130 1191Z" style="fill:#a6a6a6;stroke:none" transform="scale(1,-1) translate(0,-256)" /></svg>