<?xml version="1.0" encoding="utf-8" ?>
<svg baseProfile="full" height="256" version="1.1" width="256" xmlns="http://www.w3.org/2000/svg" xmlns:ev="http://www.w3.org/2001/xml-events" xmlns:xlink="http://www.w3.org/1999/xlink"><defs /><path d="M2197 1653Q2226 1653 2247.0 1631.5Q2268 1610 2268 1581Q2268 1552 2247.0 1531.0Q2226 1510 2197 1510Q2168 1510 2146.5 1531.0Q2125 1552 2125 1581Q2125 1611 2146.0 1632.0Q2167 1653 2197 1653ZM615 1653Q645 1653 666.0 1632.0Q687 1611 687 1581Q687 1552 665.5 1531.0Q644 1510 615 1510Q586 1510 564.5 1531.0Q543 1552 543 1581Q543 1610 564.5 1631.5Q586 1653 615 1653Z" style="fill:#e81224;stroke:none" transform="scale(1,-1) translate(0,-256)" /></svg>