<?xml version="1.0" encoding="utf-8" ?>
<svg baseProfile="full" height="256" version="1.1" width="256" xmlns="http://www.w3.org/2000/svg" xmlns:ev="http://www.w3.org/2001/xml-events" xmlns:xlink="http://www.w3.org/1999/xlink"><defs /><path d="M2340 1438H2412V1222Q2399 1190 2393.0 1155.5Q2387 1121 2387 1086Q2387 1059 2390.0 1031.5Q2393 1004 2400 978Q2402 970 2407.0 956.5Q2412 943 2412 935V647Q2412 640 2407.5 626.0Q2403 612 2401 604Q2379 538 2339.0 501.0Q2299 464 2234 441Q2228 439 2215.5 435.0Q2203 431 2197 431H1909Q1880 448 1847.5 455.5Q1815 463 1782 463Q1753 463 1723.5 458.0Q1694 453 1666 445Q1664 444 1657.0 442.0Q1650 440 1642.5 437.5Q1635 435 1629.0 433.0Q1623 431 1622 431H1334Q1264 465 1190 465Q1117 465 1047 431H759Q702 467 632 467Q590 467 550.0 457.0Q510 447 472 431H400V647Q400 656 405.0 669.0Q410 682 412 691Q427 748 427 809Q427 841 420.5 873.5Q414 906 400 935V1222Q400 1237 405.0 1250.5Q410 1264 414 1278L443 1391Q443 1391 447.0 1398.0Q451 1405 456.5 1413.0Q462 1421 466.5 1428.5Q471 1436 472 1438V1581Q472 1611 483.0 1637.0Q494 1663 513.5 1682.5Q533 1702 559.0 1713.5Q585 1725 615 1725Q645 1725 671.0 1713.5Q697 1702 716.5 1682.5Q736 1663 747.5 1637.0Q759 1611 759 1581V1438H903Q933 1421 966.5 1413.5Q1000 1406 1035 1406Q1075 1406 1114.0 1415.0Q1153 1424 1190 1438H1478Q1479 1438 1484.5 1436.0Q1490 1434 1497.5 1432.0Q1505 1430 1511.5 1428.0Q1518 1426 1520 1425Q1544 1418 1569.5 1415.0Q1595 1412 1621 1412Q1647 1412 1672.5 1415.0Q1698 1418 1723 1425Q1725 1426 1731.5 1428.0Q1738 1430 1745.5 1432.0Q1753 1434 1758.5 1436.0Q1764 1438 1765 1438H2053V1581Q2053 1611 2064.0 1637.0Q2075 1663 2094.5 1682.5Q2114 1702 2140.0 1713.5Q2166 1725 2196 1725Q2226 1725 2252.0 1713.5Q2278 1702 2297.5 1682.5Q2317 1663 2328.5 1637.0Q2340 1611 2340 1581Z" style="fill:#2b2b2b;stroke:none" transform="scale(1,-1) translate(0,-256)" /></svg>