<?xml version="1.0" encoding="utf-8" ?>
<svg baseProfile="full" height="256" version="1.1" width="256" xmlns="http://www.w3.org/2000/svg" xmlns:ev="http://www.w3.org/2001/xml-events" xmlns:xlink="http://www.w3.org/1999/xlink"><defs /><path d="M2197 1868Q2256 1868 2308.5 1845.5Q2361 1823 2400.0 1784.0Q2439 1745 2461.5 1692.5Q2484 1640 2484 1581H2556V288H2484V-431H1909V288H903V-431H328V288H256V1581H328Q328 1640 350.5 1692.5Q373 1745 412.0 1784.0Q451 1823 503.5 1845.5Q556 1868 615 1868Q675 1868 727.5 1845.5Q780 1823 819.0 1784.0Q858 1745 880.5 1693.0Q903 1641 903 1581H1909Q1909 1641 1931.5 1693.0Q1954 1745 1993.0 1784.0Q2032 1823 2084.5 1845.5Q2137 1868 2197 1868Z" style="fill:#000000;stroke:none" transform="scale(1,-1) translate(0,-256)" /></svg>