<?xml version="1.0" encoding="utf-8" ?>
<svg baseProfile="full" height="256" version="1.1" width="256" xmlns="http://www.w3.org/2000/svg" xmlns:ev="http://www.w3.org/2001/xml-events" xmlns:xlink="http://www.w3.org/1999/xlink"><defs /><path d="M2326 719 2507 559Q2530 539 2543.0 510.5Q2556 482 2556 451Q2556 398 2523.5 358.0Q2491 318 2440 307L2203 259L2279 30Q2287 6 2287 -17Q2287 -47 2275.5 -73.0Q2264 -99 2244.0 -119.0Q2224 -139 2198.0 -150.5Q2172 -162 2142 -162Q2119 -162 2095 -154L1866 -78L1818 -315Q1813 -341 1799.5 -362.0Q1786 -383 1766.5 -398.5Q1747 -414 1723.5 -422.5Q1700 -431 1674 -431Q1643 -431 1614.5 -418.0Q1586 -405 1566 -382L1406 -201L1246 -382Q1226 -405 1197.5 -418.0Q1169 -431 1138 -431Q1085 -431 1045.0 -398.5Q1005 -366 994 -315L946 -78L717 -154Q693 -162 670 -162Q640 -162 614.0 -150.5Q588 -139 568.0 -119.0Q548 -99 536.5 -73.0Q525 -47 525 -17Q525 6 533 30L609 259L372 307Q321 318 288.5 358.0Q256 398 256 451Q256 482 269.0 510.5Q282 539 305 559L486 719L305 879Q282 899 269.0 927.5Q256 956 256 987Q256 1040 288.5 1080.0Q321 1120 372 1131L609 1179L533 1408Q525 1432 525 1455Q525 1485 536.5 1511.0Q548 1537 568.0 1557.0Q588 1577 614.0 1588.5Q640 1600 670 1600Q693 1600 717 1592L946 1516L994 1753Q1005 1804 1045.0 1836.5Q1085 1869 1138 1869Q1169 1869 1197.5 1856.0Q1226 1843 1246 1820L1406 1639L1566 1820Q1586 1843 1614.5 1856.0Q1643 1869 1674 1869Q1700 1869 1723.5 1860.5Q1747 1852 1766.5 1836.5Q1786 1821 1799.5 1799.5Q1813 1778 1818 1753L1866 1516L2095 1592Q2119 1600 2142 1600Q2172 1600 2198.0 1588.5Q2224 1577 2244.0 1557.0Q2264 1537 2275.5 1511.0Q2287 1485 2287 1455Q2287 1432 2279 1408L2203 1179L2440 1131Q2491 1120 2523.5 1080.0Q2556 1040 2556 987Q2556 956 2543.0 927.5Q2530 899 2507 879Z" style="fill:#000000;stroke:none" transform="scale(1,-1) translate(0,-256)" /></svg>