<?xml version="1.0" encoding="utf-8" ?>
<svg baseProfile="full" height="256" version="1.1" width="256" xmlns="http://www.w3.org/2000/svg" xmlns:ev="http://www.w3.org/2001/xml-events" xmlns:xlink="http://www.w3.org/1999/xlink"><defs /><path d="M1982 493Q2052 408 2088.5 306.5Q2125 205 2125 95V-431H257V95Q257 204 293.5 305.5Q330 407 399 492V1078Q399 1187 427.5 1288.0Q456 1389 507.5 1477.0Q559 1565 631.0 1637.0Q703 1709 791.0 1760.5Q879 1812 980.0 1840.5Q1081 1869 1190 1869Q1299 1869 1400.0 1840.5Q1501 1812 1589.0 1760.5Q1677 1709 1749.5 1637.0Q1822 1565 1873.5 1477.0Q1925 1389 1953.5 1288.0Q1982 1187 1982 1078Z" style="fill:#000000;stroke:none" transform="scale(1,-1) translate(0,-256)" /></svg>