<?xml version="1.0" encoding="utf-8" ?>
<svg baseProfile="full" height="256" version="1.1" width="256" xmlns="http://www.w3.org/2000/svg" xmlns:ev="http://www.w3.org/2001/xml-events" xmlns:xlink="http://www.w3.org/1999/xlink"><defs /><path d="M1263 1294Q1291 1235 1336.5 1182.5Q1382 1130 1439.5 1091.0Q1497 1052 1562.0 1029.0Q1627 1006 1694 1006V936Q1694 832 1654.5 740.0Q1615 648 1546.5 579.5Q1478 511 1386.5 471.0Q1295 431 1191 431Q1087 431 995.0 471.0Q903 511 835.0 579.5Q767 648 727.5 740.0Q688 832 688 936V1007Q737 1007 782.0 1023.5Q827 1040 864.5 1068.5Q902 1097 930.5 1136.0Q959 1175 974 1221Q995 1179 1026.5 1151.5Q1058 1124 1096.0 1107.5Q1134 1091 1176.5 1084.5Q1219 1078 1263 1078Z" style="fill:#ffc83d;stroke:none" transform="scale(1,-1) translate(0,-256)" /></svg>