<?xml version="1.0" encoding="utf-8" ?>
<svg baseProfile="full" height="256" version="1.1" width="256" xmlns="http://www.w3.org/2000/svg" xmlns:ev="http://www.w3.org/2001/xml-events" xmlns:xlink="http://www.w3.org/1999/xlink"><defs /><path d="M975 1006Q1004 1006 1025.5 985.0Q1047 964 1047 935V863Q1047 833 1026.0 812.0Q1005 791 975 791Q946 791 925.0 812.5Q904 834 904 863V935Q904 964 925.0 985.0Q946 1006 975 1006ZM1407 1006Q1436 1006 1457.5 985.0Q1479 964 1479 935V863Q1479 834 1457.5 812.5Q1436 791 1407 791Q1377 791 1356.0 812.0Q1335 833 1335 863V935Q1335 964 1356.5 985.0Q1378 1006 1407 1006Z" style="fill:#000000;stroke:none" transform="scale(1,-1) translate(0,-256)" /></svg>