<?xml version="1.0" encoding="utf-8" ?>
<svg baseProfile="full" height="256" version="1.1" width="256" xmlns="http://www.w3.org/2000/svg" xmlns:ev="http://www.w3.org/2001/xml-events" xmlns:xlink="http://www.w3.org/1999/xlink"><defs /><path d="M1191 719Q1161 719 1140.0 740.0Q1119 761 1119 791H1263Q1263 761 1242.0 740.0Q1221 719 1191 719ZM1193 647Q1207 647 1231.0 641.5Q1255 636 1278.0 626.0Q1301 616 1317.5 601.5Q1334 587 1334 569Q1334 555 1324.0 545.0Q1314 535 1300 535Q1291 535 1282.0 542.0Q1273 549 1260.5 557.0Q1248 565 1231.5 572.0Q1215 579 1193 579Q1171 579 1155.0 572.0Q1139 565 1126.5 557.0Q1114 549 1104.5 542.0Q1095 535 1086 535Q1072 535 1062.0 545.0Q1052 555 1052 569Q1052 587 1068.5 601.5Q1085 616 1108.0 626.0Q1131 636 1155.0 641.5Q1179 647 1193 647Z" style="fill:#f7894a;stroke:none" transform="scale(1,-1) translate(0,-256)" /></svg>