<?xml version="1.0" encoding="utf-8" ?>
<svg baseProfile="full" height="256" version="1.1" width="256" xmlns="http://www.w3.org/2000/svg" xmlns:ev="http://www.w3.org/2001/xml-events" xmlns:xlink="http://www.w3.org/1999/xlink"><defs /><path d="M1765 395Q1765 380 1754.5 370.0Q1744 360 1729 360H1622V252Q1622 238 1611.0 227.0Q1600 216 1586 216Q1570 216 1560 226L1442 345L1324 226Q1314 216 1298 216Q1284 216 1273.0 227.0Q1262 238 1262 252V360H1154Q1140 360 1129.5 370.5Q1119 381 1119 395Q1119 402 1121.5 409.0Q1124 416 1129 421L1262 539L1129 658Q1119 668 1119 683Q1119 698 1129.0 708.5Q1139 719 1154 719H1262V827Q1262 841 1273.0 852.0Q1284 863 1298 863Q1313 863 1324 852L1406 770V1725H1478V770L1560 852Q1571 863 1586 863Q1600 863 1611.0 852.0Q1622 841 1622 827V719H1729Q1745 719 1755.0 709.0Q1765 699 1765 683Q1765 668 1755 658L1622 539L1755 421Q1760 416 1762.5 409.0Q1765 402 1765 395ZM1082 862Q1068 862 1057 873L841 1089Q831 1099 831 1115Q831 1130 841.5 1140.0Q852 1150 867 1150Q882 1150 892 1140L1108 924Q1118 914 1118 898Q1118 884 1107.0 873.0Q1096 862 1082 862ZM1082 215Q1096 215 1107.0 204.5Q1118 194 1118 180Q1118 164 1108 154L892 -61Q881 -72 867 -72Q852 -72 841.0 -61.5Q830 -51 830 -36Q830 -21 841 -10L1057 205Q1067 215 1082 215ZM1801 215Q1817 215 1827 205L2042 -10Q2052 -20 2052 -36Q2052 -50 2041.5 -61.0Q2031 -72 2017 -72Q2002 -72 1991 -61L1776 154Q1765 165 1765 180Q1765 194 1776.0 204.5Q1787 215 1801 215ZM1801 862Q1787 862 1776.0 873.0Q1765 884 1765 898Q1765 913 1776 924L1992 1140Q2002 1150 2017 1150Q2031 1150 2041.5 1139.0Q2052 1128 2052 1114Q2052 1099 2042 1089L1827 873Q1816 862 1801 862ZM975 539Q975 524 964.5 513.5Q954 503 939 503H651Q636 503 625.5 513.5Q615 524 615 539Q615 554 625.5 564.5Q636 575 651 575H939Q954 575 964.5 564.5Q975 554 975 539ZM1442 72Q1457 72 1467.5 61.5Q1478 51 1478 36V-251Q1478 -266 1467.5 -276.5Q1457 -287 1442 -287Q1427 -287 1416.5 -276.5Q1406 -266 1406 -251V36Q1406 51 1416.5 61.5Q1427 72 1442 72ZM2161 575Q2176 575 2186.5 564.5Q2197 554 2197 539Q2197 524 2186.5 513.5Q2176 503 2161 503H1945Q1930 503 1919.5 513.5Q1909 524 1909 539Q1909 554 1919.5 564.5Q1930 575 1945 575ZM2161 288Q2176 288 2186.5 277.5Q2197 267 2197 252Q2197 237 2186.5 226.5Q2176 216 2161 216Q2146 216 2135.5 226.5Q2125 237 2125 252Q2125 267 2135.5 277.5Q2146 288 2161 288ZM436 575Q451 575 461.5 564.5Q472 554 472 539Q472 524 461.5 513.5Q451 503 436 503Q421 503 410.5 513.5Q400 524 400 539Q400 554 410.5 564.5Q421 575 436 575ZM2376 575Q2391 575 2401.5 564.5Q2412 554 2412 539Q2412 524 2401.5 513.5Q2391 503 2376 503Q2361 503 2350.5 513.5Q2340 524 2340 539Q2340 554 2350.5 564.5Q2361 575 2376 575ZM2161 863Q2176 863 2186.5 852.5Q2197 842 2197 827Q2197 812 2186.5 801.5Q2176 791 2161 791Q2146 791 2135.5 801.5Q2125 812 2125 827Q2125 842 2135.5 852.5Q2146 863 2161 863ZM723 288Q738 288 748.5 277.5Q759 267 759 252Q759 237 748.5 226.5Q738 216 723 216Q708 216 697.5 226.5Q687 237 687 252Q687 267 697.5 277.5Q708 288 723 288ZM723 1222Q708 1222 697.5 1232.5Q687 1243 687 1258Q687 1273 697.5 1283.5Q708 1294 723 1294Q738 1294 748.5 1283.5Q759 1273 759 1258Q759 1243 748.5 1232.5Q738 1222 723 1222ZM2161 1294Q2176 1294 2186.5 1283.5Q2197 1273 2197 1258Q2197 1243 2186.5 1232.5Q2176 1222 2161 1222Q2146 1222 2135.5 1232.5Q2125 1243 2125 1258Q2125 1273 2135.5 1283.5Q2146 1294 2161 1294ZM723 791Q708 791 697.5 801.5Q687 812 687 827Q687 842 697.5 852.5Q708 863 723 863Q738 863 748.5 852.5Q759 842 759 827Q759 812 748.5 801.5Q738 791 723 791ZM1729 1150Q1715 1150 1704.0 1161.0Q1693 1172 1693 1186Q1693 1200 1704.0 1211.0Q1715 1222 1729 1222Q1744 1222 1754.5 1211.5Q1765 1201 1765 1186Q1765 1171 1754.5 1160.5Q1744 1150 1729 1150ZM1729 -143Q1743 -143 1754.0 -154.0Q1765 -165 1765 -179Q1765 -194 1754.5 -204.5Q1744 -215 1729 -215Q1714 -215 1703.5 -204.5Q1693 -194 1693 -179Q1693 -165 1704.0 -154.0Q1715 -143 1729 -143ZM1154 1150Q1140 1150 1129.0 1161.0Q1118 1172 1118 1186Q1118 1200 1129.0 1211.0Q1140 1222 1154 1222Q1169 1222 1179.5 1211.5Q1190 1201 1190 1186Q1190 1171 1179.5 1160.5Q1169 1150 1154 1150ZM1154 -143Q1168 -143 1179.0 -154.0Q1190 -165 1190 -179Q1190 -194 1179.5 -204.5Q1169 -215 1154 -215Q1140 -215 1129.0 -204.0Q1118 -193 1118 -179Q1118 -165 1129.0 -154.0Q1140 -143 1154 -143ZM2161 -144Q2175 -144 2186.0 -154.5Q2197 -165 2197 -179Q2197 -194 2186.5 -204.5Q2176 -215 2161 -215Q2146 -215 2135.5 -204.5Q2125 -194 2125 -179Q2125 -165 2136.0 -154.5Q2147 -144 2161 -144ZM723 -144Q737 -144 748.0 -154.5Q759 -165 759 -179Q759 -194 748.5 -204.5Q738 -215 723 -215Q708 -215 697.5 -204.5Q687 -194 687 -179Q687 -165 698.0 -154.5Q709 -144 723 -144Z" style="fill:#fff100;stroke:none" transform="scale(1,-1) translate(0,-256)" /></svg>