<?xml version="1.0" encoding="utf-8" ?>
<svg baseProfile="full" height="256" version="1.1" width="256" xmlns="http://www.w3.org/2000/svg" xmlns:ev="http://www.w3.org/2001/xml-events" xmlns:xlink="http://www.w3.org/1999/xlink"><defs /><path d="M256 539Q256 575 269.0 606.5Q282 638 305.0 662.0Q328 686 358.5 701.0Q389 716 425 718Q442 719 458.5 719.5Q475 720 492 720Q515 720 536.5 719.5Q558 719 581 719Q563 742 553.0 770.0Q543 798 543 827Q543 864 557.0 896.5Q571 929 595.0 953.5Q619 978 651.5 992.0Q684 1006 721 1006L605 1122Q578 1149 560.5 1184.0Q543 1219 543 1258Q543 1295 557.0 1328.0Q571 1361 595.5 1385.5Q620 1410 652.5 1424.0Q685 1438 723 1438Q762 1438 797.5 1421.0Q833 1404 859 1375L987 1249Q1007 1303 1052.0 1334.5Q1097 1366 1154 1366Q1214 1366 1262 1329V1869H1622V1329Q1645 1346 1672.5 1356.0Q1700 1366 1729 1366Q1786 1366 1831.5 1334.5Q1877 1303 1897 1249L2034 1386Q2059 1411 2092.5 1424.5Q2126 1438 2161 1438Q2198 1438 2230.5 1424.0Q2263 1410 2287.5 1385.5Q2312 1361 2326.0 1328.0Q2340 1295 2340 1258Q2340 1223 2326.5 1190.0Q2313 1157 2288 1132L2163 1006Q2200 1006 2232.5 992.0Q2265 978 2289.0 953.5Q2313 929 2326.5 896.5Q2340 864 2340 827Q2340 767 2303 719H2376Q2413 719 2446.0 705.0Q2479 691 2503.5 666.5Q2528 642 2542.0 609.0Q2556 576 2556 539Q2556 502 2542.0 469.5Q2528 437 2503.5 412.5Q2479 388 2446.0 374.0Q2413 360 2376 360H2303Q2340 312 2340 252Q2340 215 2326.0 182.5Q2312 150 2288.0 126.0Q2264 102 2232.0 87.5Q2200 73 2163 72L2288 -53Q2313 -78 2326.5 -111.0Q2340 -144 2340 -179Q2340 -216 2326.0 -249.0Q2312 -282 2287.5 -306.5Q2263 -331 2230.5 -345.0Q2198 -359 2161 -359Q2126 -359 2093.0 -345.5Q2060 -332 2035 -307L1909 -182Q1909 -219 1894.5 -251.5Q1880 -284 1855.5 -308.0Q1831 -332 1798.5 -345.5Q1766 -359 1729 -359Q1696 -359 1665.5 -347.0Q1635 -335 1610 -313Q1590 -367 1544.5 -399.0Q1499 -431 1442 -431Q1385 -431 1339.5 -399.0Q1294 -367 1274 -313Q1249 -335 1218.0 -347.0Q1187 -359 1154 -359Q1117 -359 1084.5 -345.5Q1052 -332 1027.5 -308.0Q1003 -284 989.0 -251.5Q975 -219 975 -182L849 -307Q824 -332 791.0 -345.5Q758 -359 723 -359Q685 -359 652.5 -345.0Q620 -331 595.5 -306.5Q571 -282 557.0 -249.5Q543 -217 543 -179Q543 -144 556.5 -111.0Q570 -78 595 -53L721 72Q684 73 651.5 87.5Q619 102 595.0 126.0Q571 150 557.0 182.5Q543 215 543 252Q543 281 553.0 309.0Q563 337 581 360Q558 360 536.5 359.5Q515 359 492 359Q475 359 458.5 359.5Q442 360 425 361Q390 363 359.5 378.0Q329 393 306.0 417.0Q283 441 269.5 472.5Q256 504 256 539Z" style="fill:#000000;stroke:none" transform="scale(1,-1) translate(0,-256)" /></svg>