<?xml version="1.0" encoding="utf-8" ?>
<svg baseProfile="full" height="256" version="1.1" width="256" xmlns="http://www.w3.org/2000/svg" xmlns:ev="http://www.w3.org/2001/xml-events" xmlns:xlink="http://www.w3.org/1999/xlink"><defs /><path d="M1334 539Q1334 561 1342.5 581.0Q1351 601 1365.5 615.5Q1380 630 1399.5 638.5Q1419 647 1442 647Q1464 647 1483.5 638.5Q1503 630 1518.0 615.0Q1533 600 1541.5 580.5Q1550 561 1550 539Q1550 517 1541.5 497.5Q1533 478 1518.0 463.0Q1503 448 1483.5 439.5Q1464 431 1442 431Q1420 431 1400.5 439.5Q1381 448 1366.0 463.0Q1351 478 1342.5 497.5Q1334 517 1334 539Z" style="fill:#ffffff;stroke:none" transform="scale(1,-1) translate(0,-256)" /></svg>