<?xml version="1.0" encoding="utf-8" ?>
<svg baseProfile="full" height="256" version="1.1" width="256" xmlns="http://www.w3.org/2000/svg" xmlns:ev="http://www.w3.org/2001/xml-events" xmlns:xlink="http://www.w3.org/1999/xlink"><defs /><path d="M975 253Q975 273 983.5 286.5Q992 300 1007 312Q1044 342 1093.5 364.5Q1143 387 1197.0 401.5Q1251 416 1305.0 423.5Q1359 431 1406 431Q1452 431 1506.5 423.5Q1561 416 1615.0 401.5Q1669 387 1718.5 364.5Q1768 342 1805 312Q1820 300 1828.5 286.5Q1837 273 1837 253Q1837 224 1815.5 202.5Q1794 181 1765 181Q1754 181 1744.5 184.5Q1735 188 1725 193Q1683 215 1646.0 232.5Q1609 250 1572.0 262.5Q1535 275 1495.0 281.5Q1455 288 1406 288Q1357 288 1317.0 281.5Q1277 275 1240.0 263.0Q1203 251 1166.0 233.0Q1129 215 1087 193Q1076 188 1067.5 184.5Q1059 181 1047 181Q1018 181 996.5 202.5Q975 224 975 253ZM1981 935H2053V899Q2053 847 2033.0 801.0Q2013 755 1979.0 721.0Q1945 687 1899.0 667.0Q1853 647 1801 647Q1749 647 1703.0 667.0Q1657 687 1623.0 721.0Q1589 755 1569.5 801.0Q1550 847 1550 899V935H1622Q1622 897 1636.0 864.5Q1650 832 1674.0 807.5Q1698 783 1730.5 769.0Q1763 755 1801 755Q1838 755 1871.0 769.0Q1904 783 1928.5 807.5Q1953 832 1967.0 864.5Q1981 897 1981 935ZM1262 899Q1262 847 1242.5 801.0Q1223 755 1189.0 721.0Q1155 687 1109.0 667.0Q1063 647 1011 647Q959 647 913.0 667.0Q867 687 833.0 721.0Q799 755 779.0 801.0Q759 847 759 899V935H831Q831 897 845.0 864.5Q859 832 883.5 807.5Q908 783 940.5 769.0Q973 755 1011 755Q1048 755 1081.0 769.0Q1114 783 1138.0 807.5Q1162 832 1176.0 864.5Q1190 897 1190 935H1262Z" style="fill:#000000;stroke:none" transform="scale(1,-1) translate(0,-256)" /></svg>