<?xml version="1.0" encoding="utf-8" ?>
<svg baseProfile="full" height="256" version="1.1" width="256" xmlns="http://www.w3.org/2000/svg" xmlns:ev="http://www.w3.org/2001/xml-events" xmlns:xlink="http://www.w3.org/1999/xlink"><defs /><path d="M1837 1438Q1867 1438 1888.0 1417.0Q1909 1396 1909 1366Q1909 1336 1888 1315L1601 1028Q1579 1006 1550 1006Q1521 1006 1499.5 1027.5Q1478 1049 1478 1078Q1478 1108 1499 1129L1786 1417Q1807 1438 1837 1438ZM975 1438Q1005 1438 1026 1417L1313 1129Q1334 1108 1334 1078Q1334 1049 1312.5 1027.5Q1291 1006 1262 1006Q1233 1006 1211 1028L924 1315Q903 1336 903 1366Q903 1396 924.0 1417.0Q945 1438 975 1438Z" style="fill:#d48c00;stroke:none" transform="scale(1,-1) translate(0,-256)" /></svg>