<?xml version="1.0" encoding="utf-8" ?>
<svg baseProfile="full" height="256" version="1.1" width="256" xmlns="http://www.w3.org/2000/svg" xmlns:ev="http://www.w3.org/2001/xml-events" xmlns:xlink="http://www.w3.org/1999/xlink"><defs /><path d="M2089 180Q2126 180 2158.5 166.0Q2191 152 2215.5 127.5Q2240 103 2254.0 70.0Q2268 37 2268 0Q2268 -30 2258.5 -57.5Q2249 -85 2232.0 -108.0Q2215 -131 2191.0 -147.5Q2167 -164 2138 -172Q2096 -226 2037.0 -256.5Q1978 -287 1909 -287Q1849 -287 1797.0 -264.5Q1745 -242 1706.0 -203.0Q1667 -164 1644.5 -112.0Q1622 -60 1622 0V575L1850 347Q1864 354 1879.0 357.0Q1894 360 1909 360Q1939 360 1965.0 348.5Q1991 337 2010.5 317.5Q2030 298 2041.5 272.0Q2053 246 2053 216Q2053 205 2051.0 195.0Q2049 185 2046 174Q2067 180 2089 180ZM903 360Q918 360 933.0 357.0Q948 354 962 347L1190 575V0Q1190 -60 1167.5 -112.0Q1145 -164 1106.0 -203.0Q1067 -242 1015.0 -264.5Q963 -287 903 -287Q834 -287 775.0 -256.5Q716 -226 674 -172Q645 -164 621.0 -147.5Q597 -131 580.0 -108.0Q563 -85 553.0 -57.5Q543 -30 543 0Q543 37 557.0 70.0Q571 103 595.5 127.5Q620 152 652.5 166.0Q685 180 723 180Q745 180 766 174Q763 185 761.0 195.0Q759 205 759 216Q759 246 770.5 272.0Q782 298 801.5 317.5Q821 337 847.0 348.5Q873 360 903 360Z" style="fill:#ffffff;stroke:none" transform="scale(1,-1) translate(0,-256)" /></svg>