<?xml version="1.0" encoding="utf-8" ?>
<svg baseProfile="full" height="256" version="1.1" width="256" xmlns="http://www.w3.org/2000/svg" xmlns:ev="http://www.w3.org/2001/xml-events" xmlns:xlink="http://www.w3.org/1999/xlink"><defs /><path d="M2070 330 2556 -156V-431H2209L2137 -359H675L603 -431H256V-156L742 330Q714 387 700.5 449.5Q687 512 687 575V1294Q687 1363 707.5 1426.5Q728 1490 766.0 1543.5Q804 1597 857.0 1637.5Q910 1678 975 1701V1797H1190V1869H1622V1797H1837V1701Q1896 1676 1948.5 1634.0Q2001 1592 2040.0 1538.5Q2079 1485 2102.0 1422.5Q2125 1360 2125 1294V575Q2125 512 2111.5 449.5Q2098 387 2070 330Z" style="fill:#000000;stroke:none" transform="scale(1,-1) translate(0,-256)" /></svg>