<?xml version="1.0" encoding="utf-8" ?>
<svg baseProfile="full" height="256" version="1.1" width="256" xmlns="http://www.w3.org/2000/svg" xmlns:ev="http://www.w3.org/2001/xml-events" xmlns:xlink="http://www.w3.org/1999/xlink"><defs /><path d="M974 1294Q1014 1314 1066.0 1327.5Q1118 1341 1174.0 1349.0Q1230 1357 1284.5 1360.5Q1339 1364 1384 1364Q1437 1364 1496.0 1360.0Q1555 1356 1614.0 1348.0Q1673 1340 1730.0 1326.5Q1787 1313 1837 1294V1150Q1837 1061 1803.0 982.5Q1769 904 1710.5 845.5Q1652 787 1573.5 753.0Q1495 719 1406 719Q1317 719 1238.5 753.0Q1160 787 1101.0 845.5Q1042 904 1008.0 982.5Q974 1061 974 1150Z" style="fill:#31d2f7;stroke:none" transform="scale(1,-1) translate(0,-256)" /></svg>