<?xml version="1.0" encoding="utf-8" ?>
<svg baseProfile="full" height="256" version="1.1" width="256" xmlns="http://www.w3.org/2000/svg" xmlns:ev="http://www.w3.org/2001/xml-events" xmlns:xlink="http://www.w3.org/1999/xlink"><defs /><path d="M2408 955Q2436 934 2462.5 915.0Q2489 896 2510.0 873.5Q2531 851 2543.5 822.5Q2556 794 2556 755Q2556 723 2545.0 694.0Q2534 665 2515.0 641.5Q2496 618 2469.5 601.5Q2443 585 2412 579V-275L2256 -431H1406V-287Q1406 -244 1419.0 -202.5Q1432 -161 1456.0 -126.0Q1480 -91 1513.5 -63.5Q1547 -36 1588 -20L1693 243V293Q1676 290 1658.0 289.0Q1640 288 1622 288H1334V-275L1178 -431H759V-287Q759 -209 797.5 -143.0Q836 -77 903 -38V305L724 506Q672 564 643.5 638.5Q615 713 615 791V1222H256V1438Q256 1512 284.5 1577.5Q313 1643 361.5 1691.5Q410 1740 475.5 1768.5Q541 1797 615 1797H786Q812 1821 840.0 1835.5Q868 1850 897.0 1857.5Q926 1865 956.5 1867.5Q987 1870 1019 1870Q1043 1870 1068.0 1869.5Q1093 1869 1118 1869V1652Q1182 1566 1190 1459Q1236 1517 1302.0 1549.0Q1368 1581 1442 1581Q1515 1581 1581.5 1549.5Q1648 1518 1694 1461Q1739 1518 1806.0 1549.5Q1873 1581 1945 1581Q1994 1581 2039.0 1567.5Q2084 1554 2122.0 1528.5Q2160 1503 2190.5 1467.5Q2221 1432 2241 1388Q2279 1304 2313.5 1219.5Q2348 1135 2382 1050Q2391 1027 2397.5 1003.5Q2404 980 2408 955Z" style="fill:#000000;stroke:none" transform="scale(1,-1) translate(0,-256)" /></svg>