<?xml version="1.0" encoding="utf-8" ?>
<svg baseProfile="full" height="256" version="1.1" width="256" xmlns="http://www.w3.org/2000/svg" xmlns:ev="http://www.w3.org/2001/xml-events" xmlns:xlink="http://www.w3.org/1999/xlink"><defs /><path d="M2412 755Q2412 740 2401.5 729.5Q2391 719 2376 719H2268V-215L2197 -287H1981Q1981 -257 1992.5 -231.0Q2004 -205 2023.5 -185.5Q2043 -166 2069.0 -155.0Q2095 -144 2125 -144V216L1909 575Q1858 506 1782.5 468.5Q1707 431 1622 431H1190V-215L1118 -287H903Q903 -257 914.5 -231.0Q926 -205 945.5 -185.5Q965 -166 991.0 -155.0Q1017 -144 1047 -144V360L832 601Q797 640 778.0 689.0Q759 738 759 791V1222Q759 1252 747.5 1278.0Q736 1304 716.5 1323.5Q697 1343 671.0 1354.5Q645 1366 615 1366H511L603 1446Q615 1456 615 1473Q615 1488 604.5 1498.5Q594 1509 579 1509Q566 1509 556 1500L400 1366V1438Q400 1483 417.0 1522.0Q434 1561 463.0 1590.0Q492 1619 531.0 1636.0Q570 1653 615 1653H851Q871 1685 904.0 1705.0Q937 1725 975 1725V1597Q1009 1567 1028.0 1525.0Q1047 1483 1047 1438V1006Q1047 992 1058.0 981.5Q1069 971 1083 971Q1091 971 1098.5 974.0Q1106 977 1110 985L1282 1339Q1304 1384 1347.5 1411.0Q1391 1438 1442 1438Q1468 1438 1493.0 1430.0Q1518 1422 1539.5 1408.0Q1561 1394 1578.5 1374.0Q1596 1354 1606 1330L1666 1188Q1669 1185 1671.5 1180.0Q1674 1175 1676.5 1170.5Q1679 1166 1682.5 1163.0Q1686 1160 1693 1160Q1704 1160 1710.5 1170.0Q1717 1180 1721 1188L1781 1330Q1802 1379 1847.0 1408.5Q1892 1438 1945 1438Q1971 1438 1996.0 1430.0Q2021 1422 2043.0 1408.0Q2065 1394 2082.0 1374.0Q2099 1354 2109 1330L2249 995Q2262 965 2265.0 938.5Q2268 912 2268 880L2397 784Q2412 772 2412 755Z" style="fill:#f7894a;stroke:none" transform="scale(1,-1) translate(0,-256)" /></svg>