<?xml version="1.0" encoding="utf-8" ?>
<svg baseProfile="full" height="256" version="1.1" width="256" xmlns="http://www.w3.org/2000/svg" xmlns:ev="http://www.w3.org/2001/xml-events" xmlns:xlink="http://www.w3.org/1999/xlink"><defs /><path d="M2053 -144Q2082 -144 2103.5 -165.0Q2125 -186 2125 -215V-287H1190L1160 -250L1190 -215Q1190 -186 1211.5 -165.0Q1233 -144 1262 -144H1981V-72Q2011 -72 2032.0 -93.0Q2053 -114 2053 -144ZM759 -215 799 -251 759 -287H400V-215Q400 -186 421.5 -165.0Q443 -144 472 -144Q472 -115 493.0 -93.5Q514 -72 543 -72V-144H687Q716 -144 737.5 -165.0Q759 -186 759 -215Z" style="fill:#16c60c;stroke:none" transform="scale(1,-1) translate(0,-256)" /></svg>