<?xml version="1.0" encoding="utf-8" ?>
<svg baseProfile="full" height="256" version="1.1" width="256" xmlns="http://www.w3.org/2000/svg" xmlns:ev="http://www.w3.org/2001/xml-events" xmlns:xlink="http://www.w3.org/1999/xlink"><defs /><path d="M543 851 1262 1570 1981 851V-72Q1981 -75 1986.5 -95.5Q1992 -116 1999.0 -140.5Q2006 -165 2012.5 -187.0Q2019 -209 2021 -216Q2014 -218 1991.5 -224.5Q1969 -231 1944.0 -238.0Q1919 -245 1898.5 -250.5Q1878 -256 1875 -256H655Q651 -256 628.0 -250.5Q605 -245 577.0 -238.0Q549 -231 524.5 -224.0Q500 -217 493 -215Q495 -209 503.0 -186.0Q511 -163 520.0 -138.0Q529 -113 536.0 -93.0Q543 -73 543 -72Z" style="fill:#f2f2f2;stroke:none" transform="scale(1,-1) translate(0,-256)" /></svg>