<?xml version="1.0" encoding="utf-8" ?>
<svg baseProfile="full" height="256" version="1.1" width="256" xmlns="http://www.w3.org/2000/svg" xmlns:ev="http://www.w3.org/2001/xml-events" xmlns:xlink="http://www.w3.org/1999/xlink"><defs /><path d="M759 883Q745 883 732.0 889.0Q719 895 709.0 905.0Q699 915 693.0 928.0Q687 941 687 956Q687 980 705 1003Q748 1055 804.0 1096.0Q860 1137 923.5 1165.0Q987 1193 1054.5 1207.5Q1122 1222 1190 1222Q1220 1222 1241.0 1201.0Q1262 1180 1262 1150Q1262 1121 1240.5 1099.5Q1219 1078 1190 1078Q1075 1078 983.5 1033.5Q892 989 813 908Q802 896 789.0 889.5Q776 883 759 883ZM1550 1150Q1550 1180 1571.0 1201.0Q1592 1222 1622 1222Q1689 1222 1757.0 1207.5Q1825 1193 1888.5 1165.0Q1952 1137 2007.5 1096.0Q2063 1055 2107 1003Q2125 980 2125 956Q2125 941 2119.0 928.0Q2113 915 2103.0 905.0Q2093 895 2080.0 889.0Q2067 883 2053 883Q2036 883 2023.0 889.5Q2010 896 1999 908Q1920 989 1828.5 1033.5Q1737 1078 1622 1078Q1593 1078 1571.5 1099.5Q1550 1121 1550 1150Z" style="fill:#d48c00;stroke:none" transform="scale(1,-1) translate(0,-256)" /></svg>