<?xml version="1.0" encoding="utf-8" ?>
<svg baseProfile="full" height="256" version="1.1" width="256" xmlns="http://www.w3.org/2000/svg" xmlns:ev="http://www.w3.org/2001/xml-events" xmlns:xlink="http://www.w3.org/1999/xlink"><defs /><path d="M1727 72Q1696 72 1674 96Q1617 153 1552.5 184.5Q1488 216 1406 216Q1324 216 1259.5 184.5Q1195 153 1138 96Q1116 72 1084 72Q1070 72 1057.0 78.0Q1044 84 1034.0 94.0Q1024 104 1018.0 117.0Q1012 130 1012 145Q1012 170 1031 192Q1065 232 1108.5 263.0Q1152 294 1200.5 315.5Q1249 337 1301.0 348.5Q1353 360 1406 360Q1458 360 1510.5 348.5Q1563 337 1611.5 315.5Q1660 294 1703.0 263.0Q1746 232 1781 192Q1800 170 1800 145Q1800 115 1778.0 93.5Q1756 72 1727 72ZM1011 863Q1033 863 1053.0 854.5Q1073 846 1087.0 831.0Q1101 816 1109.5 796.5Q1118 777 1118 755V611Q1118 589 1109.5 569.5Q1101 550 1086.5 535.0Q1072 520 1052.5 511.5Q1033 503 1011 503Q989 503 969.5 511.5Q950 520 935.0 535.0Q920 550 911.5 569.5Q903 589 903 611V755Q903 777 911.5 797.0Q920 817 934.5 831.5Q949 846 968.5 854.5Q988 863 1011 863ZM1801 863Q1823 863 1843.0 854.5Q1863 846 1877.5 831.5Q1892 817 1900.5 797.0Q1909 777 1909 755V611Q1909 589 1900.5 569.5Q1892 550 1877.0 535.0Q1862 520 1842.5 511.5Q1823 503 1801 503Q1779 503 1759.5 511.5Q1740 520 1725.0 535.0Q1710 550 1701.5 569.5Q1693 589 1693 611V755Q1693 777 1701.5 796.5Q1710 816 1725.0 831.0Q1740 846 1759.5 854.5Q1779 863 1801 863Z" style="fill:#000000;stroke:none" transform="scale(1,-1) translate(0,-256)" /></svg>