<?xml version="1.0" encoding="utf-8" ?>
<svg baseProfile="full" height="256" version="1.1" width="256" xmlns="http://www.w3.org/2000/svg" xmlns:ev="http://www.w3.org/2001/xml-events" xmlns:xlink="http://www.w3.org/1999/xlink"><defs /><path d="M2340 -17V-339Q2340 -358 2333.0 -375.0Q2326 -392 2313.5 -404.5Q2301 -417 2284.0 -424.0Q2267 -431 2248 -431Q2230 -431 2212.5 -424.0Q2195 -417 2182 -404L1334 444L486 -404Q473 -417 455.5 -424.0Q438 -431 420 -431Q401 -431 384.0 -424.0Q367 -417 354.5 -404.5Q342 -392 335.0 -375.0Q328 -358 328 -339V-17Q328 55 355.0 120.5Q382 186 433 237L987 791L896 882Q830 863 757 863Q676 863 595.5 895.0Q515 927 448.0 981.0Q381 1035 332.5 1106.5Q284 1178 267 1258Q261 1284 258.5 1311.5Q256 1339 256 1366Q256 1470 295.5 1561.5Q335 1653 403.5 1721.5Q472 1790 563.5 1829.5Q655 1869 759 1869Q863 1869 954.5 1829.5Q1046 1790 1114.5 1721.5Q1183 1653 1222.5 1561.0Q1262 1469 1262 1365Q1262 1295 1244 1229L1334 1138L1425 1229Q1406 1295 1406 1367Q1406 1471 1445.5 1562.5Q1485 1654 1553.5 1722.0Q1622 1790 1713.5 1829.5Q1805 1869 1909 1869Q2013 1869 2104.5 1829.5Q2196 1790 2264.5 1721.5Q2333 1653 2372.5 1561.5Q2412 1470 2412 1366Q2412 1339 2409.5 1311.5Q2407 1284 2401 1258Q2384 1178 2335.5 1106.0Q2287 1034 2220.0 980.0Q2153 926 2072.5 894.5Q1992 863 1911 863Q1838 863 1772 882L1681 791L2235 237Q2286 186 2313.0 120.5Q2340 55 2340 -17Z" style="fill:#000000;stroke:none" transform="scale(1,-1) translate(0,-256)" /></svg>