<?xml version="1.0" encoding="utf-8" ?>
<svg baseProfile="full" height="256" version="1.1" width="256" xmlns="http://www.w3.org/2000/svg" xmlns:ev="http://www.w3.org/2001/xml-events" xmlns:xlink="http://www.w3.org/1999/xlink"><defs /><path d="M1909 1725Q1983 1725 2048.5 1696.5Q2114 1668 2162.5 1619.5Q2211 1571 2239.5 1505.5Q2268 1440 2268 1366Q2268 1291 2240.0 1226.0Q2212 1161 2163.0 1112.0Q2114 1063 2049.0 1035.0Q1984 1007 1909 1007Q1864 1007 1820.0 1017.5Q1776 1028 1737 1050L1622 935L1478 1078L1593 1194Q1550 1275 1550 1366Q1550 1440 1578.0 1505.5Q1606 1571 1655.0 1619.5Q1704 1668 1769.5 1696.5Q1835 1725 1909 1725ZM1190 1078 1047 935 931 1050Q892 1028 848.0 1017.5Q804 1007 759 1007Q685 1007 619.5 1035.0Q554 1063 505.0 1112.0Q456 1161 428.0 1226.5Q400 1292 400 1366Q400 1440 428.0 1505.5Q456 1571 505.0 1619.5Q554 1668 619.5 1696.5Q685 1725 759 1725Q833 1725 898.5 1696.5Q964 1668 1012.5 1619.5Q1061 1571 1089.5 1505.5Q1118 1440 1118 1366Q1118 1321 1107.5 1277.0Q1097 1233 1075 1194ZM543 1366Q543 1321 560.0 1282.0Q577 1243 606.5 1213.5Q636 1184 675.0 1167.0Q714 1150 759 1150Q804 1150 843.0 1167.0Q882 1184 911.5 1213.5Q941 1243 958.0 1282.0Q975 1321 975 1366Q975 1411 958.0 1450.0Q941 1489 911.5 1518.0Q882 1547 843.0 1564.0Q804 1581 759 1581Q714 1581 675.0 1564.0Q636 1547 606.5 1518.0Q577 1489 560.0 1450.0Q543 1411 543 1366ZM1909 1150Q1954 1150 1993.0 1167.0Q2032 1184 2061.5 1213.5Q2091 1243 2108.0 1282.0Q2125 1321 2125 1366Q2125 1411 2108.0 1450.0Q2091 1489 2061.5 1518.0Q2032 1547 1993.0 1564.0Q1954 1581 1909 1581Q1864 1581 1825.0 1564.0Q1786 1547 1756.5 1518.0Q1727 1489 1710.0 1450.0Q1693 1411 1693 1366Q1693 1321 1710.0 1282.0Q1727 1243 1756.5 1213.5Q1786 1184 1825.0 1167.0Q1864 1150 1909 1150Z" style="fill:#f03a17;stroke:none" transform="scale(1,-1) translate(0,-256)" /></svg>