<?xml version="1.0" encoding="utf-8" ?>
<svg baseProfile="full" height="256" version="1.1" width="256" xmlns="http://www.w3.org/2000/svg" xmlns:ev="http://www.w3.org/2001/xml-events" xmlns:xlink="http://www.w3.org/1999/xlink"><defs /><path d="M1406 -359Q1287 -359 1169.5 -346.5Q1052 -334 936 -306Q865 -289 787.5 -262.5Q710 -236 634.5 -198.5Q559 -161 490.5 -112.5Q422 -64 370.0 -3.5Q318 57 287.0 130.0Q256 203 256 288V431Q256 503 279.0 567.0Q302 631 341.5 685.5Q381 740 433.0 786.0Q485 832 544 868Q543 876 543.0 883.5Q543 891 543 899Q543 1010 585.5 1108.5Q628 1207 701.0 1280.0Q774 1353 872.5 1395.5Q971 1438 1082 1438Q1197 1438 1301.0 1392.0Q1405 1346 1482 1261Q1551 1312 1633.0 1339.0Q1715 1366 1801 1366Q1916 1366 2014.5 1322.5Q2113 1279 2185.5 1204.5Q2258 1130 2299.0 1030.0Q2340 930 2340 817Q2386 782 2425.5 739.5Q2465 697 2494.0 648.5Q2523 600 2539.5 545.5Q2556 491 2556 431Q2556 395 2555.5 359.5Q2555 324 2555 288Q2555 202 2524.0 129.5Q2493 57 2441.0 -3.5Q2389 -64 2320.5 -112.5Q2252 -161 2176.5 -198.5Q2101 -236 2023.0 -263.0Q1945 -290 1875 -307Q1760 -334 1642.5 -346.5Q1525 -359 1406 -359Z" style="fill:#000000;stroke:none" transform="scale(1,-1) translate(0,-256)" /></svg>