<?xml version="1.0" encoding="utf-8" ?>
<svg baseProfile="full" height="256" version="1.1" width="256" xmlns="http://www.w3.org/2000/svg" xmlns:ev="http://www.w3.org/2001/xml-events" xmlns:xlink="http://www.w3.org/1999/xlink"><defs /><path d="M903 1042Q903 1028 892.0 1017.0Q881 1006 867 1006Q853 1006 842.0 1017.0Q831 1028 831 1042Q831 1057 841.5 1067.5Q852 1078 867 1078Q881 1078 892.0 1067.0Q903 1056 903 1042ZM1046 1186Q1046 1171 1035.5 1160.5Q1025 1150 1010 1150Q996 1150 985.0 1161.0Q974 1172 974 1186Q974 1200 985.0 1211.0Q996 1222 1010 1222Q1025 1222 1035.5 1211.5Q1046 1201 1046 1186ZM1190 1114Q1190 1099 1179.5 1088.5Q1169 1078 1154 1078Q1139 1078 1128.5 1088.5Q1118 1099 1118 1114Q1118 1129 1128.5 1139.5Q1139 1150 1154 1150Q1169 1150 1179.5 1139.5Q1190 1129 1190 1114ZM1046 1042Q1046 1028 1035.0 1017.0Q1024 1006 1010 1006Q996 1006 985.0 1017.0Q974 1028 974 1042Q974 1056 985.0 1067.0Q996 1078 1010 1078Q1025 1078 1035.5 1067.5Q1046 1057 1046 1042ZM903 899Q903 884 892.5 873.5Q882 863 867 863Q852 863 841.5 873.5Q831 884 831 899Q831 913 842.0 924.0Q853 935 867 935Q881 935 892.0 924.0Q903 913 903 899ZM1621 971Q1621 956 1610.5 945.5Q1600 935 1585 935Q1571 935 1560.0 946.0Q1549 957 1549 971Q1549 985 1560.0 995.5Q1571 1006 1585 1006Q1599 1006 1610.0 995.5Q1621 985 1621 971ZM1765 1114Q1765 1099 1754.5 1088.5Q1744 1078 1729 1078Q1714 1078 1703.5 1088.5Q1693 1099 1693 1114Q1693 1129 1703.5 1139.5Q1714 1150 1729 1150Q1744 1150 1754.5 1139.5Q1765 1129 1765 1114ZM1909 1042Q1909 1028 1898.0 1017.0Q1887 1006 1873 1006Q1859 1006 1848.0 1017.0Q1837 1028 1837 1042Q1837 1057 1847.5 1067.5Q1858 1078 1873 1078Q1888 1078 1898.5 1067.5Q1909 1057 1909 1042ZM1765 971Q1765 956 1754.5 945.5Q1744 935 1729 935Q1714 935 1703.5 945.5Q1693 956 1693 971Q1693 985 1704.0 995.5Q1715 1006 1729 1006Q1743 1006 1754.0 995.5Q1765 985 1765 971ZM1190 755Q1190 740 1179.5 729.5Q1169 719 1154 719Q1139 719 1128.5 729.5Q1118 740 1118 755Q1118 770 1128.5 780.5Q1139 791 1154 791Q1169 791 1179.5 780.5Q1190 770 1190 755ZM1334 827Q1334 812 1323.5 801.5Q1313 791 1298 791Q1283 791 1272.5 801.5Q1262 812 1262 827Q1262 842 1272.5 852.5Q1283 863 1298 863Q1313 863 1323.5 852.5Q1334 842 1334 827ZM1478 755Q1478 741 1467.0 730.0Q1456 719 1442 719Q1427 719 1416.5 729.5Q1406 740 1406 755Q1406 770 1416.5 780.5Q1427 791 1442 791Q1456 791 1467.0 780.0Q1478 769 1478 755ZM1262 611Q1262 596 1251.5 585.5Q1241 575 1226 575Q1211 575 1200.5 585.5Q1190 596 1190 611Q1190 626 1200.5 636.5Q1211 647 1226 647Q1241 647 1251.5 636.5Q1262 626 1262 611ZM1118 539Q1118 524 1107.5 513.5Q1097 503 1082 503Q1067 503 1056.5 513.5Q1046 524 1046 539Q1046 554 1056.5 564.5Q1067 575 1082 575Q1097 575 1107.5 564.5Q1118 554 1118 539Z" style="fill:#bb9167;stroke:none" transform="scale(1,-1) translate(0,-256)" /></svg>