<?xml version="1.0" encoding="utf-8" ?>
<svg baseProfile="full" height="256" version="1.1" width="256" xmlns="http://www.w3.org/2000/svg" xmlns:ev="http://www.w3.org/2001/xml-events" xmlns:xlink="http://www.w3.org/1999/xlink"><defs /><path d="M2161 647Q2183 647 2203.0 638.5Q2223 630 2237.0 615.0Q2251 600 2259.5 580.5Q2268 561 2268 539Q2268 517 2259.5 497.5Q2251 478 2236.5 463.0Q2222 448 2202.5 439.5Q2183 431 2161 431H1990L2093 328Q2108 313 2116.0 293.0Q2124 273 2124 252Q2124 230 2115.5 210.5Q2107 191 2092.5 176.0Q2078 161 2058.5 152.5Q2039 144 2017 144Q1998 144 1983.5 149.0Q1969 154 1956.5 163.0Q1944 172 1933.0 183.5Q1922 195 1909 207V108Q1909 85 1900.5 65.5Q1892 46 1877.5 31.5Q1863 17 1843.0 8.5Q1823 0 1801 0Q1779 0 1759.5 8.5Q1740 17 1725.0 32.0Q1710 47 1701.5 66.5Q1693 86 1693 108Q1693 130 1684.5 149.5Q1676 169 1662.0 184.0Q1648 199 1628.0 207.5Q1608 216 1586 216Q1563 216 1543.5 207.5Q1524 199 1509.5 184.5Q1495 170 1486.5 150.0Q1478 130 1478 108V36Q1478 14 1469.5 -5.5Q1461 -25 1446.0 -40.0Q1431 -55 1411.5 -63.5Q1392 -72 1370 -72Q1348 -72 1328.5 -63.5Q1309 -55 1294.0 -40.0Q1279 -25 1270.5 -5.5Q1262 14 1262 36V144Q1262 174 1241.0 195.0Q1220 216 1190 216Q1161 216 1139.5 194.5Q1118 173 1118 144V108Q1118 86 1109.5 66.5Q1101 47 1087.0 32.0Q1073 17 1053.0 8.5Q1033 0 1011 0Q988 0 968.5 8.5Q949 17 934.5 31.5Q920 46 911.5 65.5Q903 85 903 108V207Q890 195 879.0 183.5Q868 172 855.5 163.0Q843 154 828.5 149.0Q814 144 795 144Q773 144 753.5 152.5Q734 161 719.0 176.0Q704 191 695.5 210.5Q687 230 687 252Q687 273 695.5 293.0Q704 313 719 328L822 431H723Q701 431 681.5 439.5Q662 448 647.0 463.0Q632 478 623.5 497.5Q615 517 615 539Q615 561 623.5 580.5Q632 600 647.0 615.0Q662 630 681.5 638.5Q701 647 723 647Z" style="fill:#13a10e;stroke:none" transform="scale(1,-1) translate(0,-256)" /></svg>