<?xml version="1.0" encoding="utf-8" ?>
<svg baseProfile="full" height="256" version="1.1" width="256" xmlns="http://www.w3.org/2000/svg" xmlns:ev="http://www.w3.org/2001/xml-events" xmlns:xlink="http://www.w3.org/1999/xlink"><defs /><path d="M1406 935Q1512 935 1615.5 924.0Q1719 913 1822 890Q1875 878 1939.0 858.0Q2003 838 2068.5 809.0Q2134 780 2196.0 742.5Q2258 705 2306.0 658.0Q2354 611 2383.0 554.5Q2412 498 2412 431Q2412 364 2383.0 307.5Q2354 251 2306.0 204.5Q2258 158 2196.0 120.0Q2134 82 2068.5 53.5Q2003 25 1939.0 5.0Q1875 -15 1822 -27Q1719 -50 1615.5 -61.0Q1512 -72 1406 -72Q1306 -72 1208.5 -62.5Q1111 -53 1014 -33Q960 -22 893.5 -2.0Q827 18 758.5 47.0Q690 76 625.5 113.5Q561 151 510.5 199.0Q460 247 429.5 305.0Q399 363 399 431Q399 500 429.5 558.0Q460 616 510.5 663.5Q561 711 625.5 749.0Q690 787 758.5 816.0Q827 845 893.5 864.5Q960 884 1014 896Q1111 916 1208.5 925.5Q1306 935 1406 935ZM1406 72Q1466 72 1536.0 77.0Q1606 82 1679.0 92.5Q1752 103 1825.5 120.5Q1899 138 1967.0 164.0Q2035 190 2095.0 224.5Q2155 259 2200 303Q2226 328 2247.0 361.0Q2268 394 2268 431Q2268 469 2247.0 501.5Q2226 534 2200 559Q2154 604 2094.5 638.5Q2035 673 1967.0 698.5Q1899 724 1825.5 742.0Q1752 760 1679.0 770.5Q1606 781 1536.0 786.0Q1466 791 1406 791Q1345 791 1274.5 786.0Q1204 781 1129.5 770.0Q1055 759 980.0 740.5Q905 722 836.0 695.5Q767 669 707.0 633.0Q647 597 603 551Q580 527 561.5 496.5Q543 466 543 431Q543 396 561.0 365.5Q579 335 602 311Q647 265 707.0 229.5Q767 194 836.0 167.5Q905 141 980.0 122.5Q1055 104 1129.5 93.0Q1204 82 1275.0 77.0Q1346 72 1406 72Z" style="fill:#ffc83d;stroke:none" transform="scale(1,-1) translate(0,-256)" /></svg>