<?xml version="1.0" encoding="utf-8" ?>
<svg baseProfile="full" height="256" version="1.1" width="256" xmlns="http://www.w3.org/2000/svg" xmlns:ev="http://www.w3.org/2001/xml-events" xmlns:xlink="http://www.w3.org/1999/xlink"><defs /><path d="M2412 288Q2412 219 2381.5 161.5Q2351 104 2300.5 56.0Q2250 8 2185.5 -29.5Q2121 -67 2053.0 -96.0Q1985 -125 1918.5 -144.5Q1852 -164 1798 -176Q1701 -196 1603.0 -205.5Q1505 -215 1406 -215Q1306 -215 1208.5 -205.5Q1111 -196 1014 -176Q960 -165 893.5 -145.0Q827 -125 759.0 -96.0Q691 -67 626.5 -29.5Q562 8 511.5 56.0Q461 104 430.5 162.0Q400 220 400 288V431Q409 450 424.5 471.5Q440 493 457.0 513.5Q474 534 492.5 553.0Q511 572 526 586Q612 665 713.5 719.5Q815 774 925.5 808.0Q1036 842 1151.5 856.5Q1267 871 1382 871Q1501 871 1619.5 855.5Q1738 840 1851.5 806.0Q1965 772 2070.5 718.0Q2176 664 2269 586Q2287 571 2307.0 552.5Q2327 534 2346.0 513.5Q2365 493 2382.5 472.0Q2400 451 2412 431Z" style="fill:#eba300;stroke:none" transform="scale(1,-1) translate(0,-256)" /></svg>