<?xml version="1.0" encoding="utf-8" ?>
<svg baseProfile="full" height="256" version="1.1" width="256" xmlns="http://www.w3.org/2000/svg" xmlns:ev="http://www.w3.org/2001/xml-events" xmlns:xlink="http://www.w3.org/1999/xlink"><defs /><path d="M1801 1222Q1853 1222 1903.5 1208.5Q1954 1195 1999 1169Q2024 1137 2051.0 1095.0Q2078 1053 2100.5 1006.5Q2123 960 2137.5 913.5Q2152 867 2152 827Q2152 769 2139.5 718.0Q2127 667 2100.5 626.5Q2074 586 2032.0 556.5Q1990 527 1931 512Q1900 504 1869.5 502.0Q1839 500 1807 498L1766 495Q1753 418 1722.5 355.5Q1692 293 1645.0 248.5Q1598 204 1533.5 179.5Q1469 155 1389 155Q1295 155 1203.0 179.5Q1111 204 1035 261Q1032 262 1025.0 268.0Q1018 274 1010.5 280.5Q1003 287 996.0 293.0Q989 299 988 302Q964 350 951.0 399.5Q938 449 938 503Q938 510 938.5 516.5Q939 523 939 530Q889 572 838.5 614.0Q788 656 740 700Q735 705 733.5 709.5Q732 714 729 720Q708 762 697.5 807.0Q687 852 687 899Q687 981 718.0 1053.0Q749 1125 802.5 1178.5Q856 1232 928.0 1263.0Q1000 1294 1082 1294Q1135 1294 1185.5 1280.5Q1236 1267 1281 1241L1458 1023Q1484 1069 1521.0 1106.0Q1558 1143 1602.5 1168.5Q1647 1194 1697.5 1208.0Q1748 1222 1801 1222Z" style="fill:#8e562e;stroke:none" transform="scale(1,-1) translate(0,-256)" /></svg>