<?xml version="1.0" encoding="utf-8" ?>
<svg baseProfile="full" height="256" version="1.1" width="256" xmlns="http://www.w3.org/2000/svg" xmlns:ev="http://www.w3.org/2001/xml-events" xmlns:xlink="http://www.w3.org/1999/xlink"><defs /><path d="M1458 1023Q1445 1002 1436.0 979.0Q1427 956 1420 932Q1394 935 1370 935Q1343 935 1318 932Q1326 959 1330.0 986.5Q1334 1014 1334 1042Q1334 1095 1320.5 1145.5Q1307 1196 1281 1241Q1344 1205 1389.5 1148.5Q1435 1092 1458 1023ZM1999 1169Q2045 1142 2081.5 1105.0Q2118 1068 2143.5 1024.0Q2169 980 2182.5 930.0Q2196 880 2196 827Q2196 743 2164.5 670.5Q2133 598 2078.5 545.0Q2024 492 1951.0 461.5Q1878 431 1795 431Q1782 353 1743.5 287.5Q1705 222 1648.0 174.0Q1591 126 1519.5 99.0Q1448 72 1370 72Q1310 72 1253.0 88.0Q1196 104 1146.5 134.0Q1097 164 1056.5 206.5Q1016 249 988 302Q1035 277 1086.0 264.5Q1137 252 1190 252Q1279 252 1357.5 286.0Q1436 320 1494.5 378.5Q1553 437 1587.0 515.5Q1621 594 1621 683Q1621 736 1608.5 787.0Q1596 838 1571 885Q1655 840 1712.5 765.5Q1770 691 1791 598Q1849 619 1897.5 656.5Q1946 694 1980.5 743.0Q2015 792 2034.0 850.0Q2053 908 2053 970Q2053 1023 2039.0 1073.5Q2025 1124 1999 1169ZM963 648Q944 591 939 530Q876 555 825.0 598.5Q774 642 740 700Q782 677 833.0 661.5Q884 646 934 646Q941 646 948.0 646.5Q955 647 963 648Z" style="fill:#613d30;stroke:none" transform="scale(1,-1) translate(0,-256)" /></svg>