<?xml version="1.0" encoding="utf-8" ?>
<svg baseProfile="full" height="256" version="1.1" width="256" xmlns="http://www.w3.org/2000/svg" xmlns:ev="http://www.w3.org/2001/xml-events" xmlns:xlink="http://www.w3.org/1999/xlink"><defs /><path d="M2161 287Q2181 279 2200.5 271.0Q2220 263 2238 252Q2254 215 2262 173L2121 -99L1858 -230L1765 -137L1734 -16L1693 -65L1406 222L1119 -65L1083 -36L1045 -139L954 -230L716 -89L550 173Q558 215 574 252L641 283Q635 294 629.0 304.0Q623 314 616 324Q655 378 712.5 414.0Q770 450 836 461Q853 464 869.5 464.0Q886 464 903 467Q1006 485 1106.5 509.0Q1207 533 1309 556H626Q623 555 616 555Q590 555 572.5 575.0Q555 595 555 621V1372L615 1526Q623 1521 630.5 1515.5Q638 1510 645 1503L977 1172L1007 1061L1044 1104L1334 814V562L1406 577L1478 562V814L1765 1102L1810 1068L1837 1174L2167 1503Q2174 1510 2181.5 1515.5Q2189 1521 2197 1526L2261 1504V601L2276 599Q2276 570 2254.5 549.5Q2233 529 2204 529H1609Q1684 515 1758.5 497.5Q1833 480 1909 467Q1926 464 1942.5 464.0Q1959 464 1976 461Q2042 450 2099.5 413.0Q2157 376 2197 323Q2189 312 2180.5 303.0Q2172 294 2161 287Z" style="fill:#f7630c;stroke:none" transform="scale(1,-1) translate(0,-256)" /></svg>