<?xml version="1.0" encoding="utf-8" ?>
<svg baseProfile="full" height="256" version="1.1" width="256" xmlns="http://www.w3.org/2000/svg" xmlns:ev="http://www.w3.org/2001/xml-events" xmlns:xlink="http://www.w3.org/1999/xlink"><defs /><path d="M1909 -395Q1820 -395 1757 -332L1549 -124L1537 -136Q1517 -145 1503.0 -153.0Q1489 -161 1475.0 -166.5Q1461 -172 1445.0 -175.5Q1429 -179 1406 -179Q1367 -179 1329.5 -165.0Q1292 -151 1263 -124L1055 -332Q992 -395 903 -395Q799 -395 707.5 -355.5Q616 -316 547.5 -247.5Q479 -179 439.5 -87.5Q400 4 400 108Q400 174 417.0 236.5Q434 299 467 356Q419 378 380.0 412.0Q341 446 313.5 488.5Q286 531 271.0 580.5Q256 630 256 683V1402Q256 1462 278.5 1514.0Q301 1566 340.0 1605.0Q379 1644 431.0 1666.5Q483 1689 543 1689Q600 1689 653.0 1667.0Q706 1645 746 1605L1325 1027Q1349 1037 1373.5 1039.5Q1398 1042 1424 1042Q1440 1042 1456.5 1037.0Q1473 1032 1487 1027L2065 1605Q2105 1645 2158.5 1667.0Q2212 1689 2269 1689Q2329 1689 2381.0 1666.5Q2433 1644 2472.0 1605.0Q2511 1566 2533.5 1514.0Q2556 1462 2556 1402V683Q2556 630 2541.0 580.5Q2526 531 2498.5 488.5Q2471 446 2432.0 412.0Q2393 378 2345 356Q2377 299 2394.5 236.5Q2412 174 2412 108Q2412 4 2372.5 -87.5Q2333 -179 2264.5 -247.5Q2196 -316 2104.5 -355.5Q2013 -395 1909 -395Z" style="fill:#000000;stroke:none" transform="scale(1,-1) translate(0,-256)" /></svg>