<?xml version="1.0" encoding="utf-8" ?>
<svg baseProfile="full" height="256" version="1.1" width="256" xmlns="http://www.w3.org/2000/svg" xmlns:ev="http://www.w3.org/2001/xml-events" xmlns:xlink="http://www.w3.org/1999/xlink"><defs /><path d="M2269 1546Q2299 1546 2325.0 1534.5Q2351 1523 2370.5 1503.5Q2390 1484 2401.0 1458.0Q2412 1432 2412 1402V683Q2412 638 2395.0 599.0Q2378 560 2349.0 530.5Q2320 501 2281.0 484.0Q2242 467 2197 467H1600L1744 324H2195Q2219 289 2237 252H1816L2078 -10L2262 173Q2268 141 2268 108Q2268 34 2239.5 -31.5Q2211 -97 2162.5 -145.5Q2114 -194 2048.5 -222.5Q1983 -251 1909 -251Q1879 -251 1858 -230L2027 -61L1765 201V-137L1693 -65V273L1542 424L1476 27Q1471 0 1453.0 -18.0Q1435 -36 1406 -36Q1377 -36 1359.0 -18.0Q1341 0 1336 27L1270 424L1118 273V-65L1047 -137V201L784 -61L954 -230Q933 -251 903 -251Q829 -251 763.5 -222.5Q698 -194 649.0 -145.5Q600 -97 571.5 -31.5Q543 34 543 108Q543 125 545.0 141.0Q547 157 550 173L734 -10L996 252H574Q582 271 592.5 289.0Q603 307 616 324H1068L1211 467H615Q570 467 531.0 484.0Q492 501 463.0 530.5Q434 560 417.0 599.0Q400 638 400 683V1402Q400 1432 411.0 1458.0Q422 1484 441.5 1503.5Q461 1523 487.0 1534.5Q513 1546 543 1546Q562 1546 580.0 1540.5Q598 1535 615 1526V1237L975 878V1174L1047 1102V806L1241 611H1262L1339 852Q1346 873 1365.0 886.0Q1384 899 1406 899Q1428 899 1447.0 886.0Q1466 873 1473 852L1550 611H1571L1765 806V1102L1837 1174V878L2197 1237V1526Q2214 1535 2232.0 1540.5Q2250 1546 2269 1546ZM687 611H1140L996 755H615V683Q615 653 636.0 632.0Q657 611 687 611ZM2197 683V755H1816L1672 611H2125Q2154 611 2175.5 632.5Q2197 654 2197 683ZM2197 827V1135L1888 827ZM615 1135V827H924Z" style="fill:#383838;stroke:none" transform="scale(1,-1) translate(0,-256)" /></svg>