<?xml version="1.0" encoding="utf-8" ?>
<svg baseProfile="full" height="256" version="1.1" width="256" xmlns="http://www.w3.org/2000/svg" xmlns:ev="http://www.w3.org/2001/xml-events" xmlns:xlink="http://www.w3.org/1999/xlink"><defs /><path d="M2340 -72 2197 72V1725L2340 1581V-72L2197 -215H543L400 -72ZM543 72 400 -72V1581L543 1725ZM2053 1222H1693V1438L1873 1510L2053 1438ZM1550 1222H1190V1438L1370 1510L1550 1438ZM1047 1222H687V1438L867 1510L1047 1438ZM1047 719H687V935L867 1006L1047 935ZM2053 719H1693V935L1873 1006L2053 935ZM1550 216H1190V431L1370 503L1550 431ZM2053 216H1693V431L1873 503L2053 431ZM1047 216H687V431L867 503L1047 431Z" style="fill:#eba300;stroke:none" transform="scale(1,-1) translate(0,-256)" /></svg>