<?xml version="1.0" encoding="utf-8" ?>
<svg baseProfile="full" height="256" version="1.1" width="256" xmlns="http://www.w3.org/2000/svg" xmlns:ev="http://www.w3.org/2001/xml-events" xmlns:xlink="http://www.w3.org/1999/xlink"><defs /><path d="M1370 1294Q1405 1294 1436.5 1280.5Q1468 1267 1493 1243L1607 1129Q1631 1105 1644.5 1073.5Q1658 1042 1658 1007Q1658 972 1644.5 940.5Q1631 909 1607 884L1493 770Q1468 746 1436.5 732.5Q1405 719 1370 719Q1335 719 1303.5 732.5Q1272 746 1247 770L1133 884Q1109 908 1096.0 940.0Q1083 972 1083 1006Q1083 1041 1096.0 1072.5Q1109 1104 1133 1129L1247 1243Q1272 1267 1303.5 1280.5Q1335 1294 1370 1294Z" style="fill:#faec6e;stroke:none" transform="scale(1,-1) translate(0,-256)" /></svg>