<?xml version="1.0" encoding="utf-8" ?>
<svg baseProfile="full" height="256" version="1.1" width="256" xmlns="http://www.w3.org/2000/svg" xmlns:ev="http://www.w3.org/2001/xml-events" xmlns:xlink="http://www.w3.org/1999/xlink"><defs /><path d="M1718 503Q1673 503 1640.5 515.0Q1608 527 1582.5 548.5Q1557 570 1536.5 599.0Q1516 628 1494 662Q1454 723 1395.0 757.0Q1336 791 1262 791Q1190 791 1129.0 757.0Q1068 723 1030 662L997 609Q976 576 951.5 555.0Q927 534 898.5 522.5Q870 511 837.5 507.0Q805 503 768 503Q721 503 680.5 520.5Q640 538 609.0 569.0Q578 600 560.5 640.5Q543 681 543 728V854Q543 900 560.5 941.0Q578 982 609.0 1012.5Q640 1043 680.5 1060.5Q721 1078 768 1078H1757Q1803 1078 1844.0 1060.5Q1885 1043 1915.5 1012.5Q1946 982 1963.5 941.0Q1981 900 1981 854V728Q1981 682 1963.5 641.0Q1946 600 1915.5 569.5Q1885 539 1844.0 521.0Q1803 503 1757 503Z" style="fill:#3a96dd;stroke:none" transform="scale(1,-1) translate(0,-256)" /></svg>