<?xml version="1.0" encoding="utf-8" ?>
<svg baseProfile="full" height="256" version="1.1" width="256" xmlns="http://www.w3.org/2000/svg" xmlns:ev="http://www.w3.org/2001/xml-events" xmlns:xlink="http://www.w3.org/1999/xlink"><defs /><path d="M1706 -287H1406Q1361 -287 1322.0 -270.0Q1283 -253 1253.5 -224.0Q1224 -195 1207.0 -156.0Q1190 -117 1190 -72V72H1334V-72Q1334 -101 1355.5 -122.5Q1377 -144 1406 -144H1706Q1735 -144 1757 -122L1930 51L2053 72L2032 -51L1858 -224Q1795 -287 1706 -287ZM759 719H1765V474Q1765 435 1750.5 401.5Q1736 368 1710.5 342.5Q1685 317 1651.5 302.5Q1618 288 1579 288Q1543 288 1517.0 298.5Q1491 309 1468.5 325.0Q1446 341 1425.5 359.5Q1405 378 1381.0 394.0Q1357 410 1327.0 420.5Q1297 431 1256 431Q1220 431 1193.0 420.5Q1166 410 1143.0 394.0Q1120 378 1099.5 359.5Q1079 341 1056.5 325.0Q1034 309 1007.0 298.5Q980 288 945 288Q907 288 873.0 302.5Q839 317 813.5 342.5Q788 368 773.5 402.0Q759 436 759 474Z" style="fill:#4a5459;stroke:none" transform="scale(1,-1) translate(0,-256)" /></svg>