<?xml version="1.0" encoding="utf-8" ?>
<svg baseProfile="full" height="256" version="1.1" width="256" xmlns="http://www.w3.org/2000/svg" xmlns:ev="http://www.w3.org/2001/xml-events" xmlns:xlink="http://www.w3.org/1999/xlink"><defs /><path d="M2197 1869Q2260 1869 2310.5 1837.0Q2361 1805 2389 1750L2488 1553Q2521 1486 2538.5 1412.5Q2556 1339 2556 1264V538Q2556 407 2507.5 290.5Q2459 174 2366 81L1960 -326Q1909 -377 1843.5 -404.0Q1778 -431 1706 -431H1406Q1341 -431 1281.5 -408.5Q1222 -386 1174.5 -346.5Q1127 -307 1095.0 -252.5Q1063 -198 1052 -133Q1019 -122 991.5 -102.0Q964 -82 944.5 -55.0Q925 -28 914.0 4.5Q903 37 903 72Q903 112 916 145Q867 150 822.0 168.0Q777 186 739 217Q637 222 549.0 264.5Q461 307 395.5 376.0Q330 445 293.0 535.5Q256 626 256 728V854Q256 960 296.0 1053.5Q336 1147 405.5 1216.5Q475 1286 568.5 1326.0Q662 1366 768 1366H1757Q1863 1366 1957.5 1325.5Q2052 1285 2125 1210V1247Q2125 1276 2121.5 1302.0Q2118 1328 2102 1360L2004 1557Q1981 1603 1981 1653Q1981 1698 1998.0 1737.5Q2015 1777 2044.5 1806.0Q2074 1835 2113.0 1852.0Q2152 1869 2197 1869ZM1917 241Q1885 231 1852.5 225.0Q1820 219 1786 217Q1708 154 1609 145Q1622 108 1622 72Q1622 37 1609 0H1676Z" style="fill:#000000;stroke:none" transform="scale(1,-1) translate(0,-256)" /></svg>