<?xml version="1.0" encoding="utf-8" ?>
<svg baseProfile="full" height="256" version="1.1" width="256" xmlns="http://www.w3.org/2000/svg" xmlns:ev="http://www.w3.org/2001/xml-events" xmlns:xlink="http://www.w3.org/1999/xlink"><defs /><path d="M1930 51 2163 284Q2214 335 2241.0 400.5Q2268 466 2268 538V1264Q2268 1305 2257.5 1345.0Q2247 1385 2231.0 1422.0Q2215 1459 2196.5 1493.0Q2178 1527 2162.0 1557.0Q2146 1587 2135.5 1611.0Q2125 1635 2125 1653Q2125 1683 2145.5 1704.0Q2166 1725 2196 1725Q2216 1725 2234.0 1714.5Q2252 1704 2261 1685L2359 1489Q2412 1383 2412 1264V538Q2412 437 2374.5 345.5Q2337 254 2265 182L2032 -51ZM1757 1222H768Q692 1222 625.0 1193.0Q558 1164 508.0 1114.0Q458 1064 429.0 997.0Q400 930 400 854V728Q400 652 429.0 585.0Q458 518 508.0 468.0Q558 418 625.0 389.0Q692 360 768 360H807Q904 360 985.5 406.0Q1067 452 1119 533Q1127 547 1135.0 560.0Q1143 573 1152 586Q1171 615 1199.0 631.0Q1227 647 1262 647Q1297 647 1324.5 631.0Q1352 615 1372 586Q1381 573 1389.5 560.0Q1398 547 1406 533Q1459 452 1539.5 406.0Q1620 360 1718 360H1757Q1833 360 1900.5 389.0Q1968 418 2017.5 467.5Q2067 517 2096.0 584.0Q2125 651 2125 728V854Q2125 930 2096.0 997.0Q2067 1064 2017.0 1114.0Q1967 1164 1900.0 1193.0Q1833 1222 1757 1222Z" style="fill:#ffb900;stroke:none" transform="scale(1,-1) translate(0,-256)" /></svg>