<?xml version="1.0" encoding="utf-8" ?>
<svg baseProfile="full" height="256" version="1.1" width="256" xmlns="http://www.w3.org/2000/svg" xmlns:ev="http://www.w3.org/2001/xml-events" xmlns:xlink="http://www.w3.org/1999/xlink"><defs /><path d="M1622 1366H2556V1222Q2556 1192 2535.0 1171.0Q2514 1150 2484 1150H2340Q2311 1091 2280.5 1033.0Q2250 975 2221 916Q2205 884 2189.5 852.0Q2174 820 2154 791Q2145 779 2134.5 766.0Q2124 753 2111.5 742.5Q2099 732 2084.0 725.5Q2069 719 2053 719H1693Q1663 719 1637.0 730.5Q1611 742 1591.5 761.5Q1572 781 1561.0 807.0Q1550 833 1550 863V935Q1550 965 1538.5 991.0Q1527 1017 1507.5 1036.5Q1488 1056 1462.0 1067.0Q1436 1078 1406 1078Q1376 1078 1350.0 1067.0Q1324 1056 1304.5 1036.5Q1285 1017 1273.5 991.0Q1262 965 1262 935V863Q1262 833 1250.5 806.5Q1239 780 1219.5 760.5Q1200 741 1174.0 730.0Q1148 719 1118 719H759Q750 719 739.5 727.5Q729 736 719.0 748.0Q709 760 700.0 772.0Q691 784 687 791Q630 879 578.0 969.0Q526 1059 472 1150H328Q298 1150 277.0 1171.0Q256 1192 256 1222V1366H1189L1261 1294H1551ZM1836 460Q1865 460 1886.5 438.5Q1908 417 1908 388Q1908 377 1905.5 369.0Q1903 361 1898 351Q1864 287 1809.5 235.5Q1755 184 1689.0 147.5Q1623 111 1550.0 91.5Q1477 72 1406 72Q1335 72 1262.0 91.5Q1189 111 1122.5 147.5Q1056 184 1001.5 235.5Q947 287 913 351Q908 361 905.5 369.0Q903 377 903 388Q903 417 924.0 438.5Q945 460 974 460Q996 460 1009.0 450.5Q1022 441 1036 425Q1050 408 1062.0 390.0Q1074 372 1088 355Q1116 322 1153.0 296.0Q1190 270 1232.0 252.0Q1274 234 1318.5 225.0Q1363 216 1406 216Q1449 216 1493.0 225.5Q1537 235 1579.0 252.5Q1621 270 1658.0 296.0Q1695 322 1723 355Q1737 372 1749.0 390.0Q1761 408 1775 425Q1789 442 1801.0 451.0Q1813 460 1836 460Z" style="fill:#000000;stroke:none" transform="scale(1,-1) translate(0,-256)" /></svg>