<?xml version="1.0" encoding="utf-8" ?>
<svg baseProfile="full" height="256" version="1.1" width="256" xmlns="http://www.w3.org/2000/svg" xmlns:ev="http://www.w3.org/2001/xml-events" xmlns:xlink="http://www.w3.org/1999/xlink"><defs /><path d="M2409 1009Q2399 955 2359.0 915.5Q2319 876 2265 866Q2257 824 2232 791Q2269 791 2302.0 777.0Q2335 763 2359.5 738.5Q2384 714 2398.0 681.0Q2412 648 2412 611Q2412 579 2398.5 543.0Q2385 507 2360 485L1717 -87Q1705 -98 1699.0 -113.0Q1693 -128 1693 -144V-215Q1693 -260 1676.0 -299.0Q1659 -338 1630.0 -367.5Q1601 -397 1562.0 -414.0Q1523 -431 1478 -431Q1438 -431 1400.5 -416.0Q1363 -401 1334 -375Q1305 -401 1267.5 -416.0Q1230 -431 1190 -431Q1145 -431 1106.0 -414.0Q1067 -397 1038.0 -367.5Q1009 -338 992.0 -299.0Q975 -260 975 -215V-144Q975 -130 967.5 -113.0Q960 -96 949 -86L308 485Q283 507 269.5 543.0Q256 579 256 611Q256 654 275.0 691.5Q294 729 328 755Q294 781 275.0 818.5Q256 856 256 899Q256 936 270.0 968.5Q284 1001 308.5 1025.5Q333 1050 366.0 1064.0Q399 1078 436 1078Q582 1078 720.0 1031.5Q858 985 975 897V1222Q975 1311 998.0 1394.0Q1021 1477 1063.5 1548.5Q1106 1620 1165.0 1679.0Q1224 1738 1295.5 1780.5Q1367 1823 1450.0 1846.0Q1533 1869 1622 1869H2232Q2269 1869 2302.0 1855.0Q2335 1841 2359.5 1816.5Q2384 1792 2398.0 1759.0Q2412 1726 2412 1689Q2412 1657 2401.0 1627.5Q2390 1598 2370.0 1574.5Q2350 1551 2323.0 1535.0Q2296 1519 2265 1513Q2255 1459 2215.5 1419.0Q2176 1379 2122 1369L2121 1366H2376Q2413 1366 2446.0 1352.0Q2479 1338 2503.5 1313.5Q2528 1289 2542.0 1256.0Q2556 1223 2556 1186Q2556 1154 2545.0 1124.5Q2534 1095 2514.0 1071.5Q2494 1048 2467.0 1031.5Q2440 1015 2409 1009Z" style="fill:#000000;stroke:none" transform="scale(1,-1) translate(0,-256)" /></svg>