<?xml version="1.0" encoding="utf-8" ?>
<svg baseProfile="full" height="256" version="1.1" width="256" xmlns="http://www.w3.org/2000/svg" xmlns:ev="http://www.w3.org/2001/xml-events" xmlns:xlink="http://www.w3.org/1999/xlink"><defs /><path d="M1981 1402Q1981 1387 1970.5 1376.5Q1960 1366 1945 1366H1550Q1490 1366 1437.5 1343.5Q1385 1321 1346.0 1282.0Q1307 1243 1284.5 1190.5Q1262 1138 1262 1078V1006H1118V1222Q1118 1326 1158.0 1417.5Q1198 1509 1266.5 1577.5Q1335 1646 1426.5 1685.5Q1518 1725 1622 1725H2232Q2247 1725 2257.5 1714.5Q2268 1704 2268 1689Q2268 1674 2257.5 1663.5Q2247 1653 2232 1653H1729Q1714 1653 1703.5 1642.5Q1693 1632 1693 1617Q1693 1603 1704.0 1592.0Q1715 1581 1729 1581H2089Q2103 1581 2114.0 1570.5Q2125 1560 2125 1546Q2125 1531 2114.5 1520.5Q2104 1510 2089 1510H1586Q1571 1510 1560.5 1499.5Q1550 1489 1550 1474Q1550 1459 1560.5 1448.5Q1571 1438 1586 1438H1945Q1960 1438 1970.5 1427.5Q1981 1417 1981 1402ZM2376 1222Q2391 1222 2401.5 1211.5Q2412 1201 2412 1186Q2412 1171 2401.5 1160.5Q2391 1150 2376 1150H1945Q1930 1150 1919.5 1139.5Q1909 1129 1909 1114Q1909 1099 1919.5 1088.5Q1930 1078 1945 1078H2232Q2247 1078 2257.5 1067.5Q2268 1057 2268 1042Q2268 1028 2257.0 1017.0Q2246 1006 2232 1006H1801Q1787 1006 1776.0 995.5Q1765 985 1765 971Q1765 956 1775.5 945.5Q1786 935 1801 935H2089Q2104 935 2114.5 924.5Q2125 914 2125 899Q2125 884 2114.5 873.5Q2104 863 2089 863H1837Q1777 863 1725.0 840.5Q1673 818 1634.0 779.0Q1595 740 1572.5 687.5Q1550 635 1550 575V503H1406V719Q1406 823 1445.5 914.5Q1485 1006 1553.5 1074.5Q1622 1143 1713.5 1182.5Q1805 1222 1909 1222Z" style="fill:#ffc83d;stroke:none" transform="scale(1,-1) translate(0,-256)" /></svg>