<?xml version="1.0" encoding="utf-8" ?>
<svg baseProfile="full" height="256" version="1.1" width="256" xmlns="http://www.w3.org/2000/svg" xmlns:ev="http://www.w3.org/2001/xml-events" xmlns:xlink="http://www.w3.org/1999/xlink"><defs /><path d="M1118 499V1006L1192 1083L1262 1006V-215Q1262 -245 1241.0 -266.0Q1220 -287 1190 -287Q1166 -287 1151.5 -277.5Q1137 -268 1129.5 -253.0Q1122 -238 1120.0 -219.0Q1118 -200 1118 -181V-144Q1118 -99 1098.5 -54.5Q1079 -10 1046 20L409 587Q404 592 402.0 598.5Q400 605 400 611Q400 626 410.5 636.5Q421 647 436 647Q545 647 647.5 616.5Q750 586 838.5 529.5Q927 473 998.5 393.0Q1070 313 1117 215Q1110 350 1053.5 468.5Q997 587 905.0 674.5Q813 762 692.5 812.5Q572 863 436 863Q421 863 410.5 873.5Q400 884 400 899Q400 914 410.5 924.5Q421 935 436 935Q545 935 648.0 904.0Q751 873 839.5 816.0Q928 759 999.5 678.5Q1071 598 1118 499ZM2268 611Q2268 605 2266.0 598.5Q2264 592 2259 587L1622 20Q1595 -4 1580.5 -30.0Q1566 -56 1559.5 -85.0Q1553 -114 1551.5 -144.5Q1550 -175 1550 -208V-215Q1550 -244 1528.5 -265.5Q1507 -287 1478 -287Q1448 -287 1427.0 -266.0Q1406 -245 1406 -215V503L1478 590L1550 503V212Q1596 311 1667.5 391.5Q1739 472 1828.0 528.5Q1917 585 2020.0 616.0Q2123 647 2232 647Q2247 647 2257.5 636.5Q2268 626 2268 611Z" style="fill:#13a10e;stroke:none" transform="scale(1,-1) translate(0,-256)" /></svg>