<?xml version="1.0" encoding="utf-8" ?>
<svg baseProfile="full" height="256" version="1.1" width="256" xmlns="http://www.w3.org/2000/svg" xmlns:ev="http://www.w3.org/2001/xml-events" xmlns:xlink="http://www.w3.org/1999/xlink"><defs /><path d="M2197 -431Q2082 -431 1972.5 -398.5Q1863 -366 1766 -303Q1691 -366 1597.5 -398.5Q1504 -431 1406 -431Q1308 -431 1218.0 -399.0Q1128 -367 1054.5 -310.0Q981 -253 927.5 -174.0Q874 -95 849 0H831Q712 0 607.5 45.5Q503 91 425.0 169.0Q347 247 301.5 351.5Q256 456 256 575Q256 649 274.0 719.0Q292 789 326.0 851.5Q360 914 409.5 967.0Q459 1020 521 1060Q472 1173 472 1294Q472 1412 517.5 1517.0Q563 1622 641.0 1700.0Q719 1778 823.5 1823.5Q928 1869 1047 1869Q1145 1869 1236.5 1836.0Q1328 1803 1406 1743Q1484 1803 1575.5 1836.0Q1667 1869 1765 1869Q1883 1869 1988.0 1823.5Q2093 1778 2171.0 1700.0Q2249 1622 2294.5 1517.0Q2340 1412 2340 1294Q2340 1173 2291 1060Q2353 1020 2402.5 967.0Q2452 914 2486.0 851.5Q2520 789 2538.0 719.0Q2556 649 2556 575Q2556 497 2535.0 422.0Q2514 347 2474 280Q2516 198 2536.0 109.0Q2556 20 2556 -72V-431Z" style="fill:#000000;stroke:none" transform="scale(1,-1) translate(0,-256)" /></svg>