<?xml version="1.0" encoding="utf-8" ?>
<svg baseProfile="full" height="256" version="1.1" width="256" xmlns="http://www.w3.org/2000/svg" xmlns:ev="http://www.w3.org/2001/xml-events" xmlns:xlink="http://www.w3.org/1999/xlink"><defs /><path d="M2076 996Q2149 979 2211.0 939.5Q2273 900 2317.5 844.0Q2362 788 2387.0 719.5Q2412 651 2412 575Q2412 486 2378.0 407.5Q2344 329 2285.5 270.5Q2227 212 2148.5 178.0Q2070 144 1981 144Q1906 144 1836 170Q1836 163 1836.5 157.0Q1837 151 1837 144Q1837 55 1803.0 -23.5Q1769 -102 1710.5 -160.5Q1652 -219 1573.5 -253.0Q1495 -287 1406 -287Q1317 -287 1238.5 -253.0Q1160 -219 1101.5 -160.5Q1043 -102 1009.0 -23.5Q975 55 975 144Q975 151 975.0 157.0Q975 163 976 170Q906 144 831 144Q742 144 663.5 178.0Q585 212 526.5 270.5Q468 329 434.0 407.5Q400 486 400 575Q400 651 425.0 720.0Q450 789 494.5 844.5Q539 900 600.5 939.5Q662 979 736 996Q676 1056 645.5 1132.5Q615 1209 615 1294Q615 1384 649.0 1462.5Q683 1541 741.5 1599.5Q800 1658 878.5 1691.5Q957 1725 1047 1725Q1101 1725 1152.5 1711.5Q1204 1698 1250.5 1673.5Q1297 1649 1336.5 1613.0Q1376 1577 1406 1532Q1436 1577 1475.5 1613.0Q1515 1649 1561.5 1673.5Q1608 1698 1659.5 1711.5Q1711 1725 1765 1725Q1854 1725 1932.5 1691.0Q2011 1657 2070.0 1598.5Q2129 1540 2163.0 1461.5Q2197 1383 2197 1294Q2197 1209 2166.5 1132.5Q2136 1056 2076 996Z" style="fill:#f495bf;stroke:none" transform="scale(1,-1) translate(0,-256)" /></svg>