<?xml version="1.0" encoding="utf-8" ?>
<svg baseProfile="full" height="256" version="1.1" width="256" xmlns="http://www.w3.org/2000/svg" xmlns:ev="http://www.w3.org/2001/xml-events" xmlns:xlink="http://www.w3.org/1999/xlink"><defs /><path d="M1837 1078Q1867 1078 1893.0 1067.0Q1919 1056 1938.5 1036.5Q1958 1017 1969.5 991.0Q1981 965 1981 935Q1981 883 1958.5 854.0Q1936 825 1902.5 808.0Q1869 791 1829.5 780.5Q1790 770 1756.5 757.5Q1723 745 1700.5 724.0Q1678 703 1678 665Q1678 645 1690.0 622.0Q1702 599 1719.5 573.5Q1737 548 1757.5 521.0Q1778 494 1795.5 467.0Q1813 440 1825.0 413.0Q1837 386 1837 360Q1837 330 1826.0 304.0Q1815 278 1795.5 258.5Q1776 239 1750.0 227.5Q1724 216 1694 216Q1656 216 1625.5 232.5Q1595 249 1574 280L1468 435Q1459 448 1440.0 454.0Q1421 460 1406 460Q1391 460 1372.0 454.0Q1353 448 1344 435L1238 280Q1218 250 1186.0 233.0Q1154 216 1118 216Q1088 216 1062.0 227.5Q1036 239 1016.5 258.5Q997 278 986.0 304.0Q975 330 975 360Q975 403 999 439L1129 635Q1132 640 1133.5 650.0Q1135 660 1135 665Q1135 704 1112.5 724.5Q1090 745 1056.0 758.0Q1022 771 983.0 780.5Q944 790 910.0 807.5Q876 825 853.5 854.0Q831 883 831 935Q831 965 842.5 991.0Q854 1017 873.5 1036.5Q893 1056 919.0 1067.0Q945 1078 975 1078Q1002 1078 1027.0 1069.5Q1052 1061 1076.5 1050.5Q1101 1040 1125.5 1031.5Q1150 1023 1176 1023Q1205 1023 1222.5 1034.5Q1240 1046 1249.0 1064.0Q1258 1082 1261.0 1105.5Q1264 1129 1264 1153Q1264 1172 1263.0 1189.5Q1262 1207 1262 1222Q1262 1252 1273.5 1278.0Q1285 1304 1304.5 1323.5Q1324 1343 1350.0 1354.5Q1376 1366 1406 1366Q1436 1366 1462.0 1354.5Q1488 1343 1507.5 1323.5Q1527 1304 1538.5 1278.0Q1550 1252 1550 1222Q1550 1204 1549.0 1186.0Q1548 1168 1548 1150Q1548 1127 1551.0 1104.0Q1554 1081 1563.0 1063.0Q1572 1045 1589.5 1034.0Q1607 1023 1636 1023Q1661 1023 1685.5 1031.5Q1710 1040 1735.0 1050.5Q1760 1061 1785.0 1069.5Q1810 1078 1837 1078Z" style="fill:#ee3f86;stroke:none" transform="scale(1,-1) translate(0,-256)" /></svg>