<?xml version="1.0" encoding="utf-8" ?>
<svg baseProfile="full" height="256" version="1.1" width="256" xmlns="http://www.w3.org/2000/svg" xmlns:ev="http://www.w3.org/2001/xml-events" xmlns:xlink="http://www.w3.org/1999/xlink"><defs /><path d="M1406 1006Q1451 1006 1490.0 989.0Q1529 972 1558.5 943.0Q1588 914 1605.0 875.0Q1622 836 1622 791Q1622 746 1605.0 707.0Q1588 668 1558.5 638.5Q1529 609 1490.0 592.0Q1451 575 1406 575Q1361 575 1322.0 592.0Q1283 609 1253.5 638.5Q1224 668 1207.0 707.0Q1190 746 1190 791Q1190 856 1227 910L917 1323Q903 1342 903 1365Q903 1395 924.0 1416.5Q945 1438 975 1438Q1011 1438 1032 1409L1342 996Q1372 1006 1406 1006Z" style="fill:#970044;stroke:none" transform="scale(1,-1) translate(0,-256)" /></svg>