<?xml version="1.0" encoding="utf-8" ?>
<svg baseProfile="full" height="256" version="1.1" width="256" xmlns="http://www.w3.org/2000/svg" xmlns:ev="http://www.w3.org/2001/xml-events" xmlns:xlink="http://www.w3.org/1999/xlink"><defs /><path d="M1190 1366Q1190 1321 1173.0 1282.0Q1156 1243 1127.0 1213.5Q1098 1184 1059.0 1167.0Q1020 1150 975 1150Q930 1150 891.0 1167.0Q852 1184 822.5 1213.5Q793 1243 776.0 1282.0Q759 1321 759 1366Q759 1411 776.0 1450.0Q793 1489 822.5 1518.0Q852 1547 891.0 1564.0Q930 1581 975 1581Q1020 1581 1059.0 1564.0Q1098 1547 1127.0 1518.0Q1156 1489 1173.0 1450.0Q1190 1411 1190 1366Z" style="fill:#fce100;stroke:none" transform="scale(1,-1) translate(0,-256)" /></svg>