<?xml version="1.0" encoding="utf-8" ?>
<svg baseProfile="full" height="256" version="1.1" width="256" xmlns="http://www.w3.org/2000/svg" xmlns:ev="http://www.w3.org/2001/xml-events" xmlns:xlink="http://www.w3.org/1999/xlink"><defs /><path d="M1047 935 1138 1118Q1143 1129 1153.0 1136.0Q1163 1143 1175 1146L1198 1022L1262 1078L1426 1405Q1437 1426 1459 1432L1406 1006L1262 863L1190 935L1194 1008L1118 863ZM1622 360 1837 791Q1847 811 1857.0 830.0Q1867 849 1890 857L1911 604L1765 360L1693 431ZM615 360 707 543Q712 554 722.0 561.0Q732 568 744 571L763 438L687 288Z" style="fill:#cccccc;stroke:none" transform="scale(1,-1) translate(0,-256)" /></svg>