<?xml version="1.0" encoding="utf-8" ?>
<svg baseProfile="full" height="256" version="1.1" width="256" xmlns="http://www.w3.org/2000/svg" xmlns:ev="http://www.w3.org/2001/xml-events" xmlns:xlink="http://www.w3.org/1999/xlink"><defs /><path d="M1481 1436Q1514 1436 1530 1405L1765 935L1693 863L1622 935L1550 863L1478 935L1406 863L1334 935L1459 1432Q1468 1436 1481 1436ZM1912 861Q1945 861 1961 830L2197 360L2125 431L2053 360L1981 431L1909 360L1837 431L1765 360Q1796 485 1827.0 608.5Q1858 732 1890 857Q1899 861 1912 861ZM903 360 831 288 759 360 687 288 744 571Q747 572 749.5 572.5Q752 573 755 573Q774 573 785.5 567.5Q797 562 805.0 552.5Q813 543 818.5 530.0Q824 517 831 503ZM1175 1146Q1178 1147 1180.5 1147.5Q1183 1148 1186 1148Q1205 1148 1216.5 1142.5Q1228 1137 1235.5 1127.5Q1243 1118 1249.0 1105.0Q1255 1092 1262 1078Q1243 1043 1228.0 1005.5Q1213 968 1190 935Q1176 914 1156.0 897.5Q1136 881 1118 863Z" style="fill:#ffffff;stroke:none" transform="scale(1,-1) translate(0,-256)" /></svg>