<?xml version="1.0" encoding="utf-8" ?>
<svg baseProfile="full" height="256" version="1.1" width="256" xmlns="http://www.w3.org/2000/svg" xmlns:ev="http://www.w3.org/2001/xml-events" xmlns:xlink="http://www.w3.org/1999/xlink"><defs /><path d="M1891 1004Q1897 1005 1903.0 1005.5Q1909 1006 1915 1006Q1970 1006 2018.0 975.0Q2066 944 2090 895L2556 -38V-431H256V-38L578 607Q590 630 608.5 650.0Q627 670 650.5 685.0Q674 700 700.0 709.0Q726 718 753 718Q759 718 765.0 717.5Q771 717 777 716L1010 1182Q1021 1204 1040.0 1224.5Q1059 1245 1082.5 1260.0Q1106 1275 1132.5 1284.0Q1159 1293 1185 1293Q1191 1293 1196.5 1292.5Q1202 1292 1208 1291L1297 1470Q1323 1521 1373.0 1550.5Q1423 1580 1480 1580Q1537 1580 1585.0 1550.5Q1633 1521 1659 1470Z" style="fill:#000000;stroke:none" transform="scale(1,-1) translate(0,-256)" /></svg>