<?xml version="1.0" encoding="utf-8" ?>
<svg baseProfile="full" height="256" version="1.1" width="256" xmlns="http://www.w3.org/2000/svg" xmlns:ev="http://www.w3.org/2001/xml-events" xmlns:xlink="http://www.w3.org/1999/xlink"><defs /><path d="M400 -431Q370 -431 343.5 -419.5Q317 -408 297.5 -388.5Q278 -369 267.0 -342.5Q256 -316 256 -286Q256 -248 269.5 -225.5Q283 -203 308 -177Q317 -167 324.5 -161.5Q332 -156 340 -146Q367 -116 383.5 -79.0Q400 -42 400 0V1006Q400 1070 407.0 1159.0Q414 1248 432.5 1344.0Q451 1440 482.0 1534.0Q513 1628 561.0 1702.5Q609 1777 675.5 1823.0Q742 1869 831 1869H2125Q2190 1869 2242.5 1843.0Q2295 1817 2337.0 1773.5Q2379 1730 2411.0 1673.5Q2443 1617 2466.0 1556.0Q2489 1495 2504.5 1434.5Q2520 1374 2529 1323Q2543 1245 2549.5 1166.0Q2556 1087 2556 1006Q2556 926 2549.5 847.0Q2543 768 2529 690Q2520 638 2504.5 578.0Q2489 518 2466.0 457.0Q2443 396 2411.0 339.5Q2379 283 2337.0 239.5Q2295 196 2242.5 170.0Q2190 144 2125 144H1981V0Q1981 -70 1964.0 -130.5Q1947 -191 1916.0 -243.5Q1885 -296 1841.5 -342.5Q1798 -389 1745 -431Z" style="fill:#000000;stroke:none" transform="scale(1,-1) translate(0,-256)" /></svg>