<?xml version="1.0" encoding="utf-8" ?>
<svg baseProfile="full" height="256" version="1.1" width="256" xmlns="http://www.w3.org/2000/svg" xmlns:ev="http://www.w3.org/2001/xml-events" xmlns:xlink="http://www.w3.org/1999/xlink"><defs /><path d="M2125 288Q2084 288 2050.5 311.0Q2017 334 1989.5 371.0Q1962 408 1941.0 454.0Q1920 500 1904.5 547.0Q1889 594 1878.5 636.5Q1868 679 1863 709Q1849 783 1843.0 857.0Q1837 931 1837 1006Q1837 1077 1842.5 1146.5Q1848 1216 1860 1286Q1865 1316 1875.0 1360.5Q1885 1405 1900.5 1454.0Q1916 1503 1937.5 1551.5Q1959 1600 1987.0 1638.5Q2015 1677 2049.0 1701.0Q2083 1725 2125 1725Q2166 1725 2200.5 1701.0Q2235 1677 2262.5 1638.0Q2290 1599 2311.5 1550.5Q2333 1502 2348.5 1453.5Q2364 1405 2374.0 1360.5Q2384 1316 2389 1286Q2401 1216 2406.5 1146.5Q2412 1077 2412 1006Q2412 931 2406.0 857.0Q2400 783 2386 709Q2381 679 2370.5 636.5Q2360 594 2344.5 547.0Q2329 500 2308.0 454.0Q2287 408 2259.5 371.0Q2232 334 2198.5 311.0Q2165 288 2125 288Z" style="fill:#cccccc;stroke:none" transform="scale(1,-1) translate(0,-256)" /></svg>