<?xml version="1.0" encoding="utf-8" ?>
<svg baseProfile="full" height="256" version="1.1" width="256" xmlns="http://www.w3.org/2000/svg" xmlns:ev="http://www.w3.org/2001/xml-events" xmlns:xlink="http://www.w3.org/1999/xlink"><defs /><path d="M831 1725H2125V1006H1837L1602 503L1837 0Q1837 -85 1798.0 -159.0Q1759 -233 1694 -287H400Q466 -233 505.0 -159.5Q544 -86 544 0L802 503L544 1006Q544 1072 548.5 1136.5Q553 1201 563 1266Q568 1297 577.5 1343.0Q587 1389 602.5 1440.0Q618 1491 640.0 1542.0Q662 1593 690.0 1633.5Q718 1674 753.0 1699.5Q788 1725 831 1725Z" style="fill:#ffffff;stroke:none" transform="scale(1,-1) translate(0,-256)" /></svg>