<?xml version="1.0" encoding="utf-8" ?>
<svg baseProfile="full" height="256" version="1.1" width="256" xmlns="http://www.w3.org/2000/svg" xmlns:ev="http://www.w3.org/2001/xml-events" xmlns:xlink="http://www.w3.org/1999/xlink"><defs /><path d="M543 575V1150Q543 1210 565.5 1262.5Q588 1315 627.0 1354.0Q666 1393 718.5 1415.5Q771 1438 831 1438H1406Q1525 1438 1635.0 1407.0Q1745 1376 1841.0 1320.0Q1937 1264 2015.5 1185.0Q2094 1106 2150.0 1010.0Q2206 914 2237.0 804.0Q2268 694 2268 575V0Q2268 -60 2245.5 -112.0Q2223 -164 2184.0 -203.0Q2145 -242 2093.0 -264.5Q2041 -287 1981 -287H1406Q1287 -287 1177.0 -256.0Q1067 -225 971.0 -169.0Q875 -113 796.0 -34.5Q717 44 661.0 140.0Q605 236 574.0 346.0Q543 456 543 575Z" style="fill:#fce100;stroke:none" transform="scale(1,-1) translate(0,-256)" /></svg>