<?xml version="1.0" encoding="utf-8" ?>
<svg baseProfile="full" height="256" version="1.1" width="256" xmlns="http://www.w3.org/2000/svg" xmlns:ev="http://www.w3.org/2001/xml-events" xmlns:xlink="http://www.w3.org/1999/xlink"><defs /><path d="M1406 -431Q1267 -431 1138.5 -395.0Q1010 -359 898.5 -293.5Q787 -228 695.0 -136.0Q603 -44 537.5 67.5Q472 179 436.0 307.5Q400 436 400 575V1150Q400 1207 415 1261L401 1274Q375 1298 349.0 1323.5Q323 1349 302.5 1377.5Q282 1406 269.0 1439.0Q256 1472 256 1510Q256 1555 273.0 1594.0Q290 1633 319.5 1662.0Q349 1691 388.0 1708.0Q427 1725 472 1725Q511 1725 548.0 1711.5Q585 1698 614 1672Q697 1766 809.0 1817.5Q921 1869 1047 1869H1622V1725Q1622 1641 1598 1563Q1716 1540 1822.0 1491.0Q1928 1442 2018.5 1372.5Q2109 1303 2181.5 1214.5Q2254 1126 2305.5 1024.0Q2357 922 2384.5 808.5Q2412 695 2412 575V0Q2412 -89 2378.0 -167.5Q2344 -246 2285.5 -304.5Q2227 -363 2148.5 -397.0Q2070 -431 1981 -431Z" style="fill:#000000;stroke:none" transform="scale(1,-1) translate(0,-256)" /></svg>