<?xml version="1.0" encoding="utf-8" ?>
<svg baseProfile="full" height="256" version="1.1" width="256" xmlns="http://www.w3.org/2000/svg" xmlns:ev="http://www.w3.org/2001/xml-events" xmlns:xlink="http://www.w3.org/1999/xlink"><defs /><path d="M1083 575Q1105 575 1125.0 566.5Q1145 558 1159.0 543.0Q1173 528 1181.5 508.5Q1190 489 1190 467Q1190 445 1181.5 425.5Q1173 406 1158.5 391.5Q1144 377 1124.5 368.5Q1105 360 1083 360Q1061 360 1041.5 368.5Q1022 377 1007.0 391.0Q992 405 983.5 424.5Q975 444 975 467Q975 489 983.5 509.0Q992 529 1006.5 543.5Q1021 558 1040.5 566.5Q1060 575 1083 575ZM1442 360Q1420 360 1400.5 368.5Q1381 377 1366.0 391.0Q1351 405 1342.5 424.5Q1334 444 1334 467Q1334 489 1342.5 509.0Q1351 529 1365.5 543.5Q1380 558 1399.5 566.5Q1419 575 1442 575Q1464 575 1483.5 566.5Q1503 558 1518.0 543.0Q1533 528 1541.5 508.5Q1550 489 1550 467Q1550 445 1541.5 425.5Q1533 406 1518.0 391.5Q1503 377 1483.5 368.5Q1464 360 1442 360ZM1083 216Q1105 216 1125.0 207.5Q1145 199 1159.0 184.0Q1173 169 1181.5 149.5Q1190 130 1190 108Q1190 86 1181.5 66.5Q1173 47 1159.0 32.0Q1145 17 1125.0 8.5Q1105 0 1083 0Q1060 0 1040.5 8.5Q1021 17 1006.5 31.5Q992 46 983.5 65.5Q975 85 975 108Q975 130 983.5 150.0Q992 170 1006.5 184.5Q1021 199 1040.5 207.5Q1060 216 1083 216ZM1442 216Q1464 216 1483.5 207.5Q1503 199 1518.0 184.0Q1533 169 1541.5 149.5Q1550 130 1550 108Q1550 86 1541.5 66.5Q1533 47 1518.0 32.0Q1503 17 1483.5 8.5Q1464 0 1442 0Q1419 0 1399.5 8.5Q1380 17 1365.5 31.5Q1351 46 1342.5 65.5Q1334 85 1334 108Q1334 130 1342.5 150.0Q1351 170 1365.5 184.5Q1380 199 1399.5 207.5Q1419 216 1442 216Z" style="fill:#dfbe00;stroke:none" transform="scale(1,-1) translate(0,-256)" /></svg>