<?xml version="1.0" encoding="utf-8" ?>
<svg baseProfile="full" height="256" version="1.1" width="256" xmlns="http://www.w3.org/2000/svg" xmlns:ev="http://www.w3.org/2001/xml-events" xmlns:xlink="http://www.w3.org/1999/xlink"><defs /><path d="M1688 837Q1744 808 1795.5 799.5Q1847 791 1909 791Q2013 791 2104.5 751.5Q2196 712 2264.5 643.5Q2333 575 2372.5 483.5Q2412 392 2412 288V246L2356 195L2412 72V0Q2412 -59 2389.5 -111.5Q2367 -164 2328.0 -203.0Q2289 -242 2236.5 -264.5Q2184 -287 2125 -287H2053L1945 -240L1879 -287H1837Q1733 -287 1641.0 -247.5Q1549 -208 1481.0 -140.0Q1413 -72 1373.5 20.0Q1334 112 1334 216Q1334 278 1325.5 329.5Q1317 381 1288 437Q1285 464 1272.0 493.0Q1259 522 1238.0 546.5Q1217 571 1190.5 587.0Q1164 603 1135 603Q1128 603 1124 601Q1068 630 1016.5 638.5Q965 647 903 647Q799 647 707.0 686.5Q615 726 547.0 794.0Q479 862 439.5 954.0Q400 1046 400 1150V1192L450 1249L400 1366V1438Q400 1497 422.5 1549.5Q445 1602 484.0 1641.0Q523 1680 575.5 1702.5Q628 1725 687 1725H759L871 1683L933 1725H975Q1079 1725 1170.5 1685.5Q1262 1646 1330.5 1577.5Q1399 1509 1438.5 1417.5Q1478 1326 1478 1222Q1478 1194 1479.0 1165.0Q1480 1136 1484.5 1107.5Q1489 1079 1498.0 1052.0Q1507 1025 1524 1001Q1524 971 1538.5 942.0Q1553 913 1576.5 889.5Q1600 866 1629.0 851.5Q1658 837 1688 837Z" style="fill:#d48c00;stroke:none" transform="scale(1,-1) translate(0,-256)" /></svg>