<?xml version="1.0" encoding="utf-8" ?>
<svg baseProfile="full" height="256" version="1.1" width="256" xmlns="http://www.w3.org/2000/svg" xmlns:ev="http://www.w3.org/2001/xml-events" xmlns:xlink="http://www.w3.org/1999/xlink"><defs /><path d="M1039 -431Q951 -431 874.0 -398.0Q797 -365 739.5 -307.5Q682 -250 648.5 -173.0Q615 -96 615 -8Q615 84 647.0 154.5Q679 225 739 292Q789 348 843.0 399.0Q897 450 951 503H903Q814 503 731.0 526.0Q648 549 576.5 591.5Q505 634 446.0 693.0Q387 752 344.5 823.5Q302 895 279.0 978.0Q256 1061 256 1150V1438Q256 1527 290.0 1605.5Q324 1684 382.5 1742.5Q441 1801 519.5 1835.0Q598 1869 687 1869H975Q1064 1869 1146.5 1846.0Q1229 1823 1301.0 1780.5Q1373 1738 1432.0 1679.0Q1491 1620 1533.5 1548.0Q1576 1476 1599.0 1393.5Q1622 1311 1622 1222V1186Q1622 1133 1641.5 1087.5Q1661 1042 1695.0 1008.0Q1729 974 1774.5 954.5Q1820 935 1873 935H1909Q1998 935 2080.5 912.0Q2163 889 2235.0 846.5Q2307 804 2366.0 745.0Q2425 686 2467.5 614.0Q2510 542 2533.0 459.5Q2556 377 2556 288V0Q2556 -89 2522.0 -167.5Q2488 -246 2429.5 -304.5Q2371 -363 2292.5 -397.0Q2214 -431 2125 -431H1837Q1712 -431 1597.5 -384.5Q1483 -338 1392 -253Q1354 -294 1316.0 -326.5Q1278 -359 1235.0 -382.5Q1192 -406 1144.0 -418.5Q1096 -431 1039 -431Z" style="fill:#000000;stroke:none" transform="scale(1,-1) translate(0,-256)" /></svg>