<?xml version="1.0" encoding="utf-8" ?>
<svg baseProfile="full" height="256" version="1.1" width="256" xmlns="http://www.w3.org/2000/svg" xmlns:ev="http://www.w3.org/2001/xml-events" xmlns:xlink="http://www.w3.org/1999/xlink"><defs /><path d="M1270 503Q1328 503 1379.0 481.0Q1430 459 1468.0 421.0Q1506 383 1528.0 332.0Q1550 281 1550 223Q1550 168 1528.5 116.5Q1507 65 1468 26L1236 -205Q1196 -245 1145.5 -266.5Q1095 -288 1038 -288Q981 -288 930.0 -266.0Q879 -244 841.0 -205.5Q803 -167 781.0 -116.0Q759 -65 759 -8Q759 48 780.5 99.5Q802 151 841 190L1072 421Q1111 460 1162.5 481.5Q1214 503 1270 503Z" style="fill:#ffc83d;stroke:none" transform="scale(1,-1) translate(0,-256)" /></svg>