<?xml version="1.0" encoding="utf-8" ?>
<svg baseProfile="full" height="256" version="1.1" width="256" xmlns="http://www.w3.org/2000/svg" xmlns:ev="http://www.w3.org/2001/xml-events" xmlns:xlink="http://www.w3.org/1999/xlink"><defs /><path d="M831 1366Q831 1336 810.0 1315.0Q789 1294 759 1294Q729 1294 708 1315L564 1459Q543 1480 543 1509Q543 1538 564.5 1559.5Q586 1581 615 1581Q645 1581 666 1560L810 1417Q831 1396 831 1366ZM975 1222Q1005 1222 1026 1201L1169 1057Q1190 1036 1190 1006Q1190 977 1168.5 956.0Q1147 935 1118 935Q1089 935 1068 956L924 1099Q903 1120 903 1150Q903 1179 924.5 1200.5Q946 1222 975 1222ZM1550 647Q1550 618 1528.5 596.5Q1507 575 1478 575Q1448 575 1427 596L1283 740Q1262 761 1262 791Q1262 821 1283.0 842.0Q1304 863 1334 863Q1364 863 1385 842L1529 698Q1550 677 1550 647ZM1693 503Q1723 503 1744 482L1888 339Q1909 318 1909 288Q1909 259 1887.5 237.5Q1866 216 1837 216Q1807 216 1786 237L1643 381Q1634 391 1627.5 404.0Q1621 417 1621 431Q1621 460 1642.5 481.5Q1664 503 1693 503ZM2053 144Q2083 144 2104 123L2247 -21Q2268 -42 2268 -72Q2268 -101 2246.5 -122.5Q2225 -144 2196 -144Q2182 -144 2169.0 -137.5Q2156 -131 2146 -122L2002 21Q1981 42 1981 72Q1981 101 2002.5 122.5Q2024 144 2053 144ZM975 1510Q945 1510 924 1531L780 1674Q759 1695 759 1725H933L1026 1632Q1047 1611 1047 1581Q1047 1552 1025.5 1531.0Q1004 1510 975 1510ZM1334 1150Q1304 1150 1283 1171L1139 1315Q1118 1336 1118 1366Q1118 1395 1139.5 1416.5Q1161 1438 1190 1438Q1220 1438 1241 1417L1385 1273Q1406 1252 1406 1222Q1406 1192 1385.0 1171.0Q1364 1150 1334 1150ZM2053 431Q2024 431 2002 453L1858 596Q1837 617 1837 647Q1837 677 1858.0 698.0Q1879 719 1909 719Q1939 719 1960 698L2104 554Q2125 533 2125 503Q2125 474 2103.5 452.5Q2082 431 2053 431ZM1621 791Q1592 791 1571 812L1499 884Q1478 905 1478 934Q1478 956 1490.5 975.0Q1503 994 1524 1001Q1583 896 1688 837Q1681 816 1662.0 803.5Q1643 791 1621 791ZM1190 647Q1220 647 1241 626L1313 554Q1334 533 1334 503Q1334 481 1321.5 462.5Q1309 444 1288 437Q1260 490 1218.0 531.5Q1176 573 1123 601Q1132 622 1149.5 634.5Q1167 647 1190 647ZM2268 360Q2298 360 2319 339L2412 246V72Q2382 72 2361 93L2218 237Q2196 259 2196 288Q2196 317 2217.5 338.5Q2239 360 2268 360ZM615 1150Q615 1121 593.5 1099.5Q572 1078 543 1078Q514 1078 493 1099L400 1192V1366Q430 1366 451 1345L594 1201Q615 1180 615 1150ZM759 1006Q789 1006 810 985L954 842Q975 821 975 791Q975 762 953.5 740.5Q932 719 903 719Q873 719 852 740L708 884Q687 905 687 934Q687 963 708.5 984.5Q730 1006 759 1006ZM1478 288Q1508 288 1529 267L1672 123Q1693 102 1693 72Q1693 43 1671.5 21.5Q1650 0 1621 0Q1592 0 1571 21L1427 165Q1406 186 1406 216Q1406 245 1427.5 266.5Q1449 288 1478 288ZM1837 -72Q1867 -72 1888 -93L2032 -236Q2053 -257 2053 -287H1879L1786 -194Q1765 -173 1765 -144Q1765 -115 1786.5 -93.5Q1808 -72 1837 -72Z" style="fill:#8e562e;stroke:none" transform="scale(1,-1) translate(0,-256)" /></svg>