<?xml version="1.0" encoding="utf-8" ?>
<svg baseProfile="full" height="256" version="1.1" width="256" xmlns="http://www.w3.org/2000/svg" xmlns:ev="http://www.w3.org/2001/xml-events" xmlns:xlink="http://www.w3.org/1999/xlink"><defs /><path d="M615 -215 759 72Q773 100 787.0 120.5Q801 141 817.5 157.5Q834 174 854.5 188.0Q875 202 903 216L1190 360Q1212 371 1234.0 381.0Q1256 391 1278 403Q1394 467 1490.5 562.5Q1587 658 1650 775Q1661 797 1671.5 819.0Q1682 841 1693 863L1837 1150Q1851 1178 1865.0 1198.5Q1879 1219 1895.5 1235.5Q1912 1252 1932.5 1266.0Q1953 1280 1981 1294L2268 1438V1078Q2268 899 2222.0 734.0Q2176 569 2092.0 425.0Q2008 281 1890.0 163.0Q1772 45 1628.0 -39.0Q1484 -123 1319.0 -169.0Q1154 -215 975 -215ZM1262 1653H2125Q2125 1578 2086.0 1524.5Q2047 1471 1981 1438L1334 1114Q1319 1040 1283.0 975.0Q1247 910 1195.0 858.0Q1143 806 1077.5 770.0Q1012 734 939 719L615 72Q582 6 528.5 -33.0Q475 -72 400 -72V791Q400 833 413.5 872.0Q427 911 451.0 943.5Q475 976 508.0 1001.5Q541 1027 579 1042Q658 1073 740.0 1098.0Q822 1123 903 1150Q930 1231 955.0 1313.0Q980 1395 1011 1474Q1026 1512 1051.5 1545.0Q1077 1578 1109.5 1602.0Q1142 1626 1181.0 1639.5Q1220 1653 1262 1653Z" style="fill:#f03a17;stroke:none" transform="scale(1,-1) translate(0,-256)" /></svg>