<?xml version="1.0" encoding="utf-8" ?>
<svg baseProfile="full" height="256" version="1.1" width="256" xmlns="http://www.w3.org/2000/svg" xmlns:ev="http://www.w3.org/2001/xml-events" xmlns:xlink="http://www.w3.org/1999/xlink"><defs /><path d="M1046 1438Q1075 1438 1096.5 1416.5Q1118 1395 1118 1366Q1118 1345 1107.0 1328.0Q1096 1311 1078 1301Q1032 1276 995.5 1250.5Q959 1225 929.0 1195.0Q899 1165 873.0 1128.5Q847 1092 823 1046Q813 1027 796.5 1016.5Q780 1006 759 1006Q729 1006 708.0 1027.5Q687 1049 687 1079Q687 1096 694 1110Q744 1214 827.5 1297.0Q911 1380 1014 1430Q1030 1438 1046 1438ZM2124 1079Q2124 1049 2103.0 1027.5Q2082 1006 2052 1006Q2031 1006 2014.5 1017.0Q1998 1028 1988 1046Q1963 1093 1937.5 1129.0Q1912 1165 1882.0 1195.0Q1852 1225 1816.0 1250.0Q1780 1275 1733 1301Q1715 1311 1704.0 1328.0Q1693 1345 1693 1365Q1693 1394 1714.0 1416.0Q1735 1438 1765 1438Q1781 1438 1797 1430Q1900 1380 1983.5 1296.5Q2067 1213 2117 1110Q2124 1096 2124 1079Z" style="fill:#d48c00;stroke:none" transform="scale(1,-1) translate(0,-256)" /></svg>