<?xml version="1.0" encoding="utf-8" ?>
<svg baseProfile="full" height="256" version="1.1" width="256" xmlns="http://www.w3.org/2000/svg" xmlns:ev="http://www.w3.org/2001/xml-events" xmlns:xlink="http://www.w3.org/1999/xlink"><defs /><path d="M1047 144Q1047 218 1075.0 283.5Q1103 349 1152.0 397.5Q1201 446 1266.5 474.5Q1332 503 1406 503Q1480 503 1545.5 474.5Q1611 446 1659.5 397.5Q1708 349 1736.5 283.5Q1765 218 1765 144ZM1119 827Q1119 805 1110.5 785.5Q1102 766 1087.0 751.0Q1072 736 1052.5 727.5Q1033 719 1011 719Q988 719 968.5 727.5Q949 736 934.5 750.5Q920 765 911.5 784.5Q903 804 903 827V971Q903 993 911.5 1013.0Q920 1033 935.0 1047.0Q950 1061 969.5 1069.5Q989 1078 1011 1078Q1033 1078 1052.5 1069.5Q1072 1061 1087.0 1046.5Q1102 1032 1110.5 1012.5Q1119 993 1119 971ZM1801 1078Q1823 1078 1842.5 1069.5Q1862 1061 1877.0 1047.0Q1892 1033 1900.5 1013.0Q1909 993 1909 971V827Q1909 804 1900.5 784.5Q1892 765 1877.5 750.5Q1863 736 1843.0 727.5Q1823 719 1801 719Q1778 719 1758.5 727.5Q1739 736 1725.0 751.0Q1711 766 1702.5 785.5Q1694 805 1694 827V971Q1694 993 1702.5 1012.5Q1711 1032 1725.5 1046.5Q1740 1061 1759.5 1069.5Q1779 1078 1801 1078Z" style="fill:#000000;stroke:none" transform="scale(1,-1) translate(0,-256)" /></svg>