<?xml version="1.0" encoding="utf-8" ?>
<svg baseProfile="full" height="256" version="1.1" width="256" xmlns="http://www.w3.org/2000/svg" xmlns:ev="http://www.w3.org/2001/xml-events" xmlns:xlink="http://www.w3.org/1999/xlink"><defs /><path d="M1909 935Q1938 935 1959.5 913.5Q1981 892 1981 863V432Q1981 403 1963 381L1844 237Q1827 216 1801 216Q1787 216 1777.0 221.5Q1767 227 1759 237L1639 381Q1630 392 1626.0 405.0Q1622 418 1622 432V863Q1622 892 1643.0 913.5Q1664 935 1693 935ZM2340 1366Q2370 1366 2391.0 1345.0Q2412 1324 2412 1294V1078H2268V1294Q2268 1323 2289.5 1344.5Q2311 1366 2340 1366ZM1478 -287Q1478 -257 1489.5 -231.0Q1501 -205 1520.5 -185.5Q1540 -166 1566.0 -155.0Q1592 -144 1622 -144Q1630 -152 1640.0 -158.0Q1650 -164 1661 -164Q1671 -164 1679.5 -158.0Q1688 -152 1693 -144H1765V-287H1693Q1685 -282 1676.0 -278.5Q1667 -275 1657 -275Q1639 -275 1622 -287ZM2268 -144Q2298 -144 2324.0 -155.0Q2350 -166 2369.5 -185.5Q2389 -205 2400.5 -231.0Q2412 -257 2412 -287H2197Q2186 -276 2182.0 -263.0Q2178 -250 2178 -236Q2178 -217 2183.5 -198.5Q2189 -180 2197 -163Q2232 -144 2268 -144Z" style="fill:#cccccc;stroke:none" transform="scale(1,-1) translate(0,-256)" /></svg>