<?xml version="1.0" encoding="utf-8" ?>
<svg baseProfile="full" height="256" version="1.1" width="256" xmlns="http://www.w3.org/2000/svg" xmlns:ev="http://www.w3.org/2001/xml-events" xmlns:xlink="http://www.w3.org/1999/xlink"><defs /><path d="M2340 1126 2412 1078V863Q2412 833 2391.0 812.0Q2370 791 2340 791H2053V360L2340 -215L2178 -254L1840 354L1625 138L1765 -144V-149L1622 -215L1429 116Q1419 133 1413.0 147.5Q1407 162 1407 182Q1407 225 1438 256L1689 508L1693 506V791H1651L1385 524Q1364 503 1334 503H1047Q1031 503 1021.5 509.5Q1012 516 1007.0 526.5Q1002 537 1000.5 549.5Q999 562 999 575Q999 588 1000.5 600.5Q1002 613 1007.0 623.5Q1012 634 1021.5 640.5Q1031 647 1047 647H1304L1571 914Q1585 928 1604.0 932.5Q1623 937 1643 937Q1656 937 1668.5 936.0Q1681 935 1693 935Q1716 920 1742.5 911.5Q1769 903 1797 903Q1827 903 1855.0 912.0Q1883 921 1909 935H2268V1078ZM1909 1186Q1909 1154 1898.0 1125.0Q1887 1096 1868.0 1072.5Q1849 1049 1822.5 1032.5Q1796 1016 1765 1010L1698 1105Q1698 1122 1697.5 1141.5Q1697 1161 1697 1181Q1697 1207 1698.0 1231.5Q1699 1256 1704 1276Q1712 1312 1731.5 1355.0Q1751 1398 1765 1434Q1796 1428 1822.5 1411.5Q1849 1395 1868.0 1371.5Q1887 1348 1898.0 1318.5Q1909 1289 1909 1258Z" style="fill:#ffffff;stroke:none" transform="scale(1,-1) translate(0,-256)" /></svg>