<?xml version="1.0" encoding="utf-8" ?>
<svg baseProfile="full" height="256" version="1.1" width="256" xmlns="http://www.w3.org/2000/svg" xmlns:ev="http://www.w3.org/2001/xml-events" xmlns:xlink="http://www.w3.org/1999/xlink"><defs /><path d="M2556 863Q2556 818 2539.0 779.0Q2522 740 2492.5 710.5Q2463 681 2424.0 664.0Q2385 647 2340 647H2197V393L2413 -40Q2446 -59 2472.0 -86.0Q2498 -113 2517.0 -145.0Q2536 -177 2546.0 -213.0Q2556 -249 2556 -287V-431H1334Q1334 -405 1333.5 -380.5Q1333 -356 1333 -330Q1333 -268 1344.5 -215.0Q1356 -162 1395 -111L1308 38Q1287 74 1275.0 107.0Q1263 140 1263 182Q1263 238 1287 288H831V431H436Q398 431 365.5 445.0Q333 459 308.5 483.5Q284 508 270.0 540.5Q256 573 256 611Q256 648 270.0 681.0Q284 714 308.5 738.5Q333 763 365.5 777.0Q398 791 436 791H831V863H1317L1461 1007Q1440 1037 1429.0 1065.0Q1418 1093 1413.0 1121.5Q1408 1150 1407.0 1180.0Q1406 1210 1406 1244V1258Q1406 1325 1431.5 1383.5Q1457 1442 1501.0 1486.0Q1545 1530 1603.5 1555.5Q1662 1581 1729 1581Q1796 1581 1855.0 1555.5Q1914 1530 1958.0 1486.5Q2002 1443 2027.5 1384.0Q2053 1325 2053 1258V1227Q2053 1187 2050.0 1151.5Q2047 1116 2034 1078H2125V1294Q2125 1339 2142.0 1378.0Q2159 1417 2188.0 1446.5Q2217 1476 2256.0 1493.0Q2295 1510 2340 1510Q2385 1510 2424.0 1493.0Q2463 1476 2492.5 1446.5Q2522 1417 2539.0 1378.0Q2556 1339 2556 1294Z" style="fill:#000000;stroke:none" transform="scale(1,-1) translate(0,-256)" /></svg>