<?xml version="1.0" encoding="utf-8" ?>
<svg baseProfile="full" height="256" version="1.1" width="256" xmlns="http://www.w3.org/2000/svg" xmlns:ev="http://www.w3.org/2001/xml-events" xmlns:xlink="http://www.w3.org/1999/xlink"><defs /><path d="M975 719H1118V431H975V575H436Q421 575 410.5 585.5Q400 596 400 611Q400 626 410.5 636.5Q421 647 436 647H975ZM1729 1438Q1749 1438 1765 1434V1010Q1749 1006 1729 1006Q1692 1006 1659.5 1020.0Q1627 1034 1602.5 1058.5Q1578 1083 1564.0 1116.0Q1550 1149 1550 1186V1258Q1550 1295 1564.0 1328.0Q1578 1361 1602.5 1385.5Q1627 1410 1659.5 1424.0Q1692 1438 1729 1438Z" style="fill:#757575;stroke:none" transform="scale(1,-1) translate(0,-256)" /></svg>