<?xml version="1.0" encoding="utf-8" ?>
<svg baseProfile="full" height="256" version="1.1" width="256" xmlns="http://www.w3.org/2000/svg" xmlns:ev="http://www.w3.org/2001/xml-events" xmlns:xlink="http://www.w3.org/1999/xlink"><defs /><path d="M2125 1366V1184Q2125 1118 2099.5 1059.5Q2074 1001 2030.5 957.5Q1987 914 1928.5 888.5Q1870 863 1804 863H1693V719L1642 683L1693 647V252Q1693 222 1682.0 196.0Q1671 170 1651.5 150.5Q1632 131 1606.0 119.5Q1580 108 1550 108H975Q945 108 918.5 119.0Q892 130 872.5 149.5Q853 169 842.0 195.5Q831 222 831 252V647L867 683L831 719V863H721Q655 863 596.5 888.5Q538 914 494.5 957.5Q451 1001 425.5 1059.5Q400 1118 400 1184V1366H582Q640 1366 693.5 1346.0Q747 1326 789.0 1290.5Q831 1255 859.5 1206.0Q888 1157 898 1099H1626Q1636 1157 1665.0 1206.0Q1694 1255 1736.0 1290.5Q1778 1326 1831.0 1346.0Q1884 1366 1943 1366Z" style="fill:#ffc83d;stroke:none" transform="scale(1,-1) translate(0,-256)" /></svg>