<?xml version="1.0" encoding="utf-8" ?>
<svg baseProfile="full" height="256" version="1.1" width="256" xmlns="http://www.w3.org/2000/svg" xmlns:ev="http://www.w3.org/2001/xml-events" xmlns:xlink="http://www.w3.org/1999/xlink"><defs /><path d="M1190 144Q1190 114 1169.0 93.0Q1148 72 1118 72Q1089 72 1068.0 93.5Q1047 115 1047 144Q1047 173 1068.0 194.5Q1089 216 1118 216Q1148 216 1169.0 195.0Q1190 174 1190 144ZM1478 144Q1478 114 1457.0 93.0Q1436 72 1406 72Q1376 72 1355.0 93.0Q1334 114 1334 144Q1334 174 1355.0 195.0Q1376 216 1406 216Q1436 216 1457.0 195.0Q1478 174 1478 144ZM903 791Q933 791 954.0 770.0Q975 749 975 719V647Q975 617 954.0 596.0Q933 575 903 575Q873 575 852.0 596.0Q831 617 831 647V719Q831 749 852.0 770.0Q873 791 903 791ZM1622 791Q1651 791 1672.0 769.5Q1693 748 1693 719V647Q1693 618 1672.0 596.5Q1651 575 1622 575Q1592 575 1571.0 596.0Q1550 617 1550 647V719Q1550 749 1571.0 770.0Q1592 791 1622 791Z" style="fill:#000000;stroke:none" transform="scale(1,-1) translate(0,-256)" /></svg>