<?xml version="1.0" encoding="utf-8" ?>
<svg baseProfile="full" height="256" version="1.1" width="256" xmlns="http://www.w3.org/2000/svg" xmlns:ev="http://www.w3.org/2001/xml-events" xmlns:xlink="http://www.w3.org/1999/xlink"><defs /><path d="M1550 1457Q1550 1428 1549.0 1399.5Q1548 1371 1548 1343Q1548 1310 1550.5 1278.0Q1553 1246 1561.5 1215.0Q1570 1184 1585.0 1155.0Q1600 1126 1626 1099Q1622 1077 1621.0 1051.0Q1620 1025 1620 997Q1620 962 1621.0 927.0Q1622 892 1622 863Q1592 863 1566.0 851.5Q1540 840 1520.5 820.5Q1501 801 1489.5 775.0Q1478 749 1478 719V298Q1513 259 1531.5 210.0Q1550 161 1550 108Q1550 62 1549.5 30.5Q1549 -1 1546.5 -24.0Q1544 -47 1538.0 -63.5Q1532 -80 1521.5 -95.5Q1511 -111 1494.5 -128.0Q1478 -145 1454 -168Q1443 -178 1431.5 -189.5Q1420 -201 1406 -215Q1374 -247 1342.0 -267.0Q1310 -287 1262 -287Q1226 -287 1196.5 -273.5Q1167 -260 1141.5 -239.0Q1116 -218 1093.5 -192.5Q1071 -167 1047 -144Q1015 -112 995.0 -80.0Q975 -48 975 0V70Q975 101 977.0 130.5Q979 160 986.5 188.0Q994 216 1008.0 243.0Q1022 270 1047 298V719Q1047 749 1035.5 775.0Q1024 801 1004.5 820.5Q985 840 959.0 851.5Q933 863 903 863Q903 892 904.0 925.0Q905 958 905 991Q905 1020 904.0 1047.0Q903 1074 898 1099Q935 1138 955.0 1189.0Q975 1240 975 1294V1457Q942 1477 922.5 1510.0Q903 1543 903 1581Q903 1611 914.0 1637.0Q925 1663 944.5 1682.5Q964 1702 990.5 1713.5Q1017 1725 1047 1725Q1077 1725 1103.0 1713.5Q1129 1702 1148.5 1682.5Q1168 1663 1179.0 1637.0Q1190 1611 1190 1581Q1190 1543 1170.5 1510.0Q1151 1477 1118 1457V1294Q1118 1264 1129.5 1238.0Q1141 1212 1160.5 1192.5Q1180 1173 1206.0 1161.5Q1232 1150 1262 1150Q1292 1150 1318.0 1161.5Q1344 1173 1363.5 1192.5Q1383 1212 1394.5 1238.0Q1406 1264 1406 1294V1457Q1373 1477 1353.5 1510.0Q1334 1543 1334 1581Q1334 1611 1345.0 1637.0Q1356 1663 1375.5 1682.5Q1395 1702 1421.5 1713.5Q1448 1725 1478 1725Q1508 1725 1534.0 1713.5Q1560 1702 1579.5 1682.5Q1599 1663 1610.5 1637.0Q1622 1611 1622 1581Q1622 1543 1602.5 1510.0Q1583 1477 1550 1457ZM1765 1006V1045Q1765 1082 1779.0 1114.0Q1793 1146 1817.5 1170.0Q1842 1194 1874.5 1208.0Q1907 1222 1943 1222H1981V1184Q1981 1148 1967.0 1115.5Q1953 1083 1929.0 1058.5Q1905 1034 1873.0 1020.0Q1841 1006 1804 1006ZM721 1006Q684 1006 651.5 1020.0Q619 1034 595.0 1058.0Q571 1082 557.0 1114.5Q543 1147 543 1184V1222H582Q618 1222 650.5 1208.0Q683 1194 707.0 1170.0Q731 1146 745.0 1113.5Q759 1081 759 1045V1006ZM903 467Q903 482 913.5 492.5Q924 503 939 503Q954 503 964.5 492.5Q975 482 975 467Q975 453 964.0 442.0Q953 431 939 431Q925 431 914.0 442.0Q903 453 903 467ZM903 324Q903 338 914.0 349.0Q925 360 939 360Q953 360 964.0 349.0Q975 338 975 324Q975 309 964.5 298.5Q954 288 939 288Q924 288 913.5 298.5Q903 309 903 324ZM1550 467Q1550 482 1560.5 492.5Q1571 503 1586 503Q1600 503 1611.0 492.0Q1622 481 1622 467Q1622 453 1611.0 442.0Q1600 431 1586 431Q1572 431 1561.0 442.0Q1550 453 1550 467ZM1550 324Q1550 338 1561.0 349.0Q1572 360 1586 360Q1600 360 1611.0 349.0Q1622 338 1622 324Q1622 310 1611.0 299.0Q1600 288 1586 288Q1571 288 1560.5 298.5Q1550 309 1550 324Z" style="fill:#d48c00;stroke:none" transform="scale(1,-1) translate(0,-256)" /></svg>