<?xml version="1.0" encoding="utf-8" ?>
<svg baseProfile="full" height="256" version="1.1" width="256" xmlns="http://www.w3.org/2000/svg" xmlns:ev="http://www.w3.org/2001/xml-events" xmlns:xlink="http://www.w3.org/1999/xlink"><defs /><path d="M1262 -431Q1183 -431 1124.5 -399.0Q1066 -367 1013 -313Q976 -276 943.0 -243.5Q910 -211 885.0 -175.5Q860 -140 845.5 -97.5Q831 -55 831 3Q764 42 725.5 108.0Q687 174 687 252V720Q596 726 517.0 765.5Q438 805 380.0 867.5Q322 930 289.0 1011.5Q256 1093 256 1184V1510H582Q689 1510 785 1463Q759 1520 759 1581Q759 1641 781.5 1693.5Q804 1746 843.0 1785.0Q882 1824 934.5 1846.5Q987 1869 1047 1869Q1109 1869 1165.0 1843.5Q1221 1818 1262 1771Q1304 1818 1359.5 1843.5Q1415 1869 1478 1869Q1537 1869 1589.5 1846.0Q1642 1823 1681.0 1784.0Q1720 1745 1742.5 1692.5Q1765 1640 1765 1581Q1765 1521 1740 1463Q1836 1510 1943 1510H2268V1184Q2268 1093 2235.0 1011.5Q2202 930 2144.0 867.5Q2086 805 2007.0 765.5Q1928 726 1837 720V252Q1837 174 1798.5 108.0Q1760 42 1693 3Q1693 -38 1685.0 -72.0Q1677 -106 1662.0 -136.0Q1647 -166 1625.0 -193.5Q1603 -221 1575 -249Q1539 -285 1506.5 -318.0Q1474 -351 1438.5 -376.0Q1403 -401 1361.0 -416.0Q1319 -431 1262 -431Z" style="fill:#000000;stroke:none" transform="scale(1,-1) translate(0,-256)" /></svg>