<?xml version="1.0" encoding="utf-8" ?>
<svg baseProfile="full" height="256" version="1.1" width="256" xmlns="http://www.w3.org/2000/svg" xmlns:ev="http://www.w3.org/2001/xml-events" xmlns:xlink="http://www.w3.org/1999/xlink"><defs /><path d="M2222 1379 2281 1438H2556V719H2281L2268 731V216Q2268 157 2245.0 105.0Q2222 53 2183.0 13.5Q2144 -26 2091.5 -49.0Q2039 -72 1981 -72H759Q700 -72 648.0 -49.0Q596 -26 557.0 13.5Q518 53 495.0 105.0Q472 157 472 216V647H256V1510H1981Q2054 1510 2118.0 1475.0Q2182 1440 2222 1379Z" style="fill:#000000;stroke:none" transform="scale(1,-1) translate(0,-256)" /></svg>