<?xml version="1.0" encoding="utf-8" ?>
<svg baseProfile="full" height="256" version="1.1" width="256" xmlns="http://www.w3.org/2000/svg" xmlns:ev="http://www.w3.org/2001/xml-events" xmlns:xlink="http://www.w3.org/1999/xlink"><defs /><path d="M1909 503Q1939 503 1960.0 482.0Q1981 461 1981 431V72H759V431Q759 461 780.0 482.0Q801 503 831 503ZM1190 1222H2197V935H1190Q1160 935 1134.0 946.0Q1108 957 1088.5 976.5Q1069 996 1058.0 1022.0Q1047 1048 1047 1078Q1047 1108 1058.0 1134.0Q1069 1160 1088.5 1179.5Q1108 1199 1134.0 1210.5Q1160 1222 1190 1222Z" style="fill:#a6a6a6;stroke:none" transform="scale(1,-1) translate(0,-256)" /></svg>