<?xml version="1.0" encoding="utf-8" ?>
<svg baseProfile="full" height="256" version="1.1" width="256" xmlns="http://www.w3.org/2000/svg" xmlns:ev="http://www.w3.org/2001/xml-events" xmlns:xlink="http://www.w3.org/1999/xlink"><defs /><path d="M2197 1222H2268L2348 1091L2268 935H2197L2125 1071V216Q2125 186 2113.5 160.0Q2102 134 2082.5 114.5Q2063 95 2037.0 83.5Q2011 72 1981 72L1872 142H870L759 72Q729 72 703.0 83.5Q677 95 657.5 114.5Q638 134 626.5 160.0Q615 186 615 216V791Q615 801 610.5 812.0Q606 823 600.0 834.5Q594 846 589.5 857.0Q585 868 585 878V1252Q585 1254 589.0 1270.5Q593 1287 598.5 1307.5Q604 1328 608.5 1345.5Q613 1363 615 1366H1981Q2011 1366 2037.0 1354.5Q2063 1343 2082.5 1323.5Q2102 1304 2113.5 1278.0Q2125 1252 2125 1222V1103Z" style="fill:#e5e5e5;stroke:none" transform="scale(1,-1) translate(0,-256)" /></svg>