<?xml version="1.0" encoding="utf-8" ?>
<svg baseProfile="full" height="256" version="1.1" width="256" xmlns="http://www.w3.org/2000/svg" xmlns:ev="http://www.w3.org/2001/xml-events" xmlns:xlink="http://www.w3.org/1999/xlink"><defs /><path d="M1883 846Q1909 825 1909 791V503L1949 459V263L1909 216V0Q1909 -29 1887.5 -50.5Q1866 -72 1837 -72V-144H903V-72Q874 -72 852.5 -50.5Q831 -29 831 0V791Q831 825 857 846L890 919L1003 863H1737Q1738 863 1757.0 869.5Q1776 876 1799.5 883.5Q1823 891 1843.5 898.0Q1864 905 1869 907Z" style="fill:#2b2b2b;stroke:none" transform="scale(1,-1) translate(0,-256)" /></svg>