<?xml version="1.0" encoding="utf-8" ?>
<svg baseProfile="full" height="256" version="1.1" width="256" xmlns="http://www.w3.org/2000/svg" xmlns:ev="http://www.w3.org/2001/xml-events" xmlns:xlink="http://www.w3.org/1999/xlink"><defs /><path d="M1729 575Q1744 575 1754.5 564.5Q1765 554 1765 539Q1765 524 1754.5 513.5Q1744 503 1729 503H1011Q996 503 985.5 513.5Q975 524 975 539Q975 554 985.5 564.5Q996 575 1011 575ZM1729 360Q1743 360 1754.0 349.0Q1765 338 1765 324Q1765 309 1754.5 298.5Q1744 288 1729 288H1011Q996 288 985.5 298.5Q975 309 975 324Q975 338 986.0 349.0Q997 360 1011 360ZM1981 1142 1980 1137Q1980 1137 1973.0 1117.0Q1966 1097 1956.0 1066.5Q1946 1036 1934.0 1000.5Q1922 965 1911.5 932.5Q1901 900 1893.0 876.0Q1885 852 1883 846Q1863 863 1837 863H1737Q1763 943 1788.5 1023.5Q1814 1104 1846 1182Q1854 1202 1872.0 1212.0Q1890 1222 1910 1222Q1915 1222 1919.0 1221.5Q1923 1221 1928 1220Q1942 1217 1952.0 1209.5Q1962 1202 1968.5 1191.0Q1975 1180 1978.0 1167.0Q1981 1154 1981 1142ZM1003 863H903Q877 863 857 846Q830 918 807.5 991.5Q785 1065 760 1137Q759 1141 759 1149Q759 1172 773.5 1193.5Q788 1215 811 1219Q821 1222 831 1222Q853 1222 871.0 1209.5Q889 1197 898 1177Q909 1153 916.0 1128.5Q923 1104 931 1079Q949 1025 966.5 971.0Q984 917 1003 863ZM1729 144Q1744 144 1754.5 133.5Q1765 123 1765 108Q1765 93 1754.5 82.5Q1744 72 1729 72H1154Q1140 72 1129.0 83.0Q1118 94 1118 108Q1118 122 1129.0 133.0Q1140 144 1154 144ZM2125 575H2197V144H2125ZM1909 216V503H1981V216Z" style="fill:#757575;stroke:none" transform="scale(1,-1) translate(0,-256)" /></svg>