<?xml version="1.0" encoding="utf-8" ?>
<svg baseProfile="full" height="256" version="1.1" width="256" xmlns="http://www.w3.org/2000/svg" xmlns:ev="http://www.w3.org/2001/xml-events" xmlns:xlink="http://www.w3.org/1999/xlink"><defs /><path d="M1909 1797Q1998 1797 2081.0 1774.0Q2164 1751 2235.5 1708.5Q2307 1666 2366.0 1607.0Q2425 1548 2467.5 1476.5Q2510 1405 2533.0 1322.0Q2556 1239 2556 1150Q2556 1010 2499.5 886.0Q2443 762 2340 668V0H2091L2053 19V13Q2053 -38 2037.5 -82.0Q2022 -126 1981 -160V-287H759V-160Q724 -130 705.5 -88.0Q687 -46 687 0V593Q593 617 514.0 670.5Q435 724 377.5 798.5Q320 873 288.0 963.0Q256 1053 256 1150Q256 1268 301.5 1373.0Q347 1478 425.0 1556.0Q503 1634 607.5 1679.5Q712 1725 831 1725Q908 1725 981.0 1705.0Q1054 1685 1118.5 1647.5Q1183 1610 1236.5 1557.0Q1290 1504 1329 1437Q1370 1519 1431.5 1586.0Q1493 1653 1568.0 1699.5Q1643 1746 1730.0 1771.5Q1817 1797 1909 1797Z" style="fill:#000000;stroke:none" transform="scale(1,-1) translate(0,-256)" /></svg>