<?xml version="1.0" encoding="utf-8" ?>
<svg baseProfile="full" height="256" version="1.1" width="256" xmlns="http://www.w3.org/2000/svg" xmlns:ev="http://www.w3.org/2001/xml-events" xmlns:xlink="http://www.w3.org/1999/xlink"><defs /><path d="M1909 1653Q2013 1653 2104.5 1613.5Q2196 1574 2264.5 1505.5Q2333 1437 2372.5 1345.5Q2412 1254 2412 1150Q2412 1046 2372.5 954.5Q2333 863 2264.5 794.5Q2196 726 2104.5 686.5Q2013 647 1909 647Q1805 647 1713.0 686.5Q1621 726 1553.0 794.0Q1485 862 1445.5 954.0Q1406 1046 1406 1150Q1406 1254 1445.5 1345.5Q1485 1437 1553.5 1505.5Q1622 1574 1713.5 1613.5Q1805 1653 1909 1653ZM831 1581Q920 1581 998.5 1547.0Q1077 1513 1135.5 1454.5Q1194 1396 1228.0 1317.5Q1262 1239 1262 1150Q1262 1061 1228.0 982.5Q1194 904 1135.5 845.5Q1077 787 998.5 753.0Q920 719 831 719Q742 719 663.5 753.0Q585 787 526.5 845.5Q468 904 434.0 982.5Q400 1061 400 1150Q400 1239 434.0 1317.5Q468 1396 526.5 1454.5Q585 1513 663.5 1547.0Q742 1581 831 1581ZM1981 725Q2065 739 2135.5 783.0Q2206 827 2257 896L1988 1030L1981 1026ZM1561 896Q1612 827 1682.5 783.0Q1753 739 1837 725V1026L1830 1030ZM2257 1405Q2206 1472 2135.0 1516.5Q2064 1561 1981 1575V1275L1988 1270ZM1837 1575Q1754 1561 1683.0 1516.5Q1612 1472 1561 1405L1830 1270L1837 1275ZM1478 1150Q1478 1084 1497 1024L1748 1150L1497 1276Q1478 1216 1478 1150ZM2340 1150Q2340 1214 2322 1276L2070 1150L2322 1024Q2340 1085 2340 1150ZM1183 1222Q1170 1285 1137.0 1339.5Q1104 1394 1053 1433L951 1229L955 1222ZM1053 867Q1104 906 1137.0 960.5Q1170 1015 1183 1078H955L951 1071ZM479 1078Q492 1015 525.0 960.5Q558 906 609 867L711 1071L706 1078ZM609 1433Q558 1394 525.0 1339.5Q492 1285 479 1222H706L711 1229ZM924 1497Q901 1503 877.5 1506.5Q854 1510 831 1510Q808 1510 784.5 1506.5Q761 1503 738 1497L831 1311ZM738 803Q783 791 831 791Q879 791 924 803L831 989Z" style="fill:#cccccc;stroke:none" transform="scale(1,-1) translate(0,-256)" /></svg>