<?xml version="1.0" encoding="utf-8" ?>
<svg baseProfile="full" height="256" version="1.1" width="256" xmlns="http://www.w3.org/2000/svg" xmlns:ev="http://www.w3.org/2001/xml-events" xmlns:xlink="http://www.w3.org/1999/xlink"><defs /><path d="M939 1438Q954 1438 964.5 1427.5Q975 1417 975 1402V1186Q975 1171 964.5 1160.5Q954 1150 939 1150Q933 1150 917.0 1155.5Q901 1161 880.0 1170.0Q859 1179 835.0 1189.5Q811 1200 788.5 1210.0Q766 1220 748.5 1228.0Q731 1236 723 1240Q715 1236 697.5 1228.0Q680 1220 657.5 1210.0Q635 1200 611.0 1189.5Q587 1179 565.5 1170.0Q544 1161 528.5 1155.5Q513 1150 508 1150Q493 1150 482.5 1160.5Q472 1171 472 1186V1402Q472 1417 482.5 1427.5Q493 1438 508 1438Q513 1438 528.5 1432.5Q544 1427 565.5 1418.0Q587 1409 611.0 1398.5Q635 1388 657.5 1378.0Q680 1368 697.5 1359.5Q715 1351 723 1348Q731 1352 748.5 1360.0Q766 1368 788.5 1378.0Q811 1388 835.0 1398.5Q859 1409 880.0 1418.0Q901 1427 917.0 1432.5Q933 1438 939 1438Z" style="fill:#f495bf;stroke:none" transform="scale(1,-1) translate(0,-256)" /></svg>