<?xml version="1.0" encoding="utf-8" ?>
<svg baseProfile="full" height="256" version="1.1" width="256" xmlns="http://www.w3.org/2000/svg" xmlns:ev="http://www.w3.org/2001/xml-events" xmlns:xlink="http://www.w3.org/1999/xlink"><defs /><path d="M1406 1725Q1512 1725 1612.0 1697.5Q1712 1670 1799.5 1619.5Q1887 1569 1960.0 1498.5Q2033 1428 2085.5 1342.0Q2138 1256 2167.0 1156.5Q2196 1057 2196 950Q2196 936 2201.5 910.5Q2207 885 2214.0 857.0Q2221 829 2228.5 802.5Q2236 776 2240 760H1909Q1887 744 1859.0 734.5Q1831 725 1804 725Q1775 725 1746.0 734.0Q1717 743 1694 760Q1689 760 1683.0 760.5Q1677 761 1672 761Q1638 761 1604.5 757.0Q1571 753 1537 753Q1417 753 1323.5 805.0Q1230 857 1172 963Q1167 971 1161.0 984.0Q1155 997 1148.5 1011.5Q1142 1026 1137.0 1039.0Q1132 1052 1131 1061Q1130 1091 1130.0 1115.0Q1130 1139 1130 1159Q1130 1199 1130.5 1225.5Q1131 1252 1131 1276L705 933H615Q615 1042 643.0 1143.5Q671 1245 722.5 1333.0Q774 1421 846.5 1493.0Q919 1565 1007.0 1617.0Q1095 1669 1196.0 1697.0Q1297 1725 1406 1725ZM2412 -144Q2412 -174 2401.0 -200.0Q2390 -226 2370.5 -245.5Q2351 -265 2325.0 -276.0Q2299 -287 2269 -287H2125Q2080 -287 2041.0 -270.0Q2002 -253 1972.5 -224.0Q1943 -195 1926.0 -156.0Q1909 -117 1909 -72V503H2197V0Q2197 -30 2208.0 -56.0Q2219 -82 2238.5 -101.5Q2258 -121 2284.0 -132.5Q2310 -144 2340 -144ZM903 503V-72Q903 -117 886.0 -156.0Q869 -195 839.5 -224.0Q810 -253 771.0 -270.0Q732 -287 687 -287H543Q513 -287 487.0 -276.0Q461 -265 441.5 -245.5Q422 -226 411.0 -200.0Q400 -174 400 -144H472Q502 -144 528.0 -132.5Q554 -121 573.5 -101.5Q593 -82 604.0 -56.0Q615 -30 615 0V503Z" style="fill:#8e562e;stroke:none" transform="scale(1,-1) translate(0,-256)" /></svg>