<?xml version="1.0" encoding="utf-8" ?>
<svg baseProfile="full" height="256" version="1.1" width="256" xmlns="http://www.w3.org/2000/svg" xmlns:ev="http://www.w3.org/2001/xml-events" xmlns:xlink="http://www.w3.org/1999/xlink"><defs /><path d="M1046 288Q1069 288 1083.0 277.5Q1097 267 1110 250Q1140 209 1170.0 176.0Q1200 143 1234.5 120.0Q1269 97 1310.5 84.5Q1352 72 1406 72Q1436 72 1457.0 51.0Q1478 30 1478 0Q1478 -30 1457.0 -51.0Q1436 -72 1406 -72Q1343 -72 1279.5 -54.0Q1216 -36 1160.0 -3.0Q1104 30 1058.0 77.0Q1012 124 984 181Q975 199 975 216Q975 245 996.0 266.5Q1017 288 1046 288ZM1550 503Q1550 473 1538.5 447.0Q1527 421 1507.5 401.5Q1488 382 1462.0 371.0Q1436 360 1406 360Q1376 360 1350.0 371.0Q1324 382 1304.5 401.5Q1285 421 1273.5 447.0Q1262 473 1262 503Z" style="fill:#f7894a;stroke:none" transform="scale(1,-1) translate(0,-256)" /></svg>