<?xml version="1.0" encoding="utf-8" ?>
<svg baseProfile="full" height="256" version="1.1" width="256" xmlns="http://www.w3.org/2000/svg" xmlns:ev="http://www.w3.org/2001/xml-events" xmlns:xlink="http://www.w3.org/1999/xlink"><defs /><path d="M2233 935Q2255 935 2274.5 926.5Q2294 918 2308.5 903.0Q2323 888 2331.5 868.5Q2340 849 2340 827V611Q2340 589 2331.5 569.5Q2323 550 2308.5 535.0Q2294 520 2274.5 511.5Q2255 503 2233 503H2197Q2197 394 2168.5 293.0Q2140 192 2088.5 104.5Q2037 17 1965.0 -55.5Q1893 -128 1805.0 -179.5Q1717 -231 1616.0 -259.0Q1515 -287 1406 -287Q1297 -287 1196.0 -259.0Q1095 -231 1007.0 -179.5Q919 -128 847.0 -55.5Q775 17 723.5 104.5Q672 192 643.5 293.0Q615 394 615 503H579Q557 503 537.5 511.5Q518 520 503.5 535.0Q489 550 480.5 569.5Q472 589 472 611V827Q472 849 480.5 868.5Q489 888 503.5 903.0Q518 918 537.5 926.5Q557 935 579 935H615L1190 1438V1222Q1190 1132 1224.0 1053.5Q1258 975 1316.5 916.5Q1375 858 1453.5 824.5Q1532 791 1622 791H1694Q1708 762 1736.5 747.5Q1765 733 1796 733Q1828 733 1859.5 748.5Q1891 764 1909 791H2197V935Z" style="fill:#ffc83d;stroke:none" transform="scale(1,-1) translate(0,-256)" /></svg>