<?xml version="1.0" encoding="utf-8" ?>
<svg baseProfile="full" height="256" version="1.1" width="256" xmlns="http://www.w3.org/2000/svg" xmlns:ev="http://www.w3.org/2001/xml-events" xmlns:xlink="http://www.w3.org/1999/xlink"><defs /><path d="M2125 -431Q2049 -431 1979.5 -401.0Q1910 -371 1859 -314Q1755 -371 1640.0 -401.0Q1525 -431 1406 -431Q1287 -431 1172.0 -401.0Q1057 -371 953 -314Q918 -352 882.0 -375.5Q846 -399 806.0 -411.5Q766 -424 722.5 -428.0Q679 -432 630 -432Q608 -432 586.5 -432.0Q565 -432 543 -431Q483 -430 431.0 -407.5Q379 -385 340.0 -346.5Q301 -308 278.5 -256.0Q256 -204 256 -144V0H472V384Q406 415 367.0 476.5Q328 538 328 611V827Q328 886 353.0 938.5Q378 991 426 1026Q381 1049 354.5 1092.0Q328 1135 328 1186V1402Q328 1439 342.0 1471.5Q356 1504 380.5 1528.5Q405 1553 438.0 1567.0Q471 1581 508 1581Q549 1581 589.5 1564.5Q630 1548 667 1530L681 1523Q747 1605 829.0 1669.5Q911 1734 1004.0 1778.5Q1097 1823 1198.5 1846.0Q1300 1869 1406 1869Q1581 1869 1739.0 1807.5Q1897 1746 2021.5 1637.0Q2146 1528 2227.5 1380.0Q2309 1232 2332 1058Q2366 1043 2394.0 1019.0Q2422 995 2442.0 965.0Q2462 935 2473.0 899.5Q2484 864 2484 827V611Q2484 538 2445.0 476.5Q2406 415 2340 384V0H2556V-144Q2556 -203 2533.5 -255.5Q2511 -308 2472.0 -347.0Q2433 -386 2380.5 -408.5Q2328 -431 2269 -431Z" style="fill:#000000;stroke:none" transform="scale(1,-1) translate(0,-256)" /></svg>