<?xml version="1.0" encoding="utf-8" ?>
<svg baseProfile="full" height="256" version="1.1" width="256" xmlns="http://www.w3.org/2000/svg" xmlns:ev="http://www.w3.org/2001/xml-events" xmlns:xlink="http://www.w3.org/1999/xlink"><defs /><path d="M975 1438Q1088 1438 1194.0 1455.0Q1300 1472 1406 1510Q1512 1548 1618.0 1564.5Q1724 1581 1837 1581Q1946 1581 2056.0 1565.5Q2166 1550 2268 1510V503Q2167 544 2056.0 559.5Q1945 575 1837 575Q1724 575 1618.0 558.0Q1512 541 1406 503Q1300 465 1194.0 448.0Q1088 431 975 431Q909 431 847.5 437.0Q786 443 727.0 454.5Q668 466 608.5 483.0Q549 500 487 522V1515Q501 1513 515.0 1512.5Q529 1512 543 1510Q555 1508 566.0 1502.5Q577 1497 589 1493Q608 1487 627.0 1482.0Q646 1477 665 1472Q740 1453 818.5 1445.5Q897 1438 975 1438Z" style="fill:#383838;stroke:none" transform="scale(1,-1) translate(0,-256)" /></svg>