<?xml version="1.0" encoding="utf-8" ?>
<svg baseProfile="full" height="256" version="1.1" width="256" xmlns="http://www.w3.org/2000/svg" xmlns:ev="http://www.w3.org/2001/xml-events" xmlns:xlink="http://www.w3.org/1999/xlink"><defs /><path d="M2340 827Q2340 710 2314.5 597.5Q2289 485 2240.0 381.5Q2191 278 2120.0 187.0Q2049 96 1959 22Q1972 -3 1988.5 -32.5Q2005 -62 2019.5 -93.0Q2034 -124 2043.5 -155.5Q2053 -187 2053 -215Q2053 -260 2036.0 -299.0Q2019 -338 1989.5 -367.5Q1960 -397 1921.0 -414.0Q1882 -431 1837 -431Q1783 -431 1744.0 -410.5Q1705 -390 1676.5 -357.0Q1648 -324 1626.5 -282.0Q1605 -240 1586 -198L1577 -178Q1508 -197 1438.5 -206.0Q1369 -215 1298 -215Q1227 -215 1157.5 -206.0Q1088 -197 1019 -178L1011 -196Q992 -238 970.5 -280.0Q949 -322 920.0 -355.5Q891 -389 852.0 -410.0Q813 -431 759 -431Q715 -431 675.5 -414.0Q636 -397 606.5 -367.5Q577 -338 560.0 -298.5Q543 -259 543 -215Q543 -187 553.0 -156.0Q563 -125 577.5 -93.5Q592 -62 608.0 -32.0Q624 -2 637 22Q546 96 475.0 187.0Q404 278 355.5 381.5Q307 485 281.5 597.5Q256 710 256 827Q256 970 293.5 1103.0Q331 1236 399.0 1352.0Q467 1468 562.0 1563.0Q657 1658 773.0 1726.0Q889 1794 1022.0 1831.5Q1155 1869 1298 1869Q1441 1869 1574.0 1831.5Q1707 1794 1823.0 1726.0Q1939 1658 2034.0 1563.0Q2129 1468 2197.0 1352.0Q2265 1236 2302.5 1103.0Q2340 970 2340 827Z" style="fill:#000000;stroke:none" transform="scale(1,-1) translate(0,-256)" /></svg>