<?xml version="1.0" encoding="utf-8" ?>
<svg baseProfile="full" height="256" version="1.1" width="256" xmlns="http://www.w3.org/2000/svg" xmlns:ev="http://www.w3.org/2001/xml-events" xmlns:xlink="http://www.w3.org/1999/xlink"><defs /><path d="M1944 1422 1385 863H2176Q2176 854 2176.5 845.0Q2177 836 2177 827Q2177 818 2176.5 809.0Q2176 800 2176 791H1385L1944 232Q1920 205 1893 181L1334 740V-51Q1325 -51 1316.0 -51.5Q1307 -52 1298 -52Q1289 -52 1280.0 -51.5Q1271 -51 1262 -51V740L703 181Q676 205 652 232L1211 791H420V863H1211L652 1422Q676 1449 703 1473L1262 914V1704Q1271 1705 1280.0 1705.0Q1289 1705 1298 1705Q1307 1705 1316.0 1705.0Q1325 1705 1334 1704V914L1893 1473Q1920 1449 1944 1422ZM1334 812V842L1313 863H1283L1262 842V812L1283 791H1313Z" style="fill:#cccccc;stroke:none" transform="scale(1,-1) translate(0,-256)" /></svg>