<?xml version="1.0" encoding="utf-8" ?>
<svg baseProfile="full" height="256" version="1.1" width="256" xmlns="http://www.w3.org/2000/svg" xmlns:ev="http://www.w3.org/2001/xml-events" xmlns:xlink="http://www.w3.org/1999/xlink"><defs /><path d="M1406 827Q1406 804 1397.5 784.5Q1389 765 1374.5 750.5Q1360 736 1340.0 727.5Q1320 719 1298 719Q1276 719 1256.5 727.5Q1237 736 1222.0 751.0Q1207 766 1198.5 785.5Q1190 805 1190 827Q1190 849 1198.5 868.5Q1207 888 1222.0 903.0Q1237 918 1256.5 926.5Q1276 935 1298 935Q1320 935 1339.5 926.5Q1359 918 1374.0 903.0Q1389 888 1397.5 868.5Q1406 849 1406 827Z" style="fill:#f7b189;stroke:none" transform="scale(1,-1) translate(0,-256)" /></svg>