<?xml version="1.0" encoding="utf-8" ?>
<svg baseProfile="full" height="256" version="1.1" width="256" xmlns="http://www.w3.org/2000/svg" xmlns:ev="http://www.w3.org/2001/xml-events" xmlns:xlink="http://www.w3.org/1999/xlink"><defs /><path d="M1765 1510H1981V1474Q1981 1451 1972.5 1431.5Q1964 1412 1949.5 1397.5Q1935 1383 1915.0 1374.5Q1895 1366 1873 1366Q1851 1366 1831.5 1374.5Q1812 1383 1797.0 1398.0Q1782 1413 1773.5 1432.5Q1765 1452 1765 1474ZM615 1510H831V1474Q831 1451 822.5 1431.5Q814 1412 799.5 1397.5Q785 1383 765.0 1374.5Q745 1366 723 1366Q701 1366 681.5 1374.5Q662 1383 647.0 1398.0Q632 1413 623.5 1432.5Q615 1452 615 1474ZM1765 288H1981V252Q1981 229 1972.5 209.5Q1964 190 1949.5 175.5Q1935 161 1915.0 152.5Q1895 144 1873 144Q1851 144 1831.5 152.5Q1812 161 1797.0 176.0Q1782 191 1773.5 210.5Q1765 230 1765 252ZM615 288H831V252Q831 229 822.5 209.5Q814 190 799.5 175.5Q785 161 765.0 152.5Q745 144 723 144Q701 144 681.5 152.5Q662 161 647.0 176.0Q632 191 623.5 210.5Q615 230 615 252ZM1190 1725H1406V1689Q1406 1667 1397.5 1647.5Q1389 1628 1374.0 1613.0Q1359 1598 1339.5 1589.5Q1320 1581 1298 1581Q1276 1581 1256.5 1589.5Q1237 1598 1222.0 1613.0Q1207 1628 1198.5 1647.5Q1190 1667 1190 1689ZM1190 0H1406V-36Q1406 -58 1397.5 -77.5Q1389 -97 1374.0 -112.0Q1359 -127 1339.5 -135.5Q1320 -144 1298 -144Q1276 -144 1256.5 -135.5Q1237 -127 1222.0 -112.0Q1207 -97 1198.5 -77.5Q1190 -58 1190 -36ZM328 863H543V827Q543 805 534.5 785.5Q526 766 512.0 751.0Q498 736 478.0 727.5Q458 719 436 719Q413 719 393.5 727.5Q374 736 359.5 750.5Q345 765 336.5 784.5Q328 804 328 827ZM2053 863H2268V827Q2268 805 2259.5 785.5Q2251 766 2237.0 751.0Q2223 736 2203.0 727.5Q2183 719 2161 719Q2138 719 2118.5 727.5Q2099 736 2084.5 750.5Q2070 765 2061.5 784.5Q2053 804 2053 827Z" style="fill:#f2f2f2;stroke:none" transform="scale(1,-1) translate(0,-256)" /></svg>