<?xml version="1.0" encoding="utf-8" ?>
<svg baseProfile="full" height="256" version="1.1" width="256" xmlns="http://www.w3.org/2000/svg" xmlns:ev="http://www.w3.org/2001/xml-events" xmlns:xlink="http://www.w3.org/1999/xlink"><defs /><path d="M1298 1725Q1422 1725 1537.0 1693.0Q1652 1661 1751.5 1602.5Q1851 1544 1933.5 1462.0Q2016 1380 2074.5 1280.0Q2133 1180 2165.0 1065.5Q2197 951 2197 827Q2197 703 2165.0 588.0Q2133 473 2074.5 373.5Q2016 274 1933.5 191.5Q1851 109 1751.5 50.5Q1652 -8 1537.0 -40.0Q1422 -72 1298 -72Q1174 -72 1059.5 -40.0Q945 -8 845.0 50.5Q745 109 663.0 191.5Q581 274 522.5 373.5Q464 473 432.0 588.0Q400 703 400 827Q400 951 432.0 1065.5Q464 1180 522.5 1280.0Q581 1380 663.0 1462.0Q745 1544 845.0 1602.5Q945 1661 1059.5 1693.0Q1174 1725 1298 1725ZM1298 0Q1412 0 1518.0 29.5Q1624 59 1715.5 113.0Q1807 167 1882.5 242.5Q1958 318 2012.0 409.5Q2066 501 2095.5 607.0Q2125 713 2125 827Q2125 941 2095.5 1046.5Q2066 1152 2012.0 1244.0Q1958 1336 1882.5 1411.0Q1807 1486 1715.0 1540.0Q1623 1594 1517.5 1623.5Q1412 1653 1298 1653Q1184 1653 1078.5 1623.5Q973 1594 881.0 1540.0Q789 1486 714.0 1411.0Q639 1336 585.0 1244.0Q531 1152 501.5 1046.5Q472 941 472 827Q472 713 501.5 607.5Q531 502 585.0 410.0Q639 318 714.0 242.5Q789 167 881.0 113.0Q973 59 1078.5 29.5Q1184 0 1298 0ZM1298 1006Q1335 1006 1368.0 992.0Q1401 978 1425.5 953.5Q1450 929 1464.0 896.5Q1478 864 1478 827Q1478 789 1464.0 756.5Q1450 724 1425.5 699.5Q1401 675 1368.0 661.0Q1335 647 1298 647Q1260 647 1227.5 661.0Q1195 675 1170.5 699.5Q1146 724 1132.0 756.5Q1118 789 1118 827Q1118 864 1132.0 896.5Q1146 929 1170.5 953.5Q1195 978 1228.0 992.0Q1261 1006 1298 1006Z" style="fill:#f7630c;stroke:none" transform="scale(1,-1) translate(0,-256)" /></svg>