<?xml version="1.0" encoding="utf-8" ?>
<svg baseProfile="full" height="256" version="1.1" width="256" xmlns="http://www.w3.org/2000/svg" xmlns:ev="http://www.w3.org/2001/xml-events" xmlns:xlink="http://www.w3.org/1999/xlink"><defs /><path d="M1837 827Q1837 715 1794.5 617.0Q1752 519 1679.0 446.0Q1606 373 1508.0 330.5Q1410 288 1298 288Q1186 288 1088.0 330.5Q990 373 917.0 446.0Q844 519 801.5 617.0Q759 715 759 827Q759 938 801.5 1036.5Q844 1135 917.0 1208.0Q990 1281 1088.5 1323.5Q1187 1366 1298 1366Q1409 1366 1507.5 1323.5Q1606 1281 1679.0 1208.0Q1752 1135 1794.5 1036.5Q1837 938 1837 827ZM831 827Q831 730 867.5 645.0Q904 560 967.5 496.5Q1031 433 1116.0 396.5Q1201 360 1298 360Q1395 360 1480.0 396.5Q1565 433 1628.5 496.5Q1692 560 1728.5 645.0Q1765 730 1765 827Q1765 924 1728.5 1009.0Q1692 1094 1628.5 1157.5Q1565 1221 1480.0 1257.5Q1395 1294 1298 1294Q1201 1294 1116.0 1257.5Q1031 1221 967.5 1157.5Q904 1094 867.5 1009.0Q831 924 831 827Z" style="fill:#e5e5e5;stroke:none" transform="scale(1,-1) translate(0,-256)" /></svg>