<?xml version="1.0" encoding="utf-8" ?>
<svg baseProfile="full" height="256" version="1.1" width="256" xmlns="http://www.w3.org/2000/svg" xmlns:ev="http://www.w3.org/2001/xml-events" xmlns:xlink="http://www.w3.org/1999/xlink"><defs /><path d="M1334 863Q1354 863 1371.5 852.0Q1389 841 1398 823L1901 -183Q1909 -199 1909 -216Q1909 -246 1888.0 -266.5Q1867 -287 1837 -287Q1817 -287 1799.5 -276.5Q1782 -266 1773 -248L1298 702L823 -248Q814 -266 796.5 -276.5Q779 -287 759 -287Q729 -287 708.0 -266.5Q687 -246 687 -216Q687 -199 695 -183L1198 823Q1207 841 1224.5 852.0Q1242 863 1262 863Q1280 863 1298 853Q1316 863 1334 863Z" style="fill:#757575;stroke:none" transform="scale(1,-1) translate(0,-256)" /></svg>