<?xml version="1.0" encoding="utf-8" ?>
<svg baseProfile="full" height="256" version="1.1" width="256" xmlns="http://www.w3.org/2000/svg" xmlns:ev="http://www.w3.org/2001/xml-events" xmlns:xlink="http://www.w3.org/1999/xlink"><defs /><path d="M1118 1725Q1227 1725 1318.5 1676.0Q1410 1627 1473 1539Q1514 1482 1542.0 1416.0Q1570 1350 1597 1286Q1636 1192 1678.5 1085.0Q1721 978 1756.5 867.0Q1792 756 1814.5 644.5Q1837 533 1837 431Q1837 332 1811.0 240.5Q1785 149 1738.5 69.0Q1692 -11 1626.0 -76.5Q1560 -142 1480.5 -189.0Q1401 -236 1309.0 -261.5Q1217 -287 1118 -287Q1019 -287 927.5 -261.5Q836 -236 756.0 -189.0Q676 -142 610.5 -76.5Q545 -11 498.0 69.0Q451 149 425.5 240.5Q400 332 400 431Q400 533 422.5 644.5Q445 756 480.5 867.0Q516 978 558.5 1085.0Q601 1192 640 1286Q667 1350 695.0 1415.5Q723 1481 764 1539Q828 1627 918.5 1676.0Q1009 1725 1118 1725Z" style="fill:#ffffff;stroke:none" transform="scale(1,-1) translate(0,-256)" /></svg>