<?xml version="1.0" encoding="utf-8" ?>
<svg baseProfile="full" height="256" version="1.1" width="256" xmlns="http://www.w3.org/2000/svg" xmlns:ev="http://www.w3.org/2001/xml-events" xmlns:xlink="http://www.w3.org/1999/xlink"><defs /><path d="M1118 -431Q999 -431 889.0 -400.0Q779 -369 683.5 -313.0Q588 -257 509.0 -178.0Q430 -99 374.0 -3.5Q318 92 287.0 202.0Q256 312 256 431Q256 523 271.5 616.5Q287 710 312.0 802.5Q337 895 369.0 985.0Q401 1075 433 1161L448 1202Q469 1257 492.0 1317.0Q515 1377 542.0 1436.0Q569 1495 599.0 1549.0Q629 1603 664 1646Q751 1753 865.0 1811.0Q979 1869 1118 1869Q1186 1869 1251.0 1853.5Q1316 1838 1374.5 1808.5Q1433 1779 1484.5 1736.5Q1536 1694 1578 1640Q1610 1598 1642.5 1537.0Q1675 1476 1704.5 1409.5Q1734 1343 1759.5 1277.5Q1785 1212 1804 1161Q1835 1078 1866.5 987.0Q1898 896 1923.5 802.0Q1949 708 1965.0 613.5Q1981 519 1981 431Q1981 312 1950.0 202.0Q1919 92 1863.0 -3.5Q1807 -99 1728.0 -178.0Q1649 -257 1553.0 -313.0Q1457 -369 1347.0 -400.0Q1237 -431 1118 -431Z" style="fill:#000000;stroke:none" transform="scale(1,-1) translate(0,-256)" /></svg>