<?xml version="1.0" encoding="utf-8" ?>
<svg baseProfile="full" height="256" version="1.1" width="256" xmlns="http://www.w3.org/2000/svg" xmlns:ev="http://www.w3.org/2001/xml-events" xmlns:xlink="http://www.w3.org/1999/xlink"><defs /><path d="M723 503Q745 503 764.5 494.5Q784 486 799.0 472.0Q814 458 822.5 438.0Q831 418 831 396Q831 373 822.5 353.5Q814 334 799.5 319.5Q785 305 765.0 296.5Q745 288 723 288Q701 288 681.5 296.5Q662 305 647.0 320.0Q632 335 623.5 354.5Q615 374 615 396Q615 418 623.5 437.5Q632 457 647.0 471.5Q662 486 681.5 494.5Q701 503 723 503ZM1011 575Q988 575 968.5 583.5Q949 592 934.5 606.5Q920 621 911.5 640.5Q903 660 903 683Q903 705 911.5 725.0Q920 745 934.5 759.5Q949 774 968.5 782.5Q988 791 1011 791Q1033 791 1053.0 782.5Q1073 774 1087.0 759.0Q1101 744 1109.5 724.5Q1118 705 1118 683Q1118 661 1109.5 641.5Q1101 622 1087.0 607.0Q1073 592 1053.0 583.5Q1033 575 1011 575ZM1011 216Q1033 216 1053.0 207.5Q1073 199 1087.0 184.0Q1101 169 1109.5 149.5Q1118 130 1118 108Q1118 86 1109.5 66.5Q1101 47 1087.0 32.0Q1073 17 1053.0 8.5Q1033 0 1011 0Q988 0 968.5 8.5Q949 17 934.5 31.5Q920 46 911.5 65.5Q903 85 903 108Q903 130 911.5 150.0Q920 170 934.5 184.5Q949 199 968.5 207.5Q988 216 1011 216Z" style="fill:#e5e5e5;stroke:none" transform="scale(1,-1) translate(0,-256)" /></svg>