<?xml version="1.0" encoding="utf-8" ?>
<svg baseProfile="full" height="256" version="1.1" width="256" xmlns="http://www.w3.org/2000/svg" xmlns:ev="http://www.w3.org/2001/xml-events" xmlns:xlink="http://www.w3.org/1999/xlink"><defs /><path d="M688 -221 615 -287H400Q400 -20 469.5 228.0Q539 476 665.5 691.5Q792 907 969.0 1084.0Q1146 1261 1361.5 1387.5Q1577 1514 1825.0 1583.5Q2073 1653 2340 1653V1438L2253 1364Q2028 1349 1827.5 1288.5Q1627 1228 1456.5 1127.5Q1286 1027 1148.0 888.0Q1010 749 911.0 578.0Q812 407 755.0 206.0Q698 5 688 -221Z" style="fill:#e81224;stroke:none" transform="scale(1,-1) translate(0,-256)" /></svg>