<?xml version="1.0" encoding="utf-8" ?>
<svg baseProfile="full" height="256" version="1.1" width="256" xmlns="http://www.w3.org/2000/svg" xmlns:ev="http://www.w3.org/2001/xml-events" xmlns:xlink="http://www.w3.org/1999/xlink"><defs /><path d="M2484 1797V216H2340Q2236 216 2144.5 176.5Q2053 137 1984.5 68.5Q1916 0 1876.5 -91.5Q1837 -183 1837 -287V-431H256V-287Q256 -72 298.5 132.0Q341 336 420.0 523.0Q499 710 612.5 877.0Q726 1044 867.5 1185.5Q1009 1327 1176.0 1440.5Q1343 1554 1530.0 1633.0Q1717 1712 1921.0 1754.5Q2125 1797 2340 1797Z" style="fill:#000000;stroke:none" transform="scale(1,-1) translate(0,-256)" /></svg>