<?xml version="1.0" encoding="utf-8" ?>
<svg baseProfile="full" height="256" version="1.1" width="256" xmlns="http://www.w3.org/2000/svg" xmlns:ev="http://www.w3.org/2001/xml-events" xmlns:xlink="http://www.w3.org/1999/xlink"><defs /><path d="M903 -239 831 -287H615Q615 -49 676.5 171.0Q738 391 850.5 583.0Q963 775 1120.5 932.5Q1278 1090 1470.0 1202.5Q1662 1315 1882.0 1376.5Q2102 1438 2340 1438V1222L2277 1149Q2091 1149 1917.5 1097.0Q1744 1045 1591.5 952.5Q1439 860 1312.5 731.5Q1186 603 1095.0 448.5Q1004 294 953.5 119.5Q903 -55 903 -239Z" style="fill:#f7630c;stroke:none" transform="scale(1,-1) translate(0,-256)" /></svg>