<?xml version="1.0" encoding="utf-8" ?>
<svg baseProfile="full" height="256" version="1.1" width="256" xmlns="http://www.w3.org/2000/svg" xmlns:ev="http://www.w3.org/2001/xml-events" xmlns:xlink="http://www.w3.org/1999/xlink"><defs /><path d="M2268 600V252Q2268 140 2225.5 42.0Q2183 -56 2110.0 -129.0Q2037 -202 1939.0 -244.5Q1841 -287 1729 -287Q1683 -287 1634.5 -278.0Q1586 -269 1539.0 -252.0Q1492 -235 1449.5 -210.0Q1407 -185 1374 -153L649 544Q633 559 625.0 579.0Q617 599 617 620Q617 642 625.5 661.5Q634 681 649.0 695.5Q664 710 683.5 718.5Q703 727 725 727Q746 727 766.0 719.0Q786 711 801 696L1068 430Q1079 419 1093 419Q1108 419 1118.5 429.5Q1129 440 1129 455Q1129 470 1119 480L612 987Q618 1010 631.5 1029.5Q645 1049 663.5 1063.5Q682 1078 704.0 1086.0Q726 1094 750 1094Q779 1094 805.5 1083.0Q832 1072 852 1052L1271 633Q1282 622 1296 622Q1310 622 1321.0 633.0Q1332 644 1332 658Q1332 674 1322 684L815 1190Q827 1238 866.0 1267.5Q905 1297 954 1297Q983 1297 1009.5 1286.0Q1036 1275 1056 1255L1474 836Q1485 825 1499 825Q1513 825 1524.0 836.0Q1535 847 1535 861Q1535 877 1525 887L1120 1292Q1126 1315 1139.5 1334.5Q1153 1354 1171.5 1368.5Q1190 1383 1212.0 1391.0Q1234 1399 1258 1399Q1287 1399 1313.5 1388.0Q1340 1377 1360 1357L1941 776Q1952 765 1966 765Q1980 765 1991.0 776.0Q2002 787 2002 801Q2002 817 1992 827L1744 1075Q1764 1090 1787.0 1098.5Q1810 1107 1835 1107Q1893 1107 1935 1065L2190 810Q2232 768 2250.0 713.0Q2268 658 2268 600Z" style="fill:#ffc83d;stroke:none" transform="scale(1,-1) translate(0,-256)" /></svg>