<?xml version="1.0" encoding="utf-8" ?>
<svg baseProfile="full" height="256" version="1.1" width="256" xmlns="http://www.w3.org/2000/svg" xmlns:ev="http://www.w3.org/2001/xml-events" xmlns:xlink="http://www.w3.org/1999/xlink"><defs /><path d="M729 1222Q761 1222 784.5 1211.0Q808 1200 831 1180L1004 1029Q1026 1010 1048.0 992.0Q1070 974 1090 954Q1112 932 1131.5 908.5Q1151 885 1171 862Q1212 816 1251.5 769.5Q1291 723 1333 678Q1368 640 1404.5 604.5Q1441 569 1478 533Q1496 515 1515.5 498.5Q1535 482 1550 461Q1572 431 1588.0 397.0Q1604 363 1622 331L1765 72L1729 -287H1478Q1414 -287 1343.5 -271.0Q1273 -255 1205.0 -226.5Q1137 -198 1076.0 -159.5Q1015 -121 970 -76L431 463Q416 478 407.5 498.0Q399 518 399 539Q399 561 407.5 580.5Q416 600 431.0 615.0Q446 630 465.5 638.5Q485 647 507 647Q522 647 533.5 643.5Q545 640 554.5 634.5Q564 629 573.5 622.0Q583 615 595 607L442 761Q400 803 400 862Q400 892 411.0 918.0Q422 944 441.5 964.0Q461 984 487.0 995.5Q513 1007 543 1007Q586 1007 621 983Q586 1024 586 1079Q586 1108 597.5 1134.0Q609 1160 628.5 1179.5Q648 1199 674.0 1210.5Q700 1222 729 1222ZM1505 824Q1492 824 1483.5 826.5Q1475 829 1465 837Q1381 908 1305.0 990.0Q1229 1072 1157 1154Q1137 1176 1126.0 1201.0Q1115 1226 1115 1256Q1115 1272 1120 1292L1528 893Q1535 886 1537.5 877.0Q1540 868 1540 859Q1540 824 1505 824ZM1744 1074 1997 831Q2003 825 2005.0 817.5Q2007 810 2007 802Q2007 782 1995.5 772.0Q1984 762 1964 762Q1956 762 1947.5 764.0Q1939 766 1933 772L1692 1025Q1704 1038 1716.0 1051.5Q1728 1065 1744 1074Z" style="fill:#d48c00;stroke:none" transform="scale(1,-1) translate(0,-256)" /></svg>