<?xml version="1.0" encoding="utf-8" ?>
<svg baseProfile="full" height="256" version="1.1" width="256" xmlns="http://www.w3.org/2000/svg" xmlns:ev="http://www.w3.org/2001/xml-events" xmlns:xlink="http://www.w3.org/1999/xlink"><defs /><path d="M1649 1654Q1663 1654 1674 1643L1826 1490Q1831 1485 1834.0 1479.0Q1837 1473 1837 1466Q1837 1452 1830.5 1444.0Q1824 1436 1813 1431Q1807 1428 1787.5 1421.0Q1768 1414 1742.5 1405.5Q1717 1397 1688.5 1387.5Q1660 1378 1635.0 1370.0Q1610 1362 1592.0 1357.0Q1574 1352 1570 1352Q1556 1352 1545.5 1362.5Q1535 1373 1535 1387Q1535 1392 1540.0 1409.5Q1545 1427 1553.0 1452.0Q1561 1477 1570.0 1505.0Q1579 1533 1588.0 1558.0Q1597 1583 1604.0 1602.5Q1611 1622 1614 1629Q1619 1641 1627.0 1647.5Q1635 1654 1649 1654ZM875 1654Q889 1654 897.0 1647.5Q905 1641 910 1629Q913 1622 920.0 1602.5Q927 1583 936.0 1558.0Q945 1533 954.0 1505.0Q963 1477 971.0 1452.0Q979 1427 984.0 1409.5Q989 1392 989 1387Q989 1373 978.5 1362.5Q968 1352 954 1352Q949 1352 931.0 1357.0Q913 1362 888.5 1370.0Q864 1378 835.5 1387.0Q807 1396 781.5 1405.0Q756 1414 736.5 1421.0Q717 1428 711 1431Q700 1436 693.5 1444.0Q687 1452 687 1466Q687 1473 690.0 1479.0Q693 1485 698 1490L850 1643Q861 1654 875 1654ZM1370 1725Q1385 1725 1395.5 1715.0Q1406 1705 1406 1690Q1406 1685 1399.0 1667.5Q1392 1650 1381.0 1626.5Q1370 1603 1356.5 1576.5Q1343 1550 1330.5 1526.0Q1318 1502 1308.0 1483.0Q1298 1464 1294 1456Q1289 1446 1281.5 1441.0Q1274 1436 1262 1436Q1250 1436 1243.0 1441.0Q1236 1446 1230 1456Q1226 1463 1216.0 1481.5Q1206 1500 1193.5 1524.5Q1181 1549 1167.5 1576.0Q1154 1603 1143.0 1627.0Q1132 1651 1125.0 1668.0Q1118 1685 1118 1690Q1118 1705 1128.5 1715.0Q1139 1725 1154 1725Z" style="fill:#f7630c;stroke:none" transform="scale(1,-1) translate(0,-256)" /></svg>