<?xml version="1.0" encoding="utf-8" ?>
<svg baseProfile="full" height="256" version="1.1" width="256" xmlns="http://www.w3.org/2000/svg" xmlns:ev="http://www.w3.org/2001/xml-events" xmlns:xlink="http://www.w3.org/1999/xlink"><defs /><path d="M2412 600V252Q2412 158 2387.5 71.0Q2363 -16 2318.5 -92.0Q2274 -168 2211.5 -230.5Q2149 -293 2073.0 -337.5Q1997 -382 1910.0 -406.5Q1823 -431 1729 -431H1478Q1336 -431 1209.0 -383.0Q1082 -335 967 -257Q941 -240 917.0 -221.0Q893 -202 871 -180L330 361Q294 397 275.0 442.5Q256 488 256 539Q256 581 270.0 621.5Q284 662 310 695Q284 732 270.0 775.0Q256 818 256 863Q256 908 269.5 950.5Q283 993 308.0 1028.5Q333 1064 368.5 1091.0Q404 1118 447 1133Q459 1202 499.5 1252.0Q540 1302 600 1334Q574 1360 558.5 1393.5Q543 1427 543 1465Q543 1500 557.0 1533.5Q571 1567 596 1592L749 1745Q775 1771 807.5 1784.0Q840 1797 876 1797Q907 1797 935.5 1786.5Q964 1776 988 1757Q1009 1808 1053.5 1838.5Q1098 1869 1153 1869H1370Q1426 1869 1470.5 1838.5Q1515 1808 1536 1757Q1560 1776 1588.5 1786.5Q1617 1797 1648 1797Q1723 1797 1775 1745L1928 1592Q1953 1567 1967.0 1533.5Q1981 1500 1981 1465Q1981 1417 1958.0 1376.0Q1935 1335 1893 1311L2290 913Q2353 850 2382.5 769.0Q2412 688 2412 600Z" style="fill:#000000;stroke:none" transform="scale(1,-1) translate(0,-256)" /></svg>