<?xml version="1.0" encoding="utf-8" ?>
<svg baseProfile="full" height="256" version="1.1" width="256" xmlns="http://www.w3.org/2000/svg" xmlns:ev="http://www.w3.org/2001/xml-events" xmlns:xlink="http://www.w3.org/1999/xlink"><defs /><path d="M1466 791H1059L1304 1036Q1324 1056 1350.5 1067.0Q1377 1078 1406 1078Q1436 1078 1462.0 1066.5Q1488 1055 1507.5 1035.5Q1527 1016 1538.5 990.0Q1550 964 1550 934Q1550 911 1544.0 892.5Q1538 874 1528.0 858.5Q1518 843 1504.5 829.0Q1491 815 1476 801ZM1478 539Q1478 554 1488.5 564.5Q1499 575 1514 575H1765V503H1514Q1499 503 1488.5 513.5Q1478 524 1478 539ZM1478 252Q1478 267 1488.5 277.5Q1499 288 1514 288H1765V216H1514Q1499 216 1488.5 226.5Q1478 237 1478 252ZM1442 0H1622V-72H1442Q1427 -72 1416.5 -61.5Q1406 -51 1406 -36Q1406 -21 1416.5 -10.5Q1427 0 1442 0Z" style="fill:#d48c00;stroke:none" transform="scale(1,-1) translate(0,-256)" /></svg>