<?xml version="1.0" encoding="utf-8" ?>
<svg baseProfile="full" height="256" version="1.1" width="256" xmlns="http://www.w3.org/2000/svg" xmlns:ev="http://www.w3.org/2001/xml-events" xmlns:xlink="http://www.w3.org/1999/xlink"><defs /><path d="M1478 -431H256V575H582Q590 575 603.0 578.0Q616 581 629.5 585.5Q643 590 655.0 596.0Q667 602 673 608L1203 1138Q1244 1179 1296.5 1200.5Q1349 1222 1406 1222Q1466 1222 1518.0 1199.5Q1570 1177 1609.0 1138.0Q1648 1099 1670.5 1047.0Q1693 995 1693 935H2304Q2356 935 2402.0 915.0Q2448 895 2482.0 861.0Q2516 827 2536.0 781.0Q2556 735 2556 683Q2556 631 2536.0 585.0Q2516 539 2482.0 505.0Q2448 471 2402.0 451.0Q2356 431 2304 431H1909V144Q1909 66 1870.5 0.0Q1832 -66 1765 -105V-144Q1765 -203 1742.5 -255.5Q1720 -308 1681.0 -347.0Q1642 -386 1589.5 -408.5Q1537 -431 1478 -431Z" style="fill:#000000;stroke:none" transform="scale(1,-1) translate(0,-256)" /></svg>