<?xml version="1.0" encoding="utf-8" ?>
<svg baseProfile="full" height="256" version="1.1" width="256" xmlns="http://www.w3.org/2000/svg" xmlns:ev="http://www.w3.org/2001/xml-events" xmlns:xlink="http://www.w3.org/1999/xlink"><defs /><path d="M328 -431V-12L340 0L328 13V431H463Q420 432 382.0 450.0Q344 468 316.0 497.0Q288 526 272.0 564.5Q256 603 256 647V935Q256 998 288.0 1048.0Q320 1098 375 1127Q417 1149 459.0 1170.0Q501 1191 543 1212V1474Q543 1556 574.0 1628.0Q605 1700 659.0 1753.5Q713 1807 785.0 1838.0Q857 1869 939 1869Q1021 1869 1093.0 1838.0Q1165 1807 1218.5 1753.5Q1272 1700 1303.0 1628.0Q1334 1556 1334 1474V1168L1630 871Q1693 808 1693 719Q1693 690 1685.5 662.0Q1678 634 1663.5 609.0Q1649 584 1628.0 563.5Q1607 543 1581 530Q1622 431 1622 324Q1622 213 1579.5 114.5Q1537 16 1464.0 -57.0Q1391 -130 1292.5 -172.5Q1194 -215 1083 -215H801Q779 -264 745.0 -303.5Q711 -343 668.5 -371.5Q626 -400 576.0 -415.5Q526 -431 472 -431Z" style="fill:#000000;stroke:none" transform="scale(1,-1) translate(0,-256)" /></svg>