<?xml version="1.0" encoding="utf-8" ?>
<svg baseProfile="full" height="256" version="1.1" width="256" xmlns="http://www.w3.org/2000/svg" xmlns:ev="http://www.w3.org/2001/xml-events" xmlns:xlink="http://www.w3.org/1999/xlink"><defs /><path d="M903 1402Q903 1387 892.5 1376.5Q882 1366 867 1366Q852 1366 841.5 1376.5Q831 1387 831 1402Q831 1417 841.5 1427.5Q852 1438 867 1438Q882 1438 892.5 1427.5Q903 1417 903 1402ZM1118 1402Q1118 1388 1107.5 1377.0Q1097 1366 1083 1366Q1068 1366 1057.5 1376.5Q1047 1387 1047 1402Q1047 1417 1057.5 1427.5Q1068 1438 1083 1438Q1097 1438 1107.5 1427.0Q1118 1416 1118 1402Z" style="fill:#000000;stroke:none" transform="scale(1,-1) translate(0,-256)" /></svg>