<?xml version="1.0" encoding="utf-8" ?>
<svg baseProfile="full" height="256" version="1.1" width="256" xmlns="http://www.w3.org/2000/svg" xmlns:ev="http://www.w3.org/2001/xml-events" xmlns:xlink="http://www.w3.org/1999/xlink"><defs /><path d="M688 787Q788 770 885.5 753.0Q983 736 1083 719Q1094 717 1104.0 717.5Q1114 718 1125 717Q1145 715 1164.5 710.5Q1184 706 1204 700Q1265 680 1315.5 643.0Q1366 606 1402.0 556.5Q1438 507 1458.0 447.5Q1478 388 1478 324Q1478 242 1447.0 170.0Q1416 98 1362.5 44.0Q1309 -10 1237.0 -41.0Q1165 -72 1083 -72H687Q687 -117 670.0 -156.0Q653 -195 624.0 -224.0Q595 -253 556.0 -270.0Q517 -287 472 -287V-72L543 0L472 72V288Q517 288 556.0 271.0Q595 254 624.0 224.5Q653 195 670.0 156.0Q687 117 687 72H903Q948 72 987.0 89.0Q1026 106 1055.0 135.5Q1084 165 1101.0 204.0Q1118 243 1118 288Q1118 307 1122.5 325.0Q1127 343 1135 360L1000 401Q986 400 971.0 399.5Q956 399 940 399Q890 399 839.0 406.0Q788 413 743.5 432.0Q699 451 667.0 485.5Q635 520 623 575Q621 588 618.5 602.0Q616 616 616 629Q616 650 622.0 672.0Q628 694 637.5 714.5Q647 735 660.0 753.5Q673 772 688 787Z" style="fill:#16c60c;stroke:none" transform="scale(1,-1) translate(0,-256)" /></svg>