<?xml version="1.0" encoding="utf-8" ?>
<svg baseProfile="full" height="256" version="1.1" width="256" xmlns="http://www.w3.org/2000/svg" xmlns:ev="http://www.w3.org/2001/xml-events" xmlns:xlink="http://www.w3.org/1999/xlink"><defs /><path d="M543 -359Q499 -359 459.5 -342.0Q420 -325 391.0 -296.0Q362 -267 345.0 -227.5Q328 -188 328 -144V486Q294 517 275.0 559.0Q256 601 256 647V1294Q256 1339 273.0 1378.0Q290 1417 319.5 1446.5Q349 1476 388.0 1493.0Q427 1510 472 1510H903V1581Q903 1625 920.0 1664.5Q937 1704 966.0 1733.5Q995 1763 1034.5 1780.0Q1074 1797 1118 1797H1693Q1738 1797 1777.0 1780.0Q1816 1763 1845.5 1733.5Q1875 1704 1892.0 1665.0Q1909 1626 1909 1581V1510H2340Q2385 1510 2424.0 1493.0Q2463 1476 2492.5 1446.5Q2522 1417 2539.0 1378.0Q2556 1339 2556 1294V647Q2556 601 2537.0 559.0Q2518 517 2484 486V-144Q2484 -188 2467.0 -227.5Q2450 -267 2420.5 -296.0Q2391 -325 2351.5 -342.0Q2312 -359 2268 -359Z" style="fill:#000000;stroke:none" transform="scale(1,-1) translate(0,-256)" /></svg>