<?xml version="1.0" encoding="utf-8" ?>
<svg baseProfile="full" height="256" version="1.1" width="256" xmlns="http://www.w3.org/2000/svg" xmlns:ev="http://www.w3.org/2001/xml-events" xmlns:xlink="http://www.w3.org/1999/xlink"><defs /><path d="M831 -144Q846 -144 870.5 -147.5Q895 -151 918.5 -159.0Q942 -167 958.5 -180.5Q975 -194 975 -215Q975 -236 958.5 -250.0Q942 -264 919.0 -272.5Q896 -281 871.5 -284.0Q847 -287 831 -287Q815 -287 790.5 -284.0Q766 -281 743.0 -272.5Q720 -264 703.5 -250.0Q687 -236 687 -215Q687 -194 703.5 -180.5Q720 -167 743.5 -159.0Q767 -151 791.5 -147.5Q816 -144 831 -144Z" style="fill:#757575;stroke:none" transform="scale(1,-1) translate(0,-256)" /></svg>