<?xml version="1.0" encoding="utf-8" ?>
<svg baseProfile="full" height="256" version="1.1" width="256" xmlns="http://www.w3.org/2000/svg" xmlns:ev="http://www.w3.org/2001/xml-events" xmlns:xlink="http://www.w3.org/1999/xlink"><defs /><path d="M1406 1294Q1406 1207 1380.0 1125.0Q1354 1043 1307.0 973.0Q1260 903 1194.0 848.5Q1128 794 1047 761V-69Q1079 -96 1098.5 -134.5Q1118 -173 1118 -215Q1118 -272 1091.5 -312.5Q1065 -353 1023.0 -379.5Q981 -406 930.0 -418.5Q879 -431 831 -431Q783 -431 732.0 -418.5Q681 -406 639.0 -379.5Q597 -353 570.0 -312.0Q543 -271 543 -215Q543 -172 563.0 -134.0Q583 -96 615 -69V761Q534 794 468.0 848.5Q402 903 355.0 973.0Q308 1043 282.0 1125.0Q256 1207 256 1294Q256 1412 301.5 1517.0Q347 1622 425.0 1700.0Q503 1778 607.5 1823.5Q712 1869 831 1869Q949 1869 1054.0 1823.5Q1159 1778 1237.0 1700.0Q1315 1622 1360.5 1517.0Q1406 1412 1406 1294Z" style="fill:#000000;stroke:none" transform="scale(1,-1) translate(0,-256)" /></svg>