<?xml version="1.0" encoding="utf-8" ?>
<svg baseProfile="full" height="256" version="1.1" width="256" xmlns="http://www.w3.org/2000/svg" xmlns:ev="http://www.w3.org/2001/xml-events" xmlns:xlink="http://www.w3.org/1999/xlink"><defs /><path d="M400 1294Q400 1383 434.0 1461.5Q468 1540 526.5 1598.5Q585 1657 663.5 1691.0Q742 1725 831 1725Q920 1725 998.5 1691.0Q1077 1657 1135.5 1598.5Q1194 1540 1228.0 1461.5Q1262 1383 1262 1294Q1262 1205 1228.0 1126.5Q1194 1048 1135.5 989.5Q1077 931 998.5 897.0Q920 863 831 863Q742 863 663.5 897.0Q585 931 526.5 989.5Q468 1048 434.0 1126.5Q400 1205 400 1294Z" style="fill:#f03a17;stroke:none" transform="scale(1,-1) translate(0,-256)" /></svg>