<?xml version="1.0" encoding="utf-8" ?>
<svg baseProfile="full" height="256" version="1.1" width="256" xmlns="http://www.w3.org/2000/svg" xmlns:ev="http://www.w3.org/2001/xml-events" xmlns:xlink="http://www.w3.org/1999/xlink"><defs /><path d="M1550 1869Q1580 1869 1606.0 1857.5Q1632 1846 1651.5 1826.5Q1671 1807 1682.0 1781.0Q1693 1755 1693 1725Q1693 1700 1686 1679L1462 1006H2268Q2298 1006 2324.0 994.5Q2350 983 2369.5 963.5Q2389 944 2400.5 918.0Q2412 892 2412 862Q2412 803 2370 761L1220 -389Q1200 -409 1173.5 -420.0Q1147 -431 1118 -431Q1088 -431 1062.0 -420.0Q1036 -409 1016.5 -389.5Q997 -370 986.0 -343.5Q975 -317 975 -287Q975 -263 982 -242L1207 431H400Q370 431 343.5 442.0Q317 453 297.5 472.5Q278 492 267.0 518.5Q256 545 256 575Q256 604 267.0 630.5Q278 657 298 677L1448 1827Q1468 1847 1494.5 1858.0Q1521 1869 1550 1869Z" style="fill:#000000;stroke:none" transform="scale(1,-1) translate(0,-256)" /></svg>