<?xml version="1.0" encoding="utf-8" ?>
<svg baseProfile="full" height="256" version="1.1" width="256" xmlns="http://www.w3.org/2000/svg" xmlns:ev="http://www.w3.org/2001/xml-events" xmlns:xlink="http://www.w3.org/1999/xlink"><defs /><path d="M1790 1294Q1874 1294 1948.0 1262.0Q2022 1230 2077.0 1174.5Q2132 1119 2164.0 1045.0Q2196 971 2196 887Q2196 806 2165.0 731.5Q2134 657 2077 600L1406 -72L734 600Q677 657 646.0 731.5Q615 806 615 887Q615 971 647.0 1045.5Q679 1120 734.0 1175.0Q789 1230 863.5 1262.0Q938 1294 1022 1294Q1086 1294 1135.5 1279.0Q1185 1264 1227.0 1238.0Q1269 1212 1306.5 1177.0Q1344 1142 1384 1101L1406 1078L1428 1101Q1468 1142 1505.5 1177.0Q1543 1212 1585.0 1238.0Q1627 1264 1676.5 1279.0Q1726 1294 1790 1294Z" style="fill:#e81224;stroke:none" transform="scale(1,-1) translate(0,-256)" /></svg>