<?xml version="1.0" encoding="utf-8" ?>
<svg baseProfile="full" height="256" version="1.1" width="256" xmlns="http://www.w3.org/2000/svg" xmlns:ev="http://www.w3.org/2001/xml-events" xmlns:xlink="http://www.w3.org/1999/xlink"><defs /><path d="M508 863Q493 863 482.5 873.5Q472 884 472 899Q472 1011 514.5 1109.0Q557 1207 630.0 1280.0Q703 1353 801.0 1395.5Q899 1438 1011 1438Q1025 1438 1036.0 1427.0Q1047 1416 1047 1402Q1047 1388 1036.0 1377.0Q1025 1366 1011 1366Q914 1366 829.0 1329.5Q744 1293 680.5 1229.5Q617 1166 580.0 1081.0Q543 996 543 899Q543 885 532.5 874.0Q522 863 508 863ZM436 1150Q421 1150 410.5 1160.5Q400 1171 400 1186Q400 1193 404 1203Q423 1248 457.0 1292.5Q491 1337 532.0 1377.5Q573 1418 618.5 1451.5Q664 1485 707 1506Q714 1510 723 1510Q737 1510 748.0 1499.0Q759 1488 759 1474Q759 1462 754.5 1455.5Q750 1449 740 1442L722 1430Q690 1409 661.5 1389.5Q633 1370 607.5 1348.0Q582 1326 558.5 1300.0Q535 1274 511 1239Q500 1222 490.0 1204.5Q480 1187 468 1170Q462 1162 454.5 1156.0Q447 1150 436 1150ZM2304 863Q2290 863 2279.0 874.0Q2268 885 2268 899Q2268 995 2231.0 1080.0Q2194 1165 2130.5 1228.5Q2067 1292 1982.0 1329.0Q1897 1366 1801 1366Q1786 1366 1775.5 1376.5Q1765 1387 1765 1402Q1765 1417 1775.5 1427.5Q1786 1438 1801 1438Q1913 1438 2011.0 1395.5Q2109 1353 2182.0 1280.0Q2255 1207 2297.5 1109.0Q2340 1011 2340 899Q2340 884 2329.5 873.5Q2319 863 2304 863ZM2376 1150Q2365 1150 2357.5 1156.0Q2350 1162 2344 1170Q2332 1187 2322.0 1204.5Q2312 1222 2301 1239Q2277 1274 2253.5 1300.0Q2230 1326 2204.5 1348.0Q2179 1370 2150.5 1389.5Q2122 1409 2090 1430L2072 1442Q2062 1449 2057.5 1455.5Q2053 1462 2053 1474Q2053 1488 2064.0 1499.0Q2075 1510 2089 1510Q2098 1510 2105 1506Q2148 1485 2193.5 1451.5Q2239 1418 2280.0 1377.5Q2321 1337 2354.5 1292.5Q2388 1248 2408 1203Q2412 1193 2412 1186Q2412 1171 2401.5 1160.5Q2391 1150 2376 1150Z" style="fill:#e6808a;stroke:none" transform="scale(1,-1) translate(0,-256)" /></svg>