<?xml version="1.0" encoding="utf-8" ?>
<svg baseProfile="full" height="256" version="1.1" width="256" xmlns="http://www.w3.org/2000/svg" xmlns:ev="http://www.w3.org/2001/xml-events" xmlns:xlink="http://www.w3.org/1999/xlink"><defs /><path d="M2089 1653Q2129 1653 2179.0 1629.5Q2229 1606 2281.0 1567.0Q2333 1528 2382.5 1478.5Q2432 1429 2470.5 1377.0Q2509 1325 2532.5 1274.5Q2556 1224 2556 1184Q2556 1139 2532.5 1098.0Q2509 1057 2471 1033Q2484 969 2484 899Q2484 863 2471.0 831.5Q2458 800 2435.0 775.5Q2412 751 2381.0 736.0Q2350 721 2314 719Q2273 592 2179 498L1406 -275L633 498Q539 592 498 719Q462 721 431.0 736.0Q400 751 377.0 775.5Q354 800 341.0 831.5Q328 863 328 899Q328 969 341 1033Q299 1059 277.5 1099.5Q256 1140 256 1189Q256 1228 280.0 1277.5Q304 1327 342.5 1378.5Q381 1430 431.0 1479.5Q481 1529 532.5 1567.5Q584 1606 634.0 1629.5Q684 1653 723 1653Q770 1653 811.0 1630.5Q852 1608 876 1568Q909 1575 943.0 1578.0Q977 1581 1011 1581Q1047 1581 1078.5 1568.0Q1110 1555 1134.0 1532.0Q1158 1509 1173.0 1478.0Q1188 1447 1190 1411Q1251 1392 1306.0 1359.5Q1361 1327 1406 1282Q1451 1327 1506.0 1359.5Q1561 1392 1622 1411Q1624 1447 1639.0 1478.0Q1654 1509 1678.0 1532.0Q1702 1555 1733.5 1568.0Q1765 1581 1801 1581Q1835 1581 1869.0 1578.0Q1903 1575 1936 1568Q1960 1608 2001.0 1630.5Q2042 1653 2089 1653Z" style="fill:#000000;stroke:none" transform="scale(1,-1) translate(0,-256)" /></svg>