<?xml version="1.0" encoding="utf-8" ?>
<svg baseProfile="full" height="256" version="1.1" width="256" xmlns="http://www.w3.org/2000/svg" xmlns:ev="http://www.w3.org/2001/xml-events" xmlns:xlink="http://www.w3.org/1999/xlink"><defs /><path d="M1359 151 785 -85Q742 -55 699.0 -14.0Q656 27 621.5 76.0Q587 125 565.0 178.5Q543 232 543 288V1078Q543 1167 566.0 1250.0Q589 1333 631.5 1404.5Q674 1476 733.0 1535.0Q792 1594 863.5 1636.5Q935 1679 1018.0 1702.0Q1101 1725 1190 1725Q1324 1725 1441.5 1674.0Q1559 1623 1647.0 1535.5Q1735 1448 1785.5 1330.0Q1836 1212 1836 1078V819Z" style="fill:#f7d7c4;stroke:none" transform="scale(1,-1) translate(0,-256)" /></svg>