<?xml version="1.0" encoding="utf-8" ?>
<svg baseProfile="full" height="256" version="1.1" width="256" xmlns="http://www.w3.org/2000/svg" xmlns:ev="http://www.w3.org/2001/xml-events" xmlns:xlink="http://www.w3.org/1999/xlink"><defs /><path d="M1622 1007V935Q1622 847 1588.5 767.5Q1555 688 1492 627Q1465 600 1427.5 573.0Q1390 546 1349.0 520.5Q1308 495 1266.5 472.0Q1225 449 1191 431Q1158 449 1115.5 473.0Q1073 497 1030.0 524.0Q987 551 948.0 579.0Q909 607 884 632Q824 692 792.0 771.0Q760 850 760 935V953Q760 1004 763.5 1048.0Q767 1092 778.0 1133.5Q789 1175 811.0 1214.0Q833 1253 869 1294L1190 1366L1511 1294Q1565 1235 1593.0 1161.0Q1621 1087 1622 1007Z" style="fill:#ffc83d;stroke:none" transform="scale(1,-1) translate(0,-256)" /></svg>