<?xml version="1.0" encoding="utf-8" ?>
<svg baseProfile="full" height="256" version="1.1" width="256" xmlns="http://www.w3.org/2000/svg" xmlns:ev="http://www.w3.org/2001/xml-events" xmlns:xlink="http://www.w3.org/1999/xlink"><defs /><path d="M1980 349Q2050 264 2087.5 162.5Q2125 61 2125 -48V-431H256V-48Q256 61 293.0 162.5Q330 264 400 349V1078Q400 1187 428.0 1288.0Q456 1389 507.5 1477.0Q559 1565 631.5 1637.0Q704 1709 791.5 1760.5Q879 1812 980.0 1840.5Q1081 1869 1190 1869Q1299 1869 1400.0 1840.5Q1501 1812 1588.5 1760.5Q1676 1709 1748.5 1637.0Q1821 1565 1872.5 1477.0Q1924 1389 1952.0 1288.0Q1980 1187 1980 1078Z" style="fill:#000000;stroke:none" transform="scale(1,-1) translate(0,-256)" /></svg>