<?xml version="1.0" encoding="utf-8" ?>
<svg baseProfile="full" height="256" version="1.1" width="256" xmlns="http://www.w3.org/2000/svg" xmlns:ev="http://www.w3.org/2001/xml-events" xmlns:xlink="http://www.w3.org/1999/xlink"><defs /><path d="M1196 1438Q1299 1437 1394.5 1405.0Q1490 1373 1570.0 1315.0Q1650 1257 1710.0 1176.5Q1770 1096 1803 998Q1817 956 1826.5 910.0Q1836 864 1836 819V288Q1836 211 1799.0 140.0Q1762 69 1704.0 9.5Q1646 -50 1576.5 -96.0Q1507 -142 1442 -167Q1382 -190 1318.5 -202.5Q1255 -215 1190 -215Q1081 -215 977.5 -181.0Q874 -147 785 -85L1190 320Q1211 416 1230.5 522.0Q1250 628 1265.0 736.5Q1280 845 1289.5 951.5Q1299 1058 1299 1155Q1299 1171 1298.5 1198.5Q1298 1226 1295.0 1257.0Q1292 1288 1285.5 1320.5Q1279 1353 1268.0 1379.0Q1257 1405 1239.0 1421.5Q1221 1438 1196 1438Z" style="fill:#d8b094;stroke:none" transform="scale(1,-1) translate(0,-256)" /></svg>