<?xml version="1.0" encoding="utf-8" ?>
<svg baseProfile="full" height="256" version="1.1" width="256" xmlns="http://www.w3.org/2000/svg" xmlns:ev="http://www.w3.org/2001/xml-events" xmlns:xlink="http://www.w3.org/1999/xlink"><defs /><path d="M1118 1546Q1118 1523 1102.5 1516.5Q1087 1510 1068 1510Q1059 1510 1050.5 1510.5Q1042 1511 1034 1511Q1017 1511 990.0 1506.0Q963 1501 934.0 1494.0Q905 1487 877.5 1480.5Q850 1474 831 1470Q783 1480 736.0 1491.5Q689 1503 641 1510Q638 1510 635.5 1510.5Q633 1511 630 1511Q622 1511 613.0 1510.0Q604 1509 596 1509Q576 1509 559.5 1515.5Q543 1522 543 1546Q543 1560 554.0 1570.5Q565 1581 579 1581H1083Q1097 1581 1107.5 1570.5Q1118 1560 1118 1546Z" style="fill:#757575;stroke:none" transform="scale(1,-1) translate(0,-256)" /></svg>