<?xml version="1.0" encoding="utf-8" ?>
<svg baseProfile="full" height="256" version="1.1" width="256" xmlns="http://www.w3.org/2000/svg" xmlns:ev="http://www.w3.org/2001/xml-events" xmlns:xlink="http://www.w3.org/1999/xlink"><defs /><path d="M615 1222H1047V1078Q1047 1033 1030.0 994.0Q1013 955 983.5 926.0Q954 897 915.0 880.0Q876 863 831 863Q786 863 747.0 880.0Q708 897 678.5 926.0Q649 955 632.0 994.0Q615 1033 615 1078ZM2053 1222V1078Q2053 1033 2036.0 994.0Q2019 955 1989.5 926.0Q1960 897 1921.0 880.0Q1882 863 1837 863Q1792 863 1753.0 880.0Q1714 897 1685.0 926.0Q1656 955 1639.0 994.0Q1622 1033 1622 1078V1222ZM903 575Q903 605 924.0 626.0Q945 647 975 647H1047V503H975Q945 503 924.0 524.0Q903 545 903 575ZM687 647Q717 647 738.0 626.0Q759 605 759 575Q759 545 738.0 524.0Q717 503 687 503H615V647ZM1909 575Q1909 605 1930.0 626.0Q1951 647 1981 647H2053V503H1981Q1951 503 1930.0 524.0Q1909 545 1909 575ZM1693 647Q1723 647 1744.0 626.0Q1765 605 1765 575Q1765 545 1744.0 524.0Q1723 503 1693 503H1622V647Z" style="fill:#ffffff;stroke:none" transform="scale(1,-1) translate(0,-256)" /></svg>