<?xml version="1.0" encoding="utf-8" ?>
<svg baseProfile="full" height="256" version="1.1" width="256" xmlns="http://www.w3.org/2000/svg" xmlns:ev="http://www.w3.org/2001/xml-events" xmlns:xlink="http://www.w3.org/1999/xlink"><defs /><path d="M1945 1581Q1997 1581 2043.0 1561.5Q2089 1542 2123.0 1508.0Q2157 1474 2177.0 1428.0Q2197 1382 2197 1330Q2197 1278 2177.0 1232.0Q2157 1186 2123.0 1152.0Q2089 1118 2043.0 1098.0Q1997 1078 1945 1078H1729Q1677 1078 1631.0 1098.0Q1585 1118 1551.0 1152.0Q1517 1186 1497.5 1232.0Q1478 1278 1478 1330Q1478 1382 1497.5 1428.0Q1517 1474 1551.0 1508.0Q1585 1542 1630.5 1561.5Q1676 1581 1729 1581ZM1021 1510Q1069 1468 1093.5 1412.5Q1118 1357 1118 1294Q1118 1234 1095.5 1181.5Q1073 1129 1034.0 1090.0Q995 1051 943.0 1028.5Q891 1006 831 1006Q771 1006 718.5 1028.5Q666 1051 627.0 1090.0Q588 1129 565.5 1181.5Q543 1234 543 1294Q543 1357 568.0 1412.5Q593 1468 641 1510H687V1581Q687 1611 698.5 1637.0Q710 1663 729.5 1682.5Q749 1702 775.0 1713.5Q801 1725 831 1725Q861 1725 887.0 1713.5Q913 1702 932.5 1682.5Q952 1663 963.5 1637.0Q975 1611 975 1581V1510Z" style="fill:#383838;stroke:none" transform="scale(1,-1) translate(0,-256)" /></svg>