<?xml version="1.0" encoding="utf-8" ?>
<svg baseProfile="full" height="256" version="1.1" width="256" xmlns="http://www.w3.org/2000/svg" xmlns:ev="http://www.w3.org/2001/xml-events" xmlns:xlink="http://www.w3.org/1999/xlink"><defs /><path d="M1406 647Q1406 736 1440.0 814.5Q1474 893 1532.5 951.5Q1591 1010 1669.5 1044.0Q1748 1078 1837 1078Q1926 1078 2004.5 1044.0Q2083 1010 2141.5 951.5Q2200 893 2234.0 814.5Q2268 736 2268 647V0Q2268 -25 2260.0 -47.5Q2252 -70 2237.0 -88.5Q2222 -107 2202.0 -120.5Q2182 -134 2158 -140Q2150 -142 2141.5 -142.0Q2133 -142 2125 -144Q2053 -157 1981.0 -172.5Q1909 -188 1837 -203Q1765 -188 1693.5 -173.0Q1622 -158 1550 -144Q1535 -141 1521.5 -140.0Q1508 -139 1494 -133Q1455 -116 1430.5 -79.5Q1406 -43 1406 0Z" style="fill:#f03a17;stroke:none" transform="scale(1,-1) translate(0,-256)" /></svg>