<?xml version="1.0" encoding="utf-8" ?>
<svg baseProfile="full" height="256" version="1.1" width="256" xmlns="http://www.w3.org/2000/svg" xmlns:ev="http://www.w3.org/2001/xml-events" xmlns:xlink="http://www.w3.org/1999/xlink"><defs /><path d="M1837 791Q1901 791 1957.0 761.5Q2013 732 2053 683L1837 467L1622 683Q1662 732 1717.5 761.5Q1773 791 1837 791ZM795 431 687 791H975L867 431L831 400ZM1981 1581Q1981 1551 1969.5 1525.0Q1958 1499 1938.5 1479.5Q1919 1460 1893.0 1449.0Q1867 1438 1837 1438Q1807 1438 1781.0 1449.0Q1755 1460 1735.5 1479.5Q1716 1499 1704.5 1525.0Q1693 1551 1693 1581V1653L1765 1581L1837 1653L1909 1581L1981 1653Z" style="fill:#ffb900;stroke:none" transform="scale(1,-1) translate(0,-256)" /></svg>