<?xml version="1.0" encoding="utf-8" ?>
<svg baseProfile="full" height="256" version="1.1" width="256" xmlns="http://www.w3.org/2000/svg" xmlns:ev="http://www.w3.org/2001/xml-events" xmlns:xlink="http://www.w3.org/1999/xlink"><defs /><path d="M2197 647V72Q2197 43 2175.5 21.5Q2154 0 2125 0Q2095 0 2074.0 21.0Q2053 42 2053 72V503L1999 575L2053 647ZM1550 0Q1520 0 1499.0 21.0Q1478 42 1478 72V647H1622L1672 575L1622 503V72Q1622 43 1600.5 21.5Q1579 0 1550 0ZM1693 -287Q1663 -287 1637.0 -276.0Q1611 -265 1591.5 -245.5Q1572 -226 1561.0 -200.0Q1550 -174 1550 -144H2125Q2125 -174 2113.5 -200.0Q2102 -226 2082.5 -245.5Q2063 -265 2037.0 -276.0Q2011 -287 1981 -287Z" style="fill:#af0d1a;stroke:none" transform="scale(1,-1) translate(0,-256)" /></svg>