<?xml version="1.0" encoding="utf-8" ?>
<svg baseProfile="full" height="256" version="1.1" width="256" xmlns="http://www.w3.org/2000/svg" xmlns:ev="http://www.w3.org/2001/xml-events" xmlns:xlink="http://www.w3.org/1999/xlink"><defs /><path d="M2235 1062Q2320 981 2366.0 872.5Q2412 764 2412 647V0Q2412 -42 2400.0 -82.0Q2388 -122 2366.0 -156.5Q2344 -191 2313.0 -218.0Q2282 -245 2243 -262Q2226 -301 2199.0 -332.0Q2172 -363 2137.5 -385.0Q2103 -407 2063.0 -419.0Q2023 -431 1981 -431H1693Q1651 -431 1611.5 -419.0Q1572 -407 1538.0 -385.0Q1504 -363 1476.5 -331.5Q1449 -300 1431 -262Q1376 -237 1334 -190Q1292 -237 1237 -262Q1220 -301 1193.0 -332.0Q1166 -363 1131.5 -385.0Q1097 -407 1057.0 -419.0Q1017 -431 975 -431H687Q645 -431 605.0 -419.0Q565 -407 530.5 -385.0Q496 -363 469.0 -332.0Q442 -301 425 -262Q386 -245 355.0 -218.0Q324 -191 302.0 -156.5Q280 -122 268.0 -82.0Q256 -42 256 0V647Q256 773 307.5 887.0Q359 1001 456 1083Q428 1131 414.0 1184.5Q400 1238 400 1294Q400 1373 429 1448Q400 1492 400 1546Q400 1585 414.0 1617.5Q428 1650 452.5 1674.0Q477 1698 510.5 1711.5Q544 1725 582 1725Q621 1792 687.0 1830.5Q753 1869 831 1869Q909 1869 975.0 1830.5Q1041 1792 1080 1725Q1118 1725 1151.5 1711.5Q1185 1698 1209.5 1674.5Q1234 1651 1248.0 1618.5Q1262 1586 1262 1547Q1262 1538 1261.0 1528.5Q1260 1519 1258 1510H1379Q1408 1564 1452.0 1608.0Q1496 1652 1550 1681V1771Q1550 1811 1577.5 1838.5Q1605 1866 1645 1866Q1663 1866 1679.0 1859.0Q1695 1852 1709.5 1841.0Q1724 1830 1736.5 1816.5Q1749 1803 1760 1790Q1762 1788 1763.0 1787.5Q1764 1787 1765 1785L1837 1857L1909 1785Q1921 1798 1934.0 1812.0Q1947 1826 1962.0 1838.0Q1977 1850 1993.5 1858.0Q2010 1866 2030 1866Q2070 1866 2097.5 1838.5Q2125 1811 2125 1771V1681Q2174 1656 2213.5 1618.5Q2253 1581 2281.0 1535.5Q2309 1490 2324.5 1437.5Q2340 1385 2340 1330Q2340 1255 2313.0 1186.0Q2286 1117 2235 1062Z" style="fill:#000000;stroke:none" transform="scale(1,-1) translate(0,-256)" /></svg>