<?xml version="1.0" encoding="utf-8" ?>
<svg baseProfile="full" height="256" version="1.1" width="256" xmlns="http://www.w3.org/2000/svg" xmlns:ev="http://www.w3.org/2001/xml-events" xmlns:xlink="http://www.w3.org/1999/xlink"><defs /><path d="M543 0Q514 0 493.0 21.5Q472 43 472 72V647H615L664 575L615 503V72Q615 42 594.0 21.0Q573 0 543 0ZM1190 647V72Q1190 42 1169.0 21.0Q1148 0 1118 0Q1089 0 1068.0 21.5Q1047 43 1047 72V503L1002 575L1047 647ZM687 -287Q657 -287 631.0 -276.0Q605 -265 585.5 -245.5Q566 -226 554.5 -200.0Q543 -174 543 -144H1118Q1118 -174 1107.0 -200.0Q1096 -226 1076.5 -245.5Q1057 -265 1031.0 -276.0Q1005 -287 975 -287Z" style="fill:#0037da;stroke:none" transform="scale(1,-1) translate(0,-256)" /></svg>