<?xml version="1.0" encoding="utf-8" ?>
<svg baseProfile="full" height="256" version="1.1" width="256" xmlns="http://www.w3.org/2000/svg" xmlns:ev="http://www.w3.org/2001/xml-events" xmlns:xlink="http://www.w3.org/1999/xlink"><defs /><path d="M400 647Q400 736 434.0 814.5Q468 893 526.5 951.5Q585 1010 663.5 1044.0Q742 1078 831 1078Q920 1078 998.5 1044.0Q1077 1010 1135.5 951.5Q1194 893 1228.0 814.5Q1262 736 1262 647V0Q1262 -23 1252.5 -48.0Q1243 -73 1227.0 -93.5Q1211 -114 1189.0 -127.5Q1167 -141 1142 -141Q1130 -141 1118 -144Q1043 -158 968.0 -173.0Q893 -188 818 -203Q749 -188 680.5 -172.5Q612 -157 543 -144Q535 -142 526.5 -142.0Q518 -142 510 -140Q486 -134 466.0 -121.0Q446 -108 431.0 -89.0Q416 -70 408.0 -47.0Q400 -24 400 0Z" style="fill:#0078d7;stroke:none" transform="scale(1,-1) translate(0,-256)" /></svg>