<?xml version="1.0" encoding="utf-8" ?>
<svg baseProfile="full" height="256" version="1.1" width="256" xmlns="http://www.w3.org/2000/svg" xmlns:ev="http://www.w3.org/2001/xml-events" xmlns:xlink="http://www.w3.org/1999/xlink"><defs /><path d="M1406 431Q1466 431 1518.0 408.5Q1570 386 1609.0 347.0Q1648 308 1670.5 256.0Q1693 204 1693 144V-287H1118V144Q1118 204 1140.5 256.0Q1163 308 1202.0 347.0Q1241 386 1293.5 408.5Q1346 431 1406 431ZM975 1294V1725H1837V1294ZM687 288Q717 288 743.0 276.5Q769 265 788.5 245.5Q808 226 819.5 200.0Q831 174 831 144V-287H543V144Q543 174 554.5 200.0Q566 226 585.5 245.5Q605 265 631.0 276.5Q657 288 687 288ZM2125 288Q2155 288 2181.0 276.5Q2207 265 2226.5 245.5Q2246 226 2257.0 200.0Q2268 174 2268 144V-287H1981V144Q1981 174 1992.5 200.0Q2004 226 2023.5 245.5Q2043 265 2069.0 276.5Q2095 288 2125 288Z" style="fill:#383838;stroke:none" transform="scale(1,-1) translate(0,-256)" /></svg>