<?xml version="1.0" encoding="utf-8" ?>
<svg baseProfile="full" height="256" version="1.1" width="256" xmlns="http://www.w3.org/2000/svg" xmlns:ev="http://www.w3.org/2001/xml-events" xmlns:xlink="http://www.w3.org/1999/xlink"><defs /><path d="M1802 1653Q1843 1653 1885.0 1645.5Q1927 1638 1967.5 1623.0Q2008 1608 2044.5 1586.0Q2081 1564 2111 1536Q2124 1525 2124 1508Q2124 1493 2115.0 1484.0Q2106 1475 2092 1472Q2073 1468 2054.0 1467.0Q2035 1466 2016 1461Q1962 1449 1913.0 1423.5Q1864 1398 1822 1362Q1900 1252 1940.5 1125.0Q1981 998 1981 863Q1981 734 1947.5 615.0Q1914 496 1853.0 392.0Q1792 288 1707.0 202.5Q1622 117 1518.0 56.0Q1414 -5 1295.0 -38.5Q1176 -72 1047 -72H966Q954 -120 927.0 -159.5Q900 -199 863.0 -227.5Q826 -256 781.0 -271.5Q736 -287 687 -287V-36L795 72L687 180V431Q747 431 799.5 408.5Q852 386 891.0 347.0Q930 308 952.5 256.0Q975 204 975 144L1052 177Q1170 177 1267.0 213.0Q1364 249 1432.5 315.5Q1501 382 1538.5 477.5Q1576 573 1576 693Q1529 715 1486.0 741.5Q1443 768 1399 795Q1397 797 1393.5 796.5Q1390 796 1387 797Q1321 810 1264.5 840.5Q1208 871 1164.0 916.0Q1120 961 1091.0 1019.0Q1062 1077 1052 1143L400 1294Q400 1324 411.0 1350.0Q422 1376 441.5 1395.5Q461 1415 487.0 1426.5Q513 1438 543 1438H615Q654 1505 708.5 1558.5Q763 1612 828.0 1649.0Q893 1686 967.0 1705.5Q1041 1725 1118 1725Q1239 1725 1355.5 1692.0Q1472 1659 1575 1595Q1627 1624 1684.5 1638.5Q1742 1653 1802 1653Z" style="fill:#0099bc;stroke:none" transform="scale(1,-1) translate(0,-256)" /></svg>