<?xml version="1.0" encoding="utf-8" ?>
<svg baseProfile="full" height="256" version="1.1" width="256" xmlns="http://www.w3.org/2000/svg" xmlns:ev="http://www.w3.org/2001/xml-events" xmlns:xlink="http://www.w3.org/1999/xlink"><defs /><path d="M1622 935V719Q1622 600 1576.5 495.5Q1531 391 1453.0 313.0Q1375 235 1270.5 189.5Q1166 144 1047 144H975Q975 181 966 216Q1057 216 1137.0 248.5Q1217 281 1277.0 339.0Q1337 397 1371.5 476.0Q1406 555 1406 647V719Q1406 738 1404.5 757.0Q1403 776 1399 795H1409Q1419 795 1429.5 798.5Q1440 802 1440 816Q1440 827 1434.5 837.0Q1429 847 1423 855Q1385 913 1364.5 970.0Q1344 1027 1344 1097Q1344 1190 1383 1273Q1437 1254 1481.0 1220.0Q1525 1186 1556.5 1142.0Q1588 1098 1605.0 1045.0Q1622 992 1622 935ZM400 1294H1047Q1047 1276 1046.5 1258.5Q1046 1241 1046 1223Q1046 1203 1047.0 1183.0Q1048 1163 1052 1143Q1033 1147 1014.0 1148.5Q995 1150 975 1150H543Q513 1150 487.0 1161.5Q461 1173 441.5 1192.5Q422 1212 411.0 1238.0Q400 1264 400 1294Z" style="fill:#b3dbf2;stroke:none" transform="scale(1,-1) translate(0,-256)" /></svg>