<?xml version="1.0" encoding="utf-8" ?>
<svg baseProfile="full" height="256" version="1.1" width="256" xmlns="http://www.w3.org/2000/svg" xmlns:ev="http://www.w3.org/2001/xml-events" xmlns:xlink="http://www.w3.org/1999/xlink"><defs /><path d="M1801 1797Q1855 1797 1910.0 1787.0Q1965 1777 2018.0 1757.5Q2071 1738 2119.5 1709.0Q2168 1680 2207 1643Q2267 1588 2267 1508Q2267 1471 2254.5 1440.0Q2242 1409 2220.0 1386.0Q2198 1363 2168.0 1348.0Q2138 1333 2102 1329Q2081 1327 2060.0 1323.5Q2039 1320 2019 1312Q2072 1207 2098.5 1093.5Q2125 980 2125 863Q2125 715 2087.0 578.5Q2049 442 1980.0 322.5Q1911 203 1814.0 105.0Q1717 7 1599.0 -64.0Q1481 -135 1344.5 -174.0Q1208 -213 1061 -215Q1032 -265 991.5 -305.0Q951 -345 902.5 -373.0Q854 -401 799.5 -416.0Q745 -431 687 -431H543V24L592 72L543 120V575H687Q743 575 796.0 561.0Q849 547 896.5 520.5Q944 494 984.0 456.5Q1024 419 1054 371Q1100 384 1138.5 411.0Q1177 438 1204.5 474.5Q1232 511 1247.0 555.0Q1262 599 1262 647V683Q1150 725 1066.5 810.0Q983 895 941 1006H543Q484 1006 431.5 1029.0Q379 1052 340.0 1091.0Q301 1130 278.5 1182.5Q256 1235 256 1294Q256 1352 278.0 1404.0Q300 1456 338.5 1495.0Q377 1534 428.0 1557.0Q479 1580 538 1581Q589 1649 654.0 1702.5Q719 1756 794.0 1793.0Q869 1830 951.0 1849.5Q1033 1869 1118 1869Q1239 1869 1356.0 1841.0Q1473 1813 1581 1757Q1634 1777 1689.0 1787.0Q1744 1797 1801 1797Z" style="fill:#000000;stroke:none" transform="scale(1,-1) translate(0,-256)" /></svg>