<?xml version="1.0" encoding="utf-8" ?>
<svg baseProfile="full" height="256" version="1.1" width="256" xmlns="http://www.w3.org/2000/svg" xmlns:ev="http://www.w3.org/2001/xml-events" xmlns:xlink="http://www.w3.org/1999/xlink"><defs /><path d="M1406 288Q1525 288 1630.0 333.0Q1735 378 1813.0 456.0Q1891 534 1936.0 639.0Q1981 744 1981 863V503Q1981 457 1960.5 424.0Q1940 391 1909 360L1693 144Q1682 133 1671.5 121.5Q1661 110 1650 99Q1603 53 1537.5 26.5Q1472 0 1406 0Q1337 0 1274.5 26.0Q1212 52 1161 99Q1150 110 1139.5 121.5Q1129 133 1118 144L903 360Q871 392 851.0 423.5Q831 455 831 503V863Q831 744 876.0 639.0Q921 534 999.0 456.0Q1077 378 1182.0 333.0Q1287 288 1406 288Z" style="fill:#16c60c;stroke:none" transform="scale(1,-1) translate(0,-256)" /></svg>