<?xml version="1.0" encoding="utf-8" ?>
<svg baseProfile="full" height="256" version="1.1" width="256" xmlns="http://www.w3.org/2000/svg" xmlns:ev="http://www.w3.org/2001/xml-events" xmlns:xlink="http://www.w3.org/1999/xlink"><defs /><path d="M603 -431H256V-156L740 328Q715 367 701.0 411.5Q687 456 687 503V1222Q687 1340 732.5 1445.0Q778 1550 856.0 1628.0Q934 1706 1038.5 1751.5Q1143 1797 1262 1797H1550Q1668 1797 1773.0 1751.5Q1878 1706 1956.0 1628.0Q2034 1550 2079.5 1445.0Q2125 1340 2125 1222V503Q2125 456 2111.0 411.5Q2097 367 2072 328Q2193 207 2312.0 84.5Q2431 -38 2556 -156V-431H2208L2136 -359H675Z" style="fill:#000000;stroke:none" transform="scale(1,-1) translate(0,-256)" /></svg>