<?xml version="1.0" encoding="utf-8" ?>
<svg baseProfile="full" height="256" version="1.1" width="256" xmlns="http://www.w3.org/2000/svg" xmlns:ev="http://www.w3.org/2001/xml-events" xmlns:xlink="http://www.w3.org/1999/xlink"><defs /><path d="M1118 719Q1148 719 1169.0 698.0Q1190 677 1190 647Q1190 617 1169.0 596.0Q1148 575 1118 575Q1089 575 1068.0 596.5Q1047 618 1047 647Q1047 676 1068.0 697.5Q1089 719 1118 719ZM1693 719Q1723 719 1744.0 698.0Q1765 677 1765 647Q1765 617 1744.0 596.0Q1723 575 1693 575Q1664 575 1642.5 596.5Q1621 618 1621 647Q1621 676 1642.5 697.5Q1664 719 1693 719Z" style="fill:#ffb900;stroke:none" transform="scale(1,-1) translate(0,-256)" /></svg>