<?xml version="1.0" encoding="utf-8" ?>
<svg baseProfile="full" height="256" version="1.1" width="256" xmlns="http://www.w3.org/2000/svg" xmlns:ev="http://www.w3.org/2001/xml-events" xmlns:xlink="http://www.w3.org/1999/xlink"><defs /><path d="M1226 1438Q1241 1438 1251.5 1427.5Q1262 1417 1262 1402V-144Q1262 -173 1250.5 -199.0Q1239 -225 1219.0 -244.5Q1199 -264 1173.0 -275.5Q1147 -287 1118 -287Q1089 -287 1063.0 -275.5Q1037 -264 1017.5 -244.5Q998 -225 986.5 -199.0Q975 -173 975 -144V-121Q975 -101 981.5 -86.5Q988 -72 1011 -72Q1035 -72 1041.0 -87.5Q1047 -103 1047 -121V-144Q1047 -173 1068.0 -194.0Q1089 -215 1118 -215Q1147 -215 1168.5 -194.0Q1190 -173 1190 -144V1402Q1190 1417 1200.5 1427.5Q1211 1438 1226 1438Z" style="fill:#d48c00;stroke:none" transform="scale(1,-1) translate(0,-256)" /></svg>