<?xml version="1.0" encoding="utf-8" ?>
<svg baseProfile="full" height="256" version="1.1" width="256" xmlns="http://www.w3.org/2000/svg" xmlns:ev="http://www.w3.org/2001/xml-events" xmlns:xlink="http://www.w3.org/1999/xlink"><defs /><path d="M2197 1258Q2197 1220 2185.5 1184.0Q2174 1148 2153.0 1116.5Q2132 1085 2103.0 1061.0Q2074 1037 2038 1024Q2060 983 2076.5 936.0Q2093 889 2103.5 840.5Q2114 792 2119.5 742.5Q2125 693 2125 647Q2125 617 2113.5 591.0Q2102 565 2082.5 545.5Q2063 526 2037.0 514.5Q2011 503 1981 503Q1951 503 1928.5 514.0Q1906 525 1883.0 538.5Q1860 552 1832.5 563.5Q1805 575 1765 575Q1726 575 1698.5 563.5Q1671 552 1648.0 538.5Q1625 525 1602.5 514.0Q1580 503 1550 503Q1531 503 1513.0 508.5Q1495 514 1477.0 521.5Q1459 529 1441.5 537.0Q1424 545 1406 550V-144Q1406 -203 1383.0 -255.0Q1360 -307 1320.5 -346.0Q1281 -385 1228.5 -408.0Q1176 -431 1118 -431Q1059 -431 1007.0 -408.0Q955 -385 916.0 -346.0Q877 -307 854.0 -255.0Q831 -203 831 -144V-121Q831 -81 843.5 -46.0Q856 -11 879.5 15.0Q903 41 936.0 56.5Q969 72 1011 72Q1031 72 1047 68V550Q1029 545 1011.5 537.0Q994 529 976.0 521.5Q958 514 940.0 508.5Q922 503 903 503Q873 503 850.5 514.0Q828 525 805.0 538.5Q782 552 754.5 563.5Q727 575 687 575Q648 575 620.5 563.5Q593 552 570.0 538.5Q547 525 524.5 514.0Q502 503 472 503Q442 503 415.5 514.0Q389 525 369.5 544.5Q350 564 339.0 590.5Q328 617 328 647Q328 747 350.0 840.0Q372 933 414 1024Q343 1061 299.5 1117.5Q256 1174 256 1258Q256 1326 287 1390L379 1574Q398 1611 432.0 1632.0Q466 1653 508 1653Q547 1653 581.0 1633.0Q615 1613 634 1578Q657 1632 683.0 1685.0Q709 1738 738 1789Q758 1825 791.0 1847.0Q824 1869 867 1869Q909 1869 942.5 1847.5Q976 1826 995 1789L1087 1606Q1103 1574 1111 1540Q1161 1581 1226 1581Q1258 1581 1287.0 1570.5Q1316 1560 1342 1540Q1349 1573 1365 1606L1457 1789Q1476 1826 1510.0 1847.5Q1544 1869 1586 1869Q1628 1869 1661.5 1847.5Q1695 1826 1714 1789L1806 1606Q1814 1592 1818 1578Q1837 1613 1871.5 1633.0Q1906 1653 1945 1653Q1985 1653 2020.5 1631.5Q2056 1610 2074 1574L2165 1390Q2180 1359 2188.5 1326.0Q2197 1293 2197 1258Z" style="fill:#000000;stroke:none" transform="scale(1,-1) translate(0,-256)" /></svg>