<?xml version="1.0" encoding="utf-8" ?>
<svg baseProfile="full" height="256" version="1.1" width="256" xmlns="http://www.w3.org/2000/svg" xmlns:ev="http://www.w3.org/2001/xml-events" xmlns:xlink="http://www.w3.org/1999/xlink"><defs /><path d="M1945 1510 2037 1326Q2053 1292 2053 1258Q2053 1235 2044.5 1215.5Q2036 1196 2021.5 1181.5Q2007 1167 1987.0 1158.5Q1967 1150 1945 1150Q1922 1150 1902.5 1158.5Q1883 1167 1868.5 1181.5Q1854 1196 1845.5 1215.5Q1837 1235 1837 1258Q1837 1292 1853 1326ZM867 1725 959 1542Q975 1510 975 1474Q975 1452 966.5 1432.5Q958 1413 943.0 1398.0Q928 1383 908.5 1374.5Q889 1366 867 1366Q844 1366 824.5 1374.5Q805 1383 790.5 1397.5Q776 1412 767.5 1431.5Q759 1451 759 1474Q759 1510 775 1542ZM508 1510 599 1326Q615 1294 615 1258Q615 1236 606.5 1216.5Q598 1197 584.0 1182.0Q570 1167 550.0 1158.5Q530 1150 508 1150Q485 1150 465.5 1158.5Q446 1167 431.5 1181.5Q417 1196 408.5 1215.5Q400 1235 400 1258Q400 1294 416 1326ZM1586 1725 1677 1542Q1693 1510 1693 1474Q1693 1452 1684.5 1432.5Q1676 1413 1662.0 1398.0Q1648 1383 1628.0 1374.5Q1608 1366 1586 1366Q1563 1366 1543.5 1374.5Q1524 1383 1509.5 1397.5Q1495 1412 1486.5 1431.5Q1478 1451 1478 1474Q1478 1511 1494 1542Z" style="fill:#31d2f7;stroke:none" transform="scale(1,-1) translate(0,-256)" /></svg>