<?xml version="1.0" encoding="utf-8" ?>
<svg baseProfile="full" height="256" version="1.1" width="256" xmlns="http://www.w3.org/2000/svg" xmlns:ev="http://www.w3.org/2001/xml-events" xmlns:xlink="http://www.w3.org/1999/xlink"><defs /><path d="M1226 1366Q1241 1366 1251.5 1355.5Q1262 1345 1262 1330V899Q1262 884 1251.5 873.5Q1241 863 1226 863Q1211 863 1200.5 873.5Q1190 884 1190 899V1330Q1190 1345 1200.5 1355.5Q1211 1366 1226 1366ZM867 1222Q882 1222 892.5 1211.5Q903 1201 903 1186V971Q903 956 892.5 945.5Q882 935 867 935Q852 935 841.5 945.5Q831 956 831 971V1186Q831 1201 841.5 1211.5Q852 1222 867 1222ZM1945 1510Q1959 1510 1970.0 1499.0Q1981 1488 1981 1474V1258Q1981 1243 1970.5 1232.5Q1960 1222 1945 1222Q1930 1222 1919.5 1232.5Q1909 1243 1909 1258V1474Q1909 1488 1920.0 1499.0Q1931 1510 1945 1510ZM1586 1581Q1600 1581 1611.0 1570.5Q1622 1560 1622 1546V1114Q1622 1100 1611.0 1089.0Q1600 1078 1586 1078Q1571 1078 1560.5 1088.5Q1550 1099 1550 1114V1546Q1550 1560 1561.0 1570.5Q1572 1581 1586 1581Z" style="fill:#ee9889;stroke:none" transform="scale(1,-1) translate(0,-256)" /></svg>