<?xml version="1.0" encoding="utf-8" ?>
<svg baseProfile="full" height="256" version="1.1" width="256" xmlns="http://www.w3.org/2000/svg" xmlns:ev="http://www.w3.org/2001/xml-events" xmlns:xlink="http://www.w3.org/1999/xlink"><defs /><path d="M2412 360V72Q2412 11 2389.0 -39.5Q2366 -90 2327.5 -130.0Q2289 -170 2238.0 -199.5Q2187 -229 2131.5 -248.5Q2076 -268 2018.5 -277.5Q1961 -287 1909 -287Q1857 -287 1799.5 -277.5Q1742 -268 1686.5 -248.5Q1631 -229 1580.0 -199.5Q1529 -170 1490.5 -130.0Q1452 -90 1429.0 -39.5Q1406 11 1406 72V224L1266 245Q1264 274 1262.0 302.5Q1260 331 1260 360Q1260 446 1288.0 514.5Q1316 583 1363.5 635.0Q1411 687 1474.5 723.5Q1538 760 1610.0 783.0Q1682 806 1758.5 816.5Q1835 827 1907 827Q1947 827 1993.5 821.5Q2040 816 2087.0 806.0Q2134 796 2178.5 782.0Q2223 768 2259 750L2261 746Q2256 735 2250.5 721.5Q2245 708 2240.5 693.5Q2236 679 2232.5 665.0Q2229 651 2229 640Q2229 639 2229.5 638.0Q2230 637 2230 636Q2267 612 2300.0 583.5Q2333 555 2358.0 521.0Q2383 487 2397.5 447.0Q2412 407 2412 360Z" style="fill:#2b2b2b;stroke:none" transform="scale(1,-1) translate(0,-256)" /></svg>