<?xml version="1.0" encoding="utf-8" ?>
<svg baseProfile="full" height="256" version="1.1" width="256" xmlns="http://www.w3.org/2000/svg" xmlns:ev="http://www.w3.org/2001/xml-events" xmlns:xlink="http://www.w3.org/1999/xlink"><defs /><path d="M2555 1330V905Q2555 830 2529.5 759.0Q2504 688 2456 630Q2504 573 2529.5 503.5Q2555 434 2555 360V72Q2555 -11 2527.5 -80.5Q2500 -150 2452.5 -206.0Q2405 -262 2341.5 -304.0Q2278 -346 2206.0 -374.5Q2134 -403 2058.0 -417.0Q1982 -431 1909 -431Q1842 -431 1772.5 -419.5Q1703 -408 1636.0 -384.5Q1569 -361 1508.5 -325.5Q1448 -290 1399.0 -242.5Q1350 -195 1316.0 -135.0Q1282 -75 1269 -2Q1197 -29 1118 -29Q1064 -29 1019.0 -18.0Q974 -7 925 16Q815 66 707.5 120.5Q600 175 494 232Q381 292 318.0 390.0Q255 488 255 618V1042Q255 1102 288.0 1155.0Q321 1208 375 1235L1597 1846Q1643 1869 1693 1869Q1744 1869 1790 1846L2437 1523Q2494 1494 2524.5 1443.5Q2555 1393 2555 1330Z" style="fill:#000000;stroke:none" transform="scale(1,-1) translate(0,-256)" /></svg>