<?xml version="1.0" encoding="utf-8" ?>
<svg baseProfile="full" height="256" version="1.1" width="256" xmlns="http://www.w3.org/2000/svg" xmlns:ev="http://www.w3.org/2001/xml-events" xmlns:xlink="http://www.w3.org/1999/xlink"><defs /><path d="M1699 1566Q1755 1566 1806 1545L2231 1375Q2271 1359 2304.5 1331.5Q2338 1304 2362.0 1268.5Q2386 1233 2399.0 1192.0Q2412 1151 2412 1108V905Q2412 808 2363.5 743.0Q2315 678 2230 636Q2157 679 2075.5 699.0Q1994 719 1909 719Q1857 719 1800.0 709.5Q1743 700 1687.0 680.5Q1631 661 1580.0 631.5Q1529 602 1490.5 562.0Q1452 522 1429.0 471.5Q1406 421 1406 360V224L1247 145Q1215 129 1184.0 121.5Q1153 114 1118 114Q1052 114 990 145L559 360Q484 398 442.0 466.0Q400 534 400 618V828Q400 870 412.0 910.0Q424 950 446.5 984.5Q469 1019 500.0 1046.5Q531 1074 570 1091L1583 1541Q1637 1566 1699 1566ZM1909 647Q1950 647 1998.0 639.5Q2046 632 2094.0 617.0Q2142 602 2186.0 579.0Q2230 556 2264.5 524.0Q2299 492 2319.5 451.0Q2340 410 2340 360Q2340 310 2319.5 269.0Q2299 228 2265.0 196.0Q2231 164 2186.5 140.5Q2142 117 2094.0 102.0Q2046 87 1998.0 79.5Q1950 72 1909 72Q1868 72 1820.0 79.5Q1772 87 1724.0 102.0Q1676 117 1631.5 140.5Q1587 164 1553.0 196.0Q1519 228 1498.5 269.0Q1478 310 1478 360Q1478 410 1498.5 451.0Q1519 492 1553.5 524.0Q1588 556 1632.0 579.0Q1676 602 1724.0 617.0Q1772 632 1820.0 639.5Q1868 647 1909 647Z" style="fill:#f2f2f2;stroke:none" transform="scale(1,-1) translate(0,-256)" /></svg>