<?xml version="1.0" encoding="utf-8" ?>
<svg baseProfile="full" height="256" version="1.1" width="256" xmlns="http://www.w3.org/2000/svg" xmlns:ev="http://www.w3.org/2001/xml-events" xmlns:xlink="http://www.w3.org/1999/xlink"><defs /><path d="M400 935V1006Q400 1110 439.5 1202.0Q479 1294 547.0 1362.5Q615 1431 706.5 1470.5Q798 1510 903 1510H1909Q2014 1510 2105.5 1470.5Q2197 1431 2265.0 1362.5Q2333 1294 2372.5 1202.0Q2412 1110 2412 1006V935L1837 1078Q1837 1108 1825.5 1134.0Q1814 1160 1794.5 1179.5Q1775 1199 1749.0 1210.5Q1723 1222 1693 1222H1118Q1088 1222 1062.0 1210.5Q1036 1199 1016.5 1179.5Q997 1160 986.0 1134.0Q975 1108 975 1078ZM482 216 1106 232Q1145 233 1184.0 240.5Q1223 248 1262.0 257.0Q1301 266 1340.0 273.0Q1379 280 1418 280Q1456 280 1494.0 273.0Q1532 266 1570.0 257.0Q1608 248 1646.0 240.5Q1684 233 1722 232L2330 216Q2340 180 2340 139V0Q2340 -30 2329.0 -56.0Q2318 -82 2298.5 -101.5Q2279 -121 2253.0 -132.5Q2227 -144 2197 -144H615Q585 -144 559.0 -132.5Q533 -121 513.5 -101.5Q494 -82 483.0 -56.0Q472 -30 472 0V139Q472 180 482 216Z" style="fill:#af0d1a;stroke:none" transform="scale(1,-1) translate(0,-256)" /></svg>