<?xml version="1.0" encoding="utf-8" ?>
<svg baseProfile="full" height="256" version="1.1" width="256" xmlns="http://www.w3.org/2000/svg" xmlns:ev="http://www.w3.org/2001/xml-events" xmlns:xlink="http://www.w3.org/1999/xlink"><defs /><path d="M615 -287Q556 -287 503.5 -264.5Q451 -242 412.0 -203.0Q373 -164 350.5 -111.5Q328 -59 328 0V139Q328 257 387 357L580 688L329 625L280 820Q272 851 263.0 881.5Q254 912 254 944Q254 960 255.0 975.0Q256 990 256 1006Q256 1095 279.0 1178.0Q302 1261 344.5 1332.5Q387 1404 446.0 1463.0Q505 1522 576.5 1564.5Q648 1607 731.0 1630.0Q814 1653 903 1653H1909Q1998 1653 2081.0 1630.0Q2164 1607 2235.5 1564.5Q2307 1522 2366.0 1463.0Q2425 1404 2467.5 1332.5Q2510 1261 2533.0 1178.0Q2556 1095 2556 1006V917Q2556 913 2551.0 893.0Q2546 873 2539.0 844.0Q2532 815 2523.0 781.0Q2514 747 2506.0 716.0Q2498 685 2491.5 660.0Q2485 635 2483 625L2232 688L2425 357Q2444 325 2455.5 294.5Q2467 264 2473.5 233.0Q2480 202 2482.5 169.5Q2485 137 2485 101Q2485 75 2484.5 50.5Q2484 26 2484 0Q2484 -59 2461.5 -111.5Q2439 -164 2400.0 -203.0Q2361 -242 2308.5 -264.5Q2256 -287 2197 -287Z" style="fill:#000000;stroke:none" transform="scale(1,-1) translate(0,-256)" /></svg>