<?xml version="1.0" encoding="utf-8" ?>
<svg baseProfile="full" height="256" version="1.1" width="256" xmlns="http://www.w3.org/2000/svg" xmlns:ev="http://www.w3.org/2001/xml-events" xmlns:xlink="http://www.w3.org/1999/xlink"><defs /><path d="M687 1294Q738 1294 784.5 1277.5Q831 1261 868.0 1231.0Q905 1201 931.0 1159.0Q957 1117 968 1067L975 1078Q999 1078 1023.5 1077.0Q1048 1076 1072 1076Q1106 1076 1135.0 1083.5Q1164 1091 1196 1103L1262 1078H1550L1623 1106L1693 1078H1837L1843 1067Q1853 1117 1879.5 1158.5Q1906 1200 1943.5 1230.0Q1981 1260 2027.5 1277.0Q2074 1294 2125 1294Q2183 1294 2235.5 1271.0Q2288 1248 2327.0 1208.5Q2366 1169 2389.0 1116.5Q2412 1064 2412 1006Q2412 933 2377 871L1886 993L2301 284Q2311 268 2318.0 251.0Q2325 234 2330 216H482Q492 251 511 284L925 993L435 871Q400 933 400 1006Q400 1066 422.5 1118.5Q445 1171 484.0 1210.0Q523 1249 575.0 1271.5Q627 1294 687 1294Z" style="fill:#e81224;stroke:none" transform="scale(1,-1) translate(0,-256)" /></svg>