<?xml version="1.0" encoding="utf-8" ?>
<svg baseProfile="full" height="256" version="1.1" width="256" xmlns="http://www.w3.org/2000/svg" xmlns:ev="http://www.w3.org/2001/xml-events" xmlns:xlink="http://www.w3.org/1999/xlink"><defs /><path d="M2268 863V504H831Q853 520 881.0 542.0Q909 564 934.0 590.0Q959 616 976.0 644.5Q993 673 993 703Q993 742 979.0 784.5Q965 827 951 863Q959 893 975.5 914.0Q992 935 1027 935H2197Q2226 935 2247.0 913.5Q2268 892 2268 863ZM2158 72H2268V-71H2125Q2125 -26 2108.0 13.0Q2091 52 2061.5 81.0Q2032 110 1993.0 127.0Q1954 144 1909 144Q1864 144 1825.0 127.0Q1786 110 1756.5 81.0Q1727 52 1710.0 13.0Q1693 -26 1693 -71H1047Q1047 -26 1030.0 13.0Q1013 52 983.5 81.0Q954 110 915.0 127.0Q876 144 831 144Q786 144 747.0 127.0Q708 110 678.5 81.0Q649 52 632.0 13.0Q615 -26 615 -71H400V72H582Q621 139 687.0 177.5Q753 216 831 216Q880 216 925.0 200.5Q970 185 1007.0 156.5Q1044 128 1070.5 88.5Q1097 49 1109 1H1631Q1643 49 1669.5 88.5Q1696 128 1733.0 156.5Q1770 185 1815.0 200.5Q1860 216 1909 216Q1987 216 2053.0 177.5Q2119 139 2158 72Z" style="fill:#107c10;stroke:none" transform="scale(1,-1) translate(0,-256)" /></svg>