<?xml version="1.0" encoding="utf-8" ?>
<svg baseProfile="full" height="256" version="1.1" width="256" xmlns="http://www.w3.org/2000/svg" xmlns:ev="http://www.w3.org/2001/xml-events" xmlns:xlink="http://www.w3.org/1999/xlink"><defs /><path d="M831 1Q860 1 881.5 -20.5Q903 -42 903 -71Q903 -101 882.0 -122.0Q861 -143 831 -143Q801 -143 780.0 -122.0Q759 -101 759 -71Q759 -42 780.5 -20.5Q802 1 831 1ZM1909 1Q1938 1 1959.5 -20.5Q1981 -42 1981 -71Q1981 -101 1960.0 -122.0Q1939 -143 1909 -143Q1879 -143 1858.0 -122.0Q1837 -101 1837 -71Q1837 -42 1858.5 -20.5Q1880 1 1909 1ZM975 576V432H903V576Z" style="fill:#e5e5e5;stroke:none" transform="scale(1,-1) translate(0,-256)" /></svg>