<?xml version="1.0" encoding="utf-8" ?>
<svg baseProfile="full" height="256" version="1.1" width="256" xmlns="http://www.w3.org/2000/svg" xmlns:ev="http://www.w3.org/2001/xml-events" xmlns:xlink="http://www.w3.org/1999/xlink"><defs /><path d="M831 184Q865 184 907.0 169.0Q949 154 985.5 128.5Q1022 103 1047.0 68.5Q1072 34 1072 -4Q1072 -22 1065.0 -39.5Q1058 -57 1047 -71Q1047 -116 1030.0 -155.0Q1013 -194 983.5 -223.5Q954 -253 915.0 -270.0Q876 -287 831 -287Q786 -287 747.0 -270.0Q708 -253 678.5 -223.5Q649 -194 632.0 -155.0Q615 -116 615 -71Q600 -46 600 -15Q600 24 622.5 60.0Q645 96 679.0 123.5Q713 151 754.0 167.5Q795 184 831 184ZM1909 184Q1943 184 1985.0 168.5Q2027 153 2063.5 127.0Q2100 101 2125.0 66.5Q2150 32 2150 -6Q2150 -24 2143.0 -40.5Q2136 -57 2125 -71Q2125 -116 2108.0 -155.0Q2091 -194 2061.5 -223.5Q2032 -253 1993.0 -270.0Q1954 -287 1909 -287Q1864 -287 1825.0 -270.0Q1786 -253 1756.5 -223.5Q1727 -194 1710.0 -155.0Q1693 -116 1693 -71Q1670 -42 1670 -5Q1670 34 1694.5 68.0Q1719 102 1755.0 128.0Q1791 154 1832.5 169.0Q1874 184 1909 184ZM2376 72H2304Q2290 72 2279.0 83.0Q2268 94 2268 108V468Q2268 482 2279.0 493.0Q2290 504 2304 504H2376Q2391 504 2401.5 493.5Q2412 483 2412 468V108Q2412 94 2401.0 83.0Q2390 72 2376 72Z" style="fill:#383838;stroke:none" transform="scale(1,-1) translate(0,-256)" /></svg>