<?xml version="1.0" encoding="utf-8" ?>
<svg baseProfile="full" height="256" version="1.1" width="256" xmlns="http://www.w3.org/2000/svg" xmlns:ev="http://www.w3.org/2001/xml-events" xmlns:xlink="http://www.w3.org/1999/xlink"><defs /><path d="M2412 644Q2443 638 2469.5 621.5Q2496 605 2515.0 581.5Q2534 558 2545.0 528.5Q2556 499 2556 468V108Q2556 76 2545.0 47.0Q2534 18 2515.0 -5.5Q2496 -29 2469.5 -45.5Q2443 -62 2412 -68V-215H2238Q2217 -263 2182.5 -303.0Q2148 -343 2105.0 -371.5Q2062 -400 2011.5 -415.5Q1961 -431 1909 -431Q1856 -431 1806.0 -415.5Q1756 -400 1712.5 -371.5Q1669 -343 1635.0 -303.0Q1601 -263 1580 -215H1160Q1139 -263 1104.5 -303.0Q1070 -343 1027.0 -371.5Q984 -400 933.5 -415.5Q883 -431 831 -431Q778 -431 728.0 -415.5Q678 -400 634.5 -371.5Q591 -343 557.0 -303.0Q523 -263 502 -215H256V432Q256 477 273.0 516.0Q290 555 319.5 584.5Q349 614 388.0 631.0Q427 648 472 648H727L822 931Q833 964 853.5 991.0Q874 1018 901.0 1037.5Q928 1057 960.0 1068.0Q992 1079 1027 1079H2197Q2241 1079 2280.0 1061.5Q2319 1044 2348.5 1014.5Q2378 985 2395.0 945.5Q2412 906 2412 863Z" style="fill:#000000;stroke:none" transform="scale(1,-1) translate(0,-256)" /></svg>