<?xml version="1.0" encoding="utf-8" ?>
<svg baseProfile="full" height="256" version="1.1" width="256" xmlns="http://www.w3.org/2000/svg" xmlns:ev="http://www.w3.org/2001/xml-events" xmlns:xlink="http://www.w3.org/1999/xlink"><defs /><path d="M2413 1152Q2413 1107 2396.5 1068.0Q2380 1029 2351.0 1001.0Q2322 973 2283.0 957.0Q2244 941 2199 941Q2154 941 2115.0 957.0Q2076 973 2047.0 1001.5Q2018 1030 2001.5 1068.5Q1985 1107 1985 1152Q1985 1184 1993.5 1212.0Q2002 1240 2018 1267L2199 1581L2380 1267Q2395 1241 2404.0 1212.0Q2413 1183 2413 1152Z" style="fill:#00bcf2;stroke:none" transform="scale(1,-1) translate(0,-256)" /></svg>