<?xml version="1.0" encoding="utf-8" ?>
<svg baseProfile="full" height="256" version="1.1" width="256" xmlns="http://www.w3.org/2000/svg" xmlns:ev="http://www.w3.org/2001/xml-events" xmlns:xlink="http://www.w3.org/1999/xlink"><defs /><path d="M2522 999Q2539 930 2547.5 860.0Q2556 790 2556 719Q2556 560 2515.0 413.0Q2474 266 2399.0 138.5Q2324 11 2219.0 -94.0Q2114 -199 1986.5 -274.0Q1859 -349 1712.0 -390.0Q1565 -431 1406 -431Q1247 -431 1100.0 -390.0Q953 -349 825.5 -274.0Q698 -199 593.0 -94.0Q488 11 413.0 138.5Q338 266 297.0 413.0Q256 560 256 719Q256 878 297.0 1025.0Q338 1172 413.0 1299.5Q488 1427 593.0 1532.0Q698 1637 825.5 1712.0Q953 1787 1100.0 1828.0Q1247 1869 1406 1869Q1589 1869 1758.0 1814.5Q1927 1760 2075 1654L2199 1869L2504 1339Q2529 1295 2542.5 1248.0Q2556 1201 2556 1151Q2556 1072 2522 999Z" style="fill:#000000;stroke:none" transform="scale(1,-1) translate(0,-256)" /></svg>