<?xml version="1.0" encoding="utf-8" ?>
<svg baseProfile="full" height="256" version="1.1" width="256" xmlns="http://www.w3.org/2000/svg" xmlns:ev="http://www.w3.org/2001/xml-events" xmlns:xlink="http://www.w3.org/1999/xlink"><defs /><path d="M1981 503Q1981 384 1935.5 279.5Q1890 175 1812.0 97.0Q1734 19 1629.5 -26.5Q1525 -72 1406 -72Q1287 -72 1182.5 -26.5Q1078 19 1000.0 97.0Q922 175 876.5 279.5Q831 384 831 503ZM1801 1006Q1853 1006 1899.0 986.5Q1945 967 1979.0 933.0Q2013 899 2033.0 853.0Q2053 807 2053 755V719H1981Q1981 756 1967.0 789.0Q1953 822 1928.5 846.5Q1904 871 1871.0 885.0Q1838 899 1801 899Q1763 899 1730.5 885.0Q1698 871 1674.0 846.5Q1650 822 1636.0 789.0Q1622 756 1622 719H1550V755Q1550 807 1569.5 853.0Q1589 899 1623.0 933.0Q1657 967 1702.5 986.5Q1748 1006 1801 1006ZM1011 899Q973 899 940.5 885.0Q908 871 883.5 846.5Q859 822 845.0 789.0Q831 756 831 719H759V755Q759 807 779.0 853.0Q799 899 833.0 933.0Q867 967 913.0 986.5Q959 1006 1011 1006Q1063 1006 1109.0 986.5Q1155 967 1189.0 933.0Q1223 899 1242.5 853.0Q1262 807 1262 755V719H1190Q1190 756 1176.0 789.0Q1162 822 1138.0 846.5Q1114 871 1081.0 885.0Q1048 899 1011 899Z" style="fill:#000000;stroke:none" transform="scale(1,-1) translate(0,-256)" /></svg>