<?xml version="1.0" encoding="utf-8" ?>
<svg baseProfile="full" height="256" version="1.1" width="256" xmlns="http://www.w3.org/2000/svg" xmlns:ev="http://www.w3.org/2001/xml-events" xmlns:xlink="http://www.w3.org/1999/xlink"><defs /><path d="M1119 755Q1119 733 1110.5 713.5Q1102 694 1087.0 679.0Q1072 664 1052.5 655.5Q1033 647 1011 647Q988 647 968.5 655.5Q949 664 934.5 678.5Q920 693 911.5 712.5Q903 732 903 755V899Q903 921 911.5 941.0Q920 961 935.0 975.0Q950 989 969.5 997.5Q989 1006 1011 1006Q1033 1006 1052.5 997.5Q1072 989 1087.0 974.5Q1102 960 1110.5 940.5Q1119 921 1119 899ZM1837 935Q1882 935 1921.0 918.0Q1960 901 1989.5 871.5Q2019 842 2036.0 803.0Q2053 764 2053 719H1981Q1981 749 1960.0 770.0Q1939 791 1909 791H1693Q1663 791 1642.5 769.5Q1622 748 1622 719H1550Q1550 764 1567.0 803.0Q1584 842 1613.0 871.5Q1642 901 1681.0 918.0Q1720 935 1765 935Z" style="fill:#000000;stroke:none" transform="scale(1,-1) translate(0,-256)" /></svg>