<?xml version="1.0" encoding="utf-8" ?>
<svg baseProfile="full" height="256" version="1.1" width="256" xmlns="http://www.w3.org/2000/svg" xmlns:ev="http://www.w3.org/2001/xml-events" xmlns:xlink="http://www.w3.org/1999/xlink"><defs /><path d="M2212 428Q2254 428 2290.5 412.5Q2327 397 2354.0 370.0Q2381 343 2396.5 306.5Q2412 270 2412 228Q2412 189 2397.0 151.5Q2382 114 2354 86L2040 -228L1726 86Q1698 114 1682.5 151.0Q1667 188 1667 228Q1667 270 1683.0 306.5Q1699 343 1726.0 370.0Q1753 397 1789.5 412.5Q1826 428 1868 428Q1897 428 1920.5 421.5Q1944 415 1964.0 403.5Q1984 392 2002.5 375.5Q2021 359 2040 339Q2059 359 2077.5 375.5Q2096 392 2116.0 403.5Q2136 415 2159.5 421.5Q2183 428 2212 428Z" style="fill:#f03a17;stroke:none" transform="scale(1,-1) translate(0,-256)" /></svg>