<?xml version="1.0" encoding="utf-8" ?>
<svg baseProfile="full" height="256" version="1.1" width="256" xmlns="http://www.w3.org/2000/svg" xmlns:ev="http://www.w3.org/2001/xml-events" xmlns:xlink="http://www.w3.org/1999/xlink"><defs /><path d="M1622 431Q1622 403 1611.0 377.5Q1600 352 1581.0 332.5Q1562 313 1537.0 301.0Q1512 289 1484 288Q1512 287 1537.5 275.0Q1563 263 1581.5 243.5Q1600 224 1611.0 198.0Q1622 172 1622 144Q1622 114 1610.5 88.0Q1599 62 1579.5 42.5Q1560 23 1534.0 11.5Q1508 0 1478 0H1262Q1247 0 1236.5 10.5Q1226 21 1226 36Q1226 51 1236.5 61.5Q1247 72 1262 72H1478Q1507 72 1528.5 93.5Q1550 115 1550 144Q1550 174 1529.0 195.0Q1508 216 1478 216H1370Q1340 216 1319.0 237.0Q1298 258 1298 288Q1298 317 1319.5 338.5Q1341 360 1370 360H1478Q1507 360 1528.5 381.0Q1550 402 1550 431Q1550 460 1528.5 481.5Q1507 503 1478 503H1262Q1247 503 1236.5 513.5Q1226 524 1226 539Q1226 554 1236.5 564.5Q1247 575 1262 575H1478Q1508 575 1534.0 563.5Q1560 552 1579.5 532.5Q1599 513 1610.5 487.0Q1622 461 1622 431ZM1801 1221Q1820 1221 1848.5 1217.0Q1877 1213 1909.0 1205.5Q1941 1198 1973.0 1186.5Q2005 1175 2031.0 1159.0Q2057 1143 2073.0 1123.0Q2089 1103 2089 1079Q2089 1049 2068.0 1028.0Q2047 1007 2017 1007Q2002 1007 1981.5 1018.0Q1961 1029 1934.0 1042.0Q1907 1055 1873.5 1066.0Q1840 1077 1801 1077Q1761 1077 1728.0 1066.0Q1695 1055 1668.5 1042.0Q1642 1029 1621.5 1018.0Q1601 1007 1586 1007Q1556 1007 1535.0 1027.5Q1514 1048 1514 1078Q1514 1102 1530.0 1122.5Q1546 1143 1571.5 1159.0Q1597 1175 1629.0 1186.5Q1661 1198 1693.0 1205.5Q1725 1213 1753.5 1217.0Q1782 1221 1801 1221ZM616 989Q616 1002 620 1013Q641 1073 675.5 1127.0Q710 1181 755.0 1226.0Q800 1271 854.0 1306.0Q908 1341 968 1362Q979 1366 992 1366Q1021 1366 1042.5 1344.5Q1064 1323 1064 1294Q1064 1268 1051.0 1252.5Q1038 1237 1016 1226Q960 1200 922.5 1176.5Q885 1153 856.5 1124.5Q828 1096 805.0 1058.0Q782 1020 755 965Q744 943 728.5 930.0Q713 917 687 917Q658 917 637.0 938.5Q616 960 616 989Z" style="fill:#d48c00;stroke:none" transform="scale(1,-1) translate(0,-256)" /></svg>