<?xml version="1.0" encoding="utf-8" ?>
<svg baseProfile="full" height="256" version="1.1" width="256" xmlns="http://www.w3.org/2000/svg" xmlns:ev="http://www.w3.org/2001/xml-events" xmlns:xlink="http://www.w3.org/1999/xlink"><defs /><path d="M1550 1150Q1550 1264 1508.5 1365.0Q1467 1466 1394.0 1543.5Q1321 1621 1223.0 1668.5Q1125 1716 1011 1723H999Q1005 1725 1009 1725Q1117 1725 1216.0 1698.5Q1315 1672 1399.0 1620.0Q1483 1568 1548.0 1489.5Q1613 1411 1652 1308Q1669 1261 1680.5 1212.5Q1692 1164 1692 1114Q1692 1078 1684.0 1042.5Q1676 1007 1665 973Q1635 884 1581.0 810.5Q1527 737 1456.0 684.5Q1385 632 1298.5 603.5Q1212 575 1118 575Q1029 575 950.5 609.0Q872 643 813.5 701.5Q755 760 721.0 838.5Q687 917 687 1006Q687 1066 709.5 1118.5Q732 1171 771.0 1210.0Q810 1249 862.5 1271.5Q915 1294 975 1294Q1005 1294 1031.0 1282.5Q1057 1271 1076.5 1251.5Q1096 1232 1107.0 1206.0Q1118 1180 1118 1150Q1118 1120 1097.5 1099.0Q1077 1078 1047 1078Q1047 1107 1026.0 1128.5Q1005 1150 975 1150Q945 1150 918.5 1138.5Q892 1127 872.5 1107.5Q853 1088 842.0 1062.0Q831 1036 831 1006Q831 947 853.5 894.5Q876 842 915.0 803.0Q954 764 1006.5 741.5Q1059 719 1118 719Q1208 719 1286.5 752.5Q1365 786 1423.5 844.5Q1482 903 1516.0 981.5Q1550 1060 1550 1150Z" style="fill:#f2f2f2;stroke:none" transform="scale(1,-1) translate(0,-256)" /></svg>