<?xml version="1.0" encoding="utf-8" ?>
<svg baseProfile="full" height="256" version="1.1" width="256" xmlns="http://www.w3.org/2000/svg" xmlns:ev="http://www.w3.org/2001/xml-events" xmlns:xlink="http://www.w3.org/1999/xlink"><defs /><path d="M967 1520Q894 1520 826.5 1499.0Q759 1478 700.5 1440.5Q642 1403 595.0 1349.5Q548 1296 515 1232Q493 1189 480.0 1142.5Q467 1096 467 1048L402 1042Q401 1051 400.5 1060.0Q400 1069 400 1078Q400 1180 430.5 1274.0Q461 1368 516.5 1447.0Q572 1526 649.5 1587.0Q727 1648 822 1685Q867 1702 914.5 1713.0Q962 1724 1010 1724Q1089 1724 1163.5 1704.5Q1238 1685 1304.0 1649.5Q1370 1614 1424.5 1563.0Q1479 1512 1518.5 1449.5Q1558 1387 1580.0 1313.5Q1602 1240 1602 1159Q1602 1052 1568.5 960.5Q1535 869 1473.0 801.5Q1411 734 1322.5 695.5Q1234 657 1125 657Q1051 657 986.5 683.5Q922 710 874.5 757.0Q827 804 799.5 868.0Q772 932 772 1006Q772 1040 787.5 1074.5Q803 1109 828.5 1137.0Q854 1165 887.5 1182.5Q921 1200 956 1200Q971 1200 990.0 1197.0Q1009 1194 1025.5 1186.0Q1042 1178 1053.0 1165.0Q1064 1152 1064 1133Q1064 1119 1059.0 1104.5Q1054 1090 1047 1078Q1024 1064 1016.0 1041.0Q1008 1018 1008 992Q1008 969 1023.5 955.5Q1039 942 1061.5 934.0Q1084 926 1107.5 923.5Q1131 921 1148 921Q1193 921 1231.0 947.5Q1269 974 1296.0 1013.5Q1323 1053 1338.5 1099.0Q1354 1145 1354 1185Q1354 1256 1318.5 1317.5Q1283 1379 1227.0 1424.0Q1171 1469 1102.0 1494.5Q1033 1520 967 1520Z" style="fill:#ee3f86;stroke:none" transform="scale(1,-1) translate(0,-256)" /></svg>