<?xml version="1.0" encoding="utf-8" ?>
<svg baseProfile="full" height="256" version="1.1" width="256" xmlns="http://www.w3.org/2000/svg" xmlns:ev="http://www.w3.org/2001/xml-events" xmlns:xlink="http://www.w3.org/1999/xlink"><defs /><path d="M1737 693 2493 -63Q2523 -93 2539.5 -132.5Q2556 -172 2556 -215Q2556 -260 2539.0 -299.5Q2522 -339 2493.0 -368.0Q2464 -397 2424.5 -414.0Q2385 -431 2340 -431Q2297 -431 2257.5 -414.5Q2218 -398 2188 -368L1431 389Q1343 338 1245.5 313.0Q1148 288 1047 288Q938 288 837.0 316.5Q736 345 648.5 396.5Q561 448 488.5 520.0Q416 592 364.5 680.0Q313 768 284.5 868.5Q256 969 256 1078Q256 1187 284.5 1288.0Q313 1389 364.5 1477.0Q416 1565 488.0 1637.0Q560 1709 648.0 1760.5Q736 1812 837.0 1840.5Q938 1869 1047 1869Q1156 1869 1256.5 1840.5Q1357 1812 1445.0 1760.5Q1533 1709 1605.0 1636.5Q1677 1564 1728.5 1476.5Q1780 1389 1808.5 1288.0Q1837 1187 1837 1078Q1837 977 1811.5 879.0Q1786 781 1737 693Z" style="fill:#000000;stroke:none" transform="scale(1,-1) translate(0,-256)" /></svg>