<?xml version="1.0" encoding="utf-8" ?>
<svg baseProfile="full" height="256" version="1.1" width="256" xmlns="http://www.w3.org/2000/svg" xmlns:ev="http://www.w3.org/2001/xml-events" xmlns:xlink="http://www.w3.org/1999/xlink"><defs /><path d="M543 1006Q543 892 584.5 791.0Q626 690 699.0 613.0Q772 536 870.5 488.0Q969 440 1082 433Q1073 433 1064.5 432.0Q1056 431 1047 431Q945 431 851.0 461.5Q757 492 678.0 547.5Q599 603 538.0 681.0Q477 759 441 854Q424 899 413.0 946.0Q402 993 402 1042Q402 1080 410.0 1117.5Q418 1155 431 1191Q462 1278 516.0 1350.0Q570 1422 641.0 1473.5Q712 1525 797.0 1553.0Q882 1581 975 1581Q1064 1581 1142.5 1547.0Q1221 1513 1279.5 1454.5Q1338 1396 1372.0 1317.5Q1406 1239 1406 1150Q1406 1090 1383.5 1038.0Q1361 986 1322.0 947.0Q1283 908 1230.5 885.5Q1178 863 1118 863Q1088 863 1062.0 874.0Q1036 885 1016.5 904.5Q997 924 986.0 950.0Q975 976 975 1006Q975 1036 996.0 1057.0Q1017 1078 1047 1078Q1047 1049 1067.5 1027.5Q1088 1006 1118 1006Q1148 1006 1174.0 1017.5Q1200 1029 1219.5 1048.5Q1239 1068 1250.5 1094.0Q1262 1120 1262 1150Q1262 1210 1239.5 1262.5Q1217 1315 1178.0 1354.0Q1139 1393 1087.0 1415.5Q1035 1438 975 1438Q885 1438 806.5 1404.0Q728 1370 669.5 1311.5Q611 1253 577.0 1174.5Q543 1096 543 1006Z" style="fill:#ffc83d;stroke:none" transform="scale(1,-1) translate(0,-256)" /></svg>