<?xml version="1.0" encoding="utf-8" ?>
<svg baseProfile="full" height="256" version="1.1" width="256" xmlns="http://www.w3.org/2000/svg" xmlns:ev="http://www.w3.org/2001/xml-events" xmlns:xlink="http://www.w3.org/1999/xlink"><defs /><path d="M1101 639Q1266 639 1384.5 717.5Q1503 796 1568 948Q1578 971 1586.5 995.0Q1595 1019 1600 1043Q1603 1055 1604.5 1068.5Q1606 1082 1611 1093Q1619 1110 1627.5 1114.5Q1636 1119 1654 1119Q1672 1119 1692 1114Q1692 1105 1692.5 1096.0Q1693 1087 1693 1078Q1693 975 1662.5 881.5Q1632 788 1576.5 709.5Q1521 631 1443.5 570.0Q1366 509 1271 472Q1226 454 1178.5 443.5Q1131 433 1082 433Q948 433 844.5 477.5Q741 522 667.0 600.0Q593 678 548.0 785.0Q503 892 485 1017Q482 1039 482 1062Q482 1158 525.0 1236.5Q568 1315 637.5 1371.0Q707 1427 794.5 1458.0Q882 1489 971 1489Q1046 1489 1110.0 1466.0Q1174 1443 1221.0 1400.0Q1268 1357 1294.5 1295.0Q1321 1233 1321 1156Q1321 1111 1306.0 1075.0Q1291 1039 1264.5 1014.5Q1238 990 1201.0 976.5Q1164 963 1120 963Q1094 963 1071.0 974.5Q1048 986 1031.0 1004.5Q1014 1023 1003.5 1046.5Q993 1070 993 1095Q1006 1095 1021.0 1098.5Q1036 1102 1049.0 1109.0Q1062 1116 1070.5 1127.5Q1079 1139 1079 1155Q1079 1186 1069.5 1204.0Q1060 1222 1043.5 1230.5Q1027 1239 1004.5 1241.0Q982 1243 957 1243Q899 1243 858.0 1225.5Q817 1208 791.5 1176.5Q766 1145 754.5 1101.0Q743 1057 743 1003Q743 925 769.5 858.5Q796 792 843.5 743.5Q891 695 957.0 667.0Q1023 639 1101 639Z" style="fill:#00bcf2;stroke:none" transform="scale(1,-1) translate(0,-256)" /></svg>