<?xml version="1.0" encoding="utf-8" ?>
<svg baseProfile="full" height="256" version="1.1" width="256" xmlns="http://www.w3.org/2000/svg" xmlns:ev="http://www.w3.org/2001/xml-events" xmlns:xlink="http://www.w3.org/1999/xlink"><defs /><path d="M1406 1725Q1525 1725 1629.5 1679.5Q1734 1634 1812.0 1556.0Q1890 1478 1935.5 1373.5Q1981 1269 1981 1150Q1981 1121 1959.5 1099.5Q1938 1078 1909 1078Q1880 1078 1858.5 1099.5Q1837 1121 1837 1150Q1837 1239 1803.0 1317.5Q1769 1396 1710.5 1454.5Q1652 1513 1573.5 1547.0Q1495 1581 1406 1581Q1317 1581 1238.0 1547.0Q1159 1513 1100.5 1454.5Q1042 1396 1008.0 1317.5Q974 1239 974 1150V431H1118Q1178 431 1230.0 408.5Q1282 386 1321.0 347.0Q1360 308 1382.5 256.0Q1405 204 1405 144H1262Q1203 144 1151.5 166.0Q1100 188 1061.0 225.5Q1022 263 998.5 314.0Q975 365 974 424V-215Q974 -245 953.0 -266.0Q932 -287 902 -287Q872 -287 851.0 -266.0Q830 -245 830 -215V992Q827 935 803.5 885.0Q780 835 741.0 798.0Q702 761 651.0 740.0Q600 719 543 719H400Q400 779 422.5 831.0Q445 883 484.0 922.0Q523 961 575.0 983.5Q627 1006 687 1006H831V1150Q831 1269 876.5 1373.5Q922 1478 1000.0 1556.0Q1078 1634 1182.5 1679.5Q1287 1725 1406 1725Z" style="fill:#13a10e;stroke:none" transform="scale(1,-1) translate(0,-256)" /></svg>