<?xml version="1.0" encoding="utf-8" ?>
<svg baseProfile="full" height="256" version="1.1" width="256" xmlns="http://www.w3.org/2000/svg" xmlns:ev="http://www.w3.org/2001/xml-events" xmlns:xlink="http://www.w3.org/1999/xlink"><defs /><path d="M2196 1123V719Q2196 645 2167.5 579.5Q2139 514 2090.5 465.0Q2042 416 1976.5 388.0Q1911 360 1837 360V431Q1762 431 1696.5 459.5Q1631 488 1582.5 536.5Q1534 585 1505.5 650.5Q1477 716 1477 791V1123ZM1909 -20Q1909 -13 1910.0 2.5Q1911 18 1914.0 33.5Q1917 49 1922.5 60.5Q1928 72 1938 72Q1948 72 1954 63Q2017 -28 2099.0 -78.5Q2181 -129 2294 -129Q2317 -129 2339.0 -126.0Q2361 -123 2384 -118Q2386 -118 2386.5 -117.5Q2387 -117 2389 -117H2393Q2401 -117 2406.5 -122.0Q2412 -127 2412 -135Q2412 -137 2410 -143Q2393 -176 2367.5 -202.5Q2342 -229 2310.5 -247.5Q2279 -266 2243.5 -276.0Q2208 -286 2171 -286Q2117 -286 2069.0 -264.5Q2021 -243 1985.5 -207.0Q1950 -171 1929.5 -122.5Q1909 -74 1909 -20Z" style="fill:#af0d1a;stroke:none" transform="scale(1,-1) translate(0,-256)" /></svg>