<?xml version="1.0" encoding="utf-8" ?>
<svg baseProfile="full" height="256" version="1.1" width="256" xmlns="http://www.w3.org/2000/svg" xmlns:ev="http://www.w3.org/2001/xml-events" xmlns:xlink="http://www.w3.org/1999/xlink"><defs /><path d="M1693 216V309Q1634 326 1581.5 357.0Q1529 388 1485 432H1439Q1492 372 1520.5 298.0Q1549 224 1549 144V0H1262Q1225 0 1189.0 6.5Q1153 13 1118 25V-215Q1118 -260 1101.0 -299.0Q1084 -338 1054.5 -367.5Q1025 -397 986.0 -414.0Q947 -431 902 -431Q857 -431 818.0 -414.0Q779 -397 750.0 -367.5Q721 -338 704.0 -299.0Q687 -260 687 -215V600Q652 588 616.0 581.5Q580 575 543 575H256V719Q256 808 290.0 886.5Q324 965 382.5 1023.5Q441 1082 519.5 1116.0Q598 1150 687 1150Q687 1249 712.5 1341.0Q738 1433 785.0 1513.0Q832 1593 897.5 1658.5Q963 1724 1043.0 1771.0Q1123 1818 1215.0 1843.5Q1307 1869 1406 1869Q1494 1869 1579.0 1847.5Q1664 1826 1740.0 1786.0Q1816 1746 1881.5 1688.5Q1947 1631 1997 1559Q2089 1532 2165.5 1478.5Q2242 1425 2296.5 1351.5Q2351 1278 2381.5 1190.0Q2412 1102 2412 1006V431Q2371 431 2331.0 431.0Q2291 431 2250 432Q2215 381 2169.0 341.0Q2123 301 2069.5 273.5Q2016 246 1957.0 231.0Q1898 216 1837 216ZM2394 27Q2427 27 2456.5 14.0Q2486 1 2508.0 -21.0Q2530 -43 2543.0 -72.5Q2556 -102 2556 -135Q2556 -174 2537 -210Q2511 -261 2471.5 -301.5Q2432 -342 2384.0 -370.5Q2336 -399 2281.5 -414.5Q2227 -430 2171 -430Q2086 -430 2012.0 -397.5Q1938 -365 1883.5 -308.5Q1829 -252 1797.5 -177.5Q1766 -103 1766 -19Q1766 23 1774.5 64.5Q1783 106 1802.5 140.0Q1822 174 1855.0 195.0Q1888 216 1938 216Q1983 216 2018.0 195.5Q2053 175 2077 138Q2115 81 2170.5 48.0Q2226 15 2295 15Q2321 15 2344.5 21.0Q2368 27 2394 27ZM1118 575Q1155 575 1191.0 568.5Q1227 562 1262 550V988Q1262 1116 1313.0 1231.5Q1364 1347 1458 1433Q1430 1438 1406 1438Q1346 1438 1293.5 1415.5Q1241 1393 1202.0 1354.0Q1163 1315 1140.5 1262.5Q1118 1210 1118 1150Z" style="fill:#000000;stroke:none" transform="scale(1,-1) translate(0,-256)" /></svg>