<?xml version="1.0" encoding="utf-8" ?>
<svg baseProfile="full" height="256" version="1.1" width="256" xmlns="http://www.w3.org/2000/svg" xmlns:ev="http://www.w3.org/2001/xml-events" xmlns:xlink="http://www.w3.org/1999/xlink"><defs /><path d="M1835 1359 2158 1294Q2212 1234 2240.0 1160.0Q2268 1086 2268 1006V575Q2223 575 2184.0 592.0Q2145 609 2115.5 638.5Q2086 668 2069.0 707.0Q2052 746 2052 791V1006Q2052 1019 2046.0 1032.0Q2040 1045 2030.0 1055.0Q2020 1065 2007.0 1071.0Q1994 1077 1981 1078Q1981 975 1939.0 883.5Q1897 792 1826.0 723.5Q1755 655 1662.0 615.0Q1569 575 1467 575H1406V988Q1406 1073 1435.5 1152.0Q1465 1231 1522 1294Z" style="fill:#f03a17;stroke:none" transform="scale(1,-1) translate(0,-256)" /></svg>