<?xml version="1.0" encoding="utf-8" ?>
<svg baseProfile="full" height="256" version="1.1" width="256" xmlns="http://www.w3.org/2000/svg" xmlns:ev="http://www.w3.org/2001/xml-events" xmlns:xlink="http://www.w3.org/1999/xlink"><defs /><path d="M1028 579 1390 200 1190 0V-215Q1190 -240 1180.0 -254.5Q1170 -269 1154.5 -276.0Q1139 -283 1119.0 -285.0Q1099 -287 1080 -287Q1060 -287 1041.5 -285.0Q1023 -283 1008.0 -275.5Q993 -268 984.0 -253.5Q975 -239 975 -215V144L831 0V-215Q831 -240 821.0 -254.5Q811 -269 795.5 -276.0Q780 -283 760.0 -285.0Q740 -287 721 -287Q701 -287 682.0 -285.0Q663 -283 648.0 -275.5Q633 -268 624.0 -253.5Q615 -239 615 -215V-36Q615 8 627.0 43.5Q639 79 659.0 110.0Q679 141 705.0 169.0Q731 197 760 226L776 241Q734 266 710.5 307.0Q687 348 687 396V719Q687 749 675.5 775.0Q664 801 644.5 820.5Q625 840 599.0 851.5Q573 863 543 863H400V1006Q400 1051 417.0 1090.0Q434 1129 463.0 1158.5Q492 1188 531.0 1205.0Q570 1222 615 1222H687Q745 1222 797.5 1199.0Q850 1176 889.5 1137.0Q929 1098 952.0 1045.5Q975 993 975 935V686Q975 684 982.5 669.5Q990 655 999.5 637.0Q1009 619 1017.5 602.0Q1026 585 1028 579ZM2129 220Q2158 191 2183.5 164.0Q2209 137 2227.5 107.0Q2246 77 2257.0 42.0Q2268 7 2268 -36V-215Q2268 -244 2247.0 -265.5Q2226 -287 2197 -287H2125Q2095 -287 2074.0 -266.0Q2053 -245 2053 -215V0L1832 221Z" style="fill:#bad80a;stroke:none" transform="scale(1,-1) translate(0,-256)" /></svg>