<?xml version="1.0" encoding="utf-8" ?>
<svg baseProfile="full" height="256" version="1.1" width="256" xmlns="http://www.w3.org/2000/svg" xmlns:ev="http://www.w3.org/2001/xml-events" xmlns:xlink="http://www.w3.org/1999/xlink"><defs /><path d="M1550 575Q1579 575 1600.5 553.5Q1622 532 1622 503V213H1478V503Q1478 533 1499.0 554.0Q1520 575 1550 575ZM1262 575Q1292 575 1313.0 554.0Q1334 533 1334 503V268L1190 360V503Q1190 533 1211.0 554.0Q1232 575 1262 575ZM1837 575Q1867 575 1888.0 554.0Q1909 533 1909 503V198H1765V503Q1765 533 1786.0 554.0Q1807 575 1837 575ZM2125 575Q2154 575 2175.5 553.5Q2197 532 2197 503V198H2053V503Q2053 533 2074.0 554.0Q2095 575 2125 575ZM1693 791Q1723 791 1744.0 770.0Q1765 749 1765 719Q1765 689 1744.0 668.0Q1723 647 1693 647Q1664 647 1643.0 668.5Q1622 690 1622 719Q1622 748 1643.0 769.5Q1664 791 1693 791ZM1406 791Q1436 791 1457.0 770.0Q1478 749 1478 719Q1478 689 1457.0 668.0Q1436 647 1406 647Q1376 647 1355.0 668.0Q1334 689 1334 719Q1334 749 1355.0 770.0Q1376 791 1406 791ZM1118 791Q1148 791 1169.0 770.0Q1190 749 1190 719Q1190 689 1169.0 668.0Q1148 647 1118 647Q1089 647 1068.0 668.5Q1047 690 1047 719Q1047 748 1068.0 769.5Q1089 791 1118 791ZM1262 863Q1232 863 1211.0 884.0Q1190 905 1190 935Q1190 964 1211.5 985.0Q1233 1006 1262 1006Q1291 1006 1312.5 985.0Q1334 964 1334 935Q1334 905 1313.0 884.0Q1292 863 1262 863ZM1550 863Q1520 863 1499.0 884.0Q1478 905 1478 935Q1478 964 1499.5 985.0Q1521 1006 1550 1006Q1579 1006 1600.5 985.0Q1622 964 1622 935Q1622 906 1600.5 884.5Q1579 863 1550 863ZM1837 863Q1807 863 1786.0 884.0Q1765 905 1765 935Q1765 964 1786.5 985.0Q1808 1006 1837 1006Q1866 1006 1887.5 985.0Q1909 964 1909 935Q1909 905 1888.0 884.0Q1867 863 1837 863ZM1981 791Q2011 791 2032.0 770.0Q2053 749 2053 719Q2053 689 2032.0 668.0Q2011 647 1981 647Q1951 647 1930.0 668.0Q1909 689 1909 719Q1909 749 1930.0 770.0Q1951 791 1981 791ZM508 1078Q522 1078 532.5 1067.0Q543 1056 543 1042Q543 1028 532.5 1017.0Q522 1006 508 1006Q494 1006 483.0 1017.0Q472 1028 472 1042Q472 1057 482.5 1067.5Q493 1078 508 1078Z" style="fill:#73aa24;stroke:none" transform="scale(1,-1) translate(0,-256)" /></svg>