<?xml version="1.0" encoding="utf-8" ?>
<svg baseProfile="full" height="256" version="1.1" width="256" xmlns="http://www.w3.org/2000/svg" xmlns:ev="http://www.w3.org/2001/xml-events" xmlns:xlink="http://www.w3.org/1999/xlink"><defs /><path d="M2125 -431Q2080 -431 2041.0 -414.0Q2002 -397 1972.5 -367.5Q1943 -338 1926.0 -299.0Q1909 -260 1909 -215V-144H1334V-215Q1334 -260 1317.0 -299.0Q1300 -338 1270.5 -367.5Q1241 -397 1202.0 -414.0Q1163 -431 1118 -431H1047Q1007 -431 969.5 -416.5Q932 -402 903 -376Q879 -397 855.0 -408.0Q831 -419 807.0 -424.0Q783 -429 757.0 -430.0Q731 -431 702 -431H687Q642 -431 603.0 -414.0Q564 -397 535.0 -367.5Q506 -338 489.0 -299.0Q472 -260 472 -215V-36Q472 1 479.0 40.0Q486 79 500.0 116.0Q514 153 534.0 187.0Q554 221 580 248Q561 282 552.0 320.0Q543 358 543 396V719H256V1006Q256 1080 284.5 1145.5Q313 1211 361.5 1260.0Q410 1309 475.5 1337.5Q541 1366 615 1366H687Q746 1366 801.5 1350.5Q857 1335 905.5 1306.0Q954 1277 994.5 1236.0Q1035 1195 1064 1144Q1145 1182 1231.0 1202.0Q1317 1222 1406 1222H1693Q1802 1222 1903.0 1193.5Q2004 1165 2091.5 1113.5Q2179 1062 2251.5 990.0Q2324 918 2375.5 830.0Q2427 742 2455.5 641.5Q2484 541 2484 432V376Q2519 346 2537.5 304.0Q2556 262 2556 216Q2556 181 2545.0 149.0Q2534 117 2514.5 90.0Q2495 63 2468.0 42.5Q2441 22 2408 11Q2412 -8 2412 -33V-215Q2412 -259 2395.0 -298.0Q2378 -337 2348.5 -366.5Q2319 -396 2280.0 -413.5Q2241 -431 2197 -431Z" style="fill:#000000;stroke:none" transform="scale(1,-1) translate(0,-256)" /></svg>