<?xml version="1.0" encoding="utf-8" ?>
<svg baseProfile="full" height="256" version="1.1" width="256" xmlns="http://www.w3.org/2000/svg" xmlns:ev="http://www.w3.org/2001/xml-events" xmlns:xlink="http://www.w3.org/1999/xlink"><defs /><path d="M1550 863Q1579 863 1600.5 841.5Q1622 820 1622 791V647H1693V0H1118V647H1190V791Q1190 820 1211.5 841.5Q1233 863 1262 863ZM1909 1222 1837 1150H1765L1729 1186L1693 1150H1622L1586 1186L1550 1150H1478L1442 1186L1406 1150H1322Q1310 1118 1289.5 1091.5Q1269 1065 1242.5 1046.0Q1216 1027 1184.0 1016.5Q1152 1006 1118 1006Q1073 1006 1034.0 1023.0Q995 1040 966.0 1069.5Q937 1099 920.0 1138.0Q903 1177 903 1222Q903 1267 920.0 1306.0Q937 1345 966.0 1374.5Q995 1404 1034.0 1421.0Q1073 1438 1118 1438Q1152 1438 1184.0 1427.5Q1216 1417 1242.5 1398.0Q1269 1379 1289.5 1352.5Q1310 1326 1322 1294H1837ZM831 575Q831 605 852.0 626.0Q873 647 903 647H975V0H903Q873 0 852.0 21.0Q831 42 831 72ZM1909 647Q1939 647 1960.0 626.0Q1981 605 1981 575V72Q1981 42 1960.0 21.0Q1939 0 1909 0H1837V647ZM1550 647V791H1262V647ZM1047 1150Q1076 1150 1097.0 1171.5Q1118 1193 1118 1222Q1118 1251 1097.0 1272.5Q1076 1294 1047 1294Q1017 1294 996.0 1273.0Q975 1252 975 1222Q975 1192 996.0 1171.0Q1017 1150 1047 1150Z" style="fill:#ffffff;stroke:none" transform="scale(1,-1) translate(0,-256)" /></svg>