<?xml version="1.0" encoding="utf-8" ?>
<svg baseProfile="full" height="256" version="1.1" width="256" xmlns="http://www.w3.org/2000/svg" xmlns:ev="http://www.w3.org/2001/xml-events" xmlns:xlink="http://www.w3.org/1999/xlink"><defs /><path d="M1186 -431Q925 -431 703.5 -337.5Q482 -244 305 -50L292 -35Q274 -12 265.0 15.5Q256 43 256 72Q256 98 264.5 123.0Q273 148 287 171L831 1047V1116Q802 1172 776.0 1227.5Q750 1283 730.0 1340.0Q710 1397 698.5 1456.5Q687 1516 687 1581V1869H1004L1122 1560Q1130 1538 1148.0 1524.0Q1166 1510 1190 1510Q1213 1510 1231.0 1522.5Q1249 1535 1257 1557L1380 1869H1693V1581Q1693 1516 1681.0 1456.5Q1669 1397 1649.5 1340.0Q1630 1283 1604.0 1228.0Q1578 1173 1550 1116V1047L2094 171Q2108 148 2116.5 123.0Q2125 98 2125 72Q2125 34 2110.5 3.5Q2096 -27 2071 -55Q1987 -150 1885.0 -220.5Q1783 -291 1669.5 -338.0Q1556 -385 1433.5 -408.0Q1311 -431 1186 -431Z" style="fill:#000000;stroke:none" transform="scale(1,-1) translate(0,-256)" /></svg>