<?xml version="1.0" encoding="utf-8" ?>
<svg baseProfile="full" height="256" version="1.1" width="256" xmlns="http://www.w3.org/2000/svg" xmlns:ev="http://www.w3.org/2001/xml-events" xmlns:xlink="http://www.w3.org/1999/xlink"><defs /><path d="M1406 1006 1974 93Q1981 82 1981 72Q1981 64 1970.5 49.5Q1960 35 1943.5 17.5Q1927 0 1907.0 -18.0Q1887 -36 1868.0 -52.5Q1849 -69 1833.0 -81.0Q1817 -93 1809 -98Q1786 -112 1763.0 -116.5Q1740 -121 1717.0 -123.5Q1694 -126 1671.0 -129.0Q1648 -132 1627 -142Q1605 -153 1589.0 -168.0Q1573 -183 1557.5 -198.5Q1542 -214 1524.0 -228.0Q1506 -242 1479 -251Q1448 -261 1414.5 -268.0Q1381 -275 1348 -275Q1327 -275 1307.0 -270.0Q1287 -265 1267.0 -259.5Q1247 -254 1227.0 -249.0Q1207 -244 1186 -244Q1166 -244 1146.5 -249.0Q1127 -254 1108.0 -260.0Q1089 -266 1069.5 -271.0Q1050 -276 1030 -276Q998 -276 965.0 -269.0Q932 -262 901 -252Q872 -243 850.0 -227.5Q828 -212 808.5 -194.5Q789 -177 769.5 -160.0Q750 -143 725 -132Q706 -123 687.0 -121.0Q668 -119 649.0 -118.0Q630 -117 610.5 -113.5Q591 -110 572 -99Q564 -95 548.0 -82.5Q532 -70 513.0 -54.0Q494 -38 474.0 -19.5Q454 -1 437.5 17.0Q421 35 410.5 49.5Q400 64 400 72Q400 82 407 93L975 1006H991V1150H975L958 1185Q934 1232 911.0 1279.5Q888 1327 870.5 1375.5Q853 1424 842.0 1475.0Q831 1526 831 1581V1725H905L988 1509Q1013 1444 1066.5 1405.0Q1120 1366 1190 1366Q1262 1366 1314.0 1404.5Q1366 1443 1392 1509L1478 1725H1550V1581Q1550 1526 1539.0 1475.0Q1528 1424 1510.5 1375.5Q1493 1327 1470.0 1279.5Q1447 1232 1423 1185L1406 1150H1389V1006Z" style="fill:#f03a17;stroke:none" transform="scale(1,-1) translate(0,-256)" /></svg>