<?xml version="1.0" encoding="utf-8" ?>
<svg baseProfile="full" height="256" version="1.1" width="256" xmlns="http://www.w3.org/2000/svg" xmlns:ev="http://www.w3.org/2001/xml-events" xmlns:xlink="http://www.w3.org/1999/xlink"><defs /><path d="M867 431Q881 431 892.0 420.5Q903 410 903 396V-253Q813 -230 729.0 -191.0Q645 -152 570 -98L835 411Q845 431 867 431ZM1514 431Q1536 431 1546 411L1810 -97Q1735 -151 1651.5 -189.5Q1568 -228 1478 -251V396Q1478 410 1489.0 420.5Q1500 431 1514 431ZM1190 431Q1202 431 1212.5 423.0Q1223 415 1225 403L1368 -273Q1323 -281 1277.5 -284.0Q1232 -287 1186 -287Q1098 -287 1013 -275L1156 403Q1158 415 1168.0 423.0Q1178 431 1190 431Z" style="fill:#af0d1a;stroke:none" transform="scale(1,-1) translate(0,-256)" /></svg>