<?xml version="1.0" encoding="utf-8" ?>
<svg baseProfile="full" height="256" version="1.1" width="256" xmlns="http://www.w3.org/2000/svg" xmlns:ev="http://www.w3.org/2001/xml-events" xmlns:xlink="http://www.w3.org/1999/xlink"><defs /><path d="M1836 1156Q1871 1156 1908.0 1149.5Q1945 1143 1975.5 1127.0Q2006 1111 2025.5 1083.0Q2045 1055 2045 1012Q2045 973 2029.0 932.0Q2013 891 1988.5 852.5Q1964 814 1935.0 780.0Q1906 746 1879 719Q1906 692 1935.0 658.0Q1964 624 1988.5 585.5Q2013 547 2029.0 506.0Q2045 465 2045 426Q2045 383 2025.5 355.0Q2006 327 1975.5 311.0Q1945 295 1908.0 288.5Q1871 282 1836 282Q1786 282 1738.0 289.5Q1690 297 1642 310Q1635 284 1623.5 251.0Q1612 218 1597.0 183.5Q1582 149 1562.5 116.0Q1543 83 1519.0 57.0Q1495 31 1467.0 15.5Q1439 0 1406 0Q1373 0 1345.0 15.5Q1317 31 1293.0 57.0Q1269 83 1249.5 116.0Q1230 149 1214.5 183.5Q1199 218 1188.0 251.0Q1177 284 1170 310Q1122 297 1074.0 289.5Q1026 282 976 282Q941 282 903.5 288.0Q866 294 835.5 310.0Q805 326 785.5 353.5Q766 381 766 425Q766 464 782.0 505.0Q798 546 823.0 585.0Q848 624 877.0 658.5Q906 693 933 719Q906 745 877.0 779.5Q848 814 823.0 853.0Q798 892 782.0 933.0Q766 974 766 1013Q766 1056 785.5 1084.0Q805 1112 835.5 1128.0Q866 1144 903.5 1150.0Q941 1156 976 1156Q1026 1156 1074.0 1148.5Q1122 1141 1170 1128Q1177 1154 1188.0 1187.0Q1199 1220 1214.5 1254.5Q1230 1289 1249.5 1322.0Q1269 1355 1293.0 1381.0Q1317 1407 1345.0 1422.5Q1373 1438 1406 1438Q1439 1438 1467.0 1422.5Q1495 1407 1519.0 1381.0Q1543 1355 1562.5 1322.0Q1582 1289 1597.0 1254.5Q1612 1220 1623.5 1187.0Q1635 1154 1642 1128Q1690 1141 1738.0 1148.5Q1786 1156 1836 1156ZM1836 1013Q1794 1013 1753.5 1006.0Q1713 999 1673 988Q1673 986 1673.5 984.5Q1674 983 1674 981Q1678 955 1681.0 931.0Q1684 907 1686 881Q1708 865 1729.5 849.0Q1751 833 1772 816Q1787 831 1808.0 854.5Q1829 878 1848.5 904.0Q1868 930 1882.5 956.0Q1897 982 1900 1004Q1885 1010 1869.0 1011.5Q1853 1013 1836 1013ZM1406 555Q1442 575 1477.5 594.5Q1513 614 1548 637Q1549 657 1549.5 678.0Q1550 699 1550 719Q1550 739 1549.5 760.0Q1549 781 1548 801Q1513 823 1477.5 843.0Q1442 863 1406 883Q1370 863 1334.5 843.0Q1299 823 1264 801Q1263 781 1262.5 760.0Q1262 739 1262 719Q1262 699 1262.5 678.0Q1263 657 1264 637Q1299 614 1334.5 594.5Q1370 575 1406 555ZM1406 1290Q1387 1271 1371.5 1246.0Q1356 1221 1343.5 1194.0Q1331 1167 1322.0 1138.5Q1313 1110 1307 1084Q1332 1074 1357.0 1063.5Q1382 1053 1406 1042Q1430 1053 1455.0 1063.5Q1480 1074 1505 1084Q1491 1139 1468.0 1193.0Q1445 1247 1406 1290ZM912 1004Q915 982 929.5 956.0Q944 930 963.5 904.0Q983 878 1004.0 854.5Q1025 831 1040 816Q1061 833 1082.5 849.0Q1104 865 1126 881Q1128 907 1131.0 931.0Q1134 955 1138 981Q1138 983 1138.5 984.5Q1139 986 1139 988Q1099 999 1058.5 1006.0Q1018 1013 976 1013Q959 1013 943.0 1011.5Q927 1010 912 1004ZM976 425Q1018 425 1058.5 432.0Q1099 439 1139 450Q1139 452 1138.5 453.5Q1138 455 1138 457Q1134 483 1131.0 507.0Q1128 531 1126 557Q1104 573 1082.5 589.0Q1061 605 1040 622Q1025 607 1004.0 583.5Q983 560 963.5 534.0Q944 508 929.5 482.0Q915 456 912 434Q927 428 943.0 426.5Q959 425 976 425ZM1406 148Q1425 167 1440.5 192.0Q1456 217 1468.0 244.5Q1480 272 1489.0 300.0Q1498 328 1505 354Q1480 364 1455.5 374.0Q1431 384 1406 395Q1381 384 1356.5 374.0Q1332 364 1307 354Q1312 329 1321.0 300.5Q1330 272 1343.0 244.0Q1356 216 1372.0 191.0Q1388 166 1406 148ZM1900 434Q1897 456 1882.5 482.0Q1868 508 1848.5 534.0Q1829 560 1808.0 583.5Q1787 607 1772 622Q1751 605 1729.5 589.0Q1708 573 1686 557Q1684 531 1681.0 507.0Q1678 483 1674 457Q1674 455 1673.5 453.5Q1673 452 1673 450Q1713 439 1753.5 432.0Q1794 425 1836 425Q1853 425 1869.0 426.5Q1885 428 1900 434ZM1406 791Q1436 791 1457.0 770.0Q1478 749 1478 719Q1478 689 1457.0 668.0Q1436 647 1406 647Q1376 647 1355.0 668.0Q1334 689 1334 719Q1334 749 1355.0 770.0Q1376 791 1406 791Z" style="fill:#ffffff;stroke:none" transform="scale(1,-1) translate(0,-256)" /></svg>