<?xml version="1.0" encoding="utf-8" ?>
<svg baseProfile="full" height="256" version="1.1" width="256" xmlns="http://www.w3.org/2000/svg" xmlns:ev="http://www.w3.org/2001/xml-events" xmlns:xlink="http://www.w3.org/1999/xlink"><defs /><path d="M1909 288H2053Q2053 228 2030.5 175.5Q2008 123 1969.0 84.0Q1930 45 1877.5 22.5Q1825 0 1765 0Q1706 0 1654.0 23.0Q1602 46 1563.0 85.5Q1524 125 1501.0 177.0Q1478 229 1478 288Q1478 347 1485.0 398.5Q1492 450 1507.0 498.0Q1522 546 1544.5 592.5Q1567 639 1599 689Q1623 727 1641.0 764.5Q1659 802 1670.5 840.5Q1682 879 1687.5 920.0Q1693 961 1693 1006Q1693 1064 1670.0 1116.5Q1647 1169 1608.0 1208.5Q1569 1248 1516.5 1271.0Q1464 1294 1406 1294Q1346 1294 1293.5 1271.5Q1241 1249 1202.0 1210.0Q1163 1171 1140.5 1118.5Q1118 1066 1118 1006Q1118 945 1134.0 900.0Q1150 855 1174.0 816.5Q1198 778 1226.0 741.0Q1254 704 1278.0 660.5Q1302 617 1318.0 561.5Q1334 506 1334 431Q1334 372 1311.5 319.5Q1289 267 1250.0 228.0Q1211 189 1158.5 166.5Q1106 144 1047 144Q988 144 936.0 167.0Q884 190 844.5 229.0Q805 268 782.0 320.0Q759 372 759 431Q759 491 781.5 543.5Q804 596 843.0 635.0Q882 674 934.5 696.5Q987 719 1047 719Q1051 719 1055.0 719.0Q1059 719 1063 718Q1018 781 996.5 855.0Q975 929 975 1006Q975 1095 1009.0 1173.5Q1043 1252 1101.5 1311.0Q1160 1370 1238.5 1404.0Q1317 1438 1406 1438Q1495 1438 1573.5 1404.0Q1652 1370 1710.5 1311.0Q1769 1252 1803.0 1173.5Q1837 1095 1837 1006Q1837 947 1830.0 895.5Q1823 844 1808.0 795.5Q1793 747 1770.0 700.5Q1747 654 1716 605Q1691 566 1673.0 529.0Q1655 492 1644.0 454.0Q1633 416 1627.5 375.0Q1622 334 1622 288Q1622 258 1633.0 232.0Q1644 206 1663.5 186.5Q1683 167 1709.0 155.5Q1735 144 1765 144Q1795 144 1821.0 155.0Q1847 166 1866.5 185.5Q1886 205 1897.5 231.5Q1909 258 1909 288ZM1047 288Q1077 288 1103.0 299.0Q1129 310 1148.5 329.5Q1168 349 1179.0 375.0Q1190 401 1190 431Q1190 461 1179.0 487.0Q1168 513 1148.5 532.5Q1129 552 1103.0 563.5Q1077 575 1047 575Q1017 575 990.5 563.5Q964 552 944.5 532.5Q925 513 914.0 487.0Q903 461 903 431Q903 401 914.5 375.0Q926 349 945.5 329.5Q965 310 991.0 299.0Q1017 288 1047 288Z" style="fill:#ffffff;stroke:none" transform="scale(1,-1) translate(0,-256)" /></svg>