<?xml version="1.0" encoding="utf-8" ?>
<svg baseProfile="full" height="256" version="1.1" width="256" xmlns="http://www.w3.org/2000/svg" xmlns:ev="http://www.w3.org/2001/xml-events" xmlns:xlink="http://www.w3.org/1999/xlink"><defs /><path d="M2412 1569Q2444 1557 2470.5 1537.0Q2497 1517 2516.0 1490.5Q2535 1464 2545.5 1432.0Q2556 1400 2556 1366V791Q2556 735 2542.0 676.5Q2528 618 2504.0 561.0Q2480 504 2449.5 452.0Q2419 400 2386 357Q2366 331 2344.5 308.0Q2323 285 2302 261L1798 -314Q1777 -338 1747.5 -359.5Q1718 -381 1685.0 -396.5Q1652 -412 1617.0 -421.5Q1582 -431 1550 -431H472Q426 -431 386.5 -414.5Q347 -398 318.0 -369.0Q289 -340 272.5 -300.5Q256 -261 256 -215V431Q256 477 272.5 516.5Q289 556 318.0 585.0Q347 614 386.5 630.5Q426 647 472 647H497L1250 373L1662 602Q1609 652 1580.5 717.5Q1552 783 1550 855Q1523 828 1499.5 802.0Q1476 776 1450.0 756.0Q1424 736 1393.5 724.0Q1363 712 1321 712Q1277 712 1237.5 729.0Q1198 746 1168.5 775.0Q1139 804 1122.0 843.0Q1105 882 1105 927Q1105 975 1124.5 1017.5Q1144 1060 1181 1091Q1151 1104 1126.0 1124.0Q1101 1144 1083.5 1170.0Q1066 1196 1056.0 1226.5Q1046 1257 1046 1290Q1046 1323 1055.5 1353.5Q1065 1384 1082.5 1410.5Q1100 1437 1125.0 1457.5Q1150 1478 1181 1490Q1145 1521 1125.0 1563.0Q1105 1605 1105 1653Q1105 1698 1122.0 1737.0Q1139 1776 1168.5 1805.5Q1198 1835 1237.5 1852.0Q1277 1869 1321 1869Q1335 1869 1353.5 1866.0Q1372 1863 1391.0 1857.0Q1410 1851 1427.0 1842.5Q1444 1834 1454 1824L1694 1582V1653Q1694 1698 1711.0 1737.0Q1728 1776 1757.0 1805.5Q1786 1835 1825.0 1852.0Q1864 1869 1909 1869H2197Q2242 1869 2281.0 1852.0Q2320 1835 2349.0 1805.5Q2378 1776 2395.0 1737.0Q2412 1698 2412 1653Z" style="fill:#000000;stroke:none" transform="scale(1,-1) translate(0,-256)" /></svg>