<?xml version="1.0" encoding="utf-8" ?>
<svg baseProfile="full" height="256" version="1.1" width="256" xmlns="http://www.w3.org/2000/svg" xmlns:ev="http://www.w3.org/2001/xml-events" xmlns:xlink="http://www.w3.org/1999/xlink"><defs /><path d="M2340 1438Q2370 1438 2391.0 1417.0Q2412 1396 2412 1366V791Q2412 735 2392.5 675.0Q2373 615 2342.5 557.5Q2312 500 2273.5 449.0Q2235 398 2197 360L1909 575V647Q1864 647 1825.0 664.0Q1786 681 1756.5 710.5Q1727 740 1710.0 779.0Q1693 818 1693 863V1006Q1693 1060 1693.5 1114.0Q1694 1168 1694 1222Q1694 1251 1714.5 1272.5Q1735 1294 1765 1294H1909Q1939 1294 1960.0 1273.0Q1981 1252 1981 1222Q1981 1197 1971.5 1183.0Q1962 1169 1947.0 1161.5Q1932 1154 1913.0 1152.0Q1894 1150 1875 1150H1837V863Q1837 833 1858.0 812.0Q1879 791 1909 791H2197Q2222 791 2236.0 800.5Q2250 810 2257.5 825.0Q2265 840 2267.0 859.0Q2269 878 2269 897V935H2125Q2096 935 2074.5 956.0Q2053 977 2053 1006V1366Q2053 1396 2074.0 1417.0Q2095 1438 2125 1438Z" style="fill:#ffc83d;stroke:none" transform="scale(1,-1) translate(0,-256)" /></svg>