<?xml version="1.0" encoding="utf-8" ?>
<svg baseProfile="full" height="256" version="1.1" width="256" xmlns="http://www.w3.org/2000/svg" xmlns:ev="http://www.w3.org/2001/xml-events" xmlns:xlink="http://www.w3.org/1999/xlink"><defs /><path d="M1622 1145Q1622 1135 1618.0 1129.5Q1614 1124 1608 1118L1362 869Q1356 863 1343.0 859.5Q1330 856 1321 856Q1292 856 1270.5 877.5Q1249 899 1249 928Q1249 951 1260.5 966.5Q1272 982 1290 994L1570 1178Q1573 1180 1578.0 1181.0Q1583 1182 1587 1182Q1601 1182 1611.5 1171.0Q1622 1160 1622 1145ZM1249 1653Q1249 1683 1270.0 1704.0Q1291 1725 1321 1725Q1330 1725 1343.0 1721.5Q1356 1718 1362 1712L1606 1465Q1614 1457 1618.0 1451.5Q1622 1446 1622 1436Q1622 1421 1611.0 1410.5Q1600 1400 1586 1400Q1583 1400 1577.5 1400.5Q1572 1401 1570 1403L1290 1588Q1271 1601 1260.0 1615.0Q1249 1629 1249 1653ZM1261 1219Q1231 1219 1211.0 1241.0Q1191 1263 1191 1292Q1191 1320 1212.0 1341.5Q1233 1363 1261 1363H1268L1588 1327Q1601 1325 1611.0 1316.0Q1621 1307 1621 1293Q1621 1258 1588 1255L1268 1219Z" style="fill:#fff100;stroke:none" transform="scale(1,-1) translate(0,-256)" /></svg>