<?xml version="1.0" encoding="utf-8" ?>
<svg baseProfile="full" height="256" version="1.1" width="256" xmlns="http://www.w3.org/2000/svg" xmlns:ev="http://www.w3.org/2001/xml-events" xmlns:xlink="http://www.w3.org/1999/xlink"><defs /><path d="M2304 1869Q2356 1869 2402.0 1849.0Q2448 1829 2482.0 1795.0Q2516 1761 2536.0 1715.0Q2556 1669 2556 1617Q2556 1559 2532 1510Q2543 1484 2549.5 1457.0Q2556 1430 2556 1402Q2556 1374 2549.5 1347.0Q2543 1320 2532 1294Q2543 1268 2549.5 1241.0Q2556 1214 2556 1186Q2556 1158 2549.5 1131.0Q2543 1104 2532 1078Q2556 1027 2556 970Q2556 912 2532 863Q2543 837 2549.5 810.0Q2556 783 2556 755Q2556 716 2545.0 680.5Q2534 645 2513.5 615.0Q2493 585 2464.0 561.0Q2435 537 2400 522Q2380 418 2329.0 328.5Q2278 239 2203.5 171.0Q2129 103 2035.5 59.5Q1942 16 1837 4V-144H1638Q1665 -173 1679.0 -210.0Q1693 -247 1693 -287V-431H687Q687 -406 686.0 -381.0Q685 -356 685 -331Q685 -302 688.0 -273.5Q691 -245 699.0 -219.0Q707 -193 721.5 -169.5Q736 -146 760 -126Q665 -102 585.5 -48.5Q506 5 449.0 79.0Q392 153 360.0 243.0Q328 333 328 431V791Q328 859 350.5 922.5Q373 986 416 1039L403 1078H256Q256 1103 255.5 1127.5Q255 1152 255 1177Q255 1241 263.5 1284.5Q272 1328 290.5 1363.0Q309 1398 339.0 1431.5Q369 1465 412 1509Q436 1575 490.5 1614.0Q545 1653 615 1653H903Q964 1653 1016.5 1630.0Q1069 1607 1107.5 1567.5Q1146 1528 1168.0 1474.5Q1190 1421 1190 1361Q1208 1363 1226.0 1364.5Q1244 1366 1262 1366Q1360 1366 1454 1332L1843 1721Q1877 1755 1918.5 1782.5Q1960 1810 2005.5 1829.0Q2051 1848 2100.0 1858.5Q2149 1869 2197 1869Z" style="fill:#000000;stroke:none" transform="scale(1,-1) translate(0,-256)" /></svg>