<?xml version="1.0" encoding="utf-8" ?>
<svg baseProfile="full" height="256" version="1.1" width="256" xmlns="http://www.w3.org/2000/svg" xmlns:ev="http://www.w3.org/2001/xml-events" xmlns:xlink="http://www.w3.org/1999/xlink"><defs /><path d="M1262 1222Q1351 1222 1429.5 1188.0Q1508 1154 1566.5 1095.5Q1625 1037 1659.0 958.5Q1693 880 1693 791V0L1260 673Q1251 687 1241 698L1135 682L958 497Q936 474 914.0 450.5Q892 427 869 405Q845 383 819.0 364.0Q793 345 767 325L563 165Q518 222 495.0 290.5Q472 359 472 431Q472 516 504.5 594.5Q537 673 597 733L966 1102Q1024 1160 1102.0 1191.0Q1180 1222 1262 1222Z" style="fill:#8e562e;stroke:none" transform="scale(1,-1) translate(0,-256)" /></svg>