<?xml version="1.0" encoding="utf-8" ?>
<svg baseProfile="full" height="256" version="1.1" width="256" xmlns="http://www.w3.org/2000/svg" xmlns:ev="http://www.w3.org/2001/xml-events" xmlns:xlink="http://www.w3.org/1999/xlink"><defs /><path d="M2412 1402Q2412 1357 2382.5 1326.5Q2353 1296 2308 1294Q2330 1293 2349.0 1284.0Q2368 1275 2382.0 1261.0Q2396 1247 2404.0 1227.5Q2412 1208 2412 1186Q2412 1164 2404.0 1145.0Q2396 1126 2381.5 1111.5Q2367 1097 2348.0 1088.0Q2329 1079 2308 1078Q2329 1077 2348.0 1068.0Q2367 1059 2381.0 1044.5Q2395 1030 2403.5 1011.0Q2412 992 2412 971Q2412 926 2382.5 895.5Q2353 865 2308 863Q2329 862 2348.0 853.0Q2367 844 2381.5 829.5Q2396 815 2404.0 795.5Q2412 776 2412 755Q2412 732 2403.5 712.5Q2395 693 2380.5 678.5Q2366 664 2346.0 655.5Q2326 647 2304 647H2268V1725H2304Q2326 1725 2346.0 1716.5Q2366 1708 2380.5 1693.5Q2395 1679 2403.5 1659.0Q2412 1639 2412 1617Q2412 1595 2404.0 1576.0Q2396 1557 2382.0 1543.0Q2368 1529 2349.0 1520.0Q2330 1511 2308 1510Q2329 1509 2348.0 1500.0Q2367 1491 2381.5 1476.5Q2396 1462 2404.0 1442.5Q2412 1423 2412 1402ZM1168 769Q1188 753 1206.5 735.5Q1225 718 1241 698L636 93Q616 109 598.5 128.0Q581 147 565 167Z" style="fill:#d8b094;stroke:none" transform="scale(1,-1) translate(0,-256)" /></svg>