<?xml version="1.0" encoding="utf-8" ?>
<svg baseProfile="full" height="256" version="1.1" width="256" xmlns="http://www.w3.org/2000/svg" xmlns:ev="http://www.w3.org/2001/xml-events" xmlns:xlink="http://www.w3.org/1999/xlink"><defs /><path d="M472 791Q472 849 493.5 891.5Q515 934 546.5 966.5Q578 999 615.5 1024.5Q653 1050 684.5 1074.5Q716 1099 737.5 1125.5Q759 1152 759 1186V1294L1047 1219V431H472ZM543 1438Q543 1467 564.5 1488.5Q586 1510 615 1510L695 1356L615 1222V1114Q615 1099 604.5 1088.5Q594 1078 579 1078Q565 1078 554.0 1089.0Q543 1100 543 1114Z" style="fill:#f03a17;stroke:none" transform="scale(1,-1) translate(0,-256)" /></svg>