<?xml version="1.0" encoding="utf-8" ?>
<svg baseProfile="full" height="256" version="1.1" width="256" xmlns="http://www.w3.org/2000/svg" xmlns:ev="http://www.w3.org/2001/xml-events" xmlns:xlink="http://www.w3.org/1999/xlink"><defs /><path d="M1334 1009 1945 1620Q1953 1628 1962.5 1635.0Q1972 1642 1981 1649L2051 1573V292L1981 193Q1946 176 1914.0 166.5Q1882 157 1851.0 152.0Q1820 147 1789.0 145.5Q1758 144 1724 144H1653L1693 0H903Q831 0 762.0 24.0Q693 48 636 93L665 211L1109 655L1241 698Q1242 698 1244.0 702.5Q1246 707 1248.0 712.0Q1250 717 1252.0 722.0Q1254 727 1254 728Q1277 797 1294.0 868.5Q1311 940 1334 1009ZM2197 1725H2268L2316 1627V715L2268 647Q2268 547 2231.0 457.0Q2194 367 2125 295L2064 427V1624L2125 1717Q2163 1725 2197 1725Z" style="fill:#613d30;stroke:none" transform="scale(1,-1) translate(0,-256)" /></svg>