<?xml version="1.0" encoding="utf-8" ?>
<svg baseProfile="full" height="256" version="1.1" width="256" xmlns="http://www.w3.org/2000/svg" xmlns:ev="http://www.w3.org/2001/xml-events" xmlns:xlink="http://www.w3.org/1999/xlink"><defs /><path d="M1478 -431V-287Q1478 -241 1497.0 -199.0Q1516 -157 1550 -127V72H1190V-127Q1214 -148 1228.5 -172.0Q1243 -196 1251.0 -221.5Q1259 -247 1261.5 -275.0Q1264 -303 1264 -331Q1264 -356 1263.0 -380.5Q1262 -405 1262 -431H400V-287Q400 -241 418.5 -199.0Q437 -157 472 -127V72H272L356 325Q328 375 328 431V1006Q328 1059 346.5 1108.0Q365 1157 400 1196V1438Q400 1527 434.0 1605.5Q468 1684 526.5 1742.5Q585 1801 663.5 1835.0Q742 1869 831 1869Q920 1869 998.5 1835.0Q1077 1801 1135.5 1742.5Q1194 1684 1228.0 1605.5Q1262 1527 1262 1438V1136L1370 949L1478 1136V1438Q1478 1527 1512.0 1605.5Q1546 1684 1604.5 1742.5Q1663 1801 1741.5 1835.0Q1820 1869 1909 1869Q1998 1869 2076.5 1835.0Q2155 1801 2213.5 1742.5Q2272 1684 2306.0 1605.5Q2340 1527 2340 1438V1196Q2375 1157 2393.5 1108.0Q2412 1059 2412 1006V431Q2412 375 2384 325L2468 72H2268V-127Q2292 -148 2306.5 -172.0Q2321 -196 2329.0 -222.5Q2337 -249 2339.5 -277.0Q2342 -305 2342 -334Q2342 -358 2341.0 -382.5Q2340 -407 2340 -431Z" style="fill:#000000;stroke:none" transform="scale(1,-1) translate(0,-256)" /></svg>