<?xml version="1.0" encoding="utf-8" ?>
<svg baseProfile="full" height="256" version="1.1" width="256" xmlns="http://www.w3.org/2000/svg" xmlns:ev="http://www.w3.org/2001/xml-events" xmlns:xlink="http://www.w3.org/1999/xlink"><defs /><path d="M1693 -144Q1693 -134 1700.0 -123.5Q1707 -113 1718.0 -104.5Q1729 -96 1741.0 -90.5Q1753 -85 1764 -85Q1775 -85 1788.0 -90.5Q1801 -96 1812.0 -104.5Q1823 -113 1830.0 -123.5Q1837 -134 1837 -144V-287H1622Q1622 -258 1643.0 -236.5Q1664 -215 1693 -215ZM1047 -215Q1076 -215 1097.0 -236.5Q1118 -258 1118 -287H903V-144Q913 -123 933.0 -103.5Q953 -84 978 -84Q1003 -84 1021.0 -103.5Q1039 -123 1047 -144ZM615 -144Q624 -123 643.0 -106.5Q662 -90 686 -90Q710 -90 729.5 -106.5Q749 -123 759 -144V-287H543Q543 -258 564.5 -236.5Q586 -215 615 -215ZM2125 -215Q2154 -215 2175.5 -236.5Q2197 -258 2197 -287H1981V-144Q1981 -134 1988.5 -125.0Q1996 -116 2007.0 -108.5Q2018 -101 2030.0 -96.5Q2042 -92 2052 -92Q2076 -92 2096.5 -106.5Q2117 -121 2125 -144Z" style="fill:#757575;stroke:none" transform="scale(1,-1) translate(0,-256)" /></svg>