<?xml version="1.0" encoding="utf-8" ?>
<svg baseProfile="full" height="256" version="1.1" width="256" xmlns="http://www.w3.org/2000/svg" xmlns:ev="http://www.w3.org/2001/xml-events" xmlns:xlink="http://www.w3.org/1999/xlink"><defs /><path d="M2125 1150Q2155 1150 2181.0 1138.5Q2207 1127 2226.5 1107.5Q2246 1088 2257.0 1062.0Q2268 1036 2268 1006V863Q2258 841 2238.0 825.0Q2218 809 2194 809H2185Q2175 809 2171 810V587H1693V934L1652 863Q1646 852 1632.0 841.5Q1618 831 1602.0 823.5Q1586 816 1569.5 811.5Q1553 807 1541 807Q1517 807 1501.0 818.5Q1485 830 1485 855Q1485 859 1494.5 878.0Q1504 897 1519.0 923.5Q1534 950 1551.5 980.0Q1569 1010 1585.5 1037.5Q1602 1065 1614.5 1086.0Q1627 1107 1631 1114Q1641 1131 1657.5 1140.0Q1674 1149 1693 1149Z" style="fill:#f03a17;stroke:none" transform="scale(1,-1) translate(0,-256)" /></svg>