<?xml version="1.0" encoding="utf-8" ?>
<svg baseProfile="full" height="256" version="1.1" width="256" xmlns="http://www.w3.org/2000/svg" xmlns:ev="http://www.w3.org/2001/xml-events" xmlns:xlink="http://www.w3.org/1999/xlink"><defs /><path d="M1254 863Q1254 837 1235.0 823.0Q1216 809 1192 809Q1164 809 1144.0 818.0Q1124 827 1108.5 842.0Q1093 857 1081.0 876.5Q1069 896 1057 916L1047 934V582H585V807Q583 804 575.5 802.0Q568 800 560.0 799.0Q552 798 545.0 798.0Q538 798 537 798Q525 798 513.5 804.0Q502 810 493.0 819.0Q484 828 478.0 839.5Q472 851 472 863V1006Q472 1036 483.0 1062.0Q494 1088 513.5 1107.5Q533 1127 559.0 1138.5Q585 1150 615 1150H1047Q1066 1150 1082.5 1140.5Q1099 1131 1109 1114Z" style="fill:#886ce4;stroke:none" transform="scale(1,-1) translate(0,-256)" /></svg>