<?xml version="1.0" encoding="utf-8" ?>
<svg baseProfile="full" height="256" version="1.1" width="256" xmlns="http://www.w3.org/2000/svg" xmlns:ev="http://www.w3.org/2001/xml-events" xmlns:xlink="http://www.w3.org/1999/xlink"><defs /><path d="M977 1500Q982 1474 1001.0 1457.5Q1020 1441 1046 1441Q1046 1440 1046.5 1439.5Q1047 1439 1047 1438Q1047 1393 1030.0 1354.0Q1013 1315 983.5 1285.5Q954 1256 915.0 1239.0Q876 1222 831 1222Q786 1222 747.0 1239.0Q708 1256 678.5 1285.5Q649 1315 632.0 1354.0Q615 1393 615 1438Q653 1440 685.5 1459.0Q718 1478 738 1510V1441Q776 1441 808.5 1460.0Q841 1479 861 1511V1440Q896 1440 926.5 1456.0Q957 1472 977 1500ZM2125 1438Q2125 1393 2108.0 1354.0Q2091 1315 2061.5 1285.5Q2032 1256 1993.0 1239.0Q1954 1222 1909 1222Q1864 1222 1825.0 1239.0Q1786 1256 1757.0 1285.5Q1728 1315 1711.0 1354.0Q1694 1393 1694 1438Q1731 1440 1763.5 1459.0Q1796 1478 1816 1510V1441Q1854 1441 1886.5 1460.0Q1919 1479 1939 1511V1440Q1974 1440 2004.5 1456.0Q2035 1472 2055 1500Q2060 1474 2079.0 1457.5Q2098 1441 2124 1441Q2124 1440 2124.5 1439.5Q2125 1439 2125 1438ZM1652 863 1432 482Q1423 466 1405.5 456.5Q1388 447 1370 447Q1341 447 1320.0 468.5Q1299 490 1299 519Q1299 537 1308 554L1486 863ZM2268 863V431Q2268 408 2254.5 389.5Q2241 371 2219 363Q2217 368 2209.5 390.5Q2202 413 2192.0 444.5Q2182 476 2170.0 511.5Q2158 547 2148.0 577.0Q2138 607 2131.5 627.0Q2125 647 2125 647V863ZM472 863H615V647Q615 647 608.5 627.0Q602 607 592.0 577.0Q582 547 570.0 511.5Q558 476 548.0 444.5Q538 413 530.0 390.5Q522 368 521 363Q499 371 485.5 389.5Q472 408 472 431ZM2125 -144H1981V216H2125ZM903 216H1047V-144H903ZM615 216H759V-144H615ZM1837 -144H1693V216H1837Z" style="fill:#ffc83d;stroke:none" transform="scale(1,-1) translate(0,-256)" /></svg>