<?xml version="1.0" encoding="utf-8" ?>
<svg baseProfile="full" height="256" version="1.1" width="256" xmlns="http://www.w3.org/2000/svg" xmlns:ev="http://www.w3.org/2001/xml-events" xmlns:xlink="http://www.w3.org/1999/xlink"><defs /><path d="M2017 1441Q2032 1441 2042.5 1430.5Q2053 1420 2053 1405Q2053 1390 2042.5 1379.5Q2032 1369 2017 1369Q2002 1369 1991.5 1379.5Q1981 1390 1981 1405Q1981 1420 1991.5 1430.5Q2002 1441 2017 1441ZM1801 1441Q1816 1441 1826.5 1430.5Q1837 1420 1837 1405Q1837 1390 1826.5 1379.5Q1816 1369 1801 1369Q1786 1369 1775.5 1379.5Q1765 1390 1765 1405Q1765 1420 1775.5 1430.5Q1786 1441 1801 1441ZM939 1441Q954 1441 964.5 1430.5Q975 1420 975 1405Q975 1390 964.5 1379.5Q954 1369 939 1369Q924 1369 913.5 1379.5Q903 1390 903 1405Q903 1420 913.5 1430.5Q924 1441 939 1441ZM723 1441Q738 1441 748.5 1430.5Q759 1420 759 1405Q759 1390 748.5 1379.5Q738 1369 723 1369Q708 1369 697.5 1379.5Q687 1390 687 1405Q687 1420 697.5 1430.5Q708 1441 723 1441Z" style="fill:#000000;stroke:none" transform="scale(1,-1) translate(0,-256)" /></svg>