<?xml version="1.0" encoding="utf-8" ?>
<svg baseProfile="full" height="256" version="1.1" width="256" xmlns="http://www.w3.org/2000/svg" xmlns:ev="http://www.w3.org/2001/xml-events" xmlns:xlink="http://www.w3.org/1999/xlink"><defs /><path d="M1904 1575Q2009 1575 2101.5 1535.0Q2194 1495 2263.0 1425.5Q2332 1356 2372.0 1263.5Q2412 1171 2412 1066Q2412 964 2373.5 871.5Q2335 779 2263 707L1406 -150L549 707Q477 779 438.5 871.5Q400 964 400 1066Q400 1171 440.0 1263.5Q480 1356 549.0 1425.5Q618 1495 710.5 1535.0Q803 1575 908 1575Q988 1575 1051.0 1555.5Q1114 1536 1167.0 1502.5Q1220 1469 1267.5 1424.5Q1315 1380 1365 1329L1406 1287L1446 1328Q1496 1379 1543.5 1424.0Q1591 1469 1644.0 1502.5Q1697 1536 1760.0 1555.5Q1823 1575 1904 1575ZM1406 53 2162 809Q2213 860 2240.5 926.5Q2268 993 2268 1066Q2268 1142 2239.5 1208.5Q2211 1275 2162.0 1324.5Q2113 1374 2046.5 1402.5Q1980 1431 1904 1431Q1833 1431 1779.5 1409.5Q1726 1388 1680.5 1353.0Q1635 1318 1594.0 1274.0Q1553 1230 1508 1185L1406 1084L1304 1185Q1259 1230 1217.5 1274.0Q1176 1318 1131.0 1353.0Q1086 1388 1032.0 1409.5Q978 1431 908 1431Q833 1431 766.5 1402.0Q700 1373 650.5 1323.5Q601 1274 572.0 1207.5Q543 1141 543 1066Q543 993 571.0 926.5Q599 860 650 809Z" style="fill:#f03a17;stroke:none" transform="scale(1,-1) translate(0,-256)" /></svg>