<?xml version="1.0" encoding="utf-8" ?>
<svg baseProfile="full" height="256" version="1.1" width="256" xmlns="http://www.w3.org/2000/svg" xmlns:ev="http://www.w3.org/2001/xml-events" xmlns:xlink="http://www.w3.org/1999/xlink"><defs /><path d="M256 1066Q256 1156 279.5 1239.5Q303 1323 345.0 1395.0Q387 1467 447.0 1527.0Q507 1587 579.0 1629.0Q651 1671 734.5 1694.5Q818 1718 908 1718Q985 1718 1053.0 1702.5Q1121 1687 1181.5 1658.0Q1242 1629 1297.5 1586.5Q1353 1544 1406 1490Q1459 1544 1514.5 1586.5Q1570 1629 1630.5 1658.5Q1691 1688 1759.0 1703.0Q1827 1718 1904 1718Q1994 1718 2077.0 1694.5Q2160 1671 2232.5 1628.5Q2305 1586 2364.5 1526.5Q2424 1467 2466.5 1394.5Q2509 1322 2532.5 1239.0Q2556 1156 2556 1066Q2556 934 2507.5 816.5Q2459 699 2365 605L1406 -354L447 605Q353 699 304.5 816.5Q256 934 256 1066Z" style="fill:#000000;stroke:none" transform="scale(1,-1) translate(0,-256)" /></svg>