<?xml version="1.0" encoding="utf-8" ?>
<svg baseProfile="full" height="256" version="1.1" width="256" xmlns="http://www.w3.org/2000/svg" xmlns:ev="http://www.w3.org/2001/xml-events" xmlns:xlink="http://www.w3.org/1999/xlink"><defs /><path d="M1904 1725Q1994 1725 2077.0 1701.5Q2160 1678 2232.5 1635.5Q2305 1593 2364.5 1533.5Q2424 1474 2466.5 1401.5Q2509 1329 2532.5 1246.0Q2556 1163 2556 1073Q2556 1009 2543.0 946.0Q2530 883 2505.5 823.5Q2481 764 2445.5 710.5Q2410 657 2365 612L1406 -347L1086 -27Q1048 -100 1012.0 -173.5Q976 -247 939 -321L724 109L294 324Q368 361 441.5 397.0Q515 433 588 471L447 612Q356 704 306.0 823.5Q256 943 256 1073Q256 1163 279.5 1246.5Q303 1330 345.0 1402.0Q387 1474 447.0 1534.0Q507 1594 579.0 1636.0Q651 1678 734.5 1701.5Q818 1725 908 1725Q984 1725 1052.0 1709.5Q1120 1694 1181.0 1664.5Q1242 1635 1297.5 1593.0Q1353 1551 1406 1497Q1510 1605 1631.0 1665.0Q1752 1725 1904 1725Z" style="fill:#000000;stroke:none" transform="scale(1,-1) translate(0,-256)" /></svg>