<?xml version="1.0" encoding="utf-8" ?>
<svg baseProfile="full" height="256" version="1.1" width="256" xmlns="http://www.w3.org/2000/svg" xmlns:ev="http://www.w3.org/2001/xml-events" xmlns:xlink="http://www.w3.org/1999/xlink"><defs /><path d="M2296 991Q2373 902 2431.0 800.0Q2489 698 2525 586Q2538 547 2547.0 510.0Q2556 473 2556 431Q2556 356 2527.5 290.5Q2499 225 2449.5 176.5Q2400 128 2334.0 100.0Q2268 72 2193 72Q2196 54 2196 37Q2196 0 2182.0 -33.0Q2168 -66 2144.0 -90.5Q2120 -115 2087.0 -129.5Q2054 -144 2017 -144Q1943 -144 1890 -91L1674 125Q1645 154 1633.5 187.5Q1622 221 1622 262Q1578 292 1537.5 327.0Q1497 362 1460 400Q1446 395 1433.0 390.0Q1420 385 1406 381V252Q1406 211 1387 171L1279 -44Q1256 -91 1213.0 -117.5Q1170 -144 1118 -144Q1081 -144 1048.5 -129.5Q1016 -115 991.5 -90.5Q967 -66 953.0 -33.5Q939 -1 939 36Q939 65 946.5 88.0Q954 111 968 137L732 19Q692 0 651 0Q614 0 581.5 14.0Q549 28 524.5 52.5Q500 77 486.0 110.0Q472 143 472 180Q472 232 498.5 274.5Q525 317 571 340L759 435V450L687 418L628 444Q598 458 569.0 475.5Q540 493 514 512Q458 552 411.0 601.0Q364 650 329.5 706.5Q295 763 275.5 827.5Q256 892 256 963Q256 1039 283.0 1110.0Q310 1181 362 1238Q314 1260 285.0 1304.5Q256 1349 256 1402Q256 1439 270.0 1471.5Q284 1504 308.5 1528.5Q333 1553 366.0 1567.0Q399 1581 436 1581H472Q527 1581 578.0 1565.0Q629 1549 673.0 1519.5Q717 1490 751.0 1448.5Q785 1407 805 1356Q851 1345 893.5 1324.5Q936 1304 972 1274Q990 1287 1008.5 1297.5Q1027 1308 1047 1318L1068 1360Q1119 1461 1193.5 1542.0Q1268 1623 1359.5 1679.5Q1451 1736 1556.5 1766.5Q1662 1797 1776 1797H2124Q2157 1797 2189.5 1786.5Q2222 1776 2249.0 1757.0Q2276 1738 2296.5 1711.5Q2317 1685 2328 1653Q2373 1653 2413.5 1637.0Q2454 1621 2484.0 1593.0Q2514 1565 2532.0 1526.0Q2550 1487 2550 1441Q2550 1423 2547 1405Q2527 1280 2462.0 1173.5Q2397 1067 2296 991Z" style="fill:#000000;stroke:none" transform="scale(1,-1) translate(0,-256)" /></svg>