<?xml version="1.0" encoding="utf-8" ?>
<svg baseProfile="full" height="256" version="1.1" width="256" xmlns="http://www.w3.org/2000/svg" xmlns:ev="http://www.w3.org/2001/xml-events" xmlns:xlink="http://www.w3.org/1999/xlink"><defs /><path d="M651 144Q636 144 625.5 154.5Q615 165 615 180Q615 202 635 212L903 346V539Q903 555 913 565L1057 708Q1067 718 1082 718Q1097 718 1107.5 708.0Q1118 698 1118 683Q1118 668 1108 658L975 524V324Q975 314 969.5 305.0Q964 296 955 291L667 148Q660 144 651 144ZM1118 0Q1104 0 1093.0 11.0Q1082 22 1082 36Q1082 42 1089.0 58.5Q1096 75 1106.5 97.5Q1117 120 1130.0 145.0Q1143 170 1155.0 193.0Q1167 216 1176.5 234.0Q1186 252 1190 260V683Q1190 698 1200.5 708.5Q1211 719 1226 719Q1241 719 1251.5 708.5Q1262 698 1262 683V252Q1262 246 1255.0 229.0Q1248 212 1237.0 189.0Q1226 166 1212.5 139.5Q1199 113 1187.0 89.0Q1175 65 1165.0 46.5Q1155 28 1151 20Q1141 0 1118 0ZM2017 0Q2002 0 1991 11L1776 226Q1765 237 1765 252V524L1704 586Q1693 597 1693 611Q1693 626 1704.0 636.5Q1715 647 1729 647Q1745 647 1755 637L1827 565Q1837 555 1837 539V267L2042 62Q2052 52 2052 36Q2052 22 2041.5 11.0Q2031 0 2017 0Z" style="fill:#757575;stroke:none" transform="scale(1,-1) translate(0,-256)" /></svg>