<?xml version="1.0" encoding="utf-8" ?>
<svg baseProfile="full" height="256" version="1.1" width="256" xmlns="http://www.w3.org/2000/svg" xmlns:ev="http://www.w3.org/2001/xml-events" xmlns:xlink="http://www.w3.org/1999/xlink"><defs /><path d="M2412 431Q2412 374 2384.5 325.5Q2357 277 2309 247L1592 728Q1569 681 1533.5 648.0Q1498 615 1454.0 594.0Q1410 573 1360.5 563.5Q1311 554 1262 554Q1200 554 1153.0 573.0Q1106 592 1066.5 623.0Q1027 654 991.0 692.0Q955 730 915 769Q903 815 903 863Q903 937 931.0 1002.5Q959 1068 1008.0 1116.5Q1057 1165 1122.5 1193.5Q1188 1222 1262 1222Q1353 1222 1432.5 1179.0Q1512 1136 1563 1060Q1579 1071 1602.5 1086.5Q1626 1102 1651.5 1116.0Q1677 1130 1702.0 1140.0Q1727 1150 1747 1150Q1825 1150 1897 1115Q1928 1101 1957.0 1084.0Q1986 1067 2015 1049Q2015 1029 2018.0 1015.0Q2021 1001 2028.0 990.0Q2035 979 2045.0 969.0Q2055 959 2069 947Q2092 928 2113.0 917.0Q2134 906 2162 906Q2166 906 2169.5 906.0Q2173 906 2178 907Q2210 872 2239.5 833.0Q2269 794 2293 752Q2284 728 2284 703Q2284 680 2290.5 662.5Q2297 645 2306 626L2309 620Q2316 605 2322.5 592.0Q2329 579 2337.5 569.5Q2346 560 2358.0 553.0Q2370 546 2388 542Q2396 514 2404.0 487.0Q2412 460 2412 431Z" style="fill:#ffc83d;stroke:none" transform="scale(1,-1) translate(0,-256)" /></svg>