<?xml version="1.0" encoding="utf-8" ?>
<svg baseProfile="full" height="256" version="1.1" width="256" xmlns="http://www.w3.org/2000/svg" xmlns:ev="http://www.w3.org/2001/xml-events" xmlns:xlink="http://www.w3.org/1999/xlink"><defs /><path d="M1331 1328 1311 710Q1310 697 1310.0 684.0Q1310 671 1310 658Q1310 633 1310.5 609.0Q1311 585 1311 560Q1311 520 1309.0 480.0Q1307 440 1301 401Q1296 371 1286.0 343.5Q1276 316 1268 287L1203 59L1118 -24Q986 99 880.0 240.5Q774 382 699.0 539.5Q624 697 583.5 868.5Q543 1040 543 1222V1374Q664 1477 812.0 1529.0Q960 1581 1118 1581L1247 1532Z" style="fill:#e81224;stroke:none" transform="scale(1,-1) translate(0,-256)" /></svg>