<?xml version="1.0" encoding="utf-8" ?>
<svg baseProfile="full" height="256" version="1.1" width="256" xmlns="http://www.w3.org/2000/svg" xmlns:ev="http://www.w3.org/2001/xml-events" xmlns:xlink="http://www.w3.org/1999/xlink"><defs /><path d="M1118 1725Q1218 1725 1316.0 1706.5Q1414 1688 1505.5 1651.5Q1597 1615 1681.0 1561.5Q1765 1508 1837 1438V1222Q1837 1007 1786.0 806.5Q1735 606 1641.0 424.0Q1547 242 1414.0 81.0Q1281 -80 1118 -215Q955 -80 822.5 81.0Q690 242 596.0 424.0Q502 606 451.0 806.5Q400 1007 400 1222V1438Q472 1507 556.0 1560.5Q640 1614 731.5 1650.5Q823 1687 920.5 1706.0Q1018 1725 1118 1725Z" style="fill:#cccccc;stroke:none" transform="scale(1,-1) translate(0,-256)" /></svg>