<?xml version="1.0" encoding="utf-8" ?>
<svg baseProfile="full" height="256" version="1.1" width="256" xmlns="http://www.w3.org/2000/svg" xmlns:ev="http://www.w3.org/2001/xml-events" xmlns:xlink="http://www.w3.org/1999/xlink"><defs /><path d="M831 719Q861 719 882.0 698.0Q903 677 903 647Q903 617 882.0 596.0Q861 575 831 575Q801 575 780.0 596.0Q759 617 759 647Q759 677 780.0 698.0Q801 719 831 719ZM939 791Q924 791 913.5 801.5Q903 812 903 827Q903 842 913.5 852.5Q924 863 939 863Q954 863 964.5 852.5Q975 842 975 827Q975 812 964.5 801.5Q954 791 939 791ZM939 575Q954 575 964.5 564.5Q975 554 975 539Q975 524 964.5 513.5Q954 503 939 503Q924 503 913.5 513.5Q903 524 903 539Q903 554 913.5 564.5Q924 575 939 575Z" style="fill:#41dabc;stroke:none" transform="scale(1,-1) translate(0,-256)" /></svg>