<?xml version="1.0" encoding="utf-8" ?>
<svg baseProfile="full" height="256" version="1.1" width="256" xmlns="http://www.w3.org/2000/svg" xmlns:ev="http://www.w3.org/2001/xml-events" xmlns:xlink="http://www.w3.org/1999/xlink"><defs /><path d="M1118 1653Q1164 1653 1209.5 1646.0Q1255 1639 1300.0 1628.0Q1345 1617 1389.0 1604.5Q1433 1592 1478 1581L2326 1373Q2364 1364 2388.0 1334.0Q2412 1304 2412 1264Q2412 1241 2403.0 1220.5Q2394 1200 2378.5 1184.0Q2363 1168 2342.5 1159.0Q2322 1150 2299 1150Q2291 1150 2285.0 1151.0Q2279 1152 2271 1154L1749 1280Q1794 1201 1815.5 1113.5Q1837 1026 1837 935Q1837 836 1811.5 744.0Q1786 652 1739.0 572.0Q1692 492 1626.5 426.5Q1561 361 1481.5 314.0Q1402 267 1310.0 241.5Q1218 216 1119 216Q1020 216 928.0 241.5Q836 267 756.0 314.0Q676 361 610.5 426.5Q545 492 498.0 571.5Q451 651 425.5 743.0Q400 835 400 934Q400 1033 425.5 1125.0Q451 1217 498.0 1296.5Q545 1376 610.5 1442.0Q676 1508 756.0 1554.5Q836 1601 927.5 1627.0Q1019 1653 1118 1653Z" style="fill:#f2f2f2;stroke:none" transform="scale(1,-1) translate(0,-256)" /></svg>