<?xml version="1.0" encoding="utf-8" ?>
<svg baseProfile="full" height="256" version="1.1" width="256" xmlns="http://www.w3.org/2000/svg" xmlns:ev="http://www.w3.org/2001/xml-events" xmlns:xlink="http://www.w3.org/1999/xlink"><defs /><path d="M1560 360Q1585 257 1612.0 155.5Q1639 54 1664 -49Q1666 -59 1671.0 -77.5Q1676 -96 1681.0 -116.5Q1686 -137 1690.0 -154.5Q1694 -172 1694 -179Q1694 -194 1683.5 -204.5Q1673 -215 1658 -215Q1645 -215 1635.5 -208.0Q1626 -201 1623 -188L1486 360H751L614 -188Q611 -201 601.5 -208.0Q592 -215 579 -215Q564 -215 554.0 -205.0Q544 -195 544 -180Q544 -172 547.5 -153.5Q551 -135 556.5 -113.0Q562 -91 567.5 -70.0Q573 -49 576 -35Q602 68 628.0 165.0Q654 262 677 360H579Q565 360 554.5 371.0Q544 382 544 396Q544 410 554.5 420.5Q565 431 579 431H1658Q1672 431 1683.0 420.5Q1694 410 1694 396Q1694 382 1683.0 371.0Q1672 360 1658 360Z" style="fill:#bb9167;stroke:none" transform="scale(1,-1) translate(0,-256)" /></svg>