<?xml version="1.0" encoding="utf-8" ?>
<svg baseProfile="full" height="256" version="1.1" width="256" xmlns="http://www.w3.org/2000/svg" xmlns:ev="http://www.w3.org/2001/xml-events" xmlns:xlink="http://www.w3.org/1999/xlink"><defs /><path d="M1658 -359Q1627 -359 1598.5 -349.0Q1570 -339 1547.0 -321.0Q1524 -303 1507.0 -278.0Q1490 -253 1483 -223L1458 -121Q1417 -144 1370 -144Q1338 -144 1310.0 -134.0Q1282 -124 1259.5 -105.5Q1237 -87 1220.5 -62.0Q1204 -37 1196 -7L1175 74Q1161 73 1146.0 72.5Q1131 72 1117 72Q1103 72 1089.5 72.5Q1076 73 1062 74L1041 -7Q1033 -37 1016.5 -62.0Q1000 -87 977.5 -105.5Q955 -124 926.5 -134.0Q898 -144 867 -144Q820 -144 779 -121Q773 -147 767.0 -172.0Q761 -197 754 -223Q745 -253 729.0 -278.0Q713 -303 690.5 -321.0Q668 -339 640.0 -349.0Q612 -359 580 -359Q542 -359 509.5 -345.0Q477 -331 452.5 -306.5Q428 -282 414.0 -249.5Q400 -217 400 -179Q400 -168 401.0 -157.5Q402 -147 405 -136L498 235Q453 258 426.5 301.5Q400 345 400 396Q400 423 407 447Q332 556 294.0 679.0Q256 802 256 934Q256 1053 286.5 1163.5Q317 1274 373.5 1370.0Q430 1466 508.5 1544.5Q587 1623 682.5 1679.0Q778 1735 888.5 1766.0Q999 1797 1118 1797Q1169 1797 1219.5 1789.5Q1270 1782 1319.5 1770.5Q1369 1759 1418.0 1745.5Q1467 1732 1516 1720L2361 1513Q2404 1502 2439.5 1478.5Q2475 1455 2501.0 1422.0Q2527 1389 2541.5 1348.5Q2556 1308 2556 1264Q2556 1210 2536.0 1163.0Q2516 1116 2481.0 1081.0Q2446 1046 2399.5 1026.0Q2353 1006 2299 1006Q2269 1006 2237 1014L1969 1079Q1981 1007 1981 934Q1981 802 1943.0 679.0Q1905 556 1830 447Q1837 423 1837 396Q1837 345 1810.5 301.5Q1784 258 1739 235L1832 -136Q1835 -147 1836.0 -157.5Q1837 -168 1837 -179Q1837 -216 1823.0 -249.0Q1809 -282 1784.5 -306.5Q1760 -331 1727.5 -345.0Q1695 -359 1658 -359Z" style="fill:#000000;stroke:none" transform="scale(1,-1) translate(0,-256)" /></svg>