<?xml version="1.0" encoding="utf-8" ?>
<svg baseProfile="full" height="256" version="1.1" width="256" xmlns="http://www.w3.org/2000/svg" xmlns:ev="http://www.w3.org/2001/xml-events" xmlns:xlink="http://www.w3.org/1999/xlink"><defs /><path d="M1226 647Q1241 647 1248.0 639.0Q1255 631 1261 620Q1262 617 1269.5 591.0Q1277 565 1287.5 524.5Q1298 484 1310.5 433.0Q1323 382 1336.5 329.0Q1350 276 1362.5 225.0Q1375 174 1384.5 133.0Q1394 92 1400.0 65.5Q1406 39 1406 36Q1406 21 1395.5 10.5Q1385 0 1370 0Q1355 0 1348.0 7.5Q1341 15 1335 27Q1333 30 1326.0 56.5Q1319 83 1308.5 123.5Q1298 164 1285.0 214.5Q1272 265 1259.0 318.0Q1246 371 1233.5 422.0Q1221 473 1211.5 513.5Q1202 554 1196.0 580.0Q1190 606 1190 610Q1190 625 1200.5 636.0Q1211 647 1226 647ZM1011 647Q1026 647 1036.5 636.0Q1047 625 1047 610Q1047 607 1041.0 581.0Q1035 555 1025.5 514.5Q1016 474 1003.5 422.5Q991 371 977.5 318.0Q964 265 951.5 213.5Q939 162 928.5 121.5Q918 81 910.5 55.5Q903 30 902 27Q896 15 889.5 7.5Q883 0 867 0Q852 0 841.5 10.5Q831 21 831 36Q831 39 837.0 65.5Q843 92 852.5 133.0Q862 174 874.5 225.0Q887 276 900.5 329.0Q914 382 926.5 433.0Q939 484 949.5 524.5Q960 565 967.0 591.0Q974 617 976 620Q982 631 989.0 639.0Q996 647 1011 647Z" style="fill:#bb9167;stroke:none" transform="scale(1,-1) translate(0,-256)" /></svg>