<?xml version="1.0" encoding="utf-8" ?>
<svg baseProfile="full" height="256" version="1.1" width="256" xmlns="http://www.w3.org/2000/svg" xmlns:ev="http://www.w3.org/2001/xml-events" xmlns:xlink="http://www.w3.org/1999/xlink"><defs /><path d="M2053 360V-215H1909Q1831 -215 1765.0 -177.0Q1699 -139 1660 -72H1370Q1318 -72 1272.5 -52.0Q1227 -32 1192.5 2.0Q1158 36 1138.0 81.5Q1118 127 1118 179L1051 164L814 -403L284 -182L301 -141Q321 -92 341.5 -47.5Q362 -3 391.0 32.5Q420 68 462.0 92.5Q504 117 567 125Q605 217 642.5 309.0Q680 401 721 492Q738 531 761.5 554.5Q785 578 812.5 594.5Q840 611 872.0 624.0Q904 637 939 653L932 672Q886 647 831 647Q800 647 768.5 656.5Q737 666 711 683L496 827Q451 857 425.5 905.0Q400 953 400 1007Q400 1053 417.5 1092.5Q435 1132 465.0 1160.5Q495 1189 534.5 1205.5Q574 1222 618 1222Q625 1222 631.5 1221.5Q638 1221 645 1220Q622 1273 618.5 1321.5Q615 1370 615 1425V1444Q615 1517 644.0 1581.5Q673 1646 722.5 1694.0Q772 1742 837.0 1769.5Q902 1797 975 1797Q1048 1797 1113.5 1769.5Q1179 1742 1228.0 1694.5Q1277 1647 1305.5 1582.5Q1334 1518 1334 1444V1388Q1334 1362 1332.5 1337.0Q1331 1312 1326 1286Q1360 1275 1391.0 1260.0Q1422 1245 1450 1222Q1467 1222 1485.0 1222.5Q1503 1223 1520 1223Q1561 1223 1597.5 1216.0Q1634 1209 1669 1186L1885 1042Q1930 1012 1955.5 964.5Q1981 917 1981 863Q1981 818 1964.0 778.5Q1947 739 1918.0 710.0Q1889 681 1849.5 664.0Q1810 647 1765 647Q1717 647 1671 669L1746 431H1622V360Z" style="fill:#000000;stroke:none" transform="scale(1,-1) translate(0,-256)" /></svg>