<?xml version="1.0" encoding="utf-8" ?>
<svg baseProfile="full" height="256" version="1.1" width="256" xmlns="http://www.w3.org/2000/svg" xmlns:ev="http://www.w3.org/2001/xml-events" xmlns:xlink="http://www.w3.org/1999/xlink"><defs /><path d="M975 1653Q1020 1653 1059.0 1636.0Q1098 1619 1127.0 1590.0Q1156 1561 1173.0 1522.0Q1190 1483 1190 1438V1365Q1190 1336 1181.5 1307.5Q1173 1279 1158 1254L1108 1304Q1114 1312 1116.0 1320.5Q1118 1329 1118 1338V1342Q1118 1352 1117.5 1362.5Q1117 1373 1113.5 1382.0Q1110 1391 1103.0 1396.5Q1096 1402 1083 1402Q1068 1402 1057.5 1391.5Q1047 1381 1047 1366L975 1438H759Q759 1482 776.5 1521.0Q794 1560 823.5 1589.5Q853 1619 892.0 1636.0Q931 1653 975 1653Z" style="fill:#8e562e;stroke:none" transform="scale(1,-1) translate(0,-256)" /></svg>