<?xml version="1.0" encoding="utf-8" ?>
<svg baseProfile="full" height="256" version="1.1" width="256" xmlns="http://www.w3.org/2000/svg" xmlns:ev="http://www.w3.org/2001/xml-events" xmlns:xlink="http://www.w3.org/1999/xlink"><defs /><path d="M1262 1150Q1306 1150 1344.5 1124.0Q1383 1098 1397 1055L1550 575H1118L1006 893H976Q974 902 968.5 915.0Q963 928 957.5 941.5Q952 955 948.0 967.0Q944 979 944 986Q944 999 948.0 1006.5Q952 1014 957.5 1020.0Q963 1026 969.5 1032.5Q976 1039 981 1049Q992 1072 1004.5 1091.0Q1017 1110 1033.0 1123.0Q1049 1136 1069.5 1143.0Q1090 1150 1118 1150Z" style="fill:#f03a17;stroke:none" transform="scale(1,-1) translate(0,-256)" /></svg>