<?xml version="1.0" encoding="utf-8" ?>
<svg baseProfile="full" height="256" version="1.1" width="256" xmlns="http://www.w3.org/2000/svg" xmlns:ev="http://www.w3.org/2001/xml-events" xmlns:xlink="http://www.w3.org/1999/xlink"><defs /><path d="M1168 1427 1159 1254Q1130 1206 1081.0 1178.0Q1032 1150 975 1150Q930 1150 891.0 1167.0Q852 1184 822.5 1213.5Q793 1243 776.0 1282.0Q759 1321 759 1366V1438L975 1527ZM1550 1078Q1572 1078 1590 1066L1805 922Q1837 900 1837 863Q1837 833 1816.0 812.0Q1795 791 1765 791Q1743 791 1725 803L1528 935H1259V1078ZM975 1006Q975 976 985.5 948.5Q996 921 1006 893L871 803Q853 791 831 791Q809 791 791 803L575 947Q543 968 543 1006Q543 1035 564.5 1056.5Q586 1078 615 1078Q637 1078 655 1066L831 949L981 1049Q975 1028 975 1006Z" style="fill:#ffc83d;stroke:none" transform="scale(1,-1) translate(0,-256)" /></svg>