<?xml version="1.0" encoding="utf-8" ?>
<svg baseProfile="full" height="256" version="1.1" width="256" xmlns="http://www.w3.org/2000/svg" xmlns:ev="http://www.w3.org/2001/xml-events" xmlns:xlink="http://www.w3.org/1999/xlink"><defs /><path d="M1693 216Q1713 205 1724.5 185.5Q1736 166 1736 143Q1736 121 1724.5 101.5Q1713 82 1693 72H1370Q1347 72 1327.5 80.5Q1308 89 1293.5 103.5Q1279 118 1270.5 137.5Q1262 157 1262 180V360L947 288L820 -16Q807 -27 791.0 -34.0Q775 -41 758 -41Q727 -41 707.0 -20.5Q687 0 687 31Q687 34 698.0 63.0Q709 92 726.0 134.0Q743 176 763.0 225.0Q783 274 801.5 318.0Q820 362 834.0 395.0Q848 428 853 437Q860 451 869.0 460.5Q878 470 892 476L1118 575Q1128 594 1150.0 606.0Q1172 618 1198.0 625.5Q1224 633 1250.5 636.0Q1277 639 1296 639Q1316 639 1343.0 636.5Q1370 634 1396.0 626.5Q1422 619 1444.5 606.5Q1467 594 1478 575V216Z" style="fill:#0078d7;stroke:none" transform="scale(1,-1) translate(0,-256)" /></svg>