<?xml version="1.0" encoding="utf-8" ?>
<svg baseProfile="full" height="256" version="1.1" width="256" xmlns="http://www.w3.org/2000/svg" xmlns:ev="http://www.w3.org/2001/xml-events" xmlns:xlink="http://www.w3.org/1999/xlink"><defs /><path d="M1406 1438Q1505 1438 1597.0 1412.0Q1689 1386 1768.5 1339.5Q1848 1293 1914.0 1227.0Q1980 1161 2026.5 1081.5Q2073 1002 2099.0 910.0Q2125 818 2125 719Q2125 620 2099.0 528.0Q2073 436 2026.5 356.5Q1980 277 1914.0 211.0Q1848 145 1768.5 98.5Q1689 52 1597.0 26.0Q1505 0 1406 0Q1257 0 1126.5 56.5Q996 113 898.0 211.0Q800 309 743.5 439.5Q687 570 687 719Q687 818 713.0 910.0Q739 1002 785.5 1081.5Q832 1161 898.0 1227.0Q964 1293 1043.5 1339.5Q1123 1386 1215.0 1412.0Q1307 1438 1406 1438ZM1406 144Q1525 144 1629.5 189.5Q1734 235 1812.0 313.0Q1890 391 1935.5 495.5Q1981 600 1981 719Q1981 835 1937.5 938.0Q1894 1041 1818.5 1118.5Q1743 1196 1641.5 1242.5Q1540 1289 1424 1293Q1481 1289 1530.0 1265.0Q1579 1241 1615.5 1202.5Q1652 1164 1672.5 1113.5Q1693 1063 1693 1006Q1693 947 1670.5 894.5Q1648 842 1609.0 803.0Q1570 764 1517.5 741.5Q1465 719 1406 719Q1346 719 1293.5 696.5Q1241 674 1202.0 635.0Q1163 596 1140.5 543.5Q1118 491 1118 431Q1118 371 1140.5 319.0Q1163 267 1202.0 228.0Q1241 189 1293.5 166.5Q1346 144 1406 144ZM1532 431Q1532 405 1522.0 382.5Q1512 360 1495.0 343.0Q1478 326 1455.0 316.0Q1432 306 1406 306Q1380 306 1357.0 315.5Q1334 325 1317.0 342.0Q1300 359 1290.0 382.0Q1280 405 1280 431Q1280 457 1290.0 480.0Q1300 503 1317.0 520.0Q1334 537 1357.0 547.0Q1380 557 1406 557Q1432 557 1455.0 547.0Q1478 537 1495.0 520.0Q1512 503 1522.0 480.0Q1532 457 1532 431ZM1406 1132Q1380 1132 1357.0 1122.0Q1334 1112 1317.0 1095.0Q1300 1078 1290.0 1055.0Q1280 1032 1280 1006Q1280 980 1290.0 957.0Q1300 934 1317.0 917.0Q1334 900 1357.0 890.5Q1380 881 1406 881Q1432 881 1455.0 891.0Q1478 901 1495.0 918.0Q1512 935 1522.0 957.5Q1532 980 1532 1006Q1532 1032 1522.0 1055.0Q1512 1078 1495.0 1095.0Q1478 1112 1455.0 1122.0Q1432 1132 1406 1132Z" style="fill:#ffffff;stroke:none" transform="scale(1,-1) translate(0,-256)" /></svg>