<?xml version="1.0" encoding="utf-8" ?>
<svg baseProfile="full" height="256" version="1.1" width="256" xmlns="http://www.w3.org/2000/svg" xmlns:ev="http://www.w3.org/2001/xml-events" xmlns:xlink="http://www.w3.org/1999/xlink"><defs /><path d="M2053 1078Q2082 1078 2103.5 1056.5Q2125 1035 2125 1006Q2125 970 2096 949L1909 809V611Q1909 589 1900.5 569.5Q1892 550 1877.0 535.0Q1862 520 1842.5 511.5Q1823 503 1801 503Q1779 503 1759.5 511.5Q1740 520 1725.0 535.0Q1710 550 1701.5 569.5Q1693 589 1693 611V791Q1695 808 1701.5 823.0Q1708 838 1722 848L2010 1064Q2029 1078 2053 1078ZM1118 791V611Q1118 589 1109.5 569.5Q1101 550 1086.5 535.0Q1072 520 1052.5 511.5Q1033 503 1011 503Q989 503 969.5 511.5Q950 520 935.0 535.0Q920 550 911.5 569.5Q903 589 903 611V809L716 949Q687 970 687 1006Q687 1036 708.0 1057.0Q729 1078 759 1078Q783 1078 802 1064L1090 848Q1104 838 1111.0 823.0Q1118 808 1118 791ZM1406 360Q1466 360 1518.5 337.5Q1571 315 1609.5 276.0Q1648 237 1670.5 184.5Q1693 132 1693 72H1118Q1118 132 1140.5 184.5Q1163 237 1202.0 276.0Q1241 315 1293.5 337.5Q1346 360 1406 360Z" style="fill:#000000;stroke:none" transform="scale(1,-1) translate(0,-256)" /></svg>