<?xml version="1.0" encoding="utf-8" ?>
<svg baseProfile="full" height="256" version="1.1" width="256" xmlns="http://www.w3.org/2000/svg" xmlns:ev="http://www.w3.org/2001/xml-events" xmlns:xlink="http://www.w3.org/1999/xlink"><defs /><path d="M2556 1866V1804Q2556 1717 2553.5 1636.5Q2551 1556 2541.5 1478.0Q2532 1400 2514.5 1322.0Q2497 1244 2467 1161Q2512 1056 2534.0 944.5Q2556 833 2556 719Q2556 560 2515.0 413.0Q2474 266 2399.0 138.5Q2324 11 2219.0 -94.0Q2114 -199 1986.5 -274.0Q1859 -349 1712.0 -390.0Q1565 -431 1406 -431Q1247 -431 1100.0 -390.0Q953 -349 825.5 -274.0Q698 -199 593.0 -94.0Q488 11 413.0 138.5Q338 266 297.0 413.0Q256 560 256 719Q256 833 278.0 944.0Q300 1055 344 1161Q312 1249 294.5 1330.5Q277 1412 268.5 1493.0Q260 1574 258.0 1657.5Q256 1741 256 1833V1866L755 1666Q900 1766 1065.0 1817.5Q1230 1869 1406 1869Q1582 1869 1747.0 1817.5Q1912 1766 2057 1666Z" style="fill:#000000;stroke:none" transform="scale(1,-1) translate(0,-256)" /></svg>