<?xml version="1.0" encoding="utf-8" ?>
<svg baseProfile="full" height="256" version="1.1" width="256" xmlns="http://www.w3.org/2000/svg" xmlns:ev="http://www.w3.org/2001/xml-events" xmlns:xlink="http://www.w3.org/1999/xlink"><defs /><path d="M400 719Q400 749 411.0 775.0Q422 801 441.5 820.5Q461 840 487.0 851.5Q513 863 543 863Q568 863 587.5 856.0Q607 849 623.5 837.0Q640 825 655.0 810.0Q670 795 687 779V372L442 617Q422 637 411.0 663.5Q400 690 400 719ZM903 827V1078H975V827Q975 812 964.5 801.5Q954 791 939 791Q924 791 913.5 801.5Q903 812 903 827ZM1190 827V1078H1262V827Q1262 812 1251.5 801.5Q1241 791 1226 791Q1211 791 1200.5 801.5Q1190 812 1190 827ZM1478 935H1550V755Q1550 740 1539.5 729.5Q1529 719 1514 719Q1499 719 1488.5 729.5Q1478 740 1478 755Z" style="fill:#d48c00;stroke:none" transform="scale(1,-1) translate(0,-256)" /></svg>