<?xml version="1.0" encoding="utf-8" ?>
<svg baseProfile="full" height="256" version="1.1" width="256" xmlns="http://www.w3.org/2000/svg" xmlns:ev="http://www.w3.org/2001/xml-events" xmlns:xlink="http://www.w3.org/1999/xlink"><defs /><path d="M1909 791V-431H903V-144Q903 -130 901.5 -112.0Q900 -94 896.5 -75.5Q893 -57 886.5 -40.5Q880 -24 870 -14L340 516Q299 557 277.5 609.5Q256 662 256 719Q256 779 278.5 831.0Q301 883 340.0 922.0Q379 961 431.0 983.5Q483 1006 543 1006V1617Q543 1669 563.0 1715.0Q583 1761 617.0 1795.0Q651 1829 697.0 1849.0Q743 1869 795 1869Q847 1869 893.0 1849.0Q939 1829 973.0 1795.0Q1007 1761 1027.0 1715.0Q1047 1669 1047 1617V1222H1334Q1412 1222 1478.0 1183.5Q1544 1145 1583 1078H1622Q1681 1078 1733.5 1055.5Q1786 1033 1825.0 994.0Q1864 955 1886.5 902.5Q1909 850 1909 791Z" style="fill:#000000;stroke:none" transform="scale(1,-1) translate(0,-256)" /></svg>