<?xml version="1.0" encoding="utf-8" ?>
<svg baseProfile="full" height="256" version="1.1" width="256" xmlns="http://www.w3.org/2000/svg" xmlns:ev="http://www.w3.org/2001/xml-events" xmlns:xlink="http://www.w3.org/1999/xlink"><defs /><path d="M687 372 672 551Q670 574 667.0 596.0Q664 618 664 641Q664 659 667.5 676.0Q671 693 675.5 710.0Q680 727 683.5 744.0Q687 761 687 779V1617Q687 1639 695.5 1659.0Q704 1679 718.5 1693.5Q733 1708 752.5 1716.5Q772 1725 795 1725Q817 1725 837.0 1716.5Q857 1708 871.5 1693.5Q886 1679 894.5 1659.0Q903 1639 903 1617V1078Q911 1076 919.5 1074.0Q928 1072 937 1072Q947 1072 955.5 1075.0Q964 1078 974 1078H1191Q1200 1078 1209.5 1074.5Q1219 1071 1228 1070Q1242 1076 1257.5 1077.5Q1273 1079 1288 1079Q1299 1079 1311.0 1078.5Q1323 1078 1334 1078Q1364 1078 1390.0 1067.0Q1416 1056 1435.5 1036.5Q1455 1017 1466.5 991.0Q1478 965 1478 935L1513 921L1549 935H1621Q1651 935 1677.0 923.5Q1703 912 1722.5 892.5Q1742 873 1753.5 847.0Q1765 821 1765 791V-287H1047Q1047 -258 1048.0 -227.5Q1049 -197 1049 -166Q1049 -132 1046.5 -97.5Q1044 -63 1035.5 -30.0Q1027 3 1011.5 32.5Q996 62 971 88Z" style="fill:#ffc83d;stroke:none" transform="scale(1,-1) translate(0,-256)" /></svg>