<?xml version="1.0" encoding="utf-8" ?>
<svg baseProfile="full" height="256" version="1.1" width="256" xmlns="http://www.w3.org/2000/svg" xmlns:ev="http://www.w3.org/2001/xml-events" xmlns:xlink="http://www.w3.org/1999/xlink"><defs /><path d="M2340 -214Q2297 -214 2260.0 -194.0Q2223 -174 2196 -142Q2170 -174 2132.0 -194.0Q2094 -214 2052 -214Q2010 -214 1972.5 -194.0Q1935 -174 1909 -142Q1883 -174 1845.0 -194.0Q1807 -214 1765 -214Q1723 -214 1685.0 -194.0Q1647 -174 1621 -142Q1595 -174 1557.0 -194.0Q1519 -214 1477 -214Q1435 -214 1397.5 -194.0Q1360 -174 1334 -142Q1307 -174 1269.5 -194.0Q1232 -214 1190 -214Q1102 -214 1017.5 -191.0Q933 -168 857.0 -126.0Q781 -84 717.0 -25.0Q653 34 606.0 106.0Q559 178 533.0 261.5Q507 345 507 435Q507 495 521.0 559.0Q535 623 561.0 684.0Q587 745 625.5 799.0Q664 853 713.0 893.5Q762 934 820.5 957.5Q879 981 947 981Q1010 981 1070.0 965.0Q1130 949 1190 935Q1086 935 994.5 895.5Q903 856 834.5 787.5Q766 719 726.5 627.5Q687 536 687 432Q687 328 726.5 236.0Q766 144 834.0 76.0Q902 8 994.0 -31.5Q1086 -71 1190 -71Q1254 -71 1314.5 -55.5Q1375 -40 1429.5 -11.5Q1484 17 1532.5 56.5Q1581 96 1621 145Q1660 97 1709.0 57.0Q1758 17 1813.0 -11.0Q1868 -39 1928.5 -54.5Q1989 -70 2052 -70Q2138 -70 2212.0 -31.5Q2286 7 2340 73Z" style="fill:#31d2f7;stroke:none" transform="scale(1,-1) translate(0,-256)" /></svg>