<?xml version="1.0" encoding="utf-8" ?>
<svg baseProfile="full" height="256" version="1.1" width="256" xmlns="http://www.w3.org/2000/svg" xmlns:ev="http://www.w3.org/2001/xml-events" xmlns:xlink="http://www.w3.org/1999/xlink"><defs /><path d="M2484 576V-359H1190Q1061 -359 942.0 -325.5Q823 -292 719.0 -231.0Q615 -170 530.0 -85.0Q445 0 384.0 104.0Q323 208 289.5 327.0Q256 446 256 575Q256 753 302.5 918.5Q349 1084 433.0 1227.5Q517 1371 635.5 1489.5Q754 1608 897.5 1692.0Q1041 1776 1206.5 1822.5Q1372 1869 1550 1869Q1709 1869 1850.5 1813.0Q1992 1757 2112 1654Q2132 1654 2150.5 1654.5Q2169 1655 2189 1655Q2224 1655 2253.5 1651.5Q2283 1648 2308.0 1637.5Q2333 1627 2354.0 1607.5Q2375 1588 2395 1556Q2400 1548 2406.0 1534.0Q2412 1520 2412 1510V1431Q2412 1406 2411.5 1381.5Q2411 1357 2409 1332Q2444 1307 2464.0 1268.5Q2484 1230 2484 1187Q2484 1149 2470.0 1116.5Q2456 1084 2431.5 1059.5Q2407 1035 2374.0 1021.0Q2341 1007 2304 1007Q2292 1007 2280.0 1009.0Q2268 1011 2257 1014Q2234 947 2179.5 905.0Q2125 863 2053 863Q2034 863 2019 867Q1993 832 1955.5 811.5Q1918 791 1873 791Q1846 759 1809.0 739.5Q1772 720 1729 720Q1683 720 1642.5 742.0Q1602 764 1578 804Q1564 786 1557.0 764.5Q1550 743 1550 720Q1550 690 1561.0 664.0Q1572 638 1591.5 618.5Q1611 599 1637.0 587.5Q1663 576 1693 576Z" style="fill:#000000;stroke:none" transform="scale(1,-1) translate(0,-256)" /></svg>