<?xml version="1.0" encoding="utf-8" ?>
<svg baseProfile="full" height="256" version="1.1" width="256" xmlns="http://www.w3.org/2000/svg" xmlns:ev="http://www.w3.org/2001/xml-events" xmlns:xlink="http://www.w3.org/1999/xlink"><defs /><path d="M1693 1007Q1633 1007 1581.0 984.5Q1529 962 1490.0 923.0Q1451 884 1428.5 831.5Q1406 779 1406 719Q1406 660 1428.5 607.5Q1451 555 1490.0 516.0Q1529 477 1581.5 454.5Q1634 432 1693 432Q1735 432 1773.0 452.0Q1811 472 1837 504Q1863 471 1900.0 451.5Q1937 432 1980 432Q2022 432 2059.5 452.0Q2097 472 2124 504Q2146 477 2169.0 462.5Q2192 448 2217.0 441.0Q2242 434 2269.0 433.0Q2296 432 2327 432H2340V73L2280 -71H903Q898 -56 886.5 -20.5Q875 15 859.0 62.0Q843 109 824.0 164.5Q805 220 786.0 275.5Q767 331 749.0 383.5Q731 436 717.5 477.5Q704 519 695.5 545.5Q687 572 687 576V1222H1693Z" style="fill:#0099bc;stroke:none" transform="scale(1,-1) translate(0,-256)" /></svg>