<?xml version="1.0" encoding="utf-8" ?>
<svg baseProfile="full" height="256" version="1.1" width="256" xmlns="http://www.w3.org/2000/svg" xmlns:ev="http://www.w3.org/2001/xml-events" xmlns:xlink="http://www.w3.org/1999/xlink"><defs /><path d="M1046 935Q942 935 850.5 895.5Q759 856 690.5 787.5Q622 719 582.5 627.5Q543 536 543 432Q543 298 594.0 180.5Q645 63 732.5 -25.0Q820 -113 938.0 -163.5Q1056 -214 1190 -214H1186Q1077 -214 976.5 -186.0Q876 -158 789.0 -106.5Q702 -55 630.0 17.0Q558 89 507.0 176.5Q456 264 428.0 365.0Q400 466 400 575Q400 734 441.0 881.0Q482 1028 557.0 1155.5Q632 1283 736.5 1388.0Q841 1493 969.0 1568.0Q1097 1643 1243.5 1684.0Q1390 1725 1549 1725Q1645 1725 1722.5 1704.0Q1800 1683 1867.5 1645.5Q1935 1608 1997.0 1555.0Q2059 1502 2124 1438Q2140 1422 2155.5 1408.5Q2171 1395 2188.0 1385.5Q2205 1376 2224.5 1371.0Q2244 1366 2268 1366Q2268 1336 2256.5 1310.0Q2245 1284 2225.5 1264.5Q2206 1245 2180.0 1233.5Q2154 1222 2124 1222Q2089 1222 2064.0 1232.5Q2039 1243 2018.5 1259.0Q1998 1275 1980.5 1294.0Q1963 1313 1942.5 1329.0Q1922 1345 1897.0 1355.5Q1872 1366 1837 1366Q1807 1366 1786.0 1345.0Q1765 1324 1765 1294Q1765 1268 1776.0 1252.5Q1787 1237 1800.5 1223.0Q1814 1209 1825.5 1193.0Q1837 1177 1837 1150Q1837 1120 1825.5 1094.0Q1814 1068 1794.5 1048.5Q1775 1029 1749.0 1018.0Q1723 1007 1693 1007Q1658 1007 1632.5 1017.5Q1607 1028 1587.0 1044.0Q1567 1060 1549.5 1078.5Q1532 1097 1512.0 1113.0Q1492 1129 1466.5 1139.5Q1441 1150 1406 1150Q1377 1150 1355.5 1129.5Q1334 1109 1334 1079Q1334 1052 1345.0 1036.0Q1356 1020 1369.5 1006.0Q1383 992 1394.5 976.5Q1406 961 1406 935Q1406 906 1384.5 884.5Q1363 863 1334 863Q1307 863 1291.0 874.0Q1275 885 1261.0 898.5Q1247 912 1231.0 923.5Q1215 935 1190 935ZM2052 1150Q2081 1150 2102.5 1129.0Q2124 1108 2124 1079Q2124 1049 2103.0 1028.0Q2082 1007 2052 1007Q2023 1007 2001.5 1028.5Q1980 1050 1980 1079V1150ZM2232 1510Q2247 1510 2257.5 1499.5Q2268 1489 2268 1474Q2268 1459 2257.5 1448.5Q2247 1438 2232 1438Q2217 1438 2206.5 1448.5Q2196 1459 2196 1474V1510ZM1729 935Q1744 935 1754.5 924.5Q1765 914 1765 899Q1765 884 1754.5 873.5Q1744 863 1729 863Q1714 863 1703.5 873.5Q1693 884 1693 899V935ZM2304 1222Q2319 1222 2329.5 1211.5Q2340 1201 2340 1186Q2340 1171 2329.5 1160.5Q2319 1150 2304 1150Q2289 1150 2278.5 1160.5Q2268 1171 2268 1186V1222ZM1873 1007Q1887 1007 1898.0 996.0Q1909 985 1909 971Q1909 957 1898.0 946.0Q1887 935 1873 935Q1858 935 1847.5 945.5Q1837 956 1837 971V1007Z" style="fill:#f2f2f2;stroke:none" transform="scale(1,-1) translate(0,-256)" /></svg>