<?xml version="1.0" encoding="utf-8" ?>
<svg baseProfile="full" height="256" version="1.1" width="256" xmlns="http://www.w3.org/2000/svg" xmlns:ev="http://www.w3.org/2001/xml-events" xmlns:xlink="http://www.w3.org/1999/xlink"><defs /><path d="M831 144Q876 144 915.0 127.0Q954 110 983.5 80.5Q1013 51 1030.0 12.0Q1047 -27 1047 -72Q1047 -117 1030.0 -156.0Q1013 -195 983.5 -224.5Q954 -254 915.0 -271.0Q876 -288 831 -288Q786 -288 747.0 -271.0Q708 -254 678.5 -224.5Q649 -195 632.0 -156.0Q615 -117 615 -72Q615 -27 632.0 12.0Q649 51 678.5 80.5Q708 110 747.0 127.0Q786 144 831 144ZM2053 144Q2098 144 2137.0 127.0Q2176 110 2205.0 80.5Q2234 51 2251.0 12.0Q2268 -27 2268 -72Q2268 -117 2251.0 -156.0Q2234 -195 2205.0 -224.5Q2176 -254 2137.0 -271.0Q2098 -288 2053 -288Q2008 -288 1969.0 -271.0Q1930 -254 1900.5 -224.5Q1871 -195 1854.0 -156.0Q1837 -117 1837 -72Q1837 -27 1854.0 12.0Q1871 51 1900.5 80.5Q1930 110 1969.0 127.0Q2008 144 2053 144Z" style="fill:#383838;stroke:none" transform="scale(1,-1) translate(0,-256)" /></svg>