<?xml version="1.0" encoding="utf-8" ?>
<svg baseProfile="full" height="256" version="1.1" width="256" xmlns="http://www.w3.org/2000/svg" xmlns:ev="http://www.w3.org/2001/xml-events" xmlns:xlink="http://www.w3.org/1999/xlink"><defs /><path d="M2214 503H2340Q2385 503 2424.0 486.0Q2463 469 2492.5 439.5Q2522 410 2539.0 371.0Q2556 332 2556 287V-216H2382Q2361 -264 2327.0 -304.0Q2293 -344 2249.5 -372.5Q2206 -401 2156.0 -416.5Q2106 -432 2053 -432Q2000 -432 1950.0 -416.5Q1900 -401 1857.0 -372.5Q1814 -344 1779.5 -304.0Q1745 -264 1723 -216H1160Q1139 -264 1105.0 -304.0Q1071 -344 1027.5 -372.5Q984 -401 934.0 -416.5Q884 -432 831 -432Q778 -432 728.0 -416.5Q678 -401 634.5 -372.5Q591 -344 557.0 -304.0Q523 -264 502 -216H256V287Q256 332 273.0 371.0Q290 410 319.5 439.5Q349 469 388.0 486.0Q427 503 472 503H742Q796 612 849.5 719.0Q903 826 958 934H1047V958L1167 1078H1430L1550 958V934H1998Q2053 826 2106.5 719.0Q2160 612 2214 503Z" style="fill:#000000;stroke:none" transform="scale(1,-1) translate(0,-256)" /></svg>