<?xml version="1.0" encoding="utf-8" ?>
<svg baseProfile="full" height="256" version="1.1" width="256" xmlns="http://www.w3.org/2000/svg" xmlns:ev="http://www.w3.org/2001/xml-events" xmlns:xlink="http://www.w3.org/1999/xlink"><defs /><path d="M2302 72H2412V-72H400V72H582Q621 139 687.0 177.5Q753 216 831 216Q880 216 925.0 200.0Q970 184 1007.0 155.5Q1044 127 1070.5 87.0Q1097 47 1109 0H1774Q1786 48 1813.0 87.5Q1840 127 1877.0 155.5Q1914 184 1959.0 200.0Q2004 216 2053 216Q2131 216 2197.0 177.5Q2263 139 2302 72ZM975 431V287H903V431Z" style="fill:#eba300;stroke:none" transform="scale(1,-1) translate(0,-256)" /></svg>