<?xml version="1.0" encoding="utf-8" ?>
<svg baseProfile="full" height="256" version="1.1" width="256" xmlns="http://www.w3.org/2000/svg" xmlns:ev="http://www.w3.org/2001/xml-events" xmlns:xlink="http://www.w3.org/1999/xlink"><defs /><path d="M2412 287 2360 214 2412 144V72L2340 -22H472L400 72V144L451 214L400 287Q400 317 421.0 338.0Q442 359 472 359H831Q876 359 914.5 379.0Q953 399 981.5 431.5Q1010 464 1026.5 505.5Q1043 547 1043 590Q1043 623 1035.0 656.5Q1027 690 1011 719L1047 791H1190L1232 830H1359L1406 791H1909L1945 719Q1937 690 1934.0 660.0Q1931 630 1931 600Q1931 508 1967.5 453.0Q2004 398 2092 368Q2099 366 2108.0 362.5Q2117 359 2125 359H2340Q2370 359 2391.0 338.0Q2412 317 2412 287Z" style="fill:#ffb900;stroke:none" transform="scale(1,-1) translate(0,-256)" /></svg>