<?xml version="1.0" encoding="utf-8" ?>
<svg baseProfile="full" height="256" version="1.1" width="256" xmlns="http://www.w3.org/2000/svg" xmlns:ev="http://www.w3.org/2001/xml-events" xmlns:xlink="http://www.w3.org/1999/xlink"><defs /><path d="M1118 1222H2556V-216H2382Q2361 -264 2327.0 -304.0Q2293 -344 2249.5 -372.5Q2206 -401 2156.0 -416.5Q2106 -432 2053 -432Q2000 -432 1950.0 -416.5Q1900 -401 1857.0 -372.5Q1814 -344 1779.5 -304.0Q1745 -264 1723 -216H1160Q1139 -264 1105.0 -304.0Q1071 -344 1027.5 -372.5Q984 -401 934.0 -416.5Q884 -432 831 -432Q778 -432 728.0 -416.5Q678 -401 634.5 -372.5Q591 -344 557.0 -304.0Q523 -264 502 -216H256V359Q256 416 271.5 459.0Q287 502 312.5 538.0Q338 574 371.5 607.0Q405 640 442 677L869 1104Q896 1131 923.5 1153.0Q951 1175 981.0 1190.0Q1011 1205 1044.5 1213.5Q1078 1222 1118 1222Z" style="fill:#000000;stroke:none" transform="scale(1,-1) translate(0,-256)" /></svg>