<?xml version="1.0" encoding="utf-8" ?>
<svg baseProfile="full" height="256" version="1.1" width="256" xmlns="http://www.w3.org/2000/svg" xmlns:ev="http://www.w3.org/2001/xml-events" xmlns:xlink="http://www.w3.org/1999/xlink"><defs /><path d="M831 862Q849 880 865.5 899.5Q882 919 903 934Q932 954 965.0 965.5Q998 977 1028 994H2344L2412 934V359L2296 279H512L400 359Q400 396 414.0 425.5Q428 455 449.0 480.0Q470 505 495.0 528.0Q520 551 543 575Q569 575 600.5 584.0Q632 593 662.5 607.0Q693 621 720.5 639.5Q748 658 766 677Q803 716 817.0 762.5Q831 809 831 862Z" style="fill:#f2f2f2;stroke:none" transform="scale(1,-1) translate(0,-256)" /></svg>