<?xml version="1.0" encoding="utf-8" ?>
<svg baseProfile="full" height="256" version="1.1" width="256" xmlns="http://www.w3.org/2000/svg" xmlns:ev="http://www.w3.org/2001/xml-events" xmlns:xlink="http://www.w3.org/1999/xlink"><defs /><path d="M2053 256Q2087 256 2136.0 234.5Q2185 213 2237.0 183.5Q2289 154 2336.0 123.0Q2383 92 2412 72V-72H2268Q2268 -27 2251.0 12.0Q2234 51 2205.0 80.5Q2176 110 2137.0 127.0Q2098 144 2053 144Q2008 144 1969.0 127.0Q1930 110 1900.5 80.5Q1871 51 1854.0 12.0Q1837 -27 1837 -72H1047Q1047 -27 1030.0 12.0Q1013 51 983.5 80.5Q954 110 915.0 127.0Q876 144 831 144Q786 144 747.0 127.0Q708 110 678.5 80.5Q649 51 632.0 12.0Q615 -27 615 -72H400V72Q422 84 456.5 102.5Q491 121 531.5 141.0Q572 161 615.0 182.0Q658 203 698.5 219.0Q739 235 773.5 245.5Q808 256 831 256Z" style="fill:#cccccc;stroke:none" transform="scale(1,-1) translate(0,-256)" /></svg>