<?xml version="1.0" encoding="utf-8" ?>
<svg baseProfile="full" height="256" version="1.1" width="256" xmlns="http://www.w3.org/2000/svg" xmlns:ev="http://www.w3.org/2001/xml-events" xmlns:xlink="http://www.w3.org/1999/xlink"><defs /><path d="M831 184Q890 184 931.5 164.0Q973 144 998.5 109.5Q1024 75 1035.5 28.5Q1047 -18 1047 -72Q1047 -117 1030.0 -156.0Q1013 -195 983.5 -224.5Q954 -254 915.0 -271.0Q876 -288 831 -288Q786 -288 747.0 -271.0Q708 -254 678.5 -224.5Q649 -195 632.0 -156.0Q615 -117 615 -72Q615 -18 626.5 28.5Q638 75 663.5 109.5Q689 144 730.5 164.0Q772 184 831 184ZM2053 184Q2115 184 2156.5 165.0Q2198 146 2222.5 112.0Q2247 78 2257.5 31.0Q2268 -16 2268 -72Q2268 -117 2251.0 -156.0Q2234 -195 2205.0 -224.5Q2176 -254 2137.0 -271.0Q2098 -288 2053 -288Q2008 -288 1969.0 -271.0Q1930 -254 1900.5 -224.5Q1871 -195 1854.0 -156.0Q1837 -117 1837 -72Q1837 -15 1847.5 32.0Q1858 79 1882.5 112.5Q1907 146 1948.5 165.0Q1990 184 2053 184Z" style="fill:#383838;stroke:none" transform="scale(1,-1) translate(0,-256)" /></svg>