<?xml version="1.0" encoding="utf-8" ?>
<svg baseProfile="full" height="256" version="1.1" width="256" xmlns="http://www.w3.org/2000/svg" xmlns:ev="http://www.w3.org/2001/xml-events" xmlns:xlink="http://www.w3.org/1999/xlink"><defs /><path d="M2412 359V287L2361 214L2412 144V72H2302Q2263 139 2197.0 177.5Q2131 216 2053 216Q1975 216 1909.0 177.5Q1843 139 1804 72H1080Q1041 139 975.0 177.5Q909 216 831 216Q753 216 687.0 177.5Q621 139 582 72H400V144L461 214L400 287V359ZM1118 1078H2412V934H903Q926 957 949.0 982.5Q972 1008 997.5 1029.0Q1023 1050 1052.5 1064.0Q1082 1078 1118 1078ZM831 0Q861 0 882.0 -21.0Q903 -42 903 -72Q903 -102 882.0 -123.0Q861 -144 831 -144Q801 -144 780.0 -123.0Q759 -102 759 -72Q759 -42 780.0 -21.0Q801 0 831 0ZM2053 0Q2083 0 2104.0 -21.0Q2125 -42 2125 -72Q2125 -102 2104.0 -123.0Q2083 -144 2053 -144Q2023 -144 2002.0 -123.0Q1981 -102 1981 -72Q1981 -42 2002.0 -21.0Q2023 0 2053 0Z" style="fill:#e5e5e5;stroke:none" transform="scale(1,-1) translate(0,-256)" /></svg>