<?xml version="1.0" encoding="utf-8" ?>
<svg baseProfile="full" height="256" version="1.1" width="256" xmlns="http://www.w3.org/2000/svg" xmlns:ev="http://www.w3.org/2001/xml-events" xmlns:xlink="http://www.w3.org/1999/xlink"><defs /><path d="M1493 612V456H1391V909H1551Q1588 909 1619.0 901.5Q1650 894 1673.0 877.0Q1696 860 1709.0 832.0Q1722 804 1722 764Q1722 725 1707.0 696.5Q1692 668 1667.0 649.5Q1642 631 1609.5 621.5Q1577 612 1542 612ZM1289 652Q1289 555 1244.0 501.5Q1199 448 1099 448Q1001 448 957.5 500.5Q914 553 914 647V909H1016V646Q1016 624 1020.0 604.0Q1024 584 1034.0 569.0Q1044 554 1060.5 545.0Q1077 536 1102 536Q1126 536 1142.5 544.5Q1159 553 1169.0 567.5Q1179 582 1183.0 601.5Q1187 621 1187 642V909H1289ZM1891 909 1878 597H1797L1786 909ZM1493 830V689H1533Q1570 689 1592.5 705.0Q1615 721 1615 761Q1615 800 1591.5 815.0Q1568 830 1533 830ZM1839 448Q1816 448 1798.5 462.5Q1781 477 1781 501Q1781 526 1798.5 539.5Q1816 553 1839 553Q1862 553 1879.0 539.0Q1896 525 1896 501Q1896 476 1879.5 462.0Q1863 448 1839 448Z" style="fill:#ffffff;stroke:none" transform="scale(1,-1) translate(0,-256)" /></svg>