<?xml version="1.0" encoding="utf-8" ?>
<svg baseProfile="full" height="256" version="1.1" width="256" xmlns="http://www.w3.org/2000/svg" xmlns:ev="http://www.w3.org/2001/xml-events" xmlns:xlink="http://www.w3.org/1999/xlink"><defs /><path d="M867 -36Q852 -36 841.5 -25.5Q831 -15 831 0V1150Q831 1180 842.5 1206.0Q854 1232 873.5 1251.5Q893 1271 919.0 1282.5Q945 1294 975 1294H1082Q1097 1294 1107.5 1283.5Q1118 1273 1118 1258Q1118 1243 1107.5 1232.5Q1097 1222 1082 1222H975Q945 1222 924.0 1201.0Q903 1180 903 1150V0Q903 -15 892.5 -25.5Q882 -36 867 -36Z" style="fill:#e84757;stroke:none" transform="scale(1,-1) translate(0,-256)" /></svg>