<?xml version="1.0" encoding="utf-8" ?>
<svg baseProfile="full" height="256" version="1.1" width="256" xmlns="http://www.w3.org/2000/svg" xmlns:ev="http://www.w3.org/2001/xml-events" xmlns:xlink="http://www.w3.org/1999/xlink"><defs /><path d="M903 -431Q825 -431 759.0 -392.5Q693 -354 654 -287H256V419L328 491V1150Q328 1239 351.0 1322.0Q374 1405 416.5 1476.5Q459 1548 518.0 1607.0Q577 1666 648.5 1708.5Q720 1751 803.0 1774.0Q886 1797 975 1797H1000Q1039 1832 1088.0 1850.5Q1137 1869 1190 1869Q1243 1869 1292.0 1850.5Q1341 1832 1380 1797H1729Q1766 1797 1799.0 1783.0Q1832 1769 1856.5 1744.0Q1881 1719 1895.0 1686.0Q1909 1653 1909 1616Q1909 1587 1899.5 1560.0Q1890 1533 1873 1510Q1909 1463 1909 1402Q1909 1369 1898.0 1339.0Q1887 1309 1866.5 1285.0Q1846 1261 1818.5 1245.0Q1791 1229 1758 1224Q1764 1199 1766.0 1164.0Q1768 1129 1768.0 1092.0Q1768 1055 1767.0 1020.0Q1766 985 1766 959Q1766 681 1765.5 407.5Q1765 134 1765 -144Q1765 -203 1742.5 -255.5Q1720 -308 1681.0 -347.0Q1642 -386 1589.5 -408.5Q1537 -431 1478 -431Z" style="fill:#000000;stroke:none" transform="scale(1,-1) translate(0,-256)" /></svg>