<?xml version="1.0" encoding="utf-8" ?>
<svg baseProfile="full" height="256" version="1.1" width="256" xmlns="http://www.w3.org/2000/svg" xmlns:ev="http://www.w3.org/2001/xml-events" xmlns:xlink="http://www.w3.org/1999/xlink"><defs /><path d="M1328 1539 1738 1437Q1750 1434 1757.5 1424.0Q1765 1414 1765 1402Q1765 1386 1754.0 1376.0Q1743 1366 1728 1366Q1723 1366 1704.5 1370.5Q1686 1375 1664.5 1380.0Q1643 1385 1624.0 1390.0Q1605 1395 1600 1397L1287 1475Q1267 1457 1242.5 1447.0Q1218 1437 1191 1437Q1153 1437 1119.5 1456.5Q1086 1476 1066 1510H975Q901 1510 835.5 1481.5Q770 1453 721.0 1404.0Q672 1355 643.5 1289.5Q615 1224 615 1150V360H687V-144H400V360H472V1150Q472 1226 493.5 1297.0Q515 1368 555.0 1428.0Q595 1488 652.0 1536.0Q709 1584 779 1614Q835 1638 886.5 1645.5Q938 1653 998 1653H1066Q1086 1687 1119.0 1706.0Q1152 1725 1190 1725Q1229 1725 1262.0 1706.0Q1295 1687 1315 1653H1729Q1744 1653 1754.5 1642.5Q1765 1632 1765 1617Q1765 1603 1754.0 1592.0Q1743 1581 1729 1581H1334Q1334 1560 1328 1539Z" style="fill:#757575;stroke:none" transform="scale(1,-1) translate(0,-256)" /></svg>