<?xml version="1.0" encoding="utf-8" ?>
<svg baseProfile="full" height="256" version="1.1" width="256" xmlns="http://www.w3.org/2000/svg" xmlns:ev="http://www.w3.org/2001/xml-events" xmlns:xlink="http://www.w3.org/1999/xlink"><defs /><path d="M1346 791Q1329 807 1314.0 822.0Q1299 837 1287.5 853.5Q1276 870 1269.0 889.5Q1262 909 1262 934Q1262 964 1273.0 990.0Q1284 1016 1303.5 1035.5Q1323 1055 1349.5 1066.5Q1376 1078 1406 1078Q1435 1078 1461.5 1067.0Q1488 1056 1508 1036L1753 791ZM1334 539Q1334 524 1323.5 513.5Q1313 503 1298 503H1047V575H1298Q1313 575 1323.5 564.5Q1334 554 1334 539ZM1334 252Q1334 237 1323.5 226.5Q1313 216 1298 216H1047V288H1298Q1313 288 1323.5 277.5Q1334 267 1334 252ZM1370 0Q1385 0 1395.5 -10.5Q1406 -21 1406 -36Q1406 -51 1395.5 -61.5Q1385 -72 1370 -72H1190V0Z" style="fill:#d48c00;stroke:none" transform="scale(1,-1) translate(0,-256)" /></svg>