<?xml version="1.0" encoding="utf-8" ?>
<svg baseProfile="full" height="256" version="1.1" width="256" xmlns="http://www.w3.org/2000/svg" xmlns:ev="http://www.w3.org/2001/xml-events" xmlns:xlink="http://www.w3.org/1999/xlink"><defs /><path d="M1118 1222Q1118 1177 1101.0 1138.0Q1084 1099 1055.0 1069.5Q1026 1040 987.0 1023.0Q948 1006 903 1006Q858 1006 819.0 1023.0Q780 1040 750.5 1069.5Q721 1099 704.0 1138.0Q687 1177 687 1222Q687 1267 704.0 1306.0Q721 1345 750.5 1374.5Q780 1404 819.0 1421.0Q858 1438 903 1438Q948 1438 987.0 1421.0Q1026 1404 1055.0 1374.5Q1084 1345 1101.0 1306.0Q1118 1267 1118 1222Z" style="fill:#e81224;stroke:none" transform="scale(1,-1) translate(0,-256)" /></svg>