<?xml version="1.0" encoding="utf-8" ?>
<svg baseProfile="full" height="256" version="1.1" width="256" xmlns="http://www.w3.org/2000/svg" xmlns:ev="http://www.w3.org/2001/xml-events" xmlns:xlink="http://www.w3.org/1999/xlink"><defs /><path d="M1118 144Q1118 99 1101.0 60.0Q1084 21 1055.0 -8.5Q1026 -38 987.0 -55.0Q948 -72 903 -72Q858 -72 819.0 -55.0Q780 -38 750.5 -8.5Q721 21 704.0 60.0Q687 99 687 144Q687 189 704.0 228.0Q721 267 750.5 296.5Q780 326 819.0 343.0Q858 360 903 360Q948 360 987.0 343.0Q1026 326 1055.0 296.5Q1084 267 1101.0 228.0Q1118 189 1118 144Z" style="fill:#16c60c;stroke:none" transform="scale(1,-1) translate(0,-256)" /></svg>