<?xml version="1.0" encoding="utf-8" ?>
<svg baseProfile="full" height="256" version="1.1" width="256" xmlns="http://www.w3.org/2000/svg" xmlns:ev="http://www.w3.org/2001/xml-events" xmlns:xlink="http://www.w3.org/1999/xlink"><defs /><path d="M424 240V1198Q424 1297 461.5 1384.5Q499 1472 564.5 1536.5Q630 1601 717.0 1638.5Q804 1676 903 1676Q1002 1676 1089.0 1638.5Q1176 1601 1241.0 1536.0Q1306 1471 1343.5 1384.0Q1381 1297 1381 1198V240Q1381 141 1343.5 54.0Q1306 -33 1241.0 -98.0Q1176 -163 1089.0 -200.5Q1002 -238 903 -238Q804 -238 717.0 -200.5Q630 -163 564.5 -98.5Q499 -34 461.5 53.5Q424 141 424 240Z" style="fill:#1f1f1f;stroke:none" transform="scale(1,-1) translate(0,-256)" /></svg>