<?xml version="1.0" encoding="utf-8" ?>
<svg baseProfile="full" height="256" version="1.1" width="256" xmlns="http://www.w3.org/2000/svg" xmlns:ev="http://www.w3.org/2001/xml-events" xmlns:xlink="http://www.w3.org/1999/xlink"><defs /><path d="M903 1653Q813 1653 734.5 1619.5Q656 1586 597.5 1527.5Q539 1469 505.5 1390.5Q472 1312 472 1222V216Q472 126 505.5 47.5Q539 -31 597.5 -89.5Q656 -148 734.5 -181.5Q813 -215 903 -215Q993 -215 1071.5 -181.5Q1150 -148 1208.5 -89.5Q1267 -31 1300.5 47.5Q1334 126 1334 216V1222Q1334 1311 1300.0 1389.5Q1266 1468 1207.5 1526.5Q1149 1585 1070.5 1619.0Q992 1653 903 1653ZM903 1725Q1007 1725 1098.5 1685.5Q1190 1646 1258.5 1577.5Q1327 1509 1366.5 1417.5Q1406 1326 1406 1222V216Q1406 112 1366.5 20.5Q1327 -71 1258.5 -139.5Q1190 -208 1098.5 -247.5Q1007 -287 903 -287Q799 -287 707.0 -247.5Q615 -208 547.0 -140.0Q479 -72 439.5 20.0Q400 112 400 216V1222Q400 1326 439.5 1417.5Q479 1509 547.5 1577.5Q616 1646 707.5 1685.5Q799 1725 903 1725Z" style="fill:#757575;stroke:none" transform="scale(1,-1) translate(0,-256)" /></svg>