<?xml version="1.0" encoding="utf-8" ?>
<svg baseProfile="full" height="256" version="1.1" width="256" xmlns="http://www.w3.org/2000/svg" xmlns:ev="http://www.w3.org/2001/xml-events" xmlns:xlink="http://www.w3.org/1999/xlink"><defs /><path d="M1118 719Q1118 674 1101.0 635.0Q1084 596 1055.0 566.5Q1026 537 987.0 520.0Q948 503 903 503Q858 503 819.0 520.0Q780 537 750.5 566.5Q721 596 704.0 635.0Q687 674 687 719Q687 764 704.0 803.0Q721 842 750.5 871.5Q780 901 819.0 918.0Q858 935 903 935Q948 935 987.0 918.0Q1026 901 1055.0 871.5Q1084 842 1101.0 803.0Q1118 764 1118 719Z" style="fill:#fff100;stroke:none" transform="scale(1,-1) translate(0,-256)" /></svg>