<?xml version="1.0" encoding="utf-8" ?>
<svg baseProfile="full" height="256" version="1.1" width="256" xmlns="http://www.w3.org/2000/svg" xmlns:ev="http://www.w3.org/2001/xml-events" xmlns:xlink="http://www.w3.org/1999/xlink"><defs /><path d="M903 1869Q992 1869 1075.0 1846.0Q1158 1823 1229.5 1780.5Q1301 1738 1360.0 1679.0Q1419 1620 1461.5 1548.5Q1504 1477 1527.0 1394.0Q1550 1311 1550 1222V216Q1550 127 1527.0 44.0Q1504 -39 1461.5 -110.5Q1419 -182 1360.0 -241.0Q1301 -300 1229.5 -342.5Q1158 -385 1075.0 -408.0Q992 -431 903 -431Q814 -431 731.0 -408.0Q648 -385 576.5 -342.5Q505 -300 446.0 -241.0Q387 -182 344.5 -110.5Q302 -39 279.0 44.0Q256 127 256 216V1222Q256 1311 279.0 1394.0Q302 1477 344.5 1548.5Q387 1620 446.0 1679.0Q505 1738 576.5 1780.5Q648 1823 731.0 1846.0Q814 1869 903 1869Z" style="fill:#000000;stroke:none" transform="scale(1,-1) translate(0,-256)" /></svg>