<?xml version="1.0" encoding="utf-8" ?>
<svg baseProfile="full" height="256" version="1.1" width="256" xmlns="http://www.w3.org/2000/svg" xmlns:ev="http://www.w3.org/2001/xml-events" xmlns:xlink="http://www.w3.org/1999/xlink"><defs /><path d="M1416 -82Q1477 -97 1529.0 -132.0Q1581 -167 1622 -215H615V-144Q615 -110 604.5 -84.5Q594 -59 578.0 -38.5Q562 -18 543.5 0.0Q525 18 509.0 38.5Q493 59 482.5 84.5Q472 110 472 144V324Q472 366 490.5 404.0Q509 442 543 467L726 487Q757 473 780.5 448.5Q804 424 817 392L975 431Q982 439 987.5 448.0Q993 457 1001 465Q1024 487 1055.5 494.0Q1087 501 1116 509Q1126 512 1135.0 515.0Q1144 518 1155 519L1154 511Q1207 511 1254.0 492.5Q1301 474 1334 431L1622 360H1334V72Q1334 46 1340.5 25.0Q1347 4 1358.0 -14.0Q1369 -32 1384.0 -48.0Q1399 -64 1416 -82ZM615 1468Q634 1468 648.0 1458.0Q662 1448 670.5 1433.0Q679 1418 683.0 1400.0Q687 1382 687 1366Q687 1348 678.5 1332.0Q670 1316 655 1306L628 1246V1144Q628 1121 627.0 1106.5Q626 1092 623.0 1078.5Q620 1065 614.5 1050.0Q609 1035 600 1012L543 868Q537 888 529.0 917.5Q521 947 512.0 978.0Q503 1009 492.5 1036.0Q482 1063 472 1078V1150Q486 1159 494.0 1164.5Q502 1170 502 1188Q502 1217 495.0 1247.5Q488 1278 488 1307Q488 1312 488.5 1317.5Q489 1323 490 1328Q488 1328 486.5 1328.5Q485 1329 483 1329Q465 1331 441.0 1335.0Q417 1339 403 1345Q400 1355 400 1366Q400 1384 403.0 1402.0Q406 1420 414.5 1434.5Q423 1449 437.0 1458.5Q451 1468 472 1468ZM759 575 982 519Q987 534 994.0 548.5Q1001 563 1011 575L903 791L1068 625Q1092 639 1118 643L1154 935L1191 643Q1218 638 1240 625L1406 791L1298 575Q1308 563 1314.5 548.5Q1321 534 1326 519L1550 575L1334 467L1319 491L1322 498L1319 508Q1307 521 1286.5 532.0Q1266 543 1242.5 550.5Q1219 558 1195.5 562.0Q1172 566 1155 566Q1135 566 1110.0 561.5Q1085 557 1060.0 548.0Q1035 539 1013.5 526.5Q992 514 980 498L987 484L975 467ZM827 360Q830 351 831.0 341.5Q832 332 832 322Q832 314 831.5 305.0Q831 296 831 288Q831 245 851.0 208.0Q871 171 903 144Q935 171 955.0 208.0Q975 245 975 288V360Z" style="fill:#00cea6;stroke:none" transform="scale(1,-1) translate(0,-256)" /></svg>