<?xml version="1.0" encoding="utf-8" ?>
<svg baseProfile="full" height="256" version="1.1" width="256" xmlns="http://www.w3.org/2000/svg" xmlns:ev="http://www.w3.org/2001/xml-events" xmlns:xlink="http://www.w3.org/1999/xlink"><defs /><path d="M1909 -359H472V-144Q472 -133 466.0 -126.0Q460 -119 452 -111Q395 -57 361.5 3.0Q328 63 328 144V324Q328 380 346.5 431.5Q365 483 400 526Q400 558 400.5 588.5Q401 619 401 651Q401 662 398.5 689.5Q396 717 391.5 753.0Q387 789 381.5 828.5Q376 868 370.5 903.0Q365 938 359.5 963.5Q354 989 351 997Q346 1009 340.0 1020.5Q334 1032 328 1044V1078Q310 1101 301.0 1129.0Q292 1157 292 1186Q292 1201 295 1218Q256 1268 256 1330V1725H400V1869H543Q603 1869 655.5 1846.5Q708 1824 747.0 1785.0Q786 1746 808.5 1693.5Q831 1641 831 1581V1150Q831 1075 783 1016L788 988Q816 1002 847 1002Q874 1002 896.5 991.0Q919 980 938.5 963.5Q958 947 975.5 927.5Q993 908 1010 890Q1015 925 1021.5 959.0Q1028 993 1042.0 1019.5Q1056 1046 1082.0 1062.5Q1108 1079 1152 1079Q1197 1079 1223.0 1062.5Q1249 1046 1263.5 1019.0Q1278 992 1284.0 957.5Q1290 923 1295 888Q1312 906 1330.0 926.0Q1348 946 1368.0 963.0Q1388 980 1411.0 991.0Q1434 1002 1461 1002Q1488 1002 1512.0 991.5Q1536 981 1555.0 963.0Q1574 945 1585.0 921.0Q1596 897 1596 870Q1596 831 1576.0 795.0Q1556 759 1538 727Q1561 733 1584.5 740.0Q1608 747 1633 747Q1661 747 1685.0 735.5Q1709 724 1727.0 705.0Q1745 686 1755.0 661.0Q1765 636 1765 609Q1765 590 1759.0 571.0Q1753 552 1742.5 535.5Q1732 519 1717.0 506.5Q1702 494 1684 488Q1722 470 1742.5 436.5Q1763 403 1763 361Q1763 330 1752.5 303.5Q1742 277 1723.0 257.5Q1704 238 1677.5 227.0Q1651 216 1620 216H1478V72Q1478 58 1490 46Q1524 35 1558.0 18.0Q1592 1 1623.5 -21.0Q1655 -43 1683.0 -69.5Q1711 -96 1732 -124Z" style="fill:#000000;stroke:none" transform="scale(1,-1) translate(0,-256)" /></svg>