<?xml version="1.0" encoding="utf-8" ?>
<svg baseProfile="full" height="256" version="1.1" width="256" xmlns="http://www.w3.org/2000/svg" xmlns:ev="http://www.w3.org/2001/xml-events" xmlns:xlink="http://www.w3.org/1999/xlink"><defs /><path d="M658 1495Q652 1498 639.0 1499.0Q626 1500 610.5 1501.0Q595 1502 579.5 1502.0Q564 1502 554 1502H506Q498 1502 486.5 1502.0Q475 1502 463.5 1501.0Q452 1500 442.0 1499.0Q432 1498 428 1495Q400 1534 400 1581Q430 1581 456.0 1592.5Q482 1604 501.5 1623.5Q521 1643 532.0 1669.0Q543 1695 543 1725Q573 1725 599.0 1713.5Q625 1702 644.5 1682.5Q664 1663 675.5 1637.0Q687 1611 687 1581Q687 1533 658 1495Z" style="fill:#ffb900;stroke:none" transform="scale(1,-1) translate(0,-256)" /></svg>