<?xml version="1.0" encoding="utf-8" ?>
<svg baseProfile="full" height="256" version="1.1" width="256" xmlns="http://www.w3.org/2000/svg" xmlns:ev="http://www.w3.org/2001/xml-events" xmlns:xlink="http://www.w3.org/1999/xlink"><defs /><path d="M508 1366Q521 1366 530.5 1357.0Q540 1348 543 1335Q544 1349 554.5 1357.5Q565 1366 579 1366Q588 1366 606.0 1352.5Q624 1339 642.0 1321.0Q660 1303 673.5 1285.0Q687 1267 687 1258Q687 1238 687.5 1217.0Q688 1196 688 1176Q688 1141 677.0 1114.0Q666 1087 627 1079L726 487Q734 438 746.5 388.0Q759 338 759 288Q759 258 747.5 231.5Q736 205 716.5 185.5Q697 166 671.0 155.0Q645 144 615 144Q586 144 564.5 165.5Q543 187 543 216V467Q543 523 543.5 578.5Q544 634 544 690Q544 725 537.0 759.0Q530 793 525 827L490 1042L543 935L615 1078V1243L611 1246Q603 1253 591.5 1262.5Q580 1272 569.5 1283.0Q559 1294 551.5 1305.5Q544 1317 543 1326Q541 1314 533.5 1304.5Q526 1295 513 1294Q526 1291 534.5 1280.5Q543 1270 543 1258Q543 1245 535.0 1234.5Q527 1224 513 1222Q526 1219 534.5 1208.5Q543 1198 543 1186Q543 1172 532.5 1161.0Q522 1150 508 1150H472Q457 1150 446.5 1160.5Q436 1171 436 1186Q436 1200 443.5 1209.5Q451 1219 465 1222Q451 1223 443.5 1233.5Q436 1244 436 1258Q436 1272 443.5 1281.5Q451 1291 465 1294H454Q434 1294 417.0 1299.0Q400 1304 400 1330Q400 1345 410.5 1355.5Q421 1366 436 1366ZM1154 431Q1176 406 1203.0 385.5Q1230 365 1262 354V252Q1262 229 1253.5 209.5Q1245 190 1230.5 175.5Q1216 161 1196.0 152.5Q1176 144 1154 144Q1132 144 1112.5 152.5Q1093 161 1078.5 176.0Q1064 191 1055.5 210.5Q1047 230 1047 252V354Q1079 365 1105.0 385.0Q1131 405 1154 431ZM1154 575Q1181 575 1201.5 571.5Q1222 568 1241.0 560.5Q1260 553 1278.5 542.0Q1297 531 1318 517Q1323 513 1327.0 511.0Q1331 509 1334 503V431Q1302 467 1252.0 485.0Q1202 503 1154 503Q1131 503 1106.0 498.5Q1081 494 1057.0 485.0Q1033 476 1011.5 462.5Q990 449 975 431V503Q978 509 982.0 511.0Q986 513 991 517Q1012 530 1030.5 541.0Q1049 552 1068.0 559.5Q1087 567 1107.5 571.0Q1128 575 1154 575ZM1083 -35 1262 144V-72H1184Q1182 -72 1176.5 -71.5Q1171 -71 1165.0 -70.0Q1159 -69 1154.0 -68.0Q1149 -67 1148 -66Q1146 -66 1143.0 -65.0Q1140 -64 1138 -64Q1135 -62 1131.0 -61.0Q1127 -60 1124 -58L1114 -54Q1105 -50 1098.0 -45.0Q1091 -40 1083 -35ZM472 1438Q443 1438 422.5 1419.5Q402 1401 400 1372V1438Q400 1467 421.5 1488.5Q443 1510 472 1510H615Q644 1510 665.5 1488.5Q687 1467 687 1438V1366Q687 1396 666.0 1417.0Q645 1438 615 1438Z" style="fill:#81e6d3;stroke:none" transform="scale(1,-1) translate(0,-256)" /></svg>