<?xml version="1.0" encoding="utf-8" ?>
<svg baseProfile="full" height="256" version="1.1" width="256" xmlns="http://www.w3.org/2000/svg" xmlns:ev="http://www.w3.org/2001/xml-events" xmlns:xlink="http://www.w3.org/1999/xlink"><defs /><path d="M1260 1438Q1289 1379 1335.0 1326.5Q1381 1274 1438.0 1235.0Q1495 1196 1560.5 1173.0Q1626 1150 1693 1150V1006Q1693 902 1653.5 810.0Q1614 718 1545.5 650.0Q1477 582 1385.5 542.5Q1294 503 1190 503Q1085 503 993.5 543.0Q902 583 834.0 651.5Q766 720 726.5 812.0Q687 904 687 1008V1150Q792 1152 866.5 1208.0Q941 1264 972 1364Q993 1322 1024.5 1294.5Q1056 1267 1094.0 1251.0Q1132 1235 1174.5 1228.5Q1217 1222 1260 1222ZM1334 431Q1363 431 1384.5 410.0Q1406 389 1406 360Q1406 344 1398 328L1254 40Q1245 22 1227.5 11.0Q1210 0 1190 0Q1170 0 1152.5 11.0Q1135 22 1126 40L983 328Q975 344 975 360Q975 389 996.5 410.0Q1018 431 1047 431Z" style="fill:#ffc83d;stroke:none" transform="scale(1,-1) translate(0,-256)" /></svg>