<?xml version="1.0" encoding="utf-8" ?>
<svg baseProfile="full" height="256" version="1.1" width="256" xmlns="http://www.w3.org/2000/svg" xmlns:ev="http://www.w3.org/2001/xml-events" xmlns:xlink="http://www.w3.org/1999/xlink"><defs /><path d="M1883 795Q1887 794 1894 794Q1902 794 1910.0 795.0Q1918 796 1925 796Q1938 796 1947.5 789.5Q1957 783 1963.5 773.5Q1970 764 1974.0 752.0Q1978 740 1981 729Q2014 719 2052 719H2268Q2268 693 2263.0 666.0Q2258 639 2251 613Q2221 504 2150.0 428.5Q2079 353 1971 318Q1920 301 1871.5 296.0Q1823 291 1771 288L543 216V1079Q543 1213 594.0 1330.5Q645 1448 732.5 1536.0Q820 1624 938.0 1674.5Q1056 1725 1190 1725Q1279 1725 1362.0 1702.0Q1445 1679 1516.5 1636.5Q1588 1594 1647.0 1535.0Q1706 1476 1748.5 1404.5Q1791 1333 1814.0 1250.0Q1837 1167 1837 1078Q1837 1053 1836.0 1027.0Q1835 1001 1835 975Q1835 926 1843.5 879.5Q1852 833 1883 795Z" style="fill:#8e562e;stroke:none" transform="scale(1,-1) translate(0,-256)" /></svg>