<?xml version="1.0" encoding="utf-8" ?>
<svg baseProfile="full" height="256" version="1.1" width="256" xmlns="http://www.w3.org/2000/svg" xmlns:ev="http://www.w3.org/2001/xml-events" xmlns:xlink="http://www.w3.org/1999/xlink"><defs /><path d="M1586 0Q1601 0 1630.5 -3.0Q1660 -6 1690.0 -14.0Q1720 -22 1742.5 -36.0Q1765 -50 1765 -72Q1765 -94 1742.5 -108.0Q1720 -122 1690.0 -130.0Q1660 -138 1630.5 -141.0Q1601 -144 1586 -144Q1576 -144 1559.0 -142.5Q1542 -141 1522.0 -138.0Q1502 -135 1481.5 -129.5Q1461 -124 1444.0 -116.0Q1427 -108 1416.5 -97.5Q1406 -87 1406 -72Q1406 -50 1428.5 -36.0Q1451 -22 1481.0 -14.0Q1511 -6 1541.0 -3.0Q1571 0 1586 0Z" style="fill:#a6a6a6;stroke:none" transform="scale(1,-1) translate(0,-256)" /></svg>