<?xml version="1.0" encoding="utf-8" ?>
<svg baseProfile="full" height="256" version="1.1" width="256" xmlns="http://www.w3.org/2000/svg" xmlns:ev="http://www.w3.org/2001/xml-events" xmlns:xlink="http://www.w3.org/1999/xlink"><defs /><path d="M1414 341 1199 63Q1187 48 1168.5 36.5Q1150 25 1129.0 17.0Q1108 9 1086.5 4.5Q1065 0 1047 0H975Q975 0 960.0 4.0Q945 8 922.0 14.5Q899 21 872.0 28.5Q845 36 821.5 42.5Q798 49 780.5 54.0Q763 59 759 60Q708 46 651.0 28.5Q594 11 543 0H472Q442 0 421.0 21.0Q400 42 400 72V144Q400 169 409.5 183.0Q419 197 434.0 204.5Q449 212 467.5 214.0Q486 216 505 216H543Q544 216 559.0 212.5Q574 209 596.5 203.5Q619 198 646.0 191.0Q673 184 696.5 178.5Q720 173 737.5 168.5Q755 164 759 163Q813 176 867.0 191.0Q921 206 975 216Q980 217 986.0 217.5Q992 218 998 218Q1011 218 1023.5 217.0Q1036 216 1047 216Q1084 216 1123.0 232.5Q1162 249 1185 279L1301 429L1414 455Z" style="fill:#f7b189;stroke:none" transform="scale(1,-1) translate(0,-256)" /></svg>