<?xml version="1.0" encoding="utf-8" ?>
<svg baseProfile="full" height="256" version="1.1" width="256" xmlns="http://www.w3.org/2000/svg" xmlns:ev="http://www.w3.org/2001/xml-events" xmlns:xlink="http://www.w3.org/1999/xlink"><defs /><path d="M2340 1869Q2385 1869 2424.0 1852.0Q2463 1835 2492.5 1805.5Q2522 1776 2539.0 1737.0Q2556 1698 2556 1653Q2556 1618 2544.5 1585.0Q2533 1552 2512 1525L1424 120Q1463 133 1503.5 138.5Q1544 144 1586 144Q1635 144 1692.0 133.5Q1749 123 1797.0 97.5Q1845 72 1877.0 30.5Q1909 -11 1909 -72V-215Q1909 -277 1877.0 -318.0Q1845 -359 1797.0 -384.5Q1749 -410 1692.0 -420.5Q1635 -431 1586 -431Q1536 -431 1479.0 -420.5Q1422 -410 1374.0 -385.0Q1326 -360 1294.0 -318.5Q1262 -277 1262 -215V-72Q1215 -107 1160.0 -125.5Q1105 -144 1047 -144H472Q427 -144 388.0 -127.0Q349 -110 319.5 -80.5Q290 -51 273.0 -12.0Q256 27 256 72V144Q256 189 273.0 228.0Q290 267 319.5 296.5Q349 326 388.0 343.0Q427 360 472 360H1047Q1066 360 1078 375L2131 1736Q2152 1764 2173.0 1788.0Q2194 1812 2218.0 1830.0Q2242 1848 2271.5 1858.5Q2301 1869 2340 1869Z" style="fill:#000000;stroke:none" transform="scale(1,-1) translate(0,-256)" /></svg>