<?xml version="1.0" encoding="utf-8" ?>
<svg baseProfile="full" height="256" version="1.1" width="256" xmlns="http://www.w3.org/2000/svg" xmlns:ev="http://www.w3.org/2001/xml-events" xmlns:xlink="http://www.w3.org/1999/xlink"><defs /><path d="M1370 302Q1346 302 1327 288L816 -93L1020 519Q1024 530 1024 542Q1024 578 995 599L545 935H1106Q1129 935 1148.0 948.0Q1167 961 1175 984L1370 1570L1565 984Q1573 961 1592.0 948.0Q1611 935 1634 935H2195L1745 599Q1716 578 1716 542Q1716 530 1720 519L1924 -93L1413 288Q1394 302 1370 302Z" style="fill:#fce100;stroke:none" transform="scale(1,-1) translate(0,-256)" /></svg>