<?xml version="1.0" encoding="utf-8" ?>
<svg baseProfile="full" height="256" version="1.1" width="256" xmlns="http://www.w3.org/2000/svg" xmlns:ev="http://www.w3.org/2001/xml-events" xmlns:xlink="http://www.w3.org/1999/xlink"><defs /><path d="M2025 628 2385 448Q2433 424 2458.5 381.5Q2484 339 2484 285Q2484 249 2469.5 216.5Q2455 184 2430.0 160.0Q2405 136 2372.5 122.0Q2340 108 2304 108Q2262 108 2224 127L1958 260Q1964 241 1980.0 195.5Q1996 150 2015.5 92.5Q2035 35 2056.5 -28.5Q2078 -92 2096.0 -146.5Q2114 -201 2125.5 -239.5Q2137 -278 2137 -287Q2137 -317 2116.0 -338.0Q2095 -359 2065 -359Q2041 -359 2022 -345L1370 141L718 -345Q699 -359 675 -359Q645 -359 624.0 -338.0Q603 -317 603 -287Q603 -278 614.5 -239.5Q626 -201 644.0 -146.5Q662 -92 683.5 -28.5Q705 35 724.5 92.5Q744 150 760.0 195.5Q776 241 782 260L516 127Q478 108 436 108Q400 108 367.5 122.0Q335 136 310.0 160.0Q285 184 270.5 216.5Q256 249 256 285Q256 339 281.5 381.5Q307 424 355 448L715 628L285 949Q256 970 256 1006Q256 1036 277.0 1057.0Q298 1078 328 1078H792L596 1275Q571 1300 557.0 1333.5Q543 1367 543 1402Q543 1439 557.5 1471.5Q572 1504 596.5 1528.5Q621 1553 653.5 1567.0Q686 1581 723 1581Q759 1581 791.5 1568.0Q824 1555 850 1529L1116 1263L1302 1820Q1310 1842 1328.5 1855.5Q1347 1869 1370 1869Q1393 1869 1411.5 1855.5Q1430 1842 1438 1820L1624 1263L1890 1529Q1916 1555 1948.5 1568.0Q1981 1581 2017 1581Q2054 1581 2086.5 1567.0Q2119 1553 2143.5 1528.5Q2168 1504 2182.5 1471.5Q2197 1439 2197 1402Q2197 1367 2183.0 1333.5Q2169 1300 2144 1275L1948 1078H2412Q2442 1078 2463.0 1057.0Q2484 1036 2484 1006Q2484 970 2455 949Z" style="fill:#000000;stroke:none" transform="scale(1,-1) translate(0,-256)" /></svg>