<?xml version="1.0" encoding="utf-8" ?>
<svg baseProfile="full" height="256" version="1.1" width="256" xmlns="http://www.w3.org/2000/svg" xmlns:ev="http://www.w3.org/2001/xml-events" xmlns:xlink="http://www.w3.org/1999/xlink"><defs /><path d="M2304 252Q2300 252 2273.5 264.0Q2247 276 2208.0 294.5Q2169 313 2123.5 335.5Q2078 358 2037.5 378.5Q1997 399 1967.0 414.5Q1937 430 1929 435Q1919 442 1914.0 448.0Q1909 454 1909 467Q1909 482 1920.0 492.5Q1931 503 1946 503Q1949 503 1976.5 491.0Q2004 479 2043.0 460.0Q2082 441 2127.5 419.0Q2173 397 2213.5 376.5Q2254 356 2283.5 340.5Q2313 325 2320 320Q2330 313 2335.0 306.5Q2340 300 2340 287Q2340 273 2329.0 262.5Q2318 252 2304 252ZM436 252Q422 252 411.0 262.5Q400 273 400 287Q400 300 405.0 306.5Q410 313 420 320Q427 325 456.5 340.5Q486 356 526.0 376.5Q566 397 611.5 419.0Q657 441 696.5 460.0Q736 479 763.0 491.0Q790 503 794 503Q809 503 820.0 492.5Q831 482 831 467Q831 454 826.0 448.0Q821 442 811 435Q803 430 773.0 414.5Q743 399 702.5 378.5Q662 358 616.5 335.5Q571 313 532.0 294.5Q493 276 466.0 264.0Q439 252 436 252ZM1011 1078Q996 1078 985 1089L698 1376Q687 1387 687 1401Q687 1415 698.0 1426.0Q709 1437 723 1437Q739 1437 749 1427L1036 1140Q1046 1130 1046 1114Q1046 1100 1035.5 1089.0Q1025 1078 1011 1078ZM1729 1078Q1715 1078 1704.0 1089.0Q1693 1100 1693 1114Q1693 1129 1704 1140L1991 1427Q2001 1437 2017 1437Q2031 1437 2041.5 1426.0Q2052 1415 2052 1401Q2052 1386 2042 1376L1755 1089Q1744 1078 1729 1078Z" style="fill:#00bcf2;stroke:none" transform="scale(1,-1) translate(0,-256)" /></svg>