<?xml version="1.0" encoding="utf-8" ?>
<svg baseProfile="full" height="256" version="1.1" width="256" xmlns="http://www.w3.org/2000/svg" xmlns:ev="http://www.w3.org/2001/xml-events" xmlns:xlink="http://www.w3.org/1999/xlink"><defs /><path d="M2340 827Q2340 745 2309.0 673.0Q2278 601 2224.5 547.5Q2171 494 2099.0 463.0Q2027 432 1945 432Q1891 432 1840.0 444.5Q1789 457 1741 480Q1685 507 1630.0 535.0Q1575 563 1519 591Q1392 654 1254.5 686.5Q1117 719 975 719L1148 892Q1227 971 1319.5 1032.5Q1412 1094 1513.5 1136.0Q1615 1178 1724.0 1200.0Q1833 1222 1945 1222Q2027 1222 2099.0 1191.0Q2171 1160 2224.5 1106.5Q2278 1053 2309.0 981.0Q2340 909 2340 827Z" style="fill:#69eaff;stroke:none" transform="scale(1,-1) translate(0,-256)" /></svg>