<?xml version="1.0" encoding="utf-8" ?>
<svg baseProfile="full" height="256" version="1.1" width="256" xmlns="http://www.w3.org/2000/svg" xmlns:ev="http://www.w3.org/2001/xml-events" xmlns:xlink="http://www.w3.org/1999/xlink"><defs /><path d="M400 935Q400 1114 465.0 1267.0Q530 1420 654 1548Q694 1589 732.5 1622.0Q771 1655 813.0 1678.0Q855 1701 903.0 1713.0Q951 1725 1011 1725Q1078 1725 1136.5 1699.5Q1195 1674 1239.0 1630.0Q1283 1586 1308.5 1527.5Q1334 1469 1334 1402Q1334 1335 1308.5 1276.0Q1283 1217 1239.0 1173.0Q1195 1129 1136.5 1103.5Q1078 1078 1011 1078Q831 1078 660 1022Z" style="fill:#00bcf2;stroke:none" transform="scale(1,-1) translate(0,-256)" /></svg>