<?xml version="1.0" encoding="utf-8" ?>
<svg baseProfile="full" height="256" version="1.1" width="256" xmlns="http://www.w3.org/2000/svg" xmlns:ev="http://www.w3.org/2001/xml-events" xmlns:xlink="http://www.w3.org/1999/xlink"><defs /><path d="M972 503Q1038 503 1110.5 495.0Q1183 487 1255.5 471.5Q1328 456 1396.5 431.5Q1465 407 1522 374Q1603 328 1648.0 259.0Q1693 190 1693 96Q1693 32 1668.5 -24.5Q1644 -81 1602.0 -123.5Q1560 -166 1503.5 -190.5Q1447 -215 1383 -215Q1322 -215 1265.0 -198.5Q1208 -182 1158.0 -151.5Q1108 -121 1067.5 -77.0Q1027 -33 1000 21L759 503Z" style="fill:#31d2f7;stroke:none" transform="scale(1,-1) translate(0,-256)" /></svg>