<?xml version="1.0" encoding="utf-8" ?>
<svg baseProfile="full" height="256" version="1.1" width="256" xmlns="http://www.w3.org/2000/svg" xmlns:ev="http://www.w3.org/2001/xml-events" xmlns:xlink="http://www.w3.org/1999/xlink"><defs /><path d="M1459 1270Q1568 1315 1683.5 1340.0Q1799 1365 1917 1365Q2030 1365 2133.0 1324.5Q2236 1284 2314.0 1212.5Q2392 1141 2438.0 1042.5Q2484 944 2484 827Q2484 716 2441.5 617.5Q2399 519 2326.0 446.0Q2253 373 2154.5 330.5Q2056 288 1945 288Q1863 288 1782 311Q1837 210 1837 95Q1837 -2 1798.5 -85.0Q1760 -168 1695.0 -229.0Q1630 -290 1544.5 -324.5Q1459 -359 1364 -359Q1287 -359 1215.0 -338.0Q1143 -317 1080.0 -278.0Q1017 -239 965.5 -184.0Q914 -129 880 -60L604 492Q599 503 595.5 515.5Q592 528 592 540Q592 562 600.5 581.5Q609 601 624.0 615.5Q639 630 658.5 638.5Q678 647 700 647L986 934Q841 929 706 885L445 798Q424 791 400 791Q370 791 343.5 802.0Q317 813 297.5 832.5Q278 852 267.0 878.5Q256 905 256 935Q256 1140 332.0 1322.0Q408 1504 552 1650Q602 1701 651.0 1741.5Q700 1782 754.0 1810.5Q808 1839 869.0 1854.0Q930 1869 1005 1869Q1103 1869 1189.5 1833.5Q1276 1798 1340.0 1735.0Q1404 1672 1441.0 1587.0Q1478 1502 1478 1403Q1478 1333 1459 1270Z" style="fill:#000000;stroke:none" transform="scale(1,-1) translate(0,-256)" /></svg>