<?xml version="1.0" encoding="utf-8" ?>
<svg baseProfile="full" height="256" version="1.1" width="256" xmlns="http://www.w3.org/2000/svg" xmlns:ev="http://www.w3.org/2001/xml-events" xmlns:xlink="http://www.w3.org/1999/xlink"><defs /><path d="M2556 647V72Q2556 -32 2516.5 -123.5Q2477 -215 2408.5 -283.5Q2340 -352 2248.5 -391.5Q2157 -431 2053 -431H687Q642 -431 603.0 -414.0Q564 -397 535.0 -367.5Q506 -338 489.0 -299.0Q472 -260 472 -215V7Q472 55 481.5 103.0Q491 151 508.0 197.5Q525 244 547.5 288.0Q570 332 596 371L757 612Q729 628 704.5 647.0Q680 666 657 689L400 947Q368 959 341.5 979.5Q315 1000 296.0 1026.0Q277 1052 266.5 1083.5Q256 1115 256 1150V1294Q256 1336 271.0 1373.5Q286 1411 313.0 1440.0Q340 1469 376.0 1487.5Q412 1506 454 1509Q491 1591 549.0 1657.5Q607 1724 679.5 1771.0Q752 1818 836.5 1843.5Q921 1869 1011 1869Q1101 1869 1185.5 1843.5Q1270 1818 1342.5 1771.0Q1415 1724 1473.0 1657.5Q1531 1591 1568 1509Q1599 1506 1626 1496Q1636 1575 1674.0 1643.5Q1712 1712 1769.5 1762.0Q1827 1812 1900.0 1840.5Q1973 1869 2053 1869Q2142 1869 2220.5 1835.0Q2299 1801 2357.5 1742.5Q2416 1684 2450.0 1605.5Q2484 1527 2484 1438Q2484 1393 2467.0 1354.0Q2450 1315 2420.5 1285.5Q2391 1256 2352.0 1239.0Q2313 1222 2268 1222Q2328 1163 2380.5 1098.5Q2433 1034 2472.0 962.5Q2511 891 2533.5 812.5Q2556 734 2556 647Z" style="fill:#000000;stroke:none" transform="scale(1,-1) translate(0,-256)" /></svg>