<?xml version="1.0" encoding="utf-8" ?>
<svg baseProfile="full" height="256" version="1.1" width="256" xmlns="http://www.w3.org/2000/svg" xmlns:ev="http://www.w3.org/2001/xml-events" xmlns:xlink="http://www.w3.org/1999/xlink"><defs /><path d="M903 1294V1222Q903 1192 882.0 1171.0Q861 1150 831 1150Q801 1150 780.0 1171.0Q759 1192 759 1222V1294Q759 1324 780.0 1345.0Q801 1366 831 1366Q861 1366 882.0 1345.0Q903 1324 903 1294ZM1190 1366Q1220 1366 1241.0 1345.0Q1262 1324 1262 1294V1222Q1262 1192 1241.0 1171.0Q1220 1150 1190 1150Q1161 1150 1139.5 1171.5Q1118 1193 1118 1222V1294Q1118 1323 1139.5 1344.5Q1161 1366 1190 1366ZM1011 827Q988 827 968.5 835.5Q949 844 934.5 858.5Q920 873 911.5 892.5Q903 912 903 935H1118Q1118 913 1109.5 893.5Q1101 874 1086.5 859.0Q1072 844 1052.5 835.5Q1033 827 1011 827Z" style="fill:#000000;stroke:none" transform="scale(1,-1) translate(0,-256)" /></svg>