<?xml version="1.0" encoding="utf-8" ?>
<svg baseProfile="full" height="256" version="1.1" width="256" xmlns="http://www.w3.org/2000/svg" xmlns:ev="http://www.w3.org/2001/xml-events" xmlns:xlink="http://www.w3.org/1999/xlink"><defs /><path d="M831 1040Q807 1063 781.5 1086.0Q756 1109 735.0 1135.5Q714 1162 700.5 1192.0Q687 1222 687 1258Q687 1295 701.0 1328.0Q715 1361 739.5 1385.5Q764 1410 796.5 1424.0Q829 1438 867 1438H1154Q1191 1438 1224.0 1424.0Q1257 1410 1281.5 1385.5Q1306 1361 1320.0 1328.0Q1334 1295 1334 1258Q1334 1221 1319.0 1187.5Q1304 1154 1278 1128L1190 1040V737Q1108 688 1010 688Q914 688 831 737ZM903 -144Q913 -144 923.0 -143.5Q933 -143 943 -143Q962 -143 980.5 -145.5Q999 -148 1014.0 -155.5Q1029 -163 1038.0 -177.0Q1047 -191 1047 -215Q1047 -244 1025.5 -265.5Q1004 -287 975 -287H687Q657 -287 636.0 -266.0Q615 -245 615 -215V0Q615 37 623.0 73.0Q631 109 643 144H923Q914 127 908.5 109.0Q903 91 903 72ZM1550 -72Q1595 -72 1634.0 -89.0Q1673 -106 1702.0 -135.0Q1731 -164 1748.0 -203.0Q1765 -242 1765 -287H1190Q1161 -287 1139.5 -265.5Q1118 -244 1118 -215Q1118 -191 1127.5 -177.0Q1137 -163 1153.0 -155.5Q1169 -148 1188.0 -145.5Q1207 -143 1227 -143Q1238 -143 1248.5 -143.5Q1259 -144 1269 -144Q1280 -112 1307.5 -92.0Q1335 -72 1370 -72ZM400 1294Q400 1324 421.0 1345.0Q442 1366 472 1366H556Q547 1325 544.5 1285.0Q542 1245 542 1203Q542 1171 542.5 1140.5Q543 1110 543 1078H472Q442 1078 421.0 1099.0Q400 1120 400 1150ZM1478 1078Q1478 1113 1479.5 1146.5Q1481 1180 1481 1215Q1481 1253 1478.0 1291.0Q1475 1329 1465 1366H1550Q1579 1366 1600.5 1344.5Q1622 1323 1622 1294V1150Q1622 1121 1600.5 1099.5Q1579 1078 1550 1078Z" style="fill:#f7b189;stroke:none" transform="scale(1,-1) translate(0,-256)" /></svg>