<?xml version="1.0" encoding="utf-8" ?>
<svg baseProfile="full" height="256" version="1.1" width="256" xmlns="http://www.w3.org/2000/svg" xmlns:ev="http://www.w3.org/2001/xml-events" xmlns:xlink="http://www.w3.org/1999/xlink"><defs /><path d="M2412 647V72Q2412 -2 2383.5 -67.5Q2355 -133 2306.5 -181.5Q2258 -230 2192.5 -258.5Q2127 -287 2053 -287H1406V144Q1406 184 1420.0 219.5Q1434 255 1458.5 283.5Q1483 312 1516.5 331.0Q1550 350 1589 356L1358 587L945 174Q933 162 923 144L807 97L643 144Q668 220 715 290L965 664Q969 670 972.5 676.0Q976 682 981 688Q916 693 860.5 719.5Q805 746 759 791L543 1006V1078L461 1187L543 1258Q543 1355 580.0 1440.0Q617 1525 680.5 1588.5Q744 1652 829.0 1688.5Q914 1725 1011 1725Q1108 1725 1193.0 1688.5Q1278 1652 1341.5 1588.5Q1405 1525 1441.5 1440.0Q1478 1355 1478 1258L1518 1199L1495 1136Q1634 1113 1758.0 1052.0Q1882 991 1982.5 900.0Q2083 809 2156.5 692.0Q2230 575 2268 439V647Q2268 694 2254.5 740.0Q2241 786 2218.0 828.5Q2195 871 2165.0 910.0Q2135 949 2103 981L1844 1240Q1802 1282 1783.5 1331.0Q1765 1380 1765 1438Q1765 1496 1788.0 1548.5Q1811 1601 1850.5 1640.0Q1890 1679 1942.0 1702.0Q1994 1725 2053 1725Q2112 1725 2164.5 1702.5Q2217 1680 2256.0 1641.0Q2295 1602 2317.5 1549.5Q2340 1497 2340 1438Q2340 1408 2319.0 1387.0Q2298 1366 2268 1366Q2239 1366 2218.0 1387.5Q2197 1409 2197 1438Q2197 1468 2185.5 1494.0Q2174 1520 2154.5 1539.5Q2135 1559 2109.0 1570.0Q2083 1581 2053 1581Q2023 1581 1997.0 1570.0Q1971 1559 1951.5 1539.5Q1932 1520 1920.5 1494.0Q1909 1468 1909 1438Q1909 1409 1917.0 1386.0Q1925 1363 1946 1342L2203 1084Q2246 1040 2284.0 990.0Q2322 940 2350.5 885.0Q2379 830 2395.5 770.0Q2412 710 2412 647Z" style="fill:#613d30;stroke:none" transform="scale(1,-1) translate(0,-256)" /></svg>