<?xml version="1.0" encoding="utf-8" ?>
<svg baseProfile="full" height="256" version="1.1" width="256" xmlns="http://www.w3.org/2000/svg" xmlns:ev="http://www.w3.org/2001/xml-events" xmlns:xlink="http://www.w3.org/1999/xlink"><defs /><path d="M2166 1725Q2198 1725 2229.0 1721.5Q2260 1718 2290 1704V1605Q2316 1604 2340.5 1603.0Q2365 1602 2391 1602Q2412 1558 2412 1510Q2412 1416 2407.0 1324.0Q2402 1232 2387 1140Q2334 1135 2282.0 1131.5Q2230 1128 2177 1126Q2214 1051 2243.0 973.5Q2272 896 2297 817Q2230 645 2129.0 492.0Q2028 339 1899.0 211.5Q1770 84 1616.0 -15.5Q1462 -115 1289 -179Q1222 -156 1155.5 -135.0Q1089 -114 1021 -93Q1005 -136 990.5 -179.0Q976 -222 962 -266Q881 -279 799.0 -283.5Q717 -288 634 -288Q604 -288 576.0 -284.0Q548 -280 521 -266Q522 -240 524.0 -214.5Q526 -189 529 -163Q501 -162 474.0 -161.5Q447 -161 419 -161Q400 -120 400 -72Q400 16 403.5 102.0Q407 188 421 275Q465 287 508.0 300.0Q551 313 595 327L507 601Q571 774 670.5 928.0Q770 1082 897.5 1211.5Q1025 1341 1178.0 1442.0Q1331 1543 1503 1610Q1570 1584 1636.5 1558.0Q1703 1532 1772 1509Q1787 1557 1800.5 1604.5Q1814 1652 1827 1700Q1912 1714 1996.5 1719.5Q2081 1725 2166 1725Z" style="fill:#8e562e;stroke:none" transform="scale(1,-1) translate(0,-256)" /></svg>