<?xml version="1.0" encoding="utf-8" ?>
<svg baseProfile="full" height="256" version="1.1" width="256" xmlns="http://www.w3.org/2000/svg" xmlns:ev="http://www.w3.org/2001/xml-events" xmlns:xlink="http://www.w3.org/1999/xlink"><defs /><path d="M615 -431Q541 -431 475.5 -403.0Q410 -375 361.0 -326.0Q312 -277 284.0 -211.5Q256 -146 256 -72V0Q256 258 323.0 496.5Q390 735 511.5 942.5Q633 1150 804.0 1321.0Q975 1492 1182.5 1613.5Q1390 1735 1628.5 1802.0Q1867 1869 2125 1869H2197Q2271 1869 2336.5 1840.5Q2402 1812 2450.5 1763.5Q2499 1715 2527.5 1649.5Q2556 1584 2556 1510V1438Q2556 1180 2489.0 941.5Q2422 703 2300.5 495.5Q2179 288 2008.0 117.0Q1837 -54 1629.5 -175.5Q1422 -297 1183.5 -364.0Q945 -431 687 -431Z" style="fill:#000000;stroke:none" transform="scale(1,-1) translate(0,-256)" /></svg>