<?xml version="1.0" encoding="utf-8" ?>
<svg baseProfile="full" height="256" version="1.1" width="256" xmlns="http://www.w3.org/2000/svg" xmlns:ev="http://www.w3.org/2001/xml-events" xmlns:xlink="http://www.w3.org/1999/xlink"><defs /><path d="M975 575Q1005 575 1026 554L1241 339Q1262 318 1262 288Q1262 258 1241.0 237.0Q1220 216 1190 216Q1161 216 1140 237L924 453Q903 474 903 503Q903 533 924.0 554.0Q945 575 975 575ZM1190 791Q1220 791 1241 770L1457 554Q1478 533 1478 503Q1478 474 1456.5 452.5Q1435 431 1406 431Q1377 431 1355 453L1140 668Q1118 690 1118 719Q1118 748 1139.5 769.5Q1161 791 1190 791ZM1406 1006Q1436 1006 1457 985L1672 770Q1694 748 1694 719Q1694 689 1672.0 668.0Q1650 647 1621 647Q1592 647 1571 668L1355 884Q1334 905 1334 934Q1334 963 1355.5 984.5Q1377 1006 1406 1006ZM1621 1222Q1651 1222 1672 1201L1888 985Q1909 964 1909 934Q1909 905 1887.5 884.0Q1866 863 1837 863Q1807 863 1786 884L1571 1099Q1550 1120 1550 1150Q1550 1179 1571.0 1200.5Q1592 1222 1621 1222Z" style="fill:#cccccc;stroke:none" transform="scale(1,-1) translate(0,-256)" /></svg>