<?xml version="1.0" encoding="utf-8" ?>
<svg baseProfile="full" height="256" version="1.1" width="256" xmlns="http://www.w3.org/2000/svg" xmlns:ev="http://www.w3.org/2001/xml-events" xmlns:xlink="http://www.w3.org/1999/xlink"><defs /><path d="M2118 1095 2479 336 2190 -277H1712Q1712 -309 1700.0 -337.0Q1688 -365 1667.0 -386.0Q1646 -407 1618.0 -419.0Q1590 -431 1558 -431Q1528 -431 1500.0 -419.0Q1472 -407 1451 -386L1342 -277H563L256 336L434 727Q386 747 359.0 782.5Q332 818 332 872Q332 926 362.5 966.0Q393 1006 444 1020L603 1065L1004 1869H1712L1934 1461Q1954 1472 1975.0 1479.0Q1996 1486 2019 1486Q2050 1486 2078.0 1474.0Q2106 1462 2127.0 1441.0Q2148 1420 2160.5 1392.5Q2173 1365 2173 1334Q2173 1317 2168 1295Z" style="fill:#000000;stroke:none" transform="scale(1,-1) translate(0,-256)" /></svg>