<?xml version="1.0" encoding="utf-8" ?>
<svg baseProfile="full" height="256" version="1.1" width="256" xmlns="http://www.w3.org/2000/svg" xmlns:ev="http://www.w3.org/2001/xml-events" xmlns:xlink="http://www.w3.org/1999/xlink"><defs /><path d="M400 1205 1406 1708 2412 1205V1061Q2388 1061 2364.0 1061.5Q2340 1062 2316 1062Q2304 1062 2292.0 1062.0Q2280 1062 2268 1061L1693 1037Q1621 1034 1549.5 1029.5Q1478 1025 1406 1025Q1334 1025 1262.0 1029.5Q1190 1034 1118 1037Q937 1045 759.0 1053.0Q581 1061 400 1061ZM543 0H1118V-72L927 -96Q903 -99 879.0 -103.5Q855 -108 831 -108Q807 -108 783.0 -103.5Q759 -99 735 -96L543 -72ZM1693 0H2268V-72L2077 -96Q2053 -99 2029.0 -103.5Q2005 -108 1981 -108Q1957 -108 1933.0 -103.5Q1909 -99 1885 -96L1693 -72ZM543 918H1118V846H543ZM1693 918H2268V846H1693Z" style="fill:#e5e5e5;stroke:none" transform="scale(1,-1) translate(0,-256)" /></svg>