<?xml version="1.0" encoding="utf-8" ?>
<svg baseProfile="full" height="256" version="1.1" width="256" xmlns="http://www.w3.org/2000/svg" xmlns:ev="http://www.w3.org/2001/xml-events" xmlns:xlink="http://www.w3.org/1999/xlink"><defs /><path d="M1693 -72 1909 -215 1837 -287H975L920 -215L1118 -72ZM472 918V989H543L1101 1006Q1171 1008 1240.5 1011.5Q1310 1015 1380 1015Q1455 1015 1528.0 1011.5Q1601 1008 1676 1006Q1843 1001 2008.0 995.0Q2173 989 2340 989V918Q2328 918 2316.0 918.5Q2304 919 2292 919Q2253 919 2214.0 915.0Q2175 911 2136.5 906.0Q2098 901 2059.0 897.0Q2020 893 1981 893Q1945 893 1909.0 897.0Q1873 901 1837.0 905.5Q1801 910 1765.0 914.0Q1729 918 1693 918H1118Q1082 918 1046.0 914.0Q1010 910 974.5 905.5Q939 901 903.0 897.0Q867 893 831 893Q807 893 783.0 896.0Q759 899 735 901Q672 908 610.5 913.0Q549 918 486 918ZM1765 -25V882H1909V-25ZM2053 -25V882H2197V-25ZM615 -25V863H759V-25ZM903 -25V863H1047V-25Z" style="fill:#f2f2f2;stroke:none" transform="scale(1,-1) translate(0,-256)" /></svg>