<?xml version="1.0" encoding="utf-8" ?>
<svg baseProfile="full" height="256" version="1.1" width="256" xmlns="http://www.w3.org/2000/svg" xmlns:ev="http://www.w3.org/2001/xml-events" xmlns:xlink="http://www.w3.org/1999/xlink"><defs /><path d="M1047 -215Q1008 -215 971.0 -217.0Q934 -219 896 -224Q852 -229 808.5 -230.5Q765 -232 721 -232Q658 -232 596.5 -227.5Q535 -223 472 -215V-144H543V-72H1118V-144H1047ZM2268 -144H2340V-215Q2278 -223 2216.5 -227.5Q2155 -232 2092 -232Q2048 -232 2004.5 -230.5Q1961 -229 1917 -224Q1878 -219 1841.0 -217.0Q1804 -215 1765 -215V-144H1693V-72H2268Z" style="fill:#cccccc;stroke:none" transform="scale(1,-1) translate(0,-256)" /></svg>