<?xml version="1.0" encoding="utf-8" ?>
<svg baseProfile="full" height="256" version="1.1" width="256" xmlns="http://www.w3.org/2000/svg" xmlns:ev="http://www.w3.org/2001/xml-events" xmlns:xlink="http://www.w3.org/1999/xlink"><defs /><path d="M2117 1634Q2214 1550 2295.0 1448.5Q2376 1347 2434.5 1232.5Q2493 1118 2525.0 993.5Q2557 869 2557 739Q2557 731 2557.5 722.0Q2558 713 2558 705Q2558 574 2526.0 448.5Q2494 323 2436.0 208.5Q2378 94 2297.0 -8.5Q2216 -111 2117 -196Q1994 -70 1870.5 52.5Q1747 175 1622 300V-287H1275Q1164 -181 1058.0 -73.0Q952 35 843 144H472Q427 144 387.5 161.0Q348 178 319.0 207.0Q290 236 273.0 275.5Q256 315 256 360V1078Q256 1123 273.0 1162.5Q290 1202 319.0 1231.0Q348 1260 387.5 1277.0Q427 1294 472 1294H843Q952 1403 1058.0 1511.0Q1164 1619 1275 1725H1622V1138Q1747 1263 1870.0 1386.0Q1993 1509 2117 1634Z" style="fill:#000000;stroke:none" transform="scale(1,-1) translate(0,-256)" /></svg>