<?xml version="1.0" encoding="utf-8" ?>
<svg baseProfile="full" height="256" version="1.1" width="256" xmlns="http://www.w3.org/2000/svg" xmlns:ev="http://www.w3.org/2001/xml-events" xmlns:xlink="http://www.w3.org/1999/xlink"><defs /><path d="M1711 414 1609 516Q1650 557 1671.5 609.5Q1693 662 1693 719Q1693 776 1671.5 828.5Q1650 881 1609 922L1711 1024Q1774 961 1805.5 884.0Q1837 807 1837 719Q1837 631 1805.5 554.0Q1774 477 1711 414ZM1914 211 1813 312Q1894 393 1937.5 498.5Q1981 604 1981 719Q1981 834 1937.5 939.5Q1894 1045 1813 1126L1914 1227Q1965 1177 2004.0 1118.0Q2043 1059 2070.0 994.0Q2097 929 2111.0 859.5Q2125 790 2125 719Q2125 648 2111.0 578.5Q2097 509 2070.0 444.0Q2043 379 2004.0 320.0Q1965 261 1914 211ZM2117 7 2016 109Q2077 170 2124.0 240.5Q2171 311 2203.0 389.0Q2235 467 2251.5 550.0Q2268 633 2268 719Q2268 804 2251.5 887.5Q2235 971 2202.5 1049.0Q2170 1127 2123.0 1198.0Q2076 1269 2016 1329L2117 1430Q2262 1286 2337.0 1104.5Q2412 923 2412 719Q2412 619 2393.0 521.5Q2374 424 2336.5 333.0Q2299 242 2244.0 159.5Q2189 77 2117 7Z" style="fill:#31d2f7;stroke:none" transform="scale(1,-1) translate(0,-256)" /></svg>