<?xml version="1.0" encoding="utf-8" ?>
<svg baseProfile="full" height="256" version="1.1" width="256" xmlns="http://www.w3.org/2000/svg" xmlns:ev="http://www.w3.org/2001/xml-events" xmlns:xlink="http://www.w3.org/1999/xlink"><defs /><path d="M1154 647Q1176 647 1196.0 638.5Q1216 630 1230.5 615.5Q1245 601 1253.5 581.0Q1262 561 1262 539Q1262 517 1253.5 497.5Q1245 478 1230.0 463.0Q1215 448 1195.5 439.5Q1176 431 1154 431Q1132 431 1112.5 439.5Q1093 448 1078.5 463.0Q1064 478 1055.5 497.5Q1047 517 1047 539Q1047 561 1055.5 580.5Q1064 600 1078.0 615.0Q1092 630 1111.5 638.5Q1131 647 1154 647ZM1478 575Q1508 575 1529.0 554.0Q1550 533 1550 503Q1550 474 1528.5 452.5Q1507 431 1478 431Q1449 431 1427.5 452.5Q1406 474 1406 503Q1406 533 1427.0 554.0Q1448 575 1478 575ZM1873 144Q1895 144 1915.0 135.5Q1935 127 1949.5 112.5Q1964 98 1972.5 78.0Q1981 58 1981 36Q1981 14 1972.5 -5.5Q1964 -25 1949.0 -40.0Q1934 -55 1914.5 -63.5Q1895 -72 1873 -72Q1851 -72 1831.5 -63.5Q1812 -55 1797.0 -40.0Q1782 -25 1773.5 -5.5Q1765 14 1765 36Q1765 58 1773.5 77.5Q1782 97 1797.0 112.0Q1812 127 1831.5 135.5Q1851 144 1873 144Z" style="fill:#bb9167;stroke:none" transform="scale(1,-1) translate(0,-256)" /></svg>