<?xml version="1.0" encoding="utf-8" ?>
<svg baseProfile="full" height="256" version="1.1" width="256" xmlns="http://www.w3.org/2000/svg" xmlns:ev="http://www.w3.org/2001/xml-events" xmlns:xlink="http://www.w3.org/1999/xlink"><defs /><path d="M1262 1438H1334L1391 1409V719H720L687 791V863Q687 893 698.5 919.0Q710 945 729.5 964.5Q749 984 775.0 995.0Q801 1006 831 1006H923Q914 1023 908.5 1041.0Q903 1059 903 1078Q903 1108 914.0 1134.0Q925 1160 944.5 1179.5Q964 1199 990.5 1210.5Q1017 1222 1047 1222Q1066 1222 1083.5 1216.5Q1101 1211 1118 1202V1294Q1118 1324 1129.5 1350.0Q1141 1376 1160.5 1395.5Q1180 1415 1206.0 1426.5Q1232 1438 1262 1438Z" style="fill:#ffffff;stroke:none" transform="scale(1,-1) translate(0,-256)" /></svg>