<?xml version="1.0" encoding="utf-8" ?>
<svg baseProfile="full" height="256" version="1.1" width="256" xmlns="http://www.w3.org/2000/svg" xmlns:ev="http://www.w3.org/2001/xml-events" xmlns:xlink="http://www.w3.org/1999/xlink"><defs /><path d="M400 1043Q400 1072 421.0 1093.5Q442 1115 471 1115Q497 1115 517.5 1098.0Q538 1081 555.5 1061.0Q573 1041 589.5 1024.0Q606 1007 624 1007Q638 1007 648.5 1018.0Q659 1029 659 1043Q659 1061 641.0 1078.0Q623 1095 601.0 1115.0Q579 1135 561.0 1160.0Q543 1185 543 1219Q543 1241 551.5 1261.0Q560 1281 574.5 1295.5Q589 1310 608.5 1318.5Q628 1327 651 1327Q674 1327 691.0 1319.5Q708 1312 721.5 1301.0Q735 1290 746.5 1276.5Q758 1263 770.0 1252.0Q782 1241 795.5 1233.5Q809 1226 827 1226Q856 1226 877.5 1247.0Q899 1268 899 1297Q899 1324 883.0 1342.5Q867 1361 848.0 1379.0Q829 1397 813.0 1418.5Q797 1440 797 1473Q797 1495 805.5 1514.5Q814 1534 829.0 1549.0Q844 1564 863.5 1572.5Q883 1581 905 1581Q939 1581 964.0 1562.5Q989 1544 1009.0 1522.5Q1029 1501 1046.0 1482.5Q1063 1464 1081 1464Q1095 1464 1106.0 1475.0Q1117 1486 1117 1500Q1117 1518 1100.5 1534.5Q1084 1551 1063.5 1568.5Q1043 1586 1026.5 1606.5Q1010 1627 1010 1653Q1010 1682 1031.0 1703.5Q1052 1725 1081 1725Q1109 1725 1132 1704L1333 1509L1378 1410L720 751L616 792L421 993Q400 1016 400 1043Z" style="fill:#13a10e;stroke:none" transform="scale(1,-1) translate(0,-256)" /></svg>