<?xml version="1.0" encoding="utf-8" ?>
<svg baseProfile="full" height="256" version="1.1" width="256" xmlns="http://www.w3.org/2000/svg" xmlns:ev="http://www.w3.org/2001/xml-events" xmlns:xlink="http://www.w3.org/1999/xlink"><defs /><path d="M1392 1423 704 736Q685 750 665.0 762.0Q645 774 628 791Q607 813 591.0 848.5Q575 884 564.0 924.0Q553 964 547.5 1003.5Q542 1043 542 1073Q542 1179 582.0 1272.0Q622 1365 691.0 1434.0Q760 1503 853.0 1543.0Q946 1583 1052 1583Q1083 1583 1122.0 1577.5Q1161 1572 1200.5 1561.5Q1240 1551 1275.5 1534.5Q1311 1518 1334 1497Q1352 1480 1364.0 1460.5Q1376 1441 1392 1423Z" style="fill:#8e562e;stroke:none" transform="scale(1,-1) translate(0,-256)" /></svg>