<?xml version="1.0" encoding="utf-8" ?>
<svg baseProfile="full" height="256" version="1.1" width="256" xmlns="http://www.w3.org/2000/svg" xmlns:ev="http://www.w3.org/2001/xml-events" xmlns:xlink="http://www.w3.org/1999/xlink"><defs /><path d="M1406 791Q1463 791 1515.5 769.5Q1568 748 1609 707L2384 -68Q2363 -118 2329.0 -158.5Q2295 -199 2251.5 -227.5Q2208 -256 2157.5 -271.5Q2107 -287 2053 -287H1909Q1808 -287 1715.0 -251.5Q1622 -216 1550 -144L615 791ZM1873 791Q1895 791 1915.0 782.5Q1935 774 1949.5 759.5Q1964 745 1972.5 725.0Q1981 705 1981 683Q1981 660 1972.5 640.5Q1964 621 1949.5 606.5Q1935 592 1915.0 583.5Q1895 575 1873 575Q1851 575 1831.5 583.5Q1812 592 1797.0 607.0Q1782 622 1773.5 641.5Q1765 661 1765 683Q1765 705 1773.5 724.5Q1782 744 1797.0 759.0Q1812 774 1831.5 782.5Q1851 791 1873 791ZM1550 1150Q1579 1150 1600.5 1128.5Q1622 1107 1622 1078Q1622 1049 1600.5 1027.5Q1579 1006 1550 1006Q1521 1006 1499.5 1027.5Q1478 1049 1478 1078Q1478 1108 1499.0 1129.0Q1520 1150 1550 1150Z" style="fill:#d8b094;stroke:none" transform="scale(1,-1) translate(0,-256)" /></svg>