<?xml version="1.0" encoding="utf-8" ?>
<svg baseProfile="full" height="256" version="1.1" width="256" xmlns="http://www.w3.org/2000/svg" xmlns:ev="http://www.w3.org/2001/xml-events" xmlns:xlink="http://www.w3.org/1999/xlink"><defs /><path d="M1909 -431Q1845 -431 1782.0 -419.0Q1719 -407 1659.5 -383.5Q1600 -360 1546.5 -325.0Q1493 -290 1448 -245L319 891Q289 921 272.5 961.0Q256 1001 256 1043Q256 1077 266.5 1109.0Q277 1141 296.0 1168.0Q315 1195 342.0 1215.5Q369 1236 401 1247Q406 1296 430.5 1341.5Q455 1387 495 1416Q535 1482 589.0 1536.0Q643 1590 709 1630Q739 1670 783.5 1694.0Q828 1718 878 1723Q888 1756 908.5 1783.0Q929 1810 956.0 1829.0Q983 1848 1015.5 1858.5Q1048 1869 1082 1869Q1124 1869 1164.0 1852.5Q1204 1836 1234 1806L2370 677Q2415 632 2450.0 578.0Q2485 524 2508.5 465.0Q2532 406 2544.0 343.0Q2556 280 2556 216V72Q2556 -32 2516.5 -123.5Q2477 -215 2408.5 -283.5Q2340 -352 2248.5 -391.5Q2157 -431 2053 -431Z" style="fill:#000000;stroke:none" transform="scale(1,-1) translate(0,-256)" /></svg>