<?xml version="1.0" encoding="utf-8" ?>
<svg baseProfile="full" height="256" version="1.1" width="256" xmlns="http://www.w3.org/2000/svg" xmlns:ev="http://www.w3.org/2001/xml-events" xmlns:xlink="http://www.w3.org/1999/xlink"><defs /><path d="M1406 -215Q1300 -215 1195.0 -206.0Q1090 -197 985 -178Q917 -166 837.0 -145.0Q757 -124 676.0 -93.0Q595 -62 519.0 -19.5Q443 23 384.5 79.0Q326 135 291.0 204.5Q256 274 256 360V431Q256 517 294.0 587.5Q332 658 392.0 714.0Q452 770 525.5 812.0Q599 854 670 882Q693 988 716.0 1093.0Q739 1198 764 1304Q778 1363 817.5 1406.5Q857 1450 912.0 1480.5Q967 1511 1033.0 1531.0Q1099 1551 1165.5 1562.0Q1232 1573 1294.5 1577.0Q1357 1581 1406 1581Q1455 1581 1517.5 1577.0Q1580 1573 1646.5 1562.0Q1713 1551 1779.0 1531.0Q1845 1511 1900.0 1480.5Q1955 1450 1994.5 1406.5Q2034 1363 2048 1304Q2073 1198 2096.0 1093.0Q2119 988 2142 882Q2213 854 2286.5 812.0Q2360 770 2420.0 714.0Q2480 658 2518.0 587.5Q2556 517 2556 431V360Q2556 274 2521.0 204.5Q2486 135 2427.0 79.5Q2368 24 2292.5 -18.5Q2217 -61 2136.0 -92.5Q2055 -124 1974.5 -145.0Q1894 -166 1827 -178Q1722 -197 1617.0 -206.0Q1512 -215 1406 -215Z" style="fill:#000000;stroke:none" transform="scale(1,-1) translate(0,-256)" /></svg>