<?xml version="1.0" encoding="utf-8" ?>
<svg baseProfile="full" height="256" version="1.1" width="256" xmlns="http://www.w3.org/2000/svg" xmlns:ev="http://www.w3.org/2001/xml-events" xmlns:xlink="http://www.w3.org/1999/xlink"><defs /><path d="M1909 1258Q1909 1231 1891.5 1209.5Q1874 1188 1846.0 1170.5Q1818 1153 1783.5 1139.5Q1749 1126 1715.0 1116.5Q1681 1107 1651.0 1101.0Q1621 1095 1602 1092Q1553 1084 1504.5 1081.0Q1456 1078 1406 1078Q1356 1078 1307.5 1081.0Q1259 1084 1210 1092Q1191 1095 1161.0 1101.0Q1131 1107 1097.0 1116.5Q1063 1126 1028.5 1139.5Q994 1153 966.0 1170.5Q938 1188 920.5 1210.0Q903 1232 903 1258Q903 1268 904 1272Q914 1307 947.5 1333.0Q981 1359 1027.0 1377.5Q1073 1396 1127.5 1407.5Q1182 1419 1234.0 1426.0Q1286 1433 1331.5 1435.5Q1377 1438 1406 1438Q1456 1438 1504.5 1435.0Q1553 1432 1602 1424Q1621 1421 1651.0 1415.0Q1681 1409 1715.0 1399.5Q1749 1390 1783.5 1376.5Q1818 1363 1846.0 1345.5Q1874 1328 1891.5 1306.5Q1909 1285 1909 1258ZM2268 431Q2268 381 2237.5 340.5Q2207 300 2158.0 267.5Q2109 235 2048.0 210.5Q1987 186 1926.0 168.0Q1865 150 1810.5 139.0Q1756 128 1721 123Q1643 111 1564.0 105.5Q1485 100 1406 100Q1327 100 1248.0 105.5Q1169 111 1091 123Q1055 128 1000.5 139.0Q946 150 885.0 168.0Q824 186 763.0 210.5Q702 235 653.0 267.5Q604 300 573.5 341.0Q543 382 543 431Q543 472 566.0 507.0Q589 542 622.5 570.0Q656 598 695.0 619.0Q734 640 767 654Q764 638 756.5 609.0Q749 580 741.5 549.0Q734 518 728.5 490.0Q723 462 723 449Q723 415 746.5 387.0Q770 359 807.0 336.5Q844 314 890.0 297.0Q936 280 981.5 267.5Q1027 255 1066.5 247.0Q1106 239 1130 236Q1199 225 1268.0 220.5Q1337 216 1406 216Q1475 216 1544.0 220.5Q1613 225 1682 236Q1706 239 1745.5 247.0Q1785 255 1830.5 267.5Q1876 280 1922.0 297.0Q1968 314 2005.0 336.5Q2042 359 2065.5 387.0Q2089 415 2089 449Q2089 454 2088.0 459.0Q2087 464 2086 469L2045 654Q2078 640 2116.5 619.0Q2155 598 2189.0 570.0Q2223 542 2245.5 507.5Q2268 473 2268 431Z" style="fill:#8e562e;stroke:none" transform="scale(1,-1) translate(0,-256)" /></svg>