<?xml version="1.0" encoding="utf-8" ?>
<svg baseProfile="full" height="256" version="1.1" width="256" xmlns="http://www.w3.org/2000/svg" xmlns:ev="http://www.w3.org/2001/xml-events" xmlns:xlink="http://www.w3.org/1999/xlink"><defs /><path d="M2207 431Q2207 396 2176.5 366.5Q2146 337 2098.0 312.0Q2050 287 1991.5 267.5Q1933 248 1877.0 233.0Q1821 218 1774.0 209.0Q1727 200 1703 196Q1633 185 1562.5 179.5Q1492 174 1421 174Q1347 174 1274.0 179.0Q1201 184 1128 194Q1105 197 1059.5 204.5Q1014 212 959.5 224.5Q905 237 847.5 254.0Q790 271 743.5 293.5Q697 316 667.0 344.0Q637 372 637 405Q637 406 644.5 421.0Q652 436 663.0 458.0Q674 480 687.5 505.5Q701 531 713.5 554.0Q726 577 735.0 594.0Q744 611 747 616Q752 626 758.5 634.5Q765 643 767 654Q797 788 826.5 920.0Q856 1052 885 1186H1927L2045 654Q2049 648 2063.0 629.5Q2077 611 2095.0 587.0Q2113 563 2132.5 536.0Q2152 509 2168.5 486.0Q2185 463 2196.0 447.5Q2207 432 2207 431Z" style="fill:#ffc83d;stroke:none" transform="scale(1,-1) translate(0,-256)" /></svg>