<?xml version="1.0" encoding="utf-8" ?>
<svg baseProfile="full" height="256" version="1.1" width="256" xmlns="http://www.w3.org/2000/svg" xmlns:ev="http://www.w3.org/2001/xml-events" xmlns:xlink="http://www.w3.org/1999/xlink"><defs /><path d="M1406 1006Q1356 1006 1286.5 1011.5Q1217 1017 1146.0 1031.0Q1075 1045 1012.0 1069.5Q949 1094 913 1132Q904 1142 894.5 1157.0Q885 1172 885 1186Q885 1187 887.5 1199.5Q890 1212 893.5 1227.0Q897 1242 900.0 1255.5Q903 1269 904 1272H1907Q1908 1269 1911.0 1255.5Q1914 1242 1917.5 1227.0Q1921 1212 1924.0 1199.5Q1927 1187 1927 1186Q1927 1172 1917.5 1157.0Q1908 1142 1899 1132Q1875 1107 1838.5 1087.5Q1802 1068 1758.0 1054.0Q1714 1040 1666.0 1031.0Q1618 1022 1571.0 1016.5Q1524 1011 1481.5 1008.5Q1439 1006 1406 1006Z" style="fill:#613d30;stroke:none" transform="scale(1,-1) translate(0,-256)" /></svg>