<?xml version="1.0" encoding="utf-8" ?>
<svg baseProfile="full" height="256" version="1.1" width="256" xmlns="http://www.w3.org/2000/svg" xmlns:ev="http://www.w3.org/2001/xml-events" xmlns:xlink="http://www.w3.org/1999/xlink"><defs /><path d="M2412 431V360Q2412 299 2379.5 248.0Q2347 197 2294.0 155.5Q2241 114 2174.0 81.5Q2107 49 2039.0 25.5Q1971 2 1907.5 -14.0Q1844 -30 1798 -38Q1701 -55 1603.0 -63.5Q1505 -72 1406 -72Q1307 -72 1209.0 -63.5Q1111 -55 1014 -38Q968 -30 904.5 -14.0Q841 2 773.0 25.5Q705 49 638.0 81.5Q571 114 518.0 155.5Q465 197 432.5 248.0Q400 299 400 360V431Z" style="fill:#cccccc;stroke:none" transform="scale(1,-1) translate(0,-256)" /></svg>