<?xml version="1.0" encoding="utf-8" ?>
<svg baseProfile="full" height="256" version="1.1" width="256" xmlns="http://www.w3.org/2000/svg" xmlns:ev="http://www.w3.org/2001/xml-events" xmlns:xlink="http://www.w3.org/1999/xlink"><defs /><path d="M2412 431Q2412 371 2380.5 321.5Q2349 272 2298.5 231.0Q2248 190 2184.0 158.0Q2120 126 2054.5 102.5Q1989 79 1928.0 63.0Q1867 47 1822 38Q1719 18 1615.0 9.0Q1511 0 1406 0Q1301 0 1197.0 9.0Q1093 18 990 38Q945 47 884.0 63.0Q823 79 757.5 102.5Q692 126 628.0 158.0Q564 190 513.5 231.0Q463 272 431.5 322.0Q400 372 400 431Q400 492 432.5 543.0Q465 594 518.0 635.5Q571 677 638.0 709.5Q705 742 773.0 765.5Q841 789 904.5 805.0Q968 821 1014 829Q1111 846 1209.0 854.5Q1307 863 1406 863Q1505 863 1603.0 854.5Q1701 846 1798 829Q1844 821 1907.5 805.0Q1971 789 2039.0 765.5Q2107 742 2174.0 709.5Q2241 677 2294.0 635.5Q2347 594 2379.5 543.0Q2412 492 2412 431Z" style="fill:#f2f2f2;stroke:none" transform="scale(1,-1) translate(0,-256)" /></svg>