<?xml version="1.0" encoding="utf-8" ?>
<svg baseProfile="full" height="256" version="1.1" width="256" xmlns="http://www.w3.org/2000/svg" xmlns:ev="http://www.w3.org/2001/xml-events" xmlns:xlink="http://www.w3.org/1999/xlink"><defs /><path d="M1683 1006H2089Q2156 1006 2214.5 980.5Q2273 955 2317.0 911.0Q2361 867 2386.5 808.5Q2412 750 2412 683V503Q2412 425 2373.5 359.0Q2335 293 2268 254Q2259 239 2245.0 222.0Q2231 205 2214.5 190.0Q2198 175 2179.0 165.0Q2160 155 2141 155Q2128 155 2106.0 162.0Q2084 169 2060.0 179.0Q2036 189 2014.5 199.5Q1993 210 1981 217H1680Q1668 185 1648.0 158.0Q1628 131 1601.5 112.0Q1575 93 1543.5 82.5Q1512 72 1478 72H1334L1220 12L1118 72H1047Q1002 72 963.0 89.0Q924 106 894.5 135.5Q865 165 848.0 204.0Q831 243 831 288V399Q764 437 725.5 503.5Q687 570 687 647V863L1032 898L1118 1222H1406Q1455 1222 1499.5 1206.0Q1544 1190 1581.0 1161.5Q1618 1133 1644.5 1093.0Q1671 1053 1683 1006Z" style="fill:#ffffff;stroke:none" transform="scale(1,-1) translate(0,-256)" /></svg>