<?xml version="1.0" encoding="utf-8" ?>
<svg baseProfile="full" height="256" version="1.1" width="256" xmlns="http://www.w3.org/2000/svg" xmlns:ev="http://www.w3.org/2001/xml-events" xmlns:xlink="http://www.w3.org/1999/xlink"><defs /><path d="M903 1282Q967 1278 1008.5 1256.0Q1050 1234 1074.5 1197.5Q1099 1161 1108.5 1112.0Q1118 1063 1118 1006Q1118 971 1095.0 938.0Q1072 905 1038.5 876.5Q1005 848 968.0 826.0Q931 804 903 791H543Q505 791 472.0 810.5Q439 830 420 863L451 900L400 935L502 1036Q526 1060 555.5 1092.5Q585 1125 618.0 1153.5Q651 1182 686.5 1202.0Q722 1222 759 1222ZM1981 216Q2007 216 2031.5 215.5Q2056 215 2082 215Q2130 215 2178.0 222.0Q2226 229 2268 254V-287H2125V72ZM1118 72H1334V0L1262 -72V-287H1118Z" style="fill:#bb9167;stroke:none" transform="scale(1,-1) translate(0,-256)" /></svg>