<?xml version="1.0" encoding="utf-8" ?>
<svg baseProfile="full" height="256" version="1.1" width="256" xmlns="http://www.w3.org/2000/svg" xmlns:ev="http://www.w3.org/2001/xml-events" xmlns:xlink="http://www.w3.org/1999/xlink"><defs /><path d="M1226 -416Q1191 -431 1154 -431Q1109 -431 1070.0 -410.0Q1031 -389 1006 -352Q975 -359 939 -359Q902 -359 869.0 -345.0Q836 -331 811.5 -306.5Q787 -282 773.0 -249.0Q759 -216 759 -179Q759 -159 764 -136Q654 -119 561.0 -65.5Q468 -12 400.5 67.0Q333 146 294.5 246.0Q256 346 256 457Q256 578 301.0 688.0Q346 798 432 883L811 1261Q855 1305 879.0 1362.5Q903 1420 903 1483V1869H1550V1483Q1550 1420 1573.5 1363.0Q1597 1306 1642 1261L2021 882Q2106 797 2151.5 687.5Q2197 578 2197 457Q2197 346 2158.5 246.0Q2120 146 2052.0 66.5Q1984 -13 1890.5 -66.5Q1797 -120 1688 -137Q1693 -160 1693 -180Q1693 -217 1679.0 -249.5Q1665 -282 1640.5 -306.5Q1616 -331 1583.5 -345.0Q1551 -359 1514 -359Q1478 -359 1447 -352Q1421 -389 1382.0 -410.0Q1343 -431 1298 -431Q1260 -431 1226 -416Z" style="fill:#000000;stroke:none" transform="scale(1,-1) translate(0,-256)" /></svg>