<?xml version="1.0" encoding="utf-8" ?>
<svg baseProfile="full" height="256" version="1.1" width="256" xmlns="http://www.w3.org/2000/svg" xmlns:ev="http://www.w3.org/2001/xml-events" xmlns:xlink="http://www.w3.org/1999/xlink"><defs /><path d="M1406 1483Q1406 1392 1441.0 1308.0Q1476 1224 1540 1160L1919 781Q1942 758 1965.0 725.5Q1988 693 2006.5 657.0Q2025 621 2036.5 583.5Q2048 546 2048 512Q2048 500 2047.5 485.0Q2047 470 2045 458Q2044 455 2042.5 452.5Q2041 450 2041 447Q2038 426 2037.0 410.0Q2036 394 2034.0 379.0Q2032 364 2028.5 348.0Q2025 332 2016 310Q1989 241 1939.5 187.5Q1890 134 1827.5 97.5Q1765 61 1693.5 42.0Q1622 23 1550 23Q1377 23 1206.5 22.0Q1036 21 863 21Q861 21 844.0 27.0Q827 33 807.0 40.5Q787 48 769.0 54.5Q751 61 747 63Q696 84 645.5 110.5Q595 137 550.5 172.5Q506 208 472.5 252.5Q439 297 423 353Q416 376 415.0 398.0Q414 420 411 444Q409 461 406.5 479.0Q404 497 404 515Q404 548 415.5 585.0Q427 622 446.0 658.0Q465 694 488.0 726.0Q511 758 534 781L913 1160Q977 1224 1012.0 1308.0Q1047 1392 1047 1483V1725H1118L1226 1604L1334 1725H1406Z" style="fill:#cccccc;stroke:none" transform="scale(1,-1) translate(0,-256)" /></svg>