<?xml version="1.0" encoding="utf-8" ?>
<svg baseProfile="full" height="256" version="1.1" width="256" xmlns="http://www.w3.org/2000/svg" xmlns:ev="http://www.w3.org/2001/xml-events" xmlns:xlink="http://www.w3.org/1999/xlink"><defs /><path d="M1334 1725Q1334 1678 1333.0 1632.5Q1332 1587 1332 1542Q1332 1486 1335.0 1430.5Q1338 1375 1346.5 1320.0Q1355 1265 1371.0 1211.5Q1387 1158 1414 1105L1620 697Q1633 671 1645.5 637.5Q1658 604 1667.5 568.5Q1677 533 1683.0 498.0Q1689 463 1689 434Q1689 415 1688.0 396.5Q1687 378 1686 360Q1686 358 1681.5 344.5Q1677 331 1671.0 315.5Q1665 300 1659.5 286.5Q1654 273 1653 270Q1640 239 1622.5 201.0Q1605 163 1582.5 124.0Q1560 85 1533.0 47.5Q1506 10 1475.0 -19.0Q1444 -48 1408.5 -65.5Q1373 -83 1334 -83H1118Q1079 -83 1044.5 -65.5Q1010 -48 979.0 -19.5Q948 9 922.0 45.5Q896 82 874.0 121.0Q852 160 835.0 197.5Q818 235 806 266Q804 269 799.0 282.5Q794 296 788.5 311.0Q783 326 778.5 339.0Q774 352 774 355Q772 378 768.5 400.5Q765 423 765 446Q765 473 771.0 506.5Q777 540 786.5 574.5Q796 609 808.0 641.0Q820 673 832 697L1039 1105Q1066 1157 1082.0 1211.0Q1098 1265 1106.5 1319.5Q1115 1374 1117.5 1430.0Q1120 1486 1120 1542Q1120 1588 1119.0 1633.5Q1118 1679 1118 1725Z" style="fill:#ffffff;stroke:none" transform="scale(1,-1) translate(0,-256)" /></svg>