<?xml version="1.0" encoding="utf-8" ?>
<svg baseProfile="full" height="256" version="1.1" width="256" xmlns="http://www.w3.org/2000/svg" xmlns:ev="http://www.w3.org/2001/xml-events" xmlns:xlink="http://www.w3.org/1999/xlink"><defs /><path d="M2047 529Q2053 493 2053 456Q2053 361 2017.0 278.0Q1981 195 1918.5 133.0Q1856 71 1772.5 35.5Q1689 0 1594 0Q1547 -66 1481.5 -105.0Q1416 -144 1334 -144H1118Q1037 -144 970.5 -105.0Q904 -66 858 0Q763 0 679.5 36.0Q596 72 533.5 134.0Q471 196 435.0 279.5Q399 363 399 458Q399 493 405 529Q417 456 450.5 391.5Q484 327 534.5 277.0Q585 227 649.5 193.5Q714 160 787 149Q772 199 765.5 250.0Q759 301 759 352Q759 381 760.5 408.5Q762 436 766 464Q776 391 803.5 320.5Q831 250 876.0 195.0Q921 140 984.5 106.0Q1048 72 1130 72H1322Q1404 72 1467.5 106.0Q1531 140 1576.0 195.0Q1621 250 1648.5 320.5Q1676 391 1687 464Q1690 436 1692.0 408.5Q1694 381 1694 353Q1694 301 1687.0 250.0Q1680 199 1665 149Q1738 160 1802.5 193.5Q1867 227 1917.5 277.0Q1968 327 2001.5 391.5Q2035 456 2047 529Z" style="fill:#cc76ca;stroke:none" transform="scale(1,-1) translate(0,-256)" /></svg>