<?xml version="1.0" encoding="utf-8" ?>
<svg baseProfile="full" height="256" version="1.1" width="256" xmlns="http://www.w3.org/2000/svg" xmlns:ev="http://www.w3.org/2001/xml-events" xmlns:xlink="http://www.w3.org/1999/xlink"><defs /><path d="M1765 1078Q1795 1078 1816.0 1057.0Q1837 1036 1837 1006Q1837 977 1858.5 956.0Q1880 935 1909 935Q1938 935 1959.5 913.5Q1981 892 1981 863V791Q1981 756 1970.5 731.0Q1960 706 1944.0 685.5Q1928 665 1909.0 646.5Q1890 628 1874.0 607.5Q1858 587 1847.5 562.0Q1837 537 1837 503Q1837 443 1814.5 391.0Q1792 339 1753.0 300.0Q1714 261 1662.0 238.5Q1610 216 1550 216H1478Q1433 216 1394.0 199.0Q1355 182 1325.5 152.5Q1296 123 1279.0 84.0Q1262 45 1262 0Q1262 -29 1240.5 -50.5Q1219 -72 1190 -72Q1161 -72 1139.5 -50.5Q1118 -29 1118 0Q1118 45 1101.0 84.0Q1084 123 1055.0 152.5Q1026 182 987.0 199.0Q948 216 903 216H831Q796 216 771.0 205.5Q746 195 725.5 179.0Q705 163 686.5 144.0Q668 125 647.5 109.0Q627 93 602.0 82.5Q577 72 543 72H505Q485 72 466.5 74.0Q448 76 433.0 83.5Q418 91 409.0 105.5Q400 120 400 144Q400 174 421.0 195.0Q442 216 472 216Q507 216 532.0 226.5Q557 237 577.5 253.0Q598 269 615.5 288.0Q633 307 653.5 323.0Q674 339 699.0 349.5Q724 360 759 360H1262Q1322 360 1374.5 382.5Q1427 405 1466.0 444.0Q1505 483 1527.5 535.0Q1550 587 1550 647Q1550 682 1560.5 707.0Q1571 732 1587.0 752.5Q1603 773 1621.5 791.0Q1640 809 1656.0 829.0Q1672 849 1682.5 874.5Q1693 900 1693 935V1006Q1693 1036 1714.0 1057.0Q1735 1078 1765 1078ZM2268 1510Q2268 1481 2247.0 1459.5Q2226 1438 2197 1438Q2162 1438 2137.0 1427.5Q2112 1417 2091.5 1401.0Q2071 1385 2053.0 1366.0Q2035 1347 2014.5 1331.0Q1994 1315 1969.0 1304.5Q1944 1294 1909 1294Q1879 1294 1858.0 1273.0Q1837 1252 1837 1222Q1837 1192 1816.0 1171.0Q1795 1150 1765 1150Q1736 1150 1714.5 1171.5Q1693 1193 1693 1222V1294Q1693 1329 1703.5 1354.0Q1714 1379 1730.0 1399.5Q1746 1420 1765.0 1437.5Q1784 1455 1800.0 1475.5Q1816 1496 1826.5 1521.0Q1837 1546 1837 1581V1653Q1837 1683 1858.0 1704.0Q1879 1725 1909 1725Q1939 1725 1960.0 1704.0Q1981 1683 1981 1653Q1981 1624 2002.5 1602.5Q2024 1581 2053 1581H2197Q2226 1581 2247.0 1560.0Q2268 1539 2268 1510ZM975 72Q975 42 954.0 21.0Q933 0 903 0Q873 0 852.0 -21.0Q831 -42 831 -72Q831 -101 809.5 -122.5Q788 -144 759 -144Q730 -144 708.5 -122.5Q687 -101 687 -72V0Q687 30 698.0 56.0Q709 82 728.5 101.5Q748 121 774.5 132.5Q801 144 831 144H903Q933 144 954.0 123.0Q975 102 975 72ZM615 -72Q615 -96 605.5 -112.5Q596 -129 579 -144Q562 -159 552.5 -175.0Q543 -191 543 -215Q543 -244 522.0 -265.5Q501 -287 472 -287Q442 -287 421.0 -266.0Q400 -245 400 -215V-72Q400 -42 421.0 -21.0Q442 0 472 0H543Q573 0 594.0 -21.0Q615 -42 615 -72Z" style="fill:#16c60c;stroke:none" transform="scale(1,-1) translate(0,-256)" /></svg>