<?xml version="1.0" encoding="utf-8" ?>
<svg baseProfile="full" height="256" version="1.1" width="256" xmlns="http://www.w3.org/2000/svg" xmlns:ev="http://www.w3.org/2001/xml-events" xmlns:xlink="http://www.w3.org/1999/xlink"><defs /><path d="M1478 1581Q1478 1611 1499.0 1632.0Q1520 1653 1550 1653Q1579 1653 1600.5 1631.5Q1622 1610 1622 1581V1461Q1622 1449 1623.5 1437.5Q1625 1426 1627 1415L1815 568Q1825 521 1849.0 490.0Q1873 459 1905.0 436.5Q1937 414 1975.0 396.5Q2013 379 2053 360L1658 -36L1478 144ZM1334 144 1154 -36 759 360Q799 379 837.0 396.5Q875 414 907.0 436.5Q939 459 962.5 490.0Q986 521 997 568L1185 1415Q1187 1426 1188.5 1437.5Q1190 1449 1190 1461V1581Q1190 1610 1211.5 1631.5Q1233 1653 1262 1653Q1292 1653 1313.0 1632.0Q1334 1611 1334 1581Z" style="fill:#ffc83d;stroke:none" transform="scale(1,-1) translate(0,-256)" /></svg>