<?xml version="1.0" encoding="utf-8" ?>
<svg baseProfile="full" height="256" version="1.1" width="256" xmlns="http://www.w3.org/2000/svg" xmlns:ev="http://www.w3.org/2001/xml-events" xmlns:xlink="http://www.w3.org/1999/xlink"><defs /><path d="M1850 -431 1418 0H1394L962 -431H256V269L819 550Q833 557 843.0 570.5Q853 584 857 599L1045 1446Q1047 1457 1048.0 1470.0Q1049 1483 1049 1498Q1049 1520 1048.0 1542.0Q1047 1564 1047 1581Q1047 1626 1064.0 1665.0Q1081 1704 1110.0 1733.5Q1139 1763 1178.0 1780.0Q1217 1797 1262 1797Q1302 1797 1339.5 1782.5Q1377 1768 1406 1742Q1435 1768 1472.5 1782.5Q1510 1797 1550 1797Q1595 1797 1634.0 1780.0Q1673 1763 1702.0 1733.5Q1731 1704 1748.0 1665.0Q1765 1626 1765 1581Q1765 1564 1764.0 1542.0Q1763 1520 1763 1498Q1763 1483 1764.0 1470.0Q1765 1457 1767 1446L1955 599Q1959 584 1969.0 570.5Q1979 557 1993 550L2556 269V-431Z" style="fill:#000000;stroke:none" transform="scale(1,-1) translate(0,-256)" /></svg>