<?xml version="1.0" encoding="utf-8" ?>
<svg baseProfile="full" height="256" version="1.1" width="256" xmlns="http://www.w3.org/2000/svg" xmlns:ev="http://www.w3.org/2001/xml-events" xmlns:xlink="http://www.w3.org/1999/xlink"><defs /><path d="M1981 503Q2011 503 2037.0 492.0Q2063 481 2082.5 461.5Q2102 442 2113.5 416.0Q2125 390 2125 360V288Q2125 281 2121.0 271.0Q2117 261 2115 253Q2122 238 2124.0 221.5Q2126 205 2126 188Q2126 177 2125.5 166.0Q2125 155 2125 144Q2125 114 2113.5 88.0Q2102 62 2082.5 42.5Q2063 23 2037.0 11.5Q2011 0 1981 0L1971 -35Q1978 -50 1980.0 -66.5Q1982 -83 1982 -100Q1982 -111 1981.5 -122.0Q1981 -133 1981 -144Q1981 -174 1969.5 -200.0Q1958 -226 1938.5 -245.5Q1919 -265 1893.0 -276.0Q1867 -287 1837 -287H400V503H795L1262 1126V1366Q1262 1396 1273.5 1422.0Q1285 1448 1304.5 1467.5Q1324 1487 1350.0 1498.5Q1376 1510 1406 1510Q1436 1510 1462.0 1498.5Q1488 1487 1507.5 1467.5Q1527 1448 1538.5 1422.0Q1550 1396 1550 1366V1006Q1550 970 1535.5 943.0Q1521 916 1501.5 892.0Q1482 868 1462.0 844.5Q1442 821 1432 791H1837Q1867 791 1893.0 779.5Q1919 768 1938.5 748.5Q1958 729 1969.5 703.0Q1981 677 1981 647V574Q1981 572 1979.5 567.0Q1978 562 1976.0 556.5Q1974 551 1972.5 546.0Q1971 541 1971 538Q1971 538 1971.0 537.0Q1971 536 1972.0 533.0Q1973 530 1975.0 523.0Q1977 516 1981 503Z" style="fill:#ffc83d;stroke:none" transform="scale(1,-1) translate(0,-256)" /></svg>