<?xml version="1.0" encoding="utf-8" ?>
<svg baseProfile="full" height="256" version="1.1" width="256" xmlns="http://www.w3.org/2000/svg" xmlns:ev="http://www.w3.org/2001/xml-events" xmlns:xlink="http://www.w3.org/1999/xlink"><defs /><path d="M1334 503V288H2125V216H1334V0H1981V-72H1334V-144Q1334 -173 1344.5 -198.5Q1355 -224 1374.0 -243.5Q1393 -263 1418.0 -274.5Q1443 -286 1472 -287H1318Q1292 -258 1277.0 -221.0Q1262 -184 1262 -144V647Q1262 693 1279.0 732.5Q1296 772 1326.0 801.0Q1356 830 1396.0 846.5Q1436 863 1481 863L1432 791Q1396 784 1376.0 763.5Q1356 743 1346.5 715.0Q1337 687 1335.5 655.0Q1334 623 1334 593V575H1981V503Z" style="fill:#d48c00;stroke:none" transform="scale(1,-1) translate(0,-256)" /></svg>