<?xml version="1.0" encoding="utf-8" ?>
<svg baseProfile="full" height="256" version="1.1" width="256" xmlns="http://www.w3.org/2000/svg" xmlns:ev="http://www.w3.org/2001/xml-events" xmlns:xlink="http://www.w3.org/1999/xlink"><defs /><path d="M256 -431V647H723L1118 1174V1366Q1118 1426 1140.5 1478.0Q1163 1530 1202.0 1569.0Q1241 1608 1293.5 1630.5Q1346 1653 1406 1653Q1465 1653 1517.5 1630.5Q1570 1608 1609.0 1569.0Q1648 1530 1670.5 1477.5Q1693 1425 1693 1366V1006Q1693 969 1684 935H1837Q1897 935 1949.5 912.5Q2002 890 2041.0 851.0Q2080 812 2102.5 759.5Q2125 707 2125 647V608Q2159 589 2185.5 562.5Q2212 536 2230.5 503.5Q2249 471 2258.5 435.0Q2268 399 2268 360V144Q2268 66 2230.0 0.0Q2192 -66 2125 -105V-144Q2125 -204 2102.5 -256.0Q2080 -308 2041.0 -347.0Q2002 -386 1949.5 -408.5Q1897 -431 1837 -431Z" style="fill:#000000;stroke:none" transform="scale(1,-1) translate(0,-256)" /></svg>