<?xml version="1.0" encoding="utf-8" ?>
<svg baseProfile="full" height="256" version="1.1" width="256" xmlns="http://www.w3.org/2000/svg" xmlns:ev="http://www.w3.org/2001/xml-events" xmlns:xlink="http://www.w3.org/1999/xlink"><defs /><path d="M1622 431Q1622 372 1599.0 319.5Q1576 267 1537.0 228.0Q1498 189 1445.5 166.5Q1393 144 1334 144Q1275 144 1222.5 166.5Q1170 189 1131.0 228.0Q1092 267 1069.5 319.5Q1047 372 1047 431Q1047 491 1069.5 543.5Q1092 596 1131.0 635.0Q1170 674 1222.0 696.5Q1274 719 1334 719Q1394 719 1446.5 696.5Q1499 674 1538.0 635.0Q1577 596 1599.5 543.5Q1622 491 1622 431Z" style="fill:#69797e;stroke:none" transform="scale(1,-1) translate(0,-256)" /></svg>