<?xml version="1.0" encoding="utf-8" ?>
<svg baseProfile="full" height="256" version="1.1" width="256" xmlns="http://www.w3.org/2000/svg" xmlns:ev="http://www.w3.org/2001/xml-events" xmlns:xlink="http://www.w3.org/1999/xlink"><defs /><path d="M1442 1294Q1457 1294 1467.5 1283.5Q1478 1273 1478 1258V1186Q1478 1171 1467.5 1160.5Q1457 1150 1442 1150Q1427 1150 1416.5 1160.5Q1406 1171 1406 1186V1258Q1406 1273 1416.5 1283.5Q1427 1294 1442 1294ZM1226 1294Q1241 1294 1251.5 1283.5Q1262 1273 1262 1258V1186Q1262 1171 1251.5 1160.5Q1241 1150 1226 1150Q1211 1150 1200.5 1160.5Q1190 1171 1190 1186V1258Q1190 1272 1201.0 1283.0Q1212 1294 1226 1294Z" style="fill:#000000;stroke:none" transform="scale(1,-1) translate(0,-256)" /></svg>