<?xml version="1.0" encoding="utf-8" ?>
<svg baseProfile="full" height="256" version="1.1" width="256" xmlns="http://www.w3.org/2000/svg" xmlns:ev="http://www.w3.org/2001/xml-events" xmlns:xlink="http://www.w3.org/1999/xlink"><defs /><path d="M400 144V575Q400 598 420 607Q430 612 460.5 627.5Q491 643 531.0 663.5Q571 684 615.0 706.5Q659 729 697.5 748.0Q736 767 763.0 779.0Q790 791 795 791H1154V719H804L472 553V216Q472 187 450.5 165.5Q429 144 400 144ZM2268 144Q2239 144 2218.0 165.5Q2197 187 2197 216V553L1865 719H1514V791H1873Q1878 791 1905.0 779.0Q1932 767 1970.5 748.0Q2009 729 2053.5 706.5Q2098 684 2138.0 663.5Q2178 643 2208.5 627.5Q2239 612 2249 607Q2268 597 2268 575ZM615 -215V324Q615 338 626 349L913 637Q916 640 932.5 646.5Q949 653 972.0 661.0Q995 669 1022.0 678.0Q1049 687 1073.5 695.0Q1098 703 1117.0 709.0Q1136 715 1143 717L1166 649L958 580L687 309V-144Q687 -173 665.5 -194.0Q644 -215 615 -215ZM2053 -215Q2024 -215 2002.5 -194.0Q1981 -173 1981 -144V309L1710 580L1502 649L1525 717Q1532 715 1551.0 709.0Q1570 703 1594.5 695.0Q1619 687 1646.0 678.0Q1673 669 1696.0 661.0Q1719 653 1735.5 646.5Q1752 640 1755 637L2042 349Q2053 338 2053 324ZM1514 863V935H1858L2057 1134L2104 1273Q2112 1296 2130.5 1309.0Q2149 1322 2173 1322Q2184 1322 2195 1319Q2192 1310 2186.0 1291.0Q2180 1272 2172.5 1248.0Q2165 1224 2156.5 1197.5Q2148 1171 2140.0 1148.5Q2132 1126 2125.0 1109.5Q2118 1093 2114 1089L1899 873Q1889 863 1873 863ZM1154 863H795Q780 863 770 873L554 1089Q550 1093 543.0 1109.5Q536 1126 528.0 1148.5Q520 1171 511.5 1197.5Q503 1224 495.5 1248.0Q488 1272 482.0 1291.0Q476 1310 473 1319Q483 1322 495 1322Q519 1322 537.5 1309.0Q556 1296 564 1273L611 1134L810 935H1154ZM1215 936 999 1008Q985 1013 978 1026Q973 1035 960.5 1059.5Q948 1084 932.0 1116.0Q916 1148 898.0 1183.5Q880 1219 865.0 1249.5Q850 1280 840.5 1302.0Q831 1324 831 1330V1653Q861 1653 882.0 1632.0Q903 1611 903 1581V1338L1036 1072L1238 1005ZM1453 936 1431 1005 1632 1072 1765 1338V1581Q1765 1611 1786.0 1632.0Q1807 1653 1837 1653V1330Q1837 1324 1827.5 1302.0Q1818 1280 1803.0 1249.5Q1788 1219 1770.0 1183.5Q1752 1148 1736.0 1116.0Q1720 1084 1707.0 1059.5Q1694 1035 1690 1026Q1683 1013 1669 1008Z" style="fill:#69797e;stroke:none" transform="scale(1,-1) translate(0,-256)" /></svg>