<?xml version="1.0" encoding="utf-8" ?>
<svg baseProfile="full" height="256" version="1.1" width="256" xmlns="http://www.w3.org/2000/svg" xmlns:ev="http://www.w3.org/2001/xml-events" xmlns:xlink="http://www.w3.org/1999/xlink"><defs /><path d="M1765 431V216Q1765 127 1731.0 48.5Q1697 -30 1638.5 -88.5Q1580 -147 1501.5 -181.0Q1423 -215 1334 -215Q1245 -215 1166.5 -181.0Q1088 -147 1029.5 -88.5Q971 -30 937.0 48.5Q903 127 903 216V431Q903 524 940.5 607.5Q978 691 1047 753Q1047 787 1049.5 816.5Q1052 846 1059.5 874.0Q1067 902 1081.0 928.0Q1095 954 1118 981V1150Q1118 1195 1135.0 1234.0Q1152 1273 1181.5 1302.5Q1211 1332 1250.0 1349.0Q1289 1366 1334 1366Q1379 1366 1418.0 1349.0Q1457 1332 1486.5 1302.5Q1516 1273 1533.0 1234.0Q1550 1195 1550 1150V981Q1573 954 1587.5 928.0Q1602 902 1609.5 874.5Q1617 847 1619.5 817.0Q1622 787 1622 753Q1691 691 1728.0 607.5Q1765 524 1765 431Z" style="fill:#4a5459;stroke:none" transform="scale(1,-1) translate(0,-256)" /></svg>