<?xml version="1.0" encoding="utf-8" ?>
<svg baseProfile="full" height="256" version="1.1" width="256" xmlns="http://www.w3.org/2000/svg" xmlns:ev="http://www.w3.org/2001/xml-events" xmlns:xlink="http://www.w3.org/1999/xlink"><defs /><path d="M2053 -359Q2009 -359 1969.5 -342.0Q1930 -325 1900.5 -296.0Q1871 -267 1854.0 -227.5Q1837 -188 1837 -144V-62Q1799 -131 1745.0 -186.0Q1691 -241 1626.0 -279.5Q1561 -318 1486.5 -338.5Q1412 -359 1334 -359Q1256 -359 1181.5 -338.5Q1107 -318 1042.0 -279.5Q977 -241 923.0 -186.0Q869 -131 831 -62V-144Q831 -188 814.0 -227.5Q797 -267 767.5 -296.0Q738 -325 698.5 -342.0Q659 -359 615 -359H472V12Q444 4 414.5 1.0Q385 -2 356 -2Q330 -2 305.5 -1.0Q281 0 256 0V575Q256 626 282.5 669.5Q309 713 355 736L587 852L452 987Q438 1001 426.5 1019.5Q415 1038 409 1057L292 1409Q314 1416 340.0 1426.0Q366 1436 392.5 1445.0Q419 1454 445.5 1460.0Q472 1466 496 1466Q556 1466 607.5 1435.0Q659 1404 687 1350V1797H831Q875 1797 914.5 1780.0Q954 1763 983.5 1733.5Q1013 1704 1030.0 1665.0Q1047 1626 1047 1582V1556Q1075 1589 1106.0 1608.5Q1137 1628 1169.5 1638.0Q1202 1648 1237.0 1651.0Q1272 1654 1309 1654Q1332 1654 1356.5 1653.5Q1381 1653 1406 1653Q1469 1653 1524.5 1628.0Q1580 1603 1622 1556V1582Q1622 1626 1639.0 1665.0Q1656 1704 1685.0 1733.5Q1714 1763 1753.5 1780.0Q1793 1797 1837 1797H1981V1350Q2010 1404 2060.5 1435.0Q2111 1466 2172 1466Q2196 1466 2222.5 1460.0Q2249 1454 2276.0 1445.0Q2303 1436 2328.5 1426.0Q2354 1416 2377 1409L2259 1057Q2253 1038 2241.5 1019.5Q2230 1001 2216 987L2081 852L2313 736Q2359 713 2385.5 669.5Q2412 626 2412 575V0H2268Q2250 0 2232.0 3.5Q2214 7 2197 12V-359Z" style="fill:#000000;stroke:none" transform="scale(1,-1) translate(0,-256)" /></svg>