<?xml version="1.0" encoding="utf-8" ?>
<svg baseProfile="full" height="256" version="1.1" width="256" xmlns="http://www.w3.org/2000/svg" xmlns:ev="http://www.w3.org/2001/xml-events" xmlns:xlink="http://www.w3.org/1999/xlink"><defs /><path d="M1334 647V108Q1334 85 1325.5 65.5Q1317 46 1302.5 31.5Q1288 17 1268.0 8.5Q1248 0 1226 0H795Q772 0 752.5 8.5Q733 17 718.5 31.5Q704 46 695.5 65.5Q687 85 687 108Q687 130 695.5 150.0Q704 170 718.5 184.5Q733 199 752.5 207.5Q772 216 795 216H1118V647ZM1118 1498V1025Q1092 1016 1065.0 1011.0Q1038 1006 1011 1006Q944 1006 885.0 1031.5Q826 1057 782.0 1101.0Q738 1145 712.5 1204.0Q687 1263 687 1330V1366H975Q1004 1366 1029.0 1376.0Q1054 1386 1072.5 1404.0Q1091 1422 1103.0 1446.0Q1115 1470 1118 1498ZM436 0Q421 0 410.5 10.5Q400 21 400 36V180Q400 195 410.5 205.5Q421 216 436 216Q458 216 478.0 207.5Q498 199 512.0 184.0Q526 169 534.5 149.5Q543 130 543 108Q543 86 534.5 66.5Q526 47 512.0 32.0Q498 17 478.0 8.5Q458 0 436 0Z" style="fill:#ffc83d;stroke:none" transform="scale(1,-1) translate(0,-256)" /></svg>