<?xml version="1.0" encoding="utf-8" ?>
<svg baseProfile="full" height="256" version="1.1" width="256" xmlns="http://www.w3.org/2000/svg" xmlns:ev="http://www.w3.org/2001/xml-events" xmlns:xlink="http://www.w3.org/1999/xlink"><defs /><path d="M759 -431Q687 -431 620.5 -408.0Q554 -385 499.5 -344.0Q445 -303 404.5 -245.5Q364 -188 344 -119Q315 -102 297.5 -80.5Q280 -59 270.5 -34.0Q261 -9 257.5 19.5Q254 48 254 79V126Q254 157 256.5 187.0Q259 217 268.5 244.0Q278 271 296.0 294.0Q314 317 346 335Q375 436 446.0 511.0Q517 586 615 622V645Q615 694 617.5 736.5Q620 779 629.5 818.0Q639 857 659.5 893.5Q680 930 716 968Q668 1008 634.5 1052.0Q601 1096 581.0 1145.5Q561 1195 552.0 1249.5Q543 1304 543 1366Q543 1470 583.0 1561.5Q623 1653 691.5 1721.5Q760 1790 851.5 1829.5Q943 1869 1047 1869Q1151 1869 1242.5 1829.5Q1334 1790 1402.0 1721.5Q1470 1653 1509.5 1561.5Q1549 1470 1549 1366V-431Z" style="fill:#000000;stroke:none" transform="scale(1,-1) translate(0,-256)" /></svg>