<?xml version="1.0" encoding="utf-8" ?>
<svg baseProfile="full" height="256" version="1.1" width="256" xmlns="http://www.w3.org/2000/svg" xmlns:ev="http://www.w3.org/2001/xml-events" xmlns:xlink="http://www.w3.org/1999/xlink"><defs /><path d="M759 -287Q699 -287 647.0 -264.5Q595 -242 556.0 -203.0Q517 -164 494.5 -112.0Q472 -60 472 0V216Q472 276 494.5 328.0Q517 380 556.0 419.0Q595 458 647.0 480.5Q699 503 759 503V719Q759 764 776.0 803.0Q793 842 822.5 871.5Q852 901 891.0 918.0Q930 935 975 935H1190Q1235 935 1274.0 918.0Q1313 901 1342.5 871.5Q1372 842 1389.0 803.0Q1406 764 1406 719V-287Z" style="fill:#f03a17;stroke:none" transform="scale(1,-1) translate(0,-256)" /></svg>