<?xml version="1.0" encoding="utf-8" ?>
<svg baseProfile="full" height="256" version="1.1" width="256" xmlns="http://www.w3.org/2000/svg" xmlns:ev="http://www.w3.org/2001/xml-events" xmlns:xlink="http://www.w3.org/1999/xlink"><defs /><path d="M2161 144Q2183 144 2203.0 135.5Q2223 127 2237.0 112.0Q2251 97 2259.5 77.5Q2268 58 2268 36Q2268 14 2259.5 -5.5Q2251 -25 2236.5 -40.0Q2222 -55 2202.5 -63.5Q2183 -72 2161 -72H651Q629 -72 609.5 -63.5Q590 -55 575.0 -40.0Q560 -25 551.5 -5.5Q543 14 543 36Q543 58 551.5 77.5Q560 97 575.0 112.0Q590 127 609.5 135.5Q629 144 651 144ZM2268 1294H2412V1006H2268V1150H2166V1222H2268ZM543 1150V1006H400V1294H543V1222H645V1150Z" style="fill:#cccccc;stroke:none" transform="scale(1,-1) translate(0,-256)" /></svg>