<?xml version="1.0" encoding="utf-8" ?>
<svg baseProfile="full" height="256" version="1.1" width="256" xmlns="http://www.w3.org/2000/svg" xmlns:ev="http://www.w3.org/2001/xml-events" xmlns:xlink="http://www.w3.org/1999/xlink"><defs /><path d="M867 431Q889 431 908.5 422.5Q928 414 943.0 399.5Q958 385 966.5 365.5Q975 346 975 324Q975 302 966.5 282.5Q958 263 943.0 248.0Q928 233 908.5 224.5Q889 216 867 216Q844 216 824.5 224.5Q805 233 790.5 247.5Q776 262 767.5 281.5Q759 301 759 324Q759 346 767.5 366.0Q776 386 791.0 400.0Q806 414 825.5 422.5Q845 431 867 431ZM1945 431Q1967 431 1986.5 422.5Q2006 414 2021.0 400.0Q2036 386 2044.5 366.0Q2053 346 2053 324Q2053 301 2044.5 281.5Q2036 262 2021.5 247.5Q2007 233 1987.0 224.5Q1967 216 1945 216Q1922 216 1902.5 224.5Q1883 233 1868.5 247.5Q1854 262 1845.5 281.5Q1837 301 1837 324Q1837 346 1845.5 366.0Q1854 386 1869.0 400.0Q1884 414 1903.5 422.5Q1923 431 1945 431Z" style="fill:#f8ffb3;stroke:none" transform="scale(1,-1) translate(0,-256)" /></svg>