<?xml version="1.0" encoding="utf-8" ?>
<svg baseProfile="full" height="256" version="1.1" width="256" xmlns="http://www.w3.org/2000/svg" xmlns:ev="http://www.w3.org/2001/xml-events" xmlns:xlink="http://www.w3.org/1999/xlink"><defs /><path d="M2340 1438H2556V863H2340V212Q2375 177 2393.5 131.0Q2412 85 2412 36Q2412 -14 2393.5 -59.5Q2375 -105 2340 -140V-431H1765V-215H1047V-431H472V-140Q437 -105 418.5 -59.5Q400 -14 400 36Q400 85 418.5 131.0Q437 177 472 212V863H256V1438H472V1581Q472 1639 495.0 1691.5Q518 1744 557.0 1783.5Q596 1823 648.0 1846.0Q700 1869 759 1869H2053Q2111 1869 2163.5 1846.0Q2216 1823 2255.0 1783.5Q2294 1744 2317.0 1691.5Q2340 1639 2340 1581Z" style="fill:#000000;stroke:none" transform="scale(1,-1) translate(0,-256)" /></svg>