<?xml version="1.0" encoding="utf-8" ?>
<svg baseProfile="full" height="256" version="1.1" width="256" xmlns="http://www.w3.org/2000/svg" xmlns:ev="http://www.w3.org/2001/xml-events" xmlns:xlink="http://www.w3.org/1999/xlink"><defs /><path d="M1118 35Q1082 55 1046.0 70.5Q1010 86 975 109Q965 104 950.5 97.0Q936 90 925 90Q907 90 891.5 108.5Q876 127 863.0 151.5Q850 176 842.0 201.0Q834 226 831 240Q761 327 724.0 431.0Q687 535 687 647V740L646 756L687 842V1294Q699 1269 711.0 1243.5Q723 1218 738.5 1197.0Q754 1176 776.0 1163.0Q798 1150 831 1150Q864 1150 885.5 1163.0Q907 1176 923.0 1197.0Q939 1218 951.0 1243.5Q963 1269 975 1294V1006Q975 978 980.5 949.0Q986 920 997 894Q1014 854 1041.5 822.0Q1069 790 1103.5 767.0Q1138 744 1178.5 731.5Q1219 719 1262 719Q1298 719 1333.5 712.0Q1369 705 1402 691Q1452 670 1492.5 636.0Q1533 602 1562.0 559.0Q1591 516 1606.5 465.5Q1622 415 1622 360V252ZM472 1689V1725L609 1649L687 1510L654 1490Q643 1492 634.5 1500.5Q626 1509 615 1513Q603 1517 592.0 1520.0Q581 1523 570 1529Q525 1552 498.5 1595.0Q472 1638 472 1689ZM1190 1689Q1190 1638 1163.5 1595.0Q1137 1552 1092 1529Q1081 1523 1070.0 1520.0Q1059 1517 1047 1513Q1036 1509 1027.0 1500.5Q1018 1492 1007 1490L975 1510L1055 1641L1190 1725Z" style="fill:#eba300;stroke:none" transform="scale(1,-1) translate(0,-256)" /></svg>