<?xml version="1.0" encoding="utf-8" ?>
<svg baseProfile="full" height="256" version="1.1" width="256" xmlns="http://www.w3.org/2000/svg" xmlns:ev="http://www.w3.org/2001/xml-events" xmlns:xlink="http://www.w3.org/1999/xlink"><defs /><path d="M831 -215V-287H687Q687 -258 708.5 -236.5Q730 -215 759 -215ZM543 -215V-287H400Q400 -258 421.5 -236.5Q443 -215 472 -215ZM579 431Q593 431 604.0 420.5Q615 410 615 396V288Q586 288 564.5 309.5Q543 331 543 360V396Q543 410 554.0 420.5Q565 431 579 431ZM508 647Q522 647 532.5 636.0Q543 625 543 611V503Q514 503 493.0 524.5Q472 546 472 575V611Q472 626 482.5 636.5Q493 647 508 647ZM903 1253Q903 1244 898.0 1232.0Q893 1220 884.5 1210.0Q876 1200 865.5 1193.0Q855 1186 845 1186H817Q805 1186 794.5 1193.5Q784 1201 776.0 1211.5Q768 1222 763.5 1234.5Q759 1247 759 1258H902Q902 1256 902.5 1255.5Q903 1255 903 1253Z" style="fill:#8e562e;stroke:none" transform="scale(1,-1) translate(0,-256)" /></svg>