<?xml version="1.0" encoding="utf-8" ?>
<svg baseProfile="full" height="256" version="1.1" width="256" xmlns="http://www.w3.org/2000/svg" xmlns:ev="http://www.w3.org/2001/xml-events" xmlns:xlink="http://www.w3.org/1999/xlink"><defs /><path d="M1658 -431Q1580 -431 1508.5 -402.0Q1437 -373 1380 -318Q1351 -370 1300.5 -400.5Q1250 -431 1190 -431H256V-287Q256 -242 273.0 -203.0Q290 -164 319.5 -135.0Q349 -106 388.0 -89.0Q427 -72 472 -72H687V144H615Q570 144 531.0 161.0Q492 178 463.0 207.5Q434 237 417.0 276.0Q400 315 400 360Q400 368 399.5 375.5Q399 383 399 391Q399 397 399.5 403.0Q400 409 401 414Q377 435 362.5 457.0Q348 479 340.5 503.0Q333 527 330.5 554.0Q328 581 328 611Q328 648 341.5 680.0Q355 712 381 738L543 901V1224Q517 1274 499.5 1318.0Q482 1362 475 1418Q425 1451 395.5 1489.5Q366 1528 351.0 1570.5Q336 1613 331.5 1659.5Q327 1706 327 1756Q327 1783 327.5 1811.5Q328 1840 328 1869H508Q589 1869 660.0 1831.0Q731 1793 776 1725H886Q918 1774 955.5 1803.0Q993 1832 1035.0 1847.0Q1077 1862 1123.0 1866.0Q1169 1870 1218 1870Q1246 1870 1275.0 1869.5Q1304 1869 1334 1869V1689Q1334 1607 1294.5 1535.0Q1255 1463 1187 1418Q1180 1362 1162.0 1317.5Q1144 1273 1118 1224V1006Q1118 962 1143.0 926.0Q1168 890 1208 873Q1232 863 1262 863Q1337 863 1408.0 841.5Q1479 820 1539.5 780.0Q1600 740 1647.5 683.5Q1695 627 1725 557Q1765 462 1765 360V0Q1765 -29 1786.5 -50.5Q1808 -72 1837 -72H2376Q2413 -72 2446.0 -86.0Q2479 -100 2503.5 -124.5Q2528 -149 2542.0 -181.5Q2556 -214 2556 -251Q2556 -288 2542.0 -321.0Q2528 -354 2503.5 -378.5Q2479 -403 2446.0 -417.0Q2413 -431 2376 -431Z" style="fill:#000000;stroke:none" transform="scale(1,-1) translate(0,-256)" /></svg>