<?xml version="1.0" encoding="utf-8" ?>
<svg baseProfile="full" height="256" version="1.1" width="256" xmlns="http://www.w3.org/2000/svg" xmlns:ev="http://www.w3.org/2001/xml-events" xmlns:xlink="http://www.w3.org/1999/xlink"><defs /><path d="M1334 503H1370Q1422 503 1468.0 483.5Q1514 464 1548.0 430.0Q1582 396 1602.0 350.0Q1622 304 1622 252V0Q1622 -45 1639.0 -84.0Q1656 -123 1685.0 -152.0Q1714 -181 1753.0 -198.0Q1792 -215 1837 -215H2376Q2391 -215 2401.5 -225.5Q2412 -236 2412 -251Q2412 -266 2401.5 -276.5Q2391 -287 2376 -287H1658Q1607 -287 1561.5 -268.0Q1516 -249 1479 -214Q1428 -165 1375.0 -122.5Q1322 -80 1262 -43V-215Q1262 -245 1241.0 -266.0Q1220 -287 1190 -287H831L790 -251L831 -215H1118V288Q1118 333 1135.0 372.0Q1152 411 1181.5 440.0Q1211 469 1250.0 486.0Q1289 503 1334 503ZM615 381 554 421 759 626V899Q759 928 780.5 949.5Q802 971 831 971Q860 971 881.5 949.5Q903 928 903 899V683Q903 669 892 658ZM975 1581V1510L903 1402V1258L831 1222L759 1258V1402L687 1510V1581Z" style="fill:#ffb900;stroke:none" transform="scale(1,-1) translate(0,-256)" /></svg>