<?xml version="1.0" encoding="utf-8" ?>
<svg baseProfile="full" height="256" version="1.1" width="256" xmlns="http://www.w3.org/2000/svg" xmlns:ev="http://www.w3.org/2001/xml-events" xmlns:xlink="http://www.w3.org/1999/xlink"><defs /><path d="M975 1510H1011Q1029 1510 1047 1513V1470Q1047 1402 1016 1340L935 1178Q921 1149 892.0 1131.5Q863 1114 831 1114Q799 1114 770.0 1131.5Q741 1149 727 1178L646 1340Q635 1362 628.5 1383.0Q622 1404 619.0 1424.5Q616 1445 615.5 1466.5Q615 1488 615 1513Q627 1511 639.0 1510.5Q651 1510 663 1510H687L472 1725H508Q540 1725 569.0 1714.0Q598 1703 621.5 1684.0Q645 1665 661.5 1638.5Q678 1612 684 1581L831 1479L975 1581Q982 1612 999.0 1638.5Q1016 1665 1040.0 1684.0Q1064 1703 1093.0 1714.0Q1122 1725 1154 1725H1190ZM975 109V-215Q961 -219 937.5 -226.0Q914 -233 885.5 -241.0Q857 -249 827.0 -257.0Q797 -265 769.5 -272.0Q742 -279 720.0 -283.0Q698 -287 687 -287H543L497 -251L543 -215H831V240Q861 201 897.5 168.5Q934 136 975 109ZM687 842V740L543 596L482 637Z" style="fill:#d48c00;stroke:none" transform="scale(1,-1) translate(0,-256)" /></svg>