<?xml version="1.0" encoding="utf-8" ?>
<svg baseProfile="full" height="256" version="1.1" width="256" xmlns="http://www.w3.org/2000/svg" xmlns:ev="http://www.w3.org/2001/xml-events" xmlns:xlink="http://www.w3.org/1999/xlink"><defs /><path d="M687 1402V1474Q687 1488 698.0 1499.0Q709 1510 723 1510Q737 1510 748.0 1499.0Q759 1488 759 1474V1402Q759 1387 748.5 1376.5Q738 1366 723 1366Q708 1366 697.5 1376.5Q687 1387 687 1402ZM903 1402V1474Q903 1488 914.0 1499.0Q925 1510 939 1510Q953 1510 964.0 1499.0Q975 1488 975 1474V1402Q975 1387 964.5 1376.5Q954 1366 939 1366Q924 1366 913.5 1376.5Q903 1387 903 1402Z" style="fill:#000000;stroke:none" transform="scale(1,-1) translate(0,-256)" /></svg>