<?xml version="1.0" encoding="utf-8" ?>
<svg baseProfile="full" height="256" version="1.1" width="256" xmlns="http://www.w3.org/2000/svg" xmlns:ev="http://www.w3.org/2001/xml-events" xmlns:xlink="http://www.w3.org/1999/xlink"><defs /><path d="M2195 935H2374Q2388 935 2399.0 924.0Q2410 913 2410 899Q2410 884 2401 875L1622 72Q1603 52 1589.5 29.5Q1576 7 1559 -15L1622 -72V-287H1190V-72L1267 -12Q1247 8 1228.5 30.0Q1210 52 1190 72L407 875Q398 884 398 899Q398 913 409.0 924.0Q420 935 434 935H613L1404 503Z" style="fill:#13a10e;stroke:none" transform="scale(1,-1) translate(0,-256)" /></svg>