<?xml version="1.0" encoding="utf-8" ?>
<svg baseProfile="full" height="256" version="1.1" width="256" xmlns="http://www.w3.org/2000/svg" xmlns:ev="http://www.w3.org/2001/xml-events" xmlns:xlink="http://www.w3.org/1999/xlink"><defs /><path d="M1981 791Q2011 791 2032.0 812.0Q2053 833 2053 863V1006Q2053 1051 2070.0 1090.0Q2087 1129 2116.0 1158.5Q2145 1188 2184.0 1205.0Q2223 1222 2268 1222V930Q2268 871 2245.0 819.5Q2222 768 2183.0 729.5Q2144 691 2091.5 669.0Q2039 647 1981 647Q1922 647 1869.5 669.0Q1817 691 1778.0 729.0Q1739 767 1716.0 819.0Q1693 871 1693 930V1222Q1738 1222 1777.0 1205.0Q1816 1188 1845.5 1158.5Q1875 1129 1892.0 1090.0Q1909 1051 1909 1006V863Q1909 833 1930.0 812.0Q1951 791 1981 791ZM831 791Q861 791 882.0 812.0Q903 833 903 863V1006Q903 1051 920.0 1090.0Q937 1129 966.0 1158.5Q995 1188 1034.0 1205.0Q1073 1222 1118 1222V930Q1118 871 1095.0 819.5Q1072 768 1033.0 729.5Q994 691 941.5 669.0Q889 647 831 647Q772 647 719.5 669.0Q667 691 628.0 729.0Q589 767 566.0 819.0Q543 871 543 930V1222Q588 1222 627.0 1205.0Q666 1188 695.5 1158.5Q725 1129 742.0 1090.0Q759 1051 759 1006V863Q759 833 780.0 812.0Q801 791 831 791Z" style="fill:#fff100;stroke:none" transform="scale(1,-1) translate(0,-256)" /></svg>