<?xml version="1.0" encoding="utf-8" ?>
<svg baseProfile="full" height="256" version="1.1" width="256" xmlns="http://www.w3.org/2000/svg" xmlns:ev="http://www.w3.org/2001/xml-events" xmlns:xlink="http://www.w3.org/1999/xlink"><defs /><path d="M1981 1294Q2002 1294 2032.5 1275.0Q2063 1256 2093.0 1229.5Q2123 1203 2148.5 1175.5Q2174 1148 2186 1131Q2196 1117 2201.5 1100.5Q2207 1084 2207 1067Q2207 1033 2196.5 1001.0Q2186 969 2186 935H2197L2053 719H1909L1765 935H1775Q1775 969 1765.0 1000.5Q1755 1032 1755 1066Q1755 1084 1760.5 1100.0Q1766 1116 1776 1131Q1788 1148 1813.5 1175.5Q1839 1203 1869.0 1229.5Q1899 1256 1929.5 1275.0Q1960 1294 1981 1294ZM831 1294Q852 1294 882.0 1275.5Q912 1257 942.0 1231.5Q972 1206 997.0 1178.5Q1022 1151 1034 1134Q1045 1117 1050.0 1104.0Q1055 1091 1055 1071Q1055 1053 1051.5 1036.0Q1048 1019 1043.5 1002.5Q1039 986 1035.5 969.0Q1032 952 1032 935H1047L903 719H759L615 935H620Q620 967 612.0 997.5Q604 1028 604 1060Q604 1080 610.0 1098.0Q616 1116 627 1133Q638 1151 663.5 1178.0Q689 1205 719.0 1231.0Q749 1257 779.5 1275.5Q810 1294 831 1294Z" style="fill:#ffb900;stroke:none" transform="scale(1,-1) translate(0,-256)" /></svg>