<?xml version="1.0" encoding="utf-8" ?>
<svg baseProfile="full" height="256" version="1.1" width="256" xmlns="http://www.w3.org/2000/svg" xmlns:ev="http://www.w3.org/2001/xml-events" xmlns:xlink="http://www.w3.org/1999/xlink"><defs /><path d="M1334 1150 1191 1365Q1191 1397 1182.0 1426.5Q1173 1456 1173 1488Q1173 1506 1178.0 1521.0Q1183 1536 1193 1551Q1205 1570 1231.0 1599.5Q1257 1629 1288.5 1657.0Q1320 1685 1351.5 1705.0Q1383 1725 1406 1725Q1429 1725 1461.5 1704.0Q1494 1683 1526.0 1654.5Q1558 1626 1584.5 1595.0Q1611 1564 1623 1545Q1640 1517 1640 1488Q1640 1456 1630.0 1425.5Q1620 1395 1620 1363L1478 1150ZM1406 863Q1429 863 1460.5 843.0Q1492 823 1523.5 795.0Q1555 767 1581.0 737.5Q1607 708 1619 689Q1629 674 1634.0 658.5Q1639 643 1639 625Q1639 594 1630.5 564.0Q1622 534 1622 503L1478 288H1334L1191 507Q1191 536 1184.5 565.5Q1178 595 1178 624Q1178 646 1185.0 666.0Q1192 686 1204 704Q1215 721 1240.5 748.0Q1266 775 1296.0 800.5Q1326 826 1355.5 844.5Q1385 863 1406 863Z" style="fill:#ee3f86;stroke:none" transform="scale(1,-1) translate(0,-256)" /></svg>