<?xml version="1.0" encoding="utf-8" ?>
<svg baseProfile="full" height="256" version="1.1" width="256" xmlns="http://www.w3.org/2000/svg" xmlns:ev="http://www.w3.org/2001/xml-events" xmlns:xlink="http://www.w3.org/1999/xlink"><defs /><path d="M1406 1222Q1436 1222 1457.0 1243.0Q1478 1264 1478 1294V1438Q1478 1483 1495.0 1522.0Q1512 1561 1541.0 1590.0Q1570 1619 1609.0 1636.0Q1648 1653 1693 1653V1361Q1693 1302 1670.0 1250.5Q1647 1199 1608.0 1160.5Q1569 1122 1516.5 1100.0Q1464 1078 1406 1078Q1347 1078 1294.5 1100.0Q1242 1122 1203.0 1160.0Q1164 1198 1141.0 1250.0Q1118 1302 1118 1361V1653Q1163 1653 1202.0 1636.0Q1241 1619 1270.5 1590.0Q1300 1561 1317.0 1522.0Q1334 1483 1334 1438V1294Q1334 1264 1355.0 1243.0Q1376 1222 1406 1222ZM1406 360Q1435 360 1456.5 381.0Q1478 402 1478 431V575Q1478 620 1495.0 659.0Q1512 698 1541.0 727.5Q1570 757 1609.0 774.0Q1648 791 1693 791V499Q1693 440 1670.0 388.5Q1647 337 1608.0 298.5Q1569 260 1516.5 238.0Q1464 216 1406 216Q1347 216 1294.5 238.0Q1242 260 1203.0 298.0Q1164 336 1141.0 387.5Q1118 439 1118 499V791Q1163 791 1202.0 774.0Q1241 757 1270.5 727.5Q1300 698 1317.0 659.0Q1334 620 1334 575V431Q1334 402 1355.5 381.0Q1377 360 1406 360Z" style="fill:#f495bf;stroke:none" transform="scale(1,-1) translate(0,-256)" /></svg>