<?xml version="1.0" encoding="utf-8" ?>
<svg baseProfile="full" height="256" version="1.1" width="256" xmlns="http://www.w3.org/2000/svg" xmlns:ev="http://www.w3.org/2001/xml-events" xmlns:xlink="http://www.w3.org/1999/xlink"><defs /><path d="M2195 1474Q2195 1464 2182.5 1448.0Q2170 1432 2154.0 1415.0Q2138 1398 2121.5 1383.0Q2105 1368 2098 1360L1907 1164V503H901V1164L710 1360Q702 1368 686.0 1383.0Q670 1398 654.0 1415.0Q638 1432 625.5 1448.0Q613 1464 613 1474Q613 1485 622.5 1498.0Q632 1511 644 1511Q645 1511 646.5 1510.5Q648 1510 649 1510L1332 1294H1476Q1476 1294 1496.0 1300.5Q1516 1307 1540.5 1314.5Q1565 1322 1586.0 1329.0Q1607 1336 1610 1337Q1620 1340 1648.5 1349.5Q1677 1359 1717.0 1371.5Q1757 1384 1805.0 1399.5Q1853 1415 1901.5 1430.5Q1950 1446 1996.0 1460.5Q2042 1475 2078.5 1486.0Q2115 1497 2138.0 1504.0Q2161 1511 2164 1511Q2176 1511 2185.5 1498.0Q2195 1485 2195 1474Z" style="fill:#107c10;stroke:none" transform="scale(1,-1) translate(0,-256)" /></svg>