<?xml version="1.0" encoding="utf-8" ?>
<svg baseProfile="full" height="256" version="1.1" width="256" xmlns="http://www.w3.org/2000/svg" xmlns:ev="http://www.w3.org/2001/xml-events" xmlns:xlink="http://www.w3.org/1999/xlink"><defs /><path d="M2556 899Q2556 865 2544.5 834.0Q2533 803 2510 779L1766 0V-431H1049V0L306 775Q256 828 256 899Q256 931 267.0 960.5Q278 990 297.5 1013.5Q317 1037 343.5 1053.0Q370 1069 402 1075V1366H508Q491 1389 481.5 1417.0Q472 1445 472 1474Q472 1511 486.0 1543.5Q500 1576 524.5 1600.5Q549 1625 581.5 1639.0Q614 1653 651 1653H673L977 1558V1797Q1003 1797 1029.0 1797.5Q1055 1798 1081 1798Q1116 1798 1150.0 1795.5Q1184 1793 1217 1784Q1236 1800 1258.5 1815.0Q1281 1830 1306.0 1842.0Q1331 1854 1357.0 1861.5Q1383 1869 1408 1869Q1434 1869 1459.5 1862.0Q1485 1855 1509.0 1843.0Q1533 1831 1555.5 1815.5Q1578 1800 1598 1784Q1631 1793 1665.0 1795.5Q1699 1798 1734 1798Q1760 1798 1786.5 1797.5Q1813 1797 1839 1797V1559L2138 1653H2161Q2198 1653 2230.5 1639.0Q2263 1625 2287.5 1600.5Q2312 1576 2326.0 1543.5Q2340 1511 2340 1474Q2340 1445 2331.0 1417.0Q2322 1389 2304 1366H2414V1074Q2445 1068 2471.0 1051.5Q2497 1035 2516.0 1011.5Q2535 988 2545.5 959.0Q2556 930 2556 899Z" style="fill:#000000;stroke:none" transform="scale(1,-1) translate(0,-256)" /></svg>