<?xml version="1.0" encoding="utf-8" ?>
<svg baseProfile="full" height="256" version="1.1" width="256" xmlns="http://www.w3.org/2000/svg" xmlns:ev="http://www.w3.org/2001/xml-events" xmlns:xlink="http://www.w3.org/1999/xlink"><defs /><path d="M974 899Q981 899 990.5 896.5Q1000 894 1008.0 889.5Q1016 885 1022.0 878.5Q1028 872 1028 863Q1028 854 1022.0 847.5Q1016 841 1008.0 836.5Q1000 832 990.5 829.5Q981 827 974 827Q967 827 958.0 829.5Q949 832 940.5 836.5Q932 841 926.5 847.5Q921 854 921 863Q921 871 926.5 878.0Q932 885 940.5 889.5Q949 894 958.0 896.5Q967 899 974 899Z" style="fill:#757575;stroke:none" transform="scale(1,-1) translate(0,-256)" /></svg>