<?xml version="1.0" encoding="utf-8" ?>
<svg baseProfile="full" height="256" version="1.1" width="256" xmlns="http://www.w3.org/2000/svg" xmlns:ev="http://www.w3.org/2001/xml-events" xmlns:xlink="http://www.w3.org/1999/xlink"><defs /><path d="M1442 863Q1438 863 1406.5 877.5Q1375 892 1328.5 914.0Q1282 936 1228.5 963.0Q1175 990 1126.5 1014.0Q1078 1038 1042.0 1057.0Q1006 1076 995 1082Q975 1094 975 1115Q975 1129 985.5 1139.5Q996 1150 1010 1150Q1015 1150 1047.5 1135.5Q1080 1121 1126.0 1098.5Q1172 1076 1225.0 1049.0Q1278 1022 1326.0 998.0Q1374 974 1410.0 955.5Q1446 937 1458 931Q1478 920 1478 899Q1478 884 1467.5 873.5Q1457 863 1442 863Z" style="fill:#383838;stroke:none" transform="scale(1,-1) translate(0,-256)" /></svg>