<?xml version="1.0" encoding="utf-8" ?>
<svg baseProfile="full" height="256" version="1.1" width="256" xmlns="http://www.w3.org/2000/svg" xmlns:ev="http://www.w3.org/2001/xml-events" xmlns:xlink="http://www.w3.org/1999/xlink"><defs /><path d="M1298 1150Q1292 1150 1269.0 1160.0Q1246 1170 1219.5 1183.0Q1193 1196 1169.0 1208.5Q1145 1221 1138 1226Q1128 1232 1123.0 1239.0Q1118 1246 1118 1258Q1118 1272 1129.0 1283.0Q1140 1294 1154 1294Q1163 1294 1179.5 1287.0Q1196 1280 1213.5 1271.0Q1231 1262 1247.5 1252.5Q1264 1243 1274 1238L1335 1482Q1338 1494 1347.5 1501.5Q1357 1509 1369 1509Q1384 1509 1395.0 1499.0Q1406 1489 1406 1474Q1406 1468 1401.5 1445.5Q1397 1423 1390.0 1392.5Q1383 1362 1374.0 1327.5Q1365 1293 1357.0 1262.0Q1349 1231 1342.5 1208.0Q1336 1185 1333 1177Q1328 1165 1320.0 1157.5Q1312 1150 1298 1150Z" style="fill:#16c60c;stroke:none" transform="scale(1,-1) translate(0,-256)" /></svg>