<?xml version="1.0" encoding="utf-8" ?>
<svg baseProfile="full" height="256" version="1.1" width="256" xmlns="http://www.w3.org/2000/svg" xmlns:ev="http://www.w3.org/2001/xml-events" xmlns:xlink="http://www.w3.org/1999/xlink"><defs /><path d="M2340 -144Q2369 -144 2390.5 -165.0Q2412 -186 2412 -215V-287H975Q975 -287 962.5 -282.5Q950 -278 931.5 -271.5Q913 -265 891.0 -257.5Q869 -250 849.5 -243.0Q830 -236 816.0 -231.0Q802 -226 799 -225Q796 -226 781.5 -231.0Q767 -236 746.5 -243.0Q726 -250 703.0 -257.5Q680 -265 660.5 -271.5Q641 -278 628.0 -282.5Q615 -287 615 -287H400V-215Q400 -186 421.5 -165.0Q443 -144 472 -144L524 -40Q533 -21 550.0 -10.5Q567 0 588 0H804Q804 0 814.5 -3.5Q825 -7 837.5 -11.5Q850 -16 861.0 -19.5Q872 -23 874 -24Q933 -16 993.0 -8.0Q1053 0 1113 0H2224Q2245 0 2262.0 -10.5Q2279 -21 2288 -40Z" style="fill:#613d30;stroke:none" transform="scale(1,-1) translate(0,-256)" /></svg>