<?xml version="1.0" encoding="utf-8" ?>
<svg baseProfile="full" height="256" version="1.1" width="256" xmlns="http://www.w3.org/2000/svg" xmlns:ev="http://www.w3.org/2001/xml-events" xmlns:xlink="http://www.w3.org/1999/xlink"><defs /><path d="M2268 288V144H1047Q1047 144 1034.5 148.0Q1022 152 1003.0 158.5Q984 165 961.5 172.0Q939 179 919.0 185.5Q899 192 884.5 197.0Q870 202 867 203Q864 202 849.5 197.0Q835 192 815.0 185.5Q795 179 772.5 172.0Q750 165 731.0 158.5Q712 152 699.5 148.0Q687 144 687 144H543V288H615V431Q615 550 660.5 654.5Q706 759 784.0 837.0Q862 915 966.5 960.5Q1071 1006 1190 1006Q1220 1006 1241.0 1027.5Q1262 1049 1262 1078H1334L1406 1130L1478 1078H1550Q1550 1049 1571.0 1027.5Q1592 1006 1622 1006Q1741 1006 1845.5 960.5Q1950 915 2028.0 837.0Q2106 759 2151.5 654.5Q2197 550 2197 431V288ZM1262 1222Q1233 1222 1211.5 1243.5Q1190 1265 1190 1294Q1190 1323 1211.5 1344.5Q1233 1366 1262 1366H1550Q1579 1366 1600.5 1344.5Q1622 1323 1622 1294Q1622 1265 1600.5 1243.5Q1579 1222 1550 1222Z" style="fill:#ffb900;stroke:none" transform="scale(1,-1) translate(0,-256)" /></svg>