<?xml version="1.0" encoding="utf-8" ?>
<svg baseProfile="full" height="256" version="1.1" width="256" xmlns="http://www.w3.org/2000/svg" xmlns:ev="http://www.w3.org/2001/xml-events" xmlns:xlink="http://www.w3.org/1999/xlink"><defs /><path d="M256 -431V-215Q256 -155 286.5 -104.5Q317 -54 370 -25L400 34V431H472Q472 522 494.0 607.0Q516 692 556.0 768.0Q596 844 653.0 908.5Q710 973 780.5 1022.0Q851 1071 933.5 1102.5Q1016 1134 1106 1145Q1077 1175 1062.0 1213.5Q1047 1252 1047 1294Q1047 1339 1064.0 1378.0Q1081 1417 1110.0 1446.5Q1139 1476 1178.0 1493.0Q1217 1510 1262 1510H1550Q1595 1510 1634.0 1493.0Q1673 1476 1702.0 1446.5Q1731 1417 1748.0 1378.0Q1765 1339 1765 1294Q1765 1252 1750.0 1213.5Q1735 1175 1706 1145Q1796 1134 1878.5 1102.5Q1961 1071 2031.5 1022.0Q2102 973 2159.0 908.5Q2216 844 2256.0 768.0Q2296 692 2318.0 607.0Q2340 522 2340 431H2412V34L2442 -25Q2495 -54 2525.5 -104.5Q2556 -155 2556 -215V-431Z" style="fill:#000000;stroke:none" transform="scale(1,-1) translate(0,-256)" /></svg>