<?xml version="1.0" encoding="utf-8" ?>
<svg baseProfile="full" height="256" version="1.1" width="256" xmlns="http://www.w3.org/2000/svg" xmlns:ev="http://www.w3.org/2001/xml-events" xmlns:xlink="http://www.w3.org/1999/xlink"><defs /><path d="M328 -431V1442Q293 1477 274.5 1522.5Q256 1568 256 1618Q256 1671 275.5 1717.0Q295 1763 328.5 1796.5Q362 1830 408.0 1849.5Q454 1869 507 1869Q559 1869 605.0 1849.0Q651 1829 685.5 1794.5Q720 1760 739.5 1714.0Q759 1668 759 1617Q759 1610 759.0 1603.5Q759 1597 758 1590L2314 1071Q2359 1056 2385.5 1019.0Q2412 982 2412 934Q2412 886 2385.5 849.5Q2359 813 2314 798L687 256V-431Z" style="fill:#000000;stroke:none" transform="scale(1,-1) translate(0,-256)" /></svg>