<?xml version="1.0" encoding="utf-8" ?>
<svg baseProfile="full" height="256" version="1.1" width="256" xmlns="http://www.w3.org/2000/svg" xmlns:ev="http://www.w3.org/2001/xml-events" xmlns:xlink="http://www.w3.org/1999/xlink"><defs /><path d="M1226 1078Q1214 1078 1203.5 1082.0Q1193 1086 1183 1093Q1144 1121 1101.5 1135.0Q1059 1149 1010 1149Q962 1149 919.5 1135.0Q877 1121 838 1093Q828 1086 817.5 1082.0Q807 1078 795 1078Q765 1078 744.0 1099.5Q723 1121 723 1151Q723 1168 730.5 1182.5Q738 1197 752 1208Q806 1250 874.0 1271.5Q942 1293 1010 1293Q1079 1293 1147.0 1271.5Q1215 1250 1269 1208Q1283 1197 1290.5 1182.0Q1298 1167 1298 1150Q1298 1120 1276.5 1099.0Q1255 1078 1226 1078Z" style="fill:#d48c00;stroke:none" transform="scale(1,-1) translate(0,-256)" /></svg>