<?xml version="1.0" encoding="utf-8" ?>
<svg baseProfile="full" height="256" version="1.1" width="256" xmlns="http://www.w3.org/2000/svg" xmlns:ev="http://www.w3.org/2001/xml-events" xmlns:xlink="http://www.w3.org/1999/xlink"><defs /><path d="M1801 1078Q1749 1078 1703.0 1058.5Q1657 1039 1623.0 1005.0Q1589 971 1569.5 925.0Q1550 879 1550 827Q1550 775 1569.5 729.0Q1589 683 1623.0 649.0Q1657 615 1703.0 595.0Q1749 575 1801 575Q1853 575 1899.0 595.0Q1945 615 1979.0 649.0Q2013 683 2033.0 729.0Q2053 775 2053 827Q2053 879 2033.0 925.0Q2013 971 1979.0 1005.0Q1945 1039 1899.0 1058.5Q1853 1078 1801 1078ZM1801 1222Q1883 1222 1955.0 1191.0Q2027 1160 2081.0 1106.5Q2135 1053 2166.0 981.0Q2197 909 2197 827Q2197 745 2166.0 673.0Q2135 601 2081.0 547.0Q2027 493 1955.0 462.0Q1883 431 1801 431Q1719 431 1647.0 462.0Q1575 493 1521.5 547.0Q1468 601 1437.0 673.0Q1406 745 1406 827Q1406 909 1437.0 981.0Q1468 1053 1521.5 1106.5Q1575 1160 1647.0 1191.0Q1719 1222 1801 1222Z" style="fill:#757575;stroke:none" transform="scale(1,-1) translate(0,-256)" /></svg>