<?xml version="1.0" encoding="utf-8" ?>
<svg baseProfile="full" height="256" version="1.1" width="256" xmlns="http://www.w3.org/2000/svg" xmlns:ev="http://www.w3.org/2001/xml-events" xmlns:xlink="http://www.w3.org/1999/xlink"><defs /><path d="M835 431Q876 431 898 396Q973 278 1082.5 211.0Q1192 144 1334 144H1550Q1580 144 1601.0 123.0Q1622 102 1622 72Q1622 43 1600.5 21.5Q1579 0 1550 0H1334Q1249 0 1166.5 22.5Q1084 45 1010.5 87.0Q937 129 876.0 189.0Q815 249 774 324Q764 342 764 359Q764 388 785.0 409.5Q806 431 835 431ZM1011 1006Q1033 1006 1052.5 997.5Q1072 989 1086.5 974.5Q1101 960 1109.5 940.5Q1118 921 1118 899V755Q1118 733 1109.5 713.5Q1101 694 1087.0 679.0Q1073 664 1053.0 655.5Q1033 647 1011 647Q988 647 968.5 655.5Q949 664 934.5 678.5Q920 693 911.5 712.5Q903 732 903 755V899Q903 921 911.5 941.0Q920 961 935.0 975.0Q950 989 969.5 997.5Q989 1006 1011 1006Z" style="fill:#000000;stroke:none" transform="scale(1,-1) translate(0,-256)" /></svg>