<?xml version="1.0" encoding="utf-8" ?>
<svg baseProfile="full" height="256" version="1.1" width="256" xmlns="http://www.w3.org/2000/svg" xmlns:ev="http://www.w3.org/2001/xml-events" xmlns:xlink="http://www.w3.org/1999/xlink"><defs /><path d="M867 1438Q882 1438 892.5 1427.5Q903 1417 903 1402Q903 1387 892.5 1376.5Q882 1366 867 1366Q852 1366 841.5 1376.5Q831 1387 831 1402Q831 1417 841.5 1427.5Q852 1438 867 1438ZM651 1438Q666 1438 676.5 1427.5Q687 1417 687 1402Q687 1387 676.5 1376.5Q666 1366 651 1366Q636 1366 625.5 1376.5Q615 1387 615 1402Q615 1417 625.5 1427.5Q636 1438 651 1438ZM1945 1438Q1960 1438 1970.5 1427.5Q1981 1417 1981 1402Q1981 1387 1970.5 1376.5Q1960 1366 1945 1366Q1930 1366 1919.5 1376.5Q1909 1387 1909 1402Q1909 1417 1919.5 1427.5Q1930 1438 1945 1438ZM1729 1438Q1744 1438 1754.5 1427.5Q1765 1417 1765 1402Q1765 1387 1754.5 1376.5Q1744 1366 1729 1366Q1715 1366 1704.0 1377.0Q1693 1388 1693 1402Q1693 1416 1704.0 1427.0Q1715 1438 1729 1438Z" style="fill:#000000;stroke:none" transform="scale(1,-1) translate(0,-256)" /></svg>