<?xml version="1.0" encoding="utf-8" ?>
<svg baseProfile="full" height="256" version="1.1" width="256" xmlns="http://www.w3.org/2000/svg" xmlns:ev="http://www.w3.org/2001/xml-events" xmlns:xlink="http://www.w3.org/1999/xlink"><defs /><path d="M615 1510H975V1438Q975 1393 958.0 1354.0Q941 1315 911.5 1285.5Q882 1256 843.0 1239.0Q804 1222 759 1222Q714 1222 675.0 1239.0Q636 1256 606.5 1285.5Q577 1315 560.0 1354.0Q543 1393 543 1438ZM2053 1438Q2053 1393 2036.0 1354.0Q2019 1315 1989.5 1285.5Q1960 1256 1921.0 1239.0Q1882 1222 1837 1222Q1792 1222 1753.0 1239.0Q1714 1256 1685.0 1285.5Q1656 1315 1639.0 1354.0Q1622 1393 1622 1438L1693 1510H2053ZM2197 863V431Q2197 402 2175.5 381.0Q2154 360 2125 360Q2096 360 2074.5 381.0Q2053 402 2053 431V863ZM400 863H543V431Q543 402 522.0 381.0Q501 360 472 360Q443 360 421.5 381.0Q400 402 400 431ZM1227 519Q1227 537 1236 554L1414 863H1580L1360 482Q1351 466 1333.5 456.5Q1316 447 1298 447Q1269 447 1248.0 468.5Q1227 490 1227 519Z" style="fill:#ffc83d;stroke:none" transform="scale(1,-1) translate(0,-256)" /></svg>