<?xml version="1.0" encoding="utf-8" ?>
<svg baseProfile="full" height="256" version="1.1" width="256" xmlns="http://www.w3.org/2000/svg" xmlns:ev="http://www.w3.org/2001/xml-events" xmlns:xlink="http://www.w3.org/1999/xlink"><defs /><path d="M759 1725Q802 1725 841.5 1708.0Q881 1691 910.5 1661.5Q940 1632 957.5 1593.0Q975 1554 975 1510V1499Q975 1488 961.0 1479.5Q947 1471 925.5 1464.5Q904 1458 877.5 1453.5Q851 1449 827.0 1446.0Q803 1443 784.5 1441.5Q766 1440 759 1440Q711 1440 664.0 1435.0Q617 1430 569 1430Q568 1430 563.5 1430.0Q559 1430 554.5 1431.0Q550 1432 546.5 1433.5Q543 1435 543 1438V1510Q543 1555 560.0 1594.0Q577 1633 606.5 1662.0Q636 1691 675.0 1708.0Q714 1725 759 1725Z" style="fill:#8e562e;stroke:none" transform="scale(1,-1) translate(0,-256)" /></svg>