<?xml version="1.0" encoding="utf-8" ?>
<svg baseProfile="full" height="256" version="1.1" width="256" xmlns="http://www.w3.org/2000/svg" xmlns:ev="http://www.w3.org/2001/xml-events" xmlns:xlink="http://www.w3.org/1999/xlink"><defs /><path d="M2155 1274Q2197 1258 2231.0 1231.0Q2265 1204 2289.0 1169.0Q2313 1134 2326.5 1092.5Q2340 1051 2340 1006V431Q2340 397 2329.5 365.5Q2319 334 2300.5 307.5Q2282 281 2255.5 260.5Q2229 240 2197 228V-127Q2231 -157 2249.5 -199.5Q2268 -242 2268 -287V-431H1406Q1406 -406 1405.0 -381.5Q1404 -357 1404 -333Q1404 -275 1417.0 -222.5Q1430 -170 1478 -127V398L1475 392Q1468 387 1462.5 380.5Q1457 374 1451 368Q1419 336 1381.5 320.0Q1344 304 1298 304Q1270 304 1247.5 309.0Q1225 314 1205.5 324.0Q1186 334 1168.0 349.0Q1150 364 1132 383Q1128 387 1124.5 390.5Q1121 394 1118 399V-127Q1153 -157 1171.5 -199.0Q1190 -241 1190 -287V-431H328Q328 -406 327.0 -381.5Q326 -357 326 -333Q326 -275 339.0 -222.5Q352 -170 400 -127V228Q368 240 341.5 260.0Q315 280 296.0 307.0Q277 334 266.5 365.5Q256 397 256 431V1006Q256 1051 269.5 1092.5Q283 1134 307.0 1169.0Q331 1204 365.0 1231.0Q399 1258 441 1274Q400 1350 400 1438V1510Q400 1584 428.0 1649.5Q456 1715 505.0 1763.5Q554 1812 619.5 1840.5Q685 1869 759 1869Q833 1869 898.5 1840.5Q964 1812 1012.5 1763.5Q1061 1715 1089.5 1649.5Q1118 1584 1118 1510V1491Q1118 1464 1117.5 1439.5Q1117 1415 1114.0 1391.5Q1111 1368 1105.0 1344.5Q1099 1321 1088 1294L1298 949L1508 1294Q1493 1328 1485.5 1364.5Q1478 1401 1478 1438V1510Q1478 1584 1506.0 1649.5Q1534 1715 1583.0 1763.5Q1632 1812 1697.5 1840.5Q1763 1869 1837 1869Q1910 1869 1975.5 1840.5Q2041 1812 2090.5 1763.0Q2140 1714 2168.5 1648.5Q2197 1583 2197 1510V1494Q2197 1462 2196.5 1435.0Q2196 1408 2192.0 1382.5Q2188 1357 2179.5 1330.5Q2171 1304 2155 1274Z" style="fill:#000000;stroke:none" transform="scale(1,-1) translate(0,-256)" /></svg>