<?xml version="1.0" encoding="utf-8" ?>
<svg baseProfile="full" height="256" version="1.1" width="256" xmlns="http://www.w3.org/2000/svg" xmlns:ev="http://www.w3.org/2001/xml-events" xmlns:xlink="http://www.w3.org/1999/xlink"><defs /><path d="M2053 1150Q2083 1150 2109.0 1138.5Q2135 1127 2154.5 1107.5Q2174 1088 2185.5 1062.0Q2197 1036 2197 1006V863Q2187 841 2166.0 826.0Q2145 811 2121 811Q2098 811 2079.0 825.5Q2060 840 2053 863V503H1622Q1622 565 1622.5 626.0Q1623 687 1623 749Q1623 796 1622.5 841.5Q1622 887 1621 934L1580 863Q1574 853 1560.0 843.5Q1546 834 1529.0 826.5Q1512 819 1495.0 814.5Q1478 810 1467 810Q1444 810 1429.0 821.0Q1414 832 1414 856V863L1559 1114Q1569 1131 1586.0 1140.0Q1603 1149 1622 1149Z" style="fill:#f03a17;stroke:none" transform="scale(1,-1) translate(0,-256)" /></svg>