<?xml version="1.0" encoding="utf-8" ?>
<svg baseProfile="full" height="256" version="1.1" width="256" xmlns="http://www.w3.org/2000/svg" xmlns:ev="http://www.w3.org/2001/xml-events" xmlns:xlink="http://www.w3.org/1999/xlink"><defs /><path d="M975 1150Q994 1150 1010.5 1140.5Q1027 1131 1037 1114L1182 863Q1175 840 1153.0 828.5Q1131 817 1108 817Q1078 817 1058.5 827.0Q1039 837 1024.5 853.5Q1010 870 999.0 891.0Q988 912 975 934V503H511V574Q511 631 510.0 688.5Q509 746 507 803L509 806Q509 810 503.0 812.0Q497 814 489.0 815.0Q481 816 474.0 816.0Q467 816 465 816Q456 816 445.0 819.5Q434 823 424.0 829.0Q414 835 407.0 843.5Q400 852 400 863V1006Q400 1036 411.0 1062.0Q422 1088 441.5 1107.5Q461 1127 487.0 1138.5Q513 1150 543 1150ZM2053 548V-182H1909V287Q1909 317 1888.0 337.5Q1867 358 1837 358Q1807 358 1786.0 337.5Q1765 317 1765 287V-182H1622V548Z" style="fill:#0078d7;stroke:none" transform="scale(1,-1) translate(0,-256)" /></svg>