<?xml version="1.0" encoding="utf-8" ?>
<svg baseProfile="full" height="256" version="1.1" width="256" xmlns="http://www.w3.org/2000/svg" xmlns:ev="http://www.w3.org/2001/xml-events" xmlns:xlink="http://www.w3.org/1999/xlink"><defs /><path d="M1837 1725Q1881 1725 1920.0 1708.0Q1959 1691 1988.5 1661.5Q2018 1632 2035.5 1593.0Q2053 1554 2053 1510Q2053 1493 2040.5 1480.0Q2028 1467 2007.5 1457.0Q1987 1447 1962.5 1439.5Q1938 1432 1914.0 1427.0Q1890 1422 1869.5 1420.0Q1849 1418 1837 1418H1733Q1730 1418 1723.0 1417.5Q1716 1417 1707 1417Q1695 1417 1680.0 1417.5Q1665 1418 1652.0 1420.5Q1639 1423 1630.5 1427.0Q1622 1431 1622 1438V1510Q1622 1555 1639.0 1594.0Q1656 1633 1685.0 1662.0Q1714 1691 1753.0 1708.0Q1792 1725 1837 1725Z" style="fill:#613d30;stroke:none" transform="scale(1,-1) translate(0,-256)" /></svg>