<?xml version="1.0" encoding="utf-8" ?>
<svg baseProfile="full" height="256" version="1.1" width="256" xmlns="http://www.w3.org/2000/svg" xmlns:ev="http://www.w3.org/2001/xml-events" xmlns:xlink="http://www.w3.org/1999/xlink"><defs /><path d="M1693 647Q1712 669 1749.5 683.0Q1787 697 1830.5 705.0Q1874 713 1916.0 716.0Q1958 719 1986 719Q2012 719 2053.5 716.5Q2095 714 2137.0 706.0Q2179 698 2215.5 684.0Q2252 670 2268 647V216L1981 72L1693 216ZM759 1510 975 1725 1336 1438 853 1033Q837 1020 817 1020Q794 1020 776.5 1037.5Q759 1055 759 1078ZM1852 1018Q1831 1018 1816 1030L1336 1438L1693 1725L1909 1510V1078Q1909 1054 1893.0 1036.0Q1877 1018 1852 1018Z" style="fill:#83beec;stroke:none" transform="scale(1,-1) translate(0,-256)" /></svg>