<?xml version="1.0" encoding="utf-8" ?>
<svg baseProfile="full" height="256" version="1.1" width="256" xmlns="http://www.w3.org/2000/svg" xmlns:ev="http://www.w3.org/2001/xml-events" xmlns:xlink="http://www.w3.org/1999/xlink"><defs /><path d="M615 -431Q541 -431 475.5 -403.0Q410 -375 361.0 -326.0Q312 -277 284.0 -211.5Q256 -146 256 -72V1294Q256 1368 284.5 1433.5Q313 1499 361.5 1547.5Q410 1596 475.5 1624.5Q541 1653 615 1653H700L915 1869H1753L1969 1653H2053Q2127 1653 2192.5 1624.5Q2258 1596 2306.5 1547.5Q2355 1499 2383.5 1433.5Q2412 1368 2412 1294V-72Q2412 -146 2383.5 -211.5Q2355 -277 2306.5 -325.5Q2258 -374 2192.5 -402.5Q2127 -431 2053 -431Z" style="fill:#000000;stroke:none" transform="scale(1,-1) translate(0,-256)" /></svg>