<?xml version="1.0" encoding="utf-8" ?>
<svg baseProfile="full" height="256" version="1.1" width="256" xmlns="http://www.w3.org/2000/svg" xmlns:ev="http://www.w3.org/2001/xml-events" xmlns:xlink="http://www.w3.org/1999/xlink"><defs /><path d="M2053 1510Q2098 1510 2137.0 1493.0Q2176 1476 2205.0 1446.5Q2234 1417 2251.0 1378.0Q2268 1339 2268 1294V-72Q2268 -117 2251.0 -156.0Q2234 -195 2205.0 -224.0Q2176 -253 2137.0 -270.0Q2098 -287 2053 -287H615Q570 -287 531.0 -270.0Q492 -253 463.0 -224.0Q434 -195 417.0 -156.0Q400 -117 400 -72V1294Q400 1339 417.0 1378.0Q434 1417 463.0 1446.5Q492 1476 531.0 1493.0Q570 1510 615 1510Z" style="fill:#3a96dd;stroke:none" transform="scale(1,-1) translate(0,-256)" /></svg>