<?xml version="1.0" encoding="utf-8" ?>
<svg baseProfile="full" height="256" version="1.1" width="256" xmlns="http://www.w3.org/2000/svg" xmlns:ev="http://www.w3.org/2001/xml-events" xmlns:xlink="http://www.w3.org/1999/xlink"><defs /><path d="M1262 935Q1291 935 1312.5 913.5Q1334 892 1334 863Q1334 833 1313.0 812.0Q1292 791 1262 791Q1209 791 1161 773Q1190 694 1190 611Q1190 557 1180.0 511.5Q1170 466 1151.5 425.5Q1133 385 1105.5 347.0Q1078 309 1043 270L1029 288H857L886 316Q919 348 948.5 378.5Q978 409 999.5 443.5Q1021 478 1034.0 518.5Q1047 559 1047 611Q1047 662 1035.0 703.5Q1023 745 1000.0 780.0Q977 815 944.5 844.0Q912 873 871 899Q853 910 842.5 925.5Q832 941 832 963Q832 993 853.5 1014.0Q875 1035 905 1035Q926 1035 953.0 1019.5Q980 1004 1006.5 982.5Q1033 961 1056.0 938.0Q1079 915 1091 899Q1132 916 1174.5 925.5Q1217 935 1262 935ZM2388 822Q2373 787 2349.0 756.5Q2325 726 2294 703Q2273 738 2243.5 767.5Q2214 797 2179.0 818.0Q2144 839 2104.5 850.5Q2065 862 2024 862Q1968 862 1912.5 862.5Q1857 863 1801 863Q1772 863 1750.5 884.5Q1729 906 1729 935Q1729 964 1750.5 985.0Q1772 1006 1801 1006H1922Q1916 1042 1912.5 1078.0Q1909 1114 1909 1150Q1909 1180 1930.0 1201.0Q1951 1222 1981 1222Q2011 1222 2032.0 1201.0Q2053 1180 2053 1150Q2053 1113 2057.0 1076.0Q2061 1039 2069 1003Q2164 992 2247.0 944.5Q2330 897 2388 822ZM2071 611Q2089 611 2105.0 607.5Q2121 604 2133.5 595.5Q2146 587 2153.5 573.0Q2161 559 2161 539Q2161 509 2140.0 488.0Q2119 467 2089 467Q2055 467 2026.0 462.5Q1997 458 1971.0 448.0Q1945 438 1921.0 421.5Q1897 405 1873 381L1707 216H1504L1771 483Q1833 545 1908.0 578.0Q1983 611 2071 611ZM1609 1467Q1564 1446 1529.5 1422.0Q1495 1398 1467.0 1368.0Q1439 1338 1416.0 1302.5Q1393 1267 1371 1224Q1361 1204 1344.5 1192.0Q1328 1180 1305 1180Q1275 1180 1254.0 1201.5Q1233 1223 1233 1253Q1233 1265 1238 1280Q1252 1320 1276.5 1359.0Q1301 1398 1332.5 1434.0Q1364 1470 1399.0 1500.5Q1434 1531 1469 1554Q1544 1524 1599 1463Z" style="fill:#e6808a;stroke:none" transform="scale(1,-1) translate(0,-256)" /></svg>