<?xml version="1.0" encoding="utf-8" ?>
<svg baseProfile="full" height="256" version="1.1" width="256" xmlns="http://www.w3.org/2000/svg" xmlns:ev="http://www.w3.org/2001/xml-events" xmlns:xlink="http://www.w3.org/1999/xlink"><defs /><path d="M1729 -215Q1660 -215 1593.0 -200.5Q1526 -186 1464.0 -158.0Q1402 -130 1346.5 -89.5Q1291 -49 1245 3Q1164 13 1091.0 49.0Q1018 85 961 144H723Q627 144 542.0 181.0Q457 218 393.5 281.5Q330 345 293.0 430.0Q256 515 256 611V827Q256 884 272.0 937.5Q288 991 318.0 1037.5Q348 1084 390.0 1121.5Q432 1159 483 1183Q502 1272 548.5 1345.5Q595 1419 661.5 1471.5Q728 1524 810.5 1552.5Q893 1581 983 1581Q1053 1650 1144.5 1687.5Q1236 1725 1334 1725Q1414 1725 1489.5 1700.5Q1565 1676 1629 1628Q1671 1641 1714.0 1647.0Q1757 1653 1801 1653Q1890 1653 1974.0 1628.0Q2058 1603 2130.5 1556.5Q2203 1510 2260.5 1444.5Q2318 1379 2356 1298Q2402 1268 2439.5 1228.5Q2477 1189 2502.5 1142.0Q2528 1095 2542.0 1042.5Q2556 990 2556 935Q2556 863 2532.5 795.0Q2509 727 2465 670Q2474 638 2479.0 605.0Q2484 572 2484 539Q2484 440 2444.0 350.0Q2404 260 2331 194Q2294 101 2233.0 25.0Q2172 -51 2093.5 -104.0Q2015 -157 1922.0 -186.0Q1829 -215 1729 -215Z" style="fill:#000000;stroke:none" transform="scale(1,-1) translate(0,-256)" /></svg>