<?xml version="1.0" encoding="utf-8" ?>
<svg baseProfile="full" height="256" version="1.1" width="256" xmlns="http://www.w3.org/2000/svg" xmlns:ev="http://www.w3.org/2001/xml-events" xmlns:xlink="http://www.w3.org/1999/xlink"><defs /><path d="M2412 935Q2412 874 2389 822Q2355 822 2336.0 814.0Q2317 806 2308.0 791.0Q2299 776 2297.0 754.0Q2295 732 2294 703Q2340 628 2340 539Q2340 472 2314.5 413.5Q2289 355 2245.0 311.0Q2201 267 2142.5 241.5Q2084 216 2017 216H1707L1653 273Q1615 259 1575.0 246.0Q1535 233 1499 216Q1485 209 1473.5 199.5Q1462 190 1449 182Q1416 163 1376.0 153.5Q1336 144 1298 144Q1223 144 1155.5 177.0Q1088 210 1042 270Q1040 287 1038.0 303.0Q1036 319 1031 335Q1022 333 995.0 325.0Q968 317 938.5 309.0Q909 301 884.5 294.5Q860 288 857 288H723Q656 288 597.5 313.5Q539 339 495.0 383.0Q451 427 425.5 485.5Q400 544 400 611V827Q400 874 416.5 916.0Q433 958 462.0 991.0Q491 1024 530.5 1046.0Q570 1068 616 1075Q615 1078 615 1085Q615 1158 644.0 1222.5Q673 1287 722.5 1335.0Q772 1383 837.5 1410.5Q903 1438 975 1438Q992 1438 1009.0 1436.0Q1026 1434 1043 1431Q1094 1502 1170.5 1541.5Q1247 1581 1334 1581Q1403 1581 1469 1555Q1472 1527 1476.0 1509.0Q1480 1491 1490.0 1480.5Q1500 1470 1517.5 1466.0Q1535 1462 1564 1462Q1573 1462 1581.5 1462.0Q1590 1462 1599 1463Q1695 1510 1801 1510Q1875 1510 1944.0 1487.0Q2013 1464 2071.0 1423.0Q2129 1382 2173.0 1324.5Q2217 1267 2242 1197Q2281 1180 2312.0 1152.5Q2343 1125 2365.5 1091.0Q2388 1057 2400.0 1017.0Q2412 977 2412 935Z" style="fill:#f4abba;stroke:none" transform="scale(1,-1) translate(0,-256)" /></svg>