<?xml version="1.0" encoding="utf-8" ?>
<svg baseProfile="full" height="256" version="1.1" width="256" xmlns="http://www.w3.org/2000/svg" xmlns:ev="http://www.w3.org/2001/xml-events" xmlns:xlink="http://www.w3.org/1999/xlink"><defs /><path d="M1514 1725Q1545 1725 1574.5 1714.0Q1604 1703 1627.5 1684.0Q1651 1665 1667.5 1638.5Q1684 1612 1690 1581H1550L1467 1499Q1462 1505 1455.5 1507.5Q1449 1510 1442 1510Q1428 1510 1417.0 1499.0Q1406 1488 1406 1474Q1406 1460 1416 1448L1357 1388Q1334 1428 1334 1474V1546Q1334 1583 1348.0 1615.5Q1362 1648 1386.5 1672.5Q1411 1697 1444.0 1711.0Q1477 1725 1514 1725Z" style="fill:#8e562e;stroke:none" transform="scale(1,-1) translate(0,-256)" /></svg>