<?xml version="1.0" encoding="utf-8" ?>
<svg baseProfile="full" height="256" version="1.1" width="256" xmlns="http://www.w3.org/2000/svg" xmlns:ev="http://www.w3.org/2001/xml-events" xmlns:xlink="http://www.w3.org/1999/xlink"><defs /><path d="M400 360Q435 360 464 381L816 625Q827 633 840.0 640.0Q853 647 867 647Q897 647 918.0 626.0Q939 605 939 575V467Q939 444 947.5 424.5Q956 405 971.0 391.0Q986 377 1005.5 368.5Q1025 360 1047 360Q1062 360 1080.5 366.5Q1099 373 1111 381L1462 625Q1474 633 1486.5 640.0Q1499 647 1514 647Q1543 647 1564.5 625.5Q1586 604 1586 575V467Q1586 445 1594.5 425.5Q1603 406 1617.5 391.5Q1632 377 1651.5 368.5Q1671 360 1693 360Q1708 360 1727.0 366.5Q1746 373 1758 381L2109 625Q2123 635 2134.0 641.0Q2145 647 2161 647Q2190 647 2211.5 625.5Q2233 604 2233 575V467Q2233 445 2241.5 425.5Q2250 406 2264.5 391.5Q2279 377 2298.5 368.5Q2318 360 2340 360H2412V102Q2412 101 2403.5 75.5Q2395 50 2384.5 19.0Q2374 -12 2364.5 -39.5Q2355 -67 2353 -72H482L400 52Z" style="fill:#00bcf2;stroke:none" transform="scale(1,-1) translate(0,-256)" /></svg>