<?xml version="1.0" encoding="utf-8" ?>
<svg baseProfile="full" height="256" version="1.1" width="256" xmlns="http://www.w3.org/2000/svg" xmlns:ev="http://www.w3.org/2001/xml-events" xmlns:xlink="http://www.w3.org/1999/xlink"><defs /><path d="M2233 0Q2253 0 2277.5 11.5Q2302 23 2326.5 39.0Q2351 55 2373.5 72.5Q2396 90 2412 102V-287H400V52L708 266Q718 276 732.0 282.0Q746 288 759 288Q789 288 810.0 267.0Q831 246 831 216V108Q831 85 839.5 65.5Q848 46 862.5 31.5Q877 17 896.5 8.5Q916 0 939 0Q955 0 972.5 6.0Q990 12 1003 21L1355 266Q1365 276 1379.0 282.0Q1393 288 1406 288Q1436 288 1457.0 267.0Q1478 246 1478 216V108Q1478 85 1486.5 65.5Q1495 46 1509.5 31.5Q1524 17 1543.5 8.5Q1563 0 1586 0Q1601 0 1619.5 6.5Q1638 13 1650 21L2001 266Q2013 274 2025.5 281.0Q2038 288 2053 288Q2083 288 2104.0 267.0Q2125 246 2125 216V108Q2125 85 2133.5 65.5Q2142 46 2156.5 31.5Q2171 17 2190.5 8.5Q2210 0 2233 0Z" style="fill:#69eaff;stroke:none" transform="scale(1,-1) translate(0,-256)" /></svg>