<?xml version="1.0" encoding="utf-8" ?>
<svg baseProfile="full" height="256" version="1.1" width="256" xmlns="http://www.w3.org/2000/svg" xmlns:ev="http://www.w3.org/2001/xml-events" xmlns:xlink="http://www.w3.org/1999/xlink"><defs /><path d="M1356 1393Q1356 1421 1364.5 1458.5Q1373 1496 1388.5 1531.5Q1404 1567 1426.5 1595.5Q1449 1624 1478 1635Q1500 1643 1523.5 1648.5Q1547 1654 1570 1654Q1587 1654 1606.0 1649.0Q1625 1644 1642.0 1635.0Q1659 1626 1672.0 1612.5Q1685 1599 1690 1581Q1692 1573 1692.5 1564.0Q1693 1555 1693 1546V1474Q1693 1437 1679.0 1404.0Q1665 1371 1640.5 1346.5Q1616 1322 1583.5 1308.0Q1551 1294 1514 1294Q1465 1294 1422.0 1319.0Q1379 1344 1356 1388ZM1262 1294Q1276 1294 1290 1288L1794 1072Q1837 1053 1837 1007Q1837 977 1816.0 956.0Q1795 935 1765 935Q1748 935 1737 940L1234 1156Q1214 1164 1202.0 1182.0Q1190 1200 1190 1222Q1190 1251 1211.5 1272.5Q1233 1294 1262 1294Z" style="fill:#ffc83d;stroke:none" transform="scale(1,-1) translate(0,-256)" /></svg>