<?xml version="1.0" encoding="utf-8" ?>
<svg baseProfile="full" height="256" version="1.1" width="256" xmlns="http://www.w3.org/2000/svg" xmlns:ev="http://www.w3.org/2001/xml-events" xmlns:xlink="http://www.w3.org/1999/xlink"><defs /><path d="M2484 503H2556V-431H256V503H388L431 533L416 582Q381 592 351.5 612.0Q322 632 301.0 659.5Q280 687 268.0 720.5Q256 754 256 791Q256 836 273.0 875.0Q290 914 319.5 943.0Q349 972 388.0 989.0Q427 1006 472 1006H903V1078Q903 1142 925.0 1200.5Q947 1259 986.0 1306.5Q1025 1354 1078.5 1386.5Q1132 1419 1195 1431Q1189 1464 1189 1497V1546Q1189 1613 1215.0 1671.5Q1241 1730 1285.0 1774.0Q1329 1818 1388.0 1843.5Q1447 1869 1514 1869Q1581 1869 1639.5 1843.5Q1698 1818 1742.0 1774.0Q1786 1730 1811.5 1671.5Q1837 1613 1837 1546Q1837 1501 1835.0 1462.0Q1833 1423 1824.0 1387.0Q1815 1351 1797.0 1317.0Q1779 1283 1746 1249Q1772 1271 1804.0 1282.5Q1836 1294 1869 1294Q1907 1294 1940.5 1279.5Q1974 1265 1999.0 1240.0Q2024 1215 2038.5 1181.5Q2053 1148 2053 1110Q2053 1053 2021 1006H2340Q2385 1006 2424.0 989.0Q2463 972 2492.5 943.0Q2522 914 2539.0 875.0Q2556 836 2556 791Q2556 745 2537.0 703.0Q2518 661 2484 630Z" style="fill:#000000;stroke:none" transform="scale(1,-1) translate(0,-256)" /></svg>