<?xml version="1.0" encoding="utf-8" ?>
<svg baseProfile="full" height="256" version="1.1" width="256" xmlns="http://www.w3.org/2000/svg" xmlns:ev="http://www.w3.org/2001/xml-events" xmlns:xlink="http://www.w3.org/1999/xlink"><defs /><path d="M1083 1078Q1177 1078 1264.5 1053.5Q1352 1029 1427.5 985.0Q1503 941 1565.5 878.5Q1628 816 1672.0 740.5Q1716 665 1740.5 577.5Q1765 490 1765 396Q1765 302 1740.5 214.5Q1716 127 1672.0 51.0Q1628 -25 1565.5 -87.0Q1503 -149 1427.5 -193.5Q1352 -238 1264.5 -262.5Q1177 -287 1083 -287Q988 -287 901.0 -262.5Q814 -238 738.0 -194.0Q662 -150 599.5 -87.5Q537 -25 493.0 51.0Q449 127 424.5 214.5Q400 302 400 396Q400 490 424.5 577.5Q449 665 493.5 740.5Q538 816 600.0 878.5Q662 941 738.0 985.0Q814 1029 901.5 1053.5Q989 1078 1083 1078ZM867 144Q889 144 908.5 152.5Q928 161 943.0 176.0Q958 191 966.5 210.5Q975 230 975 252Q975 274 966.5 293.5Q958 313 943.0 328.0Q928 343 908.5 351.5Q889 360 867 360Q845 360 825.5 351.5Q806 343 791.0 328.0Q776 313 767.5 293.5Q759 274 759 252Q759 229 767.5 209.5Q776 190 790.5 175.5Q805 161 824.5 152.5Q844 144 867 144ZM1082 503Q1104 503 1123.5 511.5Q1143 520 1158.0 535.0Q1173 550 1181.5 569.5Q1190 589 1190 611Q1190 633 1181.5 653.0Q1173 673 1158.5 687.5Q1144 702 1124.0 710.5Q1104 719 1082 719Q1059 719 1039.5 710.5Q1020 702 1006.0 687.0Q992 672 983.5 652.5Q975 633 975 611Q975 589 983.5 569.5Q992 550 1006.5 535.0Q1021 520 1040.5 511.5Q1060 503 1082 503ZM1298 144Q1320 144 1340.0 152.5Q1360 161 1374.5 175.5Q1389 190 1397.5 209.5Q1406 229 1406 252Q1406 274 1397.5 293.5Q1389 313 1374.0 328.0Q1359 343 1339.5 351.5Q1320 360 1298 360Q1276 360 1256.5 351.5Q1237 343 1222.0 328.0Q1207 313 1198.5 293.5Q1190 274 1190 252Q1190 230 1198.5 210.5Q1207 191 1222.0 176.0Q1237 161 1256.5 152.5Q1276 144 1298 144Z" style="fill:#757575;stroke:none" transform="scale(1,-1) translate(0,-256)" /></svg>