<?xml version="1.0" encoding="utf-8" ?>
<svg baseProfile="full" height="256" version="1.1" width="256" xmlns="http://www.w3.org/2000/svg" xmlns:ev="http://www.w3.org/2001/xml-events" xmlns:xlink="http://www.w3.org/1999/xlink"><defs /><path d="M2197 792Q2246 766 2285.5 728.5Q2325 691 2353.0 645.5Q2381 600 2396.5 547.5Q2412 495 2412 440Q2412 408 2406.5 376.5Q2401 345 2391 314L2197 -287H1837L1645 308Q1634 341 1628.0 373.0Q1622 405 1622 440Q1622 496 1637.0 548.0Q1652 600 1680.0 646.0Q1708 692 1748.0 729.0Q1788 766 1837 792L1887 863L1837 935V1080L1887 1150L1837 1222V1226Q1802 1261 1783.5 1307.0Q1765 1353 1765 1402Q1765 1454 1785.0 1500.0Q1805 1546 1839.0 1580.0Q1873 1614 1919.0 1633.5Q1965 1653 2017 1653Q2069 1653 2115.0 1633.5Q2161 1614 2195.0 1580.0Q2229 1546 2248.5 1500.0Q2268 1454 2268 1402Q2268 1353 2249.5 1307.0Q2231 1261 2197 1226V1222L2147 1158L2197 1078V936L2147 863Z" style="fill:#ffffff;stroke:none" transform="scale(1,-1) translate(0,-256)" /></svg>