<?xml version="1.0" encoding="utf-8" ?>
<svg baseProfile="full" height="256" version="1.1" width="256" xmlns="http://www.w3.org/2000/svg" xmlns:ev="http://www.w3.org/2001/xml-events" xmlns:xlink="http://www.w3.org/1999/xlink"><defs /><path d="M1733 -431 1657 -198Q1600 -255 1533.0 -298.5Q1466 -342 1393.0 -371.5Q1320 -401 1241.5 -416.0Q1163 -431 1083 -431Q969 -431 863.5 -401.5Q758 -372 666.0 -318.0Q574 -264 498.5 -188.5Q423 -113 369.0 -21.0Q315 71 285.5 176.5Q256 282 256 396Q256 510 285.5 615.5Q315 721 369.0 812.5Q423 904 498.5 979.5Q574 1055 666.0 1109.0Q758 1163 863.5 1192.5Q969 1222 1083 1222Q1092 1222 1101.0 1222.0Q1110 1222 1119 1221V1247Q1084 1297 1065.5 1355.5Q1047 1414 1047 1475Q1047 1557 1078.0 1629.0Q1109 1701 1162.5 1754.0Q1216 1807 1288.0 1838.0Q1360 1869 1442 1869Q1489 1869 1535.0 1858.0Q1581 1847 1622.5 1826.0Q1664 1805 1700.0 1774.5Q1736 1744 1763 1705Q1817 1750 1882.0 1773.5Q1947 1797 2017 1797Q2099 1797 2171.0 1766.0Q2243 1735 2296.0 1681.5Q2349 1628 2380.0 1556.0Q2411 1484 2411 1402Q2411 1341 2393.0 1283.0Q2375 1225 2340 1175V871Q2391 833 2431.0 785.0Q2471 737 2498.5 681.0Q2526 625 2541.0 564.0Q2556 503 2556 440Q2556 352 2528 268L2301 -431Z" style="fill:#000000;stroke:none" transform="scale(1,-1) translate(0,-256)" /></svg>