<?xml version="1.0" encoding="utf-8" ?>
<svg baseProfile="full" height="256" version="1.1" width="256" xmlns="http://www.w3.org/2000/svg" xmlns:ev="http://www.w3.org/2001/xml-events" xmlns:xlink="http://www.w3.org/1999/xlink"><defs /><path d="M1442 1725Q1494 1725 1540.0 1705.5Q1586 1686 1620.0 1652.0Q1654 1618 1673.5 1572.0Q1693 1526 1693 1474Q1693 1424 1675.0 1378.5Q1657 1333 1622 1298V1294L1572 1222L1622 1150V1006L1519 863H1262V1150L1312 1222L1262 1294V1298Q1227 1333 1209.0 1378.5Q1191 1424 1191 1473Q1191 1525 1211.0 1570.5Q1231 1616 1265.0 1650.5Q1299 1685 1344.5 1705.0Q1390 1725 1442 1725Z" style="fill:#ffffff;stroke:none" transform="scale(1,-1) translate(0,-256)" /></svg>