<?xml version="1.0" encoding="utf-8" ?>
<svg baseProfile="full" height="256" version="1.1" width="256" xmlns="http://www.w3.org/2000/svg" xmlns:ev="http://www.w3.org/2001/xml-events" xmlns:xlink="http://www.w3.org/1999/xlink"><defs /><path d="M1801 863Q1816 863 1826.5 852.5Q1837 842 1837 827Q1837 812 1826.5 801.5Q1816 791 1801 791Q1786 791 1775.5 801.5Q1765 812 1765 827Q1765 842 1775.5 852.5Q1786 863 1801 863ZM1801 1006Q1815 1006 1826.0 995.5Q1837 985 1837 971Q1837 956 1826.5 945.5Q1816 935 1801 935Q1786 935 1775.5 945.5Q1765 956 1765 971Q1765 985 1776.0 995.5Q1787 1006 1801 1006ZM1945 1006Q1959 1006 1970.0 995.5Q1981 985 1981 971Q1981 956 1970.5 945.5Q1960 935 1945 935Q1930 935 1919.5 945.5Q1909 956 1909 971Q1909 985 1920.0 995.5Q1931 1006 1945 1006Z" style="fill:#eba300;stroke:none" transform="scale(1,-1) translate(0,-256)" /></svg>