<?xml version="1.0" encoding="utf-8" ?>
<svg baseProfile="full" height="256" version="1.1" width="256" xmlns="http://www.w3.org/2000/svg" xmlns:ev="http://www.w3.org/2001/xml-events" xmlns:xlink="http://www.w3.org/1999/xlink"><defs /><path d="M1027 1155Q1027 1130 1010.5 1114.0Q994 1098 969 1098Q960 1098 951.0 1100.5Q942 1103 934 1109L694 1294H759Q783 1294 797.5 1303.0Q812 1312 819.5 1326.5Q827 1341 829.0 1359.5Q831 1378 831 1397V1431L1016 1191Q1027 1177 1027 1155ZM889 976Q889 952 872.0 934.5Q855 917 831 917Q818 917 809 921L529 1037Q548 1042 568.5 1046.5Q589 1051 606.0 1060.0Q623 1069 634.0 1084.0Q645 1099 645 1124Q645 1144 638.0 1165.0Q631 1186 626 1206L867 1021Q889 1004 889 976ZM802 765Q802 742 785.0 724.0Q768 706 744 706L436 747Q451 756 467.0 764.0Q483 772 497.0 782.5Q511 793 520.0 807.5Q529 822 529 842Q529 868 513.5 891.5Q498 915 486 935L766 818Q782 811 792.0 797.0Q802 783 802 765ZM772 539Q772 517 758.0 501.0Q744 485 722 482L421 442Q431 452 443.0 462.5Q455 473 465.5 484.5Q476 496 482.5 509.5Q489 523 489 539Q489 555 482.5 568.5Q476 582 465.5 593.5Q455 605 443.0 615.5Q431 626 421 636L722 597Q744 594 758.0 577.5Q772 561 772 539ZM745 372Q769 372 785.5 354.5Q802 337 802 314Q802 296 792.0 281.5Q782 267 766 260L486 144Q492 154 499.0 165.0Q506 176 513.0 187.5Q520 199 524.5 211.5Q529 224 529 236Q529 256 520.0 270.5Q511 285 497.0 295.5Q483 306 467.0 314.5Q451 323 436 332ZM832 161Q856 161 872.5 144.0Q889 127 889 103Q889 75 867 58L626 -127Q631 -107 638.0 -86.5Q645 -66 645 -46Q645 -21 634.0 -6.0Q623 9 606.0 17.5Q589 26 568.5 31.0Q548 36 529 41L809 157Q818 161 832 161ZM2021 1236Q1997 1236 1980.5 1252.5Q1964 1269 1964 1293Q1964 1307 1968 1316L2084 1596Q2089 1577 2094.0 1556.5Q2099 1536 2107.5 1519.0Q2116 1502 2130.5 1491.0Q2145 1480 2171 1480Q2191 1480 2211.5 1487.0Q2232 1494 2252 1499L2067 1258Q2050 1236 2021 1236ZM1811 1323Q1788 1323 1770.5 1339.5Q1753 1356 1753 1380L1793 1689Q1802 1674 1810.0 1657.5Q1818 1641 1828.5 1627.5Q1839 1614 1853.5 1605.0Q1868 1596 1888 1596Q1901 1596 1913.0 1600.5Q1925 1605 1937.0 1612.0Q1949 1619 1960.0 1626.0Q1971 1633 1981 1639L1865 1359Q1858 1343 1843.5 1333.0Q1829 1323 1811 1323ZM1586 1352Q1564 1352 1547.5 1366.5Q1531 1381 1528 1403L1488 1704Q1498 1694 1508.5 1682.0Q1519 1670 1531.0 1660.0Q1543 1650 1556.0 1643.0Q1569 1636 1585 1636Q1601 1636 1614.5 1643.0Q1628 1650 1640.0 1660.0Q1652 1670 1662.5 1682.0Q1673 1694 1683 1704L1643 1403Q1640 1381 1624.0 1366.5Q1608 1352 1586 1352ZM1418 1382Q1418 1357 1401.0 1340.0Q1384 1323 1360 1323Q1342 1323 1328.0 1333.0Q1314 1343 1307 1359L1190 1639Q1210 1627 1233.5 1611.5Q1257 1596 1283 1596Q1303 1596 1317.5 1605.0Q1332 1614 1342.5 1627.5Q1353 1641 1361.0 1657.5Q1369 1674 1378 1689L1418 1388ZM1208 1294Q1208 1270 1191.5 1253.0Q1175 1236 1150 1236Q1121 1236 1104 1258L919 1499Q939 1494 960.0 1487.0Q981 1480 1001 1480Q1026 1480 1041.0 1491.0Q1056 1502 1065.0 1519.0Q1074 1536 1078.5 1556.5Q1083 1577 1088 1596L1204 1316Q1208 1307 1208 1294Z" style="fill:#ffb900;stroke:none" transform="scale(1,-1) translate(0,-256)" /></svg>