<?xml version="1.0" encoding="utf-8" ?>
<svg baseProfile="full" height="256" version="1.1" width="256" xmlns="http://www.w3.org/2000/svg" xmlns:ev="http://www.w3.org/2001/xml-events" xmlns:xlink="http://www.w3.org/1999/xlink"><defs /><path d="M903 540Q903 634 927.5 721.5Q952 809 996.0 884.5Q1040 960 1102.0 1022.5Q1164 1085 1240.0 1129.0Q1316 1173 1403.0 1197.5Q1490 1222 1585 1222Q1718 1222 1842.0 1172.5Q1966 1123 2061 1029Q2078 1012 2094.0 994.5Q2110 977 2110 950Q2110 920 2089 899L1226 36Q1205 15 1175 15Q1148 15 1130.5 31.0Q1113 47 1096 64Q1003 159 953.0 283.0Q903 407 903 540Z" style="fill:#ffd679;stroke:none" transform="scale(1,-1) translate(0,-256)" /></svg>