<?xml version="1.0" encoding="utf-8" ?>
<svg baseProfile="full" height="256" version="1.1" width="256" xmlns="http://www.w3.org/2000/svg" xmlns:ev="http://www.w3.org/2001/xml-events" xmlns:xlink="http://www.w3.org/1999/xlink"><defs /><path d="M1976 1006Q2096 1006 2201.5 961.5Q2307 917 2386.0 839.0Q2465 761 2510.5 656.0Q2556 551 2556 431V216Q2556 97 2510.5 -7.5Q2465 -112 2387.0 -190.0Q2309 -268 2204.5 -313.5Q2100 -359 1981 -359Q1856 -359 1744.0 -308.5Q1632 -258 1550 -164V-431H256V360Q256 449 279.0 531.5Q302 614 344.5 685.5Q387 757 446.0 816.5Q505 876 577.0 918.0Q649 960 731.5 983.0Q814 1006 903 1006Q924 1006 945.0 1005.0Q966 1004 987 1001Q944 1041 909.0 1080.5Q874 1120 849.0 1163.0Q824 1206 810.0 1256.0Q796 1306 796 1368Q796 1458 830.5 1536.5Q865 1615 924.0 1672.5Q983 1730 1062.0 1763.5Q1141 1797 1230 1797Q1297 1797 1360.5 1777.5Q1424 1758 1479 1720Q1533 1758 1597.0 1777.5Q1661 1797 1727 1797Q1816 1797 1895.0 1763.5Q1974 1730 2033.0 1672.5Q2092 1615 2126.5 1536.5Q2161 1458 2161 1368Q2161 1306 2147.5 1257.0Q2134 1208 2110.0 1166.0Q2086 1124 2052.0 1085.5Q2018 1047 1976 1006Z" style="fill:#000000;stroke:none" transform="scale(1,-1) translate(0,-256)" /></svg>