<?xml version="1.0" encoding="utf-8" ?>
<svg baseProfile="full" height="256" version="1.1" width="256" xmlns="http://www.w3.org/2000/svg" xmlns:ev="http://www.w3.org/2001/xml-events" xmlns:xlink="http://www.w3.org/1999/xlink"><defs /><path d="M1727 1653Q1787 1653 1839.5 1631.0Q1892 1609 1932.0 1570.5Q1972 1532 1995.0 1480.0Q2018 1428 2018 1368Q2018 1311 1996.0 1258.5Q1974 1206 1933 1166L1479 719L1024 1166Q983 1206 961.0 1258.5Q939 1311 939 1368Q939 1428 962.0 1480.0Q985 1532 1025.0 1570.5Q1065 1609 1117.5 1631.0Q1170 1653 1230 1653Q1273 1653 1306.5 1644.0Q1340 1635 1368.5 1618.5Q1397 1602 1423.5 1578.5Q1450 1555 1479 1527Q1507 1555 1533.5 1578.5Q1560 1602 1589.0 1618.5Q1618 1635 1651.5 1644.0Q1685 1653 1727 1653Z" style="fill:#f03a17;stroke:none" transform="scale(1,-1) translate(0,-256)" /></svg>