<?xml version="1.0" encoding="utf-8" ?>
<svg baseProfile="full" height="256" version="1.1" width="256" xmlns="http://www.w3.org/2000/svg" xmlns:ev="http://www.w3.org/2001/xml-events" xmlns:xlink="http://www.w3.org/1999/xlink"><defs /><path d="M400 -287V360Q400 464 439.5 555.5Q479 647 547.5 715.5Q616 784 707.5 823.5Q799 863 903 863Q1007 863 1098.5 823.5Q1190 784 1258.5 715.5Q1327 647 1366.5 555.5Q1406 464 1406 360V-287ZM2412 360Q2404 324 2388.5 287.5Q2373 251 2362 216Q2359 207 2358.0 202.0Q2357 197 2357 194Q2357 190 2358.0 189.5Q2359 189 2359 187Q2359 185 2357.0 180.5Q2355 176 2349 165Q2328 126 2282.5 101.0Q2237 76 2183.0 62.0Q2129 48 2074.5 42.5Q2020 37 1981 37Q1942 37 1887.5 42.5Q1833 48 1779.0 62.0Q1725 76 1679.5 101.0Q1634 126 1613 165Q1607 176 1605.5 181.0Q1604 186 1603.5 190.0Q1603 194 1603.0 199.0Q1603 204 1600 216Q1599 221 1595.0 238.5Q1591 256 1585.5 279.5Q1580 303 1573.5 329.0Q1567 355 1562.0 377.5Q1557 400 1553.5 415.0Q1550 430 1550 431Q1550 520 1583.5 599.0Q1617 678 1675.5 736.5Q1734 795 1812.5 829.0Q1891 863 1981 863Q2071 863 2149.5 829.0Q2228 795 2286.5 736.5Q2345 678 2378.5 599.0Q2412 520 2412 431Z" style="fill:#8e562e;stroke:none" transform="scale(1,-1) translate(0,-256)" /></svg>