<?xml version="1.0" encoding="utf-8" ?>
<svg baseProfile="full" height="256" version="1.1" width="256" xmlns="http://www.w3.org/2000/svg" xmlns:ev="http://www.w3.org/2001/xml-events" xmlns:xlink="http://www.w3.org/1999/xlink"><defs /><path d="M723 283Q755 283 777.5 305.5Q800 328 800 360H831V344Q831 322 822.5 302.5Q814 283 799.0 268.0Q784 253 764.5 244.5Q745 236 723 236Q701 236 681.5 244.5Q662 253 647.0 268.0Q632 283 623.5 302.5Q615 322 615 344V360H646Q646 328 668.5 305.5Q691 283 723 283ZM1154 283Q1186 283 1208.5 305.5Q1231 328 1231 360H1262V344Q1262 322 1253.5 302.5Q1245 283 1230.0 268.0Q1215 253 1195.5 244.5Q1176 236 1154 236Q1132 236 1112.5 244.5Q1093 253 1078.5 268.0Q1064 283 1055.5 302.5Q1047 322 1047 344V360H1077Q1077 328 1099.5 305.5Q1122 283 1154 283ZM1729 283Q1761 283 1783.5 305.5Q1806 328 1806 360H1837V344Q1837 322 1828.5 302.5Q1820 283 1805.0 268.0Q1790 253 1770.5 244.5Q1751 236 1729 236Q1707 236 1687.5 244.5Q1668 253 1653.5 268.0Q1639 283 1630.5 302.5Q1622 322 1622 344V360H1652Q1652 328 1674.5 305.5Q1697 283 1729 283ZM2268 360V344Q2268 322 2259.5 302.5Q2251 283 2236.5 268.0Q2222 253 2202.5 244.5Q2183 236 2161 236Q2139 236 2119.5 244.5Q2100 253 2085.0 268.0Q2070 283 2061.5 302.5Q2053 322 2053 344V360H2084Q2084 328 2106.5 305.5Q2129 283 2161 283Q2193 283 2215.5 305.5Q2238 328 2238 360Z" style="fill:#000000;stroke:none" transform="scale(1,-1) translate(0,-256)" /></svg>