<?xml version="1.0" encoding="utf-8" ?>
<svg baseProfile="full" height="256" version="1.1" width="256" xmlns="http://www.w3.org/2000/svg" xmlns:ev="http://www.w3.org/2001/xml-events" xmlns:xlink="http://www.w3.org/1999/xlink"><defs /><path d="M2556 1376Q2556 1274 2531.0 1161.5Q2506 1049 2459.5 943.5Q2413 838 2345.5 746.5Q2278 655 2193 594Q2228 563 2248.5 521.0Q2269 479 2269 431Q2269 403 2261.5 376.5Q2254 350 2240 326Q2286 296 2313.5 248.0Q2341 200 2341 144Q2341 99 2324.0 60.0Q2307 21 2277.5 -8.5Q2248 -38 2209.0 -55.0Q2170 -72 2125 -72Q1855 -72 1592.5 -115.0Q1330 -158 1073 -243L756 -348Q721 -359 687 -359Q642 -359 603.0 -342.0Q564 -325 535.0 -295.5Q506 -266 489.0 -227.0Q472 -188 472 -143Q472 -97 487.0 -61.0Q502 -25 528.5 1.5Q555 28 590.5 46.5Q626 65 667 77Q643 106 629 141Q599 108 558.0 90.0Q517 72 472 72Q427 72 388.0 89.0Q349 106 319.5 135.5Q290 165 273.0 204.5Q256 244 256 289Q256 321 267 356L516 1102Q462 1131 431.0 1181.5Q400 1232 400 1293Q400 1336 416.5 1376.0Q433 1416 463 1446L751 1734Q814 1797 903 1797Q964 1797 1014.0 1767.5Q1064 1738 1093 1684Q1154 1735 1227.0 1766.0Q1300 1797 1380 1797Q1440 1797 1491.0 1780.0Q1542 1763 1584.5 1731.5Q1627 1700 1660.0 1656.5Q1693 1613 1717 1560Q1754 1618 1802.0 1674.0Q1850 1730 1907.0 1773.0Q1964 1816 2030.0 1842.5Q2096 1869 2170 1869Q2271 1869 2344.0 1825.0Q2417 1781 2464.0 1710.5Q2511 1640 2533.5 1552.0Q2556 1464 2556 1376Z" style="fill:#000000;stroke:none" transform="scale(1,-1) translate(0,-256)" /></svg>