<?xml version="1.0" encoding="utf-8" ?>
<svg baseProfile="full" height="256" version="1.1" width="256" xmlns="http://www.w3.org/2000/svg" xmlns:ev="http://www.w3.org/2001/xml-events" xmlns:xlink="http://www.w3.org/1999/xlink"><defs /><path d="M1145 575Q1099 575 1063.5 590.5Q1028 606 1001.0 632.0Q974 658 955.5 692.5Q937 727 925.0 765.5Q913 804 908.0 844.5Q903 885 903 923Q903 998 917.0 1071.0Q931 1144 955 1214Q970 1257 993.0 1306.5Q1016 1356 1045.5 1404.5Q1075 1453 1111.5 1498.0Q1148 1543 1190.0 1577.5Q1232 1612 1280.0 1632.5Q1328 1653 1380 1653Q1449 1653 1495.5 1620.0Q1542 1587 1570.0 1536.0Q1598 1485 1610.0 1423.5Q1622 1362 1622 1305Q1622 1230 1608.0 1157.5Q1594 1085 1570 1014Q1555 970 1532.5 921.0Q1510 872 1480.5 823.0Q1451 774 1414.5 729.0Q1378 684 1335.5 650.0Q1293 616 1245.5 595.5Q1198 575 1145 575ZM1936 647Q1890 647 1854.5 662.5Q1819 678 1792.0 704.0Q1765 730 1746.5 764.5Q1728 799 1716.0 837.5Q1704 876 1699.0 916.5Q1694 957 1694 995Q1694 1070 1708.0 1143.0Q1722 1216 1746 1286Q1761 1329 1783.5 1378.0Q1806 1427 1836.0 1476.0Q1866 1525 1902.5 1570.0Q1939 1615 1981.0 1649.5Q2023 1684 2070.5 1704.5Q2118 1725 2170 1725Q2239 1725 2285.5 1692.5Q2332 1660 2360.0 1609.0Q2388 1558 2400.0 1497.0Q2412 1436 2412 1379Q2412 1304 2398.0 1231.0Q2384 1158 2360 1086Q2345 1042 2322.5 993.0Q2300 944 2270.5 895.0Q2241 846 2204.5 801.0Q2168 756 2126.0 722.0Q2084 688 2036.0 667.5Q1988 647 1936 647ZM472 216Q442 216 421.0 236.5Q400 257 400 287Q400 299 404 310L739 1315L666 1243Q645 1222 615 1222Q586 1222 565.0 1243.5Q544 1265 544 1294Q544 1324 565 1345L852 1632Q873 1653 903 1653Q932 1653 953.5 1632.0Q975 1611 975 1582Q975 1570 971 1559L540 265Q532 243 513.5 229.5Q495 216 472 216ZM1379 1510Q1346 1510 1315.0 1492.0Q1284 1474 1255.0 1444.5Q1226 1415 1200.0 1378.0Q1174 1341 1153.0 1303.0Q1132 1265 1116.0 1229.5Q1100 1194 1091 1167Q1071 1107 1059.0 1046.5Q1047 986 1047 923Q1047 900 1050.5 865.5Q1054 831 1065.0 798.5Q1076 766 1095.0 742.5Q1114 719 1146 719Q1178 719 1209.5 737.0Q1241 755 1270.0 784.0Q1299 813 1325.0 850.0Q1351 887 1372.0 925.0Q1393 963 1409.0 998.5Q1425 1034 1434 1061Q1454 1121 1466.0 1182.0Q1478 1243 1478 1306Q1478 1329 1474.5 1363.5Q1471 1398 1460.0 1430.5Q1449 1463 1429.5 1486.5Q1410 1510 1379 1510ZM2170 1581Q2137 1581 2106.0 1563.0Q2075 1545 2046.0 1516.0Q2017 1487 1991.0 1450.0Q1965 1413 1944.0 1375.0Q1923 1337 1907.0 1301.0Q1891 1265 1882 1239Q1861 1179 1849.5 1117.5Q1838 1056 1838 993Q1838 970 1841.5 935.5Q1845 901 1855.5 869.0Q1866 837 1885.5 814.0Q1905 791 1937 791Q1969 791 2000.0 809.0Q2031 827 2060.0 856.5Q2089 886 2115.0 923.0Q2141 960 2162.0 998.0Q2183 1036 2199.0 1071.5Q2215 1107 2224 1133Q2244 1193 2256.5 1255.0Q2269 1317 2269 1380Q2269 1403 2265.5 1437.0Q2262 1471 2251.0 1503.0Q2240 1535 2220.5 1558.0Q2201 1581 2170 1581ZM687 -216Q657 -216 636.5 -194.5Q616 -173 616 -144Q616 -121 629.0 -102.0Q642 -83 665 -75L982 30Q1262 122 1546.0 169.0Q1830 216 2125 216Q2155 216 2176.0 195.0Q2197 174 2197 144Q2197 114 2176.0 93.0Q2155 72 2125 72Q1845 72 1568.5 28.5Q1292 -15 1027 -106Q1012 -111 984.0 -121.5Q956 -132 921.5 -144.0Q887 -156 850.0 -169.0Q813 -182 780.5 -192.5Q748 -203 722.5 -209.5Q697 -216 687 -216ZM831 144Q802 144 780.5 165.5Q759 187 759 216Q759 242 775.5 259.0Q792 276 815.5 287.5Q839 299 865.0 305.5Q891 312 910 318Q1057 363 1196.0 397.5Q1335 432 1474.0 455.5Q1613 479 1755.5 491.0Q1898 503 2053 503Q2083 503 2104.0 482.0Q2125 461 2125 431Q2125 402 2103.5 380.5Q2082 359 2053 359Q1773 359 1496.5 315.5Q1220 272 955 181Q942 176 926.0 170.0Q910 164 893.5 158.0Q877 152 860.5 148.0Q844 144 831 144Z" style="fill:#f03a17;stroke:none" transform="scale(1,-1) translate(0,-256)" /></svg>