<?xml version="1.0" encoding="utf-8" ?>
<svg baseProfile="full" height="256" version="1.1" width="256" xmlns="http://www.w3.org/2000/svg" xmlns:ev="http://www.w3.org/2001/xml-events" xmlns:xlink="http://www.w3.org/1999/xlink"><defs /><path d="M975 1150Q975 1180 986.0 1206.0Q997 1232 1016.5 1251.5Q1036 1271 1062.0 1282.5Q1088 1294 1118 1294Q1237 1294 1347.5 1263.0Q1458 1232 1554.0 1176.0Q1650 1120 1728.5 1041.5Q1807 963 1863.0 867.0Q1919 771 1950.0 660.5Q1981 550 1981 431Q1981 401 1969.5 375.0Q1958 349 1938.5 329.5Q1919 310 1893.0 299.0Q1867 288 1837 288Q1718 288 1607.5 318.5Q1497 349 1401.5 405.5Q1306 462 1227.5 540.5Q1149 619 1092.5 714.5Q1036 810 1005.5 920.5Q975 1031 975 1150ZM1765 144 1819 162 1837 216 1855 162 1909 144 1855 126 1837 72 1819 126ZM1622 180 1649 189 1658 216 1666 189 1693 180 1666 171 1658 144 1649 171Z" style="fill:#b4a0ff;stroke:none" transform="scale(1,-1) translate(0,-256)" /></svg>