<?xml version="1.0" encoding="utf-8" ?>
<svg baseProfile="full" height="256" version="1.1" width="256" xmlns="http://www.w3.org/2000/svg" xmlns:ev="http://www.w3.org/2001/xml-events" xmlns:xlink="http://www.w3.org/1999/xlink"><defs /><path d="M1334 1078Q1423 1078 1501.5 1044.0Q1580 1010 1638.5 951.5Q1697 893 1731.0 814.5Q1765 736 1765 647Q1765 617 1754.0 591.0Q1743 565 1723.5 545.5Q1704 526 1678.0 514.5Q1652 503 1622 503Q1532 503 1453.5 537.0Q1375 571 1316.5 629.5Q1258 688 1224.0 766.5Q1190 845 1190 935Q1190 965 1201.5 991.0Q1213 1017 1232.5 1036.5Q1252 1056 1278.0 1067.0Q1304 1078 1334 1078ZM1047 1150 1100 1168 1118 1222 1136 1168 1190 1150 1136 1132 1118 1078 1100 1132ZM1262 1186 1289 1195 1298 1222 1307 1195 1334 1186 1307 1177 1298 1150 1289 1177Z" style="fill:#ffffff;stroke:none" transform="scale(1,-1) translate(0,-256)" /></svg>