<?xml version="1.0" encoding="utf-8" ?>
<svg baseProfile="full" height="256" version="1.1" width="256" xmlns="http://www.w3.org/2000/svg" xmlns:ev="http://www.w3.org/2001/xml-events" xmlns:xlink="http://www.w3.org/1999/xlink"><defs /><path d="M2556 144Q2556 25 2510.5 -79.5Q2465 -184 2387.0 -262.0Q2309 -340 2204.0 -385.5Q2099 -431 1981 -431Q1845 -431 1712.0 -410.0Q1579 -389 1450 -347Q1425 -386 1385.0 -408.5Q1345 -431 1298 -431H1118Q1083 -431 1050.0 -420.0Q1017 -409 990.0 -388.5Q963 -368 942.5 -340.0Q922 -312 912 -278Q887 -270 867.0 -257.5Q847 -245 827 -228Q692 -112 585.5 40.5Q479 193 406.0 364.5Q333 536 294.5 719.0Q256 902 256 1078V1294Q256 1412 301.5 1517.0Q347 1622 425.0 1700.0Q503 1778 607.5 1823.5Q712 1869 831 1869Q967 1869 1100.0 1848.0Q1233 1827 1362 1785Q1387 1824 1427.0 1846.5Q1467 1869 1514 1869H1693Q1729 1869 1761.5 1857.5Q1794 1846 1821.0 1826.0Q1848 1806 1868.5 1778.0Q1889 1750 1900 1716Q1933 1705 1968.0 1678.5Q2003 1652 2036.0 1619.0Q2069 1586 2098.5 1551.0Q2128 1516 2150 1489Q2349 1241 2452.5 959.5Q2556 678 2556 360Z" style="fill:#000000;stroke:none" transform="scale(1,-1) translate(0,-256)" /></svg>