<?xml version="1.0" encoding="utf-8" ?>
<svg baseProfile="full" height="256" version="1.1" width="256" xmlns="http://www.w3.org/2000/svg" xmlns:ev="http://www.w3.org/2001/xml-events" xmlns:xlink="http://www.w3.org/1999/xlink"><defs /><path d="M1909 -144Q1730 -144 1565.0 -97.5Q1400 -51 1256.0 33.0Q1112 117 994.0 235.0Q876 353 792.0 497.0Q708 641 661.5 806.0Q615 971 615 1150Q615 1224 643.5 1289.5Q672 1355 721.0 1404.0Q770 1453 835.5 1481.5Q901 1510 975 1510Q1114 1510 1242.5 1474.0Q1371 1438 1483.0 1372.5Q1595 1307 1686.5 1215.0Q1778 1123 1843.5 1011.0Q1909 899 1945.0 770.5Q1981 642 1981 503Q1981 474 1959.5 452.5Q1938 431 1909 431Q1880 431 1858.5 452.5Q1837 474 1837 503Q1837 622 1806.0 732.0Q1775 842 1719.0 938.0Q1663 1034 1584.0 1113.0Q1505 1192 1409.5 1248.0Q1314 1304 1204.0 1335.0Q1094 1366 975 1366Q930 1366 891.0 1349.0Q852 1332 822.5 1302.5Q793 1273 776.0 1234.0Q759 1195 759 1150Q759 991 800.0 844.5Q841 698 916.0 570.0Q991 442 1096.0 337.0Q1201 232 1329.0 157.0Q1457 82 1603.5 41.0Q1750 0 1909 0Q1983 0 2048.5 28.5Q2114 57 2162.5 106.0Q2211 155 2239.5 220.5Q2268 286 2268 360Q2268 613 2188.5 845.5Q2109 1078 1952 1276Q1914 1324 1872.0 1367.5Q1830 1411 1788 1457Q1777 1470 1771.0 1481.5Q1765 1493 1765 1510Q1765 1539 1786.5 1560.5Q1808 1582 1837 1582Q1852 1582 1864.0 1577.0Q1876 1572 1887 1562Q1950 1508 2003.5 1443.5Q2057 1379 2105 1311Q2258 1096 2335.0 860.0Q2412 624 2412 360Q2412 256 2372.5 164.5Q2333 73 2264.5 4.5Q2196 -64 2104.5 -104.0Q2013 -144 1909 -144ZM615 1366 561 1348 543 1294 525 1348 472 1366 525 1384 543 1438 561 1384ZM1622 1653 1675 1671 1693 1725 1711 1671 1765 1653 1711 1635 1693 1581 1675 1635ZM1478 1689 1505 1698 1514 1725 1523 1698 1550 1689 1523 1680 1514 1653 1505 1680ZM687 1546 660 1537 651 1510 642 1537 615 1546 642 1554 651 1581 660 1554Z" style="fill:#3a96dd;stroke:none" transform="scale(1,-1) translate(0,-256)" /></svg>