<?xml version="1.0" encoding="utf-8" ?>
<svg baseProfile="full" height="256" version="1.1" width="256" xmlns="http://www.w3.org/2000/svg" xmlns:ev="http://www.w3.org/2001/xml-events" xmlns:xlink="http://www.w3.org/1999/xlink"><defs /><path d="M831 1725Q1049 1725 1251.5 1668.5Q1454 1612 1629.5 1509.0Q1805 1406 1949.0 1262.0Q2093 1118 2196.0 942.5Q2299 767 2355.5 565.0Q2412 363 2412 144Q2412 55 2378.0 -23.5Q2344 -102 2285.5 -160.5Q2227 -219 2148.5 -253.0Q2070 -287 1981 -287Q1813 -287 1651.0 -252.5Q1489 -218 1339.0 -152.0Q1189 -86 1054.5 11.0Q920 108 808 233Q841 185 877.0 139.5Q913 94 953 52Q970 34 989.0 17.0Q1008 0 1025 -19Q1047 -43 1047 -72Q1047 -101 1025.5 -122.5Q1004 -144 975 -144Q949 -144 926 -124Q862 -71 808.5 -5.5Q755 60 707 127Q556 340 478.0 578.5Q400 817 400 1078V1294Q400 1383 434.0 1461.5Q468 1540 526.5 1598.5Q585 1657 663.5 1691.0Q742 1725 831 1725ZM1047 -215 1100 -197 1118 -144 1136 -197 1190 -215 1136 -233 1118 -287 1100 -233ZM1262 -251 1289 -242 1298 -215 1307 -242 1334 -251 1307 -260 1298 -287 1289 -260Z" style="fill:#0078d7;stroke:none" transform="scale(1,-1) translate(0,-256)" /></svg>