<?xml version="1.0" encoding="utf-8" ?>
<svg baseProfile="full" height="256" version="1.1" width="256" xmlns="http://www.w3.org/2000/svg" xmlns:ev="http://www.w3.org/2001/xml-events" xmlns:xlink="http://www.w3.org/1999/xlink"><defs /><path d="M1781 1006Q1737 958 1675 941L2179 437L2077 335Q1947 206 1786.0 139.0Q1625 72 1442 72Q1420 72 1398.5 73.0Q1377 74 1355 76L1374 0H1550V-431H256V0H431L544 451Q548 465 548.5 479.5Q549 494 552 508Q559 543 573.5 575.5Q588 608 608 637Q576 716 560.5 800.0Q545 884 545 969Q545 1152 611.5 1314.0Q678 1476 807 1606L908 1707L1413 1203Q1430 1267 1478 1310V1797H1622Q1711 1797 1793.5 1774.0Q1876 1751 1947.5 1708.5Q2019 1666 2078.5 1607.0Q2138 1548 2180.0 1476.0Q2222 1404 2245.0 1321.5Q2268 1239 2268 1150V1006Z" style="fill:#000000;stroke:none" transform="scale(1,-1) translate(0,-256)" /></svg>