<?xml version="1.0" encoding="utf-8" ?>
<svg baseProfile="full" height="256" version="1.1" width="256" xmlns="http://www.w3.org/2000/svg" xmlns:ev="http://www.w3.org/2001/xml-events" xmlns:xlink="http://www.w3.org/1999/xlink"><defs /><path d="M1622 1653Q1726 1653 1817.5 1613.5Q1909 1574 1977.5 1505.5Q2046 1437 2085.5 1345.5Q2125 1254 2125 1150H2053Q2053 1240 2019.5 1318.5Q1986 1397 1927.5 1455.5Q1869 1514 1790.5 1547.5Q1712 1581 1622 1581ZM1622 1438Q1681 1438 1733.5 1415.0Q1786 1392 1825.0 1353.0Q1864 1314 1886.5 1261.5Q1909 1209 1909 1150H1837Q1837 1195 1820.0 1234.0Q1803 1273 1774.0 1302.5Q1745 1332 1706.0 1349.0Q1667 1366 1622 1366Z" style="fill:#bad80a;stroke:none" transform="scale(1,-1) translate(0,-256)" /></svg>