<?xml version="1.0" encoding="utf-8" ?>
<svg baseProfile="full" height="256" version="1.1" width="256" xmlns="http://www.w3.org/2000/svg" xmlns:ev="http://www.w3.org/2001/xml-events" xmlns:xlink="http://www.w3.org/1999/xlink"><defs /><path d="M903 216Q858 216 819.0 233.0Q780 250 750.5 279.0Q721 308 704.0 347.0Q687 386 687 431Q687 476 704.0 515.0Q721 554 750.5 583.5Q780 613 819.0 630.0Q858 647 903 647Q948 647 987.0 630.0Q1026 613 1055.0 583.5Q1084 554 1101.0 515.0Q1118 476 1118 431Q1118 386 1101.0 347.0Q1084 308 1055.0 279.0Q1026 250 987.0 233.0Q948 216 903 216ZM400 -287V-144H1406V-287ZM1596 1176 1647 1125 1467 945 1416 996Z" style="fill:#cccccc;stroke:none" transform="scale(1,-1) translate(0,-256)" /></svg>