<?xml version="1.0" encoding="utf-8" ?>
<svg baseProfile="full" height="256" version="1.1" width="256" xmlns="http://www.w3.org/2000/svg" xmlns:ev="http://www.w3.org/2001/xml-events" xmlns:xlink="http://www.w3.org/1999/xlink"><defs /><path d="M903 503Q933 503 954.0 482.0Q975 461 975 431Q975 402 953.5 381.0Q932 360 903 360Q874 360 852.5 381.0Q831 402 831 431Q831 461 852.0 482.0Q873 503 903 503ZM1622 1222Q1651 1222 1672.0 1200.5Q1693 1179 1693 1150Q1693 1121 1672.0 1099.5Q1651 1078 1622 1078Q1593 1078 1571.5 1099.5Q1550 1121 1550 1150Q1550 1180 1571.0 1201.0Q1592 1222 1622 1222Z" style="fill:#f2f2f2;stroke:none" transform="scale(1,-1) translate(0,-256)" /></svg>