<?xml version="1.0" encoding="utf-8" ?>
<svg baseProfile="full" height="256" version="1.1" width="256" xmlns="http://www.w3.org/2000/svg" xmlns:ev="http://www.w3.org/2001/xml-events" xmlns:xlink="http://www.w3.org/1999/xlink"><defs /><path d="M831 -431Q712 -431 607.5 -385.5Q503 -340 425.0 -262.0Q347 -184 301.5 -79.5Q256 25 256 144V719H1047Q1047 845 1096.0 954.0Q1145 1063 1236 1151Q1195 1194 1171.5 1236.5Q1148 1279 1136.0 1322.5Q1124 1366 1121.0 1412.0Q1118 1458 1118 1509V1582Q1101 1605 1092.0 1632.5Q1083 1660 1083 1689Q1083 1726 1097.0 1759.0Q1111 1792 1135.5 1816.5Q1160 1841 1192.5 1855.0Q1225 1869 1262 1869H1981Q2018 1869 2051.0 1855.0Q2084 1841 2108.5 1816.5Q2133 1792 2147.0 1759.0Q2161 1726 2161 1689Q2161 1660 2151.5 1632.5Q2142 1605 2125 1582V1509Q2125 1458 2122.0 1412.0Q2119 1366 2107.0 1322.5Q2095 1279 2071.5 1236.5Q2048 1194 2007 1151Q2098 1064 2147.5 954.5Q2197 845 2197 719V-72Q2197 -131 2174.0 -183.0Q2151 -235 2111.5 -274.0Q2072 -313 2019.5 -336.0Q1967 -359 1909 -359H1334Q1292 -359 1253.0 -347.5Q1214 -336 1179 -313Q1104 -370 1014.5 -400.5Q925 -431 831 -431Z" style="fill:#000000;stroke:none" transform="scale(1,-1) translate(0,-256)" /></svg>