<?xml version="1.0" encoding="utf-8" ?>
<svg baseProfile="full" height="256" version="1.1" width="256" xmlns="http://www.w3.org/2000/svg" xmlns:ev="http://www.w3.org/2001/xml-events" xmlns:xlink="http://www.w3.org/1999/xlink"><defs /><path d="M1190 -72V647L1254 684L1190 719Q1190 777 1203.0 826.0Q1216 875 1239.5 918.0Q1263 961 1296.0 1000.0Q1329 1039 1370 1078Q1387 1094 1396.5 1109.5Q1406 1125 1406 1150Q1406 1171 1395.5 1188.5Q1385 1206 1369.0 1223.0Q1353 1240 1334.0 1259.5Q1315 1279 1299.0 1303.5Q1283 1328 1272.5 1361.0Q1262 1394 1262 1438V1653L1291 1707H1951L1981 1653V1438Q1981 1394 1970.5 1361.0Q1960 1328 1944.0 1303.5Q1928 1279 1909.0 1259.5Q1890 1240 1874.0 1223.0Q1858 1206 1847.5 1188.5Q1837 1171 1837 1150Q1837 1125 1846.5 1110.0Q1856 1095 1873 1078Q1913 1039 1946.0 999.5Q1979 960 2003.0 917.5Q2027 875 2040.0 826.0Q2053 777 2053 719L1986 685L2053 647V574L1985 540L2053 504V-72Q2053 -102 2041.5 -128.0Q2030 -154 2010.5 -173.5Q1991 -193 1965.0 -204.0Q1939 -215 1909 -215H1334Q1304 -215 1278.0 -204.0Q1252 -193 1232.5 -173.5Q1213 -154 1201.5 -128.0Q1190 -102 1190 -72Z" style="fill:#f7d7c4;stroke:none" transform="scale(1,-1) translate(0,-256)" /></svg>