<?xml version="1.0" encoding="utf-8" ?>
<svg baseProfile="full" height="256" version="1.1" width="256" xmlns="http://www.w3.org/2000/svg" xmlns:ev="http://www.w3.org/2001/xml-events" xmlns:xlink="http://www.w3.org/1999/xlink"><defs /><path d="M400 575H1262L1317 541Q1289 518 1258.0 500.5Q1227 483 1195 469L1262 431V360L1202 322L1262 288V144Q1262 55 1228.0 -23.5Q1194 -102 1135.5 -160.5Q1077 -219 998.5 -253.0Q920 -287 831 -287Q742 -287 663.5 -253.0Q585 -219 526.5 -160.5Q468 -102 434.0 -23.5Q400 55 400 144V288L464 322L400 359V431L450 468L400 503Z" style="fill:#f2f2f2;stroke:none" transform="scale(1,-1) translate(0,-256)" /></svg>