<?xml version="1.0" encoding="utf-8" ?>
<svg baseProfile="full" height="256" version="1.1" width="256" xmlns="http://www.w3.org/2000/svg" xmlns:ev="http://www.w3.org/2001/xml-events" xmlns:xlink="http://www.w3.org/1999/xlink"><defs /><path d="M1190 719H2053V647H1190ZM400 431V503H1262V431ZM400 288V360H1262V288ZM1262 503V575H2053V503ZM1262 1653Q1247 1653 1236.5 1663.5Q1226 1674 1226 1689Q1226 1704 1236.5 1714.5Q1247 1725 1262 1725H1981Q1996 1725 2006.5 1714.5Q2017 1704 2017 1689Q2017 1674 2006.5 1663.5Q1996 1653 1981 1653Z" style="fill:#d8b094;stroke:none" transform="scale(1,-1) translate(0,-256)" /></svg>