<?xml version="1.0" encoding="utf-8" ?>
<svg baseProfile="full" height="256" version="1.1" width="256" xmlns="http://www.w3.org/2000/svg" xmlns:ev="http://www.w3.org/2001/xml-events" xmlns:xlink="http://www.w3.org/1999/xlink"><defs /><path d="M1262 791H1190Q1190 820 1168.5 841.5Q1147 863 1118 863H903Q874 863 852.5 841.5Q831 820 831 791H759Q759 836 776.0 875.0Q793 914 822.5 943.0Q852 972 891.0 989.0Q930 1006 975 1006H1047Q1092 1006 1131.0 989.0Q1170 972 1199.0 943.0Q1228 914 1245.0 875.0Q1262 836 1262 791ZM1550 791Q1550 836 1567.0 875.0Q1584 914 1613.0 943.0Q1642 972 1681.0 989.0Q1720 1006 1765 1006H1837Q1882 1006 1921.0 989.0Q1960 972 1989.5 943.0Q2019 914 2036.0 875.0Q2053 836 2053 791H1981Q1981 820 1959.5 841.5Q1938 863 1909 863H1693Q1664 863 1643.0 841.5Q1622 820 1622 791ZM975 288H1837Q1837 199 1803.0 120.0Q1769 41 1710.5 -17.5Q1652 -76 1573.5 -110.0Q1495 -144 1406 -144Q1317 -144 1238.5 -110.0Q1160 -76 1101.5 -17.5Q1043 41 1009.0 120.0Q975 199 975 288Z" style="fill:#000000;stroke:none" transform="scale(1,-1) translate(0,-256)" /></svg>