<?xml version="1.0" encoding="utf-8" ?>
<svg baseProfile="full" height="256" version="1.1" width="256" xmlns="http://www.w3.org/2000/svg" xmlns:ev="http://www.w3.org/2001/xml-events" xmlns:xlink="http://www.w3.org/1999/xlink"><defs /><path d="M2412 431Q2412 386 2395.0 347.0Q2378 308 2349.0 279.0Q2320 250 2281.0 233.0Q2242 216 2197 216Q2152 216 2113.0 233.0Q2074 250 2044.5 279.0Q2015 308 1998.0 347.0Q1981 386 1981 431V791L2297 622Q2351 593 2381.5 542.5Q2412 492 2412 431ZM831 791V431Q831 386 814.0 347.0Q797 308 767.5 279.0Q738 250 699.0 233.0Q660 216 615 216Q570 216 531.0 233.0Q492 250 463.0 279.0Q434 308 417.0 347.0Q400 386 400 431Q400 492 430.5 542.5Q461 593 515 622Z" style="fill:#00bcf2;stroke:none" transform="scale(1,-1) translate(0,-256)" /></svg>