<?xml version="1.0" encoding="utf-8" ?>
<svg baseProfile="full" height="256" version="1.1" width="256" xmlns="http://www.w3.org/2000/svg" xmlns:ev="http://www.w3.org/2001/xml-events" xmlns:xlink="http://www.w3.org/1999/xlink"><defs /><path d="M1406 -431Q1272 -431 1146.0 -396.0Q1020 -361 909.5 -295.0Q799 -229 708.0 -135.0Q617 -41 553 77Q489 88 434.5 120.5Q380 153 340.5 200.5Q301 248 278.5 307.0Q256 366 256 431Q256 486 271.5 536.0Q287 586 315.0 628.5Q343 671 383.0 704.5Q423 738 472 762V1653Q472 1698 489.0 1737.0Q506 1776 535.0 1805.5Q564 1835 603.0 1852.0Q642 1869 687 1869Q716 1869 745.5 1860.5Q775 1852 800 1837L1230 1581H1582L2017 1840Q2040 1854 2069.5 1861.5Q2099 1869 2125 1869Q2170 1869 2209.0 1852.0Q2248 1835 2277.0 1805.5Q2306 1776 2323.0 1737.0Q2340 1698 2340 1653V762Q2389 736 2429.0 702.5Q2469 669 2497.0 628.0Q2525 587 2540.5 537.5Q2556 488 2556 431Q2556 366 2533.5 307.0Q2511 248 2471.5 200.5Q2432 153 2377.5 120.5Q2323 88 2259 77Q2196 -41 2105.0 -135.0Q2014 -229 1903.0 -295.0Q1792 -361 1666.0 -396.0Q1540 -431 1406 -431Z" style="fill:#000000;stroke:none" transform="scale(1,-1) translate(0,-256)" /></svg>