<?xml version="1.0" encoding="utf-8" ?>
<svg baseProfile="full" height="256" version="1.1" width="256" xmlns="http://www.w3.org/2000/svg" xmlns:ev="http://www.w3.org/2001/xml-events" xmlns:xlink="http://www.w3.org/1999/xlink"><defs /><path d="M2341 541 2149 180Q2128 140 2106.0 102.5Q2084 65 2056 30Q1997 -45 1924.0 -104.0Q1851 -163 1767.5 -203.5Q1684 -244 1592.5 -265.5Q1501 -287 1406 -287Q1311 -287 1219.5 -265.5Q1128 -244 1044.5 -203.5Q961 -163 887.5 -104.0Q814 -45 755 30Q727 65 705.0 102.5Q683 140 662 180L471 541L615 575V1165L728 1364L615 1638V1653Q615 1682 636.5 1703.5Q658 1725 687 1725Q694 1725 706.5 1721.0Q719 1717 726 1713L1190 1438L1266 1307L1334 1438H1478L1555 1310L1622 1438L2085 1713Q2092 1717 2104.5 1721.0Q2117 1725 2125 1725Q2145 1725 2158.5 1717.5Q2172 1710 2180.5 1698.0Q2189 1686 2193.0 1670.5Q2197 1655 2197 1638L2035 1364L2197 1165V575Z" style="fill:#ffc83d;stroke:none" transform="scale(1,-1) translate(0,-256)" /></svg>