<?xml version="1.0" encoding="utf-8" ?>
<svg baseProfile="full" height="256" version="1.1" width="256" xmlns="http://www.w3.org/2000/svg" xmlns:ev="http://www.w3.org/2001/xml-events" xmlns:xlink="http://www.w3.org/1999/xlink"><defs /><path d="M975 1402Q975 1391 970.5 1384.0Q966 1377 956 1371L615 1165V1638L956 1433Q966 1427 970.5 1420.0Q975 1413 975 1402ZM2197 1638V1165L1856 1371Q1846 1377 1841.5 1384.0Q1837 1391 1837 1402Q1837 1413 1841.5 1420.0Q1846 1427 1856 1433ZM1190 1438H1334V1150Q1334 1120 1313.0 1099.0Q1292 1078 1262 1078Q1233 1078 1211.5 1099.5Q1190 1121 1190 1150ZM1478 1438H1622V1150Q1622 1121 1600.5 1099.5Q1579 1078 1550 1078Q1520 1078 1499.0 1099.0Q1478 1120 1478 1150Z" style="fill:#d48c00;stroke:none" transform="scale(1,-1) translate(0,-256)" /></svg>