<?xml version="1.0" encoding="utf-8" ?>
<svg baseProfile="full" height="256" version="1.1" width="256" xmlns="http://www.w3.org/2000/svg" xmlns:ev="http://www.w3.org/2001/xml-events" xmlns:xlink="http://www.w3.org/1999/xlink"><defs /><path d="M759 1222Q729 1222 708.0 1243.0Q687 1264 687 1294Q687 1324 708.0 1345.0Q729 1366 759 1366Q877 1366 968.0 1414.0Q1059 1462 1133 1553Q1155 1581 1191 1581Q1221 1581 1241.5 1560.0Q1262 1539 1262 1509Q1262 1486 1248 1466Q1207 1409 1152.0 1363.5Q1097 1318 1032.5 1286.5Q968 1255 898.0 1238.5Q828 1222 759 1222ZM2053 1222Q1984 1222 1914.0 1238.5Q1844 1255 1779.5 1286.5Q1715 1318 1659.5 1363.5Q1604 1409 1564 1466Q1550 1486 1550 1509Q1550 1539 1570.5 1560.0Q1591 1581 1621 1581Q1657 1581 1679 1553Q1753 1462 1844.0 1414.0Q1935 1366 2053 1366Q2083 1366 2104.0 1345.0Q2125 1324 2125 1294Q2125 1264 2104.0 1243.0Q2083 1222 2053 1222Z" style="fill:#d48c00;stroke:none" transform="scale(1,-1) translate(0,-256)" /></svg>