<?xml version="1.0" encoding="utf-8" ?>
<svg baseProfile="full" height="256" version="1.1" width="256" xmlns="http://www.w3.org/2000/svg" xmlns:ev="http://www.w3.org/2001/xml-events" xmlns:xlink="http://www.w3.org/1999/xlink"><defs /><path d="M831 0Q831 119 876.0 224.0Q921 329 999.0 407.0Q1077 485 1182.0 530.0Q1287 575 1406 575Q1525 575 1630.0 530.0Q1735 485 1813.0 407.0Q1891 329 1936.0 224.0Q1981 119 1981 0ZM2125 1078 1782 827 2125 575V503L1589 762Q1571 770 1560.5 788.5Q1550 807 1550 827Q1550 847 1560.5 864.5Q1571 882 1589 891L2125 1150ZM1262 827Q1262 807 1251.0 789.0Q1240 771 1222 762L687 503V575L1030 827L687 1078V1150L1222 891Q1240 882 1251.0 864.5Q1262 847 1262 827Z" style="fill:#000000;stroke:none" transform="scale(1,-1) translate(0,-256)" /></svg>