<?xml version="1.0" encoding="utf-8" ?>
<svg baseProfile="full" height="256" version="1.1" width="256" xmlns="http://www.w3.org/2000/svg" xmlns:ev="http://www.w3.org/2001/xml-events" xmlns:xlink="http://www.w3.org/1999/xlink"><defs /><path d="M2111 1188Q2139 1197 2166.5 1208.5Q2194 1220 2220 1234L2089 -75Q2084 -123 2041.0 -157.0Q1998 -191 1933.5 -214.5Q1869 -238 1791.5 -252.5Q1714 -267 1639.5 -274.5Q1565 -282 1502.5 -284.5Q1440 -287 1406 -287Q1371 -287 1308.5 -284.5Q1246 -282 1172.0 -274.5Q1098 -267 1020.0 -252.5Q942 -238 877.5 -214.0Q813 -190 770.5 -155.0Q728 -120 723 -72L592 1234Q618 1220 645.5 1208.5Q673 1197 701 1188L975 914L1140 1078L1106 1112Q1108 1112 1110.5 1111.5Q1113 1111 1115 1111Q1152 1107 1189.0 1105.0Q1226 1103 1264 1101L1241 1078L1406 914L1571 1078L1548 1101Q1586 1103 1623.0 1105.0Q1660 1107 1697 1111Q1699 1111 1701.5 1111.5Q1704 1112 1706 1112L1672 1078L1837 914ZM1837 812 1672 647 1837 482 2002 647ZM975 381 810 216 975 51 1140 216ZM1406 812 1241 647 1406 482 1571 647ZM1241 216 1406 51 1571 216 1406 381ZM975 812 810 647 975 482 1140 647ZM1672 216 1837 51 2002 216 1837 381ZM1457 863 1622 698 1786 863 1622 1028ZM1190 -165 1355 0 1190 165 1026 0ZM1622 -165 1786 0 1622 165 1457 0ZM1026 863 1190 698 1355 863 1190 1028ZM1622 267 1786 431 1622 596 1457 431ZM1190 267 1355 431 1190 596 1026 431ZM2098 743 2135 1110 1888 863 2053 698ZM759 698 924 863 677 1110 714 743ZM761 269 924 431 759 596 731 568ZM2081 568 2053 596 1888 431 2051 269ZM1406 -215Q1446 -215 1485.5 -213.5Q1525 -212 1565 -210L1406 -51L1247 -210Q1287 -212 1326.5 -213.5Q1366 -215 1406 -215ZM2039 151 1888 0 1993 -104Q2001 -98 2008.5 -90.5Q2016 -83 2017 -72ZM820 -103 924 0 773 151 795 -68Q797 -80 803.5 -88.0Q810 -96 820 -103ZM1691 -197Q1751 -188 1810.0 -175.0Q1869 -162 1926 -139L1837 -51ZM887 -139Q943 -162 1002.0 -175.0Q1061 -188 1121 -197L975 -51Z" style="fill:#a0aeb2;stroke:none" transform="scale(1,-1) translate(0,-256)" /></svg>