<?xml version="1.0" encoding="utf-8" ?>
<svg baseProfile="full" height="256" version="1.1" width="256" xmlns="http://www.w3.org/2000/svg" xmlns:ev="http://www.w3.org/2001/xml-events" xmlns:xlink="http://www.w3.org/1999/xlink"><defs /><path d="M1406 -251Q1343 -251 1262.0 -245.5Q1181 -240 1098.5 -225.5Q1016 -211 939.5 -186.5Q863 -162 810 -124Q794 -113 776.5 -94.5Q759 -76 759 -54Q759 -34 774.0 -16.5Q789 1 804 12Q838 38 884.5 58.5Q931 79 984.0 93.5Q1037 108 1094.0 117.5Q1151 127 1206.5 133.0Q1262 139 1313.0 141.5Q1364 144 1406 144Q1448 144 1499.0 141.5Q1550 139 1605.5 133.0Q1661 127 1718.0 117.5Q1775 108 1828.0 93.5Q1881 79 1927.0 58.5Q1973 38 2008 12Q2023 1 2038.0 -16.5Q2053 -34 2053 -54Q2053 -76 2035.5 -94.5Q2018 -113 2002 -124Q1949 -162 1872.5 -186.5Q1796 -211 1713.5 -225.5Q1631 -240 1550.0 -245.5Q1469 -251 1406 -251Z" style="fill:#2b2b2b;stroke:none" transform="scale(1,-1) translate(0,-256)" /></svg>