<?xml version="1.0" encoding="utf-8" ?>
<svg baseProfile="full" height="256" version="1.1" width="256" xmlns="http://www.w3.org/2000/svg" xmlns:ev="http://www.w3.org/2001/xml-events" xmlns:xlink="http://www.w3.org/1999/xlink"><defs /><path d="M1406 -251Q1379 -251 1321.5 -248.5Q1264 -246 1193.5 -239.0Q1123 -232 1048.0 -220.0Q973 -208 910.0 -188.0Q847 -168 805.0 -139.5Q763 -111 759 -72L629 1233L612 1242Q574 1262 553.0 1278.0Q532 1294 522.0 1312.0Q512 1330 510.0 1353.0Q508 1376 508 1410V1438Q508 1481 543.0 1514.0Q578 1547 633.0 1572.5Q688 1598 755.0 1616.0Q822 1634 886.5 1646.0Q951 1658 1005.0 1664.5Q1059 1671 1088 1674Q1247 1689 1406 1689Q1565 1689 1724 1674Q1753 1671 1807.0 1664.5Q1861 1658 1925.5 1646.0Q1990 1634 2057.0 1616.0Q2124 1598 2179.0 1572.5Q2234 1547 2269.0 1514.0Q2304 1481 2304 1438V1366Q2304 1342 2292.5 1321.5Q2281 1301 2263.0 1284.5Q2245 1268 2223.5 1255.0Q2202 1242 2183 1233L2053 -72Q2049 -111 2007.0 -139.5Q1965 -168 1902.5 -188.0Q1840 -208 1764.5 -220.0Q1689 -232 1618.5 -239.0Q1548 -246 1490.5 -248.5Q1433 -251 1406 -251Z" style="fill:#4a5459;stroke:none" transform="scale(1,-1) translate(0,-256)" /></svg>