<?xml version="1.0" encoding="utf-8" ?>
<svg baseProfile="full" height="256" version="1.1" width="256" xmlns="http://www.w3.org/2000/svg" xmlns:ev="http://www.w3.org/2001/xml-events" xmlns:xlink="http://www.w3.org/1999/xlink"><defs /><path d="M1406 1150Q1373 1150 1315.5 1151.5Q1258 1153 1186.0 1158.0Q1114 1163 1033.0 1172.0Q952 1181 873.0 1195.5Q794 1210 721.5 1231.5Q649 1253 593.5 1282.5Q538 1312 505.0 1350.5Q472 1389 472 1438Q472 1487 505.0 1525.5Q538 1564 593.5 1593.5Q649 1623 721.5 1644.0Q794 1665 873.0 1679.5Q952 1694 1033.0 1703.0Q1114 1712 1186.0 1717.0Q1258 1722 1315.5 1723.5Q1373 1725 1406 1725Q1439 1725 1496.5 1723.5Q1554 1722 1626.0 1717.0Q1698 1712 1779.0 1703.0Q1860 1694 1939.0 1679.5Q2018 1665 2090.5 1644.0Q2163 1623 2218.5 1593.5Q2274 1564 2307.0 1525.5Q2340 1487 2340 1438Q2340 1389 2307.0 1350.5Q2274 1312 2218.5 1282.5Q2163 1253 2090.5 1231.5Q2018 1210 1939.0 1195.5Q1860 1181 1779.0 1172.0Q1698 1163 1626.0 1158.0Q1554 1153 1496.5 1151.5Q1439 1150 1406 1150ZM618 1438Q626 1428 639.5 1419.5Q653 1411 668.0 1403.5Q683 1396 698.5 1390.5Q714 1385 725 1381Q799 1355 885.5 1338.0Q972 1321 1061.5 1311.5Q1151 1302 1239.5 1298.0Q1328 1294 1406 1294Q1484 1294 1572.5 1298.0Q1661 1302 1750.5 1311.5Q1840 1321 1926.5 1338.0Q2013 1355 2087 1381Q2098 1385 2113.5 1390.5Q2129 1396 2144.0 1403.5Q2159 1411 2172.5 1419.5Q2186 1428 2194 1438Q2180 1455 2155.5 1466.5Q2131 1478 2111 1486Q2038 1514 1947.5 1532.5Q1857 1551 1762.5 1562.0Q1668 1573 1576.0 1577.0Q1484 1581 1406 1581Q1328 1581 1235.5 1577.0Q1143 1573 1048.5 1562.0Q954 1551 864.0 1532.5Q774 1514 701 1486Q681 1478 656.5 1466.5Q632 1455 618 1438Z" style="fill:#a0aeb2;stroke:none" transform="scale(1,-1) translate(0,-256)" /></svg>