<?xml version="1.0" encoding="utf-8" ?>
<svg baseProfile="full" height="256" version="1.1" width="256" xmlns="http://www.w3.org/2000/svg" xmlns:ev="http://www.w3.org/2001/xml-events" xmlns:xlink="http://www.w3.org/1999/xlink"><defs /><path d="M2340 1438V1366Q2340 1317 2307.0 1278.5Q2274 1240 2218.5 1210.5Q2163 1181 2090.5 1159.5Q2018 1138 1939.0 1123.5Q1860 1109 1779.0 1100.0Q1698 1091 1626.0 1086.0Q1554 1081 1496.5 1079.5Q1439 1078 1406 1078Q1373 1078 1315.5 1079.5Q1258 1081 1186.0 1086.0Q1114 1091 1033.0 1100.0Q952 1109 873.0 1123.5Q794 1138 721.5 1159.5Q649 1181 593.5 1210.5Q538 1240 505.0 1278.5Q472 1317 472 1366V1438H494Q526 1485 591.5 1519.0Q657 1553 740.5 1577.0Q824 1601 919.0 1616.0Q1014 1631 1104.5 1639.0Q1195 1647 1274.0 1650.0Q1353 1653 1406 1653Q1459 1653 1538.0 1650.0Q1617 1647 1707.5 1639.0Q1798 1631 1893.0 1616.0Q1988 1601 2071.5 1577.0Q2155 1553 2220.5 1519.0Q2286 1485 2318 1438ZM1406 1222Q1484 1222 1576.0 1226.5Q1668 1231 1762.5 1241.5Q1857 1252 1947.0 1270.5Q2037 1289 2111 1317Q2131 1325 2155.5 1337.0Q2180 1349 2194 1366Q2180 1383 2155.5 1395.0Q2131 1407 2111 1415Q2037 1443 1947.0 1461.5Q1857 1480 1762.5 1490.5Q1668 1501 1576.0 1505.5Q1484 1510 1406 1510Q1328 1510 1236.0 1505.5Q1144 1501 1049.5 1490.5Q955 1480 864.5 1461.5Q774 1443 701 1415Q681 1407 656.5 1395.0Q632 1383 618 1366Q632 1349 656.5 1337.0Q681 1325 701 1317Q774 1289 864.5 1270.5Q955 1252 1049.5 1241.5Q1144 1231 1236.0 1226.5Q1328 1222 1406 1222Z" style="fill:#69797e;stroke:none" transform="scale(1,-1) translate(0,-256)" /></svg>