<?xml version="1.0" encoding="utf-8" ?>
<svg baseProfile="full" height="256" version="1.1" width="256" xmlns="http://www.w3.org/2000/svg" xmlns:ev="http://www.w3.org/2001/xml-events" xmlns:xlink="http://www.w3.org/1999/xlink"><defs /><path d="M1406 -431Q1351 -431 1280.0 -428.0Q1209 -425 1131.5 -415.5Q1054 -406 975.5 -390.0Q897 -374 827.0 -347.5Q757 -321 701.5 -283.5Q646 -246 614 -195Q597 -166 590.0 -139.5Q583 -113 580 -80L459 1127Q389 1179 358.5 1240.5Q328 1302 328 1389V1438Q328 1513 363.0 1571.5Q398 1630 457.5 1674.0Q517 1718 595.5 1750.0Q674 1782 762.0 1803.5Q850 1825 942.0 1838.0Q1034 1851 1119.5 1858.0Q1205 1865 1279.5 1867.0Q1354 1869 1406 1869Q1458 1869 1532.5 1867.0Q1607 1865 1692.5 1858.0Q1778 1851 1870.0 1838.0Q1962 1825 2050.0 1803.5Q2138 1782 2216.5 1750.0Q2295 1718 2354.5 1674.0Q2414 1630 2449.0 1571.5Q2484 1513 2484 1438V1366Q2484 1325 2474.5 1292.0Q2465 1259 2447.5 1230.5Q2430 1202 2406.0 1176.5Q2382 1151 2353 1126L2232 -84Q2229 -110 2224.0 -131.5Q2219 -153 2210.5 -172.0Q2202 -191 2189.0 -209.0Q2176 -227 2158 -246Q2121 -285 2065.5 -313.5Q2010 -342 1944.0 -362.5Q1878 -383 1804.5 -396.5Q1731 -410 1660.0 -417.5Q1589 -425 1523.0 -428.0Q1457 -431 1406 -431Z" style="fill:#000000;stroke:none" transform="scale(1,-1) translate(0,-256)" /></svg>