<?xml version="1.0" encoding="utf-8" ?>
<svg baseProfile="full" height="256" version="1.1" width="256" xmlns="http://www.w3.org/2000/svg" xmlns:ev="http://www.w3.org/2001/xml-events" xmlns:xlink="http://www.w3.org/1999/xlink"><defs /><path d="M2104 1510 1909 1315Q1878 1309 1847.0 1304.5Q1816 1300 1784 1296L1622 1459L1457 1294L1476 1275Q1459 1274 1441.0 1274.0Q1423 1274 1406 1274Q1389 1274 1371.0 1274.0Q1353 1274 1336 1275L1355 1294L1190 1459L1027 1296Q996 1300 965.0 1304.5Q934 1309 903 1315L708 1510Q727 1518 746.0 1523.5Q765 1529 785 1534L975 1345L1140 1510L1065 1584Q1088 1586 1111.5 1588.0Q1135 1590 1158 1592L1190 1560L1227 1597Q1253 1599 1279.5 1599.5Q1306 1600 1332 1601L1241 1510L1406 1345L1571 1510L1480 1601Q1506 1600 1532.5 1599.5Q1559 1599 1585 1597L1622 1560L1654 1592Q1677 1590 1700.5 1588.0Q1724 1586 1747 1584L1672 1510L1837 1345L2027 1534Q2047 1529 2066.0 1523.5Q2085 1518 2104 1510Z" style="fill:#bac8cc;stroke:none" transform="scale(1,-1) translate(0,-256)" /></svg>