<?xml version="1.0" encoding="utf-8" ?>
<svg baseProfile="full" height="256" version="1.1" width="256" xmlns="http://www.w3.org/2000/svg" xmlns:ev="http://www.w3.org/2001/xml-events" xmlns:xlink="http://www.w3.org/1999/xlink"><defs /><path d="M2158 1509Q2210 1509 2256.5 1489.0Q2303 1469 2337.5 1434.5Q2372 1400 2392.0 1353.5Q2412 1307 2412 1255Q2412 1205 2392.5 1158.0Q2373 1111 2338 1076L1909 647L1480 1076Q1445 1111 1425.5 1158.0Q1406 1205 1406 1255Q1406 1307 1426.0 1353.5Q1446 1400 1480.5 1434.5Q1515 1469 1561.0 1489.0Q1607 1509 1660 1509Q1700 1509 1731.5 1499.5Q1763 1490 1789.5 1473.5Q1816 1457 1839.5 1434.5Q1863 1412 1888 1387L1909 1366L1924 1381Q1949 1407 1974.0 1430.0Q1999 1453 2026.5 1470.5Q2054 1488 2086.0 1498.5Q2118 1509 2158 1509ZM1152 791Q1204 791 1250.5 771.0Q1297 751 1331.5 716.0Q1366 681 1386.0 634.5Q1406 588 1406 536Q1406 486 1386.5 439.0Q1367 392 1332 357L903 -72L474 357Q439 392 419.5 439.0Q400 486 400 536Q400 588 420.0 634.5Q440 681 474.5 716.0Q509 751 555.0 771.0Q601 791 654 791Q694 791 726.0 781.0Q758 771 785.0 754.0Q812 737 836.0 714.0Q860 691 885 665L903 647L925 669Q950 694 973.5 716.5Q997 739 1023.0 755.5Q1049 772 1080.5 781.5Q1112 791 1152 791Z" style="fill:#e81224;stroke:none" transform="scale(1,-1) translate(0,-256)" /></svg>