<?xml version="1.0" encoding="utf-8" ?>
<svg baseProfile="full" height="256" version="1.1" width="256" xmlns="http://www.w3.org/2000/svg" xmlns:ev="http://www.w3.org/2001/xml-events" xmlns:xlink="http://www.w3.org/1999/xlink"><defs /><path d="M1406 1078Q1348 1078 1275.5 1072.5Q1203 1067 1125.0 1054.5Q1047 1042 967.5 1022.5Q888 1003 816.5 974.5Q745 946 686.0 908.0Q627 870 589 822Q572 799 557.5 774.0Q543 749 543 719Q543 689 557.5 664.0Q572 639 589 616Q626 568 685.5 530.0Q745 492 816.5 463.5Q888 435 967.5 415.5Q1047 396 1125.0 383.5Q1203 371 1275.5 365.5Q1348 360 1406 360Q1464 360 1536.5 365.5Q1609 371 1687.0 383.5Q1765 396 1844.5 416.0Q1924 436 1995.5 464.5Q2067 493 2126.5 530.5Q2186 568 2223 616Q2241 639 2254.5 664.0Q2268 689 2268 719Q2268 749 2254.5 774.0Q2241 799 2223 822Q2185 870 2126.0 907.5Q2067 945 1995.5 973.5Q1924 1002 1844.5 1022.0Q1765 1042 1687.0 1054.5Q1609 1067 1536.5 1072.5Q1464 1078 1406 1078ZM1406 1222Q1506 1222 1603.5 1212.0Q1701 1202 1798 1182Q1852 1170 1919.0 1150.5Q1986 1131 2054.0 1102.0Q2122 1073 2186.5 1035.0Q2251 997 2301.0 949.5Q2351 902 2381.5 844.5Q2412 787 2412 719Q2412 651 2381.5 593.5Q2351 536 2301.5 488.0Q2252 440 2187.5 402.0Q2123 364 2054.5 335.0Q1986 306 1919.5 286.0Q1853 266 1798 255Q1604 216 1406 216Q1207 216 1014 255Q959 266 892.5 286.0Q826 306 757.5 335.0Q689 364 624.5 402.0Q560 440 510.5 488.0Q461 536 430.5 593.5Q400 651 400 719Q400 787 430.5 844.5Q461 902 511.0 949.5Q561 997 625.5 1035.0Q690 1073 758.0 1102.0Q826 1131 893.0 1150.5Q960 1170 1014 1182Q1111 1202 1208.5 1212.0Q1306 1222 1406 1222Z" style="fill:#e6808a;stroke:none" transform="scale(1,-1) translate(0,-256)" /></svg>