<?xml version="1.0" encoding="utf-8" ?>
<svg baseProfile="full" height="256" version="1.1" width="256" xmlns="http://www.w3.org/2000/svg" xmlns:ev="http://www.w3.org/2001/xml-events" xmlns:xlink="http://www.w3.org/1999/xlink"><defs /><path d="M2340 216H2175V867Q2175 916 2177.5 965.0Q2180 1014 2185 1063Q2177 1039 2170.0 1015.0Q2163 991 2154 968L1854 216H1739L1438 962Q1428 985 1422.5 1010.0Q1417 1035 1412 1060Q1412 1061 1411.5 1061.5Q1411 1062 1411 1063Q1414 986 1414 910V216H1259V1222H1495L1763 540Q1773 514 1782.5 489.0Q1792 464 1798 437H1802Q1812 467 1822.0 496.5Q1832 526 1844 555L2114 1222H2340ZM1130 1080H840V216H673V1080H385V1222H1130Z" style="fill:#ffffff;stroke:none" transform="scale(1,-1) translate(0,-256)" /></svg>