<?xml version="1.0" encoding="utf-8" ?>
<svg baseProfile="full" height="256" version="1.1" width="256" xmlns="http://www.w3.org/2000/svg" xmlns:ev="http://www.w3.org/2001/xml-events" xmlns:xlink="http://www.w3.org/1999/xlink"><defs /><path d="M1622 935Q1664 935 1707.0 927.5Q1750 920 1790 906Q1961 849 2043.0 730.0Q2125 611 2125 431L1765 72H1047L687 431Q687 609 769.0 729.0Q851 849 1022 906Q1063 920 1105.5 927.5Q1148 935 1191 935Q1191 946 1190.5 955.5Q1190 965 1190 976Q1190 995 1192.5 1013.5Q1195 1032 1202.5 1046.0Q1210 1060 1224.0 1069.0Q1238 1078 1262 1078Q1286 1078 1300.5 1068.5Q1315 1059 1322.5 1044.0Q1330 1029 1332.0 1010.0Q1334 991 1334 972V935H1478V972Q1478 991 1480.0 1010.0Q1482 1029 1489.5 1044.0Q1497 1059 1511.5 1068.5Q1526 1078 1550 1078Q1574 1078 1588.5 1068.5Q1603 1059 1610.5 1044.0Q1618 1029 1620.0 1010.0Q1622 991 1622 972ZM1047 1438H903Q836 1438 772.5 1420.5Q709 1403 659.0 1367.5Q609 1332 577.5 1277.5Q546 1223 543 1150Q543 1254 583.0 1345.5Q623 1437 691.5 1505.5Q760 1574 851.5 1613.5Q943 1653 1047 1653ZM1765 1653Q1867 1653 1956.5 1614.5Q2046 1576 2114.0 1510.0Q2182 1444 2223.0 1355.0Q2264 1266 2268 1165Q2266 1187 2259.5 1208.0Q2253 1229 2245 1249Q2218 1315 2174.5 1353.0Q2131 1391 2077.5 1410.0Q2024 1429 1963.0 1433.5Q1902 1438 1841 1438H1765Z" style="fill:#f7630c;stroke:none" transform="scale(1,-1) translate(0,-256)" /></svg>