<?xml version="1.0" encoding="utf-8" ?>
<svg baseProfile="full" height="256" version="1.1" width="256" xmlns="http://www.w3.org/2000/svg" xmlns:ev="http://www.w3.org/2001/xml-events" xmlns:xlink="http://www.w3.org/1999/xlink"><defs /><path d="M1190 719Q1220 719 1246.0 707.5Q1272 696 1291.5 676.5Q1311 657 1322.5 631.0Q1334 605 1334 575Q1334 545 1322.5 519.0Q1311 493 1291.5 473.5Q1272 454 1246.0 442.5Q1220 431 1190 431Q1160 431 1134.0 442.5Q1108 454 1088.5 473.5Q1069 493 1058.0 519.0Q1047 545 1047 575Q1047 605 1058.0 631.0Q1069 657 1088.5 676.5Q1108 696 1134.0 707.5Q1160 719 1190 719ZM1514 431Q1536 431 1555.5 422.5Q1575 414 1590.0 399.5Q1605 385 1613.5 365.5Q1622 346 1622 324Q1622 302 1613.5 282.5Q1605 263 1590.0 248.0Q1575 233 1555.5 224.5Q1536 216 1514 216Q1491 216 1471.5 224.5Q1452 233 1437.5 247.5Q1423 262 1414.5 281.5Q1406 301 1406 324Q1406 346 1414.5 366.0Q1423 386 1438.0 400.0Q1453 414 1472.5 422.5Q1492 431 1514 431ZM1765 575Q1795 575 1816.0 554.0Q1837 533 1837 503Q1837 474 1815.5 452.5Q1794 431 1765 431Q1736 431 1714.5 452.5Q1693 474 1693 503Q1693 532 1714.5 553.5Q1736 575 1765 575Z" style="fill:#f03a17;stroke:none" transform="scale(1,-1) translate(0,-256)" /></svg>