<?xml version="1.0" encoding="utf-8" ?>
<svg baseProfile="full" height="256" version="1.1" width="256" xmlns="http://www.w3.org/2000/svg" xmlns:ev="http://www.w3.org/2001/xml-events" xmlns:xlink="http://www.w3.org/1999/xlink"><defs /><path d="M1334 1653 1047 1438H1264Q1263 1417 1255.0 1398.0Q1247 1379 1236 1362Q1205 1315 1154.5 1287.0Q1104 1259 1045.5 1244.5Q987 1230 926.0 1226.0Q865 1222 814 1222Q779 1222 754.5 1205.0Q730 1188 730 1150Q730 1122 751 1099L975 863L1047 647Q943 647 851.0 686.5Q759 726 690.5 794.0Q622 862 582.5 954.0Q543 1046 543 1150Q543 1179 549.0 1208.0Q555 1237 565 1265Q608 1386 693.5 1442.5Q779 1499 906 1499Q911 1509 915.5 1519.0Q920 1529 926 1538Q930 1545 945.0 1560.0Q960 1575 978.5 1592.5Q997 1610 1016.0 1626.0Q1035 1642 1047 1653ZM1913 1493Q2035 1493 2122.5 1437.5Q2210 1382 2249 1263Q2258 1235 2263.0 1207.0Q2268 1179 2268 1150Q2268 1046 2228.5 954.5Q2189 863 2120.5 794.5Q2052 726 1960.5 686.5Q1869 647 1765 647L1836 863L2061 1099Q2082 1122 2082 1150Q2082 1173 2073.0 1187.5Q2064 1202 2050.0 1209.5Q2036 1217 2017.5 1219.5Q1999 1222 1980 1222Q1931 1222 1873.0 1227.0Q1815 1232 1758.5 1247.0Q1702 1262 1653.5 1289.5Q1605 1317 1576 1362Q1565 1379 1557.0 1398.0Q1549 1417 1548 1438H1765L1478 1653H1765Q1802 1613 1838.5 1572.5Q1875 1532 1913 1493ZM1961 218Q1980 218 1999.0 213.5Q2018 209 2032 195L2319 -93Q2340 -114 2340 -144Q2340 -173 2318.5 -194.0Q2297 -215 2268 -215Q2239 -215 2218 -194L1951 72H1765L1965 -171Q1981 -192 1981 -216Q1981 -246 1960.0 -266.5Q1939 -287 1909 -287Q1875 -287 1853 -260L1587 72L1614 212Q1702 214 1787.5 216.0Q1873 218 1961 218ZM1212 208 1225 72 959 -260Q937 -287 903 -287Q873 -287 852.0 -266.5Q831 -246 831 -216Q831 -192 847 -171L1047 72H861L594 -194Q573 -215 543 -215Q514 -215 493.0 -194.0Q472 -173 472 -144Q472 -114 493 -93L780 195Q801 216 831 216Q927 216 1021.5 213.0Q1116 210 1212 208ZM2126 431H2340Q2369 431 2390.5 410.0Q2412 389 2412 360Q2412 330 2391.0 309.0Q2370 288 2340 288H1909Q1879 288 1858.0 309.0Q1837 330 1837 360L2261 770Q2284 791 2312 791Q2342 791 2363.0 770.0Q2384 749 2384 719Q2384 689 2363 668ZM903 288H472Q442 288 421.0 309.0Q400 330 400 360Q400 389 421.5 410.0Q443 431 472 431H686L449 668Q428 689 428 719Q428 749 449.0 770.0Q470 791 500 791Q528 791 551 770L975 360Q975 331 953.5 309.5Q932 288 903 288Z" style="fill:#f7b189;stroke:none" transform="scale(1,-1) translate(0,-256)" /></svg>