<?xml version="1.0" encoding="utf-8" ?>
<svg baseProfile="full" height="256" version="1.1" width="256" xmlns="http://www.w3.org/2000/svg" xmlns:ev="http://www.w3.org/2001/xml-events" xmlns:xlink="http://www.w3.org/1999/xlink"><defs /><path d="M1501 1205Q1612 1150 1700.5 1068.5Q1789 987 1851.5 886.5Q1914 786 1947.5 670.0Q1981 554 1981 431Q1981 312 1950.0 202.0Q1919 92 1863.0 -3.5Q1807 -99 1728.0 -178.0Q1649 -257 1553.0 -313.0Q1457 -369 1347.0 -400.0Q1237 -431 1118 -431Q999 -431 889.0 -400.0Q779 -369 683.5 -313.0Q588 -257 509.0 -178.0Q430 -99 374.0 -3.5Q318 92 287.0 202.0Q256 312 256 431Q256 554 289.5 670.0Q323 786 385.5 886.5Q448 987 536.5 1068.5Q625 1150 736 1205L497 1523L843 1869H1394L1739 1523ZM1118 72Q1192 72 1257.5 100.5Q1323 129 1372.0 177.5Q1421 226 1449.5 291.5Q1478 357 1478 431Q1478 506 1449.5 571.5Q1421 637 1372.5 685.5Q1324 734 1258.5 762.5Q1193 791 1118 791Q1044 791 978.5 762.5Q913 734 864.5 685.0Q816 636 787.5 570.5Q759 505 759 431Q759 357 787.0 291.5Q815 226 864.0 177.0Q913 128 978.5 100.0Q1044 72 1118 72Z" style="fill:#000000;stroke:none" transform="scale(1,-1) translate(0,-256)" /></svg>