<?xml version="1.0" encoding="utf-8" ?>
<svg baseProfile="full" height="256" version="1.1" width="256" xmlns="http://www.w3.org/2000/svg" xmlns:ev="http://www.w3.org/2001/xml-events" xmlns:xlink="http://www.w3.org/1999/xlink"><defs /><path d="M1334 1117Q1446 1082 1539.0 1014.5Q1632 947 1698.0 856.5Q1764 766 1800.5 657.5Q1837 549 1837 431Q1837 332 1811.5 240.0Q1786 148 1739.0 68.5Q1692 -11 1626.5 -76.5Q1561 -142 1481.0 -189.0Q1401 -236 1309.0 -261.5Q1217 -287 1118 -287Q1019 -287 927.5 -261.5Q836 -236 756.0 -189.0Q676 -142 610.5 -76.5Q545 -11 498.0 69.0Q451 149 425.5 240.5Q400 332 400 431Q400 548 436.5 657.0Q473 766 539.0 856.5Q605 947 697.5 1014.5Q790 1082 903 1117V1222L1117 1314L1334 1222ZM1118 -72Q1221 -72 1313.0 -32.5Q1405 7 1473.5 75.5Q1542 144 1582.0 235.5Q1622 327 1622 431Q1622 535 1582.5 627.0Q1543 719 1474.5 787.5Q1406 856 1314.0 895.5Q1222 935 1118 935Q1014 935 922.5 895.0Q831 855 762.5 786.5Q694 718 654.5 626.0Q615 534 615 431Q615 327 654.5 235.5Q694 144 762.5 75.5Q831 7 922.5 -32.5Q1014 -72 1118 -72Z" style="fill:#cccccc;stroke:none" transform="scale(1,-1) translate(0,-256)" /></svg>