<?xml version="1.0" encoding="utf-8" ?>
<svg baseProfile="full" height="256" version="1.1" width="256" xmlns="http://www.w3.org/2000/svg" xmlns:ev="http://www.w3.org/2001/xml-events" xmlns:xlink="http://www.w3.org/1999/xlink"><defs /><path d="M2283 449Q2283 401 2295.0 345.0Q2307 289 2325.5 232.0Q2344 175 2365.5 120.0Q2387 65 2406 18Q2408 13 2409.5 9.0Q2411 5 2413 0Q2404 -19 2369.0 -33.0Q2334 -47 2281.0 -57.5Q2228 -68 2162.0 -75.0Q2096 -82 2025.5 -87.0Q1955 -92 1885.5 -94.5Q1816 -97 1755.5 -98.5Q1695 -100 1648.5 -100.0Q1602 -100 1578 -100Q1420 -100 1264.5 -89.0Q1109 -78 954 -53Q952 -53 950.5 -52.5Q949 -52 947 -52Q902 -44 857.5 -36.5Q813 -29 768 -19Q739 -12 710.5 -6.0Q682 0 652 0Q602 0 555.5 19.5Q509 39 474 74Q438 110 418.5 156.5Q399 203 399 254Q399 310 418.0 349.5Q437 389 472 431Q610 593 770.5 726.0Q931 859 1112.0 953.0Q1293 1047 1493.0 1098.5Q1693 1150 1910 1150H2413V862Q2400 857 2387.0 837.5Q2374 818 2362.0 790.0Q2350 762 2339.0 729.0Q2328 696 2319.5 665.0Q2311 634 2304.5 608.0Q2298 582 2296 568Q2291 539 2287.0 509.0Q2283 479 2283 449Z" style="fill:#3a96dd;stroke:none" transform="scale(1,-1) translate(0,-256)" /></svg>