<?xml version="1.0" encoding="utf-8" ?>
<svg baseProfile="full" height="256" version="1.1" width="256" xmlns="http://www.w3.org/2000/svg" xmlns:ev="http://www.w3.org/2001/xml-events" xmlns:xlink="http://www.w3.org/1999/xlink"><defs /><path d="M2167 1869Q2218 1869 2262.5 1849.5Q2307 1830 2340.0 1797.0Q2373 1764 2392.5 1719.5Q2412 1675 2412 1624Q2412 1574 2393.5 1529.5Q2375 1485 2340 1450L2146 1256Q2196 1222 2223.0 1171.5Q2250 1121 2250 1061Q2250 965 2182 897L897 -389Q877 -409 850.5 -420.0Q824 -431 795 -431Q754 -431 719.0 -409.5Q684 -388 666 -352L585 -189Q538 -196 493.0 -205.5Q448 -215 400 -215Q370 -215 344.0 -204.0Q318 -193 298.5 -173.5Q279 -154 267.5 -128.0Q256 -102 256 -72Q256 -43 267.0 -16.5Q278 10 298 30L416 148L343 295Q328 325 328 360Q328 419 370 461L1218 1309Q1275 1366 1355 1366Q1397 1366 1433.5 1349.0Q1470 1332 1499 1303L1993 1797Q2028 1832 2073.0 1850.5Q2118 1869 2167 1869Z" style="fill:#000000;stroke:none" transform="scale(1,-1) translate(0,-256)" /></svg>