<?xml version="1.0" encoding="utf-8" ?>
<svg baseProfile="full" height="256" version="1.1" width="256" xmlns="http://www.w3.org/2000/svg" xmlns:ev="http://www.w3.org/2001/xml-events" xmlns:xlink="http://www.w3.org/1999/xlink"><defs /><path d="M598 234Q584 234 572.5 244.5Q561 255 561 270Q561 285 572 296L1057 780Q1067 790 1082 790Q1096 790 1107.0 779.5Q1118 769 1118 755Q1118 739 1108 729L623 245Q612 234 598 234ZM1118 863 1172 881 1190 935 1208 881 1262 863 1208 845 1190 791 1172 845Z" style="fill:#b4a0ff;stroke:none" transform="scale(1,-1) translate(0,-256)" /></svg>