<?xml version="1.0" encoding="utf-8" ?>
<svg baseProfile="full" height="256" version="1.1" width="256" xmlns="http://www.w3.org/2000/svg" xmlns:ev="http://www.w3.org/2001/xml-events" xmlns:xlink="http://www.w3.org/1999/xlink"><defs /><path d="M472 360 1319 1207Q1334 1222 1355 1222Q1376 1222 1391.0 1207.0Q1406 1192 1406 1171Q1406 1147 1383.5 1124.0Q1361 1101 1334.0 1078.0Q1307 1055 1284.5 1032.0Q1262 1009 1262 985Q1262 964 1277.0 949.5Q1292 935 1313 935Q1335 935 1349 949L2095 1695Q2125 1725 2167 1725Q2188 1725 2206.5 1717.0Q2225 1709 2238.5 1695.0Q2252 1681 2260.0 1662.5Q2268 1644 2268 1623Q2268 1581 2239 1552L1780 1093Q1765 1078 1765 1057Q1765 1036 1780.0 1021.0Q1795 1006 1816 1006Q1841 1006 1863.0 1028.5Q1885 1051 1908.5 1078.0Q1932 1105 1958.5 1127.5Q1985 1150 2018 1150Q2055 1150 2080.5 1124.0Q2106 1098 2106 1061Q2106 1044 2099.5 1027.0Q2093 1010 2081 998L795 -287L687 144Z" style="fill:#0078d7;stroke:none" transform="scale(1,-1) translate(0,-256)" /></svg>