<?xml version="1.0" encoding="utf-8" ?>
<svg baseProfile="full" height="256" version="1.1" width="256" xmlns="http://www.w3.org/2000/svg" xmlns:ev="http://www.w3.org/2001/xml-events" xmlns:xlink="http://www.w3.org/1999/xlink"><defs /><path d="M908 41Q894 41 882.5 52.0Q871 63 871 77Q871 91 882 102L1560 780Q1570 790 1585 790Q1599 790 1610.0 779.5Q1621 769 1621 755Q1621 739 1611 729L933 52Q922 41 908 41ZM1622 863 1675 881 1693 935 1711 881 1765 863 1711 845 1693 791 1675 845Z" style="fill:#3a96dd;stroke:none" transform="scale(1,-1) translate(0,-256)" /></svg>