<?xml version="1.0" encoding="utf-8" ?>
<svg baseProfile="full" height="256" version="1.1" width="256" xmlns="http://www.w3.org/2000/svg" xmlns:ev="http://www.w3.org/2001/xml-events" xmlns:xlink="http://www.w3.org/1999/xlink"><defs /><path d="M1118 863Q1118 806 1112.0 750.0Q1106 694 1093 639Q1081 587 1056.5 526.0Q1032 465 995.5 412.0Q959 359 909.0 323.5Q859 288 795 288Q731 288 681.0 323.5Q631 359 594.5 412.0Q558 465 533.5 526.0Q509 587 497 639Q484 694 478.0 750.0Q472 806 472 863Q472 978 497 1087Q509 1139 533.5 1200.0Q558 1261 595.0 1314.0Q632 1367 682.0 1402.5Q732 1438 795 1438Q858 1438 908.0 1402.5Q958 1367 995.0 1314.0Q1032 1261 1056.5 1200.0Q1081 1139 1093 1087Q1118 978 1118 863Z" style="fill:#cc76ca;stroke:none" transform="scale(1,-1) translate(0,-256)" /></svg>