<?xml version="1.0" encoding="utf-8" ?>
<svg baseProfile="full" height="256" version="1.1" width="256" xmlns="http://www.w3.org/2000/svg" xmlns:ev="http://www.w3.org/2001/xml-events" xmlns:xlink="http://www.w3.org/1999/xlink"><defs /><path d="M1386 1539Q1437 1504 1474.5 1456.0Q1512 1408 1538.0 1352.0Q1564 1296 1580.5 1233.5Q1597 1171 1606.0 1107.5Q1615 1044 1618.5 981.5Q1622 919 1622 863Q1622 745 1662.0 636.5Q1702 528 1777 437Q1872 323 1990.5 258.5Q2109 194 2252 165Q2287 158 2316.5 141.0Q2346 124 2367.0 99.5Q2388 75 2400.0 43.5Q2412 12 2412 -24Q2412 -63 2397.0 -98.0Q2382 -133 2356.0 -159.0Q2330 -185 2295.0 -200.0Q2260 -215 2221 -215H1034Q1022 -230 999.5 -241.5Q977 -253 948.0 -261.0Q919 -269 887.0 -274.0Q855 -279 824.0 -282.0Q793 -285 766.5 -286.0Q740 -287 722 -287Q705 -287 675.0 -286.0Q645 -285 609.0 -281.5Q573 -278 536.0 -271.0Q499 -264 468.5 -252.0Q438 -240 419.0 -222.0Q400 -204 400 -179Q400 -154 419.5 -136.5Q439 -119 469.5 -107.0Q500 -95 537.5 -88.0Q575 -81 611.0 -77.5Q647 -74 677.5 -73.0Q708 -72 724 -72Q753 -72 798.0 -74.5Q843 -77 889.0 -84.5Q935 -92 974.5 -106.0Q1014 -120 1034 -144H2221Q2246 -144 2267.5 -134.5Q2289 -125 2305.0 -108.5Q2321 -92 2330.5 -70.5Q2340 -49 2340 -24Q2340 23 2312.5 53.5Q2285 84 2240 94Q2211 100 2182.5 106.5Q2154 113 2125 122Q2007 159 1904.0 227.5Q1801 296 1722 391Q1638 491 1594.0 611.5Q1550 732 1550 863Q1550 943 1543.0 1020.5Q1536 1098 1520 1176Q1500 1272 1469.5 1364.0Q1439 1456 1386 1539ZM726 -216Q750 -216 782.5 -214.5Q815 -213 848.5 -208.5Q882 -204 913.0 -197.0Q944 -190 964 -179Q942 -168 910.5 -161.0Q879 -154 845.0 -150.0Q811 -146 778.5 -144.5Q746 -143 722 -143Q694 -143 662.5 -144.5Q631 -146 599.5 -150.0Q568 -154 538.0 -161.0Q508 -168 482 -179Q504 -190 535.5 -197.0Q567 -204 601.0 -208.5Q635 -213 668.0 -214.5Q701 -216 726 -216Z" style="fill:#ffd679;stroke:none" transform="scale(1,-1) translate(0,-256)" /></svg>