<?xml version="1.0" encoding="utf-8" ?>
<svg baseProfile="full" height="256" version="1.1" width="256" xmlns="http://www.w3.org/2000/svg" xmlns:ev="http://www.w3.org/2001/xml-events" xmlns:xlink="http://www.w3.org/1999/xlink"><defs /><path d="M1406 0Q1360 0 1315.5 9.5Q1271 19 1226 27Q1201 14 1174.0 7.0Q1147 0 1118 0H1047Q938 0 845.5 42.0Q753 84 678.5 154.0Q604 224 548.5 313.5Q493 403 460 499Q429 587 414.5 678.5Q400 770 400 863Q400 956 414.5 1047.0Q429 1138 460 1226Q493 1322 548.5 1411.5Q604 1501 678.5 1571.0Q753 1641 845.5 1683.0Q938 1725 1047 1725H1097Q1130 1725 1161.0 1720.5Q1192 1716 1226 1698L1370 1725Q1372 1726 1375.5 1726.0Q1379 1726 1382 1726Q1388 1726 1394.5 1725.5Q1401 1725 1406 1725Q1515 1725 1607.5 1683.0Q1700 1641 1774.5 1571.0Q1849 1501 1904.5 1411.5Q1960 1322 1993 1226Q2024 1138 2038.5 1047.0Q2053 956 2053 863Q2053 770 2038.5 678.5Q2024 587 1993 499Q1960 404 1904.5 314.0Q1849 224 1774.5 154.0Q1700 84 1607.5 42.0Q1515 0 1406 0Z" style="fill:#9a0089;stroke:none" transform="scale(1,-1) translate(0,-256)" /></svg>