<?xml version="1.0" encoding="utf-8" ?>
<svg baseProfile="full" height="256" version="1.1" width="256" xmlns="http://www.w3.org/2000/svg" xmlns:ev="http://www.w3.org/2001/xml-events" xmlns:xlink="http://www.w3.org/1999/xlink"><defs /><path d="M1370 1722Q1424 1713 1469.0 1683.0Q1514 1653 1551.0 1609.0Q1588 1565 1617.5 1511.5Q1647 1458 1669.5 1402.0Q1692 1346 1707.5 1291.5Q1723 1237 1732 1192Q1749 1111 1757.0 1028.5Q1765 946 1765 863Q1765 780 1757.5 697.5Q1750 615 1733 534Q1723 489 1707.5 434.0Q1692 379 1669.5 323.0Q1647 267 1617.5 213.0Q1588 159 1551.0 115.0Q1514 71 1468.5 40.5Q1423 10 1370 0Q1349 0 1331.5 0.5Q1314 1 1297.0 3.5Q1280 6 1263.0 11.5Q1246 17 1226 27Q1255 42 1276.5 59.5Q1298 77 1316.0 97.0Q1334 117 1350.0 139.0Q1366 161 1386 186Q1401 205 1415.5 221.5Q1430 238 1444 260Q1480 320 1507.0 396.0Q1534 472 1552.0 552.5Q1570 633 1578.5 713.0Q1587 793 1587 863Q1587 936 1578.0 1013.5Q1569 1091 1551.0 1167.5Q1533 1244 1506.5 1317.0Q1480 1390 1444 1453Q1430 1476 1415.5 1496.5Q1401 1517 1386 1539Q1369 1563 1352.0 1585.5Q1335 1608 1316.0 1628.5Q1297 1649 1275.0 1666.5Q1253 1684 1226 1698Q1251 1711 1278.0 1718.0Q1305 1725 1334 1725L1370 1722Z" style="fill:#800074;stroke:none" transform="scale(1,-1) translate(0,-256)" /></svg>