<?xml version="1.0" encoding="utf-8" ?>
<svg baseProfile="full" height="256" version="1.1" width="256" xmlns="http://www.w3.org/2000/svg" xmlns:ev="http://www.w3.org/2001/xml-events" xmlns:xlink="http://www.w3.org/1999/xlink"><defs /><path d="M975 863Q975 821 971.0 779.0Q967 737 958 695Q953 672 944.5 643.5Q936 615 923.5 585.5Q911 556 895.0 528.5Q879 501 858.5 479.0Q838 457 813.0 444.0Q788 431 759 431Q715 431 681.5 459.5Q648 488 623.5 528.5Q599 569 583.0 614.5Q567 660 560 695Q551 737 547.0 779.0Q543 821 543 863Q543 908 547.5 952.5Q552 997 562 1041Q570 1075 585.5 1118.5Q601 1162 625.5 1201.0Q650 1240 683.0 1267.0Q716 1294 759 1294Q802 1294 835.0 1267.0Q868 1240 892.5 1201.0Q917 1162 932.5 1118.5Q948 1075 956 1041Q966 997 970.5 952.5Q975 908 975 863Z" style="fill:#c239b3;stroke:none" transform="scale(1,-1) translate(0,-256)" /></svg>