<?xml version="1.0" encoding="utf-8" ?>
<svg baseProfile="full" height="256" version="1.1" width="256" xmlns="http://www.w3.org/2000/svg" xmlns:ev="http://www.w3.org/2001/xml-events" xmlns:xlink="http://www.w3.org/1999/xlink"><defs /><path d="M723 -431Q682 -431 631.0 -428.0Q580 -425 528.5 -416.0Q477 -407 428.0 -390.0Q379 -373 340.5 -345.0Q302 -317 279.0 -276.5Q256 -236 256 -179Q256 -116 285.0 -72.5Q314 -29 359.0 -1.0Q404 27 459.0 42.0Q514 57 567 63Q488 140 429.5 234.0Q371 328 332.5 431.5Q294 535 275.0 644.5Q256 754 256 863Q256 966 272.5 1067.5Q289 1169 322 1266Q363 1384 431.5 1493.0Q500 1602 592.5 1685.5Q685 1769 799.5 1819.0Q914 1869 1047 1869H1118Q1175 1869 1226 1853Q1267 1865 1307.0 1867.0Q1347 1869 1389 1869H1406Q1539 1869 1653.5 1819.0Q1768 1769 1860.5 1685.5Q1953 1602 2021.5 1493.0Q2090 1384 2131 1266Q2164 1169 2180.5 1067.5Q2197 966 2197 863Q2197 735 2172.5 609.5Q2148 484 2095 366Q2140 343 2184.0 330.5Q2228 318 2276 307Q2337 294 2388.5 265.0Q2440 236 2477.5 193.0Q2515 150 2535.5 95.0Q2556 40 2556 -24Q2556 -93 2529.5 -154.0Q2503 -215 2457.5 -260.5Q2412 -306 2351.0 -332.5Q2290 -359 2221 -359H1083Q1045 -382 1000.5 -396.0Q956 -410 908.5 -418.0Q861 -426 813.5 -428.5Q766 -431 723 -431Z" style="fill:#000000;stroke:none" transform="scale(1,-1) translate(0,-256)" /></svg>