<?xml version="1.0" encoding="utf-8" ?>
<svg baseProfile="full" height="256" version="1.1" width="256" xmlns="http://www.w3.org/2000/svg" xmlns:ev="http://www.w3.org/2001/xml-events" xmlns:xlink="http://www.w3.org/1999/xlink"><defs /><path d="M1370 863Q1392 863 1411.5 854.5Q1431 846 1446.0 831.0Q1461 816 1469.5 796.5Q1478 777 1478 755Q1478 732 1469.5 712.5Q1461 693 1446.5 678.5Q1432 664 1412.0 655.5Q1392 647 1370 647Q1347 647 1327.5 655.5Q1308 664 1293.5 678.5Q1279 693 1270.5 712.5Q1262 732 1262 755Q1262 777 1270.5 796.5Q1279 816 1294.0 831.0Q1309 846 1328.5 854.5Q1348 863 1370 863ZM687 108Q687 122 698 133L913 349Q923 359 938 359Q953 359 963.5 348.5Q974 338 974 323Q974 308 964 298L748 83Q737 72 723 72Q709 72 698.0 83.0Q687 94 687 108ZM1801 359Q1817 359 1827 349L2042 133Q2052 123 2052 108Q2052 94 2041.5 83.0Q2031 72 2017 72Q2003 72 1992 83L1776 298Q1765 309 1765 323Q1765 337 1776.0 348.0Q1787 359 1801 359ZM1981 1330Q1981 1315 1970 1304L1827 1161Q1816 1150 1801 1150Q1787 1150 1776.0 1161.0Q1765 1172 1765 1186Q1765 1201 1776 1212L1920 1355Q1930 1365 1945 1365Q1959 1365 1970.0 1354.5Q1981 1344 1981 1330ZM795 1365Q810 1365 820 1355L964 1212Q974 1202 974 1186Q974 1172 963.0 1161.0Q952 1150 938 1150Q924 1150 913 1161L770 1304Q759 1315 759 1330Q759 1344 770.0 1354.5Q781 1365 795 1365ZM2089 791Q2104 791 2114.5 780.5Q2125 770 2125 755Q2125 740 2114.5 729.5Q2104 719 2089 719H1945Q1930 719 1919.5 729.5Q1909 740 1909 755Q1909 770 1919.5 780.5Q1930 791 1945 791ZM1370 1294Q1355 1294 1344.5 1304.5Q1334 1315 1334 1330V1474Q1334 1489 1344.5 1499.5Q1355 1510 1370 1510Q1385 1510 1395.5 1499.5Q1406 1489 1406 1474V1330Q1406 1315 1395.5 1304.5Q1385 1294 1370 1294ZM831 755Q831 740 820.5 729.5Q810 719 795 719H651Q636 719 625.5 729.5Q615 740 615 755Q615 770 625.5 780.5Q636 791 651 791H795Q810 791 820.5 780.5Q831 770 831 755Z" style="fill:#9c89e9;stroke:none" transform="scale(1,-1) translate(0,-256)" /></svg>