<?xml version="1.0" encoding="utf-8" ?>
<svg baseProfile="full" height="256" version="1.1" width="256" xmlns="http://www.w3.org/2000/svg" xmlns:ev="http://www.w3.org/2001/xml-events" xmlns:xlink="http://www.w3.org/1999/xlink"><defs /><path d="M2556 755Q2556 717 2542.0 684.5Q2528 652 2503.5 627.5Q2479 603 2446.0 589.0Q2413 575 2376 575H2231Q2268 527 2268 467Q2268 430 2254.5 397.5Q2241 365 2217.0 340.5Q2193 316 2160.5 302.0Q2128 288 2091 288L2360 19Q2386 -7 2399.0 -39.5Q2412 -72 2412 -108Q2412 -145 2398.0 -177.5Q2384 -210 2359.5 -234.5Q2335 -259 2302.5 -273.0Q2270 -287 2233 -287Q2198 -287 2164.5 -274.0Q2131 -261 2106 -236L1825 46Q1805 -7 1760.0 -39.5Q1715 -72 1658 -72Q1638 -72 1622 -68V-431H1118V-68Q1103 -72 1083 -72Q1026 -72 980.5 -40.5Q935 -9 915 45L635 -235Q609 -261 576.0 -274.0Q543 -287 507 -287Q469 -287 436.5 -273.0Q404 -259 380.0 -235.0Q356 -211 342.0 -178.5Q328 -146 328 -108Q328 -60 348.0 -26.5Q368 7 400 39L649 288Q612 288 579.5 302.0Q547 316 523.0 340.5Q499 365 485.5 397.5Q472 430 472 467Q472 527 509 575H436Q398 575 365.5 589.0Q333 603 308.5 627.5Q284 652 270.0 684.5Q256 717 256 755Q256 792 270.0 825.0Q284 858 308.5 882.5Q333 907 365.5 921.0Q398 935 436 935H509Q492 958 482.0 985.5Q472 1013 472 1042Q472 1079 485.5 1111.5Q499 1144 523.0 1168.5Q547 1193 579.5 1207.5Q612 1222 649 1222L452 1419Q427 1444 413.5 1477.0Q400 1510 400 1545Q400 1582 414.0 1615.0Q428 1648 452.5 1672.5Q477 1697 509.5 1711.0Q542 1725 579 1725Q614 1725 647.0 1712.0Q680 1699 705 1674L915 1464Q935 1518 980.5 1549.5Q1026 1581 1083 1581Q1112 1581 1139.5 1571.0Q1167 1561 1190 1544V1689Q1190 1726 1204.0 1759.0Q1218 1792 1242.5 1816.5Q1267 1841 1299.5 1855.0Q1332 1869 1370 1869Q1407 1869 1440.0 1855.0Q1473 1841 1497.5 1816.5Q1522 1792 1536.0 1759.0Q1550 1726 1550 1689V1544Q1598 1581 1658 1581Q1715 1581 1760.0 1549.5Q1805 1518 1825 1464L2034 1673Q2059 1698 2092.5 1711.5Q2126 1725 2161 1725Q2198 1725 2231.0 1711.0Q2264 1697 2288.0 1672.5Q2312 1648 2326.0 1615.0Q2340 1582 2340 1545Q2340 1471 2287 1418L2091 1222Q2128 1222 2160.5 1207.5Q2193 1193 2217.0 1168.5Q2241 1144 2254.5 1111.5Q2268 1079 2268 1042Q2268 1013 2258.0 985.5Q2248 958 2231 935H2376Q2413 935 2446.0 921.0Q2479 907 2503.5 882.5Q2528 858 2542.0 825.0Q2556 792 2556 755Z" style="fill:#000000;stroke:none" transform="scale(1,-1) translate(0,-256)" /></svg>