<?xml version="1.0" encoding="utf-8" ?>
<svg baseProfile="full" height="256" version="1.1" width="256" xmlns="http://www.w3.org/2000/svg" xmlns:ev="http://www.w3.org/2001/xml-events" xmlns:xlink="http://www.w3.org/1999/xlink"><defs /><path d="M1837 935Q1837 907 1816 884L1693 751L1816 626Q1837 605 1837 576Q1837 546 1816.0 524.5Q1795 503 1765 503H1622V360Q1622 331 1600.5 309.5Q1579 288 1550 288Q1520 288 1499 309L1370 438L1241 309Q1220 288 1191 288Q1161 288 1139.5 309.0Q1118 330 1118 360V503H975Q946 503 924.5 524.5Q903 546 903 575Q903 605 924 626L1047 751L924 884Q913 896 908.0 906.5Q903 917 903 934Q903 965 923.5 985.5Q944 1006 975 1006H1118V1150Q1118 1179 1139.5 1200.5Q1161 1222 1190 1222Q1207 1222 1218.0 1217.0Q1229 1212 1241 1201L1370 1078L1499 1201Q1520 1222 1549 1222Q1579 1222 1600.5 1201.0Q1622 1180 1622 1150V1006H1765Q1795 1006 1816.0 985.5Q1837 965 1837 935ZM1693 611Q1693 627 1683 637L1565 755L1683 873Q1693 883 1693 899Q1693 913 1682.5 924.0Q1672 935 1658 935H1550V1042Q1550 1057 1539.5 1067.5Q1529 1078 1514 1078Q1498 1078 1488 1068L1370 949L1252 1068Q1242 1078 1226 1078Q1211 1078 1200.5 1067.5Q1190 1057 1190 1042V935H1083Q1068 935 1057.5 924.5Q1047 914 1047 899Q1047 883 1057 873L1175 755L1057 637Q1047 627 1047 611Q1047 596 1057.5 585.5Q1068 575 1083 575H1190V467Q1190 453 1201.0 442.5Q1212 432 1226 432Q1242 432 1252 442L1370 560L1488 442Q1498 432 1514 432Q1528 432 1539.0 442.5Q1550 453 1550 467V575H1658Q1672 575 1682.5 586.0Q1693 597 1693 611ZM2196 1545Q2196 1530 2186 1520L2114 1448Q2103 1437 2088 1437Q2074 1437 2063.0 1448.0Q2052 1459 2052 1473Q2052 1488 2063 1499L2135 1571Q2145 1581 2160 1581Q2175 1581 2185.5 1570.5Q2196 1560 2196 1545ZM471 -108Q471 -93 482 -82L554 -10Q564 0 579 0Q594 0 604.5 -10.5Q615 -21 615 -36Q615 -51 605 -61L533 -133Q522 -144 507 -144Q493 -144 482.0 -133.0Q471 -122 471 -108ZM2160 0Q2176 0 2186 -10L2258 -82Q2268 -92 2268 -108Q2268 -122 2257.0 -133.0Q2246 -144 2232 -144Q2218 -144 2207 -133L2135 -61Q2124 -50 2124 -36Q2124 -22 2135.0 -11.0Q2146 0 2160 0ZM579 1581Q595 1581 605 1571L677 1499Q687 1489 687 1473Q687 1459 676.0 1448.0Q665 1437 651 1437Q637 1437 626 1448L554 1520Q543 1531 543 1545Q543 1559 554.0 1570.0Q565 1581 579 1581ZM2376 791Q2391 791 2401.5 780.5Q2412 770 2412 755Q2412 740 2401.5 729.5Q2391 719 2376 719H2304Q2290 719 2279.0 730.0Q2268 741 2268 755Q2268 769 2279.0 780.0Q2290 791 2304 791ZM1370 1581Q1356 1581 1345.0 1592.0Q1334 1603 1334 1617V1689Q1334 1704 1344.5 1714.5Q1355 1725 1370 1725Q1385 1725 1395.5 1714.5Q1406 1704 1406 1689V1617Q1406 1603 1395.0 1592.0Q1384 1581 1370 1581ZM543 755Q543 741 532.5 730.0Q522 719 508 719H436Q421 719 410.5 729.5Q400 740 400 755Q400 770 410.5 780.5Q421 791 436 791H508Q522 791 532.5 780.0Q543 769 543 755ZM651 503Q666 503 676.5 492.5Q687 482 687 467Q687 453 676.0 442.0Q665 431 651 431Q637 431 626.0 442.0Q615 453 615 467Q615 482 625.5 492.5Q636 503 651 503ZM2089 503Q2104 503 2114.5 492.5Q2125 482 2125 467Q2125 453 2114.0 442.0Q2103 431 2089 431Q2075 431 2064.0 442.0Q2053 453 2053 467Q2053 482 2063.5 492.5Q2074 503 2089 503ZM2089 1006Q2075 1006 2064.0 1017.0Q2053 1028 2053 1042Q2053 1057 2063.5 1067.5Q2074 1078 2089 1078Q2104 1078 2114.5 1067.5Q2125 1057 2125 1042Q2125 1028 2114.0 1017.0Q2103 1006 2089 1006ZM651 1078Q666 1078 676.5 1067.5Q687 1057 687 1042Q687 1028 676.0 1017.0Q665 1006 651 1006Q637 1006 626.0 1017.0Q615 1028 615 1042Q615 1057 625.5 1067.5Q636 1078 651 1078ZM1083 144Q1097 144 1107.5 133.0Q1118 122 1118 108Q1118 94 1107.5 83.0Q1097 72 1083 72Q1068 72 1057.5 82.5Q1047 93 1047 108Q1047 123 1057.5 133.5Q1068 144 1083 144ZM1658 1366Q1643 1366 1632.5 1376.5Q1622 1387 1622 1402Q1622 1417 1632.5 1427.5Q1643 1438 1658 1438Q1672 1438 1682.5 1427.0Q1693 1416 1693 1402Q1693 1388 1682.5 1377.0Q1672 1366 1658 1366ZM1083 1366Q1068 1366 1057.5 1376.5Q1047 1387 1047 1402Q1047 1417 1057.5 1427.5Q1068 1438 1083 1438Q1097 1438 1107.5 1427.0Q1118 1416 1118 1402Q1118 1388 1107.5 1377.0Q1097 1366 1083 1366ZM1658 144Q1672 144 1682.5 133.0Q1693 122 1693 108Q1693 94 1682.5 83.0Q1672 72 1658 72Q1643 72 1632.5 82.5Q1622 93 1622 108Q1622 123 1632.5 133.5Q1643 144 1658 144Z" style="fill:#f495bf;stroke:none" transform="scale(1,-1) translate(0,-256)" /></svg>