<?xml version="1.0" encoding="utf-8" ?>
<svg baseProfile="full" height="256" version="1.1" width="256" xmlns="http://www.w3.org/2000/svg" xmlns:ev="http://www.w3.org/2001/xml-events" xmlns:xlink="http://www.w3.org/1999/xlink"><defs /><path d="M2261 -97Q2296 -130 2318.0 -165.0Q2340 -200 2340 -251Q2340 -289 2326.0 -321.5Q2312 -354 2287.5 -378.5Q2263 -403 2230.0 -417.0Q2197 -431 2160 -431Q2109 -431 2074.5 -409.5Q2040 -388 2007 -352L1988 -344L407 447Q369 466 348.5 498.5Q328 531 328 574Q328 604 339.0 630.0Q350 656 369.5 676.0Q389 696 415.0 707.5Q441 719 471 719Q501 719 527.0 730.0Q553 741 572.5 760.5Q592 780 603.5 806.5Q615 833 615 863V1040L353 1302Q306 1349 281.0 1410.0Q256 1471 256 1537Q256 1606 282.0 1666.5Q308 1727 353.0 1772.0Q398 1817 458.5 1843.0Q519 1869 588 1869Q669 1869 732.5 1835.0Q796 1801 850 1744Q876 1715 889.0 1685.5Q902 1656 902 1617Q902 1580 888.5 1547.5Q875 1515 851.0 1490.5Q827 1466 794.5 1452.0Q762 1438 725 1438L869 1294H1046Q1076 1294 1102.0 1305.0Q1128 1316 1147.5 1335.5Q1167 1355 1178.5 1381.5Q1190 1408 1190 1438Q1190 1468 1201.5 1494.0Q1213 1520 1232.5 1539.5Q1252 1559 1278.0 1570.0Q1304 1581 1334 1581Q1375 1581 1409.5 1559.5Q1444 1538 1462 1502Z" style="fill:#000000;stroke:none" transform="scale(1,-1) translate(0,-256)" /></svg>