<?xml version="1.0" encoding="utf-8" ?>
<svg baseProfile="full" height="256" version="1.1" width="256" xmlns="http://www.w3.org/2000/svg" xmlns:ev="http://www.w3.org/2001/xml-events" xmlns:xlink="http://www.w3.org/1999/xlink"><defs /><path d="M2161 -287Q2145 -287 2135 -277L455 1404Q400 1459 400 1537Q400 1576 414.5 1610.0Q429 1644 454.5 1669.5Q480 1695 514.5 1710.0Q549 1725 588 1725Q628 1725 660.0 1710.5Q692 1696 721 1670Q732 1659 745.5 1646.5Q759 1634 759 1617Q759 1603 748.0 1592.0Q737 1581 723 1581Q710 1581 698.5 1592.0Q687 1603 672.5 1616.5Q658 1630 638.0 1641.5Q618 1653 588 1653Q564 1653 543.0 1644.0Q522 1635 506.0 1619.0Q490 1603 481.0 1582.0Q472 1561 472 1537Q472 1488 506 1454L2186 -226Q2196 -236 2196 -252Q2196 -266 2185.5 -276.5Q2175 -287 2161 -287Z" style="fill:#d48c00;stroke:none" transform="scale(1,-1) translate(0,-256)" /></svg>