<?xml version="1.0" encoding="utf-8" ?>
<svg baseProfile="full" height="256" version="1.1" width="256" xmlns="http://www.w3.org/2000/svg" xmlns:ev="http://www.w3.org/2001/xml-events" xmlns:xlink="http://www.w3.org/1999/xlink"><defs /><path d="M975 1366Q975 1413 991.0 1452.5Q1007 1492 1036.0 1520.5Q1065 1549 1104.5 1565.0Q1144 1581 1191 1581H1335Q1334 1557 1324.5 1542.5Q1315 1528 1300.5 1521.0Q1286 1514 1267.5 1512.0Q1249 1510 1230 1510H1191Q1162 1510 1148.5 1499.5Q1135 1489 1128.5 1473.0Q1122 1457 1119.0 1438.0Q1116 1419 1109.5 1403.0Q1103 1387 1089.5 1376.5Q1076 1366 1047 1366Z" style="fill:#ffb900;stroke:none" transform="scale(1,-1) translate(0,-256)" /></svg>