<?xml version="1.0" encoding="utf-8" ?>
<svg baseProfile="full" height="256" version="1.1" width="256" xmlns="http://www.w3.org/2000/svg" xmlns:ev="http://www.w3.org/2001/xml-events" xmlns:xlink="http://www.w3.org/1999/xlink"><defs /><path d="M2556 288Q2556 234 2536.5 183.0Q2517 132 2481 92Q2474 21 2449.5 -43.5Q2425 -108 2385.5 -163.5Q2346 -219 2293.5 -264.0Q2241 -309 2178 -342Q2141 -362 2098.5 -378.0Q2056 -394 2011.5 -406.0Q1967 -418 1922.5 -424.5Q1878 -431 1836 -431H616L688 -359H256L507 -49Q463 -5 430.0 48.5Q397 102 374.5 161.0Q352 220 340.5 282.5Q329 345 329 406Q329 473 343.0 538.5Q357 604 384.5 664.5Q412 725 453.0 778.0Q494 831 548 872Q514 882 487.0 902.5Q460 923 440.5 950.5Q421 978 410.5 1010.5Q400 1043 400 1078V1366Q400 1412 416.5 1451.0Q433 1490 462.0 1519.0Q491 1548 530.0 1564.5Q569 1581 615 1581H897Q948 1654 1024.0 1689.5Q1100 1725 1188 1725H1478V1510H1694V1150Q1694 1102 1687.0 1056.0Q1680 1010 1667 964Q1738 990 1805.5 998.5Q1873 1007 1948 1007Q1974 1007 2000.5 1006.5Q2027 1006 2053 1006V935H2125Q2214 935 2292.5 901.0Q2371 867 2429.5 808.0Q2488 749 2522.0 670.5Q2556 592 2556 503Z" style="fill:#000000;stroke:none" transform="scale(1,-1) translate(0,-256)" /></svg>