<?xml version="1.0" encoding="utf-8" ?>
<svg baseProfile="full" height="256" version="1.1" width="256" xmlns="http://www.w3.org/2000/svg" xmlns:ev="http://www.w3.org/2001/xml-events" xmlns:xlink="http://www.w3.org/1999/xlink"><defs /><path d="M1815 645Q1882 645 1947.5 631.0Q2013 617 2072.0 588.5Q2131 560 2180.5 516.0Q2230 472 2265 412Q2299 353 2319.5 283.0Q2340 213 2340 144Q2340 83 2323.5 30.0Q2307 -23 2277.0 -68.0Q2247 -113 2204.5 -150.0Q2162 -187 2110 -215Q2082 -230 2048.0 -243.0Q2014 -256 1977.5 -266.0Q1941 -276 1904.5 -281.5Q1868 -287 1836 -287H1548Q1563 -257 1585.5 -231.0Q1608 -205 1636.0 -185.5Q1664 -166 1696.0 -155.0Q1728 -144 1763 -144Q1809 -144 1854.5 -128.0Q1900 -112 1936.5 -83.0Q1973 -54 1996.0 -13.5Q2019 27 2019 77Q2019 85 2018.0 92.5Q2017 100 2016 108L1909 0L1888 21L1837 0H1765L1742 23L1693 0H1622L1595 21L1622 72L1847 300Q1817 308 1788 308Q1764 308 1739.5 304.0Q1715 300 1694 288L1478 164V-144L1334 -287L1314 -264L1262 -287H1190L1168 -266L1118 -287H1047L1018 -272Q1026 -258 1032.5 -243.5Q1039 -229 1047 -215Q1052 -206 1071.0 -186.5Q1090 -167 1113.0 -145.0Q1136 -123 1157.5 -103.0Q1179 -83 1190 -72V0Q1184 4 1177.5 10.5Q1171 17 1164.0 23.0Q1157 29 1149.5 33.0Q1142 37 1135 37Q1104 37 1092.0 30.0Q1080 23 1076.5 11.5Q1073 0 1073.0 -16.0Q1073 -32 1066 -50L903 -215L884 -195L831 -215H759L740 -190L687 -215H615L587 -194Q597 -164 623.0 -137.0Q649 -110 676.5 -84.0Q704 -58 725.0 -33.0Q746 -8 746 18Q746 34 731.0 52.0Q716 70 696.0 88.5Q676 107 656.0 124.5Q636 142 627 157Q609 186 593.0 222.0Q577 258 565.5 296.5Q554 335 547.0 373.5Q540 412 540 447Q540 529 570.0 584.0Q600 639 648.0 679.0Q696 719 756.0 749.5Q816 780 877 813Q897 824 917.0 836.0Q937 848 959 857Q970 861 982.5 867.0Q995 873 1005.5 881.0Q1016 889 1023.0 899.5Q1030 910 1030 924Q1030 948 1011.0 970.5Q992 993 973 1006H615Q583 1006 563.0 1026.0Q543 1046 543 1078H829Q829 1109 818.5 1135.5Q808 1162 789.5 1181.0Q771 1200 744.5 1211.0Q718 1222 687 1222L669 1198L615 1222L598 1194L543 1222V1366Q543 1398 563.0 1418.0Q583 1438 615 1438V1366H759Q759 1396 778.0 1417.0Q797 1438 828 1438H1332Q1332 1407 1321.5 1380.5Q1311 1354 1292.5 1335.0Q1274 1316 1247.5 1305.0Q1221 1294 1190 1294Q1225 1266 1251.5 1228.5Q1278 1191 1296.0 1148.5Q1314 1106 1323.0 1060.5Q1332 1015 1332 971Q1332 926 1325.5 878.5Q1319 831 1302.5 788.0Q1286 745 1258.0 708.0Q1230 671 1188 647L889 475Q863 460 848.5 435.0Q834 410 834 380Q834 358 842.5 338.5Q851 319 866.0 304.5Q881 290 900.5 281.5Q920 273 942 273Q956 273 968.0 276.5Q980 280 993 286Q1032 303 1069.0 325.5Q1106 348 1144 368Q1240 419 1333.0 471.5Q1426 524 1523 574Q1591 609 1665.0 627.0Q1739 645 1815 645Z" style="fill:#73aa24;stroke:none" transform="scale(1,-1) translate(0,-256)" /></svg>