<?xml version="1.0" encoding="utf-8" ?>
<svg baseProfile="full" height="256" version="1.1" width="256" xmlns="http://www.w3.org/2000/svg" xmlns:ev="http://www.w3.org/2001/xml-events" xmlns:xlink="http://www.w3.org/1999/xlink"><defs /><path d="M2125 791Q2183 791 2235.5 768.0Q2288 745 2327.0 705.5Q2366 666 2389.0 613.5Q2412 561 2412 503V288Q2412 256 2401.5 230.0Q2391 204 2371.5 184.5Q2352 165 2325.5 154.5Q2299 144 2268 144Q2258 156 2236.5 182.5Q2215 209 2188.0 242.5Q2161 276 2133.0 312.5Q2105 349 2081.0 381.5Q2057 414 2041.0 439.0Q2025 464 2023 475L1406 503Q1415 533 1429.0 561.0Q1443 589 1460 615Q1540 739 1650.5 801.0Q1761 863 1909 863V719Q1929 741 1954.5 755.0Q1980 769 2008.5 777.0Q2037 785 2066.5 788.0Q2096 791 2125 791ZM1550 1150Q1550 1013 1495.0 909.5Q1440 806 1322 736Q1259 699 1191 683L1061 1366H1550Q1550 1331 1540.5 1296.5Q1531 1262 1512.5 1232.5Q1494 1203 1467.0 1181.0Q1440 1159 1404 1150Z" style="fill:#f7630c;stroke:none" transform="scale(1,-1) translate(0,-256)" /></svg>