<?xml version="1.0" encoding="utf-8" ?>
<svg baseProfile="full" height="256" version="1.1" width="256" xmlns="http://www.w3.org/2000/svg" xmlns:ev="http://www.w3.org/2001/xml-events" xmlns:xlink="http://www.w3.org/1999/xlink"><defs /><path d="M615 412Q615 361 628.0 310.0Q641 259 666 214Q745 72 903 72H1190V0Q1127 -34 1058.0 -53.0Q989 -72 917 -72Q814 -72 731.5 -33.5Q649 5 591.5 70.5Q534 136 503.0 223.5Q472 311 472 409Q472 498 493.5 562.5Q515 627 550.5 674.0Q586 721 631.0 753.5Q676 786 722.5 810.5Q769 835 814.0 854.5Q859 874 894.5 895.0Q930 916 951.5 942.0Q973 968 973 1006H1118V993Q1118 955 1106.0 922.5Q1094 890 1073.5 862.5Q1053 835 1026.0 811.5Q999 788 969 769Q948 755 926.0 746.0Q904 737 881 727Q822 703 773.0 677.5Q724 652 689.0 616.5Q654 581 634.5 532.0Q615 483 615 412ZM1622 0H1550L1622 72ZM1047 -287H975L1047 -215ZM1837 0 1909 72V0ZM1765 0H1693L1765 72ZM1190 -287H1118L1190 -215ZM1334 -287H1262L1334 -215ZM903 -215H831L903 -144ZM759 -215H687L759 -144ZM615 -215H543L615 -144Z" style="fill:#bad80a;stroke:none" transform="scale(1,-1) translate(0,-256)" /></svg>