<?xml version="1.0" encoding="utf-8" ?>
<svg baseProfile="full" height="256" version="1.1" width="256" xmlns="http://www.w3.org/2000/svg" xmlns:ev="http://www.w3.org/2001/xml-events" xmlns:xlink="http://www.w3.org/1999/xlink"><defs /><path d="M1370 935Q1333 935 1300.0 949.0Q1267 963 1242.5 987.5Q1218 1012 1204.0 1044.5Q1190 1077 1190 1114Q1190 1151 1204.0 1184.0Q1218 1217 1242.5 1241.5Q1267 1266 1299.5 1280.0Q1332 1294 1370 1294Q1407 1294 1440.0 1280.0Q1473 1266 1497.5 1241.5Q1522 1217 1536.0 1184.0Q1550 1151 1550 1114Q1550 1077 1536.0 1044.5Q1522 1012 1497.5 987.5Q1473 963 1440.0 949.0Q1407 935 1370 935ZM1118 -72H1622V-144H1118Z" style="fill:#f2f2f2;stroke:none" transform="scale(1,-1) translate(0,-256)" /></svg>