<?xml version="1.0" encoding="utf-8" ?>
<svg baseProfile="full" height="256" version="1.1" width="256" xmlns="http://www.w3.org/2000/svg" xmlns:ev="http://www.w3.org/2001/xml-events" xmlns:xlink="http://www.w3.org/1999/xlink"><defs /><path d="M908 72Q921 165 965.5 244.0Q1010 323 1076.5 380.5Q1143 438 1227.5 470.5Q1312 503 1406 503Q1500 503 1584.5 470.5Q1669 438 1735.5 380.0Q1802 322 1846.0 243.5Q1890 165 1904 72ZM1334 683Q1334 663 1323.0 645.5Q1312 628 1294 619L759 360V432L1101 683L759 935V1007L1294 747Q1312 738 1323.0 720.5Q1334 703 1334 683ZM2053 935 1710 683 2053 432V360L1518 619Q1500 628 1489.0 645.5Q1478 663 1478 683Q1478 703 1489.0 720.5Q1500 738 1518 747L2053 1007Z" style="fill:#000000;stroke:none" transform="scale(1,-1) translate(0,-256)" /></svg>