<?xml version="1.0" encoding="utf-8" ?>
<svg baseProfile="full" height="256" version="1.1" width="256" xmlns="http://www.w3.org/2000/svg" xmlns:ev="http://www.w3.org/2001/xml-events" xmlns:xlink="http://www.w3.org/1999/xlink"><defs /><path d="M2287 -20Q2344 -46 2377.5 -99.5Q2411 -153 2411 -215Q2411 -259 2394.5 -298.5Q2378 -338 2349.0 -367.5Q2320 -397 2281.0 -414.0Q2242 -431 2197 -431H615Q570 -431 531.0 -414.0Q492 -397 463.0 -367.5Q434 -338 417.0 -299.0Q400 -260 400 -215Q400 -152 434.0 -99.0Q468 -46 525 -20Q394 136 325.5 325.5Q257 515 257 719Q257 877 298.0 1024.0Q339 1171 414.0 1299.0Q489 1427 594.0 1532.0Q699 1637 826.5 1712.0Q954 1787 1100.5 1828.0Q1247 1869 1406 1869Q1564 1869 1711.0 1828.0Q1858 1787 1986.0 1712.0Q2114 1637 2219.0 1532.0Q2324 1427 2399.0 1299.0Q2474 1171 2515.0 1024.0Q2556 877 2556 719Q2556 515 2487.0 325.5Q2418 136 2287 -20Z" style="fill:#000000;stroke:none" transform="scale(1,-1) translate(0,-256)" /></svg>