<?xml version="1.0" encoding="utf-8" ?>
<svg baseProfile="full" height="256" version="1.1" width="256" xmlns="http://www.w3.org/2000/svg" xmlns:ev="http://www.w3.org/2001/xml-events" xmlns:xlink="http://www.w3.org/1999/xlink"><defs /><path d="M687 1099Q657 1099 636.0 1120.0Q615 1141 615 1171Q615 1201 636.0 1222.0Q657 1243 687 1243Q802 1243 894.5 1287.5Q987 1332 1065 1413Q1088 1438 1119 1438Q1148 1438 1169.5 1416.5Q1191 1395 1191 1366Q1191 1340 1172 1318Q1128 1266 1072.0 1225.0Q1016 1184 953.0 1156.0Q890 1128 822.0 1113.5Q754 1099 687 1099ZM2125 1099Q2058 1099 1990.0 1113.5Q1922 1128 1859.0 1156.0Q1796 1184 1739.5 1225.0Q1683 1266 1640 1318Q1621 1340 1621 1366Q1621 1395 1642.5 1416.5Q1664 1438 1693 1438Q1724 1438 1747 1413Q1826 1332 1918.0 1287.5Q2010 1243 2125 1243Q2154 1243 2175.5 1221.5Q2197 1200 2197 1171Q2197 1142 2175.5 1120.5Q2154 1099 2125 1099Z" style="fill:#d48c00;stroke:none" transform="scale(1,-1) translate(0,-256)" /></svg>