<?xml version="1.0" encoding="utf-8" ?>
<svg baseProfile="full" height="256" version="1.1" width="256" xmlns="http://www.w3.org/2000/svg" xmlns:ev="http://www.w3.org/2001/xml-events" xmlns:xlink="http://www.w3.org/1999/xlink"><defs /><path d="M2191 -144Q2199 -142 2203 -142Q2216 -142 2227.5 -149.0Q2239 -156 2248.0 -166.5Q2257 -177 2262.5 -190.0Q2268 -203 2268 -215Q2268 -244 2247.0 -265.5Q2226 -287 2197 -287Q2184 -287 2171.5 -282.5Q2159 -278 2149 -269Q2123 -287 2089 -287Q2051 -287 2023 -265Q1985 -287 1945 -287H867Q827 -287 789 -265Q761 -287 723 -287Q707 -287 691.5 -282.5Q676 -278 663 -269Q642 -287 615 -287Q586 -287 564.5 -265.5Q543 -244 543 -215Q543 -186 564.5 -164.5Q586 -143 615 -143Q617 -143 618.0 -143.5Q619 -144 621 -144Q632 -112 660.0 -92.0Q688 -72 723 -72Q728 -72 732.0 -72.0Q736 -72 741 -73Q761 -39 794.5 -19.5Q828 0 867 0Q884 0 906 -5Q903 16 903 36Q903 88 922.5 134.0Q942 180 976.0 214.0Q1010 248 1056.0 268.0Q1102 288 1154 288Q1181 288 1207 282Q1226 317 1260.0 338.5Q1294 360 1334 360H1478Q1518 360 1552.0 338.5Q1586 317 1605 282Q1630 288 1658 288Q1710 288 1755.5 268.0Q1801 248 1835.0 213.5Q1869 179 1889.0 133.5Q1909 88 1909 36Q1909 16 1906 -5Q1928 0 1945 0Q1984 0 2017.5 -19.0Q2051 -38 2070 -73Q2075 -72 2078.5 -72.0Q2082 -72 2087 -72Q2122 -72 2150.5 -91.5Q2179 -111 2191 -144Z" style="fill:#107c10;stroke:none" transform="scale(1,-1) translate(0,-256)" /></svg>