<?xml version="1.0" encoding="utf-8" ?>
<svg baseProfile="full" height="256" version="1.1" width="256" xmlns="http://www.w3.org/2000/svg" xmlns:ev="http://www.w3.org/2001/xml-events" xmlns:xlink="http://www.w3.org/1999/xlink"><defs /><path d="M1945 791Q1912 791 1891.0 822.0Q1870 853 1858.0 894.5Q1846 936 1841.5 978.0Q1837 1020 1837 1042Q1837 1057 1839.0 1081.5Q1841 1106 1845.5 1134.0Q1850 1162 1858.0 1190.5Q1866 1219 1878.0 1242.0Q1890 1265 1906.5 1279.5Q1923 1294 1945 1294Q1967 1294 1983.5 1279.5Q2000 1265 2012.0 1242.0Q2024 1219 2032.0 1190.5Q2040 1162 2044.5 1134.0Q2049 1106 2051.0 1081.5Q2053 1057 2053 1042Q2053 1020 2048.5 978.0Q2044 936 2032.0 894.5Q2020 853 1999.0 822.0Q1978 791 1945 791Z" style="fill:#757575;stroke:none" transform="scale(1,-1) translate(0,-256)" /></svg>