<?xml version="1.0" encoding="utf-8" ?>
<svg baseProfile="full" height="256" version="1.1" width="256" xmlns="http://www.w3.org/2000/svg" xmlns:ev="http://www.w3.org/2001/xml-events" xmlns:xlink="http://www.w3.org/1999/xlink"><defs /><path d="M2053 -287 2017 -266 1981 -287Q1960 -287 1934.0 -288.0Q1908 -289 1883 -289Q1870 -289 1858.5 -288.5Q1847 -288 1837 -287L1502 -239Q1477 -236 1457.0 -231.5Q1437 -227 1418.0 -223.5Q1399 -220 1379.0 -217.5Q1359 -215 1334 -215L999 -263Q974 -266 954.0 -270.5Q934 -275 915.0 -278.5Q896 -282 876.0 -284.5Q856 -287 831 -287H543V-48Q543 51 581.0 138.5Q619 226 684.0 291.0Q749 356 837.0 393.5Q925 431 1024 431H1645Q1744 431 1831.5 393.5Q1919 356 1984.5 291.0Q2050 226 2087.5 138.5Q2125 51 2125 -48V-287ZM1406 1438Q1436 1373 1480.0 1320.0Q1524 1267 1578.5 1229.5Q1633 1192 1698.0 1171.0Q1763 1150 1837 1150V1008Q1837 904 1797.5 812.0Q1758 720 1690.0 651.5Q1622 583 1530.5 543.0Q1439 503 1334 503Q1229 503 1137.5 543.0Q1046 583 978.0 651.5Q910 720 870.5 812.0Q831 904 831 1008V1150Q937 1152 1011.0 1208.0Q1085 1264 1117 1364Q1136 1327 1169.0 1300.5Q1202 1274 1242.0 1256.5Q1282 1239 1325.0 1230.5Q1368 1222 1406 1222Z" style="fill:#ffc83d;stroke:none" transform="scale(1,-1) translate(0,-256)" /></svg>