<?xml version="1.0" encoding="utf-8" ?>
<svg baseProfile="full" height="256" version="1.1" width="256" xmlns="http://www.w3.org/2000/svg" xmlns:ev="http://www.w3.org/2001/xml-events" xmlns:xlink="http://www.w3.org/1999/xlink"><defs /><path d="M2476 141Q2514 100 2535.0 47.0Q2556 -6 2556 -62Q2556 -122 2533.5 -175.5Q2511 -229 2472.0 -269.5Q2433 -310 2380.5 -334.5Q2328 -359 2268 -361V-431H400V-347Q368 -335 341.5 -315.0Q315 -295 296.0 -268.0Q277 -241 266.5 -209.5Q256 -178 256 -144Q256 -108 267.5 -75.0Q279 -42 299.0 -15.0Q319 12 347.5 32.0Q376 52 410 63Q424 142 458.0 215.0Q492 288 543 350V1077Q543 1186 571.5 1287.0Q600 1388 651.5 1476.0Q703 1564 775.0 1636.5Q847 1709 935.0 1760.5Q1023 1812 1124.0 1840.5Q1225 1869 1334 1869Q1447 1869 1553.5 1837.5Q1660 1806 1752.5 1748.5Q1845 1691 1920.0 1609.0Q1995 1527 2045 1425Q2110 1408 2164.5 1371.0Q2219 1334 2258.0 1283.5Q2297 1233 2318.5 1171.0Q2340 1109 2340 1042Q2340 954 2302.5 874.5Q2265 795 2197 738V491L2268 419V363Z" style="fill:#000000;stroke:none" transform="scale(1,-1) translate(0,-256)" /></svg>