<?xml version="1.0" encoding="utf-8" ?>
<svg baseProfile="full" height="256" version="1.1" width="256" xmlns="http://www.w3.org/2000/svg" xmlns:ev="http://www.w3.org/2001/xml-events" xmlns:xlink="http://www.w3.org/1999/xlink"><defs /><path d="M2125 287Q2147 284 2160 269L2371 43Q2391 22 2401.5 -5.5Q2412 -33 2412 -62Q2412 -94 2400.0 -122.0Q2388 -150 2367.0 -171.0Q2346 -192 2318.0 -204.5Q2290 -217 2258 -217H1981Q1949 -217 1929.0 -197.0Q1909 -177 1909 -145Q1877 -145 1857.0 -125.0Q1837 -105 1837 -73V71Q1837 103 1857.0 122.5Q1877 142 1909 142H2125Z" style="fill:#ffd679;stroke:none" transform="scale(1,-1) translate(0,-256)" /></svg>