<?xml version="1.0" encoding="utf-8" ?>
<svg baseProfile="full" height="256" version="1.1" width="256" xmlns="http://www.w3.org/2000/svg" xmlns:ev="http://www.w3.org/2001/xml-events" xmlns:xlink="http://www.w3.org/1999/xlink"><defs /><path d="M1909 72Q1971 72 2019.5 45.5Q2068 19 2108 -26Q2125 -46 2147.5 -59.0Q2170 -72 2197 -72Q2226 -72 2247.0 -93.5Q2268 -115 2268 -144Q2268 -173 2247.0 -194.0Q2226 -215 2197 -215Q2154 -215 2122.5 -204.5Q2091 -194 2067.0 -178.0Q2043 -162 2024.0 -143.5Q2005 -125 1987.0 -109.0Q1969 -93 1950.5 -82.5Q1932 -72 1909 -72Q1886 -72 1867.5 -82.5Q1849 -93 1831.0 -109.0Q1813 -125 1794.0 -144.0Q1775 -163 1750.5 -179.0Q1726 -195 1694.5 -205.5Q1663 -216 1621 -216Q1579 -216 1547.5 -205.5Q1516 -195 1492.0 -179.0Q1468 -163 1449.0 -144.0Q1430 -125 1412.0 -109.0Q1394 -93 1375.5 -82.5Q1357 -72 1334 -72Q1311 -72 1292.5 -82.5Q1274 -93 1256.0 -109.0Q1238 -125 1219.0 -144.0Q1200 -163 1175.5 -179.0Q1151 -195 1119.5 -205.5Q1088 -216 1046 -216Q1003 -216 972.0 -205.5Q941 -195 917.0 -179.0Q893 -163 874.0 -144.0Q855 -125 837.0 -109.0Q819 -93 800.5 -82.5Q782 -72 759 -72Q736 -72 717.5 -82.5Q699 -93 681.0 -109.0Q663 -125 644.0 -143.5Q625 -162 601.0 -178.0Q577 -194 545.5 -204.5Q514 -215 472 -215Q443 -215 421.5 -194.0Q400 -173 400 -144Q400 -114 421.0 -93.0Q442 -72 472 -72Q499 -72 521.0 -59.0Q543 -46 560 -26Q600 19 648.0 45.5Q696 72 759 72Q801 72 832.5 61.5Q864 51 888.0 35.0Q912 19 931.0 0.0Q950 -19 967.5 -35.0Q985 -51 1003.5 -61.5Q1022 -72 1046 -72Q1070 -72 1088.5 -61.5Q1107 -51 1125.0 -35.0Q1143 -19 1162.0 0.0Q1181 19 1205.0 35.0Q1229 51 1260.5 61.5Q1292 72 1334 72Q1376 72 1407.5 61.5Q1439 51 1463.0 35.0Q1487 19 1506.0 0.0Q1525 -19 1542.5 -35.0Q1560 -51 1578.5 -61.5Q1597 -72 1621 -72Q1645 -72 1663.5 -61.5Q1682 -51 1700.0 -35.0Q1718 -19 1737.0 0.0Q1756 19 1780.0 35.0Q1804 51 1835.5 61.5Q1867 72 1909 72Z" style="fill:#f2f2f2;stroke:none" transform="scale(1,-1) translate(0,-256)" /></svg>