<?xml version="1.0" encoding="utf-8" ?>
<svg baseProfile="full" height="256" version="1.1" width="256" xmlns="http://www.w3.org/2000/svg" xmlns:ev="http://www.w3.org/2001/xml-events" xmlns:xlink="http://www.w3.org/1999/xlink"><defs /><path d="M968 213Q855 213 766.0 251.5Q677 290 615.5 358.0Q554 426 521.5 519.0Q489 612 489 721Q489 836 521.0 934.0Q553 1032 616.0 1102.5Q679 1173 771.5 1213.0Q864 1253 984 1253Q1096 1253 1183.5 1214.0Q1271 1175 1331.5 1107.0Q1392 1039 1423.5 946.5Q1455 854 1455 746Q1455 632 1424.0 534.5Q1393 437 1332.0 365.5Q1271 294 1179.5 253.5Q1088 213 968 213ZM976 1107Q897 1107 838.5 1075.0Q780 1043 741.0 990.5Q702 938 683.0 870.5Q664 803 664 732Q664 661 682.0 594.0Q700 527 737.5 475.0Q775 423 832.5 391.0Q890 359 969 359Q1051 359 1110.5 389.0Q1170 419 1207.5 470.0Q1245 521 1263.0 588.0Q1281 655 1281 730Q1281 803 1264.5 871.5Q1248 940 1211.5 992.0Q1175 1044 1117.0 1075.5Q1059 1107 976 1107ZM2391 230H2173L1823 690Q1811 705 1799 725V230H1629V1236H1796V763L2160 1236H2360L1965 753Z" style="fill:#ffffff;stroke:none" transform="scale(1,-1) translate(0,-256)" /></svg>