<?xml version="1.0" encoding="utf-8" ?>
<svg baseProfile="full" height="256" version="1.1" width="256" xmlns="http://www.w3.org/2000/svg" xmlns:ev="http://www.w3.org/2001/xml-events" xmlns:xlink="http://www.w3.org/1999/xlink"><defs /><path d="M1118 1366Q1148 1366 1174.0 1354.5Q1200 1343 1219.5 1323.5Q1239 1304 1250.5 1278.0Q1262 1252 1262 1222V1006Q1262 976 1250.5 950.0Q1239 924 1219.5 904.5Q1200 885 1174.0 874.0Q1148 863 1118 863Q1088 863 1062.0 874.0Q1036 885 1016.5 904.5Q997 924 986.0 950.0Q975 976 975 1006V1222Q975 1252 986.0 1278.0Q997 1304 1016.5 1323.5Q1036 1343 1062.0 1354.5Q1088 1366 1118 1366ZM1118 935Q1147 935 1168.5 956.0Q1190 977 1190 1006H1047Q1047 977 1068.0 956.0Q1089 935 1118 935ZM1550 1581V1366Q1550 1336 1538.5 1310.0Q1527 1284 1507.5 1264.5Q1488 1245 1462.0 1233.5Q1436 1222 1406 1222Q1376 1222 1350.0 1233.5Q1324 1245 1304.5 1264.5Q1285 1284 1273.5 1310.0Q1262 1336 1262 1366V1581Q1262 1611 1273.5 1637.0Q1285 1663 1304.5 1682.5Q1324 1702 1350.0 1713.5Q1376 1725 1406 1725Q1436 1725 1462.0 1713.5Q1488 1702 1507.5 1682.5Q1527 1663 1538.5 1637.0Q1550 1611 1550 1581ZM1406 1294Q1436 1294 1457.0 1315.0Q1478 1336 1478 1366H1334Q1334 1336 1355.0 1315.0Q1376 1294 1406 1294ZM1693 1222Q1723 1222 1749.0 1210.5Q1775 1199 1794.5 1179.5Q1814 1160 1825.5 1134.0Q1837 1108 1837 1078V863Q1837 833 1825.5 806.5Q1814 780 1794.5 760.5Q1775 741 1749.0 730.0Q1723 719 1693 719Q1663 719 1637.0 730.5Q1611 742 1591.5 761.5Q1572 781 1561.0 807.0Q1550 833 1550 863V1078Q1550 1108 1561.0 1134.0Q1572 1160 1591.5 1179.5Q1611 1199 1637.0 1210.5Q1663 1222 1693 1222ZM1693 791Q1723 791 1744.0 812.0Q1765 833 1765 863H1622Q1622 834 1643.0 812.5Q1664 791 1693 791Z" style="fill:#bad80a;stroke:none" transform="scale(1,-1) translate(0,-256)" /></svg>