<?xml version="1.0" encoding="utf-8" ?>
<svg baseProfile="full" height="256" version="1.1" width="256" xmlns="http://www.w3.org/2000/svg" xmlns:ev="http://www.w3.org/2001/xml-events" xmlns:xlink="http://www.w3.org/1999/xlink"><defs /><path d="M1118 -287Q1103 -200 1094.0 -114.0Q1085 -28 1085 60Q1085 136 1093.0 211.0Q1101 286 1118 360H1406Q1420 289 1426.0 217.0Q1432 145 1432 73Q1432 -18 1424.5 -107.5Q1417 -197 1406 -287ZM1693 360H1981V216L1966 180L1981 144V-72L1966 -108L1981 -143V-287H1693Q1674 -202 1663.0 -117.0Q1652 -32 1652 56Q1652 134 1662.0 209.5Q1672 285 1693 360Z" style="fill:#ffb900;stroke:none" transform="scale(1,-1) translate(0,-256)" /></svg>