<?xml version="1.0" encoding="utf-8" ?>
<svg baseProfile="full" height="256" version="1.1" width="256" xmlns="http://www.w3.org/2000/svg" xmlns:ev="http://www.w3.org/2001/xml-events" xmlns:xlink="http://www.w3.org/1999/xlink"><defs /><path d="M2472 763Q2511 738 2533.5 698.0Q2556 658 2556 611Q2556 568 2537.0 530.5Q2518 493 2484 467Q2484 430 2470.0 397.5Q2456 365 2431.5 340.5Q2407 316 2374.0 302.0Q2341 288 2304 288H2125V-431H687V288H508Q471 288 438.0 302.0Q405 316 380.5 340.5Q356 365 342.0 397.5Q328 430 328 467Q294 493 275.0 530.5Q256 568 256 611Q256 658 278.5 698.0Q301 738 340 763Q328 793 328 827Q328 864 342.0 897.0Q356 930 380.5 954.0Q405 978 437.5 992.0Q470 1006 508 1006Q540 1006 571 995Q596 1033 636.5 1055.5Q677 1078 723 1078Q784 1078 831 1042V1222Q831 1280 854.0 1332.5Q877 1385 916.0 1424.5Q955 1464 1007.0 1487.0Q1059 1510 1118 1510V1581Q1118 1641 1140.5 1693.5Q1163 1746 1202.0 1785.0Q1241 1824 1293.5 1846.5Q1346 1869 1406 1869Q1466 1869 1518.0 1846.5Q1570 1824 1609.0 1785.0Q1648 1746 1670.5 1693.5Q1693 1641 1693 1581V1366Q1753 1366 1805.5 1343.5Q1858 1321 1897.0 1282.0Q1936 1243 1958.5 1190.5Q1981 1138 1981 1078V1042Q2004 1060 2032.0 1069.0Q2060 1078 2089 1078Q2135 1078 2175.5 1055.5Q2216 1033 2241 995Q2272 1006 2304 1006Q2341 1006 2374.0 992.0Q2407 978 2431.5 954.0Q2456 930 2470.0 897.0Q2484 864 2484 827Q2484 793 2472 763Z" style="fill:#000000;stroke:none" transform="scale(1,-1) translate(0,-256)" /></svg>