<?xml version="1.0" encoding="utf-8" ?>
<svg baseProfile="full" height="256" version="1.1" width="256" xmlns="http://www.w3.org/2000/svg" xmlns:ev="http://www.w3.org/2001/xml-events" xmlns:xlink="http://www.w3.org/1999/xlink"><defs /><path d="M1694 923Q1711 923 1730.0 921.5Q1749 920 1767.0 915.5Q1785 911 1800.5 902.0Q1816 893 1828 879Q1830 876 1833.5 871.5Q1837 867 1837 863V647Q1837 638 1833.0 629.5Q1829 621 1829 611Q1829 601 1833.0 592.5Q1837 584 1837 574V432Q1837 415 1829.5 398.5Q1822 382 1820 365Q1823 360 1823 355Q1823 346 1815.5 338.5Q1808 331 1798.0 324.5Q1788 318 1777.5 313.0Q1767 308 1760 306Q1721 294 1676.0 286.5Q1631 279 1584.5 275.0Q1538 271 1492.0 270.0Q1446 269 1405 269Q1367 269 1309.0 270.5Q1251 272 1191.0 278.5Q1131 285 1077.5 298.0Q1024 311 994 334Q988 339 981.5 345.5Q975 352 975 360V503Q975 503 977.0 509.0Q979 515 981.0 522.0Q983 529 985.5 535.0Q988 541 988 542L975 575V719Q975 719 976.5 724.0Q978 729 979.5 735.0Q981 741 983.0 746.0Q985 751 985 752Q985 753 980.0 767.0Q975 781 975 791V1006Q975 1010 978.0 1014.5Q981 1019 983 1022Q995 1037 1010.5 1045.5Q1026 1054 1044.0 1059.0Q1062 1064 1080.5 1065.5Q1099 1067 1116 1067Q1132 1067 1155.0 1064.0Q1178 1061 1200.0 1054.5Q1222 1048 1239.5 1036.0Q1257 1024 1262 1006V1366Q1262 1370 1265.0 1374.5Q1268 1379 1270 1382Q1294 1413 1330.5 1420.5Q1367 1428 1404 1428Q1422 1428 1441.0 1426.0Q1460 1424 1478.0 1419.0Q1496 1414 1512.5 1405.0Q1529 1396 1541 1382Q1543 1379 1546.5 1374.5Q1550 1370 1550 1366V1150L1533 1114Q1550 1080 1564.0 1045.0Q1578 1010 1592 975L1553 870Q1560 886 1577.0 896.0Q1594 906 1615.0 912.0Q1636 918 1657.5 920.5Q1679 923 1694 923Z" style="fill:#13a10e;stroke:none" transform="scale(1,-1) translate(0,-256)" /></svg>