<?xml version="1.0" encoding="utf-8" ?>
<svg baseProfile="full" height="256" version="1.1" width="256" xmlns="http://www.w3.org/2000/svg" xmlns:ev="http://www.w3.org/2001/xml-events" xmlns:xlink="http://www.w3.org/1999/xlink"><defs /><path d="M975 575H1262V503H1550V431H1837V410L1909 482V827Q1909 842 1919.5 852.5Q1930 863 1945 863Q1960 863 1970.5 852.5Q1981 842 1981 827V554L2053 626V899Q2053 914 2063.5 924.5Q2074 935 2089 935Q2104 935 2114.5 924.5Q2125 914 2125 899V698L2279 852Q2289 862 2304 862Q2319 862 2329.5 851.5Q2340 841 2340 826Q2340 811 2330 801L2176 647H2376Q2391 647 2401.5 636.5Q2412 626 2412 611Q2412 596 2401.5 585.5Q2391 575 2376 575H2104L2032 503H2304Q2319 503 2329.5 492.5Q2340 482 2340 467Q2340 453 2329.0 442.0Q2318 431 2304 431H1960L1803 275Q1797 278 1789.0 283.5Q1781 289 1773.0 295.0Q1765 301 1758.0 307.0Q1751 313 1748 319L1549 326Q1550 337 1550.5 348.5Q1551 360 1551 371Q1551 386 1550.5 401.0Q1550 416 1550 431H1262V503H975ZM903 482 975 410V309L852 431H508Q494 431 483.0 442.0Q472 453 472 467Q472 482 482.5 492.5Q493 503 508 503H780L708 575H436Q421 575 410.5 585.5Q400 596 400 611Q400 626 410.5 636.5Q421 647 436 647H636L482 801Q471 812 471 826Q471 840 482.0 851.0Q493 862 507 862Q523 862 533 852L687 698V899Q687 914 697.5 924.5Q708 935 723 935Q738 935 748.5 924.5Q759 914 759 899V626L831 554V827Q831 842 841.5 852.5Q852 863 867 863Q882 863 892.5 852.5Q903 842 903 827ZM1837 575H1550V647H1262V719H975V791H1262V719H1550V647H1837ZM1550 1150V1078H1262Q1251 1078 1246.5 1091.5Q1242 1105 1242 1114Q1242 1123 1246.5 1136.5Q1251 1150 1262 1150ZM1550 935Q1555 935 1559.0 931.0Q1563 927 1565.5 921.0Q1568 915 1569.0 908.5Q1570 902 1570 898Q1570 889 1565.5 876.0Q1561 863 1550 863H1262V935Z" style="fill:#107c10;stroke:none" transform="scale(1,-1) translate(0,-256)" /></svg>