<?xml version="1.0" encoding="utf-8" ?>
<svg baseProfile="full" height="256" version="1.1" width="256" xmlns="http://www.w3.org/2000/svg" xmlns:ev="http://www.w3.org/2001/xml-events" xmlns:xlink="http://www.w3.org/1999/xlink"><defs /><path d="M1765 1078Q1765 1048 1754.0 1022.0Q1743 996 1723.5 976.5Q1704 957 1678.0 946.0Q1652 935 1622 935Q1592 935 1566.0 946.0Q1540 957 1520.5 976.5Q1501 996 1489.5 1022.0Q1478 1048 1478 1078Q1478 1108 1489.0 1134.0Q1500 1160 1519.5 1179.5Q1539 1199 1565.5 1210.5Q1592 1222 1622 1222Q1652 1222 1678.0 1210.5Q1704 1199 1723.5 1179.5Q1743 1160 1754.0 1134.0Q1765 1108 1765 1078Z" style="fill:#8e562e;stroke:none" transform="scale(1,-1) translate(0,-256)" /></svg>