<?xml version="1.0" encoding="utf-8" ?>
<svg baseProfile="full" height="256" version="1.1" width="256" xmlns="http://www.w3.org/2000/svg" xmlns:ev="http://www.w3.org/2001/xml-events" xmlns:xlink="http://www.w3.org/1999/xlink"><defs /><path d="M1693 288Q1723 288 1744.0 267.0Q1765 246 1765 216Q1765 186 1744.0 165.0Q1723 144 1693 144Q1664 144 1643.0 165.5Q1622 187 1622 216Q1622 245 1643.0 266.5Q1664 288 1693 288ZM1334 360Q1363 360 1384.5 338.5Q1406 317 1406 288Q1406 258 1385.0 237.0Q1364 216 1334 216Q1304 216 1283.0 237.0Q1262 258 1262 288Q1262 317 1283.5 338.5Q1305 360 1334 360ZM1118 144Q1148 144 1169.0 123.0Q1190 102 1190 72Q1190 42 1169.0 21.0Q1148 0 1118 0Q1089 0 1068.0 21.5Q1047 43 1047 72Q1047 101 1068.0 122.5Q1089 144 1118 144ZM2125 288Q2154 288 2175.5 266.5Q2197 245 2197 216Q2197 187 2175.5 165.5Q2154 144 2125 144Q2095 144 2074.0 165.0Q2053 186 2053 216Q2053 246 2074.0 267.0Q2095 288 2125 288ZM1118 503Q1118 474 1097.0 452.5Q1076 431 1047 431Q1018 431 996.5 452.5Q975 474 975 503Q975 533 996.0 554.0Q1017 575 1047 575Q1076 575 1097.0 553.5Q1118 532 1118 503ZM903 863Q933 863 954.0 842.0Q975 821 975 791Q975 761 954.0 740.0Q933 719 903 719Q873 719 852.0 740.0Q831 761 831 791Q831 821 852.0 842.0Q873 863 903 863ZM687 1150Q717 1150 738.0 1129.0Q759 1108 759 1078Q759 1049 737.5 1027.5Q716 1006 687 1006Q658 1006 636.5 1027.5Q615 1049 615 1078Q615 1108 636.0 1129.0Q657 1150 687 1150ZM1909 0Q1939 0 1960.0 -21.0Q1981 -42 1981 -72Q1981 -101 1959.5 -122.5Q1938 -144 1909 -144Q1880 -144 1858.5 -122.5Q1837 -101 1837 -72Q1837 -42 1858.0 -21.0Q1879 0 1909 0ZM1478 0Q1508 0 1529.0 -21.0Q1550 -42 1550 -72Q1550 -101 1528.5 -122.5Q1507 -144 1478 -144Q1449 -144 1427.5 -122.5Q1406 -101 1406 -72Q1406 -42 1427.0 -21.0Q1448 0 1478 0Z" style="fill:#13a10e;stroke:none" transform="scale(1,-1) translate(0,-256)" /></svg>