<?xml version="1.0" encoding="utf-8" ?>
<svg baseProfile="full" height="256" version="1.1" width="256" xmlns="http://www.w3.org/2000/svg" xmlns:ev="http://www.w3.org/2001/xml-events" xmlns:xlink="http://www.w3.org/1999/xlink"><defs /><path d="M1550 -431Q1431 -431 1321.0 -400.0Q1211 -369 1115.0 -313.0Q1019 -257 940.0 -178.0Q861 -99 805.0 -3.5Q749 92 718.0 202.0Q687 312 687 431Q687 450 687.5 468.0Q688 486 688 505Q688 542 684.5 568.5Q681 595 672.5 618.0Q664 641 650.5 664.0Q637 687 616 716Q576 773 535.0 828.0Q494 883 452 939Q429 969 408.5 1000.0Q388 1031 362 1059Q354 1064 350.5 1071.0Q347 1078 342 1086Q321 1120 305.0 1153.0Q289 1186 278.0 1219.5Q267 1253 261.5 1289.0Q256 1325 256 1366Q256 1469 296.0 1560.5Q336 1652 404.5 1720.5Q473 1789 564.5 1829.0Q656 1869 759 1869Q816 1869 878.0 1854.0Q940 1839 990 1811L1572 1486Q1648 1510 1729 1510Q1825 1510 1911.5 1478.5Q1998 1447 2068.0 1390.5Q2138 1334 2187.0 1256.0Q2236 1178 2256 1084Q2402 958 2479.0 791.0Q2556 624 2556 431Q2556 312 2525.0 201.5Q2494 91 2438.0 -4.5Q2382 -100 2303.5 -178.5Q2225 -257 2129.0 -313.5Q2033 -370 1922.5 -400.5Q1812 -431 1693 -431Z" style="fill:#000000;stroke:none" transform="scale(1,-1) translate(0,-256)" /></svg>