<?xml version="1.0" encoding="utf-8" ?>
<svg baseProfile="full" height="256" version="1.1" width="256" xmlns="http://www.w3.org/2000/svg" xmlns:ev="http://www.w3.org/2001/xml-events" xmlns:xlink="http://www.w3.org/1999/xlink"><defs /><path d="M494 1607 1141 722Q1147 714 1151.5 705.0Q1156 696 1161 688Q1177 663 1195.0 640.5Q1213 618 1233 596Q1339 481 1473.5 420.5Q1608 360 1765 360H2409Q2395 222 2333.5 104.0Q2272 -14 2175.5 -101.0Q2079 -188 1955.0 -237.5Q1831 -287 1693 -287H1550Q1451 -287 1359.0 -261.5Q1267 -236 1187.0 -189.0Q1107 -142 1041.5 -76.5Q976 -11 929.0 68.5Q882 148 856.5 240.0Q831 332 831 431V441Q831 505 829.0 550.0Q827 595 817.0 635.0Q807 675 785.0 715.5Q763 756 723 811L495 1124Q488 1133 481.0 1141.0Q474 1149 467 1158Q435 1203 417.5 1256.5Q400 1310 400 1366Q400 1433 424.5 1495.0Q449 1557 494 1607Z" style="fill:#107c10;stroke:none" transform="scale(1,-1) translate(0,-256)" /></svg>