<?xml version="1.0" encoding="utf-8" ?>
<svg baseProfile="full" height="256" version="1.1" width="256" xmlns="http://www.w3.org/2000/svg" xmlns:ev="http://www.w3.org/2001/xml-events" xmlns:xlink="http://www.w3.org/1999/xlink"><defs /><path d="M1807 72Q1758 75 1693.0 107.5Q1628 140 1553.5 194.0Q1479 248 1398.5 318.0Q1318 388 1237.5 465.0Q1157 542 1080.5 622.0Q1004 702 937.5 774.5Q871 847 818.0 908.0Q765 969 731 1010Q720 1023 698.5 1050.0Q677 1077 654.0 1107.0Q631 1137 612.5 1163.5Q594 1190 589 1203Q578 1233 572.0 1264.5Q566 1296 558 1327Q541 1397 526.0 1467.0Q511 1537 494 1607Q545 1664 614.0 1694.5Q683 1725 759 1725Q802 1725 844.0 1714.5Q886 1704 924 1683L2052 1054Q2135 1008 2201.5 940.0Q2268 872 2315.0 790.5Q2362 709 2387.0 617.0Q2412 525 2412 431Q2412 396 2409 360Z" style="fill:#e4f577;stroke:none" transform="scale(1,-1) translate(0,-256)" /></svg>