<?xml version="1.0" encoding="utf-8" ?>
<svg baseProfile="full" height="256" version="1.1" width="256" xmlns="http://www.w3.org/2000/svg" xmlns:ev="http://www.w3.org/2001/xml-events" xmlns:xlink="http://www.w3.org/1999/xlink"><defs /><path d="M2268 647Q2268 518 2234.5 398.5Q2201 279 2140.5 175.5Q2080 72 1994.5 -13.5Q1909 -99 1805.5 -159.5Q1702 -220 1582.5 -253.5Q1463 -287 1334 -287Q1205 -287 1085.5 -253.5Q966 -220 862.5 -159.5Q759 -99 673.5 -13.5Q588 72 527.5 175.5Q467 279 433.5 398.5Q400 518 400 647Q400 776 433.5 895.5Q467 1015 527.5 1118.5Q588 1222 673.5 1307.5Q759 1393 862.5 1453.5Q966 1514 1085.5 1547.5Q1205 1581 1334 1581Q1463 1581 1582.5 1547.5Q1702 1514 1805.5 1453.5Q1909 1393 1994.5 1307.5Q2080 1222 2140.5 1118.5Q2201 1015 2234.5 895.5Q2268 776 2268 647Z" style="fill:#ffc83d;stroke:none" transform="scale(1,-1) translate(0,-256)" /></svg>