<?xml version="1.0" encoding="utf-8" ?>
<svg baseProfile="full" height="256" version="1.1" width="256" xmlns="http://www.w3.org/2000/svg" xmlns:ev="http://www.w3.org/2001/xml-events" xmlns:xlink="http://www.w3.org/1999/xlink"><defs /><path d="M2556 467Q2556 417 2538.0 373.5Q2520 330 2488.5 296.0Q2457 262 2414.0 241.5Q2371 221 2322 218Q2258 70 2156.0 -50.0Q2054 -170 1925.0 -254.5Q1796 -339 1645.5 -385.0Q1495 -431 1334 -431Q1185 -431 1047.5 -392.5Q910 -354 790.5 -283.5Q671 -213 572.5 -114.5Q474 -16 403.5 103.5Q333 223 294.5 361.0Q256 499 256 647Q256 795 294.5 933.0Q333 1071 403.5 1190.5Q474 1310 572.5 1408.5Q671 1507 790.5 1577.5Q910 1648 1048.0 1686.5Q1186 1725 1334 1725Q1478 1725 1612.0 1688.5Q1746 1652 1863.0 1585.5Q1980 1519 2077.5 1425.5Q2175 1332 2246.5 1217.5Q2318 1103 2360.5 970.5Q2403 838 2410 695Q2477 664 2516.5 602.5Q2556 541 2556 467Z" style="fill:#000000;stroke:none" transform="scale(1,-1) translate(0,-256)" /></svg>