<?xml version="1.0" encoding="utf-8" ?>
<svg baseProfile="full" height="256" version="1.1" width="256" xmlns="http://www.w3.org/2000/svg" xmlns:ev="http://www.w3.org/2001/xml-events" xmlns:xlink="http://www.w3.org/1999/xlink"><defs /><path d="M939 1006Q961 1006 980.5 997.5Q1000 989 1015.0 975.0Q1030 961 1038.5 941.0Q1047 921 1047 899V755Q1047 732 1038.5 712.5Q1030 693 1015.5 678.5Q1001 664 981.0 655.5Q961 647 939 647Q917 647 897.5 655.5Q878 664 863.0 679.0Q848 694 839.5 713.5Q831 733 831 755V899Q831 921 839.5 940.5Q848 960 863.0 974.5Q878 989 897.5 997.5Q917 1006 939 1006ZM1730 1006Q1752 1006 1771.5 997.5Q1791 989 1806.0 974.5Q1821 960 1829.5 940.5Q1838 921 1838 899V755Q1838 733 1829.5 713.5Q1821 694 1806.0 679.0Q1791 664 1771.5 655.5Q1752 647 1730 647Q1707 647 1687.5 655.5Q1668 664 1653.5 678.5Q1639 693 1630.5 712.5Q1622 732 1622 755V899Q1622 921 1630.5 941.0Q1639 961 1654.0 975.0Q1669 989 1688.5 997.5Q1708 1006 1730 1006ZM1622 288Q1651 288 1672.0 266.5Q1693 245 1693 216Q1693 187 1672.0 165.5Q1651 144 1622 144Q1570 144 1517.0 132.5Q1464 121 1414.0 99.5Q1364 78 1319.5 47.0Q1275 16 1241 -24Q1229 -39 1216.5 -59.5Q1204 -80 1189.5 -98.5Q1175 -117 1157.5 -130.5Q1140 -144 1118 -144Q1089 -144 1067.5 -122.0Q1046 -100 1046 -71Q1046 -54 1056 -36Q1096 39 1158.0 99.0Q1220 159 1295.5 201.0Q1371 243 1454.5 265.5Q1538 288 1622 288Z" style="fill:#000000;stroke:none" transform="scale(1,-1) translate(0,-256)" /></svg>