<?xml version="1.0" encoding="utf-8" ?>
<svg baseProfile="full" height="256" version="1.1" width="256" xmlns="http://www.w3.org/2000/svg" xmlns:ev="http://www.w3.org/2001/xml-events" xmlns:xlink="http://www.w3.org/1999/xlink"><defs /><path d="M2412 467Q2412 445 2403.5 425.5Q2395 406 2380.0 391.5Q2365 377 2345.5 368.5Q2326 360 2304 360H1334Q1302 360 1282.0 379.5Q1262 399 1262 431V719Q1262 749 1283.0 770.0Q1304 791 1334 791Q1364 791 1385.0 770.0Q1406 749 1406 719Q1406 689 1417.0 662.5Q1428 636 1447.5 616.5Q1467 597 1493.5 586.0Q1520 575 1550 575H2304Q2326 575 2346.0 566.5Q2366 558 2380.5 543.5Q2395 529 2403.5 509.0Q2412 489 2412 467Z" style="fill:#eba300;stroke:none" transform="scale(1,-1) translate(0,-256)" /></svg>