<?xml version="1.0" encoding="utf-8" ?>
<svg baseProfile="full" height="256" version="1.1" width="256" xmlns="http://www.w3.org/2000/svg" xmlns:ev="http://www.w3.org/2001/xml-events" xmlns:xlink="http://www.w3.org/1999/xlink"><defs /><path d="M615 1006Q615 1022 623 1038Q643 1084 678.5 1132.0Q714 1180 757.5 1223.5Q801 1267 849.0 1302.5Q897 1338 943 1358Q959 1366 975 1366Q1004 1366 1025.5 1344.5Q1047 1323 1047 1294Q1047 1272 1035.5 1256.5Q1024 1241 1007 1230Q952 1196 918.0 1172.0Q884 1148 858.5 1122.5Q833 1097 809.5 1063.0Q786 1029 752 974Q741 956 725.0 945.5Q709 935 687 935Q658 935 636.5 956.0Q615 977 615 1006ZM1550 1294Q1613 1294 1682.0 1279.0Q1751 1264 1816.5 1235.5Q1882 1207 1939.0 1166.5Q1996 1126 2035 1075Q2053 1052 2053 1027Q2053 997 2032.0 976.0Q2011 955 1981 955Q1963 955 1951.5 961.5Q1940 968 1927 980Q1883 1020 1841.5 1051.5Q1800 1083 1756.0 1105.0Q1712 1127 1662.0 1138.5Q1612 1150 1550 1150Q1520 1150 1499.0 1171.0Q1478 1192 1478 1222Q1478 1252 1499.0 1273.0Q1520 1294 1550 1294Z" style="fill:#d48c00;stroke:none" transform="scale(1,-1) translate(0,-256)" /></svg>