<?xml version="1.0" encoding="utf-8" ?>
<svg baseProfile="full" height="256" version="1.1" width="256" xmlns="http://www.w3.org/2000/svg" xmlns:ev="http://www.w3.org/2001/xml-events" xmlns:xlink="http://www.w3.org/1999/xlink"><defs /><path d="M795 503Q877 503 949.0 472.0Q1021 441 1074.5 387.5Q1128 334 1159.0 262.0Q1190 190 1190 108Q1190 26 1159.0 -46.0Q1128 -118 1074.5 -171.5Q1021 -225 949.0 -256.0Q877 -287 795 -287Q713 -287 641.0 -256.0Q569 -225 515.5 -171.5Q462 -118 431.0 -46.0Q400 26 400 108Q400 190 431.0 262.0Q462 334 515.5 387.5Q569 441 641.0 472.0Q713 503 795 503ZM795 -202Q859 -202 915.5 -177.5Q972 -153 1014.0 -111.0Q1056 -69 1080.5 -12.5Q1105 44 1105 108Q1105 172 1080.5 228.5Q1056 285 1014.0 327.0Q972 369 915.5 393.5Q859 418 795 418Q731 418 674.5 393.5Q618 369 576.0 327.0Q534 285 509.5 228.5Q485 172 485 108Q485 44 509.5 -12.5Q534 -69 576.0 -111.0Q618 -153 674.5 -177.5Q731 -202 795 -202ZM2017 503Q2099 503 2171.0 472.0Q2243 441 2296.5 387.5Q2350 334 2381.0 262.0Q2412 190 2412 108Q2412 26 2381.0 -46.0Q2350 -118 2296.5 -171.5Q2243 -225 2171.0 -256.0Q2099 -287 2017 -287Q1935 -287 1863.0 -256.0Q1791 -225 1737.5 -171.5Q1684 -118 1653.0 -46.0Q1622 26 1622 108Q1622 190 1653.0 262.0Q1684 334 1737.5 387.5Q1791 441 1863.0 472.0Q1935 503 2017 503ZM2017 -202Q2081 -202 2137.5 -177.5Q2194 -153 2236.0 -111.0Q2278 -69 2302.5 -12.5Q2327 44 2327 108Q2327 172 2302.5 228.5Q2278 285 2236.0 327.0Q2194 369 2137.5 393.5Q2081 418 2017 418Q1953 418 1896.5 393.5Q1840 369 1798.0 327.0Q1756 285 1731.5 228.5Q1707 172 1707 108Q1707 44 1731.5 -12.5Q1756 -69 1798.0 -111.0Q1840 -153 1896.5 -177.5Q1953 -202 2017 -202Z" style="fill:#757575;stroke:none" transform="scale(1,-1) translate(0,-256)" /></svg>