<?xml version="1.0" encoding="utf-8" ?>
<svg baseProfile="full" height="256" version="1.1" width="256" xmlns="http://www.w3.org/2000/svg" xmlns:ev="http://www.w3.org/2001/xml-events" xmlns:xlink="http://www.w3.org/1999/xlink"><defs /><path d="M2017 647Q2128 647 2226.5 604.5Q2325 562 2398.0 489.0Q2471 416 2513.5 317.5Q2556 219 2556 108Q2556 -3 2513.5 -101.5Q2471 -200 2398.0 -273.0Q2325 -346 2226.5 -388.5Q2128 -431 2017 -431Q1941 -431 1870.0 -411.0Q1799 -391 1737.0 -353.5Q1675 -316 1624.5 -262.5Q1574 -209 1539 -142Q1532 -143 1525.0 -143.5Q1518 -144 1511 -144Q1452 -144 1400.0 -117.0Q1348 -90 1313 -43Q1287 -129 1236.5 -200.5Q1186 -272 1118.0 -323.0Q1050 -374 967.5 -402.5Q885 -431 795 -431Q684 -431 585.5 -388.5Q487 -346 414.0 -273.0Q341 -200 298.5 -101.5Q256 -3 256 108Q256 187 278.5 261.5Q301 336 342.0 400.0Q383 464 442.0 515.0Q501 566 573 599Q534 616 502.0 643.5Q470 671 447.5 705.5Q425 740 412.5 780.5Q400 821 400 863Q400 922 422.5 974.5Q445 1027 484.0 1066.0Q523 1105 575.5 1127.5Q628 1150 687 1150H759Q808 1150 853.0 1134.0Q898 1118 935.0 1089.5Q972 1061 998.5 1021.0Q1025 981 1037 934H1410Q1406 950 1406 970Q1406 1007 1420.0 1040.0Q1434 1073 1458.5 1097.5Q1483 1122 1515.5 1136.0Q1548 1150 1586 1150H1801Q1838 1150 1871.0 1136.0Q1904 1122 1928.5 1097.5Q1953 1073 1967.0 1040.5Q1981 1008 1981 971Q1981 928 1962.0 890.5Q1943 853 1909 827V725L1950 643Q1967 645 1983.5 646.0Q2000 647 2017 647Z" style="fill:#000000;stroke:none" transform="scale(1,-1) translate(0,-256)" /></svg>