<?xml version="1.0" encoding="utf-8" ?>
<svg baseProfile="full" height="256" version="1.1" width="256" xmlns="http://www.w3.org/2000/svg" xmlns:ev="http://www.w3.org/2001/xml-events" xmlns:xlink="http://www.w3.org/1999/xlink"><defs /><path d="M1514 216Q1536 216 1555.5 207.5Q1575 199 1590.0 184.0Q1605 169 1613.5 149.5Q1622 130 1622 108Q1622 86 1613.5 66.5Q1605 47 1590.0 32.0Q1575 17 1555.5 8.5Q1536 0 1514 0Q1491 0 1471.5 8.5Q1452 17 1437.5 31.5Q1423 46 1414.5 65.5Q1406 85 1406 108Q1406 130 1414.5 150.0Q1423 170 1437.5 184.5Q1452 199 1471.5 207.5Q1491 216 1514 216ZM759 1006Q789 1006 815.0 995.0Q841 984 860.5 964.5Q880 945 891.5 919.0Q903 893 903 863H831Q831 892 809.5 913.5Q788 935 759 935L719 968ZM1693 965H1765V863H1693Z" style="fill:#cccccc;stroke:none" transform="scale(1,-1) translate(0,-256)" /></svg>