<?xml version="1.0" encoding="utf-8" ?>
<svg baseProfile="full" height="256" version="1.1" width="256" xmlns="http://www.w3.org/2000/svg" xmlns:ev="http://www.w3.org/2001/xml-events" xmlns:xlink="http://www.w3.org/1999/xlink"><defs /><path d="M795 431Q862 431 921.0 405.5Q980 380 1023.5 336.5Q1067 293 1092.5 234.0Q1118 175 1118 108Q1118 41 1092.5 -18.0Q1067 -77 1023.5 -120.5Q980 -164 921.0 -189.5Q862 -215 795 -215Q728 -215 669.0 -189.5Q610 -164 566.5 -120.5Q523 -77 497.5 -18.0Q472 41 472 108Q472 175 497.5 234.0Q523 293 566.5 336.5Q610 380 669.0 405.5Q728 431 795 431ZM795 -144Q847 -144 893.0 -124.0Q939 -104 973.0 -70.0Q1007 -36 1027.0 10.0Q1047 56 1047 108Q1047 160 1027.0 206.0Q1007 252 973.0 286.0Q939 320 893.0 340.0Q847 360 795 360Q743 360 697.0 340.0Q651 320 617.0 286.0Q583 252 563.0 206.0Q543 160 543 108Q543 56 563.0 10.0Q583 -36 617.0 -70.0Q651 -104 697.0 -124.0Q743 -144 795 -144ZM2017 431Q2084 431 2143.0 405.5Q2202 380 2245.5 336.5Q2289 293 2314.5 234.0Q2340 175 2340 108Q2340 41 2314.5 -18.0Q2289 -77 2245.5 -120.5Q2202 -164 2143.0 -189.5Q2084 -215 2017 -215Q1950 -215 1891.0 -189.5Q1832 -164 1788.0 -120.5Q1744 -77 1718.5 -18.0Q1693 41 1693 108Q1693 175 1718.5 234.0Q1744 293 1788.0 336.5Q1832 380 1891.0 405.5Q1950 431 2017 431ZM2017 -144Q2069 -144 2115.0 -124.0Q2161 -104 2195.0 -70.0Q2229 -36 2248.5 10.0Q2268 56 2268 108Q2268 160 2248.5 206.0Q2229 252 2195.0 286.0Q2161 320 2115.0 340.0Q2069 360 2017 360Q1965 360 1919.0 340.0Q1873 320 1839.0 286.0Q1805 252 1785.0 206.0Q1765 160 1765 108Q1765 56 1785.0 10.0Q1805 -36 1839.0 -70.0Q1873 -104 1919.0 -124.0Q1965 -144 2017 -144Z" style="fill:#cccccc;stroke:none" transform="scale(1,-1) translate(0,-256)" /></svg>