<?xml version="1.0" encoding="utf-8" ?>
<svg baseProfile="full" height="256" version="1.1" width="256" xmlns="http://www.w3.org/2000/svg" xmlns:ev="http://www.w3.org/2001/xml-events" xmlns:xlink="http://www.w3.org/1999/xlink"><defs /><path d="M1765 692Q1774 673 1798.5 624.5Q1823 576 1855.0 513.0Q1887 450 1922.0 381.0Q1957 312 1986.0 253.0Q2015 194 2034.0 154.0Q2053 114 2053 108Q2053 94 2042.0 83.0Q2031 72 2017 72H1478V93L903 668V252Q903 229 897.0 204.5Q891 180 879.5 157.0Q868 134 852.5 114.0Q837 94 818 80Q807 72 795 72Q780 72 769.5 82.5Q759 93 759 108Q759 120 770.0 132.0Q781 144 794.5 160.5Q808 177 819.5 199.0Q831 221 831 252V863L864 893L903 863V791H1693V863L1726 893L1765 863ZM954 719 1498 175 1679 719ZM1722 618 1564 144H1959Z" style="fill:#8cbd18;stroke:none" transform="scale(1,-1) translate(0,-256)" /></svg>