<?xml version="1.0" encoding="utf-8" ?>
<svg baseProfile="full" height="256" version="1.1" width="256" xmlns="http://www.w3.org/2000/svg" xmlns:ev="http://www.w3.org/2001/xml-events" xmlns:xlink="http://www.w3.org/1999/xlink"><defs /><path d="M543 863Q543 893 554.5 919.0Q566 945 585.5 964.5Q605 984 631.0 995.0Q657 1006 687 1006H759V935H722Q702 935 683.0 933.0Q664 931 649.0 923.5Q634 916 624.5 901.5Q615 887 615 863Q615 834 636.5 812.5Q658 791 687 791V719Q657 719 631.0 730.5Q605 742 585.5 761.5Q566 781 554.5 807.0Q543 833 543 863ZM1801 1006Q1815 1006 1826.0 995.5Q1837 985 1837 971Q1837 956 1826.5 945.5Q1816 935 1801 935H1586Q1571 935 1560.5 945.5Q1550 956 1550 971Q1550 985 1561.0 995.5Q1572 1006 1586 1006Z" style="fill:#d48c00;stroke:none" transform="scale(1,-1) translate(0,-256)" /></svg>