<?xml version="1.0" encoding="utf-8" ?>
<svg baseProfile="full" height="256" version="1.1" width="256" xmlns="http://www.w3.org/2000/svg" xmlns:ev="http://www.w3.org/2001/xml-events" xmlns:xlink="http://www.w3.org/1999/xlink"><defs /><path d="M1837 1186Q1837 1164 1828.5 1144.5Q1820 1125 1805.0 1110.0Q1790 1095 1770.5 1086.5Q1751 1078 1729 1078Q1707 1078 1687.5 1086.5Q1668 1095 1653.5 1110.0Q1639 1125 1630.5 1144.5Q1622 1164 1622 1186Q1622 1208 1630.5 1227.5Q1639 1247 1653.0 1262.0Q1667 1277 1686.5 1285.5Q1706 1294 1729 1294Q1751 1294 1771.0 1285.5Q1791 1277 1805.5 1262.5Q1820 1248 1828.5 1228.0Q1837 1208 1837 1186Z" style="fill:#ffffff;stroke:none" transform="scale(1,-1) translate(0,-256)" /></svg>