<?xml version="1.0" encoding="utf-8" ?>
<svg baseProfile="full" height="256" version="1.1" width="256" xmlns="http://www.w3.org/2000/svg" xmlns:ev="http://www.w3.org/2001/xml-events" xmlns:xlink="http://www.w3.org/1999/xlink"><defs /><path d="M835 575Q902 678 965.5 766.5Q1029 855 1100.5 933.0Q1172 1011 1255.0 1082.0Q1338 1153 1444 1222L1593 1318Q1667 1366 1754 1366Q1815 1366 1869.5 1343.0Q1924 1320 1964.5 1280.0Q2005 1240 2029.0 1186.0Q2053 1132 2053 1070Q2053 998 2022.5 936.0Q1992 874 1934 830L1827 750Q1603 581 1425 361Q1391 319 1359.0 276.5Q1327 234 1295 191Q1251 134 1190.0 103.0Q1129 72 1057 72Q980 72 913.5 108.5Q847 145 805 211Q813 219 829.0 233.5Q845 248 861.5 264.5Q878 281 890.0 297.0Q902 313 902 323Q902 338 891.5 348.5Q881 359 867 359Q857 359 843.5 349.5Q830 340 817.0 327.0Q804 314 792.0 301.0Q780 288 773 281Q760 323 760 370Q760 405 767.5 439.0Q775 473 791 504Q793 503 815.5 503.0Q838 503 865 503H939Q954 503 964.5 513.5Q975 524 975 539Q975 554 964.5 564.5Q954 575 939 575ZM1118 180V324Q1118 338 1107.5 349.0Q1097 360 1083 360Q1069 360 1058.0 349.0Q1047 338 1047 324V180Q1047 165 1057.5 154.5Q1068 144 1083 144Q1097 144 1107.5 155.0Q1118 166 1118 180Z" style="fill:#69eaff;stroke:none" transform="scale(1,-1) translate(0,-256)" /></svg>