<?xml version="1.0" encoding="utf-8" ?>
<svg baseProfile="full" height="256" version="1.1" width="256" xmlns="http://www.w3.org/2000/svg" xmlns:ev="http://www.w3.org/2001/xml-events" xmlns:xlink="http://www.w3.org/1999/xlink"><defs /><path d="M471 755Q471 770 482.0 780.5Q493 791 507 791Q513 791 530.5 784.0Q548 777 571.0 765.5Q594 754 620.0 741.0Q646 728 670.0 715.5Q694 703 712.5 693.0Q731 683 739 679Q759 669 759 647Q759 633 748.5 622.0Q738 611 723 611Q717 611 700.0 618.0Q683 625 660.0 636.5Q637 648 610.5 661.0Q584 674 560.0 686.5Q536 699 517.5 709.0Q499 719 491 723Q471 733 471 755ZM651 1006Q651 1021 662.0 1031.5Q673 1042 688 1042Q699 1042 708 1036L960 856Q975 844 975 827Q975 812 964.0 801.5Q953 791 939 791Q928 791 918 798L666 977Q651 989 651 1006ZM1298 36Q1298 51 1309.0 61.5Q1320 72 1334 72Q1356 72 1366 52Q1370 44 1380.0 25.5Q1390 7 1402.5 -17.0Q1415 -41 1428.0 -67.0Q1441 -93 1452.5 -116.0Q1464 -139 1471.0 -156.5Q1478 -174 1478 -180Q1478 -194 1467.5 -205.0Q1457 -216 1442 -216Q1420 -216 1410 -196Q1406 -188 1396.0 -169.5Q1386 -151 1373.5 -127.0Q1361 -103 1348.0 -76.5Q1335 -50 1323.5 -27.0Q1312 -4 1305.0 13.0Q1298 30 1298 36ZM1442 252Q1442 266 1452.5 277.0Q1463 288 1478 288Q1494 288 1505 275L1685 59Q1689 54 1691.5 48.0Q1694 42 1694 36Q1694 21 1683.0 10.5Q1672 0 1657 0Q1641 0 1630 13L1450 229Q1442 239 1442 252ZM543 -108Q543 -93 554 -82L770 133Q780 143 795 143Q809 143 819.5 132.5Q830 122 830 108Q830 93 820 83L605 -133Q594 -144 579 -144Q565 -144 554.0 -133.0Q543 -122 543 -108ZM741 431H436Q422 431 411.0 442.0Q400 453 400 467Q400 482 410.5 492.5Q421 503 436 503H741Q755 503 766.0 492.0Q777 481 777 467Q777 453 766.0 442.0Q755 431 741 431ZM400 181Q400 192 406.5 201.0Q413 210 424 214Q436 218 470.0 230.0Q504 242 541.5 255.0Q579 268 611.0 278.0Q643 288 651 288Q666 288 676.5 277.0Q687 266 687 251Q687 240 680.5 231.0Q674 222 663 218Q651 214 617.0 202.0Q583 190 545.5 177.0Q508 164 476.0 154.0Q444 144 436 144Q421 144 410.5 155.0Q400 166 400 181ZM831 -251Q831 -243 841.0 -211.0Q851 -179 864.0 -141.5Q877 -104 889.0 -70.0Q901 -36 905 -24Q909 -13 918.0 -6.5Q927 0 938 0Q953 0 964.0 -10.5Q975 -21 975 -36Q975 -44 965.0 -76.0Q955 -108 942.0 -145.5Q929 -183 917.0 -217.0Q905 -251 901 -263Q897 -274 888.0 -280.5Q879 -287 868 -287Q853 -287 842.0 -276.5Q831 -266 831 -251ZM1154 -287Q1140 -287 1129.0 -276.0Q1118 -265 1118 -251V54Q1118 68 1129.0 79.0Q1140 90 1154 90Q1168 90 1179.0 79.0Q1190 68 1190 54V-251Q1190 -266 1179.5 -276.5Q1169 -287 1154 -287ZM830 1258Q830 1273 841.0 1283.0Q852 1293 867 1293Q882 1293 892 1283L1036 1140Q1046 1130 1046 1114Q1046 1100 1035.5 1089.0Q1025 1078 1010 1078Q996 1078 985 1089L841 1233Q830 1244 830 1258ZM1693 395Q1693 410 1704.0 420.5Q1715 431 1729 431Q1745 431 1755 421L1899 277Q1909 267 1909 251Q1909 237 1898.5 226.0Q1888 215 1873 215Q1859 215 1848 226L1704 370Q1693 381 1693 395ZM1334 1618Q1334 1632 1344.0 1642.5Q1354 1653 1369 1653Q1392 1653 1402 1633Q1406 1625 1416.0 1606.5Q1426 1588 1438.5 1564.0Q1451 1540 1464.0 1514.0Q1477 1488 1488.5 1465.0Q1500 1442 1507.0 1424.5Q1514 1407 1514 1401Q1514 1387 1503.0 1376.5Q1492 1366 1478 1366Q1456 1366 1446 1386Q1442 1394 1432.0 1412.5Q1422 1431 1409.5 1455.0Q1397 1479 1384.0 1505.0Q1371 1531 1359.5 1554.0Q1348 1577 1341.0 1594.5Q1334 1612 1334 1618ZM1083 1438Q1083 1452 1093.5 1463.0Q1104 1474 1119 1474Q1136 1474 1148 1459L1327 1207Q1334 1196 1334 1186Q1334 1171 1323.0 1160.5Q1312 1150 1298 1150Q1281 1150 1269 1165L1089 1417Q1083 1426 1083 1438ZM2053 791Q2053 805 2063.5 816.0Q2074 827 2088 827Q2094 827 2111.5 820.0Q2129 813 2152.0 801.5Q2175 790 2201.0 777.0Q2227 764 2251.0 751.5Q2275 739 2293.5 729.0Q2312 719 2320 715Q2340 705 2340 682Q2340 667 2329.5 657.0Q2319 647 2305 647Q2299 647 2281.5 654.0Q2264 661 2241.0 672.5Q2218 684 2192.0 697.0Q2166 710 2142.0 722.5Q2118 735 2099.5 745.0Q2081 755 2073 759Q2053 769 2053 791ZM1837 647Q1837 662 1848.0 672.5Q1859 683 1873 683Q1886 683 1896 675L2112 495Q2125 484 2125 468Q2125 453 2114.5 442.0Q2104 431 2089 431Q2083 431 2077.0 433.5Q2071 436 2066 440L1850 619Q1837 630 1837 647ZM1980 1330Q1980 1344 1991 1355L2207 1571Q2217 1581 2232 1581Q2247 1581 2257.5 1570.5Q2268 1560 2268 1545Q2268 1530 2258 1520L2042 1304Q2031 1293 2017 1293Q2002 1293 1991.0 1304.0Q1980 1315 1980 1330ZM1658 1348Q1643 1348 1632.5 1358.5Q1622 1369 1622 1384V1689Q1622 1704 1632.5 1714.5Q1643 1725 1658 1725Q1672 1725 1682.5 1714.0Q1693 1703 1693 1689V1384Q1693 1370 1682.5 1359.0Q1672 1348 1658 1348ZM1837 1474Q1837 1482 1847.0 1514.0Q1857 1546 1870.0 1583.5Q1883 1621 1895.0 1655.0Q1907 1689 1911 1701Q1915 1712 1924.5 1718.5Q1934 1725 1945 1725Q1959 1725 1970.0 1714.5Q1981 1704 1981 1689Q1981 1681 1971.0 1649.0Q1961 1617 1948.0 1579.5Q1935 1542 1923.0 1508.0Q1911 1474 1907 1462Q1903 1451 1894.0 1444.5Q1885 1438 1874 1438Q1859 1438 1848.0 1448.5Q1837 1459 1837 1474ZM2125 1187Q2125 1198 2131.5 1207.0Q2138 1216 2149 1220Q2161 1224 2195.0 1236.0Q2229 1248 2266.5 1261.0Q2304 1274 2336.0 1284.0Q2368 1294 2376 1294Q2391 1294 2401.5 1283.0Q2412 1272 2412 1258Q2412 1247 2405.5 1237.5Q2399 1228 2388 1224Q2376 1220 2342.0 1208.0Q2308 1196 2270.5 1183.0Q2233 1170 2201.0 1160.0Q2169 1150 2161 1150Q2146 1150 2135.5 1161.0Q2125 1172 2125 1187ZM2376 935H2071Q2056 935 2045.5 945.5Q2035 956 2035 971Q2035 985 2046.0 995.5Q2057 1006 2071 1006H2376Q2390 1006 2401.0 995.5Q2412 985 2412 971Q2412 956 2401.5 945.5Q2391 935 2376 935Z" style="fill:#0078d7;stroke:none" transform="scale(1,-1) translate(0,-256)" /></svg>