<?xml version="1.0" encoding="utf-8" ?>
<svg baseProfile="full" height="256" version="1.1" width="256" xmlns="http://www.w3.org/2000/svg" xmlns:ev="http://www.w3.org/2001/xml-events" xmlns:xlink="http://www.w3.org/1999/xlink"><defs /><path d="M1011 -359Q985 -393 947.0 -412.0Q909 -431 866 -431Q829 -431 796.5 -417.0Q764 -403 739.5 -378.5Q715 -354 701.0 -321.0Q687 -288 687 -251Q664 -268 636.0 -277.5Q608 -287 579 -287Q542 -287 509.5 -273.0Q477 -259 452.5 -234.5Q428 -210 414.0 -177.5Q400 -145 400 -108Q400 -79 409.5 -51.0Q419 -23 436 0Q399 0 366.0 14.0Q333 28 308.5 52.5Q284 77 270.0 109.5Q256 142 256 179Q256 222 275.0 260.0Q294 298 328 324Q294 350 275.0 387.0Q256 424 256 467Q256 524 287.5 570.0Q319 616 373 636Q351 661 339.5 692.0Q328 723 328 755Q328 792 342.5 825.0Q357 858 381.5 882.5Q406 907 439.0 921.0Q472 935 508 935Q512 935 515.5 934.5Q519 934 523 934Q507 971 507 1007Q507 1044 521.5 1077.0Q536 1110 560.5 1134.5Q585 1159 618.0 1173.0Q651 1187 688 1187Q692 1187 695.0 1186.5Q698 1186 702 1186Q687 1220 687 1258Q687 1295 701.0 1328.0Q715 1361 739.5 1385.5Q764 1410 797.0 1424.0Q830 1438 867 1438Q886 1438 904.0 1434.0Q922 1430 939 1423L938 1438Q938 1475 952.5 1508.0Q967 1541 991.5 1565.5Q1016 1590 1048.5 1604.0Q1081 1618 1118 1618Q1154 1618 1191 1602Q1191 1606 1190.5 1609.5Q1190 1613 1190 1618Q1190 1655 1204.0 1687.5Q1218 1720 1242.5 1744.5Q1267 1769 1300.0 1783.0Q1333 1797 1370 1797Q1403 1797 1434.0 1785.5Q1465 1774 1489 1752Q1509 1806 1555.0 1837.5Q1601 1869 1658 1869Q1701 1869 1738.0 1850.0Q1775 1831 1801 1797Q1827 1831 1865.0 1850.0Q1903 1869 1946 1869Q1983 1869 2015.5 1855.0Q2048 1841 2072.5 1816.5Q2097 1792 2111.0 1759.0Q2125 1726 2125 1689Q2148 1706 2176.0 1715.5Q2204 1725 2233 1725Q2270 1725 2302.5 1711.0Q2335 1697 2359.5 1672.5Q2384 1648 2398.0 1615.5Q2412 1583 2412 1546Q2412 1517 2402.5 1489.0Q2393 1461 2376 1438Q2413 1438 2445.5 1424.0Q2478 1410 2502.5 1385.5Q2527 1361 2541.5 1328.5Q2556 1296 2556 1259Q2556 1216 2537.0 1178.0Q2518 1140 2484 1114Q2518 1088 2537.0 1051.0Q2556 1014 2556 971Q2556 914 2524.5 868.0Q2493 822 2439 802Q2461 777 2472.5 746.0Q2484 715 2484 683Q2484 646 2470.0 613.0Q2456 580 2431.5 555.5Q2407 531 2374.0 517.0Q2341 503 2304 503Q2286 503 2264 508Q2266 497 2267.5 487.5Q2269 478 2269 467Q2269 430 2254.5 397.5Q2240 365 2215.5 340.5Q2191 316 2158.5 301.5Q2126 287 2089 287Q2078 287 2068.5 288.5Q2059 290 2048 292Q2053 270 2053 251Q2053 214 2038.5 181.5Q2024 149 1999.5 124.5Q1975 100 1942.5 86.0Q1910 72 1873 72Q1855 72 1832 77Q1837 54 1837 34Q1837 -2 1823.0 -34.5Q1809 -67 1784.5 -91.5Q1760 -116 1727.5 -130.0Q1695 -144 1658 -144Q1640 -144 1617 -139Q1622 -161 1622 -180Q1622 -217 1608.0 -249.5Q1594 -282 1569.5 -306.5Q1545 -331 1512.0 -345.0Q1479 -359 1442 -359Q1409 -359 1378.0 -347.5Q1347 -336 1323 -314Q1303 -368 1257.0 -399.5Q1211 -431 1154 -431Q1111 -431 1074.0 -412.0Q1037 -393 1011 -359Z" style="fill:#000000;stroke:none" transform="scale(1,-1) translate(0,-256)" /></svg>