<?xml version="1.0" encoding="utf-8" ?>
<svg baseProfile="full" height="256" version="1.1" width="256" xmlns="http://www.w3.org/2000/svg" xmlns:ev="http://www.w3.org/2001/xml-events" xmlns:xlink="http://www.w3.org/1999/xlink"><defs /><path d="M759 1869 849 1797 759 1725H543L463 1797L543 1869ZM1262 1869 1353 1797 1262 1725H1047L966 1797L1047 1869ZM1765 -287 1856 -359 1765 -431H1550L1469 -359L1550 -287ZM1262 -287 1353 -359 1262 -431H1047L966 -359L1047 -287ZM759 -287 849 -359 759 -431H543L463 -359L543 -287ZM2412 72 2484 162 2556 72V-144L2484 -224L2412 -144ZM2412 1078 2484 1169 2556 1078V863L2484 782L2412 863ZM256 72 328 162 400 72V-144L328 -224L256 -144ZM2412 575 2484 666 2556 575V360L2484 279L2412 360ZM1765 1869 1856 1797 1765 1725H1550L1469 1797L1550 1869ZM256 1078 328 1169 400 1078V863L328 782L256 863ZM256 575 328 666 400 575V360L328 279L256 360ZM2412 1581 2484 1672 2556 1581V1366L2484 1286L2412 1366ZM2268 -287 2359 -359 2268 -431H2053L1973 -359L2053 -287ZM256 1581 328 1672 400 1581V1366L328 1286L256 1366ZM2268 1869 2359 1797 2268 1725H2053L1973 1797L2053 1869Z" style="fill:#ffffff;stroke:none" transform="scale(1,-1) translate(0,-256)" /></svg>