<?xml version="1.0" encoding="utf-8" ?>
<svg baseProfile="full" height="256" version="1.1" width="256" xmlns="http://www.w3.org/2000/svg" xmlns:ev="http://www.w3.org/2001/xml-events" xmlns:xlink="http://www.w3.org/1999/xlink"><defs /><path d="M2148 701Q2171 686 2184.0 662.0Q2197 638 2197 611Q2197 574 2174.5 545.5Q2152 517 2117 507Q2125 486 2125 467Q2125 443 2116.0 423.5Q2107 404 2091.5 389.5Q2076 375 2055.0 367.5Q2034 360 2011 360Q2017 342 2017 324Q2017 301 2008.5 281.5Q2000 262 1985.5 247.5Q1971 233 1951.0 224.5Q1931 216 1909 216H903Q880 216 860.5 224.5Q841 233 826.5 247.5Q812 262 803.5 281.5Q795 301 795 324Q795 342 801 360Q778 360 757.0 367.5Q736 375 720.5 389.0Q705 403 696.0 423.0Q687 443 687 467Q687 486 695 507Q660 517 637.5 545.5Q615 574 615 611Q615 638 628.0 662.5Q641 687 664 701Q641 715 628.0 739.5Q615 764 615 791Q615 825 634.0 853.0Q653 881 685 892Q651 924 651 971Q651 998 664.5 1022.5Q678 1047 701 1061Q687 1086 687 1114Q687 1138 696.0 1158.0Q705 1178 720.5 1192.5Q736 1207 756.5 1214.5Q777 1222 801 1222Q795 1240 795 1258Q795 1282 804.0 1302.0Q813 1322 828.5 1336.5Q844 1351 864.5 1358.5Q885 1366 909 1366Q920 1398 948.0 1418.0Q976 1438 1011 1438Q1031 1438 1050 1430Q1060 1465 1089.0 1487.5Q1118 1510 1154 1510Q1177 1510 1197.5 1501.0Q1218 1492 1233 1475Q1244 1507 1272.0 1526.5Q1300 1546 1334 1546Q1375 1546 1406 1518Q1437 1546 1478 1546Q1512 1546 1540.0 1526.5Q1568 1507 1579 1475Q1611 1510 1658 1510Q1694 1510 1723.0 1487.5Q1752 1465 1762 1430Q1781 1438 1801 1438Q1836 1438 1864.0 1418.0Q1892 1398 1903 1366Q1927 1366 1947.5 1358.5Q1968 1351 1983.5 1336.5Q1999 1322 2008.0 1302.0Q2017 1282 2017 1258Q2017 1240 2011 1222Q2034 1222 2055.0 1214.5Q2076 1207 2091.5 1192.5Q2107 1178 2116.0 1158.0Q2125 1138 2125 1114Q2125 1086 2111 1061Q2134 1047 2147.5 1022.5Q2161 998 2161 971Q2161 925 2126 892Q2158 881 2177.5 853.0Q2197 825 2197 791Q2197 764 2184.0 740.0Q2171 716 2148 701Z" style="fill:#2b2b2b;stroke:none" transform="scale(1,-1) translate(0,-256)" /></svg>