<?xml version="1.0" encoding="utf-8" ?>
<svg baseProfile="full" height="256" version="1.1" width="256" xmlns="http://www.w3.org/2000/svg" xmlns:ev="http://www.w3.org/2001/xml-events" xmlns:xlink="http://www.w3.org/1999/xlink"><defs /><path d="M1406 -215Q1319 -215 1235.5 -194.5Q1152 -174 1076.5 -135.0Q1001 -96 935.5 -40.0Q870 16 820 87Q763 107 720.5 151.5Q678 196 661 255Q614 284 584.0 331.0Q554 378 546 433Q511 468 491.5 514.5Q472 561 472 611Q472 659 488 701Q472 743 472 791Q472 827 481.5 861.5Q491 896 511 926Q508 948 508 971Q508 1042 544 1101Q544 1104 543.5 1107.5Q543 1111 543 1114Q543 1180 574.5 1236.0Q606 1292 661 1327Q678 1387 720.5 1431.5Q763 1476 822 1496Q851 1530 891.0 1551.5Q931 1573 976 1579Q1011 1614 1057.5 1633.5Q1104 1653 1154 1653Q1179 1653 1199 1649Q1261 1689 1334 1689Q1352 1689 1370.5 1686.5Q1389 1684 1406 1679Q1423 1684 1441.5 1686.5Q1460 1689 1478 1689Q1551 1689 1613 1649Q1633 1653 1658 1653Q1708 1653 1754.5 1633.5Q1801 1614 1836 1579Q1881 1573 1920.5 1551.5Q1960 1530 1990 1496Q2049 1476 2091.5 1431.5Q2134 1387 2151 1327Q2213 1288 2240.5 1230.0Q2268 1172 2268 1101Q2304 1042 2304 971Q2304 946 2300 926Q2340 864 2340 791Q2340 743 2324 701Q2340 659 2340 611Q2340 561 2320.5 514.5Q2301 468 2266 433Q2258 378 2228.0 331.0Q2198 284 2151 255Q2134 196 2091.5 151.0Q2049 106 1991 86Q1941 15 1875.5 -41.0Q1810 -97 1734.5 -135.5Q1659 -174 1576.0 -194.5Q1493 -215 1406 -215Z" style="fill:#000000;stroke:none" transform="scale(1,-1) translate(0,-256)" /></svg>