<?xml version="1.0" encoding="utf-8" ?>
<svg baseProfile="full" height="256" version="1.1" width="256" xmlns="http://www.w3.org/2000/svg" xmlns:ev="http://www.w3.org/2001/xml-events" xmlns:xlink="http://www.w3.org/1999/xlink"><defs /><path d="M1981 935H2017Q2039 935 2058.5 926.5Q2078 918 2093.0 903.0Q2108 888 2116.5 868.5Q2125 849 2125 827V611Q2125 588 2116.5 568.5Q2108 549 2093.5 534.5Q2079 520 2059.0 511.5Q2039 503 2017 503H1981Q1981 384 1935.5 279.5Q1890 175 1812.0 97.0Q1734 19 1629.5 -26.5Q1525 -72 1406 -72Q1287 -72 1182.5 -26.5Q1078 19 1000.0 97.0Q922 175 876.5 279.5Q831 384 831 503H795Q772 503 752.5 511.5Q733 520 718.5 534.5Q704 549 695.5 568.5Q687 588 687 611V827Q687 849 695.5 868.5Q704 888 719.0 903.0Q734 918 753.5 926.5Q773 935 795 935H831V863Q831 833 842.0 806.5Q853 780 872.5 760.5Q892 741 918.5 730.0Q945 719 975 719V935Q1040 977 1068 1050Q1083 1030 1105.5 1018.0Q1128 1006 1154 1006Q1167 1006 1179 1009Q1212 971 1262 971Q1289 971 1315 984Q1330 961 1354.5 948.0Q1379 935 1406 935Q1433 935 1457.5 948.0Q1482 961 1497 984Q1509 977 1522.5 974.0Q1536 971 1550 971Q1600 971 1633 1009Q1645 1006 1658 1006Q1684 1006 1706.5 1018.0Q1729 1030 1744 1050Q1772 977 1837 935V719Q1867 719 1893.0 730.0Q1919 741 1938.5 760.5Q1958 780 1969.5 806.5Q1981 833 1981 863Z" style="fill:#ffc83d;stroke:none" transform="scale(1,-1) translate(0,-256)" /></svg>