<?xml version="1.0" encoding="utf-8" ?>
<svg baseProfile="full" height="256" version="1.1" width="256" xmlns="http://www.w3.org/2000/svg" xmlns:ev="http://www.w3.org/2001/xml-events" xmlns:xlink="http://www.w3.org/1999/xlink"><defs /><path d="M2230 607Q2242 588 2256.5 572.0Q2271 556 2288 542Q2412 435 2484.0 301.0Q2556 167 2556 0Q2556 -59 2533.0 -111.5Q2510 -164 2471.0 -203.0Q2432 -242 2379.5 -264.5Q2327 -287 2268 -287H1981Q1922 -287 1869.5 -264.5Q1817 -242 1778.0 -203.0Q1739 -164 1716.0 -111.5Q1693 -59 1693 0Q1693 77 1655 144H1586Q1560 110 1522.5 91.0Q1485 72 1442 72Q1405 72 1372.0 86.0Q1339 100 1314.5 124.5Q1290 149 1276.0 182.0Q1262 215 1262 252V294Q1176 308 1103.0 354.5Q1030 401 980 472Q956 452 925.5 442.5Q895 433 864 433Q827 433 795 446Q760 431 723 431Q686 431 652.5 446.0Q619 461 593 488Q550 461 500.5 446.0Q451 431 400 431H256V1150Q282 1150 307.0 1150.5Q332 1151 355 1151Q417 1151 475.0 1141.0Q533 1131 593 1094Q619 1121 652.5 1135.5Q686 1150 723 1150Q760 1150 795 1135Q829 1150 869 1150H880Q822 1196 790.5 1262.0Q759 1328 759 1402Q759 1469 784.5 1527.5Q810 1586 854.0 1630.0Q898 1674 957.0 1699.5Q1016 1725 1083 1725H1298Q1324 1759 1361.5 1778.0Q1399 1797 1442 1797H1586Q1628 1797 1666.0 1778.0Q1704 1759 1729 1725H2017Q2069 1725 2118.0 1709.0Q2167 1693 2207.5 1663.5Q2248 1634 2278.5 1593.0Q2309 1552 2325 1502Q2379 1467 2421.5 1420.5Q2464 1374 2494.0 1319.0Q2524 1264 2540.0 1203.0Q2556 1142 2556 1078Q2556 1000 2532.5 927.0Q2509 854 2466.0 792.0Q2423 730 2363.0 682.5Q2303 635 2230 607Z" style="fill:#000000;stroke:none" transform="scale(1,-1) translate(0,-256)" /></svg>