<?xml version="1.0" encoding="utf-8" ?>
<svg baseProfile="full" height="256" version="1.1" width="256" xmlns="http://www.w3.org/2000/svg" xmlns:ev="http://www.w3.org/2001/xml-events" xmlns:xlink="http://www.w3.org/1999/xlink"><defs /><path d="M2053 863 2111 791H543Q543 821 554.5 847.0Q566 873 585.5 892.5Q605 912 631.0 923.5Q657 935 687 935H1056Q1068 983 1094.5 1022.5Q1121 1062 1158.0 1090.5Q1195 1119 1240.0 1134.5Q1285 1150 1334 1150H1765Q1825 1150 1877.5 1127.5Q1930 1105 1969.0 1066.0Q2008 1027 2030.5 975.0Q2053 923 2053 863ZM2010 567Q2032 508 2067.5 462.0Q2103 416 2151 376Q2237 303 2288.5 209.0Q2340 115 2340 0Q2340 -29 2318.5 -50.5Q2297 -72 2268 -72H1981Q1952 -72 1930.5 -50.5Q1909 -29 1909 0Q1909 66 1892.0 129.0Q1875 192 1843.5 247.5Q1812 303 1767.0 350.0Q1722 397 1665 431H1765Q1840 431 1905.0 467.5Q1970 504 2010 567ZM2125 72 2053 0H2125ZM2125 216 2053 144H2125ZM2268 72 2197 0H2268Z" style="fill:#13a10e;stroke:none" transform="scale(1,-1) translate(0,-256)" /></svg>