<?xml version="1.0" encoding="utf-8" ?>
<svg baseProfile="full" height="256" version="1.1" width="256" xmlns="http://www.w3.org/2000/svg" xmlns:ev="http://www.w3.org/2001/xml-events" xmlns:xlink="http://www.w3.org/1999/xlink"><defs /><path d="M2053 719Q2053 631 2092.0 559.5Q2131 488 2197 431Q2295 347 2353.5 239.5Q2412 132 2412 0Q2412 -30 2400.5 -56.0Q2389 -82 2369.5 -101.5Q2350 -121 2324.0 -132.5Q2298 -144 2268 -144H1981Q1951 -144 1925.0 -132.5Q1899 -121 1879.5 -101.5Q1860 -82 1848.5 -56.0Q1837 -30 1837 0Q1837 80 1809.0 154.0Q1781 228 1728 288L1648 324L1645 360Q1607 384 1565.0 400.5Q1523 417 1478 425L1446 394L1406 431H1334Q1285 431 1240.0 447.0Q1195 463 1158.0 491.5Q1121 520 1094.5 559.5Q1068 599 1056 647H687Q657 647 631.0 658.5Q605 670 585.5 689.5Q566 709 554.5 735.0Q543 761 543 791L782 852Q799 856 813.0 861.0Q827 866 840.5 870.0Q854 874 868.5 877.5Q883 881 901 883Q937 887 966.0 888.0Q995 889 1024 889Q1048 889 1073.5 889.0Q1099 889 1130 890L1589 903Q1592 903 1628.5 895.5Q1665 888 1718.0 876.0Q1771 864 1833.5 850.0Q1896 836 1952.0 824.0Q2008 812 2049.0 802.5Q2090 793 2101 791Z" style="fill:#107c10;stroke:none" transform="scale(1,-1) translate(0,-256)" /></svg>