<?xml version="1.0" encoding="utf-8" ?>
<svg baseProfile="full" height="256" version="1.1" width="256" xmlns="http://www.w3.org/2000/svg" xmlns:ev="http://www.w3.org/2001/xml-events" xmlns:xlink="http://www.w3.org/1999/xlink"><defs /><path d="M2197 1402Q2197 1388 2186.0 1377.0Q2175 1366 2161 1366H939Q924 1366 913.5 1376.5Q903 1387 903 1402Q903 1439 917.0 1471.5Q931 1504 955.5 1528.5Q980 1553 1013.0 1567.0Q1046 1581 1083 1581H2017Q2054 1581 2087.0 1567.0Q2120 1553 2144.5 1528.5Q2169 1504 2183.0 1471.5Q2197 1439 2197 1402ZM400 791V1006Q445 1006 484.0 989.0Q523 972 552.0 943.0Q581 914 598.0 875.0Q615 836 615 791Z" style="fill:#f7630c;stroke:none" transform="scale(1,-1) translate(0,-256)" /></svg>