<?xml version="1.0" encoding="utf-8" ?>
<svg baseProfile="full" height="256" version="1.1" width="256" xmlns="http://www.w3.org/2000/svg" xmlns:ev="http://www.w3.org/2001/xml-events" xmlns:xlink="http://www.w3.org/1999/xlink"><defs /><path d="M867 1006Q881 1006 892.0 995.5Q903 985 903 971V611Q903 596 892.5 585.5Q882 575 867 575Q852 575 841.5 585.5Q831 596 831 611V971Q831 985 842.0 995.5Q853 1006 867 1006ZM723 1006Q737 1006 748.0 995.5Q759 985 759 971V611Q759 596 748.5 585.5Q738 575 723 575Q708 575 697.5 585.5Q687 596 687 611V971Q687 985 698.0 995.5Q709 1006 723 1006Z" style="fill:#16c60c;stroke:none" transform="scale(1,-1) translate(0,-256)" /></svg>