<?xml version="1.0" encoding="utf-8" ?>
<svg baseProfile="full" height="256" version="1.1" width="256" xmlns="http://www.w3.org/2000/svg" xmlns:ev="http://www.w3.org/2001/xml-events" xmlns:xlink="http://www.w3.org/1999/xlink"><defs /><path d="M1586 1078H1442Q1427 1078 1416.5 1088.5Q1406 1099 1406 1114V1438L1454 1474L1406 1510V1617Q1406 1632 1416.5 1642.5Q1427 1653 1442 1653H1586Q1600 1653 1611.0 1642.0Q1622 1631 1622 1617V1510L1559 1474L1622 1438V1114Q1622 1100 1611.0 1089.0Q1600 1078 1586 1078ZM2053 719V863Q2098 863 2137.0 880.0Q2176 897 2205.0 926.0Q2234 955 2251.0 994.0Q2268 1033 2268 1078Q2268 1109 2259.0 1139.0Q2250 1169 2234.0 1194.5Q2218 1220 2194.5 1240.5Q2171 1261 2143 1274Q2152 1283 2161.5 1296.5Q2171 1310 2179.5 1326.5Q2188 1343 2193.5 1359.5Q2199 1376 2199 1391Q2199 1400 2196 1408Q2245 1386 2285.0 1352.0Q2325 1318 2353.0 1275.5Q2381 1233 2396.5 1183.0Q2412 1133 2412 1079Q2412 1004 2384.0 938.5Q2356 873 2307.0 824.5Q2258 776 2193.0 747.5Q2128 719 2053 719ZM1262 791Q1262 827 1275.0 859.5Q1288 892 1311.5 917.0Q1335 942 1366.5 956.5Q1398 971 1435 971Q1463 971 1491.0 964.0Q1519 957 1544 944L1837 791ZM1728 288H1478V268Q1478 259 1477.0 249.5Q1476 240 1472.5 232.5Q1469 225 1461.5 220.5Q1454 216 1442 216Q1427 216 1416.5 226.5Q1406 237 1406 252V431Q1442 431 1478 425V360H1645Q1691 328 1728 288Z" style="fill:#ffb900;stroke:none" transform="scale(1,-1) translate(0,-256)" /></svg>