<?xml version="1.0" encoding="utf-8" ?>
<svg baseProfile="full" height="256" version="1.1" width="256" xmlns="http://www.w3.org/2000/svg" xmlns:ev="http://www.w3.org/2001/xml-events" xmlns:xlink="http://www.w3.org/1999/xlink"><defs /><path d="M1262 791Q1268 792 1286.5 795.5Q1305 799 1329.5 804.0Q1354 809 1381.5 815.0Q1409 821 1433.0 825.5Q1457 830 1473.0 833.0Q1489 836 1492 836Q1509 836 1522.5 834.5Q1536 833 1549.5 830.5Q1563 828 1576.5 825.5Q1590 823 1607 821L1837 791L1544 638Q1493 611 1435 611Q1398 611 1366.5 625.5Q1335 640 1311.5 665.0Q1288 690 1275.0 722.5Q1262 755 1262 791Z" style="fill:#d48c00;stroke:none" transform="scale(1,-1) translate(0,-256)" /></svg>