<?xml version="1.0" encoding="utf-8" ?>
<svg baseProfile="full" height="256" version="1.1" width="256" xmlns="http://www.w3.org/2000/svg" xmlns:ev="http://www.w3.org/2001/xml-events" xmlns:xlink="http://www.w3.org/1999/xlink"><defs /><path d="M1758 503H2053V360H1478V511Q1541 524 1593.5 556.5Q1646 589 1684.0 636.0Q1722 683 1743.5 741.0Q1765 799 1765 863Q1765 937 1736.5 1002.5Q1708 1068 1659.5 1116.5Q1611 1165 1545.5 1193.5Q1480 1222 1406 1222Q1332 1222 1266.5 1193.5Q1201 1165 1152.5 1116.5Q1104 1068 1075.5 1002.5Q1047 937 1047 863Q1047 799 1068.5 741.0Q1090 683 1128.0 636.0Q1166 589 1218.5 556.5Q1271 524 1334 511V360H759V503H1054Q982 575 942.5 667.5Q903 760 903 863Q903 967 942.5 1058.5Q982 1150 1050.5 1218.5Q1119 1287 1210.5 1326.5Q1302 1366 1406 1366Q1510 1366 1601.5 1326.5Q1693 1287 1761.5 1218.5Q1830 1150 1869.5 1058.5Q1909 967 1909 863Q1909 760 1869.5 667.5Q1830 575 1758 503ZM2053 72H759V216H2053Z" style="fill:#ffffff;stroke:none" transform="scale(1,-1) translate(0,-256)" /></svg>