<?xml version="1.0" encoding="utf-8" ?>
<svg baseProfile="full" height="256" version="1.1" width="256" xmlns="http://www.w3.org/2000/svg" xmlns:ev="http://www.w3.org/2001/xml-events" xmlns:xlink="http://www.w3.org/1999/xlink"><defs /><path d="M2125 1869V72H2340Q2340 47 2340.5 22.5Q2341 -2 2341 -27Q2341 -75 2335.5 -121.5Q2330 -168 2312 -212Q2291 -262 2257.0 -302.5Q2223 -343 2179.5 -371.5Q2136 -400 2085.5 -415.5Q2035 -431 1981 -431H615Q540 -431 475.0 -403.0Q410 -375 361.0 -326.0Q312 -277 284.0 -212.0Q256 -147 256 -72V1869Z" style="fill:#000000;stroke:none" transform="scale(1,-1) translate(0,-256)" /></svg>