<?xml version="1.0" encoding="utf-8" ?>
<svg baseProfile="full" height="256" version="1.1" width="256" xmlns="http://www.w3.org/2000/svg" xmlns:ev="http://www.w3.org/2001/xml-events" xmlns:xlink="http://www.w3.org/1999/xlink"><defs /><path d="M2053 683Q2053 569 2023.5 463.5Q1994 358 1940.0 266.0Q1886 174 1810.5 98.5Q1735 23 1643.0 -31.0Q1551 -85 1445.5 -114.5Q1340 -144 1226 -144Q1112 -144 1006.5 -114.5Q901 -85 809.0 -31.0Q717 23 642.0 98.5Q567 174 513.0 266.0Q459 358 429.5 463.5Q400 569 400 683Q400 797 429.5 902.5Q459 1008 513.0 1100.0Q567 1192 642.0 1267.5Q717 1343 809.0 1397.0Q901 1451 1006.5 1480.5Q1112 1510 1226 1510Q1340 1510 1446.0 1480.5Q1552 1451 1643.5 1397.0Q1735 1343 1810.5 1267.5Q1886 1192 1940.0 1100.5Q1994 1009 2023.5 903.0Q2053 797 2053 683Z" style="fill:#757575;stroke:none" transform="scale(1,-1) translate(0,-256)" /></svg>