<?xml version="1.0" encoding="utf-8" ?>
<svg baseProfile="full" height="256" version="1.1" width="256" xmlns="http://www.w3.org/2000/svg" xmlns:ev="http://www.w3.org/2001/xml-events" xmlns:xlink="http://www.w3.org/1999/xlink"><defs /><path d="M1226 1366Q1320 1366 1407.5 1341.5Q1495 1317 1571.0 1272.5Q1647 1228 1709.0 1166.0Q1771 1104 1815.5 1028.0Q1860 952 1884.5 864.5Q1909 777 1909 683Q1909 589 1884.5 501.5Q1860 414 1815.5 338.0Q1771 262 1709.0 200.0Q1647 138 1571.0 93.5Q1495 49 1407.5 24.5Q1320 0 1226 0Q1132 0 1044.5 24.5Q957 49 881.0 93.5Q805 138 743.0 200.0Q681 262 636.5 338.0Q592 414 567.5 501.5Q543 589 543 683Q543 777 567.5 864.5Q592 952 636.5 1028.0Q681 1104 743.0 1166.0Q805 1228 881.0 1272.5Q957 1317 1044.5 1341.5Q1132 1366 1226 1366Z" style="fill:#ffffff;stroke:none" transform="scale(1,-1) translate(0,-256)" /></svg>