<?xml version="1.0" encoding="utf-8" ?>
<svg baseProfile="full" height="256" version="1.1" width="256" xmlns="http://www.w3.org/2000/svg" xmlns:ev="http://www.w3.org/2001/xml-events" xmlns:xlink="http://www.w3.org/1999/xlink"><defs /><path d="M1550 -287H903Q873 -287 847.0 -276.0Q821 -265 801.5 -245.5Q782 -226 770.5 -200.0Q759 -174 759 -144V1581Q759 1611 770.0 1637.0Q781 1663 800.5 1682.5Q820 1702 846.5 1713.5Q873 1725 903 1725H1550Q1580 1725 1606.0 1713.5Q1632 1702 1651.5 1682.5Q1671 1663 1682.0 1637.0Q1693 1611 1693 1581V-144Q1693 -174 1682.0 -200.0Q1671 -226 1651.5 -245.5Q1632 -265 1606.0 -276.0Q1580 -287 1550 -287Z" style="fill:#383838;stroke:none" transform="scale(1,-1) translate(0,-256)" /></svg>