<?xml version="1.0" encoding="utf-8" ?>
<svg baseProfile="full" height="256" version="1.1" width="256" xmlns="http://www.w3.org/2000/svg" xmlns:ev="http://www.w3.org/2001/xml-events" xmlns:xlink="http://www.w3.org/1999/xlink"><defs /><path d="M903 -431Q844 -431 792.0 -408.0Q740 -385 700.5 -346.0Q661 -307 638.0 -255.0Q615 -203 615 -144V-71Q530 -2 463.0 83.5Q396 169 350.0 265.5Q304 362 280.0 467.5Q256 573 256 683Q256 792 280.5 897.5Q305 1003 351.0 1100.0Q397 1197 464.0 1282.5Q531 1368 615 1437V1581Q615 1641 637.5 1693.5Q660 1746 699.0 1785.0Q738 1824 790.5 1846.5Q843 1869 903 1869H1550Q1608 1869 1660.5 1846.0Q1713 1823 1752.0 1783.5Q1791 1744 1814.0 1691.5Q1837 1639 1837 1581V1436Q1961 1336 2045.0 1203.5Q2129 1071 2167 916Q2206 898 2226.5 871.5Q2247 845 2257.0 813.5Q2267 782 2268.5 746.0Q2270 710 2270 673Q2270 638 2267.5 605.0Q2265 572 2254.5 543.5Q2244 515 2223.5 491.0Q2203 467 2167 450Q2129 295 2045.0 162.5Q1961 30 1837 -70V-144Q1837 -203 1814.5 -255.5Q1792 -308 1753.0 -347.0Q1714 -386 1661.5 -408.5Q1609 -431 1550 -431Z" style="fill:#000000;stroke:none" transform="scale(1,-1) translate(0,-256)" /></svg>