<?xml version="1.0" encoding="utf-8" ?>
<svg baseProfile="full" height="256" version="1.1" width="256" xmlns="http://www.w3.org/2000/svg" xmlns:ev="http://www.w3.org/2001/xml-events" xmlns:xlink="http://www.w3.org/1999/xlink"><defs /><path d="M1406 -431Q1287 -431 1177.0 -400.0Q1067 -369 971.5 -313.0Q876 -257 797.0 -178.0Q718 -99 662.0 -3.5Q606 92 575.0 202.0Q544 312 544 431V901L319 1141Q289 1173 272.5 1211.0Q256 1249 256 1294Q256 1339 273.0 1378.0Q290 1417 319.5 1446.5Q349 1476 388.0 1493.0Q427 1510 472 1510H2340Q2385 1510 2424.0 1493.0Q2463 1476 2492.5 1446.5Q2522 1417 2539.0 1378.0Q2556 1339 2556 1294Q2556 1250 2540.0 1211.0Q2524 1172 2493 1141L2268 917V431Q2268 312 2237.0 202.0Q2206 92 2150.0 -3.5Q2094 -99 2015.0 -178.0Q1936 -257 1840.5 -313.0Q1745 -369 1635.0 -400.0Q1525 -431 1406 -431Z" style="fill:#000000;stroke:none" transform="scale(1,-1) translate(0,-256)" /></svg>