<?xml version="1.0" encoding="utf-8" ?>
<svg baseProfile="full" height="256" version="1.1" width="256" xmlns="http://www.w3.org/2000/svg" xmlns:ev="http://www.w3.org/2001/xml-events" xmlns:xlink="http://www.w3.org/1999/xlink"><defs /><path d="M2412 1294Q2412 1264 2391 1243L2083 935H729L421 1243Q400 1264 400 1294Q400 1324 421.0 1345.0Q442 1366 472 1366H687Q728 1366 768.0 1362.5Q808 1359 849 1356L1172 1335Q1233 1331 1293.5 1325.5Q1354 1320 1415 1320Q1475 1320 1533.5 1325.5Q1592 1331 1652 1335L1967 1356Q2007 1359 2046.0 1362.5Q2085 1366 2125 1366H2340Q2370 1366 2391.0 1345.0Q2412 1324 2412 1294Z" style="fill:#383838;stroke:none" transform="scale(1,-1) translate(0,-256)" /></svg>