<?xml version="1.0" encoding="utf-8" ?>
<svg baseProfile="full" height="256" version="1.1" width="256" xmlns="http://www.w3.org/2000/svg" xmlns:ev="http://www.w3.org/2001/xml-events" xmlns:xlink="http://www.w3.org/1999/xlink"><defs /><path d="M867 647Q964 647 1049.0 610.5Q1134 574 1197.5 510.5Q1261 447 1297.5 362.0Q1334 277 1334 180Q1334 83 1297.5 -2.0Q1261 -87 1197.5 -150.5Q1134 -214 1049.0 -250.5Q964 -287 867 -287Q770 -287 685.0 -250.5Q600 -214 536.5 -150.5Q473 -87 436.5 -2.0Q400 83 400 180Q400 277 436.5 362.0Q473 447 536.5 510.5Q600 574 685.0 610.5Q770 647 867 647ZM1945 647Q2042 647 2127.0 610.5Q2212 574 2275.5 510.5Q2339 447 2375.5 362.0Q2412 277 2412 180Q2412 83 2375.5 -2.0Q2339 -87 2275.5 -150.5Q2212 -214 2127.0 -250.5Q2042 -287 1945 -287Q1848 -287 1763.0 -250.5Q1678 -214 1614.5 -150.5Q1551 -87 1514.5 -2.0Q1478 83 1478 180Q1478 277 1514.5 362.0Q1551 447 1614.5 510.5Q1678 574 1763.0 610.5Q1848 647 1945 647Z" style="fill:#af0d1a;stroke:none" transform="scale(1,-1) translate(0,-256)" /></svg>