<?xml version="1.0" encoding="utf-8" ?>
<svg baseProfile="full" height="256" version="1.1" width="256" xmlns="http://www.w3.org/2000/svg" xmlns:ev="http://www.w3.org/2001/xml-events" xmlns:xlink="http://www.w3.org/1999/xlink"><defs /><path d="M975 503Q1005 503 1031.0 492.0Q1057 481 1076.5 461.5Q1096 442 1107.0 416.0Q1118 390 1118 360Q1118 330 1107.0 304.0Q1096 278 1076.5 258.5Q1057 239 1031.0 227.5Q1005 216 975 216Q945 216 918.5 227.0Q892 238 872.5 257.5Q853 277 842.0 303.5Q831 330 831 360Q831 390 842.5 416.0Q854 442 873.5 461.5Q893 481 919.0 492.0Q945 503 975 503ZM2053 503Q2083 503 2109.0 492.0Q2135 481 2154.5 461.5Q2174 442 2185.5 416.0Q2197 390 2197 360Q2197 330 2185.5 304.0Q2174 278 2154.5 258.5Q2135 239 2109.0 227.5Q2083 216 2053 216Q2023 216 1996.5 227.0Q1970 238 1950.5 257.5Q1931 277 1920.0 303.5Q1909 330 1909 360Q1909 390 1920.5 416.0Q1932 442 1951.5 461.5Q1971 481 1997.0 492.0Q2023 503 2053 503Z" style="fill:#e84757;stroke:none" transform="scale(1,-1) translate(0,-256)" /></svg>