<?xml version="1.0" encoding="utf-8" ?>
<svg baseProfile="full" height="256" version="1.1" width="256" xmlns="http://www.w3.org/2000/svg" xmlns:ev="http://www.w3.org/2001/xml-events" xmlns:xlink="http://www.w3.org/1999/xlink"><defs /><path d="M831 1725Q856 1725 870.0 1715.5Q884 1706 891.5 1691.0Q899 1676 901.0 1657.0Q903 1638 903 1619V1581Q903 1442 939.0 1314.0Q975 1186 1040.5 1074.0Q1106 962 1198.0 870.0Q1290 778 1402.0 712.5Q1514 647 1642.0 611.0Q1770 575 1909 575V431Q1752 431 1603.5 472.5Q1455 514 1325.0 591.0Q1195 668 1087.0 778.5Q979 889 903 1026V503H759V1653Q759 1683 780.0 1704.0Q801 1725 831 1725Z" style="fill:#13a10e;stroke:none" transform="scale(1,-1) translate(0,-256)" /></svg>