<?xml version="1.0" encoding="utf-8" ?>
<svg baseProfile="full" height="256" version="1.1" width="256" xmlns="http://www.w3.org/2000/svg" xmlns:ev="http://www.w3.org/2001/xml-events" xmlns:xlink="http://www.w3.org/1999/xlink"><defs /><path d="M1945 791Q2071 791 2182.5 743.0Q2294 695 2377.0 612.0Q2460 529 2508.0 417.5Q2556 306 2556 180Q2556 54 2508.0 -57.5Q2460 -169 2377.0 -252.0Q2294 -335 2182.5 -383.0Q2071 -431 1945 -431Q1860 -431 1780.0 -408.5Q1700 -386 1630.5 -344.0Q1561 -302 1503.5 -242.0Q1446 -182 1406 -107Q1366 -182 1308.5 -242.0Q1251 -302 1181.5 -344.0Q1112 -386 1032.0 -408.5Q952 -431 867 -431Q741 -431 629.5 -383.0Q518 -335 435.0 -252.0Q352 -169 304.0 -57.5Q256 54 256 180Q256 270 281.5 354.5Q307 439 353.5 511.5Q400 584 466.5 641.5Q533 699 615 736V1653Q615 1698 632.0 1737.0Q649 1776 678.5 1805.5Q708 1835 747.0 1852.0Q786 1869 831 1869Q865 1869 897.0 1858.5Q929 1848 955.0 1829.0Q981 1810 1001.5 1783.5Q1022 1757 1034 1725H1478Q1587 1725 1688.0 1697.0Q1789 1669 1876.5 1617.5Q1964 1566 2036.5 1493.5Q2109 1421 2160.5 1333.5Q2212 1246 2240.0 1145.0Q2268 1044 2268 935V791Z" style="fill:#000000;stroke:none" transform="scale(1,-1) translate(0,-256)" /></svg>