<?xml version="1.0" encoding="utf-8" ?>
<svg baseProfile="full" height="256" version="1.1" width="256" xmlns="http://www.w3.org/2000/svg" xmlns:ev="http://www.w3.org/2001/xml-events" xmlns:xlink="http://www.w3.org/1999/xlink"><defs /><path d="M1729 1438Q1811 1438 1883.0 1407.0Q1955 1376 2009.0 1322.0Q2063 1268 2094.0 1196.0Q2125 1124 2125 1042Q2125 960 2094.0 888.0Q2063 816 2009.0 762.5Q1955 709 1883.0 678.0Q1811 647 1729 647H1693V791H1729Q1781 791 1826.5 811.0Q1872 831 1906.5 865.0Q1941 899 1961.0 944.5Q1981 990 1981 1042Q1981 1094 1961.0 1140.0Q1941 1186 1907.0 1220.0Q1873 1254 1827.0 1274.0Q1781 1294 1729 1294Q1677 1294 1631.5 1274.0Q1586 1254 1552.0 1219.5Q1518 1185 1498.0 1139.5Q1478 1094 1478 1042V0H1334V1042Q1334 1094 1314.0 1139.5Q1294 1185 1260.0 1219.5Q1226 1254 1180.5 1274.0Q1135 1294 1083 1294Q1031 1294 985.0 1274.0Q939 1254 905.0 1220.0Q871 1186 851.0 1140.0Q831 1094 831 1042Q831 990 851.0 944.5Q871 899 905.5 865.0Q940 831 985.5 811.0Q1031 791 1083 791H1118V647H1083Q1001 647 929.0 678.0Q857 709 803.0 762.5Q749 816 718.0 888.0Q687 960 687 1042Q687 1124 718.0 1196.0Q749 1268 803.0 1322.0Q857 1376 929.0 1407.0Q1001 1438 1083 1438Q1180 1438 1264.5 1392.5Q1349 1347 1406 1269Q1463 1347 1547.5 1392.5Q1632 1438 1729 1438Z" style="fill:#ffffff;stroke:none" transform="scale(1,-1) translate(0,-256)" /></svg>