<?xml version="1.0" encoding="utf-8" ?>
<svg baseProfile="full" height="256" version="1.1" width="256" xmlns="http://www.w3.org/2000/svg" xmlns:ev="http://www.w3.org/2001/xml-events" xmlns:xlink="http://www.w3.org/1999/xlink"><defs /><path d="M2340 1869Q2385 1869 2424.0 1852.0Q2463 1835 2492.5 1805.5Q2522 1776 2539.0 1737.0Q2556 1698 2556 1653Q2556 1611 2539.5 1571.0Q2523 1531 2493 1501L1909 917Q1909 897 1909.5 876.5Q1910 856 1910 836Q1910 799 1907.0 766.0Q1904 733 1894.5 702.5Q1885 672 1868.5 643.5Q1852 615 1825 588L891 -347Q850 -388 797.0 -409.5Q744 -431 687 -431Q629 -431 577.5 -409.5Q526 -388 484 -347L340 -203Q299 -161 277.5 -109.5Q256 -58 256 0Q256 57 277.5 109.5Q299 162 340 203L716 580Q648 588 590.5 619.0Q533 650 490.5 697.5Q448 745 424.0 806.0Q400 867 400 935Q400 1009 428.5 1074.5Q457 1140 505.5 1188.5Q554 1237 619.5 1265.5Q685 1294 759 1294Q827 1294 888.0 1269.5Q949 1245 996.5 1202.5Q1044 1160 1075.0 1102.0Q1106 1044 1114 977L1275 1138Q1317 1179 1368.5 1200.5Q1420 1222 1478 1222H1604L2188 1806Q2218 1836 2258.0 1852.5Q2298 1869 2340 1869Z" style="fill:#000000;stroke:none" transform="scale(1,-1) translate(0,-256)" /></svg>