<?xml version="1.0" encoding="utf-8" ?>
<svg baseProfile="full" height="256" version="1.1" width="256" xmlns="http://www.w3.org/2000/svg" xmlns:ev="http://www.w3.org/2001/xml-events" xmlns:xlink="http://www.w3.org/1999/xlink"><defs /><path d="M903 1094Q937 1064 956.0 1022.0Q975 980 975 935Q975 889 956.5 847.0Q938 805 903 775L901 785H839Q837 771 835.0 758.0Q833 745 831 732Q794 719 759 719Q724 719 687 732L676 785H617L615 775Q581 806 562.5 847.5Q544 889 544 935Q544 980 562.5 1022.0Q581 1064 615 1094L620 1074H674L687 1137Q724 1150 759 1150Q794 1150 831 1137Q833 1121 836.0 1105.5Q839 1090 842 1074H899Z" style="fill:#af0d1a;stroke:none" transform="scale(1,-1) translate(0,-256)" /></svg>