<?xml version="1.0" encoding="utf-8" ?>
<svg baseProfile="full" height="256" version="1.1" width="256" xmlns="http://www.w3.org/2000/svg" xmlns:ev="http://www.w3.org/2001/xml-events" xmlns:xlink="http://www.w3.org/1999/xlink"><defs /><path d="M1678 1062 1771 1081 1748 1000 1715 956 1765 933V791Q1765 762 1754.0 735.5Q1743 709 1723 689L789 -245Q769 -265 742.5 -276.0Q716 -287 687 -287Q628 -287 586 -245L442 -101Q400 -59 400 0Q400 29 411.0 55.5Q422 82 442 102L1376 1036Q1396 1056 1422.5 1067.0Q1449 1078 1478 1078H1621L1643 1028Z" style="fill:#f7b189;stroke:none" transform="scale(1,-1) translate(0,-256)" /></svg>