<?xml version="1.0" encoding="utf-8" ?>
<svg baseProfile="full" height="256" version="1.1" width="256" xmlns="http://www.w3.org/2000/svg" xmlns:ev="http://www.w3.org/2001/xml-events" xmlns:xlink="http://www.w3.org/1999/xlink"><defs /><path d="M615 180Q615 165 604.5 154.5Q594 144 579 144Q565 144 554.0 155.0Q543 166 543 180Q543 194 554.0 205.0Q565 216 579 216Q594 216 604.5 205.5Q615 195 615 180ZM903 -108Q903 -122 892.0 -133.0Q881 -144 867 -144Q853 -144 842.0 -133.0Q831 -122 831 -108Q831 -93 841.5 -82.5Q852 -72 867 -72Q882 -72 892.5 -82.5Q903 -93 903 -108ZM759 180Q759 165 748.5 154.5Q738 144 723 144Q708 144 697.5 154.5Q687 165 687 180Q687 195 697.5 205.5Q708 216 723 216Q738 216 748.5 205.5Q759 195 759 180ZM903 36Q903 21 892.5 10.5Q882 0 867 0Q852 0 841.5 10.5Q831 21 831 36Q831 51 841.5 61.5Q852 72 867 72Q882 72 892.5 61.5Q903 51 903 36ZM615 36Q615 21 604.5 10.5Q594 0 579 0Q565 0 554.0 11.0Q543 22 543 36Q543 50 554.0 61.0Q565 72 579 72Q594 72 604.5 61.5Q615 51 615 36ZM759 -108Q759 -122 748.0 -133.0Q737 -144 723 -144Q709 -144 698.0 -133.0Q687 -122 687 -108Q687 -93 697.5 -82.5Q708 -72 723 -72Q738 -72 748.5 -82.5Q759 -93 759 -108ZM759 36Q759 21 748.5 10.5Q738 0 723 0Q708 0 697.5 10.5Q687 21 687 36Q687 51 697.5 61.5Q708 72 723 72Q738 72 748.5 61.5Q759 51 759 36ZM759 324Q759 309 748.5 298.5Q738 288 723 288Q708 288 697.5 298.5Q687 309 687 324Q687 338 698.0 349.0Q709 360 723 360Q737 360 748.0 349.0Q759 338 759 324ZM1047 36Q1047 22 1036.0 11.0Q1025 0 1011 0Q996 0 985.5 10.5Q975 21 975 36Q975 51 985.5 61.5Q996 72 1011 72Q1025 72 1036.0 61.0Q1047 50 1047 36ZM903 324Q903 309 892.5 298.5Q882 288 867 288Q852 288 841.5 298.5Q831 309 831 324Q831 338 842.0 349.0Q853 360 867 360Q881 360 892.0 349.0Q903 338 903 324ZM1047 180Q1047 166 1036.0 155.0Q1025 144 1011 144Q996 144 985.5 154.5Q975 165 975 180Q975 195 985.5 205.5Q996 216 1011 216Q1025 216 1036.0 205.0Q1047 194 1047 180ZM903 180Q903 165 892.5 154.5Q882 144 867 144Q852 144 841.5 154.5Q831 165 831 180Q831 195 841.5 205.5Q852 216 867 216Q882 216 892.5 205.5Q903 195 903 180ZM2197 1258Q2197 1273 2207.5 1283.5Q2218 1294 2233 1294Q2247 1294 2257.5 1283.0Q2268 1272 2268 1258Q2268 1244 2257.5 1233.0Q2247 1222 2233 1222Q2218 1222 2207.5 1232.5Q2197 1243 2197 1258ZM1909 1546Q1909 1560 1920.0 1570.5Q1931 1581 1945 1581Q1959 1581 1970.0 1570.5Q1981 1560 1981 1546Q1981 1531 1970.5 1520.5Q1960 1510 1945 1510Q1930 1510 1919.5 1520.5Q1909 1531 1909 1546ZM2053 1258Q2053 1273 2063.5 1283.5Q2074 1294 2089 1294Q2104 1294 2114.5 1283.5Q2125 1273 2125 1258Q2125 1243 2114.5 1232.5Q2104 1222 2089 1222Q2074 1222 2063.5 1232.5Q2053 1243 2053 1258ZM1909 1402Q1909 1417 1919.5 1427.5Q1930 1438 1945 1438Q1960 1438 1970.5 1427.5Q1981 1417 1981 1402Q1981 1387 1970.5 1376.5Q1960 1366 1945 1366Q1930 1366 1919.5 1376.5Q1909 1387 1909 1402ZM2197 1402Q2197 1417 2207.5 1427.5Q2218 1438 2233 1438Q2247 1438 2257.5 1427.0Q2268 1416 2268 1402Q2268 1388 2257.5 1377.0Q2247 1366 2233 1366Q2218 1366 2207.5 1376.5Q2197 1387 2197 1402ZM2053 1546Q2053 1560 2064.0 1570.5Q2075 1581 2089 1581Q2103 1581 2114.0 1570.5Q2125 1560 2125 1546Q2125 1531 2114.5 1520.5Q2104 1510 2089 1510Q2074 1510 2063.5 1520.5Q2053 1531 2053 1546ZM2053 1402Q2053 1417 2063.5 1427.5Q2074 1438 2089 1438Q2104 1438 2114.5 1427.5Q2125 1417 2125 1402Q2125 1387 2114.5 1376.5Q2104 1366 2089 1366Q2074 1366 2063.5 1376.5Q2053 1387 2053 1402ZM2053 1114Q2053 1129 2063.5 1139.5Q2074 1150 2089 1150Q2104 1150 2114.5 1139.5Q2125 1129 2125 1114Q2125 1099 2114.5 1088.5Q2104 1078 2089 1078Q2074 1078 2063.5 1088.5Q2053 1099 2053 1114ZM1765 1402Q1765 1417 1775.5 1427.5Q1786 1438 1801 1438Q1816 1438 1826.5 1427.5Q1837 1417 1837 1402Q1837 1387 1826.5 1376.5Q1816 1366 1801 1366Q1786 1366 1775.5 1376.5Q1765 1387 1765 1402ZM1909 1114Q1909 1129 1919.5 1139.5Q1930 1150 1945 1150Q1960 1150 1970.5 1139.5Q1981 1129 1981 1114Q1981 1099 1970.5 1088.5Q1960 1078 1945 1078Q1930 1078 1919.5 1088.5Q1909 1099 1909 1114ZM1765 1258Q1765 1273 1775.5 1283.5Q1786 1294 1801 1294Q1816 1294 1826.5 1283.5Q1837 1273 1837 1258Q1837 1243 1826.5 1232.5Q1816 1222 1801 1222Q1786 1222 1775.5 1232.5Q1765 1243 1765 1258ZM1909 1258Q1909 1273 1919.5 1283.5Q1930 1294 1945 1294Q1960 1294 1970.5 1283.5Q1981 1273 1981 1258Q1981 1243 1970.5 1232.5Q1960 1222 1945 1222Q1930 1222 1919.5 1232.5Q1909 1243 1909 1258Z" style="fill:#f7630c;stroke:none" transform="scale(1,-1) translate(0,-256)" /></svg>