<?xml version="1.0" encoding="utf-8" ?>
<svg baseProfile="full" height="256" version="1.1" width="256" xmlns="http://www.w3.org/2000/svg" xmlns:ev="http://www.w3.org/2001/xml-events" xmlns:xlink="http://www.w3.org/1999/xlink"><defs /><path d="M2053 1725Q2127 1725 2192.5 1696.5Q2258 1668 2306.5 1619.5Q2355 1571 2383.5 1505.5Q2412 1440 2412 1366Q2412 1294 2385.0 1228.5Q2358 1163 2307 1112L2066 871Q2048 853 2034.0 838.5Q2020 824 2006.5 810.0Q1993 796 1978.0 781.5Q1963 767 1945 750L1711 551Q1694 536 1679.5 525.0Q1665 514 1651.5 503.0Q1638 492 1624.0 480.0Q1610 468 1594 452Q1570 428 1556.0 408.0Q1542 388 1521 361L1375 180Q1358 162 1343.5 147.0Q1329 132 1315.0 118.5Q1301 105 1286.5 91.0Q1272 77 1254 59L1013 -182Q962 -233 896.5 -260.0Q831 -287 759 -287Q685 -287 619.5 -259.0Q554 -231 505.0 -182.0Q456 -133 428.0 -67.5Q400 -2 400 72Q400 144 427.0 209.5Q454 275 505 326L746 567Q764 585 778.0 599.5Q792 614 805.5 628.0Q819 642 834.0 656.5Q849 671 867 688L1072 855Q1087 867 1099.5 877.0Q1112 887 1124.0 896.0Q1136 905 1148.0 915.0Q1160 925 1174 939Q1188 953 1198.5 965.5Q1209 978 1219.0 990.5Q1229 1003 1239.0 1016.5Q1249 1030 1262 1045L1437 1258Q1454 1276 1468.5 1291.0Q1483 1306 1497.0 1319.5Q1511 1333 1525.5 1347.0Q1540 1361 1558 1379L1799 1620Q1850 1671 1915.5 1698.0Q1981 1725 2053 1725Z" style="fill:#f7b189;stroke:none" transform="scale(1,-1) translate(0,-256)" /></svg>