<?xml version="1.0" encoding="utf-8" ?>
<svg baseProfile="full" height="256" version="1.1" width="256" xmlns="http://www.w3.org/2000/svg" xmlns:ev="http://www.w3.org/2001/xml-events" xmlns:xlink="http://www.w3.org/1999/xlink"><defs /><path d="M759 -431Q655 -431 563.5 -391.5Q472 -352 403.5 -283.5Q335 -215 295.5 -123.5Q256 -32 256 72Q256 173 293.5 264.5Q331 356 403 428L1697 1722Q1769 1794 1860.5 1831.5Q1952 1869 2053 1869Q2157 1869 2248.5 1829.5Q2340 1790 2408.5 1721.5Q2477 1653 2516.5 1561.5Q2556 1470 2556 1366Q2556 1265 2518.5 1173.5Q2481 1082 2409 1010L1115 -284Q1043 -356 951.5 -393.5Q860 -431 759 -431Z" style="fill:#000000;stroke:none" transform="scale(1,-1) translate(0,-256)" /></svg>