<?xml version="1.0" encoding="utf-8" ?>
<svg baseProfile="full" height="256" version="1.1" width="256" xmlns="http://www.w3.org/2000/svg" xmlns:ev="http://www.w3.org/2001/xml-events" xmlns:xlink="http://www.w3.org/1999/xlink"><defs /><path d="M1467 216H1458Q1429 216 1403.5 217.0Q1378 218 1353.5 222.5Q1329 227 1305.5 237.0Q1282 247 1257 265L747 647H579Q527 647 481.5 667.0Q436 687 402.0 721.5Q368 756 348.0 801.5Q328 847 328 899Q328 948 346 993Q257 1070 257 1185Q257 1254 291.5 1314.0Q326 1374 387 1407L750 1605Q794 1629 842.0 1641.0Q890 1653 940 1653H1622Q1696 1653 1755.0 1616.0Q1814 1579 1847 1513L2557 102L1734 -310ZM955 1144Q996 1134 1032 1107L1234 956Q1262 935 1298 935Q1320 935 1339.5 943.5Q1359 952 1374.0 966.0Q1389 980 1397.5 999.5Q1406 1019 1406 1042Q1406 1064 1397.5 1084.0Q1389 1104 1374.5 1118.5Q1360 1133 1340.0 1141.5Q1320 1150 1298 1150H967Z" style="fill:#000000;stroke:none" transform="scale(1,-1) translate(0,-256)" /></svg>