<?xml version="1.0" encoding="utf-8" ?>
<svg baseProfile="full" height="256" version="1.1" width="256" xmlns="http://www.w3.org/2000/svg" xmlns:ev="http://www.w3.org/2001/xml-events" xmlns:xlink="http://www.w3.org/1999/xlink"><defs /><path d="M1622 1510Q1654 1510 1679.0 1494.0Q1704 1478 1718 1450L2364 166L1797 -117L1555 360H1406Q1369 360 1341 381L795 791H579Q556 791 536.5 799.5Q517 808 503.0 823.0Q489 838 480.5 857.5Q472 877 472 899Q472 921 480.5 940.5Q489 960 503.5 974.5Q518 989 537.5 997.5Q557 1006 579 1006H905Q927 1006 946 992L1147 841Q1179 816 1218.0 803.5Q1257 791 1298 791Q1350 791 1396.0 810.5Q1442 830 1476.0 864.0Q1510 898 1530.0 944.0Q1550 990 1550 1042Q1550 1094 1530.0 1140.0Q1510 1186 1476.0 1220.0Q1442 1254 1396.0 1274.0Q1350 1294 1298 1294H940Q934 1294 906.5 1280.5Q879 1267 840.0 1246.5Q801 1226 756.5 1201.5Q712 1177 672.0 1154.5Q632 1132 601.0 1114.5Q570 1097 559 1091Q535 1078 508 1078Q485 1078 465.5 1086.5Q446 1095 431.5 1109.5Q417 1124 408.5 1143.5Q400 1163 400 1186Q400 1216 415.0 1241.5Q430 1267 456 1281L819 1479Q876 1510 940 1510H1622Z" style="fill:#ffc83d;stroke:none" transform="scale(1,-1) translate(0,-256)" /></svg>