<?xml version="1.0" encoding="utf-8" ?>
<svg baseProfile="full" height="256" version="1.1" width="256" xmlns="http://www.w3.org/2000/svg" xmlns:ev="http://www.w3.org/2001/xml-events" xmlns:xlink="http://www.w3.org/1999/xlink"><defs /><path d="M2304 863Q2326 863 2345.5 854.5Q2365 846 2380.0 831.0Q2395 816 2403.5 796.5Q2412 777 2412 755V407Q2412 350 2390.5 297.0Q2369 244 2328 203Q2273 148 2224.5 98.0Q2176 48 2123.5 10.5Q2071 -27 2008.5 -49.5Q1946 -72 1863 -72Q1804 -72 1748.5 -57.5Q1693 -43 1643.5 -15.5Q1594 12 1551.5 51.5Q1509 91 1477 140Q1477 143 1476.5 147.0Q1476 151 1476 156Q1474 179 1471.0 217.5Q1468 256 1461.0 293.5Q1454 331 1442.0 358.5Q1430 386 1411 386L1406 385Q1406 290 1370.0 207.0Q1334 124 1272.0 62.0Q1210 0 1126.5 -36.0Q1043 -72 949 -72Q866 -72 803.5 -49.5Q741 -27 688.5 10.5Q636 48 587.5 98.0Q539 148 484 203Q443 244 421.5 297.0Q400 350 400 407V755Q400 777 408.5 796.5Q417 816 432.0 831.0Q447 846 466.5 854.5Q486 863 508 863Q530 863 549.5 854.5Q569 846 583.5 831.0Q598 816 606.5 796.5Q615 777 615 755L687 1360Q705 1366 723 1366Q745 1366 765.0 1357.5Q785 1349 799.5 1334.5Q814 1320 822.5 1300.0Q831 1280 831 1258L903 1503Q922 1510 939 1510Q961 1510 980.5 1501.5Q1000 1493 1015.0 1478.0Q1030 1463 1038.5 1443.5Q1047 1424 1047 1402V1330L1118 1432Q1136 1438 1154 1438Q1176 1438 1195.5 1429.5Q1215 1421 1230.0 1406.0Q1245 1391 1253.5 1371.5Q1262 1352 1262 1330V1150L1334 1222Q1364 1222 1385.0 1201.0Q1406 1180 1406 1150L1478 1222Q1508 1222 1529.0 1201.0Q1550 1180 1550 1150L1621 1432Q1639 1438 1658 1438Q1680 1438 1699.5 1429.5Q1719 1421 1733.5 1406.0Q1748 1391 1756.5 1371.5Q1765 1352 1765 1330L1837 1503Q1856 1510 1873 1510Q1895 1510 1914.5 1501.5Q1934 1493 1949.0 1478.0Q1964 1463 1972.5 1443.5Q1981 1424 1981 1402V1258L2053 1360Q2071 1366 2089 1366Q2111 1366 2130.5 1357.5Q2150 1349 2165.0 1334.0Q2180 1319 2188.5 1299.5Q2197 1280 2197 1258V755L2268 857Q2286 863 2304 863Z" style="fill:#ffc83d;stroke:none" transform="scale(1,-1) translate(0,-256)" /></svg>