<?xml version="1.0" encoding="utf-8" ?>
<svg baseProfile="full" height="256" version="1.1" width="256" xmlns="http://www.w3.org/2000/svg" xmlns:ev="http://www.w3.org/2001/xml-events" xmlns:xlink="http://www.w3.org/1999/xlink"><defs /><path d="M1863 -215Q1730 -215 1611.0 -160.0Q1492 -105 1406 -4Q1320 -105 1201.0 -160.0Q1082 -215 949 -215Q826 -215 718.5 -170.0Q611 -125 524 -39Q471 13 422.5 59.5Q374 106 337.0 156.5Q300 207 278.0 267.0Q256 327 256 407V755Q256 802 272.5 844.0Q289 886 318.0 919.5Q347 953 386.5 975.0Q426 997 472 1004V1258Q472 1308 490.5 1353.0Q509 1398 541.5 1431.5Q574 1465 618.0 1486.0Q662 1507 712 1509Q744 1575 805.0 1614.0Q866 1653 940 1653Q991 1653 1037.0 1633.5Q1083 1614 1118 1579Q1136 1582 1155 1582Q1203 1582 1246.5 1564.5Q1290 1547 1323.5 1516.0Q1357 1485 1378.5 1443.5Q1400 1402 1405 1354Q1411 1402 1433.0 1443.5Q1455 1485 1488.5 1516.0Q1522 1547 1565.5 1564.5Q1609 1582 1657 1582Q1676 1582 1694 1579Q1729 1614 1775.0 1633.5Q1821 1653 1872 1653Q1946 1653 2007.0 1614.5Q2068 1576 2100 1509Q2150 1507 2193.5 1486.0Q2237 1465 2269.5 1431.0Q2302 1397 2321.0 1352.5Q2340 1308 2340 1258V1004Q2386 997 2425.5 975.0Q2465 953 2493.5 919.5Q2522 886 2538.5 844.0Q2555 802 2555 755Q2555 667 2555.5 581.0Q2556 495 2556 407Q2556 327 2534.0 267.0Q2512 207 2475.0 156.5Q2438 106 2389.5 59.5Q2341 13 2288 -39Q2201 -125 2093.5 -170.0Q1986 -215 1863 -215Z" style="fill:#000000;stroke:none" transform="scale(1,-1) translate(0,-256)" /></svg>