<?xml version="1.0" encoding="utf-8" ?>
<svg baseProfile="full" height="256" version="1.1" width="256" xmlns="http://www.w3.org/2000/svg" xmlns:ev="http://www.w3.org/2001/xml-events" xmlns:xlink="http://www.w3.org/1999/xlink"><defs /><path d="M831 575Q891 575 943.0 552.5Q995 530 1034.0 491.0Q1073 452 1095.5 400.0Q1118 348 1118 288V268Q1118 249 1112.5 232.5Q1107 216 1083 216Q1068 216 1057.5 226.5Q1047 237 1047 252V288Q1047 333 1030.0 372.0Q1013 411 983.5 440.0Q954 469 915.0 486.0Q876 503 831 503H615V1258Q615 1293 635.0 1320.5Q655 1348 687 1359V575ZM2197 755Q2197 789 2216.5 816.5Q2236 844 2268 856V503H1981Q1936 503 1897.0 486.0Q1858 469 1828.5 440.0Q1799 411 1782.0 372.0Q1765 333 1765 288V252Q1765 237 1754.5 226.5Q1744 216 1729 216Q1715 216 1704.0 227.0Q1693 238 1693 252V288Q1693 348 1715.5 400.0Q1738 452 1777.0 491.0Q1816 530 1868.5 552.5Q1921 575 1981 575H2197ZM1406 1150Q1406 1179 1426.5 1200.5Q1447 1222 1476 1222V140Q1443 195 1424.5 257.0Q1406 319 1406 385ZM867 791Q852 791 841.5 801.5Q831 812 831 827V1402Q831 1437 851.0 1464.5Q871 1492 903 1503V827Q903 812 892.5 801.5Q882 791 867 791ZM1801 791Q1786 791 1775.5 801.5Q1765 812 1765 827V1402Q1765 1437 1785.0 1464.5Q1805 1492 1837 1503V827Q1837 812 1826.5 801.5Q1816 791 1801 791ZM1550 1330Q1550 1365 1570.0 1392.5Q1590 1420 1622 1431V827Q1622 813 1611.0 802.0Q1600 791 1586 791Q1571 791 1560.5 801.5Q1550 812 1550 827ZM1047 1330Q1047 1364 1066.5 1392.0Q1086 1420 1118 1431V827Q1118 813 1107.5 802.0Q1097 791 1083 791Q1068 791 1057.5 801.5Q1047 812 1047 827ZM2017 791Q2002 791 1991.5 801.5Q1981 812 1981 827V1258Q1981 1293 2001.0 1320.5Q2021 1348 2053 1359V827Q2053 812 2042.5 801.5Q2032 791 2017 791ZM1262 1150Q1262 1180 1283.0 1201.0Q1304 1222 1334 1222V827Q1334 812 1323.5 801.5Q1313 791 1298 791Q1283 791 1272.5 801.5Q1262 812 1262 827Z" style="fill:#d48c00;stroke:none" transform="scale(1,-1) translate(0,-256)" /></svg>