<?xml version="1.0" encoding="utf-8" ?>
<svg baseProfile="full" height="256" version="1.1" width="256" xmlns="http://www.w3.org/2000/svg" xmlns:ev="http://www.w3.org/2001/xml-events" xmlns:xlink="http://www.w3.org/1999/xlink"><defs /><path d="M2118 1431Q2181 1419 2235.0 1386.5Q2289 1354 2328.0 1307.0Q2367 1260 2389.0 1201.0Q2411 1142 2411 1078V1006H2388Q2369 1006 2353.5 1009.5Q2338 1013 2324 1027L2197 1150L2053 1006L1909 1150L1781 1027Q1767 1014 1753.5 1009.5Q1740 1005 1722 1005L1693 1006V1078Q1693 1141 1713.5 1198.0Q1734 1255 1771.0 1301.5Q1808 1348 1859.0 1381.0Q1910 1414 1971 1428Q1960 1462 1940.0 1490.0Q1920 1518 1893.0 1538.5Q1866 1559 1833.5 1570.0Q1801 1581 1765 1581Q1736 1581 1714.5 1602.5Q1693 1624 1693 1653Q1693 1682 1714.5 1703.5Q1736 1725 1765 1725Q1830 1725 1888.5 1703.0Q1947 1681 1994.0 1642.0Q2041 1603 2073.5 1549.0Q2106 1495 2118 1431Z" style="fill:#13a10e;stroke:none" transform="scale(1,-1) translate(0,-256)" /></svg>