<?xml version="1.0" encoding="utf-8" ?>
<svg baseProfile="full" height="256" version="1.1" width="256" xmlns="http://www.w3.org/2000/svg" xmlns:ev="http://www.w3.org/2001/xml-events" xmlns:xlink="http://www.w3.org/1999/xlink"><defs /><path d="M2053 1367 2412 1006V755Q2412 611 2375.0 478.0Q2338 345 2270.0 229.0Q2202 113 2107.0 18.0Q2012 -77 1896.0 -145.0Q1780 -213 1647.0 -250.0Q1514 -287 1370 -287Q1215 -287 1074.5 -245.5Q934 -204 814.0 -127.0Q694 -50 596.5 60.0Q499 170 430 308Q421 325 411.0 348.0Q401 371 401 391Q401 419 411.5 444.0Q422 469 440.0 487.5Q458 506 482.5 516.5Q507 527 536 527Q568 527 589.0 516.5Q610 506 633 485Q643 476 650.0 469.0Q657 462 663.5 455.5Q670 449 677.5 442.0Q685 435 696 426Q784 357 877.5 322.5Q971 288 1083 288Q1209 288 1320.5 336.0Q1432 384 1514.5 467.0Q1597 550 1645.0 661.5Q1693 773 1693 899V1008Z" style="fill:#f03a17;stroke:none" transform="scale(1,-1) translate(0,-256)" /></svg>