<?xml version="1.0" encoding="utf-8" ?>
<svg baseProfile="full" height="256" version="1.1" width="256" xmlns="http://www.w3.org/2000/svg" xmlns:ev="http://www.w3.org/2001/xml-events" xmlns:xlink="http://www.w3.org/1999/xlink"><defs /><path d="M1404 65Q1374 65 1353.0 86.5Q1332 108 1332 138Q1332 162 1348.5 179.5Q1365 197 1388.0 210.5Q1411 224 1436.0 235.0Q1461 246 1479 257Q1588 326 1667.0 423.0Q1746 520 1791 641Q1799 663 1804.0 685.5Q1809 708 1817 730Q1825 755 1842.5 770.5Q1860 786 1887 786Q1917 786 1938.5 764.5Q1960 743 1960 713Q1960 708 1958 698Q1932 593 1884.0 498.0Q1836 403 1769.0 322.0Q1702 241 1617.0 177.0Q1532 113 1432 71Q1418 65 1404 65Z" style="fill:#ef6950;stroke:none" transform="scale(1,-1) translate(0,-256)" /></svg>