<?xml version="1.0" encoding="utf-8" ?>
<svg baseProfile="full" height="256" version="1.1" width="256" xmlns="http://www.w3.org/2000/svg" xmlns:ev="http://www.w3.org/2001/xml-events" xmlns:xlink="http://www.w3.org/1999/xlink"><defs /><path d="M1945 1438Q1930 1438 1919.5 1448.5Q1909 1459 1909 1474Q1909 1496 1917.5 1516.0Q1926 1536 1941.0 1550.0Q1956 1564 1975.5 1572.5Q1995 1581 2017 1581Q2031 1581 2042.0 1570.5Q2053 1560 2053 1546Q2053 1531 2042.5 1520.5Q2032 1510 2017 1510Q1997 1510 1991.0 1498.5Q1985 1487 1981.0 1473.5Q1977 1460 1971.0 1449.0Q1965 1438 1945 1438ZM1945 1150Q1930 1150 1919.5 1160.5Q1909 1171 1909 1186Q1909 1208 1917.5 1228.0Q1926 1248 1940.5 1262.5Q1955 1277 1974.5 1285.5Q1994 1294 2017 1294Q2032 1294 2042.5 1283.5Q2053 1273 2053 1258Q2053 1238 2041.5 1231.5Q2030 1225 2016.5 1222.0Q2003 1219 1992.0 1212.5Q1981 1206 1981 1186Q1981 1171 1970.5 1160.5Q1960 1150 1945 1150ZM1586 1078Q1571 1078 1560.5 1088.5Q1550 1099 1550 1114Q1550 1136 1558.5 1156.0Q1567 1176 1581.5 1190.5Q1596 1205 1615.5 1213.5Q1635 1222 1658 1222Q1672 1222 1682.5 1211.0Q1693 1200 1693 1186Q1693 1172 1682.5 1161.0Q1672 1150 1658 1150Q1638 1150 1632.0 1138.5Q1626 1127 1622.0 1113.5Q1618 1100 1612.0 1089.0Q1606 1078 1586 1078ZM1298 791Q1283 791 1272.5 801.5Q1262 812 1262 827Q1262 849 1270.5 868.5Q1279 888 1294.0 903.0Q1309 918 1328.5 926.5Q1348 935 1370 935Q1384 935 1395.0 924.0Q1406 913 1406 899Q1406 879 1394.5 872.5Q1383 866 1369.5 863.0Q1356 860 1345.0 853.5Q1334 847 1334 827Q1334 812 1323.5 801.5Q1313 791 1298 791ZM939 503Q924 503 913.5 513.5Q903 524 903 539Q903 561 911.5 581.0Q920 601 934.5 615.5Q949 630 968.5 638.5Q988 647 1011 647Q1025 647 1036.0 636.0Q1047 625 1047 611Q1047 597 1036.0 586.0Q1025 575 1011 575Q991 575 984.5 563.5Q978 552 975.0 538.5Q972 525 965.5 514.0Q959 503 939 503ZM1226 503Q1211 503 1200.5 513.5Q1190 524 1190 539Q1190 561 1198.5 580.5Q1207 600 1222.0 615.0Q1237 630 1256.5 638.5Q1276 647 1298 647Q1313 647 1323.5 636.5Q1334 626 1334 611Q1334 591 1322.5 584.5Q1311 578 1297.5 575.0Q1284 572 1273.0 565.5Q1262 559 1262 539Q1262 524 1251.5 513.5Q1241 503 1226 503ZM579 216Q565 216 554.0 227.0Q543 238 543 252Q543 274 551.5 293.5Q560 313 575.0 328.0Q590 343 609.5 351.5Q629 360 651 360Q665 360 676.0 349.0Q687 338 687 324Q687 309 676.5 298.5Q666 288 651 288Q631 288 624.5 276.5Q618 265 615.0 251.5Q612 238 605.5 227.0Q599 216 579 216ZM867 216Q852 216 841.5 226.5Q831 237 831 252Q831 274 839.5 293.5Q848 313 863.0 328.0Q878 343 897.5 351.5Q917 360 939 360Q953 360 964.0 349.0Q975 338 975 324Q975 304 963.5 297.5Q952 291 938.5 288.0Q925 285 914.0 278.5Q903 272 903 252Q903 237 892.5 226.5Q882 216 867 216ZM1586 791Q1571 791 1560.5 801.5Q1550 812 1550 827Q1550 849 1558.5 868.5Q1567 888 1582.0 903.0Q1597 918 1616.5 926.5Q1636 935 1658 935Q1672 935 1682.5 924.0Q1693 913 1693 899Q1693 885 1682.5 874.0Q1672 863 1658 863Q1638 863 1632.0 851.5Q1626 840 1622.0 826.5Q1618 813 1612.0 802.0Q1606 791 1586 791Z" style="fill:#16c60c;stroke:none" transform="scale(1,-1) translate(0,-256)" /></svg>