<?xml version="1.0" encoding="utf-8" ?>
<svg baseProfile="full" height="256" version="1.1" width="256" xmlns="http://www.w3.org/2000/svg" xmlns:ev="http://www.w3.org/2001/xml-events" xmlns:xlink="http://www.w3.org/1999/xlink"><defs /><path d="M831 -431Q712 -431 607.5 -385.5Q503 -340 425.0 -262.0Q347 -184 301.5 -79.5Q256 25 256 144Q256 284 315.0 399.5Q374 515 483 601Q525 635 568.5 667.0Q612 699 655 732Q773 823 887.0 915.5Q1001 1008 1113 1107Q1260 1237 1391.5 1375.5Q1523 1514 1649 1665Q1730 1762 1827.5 1815.5Q1925 1869 2053 1869Q2157 1869 2248.5 1829.5Q2340 1790 2408.5 1721.5Q2477 1653 2516.5 1561.5Q2556 1470 2556 1366Q2556 1322 2549.5 1283.5Q2543 1245 2530.5 1210.0Q2518 1175 2500.0 1140.5Q2482 1106 2459 1069Q2352 901 2236.5 746.5Q2121 592 1995.0 447.5Q1869 303 1731.5 167.5Q1594 32 1443 -98Q1380 -152 1315.5 -205.5Q1251 -259 1185 -309Q1106 -369 1018.5 -400.0Q931 -431 831 -431Z" style="fill:#000000;stroke:none" transform="scale(1,-1) translate(0,-256)" /></svg>