<?xml version="1.0" encoding="utf-8" ?>
<svg baseProfile="full" height="256" version="1.1" width="256" xmlns="http://www.w3.org/2000/svg" xmlns:ev="http://www.w3.org/2001/xml-events" xmlns:xlink="http://www.w3.org/1999/xlink"><defs /><path d="M400 138Q468 54 564.5 9.0Q661 -36 769 -36Q850 -36 925.0 -10.5Q1000 15 1063 66H1064Q1261 220 1442.5 381.5Q1624 543 1789.5 717.0Q1955 891 2106.0 1081.0Q2257 1271 2393 1482Q2403 1454 2407.5 1424.5Q2412 1395 2412 1366Q2412 1302 2393.0 1252.5Q2374 1203 2340 1150Q2207 942 2068.5 763.0Q1930 584 1778.5 421.5Q1627 259 1458.5 107.5Q1290 -44 1097 -196L1096 -195Q1039 -241 971.0 -264.0Q903 -287 831 -287Q743 -287 665.0 -253.5Q587 -220 528.5 -162.5Q470 -105 435.5 -27.5Q401 50 400 138Z" style="fill:#107c10;stroke:none" transform="scale(1,-1) translate(0,-256)" /></svg>