<?xml version="1.0" encoding="utf-8" ?>
<svg baseProfile="full" height="256" version="1.1" width="256" xmlns="http://www.w3.org/2000/svg" xmlns:ev="http://www.w3.org/2001/xml-events" xmlns:xlink="http://www.w3.org/1999/xlink"><defs /><path d="M1945 719Q1930 719 1919.5 729.5Q1909 740 1909 755Q1909 775 1920.0 781.5Q1931 788 1944.5 791.0Q1958 794 1969.5 800.5Q1981 807 1981 827Q1981 842 1991.5 852.5Q2002 863 2017 863Q2032 863 2042.5 852.5Q2053 842 2053 827Q2053 805 2044.5 785.5Q2036 766 2021.0 751.0Q2006 736 1986.5 727.5Q1967 719 1945 719ZM1658 431Q1644 431 1633.0 442.0Q1622 453 1622 467Q1622 487 1633.0 493.5Q1644 500 1657.5 503.0Q1671 506 1682.0 512.5Q1693 519 1693 539Q1693 553 1704.0 564.0Q1715 575 1729 575Q1744 575 1754.5 564.5Q1765 554 1765 539Q1765 517 1756.5 497.5Q1748 478 1733.5 463.0Q1719 448 1699.5 439.5Q1680 431 1658 431ZM1370 144Q1355 144 1344.5 154.5Q1334 165 1334 180Q1334 200 1345.0 206.5Q1356 213 1369.5 216.0Q1383 219 1394.5 225.5Q1406 232 1406 252Q1406 267 1416.5 277.5Q1427 288 1442 288Q1457 288 1467.5 277.5Q1478 267 1478 252Q1478 230 1469.5 210.5Q1461 191 1446.0 176.0Q1431 161 1411.5 152.5Q1392 144 1370 144ZM1083 -144Q1069 -144 1058.0 -133.0Q1047 -122 1047 -108Q1047 -88 1058.0 -81.5Q1069 -75 1082.5 -72.0Q1096 -69 1107.0 -62.5Q1118 -56 1118 -36Q1118 -22 1129.0 -11.0Q1140 0 1154 0Q1169 0 1179.5 -10.5Q1190 -21 1190 -36Q1190 -58 1181.5 -77.5Q1173 -97 1158.5 -112.0Q1144 -127 1124.5 -135.5Q1105 -144 1083 -144ZM2197 1114Q2197 1129 2207.5 1139.5Q2218 1150 2233 1150Q2247 1150 2257.5 1139.0Q2268 1128 2268 1114Q2268 1100 2257.5 1089.0Q2247 1078 2233 1078Q2218 1078 2207.5 1088.5Q2197 1099 2197 1114Z" style="fill:#13a10e;stroke:none" transform="scale(1,-1) translate(0,-256)" /></svg>