<?xml version="1.0" encoding="utf-8" ?>
<svg baseProfile="full" height="256" version="1.1" width="256" xmlns="http://www.w3.org/2000/svg" xmlns:ev="http://www.w3.org/2001/xml-events" xmlns:xlink="http://www.w3.org/1999/xlink"><defs /><path d="M2393 1482 2370 1280 1460 180 791 -169 443 38 400 138V144Q400 249 444.0 335.5Q488 422 569 486Q620 527 672.5 565.5Q725 604 776 644Q876 722 972.5 800.0Q1069 878 1163 960Q1328 1104 1476.5 1258.0Q1625 1412 1765 1580Q1823 1649 1891.5 1687.0Q1960 1725 2053 1725Q2110 1725 2163.5 1707.5Q2217 1690 2261.5 1658.0Q2306 1626 2340.0 1581.0Q2374 1536 2393 1482Z" style="fill:#13a10e;stroke:none" transform="scale(1,-1) translate(0,-256)" /></svg>