<?xml version="1.0" encoding="utf-8" ?>
<svg baseProfile="full" height="256" version="1.1" width="256" xmlns="http://www.w3.org/2000/svg" xmlns:ev="http://www.w3.org/2001/xml-events" xmlns:xlink="http://www.w3.org/1999/xlink"><defs /><path d="M1481 1797Q1584 1797 1675.0 1758.0Q1766 1719 1834.0 1651.0Q1902 1583 1941.5 1492.0Q1981 1401 1981 1298Q1981 1199 1943.0 1106.5Q1905 1014 1835 944L1232 341Q1287 323 1332.0 289.0Q1377 255 1409.5 210.0Q1442 165 1460.0 111.0Q1478 57 1478 0Q1478 -75 1449.5 -140.0Q1421 -205 1372.5 -254.0Q1324 -303 1258.5 -331.0Q1193 -359 1118 -359Q1043 -359 978.0 -331.0Q913 -303 864.0 -254.0Q815 -205 787.0 -140.0Q759 -75 759 0Q759 58 776.5 112.0Q794 166 826.5 211.0Q859 256 904.0 289.5Q949 323 1005 341L402 944Q332 1014 294.0 1106.5Q256 1199 256 1298Q256 1401 295.5 1492.0Q335 1583 402.5 1650.5Q470 1718 561.0 1757.5Q652 1797 755 1797Q804 1797 854.5 1786.5Q905 1776 953.0 1756.0Q1001 1736 1043.5 1707.0Q1086 1678 1118 1641Q1191 1716 1283.5 1756.5Q1376 1797 1481 1797Z" style="fill:#000000;stroke:none" transform="scale(1,-1) translate(0,-256)" /></svg>