<?xml version="1.0" encoding="utf-8" ?>
<svg baseProfile="full" height="256" version="1.1" width="256" xmlns="http://www.w3.org/2000/svg" xmlns:ev="http://www.w3.org/2001/xml-events" xmlns:xlink="http://www.w3.org/1999/xlink"><defs /><path d="M1481 1653Q1555 1653 1620.0 1625.0Q1685 1597 1733.0 1549.0Q1781 1501 1809.0 1436.0Q1837 1371 1837 1297Q1837 1225 1810.5 1161.0Q1784 1097 1733 1046L1118 431L504 1046Q453 1097 426.5 1161.0Q400 1225 400 1297Q400 1370 428.0 1435.0Q456 1500 504.0 1548.5Q552 1597 616.5 1625.0Q681 1653 755 1653Q813 1653 859.5 1638.0Q906 1623 945.5 1597.0Q985 1571 1020.0 1537.0Q1055 1503 1091 1466L1118 1438Q1160 1479 1198.0 1518.0Q1236 1557 1277.0 1587.0Q1318 1617 1367.0 1635.0Q1416 1653 1481 1653ZM1334 0Q1334 -45 1317.0 -84.0Q1300 -123 1270.5 -152.0Q1241 -181 1202.0 -198.0Q1163 -215 1118 -215Q1073 -215 1034.0 -198.0Q995 -181 966.0 -152.0Q937 -123 920.0 -84.0Q903 -45 903 0Q903 45 920.0 84.0Q937 123 966.0 152.5Q995 182 1034.0 199.0Q1073 216 1118 216Q1163 216 1202.0 199.0Q1241 182 1270.5 152.5Q1300 123 1317.0 84.0Q1334 45 1334 0Z" style="fill:#e81224;stroke:none" transform="scale(1,-1) translate(0,-256)" /></svg>