<?xml version="1.0" encoding="utf-8" ?>
<svg baseProfile="full" height="256" version="1.1" width="256" xmlns="http://www.w3.org/2000/svg" xmlns:ev="http://www.w3.org/2001/xml-events" xmlns:xlink="http://www.w3.org/1999/xlink"><defs /><path d="M939 935Q961 935 980.5 926.5Q1000 918 1015.0 903.0Q1030 888 1038.5 868.5Q1047 849 1047 827V683Q1047 661 1038.5 641.5Q1030 622 1015.0 607.0Q1000 592 980.5 583.5Q961 575 939 575Q917 575 897.5 583.5Q878 592 863.0 607.0Q848 622 839.5 641.5Q831 661 831 683V827Q831 849 839.5 868.5Q848 888 863.0 903.0Q878 918 897.5 926.5Q917 935 939 935ZM1729 935Q1751 935 1770.5 926.5Q1790 918 1805.0 903.0Q1820 888 1828.5 868.5Q1837 849 1837 827V683Q1837 661 1828.5 641.5Q1820 622 1805.0 607.0Q1790 592 1770.5 583.5Q1751 575 1729 575Q1707 575 1687.5 583.5Q1668 592 1653.5 607.0Q1639 622 1630.5 641.5Q1622 661 1622 683V827Q1622 849 1630.5 868.5Q1639 888 1653.5 903.0Q1668 918 1687.5 926.5Q1707 935 1729 935Z" style="fill:#000000;stroke:none" transform="scale(1,-1) translate(0,-256)" /></svg>