<?xml version="1.0" encoding="utf-8" ?>
<svg baseProfile="full" height="256" version="1.1" width="256" xmlns="http://www.w3.org/2000/svg" xmlns:ev="http://www.w3.org/2001/xml-events" xmlns:xlink="http://www.w3.org/1999/xlink"><defs /><path d="M2197 360Q2197 311 2181.0 266.0Q2165 221 2136.0 184.0Q2107 147 2067.0 120.5Q2027 94 1980 82Q1980 20 1959.0 -34.0Q1938 -88 1900.0 -128.5Q1862 -169 1809.0 -192.0Q1756 -215 1693 -215Q1658 -215 1623.0 -205.5Q1588 -196 1557 -179Q1515 -230 1457.5 -258.5Q1400 -287 1334 -287Q1268 -287 1210.5 -258.5Q1153 -230 1111 -179Q1080 -196 1045.0 -205.5Q1010 -215 975 -215Q916 -215 864.0 -193.0Q812 -171 773.0 -132.5Q734 -94 711.0 -42.5Q688 9 688 68V82Q641 94 601.0 120.5Q561 147 532.5 184.0Q504 221 488.0 266.0Q472 311 472 360Q472 398 483.0 433.5Q494 469 507.5 503.5Q521 538 532.0 573.5Q543 609 543 647V1015H687V647Q687 602 704.0 563.0Q721 524 750.5 494.5Q780 465 819.0 448.0Q858 431 903 431H1765Q1810 431 1849.0 448.0Q1888 465 1917.5 494.5Q1947 524 1964.0 563.0Q1981 602 1981 647V1015H2125V647Q2125 609 2136.0 573.5Q2147 538 2160.5 503.5Q2174 469 2185.5 433.5Q2197 398 2197 360Z" style="fill:#f2f2f2;stroke:none" transform="scale(1,-1) translate(0,-256)" /></svg>