<?xml version="1.0" encoding="utf-8" ?>
<svg baseProfile="full" height="256" version="1.1" width="256" xmlns="http://www.w3.org/2000/svg" xmlns:ev="http://www.w3.org/2001/xml-events" xmlns:xlink="http://www.w3.org/1999/xlink"><defs /><path d="M1334 360Q1304 360 1278.0 371.0Q1252 382 1232.5 401.5Q1213 421 1201.5 447.0Q1190 473 1190 503H1478Q1478 473 1466.5 447.0Q1455 421 1435.5 401.5Q1416 382 1390.0 371.0Q1364 360 1334 360ZM1550 288Q1580 288 1601.0 266.0Q1622 244 1622 215Q1622 191 1606.0 171.0Q1590 151 1564.0 135.0Q1538 119 1506.0 107.0Q1474 95 1442.0 87.5Q1410 80 1381.5 76.0Q1353 72 1334 72Q1315 72 1286.5 76.0Q1258 80 1226.0 87.5Q1194 95 1162.0 107.0Q1130 119 1104.0 135.0Q1078 151 1062.0 171.0Q1046 191 1046 215Q1046 244 1067.0 266.0Q1088 288 1118 288Q1133 288 1154.0 276.5Q1175 265 1202.5 251.5Q1230 238 1263.0 226.5Q1296 215 1334 215Q1372 215 1405.0 226.5Q1438 238 1465.5 251.5Q1493 265 1514.0 276.5Q1535 288 1550 288Z" style="fill:#f7894a;stroke:none" transform="scale(1,-1) translate(0,-256)" /></svg>