<?xml version="1.0" encoding="utf-8" ?>
<svg baseProfile="full" height="256" version="1.1" width="256" xmlns="http://www.w3.org/2000/svg" xmlns:ev="http://www.w3.org/2001/xml-events" xmlns:xlink="http://www.w3.org/1999/xlink"><defs /><path d="M2161 1150Q2183 1150 2203.0 1141.5Q2223 1133 2237.0 1118.0Q2251 1103 2259.5 1083.5Q2268 1064 2268 1042Q2268 1020 2259.5 1000.5Q2251 981 2236.5 966.5Q2222 952 2202.5 943.5Q2183 935 2161 935H508Q486 935 466.5 943.5Q447 952 432.0 966.0Q417 980 408.5 999.5Q400 1019 400 1042Q400 1064 408.5 1084.0Q417 1104 431.5 1118.5Q446 1133 465.5 1141.5Q485 1150 508 1150ZM2268 1725Q2298 1725 2324.0 1713.5Q2350 1702 2369.5 1682.5Q2389 1663 2400.5 1637.0Q2412 1611 2412 1581Q2412 1551 2400.5 1525.0Q2389 1499 2369.5 1479.5Q2350 1460 2324.0 1449.0Q2298 1438 2268 1438Q2238 1438 2212.0 1449.0Q2186 1460 2166.5 1479.5Q2147 1499 2136.0 1525.0Q2125 1551 2125 1581Q2125 1611 2136.0 1637.0Q2147 1663 2166.5 1682.5Q2186 1702 2212.0 1713.5Q2238 1725 2268 1725Z" style="fill:#ffffff;stroke:none" transform="scale(1,-1) translate(0,-256)" /></svg>