<?xml version="1.0" encoding="utf-8" ?>
<svg baseProfile="full" height="256" version="1.1" width="256" xmlns="http://www.w3.org/2000/svg" xmlns:ev="http://www.w3.org/2001/xml-events" xmlns:xlink="http://www.w3.org/1999/xlink"><defs /><path d="M1329 1025Q1525 1025 1718.0 999.5Q1911 974 2104 944L2161 935Q2209 927 2238.5 903.0Q2268 879 2268 827V611Q2268 571 2245.5 544.0Q2223 517 2186 506Q2180 504 2173.5 504.5Q2167 505 2161 503L1925 432Q1894 398 1852.5 379.5Q1811 361 1765 361H903Q857 361 815.5 379.5Q774 398 743 432L508 503Q502 505 495.5 504.5Q489 504 483 506Q445 517 422.5 543.5Q400 570 400 611V827Q400 853 408.0 872.0Q416 891 430.5 903.5Q445 916 464.5 923.5Q484 931 508 935L576 946Q763 976 950.5 1000.5Q1138 1025 1329 1025Z" style="fill:#ffc83d;stroke:none" transform="scale(1,-1) translate(0,-256)" /></svg>