<?xml version="1.0" encoding="utf-8" ?>
<svg baseProfile="full" height="256" version="1.1" width="256" xmlns="http://www.w3.org/2000/svg" xmlns:ev="http://www.w3.org/2001/xml-events" xmlns:xlink="http://www.w3.org/1999/xlink"><defs /><path d="M1599 1590Q1639 1590 1696.0 1587.5Q1753 1585 1811.5 1578.0Q1870 1571 1923.5 1557.5Q1977 1544 2011 1523Q2049 1499 2082.5 1466.0Q2116 1433 2146 1400Q2277 1255 2344.5 1085.0Q2412 915 2412 719Q2412 580 2376.0 451.5Q2340 323 2274.5 211.0Q2209 99 2117.5 7.5Q2026 -84 1914.0 -149.5Q1802 -215 1673.5 -251.0Q1545 -287 1406 -287Q1251 -287 1107.0 -242.0Q963 -197 840.5 -114.0Q718 -31 623.0 86.0Q528 203 470 347Q461 370 450.0 402.5Q439 435 429.5 470.0Q420 505 413.5 538.0Q407 571 407 595Q407 624 415.5 652.0Q424 680 432 707Q458 793 490.5 880.0Q523 967 565.0 1049.5Q607 1132 660.5 1206.5Q714 1281 782 1343L904 1295L897 1142L1097 1094L982 1170L997 1354L886 1419Q964 1466 1051.5 1498.5Q1139 1531 1230.5 1551.5Q1322 1572 1415.5 1581.0Q1509 1590 1599 1590Z" style="fill:#ffc83d;stroke:none" transform="scale(1,-1) translate(0,-256)" /></svg>