<?xml version="1.0" encoding="utf-8" ?>
<svg baseProfile="full" height="256" version="1.1" width="256" xmlns="http://www.w3.org/2000/svg" xmlns:ev="http://www.w3.org/2001/xml-events" xmlns:xlink="http://www.w3.org/1999/xlink"><defs /><path d="M1909 -215Q1909 -245 1888.0 -266.0Q1867 -287 1837 -287H1047Q1017 -287 996.0 -266.0Q975 -245 975 -215Q975 -184 990.5 -168.5Q1006 -153 1029.0 -148.0Q1052 -143 1078.0 -143.5Q1104 -144 1125 -144Q1136 -112 1163.5 -92.0Q1191 -72 1226 -72Q1239 -72 1251.5 -74.5Q1264 -77 1275 -84Q1293 -45 1328.0 -22.5Q1363 0 1406 0Q1455 0 1492.5 -28.5Q1530 -57 1544 -104Q1576 -72 1622 -72Q1657 -72 1684.5 -92.0Q1712 -112 1723 -144H1837Q1866 -144 1887.5 -165.0Q1909 -186 1909 -215Z" style="fill:#ffffff;stroke:none" transform="scale(1,-1) translate(0,-256)" /></svg>