<?xml version="1.0" encoding="utf-8" ?>
<svg baseProfile="full" height="256" version="1.1" width="256" xmlns="http://www.w3.org/2000/svg" xmlns:ev="http://www.w3.org/2001/xml-events" xmlns:xlink="http://www.w3.org/1999/xlink"><defs /><path d="M1298 1294Q1328 1294 1349.0 1273.0Q1370 1252 1370 1222Q1370 1192 1349.0 1171.0Q1328 1150 1298 1150Q1257 1150 1195.5 1148.0Q1134 1146 1063.0 1141.5Q992 1137 917.0 1129.0Q842 1121 773.5 1109.0Q705 1097 648.5 1080.5Q592 1064 558 1042Q606 1019 655.0 1005.0Q704 991 756 980Q801 934 848.5 891.5Q896 849 946 807Q913 811 860.0 817.5Q807 824 746.5 835.0Q686 846 624.5 863.0Q563 880 513.0 905.0Q463 930 431.5 963.5Q400 997 400 1042Q400 1087 432.5 1121.5Q465 1156 519.0 1182.5Q573 1209 644.0 1227.5Q715 1246 792.0 1258.0Q869 1270 947.0 1277.5Q1025 1285 1093.5 1288.5Q1162 1292 1215.5 1293.0Q1269 1294 1298 1294ZM2161 611Q2161 572 2140.5 542.5Q2120 513 2089.0 490.5Q2058 468 2021.5 452.5Q1985 437 1954 427Q1952 464 1945.5 499.5Q1939 535 1928 570Q1974 585 2011 611Q2003 619 1993.0 624.0Q1983 629 1973 634Q1920 659 1849.5 675.5Q1779 692 1704.0 701.5Q1629 711 1555.5 715.0Q1482 719 1424 719Q1394 719 1373.0 740.0Q1352 761 1352 791Q1352 821 1373.0 842.0Q1394 863 1424 863Q1452 863 1498.0 861.5Q1544 860 1601.0 856.0Q1658 852 1721.5 844.0Q1785 836 1847.5 823.0Q1910 810 1966.5 791.5Q2023 773 2066.5 747.5Q2110 722 2135.5 688.0Q2161 654 2161 611ZM1658 455Q1687 455 1708.0 433.5Q1729 412 1729 383Q1729 354 1708.0 332.5Q1687 311 1658 311Q1621 311 1572.5 309.0Q1524 307 1474.5 301.5Q1425 296 1378.0 286.5Q1331 277 1297 263Q1320 255 1343.5 249.5Q1367 244 1390 238Q1390 202 1386.0 166.0Q1382 130 1375 95Q1343 101 1298.5 112.0Q1254 123 1214.0 142.5Q1174 162 1146.0 191.5Q1118 221 1118 263Q1118 308 1150.0 339.5Q1182 371 1232.0 392.5Q1282 414 1344.0 426.5Q1406 439 1466.0 445.0Q1526 451 1577.0 453.0Q1628 455 1658 455Z" style="fill:#757575;stroke:none" transform="scale(1,-1) translate(0,-256)" /></svg>