<?xml version="1.0" encoding="utf-8" ?>
<svg baseProfile="full" height="256" version="1.1" width="256" xmlns="http://www.w3.org/2000/svg" xmlns:ev="http://www.w3.org/2001/xml-events" xmlns:xlink="http://www.w3.org/1999/xlink"><defs /><path d="M1047 -431Q1002 -431 963.0 -414.0Q924 -397 894.5 -367.5Q865 -338 848.0 -299.0Q831 -260 831 -215Q831 -170 848.5 -130.5Q866 -91 896.0 -62.0Q926 -33 965.5 -16.5Q1005 0 1050 0Q1073 23 1104 40Q1044 79 1009.5 135.0Q975 191 975 263Q975 336 1009.5 392.0Q1044 448 1104 487Q1053 536 998.5 580.0Q944 624 889 669Q835 675 767.0 685.0Q699 695 629.0 712.5Q559 730 491.5 756.5Q424 783 372.0 822.5Q320 862 288.0 916.0Q256 970 256 1042Q256 1128 299.5 1189.0Q343 1250 415 1292Q400 1364 400 1438Q400 1504 429.5 1557.5Q459 1611 507.0 1653.0Q555 1695 617.0 1727.0Q679 1759 744.0 1781.5Q809 1804 873.0 1818.5Q937 1833 988 1842Q1159 1869 1334 1869Q1509 1869 1680 1842Q1731 1833 1795.0 1818.5Q1859 1804 1924.0 1781.5Q1989 1759 2051.0 1727.0Q2113 1695 2161.5 1653.0Q2210 1611 2239.0 1557.5Q2268 1504 2268 1438Q2268 1383 2255.0 1336.0Q2242 1289 2220.0 1246.0Q2198 1203 2168.5 1163.0Q2139 1123 2106 1083Q2077 1048 2048.5 1011.5Q2020 975 2003 931Q2060 913 2114.5 885.5Q2169 858 2211.0 819.5Q2253 781 2278.5 729.5Q2304 678 2304 611Q2304 560 2288.0 517.0Q2272 474 2244.0 439.0Q2216 404 2178.0 376.5Q2140 349 2096 328Q2085 229 2046.5 139.0Q2008 49 1950 -32Q1998 -61 2025.5 -109.5Q2053 -158 2053 -215Q2053 -260 2036.0 -299.0Q2019 -338 1989.5 -367.5Q1960 -397 1921.0 -414.0Q1882 -431 1837 -431Z" style="fill:#000000;stroke:none" transform="scale(1,-1) translate(0,-256)" /></svg>