<?xml version="1.0" encoding="utf-8" ?>
<svg baseProfile="full" height="256" version="1.1" width="256" xmlns="http://www.w3.org/2000/svg" xmlns:ev="http://www.w3.org/2001/xml-events" xmlns:xlink="http://www.w3.org/1999/xlink"><defs /><path d="M1842 842Q1842 815 1847.5 789.0Q1853 763 1862.0 738.5Q1871 714 1882.0 689.5Q1893 665 1903 640Q1910 623 1915.0 605.0Q1920 587 1928 570Q1932 562 1939.5 553.5Q1947 545 1954.5 537.0Q1962 529 1967.5 520.5Q1973 512 1973 503Q1973 486 1964.5 468.5Q1956 451 1954 431Q1953 421 1954.0 410.5Q1955 400 1955 390Q1955 300 1922.5 216.5Q1890 133 1837.5 58.5Q1785 -16 1719.0 -80.0Q1653 -144 1585 -195H1273Q1284 -172 1301.5 -131.5Q1319 -91 1335.5 -47.0Q1352 -3 1364.0 37.5Q1376 78 1376 101Q1376 111 1372.0 120.5Q1368 130 1363.5 139.5Q1359 149 1355.5 159.0Q1352 169 1352 181Q1352 188 1358.0 194.0Q1364 200 1371.5 207.5Q1379 215 1385.0 225.0Q1391 235 1391 249Q1391 318 1362.5 380.0Q1334 442 1290.5 496.5Q1247 551 1194.5 598.5Q1142 646 1093 687Q1056 717 1020.0 747.5Q984 778 946 807Q932 818 900.0 829.5Q868 841 834.5 854.0Q801 867 775.5 881.0Q750 895 750 911Q750 925 757.0 936.0Q764 947 764 961Q764 972 756 980Q727 1014 697.0 1049.5Q667 1085 641.0 1123.0Q615 1161 594.5 1202.0Q574 1243 564 1288V1293Q564 1299 571.5 1309.5Q579 1320 588.5 1330.5Q598 1341 607.5 1350.0Q617 1359 621 1363Q690 1422 776.5 1469.0Q863 1516 957.0 1549.0Q1051 1582 1147.5 1599.5Q1244 1617 1334 1617Q1421 1617 1515.0 1601.0Q1609 1585 1700.5 1555.0Q1792 1525 1876.0 1481.5Q1960 1438 2029 1383Q2034 1378 2044.5 1369.0Q2055 1360 2065.5 1349.5Q2076 1339 2083.5 1328.0Q2091 1317 2091 1310Q2091 1309 2090.5 1308.0Q2090 1307 2090 1306Q2075 1274 2052.0 1245.0Q2029 1216 2007 1189Q1973 1148 1943.0 1110.0Q1913 1072 1890.5 1031.0Q1868 990 1855.0 944.0Q1842 898 1842 842Z" style="fill:#cccccc;stroke:none" transform="scale(1,-1) translate(0,-256)" /></svg>