<?xml version="1.0" encoding="utf-8" ?>
<svg baseProfile="full" height="256" version="1.1" width="256" xmlns="http://www.w3.org/2000/svg" xmlns:ev="http://www.w3.org/2001/xml-events" xmlns:xlink="http://www.w3.org/1999/xlink"><defs /><path d="M2090 1306Q2055 1347 1999.5 1378.5Q1944 1410 1876.0 1432.5Q1808 1455 1733.0 1470.0Q1658 1485 1585.0 1494.0Q1512 1503 1446.0 1506.5Q1380 1510 1330 1510Q1280 1510 1212.5 1506.0Q1145 1502 1069.5 1492.0Q994 1482 916.5 1466.0Q839 1450 770.5 1425.0Q702 1400 647.5 1366.5Q593 1333 564 1288Q543 1361 543 1438Q543 1473 560.5 1498.0Q578 1523 602 1546Q640 1582 694.0 1609.5Q748 1637 811.0 1657.0Q874 1677 942.5 1690.0Q1011 1703 1078.0 1711.0Q1145 1719 1207.0 1722.5Q1269 1726 1319 1726Q1364 1726 1435.0 1722.0Q1506 1718 1587.5 1707.5Q1669 1697 1754.0 1679.5Q1839 1662 1912.0 1635.0Q1985 1608 2039.5 1570.0Q2094 1532 2115 1482Q2125 1459 2125 1431Q2125 1399 2115.0 1366.5Q2105 1334 2090 1306Z" style="fill:#a6a6a6;stroke:none" transform="scale(1,-1) translate(0,-256)" /></svg>