<?xml version="1.0" encoding="utf-8" ?>
<svg baseProfile="full" height="256" version="1.1" width="256" xmlns="http://www.w3.org/2000/svg" xmlns:ev="http://www.w3.org/2001/xml-events" xmlns:xlink="http://www.w3.org/1999/xlink"><defs /><path d="M2340 431Q2289 500 2213.5 537.5Q2138 575 2053 575H759Q674 575 598.5 537.5Q523 500 472 431Q472 505 500.0 570.5Q528 636 577.0 685.0Q626 734 691.0 762.5Q756 791 831 791H1981Q2056 791 2121.0 762.5Q2186 734 2235.0 685.0Q2284 636 2312.0 570.5Q2340 505 2340 431ZM2053 503Q2112 503 2164.5 480.5Q2217 458 2256.0 419.0Q2295 380 2317.5 327.5Q2340 275 2340 216Q2340 145 2326.0 76.5Q2312 8 2279.0 -45.5Q2246 -99 2190.5 -131.5Q2135 -164 2053 -164H1799Q1754 -164 1719.5 -140.5Q1685 -117 1667 -77L1604 66Q1578 126 1525.0 161.0Q1472 196 1406 196Q1340 196 1287.0 161.0Q1234 126 1208 66Q1192 30 1177.0 -6.0Q1162 -42 1145 -77Q1127 -117 1092.0 -140.5Q1057 -164 1013 -164H759Q676 -164 621.0 -131.5Q566 -99 533.0 -45.5Q500 8 486.0 76.5Q472 145 472 216Q472 275 494.5 327.5Q517 380 556.0 419.0Q595 458 647.5 480.5Q700 503 759 503Z" style="fill:#69eaff;stroke:none" transform="scale(1,-1) translate(0,-256)" /></svg>