<?xml version="1.0" encoding="utf-8" ?>
<svg baseProfile="full" height="256" version="1.1" width="256" xmlns="http://www.w3.org/2000/svg" xmlns:ev="http://www.w3.org/2001/xml-events" xmlns:xlink="http://www.w3.org/1999/xlink"><defs /><path d="M2412 431V72Q2412 -2 2383.5 -67.5Q2355 -133 2306.5 -182.0Q2258 -231 2192.5 -259.0Q2127 -287 2053 -287H1799Q1733 -287 1680.5 -252.5Q1628 -218 1601 -158L1538 -15Q1521 25 1485.5 48.5Q1450 72 1406 72Q1362 72 1326.5 48.5Q1291 25 1273 -15Q1257 -50 1242.0 -86.0Q1227 -122 1211 -158Q1185 -218 1132.0 -252.5Q1079 -287 1013 -287H759Q685 -287 619.5 -259.0Q554 -231 505.0 -182.0Q456 -133 428.0 -67.5Q400 -2 400 72V431Q400 520 433.5 599.0Q467 678 525.5 736.5Q584 795 662.5 829.0Q741 863 831 863H1981Q2071 863 2149.5 829.0Q2228 795 2286.5 736.5Q2345 678 2378.5 599.0Q2412 520 2412 431Z" style="fill:#0078d7;stroke:none" transform="scale(1,-1) translate(0,-256)" /></svg>