<?xml version="1.0" encoding="utf-8" ?>
<svg baseProfile="full" height="256" version="1.1" width="256" xmlns="http://www.w3.org/2000/svg" xmlns:ev="http://www.w3.org/2001/xml-events" xmlns:xlink="http://www.w3.org/1999/xlink"><defs /><path d="M1799 -431Q1745 -431 1695.0 -416.0Q1645 -401 1602.0 -373.0Q1559 -345 1525.0 -305.0Q1491 -265 1469 -216Q1452 -181 1437.5 -144.5Q1423 -108 1407 -72Q1391 -108 1375.5 -144.0Q1360 -180 1343 -215Q1320 -264 1286.0 -304.0Q1252 -344 1210.0 -372.0Q1168 -400 1118.0 -415.5Q1068 -431 1013 -431H759Q655 -431 563.5 -391.5Q472 -352 403.5 -283.5Q335 -215 295.5 -123.5Q256 -32 256 72V791Q256 890 283.0 979.0Q310 1068 357.5 1146.0Q405 1224 470.0 1291.0Q535 1358 611.5 1412.5Q688 1467 772.5 1509.0Q857 1551 944 1580Q1056 1617 1172.0 1635.0Q1288 1653 1406 1653Q1524 1653 1640.0 1635.0Q1756 1617 1868 1580Q1955 1551 2039.5 1509.0Q2124 1467 2200.5 1412.5Q2277 1358 2342.0 1291.0Q2407 1224 2454.5 1146.0Q2502 1068 2529.0 979.0Q2556 890 2556 791V72Q2556 -32 2516.5 -123.5Q2477 -215 2408.5 -283.5Q2340 -352 2248.5 -391.5Q2157 -431 2053 -431ZM2027 1005Q1970 1063 1895.5 1104.0Q1821 1145 1738.5 1171.0Q1656 1197 1570.5 1209.5Q1485 1222 1406 1222Q1327 1222 1241.5 1209.5Q1156 1197 1073.5 1171.0Q991 1145 916.5 1104.0Q842 1063 785 1005Q799 1007 813.5 1007.0Q828 1007 842 1007Q864 1007 886.0 1006.5Q908 1006 929 1006H1981Q1992 1006 2004.0 1006.0Q2016 1006 2027 1005Z" style="fill:#000000;stroke:none" transform="scale(1,-1) translate(0,-256)" /></svg>