<?xml version="1.0" encoding="utf-8" ?>
<svg baseProfile="full" height="256" version="1.1" width="256" xmlns="http://www.w3.org/2000/svg" xmlns:ev="http://www.w3.org/2001/xml-events" xmlns:xlink="http://www.w3.org/1999/xlink"><defs /><path d="M2340 216V72Q2340 12 2317.5 -40.0Q2295 -92 2256.0 -131.0Q2217 -170 2165.0 -192.5Q2113 -215 2053 -215H1798Q1754 -215 1719.0 -191.5Q1684 -168 1667 -129L1604 14Q1578 74 1525.0 109.0Q1472 144 1406 144Q1340 144 1287.0 109.0Q1234 74 1208 14L1145 -129Q1128 -168 1093.0 -191.5Q1058 -215 1014 -215H759Q699 -215 647.0 -192.5Q595 -170 556.0 -131.0Q517 -92 494.5 -40.0Q472 12 472 72V216Q472 156 494.5 103.5Q517 51 556.0 12.0Q595 -27 647.0 -49.5Q699 -72 759 -72H1014Q1058 -72 1093.0 -48.0Q1128 -24 1145 15L1208 158Q1234 218 1287.0 253.0Q1340 288 1406 288Q1472 288 1525.0 253.0Q1578 218 1604 158L1667 15Q1684 -24 1719.0 -48.0Q1754 -72 1798 -72H2053Q2113 -72 2165.0 -49.5Q2217 -27 2256.0 12.0Q2295 51 2317.5 103.5Q2340 156 2340 216Z" style="fill:#00bcf2;stroke:none" transform="scale(1,-1) translate(0,-256)" /></svg>