<?xml version="1.0" encoding="utf-8" ?>
<svg baseProfile="full" height="256" version="1.1" width="256" xmlns="http://www.w3.org/2000/svg" xmlns:ev="http://www.w3.org/2001/xml-events" xmlns:xlink="http://www.w3.org/1999/xlink"><defs /><path d="M1405 1266Q1430 1048 1453.0 832.0Q1476 616 1499 398L1535 68Q1539 35 1544.5 -2.0Q1550 -39 1550 -72Q1550 -104 1530.5 -129.5Q1511 -155 1479.5 -176.0Q1448 -197 1408.5 -213.0Q1369 -229 1330.0 -240.5Q1291 -252 1256.0 -259.0Q1221 -266 1199 -270Q1143 -279 1087.5 -283.0Q1032 -287 975 -287Q918 -287 862.5 -283.0Q807 -279 751 -270Q728 -267 693.5 -259.5Q659 -252 620.0 -240.5Q581 -229 541.5 -213.0Q502 -197 470.5 -176.0Q439 -155 419.5 -129.0Q400 -103 400 -72Q400 -39 406.0 3.0Q412 45 416 78L445 351Q470 581 494.0 808.5Q518 1036 544 1266H644V1194H608L472 -72Q472 -81 480.0 -89.5Q488 -98 493 -103Q532 -136 594.0 -157.5Q656 -179 724.5 -192.0Q793 -205 859.5 -210.0Q926 -215 975 -215Q1023 -215 1090.0 -210.0Q1157 -205 1225.5 -192.0Q1294 -179 1356.0 -157.0Q1418 -135 1457 -102Q1462 -98 1470.0 -88.5Q1478 -79 1478 -71L1461 87Q1455 146 1445.0 237.5Q1435 329 1420.5 462.5Q1406 596 1386.0 776.5Q1366 957 1341 1194H1310V1266Z" style="fill:#cccccc;stroke:none" transform="scale(1,-1) translate(0,-256)" /></svg>