<?xml version="1.0" encoding="utf-8" ?>
<svg baseProfile="full" height="256" version="1.1" width="256" xmlns="http://www.w3.org/2000/svg" xmlns:ev="http://www.w3.org/2001/xml-events" xmlns:xlink="http://www.w3.org/1999/xlink"><defs /><path d="M1388 791Q1388 761 1363.0 738.5Q1338 716 1298.5 700.0Q1259 684 1210.5 674.0Q1162 664 1116.0 658.0Q1070 652 1032.0 649.5Q994 647 975 647Q956 647 917.5 649.5Q879 652 833.0 657.5Q787 663 739.0 673.5Q691 684 651.5 700.0Q612 716 586.5 738.5Q561 761 561 791Q561 823 592.0 846.5Q623 870 665.0 886.0Q707 902 749.0 911.5Q791 921 814 924Q854 929 894.0 932.0Q934 935 975 935Q1018 935 1060.5 932.0Q1103 929 1146 922Q1168 919 1208.5 909.5Q1249 900 1289.0 884.0Q1329 868 1358.5 845.0Q1388 822 1388 791Z" style="fill:#ffffff;stroke:none" transform="scale(1,-1) translate(0,-256)" /></svg>