<?xml version="1.0" encoding="utf-8" ?>
<svg baseProfile="full" height="256" version="1.1" width="256" xmlns="http://www.w3.org/2000/svg" xmlns:ev="http://www.w3.org/2001/xml-events" xmlns:xlink="http://www.w3.org/1999/xlink"><defs /><path d="M975 -431Q920 -431 845.5 -425.5Q771 -420 691.0 -405.0Q611 -390 533.0 -364.5Q455 -339 393.5 -298.5Q332 -258 294.0 -201.5Q256 -145 256 -69Q256 -38 260.5 -6.5Q265 25 269 56L400 1267Q401 1278 401.0 1287.5Q401 1297 401 1308Q401 1329 400.5 1350.0Q400 1371 400 1392V1413Q401 1492 430.0 1560.5Q459 1629 508.0 1683.5Q557 1738 621.0 1778.0Q685 1818 757 1840Q809 1856 865.0 1862.5Q921 1869 975 1869Q1030 1869 1084.5 1862.5Q1139 1856 1192 1840Q1311 1804 1398.5 1728.5Q1486 1653 1527 1533Q1536 1506 1542.5 1474.0Q1549 1442 1550 1413V1396Q1550 1374 1549.5 1353.0Q1549 1332 1549 1310Q1549 1299 1549.0 1288.5Q1549 1278 1550 1267L1680 56Q1683 25 1688.0 -6.5Q1693 -38 1693 -69Q1693 -145 1655.0 -201.5Q1617 -258 1555.5 -298.5Q1494 -339 1416.5 -364.5Q1339 -390 1259.0 -405.0Q1179 -420 1104.5 -425.5Q1030 -431 975 -431Z" style="fill:#000000;stroke:none" transform="scale(1,-1) translate(0,-256)" /></svg>