<?xml version="1.0" encoding="utf-8" ?>
<svg baseProfile="full" height="256" version="1.1" width="256" xmlns="http://www.w3.org/2000/svg" xmlns:ev="http://www.w3.org/2001/xml-events" xmlns:xlink="http://www.w3.org/1999/xlink"><defs /><path d="M1513 -67V-72Q1513 -87 1505.5 -99.0Q1498 -111 1489 -122Q1480 -133 1463.0 -143.5Q1446 -154 1434 -160Q1386 -186 1328.5 -203.5Q1271 -221 1210.0 -231.5Q1149 -242 1088.5 -246.5Q1028 -251 975 -251Q923 -251 853.0 -245.5Q783 -240 711.5 -226.0Q640 -212 575.0 -189.0Q510 -166 469 -130Q459 -121 447.5 -105.5Q436 -90 436 -75L576 1230H693Q672 1242 645.5 1260.0Q619 1278 596.5 1300.5Q574 1323 558.5 1349.0Q543 1375 543 1402V1407Q545 1461 566.0 1508.5Q587 1556 621.5 1594.0Q656 1632 701.5 1659.5Q747 1687 797 1702L865 1693L915 1723Q930 1725 945.0 1725.0Q960 1725 975 1725Q990 1725 1004.5 1725.0Q1019 1725 1034 1723L1087 1697L1152 1702Q1236 1678 1298.5 1625.0Q1361 1572 1390 1488Q1396 1470 1401.0 1448.5Q1406 1427 1406 1407Q1406 1378 1391.5 1351.5Q1377 1325 1354.5 1302.5Q1332 1280 1306.0 1261.5Q1280 1243 1257 1230H1373Z" style="fill:#a6a6a6;stroke:none" transform="scale(1,-1) translate(0,-256)" /></svg>