<?xml version="1.0" encoding="utf-8" ?>
<svg baseProfile="full" height="256" version="1.1" width="256" xmlns="http://www.w3.org/2000/svg" xmlns:ev="http://www.w3.org/2001/xml-events" xmlns:xlink="http://www.w3.org/1999/xlink"><defs /><path d="M795 1510H723Q708 1510 697.5 1520.5Q687 1531 687 1546Q687 1560 698.0 1570.5Q709 1581 723 1581H795Q809 1581 820.0 1570.5Q831 1560 831 1546Q831 1531 820.5 1520.5Q810 1510 795 1510ZM939 1689Q939 1674 928.5 1663.5Q918 1653 903 1653H831Q816 1653 805.5 1663.5Q795 1674 795 1689Q795 1694 797 1702Q826 1710 855.5 1715.0Q885 1720 915 1723Q926 1719 932.5 1709.5Q939 1700 939 1689ZM1118 1653H1047Q1032 1653 1021.5 1663.5Q1011 1674 1011 1689Q1011 1700 1017.0 1709.5Q1023 1719 1034 1723Q1064 1720 1093.5 1715.0Q1123 1710 1152 1702Q1154 1699 1154.0 1695.5Q1154 1692 1154 1689Q1154 1674 1143.5 1663.5Q1133 1653 1118 1653ZM903 1366H831Q816 1366 805.5 1376.5Q795 1387 795 1402Q795 1417 805.5 1427.5Q816 1438 831 1438H903Q918 1438 928.5 1427.5Q939 1417 939 1402Q939 1387 928.5 1376.5Q918 1366 903 1366ZM1118 1366H1047Q1032 1366 1021.5 1376.5Q1011 1387 1011 1402Q1011 1417 1021.5 1427.5Q1032 1438 1047 1438H1118Q1133 1438 1143.5 1427.5Q1154 1417 1154 1402Q1154 1387 1143.5 1376.5Q1133 1366 1118 1366ZM1011 1510H939Q924 1510 913.5 1520.5Q903 1531 903 1546Q903 1560 914.0 1570.5Q925 1581 939 1581H1011Q1025 1581 1036.0 1570.5Q1047 1560 1047 1546Q1047 1531 1036.5 1520.5Q1026 1510 1011 1510ZM1226 1510H1154Q1140 1510 1129.0 1521.0Q1118 1532 1118 1546Q1118 1560 1129.0 1570.5Q1140 1581 1154 1581H1226Q1240 1581 1251.0 1570.5Q1262 1560 1262 1546Q1262 1531 1251.5 1520.5Q1241 1510 1226 1510ZM1406 1402V1258Q1406 1220 1377.0 1192.0Q1348 1164 1307.5 1144.0Q1267 1124 1224.0 1111.5Q1181 1099 1153 1094Q1067 1078 975 1078Q933 1078 891.0 1081.0Q849 1084 807 1092Q778 1097 733.5 1109.5Q689 1122 646.5 1142.0Q604 1162 573.5 1191.0Q543 1220 543 1258V1402Q543 1363 573.5 1334.5Q604 1306 646.5 1285.5Q689 1265 733.5 1253.0Q778 1241 807 1236Q849 1228 891.0 1225.0Q933 1222 975 1222Q1067 1222 1153 1238Q1181 1243 1224.0 1255.5Q1267 1268 1307.5 1288.0Q1348 1308 1377.0 1336.0Q1406 1364 1406 1402Z" style="fill:#757575;stroke:none" transform="scale(1,-1) translate(0,-256)" /></svg>