<?xml version="1.0" encoding="utf-8" ?>
<svg baseProfile="full" height="256" version="1.1" width="256" xmlns="http://www.w3.org/2000/svg" xmlns:ev="http://www.w3.org/2001/xml-events" xmlns:xlink="http://www.w3.org/1999/xlink"><defs /><path d="M1901 78Q1893 81 1877.0 87.0Q1861 93 1844.0 100.5Q1827 108 1812.5 115.0Q1798 122 1794 127L1657 278Q1642 294 1642 320Q1642 350 1655.5 380.0Q1669 410 1691.5 433.5Q1714 457 1743.5 471.5Q1773 486 1804 486Q1814 486 1826.5 481.5Q1839 477 1851.0 470.5Q1863 464 1873.5 456.0Q1884 448 1892 441L2027 312Q2033 307 2036.5 295.5Q2040 284 2042.5 270.5Q2045 257 2046.0 244.0Q2047 231 2047 223Q2095 185 2151.5 164.5Q2208 144 2268 144Q2298 144 2324.0 132.5Q2350 121 2369.5 101.5Q2389 82 2400.5 56.0Q2412 30 2412 0Q2412 -30 2400.5 -56.0Q2389 -82 2369.5 -101.5Q2350 -121 2324.0 -132.5Q2298 -144 2268 -144Q2268 -174 2257.0 -200.0Q2246 -226 2226.5 -245.5Q2207 -265 2181.0 -276.0Q2155 -287 2125 -287Q2095 -287 2069.0 -276.0Q2043 -265 2023.5 -245.5Q2004 -226 1992.5 -200.0Q1981 -174 1981 -144Q1981 -83 1960.0 -26.5Q1939 30 1901 78ZM831 1150Q777 1216 703.5 1255.0Q630 1294 543 1294Q513 1294 487.0 1305.5Q461 1317 441.5 1336.5Q422 1356 411.0 1382.0Q400 1408 400 1438Q400 1468 411.0 1494.0Q422 1520 441.5 1539.5Q461 1559 487.0 1570.0Q513 1581 543 1581Q543 1611 554.5 1637.0Q566 1663 585.5 1682.5Q605 1702 631.0 1713.5Q657 1725 687 1725Q717 1725 743.0 1713.5Q769 1702 788.5 1682.5Q808 1663 819.5 1637.0Q831 1611 831 1581Q831 1495 870.5 1421.5Q910 1348 975 1294Z" style="fill:#f2f2f2;stroke:none" transform="scale(1,-1) translate(0,-256)" /></svg>