<?xml version="1.0" encoding="utf-8" ?>
<svg baseProfile="full" height="256" version="1.1" width="256" xmlns="http://www.w3.org/2000/svg" xmlns:ev="http://www.w3.org/2001/xml-events" xmlns:xlink="http://www.w3.org/1999/xlink"><defs /><path d="M1694 331Q1694 288 1723 259Q1755 227 1786.0 193.5Q1817 160 1852 131Q1817 104 1777.0 80.5Q1737 57 1694.0 39.0Q1651 21 1606.5 10.5Q1562 0 1517 0Q1334 0 1334 182Q1334 253 1359.0 326.0Q1384 399 1428.0 466.5Q1472 534 1531.0 593.5Q1590 653 1657.5 696.5Q1725 740 1798.0 765.5Q1871 791 1942 791Q2124 791 2124 609Q2124 565 2113.5 520.0Q2103 475 2085.5 431.5Q2068 388 2044.5 347.5Q2021 307 1994 273L1865 402Q1836 431 1794 431Q1773 431 1754.5 423.0Q1736 415 1722.5 401.5Q1709 388 1701.5 370.0Q1694 352 1694 331Z" style="fill:#e84757;stroke:none" transform="scale(1,-1) translate(0,-256)" /></svg>