<?xml version="1.0" encoding="utf-8" ?>
<svg baseProfile="full" height="256" version="1.1" width="256" xmlns="http://www.w3.org/2000/svg" xmlns:ev="http://www.w3.org/2001/xml-events" xmlns:xlink="http://www.w3.org/1999/xlink"><defs /><path d="M1478 -72Q1410 -72 1349.0 -47.0Q1288 -22 1238 23Q1224 34 1213.0 47.0Q1202 60 1190 72L759 503Q747 515 734.0 526.0Q721 537 710 551Q665 601 640.0 662.0Q615 723 615 791Q615 890 640.5 982.0Q666 1074 713.0 1154.0Q760 1234 825.5 1299.5Q891 1365 971.0 1412.0Q1051 1459 1143.0 1484.5Q1235 1510 1334 1510Q1407 1510 1473.0 1480.5Q1539 1451 1591 1400Q1592 1398 1597.0 1393.5Q1602 1389 1607.0 1383.5Q1612 1378 1616.5 1373.0Q1621 1368 1622 1366Q1645 1321 1667.0 1275.5Q1689 1230 1712 1185Q1737 1134 1773.0 1099.0Q1809 1064 1851.0 1037.5Q1893 1011 1940.0 989.0Q1987 967 2035 943Q2044 938 2052.0 933.5Q2060 929 2068 922Q2127 870 2162.0 798.0Q2197 726 2197 647Q2178 652 2154.5 653.0Q2131 654 2112 654Q2026 654 1945.0 630.0Q1864 606 1792.5 563.5Q1721 521 1662.0 461.0Q1603 401 1560.5 329.5Q1518 258 1494.5 177.0Q1471 96 1471 10Q1471 -8 1472.5 -30.5Q1474 -53 1478 -72Z" style="fill:#ca5010;stroke:none" transform="scale(1,-1) translate(0,-256)" /></svg>