<?xml version="1.0" encoding="utf-8" ?>
<svg baseProfile="full" height="256" version="1.1" width="256" xmlns="http://www.w3.org/2000/svg" xmlns:ev="http://www.w3.org/2001/xml-events" xmlns:xlink="http://www.w3.org/1999/xlink"><defs /><path d="M550 1150Q489 1150 435.5 1172.0Q382 1194 342.0 1232.5Q302 1271 279.0 1323.5Q256 1376 256 1438Q256 1480 268.0 1520.0Q280 1560 302.0 1594.0Q324 1628 355.0 1655.5Q386 1683 425 1700Q442 1738 469.5 1769.5Q497 1801 531.5 1823.0Q566 1845 605.5 1857.0Q645 1869 687 1869Q748 1869 801.0 1846.0Q854 1823 892.5 1783.0Q931 1743 953.0 1689.5Q975 1636 975 1575Q1060 1613 1150.0 1633.0Q1240 1653 1334 1653Q1456 1653 1555.0 1601.0Q1654 1549 1732 1458L1743 1445Q1767 1408 1784.0 1366.0Q1801 1324 1821.0 1283.5Q1841 1243 1868.0 1208.5Q1895 1174 1937 1153L2100 1072Q2132 1055 2164 1028Q2246 956 2293.0 856.5Q2340 757 2340 647Q2340 553 2320.0 463.0Q2300 373 2262 288Q2323 288 2376.5 266.0Q2430 244 2470.0 205.5Q2510 167 2533.0 114.0Q2556 61 2556 0Q2556 -42 2544.0 -81.5Q2532 -121 2510.0 -155.5Q2488 -190 2456.5 -217.5Q2425 -245 2387 -262Q2370 -301 2342.5 -332.0Q2315 -363 2281.0 -385.0Q2247 -407 2207.0 -419.0Q2167 -431 2125 -431Q2063 -431 2010.5 -408.0Q1958 -385 1919.5 -345.0Q1881 -305 1859.0 -251.5Q1837 -198 1837 -137Q1752 -176 1662.0 -195.5Q1572 -215 1478 -215Q1381 -215 1294.0 -179.5Q1207 -144 1136 -79Q1122 -66 1110.0 -52.5Q1098 -39 1084 -25Q874 187 662 397Q648 411 634.5 423.0Q621 435 608 449Q543 520 507.5 607.0Q472 694 472 791Q472 885 491.5 975.0Q511 1065 550 1150Z" style="fill:#000000;stroke:none" transform="scale(1,-1) translate(0,-256)" /></svg>