<?xml version="1.0" encoding="utf-8" ?>
<svg baseProfile="full" height="256" version="1.1" width="256" xmlns="http://www.w3.org/2000/svg" xmlns:ev="http://www.w3.org/2001/xml-events" xmlns:xlink="http://www.w3.org/1999/xlink"><defs /><path d="M1801 1078Q1853 1078 1899.0 1058.5Q1945 1039 1979.0 1005.0Q2013 971 2033.0 925.0Q2053 879 2053 827V791H1981Q1981 828 1967.0 861.0Q1953 894 1928.5 918.5Q1904 943 1871.0 957.0Q1838 971 1801 971Q1764 971 1731.5 957.0Q1699 943 1674.5 918.5Q1650 894 1636.0 861.0Q1622 828 1622 791H1550V827Q1550 879 1569.5 925.0Q1589 971 1623.0 1005.0Q1657 1039 1703.0 1058.5Q1749 1078 1801 1078ZM1190 791Q1190 828 1176.0 861.0Q1162 894 1137.5 918.5Q1113 943 1080.5 957.0Q1048 971 1011 971Q974 971 941.0 957.0Q908 943 883.5 918.5Q859 894 845.0 861.0Q831 828 831 791H759V827Q759 879 779.0 925.0Q799 971 833.0 1005.0Q867 1039 913.0 1058.5Q959 1078 1011 1078Q1063 1078 1109.0 1058.5Q1155 1039 1189.0 1005.0Q1223 971 1242.5 925.0Q1262 879 1262 827V791ZM1837 460Q1866 460 1887.0 438.5Q1908 417 1908 388Q1908 369 1898 351Q1862 286 1808.0 234.5Q1754 183 1689.0 147.0Q1624 111 1551.5 91.5Q1479 72 1406 72Q1332 72 1260.0 91.5Q1188 111 1123.0 147.0Q1058 183 1004.0 234.5Q950 286 913 351Q903 369 903 388Q903 417 924.0 438.5Q945 460 974 460Q1012 460 1036 425Q1049 407 1061.0 389.5Q1073 372 1088 355Q1150 288 1232.5 252.0Q1315 216 1406 216Q1497 216 1579.0 252.0Q1661 288 1723 355Q1738 372 1750.0 389.5Q1762 407 1775 425Q1799 460 1837 460Z" style="fill:#000000;stroke:none" transform="scale(1,-1) translate(0,-256)" /></svg>