<?xml version="1.0" encoding="utf-8" ?>
<svg baseProfile="full" height="256" version="1.1" width="256" xmlns="http://www.w3.org/2000/svg" xmlns:ev="http://www.w3.org/2001/xml-events" xmlns:xlink="http://www.w3.org/1999/xlink"><defs /><path d="M1595 225Q1607 214 1614.5 201.0Q1622 188 1622 171Q1622 144 1603 125L1280 -198Q1237 -241 1180.5 -264.0Q1124 -287 1064 -287Q1001 -287 945.5 -263.0Q890 -239 848.5 -197.5Q807 -156 783.0 -100.5Q759 -45 759 18V432Q759 461 780.5 482.0Q802 503 831 503Q860 503 881.5 482.0Q903 461 903 432V288L1171 556Q1190 575 1217 575Q1235 575 1247.0 567.5Q1259 560 1271 548L1275 499L1325 494Q1335 504 1347.5 518.0Q1360 532 1373.5 544.5Q1387 557 1402.0 566.0Q1417 575 1433 575Q1446 575 1457.5 570.0Q1469 565 1478.5 557.0Q1488 549 1496.5 539.5Q1505 530 1514 521L1512 474L1568 467Q1585 450 1603.0 431.5Q1621 413 1621 387Q1621 371 1612.0 356.0Q1603 341 1590.5 327.5Q1578 314 1564.5 301.5Q1551 289 1541 279V228Z" style="fill:#d48c00;stroke:none" transform="scale(1,-1) translate(0,-256)" /></svg>