<?xml version="1.0" encoding="utf-8" ?>
<svg baseProfile="full" height="256" version="1.1" width="256" xmlns="http://www.w3.org/2000/svg" xmlns:ev="http://www.w3.org/2001/xml-events" xmlns:xlink="http://www.w3.org/1999/xlink"><defs /><path d="M1406 -431Q1352 -431 1300.0 -426.0Q1248 -421 1195 -411Q1130 -431 1064 -431Q995 -431 930.5 -410.5Q866 -390 811.5 -352.5Q757 -315 714.5 -262.0Q672 -209 647 -145Q554 -63 481.0 35.5Q408 134 358.0 244.5Q308 355 282.0 474.5Q256 594 256 719Q256 877 297.0 1024.0Q338 1171 413.0 1299.0Q488 1427 593.0 1532.0Q698 1637 826.0 1712.0Q954 1787 1100.5 1828.0Q1247 1869 1406 1869Q1564 1869 1711.0 1828.0Q1858 1787 1986.0 1712.0Q2114 1637 2219.0 1532.0Q2324 1427 2399.0 1299.0Q2474 1171 2515.0 1024.0Q2556 877 2556 719Q2556 560 2515.0 413.5Q2474 267 2399.0 139.0Q2324 11 2219.0 -94.0Q2114 -199 1986.0 -274.0Q1858 -349 1711.0 -390.0Q1564 -431 1406 -431Z" style="fill:#000000;stroke:none" transform="scale(1,-1) translate(0,-256)" /></svg>