<?xml version="1.0" encoding="utf-8" ?>
<svg baseProfile="full" height="256" version="1.1" width="256" xmlns="http://www.w3.org/2000/svg" xmlns:ev="http://www.w3.org/2001/xml-events" xmlns:xlink="http://www.w3.org/1999/xlink"><defs /><path d="M903 719Q948 719 987.0 702.0Q1026 685 1055.0 655.5Q1084 626 1101.0 587.0Q1118 548 1118 503Q1118 458 1101.0 419.0Q1084 380 1055.0 351.0Q1026 322 987.0 305.0Q948 288 903 288Q858 288 819.0 305.0Q780 322 750.5 351.0Q721 380 704.0 419.0Q687 458 687 503Q687 548 704.0 587.0Q721 626 750.5 655.5Q780 685 819.0 702.0Q858 719 903 719ZM1909 719Q1954 719 1993.0 702.0Q2032 685 2061.5 655.5Q2091 626 2108.0 587.0Q2125 548 2125 503Q2125 458 2108.0 419.0Q2091 380 2061.5 351.0Q2032 322 1993.0 305.0Q1954 288 1909 288Q1864 288 1825.0 305.0Q1786 322 1756.5 351.0Q1727 380 1710.0 419.0Q1693 458 1693 503Q1693 548 1710.0 587.0Q1727 626 1756.5 655.5Q1786 685 1825.0 702.0Q1864 719 1909 719Z" style="fill:#f7894a;stroke:none" transform="scale(1,-1) translate(0,-256)" /></svg>