<?xml version="1.0" encoding="utf-8" ?>
<svg baseProfile="full" height="256" version="1.1" width="256" xmlns="http://www.w3.org/2000/svg" xmlns:ev="http://www.w3.org/2001/xml-events" xmlns:xlink="http://www.w3.org/1999/xlink"><defs /><path d="M1190 182Q1190 193 1194.0 199.5Q1198 206 1206 214L1514 521L1568 467L1255 155Q1244 144 1228 144Q1213 144 1202 155Q1190 165 1190 182ZM1325 494 1124 293Q1113 282 1097 282Q1081 282 1070.0 293.0Q1059 304 1059 320Q1059 338 1072.5 350.5Q1086 363 1097 374L1271 548ZM1595 225 1417 47Q1406 36 1390 36Q1374 36 1363.0 47.0Q1352 58 1352 74Q1352 83 1356.5 91.5Q1361 100 1368.0 107.5Q1375 115 1382.0 121.0Q1389 127 1395 133L1541 279Z" style="fill:#8e562e;stroke:none" transform="scale(1,-1) translate(0,-256)" /></svg>