<?xml version="1.0" encoding="utf-8" ?>
<svg baseProfile="full" height="256" version="1.1" width="256" xmlns="http://www.w3.org/2000/svg" xmlns:ev="http://www.w3.org/2001/xml-events" xmlns:xlink="http://www.w3.org/1999/xlink"><defs /><path d="M1550 -431V-287Q1550 -244 1562.5 -203.5Q1575 -163 1598.0 -128.5Q1621 -94 1653.5 -66.5Q1686 -39 1726 -22L1794 182Q1753 164 1710.0 154.0Q1667 144 1622 144H1407V-178L1279 -431H831V-287Q831 -209 869.5 -143.0Q908 -77 975 -38V38L888 212Q842 241 805.0 281.0Q768 321 741.5 368.0Q715 415 701.0 467.5Q687 520 687 575V791Q624 791 564.5 809.0Q505 827 454.0 860.0Q403 893 362.0 940.0Q321 987 295 1045Q269 1103 262.0 1157.0Q255 1211 255 1268Q255 1291 255.5 1315.5Q256 1340 256 1366H556Q584 1394 614.5 1420.0Q645 1446 679.0 1466.0Q713 1486 751.0 1498.0Q789 1510 831 1510H1124L1218 1368L1344 1746Q1362 1801 1409.0 1835.0Q1456 1869 1514 1869H1801Q1838 1869 1870.5 1855.0Q1903 1841 1927.5 1816.5Q1952 1792 1966.5 1759.5Q1981 1727 1981 1690Q1981 1665 1975 1643Q1998 1650 2020.5 1651.5Q2043 1653 2066 1653H2097Q2192 1653 2275.5 1615.0Q2359 1577 2421.5 1513.0Q2484 1449 2520.0 1364.5Q2556 1280 2556 1186Q2556 1076 2509.0 981.5Q2462 887 2376 819Q2412 738 2412 647V331L2555 116V-178L2428 -431ZM2032 1078 2115 1161Q2125 1171 2125 1186Q2125 1201 2114.5 1211.5Q2104 1222 2089 1222H1835L1787 1078Z" style="fill:#000000;stroke:none" transform="scale(1,-1) translate(0,-256)" /></svg>