<?xml version="1.0" encoding="utf-8" ?>
<svg baseProfile="full" height="256" version="1.1" width="256" xmlns="http://www.w3.org/2000/svg" xmlns:ev="http://www.w3.org/2001/xml-events" xmlns:xlink="http://www.w3.org/1999/xlink"><defs /><path d="M2412 -144 2340 -287H2124Q2124 -257 2135.5 -231.0Q2147 -205 2166.5 -185.5Q2186 -166 2212.0 -155.0Q2238 -144 2268 -144V0L2112 118L2034 127Q2017 152 1999.5 180.0Q1982 208 1962 231Q1962 232 1955.0 237.0Q1948 242 1939.5 248.0Q1931 254 1923.5 259.5Q1916 265 1914 267Q1882 292 1862.5 332.5Q1843 373 1839 413Q1805 356 1747.0 322.0Q1689 288 1622 288H1550L1442 357L1334 288H1263V-144L1190 -287H975Q975 -257 986.0 -231.0Q997 -205 1016.5 -185.5Q1036 -166 1062.0 -155.0Q1088 -144 1118 -144V72L997 316Q916 354 870 431Q876 444 880.5 460.5Q885 477 885 491Q885 501 879.0 513.0Q873 525 864.5 536.0Q856 547 847.0 557.5Q838 568 831 575V935H687Q645 935 605.0 947.0Q565 959 531.0 981.0Q497 1003 470.0 1034.0Q443 1065 425 1104L434 1196Q449 1201 468.0 1206.0Q487 1211 507.5 1215.0Q528 1219 549.0 1221.5Q570 1224 589 1224Q596 1224 602.5 1223.5Q609 1223 615 1222Q636 1243 660.0 1268.0Q684 1293 711.5 1314.5Q739 1336 769.0 1351.0Q799 1366 831 1366H1047L1261 1044L1308 1047L1311 969L1334 935L1442 888Q1446 889 1469.0 896.5Q1492 904 1518.0 912.5Q1544 921 1565.0 928.0Q1586 935 1587 935Q1604 937 1617.5 937.0Q1631 937 1645 937Q1671 937 1696.5 936.0Q1722 935 1755 935H2091L2216 1059Q2242 1084 2255.0 1117.5Q2268 1151 2268 1186Q2268 1222 2255.0 1254.5Q2242 1287 2216 1313Q2190 1339 2157.5 1352.5Q2125 1366 2089 1366H1909Q1909 1396 1920.5 1422.0Q1932 1448 1951.5 1467.5Q1971 1487 1997.0 1498.5Q2023 1510 2053 1510H2097Q2162 1510 2219.5 1483.5Q2277 1457 2319.5 1412.5Q2362 1368 2387.0 1309.5Q2412 1251 2412 1187Q2412 1130 2393.5 1078.5Q2375 1027 2341.5 985.0Q2308 943 2261.5 913.5Q2215 884 2160 871Q2197 841 2218.5 809.5Q2240 778 2251.0 744.0Q2262 710 2265.5 673.5Q2269 637 2269 597Q2269 574 2268.5 551.0Q2268 528 2268 503V288L2411 72Z" style="fill:#ffd679;stroke:none" transform="scale(1,-1) translate(0,-256)" /></svg>