<?xml version="1.0" encoding="utf-8" ?>
<svg baseProfile="full" height="256" version="1.1" width="256" xmlns="http://www.w3.org/2000/svg" xmlns:ev="http://www.w3.org/2001/xml-events" xmlns:xlink="http://www.w3.org/1999/xlink"><defs /><path d="M1550 611Q1550 589 1541.5 569.5Q1533 550 1518.0 535.0Q1503 520 1483.5 511.5Q1464 503 1442 503Q1420 503 1400.5 511.5Q1381 520 1366.0 535.0Q1351 550 1342.5 569.5Q1334 589 1334 611Q1334 633 1342.5 653.0Q1351 673 1365.5 687.5Q1380 702 1399.5 710.5Q1419 719 1442 719Q1464 719 1483.5 710.5Q1503 702 1518.0 687.0Q1533 672 1541.5 652.5Q1550 633 1550 611Z" style="fill:#613d30;stroke:none" transform="scale(1,-1) translate(0,-256)" /></svg>