<?xml version="1.0" encoding="utf-8" ?>
<svg baseProfile="full" height="256" version="1.1" width="256" xmlns="http://www.w3.org/2000/svg" xmlns:ev="http://www.w3.org/2001/xml-events" xmlns:xlink="http://www.w3.org/1999/xlink"><defs /><path d="M1827 1653 1476 600Q1472 589 1462.5 582.0Q1453 575 1442 575Q1427 575 1416.5 586.0Q1406 597 1406 612Q1406 615 1417.5 651.5Q1429 688 1448.5 747.5Q1468 807 1493.5 884.0Q1519 961 1547.0 1045.0Q1575 1129 1604.0 1214.5Q1633 1300 1658.5 1376.5Q1684 1453 1705.0 1515.0Q1726 1577 1739 1614L1752 1653L1787 1689ZM1540 1653 1311 969 1261 1044 1464 1653 1508 1689Z" style="fill:#a6a6a6;stroke:none" transform="scale(1,-1) translate(0,-256)" /></svg>