<?xml version="1.0" encoding="utf-8" ?>
<svg baseProfile="full" height="256" version="1.1" width="256" xmlns="http://www.w3.org/2000/svg" xmlns:ev="http://www.w3.org/2001/xml-events" xmlns:xlink="http://www.w3.org/1999/xlink"><defs /><path d="M1372 228 1322 178 1129 370Q1118 381 1118 395Q1118 410 1129.0 420.5Q1140 431 1154 431Q1170 431 1180 421ZM1947 803 1897 753 1704 945Q1693 956 1693 970Q1693 985 1704.0 995.5Q1715 1006 1729 1006Q1745 1006 1755 996ZM1660 516 1609 465 1417 658Q1406 669 1406 683Q1406 697 1417.0 708.0Q1428 719 1442 719Q1456 719 1467 708ZM1085 -59 1034 -110 842 83Q831 94 831 108Q831 122 842.0 133.0Q853 144 867 144Q881 144 892 133Z" style="fill:#008272;stroke:none" transform="scale(1,-1) translate(0,-256)" /></svg>