<?xml version="1.0" encoding="utf-8" ?>
<svg baseProfile="full" height="256" version="1.1" width="256" xmlns="http://www.w3.org/2000/svg" xmlns:ev="http://www.w3.org/2001/xml-events" xmlns:xlink="http://www.w3.org/1999/xlink"><defs /><path d="M256 36Q256 130 291.5 215.0Q327 300 393 366L1576 1550Q1563 1573 1556.0 1599.5Q1549 1626 1549 1653Q1549 1698 1566.0 1737.0Q1583 1776 1612.5 1805.5Q1642 1835 1681.0 1852.0Q1720 1869 1765 1869Q1808 1869 1848.0 1852.5Q1888 1836 1918 1806L2493 1231Q2523 1201 2539.5 1161.0Q2556 1121 2556 1078Q2556 1033 2539.0 994.0Q2522 955 2493.0 926.0Q2464 897 2424.5 880.0Q2385 863 2340 863Q2286 863 2237 889L1053 -294Q987 -360 902.0 -395.5Q817 -431 723 -431Q626 -431 541.0 -394.5Q456 -358 392.5 -294.5Q329 -231 292.5 -146.0Q256 -61 256 36Z" style="fill:#000000;stroke:none" transform="scale(1,-1) translate(0,-256)" /></svg>