<?xml version="1.0" encoding="utf-8" ?>
<svg baseProfile="full" height="256" version="1.1" width="256" xmlns="http://www.w3.org/2000/svg" xmlns:ev="http://www.w3.org/2001/xml-events" xmlns:xlink="http://www.w3.org/1999/xlink"><defs /><path d="M1765 1725Q1795 1725 1816 1704L2391 1129Q2412 1108 2412 1078Q2412 1064 2406.0 1051.0Q2400 1038 2390.5 1028.0Q2381 1018 2368.0 1012.0Q2355 1006 2340 1006Q2323 1006 2308.0 1014.5Q2293 1023 2279.5 1035.5Q2266 1048 2254.0 1061.5Q2242 1075 2231 1086L2007 863H1093L1773 1544Q1762 1555 1748.5 1567.0Q1735 1579 1722.5 1592.5Q1710 1606 1701.5 1621.0Q1693 1636 1693 1653Q1693 1668 1699.0 1681.0Q1705 1694 1715.0 1703.5Q1725 1713 1738.0 1719.0Q1751 1725 1765 1725Z" style="fill:#b3dbf2;stroke:none" transform="scale(1,-1) translate(0,-256)" /></svg>