<?xml version="1.0" encoding="utf-8" ?>
<svg baseProfile="full" height="256" version="1.1" width="256" xmlns="http://www.w3.org/2000/svg" xmlns:ev="http://www.w3.org/2001/xml-events" xmlns:xlink="http://www.w3.org/1999/xlink"><defs /><path d="M2007 863 1947 803 1891 811 1897 753Q1837 693 1777.5 634.5Q1718 576 1660 515H1610V465L1372 228H1323V178L1085 -60L1024 -54L1034 -110Q1029 -115 1025.0 -118.5Q1021 -122 1017 -127Q984 -161 953.5 -190.5Q923 -220 889.0 -241.5Q855 -263 815.0 -275.5Q775 -288 723 -288Q656 -288 597.0 -262.5Q538 -237 494.0 -193.0Q450 -149 424.5 -90.0Q399 -31 399 36Q399 101 423.5 160.0Q448 219 494 265L1092 863L1561 1048Z" style="fill:#00b294;stroke:none" transform="scale(1,-1) translate(0,-256)" /></svg>