<?xml version="1.0" encoding="utf-8" ?>
<svg baseProfile="full" height="256" version="1.1" width="256" xmlns="http://www.w3.org/2000/svg" xmlns:ev="http://www.w3.org/2001/xml-events" xmlns:xlink="http://www.w3.org/1999/xlink"><defs /><path d="M2125 719Q2125 561 2079.5 417.5Q2034 274 1951.0 153.5Q1868 33 1750.0 -61.5Q1632 -156 1488 -216Q1468 -224 1438.0 -234.5Q1408 -245 1375.5 -254.0Q1343 -263 1312.5 -269.5Q1282 -276 1262 -276Q1238 -276 1199.5 -267.0Q1161 -258 1120.5 -245.0Q1080 -232 1042.0 -217.5Q1004 -203 981 -192Q953 -158 932.5 -134.0Q912 -110 889.5 -93.5Q867 -77 837.5 -67.5Q808 -58 761 -53Q630 56 543.5 199.5Q457 343 422 510Q432 562 439.5 614.0Q447 666 447 719Q447 754 442.0 789.5Q437 825 432 860Q430 877 426.0 894.0Q422 911 422 928Q422 932 425.0 944.5Q428 957 432.0 971.5Q436 986 439.5 999.5Q443 1013 445 1018Q487 1158 568.5 1277.5Q650 1397 761 1491Q800 1502 829.5 1513.0Q859 1524 884.5 1539.5Q910 1555 933.0 1576.5Q956 1598 981 1630Q1005 1640 1042.5 1654.5Q1080 1669 1120.5 1682.5Q1161 1696 1199.0 1705.0Q1237 1714 1262 1714Q1281 1714 1311.5 1707.5Q1342 1701 1375.0 1691.5Q1408 1682 1439.0 1671.5Q1470 1661 1488 1654Q1632 1596 1749.5 1501.0Q1867 1406 1950.5 1284.5Q2034 1163 2079.5 1019.0Q2125 875 2125 719Z" style="fill:#757575;stroke:none" transform="scale(1,-1) translate(0,-256)" /></svg>