<?xml version="1.0" encoding="utf-8" ?>
<svg baseProfile="full" height="256" version="1.1" width="256" xmlns="http://www.w3.org/2000/svg" xmlns:ev="http://www.w3.org/2001/xml-events" xmlns:xlink="http://www.w3.org/1999/xlink"><defs /><path d="M1406 1725Q1525 1725 1641.0 1697.5Q1757 1670 1863 1615Q1871 1587 1890.0 1565.5Q1909 1544 1933.5 1530.0Q1958 1516 1986.5 1508.0Q2015 1500 2042 1499Q2116 1439 2177.5 1365.5Q2239 1292 2285.5 1208.5Q2332 1125 2362.0 1034.0Q2392 943 2404 848Q2384 822 2372.0 790.5Q2360 759 2360 726Q2360 691 2373.5 655.5Q2387 620 2404 590Q2392 496 2362.5 406.5Q2333 317 2288.0 235.0Q2243 153 2183.0 80.0Q2123 7 2051 -53Q2004 -56 1976.5 -80.5Q1949 -105 1926 -143Q1808 -215 1676.0 -251.0Q1544 -287 1406 -287Q1370 -287 1334.0 -284.0Q1298 -281 1262 -276Q1319 -268 1364.5 -231.0Q1410 -194 1446.0 -140.0Q1482 -86 1508.5 -19.0Q1535 48 1554.0 115.0Q1573 182 1585.0 245.0Q1597 308 1604 355Q1617 446 1622.5 537.0Q1628 628 1628 719Q1628 810 1622.5 901.0Q1617 992 1604 1083Q1597 1130 1585.0 1193.0Q1573 1256 1554.0 1323.0Q1535 1390 1508.5 1457.0Q1482 1524 1446.0 1578.0Q1410 1632 1364.5 1669.0Q1319 1706 1262 1714Q1298 1719 1334.0 1722.0Q1370 1725 1406 1725Z" style="fill:#ffc83d;stroke:none" transform="scale(1,-1) translate(0,-256)" /></svg>