<?xml version="1.0" encoding="utf-8" ?>
<svg baseProfile="full" height="256" version="1.1" width="256" xmlns="http://www.w3.org/2000/svg" xmlns:ev="http://www.w3.org/2001/xml-events" xmlns:xlink="http://www.w3.org/1999/xlink"><defs /><path d="M1837 1402Q1837 1343 1864.5 1282.0Q1892 1221 1934.0 1165.0Q1976 1109 2026.5 1061.5Q2077 1014 2123 982L2210 923Q2242 901 2267.0 868.0Q2292 835 2309.0 796.0Q2326 757 2335.0 716.0Q2344 675 2344 637Q2344 579 2326.5 523.5Q2309 468 2275 420Q2240 370 2191.0 339.0Q2142 308 2085 290Q1977 255 1886.5 224.5Q1796 194 1711.0 158.0Q1626 122 1541.0 76.0Q1456 30 1359 -35Q1305 -72 1251.5 -109.5Q1198 -147 1144 -184Q1118 -202 1090.5 -222.0Q1063 -242 1034 -256Q1002 -272 970.5 -279.5Q939 -287 903 -287H543Q513 -287 487.0 -276.0Q461 -265 441.5 -245.5Q422 -226 411.0 -200.0Q400 -174 400 -144Q400 -114 411.0 -88.0Q422 -62 441.5 -42.5Q461 -23 487.0 -11.5Q513 0 543 0H682Q718 0 748.5 18.0Q779 36 797 67L1218 804Q1253 866 1271.5 934.5Q1290 1003 1290 1074Q1290 1152 1267 1230L1118 1725H1837Z" style="fill:#ffc83d;stroke:none" transform="scale(1,-1) translate(0,-256)" /></svg>