<?xml version="1.0" encoding="utf-8" ?>
<svg baseProfile="full" height="256" version="1.1" width="256" xmlns="http://www.w3.org/2000/svg" xmlns:ev="http://www.w3.org/2001/xml-events" xmlns:xlink="http://www.w3.org/1999/xlink"><defs /><path d="M543 -431Q484 -431 431.5 -408.5Q379 -386 340.0 -347.0Q301 -308 278.5 -255.5Q256 -203 256 -144Q256 -85 278.5 -32.5Q301 20 340.0 59.0Q379 98 431.5 121.0Q484 144 543 144H675L1092 875Q1118 920 1131.5 971.0Q1145 1022 1145 1075Q1145 1132 1128 1189L924 1869H1978V1402Q1978 1363 2002.5 1318.0Q2027 1273 2062.5 1231.0Q2098 1189 2137.0 1153.5Q2176 1118 2206 1097Q2228 1081 2253.5 1066.0Q2279 1051 2299 1034Q2389 957 2436.5 854.5Q2484 752 2484 634Q2484 547 2458.5 471.0Q2433 395 2386.0 333.5Q2339 272 2273.0 226.0Q2207 180 2125 153Q2071 135 2017.0 118.5Q1963 102 1909 83Q1783 38 1665.5 -20.5Q1548 -79 1438 -154Q1381 -193 1324.5 -233.0Q1268 -273 1211 -312Q1183 -330 1155.0 -349.5Q1127 -369 1098 -384Q1050 -408 1003.0 -419.5Q956 -431 902 -431Z" style="fill:#000000;stroke:none" transform="scale(1,-1) translate(0,-256)" /></svg>