<?xml version="1.0" encoding="utf-8" ?>
<svg baseProfile="full" height="256" version="1.1" width="256" xmlns="http://www.w3.org/2000/svg" xmlns:ev="http://www.w3.org/2001/xml-events" xmlns:xlink="http://www.w3.org/1999/xlink"><defs /><path d="M1514 806Q1514 821 1524.5 831.5Q1535 842 1549 842Q1574 842 1584 817Q1601 772 1636.5 745.5Q1672 719 1721 719Q1751 719 1777.0 730.5Q1803 742 1822.5 761.5Q1842 781 1853.0 807.0Q1864 833 1864 863Q1864 878 1859.5 892.0Q1855 906 1855 920Q1855 935 1865.5 945.5Q1876 956 1890 956Q1905 956 1914.5 946.0Q1924 936 1928.5 921.5Q1933 907 1934.5 891.0Q1936 875 1936 864Q1936 819 1919.0 779.5Q1902 740 1872.5 710.5Q1843 681 1804.0 664.0Q1765 647 1720 647Q1649 647 1594.0 688.0Q1539 729 1516 795Q1515 798 1514.5 800.5Q1514 803 1514 806Z" style="fill:#d48c00;stroke:none" transform="scale(1,-1) translate(0,-256)" /></svg>