<?xml version="1.0" encoding="utf-8" ?>
<svg baseProfile="full" height="256" version="1.1" width="256" xmlns="http://www.w3.org/2000/svg" xmlns:ev="http://www.w3.org/2001/xml-events" xmlns:xlink="http://www.w3.org/1999/xlink"><defs /><path d="M1909 863Q1909 818 1892.0 779.0Q1875 740 1845.5 710.5Q1816 681 1777.0 664.0Q1738 647 1693 647H1334Q1289 647 1250.0 664.0Q1211 681 1181.5 710.5Q1152 740 1135.0 779.0Q1118 818 1118 863ZM1262 1006Q1233 1006 1211.5 1027.5Q1190 1049 1190 1078V1222Q1190 1252 1211.0 1273.0Q1232 1294 1262 1294Q1292 1294 1313.0 1273.0Q1334 1252 1334 1222V1078Q1334 1049 1312.5 1027.5Q1291 1006 1262 1006ZM1765 1006Q1736 1006 1714.5 1027.5Q1693 1049 1693 1078V1222Q1693 1251 1714.5 1272.5Q1736 1294 1765 1294Q1795 1294 1816.0 1273.0Q1837 1252 1837 1222V1078Q1837 1049 1815.5 1027.5Q1794 1006 1765 1006Z" style="fill:#000000;stroke:none" transform="scale(1,-1) translate(0,-256)" /></svg>