<?xml version="1.0" encoding="utf-8" ?>
<svg baseProfile="full" height="256" version="1.1" width="256" xmlns="http://www.w3.org/2000/svg" xmlns:ev="http://www.w3.org/2001/xml-events" xmlns:xlink="http://www.w3.org/1999/xlink"><defs /><path d="M2051 935Q2126 935 2191.5 906.5Q2257 878 2305.5 829.5Q2354 781 2382.5 715.5Q2411 650 2411 575V467Q2411 453 2400.0 442.0Q2389 431 2375 431Q2362 431 2354.5 436.5Q2347 442 2343.5 451.0Q2340 460 2339.5 471.0Q2339 482 2339 492V503Q2339 527 2329.5 541.5Q2320 556 2305.0 563.5Q2290 571 2271.0 573.0Q2252 575 2233 575Q2190 575 2158.0 569.0Q2126 563 2103.0 547.0Q2080 531 2064.0 503.0Q2048 475 2038 431Q2024 372 2007.5 315.5Q1991 259 1965 204Q1910 90 1829.5 -0.5Q1749 -91 1649.0 -155.0Q1549 -219 1432.5 -253.0Q1316 -287 1189 -287Q1065 -287 951.0 -255.5Q837 -224 738.0 -164.5Q639 -105 557.0 -19.0Q475 67 417 176Q410 189 405.0 202.0Q400 215 400 229Q400 239 405.0 246.0Q410 253 421 253Q432 253 445.5 239.5Q459 226 476.0 206.0Q493 186 515.0 162.5Q537 139 566.5 119.0Q596 99 634.5 85.5Q673 72 722 72Q789 72 847.5 97.5Q906 123 950.0 167.0Q994 211 1019.5 270.0Q1045 329 1045 396V431Q1045 461 1034.0 487.0Q1023 513 1003.5 532.5Q984 552 958.0 563.5Q932 575 902 575H757Q729 575 715.5 564.5Q702 554 696.0 538.0Q690 522 688.5 503.0Q687 484 684.5 468.0Q682 452 675.0 441.5Q668 431 650 431Q636 431 625.0 442.0Q614 453 614 467V575Q614 649 642.5 714.5Q671 780 719.5 829.0Q768 878 833.5 906.5Q899 935 973 935V1186Q973 1283 1017.5 1367.0Q1062 1451 1140 1508L987 1662Q981 1668 977.0 1674.0Q973 1680 973 1689Q973 1704 983.5 1714.5Q994 1725 1009 1725H1404Q1493 1725 1576.0 1702.0Q1659 1679 1731.0 1637.0Q1803 1595 1862.0 1536.0Q1921 1477 1963.0 1405.0Q2005 1333 2028.0 1250.0Q2051 1167 2051 1078Z" style="fill:#ffffff;stroke:none" transform="scale(1,-1) translate(0,-256)" /></svg>