<?xml version="1.0" encoding="utf-8" ?>
<svg baseProfile="full" height="256" version="1.1" width="256" xmlns="http://www.w3.org/2000/svg" xmlns:ev="http://www.w3.org/2001/xml-events" xmlns:xlink="http://www.w3.org/1999/xlink"><defs /><path d="M1189 -431Q1049 -431 914.5 -394.0Q780 -357 662.0 -287.0Q544 -217 448.0 -116.5Q352 -16 289 111Q275 139 265.5 168.0Q256 197 256 229Q256 263 268.5 294.0Q281 325 303.0 347.5Q325 370 355.0 383.5Q385 397 420 397Q439 397 457.0 393.5Q475 390 492 381Q478 409 473.5 438.5Q469 468 469 499Q469 518 469.5 537.0Q470 556 470 575Q470 658 496.0 735.0Q522 812 569.5 875.5Q617 939 683.0 986.0Q749 1033 829 1057V1074Q829 1136 830.5 1191.5Q832 1247 842.5 1300.0Q853 1353 874.5 1404.0Q896 1455 937 1508Q916 1527 896.5 1546.0Q877 1565 862.0 1587.0Q847 1609 838.0 1634.0Q829 1659 829 1689Q829 1726 843.0 1759.0Q857 1792 881.5 1816.5Q906 1841 938.5 1855.0Q971 1869 1009 1869H1404Q1513 1869 1614.0 1840.5Q1715 1812 1803.0 1760.5Q1891 1709 1963.0 1637.0Q2035 1565 2086.5 1477.0Q2138 1389 2166.5 1288.0Q2195 1187 2195 1078V1057Q2275 1033 2341.0 986.0Q2407 939 2454.5 875.5Q2502 812 2528.0 735.0Q2554 658 2554 575V467Q2554 430 2540.0 397.5Q2526 365 2501.5 340.5Q2477 316 2444.5 302.0Q2412 288 2375 288Q2343 288 2314.0 298.5Q2285 309 2261.5 328.0Q2238 347 2221.5 373.0Q2205 399 2199 431H2195Q2189 431 2182.0 411.5Q2175 392 2169.0 367.5Q2163 343 2158.5 319.5Q2154 296 2152 288Q2140 237 2119.0 188.5Q2098 140 2072 94Q2003 -28 1909.5 -125.0Q1816 -222 1703.0 -290.0Q1590 -358 1460.0 -394.5Q1330 -431 1189 -431Z" style="fill:#000000;stroke:none" transform="scale(1,-1) translate(0,-256)" /></svg>