<?xml version="1.0" encoding="utf-8" ?>
<svg baseProfile="full" height="256" version="1.1" width="256" xmlns="http://www.w3.org/2000/svg" xmlns:ev="http://www.w3.org/2001/xml-events" xmlns:xlink="http://www.w3.org/1999/xlink"><defs /><path d="M1047 1474 1011 1438 975 1474 1011 1510ZM759 1474 723 1438 687 1474 723 1510ZM1550 1186 1514 1150 1478 1186 1514 1222ZM1514 1366 1550 1330 1514 1294 1478 1330ZM1622 1042 1586 1006 1550 1042 1586 1078ZM1226 1078 1262 1042 1226 1006 1190 1042ZM2304 1294 2340 1258 2304 1222 2268 1258ZM1190 1402 1154 1366 1118 1402 1154 1438ZM2089 1510 2125 1474 2089 1438 2053 1474ZM1801 1510 1837 1474 1801 1438 1765 1474ZM1945 1438 1981 1402 1945 1366 1909 1402ZM903 1402 867 1366 831 1402 867 1438ZM615 1402 579 1366 543 1402 579 1438ZM1334 1330 1298 1294 1262 1330 1298 1366ZM1334 1186 1298 1150 1262 1186 1298 1222ZM1945 1581 1981 1546 1945 1510 1909 1546ZM2233 1438 2268 1402 2233 1366 2197 1402ZM543 1258 508 1222 472 1258 508 1294ZM903 1546 867 1510 831 1546 867 1581ZM1658 1438 1693 1402 1658 1366 1622 1402Z" style="fill:#ffffff;stroke:none" transform="scale(1,-1) translate(0,-256)" /></svg>