<?xml version="1.0" encoding="utf-8" ?>
<svg baseProfile="full" height="256" version="1.1" width="256" xmlns="http://www.w3.org/2000/svg" xmlns:ev="http://www.w3.org/2001/xml-events" xmlns:xlink="http://www.w3.org/1999/xlink"><defs /><path d="M2445 145Q2484 79 2484 1Q2484 -59 2461.5 -111.5Q2439 -164 2400.0 -203.0Q2361 -242 2309.0 -264.5Q2257 -287 2197 -287Q2123 -287 2072.0 -260.0Q2021 -233 1982.5 -189.0Q1944 -145 1914.0 -90.5Q1884 -36 1852 20Q1746 -25 1633.5 -47.5Q1521 -70 1406 -70Q1291 -70 1178.5 -47.5Q1066 -25 960 20Q928 -36 898.0 -90.5Q868 -145 829.5 -189.0Q791 -233 740.0 -260.0Q689 -287 615 -287Q555 -287 502.5 -264.0Q450 -241 411.0 -202.0Q372 -163 350.0 -110.0Q328 -57 328 3Q328 41 338.0 77.0Q348 113 367 145L501 375Q382 533 319.5 706.0Q257 879 257 1078Q257 1212 307.5 1330.0Q358 1448 446.0 1535.5Q534 1623 651.5 1674.0Q769 1725 903 1725Q969 1725 1039.5 1712.0Q1110 1699 1176.5 1673.0Q1243 1647 1302.5 1608.0Q1362 1569 1406 1517Q1450 1569 1509.0 1608.0Q1568 1647 1634.5 1673.0Q1701 1699 1771.5 1712.0Q1842 1725 1908 1725Q1997 1725 2080.0 1702.0Q2163 1679 2235.0 1636.5Q2307 1594 2366.0 1535.0Q2425 1476 2467.5 1404.5Q2510 1333 2533.0 1250.0Q2556 1167 2556 1078Q2556 883 2492.5 706.0Q2429 529 2310 375Z" style="fill:#000000;stroke:none" transform="scale(1,-1) translate(0,-256)" /></svg>