<?xml version="1.0" encoding="utf-8" ?>
<svg baseProfile="full" height="256" version="1.1" width="256" xmlns="http://www.w3.org/2000/svg" xmlns:ev="http://www.w3.org/2001/xml-events" xmlns:xlink="http://www.w3.org/1999/xlink"><defs /><path d="M1952 415Q1952 415 1954.0 412.5Q1956 410 1965.0 395.5Q1974 381 1993.0 348.0Q2012 315 2047.0 255.5Q2082 196 2136.0 103.5Q2190 11 2269 -124Q2235 -144 2197 -144Q2159 -144 2126.0 -125.0Q2093 -106 2073 -73Q2031 -2 1990.5 68.0Q1950 138 1908 209Q1890 240 1871.0 270.0Q1852 300 1833 331Q1736 274 1627.5 244.5Q1519 215 1407 215Q1295 215 1186.0 244.5Q1077 274 980 331Q961 300 942.0 270.0Q923 240 905 209Q863 138 822.5 68.0Q782 -2 740 -73Q721 -105 687.5 -124.5Q654 -144 616 -144Q577 -144 543 -124Q639 40 723.5 185.5Q808 331 895.5 467.5Q983 604 1081.5 735.5Q1180 867 1306 1004Q1252 1060 1199.0 1115.5Q1146 1171 1089 1225Q1051 1262 1004.0 1278.0Q957 1294 904 1294Q859 1294 819.5 1277.0Q780 1260 750.5 1230.5Q721 1201 704.0 1162.0Q687 1123 687 1078Q687 962 725.5 849.0Q764 736 838 645L759 511Q708 578 668.0 642.5Q628 707 600.0 775.0Q572 843 557.5 917.0Q543 991 543 1078Q543 1153 571.5 1218.5Q600 1284 648.5 1332.5Q697 1381 762.5 1409.5Q828 1438 903 1438Q986 1438 1058.0 1411.5Q1130 1385 1190 1326Q1244 1272 1299.0 1219.0Q1354 1166 1406 1110L1428 1088Q1582 934 1710.0 767.0Q1838 600 1952 415ZM1056 453Q1137 408 1226.0 384.5Q1315 361 1407 361Q1499 361 1588.0 384.0Q1677 407 1757 453Q1677 572 1590.0 683.5Q1503 795 1406 901Q1216 692 1056 453ZM1909 1294Q1858 1294 1809.5 1278.0Q1761 1262 1724 1225L1608 1108L1509 1213Q1517 1221 1524.5 1228.5Q1532 1236 1540 1244Q1582 1287 1619.0 1322.5Q1656 1358 1698.0 1383.5Q1740 1409 1790.5 1423.5Q1841 1438 1909 1438Q1984 1438 2049.5 1409.5Q2115 1381 2163.5 1332.5Q2212 1284 2240.5 1218.5Q2269 1153 2269 1078Q2269 991 2254.5 917.0Q2240 843 2212.5 775.0Q2185 707 2145.0 642.5Q2105 578 2054 511L1975 645Q2049 736 2087.5 849.0Q2126 962 2126 1078Q2126 1123 2109.0 1162.0Q2092 1201 2062.5 1230.5Q2033 1260 1993.5 1277.0Q1954 1294 1909 1294Z" style="fill:#d48c00;stroke:none" transform="scale(1,-1) translate(0,-256)" /></svg>