<?xml version="1.0" encoding="utf-8" ?>
<svg baseProfile="full" height="256" version="1.1" width="256" xmlns="http://www.w3.org/2000/svg" xmlns:ev="http://www.w3.org/2001/xml-events" xmlns:xlink="http://www.w3.org/1999/xlink"><defs /><path d="M2321 73Q2341 39 2341 0Q2341 -38 2321.5 -71.0Q2302 -104 2269 -124L1908 209Q1793 141 1666.0 106.5Q1539 72 1406 72Q1273 72 1146.0 106.5Q1019 141 904 209L543 -124Q510 -104 490.5 -71.0Q471 -38 471 0Q471 39 491 73L676 389Q654 410 636.5 434.0Q619 458 601 482Q503 615 451.5 763.5Q400 912 400 1078Q400 1182 439.5 1273.5Q479 1365 547.0 1433.5Q615 1502 707.0 1541.5Q799 1581 903 1581Q1012 1581 1113.0 1543.5Q1214 1506 1292 1428L1406 1314L1520 1428Q1598 1506 1698.5 1543.5Q1799 1581 1908 1581Q2012 1581 2104.0 1541.5Q2196 1502 2264.5 1434.0Q2333 1366 2372.5 1274.5Q2412 1183 2412 1078Q2412 916 2360.5 763.5Q2309 611 2211 482Q2193 458 2175.0 434.0Q2157 410 2136 389ZM1015 445Q1096 384 1194.0 357.0Q1292 330 1392 330Q1501 330 1610.0 357.5Q1719 385 1813 439Q1722 575 1618.5 701.5Q1515 828 1405 949Q1297 831 1200.5 704.0Q1104 577 1015 445ZM2047 649Q2083 697 2107.5 750.5Q2132 804 2147.5 861.0Q2163 918 2170.0 977.0Q2177 1036 2177 1095Q2177 1141 2152.0 1182.0Q2127 1223 2089.5 1255.0Q2052 1287 2007.5 1310.0Q1963 1333 1923 1345Q1908 1349 1889 1349Q1860 1349 1825.5 1338.0Q1791 1327 1757.5 1310.0Q1724 1293 1693.5 1272.0Q1663 1251 1643 1231L1607 1108Q1808 889 1974 645ZM838 645Q1004 889 1205 1108L1211 1193Q1183 1221 1149.0 1249.0Q1115 1277 1077.5 1300.0Q1040 1323 999.5 1337.5Q959 1352 918 1352Q873 1352 824.0 1330.5Q775 1309 733.5 1274.0Q692 1239 665.5 1194.0Q639 1149 639 1101Q639 1042 649.5 982.5Q660 923 679.5 866.0Q699 809 727.5 755.5Q756 702 791 655Z" style="fill:#eba300;stroke:none" transform="scale(1,-1) translate(0,-256)" /></svg>