<?xml version="1.0" encoding="utf-8" ?>
<svg baseProfile="full" height="256" version="1.1" width="256" xmlns="http://www.w3.org/2000/svg" xmlns:ev="http://www.w3.org/2001/xml-events" xmlns:xlink="http://www.w3.org/1999/xlink"><defs /><path d="M472 360 471 1581Q471 1611 492.0 1632.0Q513 1653 543 1653H1693Q1723 1653 1744.0 1632.0Q1765 1611 1765 1581V503Q1735 478 1695.0 448.5Q1655 419 1609.5 389.5Q1564 360 1514.5 332.5Q1465 305 1416.0 283.5Q1367 262 1320.5 249.5Q1274 237 1234 237Q1148 237 1047.5 243.5Q947 250 845.0 264.0Q743 278 646.5 301.5Q550 325 472 360Z" style="fill:#f03a17;stroke:none" transform="scale(1,-1) translate(0,-256)" /></svg>