<?xml version="1.0" encoding="utf-8" ?>
<svg baseProfile="full" height="256" version="1.1" width="256" xmlns="http://www.w3.org/2000/svg" xmlns:ev="http://www.w3.org/2001/xml-events" xmlns:xlink="http://www.w3.org/1999/xlink"><defs /><path d="M831 1114Q831 1196 862.0 1268.0Q893 1340 946.5 1394.0Q1000 1448 1072.0 1479.0Q1144 1510 1226 1510Q1308 1510 1380.0 1479.0Q1452 1448 1506.0 1394.0Q1560 1340 1591.0 1268.0Q1622 1196 1622 1114Q1622 1032 1591.0 960.0Q1560 888 1506.0 834.5Q1452 781 1380.0 750.0Q1308 719 1226 719Q1144 719 1072.0 750.0Q1000 781 946.5 834.5Q893 888 862.0 960.0Q831 1032 831 1114Z" style="fill:#f2f2f2;stroke:none" transform="scale(1,-1) translate(0,-256)" /></svg>