<?xml version="1.0" encoding="utf-8" ?>
<svg baseProfile="full" height="256" version="1.1" width="256" xmlns="http://www.w3.org/2000/svg" xmlns:ev="http://www.w3.org/2001/xml-events" xmlns:xlink="http://www.w3.org/1999/xlink"><defs /><path d="M1262 -217 615 143H431L400 216V431Q400 516 437.0 591.0Q474 666 543 717V1725H687Q701 1711 718.5 1705.0Q736 1699 756 1699Q799 1699 831 1725H1479L1262 647V575Q1262 456 1307.5 351.5Q1353 247 1431.0 169.0Q1509 91 1613.5 45.5Q1718 0 1837 0H1909Q1939 0 1965.0 -11.5Q1991 -23 2010.5 -42.5Q2030 -62 2041.5 -88.0Q2053 -114 2053 -144L1976 -216Z" style="fill:#ca5010;stroke:none" transform="scale(1,-1) translate(0,-256)" /></svg>