<?xml version="1.0" encoding="utf-8" ?>
<svg baseProfile="full" height="256" version="1.1" width="256" xmlns="http://www.w3.org/2000/svg" xmlns:ev="http://www.w3.org/2001/xml-events" xmlns:xlink="http://www.w3.org/1999/xlink"><defs /><path d="M543 -144 721 -64H2137L2268 -144V-215H543ZM1283 1294 985 1592Q974 1603 974 1617Q974 1631 985.0 1642.0Q996 1653 1010 1653Q1026 1653 1036 1643L1385 1294H1427L1776 1643Q1786 1653 1801 1653Q1816 1653 1826.5 1642.5Q1837 1632 1837 1617Q1837 1602 1827 1592L1529 1294Q1547 1294 1564.0 1290.5Q1581 1287 1593.5 1279.0Q1606 1271 1614.0 1257.0Q1622 1243 1622 1222L1559 1169H1250L1190 1222Q1190 1243 1198.0 1257.0Q1206 1271 1218.5 1279.0Q1231 1287 1248.0 1290.5Q1265 1294 1283 1294Z" style="fill:#e5e5e5;stroke:none" transform="scale(1,-1) translate(0,-256)" /></svg>