<?xml version="1.0" encoding="utf-8" ?>
<svg baseProfile="full" height="256" version="1.1" width="256" xmlns="http://www.w3.org/2000/svg" xmlns:ev="http://www.w3.org/2001/xml-events" xmlns:xlink="http://www.w3.org/1999/xlink"><defs /><path d="M2197 575Q2227 575 2253.0 563.5Q2279 552 2298.5 532.5Q2318 513 2329.0 487.0Q2340 461 2340 431Q2340 401 2329.0 375.0Q2318 349 2298.5 329.5Q2279 310 2253.0 299.0Q2227 288 2197 288Q2167 288 2141.0 299.0Q2115 310 2095.5 329.5Q2076 349 2064.5 375.0Q2053 401 2053 431Q2053 461 2064.0 487.0Q2075 513 2094.5 532.5Q2114 552 2140.5 563.5Q2167 575 2197 575Z" style="fill:#757575;stroke:none" transform="scale(1,-1) translate(0,-256)" /></svg>