<?xml version="1.0" encoding="utf-8" ?>
<svg baseProfile="full" height="256" version="1.1" width="256" xmlns="http://www.w3.org/2000/svg" xmlns:ev="http://www.w3.org/2001/xml-events" xmlns:xlink="http://www.w3.org/1999/xlink"><defs /><path d="M1804 1366H2340Q2385 1366 2424.0 1349.0Q2463 1332 2492.5 1302.5Q2522 1273 2539.0 1233.5Q2556 1194 2556 1149V-71Q2556 -106 2545.5 -137.5Q2535 -169 2516.0 -195.5Q2497 -222 2470.5 -242.5Q2444 -263 2412 -275V-359H400V-275Q368 -263 341.5 -242.5Q315 -222 296.0 -195.5Q277 -169 266.5 -137.5Q256 -106 256 -71V1149Q256 1194 273.0 1233.5Q290 1273 319.5 1302.5Q349 1332 388.0 1349.0Q427 1366 472 1366H1008Q977 1397 945.5 1427.5Q914 1458 884 1490Q860 1516 845.5 1548.5Q831 1581 831 1617Q831 1654 845.0 1687.0Q859 1720 883.5 1744.5Q908 1769 940.5 1783.0Q973 1797 1011 1797Q1047 1797 1079.5 1783.5Q1112 1770 1138 1744L1406 1476L1674 1744Q1727 1797 1801 1797Q1838 1797 1870.5 1783.0Q1903 1769 1927.5 1744.5Q1952 1720 1966.0 1687.0Q1980 1654 1980 1617Q1980 1581 1966.0 1548.5Q1952 1516 1928 1490Q1898 1458 1866.5 1427.5Q1835 1397 1804 1366Z" style="fill:#000000;stroke:none" transform="scale(1,-1) translate(0,-256)" /></svg>