<?xml version="1.0" encoding="utf-8" ?>
<svg baseProfile="full" height="256" version="1.1" width="256" xmlns="http://www.w3.org/2000/svg" xmlns:ev="http://www.w3.org/2001/xml-events" xmlns:xlink="http://www.w3.org/1999/xlink"><defs /><path d="M903 -431Q849 -431 786.0 -423.5Q723 -416 659.0 -398.5Q595 -381 535.5 -353.5Q476 -326 429.5 -286.0Q383 -246 355.5 -193.0Q328 -140 328 -72V0Q328 72 361.0 128.0Q394 184 446.0 225.5Q498 267 561.5 294.5Q625 322 687 336V398Q592 434 512.5 499.0Q433 564 376.0 648.5Q319 733 287.5 831.0Q256 929 256 1030V1510Q256 1581 290.5 1635.5Q325 1690 378.5 1730.5Q432 1771 496.5 1797.5Q561 1824 620 1838Q689 1855 760.0 1862.0Q831 1869 903 1869Q975 1869 1046.0 1862.0Q1117 1855 1186 1838Q1245 1824 1309.5 1797.5Q1374 1771 1427.5 1730.5Q1481 1690 1515.5 1635.5Q1550 1581 1550 1510V1030Q1550 928 1518.5 830.0Q1487 732 1430.0 648.0Q1373 564 1293.5 499.0Q1214 434 1118 398V336Q1179 322 1243.0 294.5Q1307 267 1359.5 226.0Q1412 185 1445.0 128.5Q1478 72 1478 0V-72Q1478 -140 1450.5 -193.0Q1423 -246 1376.5 -286.0Q1330 -326 1270.5 -353.5Q1211 -381 1147.0 -398.5Q1083 -416 1020.0 -423.5Q957 -431 903 -431Z" style="fill:#000000;stroke:none" transform="scale(1,-1) translate(0,-256)" /></svg>