<?xml version="1.0" encoding="utf-8" ?>
<svg baseProfile="full" height="256" version="1.1" width="256" xmlns="http://www.w3.org/2000/svg" xmlns:ev="http://www.w3.org/2001/xml-events" xmlns:xlink="http://www.w3.org/1999/xlink"><defs /><path d="M903 1313Q865 1313 806.5 1321.5Q748 1330 687.5 1344.0Q627 1358 571.5 1376.0Q516 1394 484 1413Q485 1420 491.5 1421.0Q498 1422 503 1424Q518 1431 532.5 1438.5Q547 1446 563 1453Q641 1484 729.5 1497.0Q818 1510 903 1510Q986 1510 1073.5 1497.5Q1161 1485 1238 1455Q1255 1448 1269.5 1440.5Q1284 1433 1300 1426Q1305 1424 1312.0 1423.0Q1319 1422 1319 1415Q1319 1414 1314.0 1411.5Q1309 1409 1303.0 1406.0Q1297 1403 1291.0 1400.5Q1285 1398 1283 1397Q1242 1380 1194.0 1365.0Q1146 1350 1096.0 1338.5Q1046 1327 996.5 1320.0Q947 1313 903 1313Z" style="fill:#c30052;stroke:none" transform="scale(1,-1) translate(0,-256)" /></svg>