<?xml version="1.0" encoding="utf-8" ?>
<svg baseProfile="full" height="256" version="1.1" width="256" xmlns="http://www.w3.org/2000/svg" xmlns:ev="http://www.w3.org/2001/xml-events" xmlns:xlink="http://www.w3.org/1999/xlink"><defs /><path d="M903 1671Q862 1671 818.5 1668.0Q775 1665 732.0 1658.5Q689 1652 647.0 1640.5Q605 1629 568 1612Q554 1606 534.5 1596.0Q515 1586 497.0 1572.5Q479 1559 466.5 1543.0Q454 1527 454 1510Q454 1492 466.5 1476.0Q479 1460 497.0 1446.5Q515 1433 534.5 1423.0Q554 1413 568 1407Q644 1373 732.0 1360.5Q820 1348 903 1348Q986 1348 1073.0 1360.5Q1160 1373 1237 1407Q1251 1413 1270.5 1423.0Q1290 1433 1308.0 1446.5Q1326 1460 1339.0 1476.0Q1352 1492 1352 1510Q1352 1527 1339.0 1543.0Q1326 1559 1308.0 1572.5Q1290 1586 1270.0 1596.0Q1250 1606 1237 1612Q1161 1646 1073.5 1658.5Q986 1671 903 1671ZM903 1725Q1010 1725 1111 1706Q1134 1702 1165.0 1694.0Q1196 1686 1229.0 1674.0Q1262 1662 1293.5 1646.0Q1325 1630 1350.0 1609.5Q1375 1589 1390.5 1564.0Q1406 1539 1406 1510Q1406 1464 1371.5 1429.5Q1337 1395 1288.0 1371.0Q1239 1347 1187.0 1332.0Q1135 1317 1099 1311Q1050 1302 1001.5 1298.0Q953 1294 903 1294Q853 1294 804.5 1298.0Q756 1302 707 1311Q671 1317 619.0 1332.0Q567 1347 518.0 1371.0Q469 1395 434.5 1429.5Q400 1464 400 1510Q400 1539 415.5 1564.0Q431 1589 456.0 1609.5Q481 1630 512.5 1646.0Q544 1662 577.0 1674.0Q610 1686 641.0 1694.0Q672 1702 695 1706Q796 1725 903 1725Z" style="fill:#f2f2f2;stroke:none" transform="scale(1,-1) translate(0,-256)" /></svg>