<?xml version="1.0" encoding="utf-8" ?>
<svg baseProfile="full" height="256" version="1.1" width="256" xmlns="http://www.w3.org/2000/svg" xmlns:ev="http://www.w3.org/2001/xml-events" xmlns:xlink="http://www.w3.org/1999/xlink"><defs /><path d="M1334 0Q1334 -53 1313.5 -92.0Q1293 -131 1258.5 -159.0Q1224 -187 1179.5 -205.5Q1135 -224 1087.0 -234.5Q1039 -245 991.0 -249.0Q943 -253 903 -253Q864 -253 817.0 -248.0Q770 -243 722.0 -231.5Q674 -220 629.0 -201.5Q584 -183 549.0 -154.5Q514 -126 493.0 -88.0Q472 -50 472 0Q472 36 491.0 65.5Q510 95 540.5 118.0Q571 141 609.5 157.5Q648 174 688.0 186.0Q728 198 765.5 204.5Q803 211 831 213V575H939V217Q979 212 1019.0 207.5Q1059 203 1098 193Q1131 185 1172.0 169.0Q1213 153 1249.0 129.0Q1285 105 1309.5 72.5Q1334 40 1334 0Z" style="fill:#f2f2f2;stroke:none" transform="scale(1,-1) translate(0,-256)" /></svg>