<?xml version="1.0" encoding="utf-8" ?>
<svg baseProfile="full" height="256" version="1.1" width="256" xmlns="http://www.w3.org/2000/svg" xmlns:ev="http://www.w3.org/2001/xml-events" xmlns:xlink="http://www.w3.org/1999/xlink"><defs /><path d="M1339 1402Q1365 1383 1385.5 1355.5Q1406 1328 1406 1294Q1406 1249 1371.5 1214.5Q1337 1180 1288.0 1155.5Q1239 1131 1187.0 1116.0Q1135 1101 1099 1095Q1050 1086 1001.5 1082.0Q953 1078 903 1078Q853 1078 804.5 1082.0Q756 1086 707 1095Q671 1101 619.0 1116.0Q567 1131 518.0 1155.5Q469 1180 434.5 1214.5Q400 1249 400 1294Q400 1328 420.5 1355.5Q441 1383 467 1402Q574 1370 682.0 1345.0Q790 1320 903 1320Q962 1320 1016.5 1325.0Q1071 1330 1124.5 1340.5Q1178 1351 1231.0 1366.5Q1284 1382 1339 1402ZM615 899Q615 913 626.0 924.0Q637 935 651 935Q665 935 676.0 924.0Q687 913 687 899Q687 884 676.5 873.5Q666 863 651 863Q636 863 625.5 873.5Q615 884 615 899ZM759 683Q759 698 769.5 708.5Q780 719 795 719Q810 719 820.5 708.5Q831 698 831 683Q831 668 820.5 657.5Q810 647 795 647Q780 647 769.5 657.5Q759 668 759 683ZM615 755Q615 770 625.5 780.5Q636 791 651 791Q666 791 676.5 780.5Q687 770 687 755Q687 740 676.5 729.5Q666 719 651 719Q636 719 625.5 729.5Q615 740 615 755Z" style="fill:#ea005e;stroke:none" transform="scale(1,-1) translate(0,-256)" /></svg>