<?xml version="1.0" encoding="utf-8" ?>
<svg baseProfile="full" height="256" version="1.1" width="256" xmlns="http://www.w3.org/2000/svg" xmlns:ev="http://www.w3.org/2001/xml-events" xmlns:xlink="http://www.w3.org/1999/xlink"><defs /><path d="M903 1689Q965 1689 1037.0 1682.0Q1109 1675 1178.5 1655.0Q1248 1635 1308.0 1600.0Q1368 1565 1406 1510V1294H400V1510Q420 1547 454.5 1574.5Q489 1602 532.5 1622.0Q576 1642 625.0 1655.0Q674 1668 723.5 1675.5Q773 1683 819.0 1686.0Q865 1689 903 1689ZM903 -215Q946 -215 987.5 -211.0Q1029 -207 1071 -198Q1106 -191 1151.5 -175.5Q1197 -160 1237.5 -135.5Q1278 -111 1306.0 -77.5Q1334 -44 1334 0V-72Q1334 -116 1306.0 -149.5Q1278 -183 1237.5 -207.5Q1197 -232 1151.5 -247.5Q1106 -263 1071 -270Q1029 -279 987.5 -283.0Q946 -287 903 -287Q860 -287 818.5 -283.0Q777 -279 735 -270Q700 -263 654.5 -247.5Q609 -232 568.5 -207.5Q528 -183 500.0 -149.5Q472 -116 472 -72V0Q472 -42 495.5 -74.0Q519 -106 556.5 -130.0Q594 -154 641.5 -170.0Q689 -186 736.5 -196.0Q784 -206 828.0 -210.5Q872 -215 903 -215ZM903 575H975V72Q975 42 954.0 21.0Q933 0 903 0Z" style="fill:#cccccc;stroke:none" transform="scale(1,-1) translate(0,-256)" /></svg>