<?xml version="1.0" encoding="utf-8" ?>
<svg baseProfile="full" height="256" version="1.1" width="256" xmlns="http://www.w3.org/2000/svg" xmlns:ev="http://www.w3.org/2001/xml-events" xmlns:xlink="http://www.w3.org/1999/xlink"><defs /><path d="M1127 -73Q1089 -87 1050.0 -95.0Q1011 -103 970 -103Q896 -103 831.0 -75.0Q766 -47 717.5 2.0Q669 51 641.0 116.0Q613 181 613 255Q613 334 654 401Q644 399 634.0 398.0Q624 397 613 397Q539 397 474.0 425.0Q409 453 360.5 502.0Q312 551 284.0 616.0Q256 681 256 755Q256 844 290.0 922.0Q324 1000 382.0 1058.0Q440 1116 518.0 1149.5Q596 1183 685 1183Q834 1183 970 1124Q971 1226 995.0 1319.0Q1019 1412 1063.0 1496.0Q1107 1580 1169.0 1654.5Q1231 1729 1308 1793L1399 1869L1490 1793Q1566 1729 1627.5 1654.0Q1689 1579 1733.0 1495.0Q1777 1411 1801.5 1318.0Q1826 1225 1828 1124Q1964 1183 2113 1183Q2201 1183 2279.5 1149.5Q2358 1116 2416.0 1058.0Q2474 1000 2508.0 922.0Q2542 844 2542 755Q2542 681 2514.0 616.0Q2486 551 2437.5 502.0Q2389 453 2324.0 425.0Q2259 397 2185 397Q2174 397 2164.0 398.0Q2154 399 2144 401Q2185 334 2185 255Q2185 181 2157.0 116.0Q2129 51 2080.5 2.0Q2032 -47 1967.0 -75.0Q1902 -103 1828 -103Q1787 -103 1748.0 -95.0Q1709 -87 1671 -73Q1657 -134 1632.0 -181.5Q1607 -229 1573.5 -269.5Q1540 -310 1499.5 -346.0Q1459 -382 1414 -419L1399 -431L1384 -419Q1339 -382 1298.5 -346.0Q1258 -310 1224.5 -269.5Q1191 -229 1166.0 -181.5Q1141 -134 1127 -73Z" style="fill:#000000;stroke:none" transform="scale(1,-1) translate(0,-256)" /></svg>