<?xml version="1.0" encoding="utf-8" ?>
<svg baseProfile="full" height="256" version="1.1" width="256" xmlns="http://www.w3.org/2000/svg" xmlns:ev="http://www.w3.org/2001/xml-events" xmlns:xlink="http://www.w3.org/1999/xlink"><defs /><path d="M1256 469Q1285 469 1306.5 489.5Q1328 510 1328 540V683Q1328 722 1312.0 751.5Q1296 781 1272.0 808.0Q1248 835 1220.5 862.5Q1193 890 1169.0 924.5Q1145 959 1129.0 1004.5Q1113 1050 1113 1112Q1113 1197 1133.5 1277.0Q1154 1357 1191.5 1429.5Q1229 1502 1281.5 1566.0Q1334 1630 1399 1683Q1464 1630 1516.5 1566.0Q1569 1502 1606.5 1429.5Q1644 1357 1664.5 1277.0Q1685 1197 1685 1112Q1685 1050 1669.0 1004.5Q1653 959 1629.0 924.5Q1605 890 1577.5 862.5Q1550 835 1526.0 808.0Q1502 781 1486.0 751.5Q1470 722 1470 683V540Q1470 510 1491.5 489.5Q1513 469 1542 469Q1542 587 1587.0 691.0Q1632 795 1709.5 872.5Q1787 950 1891.0 995.0Q1995 1040 2113 1040Q2172 1040 2224.0 1017.5Q2276 995 2315.0 956.5Q2354 918 2376.5 866.0Q2399 814 2399 755Q2399 711 2382.0 672.0Q2365 633 2336.0 603.5Q2307 574 2268.0 557.0Q2229 540 2185 540Q2155 540 2134.0 561.0Q2113 582 2113 612Q2142 612 2163.5 632.5Q2185 653 2185 683Q2185 713 2174.0 739.0Q2163 765 2143.5 784.5Q2124 804 2098.0 815.0Q2072 826 2042 826Q1968 826 1903.0 798.0Q1838 770 1789.5 721.5Q1741 673 1713.0 608.0Q1685 543 1685 469Q1714 469 1735.0 447.5Q1756 426 1756 397Q1756 368 1735.0 347.0Q1714 326 1685 326Q1685 297 1706.0 276.0Q1727 255 1756 255Q1785 255 1811.0 266.5Q1837 278 1856.5 297.5Q1876 317 1887.5 342.5Q1899 368 1899 397Q1929 397 1955.0 386.0Q1981 375 2000.5 356.0Q2020 337 2031.0 311.0Q2042 285 2042 255Q2042 211 2025.0 172.0Q2008 133 1979.0 103.5Q1950 74 1911.0 57.0Q1872 40 1828 40Q1769 40 1717.0 62.5Q1665 85 1626.0 124.0Q1587 163 1564.5 215.0Q1542 267 1542 326Q1518 326 1503.5 317.0Q1489 308 1481.5 294.0Q1474 280 1471.5 261.5Q1469 243 1469 224Q1469 214 1469.0 203.5Q1469 193 1470 183Q1471 155 1482.5 139.0Q1494 123 1507.5 109.5Q1521 96 1531.5 81.0Q1542 66 1542 40Q1542 -45 1503.0 -118.0Q1464 -191 1399 -245Q1334 -191 1295.0 -118.0Q1256 -45 1256 40Q1256 66 1267.0 82.0Q1278 98 1291.5 111.5Q1305 125 1316.5 141.0Q1328 157 1328 183V255Q1328 285 1306.5 305.5Q1285 326 1256 326Q1256 267 1233.5 215.0Q1211 163 1172.0 124.0Q1133 85 1081.0 62.5Q1029 40 970 40Q926 40 887.0 57.0Q848 74 819.0 103.5Q790 133 773.0 172.0Q756 211 756 255Q756 285 767.0 311.0Q778 337 797.5 356.0Q817 375 843.0 386.0Q869 397 899 397Q899 368 910.5 342.5Q922 317 941.5 297.5Q961 278 987.0 266.5Q1013 255 1042 255Q1071 255 1092.0 276.0Q1113 297 1113 326Q1084 326 1063.0 347.0Q1042 368 1042 397Q1042 426 1063.0 447.5Q1084 469 1113 469Q1113 543 1085.0 608.0Q1057 673 1008.5 721.5Q960 770 895.0 798.0Q830 826 756 826Q726 826 700.0 815.0Q674 804 654.5 784.5Q635 765 624.0 739.0Q613 713 613 683Q613 653 634.5 632.5Q656 612 685 612Q685 582 664.0 561.0Q643 540 613 540Q569 540 530.0 557.0Q491 574 462.0 603.5Q433 633 416.0 672.0Q399 711 399 755Q399 814 421.5 866.0Q444 918 483.0 956.5Q522 995 574.0 1017.5Q626 1040 685 1040Q764 1040 837.0 1019.5Q910 999 973.5 962.0Q1037 925 1089.0 873.0Q1141 821 1178.0 757.5Q1215 694 1235.5 621.0Q1256 548 1256 469Z" style="fill:#ffb900;stroke:none" transform="scale(1,-1) translate(0,-256)" /></svg>