<?xml version="1.0" encoding="utf-8" ?>
<svg baseProfile="full" height="256" version="1.1" width="256" xmlns="http://www.w3.org/2000/svg" xmlns:ev="http://www.w3.org/2001/xml-events" xmlns:xlink="http://www.w3.org/1999/xlink"><defs /><path d="M2268 -215H1693L1658 -163L1622 -215H1046L1007 -166L975 -215H400V-72L497 131L400 144V360L461 397L400 431V1007L467 1048L400 1078V1653H975L1011 1592L1046 1653H1622L1657 1595L1693 1653H2268V1437L2180 1250L2268 1222V1078L2216 1046L2268 1006V431L2216 398L2268 360Z" style="fill:#f2f2f2;stroke:none" transform="scale(1,-1) translate(0,-256)" /></svg>