<?xml version="1.0" encoding="utf-8" ?>
<svg baseProfile="full" height="256" version="1.1" width="256" xmlns="http://www.w3.org/2000/svg" xmlns:ev="http://www.w3.org/2001/xml-events" xmlns:xlink="http://www.w3.org/1999/xlink"><defs /><path d="M1510 39V492H1671Q1727 492 1771.5 479.5Q1816 467 1847.5 440.5Q1879 414 1895.5 372.0Q1912 330 1912 271Q1912 217 1894.0 174.0Q1876 131 1844.0 101.0Q1812 71 1767.5 55.0Q1723 39 1671 39ZM1567 815V1268H1732Q1757 1268 1785.0 1263.5Q1813 1259 1836.0 1247.0Q1859 1235 1874.0 1214.5Q1889 1194 1889 1162Q1889 1123 1862.5 1096.5Q1836 1070 1801 1060Q1846 1053 1876.5 1025.5Q1907 998 1907 950Q1907 914 1893.0 888.5Q1879 863 1856.0 846.5Q1833 830 1803.0 822.5Q1773 815 1741 815ZM1332 815H1221L1189 916H1027L996 815H885L1050 1268H1171ZM1253 55Q1223 41 1189.5 36.0Q1156 31 1123 31Q1017 31 958.5 91.0Q900 151 900 256Q900 310 917.5 354.5Q935 399 966.5 431.0Q998 463 1042.5 481.0Q1087 499 1141 499Q1170 499 1198.0 496.0Q1226 493 1253 483V384Q1230 399 1203.0 405.5Q1176 412 1149 412Q1116 412 1089.5 401.0Q1063 390 1044.5 370.0Q1026 350 1016.5 322.5Q1007 295 1007 263Q1007 199 1042.5 159.0Q1078 119 1144 119Q1203 119 1253 148ZM1612 409V122H1663Q1732 122 1768.5 162.5Q1805 203 1805 270Q1805 337 1766.5 373.0Q1728 409 1662 409ZM1669 1010V890H1724Q1753 890 1776.5 904.5Q1800 919 1800 952Q1800 983 1776.0 996.5Q1752 1010 1725 1010ZM1669 1193V1085H1714Q1741 1085 1761.5 1099.0Q1782 1113 1782 1143Q1782 1159 1775.0 1168.5Q1768 1178 1757.0 1183.5Q1746 1189 1733.0 1191.0Q1720 1193 1707 1193ZM1165 994Q1150 1040 1131.0 1089.5Q1112 1139 1109 1187Q1099 1136 1082.0 1089.0Q1065 1042 1049 994Z" style="fill:#ffffff;stroke:none" transform="scale(1,-1) translate(0,-256)" /></svg>