<?xml version="1.0" encoding="utf-8" ?>
<svg baseProfile="full" height="256" version="1.1" width="256" xmlns="http://www.w3.org/2000/svg" xmlns:ev="http://www.w3.org/2001/xml-events" xmlns:xlink="http://www.w3.org/1999/xlink"><defs /><path d="M400 1438Q400 1468 411.0 1494.0Q422 1520 441.5 1539.5Q461 1559 487.0 1570.0Q513 1581 543 1581Q543 1611 554.5 1637.0Q566 1663 585.5 1682.5Q605 1702 631.0 1713.5Q657 1725 687 1725Q717 1725 743.0 1713.5Q769 1702 788.5 1682.5Q808 1663 819.5 1637.0Q831 1611 831 1581Q831 1514 856.0 1453.0Q881 1392 926 1342Q937 1328 950.0 1317.0Q963 1306 975 1294L1190 1078L1047 935L831 1150Q819 1162 808.0 1175.0Q797 1188 783 1199Q733 1244 672.0 1269.0Q611 1294 543 1294Q513 1294 487.0 1305.5Q461 1317 441.5 1336.5Q422 1356 411.0 1382.0Q400 1408 400 1438Z" style="fill:#f2f2f2;stroke:none" transform="scale(1,-1) translate(0,-256)" /></svg>