<?xml version="1.0" encoding="utf-8" ?>
<svg baseProfile="full" height="256" version="1.1" width="256" xmlns="http://www.w3.org/2000/svg" xmlns:ev="http://www.w3.org/2001/xml-events" xmlns:xlink="http://www.w3.org/1999/xlink"><defs /><path d="M759 939V1019Q734 1043 712.0 1066.5Q690 1090 665.5 1108.5Q641 1127 611.5 1138.5Q582 1150 543 1150Q484 1150 431.5 1173.0Q379 1196 340.0 1235.0Q301 1274 278.5 1326.5Q256 1379 256 1438Q256 1480 268.0 1520.0Q280 1560 302.0 1594.0Q324 1628 355.0 1655.5Q386 1683 425 1700Q443 1738 470.0 1769.5Q497 1801 531.5 1823.0Q566 1845 605.5 1857.0Q645 1869 687 1869Q747 1869 799.5 1846.5Q852 1824 891.0 1785.0Q930 1746 952.5 1693.5Q975 1641 975 1581Q975 1542 986.5 1513.0Q998 1484 1016.5 1459.5Q1035 1435 1058.5 1412.5Q1082 1390 1106 1366H1186L1229 1314Q1287 1245 1355.0 1188.0Q1423 1131 1499.5 1090.5Q1576 1050 1660.5 1028.0Q1745 1006 1837 1006Q1936 1006 2028.0 980.5Q2120 955 2199.5 908.0Q2279 861 2345.0 795.5Q2411 730 2457.5 650.0Q2504 570 2530.0 478.5Q2556 387 2556 288Q2556 189 2530.5 97.0Q2505 5 2458.0 -75.0Q2411 -155 2345.5 -220.5Q2280 -286 2200.0 -333.0Q2120 -380 2028.0 -405.5Q1936 -431 1837 -431Q1688 -431 1557.5 -374.5Q1427 -318 1329.0 -220.0Q1231 -122 1174.5 8.5Q1118 139 1118 288Q1118 380 1096.0 464.5Q1074 549 1033.5 625.5Q993 702 936.5 770.0Q880 838 811 896Z" style="fill:#000000;stroke:none" transform="scale(1,-1) translate(0,-256)" /></svg>