<?xml version="1.0" encoding="utf-8" ?>
<svg baseProfile="full" height="256" version="1.1" width="256" xmlns="http://www.w3.org/2000/svg" xmlns:ev="http://www.w3.org/2001/xml-events" xmlns:xlink="http://www.w3.org/1999/xlink"><defs /><path d="M2125 467Q2125 482 2135.5 492.5Q2146 503 2161 503Q2175 503 2186.0 492.0Q2197 481 2197 467Q2197 453 2186.0 442.0Q2175 431 2161 431Q2147 431 2136.0 442.0Q2125 453 2125 467ZM1981 611Q1981 626 1991.5 636.5Q2002 647 2017 647Q2032 647 2042.5 636.5Q2053 626 2053 611Q2053 596 2042.5 585.5Q2032 575 2017 575Q2002 575 1991.5 585.5Q1981 596 1981 611ZM2125 611Q2125 626 2135.5 636.5Q2146 647 2161 647Q2175 647 2186.0 636.0Q2197 625 2197 611Q2197 597 2186.0 586.0Q2175 575 2161 575Q2146 575 2135.5 585.5Q2125 596 2125 611Z" style="fill:#ee9889;stroke:none" transform="scale(1,-1) translate(0,-256)" /></svg>