<?xml version="1.0" encoding="utf-8" ?>
<svg baseProfile="full" height="256" version="1.1" width="256" xmlns="http://www.w3.org/2000/svg" xmlns:ev="http://www.w3.org/2001/xml-events" xmlns:xlink="http://www.w3.org/1999/xlink"><defs /><path d="M903 1006H975V1078H1047V1150H1118V1222Q1185 1141 1266.0 1074.5Q1347 1008 1438.0 961.0Q1529 914 1629.5 888.5Q1730 863 1837 863Q1956 863 2060.5 817.5Q2165 772 2243.0 694.0Q2321 616 2366.5 511.5Q2412 407 2412 288Q2412 169 2367.0 64.0Q2322 -41 2244.0 -119.0Q2166 -197 2061.0 -242.0Q1956 -287 1837 -287Q1718 -287 1613.5 -241.5Q1509 -196 1431.0 -118.0Q1353 -40 1307.5 64.5Q1262 169 1262 288Q1262 395 1236.5 495.5Q1211 596 1164.0 687.0Q1117 778 1050.5 858.5Q984 939 903 1006Z" style="fill:#ca5010;stroke:none" transform="scale(1,-1) translate(0,-256)" /></svg>