<?xml version="1.0" encoding="utf-8" ?>
<svg baseProfile="full" height="256" version="1.1" width="256" xmlns="http://www.w3.org/2000/svg" xmlns:ev="http://www.w3.org/2001/xml-events" xmlns:xlink="http://www.w3.org/1999/xlink"><defs /><path d="M687 1006Q715 1006 738 985L810 914Q831 894 831 863Q831 833 810.0 812.0Q789 791 759 791Q729 791 708 812L636 884Q615 905 615 934Q615 963 636.5 984.5Q658 1006 687 1006ZM1909 935Q1939 935 1960 914L2032 842Q2053 821 2053 791Q2053 761 2032.0 740.0Q2011 719 1981 719Q1951 719 1930 740L1858 812Q1837 833 1837 863Q1837 892 1858.5 913.5Q1880 935 1909 935Z" style="fill:#f7b189;stroke:none" transform="scale(1,-1) translate(0,-256)" /></svg>