<?xml version="1.0" encoding="utf-8" ?>
<svg baseProfile="full" height="256" version="1.1" width="256" xmlns="http://www.w3.org/2000/svg" xmlns:ev="http://www.w3.org/2001/xml-events" xmlns:xlink="http://www.w3.org/1999/xlink"><defs /><path d="M2268 719Q2268 592 2232.5 467.5Q2197 343 2132.0 233.0Q2067 123 1973.5 34.0Q1880 -55 1765 -110Q1731 -127 1694 -127Q1649 -127 1606.0 -111.0Q1563 -95 1520.0 -75.5Q1477 -56 1432.0 -40.0Q1387 -24 1339 -24Q1289 -24 1243.5 -40.0Q1198 -56 1153.5 -75.5Q1109 -95 1065.0 -111.0Q1021 -127 975 -127Q956 -127 938.0 -122.5Q920 -118 903 -110Q787 -56 694.0 33.0Q601 122 535.5 233.0Q470 344 435.0 469.0Q400 594 400 719Q400 848 433.5 967.5Q467 1087 527.5 1190.5Q588 1294 673.5 1379.5Q759 1465 862.5 1525.5Q966 1586 1085.5 1619.5Q1205 1653 1334 1653Q1463 1653 1582.5 1619.5Q1702 1586 1805.5 1525.5Q1909 1465 1994.5 1379.5Q2080 1294 2140.5 1190.5Q2201 1087 2234.5 967.5Q2268 848 2268 719Z" style="fill:#f7630c;stroke:none" transform="scale(1,-1) translate(0,-256)" /></svg>