<?xml version="1.0" encoding="utf-8" ?>
<svg baseProfile="full" height="256" version="1.1" width="256" xmlns="http://www.w3.org/2000/svg" xmlns:ev="http://www.w3.org/2001/xml-events" xmlns:xlink="http://www.w3.org/1999/xlink"><defs /><path d="M1334 1797Q1482 1797 1620.0 1758.5Q1758 1720 1877.5 1649.5Q1997 1579 2095.5 1480.5Q2194 1382 2264.5 1262.5Q2335 1143 2373.5 1005.5Q2412 868 2412 719Q2412 579 2377.0 446.0Q2342 313 2276.0 195.0Q2210 77 2115.5 -23.0Q2021 -123 1902 -197Q1893 -233 1873.0 -263.0Q1853 -293 1825.5 -314.0Q1798 -335 1764.0 -347.0Q1730 -359 1693 -359H975Q938 -359 904.0 -347.0Q870 -335 842.5 -314.0Q815 -293 795.0 -263.0Q775 -233 766 -197Q647 -123 552.5 -23.0Q458 77 392.0 195.0Q326 313 291.0 446.0Q256 579 256 719Q256 867 294.5 1005.0Q333 1143 403.5 1262.5Q474 1382 572.5 1480.5Q671 1579 790.5 1649.5Q910 1720 1048.0 1758.5Q1186 1797 1334 1797Z" style="fill:#000000;stroke:none" transform="scale(1,-1) translate(0,-256)" /></svg>