<?xml version="1.0" encoding="utf-8" ?>
<svg baseProfile="full" height="256" version="1.1" width="256" xmlns="http://www.w3.org/2000/svg" xmlns:ev="http://www.w3.org/2001/xml-events" xmlns:xlink="http://www.w3.org/1999/xlink"><defs /><path d="M1837 1366Q1867 1366 1888.0 1345.0Q1909 1324 1909 1294Q1909 1264 1888 1243L1816 1171Q1795 1150 1765 1150Q1736 1150 1714.5 1171.5Q1693 1193 1693 1222Q1693 1251 1715 1273L1786 1345Q1796 1356 1809.5 1361.0Q1823 1366 1837 1366ZM1909 431Q1937 431 1960 410L2032 339Q2053 319 2053 288Q2053 258 2032.0 237.0Q2011 216 1981 216Q1951 216 1930 237L1858 309Q1837 330 1837 359Q1837 388 1858.5 409.5Q1880 431 1909 431Z" style="fill:#f7894a;stroke:none" transform="scale(1,-1) translate(0,-256)" /></svg>