<?xml version="1.0" encoding="utf-8" ?>
<svg baseProfile="full" height="256" version="1.1" width="256" xmlns="http://www.w3.org/2000/svg" xmlns:ev="http://www.w3.org/2001/xml-events" xmlns:xlink="http://www.w3.org/1999/xlink"><defs /><path d="M615 288Q615 319 636 339L708 410Q731 431 759 431Q788 431 809.5 409.5Q831 388 831 359Q831 330 810 309L738 237Q717 216 687 216Q658 216 636.5 237.5Q615 259 615 288ZM1406 1078Q1435 1078 1456.5 1056.5Q1478 1035 1478 1006Q1478 977 1457 956L1385 884Q1364 863 1334 863Q1305 863 1283.5 884.0Q1262 905 1262 934Q1262 964 1283 985L1355 1057Q1376 1078 1406 1078ZM975 1438Q1006 1438 1026 1417L1097 1345Q1118 1322 1118 1294Q1118 1265 1096.5 1243.5Q1075 1222 1046 1222Q1017 1222 996 1243L924 1315Q903 1336 903 1366Q903 1395 924.5 1416.5Q946 1438 975 1438Z" style="fill:#ca5010;stroke:none" transform="scale(1,-1) translate(0,-256)" /></svg>