<?xml version="1.0" encoding="utf-8" ?>
<svg baseProfile="full" height="256" version="1.1" width="256" xmlns="http://www.w3.org/2000/svg" xmlns:ev="http://www.w3.org/2001/xml-events" xmlns:xlink="http://www.w3.org/1999/xlink"><defs /><path d="M1527 243Q1527 233 1528.0 223.5Q1529 214 1529 204Q1529 196 1527.0 183.0Q1525 170 1514 170H1402Q1389 170 1389 182Q1389 248 1391.0 314.0Q1393 380 1393 446V581Q1393 629 1391.0 675.5Q1389 722 1389 770Q1389 775 1392.0 780.0Q1395 785 1401 785Q1442 785 1481.5 783.5Q1521 782 1562 782H1803Q1843 782 1883.0 783.5Q1923 785 1963 785Q1978 785 1978 770Q1978 728 1976.0 686.5Q1974 645 1974 603V448Q1974 382 1976.0 317.5Q1978 253 1978 187Q1978 173 1962 173H1854Q1843 173 1839.5 183.5Q1836 194 1836 208Q1836 219 1837.0 228.5Q1838 238 1838 243ZM1184 660Q1184 576 1185.0 493.5Q1186 411 1186 327Q1186 269 1173.0 238.0Q1160 207 1135.0 192.5Q1110 178 1074.0 175.5Q1038 173 992 173H971Q965 173 959.5 174.0Q954 175 947 179Q946 179 940.0 198.5Q934 218 926.5 242.0Q919 266 911.5 288.5Q904 311 900 318Q927 316 954.5 315.5Q982 315 1009 315Q1032 315 1039.0 322.5Q1046 330 1046 353V611L981 590Q975 588 966.0 583.5Q957 579 948.0 574.0Q939 569 931.0 565.5Q923 562 917 562Q906 562 898.0 581.5Q890 601 884.0 626.5Q878 652 874.5 676.5Q871 701 870 710Q915 716 959.5 725.0Q1004 734 1046 751V991H894Q892 990 888 990Q878 990 878 1001V1103Q878 1119 894 1119Q923 1119 951.0 1116.5Q979 1114 1008 1114Q1018 1114 1027.0 1114.0Q1036 1114 1046 1115V1176Q1046 1224 1044.5 1271.0Q1043 1318 1036 1366Q1045 1366 1072.5 1364.5Q1100 1363 1129.5 1360.0Q1159 1357 1182.0 1351.5Q1205 1346 1205 1337Q1205 1330 1202.5 1324.0Q1200 1318 1197 1312Q1192 1303 1189.5 1286.0Q1187 1269 1186.0 1248.0Q1185 1227 1184.5 1205.0Q1184 1183 1184 1163V1115H1309Q1311 1116 1315 1116Q1324 1116 1324 1103V1001Q1324 988 1309 988H1184V796Q1218 807 1251.0 820.0Q1284 833 1317 847L1331 853Q1328 835 1327.0 817.5Q1326 800 1326 782V741Q1326 733 1324.5 727.5Q1323 722 1318 716Q1315 713 1296.5 705.0Q1278 697 1255.5 688.0Q1233 679 1212.0 671.0Q1191 663 1184 660ZM1515 1204Q1554 1212 1606.5 1224.0Q1659 1236 1712.5 1252.0Q1766 1268 1814.5 1288.5Q1863 1309 1894 1333Q1901 1325 1916.5 1308.5Q1932 1292 1947.5 1273.0Q1963 1254 1974.5 1236.5Q1986 1219 1986 1209Q1986 1200 1977.5 1197.5Q1969 1195 1962 1194Q1943 1192 1927.0 1187.5Q1911 1183 1894 1178Q1800 1150 1706.0 1126.5Q1612 1103 1515 1089V1040Q1515 1002 1547 988Q1552 986 1573.0 984.5Q1594 983 1618.5 982.5Q1643 982 1665.5 982.0Q1688 982 1697 982Q1712 982 1740.0 982.5Q1768 983 1797.5 985.0Q1827 987 1853.0 991.5Q1879 996 1890 1005Q1900 1013 1906.5 1027.5Q1913 1042 1917.0 1058.5Q1921 1075 1922.0 1092.0Q1923 1109 1923 1121Q1946 1107 1970.5 1097.5Q1995 1088 2020 1078Q2034 1073 2043.5 1066.0Q2053 1059 2053 1042Q2053 1022 2048.0 1000.0Q2043 978 2033.5 957.5Q2024 937 2010.5 919.0Q1997 901 1980 890Q1962 878 1921.5 871.5Q1881 865 1833.5 861.5Q1786 858 1740.5 857.5Q1695 857 1666 857H1622Q1612 857 1602.0 856.5Q1592 856 1581 856Q1545 856 1509.5 860.0Q1474 864 1445.5 877.0Q1417 890 1399.0 915.5Q1381 941 1381 984Q1381 1033 1382.0 1081.5Q1383 1130 1383 1179Q1383 1224 1381.0 1269.5Q1379 1315 1374 1361Q1383 1361 1408.5 1360.5Q1434 1360 1461.0 1357.0Q1488 1354 1509.5 1348.5Q1531 1343 1531 1333Q1531 1327 1528.5 1322.0Q1526 1317 1524 1312Q1518 1296 1516.5 1277.5Q1515 1259 1515 1240ZM1527 463V360H1838V463ZM1527 573H1838V665H1527Z" style="fill:#ffffff;stroke:none" transform="scale(1,-1) translate(0,-256)" /></svg>