<?xml version="1.0" encoding="utf-8" ?>
<svg baseProfile="full" height="256" version="1.1" width="256" xmlns="http://www.w3.org/2000/svg" xmlns:ev="http://www.w3.org/2001/xml-events" xmlns:xlink="http://www.w3.org/1999/xlink"><defs /><path d="M975 1869 1629 560Q1693 432 1693 288Q1693 189 1667.5 97.0Q1642 5 1595.0 -75.0Q1548 -155 1482.5 -220.5Q1417 -286 1337.5 -333.0Q1258 -380 1166.0 -405.5Q1074 -431 975 -431Q876 -431 784.0 -405.5Q692 -380 612.0 -333.0Q532 -286 466.5 -220.5Q401 -155 354.0 -75.0Q307 5 281.5 97.0Q256 189 256 288Q256 432 320 560Z" style="fill:#000000;stroke:none" transform="scale(1,-1) translate(0,-256)" /></svg>