<?xml version="1.0" encoding="utf-8" ?>
<svg baseProfile="full" height="256" version="1.1" width="256" xmlns="http://www.w3.org/2000/svg" xmlns:ev="http://www.w3.org/2001/xml-events" xmlns:xlink="http://www.w3.org/1999/xlink"><defs /><path d="M2125 647H543Q543 674 524.5 695.5Q506 717 478 719H2191Q2162 717 2143.5 696.5Q2125 676 2125 647ZM1622 72Q1585 72 1549.0 63.5Q1513 55 1478.0 45.0Q1443 35 1407.0 26.5Q1371 18 1334 18Q1297 18 1261.5 26.5Q1226 35 1190.5 45.0Q1155 55 1119.5 63.5Q1084 72 1047 72V144H1622ZM1118 935H1550V863H1118Z" style="fill:#cccccc;stroke:none" transform="scale(1,-1) translate(0,-256)" /></svg>