<?xml version="1.0" encoding="utf-8" ?>
<svg baseProfile="full" height="256" version="1.1" width="256" xmlns="http://www.w3.org/2000/svg" xmlns:ev="http://www.w3.org/2001/xml-events" xmlns:xlink="http://www.w3.org/1999/xlink"><defs /><path d="M2412 791Q2412 756 2401.5 724.0Q2391 692 2372.0 665.0Q2353 638 2326.0 618.0Q2299 598 2266 587Q2256 483 2214.5 389.5Q2173 296 2107.0 220.5Q2041 145 1954.0 92.0Q1867 39 1765 16V-85Q1797 -97 1823.5 -117.0Q1850 -137 1869.0 -163.5Q1888 -190 1898.5 -221.5Q1909 -253 1909 -287V-431H759V-287Q759 -253 769.5 -221.5Q780 -190 799.0 -163.5Q818 -137 844.5 -117.0Q871 -97 903 -85V16Q801 39 714.0 92.0Q627 145 561.0 220.5Q495 296 454.0 389.5Q413 483 403 587Q370 598 343.0 618.0Q316 638 296.5 665.0Q277 692 266.5 724.0Q256 756 256 791Q256 834 272.0 872.5Q288 911 316.0 940.0Q344 969 381.5 986.5Q419 1004 463 1006Q419 1007 381.5 1025.0Q344 1043 316.0 1072.0Q288 1101 272.0 1140.0Q256 1179 256 1222Q256 1311 279.0 1394.0Q302 1477 344.5 1548.5Q387 1620 446.0 1679.0Q505 1738 576.5 1780.5Q648 1823 731.0 1846.0Q814 1869 903 1869Q1024 1869 1134.0 1827.0Q1244 1785 1334 1704Q1424 1785 1534.0 1827.0Q1644 1869 1765 1869Q1854 1869 1937.0 1846.0Q2020 1823 2091.5 1780.5Q2163 1738 2222.0 1679.0Q2281 1620 2323.5 1548.5Q2366 1477 2389.0 1394.0Q2412 1311 2412 1222Q2412 1179 2396.0 1140.5Q2380 1102 2352.0 1072.5Q2324 1043 2286.5 1025.0Q2249 1007 2206 1006Q2248 1004 2285.5 986.0Q2323 968 2351.0 939.0Q2379 910 2395.5 871.5Q2412 833 2412 791Z" style="fill:#000000;stroke:none" transform="scale(1,-1) translate(0,-256)" /></svg>