<?xml version="1.0" encoding="utf-8" ?>
<svg baseProfile="full" height="256" version="1.1" width="256" xmlns="http://www.w3.org/2000/svg" xmlns:ev="http://www.w3.org/2001/xml-events" xmlns:xlink="http://www.w3.org/1999/xlink"><defs /><path d="M1340 913Q1368 904 1400.0 894.5Q1432 885 1465.5 877.5Q1499 870 1531.5 865.5Q1564 861 1594 861Q1638 861 1680.5 862.0Q1723 863 1766 863H2197Q2226 863 2247.0 841.5Q2268 820 2268 791Q2268 757 2247.5 742.0Q2227 727 2198.0 719.5Q2169 712 2138.0 707.0Q2107 702 2086 688L2125 647Q2125 548 2087.0 457.5Q2049 367 1983.5 298.0Q1918 229 1829.5 187.5Q1741 146 1641 146Q1632 146 1610.0 139.5Q1588 133 1558.5 123.0Q1529 113 1495.5 101.0Q1462 89 1431.0 78.0Q1400 67 1374.5 57.5Q1349 48 1336 44Q1264 69 1192.5 96.5Q1121 124 1047 144L1008 146Q979 148 949.5 153.0Q920 158 892 168Q814 195 749.5 241.5Q685 288 639.0 350.5Q593 413 568.0 488.0Q543 563 543 647L570 688Q547 696 523.5 707.5Q500 719 476 719Q445 719 422.5 739.0Q400 759 400 791Q400 821 421.0 842.0Q442 863 472 863Q616 863 758.0 862.0Q900 861 1044 861Q1120 861 1194.0 876.5Q1268 892 1340 913ZM1406 1222V1008H1262V1222L1331 1282Z" style="fill:#f2f2f2;stroke:none" transform="scale(1,-1) translate(0,-256)" /></svg>