<?xml version="1.0" encoding="utf-8" ?>
<svg baseProfile="full" height="256" version="1.1" width="256" xmlns="http://www.w3.org/2000/svg" xmlns:ev="http://www.w3.org/2001/xml-events" xmlns:xlink="http://www.w3.org/1999/xlink"><defs /><path d="M1765 1725Q1869 1725 1960.5 1685.5Q2052 1646 2120.5 1577.5Q2189 1509 2228.5 1417.5Q2268 1326 2268 1222Q2268 1193 2247.0 1171.5Q2226 1150 2197 1150Q2171 1150 2155.0 1161.0Q2139 1172 2124.5 1185.5Q2110 1199 2094.0 1210.5Q2078 1222 2053 1222Q2027 1222 2011.0 1210.5Q1995 1199 1980.5 1185.5Q1966 1172 1950.0 1161.0Q1934 1150 1909 1150Q1883 1150 1867.0 1161.0Q1851 1172 1836.5 1185.5Q1822 1199 1806.0 1210.5Q1790 1222 1765 1222Q1739 1222 1723.0 1210.5Q1707 1199 1692.5 1185.5Q1678 1172 1662.0 1161.0Q1646 1150 1622 1150Q1592 1150 1571.0 1171.0Q1550 1192 1550 1222Q1550 1252 1529.0 1273.0Q1508 1294 1478 1294Q1448 1294 1427.0 1273.0Q1406 1252 1406 1222H1262Q1262 1252 1241.0 1273.0Q1220 1294 1190 1294Q1161 1294 1139.5 1272.5Q1118 1251 1118 1222Q1118 1193 1097.0 1171.5Q1076 1150 1047 1150Q1021 1150 1005.0 1161.0Q989 1172 974.5 1185.5Q960 1199 944.0 1210.5Q928 1222 903 1222Q877 1222 861.0 1210.5Q845 1199 830.5 1185.5Q816 1172 800.0 1161.0Q784 1150 759 1150Q733 1150 717.0 1161.0Q701 1172 686.5 1185.5Q672 1199 656.0 1210.5Q640 1222 615 1222Q589 1222 573.0 1210.5Q557 1199 542.5 1185.5Q528 1172 512.0 1161.0Q496 1150 472 1150Q442 1150 421.0 1171.0Q400 1192 400 1222Q400 1326 439.5 1417.5Q479 1509 547.5 1577.5Q616 1646 707.5 1685.5Q799 1725 903 1725Q969 1725 1032.0 1708.0Q1095 1691 1151.0 1659.5Q1207 1628 1253.5 1583.0Q1300 1538 1334 1481Q1368 1538 1414.5 1583.0Q1461 1628 1517.0 1659.5Q1573 1691 1636.0 1708.0Q1699 1725 1765 1725Z" style="fill:#31d2f7;stroke:none" transform="scale(1,-1) translate(0,-256)" /></svg>