<?xml version="1.0" encoding="utf-8" ?>
<svg baseProfile="full" height="256" version="1.1" width="256" xmlns="http://www.w3.org/2000/svg" xmlns:ev="http://www.w3.org/2001/xml-events" xmlns:xlink="http://www.w3.org/1999/xlink"><defs /><path d="M1765 324Q1765 302 1756.5 282.5Q1748 263 1734.0 248.0Q1720 233 1700.0 224.5Q1680 216 1658 216Q1635 216 1615.5 224.5Q1596 233 1581.5 247.5Q1567 262 1558.5 281.5Q1550 301 1550 324Q1550 346 1558.5 366.0Q1567 386 1582.0 400.0Q1597 414 1616.5 422.5Q1636 431 1658 431Q1680 431 1699.5 422.5Q1719 414 1733.5 399.5Q1748 385 1756.5 365.5Q1765 346 1765 324Z" style="fill:#ffffff;stroke:none" transform="scale(1,-1) translate(0,-256)" /></svg>