<?xml version="1.0" encoding="utf-8" ?>
<svg baseProfile="full" height="256" version="1.1" width="256" xmlns="http://www.w3.org/2000/svg" xmlns:ev="http://www.w3.org/2001/xml-events" xmlns:xlink="http://www.w3.org/1999/xlink"><defs /><path d="M759 -431Q655 -431 563.5 -391.5Q472 -352 403.5 -283.5Q335 -215 295.5 -123.5Q256 -32 256 72V360Q256 464 295.5 555.5Q335 647 403.5 715.5Q472 784 563.5 823.5Q655 863 759 863H903V1653Q903 1697 920.0 1736.5Q937 1776 966.0 1805.5Q995 1835 1034.5 1852.0Q1074 1869 1118 1869Q1158 1869 1194.0 1855.0Q1230 1841 1258.5 1816.5Q1287 1792 1306.5 1758.5Q1326 1725 1332 1686L1902 1498Q1971 1475 2012.0 1421.0Q2053 1367 2053 1294Q2053 1219 2010.0 1165.0Q1967 1111 1898 1088L1334 902V863Q1372 863 1408.5 864.0Q1445 865 1483 865Q1573 865 1652.5 849.5Q1732 834 1811 789L2290 514Q2351 479 2400.5 432.5Q2450 386 2484.5 329.5Q2519 273 2537.5 208.5Q2556 144 2556 72Q2556 -32 2516.5 -123.5Q2477 -215 2408.5 -283.5Q2340 -352 2248.5 -391.5Q2157 -431 2053 -431Z" style="fill:#000000;stroke:none" transform="scale(1,-1) translate(0,-256)" /></svg>