<?xml version="1.0" encoding="utf-8" ?>
<svg baseProfile="full" height="256" version="1.1" width="256" xmlns="http://www.w3.org/2000/svg" xmlns:ev="http://www.w3.org/2001/xml-events" xmlns:xlink="http://www.w3.org/1999/xlink"><defs /><path d="M1550 719Q1603 719 1646.5 705.5Q1690 692 1736 666L2218 389Q2309 336 2360.5 257.5Q2412 179 2412 72Q2412 -2 2383.5 -67.5Q2355 -133 2306.5 -181.5Q2258 -230 2192.5 -258.5Q2127 -287 2053 -287H759Q685 -287 619.5 -259.0Q554 -231 505.0 -182.0Q456 -133 428.0 -67.5Q400 -2 400 72V360Q400 434 428.5 499.5Q457 565 505.5 613.5Q554 662 619.5 690.5Q685 719 759 719Z" style="fill:#13a10e;stroke:none" transform="scale(1,-1) translate(0,-256)" /></svg>