<?xml version="1.0" encoding="utf-8" ?>
<svg baseProfile="full" height="256" version="1.1" width="256" xmlns="http://www.w3.org/2000/svg" xmlns:ev="http://www.w3.org/2001/xml-events" xmlns:xlink="http://www.w3.org/1999/xlink"><defs /><path d="M1334 144Q1334 74 1295.0 19.5Q1256 -35 1190 -59Q1172 -40 1153.5 -21.0Q1135 -2 1118 18Q1083 -23 1047 -59Q981 -35 942.0 19.5Q903 74 903 144Q903 189 920.0 228.0Q937 267 966.0 296.5Q995 326 1034.0 343.0Q1073 360 1118 360Q1163 360 1202.0 343.0Q1241 326 1270.5 296.5Q1300 267 1317.0 228.0Q1334 189 1334 144Z" style="fill:#613d30;stroke:none" transform="scale(1,-1) translate(0,-256)" /></svg>