<?xml version="1.0" encoding="utf-8" ?>
<svg baseProfile="full" height="256" version="1.1" width="256" xmlns="http://www.w3.org/2000/svg" xmlns:ev="http://www.w3.org/2001/xml-events" xmlns:xlink="http://www.w3.org/1999/xlink"><defs /><path d="M1334 360H1478V216H1334ZM1118 360H1262V216H1118ZM1334 575H1478V431H1334ZM1118 575H1262V431H1118ZM1873 575Q1891 575 1909 572V431H1765V575ZM1765 360H1909V219Q1891 216 1873 216H1765ZM903 360H1047V216H939Q921 216 903 219ZM903 572Q921 575 939 575H1047V431H903ZM1550 575H1693V431H1550ZM1550 360H1693V216H1550ZM1981 360H2049Q2042 328 2024.5 300.0Q2007 272 1981 252ZM1981 539Q2007 519 2024.5 491.0Q2042 463 2049 431H1981ZM831 252Q805 272 787.5 300.0Q770 328 763 360H831ZM763 431Q770 463 787.5 491.0Q805 519 831 539V431Z" style="fill:#ffffff;stroke:none" transform="scale(1,-1) translate(0,-256)" /></svg>