<?xml version="1.0" encoding="utf-8" ?>
<svg baseProfile="full" height="256" version="1.1" width="256" xmlns="http://www.w3.org/2000/svg" xmlns:ev="http://www.w3.org/2001/xml-events" xmlns:xlink="http://www.w3.org/1999/xlink"><defs /><path d="M1873 647Q1925 647 1970.5 627.0Q2016 607 2050.5 573.0Q2085 539 2105.0 493.5Q2125 448 2125 396Q2125 344 2105.0 298.0Q2085 252 2051.0 218.0Q2017 184 1971.0 164.0Q1925 144 1873 144H939Q887 144 841.0 164.0Q795 184 761.0 218.0Q727 252 707.0 298.0Q687 344 687 396Q687 448 707.0 493.5Q727 539 761.5 573.0Q796 607 841.5 627.0Q887 647 939 647ZM1011 863Q989 863 969.5 871.5Q950 880 935.0 894.0Q920 908 911.5 927.5Q903 947 903 970V1114Q903 1136 911.5 1156.0Q920 1176 934.5 1190.5Q949 1205 968.5 1213.5Q988 1222 1011 1222Q1033 1222 1052.5 1213.5Q1072 1205 1087.0 1190.0Q1102 1175 1110.5 1155.5Q1119 1136 1119 1114V970Q1119 948 1110.5 928.5Q1102 909 1087.0 894.5Q1072 880 1052.5 871.5Q1033 863 1011 863ZM1801 863Q1779 863 1759.5 871.5Q1740 880 1725.5 894.5Q1711 909 1702.5 928.5Q1694 948 1694 970V1114Q1694 1136 1702.5 1155.5Q1711 1175 1725.0 1190.0Q1739 1205 1758.5 1213.5Q1778 1222 1801 1222Q1823 1222 1843.0 1213.5Q1863 1205 1877.5 1190.5Q1892 1176 1900.5 1156.0Q1909 1136 1909 1114V970Q1909 947 1900.5 927.5Q1892 908 1877.0 894.0Q1862 880 1842.5 871.5Q1823 863 1801 863Z" style="fill:#000000;stroke:none" transform="scale(1,-1) translate(0,-256)" /></svg>