<?xml version="1.0" encoding="utf-8" ?>
<svg baseProfile="full" height="256" version="1.1" width="256" xmlns="http://www.w3.org/2000/svg" xmlns:ev="http://www.w3.org/2001/xml-events" xmlns:xlink="http://www.w3.org/1999/xlink"><defs /><path d="M975 1078Q1020 1078 1059.0 1061.0Q1098 1044 1127.0 1015.0Q1156 986 1173.0 947.0Q1190 908 1190 863Q1190 818 1173.0 779.0Q1156 740 1127.0 710.5Q1098 681 1059.0 664.0Q1020 647 975 647Q930 647 891.0 664.0Q852 681 822.5 710.5Q793 740 776.0 779.0Q759 818 759 863Q759 908 776.0 947.0Q793 986 822.5 1015.0Q852 1044 891.0 1061.0Q930 1078 975 1078ZM1837 1078Q1882 1078 1921.0 1061.0Q1960 1044 1989.5 1015.0Q2019 986 2036.0 947.0Q2053 908 2053 863Q2053 818 2036.0 779.0Q2019 740 1989.5 710.5Q1960 681 1921.0 664.0Q1882 647 1837 647Q1792 647 1753.0 664.0Q1714 681 1685.0 710.5Q1656 740 1639.0 779.0Q1622 818 1622 863Q1622 908 1639.0 947.0Q1656 986 1685.0 1015.0Q1714 1044 1753.0 1061.0Q1792 1078 1837 1078ZM975 758Q1020 758 1049.5 788.0Q1079 818 1079 863Q1079 884 1071.0 903.0Q1063 922 1048.5 936.5Q1034 951 1015.0 959.0Q996 967 975 967Q954 967 934.5 959.0Q915 951 901.0 936.5Q887 922 878.5 903.0Q870 884 870 863Q870 818 900.0 788.0Q930 758 975 758ZM1837 758Q1859 758 1878.0 766.0Q1897 774 1911.0 788.5Q1925 803 1933.5 822.0Q1942 841 1942 863Q1942 884 1933.5 903.0Q1925 922 1911.0 936.5Q1897 951 1877.5 959.0Q1858 967 1837 967Q1816 967 1797.0 959.0Q1778 951 1763.5 936.5Q1749 922 1741.0 903.0Q1733 884 1733 863Q1733 818 1762.5 788.0Q1792 758 1837 758ZM1298 144Q1313 144 1323.5 133.5Q1334 123 1334 108V0H1190Q1209 33 1227.0 66.5Q1245 100 1270 129Q1280 144 1298 144ZM1622 0H1478V108Q1478 123 1488.5 133.5Q1499 144 1514 144Q1531 144 1542 129Q1549 119 1554.5 108.5Q1560 98 1566 88Q1580 65 1594.0 43.5Q1608 22 1622 0ZM1550 288H1693V180Q1693 166 1682.5 155.0Q1672 144 1658 144Q1639 144 1629 158Q1623 167 1618.5 177.0Q1614 187 1609 196Q1595 219 1579.5 242.0Q1564 265 1550 288ZM1118 288H1262Q1242 256 1219.0 225.0Q1196 194 1183 158Q1174 144 1154 144Q1140 144 1129.0 155.0Q1118 166 1118 180Z" style="fill:#ffffff;stroke:none" transform="scale(1,-1) translate(0,-256)" /></svg>