<?xml version="1.0" encoding="utf-8" ?>
<svg baseProfile="full" height="256" version="1.1" width="256" xmlns="http://www.w3.org/2000/svg" xmlns:ev="http://www.w3.org/2001/xml-events" xmlns:xlink="http://www.w3.org/1999/xlink"><defs /><path d="M1406 -431Q1318 -431 1241.5 -392.0Q1165 -353 1114 -281Q1081 -287 1047 -287Q982 -287 923.0 -265.0Q864 -243 817.0 -204.0Q770 -165 737.5 -111.5Q705 -58 693 6Q629 18 575.5 50.5Q522 83 483.0 130.0Q444 177 422.0 236.0Q400 295 400 360Q400 395 406 428Q334 479 295.0 555.0Q256 631 256 719Q256 775 272.5 825.5Q289 876 319 922L595 1341L450 1514Q426 1543 413.0 1579.0Q400 1615 400 1653Q400 1698 417.0 1737.5Q434 1777 463.0 1806.0Q492 1835 531.5 1852.0Q571 1869 616 1869Q654 1869 689.5 1856.0Q725 1843 754 1819L942 1661Q1047 1727 1164.5 1762.0Q1282 1797 1406 1797Q1530 1797 1647.5 1762.0Q1765 1727 1870 1661L2058 1819Q2087 1843 2122.5 1856.0Q2158 1869 2196 1869Q2241 1869 2280.5 1852.0Q2320 1835 2349.0 1806.0Q2378 1777 2395.0 1737.5Q2412 1698 2412 1653Q2412 1615 2399.0 1579.0Q2386 1543 2362 1514L2217 1341L2494 920Q2523 875 2539.5 824.0Q2556 773 2556 719Q2556 631 2517.0 555.0Q2478 479 2406 428Q2412 395 2412 360Q2412 295 2390.0 236.0Q2368 177 2329.0 130.0Q2290 83 2236.5 50.5Q2183 18 2119 6Q2107 -58 2074.5 -111.5Q2042 -165 1995.0 -204.0Q1948 -243 1889.0 -265.0Q1830 -287 1765 -287Q1731 -287 1698 -281Q1647 -353 1570.5 -392.0Q1494 -431 1406 -431Z" style="fill:#000000;stroke:none" transform="scale(1,-1) translate(0,-256)" /></svg>