<?xml version="1.0" encoding="utf-8" ?>
<svg baseProfile="full" height="256" version="1.1" width="256" xmlns="http://www.w3.org/2000/svg" xmlns:ev="http://www.w3.org/2001/xml-events" xmlns:xlink="http://www.w3.org/1999/xlink"><defs /><path d="M2197 1725Q2226 1725 2247.0 1703.5Q2268 1682 2268 1653Q2268 1626 2252 1607L1990 1294Q1974 1275 1952.0 1265.0Q1930 1255 1906 1255Q1884 1255 1864.5 1263.5Q1845 1272 1830.0 1287.0Q1815 1302 1806.5 1321.5Q1798 1341 1798 1363Q1798 1387 1808.5 1409.0Q1819 1431 1837 1446L2150 1708Q2170 1725 2197 1725ZM615 1725Q642 1725 662 1708L975 1446Q993 1431 1003.5 1409.0Q1014 1387 1014 1363Q1014 1341 1005.5 1321.5Q997 1302 982.0 1287.0Q967 1272 947.5 1263.5Q928 1255 906 1255Q882 1255 860.0 1265.0Q838 1275 822 1294L560 1607Q543 1627 543 1653Q543 1682 564.5 1703.5Q586 1725 615 1725Z" style="fill:#ffc83d;stroke:none" transform="scale(1,-1) translate(0,-256)" /></svg>