<?xml version="1.0" encoding="utf-8" ?>
<svg baseProfile="full" height="256" version="1.1" width="256" xmlns="http://www.w3.org/2000/svg" xmlns:ev="http://www.w3.org/2001/xml-events" xmlns:xlink="http://www.w3.org/1999/xlink"><defs /><path d="M975 288H1118Q1120 288 1130.0 285.5Q1140 283 1151.5 279.5Q1163 276 1174.0 273.0Q1185 270 1188 269Q1191 270 1202.0 273.0Q1213 276 1225.5 279.5Q1238 283 1249.0 285.5Q1260 288 1262 288H1550Q1569 288 1586.0 279.5Q1603 271 1622 271Q1641 271 1657.5 279.5Q1674 288 1693 288H1837V216Q1837 171 1820.0 132.0Q1803 93 1774.0 63.5Q1745 34 1706.0 17.0Q1667 0 1622 0Q1621 0 1610.5 3.0Q1600 6 1587.0 10.0Q1574 14 1562.0 17.5Q1550 21 1547 22Q1544 21 1532.5 17.5Q1521 14 1509.0 10.0Q1497 6 1487.5 3.0Q1478 0 1478 0H1334Q1315 0 1298.5 9.0Q1282 18 1263 18Q1244 18 1226.5 9.0Q1209 0 1190 0Q1145 0 1106.0 17.0Q1067 34 1038.0 63.5Q1009 93 992.0 132.0Q975 171 975 216ZM1837 1025Q1871 1025 1900.5 1012.5Q1930 1000 1952.0 978.0Q1974 956 1987.0 926.5Q2000 897 2000 863Q2000 829 1987.0 799.5Q1974 770 1952.0 748.0Q1930 726 1900.5 713.0Q1871 700 1837 700Q1803 700 1773.5 713.0Q1744 726 1722.0 748.0Q1700 770 1687.5 799.5Q1675 829 1675 863Q1675 896 1688.0 925.5Q1701 955 1723.0 977.0Q1745 999 1774.5 1012.0Q1804 1025 1837 1025ZM975 1025Q1008 1025 1037.5 1012.0Q1067 999 1089.0 977.0Q1111 955 1124.0 925.5Q1137 896 1137 863Q1137 829 1124.5 799.5Q1112 770 1090.0 748.0Q1068 726 1038.5 713.0Q1009 700 975 700Q941 700 911.5 713.0Q882 726 860.0 748.0Q838 770 825.0 799.5Q812 829 812 863Q812 897 825.0 926.5Q838 956 860.0 978.0Q882 1000 911.5 1012.5Q941 1025 975 1025Z" style="fill:#000000;stroke:none" transform="scale(1,-1) translate(0,-256)" /></svg>