<?xml version="1.0" encoding="utf-8" ?>
<svg baseProfile="full" height="256" version="1.1" width="256" xmlns="http://www.w3.org/2000/svg" xmlns:ev="http://www.w3.org/2001/xml-events" xmlns:xlink="http://www.w3.org/1999/xlink"><defs /><path d="M1406 1569Q1461 1472 1538.5 1394.5Q1616 1317 1709.0 1262.5Q1802 1208 1907.5 1179.0Q2013 1150 2125 1150V575Q2125 476 2099.5 384.0Q2074 292 2027.0 212.0Q1980 132 1914.5 66.5Q1849 1 1769.0 -46.0Q1689 -93 1597.0 -118.5Q1505 -144 1406 -144Q1307 -144 1215.0 -118.5Q1123 -93 1043.0 -46.0Q963 1 897.5 66.5Q832 132 785.0 212.0Q738 292 712.5 384.0Q687 476 687 575V1150Q799 1150 904.5 1179.0Q1010 1208 1103.0 1262.5Q1196 1317 1273.5 1394.5Q1351 1472 1406 1569Z" style="fill:#f03a17;stroke:none" transform="scale(1,-1) translate(0,-256)" /></svg>