<?xml version="1.0" encoding="utf-8" ?>
<svg baseProfile="full" height="256" version="1.1" width="256" xmlns="http://www.w3.org/2000/svg" xmlns:ev="http://www.w3.org/2001/xml-events" xmlns:xlink="http://www.w3.org/1999/xlink"><defs /><path d="M1550 634Q1582 622 1608.5 601.5Q1635 581 1653.5 554.5Q1672 528 1682.5 496.5Q1693 465 1693 431H1550Q1550 401 1538.5 375.0Q1527 349 1507.5 329.5Q1488 310 1462.0 299.0Q1436 288 1406 288Q1376 288 1350.0 299.0Q1324 310 1304.5 329.5Q1285 349 1273.5 375.0Q1262 401 1262 431H1118Q1118 465 1129.0 496.5Q1140 528 1159.0 554.5Q1178 581 1204.5 601.5Q1231 622 1262 634V863Q1262 893 1273.5 919.0Q1285 945 1304.5 964.5Q1324 984 1350.0 995.0Q1376 1006 1406 1006Q1436 1006 1462.0 995.0Q1488 984 1507.5 964.5Q1527 945 1538.5 919.0Q1550 893 1550 863Z" style="fill:#af0d1a;stroke:none" transform="scale(1,-1) translate(0,-256)" /></svg>