<?xml version="1.0" encoding="utf-8" ?>
<svg baseProfile="full" height="256" version="1.1" width="256" xmlns="http://www.w3.org/2000/svg" xmlns:ev="http://www.w3.org/2001/xml-events" xmlns:xlink="http://www.w3.org/1999/xlink"><defs /><path d="M2412 719Q2412 676 2396.5 638.5Q2381 601 2354.0 572.5Q2327 544 2290.0 526.0Q2253 508 2211 505Q2238 475 2253.0 438.0Q2268 401 2268 360Q2268 315 2251.0 276.0Q2234 237 2205.0 207.5Q2176 178 2137.0 161.0Q2098 144 2053 144Q2028 144 2004.5 150.0Q1981 156 1958 167Q1969 144 1975.0 120.5Q1981 97 1981 72Q1981 27 1964.0 -12.0Q1947 -51 1917.5 -80.5Q1888 -110 1849.0 -127.0Q1810 -144 1765 -144Q1724 -144 1686.5 -129.0Q1649 -114 1620 -86Q1617 -128 1599.0 -164.5Q1581 -201 1552.5 -228.5Q1524 -256 1486.0 -271.5Q1448 -287 1406 -287Q1363 -287 1325.5 -271.5Q1288 -256 1259.5 -229.0Q1231 -202 1213.0 -165.0Q1195 -128 1192 -86Q1163 -113 1125.5 -128.5Q1088 -144 1047 -144Q1002 -144 963.0 -127.0Q924 -110 894.5 -80.5Q865 -51 848.0 -12.0Q831 27 831 72Q831 97 837.0 120.5Q843 144 854 167Q831 156 807.5 150.0Q784 144 759 144Q714 144 675.0 161.0Q636 178 606.5 207.5Q577 237 560.0 276.0Q543 315 543 360Q543 401 558.5 438.5Q574 476 601 505Q559 508 522.0 526.0Q485 544 458.0 572.5Q431 601 415.5 638.5Q400 676 400 719Q400 785 438 841L831 1438H894Q997 1543 1128.0 1598.0Q1259 1653 1406 1653Q1552 1653 1683.5 1598.0Q1815 1543 1918 1438H1981L2374 841Q2412 785 2412 719Z" style="fill:#1f1f1f;stroke:none" transform="scale(1,-1) translate(0,-256)" /></svg>