<?xml version="1.0" encoding="utf-8" ?>
<svg baseProfile="full" height="256" version="1.1" width="256" xmlns="http://www.w3.org/2000/svg" xmlns:ev="http://www.w3.org/2001/xml-events" xmlns:xlink="http://www.w3.org/1999/xlink"><defs /><path d="M2268 -215H1693L1658 -163L1622 -215H1046L1007 -166L975 -215H400V360L461 397L400 431V1007L467 1048L400 1078V1222L462 1252Q461 1255 456.0 1270.0Q451 1285 444.0 1305.5Q437 1326 429.5 1349.0Q422 1372 415.5 1391.5Q409 1411 404.5 1424.0Q400 1437 400 1437V1653H975L1011 1592L1046 1653H1622L1657 1595L1693 1653H2268V1078L2216 1046L2268 1006V431L2216 398L2268 360V144L2193 99L2268 -71Z" style="fill:#f2f2f2;stroke:none" transform="scale(1,-1) translate(0,-256)" /></svg>