<?xml version="1.0" encoding="utf-8" ?>
<svg baseProfile="full" height="256" version="1.1" width="256" xmlns="http://www.w3.org/2000/svg" xmlns:ev="http://www.w3.org/2001/xml-events" xmlns:xlink="http://www.w3.org/1999/xlink"><defs /><path d="M2053 1869Q2157 1869 2248.5 1829.5Q2340 1790 2408.5 1721.5Q2477 1653 2516.5 1561.5Q2556 1470 2556 1366Q2556 1285 2536.5 1222.5Q2517 1160 2484.0 1108.0Q2451 1056 2406.0 1009.0Q2361 962 2310 913L2269 873V611Q2269 531 2241.5 455.0Q2214 379 2163 317Q2147 298 2131.0 280.0Q2115 262 2099 244L2273 105Q2305 79 2322.5 42.5Q2340 6 2340 -36Q2340 -78 2321.5 -116.0Q2303 -154 2269 -179Q2269 -217 2255.0 -249.5Q2241 -282 2216.5 -306.5Q2192 -331 2159.0 -345.0Q2126 -359 2089 -359Q2059 -359 2029.5 -349.0Q2000 -339 1977 -320L1761 -147L1580 -357Q1548 -394 1501.0 -412.5Q1454 -431 1406 -431Q1355 -431 1308.5 -411.0Q1262 -391 1229 -353L1051 -147L836 -320Q812 -339 782.5 -349.0Q753 -359 723 -359Q686 -359 653.5 -345.0Q621 -331 596.5 -306.5Q572 -282 558.0 -249.5Q544 -217 544 -180Q510 -154 491.0 -116.5Q472 -79 472 -36Q472 6 489.5 42.5Q507 79 539 105L713 244L652 314Q598 377 571.0 453.0Q544 529 544 611V873L504 912Q453 961 407.5 1008.5Q362 1056 328.5 1108.5Q295 1161 275.5 1223.5Q256 1286 256 1366Q256 1470 295.5 1561.5Q335 1653 403.5 1721.5Q472 1790 563.5 1829.5Q655 1869 759 1869Q853 1869 937.5 1836.5Q1022 1804 1088.5 1746.5Q1155 1689 1199.5 1610.0Q1244 1531 1257 1438H1555Q1568 1531 1612.5 1609.5Q1657 1688 1723.5 1746.0Q1790 1804 1875.0 1836.5Q1960 1869 2053 1869Z" style="fill:#000000;stroke:none" transform="scale(1,-1) translate(0,-256)" /></svg>