<?xml version="1.0" encoding="utf-8" ?>
<svg baseProfile="full" height="256" version="1.1" width="256" xmlns="http://www.w3.org/2000/svg" xmlns:ev="http://www.w3.org/2001/xml-events" xmlns:xlink="http://www.w3.org/1999/xlink"><defs /><path d="M1694 1294V1366Q1694 1441 1722.0 1506.0Q1750 1571 1799.0 1620.0Q1848 1669 1913.0 1697.0Q1978 1725 2053 1725Q2127 1725 2192.5 1696.5Q2258 1668 2307.0 1619.5Q2356 1571 2384.5 1505.5Q2413 1440 2413 1366Q2413 1292 2385.5 1228.5Q2358 1165 2307 1112Q2262 1066 2216.5 1022.0Q2171 978 2125 933Q2125 870 2126.0 807.5Q2127 745 2127 682Q2127 629 2124.5 590.5Q2122 552 2112.0 519.0Q2102 486 2082.0 453.5Q2062 421 2028 380Q1993 338 1957.0 297.5Q1921 257 1885 216L1416 92L927 216Q891 257 855.0 297.5Q819 338 784 380Q750 422 730.0 455.0Q710 488 700.0 521.5Q690 555 687.5 594.0Q685 633 685 686Q685 748 686.0 809.5Q687 871 687 933Q641 978 595.5 1022.0Q550 1066 505 1112Q454 1165 427.0 1228.5Q400 1292 400 1366Q400 1441 428.0 1506.0Q456 1571 505.0 1620.0Q554 1669 619.0 1697.0Q684 1725 759 1725Q833 1725 898.5 1696.5Q964 1668 1013.0 1619.5Q1062 1571 1090.5 1505.5Q1119 1440 1119 1366V1294H1263L1405 1194L1550 1294Z" style="fill:#cccccc;stroke:none" transform="scale(1,-1) translate(0,-256)" /></svg>