<?xml version="1.0" encoding="utf-8" ?>
<svg baseProfile="full" height="256" version="1.1" width="256" xmlns="http://www.w3.org/2000/svg" xmlns:ev="http://www.w3.org/2001/xml-events" xmlns:xlink="http://www.w3.org/1999/xlink"><defs /><path d="M759 1581Q804 1581 843.5 1564.0Q883 1547 912.0 1518.0Q941 1489 958.0 1449.5Q975 1410 975 1365Q975 1323 958.5 1282.5Q942 1242 912 1213L759 1064L606 1214Q576 1243 560.0 1283.0Q544 1323 544 1365Q544 1410 561.0 1449.0Q578 1488 607.0 1517.5Q636 1547 675.0 1564.0Q714 1581 759 1581ZM2053 1581Q2098 1581 2137.5 1564.0Q2177 1547 2206.0 1518.0Q2235 1489 2252.0 1449.5Q2269 1410 2269 1365Q2269 1323 2252.5 1282.5Q2236 1242 2206 1213L2053 1064L1900 1214Q1870 1243 1854.0 1283.0Q1838 1323 1838 1365Q1838 1410 1855.0 1449.0Q1872 1488 1901.0 1517.5Q1930 1547 1969.0 1564.0Q2008 1581 2053 1581ZM1406 -288Q1387 -288 1368.5 -280.5Q1350 -273 1337 -259L1114 0L1411 140L1699 0L1475 -259Q1462 -273 1443.5 -280.5Q1425 -288 1406 -288Z" style="fill:#ee9889;stroke:none" transform="scale(1,-1) translate(0,-256)" /></svg>