<?xml version="1.0" encoding="utf-8" ?>
<svg baseProfile="full" height="256" version="1.1" width="256" xmlns="http://www.w3.org/2000/svg" xmlns:ev="http://www.w3.org/2001/xml-events" xmlns:xlink="http://www.w3.org/1999/xlink"><defs /><path d="M616 -36Q616 -18 629 -8L988 280Q998 288 1011 288Q1026 288 1036.5 277.5Q1047 267 1047 252Q1047 235 1033 224L674 -64Q664 -72 652 -72Q637 -72 626.5 -61.5Q616 -51 616 -36ZM687 -179Q687 -162 701 -151L1060 136Q1070 144 1083 144Q1098 144 1108.5 133.5Q1119 123 1119 108Q1119 91 1105 80L746 -207Q736 -215 723 -215Q708 -215 697.5 -204.5Q687 -194 687 -179ZM1801 288Q1814 288 1824 280L2183 -8Q2197 -19 2197 -36Q2197 -50 2186.0 -61.0Q2175 -72 2161 -72Q2148 -72 2138 -64L1779 224Q1766 234 1766 252Q1766 266 1776.5 277.0Q1787 288 1801 288ZM1729 144Q1742 144 1752 136L2111 -151Q2125 -162 2125 -179Q2125 -194 2114.5 -204.5Q2104 -215 2089 -215Q2077 -215 2067 -207L1707 80Q1694 90 1694 108Q1694 122 1704.5 133.0Q1715 144 1729 144Z" style="fill:#757575;stroke:none" transform="scale(1,-1) translate(0,-256)" /></svg>