<?xml version="1.0" encoding="utf-8" ?>
<svg baseProfile="full" height="256" version="1.1" width="256" xmlns="http://www.w3.org/2000/svg" xmlns:ev="http://www.w3.org/2001/xml-events" xmlns:xlink="http://www.w3.org/1999/xlink"><defs /><path d="M1693 719H400V791H1693ZM1691 575H402Q401 593 400.5 611.0Q400 629 400 647H1693V601Q1693 594 1693.0 587.5Q1693 581 1691 575ZM573 72Q562 90 551.5 108.0Q541 126 530 144H1563Q1552 126 1541.5 108.0Q1531 90 1520 72ZM1462 1581H631Q615 1618 615 1653H1478Q1478 1618 1462 1581ZM1270 1294Q1262 1256 1262 1222H831Q831 1256 823 1294ZM831 -287V-215H1262V-287Z" style="fill:#eba300;stroke:none" transform="scale(1,-1) translate(0,-256)" /></svg>