<?xml version="1.0" encoding="utf-8" ?>
<svg baseProfile="full" height="256" version="1.1" width="256" xmlns="http://www.w3.org/2000/svg" xmlns:ev="http://www.w3.org/2001/xml-events" xmlns:xlink="http://www.w3.org/1999/xlink"><defs /><path d="M1262 1222Q1351 1222 1429.5 1188.0Q1508 1154 1566.5 1095.5Q1625 1037 1659.0 958.5Q1693 880 1693 791L1637 756L1693 719V647L1627 613Q1636 602 1656.5 591.5Q1677 581 1691 575Q1683 461 1650.0 352.5Q1617 244 1563 144L1495 121L1483 99L1520 72Q1479 10 1432.5 -47.0Q1386 -104 1331 -154Q1299 -183 1267.5 -211.0Q1236 -239 1205 -269H889Q881 -261 873.5 -254.5Q866 -248 858 -241Q780 -169 705.5 -93.5Q631 -18 573 72L619 96L608 127L531 144Q476 244 443.0 352.5Q410 461 402 575L450 602L444 625L400 647V719L455 755L400 791Q400 880 434.0 958.5Q468 1037 526.5 1095.5Q585 1154 663.5 1188.0Q742 1222 831 1222L873 1242L869 1275L823 1294Q815 1330 802.5 1359.0Q790 1388 773.0 1413.5Q756 1439 734.0 1462.5Q712 1486 687 1510Q670 1527 655.5 1543.0Q641 1559 631 1582L670 1610L663 1626L615 1653Q615 1683 636.0 1704.0Q657 1725 687 1725H1406Q1436 1725 1457.0 1704.0Q1478 1683 1478 1653L1427 1635L1423 1606L1462 1581Q1452 1558 1437.5 1542.5Q1423 1527 1406 1510Q1380 1486 1358.5 1462.0Q1337 1438 1320.0 1412.5Q1303 1387 1290.0 1358.0Q1277 1329 1270 1294L1221 1269L1220 1255Z" style="fill:#ffb900;stroke:none" transform="scale(1,-1) translate(0,-256)" /></svg>