<?xml version="1.0" encoding="utf-8" ?>
<svg baseProfile="full" height="256" version="1.1" width="256" xmlns="http://www.w3.org/2000/svg" xmlns:ev="http://www.w3.org/2001/xml-events" xmlns:xlink="http://www.w3.org/1999/xlink"><defs /><path d="M687 -431V-281Q589 -191 509.5 -85.5Q430 20 373.5 138.0Q317 256 286.5 384.0Q256 512 256 647V791Q256 884 284.5 970.0Q313 1056 365.0 1128.0Q417 1200 489.5 1254.0Q562 1308 651 1337Q639 1355 624.5 1369.5Q610 1384 595 1399Q566 1427 543.5 1455.0Q521 1483 505.0 1513.0Q489 1543 480.5 1577.5Q472 1612 472 1653Q472 1698 489.0 1737.0Q506 1776 535.0 1805.5Q564 1835 603.0 1852.0Q642 1869 687 1869H1406Q1451 1869 1490.0 1852.0Q1529 1835 1558.5 1805.5Q1588 1776 1605.0 1737.0Q1622 1698 1622 1653Q1622 1612 1613.5 1577.5Q1605 1543 1588.5 1512.5Q1572 1482 1549.0 1454.5Q1526 1427 1498 1399Q1483 1384 1468.5 1369.5Q1454 1355 1442 1337Q1530 1308 1603.0 1254.0Q1676 1200 1728.0 1128.0Q1780 1056 1808.5 970.0Q1837 884 1837 791V647Q1837 512 1806.5 384.0Q1776 256 1719.5 138.0Q1663 20 1583.5 -85.5Q1504 -191 1406 -281V-431Z" style="fill:#000000;stroke:none" transform="scale(1,-1) translate(0,-256)" /></svg>