<?xml version="1.0" encoding="utf-8" ?>
<svg baseProfile="full" height="256" version="1.1" width="256" xmlns="http://www.w3.org/2000/svg" xmlns:ev="http://www.w3.org/2001/xml-events" xmlns:xlink="http://www.w3.org/1999/xlink"><defs /><path d="M2125 851Q2125 799 2114.5 758.5Q2104 718 2088.0 684.5Q2072 651 2053.0 622.5Q2034 594 2018.0 564.5Q2002 535 1991.5 503.0Q1981 471 1981 431V360Q1981 315 1964.0 276.0Q1947 237 1917.5 207.5Q1888 178 1849.0 161.0Q1810 144 1765 144H1693V42Q1693 25 1680.5 12.5Q1668 0 1651 0H1592Q1575 0 1562.5 12.5Q1550 25 1550 42V144H1478V42Q1478 25 1465.5 12.5Q1453 0 1436 0H1376Q1359 0 1346.5 12.5Q1334 25 1334 42V144H1262V42Q1262 25 1249.5 12.5Q1237 0 1220 0H1161Q1144 0 1131.0 12.5Q1118 25 1118 42V144H1047Q1002 144 962.5 161.0Q923 178 894.0 207.0Q865 236 848.0 275.5Q831 315 831 360V431Q831 461 824.0 488.5Q817 516 805.0 542.0Q793 568 778.0 592.5Q763 617 747 641Q725 674 713.0 705.5Q701 737 695.0 769.5Q689 802 688.0 835.5Q687 869 687 905V941Q687 1037 722.5 1119.0Q758 1201 817.5 1267.5Q877 1334 955.0 1383.5Q1033 1433 1118 1462Q1187 1486 1259.5 1498.0Q1332 1510 1406 1510Q1480 1510 1552.5 1498.0Q1625 1486 1694 1462Q1779 1433 1857.0 1383.5Q1935 1334 1994.5 1267.5Q2054 1201 2089.5 1119.0Q2125 1037 2125 941Z" style="fill:#f2f2f2;stroke:none" transform="scale(1,-1) translate(0,-256)" /></svg>