<?xml version="1.0" encoding="utf-8" ?>
<svg baseProfile="full" height="256" version="1.1" width="256" xmlns="http://www.w3.org/2000/svg" xmlns:ev="http://www.w3.org/2001/xml-events" xmlns:xlink="http://www.w3.org/1999/xlink"><defs /><path d="M2412 72Q2412 42 2400.5 16.0Q2389 -10 2369.5 -29.5Q2350 -49 2324.0 -60.5Q2298 -72 2268 -72Q2258 -72 2248 -75Q2244 -75 2240.5 -74.5Q2237 -74 2233 -74Q2217 -74 2199.0 -81.0Q2181 -88 2181 -108Q2181 -117 2185.5 -125.5Q2190 -134 2197 -140V-144Q2197 -174 2185.5 -200.0Q2174 -226 2154.5 -245.5Q2135 -265 2109.0 -276.0Q2083 -287 2053 -287Q2023 -287 1997.0 -276.0Q1971 -265 1951.5 -245.5Q1932 -226 1920.5 -200.0Q1909 -174 1909 -144Q1909 -44 1870.5 48.5Q1832 141 1761 212L1406 567L1051 212Q980 141 941.5 48.5Q903 -44 903 -144Q903 -174 891.5 -200.0Q880 -226 860.5 -245.5Q841 -265 815.0 -276.0Q789 -287 759 -287Q729 -287 703.0 -276.0Q677 -265 657.5 -245.5Q638 -226 626.5 -200.0Q615 -174 615 -144Q615 -138 614.0 -133.0Q613 -128 612 -123Q611 -116 610.5 -104.5Q610 -93 607.5 -82.5Q605 -72 599.0 -64.5Q593 -57 582 -57Q573 -57 563.5 -62.0Q554 -67 547 -72H543Q513 -72 487.0 -60.5Q461 -49 441.5 -29.5Q422 -10 411.0 16.0Q400 42 400 72Q400 102 411.0 128.0Q422 154 441.5 173.5Q461 193 487.0 204.5Q513 216 543 216Q643 216 735.5 254.5Q828 293 899 364L1254 719L899 1074Q828 1145 735.5 1183.5Q643 1222 543 1222Q513 1222 487.0 1233.5Q461 1245 441.5 1264.5Q422 1284 411.0 1310.0Q400 1336 400 1366Q400 1396 411.0 1422.0Q422 1448 441.5 1467.5Q461 1487 487.0 1498.5Q513 1510 543 1510Q549 1510 554.0 1511.0Q559 1512 564 1513Q571 1514 582.5 1514.0Q594 1514 604.5 1515.5Q615 1517 623.0 1522.0Q631 1527 631 1538Q631 1549 626.0 1559.5Q621 1570 615 1578Q615 1609 626.5 1635.5Q638 1662 657.5 1682.0Q677 1702 703.0 1713.5Q729 1725 759 1725Q789 1725 815.0 1713.5Q841 1702 860.5 1682.5Q880 1663 891.5 1637.0Q903 1611 903 1581Q903 1481 941.5 1389.0Q980 1297 1051 1226L1406 871L1761 1226Q1832 1297 1870.5 1389.0Q1909 1481 1909 1581Q1909 1611 1920.5 1637.0Q1932 1663 1951.5 1682.5Q1971 1702 1997.0 1713.5Q2023 1725 2053 1725Q2083 1725 2109.0 1713.5Q2135 1702 2154.5 1682.5Q2174 1663 2185.5 1637.0Q2197 1611 2197 1581Q2197 1576 2198.0 1571.0Q2199 1566 2200 1561Q2201 1553 2201.0 1542.5Q2201 1532 2203.0 1521.5Q2205 1511 2211.0 1504.0Q2217 1497 2229 1497Q2239 1497 2248.0 1501.0Q2257 1505 2265 1510Q2296 1510 2322.5 1498.5Q2349 1487 2369.0 1467.5Q2389 1448 2400.5 1422.0Q2412 1396 2412 1366Q2412 1336 2400.5 1310.0Q2389 1284 2369.5 1264.5Q2350 1245 2324.0 1233.5Q2298 1222 2268 1222Q2168 1222 2076.0 1183.5Q1984 1145 1913 1074L1558 719L1913 364Q1984 293 2076.0 254.5Q2168 216 2268 216Q2298 216 2324.0 204.5Q2350 193 2369.5 173.5Q2389 154 2400.5 128.0Q2412 102 2412 72Z" style="fill:#cccccc;stroke:none" transform="scale(1,-1) translate(0,-256)" /></svg>