<?xml version="1.0" encoding="utf-8" ?>
<svg baseProfile="full" height="256" version="1.1" width="256" xmlns="http://www.w3.org/2000/svg" xmlns:ev="http://www.w3.org/2001/xml-events" xmlns:xlink="http://www.w3.org/1999/xlink"><defs /><path d="M1083 1006Q1120 1006 1152.5 992.0Q1185 978 1209.5 953.5Q1234 929 1248.0 896.5Q1262 864 1262 827V755Q1262 718 1248.0 685.0Q1234 652 1209.5 627.5Q1185 603 1152.5 589.0Q1120 575 1083 575Q1046 575 1013.0 589.0Q980 603 955.5 627.5Q931 652 917.0 685.0Q903 718 903 755V827Q903 864 917.0 896.5Q931 929 955.5 953.5Q980 978 1013.0 992.0Q1046 1006 1083 1006ZM1729 1006Q1766 1006 1799.0 992.0Q1832 978 1856.5 953.5Q1881 929 1895.0 896.5Q1909 864 1909 827V755Q1909 718 1895.0 685.0Q1881 652 1856.5 627.5Q1832 603 1799.0 589.0Q1766 575 1729 575Q1692 575 1659.5 589.0Q1627 603 1602.5 627.5Q1578 652 1564.0 685.0Q1550 718 1550 755V827Q1550 864 1564.0 896.5Q1578 929 1602.5 953.5Q1627 978 1659.5 992.0Q1692 1006 1729 1006ZM1550 398Q1550 379 1537.5 369.5Q1525 360 1507 360H1306Q1288 360 1275.0 369.5Q1262 379 1262 399Q1262 407 1264.5 415.0Q1267 423 1271 431L1371 618Q1376 629 1384.5 638.0Q1393 647 1406 647Q1419 647 1428.0 638.0Q1437 629 1442 618L1541 430Q1545 422 1547.5 414.0Q1550 406 1550 398Z" style="fill:#000000;stroke:none" transform="scale(1,-1) translate(0,-256)" /></svg>