<?xml version="1.0" encoding="utf-8" ?>
<svg baseProfile="full" height="256" version="1.1" width="256" xmlns="http://www.w3.org/2000/svg" xmlns:ev="http://www.w3.org/2001/xml-events" xmlns:xlink="http://www.w3.org/1999/xlink"><defs /><path d="M2556 72Q2556 22 2539.5 -23.5Q2523 -69 2493.5 -106.5Q2464 -144 2423.0 -170.5Q2382 -197 2333 -208Q2322 -257 2295.5 -298.0Q2269 -339 2232.0 -368.5Q2195 -398 2149.0 -414.5Q2103 -431 2053 -431Q1993 -431 1940.5 -408.5Q1888 -386 1849.0 -347.0Q1810 -308 1787.5 -255.5Q1765 -203 1765 -143Q1738 -170 1711.0 -185.5Q1684 -201 1655.0 -208.0Q1626 -215 1595.0 -216.5Q1564 -218 1529 -218H1514Q1457 -218 1406 -194Q1372 -211 1340.0 -214.5Q1308 -218 1274 -218H1226Q1175 -218 1128.5 -198.5Q1082 -179 1047 -143Q1047 -203 1024.5 -255.5Q1002 -308 963.0 -347.0Q924 -386 871.5 -408.5Q819 -431 759 -431Q709 -431 663.5 -414.5Q618 -398 580.5 -368.5Q543 -339 516.5 -298.0Q490 -257 479 -208Q430 -197 389.0 -170.5Q348 -144 318.5 -107.0Q289 -70 272.5 -24.0Q256 22 256 72Q256 131 278.5 183.5Q301 236 340.0 275.0Q379 314 431.5 337.0Q484 360 543 360Q619 360 687 390V431Q687 447 681.5 464.5Q676 482 667.0 498.5Q658 515 648.0 530.5Q638 546 629 559Q597 607 579.5 652.0Q562 697 554.0 742.5Q546 788 544.5 837.0Q543 886 543 941Q543 976 547.0 1010.0Q551 1044 559 1078Q496 1078 441.0 1098.5Q386 1119 345.0 1157.0Q304 1195 280.0 1248.0Q256 1301 256 1366Q256 1416 272.5 1462.0Q289 1508 318.5 1545.0Q348 1582 389.0 1608.5Q430 1635 479 1646Q490 1695 516.5 1736.0Q543 1777 580.0 1806.5Q617 1836 663.0 1852.5Q709 1869 759 1869Q817 1869 868.5 1847.0Q920 1825 959.0 1787.0Q998 1749 1021.5 1698.0Q1045 1647 1046 1589Q1133 1621 1223.5 1636.5Q1314 1652 1406 1652Q1498 1652 1588.5 1636.5Q1679 1621 1765 1589Q1766 1647 1789.5 1698.0Q1813 1749 1852.0 1787.0Q1891 1825 1943.0 1847.0Q1995 1869 2053 1869Q2103 1869 2149.0 1852.5Q2195 1836 2232.0 1806.5Q2269 1777 2295.5 1736.0Q2322 1695 2333 1646Q2382 1635 2423.0 1608.5Q2464 1582 2493.5 1545.0Q2523 1508 2539.5 1462.0Q2556 1416 2556 1366Q2556 1301 2532.0 1248.0Q2508 1195 2466.5 1157.5Q2425 1120 2370.0 1099.0Q2315 1078 2253 1078Q2264 1026 2266.0 975.5Q2268 925 2268 873V851Q2268 773 2247.5 698.5Q2227 624 2183 559Q2174 546 2164.0 530.5Q2154 515 2145.0 498.5Q2136 482 2130.5 464.5Q2125 447 2125 431V390Q2192 360 2268 360Q2328 360 2380.5 337.5Q2433 315 2472.0 276.0Q2511 237 2533.5 184.5Q2556 132 2556 72Z" style="fill:#000000;stroke:none" transform="scale(1,-1) translate(0,-256)" /></svg>