<?xml version="1.0" encoding="utf-8" ?>
<svg baseProfile="full" height="256" version="1.1" width="256" xmlns="http://www.w3.org/2000/svg" xmlns:ev="http://www.w3.org/2001/xml-events" xmlns:xlink="http://www.w3.org/1999/xlink"><defs /><path d="M2412 827V-287H2197L2053 360H1622L1514 107L1322 86L1190 -72V-287H975V-72Q975 -31 986.5 8.5Q998 48 1016 84L1190 431L903 719V789L584 460Q556 431 549.0 401.5Q542 372 542 338Q542 326 542.5 313.5Q543 301 543 288Q543 258 554.5 232.0Q566 206 585.5 186.5Q605 167 631.0 155.5Q657 144 687 144Q717 144 743.0 155.0Q769 166 788.5 185.5Q808 205 819.5 231.5Q831 258 831 288V360H975V288Q975 228 952.5 175.5Q930 123 891.0 84.0Q852 45 799.5 22.5Q747 0 687 0Q627 0 575.0 22.5Q523 45 484.0 84.0Q445 123 422.5 175.5Q400 228 400 288V431L438 464L400 503V575L443 608L400 647V719L442 754L400 791V1150Q400 1195 417.0 1234.0Q434 1273 463.0 1302.5Q492 1332 531.0 1349.0Q570 1366 615 1366Q640 1366 664.5 1367.0Q689 1368 714 1368Q752 1368 790.0 1362.0Q828 1356 863 1338Q901 1384 943.0 1411.0Q985 1438 1047 1438H1334Q1364 1438 1390.0 1426.5Q1416 1415 1435.5 1395.5Q1455 1376 1466.5 1350.0Q1478 1324 1478 1294H1945Q2042 1294 2127.0 1257.5Q2212 1221 2275.5 1157.5Q2339 1094 2375.5 1009.0Q2412 924 2412 827Z" style="fill:#cccccc;stroke:none" transform="scale(1,-1) translate(0,-256)" /></svg>