<?xml version="1.0" encoding="utf-8" ?>
<svg baseProfile="full" height="256" version="1.1" width="256" xmlns="http://www.w3.org/2000/svg" xmlns:ev="http://www.w3.org/2001/xml-events" xmlns:xlink="http://www.w3.org/1999/xlink"><defs /><path d="M1478 1294 1018 705Q997 678 967.5 662.5Q938 647 903 647Q873 647 846.5 658.0Q820 669 800.5 688.5Q781 708 770.0 734.5Q759 761 759 791V1084L883 1217Q917 1253 956.5 1273.5Q996 1294 1047 1294ZM1622 360V-287H1406L1323 87L1550 360ZM508 791Q522 791 532.5 780.0Q543 769 543 755Q543 741 532.5 730.0Q522 719 508 719H400V791ZM508 647Q522 647 532.5 636.0Q543 625 543 611Q543 597 532.5 586.0Q522 575 508 575H400V647ZM472 503Q487 503 497.5 492.5Q508 482 508 467Q508 452 497.5 441.5Q487 431 472 431H400V503Z" style="fill:#757575;stroke:none" transform="scale(1,-1) translate(0,-256)" /></svg>