<?xml version="1.0" encoding="utf-8" ?>
<svg baseProfile="full" height="256" version="1.1" width="256" xmlns="http://www.w3.org/2000/svg" xmlns:ev="http://www.w3.org/2001/xml-events" xmlns:xlink="http://www.w3.org/1999/xlink"><defs /><path d="M2556 827V-431H2081L1938 216H1765V-431H831V-119Q796 -131 760.0 -137.5Q724 -144 687 -144Q598 -144 519.5 -110.0Q441 -76 382.5 -17.0Q324 42 290.0 120.5Q256 199 256 288V1150Q256 1224 284.5 1289.5Q313 1355 361.5 1404.0Q410 1453 475.5 1481.5Q541 1510 615 1510Q642 1510 669.5 1511.0Q697 1512 724 1512Q750 1512 774.5 1510.5Q799 1509 824 1504Q872 1542 929.5 1561.5Q987 1581 1047 1581H1334Q1412 1581 1478.0 1543.0Q1544 1505 1583 1438H1945Q2071 1438 2182.5 1390.0Q2294 1342 2377.0 1259.0Q2460 1176 2508.0 1064.5Q2556 953 2556 827Z" style="fill:#000000;stroke:none" transform="scale(1,-1) translate(0,-256)" /></svg>