<?xml version="1.0" encoding="utf-8" ?>
<svg baseProfile="full" height="256" version="1.1" width="256" xmlns="http://www.w3.org/2000/svg" xmlns:ev="http://www.w3.org/2001/xml-events" xmlns:xlink="http://www.w3.org/1999/xlink"><defs /><path d="M903 288Q963 288 1015.0 265.5Q1067 243 1106.0 204.0Q1145 165 1167.5 112.5Q1190 60 1190 0Q1190 -59 1167.5 -111.5Q1145 -164 1106.0 -203.0Q1067 -242 1014.5 -264.5Q962 -287 903 -287Q844 -287 792.0 -264.0Q740 -241 700.5 -202.0Q661 -163 638.0 -111.0Q615 -59 615 0Q615 60 637.5 112.5Q660 165 699.0 204.0Q738 243 790.5 265.5Q843 288 903 288ZM1981 288Q2041 288 2093.0 265.5Q2145 243 2184.0 204.0Q2223 165 2245.5 112.5Q2268 60 2268 0Q2268 -59 2245.5 -111.5Q2223 -164 2184.0 -203.0Q2145 -242 2092.5 -264.5Q2040 -287 1981 -287Q1922 -287 1870.0 -264.0Q1818 -241 1778.5 -202.0Q1739 -163 1716.0 -111.0Q1693 -59 1693 0Q1693 60 1715.5 112.5Q1738 165 1777.0 204.0Q1816 243 1868.5 265.5Q1921 288 1981 288Z" style="fill:#383838;stroke:none" transform="scale(1,-1) translate(0,-256)" /></svg>