<?xml version="1.0" encoding="utf-8" ?>
<svg baseProfile="full" height="256" version="1.1" width="256" xmlns="http://www.w3.org/2000/svg" xmlns:ev="http://www.w3.org/2001/xml-events" xmlns:xlink="http://www.w3.org/1999/xlink"><defs /><path d="M1981 647H2556V-131L2328 -359H2217Q2165 -394 2104.5 -412.5Q2044 -431 1981 -431Q1918 -431 1857.5 -412.5Q1797 -394 1745 -359H1139Q1087 -394 1026.5 -412.5Q966 -431 903 -431Q840 -431 779.5 -412.5Q719 -394 667 -359H256V0L501 157Q525 218 566.0 268.5Q607 319 660.0 355.5Q713 392 775.0 412.0Q837 432 903 432Q960 432 1014.5 417.0Q1069 402 1118 373V431Q1118 491 1140.5 543.5Q1163 596 1202.0 635.0Q1241 674 1293.5 696.5Q1346 719 1406 719Q1483 719 1549.0 680.5Q1615 642 1653 575Q1743 575 1822.0 558.5Q1901 542 1981 498Z" style="fill:#000000;stroke:none" transform="scale(1,-1) translate(0,-256)" /></svg>