<?xml version="1.0" encoding="utf-8" ?>
<svg baseProfile="full" height="256" version="1.1" width="256" xmlns="http://www.w3.org/2000/svg" xmlns:ev="http://www.w3.org/2001/xml-events" xmlns:xlink="http://www.w3.org/1999/xlink"><defs /><path d="M1981 -72H2412L2268 -215H400V-72H1174Q1188 -46 1204.5 -31.5Q1221 -17 1241.0 -10.0Q1261 -3 1284.0 -1.5Q1307 0 1334 0H1981ZM1406 216Q1376 216 1350.0 227.5Q1324 239 1304.5 258.5Q1285 278 1273.5 304.0Q1262 330 1262 360L1312 396L1262 431Q1262 461 1273.5 487.0Q1285 513 1304.5 532.5Q1324 552 1350.0 563.5Q1376 575 1406 575Q1436 575 1462.0 563.5Q1488 552 1507.5 532.5Q1527 513 1538.5 487.0Q1550 461 1550 431V360Q1550 330 1538.5 304.0Q1527 278 1507.5 258.5Q1488 239 1462.0 227.5Q1436 216 1406 216Z" style="fill:#f03a17;stroke:none" transform="scale(1,-1) translate(0,-256)" /></svg>