<?xml version="1.0" encoding="utf-8" ?>
<svg baseProfile="full" height="256" version="1.1" width="256" xmlns="http://www.w3.org/2000/svg" xmlns:ev="http://www.w3.org/2001/xml-events" xmlns:xlink="http://www.w3.org/1999/xlink"><defs /><path d="M903 144Q933 144 959.0 132.5Q985 121 1004.5 101.5Q1024 82 1035.5 56.0Q1047 30 1047 0Q1047 -30 1035.5 -56.0Q1024 -82 1004.5 -101.5Q985 -121 959.0 -132.0Q933 -143 903 -143Q873 -143 847.0 -132.0Q821 -121 801.5 -101.5Q782 -82 770.5 -56.0Q759 -30 759 0Q759 30 770.0 56.0Q781 82 800.5 101.5Q820 121 846.5 132.5Q873 144 903 144ZM1981 144Q2011 144 2037.0 132.5Q2063 121 2082.5 101.5Q2102 82 2113.5 56.0Q2125 30 2125 0Q2125 -30 2113.5 -56.0Q2102 -82 2082.5 -101.5Q2063 -121 2037.0 -132.0Q2011 -143 1981 -143Q1951 -143 1925.0 -132.0Q1899 -121 1879.5 -101.5Q1860 -82 1848.5 -56.0Q1837 -30 1837 0Q1837 30 1848.5 56.0Q1860 82 1879.5 101.5Q1899 121 1925.0 132.5Q1951 144 1981 144Z" style="fill:#cccccc;stroke:none" transform="scale(1,-1) translate(0,-256)" /></svg>