<?xml version="1.0" encoding="utf-8" ?>
<svg baseProfile="full" height="256" version="1.1" width="256" xmlns="http://www.w3.org/2000/svg" xmlns:ev="http://www.w3.org/2001/xml-events" xmlns:xlink="http://www.w3.org/1999/xlink"><defs /><path d="M1909 719Q1909 623 1888.0 532.5Q1867 442 1828.5 358.5Q1790 275 1735.5 199.5Q1681 124 1613 58Q1688 133 1739.0 220.0Q1790 307 1817 410Q1821 426 1830.5 454.5Q1840 483 1849.5 514.5Q1859 546 1866.5 574.5Q1874 603 1874 619V625Q1872 639 1866.0 674.0Q1860 709 1853.5 748.0Q1847 787 1842.0 820.0Q1837 853 1837 863V971Q1837 985 1848.0 995.5Q1859 1006 1873 1006Q1887 1006 1898.0 995.5Q1909 985 1909 971ZM815 1406Q910 1456 1008.0 1483.0Q1106 1510 1215 1510H1298Q1312 1510 1323.0 1499.0Q1334 1488 1334 1474Q1334 1459 1323.5 1448.5Q1313 1438 1298 1438H975Q933 1438 893.0 1429.5Q853 1421 815 1406Z" style="fill:#d48c00;stroke:none" transform="scale(1,-1) translate(0,-256)" /></svg>