<?xml version="1.0" encoding="utf-8" ?>
<svg baseProfile="full" height="256" version="1.1" width="256" xmlns="http://www.w3.org/2000/svg" xmlns:ev="http://www.w3.org/2001/xml-events" xmlns:xlink="http://www.w3.org/1999/xlink"><defs /><path d="M1190 -215Q1061 -215 942.0 -181.5Q823 -148 719.5 -87.5Q616 -27 530.5 58.0Q445 143 384.5 246.5Q324 350 290.5 469.5Q257 589 257 718Q257 840 286.5 952.5Q316 1065 370.5 1163.5Q425 1262 502.0 1345.0Q579 1428 673.5 1490.5Q768 1553 877.5 1593.0Q987 1633 1107 1647Q1143 1651 1179.5 1652.0Q1216 1653 1253 1653H1295Q1348 1653 1394.0 1633.5Q1440 1614 1474.5 1580.5Q1509 1547 1529.0 1501.0Q1549 1455 1549 1402Q1549 1327 1538.5 1252.5Q1528 1178 1505 1106Q1539 1122 1586.5 1142.5Q1634 1163 1685.0 1180.5Q1736 1198 1785.5 1210.0Q1835 1222 1873 1222Q1943 1222 2002 1186Q2074 1226 2138.0 1248.0Q2202 1270 2266.0 1280.0Q2330 1290 2397.0 1292.0Q2464 1294 2544 1294H2556V575H2516Q2453 575 2399.0 573.0Q2345 571 2294.0 561.0Q2243 551 2192.5 529.5Q2142 508 2085 468Q2041 317 1955.0 191.5Q1869 66 1752.0 -24.5Q1635 -115 1492.0 -165.0Q1349 -215 1190 -215Z" style="fill:#000000;stroke:none" transform="scale(1,-1) translate(0,-256)" /></svg>