<?xml version="1.0" encoding="utf-8" ?>
<svg baseProfile="full" height="256" version="1.1" width="256" xmlns="http://www.w3.org/2000/svg" xmlns:ev="http://www.w3.org/2001/xml-events" xmlns:xlink="http://www.w3.org/1999/xlink"><defs /><path d="M1191 -72Q1082 -72 981.0 -44.0Q880 -16 792.0 35.5Q704 87 632.0 159.0Q560 231 508.5 319.0Q457 407 428.5 508.0Q400 609 400 718Q400 732 400.5 746.5Q401 761 402 775Q412 910 465.0 1031.0Q518 1152 612 1251Q628 1268 646.5 1287.0Q665 1306 685 1319Q700 1330 718.5 1338.0Q737 1346 754 1354Q863 1405 973.5 1435.5Q1084 1466 1205 1466Q1225 1466 1249.0 1460.0Q1273 1454 1293 1451Q1298 1450 1305 1450H1318Q1339 1448 1358.5 1443.0Q1378 1438 1400 1438Q1404 1426 1405.0 1414.0Q1406 1402 1406 1390V1376Q1406 1232 1351.5 1101.0Q1297 970 1195 868L1088 761Q1065 738 1042.5 724.0Q1020 710 994 693Q975 682 964.0 666.0Q953 650 953 627Q953 597 974.5 575.5Q996 554 1026 554Q1049 554 1064.5 564.5Q1080 575 1092 594Q1108 620 1123.0 643.5Q1138 667 1160 689Q1279 812 1427.0 900.5Q1575 989 1736 1044Q1770 1055 1803.5 1066.5Q1837 1078 1873 1078V1063Q1873 1003 1867.5 926.0Q1862 849 1851.0 764.5Q1840 680 1824.0 592.5Q1808 505 1787.5 423.5Q1767 342 1741.5 271.0Q1716 200 1687 149Q1668 117 1645.5 89.0Q1623 61 1591 40Q1549 12 1500.0 -9.0Q1451 -30 1399.0 -44.0Q1347 -58 1294.0 -65.0Q1241 -72 1191 -72Z" style="fill:#ffc83d;stroke:none" transform="scale(1,-1) translate(0,-256)" /></svg>