<?xml version="1.0" encoding="utf-8" ?>
<svg baseProfile="full" height="256" version="1.1" width="256" xmlns="http://www.w3.org/2000/svg" xmlns:ev="http://www.w3.org/2001/xml-events" xmlns:xlink="http://www.w3.org/1999/xlink"><defs /><path d="M1873 1078Q1894 1078 1913.5 1069.5Q1933 1061 1948.0 1046.5Q1963 1032 1972.0 1013.0Q1981 994 1981 972V743Q1981 636 1954.0 534.0Q1927 432 1877.0 341.0Q1827 250 1754.5 173.5Q1682 97 1591 41Q1640 93 1673.5 157.0Q1707 221 1727.0 290.5Q1747 360 1756.0 432.5Q1765 505 1765 575V971Q1765 993 1773.5 1012.5Q1782 1032 1797.0 1046.5Q1812 1061 1831.5 1069.5Q1851 1078 1873 1078ZM1399 1438Q1388 1406 1360.5 1386.0Q1333 1366 1298 1366Q1242 1366 1189.0 1367.0Q1136 1368 1082 1368Q982 1368 884.0 1359.5Q786 1351 686 1319Q742 1365 785.0 1389.5Q828 1414 870.0 1427.5Q912 1441 960.5 1449.0Q1009 1457 1075 1471Q1098 1476 1121.5 1479.0Q1145 1482 1169 1484H1175Q1182 1484 1189.0 1483.5Q1196 1483 1203 1483Q1208 1483 1212.0 1483.0Q1216 1483 1220 1485L1298 1510Q1301 1511 1306 1511Q1316 1511 1327.5 1506.0Q1339 1501 1350.0 1494.5Q1361 1488 1370.0 1480.5Q1379 1473 1384 1467Q1389 1460 1393.0 1453.0Q1397 1446 1399 1438Z" style="fill:#ffd679;stroke:none" transform="scale(1,-1) translate(0,-256)" /></svg>