<?xml version="1.0" encoding="utf-8" ?>
<svg baseProfile="full" height="256" version="1.1" width="256" xmlns="http://www.w3.org/2000/svg" xmlns:ev="http://www.w3.org/2001/xml-events" xmlns:xlink="http://www.w3.org/1999/xlink"><defs /><path d="M759 827Q759 812 769.5 801.5Q780 791 795 791Q817 791 836.5 782.5Q856 774 871.0 759.0Q886 744 894.5 724.5Q903 705 903 683Q903 648 883.0 620.0Q863 592 831 581V503H759V581Q736 589 718.5 607.5Q701 626 693 649L764 666Q773 647 795 647Q810 647 820.5 657.5Q831 668 831 683Q831 698 820.5 708.5Q810 719 795 719Q773 719 753.5 727.5Q734 736 719.0 751.0Q704 766 695.5 785.5Q687 805 687 827Q687 861 707.0 889.0Q727 917 759 928V1006H831V928Q854 920 871.5 902.0Q889 884 897 861L826 844Q816 863 795 863Q780 863 769.5 852.5Q759 842 759 827ZM2017 863Q2039 863 2058.5 854.5Q2078 846 2093.0 831.0Q2108 816 2116.5 796.5Q2125 777 2125 755Q2125 733 2116.5 713.5Q2108 694 2093.0 679.0Q2078 664 2058.5 655.5Q2039 647 2017 647Q1994 647 1974.5 655.5Q1955 664 1940.5 678.5Q1926 693 1917.5 712.5Q1909 732 1909 755Q1909 777 1917.5 796.5Q1926 816 1941.0 831.0Q1956 846 1975.5 854.5Q1995 863 2017 863Z" style="fill:#13a10e;stroke:none" transform="scale(1,-1) translate(0,-256)" /></svg>