<?xml version="1.0" encoding="utf-8" ?>
<svg baseProfile="full" height="256" version="1.1" width="256" xmlns="http://www.w3.org/2000/svg" xmlns:ev="http://www.w3.org/2001/xml-events" xmlns:xlink="http://www.w3.org/1999/xlink"><defs /><path d="M2340 1294V288H472V1294ZM2268 503V1078Q2238 1078 2212.0 1089.5Q2186 1101 2166.5 1120.5Q2147 1140 2136.0 1166.0Q2125 1192 2125 1222H687Q687 1192 675.5 1166.0Q664 1140 644.5 1120.5Q625 1101 599.0 1089.5Q573 1078 543 1078V503Q573 503 599.0 492.0Q625 481 644.5 461.5Q664 442 675.5 416.0Q687 390 687 360H975V431H1190Q1122 482 1084.5 558.0Q1047 634 1047 719Q1047 793 1075.5 858.5Q1104 924 1152.5 972.5Q1201 1021 1266.5 1049.5Q1332 1078 1406 1078Q1480 1078 1545.5 1049.5Q1611 1021 1659.5 972.5Q1708 924 1736.5 858.5Q1765 793 1765 719Q1765 634 1727.5 558.0Q1690 482 1622 431H1837V360H2125Q2125 390 2136.0 416.0Q2147 442 2166.5 461.5Q2186 481 2212.0 492.0Q2238 503 2268 503ZM400 216H2412V144H400ZM400 0V72H2412V0H1549L1411 67L1263 0Z" style="fill:#757575;stroke:none" transform="scale(1,-1) translate(0,-256)" /></svg>