<?xml version="1.0" encoding="utf-8" ?>
<svg baseProfile="full" height="256" version="1.1" width="256" xmlns="http://www.w3.org/2000/svg" xmlns:ev="http://www.w3.org/2001/xml-events" xmlns:xlink="http://www.w3.org/1999/xlink"><defs /><path d="M615 -431Q570 -431 531.0 -414.0Q492 -397 463.0 -367.5Q434 -338 417.0 -299.0Q400 -260 400 -215V863Q369 875 342.5 895.5Q316 916 297.0 942.5Q278 969 267.0 1000.5Q256 1032 256 1066V1294Q256 1339 273.0 1378.0Q290 1417 319.5 1446.5Q349 1476 388.0 1493.0Q427 1510 472 1510V1656Q472 1701 490.5 1739.5Q509 1778 539.5 1807.0Q570 1836 610.0 1852.5Q650 1869 694 1869Q706 1869 721.0 1867.0Q736 1865 751.0 1861.5Q766 1858 780.0 1852.5Q794 1847 804 1840L1094 1633Q1126 1648 1162.0 1651.5Q1198 1655 1234 1655H1277Q1316 1655 1355.0 1651.5Q1394 1648 1430 1632L1721 1840Q1731 1847 1745.0 1852.5Q1759 1858 1774.0 1861.5Q1789 1865 1804.0 1867.0Q1819 1869 1831 1869Q1894 1869 1949.0 1835.5Q2004 1802 2032 1745Q2046 1716 2050.5 1680.0Q2055 1644 2055 1607Q2055 1581 2054.0 1556.5Q2053 1532 2053 1510Q2098 1510 2137.0 1493.0Q2176 1476 2205.0 1446.5Q2234 1417 2251.0 1378.0Q2268 1339 2268 1294V1066Q2268 1032 2257.5 1000.5Q2247 969 2228.5 942.5Q2210 916 2183.5 895.5Q2157 875 2125 863V-215Q2125 -260 2108.0 -299.0Q2091 -338 2061.5 -367.5Q2032 -397 1993.0 -414.0Q1954 -431 1909 -431Z" style="fill:#000000;stroke:none" transform="scale(1,-1) translate(0,-256)" /></svg>