<?xml version="1.0" encoding="utf-8" ?>
<svg baseProfile="full" height="256" version="1.1" width="256" xmlns="http://www.w3.org/2000/svg" xmlns:ev="http://www.w3.org/2001/xml-events" xmlns:xlink="http://www.w3.org/1999/xlink"><defs /><path d="M1909 1366H2053Q2083 1366 2104.0 1345.0Q2125 1324 2125 1294V1079Q2125 1049 2104.0 1028.0Q2083 1007 2053 1007Q2040 1007 2027.5 1007.5Q2015 1008 2002 1008Q1977 1008 1969.5 994.5Q1962 981 1962 959Q1962 952 1962.5 936.5Q1963 921 1964.5 904.5Q1966 888 1970.0 874.5Q1974 861 1981 859V-215Q1981 -245 1960.0 -266.0Q1939 -287 1909 -287H615Q586 -287 564.5 -265.5Q543 -244 543 -215V859Q549 861 552.5 870.5Q556 880 558.0 892.0Q560 904 560.5 915.5Q561 927 561 933Q561 958 559.5 972.5Q558 987 554.0 995.0Q550 1003 542.5 1005.5Q535 1008 523 1008Q513 1008 501.0 1007.5Q489 1007 472 1007Q442 1007 421.0 1028.0Q400 1049 400 1079V1294Q400 1324 421.0 1345.0Q442 1366 472 1366H616Q616 1387 642.5 1400.0Q669 1413 704.0 1419.5Q739 1426 772.5 1428.5Q806 1431 821 1431Q832 1431 859.0 1430.0Q886 1429 919.0 1427.0Q952 1425 987.5 1420.5Q1023 1416 1052.5 1408.5Q1082 1401 1101.0 1391.0Q1120 1381 1120 1366H1407Q1408 1379 1424.5 1389.0Q1441 1399 1465.5 1406.0Q1490 1413 1520.0 1417.0Q1550 1421 1578.5 1423.0Q1607 1425 1629.5 1426.0Q1652 1427 1663 1427Q1684 1427 1721.0 1424.5Q1758 1422 1796.0 1415.5Q1834 1409 1866.0 1397.0Q1898 1385 1909 1366Z" style="fill:#ffb900;stroke:none" transform="scale(1,-1) translate(0,-256)" /></svg>