<?xml version="1.0" encoding="utf-8" ?>
<svg baseProfile="full" height="256" version="1.1" width="256" xmlns="http://www.w3.org/2000/svg" xmlns:ev="http://www.w3.org/2001/xml-events" xmlns:xlink="http://www.w3.org/1999/xlink"><defs /><path d="M400 -287V1006L533 1076H2289L2412 1006V-287H1980Q1975 -287 1955.5 -281.0Q1936 -275 1908.0 -266.0Q1880 -257 1847.5 -246.0Q1815 -235 1785.0 -225.0Q1755 -215 1730.0 -207.5Q1705 -200 1693 -197Q1686 -200 1662.5 -207.5Q1639 -215 1608.0 -225.0Q1577 -235 1542.5 -246.0Q1508 -257 1478.5 -266.0Q1449 -275 1428.5 -281.0Q1408 -287 1406 -287H902L828 -247L759 -287ZM1765 1725V1222H1694L1658 1192L1621 1222H1118L1082 1192L1047 1222H975V1725Z" style="fill:#f2f2f2;stroke:none" transform="scale(1,-1) translate(0,-256)" /></svg>