<?xml version="1.0" encoding="utf-8" ?>
<svg baseProfile="full" height="256" version="1.1" width="256" xmlns="http://www.w3.org/2000/svg" xmlns:ev="http://www.w3.org/2001/xml-events" xmlns:xlink="http://www.w3.org/1999/xlink"><defs /><path d="M543 -431Q484 -431 431.5 -408.5Q379 -386 340.0 -347.0Q301 -308 278.5 -255.5Q256 -203 256 -144V935Q256 972 266.5 1009.0Q277 1046 295.5 1079.0Q314 1112 341.0 1139.0Q368 1166 401 1184L1610 1838Q1625 1846 1643.5 1852.0Q1662 1858 1681.5 1861.5Q1701 1865 1720.5 1867.0Q1740 1869 1757 1869Q1790 1869 1827.0 1861.5Q1864 1854 1900.0 1839.5Q1936 1825 1967.0 1804.0Q1998 1783 2018 1756L2498 1107Q2526 1069 2541.0 1025.5Q2556 982 2556 935V-144Q2556 -203 2533.0 -255.0Q2510 -307 2470.5 -346.0Q2431 -385 2378.5 -408.0Q2326 -431 2268 -431Z" style="fill:#000000;stroke:none" transform="scale(1,-1) translate(0,-256)" /></svg>