<?xml version="1.0" encoding="utf-8" ?>
<svg baseProfile="full" height="256" version="1.1" width="256" xmlns="http://www.w3.org/2000/svg" xmlns:ev="http://www.w3.org/2001/xml-events" xmlns:xlink="http://www.w3.org/1999/xlink"><defs /><path d="M1729 1510Q1751 1510 1770.5 1501.5Q1790 1493 1805.0 1478.0Q1820 1463 1828.5 1443.5Q1837 1424 1837 1402Q1837 1379 1828.5 1359.5Q1820 1340 1805.5 1325.5Q1791 1311 1771.0 1302.5Q1751 1294 1729 1294Q1706 1294 1686.5 1302.5Q1667 1311 1653.0 1326.0Q1639 1341 1630.5 1360.5Q1622 1380 1622 1402Q1622 1424 1630.5 1443.5Q1639 1463 1653.5 1478.0Q1668 1493 1687.5 1501.5Q1707 1510 1729 1510ZM1050 1372 1348 1533Q1376 1507 1391.0 1473.5Q1406 1440 1406 1402Q1406 1364 1392.0 1331.5Q1378 1299 1353.5 1274.5Q1329 1250 1296.0 1236.0Q1263 1222 1226 1222Q1194 1222 1164.0 1233.5Q1134 1245 1110.5 1265.0Q1087 1285 1071.0 1312.5Q1055 1340 1050 1372Z" style="fill:#d48c00;stroke:none" transform="scale(1,-1) translate(0,-256)" /></svg>