<?xml version="1.0" encoding="utf-8" ?>
<svg baseProfile="full" height="256" version="1.1" width="256" xmlns="http://www.w3.org/2000/svg" xmlns:ev="http://www.w3.org/2001/xml-events" xmlns:xlink="http://www.w3.org/1999/xlink"><defs /><path d="M472 1059 1050 1371Q1052 1372 1059.0 1373.5Q1066 1375 1075.0 1377.0Q1084 1379 1092.0 1380.5Q1100 1382 1104 1383Q1163 1399 1215 1429Q1239 1443 1262.0 1459.0Q1285 1475 1306 1493Q1317 1502 1326.5 1513.5Q1336 1525 1348 1533Q1379 1555 1414.5 1572.5Q1450 1590 1484 1607Q1532 1632 1578.5 1658.5Q1625 1685 1673 1708Q1693 1717 1714.0 1721.0Q1735 1725 1757 1725Q1775 1725 1796.5 1720.5Q1818 1716 1839.5 1708.0Q1861 1700 1879.5 1688.5Q1898 1677 1909 1662L2383 1022Z" style="fill:#eba300;stroke:none" transform="scale(1,-1) translate(0,-256)" /></svg>