<?xml version="1.0" encoding="utf-8" ?>
<svg baseProfile="full" height="256" version="1.1" width="256" xmlns="http://www.w3.org/2000/svg" xmlns:ev="http://www.w3.org/2001/xml-events" xmlns:xlink="http://www.w3.org/1999/xlink"><defs /><path d="M2268 1078Q2298 1078 2324.0 1067.0Q2350 1056 2369.5 1036.5Q2389 1017 2400.5 991.0Q2412 965 2412 935V360Q2412 342 2406.0 324.0Q2400 306 2396 288Q2389 253 2386.0 216.5Q2383 180 2383 144Q2383 108 2386.0 71.5Q2389 35 2396 0Q2400 -18 2406.0 -36.0Q2412 -54 2412 -72V-144Q2412 -174 2400.5 -200.0Q2389 -226 2369.5 -245.5Q2350 -265 2324.0 -276.0Q2298 -287 2268 -287H543Q513 -287 487.0 -276.0Q461 -265 441.5 -245.5Q422 -226 411.0 -200.0Q400 -174 400 -144V935Q400 965 411.0 991.0Q422 1017 441.5 1036.5Q461 1056 487.0 1067.0Q513 1078 543 1078Z" style="fill:#ffc83d;stroke:none" transform="scale(1,-1) translate(0,-256)" /></svg>