<?xml version="1.0" encoding="utf-8" ?>
<svg baseProfile="full" height="256" version="1.1" width="256" xmlns="http://www.w3.org/2000/svg" xmlns:ev="http://www.w3.org/2001/xml-events" xmlns:xlink="http://www.w3.org/1999/xlink"><defs /><path d="M831 216Q861 216 887.0 204.5Q913 193 932.5 173.5Q952 154 963.5 128.0Q975 102 975 72Q975 42 963.5 16.0Q952 -10 932.5 -29.5Q913 -49 887.0 -60.5Q861 -72 831 -72Q801 -72 775.0 -60.5Q749 -49 729.5 -29.5Q710 -10 698.5 16.0Q687 42 687 72Q687 102 698.5 128.0Q710 154 729.5 173.5Q749 193 775.0 204.5Q801 216 831 216ZM2197 144Q2197 189 2214.0 228.0Q2231 267 2260.0 296.5Q2289 326 2328.0 343.0Q2367 360 2412 360V-72Q2367 -72 2328.0 -55.0Q2289 -38 2260.0 -8.5Q2231 21 2214.0 60.0Q2197 99 2197 144ZM1083 647Q1105 647 1125.0 638.5Q1145 630 1159.0 615.0Q1173 600 1181.5 580.5Q1190 561 1190 539Q1190 517 1181.5 497.5Q1173 478 1158.5 463.0Q1144 448 1124.5 439.5Q1105 431 1083 431Q1061 431 1041.5 439.5Q1022 448 1007.0 463.0Q992 478 983.5 497.5Q975 517 975 539Q975 561 983.5 581.0Q992 601 1006.5 615.5Q1021 630 1040.5 638.5Q1060 647 1083 647ZM1658 719Q1710 719 1755.5 699.0Q1801 679 1835.0 644.5Q1869 610 1889.0 564.5Q1909 519 1909 467Q1909 415 1889.0 369.5Q1869 324 1835.0 290.0Q1801 256 1755.5 236.0Q1710 216 1658 216Q1606 216 1560.0 235.5Q1514 255 1480.0 289.0Q1446 323 1426.0 369.0Q1406 415 1406 467Q1406 519 1426.0 565.0Q1446 611 1480.0 645.0Q1514 679 1560.0 699.0Q1606 719 1658 719ZM2089 935Q2111 935 2130.5 926.5Q2150 918 2165.0 903.0Q2180 888 2188.5 868.5Q2197 849 2197 827Q2197 805 2188.5 785.5Q2180 766 2165.0 751.0Q2150 736 2130.5 727.5Q2111 719 2089 719Q2066 719 2046.5 727.5Q2027 736 2012.5 750.5Q1998 765 1989.5 784.5Q1981 804 1981 827Q1981 849 1989.5 868.5Q1998 888 2013.0 903.0Q2028 918 2047.5 926.5Q2067 935 2089 935ZM615 863Q645 863 666.0 842.0Q687 821 687 791Q687 761 666.0 740.0Q645 719 615 719Q586 719 564.5 740.5Q543 762 543 791Q543 820 564.5 841.5Q586 863 615 863Z" style="fill:#eba300;stroke:none" transform="scale(1,-1) translate(0,-256)" /></svg>