<?xml version="1.0" encoding="utf-8" ?>
<svg baseProfile="full" height="256" version="1.1" width="256" xmlns="http://www.w3.org/2000/svg" xmlns:ev="http://www.w3.org/2001/xml-events" xmlns:xlink="http://www.w3.org/1999/xlink"><defs /><path d="M1262 288Q1337 288 1402.5 259.5Q1468 231 1516.5 182.5Q1565 134 1593.5 68.5Q1622 3 1622 -72V-287H400V-72Q400 2 428.5 67.5Q457 133 505.5 182.0Q554 231 619.5 259.5Q685 288 759 288ZM617 791Q592 791 577.5 801.0Q563 811 555.5 827.0Q548 843 545.5 862.5Q543 882 543 901Q543 920 545.0 938.5Q547 957 554.5 972.0Q562 987 575.5 996.5Q589 1006 613 1006Q629 1006 653.0 1030.5Q677 1055 706.5 1092.0Q736 1129 771.0 1172.0Q806 1215 844.0 1252.0Q882 1289 923.0 1313.5Q964 1338 1005 1338Q1047 1338 1093.0 1329.5Q1139 1321 1183.5 1304.5Q1228 1288 1268.5 1263.5Q1309 1239 1339.5 1206.0Q1370 1173 1388.0 1132.0Q1406 1091 1406 1042V1006Q1430 1006 1444.0 996.0Q1458 986 1465.5 970.0Q1473 954 1475.5 935.0Q1478 916 1478 897Q1478 877 1475.5 858.0Q1473 839 1465.5 824.0Q1458 809 1444.0 800.0Q1430 791 1406 791Q1398 714 1364.0 648.5Q1330 583 1277.5 534.5Q1225 486 1156.5 458.5Q1088 431 1011 431Q934 431 865.5 458.5Q797 486 744.0 534.5Q691 583 657.5 648.5Q624 714 617 791Z" style="fill:#757575;stroke:none" transform="scale(1,-1) translate(0,-256)" /></svg>