<?xml version="1.0" encoding="utf-8" ?>
<svg baseProfile="full" height="256" version="1.1" width="256" xmlns="http://www.w3.org/2000/svg" xmlns:ev="http://www.w3.org/2001/xml-events" xmlns:xlink="http://www.w3.org/1999/xlink"><defs /><path d="M2053 288Q2127 288 2192.5 259.5Q2258 231 2306.5 182.0Q2355 133 2383.5 67.5Q2412 2 2412 -72V-287H1190V288ZM1801 431Q1719 431 1647.0 462.0Q1575 493 1521.5 547.0Q1468 601 1437.0 673.0Q1406 745 1406 827V1042Q1406 1045 1410.5 1058.0Q1415 1071 1420.5 1085.5Q1426 1100 1431.5 1113.5Q1437 1127 1439 1132Q1466 1193 1500.0 1237.0Q1534 1281 1577.5 1309.0Q1621 1337 1675.5 1350.5Q1730 1364 1796 1364Q1857 1364 1911.5 1352.5Q1966 1341 2012.5 1315.5Q2059 1290 2096.5 1250.0Q2134 1210 2161 1153Q2178 1117 2187.5 1081.5Q2197 1046 2197 1006Q2222 1006 2236.5 995.5Q2251 985 2258.0 969.0Q2265 953 2267.0 933.0Q2269 913 2269 894Q2269 874 2266.5 855.5Q2264 837 2256.5 823.0Q2249 809 2235.0 800.0Q2221 791 2197 791Q2189 714 2155.0 648.5Q2121 583 2068.0 534.5Q2015 486 1946.5 458.5Q1878 431 1801 431Z" style="fill:#383838;stroke:none" transform="scale(1,-1) translate(0,-256)" /></svg>