<?xml version="1.0" encoding="utf-8" ?>
<svg baseProfile="full" height="256" version="1.1" width="256" xmlns="http://www.w3.org/2000/svg" xmlns:ev="http://www.w3.org/2001/xml-events" xmlns:xlink="http://www.w3.org/1999/xlink"><defs /><path d="M2155 421Q2242 403 2316.0 357.0Q2390 311 2443.0 245.5Q2496 180 2526.0 98.5Q2556 17 2556 -72V-431H256V-72Q256 17 285.5 98.5Q315 180 368.5 245.5Q422 311 495.5 357.0Q569 403 657 421Q597 475 553.5 542.5Q510 610 490 688Q437 725 418.5 776.0Q400 827 400 889Q400 921 402.0 949.0Q404 977 411.5 1002.5Q419 1028 433.5 1051.5Q448 1075 474 1098Q484 1201 530.5 1289.0Q577 1377 649.5 1442.0Q722 1507 815.0 1544.0Q908 1581 1011 1581Q1125 1581 1226.5 1536.5Q1328 1492 1406 1408Q1482 1493 1585.0 1537.0Q1688 1581 1801 1581Q1904 1581 1997.0 1544.0Q2090 1507 2162.0 1442.0Q2234 1377 2280.5 1289.0Q2327 1201 2338 1098Q2376 1065 2394.0 1022.0Q2412 979 2412 929Q2412 892 2410.0 858.5Q2408 825 2399.5 795.0Q2391 765 2373.0 738.5Q2355 712 2322 688Q2302 610 2258.5 542.5Q2215 475 2155 421Z" style="fill:#000000;stroke:none" transform="scale(1,-1) translate(0,-256)" /></svg>