<?xml version="1.0" encoding="utf-8" ?>
<svg baseProfile="full" height="256" version="1.1" width="256" xmlns="http://www.w3.org/2000/svg" xmlns:ev="http://www.w3.org/2001/xml-events" xmlns:xlink="http://www.w3.org/1999/xlink"><defs /><path d="M1622 1006Q1651 1006 1672.0 985.0Q1693 964 1693 935V863Q1693 834 1672.0 812.5Q1651 791 1622 791Q1592 791 1571.0 812.0Q1550 833 1550 863V935Q1550 964 1571.5 985.0Q1593 1006 1622 1006ZM1981 1006Q2010 1006 2031.5 985.0Q2053 964 2053 935V863Q2053 833 2032.0 812.0Q2011 791 1981 791Q1951 791 1930.0 812.0Q1909 833 1909 863V935Q1909 964 1930.5 985.0Q1952 1006 1981 1006ZM831 1006Q860 1006 881.5 985.0Q903 964 903 935V863Q903 833 882.0 812.0Q861 791 831 791Q801 791 780.0 812.0Q759 833 759 863V935Q759 964 780.5 985.0Q802 1006 831 1006ZM1190 1006Q1219 1006 1240.5 985.0Q1262 964 1262 935V863Q1262 833 1241.0 812.0Q1220 791 1190 791Q1161 791 1139.5 812.5Q1118 834 1118 863V935Q1118 964 1139.5 985.0Q1161 1006 1190 1006Z" style="fill:#000000;stroke:none" transform="scale(1,-1) translate(0,-256)" /></svg>