<?xml version="1.0" encoding="utf-8" ?>
<svg baseProfile="full" height="256" version="1.1" width="256" xmlns="http://www.w3.org/2000/svg" xmlns:ev="http://www.w3.org/2001/xml-events" xmlns:xlink="http://www.w3.org/1999/xlink"><defs /><path d="M1231 -255Q1195 -235 1170.0 -220.5Q1145 -206 1124.5 -196.5Q1104 -187 1086.0 -180.0Q1068 -173 1047.0 -168.0Q1026 -163 999.0 -158.0Q972 -153 934 -147L916 -144H1039Q1074 -144 1099.5 -153.0Q1125 -162 1146.5 -177.5Q1168 -193 1188.0 -213.0Q1208 -233 1231 -255ZM1847 -279Q1791 -268 1735.0 -255.0Q1679 -242 1621 -242Q1564 -242 1508.0 -255.0Q1452 -268 1396 -279Q1410 -274 1423.0 -265.5Q1436 -257 1447 -246Q1476 -218 1494.5 -198.5Q1513 -179 1531.0 -167.0Q1549 -155 1573.0 -149.5Q1597 -144 1636 -144Q1675 -144 1701.0 -160.5Q1727 -177 1748.5 -199.0Q1770 -221 1792.5 -244.0Q1815 -267 1847 -279ZM686 1570Q684 1543 672.0 1519.0Q660 1495 641.5 1477.0Q623 1459 598.0 1448.5Q573 1438 546 1438Q545 1388 544.0 1338.5Q543 1289 543 1239Q543 1175 558.0 1115.5Q573 1056 600 999Q642 910 664.5 819.5Q687 729 687 630V185Q679 193 670.5 200.0Q662 207 653 214Q629 238 609.0 259.0Q589 280 574.5 303.0Q560 326 551.5 353.5Q543 381 543 417Q543 458 543.5 495.0Q544 532 544 567Q544 615 541.5 659.5Q539 704 531.5 748.0Q524 792 510.0 838.0Q496 884 472 935Q437 1008 418.5 1083.0Q400 1158 400 1239V1653Q400 1683 421.0 1704.0Q442 1725 472 1725Q656 1725 834.0 1694.5Q1012 1664 1180.5 1603.5Q1349 1543 1505.5 1452.5Q1662 1362 1802 1242Q1842 1208 1874.0 1167.0Q1906 1126 1929 1078H1877Q1853 1078 1832.5 1079.5Q1812 1081 1792.5 1086.5Q1773 1092 1752.5 1103.0Q1732 1114 1709 1133Q1679 1157 1649.5 1181.0Q1620 1205 1588 1228Q1426 1344 1244.0 1424.0Q1062 1504 867 1543Q777 1561 686 1570Z" style="fill:#8e562e;stroke:none" transform="scale(1,-1) translate(0,-256)" /></svg>