<?xml version="1.0" encoding="utf-8" ?>
<svg baseProfile="full" height="256" version="1.1" width="256" xmlns="http://www.w3.org/2000/svg" xmlns:ev="http://www.w3.org/2001/xml-events" xmlns:xlink="http://www.w3.org/1999/xlink"><defs /><path d="M2125 483Q2125 420 2106.5 359.5Q2088 299 2055.5 245.5Q2023 192 1978.0 147.0Q1933 102 1879.5 69.5Q1826 37 1765.5 18.5Q1705 0 1642 0Q1557 0 1476.0 28.0Q1395 56 1320.5 100.5Q1246 145 1179.0 201.0Q1112 257 1055 314Q995 373 929.0 452.5Q863 532 798.0 623.5Q733 715 674.0 815.0Q615 915 569.5 1016.0Q524 1117 497.5 1214.5Q471 1312 471 1399Q471 1525 535.5 1589.0Q600 1653 726 1653Q813 1653 910.5 1626.5Q1008 1600 1109.0 1555.0Q1210 1510 1310.0 1451.0Q1410 1392 1501.5 1327.0Q1593 1262 1672.5 1195.5Q1752 1129 1811 1070Q1868 1013 1924.0 946.0Q1980 879 2024.5 804.5Q2069 730 2097.0 649.0Q2125 568 2125 483Z" style="fill:#383838;stroke:none" transform="scale(1,-1) translate(0,-256)" /></svg>