<?xml version="1.0" encoding="utf-8" ?>
<svg baseProfile="full" height="256" version="1.1" width="256" xmlns="http://www.w3.org/2000/svg" xmlns:ev="http://www.w3.org/2001/xml-events" xmlns:xlink="http://www.w3.org/1999/xlink"><defs /><path d="M1595 185Q1523 185 1450.0 211.0Q1377 237 1305.0 282.5Q1233 328 1164.0 389.5Q1095 451 1031.0 521.5Q967 592 909.0 668.5Q851 745 802.5 819.5Q754 894 715.5 964.5Q677 1035 651 1094Q636 1128 617.5 1171.5Q599 1215 582.5 1261.5Q566 1308 555.0 1353.0Q544 1398 544 1436Q544 1515 587.5 1548.0Q631 1581 706 1581Q762 1581 830.0 1565.0Q898 1549 966.5 1524.0Q1035 1499 1098.5 1468.5Q1162 1438 1209 1409Q1231 1396 1245.0 1376.5Q1259 1357 1272.0 1336.0Q1285 1315 1298.5 1294.5Q1312 1274 1333 1259Q1366 1235 1403.0 1220.0Q1440 1205 1478.0 1191.0Q1516 1177 1552.5 1160.0Q1589 1143 1620 1116Q1658 1083 1699.5 1042.0Q1741 1001 1781.0 954.5Q1821 908 1857.0 856.5Q1893 805 1920.5 751.5Q1948 698 1964.5 643.5Q1981 589 1981 536Q1981 498 1971.0 465.0Q1961 432 1943.5 402.5Q1926 373 1903.0 345.5Q1880 318 1855 293Q1798 237 1736.0 211.0Q1674 185 1595 185Z" style="fill:#f7d7c4;stroke:none" transform="scale(1,-1) translate(0,-256)" /></svg>