<?xml version="1.0" encoding="utf-8" ?>
<svg baseProfile="full" height="256" version="1.1" width="256" xmlns="http://www.w3.org/2000/svg" xmlns:ev="http://www.w3.org/2001/xml-events" xmlns:xlink="http://www.w3.org/1999/xlink"><defs /><path d="M1895 -251Q1870 -251 1850.5 -240.5Q1831 -230 1814.0 -214.0Q1797 -198 1780.5 -179.5Q1764 -161 1743.5 -145.0Q1723 -129 1697.0 -118.5Q1671 -108 1636 -108H1607Q1572 -108 1546.0 -118.5Q1520 -129 1500.0 -145.0Q1480 -161 1463.0 -179.5Q1446 -198 1429.0 -214.0Q1412 -230 1392.5 -240.5Q1373 -251 1348 -251H1320Q1299 -251 1283.0 -244.0Q1267 -237 1253.5 -226.0Q1240 -215 1227.0 -201.5Q1214 -188 1201 -175Q1178 -153 1154.5 -139.5Q1131 -126 1106.5 -118.5Q1082 -111 1056.5 -109.0Q1031 -107 1004 -107Q983 -107 961.5 -107.5Q940 -108 917 -108Q908 -108 896.5 -106.0Q885 -104 876 -101Q841 -88 818.0 -56.0Q795 -24 795 14Q795 87 762.5 145.5Q730 204 671 246Q628 277 603.5 320.0Q579 363 579 417Q579 458 579.5 495.0Q580 532 580 567Q580 617 577.5 664.0Q575 711 567.0 757.5Q559 804 544.0 851.5Q529 899 504 951Q470 1020 453.0 1091.0Q436 1162 436 1239V1653Q436 1668 446.5 1678.5Q457 1689 472 1689Q838 1689 1169.0 1570.5Q1500 1452 1779 1215Q1830 1172 1862.5 1121.5Q1895 1071 1918 1009Q1936 959 1976.5 929.0Q2017 899 2071 899Q2109 899 2135.0 873.0Q2161 847 2161 809Q2161 775 2167.5 748.0Q2174 721 2187.0 697.0Q2200 673 2217.5 651.5Q2235 630 2258 607Q2315 549 2345.5 475.5Q2376 402 2376 321Q2376 268 2362.5 217.5Q2349 167 2323.5 122.5Q2298 78 2261.5 40.0Q2225 2 2180 -25L2098 -74Q2060 -97 2034.0 -126.5Q2008 -156 1987 -194Q1972 -220 1949.5 -235.5Q1927 -251 1895 -251Z" style="fill:#f2f2f2;stroke:none" transform="scale(1,-1) translate(0,-256)" /></svg>