<?xml version="1.0" encoding="utf-8" ?>
<svg baseProfile="full" height="256" version="1.1" width="256" xmlns="http://www.w3.org/2000/svg" xmlns:ev="http://www.w3.org/2001/xml-events" xmlns:xlink="http://www.w3.org/1999/xlink"><defs /><path d="M1928 1078Q1936 1064 1941.5 1049.5Q1947 1035 1952 1020Q1966 982 1998.0 958.5Q2030 935 2072 935Q2098 935 2120.5 925.0Q2143 915 2160.0 898.0Q2177 881 2187.0 858.5Q2197 836 2197 810Q2197 751 2220.5 711.5Q2244 672 2284 632Q2346 570 2379.0 489.5Q2412 409 2412 321Q2412 263 2397.5 208.0Q2383 153 2355.0 104.5Q2327 56 2287.5 15.0Q2248 -26 2199 -56L2117 -105Q2084 -125 2061.0 -150.5Q2038 -176 2020 -210Q2001 -246 1969.0 -266.5Q1937 -287 1895 -287Q1837 -287 1796 -246L1621 -181L1447 -246Q1427 -266 1401.5 -276.5Q1376 -287 1348 -287H1320Q1275 -287 1237 -260Q1232 -257 1229.0 -253.0Q1226 -249 1221 -246L1088 -164L917 -144Q915 -144 914.5 -143.5Q914 -143 912 -143Q899 -141 888.0 -140.0Q877 -139 864 -134Q816 -116 787.5 -76.0Q759 -36 759 15Q759 63 740.5 107.5Q722 152 687 185L663 252L687 278L691 275Q757 228 794.0 162.5Q831 97 831 15Q831 -12 846.5 -35.0Q862 -58 888 -67Q903 -72 917 -72Q938 -72 958.0 -71.5Q978 -71 998 -71Q1030 -71 1060.0 -73.5Q1090 -76 1118.0 -84.0Q1146 -92 1173.0 -107.5Q1200 -123 1226 -149Q1236 -159 1246.0 -170.5Q1256 -182 1267.5 -192.0Q1279 -202 1291.5 -208.5Q1304 -215 1320 -215H1337Q1353 -215 1368.0 -212.0Q1383 -209 1396 -196L1415 -176Q1436 -154 1456.0 -135.0Q1476 -116 1498.0 -102.0Q1520 -88 1546.5 -80.0Q1573 -72 1607 -72H1636Q1674 -72 1703.0 -82.5Q1732 -93 1754.5 -109.0Q1777 -125 1795.0 -143.5Q1813 -162 1829.0 -178.0Q1845 -194 1860.5 -204.5Q1876 -215 1895 -215Q1915 -215 1930.0 -205.0Q1945 -195 1955 -178Q1979 -134 2007.5 -102.0Q2036 -70 2080 -44L2161 5Q2203 30 2236.0 64.5Q2269 99 2292.0 139.5Q2315 180 2327.5 226.0Q2340 272 2340 321Q2340 393 2312.5 462.0Q2285 531 2233 582Q2182 632 2153.5 684.0Q2125 736 2125 810Q2125 832 2109.5 847.5Q2094 863 2072 863Q2006 863 1956.0 899.5Q1906 936 1884 998Q1869 1040 1847 1078L1882 1109Z" style="fill:#cccccc;stroke:none" transform="scale(1,-1) translate(0,-256)" /></svg>