<?xml version="1.0" encoding="utf-8" ?>
<svg baseProfile="full" height="256" version="1.1" width="256" xmlns="http://www.w3.org/2000/svg" xmlns:ev="http://www.w3.org/2001/xml-events" xmlns:xlink="http://www.w3.org/1999/xlink"><defs /><path d="M975 1222Q975 1282 997.5 1334.5Q1020 1387 1059.0 1426.0Q1098 1465 1150.0 1487.5Q1202 1510 1262 1510Q1322 1510 1374.5 1487.5Q1427 1465 1466.0 1426.0Q1505 1387 1527.5 1334.5Q1550 1282 1550 1222Q1550 1162 1527.5 1110.0Q1505 1058 1466.0 1019.0Q1427 980 1374.5 957.5Q1322 935 1262 935Q1202 935 1150.0 957.5Q1098 980 1059.0 1019.0Q1020 1058 997.5 1110.0Q975 1162 975 1222Z" style="fill:#e5e5e5;stroke:none" transform="scale(1,-1) translate(0,-256)" /></svg>