<?xml version="1.0" encoding="utf-8" ?>
<svg baseProfile="full" height="256" version="1.1" width="256" xmlns="http://www.w3.org/2000/svg" xmlns:ev="http://www.w3.org/2001/xml-events" xmlns:xlink="http://www.w3.org/1999/xlink"><defs /><path d="M1335 -431Q1298 -431 1272.5 -426.5Q1247 -422 1224.5 -413.0Q1202 -404 1180.0 -391.0Q1158 -378 1128 -361Q1095 -343 1069.5 -331.0Q1044 -319 1019.0 -310.5Q994 -302 966.0 -296.5Q938 -291 901 -286Q879 -283 859.0 -280.5Q839 -278 818 -270Q773 -254 735.5 -225.5Q698 -197 671.0 -159.5Q644 -122 629.5 -77.5Q615 -33 615 15Q615 42 603.5 61.0Q592 80 572 97Q560 107 547.5 115.0Q535 123 523 134Q464 189 432.0 263.0Q400 337 400 418V630Q400 694 385.0 754.0Q370 814 343 871Q301 959 278.5 1050.0Q256 1141 256 1239V1653Q256 1698 273.0 1737.0Q290 1776 319.5 1805.5Q349 1835 388.0 1852.0Q427 1869 472 1869Q668 1869 859.0 1836.5Q1050 1804 1230.5 1739.0Q1411 1674 1578.5 1577.0Q1746 1480 1896 1351Q1960 1296 2008.0 1226.5Q2056 1157 2085 1078Q2138 1075 2184.5 1053.0Q2231 1031 2265.5 994.5Q2300 958 2320.0 910.5Q2340 863 2340 810Q2340 781 2362 757Q2367 751 2373.0 745.5Q2379 740 2385 734Q2468 650 2512.0 545.0Q2556 440 2556 322Q2556 246 2536.0 173.0Q2516 100 2479.5 35.0Q2443 -30 2390.5 -85.0Q2338 -140 2273 -179L2191 -228Q2175 -237 2166.0 -247.5Q2157 -258 2148 -274Q2105 -347 2044.0 -388.5Q1983 -430 1895 -430Q1861 -430 1827.0 -423.0Q1793 -416 1759.0 -407.5Q1725 -399 1691.0 -392.0Q1657 -385 1623 -385Q1587 -385 1551.0 -392.0Q1515 -399 1479.0 -408.0Q1443 -417 1407.0 -424.0Q1371 -431 1335 -431Z" style="fill:#000000;stroke:none" transform="scale(1,-1) translate(0,-256)" /></svg>