<?xml version="1.0" encoding="utf-8" ?>
<svg baseProfile="full" height="256" version="1.1" width="256" xmlns="http://www.w3.org/2000/svg" xmlns:ev="http://www.w3.org/2001/xml-events" xmlns:xlink="http://www.w3.org/1999/xlink"><defs /><path d="M1596 252Q1663 252 1727.5 279.0Q1792 306 1844.0 351.5Q1896 397 1931.0 457.5Q1966 518 1976 584Q1978 570 1979.0 555.5Q1980 541 1980 527Q1980 453 1948.0 384.0Q1916 315 1862.5 261.5Q1809 208 1739.5 176.0Q1670 144 1596 144Q1513 144 1424.0 182.0Q1335 220 1246.0 286.0Q1157 352 1070.0 440.5Q983 529 905.0 629.0Q827 729 761.0 836.5Q695 944 646.5 1047.5Q598 1151 571.0 1246.0Q544 1341 544 1417Q544 1430 545.0 1443.0Q546 1456 548 1469Q558 1394 590.0 1302.0Q622 1210 671.5 1110.5Q721 1011 785.5 909.0Q850 807 925.5 711.5Q1001 616 1084.0 532.0Q1167 448 1253.0 386.0Q1339 324 1426.0 288.0Q1513 252 1596 252ZM1209 1409Q1320 1347 1422.5 1274.0Q1525 1201 1620 1116Q1614 1062 1588.5 1015.5Q1563 969 1525.0 935.5Q1487 902 1437.5 882.5Q1388 863 1334 863Q1274 863 1222.0 885.5Q1170 908 1131.0 947.0Q1092 986 1069.5 1038.0Q1047 1090 1047 1150Q1047 1191 1058.5 1230.0Q1070 1269 1091.0 1302.5Q1112 1336 1142.0 1363.5Q1172 1391 1209 1409Z" style="fill:#d8b094;stroke:none" transform="scale(1,-1) translate(0,-256)" /></svg>