<?xml version="1.0" encoding="utf-8" ?>
<svg baseProfile="full" height="256" version="1.1" width="256" xmlns="http://www.w3.org/2000/svg" xmlns:ev="http://www.w3.org/2001/xml-events" xmlns:xlink="http://www.w3.org/1999/xlink"><defs /><path d="M831 -215 772 -156 775 -128 746 -131 700 -84 699 -60 674 -59 628 -13 629 14 603 13 556 59 560 89 531 85 484 131 487 159 459 157 400 216 920 736Q945 761 978.0 774.5Q1011 788 1047 788Q1092 788 1125.0 770.5Q1158 753 1189 721L1307 679L1351 559Q1376 533 1389.5 500.0Q1403 467 1403 431Q1403 380 1382.0 346.5Q1361 313 1325 279L1269 281L1275 228L1216 169L1160 173L1165 119Z" style="fill:#ffd679;stroke:none" transform="scale(1,-1) translate(0,-256)" /></svg>