<?xml version="1.0" encoding="utf-8" ?>
<svg baseProfile="full" height="256" version="1.1" width="256" xmlns="http://www.w3.org/2000/svg" xmlns:ev="http://www.w3.org/2001/xml-events" xmlns:xlink="http://www.w3.org/1999/xlink"><defs /><path d="M1619 357Q1619 288 1591.0 229.0Q1563 170 1515 122L1005 -389Q985 -409 958.5 -420.0Q932 -431 903 -431Q874 -431 847.5 -420.0Q821 -409 801 -389L298 114Q278 134 267.0 160.5Q256 187 256 216Q256 245 267.0 271.5Q278 298 298 318L807 827Q855 875 917.5 903.5Q980 932 1049 932Q1134 932 1209 889Q1226 891 1241.5 892.0Q1257 893 1274 893L2184 1801Q2216 1833 2255.5 1851.0Q2295 1869 2340 1869Q2384 1869 2423.5 1852.0Q2463 1835 2492.5 1806.0Q2522 1777 2539.0 1738.0Q2556 1699 2556 1655Q2556 1607 2538.5 1568.5Q2521 1530 2488 1497L1578 587V572Q1578 560 1577.0 548.0Q1576 536 1574 525Q1619 448 1619 357Z" style="fill:#000000;stroke:none" transform="scale(1,-1) translate(0,-256)" /></svg>