<?xml version="1.0" encoding="utf-8" ?>
<svg baseProfile="full" height="256" version="1.1" width="256" xmlns="http://www.w3.org/2000/svg" xmlns:ev="http://www.w3.org/2001/xml-events" xmlns:xlink="http://www.w3.org/1999/xlink"><defs /><path d="M1095 -105Q1046 -105 998.5 -93.0Q951 -81 906 -61Q906 -61 901.5 -59.0Q897 -57 892.0 -55.0Q887 -53 882.5 -50.5Q878 -48 878 -48L484 330Q434 378 417.0 442.0Q400 506 400 572Q400 632 421.5 681.5Q443 731 484 775Q485 776 491.5 782.5Q498 789 498 790L669 1167L1042 1333L1349 1641Q1389 1682 1442.5 1703.5Q1496 1725 1553 1725Q1610 1725 1662.5 1703.5Q1715 1682 1756 1641L2083 1314Q2111 1286 2139.5 1252.5Q2168 1219 2190.5 1182.0Q2213 1145 2227.0 1104.5Q2241 1064 2241 1022Q2241 967 2216.5 920.5Q2192 874 2154 836L1289 -29Q1250 -68 1200.0 -86.5Q1150 -105 1095 -105Z" style="fill:#81e6d3;stroke:none" transform="scale(1,-1) translate(0,-256)" /></svg>