<?xml version="1.0" encoding="utf-8" ?>
<svg baseProfile="full" height="256" version="1.1" width="256" xmlns="http://www.w3.org/2000/svg" xmlns:ev="http://www.w3.org/2001/xml-events" xmlns:xlink="http://www.w3.org/1999/xlink"><defs /><path d="M1259 -287Q1192 -287 1145.0 -263.5Q1098 -240 1058.5 -205.0Q1019 -170 980.5 -129.5Q942 -89 892 -55L975 -40L993 -42Q1000 -43 1006.5 -43.0Q1013 -43 1015 -43Q1072 -43 1124.5 -21.0Q1177 1 1218 42L2083 907Q2124 948 2145.5 1000.5Q2167 1053 2167 1110Q2167 1167 2145.0 1220.0Q2123 1273 2083 1314L2328 1069Q2369 1028 2390.5 975.5Q2412 923 2412 866Q2412 809 2390.5 756.0Q2369 703 2328 662L1462 -203Q1421 -244 1368.5 -265.5Q1316 -287 1259 -287ZM1690 1402Q1669 1423 1639 1423Q1609 1423 1588 1402L723 536Q702 515 702 486Q702 456 722 436L636 521Q615 542 615 572Q615 602 636 623L1502 1489Q1523 1510 1553 1510Q1582 1510 1603 1489Z" style="fill:#00cea6;stroke:none" transform="scale(1,-1) translate(0,-256)" /></svg>