<?xml version="1.0" encoding="utf-8" ?>
<svg baseProfile="full" height="256" version="1.1" width="256" xmlns="http://www.w3.org/2000/svg" xmlns:ev="http://www.w3.org/2001/xml-events" xmlns:xlink="http://www.w3.org/1999/xlink"><defs /><path d="M1553 1869Q1639 1869 1718.5 1836.5Q1798 1804 1858 1743L2429 1171Q2490 1110 2523.0 1031.5Q2556 953 2556 866Q2556 802 2536 737Q2556 694 2556 647Q2556 601 2537.0 558.5Q2518 516 2483 486Q2480 443 2461.5 407.0Q2443 371 2413.5 344.5Q2384 318 2346.0 303.0Q2308 288 2266 288Q2267 280 2267.0 273.0Q2267 266 2267 259Q2267 214 2254.0 173.0Q2241 132 2216.5 99.0Q2192 66 2156.5 42.0Q2121 18 2075 7Q2045 -31 2001.0 -51.5Q1957 -72 1909 -72Q1885 -72 1862.0 -66.5Q1839 -61 1817 -51L1762 -107Q1765 -125 1765 -144Q1765 -180 1753.5 -213.0Q1742 -246 1721.5 -273.0Q1701 -300 1672.5 -320.5Q1644 -341 1610 -351Q1579 -389 1535.0 -410.0Q1491 -431 1442 -431Q1404 -431 1365 -417Q1339 -423 1312.0 -426.5Q1285 -430 1258 -430Q1195 -430 1135 -412Q1091 -431 1046 -431Q998 -431 955.5 -410.5Q913 -390 882 -355Q842 -392 791.5 -411.5Q741 -431 687 -431Q628 -431 575.5 -408.5Q523 -386 484.0 -347.0Q445 -308 422.5 -255.5Q400 -203 400 -144V12Q368 24 341.5 44.5Q315 65 296.0 91.5Q277 118 266.5 150.0Q256 182 256 216V596Q256 618 261.0 644.0Q266 670 274.0 695.5Q282 721 293.0 745.0Q304 769 315 789Q286 838 271.0 893.5Q256 949 256 1006Q256 1095 290.0 1174.0Q324 1253 382.5 1311.5Q441 1370 519.5 1404.0Q598 1438 687 1438Q710 1438 733 1435Q776 1471 829.0 1490.5Q882 1510 939 1510Q972 1510 1007 1502L1248 1743Q1309 1804 1387.5 1836.5Q1466 1869 1553 1869Z" style="fill:#000000;stroke:none" transform="scale(1,-1) translate(0,-256)" /></svg>