<?xml version="1.0" encoding="utf-8" ?>
<svg baseProfile="full" height="256" version="1.1" width="256" xmlns="http://www.w3.org/2000/svg" xmlns:ev="http://www.w3.org/2001/xml-events" xmlns:xlink="http://www.w3.org/1999/xlink"><defs /><path d="M543 791Q543 820 564.5 841.5Q586 863 615 863Q680 863 730.0 874.5Q780 886 822.5 907.5Q865 929 905.5 960.5Q946 992 993 1033Q1006 1044 1017.5 1051.0Q1029 1058 1046 1058Q1075 1058 1097.0 1036.5Q1119 1015 1119 986Q1119 971 1114.0 960.0Q1109 949 1100 938Q1060 886 1003.5 845.5Q947 805 882.0 777.0Q817 749 748.0 734.0Q679 719 615 719Q586 719 564.5 740.5Q543 762 543 791ZM1765 1058Q1784 1058 1794.5 1051.5Q1805 1045 1819 1033Q1865 992 1906.0 960.5Q1947 929 1990.0 907.5Q2033 886 2082.5 874.5Q2132 863 2197 863Q2226 863 2247.0 841.5Q2268 820 2268 791Q2268 762 2247.0 740.5Q2226 719 2197 719Q2133 719 2064.0 733.5Q1995 748 1929.5 776.0Q1864 804 1807.0 845.0Q1750 886 1711 938Q1703 949 1698.0 960.0Q1693 971 1693 985Q1693 1015 1714.0 1036.5Q1735 1058 1765 1058Z" style="fill:#d48c00;stroke:none" transform="scale(1,-1) translate(0,-256)" /></svg>