<?xml version="1.0" encoding="utf-8" ?>
<svg baseProfile="full" height="256" version="1.1" width="256" xmlns="http://www.w3.org/2000/svg" xmlns:ev="http://www.w3.org/2001/xml-events" xmlns:xlink="http://www.w3.org/1999/xlink"><defs /><path d="M1622 216Q1651 216 1672.0 194.5Q1693 173 1693 144Q1693 115 1672.0 93.5Q1651 72 1622 72H1190Q1161 72 1139.5 93.5Q1118 115 1118 144Q1118 173 1139.5 194.5Q1161 216 1190 216ZM1262 611Q1262 558 1242.5 512.5Q1223 467 1189.0 433.0Q1155 399 1109.0 379.5Q1063 360 1011 360Q959 360 913.0 379.5Q867 399 833.0 433.0Q799 467 779.0 513.0Q759 559 759 611V647H831Q831 609 845.0 576.5Q859 544 883.5 519.5Q908 495 940.5 481.0Q973 467 1011 467Q1048 467 1081.0 481.0Q1114 495 1138.0 519.5Q1162 544 1176.0 576.5Q1190 609 1190 647H1262ZM1981 647H2053V611Q2053 559 2033.0 513.0Q2013 467 1979.0 433.0Q1945 399 1899.0 379.5Q1853 360 1801 360Q1748 360 1702.5 379.5Q1657 399 1623.0 433.0Q1589 467 1569.5 512.5Q1550 558 1550 611V647H1622Q1622 609 1636.0 576.5Q1650 544 1674.0 519.5Q1698 495 1730.5 481.0Q1763 467 1801 467Q1838 467 1871.0 481.0Q1904 495 1928.5 519.5Q1953 544 1967.0 576.5Q1981 609 1981 647Z" style="fill:#000000;stroke:none" transform="scale(1,-1) translate(0,-256)" /></svg>