<?xml version="1.0" encoding="utf-8" ?>
<svg baseProfile="full" height="256" version="1.1" width="256" xmlns="http://www.w3.org/2000/svg" xmlns:ev="http://www.w3.org/2001/xml-events" xmlns:xlink="http://www.w3.org/1999/xlink"><defs /><path d="M1322 1725Q1426 1725 1517.5 1685.5Q1609 1646 1677.5 1577.5Q1746 1509 1785.5 1417.5Q1825 1326 1825 1222V1006H1753V1222Q1753 1252 1741.5 1278.0Q1730 1304 1710.5 1323.5Q1691 1343 1665.0 1354.5Q1639 1366 1609 1366H1465Q1435 1366 1409.0 1354.5Q1383 1343 1363.5 1323.5Q1344 1304 1333.0 1278.0Q1322 1252 1322 1222Q1322 1252 1310.5 1278.0Q1299 1304 1279.5 1323.5Q1260 1343 1234.0 1354.5Q1208 1366 1178 1366H1034Q1004 1366 978.0 1354.5Q952 1343 932.5 1323.5Q913 1304 901.5 1278.0Q890 1252 890 1222V1006H819V1222Q819 1326 858.5 1417.5Q898 1509 966.0 1577.5Q1034 1646 1126.0 1685.5Q1218 1725 1322 1725Z" style="fill:#383838;stroke:none" transform="scale(1,-1) translate(0,-256)" /></svg>