<?xml version="1.0" encoding="utf-8" ?>
<svg baseProfile="full" height="256" version="1.1" width="256" xmlns="http://www.w3.org/2000/svg" xmlns:ev="http://www.w3.org/2001/xml-events" xmlns:xlink="http://www.w3.org/1999/xlink"><defs /><path d="M1322 1671Q1398 1671 1468.0 1653.5Q1538 1636 1597.0 1599.5Q1656 1563 1700.0 1507.0Q1744 1451 1767 1375Q1775 1351 1779.5 1326.5Q1784 1302 1787 1276V1262Q1787 1252 1787.0 1243.0Q1787 1234 1789 1222Q1791 1207 1797.0 1175.5Q1803 1144 1809.0 1110.0Q1815 1076 1820.0 1046.5Q1825 1017 1825 1006Q1825 902 1785.5 810.5Q1746 719 1677.5 650.5Q1609 582 1517.5 542.5Q1426 503 1322 503Q1218 503 1126.5 542.5Q1035 582 966.5 650.5Q898 719 858.5 810.5Q819 902 819 1006Q819 1017 824.0 1046.5Q829 1076 835.0 1110.0Q841 1144 847.0 1175.5Q853 1207 855 1222Q856 1230 856.5 1236.5Q857 1243 857 1249V1276Q860 1302 864.5 1326.5Q869 1351 877 1375Q900 1451 944.0 1507.0Q988 1563 1047.0 1599.5Q1106 1636 1176.0 1653.5Q1246 1671 1322 1671ZM1537 431 1322 216 1106 431Z" style="fill:#e5e5e5;stroke:none" transform="scale(1,-1) translate(0,-256)" /></svg>