<?xml version="1.0" encoding="utf-8" ?>
<svg baseProfile="full" height="256" version="1.1" width="256" xmlns="http://www.w3.org/2000/svg" xmlns:ev="http://www.w3.org/2001/xml-events" xmlns:xlink="http://www.w3.org/1999/xlink"><defs /><path d="M1178 1007Q1178 977 1157.0 956.0Q1136 935 1106 935Q1076 935 1055.0 956.0Q1034 977 1034 1007V1079Q1034 1109 1055.0 1130.0Q1076 1151 1106 1151Q1136 1151 1157.0 1130.0Q1178 1109 1178 1079ZM1537 1151Q1567 1151 1588.0 1130.0Q1609 1109 1609 1079V1007Q1609 977 1588.0 956.0Q1567 935 1537 935Q1508 935 1486.5 956.5Q1465 978 1465 1007V1079Q1465 1108 1486.5 1129.5Q1508 1151 1537 1151Z" style="fill:#000000;stroke:none" transform="scale(1,-1) translate(0,-256)" /></svg>