<?xml version="1.0" encoding="utf-8" ?>
<svg baseProfile="full" height="256" version="1.1" width="256" xmlns="http://www.w3.org/2000/svg" xmlns:ev="http://www.w3.org/2001/xml-events" xmlns:xlink="http://www.w3.org/1999/xlink"><defs /><path d="M1465 216Q1465 186 1454.0 160.0Q1443 134 1423.5 114.5Q1404 95 1378.0 83.5Q1352 72 1322 72Q1292 72 1265.5 83.0Q1239 94 1219.5 113.5Q1200 133 1189.0 159.5Q1178 186 1178 216Q1178 246 1189.5 272.0Q1201 298 1220.5 317.5Q1240 337 1266.0 348.5Q1292 360 1322 360Q1352 360 1378.0 348.5Q1404 337 1423.5 317.5Q1443 298 1454.0 272.0Q1465 246 1465 216Z" style="fill:#c19c00;stroke:none" transform="scale(1,-1) translate(0,-256)" /></svg>