<?xml version="1.0" encoding="utf-8" ?>
<svg baseProfile="full" height="256" version="1.1" width="256" xmlns="http://www.w3.org/2000/svg" xmlns:ev="http://www.w3.org/2001/xml-events" xmlns:xlink="http://www.w3.org/1999/xlink"><defs /><path d="M1945 492Q2018 450 2075.5 392.0Q2133 334 2173.0 264.0Q2213 194 2234.5 115.0Q2256 36 2256 -48V-431H387V-48Q387 36 408.5 115.0Q430 194 470.5 264.0Q511 334 568.5 392.0Q626 450 699 492L256 935L472 1150H675V1222Q675 1311 698.0 1394.0Q721 1477 763.5 1548.5Q806 1620 865.0 1679.0Q924 1738 995.5 1780.5Q1067 1823 1150.0 1846.0Q1233 1869 1322 1869Q1411 1869 1493.5 1846.0Q1576 1823 1648.0 1780.5Q1720 1738 1779.0 1679.0Q1838 1620 1880.5 1548.0Q1923 1476 1946.0 1393.5Q1969 1311 1969 1222V1150H2172L2387 935Z" style="fill:#000000;stroke:none" transform="scale(1,-1) translate(0,-256)" /></svg>