<?xml version="1.0" encoding="utf-8" ?>
<svg baseProfile="full" height="256" version="1.1" width="256" xmlns="http://www.w3.org/2000/svg" xmlns:ev="http://www.w3.org/2001/xml-events" xmlns:xlink="http://www.w3.org/1999/xlink"><defs /><path d="M1406 1510 1448 1444Q1477 1455 1504 1461L1549 1552Q1584 1560 1620.5 1565.5Q1657 1571 1693 1575L1734 1506Q1751 1506 1768.5 1509.0Q1786 1512 1803 1512L1837 1581Q1909 1581 1981 1575L2014 1509Q2032 1505 2050.0 1502.0Q2068 1499 2086 1494L2125 1553Q2162 1545 2197.5 1534.5Q2233 1524 2268 1510V1365L2180 1325L2268 1222V1078L2179 1038L2268 935V791L2182 748L2268 647V503Q2233 517 2197.0 527.5Q2161 538 2124 546L2090 605Q2073 609 2057.0 611.0Q2041 613 2024 615Q2023 615 2022.0 615.5Q2021 616 2020 616L1981 568Q1945 572 1909.0 573.5Q1873 575 1837 575Q1834 579 1829.0 590.5Q1824 602 1818.0 613.5Q1812 625 1806.0 634.0Q1800 643 1794 643Q1778 643 1763.0 639.0Q1748 635 1732 633L1693 568Q1657 565 1621.0 559.5Q1585 554 1550 546L1500 607Q1485 604 1471.5 597.0Q1458 590 1444 585L1406 503Q1371 489 1335.0 478.5Q1299 468 1262 460L1221 523Q1209 521 1197.0 520.5Q1185 520 1173 518L1119 438Q1083 435 1047.0 433.0Q1011 431 975 431L930 502Q921 502 911.5 501.5Q902 501 893 501H884L831 438Q795 442 758.5 447.0Q722 452 687 460L679 468Q664 483 640.5 507.0Q617 531 595.5 556.5Q574 582 558.5 606.0Q543 630 543 647V791L621 819L543 934V1078L617 1127L543 1222V1366Q549 1372 570.0 1388.0Q591 1404 615.5 1421.5Q640 1439 661.5 1452.5Q683 1466 688 1466Q724 1466 759.5 1457.0Q795 1448 831 1445L866 1383Q880 1378 896.5 1377.5Q913 1377 927 1377H942L975 1438Q1011 1438 1047.0 1439.5Q1083 1441 1118 1445L1156 1381Q1173 1385 1189.5 1385.0Q1206 1385 1222 1390L1262 1467Q1299 1475 1335.0 1485.5Q1371 1496 1406 1510Z" style="fill:#383838;stroke:none" transform="scale(1,-1) translate(0,-256)" /></svg>