<?xml version="1.0" encoding="utf-8" ?>
<svg baseProfile="full" height="256" version="1.1" width="256" xmlns="http://www.w3.org/2000/svg" xmlns:ev="http://www.w3.org/2001/xml-events" xmlns:xlink="http://www.w3.org/1999/xlink"><defs /><path d="M2242 1158 2380 1078V1006H440V1078L564 1158ZM1837 863Q1903 863 1968.5 844.5Q2034 826 2086.5 788.5Q2139 751 2172.0 695.5Q2205 640 2205 566Q2205 491 2171.5 438.0Q2138 385 2085.5 351.5Q2033 318 1967.0 303.0Q1901 288 1837 288V431L1921 575L1837 719ZM617 571Q617 644 648.5 699.0Q680 754 731.0 790.5Q782 827 846.0 845.0Q910 863 975 863V719L901 575L975 431V288Q910 288 846.0 304.5Q782 321 731.0 356.0Q680 391 648.5 444.0Q617 497 617 571Z" style="fill:#000000;stroke:none" transform="scale(1,-1) translate(0,-256)" /></svg>