<?xml version="1.0" encoding="utf-8" ?>
<svg baseProfile="full" height="256" version="1.1" width="256" xmlns="http://www.w3.org/2000/svg" xmlns:ev="http://www.w3.org/2001/xml-events" xmlns:xlink="http://www.w3.org/1999/xlink"><defs /><path d="M1119 831H1698L1765 791V360Q1765 330 1744.0 309.0Q1723 288 1693 288H1118Q1089 288 1068.0 309.5Q1047 331 1047 360V791ZM831 575Q831 605 842.0 631.0Q853 657 872.5 676.5Q892 696 918.5 707.5Q945 719 975 719V647L943 575L975 503V431Q945 431 919.0 442.5Q893 454 873.5 473.5Q854 493 842.5 519.0Q831 545 831 575ZM1837 719Q1867 719 1893.0 707.5Q1919 696 1938.5 676.5Q1958 657 1969.5 631.0Q1981 605 1981 575Q1981 545 1969.5 519.0Q1958 493 1938.5 473.5Q1919 454 1893.0 442.5Q1867 431 1837 431V503L1869 575L1837 647Z" style="fill:#f2f2f2;stroke:none" transform="scale(1,-1) translate(0,-256)" /></svg>