<?xml version="1.0" encoding="utf-8" ?>
<svg baseProfile="full" height="256" version="1.1" width="256" xmlns="http://www.w3.org/2000/svg" xmlns:ev="http://www.w3.org/2001/xml-events" xmlns:xlink="http://www.w3.org/1999/xlink"><defs /><path d="M1837 1412Q1837 1447 1850.5 1478.0Q1864 1509 1887.0 1532.0Q1910 1555 1941.0 1568.0Q1972 1581 2007 1581Q2082 1581 2132.5 1549.5Q2183 1518 2213.0 1467.5Q2243 1417 2255.5 1353.5Q2268 1290 2268 1226V1222L2163 1298Q2138 1263 2099.5 1242.5Q2061 1222 2017 1222Q1978 1222 1945.0 1237.5Q1912 1253 1888.0 1279.0Q1864 1305 1850.5 1339.5Q1837 1374 1837 1412Z" style="fill:#da3b01;stroke:none" transform="scale(1,-1) translate(0,-256)" /></svg>