<?xml version="1.0" encoding="utf-8" ?>
<svg baseProfile="full" height="256" version="1.1" width="256" xmlns="http://www.w3.org/2000/svg" xmlns:ev="http://www.w3.org/2001/xml-events" xmlns:xlink="http://www.w3.org/1999/xlink"><defs /><path d="M1622 431V72Q1622 43 1600.5 21.5Q1579 0 1550 0Q1550 -30 1538.5 -56.0Q1527 -82 1507.5 -101.5Q1488 -121 1462.0 -132.5Q1436 -144 1406 -144V0H1262V-144Q1232 -144 1206.0 -132.5Q1180 -121 1160.5 -101.5Q1141 -82 1129.5 -56.0Q1118 -30 1118 0Q1089 0 1068.0 21.5Q1047 43 1047 72V431Q1047 460 1068.0 481.5Q1089 503 1118 503V1150Q1118 1180 1129.5 1206.0Q1141 1232 1160.5 1251.5Q1180 1271 1206.0 1282.5Q1232 1294 1262 1294H1406Q1436 1294 1462.0 1282.5Q1488 1271 1507.5 1251.5Q1527 1232 1538.5 1206.0Q1550 1180 1550 1150V503Q1579 503 1600.5 481.5Q1622 460 1622 431Z" style="fill:#8e562e;stroke:none" transform="scale(1,-1) translate(0,-256)" /></svg>