<?xml version="1.0" encoding="utf-8" ?>
<svg baseProfile="full" height="256" version="1.1" width="256" xmlns="http://www.w3.org/2000/svg" xmlns:ev="http://www.w3.org/2001/xml-events" xmlns:xlink="http://www.w3.org/1999/xlink"><defs /><path d="M2057 758Q2136 729 2201.5 678.0Q2267 627 2314.0 560.5Q2361 494 2386.5 415.5Q2412 337 2412 252V216Q2412 123 2395.0 33.0Q2378 -57 2340.0 -136.5Q2302 -216 2241.0 -280.5Q2180 -345 2091 -387Q2053 -405 2005.0 -418.0Q1957 -431 1914 -431H1693Q1664 -431 1637.5 -419.5Q1611 -408 1591.5 -388.5Q1572 -369 1560.5 -343.0Q1549 -317 1549 -287Q1549 -276 1551.0 -266.0Q1553 -256 1556 -245Q1488 -287 1406 -287Q1369 -287 1334 -268Q1299 -287 1262 -287Q1222 -287 1184.0 -276.5Q1146 -266 1112 -245Q1115 -256 1117.0 -266.0Q1119 -276 1119 -287Q1119 -317 1107.5 -343.0Q1096 -369 1076.5 -388.5Q1057 -408 1030.5 -419.5Q1004 -431 975 -431H759Q714 -431 666.0 -418.0Q618 -405 579 -387Q489 -345 427.5 -280.5Q366 -216 328.0 -136.5Q290 -57 273.0 33.0Q256 123 256 216V252Q256 337 281.5 415.5Q307 494 354.0 560.5Q401 627 466.0 678.0Q531 729 611 758Q585 778 571.0 808.0Q557 838 557 871Q557 913 578.5 946.5Q600 980 635 1003Q626 1027 626 1053Q626 1095 648.0 1128.5Q670 1162 705 1184Q700 1196 697.5 1208.5Q695 1221 695 1235Q695 1272 711.5 1301.5Q728 1331 755.0 1352.0Q782 1373 815.5 1384.0Q849 1395 883 1395Q975 1395 1039 1331Q1073 1374 1123 1402Q1136 1502 1183.5 1587.5Q1231 1673 1303.0 1735.5Q1375 1798 1466.0 1833.5Q1557 1869 1658 1869Q1760 1869 1854.5 1831.5Q1949 1794 2024 1725Q2129 1720 2202.5 1676.0Q2276 1632 2322.5 1562.0Q2369 1492 2390.5 1403.5Q2412 1315 2412 1222Q2412 1192 2401.0 1166.0Q2390 1140 2370.5 1120.5Q2351 1101 2325.0 1090.0Q2299 1079 2269 1079Q2238 1079 2215.0 1089.0Q2192 1099 2169 1117Q2107 1084 2040 1080Q2042 1074 2042.0 1067.5Q2042 1061 2042 1055Q2042 1028 2033 1003Q2068 982 2089.5 947.0Q2111 912 2111 871Q2111 838 2097.0 808.0Q2083 778 2057 758Z" style="fill:#000000;stroke:none" transform="scale(1,-1) translate(0,-256)" /></svg>