<?xml version="1.0" encoding="utf-8" ?>
<svg baseProfile="full" height="256" version="1.1" width="256" xmlns="http://www.w3.org/2000/svg" xmlns:ev="http://www.w3.org/2001/xml-events" xmlns:xlink="http://www.w3.org/1999/xlink"><defs /><path d="M1190 73Q1161 73 1139.5 94.5Q1118 116 1118 145V180Q1118 199 1120.0 218.5Q1122 238 1129.5 253.5Q1137 269 1151.5 279.0Q1166 289 1190 289Q1220 289 1241.0 268.0Q1262 247 1262 217V145Q1262 115 1241.0 94.0Q1220 73 1190 73ZM1478 288Q1507 288 1528.5 267.0Q1550 246 1550 217V182Q1550 163 1548.0 143.5Q1546 124 1538.5 108.5Q1531 93 1516.5 83.0Q1502 73 1478 73Q1448 73 1427.0 94.0Q1406 115 1406 145V217Q1406 247 1427.0 267.5Q1448 288 1478 288Z" style="fill:#000000;stroke:none" transform="scale(1,-1) translate(0,-256)" /></svg>