<?xml version="1.0" encoding="utf-8" ?>
<svg baseProfile="full" height="256" version="1.1" width="256" xmlns="http://www.w3.org/2000/svg" xmlns:ev="http://www.w3.org/2001/xml-events" xmlns:xlink="http://www.w3.org/1999/xlink"><defs /><path d="M1478 1114Q1478 1099 1467.5 1088.5Q1457 1078 1442 1078H1226Q1211 1078 1200.5 1088.5Q1190 1099 1190 1114Q1190 1129 1200.5 1139.5Q1211 1150 1226 1150H1442Q1457 1150 1467.5 1139.5Q1478 1129 1478 1114ZM1478 899Q1478 884 1467.5 873.5Q1457 863 1442 863H1226Q1211 863 1200.5 873.5Q1190 884 1190 899Q1190 914 1200.5 924.5Q1211 935 1226 935H1442Q1457 935 1467.5 924.5Q1478 914 1478 899ZM1478 683Q1478 668 1467.5 657.5Q1457 647 1442 647H1226Q1211 647 1200.5 657.5Q1190 668 1190 683Q1190 698 1200.5 708.5Q1211 719 1226 719H1442Q1457 719 1467.5 708.5Q1478 698 1478 683ZM1478 467Q1478 453 1467.0 442.0Q1456 431 1442 431H1226Q1212 431 1201.0 442.0Q1190 453 1190 467Q1190 482 1200.5 492.5Q1211 503 1226 503H1442Q1457 503 1467.5 492.5Q1478 482 1478 467Z" style="fill:#613d30;stroke:none" transform="scale(1,-1) translate(0,-256)" /></svg>