<?xml version="1.0" encoding="utf-8" ?>
<svg baseProfile="full" height="256" version="1.1" width="256" xmlns="http://www.w3.org/2000/svg" xmlns:ev="http://www.w3.org/2001/xml-events" xmlns:xlink="http://www.w3.org/1999/xlink"><defs /><path d="M1118 1725H1981V1294H1262V144Q1262 55 1228.0 -23.5Q1194 -102 1135.5 -160.5Q1077 -219 998.5 -253.0Q920 -287 831 -287Q742 -287 663.5 -253.0Q585 -219 526.5 -160.5Q468 -102 434.0 -23.5Q400 55 400 144Q400 233 434.0 311.5Q468 390 526.5 448.5Q585 507 663.5 541.0Q742 575 831 575Q912 575 985.0 546.5Q1058 518 1118 464Z" style="fill:#735bc1;stroke:none" transform="scale(1,-1) translate(0,-256)" /></svg>