<?xml version="1.0" encoding="utf-8" ?>
<svg baseProfile="full" height="256" version="1.1" width="256" xmlns="http://www.w3.org/2000/svg" xmlns:ev="http://www.w3.org/2001/xml-events" xmlns:xlink="http://www.w3.org/1999/xlink"><defs /><path d="M2125 1294H2556V288Q2556 214 2527.5 148.5Q2499 83 2450.5 34.0Q2402 -15 2336.5 -43.5Q2271 -72 2197 -72Q2112 -72 2036.0 -34.0Q1960 4 1909 72Q1858 4 1782.5 -34.0Q1707 -72 1622 -72Q1558 -72 1498.5 -49.5Q1439 -27 1391 15Q1368 -83 1315.0 -164.5Q1262 -246 1188.0 -305.5Q1114 -365 1022.5 -398.0Q931 -431 831 -431Q712 -431 607.5 -385.5Q503 -340 425.0 -262.0Q347 -184 301.5 -79.5Q256 25 256 144Q256 217 274.5 287.5Q293 358 328.0 421.0Q363 484 412.5 537.0Q462 590 524 629Q433 684 380.5 774.0Q328 864 328 971Q328 1047 355.5 1115.5Q383 1184 431.5 1237.0Q480 1290 545.5 1323.5Q611 1357 687 1364V1869H2125Z" style="fill:#000000;stroke:none" transform="scale(1,-1) translate(0,-256)" /></svg>