<?xml version="1.0" encoding="utf-8" ?>
<svg baseProfile="full" height="256" version="1.1" width="256" xmlns="http://www.w3.org/2000/svg" xmlns:ev="http://www.w3.org/2001/xml-events" xmlns:xlink="http://www.w3.org/1999/xlink"><defs /><path d="M1693 1150H2412V288Q2412 243 2395.0 204.0Q2378 165 2349.0 135.5Q2320 106 2281.0 89.0Q2242 72 2197 72Q2152 72 2113.0 89.0Q2074 106 2044.5 135.5Q2015 165 1998.0 204.0Q1981 243 1981 288Q1981 333 1998.0 372.0Q2015 411 2044.5 440.0Q2074 469 2113.0 486.0Q2152 503 2197 503Q2233 503 2268 491V863H1837V288Q1837 243 1820.0 204.0Q1803 165 1774.0 135.5Q1745 106 1706.0 89.0Q1667 72 1622 72Q1577 72 1538.0 89.0Q1499 106 1469.5 135.5Q1440 165 1423.0 204.0Q1406 243 1406 288Q1406 333 1423.0 372.0Q1440 411 1469.5 440.0Q1499 469 1538.0 486.0Q1577 503 1622 503Q1658 503 1693 491Z" style="fill:#886ce4;stroke:none" transform="scale(1,-1) translate(0,-256)" /></svg>