<?xml version="1.0" encoding="utf-8" ?>
<svg baseProfile="full" height="256" version="1.1" width="256" xmlns="http://www.w3.org/2000/svg" xmlns:ev="http://www.w3.org/2001/xml-events" xmlns:xlink="http://www.w3.org/1999/xlink"><defs /><path d="M1572 230V1236H1892Q1946 1236 2002.0 1224.0Q2058 1212 2104.0 1185.0Q2150 1158 2179.0 1114.0Q2208 1070 2208 1006Q2208 918 2159.0 855.5Q2110 793 2026 768Q2077 761 2119.0 741.0Q2161 721 2191.0 689.0Q2221 657 2237.5 614.0Q2254 571 2254 519Q2254 445 2222.5 390.5Q2191 336 2140.0 300.5Q2089 265 2025.0 247.5Q1961 230 1895 230ZM1447 230H1264L1173 486H777L690 230H508L885 1236H1073ZM1739 682V363H1881Q1920 363 1955.5 372.0Q1991 381 2017.5 400.5Q2044 420 2060.0 450.5Q2076 481 2076 525Q2076 573 2057.0 603.5Q2038 634 2007.0 651.5Q1976 669 1937.5 675.5Q1899 682 1859 682ZM1739 1102V816H1847Q1884 816 1918.0 825.0Q1952 834 1977.5 853.0Q2003 872 2018.0 901.5Q2033 931 2033 973Q2033 1012 2018.5 1037.0Q2004 1062 1979.5 1076.5Q1955 1091 1924.0 1096.5Q1893 1102 1860 1102ZM1129 622 989 1024Q984 1039 981.5 1055.0Q979 1071 976 1087Q971 1071 967.5 1055.0Q964 1039 959 1024L821 622Z" style="fill:#ffffff;stroke:none" transform="scale(1,-1) translate(0,-256)" /></svg>