<?xml version="1.0" encoding="utf-8" ?>
<svg baseProfile="full" height="256" version="1.1" width="256" xmlns="http://www.w3.org/2000/svg" xmlns:ev="http://www.w3.org/2001/xml-events" xmlns:xlink="http://www.w3.org/1999/xlink"><defs /><path d="M1837 1078 1406 216H615L744 859Q754 861 760 861Q776 861 787.0 854.5Q798 848 806.0 838.0Q814 828 819.5 815.5Q825 803 831 791Q896 657 962.0 527.0Q1028 397 1094 264Q1184 628 1275.5 992.0Q1367 1356 1459 1720Q1468 1724 1480 1724Q1499 1724 1510.0 1716.5Q1521 1709 1530 1693Q1540 1676 1548.5 1657.5Q1557 1639 1566 1622ZM2304 431 2010 325 1711 431 1890 1145Q1898 1149 1911 1149Q1945 1149 1961 1118ZM1262 1366 1094 1030 1175 1433Q1178 1434 1180.5 1434.5Q1183 1435 1186 1435Q1204 1435 1215.5 1429.5Q1227 1424 1235.0 1414.5Q1243 1405 1249.0 1392.5Q1255 1380 1262 1366Z" style="fill:#16c60c;stroke:none" transform="scale(1,-1) translate(0,-256)" /></svg>