<?xml version="1.0" encoding="utf-8" ?>
<svg baseProfile="full" height="256" version="1.1" width="256" xmlns="http://www.w3.org/2000/svg" xmlns:ev="http://www.w3.org/2001/xml-events" xmlns:xlink="http://www.w3.org/1999/xlink"><defs /><path d="M400 -287V216L508 431H1262Q1265 431 1285.0 425.5Q1305 420 1329.5 412.5Q1354 405 1376.5 398.5Q1399 392 1405 390Q1412 392 1434.0 399.0Q1456 406 1480.5 413.0Q1505 420 1525.5 425.5Q1546 431 1549 431H2304L2412 216V-287Q2400 -287 2388.0 -287.5Q2376 -288 2364 -288Q2358 -288 2352.0 -288.0Q2346 -288 2340 -287L1717 -220Q1639 -212 1562.0 -199.0Q1485 -186 1406 -186Q1327 -186 1250.0 -199.0Q1173 -212 1095 -220L472 -287Q466 -288 460.0 -288.0Q454 -288 448 -288Q436 -288 424.0 -287.5Q412 -287 400 -287Z" style="fill:#107c10;stroke:none" transform="scale(1,-1) translate(0,-256)" /></svg>