<?xml version="1.0" encoding="utf-8" ?>
<svg baseProfile="full" height="256" version="1.1" width="256" xmlns="http://www.w3.org/2000/svg" xmlns:ev="http://www.w3.org/2001/xml-events" xmlns:xlink="http://www.w3.org/1999/xlink"><defs /><path d="M759 -72 831 0H1981L2053 -72L1621 -104Q1567 -108 1513.0 -114.0Q1459 -120 1405 -120Q1351 -120 1297.5 -114.0Q1244 -108 1190 -104ZM2197 -215 2268 -287H543L615 -215ZM975 144 1047 216H1765L1837 144L1549 108Q1513 103 1477.5 96.5Q1442 90 1405 90Q1368 90 1333.0 96.5Q1298 103 1262 108ZM1190 360 1262 431H1549L1622 360L1405 319Z" style="fill:#bb9167;stroke:none" transform="scale(1,-1) translate(0,-256)" /></svg>