<?xml version="1.0" encoding="utf-8" ?>
<svg baseProfile="full" height="256" version="1.1" width="256" xmlns="http://www.w3.org/2000/svg" xmlns:ev="http://www.w3.org/2001/xml-events" xmlns:xlink="http://www.w3.org/1999/xlink"><defs /><path d="M1891 1291Q1897 1292 1903.0 1292.5Q1909 1293 1915 1293Q1970 1293 2018.0 1262.0Q2066 1231 2090 1182L2556 250V-431H256V250L578 895Q606 952 659.0 978.0Q712 1004 773 1004H777L1010 1470Q1038 1527 1090.5 1553.0Q1143 1579 1204 1579H1208L1297 1757Q1323 1808 1373.0 1837.5Q1423 1867 1480 1867Q1537 1867 1585.0 1837.5Q1633 1808 1659 1757Z" style="fill:#000000;stroke:none" transform="scale(1,-1) translate(0,-256)" /></svg>