<?xml version="1.0" encoding="utf-8" ?>
<svg baseProfile="full" height="256" version="1.1" width="256" xmlns="http://www.w3.org/2000/svg" xmlns:ev="http://www.w3.org/2001/xml-events" xmlns:xlink="http://www.w3.org/1999/xlink"><defs /><path d="M1478 0V-215H1262L1298 -108L1262 0L1266 1Q1246 3 1226.5 6.0Q1207 9 1187 13L1226 72V151Q1256 146 1286.0 145.0Q1316 144 1347 144H1478L1526 0ZM1807 155Q1859 113 1923.0 92.5Q1987 72 2053 72H2310Q2271 39 2221.0 19.5Q2171 0 2119 0H1729ZM922 79Q881 88 849.5 111.0Q818 134 797.0 166.0Q776 198 765.5 236.5Q755 275 755 314Q755 325 756.0 337.0Q757 349 759 360Q792 300 850.0 262.0Q908 224 975 216ZM759 1366H831L759 1150ZM1505 360Q1520 360 1530.5 349.5Q1541 339 1541 324Q1541 309 1530.5 298.5Q1520 288 1505 288Q1490 288 1479.5 298.5Q1469 309 1469 324Q1469 339 1479.5 349.5Q1490 360 1505 360ZM1649 360Q1664 360 1674.5 349.5Q1685 339 1685 324Q1685 309 1674.5 298.5Q1664 288 1649 288Q1634 288 1623.5 298.5Q1613 309 1613 324Q1613 339 1623.5 349.5Q1634 360 1649 360ZM1505 503Q1520 503 1530.5 492.5Q1541 482 1541 467Q1541 453 1530.0 442.0Q1519 431 1505 431Q1491 431 1480.0 442.0Q1469 453 1469 467Q1469 482 1479.5 492.5Q1490 503 1505 503Z" style="fill:#69797e;stroke:none" transform="scale(1,-1) translate(0,-256)" /></svg>