<?xml version="1.0" encoding="utf-8" ?>
<svg baseProfile="full" height="256" version="1.1" width="256" xmlns="http://www.w3.org/2000/svg" xmlns:ev="http://www.w3.org/2001/xml-events" xmlns:xlink="http://www.w3.org/1999/xlink"><defs /><path d="M1350 -431 1374 -359H1177L1159 -431H647L755 3Q689 54 652.0 129.0Q615 204 615 288V1222H472Q427 1222 388.0 1239.0Q349 1256 319.5 1285.5Q290 1315 273.0 1354.0Q256 1393 256 1438V1510Q256 1584 284.0 1649.5Q312 1715 361.0 1763.5Q410 1812 475.5 1840.5Q541 1869 615 1869H831Q905 1869 970.5 1840.5Q1036 1812 1084.5 1763.5Q1133 1715 1161.5 1649.5Q1190 1584 1190 1510V791H1371Q1447 791 1525.0 776.0Q1603 761 1675.0 730.0Q1747 699 1808.5 651.5Q1870 604 1914 538L1915 542Q1909 566 1909 591Q1909 632 1924.5 668.5Q1940 705 1966.5 732.0Q1993 759 2029.0 775.0Q2065 791 2106 791Q2123 791 2140 788Q2230 771 2306.0 724.5Q2382 678 2437.5 611.0Q2493 544 2524.5 460.0Q2556 376 2556 285Q2556 195 2520.5 116.5Q2485 38 2424.0 -19.5Q2363 -77 2283.0 -110.5Q2203 -144 2115 -144H1909V-431Z" style="fill:#000000;stroke:none" transform="scale(1,-1) translate(0,-256)" /></svg>