<?xml version="1.0" encoding="utf-8" ?>
<svg baseProfile="full" height="256" version="1.1" width="256" xmlns="http://www.w3.org/2000/svg" xmlns:ev="http://www.w3.org/2001/xml-events" xmlns:xlink="http://www.w3.org/1999/xlink"><defs /><path d="M2106 647Q2113 647 2116 646Q2180 633 2234.5 600.0Q2289 567 2328.5 519.0Q2368 471 2390.0 411.5Q2412 352 2412 286Q2412 225 2385.5 167.5Q2359 110 2311 72Q2300 63 2272.0 58.5Q2244 54 2212.0 52.0Q2180 50 2150.0 49.5Q2120 49 2106 49Q2019 49 1933.5 53.0Q1848 57 1761 63L1729 0Q1741 -48 1753.5 -93.5Q1766 -139 1766 -188V-287H1550L1586 -179L1508 52H1496Q1429 52 1360.5 54.5Q1292 57 1226 72L1083 -144Q1083 -144 1078.0 -165.0Q1073 -186 1066.5 -211.5Q1060 -237 1054.0 -259.5Q1048 -282 1047 -287H831Q854 -195 876.5 -104.5Q899 -14 922 78L797 200Q796 203 793.0 216.0Q790 229 786.0 246.5Q782 264 777.0 284.0Q772 304 768.0 320.5Q764 337 761.5 348.0Q759 359 759 360V1150Q759 1151 761.5 1162.5Q764 1174 767.5 1191.5Q771 1209 775.5 1229.5Q780 1250 784.0 1268.0Q788 1286 791.0 1299.0Q794 1312 795 1316L759 1366H472Q442 1366 421.0 1387.0Q400 1408 400 1438V1510Q400 1555 417.0 1594.0Q434 1633 463.0 1662.0Q492 1691 531.0 1708.0Q570 1725 615 1725H831Q876 1725 915.0 1708.0Q954 1691 983.5 1662.0Q1013 1633 1030.0 1594.0Q1047 1555 1047 1510V719Q1047 690 1068.0 668.5Q1089 647 1118 647Q1156 647 1195.5 647.5Q1235 648 1276 648Q1332 648 1388.0 645.0Q1444 642 1498.0 632.0Q1552 622 1603.0 603.0Q1654 584 1700 552Q1731 530 1751.0 510.5Q1771 491 1786.0 470.0Q1801 449 1815.0 425.5Q1829 402 1849 372Q1866 346 1887.0 318.0Q1908 290 1933.5 267.5Q1959 245 1989.0 230.5Q2019 216 2054 216Q2085 216 2111.0 227.5Q2137 239 2156.0 259.0Q2175 279 2185.5 306.0Q2196 333 2196 364Q2196 403 2185.5 430.5Q2175 458 2159.0 478.0Q2143 498 2124.5 512.0Q2106 526 2090.0 538.5Q2074 551 2063.5 563.0Q2053 575 2053 592Q2053 614 2068.0 630.5Q2083 647 2106 647Z" style="fill:#a0aeb2;stroke:none" transform="scale(1,-1) translate(0,-256)" /></svg>