<?xml version="1.0" encoding="utf-8" ?>
<svg baseProfile="full" height="256" version="1.1" width="256" xmlns="http://www.w3.org/2000/svg" xmlns:ev="http://www.w3.org/2001/xml-events" xmlns:xlink="http://www.w3.org/1999/xlink"><defs /><path d="M1873 1078Q1895 1078 1914.5 1069.5Q1934 1061 1949.0 1046.0Q1964 1031 1972.5 1011.5Q1981 992 1981 970V826Q1981 804 1972.5 784.5Q1964 765 1949.0 750.0Q1934 735 1914.5 726.5Q1895 718 1873 718Q1851 718 1831.5 726.5Q1812 735 1797.0 750.0Q1782 765 1773.5 784.5Q1765 804 1765 826V970Q1765 992 1773.5 1011.5Q1782 1031 1797.0 1046.0Q1812 1061 1831.5 1069.5Q1851 1078 1873 1078ZM1406 50Q1443 4 1493.5 -26.0Q1544 -56 1601 -67Q1561 -104 1510.5 -124.0Q1460 -144 1406 -144Q1352 -144 1301.5 -124.0Q1251 -104 1211 -67Q1268 -56 1318.5 -26.0Q1369 4 1406 50ZM939 1078Q961 1078 980.5 1069.5Q1000 1061 1015.0 1046.0Q1030 1031 1038.5 1011.5Q1047 992 1047 970V826Q1047 804 1038.5 784.5Q1030 765 1015.0 750.0Q1000 735 980.5 726.5Q961 718 939 718Q917 718 897.5 726.5Q878 735 863.0 750.0Q848 765 839.5 784.5Q831 804 831 826V970Q831 992 839.5 1011.5Q848 1031 863.0 1046.0Q878 1061 897.5 1069.5Q917 1078 939 1078Z" style="fill:#000000;stroke:none" transform="scale(1,-1) translate(0,-256)" /></svg>