<?xml version="1.0" encoding="utf-8" ?>
<svg baseProfile="full" height="256" version="1.1" width="256" xmlns="http://www.w3.org/2000/svg" xmlns:ev="http://www.w3.org/2001/xml-events" xmlns:xlink="http://www.w3.org/1999/xlink"><defs /><path d="M1981 1221Q2011 1221 2037.0 1210.0Q2063 1199 2082.5 1179.5Q2102 1160 2113.5 1134.0Q2125 1108 2125 1078V790Q2125 732 2085 692L1879 486Q1927 441 1954.0 379.0Q1981 317 1981 251Q1981 200 1965.0 153.0Q1949 106 1920.5 66.0Q1892 26 1852.5 -4.5Q1813 -35 1765 -52V-72Q1765 -117 1748.0 -156.0Q1731 -195 1702.0 -224.5Q1673 -254 1634.0 -271.0Q1595 -288 1550 -288H1262Q1217 -288 1178.0 -271.0Q1139 -254 1110.0 -224.5Q1081 -195 1064.0 -156.0Q1047 -117 1047 -72V-52Q999 -35 959.0 -4.5Q919 26 890.5 65.5Q862 105 846.5 152.5Q831 200 831 251Q831 317 858.0 379.0Q885 441 933 486L727 692Q687 732 687 790V1078Q687 1108 698.5 1134.0Q710 1160 729.5 1179.5Q749 1199 775.0 1210.0Q801 1221 831 1221H1118V431L1397 331L1693 431V1221Z" style="fill:#ffffff;stroke:none" transform="scale(1,-1) translate(0,-256)" /></svg>