<?xml version="1.0" encoding="utf-8" ?>
<svg baseProfile="full" height="256" version="1.1" width="256" xmlns="http://www.w3.org/2000/svg" xmlns:ev="http://www.w3.org/2001/xml-events" xmlns:xlink="http://www.w3.org/1999/xlink"><defs /><path d="M612 1309Q581 1337 562.0 1365.0Q543 1393 543 1437Q543 1467 554.5 1493.0Q566 1519 585.5 1538.5Q605 1558 631.0 1569.5Q657 1581 687 1581Q716 1581 742.5 1570.0Q769 1559 789 1539ZM2200 1309 2023 1539Q2043 1559 2069.5 1570.0Q2096 1581 2125 1581Q2155 1581 2181.0 1569.5Q2207 1558 2226.5 1538.5Q2246 1519 2257.0 1493.0Q2268 1467 2268 1437Q2268 1393 2249.0 1365.5Q2230 1338 2200 1309Z" style="fill:#d48c00;stroke:none" transform="scale(1,-1) translate(0,-256)" /></svg>