<?xml version="1.0" encoding="utf-8" ?>
<svg baseProfile="full" height="256" version="1.1" width="256" xmlns="http://www.w3.org/2000/svg" xmlns:ev="http://www.w3.org/2001/xml-events" xmlns:xlink="http://www.w3.org/1999/xlink"><defs /><path d="M1978 1654Q2010 1654 2053.5 1650.5Q2097 1647 2140.5 1638.0Q2184 1629 2222.0 1613.0Q2260 1597 2282 1571Q2305 1543 2312.5 1514.5Q2320 1486 2320 1451Q2320 1394 2305.0 1334.0Q2290 1274 2268 1221Q2301 1178 2328.0 1125.5Q2355 1073 2373.5 1016.5Q2392 960 2402.0 902.0Q2412 844 2412 790V-72Q2331 -72 2258.0 -44.0Q2185 -16 2125 38V-288Q2036 -288 1957.5 -254.0Q1879 -220 1820.0 -161.5Q1761 -103 1727.0 -24.5Q1693 54 1693 143H1118Q1118 54 1084.0 -24.5Q1050 -103 991.5 -161.5Q933 -220 854.5 -254.0Q776 -288 687 -288V38Q627 -16 554.0 -44.0Q481 -72 400 -72V790Q400 849 408.5 900.5Q417 952 433.0 1000.0Q449 1048 471.5 1095.5Q494 1143 523 1193Q524 1233 524.5 1277.0Q525 1321 530.0 1364.5Q535 1408 547.5 1448.5Q560 1489 585 1522Q605 1549 632.0 1568.5Q659 1588 689.5 1602.5Q720 1617 752.0 1627.0Q784 1637 816 1644Q831 1647 846.0 1650.0Q861 1653 877 1653Q1154 1653 1427.5 1653.5Q1701 1654 1978 1654Z" style="fill:#8e562e;stroke:none" transform="scale(1,-1) translate(0,-256)" /></svg>