<?xml version="1.0" encoding="utf-8" ?>
<svg baseProfile="full" height="256" version="1.1" width="256" xmlns="http://www.w3.org/2000/svg" xmlns:ev="http://www.w3.org/2001/xml-events" xmlns:xlink="http://www.w3.org/1999/xlink"><defs /><path d="M1765 1581Q1799 1581 1820.0 1570.0Q1841 1559 1867 1539Q1907 1508 1943.5 1471.5Q1980 1435 2016 1400Q2077 1340 2124.0 1269.0Q2171 1198 2203.0 1120.5Q2235 1043 2252.0 959.5Q2269 876 2269 790Q2269 671 2238.0 561.0Q2207 451 2151.0 355.0Q2095 259 2016.0 180.0Q1937 101 1841.0 45.0Q1745 -11 1635.0 -42.0Q1525 -73 1406 -73Q1287 -73 1177.0 -42.0Q1067 -11 971.0 45.0Q875 101 796.0 180.0Q717 259 661.0 355.0Q605 451 574.0 561.0Q543 671 543 790Q543 964 608.0 1121.0Q673 1278 796 1400Q832 1435 868.5 1471.0Q905 1507 945 1539Q958 1549 969.0 1557.0Q980 1565 991.0 1570.0Q1002 1575 1015.5 1578.0Q1029 1581 1046 1581Q1104 1581 1148 1539L1406 1293L1664 1539Q1708 1581 1765 1581ZM1935 1653Q1974 1688 2023.0 1706.0Q2072 1724 2125 1724Q2184 1724 2236.5 1701.5Q2289 1679 2328.0 1640.0Q2367 1601 2389.5 1548.5Q2412 1496 2412 1437Q2412 1396 2403.0 1363.0Q2394 1330 2377.5 1301.5Q2361 1273 2338.5 1247.0Q2316 1221 2288 1194Q2268 1224 2245.5 1252.0Q2223 1280 2201 1309L2189 1484L2024 1538ZM524 1194Q496 1221 473.5 1247.0Q451 1273 434.5 1301.5Q418 1330 409.0 1363.0Q400 1396 400 1437Q400 1496 422.5 1548.5Q445 1601 484.0 1640.0Q523 1679 575.5 1701.5Q628 1724 687 1724Q740 1724 789.0 1706.0Q838 1688 877 1653L789 1538L619 1492L611 1309Q589 1280 566.5 1252.0Q544 1224 524 1194Z" style="fill:#ffb900;stroke:none" transform="scale(1,-1) translate(0,-256)" /></svg>