<?xml version="1.0" encoding="utf-8" ?>
<svg baseProfile="full" height="256" version="1.1" width="256" xmlns="http://www.w3.org/2000/svg" xmlns:ev="http://www.w3.org/2001/xml-events" xmlns:xlink="http://www.w3.org/1999/xlink"><defs /><path d="M2126 1868Q2216 1868 2294.0 1834.5Q2372 1801 2430.5 1742.5Q2489 1684 2522.5 1606.0Q2556 1528 2556 1438Q2556 1366 2533.0 1298.0Q2510 1230 2465 1173Q2510 1084 2533.0 987.5Q2556 891 2556 791V-215Q2532 -215 2508.0 -215.5Q2484 -216 2460 -216Q2412 -216 2364.0 -212.5Q2316 -209 2268 -197V-431H2199Q2140 -431 2089.0 -428.0Q2038 -425 1990.0 -415.0Q1942 -405 1895.5 -385.0Q1849 -365 1799 -330Q1748 -378 1684.0 -404.5Q1620 -431 1550 -431H1262Q1192 -431 1127.5 -404.5Q1063 -378 1012 -330Q962 -365 915.0 -385.0Q868 -405 820.0 -415.0Q772 -425 721.0 -428.0Q670 -431 611 -431H543V-197Q496 -209 448.0 -212.5Q400 -216 352 -216Q328 -216 304.0 -215.5Q280 -215 256 -215V791Q256 891 279.5 987.0Q303 1083 346 1173Q301 1230 278.5 1297.5Q256 1365 256 1437Q256 1527 289.5 1605.5Q323 1684 381.0 1742.5Q439 1801 517.5 1834.5Q596 1868 686 1868Q749 1868 809.5 1850.0Q870 1832 923 1797H1889Q1942 1832 2002.5 1850.0Q2063 1868 2126 1868Z" style="fill:#000000;stroke:none" transform="scale(1,-1) translate(0,-256)" /></svg>