<?xml version="1.0" encoding="utf-8" ?>
<svg baseProfile="full" height="256" version="1.1" width="256" xmlns="http://www.w3.org/2000/svg" xmlns:ev="http://www.w3.org/2001/xml-events" xmlns:xlink="http://www.w3.org/1999/xlink"><defs /><path d="M2196 726 2268 718Q2337 634 2374.5 533.5Q2412 433 2412 324Q2412 198 2364.0 86.5Q2316 -25 2233.0 -108.0Q2150 -191 2038.5 -239.0Q1927 -287 1801 -287Q1692 -287 1591.5 -249.5Q1491 -212 1407 -143L1393 -71L1335 -73Q1299 -37 1262.0 -1.0Q1225 35 1190.0 72.5Q1155 110 1124.5 151.0Q1094 192 1071 239L1095 364L1018 409Q1014 432 1012.5 456.0Q1011 480 1011 503Q1011 629 1059.0 740.0Q1107 851 1190.0 934.5Q1273 1018 1384.0 1066.0Q1495 1114 1621 1114Q1644 1114 1668.0 1112.5Q1692 1111 1715 1107L1777 1048L1885 1055Q1932 1032 1973.0 1001.5Q2014 971 2052.0 936.5Q2090 902 2126.0 864.5Q2162 827 2198 791Z" style="fill:#ffb900;stroke:none" transform="scale(1,-1) translate(0,-256)" /></svg>