<?xml version="1.0" encoding="utf-8" ?>
<svg baseProfile="full" height="256" version="1.1" width="256" xmlns="http://www.w3.org/2000/svg" xmlns:ev="http://www.w3.org/2001/xml-events" xmlns:xlink="http://www.w3.org/1999/xlink"><defs /><path d="M1550 1434 1334 1218V935Q1334 905 1323.0 879.0Q1312 853 1292.5 833.5Q1273 814 1247.0 802.5Q1221 791 1191 791H907L710 594Q690 614 679.0 640.5Q668 667 668 696Q668 725 679.5 751.5Q691 778 711 798L847 935H731L551 754Q509 796 509 855Q509 884 520.0 910.5Q531 937 551 957L1187 1594Q1229 1636 1288 1636Q1317 1636 1343.5 1625.0Q1370 1614 1390 1594L1191 1394V1278L1347 1434Q1389 1476 1448 1476Q1477 1476 1503.5 1465.0Q1530 1454 1550 1434Z" style="fill:#107c10;stroke:none" transform="scale(1,-1) translate(0,-256)" /></svg>