<?xml version="1.0" encoding="utf-8" ?>
<svg baseProfile="full" height="256" version="1.1" width="256" xmlns="http://www.w3.org/2000/svg" xmlns:ev="http://www.w3.org/2001/xml-events" xmlns:xlink="http://www.w3.org/1999/xlink"><defs /><path d="M903 1725Q933 1725 959.0 1713.5Q985 1702 1004.5 1682.5Q1024 1663 1035.5 1637.0Q1047 1611 1047 1581V1222Q1047 1192 1035.5 1166.0Q1024 1140 1004.5 1120.5Q985 1101 959.0 1089.5Q933 1078 903 1078H544Q514 1078 488.0 1089.5Q462 1101 442.5 1120.5Q423 1140 411.5 1166.0Q400 1192 400 1222H625L442 1404Q421 1425 410.5 1453.0Q400 1481 400 1510Q400 1537 411.5 1563.0Q423 1589 442 1608L756 1294H831V1369L518 1683Q560 1725 619 1725Q648 1725 674.5 1714.0Q701 1703 721 1683L903 1501Z" style="fill:#73aa24;stroke:none" transform="scale(1,-1) translate(0,-256)" /></svg>