<?xml version="1.0" encoding="utf-8" ?>
<svg baseProfile="full" height="256" version="1.1" width="256" xmlns="http://www.w3.org/2000/svg" xmlns:ev="http://www.w3.org/2001/xml-events" xmlns:xlink="http://www.w3.org/1999/xlink"><defs /><path d="M1801 -431Q1647 -431 1512.0 -375.0Q1377 -319 1268 -210L1088 -30Q1035 23 994.0 85.0Q953 147 924.5 215.0Q896 283 881.5 355.5Q867 428 867 503Q867 514 867.0 525.5Q867 537 868 548L710 391L449 652Q408 693 386.5 745.5Q365 798 365 855Q365 887 371.5 918.0Q378 949 392 978Q329 1018 292.5 1082.5Q256 1147 256 1222V1348Q256 1374 255.5 1399.5Q255 1425 255 1451Q255 1514 265.5 1572.0Q276 1630 316 1681L442 1811Q481 1838 526.0 1853.5Q571 1869 619 1869H903Q976 1869 1038.5 1834.5Q1101 1800 1143 1740Q1211 1780 1289 1780Q1407 1780 1492 1695L1753 1434L1576 1256Q1587 1257 1599.0 1257.5Q1611 1258 1622 1258Q1775 1258 1910.5 1202.0Q2046 1146 2155 1037L2335 857Q2444 748 2500.0 612.5Q2556 477 2556 324Q2556 220 2529.0 123.5Q2502 27 2453.0 -57.0Q2404 -141 2335.0 -210.0Q2266 -279 2182.0 -328.0Q2098 -377 2001.5 -404.0Q1905 -431 1801 -431Z" style="fill:#000000;stroke:none" transform="scale(1,-1) translate(0,-256)" /></svg>