<?xml version="1.0" encoding="utf-8" ?>
<svg baseProfile="full" height="256" version="1.1" width="256" xmlns="http://www.w3.org/2000/svg" xmlns:ev="http://www.w3.org/2001/xml-events" xmlns:xlink="http://www.w3.org/1999/xlink"><defs /><path d="M1334 683Q1334 705 1342.5 724.5Q1351 744 1366.0 759.0Q1381 774 1400.5 782.5Q1420 791 1442 791H1622L1334 503ZM1694 683Q1694 705 1702.5 725.0Q1711 745 1725.5 759.5Q1740 774 1759.5 782.5Q1779 791 1802 791H1981L1694 503ZM1334 324Q1334 346 1342.5 365.5Q1351 385 1366.0 399.5Q1381 414 1400.5 422.5Q1420 431 1442 431H1622L1334 144ZM1694 324Q1694 346 1702.5 366.0Q1711 386 1726.0 400.0Q1741 414 1760.5 422.5Q1780 431 1802 431H1981L1694 144ZM2161 431H2340L2053 144V324Q2053 346 2061.5 366.0Q2070 386 2085.0 400.0Q2100 414 2119.5 422.5Q2139 431 2161 431ZM1694 -36Q1694 -14 1702.5 6.0Q1711 26 1725.5 40.5Q1740 55 1759.5 63.5Q1779 72 1802 72H1981L1694 -215ZM1334 -36Q1334 -14 1342.5 5.5Q1351 25 1366.0 40.0Q1381 55 1400.5 63.5Q1420 72 1442 72H1622L1407 -143Q1368 -110 1334 -73ZM2198 791Q2216 773 2234.0 755.5Q2252 738 2267 718L2053 503V683Q2053 705 2061.5 725.0Q2070 745 2084.5 759.5Q2099 774 2118.5 782.5Q2138 791 2161 791ZM1018 410Q1032 420 1048.5 425.5Q1065 431 1082 431H1262L1071 240Q1031 322 1018 410ZM1715 1107Q1760 1100 1802.0 1087.0Q1844 1074 1885 1055L1694 863V1043Q1694 1060 1699.5 1076.5Q1705 1093 1715 1107Z" style="fill:#d48c00;stroke:none" transform="scale(1,-1) translate(0,-256)" /></svg>