<?xml version="1.0" encoding="utf-8" ?>
<svg baseProfile="full" height="256" version="1.1" width="256" xmlns="http://www.w3.org/2000/svg" xmlns:ev="http://www.w3.org/2001/xml-events" xmlns:xlink="http://www.w3.org/1999/xlink"><defs /><path d="M1478 1366H1622V1294H759V1366H903V1725H1478ZM1478 1078Q1478 1049 1456.5 1027.5Q1435 1006 1406 1006Q1377 1006 1355.5 1027.5Q1334 1049 1334 1078V1150Q1334 1180 1355.0 1201.0Q1376 1222 1406 1222Q1436 1222 1457.0 1201.0Q1478 1180 1478 1150ZM1047 1078Q1047 1049 1025.5 1027.5Q1004 1006 975 1006Q946 1006 924.5 1027.5Q903 1049 903 1078V1150Q903 1180 924.0 1201.0Q945 1222 975 1222Q1004 1222 1025.5 1200.5Q1047 1179 1047 1150ZM1262 144Q1262 114 1241.0 93.0Q1220 72 1190 72Q1161 72 1139.5 93.5Q1118 115 1118 144Q1118 173 1139.5 194.5Q1161 216 1190 216Q1220 216 1241.0 195.0Q1262 174 1262 144ZM1262 431Q1262 402 1240.5 381.0Q1219 360 1190 360Q1161 360 1139.5 381.0Q1118 402 1118 431Q1118 460 1139.5 481.5Q1161 503 1190 503Q1220 503 1241.0 482.0Q1262 461 1262 431Z" style="fill:#383838;stroke:none" transform="scale(1,-1) translate(0,-256)" /></svg>