<?xml version="1.0" encoding="utf-8" ?>
<svg baseProfile="full" height="256" version="1.1" width="256" xmlns="http://www.w3.org/2000/svg" xmlns:ev="http://www.w3.org/2001/xml-events" xmlns:xlink="http://www.w3.org/1999/xlink"><defs /><path d="M1622 1869V1510H1765V1078H2125V647H1948L1853 553Q1880 490 1894.5 423.5Q1909 357 1909 288Q1909 189 1883.5 97.0Q1858 5 1811.0 -75.0Q1764 -155 1698.5 -220.5Q1633 -286 1553.0 -333.0Q1473 -380 1381.0 -405.5Q1289 -431 1190 -431Q1091 -431 999.0 -405.5Q907 -380 827.5 -333.0Q748 -286 682.5 -220.5Q617 -155 570.0 -75.0Q523 5 497.5 97.0Q472 189 472 288Q472 426 527 553L433 647H256V1078H615V1510H759V1869Z" style="fill:#000000;stroke:none" transform="scale(1,-1) translate(0,-256)" /></svg>