<?xml version="1.0" encoding="utf-8" ?>
<svg baseProfile="full" height="256" version="1.1" width="256" xmlns="http://www.w3.org/2000/svg" xmlns:ev="http://www.w3.org/2001/xml-events" xmlns:xlink="http://www.w3.org/1999/xlink"><defs /><path d="M1550 863Q1459 857 1369.5 851.0Q1280 845 1189 845Q1098 845 1009.5 851.0Q921 857 831 863Q795 908 777.0 964.0Q759 1020 759 1078Q759 1136 777.0 1192.0Q795 1248 831 1294H1550Q1586 1248 1604.0 1192.0Q1622 1136 1622 1078Q1622 1020 1604.0 964.0Q1586 908 1550 863ZM831 719Q922 727 1012.5 736.0Q1103 745 1195 745Q1285 745 1373.0 736.0Q1461 727 1550 719Q1598 680 1638.0 631.0Q1678 582 1706.0 527.0Q1734 472 1749.5 411.5Q1765 351 1765 288Q1765 169 1720.0 64.0Q1675 -41 1597.0 -119.0Q1519 -197 1414.0 -242.0Q1309 -287 1190 -287Q1071 -287 966.5 -241.5Q862 -196 784.0 -118.0Q706 -40 660.5 64.5Q615 169 615 288Q615 352 630.5 412.5Q646 473 674.5 527.5Q703 582 742.5 630.5Q782 679 831 719Z" style="fill:#ffffff;stroke:none" transform="scale(1,-1) translate(0,-256)" /></svg>