<?xml version="1.0" encoding="utf-8" ?>
<svg baseProfile="full" height="256" version="1.1" width="256" xmlns="http://www.w3.org/2000/svg" xmlns:ev="http://www.w3.org/2001/xml-events" xmlns:xlink="http://www.w3.org/1999/xlink"><defs /><path d="M1406 1581 2412 1078V961Q2412 907 2401.0 854.5Q2390 802 2381 749L2349 564Q2341 517 2329.5 471.5Q2318 426 2318 378Q2318 327 2329.5 278.5Q2341 230 2349 180L2412 -215H400L457 182Q464 227 475.0 271.5Q486 316 486 363Q486 368 486.0 372.0Q486 376 485 381L428 750Q420 797 410.0 842.0Q400 887 400 935V1078Z" style="fill:#e5e5e5;stroke:none" transform="scale(1,-1) translate(0,-256)" /></svg>