<?xml version="1.0" encoding="utf-8" ?>
<svg baseProfile="full" height="256" version="1.1" width="256" xmlns="http://www.w3.org/2000/svg" xmlns:ev="http://www.w3.org/2001/xml-events" xmlns:xlink="http://www.w3.org/1999/xlink"><defs /><path d="M2050 1420 2556 1167V-359H256V1167Q383 1232 508.5 1294.5Q634 1357 762 1420Q759 1445 759 1471Q759 1553 790.0 1625.5Q821 1698 875.0 1752.0Q929 1806 1001.5 1837.5Q1074 1869 1157 1869Q1225 1869 1289.5 1847.5Q1354 1826 1406 1781Q1458 1826 1522.5 1847.5Q1587 1869 1655 1869Q1738 1869 1810.5 1837.5Q1883 1806 1937.0 1751.0Q1991 1696 2022.0 1623.0Q2053 1550 2053 1468Q2053 1444 2050 1420Z" style="fill:#000000;stroke:none" transform="scale(1,-1) translate(0,-256)" /></svg>