<?xml version="1.0" encoding="utf-8" ?>
<svg baseProfile="full" height="256" version="1.1" width="256" xmlns="http://www.w3.org/2000/svg" xmlns:ev="http://www.w3.org/2001/xml-events" xmlns:xlink="http://www.w3.org/1999/xlink"><defs /><path d="M2233 431Q2247 431 2257.5 420.5Q2268 410 2268 396Q2268 382 2257.5 371.0Q2247 360 2233 360H1990L2141 284Q2161 274 2161 252Q2161 237 2150.5 226.5Q2140 216 2125 216Q2120 216 2098.5 225.5Q2077 235 2047.0 249.5Q2017 264 1982.5 281.5Q1948 299 1916.5 315.0Q1885 331 1861.5 343.5Q1838 356 1829 360H1693Q1619 360 1553.5 388.0Q1488 416 1439.0 465.0Q1390 514 1362.0 579.5Q1334 645 1334 719Q1334 738 1338.5 761.5Q1343 785 1350.5 810.0Q1358 835 1366.0 858.0Q1374 881 1382 899H2219Q2243 859 2255.5 813.0Q2268 767 2268 719Q2268 634 2230.5 558.0Q2193 482 2125 431Z" style="fill:#73aa24;stroke:none" transform="scale(1,-1) translate(0,-256)" /></svg>