<?xml version="1.0" encoding="utf-8" ?>
<svg baseProfile="full" height="256" version="1.1" width="256" xmlns="http://www.w3.org/2000/svg" xmlns:ev="http://www.w3.org/2001/xml-events" xmlns:xlink="http://www.w3.org/1999/xlink"><defs /><path d="M1837 719Q1867 719 1888.0 697.5Q1909 676 1909 646V634Q1909 626 1907.5 620.0Q1906 614 1901 607L1560 180L1829 -157Q1837 -167 1837 -180Q1837 -196 1827.0 -205.5Q1817 -215 1801 -215Q1784 -215 1773 -202L1481 164Q1478 171 1478 180Q1478 188 1481 196L1756 544L1396 424Q1392 422 1384.0 417.5Q1376 413 1367.0 407.5Q1358 402 1349.0 397.0Q1340 392 1334 389V-179Q1334 -194 1323.5 -204.5Q1313 -215 1298 -215Q1283 -215 1272.5 -204.5Q1262 -194 1262 -179V367Q1228 360 1190 360Q1152 360 1118 367Q1118 355 1119.0 323.5Q1120 292 1120 257Q1120 222 1118.0 193.0Q1116 164 1111 157L823 -202Q813 -215 795 -215Q780 -215 769.5 -205.0Q759 -195 759 -180Q759 -167 767 -157L1047 192V389Q1007 406 973.0 432.0Q939 458 912.0 491.0Q885 524 866.5 563.0Q848 602 839 645Q812 625 783.0 607.0Q754 589 723 575Q661 603 602.5 647.0Q544 691 499.0 747.5Q454 804 427.0 869.5Q400 935 400 1006Q400 1066 422.5 1118.5Q445 1171 484.0 1210.0Q523 1249 575.0 1271.5Q627 1294 687 1294Q687 1339 670.0 1378.0Q653 1417 624.0 1446.5Q595 1476 556.0 1493.0Q517 1510 472 1510H436Q421 1510 410.5 1520.5Q400 1531 400 1546Q400 1560 411.0 1570.5Q422 1581 436 1581H472Q531 1581 583.5 1558.5Q636 1536 675.0 1497.0Q714 1458 736.5 1405.5Q759 1353 759 1294Q813 1294 861.0 1275.5Q909 1257 947.5 1224.0Q986 1191 1011.0 1145.5Q1036 1100 1044 1047Q1079 1063 1115.5 1070.5Q1152 1078 1190 1078Q1264 1078 1329.5 1050.0Q1395 1022 1444.0 973.0Q1493 924 1521.5 859.0Q1550 794 1550 719Q1550 695 1546.5 670.5Q1543 646 1537 623Q1548 627 1572.5 635.5Q1597 644 1628.0 654.5Q1659 665 1692.5 676.5Q1726 688 1755.5 697.5Q1785 707 1807.0 713.0Q1829 719 1837 719Z" style="fill:#bad80a;stroke:none" transform="scale(1,-1) translate(0,-256)" /></svg>