<?xml version="1.0" encoding="utf-8" ?>
<svg baseProfile="full" height="256" version="1.1" width="256" xmlns="http://www.w3.org/2000/svg" xmlns:ev="http://www.w3.org/2001/xml-events" xmlns:xlink="http://www.w3.org/1999/xlink"><defs /><path d="M1370 719Q1385 719 1395.5 708.5Q1406 698 1406 683Q1406 668 1395.5 657.5Q1385 647 1370 647Q1355 647 1344.5 657.5Q1334 668 1334 683Q1334 698 1344.5 708.5Q1355 719 1370 719ZM1226 575Q1241 575 1251.5 564.5Q1262 554 1262 539Q1262 524 1251.5 513.5Q1241 503 1226 503Q1211 503 1200.5 513.5Q1190 524 1190 539Q1190 554 1200.5 564.5Q1211 575 1226 575ZM1370 575Q1385 575 1395.5 564.5Q1406 554 1406 539Q1406 524 1395.5 513.5Q1385 503 1370 503Q1355 503 1344.5 513.5Q1334 524 1334 539Q1334 554 1344.5 564.5Q1355 575 1370 575Z" style="fill:#73aa24;stroke:none" transform="scale(1,-1) translate(0,-256)" /></svg>