<?xml version="1.0" encoding="utf-8" ?>
<svg baseProfile="full" height="256" version="1.1" width="256" xmlns="http://www.w3.org/2000/svg" xmlns:ev="http://www.w3.org/2001/xml-events" xmlns:xlink="http://www.w3.org/1999/xlink"><defs /><path d="M1801 -359Q1759 -359 1723.0 -341.5Q1687 -324 1661 -292L1478 -63V-169Q1478 -207 1464.5 -241.5Q1451 -276 1427.0 -302.0Q1403 -328 1370.0 -343.5Q1337 -359 1298 -359Q1261 -359 1228.0 -345.0Q1195 -331 1170.5 -306.5Q1146 -282 1132.0 -249.0Q1118 -216 1118 -179V-63L935 -292Q909 -324 873.0 -341.5Q837 -359 795 -359Q760 -359 727.5 -345.5Q695 -332 670.0 -308.0Q645 -284 630.5 -252.5Q616 -221 616 -185Q616 -116 660 -61L903 243V306Q864 333 831.0 367.0Q798 401 772 440L724 418L665 444Q627 461 590.5 483.5Q554 506 521 531Q463 574 414.5 625.5Q366 677 330.5 737.0Q295 797 275.5 864.0Q256 931 256 1006Q256 1060 269.5 1111.5Q283 1163 307.5 1209.5Q332 1256 368.0 1296.0Q404 1336 449 1366Q410 1366 375.0 1379.0Q340 1392 313.5 1416.0Q287 1440 271.5 1473.0Q256 1506 256 1546Q256 1583 270.0 1615.5Q284 1648 308.5 1672.5Q333 1697 366.0 1711.0Q399 1725 436 1725H472Q543 1725 608.5 1702.5Q674 1680 728.5 1639.5Q783 1599 823.5 1543.0Q864 1487 884 1419Q963 1394 1027.5 1342.5Q1092 1291 1133 1219Q1161 1222 1190 1222Q1256 1222 1320.5 1205.0Q1385 1188 1442 1155Q1499 1188 1563.0 1205.0Q1627 1222 1693 1222H2412Q2442 1222 2468.0 1210.5Q2494 1199 2513.5 1179.5Q2533 1160 2544.5 1134.0Q2556 1108 2556 1078Q2556 1052 2547.5 1029.5Q2539 1007 2523 987Q2494 951 2461.0 918.0Q2428 885 2393 855Q2403 822 2407.5 788.0Q2412 754 2412 719Q2412 612 2368 513Q2390 489 2401.0 458.5Q2412 428 2412 396Q2412 342 2382.5 297.0Q2353 252 2303 230Q2300 196 2284.0 167.0Q2268 138 2244.0 117.0Q2220 96 2189.0 84.0Q2158 72 2125 72Q2085 72 2045 91L1795 216H1773L1744 180L1936 -60Q1956 -86 1968.0 -117.0Q1980 -148 1980 -181Q1980 -218 1966.0 -250.5Q1952 -283 1927.5 -307.0Q1903 -331 1870.5 -345.0Q1838 -359 1801 -359Z" style="fill:#000000;stroke:none" transform="scale(1,-1) translate(0,-256)" /></svg>