<?xml version="1.0" encoding="utf-8" ?>
<svg baseProfile="full" height="256" version="1.1" width="256" xmlns="http://www.w3.org/2000/svg" xmlns:ev="http://www.w3.org/2001/xml-events" xmlns:xlink="http://www.w3.org/1999/xlink"><defs /><path d="M1406 1581Q1518 1581 1620.0 1549.0Q1722 1517 1808.5 1457.5Q1895 1398 1962.0 1314.5Q2029 1231 2073 1129Q2130 995 2182.5 860.5Q2235 726 2286 589L2294 567Q2314 514 2327.0 465.5Q2340 417 2340 360H1765Q1691 360 1625.5 388.0Q1560 416 1511.0 465.0Q1462 514 1434.0 579.5Q1406 645 1406 719V1006Q1406 1080 1377.5 1145.5Q1349 1211 1300.5 1260.0Q1252 1309 1186.5 1337.5Q1121 1366 1047 1366H894Q997 1471 1128.0 1526.0Q1259 1581 1406 1581Z" style="fill:#ffb900;stroke:none" transform="scale(1,-1) translate(0,-256)" /></svg>