<?xml version="1.0" encoding="utf-8" ?>
<svg baseProfile="full" height="256" version="1.1" width="256" xmlns="http://www.w3.org/2000/svg" xmlns:ev="http://www.w3.org/2001/xml-events" xmlns:xlink="http://www.w3.org/1999/xlink"><defs /><path d="M1360 1497 2340 360Q2340 256 2300.5 164.5Q2261 73 2192.5 4.5Q2124 -64 2032.5 -104.0Q1941 -144 1837 -144Q1771 -144 1708.0 -127.0Q1645 -110 1589.0 -78.0Q1533 -46 1486.5 -1.0Q1440 44 1406 101Q1372 44 1325.5 -1.0Q1279 -46 1223.0 -78.0Q1167 -110 1104.0 -127.0Q1041 -144 975 -144Q871 -144 779.0 -104.5Q687 -65 619.0 3.5Q551 72 511.5 164.0Q472 256 472 360Q472 416 484.5 466.0Q497 516 517 567L738 1127Q764 1194 803.5 1254.5Q843 1315 894 1366Z" style="fill:#ffffff;stroke:none" transform="scale(1,-1) translate(0,-256)" /></svg>