<?xml version="1.0" encoding="utf-8" ?>
<svg baseProfile="full" height="256" version="1.1" width="256" xmlns="http://www.w3.org/2000/svg" xmlns:ev="http://www.w3.org/2001/xml-events" xmlns:xlink="http://www.w3.org/1999/xlink"><defs /><path d="M1873 216Q1886 216 1896 208L2255 -79Q2268 -91 2268 -108Q2268 -123 2258.0 -133.0Q2248 -143 2233 -143Q2227 -143 2221.0 -141.5Q2215 -140 2210 -136L1851 152Q1837 163 1837 180Q1837 195 1847.5 205.5Q1858 216 1873 216ZM1801 72Q1814 72 1824 64L2183 -223Q2197 -234 2197 -251Q2197 -266 2186.5 -276.5Q2176 -287 2161 -287Q2148 -287 2138 -279L1779 8Q1765 19 1765 36Q1765 51 1775.5 61.5Q1786 72 1801 72ZM543 -107Q543 -90 557 -79L916 208Q926 216 939 216Q954 216 964.5 205.5Q975 195 975 180Q975 163 961 152L602 -136Q597 -140 591.0 -141.5Q585 -143 579 -143Q564 -143 553.5 -132.5Q543 -122 543 -107ZM615 -251Q615 -234 629 -223L988 64Q998 72 1011 72Q1026 72 1036.5 61.5Q1047 51 1047 36Q1047 19 1033 8L674 -279Q664 -287 651 -287Q636 -287 625.5 -276.5Q615 -266 615 -251Z" style="fill:#757575;stroke:none" transform="scale(1,-1) translate(0,-256)" /></svg>