<?xml version="1.0" encoding="utf-8" ?>
<svg baseProfile="full" height="256" version="1.1" width="256" xmlns="http://www.w3.org/2000/svg" xmlns:ev="http://www.w3.org/2001/xml-events" xmlns:xlink="http://www.w3.org/1999/xlink"><defs /><path d="M2556 1402Q2556 1334 2537.0 1270.5Q2518 1207 2482.5 1152.0Q2447 1097 2397.5 1052.5Q2348 1008 2287 979L2427 623Q2453 557 2468.5 494.5Q2484 432 2484 360Q2484 264 2456.5 172.5Q2429 81 2375 2Q2394 -21 2403.0 -49.5Q2412 -78 2412 -108Q2412 -150 2393.0 -188.0Q2374 -226 2340 -251Q2340 -289 2326.0 -321.5Q2312 -354 2288.0 -378.5Q2264 -403 2231.0 -417.0Q2198 -431 2161 -431Q2099 -431 2049 -392L1912 -283Q1893 -285 1874.5 -286.0Q1856 -287 1837 -287Q1760 -287 1687 -269Q1678 -304 1658.0 -334.0Q1638 -364 1610.0 -385.5Q1582 -407 1548.0 -419.0Q1514 -431 1478 -431H1334Q1297 -431 1263.0 -419.0Q1229 -407 1201.5 -385.5Q1174 -364 1154.0 -334.5Q1134 -305 1125 -269Q1051 -287 975 -287Q956 -287 937.5 -286.0Q919 -285 900 -283L763 -392Q713 -431 651 -431Q613 -431 580.5 -417.0Q548 -403 524.0 -378.5Q500 -354 486.0 -321.5Q472 -289 472 -251Q437 -225 418.5 -188.0Q400 -151 400 -108Q400 -78 409.0 -49.5Q418 -21 437 2Q383 81 355.5 172.5Q328 264 328 360Q328 432 343.5 494.5Q359 557 385 623L525 979Q464 1008 414.5 1052.5Q365 1097 329.5 1152.0Q294 1207 275.0 1270.5Q256 1334 256 1402Q256 1498 293.0 1583.0Q330 1668 393.5 1731.5Q457 1795 542.0 1832.0Q627 1869 723 1869Q780 1869 834.5 1855.5Q889 1842 938.0 1816.0Q987 1790 1029.5 1753.0Q1072 1716 1105 1670Q1177 1697 1252.5 1711.0Q1328 1725 1406 1725Q1563 1725 1707 1671Q1774 1764 1874.0 1816.5Q1974 1869 2089 1869Q2185 1869 2270.0 1832.0Q2355 1795 2418.5 1731.5Q2482 1668 2519.0 1583.0Q2556 1498 2556 1402Z" style="fill:#000000;stroke:none" transform="scale(1,-1) translate(0,-256)" /></svg>