<?xml version="1.0" encoding="utf-8" ?>
<svg baseProfile="full" height="256" version="1.1" width="256" xmlns="http://www.w3.org/2000/svg" xmlns:ev="http://www.w3.org/2001/xml-events" xmlns:xlink="http://www.w3.org/1999/xlink"><defs /><path d="M723 1581Q760 1581 793.0 1567.0Q826 1553 850.5 1528.5Q875 1504 889.0 1471.5Q903 1439 903 1402V1222H723Q685 1222 652.5 1236.0Q620 1250 595.5 1274.5Q571 1299 557.0 1331.5Q543 1364 543 1402Q543 1439 557.0 1471.5Q571 1504 595.5 1528.5Q620 1553 653.0 1567.0Q686 1581 723 1581ZM2089 1581Q2126 1581 2158.5 1567.0Q2191 1553 2215.5 1528.5Q2240 1504 2254.0 1471.5Q2268 1439 2268 1402Q2268 1365 2254.0 1332.0Q2240 1299 2215.5 1274.5Q2191 1250 2158.5 1236.0Q2126 1222 2089 1222H1909V1402Q1909 1439 1923.0 1471.5Q1937 1504 1961.5 1528.5Q1986 1553 2019.0 1567.0Q2052 1581 2089 1581Z" style="fill:#ef6950;stroke:none" transform="scale(1,-1) translate(0,-256)" /></svg>