<?xml version="1.0" encoding="utf-8" ?>
<svg baseProfile="full" height="256" version="1.1" width="256" xmlns="http://www.w3.org/2000/svg" xmlns:ev="http://www.w3.org/2001/xml-events" xmlns:xlink="http://www.w3.org/1999/xlink"><defs /><path d="M1262 1006 1203 845 1262 791V575L1190 403L1262 360V144Q1262 130 1256.5 107.5Q1251 85 1244.5 60.5Q1238 36 1231.0 11.5Q1224 -13 1221 -29Q1206 -32 1181.0 -39.0Q1156 -46 1130.0 -53.5Q1104 -61 1081.0 -66.5Q1058 -72 1047 -72H831L795 6L615 -72H543V72L613 224L543 288V503L611 653L543 719V935Q543 950 547.5 973.5Q552 997 558.5 1022.5Q565 1048 571.5 1072.0Q578 1096 582 1113Q600 1117 623.5 1123.5Q647 1130 671.0 1136.0Q695 1142 718.0 1146.0Q741 1150 759 1150H975L1056 1103Q1062 1105 1083.0 1112.5Q1104 1120 1127.5 1128.5Q1151 1137 1169.5 1143.5Q1188 1150 1190 1150H1262Z" style="fill:#ffffff;stroke:none" transform="scale(1,-1) translate(0,-256)" /></svg>