<?xml version="1.0" encoding="utf-8" ?>
<svg baseProfile="full" height="256" version="1.1" width="256" xmlns="http://www.w3.org/2000/svg" xmlns:ev="http://www.w3.org/2001/xml-events" xmlns:xlink="http://www.w3.org/1999/xlink"><defs /><path d="M687 431Q716 431 737.5 410.0Q759 389 759 360V288Q759 258 738.0 237.0Q717 216 687 216Q658 216 636.5 237.5Q615 259 615 288V360Q615 389 636.5 410.0Q658 431 687 431ZM1118 431Q1147 431 1168.5 410.0Q1190 389 1190 360V288Q1190 258 1169.0 237.0Q1148 216 1118 216Q1089 216 1068.0 237.5Q1047 259 1047 288V360Q1047 389 1068.0 410.0Q1089 431 1118 431ZM1765 431Q1794 431 1815.5 410.0Q1837 389 1837 360V288Q1837 258 1816.0 237.0Q1795 216 1765 216Q1736 216 1714.5 237.5Q1693 259 1693 288V360Q1693 389 1714.5 410.0Q1736 431 1765 431ZM2197 431Q2226 431 2247.0 410.0Q2268 389 2268 360V288Q2268 259 2247.0 237.5Q2226 216 2197 216Q2167 216 2146.0 237.0Q2125 258 2125 288V360Q2125 389 2146.5 410.0Q2168 431 2197 431Z" style="fill:#000000;stroke:none" transform="scale(1,-1) translate(0,-256)" /></svg>