<?xml version="1.0" encoding="utf-8" ?>
<svg baseProfile="full" height="256" version="1.1" width="256" xmlns="http://www.w3.org/2000/svg" xmlns:ev="http://www.w3.org/2001/xml-events" xmlns:xlink="http://www.w3.org/1999/xlink"><defs /><path d="M400 -287V360Q400 464 439.5 555.5Q479 647 547.5 715.5Q616 784 707.5 823.5Q799 863 903 863Q1007 863 1098.5 823.5Q1190 784 1258.5 715.5Q1327 647 1366.5 555.5Q1406 464 1406 360V-287ZM1981 863Q2071 863 2149.5 829.0Q2228 795 2286.5 736.5Q2345 678 2378.5 599.0Q2412 520 2412 431V425Q2413 417 2413.5 410.0Q2414 403 2414 396Q2414 351 2406.0 306.0Q2398 261 2392 216Q2390 198 2389.0 189.5Q2388 181 2379 165Q2364 139 2337.5 119.0Q2311 99 2277.0 85.0Q2243 71 2205.0 61.5Q2167 52 2129.5 46.5Q2092 41 2057.0 39.0Q2022 37 1996 37Q1969 37 1934.5 39.0Q1900 41 1862.5 46.5Q1825 52 1787.0 61.5Q1749 71 1715.0 85.0Q1681 99 1654.5 119.0Q1628 139 1613 165Q1607 175 1605.5 180.5Q1604 186 1603.5 190.0Q1603 194 1603.0 199.5Q1603 205 1600 216Q1599 221 1595.0 238.5Q1591 256 1585.5 279.5Q1580 303 1573.5 329.0Q1567 355 1562.0 377.5Q1557 400 1553.5 415.0Q1550 430 1550 431Q1550 520 1583.5 599.0Q1617 678 1675.5 736.5Q1734 795 1812.5 829.0Q1891 863 1981 863Z" style="fill:#8e562e;stroke:none" transform="scale(1,-1) translate(0,-256)" /></svg>