<?xml version="1.0" encoding="utf-8" ?>
<svg baseProfile="full" height="256" version="1.1" width="256" xmlns="http://www.w3.org/2000/svg" xmlns:ev="http://www.w3.org/2001/xml-events" xmlns:xlink="http://www.w3.org/1999/xlink"><defs /><path d="M906 -72Q892 -72 868.0 -66.5Q844 -61 821.0 -50.5Q798 -40 781.5 -26.0Q765 -12 765 6Q765 20 774.5 30.0Q784 40 798 40Q807 40 816.5 33.5Q826 27 838.0 18.5Q850 10 866.5 3.5Q883 -3 906 -3Q929 -3 945.0 3.5Q961 10 973.0 18.5Q985 27 994.5 33.5Q1004 40 1013 40Q1027 40 1037.0 30.0Q1047 20 1047 6Q1047 -12 1030.5 -26.0Q1014 -40 991.0 -50.5Q968 -61 944.0 -66.5Q920 -72 906 -72Z" style="fill:#f03a17;stroke:none" transform="scale(1,-1) translate(0,-256)" /></svg>