<?xml version="1.0" encoding="utf-8" ?>
<svg baseProfile="full" height="256" version="1.1" width="256" xmlns="http://www.w3.org/2000/svg" xmlns:ev="http://www.w3.org/2001/xml-events" xmlns:xlink="http://www.w3.org/1999/xlink"><defs /><path d="M1984 -72Q1970 -72 1946.0 -66.5Q1922 -61 1899.0 -50.5Q1876 -40 1859.5 -26.0Q1843 -12 1843 6Q1843 20 1852.5 30.0Q1862 40 1876 40Q1885 40 1894.5 33.5Q1904 27 1916.0 18.5Q1928 10 1944.5 3.5Q1961 -3 1984 -3Q2007 -3 2023.0 3.5Q2039 10 2051.0 18.5Q2063 27 2072.5 33.5Q2082 40 2091 40Q2105 40 2115.0 30.0Q2125 20 2125 6Q2125 -12 2108.5 -26.0Q2092 -40 2069.0 -50.5Q2046 -61 2022.0 -66.5Q1998 -72 1984 -72ZM903 144Q873 144 852.0 165.0Q831 186 831 216H975Q975 186 954.0 165.0Q933 144 903 144ZM2053 216Q2053 186 2032.0 165.0Q2011 144 1981 144Q1951 144 1930.0 165.0Q1909 186 1909 216Z" style="fill:#f7894a;stroke:none" transform="scale(1,-1) translate(0,-256)" /></svg>