<?xml version="1.0" encoding="utf-8" ?>
<svg baseProfile="full" height="256" version="1.1" width="256" xmlns="http://www.w3.org/2000/svg" xmlns:ev="http://www.w3.org/2001/xml-events" xmlns:xlink="http://www.w3.org/1999/xlink"><defs /><path d="M2412 216Q2412 127 2378.0 48.5Q2344 -30 2285.5 -88.5Q2227 -147 2148.5 -181.0Q2070 -215 1981 -215Q1892 -215 1813.5 -181.0Q1735 -147 1676.5 -88.5Q1618 -30 1584.0 48.5Q1550 127 1550 216V431H1622V503Q1622 548 1639.0 587.0Q1656 626 1685.0 655.5Q1714 685 1753.0 702.0Q1792 719 1837 719Q1837 674 1854.0 635.0Q1871 596 1900.5 566.5Q1930 537 1969.0 520.0Q2008 503 2053 503H2340V360H2412ZM975 647Q996 594 1034.0 554.0Q1072 514 1121.0 487.0Q1170 460 1225.0 445.5Q1280 431 1334 431V217Q1334 128 1300.5 49.0Q1267 -30 1208.5 -88.5Q1150 -147 1071.5 -181.0Q993 -215 903 -215Q813 -215 734.5 -181.0Q656 -147 597.5 -88.5Q539 -30 505.5 49.0Q472 128 472 217V432Q519 432 554.0 451.0Q589 470 614.5 500.5Q640 531 657.5 569.5Q675 608 687 647Q709 612 742.0 585.5Q775 559 813.5 540.5Q852 522 894.0 512.5Q936 503 975 503Z" style="fill:#ffc83d;stroke:none" transform="scale(1,-1) translate(0,-256)" /></svg>