<?xml version="1.0" encoding="utf-8" ?>
<svg baseProfile="full" height="256" version="1.1" width="256" xmlns="http://www.w3.org/2000/svg" xmlns:ev="http://www.w3.org/2001/xml-events" xmlns:xlink="http://www.w3.org/1999/xlink"><defs /><path d="M1365 1437Q1365 1376 1348.0 1333.0Q1331 1290 1299.5 1262.5Q1268 1235 1222.0 1222.0Q1176 1209 1118 1209Q1073 1209 1039.0 1216.0Q1005 1223 976.0 1237.5Q947 1252 918.5 1272.5Q890 1293 856 1320Q831 1378 831 1438Q831 1497 853.5 1549.5Q876 1602 915.0 1641.0Q954 1680 1006.5 1702.5Q1059 1725 1118 1725Q1128 1725 1143.5 1723.5Q1159 1722 1175.5 1719.0Q1192 1716 1206.5 1712.0Q1221 1708 1230 1703Q1232 1701 1238.5 1695.5Q1245 1690 1252.5 1683.0Q1260 1676 1267.0 1669.5Q1274 1663 1276 1660Q1302 1634 1319.0 1609.5Q1336 1585 1346.5 1559.0Q1357 1533 1361.0 1503.0Q1365 1473 1365 1437ZM1125 978 1262 380 1118 -287H400V-72Q400 -24 427.5 13.5Q455 51 500 65Q511 69 521.5 69.5Q532 70 543 72Q548 73 555.0 76.5Q562 80 568.5 85.0Q575 90 579.5 96.0Q584 102 584 108Q584 116 576.0 127.0Q568 138 563 144Q583 177 616.0 196.5Q649 216 687 216Q751 296 791.5 381.0Q832 466 855.5 556.0Q879 646 889.0 740.5Q899 835 902 935L968 971L903 1006H865Q846 1006 827.0 1008.0Q808 1010 793.0 1017.5Q778 1025 768.5 1039.0Q759 1053 759 1078Q759 1108 780.0 1129.0Q801 1150 831 1150H1118L1183 1078V971Z" style="fill:#757575;stroke:none" transform="scale(1,-1) translate(0,-256)" /></svg>