<?xml version="1.0" encoding="utf-8" ?>
<svg baseProfile="full" height="256" version="1.1" width="256" xmlns="http://www.w3.org/2000/svg" xmlns:ev="http://www.w3.org/2001/xml-events" xmlns:xlink="http://www.w3.org/1999/xlink"><defs /><path d="M1406 1438Q1406 1378 1383.5 1325.5Q1361 1273 1322.0 1234.0Q1283 1195 1230.5 1172.5Q1178 1150 1118 1150Q1076 1150 1036.5 1162.0Q997 1174 962.5 1196.5Q928 1219 901.0 1250.0Q874 1281 857 1320Q914 1294 975 1294Q1034 1294 1086.5 1316.5Q1139 1339 1178.0 1378.0Q1217 1417 1239.5 1469.5Q1262 1522 1262 1581Q1262 1642 1236 1699Q1275 1682 1306.0 1655.0Q1337 1628 1359.5 1593.5Q1382 1559 1394.0 1519.5Q1406 1480 1406 1438ZM1693 72Q1723 72 1749.0 60.5Q1775 49 1794.5 29.5Q1814 10 1825.5 -16.0Q1837 -42 1837 -72V-287H1118V72H543Q543 110 563 144H1118V935H902Q903 953 903.0 970.5Q903 988 903 1006H1118V1150H1406Q1435 1150 1456.5 1128.5Q1478 1107 1478 1078Q1478 1053 1468.5 1039.0Q1459 1025 1444.0 1017.5Q1429 1010 1410.0 1008.0Q1391 1006 1372 1006H1334Q1329 1000 1322.5 989.5Q1316 979 1316 971Q1316 963 1323.0 952.0Q1330 941 1335 935Q1337 836 1347.0 741.0Q1357 646 1381.0 556.0Q1405 466 1445.5 380.5Q1486 295 1550 216Q1580 216 1606.0 204.5Q1632 193 1651.5 173.5Q1671 154 1682.0 128.0Q1693 102 1693 72Z" style="fill:#383838;stroke:none" transform="scale(1,-1) translate(0,-256)" /></svg>