<?xml version="1.0" encoding="utf-8" ?>
<svg baseProfile="full" height="256" version="1.1" width="256" xmlns="http://www.w3.org/2000/svg" xmlns:ev="http://www.w3.org/2001/xml-events" xmlns:xlink="http://www.w3.org/1999/xlink"><defs /><path d="M1812 190Q1851 172 1882.0 145.0Q1913 118 1935.0 84.0Q1957 50 1969.0 10.0Q1981 -30 1981 -72V-431H256V-72Q256 -30 268.0 10.0Q280 50 302.0 84.0Q324 118 355.0 145.5Q386 173 425 190Q451 247 499.0 289.0Q547 331 607 348Q648 407 675.0 470.5Q702 534 719.0 600.5Q736 667 744.5 736.0Q753 805 756 876Q724 888 698.5 908.5Q673 929 654.0 955.5Q635 982 625.0 1013.0Q615 1044 615 1078Q615 1136 644.0 1186.0Q673 1236 723 1265Q705 1306 696.0 1349.5Q687 1393 687 1438Q687 1527 721.0 1605.5Q755 1684 813.5 1742.5Q872 1801 950.5 1835.0Q1029 1869 1118 1869Q1207 1869 1286.0 1835.0Q1365 1801 1423.5 1742.5Q1482 1684 1516.0 1605.5Q1550 1527 1550 1438Q1550 1393 1541.0 1349.5Q1532 1306 1514 1265Q1564 1236 1593.0 1186.0Q1622 1136 1622 1078Q1622 1044 1612.0 1013.0Q1602 982 1583.0 955.5Q1564 929 1538.0 908.5Q1512 888 1481 876Q1484 805 1492.5 736.0Q1501 667 1518.0 600.5Q1535 534 1562.0 470.5Q1589 407 1630 348Q1690 331 1738.0 289.0Q1786 247 1812 190Z" style="fill:#000000;stroke:none" transform="scale(1,-1) translate(0,-256)" /></svg>