<?xml version="1.0" encoding="utf-8" ?>
<svg baseProfile="full" height="256" version="1.1" width="256" xmlns="http://www.w3.org/2000/svg" xmlns:ev="http://www.w3.org/2001/xml-events" xmlns:xlink="http://www.w3.org/1999/xlink"><defs /><path d="M795 -431Q699 -431 614.0 -394.0Q529 -357 465.5 -293.5Q402 -230 365.0 -145.0Q328 -60 328 36V917Q293 971 274.5 1033.0Q256 1095 256 1160Q256 1266 290.0 1360.0Q324 1454 383.0 1533.0Q442 1612 522.0 1674.5Q602 1737 693.5 1780.0Q785 1823 885.0 1846.0Q985 1869 1083 1869Q1260 1869 1410.0 1807.5Q1560 1746 1691 1631Q1795 1540 1873.0 1436.5Q1951 1333 1999 1202Q2027 1189 2050.5 1168.5Q2074 1148 2090.5 1122.5Q2107 1097 2116.0 1067.0Q2125 1037 2125 1006V719Q2125 659 2094.5 608.0Q2064 557 2011 529Q1985 452 1942.0 382.5Q1899 313 1840.5 260.0Q1782 207 1709.0 175.5Q1636 144 1550 144H1478Q1420 144 1370 173L1262 79V36Q1262 -60 1225.0 -145.0Q1188 -230 1124.5 -293.5Q1061 -357 976.0 -394.0Q891 -431 795 -431Z" style="fill:#000000;stroke:none" transform="scale(1,-1) translate(0,-256)" /></svg>