<?xml version="1.0" encoding="utf-8" ?>
<svg baseProfile="full" height="256" version="1.1" width="256" xmlns="http://www.w3.org/2000/svg" xmlns:ev="http://www.w3.org/2001/xml-events" xmlns:xlink="http://www.w3.org/1999/xlink"><defs /><path d="M687 647Q658 647 636.5 668.5Q615 690 615 719V772Q615 815 596.0 848.0Q577 881 542 905Q475 953 437.5 1014.0Q400 1075 400 1160Q400 1246 429.0 1321.5Q458 1397 507.5 1460.0Q557 1523 624.0 1572.0Q691 1621 767.0 1655.0Q843 1689 924.0 1707.0Q1005 1725 1083 1725Q1226 1725 1358.5 1673.0Q1491 1621 1596 1523L1498 1418Q1413 1498 1306.0 1539.5Q1199 1581 1083 1581Q1025 1581 962.5 1568.0Q900 1555 840.0 1530.0Q780 1505 726.0 1468.0Q672 1431 631.5 1384.5Q591 1338 567.0 1281.5Q543 1225 543 1160Q543 1115 567.0 1081.0Q591 1047 626 1021Q689 974 724.0 913.5Q759 853 759 772V719Q759 689 738.0 668.0Q717 647 687 647Z" style="fill:#a0aeb2;stroke:none" transform="scale(1,-1) translate(0,-256)" /></svg>