<?xml version="1.0" encoding="utf-8" ?>
<svg baseProfile="full" height="256" version="1.1" width="256" xmlns="http://www.w3.org/2000/svg" xmlns:ev="http://www.w3.org/2001/xml-events" xmlns:xlink="http://www.w3.org/1999/xlink"><defs /><path d="M1083 1438Q1179 1438 1264.0 1401.0Q1349 1364 1412.5 1300.5Q1476 1237 1513.0 1152.0Q1550 1067 1550 971V863Q1550 796 1524.5 737.0Q1499 678 1455.0 634.0Q1411 590 1352.0 564.5Q1293 539 1226 539H1118Q1088 539 1062.0 528.0Q1036 517 1016.5 497.5Q997 478 986.0 452.0Q975 426 975 396V212Q940 248 893.0 268.0Q846 288 795 288Q744 288 697.0 268.0Q650 248 615 212V431L749 683L615 935V971Q615 1068 652.0 1153.0Q689 1238 752.5 1301.5Q816 1365 901.5 1401.5Q987 1438 1083 1438ZM1334 899Q1364 899 1385.0 920.0Q1406 941 1406 971Q1406 1038 1380.5 1096.5Q1355 1155 1311.0 1199.0Q1267 1243 1208.5 1268.5Q1150 1294 1083 1294Q1053 1294 1032.0 1273.0Q1011 1252 1011 1222Q1011 1192 1032.0 1171.0Q1053 1150 1083 1150Q1120 1150 1152.5 1136.0Q1185 1122 1209.5 1097.5Q1234 1073 1248.0 1040.5Q1262 1008 1262 971Q1262 941 1283.0 920.0Q1304 899 1334 899Z" style="fill:#d48c00;stroke:none" transform="scale(1,-1) translate(0,-256)" /></svg>