<?xml version="1.0" encoding="utf-8" ?>
<svg baseProfile="full" height="256" version="1.1" width="256" xmlns="http://www.w3.org/2000/svg" xmlns:ev="http://www.w3.org/2001/xml-events" xmlns:xlink="http://www.w3.org/1999/xlink"><defs /><path d="M1909 791Q1909 740 1899.5 682.5Q1890 625 1870.5 569.5Q1851 514 1821.5 463.0Q1792 412 1752.0 373.0Q1712 334 1661.5 311.0Q1611 288 1550 288H1478Q1452 288 1438.0 298.0Q1424 308 1416.5 323.5Q1409 339 1407.5 358.0Q1406 377 1406 396Q1416 405 1426.0 413.5Q1436 422 1446 430Q1497 473 1542.0 514.5Q1587 556 1620.5 603.5Q1654 651 1673.5 709.0Q1693 767 1693 843V971Q1693 1099 1642.5 1215.0Q1592 1331 1498 1418V1512L1596 1523Q1666 1464 1724.0 1394.5Q1782 1325 1823.0 1245.5Q1864 1166 1886.5 1079.0Q1909 992 1909 899Z" style="fill:#69797e;stroke:none" transform="scale(1,-1) translate(0,-256)" /></svg>