<?xml version="1.0" encoding="utf-8" ?>
<svg baseProfile="full" height="256" version="1.1" width="256" xmlns="http://www.w3.org/2000/svg" xmlns:ev="http://www.w3.org/2001/xml-events" xmlns:xlink="http://www.w3.org/1999/xlink"><defs /><path d="M1083 1651Q1167 1651 1250.5 1624.0Q1334 1597 1410.0 1549.5Q1486 1502 1551.0 1437.5Q1616 1373 1664.0 1297.5Q1712 1222 1739.0 1138.5Q1766 1055 1766 971V843Q1766 760 1745.5 680.0Q1725 600 1681.0 537.0Q1637 474 1569.0 435.0Q1501 396 1406 396L1118 144V36Q1118 -31 1092.5 -89.5Q1067 -148 1023.0 -192.0Q979 -236 920.5 -261.5Q862 -287 795 -287Q728 -287 669.5 -261.5Q611 -236 567.0 -192.0Q523 -148 497.5 -89.5Q472 -31 472 36V971Q472 1118 509.0 1243.0Q546 1368 622.0 1458.5Q698 1549 812.5 1600.0Q927 1651 1083 1651Z" style="fill:#ffc83d;stroke:none" transform="scale(1,-1) translate(0,-256)" /></svg>