<?xml version="1.0" encoding="utf-8" ?>
<svg baseProfile="full" height="256" version="1.1" width="256" xmlns="http://www.w3.org/2000/svg" xmlns:ev="http://www.w3.org/2001/xml-events" xmlns:xlink="http://www.w3.org/1999/xlink"><defs /><path d="M431 -431 485 -215H328V-89Q294 -58 275.0 -16.0Q256 26 256 72V791Q256 869 283.0 940.5Q310 1012 358.0 1069.0Q406 1126 471.5 1164.5Q537 1203 615 1216V1510H687V1869H2125V1510H2197V1216Q2275 1203 2340.5 1164.5Q2406 1126 2454.0 1069.0Q2502 1012 2529.0 940.5Q2556 869 2556 791V72Q2556 26 2537.0 -16.0Q2518 -58 2484 -89V-215H2327L2381 -431Z" style="fill:#000000;stroke:none" transform="scale(1,-1) translate(0,-256)" /></svg>