<?xml version="1.0" encoding="utf-8" ?>
<svg baseProfile="full" height="256" version="1.1" width="256" xmlns="http://www.w3.org/2000/svg" xmlns:ev="http://www.w3.org/2001/xml-events" xmlns:xlink="http://www.w3.org/1999/xlink"><defs /><path d="M2412 755Q2412 740 2401.5 729.5Q2391 719 2376 719H2268V-215L2197 -287H1981Q1981 -257 1992.5 -231.0Q2004 -205 2023.5 -185.5Q2043 -166 2069.0 -155.0Q2095 -144 2125 -144V216L1909 575Q1858 506 1782.5 468.5Q1707 431 1622 431H1190V-215L1118 -287H903Q903 -257 914.5 -231.0Q926 -205 945.5 -185.5Q965 -166 991.0 -155.0Q1017 -144 1047 -144V360L832 601Q797 640 778.0 689.0Q759 738 759 791V1222Q759 1252 747.5 1278.0Q736 1304 716.5 1323.5Q697 1343 671.0 1354.5Q645 1366 615 1366H511L603 1446Q615 1456 615 1473Q615 1488 604.5 1498.5Q594 1509 579 1509Q566 1509 556 1500L400 1366V1438Q400 1483 417.0 1522.0Q434 1561 463.0 1590.0Q492 1619 531.0 1636.0Q570 1653 615 1653H851Q871 1685 904.0 1705.0Q937 1725 975 1725V1597Q1009 1567 1028.0 1525.0Q1047 1483 1047 1438V990Q1047 975 1057.5 964.5Q1068 954 1083 954Q1091 954 1097.5 958.0Q1104 962 1110 968L1490 1353Q1531 1395 1583.0 1416.5Q1635 1438 1693 1438Q1753 1438 1803.0 1416.0Q1853 1394 1897 1353L2196 1075Q2237 1037 2252.5 985.5Q2268 934 2268 880L2397 784Q2412 772 2412 755Z" style="fill:#ffc83d;stroke:none" transform="scale(1,-1) translate(0,-256)" /></svg>