<?xml version="1.0" encoding="utf-8" ?>
<svg baseProfile="full" height="256" version="1.1" width="256" xmlns="http://www.w3.org/2000/svg" xmlns:ev="http://www.w3.org/2001/xml-events" xmlns:xlink="http://www.w3.org/1999/xlink"><defs /><path d="M2408 955Q2436 934 2462.5 915.0Q2489 896 2510.0 873.5Q2531 851 2543.5 822.5Q2556 794 2556 755Q2556 723 2545.0 694.0Q2534 665 2515.0 641.5Q2496 618 2469.5 601.5Q2443 585 2412 579V-275L2256 -431H1406V-287Q1406 -244 1419.0 -202.5Q1432 -161 1456.0 -126.0Q1480 -91 1513.5 -63.5Q1547 -36 1588 -20L1693 243V293Q1676 290 1658.0 289.0Q1640 288 1622 288H1334V-275L1178 -431H759V-287Q759 -209 797.5 -143.0Q836 -77 903 -38V305L724 506Q672 564 643.5 638.5Q615 713 615 791V1222H256V1438Q256 1512 284.5 1577.5Q313 1643 361.5 1691.5Q410 1740 475.5 1768.5Q541 1797 615 1797H785Q812 1821 839.5 1835.5Q867 1850 896.0 1857.5Q925 1865 955.5 1867.5Q986 1870 1018 1870Q1042 1870 1067.0 1869.5Q1092 1869 1118 1869V1652Q1166 1587 1179.0 1518.5Q1192 1450 1192 1378Q1192 1348 1191.0 1317.0Q1190 1286 1190 1254L1388 1454Q1450 1517 1527.5 1549.0Q1605 1581 1693 1581Q1786 1581 1858.0 1549.0Q1930 1517 1998 1455L2294 1180Q2341 1137 2370.0 1077.5Q2399 1018 2408 955Z" style="fill:#000000;stroke:none" transform="scale(1,-1) translate(0,-256)" /></svg>