<?xml version="1.0" encoding="utf-8" ?>
<svg baseProfile="full" height="256" version="1.1" width="256" xmlns="http://www.w3.org/2000/svg" xmlns:ev="http://www.w3.org/2001/xml-events" xmlns:xlink="http://www.w3.org/1999/xlink"><defs /><path d="M1693 -72H1118Q1019 -72 927.0 -46.5Q835 -21 755.5 26.0Q676 73 610.5 138.5Q545 204 498.0 284.0Q451 364 425.5 456.0Q400 548 400 647V935H2412V647Q2412 548 2386.5 456.0Q2361 364 2314.0 284.0Q2267 204 2201.5 138.5Q2136 73 2056.0 26.0Q1976 -21 1884.0 -46.5Q1792 -72 1693 -72Z" style="fill:#f2f2f2;stroke:none" transform="scale(1,-1) translate(0,-256)" /></svg>