<?xml version="1.0" encoding="utf-8" ?>
<svg baseProfile="full" height="256" version="1.1" width="256" xmlns="http://www.w3.org/2000/svg" xmlns:ev="http://www.w3.org/2001/xml-events" xmlns:xlink="http://www.w3.org/1999/xlink"><defs /><path d="M484 863Q472 897 472 935Q472 996 503.0 1047.5Q534 1099 584.0 1140.5Q634 1182 697.5 1215.0Q761 1248 827.0 1272.0Q893 1296 955.0 1311.5Q1017 1327 1064 1336Q1149 1352 1234.5 1359.0Q1320 1366 1406 1366Q1492 1366 1577.0 1359.0Q1662 1352 1747 1336Q1794 1327 1856.0 1311.5Q1918 1296 1984.0 1272.0Q2050 1248 2114.0 1215.0Q2178 1182 2228.0 1140.5Q2278 1099 2309.0 1047.5Q2340 996 2340 935Q2340 894 2326 860Z" style="fill:#a6a6a6;stroke:none" transform="scale(1,-1) translate(0,-256)" /></svg>