<?xml version="1.0" encoding="utf-8" ?>
<svg baseProfile="full" height="256" version="1.1" width="256" xmlns="http://www.w3.org/2000/svg" xmlns:ev="http://www.w3.org/2001/xml-events" xmlns:xlink="http://www.w3.org/1999/xlink"><defs /><path d="M1835 1538Q1908 1522 1990.0 1496.5Q2072 1471 2152.0 1433.5Q2232 1396 2305.0 1347.0Q2378 1298 2434.0 1236.0Q2490 1174 2523.0 1099.0Q2556 1024 2556 935V647Q2556 528 2525.0 418.0Q2494 308 2438.0 212.0Q2382 116 2303.0 37.5Q2224 -41 2128.0 -97.0Q2032 -153 1922.0 -184.0Q1812 -215 1693 -215H1118Q999 -215 889.0 -184.0Q779 -153 683.5 -97.0Q588 -41 509.0 38.0Q430 117 374.0 212.5Q318 308 287.0 418.0Q256 528 256 647V935Q256 1024 289.0 1099.0Q322 1174 378.0 1236.0Q434 1298 507.0 1347.0Q580 1396 660.0 1433.5Q740 1471 822.0 1496.5Q904 1522 977 1538Q982 1578 1001.0 1612.5Q1020 1647 1048.5 1672.0Q1077 1697 1113.0 1711.0Q1149 1725 1190 1725H1622Q1662 1725 1698.5 1711.0Q1735 1697 1763.5 1672.0Q1792 1647 1811.0 1612.5Q1830 1578 1835 1538Z" style="fill:#000000;stroke:none" transform="scale(1,-1) translate(0,-256)" /></svg>