<?xml version="1.0" encoding="utf-8" ?>
<svg baseProfile="full" height="256" version="1.1" width="256" xmlns="http://www.w3.org/2000/svg" xmlns:ev="http://www.w3.org/2001/xml-events" xmlns:xlink="http://www.w3.org/1999/xlink"><defs /><path d="M1406 503Q1323 503 1241.0 510.0Q1159 517 1077 531Q1030 539 973.0 552.5Q916 566 856.5 586.0Q797 606 739.0 633.0Q681 660 631.0 694.0Q581 728 543.0 770.5Q505 813 486 863Q504 912 540.5 953.0Q577 994 625.5 1028.0Q674 1062 730.0 1088.5Q786 1115 843.5 1135.0Q901 1155 956.0 1168.5Q1011 1182 1057 1191Q1144 1207 1231.0 1214.5Q1318 1222 1406 1222Q1494 1222 1581.0 1214.5Q1668 1207 1755 1191Q1801 1182 1856.0 1168.5Q1911 1155 1968.5 1135.0Q2026 1115 2082.0 1088.5Q2138 1062 2186.5 1028.0Q2235 994 2271.5 953.0Q2308 912 2326 863Q2307 812 2269.0 770.0Q2231 728 2181.0 694.0Q2131 660 2073.0 633.0Q2015 606 1955.5 586.0Q1896 566 1839.0 552.5Q1782 539 1735 531Q1653 517 1571.0 510.0Q1489 503 1406 503Z" style="fill:#ffb900;stroke:none" transform="scale(1,-1) translate(0,-256)" /></svg>