<?xml version="1.0" encoding="utf-8" ?>
<svg baseProfile="full" height="256" version="1.1" width="256" xmlns="http://www.w3.org/2000/svg" xmlns:ev="http://www.w3.org/2001/xml-events" xmlns:xlink="http://www.w3.org/1999/xlink"><defs /><path d="M2412 935Q2412 881 2392.0 833.5Q2372 786 2339.0 745.0Q2306 704 2262.0 669.5Q2218 635 2170.5 607.0Q2123 579 2074.0 557.5Q2025 536 1981 521Q1911 497 1839.0 480.0Q1767 463 1693 452Q1693 440 1693.5 425.5Q1694 411 1694 396Q1694 376 1691.5 357.0Q1689 338 1681.5 322.5Q1674 307 1660.0 297.5Q1646 288 1622 288H1190Q1166 288 1151.5 297.5Q1137 307 1129.5 322.0Q1122 337 1119.5 356.5Q1117 376 1117 396Q1117 411 1117.5 425.5Q1118 440 1118 452Q1044 463 972.5 480.0Q901 497 831 521Q787 536 738.0 557.5Q689 579 641.5 607.0Q594 635 550.0 669.5Q506 704 473.0 745.0Q440 786 420.0 833.5Q400 881 400 935Q400 989 420.0 1036.0Q440 1083 473.0 1124.0Q506 1165 550.0 1199.5Q594 1234 642.0 1262.0Q690 1290 739.0 1311.5Q788 1333 831 1348Q901 1372 972.5 1389.0Q1044 1406 1118 1417Q1118 1429 1117.5 1443.5Q1117 1458 1117 1473Q1117 1493 1119.5 1512.5Q1122 1532 1129.5 1547.0Q1137 1562 1151.5 1571.5Q1166 1581 1190 1581H1622Q1646 1581 1660.0 1571.5Q1674 1562 1681.5 1546.5Q1689 1531 1691.5 1511.5Q1694 1492 1694 1473Q1694 1458 1693.5 1443.5Q1693 1429 1693 1417Q1767 1406 1839.0 1389.0Q1911 1372 1981 1348Q2024 1333 2073.0 1311.5Q2122 1290 2170.0 1262.0Q2218 1234 2262.0 1199.5Q2306 1165 2339.0 1124.0Q2372 1083 2392.0 1036.0Q2412 989 2412 935Z" style="fill:#cccccc;stroke:none" transform="scale(1,-1) translate(0,-256)" /></svg>