<?xml version="1.0" encoding="utf-8" ?>
<svg baseProfile="full" height="256" version="1.1" width="256" xmlns="http://www.w3.org/2000/svg" xmlns:ev="http://www.w3.org/2001/xml-events" xmlns:xlink="http://www.w3.org/1999/xlink"><defs /><path d="M1801 1364Q1869 1364 1937.5 1343.0Q2006 1322 2060 1280Q2089 1257 2089 1223Q2089 1193 2068.0 1171.5Q2047 1150 2017 1150Q2005 1150 1994.5 1154.0Q1984 1158 1974 1165Q1935 1193 1892.5 1207.0Q1850 1221 1801 1221Q1753 1221 1710.5 1207.0Q1668 1193 1629 1165Q1619 1158 1608.5 1154.0Q1598 1150 1586 1150Q1556 1150 1535.0 1171.0Q1514 1192 1514 1222Q1514 1246 1530.0 1266.5Q1546 1287 1571.5 1302.5Q1597 1318 1629.0 1329.5Q1661 1341 1693.0 1349.0Q1725 1357 1753.5 1360.5Q1782 1364 1801 1364ZM1190 1006Q1219 1006 1240.5 985.0Q1262 964 1262 935Q1262 905 1241.0 884.0Q1220 863 1190 863H831Q801 863 780.0 884.0Q759 905 759 935Q759 964 780.5 985.0Q802 1006 831 1006Z" style="fill:#d48c00;stroke:none" transform="scale(1,-1) translate(0,-256)" /></svg>