<?xml version="1.0" encoding="utf-8" ?>
<svg baseProfile="full" height="256" version="1.1" width="256" xmlns="http://www.w3.org/2000/svg" xmlns:ev="http://www.w3.org/2001/xml-events" xmlns:xlink="http://www.w3.org/1999/xlink"><defs /><path d="M1622 288Q1651 288 1672.5 266.5Q1694 245 1694 216Q1694 187 1672.5 165.5Q1651 144 1622 144H1190Q1161 144 1139.5 165.5Q1118 187 1118 216Q1118 245 1139.5 266.5Q1161 288 1190 288ZM1801 1006Q1823 1006 1842.5 997.5Q1862 989 1877.0 975.0Q1892 961 1900.5 941.0Q1909 921 1909 899V755Q1909 732 1900.5 712.5Q1892 693 1877.5 678.5Q1863 664 1843.0 655.5Q1823 647 1801 647Q1779 647 1759.5 655.5Q1740 664 1725.0 679.0Q1710 694 1701.5 713.5Q1693 733 1693 755V899Q1693 921 1701.5 940.5Q1710 960 1725.0 974.5Q1740 989 1759.5 997.5Q1779 1006 1801 1006ZM1118 899V755Q1118 733 1109.5 713.5Q1101 694 1087.0 679.0Q1073 664 1053.0 655.5Q1033 647 1011 647Q988 647 968.5 655.5Q949 664 934.5 678.5Q920 693 911.5 712.5Q903 732 903 755V899Z" style="fill:#000000;stroke:none" transform="scale(1,-1) translate(0,-256)" /></svg>