<?xml version="1.0" encoding="utf-8" ?>
<svg baseProfile="full" height="256" version="1.1" width="256" xmlns="http://www.w3.org/2000/svg" xmlns:ev="http://www.w3.org/2001/xml-events" xmlns:xlink="http://www.w3.org/1999/xlink"><defs /><path d="M2412 -144Q2412 -174 2400.5 -200.0Q2389 -226 2369.5 -245.5Q2350 -265 2324.0 -276.0Q2298 -287 2268 -287Q2237 -287 2213.5 -276.0Q2190 -265 2167 -245L2053 -144Q2053 -174 2041.5 -200.0Q2030 -226 2010.5 -245.5Q1991 -265 1965.0 -276.0Q1939 -287 1909 -287H1262Q1262 -257 1273.5 -231.0Q1285 -205 1304.5 -185.5Q1324 -166 1350.0 -155.0Q1376 -144 1406 -144H1753Q1696 -141 1645.5 -117.5Q1595 -94 1558.0 -55.0Q1521 -16 1499.5 35.0Q1478 86 1478 144V288H1334L1119 -287H903Q903 -257 914.5 -231.0Q926 -205 945.5 -185.5Q965 -166 991.0 -155.0Q1017 -144 1047 -144V261Q1018 282 994.5 310.5Q971 339 958 373L857 647H723Q671 647 623.5 663.0Q576 679 536.0 707.5Q496 736 466.0 776.0Q436 816 419 865L459 944L400 1006L639 1150Q696 1184 762.0 1202.0Q828 1220 894 1222L1366 1694Q1391 1719 1423.0 1723.0Q1455 1727 1487 1727Q1506 1727 1518.5 1724.5Q1531 1722 1538.0 1715.5Q1545 1709 1547.5 1697.5Q1550 1686 1550 1668V1660Q1550 1628 1545.5 1596.0Q1541 1564 1518 1541L1343 1366H1777Q1813 1366 1837.5 1347.0Q1862 1328 1885 1304L1894 1294L1824 1234H1271L1145 1168L1262 935H1801Q1912 935 2010.5 892.5Q2109 850 2182.0 777.0Q2255 704 2297.5 605.5Q2340 507 2340 396Q2340 313 2315.0 233.5Q2290 154 2242 86L2370 -42Q2390 -62 2401.0 -88.5Q2412 -115 2412 -144Z" style="fill:#ffffff;stroke:none" transform="scale(1,-1) translate(0,-256)" /></svg>