<?xml version="1.0" encoding="utf-8" ?>
<svg baseProfile="full" height="256" version="1.1" width="256" xmlns="http://www.w3.org/2000/svg" xmlns:ev="http://www.w3.org/2001/xml-events" xmlns:xlink="http://www.w3.org/1999/xlink"><defs /><path d="M1894 1294Q1902 1286 1908.0 1277.5Q1914 1269 1914 1258Q1914 1242 1898.5 1223.5Q1883 1205 1861.0 1188.5Q1839 1172 1816.0 1161.0Q1793 1150 1777 1150H1047Q1047 1180 1058.0 1206.0Q1069 1232 1088.5 1251.5Q1108 1271 1134.0 1282.5Q1160 1294 1190 1294ZM400 1006H544Q544 980 534.5 955.5Q525 931 508.0 912.0Q491 893 468.0 880.5Q445 868 419 865Q410 891 405.0 917.5Q400 944 400 971Z" style="fill:#ee9889;stroke:none" transform="scale(1,-1) translate(0,-256)" /></svg>