<?xml version="1.0" encoding="utf-8" ?>
<svg baseProfile="full" height="256" version="1.1" width="256" xmlns="http://www.w3.org/2000/svg" xmlns:ev="http://www.w3.org/2001/xml-events" xmlns:xlink="http://www.w3.org/1999/xlink"><defs /><path d="M2422 110Q2451 81 2475.5 54.0Q2500 27 2518.0 -2.5Q2536 -32 2546.0 -66.5Q2556 -101 2556 -144Q2556 -203 2533.5 -255.5Q2511 -308 2472.0 -347.0Q2433 -386 2380.5 -408.5Q2328 -431 2269 -431Q2220 -431 2173.5 -415.0Q2127 -399 2089 -368Q2051 -398 2004.5 -414.5Q1958 -431 1909 -431H759V-287Q759 -209 797.5 -143.0Q836 -77 903 -38V196Q873 227 852.0 264.0Q831 301 814.5 341.0Q798 381 784.5 422.5Q771 464 757 503H723Q627 503 542.0 540.0Q457 577 393.5 641.0Q330 705 293.0 790.0Q256 875 256 971V1088L565 1273Q625 1309 692.5 1331.0Q760 1353 830 1361L1264 1795Q1291 1822 1318.0 1837.0Q1345 1852 1373.5 1859.0Q1402 1866 1433.0 1867.5Q1464 1869 1499 1869H1514Q1555 1869 1588.5 1853.5Q1622 1838 1645.5 1812.0Q1669 1786 1681.5 1750.5Q1694 1715 1694 1676Q1694 1633 1690.0 1591.0Q1686 1549 1668 1510H1725Q1778 1510 1815.0 1505.0Q1852 1500 1882.0 1486.5Q1912 1473 1940.5 1448.5Q1969 1424 2006 1385Q2032 1357 2045.5 1327.0Q2059 1297 2059 1258Q2059 1226 2050.0 1201.0Q2041 1176 2025.5 1154.5Q2010 1133 1990.0 1114.0Q1970 1095 1949 1076L1937 1065Q2056 1041 2156.5 979.0Q2257 917 2329.5 827.5Q2402 738 2443.0 627.5Q2484 517 2484 396Q2484 322 2468.5 249.5Q2453 177 2422 110Z" style="fill:#000000;stroke:none" transform="scale(1,-1) translate(0,-256)" /></svg>