<?xml version="1.0" encoding="utf-8" ?>
<svg baseProfile="full" height="256" version="1.1" width="256" xmlns="http://www.w3.org/2000/svg" xmlns:ev="http://www.w3.org/2001/xml-events" xmlns:xlink="http://www.w3.org/1999/xlink"><defs /><path d="M1714 272Q1648 239 1576.0 226.0Q1504 213 1431 213Q1319 213 1229.5 250.0Q1140 287 1077.5 353.5Q1015 420 981.5 512.0Q948 604 948 714Q948 831 985.5 929.5Q1023 1028 1091.5 1100.0Q1160 1172 1256.5 1212.5Q1353 1253 1472 1253Q1534 1253 1595.5 1244.5Q1657 1236 1714 1212V1046Q1663 1077 1606.0 1092.0Q1549 1107 1489 1107Q1404 1107 1336.0 1078.0Q1268 1049 1221.0 998.0Q1174 947 1148.5 876.5Q1123 806 1123 723Q1123 643 1146.0 576.5Q1169 510 1213.0 461.5Q1257 413 1321.0 386.0Q1385 359 1467 359Q1533 359 1595.5 374.5Q1658 390 1714 426Z" style="fill:#000000;stroke:none" transform="scale(1,-1) translate(0,-256)" /></svg>