<?xml version="1.0" encoding="utf-8" ?>
<svg baseProfile="full" height="256" version="1.1" width="256" xmlns="http://www.w3.org/2000/svg" xmlns:ev="http://www.w3.org/2001/xml-events" xmlns:xlink="http://www.w3.org/1999/xlink"><defs /><path d="M1476 1236 1115 230H928L573 1236H756L1004 473Q1011 452 1015.0 431.0Q1019 410 1022 388Q1027 410 1033.0 431.5Q1039 453 1046 474L1300 1236ZM1544 270V442Q1566 421 1598.0 404.5Q1630 388 1666.0 376.0Q1702 364 1738.0 357.5Q1774 351 1804 351Q1838 351 1875.0 356.0Q1912 361 1943.0 376.0Q1974 391 1993.5 417.5Q2013 444 2013 488Q2013 525 1993.0 552.5Q1973 580 1940.0 602.5Q1907 625 1864.5 645.5Q1822 666 1778.0 687.5Q1734 709 1691.5 735.0Q1649 761 1616.0 795.0Q1583 829 1563.0 873.5Q1543 918 1543 977Q1543 1052 1577.0 1104.5Q1611 1157 1664.5 1190.0Q1718 1223 1784.0 1238.0Q1850 1253 1914 1253Q1971 1253 2031.5 1247.5Q2092 1242 2145 1217V1052Q2097 1087 2039.5 1100.5Q1982 1114 1924 1114Q1893 1114 1857.0 1108.0Q1821 1102 1790.5 1087.0Q1760 1072 1739.5 1046.5Q1719 1021 1719 982Q1719 941 1740.5 912.0Q1762 883 1794.0 862.5Q1826 842 1863.0 826.5Q1900 811 1930 797Q1976 775 2022.5 746.0Q2069 717 2105.5 679.0Q2142 641 2165.0 594.0Q2188 547 2188 490Q2188 409 2154.5 356.0Q2121 303 2067.0 271.0Q2013 239 1945.5 226.0Q1878 213 1810 213Q1782 213 1746.0 216.5Q1710 220 1673.0 227.0Q1636 234 1602.0 244.5Q1568 255 1544 270Z" style="fill:#ffffff;stroke:none" transform="scale(1,-1) translate(0,-256)" /></svg>