<?xml version="1.0" encoding="utf-8" ?>
<svg baseProfile="full" height="256" version="1.1" width="256" xmlns="http://www.w3.org/2000/svg" xmlns:ev="http://www.w3.org/2001/xml-events" xmlns:xlink="http://www.w3.org/1999/xlink"><defs /><path d="M1550 1653 2412 791H2268L1550 1510L831 791H687ZM1118 -257V360H1406V-257ZM867 -72Q882 -72 892.5 -82.5Q903 -93 903 -108Q903 -122 892.0 -133.0Q881 -144 867 -144Q853 -144 842.0 -133.0Q831 -122 831 -108Q831 -93 841.5 -82.5Q852 -72 867 -72ZM1945 -144Q1959 -144 1970.0 -154.5Q1981 -165 1981 -179Q1981 -194 1970.5 -204.5Q1960 -215 1945 -215Q1930 -215 1919.5 -204.5Q1909 -194 1909 -179Q1909 -165 1920.0 -154.5Q1931 -144 1945 -144ZM1658 -144Q1672 -144 1682.5 -154.5Q1693 -165 1693 -179Q1693 -193 1682.5 -204.0Q1672 -215 1658 -215Q1643 -215 1632.5 -204.5Q1622 -194 1622 -179Q1622 -165 1633.0 -154.5Q1644 -144 1658 -144Z" style="fill:#f03a17;stroke:none" transform="scale(1,-1) translate(0,-256)" /></svg>