<?xml version="1.0" encoding="utf-8" ?>
<svg baseProfile="full" height="256" version="1.1" width="256" xmlns="http://www.w3.org/2000/svg" xmlns:ev="http://www.w3.org/2001/xml-events" xmlns:xlink="http://www.w3.org/1999/xlink"><defs /><path d="M834 1074Q834 1107 846.5 1136.5Q859 1166 881.0 1188.0Q903 1210 932.5 1222.5Q962 1235 995 1235Q995 1202 982.5 1172.5Q970 1143 948.0 1121.0Q926 1099 896.5 1086.5Q867 1074 834 1074ZM1102 1235Q1131 1235 1158.5 1225.0Q1186 1215 1207 1195L1138 1133Q1120 1155 1111.0 1181.0Q1102 1207 1102 1235ZM620 753Q620 786 632.5 815.5Q645 845 667.0 867.0Q689 889 718.5 901.5Q748 914 781 914Q781 881 768.5 851.5Q756 822 734.0 800.0Q712 778 682.5 765.5Q653 753 620 753Z" style="fill:#13a10e;stroke:none" transform="scale(1,-1) translate(0,-256)" /></svg>