<?xml version="1.0" encoding="utf-8" ?>
<svg baseProfile="full" height="256" version="1.1" width="256" xmlns="http://www.w3.org/2000/svg" xmlns:ev="http://www.w3.org/2001/xml-events" xmlns:xlink="http://www.w3.org/1999/xlink"><defs /><path d="M1082 1581Q1161 1581 1225.0 1539.0Q1289 1497 1320 1424Q1327 1407 1333.0 1389.5Q1339 1372 1345 1355L829 843Q830 830 830.5 817.0Q831 804 831 791V288H769Q695 288 628.5 314.5Q562 341 511.0 387.5Q460 434 430.0 498.5Q400 563 400 638Q400 726 441.0 800.0Q482 874 554 923Q513 990 513 1069Q513 1134 539.0 1188.5Q565 1243 608.5 1282.5Q652 1322 709.0 1344.0Q766 1366 829 1366Q835 1414 857.5 1453.5Q880 1493 914.0 1521.5Q948 1550 991.5 1565.5Q1035 1581 1082 1581ZM975 -144Q1004 -144 1025.5 -165.0Q1047 -186 1047 -215L1077 -251L1047 -287H400V-215Q400 -186 421.5 -165.0Q443 -144 472 -144H687Q687 -114 708.0 -93.0Q729 -72 759 -72Q759 -42 780.0 -21.0Q801 0 831 0Q861 0 882.0 -21.0Q903 -42 903 -72Q933 -72 954.0 -93.0Q975 -114 975 -144ZM2340 -144Q2369 -144 2390.5 -165.0Q2412 -186 2412 -215V-287H1478L1448 -250L1478 -215Q1478 -191 1487.0 -177.0Q1496 -163 1510.5 -155.5Q1525 -148 1543.0 -145.5Q1561 -143 1580 -143Q1591 -143 1601.5 -143.5Q1612 -144 1622 -144Q1622 -115 1643.0 -93.5Q1664 -72 1693 -72Q1693 -43 1714.5 -21.5Q1736 0 1765 0Q1795 0 1816.0 -21.0Q1837 -42 1837 -72Q1867 -72 1888.0 -93.0Q1909 -114 1909 -144Q1909 -114 1930.0 -93.0Q1951 -72 1981 -72Q2011 -72 2032.0 -93.0Q2053 -114 2053 -144H2197Q2197 -115 2218.0 -93.5Q2239 -72 2268 -72Q2298 -72 2319.0 -93.0Q2340 -114 2340 -144Z" style="fill:#16c60c;stroke:none" transform="scale(1,-1) translate(0,-256)" /></svg>