<?xml version="1.0" encoding="utf-8" ?>
<svg baseProfile="full" height="256" version="1.1" width="256" xmlns="http://www.w3.org/2000/svg" xmlns:ev="http://www.w3.org/2001/xml-events" xmlns:xlink="http://www.w3.org/1999/xlink"><defs /><path d="M795 -144Q809 -144 820.0 -154.5Q831 -165 831 -179Q831 -194 820.5 -204.5Q810 -215 795 -215Q780 -215 769.5 -204.5Q759 -194 759 -179Q759 -165 770.0 -154.5Q781 -144 795 -144ZM1801 -72Q1816 -72 1826.5 -82.5Q1837 -93 1837 -108Q1837 -122 1826.0 -133.0Q1815 -144 1801 -144Q1787 -144 1776.0 -133.0Q1765 -122 1765 -108Q1765 -93 1775.5 -82.5Q1786 -72 1801 -72ZM2304 -144Q2318 -144 2329.0 -154.5Q2340 -165 2340 -179Q2340 -194 2329.5 -204.5Q2319 -215 2304 -215Q2290 -215 2279.0 -204.0Q2268 -193 2268 -179Q2268 -165 2279.0 -154.5Q2290 -144 2304 -144Z" style="fill:#fff100;stroke:none" transform="scale(1,-1) translate(0,-256)" /></svg>