<?xml version="1.0" encoding="utf-8" ?>
<svg baseProfile="full" height="256" version="1.1" width="256" xmlns="http://www.w3.org/2000/svg" xmlns:ev="http://www.w3.org/2001/xml-events" xmlns:xlink="http://www.w3.org/1999/xlink"><defs /><path d="M1333 1639 1550 1857 2556 850V647H2412V17Q2435 -3 2452 -31Q2500 -60 2528.0 -109.0Q2556 -158 2556 -215V-431H256V-215Q256 -171 273.5 -132.0Q291 -93 320.5 -63.5Q350 -34 389.0 -17.0Q428 0 472 0H543V195Q478 225 425.5 271.0Q373 317 335.0 375.0Q297 433 276.5 499.5Q256 566 256 638Q256 729 289.5 812.5Q323 896 384 963Q370 1017 370 1069Q370 1146 396.5 1216.5Q423 1287 470.0 1343.5Q517 1400 580.5 1440.0Q644 1480 719 1497Q743 1549 781.5 1591.0Q820 1633 868.0 1663.0Q916 1693 971.0 1709.0Q1026 1725 1083 1725Q1151 1725 1215.0 1703.0Q1279 1681 1333 1639Z" style="fill:#000000;stroke:none" transform="scale(1,-1) translate(0,-256)" /></svg>