<?xml version="1.0" encoding="utf-8" ?>
<svg baseProfile="full" height="256" version="1.1" width="256" xmlns="http://www.w3.org/2000/svg" xmlns:ev="http://www.w3.org/2001/xml-events" xmlns:xlink="http://www.w3.org/1999/xlink"><defs /><path d="M2268 503 2337 1Q2340 -17 2340 -36Q2340 -73 2326.0 -105.5Q2312 -138 2287.5 -162.5Q2263 -187 2230.5 -201.0Q2198 -215 2161 -215Q2124 -215 2091.0 -201.0Q2058 -187 2033.5 -162.5Q2009 -138 1995.0 -105.5Q1981 -73 1981 -36Q1981 -8 1986.0 19.0Q1991 46 1995 73L2024 288H1909V144H1765V288H1622V144H1478V288H1334V144H1190V288H1047V144H903V288H759V647H903V503H1047V647H1190V503H1334V647H1478V503H1622V647H1765V503H1909V647H2053V503ZM2197 108V252Q2197 267 2186.5 277.5Q2176 288 2161 288Q2146 288 2135.5 277.5Q2125 267 2125 252V108Q2125 93 2135.5 82.5Q2146 72 2161 72Q2176 72 2186.5 82.5Q2197 93 2197 108Z" style="fill:#757575;stroke:none" transform="scale(1,-1) translate(0,-256)" /></svg>