<?xml version="1.0" encoding="utf-8" ?>
<svg baseProfile="full" height="256" version="1.1" width="256" xmlns="http://www.w3.org/2000/svg" xmlns:ev="http://www.w3.org/2001/xml-events" xmlns:xlink="http://www.w3.org/1999/xlink"><defs /><path d="M472 1366 975 1222 1564 1473 1621 1631Q1636 1673 1673.5 1699.0Q1711 1725 1756 1725Q1786 1725 1812.0 1713.5Q1838 1702 1858.0 1682.5Q1878 1663 1889.5 1637.0Q1901 1611 1901 1581Q1901 1568 1899.0 1556.0Q1897 1544 1892 1532L1765 1222L1672 1138Q1661 1128 1650.5 1119.5Q1640 1111 1640 1094Q1640 1083 1647 1071L1850 997Q1892 981 1918.5 943.5Q1945 906 1945 861Q1945 830 1933.5 801.5Q1922 773 1911 745Q1899 740 1887.5 730.5Q1876 721 1876 706Q1876 698 1879.0 691.0Q1882 684 1886 678Q1929 662 1955.0 625.0Q1981 588 1981 542Q1981 511 1969.5 483.0Q1958 455 1948 426Q1934 422 1924.0 414.0Q1914 406 1914 391Q1914 382 1916.5 374.0Q1919 366 1923 358Q1912 327 1900.5 297.5Q1889 268 1871.5 245.5Q1854 223 1828.0 209.5Q1802 196 1763 196Q1732 196 1704.0 207.5Q1676 219 1647 229Q1636 221 1626.5 209.5Q1617 198 1617 183Q1617 178 1618.5 172.0Q1620 166 1622 162L1812 -110Q1823 -126 1830.0 -142.5Q1837 -159 1837 -179Q1837 -201 1828.5 -220.5Q1820 -240 1806.0 -255.0Q1792 -270 1772.0 -278.5Q1752 -287 1730 -287Q1682 -287 1647 -249L1420 6L782 247Q750 259 731.0 272.0Q712 285 702.0 300.0Q692 315 689.5 333.0Q687 351 687 375Q687 387 687.5 400.5Q688 414 688 430L472 503Q459 507 446.0 513.0Q433 519 423.0 527.5Q413 536 406.5 547.5Q400 559 400 575V1294Q400 1326 420.5 1345.0Q441 1364 472 1366Z" style="fill:#ffc83d;stroke:none" transform="scale(1,-1) translate(0,-256)" /></svg>