<?xml version="1.0" encoding="utf-8" ?>
<svg baseProfile="full" height="256" version="1.1" width="256" xmlns="http://www.w3.org/2000/svg" xmlns:ev="http://www.w3.org/2001/xml-events" xmlns:xlink="http://www.w3.org/1999/xlink"><defs /><path d="M1647 1071Q1618 1081 1589.5 1092.5Q1561 1104 1530 1104Q1491 1104 1465.5 1090.5Q1440 1077 1422.5 1054.5Q1405 1032 1393.5 1002.5Q1382 973 1371 942L1911 745L1886 678L1346 874L1272 672L1948 426L1923 358L1248 604Q1237 576 1225.5 547.0Q1214 518 1214 487Q1214 442 1240.5 404.5Q1267 367 1309 352L1647 229L1622 162L1285 285Q1253 297 1227.0 317.0Q1201 337 1182.0 363.5Q1163 390 1153.0 421.5Q1143 453 1143 487Q1143 526 1156 561L1328 1034Q1352 1100 1407.0 1138.0Q1462 1176 1531 1176Q1569 1176 1603.0 1163.5Q1637 1151 1672 1138Z" style="fill:#d48c00;stroke:none" transform="scale(1,-1) translate(0,-256)" /></svg>