<?xml version="1.0" encoding="utf-8" ?>
<svg baseProfile="full" height="256" version="1.1" width="256" xmlns="http://www.w3.org/2000/svg" xmlns:ev="http://www.w3.org/2001/xml-events" xmlns:xlink="http://www.w3.org/1999/xlink"><defs /><path d="M2057 727Q2089 689 2107.0 641.0Q2125 593 2125 542Q2125 517 2120.0 492.0Q2115 467 2107 444L2034 242Q2012 182 1967.0 137.0Q1922 92 1862 70Q1883 41 1904.0 12.5Q1925 -16 1942.0 -46.0Q1959 -76 1970.0 -109.0Q1981 -142 1981 -179Q1981 -231 1961.5 -277.0Q1942 -323 1908.0 -357.0Q1874 -391 1828.0 -411.0Q1782 -431 1730 -431Q1673 -431 1624.0 -407.5Q1575 -384 1537 -342L1336 -116L731 113Q694 127 661.5 146.5Q629 166 604.0 192.0Q579 218 563.5 251.5Q548 285 545 327L527 332Q479 346 431.0 363.0Q383 380 344.0 407.0Q305 434 280.5 474.5Q256 515 256 575V1294Q256 1339 273.0 1378.0Q290 1417 319.5 1446.5Q349 1476 388.0 1493.0Q427 1510 472 1510H492L965 1374L1450 1581L1486 1680Q1501 1722 1528.5 1757.0Q1556 1792 1591.5 1816.5Q1627 1841 1669.0 1855.0Q1711 1869 1756 1869Q1816 1869 1868.5 1846.5Q1921 1824 1960.0 1784.5Q1999 1745 2021.5 1692.5Q2044 1640 2044 1580Q2044 1556 2040.0 1531.0Q2036 1506 2027 1483L1886 1137Q1977 1102 2032.5 1032.0Q2088 962 2088 861Q2088 826 2079.5 792.5Q2071 759 2057 727Z" style="fill:#000000;stroke:none" transform="scale(1,-1) translate(0,-256)" /></svg>