<?xml version="1.0" encoding="utf-8" ?>
<svg baseProfile="full" height="256" version="1.1" width="256" xmlns="http://www.w3.org/2000/svg" xmlns:ev="http://www.w3.org/2001/xml-events" xmlns:xlink="http://www.w3.org/1999/xlink"><defs /><path d="M1390 17Q1339 17 1298.5 34.0Q1258 51 1229.5 81.5Q1201 112 1186.0 153.5Q1171 195 1171 245Q1171 297 1186.5 341.0Q1202 385 1231.0 417.0Q1260 449 1302.0 467.0Q1344 485 1398 485Q1449 485 1489.0 467.5Q1529 450 1557.0 419.0Q1585 388 1599.5 345.5Q1614 303 1614 254Q1614 203 1599.0 159.5Q1584 116 1555.0 84.5Q1526 53 1484.5 35.0Q1443 17 1390 17ZM1693 1078H1478V647H1334V1078H1118L1406 1366ZM1797 181V24H1695V477H1855Q1891 477 1922.5 469.5Q1954 462 1977.0 445.5Q2000 429 2013.0 401.0Q2026 373 2026 333Q2026 294 2011.0 265.5Q1996 237 1971.0 218.5Q1946 200 1913.5 190.5Q1881 181 1846 181ZM1141 394H1012V24H909V394H781V477H1141ZM1395 397Q1363 397 1341.0 384.5Q1319 372 1305.0 351.0Q1291 330 1284.5 303.5Q1278 277 1278 250Q1278 223 1284.5 197.0Q1291 171 1304.5 150.5Q1318 130 1340.0 117.5Q1362 105 1392 105Q1423 105 1445.0 117.0Q1467 129 1480.5 149.0Q1494 169 1500.5 195.0Q1507 221 1507 248Q1507 275 1501.5 301.5Q1496 328 1483.0 349.5Q1470 371 1448.5 384.0Q1427 397 1395 397ZM1797 399V258H1837Q1873 258 1896.0 274.0Q1919 290 1919 329Q1919 368 1895.5 383.5Q1872 399 1837 399Z" style="fill:#ffffff;stroke:none" transform="scale(1,-1) translate(0,-256)" /></svg>