<?xml version="1.0" encoding="utf-8" ?>
<svg baseProfile="full" height="256" version="1.1" width="256" xmlns="http://www.w3.org/2000/svg" xmlns:ev="http://www.w3.org/2001/xml-events" xmlns:xlink="http://www.w3.org/1999/xlink"><defs /><path d="M400 575H1837V431Q1837 336 1812.5 245.0Q1788 154 1740 72Q1692 156 1625.0 222.5Q1558 289 1477.5 335.5Q1397 382 1305.5 406.5Q1214 431 1118 431Q1022 431 931.0 406.0Q840 381 759.5 334.5Q679 288 612.0 221.5Q545 155 497 72Q449 154 424.5 245.0Q400 336 400 431ZM1350 1149Q1312 1149 1286.5 1174.5Q1261 1200 1261 1238Q1261 1276 1287 1302L1611 1626Q1637 1652 1674 1652Q1712 1652 1738.0 1626.0Q1764 1600 1764 1562Q1764 1525 1738 1499L1414 1175Q1388 1149 1350 1149ZM958 1149Q921 1149 895 1175L571 1499Q545 1525 545 1562Q545 1600 570.5 1626.0Q596 1652 634 1652Q672 1652 698 1626L1022 1302Q1048 1276 1048 1238Q1048 1200 1022.0 1174.5Q996 1149 958 1149ZM1368 935Q1368 957 1376.5 977.0Q1385 997 1400.0 1012.0Q1415 1027 1435.0 1035.5Q1455 1044 1478 1044Q1500 1044 1520.0 1035.5Q1540 1027 1555.0 1012.0Q1570 997 1578.5 977.0Q1587 957 1587 935Q1587 912 1578.5 892.0Q1570 872 1555.0 857.0Q1540 842 1520.0 833.5Q1500 825 1478 825Q1455 825 1435.0 833.5Q1415 842 1400.0 857.0Q1385 872 1376.5 892.0Q1368 912 1368 935ZM722 935Q722 957 730.5 977.0Q739 997 754.0 1012.0Q769 1027 788.5 1035.5Q808 1044 831 1044Q853 1044 873.0 1035.5Q893 1027 908.0 1012.0Q923 997 931.5 977.0Q940 957 940 935Q940 912 931.5 892.0Q923 872 908.0 857.0Q893 842 873.0 833.5Q853 825 831 825Q808 825 788.5 833.5Q769 842 754.0 857.0Q739 872 730.5 892.0Q722 912 722 935Z" style="fill:#000000;stroke:none" transform="scale(1,-1) translate(0,-256)" /></svg>