<?xml version="1.0" encoding="utf-8" ?>
<svg baseProfile="full" height="256" version="1.1" width="256" xmlns="http://www.w3.org/2000/svg" xmlns:ev="http://www.w3.org/2001/xml-events" xmlns:xlink="http://www.w3.org/1999/xlink"><defs /><path d="M1621 1294Q1666 1294 1705.5 1277.0Q1745 1260 1774.0 1231.0Q1803 1202 1820.0 1162.5Q1837 1123 1837 1078Q1837 1036 1820.5 996.0Q1804 956 1774 926L1630 782Q1600 752 1560.5 735.5Q1521 719 1478 719Q1433 719 1394.0 736.0Q1355 753 1325.5 782.0Q1296 811 1279.0 850.0Q1262 889 1262 934Q1262 977 1278.5 1017.0Q1295 1057 1325 1087L1469 1231Q1499 1261 1539.0 1277.5Q1579 1294 1621 1294ZM687 1294Q730 1294 770.0 1277.5Q810 1261 840 1231L983 1087Q1014 1055 1030.5 1017.0Q1047 979 1047 934Q1047 890 1030.0 850.5Q1013 811 983.5 782.0Q954 753 914.5 736.0Q875 719 831 719Q788 719 748.0 735.5Q708 752 678 782L535 926Q505 956 488.5 995.5Q472 1035 472 1078Q472 1123 489.0 1162.0Q506 1201 535.0 1230.5Q564 1260 603.0 1277.0Q642 1294 687 1294Z" style="fill:#ffffff;stroke:none" transform="scale(1,-1) translate(0,-256)" /></svg>