<?xml version="1.0" encoding="utf-8" ?>
<svg baseProfile="full" height="256" version="1.1" width="256" xmlns="http://www.w3.org/2000/svg" xmlns:ev="http://www.w3.org/2001/xml-events" xmlns:xlink="http://www.w3.org/1999/xlink"><defs /><path d="M1118 -431Q999 -431 889.0 -400.0Q779 -369 683.5 -313.0Q588 -257 509.0 -178.0Q430 -99 374.0 -3.5Q318 92 287.0 202.0Q256 312 256 431V1869H1981V1006H2268Q2326 1006 2378.5 983.0Q2431 960 2470.5 921.0Q2510 882 2533.0 829.5Q2556 777 2556 719Q2556 659 2533.5 606.5Q2511 554 2472.0 515.0Q2433 476 2380.5 453.5Q2328 431 2268 431H1981Q1981 312 1950.0 202.0Q1919 92 1863.0 -3.5Q1807 -99 1728.0 -178.0Q1649 -257 1553.0 -313.0Q1457 -369 1347.0 -400.0Q1237 -431 1118 -431Z" style="fill:#000000;stroke:none" transform="scale(1,-1) translate(0,-256)" /></svg>