<?xml version="1.0" encoding="utf-8" ?>
<svg baseProfile="full" height="256" version="1.1" width="256" xmlns="http://www.w3.org/2000/svg" xmlns:ev="http://www.w3.org/2001/xml-events" xmlns:xlink="http://www.w3.org/1999/xlink"><defs /><path d="M1478 -7Q1455 -7 1425.0 16.5Q1395 40 1352.5 68.5Q1310 97 1253.0 120.5Q1196 144 1118 144Q1067 144 1027.0 135.5Q987 127 951.5 110.5Q916 94 882.0 69.5Q848 45 810 14Q796 3 787.0 -2.5Q778 -8 759 -8Q730 -8 708.5 13.5Q687 35 687 64Q687 81 692.5 92.0Q698 103 708 115Q740 155 789.5 187.0Q839 219 895.0 241.5Q951 264 1009.5 276.0Q1068 288 1118 288Q1169 288 1227.5 276.5Q1286 265 1342.0 243.0Q1398 221 1447.0 188.5Q1496 156 1529 115Q1539 103 1544.5 92.0Q1550 81 1550 65Q1550 35 1529.0 14.0Q1508 -7 1478 -7Z" style="fill:#ffc83d;stroke:none" transform="scale(1,-1) translate(0,-256)" /></svg>