<?xml version="1.0" encoding="utf-8" ?>
<svg baseProfile="full" height="256" version="1.1" width="256" xmlns="http://www.w3.org/2000/svg" xmlns:ev="http://www.w3.org/2001/xml-events" xmlns:xlink="http://www.w3.org/1999/xlink"><defs /><path d="M1837 1725V861Q1823 855 1782.0 839.5Q1741 824 1684.0 803.0Q1627 782 1558.5 757.0Q1490 732 1420.5 706.5Q1351 681 1285.0 657.5Q1219 634 1167.5 615.5Q1116 597 1083.5 586.0Q1051 575 1047 575H400V1725ZM1118 431Q1214 431 1305.5 406.0Q1397 381 1477.5 334.5Q1558 288 1625.5 221.0Q1693 154 1741 71Q1692 -12 1624.5 -78.5Q1557 -145 1477.0 -191.5Q1397 -238 1306.0 -262.5Q1215 -287 1118 -287Q1022 -287 931.0 -262.0Q840 -237 759.5 -190.5Q679 -144 611.5 -78.0Q544 -12 496 71Q544 154 611.5 221.0Q679 288 759.0 334.5Q839 381 930.5 406.0Q1022 431 1118 431Z" style="fill:#f03a17;stroke:none" transform="scale(1,-1) translate(0,-256)" /></svg>