<?xml version="1.0" encoding="utf-8" ?>
<svg baseProfile="full" height="256" version="1.1" width="256" xmlns="http://www.w3.org/2000/svg" xmlns:ev="http://www.w3.org/2001/xml-events" xmlns:xlink="http://www.w3.org/1999/xlink"><defs /><path d="M687 1080Q631 1086 582.0 1110.5Q533 1135 495.0 1173.0Q457 1211 432.5 1260.5Q408 1310 402 1366Q419 1385 459.5 1397.0Q500 1409 547.5 1415.5Q595 1422 640.0 1424.0Q685 1426 711 1426Q742 1426 789.0 1423.5Q836 1421 885.0 1414.5Q934 1408 977.5 1396.5Q1021 1385 1045 1366Q1039 1310 1014.5 1260.5Q990 1211 952.0 1173.0Q914 1135 864.5 1110.5Q815 1086 759 1080Q754 1069 744.0 1062.0Q734 1055 722 1055Q711 1055 701.0 1062.0Q691 1069 687 1080Z" style="fill:#3a96dd;stroke:none" transform="scale(1,-1) translate(0,-256)" /></svg>