<?xml version="1.0" encoding="utf-8" ?>
<svg baseProfile="full" height="256" version="1.1" width="256" xmlns="http://www.w3.org/2000/svg" xmlns:ev="http://www.w3.org/2001/xml-events" xmlns:xlink="http://www.w3.org/1999/xlink"><defs /><path d="M543 972Q478 999 425.0 1043.5Q372 1088 334.5 1144.0Q297 1200 276.5 1266.0Q256 1332 256 1402Q256 1498 293.0 1583.0Q330 1668 393.5 1731.5Q457 1795 542.0 1832.0Q627 1869 723 1869Q820 1869 905.0 1832.0Q990 1795 1053.5 1731.5Q1117 1668 1154.0 1583.0Q1191 1498 1191 1401Q1191 1310 1157.0 1226.5Q1123 1143 1060 1077H1333V143H903V-2H1047V-74H1118V-432H328V-74H399V-2H543Z" style="fill:#000000;stroke:none" transform="scale(1,-1) translate(0,-256)" /></svg>