<?xml version="1.0" encoding="utf-8" ?>
<svg baseProfile="full" height="256" version="1.1" width="256" xmlns="http://www.w3.org/2000/svg" xmlns:ev="http://www.w3.org/2001/xml-events" xmlns:xlink="http://www.w3.org/1999/xlink"><defs /><path d="M1006 871Q1028 871 1052.5 868.5Q1077 866 1100.0 859.0Q1123 852 1143.5 840.0Q1164 828 1179 810Q1181 808 1185.5 800.5Q1190 793 1190 791V288H831V359L821 370V421L831 431V791Q831 795 835.5 802.0Q840 809 842 812Q855 830 874.5 841.5Q894 853 916.5 859.5Q939 866 962.0 868.5Q985 871 1006 871ZM400 1416Q400 1422 400.0 1427.5Q400 1433 402 1438H1045Q1046 1429 1046.5 1420.0Q1047 1411 1047 1402Q1047 1393 1046.5 1384.0Q1046 1375 1045 1366H402Q400 1371 400.0 1376.5Q400 1382 400 1388Z" style="fill:#f2f2f2;stroke:none" transform="scale(1,-1) translate(0,-256)" /></svg>