<?xml version="1.0" encoding="utf-8" ?>
<svg baseProfile="full" height="256" version="1.1" width="256" xmlns="http://www.w3.org/2000/svg" xmlns:ev="http://www.w3.org/2001/xml-events" xmlns:xlink="http://www.w3.org/1999/xlink"><defs /><path d="M1045 1438Q1012 1423 969.5 1413.0Q927 1403 882.5 1397.5Q838 1392 794.5 1389.5Q751 1387 714 1387Q681 1387 639.0 1389.5Q597 1392 554.0 1397.5Q511 1403 471.0 1413.0Q431 1423 402 1438Q409 1499 437.0 1551.5Q465 1604 508.0 1642.5Q551 1681 606.0 1703.0Q661 1725 723 1725Q784 1725 839.5 1703.0Q895 1681 938.5 1642.5Q982 1604 1010.0 1551.5Q1038 1499 1045 1438Z" style="fill:#e81224;stroke:none" transform="scale(1,-1) translate(0,-256)" /></svg>