<?xml version="1.0" encoding="utf-8" ?>
<svg baseProfile="full" height="256" version="1.1" width="256" xmlns="http://www.w3.org/2000/svg" xmlns:ev="http://www.w3.org/2001/xml-events" xmlns:xlink="http://www.w3.org/1999/xlink"><defs /><path d="M2197 719Q2197 610 2169.0 509.0Q2141 408 2089.5 320.0Q2038 232 1965.5 159.5Q1893 87 1805.0 35.5Q1717 -16 1616.0 -44.0Q1515 -72 1406 -72Q1297 -72 1196.0 -44.0Q1095 -16 1007.0 35.5Q919 87 846.5 159.5Q774 232 722.5 320.0Q671 408 643.0 509.0Q615 610 615 719Q615 828 643.0 929.0Q671 1030 722.5 1118.0Q774 1206 846.5 1278.5Q919 1351 1007.0 1402.5Q1095 1454 1196.0 1482.0Q1297 1510 1406 1510Q1515 1510 1616.0 1482.0Q1717 1454 1805.0 1402.5Q1893 1351 1965.5 1278.5Q2038 1206 2089.5 1118.0Q2141 1030 2169.0 929.0Q2197 828 2197 719Z" style="fill:#ffffff;stroke:none" transform="scale(1,-1) translate(0,-256)" /></svg>