<?xml version="1.0" encoding="utf-8" ?>
<svg baseProfile="full" height="256" version="1.1" width="256" xmlns="http://www.w3.org/2000/svg" xmlns:ev="http://www.w3.org/2001/xml-events" xmlns:xlink="http://www.w3.org/1999/xlink"><defs /><path d="M1837 1150Q1837 1108 1813.5 1073.5Q1790 1039 1752.5 1011.0Q1715 983 1667.5 960.5Q1620 938 1572.5 920.0Q1525 902 1481.0 888.0Q1437 874 1406 863Q1360 846 1320.5 818.0Q1281 790 1252.0 752.5Q1223 715 1206.5 670.0Q1190 625 1190 575Q1190 545 1169.0 524.0Q1148 503 1118 503Q1089 503 1068.0 524.5Q1047 546 1047 575V755Q1047 777 1038.5 796.5Q1030 816 1015.0 831.0Q1000 846 980.5 854.5Q961 863 939 863Q917 863 897.5 854.5Q878 846 863.0 831.0Q848 816 839.5 796.5Q831 777 831 755V431Q831 402 809.5 381.0Q788 360 759 360Q730 360 708.5 381.0Q687 402 687 431V617Q687 637 680.0 660.0Q673 683 661.5 705.5Q650 728 635.5 748.0Q621 768 607 782L463 926Q433 956 416.5 995.5Q400 1035 400 1078V1387Q400 1433 422.0 1472.0Q444 1511 480.0 1543.0Q516 1575 561.5 1600.0Q607 1625 655.0 1644.0Q703 1663 748.5 1676.0Q794 1689 830 1697Q970 1725 1118 1725Q1266 1725 1406 1697Q1442 1689 1487.5 1676.0Q1533 1663 1581.0 1644.0Q1629 1625 1675.0 1600.0Q1721 1575 1757.0 1543.0Q1793 1511 1815.0 1472.0Q1837 1433 1837 1387Z" style="fill:#ffffff;stroke:none" transform="scale(1,-1) translate(0,-256)" /></svg>