<?xml version="1.0" encoding="utf-8" ?>
<svg baseProfile="full" height="256" version="1.1" width="256" xmlns="http://www.w3.org/2000/svg" xmlns:ev="http://www.w3.org/2001/xml-events" xmlns:xlink="http://www.w3.org/1999/xlink"><defs /><path d="M543 288H1765V144Q1765 104 1746.0 70.5Q1727 37 1695.5 10.0Q1664 -17 1624.5 -39.0Q1585 -61 1543.5 -77.0Q1502 -93 1462.5 -104.0Q1423 -115 1392 -121Q1333 -133 1273.5 -138.5Q1214 -144 1154 -144Q1094 -144 1035.0 -138.5Q976 -133 916 -121Q885 -115 845.5 -104.0Q806 -93 764.5 -77.0Q723 -61 683.5 -39.0Q644 -17 612.5 10.0Q581 37 562.0 70.5Q543 104 543 144Z" style="fill:#ffffff;stroke:none" transform="scale(1,-1) translate(0,-256)" /></svg>