<?xml version="1.0" encoding="utf-8" ?>
<svg baseProfile="full" height="256" version="1.1" width="256" xmlns="http://www.w3.org/2000/svg" xmlns:ev="http://www.w3.org/2001/xml-events" xmlns:xlink="http://www.w3.org/1999/xlink"><defs /><path d="M543 144H1765V0Q1765 -40 1746.0 -73.0Q1727 -106 1695.5 -133.5Q1664 -161 1624.5 -182.5Q1585 -204 1543.5 -220.5Q1502 -237 1462.5 -248.0Q1423 -259 1392 -265Q1333 -276 1273.5 -281.5Q1214 -287 1154 -287Q1094 -287 1035.0 -281.5Q976 -276 916 -264Q885 -258 846.0 -247.0Q807 -236 765.5 -220.0Q724 -204 684.0 -182.5Q644 -161 612.5 -133.5Q581 -106 562.0 -73.0Q543 -40 543 0Z" style="fill:#cccccc;stroke:none" transform="scale(1,-1) translate(0,-256)" /></svg>