<?xml version="1.0" encoding="utf-8" ?>
<svg baseProfile="full" height="256" version="1.1" width="256" xmlns="http://www.w3.org/2000/svg" xmlns:ev="http://www.w3.org/2001/xml-events" xmlns:xlink="http://www.w3.org/1999/xlink"><defs /><path d="M1154 -431Q1074 -431 995.0 -423.0Q916 -415 838 -396Q790 -384 739.5 -366.0Q689 -348 640.0 -323.0Q591 -298 547.5 -266.0Q504 -234 471.0 -193.5Q438 -153 419.0 -105.0Q400 -57 400 0V786Q333 846 294.5 915.5Q256 985 256 1078V1387Q256 1450 277.5 1503.5Q299 1557 336.0 1601.5Q373 1646 422.0 1681.5Q471 1717 525.5 1745.0Q580 1773 636.5 1793.0Q693 1813 745 1826Q837 1849 930.5 1859.0Q1024 1869 1118 1869Q1197 1869 1276.0 1862.0Q1355 1855 1433 1839Q1486 1828 1544.5 1811.0Q1603 1794 1660.5 1769.0Q1718 1744 1771.5 1711.5Q1825 1679 1868.0 1637.0Q1911 1595 1940.0 1543.5Q1969 1492 1978 1431Q2041 1419 2094.0 1386.0Q2147 1353 2186.0 1306.0Q2225 1259 2246.5 1200.5Q2268 1142 2268 1078V575Q2268 501 2239.5 435.5Q2211 370 2162.5 321.0Q2114 272 2048.5 244.0Q1983 216 1909 216V0Q1909 -86 1867.5 -151.5Q1826 -217 1761.5 -265.5Q1697 -314 1619.5 -346.0Q1542 -378 1471 -395Q1393 -415 1313.5 -423.0Q1234 -431 1154 -431Z" style="fill:#000000;stroke:none" transform="scale(1,-1) translate(0,-256)" /></svg>