<?xml version="1.0" encoding="utf-8" ?>
<svg baseProfile="full" height="256" version="1.1" width="256" xmlns="http://www.w3.org/2000/svg" xmlns:ev="http://www.w3.org/2001/xml-events" xmlns:xlink="http://www.w3.org/1999/xlink"><defs /><path d="M651 288Q629 288 609.5 296.5Q590 305 575.0 320.0Q560 335 551.5 354.5Q543 374 543 396V1142Q545 1102 567.0 1069.0Q589 1036 620.5 1010.0Q652 984 689.0 964.0Q726 944 759 931V396Q759 373 750.5 353.5Q742 334 727.5 319.5Q713 305 693.0 296.5Q673 288 651 288ZM1550 931Q1582 944 1619.0 964.0Q1656 984 1687.5 1010.0Q1719 1036 1741.0 1069.0Q1763 1102 1765 1142V396Q1765 374 1756.5 354.5Q1748 335 1734.0 320.0Q1720 305 1700.0 296.5Q1680 288 1658 288Q1635 288 1615.5 296.5Q1596 305 1581.5 319.5Q1567 334 1558.5 353.5Q1550 373 1550 396ZM1154 863Q1181 863 1208.0 864.0Q1235 865 1262 867V252Q1262 229 1253.5 209.5Q1245 190 1230.5 175.5Q1216 161 1196.0 152.5Q1176 144 1154 144Q1131 144 1111.5 152.5Q1092 161 1078.0 176.0Q1064 191 1055.5 210.5Q1047 230 1047 253V575Z" style="fill:#ffb900;stroke:none" transform="scale(1,-1) translate(0,-256)" /></svg>