<?xml version="1.0" encoding="utf-8" ?>
<svg baseProfile="full" height="256" version="1.1" width="256" xmlns="http://www.w3.org/2000/svg" xmlns:ev="http://www.w3.org/2001/xml-events" xmlns:xlink="http://www.w3.org/1999/xlink"><defs /><path d="M1909 1294Q1954 1294 1993.0 1277.0Q2032 1260 2061.5 1230.5Q2091 1201 2108.0 1162.0Q2125 1123 2125 1078V575Q2125 530 2108.0 491.0Q2091 452 2061.5 423.0Q2032 394 1993.0 377.0Q1954 360 1909 360H1658V575H1837Q1867 575 1888.0 596.0Q1909 617 1909 647V1007Q1909 1036 1887.5 1057.0Q1866 1078 1837 1078H1607V1294Z" style="fill:#f2f2f2;stroke:none" transform="scale(1,-1) translate(0,-256)" /></svg>