<?xml version="1.0" encoding="utf-8" ?>
<svg baseProfile="full" height="256" version="1.1" width="256" xmlns="http://www.w3.org/2000/svg" xmlns:ev="http://www.w3.org/2001/xml-events" xmlns:xlink="http://www.w3.org/1999/xlink"><defs /><path d="M1778 540Q1794 540 1804 530L1982 352L1931 301L1753 479Q1742 490 1742 504Q1742 519 1752.5 529.5Q1763 540 1778 540ZM1539 300Q1539 315 1549.5 325.5Q1560 336 1575 336Q1590 336 1600 326L1778 148L1727 97L1550 275Q1539 286 1539 300ZM1284 148Q1284 162 1295.0 173.0Q1306 184 1320 184Q1336 184 1346 174L1473 47L1423 -4L1295 123Q1284 134 1284 148ZM1037 359Q1068 359 1096.0 348.5Q1124 338 1145.0 319.5Q1166 301 1178.0 274.5Q1190 248 1190 215Q1190 185 1178.5 159.0Q1167 133 1147.5 113.5Q1128 94 1102.0 83.0Q1076 72 1046 72Q987 72 945 114L640 419Q630 429 617.0 440.5Q604 452 593.0 464.5Q582 477 574.0 491.0Q566 505 566 521Q566 553 587 574Q564 597 548.0 617.5Q532 638 532 673Q532 695 540.5 714.5Q549 734 564.0 749.0Q579 764 598.5 772.5Q618 781 640 781Q661 781 680.5 773.0Q700 765 715.0 751.0Q730 737 739.0 718.5Q748 700 748 679Q748 669 747 664Q780 663 805.5 650.5Q831 638 848.5 617.5Q866 597 875.0 569.5Q884 542 884 511Q955 511 996.0 471.0Q1037 431 1037 359ZM1960 1510Q1991 1510 2011 1489L2391 1078Q2412 1055 2412 1027Q2412 998 2391 977L2001 586L1492 1096L1301 905Q1271 875 1231.0 858.5Q1191 842 1148 842Q1125 842 1095.5 849.5Q1066 857 1039.0 871.5Q1012 886 993.5 907.0Q975 928 975 955Q975 985 996 1006L1310 1324Q1330 1344 1357.0 1355.0Q1384 1366 1412 1366Q1441 1366 1467.5 1355.0Q1494 1344 1514 1324L1629 1208L1909 1489Q1930 1510 1960 1510Z" style="fill:#eba300;stroke:none" transform="scale(1,-1) translate(0,-256)" /></svg>