<?xml version="1.0" encoding="utf-8" ?>
<svg baseProfile="full" height="256" version="1.1" width="256" xmlns="http://www.w3.org/2000/svg" xmlns:ev="http://www.w3.org/2001/xml-events" xmlns:xlink="http://www.w3.org/1999/xlink"><defs /><path d="M1295 -215Q1250 -215 1215.5 -204.5Q1181 -194 1152.0 -176.0Q1123 -158 1096.0 -133.5Q1069 -109 1041 -80L1032 -71Q978 -68 929.5 -46.5Q881 -25 843 13L488 368Q456 400 439.0 437.5Q422 475 422 519Q422 525 422.5 531.5Q423 538 424 545Q406 574 397.0 606.5Q388 639 388 673Q388 731 414 783Q386 810 358.0 835.5Q330 861 307.5 889.5Q285 918 270.5 951.5Q256 985 256 1028Q256 1073 272.5 1110.5Q289 1148 319 1180L696 1586Q726 1618 767.0 1635.5Q808 1653 852 1653Q941 1653 1004 1590L1189 1405Q1234 1456 1288.5 1483.0Q1343 1510 1412 1510Q1447 1510 1476.0 1503.5Q1505 1497 1530.5 1484.0Q1556 1471 1580.0 1453.0Q1604 1435 1629 1412L1807 1590Q1838 1621 1877.0 1637.0Q1916 1653 1960 1653Q2002 1653 2042.5 1637.0Q2083 1621 2112 1590L2497 1176Q2556 1112 2556 1028Q2556 984 2540.0 945.0Q2524 906 2493 875L2190 572Q2208 528 2208 479Q2208 375 2134 301L1778 -55Q1737 -96 1684.5 -117.5Q1632 -139 1575 -139Q1537 -139 1500 -130Q1460 -172 1406.0 -193.5Q1352 -215 1295 -215Z" style="fill:#000000;stroke:none" transform="scale(1,-1) translate(0,-256)" /></svg>