<?xml version="1.0" encoding="utf-8" ?>
<svg baseProfile="full" height="256" version="1.1" width="256" xmlns="http://www.w3.org/2000/svg" xmlns:ev="http://www.w3.org/2001/xml-events" xmlns:xlink="http://www.w3.org/1999/xlink"><defs /><path d="M1334 1222 1673 1112 1959 856 2001 586Q2013 574 2024.5 562.5Q2036 551 2045.0 539.0Q2054 527 2059.0 512.5Q2064 498 2064 479Q2064 458 2056.0 440.5Q2048 423 2036.0 408.0Q2024 393 2009.5 379.0Q1995 365 1982 352L1915 370L1931 301L1778 148L1715 170L1727 97Q1710 80 1694.0 63.5Q1678 47 1660.5 34.0Q1643 21 1622.0 13.0Q1601 5 1575 5Q1546 5 1519.5 16.0Q1493 27 1473 47L1406 64L1423 -4Q1394 -33 1366.0 -52.5Q1338 -72 1295 -72Q1236 -72 1194 -30L638 526L759 647L421 977Q400 998 400 1027Q400 1055 421 1078L801 1489Q811 1500 824.5 1505.0Q838 1510 852 1510Q882 1510 903 1489L1252 1140Z" style="fill:#ffc83d;stroke:none" transform="scale(1,-1) translate(0,-256)" /></svg>