<?xml version="1.0" encoding="utf-8" ?>
<svg baseProfile="full" height="256" version="1.1" width="256" xmlns="http://www.w3.org/2000/svg" xmlns:ev="http://www.w3.org/2001/xml-events" xmlns:xlink="http://www.w3.org/1999/xlink"><defs /><path d="M1262 -431Q1208 -431 1145.0 -423.5Q1082 -416 1018.0 -398.5Q954 -381 894.5 -353.5Q835 -326 788.5 -286.0Q742 -246 714.5 -193.0Q687 -140 687 -72V0Q687 72 720.0 128.5Q753 185 805.5 226.0Q858 267 921.5 294.5Q985 322 1047 336V444L422 1068Q390 1100 360.0 1132.0Q330 1164 307.0 1199.5Q284 1235 270.0 1275.5Q256 1316 256 1366Q256 1440 286.0 1500.5Q316 1561 366.0 1609.5Q416 1658 480.5 1695.0Q545 1732 615.0 1759.5Q685 1787 754.5 1805.5Q824 1824 883 1835Q977 1852 1071.5 1860.5Q1166 1869 1262 1869Q1369 1869 1474.5 1859.0Q1580 1849 1685 1826Q1709 1847 1739.0 1858.0Q1769 1869 1801 1869Q1832 1869 1860.5 1859.0Q1889 1849 1912.5 1830.5Q1936 1812 1952.5 1786.5Q1969 1761 1976 1731Q2031 1705 2083.5 1669.5Q2136 1634 2177.0 1588.5Q2218 1543 2243.0 1487.5Q2268 1432 2268 1366Q2268 1316 2254.5 1275.5Q2241 1235 2218.5 1200.5Q2196 1166 2166.5 1134.5Q2137 1103 2105 1071L1476 446V336Q1538 322 1602.5 294.5Q1667 267 1719.0 225.5Q1771 184 1804.0 128.0Q1837 72 1837 0V-72Q1837 -140 1809.5 -193.0Q1782 -246 1735.5 -286.0Q1689 -326 1629.5 -353.5Q1570 -381 1506.0 -398.5Q1442 -416 1379.0 -423.5Q1316 -431 1262 -431Z" style="fill:#000000;stroke:none" transform="scale(1,-1) translate(0,-256)" /></svg>