<?xml version="1.0" encoding="utf-8" ?>
<svg baseProfile="full" height="256" version="1.1" width="256" xmlns="http://www.w3.org/2000/svg" xmlns:ev="http://www.w3.org/2001/xml-events" xmlns:xlink="http://www.w3.org/1999/xlink"><defs /><path d="M1837 1384Q1837 1369 1832.0 1353.0Q1827 1337 1818.0 1324.0Q1809 1311 1795.5 1302.5Q1782 1294 1765 1294Q1748 1294 1734.5 1302.5Q1721 1311 1712.0 1324.0Q1703 1337 1698.0 1353.0Q1693 1369 1693 1384Q1693 1399 1698.0 1415.0Q1703 1431 1712.0 1444.0Q1721 1457 1734.5 1465.5Q1748 1474 1765 1474Q1782 1474 1795.5 1465.5Q1809 1457 1818.0 1444.0Q1827 1431 1832.0 1415.0Q1837 1399 1837 1384Z" style="fill:#f03a17;stroke:none" transform="scale(1,-1) translate(0,-256)" /></svg>