<?xml version="1.0" encoding="utf-8" ?>
<svg baseProfile="full" height="256" version="1.1" width="256" xmlns="http://www.w3.org/2000/svg" xmlns:ev="http://www.w3.org/2001/xml-events" xmlns:xlink="http://www.w3.org/1999/xlink"><defs /><path d="M1423 1013Q1382 1013 1342.5 1009.5Q1303 1006 1262 1006Q1206 1006 1137.0 1010.5Q1068 1015 994.0 1025.5Q920 1036 844.5 1052.0Q769 1068 700.0 1092.0Q631 1116 572.0 1148.0Q513 1180 472 1221Q443 1250 421.5 1286.5Q400 1323 400 1366Q400 1416 427.5 1458.0Q455 1500 499.5 1534.0Q544 1568 600.0 1594.5Q656 1621 713.5 1641.0Q771 1661 824.5 1674.5Q878 1688 917 1695Q1003 1711 1088.5 1718.0Q1174 1725 1262 1725Q1350 1725 1436.0 1718.0Q1522 1711 1608 1695Q1647 1688 1700.5 1674.5Q1754 1661 1811.5 1641.0Q1869 1621 1925.0 1594.5Q1981 1568 2025.5 1534.0Q2070 1500 2097.5 1458.0Q2125 1416 2125 1366Q2125 1318 2099.5 1277.5Q2074 1237 2033.0 1203.5Q1992 1170 1940.0 1143.5Q1888 1117 1834.0 1097.0Q1780 1077 1729.5 1063.5Q1679 1050 1642 1043Q1608 1036 1574.5 1032.5Q1541 1029 1507 1021L1450 972Z" style="fill:#f2f2f2;stroke:none" transform="scale(1,-1) translate(0,-256)" /></svg>