<?xml version="1.0" encoding="utf-8" ?>
<svg baseProfile="full" height="256" version="1.1" width="256" xmlns="http://www.w3.org/2000/svg" xmlns:ev="http://www.w3.org/2001/xml-events" xmlns:xlink="http://www.w3.org/1999/xlink"><defs /><path d="M1262 -215Q1293 -215 1337.0 -210.5Q1381 -206 1428.5 -196.0Q1476 -186 1523.5 -170.0Q1571 -154 1608.5 -130.0Q1646 -106 1669.5 -74.0Q1693 -42 1693 0V-72Q1693 -116 1665.0 -149.5Q1637 -183 1596.5 -207.5Q1556 -232 1510.5 -247.5Q1465 -263 1430 -270Q1388 -279 1346.5 -283.0Q1305 -287 1262 -287Q1219 -287 1177.5 -283.0Q1136 -279 1094 -270Q1059 -263 1013.5 -247.5Q968 -232 927.5 -207.5Q887 -183 859.0 -149.5Q831 -116 831 -72V0Q831 -44 859.0 -77.5Q887 -111 927.5 -135.5Q968 -160 1013.5 -175.5Q1059 -191 1094 -198Q1136 -207 1177.5 -211.0Q1219 -215 1262 -215ZM1262 575H1334V72Q1334 42 1313.0 21.0Q1292 0 1262 0Z" style="fill:#cccccc;stroke:none" transform="scale(1,-1) translate(0,-256)" /></svg>