<?xml version="1.0" encoding="utf-8" ?>
<svg baseProfile="full" height="256" version="1.1" width="256" xmlns="http://www.w3.org/2000/svg" xmlns:ev="http://www.w3.org/2001/xml-events" xmlns:xlink="http://www.w3.org/1999/xlink"><defs /><path d="M1262 1653Q1342 1653 1421.0 1647.5Q1500 1642 1579 1629Q1611 1624 1658.5 1614.0Q1706 1604 1758.5 1588.5Q1811 1573 1863.5 1552.0Q1916 1531 1958.0 1503.5Q2000 1476 2026.5 1441.5Q2053 1407 2053 1366Q2053 1337 2039.5 1312.5Q2026 1288 2005.5 1267.5Q1985 1247 1960.0 1231.0Q1935 1215 1913 1203H624Q600 1212 573.0 1227.5Q546 1243 523.5 1263.5Q501 1284 486.5 1310.0Q472 1336 472 1366Q472 1407 498.5 1441.5Q525 1476 567.0 1503.5Q609 1531 661.5 1552.0Q714 1573 766.5 1588.5Q819 1604 866.5 1614.0Q914 1624 946 1629Q1025 1642 1103.5 1647.5Q1182 1653 1262 1653Z" style="fill:#cccccc;stroke:none" transform="scale(1,-1) translate(0,-256)" /></svg>