<?xml version="1.0" encoding="utf-8" ?>
<svg baseProfile="full" height="256" version="1.1" width="256" xmlns="http://www.w3.org/2000/svg" xmlns:ev="http://www.w3.org/2001/xml-events" xmlns:xlink="http://www.w3.org/1999/xlink"><defs /><path d="M1622 1258Q1622 1249 1612.0 1226.5Q1602 1204 1589.0 1178.5Q1576 1153 1563.0 1129.5Q1550 1106 1545 1096Q1504 1090 1460 1087L1554 1274Q1564 1294 1585 1294Q1600 1294 1611.0 1283.5Q1622 1273 1622 1258ZM1773 1553Q1757 1562 1740.0 1567.5Q1723 1573 1705 1577L1769 1705Q1779 1725 1801 1725Q1815 1725 1826.0 1714.0Q1837 1703 1837 1689Q1837 1680 1829.0 1661.5Q1821 1643 1810.0 1622.0Q1799 1601 1788.5 1582.0Q1778 1563 1773 1553Z" style="fill:#bb9167;stroke:none" transform="scale(1,-1) translate(0,-256)" /></svg>