<?xml version="1.0" encoding="utf-8" ?>
<svg baseProfile="full" height="256" version="1.1" width="256" xmlns="http://www.w3.org/2000/svg" xmlns:ev="http://www.w3.org/2001/xml-events" xmlns:xlink="http://www.w3.org/1999/xlink"><defs /><path d="M1298 227Q1316 220 1330.0 216.0Q1344 212 1357.5 210.0Q1371 208 1385.0 206.0Q1399 204 1418 201Q1454 195 1501.5 179.5Q1549 164 1591.5 139.0Q1634 114 1663.5 79.5Q1693 45 1693 0Q1693 -57 1672.5 -96.5Q1652 -136 1618.5 -163.0Q1585 -190 1540.5 -205.5Q1496 -221 1448.5 -229.0Q1401 -237 1352.5 -239.0Q1304 -241 1262 -241Q1222 -241 1174.5 -238.0Q1127 -235 1079.5 -226.0Q1032 -217 987.0 -200.0Q942 -183 907.5 -156.5Q873 -130 852.0 -91.5Q831 -53 831 0Q831 36 849.5 65.5Q868 95 898.5 118.0Q929 141 968.0 157.5Q1007 174 1047.0 186.0Q1087 198 1124.5 204.5Q1162 211 1190 213V575H1298Z" style="fill:#f2f2f2;stroke:none" transform="scale(1,-1) translate(0,-256)" /></svg>