<?xml version="1.0" encoding="utf-8" ?>
<svg baseProfile="full" height="256" version="1.1" width="256" xmlns="http://www.w3.org/2000/svg" xmlns:ev="http://www.w3.org/2001/xml-events" xmlns:xlink="http://www.w3.org/1999/xlink"><defs /><path d="M1873 1402Q1873 1360 1853.5 1326.5Q1834 1293 1803.5 1270.0Q1773 1247 1734.5 1234.5Q1696 1222 1658 1222Q1620 1222 1581.5 1234.5Q1543 1247 1512.0 1270.0Q1481 1293 1461.5 1326.5Q1442 1360 1442 1402Q1442 1444 1461.5 1477.5Q1481 1511 1512.0 1534.0Q1543 1557 1581.5 1569.0Q1620 1581 1658 1581Q1670 1581 1682.0 1580.0Q1694 1579 1705 1577L1757 1599L1772 1554Q1815 1531 1844.0 1491.5Q1873 1452 1873 1402Z" style="fill:#8cbd18;stroke:none" transform="scale(1,-1) translate(0,-256)" /></svg>