<?xml version="1.0" encoding="utf-8" ?>
<svg baseProfile="full" height="256" version="1.1" width="256" xmlns="http://www.w3.org/2000/svg" xmlns:ev="http://www.w3.org/2001/xml-events" xmlns:xlink="http://www.w3.org/1999/xlink"><defs /><path d="M2053 1150V1006H1047V791L759 1078L1047 1366V1150ZM1654 24V477H1814Q1869 477 1914.0 464.5Q1959 452 1990.5 425.5Q2022 399 2039.0 357.0Q2056 315 2056 257Q2056 203 2038.0 160.0Q2020 117 1988.0 86.5Q1956 56 1911.5 40.0Q1867 24 1814 24ZM1547 24H1444Q1391 105 1337.0 184.0Q1283 263 1235 347Q1236 340 1236.0 333.5Q1236 327 1236 321V24H1140V477H1250Q1301 399 1353.0 322.5Q1405 246 1452 165Q1451 170 1451.0 176.0Q1451 182 1451 187V477H1547ZM1056 24H785V477H1046V394H887V294H1035V211H887V107H1056ZM1756 394V107H1806Q1875 107 1911.5 147.5Q1948 188 1948 255Q1948 322 1910.0 358.0Q1872 394 1806 394Z" style="fill:#ffffff;stroke:none" transform="scale(1,-1) translate(0,-256)" /></svg>