<?xml version="1.0" encoding="utf-8" ?>
<svg baseProfile="full" height="256" version="1.1" width="256" xmlns="http://www.w3.org/2000/svg" xmlns:ev="http://www.w3.org/2001/xml-events" xmlns:xlink="http://www.w3.org/1999/xlink"><defs /><path d="M1478 1725Q1478 1694 1456.5 1673.5Q1435 1653 1406 1653Q1346 1653 1293.5 1630.5Q1241 1608 1202.0 1569.0Q1163 1530 1140.5 1478.0Q1118 1426 1118 1366Q1118 1323 1138.0 1286.0Q1158 1249 1190 1222L975 1007Q946 1040 910.0 1059.0Q874 1078 829 1078Q805 1078 791.0 1068.5Q777 1059 770.0 1043.5Q763 1028 761.0 1008.5Q759 989 759 970V935L636 812Q615 791 585 791Q556 791 535 812L421 926Q400 947 400 977Q400 1007 421 1028L543 1150H615Q650 1150 666.0 1171.0Q682 1192 687 1224Q691 1252 695.5 1270.0Q700 1288 707.5 1302.5Q715 1317 727.5 1331.5Q740 1346 759 1366Q788 1396 815.0 1427.0Q842 1458 873 1485Q1003 1599 1153.5 1662.0Q1304 1725 1478 1725Z" style="fill:#cccccc;stroke:none" transform="scale(1,-1) translate(0,-256)" /></svg>