<?xml version="1.0" encoding="utf-8" ?>
<svg baseProfile="full" height="256" version="1.1" width="256" xmlns="http://www.w3.org/2000/svg" xmlns:ev="http://www.w3.org/2001/xml-events" xmlns:xlink="http://www.w3.org/1999/xlink"><defs /><path d="M2226 -359Q2137 -359 2074 -296L1431 346Q1422 355 1413.0 374.0Q1404 393 1395.5 414.5Q1387 436 1378.5 456.5Q1370 477 1360 490Q1335 522 1304.0 549.5Q1273 577 1244 606L1011 839L965 793L900 872L738 710Q708 680 668.0 663.5Q628 647 586 647Q543 647 503.0 663.5Q463 680 433 710L319 824Q288 855 272.0 894.0Q256 933 256 977Q256 1066 319 1129L484 1294H552L557 1312Q543 1346 543 1381Q543 1416 557.0 1449.5Q571 1483 596 1508L689 1601Q715 1627 747.5 1640.0Q780 1653 816 1653Q833 1653 850 1650Q988 1756 1145.5 1812.5Q1303 1869 1478 1869H1621V1725Q1621 1680 1604.0 1641.0Q1587 1602 1558.0 1573.0Q1529 1544 1490.0 1527.0Q1451 1510 1406 1510Q1376 1510 1350.0 1498.5Q1324 1487 1304.5 1467.5Q1285 1448 1273.5 1422.0Q1262 1396 1262 1366Q1262 1354 1268.0 1347.0Q1274 1340 1282 1333L1403 1232L1358 1186L1591 953Q1620 924 1647.5 893.5Q1675 863 1707 837Q1719 827 1740.5 817.0Q1762 807 1784.0 797.5Q1806 788 1824.5 780.0Q1843 772 1850 765L2493 123Q2523 93 2539.5 53.0Q2556 13 2556 -29Q2556 -72 2539.5 -112.0Q2523 -152 2493 -182L2379 -296Q2348 -327 2309.0 -343.0Q2270 -359 2226 -359Z" style="fill:#000000;stroke:none" transform="scale(1,-1) translate(0,-256)" /></svg>