<?xml version="1.0" encoding="utf-8" ?>
<svg baseProfile="full" height="256" version="1.1" width="256" xmlns="http://www.w3.org/2000/svg" xmlns:ev="http://www.w3.org/2001/xml-events" xmlns:xlink="http://www.w3.org/1999/xlink"><defs /><path d="M2226 -215Q2196 -215 2175 -194L1550 432Q1537 445 1529.0 464.0Q1521 483 1514.0 503.5Q1507 524 1499.0 543.0Q1491 562 1478 575L698 1355Q687 1366 687 1380Q687 1395 698 1406L791 1499Q801 1509 816 1509Q831 1509 841 1499L1621 719Q1631 709 1651.0 700.0Q1671 691 1693.0 683.0Q1715 675 1735.0 666.0Q1755 657 1765 647L2391 21Q2412 0 2412 -30Q2412 -59 2391 -80L2277 -194Q2256 -215 2226 -215Z" style="fill:#eba300;stroke:none" transform="scale(1,-1) translate(0,-256)" /></svg>