<?xml version="1.0" encoding="utf-8" ?>
<svg baseProfile="full" height="256" version="1.1" width="256" xmlns="http://www.w3.org/2000/svg" xmlns:ev="http://www.w3.org/2001/xml-events" xmlns:xlink="http://www.w3.org/1999/xlink"><defs /><path d="M1406 -287Q1261 -287 1112.0 -254.5Q963 -222 824.0 -160.5Q685 -99 562.0 -9.5Q439 80 347 194Q319 228 301.0 259.0Q283 290 273.0 321.5Q263 353 259.0 388.0Q255 423 255 467Q255 532 258.0 578.5Q261 625 268.0 660.0Q275 695 288.0 723.5Q301 752 321.0 782.0Q341 812 369.5 848.0Q398 884 436 935Q413 989 406.0 1043.5Q399 1098 399 1157Q399 1183 399.5 1207.5Q400 1232 400 1258Q400 1355 436.5 1440.0Q473 1525 536.5 1588.5Q600 1652 685.0 1688.5Q770 1725 867 1725Q937 1725 1003.0 1704.5Q1069 1684 1125.0 1646.5Q1181 1609 1225.5 1556.0Q1270 1503 1297 1438H1515Q1542 1503 1586.5 1556.0Q1631 1609 1687.0 1646.5Q1743 1684 1809.0 1704.5Q1875 1725 1945 1725Q2042 1725 2127.0 1688.5Q2212 1652 2275.5 1588.5Q2339 1525 2375.5 1440.0Q2412 1355 2412 1258V1114Q2412 1020 2376 935Q2408 893 2440.0 852.5Q2472 812 2498.0 769.0Q2524 726 2540.0 678.5Q2556 631 2556 575V431Q2556 364 2531.5 302.0Q2507 240 2463 189Q2365 76 2244.0 -12.5Q2123 -101 1986.5 -162.0Q1850 -223 1702.5 -255.0Q1555 -287 1406 -287Z" style="fill:#000000;stroke:none" transform="scale(1,-1) translate(0,-256)" /></svg>