<?xml version="1.0" encoding="utf-8" ?>
<svg baseProfile="full" height="256" version="1.1" width="256" xmlns="http://www.w3.org/2000/svg" xmlns:ev="http://www.w3.org/2001/xml-events" xmlns:xlink="http://www.w3.org/1999/xlink"><defs /><path d="M1945 1366Q1967 1366 1987.0 1357.5Q2007 1349 2021.5 1334.5Q2036 1320 2044.5 1300.0Q2053 1280 2053 1258V1114Q2053 1092 2044.5 1072.5Q2036 1053 2021.0 1038.0Q2006 1023 1986.5 1014.5Q1967 1006 1945 1006Q1923 1006 1903.5 1014.5Q1884 1023 1869.0 1038.0Q1854 1053 1845.5 1072.5Q1837 1092 1837 1114V1258Q1837 1280 1845.5 1300.0Q1854 1320 1868.5 1334.5Q1883 1349 1902.5 1357.5Q1922 1366 1945 1366ZM1622 791Q1651 791 1672.0 769.5Q1693 748 1693 719V647Q1693 618 1672.0 596.5Q1651 575 1622 575Q1592 575 1571.0 596.0Q1550 617 1550 647V719Q1550 749 1571.0 770.0Q1592 791 1622 791ZM867 1366Q889 1366 908.5 1357.5Q928 1349 943.0 1334.0Q958 1319 966.5 1299.5Q975 1280 975 1258V1114Q975 1092 966.5 1072.5Q958 1053 943.0 1038.0Q928 1023 908.5 1014.5Q889 1006 867 1006Q845 1006 825.5 1014.5Q806 1023 791.0 1038.0Q776 1053 767.5 1072.5Q759 1092 759 1114V1258Q759 1280 767.5 1300.0Q776 1320 790.5 1334.5Q805 1349 824.5 1357.5Q844 1366 867 1366ZM1190 791Q1220 791 1241.0 770.0Q1262 749 1262 719V647Q1262 617 1241.0 596.0Q1220 575 1190 575Q1161 575 1139.5 596.5Q1118 618 1118 647V719Q1118 748 1139.5 769.5Q1161 791 1190 791Z" style="fill:#000000;stroke:none" transform="scale(1,-1) translate(0,-256)" /></svg>