<?xml version="1.0" encoding="utf-8" ?>
<svg baseProfile="full" height="256" version="1.1" width="256" xmlns="http://www.w3.org/2000/svg" xmlns:ev="http://www.w3.org/2001/xml-events" xmlns:xlink="http://www.w3.org/1999/xlink"><defs /><path d="M2412 575V431Q2412 385 2395.0 348.5Q2378 312 2348 278Q2259 177 2151.0 98.5Q2043 20 1922.0 -34.0Q1801 -88 1670.5 -116.0Q1540 -144 1406 -144Q1272 -144 1141.5 -116.0Q1011 -88 890.0 -34.0Q769 20 660.5 98.5Q552 177 464 278Q435 312 417.5 348.5Q400 385 400 431V575H579Q621 575 652.0 559.5Q683 544 712 515L956 268Q1007 216 1083 216H1729Q1805 216 1856 268L2100 515Q2129 544 2160.0 559.5Q2191 575 2233 575ZM1262 863Q1232 863 1211.0 884.0Q1190 905 1190 935V1294H1334V935Q1334 905 1313.0 884.0Q1292 863 1262 863ZM1550 863Q1520 863 1499.0 884.0Q1478 905 1478 935V1294H1622V935Q1622 906 1600.5 884.5Q1579 863 1550 863Z" style="fill:#bad80a;stroke:none" transform="scale(1,-1) translate(0,-256)" /></svg>