<?xml version="1.0" encoding="utf-8" ?>
<svg baseProfile="full" height="256" version="1.1" width="256" xmlns="http://www.w3.org/2000/svg" xmlns:ev="http://www.w3.org/2001/xml-events" xmlns:xlink="http://www.w3.org/1999/xlink"><defs /><path d="M2205 923 2374 697Q2394 670 2403.0 639.0Q2412 608 2412 575Q2389 546 2366.5 515.0Q2344 484 2318 458Q2309 450 2300.5 443.5Q2292 437 2282 430L2278 427Q2247 404 2219.0 377.5Q2191 351 2165 323Q2109 265 2061.5 224.5Q2014 184 1967.5 156.5Q1921 129 1874.5 112.5Q1828 96 1774.5 87.5Q1721 79 1658.5 76.5Q1596 74 1519 74H1401Q1280 74 1170.5 80.5Q1061 87 959.5 115.5Q858 144 762.5 202.0Q667 260 575 362Q556 383 540.0 405.5Q524 428 506 449L400 575Q400 605 409.0 638.5Q418 672 437 697L607 923Q566 978 554.0 1034.0Q542 1090 542 1157Q542 1183 542.5 1207.5Q543 1232 543 1258Q543 1325 568.5 1383.5Q594 1442 638.0 1486.0Q682 1530 741.0 1555.5Q800 1581 867 1581Q928 1581 983.5 1559.0Q1039 1537 1081.5 1498.5Q1124 1460 1152.0 1407.5Q1180 1355 1187 1294Q1191 1283 1198.0 1268.0Q1205 1253 1214.5 1239.5Q1224 1226 1235.5 1217.0Q1247 1208 1261 1208Q1274 1208 1286.0 1217.5Q1298 1227 1307.5 1240.5Q1317 1254 1324.0 1268.5Q1331 1283 1334 1294H1478Q1481 1281 1487.0 1267.5Q1493 1254 1502.0 1242.5Q1511 1231 1523.0 1223.5Q1535 1216 1550 1216Q1565 1216 1576.5 1223.5Q1588 1231 1597.0 1242.5Q1606 1254 1612.0 1268.0Q1618 1282 1621 1294H1625Q1632 1355 1659.5 1407.5Q1687 1460 1730.0 1498.5Q1773 1537 1828.0 1559.0Q1883 1581 1945 1581Q2012 1581 2070.5 1555.5Q2129 1530 2173.0 1486.0Q2217 1442 2242.5 1383.5Q2268 1325 2268 1258Q2268 1232 2268.5 1207.5Q2269 1183 2269 1157Q2269 1091 2257.0 1034.0Q2245 977 2205 923Z" style="fill:#73aa24;stroke:none" transform="scale(1,-1) translate(0,-256)" /></svg>