<?xml version="1.0" encoding="utf-8" ?>
<svg baseProfile="full" height="256" version="1.1" width="256" xmlns="http://www.w3.org/2000/svg" xmlns:ev="http://www.w3.org/2001/xml-events" xmlns:xlink="http://www.w3.org/1999/xlink"><defs /><path d="M1945 1438Q1982 1438 2015.0 1424.0Q2048 1410 2072.5 1385.5Q2097 1361 2111.0 1328.0Q2125 1295 2125 1258V1114Q2125 1077 2111.0 1044.5Q2097 1012 2072.5 987.5Q2048 963 2015.0 949.0Q1982 935 1945 935Q1908 935 1875.0 949.0Q1842 963 1817.5 987.5Q1793 1012 1779.0 1044.5Q1765 1077 1765 1114V1258Q1765 1295 1779.0 1328.0Q1793 1361 1817.5 1385.5Q1842 1410 1874.5 1424.0Q1907 1438 1945 1438ZM867 1438Q904 1438 937.0 1424.0Q970 1410 994.5 1385.5Q1019 1361 1033.0 1328.0Q1047 1295 1047 1258V1114Q1047 1077 1033.0 1044.5Q1019 1012 994.5 987.5Q970 963 937.0 949.0Q904 935 867 935Q830 935 797.0 949.0Q764 963 739.5 987.5Q715 1012 701.0 1044.5Q687 1077 687 1114V1258Q687 1295 701.0 1328.0Q715 1361 739.5 1385.5Q764 1410 796.5 1424.0Q829 1438 867 1438Z" style="fill:#ffb900;stroke:none" transform="scale(1,-1) translate(0,-256)" /></svg>