<?xml version="1.0" encoding="utf-8" ?>
<svg baseProfile="full" height="256" version="1.1" width="256" xmlns="http://www.w3.org/2000/svg" xmlns:ev="http://www.w3.org/2001/xml-events" xmlns:xlink="http://www.w3.org/1999/xlink"><defs /><path d="M1567 1006 1854 431V0Q1854 -29 1832.5 -50.5Q1811 -72 1782 -72Q1753 -72 1731.5 -50.5Q1710 -29 1710 0V324Q1710 338 1699.0 349.0Q1688 360 1674 360Q1660 360 1649.5 349.0Q1639 338 1639 324V-287H1495V611Q1495 626 1484.5 636.5Q1474 647 1459 647Q1444 647 1433.5 636.5Q1423 626 1423 611V144Q1423 114 1402.0 93.0Q1381 72 1351 72Q1321 72 1300.0 93.0Q1279 114 1279 144V467Q1279 482 1268.5 492.5Q1258 503 1243 503Q1229 503 1221.0 496.0Q1213 489 1209.5 478.5Q1206 468 1205.0 455.5Q1204 443 1204 433Q1204 405 1206.5 378.0Q1209 351 1209 323Q1209 303 1206.5 284.0Q1204 265 1196.5 250.0Q1189 235 1174.0 225.5Q1159 216 1135 216Q1106 216 1085.0 237.5Q1064 259 1064 288V590Q1064 600 1063.0 610.0Q1062 620 1058.5 628.0Q1055 636 1047.5 641.5Q1040 647 1028 647Q1014 647 1006.0 640.0Q998 633 994.5 622.5Q991 612 990.0 599.5Q989 587 989 577Q989 549 991.5 522.0Q994 495 994 467Q994 447 991.5 428.0Q989 409 981.5 394.0Q974 379 959.0 369.5Q944 360 920 360Q891 360 869.5 381.0Q848 402 848 431L1135 1006H1207Q1207 1036 1228.0 1057.0Q1249 1078 1279 1078Q1309 1078 1330.0 1057.0Q1351 1036 1351 1006H1423Q1423 1021 1433.5 1031.5Q1444 1042 1459 1042Q1474 1042 1484.5 1031.5Q1495 1021 1495 1006ZM992 1006Q963 1006 941.5 1027.5Q920 1049 920 1078Q920 1108 941.0 1129.0Q962 1150 992 1150Q1021 1150 1042.5 1128.5Q1064 1107 1064 1078V1006ZM956 863Q941 863 930.5 873.5Q920 884 920 899Q920 913 931.0 924.0Q942 935 956 935H992V899Q992 884 981.5 873.5Q971 863 956 863ZM1710 1114Q1710 1099 1699.5 1088.5Q1689 1078 1674 1078H1639V1114Q1639 1128 1649.5 1139.0Q1660 1150 1674 1150Q1689 1150 1699.5 1139.5Q1710 1129 1710 1114Z" style="fill:#e81224;stroke:none" transform="scale(1,-1) translate(0,-256)" /></svg>