<?xml version="1.0" encoding="utf-8" ?>
<svg baseProfile="full" height="256" version="1.1" width="256" xmlns="http://www.w3.org/2000/svg" xmlns:ev="http://www.w3.org/2001/xml-events" xmlns:xlink="http://www.w3.org/1999/xlink"><defs /><path d="M1567 1581Q1612 1581 1651.0 1564.0Q1690 1547 1719.0 1518.0Q1748 1489 1765.0 1450.0Q1782 1411 1782 1366Q1782 1321 1765.0 1282.0Q1748 1243 1719.0 1213.5Q1690 1184 1651.0 1167.0Q1612 1150 1567 1150Q1537 1150 1516.0 1129.0Q1495 1108 1495 1078Q1495 1049 1516.5 1027.5Q1538 1006 1567 1006Q1553 979 1527.5 960.5Q1502 942 1471.5 930.5Q1441 919 1409.0 913.5Q1377 908 1349 908Q1322 908 1289.5 913.5Q1257 919 1227.0 930.5Q1197 942 1172.5 960.5Q1148 979 1135 1006Q1164 1006 1185.5 1027.5Q1207 1049 1207 1078Q1207 1108 1186.0 1129.0Q1165 1150 1135 1150Q1090 1150 1051.0 1167.0Q1012 1184 983.0 1213.5Q954 1243 937.0 1282.0Q920 1321 920 1366Q920 1411 937.0 1450.0Q954 1489 983.0 1518.0Q1012 1547 1051.0 1564.0Q1090 1581 1135 1581Q1135 1626 1152.0 1665.0Q1169 1704 1198.5 1733.5Q1228 1763 1267.0 1780.0Q1306 1797 1351 1797Q1396 1797 1435.0 1780.0Q1474 1763 1503.5 1733.5Q1533 1704 1550.0 1665.0Q1567 1626 1567 1581Z" style="fill:#f2f2f2;stroke:none" transform="scale(1,-1) translate(0,-256)" /></svg>