<?xml version="1.0" encoding="utf-8" ?>
<svg baseProfile="full" height="256" version="1.1" width="256" xmlns="http://www.w3.org/2000/svg" xmlns:ev="http://www.w3.org/2001/xml-events" xmlns:xlink="http://www.w3.org/1999/xlink"><defs /><path d="M2645 -431H256L847 751Q812 777 794.0 816.0Q776 855 776 898Q776 919 780.5 940.0Q785 961 796 980Q772 1025 772 1078Q772 1113 782.5 1146.0Q793 1179 813 1207Q794 1244 785.0 1284.0Q776 1324 776 1366Q776 1423 793.0 1475.5Q810 1528 841.0 1572.5Q872 1617 916.0 1651.0Q960 1685 1013 1704Q1032 1757 1066.0 1801.0Q1100 1845 1144.5 1876.0Q1189 1907 1241.5 1924.0Q1294 1941 1351 1941Q1408 1941 1460.5 1924.0Q1513 1907 1557.5 1876.0Q1602 1845 1636.0 1801.0Q1670 1757 1689 1704Q1742 1685 1786.0 1651.0Q1830 1617 1861.0 1572.5Q1892 1528 1909.0 1475.5Q1926 1423 1926 1366Q1926 1305 1906.0 1247.5Q1886 1190 1848 1142Q1849 1134 1849.5 1128.0Q1850 1122 1850 1116Q1850 1063 1826.0 1020.0Q1802 977 1754 953L1842 777Q1875 789 1911 789Q1968 789 2016.0 759.5Q2064 730 2090 679Z" style="fill:#000000;stroke:none" transform="scale(1,-1) translate(0,-256)" /></svg>