<?xml version="1.0" encoding="utf-8" ?>
<svg baseProfile="full" height="256" version="1.1" width="256" xmlns="http://www.w3.org/2000/svg" xmlns:ev="http://www.w3.org/2001/xml-events" xmlns:xlink="http://www.w3.org/1999/xlink"><defs /><path d="M2349 899H2412V539Q2412 504 2394.5 475.0Q2377 446 2349 427V288Q2349 285 2349.5 282.0Q2350 279 2350 276Q2350 243 2333.5 216.0Q2317 189 2290.5 170.5Q2264 152 2232.0 142.0Q2200 132 2170 132Q2164 132 2158.0 132.0Q2152 132 2146 133Q2170 98 2170 59Q2170 24 2153.5 -3.5Q2137 -31 2111.5 -50.0Q2086 -69 2053.5 -78.5Q2021 -88 1990 -88Q1941 -88 1900 -69Q1901 -74 1901.5 -79.5Q1902 -85 1902 -90Q1902 -124 1885.5 -151.0Q1869 -178 1843.0 -197.0Q1817 -216 1785.0 -226.0Q1753 -236 1722 -236Q1682 -236 1644.5 -221.0Q1607 -206 1580 -177Q1571 -204 1553.0 -224.5Q1535 -245 1511.0 -259.0Q1487 -273 1460.0 -280.0Q1433 -287 1406 -287Q1379 -287 1352.0 -280.0Q1325 -273 1301.0 -259.0Q1277 -245 1259.0 -224.5Q1241 -204 1232 -177Q1205 -206 1167.5 -221.0Q1130 -236 1090 -236Q1059 -236 1027.0 -226.0Q995 -216 969.0 -197.0Q943 -178 926.5 -150.0Q910 -122 910 -87Q910 -82 910.0 -78.0Q910 -74 911 -69Q870 -88 821 -88Q790 -88 758.0 -78.0Q726 -68 700.5 -49.5Q675 -31 658.5 -4.0Q642 23 642 58Q642 98 666 133Q661 132 655.0 132.0Q649 132 644 132Q612 132 580.0 141.5Q548 151 522.0 169.0Q496 187 479.5 214.0Q463 241 463 276L464 288V427Q435 446 417.5 475.0Q400 504 400 539V899H463V1168H643V1366H2169V1168H2349Z" style="fill:#8e562e;stroke:none" transform="scale(1,-1) translate(0,-256)" /></svg>