<?xml version="1.0" encoding="utf-8" ?>
<svg baseProfile="full" height="256" version="1.1" width="256" xmlns="http://www.w3.org/2000/svg" xmlns:ev="http://www.w3.org/2001/xml-events" xmlns:xlink="http://www.w3.org/1999/xlink"><defs /><path d="M1197 -363Q1146 -379 1090 -379Q1048 -379 1007.0 -369.5Q966 -360 929.0 -341.0Q892 -322 860.5 -295.0Q829 -268 807 -232Q753 -230 701.5 -211.5Q650 -193 609.0 -161.0Q568 -129 539.0 -84.0Q510 -39 501 17Q460 35 426.5 62.5Q393 90 369.0 125.5Q345 161 332.0 202.0Q319 243 319 288V366Q289 402 272.5 446.5Q256 491 256 539V899Q256 947 272.5 991.5Q289 1036 319 1073V1174Q319 1214 334.0 1252.5Q349 1291 374.5 1323.5Q400 1356 433.0 1381.5Q466 1407 501 1422Q510 1477 539.0 1522.0Q568 1567 609.5 1599.0Q651 1631 702.0 1649.5Q753 1668 807 1670Q829 1706 860.5 1733.5Q892 1761 929.0 1779.5Q966 1798 1007.0 1808.0Q1048 1818 1090 1818Q1143 1818 1197 1801Q1242 1835 1295.5 1852.0Q1349 1869 1406 1869Q1463 1869 1516.5 1852.0Q1570 1835 1615 1801Q1641 1809 1667.5 1813.0Q1694 1817 1721 1817Q1763 1817 1804.0 1807.5Q1845 1798 1882.0 1779.5Q1919 1761 1950.5 1733.5Q1982 1706 2005 1670Q2059 1667 2110.0 1649.0Q2161 1631 2202.5 1598.5Q2244 1566 2273.0 1521.0Q2302 1476 2311 1421Q2347 1406 2379.5 1380.5Q2412 1355 2437.0 1322.5Q2462 1290 2477.0 1252.0Q2492 1214 2493 1174V1073Q2523 1036 2539.5 991.5Q2556 947 2556 899V539Q2556 491 2539.5 447.0Q2523 403 2493 366V288Q2493 243 2479.5 201.5Q2466 160 2442.0 125.0Q2418 90 2384.5 62.0Q2351 34 2311 16Q2302 -39 2273.0 -84.0Q2244 -129 2202.5 -161.0Q2161 -193 2110.0 -211.5Q2059 -230 2005 -232Q1982 -268 1951.0 -295.5Q1920 -323 1883.0 -341.5Q1846 -360 1805.0 -370.0Q1764 -380 1722 -380Q1668 -380 1615 -363Q1570 -397 1516.5 -414.0Q1463 -431 1406 -431Q1349 -431 1295.5 -414.0Q1242 -397 1197 -363Z" style="fill:#000000;stroke:none" transform="scale(1,-1) translate(0,-256)" /></svg>