<?xml version="1.0" encoding="utf-8" ?>
<svg baseProfile="full" height="256" version="1.1" width="256" xmlns="http://www.w3.org/2000/svg" xmlns:ev="http://www.w3.org/2001/xml-events" xmlns:xlink="http://www.w3.org/1999/xlink"><defs /><path d="M2278 756Q2309 737 2329.0 706.5Q2349 676 2349 639Q2349 603 2332.5 575.5Q2316 548 2289.5 529.5Q2263 511 2230.5 501.0Q2198 491 2166 491Q2161 491 2156.0 491.0Q2151 491 2146 492Q2157 476 2163.5 457.5Q2170 439 2170 419Q2170 384 2153.5 356.5Q2137 329 2111.5 310.0Q2086 291 2053.5 281.0Q2021 271 1990 271Q1943 271 1900 291Q1901 286 1901.5 281.0Q1902 276 1902 271Q1902 236 1885.5 208.5Q1869 181 1843.5 162.5Q1818 144 1786.0 134.0Q1754 124 1723 124Q1683 124 1645.0 138.5Q1607 153 1580 182Q1571 155 1553.0 134.5Q1535 114 1511.0 100.0Q1487 86 1460.0 79.0Q1433 72 1406 72Q1379 72 1352.0 79.0Q1325 86 1301.0 100.0Q1277 114 1259.0 134.5Q1241 155 1232 182Q1205 153 1166.5 138.5Q1128 124 1089 124Q1057 124 1025.0 134.0Q993 144 967.0 163.0Q941 182 925.0 209.0Q909 236 909 270Q909 275 909.5 280.5Q910 286 911 291Q868 271 821 271Q789 271 757.0 281.0Q725 291 699.5 310.0Q674 329 657.5 356.5Q641 384 641 419Q641 439 647.5 457.5Q654 476 665 492Q660 491 654.0 491.0Q648 491 643 491Q611 491 579.0 501.0Q547 511 521.0 529.5Q495 548 478.5 575.5Q462 603 462 638Q462 675 482.0 705.5Q502 736 533 756Q507 762 483.0 774.5Q459 787 440.5 805.0Q422 823 411.0 847.0Q400 871 400 899Q400 927 411.0 950.5Q422 974 441.0 992.5Q460 1011 483.5 1023.5Q507 1036 533 1042Q502 1061 482.0 1091.5Q462 1122 462 1159Q462 1194 478.5 1221.5Q495 1249 521.0 1267.5Q547 1286 579.5 1296.0Q612 1306 644 1306Q649 1306 654.5 1306.0Q660 1306 665 1305Q641 1340 641 1379Q641 1414 657.5 1441.5Q674 1469 699.5 1487.5Q725 1506 757.0 1516.0Q789 1526 821 1526Q870 1526 911 1507Q910 1512 910.0 1516.0Q910 1520 910 1525Q910 1560 926.5 1587.5Q943 1615 968.5 1634.5Q994 1654 1026.0 1664.0Q1058 1674 1089 1674Q1129 1674 1167.0 1659.0Q1205 1644 1232 1615Q1241 1642 1259.0 1663.0Q1277 1684 1300.5 1697.5Q1324 1711 1351.5 1718.0Q1379 1725 1406 1725Q1433 1725 1460.0 1718.0Q1487 1711 1511.0 1697.0Q1535 1683 1553.0 1662.5Q1571 1642 1580 1615Q1607 1644 1645.0 1659.0Q1683 1674 1722 1674Q1753 1674 1785.0 1663.5Q1817 1653 1843.0 1634.0Q1869 1615 1885.5 1588.0Q1902 1561 1902 1528Q1902 1523 1901.5 1517.5Q1901 1512 1900 1507Q1941 1526 1990 1526Q2021 1526 2053.5 1516.0Q2086 1506 2111.5 1487.5Q2137 1469 2153.5 1441.5Q2170 1414 2170 1379Q2170 1340 2146 1305Q2152 1306 2158.0 1306.0Q2164 1306 2170 1306Q2201 1306 2233.0 1296.0Q2265 1286 2291.0 1267.0Q2317 1248 2333.0 1220.5Q2349 1193 2349 1158Q2349 1121 2329.0 1091.0Q2309 1061 2278 1042Q2303 1036 2327.5 1023.5Q2352 1011 2370.5 992.5Q2389 974 2400.5 950.5Q2412 927 2412 899Q2412 871 2401.0 847.0Q2390 823 2371.0 805.0Q2352 787 2328.0 774.5Q2304 762 2278 756Z" style="fill:#d48c00;stroke:none" transform="scale(1,-1) translate(0,-256)" /></svg>