<?xml version="1.0" encoding="utf-8" ?>
<svg baseProfile="full" height="256" version="1.1" width="256" xmlns="http://www.w3.org/2000/svg" xmlns:ev="http://www.w3.org/2001/xml-events" xmlns:xlink="http://www.w3.org/1999/xlink"><defs /><path d="M1907 935Q1908 926 1908.5 917.0Q1909 908 1909 899Q1909 890 1908.5 881.0Q1908 872 1907 863H2197L2192 822Q2180 726 2142.5 644.0Q2105 562 2048.0 495.0Q1991 428 1917.5 376.0Q1844 324 1760.5 288.5Q1677 253 1587.0 234.5Q1497 216 1406 216Q1315 216 1225.0 234.5Q1135 253 1052.0 288.5Q969 324 896.0 376.0Q823 428 766.0 495.0Q709 562 671.0 644.5Q633 727 620 822L615 863H905Q903 872 903.0 880.5Q903 889 903 898Q903 907 903.5 916.5Q904 926 905 935H615L620 975Q633 1071 671.0 1153.0Q709 1235 766.0 1302.5Q823 1370 896.0 1422.0Q969 1474 1052.0 1509.0Q1135 1544 1225.0 1562.5Q1315 1581 1406 1581Q1497 1581 1587.0 1562.5Q1677 1544 1760.0 1508.5Q1843 1473 1916.0 1421.0Q1989 1369 2046.0 1302.0Q2103 1235 2141.0 1152.5Q2179 1070 2192 975L2197 935ZM1406 1510Q1290 1510 1174.0 1476.5Q1058 1443 960.5 1379.0Q863 1315 793.0 1221.0Q723 1127 698 1006H1262V1350Q1163 1330 1074.0 1280.0Q985 1230 922 1150H1118V1170Q1118 1179 1119.0 1188.5Q1120 1198 1123.5 1205.5Q1127 1213 1134.5 1217.5Q1142 1222 1154 1222Q1169 1222 1179.5 1211.5Q1190 1201 1190 1186V1078H792L823 1132Q865 1204 920.0 1256.0Q975 1308 1041.0 1344.0Q1107 1380 1181.0 1402.0Q1255 1424 1334 1435V1290Q1352 1292 1370.0 1293.0Q1388 1294 1406 1294Q1424 1294 1442.0 1293.0Q1460 1292 1478 1290V1435Q1557 1424 1631.0 1402.0Q1705 1380 1770.5 1344.0Q1836 1308 1891.0 1256.0Q1946 1204 1988 1132L2019 1078H1621V1186Q1621 1200 1632.0 1211.0Q1643 1222 1657 1222Q1669 1222 1676.5 1217.5Q1684 1213 1687.5 1205.5Q1691 1198 1692.0 1188.5Q1693 1179 1693 1170V1150H1889Q1826 1230 1737.5 1280.0Q1649 1330 1550 1350V1006H2114Q2088 1127 2018.0 1220.5Q1948 1314 1850.5 1378.5Q1753 1443 1637.5 1476.5Q1522 1510 1406 1510ZM1406 288Q1522 288 1637.5 321.5Q1753 355 1850.5 419.0Q1948 483 2018.0 576.5Q2088 670 2114 791H1550V447Q1649 467 1737.5 517.0Q1826 567 1889 647H1693V627Q1693 618 1692.0 608.5Q1691 599 1687.5 591.5Q1684 584 1676.5 579.5Q1669 575 1657 575Q1643 575 1632.0 586.0Q1621 597 1621 611V719H2019L1988 665Q1946 593 1891.0 541.0Q1836 489 1770.5 453.0Q1705 417 1631.0 395.5Q1557 374 1478 363V507Q1460 505 1442.0 504.0Q1424 503 1406 503Q1388 503 1370.0 504.0Q1352 505 1334 507V363Q1255 374 1181.0 395.5Q1107 417 1041.5 453.0Q976 489 920.5 541.0Q865 593 823 665L792 719H1190V611Q1190 596 1179.5 585.5Q1169 575 1154 575Q1142 575 1134.5 579.5Q1127 584 1123.5 591.5Q1120 599 1119.0 608.5Q1118 618 1118 627V647H922Q985 567 1074.0 517.0Q1163 467 1262 447V791H698Q723 670 793.0 576.0Q863 482 960.5 418.0Q1058 354 1174.0 321.0Q1290 288 1406 288ZM977 935Q976 926 975.5 917.0Q975 908 975 898Q975 889 975.0 880.5Q975 872 977 863H1334V580Q1352 578 1370.0 576.5Q1388 575 1406 575Q1424 575 1442.0 576.5Q1460 578 1478 580V863H1834Q1837 881 1837 899Q1837 917 1834 935H1478V1218Q1460 1220 1442.0 1221.0Q1424 1222 1406 1222Q1388 1222 1370.0 1221.0Q1352 1220 1334 1218V935Z" style="fill:#ffc83d;stroke:none" transform="scale(1,-1) translate(0,-256)" /></svg>