<?xml version="1.0" encoding="utf-8" ?>
<svg baseProfile="full" height="256" version="1.1" width="256" xmlns="http://www.w3.org/2000/svg" xmlns:ev="http://www.w3.org/2001/xml-events" xmlns:xlink="http://www.w3.org/1999/xlink"><defs /><path d="M1981 935Q2011 935 2037.0 923.5Q2063 912 2082.5 892.5Q2102 873 2113.5 847.0Q2125 821 2125 791V216Q2125 186 2104.0 165.0Q2083 144 2053 144H1478V288H1981V431H1478ZM1118 431Q1089 431 1068.0 452.5Q1047 474 1047 503Q1047 533 1068 554L1427 914Q1448 935 1478 935H1783L1478 629V761L1169 453Q1147 431 1118 431ZM759 719H831V288H1262V216Q1262 186 1241.0 165.0Q1220 144 1190 144H903Q878 144 864.0 153.5Q850 163 842.5 178.0Q835 193 833.0 212.0Q831 231 831 250V288H793Q774 288 755.0 290.0Q736 292 721.0 299.5Q706 307 696.5 321.0Q687 335 687 360V647Q687 677 708.0 698.0Q729 719 759 719ZM1909 1366V1222H1478V1294H1550V1438ZM1729 971Q1692 971 1659.5 985.0Q1627 999 1602.5 1023.5Q1578 1048 1564.0 1080.5Q1550 1113 1550 1150H1909Q1909 1113 1895.0 1080.5Q1881 1048 1856.5 1023.5Q1832 999 1799.0 985.0Q1766 971 1729 971Z" style="fill:#ffffff;stroke:none" transform="scale(1,-1) translate(0,-256)" /></svg>