<?xml version="1.0" encoding="utf-8" ?>
<svg baseProfile="full" height="256" version="1.1" width="256" xmlns="http://www.w3.org/2000/svg" xmlns:ev="http://www.w3.org/2001/xml-events" xmlns:xlink="http://www.w3.org/1999/xlink"><defs /><path d="M1465 481V300H1770Q1809 300 1848.0 301.5Q1887 303 1926 303Q1939 303 1939 290V194Q1939 181 1926 181Q1887 181 1848.0 183.0Q1809 185 1770 185H1038Q999 185 960.0 183.0Q921 181 882 181Q868 181 868 194V290Q868 303 882 303Q921 303 960.0 301.5Q999 300 1038 300H1329V481H1178Q1136 481 1094.5 479.5Q1053 478 1011 478Q1005 478 1000.5 480.5Q996 483 996 490V586Q996 599 1011 599Q1053 599 1094.5 597.5Q1136 596 1178 596H1635Q1677 596 1718.5 597.5Q1760 599 1802 599Q1816 599 1816 586V490Q1816 478 1802 478Q1760 478 1718.5 479.5Q1677 481 1635 481ZM1329 1129V1178Q1329 1199 1327.0 1219.5Q1325 1240 1319 1260Q1328 1260 1354.0 1259.5Q1380 1259 1408.0 1256.5Q1436 1254 1458.0 1248.0Q1480 1242 1480 1232Q1480 1215 1472.5 1196.5Q1465 1178 1465 1158V1129H1743Q1784 1129 1824.5 1131.0Q1865 1133 1906 1133Q1919 1133 1919 1118Q1919 1104 1917.5 1090.5Q1916 1077 1916 1063V1016Q1916 986 1917.5 955.5Q1919 925 1919 895Q1919 881 1906 881H1804Q1791 881 1791 895V1019H1015V875Q1015 859 1002 859H901Q887 859 887 875Q887 907 888.5 940.0Q890 973 890 1005V1048Q890 1065 888.5 1083.0Q887 1101 887 1118Q887 1133 901 1133Q942 1133 981.5 1131.0Q1021 1129 1062 1129ZM1750 880Q1770 869 1791.5 860.5Q1813 852 1836 846Q1845 844 1857.0 840.0Q1869 836 1869 824Q1869 819 1868.5 815.5Q1868 812 1867 807Q1858 756 1841.0 727.5Q1824 699 1798.5 685.5Q1773 672 1739.0 669.0Q1705 666 1662 666H1643Q1575 666 1534.0 672.5Q1493 679 1471.0 692.5Q1449 706 1442.5 727.0Q1436 748 1436 777Q1436 800 1438.0 826.0Q1440 852 1440 884Q1440 907 1438.0 933.0Q1436 959 1431 988Q1439 988 1462.5 987.0Q1486 986 1511.5 983.0Q1537 980 1557.0 974.5Q1577 969 1577 960Q1577 943 1571.0 927.0Q1565 911 1565 893V816Q1565 787 1579.5 779.5Q1594 772 1614 772Q1623 772 1632.5 772.5Q1642 773 1651 773Q1684 773 1703.5 777.5Q1723 782 1733.5 793.5Q1744 805 1747.0 826.0Q1750 847 1750 880ZM1207 996Q1216 993 1239.0 986.0Q1262 979 1287.0 970.0Q1312 961 1331.0 951.0Q1350 941 1350 932Q1350 923 1344.5 918.5Q1339 914 1334 908Q1326 900 1320.5 883.5Q1315 867 1310 856Q1289 806 1258.0 769.0Q1227 732 1189.0 705.0Q1151 678 1105.5 659.0Q1060 640 1011 625Q1005 623 1000.0 622.0Q995 621 988 621Q983 621 970.0 635.5Q957 650 943.0 668.5Q929 687 915.5 704.5Q902 722 896 728Q956 737 1011.0 754.0Q1066 771 1108.5 802.0Q1151 833 1177.5 880.0Q1204 927 1207 996Z" style="fill:#ffffff;stroke:none" transform="scale(1,-1) translate(0,-256)" /></svg>