<?xml version="1.0" encoding="utf-8" ?>
<svg baseProfile="full" height="256" version="1.1" width="256" xmlns="http://www.w3.org/2000/svg" xmlns:ev="http://www.w3.org/2001/xml-events" xmlns:xlink="http://www.w3.org/1999/xlink"><defs /><path d="M1015 1326Q986 1278 937.0 1250.0Q888 1222 831 1222Q786 1222 747.0 1239.0Q708 1256 678.5 1285.5Q649 1315 632.0 1354.0Q615 1393 615 1438V1510L945 1601Q953 1574 965.0 1537.5Q977 1501 988.0 1463.0Q999 1425 1007.0 1389.0Q1015 1353 1015 1326ZM1047 1006V791Q1047 770 1034 751L891 535Q881 521 864.5 512.0Q848 503 831 503Q801 503 780.0 524.0Q759 545 759 575Q759 597 771 615L903 813V1006Z" style="fill:#ffc83d;stroke:none" transform="scale(1,-1) translate(0,-256)" /></svg>