<?xml version="1.0" encoding="utf-8" ?>
<svg baseProfile="full" height="256" version="1.1" width="256" xmlns="http://www.w3.org/2000/svg" xmlns:ev="http://www.w3.org/2001/xml-events" xmlns:xlink="http://www.w3.org/1999/xlink"><defs /><path d="M831 1725Q876 1725 915.0 1708.0Q954 1691 983.5 1662.0Q1013 1633 1030.0 1594.0Q1047 1555 1047 1510V1437Q1047 1408 1038.5 1379.5Q1030 1351 1015 1326L964 1376Q972 1384 973.5 1393.5Q975 1403 975 1413V1417Q975 1427 974.5 1437.0Q974 1447 970.5 1455.5Q967 1464 959.5 1469.0Q952 1474 939 1474Q924 1474 913.5 1463.5Q903 1453 903 1438L831 1510H615Q615 1554 632.5 1593.0Q650 1632 679.5 1661.5Q709 1691 748.0 1708.0Q787 1725 831 1725Z" style="fill:#8e562e;stroke:none" transform="scale(1,-1) translate(0,-256)" /></svg>