<?xml version="1.0" encoding="utf-8" ?>
<svg baseProfile="full" height="256" version="1.1" width="256" xmlns="http://www.w3.org/2000/svg" xmlns:ev="http://www.w3.org/2001/xml-events" xmlns:xlink="http://www.w3.org/1999/xlink"><defs /><path d="M1262 268Q1342 185 1425.0 106.5Q1508 28 1593 -50L1339 -431H975Q975 -406 974.5 -381.5Q974 -357 974 -332Q974 -272 985.0 -219.0Q996 -166 1032 -116L831 89V-431H256V-287Q256 -209 294.5 -143.0Q333 -77 400 -38V321Q400 356 409.0 383.5Q418 411 436 440L543 616V1006Q543 1095 594 1169Q558 1201 534.0 1236.0Q510 1271 496.5 1309.0Q483 1347 477.5 1389.5Q472 1432 472 1479Q472 1521 475.5 1555.0Q479 1589 493 1629Q512 1683 546.0 1727.0Q580 1771 624.5 1802.5Q669 1834 721.5 1851.5Q774 1869 831 1869Q905 1869 970.5 1840.5Q1036 1812 1084.5 1763.5Q1133 1715 1161.5 1649.5Q1190 1584 1190 1510V1482Q1190 1447 1188.5 1417.5Q1187 1388 1181.0 1359.5Q1175 1331 1164.0 1303.5Q1153 1276 1134 1246Q1194 1205 1228.0 1141.5Q1262 1078 1262 1006Z" style="fill:#000000;stroke:none" transform="scale(1,-1) translate(0,-256)" /></svg>