<?xml version="1.0" encoding="utf-8" ?>
<svg baseProfile="full" height="256" version="1.1" width="256" xmlns="http://www.w3.org/2000/svg" xmlns:ev="http://www.w3.org/2001/xml-events" xmlns:xlink="http://www.w3.org/1999/xlink"><defs /><path d="M1294 32Q1296 22 1296 17Q1296 1 1289.0 -15.5Q1282 -32 1270.5 -45.5Q1259 -59 1243.5 -67.5Q1228 -76 1211 -76Q1207 -76 1199.5 -75.0Q1192 -74 1190 -72L924 200Q908 216 904.5 238.0Q901 260 901 281Q901 301 902.5 319.5Q904 338 904 358Q904 371 902.5 384.0Q901 397 896.0 407.5Q891 418 881.0 424.5Q871 431 855 431Q848 431 836.5 427.0Q825 423 821 418L687 216V-72Q676 -92 655.0 -102.0Q634 -112 612 -112Q592 -112 571.5 -102.0Q551 -92 543 -72V321Q543 332 546.5 341.5Q550 351 555 360Q587 415 619.5 468.5Q652 522 687 575Q696 589 707.0 601.0Q718 613 729 625H1095L1118 575V208Z" style="fill:#0078d7;stroke:none" transform="scale(1,-1) translate(0,-256)" /></svg>