<?xml version="1.0" encoding="utf-8" ?>
<svg baseProfile="full" height="256" version="1.1" width="256" xmlns="http://www.w3.org/2000/svg" xmlns:ev="http://www.w3.org/2001/xml-events" xmlns:xlink="http://www.w3.org/1999/xlink"><defs /><path d="M687 1078V1510Q746 1515 804.0 1520.5Q862 1526 922 1526H1025L1047 1510Q1048 1508 1050.0 1501.5Q1052 1495 1054.0 1488.0Q1056 1481 1058.0 1475.5Q1060 1470 1060 1469Q1060 1317 1055.5 1166.0Q1051 1015 1047 863H1622V719H1047Q973 719 907.5 747.5Q842 776 793.0 824.5Q744 873 715.5 938.5Q687 1004 687 1078Z" style="fill:#e4f577;stroke:none" transform="scale(1,-1) translate(0,-256)" /></svg>