<?xml version="1.0" encoding="utf-8" ?>
<svg baseProfile="full" height="256" version="1.1" width="256" xmlns="http://www.w3.org/2000/svg" xmlns:ev="http://www.w3.org/2001/xml-events" xmlns:xlink="http://www.w3.org/1999/xlink"><defs /><path d="M1262 -359Q1149 -359 1047.5 -317.0Q946 -275 868.5 -202.0Q791 -129 743.0 -30.5Q695 68 688 181Q665 162 636.5 153.0Q608 144 579 144Q542 144 509.5 158.0Q477 172 452.5 196.5Q428 221 414.0 253.5Q400 286 400 323Q400 345 404 362Q372 368 345.0 384.0Q318 400 298.0 423.5Q278 447 267.0 476.5Q256 506 256 539Q256 572 267.0 601.5Q278 631 298.0 654.5Q318 678 345.0 694.0Q372 710 404 716Q400 733 400 755Q400 790 412.5 821.5Q425 853 447.0 877.0Q469 901 499.5 916.0Q530 931 565 934Q550 985 546.0 1036.0Q542 1087 542 1139Q542 1164 542.5 1188.5Q543 1213 543 1238L256 1334V1510Q256 1569 278.5 1621.5Q301 1674 340.0 1713.0Q379 1752 431.5 1774.5Q484 1797 543 1797H831Q920 1797 998.5 1763.0Q1077 1729 1135.5 1670.5Q1194 1612 1228.0 1533.5Q1262 1455 1262 1366H1693Q1812 1366 1922.0 1335.0Q2032 1304 2128.0 1248.0Q2224 1192 2303.0 1113.0Q2382 1034 2438.0 938.0Q2494 842 2525.0 732.0Q2556 622 2556 503Q2556 384 2525.0 274.0Q2494 164 2438.0 68.5Q2382 -27 2303.0 -106.0Q2224 -185 2128.0 -241.0Q2032 -297 1922.0 -328.0Q1812 -359 1693 -359Z" style="fill:#000000;stroke:none" transform="scale(1,-1) translate(0,-256)" /></svg>