<?xml version="1.0" encoding="utf-8" ?>
<svg baseProfile="full" height="256" version="1.1" width="256" xmlns="http://www.w3.org/2000/svg" xmlns:ev="http://www.w3.org/2001/xml-events" xmlns:xlink="http://www.w3.org/1999/xlink"><defs /><path d="M1262 1222V1006Q1262 977 1240.5 956.0Q1219 935 1190 935Q1161 935 1139.5 956.0Q1118 977 1118 1006V1360Q1119 1331 1131.0 1306.0Q1143 1281 1162.5 1262.5Q1182 1244 1207.5 1233.0Q1233 1222 1262 1222ZM1406 1006V1222H1550V1006Q1550 977 1528.5 956.0Q1507 935 1478 935Q1449 935 1427.5 956.0Q1406 977 1406 1006ZM1693 1222Q1764 1222 1837 1208V1006Q1837 977 1815.5 956.0Q1794 935 1765 935Q1736 935 1714.5 956.0Q1693 977 1693 1006Z" style="fill:#107c10;stroke:none" transform="scale(1,-1) translate(0,-256)" /></svg>