<?xml version="1.0" encoding="utf-8" ?>
<svg baseProfile="full" height="256" version="1.1" width="256" xmlns="http://www.w3.org/2000/svg" xmlns:ev="http://www.w3.org/2001/xml-events" xmlns:xlink="http://www.w3.org/1999/xlink"><defs /><path d="M1693 1222Q1713 1209 1732.5 1193.5Q1752 1178 1768 1160Q1787 1169 1804.0 1181.5Q1821 1194 1837 1208Q1963 1182 2068.5 1117.0Q2174 1052 2250.5 958.0Q2327 864 2369.5 747.5Q2412 631 2412 503Q2412 404 2386.5 312.0Q2361 220 2314.0 140.5Q2267 61 2201.5 -4.5Q2136 -70 2056.0 -117.0Q1976 -164 1884.0 -189.5Q1792 -215 1693 -215H1262Q1173 -215 1094.5 -181.0Q1016 -147 957.5 -88.5Q899 -30 865.0 48.5Q831 127 831 216V239Q831 258 837.5 273.0Q844 288 867 288Q882 288 892.5 277.5Q903 267 903 252V216Q903 157 926.0 105.0Q949 53 988.0 13.5Q1027 -26 1079.0 -49.0Q1131 -72 1190 -72H1653Q1749 -72 1835.0 -35.5Q1921 1 1985.5 64.5Q2050 128 2087.5 213.0Q2125 298 2125 395Q2125 462 2106.5 525.0Q2088 588 2053.5 642.5Q2019 697 1970.5 741.0Q1922 785 1862 815L1693 647H1837Q1867 647 1893.0 635.5Q1919 624 1938.5 604.5Q1958 585 1969.5 559.0Q1981 533 1981 503Q1981 473 1969.5 447.0Q1958 421 1938.5 401.5Q1919 382 1893.0 371.0Q1867 360 1837 360H1693V108Q1693 94 1682.5 83.0Q1672 72 1658 72Q1643 72 1632.5 82.5Q1622 93 1622 108V309L1395 83Q1384 72 1370 72Q1356 72 1345.0 83.0Q1334 94 1334 108Q1334 122 1345 133L1571 360H1298Q1283 360 1272.5 370.5Q1262 381 1262 396Q1262 410 1273.0 420.5Q1284 431 1298 431H1801Q1815 431 1826.0 442.0Q1837 453 1837 467Q1837 482 1826.5 492.5Q1816 503 1801 503H1550Q1521 503 1494.5 514.0Q1468 525 1448 545Q1428 565 1417.0 591.5Q1406 618 1406 647Q1406 676 1417.0 702.5Q1428 729 1448 749L1562 863H1190V751L954 525Q938 510 916.5 505.5Q895 501 872 501Q855 501 839.5 502.0Q824 503 810 503L605 298Q595 288 579 288Q565 288 554.0 298.5Q543 309 543 323Q543 338 554 349L708 503H436Q421 503 410.5 513.5Q400 524 400 539Q400 554 411.0 564.5Q422 575 437 575H708L554 729Q543 740 543 755Q543 769 554.0 779.5Q565 790 579 790Q595 790 605 780L784 601L975 791V1080Q975 1144 943.0 1191.5Q911 1239 860 1274Q849 1282 837.0 1288.5Q825 1295 812 1300L400 1438V1510Q400 1540 411.0 1566.0Q422 1592 441.5 1611.5Q461 1631 487.0 1642.0Q513 1653 543 1653H831Q878 1653 921.0 1638.5Q964 1624 1000.0 1598.0Q1036 1572 1062.5 1535.5Q1089 1499 1104 1454Q1122 1399 1125.0 1339.0Q1128 1279 1133 1222H1406L1484 1161L1550 1222ZM975 1366Q1004 1366 1025.5 1387.5Q1047 1409 1047 1438Q1047 1467 1025.5 1488.5Q1004 1510 975 1510Q946 1510 924.5 1488.5Q903 1467 903 1438Q903 1408 924.0 1387.0Q945 1366 975 1366Z" style="fill:#8cbd18;stroke:none" transform="scale(1,-1) translate(0,-256)" /></svg>