<?xml version="1.0" encoding="utf-8" ?>
<svg baseProfile="full" height="256" version="1.1" width="256" xmlns="http://www.w3.org/2000/svg" xmlns:ev="http://www.w3.org/2001/xml-events" xmlns:xlink="http://www.w3.org/1999/xlink"><defs /><path d="M674 1545Q735 1545 793.5 1528.5Q852 1512 902.5 1481.0Q953 1450 994.0 1405.5Q1035 1361 1062 1306L1396 637Q1442 546 1442 444Q1442 389 1428.5 336.5Q1415 284 1389.5 237.0Q1364 190 1327.0 150.0Q1290 110 1244 80Q1225 77 1206.0 75.0Q1187 73 1168 73Q1107 73 1048.0 90.0Q989 107 937 139Q940 145 940 152Q940 162 932.5 168.5Q925 175 914.5 179.0Q904 183 892.5 185.0Q881 187 874 187Q841 217 813 256Q814 262 815.5 268.0Q817 274 817 280Q817 294 802.5 303.0Q788 312 777 318L737 398L740 443L705 462L665 542L671 583L633 606L593 686L600 727L561 749L521 830L525 868L489 893L449 974Q452 983 455.0 992.5Q458 1002 458 1012Q458 1024 444.0 1031.0Q430 1038 421 1040Q400 1104 400 1174Q400 1229 413.5 1282.0Q427 1335 453.0 1382.0Q479 1429 516.0 1469.0Q553 1509 600 1539Q636 1545 674 1545Z" style="fill:#cccccc;stroke:none" transform="scale(1,-1) translate(0,-256)" /></svg>