<?xml version="1.0" encoding="utf-8" ?>
<svg baseProfile="full" height="256" version="1.1" width="256" xmlns="http://www.w3.org/2000/svg" xmlns:ev="http://www.w3.org/2001/xml-events" xmlns:xlink="http://www.w3.org/1999/xlink"><defs /><path d="M1357 64 1206 367Q1191 397 1191 432Q1191 462 1202.0 488.0Q1213 514 1232.5 533.5Q1252 553 1278.0 564.0Q1304 575 1334 575Q1375 575 1410.0 553.5Q1445 532 1463 496L1679 64Q1694 34 1694 1Q1694 -41 1672.5 -75.0Q1651 -109 1614 -128L1470 -200Q1459 -200 1444.5 -186.0Q1430 -172 1414.0 -150.5Q1398 -129 1382.0 -102.5Q1366 -76 1353.5 -51.0Q1341 -26 1333.0 -5.5Q1325 15 1325 25Q1325 42 1333.5 50.5Q1342 59 1357 64Z" style="fill:#e5e5e5;stroke:none" transform="scale(1,-1) translate(0,-256)" /></svg>