<?xml version="1.0" encoding="utf-8" ?>
<svg baseProfile="full" height="256" version="1.1" width="256" xmlns="http://www.w3.org/2000/svg" xmlns:ev="http://www.w3.org/2001/xml-events" xmlns:xlink="http://www.w3.org/1999/xlink"><defs /><path d="M1406 -215Q1365 -215 1330.5 -193.5Q1296 -172 1278 -136L1062 295Q1047 325 1047 360Q1047 390 1058.0 416.0Q1069 442 1088.5 461.5Q1108 481 1134.5 492.0Q1161 503 1191 503Q1233 503 1266.5 482.0Q1300 461 1319 424L1535 -7Q1550 -37 1550 -71Q1550 -101 1538.5 -127.0Q1527 -153 1507.5 -172.5Q1488 -192 1462.0 -203.5Q1436 -215 1406 -215Z" style="fill:#a6a6a6;stroke:none" transform="scale(1,-1) translate(0,-256)" /></svg>