<?xml version="1.0" encoding="utf-8" ?>
<svg baseProfile="full" height="256" version="1.1" width="256" xmlns="http://www.w3.org/2000/svg" xmlns:ev="http://www.w3.org/2001/xml-events" xmlns:xlink="http://www.w3.org/1999/xlink"><defs /><path d="M1778 773Q1783 762 1793.0 760.0Q1803 758 1814 758Q1819 758 1822.5 745.5Q1826 733 1828.0 717.0Q1830 701 1831.5 686.5Q1833 672 1835 668Q1830 657 1821.5 641.0Q1813 625 1813 614Q1813 606 1821.5 599.0Q1830 592 1836 588Q1831 531 1812.5 478.5Q1794 426 1763.0 380.5Q1732 335 1690.5 298.0Q1649 261 1598 236L1362 118Q1334 104 1304.0 95.5Q1274 87 1244 80L600 1539Q667 1578 737.0 1611.0Q807 1644 876 1679Q967 1725 1070 1725Q1122 1725 1173.0 1712.5Q1224 1700 1269.5 1676.0Q1315 1652 1354.5 1618.0Q1394 1584 1424 1541Q1421 1532 1416.5 1521.5Q1412 1511 1412 1501Q1412 1493 1416 1486L1460 1479L1500 1399L1492 1354L1532 1335L1572 1255L1561 1212L1604 1192L1644 1111L1633 1069L1676 1048L1716 967L1706 923L1748 904L1788 824Z" style="fill:#f2f2f2;stroke:none" transform="scale(1,-1) translate(0,-256)" /></svg>