<?xml version="1.0" encoding="utf-8" ?>
<svg baseProfile="full" height="256" version="1.1" width="256" xmlns="http://www.w3.org/2000/svg" xmlns:ev="http://www.w3.org/2001/xml-events" xmlns:xlink="http://www.w3.org/1999/xlink"><defs /><path d="M1190 -431V-262Q1190 -255 1184.5 -247.0Q1179 -239 1172.5 -230.5Q1166 -222 1159.0 -214.0Q1152 -206 1149 -200L1081 -64Q938 -42 827.5 38.0Q717 118 652 247L317 916Q256 1038 256 1173Q256 1255 278.0 1332.5Q300 1410 341.5 1477.0Q383 1544 442.0 1598.5Q501 1653 575 1690L811 1808Q933 1869 1069 1869Q1151 1869 1228.5 1846.5Q1306 1824 1372.5 1783.0Q1439 1742 1493.5 1682.5Q1548 1623 1585 1550L1920 881Q1950 821 1965.5 756.0Q1981 691 1981 624Q1981 561 1967.5 500.0Q1954 439 1928.0 382.5Q1902 326 1864.5 276.0Q1827 226 1779 185Q1803 140 1819.5 98.0Q1836 56 1836 4Q1836 -49 1817.0 -98.0Q1798 -147 1765 -189V-431Z" style="fill:#000000;stroke:none" transform="scale(1,-1) translate(0,-256)" /></svg>