<?xml version="1.0" encoding="utf-8" ?>
<svg baseProfile="full" height="256" version="1.1" width="256" xmlns="http://www.w3.org/2000/svg" xmlns:ev="http://www.w3.org/2001/xml-events" xmlns:xlink="http://www.w3.org/1999/xlink"><defs /><path d="M1769 1294Q1842 1294 1907.0 1266.0Q1972 1238 2020.0 1189.5Q2068 1141 2096.0 1076.0Q2124 1011 2124 938Q2124 868 2097.5 802.5Q2071 737 2021 687L1406 72L791 687Q740 738 713.5 802.0Q687 866 687 938Q687 1011 715.0 1076.0Q743 1141 791.5 1189.5Q840 1238 904.5 1266.0Q969 1294 1043 1294Q1102 1294 1148.5 1278.5Q1195 1263 1234.5 1237.0Q1274 1211 1309.5 1176.5Q1345 1142 1381 1104L1406 1078L1433 1107Q1469 1145 1504.0 1179.0Q1539 1213 1578.0 1238.5Q1617 1264 1663.5 1279.0Q1710 1294 1769 1294Z" style="fill:#e84757;stroke:none" transform="scale(1,-1) translate(0,-256)" /></svg>