<?xml version="1.0" encoding="utf-8" ?>
<svg baseProfile="full" height="256" version="1.1" width="256" xmlns="http://www.w3.org/2000/svg" xmlns:ev="http://www.w3.org/2001/xml-events" xmlns:xlink="http://www.w3.org/1999/xlink"><defs /><path d="M1634 1006Q1676 1006 1713.0 990.0Q1750 974 1777.5 946.5Q1805 919 1821.0 882.0Q1837 845 1837 803Q1837 762 1822.0 725.0Q1807 688 1778 659L1406 288L1034 659Q1005 688 990.0 725.0Q975 762 975 803Q975 845 991.0 882.0Q1007 919 1034.5 946.5Q1062 974 1099.0 990.0Q1136 1006 1178 1006Q1218 1006 1249.0 993.0Q1280 980 1306.0 959.5Q1332 939 1356.0 913.5Q1380 888 1406 863Q1431 888 1455.0 914.0Q1479 940 1505.5 960.0Q1532 980 1563.5 993.0Q1595 1006 1634 1006Z" style="fill:#e81224;stroke:none" transform="scale(1,-1) translate(0,-256)" /></svg>