<?xml version="1.0" encoding="utf-8" ?>
<svg baseProfile="full" height="256" version="1.1" width="256" xmlns="http://www.w3.org/2000/svg" xmlns:ev="http://www.w3.org/2001/xml-events" xmlns:xlink="http://www.w3.org/1999/xlink"><defs /><path d="M544 1725Q581 1725 602 1696L1177 905Q1191 886 1191 863Q1191 834 1169.5 812.5Q1148 791 1119 791Q1102 791 1086.0 798.5Q1070 806 1060 820L485 1611Q471 1630 471 1653Q471 1683 492.5 1704.0Q514 1725 544 1725ZM1980 1725Q2009 1725 2031.0 1704.0Q2053 1683 2053 1653Q2053 1630 2039 1611L1464 820Q1443 791 1406 791Q1377 791 1355.5 812.5Q1334 834 1334 863Q1334 886 1348 905L1923 1696Q1944 1725 1980 1725Z" style="fill:#eba300;stroke:none" transform="scale(1,-1) translate(0,-256)" /></svg>