<?xml version="1.0" encoding="utf-8" ?>
<svg baseProfile="full" height="256" version="1.1" width="256" xmlns="http://www.w3.org/2000/svg" xmlns:ev="http://www.w3.org/2001/xml-events" xmlns:xlink="http://www.w3.org/1999/xlink"><defs /><path d="M903 360H1047V72Q1047 43 1025.5 21.5Q1004 0 975 0Q945 0 924.0 21.0Q903 42 903 72ZM1478 360H1622V72Q1622 43 1600.5 21.5Q1579 0 1550 0Q1520 0 1499.0 21.0Q1478 42 1478 72ZM2053 719V431Q2053 402 2031.5 381.0Q2010 360 1981 360Q1952 360 1930.5 381.0Q1909 402 1909 431V647ZM472 719 615 647V431Q615 402 594.0 381.0Q573 360 544 360Q515 360 493.5 381.0Q472 402 472 431Z" style="fill:#f2f2f2;stroke:none" transform="scale(1,-1) translate(0,-256)" /></svg>