<?xml version="1.0" encoding="utf-8" ?>
<svg baseProfile="full" height="256" version="1.1" width="256" xmlns="http://www.w3.org/2000/svg" xmlns:ev="http://www.w3.org/2001/xml-events" xmlns:xlink="http://www.w3.org/1999/xlink"><defs /><path d="M1406 1725Q1505 1725 1597.0 1699.5Q1689 1674 1769.0 1627.0Q1849 1580 1914.5 1514.5Q1980 1449 2027.0 1369.0Q2074 1289 2099.5 1197.0Q2125 1105 2125 1006Q2125 907 2099.0 815.5Q2073 724 2026.5 644.0Q1980 564 1914.0 498.5Q1848 433 1768.5 386.0Q1689 339 1597.0 313.5Q1505 288 1406 288H1118Q1019 288 927.5 313.5Q836 339 756.0 386.0Q676 433 610.5 498.5Q545 564 498.0 644.0Q451 724 425.5 815.5Q400 907 400 1006Q400 1105 425.5 1197.0Q451 1289 498.0 1369.0Q545 1449 610.5 1514.5Q676 1580 755.5 1627.0Q835 1674 927.0 1699.5Q1019 1725 1118 1725Z" style="fill:#cccccc;stroke:none" transform="scale(1,-1) translate(0,-256)" /></svg>