<?xml version="1.0" encoding="utf-8" ?>
<svg baseProfile="full" height="256" version="1.1" width="256" xmlns="http://www.w3.org/2000/svg" xmlns:ev="http://www.w3.org/2001/xml-events" xmlns:xlink="http://www.w3.org/1999/xlink"><defs /><path d="M1118 -431Q999 -431 889.0 -400.0Q779 -369 683.5 -313.0Q588 -257 509.0 -178.0Q430 -99 374.0 -3.5Q318 92 287.0 202.0Q256 312 256 431V1006Q256 1134 292.5 1255.5Q329 1377 401 1483Q369 1522 348.0 1561.0Q327 1600 327 1653Q327 1698 344.0 1737.0Q361 1776 390.5 1805.5Q420 1835 459.0 1852.0Q498 1869 543 1869Q597 1869 645.5 1843.5Q694 1818 723 1773Q815 1821 915.0 1845.0Q1015 1869 1118 1869H1406Q1509 1869 1609.0 1845.0Q1709 1821 1801 1773Q1837 1818 1879.0 1843.5Q1921 1869 1981 1869Q2026 1869 2065.0 1852.0Q2104 1835 2133.5 1805.5Q2163 1776 2180.0 1737.0Q2197 1698 2197 1653Q2197 1627 2191.0 1604.5Q2185 1582 2175.0 1562.0Q2165 1542 2152.0 1522.5Q2139 1503 2124 1483Q2196 1377 2232.0 1255.5Q2268 1134 2268 1006V431Q2268 312 2237.0 202.0Q2206 92 2150.0 -3.5Q2094 -99 2015.0 -178.0Q1936 -257 1840.5 -313.0Q1745 -369 1635.0 -400.0Q1525 -431 1406 -431Z" style="fill:#000000;stroke:none" transform="scale(1,-1) translate(0,-256)" /></svg>