<?xml version="1.0" encoding="utf-8" ?>
<svg baseProfile="full" height="256" version="1.1" width="256" xmlns="http://www.w3.org/2000/svg" xmlns:ev="http://www.w3.org/2001/xml-events" xmlns:xlink="http://www.w3.org/1999/xlink"><defs /><path d="M1406 1581Q1524 1581 1629.0 1535.5Q1734 1490 1812.0 1412.0Q1890 1334 1935.5 1229.0Q1981 1124 1981 1006Q1981 887 1935.5 782.5Q1890 678 1812.0 600.0Q1734 522 1629.0 476.5Q1524 431 1406 431H1118Q999 431 894.5 476.5Q790 522 712.0 600.0Q634 678 588.5 782.5Q543 887 543 1006Q543 1124 588.5 1229.0Q634 1334 712.0 1412.0Q790 1490 894.5 1535.5Q999 1581 1118 1581Z" style="fill:#ffffff;stroke:none" transform="scale(1,-1) translate(0,-256)" /></svg>