<?xml version="1.0" encoding="utf-8" ?>
<svg baseProfile="full" height="256" version="1.1" width="256" xmlns="http://www.w3.org/2000/svg" xmlns:ev="http://www.w3.org/2001/xml-events" xmlns:xlink="http://www.w3.org/1999/xlink"><defs /><path d="M759 72V216H903V72ZM1334 72V216H1478V72ZM1334 1222V1366H1478V1222ZM1909 72V216H2053V72ZM759 1222V1366H903V1222ZM1909 1222V1366H2053V1222ZM2197 72V216H2340V72ZM472 1222V1366H615V1222ZM472 72V216H615V72ZM1047 72V216H1190V72ZM1047 1222V1366H1190V1222ZM1622 1222V1366H1765V1222ZM1622 72V216H1765V72ZM2197 1366H2340V1222H2197Z" style="fill:#ffffff;stroke:none" transform="scale(1,-1) translate(0,-256)" /></svg>