<?xml version="1.0" encoding="utf-8" ?>
<svg baseProfile="full" height="256" version="1.1" width="256" xmlns="http://www.w3.org/2000/svg" xmlns:ev="http://www.w3.org/2001/xml-events" xmlns:xlink="http://www.w3.org/1999/xlink"><defs /><path d="M1190 1078Q1220 1078 1246.0 1067.0Q1272 1056 1291.5 1036.5Q1311 1017 1322.5 991.0Q1334 965 1334 935V503Q1334 473 1322.5 447.0Q1311 421 1291.5 401.5Q1272 382 1246.0 371.0Q1220 360 1190 360H543Q513 360 487.0 371.0Q461 382 441.5 401.5Q422 421 411.0 447.0Q400 473 400 503V935Q400 965 411.0 991.0Q422 1017 441.5 1036.5Q461 1056 487.0 1067.0Q513 1078 543 1078ZM2268 1078Q2298 1078 2324.0 1067.0Q2350 1056 2369.5 1036.5Q2389 1017 2400.5 991.0Q2412 965 2412 935V503Q2412 473 2400.5 447.0Q2389 421 2369.5 401.5Q2350 382 2324.0 371.0Q2298 360 2268 360H1622Q1592 360 1566.0 371.0Q1540 382 1520.5 401.5Q1501 421 1489.5 447.0Q1478 473 1478 503V935Q1478 965 1489.5 991.0Q1501 1017 1520.5 1036.5Q1540 1056 1566.0 1067.0Q1592 1078 1622 1078Z" style="fill:#757575;stroke:none" transform="scale(1,-1) translate(0,-256)" /></svg>