<?xml version="1.0" encoding="utf-8" ?>
<svg baseProfile="full" height="256" version="1.1" width="256" xmlns="http://www.w3.org/2000/svg" xmlns:ev="http://www.w3.org/2001/xml-events" xmlns:xlink="http://www.w3.org/1999/xlink"><defs /><path d="M2126 1869Q2215 1869 2293.5 1835.0Q2372 1801 2430.5 1742.5Q2489 1684 2522.5 1605.5Q2556 1527 2556 1438Q2556 1376 2543.0 1327.0Q2530 1278 2505.5 1235.5Q2481 1193 2447.0 1154.5Q2413 1116 2371 1075Q2412 934 2412 790Q2412 581 2336.5 405.5Q2261 230 2117 80Q2096 57 2072 38Q2043 -19 1999.0 -65.5Q1955 -112 1901 -145Q1888 -207 1855.5 -259.0Q1823 -311 1776.0 -349.0Q1729 -387 1671.0 -408.5Q1613 -430 1550 -430H1262Q1198 -430 1140.0 -409.0Q1082 -388 1035.5 -350.0Q989 -312 956.0 -259.5Q923 -207 910 -145Q856 -111 812.0 -65.0Q768 -19 739 38Q658 108 594.5 194.5Q531 281 487.5 378.0Q444 475 421.5 580.0Q399 685 399 792Q399 935 440 1075Q398 1116 364.0 1154.5Q330 1193 306.0 1235.5Q282 1278 269.0 1327.0Q256 1376 256 1438Q256 1527 289.5 1605.5Q323 1684 381.0 1742.5Q439 1801 517.5 1835.0Q596 1869 685 1869Q748 1869 809.0 1851.0Q870 1833 923 1798H1888Q1942 1833 2002.5 1851.0Q2063 1869 2126 1869Z" style="fill:#000000;stroke:none" transform="scale(1,-1) translate(0,-256)" /></svg>