<?xml version="1.0" encoding="utf-8" ?>
<svg baseProfile="full" height="256" version="1.1" width="256" xmlns="http://www.w3.org/2000/svg" xmlns:ev="http://www.w3.org/2001/xml-events" xmlns:xlink="http://www.w3.org/1999/xlink"><defs /><path d="M1935 1653Q1974 1688 2023.5 1707.0Q2073 1726 2126 1726Q2185 1726 2237.0 1703.0Q2289 1680 2328.0 1641.0Q2367 1602 2389.5 1549.5Q2412 1497 2412 1438Q2412 1380 2390.5 1328.5Q2369 1277 2328 1235L2205 1112Q2267 956 2267 789Q2267 715 2255.0 643.0Q2243 571 2218 502L2121 434L2106 288Q2044 204 1966.0 137.0Q1888 70 1798.5 24.0Q1709 -22 1610.0 -46.5Q1511 -71 1406 -71Q1302 -71 1202.0 -46.5Q1102 -22 1012.0 24.5Q922 71 843.5 138.0Q765 205 704 289L692 440L593 503Q569 572 556.5 644.0Q544 716 544 789Q544 873 560.0 953.5Q576 1034 607 1112L484 1235Q443 1277 421.0 1328.5Q399 1380 399 1438Q399 1497 421.5 1549.5Q444 1602 483.0 1641.0Q522 1680 574.0 1703.0Q626 1726 685 1726Q738 1726 787.5 1707.0Q837 1688 876 1653H1190L1404 1574L1621 1654Z" style="fill:#f7630c;stroke:none" transform="scale(1,-1) translate(0,-256)" /></svg>