<?xml version="1.0" encoding="utf-8" ?>
<svg baseProfile="full" height="256" version="1.1" width="256" xmlns="http://www.w3.org/2000/svg" xmlns:ev="http://www.w3.org/2001/xml-events" xmlns:xlink="http://www.w3.org/1999/xlink"><defs /><path d="M687 1582Q728 1582 754.5 1565.0Q781 1548 808 1521L669 1253L585 1337Q543 1379 543 1438Q543 1468 554.5 1494.0Q566 1520 585.5 1539.5Q605 1559 631.0 1570.5Q657 1582 687 1582ZM2125 1582Q2155 1582 2181.0 1570.5Q2207 1559 2226.5 1539.5Q2246 1520 2257.0 1494.0Q2268 1468 2268 1438Q2268 1379 2226 1337L2143 1253L2004 1521Q2032 1549 2058.0 1565.5Q2084 1582 2125 1582Z" style="fill:#da3b01;stroke:none" transform="scale(1,-1) translate(0,-256)" /></svg>