<?xml version="1.0" encoding="utf-8" ?>
<svg baseProfile="full" height="256" version="1.1" width="256" xmlns="http://www.w3.org/2000/svg" xmlns:ev="http://www.w3.org/2001/xml-events" xmlns:xlink="http://www.w3.org/1999/xlink"><defs /><path d="M1981 1223Q2011 1223 2037.0 1211.5Q2063 1200 2082.5 1180.5Q2102 1161 2113.5 1135.0Q2125 1109 2125 1079V791Q2125 764 2114.5 738.0Q2104 712 2085 693L1879 487Q1927 441 1954.0 379.5Q1981 318 1981 252Q1981 201 1965.0 154.0Q1949 107 1920.5 67.0Q1892 27 1852.5 -3.5Q1813 -34 1765 -51V-71Q1765 -116 1748.0 -155.0Q1731 -194 1702.0 -223.5Q1673 -253 1634.0 -270.0Q1595 -287 1550 -287H1262Q1217 -287 1178.0 -270.0Q1139 -253 1109.5 -223.5Q1080 -194 1063.0 -155.0Q1046 -116 1046 -71V-51Q998 -34 958.5 -3.5Q919 27 890.5 66.5Q862 106 846.5 153.5Q831 201 831 252Q831 318 857.5 379.5Q884 441 932 487L726 693Q707 712 697.0 738.0Q687 764 687 791V1079Q687 1109 698.5 1135.0Q710 1161 729.5 1180.5Q749 1200 775.0 1211.5Q801 1223 831 1223H1118V432L1401 322L1693 432V1223Z" style="fill:#ffffff;stroke:none" transform="scale(1,-1) translate(0,-256)" /></svg>