<?xml version="1.0" encoding="utf-8" ?>
<svg baseProfile="full" height="256" version="1.1" width="256" xmlns="http://www.w3.org/2000/svg" xmlns:ev="http://www.w3.org/2001/xml-events" xmlns:xlink="http://www.w3.org/1999/xlink"><defs /><path d="M1873 1079Q1895 1079 1915.0 1070.5Q1935 1062 1949.5 1047.5Q1964 1033 1972.5 1013.0Q1981 993 1981 971V827Q1981 804 1972.5 784.5Q1964 765 1949.0 751.0Q1934 737 1914.5 728.5Q1895 720 1873 720Q1851 720 1831.5 728.5Q1812 737 1797.0 751.0Q1782 765 1773.5 784.5Q1765 804 1765 827V971Q1765 993 1773.5 1013.0Q1782 1033 1796.5 1047.5Q1811 1062 1830.5 1070.5Q1850 1079 1873 1079ZM939 1079Q961 1079 981.0 1070.5Q1001 1062 1015.0 1047.0Q1029 1032 1037.5 1012.5Q1046 993 1046 971V827Q1046 805 1037.5 785.5Q1029 766 1014.5 751.5Q1000 737 980.5 728.5Q961 720 939 720Q917 720 897.5 728.5Q878 737 863.0 751.0Q848 765 839.5 784.5Q831 804 831 827V971Q831 993 839.5 1013.0Q848 1033 862.5 1047.5Q877 1062 896.5 1070.5Q916 1079 939 1079ZM1406 51Q1443 6 1493.5 -24.0Q1544 -54 1601 -65Q1562 -102 1511.0 -122.5Q1460 -143 1406 -143Q1352 -143 1301.0 -123.0Q1250 -103 1211 -65Q1268 -54 1319.0 -24.5Q1370 5 1406 51Z" style="fill:#000000;stroke:none" transform="scale(1,-1) translate(0,-256)" /></svg>