<?xml version="1.0" encoding="utf-8" ?>
<svg baseProfile="full" height="256" version="1.1" width="256" xmlns="http://www.w3.org/2000/svg" xmlns:ev="http://www.w3.org/2001/xml-events" xmlns:xlink="http://www.w3.org/1999/xlink"><defs /><path d="M939 1078Q961 1078 980.5 1069.5Q1000 1061 1015.0 1046.5Q1030 1032 1038.5 1012.5Q1047 993 1047 971V827Q1047 805 1038.5 785.5Q1030 766 1015.0 751.0Q1000 736 980.5 727.5Q961 719 939 719Q916 719 896.5 727.5Q877 736 862.5 750.5Q848 765 839.5 784.5Q831 804 831 827V971Q831 993 839.5 1013.0Q848 1033 863.0 1047.0Q878 1061 897.5 1069.5Q917 1078 939 1078ZM1873 1078Q1895 1078 1914.5 1069.5Q1934 1061 1949.0 1047.0Q1964 1033 1972.5 1013.0Q1981 993 1981 971V827Q1981 804 1972.5 784.5Q1964 765 1949.5 750.5Q1935 736 1915.0 727.5Q1895 719 1873 719Q1851 719 1831.5 727.5Q1812 736 1797.0 751.0Q1782 766 1773.5 785.5Q1765 805 1765 827V971Q1765 993 1773.5 1012.5Q1782 1032 1797.0 1046.5Q1812 1061 1831.5 1069.5Q1851 1078 1873 1078ZM1406 144Q1392 144 1378.5 149.0Q1365 154 1355 165L1190 360H1622L1457 165Q1447 154 1433.5 149.0Q1420 144 1406 144Z" style="fill:#000000;stroke:none" transform="scale(1,-1) translate(0,-256)" /></svg>