<?xml version="1.0" encoding="utf-8" ?>
<svg baseProfile="full" height="256" version="1.1" width="256" xmlns="http://www.w3.org/2000/svg" xmlns:ev="http://www.w3.org/2001/xml-events" xmlns:xlink="http://www.w3.org/1999/xlink"><defs /><path d="M2308 1307Q2319 1287 2327.5 1265.5Q2336 1244 2345 1222L2511 811Q2556 698 2556 575Q2556 436 2503.0 314.5Q2450 193 2347 99Q2322 76 2296.0 57.5Q2270 39 2242 21L1704 -332Q1668 -356 1633.5 -374.0Q1599 -392 1563.0 -405.0Q1527 -418 1488.5 -424.5Q1450 -431 1406 -431Q1362 -431 1323.5 -424.5Q1285 -418 1249.0 -405.0Q1213 -392 1178.5 -374.0Q1144 -356 1108 -332L565 24Q538 41 512.0 60.0Q486 79 462 101Q412 146 373.5 200.5Q335 255 309.0 316.0Q283 377 269.5 442.5Q256 508 256 575Q256 635 266.5 694.0Q277 753 300 809L468 1225Q476 1246 484.5 1266.5Q493 1287 504 1307Q400 1406 400 1546Q400 1613 425.5 1672.0Q451 1731 494.5 1774.5Q538 1818 597.0 1843.5Q656 1869 723 1869Q792 1869 852.5 1842.0Q913 1815 961 1765Q1065 1816 1177.5 1842.5Q1290 1869 1406 1869Q1522 1869 1634.5 1842.5Q1747 1816 1851 1765Q1899 1816 1959.0 1842.5Q2019 1869 2089 1869Q2156 1869 2214.5 1843.5Q2273 1818 2317.0 1774.0Q2361 1730 2386.5 1671.5Q2412 1613 2412 1546Q2412 1506 2405.0 1474.5Q2398 1443 2385.0 1415.5Q2372 1388 2352.5 1362.0Q2333 1336 2308 1307Z" style="fill:#000000;stroke:none" transform="scale(1,-1) translate(0,-256)" /></svg>