<?xml version="1.0" encoding="utf-8" ?>
<svg baseProfile="full" height="256" version="1.1" width="256" xmlns="http://www.w3.org/2000/svg" xmlns:ev="http://www.w3.org/2001/xml-events" xmlns:xlink="http://www.w3.org/1999/xlink"><defs /><path d="M1406 1725Q1542 1725 1666.0 1685.5Q1790 1646 1894.0 1573.5Q1998 1501 2079.0 1398.5Q2160 1296 2211 1171L2378 757Q2395 714 2403.5 668.0Q2412 622 2412 575Q2412 503 2395.5 441.5Q2379 380 2348.0 327.0Q2317 274 2271.5 228.5Q2226 183 2168 144Q2032 52 1895.5 -36.0Q1759 -124 1622 -214H1190Q1053 -124 916.5 -36.0Q780 52 644 144Q586 183 540.5 228.5Q495 274 464.0 327.0Q433 380 416.5 441.5Q400 503 400 575Q400 622 408.5 668.0Q417 714 434 757L601 1171Q652 1297 733.0 1399.0Q814 1501 918.0 1573.5Q1022 1646 1145.5 1685.5Q1269 1725 1406 1725Z" style="fill:#e5e5e5;stroke:none" transform="scale(1,-1) translate(0,-256)" /></svg>