<?xml version="1.0" encoding="utf-8" ?>
<svg baseProfile="full" height="256" version="1.1" width="256" xmlns="http://www.w3.org/2000/svg" xmlns:ev="http://www.w3.org/2001/xml-events" xmlns:xlink="http://www.w3.org/1999/xlink"><defs /><path d="M971 1222Q1016 1222 1056.0 1205.0Q1096 1188 1125.5 1158.0Q1155 1128 1172.5 1088.5Q1190 1049 1190 1004Q1190 968 1180 937L1062 561Q1048 516 1020.5 478.5Q993 441 956.0 414.0Q919 387 875.0 372.0Q831 357 783 357Q723 357 669.5 380.0Q616 403 576.5 442.5Q537 482 514.0 535.5Q491 589 491 649Q491 699 507.0 746.0Q523 793 554 831L800 1139Q832 1178 876.0 1200.0Q920 1222 971 1222ZM1841 1222Q1892 1222 1936.5 1200.0Q1981 1178 2012 1139L2257 831Q2321 750 2321 649Q2321 589 2298.0 535.5Q2275 482 2235.5 442.5Q2196 403 2142.5 380.0Q2089 357 2029 357Q1981 357 1937.0 371.5Q1893 386 1856.0 413.0Q1819 440 1792.0 477.5Q1765 515 1750 561Q1720 655 1690.5 749.0Q1661 843 1632 937Q1622 968 1622 1004Q1622 1049 1639.5 1088.5Q1657 1128 1686.5 1158.0Q1716 1188 1756.0 1205.0Q1796 1222 1841 1222Z" style="fill:#383838;stroke:none" transform="scale(1,-1) translate(0,-256)" /></svg>