<?xml version="1.0" encoding="utf-8" ?>
<svg baseProfile="full" height="256" version="1.1" width="256" xmlns="http://www.w3.org/2000/svg" xmlns:ev="http://www.w3.org/2001/xml-events" xmlns:xlink="http://www.w3.org/1999/xlink"><defs /><path d="M543 1545Q543 1582 557.0 1615.0Q571 1648 595.5 1672.5Q620 1697 652.5 1711.0Q685 1725 723 1725Q758 1725 791.5 1711.5Q825 1698 850 1673L1030 1493L776 1239L596 1418Q543 1471 543 1545ZM1782 1493 1962 1673Q1987 1698 2020.5 1711.5Q2054 1725 2089 1725Q2126 1725 2158.5 1711.0Q2191 1697 2215.5 1672.5Q2240 1648 2254.0 1615.0Q2268 1582 2268 1545Q2268 1470 2216 1418L2036 1239Z" style="fill:#757575;stroke:none" transform="scale(1,-1) translate(0,-256)" /></svg>