<?xml version="1.0" encoding="utf-8" ?>
<svg baseProfile="full" height="256" version="1.1" width="256" xmlns="http://www.w3.org/2000/svg" xmlns:ev="http://www.w3.org/2001/xml-events" xmlns:xlink="http://www.w3.org/1999/xlink"><defs /><path d="M1406 719Q1480 719 1545.5 690.5Q1611 662 1659.5 613.5Q1708 565 1736.5 499.5Q1765 434 1765 360V72Q1765 -2 1736.5 -67.5Q1708 -133 1659.5 -181.5Q1611 -230 1545.5 -258.5Q1480 -287 1406 -287Q1332 -287 1266.5 -259.0Q1201 -231 1152.0 -182.0Q1103 -133 1075.0 -67.5Q1047 -2 1047 72V360Q1047 434 1075.5 499.5Q1104 565 1152.5 613.5Q1201 662 1266.5 690.5Q1332 719 1406 719Z" style="fill:#ffffff;stroke:none" transform="scale(1,-1) translate(0,-256)" /></svg>