<?xml version="1.0" encoding="utf-8" ?>
<svg baseProfile="full" height="256" version="1.1" width="256" xmlns="http://www.w3.org/2000/svg" xmlns:ev="http://www.w3.org/2001/xml-events" xmlns:xlink="http://www.w3.org/1999/xlink"><defs /><path d="M1415 760Q1424 760 1440.0 746.5Q1456 733 1475.5 712.5Q1495 692 1515.5 666.5Q1536 641 1554.5 617.0Q1573 593 1587.0 573.5Q1601 554 1608 545L1967 42Q1981 23 1981 0Q1981 -30 1960.0 -51.0Q1939 -72 1909 -72Q1884 -72 1865 -57L1549 189V0Q1549 -29 1527.5 -50.5Q1506 -72 1477 -72Q1445 -72 1424 -48L1190 215L956 -48Q946 -59 931.5 -65.5Q917 -72 902 -72Q873 -72 852.0 -50.5Q831 -29 831 0V189L515 -57Q495 -72 471 -72Q441 -72 420.0 -51.0Q399 -30 399 0Q399 23 413 42L772 545Q779 554 793.5 573.5Q808 593 827.0 617.0Q846 641 867.0 666.0Q888 691 908.0 712.0Q928 733 944.5 746.5Q961 760 970 760Q1024 732 1078.0 704.0Q1132 676 1186 649Q1193 652 1212.5 661.5Q1232 671 1256.5 683.5Q1281 696 1308.5 709.5Q1336 723 1359.0 734.0Q1382 745 1397.5 752.5Q1413 760 1415 760Z" style="fill:#107c10;stroke:none" transform="scale(1,-1) translate(0,-256)" /></svg>