<?xml version="1.0" encoding="utf-8" ?>
<svg baseProfile="full" height="256" version="1.1" width="256" xmlns="http://www.w3.org/2000/svg" xmlns:ev="http://www.w3.org/2001/xml-events" xmlns:xlink="http://www.w3.org/1999/xlink"><defs /><path d="M1668 719 1895 401Q1909 382 1909 359Q1909 329 1888.0 308.5Q1867 288 1837 288Q1812 288 1793 303L1375 628L1257 333Q1249 313 1230.5 300.5Q1212 288 1190 288Q1168 288 1149.5 300.5Q1131 313 1123 333L1005 628L587 303Q567 288 543 288Q513 288 492.0 308.5Q471 329 471 359Q471 382 485 401L711 719Q693 719 675.5 722.0Q658 725 644.5 733.0Q631 741 623.0 755.0Q615 769 615 791Q615 813 630 833L809 1083Q786 1090 772.5 1108.5Q759 1127 759 1150Q759 1162 763.0 1172.5Q767 1183 774 1193L1132 1694Q1142 1708 1157.5 1716.5Q1173 1725 1190 1725Q1207 1725 1222.5 1716.5Q1238 1708 1248 1694L1606 1193Q1613 1183 1617.0 1172.5Q1621 1162 1621 1150Q1621 1127 1607.5 1108.5Q1594 1090 1571 1083L1750 833Q1765 813 1765 791Q1765 769 1757.0 755.0Q1749 741 1735.5 733.0Q1722 725 1704.5 722.0Q1687 719 1668 719Z" style="fill:#13a10e;stroke:none" transform="scale(1,-1) translate(0,-256)" /></svg>