<?xml version="1.0" encoding="utf-8" ?>
<svg baseProfile="full" height="256" version="1.1" width="256" xmlns="http://www.w3.org/2000/svg" xmlns:ev="http://www.w3.org/2001/xml-events" xmlns:xlink="http://www.w3.org/1999/xlink"><defs /><path d="M903 -431V-215Q871 -215 841.5 -206.0Q812 -197 786.5 -181.0Q761 -165 740.5 -142.0Q720 -119 707 -90Q680 -111 653.5 -133.0Q627 -155 598.5 -173.5Q570 -192 539.0 -203.5Q508 -215 471 -215Q426 -215 387.0 -198.0Q348 -181 319.0 -152.0Q290 -123 273.0 -84.0Q256 -45 256 0Q256 31 265.0 60.0Q274 89 288.5 115.0Q303 141 321.0 165.5Q339 190 358 214L371 230Q350 258 339.0 291.0Q328 324 328 359Q328 428 368 485L504 676Q471 727 471 791Q471 826 483.0 858.0Q495 890 515 919L628 1077Q615 1114 615 1150Q615 1185 627.0 1217.5Q639 1250 659 1279L1015 1777Q1046 1820 1091.0 1844.5Q1136 1869 1190 1869Q1243 1869 1289.0 1844.0Q1335 1819 1366 1776L1723 1276Q1743 1247 1754.0 1216.0Q1765 1185 1765 1150Q1765 1110 1752 1077L1867 917Q1887 889 1898.0 857.0Q1909 825 1909 791Q1909 727 1876 676L2012 485Q2052 428 2052 359Q2052 324 2041.0 291.0Q2030 258 2009 230Q2028 203 2048.0 177.0Q2068 151 2085.0 123.0Q2102 95 2113.0 65.0Q2124 35 2124 0Q2124 -45 2107.0 -84.0Q2090 -123 2061.0 -152.0Q2032 -181 1993.0 -198.0Q1954 -215 1909 -215Q1872 -215 1841.0 -203.5Q1810 -192 1781.5 -173.5Q1753 -155 1726.5 -133.0Q1700 -111 1673 -90Q1647 -147 1594.0 -181.0Q1541 -215 1478 -215V-431Z" style="fill:#000000;stroke:none" transform="scale(1,-1) translate(0,-256)" /></svg>