<?xml version="1.0" encoding="utf-8" ?>
<svg baseProfile="full" height="256" version="1.1" width="256" xmlns="http://www.w3.org/2000/svg" xmlns:ev="http://www.w3.org/2001/xml-events" xmlns:xlink="http://www.w3.org/1999/xlink"><defs /><path d="M1120 1417Q1149 1417 1170.0 1395.5Q1191 1374 1191 1345Q1191 1320 1173 1297Q1129 1244 1073.0 1203.5Q1017 1163 954.0 1135.5Q891 1108 823.0 1093.5Q755 1079 688 1079Q659 1079 637.5 1100.0Q616 1121 616 1150Q616 1180 637.0 1201.0Q658 1222 688 1222Q775 1222 856.5 1251.0Q938 1280 1005 1335Q1022 1349 1036.0 1363.5Q1050 1378 1065 1393Q1089 1417 1120 1417ZM2197 1150Q2197 1121 2175.5 1100.0Q2154 1079 2125 1079Q2059 1079 1991.0 1093.5Q1923 1108 1859.0 1136.0Q1795 1164 1739.0 1204.5Q1683 1245 1640 1297Q1621 1319 1621 1346Q1621 1375 1642.5 1396.0Q1664 1417 1693 1417Q1710 1417 1723.0 1410.5Q1736 1404 1747 1393Q1787 1352 1829.0 1320.0Q1871 1288 1917.0 1266.0Q1963 1244 2014.5 1233.0Q2066 1222 2125 1222Q2154 1222 2175.5 1200.5Q2197 1179 2197 1150Z" style="fill:#d48c00;stroke:none" transform="scale(1,-1) translate(0,-256)" /></svg>