<?xml version="1.0" encoding="utf-8" ?>
<svg baseProfile="full" height="256" version="1.1" width="256" xmlns="http://www.w3.org/2000/svg" xmlns:ev="http://www.w3.org/2001/xml-events" xmlns:xlink="http://www.w3.org/1999/xlink"><defs /><path d="M1710 90Q1681 90 1659 111Q1605 162 1542.0 189.0Q1479 216 1404 216Q1329 216 1267.0 189.0Q1205 162 1151 111Q1128 90 1100 90Q1071 90 1049.5 111.0Q1028 132 1028 161Q1028 189 1049 212Q1082 247 1123.5 274.5Q1165 302 1211.5 321.0Q1258 340 1307.5 350.0Q1357 360 1405 360Q1453 360 1502.0 350.0Q1551 340 1597.5 321.0Q1644 302 1686.0 274.5Q1728 247 1761 212Q1782 189 1782 161Q1782 131 1761.0 110.5Q1740 90 1710 90ZM1011 863Q1033 863 1052.5 854.5Q1072 846 1086.5 831.0Q1101 816 1109.5 796.5Q1118 777 1118 755V611Q1118 589 1109.5 569.5Q1101 550 1086.5 535.0Q1072 520 1052.5 511.5Q1033 503 1011 503Q989 503 969.5 511.5Q950 520 935.0 535.0Q920 550 911.5 569.5Q903 589 903 611V755Q903 777 911.5 796.5Q920 816 935.0 831.0Q950 846 969.5 854.5Q989 863 1011 863ZM1801 863Q1823 863 1842.5 854.5Q1862 846 1877.0 831.0Q1892 816 1900.5 796.5Q1909 777 1909 755V611Q1909 589 1900.5 569.5Q1892 550 1877.0 535.0Q1862 520 1842.5 511.5Q1823 503 1801 503Q1779 503 1759.5 511.5Q1740 520 1725.0 535.0Q1710 550 1701.5 569.5Q1693 589 1693 611V755Q1693 777 1701.5 796.5Q1710 816 1725.0 831.0Q1740 846 1759.5 854.5Q1779 863 1801 863Z" style="fill:#000000;stroke:none" transform="scale(1,-1) translate(0,-256)" /></svg>