<?xml version="1.0" encoding="utf-8" ?>
<svg baseProfile="full" height="256" version="1.1" width="256" xmlns="http://www.w3.org/2000/svg" xmlns:ev="http://www.w3.org/2001/xml-events" xmlns:xlink="http://www.w3.org/1999/xlink"><defs /><path d="M831 934H903Q903 904 891.5 878.0Q880 852 860.5 832.5Q841 813 815.0 802.0Q789 791 759 791H472V863Q501 863 522.0 884.0Q543 905 543 934V1006H472V1078H543V1150Q543 1180 554.5 1206.0Q566 1232 585.5 1251.5Q605 1271 631.0 1282.5Q657 1294 687 1294Q717 1294 743.0 1282.5Q769 1271 788.5 1251.5Q808 1232 819.5 1206.0Q831 1180 831 1150H759Q759 1180 738.0 1201.0Q717 1222 687 1222Q658 1222 636.5 1200.5Q615 1179 615 1150V1078H759V1006H615Q615 994 615.5 982.0Q616 970 616 958Q616 933 612.0 909.0Q608 885 596 863H759Q788 863 809.5 884.0Q831 905 831 934Z" style="fill:#383838;stroke:none" transform="scale(1,-1) translate(0,-256)" /></svg>