<?xml version="1.0" encoding="utf-8" ?>
<svg baseProfile="full" height="256" version="1.1" width="256" xmlns="http://www.w3.org/2000/svg" xmlns:ev="http://www.w3.org/2001/xml-events" xmlns:xlink="http://www.w3.org/1999/xlink"><defs /><path d="M2197 359H2340V288H975V359H1622Q1622 399 1633.0 438.0Q1644 477 1665.0 510.5Q1686 544 1715.5 571.5Q1745 599 1781 617Q1739 648 1716.0 693.5Q1693 739 1693 791Q1693 837 1711.5 879.0Q1730 921 1765 951V1150L1837 1078L1909 1150L1981 1078L2053 1150V951Q2088 921 2106.5 879.0Q2125 837 2125 791Q2125 739 2102.0 693.5Q2079 648 2037 617Q2074 599 2103.5 572.0Q2133 545 2154.0 511.0Q2175 477 2186.0 438.5Q2197 400 2197 359ZM2268 1222V575H2197V1222Z" style="fill:#9c89e9;stroke:none" transform="scale(1,-1) translate(0,-256)" /></svg>