<?xml version="1.0" encoding="utf-8" ?>
<svg baseProfile="full" height="256" version="1.1" width="256" xmlns="http://www.w3.org/2000/svg" xmlns:ev="http://www.w3.org/2001/xml-events" xmlns:xlink="http://www.w3.org/1999/xlink"><defs /><path d="M1909 647H903L863 611L903 575V503H975V-253H1837V503H1909V575L1943 611ZM975 876Q975 935 990.5 991.0Q1006 1047 1035.0 1096.0Q1064 1145 1105.5 1185.5Q1147 1226 1199 1255Q1205 1258 1219.0 1264.5Q1233 1271 1248.5 1277.5Q1264 1284 1278.0 1289.0Q1292 1294 1298 1294H1514Q1520 1294 1534.0 1289.0Q1548 1284 1563.5 1277.5Q1579 1271 1593.0 1264.5Q1607 1258 1613 1255Q1665 1226 1706.5 1185.5Q1748 1145 1777.0 1096.0Q1806 1047 1821.5 991.0Q1837 935 1837 876V733H975ZM1981 1006H2197V1042Q2197 1057 2186.5 1067.5Q2176 1078 2161 1078L2089 1133L2017 1078Q2002 1078 1991.5 1067.5Q1981 1057 1981 1042ZM615 1006H831V1042Q831 1057 820.5 1067.5Q810 1078 795 1078L723 1133L651 1078Q636 1078 625.5 1067.5Q615 1057 615 1042Z" style="fill:#ffc83d;stroke:none" transform="scale(1,-1) translate(0,-256)" /></svg>