<?xml version="1.0" encoding="utf-8" ?>
<svg baseProfile="full" height="256" version="1.1" width="256" xmlns="http://www.w3.org/2000/svg" xmlns:ev="http://www.w3.org/2001/xml-events" xmlns:xlink="http://www.w3.org/1999/xlink"><defs /><path d="M2089 1042Q2116 1033 2143.0 1024.5Q2170 1016 2197 1006Q2229 994 2255.5 969.5Q2282 945 2300.5 913.5Q2319 882 2329.5 847.0Q2340 812 2340 779V-251H472V779Q472 812 482.0 847.0Q492 882 511.0 913.5Q530 945 556.5 969.5Q583 994 615 1006Q642 1016 669.0 1024.5Q696 1033 723 1042Q750 1033 777.0 1024.5Q804 1016 831 1006Q863 995 889.5 970.5Q916 946 935.0 914.5Q954 883 964.5 847.5Q975 812 975 779V755H1837V779Q1837 812 1847.5 847.5Q1858 883 1877.0 914.5Q1896 946 1922.5 970.5Q1949 995 1981 1006Q2008 1016 2035.0 1024.5Q2062 1033 2089 1042ZM1298 1330Q1298 1345 1308.5 1355.5Q1319 1366 1334 1366L1406 1421L1478 1366Q1493 1366 1503.5 1355.5Q1514 1345 1514 1330V1294L1406 1172L1298 1294Z" style="fill:#ffb900;stroke:none" transform="scale(1,-1) translate(0,-256)" /></svg>