<?xml version="1.0" encoding="utf-8" ?>
<svg baseProfile="full" height="256" version="1.1" width="256" xmlns="http://www.w3.org/2000/svg" xmlns:ev="http://www.w3.org/2001/xml-events" xmlns:xlink="http://www.w3.org/1999/xlink"><defs /><path d="M2125 360Q2154 360 2175.5 338.5Q2197 317 2197 288V-245H1981V288Q1981 317 2002.5 338.5Q2024 360 2053 360Q2053 380 2062.5 396.0Q2072 412 2089 422Q2105 412 2115.0 395.5Q2125 379 2125 360ZM759 360Q788 360 809.5 338.5Q831 317 831 288V-245H615V288Q615 317 636.5 338.5Q658 360 687 360Q687 379 697.0 395.5Q707 412 723 422Q740 412 749.5 396.0Q759 380 759 360ZM1550 431Q1579 431 1600.5 410.0Q1622 389 1622 360Q1622 331 1643.0 309.5Q1664 288 1693 288V-245H1118V288Q1148 288 1169.0 309.0Q1190 330 1190 360Q1190 389 1211.5 410.0Q1233 431 1262 431Q1262 461 1283.0 482.0Q1304 503 1334 503H1370Q1370 523 1379.5 539.5Q1389 556 1406 566Q1423 556 1432.5 539.5Q1442 523 1442 503H1478Q1508 503 1529.0 482.0Q1550 461 1550 431Z" style="fill:#ca5010;stroke:none" transform="scale(1,-1) translate(0,-256)" /></svg>