<?xml version="1.0" encoding="utf-8" ?>
<svg baseProfile="full" height="256" version="1.1" width="256" xmlns="http://www.w3.org/2000/svg" xmlns:ev="http://www.w3.org/2001/xml-events" xmlns:xlink="http://www.w3.org/1999/xlink"><defs /><path d="M2412 -287H400V-215H2412ZM1981 719H831V791H1981ZM2107 1333Q2107 1294 2121.0 1271.0Q2135 1248 2152.0 1231.0Q2169 1214 2183.0 1196.5Q2197 1179 2197 1150Q2197 1129 2187.0 1110.5Q2177 1092 2161 1078H2017Q2001 1092 1991.0 1110.5Q1981 1129 1981 1150Q1981 1178 1995.0 1196.0Q2009 1214 2026.0 1232.0Q2043 1250 2057.0 1272.5Q2071 1295 2071 1333Q2054 1338 2044.5 1352.5Q2035 1367 2035 1384Q2035 1407 2050.5 1422.5Q2066 1438 2089 1438Q2112 1438 2127.5 1422.5Q2143 1407 2143 1384Q2143 1367 2133.5 1352.5Q2124 1338 2107 1333ZM741 1333Q741 1294 755.0 1271.5Q769 1249 786.0 1231.5Q803 1214 817.0 1196.0Q831 1178 831 1150Q831 1129 821.0 1110.5Q811 1092 795 1078H651Q635 1092 625.0 1110.5Q615 1129 615 1150Q615 1178 629.0 1196.0Q643 1214 660.0 1231.5Q677 1249 691.0 1271.5Q705 1294 705 1333Q688 1338 678.5 1352.5Q669 1367 669 1384Q669 1407 684.5 1422.5Q700 1438 723 1438Q746 1438 761.5 1422.5Q777 1407 777 1384Q777 1367 767.5 1352.5Q758 1338 741 1333ZM1424 1620Q1424 1581 1438.0 1558.5Q1452 1536 1469.0 1519.0Q1486 1502 1500.0 1484.5Q1514 1467 1514 1438Q1514 1417 1504.5 1398.5Q1495 1380 1478 1366H1334Q1318 1380 1308.0 1398.5Q1298 1417 1298 1438Q1298 1466 1312.0 1484.0Q1326 1502 1343.0 1520.0Q1360 1538 1374.0 1560.0Q1388 1582 1388 1620Q1372 1626 1362.0 1640.0Q1352 1654 1352 1671Q1352 1694 1367.5 1709.5Q1383 1725 1406 1725Q1429 1725 1444.5 1709.5Q1460 1694 1460 1671Q1460 1654 1450.0 1640.0Q1440 1626 1424 1620ZM2412 575H1909V647H2412ZM903 575H400V647H903Z" style="fill:#d48c00;stroke:none" transform="scale(1,-1) translate(0,-256)" /></svg>