<?xml version="1.0" encoding="utf-8" ?>
<svg baseProfile="full" height="256" version="1.1" width="256" xmlns="http://www.w3.org/2000/svg" xmlns:ev="http://www.w3.org/2001/xml-events" xmlns:xlink="http://www.w3.org/1999/xlink"><defs /><path d="M256 -431V-48Q256 61 293.5 163.5Q331 266 400 350V1078Q400 1187 428.5 1288.0Q457 1389 508.5 1476.5Q560 1564 632.0 1636.5Q704 1709 792.0 1760.5Q880 1812 981.0 1840.0Q1082 1868 1191 1868Q1300 1868 1401.0 1840.0Q1502 1812 1590.0 1760.5Q1678 1709 1750.0 1636.5Q1822 1564 1873.5 1476.5Q1925 1389 1953.5 1288.0Q1982 1187 1982 1078V349Q2051 264 2088.0 162.5Q2125 61 2125 -48V-431Z" style="fill:#000000;stroke:none" transform="scale(1,-1) translate(0,-256)" /></svg>