<?xml version="1.0" encoding="utf-8" ?>
<svg baseProfile="full" height="256" version="1.1" width="256" xmlns="http://www.w3.org/2000/svg" xmlns:ev="http://www.w3.org/2001/xml-events" xmlns:xlink="http://www.w3.org/1999/xlink"><defs /><path d="M1334 431Q1363 431 1384.5 410.0Q1406 389 1406 360Q1406 344 1398 328L1254 40Q1245 22 1227.5 11.0Q1210 0 1190 0Q1170 0 1152.5 11.0Q1135 22 1126 40L983 328Q975 344 975 360Q975 389 996.5 410.0Q1018 431 1047 431ZM1262 1438Q1290 1378 1336.0 1325.5Q1382 1273 1439.0 1234.0Q1496 1195 1561.0 1172.5Q1626 1150 1693 1150V1008Q1693 904 1653.5 812.0Q1614 720 1545.5 651.5Q1477 583 1385.5 543.0Q1294 503 1190 503Q1086 503 994.0 543.0Q902 583 834.0 651.5Q766 720 726.5 812.0Q687 904 687 1008V1150Q792 1152 866.5 1208.0Q941 1264 972 1364Q991 1327 1024.0 1300.5Q1057 1274 1097.0 1256.5Q1137 1239 1180.0 1230.5Q1223 1222 1262 1222Z" style="fill:#ffc83d;stroke:none" transform="scale(1,-1) translate(0,-256)" /></svg>