<?xml version="1.0" encoding="utf-8" ?>
<svg baseProfile="full" height="256" version="1.1" width="256" xmlns="http://www.w3.org/2000/svg" xmlns:ev="http://www.w3.org/2001/xml-events" xmlns:xlink="http://www.w3.org/1999/xlink"><defs /><path d="M256 -431V-72Q256 -26 275.0 16.0Q294 58 328 89V144Q328 222 366.5 288.0Q405 354 472 393V1258Q472 1315 479.0 1391.5Q486 1468 503.5 1544.5Q521 1621 550.0 1688.0Q579 1755 623 1795Q666 1833 714.5 1851.0Q763 1869 820 1869Q903 1869 991.5 1835.0Q1080 1801 1166.0 1743.5Q1252 1686 1330.0 1610.0Q1408 1534 1469.0 1450.0Q1530 1366 1570.0 1278.0Q1610 1190 1619 1110Q1621 1019 1622.0 930.0Q1623 841 1623 751Q1623 660 1622.5 571.5Q1622 483 1622 393Q1655 373 1681.5 346.0Q1708 319 1726.5 287.0Q1745 255 1755.0 218.5Q1765 182 1765 144V89Q1799 58 1818.0 16.0Q1837 -26 1837 -72V-431Z" style="fill:#000000;stroke:none" transform="scale(1,-1) translate(0,-256)" /></svg>