<?xml version="1.0" encoding="utf-8" ?>
<svg baseProfile="full" height="256" version="1.1" width="256" xmlns="http://www.w3.org/2000/svg" xmlns:ev="http://www.w3.org/2001/xml-events" xmlns:xlink="http://www.w3.org/1999/xlink"><defs /><path d="M1478 1067Q1478 1004 1443.5 969.0Q1409 934 1345 934Q1281 934 1208.0 965.0Q1135 996 1061.5 1048.0Q988 1100 920.5 1167.5Q853 1235 801.0 1308.0Q749 1381 718.0 1454.5Q687 1528 687 1592Q687 1655 722.0 1690.0Q757 1725 821 1725Q884 1725 957.5 1694.0Q1031 1663 1104.0 1611.0Q1177 1559 1244.5 1491.5Q1312 1424 1364.0 1351.0Q1416 1278 1447.0 1204.5Q1478 1131 1478 1067Z" style="fill:#e6808a;stroke:none" transform="scale(1,-1) translate(0,-256)" /></svg>