<?xml version="1.0" encoding="utf-8" ?>
<svg baseProfile="full" height="256" version="1.1" width="256" xmlns="http://www.w3.org/2000/svg" xmlns:ev="http://www.w3.org/2001/xml-events" xmlns:xlink="http://www.w3.org/1999/xlink"><defs /><path d="M2084 1631Q2163 1552 2224.5 1459.5Q2286 1367 2328.0 1266.0Q2370 1165 2391.5 1056.5Q2413 948 2413 836Q2413 681 2373.0 537.5Q2333 394 2259.5 269.5Q2186 145 2083.5 42.0Q1981 -61 1856.0 -134.0Q1731 -207 1587.5 -247.0Q1444 -287 1289 -287Q1177 -287 1069.0 -265.5Q961 -244 859.5 -202.0Q758 -160 666.0 -98.5Q574 -37 495 42Z" style="fill:#8e562e;stroke:none" transform="scale(1,-1) translate(0,-256)" /></svg>