<?xml version="1.0" encoding="utf-8" ?>
<svg baseProfile="full" height="256" version="1.1" width="256" xmlns="http://www.w3.org/2000/svg" xmlns:ev="http://www.w3.org/2001/xml-events" xmlns:xlink="http://www.w3.org/1999/xlink"><defs /><path d="M756 -52Q673 -52 607.0 -28.0Q541 -4 495.0 42.0Q449 88 425.0 154.0Q401 220 401 303Q401 413 438.0 532.0Q475 651 541.0 772.0Q607 893 697.0 1010.0Q787 1127 893.0 1233.0Q999 1339 1116.0 1429.0Q1233 1519 1354.0 1585.0Q1475 1651 1594.0 1688.0Q1713 1725 1823 1725Q1907 1725 1972.5 1701.0Q2038 1677 2084.0 1631.0Q2130 1585 2154.0 1519.5Q2178 1454 2178 1370Q2178 1260 2141.0 1141.0Q2104 1022 2038.0 901.0Q1972 780 1882.0 663.0Q1792 546 1686.0 440.0Q1580 334 1463.0 244.0Q1346 154 1225.0 88.0Q1104 22 985.0 -15.0Q866 -52 756 -52Z" style="fill:#f2f2f2;stroke:none" transform="scale(1,-1) translate(0,-256)" /></svg>