<?xml version="1.0" encoding="utf-8" ?>
<svg baseProfile="full" height="256" version="1.1" width="256" xmlns="http://www.w3.org/2000/svg" xmlns:ev="http://www.w3.org/2001/xml-events" xmlns:xlink="http://www.w3.org/1999/xlink"><defs /><path d="M1083 773Q1083 707 1089.0 637.0Q1095 567 1108.0 497.0Q1121 427 1142.0 360.5Q1163 294 1193 235Q1145 207 1092.0 181.0Q1039 155 983.0 135.0Q927 115 869.5 103.0Q812 91 756 91Q544 91 544 302Q544 391 573.0 485.5Q602 580 651.5 674.0Q701 768 766.0 859.0Q831 950 902.5 1032.0Q974 1114 1048.5 1183.5Q1123 1253 1190 1305Q1161 1246 1140.5 1180.0Q1120 1114 1107.0 1045.5Q1094 977 1088.5 907.5Q1083 838 1083 773Z" style="fill:#a6a6a6;stroke:none" transform="scale(1,-1) translate(0,-256)" /></svg>