<?xml version="1.0" encoding="utf-8" ?>
<svg baseProfile="full" height="256" version="1.1" width="256" xmlns="http://www.w3.org/2000/svg" xmlns:ev="http://www.w3.org/2001/xml-events" xmlns:xlink="http://www.w3.org/1999/xlink"><defs /><path d="M2186 1732Q2275 1643 2344.0 1539.0Q2413 1435 2460.0 1321.0Q2507 1207 2531.5 1084.5Q2556 962 2556 836Q2556 660 2511.0 498.0Q2466 336 2383.5 195.5Q2301 55 2185.5 -60.5Q2070 -176 1929.0 -258.0Q1788 -340 1626.0 -385.0Q1464 -430 1289 -430Q1163 -430 1041.0 -405.5Q919 -381 805.0 -334.0Q691 -287 587.0 -218.0Q483 -149 394 -60Q320 13 288.0 108.0Q256 203 256 305Q256 429 296.0 562.5Q336 696 407.5 829.5Q479 963 577.0 1091.5Q675 1220 791.0 1335.5Q907 1451 1036.0 1549.0Q1165 1647 1298.5 1718.0Q1432 1789 1565.5 1829.0Q1699 1869 1823 1869Q1924 1869 2018.0 1837.0Q2112 1805 2186 1732Z" style="fill:#000000;stroke:none" transform="scale(1,-1) translate(0,-256)" /></svg>