<?xml version="1.0" encoding="utf-8" ?>
<svg baseProfile="full" height="256" version="1.1" width="256" xmlns="http://www.w3.org/2000/svg" xmlns:ev="http://www.w3.org/2001/xml-events" xmlns:xlink="http://www.w3.org/1999/xlink"><defs /><path d="M1946 72Q1931 72 1920 83L1849 154Q1838 165 1838 180Q1838 194 1849.0 204.5Q1860 215 1874 215Q1889 215 1899 205L1971 133Q1981 123 1981 108Q1981 94 1970.5 83.0Q1960 72 1946 72ZM2018 360Q2002 360 1992 370L1920 442Q1909 453 1909 467Q1909 481 1920.0 492.0Q1931 503 1945 503Q1961 503 1971 493L2043 421Q2053 411 2053 395Q2053 381 2042.5 370.5Q2032 360 2018 360ZM1443 -215Q1427 -215 1417 -205L1345 -133Q1334 -122 1334 -108Q1334 -94 1345.0 -83.0Q1356 -72 1370 -72Q1386 -72 1396 -82L1468 -154Q1478 -164 1478 -180Q1478 -194 1467.5 -204.5Q1457 -215 1443 -215ZM1155 -215Q1140 -215 1130 -205L1058 -133Q1047 -122 1047 -108Q1047 -94 1058.0 -83.0Q1069 -72 1083 -72Q1099 -72 1109 -82L1181 -154Q1191 -164 1191 -180Q1191 -195 1180.5 -205.0Q1170 -215 1155 -215ZM1658 0Q1644 0 1633 11L1561 83Q1550 94 1550 108Q1550 122 1561.0 132.5Q1572 143 1586 143Q1602 143 1612 133L1684 62Q1694 52 1694 36Q1694 22 1683.0 11.0Q1672 0 1658 0Z" style="fill:#613d30;stroke:none" transform="scale(1,-1) translate(0,-256)" /></svg>