<?xml version="1.0" encoding="utf-8" ?>
<svg baseProfile="full" height="256" version="1.1" width="256" xmlns="http://www.w3.org/2000/svg" xmlns:ev="http://www.w3.org/2001/xml-events" xmlns:xlink="http://www.w3.org/1999/xlink"><defs /><path d="M1226 1510Q1241 1510 1251.5 1499.5Q1262 1489 1262 1474Q1262 1459 1251.5 1448.5Q1241 1438 1226 1438Q1211 1438 1200.5 1448.5Q1190 1459 1190 1474Q1190 1489 1200.5 1499.5Q1211 1510 1226 1510ZM1478 1581Q1507 1581 1528.5 1560.0Q1550 1539 1550 1510Q1550 1480 1529.0 1459.0Q1508 1438 1478 1438Q1448 1438 1427.0 1459.0Q1406 1480 1406 1510Q1406 1539 1427.5 1560.0Q1449 1581 1478 1581ZM1298 1294Q1313 1294 1323.5 1283.5Q1334 1273 1334 1258Q1334 1243 1323.5 1232.5Q1313 1222 1298 1222Q1283 1222 1272.5 1232.5Q1262 1243 1262 1258Q1262 1273 1272.5 1283.5Q1283 1294 1298 1294ZM1586 1366Q1600 1366 1611.0 1355.0Q1622 1344 1622 1330Q1622 1316 1611.0 1305.0Q1600 1294 1586 1294Q1571 1294 1560.5 1304.5Q1550 1315 1550 1330Q1550 1345 1560.5 1355.5Q1571 1366 1586 1366Z" style="fill:#f7b189;stroke:none" transform="scale(1,-1) translate(0,-256)" /></svg>