<?xml version="1.0" encoding="utf-8" ?>
<svg baseProfile="full" height="256" version="1.1" width="256" xmlns="http://www.w3.org/2000/svg" xmlns:ev="http://www.w3.org/2001/xml-events" xmlns:xlink="http://www.w3.org/1999/xlink"><defs /><path d="M1693 -431Q1608 -431 1532.5 -392.5Q1457 -354 1406 -287Q1355 -355 1279.0 -393.0Q1203 -431 1118 -431H975Q921 -431 873.5 -406.0Q826 -381 796 -336Q768 -357 735.5 -367.5Q703 -378 668 -378Q605 -378 555.0 -345.5Q505 -313 470.5 -263.0Q436 -213 418.0 -152.5Q400 -92 400 -36Q400 55 436.0 129.5Q472 204 538 265Q430 351 379.0 467.0Q328 583 328 719Q328 763 345.0 802.5Q362 842 391.0 871.5Q420 901 459.5 918.0Q499 935 543 935Q578 935 615 922V938Q576 944 543.5 963.5Q511 983 487.0 1011.0Q463 1039 449.5 1075.0Q436 1111 436 1150Q436 1195 453.0 1234.0Q470 1273 499.0 1302.5Q528 1332 567.0 1349.0Q606 1366 651 1366Q720 1366 784.5 1343.0Q849 1320 903 1275V1366Q903 1470 942.5 1561.5Q982 1653 1050.5 1721.5Q1119 1790 1210.5 1829.5Q1302 1869 1406 1869Q1510 1869 1601.5 1829.5Q1693 1790 1761.5 1721.5Q1830 1653 1869.5 1561.5Q1909 1470 1909 1366V1275Q1962 1320 2027.0 1343.0Q2092 1366 2161 1366Q2206 1366 2245.0 1349.0Q2284 1332 2313.0 1302.5Q2342 1273 2359.0 1234.0Q2376 1195 2376 1150Q2376 1111 2362.5 1075.5Q2349 1040 2325.0 1011.5Q2301 983 2268.5 963.5Q2236 944 2197 938V904Q2234 917 2268 917Q2313 917 2352.0 900.0Q2391 883 2420.5 853.5Q2450 824 2467.0 785.0Q2484 746 2484 701Q2484 637 2469.5 576.0Q2455 515 2428.0 459.0Q2401 403 2362.0 353.5Q2323 304 2273 265Q2340 207 2376.0 130.0Q2412 53 2412 -36Q2412 -92 2394.0 -152.5Q2376 -213 2341.5 -263.0Q2307 -313 2257.0 -345.5Q2207 -378 2144 -378Q2109 -378 2076.5 -367.5Q2044 -357 2016 -336Q1994 -368 1968.0 -387.0Q1942 -406 1913.5 -416.0Q1885 -426 1854.0 -429.0Q1823 -432 1790 -432Q1766 -432 1742.0 -431.5Q1718 -431 1693 -431Z" style="fill:#000000;stroke:none" transform="scale(1,-1) translate(0,-256)" /></svg>