<?xml version="1.0" encoding="utf-8" ?>
<svg baseProfile="full" height="256" version="1.1" width="256" xmlns="http://www.w3.org/2000/svg" xmlns:ev="http://www.w3.org/2001/xml-events" xmlns:xlink="http://www.w3.org/1999/xlink"><defs /><path d="M1916 288Q1882 288 1848.5 289.0Q1815 290 1782.5 294.5Q1750 299 1719.0 309.5Q1688 320 1658 338Q1683 296 1713.0 271.5Q1743 247 1775.5 234.5Q1808 222 1843.0 219.0Q1878 216 1914 216H1970Q2000 216 2029.0 214.0Q2058 212 2086.5 204.5Q2115 197 2142.5 182.0Q2170 167 2195 142Q2230 107 2249.0 60.5Q2268 14 2268 -36Q2268 -60 2259.5 -94.5Q2251 -129 2235.5 -160.0Q2220 -191 2197.0 -213.0Q2174 -235 2144 -235Q2114 -235 2093.0 -214.0Q2072 -193 2072 -163Q2072 -143 2080.5 -130.5Q2089 -118 2098.5 -105.5Q2108 -93 2116.5 -77.5Q2125 -62 2125 -36Q2125 -14 2116.5 5.5Q2108 25 2093.0 40.0Q2078 55 2058.5 63.5Q2039 72 2017 72Q1994 72 1971.5 71.5Q1949 71 1928 71Q1886 71 1847.0 73.5Q1808 76 1770.5 85.5Q1733 95 1696.0 113.0Q1659 131 1622 162V-72Q1622 -101 1643.0 -122.5Q1664 -144 1693 -144H1837Q1866 -144 1887.5 -165.0Q1909 -186 1909 -215Q1909 -245 1888.0 -266.0Q1867 -287 1837 -287H1693Q1648 -287 1609.0 -270.0Q1570 -253 1541.0 -224.0Q1512 -195 1495.0 -156.0Q1478 -117 1478 -72V144Q1478 174 1457.0 195.0Q1436 216 1406 216Q1376 216 1355.0 195.0Q1334 174 1334 144V-72Q1334 -115 1317.5 -154.5Q1301 -194 1271 -224Q1240 -255 1201.0 -271.0Q1162 -287 1118 -287H975Q945 -287 924.0 -266.0Q903 -245 903 -215Q903 -186 924.5 -165.0Q946 -144 975 -144H1118Q1147 -144 1168.5 -122.5Q1190 -101 1190 -72V162Q1152 131 1115.5 113.0Q1079 95 1041.5 85.5Q1004 76 965.0 73.5Q926 71 884 71Q863 71 840.5 71.5Q818 72 795 72Q773 72 753.5 63.5Q734 55 719.0 40.0Q704 25 695.5 5.5Q687 -14 687 -36Q687 -62 695.5 -77.5Q704 -93 713.5 -105.5Q723 -118 731.5 -130.5Q740 -143 740 -163Q740 -193 719.0 -214.0Q698 -235 668 -235Q638 -235 615.0 -213.0Q592 -191 576.0 -160.0Q560 -129 551.5 -94.5Q543 -60 543 -36Q543 13 559.0 54.5Q575 96 603.5 128.0Q632 160 671.0 181.5Q710 203 757 213Q762 214 767.0 215.0Q772 216 777 216Q807 216 835.5 215.0Q864 214 891 214Q931 214 967.0 218.0Q1003 222 1036.0 235.0Q1069 248 1098.5 272.5Q1128 297 1155 338Q1107 314 1059.0 301.0Q1011 288 957 288H938Q909 288 882.5 288.5Q856 289 830.5 292.0Q805 295 778.5 301.5Q752 308 724 320Q667 344 620.5 383.5Q574 423 541.0 473.0Q508 523 490.0 581.0Q472 639 472 701Q472 718 475.5 734.5Q479 751 487.0 763.5Q495 776 509.0 783.5Q523 791 543 791Q573 791 594.0 770.0Q615 749 615 719V701Q615 645 636.0 596.0Q657 547 694.0 510.0Q731 473 780.0 452.0Q829 431 885 431H930Q956 431 981.0 432.5Q1006 434 1032 442Q972 458 921.5 491.0Q871 524 835.0 569.5Q799 615 779.0 671.5Q759 728 759 791V971Q759 993 750.5 1013.0Q742 1033 727.0 1047.0Q712 1061 692.5 1069.5Q673 1078 651 1078Q622 1078 600.5 1099.5Q579 1121 579 1150Q579 1179 600.5 1200.5Q622 1222 651 1222Q755 1222 829 1148Q865 1112 884.0 1067.0Q903 1022 903 971V791Q903 747 920.0 707.5Q937 668 966.0 638.5Q995 609 1034.5 592.0Q1074 575 1118 575H1190V647Q1160 647 1134.0 658.5Q1108 670 1088.5 689.5Q1069 709 1058.0 735.0Q1047 761 1047 791V811Q1047 839 1048.5 865.5Q1050 892 1057.5 915.5Q1065 939 1082.0 959.0Q1099 979 1129 993Q1089 1041 1068.0 1100.0Q1047 1159 1047 1222V1366Q1047 1440 1075.0 1505.5Q1103 1571 1152.0 1619.5Q1201 1668 1266.5 1696.5Q1332 1725 1406 1725Q1480 1725 1545.5 1696.5Q1611 1668 1659.5 1619.5Q1708 1571 1736.5 1505.5Q1765 1440 1765 1366Q1765 1340 1765.5 1315.5Q1766 1291 1766 1268Q1766 1230 1763.5 1195.0Q1761 1160 1752.5 1126.5Q1744 1093 1727.5 1060.0Q1711 1027 1683 993Q1720 975 1742.5 940.0Q1765 905 1765 863V791Q1765 761 1754.0 735.0Q1743 709 1723.5 689.5Q1704 670 1678.0 658.5Q1652 647 1622 647V575H1693Q1738 575 1777.0 592.0Q1816 609 1845.5 638.5Q1875 668 1892.0 707.0Q1909 746 1909 791V971Q1909 1022 1928.0 1067.0Q1947 1112 1983 1148Q2057 1222 2161 1222Q2190 1222 2211.5 1200.5Q2233 1179 2233 1150Q2233 1121 2211.5 1099.5Q2190 1078 2161 1078Q2139 1078 2119.5 1069.5Q2100 1061 2085.0 1047.0Q2070 1033 2061.5 1013.0Q2053 993 2053 971V791Q2053 728 2033.0 671.5Q2013 615 1977.0 569.5Q1941 524 1890.5 491.0Q1840 458 1780 442Q1818 431 1855 431H1927Q1983 431 2032.0 452.0Q2081 473 2118.0 510.0Q2155 547 2176.0 596.0Q2197 645 2197 701Q2197 730 2218.0 751.5Q2239 773 2268 773Q2298 773 2319.0 752.0Q2340 731 2340 701Q2340 615 2307.5 540.0Q2275 465 2219.0 409.0Q2163 353 2088.0 320.5Q2013 288 1927 288Z" style="fill:#f7630c;stroke:none" transform="scale(1,-1) translate(0,-256)" /></svg>