<?xml version="1.0" encoding="utf-8" ?>
<svg baseProfile="full" height="256" version="1.1" width="256" xmlns="http://www.w3.org/2000/svg" xmlns:ev="http://www.w3.org/2001/xml-events" xmlns:xlink="http://www.w3.org/1999/xlink"><defs /><path d="M2119 1307Q1933 1338 1746.0 1351.5Q1559 1365 1370 1365Q1181 1365 994.0 1351.5Q807 1338 621 1307L1123 1475Q1183 1495 1245.5 1505.0Q1308 1515 1371 1515Q1434 1515 1495.5 1505.0Q1557 1495 1617 1475ZM1873 1138Q1888 1138 1898.5 1127.0Q1909 1116 1909 1102Q1909 1090 1902.0 1081.0Q1895 1072 1884 1068L1406 909V144Q1406 129 1395.5 118.5Q1385 108 1370 108Q1355 108 1344.5 118.5Q1334 129 1334 144V909L856 1068Q845 1072 838.0 1081.5Q831 1091 831 1102Q831 1117 841.5 1127.5Q852 1138 867 1138Q871 1138 907.0 1127.0Q943 1116 995.0 1098.5Q1047 1081 1107.5 1061.0Q1168 1041 1222.5 1022.5Q1277 1004 1317.5 990.0Q1358 976 1370 972Q1382 976 1422.5 990.0Q1463 1004 1517.5 1022.5Q1572 1041 1632.5 1061.0Q1693 1081 1745.0 1098.5Q1797 1116 1832.5 1127.0Q1868 1138 1873 1138ZM494 263Q481 258 472 253V695Q472 708 480.5 717.0Q489 726 502 726Q512 726 520.0 720.0Q528 714 531 705L577 573Q600 509 630.0 448.0Q660 387 697 330Z" style="fill:#ffffff;stroke:none" transform="scale(1,-1) translate(0,-256)" /></svg>