<?xml version="1.0" encoding="utf-8" ?>
<svg baseProfile="full" height="256" version="1.1" width="256" xmlns="http://www.w3.org/2000/svg" xmlns:ev="http://www.w3.org/2001/xml-events" xmlns:xlink="http://www.w3.org/1999/xlink"><defs /><path d="M401 147V1209Q401 1254 426.5 1290.5Q452 1327 494 1341L1100 1543Q1166 1565 1233.5 1575.5Q1301 1586 1370 1586Q1439 1586 1506.5 1575.5Q1574 1565 1640 1543L2246 1341Q2288 1327 2314.0 1290.0Q2340 1253 2340 1209V147L1141 -137L493 75Q493 75 479.0 85.5Q465 96 448.5 109.0Q432 122 417.5 133.5Q403 145 401 147Z" style="fill:#b3dbf2;stroke:none" transform="scale(1,-1) translate(0,-256)" /></svg>