<?xml version="1.0" encoding="utf-8" ?>
<svg baseProfile="full" height="256" version="1.1" width="256" xmlns="http://www.w3.org/2000/svg" xmlns:ev="http://www.w3.org/2001/xml-events" xmlns:xlink="http://www.w3.org/1999/xlink"><defs /><path d="M256 162V1209Q256 1255 270.0 1297.0Q284 1339 309.5 1374.0Q335 1409 370.5 1435.5Q406 1462 449 1477L1054 1679Q1207 1730 1371 1730Q1534 1730 1686 1679L2291 1477Q2334 1462 2370.0 1436.0Q2406 1410 2431.0 1374.5Q2456 1339 2470.0 1297.0Q2484 1255 2484 1209V162Q2484 116 2470.0 74.0Q2456 32 2431.0 -3.5Q2406 -39 2370.0 -65.0Q2334 -91 2291 -106L1686 -308Q1534 -359 1371 -359Q1208 -359 1055 -308L449 -106Q406 -92 370.5 -65.5Q335 -39 309.5 -3.5Q284 32 270.0 74.0Q256 116 256 162Z" style="fill:#000000;stroke:none" transform="scale(1,-1) translate(0,-256)" /></svg>