<?xml version="1.0" encoding="utf-8" ?>
<svg baseProfile="full" height="256" version="1.1" width="256" xmlns="http://www.w3.org/2000/svg" xmlns:ev="http://www.w3.org/2001/xml-events" xmlns:xlink="http://www.w3.org/1999/xlink"><defs /><path d="M1406 1402V935H1334V1402Q1334 1417 1344.5 1427.5Q1355 1438 1370 1438Q1385 1438 1395.5 1427.5Q1406 1417 1406 1402ZM2268 253V695Q2268 707 2259.5 716.0Q2251 725 2239 725Q2229 725 2220.5 719.5Q2212 714 2209 705Q2192 655 2174.5 607.0Q2157 559 2137.5 512.5Q2118 466 2095.0 420.5Q2072 375 2044 330L1640 465Q1574 487 1506.5 497.5Q1439 508 1370 508Q1301 508 1233.5 497.5Q1166 487 1100 465L697 330Q733 274 771.0 228.5Q809 183 850.0 142.0Q891 101 937.0 62.5Q983 24 1034 -17Q1046 -27 1046 -40Q1046 -52 1037.0 -61.0Q1028 -70 1016 -70Q1014 -70 993.5 -63.5Q973 -57 940.5 -46.5Q908 -36 866.0 -22.5Q824 -9 779.5 6.0Q735 21 691.5 35.5Q648 50 612.5 62.0Q577 74 552.0 82.5Q527 91 520 94Q498 103 485.0 120.0Q472 137 472 162V253L486 260Q470 254 455.0 242.0Q440 230 428.0 215.0Q416 200 408.5 182.5Q401 165 401 147Q401 128 409.0 109.5Q417 91 430.0 75.0Q443 59 460.0 47.5Q477 36 494 30L1100 -172Q1232 -216 1370 -216Q1508 -216 1640 -172L2246 30Q2263 36 2280.0 47.5Q2297 59 2310.0 75.0Q2323 91 2331.0 109.5Q2339 128 2339 147Q2339 179 2317.0 208.5Q2295 238 2268 253Z" style="fill:#83beec;stroke:none" transform="scale(1,-1) translate(0,-256)" /></svg>