<?xml version="1.0" encoding="utf-8" ?>
<svg baseProfile="full" height="256" version="1.1" width="256" xmlns="http://www.w3.org/2000/svg" xmlns:ev="http://www.w3.org/2001/xml-events" xmlns:xlink="http://www.w3.org/1999/xlink"><defs /><path d="M2246 263Q2259 258 2268 253V162Q2268 138 2255.0 120.0Q2242 102 2220 93Q2210 89 2170.0 75.5Q2130 62 2075.5 44.0Q2021 26 1960.0 6.0Q1899 -14 1847.0 -31.0Q1795 -48 1760.5 -59.0Q1726 -70 1725 -70Q1712 -70 1703.0 -61.5Q1694 -53 1694 -40Q1694 -27 1706 -17Q1757 24 1803.0 62.5Q1849 101 1890.5 142.0Q1932 183 1970.0 228.5Q2008 274 2044 330Z" style="fill:#3a96dd;stroke:none" transform="scale(1,-1) translate(0,-256)" /></svg>