<?xml version="1.0" encoding="utf-8" ?>
<svg baseProfile="full" height="256" version="1.1" width="256" xmlns="http://www.w3.org/2000/svg" xmlns:ev="http://www.w3.org/2001/xml-events" xmlns:xlink="http://www.w3.org/1999/xlink"><defs /><path d="M2292 721Q2292 698 2310.5 676.0Q2329 654 2351.5 626.5Q2374 599 2393.0 561.0Q2412 523 2412 467Q2412 415 2391.5 369.0Q2371 323 2336.5 289.0Q2302 255 2256.0 235.0Q2210 215 2158 215Q2107 215 2061.5 234.0Q2016 253 1981 288L1749 520Q1723 546 1691.0 560.5Q1659 575 1621 575Q1591 575 1565.0 563.5Q1539 552 1519.5 532.5Q1500 513 1489.0 487.0Q1478 461 1478 431V216Q1478 174 1486.5 128.5Q1495 83 1512.0 40.5Q1529 -2 1555.5 -39.0Q1582 -76 1617 -102Q1639 -119 1662.5 -127.0Q1686 -135 1711 -146Q1735 -156 1750.0 -171.5Q1765 -187 1765 -215Q1765 -250 1742.0 -268.5Q1719 -287 1686 -287Q1673 -287 1653.0 -280.0Q1633 -273 1611.5 -263.5Q1590 -254 1570.5 -243.0Q1551 -232 1540 -224Q1489 -187 1450.5 -137.0Q1412 -87 1386.0 -29.0Q1360 29 1347.0 91.5Q1334 154 1334 216V432Q1334 462 1322.5 488.0Q1311 514 1291.5 533.5Q1272 553 1246.0 564.0Q1220 575 1190 575Q1152 575 1120.5 560.5Q1089 546 1063 520L831 288Q796 253 750.0 234.0Q704 215 654 215Q602 215 555.5 234.5Q509 254 474.5 288.5Q440 323 419.5 368.5Q399 414 399 467Q399 524 418.0 562.0Q437 600 459.5 627.5Q482 655 501.0 676.5Q520 698 520 721Q520 744 501.0 765.5Q482 787 459.5 815.0Q437 843 418.0 881.5Q399 920 399 976Q399 1028 418.5 1073.5Q438 1119 471.5 1153.0Q505 1187 550.5 1206.5Q596 1226 648 1226Q699 1226 747.0 1206.0Q795 1186 831 1150L1046 935Q1076 905 1118 905Q1139 905 1157.5 913.0Q1176 921 1190.0 935.0Q1204 949 1212.0 967.0Q1220 985 1220 1006Q1220 1026 1213.0 1044.0Q1206 1062 1192 1076L971 1296Q936 1331 916.5 1377.0Q897 1423 897 1473Q897 1525 917.0 1570.5Q937 1616 971.5 1650.5Q1006 1685 1051.5 1705.0Q1097 1725 1149 1725Q1186 1725 1215.5 1716.0Q1245 1707 1267.5 1694.0Q1290 1681 1308.5 1665.0Q1327 1649 1342.5 1636.0Q1358 1623 1372.5 1614.0Q1387 1605 1403 1605Q1419 1605 1434.0 1614.0Q1449 1623 1465.0 1636.0Q1481 1649 1499.5 1665.0Q1518 1681 1541.0 1694.0Q1564 1707 1592.5 1716.0Q1621 1725 1657 1725Q1709 1725 1755.5 1705.0Q1802 1685 1836.0 1650.5Q1870 1616 1890.0 1569.5Q1910 1523 1910 1471Q1910 1421 1891.0 1375.0Q1872 1329 1837 1294L1621 1078Q1592 1049 1592 1006Q1592 985 1600.0 967.0Q1608 949 1622.0 935.0Q1636 921 1654.0 913.0Q1672 905 1693 905Q1713 905 1731.0 912.0Q1749 919 1763 933L1982 1153Q2017 1188 2063.5 1207.5Q2110 1227 2161 1227Q2213 1227 2258.5 1207.0Q2304 1187 2338.0 1153.0Q2372 1119 2392.0 1073.5Q2412 1028 2412 976Q2412 920 2393.0 882.0Q2374 844 2351.5 816.0Q2329 788 2310.5 766.0Q2292 744 2292 721Z" style="fill:#13a10e;stroke:none" transform="scale(1,-1) translate(0,-256)" /></svg>