<?xml version="1.0" encoding="utf-8" ?>
<svg baseProfile="full" height="256" version="1.1" width="256" xmlns="http://www.w3.org/2000/svg" xmlns:ev="http://www.w3.org/2001/xml-events" xmlns:xlink="http://www.w3.org/1999/xlink"><defs /><path d="M1118 791Q1148 791 1169.0 770.0Q1190 749 1190 719Q1190 689 1169.0 668.0Q1148 647 1118 647H687Q657 647 636.0 668.0Q615 689 615 719Q615 749 636.0 770.0Q657 791 687 791ZM2124 791Q2154 791 2175.0 770.0Q2196 749 2196 719Q2196 689 2175.0 668.0Q2154 647 2124 647H1693Q1664 647 1642.5 668.5Q1621 690 1621 719Q1621 748 1642.5 769.5Q1664 791 1693 791ZM1406 1510Q1435 1510 1456.5 1488.5Q1478 1467 1478 1438V1006Q1478 977 1456.5 956.0Q1435 935 1406 935Q1377 935 1355.5 956.0Q1334 977 1334 1006V1438Q1334 1467 1355.5 1488.5Q1377 1510 1406 1510Z" style="fill:#79db75;stroke:none" transform="scale(1,-1) translate(0,-256)" /></svg>