<?xml version="1.0" encoding="utf-8" ?>
<svg baseProfile="full" height="256" version="1.1" width="256" xmlns="http://www.w3.org/2000/svg" xmlns:ev="http://www.w3.org/2001/xml-events" xmlns:xlink="http://www.w3.org/1999/xlink"><defs /><path d="M1693 -431Q1666 -431 1641 -425Q1533 -398 1449.5 -334.5Q1366 -271 1308.0 -184.0Q1250 -97 1220.0 6.5Q1190 110 1190 216V432Q1182 432 1175.5 427.5Q1169 423 1164 418L932 186Q875 130 804.0 100.5Q733 71 654 71Q572 71 499.5 102.0Q427 133 373.0 187.0Q319 241 287.5 313.0Q256 385 256 468Q256 537 279.5 602.0Q303 667 348 721Q303 775 279.5 840.5Q256 906 256 975Q256 1057 286.5 1128.5Q317 1200 370.5 1253.5Q424 1307 495.5 1338.0Q567 1369 649 1369Q681 1369 712.5 1364.5Q744 1360 774 1350Q754 1412 754 1473Q754 1555 785.0 1627.0Q816 1699 869.5 1753.0Q923 1807 995.0 1838.0Q1067 1869 1149 1869Q1219 1869 1284.0 1845.0Q1349 1821 1403 1776Q1457 1821 1522.0 1845.0Q1587 1869 1657 1869Q1739 1869 1811.5 1838.0Q1884 1807 1938.0 1753.0Q1992 1699 2023.0 1626.5Q2054 1554 2054 1472Q2054 1408 2035 1351Q2097 1371 2160 1371Q2242 1371 2314.0 1340.0Q2386 1309 2440.0 1255.5Q2494 1202 2525.0 1130.0Q2556 1058 2556 976Q2556 906 2532.0 840.5Q2508 775 2463 721Q2508 667 2532.0 602.0Q2556 537 2556 467Q2556 385 2524.5 313.0Q2493 241 2439.0 187.0Q2385 133 2312.5 102.0Q2240 71 2158 71Q2079 71 2007.0 100.5Q1935 130 1879 186L1647 418Q1642 423 1636.5 427.0Q1631 431 1623 431V216Q1621 215 1621 212Q1621 177 1627.5 144.0Q1634 111 1649.0 82.5Q1664 54 1687.5 31.5Q1711 9 1746 -6Q1782 -22 1812.0 -40.5Q1842 -59 1863.5 -83.0Q1885 -107 1897.0 -139.0Q1909 -171 1909 -214Q1909 -259 1892.0 -298.5Q1875 -338 1846.0 -367.5Q1817 -397 1777.5 -414.0Q1738 -431 1693 -431Z" style="fill:#000000;stroke:none" transform="scale(1,-1) translate(0,-256)" /></svg>