<?xml version="1.0" encoding="utf-8" ?>
<svg baseProfile="full" height="256" version="1.1" width="256" xmlns="http://www.w3.org/2000/svg" xmlns:ev="http://www.w3.org/2001/xml-events" xmlns:xlink="http://www.w3.org/1999/xlink"><defs /><path d="M1550 252Q1550 237 1539.5 226.5Q1529 216 1514 216Q1499 216 1488.5 226.5Q1478 237 1478 252Q1478 267 1488.5 277.5Q1499 288 1514 288Q1529 288 1539.5 277.5Q1550 267 1550 252ZM615 252Q615 237 604.5 226.5Q594 216 579 216Q565 216 554.0 227.0Q543 238 543 252Q543 266 554.0 277.0Q565 288 579 288Q594 288 604.5 277.5Q615 267 615 252ZM615 1186Q615 1171 604.5 1160.5Q594 1150 579 1150Q565 1150 554.0 1161.0Q543 1172 543 1186Q543 1200 554.0 1211.0Q565 1222 579 1222Q594 1222 604.5 1211.5Q615 1201 615 1186ZM1550 1186Q1550 1171 1539.5 1160.5Q1529 1150 1514 1150Q1499 1150 1488.5 1160.5Q1478 1171 1478 1186Q1478 1201 1488.5 1211.5Q1499 1222 1514 1222Q1529 1222 1539.5 1211.5Q1550 1201 1550 1186ZM1658 0Q1658 -14 1647.0 -25.0Q1636 -36 1622 -36Q1607 -36 1596.5 -25.5Q1586 -15 1586 0Q1586 15 1596.5 25.5Q1607 36 1622 36Q1636 36 1647.0 25.0Q1658 14 1658 0ZM723 0Q723 -15 712.5 -25.5Q702 -36 687 -36Q672 -36 661.5 -25.5Q651 -15 651 0Q651 15 661.5 25.5Q672 36 687 36Q702 36 712.5 25.5Q723 15 723 0ZM723 935Q723 920 712.5 909.5Q702 899 687 899Q672 899 661.5 909.5Q651 920 651 935Q651 949 662.0 960.0Q673 971 687 971Q701 971 712.0 960.0Q723 949 723 935ZM1658 935Q1658 921 1647.0 910.0Q1636 899 1622 899Q1607 899 1596.5 909.5Q1586 920 1586 935Q1586 949 1597.0 960.0Q1608 971 1622 971Q1636 971 1647.0 960.0Q1658 949 1658 935ZM1658 503Q1658 489 1647.0 478.0Q1636 467 1622 467Q1607 467 1596.5 477.5Q1586 488 1586 503Q1586 518 1596.5 528.5Q1607 539 1622 539Q1636 539 1647.0 528.0Q1658 517 1658 503ZM723 503Q723 488 712.5 477.5Q702 467 687 467Q672 467 661.5 477.5Q651 488 651 503Q651 518 661.5 528.5Q672 539 687 539Q702 539 712.5 528.5Q723 518 723 503ZM723 1438Q723 1423 712.5 1412.5Q702 1402 687 1402Q672 1402 661.5 1412.5Q651 1423 651 1438Q651 1453 661.5 1463.5Q672 1474 687 1474Q702 1474 712.5 1463.5Q723 1453 723 1438ZM1658 1438Q1658 1424 1647.0 1413.0Q1636 1402 1622 1402Q1607 1402 1596.5 1412.5Q1586 1423 1586 1438Q1586 1453 1596.5 1463.5Q1607 1474 1622 1474Q1636 1474 1647.0 1463.0Q1658 1452 1658 1438ZM1909 611Q1909 596 1898.5 585.5Q1888 575 1873 575Q1858 575 1847.5 585.5Q1837 596 1837 611Q1837 626 1847.5 636.5Q1858 647 1873 647Q1888 647 1898.5 636.5Q1909 626 1909 611ZM975 611Q975 596 964.5 585.5Q954 575 939 575Q924 575 913.5 585.5Q903 596 903 611Q903 626 913.5 636.5Q924 647 939 647Q954 647 964.5 636.5Q975 626 975 611ZM975 1546Q975 1531 964.5 1520.5Q954 1510 939 1510Q924 1510 913.5 1520.5Q903 1531 903 1546Q903 1560 914.0 1570.5Q925 1581 939 1581Q953 1581 964.0 1570.5Q975 1560 975 1546ZM1909 1546Q1909 1531 1898.5 1520.5Q1888 1510 1873 1510Q1858 1510 1847.5 1520.5Q1837 1531 1837 1546Q1837 1560 1848.0 1570.5Q1859 1581 1873 1581Q1887 1581 1898.0 1570.5Q1909 1560 1909 1546Z" style="fill:#757575;stroke:none" transform="scale(1,-1) translate(0,-256)" /></svg>