<?xml version="1.0" encoding="utf-8" ?>
<svg baseProfile="full" height="256" version="1.1" width="256" xmlns="http://www.w3.org/2000/svg" xmlns:ev="http://www.w3.org/2001/xml-events" xmlns:xlink="http://www.w3.org/1999/xlink"><defs /><path d="M2089 0Q2089 15 2099.5 25.5Q2110 36 2125 36Q2140 36 2150.5 25.5Q2161 15 2161 0Q2161 -15 2150.5 -25.5Q2140 -36 2125 -36Q2110 -36 2099.5 -25.5Q2089 -15 2089 0ZM1154 0Q1154 15 1164.5 25.5Q1175 36 1190 36Q1205 36 1215.5 25.5Q1226 15 1226 0Q1226 -15 1215.5 -25.5Q1205 -36 1190 -36Q1175 -36 1164.5 -25.5Q1154 -15 1154 0ZM1154 935Q1154 949 1165.0 960.0Q1176 971 1190 971Q1204 971 1215.0 960.0Q1226 949 1226 935Q1226 920 1215.5 909.5Q1205 899 1190 899Q1175 899 1164.5 909.5Q1154 920 1154 935ZM2089 935Q2089 949 2100.0 960.0Q2111 971 2125 971Q2139 971 2150.0 960.0Q2161 949 2161 935Q2161 920 2150.5 909.5Q2140 899 2125 899Q2110 899 2099.5 909.5Q2089 920 2089 935Z" style="fill:#f03a17;stroke:none" transform="scale(1,-1) translate(0,-256)" /></svg>