<?xml version="1.0" encoding="utf-8" ?>
<svg baseProfile="full" height="256" version="1.1" width="256" xmlns="http://www.w3.org/2000/svg" xmlns:ev="http://www.w3.org/2001/xml-events" xmlns:xlink="http://www.w3.org/1999/xlink"><defs /><path d="M2125 252Q2125 200 2105.0 154.0Q2085 108 2051.0 74.0Q2017 40 1971.0 20.0Q1925 0 1873 0Q1821 0 1775.0 20.0Q1729 40 1695.0 74.0Q1661 108 1641.5 154.0Q1622 200 1622 252Q1622 304 1641.5 350.0Q1661 396 1695.0 430.0Q1729 464 1774.5 483.5Q1820 503 1873 503Q1914 503 1953.0 490.5Q1992 478 2024 453Q2024 430 2038.0 416.0Q2052 402 2073 402Q2099 370 2112.0 331.5Q2125 293 2125 252ZM2161 503Q2161 488 2150.5 477.5Q2140 467 2125 467Q2110 467 2099.5 477.5Q2089 488 2089 503Q2089 518 2099.5 528.5Q2110 539 2125 539Q2140 539 2150.5 528.5Q2161 518 2161 503ZM1190 252Q1190 211 1177.5 172.0Q1165 133 1140 101Q1135 101 1131.0 101.5Q1127 102 1122 102Q1101 102 1095.0 88.5Q1089 75 1089 58V50Q1057 26 1018.5 13.0Q980 0 939 0Q887 0 841.0 20.0Q795 40 761.0 74.0Q727 108 707.0 154.0Q687 200 687 252Q687 304 707.0 350.0Q727 396 761.0 430.0Q795 464 841.0 483.5Q887 503 939 503Q991 503 1037.0 483.5Q1083 464 1117.0 430.0Q1151 396 1170.5 350.0Q1190 304 1190 252ZM1226 503Q1226 488 1215.5 477.5Q1205 467 1190 467Q1175 467 1164.5 477.5Q1154 488 1154 503Q1154 518 1164.5 528.5Q1175 539 1190 539Q1205 539 1215.5 528.5Q1226 518 1226 503ZM1190 1186Q1190 1133 1170.5 1087.5Q1151 1042 1117.0 1008.0Q1083 974 1037.0 954.5Q991 935 939 935Q887 935 841.0 954.5Q795 974 761.0 1008.0Q727 1042 707.0 1088.0Q687 1134 687 1186Q687 1227 700.0 1265.5Q713 1304 737 1337Q742 1336 748.0 1335.5Q754 1335 759 1335Q775 1335 782.0 1348.0Q789 1361 789 1375Q789 1378 789.0 1381.5Q789 1385 788 1388Q821 1412 859.5 1425.0Q898 1438 939 1438Q991 1438 1037.0 1418.0Q1083 1398 1117.0 1364.0Q1151 1330 1170.5 1284.0Q1190 1238 1190 1186ZM1226 1438Q1226 1423 1215.5 1412.5Q1205 1402 1190 1402Q1175 1402 1164.5 1412.5Q1154 1423 1154 1438Q1154 1453 1164.5 1463.5Q1175 1474 1190 1474Q1205 1474 1215.5 1463.5Q1226 1453 1226 1438ZM2125 1186Q2125 1134 2105.0 1088.0Q2085 1042 2051.0 1008.0Q2017 974 1971.0 954.5Q1925 935 1873 935Q1832 935 1793.0 947.5Q1754 960 1722 985Q1722 1010 1708.0 1021.5Q1694 1033 1672 1035Q1647 1067 1634.5 1106.0Q1622 1145 1622 1186Q1622 1238 1641.5 1284.0Q1661 1330 1695.0 1364.0Q1729 1398 1775.0 1418.0Q1821 1438 1873 1438Q1925 1438 1971.0 1418.0Q2017 1398 2051.0 1364.0Q2085 1330 2105.0 1284.0Q2125 1238 2125 1186ZM2161 1438Q2161 1423 2150.5 1412.5Q2140 1402 2125 1402Q2110 1402 2099.5 1412.5Q2089 1423 2089 1438Q2089 1453 2099.5 1463.5Q2110 1474 2125 1474Q2140 1474 2150.5 1463.5Q2161 1453 2161 1438Z" style="fill:#383838;stroke:none" transform="scale(1,-1) translate(0,-256)" /></svg>