<?xml version="1.0" encoding="utf-8" ?>
<svg baseProfile="full" height="256" version="1.1" width="256" xmlns="http://www.w3.org/2000/svg" xmlns:ev="http://www.w3.org/2001/xml-events" xmlns:xlink="http://www.w3.org/1999/xlink"><defs /><path d="M2053 252Q2053 214 2039.0 181.5Q2025 149 2000.5 124.5Q1976 100 1943.0 86.0Q1910 72 1873 72Q1835 72 1802.5 86.0Q1770 100 1745.5 124.5Q1721 149 1707.0 181.5Q1693 214 1693 252Q1693 289 1707.0 321.5Q1721 354 1745.5 378.5Q1770 403 1803.0 417.0Q1836 431 1873 431Q1910 431 1943.0 417.0Q1976 403 2000.5 378.5Q2025 354 2039.0 321.5Q2053 289 2053 252ZM2197 252Q2197 267 2207.5 277.5Q2218 288 2233 288Q2247 288 2257.5 277.0Q2268 266 2268 252Q2268 238 2257.5 227.0Q2247 216 2233 216Q2218 216 2207.5 226.5Q2197 237 2197 252ZM1118 252Q1118 215 1104.0 182.0Q1090 149 1065.5 124.5Q1041 100 1008.5 86.0Q976 72 939 72Q901 72 868.5 86.0Q836 100 811.5 124.5Q787 149 773.0 181.5Q759 214 759 252Q759 289 773.0 321.5Q787 354 811.5 378.5Q836 403 869.0 417.0Q902 431 939 431Q976 431 1008.5 417.0Q1041 403 1065.5 378.5Q1090 354 1104.0 321.5Q1118 289 1118 252ZM1262 252Q1262 267 1272.5 277.5Q1283 288 1298 288Q1313 288 1323.5 277.5Q1334 267 1334 252Q1334 237 1323.5 226.5Q1313 216 1298 216Q1283 216 1272.5 226.5Q1262 237 1262 252ZM1118 1186Q1118 1149 1104.0 1116.0Q1090 1083 1065.5 1058.5Q1041 1034 1008.5 1020.0Q976 1006 939 1006Q901 1006 868.5 1020.0Q836 1034 811.5 1058.5Q787 1083 773.0 1115.5Q759 1148 759 1186Q759 1223 773.0 1256.0Q787 1289 811.5 1313.5Q836 1338 868.5 1352.0Q901 1366 939 1366Q976 1366 1008.5 1352.0Q1041 1338 1065.5 1313.5Q1090 1289 1104.0 1256.0Q1118 1223 1118 1186ZM1262 1186Q1262 1201 1272.5 1211.5Q1283 1222 1298 1222Q1313 1222 1323.5 1211.5Q1334 1201 1334 1186Q1334 1171 1323.5 1160.5Q1313 1150 1298 1150Q1283 1150 1272.5 1160.5Q1262 1171 1262 1186ZM2053 1186Q2053 1148 2039.0 1115.5Q2025 1083 2000.5 1058.5Q1976 1034 1943.0 1020.0Q1910 1006 1873 1006Q1835 1006 1802.5 1020.0Q1770 1034 1745.5 1058.5Q1721 1083 1707.0 1115.5Q1693 1148 1693 1186Q1693 1223 1707.0 1256.0Q1721 1289 1745.5 1313.5Q1770 1338 1802.5 1352.0Q1835 1366 1873 1366Q1910 1366 1943.0 1352.0Q1976 1338 2000.5 1313.5Q2025 1289 2039.0 1256.0Q2053 1223 2053 1186ZM2197 1186Q2197 1201 2207.5 1211.5Q2218 1222 2233 1222Q2247 1222 2257.5 1211.0Q2268 1200 2268 1186Q2268 1172 2257.5 1161.0Q2247 1150 2233 1150Q2218 1150 2207.5 1160.5Q2197 1171 2197 1186Z" style="fill:#2b2b2b;stroke:none" transform="scale(1,-1) translate(0,-256)" /></svg>