<?xml version="1.0" encoding="utf-8" ?>
<svg baseProfile="full" height="256" version="1.1" width="256" xmlns="http://www.w3.org/2000/svg" xmlns:ev="http://www.w3.org/2001/xml-events" xmlns:xlink="http://www.w3.org/1999/xlink"><defs /><path d="M543 -431Q484 -431 431.5 -408.5Q379 -386 340.0 -347.0Q301 -308 278.5 -255.5Q256 -203 256 -144V1581Q256 1639 279.0 1691.5Q302 1744 341.0 1783.5Q380 1823 432.0 1846.0Q484 1869 543 1869H2268Q2328 1869 2380.5 1846.5Q2433 1824 2472.0 1785.0Q2511 1746 2533.5 1693.5Q2556 1641 2556 1581V-144Q2556 -203 2533.0 -255.0Q2510 -307 2470.5 -346.0Q2431 -385 2378.5 -408.0Q2326 -431 2268 -431Z" style="fill:#000000;stroke:none" transform="scale(1,-1) translate(0,-256)" /></svg>