<?xml version="1.0" encoding="utf-8" ?>
<svg baseProfile="full" height="256" version="1.1" width="256" xmlns="http://www.w3.org/2000/svg" xmlns:ev="http://www.w3.org/2001/xml-events" xmlns:xlink="http://www.w3.org/1999/xlink"><defs /><path d="M788 1388 964 1212Q975 1201 975 1186Q975 1171 963.5 1160.5Q952 1150 938 1150Q924 1150 913 1161L737 1337Q759 1365 788 1388ZM2024 453Q2052 430 2075 402L1899 226Q1889 216 1873 216Q1859 216 1848.0 226.5Q1837 237 1837 251Q1837 266 1848 277ZM1140 101Q1117 72 1089 50L913 226Q903 236 903 252Q903 266 913.5 276.5Q924 287 938 287Q954 287 964 277ZM1873 1222Q1888 1222 1898.5 1211.5Q1909 1201 1909 1186Q1909 1171 1899 1161L1722 985Q1693 1006 1672 1035L1848 1212Q1858 1222 1873 1222Z" style="fill:#f2f2f2;stroke:none" transform="scale(1,-1) translate(0,-256)" /></svg>