<?xml version="1.0" encoding="utf-8" ?>
<svg baseProfile="full" height="256" version="1.1" width="256" xmlns="http://www.w3.org/2000/svg" xmlns:ev="http://www.w3.org/2001/xml-events" xmlns:xlink="http://www.w3.org/1999/xlink"><defs /><path d="M831 360Q831 315 814.0 276.0Q797 237 767.5 207.5Q738 178 699.0 161.0Q660 144 615 144Q570 144 531.0 161.0Q492 178 463.0 207.5Q434 237 417.0 276.0Q400 315 400 360L493 503L400 647V935L505 1078L400 1222V1438H831V1222L709 1078L831 935ZM2053 1725Q2098 1725 2137.0 1708.0Q2176 1691 2205.0 1662.0Q2234 1633 2251.0 1594.0Q2268 1555 2268 1510L2127 1366L2268 1222V935L2053 791L2268 647V360L2147 216L2268 72V-72L2197 -151L2125 -72H2053L1981 -151L1909 -72H1837L1765 -151L1693 -72H1622L1550 -151L1478 -72H1406L1334 -151L1262 -72V72L1445 216L1262 360V647L1334 791L1262 935V1222L1387 1366L1262 1510Q1262 1555 1245.0 1594.0Q1228 1633 1199.0 1662.0Q1170 1691 1131.0 1708.0Q1092 1725 1047 1725Z" style="fill:#b3dbf2;stroke:none" transform="scale(1,-1) translate(0,-256)" /></svg>