<?xml version="1.0" encoding="utf-8" ?>
<svg baseProfile="full" height="256" version="1.1" width="256" xmlns="http://www.w3.org/2000/svg" xmlns:ev="http://www.w3.org/2001/xml-events" xmlns:xlink="http://www.w3.org/1999/xlink"><defs /><path d="M1047 1725Q1072 1725 1104.5 1720.0Q1137 1715 1170.5 1708.5Q1204 1702 1237.0 1694.5Q1270 1687 1296 1682L1461 144H615L831 1438Q832 1443 832.0 1449.0Q832 1455 832 1461Q832 1474 831.5 1486.5Q831 1499 831 1510Q831 1555 848.0 1594.0Q865 1633 894.5 1662.0Q924 1691 963.0 1708.0Q1002 1725 1047 1725Z" style="fill:#0078d7;stroke:none" transform="scale(1,-1) translate(0,-256)" /></svg>