<?xml version="1.0" encoding="utf-8" ?>
<svg baseProfile="full" height="256" version="1.1" width="256" xmlns="http://www.w3.org/2000/svg" xmlns:ev="http://www.w3.org/2001/xml-events" xmlns:xlink="http://www.w3.org/1999/xlink"><defs /><path d="M1118 -431V0H615Q540 0 475.0 28.5Q410 57 361.0 106.0Q312 155 284.0 220.5Q256 286 256 360V1581H694Q707 1644 740.0 1696.5Q773 1749 819.5 1787.5Q866 1826 924.5 1847.5Q983 1869 1047 1869H2053Q2127 1869 2192.5 1840.5Q2258 1812 2306.5 1763.5Q2355 1715 2383.5 1649.5Q2412 1584 2412 1510V-431Z" style="fill:#000000;stroke:none" transform="scale(1,-1) translate(0,-256)" /></svg>