<?xml version="1.0" encoding="utf-8" ?>
<svg baseProfile="full" height="256" version="1.1" width="256" xmlns="http://www.w3.org/2000/svg" xmlns:ev="http://www.w3.org/2001/xml-events" xmlns:xlink="http://www.w3.org/1999/xlink"><defs /><path d="M1338 1149Q1348 1149 1358.0 1145.0Q1368 1141 1377.5 1136.5Q1387 1132 1396.5 1128.0Q1406 1124 1416 1124H1443Q1507 1124 1571.0 1123.0Q1635 1122 1699.0 1117.5Q1763 1113 1826.0 1102.5Q1889 1092 1950 1073Q1997 1058 2049.5 1036.5Q2102 1015 2153.0 987.0Q2204 959 2251.0 923.5Q2298 888 2334.0 845.5Q2370 803 2391.0 753.5Q2412 704 2412 647Q2412 579 2383.0 522.0Q2354 465 2305.5 417.5Q2257 370 2194.5 332.5Q2132 295 2065.5 266.0Q1999 237 1933.5 217.0Q1868 197 1813 185Q1692 159 1570.5 151.0Q1449 143 1325 143Q1299 143 1271.5 144.0Q1244 145 1219 152Q1207 155 1193.5 161.5Q1180 168 1166.5 174.5Q1153 181 1140.0 185.5Q1127 190 1115 190Q1098 190 1082.0 183.0Q1066 176 1049 176Q1044 176 1041 177Q984 188 914.0 207.5Q844 227 773.0 255.5Q702 284 634.5 321.5Q567 359 515.0 407.5Q463 456 431.5 515.5Q400 575 400 647Q400 701 421.0 751.0Q442 801 476 843Q519 896 581.5 939.5Q644 983 717.5 1017.0Q791 1051 872.5 1076.0Q954 1101 1035.5 1117.0Q1117 1133 1194.5 1141.0Q1272 1149 1338 1149ZM1406 288Q1494 288 1581.0 295.5Q1668 303 1755 320Q1792 327 1844.5 341.0Q1897 355 1954.0 375.5Q2011 396 2067.0 423.5Q2123 451 2168.0 485.0Q2213 519 2240.5 559.5Q2268 600 2268 647Q2268 694 2240.5 734.5Q2213 775 2168.0 809.0Q2123 843 2067.0 870.5Q2011 898 1954.0 918.5Q1897 939 1844.5 953.0Q1792 967 1755 974Q1668 991 1581.0 998.5Q1494 1006 1406 1006Q1318 1006 1231.0 998.5Q1144 991 1057 974Q1020 967 967.5 953.0Q915 939 858.0 918.5Q801 898 744.5 870.5Q688 843 643.5 809.0Q599 775 571.0 734.5Q543 694 543 647Q543 597 575.0 556.5Q607 516 658.5 484.0Q710 452 774.0 427.5Q838 403 902.0 385.5Q966 368 1023.0 357.5Q1080 347 1118 342V309Q1190 298 1262.0 293.0Q1334 288 1406 288Z" style="fill:#00bcf2;stroke:none" transform="scale(1,-1) translate(0,-256)" /></svg>