<?xml version="1.0" encoding="utf-8" ?>
<svg baseProfile="full" height="256" version="1.1" width="256" xmlns="http://www.w3.org/2000/svg" xmlns:ev="http://www.w3.org/2001/xml-events" xmlns:xlink="http://www.w3.org/1999/xlink"><defs /><path d="M2195 1128Q2264 1092 2329.5 1044.0Q2395 996 2445.0 935.5Q2495 875 2525.5 803.0Q2556 731 2556 647Q2556 565 2528.0 495.5Q2500 426 2452.0 367.0Q2404 308 2340.0 260.5Q2276 213 2205.5 175.5Q2135 138 2061.5 110.0Q1988 82 1920 64Q1811 35 1700.5 20.0Q1590 5 1478 1Q1478 -29 1466.5 -55.0Q1455 -81 1435.5 -101.0Q1416 -121 1390.0 -132.5Q1364 -144 1334 -144Q1286 -144 1248 -115L1118 -18L989 -115Q951 -144 903 -144Q873 -144 847.0 -132.5Q821 -121 801.5 -101.0Q782 -81 770.5 -55.0Q759 -29 759 1Q759 26 766.5 49.5Q774 73 782 96Q690 127 596.5 176.5Q503 226 427.0 294.0Q351 362 303.5 450.0Q256 538 256 647Q256 732 286.0 804.0Q316 876 367.0 936.0Q418 996 485.0 1044.0Q552 1092 626.5 1129.5Q701 1167 778.0 1194.0Q855 1221 925 1239Q1066 1274 1210.5 1284.0Q1355 1294 1500 1294Q1514 1340 1526.5 1387.0Q1539 1434 1556 1479Q1574 1526 1607.5 1553.5Q1641 1581 1693 1581Q1746 1581 1779.5 1554.0Q1813 1527 1831 1479Q1848 1434 1860.5 1387.0Q1873 1340 1887 1294H2053Q2102 1294 2137.0 1267.5Q2172 1241 2189 1196Q2197 1172 2197 1151Q2197 1145 2196.5 1139.5Q2196 1134 2195 1128Z" style="fill:#000000;stroke:none" transform="scale(1,-1) translate(0,-256)" /></svg>