<?xml version="1.0" encoding="utf-8" ?>
<svg baseProfile="full" height="256" version="1.1" width="256" xmlns="http://www.w3.org/2000/svg" xmlns:ev="http://www.w3.org/2001/xml-events" xmlns:xlink="http://www.w3.org/1999/xlink"><defs /><path d="M1478 1438Q1478 1408 1457.0 1387.0Q1436 1366 1406 1366Q1376 1366 1355.0 1387.0Q1334 1408 1334 1438Q1334 1467 1355.5 1488.5Q1377 1510 1406 1510Q1435 1510 1456.5 1488.5Q1478 1467 1478 1438ZM1837 1365Q1837 1336 1816.0 1315.0Q1795 1294 1766 1294Q1736 1294 1714.5 1315.0Q1693 1336 1693 1366Q1693 1395 1714.5 1416.5Q1736 1438 1765 1438Q1795 1438 1816.0 1416.5Q1837 1395 1837 1365ZM2125 1078Q2125 1049 2103.5 1027.5Q2082 1006 2053 1006Q2024 1006 2002.5 1027.5Q1981 1049 1981 1078Q1981 1107 2002.0 1128.5Q2023 1150 2052 1150Q2082 1150 2103.5 1129.0Q2125 1108 2125 1078ZM2125 647Q2095 647 2074.0 668.0Q2053 689 2053 719Q2053 749 2074.0 770.0Q2095 791 2125 791Q2154 791 2175.5 769.5Q2197 748 2197 719Q2197 690 2175.5 668.5Q2154 647 2125 647ZM2052 287Q2023 287 2002.0 308.5Q1981 330 1981 359Q1981 389 2002.0 410.5Q2023 432 2053 432Q2082 432 2103.5 410.5Q2125 389 2125 360Q2125 330 2103.5 308.5Q2082 287 2052 287ZM1765 0Q1736 0 1714.5 21.5Q1693 43 1693 72Q1693 101 1714.5 122.5Q1736 144 1765 144Q1794 144 1815.5 123.0Q1837 102 1837 73Q1837 43 1816.0 21.5Q1795 0 1765 0ZM1334 0Q1334 30 1355.0 51.0Q1376 72 1406 72Q1436 72 1457.0 51.0Q1478 30 1478 0Q1478 -29 1456.5 -50.5Q1435 -72 1406 -72Q1377 -72 1355.5 -50.5Q1334 -29 1334 0ZM974 73Q974 102 996.0 123.0Q1018 144 1047 144Q1076 144 1097.5 122.5Q1119 101 1119 72Q1119 43 1097.5 21.5Q1076 0 1047 0Q1017 0 995.5 21.5Q974 43 974 73ZM687 360Q687 389 708.5 410.5Q730 432 759 432Q788 432 809.5 410.5Q831 389 831 360Q831 331 810.0 309.0Q789 287 760 287Q730 287 708.5 308.5Q687 330 687 360ZM687 791Q717 791 738.0 770.0Q759 749 759 719Q759 689 738.0 668.0Q717 647 687 647Q658 647 636.5 668.5Q615 690 615 719Q615 748 636.5 769.5Q658 791 687 791ZM760 1150Q789 1150 810.0 1128.5Q831 1107 831 1078Q831 1049 809.5 1027.5Q788 1006 759 1006Q730 1006 708.5 1027.5Q687 1049 687 1078Q687 1108 708.5 1129.0Q730 1150 760 1150ZM1047 1438Q1076 1438 1097.5 1416.5Q1119 1395 1119 1366Q1119 1336 1097.5 1315.0Q1076 1294 1046 1294Q1017 1294 995.5 1315.0Q974 1336 974 1365Q974 1395 995.5 1416.5Q1017 1438 1047 1438Z" style="fill:#cccccc;stroke:none" transform="scale(1,-1) translate(0,-256)" /></svg>