<?xml version="1.0" encoding="utf-8" ?>
<svg baseProfile="full" height="256" version="1.1" width="256" xmlns="http://www.w3.org/2000/svg" xmlns:ev="http://www.w3.org/2001/xml-events" xmlns:xlink="http://www.w3.org/1999/xlink"><defs /><path d="M2412 575Q2412 496 2385.0 425.0Q2358 354 2310.0 297.0Q2262 240 2196.5 201.5Q2131 163 2053 150V108Q2053 56 2033.0 10.0Q2013 -36 1979.0 -70.0Q1945 -104 1899.0 -124.0Q1853 -144 1801 -144Q1773 -144 1745.5 -137.0Q1718 -130 1693 -118V-179Q1693 -231 1673.5 -277.0Q1654 -323 1620.0 -357.0Q1586 -391 1540.0 -411.0Q1494 -431 1442 -431Q1390 -431 1344.0 -411.0Q1298 -391 1264.0 -357.0Q1230 -323 1210.0 -277.0Q1190 -231 1190 -179Q1190 -169 1190.5 -159.5Q1191 -150 1192 -140Q1151 -134 1118 -118V-179Q1118 -231 1098.5 -277.0Q1079 -323 1045.0 -357.0Q1011 -391 965.0 -411.0Q919 -431 867 -431Q815 -431 769.0 -411.0Q723 -391 689.0 -357.0Q655 -323 635.0 -277.0Q615 -231 615 -179Q615 -160 618 -140Q571 -134 531.5 -112.0Q492 -90 462.5 -57.0Q433 -24 416.5 18.5Q400 61 400 108Q400 147 411.5 184.5Q423 222 446 254Q401 290 365.5 334.0Q330 378 306.0 428.5Q282 479 269.0 534.5Q256 590 256 647Q256 751 295.5 842.5Q335 934 403.5 1002.5Q472 1071 563.5 1110.5Q655 1150 759 1150Q776 1150 792.0 1149.0Q808 1148 825 1146Q865 1229 926.5 1296.0Q988 1363 1063.5 1410.5Q1139 1458 1226.5 1484.0Q1314 1510 1406 1510Q1520 1510 1623.5 1472.5Q1727 1435 1811.0 1367.5Q1895 1300 1954.0 1207.0Q2013 1114 2038 1003Q2118 992 2186.5 954.5Q2255 917 2305.0 859.5Q2355 802 2383.5 729.0Q2412 656 2412 575Z" style="fill:#000000;stroke:none" transform="scale(1,-1) translate(0,-256)" /></svg>