<?xml version="1.0" encoding="utf-8" ?>
<svg baseProfile="full" height="256" version="1.1" width="256" xmlns="http://www.w3.org/2000/svg" xmlns:ev="http://www.w3.org/2001/xml-events" xmlns:xlink="http://www.w3.org/1999/xlink"><defs /><path d="M601 204 759 288V108Q759 85 750.5 65.5Q742 46 727.5 31.5Q713 17 693.0 8.5Q673 0 651 0Q629 0 609.5 8.5Q590 17 575.0 32.0Q560 47 551.5 66.5Q543 86 543 108Q543 138 559.0 163.5Q575 189 601 204ZM1751 204 1909 288V108Q1909 85 1900.5 65.5Q1892 46 1877.5 31.5Q1863 17 1843.0 8.5Q1823 0 1801 0Q1779 0 1759.5 8.5Q1740 17 1725.0 32.0Q1710 47 1701.5 66.5Q1693 86 1693 108Q1693 138 1709.0 163.5Q1725 189 1751 204ZM1176 204 1334 288V108Q1334 85 1325.5 65.5Q1317 46 1302.5 31.5Q1288 17 1268.0 8.5Q1248 0 1226 0Q1204 0 1184.5 8.5Q1165 17 1150.0 32.0Q1135 47 1126.5 66.5Q1118 86 1118 108Q1118 138 1134.0 163.5Q1150 189 1176 204ZM759 -179Q759 -149 775.0 -123.5Q791 -98 817 -84L975 0V-179Q975 -201 966.5 -220.5Q958 -240 943.0 -255.0Q928 -270 908.5 -278.5Q889 -287 867 -287Q844 -287 824.5 -278.5Q805 -270 790.5 -255.5Q776 -241 767.5 -221.5Q759 -202 759 -179ZM1334 -179Q1334 -149 1350.0 -123.5Q1366 -98 1392 -84L1550 0V-179Q1550 -201 1541.5 -220.5Q1533 -240 1518.0 -255.0Q1503 -270 1483.5 -278.5Q1464 -287 1442 -287Q1419 -287 1399.5 -278.5Q1380 -270 1365.5 -255.5Q1351 -241 1342.5 -221.5Q1334 -202 1334 -179Z" style="fill:#00bcf2;stroke:none" transform="scale(1,-1) translate(0,-256)" /></svg>