<?xml version="1.0" encoding="utf-8" ?>
<svg baseProfile="full" height="256" version="1.1" width="256" xmlns="http://www.w3.org/2000/svg" xmlns:ev="http://www.w3.org/2001/xml-events" xmlns:xlink="http://www.w3.org/1999/xlink"><defs /><path d="M1909 863H1981Q2041 863 2093.0 840.5Q2145 818 2184.0 779.0Q2223 740 2245.5 687.5Q2268 635 2268 575Q2268 515 2245.5 463.0Q2223 411 2184.0 372.0Q2145 333 2093.0 310.5Q2041 288 1981 288H759Q685 288 619.5 316.0Q554 344 505.0 393.0Q456 442 428.0 507.5Q400 573 400 647Q400 721 428.0 786.5Q456 852 505.0 900.5Q554 949 619.5 977.5Q685 1006 759 1006Q800 1006 839.5 997.5Q879 989 915 971Q934 1058 979.5 1130.5Q1025 1203 1090.5 1255.5Q1156 1308 1236.5 1337.0Q1317 1366 1406 1366Q1510 1366 1601.5 1326.5Q1693 1287 1761.5 1218.5Q1830 1150 1869.5 1058.5Q1909 967 1909 863Z" style="fill:#ffffff;stroke:none" transform="scale(1,-1) translate(0,-256)" /></svg>