<?xml version="1.0" encoding="utf-8" ?>
<svg baseProfile="full" height="256" version="1.1" width="256" xmlns="http://www.w3.org/2000/svg" xmlns:ev="http://www.w3.org/2001/xml-events" xmlns:xlink="http://www.w3.org/1999/xlink"><defs /><path d="M1478 1869Q1577 1869 1669.0 1843.0Q1761 1817 1840.5 1770.5Q1920 1724 1986.0 1658.0Q2052 1592 2098.5 1512.5Q2145 1433 2171.0 1341.0Q2197 1249 2197 1150Q2197 1059 2177.5 979.0Q2158 899 2121.0 828.0Q2084 757 2031.5 693.0Q1979 629 1913 569Q1881 540 1854.0 509.5Q1827 479 1807.0 444.5Q1787 410 1776.0 371.5Q1765 333 1765 288V37Q1782 3 1791.5 -33.5Q1801 -70 1801 -108Q1801 -175 1775.5 -233.5Q1750 -292 1706.0 -336.0Q1662 -380 1603.5 -405.5Q1545 -431 1478 -431Q1411 -431 1352.0 -405.5Q1293 -380 1249.0 -336.0Q1205 -292 1179.5 -233.5Q1154 -175 1154 -108Q1154 -70 1163.5 -33.5Q1173 3 1190 37V288Q1190 465 1256.0 625.5Q1322 786 1443 915Q1468 941 1494.0 964.5Q1520 988 1546 1012Q1577 1040 1599.5 1073.0Q1622 1106 1622 1150Q1622 1180 1610.5 1206.0Q1599 1232 1579.5 1251.5Q1560 1271 1534.0 1282.5Q1508 1294 1478 1294Q1448 1294 1422.0 1282.5Q1396 1271 1376.5 1251.5Q1357 1232 1345.5 1206.0Q1334 1180 1334 1150V1006H868L832 94Q867 51 885.0 -1.0Q903 -53 903 -108Q903 -175 877.5 -233.5Q852 -292 808.0 -336.0Q764 -380 705.0 -405.5Q646 -431 579 -431Q512 -431 453.5 -405.5Q395 -380 351.0 -336.0Q307 -292 281.5 -233.5Q256 -175 256 -108Q256 -53 274.0 -1.0Q292 51 327 94L256 1869H903L891 1564Q942 1636 1007.0 1692.5Q1072 1749 1147.5 1788.0Q1223 1827 1306.5 1848.0Q1390 1869 1478 1869Z" style="fill:#000000;stroke:none" transform="scale(1,-1) translate(0,-256)" /></svg>