<?xml version="1.0" encoding="utf-8" ?>
<svg baseProfile="full" height="256" version="1.1" width="256" xmlns="http://www.w3.org/2000/svg" xmlns:ev="http://www.w3.org/2001/xml-events" xmlns:xlink="http://www.w3.org/1999/xlink"><defs /><path d="M1478 1725Q1596 1725 1701.0 1679.5Q1806 1634 1884.0 1556.0Q1962 1478 2007.5 1373.0Q2053 1268 2053 1150Q2053 1075 2037.0 1010.5Q2021 946 1991.0 889.0Q1961 832 1918.0 780.5Q1875 729 1821 680Q1776 639 1739.5 596.5Q1703 554 1677.0 506.0Q1651 458 1636.5 404.5Q1622 351 1622 288H1334Q1334 386 1355.5 470.0Q1377 554 1416.5 628.5Q1456 703 1512.0 770.0Q1568 837 1638 902Q1694 954 1729.5 1012.0Q1765 1070 1765 1150Q1765 1209 1742.0 1261.5Q1719 1314 1680.0 1353.0Q1641 1392 1589.0 1415.0Q1537 1438 1478 1438Q1418 1438 1365.5 1415.5Q1313 1393 1274.0 1354.0Q1235 1315 1212.5 1262.5Q1190 1210 1190 1150H903Q903 1268 948.5 1373.0Q994 1478 1072.0 1556.0Q1150 1634 1254.5 1679.5Q1359 1725 1478 1725ZM687 288H472L400 1725H759ZM1658 -108Q1658 -145 1644.0 -177.5Q1630 -210 1605.5 -234.5Q1581 -259 1548.0 -273.0Q1515 -287 1478 -287Q1441 -287 1408.0 -273.0Q1375 -259 1350.5 -234.5Q1326 -210 1312.0 -177.5Q1298 -145 1298 -108Q1298 -71 1312.0 -38.0Q1326 -5 1350.5 19.5Q1375 44 1407.5 58.0Q1440 72 1478 72Q1515 72 1548.0 58.0Q1581 44 1605.5 19.5Q1630 -5 1644.0 -38.0Q1658 -71 1658 -108ZM759 -108Q759 -145 745.0 -177.5Q731 -210 706.5 -234.5Q682 -259 649.0 -273.0Q616 -287 579 -287Q542 -287 509.5 -273.0Q477 -259 452.5 -234.5Q428 -210 414.0 -177.5Q400 -145 400 -108Q400 -71 414.0 -38.0Q428 -5 452.5 19.5Q477 44 509.5 58.0Q542 72 579 72Q616 72 649.0 58.0Q682 44 706.5 19.5Q731 -5 745.0 -38.0Q759 -71 759 -108Z" style="fill:#f03a17;stroke:none" transform="scale(1,-1) translate(0,-256)" /></svg>