<?xml version="1.0" encoding="utf-8" ?>
<svg baseProfile="full" height="256" version="1.1" width="256" xmlns="http://www.w3.org/2000/svg" xmlns:ev="http://www.w3.org/2001/xml-events" xmlns:xlink="http://www.w3.org/1999/xlink"><defs /><path d="M1262 -431Q1123 -431 994.5 -395.0Q866 -359 754.5 -293.5Q643 -228 551.0 -136.0Q459 -44 393.5 67.5Q328 179 292.0 307.5Q256 436 256 575Q256 714 292.0 842.5Q328 971 393.5 1082.5Q459 1194 551.0 1286.0Q643 1378 754.5 1443.5Q866 1509 994.5 1545.0Q1123 1581 1262 1581H1550Q1689 1581 1817.5 1545.0Q1946 1509 2057.5 1443.5Q2169 1378 2261.0 1286.0Q2353 1194 2418.5 1082.5Q2484 971 2520.0 842.5Q2556 714 2556 575Q2556 436 2520.0 307.5Q2484 179 2418.5 67.5Q2353 -44 2261.0 -136.0Q2169 -228 2057.5 -293.5Q1946 -359 1817.5 -395.0Q1689 -431 1550 -431Z" style="fill:#000000;stroke:none" transform="scale(1,-1) translate(0,-256)" /></svg>