<?xml version="1.0" encoding="utf-8" ?>
<svg baseProfile="full" height="256" version="1.1" width="256" xmlns="http://www.w3.org/2000/svg" xmlns:ev="http://www.w3.org/2001/xml-events" xmlns:xlink="http://www.w3.org/1999/xlink"><defs /><path d="M1550 1438Q1669 1438 1779.0 1407.0Q1889 1376 1985.0 1320.0Q2081 1264 2159.5 1185.0Q2238 1106 2294.0 1010.0Q2350 914 2381.0 804.0Q2412 694 2412 575Q2412 456 2381.0 346.0Q2350 236 2294.0 140.0Q2238 44 2159.5 -34.5Q2081 -113 1985.0 -169.0Q1889 -225 1779.0 -256.0Q1669 -287 1550 -287H1262Q1143 -287 1033.0 -256.0Q923 -225 827.0 -169.0Q731 -113 652.5 -34.5Q574 44 518.0 140.0Q462 236 431.0 346.0Q400 456 400 575Q400 694 431.0 804.0Q462 914 518.0 1010.0Q574 1106 652.5 1185.0Q731 1264 827.0 1320.0Q923 1376 1033.0 1407.0Q1143 1438 1262 1438Z" style="fill:#cccccc;stroke:none" transform="scale(1,-1) translate(0,-256)" /></svg>