<?xml version="1.0" encoding="utf-8" ?>
<svg baseProfile="full" height="256" version="1.1" width="256" xmlns="http://www.w3.org/2000/svg" xmlns:ev="http://www.w3.org/2001/xml-events" xmlns:xlink="http://www.w3.org/1999/xlink"><defs /><path d="M939 935Q954 935 964.5 924.5Q975 914 975 899Q975 884 964.5 873.5Q954 863 939 863H867Q852 863 841.5 873.5Q831 884 831 899Q831 914 841.5 924.5Q852 935 867 935ZM1226 360Q1241 360 1251.5 349.5Q1262 339 1262 324V252Q1262 237 1251.5 226.5Q1241 216 1226 216Q1211 216 1200.5 226.5Q1190 237 1190 252V324Q1190 339 1200.5 349.5Q1211 360 1226 360ZM867 431Q881 431 892.0 420.5Q903 410 903 396V324Q903 309 892.5 298.5Q882 288 867 288Q852 288 841.5 298.5Q831 309 831 324V396Q831 410 842.0 420.5Q853 431 867 431ZM1083 719Q1097 719 1107.5 708.0Q1118 697 1118 683Q1118 669 1107.5 658.0Q1097 647 1083 647H1011Q996 647 985.5 657.5Q975 668 975 683Q975 698 985.5 708.5Q996 719 1011 719Z" style="fill:#13a10e;stroke:none" transform="scale(1,-1) translate(0,-256)" /></svg>