<?xml version="1.0" encoding="utf-8" ?>
<svg baseProfile="full" height="256" version="1.1" width="256" xmlns="http://www.w3.org/2000/svg" xmlns:ev="http://www.w3.org/2001/xml-events" xmlns:xlink="http://www.w3.org/1999/xlink"><defs /><path d="M1226 935Q1241 935 1251.5 924.5Q1262 914 1262 899V827Q1262 812 1251.5 801.5Q1241 791 1226 791Q1211 791 1200.5 801.5Q1190 812 1190 827V899Q1190 914 1200.5 924.5Q1211 935 1226 935ZM795 719Q810 719 820.5 708.5Q831 698 831 683V611Q831 596 820.5 585.5Q810 575 795 575Q780 575 769.5 585.5Q759 596 759 611V683Q759 698 769.5 708.5Q780 719 795 719ZM1154 1078Q1169 1078 1179.5 1067.5Q1190 1057 1190 1042Q1190 1028 1179.0 1017.0Q1168 1006 1154 1006H1083Q1069 1006 1058.0 1017.0Q1047 1028 1047 1042Q1047 1057 1057.5 1067.5Q1068 1078 1083 1078ZM1083 216Q1097 216 1107.5 205.0Q1118 194 1118 180V108Q1118 94 1107.5 83.0Q1097 72 1083 72Q1068 72 1057.5 82.5Q1047 93 1047 108V180Q1047 195 1057.5 205.5Q1068 216 1083 216ZM1083 431Q1097 431 1107.5 420.5Q1118 410 1118 396Q1118 382 1107.5 371.0Q1097 360 1083 360H1011Q996 360 985.5 370.5Q975 381 975 396Q975 410 986.0 420.5Q997 431 1011 431Z" style="fill:#e5e5e5;stroke:none" transform="scale(1,-1) translate(0,-256)" /></svg>