<?xml version="1.0" encoding="utf-8" ?>
<svg baseProfile="full" height="256" version="1.1" width="256" xmlns="http://www.w3.org/2000/svg" xmlns:ev="http://www.w3.org/2001/xml-events" xmlns:xlink="http://www.w3.org/1999/xlink"><defs /><path d="M1478 1294Q1577 1294 1669.0 1268.5Q1761 1243 1841.0 1196.0Q1921 1149 1986.5 1083.5Q2052 1018 2099.0 938.0Q2146 858 2171.5 766.0Q2197 674 2197 575Q2197 476 2171.5 384.0Q2146 292 2099.0 212.0Q2052 132 1986.5 66.5Q1921 1 1841.0 -46.0Q1761 -93 1669.0 -118.5Q1577 -144 1478 -144H1406Q1376 -144 1350.0 -132.5Q1324 -121 1304.5 -101.5Q1285 -82 1273.5 -56.0Q1262 -30 1262 0Q1262 33 1274.5 58.0Q1287 83 1306.0 104.0Q1325 125 1346.5 144.0Q1368 163 1387.0 184.0Q1406 205 1418.5 230.0Q1431 255 1431 288Q1431 321 1418.5 346.0Q1406 371 1387.0 391.5Q1368 412 1346.5 431.5Q1325 451 1306.0 471.5Q1287 492 1274.5 517.0Q1262 542 1262 575Q1262 607 1274.5 632.5Q1287 658 1306.0 679.5Q1325 701 1346.5 720.5Q1368 740 1387.0 761.0Q1406 782 1418.5 806.5Q1431 831 1431 863Q1431 895 1418.5 920.0Q1406 945 1387.0 966.0Q1368 987 1346.5 1006.5Q1325 1026 1306.0 1047.0Q1287 1068 1274.5 1093.0Q1262 1118 1262 1150Q1262 1180 1273.0 1206.0Q1284 1232 1303.5 1251.5Q1323 1271 1349.5 1282.5Q1376 1294 1406 1294Z" style="fill:#ca5010;stroke:none" transform="scale(1,-1) translate(0,-256)" /></svg>