<?xml version="1.0" encoding="utf-8" ?>
<svg baseProfile="full" height="256" version="1.1" width="256" xmlns="http://www.w3.org/2000/svg" xmlns:ev="http://www.w3.org/2001/xml-events" xmlns:xlink="http://www.w3.org/1999/xlink"><defs /><path d="M1837 1078Q1867 1078 1888.0 1057.0Q1909 1036 1909 1006Q1909 977 1887.5 956.0Q1866 935 1837 935Q1808 935 1786.5 956.0Q1765 977 1765 1006Q1765 1036 1786.0 1057.0Q1807 1078 1837 1078ZM1550 791Q1579 791 1600.5 769.5Q1622 748 1622 719Q1622 690 1600.5 668.5Q1579 647 1550 647Q1520 647 1499.0 668.0Q1478 689 1478 719Q1478 749 1499.0 770.0Q1520 791 1550 791ZM1981 431Q2010 431 2031.5 410.0Q2053 389 2053 360Q2053 330 2032.0 309.0Q2011 288 1981 288Q1951 288 1930.0 309.0Q1909 330 1909 360Q1909 389 1930.5 410.0Q1952 431 1981 431ZM1478 72Q1508 72 1529.0 51.0Q1550 30 1550 0Q1550 -29 1528.5 -50.5Q1507 -72 1478 -72Q1449 -72 1427.5 -50.5Q1406 -29 1406 0Q1406 30 1427.0 51.0Q1448 72 1478 72Z" style="fill:#f7894a;stroke:none" transform="scale(1,-1) translate(0,-256)" /></svg>