<?xml version="1.0" encoding="utf-8" ?>
<svg baseProfile="full" height="256" version="1.1" width="256" xmlns="http://www.w3.org/2000/svg" xmlns:ev="http://www.w3.org/2001/xml-events" xmlns:xlink="http://www.w3.org/1999/xlink"><defs /><path d="M1622 935H1550Q1521 935 1499.5 956.0Q1478 977 1478 1006V1078Q1478 1108 1499.0 1129.0Q1520 1150 1550 1150H1622Q1646 1150 1660.5 1140.5Q1675 1131 1682.0 1116.0Q1689 1101 1691.0 1082.0Q1693 1063 1693 1044Q1693 1025 1691.0 1005.5Q1689 986 1682.0 970.5Q1675 955 1661.0 945.0Q1647 935 1622 935ZM2053 719V647Q2053 617 2032.0 596.0Q2011 575 1981 575H1909Q1879 575 1858.0 596.0Q1837 617 1837 647V719Q1837 749 1858.0 770.0Q1879 791 1909 791H1981Q2011 791 2032.0 770.0Q2053 749 2053 719ZM1744 360Q1761 360 1782.5 347.0Q1804 334 1822.5 315.5Q1841 297 1854.0 275.5Q1867 254 1867 237Q1867 220 1854.0 198.5Q1841 177 1822.5 158.5Q1804 140 1782.5 127.0Q1761 114 1744 114Q1727 114 1705.5 126.5Q1684 139 1665.5 158.0Q1647 177 1634.5 198.5Q1622 220 1622 237Q1622 253 1635.0 274.5Q1648 296 1666.5 315.0Q1685 334 1706.0 347.0Q1727 360 1744 360Z" style="fill:#ffc83d;stroke:none" transform="scale(1,-1) translate(0,-256)" /></svg>