<?xml version="1.0" encoding="utf-8" ?>
<svg baseProfile="full" height="256" version="1.1" width="256" xmlns="http://www.w3.org/2000/svg" xmlns:ev="http://www.w3.org/2001/xml-events" xmlns:xlink="http://www.w3.org/1999/xlink"><defs /><path d="M1693 1078Q1723 1078 1749.0 1067.0Q1775 1056 1794.5 1036.5Q1814 1017 1825.5 991.0Q1837 965 1837 935V503Q1837 461 1817.5 431.5Q1798 402 1765 379L1406 123V-287H831V339L472 595Q439 618 419.5 647.5Q400 677 400 719V1150Q400 1180 411.0 1206.0Q422 1232 441.5 1251.5Q461 1271 487.0 1282.5Q513 1294 543 1294Q573 1294 599.0 1282.5Q625 1271 644.5 1251.5Q664 1232 675.5 1206.0Q687 1180 687 1150V863Q687 833 708.0 812.0Q729 791 759 791Q789 791 810.0 812.0Q831 833 831 863V1438Q831 1497 853.5 1549.5Q876 1602 915.0 1641.0Q954 1680 1006.5 1702.5Q1059 1725 1118 1725Q1176 1725 1228.5 1702.0Q1281 1679 1320.5 1640.0Q1360 1601 1383.0 1548.5Q1406 1496 1406 1438V647Q1406 617 1427.0 596.0Q1448 575 1478 575Q1508 575 1529.0 596.0Q1550 617 1550 647V935Q1550 965 1561.0 991.0Q1572 1017 1591.5 1036.5Q1611 1056 1637.0 1067.0Q1663 1078 1693 1078Z" style="fill:#16c60c;stroke:none" transform="scale(1,-1) translate(0,-256)" /></svg>