<?xml version="1.0" encoding="utf-8" ?>
<svg baseProfile="full" height="256" version="1.1" width="256" xmlns="http://www.w3.org/2000/svg" xmlns:ev="http://www.w3.org/2001/xml-events" xmlns:xlink="http://www.w3.org/1999/xlink"><defs /><path d="M2053 1725Q2127 1725 2192.5 1696.5Q2258 1668 2306.5 1619.5Q2355 1571 2383.5 1505.5Q2412 1440 2412 1366Q2412 1292 2383.5 1226.5Q2355 1161 2306.5 1112.0Q2258 1063 2192.5 1034.5Q2127 1006 2053 1006Q1979 1006 1913.5 1034.5Q1848 1063 1799.5 1112.0Q1751 1161 1722.5 1226.5Q1694 1292 1694 1366Q1694 1440 1722.5 1505.5Q1751 1571 1799.5 1619.5Q1848 1668 1913.5 1696.5Q1979 1725 2053 1725Z" style="fill:#fce100;stroke:none" transform="scale(1,-1) translate(0,-256)" /></svg>