<?xml version="1.0" encoding="utf-8" ?>
<svg baseProfile="full" height="256" version="1.1" width="256" xmlns="http://www.w3.org/2000/svg" xmlns:ev="http://www.w3.org/2001/xml-events" xmlns:xlink="http://www.w3.org/1999/xlink"><defs /><path d="M2556 1366Q2556 1298 2537.5 1233.0Q2519 1168 2484 1110V850L2556 778V-431H256V1150Q256 1208 279.0 1260.5Q302 1313 341.0 1352.5Q380 1392 432.0 1415.0Q484 1438 543 1438Q581 1438 618.0 1428.5Q655 1419 687 1399V1438Q687 1527 721.0 1605.5Q755 1684 813.5 1742.5Q872 1801 950.5 1835.0Q1029 1869 1118 1869Q1207 1869 1285.5 1835.0Q1364 1801 1423.0 1742.5Q1482 1684 1516.0 1605.5Q1550 1527 1550 1438V1366Q1550 1470 1589.5 1561.5Q1629 1653 1697.5 1721.5Q1766 1790 1857.5 1829.5Q1949 1869 2053 1869Q2157 1869 2248.5 1829.5Q2340 1790 2408.5 1721.5Q2477 1653 2516.5 1561.5Q2556 1470 2556 1366Z" style="fill:#000000;stroke:none" transform="scale(1,-1) translate(0,-256)" /></svg>