<?xml version="1.0" encoding="utf-8" ?>
<svg baseProfile="full" height="256" version="1.1" width="256" xmlns="http://www.w3.org/2000/svg" xmlns:ev="http://www.w3.org/2001/xml-events" xmlns:xlink="http://www.w3.org/1999/xlink"><defs /><path d="M1793 440H2270L2412 360V-287H1406Q1379 -262 1344.5 -241.5Q1310 -221 1272.5 -206.5Q1235 -192 1195.5 -184.5Q1156 -177 1119 -177Q1081 -177 1042.0 -184.5Q1003 -192 965.0 -206.0Q927 -220 892.5 -240.5Q858 -261 831 -287H400V0L644 182L1410 354Q1458 365 1505.0 379.5Q1552 394 1599.5 407.5Q1647 421 1695.0 430.5Q1743 440 1793 440Z" style="fill:#eba300;stroke:none" transform="scale(1,-1) translate(0,-256)" /></svg>