<?xml version="1.0" encoding="utf-8" ?>
<svg baseProfile="full" height="256" version="1.1" width="256" xmlns="http://www.w3.org/2000/svg" xmlns:ev="http://www.w3.org/2001/xml-events" xmlns:xlink="http://www.w3.org/1999/xlink"><defs /><path d="M1072 503H2412V360H2125Q2058 360 2006.0 344.5Q1954 329 1911.5 303.5Q1869 278 1834.0 246.0Q1799 214 1765.0 180.0Q1731 146 1696.0 114.0Q1661 82 1619.0 56.5Q1577 31 1525.0 15.5Q1473 0 1406 0H400V431H976ZM2233 144Q2248 144 2258.5 133.5Q2269 123 2269 108Q2269 93 2258.5 82.5Q2248 72 2233 72Q2218 72 2207.5 82.5Q2197 93 2197 108Q2197 123 2207.5 133.5Q2218 144 2233 144ZM2017 -72Q2032 -72 2042.5 -82.5Q2053 -93 2053 -108Q2053 -122 2042.0 -133.0Q2031 -144 2017 -144Q2003 -144 1992.0 -133.0Q1981 -122 1981 -108Q1981 -93 1991.5 -82.5Q2002 -72 2017 -72ZM2233 -72Q2248 -72 2258.5 -82.5Q2269 -93 2269 -108Q2269 -122 2258.0 -133.0Q2247 -144 2233 -144Q2219 -144 2208.0 -133.0Q2197 -122 2197 -108Q2197 -93 2207.5 -82.5Q2218 -72 2233 -72Z" style="fill:#ffb900;stroke:none" transform="scale(1,-1) translate(0,-256)" /></svg>