<?xml version="1.0" encoding="utf-8" ?>
<svg baseProfile="full" height="256" version="1.1" width="256" xmlns="http://www.w3.org/2000/svg" xmlns:ev="http://www.w3.org/2001/xml-events" xmlns:xlink="http://www.w3.org/1999/xlink"><defs /><path d="M795 503Q780 503 769.5 513.5Q759 524 759 539V683Q759 698 769.5 708.5Q780 719 795 719Q810 719 820.5 708.5Q831 698 831 683V539Q831 524 820.5 513.5Q810 503 795 503ZM1011 1366Q1026 1366 1036.5 1355.5Q1047 1345 1047 1330V1186Q1047 1171 1036.5 1160.5Q1026 1150 1011 1150Q996 1150 985.5 1160.5Q975 1171 975 1186V1330Q975 1345 985.5 1355.5Q996 1366 1011 1366ZM1226 719Q1241 719 1251.5 708.5Q1262 698 1262 683V539Q1262 524 1251.5 513.5Q1241 503 1226 503Q1211 503 1200.5 513.5Q1190 524 1190 539V683Q1190 698 1200.5 708.5Q1211 719 1226 719ZM1226 288Q1241 288 1251.5 277.5Q1262 267 1262 252V108Q1262 93 1251.5 82.5Q1241 72 1226 72Q1211 72 1200.5 82.5Q1190 93 1190 108V252Q1190 267 1200.5 277.5Q1211 288 1226 288ZM1011 935Q1026 935 1036.5 924.5Q1047 914 1047 899V755Q1047 740 1036.5 729.5Q1026 719 1011 719Q996 719 985.5 729.5Q975 740 975 755V899Q975 914 985.5 924.5Q996 935 1011 935ZM1011 72Q1026 72 1036.5 61.5Q1047 51 1047 36V-108Q1047 -122 1036.0 -133.0Q1025 -144 1011 -144Q997 -144 986.0 -133.0Q975 -122 975 -108V36Q975 51 985.5 61.5Q996 72 1011 72ZM1765 899V755Q1765 740 1754.5 729.5Q1744 719 1729 719Q1715 719 1704.0 730.0Q1693 741 1693 755V899Q1693 913 1704.0 924.0Q1715 935 1729 935Q1744 935 1754.5 924.5Q1765 914 1765 899ZM579 863Q594 863 604.5 852.5Q615 842 615 827V683Q615 668 604.5 657.5Q594 647 579 647Q565 647 554.0 658.0Q543 669 543 683V827Q543 841 554.0 852.0Q565 863 579 863ZM1226 1150Q1241 1150 1251.5 1139.5Q1262 1129 1262 1114V971Q1262 956 1251.5 945.5Q1241 935 1226 935Q1211 935 1200.5 945.5Q1190 956 1190 971V1114Q1190 1129 1200.5 1139.5Q1211 1150 1226 1150ZM1011 503Q1026 503 1036.5 492.5Q1047 482 1047 467V324Q1047 309 1036.5 298.5Q1026 288 1011 288Q996 288 985.5 298.5Q975 309 975 324V467Q975 482 985.5 492.5Q996 503 1011 503ZM1478 324Q1478 309 1467.5 298.5Q1457 288 1442 288Q1427 288 1416.5 298.5Q1406 309 1406 324V467Q1406 482 1416.5 492.5Q1427 503 1442 503Q1457 503 1467.5 492.5Q1478 482 1478 467ZM1226 1581Q1240 1581 1251.0 1570.5Q1262 1560 1262 1546V1402Q1262 1387 1251.5 1376.5Q1241 1366 1226 1366Q1211 1366 1200.5 1376.5Q1190 1387 1190 1402V1546Q1190 1560 1201.0 1570.5Q1212 1581 1226 1581ZM1658 647Q1672 647 1682.5 636.0Q1693 625 1693 611V467Q1693 453 1682.5 442.0Q1672 431 1658 431Q1644 431 1633.0 442.0Q1622 453 1622 467V611Q1622 626 1632.5 636.5Q1643 647 1658 647ZM543 1114V971Q543 957 532.5 946.0Q522 935 508 935Q493 935 482.5 945.5Q472 956 472 971V1114Q472 1129 482.5 1139.5Q493 1150 508 1150Q522 1150 532.5 1139.0Q543 1128 543 1114ZM363 934Q379 934 389 924L461 852Q471 842 471 826Q471 812 460.0 801.0Q449 790 435 790Q421 790 410 801L338 873Q327 884 327 898Q327 912 338.0 923.0Q349 934 363 934ZM1874 719Q1889 719 1899.0 708.5Q1909 698 1909 683Q1909 668 1899 658L1827 586Q1816 575 1801 575Q1787 575 1776.0 586.0Q1765 597 1765 611Q1765 626 1776 637L1848 708Q1859 719 1874 719ZM1334 -108Q1334 -93 1345 -82L1417 -10Q1427 0 1442 0Q1457 0 1467.0 -10.5Q1477 -21 1477 -36Q1477 -51 1467 -61L1395 -133Q1384 -144 1370 -144Q1356 -144 1345.0 -133.0Q1334 -122 1334 -108ZM1334 754Q1334 769 1345 780L1417 852Q1427 862 1442 862Q1456 862 1466.5 851.5Q1477 841 1477 827Q1477 811 1467 801L1395 729Q1384 718 1370 718Q1356 718 1345.0 729.0Q1334 740 1334 754ZM795 1078Q810 1078 820 1068L892 996Q902 986 902 970Q902 956 891.5 945.0Q881 934 867 934Q853 934 842 945L770 1017Q759 1028 759 1042Q759 1056 770.0 1067.0Q781 1078 795 1078ZM795 1509Q810 1509 820 1499L892 1427Q902 1417 902 1401Q902 1387 891.5 1376.0Q881 1365 867 1365Q853 1365 842 1376L770 1448Q759 1459 759 1473Q759 1487 770.0 1498.0Q781 1509 795 1509ZM795 215Q810 215 820 205L892 133Q902 123 902 108Q902 94 891.5 83.0Q881 72 867 72Q853 72 842 83L770 155Q759 166 759 180Q759 194 770.0 204.5Q781 215 795 215ZM1334 1186Q1334 1200 1345 1211L1417 1283Q1427 1293 1442 1293Q1456 1293 1466.5 1282.5Q1477 1272 1477 1258Q1477 1243 1467 1233L1395 1161Q1384 1150 1370 1150Q1356 1150 1345.0 1161.0Q1334 1172 1334 1186Z" style="fill:#13a10e;stroke:none" transform="scale(1,-1) translate(0,-256)" /></svg>