<?xml version="1.0" encoding="utf-8" ?>
<svg baseProfile="full" height="256" version="1.1" width="256" xmlns="http://www.w3.org/2000/svg" xmlns:ev="http://www.w3.org/2001/xml-events" xmlns:xlink="http://www.w3.org/1999/xlink"><defs /><path d="M2340 935V791L2412 719V503L2232 321H513L400 431V710L550 665Q579 656 603.5 650.5Q628 645 659 645Q703 645 745.5 646.0Q788 647 831 647H1262V503H1550L1693 599Q1700 603 1709.5 610.5Q1719 618 1729.0 625.5Q1739 633 1748.5 639.0Q1758 645 1765 647Q1775 650 1785.5 652.0Q1796 654 1806 656Q1832 663 1857.5 670.5Q1883 678 1909 683V863H2125V791L2197 719H2269V935Z" style="fill:#ffc83d;stroke:none" transform="scale(1,-1) translate(0,-256)" /></svg>