<?xml version="1.0" encoding="utf-8" ?>
<svg baseProfile="full" height="256" version="1.1" width="256" xmlns="http://www.w3.org/2000/svg" xmlns:ev="http://www.w3.org/2001/xml-events" xmlns:xlink="http://www.w3.org/1999/xlink"><defs /><path d="M1406 827Q1418 820 1455.0 799.5Q1492 779 1545.0 750.0Q1598 721 1661.5 685.5Q1725 650 1790.0 614.0Q1855 578 1916.5 544.5Q1978 511 2026.5 484.5Q2075 458 2106.0 442.0Q2137 426 2141 426Q2057 397 1965.0 377.5Q1873 358 1778.0 346.0Q1683 334 1588.5 329.0Q1494 324 1406 324Q1318 324 1223.5 329.0Q1129 334 1034.0 346.0Q939 358 847.0 377.5Q755 397 671 426Q675 426 706.0 442.0Q737 458 785.5 484.5Q834 511 895.5 544.5Q957 578 1022.0 614.0Q1087 650 1150.5 685.5Q1214 721 1267.0 750.0Q1320 779 1357.0 799.5Q1394 820 1406 827Z" style="fill:#cccccc;stroke:none" transform="scale(1,-1) translate(0,-256)" /></svg>