<?xml version="1.0" encoding="utf-8" ?>
<svg baseProfile="full" height="256" version="1.1" width="256" xmlns="http://www.w3.org/2000/svg" xmlns:ev="http://www.w3.org/2001/xml-events" xmlns:xlink="http://www.w3.org/1999/xlink"><defs /><path d="M1282 1210Q1319 1210 1344.5 1184.5Q1370 1159 1370 1122V1082Q1370 1066 1354 1066H1314Q1296 1066 1280.0 1073.0Q1264 1080 1252.0 1092.0Q1240 1104 1233.0 1120.0Q1226 1136 1226 1154V1194Q1226 1210 1242 1210ZM1570 1210Q1576 1210 1581.0 1205.0Q1586 1200 1586 1194V1154Q1586 1136 1579.0 1120.0Q1572 1104 1560.0 1092.0Q1548 1080 1532.0 1073.0Q1516 1066 1498 1066H1458Q1442 1066 1442 1082V1122Q1442 1159 1467.5 1184.5Q1493 1210 1530 1210Z" style="fill:#000000;stroke:none" transform="scale(1,-1) translate(0,-256)" /></svg>