<?xml version="1.0" encoding="utf-8" ?>
<svg baseProfile="full" height="256" version="1.1" width="256" xmlns="http://www.w3.org/2000/svg" xmlns:ev="http://www.w3.org/2001/xml-events" xmlns:xlink="http://www.w3.org/1999/xlink"><defs /><path d="M1334 992Q1334 999 1339.5 1004.0Q1345 1009 1352 1009Q1360 1009 1372.5 1000.5Q1385 992 1406 992Q1426 992 1439.0 1000.5Q1452 1009 1460 1009Q1467 1009 1472.5 1004.0Q1478 999 1478 992Q1478 984 1469.0 977.5Q1460 971 1448.0 967.0Q1436 963 1424.0 961.0Q1412 959 1406 959Q1400 959 1388.0 961.0Q1376 963 1364.0 967.0Q1352 971 1343.0 977.5Q1334 984 1334 992Z" style="fill:#008272;stroke:none" transform="scale(1,-1) translate(0,-256)" /></svg>