<?xml version="1.0" encoding="utf-8" ?>
<svg baseProfile="full" height="256" version="1.1" width="256" xmlns="http://www.w3.org/2000/svg" xmlns:ev="http://www.w3.org/2001/xml-events" xmlns:xlink="http://www.w3.org/1999/xlink"><defs /><path d="M1266 1194Q1276 1194 1283.0 1187.0Q1290 1180 1290 1170Q1290 1160 1283.0 1153.0Q1276 1146 1266 1146Q1256 1146 1249.0 1153.0Q1242 1160 1242 1170Q1242 1180 1249.0 1187.0Q1256 1194 1266 1194ZM1514 1194Q1524 1194 1531.0 1187.0Q1538 1180 1538 1170Q1538 1160 1531.0 1153.0Q1524 1146 1514 1146Q1504 1146 1497.0 1153.0Q1490 1160 1490 1170Q1490 1180 1497.0 1187.0Q1504 1194 1514 1194ZM1083 1114Q1068 1114 1057.5 1124.5Q1047 1135 1047 1150Q1047 1225 1075.0 1290.5Q1103 1356 1152.0 1404.5Q1201 1453 1266.0 1481.5Q1331 1510 1406 1510Q1420 1510 1431.0 1499.0Q1442 1488 1442 1474Q1442 1459 1431.5 1448.5Q1421 1438 1406 1438Q1346 1438 1293.5 1415.5Q1241 1393 1202.0 1354.0Q1163 1315 1140.5 1262.5Q1118 1210 1118 1150Q1118 1136 1107.5 1125.0Q1097 1114 1083 1114Z" style="fill:#ffffff;stroke:none" transform="scale(1,-1) translate(0,-256)" /></svg>