<?xml version="1.0" encoding="utf-8" ?>
<svg baseProfile="full" height="256" version="1.1" width="256" xmlns="http://www.w3.org/2000/svg" xmlns:ev="http://www.w3.org/2001/xml-events" xmlns:xlink="http://www.w3.org/1999/xlink"><defs /><path d="M1981 1059Q2032 1049 2094.0 1032.5Q2156 1016 2220.0 992.0Q2284 968 2344.5 935.5Q2405 903 2452.0 860.5Q2499 818 2527.5 765.0Q2556 712 2556 647V575Q2556 500 2522.0 439.5Q2488 379 2434.5 332.5Q2381 286 2316.0 252.0Q2251 218 2189 195Q2130 98 2041.0 27.5Q1952 -43 1847.0 -89.0Q1742 -135 1628.5 -157.0Q1515 -179 1406 -179Q1297 -179 1183.5 -157.0Q1070 -135 965.0 -89.0Q860 -43 771.0 27.5Q682 98 622 195Q560 218 495.5 252.0Q431 286 378.0 332.5Q325 379 291.0 439.5Q257 500 257 575V647Q257 712 285.5 765.5Q314 819 360.5 861.5Q407 904 467.5 936.0Q528 968 591.5 992.0Q655 1016 717.5 1032.5Q780 1049 831 1059V1150Q831 1269 876.5 1373.5Q922 1478 1000.0 1556.0Q1078 1634 1182.5 1679.5Q1287 1725 1406 1725Q1525 1725 1629.5 1679.5Q1734 1634 1812.0 1556.0Q1890 1478 1935.5 1373.5Q1981 1269 1981 1150Z" style="fill:#000000;stroke:none" transform="scale(1,-1) translate(0,-256)" /></svg>