<?xml version="1.0" encoding="utf-8" ?>
<svg baseProfile="full" height="256" version="1.1" width="256" xmlns="http://www.w3.org/2000/svg" xmlns:ev="http://www.w3.org/2001/xml-events" xmlns:xlink="http://www.w3.org/1999/xlink"><defs /><path d="M2125 467Q2125 381 2089.0 309.0Q2053 237 1995.0 179.5Q1937 122 1864.0 80.0Q1791 38 1716 13Q1641 -12 1563.0 -24.0Q1485 -36 1406 -36Q1327 -36 1249.0 -24.0Q1171 -12 1096 13Q1021 38 948.0 80.0Q875 122 817.0 179.5Q759 237 723.0 309.0Q687 381 687 467Q687 549 723.0 594.0Q759 639 815.0 660.0Q871 681 938.0 685.0Q1005 689 1067 689Q1152 689 1236.5 686.0Q1321 683 1406 683Q1491 683 1575.5 686.0Q1660 689 1745 689Q1807 689 1874.0 685.0Q1941 681 1997.0 660.0Q2053 639 2089.0 594.0Q2125 549 2125 467Z" style="fill:#757575;stroke:none" transform="scale(1,-1) translate(0,-256)" /></svg>