<?xml version="1.0" encoding="utf-8" ?>
<svg baseProfile="full" height="256" version="1.1" width="256" xmlns="http://www.w3.org/2000/svg" xmlns:ev="http://www.w3.org/2001/xml-events" xmlns:xlink="http://www.w3.org/1999/xlink"><defs /><path d="M1837 939Q1872 934 1928.5 923.0Q1985 912 2049.0 895.0Q2113 878 2177.5 854.5Q2242 831 2294.0 800.0Q2346 769 2379.0 731.0Q2412 693 2412 647Q2412 610 2389.5 579.0Q2367 548 2335.0 523.0Q2303 498 2266.0 479.5Q2229 461 2201 449Q2199 448 2190.0 444.5Q2181 441 2170.5 437.0Q2160 433 2151.0 429.5Q2142 426 2141 426H671Q670 426 661.0 429.5Q652 433 641.5 437.0Q631 441 621.5 444.5Q612 448 611 449Q582 461 545.5 479.5Q509 498 477.0 523.0Q445 548 422.5 579.0Q400 610 400 647Q400 693 432.5 731.0Q465 769 517.5 800.0Q570 831 634.5 854.5Q699 878 763.0 895.0Q827 912 883.5 923.0Q940 934 975 939Q1019 924 1071.0 916.0Q1123 908 1177.5 904.0Q1232 900 1286.5 899.5Q1341 899 1389 899H1406Q1515 899 1623.0 904.0Q1731 909 1837 939Z" style="fill:#a6a6a6;stroke:none" transform="scale(1,-1) translate(0,-256)" /></svg>