<?xml version="1.0" encoding="utf-8" ?>
<svg baseProfile="full" height="256" version="1.1" width="256" xmlns="http://www.w3.org/2000/svg" xmlns:ev="http://www.w3.org/2001/xml-events" xmlns:xlink="http://www.w3.org/1999/xlink"><defs /><path d="M1478 503Q1478 474 1456.5 452.5Q1435 431 1406 431Q1377 431 1355.5 452.5Q1334 474 1334 503Q1334 533 1355.0 554.0Q1376 575 1406 575Q1436 575 1457.0 554.0Q1478 533 1478 503ZM759 719Q759 689 738.0 668.0Q717 647 687 647Q658 647 636.5 668.5Q615 690 615 719Q615 748 636.5 769.5Q658 791 687 791Q717 791 738.0 770.0Q759 749 759 719ZM2197 719Q2197 690 2175.5 668.5Q2154 647 2125 647Q2095 647 2074.0 668.0Q2053 689 2053 719Q2053 749 2074.0 770.0Q2095 791 2125 791Q2154 791 2175.5 769.5Q2197 748 2197 719Z" style="fill:#3a96dd;stroke:none" transform="scale(1,-1) translate(0,-256)" /></svg>