<?xml version="1.0" encoding="utf-8" ?>
<svg baseProfile="full" height="256" version="1.1" width="256" xmlns="http://www.w3.org/2000/svg" xmlns:ev="http://www.w3.org/2001/xml-events" xmlns:xlink="http://www.w3.org/1999/xlink"><defs /><path d="M1687 718Q1619 698 1548.0 690.5Q1477 683 1406 683Q1334 683 1261.0 691.5Q1188 700 1119 720Q1120 751 1132.5 778.0Q1145 805 1166.0 825.0Q1187 845 1214.5 856.5Q1242 868 1273 868H1557Q1565 868 1576.5 872.0Q1588 876 1598.5 882.5Q1609 889 1617.0 897.0Q1625 905 1627 914L1673 1145L1721 1195L1765 1145V914Z" style="fill:#383838;stroke:none" transform="scale(1,-1) translate(0,-256)" /></svg>