<?xml version="1.0" encoding="utf-8" ?>
<svg baseProfile="full" height="256" version="1.1" width="256" xmlns="http://www.w3.org/2000/svg" xmlns:ev="http://www.w3.org/2001/xml-events" xmlns:xlink="http://www.w3.org/1999/xlink"><defs /><path d="M2412 647V575Q2412 522 2377.0 478.5Q2342 435 2286.0 400.0Q2230 365 2161.0 338.5Q2092 312 2024.0 293.0Q1956 274 1896.0 262.0Q1836 250 1798 244Q1700 230 1602.5 223.0Q1505 216 1406 216Q1307 216 1209.5 223.0Q1112 230 1014 244Q976 250 916.0 262.0Q856 274 788.0 293.0Q720 312 651.0 338.5Q582 365 526.0 400.0Q470 435 435.0 478.5Q400 522 400 575V647Z" style="fill:#383838;stroke:none" transform="scale(1,-1) translate(0,-256)" /></svg>