<?xml version="1.0" encoding="utf-8" ?>
<svg baseProfile="full" height="256" version="1.1" width="256" xmlns="http://www.w3.org/2000/svg" xmlns:ev="http://www.w3.org/2001/xml-events" xmlns:xlink="http://www.w3.org/1999/xlink"><defs /><path d="M1406 971Q1493 971 1579 959Q1594 957 1618.5 952.0Q1643 947 1672.0 939.5Q1701 932 1730.0 921.0Q1759 910 1783.0 896.5Q1807 883 1822.0 865.5Q1837 848 1837 827Q1837 804 1820.0 786.0Q1803 768 1779.0 754.5Q1755 741 1729.5 732.0Q1704 723 1687 718L1678 721Q1611 741 1544.0 757.0Q1477 773 1406 773Q1331 773 1260.5 755.0Q1190 737 1119 720Q1102 725 1077.5 734.0Q1053 743 1030.0 756.5Q1007 770 991.0 787.5Q975 805 975 827Q975 848 990.0 865.5Q1005 883 1029.0 896.5Q1053 910 1082.0 921.0Q1111 932 1140.0 939.5Q1169 947 1193.5 952.0Q1218 957 1233 959Q1318 971 1406 971Z" style="fill:#0063b1;stroke:none" transform="scale(1,-1) translate(0,-256)" /></svg>