<?xml version="1.0" encoding="utf-8" ?>
<svg baseProfile="full" height="256" version="1.1" width="256" xmlns="http://www.w3.org/2000/svg" xmlns:ev="http://www.w3.org/2001/xml-events" xmlns:xlink="http://www.w3.org/1999/xlink"><defs /><path d="M1054 1601Q1051 1615 1049.0 1628.0Q1047 1641 1047 1655Q1047 1699 1064.5 1738.0Q1082 1777 1111.5 1806.0Q1141 1835 1180.0 1852.0Q1219 1869 1263 1869Q1317 1869 1365.0 1843.0Q1413 1817 1443 1772Q1472 1818 1520.0 1843.5Q1568 1869 1622 1869H2053Q2098 1869 2137.0 1852.0Q2176 1835 2205.5 1805.5Q2235 1776 2252.0 1737.0Q2269 1698 2269 1653V575Q2269 530 2252.0 491.0Q2235 452 2205.5 423.0Q2176 394 2137.0 377.0Q2098 360 2053 360H1982Q1952 360 1926.0 348.5Q1900 337 1880.5 317.5Q1861 298 1849.5 272.0Q1838 246 1838 216V-431H504Q536 -300 568.5 -172.0Q601 -44 633 87Q546 134 476.5 201.5Q407 269 358.0 351.0Q309 433 283.0 526.5Q257 620 257 719V791Q257 836 274.0 875.0Q291 914 320.0 943.0Q349 972 388.0 989.0Q427 1006 472 1006H1202Z" style="fill:#000000;stroke:none" transform="scale(1,-1) translate(0,-256)" /></svg>