<?xml version="1.0" encoding="utf-8" ?>
<svg baseProfile="full" height="256" version="1.1" width="256" xmlns="http://www.w3.org/2000/svg" xmlns:ev="http://www.w3.org/2001/xml-events" xmlns:xlink="http://www.w3.org/1999/xlink"><defs /><path d="M1193 1636Q1191 1646 1191 1654Q1191 1683 1212.5 1704.0Q1234 1725 1263 1725Q1287 1725 1307.0 1709.5Q1327 1694 1333 1671L1548 808L1550 791V719L1478 647H472L400 719V757Q400 776 402.0 795.0Q404 814 411.5 829.0Q419 844 433.5 853.5Q448 863 472 863H1386ZM2053 1725Q2083 1725 2104.0 1704.0Q2125 1683 2125 1653V1581L2086 1510H1606L1550 1581V1653Q1550 1683 1571.0 1704.0Q1592 1725 1622 1725Z" style="fill:#cccccc;stroke:none" transform="scale(1,-1) translate(0,-256)" /></svg>