<?xml version="1.0" encoding="utf-8" ?>
<svg baseProfile="full" height="256" version="1.1" width="256" xmlns="http://www.w3.org/2000/svg" xmlns:ev="http://www.w3.org/2001/xml-events" xmlns:xlink="http://www.w3.org/1999/xlink"><defs /><path d="M1370 1725Q1392 1725 1412.0 1716.5Q1432 1708 1446.5 1693.5Q1461 1679 1469.5 1659.0Q1478 1639 1478 1617V596Q1478 588 1475.5 580.0Q1473 572 1473 564Q1473 524 1475.5 485.0Q1478 446 1478 407V-287H687V-111Q687 -53 665.5 -10.0Q644 33 612.5 67.5Q581 102 543.5 132.5Q506 163 474.5 196.0Q443 229 421.5 268.5Q400 308 400 360V791Q400 821 411.0 847.0Q422 873 441.5 892.5Q461 912 487.0 923.5Q513 935 543 935H615L652 921L687 935Q687 965 698.5 991.0Q710 1017 729.5 1036.5Q749 1056 775.0 1067.0Q801 1078 831 1078H903Q910 1078 921.0 1074.5Q932 1071 939 1069Q946 1071 957.0 1074.5Q968 1078 975 1078H1191L1226 1064L1262 1078V1617Q1262 1639 1270.5 1659.0Q1279 1679 1293.5 1693.5Q1308 1708 1327.5 1716.5Q1347 1725 1370 1725Z" style="fill:#ffc83d;stroke:none" transform="scale(1,-1) translate(0,-256)" /></svg>