<?xml version="1.0" encoding="utf-8" ?>
<svg baseProfile="full" height="256" version="1.1" width="256" xmlns="http://www.w3.org/2000/svg" xmlns:ev="http://www.w3.org/2001/xml-events" xmlns:xlink="http://www.w3.org/1999/xlink"><defs /><path d="M1262 717Q1326 709 1382.0 678.0Q1438 647 1478 596V406Q1476 456 1455.0 500.0Q1434 544 1400.0 576.5Q1366 609 1321.0 628.0Q1276 647 1226 647H651Q629 647 609.5 638.5Q590 630 575.0 615.0Q560 600 551.5 580.5Q543 561 543 539Q543 517 551.5 497.5Q560 478 575.0 463.0Q590 448 609.5 439.5Q629 431 651 431H867Q881 431 892.0 420.5Q903 410 903 396V108Q903 93 892.5 82.5Q882 72 867 72Q852 72 841.5 82.5Q831 93 831 108V360H651Q614 360 581.5 374.0Q549 388 524.5 412.5Q500 437 486.0 469.5Q472 502 472 539Q472 570 482.5 599.5Q493 629 512.0 652.5Q531 676 557.5 692.5Q584 709 615 715V935H687V719H903V1078H975V719H1190V1078H1262Z" style="fill:#d48c00;stroke:none" transform="scale(1,-1) translate(0,-256)" /></svg>