<?xml version="1.0" encoding="utf-8" ?>
<svg baseProfile="full" height="256" version="1.1" width="256" xmlns="http://www.w3.org/2000/svg" xmlns:ev="http://www.w3.org/2001/xml-events" xmlns:xlink="http://www.w3.org/1999/xlink"><defs /><path d="M1622 1617V-431H543V-111Q543 -78 521.5 -50.0Q500 -22 468.5 7.5Q437 37 399.5 69.5Q362 102 330.5 143.5Q299 185 277.5 237.5Q256 290 256 360V791Q256 850 278.5 902.5Q301 955 340.0 994.0Q379 1033 431.5 1055.5Q484 1078 543 1078H582Q621 1145 687.0 1183.5Q753 1222 831 1222H1118V1617Q1118 1669 1138.0 1715.0Q1158 1761 1192.0 1795.0Q1226 1829 1272.0 1849.0Q1318 1869 1370 1869Q1422 1869 1468.0 1849.0Q1514 1829 1548.0 1795.0Q1582 1761 1602.0 1715.0Q1622 1669 1622 1617Z" style="fill:#000000;stroke:none" transform="scale(1,-1) translate(0,-256)" /></svg>