<?xml version="1.0" encoding="utf-8" ?>
<svg baseProfile="full" height="256" version="1.1" width="256" xmlns="http://www.w3.org/2000/svg" xmlns:ev="http://www.w3.org/2001/xml-events" xmlns:xlink="http://www.w3.org/1999/xlink"><defs /><path d="M2412 182Q2438 137 2464.0 92.0Q2490 47 2516 2Q2536 -33 2546.0 -67.5Q2556 -102 2556 -144Q2556 -203 2533.0 -255.0Q2510 -307 2470.5 -346.0Q2431 -385 2378.5 -408.0Q2326 -431 2268 -431H1406Q1332 -431 1266.5 -403.0Q1201 -375 1152.0 -326.0Q1103 -277 1075.0 -211.5Q1047 -146 1047 -72V-215Q1047 -260 1030.0 -299.0Q1013 -338 983.5 -367.5Q954 -397 915.0 -414.0Q876 -431 831 -431H615Q541 -431 475.5 -403.0Q410 -375 361.0 -326.0Q312 -277 284.0 -211.5Q256 -146 256 -72V1078Q256 1132 271.5 1182.0Q287 1232 315.5 1275.0Q344 1318 383.5 1352.0Q423 1386 472 1408Q473 1504 510.5 1588.0Q548 1672 611.0 1734.5Q674 1797 758.5 1833.0Q843 1869 939 1869Q1031 1869 1113.0 1835.0Q1195 1801 1258.0 1741.5Q1321 1682 1360.0 1602.0Q1399 1522 1405 1431Q1477 1417 1523.0 1385.5Q1569 1354 1600.5 1315.0Q1632 1276 1654.5 1234.0Q1677 1192 1701.5 1157.5Q1726 1123 1757.5 1100.5Q1789 1078 1840 1078H1981Q2070 1078 2148.5 1044.0Q2227 1010 2285.5 951.5Q2344 893 2378.0 814.5Q2412 736 2412 647Z" style="fill:#000000;stroke:none" transform="scale(1,-1) translate(0,-256)" /></svg>