<?xml version="1.0" encoding="utf-8" ?>
<svg baseProfile="full" height="256" version="1.1" width="256" xmlns="http://www.w3.org/2000/svg" xmlns:ev="http://www.w3.org/2001/xml-events" xmlns:xlink="http://www.w3.org/1999/xlink"><defs /><path d="M1047 1510Q1077 1510 1103.0 1498.5Q1129 1487 1148.5 1467.5Q1168 1448 1179.0 1422.0Q1190 1396 1190 1366Q1190 1328 1170.0 1295.0Q1150 1262 1118 1242V1186Q1118 1149 1104.0 1116.0Q1090 1083 1065.5 1058.5Q1041 1034 1008.5 1020.0Q976 1006 939 1006Q901 1006 868.5 1020.0Q836 1034 811.5 1058.5Q787 1083 773.0 1115.5Q759 1148 759 1186V1242Q727 1262 707.0 1295.0Q687 1328 687 1366Q687 1396 698.5 1422.0Q710 1448 729.5 1467.5Q749 1487 775.0 1498.5Q801 1510 831 1510ZM867 1222Q882 1222 892.5 1232.5Q903 1243 903 1258Q903 1273 892.5 1283.5Q882 1294 867 1294Q852 1294 841.5 1283.5Q831 1273 831 1258Q831 1243 841.5 1232.5Q852 1222 867 1222ZM1011 1222Q1026 1222 1036.5 1232.5Q1047 1243 1047 1258Q1047 1273 1036.5 1283.5Q1026 1294 1011 1294Q996 1294 985.5 1283.5Q975 1273 975 1258Q975 1243 985.5 1232.5Q996 1222 1011 1222Z" style="fill:#cccccc;stroke:none" transform="scale(1,-1) translate(0,-256)" /></svg>