<?xml version="1.0" encoding="utf-8" ?>
<svg baseProfile="full" height="256" version="1.1" width="256" xmlns="http://www.w3.org/2000/svg" xmlns:ev="http://www.w3.org/2001/xml-events" xmlns:xlink="http://www.w3.org/1999/xlink"><defs /><path d="M2268 144 2391 -69Q2401 -86 2406.5 -105.0Q2412 -124 2412 -144Q2412 -174 2400.5 -200.0Q2389 -226 2369.5 -245.5Q2350 -265 2324.0 -276.0Q2298 -287 2268 -287H1909Q1879 -287 1858.0 -266.0Q1837 -245 1837 -215Q1837 -186 1858.5 -165.0Q1880 -144 1909 -144H2053L1837 216V360Q1837 405 1820.0 444.0Q1803 483 1774.0 512.0Q1745 541 1706.0 558.0Q1667 575 1622 575H1537Q1525 544 1505.5 518.0Q1486 492 1460.5 473.0Q1435 454 1404.5 443.0Q1374 432 1341 431Q1384 429 1422.0 411.5Q1460 394 1488.5 365.0Q1517 336 1533.5 297.5Q1550 259 1550 216V-66Q1552 -37 1572.5 -18.5Q1593 0 1622 0Q1651 0 1672.0 -21.5Q1693 -43 1693 -72V-215Q1693 -244 1672.0 -265.5Q1651 -287 1622 -287H1406Q1361 -287 1322.0 -270.0Q1283 -253 1253.5 -224.0Q1224 -195 1207.0 -156.0Q1190 -117 1190 -72V863H759V647Q759 604 743.0 565.0Q727 526 699.0 497.0Q671 468 633.0 450.0Q595 432 552 431Q595 429 633.0 411.5Q671 394 699.0 365.0Q727 336 743.0 297.5Q759 259 759 216V-66Q761 -37 781.5 -18.5Q802 0 831 0Q861 0 882.0 -21.0Q903 -42 903 -72V-215Q903 -245 882.0 -266.0Q861 -287 831 -287H615Q570 -287 531.0 -270.0Q492 -253 463.0 -224.0Q434 -195 417.0 -156.0Q400 -117 400 -72V1078Q400 1123 417.0 1162.0Q434 1201 463.0 1230.5Q492 1260 531.0 1277.0Q570 1294 615 1294V1402Q615 1469 640.5 1527.5Q666 1586 710.0 1630.0Q754 1674 813.0 1699.5Q872 1725 939 1725Q1006 1725 1064.5 1699.5Q1123 1674 1167.0 1630.0Q1211 1586 1236.5 1527.5Q1262 1469 1262 1402V1294H1334Q1407 1294 1455.5 1257.0Q1504 1220 1535 1157Q1546 1134 1557.0 1111.5Q1568 1089 1583 1069Q1603 1041 1632.0 1016.5Q1661 992 1695.0 974.0Q1729 956 1765.5 945.5Q1802 935 1837 935H1981Q2041 935 2093.0 912.5Q2145 890 2184.0 851.0Q2223 812 2245.5 759.5Q2268 707 2268 647Z" style="fill:#757575;stroke:none" transform="scale(1,-1) translate(0,-256)" /></svg>