<?xml version="1.0" encoding="utf-8" ?>
<svg baseProfile="full" height="256" version="1.1" width="256" xmlns="http://www.w3.org/2000/svg" xmlns:ev="http://www.w3.org/2001/xml-events" xmlns:xlink="http://www.w3.org/1999/xlink"><defs /><path d="M903 1078Q874 1078 852.5 1099.5Q831 1121 831 1150H1047Q1047 1121 1025.5 1099.5Q1004 1078 975 1078ZM831 1402V1330Q831 1315 820.5 1304.5Q810 1294 795 1294Q780 1294 769.5 1304.5Q759 1315 759 1330V1402Q759 1417 769.5 1427.5Q780 1438 795 1438Q810 1438 820.5 1427.5Q831 1417 831 1402ZM1083 1438Q1097 1438 1107.5 1427.0Q1118 1416 1118 1402V1330Q1118 1316 1107.5 1305.0Q1097 1294 1083 1294Q1068 1294 1057.5 1304.5Q1047 1315 1047 1330V1402Q1047 1417 1057.5 1427.5Q1068 1438 1083 1438Z" style="fill:#000000;stroke:none" transform="scale(1,-1) translate(0,-256)" /></svg>