<?xml version="1.0" encoding="utf-8" ?>
<svg baseProfile="full" height="256" version="1.1" width="256" xmlns="http://www.w3.org/2000/svg" xmlns:ev="http://www.w3.org/2001/xml-events" xmlns:xlink="http://www.w3.org/1999/xlink"><defs /><path d="M1550 1150Q1576 1150 1593.5 1135.5Q1611 1121 1619 1098Q1624 1084 1637.0 1042.5Q1650 1001 1666.0 945.5Q1682 890 1699.5 828.5Q1717 767 1731.5 713.5Q1746 660 1755.5 622.0Q1765 584 1765 576Q1765 547 1744.0 525.0Q1723 503 1693 503Q1670 503 1650.5 517.5Q1631 532 1624 555L1550 817V0Q1550 -29 1528.5 -50.5Q1507 -72 1478 -72Q1449 -72 1427.5 -50.5Q1406 -29 1406 0V467Q1406 482 1395.5 492.5Q1385 503 1370 503Q1355 503 1344.5 492.5Q1334 482 1334 467V0Q1334 -29 1312.5 -50.5Q1291 -72 1262 -72Q1233 -72 1211.5 -50.5Q1190 -29 1190 0V817L1116 555Q1109 532 1089.5 517.5Q1070 503 1047 503Q1017 503 996.0 525.0Q975 547 975 576Q975 584 984.5 622.0Q994 660 1008.5 713.5Q1023 767 1040.5 828.5Q1058 890 1074.0 945.5Q1090 1001 1103.0 1042.5Q1116 1084 1121 1098Q1129 1121 1146.5 1135.5Q1164 1150 1190 1150ZM1370 1222Q1340 1222 1314.0 1233.5Q1288 1245 1268.5 1264.5Q1249 1284 1237.5 1310.0Q1226 1336 1226 1366Q1226 1396 1237.5 1422.0Q1249 1448 1268.5 1467.5Q1288 1487 1314.0 1498.5Q1340 1510 1370 1510Q1400 1510 1426.0 1498.5Q1452 1487 1471.5 1467.5Q1491 1448 1502.5 1422.0Q1514 1396 1514 1366Q1514 1336 1502.5 1310.0Q1491 1284 1471.5 1264.5Q1452 1245 1426.0 1233.5Q1400 1222 1370 1222Z" style="fill:#ffffff;stroke:none" transform="scale(1,-1) translate(0,-256)" /></svg>