<?xml version="1.0" encoding="utf-8" ?>
<svg baseProfile="full" height="256" version="1.1" width="256" xmlns="http://www.w3.org/2000/svg" xmlns:ev="http://www.w3.org/2001/xml-events" xmlns:xlink="http://www.w3.org/1999/xlink"><defs /><path d="M975 181Q975 202 983.0 214.5Q991 227 1007 241Q1043 271 1092.5 293.0Q1142 315 1196.5 330.0Q1251 345 1305.5 352.0Q1360 359 1406 359Q1451 359 1506.0 351.5Q1561 344 1616.0 329.5Q1671 315 1720.5 293.0Q1770 271 1805 241Q1821 227 1829.0 215.0Q1837 203 1837 181Q1837 152 1815.5 130.5Q1794 109 1765 109Q1754 109 1744.5 112.5Q1735 116 1725 121L1710 129Q1670 149 1635.5 165.0Q1601 181 1566.0 192.5Q1531 204 1492.5 210.0Q1454 216 1406 216Q1355 216 1315.0 209.0Q1275 202 1239.0 189.5Q1203 177 1167.0 159.5Q1131 142 1087 121Q1077 116 1067.5 112.5Q1058 109 1047 109Q1018 109 996.5 130.5Q975 152 975 181ZM2053 1078Q2082 1078 2103.5 1056.5Q2125 1035 2125 1006Q2125 970 2096 949L1909 809V611Q1909 589 1900.5 569.5Q1892 550 1877.0 535.0Q1862 520 1842.5 511.5Q1823 503 1801 503Q1779 503 1759.5 511.5Q1740 520 1725.0 535.0Q1710 550 1701.5 569.5Q1693 589 1693 611V791Q1695 808 1701.5 823.0Q1708 838 1722 848L2010 1064Q2029 1078 2053 1078ZM1118 611Q1118 589 1109.5 569.5Q1101 550 1086.5 535.0Q1072 520 1052.5 511.5Q1033 503 1011 503Q989 503 969.5 511.5Q950 520 935.0 535.0Q920 550 911.5 569.5Q903 589 903 611V809L716 949Q687 970 687 1006Q687 1036 708.0 1057.0Q729 1078 759 1078Q783 1078 802 1064L1090 848Q1117 828 1117 791Z" style="fill:#000000;stroke:none" transform="scale(1,-1) translate(0,-256)" /></svg>