<?xml version="1.0" encoding="utf-8" ?>
<svg baseProfile="full" height="256" version="1.1" width="256" xmlns="http://www.w3.org/2000/svg" xmlns:ev="http://www.w3.org/2001/xml-events" xmlns:xlink="http://www.w3.org/1999/xlink"><defs /><path d="M400 1366Q445 1366 484.0 1383.0Q523 1400 552.0 1429.0Q581 1458 598.0 1497.0Q615 1536 615 1581V1725H831V1581H687Q687 1532 671.0 1487.0Q655 1442 626.5 1405.5Q598 1369 558.5 1342.5Q519 1316 472 1304V-72H400ZM1478 1725V1581Q1478 1536 1495.0 1497.0Q1512 1458 1541.0 1429.0Q1570 1400 1609.0 1383.0Q1648 1366 1693 1366V-72H1621V1304Q1574 1316 1534.5 1342.5Q1495 1369 1466.5 1405.5Q1438 1442 1422.0 1487.0Q1406 1532 1406 1581H1262V1725ZM976 1220Q946 1220 925.0 1241.5Q904 1263 904 1293V1581Q904 1617 903.5 1653.0Q903 1689 903 1725H1190V1581H1119V1220ZM543 1725V1581H400V1725ZM1550 1725H1693V1581H1550Z" style="fill:#0037da;stroke:none" transform="scale(1,-1) translate(0,-256)" /></svg>