<?xml version="1.0" encoding="utf-8" ?>
<svg baseProfile="full" height="256" version="1.1" width="256" xmlns="http://www.w3.org/2000/svg" xmlns:ev="http://www.w3.org/2001/xml-events" xmlns:xlink="http://www.w3.org/1999/xlink"><defs /><path d="M1503 422V350Q1503 315 1505.0 280.5Q1507 246 1507 211Q1507 164 1486.0 138.5Q1465 113 1433.0 100.5Q1401 88 1362.5 85.5Q1324 83 1288 83H1264Q1258 83 1253.0 84.0Q1248 85 1241 89Q1241 89 1234.0 107.0Q1227 125 1219.0 147.5Q1211 170 1202.5 190.0Q1194 210 1191 216Q1222 213 1252.5 211.0Q1283 209 1314 209Q1340 209 1350.5 219.5Q1361 230 1361 256V422H1036Q992 422 948.5 420.0Q905 418 861 418Q847 418 847 434V530Q847 544 861 544Q905 544 948.5 542.5Q992 541 1036 541H1796Q1840 541 1883.5 542.5Q1927 544 1971 544Q1985 544 1985 530V430Q1985 422 1982.0 420.0Q1979 418 1971 418Q1927 418 1883.5 420.0Q1840 422 1796 422ZM1736 972Q1737 925 1740.0 878.5Q1743 832 1743 785Q1743 768 1727 768H1626Q1611 768 1611 785Q1611 831 1613.5 877.0Q1616 923 1617 969Q1611 959 1597.5 941.0Q1584 923 1566.5 902.0Q1549 881 1528.5 859.0Q1508 837 1488.5 819.0Q1469 801 1452.0 789.5Q1435 778 1425 778Q1417 778 1410.0 787.0Q1403 796 1399 803Q1399 807 1391.5 816.0Q1384 825 1374.0 835.5Q1364 846 1355.0 855.0Q1346 864 1343 867Q1410 902 1468.5 950.0Q1527 998 1574 1058H1438Q1433 1055 1429 1055Q1425 1055 1423 1056Q1422 1059 1422.0 1062.5Q1422 1066 1422 1069V1155Q1422 1162 1427.5 1164.5Q1433 1167 1438 1167Q1483 1167 1526.0 1165.0Q1569 1163 1614 1163V1191Q1614 1220 1612.5 1248.0Q1611 1276 1606 1304H1631Q1642 1304 1662.5 1303.5Q1683 1303 1703.0 1301.5Q1723 1300 1738.0 1296.0Q1753 1292 1753 1286Q1753 1279 1751.5 1274.0Q1750 1269 1748 1263Q1743 1248 1742.0 1232.5Q1741 1217 1741 1201V1163H1829Q1869 1163 1908.0 1165.0Q1947 1167 1987 1167Q1992 1167 1996.5 1164.0Q2001 1161 2001 1155V1069Q2001 1063 1997.5 1058.5Q1994 1054 1987 1054Q1935 1054 1884.0 1056.0Q1833 1058 1781 1058Q1838 1001 1908.0 961.0Q1978 921 2052 890Q2046 884 2036.0 864.5Q2026 845 2015.0 824.0Q2004 803 1994.0 786.5Q1984 770 1978 770Q1972 770 1962.5 776.0Q1953 782 1948 785Q1888 823 1835.5 870.5Q1783 918 1736 972ZM1194 989Q1195 950 1195.5 911.0Q1196 872 1199 833Q1200 821 1201.5 809.0Q1203 797 1203 785Q1203 774 1199.5 771.0Q1196 768 1185 768H1087Q1081 768 1075 771Q1073 779 1073 785V974Q1041 917 995.0 868.5Q949 820 896 778Q891 774 882.0 767.5Q873 761 867 761Q863 761 852.5 774.5Q842 788 830.0 805.5Q818 823 807.0 839.0Q796 855 791 860Q929 937 1030 1058H851Q849 1057 845 1057Q834 1057 834 1069V1155Q834 1162 840.0 1164.5Q846 1167 851 1167Q889 1167 925.5 1165.0Q962 1163 1000 1163H1075V1190Q1075 1219 1073.5 1247.5Q1072 1276 1068 1305Q1100 1304 1131.0 1303.5Q1162 1303 1194 1298Q1198 1297 1206.0 1295.5Q1214 1294 1214 1288Q1214 1281 1211.0 1275.0Q1208 1269 1206 1263Q1204 1257 1203.0 1243.5Q1202 1230 1201.5 1214.5Q1201 1199 1201.0 1184.5Q1201 1170 1201 1163H1358Q1362 1165 1364 1165Q1373 1165 1373 1155V1069Q1373 1054 1358 1054H1231Q1263 1022 1303.0 996.5Q1343 971 1385 949Q1380 944 1370.0 928.5Q1360 913 1349.0 896.0Q1338 879 1328.5 865.5Q1319 852 1316 852Q1305 852 1287.5 869.5Q1270 887 1251.5 910.5Q1233 934 1217.0 956.5Q1201 979 1194 989ZM1184 611Q1138 611 1092.0 609.0Q1046 607 1000 607Q995 607 989.0 609.5Q983 612 983 619V718Q983 726 988.0 729.0Q993 732 1000 732Q1046 732 1092.0 730.0Q1138 728 1184 728H1654Q1702 728 1748.5 730.0Q1795 732 1843 732Q1844 732 1846.5 731.0Q1849 730 1850 730Q1852 722 1852 718V619Q1852 613 1847.5 610.0Q1843 607 1838 607Q1792 607 1746.0 609.0Q1700 611 1654 611ZM2017 226Q2011 221 1994.5 201.5Q1978 182 1960.5 161.0Q1943 140 1928.5 123.5Q1914 107 1912 107Q1901 107 1877.0 120.5Q1853 134 1822.0 155.0Q1791 176 1758.0 201.5Q1725 227 1696.0 251.5Q1667 276 1646.5 296.5Q1626 317 1622 327Q1627 332 1642.0 344.5Q1657 357 1673.5 370.5Q1690 384 1704.5 394.5Q1719 405 1724 405Q1729 405 1732.0 401.5Q1735 398 1738 395Q1795 335 1867.0 294.5Q1939 254 2017 226ZM1107 405Q1115 402 1136.0 392.5Q1157 383 1178.5 371.0Q1200 359 1217.0 347.0Q1234 335 1234 327Q1234 319 1228.5 316.0Q1223 313 1217 310Q1204 303 1193.0 293.5Q1182 284 1171 273Q1124 225 1073.5 189.0Q1023 153 966 119Q959 115 951.0 110.0Q943 105 935 105Q926 105 917.0 116.5Q908 128 903 134Q886 154 868.5 172.5Q851 191 829 206Q867 222 906.0 242.0Q945 262 982.0 287.0Q1019 312 1051.0 341.0Q1083 370 1107 405Z" style="fill:#ffffff;stroke:none" transform="scale(1,-1) translate(0,-256)" /></svg>