<?xml version="1.0" encoding="utf-8" ?>
<svg baseProfile="full" height="256" version="1.1" width="256" xmlns="http://www.w3.org/2000/svg" xmlns:ev="http://www.w3.org/2001/xml-events" xmlns:xlink="http://www.w3.org/1999/xlink"><defs /><path d="M1218 431Q1173 431 1141 463L782 822Q736 868 711.5 927.0Q687 986 687 1051V1186Q687 1208 695.5 1228.0Q704 1248 718.5 1262.5Q733 1277 752.5 1285.5Q772 1294 795 1294Q817 1294 836.5 1285.5Q856 1277 871.0 1262.0Q886 1247 894.5 1227.5Q903 1208 903 1186V1051Q903 1030 911.0 1010.0Q919 990 934 975L1294 615Q1309 600 1317.0 580.0Q1325 560 1325 539Q1325 517 1316.5 497.5Q1308 478 1293.5 463.0Q1279 448 1259.5 439.5Q1240 431 1218 431Z" style="fill:#ffffff;stroke:none" transform="scale(1,-1) translate(0,-256)" /></svg>