<?xml version="1.0" encoding="utf-8" ?>
<svg baseProfile="full" height="256" version="1.1" width="256" xmlns="http://www.w3.org/2000/svg" xmlns:ev="http://www.w3.org/2001/xml-events" xmlns:xlink="http://www.w3.org/1999/xlink"><defs /><path d="M2268 681Q2334 636 2387.5 577.0Q2441 518 2478.5 448.5Q2516 379 2536.0 301.5Q2556 224 2556 144V0H2466Q2441 -95 2387.5 -174.0Q2334 -253 2260.5 -310.0Q2187 -367 2097.0 -399.0Q2007 -431 1909 -431Q1844 -431 1781.0 -416.5Q1718 -402 1660.0 -374.0Q1602 -346 1551.5 -306.0Q1501 -266 1461 -215H945Q923 -264 889.0 -303.5Q855 -343 812.0 -371.5Q769 -400 719.0 -415.5Q669 -431 615 -431Q541 -431 475.5 -403.0Q410 -375 361.0 -326.0Q312 -277 284.0 -211.5Q256 -146 256 -72Q256 -18 271.5 32.0Q287 82 315.5 125.0Q344 168 383.5 202.0Q423 236 472 258V647Q472 705 495.0 757.5Q518 810 557.0 849.5Q596 889 648.0 912.0Q700 935 759 935Q759 980 776.0 1019.0Q793 1058 822.5 1087.0Q852 1116 891.5 1133.0Q931 1150 975 1150H1118V969L1190 1112V1438H2268Z" style="fill:#000000;stroke:none" transform="scale(1,-1) translate(0,-256)" /></svg>