<?xml version="1.0" encoding="utf-8" ?>
<svg baseProfile="full" height="256" version="1.1" width="256" xmlns="http://www.w3.org/2000/svg" xmlns:ev="http://www.w3.org/2001/xml-events" xmlns:xlink="http://www.w3.org/1999/xlink"><defs /><path d="M687 -72Q687 -101 665.5 -122.5Q644 -144 615 -144Q586 -144 564.5 -122.5Q543 -101 543 -72Q543 -43 564.5 -21.5Q586 0 615 0Q645 0 666.0 -21.0Q687 -42 687 -72ZM2053 144Q2053 114 2041.5 88.0Q2030 62 2010.5 42.5Q1991 23 1965.0 11.5Q1939 0 1909 0Q1879 0 1853.0 11.5Q1827 23 1807.5 42.5Q1788 62 1776.5 88.0Q1765 114 1765 144Q1765 174 1776.5 200.0Q1788 226 1807.5 245.5Q1827 265 1853.0 276.5Q1879 288 1909 288Q1939 288 1965.0 276.5Q1991 265 2010.5 245.5Q2030 226 2041.5 200.0Q2053 174 2053 144Z" style="fill:#fce100;stroke:none" transform="scale(1,-1) translate(0,-256)" /></svg>