<?xml version="1.0" encoding="utf-8" ?>
<svg baseProfile="full" height="256" version="1.1" width="256" xmlns="http://www.w3.org/2000/svg" xmlns:ev="http://www.w3.org/2001/xml-events" xmlns:xlink="http://www.w3.org/1999/xlink"><defs /><path d="M831 -72Q831 -117 814.0 -156.0Q797 -195 767.5 -224.0Q738 -253 699.0 -270.0Q660 -287 615 -287Q570 -287 531.0 -270.0Q492 -253 463.0 -224.0Q434 -195 417.0 -156.0Q400 -117 400 -72Q400 -27 417.0 12.0Q434 51 463.0 80.5Q492 110 531.0 127.0Q570 144 615 144Q660 144 699.0 127.0Q738 110 767.5 80.5Q797 51 814.0 12.0Q831 -27 831 -72ZM1478 144Q1478 233 1512.0 311.5Q1546 390 1604.5 448.5Q1663 507 1741.5 541.0Q1820 575 1909 575Q1998 575 2076.5 541.0Q2155 507 2213.5 448.5Q2272 390 2306.0 311.5Q2340 233 2340 144Q2340 55 2306.0 -23.5Q2272 -102 2213.5 -160.5Q2155 -219 2076.5 -253.0Q1998 -287 1909 -287Q1820 -287 1741.5 -253.0Q1663 -219 1604.5 -160.5Q1546 -102 1512.0 -23.5Q1478 55 1478 144Z" style="fill:#383838;stroke:none" transform="scale(1,-1) translate(0,-256)" /></svg>