<?xml version="1.0" encoding="utf-8" ?>
<svg baseProfile="full" height="256" version="1.1" width="256" xmlns="http://www.w3.org/2000/svg" xmlns:ev="http://www.w3.org/2001/xml-events" xmlns:xlink="http://www.w3.org/1999/xlink"><defs /><path d="M2268 -72Q2268 -117 2251.0 -156.0Q2234 -195 2205.0 -224.0Q2176 -253 2137.0 -270.0Q2098 -287 2053 -287Q2008 -287 1969.0 -270.0Q1930 -253 1900.5 -224.0Q1871 -195 1854.0 -156.0Q1837 -117 1837 -72Q1837 -27 1854.0 12.0Q1871 51 1900.5 80.5Q1930 110 1969.0 127.0Q2008 144 2053 144Q2098 144 2137.0 127.0Q2176 110 2205.0 80.5Q2234 51 2251.0 12.0Q2268 -27 2268 -72ZM903 -72Q903 -117 886.0 -156.0Q869 -195 839.5 -224.0Q810 -253 771.0 -270.0Q732 -287 687 -287Q642 -287 603.0 -270.0Q564 -253 535.0 -224.0Q506 -195 489.0 -156.0Q472 -117 472 -72H615L687 -108L759 -72Z" style="fill:#383838;stroke:none" transform="scale(1,-1) translate(0,-256)" /></svg>