<?xml version="1.0" encoding="utf-8" ?>
<svg baseProfile="full" height="256" version="1.1" width="256" xmlns="http://www.w3.org/2000/svg" xmlns:ev="http://www.w3.org/2001/xml-events" xmlns:xlink="http://www.w3.org/1999/xlink"><defs /><path d="M2053 216Q2113 216 2165.0 193.5Q2217 171 2256.0 132.0Q2295 93 2317.5 40.5Q2340 -12 2340 -72H2258Q2233 -72 2216.0 -60.0Q2199 -48 2189 -26Q2169 19 2136.5 45.5Q2104 72 2053 72Q2002 72 1968.5 45.5Q1935 19 1916 -26Q1898 -72 1848 -72H1765Q1765 -12 1787.5 40.5Q1810 93 1849.0 132.0Q1888 171 1940.5 193.5Q1993 216 2053 216ZM651 431Q673 431 692.5 422.5Q712 414 727.0 400.0Q742 386 750.5 366.0Q759 346 759 324Q759 301 750.5 281.5Q742 262 727.5 247.5Q713 233 693.0 224.5Q673 216 651 216H615L579 329L615 431ZM903 -72 687 -193 472 -72H400Q400 -12 422.5 40.5Q445 93 484.0 132.0Q523 171 575.0 193.5Q627 216 687 216Q694 216 700.5 215.5Q707 215 714 214Q729 168 743.0 122.5Q757 77 771 31Q785 -13 821.0 -41.5Q857 -70 903 -72Z" style="fill:#16c60c;stroke:none" transform="scale(1,-1) translate(0,-256)" /></svg>