<?xml version="1.0" encoding="utf-8" ?>
<svg baseProfile="full" height="256" version="1.1" width="256" xmlns="http://www.w3.org/2000/svg" xmlns:ev="http://www.w3.org/2001/xml-events" xmlns:xlink="http://www.w3.org/1999/xlink"><defs /><path d="M1764 320Q1764 325 1771.0 330.5Q1778 336 1787.5 341.0Q1797 346 1806.5 351.0Q1816 356 1820 360Q1848 387 1872.0 401.0Q1896 415 1920.5 422.0Q1945 429 1972.5 430.0Q2000 431 2035 431H2053L2217 503L2412 431V288L2376 216L2412 144V-72H2340L2053 35L1765 -72H903Q882 -72 845.5 -64.0Q809 -56 772.0 -42.0Q735 -28 705.5 -9.5Q676 9 669 31L716 216L651 431L775 473L903 431L1011 72H1190V216L1406 288V1037H1478V216Q1478 186 1489.0 159.5Q1500 133 1519.5 113.5Q1539 94 1565.5 83.0Q1592 72 1622 72Q1652 72 1678.0 83.5Q1704 95 1723.5 114.5Q1743 134 1754.0 160.0Q1765 186 1765 216Q1765 236 1771.5 258.0Q1778 280 1778 288Q1778 300 1771.0 305.5Q1764 311 1764 320Z" style="fill:#107c10;stroke:none" transform="scale(1,-1) translate(0,-256)" /></svg>