<?xml version="1.0" encoding="utf-8" ?>
<svg baseProfile="full" height="256" version="1.1" width="256" xmlns="http://www.w3.org/2000/svg" xmlns:ev="http://www.w3.org/2001/xml-events" xmlns:xlink="http://www.w3.org/1999/xlink"><defs /><path d="M2197 1150Q2242 1150 2281.0 1133.0Q2320 1116 2349.0 1087.0Q2378 1058 2395.0 1019.0Q2412 980 2412 935V431H2053V935Q2053 964 2031.5 985.0Q2010 1006 1981 1006H1011L903 503V431H615V503H831L957 1006H759Q759 1037 779.0 1061.0Q799 1085 830 1090L1070 1130Q1105 1136 1130.0 1143.0Q1155 1150 1190 1150Z" style="fill:#fce100;stroke:none" transform="scale(1,-1) translate(0,-256)" /></svg>