<?xml version="1.0" encoding="utf-8" ?>
<svg baseProfile="full" height="256" version="1.1" width="256" xmlns="http://www.w3.org/2000/svg" xmlns:ev="http://www.w3.org/2001/xml-events" xmlns:xlink="http://www.w3.org/1999/xlink"><defs /><path d="M2197 1294Q2271 1294 2336.5 1265.5Q2402 1237 2450.5 1188.5Q2499 1140 2527.5 1074.5Q2556 1009 2556 935V-215H2382Q2361 -264 2326.5 -304.0Q2292 -344 2249.0 -372.0Q2206 -400 2156.0 -415.5Q2106 -431 2053 -431Q1999 -431 1949.0 -415.5Q1899 -400 1856.0 -371.5Q1813 -343 1779.0 -303.5Q1745 -264 1723 -215H1017Q995 -264 961.0 -303.5Q927 -343 884.0 -371.5Q841 -400 791.0 -415.5Q741 -431 687 -431Q634 -431 584.0 -415.5Q534 -400 491.0 -372.0Q448 -344 413.5 -304.0Q379 -264 358 -215H256V-72Q256 21 293.5 104.0Q331 187 400 249V575H526L615 784V1006Q615 1048 629.5 1086.0Q644 1124 669.5 1154.0Q695 1184 730.0 1204.5Q765 1225 806 1232L1054 1273Q1072 1276 1086.5 1279.5Q1101 1283 1115.5 1286.5Q1130 1290 1145.0 1292.0Q1160 1294 1178 1294Z" style="fill:#000000;stroke:none" transform="scale(1,-1) translate(0,-256)" /></svg>