<?xml version="1.0" encoding="utf-8" ?>
<svg baseProfile="full" height="256" version="1.1" width="256" xmlns="http://www.w3.org/2000/svg" xmlns:ev="http://www.w3.org/2001/xml-events" xmlns:xlink="http://www.w3.org/1999/xlink"><defs /><path d="M328 360V694L706 1073Q641 1090 598 1139Q556 1142 519.0 1160.5Q482 1179 454 1210Q412 1213 376.0 1231.5Q340 1250 313.0 1279.0Q286 1308 271.0 1345.5Q256 1383 256 1425Q256 1470 273.0 1509.0Q290 1548 319.5 1577.5Q349 1607 388.0 1624.0Q427 1641 472 1641H759Q862 1641 951.0 1596.0Q1040 1551 1103 1470L1478 1844L2268 1054V719L2057 507Q2090 455 2107.5 396.0Q2125 337 2125 275V-12Q2125 -57 2108.0 -96.0Q2091 -135 2061.5 -164.5Q2032 -194 1993.0 -211.0Q1954 -228 1909 -228Q1867 -228 1829.5 -212.5Q1792 -197 1763.0 -170.5Q1734 -144 1715.5 -108.0Q1697 -72 1694 -30Q1645 15 1628 79L1118 -431Z" style="fill:#000000;stroke:none" transform="scale(1,-1) translate(0,-256)" /></svg>