<?xml version="1.0" encoding="utf-8" ?>
<svg baseProfile="full" height="256" version="1.1" width="256" xmlns="http://www.w3.org/2000/svg" xmlns:ev="http://www.w3.org/2001/xml-events" xmlns:xlink="http://www.w3.org/1999/xlink"><defs /><path d="M1693 563Q1753 563 1805.5 540.5Q1858 518 1897.0 479.0Q1936 440 1958.5 387.5Q1981 335 1981 275V-12Q1981 -42 1960.0 -63.0Q1939 -84 1909 -84Q1884 -84 1870.0 -75.0Q1856 -66 1848.5 -51.0Q1841 -36 1839.0 -17.0Q1837 2 1837 21V60Q1813 60 1798.5 69.5Q1784 79 1776.5 94.0Q1769 109 1767.0 128.0Q1765 147 1765 166V203Q1736 203 1714.5 224.5Q1693 246 1693 275Q1693 305 1682.0 331.0Q1671 357 1651.5 376.5Q1632 396 1606.0 407.5Q1580 419 1550 419ZM759 1497Q819 1497 871.5 1474.5Q924 1452 963.0 1413.0Q1002 1374 1024.5 1322.0Q1047 1270 1047 1210L903 1066Q903 1096 891.5 1122.0Q880 1148 860.5 1167.5Q841 1187 815.0 1198.5Q789 1210 759 1210Q729 1210 708.0 1231.0Q687 1252 687 1282Q676 1282 666.5 1281.5Q657 1281 646 1281Q627 1281 608.5 1283.5Q590 1286 575.5 1293.5Q561 1301 552.0 1315.0Q543 1329 543 1353H506Q487 1353 468.0 1355.0Q449 1357 434.0 1364.5Q419 1372 409.5 1386.5Q400 1401 400 1425Q400 1455 421.0 1476.0Q442 1497 472 1497Z" style="fill:#ffffff;stroke:none" transform="scale(1,-1) translate(0,-256)" /></svg>