<?xml version="1.0" encoding="utf-8" ?>
<svg baseProfile="full" height="256" version="1.1" width="256" xmlns="http://www.w3.org/2000/svg" xmlns:ev="http://www.w3.org/2001/xml-events" xmlns:xlink="http://www.w3.org/1999/xlink"><defs /><path d="M1478 1497 1981 994 1118 132 615 635Q684 702 751.0 770.0Q818 838 886 906ZM1550 779H1622L1786 943Q1765 964 1765 994Q1765 1024 1786 1045L1529 1303Q1508 1282 1478 1282Q1448 1282 1427 1303Q1270 1150 1115.5 997.5Q961 845 808 688Q831 665 831 635Q831 605 810 584L1068 326Q1089 347 1118 347Q1148 347 1169 326L1334 491V563Q1289 563 1250.0 580.0Q1211 597 1181.5 626.5Q1152 656 1135.0 695.0Q1118 734 1118 779Q1118 824 1135.0 863.0Q1152 902 1181.5 931.0Q1211 960 1250.0 977.0Q1289 994 1334 994Q1379 994 1418.0 977.0Q1457 960 1486.5 931.0Q1516 902 1533.0 863.0Q1550 824 1550 779Z" style="fill:#757575;stroke:none" transform="scale(1,-1) translate(0,-256)" /></svg>