<?xml version="1.0" encoding="utf-8" ?>
<svg baseProfile="full" height="256" version="1.1" width="256" xmlns="http://www.w3.org/2000/svg" xmlns:ev="http://www.w3.org/2001/xml-events" xmlns:xlink="http://www.w3.org/1999/xlink"><defs /><path d="M2125 994V922L2068 834L2125 850V779L1916 569Q1901 554 1887.0 538.5Q1873 523 1856 509Q1848 502 1818.5 485.5Q1789 469 1755.0 450.5Q1721 432 1689.5 415.5Q1658 399 1645 392Q1636 374 1624.5 347.5Q1613 321 1600.5 294.0Q1588 267 1575.0 242.5Q1562 218 1550 204Q1518 164 1480.0 130.0Q1442 96 1406 60L1118 -228L472 419V491L508 494L472 563V635Z" style="fill:#bad80a;stroke:none" transform="scale(1,-1) translate(0,-256)" /></svg>