<?xml version="1.0" encoding="utf-8" ?>
<svg baseProfile="full" height="256" version="1.1" width="256" xmlns="http://www.w3.org/2000/svg" xmlns:ev="http://www.w3.org/2001/xml-events" xmlns:xlink="http://www.w3.org/1999/xlink"><defs /><path d="M1257 151Q1257 174 1276.0 203.5Q1295 233 1321.0 263.0Q1347 293 1374.0 319.0Q1401 345 1418 360L1025 753Q978 736 929.5 727.5Q881 719 831 719Q712 719 607.5 764.5Q503 810 425.0 888.0Q347 966 301.5 1070.5Q256 1175 256 1294Q256 1412 301.5 1517.0Q347 1622 425.0 1700.0Q503 1778 607.5 1823.5Q712 1869 831 1869Q949 1869 1054.0 1823.5Q1159 1778 1237.0 1700.0Q1315 1622 1360.5 1517.0Q1406 1412 1406 1294Q1406 1244 1397.5 1195.5Q1389 1147 1372 1100L2196 275Q2268 203 2268 102Q2268 54 2250.5 11.0Q2233 -32 2202.5 -65.0Q2172 -98 2130.5 -118.5Q2089 -139 2041 -143L1765 -419L1284 63Q1280 67 1275.0 79.0Q1270 91 1266.0 105.0Q1262 119 1259.5 132.0Q1257 145 1257 151Z" style="fill:#000000;stroke:none" transform="scale(1,-1) translate(0,-256)" /></svg>