<?xml version="1.0" encoding="utf-8" ?>
<svg baseProfile="full" height="256" version="1.1" width="256" xmlns="http://www.w3.org/2000/svg" xmlns:ev="http://www.w3.org/2001/xml-events" xmlns:xlink="http://www.w3.org/1999/xlink"><defs /><path d="M1199 1070 2095 174Q2124 145 2124 102Q2124 59 2095 30Q2063 0 2023 0Q2005 0 1989.0 6.5Q1973 13 1959.0 23.5Q1945 34 1932.5 47.0Q1920 60 1909 72L1837 0L1909 -71L1765 -215L1621 -71V0H1550L1406 144L1550 288L1621 216L1693 288L1055 926Q1004 895 947.5 879.0Q891 863 831 863Q742 863 663.5 897.0Q585 931 526.5 989.5Q468 1048 434.0 1126.5Q400 1205 400 1294Q400 1383 434.0 1461.5Q468 1540 526.5 1598.5Q585 1657 663.5 1691.0Q742 1725 831 1725Q920 1725 998.5 1691.0Q1077 1657 1135.5 1598.5Q1194 1540 1228.0 1461.5Q1262 1383 1262 1294Q1262 1234 1246.0 1177.5Q1230 1121 1199 1070ZM543 1294Q543 1234 565.5 1182.0Q588 1130 627.0 1091.0Q666 1052 718.5 1029.5Q771 1007 831 1007Q891 1007 943.0 1029.5Q995 1052 1034.0 1091.0Q1073 1130 1095.5 1182.0Q1118 1234 1118 1294Q1118 1354 1095.5 1406.0Q1073 1458 1034.0 1497.0Q995 1536 943.0 1558.5Q891 1581 831 1581Q771 1581 718.5 1558.5Q666 1536 627.0 1497.0Q588 1458 565.5 1406.0Q543 1354 543 1294Z" style="fill:#eba300;stroke:none" transform="scale(1,-1) translate(0,-256)" /></svg>