<?xml version="1.0" encoding="utf-8" ?>
<svg baseProfile="full" height="256" version="1.1" width="256" xmlns="http://www.w3.org/2000/svg" xmlns:ev="http://www.w3.org/2001/xml-events" xmlns:xlink="http://www.w3.org/1999/xlink"><defs /><path d="M1622 1286Q1664 1205 1725.0 1140.0Q1786 1075 1860.5 1029.5Q1935 984 2020.5 959.5Q2106 935 2197 935V503Q2197 394 2168.5 293.0Q2140 192 2088.5 104.5Q2037 17 1965.0 -55.5Q1893 -128 1805.0 -179.5Q1717 -231 1616.0 -259.0Q1515 -287 1406 -287Q1297 -287 1196.0 -259.0Q1095 -231 1007.0 -179.5Q919 -128 847.0 -55.5Q775 17 723.5 104.5Q672 192 643.5 293.0Q615 394 615 503V935Q706 935 790.5 962.5Q875 990 946.5 1040.0Q1018 1090 1072.5 1160.5Q1127 1231 1157 1317Q1186 1246 1233.5 1189.0Q1281 1132 1342.0 1091.5Q1403 1051 1474.5 1029.0Q1546 1007 1622 1007Z" style="fill:#ffc83d;stroke:none" transform="scale(1,-1) translate(0,-256)" /></svg>