<?xml version="1.0" encoding="utf-8" ?>
<svg baseProfile="full" height="256" version="1.1" width="256" xmlns="http://www.w3.org/2000/svg" xmlns:ev="http://www.w3.org/2001/xml-events" xmlns:xlink="http://www.w3.org/1999/xlink"><defs /><path d="M2109 907Q2128 890 2144.5 870.5Q2161 851 2161 824Q2161 791 2136 769L2057 698Q1769 440 1438.5 248.0Q1108 56 741 -66Q696 -81 652.0 -94.5Q608 -108 560 -108Q519 -108 492.5 -88.0Q466 -68 441 -41L436 -35L446 -33Q436 -10 436 16Q436 58 460.0 90.5Q484 123 523 135Q574 152 625.5 167.0Q677 182 729 198Q1047 296 1344.5 445.5Q1642 595 1910 793L2033 884Q2052 899 2077 899Q2082 899 2087.0 899.0Q2092 899 2097 898L2103 913Z" style="fill:#613d30;stroke:none" transform="scale(1,-1) translate(0,-256)" /></svg>