<?xml version="1.0" encoding="utf-8" ?>
<svg baseProfile="full" height="256" version="1.1" width="256" xmlns="http://www.w3.org/2000/svg" xmlns:ev="http://www.w3.org/2001/xml-events" xmlns:xlink="http://www.w3.org/1999/xlink"><defs /><path d="M632 -54Q578 -72 524 -72Q498 -72 475.5 -62.0Q453 -52 436.0 -35.5Q419 -19 409.5 3.5Q400 26 400 52Q400 94 424.0 126.5Q448 159 487 171L693 234Q1014 333 1309.0 482.0Q1604 631 1874 829L1890 919L2021 932Q2031 935 2041 935H2050Q2066 935 2079.0 929.0Q2092 923 2103 913Q2125 891 2125 860Q2125 828 2100 805L2021 734Q1733 476 1402.5 284.0Q1072 92 705 -30Z" style="fill:#8e562e;stroke:none" transform="scale(1,-1) translate(0,-256)" /></svg>