<?xml version="1.0" encoding="utf-8" ?>
<svg baseProfile="full" height="256" version="1.1" width="256" xmlns="http://www.w3.org/2000/svg" xmlns:ev="http://www.w3.org/2001/xml-events" xmlns:xlink="http://www.w3.org/1999/xlink"><defs /><path d="M2141 823Q2181 802 2220.0 796.0Q2259 790 2301 790Q2319 790 2337.5 790.5Q2356 791 2376 791Q2391 791 2401.5 780.5Q2412 770 2412 755Q2412 740 2401.5 729.5Q2391 719 2376 719H2268Q2222 719 2177.5 731.5Q2133 744 2094 767Q2109 781 2121.0 792.0Q2133 803 2141 823ZM1472 1031Q1443 1046 1419.0 1058.5Q1395 1071 1372.5 1083.0Q1350 1095 1326.0 1106.5Q1302 1118 1272 1132Q1251 1142 1233.5 1149.0Q1216 1156 1199.0 1162.0Q1182 1168 1164.5 1174.5Q1147 1181 1125 1189L832 1304Q818 1309 803.0 1321.5Q788 1334 777 1342Q768 1348 744.5 1364.0Q721 1380 691.5 1401.5Q662 1423 630.5 1447.0Q599 1471 572.5 1493.0Q546 1515 529.0 1532.5Q512 1550 512 1559Q512 1562 513 1563L518 1575Q524 1589 531.5 1602.5Q539 1616 548.5 1627.0Q558 1638 571.0 1645.0Q584 1652 602 1652Q619 1652 635 1644Q983 1464 1327.0 1286.0Q1671 1108 2021 932Q2004 926 1982.5 910.5Q1961 895 1939.5 877.5Q1918 860 1900.0 845.5Q1882 831 1872 828ZM579 54Q579 31 563.5 15.5Q548 0 525 0Q502 0 487.0 16.0Q472 32 472 54Q472 76 487.0 92.0Q502 108 525 108Q548 108 563.5 92.5Q579 77 579 54ZM2053 827Q2053 812 2042.5 801.5Q2032 791 2017 791Q2002 791 1991.5 801.5Q1981 812 1981 827Q1981 842 1991.5 852.5Q2002 863 2017 863Q2032 863 2042.5 852.5Q2053 842 2053 827Z" style="fill:#cccccc;stroke:none" transform="scale(1,-1) translate(0,-256)" /></svg>