<?xml version="1.0" encoding="utf-8" ?>
<svg baseProfile="full" height="256" version="1.1" width="256" xmlns="http://www.w3.org/2000/svg" xmlns:ev="http://www.w3.org/2001/xml-events" xmlns:xlink="http://www.w3.org/1999/xlink"><defs /><path d="M256 51Q256 97 269.5 137.5Q283 178 307.5 211.0Q332 244 367.0 268.5Q402 293 445 308Q479 320 513.5 329.5Q548 339 583 350Q715 390 844 437Q1042 509 1228.5 602.0Q1415 695 1592 809L1292 961Q1269 950 1246.0 946.0Q1223 942 1198 942Q1172 942 1151 949Q1113 960 1076.0 979.5Q1039 999 1004 1017L754 1148Q680 1186 606.0 1224.0Q532 1262 459 1302Q405 1331 374.0 1381.5Q343 1432 343 1493Q343 1541 365 1588Q384 1629 404.0 1666.5Q424 1704 450.5 1733.0Q477 1762 513.5 1779.5Q550 1797 602 1797Q630 1797 654.0 1790.5Q678 1784 702 1772Q842 1703 978.0 1630.5Q1114 1558 1252 1486Q1452 1382 1650.5 1281.0Q1849 1180 2050 1078Q2083 1078 2109.0 1070.5Q2135 1063 2157.0 1050.0Q2179 1037 2199.0 1018.5Q2219 1000 2240 978Q2250 967 2258.0 957.0Q2266 947 2274 935H2376Q2413 935 2446.0 921.0Q2479 907 2503.5 882.5Q2528 858 2542.0 825.0Q2556 792 2556 755Q2556 718 2542.0 685.0Q2528 652 2503.5 627.5Q2479 603 2446.0 589.0Q2413 575 2376 575H2268Q2210 575 2151 589Q1991 446 1822.5 325.5Q1654 205 1475.5 104.5Q1297 4 1107.5 -78.0Q918 -160 714 -226Q679 -237 642.5 -244.5Q606 -252 569 -252Q509 -252 461.0 -233.0Q413 -214 370 -173Q344 -149 323.0 -124.5Q302 -100 287.0 -73.5Q272 -47 264.0 -16.5Q256 14 256 51Z" style="fill:#000000;stroke:none" transform="scale(1,-1) translate(0,-256)" /></svg>