<?xml version="1.0" encoding="utf-8" ?>
<svg baseProfile="full" height="256" version="1.1" width="256" xmlns="http://www.w3.org/2000/svg" xmlns:ev="http://www.w3.org/2001/xml-events" xmlns:xlink="http://www.w3.org/1999/xlink"><defs /><path d="M1801 1006Q1815 1006 1826.0 995.5Q1837 985 1837 971Q1837 956 1826.5 945.5Q1816 935 1801 935Q1704 935 1619.0 898.0Q1534 861 1470.5 797.5Q1407 734 1370.5 649.0Q1334 564 1334 467Q1334 453 1323.0 442.0Q1312 431 1298 431Q1284 431 1273.0 442.0Q1262 453 1262 467Q1262 578 1304.5 676.5Q1347 775 1420.0 848.0Q1493 921 1591.5 963.5Q1690 1006 1801 1006ZM759 1294Q789 1294 810.0 1273.0Q831 1252 831 1222Q831 1192 810.0 1171.0Q789 1150 759 1150Q729 1150 708.0 1171.0Q687 1192 687 1222Q687 1252 708.0 1273.0Q729 1294 759 1294Z" style="fill:#886ce4;stroke:none" transform="scale(1,-1) translate(0,-256)" /></svg>