<?xml version="1.0" encoding="utf-8" ?>
<svg baseProfile="full" height="256" version="1.1" width="256" xmlns="http://www.w3.org/2000/svg" xmlns:ev="http://www.w3.org/2001/xml-events" xmlns:xlink="http://www.w3.org/1999/xlink"><defs /><path d="M543 1222Q543 1267 560.0 1306.0Q577 1345 606.5 1374.5Q636 1404 675.0 1421.0Q714 1438 759 1438H831V1474Q831 1521 848.0 1563.5Q865 1606 894.0 1639.5Q923 1673 963.0 1695.0Q1003 1717 1050 1723Q1056 1754 1072.0 1781.0Q1088 1808 1111.5 1827.5Q1135 1847 1164.5 1858.0Q1194 1869 1226 1869Q1263 1869 1296.0 1855.0Q1329 1841 1353.5 1816.5Q1378 1792 1392.0 1759.0Q1406 1726 1406 1689V1581H1478Q1523 1581 1562.0 1564.0Q1601 1547 1630.0 1518.0Q1659 1489 1676.0 1450.0Q1693 1411 1693 1366Q1693 1310 1667.0 1261.5Q1641 1213 1593 1184Q1609 1155 1617 1124Q1685 1142 1754.0 1146.0Q1823 1150 1893 1150Q1924 1184 1965.5 1203.0Q2007 1222 2053 1222Q2099 1222 2137.5 1205.0Q2176 1188 2204.5 1158.5Q2233 1129 2249.5 1090.0Q2266 1051 2268 1006Q2269 988 2269.0 970.5Q2269 953 2269 935Q2302 922 2326.5 899.0Q2351 876 2369.0 847.0Q2387 818 2397.5 785.0Q2408 752 2412 719Q2444 713 2470.5 696.0Q2497 679 2516.0 655.0Q2535 631 2545.5 601.0Q2556 571 2556 539Q2556 502 2542.0 469.5Q2528 437 2503.5 412.5Q2479 388 2446.0 374.0Q2413 360 2376 360H2125V288Q2125 243 2108.0 204.0Q2091 165 2061.5 135.5Q2032 106 1993.0 89.0Q1954 72 1909 72Q1861 72 1817.5 93.0Q1774 114 1743 151Q1719 91 1676.5 51.5Q1634 12 1576 -13L640 -414Q617 -424 592.5 -427.5Q568 -431 543 -431Q485 -431 433.0 -409.0Q381 -387 341.5 -348.5Q302 -310 279.0 -259.0Q256 -208 256 -149Q256 -121 261.0 -94.0Q266 -67 277 -41L675 889Q690 924 708.5 952.5Q727 981 756 1007Q712 1007 673.5 1024.5Q635 1042 606.0 1071.0Q577 1100 560.0 1139.0Q543 1178 543 1222Z" style="fill:#000000;stroke:none" transform="scale(1,-1) translate(0,-256)" /></svg>