<?xml version="1.0" encoding="utf-8" ?>
<svg baseProfile="full" height="256" version="1.1" width="256" xmlns="http://www.w3.org/2000/svg" xmlns:ev="http://www.w3.org/2001/xml-events" xmlns:xlink="http://www.w3.org/1999/xlink"><defs /><path d="M1406 1150Q1436 1150 1457.0 1129.0Q1478 1108 1478 1078Q1478 1049 1456.5 1027.5Q1435 1006 1406 1006Q1377 1006 1355.5 1027.5Q1334 1049 1334 1078Q1334 1108 1355.0 1129.0Q1376 1150 1406 1150ZM1909 360Q1938 360 1959.5 338.5Q1981 317 1981 288Q1981 258 1960.0 237.0Q1939 216 1909 216Q1879 216 1858.0 237.0Q1837 258 1837 288Q1837 317 1858.5 338.5Q1880 360 1909 360Z" style="fill:#fff100;stroke:none" transform="scale(1,-1) translate(0,-256)" /></svg>