<?xml version="1.0" encoding="utf-8" ?>
<svg baseProfile="full" height="256" version="1.1" width="256" xmlns="http://www.w3.org/2000/svg" xmlns:ev="http://www.w3.org/2001/xml-events" xmlns:xlink="http://www.w3.org/1999/xlink"><defs /><path d="M1190 360Q1219 360 1240.5 338.5Q1262 317 1262 288Q1262 258 1241.0 237.0Q1220 216 1190 216Q1161 216 1139.5 237.5Q1118 259 1118 288Q1118 317 1139.5 338.5Q1161 360 1190 360ZM1478 1438Q1508 1438 1529.0 1417.0Q1550 1396 1550 1366Q1550 1336 1529.0 1315.0Q1508 1294 1478 1294Q1448 1294 1427.0 1315.0Q1406 1336 1406 1366Q1406 1396 1427.0 1417.0Q1448 1438 1478 1438ZM1226 1725Q1239 1725 1246.5 1719.5Q1254 1714 1258.0 1705.0Q1262 1696 1263.0 1685.5Q1264 1675 1264 1665Q1264 1635 1260.5 1607.5Q1257 1580 1245.5 1558.0Q1234 1536 1212.5 1523.0Q1191 1510 1154 1510Q1143 1510 1131.0 1511.0Q1119 1512 1108 1512Q1098 1512 1087.0 1511.0Q1076 1510 1067.0 1506.0Q1058 1502 1052.5 1494.5Q1047 1487 1047 1474Q1047 1450 1065.5 1443.0Q1084 1436 1107 1436Q1121 1436 1133.0 1437.0Q1145 1438 1154 1438Q1176 1438 1195.5 1429.5Q1215 1421 1230.0 1406.0Q1245 1391 1253.5 1371.5Q1262 1352 1262 1330Q1262 1307 1253.5 1287.5Q1245 1268 1230.5 1253.5Q1216 1239 1196.0 1230.5Q1176 1222 1154 1222Q1143 1222 1131.0 1223.0Q1119 1224 1108 1224Q1098 1224 1087.0 1223.0Q1076 1222 1067.0 1218.0Q1058 1214 1052.5 1206.5Q1047 1199 1047 1186Q1047 1162 1065.5 1155.0Q1084 1148 1107 1148Q1121 1148 1133.0 1149.0Q1145 1150 1154 1150Q1176 1150 1196.0 1141.5Q1216 1133 1230.5 1118.5Q1245 1104 1253.5 1084.0Q1262 1064 1262 1042Q1262 1031 1263.0 1019.0Q1264 1007 1264 996Q1264 986 1263.0 975.0Q1262 964 1258.0 955.0Q1254 946 1246.5 940.5Q1239 935 1226 935Q1202 935 1195.5 952.5Q1189 970 1189 991Q1189 1000 1189.5 1008.5Q1190 1017 1190 1024Q1190 1034 1189.0 1043.5Q1188 1053 1184.5 1060.5Q1181 1068 1173.5 1073.0Q1166 1078 1154 1078H1083Q1061 1078 1041.5 1086.5Q1022 1095 1007.0 1110.0Q992 1125 983.5 1144.5Q975 1164 975 1186Q975 1208 983.5 1228.0Q992 1248 1006.5 1262.5Q1021 1277 1040.5 1285.5Q1060 1294 1083 1294Q1094 1294 1106.0 1293.0Q1118 1292 1129 1292Q1139 1292 1150.0 1293.0Q1161 1294 1170.0 1298.0Q1179 1302 1184.5 1309.5Q1190 1317 1190 1330Q1190 1354 1171.5 1361.0Q1153 1368 1130 1368Q1116 1368 1104.0 1367.0Q1092 1366 1083 1366Q1060 1366 1040.5 1374.5Q1021 1383 1006.5 1397.5Q992 1412 983.5 1431.5Q975 1451 975 1474Q975 1496 983.5 1515.5Q992 1535 1007.0 1549.5Q1022 1564 1041.5 1572.5Q1061 1581 1083 1581H1154Q1178 1581 1185.0 1598.0Q1192 1615 1192 1635Q1192 1646 1191.0 1656.5Q1190 1667 1190 1675Q1190 1695 1196.0 1710.0Q1202 1725 1226 1725Z" style="fill:#00bcf2;stroke:none" transform="scale(1,-1) translate(0,-256)" /></svg>