<?xml version="1.0" encoding="utf-8" ?>
<svg baseProfile="full" height="256" version="1.1" width="256" xmlns="http://www.w3.org/2000/svg" xmlns:ev="http://www.w3.org/2001/xml-events" xmlns:xlink="http://www.w3.org/1999/xlink"><defs /><path d="M975 647Q1004 647 1025.5 625.5Q1047 604 1047 575Q1047 546 1025.5 524.5Q1004 503 975 503Q945 503 924.0 524.0Q903 545 903 575Q903 605 924.0 626.0Q945 647 975 647ZM2053 935Q2024 935 2002.5 956.0Q1981 977 1981 1006Q1981 1036 2002.0 1057.0Q2023 1078 2053 1078Q2083 1078 2104.0 1057.0Q2125 1036 2125 1006Q2125 977 2103.5 956.0Q2082 935 2053 935ZM2161 791Q2183 791 2202.5 782.5Q2222 774 2236.5 759.0Q2251 744 2259.5 724.5Q2268 705 2268 683V611Q2268 587 2284.5 580.0Q2301 573 2321 573Q2332 573 2342.5 574.0Q2353 575 2361 575Q2381 575 2396.5 569.0Q2412 563 2412 539Q2412 526 2406.5 518.5Q2401 511 2392.0 507.0Q2383 503 2372.5 502.0Q2362 501 2352 501Q2322 501 2294.5 504.5Q2267 508 2245.0 519.5Q2223 531 2210.0 552.5Q2197 574 2197 611Q2197 623 2198.0 634.5Q2199 646 2199 658Q2199 668 2198.0 679.0Q2197 690 2193.0 699.0Q2189 708 2181.5 713.5Q2174 719 2161 719Q2137 719 2130.0 700.5Q2123 682 2123 659Q2123 645 2124.0 632.5Q2125 620 2125 611Q2125 589 2116.5 569.5Q2108 550 2093.0 535.0Q2078 520 2058.5 511.5Q2039 503 2017 503Q1995 503 1975.5 511.5Q1956 520 1941.0 535.0Q1926 550 1917.5 569.5Q1909 589 1909 611Q1909 623 1910.0 634.5Q1911 646 1911 658Q1911 668 1910.0 679.0Q1909 690 1905.0 699.0Q1901 708 1893.5 713.5Q1886 719 1873 719Q1849 719 1842.0 700.5Q1835 682 1835 659Q1835 645 1836.0 632.5Q1837 620 1837 611Q1837 589 1828.5 569.5Q1820 550 1805.0 535.0Q1790 520 1770.5 511.5Q1751 503 1729 503Q1717 503 1705.5 502.0Q1694 501 1682 501Q1672 501 1661.5 502.0Q1651 503 1642.0 507.0Q1633 511 1627.5 518.5Q1622 526 1622 539Q1622 563 1639.5 569.5Q1657 576 1678 576Q1687 576 1695.5 575.5Q1704 575 1711 575Q1721 575 1730.5 576.0Q1740 577 1747.5 580.5Q1755 584 1760.0 591.5Q1765 599 1765 611V683Q1765 705 1773.5 724.5Q1782 744 1797.0 759.0Q1812 774 1831.5 782.5Q1851 791 1873 791Q1895 791 1914.5 782.5Q1934 774 1949.0 759.0Q1964 744 1972.5 724.5Q1981 705 1981 683Q1981 671 1980.0 659.5Q1979 648 1979 636Q1979 626 1980.0 615.0Q1981 604 1985.0 595.0Q1989 586 1996.5 580.5Q2004 575 2017 575Q2041 575 2048.0 593.5Q2055 612 2055 635Q2055 649 2054.0 661.5Q2053 674 2053 683Q2053 705 2061.5 724.5Q2070 744 2085.0 759.0Q2100 774 2119.5 782.5Q2139 791 2161 791Z" style="fill:#f03a17;stroke:none" transform="scale(1,-1) translate(0,-256)" /></svg>