<?xml version="1.0" encoding="utf-8" ?>
<svg baseProfile="full" height="256" version="1.1" width="256" xmlns="http://www.w3.org/2000/svg" xmlns:ev="http://www.w3.org/2001/xml-events" xmlns:xlink="http://www.w3.org/1999/xlink"><defs /><path d="M543 -287Q515 -287 489.0 -276.5Q463 -266 443.5 -247.0Q424 -228 412.0 -203.0Q400 -178 400 -149Q400 -135 402.0 -122.0Q404 -109 409 -97L809 836Q829 881 862.0 907.5Q895 934 946 934Q978 934 1001.5 923.5Q1025 913 1047 891L1579 360Q1599 340 1610.5 313.5Q1622 287 1622 258Q1622 207 1596.0 174.0Q1570 141 1524 121L589 -280Q579 -284 566.5 -285.5Q554 -287 543 -287Z" style="fill:#ffc83d;stroke:none" transform="scale(1,-1) translate(0,-256)" /></svg>