<?xml version="1.0" encoding="utf-8" ?>
<svg baseProfile="full" height="256" version="1.1" width="256" xmlns="http://www.w3.org/2000/svg" xmlns:ev="http://www.w3.org/2001/xml-events" xmlns:xlink="http://www.w3.org/1999/xlink"><defs /><path d="M1765 791Q1795 791 1816.0 770.0Q1837 749 1837 719Q1837 689 1816.0 668.0Q1795 647 1765 647Q1736 647 1714.5 668.5Q1693 690 1693 719Q1693 748 1714.5 769.5Q1736 791 1765 791ZM1765 1078Q1795 1078 1816.0 1057.0Q1837 1036 1837 1006Q1837 977 1815.5 956.0Q1794 935 1765 935Q1736 935 1714.5 956.0Q1693 977 1693 1006Q1693 1035 1714.5 1056.5Q1736 1078 1765 1078ZM1765 503Q1795 503 1816.0 482.0Q1837 461 1837 431Q1837 402 1815.5 381.0Q1794 360 1765 360Q1736 360 1714.5 381.0Q1693 402 1693 431Q1693 460 1714.5 481.5Q1736 503 1765 503Z" style="fill:#000000;stroke:none" transform="scale(1,-1) translate(0,-256)" /></svg>