<?xml version="1.0" encoding="utf-8" ?>
<svg baseProfile="full" height="256" version="1.1" width="256" xmlns="http://www.w3.org/2000/svg" xmlns:ev="http://www.w3.org/2001/xml-events" xmlns:xlink="http://www.w3.org/1999/xlink"><defs /><path d="M2197 1150Q2226 1150 2247.0 1128.5Q2268 1107 2268 1078V647Q2268 618 2247.0 596.5Q2226 575 2197 575H2053Q2023 575 2002.0 596.0Q1981 617 1981 647V1078Q1981 1108 2002.0 1129.0Q2023 1150 2053 1150ZM1406 575Q1436 575 1457.0 554.0Q1478 533 1478 503Q1478 474 1456.5 452.5Q1435 431 1406 431H615Q586 431 564.5 452.5Q543 474 543 503Q543 532 564.5 553.5Q586 575 615 575ZM1406 1150Q1436 1150 1457.0 1129.0Q1478 1108 1478 1078Q1478 1049 1456.5 1027.5Q1435 1006 1406 1006H615Q586 1006 564.5 1027.5Q543 1049 543 1078Q543 1107 564.5 1128.5Q586 1150 615 1150ZM615 719Q586 719 564.5 740.5Q543 762 543 791Q543 820 564.5 841.5Q586 863 615 863H1190Q1220 863 1241.0 842.0Q1262 821 1262 791Q1262 761 1241.0 740.0Q1220 719 1190 719ZM2197 431Q2226 431 2247.0 410.0Q2268 389 2268 360Q2268 331 2247.0 309.5Q2226 288 2197 288H2053Q2023 288 2002.0 309.0Q1981 330 1981 360Q1981 389 2002.5 410.0Q2024 431 2053 431Z" style="fill:#3a96dd;stroke:none" transform="scale(1,-1) translate(0,-256)" /></svg>