<?xml version="1.0" encoding="utf-8" ?>
<svg baseProfile="full" height="256" version="1.1" width="256" xmlns="http://www.w3.org/2000/svg" xmlns:ev="http://www.w3.org/2001/xml-events" xmlns:xlink="http://www.w3.org/1999/xlink"><defs /><path d="M2268 1366Q2298 1366 2324.0 1354.5Q2350 1343 2369.5 1323.5Q2389 1304 2400.5 1278.0Q2412 1252 2412 1222V216Q2412 186 2400.5 159.5Q2389 133 2369.5 113.5Q2350 94 2324.0 83.0Q2298 72 2268 72H1909L1818 192Q1809 203 1794.0 209.5Q1779 216 1765 216Q1750 216 1736.0 210.0Q1722 204 1713 192L1622 72H543Q513 72 487.0 83.5Q461 95 441.5 114.5Q422 134 411.0 160.0Q400 186 400 216V1222Q400 1252 411.0 1278.0Q422 1304 441.5 1323.5Q461 1343 487.0 1354.5Q513 1366 543 1366H1622L1713 1246Q1722 1234 1736.5 1228.0Q1751 1222 1765 1222Q1779 1222 1794.0 1227.5Q1809 1233 1818 1245L1909 1366Z" style="fill:#69eaff;stroke:none" transform="scale(1,-1) translate(0,-256)" /></svg>