<?xml version="1.0" encoding="utf-8" ?>
<svg baseProfile="full" height="256" version="1.1" width="256" xmlns="http://www.w3.org/2000/svg" xmlns:ev="http://www.w3.org/2001/xml-events" xmlns:xlink="http://www.w3.org/1999/xlink"><defs /><path d="M2268 1510Q2328 1510 2380.5 1487.5Q2433 1465 2472.0 1426.0Q2511 1387 2533.5 1334.5Q2556 1282 2556 1222V216Q2556 156 2533.5 103.5Q2511 51 2472.0 12.0Q2433 -27 2380.5 -49.5Q2328 -72 2268 -72H543Q484 -72 432.0 -49.0Q380 -26 341.0 13.5Q302 53 279.0 105.0Q256 157 256 216V1222Q256 1280 279.0 1332.5Q302 1385 341.0 1424.5Q380 1464 432.0 1487.0Q484 1510 543 1510Z" style="fill:#000000;stroke:none" transform="scale(1,-1) translate(0,-256)" /></svg>