<?xml version="1.0" encoding="utf-8" ?>
<svg baseProfile="full" height="256" version="1.1" width="256" xmlns="http://www.w3.org/2000/svg" xmlns:ev="http://www.w3.org/2001/xml-events" xmlns:xlink="http://www.w3.org/1999/xlink"><defs /><path d="M1406 -287Q1295 -287 1187.5 -264.0Q1080 -241 980 -193Q956 -163 934.0 -139.5Q912 -116 886.5 -98.5Q861 -81 830.5 -70.0Q800 -59 761 -53Q649 41 567.5 162.0Q486 283 444 423Q442 428 438.5 441.0Q435 454 431.5 468.0Q428 482 425.0 494.0Q422 506 422 510Q422 527 425.5 543.5Q429 560 431 577Q436 612 438.5 648.0Q441 684 441 719Q441 772 436.5 824.0Q432 876 422 928Q452 1071 522.0 1200.5Q592 1330 697 1433Q712 1447 728.0 1463.5Q744 1480 761 1491Q774 1500 790.0 1505.5Q806 1511 822.0 1516.0Q838 1521 854.0 1526.0Q870 1531 885 1539Q912 1553 937.0 1578.0Q962 1603 977 1629Q1078 1677 1186.0 1701.0Q1294 1725 1406 1725Q1471 1725 1522.5 1692.5Q1574 1660 1615.0 1607.0Q1656 1554 1686.0 1487.0Q1716 1420 1738.0 1350.5Q1760 1281 1773.5 1215.5Q1787 1150 1795 1100Q1810 1005 1816.5 910.0Q1823 815 1823 719Q1823 623 1816.5 528.0Q1810 433 1795 338Q1787 288 1773.5 222.5Q1760 157 1738.0 87.5Q1716 18 1686.0 -49.0Q1656 -116 1615.0 -169.0Q1574 -222 1522.5 -254.5Q1471 -287 1406 -287Z" style="fill:#ffc83d;stroke:none" transform="scale(1,-1) translate(0,-256)" /></svg>