<?xml version="1.0" encoding="utf-8" ?>
<svg baseProfile="full" height="256" version="1.1" width="256" xmlns="http://www.w3.org/2000/svg" xmlns:ev="http://www.w3.org/2001/xml-events" xmlns:xlink="http://www.w3.org/1999/xlink"><defs /><path d="M1550 971Q1550 934 1540.0 900.0Q1530 866 1511.0 837.0Q1492 808 1465.5 784.0Q1439 760 1406 744V1197Q1471 1165 1510.5 1104.5Q1550 1044 1550 971ZM2403 848Q2407 816 2409.5 783.5Q2412 751 2412 719Q2412 687 2409.5 654.5Q2407 622 2403 590Q2388 583 2372.5 579.0Q2357 575 2340 575Q2310 575 2284.0 586.5Q2258 598 2238.5 617.5Q2219 637 2208.0 663.0Q2197 689 2197 719Q2197 749 2208.0 775.0Q2219 801 2238.5 820.5Q2258 840 2284.0 851.5Q2310 863 2340 863Q2357 863 2372.5 859.0Q2388 855 2403 848ZM1981 503Q1981 473 1969.5 447.0Q1958 421 1938.5 401.5Q1919 382 1893.0 371.0Q1867 360 1837 360Q1807 360 1781.0 371.0Q1755 382 1735.5 401.5Q1716 421 1704.5 447.0Q1693 473 1693 503Q1693 533 1704.5 559.0Q1716 585 1735.5 604.5Q1755 624 1781.0 635.5Q1807 647 1837 647Q1867 647 1893.0 635.5Q1919 624 1938.5 604.5Q1958 585 1969.5 559.0Q1981 533 1981 503ZM1945 1438Q1922 1438 1902.5 1446.5Q1883 1455 1868.5 1469.5Q1854 1484 1845.5 1503.5Q1837 1523 1837 1546Q1837 1565 1844.0 1583.0Q1851 1601 1863 1615Q1957 1566 2042 1499Q2028 1471 2002.5 1454.5Q1977 1438 1945 1438ZM1945 72Q1967 72 1987.0 63.5Q2007 55 2021.5 40.5Q2036 26 2044.5 6.0Q2053 -14 2053 -36Q2053 -41 2052.5 -44.5Q2052 -48 2051 -53Q2022 -78 1990.0 -100.0Q1958 -122 1925 -142Q1887 -134 1862.0 -104.5Q1837 -75 1837 -36Q1837 -14 1845.5 6.0Q1854 26 1868.5 40.5Q1883 55 1902.5 63.5Q1922 72 1945 72Z" style="fill:#383838;stroke:none" transform="scale(1,-1) translate(0,-256)" /></svg>