<?xml version="1.0" encoding="utf-8" ?>
<svg baseProfile="full" height="256" version="1.1" width="256" xmlns="http://www.w3.org/2000/svg" xmlns:ev="http://www.w3.org/2001/xml-events" xmlns:xlink="http://www.w3.org/1999/xlink"><defs /><path d="M1406 1725Q1525 1725 1641.0 1697.5Q1757 1670 1863 1616Q1872 1583 1889.0 1560.5Q1906 1538 1929.5 1524.5Q1953 1511 1981.5 1505.0Q2010 1499 2042 1499Q2117 1438 2178.0 1364.5Q2239 1291 2285.5 1208.0Q2332 1125 2362.0 1034.5Q2392 944 2404 848Q2390 815 2379.5 778.0Q2369 741 2369 705Q2369 673 2375.0 643.5Q2381 614 2404 590Q2392 496 2362.5 406.5Q2333 317 2288.0 235.0Q2243 153 2183.0 80.0Q2123 7 2051 -53Q2009 -61 1977.5 -83.0Q1946 -105 1926 -143Q1808 -215 1676.0 -251.0Q1544 -287 1406 -287Z" style="fill:#757575;stroke:none" transform="scale(1,-1) translate(0,-256)" /></svg>