<?xml version="1.0" encoding="utf-8" ?>
<svg baseProfile="full" height="256" version="1.1" width="256" xmlns="http://www.w3.org/2000/svg" xmlns:ev="http://www.w3.org/2001/xml-events" xmlns:xlink="http://www.w3.org/1999/xlink"><defs /><path d="M543 72Q484 72 432.0 95.0Q380 118 341.0 157.5Q302 197 279.0 249.0Q256 301 256 360V1366Q256 1424 279.0 1476.5Q302 1529 341.5 1568.0Q381 1607 433.0 1630.0Q485 1653 544 1653H2268Q2326 1653 2378.5 1630.0Q2431 1607 2470.5 1568.0Q2510 1529 2533.0 1476.5Q2556 1424 2556 1366V360Q2556 300 2533.5 247.5Q2511 195 2472.0 156.0Q2433 117 2380.5 94.5Q2328 72 2268 72H1034L543 -419Z" style="fill:#000000;stroke:none" transform="scale(1,-1) translate(0,-256)" /></svg>