<?xml version="1.0" encoding="utf-8" ?>
<svg baseProfile="full" height="256" version="1.1" width="256" xmlns="http://www.w3.org/2000/svg" xmlns:ev="http://www.w3.org/2001/xml-events" xmlns:xlink="http://www.w3.org/1999/xlink"><defs /><path d="M1047 863Q1047 833 1035.5 807.0Q1024 781 1004.5 761.5Q985 742 959.0 730.5Q933 719 903 719Q873 719 846.5 730.0Q820 741 800.5 760.5Q781 780 770.0 806.5Q759 833 759 863Q759 893 770.5 919.0Q782 945 801.5 964.5Q821 984 847.0 995.0Q873 1006 903 1006Q933 1006 959.0 995.0Q985 984 1004.5 964.5Q1024 945 1035.5 919.0Q1047 893 1047 863ZM1550 863Q1550 833 1538.5 807.0Q1527 781 1507.5 761.5Q1488 742 1462.0 730.5Q1436 719 1406 719Q1376 719 1350.0 730.5Q1324 742 1304.5 761.5Q1285 781 1273.5 807.0Q1262 833 1262 863Q1262 893 1273.5 919.0Q1285 945 1304.5 964.5Q1324 984 1350.0 995.0Q1376 1006 1406 1006Q1436 1006 1462.0 995.0Q1488 984 1507.5 964.5Q1527 945 1538.5 919.0Q1550 893 1550 863ZM2053 863Q2053 833 2041.5 807.0Q2030 781 2010.5 761.5Q1991 742 1965.0 730.5Q1939 719 1909 719Q1879 719 1853.0 730.5Q1827 742 1807.5 761.5Q1788 781 1776.5 807.0Q1765 833 1765 863Q1765 893 1776.5 919.0Q1788 945 1807.5 964.5Q1827 984 1853.0 995.0Q1879 1006 1909 1006Q1939 1006 1965.0 995.0Q1991 984 2010.5 964.5Q2030 945 2041.5 919.0Q2053 893 2053 863Z" style="fill:#383838;stroke:none" transform="scale(1,-1) translate(0,-256)" /></svg>