<?xml version="1.0" encoding="utf-8" ?>
<svg baseProfile="full" height="256" version="1.1" width="256" xmlns="http://www.w3.org/2000/svg" xmlns:ev="http://www.w3.org/2001/xml-events" xmlns:xlink="http://www.w3.org/1999/xlink"><defs /><path d="M2268 1510Q2298 1510 2324.0 1498.5Q2350 1487 2369.5 1467.5Q2389 1448 2400.5 1422.0Q2412 1396 2412 1366V360Q2412 330 2400.5 303.5Q2389 277 2369.5 257.5Q2350 238 2324.0 227.0Q2298 216 2268 216H975L687 -72V216H544Q514 216 487.5 227.0Q461 238 441.5 257.5Q422 277 411.0 303.5Q400 330 400 360V1366Q400 1396 411.5 1422.0Q423 1448 442.5 1467.5Q462 1487 488.0 1498.5Q514 1510 544 1510Z" style="fill:#ffffff;stroke:none" transform="scale(1,-1) translate(0,-256)" /></svg>