<?xml version="1.0" encoding="utf-8" ?>
<svg baseProfile="full" height="256" version="1.1" width="256" xmlns="http://www.w3.org/2000/svg" xmlns:ev="http://www.w3.org/2001/xml-events" xmlns:xlink="http://www.w3.org/1999/xlink"><defs /><path d="M2268 1797Q2326 1797 2378.5 1774.0Q2431 1751 2470.5 1712.0Q2510 1673 2533.0 1620.5Q2556 1568 2556 1510V1294Q2474 1294 2392.5 1295.0Q2311 1296 2229 1296Q2130 1296 2033 1293L1357 -59Q1322 -129 1271.0 -184.5Q1220 -240 1157.5 -279.0Q1095 -318 1022.0 -338.5Q949 -359 871 -359Q759 -359 660.0 -316.0Q561 -273 487.5 -199.5Q414 -126 371.0 -27.0Q328 72 328 184V672Q294 699 275.0 738.0Q256 777 256 821Q256 854 266.5 883.5Q277 913 296.0 937.0Q315 961 341.0 978.5Q367 996 399 1004L1027 1161Q1049 1167 1073 1167Q1117 1167 1156.5 1147.5Q1196 1128 1222 1093Q1242 1129 1272.5 1156.5Q1303 1184 1341 1201Q1334 1228 1334 1258Q1334 1302 1349.0 1342.5Q1364 1383 1390.5 1416.0Q1417 1449 1453.5 1472.0Q1490 1495 1533 1504Q1575 1571 1631.5 1625.0Q1688 1679 1755.5 1717.0Q1823 1755 1898.5 1776.0Q1974 1797 2053 1797Z" style="fill:#000000;stroke:none" transform="scale(1,-1) translate(0,-256)" /></svg>