<?xml version="1.0" encoding="utf-8" ?>
<svg baseProfile="full" height="256" version="1.1" width="256" xmlns="http://www.w3.org/2000/svg" xmlns:ev="http://www.w3.org/2001/xml-events" xmlns:xlink="http://www.w3.org/1999/xlink"><defs /><path d="M1092 359Q1105 359 1115.5 366.0Q1126 373 1131 384L1633 1388Q1662 1447 1706.5 1495.5Q1751 1544 1806.0 1579.0Q1861 1614 1924.0 1633.5Q1987 1653 2053 1653L2085 1553L2053 1438Q2007 1438 1969.0 1424.0Q1931 1410 1909 1366L1229 5Q1203 -46 1165.5 -86.5Q1128 -127 1081.5 -155.5Q1035 -184 981.5 -199.5Q928 -215 871 -215Q788 -215 715.5 -183.5Q643 -152 589.0 -98.0Q535 -44 503.5 28.5Q472 101 472 184V713Q472 738 460.5 751.0Q449 764 435.5 773.0Q422 782 411.0 792.0Q400 802 400 821Q400 837 409.5 849.0Q419 861 434 865L1062 1022Q1066 1023 1073 1023Q1092 1023 1105.0 1010.0Q1118 997 1118 978Q1118 949 1107.0 937.5Q1096 926 1082.5 917.5Q1069 909 1058.0 897.0Q1047 885 1047 856V404Q1047 385 1060.0 372.0Q1073 359 1092 359Z" style="fill:#eba300;stroke:none" transform="scale(1,-1) translate(0,-256)" /></svg>