<?xml version="1.0" encoding="utf-8" ?>
<svg baseProfile="full" height="256" version="1.1" width="256" xmlns="http://www.w3.org/2000/svg" xmlns:ev="http://www.w3.org/2001/xml-events" xmlns:xlink="http://www.w3.org/1999/xlink"><defs /><path d="M1652 1226Q1647 1221 1636.5 1210.5Q1626 1200 1615.5 1188.0Q1605 1176 1596.0 1165.5Q1587 1155 1586 1150Q1563 1150 1543.5 1158.5Q1524 1167 1509.5 1181.5Q1495 1196 1486.5 1215.5Q1478 1235 1478 1258Q1478 1280 1486.5 1300.0Q1495 1320 1509.5 1334.5Q1524 1349 1543.5 1357.5Q1563 1366 1586 1366Q1612 1366 1634.5 1354.5Q1657 1343 1672 1323Q1667 1299 1662.5 1274.5Q1658 1250 1652 1226ZM1364 651Q1359 646 1348.5 635.5Q1338 625 1327.5 613.0Q1317 601 1308.0 590.5Q1299 580 1298 575Q1276 575 1256.5 583.5Q1237 592 1222.0 607.0Q1207 622 1198.5 641.5Q1190 661 1190 683Q1190 705 1198.5 724.5Q1207 744 1222.0 759.0Q1237 774 1256.5 782.5Q1276 791 1298 791Q1323 791 1346.0 779.5Q1369 768 1384 748Q1379 724 1374.5 699.5Q1370 675 1364 651ZM1508 938Q1503 933 1492.5 922.5Q1482 912 1471.5 900.5Q1461 889 1452.0 878.5Q1443 868 1442 863Q1419 863 1399.5 871.5Q1380 880 1365.5 894.5Q1351 909 1342.5 928.5Q1334 948 1334 971Q1334 993 1342.5 1013.0Q1351 1033 1366.0 1047.0Q1381 1061 1400.5 1069.5Q1420 1078 1442 1078Q1468 1078 1490.5 1066.5Q1513 1055 1528 1035Z" style="fill:#e5e5e5;stroke:none" transform="scale(1,-1) translate(0,-256)" /></svg>