<?xml version="1.0" encoding="utf-8" ?>
<svg baseProfile="full" height="256" version="1.1" width="256" xmlns="http://www.w3.org/2000/svg" xmlns:ev="http://www.w3.org/2001/xml-events" xmlns:xlink="http://www.w3.org/1999/xlink"><defs /><path d="M2053 1438V1653H2125V1438ZM1406 683Q1406 660 1397.5 640.5Q1389 621 1374.5 606.5Q1360 592 1340.0 583.5Q1320 575 1298 575L1384 747Q1406 721 1406 683ZM1693 1258Q1693 1236 1684.5 1216.5Q1676 1197 1662.0 1182.0Q1648 1167 1628.0 1158.5Q1608 1150 1586 1150Q1608 1193 1628.5 1236.5Q1649 1280 1672 1322Q1693 1295 1693 1258ZM1550 971Q1550 949 1541.5 929.5Q1533 910 1518.0 895.0Q1503 880 1483.5 871.5Q1464 863 1442 863Q1463 907 1485.5 949.0Q1508 991 1528 1035Q1550 1007 1550 971Z" style="fill:#cccccc;stroke:none" transform="scale(1,-1) translate(0,-256)" /></svg>