<?xml version="1.0" encoding="utf-8" ?>
<svg baseProfile="full" height="256" version="1.1" width="256" xmlns="http://www.w3.org/2000/svg" xmlns:ev="http://www.w3.org/2001/xml-events" xmlns:xlink="http://www.w3.org/1999/xlink"><defs /><path d="M975 935Q1004 935 1025.5 913.5Q1047 892 1047 863V791Q1047 762 1025.5 740.5Q1004 719 975 719H903Q873 719 852.0 740.0Q831 761 831 791V863Q831 892 852.5 913.5Q874 935 903 935ZM1169 1294Q1185 1294 1206.5 1281.0Q1228 1268 1247.0 1249.0Q1266 1230 1279.0 1208.5Q1292 1187 1292 1171Q1292 1154 1279.0 1133.0Q1266 1112 1247.5 1093.0Q1229 1074 1207.5 1061.5Q1186 1049 1169 1049Q1151 1049 1130.0 1061.5Q1109 1074 1090.5 1092.5Q1072 1111 1059.5 1132.0Q1047 1153 1047 1171Q1047 1187 1060.0 1208.5Q1073 1230 1091.5 1249.0Q1110 1268 1131.0 1281.0Q1152 1294 1169 1294ZM1837 1150Q1867 1150 1888.0 1129.0Q1909 1108 1909 1078V1006Q1909 977 1887.5 956.0Q1866 935 1837 935H1765Q1736 935 1714.5 956.0Q1693 977 1693 1006V1078Q1693 1107 1714.5 1128.5Q1736 1150 1765 1150Z" style="fill:#ef6950;stroke:none" transform="scale(1,-1) translate(0,-256)" /></svg>