<?xml version="1.0" encoding="utf-8" ?>
<svg baseProfile="full" height="256" version="1.1" width="256" xmlns="http://www.w3.org/2000/svg" xmlns:ev="http://www.w3.org/2001/xml-events" xmlns:xlink="http://www.w3.org/1999/xlink"><defs /><path d="M2112 719H2268Q2298 719 2324.0 707.5Q2350 696 2369.5 676.5Q2389 657 2400.5 631.0Q2412 605 2412 575Q2412 545 2400.5 519.0Q2389 493 2369.5 473.5Q2350 454 2324.0 442.5Q2298 431 2268 431H543Q513 431 487.0 442.5Q461 454 441.5 473.5Q422 493 411.0 519.0Q400 545 400 575Q400 605 411.0 631.0Q422 657 441.5 676.5Q461 696 487.0 707.5Q513 719 543 719H700L514 905Q472 947 472 1006Q472 1036 483.0 1062.0Q494 1088 513.5 1107.5Q533 1127 559.0 1138.5Q585 1150 615 1150Q644 1150 670.5 1139.0Q697 1128 717 1108L831 994V1222Q831 1252 842.5 1278.0Q854 1304 873.5 1323.5Q893 1343 919.0 1354.5Q945 1366 975 1366Q1005 1366 1031.0 1354.5Q1057 1343 1076.5 1323.5Q1096 1304 1107.0 1278.0Q1118 1252 1118 1222Q1118 1193 1139.5 1171.5Q1161 1150 1190 1150Q1215 1150 1229.0 1159.0Q1243 1168 1250.5 1183.0Q1258 1198 1260.0 1217.0Q1262 1236 1262 1255V1294Q1262 1324 1273.5 1350.0Q1285 1376 1304.5 1395.5Q1324 1415 1350.0 1426.5Q1376 1438 1406 1438Q1436 1438 1462.0 1426.5Q1488 1415 1507.5 1395.5Q1527 1376 1538.5 1350.0Q1550 1324 1550 1294V1257Q1550 1237 1552.0 1218.0Q1554 1199 1561.5 1184.0Q1569 1169 1583.5 1159.5Q1598 1150 1622 1150Q1651 1150 1672.0 1171.5Q1693 1193 1693 1222Q1693 1252 1704.5 1278.0Q1716 1304 1735.5 1323.5Q1755 1343 1781.0 1354.5Q1807 1366 1837 1366Q1867 1366 1893.0 1354.5Q1919 1343 1938.5 1323.5Q1958 1304 1969.5 1278.0Q1981 1252 1981 1222V994L2095 1108Q2137 1150 2196 1150Q2226 1150 2252.0 1138.5Q2278 1127 2297.5 1107.5Q2317 1088 2328.5 1062.0Q2340 1036 2340 1006Q2340 947 2298 905Z" style="fill:#13a10e;stroke:none" transform="scale(1,-1) translate(0,-256)" /></svg>