<?xml version="1.0" encoding="utf-8" ?>
<svg baseProfile="full" height="256" version="1.1" width="256" xmlns="http://www.w3.org/2000/svg" xmlns:ev="http://www.w3.org/2001/xml-events" xmlns:xlink="http://www.w3.org/1999/xlink"><defs /><path d="M2556 575Q2556 523 2537.5 473.5Q2519 424 2484 386V144Q2484 70 2455.5 4.5Q2427 -61 2378.5 -109.5Q2330 -158 2264.5 -186.5Q2199 -215 2125 -215H615Q541 -215 475.5 -187.0Q410 -159 361.0 -110.0Q312 -61 284.0 4.5Q256 70 256 144V575Q256 651 292.5 716.5Q329 782 395 821Q363 859 345.5 907.0Q328 955 328 1006Q328 1066 350.5 1118.5Q373 1171 412.0 1210.0Q451 1249 503.0 1271.5Q555 1294 615 1294Q653 1294 694 1283Q705 1332 731.5 1373.5Q758 1415 795.0 1445.5Q832 1476 878.0 1493.0Q924 1510 975 1510Q1026 1510 1074.0 1492.0Q1122 1474 1160 1442Q1199 1508 1264.5 1544.5Q1330 1581 1406 1581Q1482 1581 1547.5 1544.5Q1613 1508 1652 1442Q1691 1474 1738.5 1492.0Q1786 1510 1837 1510Q1888 1510 1934.0 1493.0Q1980 1476 2017.0 1445.5Q2054 1415 2080.5 1373.5Q2107 1332 2118 1283Q2159 1294 2197 1294Q2257 1294 2309.0 1271.5Q2361 1249 2400.0 1210.0Q2439 1171 2461.5 1118.5Q2484 1066 2484 1006Q2484 955 2466.5 907.5Q2449 860 2417 821Q2483 782 2519.5 716.5Q2556 651 2556 575Z" style="fill:#000000;stroke:none" transform="scale(1,-1) translate(0,-256)" /></svg>