<?xml version="1.0" encoding="utf-8" ?>
<svg baseProfile="full" height="256" version="1.1" width="256" xmlns="http://www.w3.org/2000/svg" xmlns:ev="http://www.w3.org/2001/xml-events" xmlns:xlink="http://www.w3.org/1999/xlink"><defs /><path d="M1334 1114Q1334 1129 1345 1140L1416 1212Q1426 1222 1442 1222Q1457 1222 1467.0 1211.5Q1477 1201 1477 1186Q1477 1171 1467 1161L1395 1089Q1384 1078 1370 1078Q1356 1078 1345.0 1089.0Q1334 1100 1334 1114ZM615 683Q615 697 626 708L698 780Q708 790 723 790Q738 790 748.5 780.0Q759 770 759 755Q759 740 749 730L677 658Q666 647 651 647Q637 647 626.0 658.0Q615 669 615 683ZM938 1150Q954 1150 964 1140L1036 1068Q1046 1058 1046 1042Q1046 1028 1035.0 1017.0Q1024 1006 1010 1006Q996 1006 985 1017L913 1089Q902 1100 902 1114Q902 1128 913.0 1139.0Q924 1150 938 1150ZM2088 1006Q2104 1006 2114 996L2186 924Q2196 914 2196 898Q2196 884 2185.0 873.0Q2174 862 2160 862Q2146 862 2135 873L2063 945Q2052 956 2052 970Q2052 984 2063.0 995.0Q2074 1006 2088 1006Z" style="fill:#e5e5e5;stroke:none" transform="scale(1,-1) translate(0,-256)" /></svg>