<?xml version="1.0" encoding="utf-8" ?>
<svg baseProfile="full" height="256" version="1.1" width="256" xmlns="http://www.w3.org/2000/svg" xmlns:ev="http://www.w3.org/2001/xml-events" xmlns:xlink="http://www.w3.org/1999/xlink"><defs /><path d="M1765 360Q1795 360 1821.0 348.5Q1847 337 1866.5 317.5Q1886 298 1897.5 272.0Q1909 246 1909 216Q1909 186 1897.5 159.5Q1886 133 1866.5 113.5Q1847 94 1821.0 83.0Q1795 72 1765 72Q1735 72 1709.0 83.5Q1683 95 1663.5 114.5Q1644 134 1633.0 160.0Q1622 186 1622 216Q1622 246 1633.0 272.0Q1644 298 1663.5 317.5Q1683 337 1709.0 348.5Q1735 360 1765 360ZM2053 575Q2083 575 2104.0 554.0Q2125 533 2125 503Q2125 474 2103.5 452.5Q2082 431 2053 431Q2024 431 2002.5 452.5Q1981 474 1981 503Q1981 533 2002.0 554.0Q2023 575 2053 575ZM1478 863Q1508 863 1529.0 842.0Q1550 821 1550 791Q1550 761 1529.0 740.0Q1508 719 1478 719Q1448 719 1427.0 740.0Q1406 761 1406 791Q1406 821 1427.0 842.0Q1448 863 1478 863ZM1154 503Q1176 503 1195.5 494.5Q1215 486 1230.0 472.0Q1245 458 1253.5 438.0Q1262 418 1262 396Q1262 373 1253.5 353.5Q1245 334 1230.5 319.5Q1216 305 1196.0 296.5Q1176 288 1154 288Q1131 288 1111.5 296.5Q1092 305 1078.0 320.0Q1064 335 1055.5 354.5Q1047 374 1047 396Q1047 418 1055.5 437.5Q1064 457 1078.5 471.5Q1093 486 1112.5 494.5Q1132 503 1154 503Z" style="fill:#eba300;stroke:none" transform="scale(1,-1) translate(0,-256)" /></svg>