<?xml version="1.0" encoding="utf-8" ?>
<svg baseProfile="full" height="256" version="1.1" width="256" xmlns="http://www.w3.org/2000/svg" xmlns:ev="http://www.w3.org/2001/xml-events" xmlns:xlink="http://www.w3.org/1999/xlink"><defs /><path d="M1550 1078Q1659 1078 1760.0 1050.0Q1861 1022 1948.5 970.5Q2036 919 2108.5 846.5Q2181 774 2232.5 686.5Q2284 599 2312.0 498.0Q2340 397 2340 288V144Q2340 99 2323.0 60.0Q2306 21 2277.0 -8.5Q2248 -38 2209.0 -55.0Q2170 -72 2125 -72H621Q650 -71 675.5 -59.5Q701 -48 719.5 -28.5Q738 -9 748.5 17.0Q759 43 759 72V288Q759 397 787.5 498.0Q816 599 867.5 686.5Q919 774 991.0 846.5Q1063 919 1151.0 970.5Q1239 1022 1340.0 1050.0Q1441 1078 1550 1078Z" style="fill:#ffc83d;stroke:none" transform="scale(1,-1) translate(0,-256)" /></svg>