<?xml version="1.0" encoding="utf-8" ?>
<svg baseProfile="full" height="256" version="1.1" width="256" xmlns="http://www.w3.org/2000/svg" xmlns:ev="http://www.w3.org/2001/xml-events" xmlns:xlink="http://www.w3.org/1999/xlink"><defs /><path d="M1981 503Q1981 394 1952.5 293.0Q1924 192 1872.5 104.5Q1821 17 1749.0 -55.5Q1677 -128 1589.0 -179.5Q1501 -231 1400.0 -259.0Q1299 -287 1190 -287Q1026 -287 882.5 -225.0Q739 -163 631.5 -55.5Q524 52 462.0 195.5Q400 339 400 503Q400 594 420.5 673.0Q441 752 478.5 822.0Q516 892 569.0 955.0Q622 1018 687 1078Q720 1108 746.5 1139.5Q773 1171 792.0 1206.0Q811 1241 821.0 1280.5Q831 1320 831 1366Q831 1401 820.5 1426.0Q810 1451 794.0 1471.5Q778 1492 759.0 1509.5Q740 1527 724.0 1547.5Q708 1568 697.5 1593.0Q687 1618 687 1653Q687 1683 708.0 1704.0Q729 1725 759 1725Q784 1725 800.0 1713.5Q816 1702 830.5 1688.5Q845 1675 861.0 1664.0Q877 1653 903 1653Q928 1653 944.0 1664.0Q960 1675 974.5 1688.5Q989 1702 1005.0 1713.5Q1021 1725 1047 1725Q1073 1725 1089.0 1713.5Q1105 1702 1118.5 1688.5Q1132 1675 1148.0 1664.0Q1164 1653 1190 1653Q1215 1653 1231.0 1664.0Q1247 1675 1261.5 1688.5Q1276 1702 1292.0 1713.5Q1308 1725 1334 1725Q1359 1725 1375.0 1713.5Q1391 1702 1405.5 1688.5Q1420 1675 1436.0 1664.0Q1452 1653 1478 1653Q1503 1653 1519.0 1664.0Q1535 1675 1549.5 1688.5Q1564 1702 1580.0 1713.5Q1596 1725 1622 1725Q1651 1725 1672.0 1703.5Q1693 1682 1693 1653Q1693 1618 1682.5 1592.5Q1672 1567 1656.0 1547.0Q1640 1527 1621.5 1509.5Q1603 1492 1587.0 1472.0Q1571 1452 1560.5 1426.5Q1550 1401 1550 1366Q1550 1320 1560.0 1280.5Q1570 1241 1589.0 1206.0Q1608 1171 1634.0 1139.5Q1660 1108 1693 1078Q1758 1018 1811.5 955.0Q1865 892 1902.5 822.0Q1940 752 1960.5 673.0Q1981 594 1981 503Z" style="fill:#ffb900;stroke:none" transform="scale(1,-1) translate(0,-256)" /></svg>