<?xml version="1.0" encoding="utf-8" ?>
<svg baseProfile="full" height="256" version="1.1" width="256" xmlns="http://www.w3.org/2000/svg" xmlns:ev="http://www.w3.org/2001/xml-events" xmlns:xlink="http://www.w3.org/1999/xlink"><defs /><path d="M1731 1249Q1742 1231 1755.5 1217.0Q1769 1203 1785 1189Q1863 1117 1926.0 1042.0Q1989 967 2033.0 883.5Q2077 800 2101.0 706.5Q2125 613 2125 503Q2125 374 2091.5 255.0Q2058 136 1997.0 32.0Q1936 -72 1850.5 -157.0Q1765 -242 1661.0 -303.0Q1557 -364 1438.0 -397.5Q1319 -431 1190 -431Q1061 -431 942.0 -397.5Q823 -364 719.0 -303.0Q615 -242 530.0 -157.0Q445 -72 384.0 32.0Q323 136 289.5 255.0Q256 374 256 503Q256 613 280.0 706.5Q304 800 348.0 883.5Q392 967 455.0 1042.0Q518 1117 596 1189Q612 1203 625.5 1217.0Q639 1231 650 1249Q615 1302 615 1366Q615 1400 628 1437Q589 1482 566.0 1537.5Q543 1593 543 1653Q543 1698 560.0 1737.0Q577 1776 606.5 1805.5Q636 1835 675.0 1852.0Q714 1869 759 1869H1622Q1666 1869 1705.0 1851.5Q1744 1834 1773.5 1804.5Q1803 1775 1820.0 1735.5Q1837 1696 1837 1653Q1837 1593 1814.5 1537.5Q1792 1482 1753 1437Q1765 1402 1765 1366Q1765 1303 1731 1249Z" style="fill:#000000;stroke:none" transform="scale(1,-1) translate(0,-256)" /></svg>