<?xml version="1.0" encoding="utf-8" ?>
<svg baseProfile="full" height="256" version="1.1" width="256" xmlns="http://www.w3.org/2000/svg" xmlns:ev="http://www.w3.org/2001/xml-events" xmlns:xlink="http://www.w3.org/1999/xlink"><defs /><path d="M1118 719Q1118 689 1139.5 659.5Q1161 630 1193.0 599.0Q1225 568 1262.0 534.5Q1299 501 1331.0 463.5Q1363 426 1384.5 382.5Q1406 339 1406 288Q1406 218 1367.0 163.0Q1328 108 1262 84V-72H1118V84Q1086 96 1059.5 116.5Q1033 137 1014.0 163.5Q995 190 985.0 221.5Q975 253 975 288H1118Q1118 259 1139.5 237.5Q1161 216 1190 216Q1220 216 1241.0 237.0Q1262 258 1262 288Q1262 315 1245.5 339.0Q1229 363 1211 381L1070 522Q1048 544 1030.5 565.5Q1013 587 1000.5 610.0Q988 633 981.5 660.0Q975 687 975 719Q975 752 985.5 784.0Q996 816 1014.5 843.0Q1033 870 1059.5 890.5Q1086 911 1118 922V1078H1262V922Q1295 911 1321.5 891.0Q1348 871 1366.5 844.0Q1385 817 1395.5 785.0Q1406 753 1406 719H1262Q1262 749 1241.0 770.0Q1220 791 1190 791Q1161 791 1139.5 769.5Q1118 748 1118 719Z" style="fill:#13a10e;stroke:none" transform="scale(1,-1) translate(0,-256)" /></svg>