<?xml version="1.0" encoding="utf-8" ?>
<svg baseProfile="full" height="256" version="1.1" width="256" xmlns="http://www.w3.org/2000/svg" xmlns:ev="http://www.w3.org/2001/xml-events" xmlns:xlink="http://www.w3.org/1999/xlink"><defs /><path d="M2556 1006V288Q2556 243 2539.0 204.0Q2522 165 2492.5 135.5Q2463 106 2424.0 89.0Q2385 72 2340 72Q2305 72 2276.5 82.5Q2248 93 2222.0 109.0Q2196 125 2171.0 144.0Q2146 163 2118.5 179.0Q2091 195 2059.0 205.5Q2027 216 1987 216Q1939 216 1901.5 198.0Q1864 180 1826 154Q1775 118 1727.0 89.5Q1679 61 1628.5 41.0Q1578 21 1523.5 10.5Q1469 0 1406 0Q1343 0 1288.0 10.5Q1233 21 1183.0 41.0Q1133 61 1085.0 89.5Q1037 118 986 154Q948 180 910.5 198.0Q873 216 825 216Q785 216 753.0 205.5Q721 195 693.5 179.0Q666 163 641.0 144.0Q616 125 590.0 109.0Q564 93 535.5 82.5Q507 72 472 72Q427 72 388.0 89.0Q349 106 319.5 135.5Q290 165 273.0 204.0Q256 243 256 288V1006Q256 1059 276.0 1098.0Q296 1137 334 1172Q383 1217 442.0 1253.0Q501 1289 565.0 1314.0Q629 1339 696.5 1352.5Q764 1366 831 1366Q893 1366 948.0 1355.0Q1003 1344 1053.5 1324.0Q1104 1304 1152.5 1275.5Q1201 1247 1251 1212Q1288 1186 1323.0 1168.5Q1358 1151 1406 1151Q1453 1151 1488.5 1168.5Q1524 1186 1561 1212Q1611 1248 1659.5 1276.5Q1708 1305 1758.0 1325.0Q1808 1345 1863.0 1355.5Q1918 1366 1981 1366Q2047 1366 2115.0 1352.5Q2183 1339 2247.5 1314.0Q2312 1289 2371.0 1253.0Q2430 1217 2478 1172Q2515 1137 2535.5 1097.5Q2556 1058 2556 1006Z" style="fill:#000000;stroke:none" transform="scale(1,-1) translate(0,-256)" /></svg>