<?xml version="1.0" encoding="utf-8" ?>
<svg baseProfile="full" height="256" version="1.1" width="256" xmlns="http://www.w3.org/2000/svg" xmlns:ev="http://www.w3.org/2001/xml-events" xmlns:xlink="http://www.w3.org/1999/xlink"><defs /><path d="M2125 288H2412V-287H2197Q2171 -287 2144.5 -283.0Q2118 -279 2092 -277L1828 -252Q1639 -234 1452.0 -216.5Q1265 -199 1076 -179L832 -154Q814 -152 793.5 -148.0Q773 -144 756 -144H615V-139Q615 -110 634.5 -97.0Q654 -84 681.0 -79.5Q708 -75 737.0 -75.0Q766 -75 785 -72L1262 0Q1262 28 1274.0 54.5Q1286 81 1305.5 100.5Q1325 120 1351.0 132.0Q1377 144 1406 144H1981Q1981 172 1993.0 198.5Q2005 225 2024.5 244.5Q2044 264 2070.0 276.0Q2096 288 2125 288Z" style="fill:#cccccc;stroke:none" transform="scale(1,-1) translate(0,-256)" /></svg>