<?xml version="1.0" encoding="utf-8" ?>
<svg baseProfile="full" height="256" version="1.1" width="256" xmlns="http://www.w3.org/2000/svg" xmlns:ev="http://www.w3.org/2001/xml-events" xmlns:xlink="http://www.w3.org/1999/xlink"><defs /><path d="M400 1725H2412V1581Q2412 1579 2401.5 1549.5Q2391 1520 2375.5 1476.0Q2360 1432 2341.0 1380.0Q2322 1328 2305.0 1280.5Q2288 1233 2274.5 1197.0Q2261 1161 2257 1150L1837 1294Q1826 1298 1815.5 1298.0Q1805 1298 1794 1300Q1771 1305 1752.5 1319.0Q1734 1333 1721.0 1352.0Q1708 1371 1700.5 1393.0Q1693 1415 1693 1438H1118Q1088 1438 1062.0 1449.0Q1036 1460 1016.5 1479.5Q997 1499 986.0 1525.0Q975 1551 975 1581H543Q513 1581 487.0 1592.5Q461 1604 441.5 1623.5Q422 1643 411.0 1669.0Q400 1695 400 1725Z" style="fill:#e5e5e5;stroke:none" transform="scale(1,-1) translate(0,-256)" /></svg>