<?xml version="1.0" encoding="utf-8" ?>
<svg baseProfile="full" height="256" version="1.1" width="256" xmlns="http://www.w3.org/2000/svg" xmlns:ev="http://www.w3.org/2001/xml-events" xmlns:xlink="http://www.w3.org/1999/xlink"><defs /><path d="M2197 -287H400V144H687Q715 144 741.5 132.0Q768 120 787.5 100.5Q807 81 819.0 54.5Q831 28 831 0H1406Q1434 0 1460.5 -12.0Q1487 -24 1506.5 -43.5Q1526 -63 1538.0 -89.5Q1550 -116 1550 -144H2053Q2081 -144 2107.0 -155.5Q2133 -167 2153.0 -187.0Q2173 -207 2185.0 -233.0Q2197 -259 2197 -287Z" style="fill:#f2f2f2;stroke:none" transform="scale(1,-1) translate(0,-256)" /></svg>