<?xml version="1.0" encoding="utf-8" ?>
<svg baseProfile="full" height="256" version="1.1" width="256" xmlns="http://www.w3.org/2000/svg" xmlns:ev="http://www.w3.org/2001/xml-events" xmlns:xlink="http://www.w3.org/1999/xlink"><defs /><path d="M2262 577Q2300 542 2320.0 494.5Q2340 447 2340 396Q2340 358 2329.0 322.0Q2318 286 2297.5 255.5Q2277 225 2248.0 201.0Q2219 177 2183 163Q2192 125 2195.0 86.5Q2198 48 2198 10V-72H1981V-287Q1956 -287 1931.0 -287.5Q1906 -288 1881 -288Q1841 -288 1805.0 -285.0Q1769 -282 1735.5 -273.0Q1702 -264 1670.5 -247.5Q1639 -231 1608 -204Q1567 -245 1515.0 -266.0Q1463 -287 1406 -287Q1349 -287 1297.0 -266.0Q1245 -245 1204 -204Q1172 -231 1140.0 -247.5Q1108 -264 1074.0 -273.0Q1040 -282 1003.5 -285.0Q967 -288 927 -288Q903 -288 879.0 -287.5Q855 -287 831 -287V-72H615V-5Q615 37 617.0 79.0Q619 121 629 163Q593 177 564.0 201.0Q535 225 514.5 255.5Q494 286 483.0 322.0Q472 358 472 396Q472 447 492.0 494.5Q512 542 550 577Q512 608 484.0 650.0Q456 692 437.0 739.5Q418 787 409.0 837.0Q400 887 400 935H615L544 1150Q576 1174 612.0 1190.0Q648 1206 687 1214V1258Q687 1310 707.0 1355.5Q727 1401 761.5 1435.5Q796 1470 841.5 1490.0Q887 1510 939 1510Q968 1510 996.0 1503.0Q1024 1496 1050 1483Q1056 1530 1075.0 1566.0Q1094 1602 1122.5 1631.0Q1151 1660 1187.0 1682.5Q1223 1705 1262 1725L1406 1510L1550 1725Q1588 1705 1624.0 1682.0Q1660 1659 1688.5 1630.0Q1717 1601 1736.5 1564.5Q1756 1528 1762 1482Q1812 1510 1873 1510Q1925 1510 1970.5 1490.0Q2016 1470 2050.5 1435.5Q2085 1401 2105.0 1355.5Q2125 1310 2125 1258V1214Q2164 1206 2200.0 1190.0Q2236 1174 2268 1150L2197 935H2412Q2412 887 2402.5 837.0Q2393 787 2374.5 739.5Q2356 692 2327.5 650.0Q2299 608 2262 577ZM1909 0H2125Q2125 56 2119.5 111.0Q2114 166 2086 216Q2071 243 2051.0 266.5Q2031 290 2013 315L1875 500L2144 590Q2185 604 2217.5 633.5Q2250 663 2273.5 700.5Q2297 738 2312.0 780.5Q2327 823 2334 863H2097L2182 1119Q2152 1135 2119.0 1142.5Q2086 1150 2052 1150Q2005 1150 1962 1135L1693 1046V1438Q1693 1508 1662.5 1551.5Q1632 1595 1573 1630L1406 1366L1239 1630Q1210 1612 1188.0 1593.0Q1166 1574 1150.0 1551.0Q1134 1528 1126.0 1500.5Q1118 1473 1118 1438V1046L850 1135Q806 1150 759 1150Q729 1150 693.0 1140.5Q657 1131 630 1119Q651 1054 671.5 990.0Q692 926 715 863H478Q485 822 499.5 779.5Q514 737 537.5 699.5Q561 662 593.5 633.0Q626 604 668 590L937 500L745 245Q724 217 712.5 187.5Q701 158 695.5 127.5Q690 97 688.5 65.0Q687 33 687 0H903V-215H974Q1042 -215 1103.0 -184.5Q1164 -154 1205 -100L1406 168L1607 -100Q1648 -154 1708.5 -184.5Q1769 -215 1837 -215H1909ZM1765 1401V1146Q1800 1157 1835.5 1170.5Q1871 1184 1907.0 1195.5Q1943 1207 1979.5 1214.5Q2016 1222 2053 1222V1258Q2053 1295 2039.0 1328.0Q2025 1361 2000.5 1385.5Q1976 1410 1943.0 1424.0Q1910 1438 1873 1438Q1844 1438 1816.0 1428.0Q1788 1418 1765 1401ZM759 1258V1222Q796 1222 832.5 1214.5Q869 1207 905.0 1195.5Q941 1184 976.0 1171.0Q1011 1158 1046 1146V1401Q1023 1418 995.5 1428.0Q968 1438 939 1438Q901 1438 868.5 1424.0Q836 1410 811.5 1385.5Q787 1361 773.0 1328.0Q759 1295 759 1258ZM543 396Q543 342 573.0 297.0Q603 252 653 230Q688 293 732.0 349.5Q776 406 819 464Q767 481 715.0 497.5Q663 514 613 537Q581 511 562.0 474.5Q543 438 543 396ZM2159 230Q2210 251 2239.0 296.5Q2268 342 2268 396Q2268 438 2249.0 474.5Q2230 511 2198 537Q2149 512 2096.5 497.0Q2044 482 1992 464Q2036 407 2080.0 350.0Q2124 293 2159 230ZM1406 -215Q1448 -215 1488.0 -199.0Q1528 -183 1557 -153Q1520 -102 1482.0 -52.5Q1444 -3 1406 48L1262 -144L1254 -153Q1284 -182 1324.0 -198.5Q1364 -215 1406 -215ZM1406 719Q1436 719 1457.0 698.0Q1478 677 1478 647Q1478 617 1457.0 596.0Q1436 575 1406 575Q1376 575 1355.0 596.0Q1334 617 1334 647Q1334 677 1355.0 698.0Q1376 719 1406 719ZM1118 719Q1148 719 1169.0 698.0Q1190 677 1190 647Q1190 617 1169.0 596.0Q1148 575 1118 575Q1089 575 1068.0 596.5Q1047 618 1047 647Q1047 676 1068.0 697.5Q1089 719 1118 719ZM1406 1006Q1435 1006 1456.5 985.0Q1478 964 1478 935Q1478 905 1457.0 884.0Q1436 863 1406 863Q1376 863 1355.0 884.0Q1334 905 1334 935Q1334 964 1355.5 985.0Q1377 1006 1406 1006ZM1693 719Q1723 719 1744.0 698.0Q1765 677 1765 647Q1765 617 1744.0 596.0Q1723 575 1693 575Q1664 575 1643.0 596.5Q1622 618 1622 647Q1622 676 1643.0 697.5Q1664 719 1693 719ZM1406 431Q1435 431 1456.5 410.0Q1478 389 1478 360Q1478 330 1457.0 309.0Q1436 288 1406 288Q1376 288 1355.0 309.0Q1334 330 1334 360Q1334 389 1355.5 410.0Q1377 431 1406 431ZM1693 1006Q1722 1006 1743.5 985.0Q1765 964 1765 935Q1765 905 1744.0 884.0Q1723 863 1693 863Q1664 863 1643.0 884.5Q1622 906 1622 935Q1622 964 1643.0 985.0Q1664 1006 1693 1006ZM1118 1006Q1147 1006 1168.5 985.0Q1190 964 1190 935Q1190 905 1169.0 884.0Q1148 863 1118 863Q1089 863 1068.0 884.5Q1047 906 1047 935Q1047 964 1068.0 985.0Q1089 1006 1118 1006Z" style="fill:#f03a17;stroke:none" transform="scale(1,-1) translate(0,-256)" /></svg>