<?xml version="1.0" encoding="utf-8" ?>
<svg baseProfile="full" height="256" version="1.1" width="256" xmlns="http://www.w3.org/2000/svg" xmlns:ev="http://www.w3.org/2001/xml-events" xmlns:xlink="http://www.w3.org/1999/xlink"><defs /><path d="M1837 -431Q1779 -431 1722.0 -417.5Q1665 -404 1613 -378Q1565 -404 1512.5 -417.5Q1460 -431 1406 -431Q1352 -431 1299.5 -417.5Q1247 -404 1199 -378Q1147 -404 1090.0 -417.5Q1033 -431 974 -431H687V-215H472V-35Q472 -24 471.5 -12.5Q471 -1 471 10Q471 50 474 89Q404 146 366.0 225.5Q328 305 328 396Q328 441 338.0 484.0Q348 527 367 568Q326 628 303.5 686.5Q281 745 270.5 804.5Q260 864 258.0 926.5Q256 989 256 1058V1078H416L374 1203Q416 1234 457.5 1266.0Q499 1298 548 1318Q560 1395 596.0 1457.0Q632 1519 686.0 1562.5Q740 1606 808.0 1629.0Q876 1652 952 1652H959Q986 1697 1021.5 1731.5Q1057 1766 1097.5 1794.5Q1138 1823 1183.0 1846.0Q1228 1869 1273 1892L1311 1911L1406 1769L1500 1911L1540 1891Q1585 1868 1629.5 1845.0Q1674 1822 1714.5 1794.0Q1755 1766 1790.5 1731.5Q1826 1697 1853 1652Q1858 1652 1864.0 1652.5Q1870 1653 1875 1653Q1948 1653 2013.5 1627.5Q2079 1602 2131.0 1557.5Q2183 1513 2218.0 1451.5Q2253 1390 2264 1318Q2313 1299 2354.5 1267.0Q2396 1235 2437 1203L2396 1078H2556V935Q2556 839 2527.0 743.0Q2498 647 2444 568Q2484 486 2484 396Q2484 305 2446.0 225.5Q2408 146 2338 89Q2341 50 2341 11V-215H2125V-431Z" style="fill:#000000;stroke:none" transform="scale(1,-1) translate(0,-256)" /></svg>