<?xml version="1.0" encoding="utf-8" ?>
<svg baseProfile="full" height="256" version="1.1" width="256" xmlns="http://www.w3.org/2000/svg" xmlns:ev="http://www.w3.org/2001/xml-events" xmlns:xlink="http://www.w3.org/1999/xlink"><defs /><path d="M2219 585Q2237 568 2254.0 545.5Q2271 523 2283.5 498.0Q2296 473 2304.0 446.5Q2312 420 2312 395Q2312 357 2298.0 325.0Q2284 293 2260.5 267.5Q2237 242 2207.0 222.5Q2177 203 2144 190Q2153 153 2155.0 115.0Q2157 77 2157 39V-32H1952V-247Q1917 -247 1883.0 -250.0Q1849 -253 1814 -253Q1753 -253 1698.0 -224.5Q1643 -196 1598 -158Q1579 -177 1557.0 -195.0Q1535 -213 1510.0 -227.5Q1485 -242 1458.0 -250.5Q1431 -259 1403 -259Q1375 -259 1349.0 -250.5Q1323 -242 1299.5 -227.5Q1276 -213 1254.5 -195.0Q1233 -177 1214 -158Q1172 -193 1133.0 -212.5Q1094 -232 1053.5 -241.0Q1013 -250 968.5 -251.5Q924 -253 872 -253V-34H655Q655 1 653.0 35.5Q651 70 651 104Q651 124 652.5 144.5Q654 165 659 185Q593 212 551.0 263.0Q509 314 509 389Q509 414 515.0 441.0Q521 468 532.5 494.0Q544 520 559.5 543.5Q575 567 593 584Q559 613 530.5 649.0Q502 685 481.0 725.5Q460 766 448.5 810.0Q437 854 437 899H662L587 1128Q617 1150 651.0 1166.5Q685 1183 723 1189V1261Q723 1307 739.0 1346.5Q755 1386 783.5 1414.5Q812 1443 851.0 1459.0Q890 1475 937 1475Q971 1475 1004.0 1467.5Q1037 1460 1067 1444Q1079 1533 1128.5 1589.5Q1178 1646 1256 1685L1409 1436L1562 1682Q1640 1644 1686.0 1588.0Q1732 1532 1744 1444Q1774 1458 1806.5 1466.0Q1839 1474 1872 1474Q1921 1474 1958.5 1456.0Q1996 1438 2030 1403Q2065 1367 2077.0 1323.5Q2089 1280 2089 1231V1189Q2126 1183 2160.5 1167.0Q2195 1151 2225 1128L2147 902H2375Q2375 855 2363.5 810.0Q2352 765 2331.0 724.5Q2310 684 2281.5 648.5Q2253 613 2219 585Z" style="fill:#ffffff;stroke:none" transform="scale(1,-1) translate(0,-256)" /></svg>