<?xml version="1.0" encoding="utf-8" ?>
<svg baseProfile="full" height="256" version="1.1" width="256" xmlns="http://www.w3.org/2000/svg" xmlns:ev="http://www.w3.org/2001/xml-events" xmlns:xlink="http://www.w3.org/1999/xlink"><defs /><path d="M1047 719Q1047 615 1086.5 523.0Q1126 431 1194.0 363.0Q1262 295 1354.0 255.5Q1446 216 1550 216Q1652 216 1745 255Q1670 201 1584.5 172.5Q1499 144 1406 144Q1287 144 1182.0 189.0Q1077 234 999.0 312.0Q921 390 876.0 495.0Q831 600 831 719Q831 838 876.0 943.0Q921 1048 999.0 1126.0Q1077 1204 1182.0 1249.0Q1287 1294 1406 1294Q1499 1294 1584.5 1265.5Q1670 1237 1745 1183Q1652 1222 1550 1222Q1446 1222 1354.5 1182.5Q1263 1143 1194.5 1074.5Q1126 1006 1086.5 914.5Q1047 823 1047 719ZM1881 660 1957 432 1765 575 1574 432 1650 662 1478 791H1693L1765 1006L1837 791H2053Z" style="fill:#ffffff;stroke:none" transform="scale(1,-1) translate(0,-256)" /></svg>