<?xml version="1.0" encoding="utf-8" ?>
<svg baseProfile="full" height="256" version="1.1" width="256" xmlns="http://www.w3.org/2000/svg" xmlns:ev="http://www.w3.org/2001/xml-events" xmlns:xlink="http://www.w3.org/1999/xlink"><defs /><path d="M1694 395Q1694 432 1708.0 465.0Q1722 498 1746.5 522.5Q1771 547 1803.5 561.0Q1836 575 1873 575Q1910 575 1943.0 561.0Q1976 547 2000.5 522.5Q2025 498 2039.0 465.0Q2053 432 2053 395Q2053 358 2039.0 325.5Q2025 293 2000.5 268.5Q1976 244 1943.0 230.0Q1910 216 1873 216Q1836 216 1803.5 230.0Q1771 244 1746.5 268.5Q1722 293 1708.0 325.5Q1694 358 1694 395Z" style="fill:#0046ff;stroke:none" transform="scale(1,-1) translate(0,-256)" /></svg>