<?xml version="1.0" encoding="utf-8" ?>
<svg baseProfile="full" height="256" version="1.1" width="256" xmlns="http://www.w3.org/2000/svg" xmlns:ev="http://www.w3.org/2001/xml-events" xmlns:xlink="http://www.w3.org/1999/xlink"><defs /><path d="M1406 -287Q1346 -287 1293.5 -264.5Q1241 -242 1202.0 -203.0Q1163 -164 1140.5 -112.0Q1118 -60 1118 0Q1118 35 1128.5 60.0Q1139 85 1155.0 105.5Q1171 126 1190.0 143.5Q1209 161 1225.0 181.5Q1241 202 1251.5 227.0Q1262 252 1262 288Q1262 318 1250.5 344.0Q1239 370 1219.5 389.5Q1200 409 1174.0 420.0Q1148 431 1118 431H687Q627 431 575.0 453.5Q523 476 484.0 515.0Q445 554 422.5 606.5Q400 659 400 719Q400 858 436.0 986.5Q472 1115 537.5 1227.0Q603 1339 694.5 1430.5Q786 1522 898.0 1587.5Q1010 1653 1138.5 1689.0Q1267 1725 1406 1725Q1545 1725 1673.5 1689.0Q1802 1653 1914.0 1587.5Q2026 1522 2117.5 1430.5Q2209 1339 2274.5 1227.0Q2340 1115 2376.0 986.5Q2412 858 2412 719Q2412 580 2376.0 451.5Q2340 323 2274.5 211.0Q2209 99 2117.5 7.5Q2026 -84 1914.0 -149.5Q1802 -215 1673.5 -251.0Q1545 -287 1406 -287Z" style="fill:#ffb900;stroke:none" transform="scale(1,-1) translate(0,-256)" /></svg>