<?xml version="1.0" encoding="utf-8" ?>
<svg baseProfile="full" height="256" version="1.1" width="256" xmlns="http://www.w3.org/2000/svg" xmlns:ev="http://www.w3.org/2001/xml-events" xmlns:xlink="http://www.w3.org/1999/xlink"><defs /><path d="M1945 791Q1907 791 1874.5 805.0Q1842 819 1817.5 843.5Q1793 868 1779.0 900.5Q1765 933 1765 971Q1765 1008 1779.0 1040.5Q1793 1073 1817.5 1097.5Q1842 1122 1875.0 1136.0Q1908 1150 1945 1150Q1982 1150 2015.0 1136.0Q2048 1122 2072.5 1097.5Q2097 1073 2111.0 1040.5Q2125 1008 2125 971Q2125 933 2111.0 900.5Q2097 868 2072.5 843.5Q2048 819 2015.0 805.0Q1982 791 1945 791Z" style="fill:#fce100;stroke:none" transform="scale(1,-1) translate(0,-256)" /></svg>