<?xml version="1.0" encoding="utf-8" ?>
<svg baseProfile="full" height="256" version="1.1" width="256" xmlns="http://www.w3.org/2000/svg" xmlns:ev="http://www.w3.org/2001/xml-events" xmlns:xlink="http://www.w3.org/1999/xlink"><defs /><path d="M1622 1330Q1622 1292 1608.0 1259.5Q1594 1227 1569.5 1202.5Q1545 1178 1512.0 1164.0Q1479 1150 1442 1150Q1404 1150 1371.5 1164.0Q1339 1178 1314.5 1202.5Q1290 1227 1276.0 1259.5Q1262 1292 1262 1330Q1262 1367 1276.0 1400.0Q1290 1433 1314.5 1457.5Q1339 1482 1371.5 1496.0Q1404 1510 1442 1510Q1479 1510 1512.0 1496.0Q1545 1482 1569.5 1457.5Q1594 1433 1608.0 1400.0Q1622 1367 1622 1330Z" style="fill:#f03a17;stroke:none" transform="scale(1,-1) translate(0,-256)" /></svg>