<?xml version="1.0" encoding="utf-8" ?>
<svg baseProfile="full" height="256" version="1.1" width="256" xmlns="http://www.w3.org/2000/svg" xmlns:ev="http://www.w3.org/2001/xml-events" xmlns:xlink="http://www.w3.org/1999/xlink"><defs /><path d="M1928 1537Q1932 1534 1939 1534Q1949 1534 1956.5 1539.5Q1964 1545 1973 1545Q1979 1545 1985 1541Q2086 1469 2165.5 1378.0Q2245 1287 2299.5 1182.0Q2354 1077 2383.0 960.0Q2412 843 2412 719Q2412 580 2376.0 451.5Q2340 323 2274.5 211.0Q2209 99 2117.5 7.5Q2026 -84 1914.0 -149.5Q1802 -215 1673.5 -251.0Q1545 -287 1406 -287Q1286 -287 1168.0 -258.0Q1050 -229 942.5 -174.0Q835 -119 743.0 -40.0Q651 39 583 139L581 144Q581 151 589.5 157.0Q598 163 608.5 169.5Q619 176 628.0 182.5Q637 189 637 196Q637 197 635 201Q901 246 1119.5 362.5Q1338 479 1503.0 652.5Q1668 826 1775.5 1050.5Q1883 1275 1928 1537Z" style="fill:#d8b094;stroke:none" transform="scale(1,-1) translate(0,-256)" /></svg>