<?xml version="1.0" encoding="utf-8" ?>
<svg baseProfile="full" height="256" version="1.1" width="256" xmlns="http://www.w3.org/2000/svg" xmlns:ev="http://www.w3.org/2001/xml-events" xmlns:xlink="http://www.w3.org/1999/xlink"><defs /><path d="M1765 1078Q1765 1004 1736.5 938.5Q1708 873 1659.5 824.0Q1611 775 1545.5 747.0Q1480 719 1406 719Q1332 719 1266.5 747.0Q1201 775 1152.0 824.0Q1103 873 1075.0 938.5Q1047 1004 1047 1078Q1047 1153 1075.0 1218.5Q1103 1284 1152.0 1332.5Q1201 1381 1266.0 1409.5Q1331 1438 1406 1438Q1481 1438 1546.0 1409.5Q1611 1381 1660.0 1332.0Q1709 1283 1737.0 1217.5Q1765 1152 1765 1078Z" style="fill:#af0d1a;stroke:none" transform="scale(1,-1) translate(0,-256)" /></svg>