<?xml version="1.0" encoding="utf-8" ?>
<svg baseProfile="full" height="256" version="1.1" width="256" xmlns="http://www.w3.org/2000/svg" xmlns:ev="http://www.w3.org/2001/xml-events" xmlns:xlink="http://www.w3.org/1999/xlink"><defs /><path d="M1909 755 1442 216H975Q945 216 919.0 227.5Q893 239 873.5 258.5Q854 278 842.5 304.0Q831 330 831 360Q831 390 842.5 416.0Q854 442 873.5 461.5Q893 481 919.0 492.0Q945 503 975 503V575Q975 605 986.0 631.0Q997 657 1016.5 676.5Q1036 696 1062.0 707.5Q1088 719 1118 719H1281Q1262 754 1262 791Q1262 821 1273.5 847.0Q1285 873 1304.5 892.5Q1324 912 1350.0 923.5Q1376 935 1406 935V1078Q1406 1108 1417.0 1134.0Q1428 1160 1447.5 1179.5Q1467 1199 1493.5 1210.5Q1520 1222 1550 1222H1622Q1622 1252 1633.0 1278.0Q1644 1304 1663.5 1323.5Q1683 1343 1709.0 1354.5Q1735 1366 1765 1366Q1795 1366 1821.0 1354.5Q1847 1343 1866.5 1323.5Q1886 1304 1897.5 1278.0Q1909 1252 1909 1222Z" style="fill:#79db75;stroke:none" transform="scale(1,-1) translate(0,-256)" /></svg>