<?xml version="1.0" encoding="utf-8" ?>
<svg baseProfile="full" height="256" version="1.1" width="256" xmlns="http://www.w3.org/2000/svg" xmlns:ev="http://www.w3.org/2001/xml-events" xmlns:xlink="http://www.w3.org/1999/xlink"><defs /><path d="M1118 503Q1059 503 1006.5 526.0Q954 549 915.0 588.0Q876 627 853.5 679.5Q831 732 831 791Q831 850 853.5 902.5Q876 955 915.0 994.0Q954 1033 1006.5 1055.5Q1059 1078 1118 1078Q1177 1078 1229.5 1055.5Q1282 1033 1321.0 994.0Q1360 955 1383.0 902.5Q1406 850 1406 791Q1406 731 1383.5 678.5Q1361 626 1322.0 587.0Q1283 548 1230.5 525.5Q1178 503 1118 503Z" style="fill:#613d30;stroke:none" transform="scale(1,-1) translate(0,-256)" /></svg>