<?xml version="1.0" encoding="utf-8" ?>
<svg baseProfile="full" height="256" version="1.1" width="256" xmlns="http://www.w3.org/2000/svg" xmlns:ev="http://www.w3.org/2001/xml-events" xmlns:xlink="http://www.w3.org/1999/xlink"><defs /><path d="M1368 362Q1390 362 1409.5 353.5Q1429 345 1444.0 330.0Q1459 315 1467.5 295.5Q1476 276 1476 254Q1476 232 1467.5 212.5Q1459 193 1444.0 178.0Q1429 163 1409.5 154.5Q1390 146 1368 146Q1345 146 1325.5 154.5Q1306 163 1291.5 177.5Q1277 192 1268.5 211.5Q1260 231 1260 254Q1260 276 1268.5 296.0Q1277 316 1291.5 330.5Q1306 345 1325.5 353.5Q1345 362 1368 362ZM1118 0Q1148 0 1169.0 -21.0Q1190 -42 1190 -72Q1190 -101 1168.5 -122.5Q1147 -144 1118 -144Q1089 -144 1068.0 -122.5Q1047 -101 1047 -72Q1047 -43 1068.0 -21.5Q1089 0 1118 0ZM2197 935Q2226 935 2247.0 913.5Q2268 892 2268 863Q2268 834 2247.0 812.5Q2226 791 2197 791Q2167 791 2146.0 812.0Q2125 833 2125 863Q2125 892 2146.5 913.5Q2168 935 2197 935ZM1729 216Q1751 216 1771.0 207.5Q1791 199 1805.5 184.5Q1820 170 1828.5 150.0Q1837 130 1837 108Q1837 85 1828.5 65.5Q1820 46 1805.5 31.5Q1791 17 1771.0 8.5Q1751 0 1729 0Q1706 0 1686.5 8.5Q1667 17 1653.0 32.0Q1639 47 1630.5 66.5Q1622 86 1622 108Q1622 130 1630.5 149.5Q1639 169 1653.0 184.0Q1667 199 1686.5 207.5Q1706 216 1729 216Z" style="fill:#bb9167;stroke:none" transform="scale(1,-1) translate(0,-256)" /></svg>