<?xml version="1.0" encoding="utf-8" ?>
<svg baseProfile="full" height="256" version="1.1" width="256" xmlns="http://www.w3.org/2000/svg" xmlns:ev="http://www.w3.org/2001/xml-events" xmlns:xlink="http://www.w3.org/1999/xlink"><defs /><path d="M1783 342Q1688 300 1579.0 265.5Q1470 231 1356.0 206.5Q1242 182 1128.5 169.0Q1015 156 913 156Q819 156 725.5 167.0Q632 178 541 204L543 216Q513 216 487.0 227.5Q461 239 441.5 258.5Q422 278 411.0 304.0Q400 330 400 360Q400 390 411.0 416.0Q422 442 441.5 461.5Q461 481 487.0 492.0Q513 503 543 503Q572 503 593.5 524.5Q615 546 615 575Q615 605 594.0 626.0Q573 647 543 647Q513 647 487.0 658.5Q461 670 441.5 689.5Q422 709 411.0 735.0Q400 761 400 791Q400 821 411.0 847.0Q422 873 441.5 892.5Q461 912 487.0 923.5Q513 935 543 935H700L586 1049Q566 1069 554.5 1095.0Q543 1121 543 1150Q543 1180 554.5 1206.0Q566 1232 585.5 1251.5Q605 1271 631.5 1282.5Q658 1294 687 1294Q718 1294 738.0 1285.0Q758 1276 773.0 1264.5Q788 1253 801.0 1244.0Q814 1235 831 1235Q856 1235 873.0 1252.0Q890 1269 890 1294Q890 1311 881.0 1324.0Q872 1337 860.5 1352.0Q849 1367 840.0 1386.5Q831 1406 831 1437Q831 1467 842.0 1493.0Q853 1519 872.5 1538.5Q892 1558 918.0 1569.5Q944 1581 974 1581Q1003 1581 1029.5 1570.0Q1056 1559 1076 1539L1190 1425V1581Q1190 1611 1201.5 1637.0Q1213 1663 1232.5 1682.5Q1252 1702 1278.0 1713.5Q1304 1725 1334 1725Q1364 1725 1390.0 1713.5Q1416 1702 1435.5 1682.5Q1455 1663 1466.5 1637.0Q1478 1611 1478 1581Q1478 1552 1499.5 1531.0Q1521 1510 1550 1510Q1579 1510 1600.5 1531.0Q1622 1552 1622 1581Q1622 1611 1633.0 1637.0Q1644 1663 1663.5 1682.5Q1683 1702 1709.0 1713.5Q1735 1725 1765 1725Q1795 1725 1821.0 1713.5Q1847 1702 1866.5 1682.5Q1886 1663 1897.5 1637.0Q1909 1611 1909 1581L1921 1584Q1927 1571 1931.0 1553.5Q1935 1536 1936.5 1517.5Q1938 1499 1938.5 1480.5Q1939 1462 1939 1448Q1939 1330 1925.0 1212.5Q1911 1095 1894 979Q1871 818 1843.0 659.5Q1815 501 1783 342Z" style="fill:#13a10e;stroke:none" transform="scale(1,-1) translate(0,-256)" /></svg>