<?xml version="1.0" encoding="utf-8" ?>
<svg baseProfile="full" height="256" version="1.1" width="256" xmlns="http://www.w3.org/2000/svg" xmlns:ev="http://www.w3.org/2001/xml-events" xmlns:xlink="http://www.w3.org/1999/xlink"><defs /><path d="M1478 791Q1478 716 1449.5 650.5Q1421 585 1372.5 536.5Q1324 488 1258.5 459.5Q1193 431 1118 431Q1043 431 978.0 459.5Q913 488 864.0 537.0Q815 586 787.0 651.5Q759 717 759 791Q759 865 787.0 930.5Q815 996 864.0 1044.5Q913 1093 978.5 1121.5Q1044 1150 1118 1150Q1192 1150 1257.5 1122.0Q1323 1094 1372.0 1045.0Q1421 996 1449.5 931.0Q1478 866 1478 791Z" style="fill:#bb9167;stroke:none" transform="scale(1,-1) translate(0,-256)" /></svg>