<?xml version="1.0" encoding="utf-8" ?>
<svg baseProfile="full" height="256" version="1.1" width="256" xmlns="http://www.w3.org/2000/svg" xmlns:ev="http://www.w3.org/2001/xml-events" xmlns:xlink="http://www.w3.org/1999/xlink"><defs /><path d="M1406 791Q1347 791 1294.5 813.5Q1242 836 1203.0 875.0Q1164 914 1141.0 966.5Q1118 1019 1118 1078Q1118 1138 1140.5 1190.5Q1163 1243 1202.0 1282.0Q1241 1321 1293.5 1343.5Q1346 1366 1406 1366Q1466 1366 1518.0 1343.5Q1570 1321 1609.0 1282.0Q1648 1243 1670.5 1190.5Q1693 1138 1693 1078Q1693 1019 1670.5 966.5Q1648 914 1609.0 875.0Q1570 836 1517.5 813.5Q1465 791 1406 791Z" style="fill:#f03a17;stroke:none" transform="scale(1,-1) translate(0,-256)" /></svg>