<?xml version="1.0" encoding="utf-8" ?>
<svg baseProfile="full" height="256" version="1.1" width="256" xmlns="http://www.w3.org/2000/svg" xmlns:ev="http://www.w3.org/2001/xml-events" xmlns:xlink="http://www.w3.org/1999/xlink"><defs /><path d="M723 683Q760 683 793.0 669.0Q826 655 850.5 630.5Q875 606 889.0 573.0Q903 540 903 503Q903 466 889.0 433.5Q875 401 850.5 376.5Q826 352 793.0 338.0Q760 324 723 324Q686 324 653.0 338.0Q620 352 595.5 376.5Q571 401 557.0 433.5Q543 466 543 503Q543 540 557.0 573.0Q571 606 595.5 630.5Q620 655 653.0 669.0Q686 683 723 683ZM1622 1581Q1659 1581 1691.5 1567.0Q1724 1553 1748.5 1528.5Q1773 1504 1787.0 1471.5Q1801 1439 1801 1402Q1801 1365 1787.0 1332.0Q1773 1299 1748.5 1274.5Q1724 1250 1691.5 1236.0Q1659 1222 1622 1222Q1585 1222 1552.0 1236.0Q1519 1250 1494.5 1274.5Q1470 1299 1456.0 1332.0Q1442 1365 1442 1402Q1442 1439 1456.0 1471.5Q1470 1504 1494.5 1528.5Q1519 1553 1552.0 1567.0Q1585 1581 1622 1581ZM795 1078Q832 1078 865.0 1064.0Q898 1050 922.5 1025.5Q947 1001 961.0 968.5Q975 936 975 899Q975 862 961.0 829.0Q947 796 922.5 771.5Q898 747 865.0 733.0Q832 719 795 719Q758 719 725.0 733.0Q692 747 667.5 771.5Q643 796 629.0 829.0Q615 862 615 899Q615 936 629.0 968.5Q643 1001 667.5 1025.5Q692 1050 725.0 1064.0Q758 1078 795 1078Z" style="fill:#8e562e;stroke:none" transform="scale(1,-1) translate(0,-256)" /></svg>