<?xml version="1.0" encoding="utf-8" ?>
<svg baseProfile="full" height="256" version="1.1" width="256" xmlns="http://www.w3.org/2000/svg" xmlns:ev="http://www.w3.org/2001/xml-events" xmlns:xlink="http://www.w3.org/1999/xlink"><defs /><path d="M1989 1479Q1957 1309 1892.0 1152.5Q1827 996 1734.5 857.5Q1642 719 1524.0 601.0Q1406 483 1267.5 390.5Q1129 298 972.5 233.0Q816 168 646 136Q630 200 622.5 265.0Q615 330 615 396Q615 550 655.0 692.0Q695 834 767.5 958.0Q840 1082 941.5 1183.5Q1043 1285 1167.0 1357.5Q1291 1430 1433.0 1470.0Q1575 1510 1729 1510Q1795 1510 1860.0 1502.0Q1925 1494 1989 1479Z" style="fill:#107c10;stroke:none" transform="scale(1,-1) translate(0,-256)" /></svg>