<?xml version="1.0" encoding="utf-8" ?>
<svg baseProfile="full" height="256" version="1.1" width="256" xmlns="http://www.w3.org/2000/svg" xmlns:ev="http://www.w3.org/2001/xml-events" xmlns:xlink="http://www.w3.org/1999/xlink"><defs /><path d="M2514 569Q2556 527 2556 467Q2556 439 2545.0 412.5Q2534 386 2514 366L2334 186Q2293 145 2239.5 123.0Q2186 101 2128 101Q2054 101 1989 136Q2024 71 2024 -4Q2024 -67 2001.5 -118.0Q1979 -169 1935 -213L1759 -389Q1717 -431 1658 -431Q1629 -431 1602.5 -420.0Q1576 -409 1556 -389L1197 -30Q1197 -29 1196.5 -28.0Q1196 -27 1196 -26Q1185 -53 1179.0 -82.5Q1173 -112 1162 -140Q1140 -191 1106.0 -231.5Q1072 -272 1029.0 -300.5Q986 -329 935.5 -344.0Q885 -359 830 -359Q758 -359 693.0 -332.5Q628 -306 577 -255L433 -111Q382 -60 355.0 5.0Q328 70 328 142Q328 196 343.5 247.0Q359 298 387.5 341.5Q416 385 456.5 419.5Q497 454 547 475Q573 486 600.5 492.0Q628 498 655 506L298 869Q256 911 256 970Q256 999 267.0 1025.5Q278 1052 298 1072L468 1243Q512 1287 567.5 1312.0Q623 1337 685 1337Q759 1337 823 1302Q806 1334 796.5 1369.5Q787 1405 787 1442Q787 1504 813.5 1559.0Q840 1614 883 1657L1053 1827Q1073 1847 1099.5 1858.0Q1126 1869 1154 1869Q1183 1869 1209.5 1858.0Q1236 1847 1256 1827L1615 1468Q1615 1467 1615.5 1466.0Q1616 1465 1616 1464Q1627 1491 1632.0 1520.5Q1637 1550 1649 1578Q1671 1629 1705.5 1669.5Q1740 1710 1783.0 1738.5Q1826 1767 1876.5 1782.0Q1927 1797 1982 1797Q2054 1797 2119.0 1770.5Q2184 1744 2235 1693L2379 1549Q2430 1498 2457.0 1433.0Q2484 1368 2484 1296Q2484 1242 2468.5 1191.0Q2453 1140 2424.5 1096.5Q2396 1053 2355.5 1018.5Q2315 984 2265 963Q2239 952 2211.5 945.5Q2184 939 2157 932Z" style="fill:#000000;stroke:none" transform="scale(1,-1) translate(0,-256)" /></svg>