<?xml version="1.0" encoding="utf-8" ?>
<svg baseProfile="full" height="256" version="1.1" width="256" xmlns="http://www.w3.org/2000/svg" xmlns:ev="http://www.w3.org/2001/xml-events" xmlns:xlink="http://www.w3.org/1999/xlink"><defs /><path d="M1310 886Q1326 913 1335.5 953.0Q1345 993 1350.0 1036.0Q1355 1079 1356.5 1121.0Q1358 1163 1358 1195Q1358 1218 1358.0 1241.5Q1358 1265 1356 1288Q1346 1289 1313.5 1294.0Q1281 1299 1238.0 1304.5Q1195 1310 1148.0 1317.0Q1101 1324 1061.0 1329.5Q1021 1335 995.0 1339.0Q969 1343 968 1344Q950 1364 940.5 1389.5Q931 1415 931 1441Q931 1470 942.5 1497.5Q954 1525 975 1546L1154 1725L1347 1533L1447 1306L1760 1334L1985 1653Q2029 1653 2067.5 1636.0Q2106 1619 2134.5 1589.5Q2163 1560 2179.5 1521.0Q2196 1482 2196 1438Q2196 1373 2160.5 1318.5Q2125 1264 2065 1239Q2046 1231 2025.0 1226.5Q2004 1222 1983.0 1216.5Q1962 1211 1943.0 1203.0Q1924 1195 1909 1180Q1888 1160 1877.0 1132.0Q1866 1104 1866 1075Q1866 1046 1877.5 1018.5Q1889 991 1909 971L2268 611L2089 431Q2069 411 2041.0 399.5Q2013 388 1984 388Q1955 388 1927.5 399.0Q1900 410 1880 431Q1865 446 1856.5 465.5Q1848 485 1842.5 505.5Q1837 526 1832.5 547.0Q1828 568 1820 587Q1794 647 1740.5 683.0Q1687 719 1621 719Q1592 719 1563.0 711.0Q1534 703 1509 687Z" style="fill:#b3dbf2;stroke:none" transform="scale(1,-1) translate(0,-256)" /></svg>