<?xml version="1.0" encoding="utf-8" ?>
<svg baseProfile="full" height="256" version="1.1" width="256" xmlns="http://www.w3.org/2000/svg" xmlns:ev="http://www.w3.org/2001/xml-events" xmlns:xlink="http://www.w3.org/1999/xlink"><defs /><path d="M1514 -144 1154 216Q1111 259 1050 259Q1021 259 993.5 248.0Q966 237 946 216Q931 201 923.0 181.5Q915 162 909.5 141.5Q904 121 899.0 100.0Q894 79 886 60Q860 -1 806.5 -36.5Q753 -72 687 -72Q642 -72 603.0 -55.0Q564 -38 535.0 -9.0Q506 20 489.0 59.5Q472 99 472 144Q472 209 507.5 263.0Q543 317 603 342Q622 350 643.0 354.5Q664 359 684.5 364.5Q705 370 724.5 378.5Q744 387 759 402Q802 445 802 506Q802 535 791.0 562.5Q780 590 759 611L400 971L579 1150Q600 1171 627.5 1182.0Q655 1193 684 1193Q713 1193 741.0 1182.0Q769 1171 789 1150Q805 1133 813.5 1112.5Q822 1092 827.5 1069.0Q833 1046 839.0 1022.0Q845 998 856.5 975.0Q868 952 887.0 931.0Q906 910 939 893Q941 885 946.5 870.5Q952 856 959.5 842.0Q967 828 976.0 817.5Q985 807 995 807Q1013 807 1034.0 818.0Q1055 829 1077.0 844.0Q1099 859 1119.5 873.5Q1140 888 1158 894L1442 996L1509 687Q1460 658 1433.0 609.5Q1406 561 1406 504Q1406 438 1441.0 384.5Q1476 331 1537 305Q1556 297 1577.0 292.0Q1598 287 1619.0 281.5Q1640 276 1659.0 268.0Q1678 260 1693 245Q1714 225 1725.5 197.5Q1737 170 1737 141Q1737 80 1693 36Z" style="fill:#16c60c;stroke:none" transform="scale(1,-1) translate(0,-256)" /></svg>