<?xml version="1.0" encoding="utf-8" ?>
<svg baseProfile="full" height="256" version="1.1" width="256" xmlns="http://www.w3.org/2000/svg" xmlns:ev="http://www.w3.org/2001/xml-events" xmlns:xlink="http://www.w3.org/1999/xlink"><defs /><path d="M1985 1653 1761 1206 1710 1257 1405 647Q1282 771 1158 894Q1208 923 1235.0 972.0Q1262 1021 1262 1078Q1262 1144 1227.0 1197.5Q1192 1251 1131 1277Q1118 1283 1093.0 1289.0Q1068 1295 1042.5 1302.5Q1017 1310 996.0 1320.0Q975 1330 969 1344L1347 1533L1514 1366Q1535 1345 1562.0 1333.5Q1589 1322 1618 1322Q1647 1322 1674.5 1333.5Q1702 1345 1722 1366Q1737 1381 1745.5 1400.5Q1754 1420 1759.0 1440.5Q1764 1461 1769.0 1482.0Q1774 1503 1782 1522Q1809 1585 1863.0 1619.0Q1917 1653 1985 1653Z" style="fill:#13a10e;stroke:none" transform="scale(1,-1) translate(0,-256)" /></svg>