<?xml version="1.0" encoding="utf-8" ?>
<svg baseProfile="full" height="256" version="1.1" width="256" xmlns="http://www.w3.org/2000/svg" xmlns:ev="http://www.w3.org/2001/xml-events" xmlns:xlink="http://www.w3.org/1999/xlink"><defs /><path d="M2009 931Q2009 902 2020.5 875.0Q2032 848 2053 827L2412 467L2233 288Q2212 267 2184.5 255.5Q2157 244 2128 244Q2067 244 2023 288L1880 431L1951 469Q1922 518 1872.0 546.5Q1822 575 1765 575Q1720 575 1681.0 558.5Q1642 542 1612.5 512.5Q1583 483 1566.5 444.0Q1550 405 1550 360Q1550 302 1577.5 252.5Q1605 203 1656 174L1693 245L1837 102Q1858 82 1869.0 54.0Q1880 26 1880 -3Q1880 -32 1869.0 -59.5Q1858 -87 1837 -108L1658 -287L1298 72Q1278 92 1250.5 103.5Q1223 115 1194 115Q1165 115 1137.0 104.0Q1109 93 1089 72Q1074 57 1066.0 38.0Q1058 19 1052.5 -2.0Q1047 -23 1042.5 -44.0Q1038 -65 1030 -84Q1004 -145 950.0 -180.0Q896 -215 830 -215Q788 -215 748.5 -199.5Q709 -184 679 -154L535 -10Q597 33 658.0 76.0Q719 119 780 163Q809 185 843.0 208.0Q877 231 903 258Q946 303 946 362Q946 409 920 446Q916 452 911.0 456.5Q906 461 903 467L644 927L788 1150L924 1014Q943 994 952.5 975.0Q962 956 967.5 936.0Q973 916 977.5 894.5Q982 873 992 850Q1017 790 1071.0 754.5Q1125 719 1190 719Q1235 719 1274.5 735.5Q1314 752 1343.0 781.5Q1372 811 1389.0 850.0Q1406 889 1406 934Q1406 1000 1370.5 1054.0Q1335 1108 1274 1134Q1256 1142 1234.5 1146.5Q1213 1151 1192.0 1156.5Q1171 1162 1152.0 1170.0Q1133 1178 1118 1193L975 1337L1197 1505L1657 1222Q1663 1218 1667.5 1213.5Q1672 1209 1678 1205Q1715 1179 1762 1179Q1771 1179 1798.5 1205.5Q1826 1232 1863.5 1273.5Q1901 1315 1943.5 1364.5Q1986 1414 2024.5 1460.0Q2063 1506 2092.5 1541.5Q2122 1577 2133 1591L2277 1448Q2307 1418 2323.5 1378.0Q2340 1338 2340 1295Q2340 1229 2305.0 1175.5Q2270 1122 2209 1096Q2190 1088 2169.0 1083.0Q2148 1078 2127.0 1072.5Q2106 1067 2087.0 1059.0Q2068 1051 2053 1036Q2032 1016 2020.5 988.0Q2009 960 2009 931Z" style="fill:#757575;stroke:none" transform="scale(1,-1) translate(0,-256)" /></svg>