<?xml version="1.0" encoding="utf-8" ?>
<svg baseProfile="full" height="256" version="1.1" width="256" xmlns="http://www.w3.org/2000/svg" xmlns:ev="http://www.w3.org/2001/xml-events" xmlns:xlink="http://www.w3.org/1999/xlink"><defs /><path d="M1047 935Q913 935 795.0 985.5Q677 1036 589.0 1123.5Q501 1211 450.5 1329.0Q400 1447 400 1581Q400 1611 421.0 1632.0Q442 1653 472 1653Q501 1653 522.0 1631.5Q543 1610 543 1581Q543 1477 583.0 1385.0Q623 1293 691.5 1225.0Q760 1157 851.5 1117.5Q943 1078 1047 1078Q1076 1078 1097.0 1056.5Q1118 1035 1118 1006Q1118 977 1097.0 956.0Q1076 935 1047 935Z" style="fill:#13a10e;stroke:none" transform="scale(1,-1) translate(0,-256)" /></svg>