<?xml version="1.0" encoding="utf-8" ?>
<svg baseProfile="full" height="256" version="1.1" width="256" xmlns="http://www.w3.org/2000/svg" xmlns:ev="http://www.w3.org/2001/xml-events" xmlns:xlink="http://www.w3.org/1999/xlink"><defs /><path d="M2022 156Q2053 100 2053 36Q2053 -16 2033.0 -62.0Q2013 -108 1979.0 -142.0Q1945 -176 1899.0 -195.5Q1853 -215 1801 -215Q1748 -215 1702.0 -195.0Q1656 -175 1622 -140Q1587 -175 1541.0 -195.0Q1495 -215 1442 -215Q1390 -215 1344.0 -195.5Q1298 -176 1264.0 -142.0Q1230 -108 1210.0 -62.0Q1190 -16 1190 36Q1190 47 1191.0 58.0Q1192 69 1194 80Q1159 43 1112.0 21.5Q1065 0 1011 0Q959 0 913.0 20.0Q867 40 833.0 74.0Q799 108 779.0 154.0Q759 200 759 252Q759 284 767.0 314.5Q775 345 789 372Q751 384 719.0 407.0Q687 430 664.0 461.5Q641 493 628.0 531.0Q615 569 615 611Q615 663 635.0 709.0Q655 755 689.0 789.0Q723 823 769.0 843.0Q815 863 867 863Q893 863 947.5 853.5Q1002 844 1074.5 829.0Q1147 814 1232.5 794.5Q1318 775 1406.0 755.0Q1494 735 1579.5 715.5Q1665 696 1737.5 681.0Q1810 666 1864.5 656.5Q1919 647 1945 647Q1997 647 2043.0 627.0Q2089 607 2123.0 573.0Q2157 539 2177.0 493.5Q2197 448 2197 396Q2197 354 2184.0 316.0Q2171 278 2147.5 246.5Q2124 215 2092.0 191.5Q2060 168 2022 156Z" style="fill:#4e257f;stroke:none" transform="scale(1,-1) translate(0,-256)" /></svg>