<?xml version="1.0" encoding="utf-8" ?>
<svg baseProfile="full" height="256" version="1.1" width="256" xmlns="http://www.w3.org/2000/svg" xmlns:ev="http://www.w3.org/2001/xml-events" xmlns:xlink="http://www.w3.org/1999/xlink"><defs /><path d="M1262 108Q1262 130 1270.5 150.0Q1279 170 1293.5 184.5Q1308 199 1327.5 207.5Q1347 216 1370 216Q1392 216 1412.0 207.5Q1432 199 1446.5 184.5Q1461 170 1469.5 150.0Q1478 130 1478 108Q1478 85 1469.5 65.5Q1461 46 1446.5 31.5Q1432 17 1412.0 8.5Q1392 0 1370 0Q1347 0 1327.5 8.5Q1308 17 1293.5 31.5Q1279 46 1270.5 65.5Q1262 85 1262 108ZM1622 108Q1622 130 1630.5 149.5Q1639 169 1653.0 184.0Q1667 199 1686.5 207.5Q1706 216 1729 216Q1751 216 1771.0 207.5Q1791 199 1805.5 184.5Q1820 170 1828.5 150.0Q1837 130 1837 108Q1837 85 1828.5 65.5Q1820 46 1805.5 31.5Q1791 17 1771.0 8.5Q1751 0 1729 0Q1706 0 1686.5 8.5Q1667 17 1653.0 32.0Q1639 47 1630.5 66.5Q1622 86 1622 108ZM1981 108Q1981 130 1989.5 150.0Q1998 170 2012.5 184.5Q2027 199 2046.5 207.5Q2066 216 2089 216Q2111 216 2130.5 207.5Q2150 199 2165.0 184.0Q2180 169 2188.5 149.5Q2197 130 2197 108Q2197 86 2188.5 66.5Q2180 47 2165.0 32.0Q2150 17 2130.5 8.5Q2111 0 2089 0Q2066 0 2046.5 8.5Q2027 17 2012.5 31.5Q1998 46 1989.5 65.5Q1981 85 1981 108ZM1550 1186Q1550 1208 1558.5 1228.0Q1567 1248 1581.5 1262.5Q1596 1277 1615.5 1285.5Q1635 1294 1658 1294Q1680 1294 1700.0 1285.5Q1720 1277 1734.0 1262.0Q1748 1247 1756.5 1227.5Q1765 1208 1765 1186Q1765 1164 1756.5 1144.5Q1748 1125 1733.5 1110.0Q1719 1095 1699.5 1086.5Q1680 1078 1658 1078Q1636 1078 1616.5 1086.5Q1597 1095 1582.0 1110.0Q1567 1125 1558.5 1144.5Q1550 1164 1550 1186ZM1118 1258Q1118 1280 1126.5 1299.5Q1135 1319 1150.0 1334.0Q1165 1349 1184.5 1357.5Q1204 1366 1226 1366Q1248 1366 1268.0 1357.5Q1288 1349 1302.5 1334.5Q1317 1320 1325.5 1300.0Q1334 1280 1334 1258Q1334 1235 1325.5 1215.5Q1317 1196 1302.5 1181.5Q1288 1167 1268.0 1158.5Q1248 1150 1226 1150Q1204 1150 1184.5 1158.5Q1165 1167 1150.0 1182.0Q1135 1197 1126.5 1216.5Q1118 1236 1118 1258ZM1981 827Q1981 804 1972.5 784.5Q1964 765 1949.5 750.5Q1935 736 1915.0 727.5Q1895 719 1873 719Q1844 719 1819 733Q1837 778 1837 827Q1837 876 1819 920Q1831 927 1845.0 931.0Q1859 935 1873 935Q1895 935 1914.5 926.5Q1934 918 1949.0 903.0Q1964 888 1972.5 868.5Q1981 849 1981 827ZM759 1042Q759 1064 767.5 1084.0Q776 1104 790.5 1118.5Q805 1133 824.5 1141.5Q844 1150 867 1150Q889 1150 908.5 1141.5Q928 1133 943.0 1118.0Q958 1103 966.5 1083.5Q975 1064 975 1042Q975 1020 966.5 1000.5Q958 981 943.0 966.5Q928 952 908.5 943.5Q889 935 867 935Q845 935 825.5 943.5Q806 952 791.0 966.0Q776 980 767.5 999.5Q759 1019 759 1042ZM1047 899Q1047 921 1055.5 940.5Q1064 960 1078.5 974.5Q1093 989 1112.5 997.5Q1132 1006 1154 1006Q1176 1006 1195.5 997.5Q1215 989 1230.0 975.0Q1245 961 1253.5 941.0Q1262 921 1262 899Q1262 876 1253.5 856.5Q1245 837 1230.5 822.5Q1216 808 1196.0 799.5Q1176 791 1154 791Q1131 791 1111.5 799.5Q1092 808 1078.0 823.0Q1064 838 1055.5 857.5Q1047 877 1047 899ZM1406 899Q1406 921 1414.5 941.0Q1423 961 1438.0 975.0Q1453 989 1472.5 997.5Q1492 1006 1514 1006Q1536 1006 1555.5 997.5Q1575 989 1590.0 974.5Q1605 960 1613.5 940.5Q1622 921 1622 899Q1622 877 1613.5 857.5Q1605 838 1590.0 823.0Q1575 808 1555.5 799.5Q1536 791 1514 791Q1491 791 1471.5 799.5Q1452 808 1437.5 822.5Q1423 837 1414.5 856.5Q1406 876 1406 899ZM1047 539Q1047 561 1055.5 580.5Q1064 600 1078.0 615.0Q1092 630 1111.5 638.5Q1131 647 1154 647Q1176 647 1196.0 638.5Q1216 630 1230.5 615.5Q1245 601 1253.5 581.0Q1262 561 1262 539Q1262 517 1253.5 497.5Q1245 478 1230.0 463.0Q1215 448 1195.5 439.5Q1176 431 1154 431Q1132 431 1112.5 439.5Q1093 448 1078.5 463.0Q1064 478 1055.5 497.5Q1047 517 1047 539ZM1406 539Q1406 561 1414.5 581.0Q1423 601 1437.5 615.5Q1452 630 1471.5 638.5Q1491 647 1514 647Q1536 647 1555.5 638.5Q1575 630 1590.0 615.0Q1605 600 1613.5 580.5Q1622 561 1622 539Q1622 517 1613.5 497.5Q1605 478 1590.0 463.0Q1575 448 1555.5 439.5Q1536 431 1514 431Q1492 431 1472.5 439.5Q1453 448 1438.0 463.0Q1423 478 1414.5 497.5Q1406 517 1406 539ZM903 683Q903 660 894.5 640.5Q886 621 871.5 606.5Q857 592 837.0 583.5Q817 575 795 575Q772 575 752.5 583.5Q733 592 718.5 606.5Q704 621 695.5 640.5Q687 660 687 683Q687 720 709.5 749.0Q732 778 767 787Q793 762 826.0 745.5Q859 729 895 723Q903 702 903 683ZM1043 295Q1033 260 1004.0 238.0Q975 216 939 216Q916 216 896.5 224.5Q877 233 862.5 247.5Q848 262 839.5 281.5Q831 301 831 324Q831 346 839.5 366.0Q848 386 863.0 400.0Q878 414 897.5 422.5Q917 431 939 431Q961 431 978 424Q985 388 1001.0 355.0Q1017 322 1043 295ZM1981 467Q1981 444 1972.5 424.5Q1964 405 1949.0 391.0Q1934 377 1914.5 368.5Q1895 360 1873 360Q1844 360 1819 374Q1837 417 1837 467Q1837 516 1819 561Q1844 575 1873 575Q1895 575 1915.0 566.5Q1935 558 1949.5 543.5Q1964 529 1972.5 509.0Q1981 489 1981 467Z" style="fill:#8764b8;stroke:none" transform="scale(1,-1) translate(0,-256)" /></svg>