<?xml version="1.0" encoding="utf-8" ?>
<svg baseProfile="full" height="256" version="1.1" width="256" xmlns="http://www.w3.org/2000/svg" xmlns:ev="http://www.w3.org/2001/xml-events" xmlns:xlink="http://www.w3.org/1999/xlink"><defs /><path d="M1909 36Q1909 88 1929.0 134.0Q1949 180 1983.0 214.0Q2017 248 2063.0 268.0Q2109 288 2161 288Q2213 288 2259.0 268.0Q2305 248 2339.0 214.0Q2373 180 2392.5 134.0Q2412 88 2412 36Q2412 -16 2392.5 -62.0Q2373 -108 2339.0 -142.0Q2305 -176 2259.0 -195.5Q2213 -215 2161 -215Q2109 -215 2063.0 -195.5Q2017 -176 1983.0 -142.0Q1949 -108 1929.0 -62.0Q1909 -16 1909 36ZM2197 755Q2197 704 2177.5 657.0Q2158 610 2121 575Q2086 610 2040.5 628.5Q1995 647 1945 647Q1906 647 1868.5 635.0Q1831 623 1799 600Q1812 580 1819 561Q1845 547 1858.0 521.5Q1871 496 1871 467Q1871 442 1857.0 413.5Q1843 385 1819 374Q1805 338 1781.0 309.0Q1757 280 1726.5 259.0Q1696 238 1660.5 227.0Q1625 216 1586 216Q1535 216 1488.5 235.5Q1442 255 1406 291Q1370 255 1323.5 235.5Q1277 216 1226 216Q1174 216 1126.0 236.5Q1078 257 1043 295Q1040 294 1034 294Q1020 294 1007.5 303.0Q995 312 986.0 325.5Q977 339 971.5 354.5Q966 370 966 382Q966 404 978 424Q975 445 975 467Q975 518 994.5 564.5Q1014 611 1050 647Q1033 664 1019.5 683.5Q1006 703 996 725Q967 719 939 719Q914 719 895 723Q882 712 866.0 707.5Q850 703 833 703Q801 703 783.5 722.0Q766 741 766 770Q766 774 766.0 778.0Q766 782 767 787Q729 823 708.0 870.5Q687 918 687 971Q687 1023 707.0 1068.5Q727 1114 761.5 1148.0Q796 1182 841.5 1202.0Q887 1222 939 1222Q967 1222 994.0 1215.5Q1021 1209 1047 1198Q1049 1248 1070.0 1292.0Q1091 1336 1124.5 1368.5Q1158 1401 1203.0 1419.5Q1248 1438 1298 1438Q1337 1438 1374.0 1426.0Q1411 1414 1442.0 1392.5Q1473 1371 1496.5 1340.5Q1520 1310 1534 1273Q1569 1317 1620.5 1341.5Q1672 1366 1729 1366Q1781 1366 1827.0 1346.0Q1873 1326 1907.0 1292.0Q1941 1258 1961.0 1212.0Q1981 1166 1981 1114Q1981 1086 1974.5 1059.0Q1968 1032 1957 1006Q2007 1004 2051.0 983.0Q2095 962 2127.5 928.5Q2160 895 2178.5 850.0Q2197 805 2197 755Z" style="fill:#5c2e91;stroke:none" transform="scale(1,-1) translate(0,-256)" /></svg>