<?xml version="1.0" encoding="utf-8" ?>
<svg baseProfile="full" height="256" version="1.1" width="256" xmlns="http://www.w3.org/2000/svg" xmlns:ev="http://www.w3.org/2001/xml-events" xmlns:xlink="http://www.w3.org/1999/xlink"><defs /><path d="M2161 -359Q2067 -359 1981 -316Q1895 -359 1801 -359Q1754 -359 1709.0 -348.5Q1664 -338 1622 -316Q1536 -359 1442 -359Q1385 -359 1332.0 -343.5Q1279 -328 1232.5 -298.5Q1186 -269 1148.5 -228.0Q1111 -187 1086 -136Q1046 -144 1011 -144Q929 -144 857.0 -113.0Q785 -82 731.0 -28.0Q677 26 646.0 98.0Q615 170 615 252Q615 280 619 303Q549 360 510.5 440.0Q472 520 472 611Q472 679 494.5 743.0Q517 807 559 860Q551 887 547.0 915.0Q543 943 543 972Q475 1029 421.5 1098.0Q368 1167 331.0 1245.0Q294 1323 275.0 1407.5Q256 1492 256 1581Q256 1626 273.0 1665.0Q290 1704 319.5 1733.5Q349 1763 388.0 1780.0Q427 1797 472 1797Q516 1797 555.0 1780.0Q594 1763 623.5 1733.5Q653 1704 670.0 1664.5Q687 1625 687 1581Q687 1512 712.5 1448.5Q738 1385 786 1335Q825 1352 864.5 1359.0Q904 1366 946 1366Q971 1415 1008.5 1455.0Q1046 1495 1091.5 1523.0Q1137 1551 1189.5 1566.0Q1242 1581 1298 1581Q1373 1581 1443.0 1553.5Q1513 1526 1567 1475Q1645 1510 1729 1510Q1813 1510 1885.5 1478.0Q1958 1446 2011.0 1391.5Q2064 1337 2094.5 1263.5Q2125 1190 2125 1107Q2174 1082 2214.0 1044.5Q2254 1007 2282.0 961.5Q2310 916 2325.0 863.0Q2340 810 2340 755Q2340 661 2297 575Q2320 530 2330.0 484.0Q2340 438 2340 388Q2390 363 2430.0 325.5Q2470 288 2498.0 242.5Q2526 197 2541.0 144.5Q2556 92 2556 36Q2556 -46 2525.0 -118.0Q2494 -190 2440.5 -243.5Q2387 -297 2315.0 -328.0Q2243 -359 2161 -359Z" style="fill:#000000;stroke:none" transform="scale(1,-1) translate(0,-256)" /></svg>