<?xml version="1.0" encoding="utf-8" ?>
<svg baseProfile="full" height="256" version="1.1" width="256" xmlns="http://www.w3.org/2000/svg" xmlns:ev="http://www.w3.org/2001/xml-events" xmlns:xlink="http://www.w3.org/1999/xlink"><defs /><path d="M1324 -431Q1308 -431 1292.5 -426.5Q1277 -422 1262 -422Q1248 -422 1232.5 -426.5Q1217 -431 1202 -431H1047Q993 -431 944.0 -412.0Q895 -393 856.5 -359.0Q818 -325 793.0 -279.0Q768 -233 761 -179L487 -41Q432 -13 394.0 32.0Q356 77 339 137Q308 165 291.5 193.5Q275 222 267.0 253.0Q259 284 257.5 317.5Q256 351 256 389V396Q256 446 275.0 492.0Q294 538 329 573L759 1003V1366Q759 1470 798.5 1561.5Q838 1653 906.5 1721.5Q975 1790 1066.5 1829.5Q1158 1869 1262 1869Q1366 1869 1457.5 1829.5Q1549 1790 1617.5 1721.5Q1686 1653 1725.5 1561.5Q1765 1470 1765 1366V1003L2195 573Q2222 546 2237.0 518.5Q2252 491 2259.0 462.0Q2266 433 2267.0 401.5Q2268 370 2268 335V324Q2268 270 2246.5 221.5Q2225 173 2185 137Q2168 78 2130.0 32.0Q2092 -14 2038 -41L1763 -179Q1757 -233 1731.5 -279.0Q1706 -325 1668.0 -358.5Q1630 -392 1581.0 -411.5Q1532 -431 1478 -431Z" style="fill:#000000;stroke:none" transform="scale(1,-1) translate(0,-256)" /></svg>