<?xml version="1.0" encoding="utf-8" ?>
<svg baseProfile="full" height="256" version="1.1" width="256" xmlns="http://www.w3.org/2000/svg" xmlns:ev="http://www.w3.org/2001/xml-events" xmlns:xlink="http://www.w3.org/1999/xlink"><defs /><path d="M1909 359Q1939 359 1965.0 348.0Q1991 337 2010.5 317.5Q2030 298 2041.5 272.0Q2053 246 2053 217Q2053 175 2031.0 140.0Q2009 105 1973 87L1255 -272Q1241 -279 1224.5 -283.0Q1208 -287 1192 -287H1047Q1017 -287 991.0 -276.0Q965 -265 945.5 -245.5Q926 -226 914.5 -200.0Q903 -174 903 -144Q903 -114 914.0 -88.0Q925 -62 944.5 -42.5Q964 -23 990.5 -11.5Q1017 0 1047 0H1156L1845 344Q1875 359 1909 359Z" style="fill:#eba300;stroke:none" transform="scale(1,-1) translate(0,-256)" /></svg>