<?xml version="1.0" encoding="utf-8" ?>
<svg baseProfile="full" height="256" version="1.1" width="256" xmlns="http://www.w3.org/2000/svg" xmlns:ev="http://www.w3.org/2001/xml-events" xmlns:xlink="http://www.w3.org/1999/xlink"><defs /><path d="M1478 1006Q1486 1006 1495.5 1003.5Q1505 1001 1513 1000Q1527 999 1536.5 999.0Q1546 999 1554.5 997.5Q1563 996 1571.0 991.0Q1579 986 1590 975L2093 472Q2125 440 2125 396V324Q2125 302 2116.5 282.5Q2108 263 2093.0 248.0Q2078 233 2058.5 224.5Q2039 216 2017 216Q1994 216 1974.5 224.5Q1955 233 1940.5 247.5Q1926 262 1917.5 281.5Q1909 301 1909 324V351L1541 719L1262 507L983 719L624 359Q655 357 680 344L1368 0H1478Q1508 0 1534.0 -11.5Q1560 -23 1579.5 -42.5Q1599 -62 1610.5 -88.0Q1622 -114 1622 -144Q1622 -174 1610.5 -200.0Q1599 -226 1579.5 -245.5Q1560 -265 1534.0 -276.0Q1508 -287 1478 -287H1334Q1300 -287 1270 -272L551 87Q515 105 493.5 139.5Q472 174 472 214V222Q440 233 420.0 261.0Q400 289 400 324Q400 336 399.5 348.5Q399 361 399 373Q399 400 404.5 425.5Q410 451 431 472L934 975Q951 992 963.0 995.5Q975 999 989 999Q996 999 1004.0 999.0Q1012 999 1022 1000Q1028 1001 1034.5 1003.5Q1041 1006 1047 1006ZM1321 1451Q1370 1410 1428.5 1388.0Q1487 1366 1550 1366Q1550 1306 1527.5 1253.5Q1505 1201 1466.0 1162.0Q1427 1123 1374.5 1100.5Q1322 1078 1262 1078Q1202 1078 1150.0 1100.5Q1098 1123 1059.0 1162.0Q1020 1201 997.5 1253.5Q975 1306 975 1366Q1039 1366 1094.5 1395.5Q1150 1425 1190 1474V1366Q1233 1366 1268.5 1389.0Q1304 1412 1321 1451Z" style="fill:#ffc83d;stroke:none" transform="scale(1,-1) translate(0,-256)" /></svg>