<?xml version="1.0" encoding="utf-8" ?>
<svg baseProfile="full" height="256" version="1.1" width="256" xmlns="http://www.w3.org/2000/svg" xmlns:ev="http://www.w3.org/2001/xml-events" xmlns:xlink="http://www.w3.org/1999/xlink"><defs /><path d="M1334 1330Q1334 1345 1344.5 1355.5Q1355 1366 1370 1366Q1385 1366 1395.5 1355.5Q1406 1345 1406 1330Q1406 1315 1395.5 1304.5Q1385 1294 1370 1294Q1355 1294 1344.5 1304.5Q1334 1315 1334 1330ZM1118 1330Q1118 1344 1129.0 1355.0Q1140 1366 1154 1366Q1169 1366 1179.5 1355.5Q1190 1345 1190 1330Q1190 1315 1179.5 1304.5Q1169 1294 1154 1294Q1140 1294 1129.0 1305.0Q1118 1316 1118 1330Z" style="fill:#000000;stroke:none" transform="scale(1,-1) translate(0,-256)" /></svg>