<?xml version="1.0" encoding="utf-8" ?>
<svg baseProfile="full" height="256" version="1.1" width="256" xmlns="http://www.w3.org/2000/svg" xmlns:ev="http://www.w3.org/2001/xml-events" xmlns:xlink="http://www.w3.org/1999/xlink"><defs /><path d="M2226 -287Q2196 -287 2175 -266L1478 431Q1468 441 1459.0 461.0Q1450 481 1442.0 503.0Q1434 525 1425.0 545.0Q1416 565 1406 575L626 1355Q615 1366 615 1380Q615 1395 626 1406L719 1499Q729 1509 744 1509Q760 1509 770 1499L1550 719Q1563 706 1582.0 698.0Q1601 690 1621.5 683.0Q1642 676 1661.0 668.0Q1680 660 1693 647L2391 -51Q2412 -72 2412 -102Q2412 -131 2391 -152L2277 -266Q2256 -287 2226 -287Z" style="fill:#eba300;stroke:none" transform="scale(1,-1) translate(0,-256)" /></svg>