<?xml version="1.0" encoding="utf-8" ?>
<svg baseProfile="full" height="256" version="1.1" width="256" xmlns="http://www.w3.org/2000/svg" xmlns:ev="http://www.w3.org/2001/xml-events" xmlns:xlink="http://www.w3.org/1999/xlink"><defs /><path d="M1621 1653H1550Q1464 1653 1384.0 1632.5Q1304 1612 1231.0 1574.5Q1158 1537 1093.5 1484.0Q1029 1431 975 1366L1118 1222L903 1007L759 1150Q694 1096 641.0 1031.5Q588 967 550.5 894.5Q513 822 492.5 741.5Q472 661 472 575V503Q443 503 421.5 524.0Q400 545 400 575Q400 734 441.0 881.0Q482 1028 557.0 1156.0Q632 1284 736.5 1388.5Q841 1493 969.0 1568.0Q1097 1643 1244.0 1684.0Q1391 1725 1550 1725Q1580 1725 1600.5 1703.5Q1621 1682 1621 1653Z" style="fill:#cccccc;stroke:none" transform="scale(1,-1) translate(0,-256)" /></svg>