<?xml version="1.0" encoding="utf-8" ?>
<svg baseProfile="full" height="256" version="1.1" width="256" xmlns="http://www.w3.org/2000/svg" xmlns:ev="http://www.w3.org/2001/xml-events" xmlns:xlink="http://www.w3.org/1999/xlink"><defs /><path d="M2226 -431Q2137 -431 2074 -368L1360 346Q1351 355 1342.0 374.0Q1333 393 1324.5 414.5Q1316 436 1307.0 456.5Q1298 477 1288 490Q1263 522 1232.0 549.5Q1201 577 1172 606L939 839L903 803L758 948Q709 890 680.5 835.5Q652 781 637.0 727.0Q622 673 618.0 617.0Q614 561 614 500Q614 467 614.5 432.5Q615 398 615 360H472Q427 360 388.0 377.0Q349 394 319.5 423.0Q290 452 273.0 491.0Q256 530 256 575Q256 773 315.0 960.0Q374 1147 486 1311Q478 1328 475.0 1345.5Q472 1363 472 1381Q472 1417 485.0 1449.5Q498 1482 524 1508L617 1600Q670 1653 744 1653Q780 1653 814 1639Q978 1751 1165.0 1810.0Q1352 1869 1550 1869Q1594 1869 1633.0 1851.5Q1672 1834 1701.5 1804.5Q1731 1775 1748.0 1735.5Q1765 1696 1765 1653V1510Q1730 1510 1696.0 1510.5Q1662 1511 1627 1511Q1558 1511 1499.5 1506.0Q1441 1501 1387.0 1485.5Q1333 1470 1282.0 1441.5Q1231 1413 1177 1367L1322 1222L1286 1186L1519 953Q1548 924 1575.5 893.5Q1603 863 1635 837Q1648 826 1669.5 816.0Q1691 806 1713.0 797.0Q1735 788 1753.0 780.0Q1771 772 1778 765L2493 51Q2523 21 2539.5 -19.0Q2556 -59 2556 -101Q2556 -144 2539.5 -184.0Q2523 -224 2493 -254L2379 -368Q2348 -399 2309.0 -415.0Q2270 -431 2226 -431Z" style="fill:#000000;stroke:none" transform="scale(1,-1) translate(0,-256)" /></svg>