<?xml version="1.0" encoding="utf-8" ?>
<svg baseProfile="full" height="256" version="1.1" width="256" xmlns="http://www.w3.org/2000/svg" xmlns:ev="http://www.w3.org/2001/xml-events" xmlns:xlink="http://www.w3.org/1999/xlink"><defs /><path d="M1478 539 1550 575V324L1118 108V180L1478 360ZM1550 1366V647L1478 683V1042L975 1294V935L903 971V1689L975 1653V1581L1478 1330V1402ZM1478 216 1550 252V-36L1478 0ZM400 719 1047 396V-287L975 -251V36L472 288V0L400 36ZM472 611V360L975 108V360Z" style="fill:#bb9167;stroke:none" transform="scale(1,-1) translate(0,-256)" /></svg>