<?xml version="1.0" encoding="utf-8" ?>
<svg baseProfile="full" height="256" version="1.1" width="256" xmlns="http://www.w3.org/2000/svg" xmlns:ev="http://www.w3.org/2001/xml-events" xmlns:xlink="http://www.w3.org/1999/xlink"><defs /><path d="M941 1670 1047 1689V915L975 879L941 905ZM444 647V319Q444 303 445.0 290.5Q446 278 447.5 266.0Q449 254 450.5 241.0Q452 228 453 213L472 0L543 36V611ZM1514 1384V665L994 455L1047 -287L1118 -251V36L1478 216L1550 -36L1622 0V1402ZM1514 342 1118 144V360L1478 539Z" style="fill:#8e562e;stroke:none" transform="scale(1,-1) translate(0,-256)" /></svg>