<?xml version="1.0" encoding="utf-8" ?>
<svg baseProfile="full" height="256" version="1.1" width="256" xmlns="http://www.w3.org/2000/svg" xmlns:ev="http://www.w3.org/2001/xml-events" xmlns:xlink="http://www.w3.org/1999/xlink"><defs /><path d="M1047 1689Q1019 1676 990.0 1661.5Q961 1647 937 1628L903 1689L975 1725ZM975 108 764 180Q748 185 735.0 188.5Q722 192 710.0 195.5Q698 199 685.5 203.5Q673 208 658 216Q656 217 642.5 227.0Q629 237 610.0 252.0Q591 267 568.5 284.5Q546 302 526.0 317.5Q506 333 491.0 344.5Q476 356 472 360L543 396L975 180ZM1622 1402Q1604 1396 1584.0 1385.0Q1564 1374 1544.5 1360.0Q1525 1346 1507.5 1331.0Q1490 1316 1478 1302L941 1565L1047 1617L1478 1402L1550 1438ZM1550 647 1047 396 673 539Q659 546 648.0 553.0Q637 560 626.5 567.5Q616 575 605.5 582.5Q595 590 582 599L400 719L903 971L941 1002L975 935L1047 971L1478 755Z" style="fill:#d8b094;stroke:none" transform="scale(1,-1) translate(0,-256)" /></svg>