<?xml version="1.0" encoding="utf-8" ?>
<svg baseProfile="full" height="256" version="1.1" width="256" xmlns="http://www.w3.org/2000/svg" xmlns:ev="http://www.w3.org/2001/xml-events" xmlns:xlink="http://www.w3.org/1999/xlink"><defs /><path d="M939 935Q954 935 964.5 924.5Q975 914 975 899Q975 884 964.5 873.5Q954 863 939 863Q924 863 913.5 873.5Q903 884 903 899Q903 914 913.5 924.5Q924 935 939 935ZM939 791Q954 791 964.5 780.5Q975 770 975 755Q975 740 964.5 729.5Q954 719 939 719Q924 719 913.5 729.5Q903 740 903 755Q903 770 913.5 780.5Q924 791 939 791ZM939 647Q954 647 964.5 636.5Q975 626 975 611Q975 596 964.5 585.5Q954 575 939 575Q924 575 913.5 585.5Q903 596 903 611Q903 626 913.5 636.5Q924 647 939 647ZM867 1006Q881 1006 892.0 995.5Q903 985 903 971Q903 956 892.5 945.5Q882 935 867 935Q852 935 841.5 945.5Q831 956 831 971Q831 985 842.0 995.5Q853 1006 867 1006ZM867 863Q882 863 892.5 852.5Q903 842 903 827Q903 812 892.5 801.5Q882 791 867 791Q852 791 841.5 801.5Q831 812 831 827Q831 842 841.5 852.5Q852 863 867 863ZM867 719Q882 719 892.5 708.5Q903 698 903 683Q903 668 892.5 657.5Q882 647 867 647Q852 647 841.5 657.5Q831 668 831 683Q831 698 841.5 708.5Q852 719 867 719ZM1729 935Q1744 935 1754.5 924.5Q1765 914 1765 899Q1765 884 1754.5 873.5Q1744 863 1729 863Q1715 863 1704.5 874.0Q1694 885 1694 899Q1694 913 1704.5 924.0Q1715 935 1729 935ZM1729 791Q1744 791 1754.5 780.5Q1765 770 1765 755Q1765 740 1754.5 729.5Q1744 719 1729 719Q1715 719 1704.5 730.0Q1694 741 1694 755Q1694 769 1704.5 780.0Q1715 791 1729 791ZM1729 647Q1744 647 1754.5 636.5Q1765 626 1765 611Q1765 596 1754.5 585.5Q1744 575 1729 575Q1715 575 1704.5 586.0Q1694 597 1694 611Q1694 625 1704.5 636.0Q1715 647 1729 647ZM1801 1006Q1815 1006 1826.0 995.5Q1837 985 1837 971Q1837 956 1826.5 945.5Q1816 935 1801 935Q1786 935 1775.5 945.5Q1765 956 1765 971Q1765 985 1776.0 995.5Q1787 1006 1801 1006ZM1801 863Q1816 863 1826.5 852.5Q1837 842 1837 827Q1837 812 1826.5 801.5Q1816 791 1801 791Q1786 791 1775.5 801.5Q1765 812 1765 827Q1765 842 1775.5 852.5Q1786 863 1801 863ZM1801 719Q1816 719 1826.5 708.5Q1837 698 1837 683Q1837 668 1826.5 657.5Q1816 647 1801 647Q1786 647 1775.5 657.5Q1765 668 1765 683Q1765 698 1775.5 708.5Q1786 719 1801 719Z" style="fill:#ffd679;stroke:none" transform="scale(1,-1) translate(0,-256)" /></svg>