<?xml version="1.0" encoding="utf-8" ?>
<svg baseProfile="full" height="256" version="1.1" width="256" xmlns="http://www.w3.org/2000/svg" xmlns:ev="http://www.w3.org/2001/xml-events" xmlns:xlink="http://www.w3.org/1999/xlink"><defs /><path d="M1256 1150Q1256 1122 1240.0 1100.5Q1224 1079 1198.5 1063.0Q1173 1047 1140.5 1036.0Q1108 1025 1075.5 1018.5Q1043 1012 1013.5 1009.0Q984 1006 963 1006Q942 1006 912.5 1009.0Q883 1012 850.5 1018.5Q818 1025 785.5 1036.0Q753 1047 727.5 1063.0Q702 1079 686.0 1100.5Q670 1122 670 1150Q670 1178 686.0 1199.5Q702 1221 727.5 1237.0Q753 1253 785.5 1264.0Q818 1275 850.5 1281.5Q883 1288 912.5 1291.0Q942 1294 963 1294Q984 1294 1013.5 1291.0Q1043 1288 1075.5 1281.5Q1108 1275 1140.5 1264.0Q1173 1253 1198.5 1237.0Q1224 1221 1240.0 1199.5Q1256 1178 1256 1150ZM1413 1150Q1413 1178 1429.0 1199.5Q1445 1221 1470.5 1237.0Q1496 1253 1528.0 1264.0Q1560 1275 1592.5 1281.5Q1625 1288 1654.5 1291.0Q1684 1294 1705 1294Q1726 1294 1755.5 1291.0Q1785 1288 1817.5 1281.5Q1850 1275 1882.5 1264.0Q1915 1253 1940.5 1237.0Q1966 1221 1982.0 1199.5Q1998 1178 1998 1150Q1998 1122 1982.0 1100.5Q1966 1079 1940.5 1063.0Q1915 1047 1882.5 1036.0Q1850 1025 1817.5 1018.5Q1785 1012 1755.5 1009.0Q1726 1006 1705 1006Q1684 1006 1654.5 1009.0Q1625 1012 1592.5 1018.5Q1560 1025 1528.0 1036.0Q1496 1047 1470.5 1063.0Q1445 1079 1429.0 1100.5Q1413 1122 1413 1150Z" style="fill:#ffc83d;stroke:none" transform="scale(1,-1) translate(0,-256)" /></svg>