<?xml version="1.0" encoding="utf-8" ?>
<svg baseProfile="full" height="256" version="1.1" width="256" xmlns="http://www.w3.org/2000/svg" xmlns:ev="http://www.w3.org/2001/xml-events" xmlns:xlink="http://www.w3.org/1999/xlink"><defs /><path d="M2130 228Q2175 222 2217.0 207.5Q2259 193 2294.0 169.0Q2329 145 2354.5 110.0Q2380 75 2392 28Q2399 -1 2405.5 -31.0Q2412 -61 2412 -90Q2412 -148 2387.5 -195.5Q2363 -243 2322.0 -281.0Q2281 -319 2228.5 -347.0Q2176 -375 2119.0 -394.0Q2062 -413 2006.0 -422.0Q1950 -431 1902 -431Q1848 -431 1794.0 -421.0Q1740 -411 1694.5 -387.0Q1649 -363 1614.5 -323.5Q1580 -284 1565 -226Q1565 -224 1564.5 -223.5Q1564 -223 1564 -221Q1556 -193 1550.0 -165.0Q1544 -137 1544 -108Q1544 -68 1557.5 -32.0Q1571 4 1594.0 35.0Q1617 66 1646.5 92.0Q1676 118 1709 138L1659 367Q1603 384 1555.0 415.0Q1507 446 1469.0 487.5Q1431 529 1404.5 579.5Q1378 630 1365 687L1334 828Q1326 793 1318.5 757.5Q1311 722 1303 687Q1275 572 1202.0 489.0Q1129 406 1016 369L965 135Q997 115 1026.0 89.5Q1055 64 1076.5 33.0Q1098 2 1111.0 -33.5Q1124 -69 1124 -108Q1124 -137 1117.5 -167.0Q1111 -197 1104 -226Q1090 -284 1055.5 -323.0Q1021 -362 974.5 -386.0Q928 -410 874.0 -420.5Q820 -431 767 -431Q719 -431 662.5 -422.0Q606 -413 549.0 -394.5Q492 -376 439.5 -347.5Q387 -319 346.0 -281.0Q305 -243 280.5 -195.0Q256 -147 256 -89Q256 -60 262.5 -30.5Q269 -1 276 28Q288 76 314.0 111.5Q340 147 376.0 171.0Q412 195 455.0 209.0Q498 223 544 229L594 458Q525 519 488.0 603.0Q451 687 451 778Q451 827 461 871L630 1643Q643 1701 677.5 1740.0Q712 1779 758.5 1803.0Q805 1827 859.5 1837.5Q914 1848 966 1848Q1063 1848 1158.5 1821.0Q1254 1794 1334 1739Q1373 1766 1417.5 1786.5Q1462 1807 1509.0 1820.5Q1556 1834 1605.0 1841.0Q1654 1848 1701 1848Q1753 1848 1807.5 1837.5Q1862 1827 1909.0 1803.0Q1956 1779 1991.0 1740.0Q2026 1701 2039 1644Q2063 1535 2087.5 1426.5Q2112 1318 2133 1208Q2154 1124 2171.5 1040.0Q2189 956 2208 871Q2218 828 2218 780Q2218 690 2181.5 607.0Q2145 524 2079 463Z" style="fill:#000000;stroke:none" transform="scale(1,-1) translate(0,-256)" /></svg>