<?xml version="1.0" encoding="utf-8" ?>
<svg baseProfile="full" height="256" version="1.1" width="256" xmlns="http://www.w3.org/2000/svg" xmlns:ev="http://www.w3.org/2001/xml-events" xmlns:xlink="http://www.w3.org/1999/xlink"><defs /><path d="M1254 1136Q1231 1030 1208.5 926.5Q1186 823 1163 717Q1152 668 1126.0 626.5Q1100 585 1062.5 555.0Q1025 525 979.0 508.0Q933 491 883 491Q824 491 771.5 513.5Q719 536 679.5 575.0Q640 614 617.0 666.0Q594 718 594 778Q594 794 596.0 809.5Q598 825 601 840L671 1162ZM1997 1162 2067 840Q2070 825 2072.0 809.5Q2074 794 2074 778Q2074 719 2051.0 666.5Q2028 614 1989.0 575.0Q1950 536 1897.5 513.5Q1845 491 1786 491Q1736 491 1690.0 508.0Q1644 525 1606.5 555.0Q1569 585 1542.5 626.5Q1516 668 1505 717Q1482 823 1459.5 926.5Q1437 1030 1414 1136Z" style="fill:#eba300;stroke:none" transform="scale(1,-1) translate(0,-256)" /></svg>