<?xml version="1.0" encoding="utf-8" ?>
<svg baseProfile="full" height="256" version="1.1" width="256" xmlns="http://www.w3.org/2000/svg" xmlns:ev="http://www.w3.org/2001/xml-events" xmlns:xlink="http://www.w3.org/1999/xlink"><defs /><path d="M1702 1705Q1727 1705 1761.0 1700.5Q1795 1696 1826.0 1684.0Q1857 1672 1878.5 1651.0Q1900 1630 1900 1597Q1900 1559 1872.0 1528.0Q1844 1497 1804.5 1473.0Q1765 1449 1722.0 1433.5Q1679 1418 1648 1411Q1619 1405 1590.5 1401.5Q1562 1398 1533 1398Q1509 1398 1475.5 1402.0Q1442 1406 1411.5 1417.5Q1381 1429 1358.5 1448.5Q1336 1468 1334 1499Q1331 1468 1309.0 1448.5Q1287 1429 1256.0 1417.5Q1225 1406 1192.0 1402.0Q1159 1398 1135 1398Q1106 1398 1077.5 1401.5Q1049 1405 1020 1411Q989 1418 946.0 1433.5Q903 1449 863.5 1473.0Q824 1497 796.0 1528.0Q768 1559 768 1597Q768 1630 790.0 1651.0Q812 1672 843.0 1684.0Q874 1696 908.0 1700.5Q942 1705 967 1705Q996 1705 1024.5 1701.5Q1053 1698 1082 1692Q1113 1686 1156.0 1670.0Q1199 1654 1238.5 1630.0Q1278 1606 1306.0 1574.5Q1334 1543 1334 1506Q1334 1531 1347.0 1553.5Q1360 1576 1381.5 1595.5Q1403 1615 1430.0 1630.5Q1457 1646 1485.0 1658.5Q1513 1671 1539.5 1679.5Q1566 1688 1587 1692Q1616 1698 1644.5 1701.5Q1673 1705 1702 1705Z" style="fill:#f2f2f2;stroke:none" transform="scale(1,-1) translate(0,-256)" /></svg>