<?xml version="1.0" encoding="utf-8" ?>
<svg baseProfile="full" height="256" version="1.1" width="256" xmlns="http://www.w3.org/2000/svg" xmlns:ev="http://www.w3.org/2001/xml-events" xmlns:xlink="http://www.w3.org/1999/xlink"><defs /><path d="M1804 709 1875 725 2028 22Q2030 12 2030 6Q2030 -19 2013.5 -38.5Q1997 -58 1973 -63ZM869 708 940 693 786 -10Q781 -34 761.5 -50.0Q742 -66 717 -66Q711 -66 701 -64ZM2252 -6Q2257 -26 2263.0 -47.0Q2269 -68 2269 -89Q2269 -127 2241.0 -158.0Q2213 -189 2173.5 -212.5Q2134 -236 2090.5 -252.0Q2047 -268 2017 -274Q1988 -280 1959.0 -283.5Q1930 -287 1901 -287Q1877 -287 1846.0 -283.5Q1815 -280 1785.5 -269.5Q1756 -259 1733.5 -241.5Q1711 -224 1705 -195Q1701 -178 1697.5 -162.0Q1694 -146 1691 -129Q1698 -156 1721.0 -173.0Q1744 -190 1772.5 -200.0Q1801 -210 1831.5 -213.5Q1862 -217 1886 -217Q1914 -217 1952.0 -211.5Q1990 -206 2031.0 -195.0Q2072 -184 2111.5 -167.0Q2151 -150 2182.0 -127.0Q2213 -104 2232.5 -75.0Q2252 -46 2252 -10ZM415 -20Q415 -45 428.0 -66.5Q441 -88 462.5 -107.5Q484 -127 511.5 -142.5Q539 -158 567.0 -170.5Q595 -183 621.0 -191.5Q647 -200 667 -204Q696 -210 725.0 -213.5Q754 -217 783 -217Q806 -217 836.5 -213.0Q867 -209 896.0 -199.5Q925 -190 947.5 -173.0Q970 -156 978 -129L963 -195Q956 -224 934.0 -241.5Q912 -259 883.0 -269.5Q854 -280 822.5 -283.5Q791 -287 767 -287Q738 -287 709.5 -283.5Q681 -280 652 -274Q631 -270 604.5 -261.0Q578 -252 550.0 -240.0Q522 -228 495.0 -212.0Q468 -196 446.5 -177.0Q425 -158 412.0 -135.5Q399 -113 399 -88Q399 -77 401.5 -63.5Q404 -50 407 -36Q411 -21 416 -4Q415 -7 415 -10Z" style="fill:#cccccc;stroke:none" transform="scale(1,-1) translate(0,-256)" /></svg>