<?xml version="1.0" encoding="utf-8" ?>
<svg baseProfile="full" height="256" version="1.1" width="256" xmlns="http://www.w3.org/2000/svg" xmlns:ev="http://www.w3.org/2001/xml-events" xmlns:xlink="http://www.w3.org/1999/xlink"><defs /><path d="M967 1651Q1000 1651 1037.0 1645.5Q1074 1640 1110.0 1629.0Q1146 1618 1179.0 1602.0Q1212 1586 1238 1565Q1244 1560 1251.0 1553.0Q1258 1546 1264.5 1538.5Q1271 1531 1275.5 1522.5Q1280 1514 1280 1506Q1280 1489 1262.0 1478.5Q1244 1468 1219.5 1462.0Q1195 1456 1171.0 1454.0Q1147 1452 1135 1452Q1102 1452 1065.0 1457.5Q1028 1463 992.0 1473.5Q956 1484 923.0 1500.0Q890 1516 864 1537Q858 1541 851.0 1548.0Q844 1555 837.5 1563.0Q831 1571 826.5 1579.5Q822 1588 822 1596Q822 1612 840.0 1623.0Q858 1634 882.5 1640.0Q907 1646 931.0 1648.5Q955 1651 967 1651ZM1702 1651Q1713 1651 1737.0 1648.5Q1761 1646 1785.0 1640.0Q1809 1634 1827.5 1624.0Q1846 1614 1846 1598Q1846 1581 1831.5 1564.5Q1817 1548 1804 1537Q1778 1516 1745.0 1500.0Q1712 1484 1676.0 1473.5Q1640 1463 1603.0 1457.5Q1566 1452 1533 1452Q1521 1452 1497.0 1454.0Q1473 1456 1449.0 1462.0Q1425 1468 1407.0 1478.5Q1389 1489 1389 1505Q1389 1522 1404.0 1538.5Q1419 1555 1431 1565Q1456 1586 1489.5 1602.0Q1523 1618 1559.0 1629.0Q1595 1640 1632.0 1645.5Q1669 1651 1702 1651Z" style="fill:#cccccc;stroke:none" transform="scale(1,-1) translate(0,-256)" /></svg>