<?xml version="1.0" encoding="utf-8" ?>
<svg baseProfile="full" height="256" version="1.1" width="256" xmlns="http://www.w3.org/2000/svg" xmlns:ev="http://www.w3.org/2001/xml-events" xmlns:xlink="http://www.w3.org/1999/xlink"><defs /><path d="M2023 88Q2061 88 2102.5 85.5Q2144 83 2178.5 70.0Q2213 57 2235.5 28.5Q2258 0 2258 -51Q2258 -91 2240.5 -122.5Q2223 -154 2193.5 -177.5Q2164 -201 2126.5 -218.0Q2089 -235 2049.5 -245.5Q2010 -256 1971.0 -260.5Q1932 -265 1901 -265Q1864 -265 1830.0 -257.5Q1796 -250 1768.5 -233.5Q1741 -217 1720.5 -190.5Q1700 -164 1690 -125Q1688 -115 1688 -109Q1688 -78 1707.5 -51.5Q1727 -25 1755.5 -3.5Q1784 18 1816.0 33.5Q1848 49 1873 58L1734 694L1856 628L1979 91Q2001 88 2023 88ZM768 68Q795 57 832.0 41.5Q869 26 902.0 4.0Q935 -18 958.0 -46.0Q981 -74 981 -109Q981 -115 979 -125Q970 -163 952.0 -188.0Q934 -213 909.5 -228.0Q885 -243 853.5 -249.5Q822 -256 786 -256Q755 -256 715.5 -251.5Q676 -247 634.5 -236.5Q593 -226 553.0 -209.5Q513 -193 481.5 -169.5Q450 -146 431.0 -115.0Q412 -84 412 -44Q412 -4 429.5 22.0Q447 48 475.0 63.0Q503 78 538.0 84.0Q573 90 607 90Q636 90 660 87L799 723L848 611Z" style="fill:#f2f2f2;stroke:none" transform="scale(1,-1) translate(0,-256)" /></svg>