<?xml version="1.0" encoding="utf-8" ?>
<svg baseProfile="full" height="256" version="1.1" width="256" xmlns="http://www.w3.org/2000/svg" xmlns:ev="http://www.w3.org/2001/xml-events" xmlns:xlink="http://www.w3.org/1999/xlink"><defs /><path d="M1837 1725V1581H400V1725ZM2233 719H1981V1078H2233Q2255 1078 2274.5 1069.5Q2294 1061 2308.5 1046.5Q2323 1032 2331.5 1012.5Q2340 993 2340 971Q2340 951 2333.0 932.0Q2326 913 2312 899Q2326 885 2333.0 866.0Q2340 847 2340 827Q2340 805 2331.5 785.5Q2323 766 2308.5 751.0Q2294 736 2274.5 727.5Q2255 719 2233 719ZM1837 575H2412V431H1837ZM2053 863V791H2233Q2247 791 2257.5 802.0Q2268 813 2268 827Q2268 841 2257.5 852.0Q2247 863 2233 863ZM2233 1006H2053V935H2233Q2247 935 2257.5 946.0Q2268 957 2268 971Q2268 985 2257.5 995.5Q2247 1006 2233 1006ZM472 72V144H615V72Z" style="fill:#16c60c;stroke:none" transform="scale(1,-1) translate(0,-256)" /></svg>