<?xml version="1.0" encoding="utf-8" ?>
<svg baseProfile="full" height="256" version="1.1" width="256" xmlns="http://www.w3.org/2000/svg" xmlns:ev="http://www.w3.org/2001/xml-events" xmlns:xlink="http://www.w3.org/1999/xlink"><defs /><path d="M2268 1653V575H1801L1406 48V-144Q1406 -204 1383.5 -256.0Q1361 -308 1322.0 -347.0Q1283 -386 1230.5 -408.5Q1178 -431 1118 -431Q1059 -431 1006.5 -408.5Q954 -386 915.0 -347.0Q876 -308 853.5 -255.5Q831 -203 831 -144V216Q831 252 840 288H687Q628 288 575.5 310.5Q523 333 484.0 372.0Q445 411 422.5 463.5Q400 516 400 575V614Q333 653 294.5 719.0Q256 785 256 863V1078Q256 1156 294.5 1221.5Q333 1287 400 1327V1366Q400 1425 422.5 1477.5Q445 1530 484.0 1569.0Q523 1608 575.5 1630.5Q628 1653 687 1653Z" style="fill:#000000;stroke:none" transform="scale(1,-1) translate(0,-256)" /></svg>