<?xml version="1.0" encoding="utf-8" ?>
<svg baseProfile="full" height="256" version="1.1" width="256" xmlns="http://www.w3.org/2000/svg" xmlns:ev="http://www.w3.org/2001/xml-events" xmlns:xlink="http://www.w3.org/1999/xlink"><defs /><path d="M1190 719V935H400V1006H1190V1222H543V1294H1190V1366Q1190 1394 1179.5 1420.0Q1169 1446 1150.5 1465.5Q1132 1485 1107.0 1497.0Q1082 1509 1053 1510H1206Q1233 1481 1247.5 1443.5Q1262 1406 1262 1366V575Q1262 530 1245.0 490.5Q1228 451 1198.0 422.0Q1168 393 1128.5 376.5Q1089 360 1044 360L1093 431Q1129 438 1148.5 459.0Q1168 480 1177.5 507.5Q1187 535 1188.5 567.0Q1190 599 1190 629V647H543V719Z" style="fill:#d48c00;stroke:none" transform="scale(1,-1) translate(0,-256)" /></svg>