<?xml version="1.0" encoding="utf-8" ?>
<svg baseProfile="full" height="256" version="1.1" width="256" xmlns="http://www.w3.org/2000/svg" xmlns:ev="http://www.w3.org/2001/xml-events" xmlns:xlink="http://www.w3.org/1999/xlink"><defs /><path d="M1932 288Q2032 288 2119.5 250.0Q2207 212 2272.0 146.5Q2337 81 2374.5 -7.0Q2412 -95 2412 -194V-287H519Q494 -287 472.5 -277.5Q451 -268 435.0 -252.0Q419 -236 409.5 -214.5Q400 -193 400 -168Q400 -160 401.5 -148.0Q403 -136 406 -129L605 296L759 324L831 180L759 0Q891 65 1022.0 128.0Q1153 191 1284 256Q1325 273 1368.0 280.5Q1411 288 1455 288H1550Q1563 279 1581.0 267.5Q1599 256 1618.5 246.0Q1638 236 1657.5 229.5Q1677 223 1693 223Q1709 223 1728.5 229.5Q1748 236 1768.0 246.0Q1788 256 1806.0 267.5Q1824 279 1837 288Z" style="fill:#886ce4;stroke:none" transform="scale(1,-1) translate(0,-256)" /></svg>