<?xml version="1.0" encoding="utf-8" ?>
<svg baseProfile="full" height="256" version="1.1" width="256" xmlns="http://www.w3.org/2000/svg" xmlns:ev="http://www.w3.org/2001/xml-events" xmlns:xlink="http://www.w3.org/1999/xlink"><defs /><path d="M2484 97Q2519 30 2537.5 -44.0Q2556 -118 2556 -194V-431H519Q465 -431 417.0 -410.5Q369 -390 333.0 -354.0Q297 -318 276.5 -270.0Q256 -222 256 -168Q256 -146 260.0 -120.0Q264 -94 273 -74Q334 57 394.5 185.0Q455 313 512 445Q508 448 504.5 451.0Q501 454 498 458Q380 583 318.0 726.0Q256 869 256 1042Q256 1079 270.0 1112.0Q284 1145 308.5 1169.5Q333 1194 366.0 1208.0Q399 1222 436 1222Q465 1222 492.5 1212.5Q520 1203 543 1186Q566 1203 594.0 1212.5Q622 1222 651 1222Q688 1222 721.0 1208.0Q754 1194 778.5 1169.5Q803 1145 817.0 1112.0Q831 1079 831 1042Q831 993 849.5 947.0Q868 901 903 866V934Q903 1043 931.0 1144.0Q959 1245 1010.5 1333.0Q1062 1421 1134.5 1493.0Q1207 1565 1294.5 1616.5Q1382 1668 1483.0 1696.5Q1584 1725 1693 1725Q1802 1725 1903.0 1696.5Q2004 1668 2092.0 1616.5Q2180 1565 2252.0 1493.0Q2324 1421 2375.5 1333.0Q2427 1245 2455.5 1144.0Q2484 1043 2484 934V97Z" style="fill:#000000;stroke:none" transform="scale(1,-1) translate(0,-256)" /></svg>