<?xml version="1.0" encoding="utf-8" ?>
<svg baseProfile="full" height="256" version="1.1" width="256" xmlns="http://www.w3.org/2000/svg" xmlns:ev="http://www.w3.org/2001/xml-events" xmlns:xlink="http://www.w3.org/1999/xlink"><defs /><path d="M1693 503Q1663 503 1637.0 514.5Q1611 526 1591.5 545.5Q1572 565 1560.5 591.0Q1549 617 1549 647H1836Q1836 617 1825.0 591.0Q1814 565 1794.5 545.5Q1775 526 1749.0 514.5Q1723 503 1693 503ZM1909 1006Q1938 1006 1959.5 985.0Q1981 964 1981 935V863Q1981 833 1960.0 812.0Q1939 791 1909 791Q1879 791 1858.0 812.0Q1837 833 1837 863V935Q1837 964 1858.5 985.0Q1880 1006 1909 1006ZM1550 863Q1550 833 1529.0 812.0Q1508 791 1478 791Q1448 791 1427.0 812.0Q1406 833 1406 863V935Q1406 964 1427.5 985.0Q1449 1006 1478 1006Q1507 1006 1528.5 985.0Q1550 964 1550 935Z" style="fill:#000000;stroke:none" transform="scale(1,-1) translate(0,-256)" /></svg>