<?xml version="1.0" encoding="utf-8" ?>
<svg baseProfile="full" height="256" version="1.1" width="256" xmlns="http://www.w3.org/2000/svg" xmlns:ev="http://www.w3.org/2001/xml-events" xmlns:xlink="http://www.w3.org/1999/xlink"><defs /><path d="M778 702Q763 702 752 712Q719 740 693.5 779.0Q668 818 650.5 862.5Q633 907 624.0 953.5Q615 1000 615 1042Q615 1057 625.5 1067.5Q636 1078 651 1078Q666 1078 676.5 1067.5Q687 1057 687 1042Q687 997 695.0 960.5Q703 924 718.0 891.5Q733 859 754.5 828.0Q776 797 803 763Q808 756 810.5 750.5Q813 745 813 737Q813 723 802.5 712.5Q792 702 778 702ZM625 549Q617 549 611.0 552.0Q605 555 600 560Q552 602 514.5 659.0Q477 716 451.5 780.0Q426 844 413.0 911.5Q400 979 400 1042Q400 1057 410.5 1067.5Q421 1078 436 1078Q451 1078 461.5 1067.5Q472 1057 472 1042Q472 945 502.0 852.0Q532 759 590 681Q596 673 608.0 660.5Q620 648 631.5 634.0Q643 620 652.0 607.0Q661 594 661 585Q661 571 650.0 560.0Q639 549 625 549Z" style="fill:#ffffff;stroke:none" transform="scale(1,-1) translate(0,-256)" /></svg>