<?xml version="1.0" encoding="utf-8" ?>
<svg baseProfile="full" height="256" version="1.1" width="256" xmlns="http://www.w3.org/2000/svg" xmlns:ev="http://www.w3.org/2001/xml-events" xmlns:xlink="http://www.w3.org/1999/xlink"><defs /><path d="M1503 1249Q1520 1210 1547.0 1178.5Q1574 1147 1608.5 1124.5Q1643 1102 1682.5 1090.0Q1722 1078 1765 1078V1282Q1767 1224 1790.5 1174.0Q1814 1124 1853.0 1086.5Q1892 1049 1943.5 1027.5Q1995 1006 2053 1006H2197V863Q2197 758 2157.5 666.5Q2118 575 2049.5 507.0Q1981 439 1889.0 399.5Q1797 360 1693 360Q1600 360 1515.0 392.5Q1430 425 1363.5 483.0Q1297 541 1252.0 619.5Q1207 698 1193 791Q1166 791 1151.0 800.5Q1136 810 1128.5 825.5Q1121 841 1119.5 860.5Q1118 880 1118 901Q1118 920 1120.0 939.0Q1122 958 1129.5 973.0Q1137 988 1151.5 997.0Q1166 1006 1190 1006Q1245 1006 1296.0 1024.0Q1347 1042 1388.5 1074.0Q1430 1106 1459.5 1150.5Q1489 1195 1503 1249ZM1046 719Q1076 719 1097.5 698.0Q1119 677 1119 647Q1119 634 1110.5 612.0Q1102 590 1090.0 566.5Q1078 543 1066.0 521.0Q1054 499 1047 486V395Q1047 373 1038.5 353.5Q1030 334 1015.0 319.5Q1000 305 980.5 296.5Q961 288 939 288H867L831 180L605 296L695 510Q707 539 734.5 557.0Q762 575 794 575H930L982 679Q991 697 1008.5 708.0Q1026 719 1046 719ZM1837 288Q1867 288 1888.0 267.0Q1909 246 1909 216Q1909 200 1901 184L1757 -103Q1748 -122 1731.5 -133.0Q1715 -144 1694 -144Q1674 -144 1656.0 -133.0Q1638 -122 1629 -104L1486 184Q1478 200 1478 216Q1478 246 1499.0 267.0Q1520 288 1550 288Z" style="fill:#ffc83d;stroke:none" transform="scale(1,-1) translate(0,-256)" /></svg>