<?xml version="1.0" encoding="utf-8" ?>
<svg baseProfile="full" height="256" version="1.1" width="256" xmlns="http://www.w3.org/2000/svg" xmlns:ev="http://www.w3.org/2001/xml-events" xmlns:xlink="http://www.w3.org/1999/xlink"><defs /><path d="M1981 1652 1929 1617 1981 1582V1509L1918 1436L1981 1366V1293L1914 1257L1981 1223V1149L1916 1078L1981 1007V934L1919 899L1981 863V790L1917 717L1981 647V574Q1954 560 1940.0 529.5Q1926 499 1926 470Q1926 439 1940.5 408.0Q1955 377 1981 360V287L1919 215L1981 144V72H1909V-215H615Q585 -215 559.0 -204.0Q533 -193 513.5 -173.5Q494 -154 483.0 -128.0Q472 -102 472 -72Q472 -42 483.0 -16.0Q494 10 513.5 29.5Q533 49 559.0 60.5Q585 72 615 72L673 116V458L615 502V575L681 688L615 790V934L677 973L615 1005V1150L674 1224L615 1293V1438L672 1509L615 1580V1654Q649 1674 684.5 1692.5Q720 1711 757 1725H831L867 1671L902 1725H1046L1080 1671L1118 1725H1191L1262 1672L1333 1725H1406Q1420 1708 1442.0 1696.0Q1464 1684 1489.0 1676.5Q1514 1669 1540.0 1665.5Q1566 1662 1587 1662Q1608 1662 1633.5 1665.0Q1659 1668 1684.0 1675.5Q1709 1683 1730.5 1695.0Q1752 1707 1765 1725H1837L1873 1674L1908 1725H1981Z" style="fill:#f2f2f2;stroke:none" transform="scale(1,-1) translate(0,-256)" /></svg>