<?xml version="1.0" encoding="utf-8" ?>
<svg baseProfile="full" height="256" version="1.1" width="256" xmlns="http://www.w3.org/2000/svg" xmlns:ev="http://www.w3.org/2001/xml-events" xmlns:xlink="http://www.w3.org/1999/xlink"><defs /><path d="M759 288V431H903V288Q903 258 882.0 237.0Q861 216 831 216Q801 216 780.0 237.0Q759 258 759 288ZM1334 431H1478V288Q1478 258 1457.0 237.0Q1436 216 1406 216Q1376 216 1355.0 237.0Q1334 258 1334 288ZM1047 288V431H1190V288Q1190 258 1169.0 237.0Q1148 216 1118 216Q1089 216 1068.0 237.5Q1047 259 1047 288Z" style="fill:#ffffff;stroke:none" transform="scale(1,-1) translate(0,-256)" /></svg>