<?xml version="1.0" encoding="utf-8" ?>
<svg baseProfile="full" height="256" version="1.1" width="256" xmlns="http://www.w3.org/2000/svg" xmlns:ev="http://www.w3.org/2001/xml-events" xmlns:xlink="http://www.w3.org/1999/xlink"><defs /><path d="M400 1006H2412V935H400ZM1622 1294V1366H1478V1448L1601 1653H1693V1294ZM1334 1366V1294H1118V1381L1237 1499Q1248 1510 1255.0 1520.0Q1262 1530 1262 1546Q1262 1560 1251.0 1570.5Q1240 1581 1226 1581Q1212 1581 1201.0 1570.5Q1190 1560 1190 1546H1118Q1118 1568 1126.5 1587.5Q1135 1607 1150.0 1621.5Q1165 1636 1184.5 1644.5Q1204 1653 1226 1653Q1248 1653 1267.5 1644.5Q1287 1636 1302.0 1621.5Q1317 1607 1325.5 1587.5Q1334 1568 1334 1546Q1334 1512 1321.0 1490.5Q1308 1469 1285 1446L1205 1366ZM1556 1438H1622V1548Z" style="fill:#0046ff;stroke:none" transform="scale(1,-1) translate(0,-256)" /></svg>