<?xml version="1.0" encoding="utf-8" ?>
<svg baseProfile="full" height="256" version="1.1" width="256" xmlns="http://www.w3.org/2000/svg" xmlns:ev="http://www.w3.org/2001/xml-events" xmlns:xlink="http://www.w3.org/1999/xlink"><defs /><path d="M400 1150H2412V1006L2309 966H489L400 1006ZM1478 431Q1508 431 1534.0 420.0Q1560 409 1579.5 389.5Q1599 370 1610.5 344.0Q1622 318 1622 288Q1622 259 1600.5 237.5Q1579 216 1550 216Q1520 216 1499.0 237.0Q1478 258 1478 288H1334Q1334 258 1313.0 237.0Q1292 216 1262 216Q1233 216 1211.5 237.5Q1190 259 1190 288H1047Q1047 259 1025.5 237.5Q1004 216 975 216Q945 216 924.0 237.0Q903 258 903 288H759Q759 258 738.0 237.0Q717 216 687 216Q658 216 636.5 237.5Q615 259 615 288Q615 318 626.5 344.0Q638 370 657.5 389.5Q677 409 703.0 420.0Q729 431 759 431L828 381L903 431H1047L1121 381L1189 431H1334L1405 381Z" style="fill:#f03a17;stroke:none" transform="scale(1,-1) translate(0,-256)" /></svg>