<?xml version="1.0" encoding="utf-8" ?>
<svg baseProfile="full" height="256" version="1.1" width="256" xmlns="http://www.w3.org/2000/svg" xmlns:ev="http://www.w3.org/2001/xml-events" xmlns:xlink="http://www.w3.org/1999/xlink"><defs /><path d="M1442 1437Q1464 1437 1483.5 1428.5Q1503 1420 1517.5 1405.5Q1532 1391 1540.5 1371.5Q1549 1352 1549 1330Q1549 1309 1541.0 1289.0Q1533 1269 1518 1254L1252 987Q1227 961 1193.5 948.0Q1160 935 1125 935H825Q814 903 786.0 883.0Q758 863 723 863Q701 863 681.5 871.5Q662 880 647.0 895.0Q632 910 623.5 929.5Q615 949 615 971V1042Q615 1064 623.5 1083.5Q632 1103 647.0 1118.0Q662 1133 681.5 1141.5Q701 1150 723 1150H1110L1366 1406Q1381 1421 1401.0 1429.0Q1421 1437 1442 1437ZM1640 -54 1478 -215 1190 72 1298 288ZM903 1425Q903 1383 887.0 1346.5Q871 1310 843.0 1282.0Q815 1254 778.0 1238.0Q741 1222 699 1222Q654 1222 615 1240L537 1407L771 1641Q796 1616 820.0 1593.5Q844 1571 862.5 1546.0Q881 1521 892.0 1492.0Q903 1463 903 1425ZM1118 719H1622V503H1226Z" style="fill:#ffc83d;stroke:none" transform="scale(1,-1) translate(0,-256)" /></svg>