<?xml version="1.0" encoding="utf-8" ?>
<svg baseProfile="full" height="256" version="1.1" width="256" xmlns="http://www.w3.org/2000/svg" xmlns:ev="http://www.w3.org/2001/xml-events" xmlns:xlink="http://www.w3.org/1999/xlink"><defs /><path d="M2268 1869V-431H1579Q1536 -431 1496.5 -414.5Q1457 -398 1427 -368L1131 -72H759Q722 -72 686.0 -65.5Q650 -59 615 -47V-431H256V120Q256 176 275.0 229.0Q294 282 329 325Q328 334 328.0 342.5Q328 351 328 360V935Q328 995 347.5 1052.0Q367 1109 405 1157Q371 1192 343.5 1223.5Q316 1255 296.5 1289.5Q277 1324 266.5 1364.5Q256 1405 256 1456Q256 1529 283.5 1594.5Q311 1660 362 1711Q397 1746 430.0 1775.0Q463 1804 498.5 1825.0Q534 1846 575.0 1857.5Q616 1869 669 1869Q733 1869 793.5 1847.0Q854 1825 903 1783V1869Z" style="fill:#000000;stroke:none" transform="scale(1,-1) translate(0,-256)" /></svg>