<?xml version="1.0" encoding="utf-8" ?>
<svg baseProfile="full" height="256" version="1.1" width="256" xmlns="http://www.w3.org/2000/svg" xmlns:ev="http://www.w3.org/2001/xml-events" xmlns:xlink="http://www.w3.org/1999/xlink"><defs /><path d="M903 503Q893 501 861.5 495.5Q830 490 794.5 483.5Q759 477 729.0 472.0Q699 467 693 467Q686 467 669.5 469.5Q653 472 631.5 475.0Q610 478 586.0 482.5Q562 487 539.5 491.0Q517 495 499.0 498.0Q481 501 472 503V935Q472 980 489.0 1019.0Q506 1058 535.0 1087.0Q564 1116 603.0 1133.0Q642 1150 687 1150H723L903 935Z" style="fill:#00bcf2;stroke:none" transform="scale(1,-1) translate(0,-256)" /></svg>