<?xml version="1.0" encoding="utf-8" ?>
<svg baseProfile="full" height="256" version="1.1" width="256" xmlns="http://www.w3.org/2000/svg" xmlns:ev="http://www.w3.org/2001/xml-events" xmlns:xlink="http://www.w3.org/1999/xlink"><defs /><path d="M1772 5Q1798 5 1813.5 -12.0Q1829 -29 1829 -54Q1829 -66 1824.5 -78.0Q1820 -90 1811 -99L1647 -262Q1622 -287 1586 -287Q1568 -287 1553.0 -280.5Q1538 -274 1525.5 -263.5Q1513 -253 1501.5 -240.0Q1490 -227 1478 -215L1488 -49L1640 -54Q1650 -49 1667.5 -39.0Q1685 -29 1704.5 -19.5Q1724 -10 1742.0 -2.5Q1760 5 1772 5ZM1622 719 1684 906Q1689 919 1699.5 927.0Q1710 935 1724 935Q1741 935 1753.0 922.5Q1765 910 1765 893V575Q1765 546 1743.5 524.5Q1722 503 1693 503H1622L1513 611Z" style="fill:#ca5010;stroke:none" transform="scale(1,-1) translate(0,-256)" /></svg>