<?xml version="1.0" encoding="utf-8" ?>
<svg baseProfile="full" height="256" version="1.1" width="256" xmlns="http://www.w3.org/2000/svg" xmlns:ev="http://www.w3.org/2001/xml-events" xmlns:xlink="http://www.w3.org/1999/xlink"><defs /><path d="M759 1258Q759 1301 777.5 1337.0Q796 1373 826.5 1403.0Q857 1433 896.5 1457.5Q936 1482 978.5 1500.0Q1021 1518 1062.0 1531.0Q1103 1544 1138 1552Q1204 1567 1271.0 1574.0Q1338 1581 1406 1581Q1474 1581 1540.5 1574.0Q1607 1567 1673 1552Q1707 1544 1748.5 1531.0Q1790 1518 1832.5 1500.0Q1875 1482 1914.5 1457.5Q1954 1433 1985.0 1403.0Q2016 1373 2034.5 1337.0Q2053 1301 2053 1258Q2053 1181 2021.0 1124.5Q1989 1068 1936.5 1028.5Q1884 989 1816.0 963.5Q1748 938 1676.5 924.0Q1605 910 1534.5 904.5Q1464 899 1406 899Q1348 899 1277.5 904.5Q1207 910 1135.5 924.0Q1064 938 996.0 963.5Q928 989 875.5 1028.5Q823 1068 791.0 1124.5Q759 1181 759 1258Z" style="fill:#f7b189;stroke:none" transform="scale(1,-1) translate(0,-256)" /></svg>