<?xml version="1.0" encoding="utf-8" ?>
<svg baseProfile="full" height="256" version="1.1" width="256" xmlns="http://www.w3.org/2000/svg" xmlns:ev="http://www.w3.org/2001/xml-events" xmlns:xlink="http://www.w3.org/1999/xlink"><defs /><path d="M1406 935Q1471 935 1535.0 941.0Q1599 947 1662 961Q1696 968 1735.5 979.5Q1775 991 1815.0 1007.5Q1855 1024 1893.5 1045.5Q1932 1067 1963.5 1093.5Q1995 1120 2017.5 1152.0Q2040 1184 2049 1222Q2051 1213 2052.0 1204.0Q2053 1195 2053 1186Q2053 1143 2034.0 1106.5Q2015 1070 1984.0 1040.0Q1953 1010 1912.5 985.5Q1872 961 1829.0 942.0Q1786 923 1744.0 910.0Q1702 897 1668 890Q1539 863 1406 863Q1273 863 1144 890Q1109 897 1067.5 910.0Q1026 923 983.0 942.0Q940 961 899.5 985.5Q859 1010 828.0 1040.0Q797 1070 778.0 1106.5Q759 1143 759 1186Q759 1195 760.0 1204.0Q761 1213 763 1222Q771 1184 794.0 1152.0Q817 1120 848.5 1093.5Q880 1067 918.5 1045.5Q957 1024 997.0 1007.5Q1037 991 1076.5 979.5Q1116 968 1150 961Q1213 947 1277.0 941.0Q1341 935 1406 935ZM1909 791Q1909 761 1888.0 740.0Q1867 719 1837 719Q1808 719 1786.5 740.5Q1765 762 1765 791Q1765 820 1786.5 841.5Q1808 863 1837 863Q1867 863 1888.0 842.0Q1909 821 1909 791ZM1118 683Q1118 669 1107.5 658.0Q1097 647 1083 647Q1068 647 1057.5 657.5Q1047 668 1047 683Q1047 698 1057.5 708.5Q1068 719 1083 719Q1097 719 1107.5 708.0Q1118 697 1118 683ZM975 827Q975 812 964.5 801.5Q954 791 939 791Q924 791 913.5 801.5Q903 812 903 827Q903 842 913.5 852.5Q924 863 939 863Q954 863 964.5 852.5Q975 842 975 827Z" style="fill:#f7894a;stroke:none" transform="scale(1,-1) translate(0,-256)" /></svg>