<?xml version="1.0" encoding="utf-8" ?>
<svg baseProfile="full" height="256" version="1.1" width="256" xmlns="http://www.w3.org/2000/svg" xmlns:ev="http://www.w3.org/2001/xml-events" xmlns:xlink="http://www.w3.org/1999/xlink"><defs /><path d="M2233 1725Q2247 1725 2257.5 1714.0Q2268 1703 2268 1689Q2268 1675 2257.5 1664.0Q2247 1653 2233 1653H2040Q1955 1473 1872.0 1295.0Q1789 1117 1705 937L1594 698Q1582 673 1570.5 647.0Q1559 621 1546 596Q1541 587 1533.0 581.0Q1525 575 1514 575Q1500 575 1489.0 586.0Q1478 597 1478 611Q1478 618 1481 626L1984 1704Q1994 1725 2017 1725Z" style="fill:#ca5010;stroke:none" transform="scale(1,-1) translate(0,-256)" /></svg>