<?xml version="1.0" encoding="utf-8" ?>
<svg baseProfile="full" height="256" version="1.1" width="256" xmlns="http://www.w3.org/2000/svg" xmlns:ev="http://www.w3.org/2001/xml-events" xmlns:xlink="http://www.w3.org/1999/xlink"><defs /><path d="M975 1366Q975 1318 954.5 1275.0Q934 1232 898 1201Q853 1230 814.0 1271.0Q775 1312 763 1366H759V1150Q714 1150 675.0 1167.0Q636 1184 606.5 1213.5Q577 1243 560.0 1282.0Q543 1321 543 1366Q543 1411 560.0 1450.0Q577 1489 606.5 1518.0Q636 1547 675.0 1564.0Q714 1581 759 1581Q804 1581 843.0 1564.0Q882 1547 911.5 1518.0Q941 1489 958.0 1450.0Q975 1411 975 1366Z" style="fill:#bad80a;stroke:none" transform="scale(1,-1) translate(0,-256)" /></svg>