<?xml version="1.0" encoding="utf-8" ?>
<svg baseProfile="full" height="256" version="1.1" width="256" xmlns="http://www.w3.org/2000/svg" xmlns:ev="http://www.w3.org/2001/xml-events" xmlns:xlink="http://www.w3.org/1999/xlink"><defs /><path d="M2053 1186 1977 1258Q1949 1222 1908.0 1196.5Q1867 1171 1817.5 1153.0Q1768 1135 1713.0 1124.0Q1658 1113 1604.0 1107.0Q1550 1101 1499.0 1099.0Q1448 1097 1406 1097Q1364 1097 1313.0 1099.0Q1262 1101 1208.0 1107.0Q1154 1113 1099.0 1124.0Q1044 1135 994.5 1153.0Q945 1171 903.5 1196.5Q862 1222 835 1258L759 1163L650 1402L824 1494Q850 1535 890.5 1566.5Q931 1598 981.0 1622.0Q1031 1646 1086.5 1662.0Q1142 1678 1198.0 1688.0Q1254 1698 1307.5 1702.5Q1361 1707 1406 1707Q1472 1707 1537.5 1700.0Q1603 1693 1668 1678Q1716 1667 1776.0 1644.5Q1836 1622 1889.5 1587.5Q1943 1553 1979.5 1507.0Q2016 1461 2016 1402H2053ZM1406 -215Q1449 -215 1490.5 -211.0Q1532 -207 1574 -198Q1609 -191 1654.5 -175.5Q1700 -160 1740.5 -135.5Q1781 -111 1809.0 -77.5Q1837 -44 1837 0V-72Q1837 -116 1809.0 -149.5Q1781 -183 1740.5 -207.5Q1700 -232 1654.5 -247.5Q1609 -263 1574 -270Q1532 -279 1490.5 -283.0Q1449 -287 1406 -287Q1363 -287 1321.5 -283.0Q1280 -279 1238 -270Q1203 -263 1157.5 -247.5Q1112 -232 1071.5 -207.5Q1031 -183 1003.0 -149.5Q975 -116 975 -72V0Q975 -44 1003.0 -77.5Q1031 -111 1071.5 -135.5Q1112 -160 1157.5 -175.5Q1203 -191 1238 -198Q1280 -207 1321.5 -211.0Q1363 -215 1406 -215ZM1406 575H1478V72Q1478 42 1457.0 21.0Q1436 0 1406 0Z" style="fill:#cccccc;stroke:none" transform="scale(1,-1) translate(0,-256)" /></svg>