<?xml version="1.0" encoding="utf-8" ?>
<svg baseProfile="full" height="256" version="1.1" width="256" xmlns="http://www.w3.org/2000/svg" xmlns:ev="http://www.w3.org/2001/xml-events" xmlns:xlink="http://www.w3.org/1999/xlink"><defs /><path d="M1406 899Q1453 899 1515.5 904.5Q1578 910 1645.0 923.5Q1712 937 1778.5 958.5Q1845 980 1901.0 1012.0Q1957 1044 1996.5 1087.0Q2036 1130 2049 1186H2053V1114Q2053 1025 2030.0 942.0Q2007 859 1964.5 787.5Q1922 716 1863.0 657.0Q1804 598 1732.5 555.5Q1661 513 1578.0 490.0Q1495 467 1406 467Q1317 467 1234.0 490.0Q1151 513 1079.5 555.5Q1008 598 949.0 657.0Q890 716 847.5 787.5Q805 859 782.0 942.0Q759 1025 759 1114V1186H763Q776 1130 815.5 1087.0Q855 1044 911.0 1012.0Q967 980 1033.5 958.5Q1100 937 1167.0 923.5Q1234 910 1296.5 904.5Q1359 899 1406 899Z" style="fill:#f7630c;stroke:none" transform="scale(1,-1) translate(0,-256)" /></svg>