<?xml version="1.0" encoding="utf-8" ?>
<svg baseProfile="full" height="256" version="1.1" width="256" xmlns="http://www.w3.org/2000/svg" xmlns:ev="http://www.w3.org/2001/xml-events" xmlns:xlink="http://www.w3.org/1999/xlink"><defs /><path d="M1988 1543Q2016 1514 2034.5 1478.5Q2053 1443 2053 1402Q2053 1359 2034.0 1322.5Q2015 1286 1984.0 1255.5Q1953 1225 1912.5 1200.5Q1872 1176 1829.5 1157.5Q1787 1139 1745.0 1126.0Q1703 1113 1668 1106Q1603 1092 1537.5 1085.0Q1472 1078 1406 1078Q1340 1078 1274.5 1085.0Q1209 1092 1144 1106Q1109 1113 1067.0 1126.0Q1025 1139 982.5 1157.5Q940 1176 899.5 1200.5Q859 1225 828.0 1255.0Q797 1285 778.0 1322.0Q759 1359 759 1402H813Q813 1367 831.5 1337.0Q850 1307 880.0 1281.5Q910 1256 948.0 1235.5Q986 1215 1025.5 1199.5Q1065 1184 1101.5 1173.0Q1138 1162 1166 1156Q1226 1143 1285.5 1137.5Q1345 1132 1406 1132Q1467 1132 1526.5 1137.5Q1586 1143 1646 1156Q1673 1162 1710.0 1173.0Q1747 1184 1786.5 1199.5Q1826 1215 1864.0 1235.5Q1902 1256 1932.0 1281.5Q1962 1307 1980.5 1337.0Q1999 1367 1999 1402Q1999 1426 1988.5 1448.5Q1978 1471 1963 1489ZM983 1647Q1083 1690 1190.5 1707.5Q1298 1725 1406 1725Q1470 1725 1540.0 1718.0Q1610 1711 1679.0 1695.0Q1748 1679 1812.5 1653.5Q1877 1628 1931 1591L1908 1540Q1857 1576 1795.5 1601.0Q1734 1626 1667.5 1641.5Q1601 1657 1534.0 1664.0Q1467 1671 1406 1671Q1309 1671 1213.5 1656.0Q1118 1641 1027 1605Z" style="fill:#f2f2f2;stroke:none" transform="scale(1,-1) translate(0,-256)" /></svg>