<?xml version="1.0" encoding="utf-8" ?>
<svg baseProfile="full" height="256" version="1.1" width="256" xmlns="http://www.w3.org/2000/svg" xmlns:ev="http://www.w3.org/2001/xml-events" xmlns:xlink="http://www.w3.org/1999/xlink"><defs /><path d="M1406 -431Q1346 -431 1286.0 -424.0Q1226 -417 1167 -402Q1108 -387 1048.0 -359.0Q988 -331 940.0 -290.0Q892 -249 861.5 -195.0Q831 -141 831 -72V0Q831 72 864.0 128.0Q897 184 949.0 225.5Q1001 267 1064.5 294.5Q1128 322 1190 336V354Q1095 381 1010.5 430.5Q926 480 856.5 547.0Q787 614 735.0 697.0Q683 780 653 874Q566 893 493.5 939.0Q421 985 368.0 1050.0Q315 1115 285.5 1196.0Q256 1277 256 1366Q256 1470 295.5 1561.5Q335 1653 403.5 1721.5Q472 1790 563.5 1829.5Q655 1869 759 1869Q822 1869 883.5 1853.0Q945 1837 1001 1807Q1099 1840 1201.0 1854.5Q1303 1869 1406 1869Q1524 1869 1640.5 1850.5Q1757 1832 1866 1787Q1891 1825 1931.5 1847.0Q1972 1869 2017 1869H2233Q2270 1869 2302.5 1855.0Q2335 1841 2359.5 1816.5Q2384 1792 2398.0 1759.0Q2412 1726 2412 1689Q2412 1652 2398.0 1619.5Q2384 1587 2359.5 1562.5Q2335 1538 2302.5 1524.0Q2270 1510 2233 1510H2177Q2197 1458 2197 1402V1114Q2197 982 2155.0 860.0Q2113 738 2037.0 637.5Q1961 537 1855.0 463.0Q1749 389 1622 353V336Q1683 322 1747.0 294.5Q1811 267 1863.0 225.5Q1915 184 1948.0 128.0Q1981 72 1981 0V-72Q1981 -141 1950.5 -195.0Q1920 -249 1872.0 -290.0Q1824 -331 1764.0 -359.0Q1704 -387 1645 -402Q1586 -417 1526.0 -424.0Q1466 -431 1406 -431Z" style="fill:#000000;stroke:none" transform="scale(1,-1) translate(0,-256)" /></svg>