<?xml version="1.0" encoding="utf-8" ?>
<svg baseProfile="full" height="256" version="1.1" width="256" xmlns="http://www.w3.org/2000/svg" xmlns:ev="http://www.w3.org/2001/xml-events" xmlns:xlink="http://www.w3.org/1999/xlink"><defs /><path d="M810 1036Q810 1031 803.0 1028.5Q796 1026 787.5 1024.0Q779 1022 772.0 1019.5Q765 1017 765 1013Q765 1011 768 1007Q766 1007 763.5 1006.5Q761 1006 759 1006Q684 1006 619.0 1034.5Q554 1063 505.0 1112.0Q456 1161 428.0 1226.5Q400 1292 400 1366Q400 1440 428.0 1505.5Q456 1571 505.0 1619.5Q554 1668 619.5 1696.5Q685 1725 759 1725Q833 1725 898.5 1697.0Q964 1669 1012.5 1620.5Q1061 1572 1089.5 1506.5Q1118 1441 1118 1367Q1118 1342 1114.0 1313.5Q1110 1285 1102.0 1257.0Q1094 1229 1081.5 1203.5Q1069 1178 1053 1159Q1042 1159 1022.5 1167.0Q1003 1175 982.0 1185.5Q961 1196 942.0 1206.0Q923 1216 914 1222V1231Q914 1266 907.5 1302.0Q901 1338 885.0 1367.0Q869 1396 841.5 1414.5Q814 1433 772 1433Q718 1433 687.0 1402.5Q656 1372 656 1318Q656 1296 662.5 1272.5Q669 1249 682.0 1230.0Q695 1211 714.5 1198.5Q734 1186 759 1186Q761 1180 769.5 1157.0Q778 1134 787.0 1108.0Q796 1082 803.0 1060.5Q810 1039 810 1036Z" style="fill:#8cbd18;stroke:none" transform="scale(1,-1) translate(0,-256)" /></svg>