<?xml version="1.0" encoding="utf-8" ?>
<svg baseProfile="full" height="256" version="1.1" width="256" xmlns="http://www.w3.org/2000/svg" xmlns:ev="http://www.w3.org/2001/xml-events" xmlns:xlink="http://www.w3.org/1999/xlink"><defs /><path d="M1355 791 1129 1017Q1118 1028 1118 1042Q1118 1056 1129.0 1067.0Q1140 1078 1154 1078Q1170 1078 1180 1068L1377 870Q1386 874 1408.5 886.0Q1431 898 1460.5 913.5Q1490 929 1522.0 945.5Q1554 962 1582.5 975.5Q1611 989 1631.5 998.0Q1652 1007 1657 1007Q1672 1007 1683.0 996.5Q1694 986 1694 971Q1694 962 1688.0 952.0Q1682 942 1674 938Q1665 934 1641.0 921.5Q1617 909 1584.5 892.5Q1552 876 1516.5 858.0Q1481 840 1450.5 825.0Q1420 810 1398.0 800.0Q1376 790 1371 790Q1367 790 1363.0 790.5Q1359 791 1355 791Z" style="fill:#383838;stroke:none" transform="scale(1,-1) translate(0,-256)" /></svg>