<?xml version="1.0" encoding="utf-8" ?>
<svg baseProfile="full" height="256" version="1.1" width="256" xmlns="http://www.w3.org/2000/svg" xmlns:ev="http://www.w3.org/2001/xml-events" xmlns:xlink="http://www.w3.org/1999/xlink"><defs /><path d="M1909 827Q1909 715 1866.5 617.0Q1824 519 1751.0 446.0Q1678 373 1580.0 330.5Q1482 288 1370 288Q1258 288 1160.0 330.5Q1062 373 989.0 446.0Q916 519 873.5 617.0Q831 715 831 827Q831 938 873.5 1036.5Q916 1135 989.0 1208.0Q1062 1281 1160.5 1323.5Q1259 1366 1370 1366Q1481 1366 1579.5 1323.5Q1678 1281 1751.0 1208.0Q1824 1135 1866.5 1036.5Q1909 938 1909 827Z" style="fill:#f2f2f2;stroke:none" transform="scale(1,-1) translate(0,-256)" /></svg>