<?xml version="1.0" encoding="utf-8" ?>
<svg baseProfile="full" height="256" version="1.1" width="256" xmlns="http://www.w3.org/2000/svg" xmlns:ev="http://www.w3.org/2001/xml-events" xmlns:xlink="http://www.w3.org/1999/xlink"><defs /><path d="M1370 1510Q1464 1510 1551.5 1485.5Q1639 1461 1715.0 1416.5Q1791 1372 1853.0 1310.0Q1915 1248 1959.5 1172.0Q2004 1096 2028.5 1008.5Q2053 921 2053 827V431Q2053 372 2075.5 319.5Q2098 267 2137.0 228.0Q2176 189 2228.5 166.5Q2281 144 2340 144V-79L2308 -111H432L400 -78V144Q459 144 511.5 166.5Q564 189 603.0 228.0Q642 267 664.5 319.5Q687 372 687 431V827Q687 921 711.5 1008.5Q736 1096 780.5 1172.0Q825 1248 887.0 1310.0Q949 1372 1025.0 1416.5Q1101 1461 1188.5 1485.5Q1276 1510 1370 1510Z" style="fill:#613d30;stroke:none" transform="scale(1,-1) translate(0,-256)" /></svg>