<?xml version="1.0" encoding="utf-8" ?>
<svg baseProfile="full" height="256" version="1.1" width="256" xmlns="http://www.w3.org/2000/svg" xmlns:ev="http://www.w3.org/2001/xml-events" xmlns:xlink="http://www.w3.org/1999/xlink"><defs /><path d="M256 -287V288H400Q430 288 456.0 299.0Q482 310 501.5 329.5Q521 349 532.0 375.0Q543 401 543 431V827Q543 941 572.5 1046.5Q602 1152 656.0 1244.0Q710 1336 785.5 1411.0Q861 1486 953.0 1540.0Q1045 1594 1150.5 1623.5Q1256 1653 1370 1653Q1484 1653 1589.5 1623.5Q1695 1594 1787.0 1540.0Q1879 1486 1954.5 1411.0Q2030 1336 2084.0 1244.0Q2138 1152 2167.5 1046.5Q2197 941 2197 827V431Q2197 401 2208.0 375.0Q2219 349 2238.5 329.5Q2258 310 2284.0 299.0Q2310 288 2340 288H2484V-287Z" style="fill:#000000;stroke:none" transform="scale(1,-1) translate(0,-256)" /></svg>