<?xml version="1.0" encoding="utf-8" ?>
<svg baseProfile="full" height="256" version="1.1" width="256" xmlns="http://www.w3.org/2000/svg" xmlns:ev="http://www.w3.org/2001/xml-events" xmlns:xlink="http://www.w3.org/1999/xlink"><defs /><path d="M1478 827Q1478 804 1469.5 784.5Q1461 765 1446.5 750.5Q1432 736 1412.0 727.5Q1392 719 1370 719Q1347 719 1327.5 727.5Q1308 736 1293.5 750.5Q1279 765 1270.5 784.5Q1262 804 1262 827Q1262 849 1270.5 868.5Q1279 888 1294.0 903.0Q1309 918 1328.5 926.5Q1348 935 1370 935Q1392 935 1411.5 926.5Q1431 918 1446.0 903.0Q1461 888 1469.5 868.5Q1478 849 1478 827ZM1406 1258Q1406 1243 1395.5 1232.5Q1385 1222 1370 1222Q1355 1222 1344.5 1232.5Q1334 1243 1334 1258Q1334 1273 1344.5 1283.5Q1355 1294 1370 1294Q1385 1294 1395.5 1283.5Q1406 1273 1406 1258ZM1622 1186Q1622 1172 1611.0 1161.0Q1600 1150 1586 1150Q1572 1150 1561.0 1161.0Q1550 1172 1550 1186Q1550 1200 1561.0 1211.0Q1572 1222 1586 1222Q1601 1222 1611.5 1211.5Q1622 1201 1622 1186ZM1765 1042Q1765 1028 1754.0 1017.0Q1743 1006 1729 1006Q1714 1006 1703.5 1017.0Q1693 1028 1693 1043Q1693 1058 1703.5 1068.0Q1714 1078 1729 1078Q1744 1078 1754.5 1067.5Q1765 1057 1765 1042ZM1801 791Q1786 791 1775.5 801.5Q1765 812 1765 827Q1765 842 1775.5 852.5Q1786 863 1801 863Q1816 863 1826.5 852.5Q1837 842 1837 827Q1837 812 1826.5 801.5Q1816 791 1801 791ZM1730 575Q1715 575 1704.0 585.5Q1693 596 1693 611Q1693 625 1704.0 636.0Q1715 647 1729 647Q1743 647 1754.0 636.0Q1765 625 1765 611Q1765 597 1754.5 586.0Q1744 575 1730 575ZM1586 431Q1570 431 1560.0 442.0Q1550 453 1550 468Q1550 483 1560.5 493.0Q1571 503 1586 503Q1600 503 1611.0 492.0Q1622 481 1622 467Q1622 452 1611.5 441.5Q1601 431 1586 431ZM1334 396Q1334 410 1345.0 420.5Q1356 431 1370 431Q1384 431 1395.0 420.5Q1406 410 1406 396Q1406 381 1395.5 370.5Q1385 360 1370 360Q1355 360 1344.5 370.5Q1334 381 1334 396ZM1118 467Q1118 481 1129.0 492.0Q1140 503 1154 503Q1169 503 1179.5 492.5Q1190 482 1190 467Q1190 452 1180.0 441.5Q1170 431 1155 431Q1140 431 1129.0 441.5Q1118 452 1118 467ZM975 611Q975 625 986.0 636.0Q997 647 1011 647Q1025 647 1036.0 636.0Q1047 625 1047 611Q1047 596 1036.5 585.5Q1026 575 1011 575Q997 575 986.0 586.0Q975 597 975 611ZM939 863Q954 863 964.5 852.5Q975 842 975 827Q975 812 964.5 801.5Q954 791 939 791Q924 791 913.5 801.5Q903 812 903 827Q903 842 913.5 852.5Q924 863 939 863ZM1011 1078Q1026 1078 1036.5 1068.0Q1047 1058 1047 1043Q1047 1028 1036.5 1017.0Q1026 1006 1011 1006Q997 1006 986.0 1017.0Q975 1028 975 1042Q975 1057 985.5 1067.5Q996 1078 1011 1078ZM1155 1222Q1169 1222 1179.5 1211.0Q1190 1200 1190 1186Q1190 1172 1179.0 1161.0Q1168 1150 1154 1150Q1140 1150 1129.0 1161.0Q1118 1172 1118 1186Q1118 1201 1129.0 1211.5Q1140 1222 1155 1222Z" style="fill:#d48c00;stroke:none" transform="scale(1,-1) translate(0,-256)" /></svg>