<?xml version="1.0" encoding="utf-8" ?>
<svg baseProfile="full" height="256" version="1.1" width="256" xmlns="http://www.w3.org/2000/svg" xmlns:ev="http://www.w3.org/2001/xml-events" xmlns:xlink="http://www.w3.org/1999/xlink"><defs /><path d="M2544 461 2239 156 2227 168Q2184 34 2103.0 -76.0Q2022 -186 1914.0 -265.0Q1806 -344 1676.0 -387.5Q1546 -431 1406 -431Q1266 -431 1136.0 -387.5Q1006 -344 898.0 -265.0Q790 -186 709.0 -76.0Q628 34 585 168L573 156L268 461L759 952L903 808V1150H1085Q1031 1210 1003.0 1283.5Q975 1357 975 1438Q975 1527 1009.0 1605.5Q1043 1684 1101.5 1742.5Q1160 1801 1238.5 1835.0Q1317 1869 1406 1869Q1495 1869 1573.5 1835.0Q1652 1801 1710.5 1742.5Q1769 1684 1803.0 1605.5Q1837 1527 1837 1438Q1837 1357 1809.0 1283.5Q1781 1210 1727 1150H1909V808L2053 952Z" style="fill:#000000;stroke:none" transform="scale(1,-1) translate(0,-256)" /></svg>