<?xml version="1.0" encoding="utf-8" ?>
<svg baseProfile="full" height="256" version="1.1" width="256" xmlns="http://www.w3.org/2000/svg" xmlns:ev="http://www.w3.org/2001/xml-events" xmlns:xlink="http://www.w3.org/1999/xlink"><defs /><path d="M2340 461 2239 360 2125 474V431Q2125 332 2099.0 240.5Q2073 149 2026.5 69.0Q1980 -11 1914.0 -76.5Q1848 -142 1768.5 -189.0Q1689 -236 1597.0 -261.5Q1505 -287 1406 -287Q1257 -287 1126.5 -230.5Q996 -174 898.0 -76.5Q800 21 743.5 151.5Q687 282 687 431V474L573 360L472 461L759 749L1047 461L945 360L831 474V431Q831 323 869.5 225.5Q908 128 975.5 51.5Q1043 -25 1135.0 -75.5Q1227 -126 1334 -139V863H1047V1006H1334V1159Q1286 1171 1246.5 1198.0Q1207 1225 1178.5 1262.0Q1150 1299 1134.0 1344.0Q1118 1389 1118 1438Q1118 1496 1141.0 1548.5Q1164 1601 1203.5 1640.0Q1243 1679 1295.0 1702.0Q1347 1725 1406 1725Q1465 1725 1517.5 1702.5Q1570 1680 1609.0 1641.0Q1648 1602 1670.5 1549.5Q1693 1497 1693 1438Q1693 1389 1677.5 1343.5Q1662 1298 1633.5 1261.0Q1605 1224 1565.5 1197.5Q1526 1171 1478 1159V1006H1765V863H1478V-139Q1585 -126 1677.0 -75.5Q1769 -25 1836.5 51.5Q1904 128 1942.5 225.5Q1981 323 1981 431V474L1867 360L1765 461L2053 749ZM1262 1438Q1262 1408 1273.5 1382.0Q1285 1356 1304.5 1336.5Q1324 1317 1350.0 1305.5Q1376 1294 1406 1294Q1436 1294 1462.0 1305.5Q1488 1317 1507.5 1336.5Q1527 1356 1538.5 1382.0Q1550 1408 1550 1438Q1550 1468 1538.5 1494.0Q1527 1520 1507.5 1539.5Q1488 1559 1462.0 1570.0Q1436 1581 1406 1581Q1376 1581 1350.0 1570.0Q1324 1559 1304.5 1539.5Q1285 1520 1273.5 1494.0Q1262 1468 1262 1438Z" style="fill:#cccccc;stroke:none" transform="scale(1,-1) translate(0,-256)" /></svg>