<?xml version="1.0" encoding="utf-8" ?>
<svg baseProfile="full" height="256" version="1.1" width="256" xmlns="http://www.w3.org/2000/svg" xmlns:ev="http://www.w3.org/2001/xml-events" xmlns:xlink="http://www.w3.org/1999/xlink"><defs /><path d="M1837 1725V1581H975V1725ZM1047 288V431H1765V288ZM400 1006V1150H975V1006ZM1837 1150H2412V1006H1837ZM615 1581Q615 1552 593.5 1531.0Q572 1510 543 1510H400V1653Q400 1683 421.0 1704.0Q442 1725 472 1725Q501 1725 522.0 1703.5Q543 1682 543 1653Q573 1653 594.0 1632.0Q615 1611 615 1581Z" style="fill:#f495bf;stroke:none" transform="scale(1,-1) translate(0,-256)" /></svg>