<?xml version="1.0" encoding="utf-8" ?>
<svg baseProfile="full" height="256" version="1.1" width="256" xmlns="http://www.w3.org/2000/svg" xmlns:ev="http://www.w3.org/2001/xml-events" xmlns:xlink="http://www.w3.org/1999/xlink"><defs /><path d="M975 -287V1581L1097 1651H1724L1837 1581V-287H1693L1406 -127L1119 -287ZM2197 1653H2340V1222H2197V1366H2053V1222H1909V1653H2053V1510H2197ZM795 1581Q817 1581 836.5 1572.5Q856 1564 871.0 1550.0Q886 1536 894.5 1516.0Q903 1496 903 1474V1222H651Q629 1222 609.5 1230.5Q590 1239 575.0 1254.0Q560 1269 551.5 1288.5Q543 1308 543 1330Q543 1352 551.5 1371.5Q560 1391 575.0 1406.0Q590 1421 609.5 1429.5Q629 1438 651 1438H687V1474Q687 1496 695.5 1516.0Q704 1536 719.0 1550.0Q734 1564 753.5 1572.5Q773 1581 795 1581Z" style="fill:#ea005e;stroke:none" transform="scale(1,-1) translate(0,-256)" /></svg>