<?xml version="1.0" encoding="utf-8" ?>
<svg baseProfile="full" height="256" version="1.1" width="256" xmlns="http://www.w3.org/2000/svg" xmlns:ev="http://www.w3.org/2001/xml-events" xmlns:xlink="http://www.w3.org/1999/xlink"><defs /><path d="M1837 1006Q1838 1006 1856.5 1012.5Q1875 1019 1903.5 1029.5Q1932 1040 1966.0 1052.5Q2000 1065 2031.0 1076.0Q2062 1087 2085.5 1095.0Q2109 1103 2117 1106L2412 1006V-287H1836L1658 -157H1147L974 -287H400V1006L685 1106Q692 1103 716.0 1094.5Q740 1086 771.5 1075.0Q803 1064 838.5 1052.0Q874 1040 903.5 1029.5Q933 1019 953.0 1012.5Q973 1006 975 1006Z" style="fill:#ee3f86;stroke:none" transform="scale(1,-1) translate(0,-256)" /></svg>