<?xml version="1.0" encoding="utf-8" ?>
<svg baseProfile="full" height="256" version="1.1" width="256" xmlns="http://www.w3.org/2000/svg" xmlns:ev="http://www.w3.org/2001/xml-events" xmlns:xlink="http://www.w3.org/1999/xlink"><defs /><path d="M1837 288H2053L2125 216L2001 0H1813Q1830 33 1835.0 74.0Q1840 115 1840 158Q1840 193 1838.5 226.0Q1837 259 1837 288ZM1478 647V935H1622V647Q1622 618 1600.5 596.5Q1579 575 1550 575Q1520 575 1499.0 596.0Q1478 617 1478 647ZM1765 935H1909V719Q1909 689 1888.0 668.0Q1867 647 1837 647Q1807 647 1786.0 668.0Q1765 689 1765 719ZM1190 719V935H1334V719Q1334 689 1313.0 668.0Q1292 647 1262 647Q1232 647 1211.0 668.0Q1190 689 1190 719Z" style="fill:#d48c00;stroke:none" transform="scale(1,-1) translate(0,-256)" /></svg>