<?xml version="1.0" encoding="utf-8" ?>
<svg baseProfile="full" height="256" version="1.1" width="256" xmlns="http://www.w3.org/2000/svg" xmlns:ev="http://www.w3.org/2001/xml-events" xmlns:xlink="http://www.w3.org/1999/xlink"><defs /><path d="M1406 1150Q1346 1150 1293.5 1172.5Q1241 1195 1202.0 1234.0Q1163 1273 1140.5 1325.5Q1118 1378 1118 1438Q1118 1496 1141.0 1548.5Q1164 1601 1203.5 1640.0Q1243 1679 1295.0 1702.0Q1347 1725 1406 1725Q1436 1725 1457.0 1704.0Q1478 1683 1478 1653Q1478 1624 1456.5 1602.5Q1435 1581 1406 1581Q1376 1581 1350.0 1570.0Q1324 1559 1304.5 1539.5Q1285 1520 1273.5 1494.0Q1262 1468 1262 1438Q1262 1408 1273.5 1382.0Q1285 1356 1304.5 1336.5Q1324 1317 1350.0 1305.5Q1376 1294 1406 1294H1554V1150ZM1909 431 2053 288H1190V431ZM1765 -143 1813 0 1823 4H1993L2001 0L1837 -287H1622Q1622 -257 1633.0 -231.0Q1644 -205 1663.5 -185.5Q1683 -166 1709.0 -154.5Q1735 -143 1765 -143ZM903 -143V0H1083L975 -287H759Q759 -257 770.5 -231.0Q782 -205 801.5 -185.5Q821 -166 847.0 -154.5Q873 -143 903 -143ZM2197 0H2364L2268 -287H2053Q2053 -257 2064.5 -231.0Q2076 -205 2095.5 -185.5Q2115 -166 2141.0 -154.5Q2167 -143 2197 -143ZM543 935Q565 935 584.5 926.5Q604 918 619.0 903.0Q634 888 642.5 868.5Q651 849 651 827Q651 804 642.5 784.5Q634 765 619.5 750.5Q605 736 585.0 727.5Q565 719 543 719H508Q485 719 465.5 727.5Q446 736 431.5 750.5Q417 765 408.5 784.5Q400 804 400 827V935Z" style="fill:#ffffff;stroke:none" transform="scale(1,-1) translate(0,-256)" /></svg>