<?xml version="1.0" encoding="utf-8" ?>
<svg baseProfile="full" height="256" version="1.1" width="256" xmlns="http://www.w3.org/2000/svg" xmlns:ev="http://www.w3.org/2001/xml-events" xmlns:xlink="http://www.w3.org/1999/xlink"><defs /><path d="M2340 789Q2375 742 2393.5 687.5Q2412 633 2412 575V144Q2412 142 2405.5 122.0Q2399 102 2390.5 78.0Q2382 54 2374.0 31.0Q2366 8 2364 0L2357 -4H2203L2197 0V144Q2125 213 2054.0 283.0Q1983 353 1912 425Q1909 426 1906.5 426.5Q1904 427 1901 427H1194V295Q1181 273 1172.5 247.5Q1164 222 1155 199Q1136 149 1118.0 100.0Q1100 51 1083 0Q1068 -5 1048.0 -5.5Q1028 -6 1012 -6Q986 -6 961.5 -5.0Q937 -4 911 -4L903 0V360L759 719H543L400 935L615 1150V1330Q615 1345 625.5 1355.5Q636 1366 651 1366Q660 1366 666.5 1362.0Q673 1358 679 1352L1118 935H1194L1196 931H1323L1328 935H1479L1483 931H1612L1616 935H1767L1771 931H1898L1905 935Q1931 935 1956.0 935.5Q1981 936 2007 936Q2056 936 2104.0 930.0Q2152 924 2197 904V935Q2197 980 2180.0 1019.0Q2163 1058 2133.5 1087.0Q2104 1116 2065.0 1133.0Q2026 1150 1981 1150H1550V1154L1546 1159V1287L1550 1291H1981Q1981 1294 1983 1294Q2056 1294 2121.0 1265.5Q2186 1237 2235.0 1188.0Q2284 1139 2312.0 1073.5Q2340 1008 2340 935Z" style="fill:#ffb900;stroke:none" transform="scale(1,-1) translate(0,-256)" /></svg>