<?xml version="1.0" encoding="utf-8" ?>
<svg baseProfile="full" height="256" version="1.1" width="256" xmlns="http://www.w3.org/2000/svg" xmlns:ev="http://www.w3.org/2001/xml-events" xmlns:xlink="http://www.w3.org/1999/xlink"><defs /><path d="M2484 832Q2519 774 2537.5 708.5Q2556 643 2556 575V121Q2556 116 2544.0 78.0Q2532 40 2514.0 -15.5Q2496 -71 2474.0 -136.5Q2452 -202 2432.0 -262.0Q2412 -322 2396.5 -368.0Q2381 -414 2376 -431H1478V-287Q1478 -244 1490.5 -203.5Q1503 -163 1526.0 -128.5Q1549 -94 1581.5 -66.5Q1614 -39 1654 -22Q1659 -7 1666.0 10.0Q1673 27 1679.0 44.0Q1685 61 1689.0 78.0Q1693 95 1693 111V144H1290L1078 -431H615V-287Q615 -209 653.5 -143.0Q692 -77 759 -38V332L662 575H508Q456 575 410.0 595.0Q364 615 330.0 649.0Q296 683 276.0 729.0Q256 775 256 827V994L472 1210V1330Q472 1367 486.0 1400.0Q500 1433 524.5 1457.5Q549 1482 581.5 1496.0Q614 1510 651 1510Q693 1510 723.5 1495.0Q754 1480 783 1452L1044 1204Q1009 1256 992.0 1315.5Q975 1375 975 1438Q975 1527 1009.0 1605.5Q1043 1684 1101.5 1742.5Q1160 1801 1238.5 1835.0Q1317 1869 1406 1869Q1451 1869 1490.0 1852.0Q1529 1835 1558.5 1805.5Q1588 1776 1605.0 1737.0Q1622 1698 1622 1653Q1622 1610 1606.0 1571.5Q1590 1533 1562.0 1503.5Q1534 1474 1496.0 1456.5Q1458 1439 1415 1438H1981Q2085 1438 2176.5 1398.5Q2268 1359 2336.5 1290.5Q2405 1222 2444.5 1130.5Q2484 1039 2484 935Z" style="fill:#000000;stroke:none" transform="scale(1,-1) translate(0,-256)" /></svg>