<?xml version="1.0" encoding="utf-8" ?>
<svg baseProfile="full" height="256" version="1.1" width="256" xmlns="http://www.w3.org/2000/svg" xmlns:ev="http://www.w3.org/2001/xml-events" xmlns:xlink="http://www.w3.org/1999/xlink"><defs /><path d="M1478 1547Q1478 1580 1489.0 1609.5Q1500 1639 1519.5 1663.0Q1539 1687 1566.5 1703.0Q1594 1719 1626 1725Q1623 1708 1623 1692Q1623 1654 1637.0 1621.5Q1651 1589 1676.0 1564.0Q1701 1539 1733.5 1525.0Q1766 1511 1804 1511Q1820 1511 1837 1514Q1831 1482 1815.0 1454.5Q1799 1427 1775.0 1407.5Q1751 1388 1721.5 1377.0Q1692 1366 1659 1366Q1621 1366 1588.5 1380.0Q1556 1394 1531.0 1419.0Q1506 1444 1492.0 1476.5Q1478 1509 1478 1547Z" style="fill:#fce100;stroke:none" transform="scale(1,-1) translate(0,-256)" /></svg>