<?xml version="1.0" encoding="utf-8" ?>
<svg baseProfile="full" height="256" version="1.1" width="256" xmlns="http://www.w3.org/2000/svg" xmlns:ev="http://www.w3.org/2001/xml-events" xmlns:xlink="http://www.w3.org/1999/xlink"><defs /><path d="M687 1294H1550V-169L1262 -287H975V575L831 719V791H759L687 863ZM759 0H903V-287H759ZM1909 719V863H2053V719ZM759 288H903V144H759ZM472 431V575H615V431ZM472 144V288H615V144ZM2197 719V863H2340V719ZM2197 431V575H2340V431ZM2197 1006V1150H2340V1006ZM2197 1438H2340V1294H2197ZM2197 144V288H2340V144Z" style="fill:#0078d7;stroke:none" transform="scale(1,-1) translate(0,-256)" /></svg>