<?xml version="1.0" encoding="utf-8" ?>
<svg baseProfile="full" height="256" version="1.1" width="256" xmlns="http://www.w3.org/2000/svg" xmlns:ev="http://www.w3.org/2001/xml-events" xmlns:xlink="http://www.w3.org/1999/xlink"><defs /><path d="M543 922V1438H1354Q1345 1464 1339.5 1491.5Q1334 1519 1334 1547Q1334 1597 1348.0 1641.5Q1362 1686 1387.5 1724.5Q1413 1763 1449.0 1793.5Q1485 1824 1529 1845Q1545 1853 1564.0 1859.0Q1583 1865 1600 1867Q1618 1869 1635.5 1869.0Q1653 1869 1671 1869H1765V1699Q1765 1682 1775.0 1668.5Q1785 1655 1804 1655H1981V1725H2556V-431H256V635Z" style="fill:#000000;stroke:none" transform="scale(1,-1) translate(0,-256)" /></svg>