<?xml version="1.0" encoding="utf-8" ?>
<svg baseProfile="full" height="256" version="1.1" width="256" xmlns="http://www.w3.org/2000/svg" xmlns:ev="http://www.w3.org/2001/xml-events" xmlns:xlink="http://www.w3.org/1999/xlink"><defs /><path d="M2226 -144Q2196 -144 2175 -123L1550 503Q1547 506 1536.5 527.5Q1526 549 1514.0 575.0Q1502 601 1491.5 622.5Q1481 644 1478 647L816 1309Q810 1315 800.5 1323.0Q791 1331 782.0 1340.5Q773 1350 766.0 1360.0Q759 1370 759 1380Q759 1395 770 1406L862 1499Q872 1509 887 1509Q903 1509 913 1499L1621 791Q1624 788 1645.5 777.5Q1667 767 1693.0 755.0Q1719 743 1740.5 732.5Q1762 722 1765 719L2391 93Q2412 72 2412 42Q2412 28 2406.5 14.5Q2401 1 2391 -9L2277 -123Q2256 -144 2226 -144Z" style="fill:#eba300;stroke:none" transform="scale(1,-1) translate(0,-256)" /></svg>