<?xml version="1.0" encoding="utf-8" ?>
<svg baseProfile="full" height="256" version="1.1" width="256" xmlns="http://www.w3.org/2000/svg" xmlns:ev="http://www.w3.org/2001/xml-events" xmlns:xlink="http://www.w3.org/1999/xlink"><defs /><path d="M2226 -287Q2137 -287 2074 -224L1431 418Q1427 422 1417.5 442.5Q1408 463 1397.0 487.5Q1386 512 1376.0 533.5Q1366 555 1360 562Q1340 586 1323.5 600.0Q1307 614 1285 636L1136 785Q1124 740 1120.5 695.5Q1117 651 1117 605Q1117 579 1117.5 554.0Q1118 529 1118 503H975Q826 503 695.5 559.5Q565 616 467.0 714.0Q369 812 312.5 942.5Q256 1073 256 1222V1366Q282 1366 305.5 1365.5Q329 1365 352 1365Q386 1365 418.5 1366.5Q451 1368 483.5 1372.5Q516 1377 549.5 1386.5Q583 1396 618 1411Q623 1439 635.5 1463.5Q648 1488 668 1508Q689 1529 712.5 1555.0Q736 1581 762.5 1603.0Q789 1625 818.5 1640.0Q848 1655 882 1655Q895 1655 910 1652Q911 1652 911.5 1651.5Q912 1651 913 1651Q948 1686 986.5 1705.5Q1025 1725 1076 1725Q1120 1725 1159.0 1709.0Q1198 1693 1229 1662L1415 1476Q1445 1446 1461.5 1406.5Q1478 1367 1478 1324Q1478 1286 1465.5 1251.0Q1453 1216 1429 1187L1614 1002Q1641 975 1659.5 954.5Q1678 934 1707 909Q1714 903 1735.5 893.0Q1757 883 1781.0 872.0Q1805 861 1825.0 851.0Q1845 841 1850 837L2493 195Q2523 165 2539.5 125.0Q2556 85 2556 42Q2556 0 2539.5 -40.0Q2523 -80 2493 -110L2379 -224Q2348 -255 2309.0 -271.0Q2270 -287 2226 -287Z" style="fill:#000000;stroke:none" transform="scale(1,-1) translate(0,-256)" /></svg>