<?xml version="1.0" encoding="utf-8" ?>
<svg baseProfile="full" height="256" version="1.1" width="256" xmlns="http://www.w3.org/2000/svg" xmlns:ev="http://www.w3.org/2001/xml-events" xmlns:xlink="http://www.w3.org/1999/xlink"><defs /><path d="M1334 1324Q1334 1294 1313 1273L1271 1232Q1220 1181 1175.5 1135.0Q1131 1089 1095.0 1038.0Q1059 987 1032.5 927.5Q1006 868 990 791Q957 786 923.0 784.0Q889 782 855 782Q768 782 707.0 796.0Q646 810 607.0 845.0Q568 880 550.0 938.5Q532 997 532 1087Q532 1125 534.5 1162.5Q537 1200 544 1237Q620 1253 679.5 1280.0Q739 1307 789.5 1342.5Q840 1378 886.0 1422.0Q932 1466 983 1517L1026 1560Q1047 1581 1076 1581Q1106 1581 1127 1560L1313 1375Q1323 1365 1328.5 1351.5Q1334 1338 1334 1324Z" style="fill:#f03a17;stroke:none" transform="scale(1,-1) translate(0,-256)" /></svg>