<?xml version="1.0" encoding="utf-8" ?>
<svg baseProfile="full" height="256" version="1.1" width="256" xmlns="http://www.w3.org/2000/svg" xmlns:ev="http://www.w3.org/2001/xml-events" xmlns:xlink="http://www.w3.org/1999/xlink"><defs /><path d="M2556 288V-431H256V288H419L256 613V647H700L771 719H915L1131 935H1296Q1328 968 1361.0 987.5Q1394 1007 1442 1007Q1484 1007 1522.5 988.0Q1561 969 1586 935H1909V791H2087Q2205 731 2321.5 673.5Q2438 616 2556 556V523L2346 417Q2391 400 2423.5 366.5Q2456 333 2472 288Z" style="fill:#000000;stroke:none" transform="scale(1,-1) translate(0,-256)" /></svg>