<?xml version="1.0" encoding="utf-8" ?>
<svg baseProfile="full" height="256" version="1.1" width="256" xmlns="http://www.w3.org/2000/svg" xmlns:ev="http://www.w3.org/2001/xml-events" xmlns:xlink="http://www.w3.org/1999/xlink"><defs /><path d="M1406 719V575H975L1118 719ZM1622 719V575H1478V719ZM1406 504Q1435 504 1456.5 482.5Q1478 461 1478 432Q1478 402 1457.0 381.0Q1436 360 1406 360Q1376 360 1355.0 381.0Q1334 402 1334 432Q1334 461 1355.5 482.5Q1377 504 1406 504ZM1693 504Q1722 504 1743.5 482.5Q1765 461 1765 432Q1765 402 1744.0 381.0Q1723 360 1693 360Q1664 360 1643.0 381.5Q1622 403 1622 432Q1622 461 1643.0 482.5Q1664 504 1693 504Z" style="fill:#31d2f7;stroke:none" transform="scale(1,-1) translate(0,-256)" /></svg>