<?xml version="1.0" encoding="utf-8" ?>
<svg baseProfile="full" height="256" version="1.1" width="256" xmlns="http://www.w3.org/2000/svg" xmlns:ev="http://www.w3.org/2001/xml-events" xmlns:xlink="http://www.w3.org/1999/xlink"><defs /><path d="M1006 1572Q1072 1572 1130.5 1546.5Q1189 1521 1233.0 1477.5Q1277 1434 1302.5 1375.5Q1328 1317 1328 1251Q1328 1184 1302.5 1125.5Q1277 1067 1233.5 1023.5Q1190 980 1131.5 954.5Q1073 929 1006 929H899L863 967L828 929H720Q654 929 595.5 954.5Q537 980 493.5 1024.0Q450 1068 424.5 1126.5Q399 1185 399 1251Q399 1317 424.5 1375.5Q450 1434 493.5 1477.5Q537 1521 595.5 1546.5Q654 1572 720 1572H828L863 1523L899 1572Z" style="fill:#31d2f7;stroke:none" transform="scale(1,-1) translate(0,-256)" /></svg>