<?xml version="1.0" encoding="utf-8" ?>
<svg baseProfile="full" height="256" version="1.1" width="256" xmlns="http://www.w3.org/2000/svg" xmlns:ev="http://www.w3.org/2001/xml-events" xmlns:xlink="http://www.w3.org/1999/xlink"><defs /><path d="M1220 1215Q1206 1215 1195.5 1226.0Q1185 1237 1185 1251Q1185 1288 1171.0 1320.5Q1157 1353 1132.5 1377.0Q1108 1401 1075.5 1415.0Q1043 1429 1006 1429Q991 1429 980.5 1439.5Q970 1450 970 1465Q970 1480 980.5 1490.5Q991 1501 1006 1501Q1057 1501 1102.5 1481.0Q1148 1461 1182.0 1427.0Q1216 1393 1236.0 1347.5Q1256 1302 1256 1251Q1256 1236 1245.5 1225.5Q1235 1215 1220 1215Z" style="fill:#69eaff;stroke:none" transform="scale(1,-1) translate(0,-256)" /></svg>