<?xml version="1.0" encoding="utf-8" ?>
<svg baseProfile="full" height="256" version="1.1" width="256" xmlns="http://www.w3.org/2000/svg" xmlns:ev="http://www.w3.org/2001/xml-events" xmlns:xlink="http://www.w3.org/1999/xlink"><defs /><path d="M970 429Q970 400 949.0 378.5Q928 357 899 357Q869 357 848.5 378.0Q828 399 828 429Q828 458 849.0 479.0Q870 500 899 500Q928 500 949.0 479.0Q970 458 970 429ZM1113 286Q1142 286 1163.5 265.0Q1185 244 1185 215Q1185 185 1164.0 164.0Q1143 143 1113 143Q1084 143 1063.0 164.5Q1042 186 1042 215Q1042 244 1063.0 265.0Q1084 286 1113 286ZM1328 72Q1357 72 1378.0 50.5Q1399 29 1399 0Q1399 -29 1378.0 -50.0Q1357 -71 1328 -71Q1299 -71 1277.5 -50.0Q1256 -29 1256 0Q1256 30 1277.0 51.0Q1298 72 1328 72Z" style="fill:#f03a17;stroke:none" transform="scale(1,-1) translate(0,-256)" /></svg>