<?xml version="1.0" encoding="utf-8" ?>
<svg baseProfile="full" height="256" version="1.1" width="256" xmlns="http://www.w3.org/2000/svg" xmlns:ev="http://www.w3.org/2001/xml-events" xmlns:xlink="http://www.w3.org/1999/xlink"><defs /><path d="M1613 -286H1113Q1113 -237 1101.0 -194.5Q1089 -152 1068.0 -114.5Q1047 -77 1018.0 -43.5Q989 -10 954 22Q875 95 812.0 171.0Q749 247 704.5 331.0Q660 415 636.5 509.5Q613 604 613 715H1113Q1113 666 1125.0 623.5Q1137 581 1158.5 543.5Q1180 506 1209.0 472.5Q1238 439 1273 407Q1352 334 1415.0 258.0Q1478 182 1522.0 98.0Q1566 14 1589.5 -80.5Q1613 -175 1613 -286Z" style="fill:#f2f2f2;stroke:none" transform="scale(1,-1) translate(0,-256)" /></svg>