<?xml version="1.0" encoding="utf-8" ?>
<svg baseProfile="full" height="256" version="1.1" width="256" xmlns="http://www.w3.org/2000/svg" xmlns:ev="http://www.w3.org/2001/xml-events" xmlns:xlink="http://www.w3.org/1999/xlink"><defs /><path d="M970 -428V-286Q970 -255 961.5 -228.0Q953 -201 938.5 -176.5Q924 -152 904.5 -130.0Q885 -108 863 -88Q831 -59 801.0 -32.0Q771 -5 742 27Q610 171 540.0 345.0Q470 519 470 715V858Q420 890 380.5 933.0Q341 976 313.5 1027.0Q286 1078 271.0 1134.5Q256 1191 256 1251Q256 1342 289.5 1423.5Q323 1505 381.0 1567.5Q439 1630 518.0 1669.0Q597 1708 688 1714Q694 1745 710.5 1771.5Q727 1798 750.0 1817.0Q773 1836 802.0 1847.0Q831 1858 863 1858Q894 1858 923.5 1847.0Q953 1836 976.5 1817.0Q1000 1798 1016.5 1771.5Q1033 1745 1039 1714Q1130 1708 1209.0 1669.0Q1288 1630 1346.0 1567.5Q1404 1505 1437.5 1423.5Q1471 1342 1471 1251Q1471 1191 1456.0 1134.0Q1441 1077 1413.0 1026.5Q1385 976 1344.5 933.0Q1304 890 1253 858V715Q1257 652 1288.0 604.5Q1319 557 1364 517Q1396 489 1426.0 461.0Q1456 433 1485 402Q1617 258 1686.5 84.0Q1756 -90 1756 -286V-428Z" style="fill:#000000;stroke:none" transform="scale(1,-1) translate(0,-256)" /></svg>