<?xml version="1.0" encoding="utf-8" ?>
<svg baseProfile="full" height="256" version="1.1" width="256" xmlns="http://www.w3.org/2000/svg" xmlns:ev="http://www.w3.org/2001/xml-events" xmlns:xlink="http://www.w3.org/1999/xlink"><defs /><path d="M1622 935Q1622 860 1593.5 794.5Q1565 729 1516.5 680.5Q1468 632 1402.5 603.5Q1337 575 1262 575Q1187 575 1122.0 603.5Q1057 632 1008.0 681.0Q959 730 931.0 795.5Q903 861 903 935Q903 1009 931.0 1074.5Q959 1140 1008.0 1188.5Q1057 1237 1122.5 1265.5Q1188 1294 1262 1294Q1336 1294 1401.5 1266.0Q1467 1238 1516.0 1189.0Q1565 1140 1593.5 1075.0Q1622 1010 1622 935Z" style="fill:#ca5010;stroke:none" transform="scale(1,-1) translate(0,-256)" /></svg>