<?xml version="1.0" encoding="utf-8" ?>
<svg baseProfile="full" height="256" version="1.1" width="256" xmlns="http://www.w3.org/2000/svg" xmlns:ev="http://www.w3.org/2001/xml-events" xmlns:xlink="http://www.w3.org/1999/xlink"><defs /><path d="M1262 -431Q1228 -431 1196.5 -420.5Q1165 -410 1138.0 -391.0Q1111 -372 1091.0 -345.5Q1071 -319 1059 -287H831Q712 -287 607.5 -241.5Q503 -196 425.0 -118.0Q347 -40 301.5 64.5Q256 169 256 288V431H622Q583 443 543.5 453.0Q504 463 464 474Q483 543 500.5 611.0Q518 679 550 744Q490 783 440.5 833.5Q391 884 340 935Q391 985 440.5 1035.5Q490 1086 550 1125Q518 1190 500.5 1258.5Q483 1327 464 1396Q533 1414 601.0 1432.5Q669 1451 741 1456Q746 1528 764.5 1596.0Q783 1664 801 1733Q870 1715 938.5 1697.0Q1007 1679 1071 1647Q1111 1707 1161.0 1756.5Q1211 1806 1262 1857Q1313 1806 1363.0 1756.5Q1413 1707 1453 1647Q1518 1679 1586.0 1697.0Q1654 1715 1723 1733Q1741 1664 1760.0 1596.0Q1779 1528 1784 1456Q1856 1451 1924.0 1432.5Q1992 1414 2061 1396Q2043 1327 2024.5 1258.5Q2006 1190 1974 1125Q2034 1086 2083.5 1036.0Q2133 986 2184 935Q2134 884 2084.0 833.5Q2034 783 1974 744Q2006 679 2024.0 611.0Q2042 543 2061 474Q2021 463 1981.5 452.5Q1942 442 1902 431H2268V288Q2268 169 2222.5 64.5Q2177 -40 2099.0 -118.0Q2021 -196 1916.5 -241.5Q1812 -287 1693 -287H1465Q1442 -352 1386.5 -391.5Q1331 -431 1262 -431Z" style="fill:#000000;stroke:none" transform="scale(1,-1) translate(0,-256)" /></svg>