<?xml version="1.0" encoding="utf-8" ?>
<svg baseProfile="full" height="256" version="1.1" width="256" xmlns="http://www.w3.org/2000/svg" xmlns:ev="http://www.w3.org/2001/xml-events" xmlns:xlink="http://www.w3.org/1999/xlink"><defs /><path d="M2125 288Q2125 198 2091.0 119.5Q2057 41 1998.5 -17.5Q1940 -76 1861.5 -110.0Q1783 -144 1693 -144H1334V-182Q1334 -201 1332.0 -219.5Q1330 -238 1322.5 -253.0Q1315 -268 1301.0 -277.5Q1287 -287 1262 -287Q1237 -287 1223.0 -277.5Q1209 -268 1201.5 -253.0Q1194 -238 1192.0 -219.5Q1190 -201 1190 -182V-144H831Q741 -144 662.5 -110.0Q584 -76 525.5 -17.5Q467 41 433.5 120.0Q400 199 400 288H615Q663 288 709.0 275.0Q755 262 796 237L1190 0V575H1334V0L1728 237Q1769 261 1815.0 274.5Q1861 288 1909 288Z" style="fill:#13a10e;stroke:none" transform="scale(1,-1) translate(0,-256)" /></svg>