<?xml version="1.0" encoding="utf-8" ?>
<svg baseProfile="full" height="256" version="1.1" width="256" xmlns="http://www.w3.org/2000/svg" xmlns:ev="http://www.w3.org/2001/xml-events" xmlns:xlink="http://www.w3.org/1999/xlink"><defs /><path d="M1981 935Q1934 888 1878.0 853.0Q1822 818 1757 802Q1805 756 1836.5 697.0Q1868 638 1885 575Q1850 566 1815.5 561.0Q1781 556 1745 556Q1714 556 1683.5 560.0Q1653 564 1624 573Q1633 544 1637.0 513.0Q1641 482 1641 451Q1641 416 1636.0 381.0Q1631 346 1622 312Q1558 329 1499.5 360.5Q1441 392 1395 440Q1378 375 1343.5 319.0Q1309 263 1262 216Q1215 263 1180.5 319.0Q1146 375 1130 440Q1084 392 1025.5 360.5Q967 329 903 312Q894 347 889.0 382.0Q884 417 884 453Q884 483 888.0 513.5Q892 544 900 573Q871 564 840.5 560.0Q810 556 779 556Q744 556 709.0 561.0Q674 566 640 575Q657 639 688.5 697.5Q720 756 768 802Q703 818 646.5 853.0Q590 888 543 935Q590 982 646.5 1016.5Q703 1051 768 1067Q720 1113 688.5 1171.5Q657 1230 640 1294Q675 1303 710.0 1308.0Q745 1313 780 1313Q843 1313 900 1297Q884 1354 884 1416Q884 1452 889.0 1487.0Q894 1522 903 1557Q967 1540 1025.5 1508.5Q1084 1477 1130 1429Q1146 1494 1180.5 1550.0Q1215 1606 1262 1653Q1309 1606 1343.5 1550.0Q1378 1494 1395 1429Q1441 1477 1499.5 1508.5Q1558 1540 1622 1557Q1631 1523 1636.0 1488.0Q1641 1453 1641 1418Q1641 1387 1637.0 1356.5Q1633 1326 1624 1297Q1681 1313 1744 1313Q1780 1313 1815.0 1308.0Q1850 1303 1885 1294Q1868 1231 1836.5 1172.0Q1805 1113 1757 1067Q1822 1051 1878.0 1016.5Q1934 982 1981 935Z" style="fill:#ffc83d;stroke:none" transform="scale(1,-1) translate(0,-256)" /></svg>