<?xml version="1.0" encoding="utf-8" ?>
<svg baseProfile="full" height="256" version="1.1" width="256" xmlns="http://www.w3.org/2000/svg" xmlns:ev="http://www.w3.org/2001/xml-events" xmlns:xlink="http://www.w3.org/1999/xlink"><defs /><path d="M1550 935Q1550 875 1527.5 822.5Q1505 770 1466.0 731.0Q1427 692 1374.5 669.5Q1322 647 1262 647Q1202 647 1150.0 669.5Q1098 692 1059.0 731.0Q1020 770 997.5 822.5Q975 875 975 935Q975 994 997.5 1046.5Q1020 1099 1059.0 1138.0Q1098 1177 1150.5 1199.5Q1203 1222 1262 1222Q1321 1222 1373.5 1199.5Q1426 1177 1465.0 1138.0Q1504 1099 1527.0 1046.5Q1550 994 1550 935Z" style="fill:#613d30;stroke:none" transform="scale(1,-1) translate(0,-256)" /></svg>