<?xml version="1.0" encoding="utf-8" ?>
<svg baseProfile="full" height="256" version="1.1" width="256" xmlns="http://www.w3.org/2000/svg" xmlns:ev="http://www.w3.org/2001/xml-events" xmlns:xlink="http://www.w3.org/1999/xlink"><defs /><path d="M723 755Q738 755 748.5 744.5Q759 734 759 719Q759 704 748.5 693.5Q738 683 723 683Q708 683 697.5 693.5Q687 704 687 719Q687 734 697.5 744.5Q708 755 723 755ZM723 611Q738 611 748.5 600.5Q759 590 759 575Q759 560 748.5 549.5Q738 539 723 539Q708 539 697.5 549.5Q687 560 687 575Q687 590 697.5 600.5Q708 611 723 611ZM867 611Q882 611 892.5 600.5Q903 590 903 575Q903 560 892.5 549.5Q882 539 867 539Q852 539 841.5 549.5Q831 560 831 575Q831 590 841.5 600.5Q852 611 867 611Z" style="fill:#eba300;stroke:none" transform="scale(1,-1) translate(0,-256)" /></svg>