<?xml version="1.0" encoding="utf-8" ?>
<svg baseProfile="full" height="256" version="1.1" width="256" xmlns="http://www.w3.org/2000/svg" xmlns:ev="http://www.w3.org/2001/xml-events" xmlns:xlink="http://www.w3.org/1999/xlink"><defs /><path d="M2556 1546Q2556 1478 2528.0 1414.5Q2500 1351 2449 1306Q2405 1267 2360.5 1229.5Q2316 1192 2271 1154Q2329 1118 2380.5 1072.0Q2432 1026 2471.0 971.5Q2510 917 2533.0 854.0Q2556 791 2556 719Q2556 560 2515.0 413.5Q2474 267 2399.0 139.0Q2324 11 2219.0 -94.0Q2114 -199 1986.0 -274.0Q1858 -349 1711.0 -390.0Q1564 -431 1406 -431Q1247 -431 1100.5 -390.0Q954 -349 826.0 -274.0Q698 -199 593.0 -94.0Q488 11 413.0 139.0Q338 267 297.0 414.0Q256 561 256 719Q256 804 286.5 877.0Q317 950 369.0 1010.5Q421 1071 489.5 1119.5Q558 1168 633.0 1205.5Q708 1243 785.5 1269.5Q863 1296 934 1313Q1050 1341 1168.5 1353.5Q1287 1366 1406 1366Q1466 1366 1525.0 1362.5Q1584 1359 1644 1353L1988 1756Q2033 1810 2098.0 1839.5Q2163 1869 2233 1869H2304Q2356 1869 2402.0 1849.0Q2448 1829 2482.0 1795.0Q2516 1761 2536.0 1715.0Q2556 1669 2556 1617Z" style="fill:#000000;stroke:none" transform="scale(1,-1) translate(0,-256)" /></svg>