<?xml version="1.0" encoding="utf-8" ?>
<svg baseProfile="full" height="256" version="1.1" width="256" xmlns="http://www.w3.org/2000/svg" xmlns:ev="http://www.w3.org/2001/xml-events" xmlns:xlink="http://www.w3.org/1999/xlink"><defs /><path d="M1693 1006Q1771 1103 1848.0 1197.5Q1925 1292 2003 1388Q2012 1400 2032.0 1425.0Q2052 1450 2074.0 1477.5Q2096 1505 2116.0 1528.5Q2136 1552 2146 1560Q2158 1570 2169.0 1575.5Q2180 1581 2196 1581Q2226 1581 2247.0 1560.0Q2268 1539 2268 1509Q2268 1493 2262.5 1482.0Q2257 1471 2247 1459Q2239 1449 2215.5 1429.0Q2192 1409 2164.5 1387.0Q2137 1365 2112.0 1345.0Q2087 1325 2075 1316Q1979 1238 1884.5 1161.0Q1790 1084 1693 1006Z" style="fill:#f2f2f2;stroke:none" transform="scale(1,-1) translate(0,-256)" /></svg>