<?xml version="1.0" encoding="utf-8" ?>
<svg baseProfile="full" height="256" version="1.1" width="256" xmlns="http://www.w3.org/2000/svg" xmlns:ev="http://www.w3.org/2001/xml-events" xmlns:xlink="http://www.w3.org/1999/xlink"><defs /><path d="M1406 288Q1323 288 1241.0 295.0Q1159 302 1077 316Q1030 324 973.0 337.5Q916 351 856.5 371.0Q797 391 739.0 417.5Q681 444 631.0 478.5Q581 513 543.0 554.5Q505 596 486 647Q505 697 543.0 739.0Q581 781 631.0 815.5Q681 850 739.0 876.5Q797 903 856.5 923.0Q916 943 973.0 956.5Q1030 970 1077 978Q1159 992 1241.0 999.0Q1323 1006 1406 1006Q1489 1006 1571.0 999.0Q1653 992 1735 978Q1782 970 1839.0 956.5Q1896 943 1955.5 923.0Q2015 903 2073.0 876.5Q2131 850 2181.0 815.5Q2231 781 2269.0 739.0Q2307 697 2326 647Q2307 596 2269.0 554.5Q2231 513 2181.0 478.5Q2131 444 2073.0 417.5Q2015 391 1955.5 371.0Q1896 351 1839.0 337.5Q1782 324 1735 316Q1653 302 1571.0 295.0Q1489 288 1406 288Z" style="fill:#ffd679;stroke:none" transform="scale(1,-1) translate(0,-256)" /></svg>