<?xml version="1.0" encoding="utf-8" ?>
<svg baseProfile="full" height="256" version="1.1" width="256" xmlns="http://www.w3.org/2000/svg" xmlns:ev="http://www.w3.org/2001/xml-events" xmlns:xlink="http://www.w3.org/1999/xlink"><defs /><path d="M2340 719Q2340 680 2327 647H485Q472 680 472 719Q472 780 503.0 831.5Q534 883 584.0 924.5Q634 966 697.5 999.0Q761 1032 827.0 1056.0Q893 1080 955.0 1095.5Q1017 1111 1064 1120Q1149 1136 1234.5 1143.0Q1320 1150 1406 1150Q1492 1150 1577.0 1143.0Q1662 1136 1747 1120Q1794 1111 1856.0 1095.5Q1918 1080 1984.0 1056.0Q2050 1032 2114.0 999.0Q2178 966 2228.0 924.5Q2278 883 2309.0 832.0Q2340 781 2340 719Z" style="fill:#f03a17;stroke:none" transform="scale(1,-1) translate(0,-256)" /></svg>