<?xml version="1.0" encoding="utf-8" ?>
<svg baseProfile="full" height="256" version="1.1" width="256" xmlns="http://www.w3.org/2000/svg" xmlns:ev="http://www.w3.org/2001/xml-events" xmlns:xlink="http://www.w3.org/1999/xlink"><defs /><path d="M2105 742Q2051 684 1983.0 644.0Q1915 604 1837 587V503Q1837 414 1803.0 335.5Q1769 257 1710.5 198.5Q1652 140 1573.5 106.0Q1495 72 1406 72Q1317 72 1238.5 106.0Q1160 140 1101.5 198.5Q1043 257 1009.0 335.5Q975 414 975 503V846Q927 832 886.5 805.0Q846 778 812 742L707 840Q761 898 829.0 938.0Q897 978 975 995V1366H1118V1005Q1195 1000 1250.5 979.0Q1306 958 1349.0 928.5Q1392 899 1428.0 865.5Q1464 832 1502.5 802.0Q1541 772 1586.0 750.0Q1631 728 1693 721V1366H1837V736Q1885 750 1926.0 777.0Q1967 804 2000 840ZM1406 216Q1465 216 1517.5 238.5Q1570 261 1609.0 300.0Q1648 339 1670.5 391.5Q1693 444 1693 503V576Q1616 582 1560.5 603.5Q1505 625 1461.5 654.5Q1418 684 1382.0 717.5Q1346 751 1307.5 780.5Q1269 810 1224.0 832.0Q1179 854 1118 861V503Q1118 444 1141.0 392.0Q1164 340 1203.5 301.0Q1243 262 1295.0 239.0Q1347 216 1406 216Z" style="fill:#ffffff;stroke:none" transform="scale(1,-1) translate(0,-256)" /></svg>