<?xml version="1.0" encoding="utf-8" ?>
<svg baseProfile="full" height="256" version="1.1" width="256" xmlns="http://www.w3.org/2000/svg" xmlns:ev="http://www.w3.org/2001/xml-events" xmlns:xlink="http://www.w3.org/1999/xlink"><defs /><path d="M1118 719Q1207 719 1285.5 685.0Q1364 651 1423.0 592.5Q1482 534 1516.0 455.5Q1550 377 1550 288Q1550 199 1516.0 120.0Q1482 41 1423.5 -17.5Q1365 -76 1286.0 -110.0Q1207 -144 1118 -144Q1029 -144 950.5 -110.0Q872 -76 813.5 -17.0Q755 42 721.0 120.5Q687 199 687 288Q687 377 721.0 455.5Q755 534 813.5 592.5Q872 651 950.5 685.0Q1029 719 1118 719ZM1118 0Q1178 0 1230.5 22.5Q1283 45 1322.0 84.0Q1361 123 1383.5 175.5Q1406 228 1406 288Q1406 346 1383.0 398.5Q1360 451 1320.5 490.0Q1281 529 1228.5 552.0Q1176 575 1118 575Q1059 575 1006.5 552.5Q954 530 915.0 491.0Q876 452 853.5 399.5Q831 347 831 288Q831 229 854.0 177.0Q877 125 916.0 85.5Q955 46 1007.0 23.0Q1059 0 1118 0ZM1047 791Q1016 791 995.5 811.5Q975 832 975 863Q975 881 982 895L1126 1182Q1135 1201 1152.0 1211.5Q1169 1222 1190 1222H1551Q1581 1222 1606.5 1210.5Q1632 1199 1651.5 1179.5Q1671 1160 1682.0 1133.5Q1693 1107 1693 1078Q1693 1044 1678 1014L1486 630Q1435 684 1372.5 721.5Q1310 759 1238 776L1389 1078H1235L1111 831Q1102 813 1084.5 802.0Q1067 791 1047 791ZM1837 503Q1866 503 1887.5 482.0Q1909 461 1909 432Q1909 424 1899.5 391.0Q1890 358 1875.0 312.5Q1860 267 1842.0 213.5Q1824 160 1808.0 112.5Q1792 65 1779.0 28.0Q1766 -9 1762 -23Q1754 -45 1735.0 -58.5Q1716 -72 1693 -72Q1664 -72 1643.0 -50.0Q1622 -28 1622 1Q1622 11 1629.0 37.0Q1636 63 1647.0 98.0Q1658 133 1672.0 172.5Q1686 212 1698.5 248.5Q1711 285 1721.5 314.5Q1732 344 1737 360H1616Q1606 434 1572 503ZM1693 1222Q1663 1222 1637.0 1233.5Q1611 1245 1591.5 1264.5Q1572 1284 1561.0 1310.0Q1550 1336 1550 1366Q1550 1396 1561.0 1422.0Q1572 1448 1591.5 1467.5Q1611 1487 1637.0 1498.5Q1663 1510 1693 1510Q1723 1510 1749.0 1498.5Q1775 1487 1794.5 1467.5Q1814 1448 1825.5 1422.0Q1837 1396 1837 1366Q1837 1336 1825.5 1309.5Q1814 1283 1794.5 1263.5Q1775 1244 1749.0 1233.0Q1723 1222 1693 1222Z" style="fill:#ffffff;stroke:none" transform="scale(1,-1) translate(0,-256)" /></svg>