<?xml version="1.0" encoding="utf-8" ?>
<svg baseProfile="full" height="256" version="1.1" width="256" xmlns="http://www.w3.org/2000/svg" xmlns:ev="http://www.w3.org/2001/xml-events" xmlns:xlink="http://www.w3.org/1999/xlink"><defs /><path d="M2124 1366Q2184 1366 2236.5 1343.5Q2289 1321 2328.0 1282.0Q2367 1243 2389.5 1190.5Q2412 1138 2412 1078V252Q2412 158 2387.5 70.5Q2363 -17 2318.5 -93.0Q2274 -169 2212.0 -231.0Q2150 -293 2074.0 -337.5Q1998 -382 1910.5 -406.5Q1823 -431 1729 -431Q1667 -431 1606.5 -420.0Q1546 -409 1488.0 -388.0Q1430 -367 1377.0 -335.0Q1324 -303 1279 -261Q1211 -198 1146.5 -134.5Q1082 -71 1016 -7Q1047 -54 1047 -108Q1047 -145 1033.0 -177.5Q1019 -210 994.5 -234.5Q970 -259 937.0 -273.0Q904 -287 867 -287Q741 -287 629.5 -239.0Q518 -191 435.0 -108.0Q352 -25 304.0 86.5Q256 198 256 324Q256 361 270.0 393.5Q284 426 308.5 450.5Q333 475 366.0 489.0Q399 503 436 503Q469 503 499 491Q457 528 433.5 577.5Q410 627 410 684Q410 726 422.5 765.0Q435 804 461 836Q432 878 416.0 921.5Q400 965 400 1016Q400 1064 416.0 1108.5Q432 1153 460.0 1189.5Q488 1226 527.0 1253.0Q566 1280 612 1292Q624 1339 651.0 1378.5Q678 1418 715.0 1446.0Q752 1474 797.0 1489.5Q842 1505 890 1505Q931 1505 967 1495Q1013 1549 1068.0 1578.0Q1123 1607 1195 1607Q1238 1607 1279.5 1594.0Q1321 1581 1356 1557L1371 1581Q1354 1604 1344.0 1632.0Q1334 1660 1334 1689Q1334 1726 1348.0 1759.0Q1362 1792 1386.5 1816.5Q1411 1841 1443.5 1855.0Q1476 1869 1514 1869Q1625 1869 1725.5 1831.0Q1826 1793 1906.0 1725.5Q1986 1658 2040.5 1566.0Q2095 1474 2115 1365Q2117 1365 2119.5 1365.5Q2122 1366 2124 1366Z" style="fill:#000000;stroke:none" transform="scale(1,-1) translate(0,-256)" /></svg>