<?xml version="1.0" encoding="utf-8" ?>
<svg baseProfile="full" height="256" version="1.1" width="256" xmlns="http://www.w3.org/2000/svg" xmlns:ev="http://www.w3.org/2001/xml-events" xmlns:xlink="http://www.w3.org/1999/xlink"><defs /><path d="M1514 1510Q1566 1510 1611.5 1490.0Q1657 1470 1691.0 1435.5Q1725 1401 1745.0 1355.5Q1765 1310 1765 1258Q1765 1243 1754.5 1232.5Q1744 1222 1729 1222Q1715 1222 1704.0 1233.0Q1693 1244 1693 1258Q1693 1295 1679.0 1328.0Q1665 1361 1640.5 1385.5Q1616 1410 1583.5 1424.0Q1551 1438 1514 1438Q1499 1438 1488.5 1448.5Q1478 1459 1478 1474Q1478 1489 1488.5 1499.5Q1499 1510 1514 1510ZM1514 1725Q1610 1725 1695.0 1688.0Q1780 1651 1843.5 1587.5Q1907 1524 1944.0 1439.0Q1981 1354 1981 1258Q1981 1243 1970.5 1232.5Q1960 1222 1945 1222Q1930 1222 1919.5 1232.5Q1909 1243 1909 1258Q1909 1340 1878.0 1412.0Q1847 1484 1793.5 1537.5Q1740 1591 1668.0 1622.0Q1596 1653 1514 1653Q1499 1653 1488.5 1663.5Q1478 1674 1478 1689Q1478 1704 1488.5 1714.5Q1499 1725 1514 1725ZM903 108Q903 93 892.5 82.5Q882 72 867 72Q815 72 769.0 92.0Q723 112 689.0 146.0Q655 180 635.0 226.0Q615 272 615 324Q615 339 625.5 349.5Q636 360 651 360Q666 360 676.5 349.5Q687 339 687 324Q687 286 701.0 253.5Q715 221 739.5 196.5Q764 172 796.5 158.0Q829 144 867 144Q882 144 892.5 133.5Q903 123 903 108ZM903 -108Q903 -122 892.0 -133.0Q881 -144 867 -144Q770 -144 685.0 -107.0Q600 -70 536.5 -6.5Q473 57 436.5 142.0Q400 227 400 324Q400 339 410.5 349.5Q421 360 436 360Q451 360 461.5 349.5Q472 339 472 324Q472 242 503.0 170.0Q534 98 587.5 44.0Q641 -10 713.0 -41.0Q785 -72 867 -72Q882 -72 892.5 -82.5Q903 -93 903 -108Z" style="fill:#31d2f7;stroke:none" transform="scale(1,-1) translate(0,-256)" /></svg>