<?xml version="1.0" encoding="utf-8" ?>
<svg baseProfile="full" height="256" version="1.1" width="256" xmlns="http://www.w3.org/2000/svg" xmlns:ev="http://www.w3.org/2001/xml-events" xmlns:xlink="http://www.w3.org/1999/xlink"><defs /><path d="M2125 1222Q2155 1222 2181.0 1210.5Q2207 1199 2226.5 1179.5Q2246 1160 2257.0 1134.0Q2268 1108 2268 1078V252Q2268 140 2225.5 42.0Q2183 -56 2110.0 -129.0Q2037 -202 1939.0 -244.5Q1841 -287 1729 -287Q1682 -287 1633.5 -278.5Q1585 -270 1539.0 -253.0Q1493 -236 1450.5 -211.0Q1408 -186 1374 -153L585 608Q553 640 553 684Q553 706 561.5 725.5Q570 745 585.0 759.5Q600 774 619.5 782.5Q639 791 661 791Q685 791 702.5 783.0Q720 775 738 760Q826 687 906.0 603.5Q986 520 1069 441Q1074 436 1079.0 432.5Q1084 429 1091 429Q1099 429 1108.5 437.5Q1118 446 1118 454Q1118 462 1113.0 467.5Q1108 473 1103 478Q962 621 823.5 763.0Q685 905 548 1051Q561 1099 599.5 1128.5Q638 1158 687 1158Q718 1158 742.0 1147.0Q766 1136 789 1116Q852 1061 913.0 1002.0Q974 943 1034.0 882.5Q1094 822 1154.0 761.0Q1214 700 1274 641Q1279 636 1284.0 632.0Q1289 628 1296 628Q1304 628 1313.5 636.0Q1323 644 1323 652Q1323 654 1321.0 656.0Q1319 658 1317 660Q1265 721 1209.0 778.5Q1153 836 1098 894Q1012 985 926.5 1075.5Q841 1166 752 1255Q766 1302 803.0 1331.5Q840 1361 890 1361Q921 1361 945.0 1350.0Q969 1339 992 1319Q1018 1295 1042.5 1269.0Q1067 1243 1093 1218Q1190 1125 1287.0 1035.0Q1384 945 1479 851Q1484 846 1489.0 840.5Q1494 835 1502 835Q1510 835 1518.0 843.0Q1526 851 1526 859Q1526 862 1508.0 883.0Q1490 904 1459.5 937.0Q1429 970 1390.0 1011.0Q1351 1052 1309.5 1095.5Q1268 1139 1226.5 1181.5Q1185 1224 1150.0 1260.0Q1115 1296 1090.0 1321.5Q1065 1347 1056 1356Q1070 1404 1107.0 1433.5Q1144 1463 1195 1463Q1224 1463 1250.5 1452.0Q1277 1441 1297 1421L1935 783Q1940 778 1943.0 771.0Q1946 764 1950 758L1981 737V1078Q1981 1108 1992.0 1134.0Q2003 1160 2022.5 1179.5Q2042 1199 2068.5 1210.5Q2095 1222 2125 1222Z" style="fill:#ffc83d;stroke:none" transform="scale(1,-1) translate(0,-256)" /></svg>