<?xml version="1.0" encoding="utf-8" ?>
<svg baseProfile="full" height="256" version="1.1" width="256" xmlns="http://www.w3.org/2000/svg" xmlns:ev="http://www.w3.org/2001/xml-events" xmlns:xlink="http://www.w3.org/1999/xlink"><defs /><path d="M548 1051 1119 481Q1130 470 1130 455Q1130 440 1118.5 429.5Q1107 419 1093 419Q1079 419 1068 430L585 912Q565 932 554.0 959.5Q543 987 543 1016Q543 1033 548 1051ZM752 1254 1322 684Q1333 673 1333 658Q1333 643 1321.5 632.5Q1310 622 1296 622Q1282 622 1271 633L788 1116Q769 1135 757.5 1162.0Q746 1189 746 1216Q746 1236 752 1254ZM1057 1356 1525 887Q1536 876 1536 861Q1536 847 1525.0 836.0Q1514 825 1500 825Q1486 825 1475 836L1093 1218Q1073 1238 1062.5 1264.5Q1052 1291 1052 1320Q1052 1329 1053.0 1338.0Q1054 1347 1057 1356ZM1695 321Q1695 265 1711.5 222.5Q1728 180 1748.0 149.0Q1768 118 1784.5 97.5Q1801 77 1801 67Q1801 53 1790.0 42.0Q1779 31 1765 31Q1756 31 1751.0 34.0Q1746 37 1740 42Q1713 66 1691.5 99.5Q1670 133 1655.0 170.5Q1640 208 1632.0 247.5Q1624 287 1624 322Q1624 400 1653.5 473.5Q1683 547 1740 601L1932 786L1981 737L1790 550Q1744 505 1719.5 445.0Q1695 385 1695 321Z" style="fill:#d48c00;stroke:none" transform="scale(1,-1) translate(0,-256)" /></svg>