<?xml version="1.0" encoding="utf-8" ?>
<svg baseProfile="full" height="256" version="1.1" width="256" xmlns="http://www.w3.org/2000/svg" xmlns:ev="http://www.w3.org/2001/xml-events" xmlns:xlink="http://www.w3.org/1999/xlink"><defs /><path d="M1262 431Q1292 431 1318.0 420.0Q1344 409 1363.5 389.5Q1383 370 1394.5 344.0Q1406 318 1406 288Q1406 258 1394.5 231.5Q1383 205 1363.5 185.5Q1344 166 1318.0 155.0Q1292 144 1262 144Q1230 144 1202.0 157.5Q1174 171 1154 194Q1134 171 1106.0 157.5Q1078 144 1047 144Q1017 144 990.5 155.0Q964 166 944.5 185.5Q925 205 914.0 231.5Q903 258 903 288Q903 318 914.5 344.0Q926 370 945.5 389.5Q965 409 991.0 420.0Q1017 431 1047 431Q1051 431 1066.0 427.0Q1081 423 1099.0 418.0Q1117 413 1134.0 408.0Q1151 403 1159 401Q1164 402 1180.0 407.0Q1196 412 1214.0 417.5Q1232 423 1246.5 427.0Q1261 431 1262 431Z" style="fill:#ffffff;stroke:none" transform="scale(1,-1) translate(0,-256)" /></svg>