<?xml version="1.0" encoding="utf-8" ?>
<svg baseProfile="full" height="256" version="1.1" width="256" xmlns="http://www.w3.org/2000/svg" xmlns:ev="http://www.w3.org/2001/xml-events" xmlns:xlink="http://www.w3.org/1999/xlink"><defs /><path d="M1765 503 1871 523 1981 503V431Q1765 216 1550 0L1277 -13Q1242 -15 1208.5 -17.5Q1175 -20 1140 -20Q1102 -20 1064.5 -17.5Q1027 -15 989 -13L687 0Q687 39 700.5 75.0Q714 111 738.5 139.5Q763 168 796.0 187.0Q829 206 868 212L697 443Q697 444 696.0 445.0Q695 446 695 447Q691 452 689.0 455.5Q687 459 687 467Q687 492 703.0 497.5Q719 503 738 503H759Q759 527 758.0 551.0Q757 575 757 599Q757 632 762.5 660.0Q768 688 779 719Q778 722 775.0 733.5Q772 745 768.5 757.5Q765 770 762.0 780.0Q759 790 759 791V971Q759 985 770.0 995.5Q781 1006 795 1006Q801 1006 819.0 997.0Q837 988 862.0 973.5Q887 959 915.0 942.0Q943 925 969.0 909.5Q995 894 1016.0 881.0Q1037 868 1047 863Q1074 849 1101.5 837.0Q1129 825 1157 812Q1183 825 1209.5 837.0Q1236 849 1262 863Q1272 868 1292.5 881.0Q1313 894 1339.0 910.0Q1365 926 1393.0 943.0Q1421 960 1446.0 974.0Q1471 988 1489.5 997.0Q1508 1006 1514 1006Q1528 1006 1539.0 995.5Q1550 985 1550 971V791Q1550 790 1547.0 780.0Q1544 770 1540.5 757.5Q1537 745 1534.0 733.5Q1531 722 1530 719Q1544 677 1547.5 647.0Q1551 617 1551 585Q1551 567 1550.5 547.0Q1550 527 1550 503H1571Q1590 503 1606.0 497.5Q1622 492 1622 467Q1622 459 1613.0 444.0Q1604 429 1592.0 412.5Q1580 396 1568.0 381.5Q1556 367 1550 360H1622Z" style="fill:#757575;stroke:none" transform="scale(1,-1) translate(0,-256)" /></svg>