<?xml version="1.0" encoding="utf-8" ?>
<svg baseProfile="full" height="256" version="1.1" width="256" xmlns="http://www.w3.org/2000/svg" xmlns:ev="http://www.w3.org/2001/xml-events" xmlns:xlink="http://www.w3.org/1999/xlink"><defs /><path d="M939 647Q954 647 964.5 636.5Q975 626 975 611V539Q975 524 964.5 513.5Q954 503 939 503Q924 503 913.5 513.5Q903 524 903 539V611Q903 626 913.5 636.5Q924 647 939 647ZM1370 647Q1385 647 1395.5 636.5Q1406 626 1406 611V539Q1406 524 1395.5 513.5Q1385 503 1370 503Q1355 503 1344.5 513.5Q1334 524 1334 539V611Q1334 626 1344.5 636.5Q1355 647 1370 647Z" style="fill:#000000;stroke:none" transform="scale(1,-1) translate(0,-256)" /></svg>