<?xml version="1.0" encoding="utf-8" ?>
<svg baseProfile="full" height="256" version="1.1" width="256" xmlns="http://www.w3.org/2000/svg" xmlns:ev="http://www.w3.org/2001/xml-events" xmlns:xlink="http://www.w3.org/1999/xlink"><defs /><path d="M1155 1006Q1172 1006 1180 991L1406 540H1047V-27H510V540H465V669L553 847Q561 862 581 862Q597 862 603.0 850.5Q609 839 615 828L769 1135Q776 1150 795 1150Q812 1150 818.0 1139.0Q824 1128 831 1115L913 1279Q920 1294 940 1294Q957 1294 965 1279L1118 971L1120 976Q1125 988 1132.0 997.0Q1139 1006 1155 1006Z" style="fill:#83beec;stroke:none" transform="scale(1,-1) translate(0,-256)" /></svg>