<?xml version="1.0" encoding="utf-8" ?>
<svg baseProfile="full" height="256" version="1.1" width="256" xmlns="http://www.w3.org/2000/svg" xmlns:ev="http://www.w3.org/2001/xml-events" xmlns:xlink="http://www.w3.org/1999/xlink"><defs /><path d="M2197 1222Q2197 1192 2185.5 1166.0Q2174 1140 2154.5 1120.5Q2135 1101 2109.0 1089.5Q2083 1078 2053 1078Q2023 1078 1997.0 1089.5Q1971 1101 1951.5 1120.5Q1932 1140 1920.5 1166.0Q1909 1192 1909 1222Q1909 1252 1920.5 1278.0Q1932 1304 1951.5 1323.5Q1971 1343 1997.0 1354.5Q2023 1366 2053 1366Q2083 1366 2109.0 1354.5Q2135 1343 2154.5 1323.5Q2174 1304 2185.5 1278.0Q2197 1252 2197 1222Z" style="fill:#ffc83d;stroke:none" transform="scale(1,-1) translate(0,-256)" /></svg>