<?xml version="1.0" encoding="utf-8" ?>
<svg baseProfile="full" height="256" version="1.1" width="256" xmlns="http://www.w3.org/2000/svg" xmlns:ev="http://www.w3.org/2001/xml-events" xmlns:xlink="http://www.w3.org/1999/xlink"><defs /><path d="M579 144Q565 144 554.0 155.0Q543 166 543 180Q543 194 554.0 205.0Q565 216 579 216Q631 216 676.5 236.0Q722 256 756.5 290.0Q791 324 811.0 369.5Q831 415 831 467Q831 534 856.5 593.0Q882 652 926.0 696.0Q970 740 1028.5 765.5Q1087 791 1154 791Q1206 791 1251.5 811.0Q1297 831 1331.5 865.0Q1366 899 1386.0 944.5Q1406 990 1406 1042Q1406 1109 1431.5 1168.0Q1457 1227 1501.0 1271.0Q1545 1315 1603.5 1340.5Q1662 1366 1729 1366Q1781 1366 1826.5 1386.0Q1872 1406 1906.5 1440.0Q1941 1474 1961.0 1519.5Q1981 1565 1981 1617Q1981 1632 1991.5 1642.5Q2002 1653 2017 1653Q2032 1653 2042.5 1642.5Q2053 1632 2053 1617Q2053 1550 2027.5 1491.5Q2002 1433 1958.0 1389.0Q1914 1345 1855.0 1319.5Q1796 1294 1729 1294Q1677 1294 1631.5 1274.0Q1586 1254 1552.0 1219.5Q1518 1185 1498.0 1139.5Q1478 1094 1478 1042Q1478 975 1452.5 916.5Q1427 858 1383.0 814.0Q1339 770 1280.0 744.5Q1221 719 1154 719Q1102 719 1056.5 699.0Q1011 679 977.0 644.5Q943 610 923.0 564.5Q903 519 903 467Q903 400 877.5 341.5Q852 283 808.0 239.0Q764 195 705.0 169.5Q646 144 579 144Z" style="fill:#fff100;stroke:none" transform="scale(1,-1) translate(0,-256)" /></svg>