<?xml version="1.0" encoding="utf-8" ?>
<svg baseProfile="full" height="256" version="1.1" width="256" xmlns="http://www.w3.org/2000/svg" xmlns:ev="http://www.w3.org/2001/xml-events" xmlns:xlink="http://www.w3.org/1999/xlink"><defs /><path d="M2107 1294Q2047 1294 1991.0 1271.0Q1935 1248 1892 1205L920 233Q877 190 854.0 133.5Q831 77 831 17Q831 -43 854.0 -99.0Q877 -155 920 -198Q877 -241 820.5 -264.0Q764 -287 704 -287Q641 -287 585.5 -263.0Q530 -239 489.0 -198.0Q448 -157 424.0 -101.5Q400 -46 400 17Q400 77 423.0 133.5Q446 190 489 233L1892 1636Q1935 1679 1991.0 1702.0Q2047 1725 2107 1725Q2170 1725 2226.0 1701.0Q2282 1677 2323.0 1636.0Q2364 1595 2388.0 1539.0Q2412 1483 2412 1420Q2412 1360 2389.0 1304.0Q2366 1248 2323 1205Q2280 1248 2223.5 1271.0Q2167 1294 2107 1294Z" style="fill:#ca5010;stroke:none" transform="scale(1,-1) translate(0,-256)" /></svg>