<?xml version="1.0" encoding="utf-8" ?>
<svg baseProfile="full" height="256" version="1.1" width="256" xmlns="http://www.w3.org/2000/svg" xmlns:ev="http://www.w3.org/2001/xml-events" xmlns:xlink="http://www.w3.org/1999/xlink"><defs /><path d="M1136 -431Q1021 -431 920 -376Q819 -431 705 -431Q612 -431 530.0 -396.0Q448 -361 387.0 -300.0Q326 -239 291.0 -157.0Q256 -75 256 18Q256 89 277.0 155.5Q298 222 340 279Q329 331 329 378Q329 467 362.5 549.0Q396 631 459 694L1431 1666Q1494 1729 1575.5 1762.5Q1657 1796 1746 1796Q1772 1796 1796.5 1793.0Q1821 1790 1846 1785Q1903 1827 1969.5 1848.0Q2036 1869 2107 1869Q2200 1869 2282.0 1834.0Q2364 1799 2425.0 1738.0Q2486 1677 2521.0 1595.0Q2556 1513 2556 1420Q2556 1306 2501 1205Q2556 1104 2556 989Q2556 900 2522.0 817.5Q2488 735 2425 672L1453 -300Q1390 -363 1307.5 -397.0Q1225 -431 1136 -431Z" style="fill:#000000;stroke:none" transform="scale(1,-1) translate(0,-256)" /></svg>