<?xml version="1.0" encoding="utf-8" ?>
<svg baseProfile="full" height="256" version="1.1" width="256" xmlns="http://www.w3.org/2000/svg" xmlns:ev="http://www.w3.org/2001/xml-events" xmlns:xlink="http://www.w3.org/1999/xlink"><defs /><path d="M2323 1205Q2366 1162 2389.0 1105.5Q2412 1049 2412 989Q2412 929 2389.0 872.5Q2366 816 2323 773L1351 -198Q1308 -241 1251.5 -264.0Q1195 -287 1135 -287Q1075 -287 1019.0 -264.0Q963 -241 920 -198Q915 -198 912 -199Q883 -207 854.5 -213.5Q826 -220 796 -220Q729 -220 670.0 -194.5Q611 -169 566.5 -124.5Q522 -80 496.5 -21.0Q471 38 471 105Q471 176 502 243Q471 308 471 377Q471 437 494.5 493.5Q518 550 561 593L1532 1564Q1575 1607 1631.5 1630.0Q1688 1653 1748 1653Q1821 1653 1883 1622Q1915 1638 1950.0 1645.0Q1985 1652 2020 1652Q2087 1652 2146.0 1626.5Q2205 1601 2249.5 1557.0Q2294 1513 2319.5 1454.0Q2345 1395 2345 1328Q2345 1266 2322 1208Z" style="fill:#eba300;stroke:none" transform="scale(1,-1) translate(0,-256)" /></svg>