<?xml version="1.0" encoding="utf-8" ?>
<svg baseProfile="full" height="256" version="1.1" width="256" xmlns="http://www.w3.org/2000/svg" xmlns:ev="http://www.w3.org/2001/xml-events" xmlns:xlink="http://www.w3.org/1999/xlink"><defs /><path d="M2412 1006Q2329 1006 2257.0 1008.5Q2185 1011 2116.5 1021.0Q2048 1031 1979.5 1051.5Q1911 1072 1834 1108Q1830 1079 1819 1050Q1975 870 2103.0 670.5Q2231 471 2330 254Q2340 231 2354.5 203.0Q2369 175 2381.5 145.0Q2394 115 2403.0 86.0Q2412 57 2412 32Q2412 27 2412.0 22.5Q2412 18 2411 13L1981 -287Q1947 -287 1918.0 -280.0Q1889 -273 1861 -253L1680 -124Q1578 -52 1492.5 37.5Q1407 127 1338 230Q1215 5 1009 -147L859 -258Q819 -287 770 -287H756L401 -31Q400 -26 400.0 -22.0Q400 -18 400 -13Q400 10 407.5 34.5Q415 59 425.5 84.0Q436 109 448.0 132.5Q460 156 469 177Q543 343 635.0 496.0Q727 649 839 792Q747 756 650.0 737.5Q553 719 454 719H400V863Q476 863 538.0 868.5Q600 874 657.0 887.0Q714 900 772.0 922.0Q830 944 899 977L739 1216Q687 1294 687 1388V1415Q687 1479 711.5 1535.5Q736 1592 778.0 1634.0Q820 1676 876.5 1700.5Q933 1725 997 1725Q1055 1725 1110.0 1704.0Q1165 1683 1208 1643L1461 1409Q1516 1438 1579 1438Q1618 1438 1654.5 1426.5Q1691 1415 1722.0 1393.5Q1753 1372 1777.0 1342.5Q1801 1313 1816 1277Q1875 1247 1924.0 1226.0Q1973 1205 2017.5 1191.0Q2062 1177 2104.5 1169.0Q2147 1161 2193.5 1156.5Q2240 1152 2293.0 1151.0Q2346 1150 2412 1150V1006Z" style="fill:#f4abba;stroke:none" transform="scale(1,-1) translate(0,-256)" /></svg>