<?xml version="1.0" encoding="utf-8" ?>
<svg baseProfile="full" height="256" version="1.1" width="256" xmlns="http://www.w3.org/2000/svg" xmlns:ev="http://www.w3.org/2001/xml-events" xmlns:xlink="http://www.w3.org/1999/xlink"><defs /><path d="M401 -31Q401 -11 418.0 -1.5Q435 8 452 8Q482 8 525.0 -9.5Q568 -27 613.0 -51.5Q658 -76 698.5 -103.5Q739 -131 762 -151Q781 -167 793.5 -188.5Q806 -210 806 -235Q806 -269 788.0 -278.0Q770 -287 742 -287Q698 -287 663 -265L474 -148Q460 -139 447.0 -126.0Q434 -113 423.5 -97.5Q413 -82 407.0 -65.0Q401 -48 401 -31ZM2411 13Q2411 -7 2403.5 -27.5Q2396 -48 2383.5 -66.5Q2371 -85 2355.0 -100.0Q2339 -115 2323 -125L2096 -261Q2053 -287 2002 -287Q1986 -287 1972.0 -285.0Q1958 -283 1947.5 -277.0Q1937 -271 1931.0 -259.0Q1925 -247 1925 -227Q1925 -197 1940.5 -172.0Q1956 -147 1978 -128Q2006 -104 2054.0 -72.0Q2102 -40 2156.0 -11.0Q2210 18 2262.0 38.5Q2314 59 2350 59Q2360 59 2370.5 56.5Q2381 54 2390.0 48.0Q2399 42 2405.0 33.5Q2411 25 2411 13ZM1558 1215Q1589 1181 1629.5 1133.0Q1670 1085 1706.5 1031.5Q1743 978 1768.5 922.5Q1794 867 1794 818Q1794 765 1765.0 727.5Q1736 690 1693 664L1157 1135Q1226 1179 1305.0 1200.5Q1384 1222 1465 1222Q1488 1222 1511.5 1220.5Q1535 1219 1558 1215ZM1405 1363Q1308 1355 1216.0 1322.5Q1124 1290 1044 1233Q999 1272 953.5 1311.0Q908 1350 862 1388Q838 1408 813.0 1429.0Q788 1450 762 1467Q769 1506 792.0 1540.0Q815 1574 847.5 1599.0Q880 1624 919.0 1638.5Q958 1653 997 1653Q1042 1653 1084.0 1637.0Q1126 1621 1159 1590Z" style="fill:#e6808a;stroke:none" transform="scale(1,-1) translate(0,-256)" /></svg>