<?xml version="1.0" encoding="utf-8" ?>
<svg baseProfile="full" height="256" version="1.1" width="256" xmlns="http://www.w3.org/2000/svg" xmlns:ev="http://www.w3.org/2001/xml-events" xmlns:xlink="http://www.w3.org/1999/xlink"><defs /><path d="M979 856Q1021 793 1064.0 731.5Q1107 670 1141 602Q1189 508 1234.5 413.5Q1280 319 1338 230Q1306 170 1266.5 116.5Q1227 63 1182 12Q1177 145 1139.5 271.5Q1102 398 1031 510L1006 524Q975 543 950.5 568.5Q926 594 918 631Q916 639 916.0 646.5Q916 654 915 662Q913 678 905.0 696.5Q897 715 886.0 733.0Q875 751 861.0 765.5Q847 780 833 789Q850 796 866.0 802.5Q882 809 898 817L821 941Q841 950 860.0 958.5Q879 967 899 977ZM1713 1323Q1614 1358 1512 1364Q1543 1376 1579 1376Q1616 1376 1650.5 1361.5Q1685 1347 1713 1323ZM897 1510Q942 1510 983.5 1493.5Q1025 1477 1058 1446L1199 1316Q1090 1274 997 1198Q971 1219 930.5 1245.0Q890 1271 852.0 1301.5Q814 1332 786.5 1366.0Q759 1400 759 1438Q759 1452 762 1467Q791 1487 826.0 1498.5Q861 1510 897 1510ZM1412 1120Q1430 1103 1447.0 1083.5Q1464 1064 1481 1045Q1510 1012 1546.5 967.5Q1583 923 1615.5 873.0Q1648 823 1670.5 771.5Q1693 720 1693 674V664Q1672 650 1646.5 637.5Q1621 625 1593.0 615.5Q1565 606 1537.0 600.5Q1509 595 1484 595Q1441 595 1404.5 609.5Q1368 624 1337.5 648.0Q1307 672 1280.5 703.0Q1254 734 1232 767Q1203 809 1181.5 853.5Q1160 898 1143 946Q1130 981 1117.5 1016.5Q1105 1052 1088 1086Q1139 1128 1197.5 1158.0Q1256 1188 1320 1204ZM1831 1033Q1802 1046 1773.0 1059.0Q1744 1072 1715 1087Q1701 1074 1684 1062Q1655 1103 1623.0 1140.5Q1591 1178 1557 1215Q1614 1206 1663.5 1187.0Q1713 1168 1764 1143L1752 1126Q1774 1103 1795.0 1079.0Q1816 1055 1836 1031Z" style="fill:#e84757;stroke:none" transform="scale(1,-1) translate(0,-256)" /></svg>