<?xml version="1.0" encoding="utf-8" ?>
<svg baseProfile="full" height="256" version="1.1" width="256" xmlns="http://www.w3.org/2000/svg" xmlns:ev="http://www.w3.org/2001/xml-events" xmlns:xlink="http://www.w3.org/1999/xlink"><defs /><path d="M1968 -431Q1863 -431 1778 -370L1597 -241Q1528 -192 1465.5 -135.5Q1403 -79 1347 -16Q1305 -71 1262.0 -115.5Q1219 -160 1173.5 -199.0Q1128 -238 1079.0 -274.5Q1030 -311 976 -350L944 -374Q895 -409 847.5 -420.0Q800 -431 742 -431Q658 -431 587 -387L399 -271Q366 -250 339.5 -222.0Q313 -194 294.5 -160.5Q276 -127 266.0 -89.5Q256 -52 256 -13Q256 50 282 110Q335 231 391.0 347.5Q447 464 516 577Q451 574 386 574Q354 574 321.0 574.5Q288 575 256 575V1006Q291 1006 324.5 1005.5Q358 1005 391 1005Q465 1005 536.5 1011.5Q608 1018 683 1041L667 1066Q636 1113 612.5 1150.5Q589 1188 573.5 1226.0Q558 1264 550.5 1308.5Q543 1353 543 1415Q543 1509 579.0 1591.5Q615 1674 676.5 1735.5Q738 1797 820.5 1833.0Q903 1869 997 1869Q1082 1869 1162.0 1838.0Q1242 1807 1305 1749L1496 1572Q1536 1581 1579 1581Q1632 1581 1682.0 1567.5Q1732 1554 1776.5 1528.5Q1821 1503 1858.0 1466.5Q1895 1430 1922 1385Q1982 1355 2037.0 1336.5Q2092 1318 2145.5 1308.0Q2199 1298 2252.5 1295.0Q2306 1292 2363 1292Q2408 1292 2455.5 1293.0Q2503 1294 2556 1294V863H2286Q2212 863 2140 872Q2200 787 2251.5 702.0Q2303 617 2350.0 529.5Q2397 442 2440.5 352.0Q2484 262 2527 168Q2541 136 2548.5 101.5Q2556 67 2556 32Q2556 -55 2513.5 -129.0Q2471 -203 2397 -248L2170 -384Q2144 -399 2120.0 -408.5Q2096 -418 2072.0 -423.0Q2048 -428 2022.5 -429.5Q1997 -431 1968 -431Z" style="fill:#000000;stroke:none" transform="scale(1,-1) translate(0,-256)" /></svg>