<?xml version="1.0" encoding="utf-8" ?>
<svg baseProfile="full" height="256" version="1.1" width="256" xmlns="http://www.w3.org/2000/svg" xmlns:ev="http://www.w3.org/2001/xml-events" xmlns:xlink="http://www.w3.org/1999/xlink"><defs /><path d="M256 -144V1294H412Q424 1325 444.5 1351.5Q465 1378 491.5 1397.0Q518 1416 549.5 1427.0Q581 1438 615 1438H1102Q1132 1473 1174.0 1491.5Q1216 1510 1262 1510H1550Q1595 1510 1636.0 1491.5Q1677 1473 1707 1441Q1719 1472 1739.5 1498.0Q1760 1524 1786.5 1542.5Q1813 1561 1844.0 1571.0Q1875 1581 1909 1581H2197Q2231 1581 2262.5 1570.5Q2294 1560 2320.5 1541.5Q2347 1523 2367.5 1496.5Q2388 1470 2400 1438H2556V0H2412V-72H2268V-144Z" style="fill:#000000;stroke:none" transform="scale(1,-1) translate(0,-256)" /></svg>