<?xml version="1.0" encoding="utf-8" ?>
<svg baseProfile="full" height="256" version="1.1" width="256" xmlns="http://www.w3.org/2000/svg" xmlns:ev="http://www.w3.org/2001/xml-events" xmlns:xlink="http://www.w3.org/1999/xlink"><defs /><path d="M1514 144Q1499 144 1488.5 154.5Q1478 165 1478 180Q1478 188 1482.5 210.0Q1487 232 1494.0 261.0Q1501 290 1509.5 323.5Q1518 357 1526.0 387.0Q1534 417 1541.0 441.0Q1548 465 1551 476Q1555 487 1560.0 493.0Q1565 499 1577 502L1843 569L1910 835Q1913 847 1923.0 855.0Q1933 863 1946 863Q1960 863 1970.5 852.0Q1981 841 1981 827Q1981 821 1976.5 799.0Q1972 777 1965.0 746.5Q1958 716 1949.0 681.0Q1940 646 1932.0 615.0Q1924 584 1917.5 560.5Q1911 537 1908 530Q1904 520 1898.5 513.0Q1893 506 1882 504L1615 438L1549 171Q1546 160 1536.0 152.0Q1526 144 1514 144ZM1370 359Q1356 359 1345.0 370.0Q1334 381 1334 395Q1334 403 1338.5 425.0Q1343 447 1350.0 476.5Q1357 506 1365.5 539.5Q1374 573 1382.0 603.0Q1390 633 1396.5 657.0Q1403 681 1407 692Q1411 703 1416.0 709.0Q1421 715 1433 718L1700 784L1766 1051Q1769 1063 1779.0 1070.5Q1789 1078 1801 1078Q1815 1078 1826.0 1067.5Q1837 1057 1837 1043Q1837 1035 1832.5 1013.0Q1828 991 1821.0 961.5Q1814 932 1805.5 898.5Q1797 865 1789.0 835.0Q1781 805 1774.5 781.0Q1768 757 1764 746Q1760 735 1755.0 729.0Q1750 723 1738 720L1471 653L1405 387Q1402 375 1392.5 367.0Q1383 359 1370 359ZM1226 575Q1211 575 1200.5 585.5Q1190 596 1190 611Q1190 619 1194.5 641.0Q1199 663 1206.0 692.0Q1213 721 1221.5 754.5Q1230 788 1238.0 818.0Q1246 848 1252.5 872.0Q1259 896 1263 907Q1267 918 1272.0 924.0Q1277 930 1289 933L1556 1000L1623 1267Q1626 1278 1635.5 1286.0Q1645 1294 1657 1294Q1671 1294 1682.0 1283.0Q1693 1272 1693 1258Q1693 1250 1688.5 1228.0Q1684 1206 1677.0 1177.0Q1670 1148 1661.5 1114.5Q1653 1081 1645.0 1051.0Q1637 1021 1630.0 997.0Q1623 973 1620 962Q1616 951 1611.0 945.0Q1606 939 1594 936L1328 869L1261 602Q1258 590 1248.0 582.5Q1238 575 1226 575Z" style="fill:#ffffff;stroke:none" transform="scale(1,-1) translate(0,-256)" /></svg>