<?xml version="1.0" encoding="utf-8" ?>
<svg baseProfile="full" height="256" version="1.1" width="256" xmlns="http://www.w3.org/2000/svg" xmlns:ev="http://www.w3.org/2001/xml-events" xmlns:xlink="http://www.w3.org/1999/xlink"><defs /><path d="M1977 1004Q2040 987 2082.5 941.5Q2125 896 2125 828Q2125 805 2119 783L2047 496Q2034 445 2000.5 411.5Q1967 378 1916 365L1734 319L1688 136Q1673 74 1622 36V-251Q1622 -289 1608.0 -321.5Q1594 -354 1569.5 -378.5Q1545 -403 1512.0 -417.0Q1479 -431 1442 -431H436Q398 -431 365.5 -417.0Q333 -403 308.5 -378.5Q284 -354 270.0 -321.5Q256 -289 256 -251V1689Q256 1726 270.0 1759.0Q284 1792 308.5 1816.5Q333 1841 365.5 1855.0Q398 1869 436 1869H1442Q1479 1869 1512.0 1855.0Q1545 1841 1569.5 1816.5Q1594 1792 1608.0 1759.0Q1622 1726 1622 1689V1434Q1637 1438 1657 1438Q1694 1438 1727.0 1424.0Q1760 1410 1784.5 1385.5Q1809 1361 1823.0 1328.0Q1837 1295 1837 1258Q1837 1236 1833 1219Q1865 1213 1892.0 1197.0Q1919 1181 1939.0 1157.5Q1959 1134 1970.0 1104.5Q1981 1075 1981 1042Q1981 1020 1977 1004Z" style="fill:#000000;stroke:none" transform="scale(1,-1) translate(0,-256)" /></svg>