<?xml version="1.0" encoding="utf-8" ?>
<svg baseProfile="full" height="256" version="1.1" width="256" xmlns="http://www.w3.org/2000/svg" xmlns:ev="http://www.w3.org/2001/xml-events" xmlns:xlink="http://www.w3.org/1999/xlink"><defs /><path d="M2053 1869Q2131 1869 2197.5 1830.0Q2264 1791 2303 1723Q2357 1717 2403.5 1692.0Q2450 1667 2483.5 1628.5Q2517 1590 2536.5 1541.0Q2556 1492 2556 1438Q2556 1410 2550.5 1383.0Q2545 1356 2535 1330Q2545 1304 2550.5 1277.0Q2556 1250 2556 1222Q2556 1178 2542.5 1136.0Q2529 1094 2504 1059Q2530 976 2543.0 891.0Q2556 806 2556 719Q2556 560 2515.0 413.5Q2474 267 2399.0 139.0Q2324 11 2219.0 -94.0Q2114 -199 1986.0 -274.0Q1858 -349 1711.0 -390.0Q1564 -431 1406 -431Q1247 -431 1100.5 -390.0Q954 -349 826.0 -274.0Q698 -199 593.0 -94.0Q488 11 413.0 139.0Q338 267 297.0 414.0Q256 561 256 719Q256 806 269.0 891.0Q282 976 308 1059Q283 1094 269.5 1136.0Q256 1178 256 1222Q256 1279 277 1330Q256 1381 256 1438Q256 1492 275.5 1541.0Q295 1590 328.5 1628.5Q362 1667 408.5 1692.0Q455 1717 509 1723Q528 1757 555.0 1784.0Q582 1811 614.5 1830.0Q647 1849 683.5 1859.0Q720 1869 759 1869ZM2412 1222Q2412 1253 2399.0 1281.5Q2386 1310 2363 1330Q2386 1350 2399.0 1378.5Q2412 1407 2412 1438Q2412 1468 2400.5 1494.0Q2389 1520 2369.5 1539.5Q2350 1559 2324.0 1570.0Q2298 1581 2268 1581H2196Q2196 1611 2185.0 1637.0Q2174 1663 2154.5 1682.5Q2135 1702 2109.0 1713.5Q2083 1725 2053 1725H1837Q1805 1725 1775.5 1711.0Q1746 1697 1726 1672Q1570 1725 1406 1725Q1241 1725 1085 1672Q1065 1697 1036.0 1711.0Q1007 1725 975 1725H759Q729 1725 703.0 1713.5Q677 1702 657.5 1682.5Q638 1663 626.5 1637.0Q615 1611 615 1581H543Q513 1581 487.0 1570.0Q461 1559 441.5 1539.5Q422 1520 411.0 1494.0Q400 1468 400 1438Q400 1407 413.0 1378.5Q426 1350 449 1330Q426 1310 413.0 1281.5Q400 1253 400 1222Q400 1183 420.5 1150.0Q441 1117 474 1097Q437 1006 418.5 911.0Q400 816 400 719Q400 580 436.0 451.5Q472 323 537.5 211.0Q603 99 694.5 7.5Q786 -84 898.0 -149.5Q1010 -215 1138.5 -251.0Q1267 -287 1406 -287Q1545 -287 1673.5 -251.0Q1802 -215 1914.0 -149.5Q2026 -84 2117.5 7.5Q2209 99 2274.5 211.0Q2340 323 2376.0 451.5Q2412 580 2412 719Q2412 816 2393.0 911.0Q2374 1006 2338 1097Q2371 1117 2391.5 1150.0Q2412 1183 2412 1222Z" style="fill:#000000;stroke:none" transform="scale(1,-1) translate(0,-256)" /></svg>