<?xml version="1.0" encoding="utf-8" ?>
<svg baseProfile="full" height="256" version="1.1" width="256" xmlns="http://www.w3.org/2000/svg" xmlns:ev="http://www.w3.org/2001/xml-events" xmlns:xlink="http://www.w3.org/1999/xlink"><defs /><path d="M1837 460Q1866 460 1887.5 438.5Q1909 417 1909 388Q1909 377 1906.5 369.0Q1904 361 1899 351Q1864 287 1810.0 235.5Q1756 184 1690.0 147.5Q1624 111 1551.0 91.5Q1478 72 1406 72Q1334 72 1261.0 91.5Q1188 111 1122.5 147.0Q1057 183 1002.5 234.5Q948 286 914 351Q909 361 906.5 369.0Q904 377 904 388Q904 418 924.5 439.0Q945 460 975 460Q997 460 1010.5 450.5Q1024 441 1037 425Q1051 408 1063.0 390.0Q1075 372 1089 355Q1118 322 1155.0 296.0Q1192 270 1233.0 252.5Q1274 235 1318.0 225.5Q1362 216 1406 216Q1450 216 1494.0 225.0Q1538 234 1579.5 252.0Q1621 270 1658.0 296.0Q1695 322 1724 355Q1738 372 1750.5 390.0Q1763 408 1776 425Q1789 442 1801.5 451.0Q1814 460 1837 460Z" style="fill:#000000;stroke:none" transform="scale(1,-1) translate(0,-256)" /></svg>