<?xml version="1.0" encoding="utf-8" ?>
<svg baseProfile="full" height="256" version="1.1" width="256" xmlns="http://www.w3.org/2000/svg" xmlns:ev="http://www.w3.org/2001/xml-events" xmlns:xlink="http://www.w3.org/1999/xlink"><defs /><path d="M2412 1438Q2412 1407 2399.0 1378.5Q2386 1350 2363 1330Q2386 1310 2399.0 1281.5Q2412 1253 2412 1222Q2412 1192 2400.5 1166.0Q2389 1140 2369.5 1120.5Q2350 1101 2324.0 1089.5Q2298 1078 2268 1078H1693V1581Q1693 1611 1704.5 1637.0Q1716 1663 1735.5 1682.5Q1755 1702 1781.0 1713.5Q1807 1725 1837 1725H2053Q2083 1725 2109.0 1713.5Q2135 1702 2154.5 1682.5Q2174 1663 2185.0 1637.0Q2196 1611 2196 1581H2268Q2298 1581 2324.0 1570.0Q2350 1559 2369.5 1539.5Q2389 1520 2400.5 1494.0Q2412 1468 2412 1438ZM975 1725Q1005 1725 1031.0 1713.5Q1057 1702 1076.5 1682.5Q1096 1663 1107.0 1637.0Q1118 1611 1118 1581V1078H543Q513 1078 487.0 1089.5Q461 1101 441.5 1120.5Q422 1140 411.0 1166.0Q400 1192 400 1222Q400 1253 413.0 1281.5Q426 1310 449 1330Q426 1350 413.0 1378.5Q400 1407 400 1438Q400 1468 411.0 1494.0Q422 1520 441.5 1539.5Q461 1559 487.0 1570.0Q513 1581 543 1581H615Q615 1611 626.5 1637.0Q638 1663 657.5 1682.5Q677 1702 703.0 1713.5Q729 1725 759 1725Z" style="fill:#e81224;stroke:none" transform="scale(1,-1) translate(0,-256)" /></svg>