<?xml version="1.0" encoding="utf-8" ?>
<svg baseProfile="full" height="256" version="1.1" width="256" xmlns="http://www.w3.org/2000/svg" xmlns:ev="http://www.w3.org/2001/xml-events" xmlns:xlink="http://www.w3.org/1999/xlink"><defs /><path d="M687 1150Q687 1166 695 1182Q715 1228 750.5 1276.0Q786 1324 829.5 1367.5Q873 1411 921.0 1446.5Q969 1482 1015 1502Q1031 1510 1047 1510Q1076 1510 1097.5 1488.5Q1119 1467 1119 1438Q1119 1416 1108.0 1400.0Q1097 1384 1079 1373Q1044 1351 1017.5 1333.5Q991 1316 969.5 1299.5Q948 1283 930.5 1266.0Q913 1249 896.5 1228.0Q880 1207 862.0 1180.0Q844 1153 823 1118Q812 1099 797.0 1088.5Q782 1078 759 1078Q730 1078 708.5 1099.5Q687 1121 687 1150ZM1765 1510Q1781 1510 1797 1502Q1843 1482 1891.0 1446.5Q1939 1411 1982.5 1367.5Q2026 1324 2061.5 1276.0Q2097 1228 2117 1182Q2125 1166 2125 1150Q2125 1121 2103.5 1099.5Q2082 1078 2053 1078Q2031 1078 2015.0 1089.0Q1999 1100 1988 1118Q1954 1172 1930.0 1205.5Q1906 1239 1880.0 1265.0Q1854 1291 1820.5 1315.0Q1787 1339 1733 1373Q1715 1384 1704.0 1400.0Q1693 1416 1693 1438Q1693 1467 1714.5 1488.5Q1736 1510 1765 1510Z" style="fill:#cccccc;stroke:none" transform="scale(1,-1) translate(0,-256)" /></svg>