<?xml version="1.0" encoding="utf-8" ?>
<svg baseProfile="full" height="256" version="1.1" width="256" xmlns="http://www.w3.org/2000/svg" xmlns:ev="http://www.w3.org/2001/xml-events" xmlns:xlink="http://www.w3.org/1999/xlink"><defs /><path d="M1514 1725Q1529 1725 1539.5 1715.0Q1550 1705 1550 1690Q1550 1680 1546 1673L1438 1456Q1427 1436 1406 1436Q1384 1436 1374 1456L1266 1673Q1262 1680 1262 1690Q1262 1705 1272.5 1715.0Q1283 1725 1298 1725ZM1793 1654Q1807 1654 1818 1643L1970 1490Q1981 1479 1981 1465Q1981 1454 1974.5 1444.5Q1968 1435 1957 1431Q1948 1428 1928.5 1421.0Q1909 1414 1884.0 1405.5Q1859 1397 1831.0 1387.5Q1803 1378 1779.0 1370.0Q1755 1362 1737.0 1357.0Q1719 1352 1714 1352Q1700 1352 1689.5 1362.0Q1679 1372 1679 1387Q1679 1393 1684.0 1410.5Q1689 1428 1697.0 1452.0Q1705 1476 1714.5 1503.5Q1724 1531 1732.5 1556.0Q1741 1581 1748.0 1601.0Q1755 1621 1758 1629Q1762 1640 1772.0 1647.0Q1782 1654 1793 1654ZM1019 1654Q1030 1654 1040.0 1647.0Q1050 1640 1054 1629Q1057 1620 1064.0 1600.5Q1071 1581 1079.5 1556.0Q1088 1531 1097.5 1503.5Q1107 1476 1115.0 1452.0Q1123 1428 1128.0 1410.5Q1133 1393 1133 1387Q1133 1372 1122.5 1362.0Q1112 1352 1098 1352Q1092 1352 1074.5 1357.0Q1057 1362 1033.0 1370.0Q1009 1378 981.0 1387.5Q953 1397 928.0 1405.5Q903 1414 883.0 1421.0Q863 1428 855 1431Q844 1435 837.5 1444.5Q831 1454 831 1465Q831 1479 842 1490L994 1643Q1005 1654 1019 1654Z" style="fill:#f7630c;stroke:none" transform="scale(1,-1) translate(0,-256)" /></svg>