<?xml version="1.0" encoding="utf-8" ?>
<svg baseProfile="full" height="256" version="1.1" width="256" xmlns="http://www.w3.org/2000/svg" xmlns:ev="http://www.w3.org/2001/xml-events" xmlns:xlink="http://www.w3.org/1999/xlink"><defs /><path d="M2411 1246Q2444 1235 2470.5 1214.5Q2497 1194 2516.0 1167.0Q2535 1140 2545.5 1108.0Q2556 1076 2556 1042V431Q2556 368 2537.5 307.5Q2519 247 2484 194V-431H1674L1753 196Q1700 253 1648.0 310.0Q1596 367 1541 423Q1478 486 1478 575Q1478 620 1495.0 659.0Q1512 698 1541.0 727.5Q1570 757 1609.0 774.0Q1648 791 1693 791V1150Q1693 1180 1702 1209Q1672 1211 1645.0 1222.5Q1618 1234 1596.0 1252.5Q1574 1271 1559.0 1296.5Q1544 1322 1539 1351Q1513 1323 1478.5 1307.5Q1444 1292 1406 1292Q1368 1292 1333.5 1307.5Q1299 1323 1273 1350Q1267 1321 1252.0 1296.0Q1237 1271 1215.5 1252.0Q1194 1233 1167.0 1222.0Q1140 1211 1110 1209Q1115 1195 1116.5 1180.0Q1118 1165 1118 1150V791Q1163 791 1202.5 774.0Q1242 757 1271.0 728.0Q1300 699 1317.0 659.5Q1334 620 1334 575Q1334 486 1271 423Q1216 367 1164.0 310.0Q1112 253 1059 196L1138 -431H328V194Q293 247 274.5 307.5Q256 368 256 431V1042Q256 1076 266.5 1108.0Q277 1140 296.0 1167.0Q315 1194 341.5 1214.5Q368 1235 401 1246Q405 1286 424.0 1321.5Q443 1357 471.5 1382.5Q500 1408 537.0 1423.0Q574 1438 615 1438Q650 1438 687 1425L691 1427Q689 1436 688.0 1445.5Q687 1455 687 1464Q687 1499 700.5 1532.5Q714 1566 738 1590L893 1745Q945 1797 1020 1797Q1051 1797 1079.5 1786.5Q1108 1776 1132 1757Q1152 1808 1197.5 1838.5Q1243 1869 1298 1869H1514Q1571 1869 1615.0 1838.5Q1659 1808 1680 1757Q1704 1776 1732.5 1786.5Q1761 1797 1792 1797Q1867 1797 1919 1745L2072 1592Q2125 1539 2125 1467Q2125 1449 2120 1427L2125 1425Q2162 1438 2197 1438Q2238 1438 2275.0 1423.0Q2312 1408 2340.5 1382.5Q2369 1357 2387.5 1321.5Q2406 1286 2411 1246Z" style="fill:#000000;stroke:none" transform="scale(1,-1) translate(0,-256)" /></svg>