<?xml version="1.0" encoding="utf-8" ?>
<svg baseProfile="full" height="256" version="1.1" width="256" xmlns="http://www.w3.org/2000/svg" xmlns:ev="http://www.w3.org/2001/xml-events" xmlns:xlink="http://www.w3.org/1999/xlink"><defs /><path d="M759 719H687V1222Q687 1252 708.0 1273.0Q729 1294 759 1294ZM2053 719H1981V1222Q1981 1252 2002.0 1273.0Q2023 1294 2053 1294ZM2197 719H2125V1222Q2125 1252 2146.0 1273.0Q2167 1294 2197 1294ZM615 719H543V1222Q543 1251 564.5 1272.5Q586 1294 615 1294ZM903 719H831V1150Q831 1180 852.0 1201.0Q873 1222 903 1222ZM945 503H903Q858 503 819.0 486.0Q780 469 750.5 440.0Q721 411 704.0 372.0Q687 333 687 288H615Q615 348 637.5 400.0Q660 452 699.0 491.0Q738 530 790.5 552.5Q843 575 903 575H975V533ZM1909 575Q1968 575 2020.5 552.5Q2073 530 2112.0 491.0Q2151 452 2174.0 400.0Q2197 348 2197 288H2125Q2125 333 2108.0 372.0Q2091 411 2061.5 440.0Q2032 469 1993.0 486.0Q1954 503 1909 503H1867L1837 533V575ZM2340 719H2268V1042Q2268 1071 2289.5 1092.5Q2311 1114 2340 1114Z" style="fill:#d48c00;stroke:none" transform="scale(1,-1) translate(0,-256)" /></svg>