<?xml version="1.0" encoding="utf-8" ?>
<svg baseProfile="full" height="256" version="1.1" width="256" xmlns="http://www.w3.org/2000/svg" xmlns:ev="http://www.w3.org/2001/xml-events" xmlns:xlink="http://www.w3.org/1999/xlink"><defs /><path d="M2340 1114Q2370 1114 2391.0 1093.0Q2412 1072 2412 1042V431Q2412 372 2389.5 319.5Q2367 267 2328.0 228.0Q2289 189 2236.5 166.5Q2184 144 2125 144Q2068 144 2015.0 165.5Q1962 187 1921 228Q1874 275 1831.0 323.5Q1788 372 1743 420L1643 524Q1622 547 1622 575Q1622 604 1643.0 625.5Q1664 647 1693 647Q1723 647 1744 626L1837 533L1876 548L1837 575V1150Q1837 1180 1858.0 1201.0Q1879 1222 1909 1222Q1939 1222 1960.0 1201.0Q1981 1180 1981 1150L2053 1294Q2083 1294 2104.0 1273.0Q2125 1252 2125 1222L2197 1294Q2226 1294 2247.0 1272.5Q2268 1251 2268 1222V1042ZM1118 647Q1148 647 1169.0 625.5Q1190 604 1190 575Q1190 547 1169 524L1069 420Q1024 372 980.5 323.5Q937 275 890 228Q848 187 796.5 165.5Q745 144 687 144Q628 144 575.5 166.5Q523 189 484.0 228.0Q445 267 422.5 319.5Q400 372 400 431V1042Q400 1072 421.0 1093.0Q442 1114 472 1114Q501 1114 522.0 1092.5Q543 1071 543 1042L615 1294Q645 1294 666.0 1273.0Q687 1252 687 1222L759 1294Q784 1294 798.0 1284.5Q812 1275 819.5 1260.0Q827 1245 829.0 1226.0Q831 1207 831 1188V1150L903 1222Q933 1222 954.0 1201.0Q975 1180 975 1150V575L958 552L975 533L1068 626Q1089 647 1118 647Z" style="fill:#ffc83d;stroke:none" transform="scale(1,-1) translate(0,-256)" /></svg>