<?xml version="1.0" encoding="utf-8" ?>
<svg baseProfile="full" height="256" version="1.1" width="256" xmlns="http://www.w3.org/2000/svg" xmlns:ev="http://www.w3.org/2001/xml-events" xmlns:xlink="http://www.w3.org/1999/xlink"><defs /><path d="M2412 1004Q2412 998 2410 988Q2392 971 2380.5 954.0Q2369 937 2363.0 918.5Q2357 900 2355.0 879.5Q2353 859 2353 835Q2353 802 2359 769Q2353 756 2346.0 743.5Q2339 731 2331 719H481Q462 746 448.0 779.0Q434 812 424.5 848.0Q415 884 409.5 920.0Q404 956 402 988Q426 1011 440.0 1034.0Q454 1057 462.0 1081.0Q470 1105 472.5 1132.0Q475 1159 475 1191Q475 1211 460.5 1226.0Q446 1241 432 1252Q466 1358 530.0 1445.0Q594 1532 680.0 1594.5Q766 1657 869.0 1691.0Q972 1725 1083 1725H1305L1447 1667L1729 1725H1758Q1795 1725 1834.5 1718.5Q1874 1712 1913.0 1700.5Q1952 1689 1989.5 1673.5Q2027 1658 2059 1640Q2066 1611 2077.5 1588.5Q2089 1566 2103.5 1545.5Q2118 1525 2135.5 1506.0Q2153 1487 2171 1466Q2220 1409 2271.5 1356.5Q2323 1304 2379 1253Q2399 1192 2405.5 1130.0Q2412 1068 2412 1004Z" style="fill:#ffffff;stroke:none" transform="scale(1,-1) translate(0,-256)" /></svg>