<?xml version="1.0" encoding="utf-8" ?>
<svg baseProfile="full" height="256" version="1.1" width="256" xmlns="http://www.w3.org/2000/svg" xmlns:ev="http://www.w3.org/2001/xml-events" xmlns:xlink="http://www.w3.org/1999/xlink"><defs /><path d="M2120 861 2197 935H2233Q2255 935 2274.5 926.5Q2294 918 2308.5 903.0Q2323 888 2331.5 868.5Q2340 849 2340 827V611Q2340 589 2331.5 569.5Q2323 550 2308.5 535.0Q2294 520 2274.5 511.5Q2255 503 2233 503H2197Q2197 391 2168.0 294.0Q2139 197 2086.5 117.0Q2034 37 1961.0 -25.5Q1888 -88 1800.0 -131.0Q1712 -174 1612.0 -196.5Q1512 -219 1406 -219Q1300 -219 1200.0 -196.5Q1100 -174 1012.0 -131.0Q924 -88 851.0 -25.5Q778 37 725.5 117.0Q673 197 644.0 294.0Q615 391 615 503H579Q557 503 537.5 511.5Q518 520 503.5 535.0Q489 550 480.5 569.5Q472 589 472 611V827Q472 849 480.5 868.5Q489 888 503.5 903.0Q518 918 537.5 926.5Q557 935 579 935H759L1406 1286L2053 935Q2067 915 2085.0 897.0Q2103 879 2120 861Z" style="fill:#ffc83d;stroke:none" transform="scale(1,-1) translate(0,-256)" /></svg>