<?xml version="1.0" encoding="utf-8" ?>
<svg baseProfile="full" height="256" version="1.1" width="256" xmlns="http://www.w3.org/2000/svg" xmlns:ev="http://www.w3.org/2001/xml-events" xmlns:xlink="http://www.w3.org/1999/xlink"><defs /><path d="M1011 934Q1033 934 1052.5 925.5Q1072 917 1086.5 902.5Q1101 888 1109.5 868.5Q1118 849 1118 827V683Q1118 661 1109.5 641.5Q1101 622 1087.0 607.0Q1073 592 1053.0 583.5Q1033 575 1011 575Q988 575 968.5 583.5Q949 592 934.5 606.5Q920 621 911.5 640.5Q903 660 903 683V827Q903 849 911.5 869.0Q920 889 935.0 903.0Q950 917 969.5 925.5Q989 934 1011 934ZM1801 934Q1823 934 1842.5 925.5Q1862 917 1877.0 903.0Q1892 889 1900.5 869.0Q1909 849 1909 827V683Q1909 660 1900.5 640.5Q1892 621 1877.5 606.5Q1863 592 1843.0 583.5Q1823 575 1801 575Q1779 575 1759.5 583.5Q1740 592 1725.0 607.0Q1710 622 1701.5 641.5Q1693 661 1693 683V827Q1693 849 1701.5 868.5Q1710 888 1725.0 902.5Q1740 917 1759.5 925.5Q1779 934 1801 934Z" style="fill:#000000;stroke:none" transform="scale(1,-1) translate(0,-256)" /></svg>