<?xml version="1.0" encoding="utf-8" ?>
<svg baseProfile="full" height="256" version="1.1" width="256" xmlns="http://www.w3.org/2000/svg" xmlns:ev="http://www.w3.org/2001/xml-events" xmlns:xlink="http://www.w3.org/1999/xlink"><defs /><path d="M1190 -431Q1041 -431 910.5 -374.5Q780 -318 682.5 -220.0Q585 -122 528.5 8.5Q472 139 472 288V384Q406 415 367.0 476.5Q328 538 328 611V698Q289 778 272.5 866.0Q256 954 256 1042Q256 1155 286.0 1260.5Q316 1366 370.0 1458.0Q424 1550 499.5 1625.5Q575 1701 667.0 1755.0Q759 1809 864.5 1839.0Q970 1869 1083 1869H1729Q1843 1869 1949.0 1839.5Q2055 1810 2146.5 1756.0Q2238 1702 2313.5 1626.5Q2389 1551 2443.0 1459.5Q2497 1368 2526.5 1262.0Q2556 1156 2556 1042Q2556 954 2539.0 866.0Q2522 778 2484 698V611Q2484 538 2445.0 476.5Q2406 415 2340 384V288Q2340 189 2314.5 97.0Q2289 5 2242.0 -74.5Q2195 -154 2129.5 -220.0Q2064 -286 1984.0 -332.5Q1904 -379 1812.5 -405.0Q1721 -431 1622 -431Z" style="fill:#000000;stroke:none" transform="scale(1,-1) translate(0,-256)" /></svg>