<?xml version="1.0" encoding="utf-8" ?>
<svg baseProfile="full" height="256" version="1.1" width="256" xmlns="http://www.w3.org/2000/svg" xmlns:ev="http://www.w3.org/2001/xml-events" xmlns:xlink="http://www.w3.org/1999/xlink"><defs /><path d="M2197 935V288Q2197 169 2151.5 64.5Q2106 -40 2028.0 -118.0Q1950 -196 1845.0 -241.5Q1740 -287 1622 -287H1190Q1071 -287 966.5 -241.5Q862 -196 784.0 -118.0Q706 -40 660.5 64.5Q615 169 615 288V935H759V360Q759 330 770.0 303.5Q781 277 800.5 257.5Q820 238 846.5 227.0Q873 216 903 216Q903 246 914.0 272.0Q925 298 944.5 317.5Q964 337 990.5 348.5Q1017 360 1047 360H1765Q1795 360 1821.0 348.5Q1847 337 1866.5 317.5Q1886 298 1897.5 272.0Q1909 246 1909 216Q1939 216 1965.0 227.0Q1991 238 2010.5 257.5Q2030 277 2041.5 303.5Q2053 330 2053 360V935Z" style="fill:#8e562e;stroke:none" transform="scale(1,-1) translate(0,-256)" /></svg>