<?xml version="1.0" encoding="utf-8" ?>
<svg baseProfile="full" height="256" version="1.1" width="256" xmlns="http://www.w3.org/2000/svg" xmlns:ev="http://www.w3.org/2001/xml-events" xmlns:xlink="http://www.w3.org/1999/xlink"><defs /><path d="M1694 216Q1723 216 1744.5 194.5Q1766 173 1766 144Q1766 118 1745.0 97.0Q1724 76 1690.5 60.0Q1657 44 1615.5 32.5Q1574 21 1534.0 14.0Q1494 7 1460.0 3.5Q1426 0 1406 0Q1386 0 1352.0 3.5Q1318 7 1278.0 14.0Q1238 21 1196.5 32.5Q1155 44 1121.5 60.0Q1088 76 1067.0 97.0Q1046 118 1046 144Q1046 173 1067.5 194.5Q1089 216 1118 216Q1127 216 1135.5 213.5Q1144 211 1152 207Q1185 193 1215.0 181.5Q1245 170 1275.5 162.0Q1306 154 1338.0 149.5Q1370 145 1406 145Q1442 145 1474.0 149.5Q1506 154 1536.5 162.0Q1567 170 1597.0 181.5Q1627 193 1660 207Q1668 211 1676.5 213.5Q1685 216 1694 216Z" style="fill:#f7894a;stroke:none" transform="scale(1,-1) translate(0,-256)" /></svg>