<?xml version="1.0" encoding="utf-8" ?>
<svg baseProfile="full" height="256" version="1.1" width="256" xmlns="http://www.w3.org/2000/svg" xmlns:ev="http://www.w3.org/2001/xml-events" xmlns:xlink="http://www.w3.org/1999/xlink"><defs /><path d="M1729 1725Q1737 1725 1743.5 1724.5Q1750 1724 1758 1724L402 988Q401 1002 400.5 1015.0Q400 1028 400 1042Q400 1096 408.0 1148.5Q416 1201 433 1252L1305 1725ZM2410 988Q2405 931 2393.5 876.0Q2382 821 2359 769Q2354 771 2349.5 773.5Q2345 776 2340 778L1790 964L1406 1286L1634 1409ZM2059 1640Q2174 1577 2256.0 1477.0Q2338 1377 2378 1252L1861 1533Z" style="fill:#e5e5e5;stroke:none" transform="scale(1,-1) translate(0,-256)" /></svg>