<?xml version="1.0" encoding="utf-8" ?>
<svg baseProfile="full" height="256" version="1.1" width="256" xmlns="http://www.w3.org/2000/svg" xmlns:ev="http://www.w3.org/2001/xml-events" xmlns:xlink="http://www.w3.org/1999/xlink"><defs /><path d="M1765 288Q1765 258 1744.0 237.0Q1723 216 1693 216Q1664 216 1643.0 237.5Q1622 259 1622 288Q1622 317 1643.0 338.5Q1664 360 1693 360Q1722 360 1743.5 338.5Q1765 317 1765 288ZM2197 288Q2197 259 2175.5 237.5Q2154 216 2125 216Q2095 216 2074.0 237.0Q2053 258 2053 288Q2053 317 2074.5 338.5Q2096 360 2125 360Q2154 360 2175.5 338.5Q2197 317 2197 288Z" style="fill:#cccccc;stroke:none" transform="scale(1,-1) translate(0,-256)" /></svg>