<?xml version="1.0" encoding="utf-8" ?>
<svg baseProfile="full" height="256" version="1.1" width="256" xmlns="http://www.w3.org/2000/svg" xmlns:ev="http://www.w3.org/2001/xml-events" xmlns:xlink="http://www.w3.org/1999/xlink"><defs /><path d="M1981 -431V-287H831V-431H400V-249Q333 -210 294.5 -144.0Q256 -78 256 0V935Q256 975 267.5 1014.0Q279 1053 300.0 1087.0Q321 1121 350.5 1148.0Q380 1175 417 1193Q431 1219 451.5 1239.5Q472 1260 498 1274L1505 1778Q1545 1797 1586 1797Q1623 1797 1655.5 1783.0Q1688 1769 1712.5 1744.5Q1737 1720 1751.0 1687.0Q1765 1654 1765 1617Q1765 1566 1738.0 1523.0Q1711 1480 1666 1457L1197 1222H2268Q2326 1222 2378.5 1199.0Q2431 1176 2470.5 1137.0Q2510 1098 2533.0 1045.5Q2556 993 2556 935V0Q2556 -78 2517.5 -144.0Q2479 -210 2412 -249V-431Z" style="fill:#000000;stroke:none" transform="scale(1,-1) translate(0,-256)" /></svg>