<?xml version="1.0" encoding="utf-8" ?>
<svg baseProfile="full" height="256" version="1.1" width="256" xmlns="http://www.w3.org/2000/svg" xmlns:ev="http://www.w3.org/2001/xml-events" xmlns:xlink="http://www.w3.org/1999/xlink"><defs /><path d="M2268 -144H543Q513 -144 487.0 -132.5Q461 -121 441.5 -101.5Q422 -82 411.0 -56.0Q400 -30 400 0L434 36L400 72V144L424 180L400 216V288L425 315L400 360V431L415 467L400 503V575L426 611L400 647V719L418 755L400 791V863L416 899L400 935Q400 965 411.0 991.0Q422 1017 441.5 1036.5Q461 1056 487.0 1067.0Q513 1078 543 1078H2268Q2298 1078 2324.0 1067.0Q2350 1056 2369.5 1036.5Q2389 1017 2400.5 991.0Q2412 965 2412 935V0Q2412 -30 2400.5 -56.0Q2389 -82 2369.5 -101.5Q2350 -121 2324.0 -132.5Q2298 -144 2268 -144Z" style="fill:#e5e5e5;stroke:none" transform="scale(1,-1) translate(0,-256)" /></svg>