<?xml version="1.0" encoding="utf-8" ?>
<svg baseProfile="full" height="256" version="1.1" width="256" xmlns="http://www.w3.org/2000/svg" xmlns:ev="http://www.w3.org/2001/xml-events" xmlns:xlink="http://www.w3.org/1999/xlink"><defs /><path d="M1586 1653Q1600 1653 1611.0 1642.5Q1622 1632 1622 1618Q1622 1609 1616.0 1599.0Q1610 1589 1602 1585L615 1092V1057H543V1114Q543 1120 546.0 1126.5Q549 1133 552 1138Q554 1140 556.0 1142.0Q558 1144 560 1145Q657 1196 755.0 1244.0Q853 1292 951 1341Q1106 1419 1260.0 1495.5Q1414 1572 1570 1649Q1577 1653 1586 1653Z" style="fill:#cccccc;stroke:none" transform="scale(1,-1) translate(0,-256)" /></svg>