<?xml version="1.0" encoding="utf-8" ?>
<svg baseProfile="full" height="256" version="1.1" width="256" xmlns="http://www.w3.org/2000/svg" xmlns:ev="http://www.w3.org/2001/xml-events" xmlns:xlink="http://www.w3.org/1999/xlink"><defs /><path d="M1981 288Q1981 318 1992.5 344.0Q2004 370 2023.5 389.5Q2043 409 2069.0 420.0Q2095 431 2125 431Q2155 431 2181.0 420.0Q2207 409 2226.5 389.5Q2246 370 2257.0 344.0Q2268 318 2268 288Q2268 258 2257.0 232.0Q2246 206 2226.5 186.5Q2207 167 2181.0 155.5Q2155 144 2125 144Q2095 144 2068.5 155.0Q2042 166 2022.5 185.5Q2003 205 1992.0 231.5Q1981 258 1981 288ZM1837 288Q1837 258 1825.5 231.5Q1814 205 1794.5 185.5Q1775 166 1749.0 155.0Q1723 144 1693 144Q1663 144 1637.0 155.5Q1611 167 1591.5 186.5Q1572 206 1561.0 232.0Q1550 258 1550 288Q1550 318 1561.0 344.0Q1572 370 1591.5 389.5Q1611 409 1637.0 420.0Q1663 431 1693 431Q1723 431 1749.0 420.0Q1775 409 1794.5 389.5Q1814 370 1825.5 344.0Q1837 318 1837 288ZM400 72H1226Q1241 72 1251.5 61.5Q1262 51 1262 36Q1262 21 1251.5 10.5Q1241 0 1226 0H400ZM400 791H1226Q1241 791 1251.5 780.5Q1262 770 1262 755Q1262 740 1251.5 729.5Q1241 719 1226 719H400ZM400 647H1226Q1241 647 1251.5 636.5Q1262 626 1262 611Q1262 596 1251.5 585.5Q1241 575 1226 575H400ZM400 216H1226Q1241 216 1251.5 205.5Q1262 195 1262 180Q1262 165 1251.5 154.5Q1241 144 1226 144H400ZM400 503H1226Q1241 503 1251.5 492.5Q1262 482 1262 467Q1262 453 1251.0 442.0Q1240 431 1226 431H400ZM400 935H1226Q1240 935 1251.0 924.0Q1262 913 1262 899Q1262 884 1251.5 873.5Q1241 863 1226 863H400ZM400 360H1226Q1240 360 1251.0 349.0Q1262 338 1262 324Q1262 309 1251.5 298.5Q1241 288 1226 288H400Z" style="fill:#757575;stroke:none" transform="scale(1,-1) translate(0,-256)" /></svg>