<?xml version="1.0" encoding="utf-8" ?>
<svg baseProfile="full" height="256" version="1.1" width="256" xmlns="http://www.w3.org/2000/svg" xmlns:ev="http://www.w3.org/2001/xml-events" xmlns:xlink="http://www.w3.org/1999/xlink"><defs /><path d="M1765 -359Q1702 -359 1633.5 -350.5Q1565 -342 1499.0 -322.0Q1433 -302 1374.0 -269.5Q1315 -237 1270 -189Q1215 -203 1159.5 -209.0Q1104 -215 1047 -215Q987 -215 927.0 -208.0Q867 -201 809 -186Q750 -171 690.0 -143.0Q630 -115 581.5 -74.5Q533 -34 502.5 20.5Q472 75 472 144V297Q424 309 384.5 335.5Q345 362 316.5 399.0Q288 436 272.0 481.0Q256 526 256 575V935Q256 1015 297.0 1083.0Q338 1151 409 1188Q403 1211 401.5 1235.0Q400 1259 400 1283V1330Q400 1406 434.0 1465.5Q468 1525 522.0 1569.5Q576 1614 642.0 1644.0Q708 1674 772 1691Q840 1709 909.0 1717.0Q978 1725 1047 1725Q1113 1725 1184.5 1717.0Q1256 1709 1325.5 1690.0Q1395 1671 1459.0 1640.5Q1523 1610 1575 1565Q1667 1581 1765 1581Q1834 1581 1903.0 1573.0Q1972 1565 2040 1547Q2104 1530 2170.0 1500.0Q2236 1470 2290.0 1425.5Q2344 1381 2378.0 1321.5Q2412 1262 2412 1186V1114Q2412 1079 2403 1045Q2474 1007 2515.0 939.5Q2556 872 2556 791V431Q2556 382 2540.0 337.0Q2524 292 2495.5 255.0Q2467 218 2427.0 191.5Q2387 165 2340 153V0Q2340 -69 2309.5 -123.5Q2279 -178 2230.5 -218.5Q2182 -259 2122.0 -287.0Q2062 -315 2003 -330Q1945 -345 1885.0 -352.0Q1825 -359 1765 -359Z" style="fill:#000000;stroke:none" transform="scale(1,-1) translate(0,-256)" /></svg>