<?xml version="1.0" encoding="utf-8" ?>
<svg baseProfile="full" height="256" version="1.1" width="256" xmlns="http://www.w3.org/2000/svg" xmlns:ev="http://www.w3.org/2001/xml-events" xmlns:xlink="http://www.w3.org/1999/xlink"><defs /><path d="M1047 1581Q1149 1581 1248 1560Q1275 1554 1307.5 1544.0Q1340 1534 1373.5 1520.0Q1407 1506 1439.0 1487.0Q1471 1468 1495.5 1444.5Q1520 1421 1535.0 1392.5Q1550 1364 1550 1330V1258Q1550 1227 1537.0 1200.5Q1524 1174 1503.0 1152.0Q1482 1130 1456.5 1112.5Q1431 1095 1406 1082V863H1334Q1334 892 1312.5 913.5Q1291 935 1262 935Q1233 935 1211.5 913.5Q1190 892 1190 863Q1190 833 1169.0 812.0Q1148 791 1118 791Q1089 791 1068.0 812.5Q1047 834 1047 863Q1047 876 1047.5 888.0Q1048 900 1048 912Q1048 928 1046.0 943.5Q1044 959 1037.0 971.5Q1030 984 1017.5 993.5Q1005 1003 984 1008Q981 1009 975 1009Q942 1011 897.5 1018.5Q853 1026 805.0 1039.0Q757 1052 710.0 1071.5Q663 1091 626.0 1118.0Q589 1145 566.0 1179.5Q543 1214 543 1258V1330Q543 1364 558.0 1392.5Q573 1421 597.5 1444.5Q622 1468 654.0 1487.0Q686 1506 719.5 1520.0Q753 1534 785.5 1544.0Q818 1554 845 1560Q944 1581 1047 1581Z" style="fill:#f2f2f2;stroke:none" transform="scale(1,-1) translate(0,-256)" /></svg>