<?xml version="1.0" encoding="utf-8" ?>
<svg baseProfile="full" height="256" version="1.1" width="256" xmlns="http://www.w3.org/2000/svg" xmlns:ev="http://www.w3.org/2001/xml-events" xmlns:xlink="http://www.w3.org/1999/xlink"><defs /><path d="M1765 1438Q1868 1438 1967 1417Q2007 1408 2059.0 1390.0Q2111 1372 2157.5 1343.5Q2204 1315 2236.0 1276.0Q2268 1237 2268 1186V1114Q2268 1071 2245.0 1036.5Q2222 1002 2185.0 975.0Q2148 948 2101.0 928.0Q2054 908 2006.0 895.0Q1958 882 1913.5 874.5Q1869 867 1837 865H1828Q1807 862 1794.0 852.0Q1781 842 1774.5 827.5Q1768 813 1766.0 796.0Q1764 779 1764 762Q1764 751 1764.5 740.0Q1765 729 1765 719Q1765 689 1744.0 668.0Q1723 647 1693 647Q1664 647 1643.0 668.5Q1622 690 1622 719Q1622 748 1600.5 769.5Q1579 791 1550 791Q1526 791 1511.5 782.0Q1497 773 1489.5 758.5Q1482 744 1479.5 725.5Q1477 707 1477 688Q1477 677 1477.5 666.5Q1478 656 1478 647Q1478 617 1457.0 596.0Q1436 575 1406 575Q1376 575 1355.0 596.0Q1334 617 1334 647V863Q1334 905 1322.5 940.0Q1311 975 1297.5 1005.5Q1284 1036 1273.0 1062.5Q1262 1089 1262 1114V1186Q1262 1237 1294.0 1276.0Q1326 1315 1372.5 1343.5Q1419 1372 1471.0 1390.0Q1523 1408 1563 1417Q1662 1438 1765 1438Z" style="fill:#ffffff;stroke:none" transform="scale(1,-1) translate(0,-256)" /></svg>