<?xml version="1.0" encoding="utf-8" ?>
<svg baseProfile="full" height="256" version="1.1" width="256" xmlns="http://www.w3.org/2000/svg" xmlns:ev="http://www.w3.org/2001/xml-events" xmlns:xlink="http://www.w3.org/1999/xlink"><defs /><path d="M1693 935H1837V216Q1837 186 1816.0 165.0Q1795 144 1765 144Q1736 144 1714.5 165.5Q1693 187 1693 216ZM2053 1006H2197V288Q2197 259 2175.5 237.5Q2154 216 2125 216Q2095 216 2074.0 237.0Q2053 258 2053 288ZM1334 647H1478V288Q1478 258 1457.0 237.0Q1436 216 1406 216Q1376 216 1355.0 237.0Q1334 258 1334 288Z" style="fill:#ffb900;stroke:none" transform="scale(1,-1) translate(0,-256)" /></svg>