<?xml version="1.0" encoding="utf-8" ?>
<svg baseProfile="full" height="256" version="1.1" width="256" xmlns="http://www.w3.org/2000/svg" xmlns:ev="http://www.w3.org/2001/xml-events" xmlns:xlink="http://www.w3.org/1999/xlink"><defs /><path d="M2197 144V0Q2197 -44 2168.5 -77.5Q2140 -111 2099.5 -135.5Q2059 -160 2013.0 -175.5Q1967 -191 1933 -198Q1891 -207 1849.0 -211.0Q1807 -215 1765 -215Q1720 -215 1675.5 -210.5Q1631 -206 1587 -196Q1553 -189 1509.5 -173.0Q1466 -157 1427.0 -133.0Q1388 -109 1361.0 -76.0Q1334 -43 1334 0V144ZM2268 935Q2298 935 2324.0 923.5Q2350 912 2369.5 892.5Q2389 873 2400.5 847.0Q2412 821 2412 791V431Q2412 401 2400.5 375.0Q2389 349 2369.5 329.5Q2350 310 2324.0 299.0Q2298 288 2268 288H2125V431H2268V791H2125V935Z" style="fill:#f2f2f2;stroke:none" transform="scale(1,-1) translate(0,-256)" /></svg>