<?xml version="1.0" encoding="utf-8" ?>
<svg baseProfile="full" height="256" version="1.1" width="256" xmlns="http://www.w3.org/2000/svg" xmlns:ev="http://www.w3.org/2001/xml-events" xmlns:xlink="http://www.w3.org/1999/xlink"><defs /><path d="M1478 1078V360Q1478 317 1451.5 283.5Q1425 250 1386.0 226.0Q1347 202 1303.0 186.5Q1259 171 1225 163Q1181 153 1136.5 148.5Q1092 144 1047 144Q1005 144 963.0 148.0Q921 152 879 161Q844 168 798.5 183.5Q753 199 712.0 223.5Q671 248 643.0 282.0Q615 316 615 360Q615 371 614.5 383.0Q614 395 614 407Q614 413 614.0 419.0Q614 425 615 431L671 1078Z" style="fill:#d48c00;stroke:none" transform="scale(1,-1) translate(0,-256)" /></svg>