<?xml version="1.0" encoding="utf-8" ?>
<svg baseProfile="full" height="256" version="1.1" width="256" xmlns="http://www.w3.org/2000/svg" xmlns:ev="http://www.w3.org/2001/xml-events" xmlns:xlink="http://www.w3.org/1999/xlink"><defs /><path d="M2147 935 2197 288Q2198 282 2198.0 276.0Q2198 270 2198 264Q2198 252 2197.5 239.5Q2197 227 2197 216Q2197 172 2168.5 138.5Q2140 105 2099.5 80.5Q2059 56 2013.0 40.0Q1967 24 1933 17Q1891 8 1849.0 4.0Q1807 0 1765 0Q1720 0 1675.5 4.5Q1631 9 1587 19Q1553 27 1509.5 42.5Q1466 58 1427.0 82.5Q1388 107 1361.0 140.0Q1334 173 1334 216Q1334 227 1333.5 239.5Q1333 252 1333 264Q1333 270 1333.0 276.5Q1333 283 1334 288L1417 935ZM759 431Q759 402 737.5 381.0Q716 360 687 360Q658 360 636.5 381.0Q615 402 615 431V1150H759ZM1118 360Q1118 331 1097.0 309.5Q1076 288 1047 288Q1017 288 996.0 309.0Q975 330 975 360V1078H1118Z" style="fill:#eba300;stroke:none" transform="scale(1,-1) translate(0,-256)" /></svg>