<?xml version="1.0" encoding="utf-8" ?>
<svg baseProfile="full" height="256" version="1.1" width="256" xmlns="http://www.w3.org/2000/svg" xmlns:ev="http://www.w3.org/2001/xml-events" xmlns:xlink="http://www.w3.org/1999/xlink"><defs /><path d="M1478 288V144Q1478 101 1451.0 68.0Q1424 35 1385.0 10.5Q1346 -14 1302.5 -29.5Q1259 -45 1225 -53Q1181 -63 1136.5 -67.5Q1092 -72 1047 -72Q1005 -72 963.0 -68.0Q921 -64 879 -55Q844 -48 798.5 -32.0Q753 -16 712.0 8.5Q671 33 643.0 66.5Q615 100 615 144V288ZM543 1078H687V935H543V575H687V431H543Q513 431 487.0 442.5Q461 454 441.5 473.5Q422 493 411.0 519.0Q400 545 400 575V935Q400 965 411.0 991.0Q422 1017 441.5 1036.5Q461 1056 487.0 1067.0Q513 1078 543 1078Z" style="fill:#e5e5e5;stroke:none" transform="scale(1,-1) translate(0,-256)" /></svg>