<?xml version="1.0" encoding="utf-8" ?>
<svg baseProfile="full" height="256" version="1.1" width="256" xmlns="http://www.w3.org/2000/svg" xmlns:ev="http://www.w3.org/2001/xml-events" xmlns:xlink="http://www.w3.org/1999/xlink"><defs /><path d="M687 935Q677 935 667.0 934.5Q657 934 647 934Q628 934 609.5 936.5Q591 939 576.0 946.5Q561 954 552.0 968.0Q543 982 543 1006V1150Q543 1174 552.5 1188.5Q562 1203 577.0 1210.5Q592 1218 611.0 1220.0Q630 1222 650 1222H687Q714 1321 756.5 1399.5Q799 1478 861.0 1533.5Q923 1589 1005.5 1618.5Q1088 1648 1195 1648Q1268 1648 1330.0 1634.5Q1392 1621 1444.5 1592.5Q1497 1564 1542.0 1519.5Q1587 1475 1627 1414Q1643 1389 1655.5 1367.5Q1668 1346 1676.0 1324.0Q1684 1302 1688.5 1277.5Q1693 1253 1693 1222H1711Q1732 1222 1754.0 1220.5Q1776 1219 1794.5 1212.5Q1813 1206 1825.0 1191.5Q1837 1177 1837 1150V1006Q1837 982 1828.0 967.5Q1819 953 1804.0 946.0Q1789 939 1770.0 937.0Q1751 935 1732 935H1693Q1693 831 1653.5 739.5Q1614 648 1545.5 579.5Q1477 511 1385.5 471.0Q1294 431 1190 431Q1086 431 994.0 470.5Q902 510 834.0 578.5Q766 647 726.5 739.0Q687 831 687 935ZM1550 288Q1640 288 1718.5 254.0Q1797 220 1855.5 161.5Q1914 103 1947.5 24.5Q1981 -54 1981 -144V-287H400V-144Q400 -54 433.5 24.5Q467 103 525.5 161.5Q584 220 662.5 254.0Q741 288 831 288Z" style="fill:#757575;stroke:none" transform="scale(1,-1) translate(0,-256)" /></svg>