<?xml version="1.0" encoding="utf-8" ?>
<svg baseProfile="full" height="256" version="1.1" width="256" xmlns="http://www.w3.org/2000/svg" xmlns:ev="http://www.w3.org/2001/xml-events" xmlns:xlink="http://www.w3.org/1999/xlink"><defs /><path d="M1593 429Q1705 421 1802.0 372.5Q1899 324 1971.0 246.5Q2043 169 2084.0 68.5Q2125 -32 2125 -144V-431H256V-144Q256 -32 297.0 68.5Q338 169 409.5 246.5Q481 324 578.0 372.5Q675 421 787 429Q699 499 640.0 594.0Q581 689 558 799Q523 809 494.0 829.0Q465 849 444.0 876.0Q423 903 411.5 936.5Q400 970 400 1006V1150Q400 1186 411.5 1219.5Q423 1253 444.0 1280.5Q465 1308 494.0 1328.0Q523 1348 558 1358Q582 1469 641.0 1563.0Q700 1657 784.0 1725.0Q868 1793 972.0 1831.0Q1076 1869 1190 1869Q1304 1869 1408.0 1831.0Q1512 1793 1596.5 1725.0Q1681 1657 1740.0 1563.0Q1799 1469 1823 1358Q1858 1348 1887.0 1328.0Q1916 1308 1937.0 1280.5Q1958 1253 1969.5 1219.5Q1981 1186 1981 1150V1006Q1981 970 1969.5 936.5Q1958 903 1937.0 876.0Q1916 849 1887.0 829.0Q1858 809 1823 799Q1800 690 1740.5 594.0Q1681 498 1593 429Z" style="fill:#000000;stroke:none" transform="scale(1,-1) translate(0,-256)" /></svg>