<?xml version="1.0" encoding="utf-8" ?>
<svg baseProfile="full" height="256" version="1.1" width="256" xmlns="http://www.w3.org/2000/svg" xmlns:ev="http://www.w3.org/2001/xml-events" xmlns:xlink="http://www.w3.org/1999/xlink"><defs /><path d="M1981 1294Q2099 1294 2204.0 1248.5Q2309 1203 2387.0 1125.0Q2465 1047 2510.5 942.0Q2556 837 2556 719V-144H2412V-431H1981V84L1835 230Q1796 201 1764.0 183.5Q1732 166 1701.0 157.0Q1670 148 1639.5 145.5Q1609 143 1573 143Q1552 143 1528.5 143.5Q1505 144 1478 144V13L1406 -59V-431H975V249L791 360H543Q484 360 431.5 382.5Q379 405 340.0 444.0Q301 483 278.5 535.5Q256 588 256 647V707L545 995Q549 1043 570.5 1084.5Q592 1126 626.0 1156.5Q660 1187 703.5 1204.5Q747 1222 795 1222Q826 1222 849.0 1216.0Q872 1210 892.0 1200.5Q912 1191 932.5 1180.0Q953 1169 980 1159Q987 1188 1004.0 1213.0Q1021 1238 1044.0 1256.0Q1067 1274 1095.5 1284.0Q1124 1294 1154 1294Q1222 1294 1273 1249Q1318 1269 1365.0 1281.0Q1412 1293 1461 1293Q1592 1293 1721.0 1293.5Q1850 1294 1981 1294Z" style="fill:#000000;stroke:none" transform="scale(1,-1) translate(0,-256)" /></svg>