<?xml version="1.0" encoding="utf-8" ?>
<svg baseProfile="full" height="256" version="1.1" width="256" xmlns="http://www.w3.org/2000/svg" xmlns:ev="http://www.w3.org/2001/xml-events" xmlns:xlink="http://www.w3.org/1999/xlink"><defs /><path d="M400 647 472 719 687 503H543Q513 503 487.0 514.5Q461 526 441.5 545.5Q422 565 411.0 591.0Q400 617 400 647ZM1154 1150Q1169 1150 1179.5 1139.5Q1190 1129 1190 1114V1006Q1190 976 1179.0 950.0Q1168 924 1148.5 904.5Q1129 885 1103.0 874.0Q1077 863 1047 863H795Q772 863 752.5 871.5Q733 880 718.5 894.5Q704 909 695.5 928.5Q687 948 687 971Q687 993 695.5 1012.5Q704 1032 719.0 1046.5Q734 1061 753.5 1069.5Q773 1078 795 1078Q820 1078 844.5 1066.5Q869 1055 895.0 1041.5Q921 1028 948.5 1017.0Q976 1006 1006 1006H1047Q1074 1006 1088.0 1016.5Q1102 1027 1108.0 1043.0Q1114 1059 1115.5 1078.0Q1117 1097 1120.0 1113.0Q1123 1129 1130.0 1139.5Q1137 1150 1154 1150Z" style="fill:#cccccc;stroke:none" transform="scale(1,-1) translate(0,-256)" /></svg>