<?xml version="1.0" encoding="utf-8" ?>
<svg baseProfile="full" height="256" version="1.1" width="256" xmlns="http://www.w3.org/2000/svg" xmlns:ev="http://www.w3.org/2001/xml-events" xmlns:xlink="http://www.w3.org/1999/xlink"><defs /><path d="M1981 1150Q2070 1150 2148.5 1116.0Q2227 1082 2285.5 1023.5Q2344 965 2378.0 886.5Q2412 808 2412 719V288L2340 227V647L2268 461V-287H2125V144L1839 430Q1820 410 1794.5 385.5Q1769 361 1740.5 339.0Q1712 317 1681.5 302.5Q1651 288 1622 288H1334V72L1262 0V-287H1118V331L831 503H687L490 594L472 719L687 935Q815 950 939.5 971.0Q1064 992 1192 1006Q1216 1037 1247.0 1063.0Q1278 1089 1313.5 1108.0Q1349 1127 1388.0 1138.0Q1427 1149 1466 1149Q1596 1149 1723.5 1149.5Q1851 1150 1981 1150Z" style="fill:#757575;stroke:none" transform="scale(1,-1) translate(0,-256)" /></svg>