<?xml version="1.0" encoding="utf-8" ?>
<svg baseProfile="full" height="256" version="1.1" width="256" xmlns="http://www.w3.org/2000/svg" xmlns:ev="http://www.w3.org/2001/xml-events" xmlns:xlink="http://www.w3.org/1999/xlink"><defs /><path d="M2268 216Q2268 245 2289.5 266.5Q2311 288 2340 288H2412V0Q2382 0 2356.0 11.5Q2330 23 2310.5 42.5Q2291 62 2279.5 88.0Q2268 114 2268 144ZM903 715V863L1148 617Q1128 597 1101.5 586.0Q1075 575 1046 575Q1018 575 992.0 586.0Q966 597 946.5 616.5Q927 636 915.0 661.0Q903 686 903 715Z" style="fill:#383838;stroke:none" transform="scale(1,-1) translate(0,-256)" /></svg>