<?xml version="1.0" encoding="utf-8" ?>
<svg baseProfile="full" height="256" version="1.1" width="256" xmlns="http://www.w3.org/2000/svg" xmlns:ev="http://www.w3.org/2001/xml-events" xmlns:xlink="http://www.w3.org/1999/xlink"><defs /><path d="M1406 0Q1281 0 1166.0 41.0Q1051 82 954 160Q905 145 849.5 129.0Q794 113 736.5 100.5Q679 88 622.0 80.0Q565 72 514 72Q466 72 419.5 83.5Q373 95 336.5 119.5Q300 144 278.0 183.0Q256 222 256 277Q256 322 279.0 367.5Q302 413 339.5 457.5Q377 502 424.0 543.0Q471 584 519.0 620.0Q567 656 611.5 685.5Q656 715 688 735Q690 832 717.0 922.0Q744 1012 791.5 1090.5Q839 1169 904.0 1233.0Q969 1297 1048.5 1342.5Q1128 1388 1218.5 1413.0Q1309 1438 1406 1438Q1529 1438 1645.0 1396.5Q1761 1355 1857 1278Q1906 1293 1961.5 1309.0Q2017 1325 2075.0 1337.5Q2133 1350 2190.0 1358.0Q2247 1366 2298 1366Q2347 1366 2393.5 1354.5Q2440 1343 2476.0 1318.0Q2512 1293 2534.0 1254.0Q2556 1215 2556 1160Q2556 1115 2533.0 1069.5Q2510 1024 2472.5 980.0Q2435 936 2388.0 895.0Q2341 854 2293.0 818.0Q2245 782 2200.5 752.5Q2156 723 2124 703Q2122 606 2095.0 516.0Q2068 426 2020.5 348.0Q1973 270 1908.0 206.0Q1843 142 1763.5 96.0Q1684 50 1593.5 25.0Q1503 0 1406 0Z" style="fill:#000000;stroke:none" transform="scale(1,-1) translate(0,-256)" /></svg>