<?xml version="1.0" encoding="utf-8" ?>
<svg baseProfile="full" height="256" version="1.1" width="256" xmlns="http://www.w3.org/2000/svg" xmlns:ev="http://www.w3.org/2001/xml-events" xmlns:xlink="http://www.w3.org/1999/xlink"><defs /><path d="M850 570Q977 607 1112.5 658.0Q1248 709 1382.0 770.5Q1516 832 1643.0 901.5Q1770 971 1881 1043Q1930 971 1955.5 888.5Q1981 806 1981 719Q1981 692 1978.5 665.0Q1976 638 1971 611Q1769 494 1556.5 395.0Q1344 296 1124 218Q1023 275 951.5 366.5Q880 458 850 570ZM860 899Q889 987 943.0 1060.0Q997 1133 1069.0 1185.0Q1141 1237 1227.0 1265.5Q1313 1294 1406 1294Q1463 1294 1517.5 1283.5Q1572 1273 1624 1251Q1538 1196 1444.5 1145.5Q1351 1095 1253.5 1050.0Q1156 1005 1056.5 967.0Q957 929 860 899Z" style="fill:#f7630c;stroke:none" transform="scale(1,-1) translate(0,-256)" /></svg>