<?xml version="1.0" encoding="utf-8" ?>
<svg baseProfile="full" height="256" version="1.1" width="256" xmlns="http://www.w3.org/2000/svg" xmlns:ev="http://www.w3.org/2001/xml-events" xmlns:xlink="http://www.w3.org/1999/xlink"><defs /><path d="M514 215Q500 215 480.5 216.5Q461 218 443.0 224.0Q425 230 412.5 241.5Q400 253 400 273Q400 302 426.5 338.0Q453 374 494.0 412.5Q535 451 585.5 488.5Q636 526 684.0 559.0Q732 592 773.0 617.5Q814 643 835 656Q838 612 850 572Q838 564 816.5 549.5Q795 535 769.0 516.5Q743 498 715.5 476.0Q688 454 665.5 432.5Q643 411 629.0 391.0Q615 371 615 355Q615 344 622.0 338.0Q629 332 639.0 329.0Q649 326 659.5 325.0Q670 324 678 324Q707 324 741.5 329.5Q776 335 811.0 343.5Q846 352 879.5 361.5Q913 371 941 380Q1063 419 1197.5 473.0Q1332 527 1466.5 591.0Q1601 655 1728.0 725.0Q1855 795 1962 866L1969 871Q1990 885 2028.0 911.5Q2066 938 2103.5 968.5Q2141 999 2168.5 1029.5Q2196 1060 2196 1082Q2196 1093 2189.0 1099.5Q2182 1106 2172.5 1109.0Q2163 1112 2152.0 1113.0Q2141 1114 2134 1114Q2105 1114 2070.5 1108.5Q2036 1103 2001.0 1094.5Q1966 1086 1932.0 1076.0Q1898 1066 1871 1057Q1860 1072 1848.0 1086.5Q1836 1101 1823 1115Q1872 1132 1933.0 1151.0Q1994 1170 2057.5 1186.0Q2121 1202 2183.5 1212.5Q2246 1223 2298 1223Q2312 1223 2331.5 1221.5Q2351 1220 2369.0 1214.0Q2387 1208 2399.5 1196.5Q2412 1185 2412 1165Q2412 1136 2386.0 1100.0Q2360 1064 2318.5 1026.0Q2277 988 2226.5 949.5Q2176 911 2128.0 878.0Q2080 845 2039.5 819.5Q1999 794 1977 781Q1745 640 1496.0 525.0Q1247 410 989 323Q939 306 878.5 287.0Q818 268 754.5 252.0Q691 236 628.5 225.5Q566 215 514 215Z" style="fill:#ffb900;stroke:none" transform="scale(1,-1) translate(0,-256)" /></svg>