<?xml version="1.0" encoding="utf-8" ?>
<svg baseProfile="full" height="256" version="1.1" width="256" xmlns="http://www.w3.org/2000/svg" xmlns:ev="http://www.w3.org/2001/xml-events" xmlns:xlink="http://www.w3.org/1999/xlink"><defs /><path d="M1981 1725Q2041 1725 2093.0 1702.5Q2145 1680 2184.0 1641.0Q2223 1602 2245.5 1550.0Q2268 1498 2268 1438V1294Q2268 1199 2235.0 1114.0Q2202 1029 2144.0 963.0Q2086 897 2007.0 853.0Q1928 809 1837 796V791Q1837 716 1808.5 650.5Q1780 585 1731.5 536.5Q1683 488 1617.5 459.5Q1552 431 1478 431V144H1550Q1595 144 1634.0 127.0Q1673 110 1702.0 80.5Q1731 51 1748.0 12.0Q1765 -27 1765 -72L1334 -211L903 -72Q903 -27 920.0 12.0Q937 51 966.0 80.5Q995 110 1034.0 127.0Q1073 144 1118 144H1190V431Q1116 431 1050.5 459.5Q985 488 936.0 536.5Q887 585 859.0 650.5Q831 716 831 791V796Q739 809 660.0 853.0Q581 897 523.5 963.5Q466 1030 433.0 1114.5Q400 1199 400 1294V1438Q400 1497 422.5 1549.5Q445 1602 484.0 1641.0Q523 1680 575.0 1702.5Q627 1725 687 1725Q766 1725 831 1687V1725H1837V1687Q1904 1725 1981 1725ZM543 1294Q543 1229 565.0 1170.5Q587 1112 625.5 1065.5Q664 1019 716.5 986.5Q769 954 831 942V1438Q831 1468 819.5 1494.0Q808 1520 788.5 1539.5Q769 1559 743.0 1570.0Q717 1581 687 1581Q657 1581 631.0 1570.0Q605 1559 585.5 1539.5Q566 1520 554.5 1494.0Q543 1468 543 1438ZM2125 1438Q2125 1468 2113.5 1494.0Q2102 1520 2082.5 1539.5Q2063 1559 2037.0 1570.0Q2011 1581 1981 1581Q1951 1581 1925.0 1570.0Q1899 1559 1879.5 1539.5Q1860 1520 1848.5 1494.0Q1837 1468 1837 1438V942Q1898 954 1951.0 986.5Q2004 1019 2042.5 1065.5Q2081 1112 2103.0 1170.5Q2125 1229 2125 1294Z" style="fill:#ffb900;stroke:none" transform="scale(1,-1) translate(0,-256)" /></svg>