<?xml version="1.0" encoding="utf-8" ?>
<svg baseProfile="full" height="256" version="1.1" width="256" xmlns="http://www.w3.org/2000/svg" xmlns:ev="http://www.w3.org/2001/xml-events" xmlns:xlink="http://www.w3.org/1999/xlink"><defs /><path d="M1981 1869Q2070 1869 2148.5 1835.0Q2227 1801 2285.5 1742.5Q2344 1684 2378.0 1605.5Q2412 1527 2412 1438V1294Q2412 1189 2379.0 1092.0Q2346 995 2287.5 914.0Q2229 833 2147.0 772.5Q2065 712 1968 680Q1953 613 1921.0 553.5Q1889 494 1844.0 446.0Q1799 398 1742.5 363.0Q1686 328 1622 309V280Q1709 263 1776.5 207.5Q1844 152 1879 72H1945Q1997 72 2043.0 52.0Q2089 32 2123.0 -2.0Q2157 -36 2177.0 -81.5Q2197 -127 2197 -179V-431H472V-179Q472 -127 491.5 -81.5Q511 -36 545.0 -2.0Q579 32 625.0 52.0Q671 72 723 72H789Q824 152 891.5 207.5Q959 263 1047 280V309Q982 328 925.5 363.5Q869 399 823.5 447.0Q778 495 746.0 554.0Q714 613 699 680Q602 712 520.5 772.5Q439 833 380.5 914.0Q322 995 289.0 1092.0Q256 1189 256 1294V1438Q256 1527 290.0 1605.5Q324 1684 382.5 1742.5Q441 1801 519.5 1835.0Q598 1869 687 1869H1981Z" style="fill:#000000;stroke:none" transform="scale(1,-1) translate(0,-256)" /></svg>