<?xml version="1.0" encoding="utf-8" ?>
<svg baseProfile="full" height="256" version="1.1" width="256" xmlns="http://www.w3.org/2000/svg" xmlns:ev="http://www.w3.org/2001/xml-events" xmlns:xlink="http://www.w3.org/1999/xlink"><defs /><path d="M1406 575Q1376 575 1355.0 596.0Q1334 617 1334 647Q1334 677 1355.0 698.0Q1376 719 1406 719Q1436 719 1462.0 730.0Q1488 741 1507.5 760.5Q1527 780 1538.5 806.5Q1550 833 1550 863V1510Q1550 1539 1571.0 1560.0Q1592 1581 1622 1581Q1651 1581 1672.0 1560.0Q1693 1539 1693 1510V863Q1693 803 1670.5 750.5Q1648 698 1609.0 659.0Q1570 620 1518.0 597.5Q1466 575 1406 575Z" style="fill:#ffd679;stroke:none" transform="scale(1,-1) translate(0,-256)" /></svg>