<?xml version="1.0" encoding="utf-8" ?>
<svg baseProfile="full" height="256" version="1.1" width="256" xmlns="http://www.w3.org/2000/svg" xmlns:ev="http://www.w3.org/2001/xml-events" xmlns:xlink="http://www.w3.org/1999/xlink"><defs /><path d="M1420 1099Q1166 846 916.0 596.5Q666 347 413 93Q408 97 404.0 102.0Q400 107 400 114Q400 122 405 127L1355 1114ZM1680 385Q1396 241 1115.5 98.0Q835 -45 551 -190Q547 -185 544.5 -180.0Q542 -175 542 -169Q542 -158 552 -153L1622 420ZM2229 665V745Q2253 757 2279.5 774.0Q2306 791 2333 791Q2353 791 2370.5 780.0Q2388 769 2397 751ZM1897 1577 1873 1652Q1883 1663 1894.0 1675.5Q1905 1688 1917.0 1699.0Q1929 1710 1942.5 1717.5Q1956 1725 1973 1725Q2003 1725 2024 1704Z" style="fill:#d8b094;stroke:none" transform="scale(1,-1) translate(0,-256)" /></svg>