<?xml version="1.0" encoding="utf-8" ?>
<svg baseProfile="full" height="256" version="1.1" width="256" xmlns="http://www.w3.org/2000/svg" xmlns:ev="http://www.w3.org/2001/xml-events" xmlns:xlink="http://www.w3.org/1999/xlink"><defs /><path d="M2230 745 2293 620Q2276 612 2260.5 604.0Q2245 596 2228 588L2166 711ZM1920 1502Q1896 1527 1872.0 1551.5Q1848 1576 1823 1600L1873 1652L1972 1552ZM1486 1084 1434 1034Q1414 1054 1394.5 1074.0Q1375 1094 1355 1114Q1380 1139 1404 1166ZM1622 420Q1638 428 1653.5 436.5Q1669 445 1685 454L1737 351L1672 320Z" style="fill:#cccccc;stroke:none" transform="scale(1,-1) translate(0,-256)" /></svg>