<?xml version="1.0" encoding="utf-8" ?>
<svg baseProfile="full" height="256" version="1.1" width="256" xmlns="http://www.w3.org/2000/svg" xmlns:ev="http://www.w3.org/2001/xml-events" xmlns:xlink="http://www.w3.org/1999/xlink"><defs /><path d="M2333 935Q2377 935 2416.5 918.0Q2456 901 2485.5 871.5Q2515 842 2532.0 803.0Q2549 764 2549 720Q2549 690 2540.5 661.0Q2532 632 2516.5 606.5Q2501 581 2479.0 560.0Q2457 539 2430 526L642 -337Q610 -353 572 -353Q536 -353 504.5 -337.5Q473 -322 449.5 -296.0Q426 -270 412.5 -236.5Q399 -203 399 -168Q399 -140 408.5 -113.0Q418 -86 436 -65Q401 -65 368.5 -50.0Q336 -35 311.0 -10.0Q286 15 271.0 47.5Q256 80 256 115Q256 146 267.5 175.0Q279 204 301 227L1819 1804Q1849 1835 1890.0 1852.0Q1931 1869 1974 1869Q2019 1869 2058.0 1852.0Q2097 1835 2126.0 1805.5Q2155 1776 2172.0 1737.0Q2189 1698 2189 1653Q2189 1611 2173.0 1570.5Q2157 1530 2126 1501L610 42L2233 910Q2280 935 2333 935Z" style="fill:#000000;stroke:none" transform="scale(1,-1) translate(0,-256)" /></svg>