<?xml version="1.0" encoding="utf-8" ?>
<svg baseProfile="full" height="256" version="1.1" width="256" xmlns="http://www.w3.org/2000/svg" xmlns:ev="http://www.w3.org/2001/xml-events" xmlns:xlink="http://www.w3.org/1999/xlink"><defs /><path d="M1837 1222V1438L2125 1150L1837 863V1078Q1777 1078 1730.0 1056.0Q1683 1034 1638 996Q1633 991 1629.0 988.0Q1625 985 1621 979Q1621 977 1597.0 952.5Q1573 928 1534.0 888.5Q1495 849 1444.5 798.5Q1394 748 1340.5 694.5Q1287 641 1234.5 588.5Q1182 536 1138.5 493.0Q1095 450 1065.0 420.0Q1035 390 1026 381Q1013 368 1002.0 355.0Q991 342 977 330Q916 276 842.0 246.0Q768 216 687 216V360Q748 360 794.5 382.0Q841 404 886 442Q891 447 895.0 450.0Q899 453 903 459Q912 472 926.0 485.0Q940 498 951 509L1066 625Q1157 716 1247.0 805.0Q1337 894 1427 985Q1441 999 1455.0 1014.5Q1469 1030 1484 1044Q1515 1073 1557.5 1104.5Q1600 1136 1648.0 1162.0Q1696 1188 1745.0 1205.0Q1794 1222 1837 1222ZM1837 360V575L2125 288L1837 0V216Q1794 216 1746.0 232.5Q1698 249 1651.5 274.0Q1605 299 1563.0 329.5Q1521 360 1490 388Q1457 418 1426.5 451.0Q1396 484 1364 516L1465 617L1605 477Q1615 467 1623.0 457.5Q1631 448 1641 439Q1681 403 1732.0 381.5Q1783 360 1837 360ZM1059 821 919 961Q893 987 868.0 1008.5Q843 1030 815.5 1045.5Q788 1061 757.0 1069.5Q726 1078 687 1078V1222Q726 1222 766.0 1214.0Q806 1206 844.0 1191.0Q882 1176 916.5 1154.5Q951 1133 980 1106Q992 1094 1003.0 1081.5Q1014 1069 1026 1057L1161 922Z" style="fill:#ffffff;stroke:none" transform="scale(1,-1) translate(0,-256)" /></svg>