<?xml version="1.0" encoding="utf-8" ?>
<svg baseProfile="full" height="256" version="1.1" width="256" xmlns="http://www.w3.org/2000/svg" xmlns:ev="http://www.w3.org/2001/xml-events" xmlns:xlink="http://www.w3.org/1999/xlink"><defs /><path d="M1334 1078Q1334 989 1300.0 910.5Q1266 832 1207.5 773.5Q1149 715 1070.5 681.0Q992 647 903 647Q814 647 735.5 681.0Q657 715 598.5 773.5Q540 832 506.0 910.5Q472 989 472 1078V1222L506 1258Q506 1345 528.0 1417.5Q550 1490 595.0 1542.5Q640 1595 708.0 1624.0Q776 1653 867 1653H939Q1030 1653 1097.5 1624.0Q1165 1595 1209.5 1542.5Q1254 1490 1276.0 1417.5Q1298 1345 1298 1258L1334 1222ZM2053 1510Q2074 1457 2112.5 1416.5Q2151 1376 2199.5 1349.0Q2248 1322 2303.0 1308.0Q2358 1294 2412 1294V1080Q2412 991 2378.5 912.0Q2345 833 2286.5 774.0Q2228 715 2149.5 681.0Q2071 647 1981 647Q1891 647 1812.5 681.0Q1734 715 1675.5 774.0Q1617 833 1583.5 912.0Q1550 991 1550 1080V1294Q1597 1294 1632.0 1313.0Q1667 1332 1692.5 1363.0Q1718 1394 1735.5 1432.5Q1753 1471 1765 1510Q1787 1475 1820.0 1448.5Q1853 1422 1891.5 1403.5Q1930 1385 1972.0 1375.5Q2014 1366 2053 1366Z" style="fill:#ffc83d;stroke:none" transform="scale(1,-1) translate(0,-256)" /></svg>