<?xml version="1.0" encoding="utf-8" ?>
<svg baseProfile="full" height="256" version="1.1" width="256" xmlns="http://www.w3.org/2000/svg" xmlns:ev="http://www.w3.org/2001/xml-events" xmlns:xlink="http://www.w3.org/1999/xlink"><defs /><path d="M1765 1294Q1795 1294 1816.0 1273.0Q1837 1252 1837 1222V1150Q1837 1120 1816.0 1099.0Q1795 1078 1765 1078Q1736 1078 1714.5 1099.5Q1693 1121 1693 1150V1222Q1693 1251 1714.5 1272.5Q1736 1294 1765 1294ZM2268 1150Q2268 1121 2247.0 1099.5Q2226 1078 2197 1078Q2167 1078 2146.0 1099.0Q2125 1120 2125 1150V1222Q2125 1252 2146.0 1273.0Q2167 1294 2197 1294Q2226 1294 2247.0 1272.5Q2268 1251 2268 1222ZM687 1294Q717 1294 738.0 1273.0Q759 1252 759 1222V1150Q759 1120 738.0 1099.0Q717 1078 687 1078Q657 1078 636.0 1099.0Q615 1120 615 1150V1222Q615 1252 636.0 1273.0Q657 1294 687 1294ZM1118 1294Q1148 1294 1169.0 1273.0Q1190 1252 1190 1222V1150Q1190 1120 1169.0 1099.0Q1148 1078 1118 1078Q1089 1078 1068.0 1099.5Q1047 1121 1047 1150V1222Q1047 1251 1068.0 1272.5Q1089 1294 1118 1294Z" style="fill:#000000;stroke:none" transform="scale(1,-1) translate(0,-256)" /></svg>