<?xml version="1.0" encoding="utf-8" ?>
<svg baseProfile="full" height="256" version="1.1" width="256" xmlns="http://www.w3.org/2000/svg" xmlns:ev="http://www.w3.org/2001/xml-events" xmlns:xlink="http://www.w3.org/1999/xlink"><defs /><path d="M1883 128Q1964 67 2008.5 -23.0Q2053 -113 2053 -215V-431H759V-215Q759 -113 803.5 -23.0Q848 67 929 128Q903 206 903 288V432Q903 536 942.5 627.5Q982 719 1050.5 787.5Q1119 856 1210.5 895.5Q1302 935 1406 935Q1510 935 1601.5 895.5Q1693 856 1761.5 787.5Q1830 719 1869.5 627.5Q1909 536 1909 432V288Q1909 206 1883 128Z" style="fill:#000000;stroke:none" transform="scale(1,-1) translate(0,-256)" /></svg>