<?xml version="1.0" encoding="utf-8" ?>
<svg baseProfile="full" height="256" version="1.1" width="256" xmlns="http://www.w3.org/2000/svg" xmlns:ev="http://www.w3.org/2001/xml-events" xmlns:xlink="http://www.w3.org/1999/xlink"><defs /><path d="M1622 503Q1651 503 1672.0 481.5Q1693 460 1693 431V360Q1693 331 1672.0 309.5Q1651 288 1622 288Q1592 288 1571.0 309.0Q1550 330 1550 360V431Q1550 461 1571.0 482.0Q1592 503 1622 503ZM1190 503Q1220 503 1241.0 482.0Q1262 461 1262 431V360Q1262 330 1241.0 309.0Q1220 288 1190 288Q1161 288 1139.5 309.5Q1118 331 1118 360V431Q1118 460 1139.5 481.5Q1161 503 1190 503Z" style="fill:#000000;stroke:none" transform="scale(1,-1) translate(0,-256)" /></svg>