<?xml version="1.0" encoding="utf-8" ?>
<svg baseProfile="full" height="256" version="1.1" width="256" xmlns="http://www.w3.org/2000/svg" xmlns:ev="http://www.w3.org/2001/xml-events" xmlns:xlink="http://www.w3.org/1999/xlink"><defs /><path d="M903 1725Q993 1725 1071.5 1691.0Q1150 1657 1208.5 1598.5Q1267 1540 1300.5 1461.5Q1334 1383 1334 1294V1222H1262V1276Q1262 1299 1261.0 1321.5Q1260 1344 1255 1366H903Q875 1366 849.5 1377.5Q824 1389 804.5 1408.0Q785 1427 772.5 1452.0Q760 1477 759 1504V1366Q731 1366 705.0 1377.5Q679 1389 659.5 1408.5Q640 1428 628.0 1454.0Q616 1480 616 1508Q589 1472 574.0 1439.0Q559 1406 552.0 1372.0Q545 1338 543.5 1301.5Q542 1265 542 1222H472V1294Q472 1383 505.5 1461.5Q539 1540 597.5 1598.5Q656 1657 734.5 1691.0Q813 1725 903 1725Z" style="fill:#613d30;stroke:none" transform="scale(1,-1) translate(0,-256)" /></svg>