<?xml version="1.0" encoding="utf-8" ?>
<svg baseProfile="full" height="256" version="1.1" width="256" xmlns="http://www.w3.org/2000/svg" xmlns:ev="http://www.w3.org/2001/xml-events" xmlns:xlink="http://www.w3.org/1999/xlink"><defs /><path d="M1978 791Q1963 791 1939.5 796.5Q1916 802 1893.0 812.0Q1870 822 1853.5 836.5Q1837 851 1837 869Q1837 883 1847.0 893.0Q1857 903 1871 903Q1880 903 1889.5 896.0Q1899 889 1911.0 881.0Q1923 873 1939.0 866.0Q1955 859 1978 859Q2001 859 2017.0 866.0Q2033 873 2045.0 881.0Q2057 889 2066.5 896.0Q2076 903 2085 903Q2099 903 2109.0 893.0Q2119 883 2119 869Q2119 851 2102.5 836.5Q2086 822 2063.0 812.0Q2040 802 2016.5 796.5Q1993 791 1978 791Z" style="fill:#e81224;stroke:none" transform="scale(1,-1) translate(0,-256)" /></svg>