<?xml version="1.0" encoding="utf-8" ?>
<svg baseProfile="full" height="256" version="1.1" width="256" xmlns="http://www.w3.org/2000/svg" xmlns:ev="http://www.w3.org/2001/xml-events" xmlns:xlink="http://www.w3.org/1999/xlink"><defs /><path d="M1227 180Q1237 180 1245.0 174.5Q1253 169 1258 161Q1283 120 1319.5 96.0Q1356 72 1406 72Q1421 72 1431.5 61.5Q1442 51 1442 36Q1442 21 1431.5 10.5Q1421 0 1406 0Q1340 0 1283.0 34.5Q1226 69 1195 127Q1190 135 1190 144Q1190 158 1201.0 169.0Q1212 180 1227 180ZM1478 288Q1478 258 1457.0 237.0Q1436 216 1406 216Q1376 216 1355.0 237.0Q1334 258 1334 288Z" style="fill:#f7894a;stroke:none" transform="scale(1,-1) translate(0,-256)" /></svg>