<?xml version="1.0" encoding="utf-8" ?>
<svg baseProfile="full" height="256" version="1.1" width="256" xmlns="http://www.w3.org/2000/svg" xmlns:ev="http://www.w3.org/2001/xml-events" xmlns:xlink="http://www.w3.org/1999/xlink"><defs /><path d="M1981 1869Q2070 1869 2153.0 1846.0Q2236 1823 2307.5 1780.5Q2379 1738 2438.0 1679.0Q2497 1620 2539.5 1548.5Q2582 1477 2605.0 1394.0Q2628 1311 2628 1222V-431H256V252Q256 317 273.5 378.5Q291 440 323.5 493.5Q356 547 402.0 591.0Q448 635 506 665Q421 746 375.5 853.0Q330 960 330 1078V1294Q330 1413 375.5 1517.5Q421 1622 499.0 1700.0Q577 1778 681.5 1823.5Q786 1869 905 1869Q987 1869 1064.5 1846.0Q1142 1823 1209.0 1781.0Q1276 1739 1330.0 1679.0Q1384 1619 1420 1545Q1463 1620 1524.0 1680.0Q1585 1740 1657.5 1782.0Q1730 1824 1812.0 1846.5Q1894 1869 1981 1869Z" style="fill:#000000;stroke:none" transform="scale(1,-1) translate(0,-256)" /></svg>