<?xml version="1.0" encoding="utf-8" ?>
<svg baseProfile="full" height="256" version="1.1" width="256" xmlns="http://www.w3.org/2000/svg" xmlns:ev="http://www.w3.org/2001/xml-events" xmlns:xlink="http://www.w3.org/1999/xlink"><defs /><path d="M1279 1150H1461L1445 791H1622Q1651 791 1672.0 812.5Q1693 834 1693 863Q1693 887 1683.5 901.5Q1674 916 1659.0 924.0Q1644 932 1624.5 934.5Q1605 937 1585 937Q1568 937 1552.5 936.0Q1537 935 1524 935L1530 1078H1622Q1667 1078 1706.0 1061.0Q1745 1044 1774.0 1015.0Q1803 986 1820.0 947.0Q1837 908 1837 863Q1837 818 1820.0 779.0Q1803 740 1774.0 710.5Q1745 681 1706.0 664.0Q1667 647 1622 647H1190Q1161 647 1139.5 625.5Q1118 604 1118 575Q1118 546 1139.5 524.5Q1161 503 1190 503H1236L1243 360H1190Q1145 360 1106.0 377.0Q1067 394 1038.0 423.0Q1009 452 992.0 491.0Q975 530 975 575Q975 620 992.0 659.0Q1009 698 1038.0 727.5Q1067 757 1106.0 774.0Q1145 791 1190 791H1295ZM2017 1366Q2032 1366 2042.5 1355.5Q2053 1345 2053 1330Q2053 1306 2036.5 1299.5Q2020 1293 2000 1293Q1993 1293 1986.5 1293.5Q1980 1294 1974 1294Q1981 1275 1981 1258Q1981 1243 1970.5 1232.5Q1960 1222 1945 1222Q1925 1222 1918.5 1233.0Q1912 1244 1909.0 1257.5Q1906 1271 1899.5 1282.5Q1893 1294 1873 1294H1853Q1823 1259 1781.0 1240.5Q1739 1222 1693 1222H1047Q1017 1222 996.0 1201.0Q975 1180 975 1150Q975 1121 996.5 1099.5Q1018 1078 1047 1078H1210L1216 935H1047Q1002 935 963.0 952.0Q924 969 894.5 998.0Q865 1027 848.0 1066.0Q831 1105 831 1150Q831 1195 848.0 1234.0Q865 1273 894.5 1302.5Q924 1332 963.0 1349.0Q1002 1366 1047 1366H1269L1262 1510H1478L1471 1366H1622Q1622 1395 1643.0 1416.5Q1664 1438 1693 1438H1909Q1909 1403 1896 1366ZM1305 575H1435L1419 216H1478Q1507 216 1528.5 237.5Q1550 259 1550 288Q1550 312 1535.0 330.5Q1520 349 1497 356L1504 501Q1544 496 1579.0 477.5Q1614 459 1639.0 430.5Q1664 402 1678.5 365.5Q1693 329 1693 288Q1693 244 1676.0 204.5Q1659 165 1629.5 135.5Q1600 106 1561.0 89.0Q1522 72 1478 72H1118Q1118 102 1129.5 128.0Q1141 154 1160.5 173.5Q1180 193 1206.0 204.5Q1232 216 1262 216H1321ZM1331 0H1409L1406 -72H1334Z" style="fill:#ffffff;stroke:none" transform="scale(1,-1) translate(0,-256)" /></svg>