<?xml version="1.0" encoding="utf-8" ?>
<svg baseProfile="full" height="256" version="1.1" width="256" xmlns="http://www.w3.org/2000/svg" xmlns:ev="http://www.w3.org/2001/xml-events" xmlns:xlink="http://www.w3.org/1999/xlink"><defs /><path d="M975 753Q975 731 966.5 711.5Q958 692 943.0 677.0Q928 662 908.5 653.5Q889 645 867 645Q844 645 824.5 653.5Q805 662 790.5 676.5Q776 691 767.5 710.5Q759 730 759 753V897Q759 919 767.5 939.0Q776 959 791.0 973.0Q806 987 825.5 995.5Q845 1004 867 1004Q889 1004 908.5 995.5Q928 987 943.0 972.5Q958 958 966.5 938.5Q975 919 975 897Z" style="fill:#000000;stroke:none" transform="scale(1,-1) translate(0,-256)" /></svg>