<?xml version="1.0" encoding="utf-8" ?>
<svg baseProfile="full" height="256" version="1.1" width="256" xmlns="http://www.w3.org/2000/svg" xmlns:ev="http://www.w3.org/2001/xml-events" xmlns:xlink="http://www.w3.org/1999/xlink"><defs /><path d="M2268 1220Q2305 1202 2332.0 1169.5Q2359 1137 2377.0 1097.5Q2395 1058 2403.5 1015.0Q2412 972 2412 933Q2412 894 2403.5 851.0Q2395 808 2377.0 769.0Q2359 730 2332.0 697.0Q2305 664 2268 645L2125 789V1076ZM1550 789Q1550 754 1539.5 721.0Q1529 688 1510.0 659.5Q1491 631 1464.5 608.5Q1438 586 1406 573L1190 717V861L1406 1004Q1439 992 1465.5 969.5Q1492 947 1510.5 918.5Q1529 890 1539.5 856.5Q1550 823 1550 789ZM867 430Q889 430 908.5 421.5Q928 413 943.0 398.0Q958 383 966.5 363.5Q975 344 975 322Q975 300 966.5 280.5Q958 261 943.0 246.0Q928 231 908.5 222.5Q889 214 867 214Q844 214 824.5 222.5Q805 231 790.5 245.5Q776 260 767.5 279.5Q759 299 759 322Q759 344 767.5 363.5Q776 383 791.0 398.0Q806 413 825.5 421.5Q845 430 867 430ZM1371 430Q1393 430 1412.5 421.5Q1432 413 1446.5 398.0Q1461 383 1469.5 363.5Q1478 344 1478 322Q1478 300 1469.5 280.5Q1461 261 1447.0 246.0Q1433 231 1413.0 222.5Q1393 214 1371 214Q1348 214 1328.5 222.5Q1309 231 1294.5 245.5Q1280 260 1271.5 279.5Q1263 299 1263 322Q1263 344 1271.5 363.5Q1280 383 1295.0 398.0Q1310 413 1329.5 421.5Q1349 430 1371 430ZM687 573Q717 573 738.0 552.0Q759 531 759 501Q759 472 737.5 451.0Q716 430 687 430Q658 430 636.5 451.0Q615 472 615 501Q615 531 636.0 552.0Q657 573 687 573ZM1118 214Q1148 214 1169.0 193.0Q1190 172 1190 142Q1190 112 1169.0 91.0Q1148 70 1118 70Q1089 70 1068.0 91.5Q1047 113 1047 142Q1047 171 1068.0 192.5Q1089 214 1118 214ZM1550 573Q1579 573 1600.5 551.5Q1622 530 1622 501Q1622 472 1600.5 451.0Q1579 430 1550 430Q1521 430 1499.5 451.0Q1478 472 1478 501Q1478 531 1499.0 552.0Q1520 573 1550 573ZM1118 573Q1148 573 1169.0 552.0Q1190 531 1190 501Q1190 472 1168.5 451.0Q1147 430 1118 430Q1089 430 1068.0 451.0Q1047 472 1047 501Q1047 530 1068.0 551.5Q1089 573 1118 573Z" style="fill:#bb9167;stroke:none" transform="scale(1,-1) translate(0,-256)" /></svg>