<?xml version="1.0" encoding="utf-8" ?>
<svg baseProfile="full" height="256" version="1.1" width="256" xmlns="http://www.w3.org/2000/svg" xmlns:ev="http://www.w3.org/2001/xml-events" xmlns:xlink="http://www.w3.org/1999/xlink"><defs /><path d="M2240 1395Q2263 1384 2286.5 1372.5Q2310 1361 2333 1349Q2389 1319 2431.0 1273.5Q2473 1228 2500.5 1173.0Q2528 1118 2542.0 1056.0Q2556 994 2556 933Q2556 873 2542.0 811.0Q2528 749 2500.5 693.5Q2473 638 2431.0 592.0Q2389 546 2333 517L2240 470L2065 647H1981Q1981 589 1968.5 532.0Q1956 475 1939 420Q1959 377 1970.0 331.5Q1981 286 1981 238Q1981 182 1965.0 128.5Q1949 75 1920.5 27.0Q1892 -21 1851.5 -60.5Q1811 -100 1763 -127L1668 -180L1529 -41Q1442 -89 1348.0 -117.0Q1254 -145 1154 -145Q1002 -145 865.0 -93.5Q728 -42 619.0 50.0Q510 142 436.5 268.5Q363 395 338 545Q299 576 277.5 621.5Q256 667 256 717Q256 775 285 825Q256 875 256 933Q256 978 273.0 1017.0Q290 1056 319.5 1085.5Q349 1115 388.5 1131.5Q428 1148 473 1148Q531 1232 606.5 1298.5Q682 1365 769.5 1411.5Q857 1458 954.5 1483.0Q1052 1508 1154 1508Q1256 1508 1349.5 1481.5Q1443 1455 1531 1404L1665 1539Q1688 1528 1711.5 1516.5Q1735 1505 1758 1493Q1837 1451 1888.5 1378.0Q1940 1305 1963 1220H2065Z" style="fill:#000000;stroke:none" transform="scale(1,-1) translate(0,-256)" /></svg>