<?xml version="1.0" encoding="utf-8" ?>
<svg baseProfile="full" height="256" version="1.1" width="256" xmlns="http://www.w3.org/2000/svg" xmlns:ev="http://www.w3.org/2001/xml-events" xmlns:xlink="http://www.w3.org/1999/xlink"><defs /><path d="M2235 863V791H1981Q1910 791 1877.0 751.0Q1844 711 1837 645Q1830 582 1818.0 523.5Q1806 465 1780 408Q1806 370 1821.5 327.0Q1837 284 1837 238Q1837 202 1826.5 166.5Q1816 131 1796.5 99.5Q1777 68 1750.5 42.0Q1724 16 1693 -2L1550 142Q1506 111 1459.0 85.0Q1412 59 1362.5 39.5Q1313 20 1260.5 9.0Q1208 -2 1154 -2Q1063 -2 978.5 21.0Q894 44 820.0 85.5Q746 127 684.5 185.5Q623 244 577.5 316.0Q532 388 504.5 471.0Q477 554 472 645Q440 645 420.0 665.0Q400 685 400 717Q400 745 410.5 759.5Q421 774 437.0 780.0Q453 786 472.0 787.0Q491 788 507.0 791.0Q523 794 533.5 800.5Q544 807 544 825Q544 840 533.5 850.0Q523 860 509 863Z" style="fill:#f7d7c4;stroke:none" transform="scale(1,-1) translate(0,-256)" /></svg>