<?xml version="1.0" encoding="utf-8" ?>
<svg baseProfile="full" height="256" version="1.1" width="256" xmlns="http://www.w3.org/2000/svg" xmlns:ev="http://www.w3.org/2001/xml-events" xmlns:xlink="http://www.w3.org/1999/xlink"><defs /><path d="M2484 791H2556V360H2484Q2484 283 2464.0 210.0Q2444 137 2407.0 72.5Q2370 8 2317.0 -45.5Q2264 -99 2197 -138V-431H1981Q1928 -431 1878.0 -415.5Q1828 -400 1784.5 -371.5Q1741 -343 1707.0 -303.0Q1673 -263 1652 -215H1160Q1139 -263 1105.0 -303.0Q1071 -343 1027.5 -371.5Q984 -400 934.0 -415.5Q884 -431 831 -431H615V-138Q548 -99 495.0 -45.5Q442 8 405.0 72.5Q368 137 348.0 210.0Q328 283 328 360H256V791H407Q400 825 400 863Q400 937 428.5 1002.5Q457 1068 505.5 1116.5Q554 1165 619.5 1193.5Q685 1222 759 1222Q825 1222 884.5 1199.5Q944 1177 991.5 1136.5Q1039 1096 1071.0 1041.0Q1103 986 1114 921Q1137 930 1161.0 933.0Q1185 936 1210 936H1262Q1295 936 1326.5 925.5Q1358 915 1384.5 896.5Q1411 878 1431.5 852.0Q1452 826 1464 795L1483 814Q1505 837 1527.5 858.5Q1550 880 1575.0 897.0Q1600 914 1629.0 924.5Q1658 935 1693 935Q1733 935 1765.0 922.0Q1797 909 1824.5 888.5Q1852 868 1876.5 842.5Q1901 817 1927 791H2125V1150H1622V1425L1771 1575Q1783 1639 1815.5 1693.0Q1848 1747 1895.0 1786.0Q1942 1825 2001.0 1847.0Q2060 1869 2125 1869Q2199 1869 2264.5 1840.5Q2330 1812 2378.5 1763.5Q2427 1715 2455.5 1649.5Q2484 1584 2484 1510Z" style="fill:#000000;stroke:none" transform="scale(1,-1) translate(0,-256)" /></svg>