<?xml version="1.0" encoding="utf-8" ?>
<svg baseProfile="full" height="256" version="1.1" width="256" xmlns="http://www.w3.org/2000/svg" xmlns:ev="http://www.w3.org/2001/xml-events" xmlns:xlink="http://www.w3.org/1999/xlink"><defs /><path d="M1334 719Q1334 693 1323.5 678.5Q1313 664 1296.5 657.0Q1280 650 1260.0 648.5Q1240 647 1220 647L1097 524Q1076 503 1047 503Q1017 503 996 524L873 647H759L748 653Q716 672 688.0 690.0Q660 708 639.0 731.0Q618 754 606.0 784.0Q594 814 594 857Q594 920 608.5 959.0Q623 998 652.0 1020.0Q681 1042 724.5 1050.0Q768 1058 825 1058Q858 1058 885.5 1038.5Q913 1019 933.0 989.5Q953 960 964.0 926.0Q975 892 975 863Q975 816 953 770L1047 677L1140 770Q1154 784 1170.0 787.5Q1186 791 1205 791H1213Q1233 791 1254.5 790.0Q1276 789 1293.5 782.0Q1311 775 1322.5 760.5Q1334 746 1334 719Z" style="fill:#ffc83d;stroke:none" transform="scale(1,-1) translate(0,-256)" /></svg>