<?xml version="1.0" encoding="utf-8" ?>
<svg baseProfile="full" height="256" version="1.1" width="256" xmlns="http://www.w3.org/2000/svg" xmlns:ev="http://www.w3.org/2001/xml-events" xmlns:xlink="http://www.w3.org/1999/xlink"><defs /><path d="M1765 216V144Q1765 103 1744.5 69.5Q1724 36 1690.0 8.5Q1656 -19 1613.5 -40.5Q1571 -62 1527.0 -78.0Q1483 -94 1442.0 -104.5Q1401 -115 1370 -121Q1307 -133 1244.0 -138.5Q1181 -144 1118 -144Q1051 -144 984.0 -138.0Q917 -132 851 -118Q821 -112 781.5 -101.0Q742 -90 699.5 -74.0Q657 -58 616.5 -36.5Q576 -15 543.5 12.0Q511 39 491.5 72.0Q472 105 472 144V216Z" style="fill:#cccccc;stroke:none" transform="scale(1,-1) translate(0,-256)" /></svg>