<?xml version="1.0" encoding="utf-8" ?>
<svg baseProfile="full" height="256" version="1.1" width="256" xmlns="http://www.w3.org/2000/svg" xmlns:ev="http://www.w3.org/2001/xml-events" xmlns:xlink="http://www.w3.org/1999/xlink"><defs /><path d="M1765 719V216Q1765 175 1744.5 141.5Q1724 108 1690.0 80.5Q1656 53 1613.5 31.5Q1571 10 1527.0 -6.0Q1483 -22 1442.0 -32.5Q1401 -43 1370 -49Q1307 -61 1244.0 -66.5Q1181 -72 1118 -72Q1051 -72 984.0 -66.0Q917 -60 851 -46Q821 -40 781.5 -29.0Q742 -18 699.5 -2.0Q657 14 616.5 35.5Q576 57 543.5 84.0Q511 111 491.5 144.0Q472 177 472 216V719Z" style="fill:#13a10e;stroke:none" transform="scale(1,-1) translate(0,-256)" /></svg>