<?xml version="1.0" encoding="utf-8" ?>
<svg baseProfile="full" height="256" version="1.1" width="256" xmlns="http://www.w3.org/2000/svg" xmlns:ev="http://www.w3.org/2001/xml-events" xmlns:xlink="http://www.w3.org/1999/xlink"><defs /><path d="M1406 431Q1406 372 1383.0 319.5Q1360 267 1321.0 228.0Q1282 189 1229.5 166.5Q1177 144 1118 144Q1059 144 1006.5 166.5Q954 189 915.0 228.0Q876 267 853.5 319.5Q831 372 831 431Q831 490 853.5 542.5Q876 595 915.0 634.0Q954 673 1006.5 696.0Q1059 719 1118 719Q1178 719 1230.5 696.5Q1283 674 1322.0 635.0Q1361 596 1383.5 543.5Q1406 491 1406 431Z" style="fill:#faec6e;stroke:none" transform="scale(1,-1) translate(0,-256)" /></svg>