<?xml version="1.0" encoding="utf-8" ?>
<svg baseProfile="full" height="256" version="1.1" width="256" xmlns="http://www.w3.org/2000/svg" xmlns:ev="http://www.w3.org/2001/xml-events" xmlns:xlink="http://www.w3.org/1999/xlink"><defs /><path d="M1118 1653Q1181 1653 1244.0 1647.5Q1307 1642 1370 1631Q1401 1625 1442.0 1614.5Q1483 1604 1527.0 1588.0Q1571 1572 1613.5 1550.5Q1656 1529 1690.0 1501.5Q1724 1474 1744.5 1440.0Q1765 1406 1765 1366Q1765 1325 1744.5 1291.5Q1724 1258 1690.0 1230.5Q1656 1203 1613.5 1181.5Q1571 1160 1527.0 1144.0Q1483 1128 1442.0 1117.5Q1401 1107 1370 1101Q1307 1089 1244.0 1083.5Q1181 1078 1118 1078Q1051 1078 984.0 1084.0Q917 1090 851 1104Q821 1110 781.5 1121.0Q742 1132 699.5 1148.0Q657 1164 616.5 1185.5Q576 1207 543.5 1234.0Q511 1261 491.5 1294.0Q472 1327 472 1366Q472 1405 491.5 1438.0Q511 1471 543.5 1498.0Q576 1525 616.5 1546.5Q657 1568 699.5 1583.5Q742 1599 781.5 1610.0Q821 1621 851 1627Q917 1641 984.0 1647.0Q1051 1653 1118 1653Z" style="fill:#cccccc;stroke:none" transform="scale(1,-1) translate(0,-256)" /></svg>