<?xml version="1.0" encoding="utf-8" ?>
<svg baseProfile="full" height="256" version="1.1" width="256" xmlns="http://www.w3.org/2000/svg" xmlns:ev="http://www.w3.org/2001/xml-events" xmlns:xlink="http://www.w3.org/1999/xlink"><defs /><path d="M1118 1725Q1189 1725 1259.0 1718.0Q1329 1711 1398 1697Q1436 1689 1483.5 1674.5Q1531 1660 1580.0 1639.5Q1629 1619 1675.0 1592.0Q1721 1565 1757.0 1531.0Q1793 1497 1815.0 1456.0Q1837 1415 1837 1366V1294Q1837 1245 1815.0 1203.5Q1793 1162 1757.0 1128.0Q1721 1094 1675.0 1067.0Q1629 1040 1580.0 1019.5Q1531 999 1483.5 985.0Q1436 971 1398 963Q1329 949 1259.0 942.0Q1189 935 1118 935Q1043 935 968.5 942.5Q894 950 821 967Q783 975 737.5 989.5Q692 1004 645.0 1024.5Q598 1045 554.0 1071.5Q510 1098 476.0 1131.5Q442 1165 421.0 1205.5Q400 1246 400 1294V1366Q400 1413 421.0 1453.5Q442 1494 476.0 1527.5Q510 1561 554.0 1588.0Q598 1615 645.0 1635.5Q692 1656 737.5 1670.0Q783 1684 821 1693Q894 1710 968.5 1717.5Q1043 1725 1118 1725Z" style="fill:#e5e5e5;stroke:none" transform="scale(1,-1) translate(0,-256)" /></svg>