<?xml version="1.0" encoding="utf-8" ?>
<svg baseProfile="full" height="256" version="1.1" width="256" xmlns="http://www.w3.org/2000/svg" xmlns:ev="http://www.w3.org/2001/xml-events" xmlns:xlink="http://www.w3.org/1999/xlink"><defs /><path d="M1118 -431Q1029 -431 941.0 -421.5Q853 -412 766 -390Q711 -377 652.0 -355.5Q593 -334 536.5 -304.5Q480 -275 429.0 -237.5Q378 -200 339.5 -153.0Q301 -106 278.5 -50.0Q256 6 256 72V144Q256 201 275.5 254.0Q295 307 328 352V1086Q301 1122 286.5 1154.5Q272 1187 265.5 1219.5Q259 1252 257.5 1287.5Q256 1323 256 1366Q256 1431 280.0 1490.5Q304 1550 346 1599Q411 1675 504.0 1726.5Q597 1778 702.0 1809.5Q807 1841 915.0 1855.0Q1023 1869 1118 1869Q1230 1869 1345.0 1852.5Q1460 1836 1566 1800Q1639 1775 1713.0 1736.5Q1787 1698 1846.5 1645.0Q1906 1592 1943.5 1522.5Q1981 1453 1981 1366V1294Q1981 1237 1961.5 1184.0Q1942 1131 1909 1086V352Q1936 316 1950.5 283.5Q1965 251 1971.5 218.5Q1978 186 1979.5 150.5Q1981 115 1981 72Q1981 6 1958.5 -50.0Q1936 -106 1897.5 -153.0Q1859 -200 1808.0 -237.5Q1757 -275 1700.0 -304.5Q1643 -334 1584.0 -355.5Q1525 -377 1470 -390Q1383 -412 1295.0 -421.5Q1207 -431 1118 -431Z" style="fill:#000000;stroke:none" transform="scale(1,-1) translate(0,-256)" /></svg>