<?xml version="1.0" encoding="utf-8" ?>
<svg baseProfile="full" height="256" version="1.1" width="256" xmlns="http://www.w3.org/2000/svg" xmlns:ev="http://www.w3.org/2001/xml-events" xmlns:xlink="http://www.w3.org/1999/xlink"><defs /><path d="M1118 503Q1189 503 1259.0 496.0Q1329 489 1398 475Q1436 467 1483.5 452.5Q1531 438 1580.0 417.5Q1629 397 1675.0 370.0Q1721 343 1757.0 309.0Q1793 275 1815.0 234.0Q1837 193 1837 144V72Q1837 23 1815.0 -18.0Q1793 -59 1757.0 -93.0Q1721 -127 1675.0 -154.0Q1629 -181 1580.0 -201.5Q1531 -222 1483.5 -236.5Q1436 -251 1398 -259Q1329 -273 1259.0 -280.0Q1189 -287 1118 -287Q1043 -287 968.5 -279.5Q894 -272 821 -255Q783 -247 737.5 -232.5Q692 -218 645.0 -197.5Q598 -177 554.0 -150.0Q510 -123 476.0 -89.5Q442 -56 421.0 -15.5Q400 25 400 72V144Q400 191 421.0 231.5Q442 272 476.0 305.5Q510 339 554.0 366.0Q598 393 645.0 413.5Q692 434 737.5 448.0Q783 462 821 471Q894 488 968.5 495.5Q1043 503 1118 503Z" style="fill:#e5e5e5;stroke:none" transform="scale(1,-1) translate(0,-256)" /></svg>