<?xml version="1.0" encoding="utf-8" ?>
<svg baseProfile="full" height="256" version="1.1" width="256" xmlns="http://www.w3.org/2000/svg" xmlns:ev="http://www.w3.org/2001/xml-events" xmlns:xlink="http://www.w3.org/1999/xlink"><defs /><path d="M1154 72Q1176 72 1196.0 63.5Q1216 55 1230.5 40.5Q1245 26 1253.5 6.0Q1262 -14 1262 -36Q1262 -58 1253.5 -77.5Q1245 -97 1230.0 -112.0Q1215 -127 1195.5 -135.5Q1176 -144 1154 -144Q1132 -144 1112.5 -135.5Q1093 -127 1078.5 -112.0Q1064 -97 1055.5 -77.5Q1047 -58 1047 -36Q1047 -14 1055.5 5.5Q1064 25 1078.0 40.0Q1092 55 1111.5 63.5Q1131 72 1154 72ZM1837 72Q1894 72 1944.0 44.0Q1994 16 2023 -33Q1938 -102 1843.5 -155.0Q1749 -208 1644 -240Q1622 -193 1622 -144Q1622 -99 1639.0 -60.0Q1656 -21 1685.0 8.5Q1714 38 1753.0 55.0Q1792 72 1837 72ZM2089 1150Q2066 1150 2046.5 1158.5Q2027 1167 2012.5 1181.5Q1998 1196 1989.5 1215.5Q1981 1235 1981 1258Q1981 1280 1989.5 1300.0Q1998 1320 2012.5 1334.5Q2027 1349 2046.5 1357.5Q2066 1366 2089 1366Q2111 1366 2130.5 1357.5Q2150 1349 2165.0 1334.0Q2180 1319 2188.5 1299.5Q2197 1280 2197 1258Q2197 1236 2188.5 1216.5Q2180 1197 2165.0 1182.0Q2150 1167 2130.5 1158.5Q2111 1150 2089 1150ZM2125 1078Q2155 1078 2181.0 1067.0Q2207 1056 2226.5 1036.5Q2246 1017 2257.0 991.0Q2268 965 2268 935Q2268 905 2257.0 879.0Q2246 853 2226.5 833.5Q2207 814 2181.0 802.5Q2155 791 2125 791Q2095 791 2068.5 802.0Q2042 813 2022.5 832.5Q2003 852 1992.0 878.5Q1981 905 1981 935Q1981 965 1992.5 991.0Q2004 1017 2023.5 1036.5Q2043 1056 2069.0 1067.0Q2095 1078 2125 1078Z" style="fill:#eba300;stroke:none" transform="scale(1,-1) translate(0,-256)" /></svg>