<?xml version="1.0" encoding="utf-8" ?>
<svg baseProfile="full" height="256" version="1.1" width="256" xmlns="http://www.w3.org/2000/svg" xmlns:ev="http://www.w3.org/2001/xml-events" xmlns:xlink="http://www.w3.org/1999/xlink"><defs /><path d="M1324 -431Q1192 -431 1075.5 -408.0Q959 -385 852.5 -339.0Q746 -293 647.5 -226.0Q549 -159 453 -70Q422 -41 387.5 -10.0Q353 21 323.5 56.0Q294 91 275.0 130.5Q256 170 256 217Q256 262 273.0 301.0Q290 340 319.5 369.0Q349 398 388.0 415.0Q427 432 472 432Q494 432 514.5 427.0Q535 422 555 415Q625 392 691.0 376.0Q757 360 831 360Q960 360 1079.0 393.5Q1198 427 1302.0 488.0Q1406 549 1491.0 634.0Q1576 719 1637.0 823.0Q1698 927 1731.5 1046.0Q1765 1165 1765 1294Q1765 1368 1748.5 1434.0Q1732 1500 1710 1570Q1703 1590 1698.0 1610.5Q1693 1631 1693 1653Q1693 1698 1710.0 1737.0Q1727 1776 1756.5 1805.5Q1786 1835 1825.0 1852.0Q1864 1869 1909 1869Q1958 1869 1991.5 1853.0Q2025 1837 2061 1806Q2096 1776 2129.5 1741.0Q2163 1706 2195 1672Q2371 1488 2463.5 1272.5Q2556 1057 2556 801Q2556 631 2512.0 473.5Q2468 316 2388.0 179.0Q2308 42 2195.5 -70.5Q2083 -183 1946.0 -263.0Q1809 -343 1651.5 -387.0Q1494 -431 1324 -431Z" style="fill:#000000;stroke:none" transform="scale(1,-1) translate(0,-256)" /></svg>