<?xml version="1.0" encoding="utf-8" ?>
<svg baseProfile="full" height="256" version="1.1" width="256" xmlns="http://www.w3.org/2000/svg" xmlns:ev="http://www.w3.org/2001/xml-events" xmlns:xlink="http://www.w3.org/1999/xlink"><defs /><path d="M735 285Q784 285 827.0 266.0Q870 247 902.0 215.0Q934 183 953.0 140.0Q972 97 972 48Q972 -1 954.0 -43.0Q936 -85 902 -120Q851 -173 792.5 -205.5Q734 -238 670.0 -256.0Q606 -274 538.0 -280.5Q470 -287 400 -287Q400 -217 406.5 -149.0Q413 -81 431.0 -17.0Q449 47 481.5 105.5Q514 164 567 215Q602 249 644.0 267.0Q686 285 735 285Z" style="fill:#f7630c;stroke:none" transform="scale(1,-1) translate(0,-256)" /></svg>