<?xml version="1.0" encoding="utf-8" ?>
<svg baseProfile="full" height="256" version="1.1" width="256" xmlns="http://www.w3.org/2000/svg" xmlns:ev="http://www.w3.org/2001/xml-events" xmlns:xlink="http://www.w3.org/1999/xlink"><defs /><path d="M1693 791Q1649 791 1609.5 808.0Q1570 825 1541.0 854.0Q1512 883 1495.0 922.5Q1478 962 1478 1006Q1478 1050 1495.0 1089.5Q1512 1129 1541.0 1158.5Q1570 1188 1609.5 1205.0Q1649 1222 1693 1222Q1738 1222 1777.0 1205.0Q1816 1188 1845.5 1158.5Q1875 1129 1892.0 1090.0Q1909 1051 1909 1006Q1909 962 1892.0 922.5Q1875 883 1845.5 854.0Q1816 825 1776.5 808.0Q1737 791 1693 791Z" style="fill:#a6a6a6;stroke:none" transform="scale(1,-1) translate(0,-256)" /></svg>