<?xml version="1.0" encoding="utf-8" ?>
<svg baseProfile="full" height="256" version="1.1" width="256" xmlns="http://www.w3.org/2000/svg" xmlns:ev="http://www.w3.org/2001/xml-events" xmlns:xlink="http://www.w3.org/1999/xlink"><defs /><path d="M256 -431V-287Q256 -206 264.0 -129.0Q272 -52 292.5 20.5Q313 93 349.0 160.5Q385 228 441 291L523 536L268 791L628 1150H1059L1329 1420Q1437 1528 1562.5 1611.5Q1688 1695 1826.0 1752.5Q1964 1810 2111.5 1839.5Q2259 1869 2412 1869H2556V1725Q2556 1572 2526.5 1424.5Q2497 1277 2439.5 1139.0Q2382 1001 2298.5 875.5Q2215 750 2107 642L1837 372V-59L1478 -419L1223 -164L978 -246Q902 -315 821.5 -352.5Q741 -390 656.5 -407.5Q572 -425 482.0 -428.0Q392 -431 298 -431Z" style="fill:#000000;stroke:none" transform="scale(1,-1) translate(0,-256)" /></svg>