<?xml version="1.0" encoding="utf-8" ?>
<svg baseProfile="full" height="256" version="1.1" width="256" xmlns="http://www.w3.org/2000/svg" xmlns:ev="http://www.w3.org/2001/xml-events" xmlns:xlink="http://www.w3.org/1999/xlink"><defs /><path d="M776 205Q826 205 859.0 172.0Q892 139 892 89Q892 57 878.5 28.0Q865 -1 843 -24Q812 -56 777.0 -77.0Q742 -98 704.5 -111.5Q667 -125 626.5 -132.5Q586 -140 543 -144Q547 -101 554.5 -60.5Q562 -20 575.5 17.5Q589 55 610.0 90.0Q631 125 663 156Q686 178 715.0 191.5Q744 205 776 205Z" style="fill:#ffc83d;stroke:none" transform="scale(1,-1) translate(0,-256)" /></svg>