<?xml version="1.0" encoding="utf-8" ?>
<svg baseProfile="full" height="256" version="1.1" width="256" xmlns="http://www.w3.org/2000/svg" xmlns:ev="http://www.w3.org/2001/xml-events" xmlns:xlink="http://www.w3.org/1999/xlink"><defs /><path d="M995 936Q1013 946 1028.5 953.5Q1044 961 1058.0 968.5Q1072 976 1086.5 984.5Q1101 993 1118 1006Q1135 1019 1148.0 1031.5Q1161 1044 1172.5 1056.5Q1184 1069 1195.5 1082.0Q1207 1095 1222 1110L1431 1319Q1517 1405 1615.5 1474.0Q1714 1543 1824 1594L2143 1456L2281 1137Q2230 1027 2161.0 928.5Q2092 830 2006 744L1693 431L1574 31L1262 0L859 172L687 575L748 797Z" style="fill:#ffffff;stroke:none" transform="scale(1,-1) translate(0,-256)" /></svg>