<?xml version="1.0" encoding="utf-8" ?>
<svg baseProfile="full" height="256" version="1.1" width="256" xmlns="http://www.w3.org/2000/svg" xmlns:ev="http://www.w3.org/2001/xml-events" xmlns:xlink="http://www.w3.org/1999/xlink"><defs /><path d="M1442 431Q1427 431 1416.5 442.0Q1406 453 1406 467Q1406 475 1411.0 487.0Q1416 499 1422.5 512.0Q1429 525 1435.5 536.5Q1442 548 1446 555Q1456 575 1478 575Q1492 575 1503.0 564.5Q1514 554 1514 540Q1514 531 1509.0 519.0Q1504 507 1497.5 494.5Q1491 482 1484.5 470.0Q1478 458 1474 451Q1464 431 1442 431ZM1586 360Q1570 360 1560.0 370.0Q1550 380 1550 396Q1550 405 1554.5 417.0Q1559 429 1565.5 441.0Q1572 453 1578.5 464.0Q1585 475 1589 483Q1594 493 1602.5 498.0Q1611 503 1622 503Q1638 503 1648.0 492.5Q1658 482 1658 467Q1658 458 1653.0 446.0Q1648 434 1641.5 421.5Q1635 409 1628.5 397.5Q1622 386 1618 379Q1608 360 1586 360ZM1729 288Q1713 288 1703.0 298.5Q1693 309 1693 324Q1693 329 1694.0 332.5Q1695 336 1697 340L1733 412Q1738 421 1747.0 426.0Q1756 431 1766 431Q1781 431 1791.0 420.5Q1801 410 1801 396Q1801 387 1796.5 375.0Q1792 363 1785.5 350.5Q1779 338 1772.5 326.5Q1766 315 1762 308Q1752 288 1729 288ZM1873 216Q1858 216 1847.5 226.5Q1837 237 1837 251Q1837 260 1842.0 272.0Q1847 284 1853.5 296.5Q1860 309 1866.5 320.5Q1873 332 1877 340Q1882 349 1890.5 354.0Q1899 359 1910 359Q1924 359 1934.5 349.0Q1945 339 1945 324Q1945 316 1940.0 304.0Q1935 292 1928.5 279.0Q1922 266 1915.5 254.5Q1909 243 1905 236Q1895 216 1873 216ZM2017 144Q2003 144 1992.0 154.5Q1981 165 1981 180Q1981 188 1986.0 200.0Q1991 212 1997.5 224.5Q2004 237 2010.5 248.5Q2017 260 2021 268Q2031 288 2053 288Q2067 288 2078.0 277.5Q2089 267 2089 252Q2089 244 2084.0 232.0Q2079 220 2072.5 207.0Q2066 194 2059.5 182.5Q2053 171 2049 164Q2039 144 2017 144Z" style="fill:#383838;stroke:none" transform="scale(1,-1) translate(0,-256)" /></svg>