<?xml version="1.0" encoding="utf-8" ?>
<svg baseProfile="full" height="256" version="1.1" width="256" xmlns="http://www.w3.org/2000/svg" xmlns:ev="http://www.w3.org/2001/xml-events" xmlns:xlink="http://www.w3.org/1999/xlink"><defs /><path d="M508 -431Q456 -431 410.0 -411.0Q364 -391 330.0 -357.0Q296 -323 276.0 -277.0Q256 -231 256 -179V457Q256 504 273.5 545.0Q291 586 322.0 617.0Q353 648 394.0 665.5Q435 683 482 683Q520 683 554.5 671.0Q589 659 617.5 637.0Q646 615 667.0 585.0Q688 555 699 519Q710 481 734.5 456.0Q759 431 802 431Q805 431 808.5 431.5Q812 432 815 432Q808 461 808 495Q808 560 839 624L854 654Q874 695 894.5 733.0Q915 771 942.5 800.0Q970 829 1007.5 846.0Q1045 863 1099 863Q1125 863 1151.5 856.5Q1178 850 1201 839L2348 265Q2396 241 2434.5 205.5Q2473 170 2500.0 126.0Q2527 82 2541.5 32.0Q2556 -18 2556 -72V-179Q2556 -231 2536.0 -277.0Q2516 -323 2482.0 -357.0Q2448 -391 2402.0 -411.0Q2356 -431 2304 -431Z" style="fill:#000000;stroke:none" transform="scale(1,-1) translate(0,-256)" /></svg>