<?xml version="1.0" encoding="utf-8" ?>
<svg baseProfile="full" height="256" version="1.1" width="256" xmlns="http://www.w3.org/2000/svg" xmlns:ev="http://www.w3.org/2001/xml-events" xmlns:xlink="http://www.w3.org/1999/xlink"><defs /><path d="M1093 635Q1100 634 1125.5 629.0Q1151 624 1185.0 618.0Q1219 612 1257.0 604.5Q1295 597 1327.5 591.0Q1360 585 1382.0 580.5Q1404 576 1406 575Q1450 557 1485.5 539.5Q1521 522 1554.0 505.0Q1587 488 1621.5 469.0Q1656 450 1699 429L2284 136Q2313 121 2337.0 99.0Q2361 77 2377.5 50.0Q2394 23 2403.0 -8.0Q2412 -39 2412 -72L1647 -167Q1591 -174 1545.5 -182.5Q1500 -191 1456.5 -198.0Q1413 -205 1367.0 -210.0Q1321 -215 1265 -215Q1222 -215 1187.5 -210.0Q1153 -205 1120.0 -198.0Q1087 -191 1053.0 -182.5Q1019 -174 977 -167L400 -72V457Q400 492 423.5 515.5Q447 539 482 539Q511 539 531.0 522.5Q551 506 560 480L564 467Q576 427 599.0 394.0Q622 361 653.0 337.5Q684 314 722.0 301.0Q760 288 802 288Q836 288 863.0 295.0Q890 302 913.0 314.5Q936 327 957.5 345.5Q979 364 1002 387Z" style="fill:#ffffff;stroke:none" transform="scale(1,-1) translate(0,-256)" /></svg>