<?xml version="1.0" encoding="utf-8" ?>
<svg baseProfile="full" height="256" version="1.1" width="256" xmlns="http://www.w3.org/2000/svg" xmlns:ev="http://www.w3.org/2001/xml-events" xmlns:xlink="http://www.w3.org/1999/xlink"><defs /><path d="M2362 72Q2386 41 2399.0 4.0Q2412 -33 2412 -72L1997 -164L1550 -72Q1550 -42 1561.0 -16.0Q1572 10 1591.5 29.5Q1611 49 1637.0 60.5Q1663 72 1693 72ZM637 -139 400 -72V216H615Q675 216 727.5 193.5Q780 171 819.0 132.0Q858 93 880.5 40.5Q903 -12 903 -72ZM1002 387Q978 407 965.0 435.5Q952 464 952 496Q952 530 967 560L1023 672Q1034 693 1054.5 706.0Q1075 719 1099 719Q1118 719 1136 710L1406 575Q1351 575 1310.5 572.0Q1270 569 1238.0 560.5Q1206 552 1179.5 538.5Q1153 525 1126.5 504.0Q1100 483 1070.5 454.0Q1041 425 1002 387Z" style="fill:#00bcf2;stroke:none" transform="scale(1,-1) translate(0,-256)" /></svg>