<?xml version="1.0" encoding="utf-8" ?>
<svg baseProfile="full" height="256" version="1.1" width="256" xmlns="http://www.w3.org/2000/svg" xmlns:ev="http://www.w3.org/2001/xml-events" xmlns:xlink="http://www.w3.org/1999/xlink"><defs /><path d="M2412 968Q2479 928 2517.5 862.5Q2556 797 2556 719Q2556 681 2546.0 644.5Q2536 608 2517.5 575.0Q2499 542 2472.0 515.0Q2445 488 2412 470V-72H2101Q2100 -72 2063.5 -60.0Q2027 -48 1968.0 -28.5Q1909 -9 1832.5 16.5Q1756 42 1675.0 69.5Q1594 97 1514.5 123.5Q1435 150 1368.0 172.5Q1301 195 1253.5 211.0Q1206 227 1190 232V144Q1190 99 1173.0 60.0Q1156 21 1127.0 -8.5Q1098 -38 1059.0 -55.0Q1020 -72 975 -72H831Q786 -72 747.0 -55.0Q708 -38 678.5 -8.5Q649 21 632.0 60.0Q615 99 615 144V288H570Q534 288 500.0 291.5Q466 295 431 310Q392 327 359.5 354.5Q327 382 304.0 416.5Q281 451 268.5 491.5Q256 532 256 575V863Q256 922 278.5 974.5Q301 1027 340.0 1066.0Q379 1105 431.5 1127.5Q484 1150 543 1150Q653 1150 762.0 1148.5Q871 1147 980 1147Q1020 1147 1071.5 1160.5Q1123 1174 1177.0 1193.5Q1231 1213 1283.0 1233.0Q1335 1253 1375 1267L2079 1502Q2089 1505 2101 1510H2412Z" style="fill:#000000;stroke:none" transform="scale(1,-1) translate(0,-256)" /></svg>