<?xml version="1.0" encoding="utf-8" ?>
<svg baseProfile="full" height="256" version="1.1" width="256" xmlns="http://www.w3.org/2000/svg" xmlns:ev="http://www.w3.org/2001/xml-events" xmlns:xlink="http://www.w3.org/1999/xlink"><defs /><path d="M1909 1366Q1998 1366 2081.0 1343.0Q2164 1320 2235.5 1277.5Q2307 1235 2366.0 1176.0Q2425 1117 2467.5 1045.5Q2510 974 2533.0 891.0Q2556 808 2556 719Q2556 630 2533.0 547.0Q2510 464 2467.5 392.5Q2425 321 2366.0 262.0Q2307 203 2235.5 160.5Q2164 118 2081.0 95.0Q1998 72 1909 72H903Q814 72 731.0 95.0Q648 118 576.5 160.5Q505 203 446.0 262.0Q387 321 344.5 392.5Q302 464 279.0 547.0Q256 630 256 719Q256 808 279.0 891.0Q302 974 344.5 1045.5Q387 1117 446.0 1176.0Q505 1235 576.5 1277.5Q648 1320 731.0 1343.0Q814 1366 903 1366Z" style="fill:#000000;stroke:none" transform="scale(1,-1) translate(0,-256)" /></svg>