<?xml version="1.0" encoding="utf-8" ?>
<svg baseProfile="full" height="256" version="1.1" width="256" xmlns="http://www.w3.org/2000/svg" xmlns:ev="http://www.w3.org/2001/xml-events" xmlns:xlink="http://www.w3.org/1999/xlink"><defs /><path d="M1909 503Q1864 503 1825.0 520.0Q1786 537 1756.5 566.5Q1727 596 1710.0 635.0Q1693 674 1693 719Q1693 764 1710.0 803.0Q1727 842 1756.5 871.5Q1786 901 1825.0 918.0Q1864 935 1909 935Q1954 935 1993.0 918.0Q2032 901 2061.5 871.5Q2091 842 2108.0 803.0Q2125 764 2125 719Q2125 674 2108.0 635.0Q2091 596 2061.5 566.5Q2032 537 1993.0 520.0Q1954 503 1909 503Z" style="fill:#e81224;stroke:none" transform="scale(1,-1) translate(0,-256)" /></svg>