<?xml version="1.0" encoding="utf-8" ?>
<svg baseProfile="full" height="256" version="1.1" width="256" xmlns="http://www.w3.org/2000/svg" xmlns:ev="http://www.w3.org/2001/xml-events" xmlns:xlink="http://www.w3.org/1999/xlink"><defs /><path d="M1909 1150Q1998 1150 2076.5 1116.0Q2155 1082 2213.5 1023.5Q2272 965 2306.0 886.5Q2340 808 2340 719Q2340 630 2306.0 551.5Q2272 473 2213.5 414.5Q2155 356 2076.5 322.0Q1998 288 1909 288H903Q814 288 735.5 322.0Q657 356 598.5 414.5Q540 473 506.0 551.5Q472 630 472 719Q472 808 506.0 886.5Q540 965 598.5 1023.5Q657 1082 735.5 1116.0Q814 1150 903 1150Z" style="fill:#1f1f1f;stroke:none" transform="scale(1,-1) translate(0,-256)" /></svg>