<?xml version="1.0" encoding="utf-8" ?>
<svg baseProfile="full" height="256" version="1.1" width="256" xmlns="http://www.w3.org/2000/svg" xmlns:ev="http://www.w3.org/2001/xml-events" xmlns:xlink="http://www.w3.org/1999/xlink"><defs /><path d="M1909 1222Q2013 1222 2104.5 1182.5Q2196 1143 2264.5 1074.5Q2333 1006 2372.5 914.5Q2412 823 2412 719Q2412 615 2372.5 523.5Q2333 432 2264.5 363.5Q2196 295 2104.5 255.5Q2013 216 1909 216H903Q799 216 707.0 255.5Q615 295 547.0 363.0Q479 431 439.5 523.0Q400 615 400 719Q400 823 439.5 914.5Q479 1006 547.5 1074.5Q616 1143 707.5 1182.5Q799 1222 903 1222Z" style="fill:#757575;stroke:none" transform="scale(1,-1) translate(0,-256)" /></svg>