<?xml version="1.0" encoding="utf-8" ?>
<svg baseProfile="full" height="256" version="1.1" width="256" xmlns="http://www.w3.org/2000/svg" xmlns:ev="http://www.w3.org/2001/xml-events" xmlns:xlink="http://www.w3.org/1999/xlink"><defs /><path d="M801 1150Q801 1031 832.0 921.0Q863 811 919.0 715.0Q975 619 1053.5 540.5Q1132 462 1228.0 406.0Q1324 350 1434.0 319.0Q1544 288 1663 288Q1782 288 1896.0 320.0Q2010 352 2112 414Q2053 318 1973.0 241.0Q1893 164 1798.0 110.5Q1703 57 1596.0 28.5Q1489 0 1376 0Q1257 0 1147.0 31.0Q1037 62 941.0 118.0Q845 174 766.0 253.0Q687 332 631.0 428.0Q575 524 544.0 634.0Q513 744 513 863Q513 976 541.5 1083.0Q570 1190 624.0 1285.0Q678 1380 755.0 1460.0Q832 1540 928 1599Q865 1497 833.0 1383.0Q801 1269 801 1150Z" style="fill:#735bc1;stroke:none" transform="scale(1,-1) translate(0,-256)" /></svg>