<?xml version="1.0" encoding="utf-8" ?>
<svg baseProfile="full" height="256" version="1.1" width="256" xmlns="http://www.w3.org/2000/svg" xmlns:ev="http://www.w3.org/2001/xml-events" xmlns:xlink="http://www.w3.org/1999/xlink"><defs /><path d="M1088 -431Q1017 -431 957.0 -414.0Q897 -397 844.5 -366.0Q792 -335 746.0 -291.5Q700 -248 657 -195V38L550 252L317 369Q290 383 273.0 410.0Q256 437 256 467Q256 496 268.5 517.0Q281 538 301.0 554.0Q321 570 345.0 582.0Q369 594 392 604L402 609Q370 735 370 863Q370 984 398.5 1102.0Q427 1220 484 1328Q447 1342 423.0 1369.0Q399 1396 399 1438Q399 1472 416.5 1496.0Q434 1520 460.5 1537.5Q487 1555 517.5 1568.0Q548 1581 574 1593L579 1604Q591 1630 604.0 1655.5Q617 1681 631 1706Q648 1735 671.0 1751.0Q694 1767 729 1767Q761 1767 787.0 1751.0Q813 1735 827 1706Q950 1787 1089.5 1828.0Q1229 1869 1376 1869Q1515 1869 1643.5 1833.0Q1772 1797 1883.5 1731.5Q1995 1666 2087.0 1574.0Q2179 1482 2244.5 1370.5Q2310 1259 2346.0 1130.5Q2382 1002 2382 863Q2382 756 2359.0 652.0Q2336 548 2292.5 451.0Q2249 354 2186.0 268.0Q2123 182 2043 111L2095 60V-194Q2053 -248 2006.5 -291.5Q1960 -335 1907.0 -366.0Q1854 -397 1793.5 -414.0Q1733 -431 1663 -431Z" style="fill:#000000;stroke:none" transform="scale(1,-1) translate(0,-256)" /></svg>