<?xml version="1.0" encoding="utf-8" ?>
<svg baseProfile="full" height="256" version="1.1" width="256" xmlns="http://www.w3.org/2000/svg" xmlns:ev="http://www.w3.org/2001/xml-events" xmlns:xlink="http://www.w3.org/1999/xlink"><defs /><path d="M2238 863Q2238 743 2206.5 629.5Q2175 516 2112 414Q2020 345 1938.5 290.0Q1857 235 1772.0 196.5Q1687 158 1591.5 137.0Q1496 116 1376 116Q1198 116 1060.5 162.0Q923 208 829.0 299.5Q735 391 686.0 527.0Q637 663 637 843Q637 929 644.5 1000.0Q652 1071 667.0 1132.5Q682 1194 705.5 1250.0Q729 1306 761.5 1361.5Q794 1417 835.0 1475.0Q876 1533 927 1599Q1029 1662 1142.5 1693.5Q1256 1725 1376 1725Q1495 1725 1605.0 1694.0Q1715 1663 1811.0 1607.0Q1907 1551 1985.5 1472.5Q2064 1394 2120.0 1298.0Q2176 1202 2207.0 1092.0Q2238 982 2238 863Z" style="fill:#886ce4;stroke:none" transform="scale(1,-1) translate(0,-256)" /></svg>