<?xml version="1.0" encoding="utf-8" ?>
<svg baseProfile="full" height="256" version="1.1" width="256" xmlns="http://www.w3.org/2000/svg" xmlns:ev="http://www.w3.org/2001/xml-events" xmlns:xlink="http://www.w3.org/1999/xlink"><defs /><path d="M1693 1095 2556 664V-431H256V1510H771Q781 1537 797.5 1560.5Q814 1584 836 1603Q846 1660 875.0 1709.0Q904 1758 947.0 1793.5Q990 1829 1043.0 1849.0Q1096 1869 1154 1869Q1228 1869 1298 1835Q1368 1869 1442 1869Q1497 1869 1549.5 1850.5Q1602 1832 1645 1797Q1707 1797 1757.5 1776.5Q1808 1756 1849 1708Q1909 1683 1945.0 1629.0Q1981 1575 1981 1510Q1981 1465 1964.0 1426.0Q1947 1387 1917.5 1357.5Q1888 1328 1849.0 1311.0Q1810 1294 1765 1294Q1739 1294 1714 1300Q1697 1296 1679.5 1295.0Q1662 1294 1645 1294Q1602 1259 1549.5 1240.5Q1497 1222 1442 1222Q1368 1222 1298 1256L1262 1240V1023L1693 808Z" style="fill:#000000;stroke:none" transform="scale(1,-1) translate(0,-256)" /></svg>