<?xml version="1.0" encoding="utf-8" ?>
<svg baseProfile="full" height="256" version="1.1" width="256" xmlns="http://www.w3.org/2000/svg" xmlns:ev="http://www.w3.org/2001/xml-events" xmlns:xlink="http://www.w3.org/1999/xlink"><defs /><path d="M400 791V935L537 1005L687 935V791L543 731ZM831 791V935L968 1005L1118 935V791L974 731ZM400 1078V1222L541 1293L687 1222V1078L537 1028ZM831 1078V1222L972 1293L1118 1222V1078L968 1028ZM831 575V647L968 718L1118 647V575L1044 505H904ZM400 575V647L537 718L687 647V575L613 505H473Z" style="fill:#e5e5e5;stroke:none" transform="scale(1,-1) translate(0,-256)" /></svg>