<?xml version="1.0" encoding="utf-8" ?>
<svg baseProfile="full" height="256" version="1.1" width="256" xmlns="http://www.w3.org/2000/svg" xmlns:ev="http://www.w3.org/2001/xml-events" xmlns:xlink="http://www.w3.org/1999/xlink"><defs /><path d="M256 1073Q256 1163 279.5 1246.5Q303 1330 345.0 1402.0Q387 1474 447.0 1534.0Q507 1594 579.0 1636.0Q651 1678 734.5 1701.5Q818 1725 908 1725Q986 1725 1053.5 1709.5Q1121 1694 1181.5 1665.0Q1242 1636 1297.5 1593.5Q1353 1551 1406 1497Q1459 1551 1514.0 1593.5Q1569 1636 1630.0 1665.0Q1691 1694 1758.5 1709.5Q1826 1725 1904 1725Q2039 1725 2157.5 1673.5Q2276 1622 2364.5 1533.5Q2453 1445 2504.5 1326.5Q2556 1208 2556 1073Q2556 942 2507.0 823.5Q2458 705 2365 612L1406 -347L447 612Q354 705 305.0 823.5Q256 942 256 1073Z" style="fill:#000000;stroke:none" transform="scale(1,-1) translate(0,-256)" /></svg>