<?xml version="1.0" encoding="utf-8" ?>
<svg baseProfile="full" height="256" version="1.1" width="256" xmlns="http://www.w3.org/2000/svg" xmlns:ev="http://www.w3.org/2001/xml-events" xmlns:xlink="http://www.w3.org/1999/xlink"><defs /><path d="M1694 360Q1694 271 1671.0 188.0Q1648 105 1605.5 33.5Q1563 -38 1504.0 -97.0Q1445 -156 1373.5 -198.5Q1302 -241 1219.0 -264.0Q1136 -287 1047 -287Q958 -287 875.0 -264.0Q792 -241 720.5 -198.5Q649 -156 590.0 -97.0Q531 -38 488.5 33.5Q446 105 423.0 188.0Q400 271 400 360V1006Q400 1095 423.0 1178.0Q446 1261 488.5 1332.5Q531 1404 590.0 1463.0Q649 1522 720.5 1564.5Q792 1607 875.0 1630.0Q958 1653 1047 1653Q1136 1653 1219.0 1630.0Q1302 1607 1373.5 1564.5Q1445 1522 1504.0 1463.0Q1563 1404 1605.5 1332.5Q1648 1261 1671.0 1178.0Q1694 1095 1694 1006Z" style="fill:#cccccc;stroke:none" transform="scale(1,-1) translate(0,-256)" /></svg>