<?xml version="1.0" encoding="utf-8" ?>
<svg baseProfile="full" height="256" version="1.1" width="256" xmlns="http://www.w3.org/2000/svg" xmlns:ev="http://www.w3.org/2001/xml-events" xmlns:xlink="http://www.w3.org/1999/xlink"><defs /><path d="M1047 -431Q938 -431 837.0 -402.5Q736 -374 648.0 -322.5Q560 -271 488.0 -199.0Q416 -127 364.5 -39.0Q313 49 284.5 150.0Q256 251 256 360V1006Q256 1205 341.0 1362.5Q426 1520 579 1643Q586 1649 593.5 1654.0Q601 1659 608 1665Q623 1680 637.0 1695.5Q651 1711 667 1725Q747 1795 844.0 1832.0Q941 1869 1047 1869Q1153 1869 1250.0 1832.0Q1347 1795 1427 1725Q1443 1711 1457.0 1695.5Q1471 1680 1486 1665Q1493 1659 1500.5 1654.0Q1508 1649 1515 1643Q1668 1520 1753.0 1362.5Q1838 1205 1838 1006V360Q1838 251 1809.5 150.0Q1781 49 1729.5 -39.0Q1678 -127 1606.0 -199.0Q1534 -271 1446.0 -322.5Q1358 -374 1257.0 -402.5Q1156 -431 1047 -431Z" style="fill:#000000;stroke:none" transform="scale(1,-1) translate(0,-256)" /></svg>