<?xml version="1.0" encoding="utf-8" ?>
<svg baseProfile="full" height="256" version="1.1" width="256" xmlns="http://www.w3.org/2000/svg" xmlns:ev="http://www.w3.org/2001/xml-events" xmlns:xlink="http://www.w3.org/1999/xlink"><defs /><path d="M1047 935Q1098 935 1155.5 944.5Q1213 954 1269.0 973.5Q1325 993 1376.0 1022.5Q1427 1052 1465.5 1092.0Q1504 1132 1527.0 1182.5Q1550 1233 1550 1294V503Q1550 399 1510.5 307.5Q1471 216 1402.5 147.5Q1334 79 1242.5 39.5Q1151 0 1047 0Q943 0 851.0 39.5Q759 79 691.0 147.0Q623 215 583.5 307.0Q544 399 544 503V1294Q544 1233 567.0 1182.5Q590 1132 628.5 1092.0Q667 1052 718.0 1022.5Q769 993 825.0 973.5Q881 954 938.0 944.5Q995 935 1047 935Z" style="fill:#e5e5e5;stroke:none" transform="scale(1,-1) translate(0,-256)" /></svg>