<?xml version="1.0" encoding="utf-8" ?>
<svg baseProfile="full" height="256" version="1.1" width="256" xmlns="http://www.w3.org/2000/svg" xmlns:ev="http://www.w3.org/2001/xml-events" xmlns:xlink="http://www.w3.org/1999/xlink"><defs /><path d="M1047 1725Q1136 1725 1214.5 1691.0Q1293 1657 1351.5 1598.5Q1410 1540 1444.0 1461.5Q1478 1383 1478 1294Q1478 1244 1457.5 1203.0Q1437 1162 1403.0 1130.0Q1369 1098 1324.5 1074.5Q1280 1051 1232.0 1036.0Q1184 1021 1136.0 1013.5Q1088 1006 1047 1006Q1006 1006 958.0 1013.5Q910 1021 862.0 1036.0Q814 1051 769.5 1074.5Q725 1098 691.0 1130.0Q657 1162 636.5 1203.0Q616 1244 616 1294Q616 1383 650.0 1461.5Q684 1540 742.5 1598.5Q801 1657 879.5 1691.0Q958 1725 1047 1725Z" style="fill:#f03a17;stroke:none" transform="scale(1,-1) translate(0,-256)" /></svg>