<?xml version="1.0" encoding="utf-8" ?>
<svg baseProfile="full" height="256" version="1.1" width="256" xmlns="http://www.w3.org/2000/svg" xmlns:ev="http://www.w3.org/2001/xml-events" xmlns:xlink="http://www.w3.org/1999/xlink"><defs /><path d="M1478 267 1596 385 1647 334 1529 216ZM903 842 1021 960 1072 909 954 791ZM615 1129 734 1247 784 1197 666 1078ZM1765 -21 1884 97 1934 47 1816 -72ZM1190 554 1309 672 1359 622 1241 503ZM1165 816 1216 765 1169 719 1118 770ZM590 1391 641 1340 594 1294 543 1345ZM1452 529 1503 478 1457 431 1406 482ZM877 1104 928 1053 882 1006 831 1057ZM1740 241 1791 190 1744 144 1693 195ZM2027 -46 2078 -97 2032 -144 1981 -93Z" style="fill:#383838;stroke:none" transform="scale(1,-1) translate(0,-256)" /></svg>