<?xml version="1.0" encoding="utf-8" ?>
<svg baseProfile="full" height="256" version="1.1" width="256" xmlns="http://www.w3.org/2000/svg" xmlns:ev="http://www.w3.org/2001/xml-events" xmlns:xlink="http://www.w3.org/1999/xlink"><defs /><path d="M400 -287V1581L590 1391L574 1331L641 1340L734 1247L704 1170L784 1197L877 1104L861 1037L928 1053L1021 960L995 885L1072 909L1165 816L1154 758L1216 765L1309 672L1284 594L1359 622L1452 529L1442 464L1503 478L1596 385L1568 306L1647 334L1740 241L1727 173L1791 190L1884 97L1863 23L1934 47L2027 -46L2018 -112L2078 -97L2268 -287ZM687 863V0H1550Z" style="fill:#ffb900;stroke:none" transform="scale(1,-1) translate(0,-256)" /></svg>