<?xml version="1.0" encoding="utf-8" ?>
<svg baseProfile="full" height="256" version="1.1" width="256" xmlns="http://www.w3.org/2000/svg" xmlns:ev="http://www.w3.org/2001/xml-events" xmlns:xlink="http://www.w3.org/1999/xlink"><defs /><path d="M1626 1226 1913 939 1262 288 1022 338 975 575ZM2340 1510Q2372 1483 2392.0 1446.0Q2412 1409 2412 1366Q2412 1336 2391.0 1315.0Q2370 1294 2340 1294Q2311 1294 2289.5 1315.5Q2268 1337 2268 1366Q2268 1409 2288.0 1446.0Q2308 1483 2340 1510ZM2197 1222Q2229 1195 2248.5 1158.0Q2268 1121 2268 1078Q2268 1049 2247.0 1027.5Q2226 1006 2197 1006Q2168 1006 2146.5 1027.5Q2125 1049 2125 1078Q2125 1121 2145.0 1158.0Q2165 1195 2197 1222Z" style="fill:#e81224;stroke:none" transform="scale(1,-1) translate(0,-256)" /></svg>