<?xml version="1.0" encoding="utf-8" ?>
<svg baseProfile="full" height="256" version="1.1" width="256" xmlns="http://www.w3.org/2000/svg" xmlns:ev="http://www.w3.org/2001/xml-events" xmlns:xlink="http://www.w3.org/1999/xlink"><defs /><path d="M2556 1869V1594L2503 1541Q2528 1502 2542.0 1457.5Q2556 1413 2556 1366Q2556 1330 2544.5 1297.5Q2533 1265 2512.5 1237.5Q2492 1210 2463.5 1190.0Q2435 1170 2401 1160Q2412 1118 2412 1078Q2412 1034 2395.0 995.0Q2378 956 2348.5 926.5Q2319 897 2280.0 880.0Q2241 863 2197 863Q2175 863 2158 867Q2150 844 2137.5 823.5Q2125 803 2108 786L1332 10Q1333 2 1333.5 -5.0Q1334 -12 1334 -20Q1334 -60 1318.5 -95.5Q1303 -131 1277.0 -157.5Q1251 -184 1215.5 -199.5Q1180 -215 1140 -215Q1105 -215 1071.0 -202.5Q1037 -190 1011 -167L972 -206Q975 -223 975 -238Q975 -278 959.5 -313.0Q944 -348 917.5 -374.5Q891 -401 855.5 -416.0Q820 -431 780 -431Q700 -431 643 -374L313 -44Q256 13 256 93Q256 133 271.5 169.0Q287 205 313.0 231.0Q339 257 374.5 272.5Q410 288 451 288Q466 288 481 285L520 324Q497 350 484.5 383.5Q472 417 472 452Q472 496 488.0 531.5Q504 567 532.0 592.5Q560 618 597.0 632.0Q634 646 675 646Q680 646 686.0 646.0Q692 646 697 645L1473 1421Q1504 1452 1543.0 1468.0Q1582 1484 1626 1484Q1666 1484 1703.0 1470.0Q1740 1456 1769 1429L1842 1502L1877 1466L2281 1869Z" style="fill:#000000;stroke:none" transform="scale(1,-1) translate(0,-256)" /></svg>