<?xml version="1.0" encoding="utf-8" ?>
<svg baseProfile="full" height="256" version="1.1" width="256" xmlns="http://www.w3.org/2000/svg" xmlns:ev="http://www.w3.org/2001/xml-events" xmlns:xlink="http://www.w3.org/1999/xlink"><defs /><path d="M666 503Q687 503 702 488L1175 15Q1190 0 1190 -21Q1190 -42 1175.0 -57.0Q1160 -72 1139 -72Q1119 -72 1104 -57L630 417Q615 432 615 452Q615 473 630.0 488.0Q645 503 666 503ZM2340 1725H2412V1653L1949 1190L1877 1262ZM450 144Q471 144 486 129L816 -201Q831 -216 831 -237Q831 -257 815.5 -272.0Q800 -287 780 -287Q759 -287 744 -272L415 57Q400 72 400 93Q400 113 415.0 128.5Q430 144 450 144Z" style="fill:#e5e5e5;stroke:none" transform="scale(1,-1) translate(0,-256)" /></svg>