<?xml version="1.0" encoding="utf-8" ?>
<svg baseProfile="full" height="256" version="1.1" width="256" xmlns="http://www.w3.org/2000/svg" xmlns:ev="http://www.w3.org/2001/xml-events" xmlns:xlink="http://www.w3.org/1999/xlink"><defs /><path d="M1729 1294Q1796 1294 1855.0 1268.5Q1914 1243 1958.0 1199.0Q2002 1155 2027.5 1096.5Q2053 1038 2053 971Q2053 904 2027.5 845.0Q2002 786 1958.0 742.0Q1914 698 1855.0 672.5Q1796 647 1729 647Q1662 647 1603.5 672.5Q1545 698 1501.0 742.0Q1457 786 1431.5 845.0Q1406 904 1406 971Q1406 1038 1431.5 1096.5Q1457 1155 1501.0 1199.0Q1545 1243 1603.5 1268.5Q1662 1294 1729 1294ZM1729 827Q1759 827 1785.0 838.0Q1811 849 1830.5 868.5Q1850 888 1861.5 914.5Q1873 941 1873 971Q1873 1001 1861.5 1027.0Q1850 1053 1830.5 1072.5Q1811 1092 1785.0 1103.0Q1759 1114 1729 1114Q1699 1114 1673.0 1103.0Q1647 1092 1627.5 1072.5Q1608 1053 1597.0 1027.0Q1586 1001 1586 971Q1586 941 1597.0 915.0Q1608 889 1627.5 869.5Q1647 850 1673.0 838.5Q1699 827 1729 827Z" style="fill:#ffffff;stroke:none" transform="scale(1,-1) translate(0,-256)" /></svg>