<?xml version="1.0" encoding="utf-8" ?>
<svg baseProfile="full" height="256" version="1.1" width="256" xmlns="http://www.w3.org/2000/svg" xmlns:ev="http://www.w3.org/2001/xml-events" xmlns:xlink="http://www.w3.org/1999/xlink"><defs /><path d="M1406 -72Q1287 -72 1182.5 -26.5Q1078 19 1000.0 97.0Q922 175 876.5 279.5Q831 384 831 503H1981Q1981 384 1935.5 279.5Q1890 175 1812.0 97.0Q1734 19 1629.0 -26.5Q1524 -72 1406 -72ZM1729 746Q1682 746 1641.5 763.5Q1601 781 1570.5 812.0Q1540 843 1522.5 883.5Q1505 924 1505 971Q1505 1017 1522.5 1058.0Q1540 1099 1570.5 1129.5Q1601 1160 1641.5 1177.5Q1682 1195 1729 1195Q1775 1195 1816.0 1177.5Q1857 1160 1888.0 1129.5Q1919 1099 1936.5 1058.0Q1954 1017 1954 971Q1954 924 1936.5 883.5Q1919 843 1888.0 812.0Q1857 781 1816.0 763.5Q1775 746 1729 746ZM903 935Q874 935 852.5 913.5Q831 892 831 863H759Q759 908 776.0 947.0Q793 986 822.5 1015.0Q852 1044 891.0 1061.0Q930 1078 975 1078H1047Q1092 1078 1131.0 1061.0Q1170 1044 1199.0 1015.0Q1228 986 1245.0 947.0Q1262 908 1262 863H1190Q1190 892 1168.5 913.5Q1147 935 1118 935Z" style="fill:#000000;stroke:none" transform="scale(1,-1) translate(0,-256)" /></svg>