<?xml version="1.0" encoding="utf-8" ?>
<svg baseProfile="full" height="256" version="1.1" width="256" xmlns="http://www.w3.org/2000/svg" xmlns:ev="http://www.w3.org/2001/xml-events" xmlns:xlink="http://www.w3.org/1999/xlink"><defs /><path d="M1945 288Q1982 288 2015.0 274.0Q2048 260 2072.5 235.5Q2097 211 2111.0 178.0Q2125 145 2125 108Q2125 70 2111.0 37.5Q2097 5 2072.5 -19.5Q2048 -44 2015.0 -58.0Q1982 -72 1945 -72H1818Q1863 -9 1886.0 64.5Q1909 138 1909 216Q1909 252 1903 288ZM909 288Q903 252 903 216Q903 138 925.5 64.5Q948 -9 993 -72H867Q829 -72 796.5 -58.0Q764 -44 739.5 -19.5Q715 5 701.0 37.5Q687 70 687 108Q687 145 701.0 178.0Q715 211 739.5 235.5Q764 260 796.5 274.0Q829 288 867 288ZM903 503Q873 503 852.0 524.0Q831 545 831 575V647L975 791V575Q975 545 954.0 524.0Q933 503 903 503ZM1909 503Q1879 503 1858.0 524.0Q1837 545 1837 575V791L1981 647V575Q1981 545 1960.0 524.0Q1939 503 1909 503Z" style="fill:#d48c00;stroke:none" transform="scale(1,-1) translate(0,-256)" /></svg>