<?xml version="1.0" encoding="utf-8" ?>
<svg baseProfile="full" height="256" version="1.1" width="256" xmlns="http://www.w3.org/2000/svg" xmlns:ev="http://www.w3.org/2001/xml-events" xmlns:xlink="http://www.w3.org/1999/xlink"><defs /><path d="M1406 -431Q1266 -431 1142.0 -374.5Q1018 -318 924 -215H759Q655 -215 563.5 -175.5Q472 -136 403.5 -67.5Q335 1 295.5 92.5Q256 184 256 288Q256 396 296.5 488.0Q337 580 407.0 647.5Q477 715 570.5 753.0Q664 791 771 791L841 860L908 1256Q917 1311 926.0 1366.0Q935 1421 946 1476Q964 1562 1004.5 1634.5Q1045 1707 1104.0 1759.0Q1163 1811 1239.5 1840.0Q1316 1869 1406 1869Q1498 1869 1574.5 1839.5Q1651 1810 1709.5 1757.5Q1768 1705 1808.0 1632.5Q1848 1560 1866 1473Q1877 1419 1885.0 1364.0Q1893 1309 1903 1254L1971 860L2040 791Q2146 791 2240.0 753.0Q2334 715 2404.5 647.5Q2475 580 2515.5 488.0Q2556 396 2556 288Q2556 184 2516.5 92.5Q2477 1 2408.5 -67.5Q2340 -136 2248.5 -175.5Q2157 -215 2053 -215H1888Q1794 -318 1670.0 -374.5Q1546 -431 1406 -431Z" style="fill:#000000;stroke:none" transform="scale(1,-1) translate(0,-256)" /></svg>