<?xml version="1.0" encoding="utf-8" ?>
<svg baseProfile="full" height="256" version="1.1" width="256" xmlns="http://www.w3.org/2000/svg" xmlns:ev="http://www.w3.org/2001/xml-events" xmlns:xlink="http://www.w3.org/1999/xlink"><defs /><path d="M1406 1725Q1525 1725 1641.0 1697.5Q1757 1670 1863 1616Q1869 1593 1885.0 1571.5Q1901 1550 1923.5 1533.5Q1946 1517 1972.0 1507.0Q1998 1497 2023 1497Q2028 1497 2032.5 1497.5Q2037 1498 2042 1499Q2116 1439 2177.5 1365.5Q2239 1292 2285.5 1208.5Q2332 1125 2362.0 1034.0Q2392 943 2404 848Q2386 819 2378.0 786.0Q2370 753 2370 719Q2370 681 2375.5 651.5Q2381 622 2404 590Q2392 497 2362.5 407.5Q2333 318 2288.0 235.5Q2243 153 2183.0 80.0Q2123 7 2051 -53Q2043 -51 2035.5 -50.0Q2028 -49 2020 -49Q2002 -49 1986.0 -57.5Q1970 -66 1957.5 -79.5Q1945 -93 1937.0 -110.0Q1929 -127 1926 -143Q1808 -215 1676.0 -251.0Q1544 -287 1406 -287Z" style="fill:#ffc83d;stroke:none" transform="scale(1,-1) translate(0,-256)" /></svg>