<?xml version="1.0" encoding="utf-8" ?>
<svg baseProfile="full" height="256" version="1.1" width="256" xmlns="http://www.w3.org/2000/svg" xmlns:ev="http://www.w3.org/2001/xml-events" xmlns:xlink="http://www.w3.org/1999/xlink"><defs /><path d="M981 1630Q1010 1610 1028.5 1578.0Q1047 1546 1047 1510Q1047 1480 1035.5 1454.0Q1024 1428 1004.5 1408.5Q985 1389 959.0 1377.5Q933 1366 903 1366Q876 1366 851.5 1375.5Q827 1385 808.0 1401.5Q789 1418 776.5 1441.0Q764 1464 761 1491Q863 1575 981 1630ZM903 72Q933 72 959.0 60.5Q985 49 1004.5 29.5Q1024 10 1035.5 -16.0Q1047 -42 1047 -72Q1047 -108 1028.5 -140.0Q1010 -172 981 -192Q863 -137 761 -53Q764 -26 776.5 -3.5Q789 19 808.5 36.0Q828 53 852.0 62.5Q876 72 903 72ZM472 935Q517 935 556.0 918.0Q595 901 624.0 871.5Q653 842 670.0 803.0Q687 764 687 719Q687 674 670.0 635.0Q653 596 624.0 566.5Q595 537 556.0 520.0Q517 503 472 503Q459 503 446.5 505.0Q434 507 422 510Q411 562 405.5 614.0Q400 666 400 719Q400 772 405.5 824.0Q411 876 422 928Q434 931 446.5 933.0Q459 935 472 935ZM1262 396Q1262 373 1253.5 353.5Q1245 334 1230.5 319.5Q1216 305 1196.0 296.5Q1176 288 1154 288Q1131 288 1111.5 296.5Q1092 305 1078.0 320.0Q1064 335 1055.5 354.5Q1047 374 1047 396Q1047 418 1055.5 437.5Q1064 457 1078.5 471.5Q1093 486 1112.5 494.5Q1132 503 1154 503Q1176 503 1195.5 494.5Q1215 486 1230.0 472.0Q1245 458 1253.5 438.0Q1262 418 1262 396ZM1298 1222Q1353 1222 1406 1197L1457 983L1406 744Q1353 719 1298 719Q1246 719 1200.0 739.0Q1154 759 1120.0 793.0Q1086 827 1066.5 873.0Q1047 919 1047 971Q1047 1023 1067.0 1068.5Q1087 1114 1121.0 1148.0Q1155 1182 1200.5 1202.0Q1246 1222 1298 1222Z" style="fill:#383838;stroke:none" transform="scale(1,-1) translate(0,-256)" /></svg>