<?xml version="1.0" encoding="utf-8" ?>
<svg baseProfile="full" height="256" version="1.1" width="256" xmlns="http://www.w3.org/2000/svg" xmlns:ev="http://www.w3.org/2001/xml-events" xmlns:xlink="http://www.w3.org/1999/xlink"><defs /><path d="M1799 803 1406 -287Q1295 -287 1187.5 -264.0Q1080 -241 980 -193Q972 -165 947.0 -139.5Q922 -114 890.0 -95.0Q858 -76 823.5 -64.5Q789 -53 761 -53Q629 56 543.0 199.0Q457 342 422 510Q439 559 451.5 607.5Q464 656 464 708Q464 765 456.0 821.0Q448 877 422 928Q457 1096 543.0 1239.0Q629 1382 761 1491Q766 1490 772.0 1490.0Q778 1490 783 1490Q816 1490 846.0 1501.0Q876 1512 901.5 1531.0Q927 1550 947.0 1576.0Q967 1602 980 1631Q1080 1679 1187.5 1702.0Q1295 1725 1406 1725Z" style="fill:#757575;stroke:none" transform="scale(1,-1) translate(0,-256)" /></svg>