<?xml version="1.0" encoding="utf-8" ?>
<svg baseProfile="full" height="256" version="1.1" width="256" xmlns="http://www.w3.org/2000/svg" xmlns:ev="http://www.w3.org/2001/xml-events" xmlns:xlink="http://www.w3.org/1999/xlink"><defs /><path d="M1334 1653Q1463 1653 1582.5 1619.5Q1702 1586 1805.5 1525.5Q1909 1465 1994.5 1379.5Q2080 1294 2140.5 1190.5Q2201 1087 2234.5 967.5Q2268 848 2268 719Q2268 590 2234.5 470.5Q2201 351 2140.5 247.5Q2080 144 1994.5 58.5Q1909 -27 1805.5 -87.5Q1702 -148 1582.5 -181.5Q1463 -215 1334 -215Q1205 -215 1085.5 -181.5Q966 -148 862.5 -87.5Q759 -27 673.5 58.5Q588 144 527.5 247.5Q467 351 433.5 470.5Q400 590 400 719Q400 848 433.5 967.5Q467 1087 527.5 1190.5Q588 1294 673.5 1379.5Q759 1465 862.5 1525.5Q966 1586 1085.5 1619.5Q1205 1653 1334 1653ZM731 1231Q652 1137 605.0 1025.0Q558 913 547 791H832Q836 872 846.5 951.0Q857 1030 875 1108Q833 1131 796.0 1161.5Q759 1192 731 1231ZM547 647Q558 525 605.0 413.0Q652 301 731 207Q759 246 796.0 276.5Q833 307 875 330Q856 408 846.0 487.0Q836 566 832 647ZM2121 791Q2110 913 2063.0 1025.0Q2016 1137 1937 1231Q1910 1191 1872.5 1161.0Q1835 1131 1793 1108Q1812 1030 1822.0 951.0Q1832 872 1836 791ZM1937 207Q2016 301 2063.0 413.0Q2110 525 2121 647H1836Q1832 566 1822.5 487.0Q1813 408 1793 330Q1835 307 1872.5 277.0Q1910 247 1937 207ZM1406 429Q1470 425 1533.0 415.0Q1596 405 1658 386Q1673 451 1681.0 516.0Q1689 581 1692 647H1406ZM1262 647H976Q979 581 987.0 516.0Q995 451 1010 386Q1072 405 1135.0 415.0Q1198 425 1262 429ZM1406 1008V791H1692Q1689 857 1681.0 922.0Q1673 987 1658 1052Q1596 1033 1533.0 1023.0Q1470 1013 1406 1008ZM1262 1008Q1198 1013 1135.0 1023.0Q1072 1033 1010 1052Q995 987 987.0 922.0Q979 857 976 791H1262ZM1406 -53Q1445 -33 1478.0 1.5Q1511 36 1538.0 77.0Q1565 118 1585.0 162.5Q1605 207 1619 247Q1567 263 1513.5 272.0Q1460 281 1406 285ZM1406 1153Q1460 1157 1513.5 1166.0Q1567 1175 1619 1191Q1605 1231 1585.0 1275.5Q1565 1320 1538.0 1361.0Q1511 1402 1478.0 1436.5Q1445 1471 1406 1491ZM1262 1491Q1222 1470 1189.5 1436.0Q1157 1402 1131.0 1360.5Q1105 1319 1085.0 1275.0Q1065 1231 1050 1191Q1102 1175 1155.0 1166.0Q1208 1157 1262 1153ZM1262 285Q1208 281 1155.0 272.0Q1102 263 1050 247Q1065 207 1085.0 163.0Q1105 119 1131.0 77.5Q1157 36 1189.5 2.0Q1222 -32 1262 -53ZM1657 1441Q1686 1396 1709.0 1349.0Q1732 1302 1750 1251Q1775 1266 1797.5 1286.0Q1820 1306 1831 1334Q1791 1366 1747.5 1392.5Q1704 1419 1657 1441ZM1750 187Q1732 136 1709.0 89.0Q1686 42 1657 -3Q1704 19 1747.5 45.5Q1791 72 1831 104Q1820 132 1797.5 152.0Q1775 172 1750 187ZM918 1251Q936 1302 959.0 1349.0Q982 1396 1011 1441Q964 1420 920.5 1393.0Q877 1366 838 1334Q849 1307 871.0 1286.5Q893 1266 918 1251ZM1011 -3Q982 42 959.0 89.0Q936 136 918 187Q893 172 871.0 151.5Q849 131 838 104Q877 72 920.5 45.0Q964 18 1011 -3Z" style="fill:#00bcf2;stroke:none" transform="scale(1,-1) translate(0,-256)" /></svg>