<?xml version="1.0" encoding="utf-8" ?>
<svg baseProfile="full" height="256" version="1.1" width="256" xmlns="http://www.w3.org/2000/svg" xmlns:ev="http://www.w3.org/2001/xml-events" xmlns:xlink="http://www.w3.org/1999/xlink"><defs /><path d="M1334 1581Q1453 1581 1563.0 1550.0Q1673 1519 1769.0 1463.0Q1865 1407 1944.0 1328.5Q2023 1250 2079.0 1154.0Q2135 1058 2166.0 948.0Q2197 838 2197 719Q2197 600 2166.0 490.0Q2135 380 2079.0 284.0Q2023 188 1944.0 109.0Q1865 30 1769.0 -26.0Q1673 -82 1563.0 -113.0Q1453 -144 1334 -144Q1215 -144 1105.0 -113.0Q995 -82 899.0 -26.0Q803 30 724.5 109.0Q646 188 590.0 284.0Q534 380 503.0 490.0Q472 600 472 719Q472 838 503.0 948.0Q534 1058 590.0 1154.0Q646 1250 724.5 1328.5Q803 1407 899.0 1463.0Q995 1519 1105.0 1550.0Q1215 1581 1334 1581Z" style="fill:#ffffff;stroke:none" transform="scale(1,-1) translate(0,-256)" /></svg>