<?xml version="1.0" encoding="utf-8" ?>
<svg baseProfile="full" height="256" version="1.1" width="256" xmlns="http://www.w3.org/2000/svg" xmlns:ev="http://www.w3.org/2001/xml-events" xmlns:xlink="http://www.w3.org/1999/xlink"><defs /><path d="M1190 1150Q1220 1150 1241.0 1129.0Q1262 1108 1262 1078V1006Q1262 977 1240.5 956.0Q1219 935 1190 935Q1161 935 1139.5 956.0Q1118 977 1118 1006V1078Q1118 1107 1139.5 1128.5Q1161 1150 1190 1150ZM1622 1150Q1651 1150 1672.0 1128.5Q1693 1107 1693 1078V1006Q1693 977 1672.0 956.0Q1651 935 1622 935Q1593 935 1571.5 956.0Q1550 977 1550 1006V1078Q1550 1108 1571.0 1129.0Q1592 1150 1622 1150ZM1406 791Q1436 791 1457.0 770.0Q1478 749 1478 719Q1478 689 1457.0 668.0Q1436 647 1406 647Q1376 647 1355.0 668.0Q1334 689 1334 719Q1334 749 1355.0 770.0Q1376 791 1406 791Z" style="fill:#000000;stroke:none" transform="scale(1,-1) translate(0,-256)" /></svg>