<?xml version="1.0" encoding="utf-8" ?>
<svg baseProfile="full" height="256" version="1.1" width="256" xmlns="http://www.w3.org/2000/svg" xmlns:ev="http://www.w3.org/2001/xml-events" xmlns:xlink="http://www.w3.org/1999/xlink"><defs /><path d="M2125 1294H2201Q2229 1328 2269.5 1347.0Q2310 1366 2355 1366Q2396 1366 2432.5 1350.0Q2469 1334 2496.5 1306.5Q2524 1279 2540.0 1242.5Q2556 1206 2556 1165Q2556 1126 2543.5 1097.5Q2531 1069 2510 1037Q2488 1004 2466.0 970.5Q2444 937 2421 904L2514 444Q2520 416 2527.0 388.0Q2534 360 2540.5 331.5Q2547 303 2551.5 274.5Q2556 246 2556 218Q2556 160 2534.0 107.5Q2512 55 2473.5 15.0Q2435 -25 2383.5 -48.5Q2332 -72 2273 -72Q2236 -72 2207.0 -66.0Q2178 -60 2152.5 -48.0Q2127 -36 2103.5 -18.0Q2080 0 2053 24V-431H759V24Q733 1 709.0 -17.0Q685 -35 659.0 -47.0Q633 -59 603.5 -65.5Q574 -72 539 -72Q480 -72 428.5 -48.5Q377 -25 338.5 15.0Q300 55 278.0 107.5Q256 160 256 218Q256 246 260.5 275.0Q265 304 271.5 332.5Q278 361 285.0 389.0Q292 417 298 445L391 904Q368 937 346.0 970.5Q324 1004 302 1037Q281 1069 268.5 1097.5Q256 1126 256 1165Q256 1206 272.0 1242.5Q288 1279 315.5 1306.5Q343 1334 379.5 1350.0Q416 1366 457 1366Q502 1366 542.0 1347.0Q582 1328 611 1294H687Q720 1411 792.5 1504.0Q865 1597 962.0 1662.5Q1059 1728 1173.5 1762.5Q1288 1797 1406 1797Q1524 1797 1638.5 1762.5Q1753 1728 1850.0 1662.5Q1947 1597 2019.5 1504.0Q2092 1411 2125 1294Z" style="fill:#000000;stroke:none" transform="scale(1,-1) translate(0,-256)" /></svg>