<?xml version="1.0" encoding="utf-8" ?>
<svg baseProfile="full" height="256" version="1.1" width="256" xmlns="http://www.w3.org/2000/svg" xmlns:ev="http://www.w3.org/2001/xml-events" xmlns:xlink="http://www.w3.org/1999/xlink"><defs /><path d="M903 -287V360L645 114Q600 72 539 72Q510 72 485.0 84.0Q460 96 441.0 116.0Q422 136 411.0 162.0Q400 188 400 216Q400 235 405.0 253.0Q410 271 414 289L543 935Q568 956 598.0 974.0Q628 992 662 992Q692 992 717.0 975.0Q742 958 759 935V567L899 677Q924 697 946.0 708.0Q968 719 1001 719H1811Q1844 719 1866.0 708.0Q1888 697 1913 677L2053 567V935Q2074 958 2101.5 976.0Q2129 994 2162 994Q2194 994 2221.0 976.0Q2248 958 2268 935L2398 289Q2402 271 2407.0 253.0Q2412 235 2412 216Q2412 188 2401.0 162.0Q2390 136 2371.0 116.0Q2352 96 2326.5 84.0Q2301 72 2273 72Q2212 72 2167 114L1909 360V-287Z" style="fill:#886ce4;stroke:none" transform="scale(1,-1) translate(0,-256)" /></svg>