<?xml version="1.0" encoding="utf-8" ?>
<svg baseProfile="full" height="256" version="1.1" width="256" xmlns="http://www.w3.org/2000/svg" xmlns:ev="http://www.w3.org/2001/xml-events" xmlns:xlink="http://www.w3.org/1999/xlink"><defs /><path d="M1478 1366Q1499 1313 1537.5 1272.5Q1576 1232 1624.5 1205.0Q1673 1178 1728.0 1164.0Q1783 1150 1837 1150V936Q1837 846 1803.5 767.5Q1770 689 1711.5 630.0Q1653 571 1574.5 537.0Q1496 503 1406 503Q1316 503 1237.5 537.0Q1159 571 1100.5 630.0Q1042 689 1008.5 767.5Q975 846 975 936V1150Q1021 1150 1056.5 1169.0Q1092 1188 1117.5 1219.0Q1143 1250 1160.5 1288.5Q1178 1327 1190 1366Q1212 1331 1244.5 1304.0Q1277 1277 1315.5 1259.0Q1354 1241 1395.5 1231.5Q1437 1222 1478 1222ZM550 1150H615Q645 1150 671.0 1138.5Q697 1127 716.5 1107.5Q736 1088 747.5 1062.0Q759 1036 759 1006V935H543L416 1125Q408 1137 403.5 1143.0Q399 1149 399 1165Q399 1188 416.5 1205.0Q434 1222 457 1222Q471 1222 484.0 1214.0Q497 1206 508.5 1195.0Q520 1184 530.5 1171.5Q541 1159 550 1150ZM2355 1222Q2378 1222 2395.0 1205.0Q2412 1188 2412 1165Q2412 1149 2408.0 1143.0Q2404 1137 2396 1125L2268 935H2053V1006Q2053 1036 2064.0 1062.0Q2075 1088 2094.5 1107.5Q2114 1127 2140.5 1138.5Q2167 1150 2197 1150H2262Q2271 1159 2281.5 1171.5Q2292 1184 2303.5 1195.0Q2315 1206 2328.0 1214.0Q2341 1222 2355 1222Z" style="fill:#ffc83d;stroke:none" transform="scale(1,-1) translate(0,-256)" /></svg>