<?xml version="1.0" encoding="utf-8" ?>
<svg baseProfile="full" height="256" version="1.1" width="256" xmlns="http://www.w3.org/2000/svg" xmlns:ev="http://www.w3.org/2001/xml-events" xmlns:xlink="http://www.w3.org/1999/xlink"><defs /><path d="M2260 1058Q2294 1043 2322.5 1019.0Q2351 995 2370.5 965.0Q2390 935 2401.0 900.0Q2412 865 2412 827V611Q2412 575 2401.5 540.5Q2391 506 2372.5 476.5Q2354 447 2327.5 423.0Q2301 399 2268 384V288Q2268 189 2242.5 97.0Q2217 5 2170.0 -74.5Q2123 -154 2057.5 -220.0Q1992 -286 1912.0 -332.5Q1832 -379 1740.5 -405.0Q1649 -431 1550 -431H1118Q969 -431 838.5 -374.5Q708 -318 610.5 -220.0Q513 -122 456.5 8.5Q400 139 400 288V384Q367 399 340.5 423.0Q314 447 295.5 476.5Q277 506 266.5 540.5Q256 575 256 611V827Q256 864 267.0 899.5Q278 935 298.0 965.0Q318 995 346.0 1019.0Q374 1043 408 1058Q423 1174 465.0 1279.0Q507 1384 571.0 1474.0Q635 1564 718.5 1637.0Q802 1710 900.0 1761.5Q998 1813 1107.5 1841.0Q1217 1869 1334 1869Q1451 1869 1560.5 1841.0Q1670 1813 1768.0 1761.5Q1866 1710 1949.5 1637.5Q2033 1565 2097.0 1474.5Q2161 1384 2203.0 1279.0Q2245 1174 2260 1058Z" style="fill:#000000;stroke:none" transform="scale(1,-1) translate(0,-256)" /></svg>