<?xml version="1.0" encoding="utf-8" ?>
<svg baseProfile="full" height="256" version="1.1" width="256" xmlns="http://www.w3.org/2000/svg" xmlns:ev="http://www.w3.org/2001/xml-events" xmlns:xlink="http://www.w3.org/1999/xlink"><defs /><path d="M1622 216Q1651 216 1672.5 194.5Q1694 173 1694 144Q1694 123 1683.5 107.0Q1673 91 1655 81Q1583 41 1500.0 20.5Q1417 0 1334 0Q1252 0 1168.5 20.5Q1085 41 1013 81Q995 91 984.5 107.5Q974 124 974 144Q974 173 995.5 194.5Q1017 216 1046 216Q1055 216 1063.5 213.5Q1072 211 1080 207Q1142 177 1203.5 161.0Q1265 145 1334 145Q1403 145 1464.5 161.0Q1526 177 1588 207Q1596 211 1604.5 213.5Q1613 216 1622 216ZM1334 360Q1304 360 1278.0 371.0Q1252 382 1232.5 401.5Q1213 421 1201.5 447.0Q1190 473 1190 503H1478Q1478 473 1466.5 447.0Q1455 421 1435.5 401.5Q1416 382 1390.0 371.0Q1364 360 1334 360Z" style="fill:#f7894a;stroke:none" transform="scale(1,-1) translate(0,-256)" /></svg>