<?xml version="1.0" encoding="utf-8" ?>
<svg baseProfile="full" height="256" version="1.1" width="256" xmlns="http://www.w3.org/2000/svg" xmlns:ev="http://www.w3.org/2001/xml-events" xmlns:xlink="http://www.w3.org/1999/xlink"><defs /><path d="M2125 288Q2125 169 2080.0 64.0Q2035 -41 1957.0 -119.0Q1879 -197 1774.0 -242.0Q1669 -287 1550 -287H1118Q999 -287 894.5 -241.5Q790 -196 712.0 -118.0Q634 -40 588.5 64.5Q543 169 543 288V935Q543 1044 571.5 1145.0Q600 1246 651.5 1333.5Q703 1421 775.0 1493.5Q847 1566 935.0 1617.5Q1023 1669 1124.0 1697.0Q1225 1725 1334 1725Q1443 1725 1544.0 1697.0Q1645 1669 1733.0 1617.5Q1821 1566 1893.0 1493.5Q1965 1421 2016.5 1333.5Q2068 1246 2096.5 1145.0Q2125 1044 2125 935ZM1981 935Q1981 1045 1943 1150H1406Q1319 1150 1248.5 1182.5Q1178 1215 1118 1275L944 1449Q884 1403 836.0 1345.5Q788 1288 755.0 1222.0Q722 1156 704.5 1083.5Q687 1011 687 935V360Q687 330 698.0 303.5Q709 277 728.5 257.5Q748 238 774.5 227.0Q801 216 831 216Q831 246 842.5 272.0Q854 298 873.5 317.5Q893 337 919.0 348.5Q945 360 975 360H1693Q1723 360 1749.0 348.5Q1775 337 1794.5 317.5Q1814 298 1825.5 272.0Q1837 246 1837 216Q1867 216 1893.0 227.0Q1919 238 1938.5 257.5Q1958 277 1969.5 303.5Q1981 330 1981 360Z" style="fill:#8e562e;stroke:none" transform="scale(1,-1) translate(0,-256)" /></svg>