<?xml version="1.0" encoding="utf-8" ?>
<svg baseProfile="full" height="256" version="1.1" width="256" xmlns="http://www.w3.org/2000/svg" xmlns:ev="http://www.w3.org/2001/xml-events" xmlns:xlink="http://www.w3.org/1999/xlink"><defs /><path d="M2125 647H1679Q1687 612 1690.0 575.5Q1693 539 1693 503Q1693 404 1667.5 312.5Q1642 221 1595.0 141.0Q1548 61 1482.5 -4.5Q1417 -70 1337.0 -117.0Q1257 -164 1165.5 -189.5Q1074 -215 975 -215Q826 -215 695.5 -158.5Q565 -102 467.0 -4.5Q369 93 312.5 223.5Q256 354 256 503Q256 602 281.5 694.0Q307 786 354.0 866.0Q401 946 466.5 1011.5Q532 1077 612.0 1124.0Q692 1171 784.0 1196.5Q876 1222 975 1222Q1045 1222 1118 1208V1653H2125Z" style="fill:#000000;stroke:none" transform="scale(1,-1) translate(0,-256)" /></svg>