<?xml version="1.0" encoding="utf-8" ?>
<svg baseProfile="full" height="256" version="1.1" width="256" xmlns="http://www.w3.org/2000/svg" xmlns:ev="http://www.w3.org/2001/xml-events" xmlns:xlink="http://www.w3.org/1999/xlink"><defs /><path d="M1981 1510V791H1765V1113L1462 809Q1505 740 1527.5 662.0Q1550 584 1550 503Q1550 384 1504.5 279.5Q1459 175 1381.0 97.0Q1303 19 1198.5 -26.5Q1094 -72 975 -72Q856 -72 751.5 -26.5Q647 19 569.0 97.0Q491 175 445.5 279.5Q400 384 400 503Q400 622 445.5 726.5Q491 831 569.0 909.0Q647 987 751.5 1032.5Q856 1078 975 1078Q1056 1078 1133.5 1056.0Q1211 1034 1280 990L1584 1294H1262V1510ZM975 216Q1034 216 1086.5 238.5Q1139 261 1178.0 300.0Q1217 339 1239.5 391.5Q1262 444 1262 503Q1262 562 1239.5 614.5Q1217 667 1178.0 706.0Q1139 745 1086.5 768.0Q1034 791 975 791Q915 791 862.5 768.5Q810 746 771.0 707.0Q732 668 709.5 615.5Q687 563 687 503Q687 444 710.0 391.5Q733 339 772.0 300.0Q811 261 863.5 238.5Q916 216 975 216Z" style="fill:#ffb900;stroke:none" transform="scale(1,-1) translate(0,-256)" /></svg>