<?xml version="1.0" encoding="utf-8" ?>
<svg baseProfile="full" height="256" version="1.1" width="256" xmlns="http://www.w3.org/2000/svg" xmlns:ev="http://www.w3.org/2001/xml-events" xmlns:xlink="http://www.w3.org/1999/xlink"><defs /><path d="M543 -431V-210Q477 -171 423.5 -117.5Q370 -64 333.0 0.5Q296 65 276.0 138.0Q256 211 256 288V431H712Q657 486 602.5 541.5Q548 597 492 651Q471 672 450.0 692.0Q429 712 409 735Q334 820 295.0 928.5Q256 1037 256 1150Q256 1227 276.0 1300.0Q296 1373 333.0 1437.5Q370 1502 423.5 1555.5Q477 1609 543 1648V1869H1118V1648Q1184 1609 1237.5 1555.5Q1291 1502 1328.5 1437.5Q1366 1373 1386.0 1300.0Q1406 1227 1406 1150V1006H950L1178 778Q1228 728 1270.0 672.5Q1312 617 1342.0 555.5Q1372 494 1389.0 427.0Q1406 360 1406 288Q1406 211 1386.0 138.0Q1366 65 1328.5 0.5Q1291 -64 1237.5 -117.5Q1184 -171 1118 -210V-431Z" style="fill:#000000;stroke:none" transform="scale(1,-1) translate(0,-256)" /></svg>