<?xml version="1.0" encoding="utf-8" ?>
<svg baseProfile="full" height="256" version="1.1" width="256" xmlns="http://www.w3.org/2000/svg" xmlns:ev="http://www.w3.org/2001/xml-events" xmlns:xlink="http://www.w3.org/1999/xlink"><defs /><path d="M687 1150Q687 1118 694.0 1094.0Q701 1070 714.0 1049.5Q727 1029 744.5 1010.0Q762 991 782 971L1076 677Q1116 637 1150.0 593.0Q1184 549 1209.0 500.5Q1234 452 1248.0 399.0Q1262 346 1262 288Q1262 220 1241.0 156.5Q1220 93 1182.0 40.0Q1144 -13 1091.5 -54.0Q1039 -95 975 -118V-287H687V-118Q623 -95 570.0 -54.5Q517 -14 479.5 39.5Q442 93 421.0 156.5Q400 220 400 288H687Q687 258 698.5 232.0Q710 206 729.5 186.5Q749 167 775.0 155.5Q801 144 831 144Q861 144 887.0 155.5Q913 167 932.5 186.5Q952 206 963.5 232.0Q975 258 975 288Q975 315 966.0 340.5Q957 366 942.0 389.5Q927 413 909.0 434.5Q891 456 873 474Q803 546 732.5 616.5Q662 687 590 757Q573 774 556.0 790.0Q539 806 523 823Q463 891 431.5 975.0Q400 1059 400 1150Q400 1218 421.0 1281.5Q442 1345 479.5 1398.5Q517 1452 570.0 1492.5Q623 1533 687 1556V1725H975V1556Q1039 1533 1092.0 1492.5Q1145 1452 1182.5 1398.5Q1220 1345 1241.0 1281.5Q1262 1218 1262 1150H975Q975 1180 963.5 1206.0Q952 1232 932.5 1251.5Q913 1271 887.0 1282.5Q861 1294 831 1294Q801 1294 775.0 1282.5Q749 1271 729.5 1251.5Q710 1232 698.5 1206.0Q687 1180 687 1150Z" style="fill:#16c60c;stroke:none" transform="scale(1,-1) translate(0,-256)" /></svg>