<?xml version="1.0" encoding="utf-8" ?>
<svg baseProfile="full" height="256" version="1.1" width="256" xmlns="http://www.w3.org/2000/svg" xmlns:ev="http://www.w3.org/2001/xml-events" xmlns:xlink="http://www.w3.org/1999/xlink"><defs /><path d="M328 -431V1442Q293 1477 274.5 1522.5Q256 1568 256 1617Q256 1669 276.0 1715.0Q296 1761 330.0 1795.0Q364 1829 410.0 1849.0Q456 1869 508 1869Q560 1869 605.5 1849.0Q651 1829 685.0 1794.5Q719 1760 739.0 1714.5Q759 1669 759 1617V1600Q813 1590 866.5 1586.0Q920 1582 974 1582Q1040 1582 1104.0 1588.0Q1168 1594 1232 1608Q1286 1620 1337.5 1639.0Q1389 1658 1443 1673Q1540 1701 1638.5 1713.0Q1737 1725 1837 1725Q1922 1725 1993.0 1718.5Q2064 1712 2131.0 1697.5Q2198 1683 2266.0 1660.5Q2334 1638 2412 1607V290Q2329 323 2263.5 349.5Q2198 376 2133.5 394.0Q2069 412 1998.5 421.5Q1928 431 1837 431Q1740 431 1645.5 417.0Q1551 403 1460 370Q1340 326 1221.5 307.0Q1103 288 975 288Q829 288 687 315V-431Z" style="fill:#000000;stroke:none" transform="scale(1,-1) translate(0,-256)" /></svg>