<?xml version="1.0" encoding="utf-8" ?>
<svg baseProfile="full" height="256" version="1.1" width="256" xmlns="http://www.w3.org/2000/svg" xmlns:ev="http://www.w3.org/2001/xml-events" xmlns:xlink="http://www.w3.org/1999/xlink"><defs /><path d="M975 1438Q1088 1438 1194.0 1455.5Q1300 1473 1406 1510Q1513 1547 1618.5 1564.0Q1724 1581 1837 1581Q1946 1581 2056.0 1565.5Q2166 1550 2268 1510V503Q2167 544 2056.0 559.5Q1945 575 1837 575Q1724 575 1618.0 557.5Q1512 540 1406 503Q1299 466 1193.5 448.5Q1088 431 975 431Q921 431 865.5 434.5Q810 438 755.0 446.5Q700 455 646.5 469.0Q593 483 543 503V1510Q593 1490 646.5 1476.0Q700 1462 755.0 1453.5Q810 1445 865.5 1441.5Q921 1438 975 1438Z" style="fill:#f2f2f2;stroke:none" transform="scale(1,-1) translate(0,-256)" /></svg>