<?xml version="1.0" encoding="utf-8" ?>
<svg baseProfile="full" height="256" version="1.1" width="256" xmlns="http://www.w3.org/2000/svg" xmlns:ev="http://www.w3.org/2001/xml-events" xmlns:xlink="http://www.w3.org/1999/xlink"><defs /><path d="M2412 114Q2412 84 2391 63L2062 -266Q2041 -287 2011 -287Q1981 -287 1960 -266L1406 288Q1394 300 1381.5 311.0Q1369 322 1358 334Q1313 383 1287.5 446.0Q1262 509 1262 575Q1262 581 1266.5 592.5Q1271 604 1276.0 619.0Q1281 634 1285.5 650.0Q1290 666 1290 680Q1290 734 1265.0 781.5Q1240 829 1203.0 871.0Q1166 913 1123.5 950.5Q1081 988 1045 1022L965 1017L939 1042L1083 1186L1191 1078L1165 1019Q1192 992 1227.5 960.5Q1263 929 1302.0 902.0Q1341 875 1382.5 857.5Q1424 840 1465 840Q1477 840 1489.5 843.5Q1502 847 1513.5 851.5Q1525 856 1534.5 859.5Q1544 863 1550 863Q1616 863 1679.0 837.5Q1742 812 1791 767Q1803 756 1814.0 743.5Q1825 731 1837 719L2391 165Q2412 144 2412 114Z" style="fill:#13a10e;stroke:none" transform="scale(1,-1) translate(0,-256)" /></svg>