<?xml version="1.0" encoding="utf-8" ?>
<svg baseProfile="full" height="256" version="1.1" width="256" xmlns="http://www.w3.org/2000/svg" xmlns:ev="http://www.w3.org/2001/xml-events" xmlns:xlink="http://www.w3.org/1999/xlink"><defs /><path d="M1190 1078Q1232 1037 1269.0 998.0Q1306 959 1347.0 929.0Q1388 899 1436.5 881.0Q1485 863 1550 863L1508 821Q1528 801 1539.0 774.5Q1550 748 1550 719Q1550 689 1538.5 663.0Q1527 637 1507.5 617.5Q1488 598 1462.0 586.5Q1436 575 1406 575Q1377 575 1350.5 586.0Q1324 597 1304 617L1262 575Q1262 648 1235.0 709.0Q1208 770 1160 824Q1150 835 1140.0 844.0Q1130 853 1119 863L964 1017L998 1051Z" style="fill:#dfbe00;stroke:none" transform="scale(1,-1) translate(0,-256)" /></svg>