<?xml version="1.0" encoding="utf-8" ?>
<svg baseProfile="full" height="256" version="1.1" width="256" xmlns="http://www.w3.org/2000/svg" xmlns:ev="http://www.w3.org/2001/xml-events" xmlns:xlink="http://www.w3.org/1999/xlink"><defs /><path d="M1595 557Q1604 557 1604 548Q1604 539 1595 539Q1586 539 1586 548Q1586 557 1595 557ZM1595 638Q1613 638 1613 620Q1613 602 1595 602Q1577 602 1577 620Q1577 638 1595 638ZM1595 719Q1606 719 1614.0 711.0Q1622 703 1622 692Q1622 681 1614.0 673.0Q1606 665 1595 665Q1584 665 1576.0 673.0Q1568 681 1568 692Q1568 703 1576.0 711.0Q1584 719 1595 719Z" style="fill:#13a10e;stroke:none" transform="scale(1,-1) translate(0,-256)" /></svg>