<?xml version="1.0" encoding="utf-8" ?>
<svg baseProfile="full" height="256" version="1.1" width="256" xmlns="http://www.w3.org/2000/svg" xmlns:ev="http://www.w3.org/2001/xml-events" xmlns:xlink="http://www.w3.org/1999/xlink"><defs /><path d="M1083 1222Q1097 1222 1108.0 1211.0Q1119 1200 1119 1186Q1119 1177 1111.5 1166.0Q1104 1155 1094.0 1145.0Q1084 1135 1073.5 1125.5Q1063 1116 1057 1110L1207 961Q1221 947 1234.5 932.0Q1248 917 1263 903Q1322 849 1396.0 820.0Q1470 791 1550 791Q1575 791 1602.0 785.5Q1629 780 1655.0 769.5Q1681 759 1704.0 744.0Q1727 729 1745 711Q1870 583 1995.0 458.5Q2120 334 2247 207Q2269 185 2269 156Q2269 127 2247 105L2020 -122Q1998 -144 1968 -144Q1939 -144 1918 -123L1452 343Q1442 353 1431.5 362.0Q1421 371 1412 382Q1376 424 1355.0 471.0Q1334 518 1334 575Q1334 662 1303.5 733.5Q1273 805 1216 869Q1205 881 1194.0 893.0Q1183 905 1169 914Q1132 939 1095.0 962.0Q1058 985 1020 1008L964 1017Q953 1006 939 1006Q925 1006 914.0 1017.0Q903 1028 903 1042Q903 1058 913 1068L1057 1212Q1067 1222 1083 1222Z" style="fill:#107c10;stroke:none" transform="scale(1,-1) translate(0,-256)" /></svg>