<?xml version="1.0" encoding="utf-8" ?>
<svg baseProfile="full" height="256" version="1.1" width="256" xmlns="http://www.w3.org/2000/svg" xmlns:ev="http://www.w3.org/2001/xml-events" xmlns:xlink="http://www.w3.org/1999/xlink"><defs /><path d="M615 1869Q660 1869 699.0 1852.5Q738 1836 767.5 1807.0Q797 1778 814.0 1739.0Q831 1700 831 1655Q831 1638 828 1622L921 1436L939 1434Q955 1438 975 1438Q1025 1438 1069.5 1416.0Q1114 1394 1145 1355Q1191 1338 1222.0 1299.5Q1253 1261 1260 1212L1369 1103Q1390 1082 1408.5 1064.5Q1427 1047 1448.0 1034.0Q1469 1021 1493.5 1013.5Q1518 1006 1550 1006Q1641 1006 1726.0 973.5Q1811 941 1879 881Q1896 866 1911.5 849.0Q1927 832 1943 816L2493 267Q2523 237 2539.5 197.0Q2556 157 2556 114Q2556 25 2493 -38L2163 -368Q2100 -431 2011 -431Q1968 -431 1928.0 -414.5Q1888 -398 1858 -368L1309 182Q1293 198 1276.0 213.5Q1259 229 1244 246Q1184 314 1151.5 399.0Q1119 484 1119 575Q1119 617 1104.5 650.5Q1090 684 1067.0 712.0Q1044 740 1016.0 765.0Q988 790 961 817Q918 791 867 791Q829 791 796.5 805.0Q764 819 739.5 843.5Q715 868 701.0 900.5Q687 933 687 971V1150Q687 1159 688.5 1168.0Q690 1177 690 1186Q690 1191 689.5 1195.0Q689 1199 689 1204L504 1297Q487 1294 472 1294Q427 1294 387.5 1311.0Q348 1328 319.0 1357.0Q290 1386 273.0 1425.5Q256 1465 256 1510Q256 1553 272.5 1592.5Q289 1632 319 1662L463 1806Q493 1836 532.5 1852.5Q572 1869 615 1869Z" style="fill:#000000;stroke:none" transform="scale(1,-1) translate(0,-256)" /></svg>