<?xml version="1.0" encoding="utf-8" ?>
<svg baseProfile="full" height="256" version="1.1" width="256" xmlns="http://www.w3.org/2000/svg" xmlns:ev="http://www.w3.org/2001/xml-events" xmlns:xlink="http://www.w3.org/1999/xlink"><defs /><path d="M1406 791Q1436 791 1457.0 770.0Q1478 749 1478 719Q1478 689 1457.0 668.0Q1436 647 1406 647Q1376 647 1355.0 668.0Q1334 689 1334 719Q1334 749 1355.0 770.0Q1376 791 1406 791ZM1837 360Q1866 360 1887.5 338.5Q1909 317 1909 288Q1909 258 1888.0 237.0Q1867 216 1837 216Q1808 216 1786.5 237.5Q1765 259 1765 288Q1765 317 1786.5 338.5Q1808 360 1837 360Z" style="fill:#e81224;stroke:none" transform="scale(1,-1) translate(0,-256)" /></svg>