<?xml version="1.0" encoding="utf-8" ?>
<svg baseProfile="full" height="256" version="1.1" width="256" xmlns="http://www.w3.org/2000/svg" xmlns:ev="http://www.w3.org/2001/xml-events" xmlns:xlink="http://www.w3.org/1999/xlink"><defs /><path d="M831 184Q865 184 907.0 169.0Q949 154 985.5 128.5Q1022 103 1047.0 68.5Q1072 34 1072 -4Q1072 -23 1065.0 -40.5Q1058 -58 1047 -72Q1047 -117 1030.0 -156.0Q1013 -195 983.5 -224.5Q954 -254 915.0 -271.0Q876 -288 831 -288Q786 -288 747.0 -271.0Q708 -254 678.5 -224.5Q649 -195 632.0 -156.0Q615 -117 615 -72Q600 -47 600 -16Q600 23 622.5 59.0Q645 95 679.0 123.0Q713 151 754.0 167.5Q795 184 831 184ZM2053 184Q2087 184 2129.0 168.5Q2171 153 2207.5 127.0Q2244 101 2268.5 66.5Q2293 32 2293 -6Q2293 -24 2286.0 -41.0Q2279 -58 2268 -72Q2268 -117 2251.0 -156.0Q2234 -195 2205.0 -224.5Q2176 -254 2137.0 -271.0Q2098 -288 2053 -288Q2008 -288 1969.0 -271.0Q1930 -254 1900.5 -224.5Q1871 -195 1854.0 -156.0Q1837 -117 1837 -72Q1814 -43 1814 -5Q1814 34 1838.5 68.0Q1863 102 1899.0 128.0Q1935 154 1976.5 169.0Q2018 184 2053 184Z" style="fill:#383838;stroke:none" transform="scale(1,-1) translate(0,-256)" /></svg>