<?xml version="1.0" encoding="utf-8" ?>
<svg baseProfile="full" height="256" version="1.1" width="256" xmlns="http://www.w3.org/2000/svg" xmlns:ev="http://www.w3.org/2001/xml-events" xmlns:xlink="http://www.w3.org/1999/xlink"><defs /><path d="M2350 217 2412 144V72L2340 -32H472L400 72V144L461 217L400 287Q400 317 421.0 338.0Q442 359 472 359H831Q839 359 852.0 363.0Q865 367 873 369Q956 395 1002.5 457.5Q1049 520 1049 607Q1049 635 1040.0 667.0Q1031 699 1011 719L1047 791H1909L1945 719Q1935 691 1931.0 661.5Q1927 632 1927 602Q1927 515 1964.0 455.5Q2001 396 2086 368Q2094 365 2105.5 362.0Q2117 359 2125 359H2340Q2370 359 2391.0 338.0Q2412 317 2412 287Z" style="fill:#f03a17;stroke:none" transform="scale(1,-1) translate(0,-256)" /></svg>