<?xml version="1.0" encoding="utf-8" ?>
<svg baseProfile="full" height="256" version="1.1" width="256" xmlns="http://www.w3.org/2000/svg" xmlns:ev="http://www.w3.org/2001/xml-events" xmlns:xlink="http://www.w3.org/1999/xlink"><defs /><path d="M2302 72H2412V-72H2268Q2268 -27 2251.0 12.0Q2234 51 2205.0 80.5Q2176 110 2137.0 127.0Q2098 144 2053 144Q2008 144 1969.0 127.0Q1930 110 1900.5 80.5Q1871 51 1854.0 12.0Q1837 -27 1837 -72H1047Q1047 -27 1030.0 12.0Q1013 51 983.5 80.5Q954 110 915.0 127.0Q876 144 831 144Q786 144 747.0 127.0Q708 110 678.5 80.5Q649 51 632.0 12.0Q615 -27 615 -72H400V72H582Q621 139 687.0 177.0Q753 215 831 215Q880 215 925.0 199.5Q970 184 1007.0 155.5Q1044 127 1070.5 87.5Q1097 48 1109 0H1774Q1786 48 1813.0 87.5Q1840 127 1877.0 155.5Q1914 184 1959.0 199.5Q2004 215 2053 215Q2131 215 2197.0 177.0Q2263 139 2302 72Z" style="fill:#af0d1a;stroke:none" transform="scale(1,-1) translate(0,-256)" /></svg>