<?xml version="1.0" encoding="utf-8" ?>
<svg baseProfile="full" height="256" version="1.1" width="256" xmlns="http://www.w3.org/2000/svg" xmlns:ev="http://www.w3.org/2001/xml-events" xmlns:xlink="http://www.w3.org/1999/xlink"><defs /><path d="M831 0Q861 0 882.0 -21.0Q903 -42 903 -72Q903 -102 882.0 -123.0Q861 -144 831 -144Q801 -144 780.0 -123.0Q759 -102 759 -72Q759 -42 780.0 -21.0Q801 0 831 0ZM2053 0Q2083 0 2104.0 -21.0Q2125 -42 2125 -72Q2125 -102 2104.0 -123.0Q2083 -144 2053 -144Q2023 -144 2002.0 -123.0Q1981 -102 1981 -72Q1981 -42 2002.0 -21.0Q2023 0 2053 0ZM1047 431V287H975V431Z" style="fill:#cccccc;stroke:none" transform="scale(1,-1) translate(0,-256)" /></svg>