<?xml version="1.0" encoding="utf-8" ?>
<svg baseProfile="full" height="256" version="1.1" width="256" xmlns="http://www.w3.org/2000/svg" xmlns:ev="http://www.w3.org/2001/xml-events" xmlns:xlink="http://www.w3.org/1999/xlink"><defs /><path d="M2089 647Q2185 647 2270.0 610.0Q2355 573 2418.5 509.5Q2482 446 2519.0 361.0Q2556 276 2556 180Q2556 120 2541.0 63.0Q2526 6 2497.5 -45.0Q2469 -96 2429.0 -139.0Q2389 -182 2338 -214Q2332 -260 2310.0 -299.5Q2288 -339 2254.0 -368.5Q2220 -398 2177.5 -414.5Q2135 -431 2089 -431Q2042 -431 2000.0 -414.5Q1958 -398 1924.0 -369.0Q1890 -340 1868.0 -300.5Q1846 -261 1840 -214L1837 -213Q1830 -260 1807.5 -299.5Q1785 -339 1751.0 -368.5Q1717 -398 1674.5 -414.5Q1632 -431 1586 -431Q1539 -431 1497.0 -414.5Q1455 -398 1421.0 -369.5Q1387 -341 1365.0 -301.5Q1343 -262 1337 -215Q1263 -168 1211 -98Q1164 -120 1114.0 -131.5Q1064 -143 1013 -143Q964 -143 911 -132Q873 -172 826.0 -193.5Q779 -215 723 -215Q670 -215 624.5 -195.5Q579 -176 545.0 -142.0Q511 -108 491.5 -62.5Q472 -17 472 36Q472 92 493.5 139.0Q515 186 555 224Q545 270 545 321Q545 364 553 410Q505 453 473 506Q426 512 386.5 534.0Q347 556 318.0 589.5Q289 623 272.5 665.5Q256 708 256 755Q256 801 272.5 843.5Q289 886 318.5 920.0Q348 954 387.5 976.0Q427 998 473 1004Q486 1024 500.0 1042.5Q514 1061 531 1078Q489 1080 450.5 1093.0Q412 1106 378.5 1128.0Q345 1150 318.0 1180.0Q291 1210 273 1247Q269 1255 262.5 1270.5Q256 1286 256 1294Q256 1342 255.5 1390.0Q255 1438 255 1486Q255 1506 260.0 1522.5Q265 1539 273 1557Q290 1593 317.5 1623.5Q345 1654 378.5 1675.5Q412 1697 450.5 1710.0Q489 1723 529 1725Q595 1794 683.0 1831.5Q771 1869 867 1869Q963 1869 1048.0 1832.0Q1133 1795 1196.5 1731.5Q1260 1668 1297.0 1583.0Q1334 1498 1334 1402V791Q1334 768 1330.0 744.5Q1326 721 1318 699Q1363 661 1399 608Q1444 627 1491.0 637.0Q1538 647 1586 647Q1653 647 1716.5 627.5Q1780 608 1837 573Q1894 608 1958.0 627.5Q2022 647 2089 647Z" style="fill:#000000;stroke:none" transform="scale(1,-1) translate(0,-256)" /></svg>