<?xml version="1.0" encoding="utf-8" ?>
<svg baseProfile="full" height="256" version="1.1" width="256" xmlns="http://www.w3.org/2000/svg" xmlns:ev="http://www.w3.org/2001/xml-events" xmlns:xlink="http://www.w3.org/1999/xlink"><defs /><path d="M867 1078Q800 1078 741.0 1103.5Q682 1129 638.0 1173.0Q594 1217 568.5 1276.0Q543 1335 543 1402Q543 1469 568.5 1527.5Q594 1586 638.0 1630.0Q682 1674 741.0 1699.5Q800 1725 867 1725Q934 1725 992.5 1699.5Q1051 1674 1095.0 1630.0Q1139 1586 1164.5 1527.5Q1190 1469 1190 1402V1078L1102 954H877Z" style="fill:#f03a17;stroke:none" transform="scale(1,-1) translate(0,-256)" /></svg>