<?xml version="1.0" encoding="utf-8" ?>
<svg baseProfile="full" height="256" version="1.1" width="256" xmlns="http://www.w3.org/2000/svg" xmlns:ev="http://www.w3.org/2001/xml-events" xmlns:xlink="http://www.w3.org/1999/xlink"><defs /><path d="M2089 503Q2156 503 2214.5 477.5Q2273 452 2317.0 408.0Q2361 364 2386.5 305.5Q2412 247 2412 180Q2412 113 2386.5 54.0Q2361 -5 2317.0 -49.0Q2273 -93 2214.5 -118.5Q2156 -144 2089 -144Q2014 -144 1948.5 -111.5Q1883 -79 1837 -21Q1791 -78 1725.5 -111.0Q1660 -144 1586 -144Q1527 -144 1473.0 -123.5Q1419 -103 1376.0 -66.5Q1333 -30 1304.5 20.0Q1276 70 1267 129Q1219 66 1154.0 33.0Q1089 0 1010 0Q944 0 885.0 25.5Q826 51 782.5 94.5Q739 138 713.5 197.0Q688 256 688 322Q688 397 722 467Q681 488 648.0 518.5Q615 549 591.5 586.0Q568 623 555.5 666.0Q543 709 543 755Q543 822 568.5 881.0Q594 940 638.0 983.5Q682 1027 741.0 1052.5Q800 1078 867 1078H1190V791Q1190 751 1167.5 712.5Q1145 674 1118 647Q1212 616 1267.0 546.0Q1322 476 1333 379Q1379 439 1445.0 471.0Q1511 503 1586 503Q1660 503 1725.5 470.5Q1791 438 1837 381Q1883 439 1948.5 471.0Q2014 503 2089 503Z" style="fill:#73aa24;stroke:none" transform="scale(1,-1) translate(0,-256)" /></svg>