<?xml version="1.0" encoding="utf-8" ?>
<svg baseProfile="full" height="256" version="1.1" width="256" xmlns="http://www.w3.org/2000/svg" xmlns:ev="http://www.w3.org/2001/xml-events" xmlns:xlink="http://www.w3.org/1999/xlink"><defs /><path d="M2089 288Q2111 288 2130.5 279.5Q2150 271 2165.0 256.0Q2180 241 2188.5 221.5Q2197 202 2197 180Q2197 158 2188.5 138.5Q2180 119 2165.0 104.0Q2150 89 2130.5 80.5Q2111 72 2089 72Q2066 72 2046.5 80.5Q2027 89 2012.5 103.5Q1998 118 1989.5 137.5Q1981 157 1981 180Q1981 202 1989.5 222.0Q1998 242 2012.5 256.5Q2027 271 2046.5 279.5Q2066 288 2089 288ZM1586 288Q1608 288 1628.0 279.5Q1648 271 1662.0 256.0Q1676 241 1684.5 221.5Q1693 202 1693 180Q1693 158 1684.5 138.5Q1676 119 1662.0 104.0Q1648 89 1628.0 80.5Q1608 72 1586 72Q1563 72 1543.5 80.5Q1524 89 1509.5 103.5Q1495 118 1486.5 137.5Q1478 157 1478 180Q1478 202 1486.5 222.0Q1495 242 1509.5 256.5Q1524 271 1543.5 279.5Q1563 288 1586 288ZM975 755Q975 733 966.5 713.5Q958 694 943.0 679.0Q928 664 908.5 655.5Q889 647 867 647Q844 647 824.5 655.5Q805 664 790.5 678.5Q776 693 767.5 712.5Q759 732 759 755Q759 777 767.5 796.5Q776 816 791.0 831.0Q806 846 825.5 854.5Q845 863 867 863Q889 863 908.5 854.5Q928 846 943.0 831.0Q958 816 966.5 796.5Q975 777 975 755ZM1011 432Q1033 432 1052.5 423.5Q1072 415 1086.5 400.0Q1101 385 1109.5 365.5Q1118 346 1118 324Q1118 302 1109.5 282.5Q1101 263 1087.0 248.0Q1073 233 1053.0 224.5Q1033 216 1011 216Q988 216 968.5 224.5Q949 233 934.5 247.5Q920 262 911.5 281.5Q903 301 903 324Q903 346 911.5 365.5Q920 385 935.0 400.0Q950 415 969.5 423.5Q989 432 1011 432Z" style="fill:#ffc83d;stroke:none" transform="scale(1,-1) translate(0,-256)" /></svg>