<?xml version="1.0" encoding="utf-8" ?>
<svg baseProfile="full" height="256" version="1.1" width="256" xmlns="http://www.w3.org/2000/svg" xmlns:ev="http://www.w3.org/2001/xml-events" xmlns:xlink="http://www.w3.org/1999/xlink"><defs /><path d="M615 36Q615 57 623.5 77.0Q632 97 647 112L803 269L956 116L799 -40Q784 -55 764.0 -63.5Q744 -72 723 -72Q701 -72 681.5 -63.5Q662 -55 647.0 -40.0Q632 -25 623.5 -5.5Q615 14 615 36ZM1981 8H2197V-179Q2197 -201 2188.5 -220.5Q2180 -240 2165.0 -255.0Q2150 -270 2130.5 -278.5Q2111 -287 2089 -287Q2066 -287 2046.5 -278.5Q2027 -270 2012.5 -255.5Q1998 -241 1989.5 -221.5Q1981 -202 1981 -179ZM1478 -179V8H1693V-179Q1693 -201 1684.5 -220.5Q1676 -240 1662.0 -255.0Q1648 -270 1628.0 -278.5Q1608 -287 1586 -287Q1563 -287 1543.5 -278.5Q1524 -270 1509.5 -255.5Q1495 -241 1486.5 -221.5Q1478 -202 1478 -179ZM682 863V647H508Q485 647 465.5 655.5Q446 664 431.5 678.5Q417 693 408.5 712.5Q400 732 400 755Q400 777 408.5 796.5Q417 816 432.0 831.0Q447 846 466.5 854.5Q486 863 508 863Z" style="fill:#107c10;stroke:none" transform="scale(1,-1) translate(0,-256)" /></svg>