<?xml version="1.0" encoding="utf-8" ?>
<svg baseProfile="full" height="256" version="1.1" width="256" xmlns="http://www.w3.org/2000/svg" xmlns:ev="http://www.w3.org/2001/xml-events" xmlns:xlink="http://www.w3.org/1999/xlink"><defs /><path d="M1736 905Q1817 865 1863.0 792.5Q1909 720 1909 629Q1909 569 1886.0 513.0Q1863 457 1820 414L1352 -54Q1309 -97 1252.5 -120.5Q1196 -144 1136 -144Q1092 -144 1050.5 -131.5Q1009 -119 973.0 -96.5Q937 -74 908.0 -42.0Q879 -10 861 30L687 -144L543 0L867 324L759 431L831 503L1032 382L1011 467Q1028 486 1046.5 503.5Q1065 521 1083 539L975 647L1047 719L1244 593L1226 683Q1244 701 1262.5 718.5Q1281 736 1298 755L1190 863L1262 935L1477 786L1622 575L1550 503L1442 611L1370 539L1272 562L1406 360L1334 288L1226 396L1154 324L1057 358L1190 144L1118 72L1011 180L976 145Q979 114 992.5 87.5Q1006 61 1027.5 41.5Q1049 22 1077.0 11.0Q1105 0 1136 0Q1168 0 1197.5 12.0Q1227 24 1250 47L1718 516Q1765 563 1765 630Q1765 661 1754.0 688.5Q1743 716 1723.5 737.5Q1704 759 1678.0 773.0Q1652 787 1621 790L1586 755L1472 800L1442 899L1622 1078V1653L1879 1459Q1911 1435 1944.5 1413.0Q1978 1391 2007 1362Q2039 1330 2064.5 1293.0Q2090 1256 2118 1220L2340 935H1765Z" style="fill:#eba300;stroke:none" transform="scale(1,-1) translate(0,-256)" /></svg>