<?xml version="1.0" encoding="utf-8" ?>
<svg baseProfile="full" height="256" version="1.1" width="256" xmlns="http://www.w3.org/2000/svg" xmlns:ev="http://www.w3.org/2001/xml-events" xmlns:xlink="http://www.w3.org/1999/xlink"><defs /><path d="M615 -173Q615 -193 608.5 -208.0Q602 -223 591.5 -236.5Q581 -250 568.5 -262.0Q556 -274 543 -287L400 -144Q413 -131 425.0 -118.5Q437 -106 450.5 -95.5Q464 -85 479.0 -78.5Q494 -72 514 -72Q557 -72 586.0 -101.0Q615 -130 615 -173ZM831 647Q820 629 802.0 610.0Q784 591 764.0 572.5Q744 554 723.5 536.5Q703 519 687 503L615 575L759 719ZM1047 863Q1036 845 1018.0 826.0Q1000 807 980.0 788.5Q960 770 939.5 752.5Q919 735 903 719L831 791L975 935ZM1262 1078Q1248 1057 1230.5 1038.5Q1213 1020 1194.0 1003.0Q1175 986 1155.5 969.5Q1136 953 1118 935L1047 1006L1190 1150Z" style="fill:#e5e5e5;stroke:none" transform="scale(1,-1) translate(0,-256)" /></svg>