<?xml version="1.0" encoding="utf-8" ?>
<svg baseProfile="full" height="256" version="1.1" width="256" xmlns="http://www.w3.org/2000/svg" xmlns:ev="http://www.w3.org/2001/xml-events" xmlns:xlink="http://www.w3.org/1999/xlink"><defs /><path d="M664 324 412 575 1190 1353 1442 1102 1478 1138V1713L1592 1827Q1634 1869 1693 1869Q1722 1869 1748.5 1858.0Q1775 1847 1795 1827L2514 1108Q2534 1088 2545.0 1061.5Q2556 1035 2556 1006Q2556 947 2514 905L2400 791H2023Q2053 713 2053 628Q2053 532 2016.0 451.0Q1979 370 1912 303L1463 -146Q1395 -214 1314.0 -250.5Q1233 -287 1136 -287Q1058 -287 984.0 -261.0Q910 -235 850 -184L645 -389Q625 -409 598.5 -420.0Q572 -431 543 -431Q484 -431 442 -389L298 -245Q256 -203 256 -144Q256 -115 267.0 -88.5Q278 -62 298 -42Z" style="fill:#000000;stroke:none" transform="scale(1,-1) translate(0,-256)" /></svg>