<?xml version="1.0" encoding="utf-8" ?>
<svg baseProfile="full" height="256" version="1.1" width="256" xmlns="http://www.w3.org/2000/svg" xmlns:ev="http://www.w3.org/2001/xml-events" xmlns:xlink="http://www.w3.org/1999/xlink"><defs /><path d="M2053 606 2461 172Q2507 123 2531.5 59.5Q2556 -4 2556 -71Q2556 -145 2527.5 -210.5Q2499 -276 2450.5 -325.0Q2402 -374 2336.5 -402.5Q2271 -431 2197 -431H256V-120Q256 -52 270.5 13.5Q285 79 313.0 139.5Q341 200 381.5 254.0Q422 308 473 352V1007Q473 1116 501.5 1216.5Q530 1317 581.5 1405.0Q633 1493 705.0 1565.0Q777 1637 865.0 1688.5Q953 1740 1053.5 1768.5Q1154 1797 1263 1797Q1372 1797 1473.0 1768.5Q1574 1740 1661.5 1688.5Q1749 1637 1821.5 1565.0Q1894 1493 1945.5 1405.0Q1997 1317 2025.0 1216.0Q2053 1115 2053 1006Z" style="fill:#000000;stroke:none" transform="scale(1,-1) translate(0,-256)" /></svg>