<?xml version="1.0" encoding="utf-8" ?>
<svg baseProfile="full" height="256" version="1.1" width="256" xmlns="http://www.w3.org/2000/svg" xmlns:ev="http://www.w3.org/2001/xml-events" xmlns:xlink="http://www.w3.org/1999/xlink"><defs /><path d="M1047 1294Q1065 1257 1097.5 1230.0Q1130 1203 1169.5 1185.0Q1209 1167 1252.0 1158.5Q1295 1150 1334 1150H1766V935Q1766 831 1726.5 739.5Q1687 648 1618.5 579.5Q1550 511 1458.5 471.0Q1367 431 1263 431Q1159 431 1067.0 470.5Q975 510 906.5 578.5Q838 647 798.5 739.0Q759 831 759 935V1078Q864 1079 940.0 1136.5Q1016 1194 1047 1294ZM1406 360Q1435 360 1456.5 338.5Q1478 317 1478 288Q1478 280 1475.5 272.0Q1473 264 1469 256L1325 -31Q1316 -50 1299.5 -61.0Q1283 -72 1262 -72Q1242 -72 1224.5 -61.0Q1207 -50 1198 -32L1055 256Q1051 264 1048.5 272.0Q1046 280 1046 288Q1046 317 1067.5 338.5Q1089 360 1118 360Z" style="fill:#ffc83d;stroke:none" transform="scale(1,-1) translate(0,-256)" /></svg>