<?xml version="1.0" encoding="utf-8" ?>
<svg baseProfile="full" height="256" version="1.1" width="256" xmlns="http://www.w3.org/2000/svg" xmlns:ev="http://www.w3.org/2001/xml-events" xmlns:xlink="http://www.w3.org/1999/xlink"><defs /><path d="M1456 1150Q1465 1158 1477.0 1170.5Q1489 1183 1502.5 1194.5Q1516 1206 1529.5 1214.5Q1543 1223 1556 1223Q1582 1223 1602.0 1207.0Q1622 1191 1622 1163V863Q1622 848 1618.5 834.5Q1615 821 1610 807Q1586 741 1544.0 704.0Q1502 667 1431 658L1139 976Q1118 999 1118 1026Q1118 1057 1139 1078Q1119 1100 1119 1129Q1119 1145 1125.5 1157.0Q1132 1169 1143 1180Q1154 1191 1175.0 1210.5Q1196 1230 1219.5 1249.0Q1243 1268 1266.0 1282.0Q1289 1296 1304 1296Q1319 1296 1331.5 1289.0Q1344 1282 1354 1271Z" style="fill:#ffd679;stroke:none" transform="scale(1,-1) translate(0,-256)" /></svg>