<?xml version="1.0" encoding="utf-8" ?>
<svg baseProfile="full" height="256" version="1.1" width="256" xmlns="http://www.w3.org/2000/svg" xmlns:ev="http://www.w3.org/2001/xml-events" xmlns:xlink="http://www.w3.org/1999/xlink"><defs /><path d="M1370 647Q1385 647 1395.5 636.5Q1406 626 1406 611Q1406 596 1395.5 585.5Q1385 575 1370 575H1155Q1140 575 1129.5 585.5Q1119 596 1119 611Q1119 626 1129.5 636.5Q1140 647 1155 647ZM1119 1006V990Q1119 968 1110.5 948.5Q1102 929 1087.0 914.5Q1072 900 1052.5 891.5Q1033 883 1011 883Q989 883 969.5 891.5Q950 900 935.0 914.5Q920 929 911.5 948.5Q903 968 903 990V1006H934Q934 974 956.5 951.5Q979 929 1011 929Q1043 929 1065.5 951.5Q1088 974 1088 1006Z" style="fill:#000000;stroke:none" transform="scale(1,-1) translate(0,-256)" /></svg>