<?xml version="1.0" encoding="utf-8" ?>
<svg baseProfile="full" height="256" version="1.1" width="256" xmlns="http://www.w3.org/2000/svg" xmlns:ev="http://www.w3.org/2001/xml-events" xmlns:xlink="http://www.w3.org/1999/xlink"><defs /><path d="M1859 1004Q1886 1007 1912 1007Q2015 1007 2106.0 966.5Q2197 926 2265.0 857.0Q2333 788 2372.5 696.5Q2412 605 2412 503Q2412 399 2372.5 307.5Q2333 216 2264.5 147.5Q2196 79 2104.5 39.5Q2013 0 1909 0Q1843 0 1780.0 17.0Q1717 34 1661.0 66.0Q1605 98 1558.5 143.0Q1512 188 1478 245V72Q1478 31 1490.0 -8.5Q1502 -48 1522.0 -84.5Q1542 -121 1568.0 -154.0Q1594 -187 1622 -215V-287H1190V-215Q1218 -187 1244.0 -154.0Q1270 -121 1290.0 -84.5Q1310 -48 1322.0 -8.5Q1334 31 1334 72V245Q1300 188 1253.5 143.0Q1207 98 1151.0 66.0Q1095 34 1032.0 17.0Q969 0 903 0Q799 0 707.0 39.5Q615 79 547.0 147.0Q479 215 439.5 307.0Q400 399 400 503Q400 607 439.5 698.5Q479 790 547.5 858.5Q616 927 707.5 966.5Q799 1006 903 1006H923Q931 1006 938.0 1006.0Q945 1006 953 1004Q903 1107 903 1222Q903 1326 942.5 1417.5Q982 1509 1050.5 1577.5Q1119 1646 1210.5 1685.5Q1302 1725 1406 1725Q1510 1725 1601.5 1685.5Q1693 1646 1761.5 1577.5Q1830 1509 1869.5 1417.5Q1909 1326 1909 1222Q1909 1107 1859 1004ZM1909 144Q1984 144 2049.0 172.0Q2114 200 2163.0 249.0Q2212 298 2240.0 363.0Q2268 428 2268 503Q2268 577 2239.5 642.5Q2211 708 2162.5 757.0Q2114 806 2048.5 834.5Q1983 863 1909 863Q1872 863 1836.0 858.5Q1800 854 1764 850L1688 982L1694 994Q1709 1022 1721.5 1049.0Q1734 1076 1744.0 1103.0Q1754 1130 1759.5 1159.0Q1765 1188 1765 1222Q1765 1297 1737.0 1362.0Q1709 1427 1660.0 1476.0Q1611 1525 1546.0 1553.0Q1481 1581 1406 1581Q1331 1581 1266.0 1553.0Q1201 1525 1152.0 1476.0Q1103 1427 1075.0 1362.0Q1047 1297 1047 1222Q1047 1186 1053.5 1155.5Q1060 1125 1070.5 1097.0Q1081 1069 1094.5 1041.0Q1108 1013 1123 982L1047 850Q1011 854 975.0 858.5Q939 863 903 863Q829 863 763.5 834.5Q698 806 649.0 757.0Q600 708 571.5 642.5Q543 577 543 503Q543 429 571.5 363.5Q600 298 649.0 249.5Q698 201 763.5 172.5Q829 144 903 144Q950 144 995.0 156.5Q1040 169 1080.0 191.5Q1120 214 1153.5 246.5Q1187 279 1211 319Q1227 345 1242.0 370.5Q1257 396 1272 422H1540Q1555 396 1570.0 370.5Q1585 345 1601 319Q1625 278 1658.5 246.0Q1692 214 1731.5 191.0Q1771 168 1816.0 156.0Q1861 144 1909 144Z" style="fill:#2b2b2b;stroke:none" transform="scale(1,-1) translate(0,-256)" /></svg>