<?xml version="1.0" encoding="utf-8" ?>
<svg baseProfile="full" height="256" version="1.1" width="256" xmlns="http://www.w3.org/2000/svg" xmlns:ev="http://www.w3.org/2001/xml-events" xmlns:xlink="http://www.w3.org/1999/xlink"><defs /><path d="M2160 1031Q2211 984 2239.5 922.0Q2268 860 2268 791V288Q2268 189 2242.5 97.0Q2217 5 2170.0 -74.5Q2123 -154 2057.5 -220.0Q1992 -286 1912.0 -332.5Q1832 -379 1740.5 -405.0Q1649 -431 1550 -431H975Q876 -431 784.0 -405.5Q692 -380 612.0 -333.0Q532 -286 466.5 -220.5Q401 -155 354.0 -75.0Q307 5 281.5 97.0Q256 189 256 288V791Q256 860 284.5 922.0Q313 984 364 1031Q346 1057 337.0 1087.5Q328 1118 328 1150Q328 1192 343.0 1229.5Q358 1267 385.0 1296.0Q412 1325 448.0 1343.5Q484 1362 526 1365Q557 1400 598.5 1419.0Q640 1438 687 1438H1550Q1622 1438 1681 1393L1719 1507Q1693 1559 1693 1617Q1693 1669 1713.0 1715.0Q1733 1761 1767.0 1795.0Q1801 1829 1847.0 1849.0Q1893 1869 1945 1869Q1997 1869 2043.0 1849.0Q2089 1829 2123.0 1795.0Q2157 1761 2177.0 1715.0Q2197 1669 2197 1617Q2197 1582 2187.5 1548.5Q2178 1515 2160.0 1486.0Q2142 1457 2116.5 1433.5Q2091 1410 2060 1394L2047 1355Q2079 1344 2106.5 1323.5Q2134 1303 2154.0 1276.0Q2174 1249 2185.0 1216.5Q2196 1184 2196 1150Q2196 1118 2187.0 1087.5Q2178 1057 2160 1031Z" style="fill:#000000;stroke:none" transform="scale(1,-1) translate(0,-256)" /></svg>