<?xml version="1.0" encoding="utf-8" ?>
<svg baseProfile="full" height="256" version="1.1" width="256" xmlns="http://www.w3.org/2000/svg" xmlns:ev="http://www.w3.org/2001/xml-events" xmlns:xlink="http://www.w3.org/1999/xlink"><defs /><path d="M975 -287Q856 -287 751.0 -242.0Q646 -197 568.0 -119.0Q490 -41 445.0 64.0Q400 169 400 288L526 395V651L400 791Q400 825 410.5 850.5Q421 876 437.0 896.0Q453 916 471.5 934.5Q490 953 506.0 973.0Q522 993 532.5 1018.0Q543 1043 543 1078L600 1169H1931L1981 1078Q1981 1043 1991.5 1018.0Q2002 993 2018.0 973.0Q2034 953 2053.0 934.5Q2072 916 2088.0 896.0Q2104 876 2114.5 850.5Q2125 825 2125 791L1998 672V419L2125 288Q2125 169 2080.0 64.0Q2035 -41 1957.0 -119.0Q1879 -197 1774.0 -242.0Q1669 -287 1550 -287Z" style="fill:#ffb900;stroke:none" transform="scale(1,-1) translate(0,-256)" /></svg>