<?xml version="1.0" encoding="utf-8" ?>
<svg baseProfile="full" height="256" version="1.1" width="256" xmlns="http://www.w3.org/2000/svg" xmlns:ev="http://www.w3.org/2001/xml-events" xmlns:xlink="http://www.w3.org/1999/xlink"><defs /><path d="M1190 503Q1161 503 1139.5 524.5Q1118 546 1118 575V935Q1118 964 1097.0 985.0Q1076 1006 1047 1006Q1022 1006 1007.0 995.5Q992 985 984.5 968.5Q977 952 974.5 931.5Q972 911 972 891Q972 859 975.0 826.5Q978 794 978 762Q978 742 975.5 721.5Q973 701 965.5 684.5Q958 668 943.0 657.5Q928 647 903 647Q873 647 852.0 668.0Q831 689 831 719V1150Q831 1180 810.0 1201.0Q789 1222 759 1222H615Q615 1252 636.0 1273.0Q657 1294 687 1294H1550Q1579 1294 1600.5 1272.5Q1622 1251 1622 1222H1334Q1304 1222 1283.0 1201.0Q1262 1180 1262 1150V575Q1262 546 1240.5 524.5Q1219 503 1190 503Z" style="fill:#ffd679;stroke:none" transform="scale(1,-1) translate(0,-256)" /></svg>