<?xml version="1.0" encoding="utf-8" ?>
<svg baseProfile="full" height="256" version="1.1" width="256" xmlns="http://www.w3.org/2000/svg" xmlns:ev="http://www.w3.org/2001/xml-events" xmlns:xlink="http://www.w3.org/1999/xlink"><defs /><path d="M400 791H2125V288H400ZM543 1078Q514 1078 493.0 1099.5Q472 1121 472 1150Q472 1174 481.5 1188.5Q491 1203 506.0 1210.5Q521 1218 540.0 1220.0Q559 1222 578 1222H615L686 1271H1566L1621 1222H1981Q2011 1222 2032.0 1201.0Q2053 1180 2053 1150Q2053 1121 2031.5 1099.5Q2010 1078 1981 1078Z" style="fill:#d48c00;stroke:none" transform="scale(1,-1) translate(0,-256)" /></svg>