<?xml version="1.0" encoding="utf-8" ?>
<svg baseProfile="full" height="256" version="1.1" width="256" xmlns="http://www.w3.org/2000/svg" xmlns:ev="http://www.w3.org/2001/xml-events" xmlns:xlink="http://www.w3.org/1999/xlink"><defs /><path d="M2053 1617Q2053 1595 2045.0 1575.5Q2037 1556 2022.5 1541.5Q2008 1527 1988.5 1518.5Q1969 1510 1947 1510L1871 1282Q1863 1273 1848.5 1261.0Q1834 1249 1821 1249Q1816 1249 1812.5 1255.5Q1809 1262 1807.0 1271.0Q1805 1280 1803.5 1288.5Q1802 1297 1802 1300Q1802 1305 1807.0 1321.5Q1812 1338 1819.5 1361.0Q1827 1384 1836.0 1410.0Q1845 1436 1853.5 1460.0Q1862 1484 1869.0 1503.5Q1876 1523 1879 1532Q1859 1547 1848.0 1569.5Q1837 1592 1837 1617Q1837 1639 1845.5 1659.0Q1854 1679 1868.5 1693.5Q1883 1708 1902.5 1716.5Q1922 1725 1945 1725Q1967 1725 1987.0 1716.5Q2007 1708 2021.5 1693.5Q2036 1679 2044.5 1659.0Q2053 1639 2053 1617Z" style="fill:#bb9167;stroke:none" transform="scale(1,-1) translate(0,-256)" /></svg>