<?xml version="1.0" encoding="utf-8" ?>
<svg baseProfile="full" height="256" version="1.1" width="256" xmlns="http://www.w3.org/2000/svg" xmlns:ev="http://www.w3.org/2001/xml-events" xmlns:xlink="http://www.w3.org/1999/xlink"><defs /><path d="M1406 1869 1550 1527V1006L1622 935Q1622 873 1621.0 811.5Q1620 750 1620 688Q1620 652 1624.0 622.5Q1628 593 1638.5 567.0Q1649 541 1667.0 517.5Q1685 494 1713 470L2412 -228V-431H256V-228L955 470Q986 497 1004.5 523.0Q1023 549 1033.0 576.0Q1043 603 1046.0 631.5Q1049 660 1049 691Q1049 714 1048.0 739.0Q1047 764 1047 791V935L1118 1006V1527L1262 1869Z" style="fill:#000000;stroke:none" transform="scale(1,-1) translate(0,-256)" /></svg>