<?xml version="1.0" encoding="utf-8" ?>
<svg baseProfile="full" height="256" version="1.1" width="256" xmlns="http://www.w3.org/2000/svg" xmlns:ev="http://www.w3.org/2001/xml-events" xmlns:xlink="http://www.w3.org/1999/xlink"><defs /><path d="M2268 -287H2053Q1920 -158 1755.0 -86.0Q1590 -14 1406 -2V-287H1262V-2Q1078 -14 913.0 -86.5Q748 -159 615 -287H400L1047 360Q1059 372 1072.0 383.0Q1085 394 1096 407Q1140 457 1165.0 519.0Q1190 581 1190 647L1262 697H1406L1478 647Q1478 579 1503.0 518.5Q1528 458 1573 407Q1584 394 1597.0 383.0Q1610 372 1622 360ZM1478 863V791L1331 731L1190 791V863Q1220 898 1255.5 929.0Q1291 960 1331 985Q1373 963 1410.5 931.5Q1448 900 1478 863ZM1406 1510V1222L1334 1182L1262 1222V1510L1330 1540ZM1047 144H1262V359Q1253 351 1234.5 334.5Q1216 318 1193.0 296.5Q1170 275 1145.0 251.0Q1120 227 1099.0 205.5Q1078 184 1063.5 167.5Q1049 151 1047 144ZM1406 144H1622L1406 360Z" style="fill:#f03a17;stroke:none" transform="scale(1,-1) translate(0,-256)" /></svg>