<?xml version="1.0" encoding="utf-8" ?>
<svg baseProfile="full" height="256" version="1.1" width="256" xmlns="http://www.w3.org/2000/svg" xmlns:ev="http://www.w3.org/2001/xml-events" xmlns:xlink="http://www.w3.org/1999/xlink"><defs /><path d="M2484 791H2556V360H2484Q2484 283 2464.0 210.0Q2444 137 2407.0 72.5Q2370 8 2317.0 -45.5Q2264 -99 2197 -138V-431H1981Q1928 -431 1877.5 -415.5Q1827 -400 1784.0 -372.0Q1741 -344 1707.0 -304.0Q1673 -264 1652 -215H1160Q1139 -264 1105.0 -304.0Q1071 -344 1028.0 -372.0Q985 -400 934.5 -415.5Q884 -431 831 -431H615V-138Q548 -99 495.0 -45.5Q442 8 405.0 72.5Q368 137 348.0 210.0Q328 283 328 360H256V791H2125V1150H1622V1425L1771 1575Q1783 1639 1815.5 1693.0Q1848 1747 1895.0 1786.0Q1942 1825 2001.0 1847.0Q2060 1869 2125 1869Q2199 1869 2264.5 1840.5Q2330 1812 2378.5 1763.5Q2427 1715 2455.5 1649.5Q2484 1584 2484 1510Z" style="fill:#000000;stroke:none" transform="scale(1,-1) translate(0,-256)" /></svg>