<?xml version="1.0" encoding="utf-8" ?>
<svg baseProfile="full" height="256" version="1.1" width="256" xmlns="http://www.w3.org/2000/svg" xmlns:ev="http://www.w3.org/2001/xml-events" xmlns:xlink="http://www.w3.org/1999/xlink"><defs /><path d="M1909 0Q1909 -54 1912.5 -83.0Q1916 -112 1930.5 -125.5Q1945 -139 1973.5 -141.5Q2002 -144 2053 -144V-287H1981Q1936 -287 1897.0 -270.0Q1858 -253 1828.5 -224.0Q1799 -195 1782.0 -156.0Q1765 -117 1765 -72V0ZM759 -144H831Q855 -144 869.5 -134.5Q884 -125 891.5 -110.0Q899 -95 901.0 -76.0Q903 -57 903 -37V0H1047V-72Q1047 -117 1030.0 -156.0Q1013 -195 983.5 -224.0Q954 -253 915.0 -270.0Q876 -287 831 -287H759Z" style="fill:#757575;stroke:none" transform="scale(1,-1) translate(0,-256)" /></svg>