<?xml version="1.0" encoding="utf-8" ?>
<svg baseProfile="full" height="256" version="1.1" width="256" xmlns="http://www.w3.org/2000/svg" xmlns:ev="http://www.w3.org/2001/xml-events" xmlns:xlink="http://www.w3.org/1999/xlink"><defs /><path d="M1909 360H903Q874 360 852.5 381.0Q831 402 831 431Q831 461 852.0 482.0Q873 503 903 503H1909Q1939 503 1960.0 482.0Q1981 461 1981 431Q1981 402 1959.5 381.0Q1938 360 1909 360ZM1190 863H903Q873 863 852.0 884.0Q831 905 831 935Q831 964 852.5 985.0Q874 1006 903 1006H1190Q1219 1006 1240.5 985.0Q1262 964 1262 935Q1262 905 1241.0 884.0Q1220 863 1190 863ZM1909 863H1622Q1592 863 1571.0 884.0Q1550 905 1550 935Q1550 964 1571.5 985.0Q1593 1006 1622 1006H1909Q1938 1006 1959.5 985.0Q1981 964 1981 935Q1981 905 1960.0 884.0Q1939 863 1909 863Z" style="fill:#000000;stroke:none" transform="scale(1,-1) translate(0,-256)" /></svg>