<?xml version="1.0" encoding="utf-8" ?>
<svg baseProfile="full" height="256" version="1.1" width="256" xmlns="http://www.w3.org/2000/svg" xmlns:ev="http://www.w3.org/2001/xml-events" xmlns:xlink="http://www.w3.org/1999/xlink"><defs /><path d="M1262 -72Q1243 -72 1214.5 -68.0Q1186 -64 1154.0 -56.0Q1122 -48 1090.0 -35.5Q1058 -23 1032.5 -7.0Q1007 9 991.0 29.5Q975 50 975 74Q975 103 996.0 124.5Q1017 146 1046 146Q1061 146 1082.5 134.5Q1104 123 1131.5 109.5Q1159 96 1191.5 84.5Q1224 73 1262 73Q1299 73 1332.5 84.5Q1366 96 1394.0 109.5Q1422 123 1443.0 134.5Q1464 146 1478 146Q1508 146 1529.0 124.0Q1550 102 1550 73Q1550 49 1534.0 29.0Q1518 9 1492.0 -7.0Q1466 -23 1434.0 -35.5Q1402 -48 1370.0 -56.0Q1338 -64 1309.5 -68.0Q1281 -72 1262 -72Z" style="fill:#008272;stroke:none" transform="scale(1,-1) translate(0,-256)" /></svg>