<?xml version="1.0" encoding="utf-8" ?>
<svg baseProfile="full" height="256" version="1.1" width="256" xmlns="http://www.w3.org/2000/svg" xmlns:ev="http://www.w3.org/2001/xml-events" xmlns:xlink="http://www.w3.org/1999/xlink"><defs /><path d="M1262 1725Q1381 1725 1491.0 1694.0Q1601 1663 1697.0 1607.0Q1793 1551 1872.0 1472.5Q1951 1394 2007.0 1298.0Q2063 1202 2094.0 1092.0Q2125 982 2125 863Q2125 697 2068.5 554.0Q2012 411 1903 287Q1828 201 1750.0 118.5Q1672 36 1594 -48Q1556 -90 1518.5 -133.5Q1481 -177 1439 -215Q1401 -250 1357.0 -268.5Q1313 -287 1262 -287Q1214 -287 1166.5 -268.5Q1119 -250 1086 -215L621 287Q512 405 456.0 554.5Q400 704 400 863Q400 982 431.0 1092.0Q462 1202 518.0 1298.0Q574 1394 652.5 1472.5Q731 1551 827.0 1607.0Q923 1663 1033.0 1694.0Q1143 1725 1262 1725Z" style="fill:#79db75;stroke:none" transform="scale(1,-1) translate(0,-256)" /></svg>