<?xml version="1.0" encoding="utf-8" ?>
<svg baseProfile="full" height="256" version="1.1" width="256" xmlns="http://www.w3.org/2000/svg" xmlns:ev="http://www.w3.org/2001/xml-events" xmlns:xlink="http://www.w3.org/1999/xlink"><defs /><path d="M723 863Q745 863 764.5 854.5Q784 846 799.0 831.0Q814 816 822.5 796.5Q831 777 831 755Q831 732 822.5 712.5Q814 693 799.5 678.5Q785 664 765.0 655.5Q745 647 723 647Q701 647 681.5 655.5Q662 664 647.0 679.0Q632 694 623.5 713.5Q615 733 615 755Q615 777 623.5 796.5Q632 816 647.0 831.0Q662 846 681.5 854.5Q701 863 723 863ZM1658 863Q1680 863 1699.5 854.5Q1719 846 1733.5 831.0Q1748 816 1756.5 796.5Q1765 777 1765 755Q1765 733 1756.5 713.5Q1748 694 1734.0 679.0Q1720 664 1700.0 655.5Q1680 647 1658 647Q1635 647 1615.5 655.5Q1596 664 1581.5 678.5Q1567 693 1558.5 712.5Q1550 732 1550 755Q1550 777 1558.5 796.5Q1567 816 1582.0 831.0Q1597 846 1616.5 854.5Q1636 863 1658 863Z" style="fill:#ffffff;stroke:none" transform="scale(1,-1) translate(0,-256)" /></svg>