<?xml version="1.0" encoding="utf-8" ?>
<svg baseProfile="full" height="256" version="1.1" width="256" xmlns="http://www.w3.org/2000/svg" xmlns:ev="http://www.w3.org/2001/xml-events" xmlns:xlink="http://www.w3.org/1999/xlink"><defs /><path d="M1909 935Q1938 935 1959.5 913.5Q1981 892 1981 863V683Q1981 601 1950.0 529.0Q1919 457 1865.5 403.5Q1812 350 1740.0 319.0Q1668 288 1586 288H1406Q1376 288 1355.0 309.0Q1334 330 1334 360V539Q1334 621 1365.0 693.0Q1396 765 1449.5 819.0Q1503 873 1575.0 904.0Q1647 935 1729 935ZM795 935Q877 935 949.0 904.0Q1021 873 1074.5 819.0Q1128 765 1159.0 693.0Q1190 621 1190 539V360Q1190 330 1169.0 309.0Q1148 288 1118 288H939Q857 288 785.0 319.0Q713 350 659.0 403.5Q605 457 574.0 529.0Q543 601 543 683V863Q543 892 564.5 913.5Q586 935 615 935Z" style="fill:#000000;stroke:none" transform="scale(1,-1) translate(0,-256)" /></svg>