<?xml version="1.0" encoding="utf-8" ?>
<svg baseProfile="full" height="256" version="1.1" width="256" xmlns="http://www.w3.org/2000/svg" xmlns:ev="http://www.w3.org/2001/xml-events" xmlns:xlink="http://www.w3.org/1999/xlink"><defs /><path d="M1262 -431Q1179 -431 1112.0 -402.5Q1045 -374 985 -317Q860 -199 745.0 -69.0Q630 61 516 189Q388 333 322.0 501.5Q256 670 256 863Q256 1002 292.0 1130.5Q328 1259 393.5 1370.5Q459 1482 551.0 1574.0Q643 1666 754.5 1731.5Q866 1797 994.5 1833.0Q1123 1869 1262 1869Q1401 1869 1529.5 1833.0Q1658 1797 1769.5 1731.5Q1881 1666 1973.0 1574.0Q2065 1482 2130.5 1370.5Q2196 1259 2232.0 1130.5Q2268 1002 2268 863Q2268 771 2251.0 679.5Q2234 588 2201.5 502.0Q2169 416 2121.0 337.0Q2073 258 2010 190L1544 -313Q1490 -371 1415.0 -401.0Q1340 -431 1262 -431Z" style="fill:#000000;stroke:none" transform="scale(1,-1) translate(0,-256)" /></svg>