<?xml version="1.0" encoding="utf-8" ?>
<svg baseProfile="full" height="256" version="1.1" width="256" xmlns="http://www.w3.org/2000/svg" xmlns:ev="http://www.w3.org/2001/xml-events" xmlns:xlink="http://www.w3.org/1999/xlink"><defs /><path d="M1406 1725H1801Q1823 1725 1843.0 1716.5Q1863 1708 1877.5 1693.5Q1892 1679 1900.5 1659.0Q1909 1639 1909 1617Q1909 1577 1889.0 1555.0Q1869 1533 1837 1516Q1801 1497 1763.0 1483.0Q1725 1469 1688 1453Q1593 1412 1512.5 1353.0Q1432 1294 1370.0 1219.5Q1308 1145 1265.5 1055.5Q1223 966 1204 863H1442Q1464 863 1483.5 854.5Q1503 846 1518.0 831.0Q1533 816 1541.5 796.5Q1550 777 1550 755Q1550 733 1541.5 713.5Q1533 694 1518.0 679.0Q1503 664 1483.5 655.5Q1464 647 1442 647H1194Q1197 610 1204.5 574.0Q1212 538 1222 503H903Q919 455 946.5 426.5Q974 398 1009.5 382.5Q1045 367 1085.5 362.5Q1126 358 1168 358Q1196 358 1224.0 359.0Q1252 360 1279 360Q1347 224 1448.0 134.0Q1549 44 1688 -15Q1725 -31 1763.5 -45.0Q1802 -59 1837 -78Q1869 -95 1889.0 -117.0Q1909 -139 1909 -179Q1909 -202 1900.5 -221.5Q1892 -241 1877.5 -255.5Q1863 -270 1843.0 -278.5Q1823 -287 1801 -287H1406Q1270 -287 1140.5 -251.5Q1011 -216 896.5 -149.0Q782 -82 687.5 13.5Q593 109 527 228Q502 273 487.5 322.5Q473 372 457 421Q442 465 431.5 499.5Q421 534 414.0 567.0Q407 600 403.5 635.5Q400 671 400 719Q400 858 436.0 986.5Q472 1115 537.5 1227.0Q603 1339 694.5 1430.5Q786 1522 898.0 1587.5Q1010 1653 1138.5 1689.0Q1267 1725 1406 1725Z" style="fill:#ffc83d;stroke:none" transform="scale(1,-1) translate(0,-256)" /></svg>