<?xml version="1.0" encoding="utf-8" ?>
<svg baseProfile="full" height="256" version="1.1" width="256" xmlns="http://www.w3.org/2000/svg" xmlns:ev="http://www.w3.org/2001/xml-events" xmlns:xlink="http://www.w3.org/1999/xlink"><defs /><path d="M1801 -431H1406Q1247 -431 1100.5 -390.0Q954 -349 826.0 -274.0Q698 -199 593.0 -94.0Q488 11 413.0 139.0Q338 267 297.0 414.0Q256 561 256 719Q256 877 297.0 1024.0Q338 1171 413.0 1299.0Q488 1427 593.0 1532.0Q698 1637 826.0 1712.0Q954 1787 1100.5 1828.0Q1247 1869 1406 1869H1801Q1853 1869 1899.0 1849.0Q1945 1829 1979.0 1795.0Q2013 1761 2033.0 1715.0Q2053 1669 2053 1617Q2053 1569 2040.0 1532.5Q2027 1496 2004.5 1468.0Q1982 1440 1951.5 1419.0Q1921 1398 1886.5 1381.0Q1852 1364 1814.5 1349.5Q1777 1335 1741 1319Q1628 1270 1542.0 1194.0Q1456 1118 1402 1006H1442Q1494 1006 1540.0 986.5Q1586 967 1620.0 933.0Q1654 899 1673.5 853.0Q1693 807 1693 755Q1693 703 1673.5 657.0Q1654 611 1620.0 577.0Q1586 543 1540.0 523.0Q1494 503 1442 503H1371Q1421 362 1515.5 269.5Q1610 177 1745 117Q1798 93 1853.0 71.0Q1908 49 1952.5 17.5Q1997 -14 2025.0 -60.5Q2053 -107 2053 -179Q2053 -231 2033.0 -277.0Q2013 -323 1979.0 -357.0Q1945 -391 1899.0 -411.0Q1853 -431 1801 -431Z" style="fill:#000000;stroke:none" transform="scale(1,-1) translate(0,-256)" /></svg>