<?xml version="1.0" encoding="utf-8" ?>
<svg baseProfile="full" height="256" version="1.1" width="256" xmlns="http://www.w3.org/2000/svg" xmlns:ev="http://www.w3.org/2001/xml-events" xmlns:xlink="http://www.w3.org/1999/xlink"><defs /><path d="M939 1150Q961 1150 980.5 1141.5Q1000 1133 1015.0 1118.0Q1030 1103 1038.5 1083.5Q1047 1064 1047 1042V899Q1047 877 1038.5 857.5Q1030 838 1015.0 823.0Q1000 808 980.5 799.5Q961 791 939 791Q916 791 896.5 799.5Q877 808 862.5 822.5Q848 837 839.5 856.5Q831 876 831 899V1042Q831 1064 839.5 1084.0Q848 1104 862.5 1118.5Q877 1133 896.5 1141.5Q916 1150 939 1150Z" style="fill:#000000;stroke:none" transform="scale(1,-1) translate(0,-256)" /></svg>