<?xml version="1.0" encoding="utf-8" ?>
<svg baseProfile="full" height="256" version="1.1" width="256" xmlns="http://www.w3.org/2000/svg" xmlns:ev="http://www.w3.org/2001/xml-events" xmlns:xlink="http://www.w3.org/1999/xlink"><defs /><path d="M2556 575Q2556 502 2530.0 441.0Q2504 380 2459.5 329.5Q2415 279 2357.0 238.0Q2299 197 2235.5 165.5Q2172 134 2106.0 111.0Q2040 88 1981 72V-431L1729 -347L1478 -431V2Q1460 1 1442.0 0.5Q1424 0 1406 0Q1388 0 1370.0 0.5Q1352 1 1334 2V-287L1083 -203L831 -287V72Q772 88 706.0 111.0Q640 134 576.5 165.5Q513 197 455.0 238.0Q397 279 352.5 329.5Q308 380 282.0 441.0Q256 502 256 575Q256 668 298.0 742.5Q340 817 406.0 874.0Q472 931 553.0 972.5Q634 1014 711 1041Q741 1160 807.5 1259.0Q874 1358 966.0 1429.5Q1058 1501 1170.5 1541.0Q1283 1581 1406 1581Q1529 1581 1641.5 1541.0Q1754 1501 1846.0 1429.5Q1938 1358 2004.5 1259.0Q2071 1160 2101 1041Q2178 1014 2259.0 972.5Q2340 931 2406.0 874.0Q2472 817 2514.0 742.5Q2556 668 2556 575Z" style="fill:#000000;stroke:none" transform="scale(1,-1) translate(0,-256)" /></svg>