<?xml version="1.0" encoding="utf-8" ?>
<svg baseProfile="full" height="256" version="1.1" width="256" xmlns="http://www.w3.org/2000/svg" xmlns:ev="http://www.w3.org/2001/xml-events" xmlns:xlink="http://www.w3.org/1999/xlink"><defs /><path d="M1977 930Q2015 919 2062.0 902.0Q2109 885 2157.5 861.5Q2206 838 2251.5 808.5Q2297 779 2333.0 743.5Q2369 708 2390.5 665.5Q2412 623 2412 575Q2412 513 2378.0 461.5Q2344 410 2289.5 368.0Q2235 326 2166.0 293.5Q2097 261 2027.0 237.5Q1957 214 1892.0 198.5Q1827 183 1780 175Q1687 159 1593.5 151.5Q1500 144 1406 144Q1312 144 1218.5 151.5Q1125 159 1032 175Q985 183 920.0 198.5Q855 214 785.0 237.5Q715 261 646.0 293.5Q577 326 522.5 368.0Q468 410 434.0 461.5Q400 513 400 575Q400 623 421.5 665.5Q443 708 479.0 743.5Q515 779 560.5 808.5Q606 838 654.5 861.5Q703 885 750.0 902.0Q797 919 835 930Q848 1039 898.0 1132.0Q948 1225 1024.5 1293.0Q1101 1361 1199.0 1399.5Q1297 1438 1406 1438Q1515 1438 1613.0 1399.5Q1711 1361 1787.5 1293.0Q1864 1225 1914.0 1132.0Q1964 1039 1977 930Z" style="fill:#ffb900;stroke:none" transform="scale(1,-1) translate(0,-256)" /></svg>