<?xml version="1.0" encoding="utf-8" ?>
<svg baseProfile="full" height="256" version="1.1" width="256" xmlns="http://www.w3.org/2000/svg" xmlns:ev="http://www.w3.org/2001/xml-events" xmlns:xlink="http://www.w3.org/1999/xlink"><defs /><path d="M1976 935Q1978 917 1979.5 899.0Q1981 881 1981 863V678Q1981 631 1948.5 595.0Q1916 559 1869.5 532.5Q1823 506 1773.0 489.0Q1723 472 1687 463L1803 328Q1837 288 1837 235V-232L1729 -196L1622 -232V235Q1622 287 1587 328L1496 434Q1451 431 1406 431Q1361 431 1316 434L1225 328Q1208 308 1199.0 284.5Q1190 261 1190 235V-88L1083 -52L975 -88V235Q975 288 1009 328L1125 463Q1089 472 1039.0 489.0Q989 506 942.5 532.5Q896 559 863.5 595.0Q831 631 831 678V863Q831 881 832.0 899.0Q833 917 835 935Q848 891 885.0 858.5Q922 826 973.5 802.0Q1025 778 1085.5 762.0Q1146 746 1205.0 736.5Q1264 727 1317.0 723.0Q1370 719 1406 719Q1442 719 1495.0 723.0Q1548 727 1607.0 736.5Q1666 746 1726.5 762.0Q1787 778 1838.0 802.0Q1889 826 1926.0 858.5Q1963 891 1976 935Z" style="fill:#c30052;stroke:none" transform="scale(1,-1) translate(0,-256)" /></svg>