<?xml version="1.0" encoding="utf-8" ?>
<svg baseProfile="full" height="256" version="1.1" width="256" xmlns="http://www.w3.org/2000/svg" xmlns:ev="http://www.w3.org/2001/xml-events" xmlns:xlink="http://www.w3.org/1999/xlink"><defs /><path d="M1047 736Q1047 759 1063.0 775.0Q1079 791 1102 791Q1118 791 1132 782Q1182 749 1234.0 716.0Q1286 683 1334 647Q1353 633 1371.0 612.5Q1389 592 1406 575Q1389 558 1371.0 537.5Q1353 517 1334 503Q1287 468 1234.0 434.5Q1181 401 1132 369Q1118 360 1102 360Q1079 360 1063.0 376.0Q1047 392 1047 415ZM1765 736V415Q1765 392 1749.0 376.0Q1733 360 1710 360Q1693 360 1680 369Q1631 401 1578.0 434.5Q1525 468 1478 503Q1459 517 1441.0 537.5Q1423 558 1406 575Q1423 592 1441.0 612.5Q1459 633 1478 647Q1526 683 1578.0 716.0Q1630 749 1680 782Q1693 791 1710 791Q1733 791 1749.0 775.0Q1765 759 1765 736Z" style="fill:#ee3f86;stroke:none" transform="scale(1,-1) translate(0,-256)" /></svg>