<?xml version="1.0" encoding="utf-8" ?>
<svg baseProfile="full" height="256" version="1.1" width="256" xmlns="http://www.w3.org/2000/svg" xmlns:ev="http://www.w3.org/2001/xml-events" xmlns:xlink="http://www.w3.org/1999/xlink"><defs /><path d="M2484 -72H2556V-431H1837V-287H759V-431H328V-232Q294 -202 275.0 -160.0Q256 -118 256 -72V431Q256 465 266.5 497.0Q277 529 296.0 555.5Q315 582 341.5 602.5Q368 623 400 635Q400 682 415.5 723.5Q431 765 459.0 796.0Q487 827 527.0 845.0Q567 863 615 863H831V935Q831 982 845.5 1025.0Q860 1068 886.5 1104.0Q913 1140 950.0 1167.0Q987 1194 1032 1208Q1155 1320 1305.5 1379.0Q1456 1438 1622 1438Q1741 1438 1851.0 1407.0Q1961 1376 2056.5 1320.0Q2152 1264 2231.0 1185.0Q2310 1106 2366.0 1010.0Q2422 914 2453.0 804.0Q2484 694 2484 575ZM1406 863H1981Q2013 863 2040 853Q2005 905 1959.0 946.5Q1913 988 1859.0 1017.5Q1805 1047 1745.0 1062.5Q1685 1078 1622 1078Q1562 1078 1504.0 1064.5Q1446 1051 1392 1024Q1402 995 1404.0 965.0Q1406 935 1406 905Z" style="fill:#000000;stroke:none" transform="scale(1,-1) translate(0,-256)" /></svg>