<?xml version="1.0" encoding="utf-8" ?>
<svg baseProfile="full" height="256" version="1.1" width="256" xmlns="http://www.w3.org/2000/svg" xmlns:ev="http://www.w3.org/2001/xml-events" xmlns:xlink="http://www.w3.org/1999/xlink"><defs /><path d="M1981 719Q2011 719 2032.0 698.0Q2053 677 2053 647V144H543V647Q543 676 564.5 697.5Q586 719 615 719H1226Q1247 719 1263 709Q1266 699 1271.5 688.0Q1277 677 1282.5 665.5Q1288 654 1292.5 643.0Q1297 632 1298 622Q1300 642 1313.5 665.5Q1327 689 1333 709Q1349 719 1370 719Z" style="fill:#e84757;stroke:none" transform="scale(1,-1) translate(0,-256)" /></svg>