<?xml version="1.0" encoding="utf-8" ?>
<svg baseProfile="full" height="256" version="1.1" width="256" xmlns="http://www.w3.org/2000/svg" xmlns:ev="http://www.w3.org/2001/xml-events" xmlns:xlink="http://www.w3.org/1999/xlink"><defs /><path d="M2125 -144H472Q443 -144 421.5 -122.5Q400 -101 400 -72V431Q400 456 409.5 470.5Q419 485 435.0 492.0Q451 499 470.5 501.0Q490 503 510 503Q529 503 548.0 501.0Q567 499 582.0 491.5Q597 484 606.0 469.5Q615 455 615 431V72H1981V431Q1981 456 1990.5 470.5Q2000 485 2016.0 492.0Q2032 499 2051.5 501.0Q2071 503 2091 503Q2110 503 2129.0 501.0Q2148 499 2163.0 491.5Q2178 484 2187.5 469.5Q2197 455 2197 431V-72Q2197 -101 2175.5 -122.5Q2154 -144 2125 -144Z" style="fill:#e81224;stroke:none" transform="scale(1,-1) translate(0,-256)" /></svg>