<?xml version="1.0" encoding="utf-8" ?>
<svg baseProfile="full" height="256" version="1.1" width="256" xmlns="http://www.w3.org/2000/svg" xmlns:ev="http://www.w3.org/2001/xml-events" xmlns:xlink="http://www.w3.org/1999/xlink"><defs /><path d="M1622 1294Q1721 1294 1812.5 1268.0Q1904 1242 1984.0 1195.5Q2064 1149 2129.5 1083.0Q2195 1017 2242.0 937.5Q2289 858 2314.5 766.0Q2340 674 2340 575V-144Q2340 -174 2361.5 -194.5Q2383 -215 2412 -215L2318 -251L2197 -215Q2226 -215 2247.0 -194.0Q2268 -173 2268 -144V575Q2268 664 2245.0 746.5Q2222 829 2180.0 901.0Q2138 973 2078.5 1032.0Q2019 1091 1947.5 1133.5Q1876 1176 1793.5 1199.0Q1711 1222 1622 1222Q1484 1222 1362.0 1169.0Q1240 1116 1144 1017L1093 1067Q1199 1176 1334.5 1235.0Q1470 1294 1622 1294Z" style="fill:#e5e5e5;stroke:none" transform="scale(1,-1) translate(0,-256)" /></svg>