<?xml version="1.0" encoding="utf-8" ?>
<svg baseProfile="full" height="256" version="1.1" width="256" xmlns="http://www.w3.org/2000/svg" xmlns:ev="http://www.w3.org/2001/xml-events" xmlns:xlink="http://www.w3.org/1999/xlink"><defs /><path d="M1909 288Q1935 288 1952.0 274.0Q1969 260 1978 237Q1980 232 1979.5 226.5Q1979 221 1981 216L2022 40H1298Q1118 40 939.5 41.5Q761 43 581 44L615 216Q616 221 616.0 226.5Q616 232 618 237Q626 260 644.0 274.0Q662 288 687 288H1226Q1255 288 1275.5 269.0Q1296 250 1298 222Q1300 250 1320.5 269.0Q1341 288 1370 288Z" style="fill:#af0d1a;stroke:none" transform="scale(1,-1) translate(0,-256)" /></svg>