<?xml version="1.0" encoding="utf-8" ?>
<svg baseProfile="full" height="256" version="1.1" width="256" xmlns="http://www.w3.org/2000/svg" xmlns:ev="http://www.w3.org/2001/xml-events" xmlns:xlink="http://www.w3.org/1999/xlink"><defs /><path d="M2055 463Q2072 463 2083 451L2256 256Q2275 235 2275 208Q2275 177 2253.5 156.0Q2232 135 2201 135Q2178 135 2163.0 146.0Q2148 157 2137 176Q2132 184 2122.0 204.5Q2112 225 2098.5 251.0Q2085 277 2071.0 306.0Q2057 335 2045.5 360.0Q2034 385 2026.5 404.0Q2019 423 2019 428Q2019 442 2030.0 452.5Q2041 463 2055 463ZM763 463Q777 463 788.0 452.5Q799 442 799 428Q799 422 791.5 403.5Q784 385 772.5 359.5Q761 334 747.0 305.5Q733 277 720.0 251.0Q707 225 696.5 204.5Q686 184 681 176Q670 157 655.0 146.0Q640 135 617 135Q586 135 564.5 156.0Q543 177 543 208Q543 235 562 256L735 451Q745 463 763 463Z" style="fill:#d8b094;stroke:none" transform="scale(1,-1) translate(0,-256)" /></svg>