<?xml version="1.0" encoding="utf-8" ?>
<svg baseProfile="full" height="256" version="1.1" width="256" xmlns="http://www.w3.org/2000/svg" xmlns:ev="http://www.w3.org/2001/xml-events" xmlns:xlink="http://www.w3.org/1999/xlink"><defs /><path d="M2413 206Q2413 164 2394.5 126.5Q2376 89 2346.0 61.0Q2316 33 2277.0 16.5Q2238 0 2197 0H615Q574 0 535.0 16.5Q496 33 466.0 61.0Q436 89 417.5 126.5Q399 164 399 206Q399 208 399.5 211.0Q400 214 400 216L472 935Q477 984 491.5 1023.5Q506 1063 532.5 1091.0Q559 1119 597.0 1134.5Q635 1150 687 1150H2125Q2159 1150 2192.0 1140.0Q2225 1130 2252.5 1111.5Q2280 1093 2301.0 1066.5Q2322 1040 2331 1006Q2336 989 2337.0 971.0Q2338 953 2340 935L2412 216Q2412 214 2412.5 211.0Q2413 208 2413 206Z" style="fill:#f7d7c4;stroke:none" transform="scale(1,-1) translate(0,-256)" /></svg>