<?xml version="1.0" encoding="utf-8" ?>
<svg baseProfile="full" height="256" version="1.1" width="256" xmlns="http://www.w3.org/2000/svg" xmlns:ev="http://www.w3.org/2001/xml-events" xmlns:xlink="http://www.w3.org/1999/xlink"><defs /><path d="M2161 1510Q2183 1510 2202.5 1501.5Q2222 1493 2236.5 1478.0Q2251 1463 2259.5 1443.5Q2268 1424 2268 1402Q2268 1380 2259.5 1360.5Q2251 1341 2236.5 1326.0Q2222 1311 2202.5 1302.5Q2183 1294 2161 1294H2125V1128Q2125 1114 2123.5 1101.0Q2122 1088 2116.5 1077.5Q2111 1067 2101.0 1060.5Q2091 1054 2074 1054H738Q721 1054 710.5 1060.5Q700 1067 695.0 1077.5Q690 1088 688.5 1101.0Q687 1114 687 1128V1150Q687 1180 698.5 1206.0Q710 1232 729.5 1251.5Q749 1271 775.0 1282.5Q801 1294 831 1294H1693Q1693 1341 1709.0 1381.0Q1725 1421 1753.5 1449.5Q1782 1478 1822.0 1494.0Q1862 1510 1909 1510ZM2161 1366Q2176 1366 2186.5 1376.5Q2197 1387 2197 1402Q2197 1417 2186.5 1427.5Q2176 1438 2161 1438H1945Q1930 1438 1919.5 1427.5Q1909 1417 1909 1402Q1909 1387 1919.5 1376.5Q1930 1366 1945 1366Z" style="fill:#ffb900;stroke:none" transform="scale(1,-1) translate(0,-256)" /></svg>