<?xml version="1.0" encoding="utf-8" ?>
<svg baseProfile="full" height="256" version="1.1" width="256" xmlns="http://www.w3.org/2000/svg" xmlns:ev="http://www.w3.org/2001/xml-events" xmlns:xlink="http://www.w3.org/1999/xlink"><defs /><path d="M2341 1226Q2372 1205 2398.0 1176.0Q2424 1147 2442.5 1113.5Q2461 1080 2471.5 1042.5Q2482 1005 2482 967Q2482 961 2482.5 954.5Q2483 948 2484 942L2556 223V216Q2556 142 2527.5 76.5Q2499 11 2450.5 -38.0Q2402 -87 2336.5 -115.5Q2271 -144 2197 -144H615Q541 -144 475.5 -115.5Q410 -87 361.5 -38.0Q313 11 284.5 76.5Q256 142 256 216V223L328 943Q330 965 332.5 986.0Q335 1007 340 1028Q351 1073 372.0 1113.0Q393 1153 423.0 1185.5Q453 1218 491.0 1242.0Q529 1266 574 1279Q592 1315 619.0 1344.5Q646 1374 680.0 1395.0Q714 1416 752.0 1427.0Q790 1438 831 1438H1575Q1595 1488 1630.0 1528.0Q1665 1568 1709.0 1595.5Q1753 1623 1804.5 1638.0Q1856 1653 1909 1653H2161Q2213 1653 2258.5 1633.0Q2304 1613 2338.0 1579.0Q2372 1545 2392.0 1499.5Q2412 1454 2412 1402Q2412 1353 2393.5 1307.0Q2375 1261 2341 1226Z" style="fill:#000000;stroke:none" transform="scale(1,-1) translate(0,-256)" /></svg>