<?xml version="1.0" encoding="utf-8" ?>
<svg baseProfile="full" height="256" version="1.1" width="256" xmlns="http://www.w3.org/2000/svg" xmlns:ev="http://www.w3.org/2001/xml-events" xmlns:xlink="http://www.w3.org/1999/xlink"><defs /><path d="M410 762H423Q492 762 561.5 749.5Q631 737 697 717Q832 678 950.0 603.5Q1068 529 1162.0 428.0Q1256 327 1323.0 203.5Q1390 80 1422 -56Q1433 -105 1440.5 -157.0Q1448 -209 1448 -260H1340Q1340 -188 1323.5 -110.5Q1307 -33 1282 34Q1237 154 1164.0 255.5Q1091 357 996.0 435.5Q901 514 787.5 567.0Q674 620 548 641Q516 646 483.5 650.0Q451 654 419 654H410ZM1472 1687Q1482 1536 1533.5 1399.0Q1585 1262 1672.0 1149.0Q1759 1036 1878.5 952.5Q1998 869 2144 825Q2197 809 2259.5 796.5Q2322 784 2379 784H2394V677H2387Q2318 677 2249.5 689.5Q2181 702 2115 721Q1981 760 1862.5 834.5Q1744 909 1649.0 1010.0Q1554 1111 1487.0 1234.0Q1420 1357 1390 1494Q1379 1541 1372.0 1590.0Q1365 1639 1364 1687Z" style="fill:#dfbe00;stroke:none" transform="scale(1,-1) translate(0,-256)" /></svg>