<?xml version="1.0" encoding="utf-8" ?>
<svg baseProfile="full" height="256" version="1.1" width="256" xmlns="http://www.w3.org/2000/svg" xmlns:ev="http://www.w3.org/2001/xml-events" xmlns:xlink="http://www.w3.org/1999/xlink"><defs /><path d="M949 309Q927 309 910.5 324.5Q894 340 894 363Q894 380 904.0 394.5Q914 409 931 414L1058 457L1101 584Q1106 601 1120.5 611.0Q1135 621 1152 621Q1175 621 1190.5 605.0Q1206 589 1206 566Q1206 555 1198.0 528.5Q1190 502 1179.5 471.0Q1169 440 1158.5 412.0Q1148 384 1144 371Q1132 367 1103.5 356.5Q1075 346 1044.0 335.5Q1013 325 986.0 317.0Q959 309 949 309ZM1660 817Q1638 817 1622.0 833.0Q1606 849 1606 871Q1606 881 1614.0 908.0Q1622 935 1632.5 966.0Q1643 997 1653.5 1025.5Q1664 1054 1668 1066Q1681 1070 1709.0 1080.5Q1737 1091 1767.5 1102.0Q1798 1113 1825.0 1121.0Q1852 1129 1863 1129Q1885 1129 1901.5 1113.5Q1918 1098 1918 1075Q1918 1057 1907.5 1043.5Q1897 1030 1880 1024L1753 981L1711 854Q1706 837 1691.5 827.0Q1677 817 1660 817ZM1462 1044Q1439 1044 1423.5 1060.5Q1408 1077 1408 1099Q1408 1114 1417 1128L1521 1285Q1569 1288 1616.5 1292.0Q1664 1296 1712 1296Q1735 1296 1750.0 1280.0Q1765 1264 1765 1241Q1765 1221 1750.0 1205.5Q1735 1190 1715 1188L1581 1180L1507 1068Q1491 1044 1462 1044ZM543 500Q521 500 505.0 516.5Q489 533 489 555Q489 574 503 590L592 690Q589 703 584.5 722.5Q580 742 575.5 762.5Q571 783 567.5 801.5Q564 820 564 832Q564 854 579.5 870.0Q595 886 618 886Q637 886 652.0 874.0Q667 862 671 843L708 659L584 518Q576 509 565.0 504.5Q554 500 543 500ZM1330 1314Q1308 1314 1292.0 1330.5Q1276 1347 1276 1369Q1276 1393 1294 1409L1435 1533L1619 1496Q1638 1492 1650.0 1477.0Q1662 1462 1662 1443Q1662 1420 1646.0 1404.5Q1630 1389 1608 1389Q1596 1389 1577.5 1392.5Q1559 1396 1538.5 1400.5Q1518 1405 1498.5 1409.5Q1479 1414 1466 1417L1366 1328Q1350 1314 1330 1314ZM1100 142Q1077 142 1062.0 158.0Q1047 174 1047 197Q1047 217 1062.0 232.5Q1077 248 1097 250L1231 258L1304 369Q1312 380 1324.0 387.0Q1336 394 1350 394Q1372 394 1387.5 378.0Q1403 362 1403 340Q1403 323 1394 310L1291 153Q1243 150 1195.5 146.0Q1148 142 1100 142ZM759 431Q736 431 720.5 447.0Q705 463 705 486Q705 514 729 530L840 604L848 738Q850 758 866.0 773.0Q882 788 902 788Q924 788 940.0 773.0Q956 758 956 735Q956 687 952.0 639.5Q948 592 945 544L788 440Q774 431 759 431ZM1377 -95 1193 -58Q1174 -54 1162.0 -39.0Q1150 -24 1150 -5Q1150 18 1166.0 33.5Q1182 49 1204 49Q1216 49 1234.5 45.5Q1253 42 1273.5 37.5Q1294 33 1313.5 28.5Q1333 24 1346 21L1446 110Q1462 124 1481 124Q1503 124 1519.5 108.0Q1536 92 1536 70Q1536 45 1517 29ZM2194 552Q2175 552 2160.0 564.5Q2145 577 2141 595L2104 779L2228 919Q2244 938 2269 938Q2291 938 2307.0 921.5Q2323 905 2323 883Q2323 864 2309 848L2220 748Q2223 735 2227.5 715.5Q2232 696 2236.5 675.5Q2241 655 2244.5 636.5Q2248 618 2248 606Q2248 583 2232.5 567.5Q2217 552 2194 552ZM1906 650Q1885 650 1870.5 666.5Q1856 683 1856 703Q1856 751 1860.0 798.5Q1864 846 1867 894L2024 998Q2037 1007 2053 1007Q2076 1007 2091.5 991.0Q2107 975 2107 952Q2107 924 2083 908L1971 834L1963 700Q1961 676 1945.0 663.0Q1929 650 1906 650ZM1560 1609Q1551 1609 1531.0 1617.5Q1511 1626 1488.5 1637.0Q1466 1648 1445.5 1659.0Q1425 1670 1416 1675Q1404 1669 1384.5 1658.5Q1365 1648 1344.0 1637.0Q1323 1626 1303.5 1618.0Q1284 1610 1273 1610Q1251 1610 1235.0 1625.5Q1219 1641 1219 1663Q1219 1682 1227.0 1691.0Q1235 1700 1247 1710L1252 1714Q1293 1719 1332.0 1722.0Q1371 1725 1412 1725Q1425 1725 1450.0 1724.0Q1475 1723 1502.5 1720.5Q1530 1718 1554.0 1715.0Q1578 1712 1589 1708Q1600 1703 1607.0 1689.0Q1614 1675 1614 1664Q1614 1641 1598.5 1625.0Q1583 1609 1560 1609ZM1560 -276Q1521 -283 1480.5 -285.0Q1440 -287 1400 -287Q1387 -287 1362.0 -286.0Q1337 -285 1309.5 -282.5Q1282 -280 1257.5 -277.0Q1233 -274 1223 -270Q1212 -265 1205.0 -251.0Q1198 -237 1198 -226Q1198 -204 1214.0 -188.0Q1230 -172 1252 -172Q1262 -172 1282.0 -180.0Q1302 -188 1323.5 -199.0Q1345 -210 1365.0 -221.0Q1385 -232 1396 -237Q1408 -231 1428.0 -220.5Q1448 -210 1469.0 -199.0Q1490 -188 1509.0 -180.0Q1528 -172 1539 -172Q1561 -172 1577.0 -187.5Q1593 -203 1593 -225Q1593 -244 1585.0 -253.0Q1577 -262 1565 -272ZM2409 636Q2397 659 2385.0 682.5Q2373 706 2362 729Q2374 752 2385.0 774.5Q2396 797 2407 820Q2411 797 2411.5 772.5Q2412 748 2412 725Q2412 679 2409 636ZM450 709Q438 686 427.0 663.5Q416 641 405 618Q401 641 400.5 665.5Q400 690 400 713Q400 758 403 802Q415 779 427.0 755.5Q439 732 450 709Z" style="fill:#e81224;stroke:none" transform="scale(1,-1) translate(0,-256)" /></svg>