<?xml version="1.0" encoding="utf-8" ?>
<svg baseProfile="full" height="256" version="1.1" width="256" xmlns="http://www.w3.org/2000/svg" xmlns:ev="http://www.w3.org/2001/xml-events" xmlns:xlink="http://www.w3.org/1999/xlink"><defs /><path d="M2407 820Q2407 800 2400.5 776.0Q2394 752 2394 728Q2394 704 2401.5 679.5Q2409 655 2409 636Q2409 611 2404.0 584.5Q2399 558 2394 533Q2394 531 2393.5 529.5Q2393 528 2393 526Q2364 377 2294.0 245.5Q2224 114 2117 7Q2003 -107 1861.0 -179.0Q1719 -251 1560 -276Q1540 -271 1519.0 -268.5Q1498 -266 1477 -266Q1457 -266 1436.5 -267.5Q1416 -269 1396 -269Q1370 -269 1345.0 -266.5Q1320 -264 1294 -264Q1276 -264 1258.0 -265.5Q1240 -267 1223 -271Q1113 -251 1012.5 -208.0Q912 -165 825.0 -103.5Q738 -42 665.5 37.0Q593 116 539.0 207.5Q485 299 450.5 403.0Q416 507 405 618Q413 641 415.5 659.5Q418 678 418 702Q418 754 403 802Q413 920 448.5 1029.5Q484 1139 542.0 1235.5Q600 1332 678.0 1413.5Q756 1495 849.5 1557.5Q943 1620 1050.5 1660.5Q1158 1701 1276 1717Q1291 1699 1318.0 1696.0Q1345 1693 1367 1693Q1397 1693 1427.5 1692.5Q1458 1692 1488 1692Q1513 1692 1539.5 1694.5Q1566 1697 1589 1708Q1741 1681 1874.5 1610.0Q2008 1539 2117 1430Q2222 1325 2291.0 1199.0Q2360 1073 2390 927Q2395 902 2401.0 874.0Q2407 846 2407 820Z" style="fill:#fff100;stroke:none" transform="scale(1,-1) translate(0,-256)" /></svg>