<?xml version="1.0" encoding="utf-8" ?>
<svg baseProfile="full" height="256" version="1.1" width="256" xmlns="http://www.w3.org/2000/svg" xmlns:ev="http://www.w3.org/2001/xml-events" xmlns:xlink="http://www.w3.org/1999/xlink"><defs /><path d="M1965 1278Q1950 1278 1937.5 1284.0Q1925 1290 1914 1299Q1891 1316 1871.0 1335.5Q1851 1355 1828 1372Q1737 1439 1627.5 1474.0Q1518 1509 1406 1509Q1294 1509 1184.5 1474.0Q1075 1439 984 1372Q961 1355 940.5 1336.0Q920 1317 898 1299Q884 1288 875.0 1283.0Q866 1278 847 1278Q817 1278 796.0 1299.0Q775 1320 775 1350Q775 1367 784.5 1383.0Q794 1399 808.0 1414.0Q822 1429 839.0 1442.5Q856 1456 870 1467L881 1476Q1114 1653 1406 1653Q1698 1653 1931 1476L1942 1467Q1956 1456 1972.5 1442.5Q1989 1429 2003.5 1414.0Q2018 1399 2027.5 1383.0Q2037 1367 2037 1350Q2037 1320 2016.0 1299.0Q1995 1278 1965 1278Z" style="fill:#757575;stroke:none" transform="scale(1,-1) translate(0,-256)" /></svg>