<?xml version="1.0" encoding="utf-8" ?>
<svg baseProfile="full" height="256" version="1.1" width="256" xmlns="http://www.w3.org/2000/svg" xmlns:ev="http://www.w3.org/2001/xml-events" xmlns:xlink="http://www.w3.org/1999/xlink"><defs /><path d="M2125 503Q2155 503 2181.0 492.0Q2207 481 2226.5 461.5Q2246 442 2257.0 416.0Q2268 390 2268 360V-72Q2268 -102 2257.0 -128.0Q2246 -154 2226.5 -173.5Q2207 -193 2181.0 -204.0Q2155 -215 2125 -215L2044 -72V431ZM687 503 745 431V-72L687 -215Q657 -215 631.0 -204.0Q605 -193 585.5 -173.5Q566 -154 554.5 -128.0Q543 -102 543 -72V360Q543 390 554.5 416.0Q566 442 585.5 461.5Q605 481 631.0 492.0Q657 503 687 503Z" style="fill:#f2f2f2;stroke:none" transform="scale(1,-1) translate(0,-256)" /></svg>