<?xml version="1.0" encoding="utf-8" ?>
<svg baseProfile="full" height="256" version="1.1" width="256" xmlns="http://www.w3.org/2000/svg" xmlns:ev="http://www.w3.org/2001/xml-events" xmlns:xlink="http://www.w3.org/1999/xlink"><defs /><path d="M975 503V-215Q975 -245 954.0 -266.0Q933 -287 903 -287H759Q729 -287 708.0 -266.0Q687 -245 687 -215V503Q687 533 708.0 554.0Q729 575 759 575H903Q933 575 954.0 554.0Q975 533 975 503ZM2125 -215Q2125 -245 2104.0 -266.0Q2083 -287 2053 -287H1909Q1879 -287 1858.0 -266.0Q1837 -245 1837 -215V503Q1837 533 1858.0 554.0Q1879 575 1909 575H2053Q2083 575 2104.0 554.0Q2125 533 2125 503Z" style="fill:#757575;stroke:none" transform="scale(1,-1) translate(0,-256)" /></svg>