<?xml version="1.0" encoding="utf-8" ?>
<svg baseProfile="full" height="256" version="1.1" width="256" xmlns="http://www.w3.org/2000/svg" xmlns:ev="http://www.w3.org/2001/xml-events" xmlns:xlink="http://www.w3.org/1999/xlink"><defs /><path d="M2340 340Q2345 337 2346.0 332.5Q2347 328 2347 323Q2347 307 2338.5 280.5Q2330 254 2317.0 222.5Q2304 191 2287.0 157.0Q2270 123 2254.0 91.5Q2238 60 2223.5 33.5Q2209 7 2200 -9L2176 87Q2183 138 2190.0 187.5Q2197 237 2197 288V791Q2197 900 2168.5 1001.0Q2140 1102 2088.5 1189.5Q2037 1277 1965.0 1349.5Q1893 1422 1805.0 1473.5Q1717 1525 1616.0 1553.0Q1515 1581 1406 1581Q1297 1581 1196.0 1553.0Q1095 1525 1007.0 1473.5Q919 1422 847.0 1349.5Q775 1277 723.5 1189.5Q672 1102 643.5 1001.0Q615 900 615 791V288Q615 212 618.5 136.5Q622 61 625 -15Q615 0 599.5 26.5Q584 53 566.5 85.5Q549 118 531.0 153.0Q513 188 498.5 221.0Q484 254 475.0 281.0Q466 308 466 324Q466 335 472 340V791Q472 920 505.5 1039.5Q539 1159 599.5 1262.5Q660 1366 745.5 1451.5Q831 1537 934.5 1597.5Q1038 1658 1157.5 1691.5Q1277 1725 1406 1725Q1535 1725 1654.5 1691.5Q1774 1658 1877.5 1597.5Q1981 1537 2066.5 1451.5Q2152 1366 2212.5 1262.5Q2273 1159 2306.5 1039.5Q2340 920 2340 791Z" style="fill:#cccccc;stroke:none" transform="scale(1,-1) translate(0,-256)" /></svg>