<?xml version="1.0" encoding="utf-8" ?>
<svg baseProfile="full" height="256" version="1.1" width="256" xmlns="http://www.w3.org/2000/svg" xmlns:ev="http://www.w3.org/2001/xml-events" xmlns:xlink="http://www.w3.org/1999/xlink"><defs /><path d="M1693 -215V503Q1693 548 1710.0 587.0Q1727 626 1756.5 655.5Q1786 685 1825.0 702.0Q1864 719 1909 719H2053V791Q2053 882 2027.5 969.5Q2002 1057 1954 1135Q1931 1136 1912.5 1140.5Q1894 1145 1877.5 1153.0Q1861 1161 1845.5 1172.0Q1830 1183 1813 1197Q1765 1238 1719.5 1269.5Q1674 1301 1626.0 1322.0Q1578 1343 1524.5 1354.0Q1471 1365 1406 1365Q1341 1365 1287.5 1354.0Q1234 1343 1186.0 1322.0Q1138 1301 1092.5 1269.5Q1047 1238 999 1197Q965 1168 934.5 1152.5Q904 1137 858 1135Q826 1083 806.5 1034.0Q787 985 776.5 935.0Q766 885 762.5 832.0Q759 779 759 719H903Q948 719 987.0 702.0Q1026 685 1055.0 655.5Q1084 626 1101.0 587.0Q1118 548 1118 503V-215Q1118 -260 1101.0 -299.0Q1084 -338 1055.0 -367.5Q1026 -397 987.0 -414.0Q948 -431 903 -431H759Q706 -431 659.5 -407.0Q613 -383 583 -340Q531 -319 489.5 -280.0Q448 -241 425 -190Q386 -173 355.0 -146.0Q324 -119 302.0 -84.5Q280 -50 268.0 -10.0Q256 30 256 72V216Q256 268 274.5 317.5Q293 367 328 405V791Q328 939 366.5 1077.0Q405 1215 475.5 1334.5Q546 1454 644.5 1552.5Q743 1651 862.5 1721.5Q982 1792 1120.0 1830.5Q1258 1869 1406 1869Q1554 1869 1692.0 1830.5Q1830 1792 1949.5 1721.5Q2069 1651 2167.5 1552.5Q2266 1454 2336.5 1334.5Q2407 1215 2445.5 1077.0Q2484 939 2484 791V405Q2530 352 2543.5 294.0Q2557 236 2557 168Q2557 144 2556.5 120.0Q2556 96 2556 72Q2556 31 2544.0 -9.0Q2532 -49 2509.5 -83.5Q2487 -118 2456.0 -145.5Q2425 -173 2387 -190Q2364 -241 2322.5 -280.0Q2281 -319 2229 -340Q2208 -369 2183.5 -387.5Q2159 -406 2131.0 -416.0Q2103 -426 2072.0 -429.5Q2041 -433 2007 -433Q1982 -433 1958.0 -432.0Q1934 -431 1909 -431Q1864 -431 1825.0 -414.0Q1786 -397 1756.5 -367.5Q1727 -338 1710.0 -299.0Q1693 -260 1693 -215Z" style="fill:#000000;stroke:none" transform="scale(1,-1) translate(0,-256)" /></svg>