<?xml version="1.0" encoding="utf-8" ?>
<svg baseProfile="full" height="256" version="1.1" width="256" xmlns="http://www.w3.org/2000/svg" xmlns:ev="http://www.w3.org/2001/xml-events" xmlns:xlink="http://www.w3.org/1999/xlink"><defs /><path d="M2268 360Q2298 360 2324.0 348.5Q2350 337 2369.5 317.5Q2389 298 2400.5 272.0Q2412 246 2412 216V72Q2412 42 2400.5 16.0Q2389 -10 2369.5 -29.5Q2350 -49 2324.0 -60.5Q2298 -72 2268 -72L2207 72V288ZM543 360 593 288V72Q593 71 586.0 51.0Q579 31 570.0 5.5Q561 -20 553.0 -43.0Q545 -66 543 -72Q513 -72 487.0 -60.5Q461 -49 441.5 -29.5Q422 -10 411.0 16.0Q400 42 400 72V216Q400 246 411.0 272.0Q422 298 441.5 317.5Q461 337 487.0 348.5Q513 360 543 360Z" style="fill:#a6a6a6;stroke:none" transform="scale(1,-1) translate(0,-256)" /></svg>