<?xml version="1.0" encoding="utf-8" ?>
<svg baseProfile="full" height="256" version="1.1" width="256" xmlns="http://www.w3.org/2000/svg" xmlns:ev="http://www.w3.org/2001/xml-events" xmlns:xlink="http://www.w3.org/1999/xlink"><defs /><path d="M1190 575V1438H1262V575ZM1047 575V1438H1118V575ZM903 1114V1438H975V1114Q975 1099 964.5 1088.5Q954 1078 939 1078Q924 1078 913.5 1088.5Q903 1099 903 1114ZM939 1725Q954 1725 964.5 1714.5Q975 1704 975 1689V1510H903V1689Q903 1704 913.5 1714.5Q924 1725 939 1725ZM1226 1725Q1241 1725 1251.5 1714.5Q1262 1704 1262 1689V1510H1190V1689Q1190 1704 1200.5 1714.5Q1211 1725 1226 1725ZM1083 1725Q1097 1725 1107.5 1714.0Q1118 1703 1118 1689V1510H1047V1689Q1047 1704 1057.5 1714.5Q1068 1725 1083 1725Z" style="fill:#ffd679;stroke:none" transform="scale(1,-1) translate(0,-256)" /></svg>