<?xml version="1.0" encoding="utf-8" ?>
<svg baseProfile="full" height="256" version="1.1" width="256" xmlns="http://www.w3.org/2000/svg" xmlns:ev="http://www.w3.org/2001/xml-events" xmlns:xlink="http://www.w3.org/1999/xlink"><defs /><path d="M2556 1294H1406V791H2340Q2385 791 2424.0 774.0Q2463 757 2492.5 727.5Q2522 698 2539.0 659.0Q2556 620 2556 575V360Q2556 251 2527.5 150.0Q2499 49 2447.5 -39.0Q2396 -127 2324.0 -199.0Q2252 -271 2164.0 -322.5Q2076 -374 1975.0 -402.5Q1874 -431 1765 -431H1047Q938 -431 837.0 -402.5Q736 -374 648.0 -322.5Q560 -271 488.0 -199.0Q416 -127 364.5 -39.0Q313 49 284.5 150.0Q256 251 256 360V575Q256 620 273.0 659.0Q290 698 319.5 727.5Q349 757 388.0 774.0Q427 791 472 791H903V938Q872 944 845.5 960.5Q819 977 800.0 1000.5Q781 1024 770.0 1053.0Q759 1082 759 1114V1294H615V1797H795Q821 1831 858.5 1850.0Q896 1869 939 1869H1226Q1269 1869 1306.5 1850.0Q1344 1831 1370 1797H2556Z" style="fill:#000000;stroke:none" transform="scale(1,-1) translate(0,-256)" /></svg>