<?xml version="1.0" encoding="utf-8" ?>
<svg baseProfile="full" height="256" version="1.1" width="256" xmlns="http://www.w3.org/2000/svg" xmlns:ev="http://www.w3.org/2001/xml-events" xmlns:xlink="http://www.w3.org/1999/xlink"><defs /><path d="M400 503H2412V431H400ZM1406 360Q1435 360 1456.5 338.5Q1478 317 1478 288Q1478 258 1457.0 237.0Q1436 216 1406 216Q1376 216 1355.0 237.0Q1334 258 1334 288Q1334 317 1355.5 338.5Q1377 360 1406 360ZM831 360Q860 360 881.5 338.5Q903 317 903 288Q903 258 882.0 237.0Q861 216 831 216Q801 216 780.0 237.0Q759 258 759 288Q759 317 780.5 338.5Q802 360 831 360ZM1981 360Q2010 360 2031.5 338.5Q2053 317 2053 288Q2053 258 2032.0 237.0Q2011 216 1981 216Q1951 216 1930.0 237.0Q1909 258 1909 288Q1909 317 1930.5 338.5Q1952 360 1981 360ZM543 360Q572 360 593.5 338.5Q615 317 615 288Q615 258 594.0 237.0Q573 216 543 216Q514 216 493.0 237.5Q472 259 472 288Q472 317 493.0 338.5Q514 360 543 360ZM2268 360Q2297 360 2318.5 338.5Q2340 317 2340 288Q2340 258 2319.0 237.0Q2298 216 2268 216Q2239 216 2218.0 237.5Q2197 259 2197 288Q2197 317 2218.0 338.5Q2239 360 2268 360ZM1118 360Q1147 360 1168.5 338.5Q1190 317 1190 288Q1190 258 1169.0 237.0Q1148 216 1118 216Q1089 216 1068.0 237.5Q1047 259 1047 288Q1047 317 1068.0 338.5Q1089 360 1118 360ZM1693 360Q1722 360 1743.5 338.5Q1765 317 1765 288Q1765 258 1744.0 237.0Q1723 216 1693 216Q1664 216 1643.0 237.5Q1622 259 1622 288Q1622 317 1643.0 338.5Q1664 360 1693 360Z" style="fill:#e81224;stroke:none" transform="scale(1,-1) translate(0,-256)" /></svg>