<?xml version="1.0" encoding="utf-8" ?>
<svg baseProfile="full" height="256" version="1.1" width="256" xmlns="http://www.w3.org/2000/svg" xmlns:ev="http://www.w3.org/2001/xml-events" xmlns:xlink="http://www.w3.org/1999/xlink"><defs /><path d="M2412 1438H1262Q1253 1438 1244.0 1436.0Q1235 1434 1226 1434Q1217 1434 1208.0 1436.0Q1199 1438 1190 1438H1118Q1099 1431 1082 1431Q1066 1431 1047 1438H975Q966 1438 957.0 1434.5Q948 1431 939 1431Q930 1431 921.0 1434.5Q912 1438 903 1438H759V1510H903Q912 1510 921.0 1513.5Q930 1517 939 1517Q948 1517 957.0 1513.5Q966 1510 975 1510H1047Q1062 1517 1082 1517Q1099 1517 1118 1510H1190Q1199 1510 1208.0 1513.5Q1217 1517 1226 1517Q1235 1517 1244.0 1513.5Q1253 1510 1262 1510H2412ZM2412 1581H759V1653H2412Z" style="fill:#bb9167;stroke:none" transform="scale(1,-1) translate(0,-256)" /></svg>