<?xml version="1.0" encoding="utf-8" ?>
<svg baseProfile="full" height="256" version="1.1" width="256" xmlns="http://www.w3.org/2000/svg" xmlns:ev="http://www.w3.org/2001/xml-events" xmlns:xlink="http://www.w3.org/1999/xlink"><defs /><path d="M2340 647Q2364 647 2378.5 638.0Q2393 629 2400.5 615.0Q2408 601 2410.5 582.0Q2413 563 2413 544V503Q2404 485 2404 466Q2404 449 2412 431V360Q2412 270 2389.0 187.5Q2366 105 2324.0 33.0Q2282 -39 2223.0 -98.0Q2164 -157 2092.0 -199.0Q2020 -241 1937.0 -264.0Q1854 -287 1765 -287H1047Q957 -287 874.5 -264.0Q792 -241 720.0 -199.0Q648 -157 589.0 -98.0Q530 -39 488.0 33.0Q446 105 423.0 188.0Q400 271 400 360V431Q407 450 407 467Q407 477 404.0 485.5Q401 494 400 503Q399 513 399.0 523.5Q399 534 399 544Q399 563 401.5 582.0Q404 601 411.5 615.0Q419 629 433.5 638.0Q448 647 472 647Z" style="fill:#ffffff;stroke:none" transform="scale(1,-1) translate(0,-256)" /></svg>