<?xml version="1.0" encoding="utf-8" ?>
<svg baseProfile="full" height="256" version="1.1" width="256" xmlns="http://www.w3.org/2000/svg" xmlns:ev="http://www.w3.org/2001/xml-events" xmlns:xlink="http://www.w3.org/1999/xlink"><defs /><path d="M2269 1725Q2299 1725 2325.0 1714.0Q2351 1703 2370.5 1683.5Q2390 1664 2401.0 1638.0Q2412 1612 2412 1582Q2412 1561 2406.0 1540.0Q2400 1519 2388 1502L1861 720Q1844 695 1819.0 677.5Q1794 660 1765 652Q1765 620 1755.0 596.0Q1745 572 1729.0 552.0Q1713 532 1692.5 513.5Q1672 495 1651 474Q1608 431 1550 431Q1544 431 1538.5 431.5Q1533 432 1527 433L1381 288Q1370 277 1359.0 267.0Q1348 257 1334 249V0Q1334 -30 1345.5 -56.0Q1357 -82 1376.5 -101.5Q1396 -121 1422.0 -132.5Q1448 -144 1478 -144H1622Q1651 -144 1672.5 -165.0Q1694 -186 1694 -215Q1694 -244 1672.5 -265.5Q1651 -287 1622 -287H1478Q1418 -287 1365.5 -264.5Q1313 -242 1274.0 -203.0Q1235 -164 1212.5 -112.0Q1190 -60 1190 0V204Q1187 204 1184.0 203.5Q1181 203 1178 203Q1176 203 1175.0 203.5Q1174 204 1172 204L702 -266Q681 -287 651 -287Q637 -287 624.0 -281.5Q611 -276 601.0 -266.0Q591 -256 585.0 -243.5Q579 -231 579 -216Q579 -201 585.0 -188.5Q591 -176 601 -165L975 210Q991 226 991 249Q991 272 975.0 288.0Q959 304 936 304Q913 304 897 288L522 -87Q501 -108 471 -108Q442 -108 421.0 -86.5Q400 -65 400 -36Q400 -6 421 15L891 485V503H687Q627 503 575.0 525.5Q523 548 484.0 587.0Q445 626 422.5 678.5Q400 731 400 791V935Q400 964 421.5 985.0Q443 1006 472 1006Q501 1006 522.5 985.0Q544 964 544 935V791Q544 761 555.0 735.0Q566 709 585.5 689.5Q605 670 631.0 658.5Q657 647 687 647H937Q945 661 954.5 672.0Q964 683 975 694L1120 840Q1119 846 1118.5 852.0Q1118 858 1118 863Q1118 891 1128.5 914.5Q1139 938 1155.5 958.0Q1172 978 1192.5 997.0Q1213 1016 1233 1036Q1275 1078 1332 1078H1339Q1347 1107 1364.5 1132.0Q1382 1157 1407 1174L2189 1701Q2206 1713 2227.0 1719.0Q2248 1725 2269 1725ZM1406 1653V1438Q1406 1408 1385.0 1387.0Q1364 1366 1334 1366H1152L1315 1529Q1336 1550 1336 1579Q1336 1609 1314.5 1630.5Q1293 1652 1264 1652Q1235 1652 1213 1630L1047 1464V1653Q1047 1683 1068.0 1704.0Q1089 1725 1119 1725H1334Q1364 1725 1385.0 1704.0Q1406 1683 1406 1653ZM2412 647V431Q2412 402 2390.5 381.0Q2369 360 2340 360H2151L2318 526Q2339 547 2339 577Q2339 607 2317.5 628.0Q2296 649 2267 649Q2237 649 2216 628L2053 465V647Q2053 677 2074.0 698.0Q2095 719 2125 719H2340Q2370 719 2391.0 698.0Q2412 677 2412 647ZM2053 1294Q2083 1294 2104.0 1315.0Q2125 1336 2125 1366Q2125 1396 2104.0 1417.0Q2083 1438 2053 1438Q2023 1438 2002.0 1417.0Q1981 1396 1981 1366Q1981 1336 2002.0 1315.0Q2023 1294 2053 1294ZM1837 1150Q1867 1150 1888.0 1171.5Q1909 1193 1909 1222Q1909 1251 1888.0 1272.5Q1867 1294 1837 1294Q1808 1294 1786.5 1273.0Q1765 1252 1765 1222Q1765 1192 1786.5 1171.0Q1808 1150 1837 1150ZM1837 863Q1867 863 1888.0 884.0Q1909 905 1909 934Q1909 964 1888.0 985.0Q1867 1006 1837 1006Q1808 1006 1786.5 985.0Q1765 964 1765 934Q1765 905 1786.5 884.0Q1808 863 1837 863Z" style="fill:#f4abba;stroke:none" transform="scale(1,-1) translate(0,-256)" /></svg>