<?xml version="1.0" encoding="utf-8" ?>
<svg baseProfile="full" height="256" version="1.1" width="256" xmlns="http://www.w3.org/2000/svg" xmlns:ev="http://www.w3.org/2001/xml-events" xmlns:xlink="http://www.w3.org/1999/xlink"><defs /><path d="M939 -216Q939 -175 975 -153Q987 -145 1000.0 -138.0Q1013 -131 1024 -121Q1047 -100 1064.5 -73.0Q1082 -46 1094.0 -16.0Q1106 14 1112.0 46.0Q1118 78 1118 108Q1118 175 1092.5 234.0Q1067 293 1023.5 336.5Q980 380 921.0 405.5Q862 431 795 431Q765 431 733.0 424.5Q701 418 671.0 406.0Q641 394 614.0 376.5Q587 359 566 337Q556 326 549.0 313.0Q542 300 534 288Q512 252 471 252Q441 252 420.5 273.0Q400 294 400 324Q400 337 407.0 353.0Q414 369 424.0 385.0Q434 401 445.0 415.0Q456 429 465 438Q530 504 616.5 539.5Q703 575 795 575Q891 575 976.0 538.0Q1061 501 1124.5 437.5Q1188 374 1225.0 289.0Q1262 204 1262 108Q1262 16 1226.5 -70.5Q1191 -157 1125 -222Q1116 -231 1102.0 -242.0Q1088 -253 1072.0 -263.0Q1056 -273 1040.0 -280.0Q1024 -287 1011 -287Q981 -287 960.0 -266.5Q939 -246 939 -216ZM1011 647Q944 647 885.0 672.5Q826 698 782.0 742.0Q738 786 712.5 844.5Q687 903 687 970Q687 1035 712.0 1094.5Q737 1154 782 1199L1047 1464Q1057 1494 1074.5 1535.0Q1092 1576 1116.5 1613.5Q1141 1651 1172.0 1677.5Q1203 1704 1240 1704Q1264 1704 1290.5 1689.5Q1317 1675 1339.0 1653.5Q1361 1632 1375.0 1605.5Q1389 1579 1389 1555Q1389 1518 1362.5 1487.5Q1336 1457 1299.0 1433.5Q1262 1410 1221.0 1393.0Q1180 1376 1152 1366L884 1098Q858 1072 844.5 1039.0Q831 1006 831 970Q831 932 845.0 900.0Q859 868 883.5 844.0Q908 820 940.5 806.5Q973 793 1011 793Q1050 793 1075.5 804.0Q1101 815 1119.5 828.5Q1138 842 1153.0 853.5Q1168 865 1188 865Q1217 865 1239.0 843.0Q1261 821 1261 792Q1261 764 1239 742Q1195 696 1134.5 671.5Q1074 647 1011 647ZM1334 324Q1334 386 1358.5 447.5Q1383 509 1429 552Q1452 573 1480 573Q1509 573 1530.5 552.0Q1552 531 1552 501Q1552 481 1540.5 465.5Q1529 450 1515.5 431.5Q1502 413 1491.0 388.0Q1480 363 1480 324Q1480 286 1493.5 253.5Q1507 221 1531.0 196.5Q1555 172 1587.5 158.0Q1620 144 1658 144Q1694 144 1726.5 157.5Q1759 171 1785 197L2053 465Q2063 494 2082.5 532.0Q2102 570 2129.0 604.5Q2156 639 2188.0 662.5Q2220 686 2255 686Q2276 686 2298.0 675.5Q2320 665 2337.0 647.5Q2354 630 2365.0 608.5Q2376 587 2376 566Q2376 531 2352.0 499.0Q2328 467 2293.5 440.5Q2259 414 2221.0 394.0Q2183 374 2155 363L1886 95Q1840 50 1781.0 25.0Q1722 0 1657 0Q1590 0 1531.5 25.5Q1473 51 1429.0 95.0Q1385 139 1359.5 198.0Q1334 257 1334 324ZM1957 863 1765 758Q1745 758 1721.0 771.0Q1697 784 1673.0 805.0Q1649 826 1627.0 853.0Q1605 880 1588.0 907.5Q1571 935 1560.5 960.5Q1550 986 1550 1006V1581Q1550 1611 1561.0 1637.0Q1572 1663 1591.5 1682.5Q1611 1702 1637.5 1713.5Q1664 1725 1694 1725H2269Q2299 1725 2325.0 1713.5Q2351 1702 2370.5 1682.5Q2390 1663 2401.0 1637.0Q2412 1611 2412 1581V1006Q2412 976 2401.0 950.0Q2390 924 2370.5 904.5Q2351 885 2325.0 874.0Q2299 863 2269 863Z" style="fill:#e6808a;stroke:none" transform="scale(1,-1) translate(0,-256)" /></svg>