<?xml version="1.0" encoding="utf-8" ?>
<svg baseProfile="full" height="256" version="1.1" width="256" xmlns="http://www.w3.org/2000/svg" xmlns:ev="http://www.w3.org/2001/xml-events" xmlns:xlink="http://www.w3.org/1999/xlink"><defs /><path d="M1478 -431Q1406 -431 1337.0 -407.5Q1268 -384 1211 -339Q1191 -357 1167.5 -373.5Q1144 -390 1118.5 -402.5Q1093 -415 1066.0 -423.0Q1039 -431 1011 -431Q958 -431 911.0 -406.5Q864 -382 834 -338Q813 -359 793.5 -376.0Q774 -393 753.0 -405.5Q732 -418 707.0 -424.5Q682 -431 651 -431Q611 -431 575.0 -417.0Q539 -403 510.5 -379.0Q482 -355 463.0 -321.5Q444 -288 438 -249Q399 -243 365.5 -224.0Q332 -205 308.0 -176.5Q284 -148 270.0 -112.0Q256 -76 256 -36Q256 -5 262.5 19.5Q269 44 281.0 65.5Q293 87 310.5 106.5Q328 126 349 146Q306 176 281.0 223.5Q256 271 256 324Q256 352 264.0 379.0Q272 406 284.5 431.5Q297 457 313.5 480.5Q330 504 348 524Q316 564 298.0 602.5Q280 641 270.0 680.0Q260 719 257.5 759.0Q255 799 255 843Q255 865 255.5 888.0Q256 911 256 935Q256 979 273.0 1018.0Q290 1057 319.5 1086.5Q349 1116 388.5 1133.0Q428 1150 472 1150Q525 1150 570 1126Q587 1175 615.0 1219.5Q643 1264 680 1301L903 1523V1653Q903 1698 920.0 1737.0Q937 1776 966.5 1805.5Q996 1835 1035.0 1852.0Q1074 1869 1119 1869H1334Q1382 1869 1425.0 1848.5Q1468 1828 1499 1793Q1539 1830 1589.5 1849.5Q1640 1869 1694 1869H2269Q2329 1869 2381.0 1846.5Q2433 1824 2472.0 1785.0Q2511 1746 2533.5 1693.5Q2556 1641 2556 1581V1006Q2556 952 2536.0 902.0Q2516 852 2480 812Q2515 781 2535.5 738.0Q2556 695 2556 647V431Q2556 387 2539.0 347.5Q2522 308 2492.5 279.0Q2463 250 2423.5 233.0Q2384 216 2340 216H2210L1988 -7Q1951 -44 1906.5 -72.0Q1862 -100 1813 -117Q1837 -162 1837 -215Q1837 -260 1820.0 -299.0Q1803 -338 1774.0 -367.5Q1745 -397 1706.0 -414.0Q1667 -431 1622 -431Z" style="fill:#000000;stroke:none" transform="scale(1,-1) translate(0,-256)" /></svg>