<?xml version="1.0" encoding="utf-8" ?>
<svg baseProfile="full" height="256" version="1.1" width="256" xmlns="http://www.w3.org/2000/svg" xmlns:ev="http://www.w3.org/2001/xml-events" xmlns:xlink="http://www.w3.org/1999/xlink"><defs /><path d="M1694 647Q1694 618 1672 596L1601 524Q1580 503 1550 503Q1520 503 1499.0 524.0Q1478 545 1478 575Q1478 605 1499 626L1571 698Q1592 719 1621 719Q1651 719 1672.5 697.5Q1694 676 1694 647ZM1334 1006Q1363 1006 1384.5 985.0Q1406 964 1406 934Q1406 905 1385 884L1313 812Q1292 791 1262 791Q1233 791 1211.5 812.0Q1190 833 1190 863Q1190 877 1195.5 890.5Q1201 904 1211 914L1283 985Q1306 1006 1334 1006Z" style="fill:#000000;stroke:none" transform="scale(1,-1) translate(0,-256)" /></svg>