<?xml version="1.0" encoding="utf-8" ?>
<svg baseProfile="full" height="256" version="1.1" width="256" xmlns="http://www.w3.org/2000/svg" xmlns:ev="http://www.w3.org/2001/xml-events" xmlns:xlink="http://www.w3.org/1999/xlink"><defs /><path d="M1765 1201V309Q1851 285 1931.5 250.0Q2012 215 2089 170L2017 46Q1877 127 1722.5 171.0Q1568 215 1406 215Q1244 215 1089.5 171.0Q935 127 795 46L723 170Q800 215 880.5 250.0Q961 285 1047 309V1201Q961 1225 880.5 1260.0Q800 1295 723 1340L795 1464Q935 1383 1089.0 1338.5Q1243 1294 1406 1294Q1569 1294 1723.0 1338.5Q1877 1383 2017 1464L2089 1340Q2012 1295 1931.5 1260.0Q1851 1225 1765 1201ZM1190 342Q1296 360 1406 360Q1515 360 1622 342V1168Q1515 1150 1406 1150Q1296 1150 1190 1168Z" style="fill:#ffffff;stroke:none" transform="scale(1,-1) translate(0,-256)" /></svg>