<?xml version="1.0" encoding="utf-8" ?>
<svg baseProfile="full" height="256" version="1.1" width="256" xmlns="http://www.w3.org/2000/svg" xmlns:ev="http://www.w3.org/2001/xml-events" xmlns:xlink="http://www.w3.org/1999/xlink"><defs /><path d="M1334 -431Q1217 -431 1107.5 -403.0Q998 -375 900.0 -323.5Q802 -272 718.5 -199.0Q635 -126 571.0 -36.0Q507 54 465.0 159.0Q423 264 408 380Q374 395 346.0 419.0Q318 443 298.0 473.0Q278 503 267.0 538.0Q256 573 256 611V827Q256 900 295.0 961.5Q334 1023 400 1054V1241Q400 1246 401.5 1250.5Q403 1255 405 1260Q422 1311 442.5 1359.5Q463 1408 490 1456Q546 1553 622.0 1629.5Q698 1706 789.5 1759.0Q881 1812 985.0 1840.5Q1089 1869 1202 1869H2340V1725Q2340 1628 2311.5 1535.0Q2283 1442 2228 1362Q2231 1354 2238.0 1336.5Q2245 1319 2251.5 1300.5Q2258 1282 2263.0 1265.0Q2268 1248 2268 1241V1054Q2334 1023 2373.0 961.5Q2412 900 2412 827V611Q2412 535 2370.5 473.0Q2329 411 2260 380Q2245 264 2203.0 159.0Q2161 54 2097.0 -36.5Q2033 -127 1949.5 -199.5Q1866 -272 1768.0 -323.5Q1670 -375 1560.5 -403.0Q1451 -431 1334 -431Z" style="fill:#000000;stroke:none" transform="scale(1,-1) translate(0,-256)" /></svg>