<?xml version="1.0" encoding="utf-8" ?>
<svg baseProfile="full" height="256" version="1.1" width="256" xmlns="http://www.w3.org/2000/svg" xmlns:ev="http://www.w3.org/2001/xml-events" xmlns:xlink="http://www.w3.org/1999/xlink"><defs /><path d="M2197 1725Q2197 1629 2161.0 1539.5Q2125 1450 2059 1380Q2065 1369 2076.0 1347.0Q2087 1325 2098.0 1300.5Q2109 1276 2117.0 1254.0Q2125 1232 2125 1222V863H1981V1313Q1918 1268 1844.5 1245.0Q1771 1222 1693 1222H1334L1550 1006Q1385 1006 1239.0 1063.0Q1093 1120 966 1222H687V863H543V1222Q543 1232 550.0 1251.5Q557 1271 566.5 1293.0Q576 1315 585.5 1334.5Q595 1354 600 1364Q646 1448 710.0 1514.5Q774 1581 851.0 1628.0Q928 1675 1017.0 1700.0Q1106 1725 1202 1725Z" style="fill:#fce100;stroke:none" transform="scale(1,-1) translate(0,-256)" /></svg>