<?xml version="1.0" encoding="utf-8" ?>
<svg baseProfile="full" height="256" version="1.1" width="256" xmlns="http://www.w3.org/2000/svg" xmlns:ev="http://www.w3.org/2001/xml-events" xmlns:xlink="http://www.w3.org/1999/xlink"><defs /><path d="M648 1385Q648 1359 638.5 1336.5Q629 1314 612.0 1297.0Q595 1280 572.5 1270.5Q550 1261 524 1261Q498 1261 475.5 1270.5Q453 1280 436.0 1297.0Q419 1314 409.5 1336.5Q400 1359 400 1385Q400 1410 409.5 1433.0Q419 1456 436.0 1473.0Q453 1490 475.5 1500.0Q498 1510 524 1510Q550 1510 572.5 1500.0Q595 1490 612.0 1473.0Q629 1456 638.5 1433.0Q648 1410 648 1385ZM740 1476Q714 1476 691.5 1486.0Q669 1496 652.0 1513.0Q635 1530 625.0 1552.5Q615 1575 615 1601Q615 1627 625.0 1649.5Q635 1672 652.0 1689.0Q669 1706 691.5 1715.5Q714 1725 740 1725Q765 1725 788.0 1715.0Q811 1705 827.5 1688.5Q844 1672 854.0 1649.0Q864 1626 864 1601Q864 1575 854.5 1552.5Q845 1530 828.0 1513.0Q811 1496 788.5 1486.0Q766 1476 740 1476ZM1315 1261Q1289 1261 1266.5 1270.5Q1244 1280 1227.0 1297.0Q1210 1314 1200.0 1336.5Q1190 1359 1190 1385Q1190 1410 1200.0 1433.0Q1210 1456 1227.0 1473.0Q1244 1490 1266.5 1500.0Q1289 1510 1315 1510Q1341 1510 1363.5 1500.0Q1386 1490 1403.0 1473.0Q1420 1456 1429.5 1433.0Q1439 1410 1439 1385Q1439 1359 1429.0 1336.5Q1419 1314 1402.5 1297.5Q1386 1281 1363.0 1271.0Q1340 1261 1315 1261ZM1066 1476Q1040 1476 1017.5 1486.0Q995 1496 978.0 1513.0Q961 1530 951.0 1552.5Q941 1575 941 1601Q941 1627 951.0 1649.5Q961 1672 978.0 1689.0Q995 1706 1017.5 1715.5Q1040 1725 1066 1725Q1092 1725 1114.5 1715.5Q1137 1706 1154.0 1689.0Q1171 1672 1180.5 1649.5Q1190 1627 1190 1601Q1190 1575 1180.5 1552.5Q1171 1530 1154.0 1513.0Q1137 1496 1114.5 1486.0Q1092 1476 1066 1476ZM471 970Q471 1006 484.5 1039.0Q498 1072 524 1098L740 1313Q759 1332 778.5 1343.0Q798 1354 818.5 1359.0Q839 1364 861.5 1365.0Q884 1366 910 1366Q955 1366 993.5 1356.5Q1032 1347 1066 1313L1281 1098Q1307 1072 1320.5 1039.0Q1334 1006 1334 970Q1334 933 1320.0 900.5Q1306 868 1281.5 843.5Q1257 819 1224.0 805.0Q1191 791 1154 791Q1119 791 1093.5 801.0Q1068 811 1048.0 826.0Q1028 841 1011.5 858.5Q995 876 979.0 891.0Q963 906 944.5 916.0Q926 926 903 926Q879 926 860.5 916.0Q842 906 825.5 891.0Q809 876 793.0 858.0Q777 840 757.0 825.0Q737 810 711.5 800.0Q686 790 651 790Q613 790 580.5 804.0Q548 818 523.5 842.5Q499 867 485.0 899.5Q471 932 471 970ZM1622 307Q1622 281 1612.0 258.5Q1602 236 1585.0 219.0Q1568 202 1545.0 192.5Q1522 183 1497 183Q1471 183 1448.5 192.5Q1426 202 1409.0 219.0Q1392 236 1382.5 258.5Q1373 281 1373 307Q1373 333 1382.5 355.5Q1392 378 1409.0 395.0Q1426 412 1448.5 421.5Q1471 431 1497 431Q1522 431 1545.0 421.5Q1568 412 1585.0 395.0Q1602 378 1612.0 355.5Q1622 333 1622 307ZM1713 398Q1687 398 1664.5 408.0Q1642 418 1625.0 435.0Q1608 452 1598.0 474.5Q1588 497 1588 523Q1588 549 1598.0 571.5Q1608 594 1625.0 611.0Q1642 628 1664.5 637.5Q1687 647 1713 647Q1738 647 1761.0 637.0Q1784 627 1800.5 610.5Q1817 594 1827.0 571.0Q1837 548 1837 523Q1837 497 1827.5 474.5Q1818 452 1801.0 435.0Q1784 418 1761.5 408.0Q1739 398 1713 398ZM2288 431Q2314 431 2336.5 421.5Q2359 412 2376.0 395.0Q2393 378 2402.5 355.5Q2412 333 2412 307Q2412 281 2402.5 258.5Q2393 236 2376.0 219.0Q2359 202 2336.5 192.5Q2314 183 2288 183Q2262 183 2239.5 192.5Q2217 202 2200.0 219.0Q2183 236 2173.0 258.5Q2163 281 2163 307Q2163 333 2173.0 355.5Q2183 378 2200.0 395.0Q2217 412 2239.5 421.5Q2262 431 2288 431ZM2039 398Q2013 398 1990.5 408.0Q1968 418 1951.0 435.0Q1934 452 1924.5 474.5Q1915 497 1915 523Q1915 548 1925.0 571.0Q1935 594 1951.5 610.5Q1968 627 1990.5 637.0Q2013 647 2039 647Q2064 647 2087.0 637.0Q2110 627 2126.5 610.5Q2143 594 2153.0 571.0Q2163 548 2163 523Q2163 497 2153.5 474.5Q2144 452 2127.0 435.0Q2110 418 2087.5 408.0Q2065 398 2039 398ZM1444 -108Q1444 -73 1458.0 -39.5Q1472 -6 1497 19L1713 235Q1732 254 1751.5 264.5Q1771 275 1791.5 280.5Q1812 286 1834.5 287.0Q1857 288 1883 288Q1928 288 1966.5 278.5Q2005 269 2039 235L2255 19Q2280 -6 2293.5 -39.5Q2307 -73 2307 -108Q2307 -145 2293.0 -177.5Q2279 -210 2254.5 -234.5Q2230 -259 2197.5 -273.0Q2165 -287 2128 -287Q2093 -287 2067.5 -277.0Q2042 -267 2022.0 -252.0Q2002 -237 1985.5 -219.5Q1969 -202 1952.5 -187.0Q1936 -172 1917.5 -162.0Q1899 -152 1876 -152Q1852 -152 1833.5 -162.0Q1815 -172 1798.5 -187.0Q1782 -202 1766.0 -220.0Q1750 -238 1730.0 -253.0Q1710 -268 1684.5 -278.0Q1659 -288 1624 -288Q1586 -288 1553.5 -274.0Q1521 -260 1496.5 -235.5Q1472 -211 1458.0 -178.5Q1444 -146 1444 -108Z" style="fill:#f7630c;stroke:none" transform="scale(1,-1) translate(0,-256)" /></svg>