<?xml version="1.0" encoding="utf-8" ?>
<svg baseProfile="full" height="256" version="1.1" width="256" xmlns="http://www.w3.org/2000/svg" xmlns:ev="http://www.w3.org/2001/xml-events" xmlns:xlink="http://www.w3.org/1999/xlink"><defs /><path d="M1329 1652Q1381 1649 1427.5 1626.5Q1474 1604 1508.5 1568.0Q1543 1532 1563.0 1485.0Q1583 1438 1583 1385Q1583 1347 1571.5 1310.0Q1560 1273 1539.5 1241.5Q1519 1210 1490.5 1184.5Q1462 1159 1427 1143Q1452 1104 1464.5 1059.5Q1477 1015 1477 969Q1477 902 1451.5 843.5Q1426 785 1382.0 741.5Q1338 698 1279.5 672.5Q1221 647 1154 647Q1075 647 1016.0 678.0Q957 709 903 765Q849 709 789.5 678.0Q730 647 651 647Q584 647 525.5 672.5Q467 698 423.5 742.0Q380 786 354.5 844.5Q329 903 329 970Q329 1020 343.5 1067.5Q358 1115 387 1156Q326 1193 291.0 1253.0Q256 1313 256 1385Q256 1433 272.5 1477.0Q289 1521 318.5 1556.5Q348 1592 388.0 1616.0Q428 1640 476 1648Q485 1696 509.0 1736.5Q533 1777 568.0 1806.5Q603 1836 647.0 1852.5Q691 1869 740 1869Q785 1869 826.5 1854.0Q868 1839 903 1812Q938 1839 979.5 1854.0Q1021 1869 1066 1869Q1114 1869 1157.5 1852.5Q1201 1836 1236.0 1807.0Q1271 1778 1295.5 1738.0Q1320 1698 1329 1652ZM2302 574Q2354 571 2400.5 548.5Q2447 526 2481.5 490.0Q2516 454 2536.0 407.0Q2556 360 2556 307Q2556 268 2545.0 231.5Q2534 195 2513.5 163.5Q2493 132 2464.5 106.5Q2436 81 2401 65Q2426 26 2438.0 -18.0Q2450 -62 2450 -108Q2450 -175 2424.5 -233.5Q2399 -292 2355.5 -336.0Q2312 -380 2253.5 -405.5Q2195 -431 2128 -431Q2049 -431 1989.5 -400.0Q1930 -369 1876 -313Q1822 -369 1762.5 -400.0Q1703 -431 1624 -431Q1557 -431 1498.5 -405.5Q1440 -380 1396.5 -336.0Q1353 -292 1327.5 -233.5Q1302 -175 1302 -108Q1302 -58 1316.5 -10.5Q1331 37 1360 78Q1299 115 1264.0 175.0Q1229 235 1229 307Q1229 355 1245.5 399.5Q1262 444 1291.5 479.0Q1321 514 1361.5 538.0Q1402 562 1450 570Q1458 618 1482.0 658.5Q1506 699 1541.0 728.5Q1576 758 1620.5 774.5Q1665 791 1713 791Q1758 791 1799.5 776.0Q1841 761 1876 734Q1911 761 1952.5 776.0Q1994 791 2039 791Q2087 791 2130.5 774.5Q2174 758 2209.0 729.0Q2244 700 2268.5 660.0Q2293 620 2302 574Z" style="fill:#000000;stroke:none" transform="scale(1,-1) translate(0,-256)" /></svg>