<?xml version="1.0" encoding="utf-8" ?>
<svg baseProfile="full" height="256" version="1.1" width="256" xmlns="http://www.w3.org/2000/svg" xmlns:ev="http://www.w3.org/2001/xml-events" xmlns:xlink="http://www.w3.org/1999/xlink"><defs /><path d="M1981 1153V791H2340V719L1981 647V54H1909V431H1837V54H1765V647L1675 685H1053L975 647V54H903V431H831V54H759V647L400 719V791H759V1153Q699 1059 605.0 1002.0Q511 945 400 936V1008Q476 1015 541.5 1049.0Q607 1083 655.5 1136.0Q704 1189 731.5 1257.5Q759 1326 759 1402V1510H831V1438H903V1510H975V1402Q975 1320 1006.0 1248.0Q1037 1176 1090.5 1122.0Q1144 1068 1216.0 1037.0Q1288 1006 1370 1006Q1452 1006 1524.0 1037.0Q1596 1068 1649.5 1122.0Q1703 1176 1734.0 1248.0Q1765 1320 1765 1402V1510H1837V1438H1909V1510H1981V1402Q1981 1326 2008.5 1257.5Q2036 1189 2084.5 1136.0Q2133 1083 2198.5 1049.0Q2264 1015 2340 1008V936Q2229 945 2135.0 1002.0Q2041 1059 1981 1153ZM975 791H1765V1153Q1733 1102 1690.0 1061.5Q1647 1021 1596.0 993.0Q1545 965 1487.5 950.0Q1430 935 1370 935Q1310 935 1252.5 950.0Q1195 965 1144.0 993.0Q1093 1021 1050.0 1061.5Q1007 1102 975 1153ZM1909 791V1150H1837V791ZM831 1150V791H903V1150ZM903 503V647L868 677L831 647V503ZM1909 503V647L1872 676L1837 647V503ZM903 1222V1366H831V1222ZM1837 1366V1222H1909V1366Z" style="fill:#f03a17;stroke:none" transform="scale(1,-1) translate(0,-256)" /></svg>