<?xml version="1.0" encoding="utf-8" ?>
<svg baseProfile="full" height="256" version="1.1" width="256" xmlns="http://www.w3.org/2000/svg" xmlns:ev="http://www.w3.org/2001/xml-events" xmlns:xlink="http://www.w3.org/1999/xlink"><defs /><path d="M1371 1581Q1354 1558 1344.0 1530.5Q1334 1503 1334 1474Q1334 1437 1348.0 1404.0Q1362 1371 1386.5 1346.5Q1411 1322 1443.5 1308.0Q1476 1294 1513 1294Q1487 1262 1449.5 1242.0Q1412 1222 1370 1222Q1332 1222 1299.5 1236.0Q1267 1250 1242.5 1274.5Q1218 1299 1204.0 1331.5Q1190 1364 1190 1402Q1190 1439 1204.0 1472.0Q1218 1505 1243.0 1529.0Q1268 1553 1300.5 1567.0Q1333 1581 1371 1581Z" style="fill:#fce100;stroke:none" transform="scale(1,-1) translate(0,-256)" /></svg>