<?xml version="1.0" encoding="utf-8" ?>
<svg baseProfile="full" height="256" version="1.1" width="256" xmlns="http://www.w3.org/2000/svg" xmlns:ev="http://www.w3.org/2001/xml-events" xmlns:xlink="http://www.w3.org/1999/xlink"><defs /><path d="M1118 0Q1132 -15 1150.5 -25.5Q1169 -36 1190 -36V-72H615V-36Q636 -36 654.5 -26.5Q673 -17 687 0Q701 -15 719.5 -25.5Q738 -36 759 -36Q780 -36 798.5 -26.5Q817 -17 831 0Q845 -17 863.5 -26.5Q882 -36 903 -36Q924 -36 942.5 -25.5Q961 -15 975 0Q989 -17 1007.5 -26.5Q1026 -36 1047 -36Q1068 -36 1086.5 -26.0Q1105 -16 1118 0ZM2053 0Q2067 -17 2085.5 -26.5Q2104 -36 2125 -36V-72H1550V-36Q1571 -36 1589.5 -25.5Q1608 -15 1622 0Q1635 -16 1653.5 -26.0Q1672 -36 1693 -36Q1714 -36 1732.5 -26.5Q1751 -17 1765 0Q1779 -15 1797.5 -25.5Q1816 -36 1837 -36Q1858 -36 1876.5 -26.5Q1895 -17 1909 0Q1923 -17 1941.5 -26.5Q1960 -36 1981 -36Q2002 -36 2020.5 -25.5Q2039 -15 2053 0Z" style="fill:#31d2f7;stroke:none" transform="scale(1,-1) translate(0,-256)" /></svg>