<?xml version="1.0" encoding="utf-8" ?>
<svg baseProfile="full" height="256" version="1.1" width="256" xmlns="http://www.w3.org/2000/svg" xmlns:ev="http://www.w3.org/2001/xml-events" xmlns:xlink="http://www.w3.org/1999/xlink"><defs /><path d="M615 1653H1118V1603Q1153 1646 1188.5 1670.5Q1224 1695 1262.5 1707.0Q1301 1719 1345.0 1722.0Q1389 1725 1440 1725H1478V1474Q1478 1459 1488.5 1448.5Q1499 1438 1514 1438H1622V1653H2125V1402Q2125 1353 2142.5 1309.5Q2160 1266 2190.5 1232.0Q2221 1198 2262.5 1176.5Q2304 1155 2353 1151L2484 1140V-431H256V1140L387 1151Q436 1155 477.5 1176.5Q519 1198 549.5 1232.0Q580 1266 597.5 1309.5Q615 1353 615 1402Z" style="fill:#000000;stroke:none" transform="scale(1,-1) translate(0,-256)" /></svg>