<?xml version="1.0" encoding="utf-8" ?>
<svg baseProfile="full" height="256" version="1.1" width="256" xmlns="http://www.w3.org/2000/svg" xmlns:ev="http://www.w3.org/2001/xml-events" xmlns:xlink="http://www.w3.org/1999/xlink"><defs /><path d="M1753 856H1806Q1866 856 1924.0 858.0Q1982 860 2042 860Q2049 860 2053.5 850.5Q2058 841 2059.5 828.0Q2061 815 2061.5 802.5Q2062 790 2062 784Q2062 779 2062.5 770.5Q2063 762 2063 753Q2063 731 2057.5 711.0Q2052 691 2032 691Q1961 691 1891.5 693.0Q1822 695 1751 695Q1745 552 1719.5 438.0Q1694 324 1638.5 232.5Q1583 141 1493.5 68.0Q1404 -5 1270 -65Q1261 -69 1248.0 -74.5Q1235 -80 1225 -80Q1216 -80 1209.0 -74.5Q1202 -69 1195 -64Q1165 -38 1134.5 -12.5Q1104 13 1068 30Q1206 72 1300.5 127.5Q1395 183 1454.0 261.5Q1513 340 1541.5 446.0Q1570 552 1576 695H1241V635Q1241 571 1243.0 507.0Q1245 443 1245 379Q1245 371 1237.0 366.5Q1229 362 1218.5 360.0Q1208 358 1196.5 357.5Q1185 357 1178 357Q1173 357 1161.5 356.5Q1150 356 1136 356Q1123 356 1110.0 357.0Q1097 358 1086.5 361.0Q1076 364 1069.0 369.5Q1062 375 1062 384Q1062 405 1064.0 425.5Q1066 446 1067 467Q1069 524 1069.5 581.0Q1070 638 1070 695H1025Q939 695 854 692Q834 691 815.0 689.0Q796 687 776 687Q764 687 757.5 710.5Q751 734 748.0 764.5Q745 795 744.5 823.5Q744 852 743 862Q818 856 891.5 855.0Q965 854 1040 854H1070V968Q1070 1025 1066.0 1081.0Q1062 1137 1052 1193Q1064 1192 1098.0 1190.0Q1132 1188 1168.0 1183.0Q1204 1178 1232.0 1169.5Q1260 1161 1260 1146Q1260 1138 1257.5 1130.0Q1255 1122 1252 1114Q1247 1100 1245.0 1080.5Q1243 1061 1241.5 1040.0Q1240 1019 1240.0 999.0Q1240 979 1240 964Q1240 937 1240.5 909.5Q1241 882 1241 854H1578Q1579 902 1579.5 949.5Q1580 997 1580 1045Q1580 1088 1577.5 1130.0Q1575 1172 1566 1214Q1574 1213 1592.5 1212.0Q1611 1211 1634.0 1208.5Q1657 1206 1681.0 1203.0Q1705 1200 1725.5 1194.5Q1746 1189 1759.0 1181.5Q1772 1174 1772 1164Q1772 1152 1767 1139Q1767 1112 1760.0 1084.5Q1753 1057 1753 1028Z" style="fill:#ffffff;stroke:none" transform="scale(1,-1) translate(0,-256)" /></svg>