<?xml version="1.0" encoding="utf-8" ?>
<svg baseProfile="full" height="256" version="1.1" width="256" xmlns="http://www.w3.org/2000/svg" xmlns:ev="http://www.w3.org/2001/xml-events" xmlns:xlink="http://www.w3.org/1999/xlink"><defs /><path d="M1981 1869Q2099 1869 2204.0 1823.5Q2309 1778 2387.0 1700.0Q2465 1622 2510.5 1517.0Q2556 1412 2556 1294V935L2460 1001Q2448 970 2431.0 942.5Q2414 915 2393.5 889.5Q2373 864 2351.5 839.5Q2330 815 2310 790L2238 862Q2214 806 2168.0 765.5Q2122 725 2061 681L1981 761V675L1550 29V-72Q1595 -72 1634.0 -89.0Q1673 -106 1702.0 -135.0Q1731 -164 1748.0 -203.0Q1765 -242 1765 -287V-431H903Q858 -431 819.0 -414.0Q780 -397 750.5 -367.5Q721 -338 704.0 -299.0Q687 -260 687 -215V60L842 215Q773 253 717.5 307.0Q662 361 623.5 426.0Q585 491 564.0 565.5Q543 640 543 719V791Q484 791 431.5 813.5Q379 836 340.0 875.0Q301 914 278.5 966.5Q256 1019 256 1078V1366Q256 1418 274.5 1467.5Q293 1517 328 1555V1581Q328 1639 351.0 1691.5Q374 1744 413.0 1783.5Q452 1823 504.0 1846.0Q556 1869 615 1869H759Q819 1869 871.5 1846.5Q924 1824 963.0 1785.0Q1002 1746 1024.5 1693.5Q1047 1641 1047 1581Q1047 1570 1046.0 1559.5Q1045 1549 1043 1538L1334 1167Q1347 1150 1367.5 1136.5Q1388 1123 1406 1113V1294Q1406 1412 1451.5 1517.0Q1497 1622 1575.0 1700.0Q1653 1778 1757.5 1823.5Q1862 1869 1981 1869Z" style="fill:#000000;stroke:none" transform="scale(1,-1) translate(0,-256)" /></svg>