<?xml version="1.0" encoding="utf-8" ?>
<svg baseProfile="full" height="256" version="1.1" width="256" xmlns="http://www.w3.org/2000/svg" xmlns:ev="http://www.w3.org/2001/xml-events" xmlns:xlink="http://www.w3.org/1999/xlink"><defs /><path d="M759 1725Q789 1725 815.0 1713.5Q841 1702 860.5 1682.5Q880 1663 891.5 1637.0Q903 1611 903 1581Q903 1551 891.5 1525.0Q880 1499 860.5 1479.5Q841 1460 815.0 1449.0Q789 1438 759 1438H472V1581Q472 1611 483.0 1637.0Q494 1663 513.5 1682.5Q533 1702 559.0 1713.5Q585 1725 615 1725V1587Q616 1615 628.0 1640.5Q640 1666 659.5 1684.5Q679 1703 704.5 1714.0Q730 1725 759 1725ZM400 1078Q400 1104 410.0 1130.0Q420 1156 438 1175L615 1366H687V1078Q687 1048 675.5 1022.0Q664 996 644.5 976.5Q625 957 599.0 946.0Q573 935 543 935Q513 935 487.0 946.0Q461 957 441.5 976.5Q422 996 411.0 1022.0Q400 1048 400 1078Z" style="fill:#f03a17;stroke:none" transform="scale(1,-1) translate(0,-256)" /></svg>