<?xml version="1.0" encoding="utf-8" ?>
<svg baseProfile="full" height="256" version="1.1" width="256" xmlns="http://www.w3.org/2000/svg" xmlns:ev="http://www.w3.org/2001/xml-events" xmlns:xlink="http://www.w3.org/1999/xlink"><defs /><path d="M1981 1725Q2070 1725 2148.5 1691.0Q2227 1657 2285.5 1598.5Q2344 1540 2378.0 1461.5Q2412 1383 2412 1294Q2412 1284 2411.5 1274.0Q2411 1264 2410 1254L2176 1489Q2155 1510 2125 1510Q2096 1510 2074.5 1488.5Q2053 1467 2053 1438Q2053 1408 2074 1387L2300 1160Q2314 1146 2322.5 1127.0Q2331 1108 2331 1088Q2331 1065 2322.5 1043.0Q2314 1021 2300 1004L2032 1273Q2011 1294 1981 1294Q1951 1294 1930.0 1273.0Q1909 1252 1909 1222Q1909 1192 1930 1171L2073 1028Q2089 1012 2100.5 992.0Q2112 972 2112 949Q2112 927 2101.0 906.5Q2090 886 2073 873L1960 985Q1939 1006 1909 1006Q1880 1006 1858.5 985.0Q1837 964 1837 935V719L1406 72H1334Q1298 72 1266.5 93.0Q1235 114 1215 143L1118 288Q1029 288 950.5 322.0Q872 356 813.5 414.5Q755 473 721.0 551.5Q687 630 687 719V1222L543 1366V1510Q543 1539 564.5 1560.0Q586 1581 615 1581H759Q802 1581 829.5 1561.0Q857 1541 883 1509L1221 1078Q1248 1043 1287.0 1016.5Q1326 990 1370.0 972.0Q1414 954 1460.5 944.5Q1507 935 1550 935V1294Q1550 1383 1584.0 1461.5Q1618 1540 1676.5 1598.5Q1735 1657 1813.5 1691.0Q1892 1725 1981 1725Z" style="fill:#ffffff;stroke:none" transform="scale(1,-1) translate(0,-256)" /></svg>