<?xml version="1.0" encoding="utf-8" ?>
<svg baseProfile="full" height="256" version="1.1" width="256" xmlns="http://www.w3.org/2000/svg" xmlns:ev="http://www.w3.org/2001/xml-events" xmlns:xlink="http://www.w3.org/1999/xlink"><defs /><path d="M1334 503 1390 453 938 0H1047Q1076 0 1097.0 -21.5Q1118 -43 1118 -72H903V-287Q873 -287 852.0 -266.0Q831 -245 831 -215V0ZM1406 -215H1550Q1579 -215 1600.5 -236.5Q1622 -258 1622 -287H1118Q1118 -258 1139.5 -236.5Q1161 -215 1190 -215H1334V144H1406ZM400 1366Q400 1396 411.0 1422.0Q422 1448 441.5 1467.5Q461 1487 487.0 1498.5Q513 1510 543 1510H615V1366Z" style="fill:#ffb900;stroke:none" transform="scale(1,-1) translate(0,-256)" /></svg>