<?xml version="1.0" encoding="utf-8" ?>
<svg baseProfile="full" height="256" version="1.1" width="256" xmlns="http://www.w3.org/2000/svg" xmlns:ev="http://www.w3.org/2001/xml-events" xmlns:xlink="http://www.w3.org/1999/xlink"><defs /><path d="M1406 863Q1436 863 1462.0 851.5Q1488 840 1507.5 820.5Q1527 801 1538.5 775.0Q1550 749 1550 719Q1550 689 1538.5 663.0Q1527 637 1507.5 617.5Q1488 598 1462.0 586.5Q1436 575 1406 575Q1376 575 1350.0 586.5Q1324 598 1304.5 617.5Q1285 637 1273.5 663.0Q1262 689 1262 719Q1262 749 1273.5 775.0Q1285 801 1304.5 820.5Q1324 840 1350.0 851.5Q1376 863 1406 863ZM1478 996Q1461 1001 1442.5 1003.5Q1424 1006 1406 1006Q1388 1006 1369.5 1003.5Q1351 1001 1334 996V1366Q1334 1396 1355.0 1417.0Q1376 1438 1406 1438Q1436 1438 1457.0 1417.0Q1478 1396 1478 1366ZM2053 791Q2083 791 2104.0 770.0Q2125 749 2125 719Q2125 689 2104.0 668.0Q2083 647 2053 647H1683Q1688 664 1690.5 682.5Q1693 701 1693 719Q1693 737 1690.5 755.5Q1688 774 1683 791ZM1334 442Q1370 431 1406 431Q1442 431 1478 442V72Q1478 42 1457.0 21.0Q1436 0 1406 0Q1376 0 1355.0 21.0Q1334 42 1334 72ZM1118 719Q1118 683 1129 647H759Q729 647 708.0 668.0Q687 689 687 719Q687 749 708.0 770.0Q729 791 759 791H1129Q1118 755 1118 719ZM1632 894Q1609 922 1581 945L1848 1212Q1858 1222 1873 1222Q1888 1222 1898.5 1211.5Q1909 1201 1909 1186Q1909 1171 1899 1161ZM1632 544 1899 277Q1909 267 1909 252Q1909 237 1898.5 226.5Q1888 216 1873 216Q1858 216 1848 226L1581 493Q1609 515 1632 544ZM939 1222Q954 1222 964 1212L1231 945Q1202 922 1180 894L913 1161Q903 1171 903 1186Q903 1201 913.5 1211.5Q924 1222 939 1222ZM1180 544Q1201 514 1231 493L964 226Q954 216 939 216Q924 216 913.5 226.5Q903 237 903 252Q903 267 913 277Z" style="fill:#ffffff;stroke:none" transform="scale(1,-1) translate(0,-256)" /></svg>