<?xml version="1.0" encoding="utf-8" ?>
<svg baseProfile="full" height="256" version="1.1" width="256" xmlns="http://www.w3.org/2000/svg" xmlns:ev="http://www.w3.org/2001/xml-events" xmlns:xlink="http://www.w3.org/1999/xlink"><defs /><path d="M2161 72Q2198 72 2230.5 58.0Q2263 44 2287.5 19.5Q2312 -5 2326.0 -38.0Q2340 -71 2340 -108Q2340 -145 2326.0 -178.0Q2312 -211 2287.5 -235.5Q2263 -260 2230.5 -274.0Q2198 -288 2161 -288Q2123 -288 2090.5 -274.0Q2058 -260 2033.5 -235.5Q2009 -211 1995.0 -178.5Q1981 -146 1981 -108Q1981 -71 1995.0 -38.0Q2009 -5 2033.5 19.5Q2058 44 2090.5 58.0Q2123 72 2161 72ZM1729 72Q1766 72 1799.0 58.0Q1832 44 1856.5 19.5Q1881 -5 1895.0 -38.0Q1909 -71 1909 -108Q1909 -146 1895.0 -178.5Q1881 -211 1856.5 -235.5Q1832 -260 1799.0 -274.0Q1766 -288 1729 -288Q1692 -288 1659.5 -274.0Q1627 -260 1602.5 -235.5Q1578 -211 1564.0 -178.0Q1550 -145 1550 -108Q1550 -71 1564.0 -38.0Q1578 -5 1602.5 19.5Q1627 44 1659.5 58.0Q1692 72 1729 72ZM1298 -72Q1320 -72 1340.0 -80.5Q1360 -89 1374.5 -103.5Q1389 -118 1397.5 -138.0Q1406 -158 1406 -180Q1406 -202 1397.5 -221.5Q1389 -241 1374.0 -256.0Q1359 -271 1339.5 -279.5Q1320 -288 1298 -288Q1276 -288 1256.5 -279.5Q1237 -271 1222.0 -256.0Q1207 -241 1198.5 -221.5Q1190 -202 1190 -180Q1190 -158 1198.5 -138.5Q1207 -119 1222.0 -104.0Q1237 -89 1256.5 -80.5Q1276 -72 1298 -72ZM939 -72Q961 -72 980.5 -80.5Q1000 -89 1015.0 -104.0Q1030 -119 1038.5 -138.5Q1047 -158 1047 -180Q1047 -202 1038.5 -221.5Q1030 -241 1015.0 -256.0Q1000 -271 980.5 -279.5Q961 -288 939 -288Q917 -288 897.5 -279.5Q878 -271 863.0 -256.0Q848 -241 839.5 -221.5Q831 -202 831 -180Q831 -158 839.5 -138.0Q848 -118 862.5 -103.5Q877 -89 896.5 -80.5Q916 -72 939 -72Z" style="fill:#cccccc;stroke:none" transform="scale(1,-1) translate(0,-256)" /></svg>