<?xml version="1.0" encoding="utf-8" ?>
<svg baseProfile="full" height="256" version="1.1" width="256" xmlns="http://www.w3.org/2000/svg" xmlns:ev="http://www.w3.org/2001/xml-events" xmlns:xlink="http://www.w3.org/1999/xlink"><defs /><path d="M831 853V1216H1118V853ZM1729 0Q1751 0 1771.0 -8.5Q1791 -17 1805.5 -31.5Q1820 -46 1828.5 -66.0Q1837 -86 1837 -108Q1837 -130 1828.5 -149.5Q1820 -169 1805.0 -184.0Q1790 -199 1770.5 -207.5Q1751 -216 1729 -216Q1707 -216 1687.5 -207.5Q1668 -199 1653.5 -184.0Q1639 -169 1630.5 -149.5Q1622 -130 1622 -108Q1622 -86 1630.5 -66.5Q1639 -47 1653.0 -32.0Q1667 -17 1686.5 -8.5Q1706 0 1729 0ZM2161 0Q2183 0 2203.0 -8.5Q2223 -17 2237.0 -32.0Q2251 -47 2259.5 -66.5Q2268 -86 2268 -108Q2268 -130 2259.5 -149.5Q2251 -169 2236.5 -184.0Q2222 -199 2202.5 -207.5Q2183 -216 2161 -216Q2139 -216 2119.5 -207.5Q2100 -199 2085.0 -184.0Q2070 -169 2061.5 -149.5Q2053 -130 2053 -108Q2053 -86 2061.5 -66.0Q2070 -46 2084.5 -31.5Q2099 -17 2118.5 -8.5Q2138 0 2161 0Z" style="fill:#383838;stroke:none" transform="scale(1,-1) translate(0,-256)" /></svg>