<?xml version="1.0" encoding="utf-8" ?>
<svg baseProfile="full" height="256" version="1.1" width="256" xmlns="http://www.w3.org/2000/svg" xmlns:ev="http://www.w3.org/2001/xml-events" xmlns:xlink="http://www.w3.org/1999/xlink"><defs /><path d="M1322 1509H2556V1150H2484V359H2556V0H2472L2467 -4Q2484 -57 2484 -108Q2484 -175 2458.5 -233.5Q2433 -292 2389.0 -336.0Q2345 -380 2286.5 -405.5Q2228 -431 2161 -431Q2101 -431 2045.5 -409.5Q1990 -388 1945 -349Q1900 -388 1844.5 -409.5Q1789 -431 1729 -431Q1663 -431 1603.0 -406.0Q1543 -381 1498 -333Q1462 -381 1410.0 -406.0Q1358 -431 1298 -431Q1249 -431 1203.5 -412.5Q1158 -394 1123 -359H1114Q1079 -394 1033.5 -412.5Q988 -431 939 -431Q889 -431 843.5 -412.5Q798 -394 763 -359H256V-110L328 34V274Q293 344 275.0 420.5Q257 497 257 575Q257 656 272.0 723.0Q287 790 315.5 850.0Q344 910 386.0 965.5Q428 1021 482 1078H687V1090L543 1234V1425Q582 1464 621.0 1503.5Q660 1543 700 1581H1250Z" style="fill:#000000;stroke:none" transform="scale(1,-1) translate(0,-256)" /></svg>