<?xml version="1.0" encoding="utf-8" ?>
<svg baseProfile="full" height="256" version="1.1" width="256" xmlns="http://www.w3.org/2000/svg" xmlns:ev="http://www.w3.org/2001/xml-events" xmlns:xlink="http://www.w3.org/1999/xlink"><defs /><path d="M1478 934Q1496 905 1508.0 860.0Q1520 815 1526.5 764.5Q1533 714 1535.5 665.5Q1538 617 1538 583Q1538 498 1529.0 408.5Q1520 319 1489 239Q1488 237 1484.0 227.5Q1480 218 1478 216L1427 167H599Q502 248 451.0 347.5Q400 447 400 575Q400 675 437.0 768.5Q474 862 543 934H759L800 875L831 934H1118L1159 875L1190 934ZM1185 1329 1262 1294 1118 1150H831L687 1294L767 1329L687 1366L759 1437H1190L1262 1366Z" style="fill:#757575;stroke:none" transform="scale(1,-1) translate(0,-256)" /></svg>