<?xml version="1.0" encoding="utf-8" ?>
<svg baseProfile="full" height="256" version="1.1" width="256" xmlns="http://www.w3.org/2000/svg" xmlns:ev="http://www.w3.org/2001/xml-events" xmlns:xlink="http://www.w3.org/1999/xlink"><defs /><path d="M1190 934V216H2412V144H472V216H759V934H831V216H1118V934ZM1406 1366H2412V1294H1406ZM1262 1366V1294H687V1366ZM1298 -144Q1313 -144 1323.5 -154.5Q1334 -165 1334 -180Q1334 -195 1323.5 -205.5Q1313 -216 1298 -216H939Q924 -216 913.5 -205.5Q903 -195 903 -180Q903 -165 913.5 -154.5Q924 -144 939 -144Z" style="fill:#dfbe00;stroke:none" transform="scale(1,-1) translate(0,-256)" /></svg>