<?xml version="1.0" encoding="utf-8" ?>
<svg baseProfile="full" height="256" version="1.1" width="256" xmlns="http://www.w3.org/2000/svg" xmlns:ev="http://www.w3.org/2001/xml-events" xmlns:xlink="http://www.w3.org/1999/xlink"><defs /><path d="M1083 1006 1118 935H1101L1103 932L1105 929L1107 926Q1112 920 1115.0 913.5Q1118 907 1118 899Q1118 885 1107.5 874.0Q1097 863 1083 863Q1073 863 1059.5 870.5Q1046 878 1032.0 888.5Q1018 899 1005.0 910.5Q992 922 983 930L978 935L975 937L903 993V899Q903 883 893.0 873.0Q883 863 867 863Q861 863 852.5 866.0Q844 869 840 875L759 1006Q783 1006 792 1029L851 1177Q908 1131 964.5 1087.5Q1021 1044 1083 1006ZM2145 961Q2186 926 2233.0 896.0Q2280 866 2318 827Q2327 818 2339.5 802.0Q2352 786 2364.5 768.0Q2377 750 2388.5 733.0Q2400 716 2406 704Q2412 693 2412 683Q2412 668 2401.5 657.5Q2391 647 2376 647Q2364 647 2354 655L2197 777V683Q2197 669 2186.0 658.0Q2175 647 2161 647Q2155 647 2146.5 650.0Q2138 653 2134 659L2053 791Q2064 791 2073.0 797.0Q2082 803 2086 813ZM1945 647Q1930 647 1919.5 657.5Q1909 668 1909 683V777Q1898 769 1872.5 747.5Q1847 726 1818.5 703.5Q1790 681 1764.5 664.0Q1739 647 1729 647Q1715 647 1704.5 658.0Q1694 669 1694 683Q1694 695 1700 704Q1730 756 1758.0 789.5Q1786 823 1816.0 849.5Q1846 876 1880.5 901.0Q1915 926 1960 961L2019 813Q2028 791 2053 791L1972 659Q1968 653 1959.5 650.0Q1951 647 1945 647ZM651 863Q636 863 625.5 873.5Q615 884 615 899V993L458 870Q450 863 436 863Q421 863 410.5 873.5Q400 884 400 899Q400 911 406 920Q426 951 447.0 983.5Q468 1016 494 1042Q507 1055 522.5 1065.5Q538 1076 552 1087L667 1177L726 1029Q735 1006 759 1006L678 875Q674 869 665.5 866.0Q657 863 651 863ZM2124 -180Q2124 -165 2135 -154L2207 -82Q2217 -72 2232 -72Q2247 -72 2257.5 -82.5Q2268 -93 2268 -108Q2268 -123 2258 -133L2186 -205Q2175 -216 2160 -216Q2146 -216 2135.0 -205.0Q2124 -194 2124 -180ZM1837 -180Q1837 -165 1848 -154L1920 -82Q1930 -72 1945 -72Q1960 -72 1970.5 -82.5Q1981 -93 1981 -108Q1981 -123 1971 -133L1899 -205Q1888 -216 1873 -216Q1859 -216 1848.0 -205.0Q1837 -194 1837 -180ZM2268 180Q2268 164 2258 154L2186 82Q2175 71 2160 71Q2145 71 2134.5 82.0Q2124 93 2124 108Q2124 122 2135 133L2207 205Q2217 215 2232 215Q2246 215 2257.0 204.5Q2268 194 2268 180Z" style="fill:#107c10;stroke:none" transform="scale(1,-1) translate(0,-256)" /></svg>