<?xml version="1.0" encoding="utf-8" ?>
<svg baseProfile="full" height="256" version="1.1" width="256" xmlns="http://www.w3.org/2000/svg" xmlns:ev="http://www.w3.org/2001/xml-events" xmlns:xlink="http://www.w3.org/1999/xlink"><defs /><path d="M2292 1006 2406 848Q2412 839 2412 829V-287H400V791H1722Q1709 793 1701.5 803.5Q1694 814 1694 827Q1694 839 1700 848L1814 1006Q1795 1006 1780.0 1012.5Q1765 1019 1765 1042Q1765 1051 1777.5 1071.0Q1790 1091 1806.5 1114.0Q1823 1137 1839.0 1158.0Q1855 1179 1862 1188Q1851 1192 1844.0 1201.5Q1837 1211 1837 1222Q1837 1228 1839.5 1233.0Q1842 1238 1845 1243L2024 1494Q2029 1501 2037.0 1505.5Q2045 1510 2053 1510Q2061 1510 2069.0 1505.5Q2077 1501 2082 1494L2261 1243Q2268 1232 2268 1222Q2268 1196 2243 1188L2333 1064Q2337 1058 2338.5 1054.0Q2340 1050 2340 1042Q2340 1020 2325.0 1013.0Q2310 1006 2292 1006ZM436 1006Q421 1006 410.5 1017.0Q400 1028 400 1043Q400 1052 416.0 1077.5Q432 1103 453.0 1131.5Q474 1160 493.5 1186.0Q513 1212 520 1222Q500 1222 486.0 1228.5Q472 1235 472 1258Q472 1267 484.5 1287.0Q497 1307 513.5 1329.5Q530 1352 545.5 1373.0Q561 1394 568 1404Q557 1408 550.0 1417.5Q543 1427 543 1438Q543 1443 555.5 1463.0Q568 1483 586.5 1510.5Q605 1538 628.0 1569.5Q651 1601 671.5 1629.5Q692 1658 708.0 1679.5Q724 1701 730 1709Q741 1725 759 1725Q777 1725 788 1709Q794 1701 810.0 1679.0Q826 1657 846.5 1629.0Q867 1601 890.0 1570.0Q913 1539 931.5 1511.5Q950 1484 962.5 1464.0Q975 1444 975 1438Q975 1427 968.0 1417.5Q961 1408 950 1404Q956 1395 972.0 1374.0Q988 1353 1004.5 1330.0Q1021 1307 1034.0 1286.5Q1047 1266 1047 1258Q1047 1235 1032.0 1228.5Q1017 1222 998 1222Q1005 1212 1024.5 1186.0Q1044 1160 1065.0 1131.5Q1086 1103 1102.0 1077.5Q1118 1052 1118 1043Q1118 1029 1108.0 1017.5Q1098 1006 1083 1006Q991 1006 899.5 1005.5Q808 1005 716 1005Q693 1005 664.5 1009.0Q636 1013 606.0 1019.0Q576 1025 547.0 1031.0Q518 1037 494 1042Q483 1033 467.0 1019.5Q451 1006 436 1006ZM1778 791 1787 826Q1775 816 1762.5 804.5Q1750 793 1733 791Z" style="fill:#13a10e;stroke:none" transform="scale(1,-1) translate(0,-256)" /></svg>