<?xml version="1.0" encoding="utf-8" ?>
<svg baseProfile="full" height="256" version="1.1" width="256" xmlns="http://www.w3.org/2000/svg" xmlns:ev="http://www.w3.org/2001/xml-events" xmlns:xlink="http://www.w3.org/1999/xlink"><defs /><path d="M831 1006H1765L1689 503L1406 288H1392L1349 308L1312 288H828Q813 308 795.0 325.5Q777 343 759 360Q741 343 723.0 325.5Q705 308 690 288H530L494 311Q494 312 495.0 317.5Q496 323 497.0 329.0Q498 335 499.5 340.0Q501 345 501 346ZM759 144Q791 117 811.0 80.0Q831 43 831 0Q831 -29 809.5 -50.5Q788 -72 759 -72Q730 -72 708.5 -50.5Q687 -29 687 0Q687 43 707.0 80.0Q727 117 759 144Z" style="fill:#ffb900;stroke:none" transform="scale(1,-1) translate(0,-256)" /></svg>