<?xml version="1.0" encoding="utf-8" ?>
<svg baseProfile="full" height="256" version="1.1" width="256" xmlns="http://www.w3.org/2000/svg" xmlns:ev="http://www.w3.org/2001/xml-events" xmlns:xlink="http://www.w3.org/1999/xlink"><defs /><path d="M1262 396Q1262 410 1273.0 421.0Q1284 432 1298 432Q1319 432 1330 412L1392 288H1312Q1307 297 1298.5 311.5Q1290 326 1282.0 341.5Q1274 357 1268.0 372.0Q1262 387 1262 396ZM2161 432Q2176 432 2186.5 421.0Q2197 410 2197 395Q2197 385 2191.0 371.0Q2185 357 2176.5 341.5Q2168 326 2159.5 312.0Q2151 298 2147 288H2125Q2117 302 2110.0 316.5Q2103 331 2096 346L2129 412Q2140 432 2161 432ZM400 396Q400 410 410.5 421.0Q421 432 435 432Q444 432 454.0 426.0Q464 420 468 412L530 288H449L445 294Q439 304 431.5 318.0Q424 332 417.0 346.5Q410 361 405.0 374.5Q400 388 400 396Z" style="fill:#e5e5e5;stroke:none" transform="scale(1,-1) translate(0,-256)" /></svg>