<?xml version="1.0" encoding="utf-8" ?>
<svg baseProfile="full" height="256" version="1.1" width="256" xmlns="http://www.w3.org/2000/svg" xmlns:ev="http://www.w3.org/2001/xml-events" xmlns:xlink="http://www.w3.org/1999/xlink"><defs /><path d="M1190 1294Q1190 1339 1207.0 1378.0Q1224 1417 1253.5 1446.5Q1283 1476 1322.0 1493.0Q1361 1510 1406 1510V1438Q1406 1394 1421.5 1356.5Q1437 1319 1464.5 1290.0Q1492 1261 1529.0 1243.5Q1566 1226 1609 1223Q1585 1158 1530.5 1118.0Q1476 1078 1406 1078Q1361 1078 1322.0 1095.0Q1283 1112 1253.5 1141.5Q1224 1171 1207.0 1210.0Q1190 1249 1190 1294Z" style="fill:#fff100;stroke:none" transform="scale(1,-1) translate(0,-256)" /></svg>