<?xml version="1.0" encoding="utf-8" ?>
<svg baseProfile="full" height="256" version="1.1" width="256" xmlns="http://www.w3.org/2000/svg" xmlns:ev="http://www.w3.org/2001/xml-events" xmlns:xlink="http://www.w3.org/1999/xlink"><defs /><path d="M256 936H260Q262 945 264.5 954.0Q267 963 271 971Q256 1005 256 1043Q256 1067 261.5 1087.5Q267 1108 276.5 1126.0Q286 1144 298.0 1161.0Q310 1178 324 1196L334 1210Q328 1234 328 1258Q328 1283 334.0 1304.0Q340 1325 350.0 1343.5Q360 1362 373.0 1380.0Q386 1398 401 1417Q400 1423 399.5 1428.5Q399 1434 399 1440Q399 1470 409.0 1495.5Q419 1521 436 1545L613 1793Q638 1828 677.0 1848.5Q716 1869 759 1869Q805 1869 842.5 1848.5Q880 1828 906 1791L1084 1542Q1092 1531 1098.0 1519.5Q1104 1508 1109 1496Q1160 1571 1237.5 1612.0Q1315 1653 1406 1653H1550V1438Q1550 1409 1569.0 1389.0Q1588 1369 1617 1367L1751 1359L1907 1577Q1932 1612 1970.5 1632.5Q2009 1653 2053 1653Q2097 1653 2136.0 1632.0Q2175 1611 2200 1576L2378 1327Q2395 1304 2404.0 1279.0Q2413 1254 2413 1226Q2413 1220 2412.5 1213.5Q2412 1207 2411 1201Q2426 1182 2439.0 1164.0Q2452 1146 2462.0 1127.5Q2472 1109 2478.0 1088.0Q2484 1067 2484 1042Q2484 1018 2478 994L2505 956L2556 947V-431H256Z" style="fill:#000000;stroke:none" transform="scale(1,-1) translate(0,-256)" /></svg>