<?xml version="1.0" encoding="utf-8" ?>
<svg baseProfile="full" height="256" version="1.1" width="256" xmlns="http://www.w3.org/2000/svg" xmlns:ev="http://www.w3.org/2001/xml-events" xmlns:xlink="http://www.w3.org/1999/xlink"><defs /><path d="M903 72Q903 42 891.5 16.0Q880 -10 860.5 -29.5Q841 -49 815.0 -60.5Q789 -72 759 -72Q729 -72 703.0 -60.5Q677 -49 657.5 -29.5Q638 -10 626.5 16.0Q615 42 615 72Q615 131 635.0 185.5Q655 240 690 287L687 370H829V287Q864 240 883.5 185.5Q903 131 903 72Z" style="fill:#f7630c;stroke:none" transform="scale(1,-1) translate(0,-256)" /></svg>