<?xml version="1.0" encoding="utf-8" ?>
<svg baseProfile="full" height="256" version="1.1" width="256" xmlns="http://www.w3.org/2000/svg" xmlns:ev="http://www.w3.org/2001/xml-events" xmlns:xlink="http://www.w3.org/1999/xlink"><defs /><path d="M2053 216Q2083 216 2104.0 195.0Q2125 174 2125 144Q2125 114 2104.0 93.0Q2083 72 2053 72H1406Q1376 72 1355.0 93.0Q1334 114 1334 144Q1334 174 1355.0 195.0Q1376 216 1406 216ZM2053 791Q2023 791 2002.0 812.0Q1981 833 1981 863Q1981 892 2002.5 913.5Q2024 935 2053 935Q2082 935 2103.5 913.5Q2125 892 2125 863Q2125 833 2104.0 812.0Q2083 791 2053 791ZM2197 719Q2226 719 2247.0 697.5Q2268 676 2268 647Q2268 618 2247.0 596.5Q2226 575 2197 575Q2167 575 2146.0 596.0Q2125 617 2125 647Q2125 677 2146.0 698.0Q2167 719 2197 719Z" style="fill:#d48c00;stroke:none" transform="scale(1,-1) translate(0,-256)" /></svg>