<?xml version="1.0" encoding="utf-8" ?>
<svg baseProfile="full" height="256" version="1.1" width="256" xmlns="http://www.w3.org/2000/svg" xmlns:ev="http://www.w3.org/2001/xml-events" xmlns:xlink="http://www.w3.org/1999/xlink"><defs /><path d="M1873 1294Q1967 1294 2054.5 1269.5Q2142 1245 2218.0 1200.5Q2294 1156 2356.0 1094.0Q2418 1032 2462.5 956.0Q2507 880 2531.5 792.5Q2556 705 2556 611Q2556 524 2534.0 440.0Q2512 356 2470.5 281.0Q2429 206 2370.0 143.0Q2311 80 2237 34Q2219 5 2197 -16V-431H1118V-215Q1118 -203 1111.5 -185.5Q1105 -168 1096 -160L452 413Q426 436 413.0 470.0Q400 504 400 539Q400 582 419.0 619.5Q438 657 472 683Q438 709 419.0 746.5Q400 784 400 827Q400 864 414.0 896.5Q428 929 452.5 953.5Q477 978 509.5 992.0Q542 1006 579 1006Q725 1006 863.0 959.5Q1001 913 1118 825V1078Q1118 1108 1107.0 1134.0Q1096 1160 1076.5 1179.5Q1057 1199 1031.0 1210.5Q1005 1222 975 1222H723Q690 1222 660.5 1233.0Q631 1244 607.5 1263.5Q584 1283 568.0 1310.0Q552 1337 546 1369Q492 1379 452.5 1419.0Q413 1459 403 1513Q371 1519 344.0 1535.0Q317 1551 297.5 1574.5Q278 1598 267.0 1627.0Q256 1656 256 1689Q256 1726 270.0 1759.0Q284 1792 308.5 1816.5Q333 1841 365.5 1855.0Q398 1869 436 1869H903Q992 1869 1075.0 1846.0Q1158 1823 1229.5 1780.5Q1301 1738 1360.0 1679.0Q1419 1620 1461.5 1548.5Q1504 1477 1527.0 1394.0Q1550 1311 1550 1222Q1625 1261 1707.0 1277.5Q1789 1294 1873 1294Z" style="fill:#000000;stroke:none" transform="scale(1,-1) translate(0,-256)" /></svg>