<?xml version="1.0" encoding="utf-8" ?>
<svg baseProfile="full" height="256" version="1.1" width="256" xmlns="http://www.w3.org/2000/svg" xmlns:ev="http://www.w3.org/2001/xml-events" xmlns:xlink="http://www.w3.org/1999/xlink"><defs /><path d="M1406 -287H1262V-280Q1262 -247 1260.5 -216.5Q1259 -186 1252.5 -157.0Q1246 -128 1231.5 -102.0Q1217 -76 1190 -52L553 515Q543 524 543 539Q543 554 553.5 564.5Q564 575 579 575Q688 575 790.5 544.5Q893 514 981.5 457.5Q1070 401 1141.5 321.5Q1213 242 1260 144Q1252 280 1196.0 398.0Q1140 516 1048.0 603.5Q956 691 835.5 741.0Q715 791 579 791Q564 791 553.5 801.5Q543 812 543 827Q543 842 553.5 852.5Q564 863 579 863Q689 863 792.0 832.0Q895 801 983.5 744.0Q1072 687 1143.5 606.5Q1215 526 1262 427V1006H1406V293Q1406 292 1409.0 281.5Q1412 271 1416.0 257.5Q1420 244 1424.0 231.5Q1428 219 1429 216Q1422 180 1415.5 144.0Q1409 108 1406 72Q1405 62 1405.0 52.0Q1405 42 1405 32Q1405 12 1405.5 -8.0Q1406 -28 1406 -48Z" style="fill:#13a10e;stroke:none" transform="scale(1,-1) translate(0,-256)" /></svg>