<?xml version="1.0" encoding="utf-8" ?>
<svg baseProfile="full" height="256" version="1.1" width="256" xmlns="http://www.w3.org/2000/svg" xmlns:ev="http://www.w3.org/2001/xml-events" xmlns:xlink="http://www.w3.org/1999/xlink"><defs /><path d="M1981 360Q2010 360 2031.5 338.5Q2053 317 2053 288V144H1406V288Q1406 317 1427.5 338.5Q1449 360 1478 360V431Q1478 455 1487.5 469.5Q1497 484 1512.0 491.5Q1527 499 1546.0 501.0Q1565 503 1585 503H1622V539Q1622 561 1630.5 580.5Q1639 600 1653.0 615.0Q1667 630 1686.5 638.5Q1706 647 1729 647Q1751 647 1771.0 638.5Q1791 630 1805.5 615.5Q1820 601 1828.5 581.0Q1837 561 1837 539V503Q1890 503 1919.5 499.5Q1949 496 1962.5 482.0Q1976 468 1978.5 439.5Q1981 411 1981 360Z" style="fill:#ffffff;stroke:none" transform="scale(1,-1) translate(0,-256)" /></svg>