<?xml version="1.0" encoding="utf-8" ?>
<svg baseProfile="full" height="256" version="1.1" width="256" xmlns="http://www.w3.org/2000/svg" xmlns:ev="http://www.w3.org/2001/xml-events" xmlns:xlink="http://www.w3.org/1999/xlink"><defs /><path d="M687 1402Q687 1417 697.5 1427.5Q708 1438 723 1438H939Q954 1438 964.5 1448.5Q975 1459 975 1474Q975 1489 964.5 1499.5Q954 1510 939 1510H579Q565 1510 554.0 1521.0Q543 1532 543 1546Q543 1560 554.0 1570.5Q565 1581 579 1581H795Q809 1581 820.0 1592.0Q831 1603 831 1617Q831 1632 820.5 1642.5Q810 1653 795 1653H436Q421 1653 410.5 1663.5Q400 1674 400 1689Q400 1704 410.5 1714.5Q421 1725 436 1725H903Q1007 1725 1098.5 1685.5Q1190 1646 1258.5 1577.5Q1327 1509 1366.5 1417.5Q1406 1326 1406 1222V1006L1334 975L1262 1006V1078Q1262 1138 1239.5 1190.5Q1217 1243 1178.0 1282.0Q1139 1321 1087.0 1343.5Q1035 1366 975 1366H723Q708 1366 697.5 1376.5Q687 1387 687 1402Z" style="fill:#ffd679;stroke:none" transform="scale(1,-1) translate(0,-256)" /></svg>