<?xml version="1.0" encoding="utf-8" ?>
<svg baseProfile="full" height="256" version="1.1" width="256" xmlns="http://www.w3.org/2000/svg" xmlns:ev="http://www.w3.org/2001/xml-events" xmlns:xlink="http://www.w3.org/1999/xlink"><defs /><path d="M2125 -431Q2038 -431 1959.5 -398.5Q1881 -366 1820 -305L382 1133Q335 1180 309.5 1227.5Q284 1275 272.0 1325.0Q260 1375 258.0 1429.0Q256 1483 256 1542V1581Q256 1639 279.0 1691.5Q302 1744 341.0 1783.5Q380 1823 432.0 1846.0Q484 1869 543 1869H687Q773 1869 852.0 1836.5Q931 1804 992 1743L2430 305Q2474 261 2499.0 217.0Q2524 173 2537.0 127.0Q2550 81 2553.0 32.0Q2556 -17 2556 -71V-144Q2556 -203 2533.0 -255.0Q2510 -307 2470.5 -346.0Q2431 -385 2378.5 -408.0Q2326 -431 2268 -431Z" style="fill:#000000;stroke:none" transform="scale(1,-1) translate(0,-256)" /></svg>