<?xml version="1.0" encoding="utf-8" ?>
<svg baseProfile="full" height="256" version="1.1" width="256" xmlns="http://www.w3.org/2000/svg" xmlns:ev="http://www.w3.org/2001/xml-events" xmlns:xlink="http://www.w3.org/1999/xlink"><defs /><path d="M1981 288Q2026 288 2065.0 271.0Q2104 254 2133.5 224.5Q2163 195 2180.0 156.0Q2197 117 2197 72H1909Q1864 72 1825.0 89.0Q1786 106 1756.5 135.5Q1727 165 1710.0 204.0Q1693 243 1693 288ZM903 1366Q948 1366 987.0 1349.0Q1026 1332 1055.0 1302.5Q1084 1273 1101.0 1234.0Q1118 1195 1118 1150H831Q786 1150 747.0 1167.0Q708 1184 678.5 1213.5Q649 1243 632.0 1282.0Q615 1321 615 1366ZM1622 647Q1667 647 1706.0 630.0Q1745 613 1774.0 583.5Q1803 554 1820.0 515.0Q1837 476 1837 431H1550Q1505 431 1466.0 448.0Q1427 465 1397.5 494.5Q1368 524 1351.0 563.0Q1334 602 1334 647ZM1262 1006Q1307 1006 1346.0 989.0Q1385 972 1414.5 943.0Q1444 914 1461.0 875.0Q1478 836 1478 791H1190Q1145 791 1106.0 808.0Q1067 825 1038.0 854.0Q1009 883 992.0 922.0Q975 961 975 1006Z" style="fill:#ffb900;stroke:none" transform="scale(1,-1) translate(0,-256)" /></svg>