<?xml version="1.0" encoding="utf-8" ?>
<svg baseProfile="full" height="256" version="1.1" width="256" xmlns="http://www.w3.org/2000/svg" xmlns:ev="http://www.w3.org/2001/xml-events" xmlns:xlink="http://www.w3.org/1999/xlink"><defs /><path d="M643 1726Q680 1726 713.0 1723.0Q746 1720 776.5 1710.5Q807 1701 835.0 1684.5Q863 1668 890 1641L2328 203Q2355 176 2371.5 148.0Q2388 120 2397.5 89.5Q2407 59 2410.0 26.0Q2413 -7 2413 -44Q2413 -69 2412.5 -94.0Q2412 -119 2412 -144Q2412 -174 2400.5 -200.0Q2389 -226 2369.5 -245.5Q2350 -265 2324.0 -276.0Q2298 -287 2268 -287Q2244 -287 2219.5 -287.5Q2195 -288 2171 -288Q2134 -288 2100.5 -285.0Q2067 -282 2036.0 -273.0Q2005 -264 1976.5 -247.0Q1948 -230 1921 -203L484 1234Q457 1261 440.0 1289.5Q423 1318 414.0 1349.0Q405 1380 402.0 1413.5Q399 1447 399 1484Q399 1508 399.5 1532.5Q400 1557 400 1581Q400 1611 411.0 1637.0Q422 1663 441.5 1682.5Q461 1702 487.0 1713.5Q513 1725 543 1725Q568 1725 593.0 1725.5Q618 1726 643 1726Z" style="fill:#eba300;stroke:none" transform="scale(1,-1) translate(0,-256)" /></svg>