<?xml version="1.0" encoding="utf-8" ?>
<svg baseProfile="full" height="256" version="1.1" width="256" xmlns="http://www.w3.org/2000/svg" xmlns:ev="http://www.w3.org/2001/xml-events" xmlns:xlink="http://www.w3.org/1999/xlink"><defs /><path d="M831 1006 1550 1366Q1587 1385 1620.0 1409.0Q1653 1433 1687 1457L2181 1021L2097 918Q2086 904 2074.5 891.0Q2063 878 2053 863Q2017 806 1990.0 744.5Q1963 683 1933 623L1693 144L628 -211L1278 439Q1307 431 1334 431Q1379 431 1418.0 448.0Q1457 465 1486.5 494.5Q1516 524 1533.0 563.0Q1550 602 1550 647Q1550 692 1533.0 731.0Q1516 770 1486.5 799.5Q1457 829 1418.0 846.0Q1379 863 1334 863Q1289 863 1250.0 846.0Q1211 829 1181.5 799.5Q1152 770 1135.0 731.0Q1118 692 1118 647Q1118 620 1126 591L476 -59Z" style="fill:#cccccc;stroke:none" transform="scale(1,-1) translate(0,-256)" /></svg>