<?xml version="1.0" encoding="utf-8" ?>
<svg baseProfile="full" height="256" version="1.1" width="256" xmlns="http://www.w3.org/2000/svg" xmlns:ev="http://www.w3.org/2001/xml-events" xmlns:xlink="http://www.w3.org/1999/xlink"><defs /><path d="M1303 975Q1370 975 1435.0 954.5Q1500 934 1551.0 895.0Q1602 856 1633.5 798.5Q1665 741 1665 668Q1665 629 1656.0 580.5Q1647 532 1626.5 489.0Q1606 446 1573.0 416.5Q1540 387 1491 387Q1482 387 1467.5 370.0Q1453 353 1436.5 333.0Q1420 313 1404.0 295.5Q1388 278 1377 277L629 -211Q612 -222 601.0 -235.5Q590 -249 578.5 -260.5Q567 -272 551.0 -279.5Q535 -287 508 -287Q485 -287 465.5 -278.5Q446 -270 431.0 -256.0Q416 -242 407.5 -222.5Q399 -203 399 -180Q399 -152 407.5 -135.5Q416 -119 428.0 -107.0Q440 -95 453.5 -84.5Q467 -74 477 -58L909 627Q910 636 926.5 646.0Q943 656 961.5 666.0Q980 676 995.5 684.5Q1011 693 1011 701Q1011 746 1040.0 794.5Q1069 843 1113.0 883.0Q1157 923 1208.0 949.0Q1259 975 1303 975Z" style="fill:#757575;stroke:none" transform="scale(1,-1) translate(0,-256)" /></svg>