<?xml version="1.0" encoding="utf-8" ?>
<svg baseProfile="full" height="256" version="1.1" width="256" xmlns="http://www.w3.org/2000/svg" xmlns:ev="http://www.w3.org/2001/xml-events" xmlns:xlink="http://www.w3.org/1999/xlink"><defs /><path d="M508 -431Q456 -431 410.0 -411.0Q364 -391 330.0 -357.0Q296 -323 276.0 -277.0Q256 -231 256 -179Q256 -146 262.5 -119.5Q269 -93 281.0 -70.0Q293 -47 310.5 -25.5Q328 -4 350 19L713 1108L1307 1405L1275 1438L1693 1857L2544 1006L2125 588L2092 620L1795 26L706 -337Q683 -359 661.5 -376.5Q640 -394 617.0 -406.0Q594 -418 567.5 -424.5Q541 -431 508 -431Z" style="fill:#000000;stroke:none" transform="scale(1,-1) translate(0,-256)" /></svg>