<?xml version="1.0" encoding="utf-8" ?>
<svg baseProfile="full" height="256" version="1.1" width="256" xmlns="http://www.w3.org/2000/svg" xmlns:ev="http://www.w3.org/2001/xml-events" xmlns:xlink="http://www.w3.org/1999/xlink"><defs /><path d="M1526 740Q1526 666 1515.5 596.0Q1505 526 1479.0 463.5Q1453 401 1409.0 348.5Q1365 296 1297 258Q1292 255 1284.0 251.0Q1276 247 1270 247Q1267 247 1255.5 258.5Q1244 270 1230.0 285.0Q1216 300 1203.0 313.5Q1190 327 1184 331Q1254 364 1298.5 404.0Q1343 444 1368.5 494.5Q1394 545 1404.0 605.5Q1414 666 1415 740Q1374 737 1335 737Q1323 737 1323 750Q1323 779 1324.5 807.0Q1326 835 1326 864V1065Q1326 1093 1324.5 1120.0Q1323 1147 1323 1175Q1323 1188 1335 1188Q1369 1188 1402.0 1186.5Q1435 1185 1469 1185H1690Q1724 1185 1758.0 1186.5Q1792 1188 1826 1188Q1840 1188 1840 1175Q1840 1147 1838.5 1120.0Q1837 1093 1837 1065V864Q1837 835 1838.5 807.0Q1840 779 1840 750Q1840 737 1826 737H1710V416Q1710 391 1717.0 383.0Q1724 375 1750 375Q1767 375 1779 390Q1783 396 1786.5 415.0Q1790 434 1792.0 457.0Q1794 480 1795.0 501.0Q1796 522 1796 531Q1801 528 1816.0 521.0Q1831 514 1847.5 507.0Q1864 500 1877.5 494.0Q1891 488 1891 488Q1897 480 1897 471Q1897 468 1896.5 465.5Q1896 463 1896 460Q1892 416 1886.0 380.5Q1880 345 1863.5 320.5Q1847 296 1817.0 283.0Q1787 270 1735 270Q1703 270 1677.5 273.0Q1652 276 1634.0 286.5Q1616 297 1606.0 318.5Q1596 340 1596 377V740ZM1149 687V406Q1149 367 1150.5 328.0Q1152 289 1152 250Q1152 236 1137 236H1047Q1032 236 1032 250Q1032 289 1033.5 328.0Q1035 367 1035 406V635Q1029 628 1013.0 610.0Q997 592 978.5 573.0Q960 554 943.0 539.5Q926 525 919 525Q914 525 910.5 532.0Q907 539 905 543Q894 565 880.5 585.0Q867 605 850 622Q894 652 936.5 690.0Q979 728 1016.5 771.0Q1054 814 1085.0 861.5Q1116 909 1137 959H1022Q994 959 966.0 957.5Q938 956 910 956Q896 956 896 970V1057Q896 1071 910 1071Q941 1071 972.0 1069.5Q1003 1068 1034 1068V1112Q1034 1144 1032.5 1177.0Q1031 1210 1026 1242Q1033 1242 1056.0 1241.0Q1079 1240 1103.5 1238.0Q1128 1236 1147.0 1231.0Q1166 1226 1166 1219Q1166 1211 1164.5 1207.0Q1163 1203 1160 1197Q1153 1181 1151.5 1156.0Q1150 1131 1150 1107V1068H1182Q1193 1068 1203.0 1072.5Q1213 1077 1224 1077Q1231 1077 1242.5 1068.5Q1254 1060 1265.0 1048.0Q1276 1036 1284.5 1024.0Q1293 1012 1293 1005Q1293 997 1288.0 992.0Q1283 987 1278 982Q1268 973 1254.5 949.0Q1241 925 1227.0 897.0Q1213 869 1199.0 842.0Q1185 815 1175 800Q1206 758 1244.5 724.0Q1283 690 1326 661Q1307 645 1292.5 626.0Q1278 607 1265 587Q1263 583 1258.5 576.5Q1254 570 1249 570Q1241 570 1226.0 585.5Q1211 601 1195.0 621.0Q1179 641 1166.0 660.0Q1153 679 1149 687ZM1440 843H1719V1077H1440Z" style="fill:#ffffff;stroke:none" transform="scale(1,-1) translate(0,-256)" /></svg>