<?xml version="1.0" encoding="utf-8" ?>
<svg baseProfile="full" height="256" version="1.1" width="256" xmlns="http://www.w3.org/2000/svg" xmlns:ev="http://www.w3.org/2001/xml-events" xmlns:xlink="http://www.w3.org/1999/xlink"><defs /><path d="M2273 934Q2316 933 2354.5 915.5Q2393 898 2422.0 869.0Q2451 840 2467.5 801.5Q2484 763 2484 719V211Q2519 176 2537.5 130.5Q2556 85 2556 36Q2556 -13 2537.5 -59.0Q2519 -105 2484 -140V-431H1909V-216H903V-431H328V-140Q293 -105 274.5 -59.0Q256 -13 256 36Q256 85 274.5 130.5Q293 176 328 211V719Q328 763 344.5 801.5Q361 840 390.0 869.0Q419 898 457.0 915.5Q495 933 539 934Q566 1043 593.5 1150.0Q621 1257 647 1366H994Q1021 1420 1048.0 1473.5Q1075 1527 1101 1581H1710L1818 1366H2165Q2191 1257 2218.5 1150.0Q2246 1043 2273 934Z" style="fill:#000000;stroke:none" transform="scale(1,-1) translate(0,-256)" /></svg>