<?xml version="1.0" encoding="utf-8" ?>
<svg baseProfile="full" height="256" version="1.1" width="256" xmlns="http://www.w3.org/2000/svg" xmlns:ev="http://www.w3.org/2001/xml-events" xmlns:xlink="http://www.w3.org/1999/xlink"><defs /><path d="M1729 431Q1751 431 1771.0 422.5Q1791 414 1805.5 399.5Q1820 385 1828.5 365.0Q1837 345 1837 323Q1837 300 1828.5 280.5Q1820 261 1805.0 247.0Q1790 233 1770.5 224.5Q1751 216 1729 216H1083Q1061 216 1041.5 224.5Q1022 233 1007.0 247.0Q992 261 983.5 280.5Q975 300 975 323Q975 345 983.5 365.0Q992 385 1006.5 399.5Q1021 414 1040.5 422.5Q1060 431 1083 431ZM1693 1294V1222H1118V1294L1193 1344H1607ZM543 791H651L615 647H543Q514 647 493.0 668.5Q472 690 472 719Q472 748 493.0 769.5Q514 791 543 791ZM2268 791Q2297 791 2318.5 769.5Q2340 748 2340 719Q2340 689 2319.0 668.0Q2298 647 2268 647H2197L2161 791Z" style="fill:#757575;stroke:none" transform="scale(1,-1) translate(0,-256)" /></svg>