<?xml version="1.0" encoding="utf-8" ?>
<svg baseProfile="full" height="256" version="1.1" width="256" xmlns="http://www.w3.org/2000/svg" xmlns:ev="http://www.w3.org/2001/xml-events" xmlns:xlink="http://www.w3.org/1999/xlink"><defs /><path d="M687 -187V1294H1550V-187Q1544 -190 1521.0 -198.0Q1498 -206 1466.0 -217.0Q1434 -228 1398.5 -240.5Q1363 -253 1333.0 -263.5Q1303 -274 1283.0 -280.5Q1263 -287 1262 -287H974Q972 -287 952.5 -280.5Q933 -274 904.5 -263.5Q876 -253 842.0 -241.0Q808 -229 777.0 -218.0Q746 -207 721.5 -198.5Q697 -190 687 -187Z" style="fill:#e5e5e5;stroke:none" transform="scale(1,-1) translate(0,-256)" /></svg>