<?xml version="1.0" encoding="utf-8" ?>
<svg baseProfile="full" height="256" version="1.1" width="256" xmlns="http://www.w3.org/2000/svg" xmlns:ev="http://www.w3.org/2001/xml-events" xmlns:xlink="http://www.w3.org/1999/xlink"><defs /><path d="M759 -287V0H903V-287ZM1622 -287V0H1765V-287ZM759 1006V1150H903V1006ZM1334 719V863H1478V719ZM759 144V288H903V144ZM1334 431V575H1478V431ZM1909 431V575H2053V431ZM1909 1006V1150H2053V1006ZM1909 144V288H2053V144ZM1334 1006V1150H1478V1006ZM1334 144V288H1478V144ZM759 431V575H903V431ZM1334 -144V0H1478V-144ZM1909 -144V0H2053V-144ZM1909 719V863H2053V719ZM1622 431V575H1765V431ZM1622 719V863H1765V719ZM1047 719V863H1190V719ZM2197 719V863H2340V719ZM472 431V575H615V431ZM1047 -144V0H1190V-144ZM2197 1294V1438H2340V1294ZM2197 -144V0H2340V-144ZM1047 144V288H1190V144ZM2197 1006V1150H2340V1006ZM2197 431V575H2340V431ZM2197 144V288H2340V144ZM472 144V288H615V144ZM1622 144V288H1765V144ZM1047 431V575H1190V431ZM472 -144V0H615V-144ZM1047 1006V1150H1190V1006ZM831 719 759 791V863H903V719Z" style="fill:#31d2f7;stroke:none" transform="scale(1,-1) translate(0,-256)" /></svg>