<?xml version="1.0" encoding="utf-8" ?>
<svg baseProfile="full" height="256" version="1.1" width="256" xmlns="http://www.w3.org/2000/svg" xmlns:ev="http://www.w3.org/2001/xml-events" xmlns:xlink="http://www.w3.org/1999/xlink"><defs /><path d="M2268 -72Q2268 -114 2251.5 -153.0Q2235 -192 2207.0 -222.0Q2179 -252 2141.0 -269.5Q2103 -287 2060 -287Q2011 -287 1970.5 -270.5Q1930 -254 1900.5 -224.5Q1871 -195 1854.5 -154.0Q1838 -113 1838 -64V935Q1844 944 1857.5 949.0Q1871 954 1887.5 957.0Q1904 960 1919.5 961.0Q1935 962 1945 962Q1955 962 1971.0 961.0Q1987 960 2003.5 957.0Q2020 954 2034.0 949.0Q2048 944 2054 935L2264 -35Q2268 -51 2268 -72Z" style="fill:#b4a0ff;stroke:none" transform="scale(1,-1) translate(0,-256)" /></svg>