<?xml version="1.0" encoding="utf-8" ?>
<svg baseProfile="full" height="256" version="1.1" width="256" xmlns="http://www.w3.org/2000/svg" xmlns:ev="http://www.w3.org/2001/xml-events" xmlns:xlink="http://www.w3.org/1999/xlink"><defs /><path d="M1334 1438Q1362 1379 1408.0 1326.5Q1454 1274 1511.0 1235.0Q1568 1196 1633.5 1173.0Q1699 1150 1766 1150V1008Q1766 904 1726.5 812.0Q1687 720 1618.5 651.5Q1550 583 1458.5 543.0Q1367 503 1263 503Q1159 503 1067.0 543.0Q975 583 907.0 651.5Q839 720 799.5 812.0Q760 904 760 1008V1150Q865 1152 939.5 1208.0Q1014 1264 1045 1364Q1064 1327 1097.0 1300.5Q1130 1274 1169.5 1256.5Q1209 1239 1252.0 1230.5Q1295 1222 1334 1222ZM1406 431Q1435 431 1456.0 410.0Q1477 389 1477 360Q1477 344 1469 328L1325 40Q1316 22 1299.0 11.0Q1282 0 1262 0Q1241 0 1224.0 10.5Q1207 21 1198 40L1054 328Q1046 344 1046 360Q1046 389 1067.5 410.0Q1089 431 1118 431ZM2413 1006Q2413 977 2391.5 956.0Q2370 935 2341 935H1838Q1838 980 1855.0 1019.0Q1872 1058 1901.5 1087.0Q1931 1116 1970.0 1133.0Q2009 1150 2054 1150Q2099 1150 2141.0 1131.0Q2183 1112 2213 1078H2341Q2371 1078 2392.0 1057.0Q2413 1036 2413 1006Z" style="fill:#ffc83d;stroke:none" transform="scale(1,-1) translate(0,-256)" /></svg>