<?xml version="1.0" encoding="utf-8" ?>
<svg baseProfile="full" height="256" version="1.1" width="256" xmlns="http://www.w3.org/2000/svg" xmlns:ev="http://www.w3.org/2001/xml-events" xmlns:xlink="http://www.w3.org/1999/xlink"><defs /><path d="M1407 791Q1407 761 1395.5 735.0Q1384 709 1364.5 689.5Q1345 670 1319.0 658.5Q1293 647 1263 647Q1233 647 1207.0 658.5Q1181 670 1161.5 689.5Q1142 709 1130.5 735.0Q1119 761 1119 791ZM1478 1150Q1508 1150 1529.0 1129.0Q1550 1108 1550 1078V1006Q1550 977 1528.5 956.0Q1507 935 1478 935Q1449 935 1427.5 956.0Q1406 977 1406 1006V1078Q1406 1108 1427.0 1129.0Q1448 1150 1478 1150ZM1047 1150Q1076 1150 1097.0 1128.5Q1118 1107 1118 1078V1006Q1118 977 1097.0 956.0Q1076 935 1047 935Q1018 935 996.5 956.0Q975 977 975 1006V1078Q975 1108 996.0 1129.0Q1017 1150 1047 1150Z" style="fill:#000000;stroke:none" transform="scale(1,-1) translate(0,-256)" /></svg>