<?xml version="1.0" encoding="utf-8" ?>
<svg baseProfile="full" height="256" version="1.1" width="256" xmlns="http://www.w3.org/2000/svg" xmlns:ev="http://www.w3.org/2001/xml-events" xmlns:xlink="http://www.w3.org/1999/xlink"><defs /><path d="M2557 1006Q2557 962 2540.0 922.5Q2523 883 2493.5 854.0Q2464 825 2424.5 808.0Q2385 791 2341 791H2230L2390 14Q2395 -8 2400.0 -31.0Q2405 -54 2405 -77Q2405 -149 2378.5 -213.5Q2352 -278 2306.0 -326.5Q2260 -375 2196.5 -403.0Q2133 -431 2060 -431H257V-48Q257 19 271.5 85.0Q286 151 313.5 211.5Q341 272 381.5 326.0Q422 380 473 424V1078Q473 1187 501.5 1288.0Q530 1389 581.5 1477.0Q633 1565 705.0 1637.0Q777 1709 865.0 1760.5Q953 1812 1054.0 1840.5Q1155 1869 1264 1869Q1397 1869 1519.5 1827.0Q1642 1785 1742.0 1709.5Q1842 1634 1915.5 1528.0Q1989 1422 2025 1293Q2033 1294 2040.5 1294.5Q2048 1295 2056 1295Q2113 1295 2168.0 1275.5Q2223 1256 2268 1222H2341Q2386 1222 2425.0 1205.0Q2464 1188 2493.5 1158.5Q2523 1129 2540.0 1090.0Q2557 1051 2557 1006Z" style="fill:#000000;stroke:none" transform="scale(1,-1) translate(0,-256)" /></svg>