<?xml version="1.0" encoding="utf-8" ?>
<svg baseProfile="full" height="256" version="1.1" width="256" xmlns="http://www.w3.org/2000/svg" xmlns:ev="http://www.w3.org/2001/xml-events" xmlns:xlink="http://www.w3.org/1999/xlink"><defs /><path d="M1838 288H616V1078Q616 1167 639.0 1250.0Q662 1333 704.5 1404.5Q747 1476 806.0 1535.0Q865 1594 936.5 1636.5Q1008 1679 1091.0 1702.0Q1174 1725 1263 1725Q1352 1725 1435.0 1702.0Q1518 1679 1589.5 1636.5Q1661 1594 1720.0 1535.0Q1779 1476 1821.5 1404.5Q1864 1333 1887.0 1250.0Q1910 1167 1910 1078V289Q1892 289 1874.0 288.5Q1856 288 1838 288Z" style="fill:#8e562e;stroke:none" transform="scale(1,-1) translate(0,-256)" /></svg>