<?xml version="1.0" encoding="utf-8" ?>
<svg baseProfile="full" height="256" version="1.1" width="256" xmlns="http://www.w3.org/2000/svg" xmlns:ev="http://www.w3.org/2001/xml-events" xmlns:xlink="http://www.w3.org/1999/xlink"><defs /><path d="M1154 897Q1113 918 1079.5 948.5Q1046 979 1023.0 1016.5Q1000 1054 987.5 1097.0Q975 1140 975 1187Q975 1261 1009 1331Q1027 1368 1044.5 1408.5Q1062 1449 1086 1483L1429 1430L1645 1205L1655 1176L1587 1042Q1539 948 1461.0 905.5Q1383 863 1280 863Q1260 880 1235.0 890.0Q1210 900 1184 900Q1169 900 1154 897ZM2304 1725Q2319 1725 2329.5 1714.5Q2340 1704 2340 1689V1079Q2340 1059 2333.0 1040.0Q2326 1021 2312 1007L1571 266Q1536 231 1493.5 202.0Q1451 173 1412 144Q1383 144 1356.5 158.0Q1330 172 1316 198L1262 144L607 296L759 575Q779 611 799.0 638.0Q819 665 843.5 683.0Q868 701 899.5 710.0Q931 719 975 719H1576L2125 1121V1438L2275 1708Q2284 1725 2304 1725Z" style="fill:#ffc83d;stroke:none" transform="scale(1,-1) translate(0,-256)" /></svg>