<?xml version="1.0" encoding="utf-8" ?>
<svg baseProfile="full" height="256" version="1.1" width="256" xmlns="http://www.w3.org/2000/svg" xmlns:ev="http://www.w3.org/2001/xml-events" xmlns:xlink="http://www.w3.org/1999/xlink"><defs /><path d="M2268 1474Q2268 1427 2252.0 1385.0Q2236 1343 2207.0 1309.0Q2178 1275 2138.5 1253.0Q2099 1231 2053 1225Q2050 1228 2045.5 1233.5Q2041 1239 2036.0 1244.0Q2031 1249 2025.5 1253.0Q2020 1257 2016 1257Q2008 1257 1997.0 1244.0Q1986 1231 1981 1225Q1934 1231 1894.5 1253.0Q1855 1275 1826.5 1309.0Q1798 1343 1781.5 1385.0Q1765 1427 1765 1474Q1765 1521 1781.5 1563.0Q1798 1605 1827.0 1638.0Q1856 1671 1895.5 1693.5Q1935 1716 1981 1723Q1984 1720 1988.5 1716.0Q1993 1712 1998.5 1707.5Q2004 1703 2009.0 1700.0Q2014 1697 2018 1697Q2026 1697 2037.0 1707.0Q2048 1717 2053 1723Q2099 1716 2138.5 1693.5Q2178 1671 2206.5 1638.0Q2235 1605 2251.5 1563.0Q2268 1521 2268 1474Z" style="fill:#fff100;stroke:none" transform="scale(1,-1) translate(0,-256)" /></svg>