<?xml version="1.0" encoding="utf-8" ?>
<svg baseProfile="full" height="256" version="1.1" width="256" xmlns="http://www.w3.org/2000/svg" xmlns:ev="http://www.w3.org/2001/xml-events" xmlns:xlink="http://www.w3.org/1999/xlink"><defs /><path d="M400 288Q415 288 433.5 294.5Q452 301 464 309L816 553Q829 561 840.0 568.0Q851 575 867 575Q897 575 918.0 554.0Q939 533 939 503V396Q939 373 947.5 353.5Q956 334 970.5 319.5Q985 305 1004.5 296.5Q1024 288 1047 288Q1061 288 1080.0 294.5Q1099 301 1111 309L1462 553Q1475 561 1486.5 568.0Q1498 575 1514 575Q1543 575 1564.5 553.5Q1586 532 1586 503V396Q1586 374 1594.5 354.5Q1603 335 1617.0 320.0Q1631 305 1650.5 296.5Q1670 288 1693 288Q1707 288 1726.5 294.5Q1746 301 1758 309L2109 553Q2123 563 2134.0 569.0Q2145 575 2161 575Q2190 575 2211.5 553.5Q2233 532 2233 503V396Q2233 374 2241.5 354.5Q2250 335 2264.0 320.0Q2278 305 2297.5 296.5Q2317 288 2340 288H2412V30Q2412 28 2406.0 2.5Q2400 -23 2392.5 -53.5Q2385 -84 2378.0 -111.0Q2371 -138 2369 -144H488L400 -20Z" style="fill:#00bcf2;stroke:none" transform="scale(1,-1) translate(0,-256)" /></svg>