<?xml version="1.0" encoding="utf-8" ?>
<svg baseProfile="full" height="256" version="1.1" width="256" xmlns="http://www.w3.org/2000/svg" xmlns:ev="http://www.w3.org/2001/xml-events" xmlns:xlink="http://www.w3.org/1999/xlink"><defs /><path d="M2125 1510Q2140 1510 2150.5 1499.5Q2161 1489 2161 1474Q2161 1459 2150.5 1448.5Q2140 1438 2125 1438H1909Q1894 1438 1883.5 1448.5Q1873 1459 1873 1474Q1873 1489 1883.5 1499.5Q1894 1510 1909 1510ZM2017 1366Q2032 1366 2042.5 1355.5Q2053 1345 2053 1330V1225Q2035 1222 2017 1222Q1999 1222 1981 1225V1330Q1981 1345 1991.5 1355.5Q2002 1366 2017 1366ZM2017 1583Q2003 1583 1992.0 1593.5Q1981 1604 1981 1618V1723Q1990 1724 1999.0 1725.0Q2008 1726 2017 1726Q2026 1726 2035.0 1725.0Q2044 1724 2053 1723V1618Q2053 1604 2042.0 1593.5Q2031 1583 2017 1583Z" style="fill:#0063b1;stroke:none" transform="scale(1,-1) translate(0,-256)" /></svg>