<?xml version="1.0" encoding="utf-8" ?>
<svg baseProfile="full" height="256" version="1.1" width="256" xmlns="http://www.w3.org/2000/svg" xmlns:ev="http://www.w3.org/2001/xml-events" xmlns:xlink="http://www.w3.org/1999/xlink"><defs /><path d="M1371 1653Q1437 1653 1496.0 1627.5Q1555 1602 1598.5 1558.0Q1642 1514 1667.5 1455.0Q1693 1396 1693 1330Q1693 1287 1682.0 1251.0Q1671 1215 1655 1176L1559 1228L1452 1117Q1435 1099 1415.5 1088.5Q1396 1078 1370 1078Q1348 1078 1328.5 1086.5Q1309 1095 1294.0 1110.0Q1279 1125 1270.5 1144.5Q1262 1164 1262 1186V1388L1086 1483Q1107 1522 1137.5 1553.5Q1168 1585 1205.0 1607.0Q1242 1629 1284.5 1641.0Q1327 1653 1371 1653Z" style="fill:#f03a17;stroke:none" transform="scale(1,-1) translate(0,-256)" /></svg>