<?xml version="1.0" encoding="utf-8" ?>
<svg baseProfile="full" height="256" version="1.1" width="256" xmlns="http://www.w3.org/2000/svg" xmlns:ev="http://www.w3.org/2001/xml-events" xmlns:xlink="http://www.w3.org/1999/xlink"><defs /><path d="M2233 -72Q2253 -72 2277.5 -60.5Q2302 -49 2326.5 -32.5Q2351 -16 2373.5 1.0Q2396 18 2412 30V-287H400V-20L712 197Q723 205 734.0 210.5Q745 216 759 216Q789 216 810.0 195.0Q831 174 831 144V36Q831 14 839.5 -5.5Q848 -25 863.0 -40.0Q878 -55 897.5 -63.5Q917 -72 939 -72Q954 -72 972.0 -66.0Q990 -60 1003 -51L1359 197Q1370 205 1381.0 210.5Q1392 216 1406 216Q1436 216 1457.0 195.0Q1478 174 1478 144V36Q1478 14 1486.5 -5.5Q1495 -25 1510.0 -40.0Q1525 -55 1544.5 -63.5Q1564 -72 1586 -72Q1600 -72 1619.0 -65.5Q1638 -59 1650 -51L2001 194Q2012 202 2025.0 209.0Q2038 216 2053 216Q2083 216 2104.0 195.0Q2125 174 2125 144V36Q2125 14 2133.5 -5.5Q2142 -25 2157.0 -40.0Q2172 -55 2191.5 -63.5Q2211 -72 2233 -72Z" style="fill:#69eaff;stroke:none" transform="scale(1,-1) translate(0,-256)" /></svg>