<?xml version="1.0" encoding="utf-8" ?>
<svg baseProfile="full" height="256" version="1.1" width="256" xmlns="http://www.w3.org/2000/svg" xmlns:ev="http://www.w3.org/2001/xml-events" xmlns:xlink="http://www.w3.org/1999/xlink"><defs /><path d="M2556 428V-431H256V428H388Q439 464 490.0 501.0Q541 538 595 572Q629 634 661.0 686.0Q693 738 733.5 776.0Q774 814 828.5 835.5Q883 857 962 859Q899 925 865.0 1009.5Q831 1094 831 1185Q831 1294 880 1392Q909 1452 939.5 1512.5Q970 1573 1012 1625Q1078 1706 1172.0 1750.0Q1266 1794 1371 1794Q1459 1794 1536.5 1763.5Q1614 1733 1680 1676Q1707 1720 1743.5 1755.5Q1780 1791 1823.5 1816.5Q1867 1842 1916.0 1855.5Q1965 1869 2017 1869Q2063 1869 2106.5 1857.0Q2150 1845 2191 1825Q2215 1845 2243.5 1857.0Q2272 1869 2304 1869Q2341 1869 2374.0 1854.0Q2407 1839 2431.5 1814.0Q2456 1789 2470.0 1756.0Q2484 1723 2484 1686V1076Q2484 1030 2467.0 984.0Q2450 938 2418 906L2219 707Q2253 697 2282.0 677.0Q2311 657 2332.0 629.5Q2353 602 2364.5 569.0Q2376 536 2376 500V428Z" style="fill:#000000;stroke:none" transform="scale(1,-1) translate(0,-256)" /></svg>