<?xml version="1.0" encoding="utf-8" ?>
<svg baseProfile="full" height="256" version="1.1" width="256" xmlns="http://www.w3.org/2000/svg" xmlns:ev="http://www.w3.org/2001/xml-events" xmlns:xlink="http://www.w3.org/1999/xlink"><defs /><path d="M1729 1725Q1811 1725 1886.5 1698.5Q1962 1672 2024.0 1625.0Q2086 1578 2131.0 1511.5Q2176 1445 2197 1366H2053Q2024 1366 1998.5 1376.5Q1973 1387 1953.5 1406.0Q1934 1425 1922.0 1450.0Q1910 1475 1909 1504V1366H1837Q1808 1366 1782.5 1376.5Q1757 1387 1737.5 1406.0Q1718 1425 1706.0 1450.0Q1694 1475 1693 1504V1366H975V1504Q974 1475 962.0 1450.0Q950 1425 930.5 1406.0Q911 1387 885.5 1376.5Q860 1366 831 1366H759V1504Q758 1475 746.0 1450.0Q734 1425 714.5 1406.0Q695 1387 669.5 1376.5Q644 1366 615 1366H472Q493 1445 537.5 1511.5Q582 1578 644.0 1625.0Q706 1672 781.5 1698.5Q857 1725 939 1725Q998 1725 1054.5 1711.0Q1111 1697 1162.0 1670.5Q1213 1644 1256.5 1606.0Q1300 1568 1334 1520Q1368 1568 1412.0 1606.0Q1456 1644 1507.0 1670.5Q1558 1697 1614.0 1711.0Q1670 1725 1729 1725Z" style="fill:#73aa24;stroke:none" transform="scale(1,-1) translate(0,-256)" /></svg>