<?xml version="1.0" encoding="utf-8" ?>
<svg baseProfile="full" height="256" version="1.1" width="256" xmlns="http://www.w3.org/2000/svg" xmlns:ev="http://www.w3.org/2001/xml-events" xmlns:xlink="http://www.w3.org/1999/xlink"><defs /><path d="M2065 1222Q2094 1159 2109.5 1091.0Q2125 1023 2125 954Q2125 880 2110.5 819.5Q2096 759 2071.5 703.5Q2047 648 2014.5 594.0Q1982 540 1946 478L1565 860L1629 -431H1039L1103 860L722 478Q686 540 653.5 594.5Q621 649 596.5 704.5Q572 760 557.5 820.5Q543 881 543 955Q543 1024 558.5 1091.5Q574 1159 603 1222H285L333 1402Q361 1505 418.5 1591.0Q476 1677 556.0 1739.0Q636 1801 733.5 1835.0Q831 1869 939 1869Q1047 1869 1148.5 1832.5Q1250 1796 1334 1728Q1418 1796 1519.5 1832.5Q1621 1869 1729 1869Q1837 1869 1934.5 1835.0Q2032 1801 2112.0 1739.0Q2192 1677 2249.5 1591.0Q2307 1505 2335 1402L2383 1222Z" style="fill:#000000;stroke:none" transform="scale(1,-1) translate(0,-256)" /></svg>