<?xml version="1.0" encoding="utf-8" ?>
<svg baseProfile="full" height="256" version="1.1" width="256" xmlns="http://www.w3.org/2000/svg" xmlns:ev="http://www.w3.org/2001/xml-events" xmlns:xlink="http://www.w3.org/1999/xlink"><defs /><path d="M1981 955Q1981 891 1964.5 829.0Q1948 767 1916 712L1814 813Q1794 833 1783.0 859.5Q1772 886 1772 915Q1772 944 1783.0 970.5Q1794 997 1814 1017L1712 915Q1694 932 1677.5 948.0Q1661 964 1648.0 981.5Q1635 999 1627.0 1019.5Q1619 1040 1619 1067Q1619 1096 1630.0 1122.5Q1641 1149 1661 1169Q1647 1159 1634.0 1143.0Q1621 1127 1609.0 1109.0Q1597 1091 1587.5 1072.5Q1578 1054 1572 1039Q1549 1040 1525.0 1041.0Q1501 1042 1478 1042H1190Q1165 1042 1137.0 1037.5Q1109 1033 1084 1030L1079 1097L1007 1169Q1027 1149 1038.0 1122.5Q1049 1096 1049 1067Q1049 1040 1041.0 1019.5Q1033 999 1020.0 981.5Q1007 964 990.5 948.0Q974 932 956 915L854 1017Q874 997 885.0 970.5Q896 944 896 915Q896 886 885.0 859.5Q874 833 854 813L753 712Q721 768 704.0 829.5Q687 891 687 955Q687 1055 725.0 1143.0Q763 1231 828.5 1296.5Q894 1362 982.0 1400.0Q1070 1438 1170 1438Q1255 1438 1334 1409Q1415 1438 1498 1438Q1598 1438 1686.0 1400.0Q1774 1362 1839.5 1296.0Q1905 1230 1943.0 1142.0Q1981 1054 1981 955Z" style="fill:#8cbd18;stroke:none" transform="scale(1,-1) translate(0,-256)" /></svg>