<?xml version="1.0" encoding="utf-8" ?>
<svg baseProfile="full" height="256" version="1.1" width="256" xmlns="http://www.w3.org/2000/svg" xmlns:ev="http://www.w3.org/2001/xml-events" xmlns:xlink="http://www.w3.org/1999/xlink"><defs /><path d="M1190 503Q1175 503 1151.0 508.5Q1127 514 1103.5 524.5Q1080 535 1063.0 550.0Q1046 565 1046 583Q1046 597 1056.5 607.0Q1067 617 1081 617Q1090 617 1099.5 610.0Q1109 603 1121.5 595.0Q1134 587 1150.5 580.0Q1167 573 1190 573Q1213 573 1229.5 580.0Q1246 587 1259.0 595.0Q1272 603 1281.5 610.0Q1291 617 1300 617Q1314 617 1324.0 607.0Q1334 597 1334 583Q1334 565 1317.0 550.0Q1300 535 1276.5 524.5Q1253 514 1229.0 508.5Q1205 503 1190 503ZM1261 791Q1261 762 1240.0 740.5Q1219 719 1190 719Q1160 719 1139.0 740.0Q1118 761 1118 791Z" style="fill:#00bcf2;stroke:none" transform="scale(1,-1) translate(0,-256)" /></svg>