<?xml version="1.0" encoding="utf-8" ?>
<svg baseProfile="full" height="256" version="1.1" width="256" xmlns="http://www.w3.org/2000/svg" xmlns:ev="http://www.w3.org/2001/xml-events" xmlns:xlink="http://www.w3.org/1999/xlink"><defs /><path d="M691 865Q645 947 627 1035Q636 1045 649.5 1063.0Q663 1081 675.5 1101.0Q688 1121 697.5 1140.0Q707 1159 707 1172Q707 1182 697.5 1194.0Q688 1206 674.5 1216.5Q661 1227 647.0 1235.5Q633 1244 624 1249Q642 1352 693.5 1439.5Q745 1527 820.5 1590.5Q896 1654 990.5 1689.5Q1085 1725 1190 1725Q1213 1725 1235.0 1723.5Q1257 1722 1280 1718Q1286 1700 1293.0 1684.5Q1300 1669 1310.0 1658.0Q1320 1647 1334.5 1641.0Q1349 1635 1371 1635Q1399 1635 1426.5 1638.0Q1454 1641 1482 1646Q1521 1623 1556.5 1594.0Q1592 1565 1622 1530Q1613 1495 1613 1460Q1613 1446 1615.0 1433.0Q1617 1420 1623 1407Q1629 1392 1646.5 1369.5Q1664 1347 1684.5 1323.5Q1705 1300 1725.5 1278.5Q1746 1257 1758 1244Q1762 1221 1763.5 1197.0Q1765 1173 1765 1150Q1765 1121 1762.0 1092.5Q1759 1064 1754 1035L1190 1222Z" style="fill:#c30052;stroke:none" transform="scale(1,-1) translate(0,-256)" /></svg>