<?xml version="1.0" encoding="utf-8" ?>
<svg baseProfile="full" height="256" version="1.1" width="256" xmlns="http://www.w3.org/2000/svg" xmlns:ev="http://www.w3.org/2001/xml-events" xmlns:xlink="http://www.w3.org/1999/xlink"><defs /><path d="M1334 1366Q1334 1336 1322.5 1309.5Q1311 1283 1291.5 1263.5Q1272 1244 1246.0 1233.0Q1220 1222 1190 1222Q1160 1222 1134.0 1233.5Q1108 1245 1088.5 1264.5Q1069 1284 1058.0 1310.0Q1047 1336 1047 1366Q1047 1396 1058.0 1422.0Q1069 1448 1088.5 1467.5Q1108 1487 1134.0 1498.5Q1160 1510 1190 1510Q1220 1510 1246.0 1498.5Q1272 1487 1291.5 1467.5Q1311 1448 1322.5 1422.0Q1334 1396 1334 1366ZM975 -287H903V288H975ZM1478 -287H1406V288H1478Z" style="fill:#c19c00;stroke:none" transform="scale(1,-1) translate(0,-256)" /></svg>