<?xml version="1.0" encoding="utf-8" ?>
<svg baseProfile="full" height="256" version="1.1" width="256" xmlns="http://www.w3.org/2000/svg" xmlns:ev="http://www.w3.org/2001/xml-events" xmlns:xlink="http://www.w3.org/1999/xlink"><defs /><path d="M1406 1006Q1435 1006 1456.5 985.0Q1478 964 1478 935V863Q1478 833 1457.0 812.0Q1436 791 1406 791Q1376 791 1355.0 812.0Q1334 833 1334 863V935Q1334 964 1355.5 985.0Q1377 1006 1406 1006ZM1047 863Q1047 834 1025.5 812.5Q1004 791 975 791Q945 791 924.0 812.0Q903 833 903 863V935Q903 964 924.5 985.0Q946 1006 975 1006Q1004 1006 1025.5 985.0Q1047 964 1047 935Z" style="fill:#000000;stroke:none" transform="scale(1,-1) translate(0,-256)" /></svg>