<?xml version="1.0" encoding="utf-8" ?>
<svg baseProfile="full" height="256" version="1.1" width="256" xmlns="http://www.w3.org/2000/svg" xmlns:ev="http://www.w3.org/2001/xml-events" xmlns:xlink="http://www.w3.org/1999/xlink"><defs /><path d="M1647 414Q1752 389 1840.0 331.5Q1928 274 1991.0 194.0Q2054 114 2089.5 15.0Q2125 -84 2125 -192V-431H256V-192Q256 -84 291.5 15.0Q327 114 390.0 194.0Q453 274 541.0 331.5Q629 389 734 414Q689 454 655.0 503.0Q621 552 597.0 606.0Q573 660 560.0 718.0Q547 776 544 836Q506 912 489.0 995.5Q472 1079 472 1164Q472 1209 480.0 1255.0Q488 1301 500 1344Q533 1460 599.5 1556.5Q666 1653 757.0 1722.5Q848 1792 958.5 1830.5Q1069 1869 1190 1869Q1286 1869 1376.5 1843.5Q1467 1818 1547.0 1772.0Q1627 1726 1693.5 1661.0Q1760 1596 1808.0 1518.0Q1856 1440 1882.5 1350.0Q1909 1260 1909 1163Q1909 1075 1892.0 994.5Q1875 914 1837 836Q1834 776 1821.0 718.0Q1808 660 1784.0 606.0Q1760 552 1726.0 503.0Q1692 454 1647 414Z" style="fill:#000000;stroke:none" transform="scale(1,-1) translate(0,-256)" /></svg>