<?xml version="1.0" encoding="utf-8" ?>
<svg baseProfile="full" height="256" version="1.1" width="256" xmlns="http://www.w3.org/2000/svg" xmlns:ev="http://www.w3.org/2001/xml-events" xmlns:xlink="http://www.w3.org/1999/xlink"><defs /><path d="M1190 1366 1693 1222 1655 863Q1650 815 1644.5 771.5Q1639 728 1622 681Q1566 534 1455.0 465.5Q1344 397 1190 397Q1037 397 925.5 467.0Q814 537 759 683Q748 713 740.0 745.0Q732 777 729 809Q727 823 727.5 836.0Q728 849 726 863L687 1222ZM1765 -287 1606 -178 1406 -287H975L805 -176L615 -287H400V-192Q400 -132 414.5 -74.5Q429 -17 457.0 35.0Q485 87 525.0 131.0Q565 175 615 208Q669 191 724.5 180.5Q780 170 837 170L975 288H1406L1546 190Q1601 190 1656.0 195.0Q1711 200 1765 208Q1816 175 1856.0 131.0Q1896 87 1923.5 35.5Q1951 -16 1966.0 -74.0Q1981 -132 1981 -192V-287Z" style="fill:#69eaff;stroke:none" transform="scale(1,-1) translate(0,-256)" /></svg>