<?xml version="1.0" encoding="utf-8" ?>
<svg baseProfile="full" height="256" version="1.1" width="256" xmlns="http://www.w3.org/2000/svg" xmlns:ev="http://www.w3.org/2001/xml-events" xmlns:xlink="http://www.w3.org/1999/xlink"><defs /><path d="M1693 1006V863Q1693 759 1653.5 667.0Q1614 575 1545.5 507.0Q1477 439 1385.5 399.5Q1294 360 1190 360Q1086 360 994.5 399.5Q903 439 834.5 507.5Q766 576 726.5 667.5Q687 759 687 863V1006H759V863Q759 805 774.0 750.5Q789 696 817.5 647.5Q846 599 885.5 558.5Q925 518 975 489V539Q975 561 983.5 581.0Q992 601 1006.5 615.5Q1021 630 1040.5 638.5Q1060 647 1083 647H1298Q1320 647 1340.0 638.5Q1360 630 1374.5 615.5Q1389 601 1397.5 581.0Q1406 561 1406 539V489Q1455 518 1495.0 558.5Q1535 599 1563.5 647.5Q1592 696 1607.0 750.5Q1622 805 1622 863V1006ZM1047 456Q1064 450 1082.0 445.5Q1100 441 1118 437Q1149 448 1168.5 474.0Q1188 500 1190 532Q1192 500 1212.0 474.0Q1232 448 1262 437Q1280 441 1298.5 445.5Q1317 450 1334 456V539Q1334 554 1323.5 564.5Q1313 575 1298 575H1083Q1068 575 1057.5 564.5Q1047 554 1047 539Z" style="fill:#006f94;stroke:none" transform="scale(1,-1) translate(0,-256)" /></svg>