<?xml version="1.0" encoding="utf-8" ?>
<svg baseProfile="full" height="256" version="1.1" width="256" xmlns="http://www.w3.org/2000/svg" xmlns:ev="http://www.w3.org/2001/xml-events" xmlns:xlink="http://www.w3.org/1999/xlink"><defs /><path d="M903 288 955 0 903 -287H615V208Q683 253 753.0 270.5Q823 288 903 288ZM1478 288Q1558 288 1628.0 270.5Q1698 253 1765 208V-287H1478L1449 -88Q1445 -63 1440.0 -39.0Q1435 -15 1435 11Q1435 34 1440.0 57.0Q1445 80 1449 103ZM1280 1717Q1387 1700 1481 1646L627 1035Q615 1092 615 1150Q615 1175 617.5 1199.5Q620 1224 624 1249ZM1754 1035Q1734 946 1689 866L1190 1222L1341 1330ZM1490 1436 1621 1530Q1675 1470 1709.0 1396.5Q1743 1323 1757 1244Z" style="fill:#970044;stroke:none" transform="scale(1,-1) translate(0,-256)" /></svg>