<?xml version="1.0" encoding="utf-8" ?>
<svg baseProfile="full" height="256" version="1.1" width="256" xmlns="http://www.w3.org/2000/svg" xmlns:ev="http://www.w3.org/2001/xml-events" xmlns:xlink="http://www.w3.org/1999/xlink"><defs /><path d="M1370 -72H1298Q1250 -72 1220.0 -42.0Q1190 -12 1190 36V108Q1190 123 1200.5 133.5Q1211 144 1226 144Q1249 144 1256.0 128.0Q1263 112 1263 92Q1263 81 1262.0 70.5Q1261 60 1261 52Q1261 32 1267.0 16.0Q1273 0 1298 0H1370Q1394 0 1401.0 17.0Q1408 34 1408 54Q1408 65 1407.0 75.5Q1406 86 1406 94Q1406 114 1412.0 129.0Q1418 144 1442 144Q1457 144 1467.5 133.5Q1478 123 1478 108V36Q1478 -12 1448.0 -42.0Q1418 -72 1370 -72Z" style="fill:#69eaff;stroke:none" transform="scale(1,-1) translate(0,-256)" /></svg>