<?xml version="1.0" encoding="utf-8" ?>
<svg baseProfile="full" height="256" version="1.1" width="256" xmlns="http://www.w3.org/2000/svg" xmlns:ev="http://www.w3.org/2001/xml-events" xmlns:xlink="http://www.w3.org/1999/xlink"><defs /><path d="M939 863Q961 863 980.5 854.5Q1000 846 1015.0 831.0Q1030 816 1038.5 796.5Q1047 777 1047 755V611Q1047 589 1038.5 569.5Q1030 550 1015.0 535.0Q1000 520 980.5 511.5Q961 503 939 503Q917 503 897.5 511.5Q878 520 863.0 535.0Q848 550 839.5 569.5Q831 589 831 611V755Q831 777 839.5 796.5Q848 816 863.0 831.0Q878 846 897.5 854.5Q917 863 939 863ZM1729 863Q1751 863 1770.5 854.5Q1790 846 1805.0 831.0Q1820 816 1828.5 796.5Q1837 777 1837 755V611Q1837 589 1828.5 569.5Q1820 550 1805.0 535.0Q1790 520 1770.5 511.5Q1751 503 1729 503Q1707 503 1687.5 511.5Q1668 520 1653.5 535.0Q1639 550 1630.5 569.5Q1622 589 1622 611V755Q1622 777 1630.5 796.5Q1639 816 1653.5 831.0Q1668 846 1687.5 854.5Q1707 863 1729 863Z" style="fill:#000000;stroke:none" transform="scale(1,-1) translate(0,-256)" /></svg>