<?xml version="1.0" encoding="utf-8" ?>
<svg baseProfile="full" height="256" version="1.1" width="256" xmlns="http://www.w3.org/2000/svg" xmlns:ev="http://www.w3.org/2001/xml-events" xmlns:xlink="http://www.w3.org/1999/xlink"><defs /><path d="M1298 1150Q1281 1150 1262.5 1153.5Q1244 1157 1227.5 1165.5Q1211 1174 1200.5 1188.0Q1190 1202 1190 1222H1298Q1328 1222 1354.0 1233.0Q1380 1244 1399.5 1263.5Q1419 1283 1430.5 1309.5Q1442 1336 1442 1366Q1442 1396 1430.5 1422.0Q1419 1448 1399.5 1467.5Q1380 1487 1354.0 1498.5Q1328 1510 1298 1510Q1276 1510 1256.5 1518.5Q1237 1527 1222.0 1541.5Q1207 1556 1198.5 1575.5Q1190 1595 1190 1617Q1190 1639 1198.5 1658.5Q1207 1678 1222.0 1693.0Q1237 1708 1256.5 1716.5Q1276 1725 1298 1725Q1358 1725 1410.5 1702.5Q1463 1680 1502.0 1641.0Q1541 1602 1563.5 1550.0Q1586 1498 1586 1438Q1586 1378 1563.5 1325.5Q1541 1273 1502.0 1234.0Q1463 1195 1410.5 1172.5Q1358 1150 1298 1150Z" style="fill:#d48c00;stroke:none" transform="scale(1,-1) translate(0,-256)" /></svg>