<?xml version="1.0" encoding="utf-8" ?>
<svg baseProfile="full" height="256" version="1.1" width="256" xmlns="http://www.w3.org/2000/svg" xmlns:ev="http://www.w3.org/2001/xml-events" xmlns:xlink="http://www.w3.org/1999/xlink"><defs /><path d="M1514 216Q1551 216 1583.5 202.0Q1616 188 1640.5 163.5Q1665 139 1679.0 106.0Q1693 73 1693 36Q1693 -1 1679.0 -34.0Q1665 -67 1640.5 -91.5Q1616 -116 1583.5 -130.0Q1551 -144 1514 -144H1154Q1117 -144 1084.5 -130.0Q1052 -116 1027.5 -91.5Q1003 -67 989.0 -34.0Q975 -1 975 36Q975 73 989.0 106.0Q1003 139 1027.5 163.5Q1052 188 1084.5 202.0Q1117 216 1154 216Z" style="fill:#00bcf2;stroke:none" transform="scale(1,-1) translate(0,-256)" /></svg>