<?xml version="1.0" encoding="utf-8" ?>
<svg baseProfile="full" height="256" version="1.1" width="256" xmlns="http://www.w3.org/2000/svg" xmlns:ev="http://www.w3.org/2001/xml-events" xmlns:xlink="http://www.w3.org/1999/xlink"><defs /><path d="M1334 -431Q1224 -431 1120.0 -406.5Q1016 -382 922.5 -336.5Q829 -291 747.5 -225.5Q666 -160 601.5 -78.5Q537 3 491.0 99.0Q445 195 422 303Q385 316 354.5 340.0Q324 364 302.0 395.0Q280 426 268.0 463.0Q256 500 256 539V755Q256 795 268.0 831.5Q280 868 302.0 899.0Q324 930 354.5 953.5Q385 977 422 991Q449 1113 506.5 1222.0Q564 1331 646.0 1421.0Q728 1511 831.5 1578.0Q935 1645 1055 1682Q1066 1723 1089.0 1757.5Q1112 1792 1144.5 1816.5Q1177 1841 1216.0 1855.0Q1255 1869 1298 1869Q1354 1869 1407.0 1855.0Q1460 1841 1507.5 1814.5Q1555 1788 1595.0 1750.0Q1635 1712 1665 1665Q1776 1623 1871.0 1556.0Q1966 1489 2041.5 1402.0Q2117 1315 2169.5 1211.0Q2222 1107 2247 991Q2284 977 2314.5 953.5Q2345 930 2366.5 899.0Q2388 868 2400.0 831.5Q2412 795 2412 755V539Q2412 500 2400.0 463.0Q2388 426 2366.0 395.0Q2344 364 2314.0 340.0Q2284 316 2247 303Q2212 141 2127.0 6.0Q2042 -129 1921.0 -226.0Q1800 -323 1649.5 -377.0Q1499 -431 1334 -431Z" style="fill:#000000;stroke:none" transform="scale(1,-1) translate(0,-256)" /></svg>