<?xml version="1.0" encoding="utf-8" ?>
<svg baseProfile="full" height="256" version="1.1" width="256" xmlns="http://www.w3.org/2000/svg" xmlns:ev="http://www.w3.org/2001/xml-events" xmlns:xlink="http://www.w3.org/1999/xlink"><defs /><path d="M2268 755V539Q2268 517 2259.5 497.5Q2251 478 2236.5 463.0Q2222 448 2202.5 439.5Q2183 431 2161 431H2121Q2112 329 2078.5 236.5Q2045 144 1991.5 64.5Q1938 -15 1866.5 -80.0Q1795 -145 1710.5 -191.0Q1626 -237 1531.0 -262.0Q1436 -287 1334 -287Q1232 -287 1137.0 -262.0Q1042 -237 957.5 -191.0Q873 -145 801.5 -80.0Q730 -15 676.5 64.5Q623 144 589.5 237.0Q556 330 547 431H508Q486 431 466.5 439.5Q447 448 432.0 463.0Q417 478 408.5 497.5Q400 517 400 539V755Q400 777 408.5 796.5Q417 816 432.0 831.0Q447 846 466.5 854.5Q486 863 508 863H547Q556 965 589.5 1057.5Q623 1150 676.5 1230.0Q730 1310 801.0 1374.5Q872 1439 956.5 1485.0Q1041 1531 1136.5 1556.0Q1232 1581 1334 1581Q1436 1581 1531.5 1556.0Q1627 1531 1711.5 1485.0Q1796 1439 1867.0 1374.5Q1938 1310 1991.5 1230.0Q2045 1150 2078.5 1057.5Q2112 965 2121 863H2161Q2183 863 2202.5 854.5Q2222 846 2236.5 831.0Q2251 816 2259.5 796.5Q2268 777 2268 755Z" style="fill:#ffc83d;stroke:none" transform="scale(1,-1) translate(0,-256)" /></svg>