<?xml version="1.0" encoding="utf-8" ?>
<svg baseProfile="full" height="256" version="1.1" width="256" xmlns="http://www.w3.org/2000/svg" xmlns:ev="http://www.w3.org/2001/xml-events" xmlns:xlink="http://www.w3.org/1999/xlink"><defs /><path d="M472 -431Q427 -431 388.0 -414.0Q349 -397 319.5 -367.5Q290 -338 273.0 -299.0Q256 -260 256 -215V1510Q256 1554 273.5 1593.0Q291 1632 320.5 1661.5Q350 1691 389.0 1708.0Q428 1725 472 1725H904Q955 1793 1030.0 1831.0Q1105 1869 1190 1869Q1275 1869 1350.5 1831.0Q1426 1793 1477 1725H1909Q1952 1725 1991.5 1708.0Q2031 1691 2060.5 1661.5Q2090 1632 2107.5 1593.0Q2125 1554 2125 1510V-215Q2125 -260 2108.0 -299.0Q2091 -338 2061.5 -367.5Q2032 -397 1993.0 -414.0Q1954 -431 1909 -431Z" style="fill:#000000;stroke:none" transform="scale(1,-1) translate(0,-256)" /></svg>