<?xml version="1.0" encoding="utf-8" ?>
<svg baseProfile="full" height="256" version="1.1" width="256" xmlns="http://www.w3.org/2000/svg" xmlns:ev="http://www.w3.org/2001/xml-events" xmlns:xlink="http://www.w3.org/1999/xlink"><defs /><path d="M1190 1725Q1235 1725 1274.0 1708.0Q1313 1691 1342.5 1662.0Q1372 1633 1389.0 1594.0Q1406 1555 1406 1510H1693V1294H687V1510H975Q975 1555 992.0 1594.0Q1009 1633 1038.0 1662.0Q1067 1691 1106.0 1708.0Q1145 1725 1190 1725ZM1190 1438Q1220 1438 1241.0 1459.0Q1262 1480 1262 1510Q1262 1539 1240.5 1560.0Q1219 1581 1190 1581Q1161 1581 1139.5 1560.0Q1118 1539 1118 1510Q1118 1481 1139.5 1459.5Q1161 1438 1190 1438ZM1693 0H1837L1693 -144Z" style="fill:#cccccc;stroke:none" transform="scale(1,-1) translate(0,-256)" /></svg>