<?xml version="1.0" encoding="utf-8" ?>
<svg baseProfile="full" height="256" version="1.1" width="256" xmlns="http://www.w3.org/2000/svg" xmlns:ev="http://www.w3.org/2001/xml-events" xmlns:xlink="http://www.w3.org/1999/xlink"><defs /><path d="M2268 144V39Q2235 20 2197 9V-287H2053L2015 -256L2053 -215V-144L1981 -72V0H1346Q1308 0 1271.5 4.0Q1235 8 1198 16Q1194 8 1182.5 -16.5Q1171 -41 1157.5 -68.0Q1144 -95 1132.5 -117.5Q1121 -140 1118 -144Q1112 -153 1092.0 -172.5Q1072 -192 1049.5 -214.5Q1027 -237 1005.5 -257.5Q984 -278 975 -287H831L792 -252Q840 -208 885.0 -162.5Q930 -117 975 -72V107Q931 135 897.0 167.0Q863 199 828.0 226.0Q793 253 751.5 270.5Q710 288 651 288L574 437Q616 479 658.0 513.5Q700 548 757 566Q762 568 776.0 571.5Q790 575 795 575H1837Q1926 575 2004.5 541.0Q2083 507 2141.5 448.5Q2200 390 2234.0 311.5Q2268 233 2268 144ZM500 374 472 288Q442 288 421.0 309.0Q400 330 400 360Z" style="fill:#383838;stroke:none" transform="scale(1,-1) translate(0,-256)" /></svg>