<?xml version="1.0" encoding="utf-8" ?>
<svg baseProfile="full" height="256" version="1.1" width="256" xmlns="http://www.w3.org/2000/svg" xmlns:ev="http://www.w3.org/2001/xml-events" xmlns:xlink="http://www.w3.org/1999/xlink"><defs /><path d="M2412 144V-144Q2382 -144 2356.0 -132.5Q2330 -121 2310.5 -101.5Q2291 -82 2279.5 -56.0Q2268 -30 2268 0V39L1067 575Q1104 575 1134.0 586.0Q1164 597 1194.0 610.5Q1224 624 1257.0 635.5Q1290 647 1334 647Q1371 647 1404.0 655.0Q1437 663 1470 679Q1527 706 1578.0 713.0Q1629 720 1683 720Q1705 720 1727.5 719.5Q1750 719 1774 719Q1831 719 1884.5 716.5Q1938 714 1993 697Q2134 655 2232.5 562.0Q2331 469 2381 330Q2397 286 2404.5 238.0Q2412 190 2412 144ZM795 503Q780 503 769.5 514.0Q759 525 759 539Q759 554 770 565L841 637Q851 647 867 647Q881 647 891.5 636.5Q902 626 902 611Q902 596 892 586L820 514Q809 503 795 503Z" style="fill:#757575;stroke:none" transform="scale(1,-1) translate(0,-256)" /></svg>