<?xml version="1.0" encoding="utf-8" ?>
<svg baseProfile="full" height="256" version="1.1" width="256" xmlns="http://www.w3.org/2000/svg" xmlns:ev="http://www.w3.org/2001/xml-events" xmlns:xlink="http://www.w3.org/1999/xlink"><defs /><path d="M615 -431V-287Q615 -253 625.5 -221.5Q636 -190 655.0 -163.0Q674 -136 700.5 -116.0Q727 -96 759 -84L831 -12V33Q810 49 790.0 68.5Q770 88 749.0 105.0Q728 122 704.5 133.0Q681 144 651 144H472Q427 144 388.0 161.0Q349 178 319.5 207.5Q290 237 273.0 276.0Q256 315 256 360V503H383Q401 526 417.5 549.0Q434 572 454 593Q507 647 575.5 678.5Q644 710 719 717Q735 734 751.0 747.5Q767 761 784.5 771.0Q802 781 822.0 786.0Q842 791 867 791Q909 791 947.0 772.0Q985 753 1011 719H1067Q1081 719 1094.5 725.0Q1108 731 1121 737Q1148 750 1173.0 760.0Q1198 770 1223.5 777.0Q1249 784 1276.0 787.5Q1303 791 1334 791Q1371 791 1404 807Q1448 828 1484.5 839.0Q1521 850 1555.5 855.5Q1590 861 1626.0 862.0Q1662 863 1704 863H1761Q1812 863 1862.5 861.5Q1913 860 1964 852Q2067 834 2164.5 784.0Q2262 734 2337 661Q2373 625 2400.5 590.5Q2428 556 2449.5 520.0Q2471 484 2488.5 444.0Q2506 404 2524 358Q2530 331 2536.0 307.0Q2542 283 2547 258Q2553 223 2555.0 187.5Q2557 152 2557 117Q2557 95 2556.5 73.5Q2556 52 2556 30V-287H2412Q2376 -287 2340 -278V-431Z" style="fill:#000000;stroke:none" transform="scale(1,-1) translate(0,-256)" /></svg>