<?xml version="1.0" encoding="utf-8" ?>
<svg baseProfile="full" height="256" version="1.1" width="256" xmlns="http://www.w3.org/2000/svg" xmlns:ev="http://www.w3.org/2001/xml-events" xmlns:xlink="http://www.w3.org/1999/xlink"><defs /><path d="M1370 180Q1295 205 1233.0 222.5Q1171 240 1116.0 252.0Q1061 264 1011.0 271.5Q961 279 910.5 283.0Q860 287 806.5 288.0Q753 289 691 289Q643 289 589.0 288.5Q535 288 472 288V360H400Q431 360 453.5 376.0Q476 392 496.0 416.0Q516 440 537.5 467.5Q559 495 588.5 519.0Q618 543 659.0 559.0Q700 575 759 575H795Q771 567 746.5 552.5Q722 538 699.5 519.5Q677 501 658.0 480.0Q639 459 625 437Q616 423 616 409Q616 392 622.5 382.5Q629 373 639.0 368.0Q649 363 662.0 361.5Q675 360 688 360H716Q742 360 761.5 370.5Q781 381 798.0 397.0Q815 413 831.5 431.5Q848 450 868.0 466.0Q888 482 913.5 492.5Q939 503 975 503Q1009 503 1041.0 490.0Q1073 477 1097 453ZM759 467Q759 453 748.0 442.0Q737 431 723 431Q709 431 698.0 442.0Q687 453 687 467Q687 482 697.5 492.5Q708 503 723 503Q738 503 748.5 492.5Q759 482 759 467Z" style="fill:#ffffff;stroke:none" transform="scale(1,-1) translate(0,-256)" /></svg>