<?xml version="1.0" encoding="utf-8" ?>
<svg baseProfile="full" height="256" version="1.1" width="256" xmlns="http://www.w3.org/2000/svg" xmlns:ev="http://www.w3.org/2001/xml-events" xmlns:xlink="http://www.w3.org/1999/xlink"><defs /><path d="M1262 288Q1230 288 1203.5 275.0Q1177 262 1158.0 240.0Q1139 218 1128.5 190.0Q1118 162 1118 131V-179Q1118 -233 1099.5 -277.5Q1081 -322 1048.0 -355.0Q1015 -388 970.5 -408.0Q926 -428 874 -431H866Q804 -431 751.0 -400.0Q698 -369 654.0 -318.5Q610 -268 574.0 -204.0Q538 -140 511.0 -73.5Q484 -7 465.0 56.5Q446 120 435 168Q419 242 409.5 316.5Q400 391 400 467V641Q357 728 329.5 810.5Q302 893 285.5 976.5Q269 1060 262.5 1147.0Q256 1234 256 1330Q256 1441 298.5 1539.5Q341 1638 414.0 1711.0Q487 1784 585.5 1826.5Q684 1869 795 1869H867Q922 1869 972.5 1861.5Q1023 1854 1071.0 1840.0Q1119 1826 1165.5 1806.0Q1212 1786 1260 1761Q1276 1761 1290.5 1772.0Q1305 1783 1319 1790Q1371 1815 1420.0 1831.0Q1469 1847 1519.0 1855.0Q1569 1863 1620.5 1866.0Q1672 1869 1729 1869Q1840 1869 1938.5 1826.5Q2037 1784 2110.0 1711.0Q2183 1638 2225.5 1539.5Q2268 1441 2268 1330V1258Q2268 1097 2232.0 941.0Q2196 785 2125 641V467Q2125 404 2114.5 321.0Q2104 238 2083.5 148.5Q2063 59 2031.0 -31.0Q1999 -121 1956.0 -198.0Q1913 -275 1858.5 -333.0Q1804 -391 1738 -416Q1718 -424 1699.5 -426.5Q1681 -429 1660 -431H1652Q1600 -428 1555.0 -408.5Q1510 -389 1477.0 -356.0Q1444 -323 1425.0 -278.0Q1406 -233 1406 -179V131Q1406 193 1371.5 234.0Q1337 275 1277 287Q1274 288 1269.5 288.0Q1265 288 1262 288Z" style="fill:#000000;stroke:none" transform="scale(1,-1) translate(0,-256)" /></svg>