<?xml version="1.0" encoding="utf-8" ?>
<svg baseProfile="full" height="256" version="1.1" width="256" xmlns="http://www.w3.org/2000/svg" xmlns:ev="http://www.w3.org/2001/xml-events" xmlns:xlink="http://www.w3.org/1999/xlink"><defs /><path d="M2125 1258Q2125 1143 2104.5 1031.5Q2084 920 2043 813Q2033 788 2022.5 763.5Q2012 739 2000 714Q1995 705 1989.5 696.0Q1984 687 1981 676Q1964 622 1948.0 567.5Q1932 513 1915 458Q1914 456 1914 452Q1914 442 1922.0 434.5Q1930 427 1941.0 421.5Q1952 416 1962.5 412.5Q1973 409 1979 408Q1972 280 1938 152Q1931 126 1917.5 83.0Q1904 40 1884.5 -8.5Q1865 -57 1840.5 -106.5Q1816 -156 1787.0 -196.5Q1758 -237 1725.5 -262.0Q1693 -287 1658 -287H1652Q1630 -287 1611.5 -278.0Q1593 -269 1579.5 -254.0Q1566 -239 1558.0 -219.5Q1550 -200 1550 -179V131Q1550 188 1531.0 239.0Q1512 290 1477.5 330.5Q1443 371 1395.5 397.0Q1348 423 1291 430Q1283 431 1276.5 431.0Q1270 431 1262 431Q1254 431 1247.5 431.0Q1241 431 1233 430Q1176 423 1128.5 397.0Q1081 371 1047.0 330.5Q1013 290 994.0 239.0Q975 188 975 131V-179Q975 -226 943.5 -256.5Q912 -287 866 -287Q831 -287 798.5 -261.5Q766 -236 737.5 -196.0Q709 -156 684.0 -106.5Q659 -57 639.5 -8.0Q620 41 606.5 83.5Q593 126 586 152Q569 215 559.0 278.5Q549 342 545 408Q549 408 559.0 410.5Q569 413 579.5 417.5Q590 422 598.0 428.5Q606 435 606 443Q606 444 605.5 445.0Q605 446 605 447Q589 504 574.5 561.5Q560 619 543 676Q539 689 529.5 705.0Q520 721 514 734Q503 758 493.0 783.0Q483 808 474 833Q400 1038 400 1258V1330Q400 1412 431.0 1484.0Q462 1556 515.5 1609.5Q569 1663 641.0 1694.0Q713 1725 795 1725H867Q938 1725 1007.0 1709.0Q1076 1693 1139 1661Q1169 1646 1198.0 1631.5Q1227 1617 1262 1617Q1297 1617 1326.0 1631.5Q1355 1646 1385 1661Q1429 1683 1470.5 1696.0Q1512 1709 1553.5 1715.5Q1595 1722 1638.0 1723.5Q1681 1725 1729 1725Q1811 1725 1883.0 1694.0Q1955 1663 2009.0 1609.5Q2063 1556 2094.0 1484.0Q2125 1412 2125 1330Z" style="fill:#f2f2f2;stroke:none" transform="scale(1,-1) translate(0,-256)" /></svg>