<?xml version="1.0" encoding="utf-8" ?>
<svg baseProfile="full" height="256" version="1.1" width="256" xmlns="http://www.w3.org/2000/svg" xmlns:ev="http://www.w3.org/2001/xml-events" xmlns:xlink="http://www.w3.org/1999/xlink"><defs /><path d="M1262 1330Q1164 1330 1072 1373Q1044 1386 1020.5 1398.0Q997 1410 973.5 1419.0Q950 1428 924.5 1433.0Q899 1438 867 1438Q837 1438 816.0 1459.0Q795 1480 795 1510Q795 1539 816.5 1560.0Q838 1581 867 1581Q921 1581 974.0 1568.5Q1027 1556 1076 1531Q1101 1518 1122.5 1507.5Q1144 1497 1165.5 1489.5Q1187 1482 1210.5 1478.0Q1234 1474 1262 1474Q1289 1474 1311.5 1478.0Q1334 1482 1354.0 1488.5Q1374 1495 1393.5 1504.5Q1413 1514 1436 1526L1452 1534Q1499 1558 1552.5 1569.5Q1606 1581 1658 1581Q1687 1581 1708.0 1560.0Q1729 1539 1729 1510Q1729 1481 1708.0 1459.5Q1687 1438 1658 1438Q1622 1438 1585.0 1430.0Q1548 1422 1516 1405L1453 1373Q1408 1350 1360.0 1340.0Q1312 1330 1262 1330ZM1981 674V467Q1981 455 1980.5 443.5Q1980 432 1979 420Q1979 404 1971.0 390.5Q1963 377 1950.5 367.0Q1938 357 1923.0 351.5Q1908 346 1895 346Q1864 346 1843.5 367.0Q1823 388 1823 419Q1823 443 1839 464Q1859 489 1877.5 513.0Q1896 537 1913 563Q1919 572 1928.5 588.5Q1938 605 1948.0 622.0Q1958 639 1967.0 654.0Q1976 669 1981 674ZM543 674Q547 669 556.5 654.0Q566 639 576.0 621.5Q586 604 595.5 587.5Q605 571 611 563Q628 537 646.5 512.5Q665 488 685 464Q701 443 701 419Q701 388 680.0 367.0Q659 346 629 346Q600 346 580.5 366.0Q561 386 546 408Q543 438 543 467Z" style="fill:#a6a6a6;stroke:none" transform="scale(1,-1) translate(0,-256)" /></svg>