<?xml version="1.0" encoding="utf-8" ?>
<svg baseProfile="full" height="256" version="1.1" width="256" xmlns="http://www.w3.org/2000/svg" xmlns:ev="http://www.w3.org/2001/xml-events" xmlns:xlink="http://www.w3.org/1999/xlink"><defs /><path d="M1406 -72Q1287 -72 1182.5 -26.5Q1078 19 1000.0 97.0Q922 175 876.5 279.5Q831 384 831 503H1981Q1981 384 1935.5 279.5Q1890 175 1812.0 97.0Q1734 19 1629.0 -26.5Q1524 -72 1406 -72ZM1334 899Q1334 879 1323.5 861.0Q1313 843 1294 834L759 575V647L1101 899L759 1150V1222L1294 963Q1312 954 1323.0 936.5Q1334 919 1334 899ZM2053 1222V1150L1710 899L2053 647V575L1518 834Q1499 843 1488.5 861.0Q1478 879 1478 899Q1478 919 1489.0 936.5Q1500 954 1518 963Z" style="fill:#000000;stroke:none" transform="scale(1,-1) translate(0,-256)" /></svg>