<?xml version="1.0" encoding="utf-8" ?>
<svg baseProfile="full" height="256" version="1.1" width="256" xmlns="http://www.w3.org/2000/svg" xmlns:ev="http://www.w3.org/2001/xml-events" xmlns:xlink="http://www.w3.org/1999/xlink"><defs /><path d="M1658 1797Q1695 1797 1727.5 1783.0Q1760 1769 1784.5 1744.5Q1809 1720 1823.0 1687.0Q1837 1654 1837 1617V1366Q1837 1284 1862.5 1208.5Q1888 1133 1933.5 1070.0Q1979 1007 2043.5 959.5Q2108 912 2186 887Q2234 872 2282.5 868.5Q2331 865 2381 861Q2418 858 2450.5 844.0Q2483 830 2506.0 807.0Q2529 784 2542.5 752.5Q2556 721 2556 682Q2556 644 2542.0 611.5Q2528 579 2503.5 554.5Q2479 530 2446.0 516.0Q2413 502 2376 502H2316Q2215 502 2128.0 460.5Q2041 419 1976.0 349.5Q1911 280 1874.0 189.5Q1837 99 1837 0V-251Q1837 -288 1823.0 -321.0Q1809 -354 1784.5 -378.5Q1760 -403 1727.5 -417.0Q1695 -431 1658 -431Q1620 -431 1587.5 -417.0Q1555 -403 1530.5 -378.5Q1506 -354 1492.0 -321.5Q1478 -289 1478 -251V-35Q1430 -72 1370 -72Q1350 -72 1330.5 -74.0Q1311 -76 1296.0 -83.0Q1281 -90 1271.5 -104.5Q1262 -119 1262 -144V-251Q1262 -288 1248.0 -321.0Q1234 -354 1209.5 -378.5Q1185 -403 1152.5 -417.0Q1120 -431 1083 -431Q1045 -431 1012.5 -417.0Q980 -403 955.5 -378.5Q931 -354 917.0 -321.5Q903 -289 903 -251V-144Q903 -114 882.0 -93.0Q861 -72 831 -72H795Q757 -72 724.5 -58.0Q692 -44 667.5 -19.5Q643 5 629.0 37.5Q615 70 615 108Q615 145 629.0 178.0Q643 211 667.5 235.5Q692 260 724.5 274.0Q757 288 795 288H831Q861 288 882.0 309.0Q903 330 903 360V503H865Q839 471 802.0 451.0Q765 431 723 431Q685 431 652.5 445.0Q620 459 595.5 483.5Q571 508 557.0 540.5Q543 573 543 611V719Q543 748 522.0 769.5Q501 791 472 791H436Q398 791 365.5 805.0Q333 819 308.5 843.5Q284 868 270.0 900.5Q256 933 256 971Q256 1008 270.0 1040.5Q284 1073 308.5 1097.5Q333 1122 366.0 1136.0Q399 1150 436 1150H472Q496 1150 510.5 1160.5Q525 1171 532.5 1187.0Q540 1203 542.5 1223.0Q545 1243 545 1262Q545 1279 544.0 1296.0Q543 1313 543 1330Q543 1367 557.0 1400.0Q571 1433 595.5 1457.5Q620 1482 652.5 1496.0Q685 1510 723 1510Q760 1510 793.0 1496.0Q826 1482 850.5 1457.5Q875 1433 889.0 1400.0Q903 1367 903 1330V1222Q903 1192 924.0 1171.0Q945 1150 975 1150H1011Q1048 1150 1080.5 1136.0Q1113 1122 1137.5 1097.5Q1162 1073 1176.0 1040.5Q1190 1008 1190 971Q1190 937 1178 907Q1246 937 1301.5 984.5Q1357 1032 1396.0 1092.0Q1435 1152 1456.5 1222.0Q1478 1292 1478 1366V1617Q1478 1654 1492.0 1687.0Q1506 1720 1530.5 1744.5Q1555 1769 1587.5 1783.0Q1620 1797 1658 1797Z" style="fill:#000000;stroke:none" transform="scale(1,-1) translate(0,-256)" /></svg>