<?xml version="1.0" encoding="utf-8" ?>
<svg baseProfile="full" height="256" version="1.1" width="256" xmlns="http://www.w3.org/2000/svg" xmlns:ev="http://www.w3.org/2001/xml-events" xmlns:xlink="http://www.w3.org/1999/xlink"><defs /><path d="M1658 1653Q1672 1653 1682.5 1642.0Q1693 1631 1693 1617V1366Q1693 1275 1716.5 1191.5Q1740 1108 1782.5 1036.5Q1825 965 1885.0 906.0Q1945 847 2017.5 805.5Q2090 764 2173.5 741.5Q2257 719 2348 719Q2358 719 2369.0 718.5Q2380 718 2389.5 714.0Q2399 710 2405.5 702.5Q2412 695 2412 682Q2412 658 2393.0 651.5Q2374 645 2352 645Q2341 645 2332.5 645.5Q2324 646 2316 646Q2230 646 2150.5 621.5Q2071 597 2002.0 553.0Q1933 509 1876.0 449.0Q1819 389 1778.5 317.0Q1738 245 1715.5 164.5Q1693 84 1693 0V-251Q1693 -265 1682.5 -276.0Q1672 -287 1658 -287Q1643 -287 1632.5 -276.5Q1622 -266 1622 -251V0Q1622 130 1573.5 245.5Q1525 361 1440.5 448.5Q1356 536 1242.5 588.5Q1129 641 999 646Q990 646 981.0 645.5Q972 645 963 645Q954 645 943.5 646.0Q933 647 924.0 651.0Q915 655 909.0 662.5Q903 670 903 682Q903 696 910.0 703.5Q917 711 927.0 714.5Q937 718 949.0 718.5Q961 719 971 719H975Q1064 719 1146.5 742.0Q1229 765 1301.0 807.5Q1373 850 1432.0 909.0Q1491 968 1533.5 1040.0Q1576 1112 1599.0 1194.5Q1622 1277 1622 1366V1617Q1622 1632 1632.5 1642.5Q1643 1653 1658 1653Z" style="fill:#fff100;stroke:none" transform="scale(1,-1) translate(0,-256)" /></svg>