<?xml version="1.0" encoding="utf-8" ?>
<svg baseProfile="full" height="256" version="1.1" width="256" xmlns="http://www.w3.org/2000/svg" xmlns:ev="http://www.w3.org/2001/xml-events" xmlns:xlink="http://www.w3.org/1999/xlink"><defs /><path d="M723 1366Q738 1366 748.5 1355.5Q759 1345 759 1330V1222Q759 1177 776.0 1138.0Q793 1099 822.5 1069.5Q852 1040 891.0 1023.0Q930 1006 975 1006H1011Q1025 1006 1036.0 995.5Q1047 985 1047 971Q1047 956 1036.5 945.5Q1026 935 1011 935H975Q930 935 891.0 918.0Q852 901 822.5 871.5Q793 842 776.0 803.0Q759 764 759 719V611Q759 596 748.5 585.5Q738 575 723 575Q708 575 697.5 585.5Q687 596 687 611V719Q687 764 670.0 803.0Q653 842 624.0 871.5Q595 901 556.0 918.0Q517 935 472 935H436Q421 935 410.5 945.5Q400 956 400 971Q400 985 411.0 995.5Q422 1006 436 1006H472Q517 1006 556.0 1023.0Q595 1040 624.0 1069.5Q653 1099 670.0 1138.0Q687 1177 687 1222V1330Q687 1345 697.5 1355.5Q708 1366 723 1366Z" style="fill:#31d2f7;stroke:none" transform="scale(1,-1) translate(0,-256)" /></svg>