<?xml version="1.0" encoding="utf-8" ?>
<svg baseProfile="full" height="256" version="1.1" width="256" xmlns="http://www.w3.org/2000/svg" xmlns:ev="http://www.w3.org/2001/xml-events" xmlns:xlink="http://www.w3.org/1999/xlink"><defs /><path d="M1083 503Q1097 503 1107.5 492.0Q1118 481 1118 467V360Q1118 315 1135.0 276.0Q1152 237 1181.5 207.5Q1211 178 1250.0 161.0Q1289 144 1334 144H1370Q1385 144 1395.5 133.5Q1406 123 1406 108Q1406 93 1395.5 82.5Q1385 72 1370 72H1334Q1289 72 1250.0 55.0Q1211 38 1181.5 8.5Q1152 -21 1135.0 -60.0Q1118 -99 1118 -144V-251Q1118 -265 1107.5 -276.0Q1097 -287 1083 -287Q1068 -287 1057.5 -276.5Q1047 -266 1047 -251V-144Q1047 -99 1030.0 -60.0Q1013 -21 983.5 8.5Q954 38 915.0 55.0Q876 72 831 72H795Q780 72 769.5 82.5Q759 93 759 108Q759 123 769.5 133.5Q780 144 795 144H831Q876 144 915.0 161.0Q954 178 983.5 207.5Q1013 237 1030.0 276.0Q1047 315 1047 360V467Q1047 482 1057.5 492.5Q1068 503 1083 503Z" style="fill:#f495bf;stroke:none" transform="scale(1,-1) translate(0,-256)" /></svg>