<?xml version="1.0" encoding="utf-8" ?>
<svg baseProfile="full" height="256" version="1.1" width="256" xmlns="http://www.w3.org/2000/svg" xmlns:ev="http://www.w3.org/2001/xml-events" xmlns:xlink="http://www.w3.org/1999/xlink"><defs /><path d="M1558 1581Q1590 1581 1619.0 1563.5Q1648 1546 1662 1517L1931 935Q1896 935 1877.5 946.0Q1859 957 1845.5 970.5Q1832 984 1817.0 995.0Q1802 1006 1774 1006Q1747 1006 1731.0 995.0Q1715 984 1701.0 970.5Q1687 957 1671.5 946.0Q1656 935 1630 935Q1603 935 1587.5 946.0Q1572 957 1558.5 970.5Q1545 984 1529.5 995.0Q1514 1006 1487 1006Q1461 1006 1445.5 995.0Q1430 984 1416.0 970.5Q1402 957 1386.0 946.0Q1370 935 1343 935Q1314 935 1298.5 946.5Q1283 958 1264 977L1415 1581Z" style="fill:#ffffff;stroke:none" transform="scale(1,-1) translate(0,-256)" /></svg>