<?xml version="1.0" encoding="utf-8" ?>
<svg baseProfile="full" height="256" version="1.1" width="256" xmlns="http://www.w3.org/2000/svg" xmlns:ev="http://www.w3.org/2001/xml-events" xmlns:xlink="http://www.w3.org/1999/xlink"><defs /><path d="M1981 935V719H1837V935Q1837 971 1831 1006H1555Q1484 1006 1418.0 1033.5Q1352 1061 1301 1111L1139 1273Q1083 1229 1050.5 1181.5Q1018 1134 1001.0 1082.0Q984 1030 979.0 974.5Q974 919 974 859Q974 825 974.5 790.0Q975 755 975 719H831V935Q831 1054 876.5 1158.5Q922 1263 1000.0 1341.0Q1078 1419 1182.5 1464.5Q1287 1510 1406 1510Q1525 1510 1629.5 1464.5Q1734 1419 1812.0 1341.0Q1890 1263 1935.5 1158.5Q1981 1054 1981 935Z" style="fill:#f2f2f2;stroke:none" transform="scale(1,-1) translate(0,-256)" /></svg>