<?xml version="1.0" encoding="utf-8" ?>
<svg baseProfile="full" height="256" version="1.1" width="256" xmlns="http://www.w3.org/2000/svg" xmlns:ev="http://www.w3.org/2001/xml-events" xmlns:xlink="http://www.w3.org/1999/xlink"><defs /><path d="M256 1869H543V1725H400V1581H256ZM400 1366V1078H256V1366ZM400 863V575H256V863ZM400 360V72H256V360ZM400 -144V-287H543V-431H256V-144ZM2412 1078V1366H2556V1078ZM2412 575V863H2556V575ZM2412 72V360H2556V72ZM2412 -287V-144H2556V-431H2268V-287ZM759 1725V1869H1047V1725ZM1262 1725V1869H1550V1725ZM1765 1725V1869H2053V1725ZM2268 1869H2556V1581H2412V1725H2268ZM759 -431V-287H1047V-431ZM1262 -431V-287H1550V-431ZM1765 -431V-287H2053V-431Z" style="fill:#757575;stroke:none" transform="scale(1,-1) translate(0,-256)" /></svg>