<?xml version="1.0" encoding="utf-8" ?>
<svg baseProfile="full" height="256" version="1.1" width="256" xmlns="http://www.w3.org/2000/svg" xmlns:ev="http://www.w3.org/2001/xml-events" xmlns:xlink="http://www.w3.org/1999/xlink"><defs /><path d="M2176 71Q2179 125 2179 180Q2179 449 2107.0 703.0Q2035 957 1895 1186Q1788 1115 1698 1025Q1811 830 1869.0 618.0Q1927 406 1927 180Q1927 93 1918.5 8.0Q1910 -77 1892 -162Q1862 -179 1830.5 -193.5Q1799 -208 1767 -220Q1819 -25 1819 180Q1819 381 1770.0 573.0Q1721 765 1622 940Q1575 882 1536.0 819.5Q1497 757 1465 689Q1516 568 1542.0 439.5Q1568 311 1568 180Q1568 61 1547.0 -56.0Q1526 -173 1483 -284Q1444 -287 1406 -287H1366Q1386 -239 1402.0 -190.0Q1418 -141 1430 -90Q1227 -90 1032.5 -55.0Q838 -20 649 56Q614 97 583.0 140.0Q552 183 526 231Q726 127 947.5 72.5Q1169 18 1395 18Q1409 18 1422.0 18.5Q1435 19 1449 19Q1454 59 1457.0 99.0Q1460 139 1460 180Q1460 203 1459.0 225.0Q1458 247 1456 270Q1418 270 1379.5 270.5Q1341 271 1303 273Q1059 287 830.0 371.0Q601 455 406 602Q400 660 400 719V744Q615 564 871.0 471.0Q1127 378 1408 378H1444Q1433 443 1415.5 506.0Q1398 569 1373 630Q1106 637 871.5 742.5Q637 848 452 1040Q471 1097 497 1151Q582 1054 687 975Q780 1190 912.5 1371.5Q1045 1553 1219 1708Q1266 1716 1312.0 1720.5Q1358 1725 1406 1725H1412Q1199 1567 1039.0 1362.0Q879 1157 778 913Q886 847 1006 805Q1061 941 1139.0 1065.5Q1217 1190 1314.5 1298.5Q1412 1407 1527.5 1497.5Q1643 1588 1773 1656Q1805 1644 1836.0 1629.5Q1867 1615 1897 1598Q1763 1536 1644.5 1450.5Q1526 1365 1426.0 1259.5Q1326 1154 1246.0 1031.5Q1166 909 1109 774Q1236 741 1368 738Q1425 857 1503.5 962.5Q1582 1068 1679.0 1155.5Q1776 1243 1889.5 1310.0Q2003 1377 2128 1420Q2168 1379 2204 1332Q2147 1315 2093.0 1292.0Q2039 1269 1987 1241Q2130 1010 2204.0 755.5Q2278 501 2286 230Q2262 188 2234.5 148.0Q2207 108 2176 71Z" style="fill:#a6a6a6;stroke:none" transform="scale(1,-1) translate(0,-256)" /></svg>