<?xml version="1.0" encoding="utf-8" ?>
<svg baseProfile="full" height="256" version="1.1" width="256" xmlns="http://www.w3.org/2000/svg" xmlns:ev="http://www.w3.org/2001/xml-events" xmlns:xlink="http://www.w3.org/1999/xlink"><defs /><path d="M2412 719Q2412 591 2380.0 466.5Q2348 342 2286 230Q2282 232 2278.0 232.0Q2274 232 2269 232Q2243 232 2228.5 213.0Q2214 194 2205.5 167.5Q2197 141 2191.0 114.0Q2185 87 2176 71Q2171 62 2161.5 52.5Q2152 43 2144 35Q2089 -24 2026.0 -74.0Q1963 -124 1892 -162Q1884 -156 1874.5 -149.5Q1865 -143 1856 -143Q1844 -143 1830.5 -152.0Q1817 -161 1805.0 -173.0Q1793 -185 1783.0 -198.0Q1773 -211 1767 -220Q1698 -247 1627.0 -263.0Q1556 -279 1483 -284Q1472 -268 1462.0 -261.0Q1452 -254 1432 -254Q1413 -254 1396.0 -264.5Q1379 -275 1366 -287Q1262 -283 1163.0 -258.0Q1064 -233 972.5 -189.0Q881 -145 799.0 -83.5Q717 -22 649 56Q650 61 651.0 66.5Q652 72 652 77Q652 92 636.5 114.5Q621 137 600.0 159.5Q579 182 558.0 201.5Q537 221 526 231Q478 317 448.0 410.5Q418 504 406 602Q414 610 419.0 614.0Q424 618 427.0 622.5Q430 627 431.0 633.5Q432 640 432 654Q432 674 421.5 701.0Q411 728 400 744Q402 820 415.0 894.0Q428 968 452 1040Q484 1042 494.5 1056.5Q505 1071 505 1102Q505 1125 497 1151Q549 1260 624.0 1352.0Q699 1444 792.0 1516.0Q885 1588 993.0 1637.0Q1101 1686 1219 1708Q1227 1698 1236.5 1689.5Q1246 1681 1259 1681Q1293 1681 1329.0 1693.0Q1365 1705 1397 1719L1402 1721Q1405 1722 1407.5 1723.0Q1410 1724 1412 1725Q1505 1724 1595.5 1707.0Q1686 1690 1773 1656Q1772 1650 1771.5 1644.0Q1771 1638 1771 1632Q1771 1613 1782.5 1600.0Q1794 1587 1814 1587Q1834 1587 1855.0 1591.5Q1876 1596 1897 1598Q2026 1525 2128 1420Q2123 1411 2120.0 1401.0Q2117 1391 2117 1381Q2117 1366 2126.5 1356.5Q2136 1347 2149.5 1342.0Q2163 1337 2178.0 1335.0Q2193 1333 2204 1332Q2306 1199 2359.0 1043.0Q2412 887 2412 719Z" style="fill:#ffffff;stroke:none" transform="scale(1,-1) translate(0,-256)" /></svg>