<?xml version="1.0" encoding="utf-8" ?>
<svg baseProfile="full" height="256" version="1.1" width="256" xmlns="http://www.w3.org/2000/svg" xmlns:ev="http://www.w3.org/2001/xml-events" xmlns:xlink="http://www.w3.org/1999/xlink"><defs /><path d="M408 756H418Q510 756 603.5 731.5Q697 707 780 668Q874 624 954.0 560.5Q1034 497 1098.0 418.0Q1162 339 1207.0 247.0Q1252 155 1276 55Q1287 11 1291.5 -32.0Q1296 -75 1299 -120H1206Q1206 -82 1200.0 -43.5Q1194 -5 1186 31Q1158 152 1097.5 256.5Q1037 361 951.0 442.0Q865 523 757.5 577.0Q650 631 527 652Q500 657 471.0 660.5Q442 664 415 664H408ZM1319 1549Q1319 1520 1323.0 1488.5Q1327 1457 1334.0 1425.5Q1341 1394 1350.0 1363.5Q1359 1333 1369 1306Q1408 1202 1470.0 1115.0Q1532 1028 1613.0 961.0Q1694 894 1791.5 849.5Q1889 805 1998 786Q2023 781 2049.0 778.0Q2075 775 2101 775H2109V683H2102Q2044 683 1984.5 693.5Q1925 704 1870 721Q1753 756 1652.0 819.5Q1551 883 1470.5 968.5Q1390 1054 1333.5 1159.0Q1277 1264 1249 1383Q1239 1424 1233.0 1465.5Q1227 1507 1226 1549Z" style="fill:#cccccc;stroke:none" transform="scale(1,-1) translate(0,-256)" /></svg>