<?xml version="1.0" encoding="utf-8" ?>
<svg baseProfile="full" height="256" version="1.1" width="256" xmlns="http://www.w3.org/2000/svg" xmlns:ev="http://www.w3.org/2001/xml-events" xmlns:xlink="http://www.w3.org/1999/xlink"><defs /><path d="M2269 718Q2269 579 2233.0 450.5Q2197 322 2131.5 210.5Q2066 99 1974.0 7.0Q1882 -85 1770.0 -150.5Q1658 -216 1529.5 -252.0Q1401 -288 1262 -288Q1123 -288 994.5 -252.0Q866 -216 754.5 -150.5Q643 -85 551.0 7.0Q459 99 393.5 210.5Q328 322 292.0 450.5Q256 579 256 718Q256 857 292.0 985.5Q328 1114 393.5 1226.0Q459 1338 551.0 1430.0Q643 1522 754.5 1587.5Q866 1653 994.5 1689.0Q1123 1725 1262 1725Q1401 1725 1529.5 1689.0Q1658 1653 1770.0 1587.5Q1882 1522 1974.0 1430.0Q2066 1338 2131.5 1226.0Q2197 1114 2233.0 985.5Q2269 857 2269 718Z" style="fill:#000000;stroke:none" transform="scale(1,-1) translate(0,-256)" /></svg>