<?xml version="1.0" encoding="utf-8" ?>
<svg baseProfile="full" height="256" version="1.1" width="256" xmlns="http://www.w3.org/2000/svg" xmlns:ev="http://www.w3.org/2001/xml-events" xmlns:xlink="http://www.w3.org/1999/xlink"><defs /><path d="M2120 805Q2120 787 2114.5 767.0Q2109 747 2109 727Q2109 707 2115.5 687.0Q2122 667 2122 648Q2122 625 2118.0 600.5Q2114 576 2109 554Q2084 426 2023.5 313.0Q1963 200 1872 109Q1775 11 1653.0 -50.5Q1531 -112 1394 -133Q1363 -126 1326 -126Q1308 -126 1289.5 -127.0Q1271 -128 1253 -128Q1230 -128 1208.5 -126.0Q1187 -124 1164 -124Q1149 -124 1134.5 -125.0Q1120 -126 1105 -129Q964 -104 842.0 -35.0Q720 34 627.5 135.0Q535 236 476.5 363.0Q418 490 404 633Q409 647 412.0 662.0Q415 677 415 693Q415 718 412.5 742.0Q410 766 403 790Q415 942 477.0 1076.0Q539 1210 638.5 1314.5Q738 1419 869.0 1487.0Q1000 1555 1151 1574Q1157 1567 1171.5 1563.0Q1186 1559 1204.0 1556.5Q1222 1554 1242.5 1553.5Q1263 1553 1281 1553H1327Q1350 1553 1374.5 1555.0Q1399 1557 1419 1567Q1547 1543 1663.5 1482.5Q1780 1422 1872 1329Q1961 1240 2020.5 1130.0Q2080 1020 2106 897Q2111 875 2115.5 851.0Q2120 827 2120 805Z" style="fill:#ffffff;stroke:none" transform="scale(1,-1) translate(0,-256)" /></svg>