<?xml version="1.0" encoding="utf-8" ?>
<svg baseProfile="full" height="256" version="1.1" width="256" xmlns="http://www.w3.org/2000/svg" xmlns:ev="http://www.w3.org/2001/xml-events" xmlns:xlink="http://www.w3.org/1999/xlink"><defs /><path d="M1018 609Q1072 609 1116.5 588.0Q1161 567 1193.5 532.0Q1226 497 1244.0 450.0Q1262 403 1262 351V-72L898 141Q837 177 801.0 233.5Q765 290 765 362Q765 413 785.5 458.0Q806 503 841.0 536.5Q876 570 922.0 589.5Q968 609 1018 609ZM1794 609Q1844 609 1890.0 589.5Q1936 570 1971.0 536.5Q2006 503 2026.5 458.0Q2047 413 2047 362Q2047 290 2011.0 233.5Q1975 177 1914 141L1550 -72V351Q1550 403 1568.0 450.0Q1586 497 1618.5 532.0Q1651 567 1695.5 588.0Q1740 609 1794 609Z" style="fill:#af0d1a;stroke:none" transform="scale(1,-1) translate(0,-256)" /></svg>