<?xml version="1.0" encoding="utf-8" ?>
<svg baseProfile="full" height="256" version="1.1" width="256" xmlns="http://www.w3.org/2000/svg" xmlns:ev="http://www.w3.org/2001/xml-events" xmlns:xlink="http://www.w3.org/1999/xlink"><defs /><path d="M1406 1366Q1460 1366 1507.0 1356.5Q1554 1347 1596.5 1328.5Q1639 1310 1678.5 1283.0Q1718 1256 1759 1221Q1902 1098 2040.0 971.0Q2178 844 2318 716Q2341 695 2363.5 674.0Q2386 653 2406 629Q2479 543 2517.5 435.5Q2556 328 2556 216Q2556 127 2533.0 44.0Q2510 -39 2467.5 -110.5Q2425 -182 2366.0 -241.0Q2307 -300 2235.5 -342.5Q2164 -385 2081.0 -408.0Q1998 -431 1909 -431H903Q814 -431 731.0 -408.0Q648 -385 576.5 -342.5Q505 -300 446.0 -241.0Q387 -182 344.5 -110.5Q302 -39 279.0 44.0Q256 127 256 216Q256 364 314.5 486.0Q373 608 482 706L1053 1221Q1130 1290 1215.0 1328.0Q1300 1366 1406 1366Z" style="fill:#000000;stroke:none" transform="scale(1,-1) translate(0,-256)" /></svg>