<?xml version="1.0" encoding="utf-8" ?>
<svg baseProfile="full" height="256" version="1.1" width="256" xmlns="http://www.w3.org/2000/svg" xmlns:ev="http://www.w3.org/2001/xml-events" xmlns:xlink="http://www.w3.org/1999/xlink"><defs /><path d="M1406 1222Q1482 1222 1543.0 1195.0Q1604 1168 1660 1117L2225 607Q2314 527 2363.0 432.5Q2412 338 2412 216Q2412 112 2372.5 20.5Q2333 -71 2264.5 -139.5Q2196 -208 2104.5 -247.5Q2013 -287 1909 -287H903Q799 -287 707.0 -247.5Q615 -208 547.0 -140.0Q479 -72 439.5 20.0Q400 112 400 216Q400 331 445.0 426.0Q490 521 575 597L1152 1117Q1208 1168 1268.5 1195.0Q1329 1222 1406 1222Z" style="fill:#ee9889;stroke:none" transform="scale(1,-1) translate(0,-256)" /></svg>