<?xml version="1.0" encoding="utf-8" ?>
<svg baseProfile="full" height="256" version="1.1" width="256" xmlns="http://www.w3.org/2000/svg" xmlns:ev="http://www.w3.org/2001/xml-events" xmlns:xlink="http://www.w3.org/1999/xlink"><defs /><path d="M1981 1366Q1981 1309 1961.5 1256.0Q1942 1203 1909 1158V1143Q1942 1098 1961.5 1045.0Q1981 992 1981 935Q1981 878 1961.5 825.0Q1942 772 1909 727V711Q1942 666 1961.5 613.0Q1981 560 1981 503Q1981 446 1961.5 393.0Q1942 340 1909 295V280Q1942 235 1961.5 182.0Q1981 129 1981 72Q1981 6 1958.5 -50.0Q1936 -106 1897.5 -153.0Q1859 -200 1808.0 -238.0Q1757 -276 1700.5 -305.5Q1644 -335 1584.5 -356.0Q1525 -377 1470 -390Q1383 -411 1295.5 -421.0Q1208 -431 1118 -431Q1028 -431 940.5 -421.0Q853 -411 766 -390Q711 -377 651.5 -355.5Q592 -334 535.5 -304.5Q479 -275 428.0 -237.0Q377 -199 339.0 -152.5Q301 -106 278.5 -50.0Q256 6 256 72Q256 129 275.5 182.0Q295 235 328 280V295Q295 340 275.5 393.0Q256 446 256 503Q256 560 275.5 613.0Q295 666 328 711V727Q295 772 275.5 825.0Q256 878 256 935Q256 992 275.5 1045.0Q295 1098 328 1143V1158Q295 1203 275.5 1256.0Q256 1309 256 1366Q256 1431 278.5 1487.0Q301 1543 339.5 1590.0Q378 1637 428.5 1675.0Q479 1713 536.0 1742.5Q593 1772 652.0 1793.5Q711 1815 766 1828Q853 1849 940.5 1859.0Q1028 1869 1118 1869Q1207 1869 1295.0 1859.5Q1383 1850 1470 1828Q1525 1814 1584.0 1793.0Q1643 1772 1700.0 1742.5Q1757 1713 1808.0 1675.5Q1859 1638 1897.5 1591.0Q1936 1544 1958.5 1488.0Q1981 1432 1981 1366Z" style="fill:#000000;stroke:none" transform="scale(1,-1) translate(0,-256)" /></svg>