<?xml version="1.0" encoding="utf-8" ?>
<svg baseProfile="full" height="256" version="1.1" width="256" xmlns="http://www.w3.org/2000/svg" xmlns:ev="http://www.w3.org/2001/xml-events" xmlns:xlink="http://www.w3.org/1999/xlink"><defs /><path d="M1550 1510Q1557 1510 1569.5 1508.0Q1582 1506 1593.5 1502.0Q1605 1498 1613.5 1491.0Q1622 1484 1622 1474Q1622 1463 1613.5 1456.5Q1605 1450 1593.5 1445.5Q1582 1441 1570.0 1439.5Q1558 1438 1550 1438Q1542 1438 1530.0 1439.5Q1518 1441 1506.5 1445.5Q1495 1450 1486.5 1456.5Q1478 1463 1478 1474Q1478 1484 1486.5 1491.0Q1495 1498 1506.5 1502.0Q1518 1506 1530.0 1508.0Q1542 1510 1550 1510Z" style="fill:#e5e5e5;stroke:none" transform="scale(1,-1) translate(0,-256)" /></svg>