<?xml version="1.0" encoding="utf-8" ?>
<svg baseProfile="full" height="256" version="1.1" width="256" xmlns="http://www.w3.org/2000/svg" xmlns:ev="http://www.w3.org/2001/xml-events" xmlns:xlink="http://www.w3.org/1999/xlink"><defs /><path d="M1118 1653Q1181 1653 1244.0 1647.5Q1307 1642 1370 1631Q1401 1625 1443.0 1614.5Q1485 1604 1528.5 1588.0Q1572 1572 1614.5 1550.0Q1657 1528 1690.5 1500.5Q1724 1473 1744.5 1439.5Q1765 1406 1765 1366Q1765 1326 1744.5 1292.5Q1724 1259 1690.5 1231.5Q1657 1204 1614.5 1182.5Q1572 1161 1528.5 1145.0Q1485 1129 1443.0 1118.0Q1401 1107 1370 1101Q1307 1089 1244.5 1083.5Q1182 1078 1118 1078Q1050 1078 983.5 1084.0Q917 1090 851 1104Q820 1110 780.0 1121.0Q740 1132 698.0 1148.0Q656 1164 615.5 1185.5Q575 1207 543.0 1234.0Q511 1261 491.5 1294.0Q472 1327 472 1366Q472 1405 491.5 1437.5Q511 1470 543.0 1497.5Q575 1525 615.5 1546.5Q656 1568 698.0 1584.0Q740 1600 780.0 1611.0Q820 1622 851 1628Q917 1641 983.5 1647.0Q1050 1653 1118 1653Z" style="fill:#ef6950;stroke:none" transform="scale(1,-1) translate(0,-256)" /></svg>