<?xml version="1.0" encoding="utf-8" ?>
<svg baseProfile="full" height="256" version="1.1" width="256" xmlns="http://www.w3.org/2000/svg" xmlns:ev="http://www.w3.org/2001/xml-events" xmlns:xlink="http://www.w3.org/1999/xlink"><defs /><path d="M1118 -215Q1181 -215 1244.0 -209.5Q1307 -204 1370 -193Q1401 -187 1443.0 -176.5Q1485 -166 1528.5 -150.0Q1572 -134 1614.5 -112.0Q1657 -90 1690.5 -62.5Q1724 -35 1744.5 -1.5Q1765 32 1765 72V229Q1795 197 1816.0 157.0Q1837 117 1837 72Q1837 24 1816.0 -16.5Q1795 -57 1760.5 -90.5Q1726 -124 1681.0 -151.0Q1636 -178 1588.5 -198.5Q1541 -219 1494.0 -233.5Q1447 -248 1409 -256Q1267 -287 1118 -287Q969 -287 827 -256Q788 -248 741.5 -233.5Q695 -219 647.5 -199.0Q600 -179 555.5 -152.0Q511 -125 476.5 -91.0Q442 -57 421.0 -16.5Q400 24 400 72Q400 117 421.0 157.0Q442 197 472 229V72Q472 32 492.5 -1.5Q513 -35 546.0 -62.5Q579 -90 621.5 -111.5Q664 -133 708.0 -149.5Q752 -166 793.0 -176.5Q834 -187 866 -193Q929 -204 992.0 -209.5Q1055 -215 1118 -215ZM1118 216Q1182 216 1244.5 221.5Q1307 227 1370 239Q1401 245 1442.5 256.0Q1484 267 1528.0 283.0Q1572 299 1614.5 320.5Q1657 342 1690.5 369.5Q1724 397 1744.5 430.0Q1765 463 1765 503V660Q1797 628 1817.0 588.0Q1837 548 1837 503Q1837 455 1816.0 414.5Q1795 374 1760.5 340.5Q1726 307 1681.0 280.0Q1636 253 1588.5 232.5Q1541 212 1494.0 197.5Q1447 183 1409 175Q1267 144 1118 144Q969 144 827 175Q788 183 741.5 197.5Q695 212 647.5 232.0Q600 252 555.5 279.0Q511 306 476.5 340.0Q442 374 421.0 414.5Q400 455 400 503Q400 548 420.0 588.0Q440 628 472 660V503Q472 463 492.5 430.0Q513 397 546.5 369.5Q580 342 622.5 320.5Q665 299 708.5 283.0Q752 267 793.5 256.0Q835 245 866 239Q929 227 992.0 221.5Q1055 216 1118 216ZM1118 647Q1182 647 1244.5 652.5Q1307 658 1370 670Q1401 676 1443.0 687.0Q1485 698 1528.5 714.0Q1572 730 1614.5 751.5Q1657 773 1690.5 800.5Q1724 828 1744.5 861.5Q1765 895 1765 935V1091Q1796 1060 1816.5 1020.0Q1837 980 1837 935Q1837 887 1816.0 846.5Q1795 806 1760.5 772.0Q1726 738 1681.0 711.0Q1636 684 1588.5 663.5Q1541 643 1494.5 628.5Q1448 614 1409 606Q1267 575 1118 575Q969 575 827 606Q788 614 741.5 628.5Q695 643 647.5 663.5Q600 684 555.5 711.0Q511 738 476.5 772.0Q442 806 421.0 846.5Q400 887 400 935Q400 980 420.5 1020.0Q441 1060 472 1091V935Q472 895 492.5 861.5Q513 828 546.0 800.5Q579 773 621.5 751.5Q664 730 708.0 714.0Q752 698 793.0 687.0Q834 676 866 670Q929 658 991.5 652.5Q1054 647 1118 647ZM1118 1006Q1043 1006 968.5 1013.5Q894 1021 821 1038Q782 1047 736.0 1061.5Q690 1076 643.5 1096.5Q597 1117 553.0 1143.5Q509 1170 475.0 1203.5Q441 1237 420.5 1277.5Q400 1318 400 1366Q400 1413 420.5 1453.0Q441 1493 475.0 1526.5Q509 1560 553.5 1587.0Q598 1614 644.5 1634.5Q691 1655 737.0 1669.5Q783 1684 821 1693Q894 1710 968.5 1717.5Q1043 1725 1118 1725Q1189 1725 1259.0 1718.0Q1329 1711 1398 1697Q1437 1689 1484.5 1675.0Q1532 1661 1581.0 1640.0Q1630 1619 1676.0 1592.0Q1722 1565 1758.0 1530.5Q1794 1496 1815.5 1455.0Q1837 1414 1837 1366Q1837 1318 1815.5 1276.5Q1794 1235 1758.0 1201.0Q1722 1167 1676.0 1139.5Q1630 1112 1581.0 1091.5Q1532 1071 1484.5 1056.5Q1437 1042 1398 1034Q1329 1020 1259.0 1013.0Q1189 1006 1118 1006Z" style="fill:#da3b01;stroke:none" transform="scale(1,-1) translate(0,-256)" /></svg>