<?xml version="1.0" encoding="utf-8" ?>
<svg baseProfile="full" height="256" version="1.1" width="256" xmlns="http://www.w3.org/2000/svg" xmlns:ev="http://www.w3.org/2001/xml-events" xmlns:xlink="http://www.w3.org/1999/xlink"><defs /><path d="M472 1366H1765V1091Q1771 1076 1779.0 1057.0Q1787 1038 1793.5 1018.0Q1800 998 1804.5 978.0Q1809 958 1809 942Q1809 920 1804.0 899.5Q1799 879 1792.5 858.5Q1786 838 1778.5 818.0Q1771 798 1765 778V659Q1783 624 1794.0 583.0Q1805 542 1805 502Q1805 463 1794.0 422.5Q1783 382 1765 347V229Q1785 193 1799.5 153.5Q1814 114 1814 72Q1814 25 1790.0 -13.5Q1766 -52 1726.5 -83.5Q1687 -115 1637.5 -139.5Q1588 -164 1536.5 -182.0Q1485 -200 1436.5 -212.0Q1388 -224 1351 -230Q1292 -240 1233.5 -245.0Q1175 -250 1115 -250Q1039 -250 947.0 -240.0Q855 -230 765.0 -205.0Q675 -180 596.0 -137.5Q517 -95 468 -31Q452 -11 440.0 17.5Q428 46 428 72Q428 89 432.0 109.5Q436 130 442.5 151.0Q449 172 457.0 192.0Q465 212 472 228V346L470 351Q464 367 457.0 387.0Q450 407 444.5 427.0Q439 447 435.0 466.5Q431 486 431 503Q431 520 435.0 540.5Q439 561 445.0 582.0Q451 603 458.0 623.0Q465 643 472 659V777Q463 792 454.5 812.5Q446 833 439.5 854.5Q433 876 428.5 897.0Q424 918 424 936Q424 953 428.5 973.5Q433 994 440.0 1015.0Q447 1036 455.5 1055.5Q464 1075 472 1090Z" style="fill:#f03a17;stroke:none" transform="scale(1,-1) translate(0,-256)" /></svg>