<?xml version="1.0" encoding="utf-8" ?>
<svg baseProfile="full" height="256" version="1.1" width="256" xmlns="http://www.w3.org/2000/svg" xmlns:ev="http://www.w3.org/2001/xml-events" xmlns:xlink="http://www.w3.org/1999/xlink"><defs /><path d="M1550 267Q1529 267 1514 252L1370 108Q1355 93 1355 72Q1355 60 1359.5 51.5Q1364 43 1370.0 35.5Q1376 28 1380.5 20.0Q1385 12 1385 0Q1385 -21 1370 -36L1267 -138Q1194 -210 1102.0 -248.5Q1010 -287 907 -287Q803 -287 711.5 -247.5Q620 -208 551.5 -140.0Q483 -72 443.0 19.5Q403 111 403 215Q403 322 443.5 418.0Q484 514 559 590L651 683Q666 698 687 698Q699 698 707.0 693.5Q715 689 722.5 683.0Q730 677 738.5 672.5Q747 668 759 668Q780 668 795 683L939 827Q954 842 954 863Q954 875 949.5 883.0Q945 891 939.0 898.5Q933 906 928.5 914.5Q924 923 924 935Q924 955 939 970L1041 1073Q1113 1145 1206.5 1183.5Q1300 1222 1401 1222Q1506 1222 1598.0 1183.0Q1690 1144 1758.5 1075.5Q1827 1007 1866.5 915.5Q1906 824 1906 719Q1906 610 1865.5 516.0Q1825 422 1750 344Q1741 335 1724.5 317.0Q1708 299 1689.5 281.0Q1671 263 1653.0 250.0Q1635 237 1622 237Q1610 237 1601.5 241.5Q1593 246 1585.5 252.0Q1578 258 1570.0 262.5Q1562 267 1550 267Z" style="fill:#ca5010;stroke:none" transform="scale(1,-1) translate(0,-256)" /></svg>