<?xml version="1.0" encoding="utf-8" ?>
<svg baseProfile="full" height="256" version="1.1" width="256" xmlns="http://www.w3.org/2000/svg" xmlns:ev="http://www.w3.org/2001/xml-events" xmlns:xlink="http://www.w3.org/1999/xlink"><defs /><path d="M908 -431Q819 -431 736.0 -408.0Q653 -385 581.0 -342.5Q509 -300 449.5 -241.0Q390 -182 347.5 -110.5Q305 -39 281.5 44.0Q258 127 258 216Q258 357 309.0 474.0Q360 591 457 692Q481 717 505.5 743.5Q530 770 558.0 792.0Q586 814 617.5 828.0Q649 842 687 842Q713 842 742 834L788 879Q780 908 780 935Q780 973 795.0 1009.0Q810 1045 837 1072Q863 1098 888.5 1123.5Q914 1149 940 1175Q1034 1268 1151.0 1317.0Q1268 1366 1400 1366Q1460 1366 1518.5 1355.0Q1577 1344 1633 1323L1841 1512Q1841 1557 1858.0 1597.5Q1875 1638 1907 1670L2039 1802Q2071 1834 2112.5 1851.5Q2154 1869 2200 1869Q2246 1869 2287.0 1851.5Q2328 1834 2360 1802L2493 1670Q2525 1638 2542.0 1596.5Q2559 1555 2559 1510Q2559 1465 2542.0 1423.0Q2525 1381 2493 1349L2360 1217Q2324 1182 2285.5 1166.5Q2247 1151 2196 1151L2009 946Q2050 835 2050 718Q2050 646 2037.0 582.5Q2024 519 1999.0 461.0Q1974 403 1937.0 349.0Q1900 295 1852 243Q1828 217 1803.5 190.5Q1779 164 1752.0 142.0Q1725 120 1693.0 106.5Q1661 93 1622 93Q1595 93 1566 101L1521 55Q1529 26 1529 0Q1529 -38 1514.0 -74.0Q1499 -110 1472 -137Q1446 -163 1420.5 -188.5Q1395 -214 1369 -240Q1275 -334 1158.0 -382.5Q1041 -431 908 -431Z" style="fill:#000000;stroke:none" transform="scale(1,-1) translate(0,-256)" /></svg>