<?xml version="1.0" encoding="utf-8" ?>
<svg baseProfile="full" height="256" version="1.1" width="256" xmlns="http://www.w3.org/2000/svg" xmlns:ev="http://www.w3.org/2001/xml-events" xmlns:xlink="http://www.w3.org/1999/xlink"><defs /><path d="M1050 647Q1080 647 1101.0 626.0Q1122 605 1122 575Q1122 545 1101.0 524.0Q1080 503 1050 503Q1026 503 1006.5 518.0Q987 533 981 556Q970 551 961.5 543.5Q953 536 945 528L934 516Q897 478 857.5 454.5Q818 431 762 431Q733 431 712.0 452.5Q691 474 691 503Q691 532 712.0 553.5Q733 575 762 575Q787 575 806.0 560.5Q825 546 832 522Q846 530 856.5 540.5Q867 551 878 562Q915 601 954.5 624.0Q994 647 1050 647ZM1337 360Q1337 303 1314.0 264.5Q1291 226 1252 188Q1241 177 1231.0 166.0Q1221 155 1213 141Q1236 135 1250.5 115.5Q1265 96 1265 72Q1265 43 1244.0 21.5Q1223 0 1194 0Q1164 0 1143.0 21.0Q1122 42 1122 72Q1122 129 1144.5 167.0Q1167 205 1207 243Q1218 254 1228.5 265.0Q1239 276 1247 290Q1223 297 1208.5 316.0Q1194 335 1194 360Q1194 389 1215.0 410.0Q1236 431 1265 431Q1294 431 1315.5 410.0Q1337 389 1337 360Z" style="fill:#1f1f1f;stroke:none" transform="scale(1,-1) translate(0,-256)" /></svg>