<?xml version="1.0" encoding="utf-8" ?>
<svg baseProfile="full" height="256" version="1.1" width="256" xmlns="http://www.w3.org/2000/svg" xmlns:ev="http://www.w3.org/2001/xml-events" xmlns:xlink="http://www.w3.org/1999/xlink"><defs /><path d="M2200 1725Q2235 1725 2259 1701L2391 1568Q2416 1543 2416 1509Q2416 1476 2391 1451L2259 1318Q2235 1294 2200 1294Q2170 1294 2148 1312L1478 575L1262 791L2000 1461Q1991 1472 1987.5 1484.0Q1984 1496 1984 1510Q1984 1527 1990.5 1541.0Q1997 1555 2009 1568Q2041 1602 2073.5 1635.5Q2106 1669 2141 1701Q2168 1725 2200 1725ZM472 -72Q484 -46 505.0 -22.0Q526 2 544 24L759 288L975 72L615 -215Z" style="fill:#383838;stroke:none" transform="scale(1,-1) translate(0,-256)" /></svg>