<?xml version="1.0" encoding="utf-8" ?>
<svg baseProfile="full" height="256" version="1.1" width="256" xmlns="http://www.w3.org/2000/svg" xmlns:ev="http://www.w3.org/2001/xml-events" xmlns:xlink="http://www.w3.org/1999/xlink"><defs /><path d="M831 -287Q742 -287 663.5 -253.0Q585 -219 526.5 -160.5Q468 -102 434.0 -23.5Q400 55 400 144Q400 236 437.0 319.5Q474 403 543 464V1438Q543 1496 566.0 1548.5Q589 1601 628.5 1640.0Q668 1679 720.0 1702.0Q772 1725 831 1725Q890 1725 942.5 1702.5Q995 1680 1034.0 1641.0Q1073 1602 1095.5 1549.5Q1118 1497 1118 1438V464Q1187 403 1224.5 319.5Q1262 236 1262 144Q1262 55 1228.0 -23.5Q1194 -102 1135.5 -160.5Q1077 -219 998.5 -253.0Q920 -287 831 -287Z" style="fill:#ffffff;stroke:none" transform="scale(1,-1) translate(0,-256)" /></svg>