<?xml version="1.0" encoding="utf-8" ?>
<svg baseProfile="full" height="256" version="1.1" width="256" xmlns="http://www.w3.org/2000/svg" xmlns:ev="http://www.w3.org/2001/xml-events" xmlns:xlink="http://www.w3.org/1999/xlink"><defs /><path d="M831 -431Q712 -431 607.5 -385.5Q503 -340 425.0 -262.0Q347 -184 301.5 -79.5Q256 25 256 144Q256 249 293.5 347.0Q331 445 400 523V1438Q400 1527 434.0 1605.5Q468 1684 526.5 1742.5Q585 1801 663.5 1835.0Q742 1869 831 1869Q920 1869 998.5 1835.0Q1077 1801 1135.5 1742.5Q1194 1684 1228.0 1605.5Q1262 1527 1262 1438V523Q1331 445 1368.5 347.0Q1406 249 1406 144Q1406 25 1360.5 -79.5Q1315 -184 1237.0 -262.0Q1159 -340 1054.0 -385.5Q949 -431 831 -431Z" style="fill:#000000;stroke:none" transform="scale(1,-1) translate(0,-256)" /></svg>