<?xml version="1.0" encoding="utf-8" ?>
<svg baseProfile="full" height="256" version="1.1" width="256" xmlns="http://www.w3.org/2000/svg" xmlns:ev="http://www.w3.org/2001/xml-events" xmlns:xlink="http://www.w3.org/1999/xlink"><defs /><path d="M1658 719Q1658 667 1638.0 621.0Q1618 575 1584.0 541.0Q1550 507 1504.0 487.0Q1458 467 1406 467Q1354 467 1308.0 487.0Q1262 507 1228.0 541.0Q1194 575 1174.0 621.0Q1154 667 1154 719Q1154 771 1174.0 817.0Q1194 863 1228.0 897.0Q1262 931 1308.0 951.0Q1354 971 1406 971Q1458 971 1504.0 951.0Q1550 931 1584.0 897.0Q1618 863 1638.0 817.0Q1658 771 1658 719Z" style="fill:#000000;stroke:none" transform="scale(1,-1) translate(0,-256)" /></svg>