<?xml version="1.0" encoding="utf-8" ?>
<svg baseProfile="full" height="256" version="1.1" width="256" xmlns="http://www.w3.org/2000/svg" xmlns:ev="http://www.w3.org/2001/xml-events" xmlns:xlink="http://www.w3.org/1999/xlink"><defs /><path d="M1406 1222Q1510 1222 1601.5 1182.5Q1693 1143 1761.5 1074.5Q1830 1006 1869.5 914.5Q1909 823 1909 719Q1909 615 1869.5 523.5Q1830 432 1761.5 363.5Q1693 295 1601.5 255.5Q1510 216 1406 216Q1302 216 1210.0 255.5Q1118 295 1050.0 363.0Q982 431 942.5 523.0Q903 615 903 719Q903 823 942.5 914.5Q982 1006 1050.5 1074.5Q1119 1143 1210.5 1182.5Q1302 1222 1406 1222ZM1626 908Q1645 908 1662.5 915.5Q1680 923 1692.5 935.5Q1705 948 1712.5 965.0Q1720 982 1720 1002Q1720 1021 1712.5 1038.5Q1705 1056 1692.5 1068.5Q1680 1081 1662.5 1088.5Q1645 1096 1626 1096Q1606 1096 1589.0 1088.5Q1572 1081 1559.5 1068.5Q1547 1056 1539.5 1038.5Q1532 1021 1532 1002Q1532 982 1539.5 965.0Q1547 948 1559.5 935.5Q1572 923 1589.0 915.5Q1606 908 1626 908Z" style="fill:#ca5010;stroke:none" transform="scale(1,-1) translate(0,-256)" /></svg>