<?xml version="1.0" encoding="utf-8" ?>
<svg baseProfile="full" height="256" version="1.1" width="256" xmlns="http://www.w3.org/2000/svg" xmlns:ev="http://www.w3.org/2001/xml-events" xmlns:xlink="http://www.w3.org/1999/xlink"><defs /><path d="M1406 1366Q1536 1366 1662.5 1332.5Q1789 1299 1905.5 1238.5Q2022 1178 2123.5 1093.5Q2225 1009 2305 908Q2316 894 2334.0 869.0Q2352 844 2369.5 816.5Q2387 789 2399.5 762.0Q2412 735 2412 719Q2412 702 2399.5 675.5Q2387 649 2369.5 621.5Q2352 594 2334.0 569.0Q2316 544 2305 530Q2225 429 2123.5 344.5Q2022 260 1906.0 199.5Q1790 139 1663.0 105.5Q1536 72 1406 72Q1269 72 1137.0 108.5Q1005 145 885.5 211.0Q766 277 662.5 368.0Q559 459 479 568Q470 580 457.0 599.5Q444 619 431.0 641.0Q418 663 409.0 684.0Q400 705 400 719Q400 734 409.0 754.5Q418 775 430.5 797.0Q443 819 456.5 838.5Q470 858 479 870Q559 979 662.5 1070.0Q766 1161 885.5 1227.0Q1005 1293 1137.0 1329.5Q1269 1366 1406 1366Z" style="fill:#ffffff;stroke:none" transform="scale(1,-1) translate(0,-256)" /></svg>