<?xml version="1.0" encoding="utf-8" ?>
<svg baseProfile="full" height="256" version="1.1" width="256" xmlns="http://www.w3.org/2000/svg" xmlns:ev="http://www.w3.org/2001/xml-events" xmlns:xlink="http://www.w3.org/1999/xlink"><defs /><path d="M1406 -72Q1258 -72 1114.0 -33.5Q970 5 838.5 74.5Q707 144 592.0 240.0Q477 336 387 451Q368 475 345.5 508.0Q323 541 303.0 577.5Q283 614 269.5 651.0Q256 688 256 719Q256 750 269.5 787.0Q283 824 303.0 860.5Q323 897 345.5 930.0Q368 963 387 987Q477 1102 592.0 1198.0Q707 1294 838.5 1363.5Q970 1433 1114.0 1471.5Q1258 1510 1406 1510Q1554 1510 1698.0 1471.5Q1842 1433 1973.5 1363.5Q2105 1294 2220.0 1198.0Q2335 1102 2425 987Q2444 963 2466.5 930.0Q2489 897 2509.0 860.5Q2529 824 2542.5 787.0Q2556 750 2556 719Q2556 688 2542.5 651.0Q2529 614 2509.0 577.5Q2489 541 2466.5 508.0Q2444 475 2425 451Q2335 336 2220.0 240.0Q2105 144 1973.5 74.5Q1842 5 1698.0 -33.5Q1554 -72 1406 -72Z" style="fill:#000000;stroke:none" transform="scale(1,-1) translate(0,-256)" /></svg>