<?xml version="1.0" encoding="utf-8" ?>
<svg baseProfile="full" height="256" version="1.1" width="256" xmlns="http://www.w3.org/2000/svg" xmlns:ev="http://www.w3.org/2001/xml-events" xmlns:xlink="http://www.w3.org/1999/xlink"><defs /><path d="M1550 -431Q1496 -431 1446.0 -415.5Q1396 -400 1353.0 -371.5Q1310 -343 1276.0 -303.5Q1242 -264 1220 -215H975Q921 -215 871.0 -200.0Q821 -185 778.0 -157.0Q735 -129 701.0 -89.0Q667 -49 645 0H615Q541 0 475.5 28.5Q410 57 361.5 106.0Q313 155 284.5 220.5Q256 286 256 360V863Q256 937 284.5 1002.5Q313 1068 361.5 1116.5Q410 1165 475.5 1193.5Q541 1222 615 1222H645Q667 1271 701.0 1310.5Q735 1350 778.0 1378.5Q821 1407 871.0 1422.5Q921 1438 975 1438H1693Q1782 1438 1861.0 1404.0Q1940 1370 1998.5 1311.5Q2057 1253 2091.0 1174.0Q2125 1095 2125 1006V905Q2174 883 2214.0 849.0Q2254 815 2282.0 772.0Q2310 729 2325.0 679.0Q2340 629 2340 575V144Q2340 69 2313.0 6.5Q2286 -56 2235 -110Q2126 -225 2009 -330Q1955 -378 1897.0 -404.5Q1839 -431 1765 -431Z" style="fill:#000000;stroke:none" transform="scale(1,-1) translate(0,-256)" /></svg>