<?xml version="1.0" encoding="utf-8" ?>
<svg baseProfile="full" height="256" version="1.1" width="256" xmlns="http://www.w3.org/2000/svg" xmlns:ev="http://www.w3.org/2001/xml-events" xmlns:xlink="http://www.w3.org/1999/xlink"><defs /><path d="M1981 791Q2026 791 2065.0 774.0Q2104 757 2133.5 727.5Q2163 698 2180.0 659.0Q2197 620 2197 575V144Q2197 102 2179.5 61.0Q2162 20 2133 -9L1909 -227Q1847 -287 1765 -287H1550Q1505 -287 1466.0 -270.0Q1427 -253 1397.5 -224.0Q1368 -195 1351.0 -156.0Q1334 -117 1334 -72H1550V611Q1550 626 1560.5 636.5Q1571 647 1586 647Q1601 647 1611.5 636.5Q1622 626 1622 611V-72H1765Q1810 -72 1849.0 -55.0Q1888 -38 1917.5 -8.5Q1947 21 1964.0 60.0Q1981 99 1981 144ZM1154 647Q1169 647 1179.5 636.5Q1190 626 1190 611V-72H1118V611Q1118 625 1129.0 636.0Q1140 647 1154 647ZM723 647Q738 647 748.5 636.5Q759 626 759 611V144H687V611Q687 626 697.5 636.5Q708 647 723 647Z" style="fill:#d48c00;stroke:none" transform="scale(1,-1) translate(0,-256)" /></svg>