<?xml version="1.0" encoding="utf-8" ?>
<svg baseProfile="full" height="256" version="1.1" width="256" xmlns="http://www.w3.org/2000/svg" xmlns:ev="http://www.w3.org/2001/xml-events" xmlns:xlink="http://www.w3.org/1999/xlink"><defs /><path d="M1837 791 1406 -72H615L744 571Q749 573 752.5 573.0Q756 573 761 573Q777 573 788.0 566.5Q799 560 806.5 549.5Q814 539 819.5 527.0Q825 515 831 503L1094 -24Q1184 340 1275.5 704.0Q1367 1068 1459 1432Q1468 1436 1481 1436Q1514 1436 1530 1405ZM1912 861Q1932 861 1941.0 853.0Q1950 845 1961 830Q1985 794 2002.5 753.0Q2020 712 2040 673Q2134 486 2226.0 300.5Q2318 115 2412 -72H1658Q1715 162 1772.5 393.0Q1830 624 1890 857Q1899 861 1912 861ZM1262 1078 1094 743 1175 1146Q1178 1147 1180.5 1147.5Q1183 1148 1186 1148Q1205 1148 1216.5 1142.5Q1228 1137 1236.0 1127.5Q1244 1118 1249.5 1105.0Q1255 1092 1262 1078Z" style="fill:#e5e5e5;stroke:none" transform="scale(1,-1) translate(0,-256)" /></svg>