<?xml version="1.0" encoding="utf-8" ?>
<svg baseProfile="full" height="256" version="1.1" width="256" xmlns="http://www.w3.org/2000/svg" xmlns:ev="http://www.w3.org/2001/xml-events" xmlns:xlink="http://www.w3.org/1999/xlink"><defs /><path d="M1890 857 1949 570Q1952 556 1955.0 536.0Q1958 516 1961.5 495.5Q1965 475 1969.5 456.0Q1974 437 1979 426Q1984 415 1994.0 394.0Q2004 373 2015.0 350.0Q2026 327 2036.5 307.0Q2047 287 2053 278Q2077 246 2110.5 218.0Q2144 190 2173 161L2412 -72L2268 -162H543L400 -72L607 344Q631 392 655.5 444.5Q680 497 707 543Q720 565 744 571L763 438L792 425Q852 543 910.0 659.5Q968 776 1026 894Q1053 949 1080.5 1007.5Q1108 1066 1138 1118Q1145 1129 1153.0 1136.0Q1161 1143 1175 1146L1198 1023L1262 1078L1426 1405Q1437 1426 1459 1432L1573 993L1837 791L1839 795Q1847 815 1858.0 832.0Q1869 849 1890 857Z" style="fill:#a6a6a6;stroke:none" transform="scale(1,-1) translate(0,-256)" /></svg>