<?xml version="1.0" encoding="utf-8" ?>
<svg baseProfile="full" height="256" version="1.1" width="256" xmlns="http://www.w3.org/2000/svg" xmlns:ev="http://www.w3.org/2001/xml-events" xmlns:xlink="http://www.w3.org/1999/xlink"><defs /><path d="M1244 1510Q1270 1510 1293.0 1500.0Q1316 1490 1333.0 1473.0Q1350 1456 1360.0 1433.0Q1370 1410 1370 1384Q1370 1358 1360.0 1335.0Q1350 1312 1333.0 1295.0Q1316 1278 1293.0 1268.0Q1270 1258 1244 1258Q1218 1258 1195.0 1268.0Q1172 1278 1155.0 1295.0Q1138 1312 1128.0 1335.0Q1118 1358 1118 1384Q1118 1410 1128.0 1433.0Q1138 1456 1155.0 1473.0Q1172 1490 1195.0 1500.0Q1218 1510 1244 1510ZM939 1653Q961 1653 980.5 1644.5Q1000 1636 1015.0 1621.5Q1030 1607 1038.5 1587.5Q1047 1568 1047 1546Q1047 1524 1038.5 1504.5Q1030 1485 1015.0 1470.0Q1000 1455 980.5 1446.5Q961 1438 939 1438Q916 1438 896.5 1446.5Q877 1455 862.5 1469.5Q848 1484 839.5 1503.5Q831 1523 831 1546Q831 1568 839.5 1588.0Q848 1608 863.0 1622.0Q878 1636 897.5 1644.5Q917 1653 939 1653ZM1226 144Q1248 144 1268.0 135.5Q1288 127 1302.5 112.5Q1317 98 1325.5 78.0Q1334 58 1334 36Q1334 14 1325.5 -5.5Q1317 -25 1302.0 -40.0Q1287 -55 1267.5 -63.5Q1248 -72 1226 -72Q1204 -72 1184.5 -63.5Q1165 -55 1150.0 -40.0Q1135 -25 1126.5 -5.5Q1118 14 1118 36Q1118 58 1126.5 77.5Q1135 97 1150.0 112.0Q1165 127 1184.5 135.5Q1204 144 1226 144ZM1837 647Q1854 647 1871.0 643.5Q1888 640 1905 635Q1896 526 1864.5 423.0Q1833 320 1779 225Q1744 234 1715.0 254.0Q1686 274 1665.5 301.5Q1645 329 1633.5 362.0Q1622 395 1622 431Q1622 476 1639.0 515.0Q1656 554 1685.0 583.5Q1714 613 1753.0 630.0Q1792 647 1837 647Z" style="fill:#eba300;stroke:none" transform="scale(1,-1) translate(0,-256)" /></svg>