<?xml version="1.0" encoding="utf-8" ?>
<svg baseProfile="full" height="256" version="1.1" width="256" xmlns="http://www.w3.org/2000/svg" xmlns:ev="http://www.w3.org/2001/xml-events" xmlns:xlink="http://www.w3.org/1999/xlink"><defs /><path d="M508 -431Q456 -431 410.0 -411.0Q364 -391 330.0 -357.0Q296 -323 276.0 -277.0Q256 -231 256 -179Q256 -106 284.0 -59.5Q312 -13 356.0 18.0Q400 49 455.0 71.0Q510 93 564 117Q698 177 793.5 269.5Q889 362 938 503H867Q815 503 769.0 523.0Q723 543 689.0 577.0Q655 611 635.0 657.0Q615 703 615 755Q615 807 635.0 853.0Q655 899 689.0 933.0Q723 967 769.0 986.5Q815 1006 867 1006H906Q850 1118 765.5 1193.5Q681 1269 568 1319Q513 1343 457.5 1365.0Q402 1387 357.0 1418.5Q312 1450 284.0 1496.5Q256 1543 256 1617Q256 1669 276.0 1715.0Q296 1761 330.0 1795.0Q364 1829 410.0 1849.0Q456 1869 508 1869H903Q1061 1869 1208.0 1828.0Q1355 1787 1483.0 1712.0Q1611 1637 1716.0 1532.0Q1821 1427 1896.0 1299.0Q1971 1171 2012.0 1024.0Q2053 877 2053 719Q2053 560 2012.0 413.5Q1971 267 1896.0 139.0Q1821 11 1716.0 -94.0Q1611 -199 1483.0 -274.0Q1355 -349 1208.0 -390.0Q1061 -431 903 -431Z" style="fill:#000000;stroke:none" transform="scale(1,-1) translate(0,-256)" /></svg>