<?xml version="1.0" encoding="utf-8" ?>
<svg baseProfile="full" height="256" version="1.1" width="256" xmlns="http://www.w3.org/2000/svg" xmlns:ev="http://www.w3.org/2001/xml-events" xmlns:xlink="http://www.w3.org/1999/xlink"><defs /><path d="M903 1725Q1042 1725 1170.5 1689.0Q1299 1653 1411.0 1587.5Q1523 1522 1614.5 1430.5Q1706 1339 1771.5 1227.0Q1837 1115 1873.0 986.5Q1909 858 1909 719Q1909 675 1905.0 638.5Q1901 602 1893.5 567.5Q1886 533 1875.5 497.5Q1865 462 1852 421Q1837 372 1821.5 322.5Q1806 273 1781 228Q1716 109 1621.5 13.5Q1527 -82 1412.5 -149.0Q1298 -216 1168.0 -251.5Q1038 -287 903 -287H508Q485 -287 465.5 -278.5Q446 -270 431.5 -255.5Q417 -241 408.5 -221.5Q400 -202 400 -179Q400 -140 420.0 -117.5Q440 -95 472 -78Q508 -60 545.5 -45.5Q583 -31 620 -15Q758 45 860.0 134.5Q962 224 1030 360Q1059 360 1086.5 359.0Q1114 358 1143 358Q1188 358 1228.5 363.0Q1269 368 1303.0 384.0Q1337 400 1363.0 428.0Q1389 456 1406 503H1087Q1097 538 1104.0 574.0Q1111 610 1115 647H867Q844 647 824.5 655.5Q805 664 790.5 678.5Q776 693 767.5 712.5Q759 732 759 755Q759 777 767.5 796.5Q776 816 791.0 831.0Q806 846 825.5 854.5Q845 863 867 863H1105Q1086 966 1043.5 1055.5Q1001 1145 938.5 1219.5Q876 1294 796.0 1353.0Q716 1412 621 1453Q584 1469 546.0 1483.0Q508 1497 472 1516Q440 1533 420.0 1555.5Q400 1578 400 1617Q400 1639 408.5 1659.0Q417 1679 431.5 1693.5Q446 1708 465.5 1716.5Q485 1725 508 1725Z" style="fill:#ffc83d;stroke:none" transform="scale(1,-1) translate(0,-256)" /></svg>