<?xml version="1.0" encoding="utf-8" ?>
<svg baseProfile="full" height="256" version="1.1" width="256" xmlns="http://www.w3.org/2000/svg" xmlns:ev="http://www.w3.org/2001/xml-events" xmlns:xlink="http://www.w3.org/1999/xlink"><defs /><path d="M1370 1150Q1392 1150 1412.0 1141.5Q1432 1133 1446.5 1118.5Q1461 1104 1469.5 1084.0Q1478 1064 1478 1042V899Q1478 876 1469.5 856.5Q1461 837 1446.5 822.5Q1432 808 1412.0 799.5Q1392 791 1370 791Q1347 791 1327.5 799.5Q1308 808 1293.5 822.5Q1279 837 1270.5 856.5Q1262 876 1262 899V1042Q1262 1064 1270.5 1084.0Q1279 1104 1293.5 1118.5Q1308 1133 1327.5 1141.5Q1347 1150 1370 1150Z" style="fill:#000000;stroke:none" transform="scale(1,-1) translate(0,-256)" /></svg>