<?xml version="1.0" encoding="utf-8" ?>
<svg baseProfile="full" height="256" version="1.1" width="256" xmlns="http://www.w3.org/2000/svg" xmlns:ev="http://www.w3.org/2001/xml-events" xmlns:xlink="http://www.w3.org/1999/xlink"><defs /><path d="M2161 909 2041 456H1928L1853 746Q1846 774 1845 797Q1829 709 1805.5 625.0Q1782 541 1759 456H1641L1522 909H1634L1697 607Q1700 594 1701.0 581.5Q1702 569 1703 555Q1705 569 1707.5 582.0Q1710 595 1714 608L1797 909H1906L1980 605Q1983 593 1984.0 580.5Q1985 568 1987 556Q1989 569 1991.0 581.5Q1993 594 1995 606L2058 909ZM1105 456H1002Q950 535 894.5 616.0Q839 697 792 778Q794 760 794.0 741.5Q794 723 794 705V456H697V909H807Q858 831 910.0 754.0Q962 677 1010 596Q1008 607 1008.0 616.5Q1008 626 1008 637V909H1105ZM1483 456H1211V909H1473V826H1313V725H1461V642H1313V538H1483Z" style="fill:#ffffff;stroke:none" transform="scale(1,-1) translate(0,-256)" /></svg>