<?xml version="1.0" encoding="utf-8" ?>
<svg baseProfile="full" height="256" version="1.1" width="256" xmlns="http://www.w3.org/2000/svg" xmlns:ev="http://www.w3.org/2001/xml-events" xmlns:xlink="http://www.w3.org/1999/xlink"><defs /><path d="M1299 647Q1256 647 1216.5 663.5Q1177 680 1146 710Q1137 718 1128.0 729.5Q1119 741 1119 754Q1119 768 1129.5 779.5Q1140 791 1154 791Q1166 791 1178.0 779.5Q1190 768 1205.5 754.5Q1221 741 1243.5 730.0Q1266 719 1299 719Q1314 719 1324.5 708.5Q1335 698 1335 683Q1335 668 1324.5 657.5Q1314 647 1299 647ZM1406 935Q1406 905 1385.0 884.0Q1364 863 1334 863Q1304 863 1283.0 884.0Q1262 905 1262 935Z" style="fill:#f7894a;stroke:none" transform="scale(1,-1) translate(0,-256)" /></svg>