<?xml version="1.0" encoding="utf-8" ?>
<svg baseProfile="full" height="256" version="1.1" width="256" xmlns="http://www.w3.org/2000/svg" xmlns:ev="http://www.w3.org/2001/xml-events" xmlns:xlink="http://www.w3.org/1999/xlink"><defs /><path d="M688 647V1078Q688 1167 711.0 1250.0Q734 1333 776.5 1404.5Q819 1476 878.0 1535.0Q937 1594 1008.5 1636.5Q1080 1679 1163.0 1702.0Q1246 1725 1335 1725Q1424 1725 1507.0 1702.0Q1590 1679 1661.5 1636.5Q1733 1594 1792.0 1535.0Q1851 1476 1893.5 1404.5Q1936 1333 1959.0 1250.0Q1982 1167 1982 1078V647L1335 36Z" style="fill:#8e562e;stroke:none" transform="scale(1,-1) translate(0,-256)" /></svg>