<?xml version="1.0" encoding="utf-8" ?>
<svg baseProfile="full" height="256" version="1.1" width="256" xmlns="http://www.w3.org/2000/svg" xmlns:ev="http://www.w3.org/2001/xml-events" xmlns:xlink="http://www.w3.org/1999/xlink"><defs /><path d="M1191 1078Q1191 1049 1169.5 1027.5Q1148 1006 1119 1006Q1090 1006 1068.5 1027.5Q1047 1049 1047 1078V1150Q1047 1180 1068.0 1201.0Q1089 1222 1119 1222Q1149 1222 1170.0 1201.0Q1191 1180 1191 1150ZM1550 1222Q1580 1222 1601.0 1201.0Q1622 1180 1622 1150V1078Q1622 1049 1600.5 1027.5Q1579 1006 1550 1006Q1521 1006 1500.0 1027.5Q1479 1049 1479 1078V1150Q1479 1179 1500.0 1200.5Q1521 1222 1550 1222Z" style="fill:#000000;stroke:none" transform="scale(1,-1) translate(0,-256)" /></svg>