<?xml version="1.0" encoding="utf-8" ?>
<svg baseProfile="full" height="256" version="1.1" width="256" xmlns="http://www.w3.org/2000/svg" xmlns:ev="http://www.w3.org/2001/xml-events" xmlns:xlink="http://www.w3.org/1999/xlink"><defs /><path d="M400 -431V-158Q400 -138 399.5 -118.5Q399 -99 399 -79Q399 -44 401.0 -9.0Q403 26 410 60Q431 172 485.5 266.0Q540 360 628 432L269 791L485 1006H544V1078Q544 1187 572.5 1288.0Q601 1389 652.5 1477.0Q704 1565 776.0 1637.0Q848 1709 936.0 1760.5Q1024 1812 1125.0 1840.5Q1226 1869 1335 1869Q1444 1869 1545.0 1840.5Q1646 1812 1733.5 1760.5Q1821 1709 1893.5 1637.0Q1966 1565 2017.5 1477.0Q2069 1389 2097.0 1288.0Q2125 1187 2125 1078V1006H2185L2401 791L2042 432Q2087 394 2125.0 348.5Q2163 303 2191.5 252.0Q2220 201 2238.5 144.5Q2257 88 2264 30Q2267 1 2268.0 -26.5Q2269 -54 2269 -83V-431Z" style="fill:#000000;stroke:none" transform="scale(1,-1) translate(0,-256)" /></svg>