<?xml version="1.0" encoding="utf-8" ?>
<svg baseProfile="full" height="256" version="1.1" width="256" xmlns="http://www.w3.org/2000/svg" xmlns:ev="http://www.w3.org/2001/xml-events" xmlns:xlink="http://www.w3.org/1999/xlink"><defs /><path d="M1479 72Q1479 42 1467.5 16.0Q1456 -10 1436.5 -29.5Q1417 -49 1391.0 -60.5Q1365 -72 1335 -72Q1305 -72 1279.0 -60.5Q1253 -49 1233.5 -29.5Q1214 -10 1202.5 16.0Q1191 42 1191 72Q1191 102 1202.5 128.0Q1214 154 1233.5 173.5Q1253 193 1279.0 204.5Q1305 216 1335 216Q1365 216 1391.0 204.5Q1417 193 1436.5 173.5Q1456 154 1467.5 128.0Q1479 102 1479 72Z" style="fill:#81e6d3;stroke:none" transform="scale(1,-1) translate(0,-256)" /></svg>