<?xml version="1.0" encoding="utf-8" ?>
<svg baseProfile="full" height="256" version="1.1" width="256" xmlns="http://www.w3.org/2000/svg" xmlns:ev="http://www.w3.org/2001/xml-events" xmlns:xlink="http://www.w3.org/1999/xlink"><defs /><path d="M1479 1558Q1483 1472 1521.0 1410.0Q1559 1348 1622 1294Q1649 1271 1678.5 1235.0Q1708 1199 1737.0 1159.0Q1766 1119 1792.0 1079.0Q1818 1039 1838 1008Q1838 904 1798.5 812.0Q1759 720 1690.5 651.5Q1622 583 1530.5 543.0Q1439 503 1335 503Q1231 503 1139.0 543.0Q1047 583 979.0 651.5Q911 720 871.5 812.0Q832 904 832 1008Q856 1036 892.0 1076.0Q928 1116 968.0 1155.5Q1008 1195 1047.5 1228.0Q1087 1261 1119 1276Q1142 1287 1164.5 1296.5Q1187 1306 1210 1318Q1290 1362 1358.0 1422.5Q1426 1483 1479 1558ZM939 431H1730L1335 36Z" style="fill:#ffc83d;stroke:none" transform="scale(1,-1) translate(0,-256)" /></svg>