<?xml version="1.0" encoding="utf-8" ?>
<svg baseProfile="full" height="256" version="1.1" width="256" xmlns="http://www.w3.org/2000/svg" xmlns:ev="http://www.w3.org/2001/xml-events" xmlns:xlink="http://www.w3.org/1999/xlink"><defs /><path d="M1550 1366Q1595 1366 1634.0 1349.0Q1673 1332 1702.5 1302.5Q1732 1273 1749.0 1234.0Q1766 1195 1766 1150V1078Q1766 1033 1749.0 994.0Q1732 955 1702.5 926.0Q1673 897 1634.0 880.0Q1595 863 1550 863Q1507 863 1468.5 879.0Q1430 895 1401.0 923.0Q1372 951 1354.0 988.5Q1336 1026 1335 1069Q1333 1026 1315.5 988.5Q1298 951 1268.5 923.0Q1239 895 1200.5 879.0Q1162 863 1119 863Q1074 863 1035.0 880.0Q996 897 967.0 926.0Q938 955 921.0 994.0Q904 1033 904 1078V1150Q904 1195 921.0 1234.0Q938 1273 967.0 1302.5Q996 1332 1035.0 1349.0Q1074 1366 1119 1366Q1162 1366 1200.5 1350.0Q1239 1334 1268.5 1306.0Q1298 1278 1315.5 1240.0Q1333 1202 1335 1159Q1336 1202 1353.5 1239.5Q1371 1277 1400.5 1305.0Q1430 1333 1468.0 1349.5Q1506 1366 1550 1366Z" style="fill:#8764b8;stroke:none" transform="scale(1,-1) translate(0,-256)" /></svg>