<?xml version="1.0" encoding="utf-8" ?>
<svg baseProfile="full" height="256" version="1.1" width="256" xmlns="http://www.w3.org/2000/svg" xmlns:ev="http://www.w3.org/2001/xml-events" xmlns:xlink="http://www.w3.org/1999/xlink"><defs /><path d="M1541 135Q1550 105 1550 72Q1550 27 1533.0 -12.0Q1516 -51 1487.0 -80.5Q1458 -110 1419.0 -127.0Q1380 -144 1335 -144Q1290 -144 1251.0 -127.0Q1212 -110 1182.5 -80.5Q1153 -51 1136.0 -12.0Q1119 27 1119 72Q1119 105 1128 135L472 791L544 863L1182 224Q1212 255 1252.0 271.5Q1292 288 1335 288Q1378 288 1417.5 271.5Q1457 255 1487 224L2125 863L2197 791ZM832 390V-287H544V-50Q544 22 564.5 89.0Q585 156 622.5 213.5Q660 271 713.0 316.0Q766 361 832 390ZM1838 390Q1904 361 1957.0 316.0Q2010 271 2047.5 213.5Q2085 156 2105.0 89.0Q2125 22 2125 -50V-287H1838Z" style="fill:#744da9;stroke:none" transform="scale(1,-1) translate(0,-256)" /></svg>