<?xml version="1.0" encoding="utf-8" ?>
<svg baseProfile="full" height="256" version="1.1" width="256" xmlns="http://www.w3.org/2000/svg" xmlns:ev="http://www.w3.org/2001/xml-events" xmlns:xlink="http://www.w3.org/1999/xlink"><defs /><path d="M1330 1105 1545 1272V150L1116 -280L399 -41V245L1116 7V1129ZM1151 1188Q1151 1178 1142.5 1171.0Q1134 1164 1122.5 1160.0Q1111 1156 1099.0 1154.5Q1087 1153 1080 1153Q1073 1153 1061.0 1154.5Q1049 1156 1037.0 1160.0Q1025 1164 1016.5 1171.0Q1008 1178 1008 1188Q1008 1198 1016.5 1205.0Q1025 1212 1036.5 1216.5Q1048 1221 1060.0 1222.5Q1072 1224 1080 1224Q1087 1224 1099.5 1222.5Q1112 1221 1123.0 1216.5Q1134 1212 1142.5 1205.0Q1151 1198 1151 1188Z" style="fill:#16c60c;stroke:none" transform="scale(1,-1) translate(0,-256)" /></svg>