<?xml version="1.0" encoding="utf-8" ?>
<svg baseProfile="full" height="256" version="1.1" width="256" xmlns="http://www.w3.org/2000/svg" xmlns:ev="http://www.w3.org/2001/xml-events" xmlns:xlink="http://www.w3.org/1999/xlink"><defs /><path d="M256 -144V1471L829 1662L1009 1602L1029 1667Q1043 1712 1069.5 1749.5Q1096 1787 1132.0 1813.5Q1168 1840 1211.0 1854.5Q1254 1869 1302 1869H1724Q1761 1869 1793.5 1855.0Q1826 1841 1850.5 1816.5Q1875 1792 1889.0 1759.5Q1903 1727 1903 1690Q1903 1653 1889.0 1620.5Q1875 1588 1850.5 1563.5Q1826 1539 1793.5 1525.0Q1761 1511 1724 1511H1355L1348 1489L1689 1375V-240L1116 -431Z" style="fill:#000000;stroke:none" transform="scale(1,-1) translate(0,-256)" /></svg>