<?xml version="1.0" encoding="utf-8" ?>
<svg baseProfile="full" height="256" version="1.1" width="256" xmlns="http://www.w3.org/2000/svg" xmlns:ev="http://www.w3.org/2001/xml-events" xmlns:xlink="http://www.w3.org/1999/xlink"><defs /><path d="M757 801Q780 818 810 818Q841 818 870.0 802.5Q899 787 921.5 762.0Q944 737 958.0 706.5Q972 676 972 646Q972 635 970.0 623.5Q968 612 963 602L881 443Q876 432 863.0 426.5Q850 421 838 421Q813 421 791.5 436.5Q770 452 757 472Q750 465 741.0 462.0Q732 459 723 459Q709 459 695.5 464.5Q682 470 670.0 479.5Q658 489 648.5 501.0Q639 513 634 525L552 740Q543 764 543 789Q543 827 565.5 852.5Q588 878 626 878Q645 878 664.0 871.5Q683 865 700.0 854.5Q717 844 731.5 830.0Q746 816 757 801Z" style="fill:#f03a17;stroke:none" transform="scale(1,-1) translate(0,-256)" /></svg>