<?xml version="1.0" encoding="utf-8" ?>
<svg baseProfile="full" height="256" version="1.1" width="256" xmlns="http://www.w3.org/2000/svg" xmlns:ev="http://www.w3.org/2001/xml-events" xmlns:xlink="http://www.w3.org/1999/xlink"><defs /><path d="M2311 -431Q2209 -431 2137 -359L1614 164Q1546 144 1478 144Q1392 144 1313.5 171.5Q1235 199 1170.5 249.0Q1106 299 1059.5 368.0Q1013 437 991 520Q926 537 868.0 570.5Q810 604 763.0 651.0Q716 698 682.5 756.0Q649 814 632 879Q549 901 480.0 947.5Q411 994 361.0 1058.5Q311 1123 283.5 1201.5Q256 1280 256 1366Q256 1443 280 1517Q256 1566 256 1624Q256 1675 275.5 1719.5Q295 1764 328.0 1797.0Q361 1830 405.5 1849.5Q450 1869 501 1869Q558 1869 608 1845Q681 1869 759 1869Q845 1869 923.5 1841.0Q1002 1813 1066.5 1763.5Q1131 1714 1177.5 1644.5Q1224 1575 1246 1493Q1311 1476 1369.0 1442.5Q1427 1409 1474.0 1362.0Q1521 1315 1554.5 1257.0Q1588 1199 1605 1134Q1687 1112 1756.5 1065.5Q1826 1019 1875.5 954.5Q1925 890 1953.0 811.5Q1981 733 1981 647Q1981 579 1961 511L2484 -12Q2519 -47 2537.5 -92.0Q2556 -137 2556 -186Q2556 -237 2536.5 -281.5Q2517 -326 2484.0 -359.0Q2451 -392 2406.5 -411.5Q2362 -431 2311 -431Z" style="fill:#000000;stroke:none" transform="scale(1,-1) translate(0,-256)" /></svg>