<?xml version="1.0" encoding="utf-8" ?>
<svg baseProfile="full" height="256" version="1.1" width="256" xmlns="http://www.w3.org/2000/svg" xmlns:ev="http://www.w3.org/2001/xml-events" xmlns:xlink="http://www.w3.org/1999/xlink"><defs /><path d="M1837 647Q1837 573 1808.5 507.5Q1780 442 1731.5 393.5Q1683 345 1617.5 316.5Q1552 288 1478 288Q1404 288 1338.5 316.5Q1273 345 1224.0 393.5Q1175 442 1146.5 507.5Q1118 573 1118 647Q1118 722 1146.5 787.0Q1175 852 1223.5 901.0Q1272 950 1337.5 978.0Q1403 1006 1478 1006Q1552 1006 1617.5 977.5Q1683 949 1731.5 900.5Q1780 852 1808.5 786.5Q1837 721 1837 647Z" style="fill:#16c60c;stroke:none" transform="scale(1,-1) translate(0,-256)" /></svg>