<?xml version="1.0" encoding="utf-8" ?>
<svg baseProfile="full" height="256" version="1.1" width="256" xmlns="http://www.w3.org/2000/svg" xmlns:ev="http://www.w3.org/2001/xml-events" xmlns:xlink="http://www.w3.org/1999/xlink"><defs /><path d="M1118 1366Q1118 1291 1090.0 1225.5Q1062 1160 1013.0 1111.5Q964 1063 899.0 1034.5Q834 1006 759 1006Q685 1006 619.5 1034.5Q554 1063 505.5 1112.0Q457 1161 428.5 1226.5Q400 1292 400 1366Q400 1440 428.5 1505.5Q457 1571 505.5 1619.5Q554 1668 619.5 1696.5Q685 1725 759 1725Q833 1725 898.5 1696.5Q964 1668 1012.5 1619.5Q1061 1571 1089.5 1505.5Q1118 1440 1118 1366Z" style="fill:#ea005e;stroke:none" transform="scale(1,-1) translate(0,-256)" /></svg>