<?xml version="1.0" encoding="utf-8" ?>
<svg baseProfile="full" height="256" version="1.1" width="256" xmlns="http://www.w3.org/2000/svg" xmlns:ev="http://www.w3.org/2001/xml-events" xmlns:xlink="http://www.w3.org/1999/xlink"><defs /><path d="M1334 1797Q1483 1797 1620.5 1758.5Q1758 1720 1878.0 1650.0Q1998 1580 2096.5 1481.5Q2195 1383 2265.0 1263.0Q2335 1143 2373.5 1005.5Q2412 868 2412 719Q2412 570 2373.5 432.5Q2335 295 2265.0 175.0Q2195 55 2096.5 -43.5Q1998 -142 1878.0 -212.0Q1758 -282 1620.5 -320.5Q1483 -359 1334 -359Q1185 -359 1047.5 -320.5Q910 -282 790.0 -212.0Q670 -142 571.5 -43.5Q473 55 403.0 175.0Q333 295 294.5 432.5Q256 570 256 719Q256 868 294.5 1005.5Q333 1143 403.0 1263.0Q473 1383 571.5 1481.5Q670 1580 790.0 1650.0Q910 1720 1047.5 1758.5Q1185 1797 1334 1797Z" style="fill:#000000;stroke:none" transform="scale(1,-1) translate(0,-256)" /></svg>