<?xml version="1.0" encoding="utf-8" ?>
<svg baseProfile="full" height="256" version="1.1" width="256" xmlns="http://www.w3.org/2000/svg" xmlns:ev="http://www.w3.org/2001/xml-events" xmlns:xlink="http://www.w3.org/1999/xlink"><defs /><path d="M669 360Q687 360 687 342Q687 319 671.5 303.5Q656 288 633 288Q615 288 615 306Q615 316 620.5 319.0Q626 322 633.0 324.0Q640 326 645.5 329.0Q651 332 651 342Q651 360 669 360ZM1478 431Q1498 431 1504.0 420.0Q1510 409 1514.0 395.5Q1518 382 1524.0 371.0Q1530 360 1550 360Q1579 360 1600.5 338.5Q1622 317 1622 288V216Q1622 190 1610.5 174.0Q1599 158 1585.5 144.0Q1572 130 1561.0 114.0Q1550 98 1550 72Q1524 72 1508.0 83.0Q1492 94 1478.0 107.5Q1464 121 1447.5 132.5Q1431 144 1406 144H1368Q1348 144 1329.0 146.0Q1310 148 1295.0 155.5Q1280 163 1271.0 177.5Q1262 192 1262 216Q1262 246 1273.5 272.0Q1285 298 1304.5 317.5Q1324 337 1350.0 348.5Q1376 360 1406 360Q1426 360 1432.0 371.0Q1438 382 1442.0 395.5Q1446 409 1452.0 420.0Q1458 431 1478 431ZM1442 575Q1467 575 1483.5 563.5Q1500 552 1514.0 538.5Q1528 525 1544.0 514.0Q1560 503 1586 503Q1601 503 1611.5 492.5Q1622 482 1622 467Q1622 453 1611.0 442.0Q1600 431 1586 431Q1560 431 1544.5 442.0Q1529 453 1515.0 466.5Q1501 480 1485.0 491.5Q1469 503 1442 503Q1427 503 1416.5 513.5Q1406 524 1406 539Q1406 554 1416.5 564.5Q1427 575 1442 575ZM1801 216Q1816 216 1826.5 205.5Q1837 195 1837 180Q1837 154 1825.5 138.0Q1814 122 1800.5 108.0Q1787 94 1776.0 77.5Q1765 61 1765 36Q1765 21 1754.5 10.5Q1744 0 1729 0Q1715 0 1704.0 11.0Q1693 22 1693 36Q1693 62 1704.0 78.0Q1715 94 1728.5 108.0Q1742 122 1753.5 138.0Q1765 154 1765 180Q1765 195 1775.5 205.5Q1786 216 1801 216ZM1442 863Q1427 863 1416.5 873.5Q1406 884 1406 899Q1406 925 1417.0 941.0Q1428 957 1441.5 970.5Q1455 984 1466.5 1000.0Q1478 1016 1478 1042Q1478 1057 1488.5 1067.5Q1499 1078 1514 1078Q1529 1078 1539.5 1067.5Q1550 1057 1550 1042Q1550 1016 1538.5 1000.0Q1527 984 1513.5 970.5Q1500 957 1489.0 941.0Q1478 925 1478 899Q1478 884 1467.5 873.5Q1457 863 1442 863ZM1837 1330Q1837 1306 1821.5 1300.0Q1806 1294 1788 1294H1765Q1735 1294 1709.0 1282.5Q1683 1271 1663.5 1251.5Q1644 1232 1633.0 1206.0Q1622 1180 1622 1150Q1622 1135 1611.5 1124.5Q1601 1114 1586 1114Q1571 1114 1560.5 1124.5Q1550 1135 1550 1150Q1550 1177 1539.0 1191.5Q1528 1206 1510.5 1213.5Q1493 1221 1472.0 1222.5Q1451 1224 1431 1224Q1421 1224 1410.5 1223.0Q1400 1222 1391.0 1218.0Q1382 1214 1376.0 1206.5Q1370 1199 1370 1186Q1370 1171 1380.5 1160.5Q1391 1150 1406 1150Q1436 1150 1457.0 1129.0Q1478 1108 1478 1078Q1478 1049 1456.5 1027.5Q1435 1006 1406 1006Q1381 1006 1367.0 996.5Q1353 987 1345.5 972.0Q1338 957 1336.0 938.5Q1334 920 1334 901V863Q1334 843 1322.5 837.0Q1311 831 1297.5 827.0Q1284 823 1273.0 817.0Q1262 811 1262 791V647Q1262 632 1251.5 621.5Q1241 611 1226 611Q1208 611 1201.0 621.5Q1194 632 1189.5 648.0Q1185 664 1178.5 683.0Q1172 702 1154 719Q1137 735 1130.0 754.0Q1123 773 1118.5 789.5Q1114 806 1107.0 816.5Q1100 827 1083 827Q1065 827 1058.0 816.5Q1051 806 1046.5 789.5Q1042 773 1035.0 754.0Q1028 735 1011 719Q994 702 987.0 683.5Q980 665 975.5 648.5Q971 632 964.0 621.5Q957 611 939 611Q922 611 914.5 622.0Q907 633 902.0 649.5Q897 666 890.0 684.5Q883 703 867 719Q850 736 843.0 755.0Q836 774 831.0 790.0Q826 806 819.0 816.5Q812 827 795 827Q780 827 769.5 816.5Q759 806 759 791Q759 761 738.0 740.0Q717 719 687 719Q657 719 636.0 740.0Q615 761 615 791Q586 791 564.5 769.5Q543 748 543 719Q543 690 564.5 668.5Q586 647 615 647Q645 647 666.0 626.0Q687 605 687 575Q687 549 675.5 533.0Q664 517 650.5 503.0Q637 489 626.0 472.5Q615 456 615 431V393Q615 358 610.0 337.5Q605 317 593.0 306.0Q581 295 559.5 291.5Q538 288 505 288Q453 388 426.5 497.0Q400 606 400 719Q400 867 440.0 997.0Q480 1127 554.5 1236.5Q629 1346 735.0 1432.5Q841 1519 973 1581Q1040 1581 1094.0 1551.5Q1148 1522 1190 1474Q1205 1457 1221.5 1447.5Q1238 1438 1262 1438H1550Q1572 1438 1590.0 1428.0Q1608 1418 1622 1402Q1638 1385 1653.0 1375.5Q1668 1366 1693 1366H1801Q1816 1366 1826.5 1355.5Q1837 1345 1837 1330ZM1406 695Q1406 675 1392.0 661.0Q1378 647 1358 647Q1348 647 1341.0 654.0Q1334 661 1334 671Q1334 691 1348.0 705.0Q1362 719 1382 719Q1392 719 1399.0 712.0Q1406 705 1406 695ZM1334 539Q1334 517 1325.5 497.5Q1317 478 1302.0 463.0Q1287 448 1267.5 439.5Q1248 431 1226 431Q1204 431 1184.5 439.5Q1165 448 1150.0 463.0Q1135 478 1126.5 497.5Q1118 517 1118 539Q1118 553 1129.0 564.0Q1140 575 1154 575Q1174 575 1180.0 563.5Q1186 552 1190.0 538.5Q1194 525 1200.0 514.0Q1206 503 1226 503Q1246 503 1252.0 514.0Q1258 525 1262.0 538.5Q1266 552 1272.0 563.5Q1278 575 1298 575Q1313 575 1323.5 564.5Q1334 554 1334 539Z" style="fill:#16c60c;stroke:none" transform="scale(1,-1) translate(0,-256)" /></svg>