<?xml version="1.0" encoding="utf-8" ?>
<svg baseProfile="full" height="256" version="1.1" width="256" xmlns="http://www.w3.org/2000/svg" xmlns:ev="http://www.w3.org/2001/xml-events" xmlns:xlink="http://www.w3.org/1999/xlink"><defs /><path d="M1334 1653Q1463 1653 1582.5 1619.5Q1702 1586 1805.5 1525.5Q1909 1465 1994.5 1379.5Q2080 1294 2140.5 1190.5Q2201 1087 2234.5 967.5Q2268 848 2268 719Q2268 590 2234.5 470.5Q2201 351 2140.5 247.5Q2080 144 1994.5 58.5Q1909 -27 1805.5 -87.5Q1702 -148 1582.5 -181.5Q1463 -215 1334 -215Q1203 -215 1080.0 -180.0Q957 -145 849.0 -79.5Q741 -14 653.0 79.0Q565 172 505 288V869L975 1582Q1060 1617 1150.5 1635.0Q1241 1653 1334 1653Z" style="fill:#0078d7;stroke:none" transform="scale(1,-1) translate(0,-256)" /></svg>