<?xml version="1.0" encoding="utf-8" ?>
<svg baseProfile="full" height="256" version="1.1" width="256" xmlns="http://www.w3.org/2000/svg" xmlns:ev="http://www.w3.org/2001/xml-events" xmlns:xlink="http://www.w3.org/1999/xlink"><defs /><path d="M1801 647Q1823 647 1843.0 638.5Q1863 630 1877.5 615.5Q1892 601 1900.5 581.0Q1909 561 1909 539V396Q1909 373 1900.5 353.5Q1892 334 1877.5 319.5Q1863 305 1843.0 296.5Q1823 288 1801 288Q1779 288 1759.5 296.5Q1740 305 1725.0 320.0Q1710 335 1701.5 354.5Q1693 374 1693 396V539Q1693 561 1701.5 580.5Q1710 600 1725.0 615.0Q1740 630 1759.5 638.5Q1779 647 1801 647ZM1011 288Q988 288 968.5 296.5Q949 305 934.5 319.5Q920 334 911.5 353.5Q903 373 903 396V539Q903 561 911.5 581.0Q920 601 934.5 615.5Q949 630 968.5 638.5Q988 647 1011 647Q1033 647 1053.0 638.5Q1073 630 1087.0 615.0Q1101 600 1109.5 580.5Q1118 561 1118 539V396Q1118 374 1109.5 354.5Q1101 335 1087.0 320.0Q1073 305 1053.0 296.5Q1033 288 1011 288ZM1406 1150Q1321 1150 1239.5 1128.5Q1158 1107 1085 1065Q1073 1058 1059.0 1048.0Q1045 1038 1030.5 1028.5Q1016 1019 1001.5 1012.5Q987 1006 974 1006Q945 1006 924.0 1027.5Q903 1049 903 1078Q903 1112 932 1136Q977 1175 1034.5 1204.5Q1092 1234 1155.0 1254.0Q1218 1274 1282.5 1284.0Q1347 1294 1406 1294Q1465 1294 1529.5 1284.0Q1594 1274 1657.0 1254.0Q1720 1234 1777.5 1204.5Q1835 1175 1880 1136Q1909 1112 1909 1078Q1909 1049 1887.5 1028.0Q1866 1007 1837 1007Q1824 1007 1809.5 1013.5Q1795 1020 1780.0 1029.0Q1765 1038 1751.5 1048.0Q1738 1058 1726 1065Q1577 1150 1406 1150Z" style="fill:#000000;stroke:none" transform="scale(1,-1) translate(0,-256)" /></svg>