<?xml version="1.0" encoding="utf-8" ?>
<svg baseProfile="full" height="256" version="1.1" width="256" xmlns="http://www.w3.org/2000/svg" xmlns:ev="http://www.w3.org/2001/xml-events" xmlns:xlink="http://www.w3.org/1999/xlink"><defs /><path d="M1477 769Q1460 740 1437.0 717.5Q1414 695 1386.0 679.5Q1358 664 1326.5 655.5Q1295 647 1262 647H1190Q1148 647 1108.5 660.5Q1069 674 1037 700Q1042 687 1044.5 674.5Q1047 662 1047 648Q1047 618 1035.5 592.0Q1024 566 1004.5 546.0Q985 526 959.0 514.5Q933 503 903 503H759V649Q697 656 644.5 684.0Q592 712 554.0 755.5Q516 799 494.0 854.0Q472 909 472 971Q472 985 483.0 995.5Q494 1006 508 1006Q522 1006 532.5 995.5Q543 985 543 971Q543 921 561.5 876.5Q580 832 611.5 798.5Q643 765 686.0 743.5Q729 722 779 719Q798 752 831.5 771.5Q865 791 903 791Q942 791 976 771Q979 806 994.0 836.0Q1009 866 1033.0 888.0Q1057 910 1088.0 922.5Q1119 935 1154 935H1298Q1333 935 1364.5 922.0Q1396 909 1420.0 886.5Q1444 864 1459.0 834.0Q1474 804 1477 769Z" style="fill:#bb9167;stroke:none" transform="scale(1,-1) translate(0,-256)" /></svg>