<?xml version="1.0" encoding="utf-8" ?>
<svg baseProfile="full" height="256" version="1.1" width="256" xmlns="http://www.w3.org/2000/svg" xmlns:ev="http://www.w3.org/2001/xml-events" xmlns:xlink="http://www.w3.org/1999/xlink"><defs /><path d="M1873 -215Q1838 -215 1805.0 -202.0Q1772 -189 1746 -163L1459 125Q1449 136 1440.5 146.5Q1432 157 1425 170L1334 353V329Q1334 312 1332.0 298.0Q1330 284 1325 268Q1313 233 1304.5 204.0Q1296 175 1288 152Q1271 100 1260.5 70.0Q1250 40 1235.0 16.0Q1220 -8 1195.5 -33.0Q1171 -58 1128 -101L1066 -163Q1040 -189 1007.0 -202.0Q974 -215 939 -215Q901 -215 868.5 -201.0Q836 -187 811.5 -163.0Q787 -139 773.0 -106.5Q759 -74 759 -36Q759 0 772.5 32.5Q786 65 812 91L925 205L973 349L556 -26Q532 -48 500.0 -60.0Q468 -72 436 -72Q399 -72 366.0 -58.0Q333 -44 308.5 -19.5Q284 5 270.0 38.0Q256 71 256 108Q256 141 267.5 172.0Q279 203 302 228L592 551Q531 580 482.5 624.0Q434 668 399.5 722.5Q365 777 346.5 840.0Q328 903 328 971Q328 1008 342.0 1040.5Q356 1073 380.5 1097.5Q405 1122 438.0 1136.0Q471 1150 508 1150Q545 1150 577.5 1136.0Q610 1122 634.5 1097.5Q659 1073 673.0 1040.5Q687 1008 687 971Q687 944 700.0 920.0Q713 896 736 881Q768 904 806.5 918.0Q845 932 885 934L903 958V1490Q903 1539 921.5 1581.5Q940 1624 972.0 1656.0Q1004 1688 1046.5 1706.5Q1089 1725 1138 1725Q1199 1725 1248.5 1697.0Q1298 1669 1333.0 1624.0Q1368 1579 1387.0 1523.0Q1406 1467 1406 1411V1362L1623 1580Q1658 1615 1704.5 1634.5Q1751 1654 1801 1654Q1853 1654 1898.5 1634.0Q1944 1614 1978.5 1579.5Q2013 1545 2033.0 1499.5Q2053 1454 2053 1402Q2053 1346 2041.0 1302.5Q2029 1259 2007.5 1221.5Q1986 1184 1955.5 1149.5Q1925 1115 1888 1078H2328Q2375 1078 2416.5 1060.0Q2458 1042 2489.0 1011.0Q2520 980 2538.0 938.5Q2556 897 2556 850Q2556 814 2545.0 780.5Q2534 747 2514.5 719.0Q2495 691 2467.5 669.5Q2440 648 2406 635Q2307 597 2208.5 565.0Q2110 533 2005 518L2042 481L2217 422Q2273 403 2306.5 356.5Q2340 310 2340 251Q2340 214 2326.0 181.5Q2312 149 2287.5 124.5Q2263 100 2230.5 86.0Q2198 72 2161 72Q2140 72 2114.0 78.0Q2088 84 2061.0 93.0Q2034 102 2008.5 111.5Q1983 121 1963 128Q1982 109 1998.5 92.0Q2015 75 2027.0 56.0Q2039 37 2045.5 15.0Q2052 -7 2052 -36Q2052 -74 2038.0 -106.5Q2024 -139 2000.0 -163.0Q1976 -187 1943.0 -201.0Q1910 -215 1873 -215Z" style="fill:#000000;stroke:none" transform="scale(1,-1) translate(0,-256)" /></svg>