<?xml version="1.0" encoding="utf-8" ?>
<svg baseProfile="full" height="256" version="1.1" width="256" xmlns="http://www.w3.org/2000/svg" xmlns:ev="http://www.w3.org/2001/xml-events" xmlns:xlink="http://www.w3.org/1999/xlink"><defs /><path d="M1964 355 2172 286Q2183 282 2190.0 272.5Q2197 263 2197 251Q2197 237 2186.0 226.5Q2175 216 2161 216Q2157 216 2149 218L1934 290Q1929 292 1908.5 310.5Q1888 329 1860.0 356.5Q1832 384 1800.5 415.5Q1769 447 1741.0 475.5Q1713 504 1693.0 524.5Q1673 545 1668 550Q1662 556 1659 565L1550 919L1476 673Q1474 665 1468.5 658.5Q1463 652 1455 650Q1469 610 1481.5 564.5Q1494 519 1511 481L1580 342Q1591 322 1596.0 306.5Q1601 291 1615 273Q1627 258 1638.0 246.5Q1649 235 1660.5 224.5Q1672 214 1684.0 203.0Q1696 192 1710 179L1899 -10Q1909 -20 1909 -35Q1909 -50 1898.5 -61.0Q1888 -72 1873 -72Q1859 -72 1848 -61L1560 226Q1557 229 1548.0 245.5Q1539 262 1527.5 285.5Q1516 309 1502.5 336.0Q1489 363 1477.0 387.0Q1465 411 1456.5 429.0Q1448 447 1446 451Q1433 477 1425.0 507.0Q1417 537 1408 563L1334 785V611Q1334 596 1323.5 585.5Q1313 575 1298 575Q1290 575 1280 580Q1272 575 1262 575Q1240 575 1230 595L1190 675Q1190 667 1190.0 644.0Q1190 621 1190.5 589.5Q1191 558 1191.0 521.5Q1191 485 1191 450Q1191 424 1191.0 400.0Q1191 376 1190.5 357.5Q1190 339 1189.5 327.0Q1189 315 1188 312L1117 97Q1115 93 1104.5 80.5Q1094 68 1078.0 51.5Q1062 35 1043.5 16.5Q1025 -2 1008.5 -18.0Q992 -34 980.0 -46.0Q968 -58 964 -61Q953 -72 938 -72Q924 -72 913.0 -61.0Q902 -50 902 -36Q902 -21 913 -10L1051 127Q1052 131 1057.5 147.0Q1063 163 1070.5 185.5Q1078 208 1086.5 232.5Q1095 257 1102.0 278.5Q1109 300 1113.5 314.0Q1118 328 1118 329Q1121 360 1121 386Q1121 412 1119.5 437.5Q1118 463 1118 495V827Q1118 841 1129.0 852.0Q1140 863 1154 863Q1177 863 1187 843L1262 691V1006Q1262 1021 1272.5 1032.0Q1283 1043 1298 1043Q1324 1043 1332 1018L1423 745L1515 1053Q1519 1064 1528.5 1071.0Q1538 1078 1549 1078Q1576 1078 1584 1053L1725 594Z" style="fill:#757575;stroke:none" transform="scale(1,-1) translate(0,-256)" /></svg>