<?xml version="1.0" encoding="utf-8" ?>
<svg baseProfile="full" height="256" version="1.1" width="256" xmlns="http://www.w3.org/2000/svg" xmlns:ev="http://www.w3.org/2001/xml-events" xmlns:xlink="http://www.w3.org/1999/xlink"><defs /><path d="M1478 755Q1478 703 1458.0 657.0Q1438 611 1404.0 577.0Q1370 543 1324.0 523.0Q1278 503 1226 503Q1174 503 1128.0 523.0Q1082 543 1048.0 577.0Q1014 611 994.5 657.0Q975 703 975 755ZM903 647Q933 647 954.0 626.0Q975 605 975 574Q975 543 951 522L460 81Q451 72 437 72Q422 72 411.0 82.5Q400 93 400 108Q400 121 409 132L849 623Q871 647 903 647Z" style="fill:#8e562e;stroke:none" transform="scale(1,-1) translate(0,-256)" /></svg>