<?xml version="1.0" encoding="utf-8" ?>
<svg baseProfile="full" height="256" version="1.1" width="256" xmlns="http://www.w3.org/2000/svg" xmlns:ev="http://www.w3.org/2001/xml-events" xmlns:xlink="http://www.w3.org/1999/xlink"><defs /><path d="M2412 216Q2412 148 2381.5 90.5Q2351 33 2301.5 -15.0Q2252 -63 2187.5 -101.0Q2123 -139 2054.5 -168.0Q1986 -197 1919.5 -217.0Q1853 -237 1798 -248Q1604 -287 1406 -287Q1207 -287 1014 -248Q959 -237 892.5 -217.0Q826 -197 757.5 -168.0Q689 -139 624.5 -101.0Q560 -63 510.5 -15.0Q461 33 430.5 90.5Q400 148 400 216V288H2412Z" style="fill:#e5e5e5;stroke:none" transform="scale(1,-1) translate(0,-256)" /></svg>