<?xml version="1.0" encoding="utf-8" ?>
<svg baseProfile="full" height="256" version="1.1" width="256" xmlns="http://www.w3.org/2000/svg" xmlns:ev="http://www.w3.org/2001/xml-events" xmlns:xlink="http://www.w3.org/1999/xlink"><defs /><path d="M400 1006H2412V863Q2412 799 2385.5 745.0Q2359 691 2315.0 645.5Q2271 600 2214.0 563.0Q2157 526 2096.0 497.0Q2035 468 1974.0 447.5Q1913 427 1862 414Q1851 404 1844.0 390.0Q1837 376 1837 360V144Q1837 114 1816.0 93.0Q1795 72 1765 72Q1736 72 1714.5 93.5Q1693 115 1693 144V252Q1693 266 1682.5 277.0Q1672 288 1658 288Q1644 288 1636.0 280.5Q1628 273 1624.5 262.5Q1621 252 1620.0 239.5Q1619 227 1619 217Q1619 190 1621.5 163.0Q1624 136 1624 109Q1624 89 1621.5 70.0Q1619 51 1611.5 35.0Q1604 19 1589.0 9.5Q1574 0 1550 0Q1525 0 1510.5 10.5Q1496 21 1488.0 37.5Q1480 54 1477.5 74.0Q1475 94 1475 114Q1475 147 1478.0 180.0Q1481 213 1481 246Q1481 265 1478.5 285.5Q1476 306 1468.0 322.5Q1460 339 1445.5 349.5Q1431 360 1406 360Q1377 360 1355.5 338.5Q1334 317 1334 288V180Q1334 165 1323.5 154.5Q1313 144 1298 144Q1283 144 1272.5 154.5Q1262 165 1262 180V288Q1262 317 1240.5 338.5Q1219 360 1190 360Q1161 360 1139.5 338.5Q1118 317 1118 288V180Q1118 166 1107.5 155.0Q1097 144 1083 144Q1068 144 1057.5 154.5Q1047 165 1047 180V393Q990 403 920.5 422.5Q851 442 779.0 470.5Q707 499 639.0 538.0Q571 577 517.5 625.5Q464 674 432.0 733.5Q400 793 400 863Z" style="fill:#613d30;stroke:none" transform="scale(1,-1) translate(0,-256)" /></svg>