<?xml version="1.0" encoding="utf-8" ?>
<svg baseProfile="full" height="256" version="1.1" width="256" xmlns="http://www.w3.org/2000/svg" xmlns:ev="http://www.w3.org/2001/xml-events" xmlns:xlink="http://www.w3.org/1999/xlink"><defs /><path d="M2340 288Q2340 228 2311.0 178.0Q2282 128 2234.5 86.5Q2187 45 2126.0 12.5Q2065 -20 2001.5 -44.0Q1938 -68 1877.5 -84.5Q1817 -101 1770 -110Q1679 -127 1588.5 -135.5Q1498 -144 1406 -144Q1314 -144 1223.5 -135.5Q1133 -127 1042 -110Q994 -101 933.5 -84.5Q873 -68 809.5 -44.0Q746 -20 685.5 12.5Q625 45 577.5 86.0Q530 127 501.0 177.5Q472 228 472 288V935H2340Z" style="fill:#bb9167;stroke:none" transform="scale(1,-1) translate(0,-256)" /></svg>