<?xml version="1.0" encoding="utf-8" ?>
<svg baseProfile="full" height="256" version="1.1" width="256" xmlns="http://www.w3.org/2000/svg" xmlns:ev="http://www.w3.org/2001/xml-events" xmlns:xlink="http://www.w3.org/1999/xlink"><defs /><path d="M1420 1829Q1470 1790 1516.5 1746.5Q1563 1703 1591 1645Q1697 1636 1799.5 1616.0Q1902 1596 2003 1564Q2065 1544 2130.5 1515.5Q2196 1487 2257.0 1449.5Q2318 1412 2372.5 1366.0Q2427 1320 2468.0 1264.5Q2509 1209 2532.5 1144.5Q2556 1080 2556 1006Q2556 982 2556.5 958.0Q2557 934 2557 910Q2557 832 2543.0 764.0Q2529 696 2484 630V520Q2509 482 2523.5 446.0Q2538 410 2545.5 374.0Q2553 338 2554.5 299.0Q2556 260 2556 216Q2556 130 2525.5 57.5Q2495 -15 2443.0 -75.5Q2391 -136 2322.5 -184.5Q2254 -233 2178.5 -270.5Q2103 -308 2025.0 -335.0Q1947 -362 1876 -379Q1760 -407 1642.5 -419.0Q1525 -431 1406 -431Q1287 -431 1169.5 -418.5Q1052 -406 936 -379Q865 -362 787.0 -335.0Q709 -308 633.5 -270.5Q558 -233 489.5 -184.0Q421 -135 369.0 -74.5Q317 -14 286.5 58.5Q256 131 256 216Q256 259 257.5 298.5Q259 338 265.5 374.5Q272 411 286.5 447.0Q301 483 328 520V630Q305 664 291.0 696.5Q277 729 269.0 763.0Q261 797 258.0 832.5Q255 868 255 908Q255 933 255.5 957.0Q256 981 256 1006Q256 1080 279.5 1144.5Q303 1209 344.0 1264.5Q385 1320 439.5 1366.0Q494 1412 555.0 1449.5Q616 1487 681.5 1515.5Q747 1544 809 1564Q910 1596 1012.5 1616.0Q1115 1636 1221 1645Q1249 1703 1295.5 1746.5Q1342 1790 1392 1829L1406 1840Z" style="fill:#000000;stroke:none" transform="scale(1,-1) translate(0,-256)" /></svg>