<?xml version="1.0" encoding="utf-8" ?>
<svg baseProfile="full" height="256" version="1.1" width="256" xmlns="http://www.w3.org/2000/svg" xmlns:ev="http://www.w3.org/2001/xml-events" xmlns:xlink="http://www.w3.org/1999/xlink"><defs /><path d="M2017 1150Q2032 1150 2042 1140L2114 1068Q2124 1058 2124 1042Q2124 1028 2113.5 1017.0Q2103 1006 2089 1006Q2074 1006 2063 1017L1991 1089Q1980 1100 1980 1114Q1980 1130 1991.0 1140.0Q2002 1150 2017 1150ZM651 1150Q667 1150 677 1140L749 1068Q759 1058 759 1042Q759 1028 748.0 1017.0Q737 1006 723 1006Q709 1006 698 1017L626 1089Q615 1100 615 1114Q615 1128 626.0 1139.0Q637 1150 651 1150Z" style="fill:#f495bf;stroke:none" transform="scale(1,-1) translate(0,-256)" /></svg>