<?xml version="1.0" encoding="utf-8" ?>
<svg baseProfile="full" height="256" version="1.1" width="256" xmlns="http://www.w3.org/2000/svg" xmlns:ev="http://www.w3.org/2001/xml-events" xmlns:xlink="http://www.w3.org/1999/xlink"><defs /><path d="M400 288Q400 356 430.5 413.5Q461 471 511.0 518.5Q561 566 625.5 604.0Q690 642 758.0 671.0Q826 700 893.0 720.0Q960 740 1014 751Q1111 771 1208.5 781.0Q1306 791 1406 791Q1506 791 1603.5 781.0Q1701 771 1798 751Q1852 740 1919.0 720.0Q1986 700 2054.0 671.0Q2122 642 2186.5 604.0Q2251 566 2301.0 518.5Q2351 471 2381.5 413.5Q2412 356 2412 288Q2412 220 2381.5 162.5Q2351 105 2301.5 57.0Q2252 9 2187.5 -29.0Q2123 -67 2054.5 -96.0Q1986 -125 1919.5 -145.0Q1853 -165 1798 -176Q1604 -215 1406 -215Q1207 -215 1014 -176Q959 -165 892.5 -145.0Q826 -125 757.5 -96.0Q689 -67 624.5 -29.0Q560 9 510.5 57.0Q461 105 430.5 162.5Q400 220 400 288Z" style="fill:#f2f2f2;stroke:none" transform="scale(1,-1) translate(0,-256)" /></svg>