<?xml version="1.0" encoding="utf-8" ?>
<svg baseProfile="full" height="256" version="1.1" width="256" xmlns="http://www.w3.org/2000/svg" xmlns:ev="http://www.w3.org/2001/xml-events" xmlns:xlink="http://www.w3.org/1999/xlink"><defs /><path d="M1334 1006V1438H1478V1006Q1478 977 1456.5 956.0Q1435 935 1406 935Q1377 935 1355.5 956.0Q1334 977 1334 1006ZM902 755Q902 769 913 780L985 852Q995 862 1010 862Q1025 862 1035.5 851.5Q1046 841 1046 826Q1046 811 1036 801L964 729Q954 719 939 719Q923 719 912.5 729.0Q902 739 902 755ZM1801 862Q1816 862 1826.5 851.5Q1837 841 1837 826Q1837 811 1827 801L1755 729Q1745 719 1729 719Q1714 719 1703.5 729.5Q1693 740 1693 755Q1693 769 1704 780L1776 852Q1786 862 1801 862Z" style="fill:#31d2f7;stroke:none" transform="scale(1,-1) translate(0,-256)" /></svg>