<?xml version="1.0" encoding="utf-8" ?>
<svg baseProfile="full" height="256" version="1.1" width="256" xmlns="http://www.w3.org/2000/svg" xmlns:ev="http://www.w3.org/2001/xml-events" xmlns:xlink="http://www.w3.org/1999/xlink"><defs /><path d="M400 1006Q400 1074 430.5 1131.5Q461 1189 510.5 1237.0Q560 1285 624.5 1323.0Q689 1361 757.5 1390.0Q826 1419 892.5 1439.0Q959 1459 1014 1470Q1111 1490 1208.5 1500.0Q1306 1510 1406 1510Q1506 1510 1603.5 1500.0Q1701 1490 1798 1470Q1853 1458 1919.5 1438.5Q1986 1419 2054.5 1390.0Q2123 1361 2187.5 1323.0Q2252 1285 2301.5 1237.0Q2351 1189 2381.5 1131.5Q2412 1074 2412 1006Q2412 939 2383.0 883.0Q2354 827 2306.5 780.0Q2259 733 2197.5 695.5Q2136 658 2070.5 629.0Q2005 600 1940.5 580.0Q1876 560 1822 548Q1719 525 1615.5 514.0Q1512 503 1406 503Q1300 503 1196.5 514.0Q1093 525 990 548Q936 560 871.5 580.0Q807 600 741.5 629.0Q676 658 614.5 695.5Q553 733 505.5 780.0Q458 827 429.0 883.5Q400 940 400 1006Z" style="fill:#8e562e;stroke:none" transform="scale(1,-1) translate(0,-256)" /></svg>