<?xml version="1.0" encoding="utf-8" ?>
<svg baseProfile="full" height="256" version="1.1" width="256" xmlns="http://www.w3.org/2000/svg" xmlns:ev="http://www.w3.org/2001/xml-events" xmlns:xlink="http://www.w3.org/1999/xlink"><defs /><path d="M2277 216 2074 102Q2048 88 2021.5 76.0Q1995 64 1972 45Q1946 25 1926.5 -0.5Q1907 -26 1884 -50L1708 -241Q1634 -264 1558.5 -275.5Q1483 -287 1406 -287Q1329 -287 1253.5 -275.5Q1178 -264 1104 -241L853 75L535 216Q481 310 448.0 413.5Q415 517 404 626L511 837Q525 863 540.5 888.0Q556 913 565 942Q576 977 580.5 1014.0Q585 1051 592 1087L645 1376Q722 1465 815.5 1534.0Q909 1603 1018 1648Q1115 1649 1212.0 1649.5Q1309 1650 1406 1650Q1503 1650 1600.0 1649.5Q1697 1649 1794 1648Q1903 1603 1996.5 1534.0Q2090 1465 2167 1376Q2205 1268 2245.0 1162.5Q2285 1057 2320 948Q2346 868 2366.0 787.5Q2386 707 2408 626Q2397 517 2364.0 413.5Q2331 310 2277 216Z" style="fill:#ffffff;stroke:none" transform="scale(1,-1) translate(0,-256)" /></svg>