<?xml version="1.0" encoding="utf-8" ?>
<svg baseProfile="full" height="256" version="1.1" width="256" xmlns="http://www.w3.org/2000/svg" xmlns:ev="http://www.w3.org/2001/xml-events" xmlns:xlink="http://www.w3.org/1999/xlink"><defs /><path d="M2332 987 2351 844 1721 761Q1682 756 1642.5 748.5Q1603 741 1564.0 734.5Q1525 728 1485.5 723.5Q1446 719 1406 719L2108 76L2015 -33L1406 503L797 -33L704 76L1406 719Q1366 719 1326.5 723.5Q1287 728 1248.0 734.5Q1209 741 1169.5 748.5Q1130 756 1091 761L461 844L480 987L1097 904Q1175 893 1251.5 878.0Q1328 863 1406 863Q1484 863 1560.5 878.0Q1637 893 1715 904ZM1478 1653V935H1334V1653Z" style="fill:#cccccc;stroke:none" transform="scale(1,-1) translate(0,-256)" /></svg>