<?xml version="1.0" encoding="utf-8" ?>
<svg baseProfile="full" height="256" version="1.1" width="256" xmlns="http://www.w3.org/2000/svg" xmlns:ev="http://www.w3.org/2001/xml-events" xmlns:xlink="http://www.w3.org/1999/xlink"><defs /><path d="M1406 1150 1822 848 1663 360H1149L990 848ZM1794 1648 1406 1366 1018 1648Q1204 1725 1406 1725Q1608 1725 1794 1648ZM2167 1376Q2288 1237 2350.0 1069.5Q2412 902 2412 719Q2412 696 2411.0 672.5Q2410 649 2408 626L2053 863ZM645 1376 759 863 404 626Q402 649 401.0 672.5Q400 696 400 719Q400 902 462.0 1069.5Q524 1237 645 1376ZM1708 -241 1852 216H2277Q2180 51 2035.5 -66.5Q1891 -184 1708 -241ZM535 216H960L1104 -241Q921 -184 776.5 -66.5Q632 51 535 216Z" style="fill:#383838;stroke:none" transform="scale(1,-1) translate(0,-256)" /></svg>