<?xml version="1.0" encoding="utf-8" ?>
<svg baseProfile="full" height="256" version="1.1" width="256" xmlns="http://www.w3.org/2000/svg" xmlns:ev="http://www.w3.org/2001/xml-events" xmlns:xlink="http://www.w3.org/1999/xlink"><defs /><path d="M1406 1725H1694V150Q1694 120 1683.0 93.0Q1672 66 1652.5 45.0Q1633 24 1607.0 12.0Q1581 0 1550 0Q1519 0 1493.0 12.0Q1467 24 1447.5 45.0Q1428 66 1417.0 93.0Q1406 120 1406 150ZM903 288V1547Q1029 1657 1190 1699V288Q1190 258 1179.0 232.0Q1168 206 1148.5 186.5Q1129 167 1103.0 155.5Q1077 144 1047 144Q1017 144 990.5 155.0Q964 166 944.5 185.5Q925 205 914.0 231.5Q903 258 903 288Z" style="fill:#ffffff;stroke:none" transform="scale(1,-1) translate(0,-256)" /></svg>