<?xml version="1.0" encoding="utf-8" ?>
<svg baseProfile="full" height="256" version="1.1" width="256" xmlns="http://www.w3.org/2000/svg" xmlns:ev="http://www.w3.org/2001/xml-events" xmlns:xlink="http://www.w3.org/1999/xlink"><defs /><path d="M2053 503V216Q2053 89 2110.5 3.5Q2168 -82 2289 -122Q2319 -132 2349.5 -138.0Q2380 -144 2412 -144V-287Q2294 -287 2169.0 -279.5Q2044 -272 1920.0 -251.0Q1796 -230 1678.0 -192.5Q1560 -155 1456 -96Q1425 -79 1390.5 -53.5Q1356 -28 1334 0V-215Q1146 -215 1003.5 -126.0Q861 -37 764 120Q739 160 720.0 201.5Q701 243 687 288Q676 323 658.0 372.5Q640 422 613.5 467.0Q587 512 552.0 543.5Q517 575 472 575Q442 575 421.0 596.0Q400 617 400 647Q400 675 410.5 689.0Q421 703 437.0 709.5Q453 716 472.0 717.0Q491 718 507.0 721.0Q523 724 533.5 731.0Q544 738 544 755Q544 768 538.5 775.5Q533 783 524.0 786.5Q515 790 504.0 790.5Q493 791 483 791H472Q442 791 421.0 812.0Q400 833 400 863Q400 892 421.5 913.5Q443 935 472 935Q502 935 527.5 950.0Q553 965 574.5 989.0Q596 1013 613.5 1043.5Q631 1074 645.0 1106.0Q659 1138 669.5 1168.5Q680 1199 687 1222Q715 1313 773.5 1398.0Q832 1483 903 1546L908 1543Q936 1526 964.0 1513.0Q992 1500 1026 1500Q1059 1500 1080.0 1512.5Q1101 1525 1114.5 1544.5Q1128 1564 1138.0 1589.0Q1148 1614 1160 1638Q1168 1653 1175.0 1668.5Q1182 1684 1190 1699Q1243 1713 1297.0 1719.0Q1351 1725 1406 1725Q1417 1709 1432.5 1693.0Q1448 1677 1467.0 1664.0Q1486 1651 1506.5 1642.5Q1527 1634 1547 1634Q1567 1634 1588.0 1642.5Q1609 1651 1628.5 1664.5Q1648 1678 1664.5 1694.0Q1681 1710 1693 1725H2412V1581Q2380 1581 2349.5 1575.0Q2319 1569 2289 1559Q2168 1519 2110.5 1434.0Q2053 1349 2053 1222V935Q2053 1009 2081.5 1074.5Q2110 1140 2158.5 1188.5Q2207 1237 2272.5 1265.5Q2338 1294 2412 1294V144Q2338 144 2272.5 172.0Q2207 200 2158.0 249.0Q2109 298 2081.0 363.5Q2053 429 2053 503Z" style="fill:#f7630c;stroke:none" transform="scale(1,-1) translate(0,-256)" /></svg>