<?xml version="1.0" encoding="utf-8" ?>
<svg baseProfile="full" height="256" version="1.1" width="256" xmlns="http://www.w3.org/2000/svg" xmlns:ev="http://www.w3.org/2001/xml-events" xmlns:xlink="http://www.w3.org/1999/xlink"><defs /><path d="M975 827Q975 805 966.5 785.5Q958 766 943.0 751.0Q928 736 908.5 727.5Q889 719 867 719Q844 719 824.5 727.5Q805 736 790.5 750.5Q776 765 767.5 784.5Q759 804 759 827V971Q759 993 767.5 1013.0Q776 1033 791.0 1047.0Q806 1061 825.5 1069.5Q845 1078 867 1078Q889 1078 908.5 1069.5Q928 1061 943.0 1046.5Q958 1032 966.5 1012.5Q975 993 975 971Z" style="fill:#000000;stroke:none" transform="scale(1,-1) translate(0,-256)" /></svg>