<?xml version="1.0" encoding="utf-8" ?>
<svg baseProfile="full" height="256" version="1.1" width="256" xmlns="http://www.w3.org/2000/svg" xmlns:ev="http://www.w3.org/2001/xml-events" xmlns:xlink="http://www.w3.org/1999/xlink"><defs /><path d="M2053 1546Q2053 1523 2044.5 1503.5Q2036 1484 2021.5 1469.5Q2007 1455 1987.0 1446.5Q1967 1438 1945 1438Q1922 1438 1902.5 1446.5Q1883 1455 1868.5 1469.5Q1854 1484 1845.5 1503.5Q1837 1523 1837 1546Q1837 1568 1845.5 1588.0Q1854 1608 1869.0 1622.0Q1884 1636 1903.5 1644.5Q1923 1653 1945 1653Q1967 1653 1986.5 1644.5Q2006 1636 2021.0 1622.0Q2036 1608 2044.5 1588.0Q2053 1568 2053 1546Z" style="fill:#ffc83d;stroke:none" transform="scale(1,-1) translate(0,-256)" /></svg>