<?xml version="1.0" encoding="utf-8" ?>
<svg baseProfile="full" height="256" version="1.1" width="256" xmlns="http://www.w3.org/2000/svg" xmlns:ev="http://www.w3.org/2001/xml-events" xmlns:xlink="http://www.w3.org/1999/xlink"><defs /><path d="M256 863Q256 906 272.0 944.0Q288 982 315.5 1011.5Q343 1041 380.5 1058.5Q418 1076 461 1078Q497 1115 514.5 1162.0Q532 1209 548 1257Q596 1400 679.5 1513.5Q763 1627 874.5 1706.0Q986 1785 1121.0 1827.0Q1256 1869 1406 1869H2556V-431Q2420 -431 2281.5 -427.5Q2143 -424 2006.5 -408.0Q1870 -392 1737.0 -359.5Q1604 -327 1478 -269V-359H1334Q1190 -359 1066.0 -314.0Q942 -269 841.5 -188.0Q741 -107 667.0 4.5Q593 116 549 248Q541 272 533.0 297.0Q525 322 515.0 345.5Q505 369 492.0 391.0Q479 413 461 432Q418 434 380.5 451.5Q343 469 315.5 498.5Q288 528 272.0 566.0Q256 604 256 647Z" style="fill:#000000;stroke:none" transform="scale(1,-1) translate(0,-256)" /></svg>