<?xml version="1.0" encoding="utf-8" ?>
<svg baseProfile="full" height="256" version="1.1" width="256" xmlns="http://www.w3.org/2000/svg" xmlns:ev="http://www.w3.org/2001/xml-events" xmlns:xlink="http://www.w3.org/1999/xlink"><defs /><path d="M2038 859Q2118 848 2186.5 810.0Q2255 772 2305.0 715.0Q2355 658 2383.5 585.0Q2412 512 2412 431Q2412 342 2378.0 263.5Q2344 185 2285.5 126.5Q2227 68 2148.5 34.0Q2070 0 1981 0H759Q655 0 563.5 39.5Q472 79 403.5 147.5Q335 216 295.5 307.5Q256 399 256 503Q256 607 295.5 698.5Q335 790 403.5 858.5Q472 927 563.5 966.5Q655 1006 759 1006Q776 1006 791.5 1005.0Q807 1004 824 1002Q866 1085 927.0 1152.5Q988 1220 1063.0 1267.5Q1138 1315 1225.0 1340.5Q1312 1366 1406 1366Q1521 1366 1624.5 1328.5Q1728 1291 1811.0 1224.0Q1894 1157 1953.0 1063.5Q2012 970 2038 859Z" style="fill:#000000;stroke:none" transform="scale(1,-1) translate(0,-256)" /></svg>