<?xml version="1.0" encoding="utf-8" ?>
<svg baseProfile="full" height="256" version="1.1" width="256" xmlns="http://www.w3.org/2000/svg" xmlns:ev="http://www.w3.org/2001/xml-events" xmlns:xlink="http://www.w3.org/1999/xlink"><defs /><path d="M1909 719H1981Q2041 719 2093.0 696.5Q2145 674 2184.0 635.0Q2223 596 2245.5 543.5Q2268 491 2268 431Q2268 372 2245.5 319.5Q2223 267 2184.0 228.0Q2145 189 2092.5 166.5Q2040 144 1981 144H759Q685 144 619.5 172.0Q554 200 505.0 249.0Q456 298 428.0 363.5Q400 429 400 503Q400 577 428.5 642.5Q457 708 505.5 757.0Q554 806 619.5 834.5Q685 863 759 863Q800 863 839.5 854.0Q879 845 915 827Q934 914 980.0 986.5Q1026 1059 1091.0 1111.5Q1156 1164 1236.5 1193.0Q1317 1222 1406 1222Q1510 1222 1601.5 1182.5Q1693 1143 1761.5 1074.5Q1830 1006 1869.5 914.5Q1909 823 1909 719Z" style="fill:#ffffff;stroke:none" transform="scale(1,-1) translate(0,-256)" /></svg>