<?xml version="1.0" encoding="utf-8" ?>
<svg baseProfile="full" height="256" version="1.1" width="256" xmlns="http://www.w3.org/2000/svg" xmlns:ev="http://www.w3.org/2001/xml-events" xmlns:xlink="http://www.w3.org/1999/xlink"><defs /><path d="M1406 431H1262V575H1406ZM1622 431H1478V575H1622ZM1622 216H1478V360H1622ZM1406 0H1262V144H1406ZM1837 431H1693V575H1837ZM1837 216H1693V360H1837ZM1406 216H1262V360H1406ZM2017 144H2233Q2247 144 2257.5 133.0Q2268 122 2268 108Q2268 94 2257.5 83.0Q2247 72 2233 72H2017Q2002 72 1991.5 82.5Q1981 93 1981 108Q1981 123 1991.5 133.5Q2002 144 2017 144ZM2017 575H2233Q2247 575 2257.5 564.0Q2268 553 2268 539Q2268 525 2257.5 514.0Q2247 503 2233 503H2017Q2002 503 1991.5 513.5Q1981 524 1981 539Q1981 554 1991.5 564.5Q2002 575 2017 575ZM2017 360H2233Q2247 360 2257.5 349.0Q2268 338 2268 324Q2268 310 2257.5 299.0Q2247 288 2233 288H2017Q2002 288 1991.5 298.5Q1981 309 1981 324Q1981 338 1992.0 349.0Q2003 360 2017 360Z" style="fill:#757575;stroke:none" transform="scale(1,-1) translate(0,-256)" /></svg>