<?xml version="1.0" encoding="utf-8" ?>
<svg baseProfile="full" height="256" version="1.1" width="256" xmlns="http://www.w3.org/2000/svg" xmlns:ev="http://www.w3.org/2001/xml-events" xmlns:xlink="http://www.w3.org/1999/xlink"><defs /><path d="M2484 1239Q2518 1208 2537.0 1166.0Q2556 1124 2556 1078V-72Q2556 -117 2539.0 -156.0Q2522 -195 2492.5 -224.0Q2463 -253 2424.0 -270.0Q2385 -287 2340 -287H472Q427 -287 388.0 -270.0Q349 -253 319.5 -224.0Q290 -195 273.0 -156.0Q256 -117 256 -72V1078Q256 1124 275.0 1166.0Q294 1208 328 1239V1438Q328 1497 350.5 1549.5Q373 1602 412.0 1641.0Q451 1680 503.5 1702.5Q556 1725 615 1725H903Q980 1725 1047 1687V1869H2484Z" style="fill:#000000;stroke:none" transform="scale(1,-1) translate(0,-256)" /></svg>