<?xml version="1.0" encoding="utf-8" ?>
<svg baseProfile="full" height="256" version="1.1" width="256" xmlns="http://www.w3.org/2000/svg" xmlns:ev="http://www.w3.org/2001/xml-events" xmlns:xlink="http://www.w3.org/1999/xlink"><defs /><path d="M903 1581Q933 1581 959.0 1570.0Q985 1559 1004.5 1539.5Q1024 1520 1035.5 1494.0Q1047 1468 1047 1438V72Q1047 43 1035.5 16.5Q1024 -10 1004.5 -29.5Q985 -49 958.5 -60.5Q932 -72 903 -72H615Q585 -72 559.0 -60.5Q533 -49 513.5 -29.5Q494 -10 483.0 16.0Q472 42 472 72V1438Q472 1468 483.0 1494.0Q494 1520 513.5 1539.5Q533 1559 559.0 1570.0Q585 1581 615 1581ZM903 1510H615Q586 1510 564.5 1488.5Q543 1467 543 1438V72Q543 43 564.5 21.5Q586 0 615 0H903Q933 0 954.0 21.0Q975 42 975 72V1438Q975 1467 953.5 1488.5Q932 1510 903 1510Z" style="fill:#cccccc;stroke:none" transform="scale(1,-1) translate(0,-256)" /></svg>