<?xml version="1.0" encoding="utf-8" ?>
<svg baseProfile="full" height="256" version="1.1" width="256" xmlns="http://www.w3.org/2000/svg" xmlns:ev="http://www.w3.org/2001/xml-events" xmlns:xlink="http://www.w3.org/1999/xlink"><defs /><path d="M1499 914Q1729 685 1956.0 457.5Q2183 230 2412 0V-144L2339 -133L2412 -287H2125V-71H1909V144H1693V360H1478L1211 626Q1155 600 1095.5 587.5Q1036 575 975 575Q856 575 751.5 620.5Q647 666 569.0 744.0Q491 822 445.5 926.5Q400 1031 400 1150Q400 1269 445.0 1374.0Q490 1479 568.0 1557.0Q646 1635 751.0 1680.0Q856 1725 975 1725Q1093 1725 1198.0 1679.5Q1303 1634 1381.0 1556.0Q1459 1478 1504.5 1373.0Q1550 1268 1550 1150Q1550 1089 1537.0 1029.5Q1524 970 1499 914ZM831 1150Q861 1150 887.0 1161.5Q913 1173 932.5 1192.5Q952 1212 963.5 1238.0Q975 1264 975 1294Q975 1324 963.5 1350.0Q952 1376 932.5 1395.5Q913 1415 887.0 1426.5Q861 1438 831 1438Q801 1438 775.0 1426.5Q749 1415 729.5 1395.5Q710 1376 698.5 1350.0Q687 1324 687 1294Q687 1264 698.5 1238.0Q710 1212 729.5 1192.5Q749 1173 775.0 1161.5Q801 1150 831 1150Z" style="fill:#eba300;stroke:none" transform="scale(1,-1) translate(0,-256)" /></svg>