<?xml version="1.0" encoding="utf-8" ?>
<svg baseProfile="full" height="256" version="1.1" width="256" xmlns="http://www.w3.org/2000/svg" xmlns:ev="http://www.w3.org/2001/xml-events" xmlns:xlink="http://www.w3.org/1999/xlink"><defs /><path d="M831 1150Q801 1150 775.0 1161.5Q749 1173 729.5 1192.5Q710 1212 698.5 1238.0Q687 1264 687 1294Q687 1324 698.5 1350.0Q710 1376 729.5 1395.5Q749 1415 775.0 1426.5Q801 1438 831 1438Q861 1438 887.0 1426.5Q913 1415 932.5 1395.5Q952 1376 963.5 1350.0Q975 1324 975 1294Q975 1264 963.5 1238.0Q952 1212 932.5 1192.5Q913 1173 887.0 1161.5Q861 1150 831 1150Z" style="fill:#000000;stroke:none" transform="scale(1,-1) translate(0,-256)" /></svg>