<?xml version="1.0" encoding="utf-8" ?>
<svg baseProfile="full" height="256" version="1.1" width="256" xmlns="http://www.w3.org/2000/svg" xmlns:ev="http://www.w3.org/2001/xml-events" xmlns:xlink="http://www.w3.org/1999/xlink"><defs /><path d="M1981 -431V-215H1765V0H1550V216H1418L1174 460Q1078 432 975 432Q826 432 695.5 488.5Q565 545 467.0 642.5Q369 740 312.5 870.5Q256 1001 256 1150Q256 1249 281.5 1341.0Q307 1433 354.0 1513.0Q401 1593 466.5 1658.5Q532 1724 612.0 1771.0Q692 1818 784.0 1843.5Q876 1869 975 1869Q1074 1869 1165.5 1843.0Q1257 1817 1337.0 1770.5Q1417 1724 1482.5 1658.0Q1548 1592 1595.0 1512.5Q1642 1433 1667.5 1341.0Q1693 1249 1693 1150Q1693 1047 1665 951L2556 60V-431Z" style="fill:#000000;stroke:none" transform="scale(1,-1) translate(0,-256)" /></svg>