<?xml version="1.0" encoding="utf-8" ?>
<svg baseProfile="full" height="256" version="1.1" width="256" xmlns="http://www.w3.org/2000/svg" xmlns:ev="http://www.w3.org/2001/xml-events" xmlns:xlink="http://www.w3.org/1999/xlink"><defs /><path d="M1693 1006Q1726 994 1756.0 976.0Q1786 958 1814 938Q1932 852 1994.0 737.0Q2056 622 2056 475Q2056 391 2046.0 312.0Q2036 233 2013.0 159.0Q1990 85 1952.5 15.5Q1915 -54 1860 -120Q1822 -165 1780.5 -205.0Q1739 -245 1697 -287H1046L969 -219Q969 -123 995.5 -44.5Q1022 34 1061.5 98.0Q1101 162 1147.0 211.5Q1193 261 1232.5 299.0Q1272 337 1298.5 364.0Q1325 391 1325 410Q1325 422 1307.5 435.0Q1290 448 1267.0 460.5Q1244 473 1221.5 484.0Q1199 495 1190 503H615Q584 503 557.5 514.0Q531 525 512.0 544.0Q493 563 482.5 589.5Q472 616 472 647H1047Q1047 695 1031.0 734.5Q1015 774 986.5 801.5Q958 829 918.5 844.5Q879 860 831 860L812 806Q780 820 749.0 833.0Q718 846 687 860L661 812Q602 837 544 860L508 803Q484 822 456.5 835.5Q429 849 400 860V1153Q400 1177 409.0 1191.0Q418 1205 432.5 1212.0Q447 1219 465.5 1221.0Q484 1223 503 1223Q523 1223 543.0 1221.5Q563 1220 579.0 1213.0Q595 1206 605.0 1191.5Q615 1177 615 1152H831Q831 1180 842.5 1206.0Q854 1232 873.5 1251.5Q893 1271 919.5 1282.5Q946 1294 975 1294H1981Q1981 1267 1975.5 1241.0Q1970 1215 1961 1189Q1927 1095 1860.0 1050.5Q1793 1006 1693 1006Z" style="fill:#73aa24;stroke:none" transform="scale(1,-1) translate(0,-256)" /></svg>