<?xml version="1.0" encoding="utf-8" ?>
<svg baseProfile="full" height="256" version="1.1" width="256" xmlns="http://www.w3.org/2000/svg" xmlns:ev="http://www.w3.org/2001/xml-events" xmlns:xlink="http://www.w3.org/1999/xlink"><defs /><path d="M2556 1294V1225Q2556 1163 2553.5 1108.0Q2551 1053 2541.5 1001.0Q2532 949 2513.5 897.5Q2495 846 2464 791H2556V647Q2556 488 2520.0 344.5Q2484 201 2413.5 76.0Q2343 -49 2237.5 -153.0Q2132 -257 1994 -336Q1980 -344 1947.5 -360.0Q1915 -376 1879.0 -391.5Q1843 -407 1810.5 -419.0Q1778 -431 1765 -431H400V-287Q400 -178 425.5 -84.0Q451 10 500.0 89.5Q549 169 620.0 236.0Q691 303 783 360H616Q554 360 501.5 382.0Q449 404 410.5 442.0Q372 480 350.0 532.5Q328 585 328 647V729L256 801V1151Q256 1198 272.5 1237.5Q289 1277 317.5 1305.5Q346 1334 385.5 1350.0Q425 1366 472 1366H492Q525 1366 553.5 1364.0Q582 1362 608.5 1355.0Q635 1348 659.0 1333.5Q683 1319 707 1294H724Q743 1326 769.5 1351.5Q796 1377 827.5 1395.0Q859 1413 894.5 1423.5Q930 1434 966 1437Q980 1439 994.5 1439.0Q1009 1439 1024 1439Q1046 1439 1068.0 1438.5Q1090 1438 1112 1438Q1152 1529 1211.5 1596.5Q1271 1664 1346.0 1708.5Q1421 1753 1509.0 1775.0Q1597 1797 1694 1797H2196Q2196 1761 2196.5 1725.0Q2197 1689 2197 1653Q2197 1625 2194.5 1595.0Q2192 1565 2184.0 1536.5Q2176 1508 2162.0 1482.5Q2148 1457 2125 1438V1294Z" style="fill:#000000;stroke:none" transform="scale(1,-1) translate(0,-256)" /></svg>