<?xml version="1.0" encoding="utf-8" ?>
<svg baseProfile="full" height="256" version="1.1" width="256" xmlns="http://www.w3.org/2000/svg" xmlns:ev="http://www.w3.org/2001/xml-events" xmlns:xlink="http://www.w3.org/1999/xlink"><defs /><path d="M1190 1150Q1190 1193 1197.5 1235.0Q1205 1277 1219 1318Q1274 1487 1396.0 1570.0Q1518 1653 1694 1653H2053Q2053 1621 2042.5 1594.5Q2032 1568 2012.5 1549.5Q1993 1531 1966.5 1520.5Q1940 1510 1909 1510H1694Q1680 1510 1666.5 1505.0Q1653 1500 1640 1493Q1613 1478 1596.0 1455.5Q1579 1433 1568.5 1406.0Q1558 1379 1554.0 1349.5Q1550 1320 1550 1292Q1550 1260 1539.0 1234.0Q1528 1208 1509.0 1189.5Q1490 1171 1463.5 1160.5Q1437 1150 1406 1150Z" style="fill:#ffb900;stroke:none" transform="scale(1,-1) translate(0,-256)" /></svg>