<?xml version="1.0" encoding="utf-8" ?>
<svg baseProfile="full" height="256" version="1.1" width="256" xmlns="http://www.w3.org/2000/svg" xmlns:ev="http://www.w3.org/2001/xml-events" xmlns:xlink="http://www.w3.org/1999/xlink"><defs /><path d="M1693 503Q1692 462 1663.5 429.5Q1635 397 1589.0 367.5Q1543 338 1485.0 307.5Q1427 277 1367.0 240.0Q1307 203 1249.0 156.0Q1191 109 1146.0 46.5Q1101 -16 1073.5 -98.0Q1046 -180 1046 -286Q1038 -287 983 -287H543Q543 -181 570.5 -100.0Q598 -19 643.0 43.5Q688 106 745.5 153.0Q803 200 863.5 237.5Q924 275 982.0 306.0Q1040 337 1085.5 367.0Q1131 397 1159.5 429.5Q1188 462 1190 503Z" style="fill:#bad80a;stroke:none" transform="scale(1,-1) translate(0,-256)" /></svg>