<?xml version="1.0" encoding="utf-8" ?>
<svg baseProfile="full" height="256" version="1.1" width="256" xmlns="http://www.w3.org/2000/svg" xmlns:ev="http://www.w3.org/2001/xml-events" xmlns:xlink="http://www.w3.org/1999/xlink"><defs /><path d="M1904 1581Q2009 1581 2101.5 1541.0Q2194 1501 2263.0 1432.0Q2332 1363 2372.0 1270.5Q2412 1178 2412 1073Q2412 971 2373.5 878.5Q2335 786 2263 714L1406 -144L549 714Q477 786 438.5 878.5Q400 971 400 1073Q400 1178 440.0 1270.5Q480 1363 549.0 1432.0Q618 1501 710.5 1541.0Q803 1581 908 1581Q990 1581 1054.5 1560.5Q1119 1540 1173.5 1505.0Q1228 1470 1277.0 1423.5Q1326 1377 1377 1324L1406 1294L1438 1327Q1489 1379 1537.5 1425.5Q1586 1472 1640.0 1506.5Q1694 1541 1758.0 1561.0Q1822 1581 1904 1581Z" style="fill:#886ce4;stroke:none" transform="scale(1,-1) translate(0,-256)" /></svg>