<?xml version="1.0" encoding="utf-8" ?>
<svg baseProfile="full" height="256" version="1.1" width="256" xmlns="http://www.w3.org/2000/svg" xmlns:ev="http://www.w3.org/2001/xml-events" xmlns:xlink="http://www.w3.org/1999/xlink"><defs /><path d="M1190 1438Q1220 1438 1241.0 1417.0Q1262 1396 1262 1366Q1262 1336 1241.0 1315.0Q1220 1294 1190 1294Q1126 1294 1076.5 1282.5Q1027 1271 983.5 1249.0Q940 1227 899.5 1195.5Q859 1164 813 1124Q799 1112 788.5 1105.5Q778 1099 759 1099Q729 1099 708.0 1120.0Q687 1141 687 1171Q687 1185 692.0 1196.5Q697 1208 705 1219Q742 1270 799.5 1310.5Q857 1351 923.0 1379.5Q989 1408 1058.5 1423.0Q1128 1438 1190 1438ZM1622 1438Q1683 1438 1753.0 1423.0Q1823 1408 1889.0 1379.5Q1955 1351 2012.5 1310.5Q2070 1270 2107 1219Q2115 1208 2120.0 1196.5Q2125 1185 2125 1171Q2125 1142 2103.5 1120.5Q2082 1099 2053 1099Q2034 1099 2023.5 1105.5Q2013 1112 1999 1124Q1953 1164 1912.5 1195.5Q1872 1227 1828.5 1249.0Q1785 1271 1735.5 1282.5Q1686 1294 1622 1294Q1592 1294 1571.0 1315.0Q1550 1336 1550 1366Q1550 1396 1571.0 1417.0Q1592 1438 1622 1438Z" style="fill:#d48c00;stroke:none" transform="scale(1,-1) translate(0,-256)" /></svg>