<?xml version="1.0" encoding="utf-8" ?>
<svg baseProfile="full" height="256" version="1.1" width="256" xmlns="http://www.w3.org/2000/svg" xmlns:ev="http://www.w3.org/2001/xml-events" xmlns:xlink="http://www.w3.org/1999/xlink"><defs /><path d="M1976 431Q2006 431 2027.0 410.5Q2048 390 2048 360Q2048 349 2045.5 341.0Q2043 333 2038 324Q1998 249 1937.0 189.0Q1876 129 1802.0 87.0Q1728 45 1645.0 22.5Q1562 0 1478 0H1262Q1232 0 1211.0 21.0Q1190 42 1190 72Q1190 102 1211.0 123.0Q1232 144 1262 144H1478Q1530 144 1582.5 155.5Q1635 167 1684.0 188.5Q1733 210 1776.0 241.0Q1819 272 1854 312Q1871 332 1884.5 354.0Q1898 376 1914 396Q1928 413 1940.5 422.0Q1953 431 1976 431ZM1801 1006Q1853 1006 1898.5 986.0Q1944 966 1978.5 932.0Q2013 898 2033.0 852.5Q2053 807 2053 755V683Q2053 660 2044.5 640.5Q2036 621 2021.5 606.5Q2007 592 1987.0 583.5Q1967 575 1945 575Q1922 575 1902.5 583.5Q1883 592 1868.5 606.5Q1854 621 1845.5 640.5Q1837 660 1837 683V894Q1817 899 1801 899Q1763 899 1730.5 885.0Q1698 871 1674.0 846.5Q1650 822 1636.0 789.0Q1622 756 1622 719H1550V755Q1550 807 1569.5 853.0Q1589 899 1623.0 933.0Q1657 967 1702.5 986.5Q1748 1006 1801 1006ZM1262 683Q1262 660 1253.5 640.5Q1245 621 1230.5 606.5Q1216 592 1196.0 583.5Q1176 575 1154 575Q1132 575 1112.5 583.5Q1093 592 1078.5 607.0Q1064 622 1055.5 641.5Q1047 661 1047 683V894Q1027 899 1011 899Q973 899 940.5 885.0Q908 871 883.5 846.5Q859 822 845.0 789.0Q831 756 831 719H759V755Q759 807 779.0 853.0Q799 899 833.0 933.0Q867 967 913.0 986.5Q959 1006 1011 1006Q1063 1006 1108.5 986.0Q1154 966 1188.0 932.0Q1222 898 1242.0 852.5Q1262 807 1262 755Z" style="fill:#000000;stroke:none" transform="scale(1,-1) translate(0,-256)" /></svg>