<?xml version="1.0" encoding="utf-8" ?>
<svg baseProfile="full" height="256" version="1.1" width="256" xmlns="http://www.w3.org/2000/svg" xmlns:ev="http://www.w3.org/2001/xml-events" xmlns:xlink="http://www.w3.org/1999/xlink"><defs /><path d="M1047 1366Q999 1366 960.0 1349.5Q921 1333 893.5 1304.5Q866 1276 850.0 1236.0Q834 1196 831 1150V1438Q831 1482 848.0 1521.0Q865 1560 894.0 1589.5Q923 1619 962.0 1636.0Q1001 1653 1045 1653H1191Q1235 1653 1274.0 1636.0Q1313 1619 1342.0 1589.5Q1371 1560 1388.0 1521.0Q1405 1482 1405 1438V1150Q1402 1196 1386.0 1236.0Q1370 1276 1342.5 1304.5Q1315 1333 1276.0 1349.5Q1237 1366 1189 1366Z" style="fill:#ee3f86;stroke:none" transform="scale(1,-1) translate(0,-256)" /></svg>