<?xml version="1.0" encoding="utf-8" ?>
<svg baseProfile="full" height="256" version="1.1" width="256" xmlns="http://www.w3.org/2000/svg" xmlns:ev="http://www.w3.org/2001/xml-events" xmlns:xlink="http://www.w3.org/1999/xlink"><defs /><path d="M1683 -359Q1652 -359 1625.5 -351.0Q1599 -343 1572 -329Q1549 -317 1527.5 -302.0Q1506 -287 1484 -273Q1390 -210 1298.0 -148.0Q1206 -86 1118 -15Q1028 -87 934.5 -150.0Q841 -213 746 -278Q726 -292 706.0 -305.0Q686 -318 664 -329Q636 -343 610.5 -351.0Q585 -359 553 -359Q487 -359 443.0 -330.0Q399 -301 365 -247L282 -114Q268 -93 262.0 -65.0Q256 -37 256 -12Q256 45 281.5 90.0Q307 135 352 168Q363 176 373.5 181.5Q384 187 395 194Q476 242 550.5 298.5Q625 355 697 415Q640 489 586.5 574.5Q533 660 491.5 752.0Q450 844 425.0 940.0Q400 1036 400 1131Q400 1222 422.5 1306.5Q445 1391 486.0 1465.0Q527 1539 585.0 1600.0Q643 1661 715.0 1705.0Q787 1749 871.0 1773.0Q955 1797 1047 1797H1189Q1294 1797 1389.0 1765.5Q1484 1734 1563.5 1676.0Q1643 1618 1703.5 1537.5Q1764 1457 1799 1359Q1819 1303 1827.0 1245.5Q1835 1188 1835 1129Q1835 1034 1809.5 938.0Q1784 842 1742.5 750.5Q1701 659 1647.5 573.5Q1594 488 1538 415Q1595 367 1655.0 323.5Q1715 280 1777 238Q1803 220 1830.5 203.5Q1858 187 1884 168Q1929 136 1954.0 90.5Q1979 45 1979 -12Q1979 -37 1973.5 -64.0Q1968 -91 1954 -113L1872 -247Q1839 -301 1793.5 -330.0Q1748 -359 1683 -359ZM974 1146Q974 1108 988.5 1061.5Q1003 1015 1024.5 968.5Q1046 922 1071.0 879.0Q1096 836 1118 805Q1141 837 1166.5 880.0Q1192 923 1213.0 969.5Q1234 1016 1248.0 1063.0Q1262 1110 1262 1150Q1262 1222 1189 1222H1047Q1008 1222 991.0 1203.0Q974 1184 974 1146Z" style="fill:#000000;stroke:none" transform="scale(1,-1) translate(0,-256)" /></svg>