<?xml version="1.0" encoding="utf-8" ?>
<svg baseProfile="full" height="256" version="1.1" width="256" xmlns="http://www.w3.org/2000/svg" xmlns:ev="http://www.w3.org/2001/xml-events" xmlns:xlink="http://www.w3.org/1999/xlink"><defs /><path d="M1047 1653Q1059 1635 1079.0 1627.5Q1099 1620 1120 1620Q1140 1620 1159.0 1627.5Q1178 1635 1189 1653Q1298 1653 1390.5 1611.5Q1483 1570 1550.0 1499.0Q1617 1428 1654.5 1333.0Q1692 1238 1692 1131Q1692 1034 1659.5 933.5Q1627 833 1575.5 737.5Q1524 642 1461.0 554.5Q1398 467 1337 396Q1437 306 1543.0 223.5Q1649 141 1764 72Q1774 66 1784.5 60.5Q1795 55 1804 48Q1820 35 1828.0 23.0Q1836 11 1836 -11Q1836 -19 1834.0 -27.5Q1832 -36 1828 -43L1747 -176Q1736 -195 1721.0 -205.0Q1706 -215 1683 -215Q1666 -215 1634.5 -198.0Q1603 -181 1568.0 -158.5Q1533 -136 1501.5 -113.5Q1470 -91 1453 -80Q1365 -21 1280.5 40.0Q1196 101 1118 173Q1037 98 947.5 34.0Q858 -30 766 -92Q749 -103 720.5 -124.0Q692 -145 661.0 -165.0Q630 -185 600.5 -200.0Q571 -215 553 -215Q530 -215 515.5 -205.0Q501 -195 489 -176L407 -43Q402 -35 400.5 -28.0Q399 -21 399 -11Q399 9 408.0 22.5Q417 36 431 48Q439 55 450.5 60.5Q462 66 472 72Q502 90 530.0 110.5Q558 131 587 151Q668 209 746.0 269.5Q824 330 899 396Q837 467 774.0 553.5Q711 640 660.0 735.5Q609 831 576.5 931.0Q544 1031 544 1128Q544 1174 550.5 1219.5Q557 1265 571 1310Q596 1386 643.5 1449.5Q691 1513 754.0 1558.0Q817 1603 892.0 1628.0Q967 1653 1047 1653ZM1189 1422H1047Q990 1422 949.0 1397.5Q908 1373 881.5 1334.0Q855 1295 842.5 1245.5Q830 1196 830 1146Q830 1074 857.5 995.0Q885 916 927.0 840.0Q969 764 1020.0 695.5Q1071 627 1118 575Q1166 628 1216.5 696.0Q1267 764 1309.0 839.5Q1351 915 1378.0 993.5Q1405 1072 1405 1145Q1405 1194 1392.5 1243.5Q1380 1293 1353.5 1333.0Q1327 1373 1286.5 1397.5Q1246 1422 1189 1422Z" style="fill:#f495bf;stroke:none" transform="scale(1,-1) translate(0,-256)" /></svg>