<?xml version="1.0" encoding="utf-8" ?>
<svg baseProfile="full" height="256" version="1.1" width="256" xmlns="http://www.w3.org/2000/svg" xmlns:ev="http://www.w3.org/2001/xml-events" xmlns:xlink="http://www.w3.org/1999/xlink"><defs /><path d="M1693 -287V0H1502Q1390 0 1285.5 33.0Q1181 66 1092.0 127.0Q1003 188 934.0 273.5Q865 359 825 463Q780 432 726 432Q687 432 653.5 447.0Q620 462 595.5 488.0Q571 514 557.0 548.5Q543 583 543 621V754L537 760Q511 783 488.5 808.0Q466 833 449 863Q409 864 374.0 879.5Q339 895 312.5 922.0Q286 949 271.0 984.5Q256 1020 256 1060V1438Q256 1463 265.5 1477.0Q275 1491 290.0 1498.5Q305 1506 324.0 1508.0Q343 1510 362 1510H400Q400 1554 417.0 1593.0Q434 1632 463.0 1661.5Q492 1691 531.5 1708.0Q571 1725 615 1725H759Q789 1725 810.0 1704.0Q831 1683 831 1653V1510Q860 1510 881.5 1488.5Q903 1467 903 1438V1078Q921 1078 939.0 1076.5Q957 1075 975 1073V1510Q975 1540 986.0 1566.0Q997 1592 1016.5 1611.5Q1036 1631 1062.0 1642.0Q1088 1653 1118 1653H1161Q1218 1653 1270.5 1631.5Q1323 1610 1364 1569Q1411 1522 1453.5 1479.0Q1496 1436 1534.0 1391.0Q1572 1346 1606.5 1297.0Q1641 1248 1673 1189L2167 1683Q2187 1703 2213.5 1714.0Q2240 1725 2268 1725Q2326 1725 2370 1683Q2409 1646 2431.5 1614.0Q2454 1582 2466.0 1550.0Q2478 1518 2481.5 1484.0Q2485 1450 2485 1411Q2485 1385 2484.5 1355.0Q2484 1325 2484 1290Q2484 1071 2408.0 869.0Q2332 667 2186 503H2484V360Q2484 271 2461.0 188.0Q2438 105 2395.5 33.5Q2353 -38 2294.0 -97.0Q2235 -156 2163.5 -198.5Q2092 -241 2009.0 -264.0Q1926 -287 1837 -287Z" style="fill:#000000;stroke:none" transform="scale(1,-1) translate(0,-256)" /></svg>