<?xml version="1.0" encoding="utf-8" ?>
<svg baseProfile="full" height="256" version="1.1" width="256" xmlns="http://www.w3.org/2000/svg" xmlns:ev="http://www.w3.org/2001/xml-events" xmlns:xlink="http://www.w3.org/1999/xlink"><defs /><path d="M615 1312Q615 1335 630.5 1350.5Q646 1366 669 1366H759V1276Q759 1253 743.5 1237.5Q728 1222 705 1222H615ZM490 1150Q509 1150 520.0 1142.0Q531 1134 536.5 1120.5Q542 1107 543.0 1090.5Q544 1074 544 1058Q544 1044 544.5 1030.5Q545 1017 547 1006H454Q432 1006 416.0 1022.0Q400 1038 400 1060V1150ZM759 1150V1060Q759 1038 743.0 1022.0Q727 1006 705 1006H620Q615 1026 615 1042V1096Q615 1119 630.5 1134.5Q646 1150 669 1150ZM543 1222H454Q431 1222 415.5 1237.5Q400 1253 400 1276V1366H490Q513 1366 528.0 1350.0Q543 1334 543 1312ZM543 1510Q543 1539 564.5 1560.0Q586 1581 615 1581H687V1510Q687 1480 666.0 1459.0Q645 1438 615 1438H543ZM759 683H687V719L723 739L759 719Z" style="fill:#73aa24;stroke:none" transform="scale(1,-1) translate(0,-256)" /></svg>