<?xml version="1.0" encoding="utf-8" ?>
<svg baseProfile="full" height="256" version="1.1" width="256" xmlns="http://www.w3.org/2000/svg" xmlns:ev="http://www.w3.org/2001/xml-events" xmlns:xlink="http://www.w3.org/1999/xlink"><defs /><path d="M1765 360H2340Q2340 298 2325.5 239.0Q2311 180 2283.0 126.5Q2255 73 2215.0 27.0Q2175 -19 2124 -54L1902 0Q1902 40 1881.5 67.5Q1861 95 1830.0 112.0Q1799 129 1762.5 136.5Q1726 144 1693 144H1502Q1405 144 1312.5 176.0Q1220 208 1143 268Q1102 300 1070.0 335.5Q1038 371 1013.0 410.0Q988 449 969.5 492.5Q951 536 936 586Q916 649 871.0 684.0Q826 719 759 719L720 754Q731 774 742.5 793.5Q754 813 765 833Q769 840 770.0 845.0Q771 850 775 857Q793 892 827.5 913.5Q862 935 902 935Q961 935 1016.0 915.5Q1071 896 1118 860L1622 935L2268 1581Q2299 1554 2319.5 1524.0Q2340 1494 2340 1450V1290Q2340 1142 2300.0 1003.0Q2260 864 2185.0 743.0Q2110 622 2003.5 524.0Q1897 426 1765 360Z" style="fill:#ffffff;stroke:none" transform="scale(1,-1) translate(0,-256)" /></svg>