<?xml version="1.0" encoding="utf-8" ?>
<svg baseProfile="full" height="256" version="1.1" width="256" xmlns="http://www.w3.org/2000/svg" xmlns:ev="http://www.w3.org/2001/xml-events" xmlns:xlink="http://www.w3.org/1999/xlink"><defs /><path d="M1334 719Q1293 719 1265.0 733.0Q1237 747 1213.5 768.5Q1190 790 1168.0 814.5Q1146 839 1118 860V1510H1125Q1146 1510 1163.5 1509.5Q1181 1509 1197.5 1505.0Q1214 1501 1230.0 1492.0Q1246 1483 1262 1467Q1328 1402 1382.0 1344.5Q1436 1287 1480.5 1226.5Q1525 1166 1560.0 1096.0Q1595 1026 1622 935L1457 770Q1433 746 1401.0 732.5Q1369 719 1334 719ZM2124 -54Q2061 -98 1987.5 -121.0Q1914 -144 1837 -144V0Q1837 29 1826.5 55.0Q1816 81 1797.0 100.5Q1778 120 1753.0 131.5Q1728 143 1699 144H1909Q1951 144 1988.5 129.0Q2026 114 2055.0 87.0Q2084 60 2102.5 24.0Q2121 -12 2124 -54Z" style="fill:#cccccc;stroke:none" transform="scale(1,-1) translate(0,-256)" /></svg>