<?xml version="1.0" encoding="utf-8" ?>
<svg baseProfile="full" height="256" version="1.1" width="256" xmlns="http://www.w3.org/2000/svg" xmlns:ev="http://www.w3.org/2001/xml-events" xmlns:xlink="http://www.w3.org/1999/xlink"><defs /><path d="M615 1506V1312L650 1266L615 1222V1096L639 1042L620 1006Q630 970 653.0 947.0Q676 924 699.5 899.5Q723 875 741.0 842.5Q759 810 759 755V719L736 701L759 683V611Q759 596 748.5 585.5Q738 575 723 575Q699 575 692.0 594.0Q685 613 685 636Q685 650 686.0 662.5Q687 675 687 683L701 701L687 719V755Q687 783 678.0 803.5Q669 824 655.5 841.0Q642 858 625.5 874.0Q609 890 593.5 908.5Q578 927 565.5 950.5Q553 974 547 1006L525 1042Q525 1043 528.0 1051.5Q531 1060 534.5 1070.0Q538 1080 540.5 1088.0Q543 1096 543 1096V1222L514 1268L543 1312V1438Z" style="fill:#bad80a;stroke:none" transform="scale(1,-1) translate(0,-256)" /></svg>