<?xml version="1.0" encoding="utf-8" ?>
<svg baseProfile="full" height="256" version="1.1" width="256" xmlns="http://www.w3.org/2000/svg" xmlns:ev="http://www.w3.org/2001/xml-events" xmlns:xlink="http://www.w3.org/1999/xlink"><defs /><path d="M2053 1078 1765 791V1006H759V1150H1765V1366ZM1080 17Q1029 17 988.5 34.0Q948 51 919.5 81.5Q891 112 875.5 153.5Q860 195 860 245Q860 297 875.5 341.0Q891 385 920.0 417.0Q949 449 991.0 467.0Q1033 485 1087 485Q1138 485 1178.5 467.5Q1219 450 1246.5 419.0Q1274 388 1289.0 345.5Q1304 303 1304 254Q1304 203 1289.0 159.5Q1274 116 1245.0 84.5Q1216 53 1174.5 35.0Q1133 17 1080 17ZM1578 17Q1527 17 1486.5 34.0Q1446 51 1417.5 81.5Q1389 112 1374.0 153.5Q1359 195 1359 245Q1359 297 1374.5 341.0Q1390 385 1419.0 417.0Q1448 449 1490.0 467.0Q1532 485 1586 485Q1637 485 1677.5 467.5Q1718 450 1745.5 419.0Q1773 388 1787.5 345.5Q1802 303 1802 254Q1802 203 1787.0 159.5Q1772 116 1743.0 84.5Q1714 53 1672.5 35.0Q1631 17 1578 17ZM2291 24H2188Q2136 104 2081.0 184.5Q2026 265 1978 347Q1980 328 1980.0 310.0Q1980 292 1980 273V24H1883V477H1993Q2044 399 2096.0 322.5Q2148 246 2196 165Q2194 176 2194.0 185.5Q2194 195 2194 206V477H2291ZM500 42V143Q555 97 625 97Q636 97 649.5 99.0Q663 101 674.5 106.0Q686 111 694.0 120.0Q702 129 702 143Q702 163 687.0 176.0Q672 189 649.0 200.0Q626 211 600.0 222.0Q574 233 551.0 249.5Q528 266 513.0 290.0Q498 314 498 350Q498 387 513.5 413.0Q529 439 554.5 455.0Q580 471 612.0 478.0Q644 485 676 485Q706 485 733.0 482.0Q760 479 789 468V373Q766 390 738.5 397.5Q711 405 682 405Q671 405 658.0 403.0Q645 401 633.5 395.5Q622 390 614.0 381.0Q606 372 606 359Q606 340 621.0 327.5Q636 315 658.5 304.5Q681 294 707.5 283.0Q734 272 756.5 255.0Q779 238 794.0 213.5Q809 189 809 152Q809 112 793.5 86.0Q778 60 753.0 44.5Q728 29 696.0 23.0Q664 17 630 17Q597 17 563.5 21.5Q530 26 500 42ZM1084 397Q1052 397 1030.0 384.5Q1008 372 994.5 351.0Q981 330 974.5 303.5Q968 277 968 250Q968 223 974.0 196.5Q980 170 993.5 150.0Q1007 130 1028.5 117.5Q1050 105 1082 105Q1113 105 1135.0 117.0Q1157 129 1170.5 149.0Q1184 169 1190.5 195.0Q1197 221 1197 248Q1197 275 1191.5 302.0Q1186 329 1173.0 350.0Q1160 371 1138.0 384.0Q1116 397 1084 397ZM1583 397Q1552 397 1530.0 384.5Q1508 372 1493.5 351.0Q1479 330 1472.5 303.5Q1466 277 1466 250Q1466 223 1472.5 197.0Q1479 171 1492.5 150.5Q1506 130 1528.0 117.5Q1550 105 1580 105Q1611 105 1633.0 117.0Q1655 129 1669.0 149.0Q1683 169 1689.0 194.5Q1695 220 1695 248Q1695 275 1689.5 301.5Q1684 328 1671.0 349.5Q1658 371 1636.5 384.0Q1615 397 1583 397Z" style="fill:#ffffff;stroke:none" transform="scale(1,-1) translate(0,-256)" /></svg>