<?xml version="1.0" encoding="utf-8" ?>
<svg baseProfile="full" height="256" version="1.1" width="256" xmlns="http://www.w3.org/2000/svg" xmlns:ev="http://www.w3.org/2001/xml-events" xmlns:xlink="http://www.w3.org/1999/xlink"><defs /><path d="M854 -431Q784 -431 728.5 -394.5Q673 -358 643 -296Q593 -194 521.5 -118.0Q450 -42 348 9L256 55V318Q256 397 281.0 471.5Q306 546 353 609Q380 645 397.0 676.5Q414 708 414 755Q414 789 404.5 812.5Q395 836 381 865L379 870Q354 920 341.0 975.5Q328 1031 328 1087V1704Q328 1738 341.0 1768.0Q354 1798 376.5 1820.5Q399 1843 429.0 1856.0Q459 1869 493 1869H522Q556 1869 586.0 1856.0Q616 1843 638.5 1820.5Q661 1798 674.0 1768.0Q687 1738 687 1704V1438H1118V1704Q1118 1738 1131.0 1768.0Q1144 1798 1166.5 1820.5Q1189 1843 1219.5 1856.0Q1250 1869 1284 1869H1313Q1347 1869 1377.0 1856.0Q1407 1843 1429.5 1820.5Q1452 1798 1465.0 1768.0Q1478 1738 1478 1704V1087Q1478 1031 1465.0 975.5Q1452 920 1427 870L1422 860Q1409 834 1400.5 811.0Q1392 788 1392 755Q1392 708 1408.5 676.5Q1425 645 1453 609Q1500 548 1525.0 471.5Q1550 395 1550 318V55Q1479 20 1423.5 -11.5Q1368 -43 1322.0 -82.0Q1276 -121 1237.5 -172.0Q1199 -223 1163 -296Q1133 -358 1077.0 -394.5Q1021 -431 951 -431Z" style="fill:#000000;stroke:none" transform="scale(1,-1) translate(0,-256)" /></svg>