<?xml version="1.0" encoding="utf-8" ?>
<svg baseProfile="full" height="256" version="1.1" width="256" xmlns="http://www.w3.org/2000/svg" xmlns:ev="http://www.w3.org/2001/xml-events" xmlns:xlink="http://www.w3.org/1999/xlink"><defs /><path d="M1334 1087Q1334 1037 1320.5 998.0Q1307 959 1291.0 921.5Q1275 884 1261.5 844.5Q1248 805 1248 755Q1248 705 1259.5 667.5Q1271 630 1289.0 598.0Q1307 566 1327.0 536.5Q1347 507 1365.0 475.0Q1383 443 1394.5 405.0Q1406 367 1406 318V144Q1343 117 1287.5 77.0Q1232 37 1185.5 -12.5Q1139 -62 1100.5 -118.5Q1062 -175 1032 -236Q1020 -260 999.0 -273.5Q978 -287 951 -287H854Q828 -287 806.5 -273.0Q785 -259 774 -236Q744 -176 705.5 -119.0Q667 -62 620.0 -13.0Q573 36 518.0 76.5Q463 117 400 144V318Q400 367 411.5 405.0Q423 443 440.5 475.0Q458 507 478.5 536.5Q499 566 516.5 598.0Q534 630 545.5 667.5Q557 705 557 755Q557 804 543.5 843.5Q530 883 514.5 920.5Q499 958 485.5 998.0Q472 1038 472 1087V1704Q472 1713 478.0 1719.0Q484 1725 493 1725Q497 1725 502.0 1725.5Q507 1726 512 1726Q523 1726 533.0 1722.0Q543 1718 543 1704V1366Q543 1337 564.5 1315.5Q586 1294 615 1294H1190Q1220 1294 1241.0 1315.0Q1262 1336 1262 1366V1704Q1262 1713 1268.5 1719.0Q1275 1725 1284 1725H1301Q1313 1725 1323.5 1721.5Q1334 1718 1334 1704V1087Z" style="fill:#c239b3;stroke:none" transform="scale(1,-1) translate(0,-256)" /></svg>