<?xml version="1.0" encoding="utf-8" ?>
<svg baseProfile="full" height="256" version="1.1" width="256" xmlns="http://www.w3.org/2000/svg" xmlns:ev="http://www.w3.org/2001/xml-events" xmlns:xlink="http://www.w3.org/1999/xlink"><defs /><path d="M1442 1510Q1406 1510 1374 1534L1207 1659Q1199 1665 1194.5 1672.0Q1190 1679 1190 1689Q1190 1704 1200.5 1714.5Q1211 1725 1226 1725H1442Q1464 1725 1483.5 1716.5Q1503 1708 1518.0 1693.0Q1533 1678 1541.5 1658.5Q1550 1639 1550 1617Q1550 1595 1541.5 1575.5Q1533 1556 1518.0 1541.5Q1503 1527 1483.5 1518.5Q1464 1510 1442 1510ZM1717 1294Q1693 1294 1672 1310L1561 1394Q1550 1403 1550 1414Q1550 1424 1557.0 1431.0Q1564 1438 1574 1438H1717Q1747 1438 1768.0 1417.0Q1789 1396 1789 1366Q1789 1336 1768.0 1315.0Q1747 1294 1717 1294ZM2233 72Q2254 72 2278.0 83.5Q2302 95 2326.0 111.0Q2350 127 2372.5 144.5Q2395 162 2412 173V-287H400V123L708 338Q718 348 732.0 354.0Q746 360 759 360Q788 360 809.5 338.5Q831 317 831 288V180Q831 157 839.5 137.5Q848 118 862.5 103.5Q877 89 896.5 80.5Q916 72 939 72Q955 72 972.5 78.0Q990 84 1003 93L1355 338Q1365 348 1379.0 354.0Q1393 360 1406 360Q1435 360 1456.5 338.5Q1478 317 1478 288V180Q1478 157 1486.5 137.5Q1495 118 1509.5 103.5Q1524 89 1543.5 80.5Q1563 72 1586 72Q1601 72 1619.5 78.5Q1638 85 1650 93L2001 338Q2013 346 2025.5 353.0Q2038 360 2053 360Q2082 360 2103.5 338.5Q2125 317 2125 288V180Q2125 157 2133.5 137.5Q2142 118 2156.5 103.5Q2171 89 2190.5 80.5Q2210 72 2233 72Z" style="fill:#69eaff;stroke:none" transform="scale(1,-1) translate(0,-256)" /></svg>