<?xml version="1.0" encoding="utf-8" ?>
<svg baseProfile="full" height="256" version="1.1" width="256" xmlns="http://www.w3.org/2000/svg" xmlns:ev="http://www.w3.org/2001/xml-events" xmlns:xlink="http://www.w3.org/1999/xlink"><defs /><path d="M911 432Q878 432 854.5 455.5Q831 479 831 512Q831 523 834.0 532.5Q837 542 842 552Q851 569 860.0 586.5Q869 604 881.0 617.5Q893 631 908.0 639.5Q923 648 943 648Q976 648 1000.0 624.0Q1024 600 1024 567Q1024 555 1021.0 547.0Q1018 539 1013 528L1009 520Q1001 505 992.0 489.0Q983 473 972.0 460.5Q961 448 946.0 440.0Q931 432 911 432ZM1078 718Q1045 718 1021.0 742.0Q997 766 997 799Q997 810 1000.0 819.0Q1003 828 1008 838Q1018 857 1028.5 874.5Q1039 892 1050.5 905.5Q1062 919 1076.5 926.5Q1091 934 1110 934Q1143 934 1167.0 910.5Q1191 887 1191 854Q1191 843 1188.0 834.0Q1185 825 1180 815Q1171 798 1162.5 781.0Q1154 764 1142.5 750.0Q1131 736 1115.5 727.0Q1100 718 1078 718Z" style="fill:#000000;stroke:none" transform="scale(1,-1) translate(0,-256)" /></svg>