<?xml version="1.0" encoding="utf-8" ?>
<svg baseProfile="full" height="256" version="1.1" width="256" xmlns="http://www.w3.org/2000/svg" xmlns:ev="http://www.w3.org/2001/xml-events" xmlns:xlink="http://www.w3.org/1999/xlink"><defs /><path d="M400 431Q406 431 415.0 433.0Q424 435 433.5 438.0Q443 441 451.0 445.0Q459 449 464 452L816 697Q826 704 830.5 711.5Q835 719 849 719Q864 719 874.5 712.5Q885 706 891.5 696.0Q898 686 900.5 673.0Q903 660 903 647V539Q903 516 914.5 496.0Q926 476 944.5 461.5Q963 447 985.5 439.0Q1008 431 1029 431Q1034 431 1044.5 433.0Q1055 435 1066.0 438.5Q1077 442 1087.0 445.5Q1097 449 1102 452L1458 697Q1469 704 1474.5 711.5Q1480 719 1494 719Q1525 719 1537.5 696.5Q1550 674 1550 647V539Q1550 516 1561.5 496.5Q1573 477 1591.5 462.5Q1610 448 1632.0 439.5Q1654 431 1675 431Q1681 431 1691.5 433.0Q1702 435 1713.0 438.0Q1724 441 1734.0 445.0Q1744 449 1749 452L2105 697Q2115 704 2120.5 711.5Q2126 719 2140 719Q2172 719 2184.5 697.0Q2197 675 2197 647V539Q2197 516 2211.5 496.0Q2226 476 2248.0 461.5Q2270 447 2295.0 439.0Q2320 431 2340 431H2412V173L2194 -73H1381Q1330 -62 1279.5 -57.0Q1229 -52 1178.0 -49.0Q1127 -46 1076.5 -43.5Q1026 -41 975 -35Q925 -30 878.5 -13.0Q832 4 783 18L400 123Z" style="fill:#00bcf2;stroke:none" transform="scale(1,-1) translate(0,-256)" /></svg>