<?xml version="1.0" encoding="utf-8" ?>
<svg baseProfile="full" height="256" version="1.1" width="256" xmlns="http://www.w3.org/2000/svg" xmlns:ev="http://www.w3.org/2001/xml-events" xmlns:xlink="http://www.w3.org/1999/xlink"><defs /><path d="M2556 770V-431H256V575H388L487 643Q482 663 479.0 683.0Q476 703 474 723Q458 719 436 719Q398 719 365.5 733.0Q333 747 308.5 771.5Q284 796 270.0 828.5Q256 861 256 899V1114Q256 1192 296.0 1251.5Q336 1311 405 1344Q508 1393 612.0 1438.5Q716 1484 821 1530Q889 1560 930.5 1578.5Q972 1597 996.5 1608.0Q1021 1619 1033.5 1624.5Q1046 1630 1057 1633Q1047 1659 1047 1689Q1047 1726 1061.0 1759.0Q1075 1792 1099.5 1816.5Q1124 1841 1156.5 1855.0Q1189 1869 1226 1869H1442Q1494 1869 1540.0 1849.0Q1586 1829 1620.0 1795.0Q1654 1761 1673.5 1715.0Q1693 1669 1693 1617Q1693 1599 1690 1581H1717Q1762 1581 1801.0 1564.0Q1840 1547 1869.5 1518.0Q1899 1489 1916.0 1450.0Q1933 1411 1933 1366Q1933 1326 1918.0 1288.5Q1903 1251 1877 1222Z" style="fill:#000000;stroke:none" transform="scale(1,-1) translate(0,-256)" /></svg>