<?xml version="1.0" encoding="utf-8" ?>
<svg baseProfile="full" height="256" version="1.1" width="256" xmlns="http://www.w3.org/2000/svg" xmlns:ev="http://www.w3.org/2001/xml-events" xmlns:xlink="http://www.w3.org/1999/xlink"><defs /><path d="M1801 1078Q1853 1078 1899.0 1058.5Q1945 1039 1979.0 1005.0Q2013 971 2033.0 925.0Q2053 879 2053 827V791H1981Q1981 828 1967.0 861.0Q1953 894 1928.5 918.5Q1904 943 1871.0 957.0Q1838 971 1801 971Q1763 971 1730.5 957.0Q1698 943 1674.0 918.5Q1650 894 1636.0 861.0Q1622 828 1622 791H1550V827Q1550 879 1569.5 925.0Q1589 971 1623.0 1005.0Q1657 1039 1702.5 1058.5Q1748 1078 1801 1078ZM1011 971Q973 971 940.5 957.0Q908 943 883.5 918.5Q859 894 845.0 861.0Q831 828 831 791H759V827Q759 879 779.0 925.0Q799 971 833.0 1005.0Q867 1039 913.0 1058.5Q959 1078 1011 1078Q1063 1078 1109.0 1058.5Q1155 1039 1189.0 1005.0Q1223 971 1242.5 925.0Q1262 879 1262 827V791H1190Q1190 828 1176.0 861.0Q1162 894 1138.0 918.5Q1114 943 1081.0 957.0Q1048 971 1011 971ZM1981 487Q2010 487 2031.5 465.5Q2053 444 2053 415Q2053 398 2045 382Q2003 292 1934.5 220.0Q1866 148 1781.0 97.5Q1696 47 1599.5 20.0Q1503 -7 1406 -7Q1308 -7 1212.0 20.0Q1116 47 1031.0 97.5Q946 148 877.5 220.0Q809 292 767 382Q759 398 759 415Q759 444 780.5 465.5Q802 487 831 487Q854 487 868.0 476.5Q882 466 895 448Q913 423 928.0 396.0Q943 369 963 345Q1003 295 1053.5 256.5Q1104 218 1161.0 191.5Q1218 165 1280.0 151.0Q1342 137 1406 137Q1470 137 1532.0 151.0Q1594 165 1651.0 191.5Q1708 218 1758.5 256.5Q1809 295 1849 345Q1869 369 1884.0 396.0Q1899 423 1917 448Q1930 466 1944.0 476.5Q1958 487 1981 487Z" style="fill:#000000;stroke:none" transform="scale(1,-1) translate(0,-256)" /></svg>