<?xml version="1.0" encoding="utf-8" ?>
<svg baseProfile="full" height="256" version="1.1" width="256" xmlns="http://www.w3.org/2000/svg" xmlns:ev="http://www.w3.org/2001/xml-events" xmlns:xlink="http://www.w3.org/1999/xlink"><defs /><path d="M1933 383 2112 203Q2153 161 2175.0 109.5Q2197 58 2197 0Q2197 -59 2174.0 -111.0Q2151 -163 2111.5 -202.0Q2072 -241 2019.5 -264.0Q1967 -287 1909 -287Q1852 -287 1799.5 -265.5Q1747 -244 1706 -203L1418 84Q1497 84 1573.0 104.5Q1649 125 1716.5 163.5Q1784 202 1839.5 257.5Q1895 313 1933 383Z" style="fill:#f03a17;stroke:none" transform="scale(1,-1) translate(0,-256)" /></svg>