<?xml version="1.0" encoding="utf-8" ?>
<svg baseProfile="full" height="256" version="1.1" width="256" xmlns="http://www.w3.org/2000/svg" xmlns:ev="http://www.w3.org/2001/xml-events" xmlns:xlink="http://www.w3.org/1999/xlink"><defs /><path d="M1904 1509Q2009 1509 2101.5 1469.0Q2194 1429 2263.0 1360.0Q2332 1291 2372.0 1198.5Q2412 1106 2412 1001Q2412 899 2373.5 806.5Q2335 714 2263 642L1406 -215L1000 190Q992 198 983.5 201.5Q975 205 967 212Q960 218 957.5 226.5Q955 235 949 241L549 642Q477 714 438.5 806.0Q400 898 400 1001Q400 1106 440.0 1198.5Q480 1291 549.0 1360.0Q618 1429 710.5 1469.0Q803 1509 908 1509Q990 1509 1054.5 1488.5Q1119 1468 1173.5 1433.0Q1228 1398 1277.0 1351.5Q1326 1305 1377 1252L1406 1222L1438 1255Q1489 1307 1537.5 1353.5Q1586 1400 1640.0 1434.5Q1694 1469 1758.0 1489.0Q1822 1509 1904 1509Z" style="fill:#e81224;stroke:none" transform="scale(1,-1) translate(0,-256)" /></svg>