<?xml version="1.0" encoding="utf-8" ?>
<svg baseProfile="full" height="256" version="1.1" width="256" xmlns="http://www.w3.org/2000/svg" xmlns:ev="http://www.w3.org/2001/xml-events" xmlns:xlink="http://www.w3.org/1999/xlink"><defs /><path d="M2455 1349Q2506 1271 2531.0 1182.5Q2556 1094 2556 1001Q2556 870 2507.0 751.5Q2458 633 2365 540L1406 -419L1103 -116L490 -269L643 344Q567 418 497.0 486.5Q427 555 373.5 631.0Q320 707 288.0 796.0Q256 885 256 1001Q256 1091 279.0 1174.5Q302 1258 344.5 1330.5Q387 1403 446.5 1462.5Q506 1522 578.5 1564.5Q651 1607 734.5 1630.0Q818 1653 908 1653Q986 1653 1053.5 1638.0Q1121 1623 1181.5 1593.5Q1242 1564 1297.5 1521.5Q1353 1479 1406 1425Q1459 1479 1514.5 1521.5Q1570 1564 1630.5 1593.5Q1691 1623 1758.5 1638.0Q1826 1653 1904 1653Q1941 1653 1977.5 1649.0Q2014 1645 2049 1637L2197 1785L2294 1687Q2355 1679 2396.0 1637.0Q2437 1595 2446 1535L2544 1438Z" style="fill:#000000;stroke:none" transform="scale(1,-1) translate(0,-256)" /></svg>