<?xml version="1.0" encoding="utf-8" ?>
<svg baseProfile="full" height="256" version="1.1" width="256" xmlns="http://www.w3.org/2000/svg" xmlns:ev="http://www.w3.org/2001/xml-events" xmlns:xlink="http://www.w3.org/1999/xlink"><defs /><path d="M1218 360Q1172 360 1141 391L782 751Q737 796 712.0 855.5Q687 915 687 979V1114Q687 1136 695.5 1156.0Q704 1176 718.5 1190.5Q733 1205 752.5 1213.5Q772 1222 795 1222Q817 1222 836.5 1213.5Q856 1205 871.0 1190.0Q886 1175 894.5 1155.5Q903 1136 903 1114V979Q903 958 911.0 938.0Q919 918 934 903L1294 544Q1309 529 1317.0 508.5Q1325 488 1325 467Q1325 444 1316.5 424.5Q1308 405 1294.0 391.0Q1280 377 1260.0 368.5Q1240 360 1218 360Z" style="fill:#ef6950;stroke:none" transform="scale(1,-1) translate(0,-256)" /></svg>