<?xml version="1.0" encoding="utf-8" ?>
<svg baseProfile="full" height="256" version="1.1" width="256" xmlns="http://www.w3.org/2000/svg" xmlns:ev="http://www.w3.org/2001/xml-events" xmlns:xlink="http://www.w3.org/1999/xlink"><defs /><path d="M400 0 1334 935 1380 961 1408 996 1414 970Q1428 1013 1466.0 1040.5Q1504 1068 1549 1068Q1579 1068 1605.0 1056.5Q1631 1045 1651.0 1025.0Q1671 1005 1682.5 979.0Q1694 953 1694 923Q1694 880 1672.5 850.0Q1651 820 1622 791L916 85Q903 72 903 52Q903 31 917.5 15.5Q932 0 954 0Q963 0 972.0 3.0Q981 6 988 13L1622 647Q1625 650 1632.0 654.0Q1639 658 1646.0 662.0Q1653 666 1659.0 669.5Q1665 673 1666 675L1695 714L1702 683Q1716 726 1754.0 753.0Q1792 780 1837 780Q1867 780 1893.0 768.5Q1919 757 1938.5 737.5Q1958 718 1969.5 692.0Q1981 666 1981 636Q1981 614 1975.0 596.0Q1969 578 1959.5 562.5Q1950 547 1937.0 532.5Q1924 518 1909 503L1347 -59Q1340 -66 1337.0 -75.0Q1334 -84 1334 -93Q1334 -113 1349.5 -128.5Q1365 -144 1385 -144Q1405 -144 1419 -130L1909 360Q1926 377 1946.5 390.0Q1967 403 1982 423L1989 395Q2003 438 2041.0 465.5Q2079 493 2124 493Q2154 493 2180.0 481.5Q2206 470 2226.0 450.0Q2246 430 2257.5 404.0Q2269 378 2269 348Q2269 305 2247.5 275.0Q2226 245 2197 216L1693 -287H400Z" style="fill:#ffc83d;stroke:none" transform="scale(1,-1) translate(0,-256)" /></svg>