<?xml version="1.0" encoding="utf-8" ?>
<svg baseProfile="full" height="256" version="1.1" width="256" xmlns="http://www.w3.org/2000/svg" xmlns:ev="http://www.w3.org/2001/xml-events" xmlns:xlink="http://www.w3.org/1999/xlink"><defs /><path d="M1981 1725H2053Q2070 1725 2085.5 1719.5Q2101 1714 2118 1714Q2138 1714 2157.0 1719.5Q2176 1725 2196 1725H2412V1438Q2412 1414 2402.5 1399.5Q2393 1385 2378.0 1377.5Q2363 1370 2344.0 1368.0Q2325 1366 2306 1366H2269V1150L2192 1135L2125 1150V1366L2095 1374Q2084 1372 2074.0 1369.0Q2064 1366 2053 1366Q2023 1366 2002.0 1387.0Q1981 1408 1981 1438Z" style="fill:#f2f2f2;stroke:none" transform="scale(1,-1) translate(0,-256)" /></svg>