<?xml version="1.0" encoding="utf-8" ?>
<svg baseProfile="full" height="256" version="1.1" width="256" xmlns="http://www.w3.org/2000/svg" xmlns:ev="http://www.w3.org/2001/xml-events" xmlns:xlink="http://www.w3.org/1999/xlink"><defs /><path d="M256 -431V72L1622 1438Q1655 1402 1688.5 1366.5Q1722 1331 1749.0 1293.0Q1776 1255 1793.5 1211.0Q1811 1167 1811 1114Q1811 1085 1805 1057L1812 1041L1850 1078H1981V1235Q1948 1247 1921.5 1267.0Q1895 1287 1876.5 1313.5Q1858 1340 1847.5 1371.5Q1837 1403 1837 1438V1869H2556V1438Q2556 1404 2545.0 1372.5Q2534 1341 2515.0 1314.0Q2496 1287 2469.5 1266.5Q2443 1246 2412 1234V1150Q2412 1047 2367.0 958.0Q2322 869 2241 806Q2272 776 2298.5 747.5Q2325 719 2344.5 688.0Q2364 657 2375.0 621.0Q2386 585 2386 539Q2386 510 2380 482Q2412 420 2412 349Q2412 275 2381.5 221.5Q2351 168 2300 117L1753 -431Z" style="fill:#000000;stroke:none" transform="scale(1,-1) translate(0,-256)" /></svg>