<?xml version="1.0" encoding="utf-8" ?>
<svg baseProfile="full" height="256" version="1.1" width="256" xmlns="http://www.w3.org/2000/svg" xmlns:ev="http://www.w3.org/2001/xml-events" xmlns:xlink="http://www.w3.org/1999/xlink"><defs /><path d="M1949 863Q1951 854 1952.0 844.5Q1953 835 1953 826Q1953 796 1941.5 768.0Q1930 740 1909 719L1729 539L1622 647L1909 935H1981Q2011 935 2037.0 946.0Q2063 957 2082.5 976.5Q2102 996 2113.5 1022.0Q2125 1048 2125 1078V1150H2268Q2268 1090 2245.5 1038.0Q2223 986 2184.0 947.0Q2145 908 2093.0 885.5Q2041 863 1981 863ZM1909 360 2197 647Q2218 625 2229.5 596.5Q2241 568 2241 538Q2241 508 2229.5 480.0Q2218 452 2197 431L2017 252ZM1622 1222Q1643 1200 1654.5 1171.5Q1666 1143 1666 1113Q1666 1083 1654.5 1055.0Q1643 1027 1622 1006L1442 827L1334 935Z" style="fill:#ee3f86;stroke:none" transform="scale(1,-1) translate(0,-256)" /></svg>