<?xml version="1.0" encoding="utf-8" ?>
<svg baseProfile="full" height="256" version="1.1" width="256" xmlns="http://www.w3.org/2000/svg" xmlns:ev="http://www.w3.org/2001/xml-events" xmlns:xlink="http://www.w3.org/1999/xlink"><defs /><path d="M1262 1006H1899L1540 647H903ZM533 277 831 575H1468L1317 424Q1280 387 1230.5 350.0Q1181 313 1125.5 283.0Q1070 253 1012.5 234.5Q955 216 901 216H655Q615 216 587.5 233.0Q560 250 533 277ZM2125 1478Q2125 1428 2111.5 1373.5Q2098 1319 2075.5 1266.0Q2053 1213 2024.0 1164.5Q1995 1116 1964 1078H1334Q1376 1120 1417.5 1162.0Q1459 1204 1503.0 1243.0Q1547 1282 1594.0 1317.0Q1641 1352 1694 1379L2125 1601Z" style="fill:#c19c00;stroke:none" transform="scale(1,-1) translate(0,-256)" /></svg>