<?xml version="1.0" encoding="utf-8" ?>
<svg baseProfile="full" height="256" version="1.1" width="256" xmlns="http://www.w3.org/2000/svg" xmlns:ev="http://www.w3.org/2001/xml-events" xmlns:xlink="http://www.w3.org/1999/xlink"><defs /><path d="M2233 1653Q2244 1653 2249.5 1648.5Q2255 1644 2263 1636Q2293 1603 2320.5 1568.5Q2348 1534 2368.5 1496.5Q2389 1459 2401.0 1417.5Q2413 1376 2413 1329Q2413 1236 2377.5 1150.5Q2342 1065 2276 999L1088 -179Q1049 -217 1012.5 -239.0Q976 -261 937.0 -271.5Q898 -282 854.5 -284.5Q811 -287 759 -287Q685 -287 619.5 -259.0Q554 -231 505.0 -182.0Q456 -133 428.0 -67.5Q400 -2 400 72V324Q400 339 410.5 349.5Q421 360 436 360Q445 360 458.5 349.5Q472 339 486.5 325.0Q501 311 514.0 297.5Q527 284 533 277Q555 283 584.0 301.5Q613 320 644.0 345.5Q675 371 706.0 402.0Q737 433 762.5 464.0Q788 495 806.5 524.0Q825 553 831 575L903 647Q918 662 936.5 672.0Q955 682 972 693Q1050 743 1111.5 801.5Q1173 860 1223 939Q1233 955 1242.0 974.0Q1251 993 1262 1007Q1265 1010 1275.5 1021.0Q1286 1032 1298.0 1044.0Q1310 1056 1320.5 1066.0Q1331 1076 1334 1078Q1369 1098 1406.0 1116.0Q1443 1134 1478 1153Q1622 1230 1758.5 1323.0Q1895 1416 2022 1519Q2048 1540 2072.0 1562.0Q2096 1584 2125 1601Q2131 1605 2147.0 1613.5Q2163 1622 2180.0 1631.0Q2197 1640 2212.5 1646.5Q2228 1653 2233 1653Z" style="fill:#fff100;stroke:none" transform="scale(1,-1) translate(0,-256)" /></svg>