<?xml version="1.0" encoding="utf-8" ?>
<svg baseProfile="full" height="256" version="1.1" width="256" xmlns="http://www.w3.org/2000/svg" xmlns:ev="http://www.w3.org/2001/xml-events" xmlns:xlink="http://www.w3.org/1999/xlink"><defs /><path d="M1795 431H1981Q2010 431 2036.5 420.0Q2063 409 2083 389L2370 102Q2412 60 2412 1Q2412 -33 2397 -63Q2392 -62 2387.0 -62.0Q2382 -62 2377 -62Q2325 -62 2289.0 -77.0Q2253 -92 2230.5 -119.5Q2208 -147 2198.0 -186.0Q2188 -225 2188 -273Q2174 -281 2158.0 -284.0Q2142 -287 2125 -287Q2096 -287 2069.5 -276.0Q2043 -265 2023 -245L1736 42Q1716 62 1705.0 88.5Q1694 115 1694 144V330L493 1531Q472 1552 472 1581Q472 1610 493.0 1631.5Q514 1653 543 1653Q573 1653 594 1632Z" style="fill:#f7630c;stroke:none" transform="scale(1,-1) translate(0,-256)" /></svg>