<?xml version="1.0" encoding="utf-8" ?>
<svg baseProfile="full" height="256" version="1.1" width="256" xmlns="http://www.w3.org/2000/svg" xmlns:ev="http://www.w3.org/2001/xml-events" xmlns:xlink="http://www.w3.org/1999/xlink"><defs /><path d="M2125 -431Q2066 -431 2014.5 -410.0Q1963 -389 1921 -347L1634 -59Q1574 1 1556 83L1189 -281Q1115 -354 1025.0 -392.5Q935 -431 831 -431H759Q655 -431 563.5 -391.5Q472 -352 403.5 -283.5Q335 -215 295.5 -123.5Q256 -32 256 72V324Q256 361 270.0 393.5Q284 426 308.5 450.5Q333 475 366.0 489.0Q399 503 436 503Q486 503 529 477L936 884L391 1429Q361 1459 344.5 1498.5Q328 1538 328 1581Q328 1626 345.0 1665.0Q362 1704 391.0 1733.5Q420 1763 459.0 1780.0Q498 1797 543 1797Q587 1797 626.0 1781.0Q665 1765 696 1734L1241 1189L1267 1215Q1309 1256 1351.0 1296.5Q1393 1337 1438.0 1375.0Q1483 1413 1530.5 1447.0Q1578 1481 1630 1508L2145 1774Q2166 1785 2187.5 1791.0Q2209 1797 2233 1797Q2278 1797 2311.0 1778.0Q2344 1759 2374 1727Q2407 1691 2438.0 1651.0Q2469 1611 2493.0 1567.5Q2517 1524 2533.0 1477.0Q2549 1430 2554 1380Q2555 1367 2555.5 1354.5Q2556 1342 2556 1329Q2556 1207 2510.0 1095.5Q2464 984 2377 898L2045 568Q2084 559 2119.5 539.5Q2155 520 2184 491L2472 203Q2513 162 2534.5 109.5Q2556 57 2556 0Q2556 -58 2534.5 -109.5Q2513 -161 2472 -203L2328 -347Q2288 -387 2235.0 -409.0Q2182 -431 2125 -431Z" style="fill:#000000;stroke:none" transform="scale(1,-1) translate(0,-256)" /></svg>