<?xml version="1.0" encoding="utf-8" ?>
<svg baseProfile="full" height="256" version="1.1" width="256" xmlns="http://www.w3.org/2000/svg" xmlns:ev="http://www.w3.org/2001/xml-events" xmlns:xlink="http://www.w3.org/1999/xlink"><defs /><path d="M2556 1869V724Q2556 529 2494.5 347.0Q2433 165 2312 11Q2344 -40 2360.0 -97.5Q2376 -155 2376 -215V-359H1945V-297Q1820 -364 1684.0 -397.5Q1548 -431 1406 -431Q1247 -431 1100.5 -390.0Q954 -349 826.0 -274.0Q698 -199 593.0 -94.0Q488 11 413.0 139.0Q338 267 297.0 414.0Q256 561 256 719Q256 905 313.5 1079.0Q371 1253 481 1402Q441 1457 420.5 1521.0Q400 1585 400 1653V1797H831V1715Q963 1792 1108.5 1830.5Q1254 1869 1406 1869Z" style="fill:#000000;stroke:none" transform="scale(1,-1) translate(0,-256)" /></svg>