<?xml version="1.0" encoding="utf-8" ?>
<svg baseProfile="full" height="256" version="1.1" width="256" xmlns="http://www.w3.org/2000/svg" xmlns:ev="http://www.w3.org/2001/xml-events" xmlns:xlink="http://www.w3.org/1999/xlink"><defs /><path d="M1154 431Q1154 461 1165.5 487.0Q1177 513 1196.5 532.5Q1216 552 1242.0 563.5Q1268 575 1298 575H1514Q1529 575 1539.5 564.5Q1550 554 1550 539Q1550 524 1539.5 513.5Q1529 503 1514 503H1298Q1268 503 1247.0 482.0Q1226 461 1226 431Q1226 402 1247.5 381.0Q1269 360 1298 360V216Q1268 216 1247.0 195.0Q1226 174 1226 144Q1226 114 1247.0 93.0Q1268 72 1298 72H1514Q1529 72 1539.5 61.5Q1550 51 1550 36Q1550 21 1539.5 10.5Q1529 0 1514 0H1298Q1268 0 1242.0 11.5Q1216 23 1196.5 42.5Q1177 62 1165.5 88.0Q1154 114 1154 144Q1154 173 1164.5 198.5Q1175 224 1194.0 243.5Q1213 263 1238.0 275.0Q1263 287 1292 288Q1263 289 1238.0 301.0Q1213 313 1194.5 332.5Q1176 352 1165.0 377.0Q1154 402 1154 431Z" style="fill:#d48c00;stroke:none" transform="scale(1,-1) translate(0,-256)" /></svg>