<?xml version="1.0" encoding="utf-8" ?>
<svg baseProfile="full" height="256" version="1.1" width="256" xmlns="http://www.w3.org/2000/svg" xmlns:ev="http://www.w3.org/2001/xml-events" xmlns:xlink="http://www.w3.org/1999/xlink"><defs /><path d="M2412 863Q2293 863 2182.5 893.5Q2072 924 1976.5 980.5Q1881 1037 1802.5 1115.5Q1724 1194 1667.5 1289.5Q1611 1385 1580.5 1495.5Q1550 1606 1550 1725H1765Q1765 1591 1816.0 1473.5Q1867 1356 1955.0 1268.0Q2043 1180 2160.5 1129.0Q2278 1078 2412 1078ZM2412 1294Q2323 1294 2244.5 1328.0Q2166 1362 2107.5 1420.5Q2049 1479 2015.0 1557.5Q1981 1636 1981 1725H2196Q2196 1680 2213.0 1641.0Q2230 1602 2259.5 1573.0Q2289 1544 2328.0 1527.0Q2367 1510 2412 1510Z" style="fill:#0063b1;stroke:none" transform="scale(1,-1) translate(0,-256)" /></svg>