<?xml version="1.0" encoding="utf-8" ?>
<svg baseProfile="full" height="256" version="1.1" width="256" xmlns="http://www.w3.org/2000/svg" xmlns:ev="http://www.w3.org/2001/xml-events" xmlns:xlink="http://www.w3.org/1999/xlink"><defs /><path d="M1406 216H795Q743 216 697.5 236.0Q652 256 617.5 290.0Q583 324 563.0 369.5Q543 415 543 467Q543 519 563.0 565.0Q583 611 617.0 645.0Q651 679 697.0 699.0Q743 719 795 719Q825 719 846.0 698.0Q867 677 867 647Q867 617 846.0 596.0Q825 575 795 575Q773 575 753.5 566.5Q734 558 719.0 543.0Q704 528 695.5 508.5Q687 489 687 467Q687 445 695.5 425.5Q704 406 719.0 391.5Q734 377 753.5 368.5Q773 360 795 360H1406Q1435 360 1456.5 338.5Q1478 317 1478 288Q1478 258 1457.0 237.0Q1436 216 1406 216Z" style="fill:#0078d7;stroke:none" transform="scale(1,-1) translate(0,-256)" /></svg>