<?xml version="1.0" encoding="utf-8" ?>
<svg baseProfile="full" height="256" version="1.1" width="256" xmlns="http://www.w3.org/2000/svg" xmlns:ev="http://www.w3.org/2001/xml-events" xmlns:xlink="http://www.w3.org/1999/xlink"><defs /><path d="M1801 1078Q1853 1078 1899.0 1058.5Q1945 1039 1979.0 1005.0Q2013 971 2033.0 925.0Q2053 879 2053 827V791H1981Q1981 828 1967.0 861.0Q1953 894 1928.5 918.5Q1904 943 1871.0 957.0Q1838 971 1801 971Q1764 971 1731.0 957.0Q1698 943 1673.5 918.5Q1649 894 1635.0 861.0Q1621 828 1621 791H1550V827Q1550 879 1569.5 925.0Q1589 971 1623.0 1005.0Q1657 1039 1703.0 1058.5Q1749 1078 1801 1078ZM1011 1078Q1063 1078 1108.5 1058.0Q1154 1038 1188.0 1004.0Q1222 970 1242.0 924.5Q1262 879 1262 827V791H1190Q1190 828 1176.0 861.0Q1162 894 1137.5 918.5Q1113 943 1080.5 957.0Q1048 971 1011 971Q974 971 941.0 957.0Q908 943 883.5 918.5Q859 894 845.0 861.0Q831 828 831 791H759V827Q759 879 779.0 925.0Q799 971 833.0 1005.0Q867 1039 913.0 1058.5Q959 1078 1011 1078Z" style="fill:#000000;stroke:none" transform="scale(1,-1) translate(0,-256)" /></svg>