<?xml version="1.0" encoding="utf-8" ?>
<svg baseProfile="full" height="256" version="1.1" width="256" xmlns="http://www.w3.org/2000/svg" xmlns:ev="http://www.w3.org/2001/xml-events" xmlns:xlink="http://www.w3.org/1999/xlink"><defs /><path d="M1190 863Q1190 803 1167.5 750.5Q1145 698 1106.0 659.0Q1067 620 1015.0 597.5Q963 575 903 575Q843 575 790.5 597.5Q738 620 699.0 659.0Q660 698 637.5 750.5Q615 803 615 863Q615 921 638.0 973.5Q661 1026 700.5 1065.0Q740 1104 792.0 1127.0Q844 1150 903 1150Q962 1150 1014.5 1127.5Q1067 1105 1106.0 1066.0Q1145 1027 1167.5 974.5Q1190 922 1190 863Z" style="fill:#e4f577;stroke:none" transform="scale(1,-1) translate(0,-256)" /></svg>