<?xml version="1.0" encoding="utf-8" ?>
<svg baseProfile="full" height="256" version="1.1" width="256" xmlns="http://www.w3.org/2000/svg" xmlns:ev="http://www.w3.org/2001/xml-events" xmlns:xlink="http://www.w3.org/1999/xlink"><defs /><path d="M1926 1586 1952 1549Q1995 1487 2027.5 1438.0Q2060 1389 2082.0 1337.5Q2104 1286 2114.5 1224.5Q2125 1163 2125 1078L2268 1222V575Q2268 436 2232.0 307.5Q2196 179 2130.5 67.5Q2065 -44 1973.0 -136.0Q1881 -228 1769.5 -293.5Q1658 -359 1529.5 -395.0Q1401 -431 1262 -431Q1123 -431 994.5 -395.0Q866 -359 754.5 -293.5Q643 -228 551.0 -136.0Q459 -44 393.5 67.5Q328 179 292.0 307.5Q256 436 256 575V1222L400 1078V1083Q400 1171 412.0 1235.0Q424 1299 448.5 1354.0Q473 1409 510.5 1463.0Q548 1517 598 1586L762 1422Q772 1517 815.5 1599.0Q859 1681 926.5 1741.0Q994 1801 1080.5 1835.0Q1167 1869 1262 1869Q1358 1869 1444.0 1835.0Q1530 1801 1597.0 1741.0Q1664 1681 1707.5 1599.0Q1751 1517 1762 1422Z" style="fill:#000000;stroke:none" transform="scale(1,-1) translate(0,-256)" /></svg>