<?xml version="1.0" encoding="utf-8" ?>
<svg baseProfile="full" height="256" version="1.1" width="256" xmlns="http://www.w3.org/2000/svg" xmlns:ev="http://www.w3.org/2001/xml-events" xmlns:xlink="http://www.w3.org/1999/xlink"><defs /><path d="M2125 863V575Q2125 456 2094.0 346.0Q2063 236 2007.0 140.0Q1951 44 1872.0 -34.5Q1793 -113 1697.0 -169.0Q1601 -225 1491.0 -256.0Q1381 -287 1262 -287Q1143 -287 1033.0 -256.0Q923 -225 827.0 -169.0Q731 -113 652.5 -34.5Q574 44 518.0 140.0Q462 236 431.0 346.0Q400 456 400 575V863L759 503L1047 791L1262 575L1478 791L1765 503Z" style="fill:#ffffff;stroke:none" transform="scale(1,-1) translate(0,-256)" /></svg>