<?xml version="1.0" encoding="utf-8" ?>
<svg baseProfile="full" height="256" version="1.1" width="256" xmlns="http://www.w3.org/2000/svg" xmlns:ev="http://www.w3.org/2001/xml-events" xmlns:xlink="http://www.w3.org/1999/xlink"><defs /><path d="M1047 1510Q1076 1510 1097.5 1488.5Q1119 1467 1119 1438V1366Q1119 1336 1098.0 1315.0Q1077 1294 1047 1294Q1017 1294 996.0 1315.0Q975 1336 975 1366V1438Q975 1467 996.5 1488.5Q1018 1510 1047 1510ZM1478 1510Q1507 1510 1528.5 1488.5Q1550 1467 1550 1438V1366Q1550 1336 1529.0 1315.0Q1508 1294 1478 1294Q1448 1294 1427.0 1315.0Q1406 1336 1406 1366V1438Q1406 1467 1427.5 1488.5Q1449 1510 1478 1510Z" style="fill:#000000;stroke:none" transform="scale(1,-1) translate(0,-256)" /></svg>