<?xml version="1.0" encoding="utf-8" ?>
<svg baseProfile="full" height="256" version="1.1" width="256" xmlns="http://www.w3.org/2000/svg" xmlns:ev="http://www.w3.org/2001/xml-events" xmlns:xlink="http://www.w3.org/1999/xlink"><defs /><path d="M2125 1222H2268Q2313 1222 2352.0 1205.0Q2391 1188 2420.5 1158.5Q2450 1129 2467.0 1090.0Q2484 1051 2484 1006V854Q2519 790 2537.5 719.0Q2556 648 2556 575Q2556 502 2537.5 432.0Q2519 362 2484 298V-431H1625L1797 0H1478V-59L1406 -131V-431H975V80L658 216H400V288H256V791Q292 791 328.0 790.5Q364 790 400 790Q434 790 457.0 791.5Q480 793 498.5 798.5Q517 804 536.5 815.0Q556 826 584 846Q610 864 635.5 881.5Q661 899 687 916V1222Q711 1222 734.5 1222.5Q758 1223 782 1223Q823 1223 859.5 1219.0Q896 1215 929.0 1204.0Q962 1193 992.0 1173.0Q1022 1153 1050 1120Q1153 1150 1262 1150H1981Q2054 1150 2125 1132Z" style="fill:#000000;stroke:none" transform="scale(1,-1) translate(0,-256)" /></svg>