<?xml version="1.0" encoding="utf-8" ?>
<svg baseProfile="full" height="256" version="1.1" width="256" xmlns="http://www.w3.org/2000/svg" xmlns:ev="http://www.w3.org/2001/xml-events" xmlns:xlink="http://www.w3.org/1999/xlink"><defs /><path d="M2340 813Q2375 760 2393.5 699.0Q2412 638 2412 575Q2412 489 2379.5 410.0Q2347 331 2286 270L2340 216V-287H2197V72Q2180 89 2162.5 108.5Q2145 128 2125 144Q2107 158 2081.5 167.5Q2056 177 2036 188L1858 277H1450L1334 144V0L1262 -72V-287H1118V175L687 360H543V431H472V647Q510 647 548.0 661.5Q586 676 618 697L831 839V1078Q861 1078 887.0 1067.0Q913 1056 932.5 1036.5Q952 1017 963.5 991.0Q975 965 975 935Q1004 953 1040.0 966.5Q1076 980 1114.0 988.5Q1152 997 1190.0 1001.5Q1228 1006 1262 1006H1981Q2062 1006 2135.0 978.0Q2208 950 2268 896V1078Q2298 1078 2319.0 1057.0Q2340 1036 2340 1006Z" style="fill:#ee9889;stroke:none" transform="scale(1,-1) translate(0,-256)" /></svg>