<?xml version="1.0" encoding="utf-8" ?>
<svg baseProfile="full" height="256" version="1.1" width="256" xmlns="http://www.w3.org/2000/svg" xmlns:ev="http://www.w3.org/2001/xml-events" xmlns:xlink="http://www.w3.org/1999/xlink"><defs /><path d="M1299 905Q1248 876 1219.0 827.0Q1190 778 1190 719H687Q687 815 712.0 906.5Q737 998 783.5 1078.5Q830 1159 896.5 1226.0Q963 1293 1047 1341ZM1765 1341Q1849 1293 1915.5 1226.0Q1982 1159 2028.5 1078.5Q2075 998 2100.0 906.5Q2125 815 2125 719H1622Q1622 778 1593.0 827.0Q1564 876 1513 905ZM1406 503Q1435 503 1462.0 511.0Q1489 519 1513 533L1765 97Q1683 49 1592.0 24.5Q1501 0 1406 0Q1311 0 1220.0 24.5Q1129 49 1047 97L1299 533Q1323 519 1350.0 511.0Q1377 503 1406 503ZM1550 719Q1550 689 1538.5 663.0Q1527 637 1507.5 617.5Q1488 598 1462.0 586.5Q1436 575 1406 575Q1376 575 1350.0 586.5Q1324 598 1304.5 617.5Q1285 637 1273.5 663.0Q1262 689 1262 719Q1262 749 1273.5 775.0Q1285 801 1304.5 820.5Q1324 840 1350.0 851.5Q1376 863 1406 863Q1436 863 1462.0 851.5Q1488 840 1507.5 820.5Q1527 801 1538.5 775.0Q1550 749 1550 719Z" style="fill:#000000;stroke:none" transform="scale(1,-1) translate(0,-256)" /></svg>