<?xml version="1.0" encoding="utf-8" ?>
<svg baseProfile="full" height="256" version="1.1" width="256" xmlns="http://www.w3.org/2000/svg" xmlns:ev="http://www.w3.org/2001/xml-events" xmlns:xlink="http://www.w3.org/1999/xlink"><defs /><path d="M1765 -215H1909Q1938 -215 1959.5 -236.5Q1981 -258 1981 -287H1047Q1047 -258 1068.0 -236.5Q1089 -215 1118 -215H1262V77Q1330 39 1406 18V-215H1622V144Q1622 173 1643.0 194.5Q1664 216 1693 216Q1723 216 1744.0 195.0Q1765 174 1765 144ZM615 1150Q647 1150 667.0 1130.0Q687 1110 687 1078V935H400Q400 968 417.0 999.0Q434 1030 462 1048Z" style="fill:#f7630c;stroke:none" transform="scale(1,-1) translate(0,-256)" /></svg>