<?xml version="1.0" encoding="utf-8" ?>
<svg baseProfile="full" height="256" version="1.1" width="256" xmlns="http://www.w3.org/2000/svg" xmlns:ev="http://www.w3.org/2001/xml-events" xmlns:xlink="http://www.w3.org/1999/xlink"><defs /><path d="M1981 1366 1765 791H2412Q2412 768 2396 747L2011 233Q1965 172 1902 123L768 791L687 935Q653 982 634.0 1036.5Q615 1091 615 1150Q615 1225 643.5 1290.5Q672 1356 720.5 1404.5Q769 1453 834.5 1481.5Q900 1510 975 1510Q1049 1510 1114.5 1481.5Q1180 1453 1228.5 1404.0Q1277 1355 1305.5 1289.5Q1334 1224 1334 1150V1069Q1372 1138 1426.0 1193.0Q1480 1248 1545.0 1286.5Q1610 1325 1684.5 1345.5Q1759 1366 1837 1366Z" style="fill:#ffb900;stroke:none" transform="scale(1,-1) translate(0,-256)" /></svg>