<?xml version="1.0" encoding="utf-8" ?>
<svg baseProfile="full" height="256" version="1.1" width="256" xmlns="http://www.w3.org/2000/svg" xmlns:ev="http://www.w3.org/2001/xml-events" xmlns:xlink="http://www.w3.org/1999/xlink"><defs /><path d="M2188 1510 1973 935H2556Q2556 911 2557.0 887.0Q2558 863 2558 839Q2558 791 2549.0 745.0Q2540 699 2510 659L2126 147Q2082 88 2027.0 39.5Q1972 -9 1909 -46V-72Q1954 -72 1993.0 -89.0Q2032 -106 2061.5 -135.0Q2091 -164 2108.0 -203.0Q2125 -242 2125 -287V-431H903V-287Q903 -243 920.0 -204.0Q937 -165 966.5 -135.5Q996 -106 1035.0 -89.0Q1074 -72 1118 -72V1Q1061 46 1012.0 99.5Q963 153 928 216L603 791H256V935Q256 969 265.0 1003.0Q274 1037 291.0 1067.0Q308 1097 331.0 1123.0Q354 1149 383 1168L478 1231Q493 1322 538.0 1399.0Q583 1476 649.5 1532.5Q716 1589 799.5 1621.0Q883 1653 975 1653Q1045 1653 1112.0 1633.5Q1179 1614 1237.5 1578.5Q1296 1543 1343.5 1492.0Q1391 1441 1423 1378Q1514 1442 1619.5 1476.0Q1725 1510 1837 1510Z" style="fill:#000000;stroke:none" transform="scale(1,-1) translate(0,-256)" /></svg>