<?xml version="1.0" encoding="utf-8" ?>
<svg baseProfile="full" height="256" version="1.1" width="256" xmlns="http://www.w3.org/2000/svg" xmlns:ev="http://www.w3.org/2001/xml-events" xmlns:xlink="http://www.w3.org/1999/xlink"><defs /><path d="M1190 791Q1265 791 1338.5 770.5Q1412 750 1477.0 712.5Q1542 675 1596.5 622.0Q1651 569 1688 503L1902 123Q1827 63 1737.0 31.5Q1647 0 1550 0Q1476 0 1406 18Q1395 7 1381.5 0.0Q1368 -7 1352 -7Q1335 -7 1321.0 1.0Q1307 9 1296.0 21.0Q1285 33 1276.5 48.0Q1268 63 1262 77Q1198 115 1143.5 168.5Q1089 222 1052 288L768 791Z" style="fill:#ffd679;stroke:none" transform="scale(1,-1) translate(0,-256)" /></svg>