<?xml version="1.0" encoding="utf-8" ?>
<svg baseProfile="full" height="256" version="1.1" width="256" xmlns="http://www.w3.org/2000/svg" xmlns:ev="http://www.w3.org/2001/xml-events" xmlns:xlink="http://www.w3.org/1999/xlink"><defs /><path d="M2270 1655Q2270 1595 2247.5 1542.5Q2225 1490 2186.0 1451.0Q2147 1412 2094.5 1389.5Q2042 1367 1982 1367H688Q628 1367 575.5 1389.5Q523 1412 484.0 1451.0Q445 1490 422.5 1542.5Q400 1595 400 1655Q454 1589 527.5 1550.0Q601 1511 688 1511H1982Q2069 1511 2142.5 1550.0Q2216 1589 2270 1655ZM831 -143V-287H688V-143ZM1982 -143V-287H1839V-143Z" style="fill:#383838;stroke:none" transform="scale(1,-1) translate(0,-256)" /></svg>