<?xml version="1.0" encoding="utf-8" ?>
<svg baseProfile="full" height="256" version="1.1" width="256" xmlns="http://www.w3.org/2000/svg" xmlns:ev="http://www.w3.org/2001/xml-events" xmlns:xlink="http://www.w3.org/1999/xlink"><defs /><path d="M1695 -431V648H975V-431H544V648H328V1080H544V1118Q484 1153 447.0 1208.5Q410 1264 402 1333Q333 1394 294.5 1478.0Q256 1562 256 1655V1764Q256 1809 286.5 1839.0Q317 1869 362 1869Q391 1869 413.5 1853.0Q436 1837 457.5 1813.5Q479 1790 500.5 1762.0Q522 1734 549.0 1710.5Q576 1687 609.5 1671.0Q643 1655 688 1655H1982Q2026 1655 2060.0 1671.0Q2094 1687 2120.5 1710.5Q2147 1734 2169.0 1762.0Q2191 1790 2212.5 1813.5Q2234 1837 2257.0 1853.0Q2280 1869 2308 1869Q2353 1869 2383.5 1839.0Q2414 1809 2414 1764V1655Q2414 1562 2375.5 1478.0Q2337 1394 2268 1333Q2260 1264 2223.0 1208.5Q2186 1153 2126 1118V1080H2342V648H2126V-431Z" style="fill:#000000;stroke:none" transform="scale(1,-1) translate(0,-256)" /></svg>