<?xml version="1.0" encoding="utf-8" ?>
<svg baseProfile="full" height="256" version="1.1" width="256" xmlns="http://www.w3.org/2000/svg" xmlns:ev="http://www.w3.org/2001/xml-events" xmlns:xlink="http://www.w3.org/1999/xlink"><defs /><path d="M1837 1725Q1934 1725 2024.0 1694.5Q2114 1664 2190 1604L2165 1481L2291 1503Q2351 1427 2381.5 1337.0Q2412 1247 2412 1150Q2412 970 2355.5 794.0Q2299 618 2199.0 458.0Q2099 298 1963.0 162.0Q1827 26 1667.0 -74.0Q1507 -174 1331.0 -230.5Q1155 -287 975 -287Q879 -287 788.5 -257.0Q698 -227 623 -167V-64H521Q461 11 430.5 101.5Q400 192 400 288Q400 468 456.5 644.0Q513 820 613.0 980.0Q713 1140 849.0 1276.0Q985 1412 1145.0 1512.0Q1305 1612 1481.0 1668.5Q1657 1725 1837 1725Z" style="fill:#f7894a;stroke:none" transform="scale(1,-1) translate(0,-256)" /></svg>