<?xml version="1.0" encoding="utf-8" ?>
<svg baseProfile="full" height="256" version="1.1" width="256" xmlns="http://www.w3.org/2000/svg" xmlns:ev="http://www.w3.org/2001/xml-events" xmlns:xlink="http://www.w3.org/1999/xlink"><defs /><path d="M2291 1503 1993 1205Q2022 1160 2037.5 1110.0Q2053 1060 2053 1006Q2053 934 2026.0 868.5Q1999 803 1948 752L1372 177Q1321 126 1256.0 99.0Q1191 72 1119 72Q1065 72 1015.0 87.5Q965 103 920 132L622 -167Q565 -122 520 -65L819 233Q790 278 774.5 328.0Q759 378 759 432Q759 504 786.0 569.5Q813 635 864 686L1439 1261Q1490 1312 1555.5 1339.0Q1621 1366 1693 1366Q1747 1366 1797.0 1350.5Q1847 1335 1892 1306L2190 1604Q2247 1560 2291 1503Z" style="fill:#ca5010;stroke:none" transform="scale(1,-1) translate(0,-256)" /></svg>