<?xml version="1.0" encoding="utf-8" ?>
<svg baseProfile="full" height="256" version="1.1" width="256" xmlns="http://www.w3.org/2000/svg" xmlns:ev="http://www.w3.org/2001/xml-events" xmlns:xlink="http://www.w3.org/1999/xlink"><defs /><path d="M975 -431Q876 -431 784.0 -405.5Q692 -380 612.0 -333.0Q532 -286 466.5 -220.5Q401 -155 354.0 -75.0Q307 5 281.5 97.0Q256 189 256 288Q256 438 291.0 585.0Q326 732 390.5 871.5Q455 1011 545.5 1139.0Q636 1267 747.0 1378.0Q858 1489 986.0 1579.5Q1114 1670 1253.5 1734.5Q1393 1799 1540.0 1834.0Q1687 1869 1837 1869Q1936 1869 2028.0 1843.0Q2120 1817 2199.5 1770.5Q2279 1724 2345.0 1658.0Q2411 1592 2457.5 1512.5Q2504 1433 2530.0 1341.0Q2556 1249 2556 1150Q2556 1000 2521.0 853.0Q2486 706 2421.5 566.5Q2357 427 2266.5 299.0Q2176 171 2065.0 60.0Q1954 -51 1826.0 -141.5Q1698 -232 1558.5 -296.5Q1419 -361 1272.0 -396.0Q1125 -431 975 -431Z" style="fill:#000000;stroke:none" transform="scale(1,-1) translate(0,-256)" /></svg>