<?xml version="1.0" encoding="utf-8" ?>
<svg baseProfile="full" height="256" version="1.1" width="256" xmlns="http://www.w3.org/2000/svg" xmlns:ev="http://www.w3.org/2001/xml-events" xmlns:xlink="http://www.w3.org/1999/xlink"><defs /><path d="M1269 545Q1145 545 1036.0 591.0Q927 637 839 725Q820 744 801.5 765.5Q783 787 769 810V1262L1211 1704Q1232 1725 1262 1725Q1292 1725 1313 1704L1730 1287L1711 865Q1711 860 1705.0 847.5Q1699 835 1692.0 820.5Q1685 806 1678.0 793.5Q1671 781 1669 777Q1603 667 1501.5 606.0Q1400 545 1269 545Z" style="fill:#ee3f86;stroke:none" transform="scale(1,-1) translate(0,-256)" /></svg>