<?xml version="1.0" encoding="utf-8" ?>
<svg baseProfile="full" height="256" version="1.1" width="256" xmlns="http://www.w3.org/2000/svg" xmlns:ev="http://www.w3.org/2001/xml-events" xmlns:xlink="http://www.w3.org/1999/xlink"><defs /><path d="M2089 575Q2104 575 2114.5 564.5Q2125 554 2125 539Q2125 538 2118.5 518.0Q2112 498 2101.5 465.5Q2091 433 2077.0 392.0Q2063 351 2048.5 307.5Q2034 264 2020.0 221.0Q2006 178 1994.0 143.0Q1982 108 1973.5 83.5Q1965 59 1963 52Q1953 23 1942.5 -3.0Q1932 -29 1917 -55Q1886 -109 1842.5 -152.0Q1799 -195 1746.5 -225.0Q1694 -255 1635.0 -271.0Q1576 -287 1514 -287H1011Q949 -287 890.0 -271.0Q831 -255 779.0 -225.0Q727 -195 683.0 -152.0Q639 -109 608 -55Q593 -29 582.5 -3.0Q572 23 562 52Q558 63 545.0 102.0Q532 141 514.0 194.5Q496 248 476.0 307.0Q456 366 439.0 416.5Q422 467 411.0 501.5Q400 536 400 539Q400 554 410.5 564.5Q421 575 436 575Q444 575 449.5 572.5Q455 570 460 565L1190 -46V575H1334V-46L2064 565Q2076 575 2089 575Z" style="fill:#13a10e;stroke:none" transform="scale(1,-1) translate(0,-256)" /></svg>