<?xml version="1.0" encoding="utf-8" ?>
<svg baseProfile="full" height="256" version="1.1" width="256" xmlns="http://www.w3.org/2000/svg" xmlns:ev="http://www.w3.org/2001/xml-events" xmlns:xlink="http://www.w3.org/1999/xlink"><defs /><path d="M2089 719Q2126 719 2158.5 705.0Q2191 691 2215.5 666.5Q2240 642 2254.0 609.0Q2268 576 2268 539V519Q2268 514 2256.5 477.5Q2245 441 2228.0 388.5Q2211 336 2190.0 274.5Q2169 213 2150.5 157.5Q2132 102 2117.5 60.5Q2103 19 2099 6Q2087 -31 2073.0 -65.0Q2059 -99 2039 -133Q1998 -202 1941.0 -257.0Q1884 -312 1815.5 -351.0Q1747 -390 1670.5 -410.5Q1594 -431 1514 -431H1011Q930 -431 853.0 -410.0Q776 -389 707.5 -350.0Q639 -311 582.0 -255.0Q525 -199 484 -130Q464 -95 450.0 -60.5Q436 -26 423 12L262 497Q259 507 257.5 518.0Q256 529 256 539Q256 576 270.0 609.0Q284 642 308.5 666.5Q333 691 366.0 705.0Q399 719 436 719Q466 719 490.0 710.5Q514 702 535.0 688.5Q556 675 575.5 658.0Q595 641 616 623Q545 723 508.5 839.0Q472 955 472 1078V1797H615Q658 1797 706.5 1787.5Q755 1778 802.5 1760.0Q850 1742 892.5 1717.0Q935 1692 966 1662L1110 1806Q1141 1836 1180.0 1852.5Q1219 1869 1262 1869Q1306 1869 1345.0 1852.5Q1384 1836 1415 1806L1558 1662Q1633 1724 1721.5 1760.5Q1810 1797 1909 1797H2053V1078Q2053 955 2016.5 839.0Q1980 723 1909 623Q1930 641 1949.5 658.0Q1969 675 1990.0 688.5Q2011 702 2035.0 710.5Q2059 719 2089 719Z" style="fill:#000000;stroke:none" transform="scale(1,-1) translate(0,-256)" /></svg>