<?xml version="1.0" encoding="utf-8" ?>
<svg baseProfile="full" height="256" version="1.1" width="256" xmlns="http://www.w3.org/2000/svg" xmlns:ev="http://www.w3.org/2001/xml-events" xmlns:xlink="http://www.w3.org/1999/xlink"><defs /><path d="M1909 1653V1078Q1909 989 1886.0 906.0Q1863 823 1820.5 751.5Q1778 680 1719.0 621.0Q1660 562 1588.5 519.5Q1517 477 1434.0 454.0Q1351 431 1262 431Q1173 431 1090.0 454.0Q1007 477 935.5 519.5Q864 562 805.0 621.0Q746 680 703.5 751.5Q661 823 638.0 906.0Q615 989 615 1078V1653Q710 1653 789.5 1610.0Q869 1567 934.0 1496.5Q999 1426 1049.5 1335.5Q1100 1245 1137.5 1149.0Q1175 1053 1198.5 959.0Q1222 865 1234 789Q1241 790 1248.0 790.5Q1255 791 1262 791Q1269 791 1276.0 790.5Q1283 790 1290 789Q1295 819 1300.5 848.5Q1306 878 1313 907Q1329 977 1355.5 1059.5Q1382 1142 1419.0 1224.5Q1456 1307 1505.0 1384.5Q1554 1462 1615.0 1521.5Q1676 1581 1749.5 1617.0Q1823 1653 1909 1653Z" style="fill:#f495bf;stroke:none" transform="scale(1,-1) translate(0,-256)" /></svg>