<?xml version="1.0" encoding="utf-8" ?>
<svg baseProfile="full" height="256" version="1.1" width="256" xmlns="http://www.w3.org/2000/svg" xmlns:ev="http://www.w3.org/2001/xml-events" xmlns:xlink="http://www.w3.org/1999/xlink"><defs /><path d="M2053 1150V1006H1047V791L759 1078L1047 1366V1150ZM611 24V477H776Q802 477 830.0 472.5Q858 468 881.0 456.5Q904 445 918.5 424.5Q933 404 933 371Q933 332 906.5 305.5Q880 279 845 269Q890 263 920.5 235.5Q951 208 951 160Q951 124 937.0 98.0Q923 72 900.0 55.5Q877 39 847.0 31.5Q817 24 785 24ZM1425 24H1314L1282 125H1121L1089 24H978L1143 477H1264ZM2262 24H2133L2001 221Q1993 234 1989 246V24H1885V477H1987V263Q1991 270 1994.0 276.5Q1997 283 2001 289L2126 477H2248L2090 261ZM1797 41Q1767 27 1734.0 22.0Q1701 17 1668 17Q1562 17 1503.0 76.0Q1444 135 1444 241Q1444 295 1461.5 339.5Q1479 384 1510.5 416.5Q1542 449 1586.5 467.0Q1631 485 1685 485Q1714 485 1742.0 481.5Q1770 478 1797 468V370Q1774 384 1747.0 390.5Q1720 397 1693 397Q1624 397 1587.5 356.0Q1551 315 1551 248Q1551 185 1587.0 145.0Q1623 105 1688 105Q1717 105 1744.5 112.0Q1772 119 1797 134ZM713 219V100H768Q797 100 820.5 113.5Q844 127 844 161Q844 193 820.5 206.0Q797 219 769 219ZM713 402V295H758Q785 295 805.5 308.5Q826 322 826 352Q826 368 819.0 378.0Q812 388 801.0 393.0Q790 398 777.0 400.0Q764 402 751 402ZM1258 204Q1243 252 1225.5 299.0Q1208 346 1202 397Q1194 346 1176.0 299.0Q1158 252 1142 204Z" style="fill:#ffffff;stroke:none" transform="scale(1,-1) translate(0,-256)" /></svg>