<?xml version="1.0" encoding="utf-8" ?>
<svg baseProfile="full" height="256" version="1.1" width="256" xmlns="http://www.w3.org/2000/svg" xmlns:ev="http://www.w3.org/2001/xml-events" xmlns:xlink="http://www.w3.org/1999/xlink"><defs /><path d="M1190 1294Q1220 1294 1241.0 1273.0Q1262 1252 1262 1222Q1262 1192 1241.0 1171.0Q1220 1150 1190 1150Q1075 1150 983.5 1105.5Q892 1061 813 980Q802 968 789.0 961.5Q776 955 759 955Q745 955 732.0 961.0Q719 967 709.0 977.0Q699 987 693.0 1000.0Q687 1013 687 1028Q687 1052 705 1075Q748 1127 804.0 1168.0Q860 1209 923.5 1237.0Q987 1265 1054.5 1279.5Q1122 1294 1190 1294ZM1622 1294Q1689 1294 1757.0 1279.5Q1825 1265 1888.5 1237.0Q1952 1209 2007.5 1168.0Q2063 1127 2107 1075Q2125 1052 2125 1028Q2125 1013 2119.0 1000.0Q2113 987 2103.0 977.0Q2093 967 2080.0 961.0Q2067 955 2053 955Q2036 955 2023.0 961.5Q2010 968 1999 980Q1920 1061 1828.5 1105.5Q1737 1150 1622 1150Q1592 1150 1571.0 1171.0Q1550 1192 1550 1222Q1550 1252 1571.0 1273.0Q1592 1294 1622 1294Z" style="fill:#d48c00;stroke:none" transform="scale(1,-1) translate(0,-256)" /></svg>