<?xml version="1.0" encoding="utf-8" ?>
<svg baseProfile="full" height="256" version="1.1" width="256" xmlns="http://www.w3.org/2000/svg" xmlns:ev="http://www.w3.org/2001/xml-events" xmlns:xlink="http://www.w3.org/1999/xlink"><defs /><path d="M1981 503Q1981 384 1935.5 279.5Q1890 175 1812.0 97.0Q1734 19 1629.5 -26.5Q1525 -72 1406 -72Q1287 -72 1182.5 -26.5Q1078 19 1000.0 97.0Q922 175 876.5 279.5Q831 384 831 503ZM1262 719H1190Q1190 749 1169.0 770.0Q1148 791 1118 791H903Q873 791 852.0 770.0Q831 749 831 719H759Q759 764 776.0 803.0Q793 842 822.5 871.5Q852 901 891.0 918.0Q930 935 975 935H1047Q1092 935 1131.0 918.0Q1170 901 1199.0 871.5Q1228 842 1245.0 803.0Q1262 764 1262 719ZM1550 719Q1550 764 1567.0 803.0Q1584 842 1613.0 871.5Q1642 901 1681.0 918.0Q1720 935 1765 935H1837Q1882 935 1921.0 918.0Q1960 901 1989.5 871.5Q2019 842 2036.0 803.0Q2053 764 2053 719H1981Q1981 749 1960.0 770.0Q1939 791 1909 791H1693Q1663 791 1642.5 769.5Q1622 748 1622 719Z" style="fill:#000000;stroke:none" transform="scale(1,-1) translate(0,-256)" /></svg>