<?xml version="1.0" encoding="utf-8" ?>
<svg baseProfile="full" height="256" version="1.1" width="256" xmlns="http://www.w3.org/2000/svg" xmlns:ev="http://www.w3.org/2001/xml-events" xmlns:xlink="http://www.w3.org/1999/xlink"><defs /><path d="M2412 360Q2412 315 2395.0 276.0Q2378 237 2349.0 207.5Q2320 178 2281.0 161.0Q2242 144 2197 144Q2152 144 2112.5 161.0Q2073 178 2044.0 207.0Q2015 236 1998.0 275.5Q1981 315 1981 360V719L2297 551Q2351 522 2381.5 471.0Q2412 420 2412 360ZM831 719V360Q831 315 814.0 276.0Q797 237 767.5 207.5Q738 178 699.0 161.0Q660 144 615 144Q570 144 531.0 161.0Q492 178 463.0 207.5Q434 237 417.0 276.0Q400 315 400 360Q400 420 430.5 471.0Q461 522 515 551Z" style="fill:#00bcf2;stroke:none" transform="scale(1,-1) translate(0,-256)" /></svg>