<?xml version="1.0" encoding="utf-8" ?>
<svg baseProfile="full" height="256" version="1.1" width="256" xmlns="http://www.w3.org/2000/svg" xmlns:ev="http://www.w3.org/2001/xml-events" xmlns:xlink="http://www.w3.org/1999/xlink"><defs /><path d="M2556 719Q2556 660 2550.0 602.0Q2544 544 2533 487Q2556 424 2556 360Q2556 304 2539.0 251.0Q2522 198 2491.0 153.5Q2460 109 2416.5 75.0Q2373 41 2320 22Q2238 -85 2135.5 -169.0Q2033 -253 1916.0 -311.0Q1799 -369 1670.0 -400.0Q1541 -431 1406 -431Q1271 -431 1142.0 -400.5Q1013 -370 896.0 -311.5Q779 -253 676.5 -169.0Q574 -85 492 22Q439 41 395.5 75.0Q352 109 321.0 153.5Q290 198 273.0 251.0Q256 304 256 360Q256 424 279 487Q268 544 262.0 602.0Q256 660 256 719Q256 877 297.0 1024.0Q338 1171 413.0 1299.0Q488 1427 593.0 1532.0Q698 1637 826.0 1712.0Q954 1787 1100.5 1828.0Q1247 1869 1406 1869Q1564 1869 1711.0 1828.0Q1858 1787 1986.0 1712.0Q2114 1637 2219.0 1532.0Q2324 1427 2399.0 1299.0Q2474 1171 2515.0 1024.0Q2556 877 2556 719Z" style="fill:#000000;stroke:none" transform="scale(1,-1) translate(0,-256)" /></svg>