<?xml version="1.0" encoding="utf-8" ?>
<svg baseProfile="full" height="256" version="1.1" width="256" xmlns="http://www.w3.org/2000/svg" xmlns:ev="http://www.w3.org/2001/xml-events" xmlns:xlink="http://www.w3.org/1999/xlink"><defs /><path d="M579 -431Q513 -431 454.0 -405.5Q395 -380 351.0 -336.0Q307 -292 281.5 -233.0Q256 -174 256 -108Q256 -43 280.5 16.0Q305 75 351 121L949 719H1059Q1017 804 996.0 894.0Q975 984 975 1078Q975 1187 1003.0 1288.0Q1031 1389 1082.5 1477.0Q1134 1565 1206.5 1637.0Q1279 1709 1366.5 1760.5Q1454 1812 1555.0 1840.5Q1656 1869 1765 1869Q1874 1869 1975.0 1840.5Q2076 1812 2164.0 1760.5Q2252 1709 2324.0 1637.0Q2396 1565 2447.5 1477.0Q2499 1389 2527.5 1288.0Q2556 1187 2556 1078Q2556 969 2527.5 868.0Q2499 767 2447.5 679.5Q2396 592 2324.0 519.5Q2252 447 2164.0 395.5Q2076 344 1975.0 316.0Q1874 288 1765 288Q1671 288 1581.0 309.5Q1491 331 1407 373V262L808 -336Q762 -382 703.0 -406.5Q644 -431 579 -431Z" style="fill:#000000;stroke:none" transform="scale(1,-1) translate(0,-256)" /></svg>