<?xml version="1.0" encoding="utf-8" ?>
<svg baseProfile="full" height="256" version="1.1" width="256" xmlns="http://www.w3.org/2000/svg" xmlns:ev="http://www.w3.org/2001/xml-events" xmlns:xlink="http://www.w3.org/1999/xlink"><defs /><path d="M1118 1078Q1118 1167 1141.0 1250.0Q1164 1333 1206.5 1404.5Q1249 1476 1308.0 1535.0Q1367 1594 1438.5 1636.5Q1510 1679 1593.0 1702.0Q1676 1725 1765 1725Q1854 1725 1937.0 1702.0Q2020 1679 2092.0 1637.0Q2164 1595 2223.0 1536.0Q2282 1477 2324.0 1405.0Q2366 1333 2389.0 1250.0Q2412 1167 2412 1078Q2412 989 2389.0 906.0Q2366 823 2323.5 751.5Q2281 680 2222.0 621.0Q2163 562 2091.5 519.5Q2020 477 1937.0 454.0Q1854 431 1765 431Q1676 431 1593.0 454.0Q1510 477 1438.5 519.5Q1367 562 1308.0 621.0Q1249 680 1206.5 751.5Q1164 823 1141.0 906.0Q1118 989 1118 1078ZM1118 575 1262 431V321L1008 575Z" style="fill:#cccccc;stroke:none" transform="scale(1,-1) translate(0,-256)" /></svg>