<?xml version="1.0" encoding="utf-8" ?>
<svg baseProfile="full" height="256" version="1.1" width="256" xmlns="http://www.w3.org/2000/svg" xmlns:ev="http://www.w3.org/2001/xml-events" xmlns:xlink="http://www.w3.org/1999/xlink"><defs /><path d="M1190 1078Q1190 1197 1235.5 1301.5Q1281 1406 1359.0 1484.0Q1437 1562 1541.5 1607.5Q1646 1653 1765 1653Q1884 1653 1989.0 1608.0Q2094 1563 2172.0 1485.0Q2250 1407 2295.0 1302.0Q2340 1197 2340 1078Q2340 959 2294.5 854.5Q2249 750 2171.0 672.0Q2093 594 1988.5 548.5Q1884 503 1765 503Q1646 503 1541.5 548.5Q1437 594 1359.0 672.0Q1281 750 1235.5 854.5Q1190 959 1190 1078Z" style="fill:#83beec;stroke:none" transform="scale(1,-1) translate(0,-256)" /></svg>