<?xml version="1.0" encoding="utf-8" ?>
<svg baseProfile="full" height="256" version="1.1" width="256" xmlns="http://www.w3.org/2000/svg" xmlns:ev="http://www.w3.org/2001/xml-events" xmlns:xlink="http://www.w3.org/1999/xlink"><defs /><path d="M1406 647Q1427 647 1447.0 638.5Q1467 630 1482 615L2155 -42Q2175 -62 2186.0 -88.5Q2197 -115 2197 -143Q2197 -173 2185.5 -199.5Q2174 -226 2154.5 -245.5Q2135 -265 2108.5 -276.0Q2082 -287 2052 -287Q2021 -287 1997.5 -276.0Q1974 -265 1951 -245Q1939 -234 1923.0 -219.5Q1907 -205 1890.5 -189.5Q1874 -174 1860.0 -159.0Q1846 -144 1837 -131Q1815 -99 1799.0 -62.5Q1783 -26 1765 9L1622 288V-287Q1593 -287 1566.5 -276.0Q1540 -265 1520 -245L1406 -131L1292 -245Q1272 -265 1245.5 -276.0Q1219 -287 1190 -287V288L1047 9Q1029 -26 1013.0 -62.5Q997 -99 975 -131Q966 -144 952.0 -159.5Q938 -175 921.5 -190.5Q905 -206 889.0 -220.5Q873 -235 861 -245Q838 -265 814.0 -276.0Q790 -287 759 -287Q729 -287 703.0 -276.0Q677 -265 657.5 -245.5Q638 -226 626.5 -200.0Q615 -174 615 -144Q615 -115 626.0 -88.5Q637 -62 657 -42L1330 615Q1362 647 1406 647Z" style="fill:#ffffff;stroke:none" transform="scale(1,-1) translate(0,-256)" /></svg>