<?xml version="1.0" encoding="utf-8" ?>
<svg baseProfile="full" height="256" version="1.1" width="256" xmlns="http://www.w3.org/2000/svg" xmlns:ev="http://www.w3.org/2001/xml-events" xmlns:xlink="http://www.w3.org/1999/xlink"><defs /><path d="M759 1315Q759 1344 780.5 1365.5Q802 1387 831 1387Q894 1387 943.5 1398.5Q993 1410 1037.0 1432.0Q1081 1454 1122.0 1485.5Q1163 1517 1208 1557Q1221 1568 1232.5 1575.0Q1244 1582 1262 1582Q1291 1582 1312.5 1560.5Q1334 1539 1334 1510Q1334 1485 1316 1462Q1277 1411 1220.0 1370.5Q1163 1330 1097.5 1301.5Q1032 1273 963.0 1258.0Q894 1243 831 1243Q801 1243 780.0 1264.0Q759 1285 759 1315ZM1550 1582Q1568 1582 1579.5 1575.0Q1591 1568 1604 1557Q1649 1517 1690.0 1485.5Q1731 1454 1775.0 1432.0Q1819 1410 1868.5 1398.5Q1918 1387 1981 1387Q2011 1387 2032.0 1366.0Q2053 1345 2053 1315Q2053 1285 2032.0 1264.0Q2011 1243 1981 1243Q1918 1243 1848.5 1258.0Q1779 1273 1713.5 1301.0Q1648 1329 1591.5 1369.5Q1535 1410 1496 1462Q1488 1473 1483.0 1484.5Q1478 1496 1478 1510Q1478 1539 1499.5 1560.5Q1521 1582 1550 1582Z" style="fill:#d48c00;stroke:none" transform="scale(1,-1) translate(0,-256)" /></svg>