<?xml version="1.0" encoding="utf-8" ?>
<svg baseProfile="full" height="256" version="1.1" width="256" xmlns="http://www.w3.org/2000/svg" xmlns:ev="http://www.w3.org/2001/xml-events" xmlns:xlink="http://www.w3.org/1999/xlink"><defs /><path d="M2053 -431Q1990 -431 1934.5 -406.0Q1879 -381 1837 -335Q1795 -381 1740.0 -406.0Q1685 -431 1622 -431Q1559 -431 1503.5 -406.0Q1448 -381 1406 -335Q1364 -381 1308.5 -406.0Q1253 -431 1190 -431Q1127 -431 1072.0 -406.0Q1017 -381 975 -335Q928 -380 876.5 -405.5Q825 -431 759 -431Q699 -431 647.0 -408.5Q595 -386 556.0 -347.0Q517 -308 494.5 -256.0Q472 -204 472 -144Q472 -106 481.5 -69.5Q491 -33 510 -1Q385 154 320.5 336.5Q256 519 256 719Q256 877 297.0 1024.0Q338 1171 413.0 1299.0Q488 1427 593.0 1532.0Q698 1637 826.0 1712.0Q954 1787 1100.5 1828.0Q1247 1869 1406 1869Q1564 1869 1711.0 1828.0Q1858 1787 1986.0 1712.0Q2114 1637 2219.0 1532.0Q2324 1427 2399.0 1299.0Q2474 1171 2515.0 1024.0Q2556 877 2556 719Q2556 519 2491.5 336.5Q2427 154 2302 -1Q2321 -33 2330.5 -69.5Q2340 -106 2340 -144Q2340 -203 2317.5 -255.5Q2295 -308 2256.0 -347.0Q2217 -386 2164.5 -408.5Q2112 -431 2053 -431Z" style="fill:#000000;stroke:none" transform="scale(1,-1) translate(0,-256)" /></svg>