<?xml version="1.0" encoding="utf-8" ?>
<svg baseProfile="full" height="256" version="1.1" width="256" xmlns="http://www.w3.org/2000/svg" xmlns:ev="http://www.w3.org/2001/xml-events" xmlns:xlink="http://www.w3.org/1999/xlink"><defs /><path d="M1334 935Q1340 935 1346.5 934.5Q1353 934 1359 933L1466 832L1713 173L1695 58Q1675 38 1649.5 25.0Q1624 12 1596 5L1505 90L1205 859L1238 935ZM903 1222Q940 1222 973.0 1208.0Q1006 1194 1030.5 1169.5Q1055 1145 1069.0 1112.0Q1083 1079 1083 1042Q1083 1005 1069.0 972.5Q1055 940 1030.5 915.5Q1006 891 973.5 877.0Q941 863 904 863H795Q757 863 727.0 876.5Q697 890 669 914L400 1150L452 1222ZM860 1510H1180Q1185 1493 1187.5 1474.5Q1190 1456 1190 1438V1366H519Q559 1391 599.0 1416.5Q639 1442 680.5 1463.0Q722 1484 766.0 1497.0Q810 1510 860 1510Z" style="fill:#f7b189;stroke:none" transform="scale(1,-1) translate(0,-256)" /></svg>