<?xml version="1.0" encoding="utf-8" ?>
<svg baseProfile="full" height="256" version="1.1" width="256" xmlns="http://www.w3.org/2000/svg" xmlns:ev="http://www.w3.org/2001/xml-events" xmlns:xlink="http://www.w3.org/1999/xlink"><defs /><path d="M2053 1294Q2157 1294 2248.5 1254.5Q2340 1215 2408.5 1146.5Q2477 1078 2516.5 986.5Q2556 895 2556 791V144Q2556 25 2510.5 -79.5Q2465 -184 2387.0 -262.0Q2309 -340 2204.0 -385.5Q2099 -431 1981 -431H831V-287Q831 -228 853.5 -175.5Q876 -123 915.0 -84.0Q954 -45 1006.5 -22.5Q1059 0 1118 0V117L1021 360H903V216H759Q700 216 647.5 238.5Q595 261 556.0 300.0Q517 339 494.5 391.5Q472 444 472 503Q472 544 483.5 583.0Q495 622 516.0 655.5Q537 689 567.0 716.5Q597 744 634 762Q617 773 602.0 784.5Q587 796 572 809L256 1085V1375L612 1589Q646 1609 683.5 1622.0Q721 1635 759 1643V1869H903Q976 1869 1043.5 1845.0Q1111 1821 1166.0 1778.5Q1221 1736 1261.0 1676.5Q1301 1617 1319 1546Q1330 1504 1332.0 1461.5Q1334 1419 1334 1375L1590 1222Q1647 1188 1693 1142Q1765 1216 1857.5 1255.0Q1950 1294 2053 1294Z" style="fill:#000000;stroke:none" transform="scale(1,-1) translate(0,-256)" /></svg>