<?xml version="1.0" encoding="utf-8" ?>
<svg baseProfile="full" height="256" version="1.1" width="256" xmlns="http://www.w3.org/2000/svg" xmlns:ev="http://www.w3.org/2001/xml-events" xmlns:xlink="http://www.w3.org/1999/xlink"><defs /><path d="M2053 1150Q2127 1150 2192.5 1121.5Q2258 1093 2306.5 1044.5Q2355 996 2383.5 930.5Q2412 865 2412 791V144Q2412 55 2378.0 -23.5Q2344 -102 2285.5 -160.5Q2227 -219 2148.5 -253.0Q2070 -287 1981 -287H975Q975 -257 986.0 -231.0Q997 -205 1016.5 -185.5Q1036 -166 1062.0 -155.0Q1088 -144 1118 -144H1262V144L1118 503H831Q807 503 792.5 493.5Q778 484 770.5 469.0Q763 454 761.0 435.0Q759 416 759 397V360Q729 360 703.0 371.0Q677 382 657.5 401.5Q638 421 626.5 447.0Q615 473 615 503Q615 545 638.5 581.0Q662 617 700 634L903 726V1040L466 1207L400 1294Q430 1318 453.5 1332.5Q477 1347 499.0 1356.5Q521 1366 545.0 1373.0Q569 1380 601 1388L827 1446L1190 1366V1294L1517 1099Q1568 1069 1606.5 1024.5Q1645 980 1667 925L1956 201Q1981 137 1981 72V-144Q2010 -143 2031.5 -122.5Q2053 -102 2053 -72V647Q2053 674 2049.0 703.5Q2045 733 2037.0 761.5Q2029 790 2015.0 816.0Q2001 842 1982 862L1799 1045Q1850 1096 1915.5 1123.0Q1981 1150 2053 1150ZM1180 1510 1034 1419 903 1510V1725Q951 1725 996.0 1709.0Q1041 1693 1078.0 1664.5Q1115 1636 1141.5 1596.5Q1168 1557 1180 1510Z" style="fill:#ca5010;stroke:none" transform="scale(1,-1) translate(0,-256)" /></svg>