<?xml version="1.0" encoding="utf-8" ?>
<svg baseProfile="full" height="256" version="1.1" width="256" xmlns="http://www.w3.org/2000/svg" xmlns:ev="http://www.w3.org/2001/xml-events" xmlns:xlink="http://www.w3.org/1999/xlink"><defs /><path d="M1118 935H1238L1596 5Q1571 0 1550 0H1478ZM1359 933Q1385 930 1410.5 920.0Q1436 910 1458.5 894.5Q1481 879 1499.0 858.0Q1517 837 1528 813L1747 302Q1765 261 1765 216Q1765 171 1746.5 129.5Q1728 88 1695 58ZM400 1150V1294H543Q543 1264 532.0 1238.0Q521 1212 501.5 1192.5Q482 1173 456.0 1161.5Q430 1150 400 1150Z" style="fill:#613d30;stroke:none" transform="scale(1,-1) translate(0,-256)" /></svg>