<?xml version="1.0" encoding="utf-8" ?>
<svg baseProfile="full" height="256" version="1.1" width="256" xmlns="http://www.w3.org/2000/svg" xmlns:ev="http://www.w3.org/2001/xml-events" xmlns:xlink="http://www.w3.org/1999/xlink"><defs /><path d="M1647 1576Q1756 1564 1855.0 1526.0Q1954 1488 2039.0 1429.5Q2124 1371 2193.0 1293.5Q2262 1216 2310.5 1125.0Q2359 1034 2385.5 931.0Q2412 828 2412 719V-287H1979Q2048 -235 2086.5 -160.5Q2125 -86 2125 0H1684Q1753 38 1808.0 92.0Q1863 146 1901.5 211.0Q1940 276 1960.5 350.5Q1981 425 1981 503V1150Q1981 1170 1974.5 1189.5Q1968 1209 1957.5 1228.0Q1947 1247 1934.5 1263.5Q1922 1280 1909 1294ZM1406 1581V1366Q1387 1318 1352.0 1267.5Q1317 1217 1270.5 1169.0Q1224 1121 1169.5 1078.5Q1115 1036 1057.5 1004.0Q1000 972 942.0 953.5Q884 935 831 935H615Q633 972 655.5 1008.0Q678 1044 701.5 1079.0Q725 1114 748.0 1149.0Q771 1184 792 1220Q806 1245 819.5 1269.0Q833 1293 850 1316Q895 1379 953.5 1428.0Q1012 1477 1079.5 1511.0Q1147 1545 1221.0 1563.0Q1295 1581 1372 1581Z" style="fill:#31d2f7;stroke:none" transform="scale(1,-1) translate(0,-256)" /></svg>