<?xml version="1.0" encoding="utf-8" ?>
<svg baseProfile="full" height="256" version="1.1" width="256" xmlns="http://www.w3.org/2000/svg" xmlns:ev="http://www.w3.org/2001/xml-events" xmlns:xlink="http://www.w3.org/1999/xlink"><defs /><path d="M454 1725Q473 1725 486 1715L1024 1325Q1045 1310 1056.5 1286.5Q1068 1263 1068 1237Q1068 1215 1059.5 1195.5Q1051 1176 1036.0 1161.0Q1021 1146 1001.5 1137.5Q982 1129 960 1129Q939 1129 918.5 1137.5Q898 1146 883 1161L415 1633Q400 1648 400 1671Q400 1694 415.5 1709.5Q431 1725 454 1725Z" style="fill:#ffc83d;stroke:none" transform="scale(1,-1) translate(0,-256)" /></svg>