<?xml version="1.0" encoding="utf-8" ?>
<svg baseProfile="full" height="256" version="1.1" width="256" xmlns="http://www.w3.org/2000/svg" xmlns:ev="http://www.w3.org/2001/xml-events" xmlns:xlink="http://www.w3.org/1999/xlink"><defs /><path d="M1717 1711Q1838 1691 1947.0 1644.0Q2056 1597 2149.5 1527.5Q2243 1458 2318.0 1369.0Q2393 1280 2446.0 1176.5Q2499 1073 2527.5 957.0Q2556 841 2556 719V-431H1188L1404 72H1322L1258 9Q1246 -85 1202.0 -165.5Q1158 -246 1091.5 -305.0Q1025 -364 939.5 -397.5Q854 -431 759 -431Q655 -431 563.5 -391.5Q472 -352 403.5 -283.5Q335 -215 295.5 -123.5Q256 -32 256 72Q256 141 274.5 202.0Q293 263 325 323L575 791H412L480 983Q492 1016 508.5 1046.0Q525 1076 544.5 1105.0Q564 1134 584.5 1162.5Q605 1191 623 1220L313 1532Q285 1560 270.5 1596.5Q256 1633 256 1672Q256 1713 271.5 1749.0Q287 1785 314.0 1811.5Q341 1838 377.0 1853.5Q413 1869 454 1869Q518 1869 570 1831L917 1579Q995 1636 1085.0 1671.5Q1175 1707 1272 1719Q1283 1752 1303.5 1780.0Q1324 1808 1351.0 1827.5Q1378 1847 1410.5 1858.0Q1443 1869 1478 1869Q1520 1869 1553.0 1854.5Q1586 1840 1614.0 1817.5Q1642 1795 1667.0 1767.0Q1692 1739 1717 1711Z" style="fill:#000000;stroke:none" transform="scale(1,-1) translate(0,-256)" /></svg>