<?xml version="1.0" encoding="utf-8" ?>
<svg baseProfile="full" height="256" version="1.1" width="256" xmlns="http://www.w3.org/2000/svg" xmlns:ev="http://www.w3.org/2001/xml-events" xmlns:xlink="http://www.w3.org/1999/xlink"><defs /><path d="M1298 1078Q1320 1078 1339.5 1069.5Q1359 1061 1374.0 1047.0Q1389 1033 1397.5 1013.0Q1406 993 1406 971V827Q1406 804 1397.5 784.5Q1389 765 1374.5 750.5Q1360 736 1340.0 727.5Q1320 719 1298 719Q1276 719 1256.5 727.5Q1237 736 1222.0 751.0Q1207 766 1198.5 785.5Q1190 805 1190 827V971Q1190 993 1198.5 1012.5Q1207 1032 1222.0 1046.5Q1237 1061 1256.5 1069.5Q1276 1078 1298 1078Z" style="fill:#000000;stroke:none" transform="scale(1,-1) translate(0,-256)" /></svg>