<?xml version="1.0" encoding="utf-8" ?>
<svg baseProfile="full" height="256" version="1.1" width="256" xmlns="http://www.w3.org/2000/svg" xmlns:ev="http://www.w3.org/2001/xml-events" xmlns:xlink="http://www.w3.org/1999/xlink"><defs /><path d="M1334 1797Q1482 1797 1620.0 1758.5Q1758 1720 1877.5 1649.5Q1997 1579 2095.5 1480.5Q2194 1382 2264.5 1262.5Q2335 1143 2373.5 1005.5Q2412 868 2412 719Q2412 570 2373.5 432.5Q2335 295 2265.0 175.0Q2195 55 2096.5 -43.5Q1998 -142 1878.0 -212.0Q1758 -282 1620.5 -320.5Q1483 -359 1334 -359Q1185 -359 1047.5 -320.5Q910 -282 790.5 -211.5Q671 -141 572.5 -42.5Q474 56 403.5 175.5Q333 295 294.5 433.0Q256 571 256 719Q256 867 294.5 1005.0Q333 1143 403.5 1262.5Q474 1382 572.5 1480.5Q671 1579 790.5 1649.5Q910 1720 1048.0 1758.5Q1186 1797 1334 1797Z" style="fill:#000000;stroke:none" transform="scale(1,-1) translate(0,-256)" /></svg>