<?xml version="1.0" encoding="utf-8" ?>
<svg baseProfile="full" height="256" version="1.1" width="256" xmlns="http://www.w3.org/2000/svg" xmlns:ev="http://www.w3.org/2001/xml-events" xmlns:xlink="http://www.w3.org/1999/xlink"><defs /><path d="M1765 503Q1765 474 1743.5 452.5Q1722 431 1693 431H1622Q1592 431 1566.0 442.5Q1540 454 1520.5 473.5Q1501 493 1489.5 519.0Q1478 545 1478 575V647Q1478 677 1499.0 698.0Q1520 719 1550 719H1622Q1652 719 1678.0 707.5Q1704 696 1723.5 676.5Q1743 657 1754.0 631.0Q1765 605 1765 575ZM687 719Q717 719 743.0 707.5Q769 696 788.5 676.5Q808 657 819.5 631.0Q831 605 831 575V503Q831 474 809.5 452.5Q788 431 759 431H651Q629 431 609.5 439.5Q590 448 575.0 463.0Q560 478 551.5 497.5Q543 517 543 539V575Q543 605 554.5 631.0Q566 657 585.5 676.5Q605 696 631.0 707.5Q657 719 687 719ZM1262 1078Q1292 1078 1313.0 1057.0Q1334 1036 1334 1006V899Q1334 876 1325.5 856.5Q1317 837 1302.5 822.5Q1288 808 1268.0 799.5Q1248 791 1226 791H1190Q1160 791 1134.0 802.5Q1108 814 1088.5 833.5Q1069 853 1058.0 879.0Q1047 905 1047 935Q1047 965 1058.0 991.0Q1069 1017 1088.5 1036.5Q1108 1056 1134.0 1067.0Q1160 1078 1190 1078ZM1550 1222Q1520 1222 1499.0 1243.0Q1478 1264 1478 1294V1384Q1478 1407 1493.5 1422.5Q1509 1438 1532 1438H1586Q1608 1438 1627.5 1429.5Q1647 1421 1661.5 1406.0Q1676 1391 1684.5 1371.5Q1693 1352 1693 1330V1294Q1693 1265 1672.0 1243.5Q1651 1222 1622 1222ZM1837 288Q1867 288 1888.0 267.0Q1909 246 1909 216Q1909 186 1897.5 159.5Q1886 133 1866.5 113.5Q1847 94 1821.0 83.0Q1795 72 1765 72Q1736 72 1714.5 93.5Q1693 115 1693 144V252Q1693 266 1704.0 277.0Q1715 288 1729 288ZM1298 216Q1313 216 1323.5 205.5Q1334 195 1334 180V144Q1334 114 1322.5 88.0Q1311 62 1291.5 42.5Q1272 23 1246.0 11.5Q1220 0 1190 0Q1161 0 1139.5 21.5Q1118 43 1118 72Q1118 102 1129.5 128.0Q1141 154 1160.5 173.5Q1180 193 1206.0 204.5Q1232 216 1262 216ZM2035 935Q2053 935 2053 917V827Q2053 812 2042.5 801.5Q2032 791 2017 791H1945Q1930 791 1919.5 801.5Q1909 812 1909 827V863Q1909 892 1930.5 913.5Q1952 935 1981 935ZM885 1294Q903 1294 903 1276V1222Q903 1192 882.0 1171.0Q861 1150 831 1150H795Q780 1150 769.5 1160.5Q759 1171 759 1186V1222Q759 1252 780.0 1273.0Q801 1294 831 1294Z" style="fill:#613d30;stroke:none" transform="scale(1,-1) translate(0,-256)" /></svg>