<?xml version="1.0" encoding="utf-8" ?>
<svg baseProfile="full" height="256" version="1.1" width="256" xmlns="http://www.w3.org/2000/svg" xmlns:ev="http://www.w3.org/2001/xml-events" xmlns:xlink="http://www.w3.org/1999/xlink"><defs /><path d="M831 575V719H1765V575ZM1909 791Q1909 820 1887.5 841.5Q1866 863 1837 863H1729Q1706 863 1686.5 871.5Q1667 880 1653.0 895.0Q1639 910 1630.5 929.5Q1622 949 1622 971Q1622 985 1611.0 995.5Q1600 1006 1586 1006H1370Q1348 1006 1328.5 1014.5Q1309 1023 1294.0 1038.0Q1279 1053 1270.5 1072.5Q1262 1092 1262 1114Q1262 1136 1270.5 1156.0Q1279 1176 1293.5 1190.5Q1308 1205 1327.5 1213.5Q1347 1222 1370 1222Q1392 1222 1412.0 1213.5Q1432 1205 1446.5 1190.5Q1461 1176 1469.5 1156.0Q1478 1136 1478 1114Q1478 1090 1496.5 1083.0Q1515 1076 1538 1076Q1552 1076 1564.5 1077.0Q1577 1078 1586 1078Q1608 1078 1627.5 1069.5Q1647 1061 1661.5 1046.5Q1676 1032 1684.5 1012.5Q1693 993 1693 971Q1693 957 1704.0 946.0Q1715 935 1729 935H1837Q1867 935 1893.0 923.5Q1919 912 1938.5 892.5Q1958 873 1969.5 847.0Q1981 821 1981 791ZM1837 575V719H1981V575Z" style="fill:#000000;stroke:none" transform="scale(1,-1) translate(0,-256)" /></svg>