<?xml version="1.0" encoding="utf-8" ?>
<svg baseProfile="full" height="256" version="1.1" width="256" xmlns="http://www.w3.org/2000/svg" xmlns:ev="http://www.w3.org/2001/xml-events" xmlns:xlink="http://www.w3.org/1999/xlink"><defs /><path d="M2125 935Q2151 935 2176.5 930.5Q2202 926 2222.5 914.0Q2243 902 2255.5 881.0Q2268 860 2268 827V611Q2268 578 2255.5 557.0Q2243 536 2222.5 524.0Q2202 512 2176.5 507.5Q2151 503 2125 503Q2125 394 2096.5 293.0Q2068 192 2016.5 104.5Q1965 17 1893.0 -55.5Q1821 -128 1733.0 -179.5Q1645 -231 1544.0 -259.0Q1443 -287 1334 -287Q1225 -287 1124.0 -259.0Q1023 -231 935.0 -179.5Q847 -128 775.0 -55.5Q703 17 651.5 104.5Q600 192 571.5 293.0Q543 394 543 503Q517 503 491.0 507.5Q465 512 445.0 524.0Q425 536 412.5 557.0Q400 578 400 611V827Q400 860 412.5 881.0Q425 902 445.0 914.0Q465 926 491.0 930.5Q517 935 543 935Q543 1047 572.5 1143.0Q602 1239 654.5 1317.5Q707 1396 780.5 1456.0Q854 1516 942.0 1557.0Q1030 1598 1129.5 1619.0Q1229 1640 1334 1640Q1439 1640 1538.5 1619.0Q1638 1598 1726.0 1557.0Q1814 1516 1887.5 1456.0Q1961 1396 2013.5 1317.5Q2066 1239 2095.5 1143.0Q2125 1047 2125 935Z" style="fill:#ffc83d;stroke:none" transform="scale(1,-1) translate(0,-256)" /></svg>