<?xml version="1.0" encoding="utf-8" ?>
<svg baseProfile="full" height="256" version="1.1" width="256" xmlns="http://www.w3.org/2000/svg" xmlns:ev="http://www.w3.org/2001/xml-events" xmlns:xlink="http://www.w3.org/1999/xlink"><defs /><path d="M1047 1869Q1156 1869 1257.0 1840.5Q1358 1812 1445.5 1760.5Q1533 1709 1605.5 1637.0Q1678 1565 1729.5 1477.0Q1781 1389 1809.0 1288.0Q1837 1187 1837 1078Q1837 917 1780.0 773.5Q1723 630 1617 509Q1589 477 1558.5 449.5Q1528 422 1498 393Q1478 374 1461.0 354.5Q1444 335 1432.0 314.0Q1420 293 1413.0 269.0Q1406 245 1406 216V-179Q1406 -212 1394.5 -242.5Q1383 -273 1362.5 -297.0Q1342 -321 1313.5 -337.0Q1285 -353 1252 -357L1178 -431H915L841 -357Q808 -353 779.5 -337.0Q751 -321 730.5 -297.0Q710 -273 698.5 -242.5Q687 -212 687 -179V216Q687 245 680.0 269.0Q673 293 661.0 314.0Q649 335 632.5 354.5Q616 374 596 393Q566 422 535.5 449.5Q505 477 477 509Q371 630 313.5 773.5Q256 917 256 1078Q256 1187 284.5 1288.0Q313 1389 364.5 1477.0Q416 1565 488.0 1637.0Q560 1709 648.0 1760.5Q736 1812 837.0 1840.5Q938 1869 1047 1869Z" style="fill:#000000;stroke:none" transform="scale(1,-1) translate(0,-256)" /></svg>