<?xml version="1.0" encoding="utf-8" ?>
<svg baseProfile="full" height="256" version="1.1" width="256" xmlns="http://www.w3.org/2000/svg" xmlns:ev="http://www.w3.org/2001/xml-events" xmlns:xlink="http://www.w3.org/1999/xlink"><defs /><path d="M831 216H1262V72H831ZM1226 0Q1241 0 1251.5 -10.5Q1262 -21 1262 -36Q1262 -51 1251.5 -61.5Q1241 -72 1226 -72H867Q852 -72 841.5 -61.5Q831 -51 831 -36Q831 -21 841.5 -10.5Q852 0 867 0ZM1226 -144Q1240 -144 1251.0 -154.5Q1262 -165 1262 -179Q1262 -194 1251.5 -204.5Q1241 -215 1226 -215H867Q852 -215 841.5 -204.5Q831 -194 831 -179Q831 -165 842.0 -154.5Q853 -144 867 -144Z" style="fill:#e5e5e5;stroke:none" transform="scale(1,-1) translate(0,-256)" /></svg>