<?xml version="1.0" encoding="utf-8" ?>
<svg baseProfile="full" height="256" version="1.1" width="256" xmlns="http://www.w3.org/2000/svg" xmlns:ev="http://www.w3.org/2001/xml-events" xmlns:xlink="http://www.w3.org/1999/xlink"><defs /><path d="M1190 647Q1220 647 1241.0 626.0Q1262 605 1262 575Q1262 546 1240.5 524.5Q1219 503 1190 503V216L1153 176L1118 216V503H975V216L935 176L903 216V503Q874 503 852.5 524.5Q831 546 831 575Q831 605 852.0 626.0Q873 647 903 647Q933 647 954.0 626.0Q975 605 975 575H1118Q1118 604 1139.5 625.5Q1161 647 1190 647Z" style="fill:#ffb900;stroke:none" transform="scale(1,-1) translate(0,-256)" /></svg>