<?xml version="1.0" encoding="utf-8" ?>
<svg baseProfile="full" height="256" version="1.1" width="256" xmlns="http://www.w3.org/2000/svg" xmlns:ev="http://www.w3.org/2001/xml-events" xmlns:xlink="http://www.w3.org/1999/xlink"><defs /><path d="M1047 1725Q1181 1725 1298.5 1674.0Q1416 1623 1504.0 1535.5Q1592 1448 1642.5 1330.0Q1693 1212 1693 1078Q1693 985 1672.5 906.5Q1652 828 1614.0 759.0Q1576 690 1523.0 627.5Q1470 565 1406 503Q1373 471 1346.5 440.5Q1320 410 1301.5 376.0Q1283 342 1272.5 303.0Q1262 264 1262 216L1187 166H898L831 216Q831 263 820.5 302.0Q810 341 791.5 375.5Q773 410 746.5 441.0Q720 472 687 503Q622 565 569.0 627.5Q516 690 478.5 759.0Q441 828 420.5 906.5Q400 985 400 1078Q400 1167 423.0 1250.0Q446 1333 488.0 1405.0Q530 1477 589.0 1536.0Q648 1595 720.0 1637.0Q792 1679 874.5 1702.0Q957 1725 1047 1725Z" style="fill:#ffd679;stroke:none" transform="scale(1,-1) translate(0,-256)" /></svg>