<?xml version="1.0" encoding="utf-8" ?>
<svg baseProfile="full" height="256" version="1.1" width="256" xmlns="http://www.w3.org/2000/svg" xmlns:ev="http://www.w3.org/2001/xml-events" xmlns:xlink="http://www.w3.org/1999/xlink"><defs /><path d="M745 204 903 288V108Q903 85 894.5 65.5Q886 46 871.5 31.5Q857 17 837.0 8.5Q817 0 795 0Q772 0 752.5 8.5Q733 17 718.5 31.5Q704 46 695.5 65.5Q687 85 687 108Q687 138 703.0 163.5Q719 189 745 204ZM1823 204 1981 288V108Q1981 85 1972.5 65.5Q1964 46 1949.5 31.5Q1935 17 1915.0 8.5Q1895 0 1873 0Q1851 0 1831.5 8.5Q1812 17 1797.0 32.0Q1782 47 1773.5 66.5Q1765 86 1765 108Q1765 138 1781.0 163.5Q1797 189 1823 204ZM1837 -179Q1837 -149 1853.0 -123.5Q1869 -98 1895 -84L2053 0V-179Q2053 -202 2044.5 -221.5Q2036 -241 2021.5 -255.5Q2007 -270 1987.0 -278.5Q1967 -287 1945 -287Q1922 -287 1902.5 -278.5Q1883 -270 1868.5 -255.5Q1854 -241 1845.5 -221.5Q1837 -202 1837 -179ZM759 -179Q759 -149 775.0 -123.5Q791 -98 817 -84L975 0V-179Q975 -201 966.5 -220.5Q958 -240 943.0 -255.0Q928 -270 908.5 -278.5Q889 -287 867 -287Q844 -287 824.5 -278.5Q805 -270 790.5 -255.5Q776 -241 767.5 -221.5Q759 -202 759 -179ZM457 -84 615 0V-179Q615 -201 606.5 -220.5Q598 -240 584.0 -255.0Q570 -270 550.0 -278.5Q530 -287 508 -287Q485 -287 465.5 -278.5Q446 -270 431.5 -255.5Q417 -241 408.5 -221.5Q400 -202 400 -179Q400 -149 415.5 -123.5Q431 -98 457 -84ZM1478 -179Q1478 -148 1493.5 -123.0Q1509 -98 1536 -84L1693 0V-179Q1693 -201 1684.5 -220.5Q1676 -240 1662.0 -255.0Q1648 -270 1628.0 -278.5Q1608 -287 1586 -287Q1563 -287 1543.5 -278.5Q1524 -270 1509.5 -255.5Q1495 -241 1486.5 -221.5Q1478 -202 1478 -179Z" style="fill:#00bcf2;stroke:none" transform="scale(1,-1) translate(0,-256)" /></svg>