<?xml version="1.0" encoding="utf-8" ?>
<svg baseProfile="full" height="256" version="1.1" width="256" xmlns="http://www.w3.org/2000/svg" xmlns:ev="http://www.w3.org/2001/xml-events" xmlns:xlink="http://www.w3.org/1999/xlink"><defs /><path d="M2556 575Q2556 497 2529.0 425.5Q2502 354 2454.0 297.0Q2406 240 2340.5 201.5Q2275 163 2197 150V-179Q2197 -231 2177.0 -277.0Q2157 -323 2123.0 -357.0Q2089 -391 2043.0 -411.0Q1997 -431 1945 -431Q1894 -431 1847.0 -411.0Q1800 -391 1765 -355Q1730 -391 1683.5 -411.0Q1637 -431 1586 -431Q1546 -431 1508.5 -418.5Q1471 -406 1440.0 -383.5Q1409 -361 1385.0 -330.0Q1361 -299 1348 -261L1178 -431H867Q816 -431 769.0 -411.0Q722 -391 687 -355Q652 -391 605.5 -411.0Q559 -431 508 -431Q456 -431 410.0 -411.0Q364 -391 330.0 -357.0Q296 -323 276.0 -277.0Q256 -231 256 -179Q256 -112 282.0 -66.0Q308 -20 349.5 13.5Q391 47 442.0 72.5Q493 98 544 125Q549 196 590 254Q545 290 509.5 334.0Q474 378 450.0 428.5Q426 479 413.0 534.5Q400 590 400 647Q400 751 439.5 842.5Q479 934 547.5 1002.5Q616 1071 707.5 1110.5Q799 1150 903 1150Q920 1150 935.5 1149.0Q951 1148 968 1146Q1009 1228 1070.5 1295.5Q1132 1363 1207.5 1410.5Q1283 1458 1370.5 1484.0Q1458 1510 1550 1510Q1663 1510 1766.5 1472.5Q1870 1435 1954.0 1367.5Q2038 1300 2097.5 1207.0Q2157 1114 2181 1003Q2261 992 2329.5 954.5Q2398 917 2448.5 859.5Q2499 802 2527.5 729.0Q2556 656 2556 575Z" style="fill:#000000;stroke:none" transform="scale(1,-1) translate(0,-256)" /></svg>