<?xml version="1.0" encoding="utf-8" ?>
<svg baseProfile="full" height="256" version="1.1" width="256" xmlns="http://www.w3.org/2000/svg" xmlns:ev="http://www.w3.org/2001/xml-events" xmlns:xlink="http://www.w3.org/1999/xlink"><defs /><path d="M723 1432Q740 1449 756.0 1463.5Q772 1478 789.0 1488.5Q806 1499 826.0 1504.5Q846 1510 872 1510Q908 1510 940.0 1496.0Q972 1482 996.0 1458.0Q1020 1434 1033.5 1402.0Q1047 1370 1047 1334Q1047 1299 1033.5 1267.0Q1020 1235 996 1210L723 935L451 1210Q426 1235 413.0 1267.0Q400 1299 400 1334Q400 1370 413.5 1402.0Q427 1434 450.5 1458.0Q474 1482 506.0 1496.0Q538 1510 574 1510Q599 1510 619.5 1504.5Q640 1499 657.0 1488.5Q674 1478 690.0 1463.5Q706 1449 723 1432ZM2089 1647Q2122 1682 2154.5 1703.5Q2187 1725 2238 1725Q2274 1725 2306.0 1711.0Q2338 1697 2361.5 1673.0Q2385 1649 2398.5 1617.0Q2412 1585 2412 1549Q2412 1514 2399.0 1482.0Q2386 1450 2361 1425L2089 1150L1816 1425Q1791 1450 1778.0 1482.0Q1765 1514 1765 1549Q1765 1585 1778.5 1617.0Q1792 1649 1815.5 1673.0Q1839 1697 1871.0 1711.0Q1903 1725 1939 1725Q1965 1725 1985.5 1719.5Q2006 1714 2023.5 1703.5Q2041 1693 2056.5 1679.0Q2072 1665 2089 1647ZM2017 282Q2034 299 2050.0 313.5Q2066 328 2083.0 338.5Q2100 349 2120.0 354.5Q2140 360 2166 360Q2202 360 2234.0 346.0Q2266 332 2289.5 308.0Q2313 284 2326.5 252.0Q2340 220 2340 184Q2340 149 2327.0 117.0Q2314 85 2289 60L2017 -215L1744 60Q1719 85 1706.0 117.0Q1693 149 1693 184Q1693 220 1706.5 252.0Q1720 284 1744.0 308.0Q1768 332 1800.0 346.0Q1832 360 1868 360Q1893 360 1913.5 354.5Q1934 349 1951.0 338.5Q1968 328 1984.0 313.5Q2000 299 2017 282Z" style="fill:#f03a17;stroke:none" transform="scale(1,-1) translate(0,-256)" /></svg>