<?xml version="1.0" encoding="utf-8" ?>
<svg baseProfile="full" height="256" version="1.1" width="256" xmlns="http://www.w3.org/2000/svg" xmlns:ev="http://www.w3.org/2001/xml-events" xmlns:xlink="http://www.w3.org/1999/xlink"><defs /><path d="M2556 719Q2556 606 2534.5 496.0Q2513 386 2469 282Q2484 234 2484 184Q2484 121 2460.5 62.5Q2437 4 2392 -41L2017 -420L1911 -313Q1793 -372 1665.5 -401.5Q1538 -431 1406 -431Q1247 -431 1100.5 -390.0Q954 -349 826.0 -274.0Q698 -199 593.0 -94.0Q488 11 413.0 139.0Q338 267 297.0 414.0Q256 561 256 719Q256 824 275.0 926.5Q294 1029 332 1127Q295 1171 275.5 1224.5Q256 1278 256 1335Q256 1401 281.0 1459.0Q306 1517 349.0 1560.0Q392 1603 450.0 1628.0Q508 1653 574 1653Q640 1653 701 1627Q853 1745 1033.5 1807.0Q1214 1869 1406 1869Q1587 1869 1760 1813Q1799 1841 1845.0 1855.0Q1891 1869 1939 1869Q2018 1869 2089 1832Q2160 1869 2238 1869Q2304 1869 2362.0 1844.0Q2420 1819 2462.5 1775.5Q2505 1732 2530.0 1674.0Q2555 1616 2555 1550Q2555 1503 2544.5 1465.5Q2534 1428 2515.5 1395.5Q2497 1363 2470.5 1333.5Q2444 1304 2413 1273Q2484 1145 2520.0 1005.0Q2556 865 2556 719Z" style="fill:#000000;stroke:none" transform="scale(1,-1) translate(0,-256)" /></svg>