<?xml version="1.0" encoding="utf-8" ?>
<svg baseProfile="full" height="256" version="1.1" width="256" xmlns="http://www.w3.org/2000/svg" xmlns:ev="http://www.w3.org/2001/xml-events" xmlns:xlink="http://www.w3.org/1999/xlink"><defs /><path d="M1837 1006Q1882 1006 1921.0 989.0Q1960 972 1989.5 943.0Q2019 914 2036.0 875.0Q2053 836 2053 791H1981Q1981 820 1959.5 841.5Q1938 863 1909 863H1693Q1664 863 1643.0 841.5Q1622 820 1622 791H1550Q1550 836 1567.0 875.0Q1584 914 1613.0 943.0Q1642 972 1681.0 989.0Q1720 1006 1765 1006ZM1190 791Q1190 820 1168.5 841.5Q1147 863 1118 863H903Q874 863 852.5 841.5Q831 820 831 791H759Q759 836 776.0 875.0Q793 914 822.5 943.0Q852 972 891.0 989.0Q930 1006 975 1006H1047Q1092 1006 1131.0 989.0Q1170 972 1199.0 943.0Q1228 914 1245.0 875.0Q1262 836 1262 791ZM1405 261Q1500 261 1573.5 298.5Q1647 336 1710 405Q1733 431 1765 431Q1795 431 1816.0 410.0Q1837 389 1837 359Q1837 335 1821 314Q1785 267 1737.0 230.5Q1689 194 1635.0 169.0Q1581 144 1522.0 131.0Q1463 118 1405 118Q1348 118 1289.5 131.0Q1231 144 1176.5 169.0Q1122 194 1074.0 230.0Q1026 266 991 312Q975 333 975 358Q975 387 996.5 408.5Q1018 430 1047 430Q1064 430 1077.5 423.0Q1091 416 1102 404Q1165 336 1237.5 298.5Q1310 261 1405 261Z" style="fill:#000000;stroke:none" transform="scale(1,-1) translate(0,-256)" /></svg>