<?xml version="1.0" encoding="utf-8" ?>
<svg baseProfile="full" height="256" version="1.1" width="256" xmlns="http://www.w3.org/2000/svg" xmlns:ev="http://www.w3.org/2001/xml-events" xmlns:xlink="http://www.w3.org/1999/xlink"><defs /><path d="M1981 1869H2125Q2214 1869 2292.5 1835.0Q2371 1801 2429.5 1742.5Q2488 1684 2522.0 1605.5Q2556 1527 2556 1438V647Q2556 617 2535.0 596.0Q2514 575 2484 575V-179Q2484 -231 2464.0 -277.0Q2444 -323 2410.0 -357.0Q2376 -391 2330.0 -411.0Q2284 -431 2232 -431Q2180 -431 2134.5 -411.0Q2089 -391 2055.0 -356.5Q2021 -322 2001.0 -276.5Q1981 -231 1981 -179V177Q1925 118 1858.5 71.5Q1792 25 1719.0 -7.0Q1646 -39 1567.0 -55.5Q1488 -72 1406 -72Q1324 -72 1245.0 -55.5Q1166 -39 1093.0 -7.0Q1020 25 953.5 71.5Q887 118 831 177V-179Q831 -231 811.0 -277.0Q791 -323 757.0 -357.0Q723 -391 677.0 -411.0Q631 -431 579 -431Q527 -431 481.5 -411.0Q436 -391 402.0 -356.5Q368 -322 348.0 -276.5Q328 -231 328 -179V983Q293 1026 274.5 1078.0Q256 1130 256 1186V1689Q256 1726 270.0 1759.0Q284 1792 308.5 1816.5Q333 1841 365.5 1855.0Q398 1869 436 1869H723Q760 1869 793.0 1855.0Q826 1841 850.5 1816.5Q875 1792 889.0 1759.0Q903 1726 903 1689V1328Q1009 1419 1138.0 1464.5Q1267 1510 1406 1510Q1488 1510 1567.0 1493.5Q1646 1477 1719.0 1445.0Q1792 1413 1858.5 1366.5Q1925 1320 1981 1261Z" style="fill:#000000;stroke:none" transform="scale(1,-1) translate(0,-256)" /></svg>