<?xml version="1.0" encoding="utf-8" ?>
<svg baseProfile="full" height="256" version="1.1" width="256" xmlns="http://www.w3.org/2000/svg" xmlns:ev="http://www.w3.org/2001/xml-events" xmlns:xlink="http://www.w3.org/1999/xlink"><defs /><path d="M1406 1222Q1510 1222 1601.5 1182.5Q1693 1143 1761.5 1074.5Q1830 1006 1869.5 914.5Q1909 823 1909 719Q1909 615 1869.5 523.5Q1830 432 1761.5 363.5Q1693 295 1601.5 255.5Q1510 216 1406 216Q1302 216 1210.0 255.5Q1118 295 1050.0 363.0Q982 431 942.5 523.0Q903 615 903 719Q903 823 942.5 914.5Q982 1006 1050.5 1074.5Q1119 1143 1210.5 1182.5Q1302 1222 1406 1222ZM1406 288Q1495 288 1573.5 322.0Q1652 356 1710.5 414.5Q1769 473 1803.0 551.5Q1837 630 1837 719Q1837 808 1803.0 886.5Q1769 965 1710.5 1023.5Q1652 1082 1573.5 1116.0Q1495 1150 1406 1150Q1317 1150 1238.5 1116.0Q1160 1082 1101.5 1023.5Q1043 965 1009.0 886.5Q975 808 975 719Q975 630 1009.0 551.5Q1043 473 1101.5 414.5Q1160 356 1238.5 322.0Q1317 288 1406 288ZM2340 647V575H2125V647ZM472 1006H687V935H472Z" style="fill:#e5e5e5;stroke:none" transform="scale(1,-1) translate(0,-256)" /></svg>