<?xml version="1.0" encoding="utf-8" ?>
<svg baseProfile="full" height="256" version="1.1" width="256" xmlns="http://www.w3.org/2000/svg" xmlns:ev="http://www.w3.org/2001/xml-events" xmlns:xlink="http://www.w3.org/1999/xlink"><defs /><path d="M687 -179Q687 -202 678.5 -221.5Q670 -241 655.5 -255.5Q641 -270 621.0 -278.5Q601 -287 579 -287Q556 -287 536.5 -278.5Q517 -270 503.0 -255.0Q489 -240 480.5 -220.5Q472 -201 472 -179V935Q525 945 583 945Q638 945 687 935ZM2125 -179V575Q2177 598 2232 598Q2288 598 2340 575V-179Q2340 -202 2331.5 -221.5Q2323 -241 2308.5 -255.5Q2294 -270 2274.0 -278.5Q2254 -287 2232 -287Q2209 -287 2189.5 -278.5Q2170 -270 2156.0 -255.0Q2142 -240 2133.5 -220.5Q2125 -201 2125 -179Z" style="fill:#b3dbf2;stroke:none" transform="scale(1,-1) translate(0,-256)" /></svg>