<?xml version="1.0" encoding="utf-8" ?>
<svg baseProfile="full" height="256" version="1.1" width="256" xmlns="http://www.w3.org/2000/svg" xmlns:ev="http://www.w3.org/2001/xml-events" xmlns:xlink="http://www.w3.org/1999/xlink"><defs /><path d="M2412 1438V791Q2412 761 2391.0 740.0Q2370 719 2340 719V647Q2314 635 2287.5 628.0Q2261 621 2232 621Q2204 621 2177.0 628.0Q2150 635 2125 647V1725Q2185 1725 2237.0 1702.5Q2289 1680 2328.0 1641.0Q2367 1602 2389.5 1550.0Q2412 1498 2412 1438ZM723 1725Q738 1725 748.5 1714.5Q759 1704 759 1689V1186Q759 1143 740.0 1105.5Q721 1068 687 1042V1006Q661 996 633.5 990.5Q606 985 577 985Q521 985 472 1006V1042Q438 1068 419.0 1105.5Q400 1143 400 1186V1689Q400 1704 410.5 1714.5Q421 1725 436 1725Q451 1725 461.5 1714.5Q472 1704 472 1689V1294Q472 1280 482.5 1269.0Q493 1258 507 1258Q522 1258 532.5 1268.5Q543 1279 543 1294V1689Q543 1704 553.5 1714.5Q564 1725 579 1725Q594 1725 604.5 1714.5Q615 1704 615 1689V1294Q615 1279 625.5 1268.5Q636 1258 651 1258Q666 1258 676.5 1268.5Q687 1279 687 1294V1689Q687 1704 697.5 1714.5Q708 1725 723 1725Z" style="fill:#cccccc;stroke:none" transform="scale(1,-1) translate(0,-256)" /></svg>