<?xml version="1.0" encoding="utf-8" ?>
<svg baseProfile="full" height="256" version="1.1" width="256" xmlns="http://www.w3.org/2000/svg" xmlns:ev="http://www.w3.org/2001/xml-events" xmlns:xlink="http://www.w3.org/1999/xlink"><defs /><path d="M1837 1797Q1936 1797 2028.0 1771.0Q2120 1745 2199.5 1698.5Q2279 1652 2345.0 1586.0Q2411 1520 2457.5 1440.5Q2504 1361 2530.0 1269.0Q2556 1177 2556 1078Q2556 937 2526.0 802.5Q2496 668 2439.5 545.0Q2383 422 2302.5 312.5Q2222 203 2120.5 112.5Q2019 22 1899.5 -46.5Q1780 -115 1646 -157Q1581 -207 1499.5 -256.0Q1418 -305 1329.0 -344.0Q1240 -383 1149.0 -407.0Q1058 -431 975 -431H939Q901 -431 868.5 -417.0Q836 -403 811.5 -378.5Q787 -354 773.0 -321.5Q759 -289 759 -251Q759 -174 773.0 -99.0Q787 -24 811.5 48.5Q836 121 869.5 190.0Q903 259 942 324Q897 369 850.5 413.0Q804 457 761 505Q740 528 726.0 550.0Q712 572 703.5 595.5Q695 619 691.0 645.0Q687 671 687 702L681 696Q658 672 636.5 650.0Q615 628 590.0 611.5Q565 595 536.5 585.0Q508 575 472 575Q427 575 387.5 592.0Q348 609 319.0 638.0Q290 667 273.0 706.5Q256 746 256 791Q256 880 319 943L678 1303Q687 1312 698.0 1319.5Q709 1327 720 1334Q708 1361 701.5 1384.5Q695 1408 691.5 1431.0Q688 1454 687.0 1478.5Q686 1503 686 1532Q686 1601 710.0 1662.5Q734 1724 777.5 1770.0Q821 1816 880.5 1842.5Q940 1869 1011 1869Q1078 1869 1136.5 1843.5Q1195 1818 1239.0 1774.0Q1283 1730 1308.5 1671.5Q1334 1613 1334 1546V1499Q1334 1464 1330.0 1431.5Q1326 1399 1314 1366H1430Q1419 1392 1412.5 1419.0Q1406 1446 1406 1474Q1406 1506 1414.0 1536.5Q1422 1567 1436 1596Q1463 1653 1507.5 1691.5Q1552 1730 1605.5 1753.5Q1659 1777 1718.5 1787.0Q1778 1797 1837 1797Z" style="fill:#000000;stroke:none" transform="scale(1,-1) translate(0,-256)" /></svg>