<?xml version="1.0" encoding="utf-8" ?>
<svg baseProfile="full" height="256" version="1.1" width="256" xmlns="http://www.w3.org/2000/svg" xmlns:ev="http://www.w3.org/2001/xml-events" xmlns:xlink="http://www.w3.org/1999/xlink"><defs /><path d="M1011 1725Q1048 1725 1080.5 1711.0Q1113 1697 1137.5 1672.5Q1162 1648 1176.0 1615.5Q1190 1583 1190 1546V1474Q1190 1456 1187 1438L1176 1448Q1187 1459 1187 1474Q1187 1488 1176.0 1499.0Q1165 1510 1151 1510Q1136 1510 1125 1499L1043 1581H835Q841 1612 857.5 1638.5Q874 1665 897.5 1684.0Q921 1703 950.0 1714.0Q979 1725 1011 1725Z" style="fill:#fff100;stroke:none" transform="scale(1,-1) translate(0,-256)" /></svg>