<?xml version="1.0" encoding="utf-8" ?>
<svg baseProfile="full" height="256" version="1.1" width="256" xmlns="http://www.w3.org/2000/svg" xmlns:ev="http://www.w3.org/2001/xml-events" xmlns:xlink="http://www.w3.org/1999/xlink"><defs /><path d="M1837 1653Q1943 1653 2040.0 1616.0Q2137 1579 2217 1510H1909Q1867 1510 1836.0 1487.5Q1805 1465 1777.0 1438.0Q1749 1411 1721.5 1388.5Q1694 1366 1658 1366Q1635 1366 1615.5 1374.5Q1596 1383 1581.5 1397.5Q1567 1412 1558.5 1431.5Q1550 1451 1550 1474Q1550 1491 1555.0 1507.0Q1560 1523 1568 1537Q1587 1572 1617.5 1594.5Q1648 1617 1684.5 1630.0Q1721 1643 1760.5 1648.0Q1800 1653 1837 1653Z" style="fill:#ffffff;stroke:none" transform="scale(1,-1) translate(0,-256)" /></svg>