<?xml version="1.0" encoding="utf-8" ?>
<svg baseProfile="full" height="256" version="1.1" width="256" xmlns="http://www.w3.org/2000/svg" xmlns:ev="http://www.w3.org/2001/xml-events" xmlns:xlink="http://www.w3.org/1999/xlink"><defs /><path d="M1928 747Q1970 762 2008.0 777.0Q2046 792 2091 792Q2110 792 2128.5 791.5Q2147 791 2166 791Q2095 629 2003.0 474.5Q1911 320 1795.0 185.5Q1679 51 1538.0 -56.5Q1397 -164 1227 -230Q1167 -253 1103.5 -269.5Q1040 -286 975 -287L903 -215Q904 -150 920.5 -86.5Q937 -23 960 37Q1026 207 1133.5 348.0Q1241 489 1375.5 605.0Q1510 721 1664.5 813.0Q1819 905 1981 976V863Z" style="fill:#f7630c;stroke:none" transform="scale(1,-1) translate(0,-256)" /></svg>