<?xml version="1.0" encoding="utf-8" ?>
<svg baseProfile="full" height="256" version="1.1" width="256" xmlns="http://www.w3.org/2000/svg" xmlns:ev="http://www.w3.org/2001/xml-events" xmlns:xlink="http://www.w3.org/1999/xlink"><defs /><path d="M1622 1222Q1651 1222 1672.0 1200.5Q1693 1179 1693 1150Q1693 1121 1672.0 1099.5Q1651 1078 1622 1078H1262Q1232 1078 1211.0 1057.0Q1190 1036 1190 1006V863L1114 699L831 683V1049L522 740Q501 719 471 719Q442 719 421.0 740.5Q400 762 400 791Q400 821 421 842L780 1201Q801 1222 831 1222ZM1765 324Q1765 309 1754.5 298.5Q1744 288 1729 288H1478Q1448 288 1427.0 309.0Q1406 330 1406 360V647L1312 747L1406 863H1514Q1536 863 1555.5 854.5Q1575 846 1590.0 831.0Q1605 816 1613.5 796.5Q1622 777 1622 755V431L1750 352Q1755 348 1760.0 339.5Q1765 331 1765 324ZM1478 36Q1478 21 1467.5 10.5Q1457 0 1442 0H1190Q1161 0 1139.5 21.5Q1118 43 1118 72V351L1114 355L1127 486L1267 508Q1280 495 1292.0 483.5Q1304 472 1313.5 459.0Q1323 446 1328.5 430.5Q1334 415 1334 396V144L1463 65Q1468 62 1473.0 52.0Q1478 42 1478 36ZM1012 1676Q1040 1676 1062.5 1672.0Q1085 1668 1103.0 1657.5Q1121 1647 1135.5 1630.0Q1150 1613 1162 1587Q1188 1530 1188 1468Q1188 1432 1174.0 1400.0Q1160 1368 1135.5 1344.5Q1111 1321 1079.0 1307.5Q1047 1294 1011 1294Q973 1294 940.5 1308.0Q908 1322 883.5 1346.5Q859 1371 845.0 1403.5Q831 1436 831 1474V1546Q831 1571 835.5 1583.5Q840 1596 857 1614Q874 1633 891.0 1645.0Q908 1657 926.5 1664.0Q945 1671 966.0 1673.5Q987 1676 1012 1676Z" style="fill:#ffb900;stroke:none" transform="scale(1,-1) translate(0,-256)" /></svg>