<?xml version="1.0" encoding="utf-8" ?>
<svg baseProfile="full" height="256" version="1.1" width="256" xmlns="http://www.w3.org/2000/svg" xmlns:ev="http://www.w3.org/2001/xml-events" xmlns:xlink="http://www.w3.org/1999/xlink"><defs /><path d="M2217 1510Q2311 1426 2361.5 1315.0Q2412 1204 2412 1078Q2412 919 2371.0 772.0Q2330 625 2255.0 497.5Q2180 370 2075.0 265.0Q1970 160 1842.5 85.0Q1715 10 1568.0 -31.0Q1421 -72 1262 -72V360L1828 926Q1847 945 1862.0 972.5Q1877 1000 1887.5 1030.5Q1898 1061 1903.5 1092.0Q1909 1123 1909 1150Q1909 1207 1894.5 1252.0Q1880 1297 1858.5 1332.0Q1837 1367 1811.5 1392.5Q1786 1418 1764.5 1436.0Q1743 1454 1728.5 1464.5Q1714 1475 1714 1481Q1714 1493 1729.5 1500.0Q1745 1507 1754 1510L1935 1565Z" style="fill:#31d2f7;stroke:none" transform="scale(1,-1) translate(0,-256)" /></svg>