<?xml version="1.0" encoding="utf-8" ?>
<svg baseProfile="full" height="256" version="1.1" width="256" xmlns="http://www.w3.org/2000/svg" xmlns:ev="http://www.w3.org/2001/xml-events" xmlns:xlink="http://www.w3.org/1999/xlink"><defs /><path d="M256 -431V-110L578 535Q589 557 605.5 575.5Q622 594 642 608Q593 700 568.0 801.0Q543 902 543 1006Q543 1125 574.0 1235.0Q605 1345 661.0 1441.0Q717 1537 796.0 1616.0Q875 1695 971.0 1751.0Q1067 1807 1177.0 1838.0Q1287 1869 1406 1869Q1525 1869 1635.0 1838.0Q1745 1807 1841.0 1751.0Q1937 1695 2015.5 1616.0Q2094 1537 2150.0 1441.0Q2206 1345 2237.0 1235.0Q2268 1125 2268 1006Q2268 909 2247.0 816.0Q2226 723 2184 635L2556 -110V-431Z" style="fill:#000000;stroke:none" transform="scale(1,-1) translate(0,-256)" /></svg>