<?xml version="1.0" encoding="utf-8" ?>
<svg baseProfile="full" height="256" version="1.1" width="256" xmlns="http://www.w3.org/2000/svg" xmlns:ev="http://www.w3.org/2001/xml-events" xmlns:xlink="http://www.w3.org/1999/xlink"><defs /><path d="M1911 790Q1945 790 1961 759L2412 -144L2300 -189H610L543 -144Q547 -129 557.5 -94.5Q568 -60 582.0 -13.0Q596 34 612.0 89.0Q628 144 645.0 200.0Q662 256 678.0 308.0Q694 360 707.5 401.5Q721 443 730.5 469.0Q740 495 744 499Q745 500 749.0 500.5Q753 501 754 501Q773 501 787.5 495.0Q802 489 811 471L867 360Q920 492 975.0 621.0Q1030 750 1087 881Q1092 892 1104.0 920.5Q1116 949 1130.0 980.5Q1144 1012 1156.5 1039.0Q1169 1066 1175 1074Q1181 1076 1185 1076Q1204 1076 1217.0 1069.5Q1230 1063 1239.0 1052.0Q1248 1041 1254.5 1027.5Q1261 1014 1267 999L1272 987Q1273 989 1277.0 993.5Q1281 998 1282 999L1435 1329Q1443 1346 1450.5 1355.0Q1458 1364 1481 1364Q1514 1364 1530 1333L1851 691Q1854 704 1857.0 721.0Q1860 738 1866.0 753.5Q1872 769 1882.5 779.5Q1893 790 1911 790Z" style="fill:#16c60c;stroke:none" transform="scale(1,-1) translate(0,-256)" /></svg>