<?xml version="1.0" encoding="utf-8" ?>
<svg baseProfile="full" height="256" version="1.1" width="256" xmlns="http://www.w3.org/2000/svg" xmlns:ev="http://www.w3.org/2001/xml-events" xmlns:xlink="http://www.w3.org/1999/xlink"><defs /><path d="M1094 671 1309 1101Q1322 1126 1336.5 1157.0Q1351 1188 1366.0 1219.5Q1381 1251 1396.5 1280.5Q1412 1310 1426 1333Q1439 1355 1459 1360L1094 -96Q1028 37 963.0 168.0Q898 299 831 431L1138 1046Q1143 1057 1153.0 1064.0Q1163 1071 1175 1074ZM1406 -144 1706 458Q1744 533 1779.0 610.0Q1814 687 1857 759Q1869 779 1890 786Q1831 552 1773.0 321.0Q1715 90 1658 -144L1529 -202ZM400 -144 707 471Q712 482 722.0 489.0Q732 496 744 499L615 -144L543 -196Z" style="fill:#13a10e;stroke:none" transform="scale(1,-1) translate(0,-256)" /></svg>