<?xml version="1.0" encoding="utf-8" ?>
<svg baseProfile="full" height="256" version="1.1" width="256" xmlns="http://www.w3.org/2000/svg" xmlns:ev="http://www.w3.org/2001/xml-events" xmlns:xlink="http://www.w3.org/1999/xlink"><defs /><path d="M1681 1074H1022Q982 1074 943.0 1072.0Q904 1070 864 1070Q850 1070 850 1084V1194Q850 1207 864 1207Q904 1207 943.0 1205.5Q982 1204 1022 1204H1790Q1829 1204 1868.5 1205.5Q1908 1207 1947 1207Q1961 1207 1961 1194V1084Q1961 1070 1947 1070L1825 1074V530Q1825 467 1826.5 405.0Q1828 343 1828 280Q1828 249 1820.0 215.5Q1812 182 1785 162Q1768 150 1736.0 143.0Q1704 136 1667.5 133.0Q1631 130 1596.5 129.5Q1562 129 1541 129Q1535 129 1529.0 130.0Q1523 131 1518 135Q1510 169 1499.0 205.0Q1488 241 1471 271Q1508 267 1544.5 265.5Q1581 264 1618 264Q1631 264 1642.5 265.0Q1654 266 1662.5 270.5Q1671 275 1676.0 284.0Q1681 293 1681 309ZM1122 462V381Q1122 367 1108 367H999Q985 367 985 381Q985 441 987.5 500.0Q990 559 990 619V751Q990 794 988.0 836.0Q986 878 986 921Q986 934 1000 934Q1036 934 1071.5 932.5Q1107 931 1143 931H1353Q1389 931 1424.5 932.5Q1460 934 1496 934Q1509 934 1509 921Q1509 886 1507.5 851.0Q1506 816 1506 781V639Q1506 582 1508.5 525.5Q1511 469 1511 412Q1511 398 1497 398H1388Q1377 398 1374.0 408.0Q1371 418 1371 431Q1371 440 1372.0 448.5Q1373 457 1373 462ZM1122 583H1373V812H1122Z" style="fill:#ffffff;stroke:none" transform="scale(1,-1) translate(0,-256)" /></svg>