<?xml version="1.0" encoding="utf-8" ?>
<svg baseProfile="full" height="256" version="1.1" width="256" xmlns="http://www.w3.org/2000/svg" xmlns:ev="http://www.w3.org/2001/xml-events" xmlns:xlink="http://www.w3.org/1999/xlink"><defs /><path d="M1621 1222H1641Q1675 1222 1705.0 1220.0Q1735 1218 1761.5 1210.5Q1788 1203 1812.0 1186.5Q1836 1170 1859 1142L2390 483Q2401 469 2406.5 459.0Q2412 449 2412 431Q2412 412 2401 395L2075 -162Q2058 -191 2031.0 -214.0Q2004 -237 1971.5 -253.5Q1939 -270 1904.5 -278.5Q1870 -287 1837 -287H975Q942 -287 907.0 -278.5Q872 -270 840.0 -254.0Q808 -238 781.0 -214.5Q754 -191 737 -162L411 395Q400 412 400 431Q400 445 406.5 458.0Q413 471 421 482L952 1142Q975 1170 999.0 1186.5Q1023 1203 1049.5 1210.5Q1076 1218 1106.0 1220.0Q1136 1222 1170 1222H1190L1406 1007Z" style="fill:#f03a17;stroke:none" transform="scale(1,-1) translate(0,-256)" /></svg>