<?xml version="1.0" encoding="utf-8" ?>
<svg baseProfile="full" height="256" version="1.1" width="256" xmlns="http://www.w3.org/2000/svg" xmlns:ev="http://www.w3.org/2001/xml-events" xmlns:xlink="http://www.w3.org/1999/xlink"><defs /><path d="M975 -431Q921 -431 868.0 -418.0Q815 -405 767.5 -379.5Q720 -354 680.0 -317.5Q640 -281 613 -234L287 322Q273 347 264.5 374.5Q256 402 256 431Q256 472 271.5 509.0Q287 546 312 577L840 1233Q891 1296 964.0 1331.0Q1037 1366 1118 1366H1250L1406 1210L1562 1366H1693Q1774 1366 1846.5 1331.5Q1919 1297 1970 1234L2498 578Q2526 543 2541.0 509.5Q2556 476 2556 431Q2556 402 2547.0 374.0Q2538 346 2524 321L2196 -239Q2169 -284 2129.0 -320.0Q2089 -356 2041.5 -380.5Q1994 -405 1941.5 -418.0Q1889 -431 1837 -431Z" style="fill:#000000;stroke:none" transform="scale(1,-1) translate(0,-256)" /></svg>