<?xml version="1.0" encoding="utf-8" ?>
<svg baseProfile="full" height="256" version="1.1" width="256" xmlns="http://www.w3.org/2000/svg" xmlns:ev="http://www.w3.org/2001/xml-events" xmlns:xlink="http://www.w3.org/1999/xlink"><defs /><path d="M2268 431 2019 413Q1988 411 1957.5 407.5Q1927 404 1895 404H889Q860 404 831.5 407.5Q803 411 774 413L543 431Q646 488 736.0 540.0Q826 592 917.5 632.0Q1009 672 1109.5 695.5Q1210 719 1334 719H1478Q1602 719 1702.5 696.0Q1803 673 1894.5 633.5Q1986 594 2076.0 541.5Q2166 489 2268 431Z" style="fill:#ffffff;stroke:none" transform="scale(1,-1) translate(0,-256)" /></svg>