<?xml version="1.0" encoding="utf-8" ?>
<svg baseProfile="full" height="256" version="1.1" width="256" xmlns="http://www.w3.org/2000/svg" xmlns:ev="http://www.w3.org/2001/xml-events" xmlns:xlink="http://www.w3.org/1999/xlink"><defs /><path d="M1945 72H1226Q1204 72 1184.5 80.5Q1165 89 1150.0 104.0Q1135 119 1126.5 138.5Q1118 158 1118 180V683Q1118 705 1126.5 724.5Q1135 744 1150.0 759.0Q1165 774 1184.5 782.5Q1204 791 1226 791H1945Q1967 791 1987.0 782.5Q2007 774 2021.5 759.5Q2036 745 2044.5 725.0Q2053 705 2053 683V180Q2053 157 2044.5 137.5Q2036 118 2021.5 103.5Q2007 89 1987.0 80.5Q1967 72 1945 72ZM1622 1150Q1622 1210 1644.5 1262.5Q1667 1315 1706.0 1354.0Q1745 1393 1797.0 1415.5Q1849 1438 1909 1438Q1969 1438 2021.5 1415.5Q2074 1393 2113.0 1354.0Q2152 1315 2174.5 1262.5Q2197 1210 2197 1150Q2197 1090 2174.5 1038.0Q2152 986 2113.0 947.0Q2074 908 2021.5 885.5Q1969 863 1909 863Q1849 863 1797.0 885.5Q1745 908 1706.0 947.0Q1667 986 1644.5 1038.0Q1622 1090 1622 1150ZM975 1150Q975 1210 997.5 1262.5Q1020 1315 1059.0 1354.0Q1098 1393 1150.0 1415.5Q1202 1438 1262 1438Q1322 1438 1374.5 1415.5Q1427 1393 1466.0 1354.0Q1505 1315 1527.5 1262.5Q1550 1210 1550 1150Q1550 1090 1527.5 1038.0Q1505 986 1466.0 947.0Q1427 908 1374.5 885.5Q1322 863 1262 863Q1202 863 1150.0 885.5Q1098 908 1059.0 947.0Q1020 986 997.5 1038.0Q975 1090 975 1150ZM1047 272 687 72V791L1047 591Z" style="fill:#ffffff;stroke:none" transform="scale(1,-1) translate(0,-256)" /></svg>