<?xml version="1.0" encoding="utf-8" ?>
<svg baseProfile="full" height="256" version="1.1" width="256" xmlns="http://www.w3.org/2000/svg" xmlns:ev="http://www.w3.org/2001/xml-events" xmlns:xlink="http://www.w3.org/1999/xlink"><defs /><path d="M2037 417Q2108 417 2175.0 386.5Q2242 356 2294.5 304.5Q2347 253 2379.0 186.5Q2411 120 2411 48V37Q2403 -32 2372.5 -91.5Q2342 -151 2294.5 -194.5Q2247 -238 2185.0 -262.5Q2123 -287 2053 -287H687Q628 -287 575.5 -264.5Q523 -242 484.0 -203.0Q445 -164 422.5 -111.5Q400 -59 400 0Q400 37 411.0 80.0Q422 123 442.0 166.5Q462 210 490.5 250.0Q519 290 552.5 321.5Q586 353 624.5 371.5Q663 390 704 390L975 288H1013Q1062 288 1096.5 288.5Q1131 289 1158.0 291.0Q1185 293 1208.0 297.5Q1231 302 1257.0 310.5Q1283 319 1315.5 332.0Q1348 345 1394 364Q1395 364 1395.5 364.5Q1396 365 1397 365L1429 378Q1447 385 1460.5 389.5Q1474 394 1487.5 396.5Q1501 399 1516.0 400.0Q1531 401 1550 402L1875 412Q1899 413 1918.0 413.5Q1937 414 1956.0 415.0Q1975 416 1994.0 416.5Q2013 417 2037 417ZM615 1438Q615 1441 618.5 1452.5Q622 1464 626.5 1477.5Q631 1491 635.5 1502.5Q640 1514 642 1519Q680 1607 742.5 1652.5Q805 1698 903 1698H1262Q1304 1698 1331.5 1682.5Q1359 1667 1375.5 1641.0Q1392 1615 1399.0 1581.0Q1406 1547 1406 1510V1438L1377 1404L1406 1366V1294Q1406 1264 1385.0 1243.0Q1364 1222 1334 1222H831Q786 1222 747.0 1239.0Q708 1256 678.5 1285.5Q649 1315 632.0 1354.0Q615 1393 615 1438Z" style="fill:#a6a6a6;stroke:none" transform="scale(1,-1) translate(0,-256)" /></svg>