<?xml version="1.0" encoding="utf-8" ?>
<svg baseProfile="full" height="256" version="1.1" width="256" xmlns="http://www.w3.org/2000/svg" xmlns:ev="http://www.w3.org/2001/xml-events" xmlns:xlink="http://www.w3.org/1999/xlink"><defs /><path d="M1406 1438V1366H1083Q1060 1366 1040.5 1374.5Q1021 1383 1006.5 1397.5Q992 1412 983.5 1431.5Q975 1451 975 1474Q975 1496 983.5 1516.0Q992 1536 1007.0 1550.0Q1022 1564 1041.5 1572.5Q1061 1581 1083 1581Q1105 1581 1124.5 1572.5Q1144 1564 1158.5 1549.5Q1173 1535 1181.5 1515.5Q1190 1496 1190 1474V1438ZM831 0Q831 -30 819.5 -56.0Q808 -82 788.5 -101.5Q769 -121 743.0 -132.5Q717 -144 687 -144Q657 -144 631.0 -132.5Q605 -121 585.5 -101.5Q566 -82 554.5 -56.0Q543 -30 543 0Q543 30 554.5 56.0Q566 82 585.5 101.5Q605 121 631.0 132.5Q657 144 687 144Q717 144 743.0 132.5Q769 121 788.5 101.5Q808 82 819.5 56.0Q831 30 831 0ZM2233 144Q2247 144 2257.5 133.0Q2268 122 2268 108Q2268 41 2242.5 -17.5Q2217 -76 2173.0 -120.0Q2129 -164 2070.5 -189.5Q2012 -215 1945 -215H1586Q1571 -215 1560.5 -204.5Q1550 -194 1550 -179Q1550 -165 1561.0 -154.5Q1572 -144 1586 -144H1945Q1997 -144 2043.0 -124.0Q2089 -104 2123.0 -70.0Q2157 -36 2177.0 10.0Q2197 56 2197 108Q2197 123 2207.5 133.5Q2218 144 2233 144ZM975 1150V288H700Q647 288 597.5 270.5Q548 253 508.5 221.5Q469 190 441.0 146.5Q413 103 404 50Q450 360 496.0 666.5Q542 973 589 1283Q618 1237 652.5 1210.5Q687 1184 725.0 1170.5Q763 1157 805.5 1153.5Q848 1150 894 1150Z" style="fill:#757575;stroke:none" transform="scale(1,-1) translate(0,-256)" /></svg>