<?xml version="1.0" encoding="utf-8" ?>
<svg baseProfile="full" height="256" version="1.1" width="256" xmlns="http://www.w3.org/2000/svg" xmlns:ev="http://www.w3.org/2001/xml-events" xmlns:xlink="http://www.w3.org/1999/xlink"><defs /><path d="M1546 360Q1511 360 1479.5 352.0Q1448 344 1417 329Q1332 288 1241 288H1122Q1181 288 1232.5 310.5Q1284 333 1334.0 359.5Q1384 386 1435.5 408.5Q1487 431 1546 431H2027Q2102 431 2172.0 404.5Q2242 378 2295.5 330.0Q2349 282 2381.0 216.0Q2413 150 2413 72Q2413 65 2412.5 58.5Q2412 52 2411 45V40Q2411 85 2395.0 126.0Q2379 167 2352.0 202.5Q2325 238 2288.5 267.0Q2252 296 2210.5 316.5Q2169 337 2124.5 348.5Q2080 360 2037 360ZM1262 1725Q1292 1725 1318.0 1713.5Q1344 1702 1363.5 1682.5Q1383 1663 1394.5 1637.0Q1406 1611 1406 1581V1516Q1405 1545 1393.0 1570.0Q1381 1595 1361.5 1613.5Q1342 1632 1316.5 1642.5Q1291 1653 1262 1653H903Q849 1653 800.5 1634.0Q752 1615 713.5 1582.0Q675 1549 650.0 1503.5Q625 1458 618 1404Q615 1420 615 1438Q615 1497 638.0 1549.5Q661 1602 700.0 1641.0Q739 1680 791.5 1702.5Q844 1725 903 1725Z" style="fill:#cccccc;stroke:none" transform="scale(1,-1) translate(0,-256)" /></svg>