<?xml version="1.0" encoding="utf-8" ?>
<svg baseProfile="full" height="256" version="1.1" width="256" xmlns="http://www.w3.org/2000/svg" xmlns:ev="http://www.w3.org/2001/xml-events" xmlns:xlink="http://www.w3.org/1999/xlink"><defs /><path d="M687 -431Q598 -431 519.5 -397.0Q441 -363 382.5 -304.5Q324 -246 290.0 -167.5Q256 -89 256 0Q256 14 257.0 28.0Q258 42 260 56L476 1501Q488 1580 526.0 1647.0Q564 1714 621.5 1763.5Q679 1813 751.0 1841.0Q823 1869 903 1869H1262Q1322 1869 1374.5 1846.5Q1427 1824 1466.0 1785.0Q1505 1746 1527.5 1693.5Q1550 1641 1550 1581V1294Q1550 1249 1533.0 1210.0Q1516 1171 1486.5 1141.5Q1457 1112 1418.0 1095.0Q1379 1078 1334 1078H1118V431H1122Q1159 431 1203.5 453.5Q1248 476 1300.5 503.0Q1353 530 1414.0 552.5Q1475 575 1546 575H2037Q2141 575 2235.0 536.5Q2329 498 2400.5 430.5Q2472 363 2514.0 271.5Q2556 180 2556 74Q2556 -30 2516.5 -122.0Q2477 -214 2409.0 -282.5Q2341 -351 2249.5 -391.0Q2158 -431 2053 -431Z" style="fill:#000000;stroke:none" transform="scale(1,-1) translate(0,-256)" /></svg>