<?xml version="1.0" encoding="utf-8" ?>
<svg baseProfile="full" height="256" version="1.1" width="256" xmlns="http://www.w3.org/2000/svg" xmlns:ev="http://www.w3.org/2001/xml-events" xmlns:xlink="http://www.w3.org/1999/xlink"><defs /><path d="M975 72H687Q658 72 636.5 93.5Q615 115 615 144V719Q615 748 636.5 769.5Q658 791 687 791H975Q1004 791 1025.5 769.5Q1047 748 1047 719V144Q1047 115 1025.5 93.5Q1004 72 975 72ZM400 -144V0H1622V-144ZM1190 1006H1478Q1508 1006 1534.0 995.0Q1560 984 1579.5 964.5Q1599 945 1610.5 919.0Q1622 893 1622 863H400Q400 893 411.0 919.0Q422 945 441.5 964.5Q461 984 487.0 995.0Q513 1006 543 1006H831L861 1036H1160Z" style="fill:#ffb900;stroke:none" transform="scale(1,-1) translate(0,-256)" /></svg>