<?xml version="1.0" encoding="utf-8" ?>
<svg baseProfile="full" height="256" version="1.1" width="256" xmlns="http://www.w3.org/2000/svg" xmlns:ev="http://www.w3.org/2001/xml-events" xmlns:xlink="http://www.w3.org/1999/xlink"><defs /><path d="M1765 1653V1294H1334V1150H1478Q1537 1150 1589.5 1127.5Q1642 1105 1681.0 1066.0Q1720 1027 1742.5 974.5Q1765 922 1765 863V-144Q1765 -203 1742.5 -255.5Q1720 -308 1681.0 -347.0Q1642 -386 1589.5 -408.5Q1537 -431 1478 -431H543Q484 -431 431.5 -408.5Q379 -386 340.0 -347.0Q301 -308 278.5 -255.5Q256 -203 256 -144V863Q256 922 278.5 974.5Q301 1027 340.0 1066.0Q379 1105 431.5 1127.5Q484 1150 543 1150H687V1277L670 1294H256V1653H771L843 1725H1106L1178 1653Z" style="fill:#000000;stroke:none" transform="scale(1,-1) translate(0,-256)" /></svg>