<?xml version="1.0" encoding="utf-8" ?>
<svg baseProfile="full" height="256" version="1.1" width="256" xmlns="http://www.w3.org/2000/svg" xmlns:ev="http://www.w3.org/2001/xml-events" xmlns:xlink="http://www.w3.org/1999/xlink"><defs /><path d="M1100 1292Q1104 1293 1108.0 1293.0Q1112 1293 1116 1293Q1148 1293 1169.0 1273.5Q1190 1254 1190 1222Q1190 1192 1169.0 1171.0Q1148 1150 1118 1150Q1109 1150 1100 1153L1026 1078H924L1049 1203Q1047 1207 1047 1214V1230Q1047 1237 1049 1241L924 1366H1026ZM903 1438Q903 1408 882.0 1387.0Q861 1366 831 1366Q801 1366 780.0 1387.0Q759 1408 759 1438Q759 1467 780.5 1488.5Q802 1510 831 1510Q860 1510 881.5 1488.5Q903 1467 903 1438ZM1190 1438Q1190 1408 1169.0 1387.0Q1148 1366 1118 1366Q1089 1366 1068.0 1387.5Q1047 1409 1047 1438Q1047 1467 1068.0 1488.5Q1089 1510 1118 1510Q1147 1510 1168.5 1488.5Q1190 1467 1190 1438Z" style="fill:#757575;stroke:none" transform="scale(1,-1) translate(0,-256)" /></svg>