<?xml version="1.0" encoding="utf-8" ?>
<svg baseProfile="full" height="256" version="1.1" width="256" xmlns="http://www.w3.org/2000/svg" xmlns:ev="http://www.w3.org/2001/xml-events" xmlns:xlink="http://www.w3.org/1999/xlink"><defs /><path d="M1047 1869Q1136 1869 1214.5 1835.0Q1293 1801 1351.5 1742.5Q1410 1684 1444.0 1605.5Q1478 1527 1478 1438V719Q1478 681 1458.0 648.0Q1438 615 1406 595V-179Q1406 -231 1386.0 -277.0Q1366 -323 1332.0 -357.0Q1298 -391 1252.0 -411.0Q1206 -431 1154 -431Q1104 -431 1059.0 -412.0Q1014 -393 980.0 -360.0Q946 -327 925.5 -283.0Q905 -239 903 -189Q901 -239 880.0 -283.0Q859 -327 825.0 -360.0Q791 -393 746.0 -412.0Q701 -431 651 -431Q599 -431 553.5 -411.0Q508 -391 474.0 -356.5Q440 -322 420.0 -276.5Q400 -231 400 -179V882Q332 939 294.0 1018.5Q256 1098 256 1186V1653Q256 1698 273.0 1737.0Q290 1776 319.5 1805.5Q349 1835 388.0 1852.0Q427 1869 472 1869Z" style="fill:#000000;stroke:none" transform="scale(1,-1) translate(0,-256)" /></svg>