<?xml version="1.0" encoding="utf-8" ?>
<svg baseProfile="full" height="256" version="1.1" width="256" xmlns="http://www.w3.org/2000/svg" xmlns:ev="http://www.w3.org/2001/xml-events" xmlns:xlink="http://www.w3.org/1999/xlink"><defs /><path d="M867 1725Q882 1725 892.5 1714.5Q903 1704 903 1689V1186Q903 1113 864.0 1051.5Q825 990 759 959V863Q736 846 708.5 836.5Q681 827 652 827Q623 827 595.5 837.0Q568 847 544 863V959Q478 990 439.0 1051.5Q400 1113 400 1186V1689Q400 1704 410.5 1714.5Q421 1725 436 1725Q460 1725 466.0 1710.0Q472 1695 472 1676V1258Q472 1243 482.5 1232.5Q493 1222 508 1222Q523 1222 533.5 1232.5Q544 1243 544 1258Q544 1359 543.0 1459.0Q542 1559 542 1660Q542 1670 543.0 1681.0Q544 1692 547.5 1702.0Q551 1712 558.5 1718.5Q566 1725 579 1725Q603 1725 609.0 1710.0Q615 1695 615 1676V1258Q615 1243 625.5 1232.5Q636 1222 651 1222Q666 1222 676.5 1232.5Q687 1243 687 1258V1676Q687 1696 693.5 1710.5Q700 1725 723 1725Q747 1725 753.0 1710.0Q759 1695 759 1676V1258Q759 1243 769.5 1232.5Q780 1222 795 1222Q810 1222 820.5 1232.5Q831 1243 831 1258V1676Q831 1696 837.5 1710.5Q844 1725 867 1725ZM1334 1438V791Q1334 761 1313.0 740.0Q1292 719 1262 719V647Q1236 635 1208.5 628.0Q1181 621 1152 621Q1125 621 1098.5 628.0Q1072 635 1047 647V1725Q1107 1725 1159.0 1702.5Q1211 1680 1250.0 1641.0Q1289 1602 1311.5 1550.0Q1334 1498 1334 1438Z" style="fill:#cccccc;stroke:none" transform="scale(1,-1) translate(0,-256)" /></svg>