<?xml version="1.0" encoding="utf-8" ?>
<svg baseProfile="full" height="256" version="1.1" width="256" xmlns="http://www.w3.org/2000/svg" xmlns:ev="http://www.w3.org/2001/xml-events" xmlns:xlink="http://www.w3.org/1999/xlink"><defs /><path d="M759 -179Q759 -202 750.5 -221.5Q742 -241 727.5 -255.5Q713 -270 693.0 -278.5Q673 -287 651 -287Q629 -287 609.5 -278.5Q590 -270 575.5 -255.0Q561 -240 552.5 -220.5Q544 -201 544 -179V791Q569 806 596.0 815.0Q623 824 652 824Q681 824 708.0 815.0Q735 806 759 791ZM1047 -179V575Q1101 592 1156 592Q1209 592 1262 575V-179Q1262 -202 1253.5 -221.5Q1245 -241 1230.5 -255.5Q1216 -270 1196.0 -278.5Q1176 -287 1154 -287Q1131 -287 1111.5 -278.5Q1092 -270 1078.0 -255.0Q1064 -240 1055.5 -220.5Q1047 -201 1047 -179Z" style="fill:#b3dbf2;stroke:none" transform="scale(1,-1) translate(0,-256)" /></svg>