<?xml version="1.0" encoding="utf-8" ?>
<svg baseProfile="full" height="256" version="1.1" width="256" xmlns="http://www.w3.org/2000/svg" xmlns:ev="http://www.w3.org/2001/xml-events" xmlns:xlink="http://www.w3.org/1999/xlink"><defs /><path d="M2125 1581H2412V-287H2125V647H1837V1294H2125ZM687 1294H1550V935H1262V-287H975V575L831 719V791H759L687 863ZM759 0H903V-287H759ZM1622 0H1765V-287H1622ZM1909 0H2053V-144H1909ZM759 288H903V144H759ZM1334 863H1478V719H1334ZM1909 288H2053V144H1909ZM1334 288H1478V144H1334ZM1622 575H1765V431H1622ZM472 288H615V144H472ZM1622 288H1765V144H1622ZM472 575H615V431H472ZM1622 863H1765V719H1622Z" style="fill:#383838;stroke:none" transform="scale(1,-1) translate(0,-256)" /></svg>