<?xml version="1.0" encoding="utf-8" ?>
<svg baseProfile="full" height="256" version="1.1" width="256" xmlns="http://www.w3.org/2000/svg" xmlns:ev="http://www.w3.org/2001/xml-events" xmlns:xlink="http://www.w3.org/1999/xlink"><defs /><path d="M2125 1294Q2125 1204 2091.0 1125.5Q2057 1047 1998.5 988.5Q1940 930 1861.5 896.5Q1783 863 1693 863Q1604 863 1525.5 897.0Q1447 931 1388.5 989.5Q1330 1048 1296.0 1126.5Q1262 1205 1262 1294Q1262 1383 1296.0 1461.5Q1330 1540 1388.5 1598.5Q1447 1657 1525.5 1691.0Q1604 1725 1693 1725Q1783 1725 1861.5 1691.5Q1940 1658 1998.5 1599.5Q2057 1541 2091.0 1462.5Q2125 1384 2125 1294Z" style="fill:#ffb900;stroke:none" transform="scale(1,-1) translate(0,-256)" /></svg>