<?xml version="1.0" encoding="utf-8" ?>
<svg baseProfile="full" height="256" version="1.1" width="256" xmlns="http://www.w3.org/2000/svg" xmlns:ev="http://www.w3.org/2001/xml-events" xmlns:xlink="http://www.w3.org/1999/xlink"><defs /><path d="M759 1006V1150H903V1006ZM1334 1006V1150H1478V1006ZM1909 719V863H2053V719ZM2197 1006V1150H2340V1006ZM1047 431V575H1190V431ZM2197 719V863H2340V719ZM2197 1438H2340V1294H2197ZM2197 431V575H2340V431ZM1047 719V863H1190V719ZM2197 144V288H2340V144ZM1047 -144V0H1190V-144ZM831 719 759 791V863H903V719Z" style="fill:#2b2b2b;stroke:none" transform="scale(1,-1) translate(0,-256)" /></svg>