<?xml version="1.0" encoding="utf-8" ?>
<svg baseProfile="full" height="256" version="1.1" width="256" xmlns="http://www.w3.org/2000/svg" xmlns:ev="http://www.w3.org/2001/xml-events" xmlns:xlink="http://www.w3.org/1999/xlink"><defs /><path d="M1801 755 2376 180 2304 108 2030 196Q1995 207 1960.5 216.0Q1926 225 1893 240Q1860 256 1829.5 276.5Q1799 297 1767 316L1514 467L1442 395L867 108H795V180L1083 755Q1083 755 1093.5 766.0Q1104 777 1116.5 789.5Q1129 802 1140.5 813.5Q1152 825 1154 827L1070 969Q1059 987 1047.5 1004.0Q1036 1021 1028 1040Q1007 1088 989.0 1136.0Q971 1184 951 1232L796 1616L867 1689L1442 1114L1801 1474Q1836 1446 1872.5 1420.0Q1909 1394 1946 1368Q1959 1359 1972.5 1350.0Q1986 1341 1997 1330Q2013 1314 2025.5 1295.0Q2038 1276 2052 1258L2161 1114Z" style="fill:#fce100;stroke:none" transform="scale(1,-1) translate(0,-256)" /></svg>