<?xml version="1.0" encoding="utf-8" ?>
<svg baseProfile="full" height="256" version="1.1" width="256" xmlns="http://www.w3.org/2000/svg" xmlns:ev="http://www.w3.org/2001/xml-events" xmlns:xlink="http://www.w3.org/1999/xlink"><defs /><path d="M1154 827Q1150 830 1138.5 841.0Q1127 852 1112.0 866.5Q1097 881 1080.0 897.5Q1063 914 1048.5 929.0Q1034 944 1024.0 955.0Q1014 966 1011 970Q982 1015 960.5 1064.5Q939 1114 915 1162L723 1545L795 1617L987 1234Q1011 1186 1032.5 1136.5Q1054 1087 1083 1042Q1085 1038 1095.5 1027.0Q1106 1016 1120.5 1001.0Q1135 986 1152.0 969.5Q1169 953 1184.0 938.5Q1199 924 1210.5 913.0Q1222 902 1226 899ZM1514 467 1586 539Q1591 533 1612.0 511.0Q1633 489 1657.0 464.5Q1681 440 1702.0 419.5Q1723 399 1729 395Q1774 366 1823.5 344.5Q1873 323 1921 299L2304 108L2233 36L1850 228Q1802 251 1752.0 272.5Q1702 294 1658 324Q1644 333 1632.5 346.5Q1621 360 1610 371ZM1046 395Q1061 395 1071.5 384.5Q1082 374 1082 359Q1082 344 1072 334L784 47Q773 36 759 36Q745 36 734.0 47.0Q723 58 723 72Q723 86 734 97L1021 385Q1031 395 1046 395Z" style="fill:#ffb900;stroke:none" transform="scale(1,-1) translate(0,-256)" /></svg>