<?xml version="1.0" encoding="utf-8" ?>
<svg baseProfile="full" height="256" version="1.1" width="256" xmlns="http://www.w3.org/2000/svg" xmlns:ev="http://www.w3.org/2001/xml-events" xmlns:xlink="http://www.w3.org/1999/xlink"><defs /><path d="M2005 755Q2149 610 2291.5 466.5Q2434 323 2580 180L2261 -139Q2087 -54 1917.0 34.5Q1747 123 1572 205L1509 268Q1482 257 1457.0 244.0Q1432 231 1406 218Q1369 200 1332.5 182.0Q1296 164 1261 144L1401 -136Q1321 -216 1241.5 -295.0Q1162 -374 1083 -455L734 -106Q704 -102 678.0 -88.5Q652 -75 632.0 -55.0Q612 -35 598.5 -9.0Q585 17 581 47L232 395L551 714L831 574Q848 611 866.5 647.0Q885 683 903 720Q916 746 928.0 772.0Q940 798 956 822Q940 838 923.0 853.0Q906 868 892 885L882 906Q801 1075 717.0 1240.5Q633 1406 548 1574Q628 1654 707.5 1733.5Q787 1813 865 1894Q1011 1751 1154.5 1607.0Q1298 1463 1442 1317L1742 1617H1933L2005 1545Q2053 1545 2094.5 1529.5Q2136 1514 2166.5 1485.5Q2197 1457 2214.5 1417.0Q2232 1377 2232 1328V1318L2304 1246V1055Z" style="fill:#000000;stroke:none" transform="scale(1,-1) translate(0,-256)" /></svg>