<?xml version="1.0" encoding="utf-8" ?>
<svg baseProfile="full" height="256" version="1.1" width="256" xmlns="http://www.w3.org/2000/svg" xmlns:ev="http://www.w3.org/2001/xml-events" xmlns:xlink="http://www.w3.org/1999/xlink"><defs /><path d="M579 719H436Q421 719 410.5 729.5Q400 740 400 755Q400 770 410.5 780.5Q421 791 436 791H557L655 987Q660 996 668.5 1001.0Q677 1006 687 1006H867Q881 1006 892.0 995.5Q903 985 903 971Q903 956 892.5 945.5Q882 935 867 935H709L612 739Q607 730 598.0 724.5Q589 719 579 719ZM508 -287Q494 -287 482.5 -277.0Q471 -267 471 -252Q471 -242 476.5 -233.0Q482 -224 491 -219L609 -161Q605 -148 594.5 -113.5Q584 -79 572.5 -40.5Q561 -2 552.0 30.5Q543 63 543 72Q543 86 554 97L806 349Q816 359 831 359Q846 359 856.0 348.5Q866 338 866 323Q866 308 856 298L620 62Q622 54 628.0 34.5Q634 15 641.5 -10.5Q649 -36 657.0 -63.5Q665 -91 671.5 -115.5Q678 -140 682.5 -157.5Q687 -175 687 -180Q687 -202 667 -212Q656 -217 633.5 -229.5Q611 -242 586.5 -255.0Q562 -268 539.5 -277.5Q517 -287 508 -287ZM1226 1510Q1211 1510 1201 1520L1057 1664Q1046 1675 1046 1689Q1046 1704 1057.0 1714.5Q1068 1725 1082 1725Q1098 1725 1108 1715L1252 1571Q1262 1561 1262 1545Q1262 1530 1251.5 1520.0Q1241 1510 1226 1510ZM1586 1510Q1571 1510 1560.0 1520.0Q1549 1530 1549 1545Q1549 1560 1560 1571L1704 1715Q1714 1725 1729 1725Q1744 1725 1754.5 1714.5Q1765 1704 1765 1689Q1765 1674 1755 1664L1611 1520Q1601 1510 1586 1510ZM1047 1042Q1041 1042 1031 1046L671 1226Q655 1233 652 1249Q649 1260 643.0 1281.5Q637 1303 631.0 1326.5Q625 1350 620.0 1371.0Q615 1392 615 1401Q615 1416 625.5 1427.0Q636 1438 651 1438Q664 1438 673.5 1430.0Q683 1422 686 1410L718 1283L1063 1110Q1083 1100 1083 1078Q1083 1064 1072.0 1053.0Q1061 1042 1047 1042ZM2376 719H2233Q2210 719 2200 739L2102 935H1945Q1930 935 1919.5 945.5Q1909 956 1909 971Q1909 985 1920.0 995.5Q1931 1006 1945 1006H2125Q2147 1006 2157 987L2255 791H2376Q2391 791 2401.5 780.5Q2412 770 2412 755Q2412 740 2401.5 729.5Q2391 719 2376 719ZM2304 -287Q2295 -287 2272.5 -277.5Q2250 -268 2225.5 -255.0Q2201 -242 2178.0 -229.5Q2155 -217 2145 -212Q2125 -202 2125 -180Q2125 -175 2129.5 -157.5Q2134 -140 2140.5 -115.5Q2147 -91 2155.0 -63.5Q2163 -36 2170.5 -10.5Q2178 15 2184.0 34.5Q2190 54 2192 62L1956 298Q1945 309 1945 323Q1945 338 1955.5 348.5Q1966 359 1981 359Q1996 359 2006 349L2258 97Q2269 86 2269 72Q2269 63 2260.0 30.5Q2251 -2 2239.5 -40.5Q2228 -79 2217.5 -113.5Q2207 -148 2203 -161L2320 -219Q2340 -229 2340 -252Q2340 -267 2329.0 -277.0Q2318 -287 2304 -287ZM1765 1042Q1751 1042 1740.0 1053.0Q1729 1064 1729 1078Q1729 1100 1749 1110L2094 1283L2126 1410Q2129 1422 2138.5 1430.0Q2148 1438 2161 1438Q2176 1438 2186.5 1427.0Q2197 1416 2197 1401Q2197 1393 2192.0 1372.0Q2187 1351 2180.5 1327.0Q2174 1303 2168.0 1281.0Q2162 1259 2160 1249Q2157 1233 2141 1226L1781 1046Q1771 1042 1765 1042Z" style="fill:#757575;stroke:none" transform="scale(1,-1) translate(0,-256)" /></svg>