<?xml version="1.0" encoding="utf-8" ?>
<svg baseProfile="full" height="256" version="1.1" width="256" xmlns="http://www.w3.org/2000/svg" xmlns:ev="http://www.w3.org/2001/xml-events" xmlns:xlink="http://www.w3.org/1999/xlink"><defs /><path d="M1478 1211V-283Q1460 -285 1442.0 -286.0Q1424 -287 1406 -287Q1388 -287 1370.0 -286.0Q1352 -285 1334 -283V1211ZM1693 503Q1693 534 1702.5 566.0Q1712 598 1730.5 624.0Q1749 650 1775.5 666.5Q1802 683 1837 683Q1872 683 1899.0 666.5Q1926 650 1944.0 624.0Q1962 598 1971.5 566.0Q1981 534 1981 503Q1981 472 1971.5 440.5Q1962 409 1943.5 383.0Q1925 357 1898.0 340.5Q1871 324 1837 324Q1802 324 1775.5 340.5Q1749 357 1730.5 383.0Q1712 409 1702.5 440.5Q1693 472 1693 503ZM1118 503Q1118 473 1108.5 441.0Q1099 409 1081.0 383.0Q1063 357 1036.0 340.5Q1009 324 975 324Q940 324 913.5 340.5Q887 357 868.5 383.0Q850 409 840.5 440.5Q831 472 831 503Q831 534 840.5 566.0Q850 598 868.0 624.0Q886 650 913.0 666.5Q940 683 975 683Q1009 683 1036.0 666.5Q1063 650 1081.0 624.0Q1099 598 1108.5 566.0Q1118 534 1118 503ZM1190 1Q1190 -31 1170.0 -51.5Q1150 -72 1118 -72Q1092 -72 1066.0 -59.5Q1040 -47 1020.0 -27.0Q1000 -7 987.5 18.5Q975 44 975 71Q975 103 995.0 123.5Q1015 144 1047 144Q1073 144 1098.5 131.5Q1124 119 1144.5 99.0Q1165 79 1177.5 53.5Q1190 28 1190 1ZM1622 1Q1622 28 1634.5 53.5Q1647 79 1667.0 99.0Q1687 119 1713.0 131.5Q1739 144 1765 144Q1797 144 1817.0 124.0Q1837 104 1837 71Q1837 45 1824.5 19.0Q1812 -7 1792.0 -27.0Q1772 -47 1746.5 -59.5Q1721 -72 1694 -72Q1662 -72 1642.0 -51.5Q1622 -31 1622 1ZM1622 935Q1622 964 1643.0 985.0Q1664 1006 1693 1006Q1722 1006 1743.5 985.0Q1765 964 1765 935Q1765 905 1744.0 884.0Q1723 863 1693 863Q1664 863 1643.0 884.5Q1622 906 1622 935ZM1190 935Q1190 905 1169.0 884.0Q1148 863 1118 863Q1089 863 1068.0 884.5Q1047 906 1047 935Q1047 964 1068.0 985.0Q1089 1006 1118 1006Q1147 1006 1168.5 985.0Q1190 964 1190 935Z" style="fill:#2b2b2b;stroke:none" transform="scale(1,-1) translate(0,-256)" /></svg>