<?xml version="1.0" encoding="utf-8" ?>
<svg baseProfile="full" height="256" version="1.1" width="256" xmlns="http://www.w3.org/2000/svg" xmlns:ev="http://www.w3.org/2001/xml-events" xmlns:xlink="http://www.w3.org/1999/xlink"><defs /><path d="M1837 1222Q1837 1193 1815.5 1171.5Q1794 1150 1765 1150H1047Q1018 1150 996.5 1171.5Q975 1193 975 1222Q975 1264 984.0 1305.5Q993 1347 1012 1385Q1035 1430 1069.5 1466.0Q1104 1502 1146.0 1527.5Q1188 1553 1236.0 1567.0Q1284 1581 1334 1581H1478Q1552 1581 1617.5 1552.5Q1683 1524 1731.5 1475.5Q1780 1427 1808.5 1361.5Q1837 1296 1837 1222Z" style="fill:#383838;stroke:none" transform="scale(1,-1) translate(0,-256)" /></svg>