<?xml version="1.0" encoding="utf-8" ?>
<svg baseProfile="full" height="256" version="1.1" width="256" xmlns="http://www.w3.org/2000/svg" xmlns:ev="http://www.w3.org/2001/xml-events" xmlns:xlink="http://www.w3.org/1999/xlink"><defs /><path d="M1202 1474Q1229 1474 1245.5 1456.5Q1262 1439 1262 1413Q1262 1391 1251.5 1369.5Q1241 1348 1224.5 1331.5Q1208 1315 1186.5 1304.5Q1165 1294 1143 1294Q1116 1294 1099.0 1310.5Q1082 1327 1082 1355Q1082 1377 1092.5 1398.0Q1103 1419 1120.0 1436.0Q1137 1453 1158.5 1463.5Q1180 1474 1202 1474ZM1610 1474Q1632 1474 1653.0 1463.5Q1674 1453 1691.0 1436.5Q1708 1420 1718.5 1398.5Q1729 1377 1729 1355Q1729 1327 1712.5 1310.5Q1696 1294 1669 1294Q1647 1294 1625.5 1304.5Q1604 1315 1587.5 1332.0Q1571 1349 1560.5 1370.0Q1550 1391 1550 1413Q1550 1440 1566.0 1457.0Q1582 1474 1610 1474Z" style="fill:#cccccc;stroke:none" transform="scale(1,-1) translate(0,-256)" /></svg>