<?xml version="1.0" encoding="utf-8" ?>
<svg baseProfile="full" height="256" version="1.1" width="256" xmlns="http://www.w3.org/2000/svg" xmlns:ev="http://www.w3.org/2001/xml-events" xmlns:xlink="http://www.w3.org/1999/xlink"><defs /><path d="M2304 -431Q2264 -431 2224 -412L2080 -340Q2036 -318 2009.5 -277.5Q1983 -237 1981 -188Q1864 -303 1717.5 -367.0Q1571 -431 1406 -431Q1241 -431 1094.0 -367.0Q947 -303 831 -188Q829 -238 802.5 -277.5Q776 -317 731 -340L588 -412Q550 -431 508 -431Q471 -431 438.0 -417.0Q405 -403 380.5 -378.5Q356 -354 342.0 -321.5Q328 -289 328 -251Q328 -197 354.5 -157.0Q381 -117 427 -91L437 -85Q426 -47 413.0 -7.0Q400 33 400 73Q400 109 413.5 141.0Q427 173 453 199L565 311Q554 363 548.5 414.5Q543 466 543 519Q543 533 543.5 545.5Q544 558 545 572Q545 572 543.5 572.5Q542 573 531.5 573.5Q521 574 499.0 574.5Q477 575 436 575Q399 575 366.0 589.0Q333 603 308.5 627.5Q284 652 270.0 685.0Q256 718 256 755Q256 792 270.0 825.0Q284 858 308.5 882.5Q333 907 366.0 921.0Q399 935 436 935H468Q479 957 490.0 982.0Q501 1007 514.0 1031.0Q527 1055 542.5 1076.5Q558 1098 579 1114Q554 1133 537.5 1159.0Q521 1185 513 1215L477 1358Q471 1380 471 1403Q471 1440 485.5 1472.5Q500 1505 524.5 1529.0Q549 1553 581.5 1567.0Q614 1581 651 1581Q682 1581 710.0 1571.0Q738 1561 761.5 1543.0Q785 1525 801.5 1500.0Q818 1475 826 1445L841 1382L855 1375Q861 1397 870 1416Q887 1456 908.5 1491.5Q930 1527 959 1558Q932 1584 917.0 1617.5Q902 1651 902 1689Q902 1726 916.5 1759.0Q931 1792 955.5 1816.5Q980 1841 1013.0 1855.0Q1046 1869 1083 1869Q1120 1869 1150.0 1855.5Q1180 1842 1205.5 1820.5Q1231 1799 1254.5 1773.5Q1278 1748 1302 1724Q1335 1727 1370 1727Q1397 1727 1424.0 1726.0Q1451 1725 1478 1725Q1486 1725 1494.0 1725.0Q1502 1725 1510 1724L1602 1816Q1655 1869 1729 1869Q1766 1869 1799.0 1855.0Q1832 1841 1856.5 1816.5Q1881 1792 1895.0 1759.0Q1909 1726 1909 1689Q1909 1651 1894.0 1618.0Q1879 1585 1852 1558Q1926 1477 1957 1375L1970 1382L1986 1445Q1994 1475 2010.5 1500.0Q2027 1525 2050.0 1543.0Q2073 1561 2101.5 1571.0Q2130 1581 2161 1581Q2198 1581 2231.0 1567.0Q2264 1553 2288.5 1528.5Q2313 1504 2327.0 1471.5Q2341 1439 2341 1402Q2341 1379 2335 1358L2299 1214Q2291 1184 2274.0 1158.5Q2257 1133 2233 1114Q2252 1099 2268.0 1077.0Q2284 1055 2297.0 1030.5Q2310 1006 2321.5 981.0Q2333 956 2344 935H2376Q2413 935 2446.0 921.0Q2479 907 2503.5 882.5Q2528 858 2542.0 825.0Q2556 792 2556 755Q2556 718 2542.0 685.0Q2528 652 2503.5 627.5Q2479 603 2446.0 589.0Q2413 575 2376 575H2267Q2268 561 2268.0 548.0Q2268 535 2268 521Q2268 414 2247 311L2360 199Q2385 174 2398.5 141.0Q2412 108 2412 73Q2412 33 2398.5 -7.0Q2385 -47 2374 -85Q2425 -113 2454.5 -152.5Q2484 -192 2484 -252Q2484 -289 2470.0 -321.5Q2456 -354 2431.5 -378.5Q2407 -403 2374.0 -417.0Q2341 -431 2304 -431Z" style="fill:#000000;stroke:none" transform="scale(1,-1) translate(0,-256)" /></svg>