<?xml version="1.0" encoding="utf-8" ?>
<svg baseProfile="full" height="256" version="1.1" width="256" xmlns="http://www.w3.org/2000/svg" xmlns:ev="http://www.w3.org/2001/xml-events" xmlns:xlink="http://www.w3.org/1999/xlink"><defs /><path d="M2125 521Q2125 426 2104.5 333.0Q2084 240 2045.5 154.0Q2007 68 1950.5 -6.5Q1894 -81 1822.0 -139.0Q1750 -197 1663.5 -234.5Q1577 -272 1478 -283Q1469 -259 1451.0 -242.0Q1433 -225 1406 -225Q1380 -225 1361.5 -242.5Q1343 -260 1334 -283Q1235 -272 1148.5 -234.5Q1062 -197 990.0 -139.0Q918 -81 861.5 -6.5Q805 68 766.5 154.0Q728 240 707.5 333.0Q687 426 687 521Q687 622 710.5 721.5Q734 821 777.5 911.0Q821 1001 884.5 1077.5Q948 1154 1027.5 1210.0Q1107 1266 1202.5 1298.0Q1298 1330 1406 1330Q1514 1330 1609.5 1298.0Q1705 1266 1784.5 1210.0Q1864 1154 1927.5 1077.5Q1991 1001 2034.5 911.0Q2078 821 2101.5 721.5Q2125 622 2125 521Z" style="fill:#f03a17;stroke:none" transform="scale(1,-1) translate(0,-256)" /></svg>