<?xml version="1.0" encoding="utf-8" ?>
<svg baseProfile="full" height="256" version="1.1" width="256" xmlns="http://www.w3.org/2000/svg" xmlns:ev="http://www.w3.org/2001/xml-events" xmlns:xlink="http://www.w3.org/1999/xlink"><defs /><path d="M1118 1150Q1118 1176 1132.0 1196.0Q1146 1216 1167.5 1230.0Q1189 1244 1214.0 1251.0Q1239 1258 1262 1258Q1284 1258 1309.5 1251.0Q1335 1244 1356.5 1230.0Q1378 1216 1392.0 1196.0Q1406 1176 1406 1150Q1406 1124 1392.0 1104.0Q1378 1084 1356.5 1070.0Q1335 1056 1309.5 1049.0Q1284 1042 1262 1042Q1239 1042 1214.0 1049.0Q1189 1056 1167.5 1070.0Q1146 1084 1132.0 1104.0Q1118 1124 1118 1150Z" style="fill:#af0d1a;stroke:none" transform="scale(1,-1) translate(0,-256)" /></svg>