<?xml version="1.0" encoding="utf-8" ?>
<svg baseProfile="full" height="256" version="1.1" width="256" xmlns="http://www.w3.org/2000/svg" xmlns:ev="http://www.w3.org/2001/xml-events" xmlns:xlink="http://www.w3.org/1999/xlink"><defs /><path d="M1837 791Q1837 821 1848.5 847.0Q1860 873 1879.5 892.5Q1899 912 1925.0 923.5Q1951 935 1981 935Q2010 935 2031.5 913.5Q2053 892 2053 863Q2053 833 2041.5 806.5Q2030 780 2010.5 760.5Q1991 741 1965.0 730.0Q1939 719 1909 719Q1879 719 1858.0 740.0Q1837 761 1837 791ZM1586 396Q1586 426 1597.0 452.0Q1608 478 1627.5 497.5Q1647 517 1673.0 528.0Q1699 539 1729 539Q1759 539 1780.0 518.0Q1801 497 1801 467Q1801 437 1790.0 411.0Q1779 385 1759.5 365.5Q1740 346 1714.0 335.0Q1688 324 1658 324Q1628 324 1607.0 345.0Q1586 366 1586 396ZM1334 0Q1334 30 1345.0 56.0Q1356 82 1375.5 101.5Q1395 121 1421.5 132.5Q1448 144 1478 144Q1508 144 1529.0 123.0Q1550 102 1550 72Q1550 42 1538.5 16.0Q1527 -10 1507.5 -29.5Q1488 -49 1462.0 -60.5Q1436 -72 1406 -72Q1376 -72 1355.0 -51.0Q1334 -30 1334 0Z" style="fill:#1f1f1f;stroke:none" transform="scale(1,-1) translate(0,-256)" /></svg>