<?xml version="1.0" encoding="utf-8" ?>
<svg baseProfile="full" height="256" version="1.1" width="256" xmlns="http://www.w3.org/2000/svg" xmlns:ev="http://www.w3.org/2001/xml-events" xmlns:xlink="http://www.w3.org/1999/xlink"><defs /><path d="M759 647Q759 617 738.0 596.0Q717 575 687 575Q657 575 631.0 586.5Q605 598 585.5 617.5Q566 637 554.5 663.0Q543 689 543 719Q543 748 564.5 769.5Q586 791 615 791Q645 791 671.0 779.5Q697 768 716.5 748.5Q736 729 747.5 703.0Q759 677 759 647ZM1118 144Q1118 115 1097.0 93.5Q1076 72 1047 72Q1017 72 990.5 83.0Q964 94 944.5 113.5Q925 133 914.0 159.5Q903 186 903 216Q903 246 924.0 267.0Q945 288 975 288Q1005 288 1031.0 276.5Q1057 265 1076.5 245.5Q1096 226 1107.0 200.0Q1118 174 1118 144Z" style="fill:#2b2b2b;stroke:none" transform="scale(1,-1) translate(0,-256)" /></svg>