<?xml version="1.0" encoding="utf-8" ?>
<svg baseProfile="full" height="256" version="1.1" width="256" xmlns="http://www.w3.org/2000/svg" xmlns:ev="http://www.w3.org/2001/xml-events" xmlns:xlink="http://www.w3.org/1999/xlink"><defs /><path d="M1122 495V1036H955Q915 1036 876.0 1034.5Q837 1033 797 1031Q777 1030 758.5 1028.0Q740 1026 720 1026Q708 1026 701.5 1040.0Q695 1054 692.0 1074.0Q689 1094 688.5 1115.5Q688 1137 688 1151V1222Q754 1217 818.5 1215.5Q883 1214 949 1214H1028Q1093 1214 1157.5 1216.0Q1222 1218 1287 1218Q1303 1218 1307.0 1210.5Q1311 1203 1311 1189Q1311 1124 1309.0 1060.5Q1307 997 1307 932V541Q1307 466 1310.0 391.5Q1313 317 1313 242Q1313 232 1302.5 226.0Q1292 220 1276.5 217.0Q1261 214 1242.0 213.0Q1223 212 1207 212Q1194 212 1183.5 212.5Q1173 213 1168 213Q1137 213 1128.5 228.5Q1120 244 1120 267Q1120 278 1121.0 291.0Q1122 304 1122 317H963Q898 317 834.5 313.5Q771 310 706 310Q693 310 689.5 317.0Q686 324 684 335Q678 365 676.5 395.5Q675 426 675 457V502Q743 497 810.5 496.0Q878 495 947 495ZM1904 495V1036H1737Q1698 1036 1658.5 1034.5Q1619 1033 1580 1031Q1560 1030 1541.5 1028.0Q1523 1026 1503 1026Q1491 1026 1484.5 1039.5Q1478 1053 1474.5 1072.0Q1471 1091 1470.5 1109.5Q1470 1128 1470 1139V1222Q1536 1217 1600.5 1215.5Q1665 1214 1731 1214H1811Q1876 1214 1940.0 1216.0Q2004 1218 2069 1218Q2085 1218 2089.0 1210.5Q2093 1203 2093 1189Q2093 1124 2091.0 1060.5Q2089 997 2089 932V541Q2089 466 2092.0 391.5Q2095 317 2095 242Q2095 232 2087.5 226.5Q2080 221 2070.0 218.5Q2060 216 2049.5 215.5Q2039 215 2032 215H1948Q1918 215 1910.5 224.0Q1903 233 1903 262V317H1745Q1680 317 1616.5 313.5Q1553 310 1488 310Q1475 310 1471.5 317.0Q1468 324 1466 335Q1460 365 1458.5 395.5Q1457 426 1457 457V502Q1525 497 1592.5 496.0Q1660 495 1728 495Z" style="fill:#ffffff;stroke:none" transform="scale(1,-1) translate(0,-256)" /></svg>