<?xml version="1.0" encoding="utf-8" ?>
<svg baseProfile="full" height="256" version="1.1" width="256" xmlns="http://www.w3.org/2000/svg" xmlns:ev="http://www.w3.org/2001/xml-events" xmlns:xlink="http://www.w3.org/1999/xlink"><defs /><path d="M2087 180 1912 281 1955 108 1816 72 1739 381 1504 517Q1448 461 1369 441V174L1614 -72L1513 -173L1369 -30V-287H1225V-30L1082 -173L980 -72L1225 174V442Q1188 453 1154.0 472.0Q1120 491 1094 519L856 381L778 72L639 108L682 281L507 179L435 304L608 404L435 447L471 586L787 507L1023 644Q1012 682 1012 719Q1012 756 1023 794L787 931L471 851L435 991L608 1034L434 1134L506 1259L682 1157L639 1330L778 1366L856 1057L1094 919Q1120 947 1154.0 966.0Q1188 985 1225 996V1264L980 1510L1082 1611L1225 1467V1725H1369V1467L1513 1611L1614 1510L1369 1264V997Q1448 977 1504 921L1739 1057L1816 1366L1955 1330L1912 1157L2088 1258L2160 1134L1987 1034L2160 991L2124 851L1808 931L1575 796Q1580 777 1583.5 758.0Q1587 739 1587 719Q1587 699 1583.5 680.0Q1580 661 1575 642L1808 507L2124 586L2160 447L1987 404L2160 304ZM1300 575Q1330 575 1356.0 586.5Q1382 598 1401.5 617.5Q1421 637 1432.0 663.0Q1443 689 1443 719Q1443 749 1432.0 775.0Q1421 801 1401.5 820.5Q1382 840 1356.0 851.5Q1330 863 1300 863Q1270 863 1244.0 851.5Q1218 840 1198.5 820.5Q1179 801 1167.5 775.0Q1156 749 1156 719Q1156 689 1167.5 663.0Q1179 637 1198.5 617.5Q1218 598 1244.0 586.5Q1270 575 1300 575Z" style="fill:#69eaff;stroke:none" transform="scale(1,-1) translate(0,-256)" /></svg>