<?xml version="1.0" encoding="utf-8" ?>
<svg baseProfile="full" height="256" version="1.1" width="256" xmlns="http://www.w3.org/2000/svg" xmlns:ev="http://www.w3.org/2001/xml-events" xmlns:xlink="http://www.w3.org/1999/xlink"><defs /><path d="M2089 1653Q2111 1653 2130.5 1644.5Q2150 1636 2165.0 1621.5Q2180 1607 2188.5 1587.5Q2197 1568 2197 1546Q2197 1524 2188.5 1504.5Q2180 1485 2165.0 1470.0Q2150 1455 2130.5 1446.5Q2111 1438 2089 1438Q2066 1438 2046.5 1446.5Q2027 1455 2012.5 1469.5Q1998 1484 1989.5 1503.5Q1981 1523 1981 1546Q1981 1568 1989.5 1588.0Q1998 1608 2013.0 1622.0Q2028 1636 2047.5 1644.5Q2067 1653 2089 1653ZM1406 1294Q1376 1294 1350.0 1305.5Q1324 1317 1304.5 1336.5Q1285 1356 1273.5 1382.0Q1262 1408 1262 1438Q1262 1468 1273.5 1494.0Q1285 1520 1304.5 1539.5Q1324 1559 1350.0 1570.0Q1376 1581 1406 1581Q1436 1581 1462.0 1570.0Q1488 1559 1507.5 1539.5Q1527 1520 1538.5 1494.0Q1550 1468 1550 1438Q1550 1408 1538.5 1382.0Q1527 1356 1507.5 1336.5Q1488 1317 1462.0 1305.5Q1436 1294 1406 1294ZM723 1653Q745 1653 764.5 1644.5Q784 1636 799.0 1622.0Q814 1608 822.5 1588.0Q831 1568 831 1546Q831 1523 822.5 1503.5Q814 1484 799.5 1469.5Q785 1455 765.0 1446.5Q745 1438 723 1438Q701 1438 681.5 1446.5Q662 1455 647.0 1470.0Q632 1485 623.5 1504.5Q615 1524 615 1546Q615 1568 623.5 1587.5Q632 1607 647.0 1621.5Q662 1636 681.5 1644.5Q701 1653 723 1653ZM1406 72Q1451 72 1490.0 55.0Q1529 38 1558.5 8.5Q1588 -21 1605.0 -60.0Q1622 -99 1622 -144Q1622 -147 1618.0 -162.0Q1614 -177 1608.5 -195.0Q1603 -213 1598.0 -229.5Q1593 -246 1592 -253L1250 -244L1190 -144Q1190 -99 1207.0 -60.0Q1224 -21 1253.5 8.5Q1283 38 1322.0 55.0Q1361 72 1406 72Z" style="fill:#ffc83d;stroke:none" transform="scale(1,-1) translate(0,-256)" /></svg>