<?xml version="1.0" encoding="utf-8" ?>
<svg baseProfile="full" height="256" version="1.1" width="256" xmlns="http://www.w3.org/2000/svg" xmlns:ev="http://www.w3.org/2001/xml-events" xmlns:xlink="http://www.w3.org/1999/xlink"><defs /><path d="M1765 719H2412V683Q2412 616 2386.5 557.5Q2361 499 2317.0 455.0Q2273 411 2214.5 385.5Q2156 360 2089 360Q2022 360 1963.0 385.5Q1904 411 1860.0 454.5Q1816 498 1790.5 557.0Q1765 616 1765 683ZM1047 719V683Q1047 616 1021.5 557.0Q996 498 952.0 454.5Q908 411 849.0 385.5Q790 360 723 360Q656 360 597.5 385.5Q539 411 495.0 455.0Q451 499 425.5 557.5Q400 616 400 683V719ZM1406 -72Q1436 -72 1457.0 -93.0Q1478 -114 1478 -144H1837V-287H975V-144H1334Q1334 -114 1355.0 -93.0Q1376 -72 1406 -72ZM1406 1366Q1376 1366 1355.0 1387.0Q1334 1408 1334 1438Q1334 1467 1355.5 1488.5Q1377 1510 1406 1510Q1435 1510 1456.5 1488.5Q1478 1467 1478 1438Q1478 1408 1457.0 1387.0Q1436 1366 1406 1366ZM723 1510Q708 1510 697.5 1520.5Q687 1531 687 1546Q687 1560 698.0 1570.5Q709 1581 723 1581Q737 1581 748.0 1570.5Q759 1560 759 1546Q759 1531 748.5 1520.5Q738 1510 723 1510ZM2089 1510Q2074 1510 2063.5 1520.5Q2053 1531 2053 1546Q2053 1560 2064.0 1570.5Q2075 1581 2089 1581Q2103 1581 2114.0 1570.5Q2125 1560 2125 1546Q2125 1531 2114.5 1520.5Q2104 1510 2089 1510Z" style="fill:#ffb900;stroke:none" transform="scale(1,-1) translate(0,-256)" /></svg>