<?xml version="1.0" encoding="utf-8" ?>
<svg baseProfile="full" height="256" version="1.1" width="256" xmlns="http://www.w3.org/2000/svg" xmlns:ev="http://www.w3.org/2001/xml-events" xmlns:xlink="http://www.w3.org/1999/xlink"><defs /><path d="M1909 1581H2053V1510H1622Q1593 1510 1571.5 1488.5Q1550 1467 1550 1438H1478V-72H1334Q1332 13 1332.0 97.0Q1332 181 1332 266V492Q1332 730 1332.0 965.0Q1332 1200 1333 1438H1262Q1262 1467 1240.5 1488.5Q1219 1510 1190 1510H759V1581H1190Q1228 1581 1260.5 1562.5Q1293 1544 1313 1512H1334V1725H1478V1512H1498Q1518 1544 1551.0 1562.5Q1584 1581 1622 1581Z" style="fill:#cccccc;stroke:none" transform="scale(1,-1) translate(0,-256)" /></svg>