<?xml version="1.0" encoding="utf-8" ?>
<svg baseProfile="full" height="256" version="1.1" width="256" xmlns="http://www.w3.org/2000/svg" xmlns:ev="http://www.w3.org/2001/xml-events" xmlns:xlink="http://www.w3.org/1999/xlink"><defs /><path d="M1262 1869Q1366 1869 1457.5 1829.5Q1549 1790 1617.5 1721.5Q1686 1653 1725.5 1561.5Q1765 1470 1765 1366V324Q1765 220 1738.0 123.5Q1711 27 1662.0 -57.0Q1613 -141 1544.0 -209.5Q1475 -278 1391.5 -327.5Q1308 -377 1211.5 -404.0Q1115 -431 1011 -431Q907 -431 810.5 -404.0Q714 -377 630.0 -327.5Q546 -278 477.5 -209.5Q409 -141 359.5 -57.0Q310 27 283.0 123.5Q256 220 256 324V1366Q256 1470 295.5 1561.5Q335 1653 403.5 1721.5Q472 1790 563.5 1829.5Q655 1869 759 1869Z" style="fill:#000000;stroke:none" transform="scale(1,-1) translate(0,-256)" /></svg>