<?xml version="1.0" encoding="utf-8" ?>
<svg baseProfile="full" height="256" version="1.1" width="256" xmlns="http://www.w3.org/2000/svg" xmlns:ev="http://www.w3.org/2001/xml-events" xmlns:xlink="http://www.w3.org/1999/xlink"><defs /><path d="M1011 -287Q884 -287 773.0 -239.0Q662 -191 579.0 -108.0Q496 -25 448.0 86.0Q400 197 400 324V1366Q400 1440 428.0 1505.5Q456 1571 505.0 1619.5Q554 1668 619.5 1696.5Q685 1725 759 1725H903L1011 1641L1118 1725H1262Q1336 1725 1401.5 1697.0Q1467 1669 1516.0 1620.0Q1565 1571 1593.5 1506.0Q1622 1441 1622 1366V324Q1622 198 1574.0 86.5Q1526 -25 1443.0 -108.0Q1360 -191 1248.5 -239.0Q1137 -287 1011 -287Z" style="fill:#cccccc;stroke:none" transform="scale(1,-1) translate(0,-256)" /></svg>