<?xml version="1.0" encoding="utf-8" ?>
<svg baseProfile="full" height="256" version="1.1" width="256" xmlns="http://www.w3.org/2000/svg" xmlns:ev="http://www.w3.org/2001/xml-events" xmlns:xlink="http://www.w3.org/1999/xlink"><defs /><path d="M1550 1725Q1596 1701 1635.5 1674.5Q1675 1648 1703.5 1614.0Q1732 1580 1748.5 1537.0Q1765 1494 1765 1438V1146Q1798 1157 1834.0 1170.5Q1870 1184 1906.5 1195.5Q1943 1207 1979.5 1214.5Q2016 1222 2052 1222Q2110 1222 2165.5 1203.5Q2221 1185 2268 1150L2197 935H2412Q2412 873 2397.0 809.0Q2382 745 2351.0 688.5Q2320 632 2274.0 588.0Q2228 544 2166 522Q2123 506 2079.5 492.0Q2036 478 1992 464Q2037 403 2069.5 361.5Q2102 320 2124.5 287.0Q2147 254 2161.5 223.5Q2176 193 2183.5 154.0Q2191 115 2194.0 61.5Q2197 8 2197 -72H1981V-287H1837Q1750 -287 1676.0 -250.0Q1602 -213 1550 -144L1406 48L1262 -144Q1210 -213 1135.5 -250.0Q1061 -287 974 -287H831V-72H615V-3Q615 37 617.0 75.0Q619 113 626.5 149.5Q634 186 648.0 220.5Q662 255 687 288L819 464Q775 478 731.5 492.0Q688 506 645 522Q583 544 537.5 588.0Q492 632 461.0 688.5Q430 745 415.0 809.0Q400 873 400 935H615L544 1150Q591 1185 646.0 1203.5Q701 1222 759 1222Q796 1222 832.5 1215.0Q869 1208 905.0 1196.5Q941 1185 976.0 1171.5Q1011 1158 1046 1146V1438Q1046 1494 1062.5 1537.5Q1079 1581 1107.5 1615.0Q1136 1649 1175.5 1675.5Q1215 1702 1262 1725L1406 1510Z" style="fill:#ffb900;stroke:none" transform="scale(1,-1) translate(0,-256)" /></svg>