<?xml version="1.0" encoding="utf-8" ?>
<svg baseProfile="full" height="256" version="1.1" width="256" xmlns="http://www.w3.org/2000/svg" xmlns:ev="http://www.w3.org/2001/xml-events" xmlns:xlink="http://www.w3.org/1999/xlink"><defs /><path d="M1406 719Q1376 719 1355.0 740.0Q1334 761 1334 791Q1334 821 1355.0 842.0Q1376 863 1406 863Q1436 863 1457.0 842.0Q1478 821 1478 791Q1478 761 1457.0 740.0Q1436 719 1406 719ZM1550 719Q1579 719 1600.5 697.5Q1622 676 1622 647Q1622 618 1600.5 596.5Q1579 575 1550 575Q1520 575 1499.0 596.0Q1478 617 1478 647Q1478 677 1499.0 698.0Q1520 719 1550 719ZM1262 719Q1292 719 1313.0 698.0Q1334 677 1334 647Q1334 617 1313.0 596.0Q1292 575 1262 575Q1232 575 1211.0 596.0Q1190 617 1190 647Q1190 677 1211.0 698.0Q1232 719 1262 719ZM1406 575Q1436 575 1457.0 554.0Q1478 533 1478 503Q1478 474 1456.5 452.5Q1435 431 1406 431Q1377 431 1355.5 452.5Q1334 474 1334 503Q1334 533 1355.0 554.0Q1376 575 1406 575Z" style="fill:#ee3f86;stroke:none" transform="scale(1,-1) translate(0,-256)" /></svg>