<?xml version="1.0" encoding="utf-8" ?>
<svg baseProfile="full" height="256" version="1.1" width="256" xmlns="http://www.w3.org/2000/svg" xmlns:ev="http://www.w3.org/2001/xml-events" xmlns:xlink="http://www.w3.org/1999/xlink"><defs /><path d="M1837 -431Q1779 -431 1722.0 -417.5Q1665 -404 1613 -378Q1565 -404 1512.5 -417.5Q1460 -431 1406 -431Q1352 -431 1299.5 -417.5Q1247 -404 1199 -378Q1147 -404 1090.0 -417.5Q1033 -431 974 -431H687V-215H473Q472 -166 471.0 -117.0Q470 -68 470 -19Q470 8 470.5 35.0Q471 62 473 89Q403 146 365.5 225.5Q328 305 328 396Q328 441 338.0 484.0Q348 527 367 568Q326 627 304.0 684.5Q282 742 271.0 800.5Q260 859 258.0 920.5Q256 982 256 1049V1078H416L374 1203Q416 1235 458.0 1265.5Q500 1296 548 1319Q560 1391 595.0 1452.5Q630 1514 682.0 1558.5Q734 1603 799.5 1628.0Q865 1653 939 1653H959Q987 1699 1025.5 1735.5Q1064 1772 1107.5 1801.5Q1151 1831 1198.5 1855.5Q1246 1880 1294 1903L1311 1911L1406 1769L1500 1911Q1549 1886 1599.0 1861.0Q1649 1836 1695.0 1806.0Q1741 1776 1781.5 1739.0Q1822 1702 1852 1653H1873Q1946 1653 2012.5 1628.0Q2079 1603 2131.0 1558.5Q2183 1514 2218.0 1452.5Q2253 1391 2264 1318Q2312 1297 2353.5 1266.0Q2395 1235 2437 1203L2396 1078H2556V935Q2556 839 2527.0 743.0Q2498 647 2444 568Q2484 486 2484 396Q2484 305 2446.5 225.5Q2409 146 2339 89Q2340 78 2340.5 68.0Q2341 58 2341 47Q2341 -19 2340.5 -84.0Q2340 -149 2339 -215H2125V-431Z" style="fill:#000000;stroke:none" transform="scale(1,-1) translate(0,-256)" /></svg>