<?xml version="1.0" encoding="utf-8" ?>
<svg baseProfile="full" height="256" version="1.1" width="256" xmlns="http://www.w3.org/2000/svg" xmlns:ev="http://www.w3.org/2001/xml-events" xmlns:xlink="http://www.w3.org/1999/xlink"><defs /><path d="M975 863Q975 833 963.5 807.0Q952 781 932.5 761.5Q913 742 887.0 730.5Q861 719 831 719Q801 719 775.0 730.5Q749 742 729.5 761.5Q710 781 698.5 807.0Q687 833 687 863Q687 893 698.5 919.0Q710 945 729.5 964.5Q749 984 775.0 995.0Q801 1006 831 1006Q861 1006 887.0 995.0Q913 984 932.5 964.5Q952 945 963.5 919.0Q975 893 975 863ZM1406 1078Q1376 1078 1350.0 1089.5Q1324 1101 1304.5 1120.5Q1285 1140 1273.5 1166.0Q1262 1192 1262 1222Q1262 1252 1273.5 1278.0Q1285 1304 1304.5 1323.5Q1324 1343 1350.0 1354.5Q1376 1366 1406 1366Q1436 1366 1462.0 1354.5Q1488 1343 1507.5 1323.5Q1527 1304 1538.5 1278.0Q1550 1252 1550 1222Q1550 1192 1538.5 1166.0Q1527 1140 1507.5 1120.5Q1488 1101 1462.0 1089.5Q1436 1078 1406 1078ZM1406 1006Q1480 1006 1545.5 977.5Q1611 949 1659.5 900.5Q1708 852 1736.5 786.5Q1765 721 1765 647Q1765 573 1736.5 507.5Q1708 442 1659.5 393.5Q1611 345 1545.5 316.5Q1480 288 1406 288Q1332 288 1266.5 316.0Q1201 344 1152.0 393.0Q1103 442 1075.0 507.5Q1047 573 1047 647Q1047 722 1075.0 787.0Q1103 852 1152.0 901.0Q1201 950 1266.0 978.0Q1331 1006 1406 1006ZM975 288Q1005 288 1031.0 276.5Q1057 265 1076.5 245.5Q1096 226 1107.0 200.0Q1118 174 1118 144Q1118 114 1107.0 88.0Q1096 62 1076.5 42.5Q1057 23 1031.0 11.5Q1005 0 975 0Q945 0 919.0 11.5Q893 23 873.5 42.5Q854 62 842.5 88.0Q831 114 831 144Q831 174 842.5 200.0Q854 226 873.5 245.5Q893 265 919.0 276.5Q945 288 975 288ZM1837 288Q1867 288 1893.0 276.5Q1919 265 1938.5 245.5Q1958 226 1969.5 200.0Q1981 174 1981 144Q1981 114 1969.5 88.0Q1958 62 1938.5 42.5Q1919 23 1893.0 11.5Q1867 0 1837 0Q1807 0 1781.0 11.5Q1755 23 1735.5 42.5Q1716 62 1704.5 88.0Q1693 114 1693 144Q1693 174 1704.5 200.0Q1716 226 1735.5 245.5Q1755 265 1781.0 276.5Q1807 288 1837 288ZM1981 1006Q2011 1006 2037.0 995.0Q2063 984 2082.5 964.5Q2102 945 2113.5 919.0Q2125 893 2125 863Q2125 833 2113.5 807.0Q2102 781 2082.5 761.5Q2063 742 2037.0 730.5Q2011 719 1981 719Q1951 719 1925.0 730.5Q1899 742 1879.5 761.5Q1860 781 1848.5 807.0Q1837 833 1837 863Q1837 893 1848.5 919.0Q1860 945 1879.5 964.5Q1899 984 1925.0 995.0Q1951 1006 1981 1006Z" style="fill:#ffffff;stroke:none" transform="scale(1,-1) translate(0,-256)" /></svg>