<?xml version="1.0" encoding="utf-8" ?>
<svg baseProfile="full" height="256" version="1.1" width="256" xmlns="http://www.w3.org/2000/svg" xmlns:ev="http://www.w3.org/2001/xml-events" xmlns:xlink="http://www.w3.org/1999/xlink"><defs /><path d="M1406 -215Q1275 -215 1156.5 -170.5Q1038 -126 943.5 -46.5Q849 33 784.5 141.5Q720 250 698 379Q663 394 634.5 417.5Q606 441 585.5 471.5Q565 502 554.0 537.5Q543 573 543 611V827Q543 865 554.0 900.5Q565 936 585.5 966.5Q606 997 634.5 1020.5Q663 1044 698 1059Q720 1188 784.5 1296.5Q849 1405 943.5 1484.5Q1038 1564 1156.5 1608.5Q1275 1653 1406 1653Q1536 1653 1654.5 1608.5Q1773 1564 1867.5 1484.5Q1962 1405 2026.5 1296.5Q2091 1188 2114 1059Q2149 1044 2177.5 1020.5Q2206 997 2226.0 966.5Q2246 936 2257.0 900.5Q2268 865 2268 827V611Q2268 573 2257.0 537.5Q2246 502 2226.0 471.5Q2206 441 2177.5 417.5Q2149 394 2114 379Q2091 250 2026.5 141.5Q1962 33 1867.5 -46.5Q1773 -126 1654.5 -170.5Q1536 -215 1406 -215Z" style="fill:#000000;stroke:none" transform="scale(1,-1) translate(0,-256)" /></svg>