<?xml version="1.0" encoding="utf-8" ?>
<svg baseProfile="full" height="256" version="1.1" width="256" xmlns="http://www.w3.org/2000/svg" xmlns:ev="http://www.w3.org/2001/xml-events" xmlns:xlink="http://www.w3.org/1999/xlink"><defs /><path d="M1961 935H2017Q2039 935 2058.5 926.5Q2078 918 2093.0 903.0Q2108 888 2116.5 868.5Q2125 849 2125 827V611Q2125 589 2116.5 569.5Q2108 550 2093.0 535.0Q2078 520 2058.5 511.5Q2039 503 2017 503H1981Q1981 384 1935.5 279.5Q1890 175 1812.0 97.0Q1734 19 1629.5 -26.5Q1525 -72 1406 -72Q1287 -72 1182.5 -26.5Q1078 19 1000.0 97.0Q922 175 876.5 279.5Q831 384 831 503H795Q773 503 753.5 511.5Q734 520 719.0 535.0Q704 550 695.5 569.5Q687 589 687 611V827Q687 849 695.5 868.5Q704 888 719.0 903.0Q734 918 753.5 926.5Q773 935 795 935H851Q851 1054 893.0 1155.5Q935 1257 1009.5 1331.0Q1084 1405 1185.5 1447.0Q1287 1489 1406 1489Q1525 1489 1626.5 1447.0Q1728 1405 1802.5 1331.0Q1877 1257 1919.0 1155.5Q1961 1054 1961 935Z" style="fill:#ffc83d;stroke:none" transform="scale(1,-1) translate(0,-256)" /></svg>