<?xml version="1.0" encoding="utf-8" ?>
<svg baseProfile="full" height="256" version="1.1" width="256" xmlns="http://www.w3.org/2000/svg" xmlns:ev="http://www.w3.org/2001/xml-events" xmlns:xlink="http://www.w3.org/1999/xlink"><defs /><path d="M1478 791Q1478 761 1466.5 734.5Q1455 708 1435.5 688.5Q1416 669 1390.0 658.0Q1364 647 1334 647Q1304 647 1278.0 658.5Q1252 670 1232.5 689.5Q1213 709 1201.5 735.0Q1190 761 1190 791ZM1550 1150Q1579 1150 1600.5 1128.5Q1622 1107 1622 1078V1006Q1622 977 1600.5 956.0Q1579 935 1550 935Q1521 935 1499.5 956.0Q1478 977 1478 1006V1078Q1478 1108 1499.0 1129.0Q1520 1150 1550 1150ZM1118 1150Q1148 1150 1169.0 1129.0Q1190 1108 1190 1078V1006Q1190 977 1168.5 956.0Q1147 935 1118 935Q1089 935 1068.0 956.0Q1047 977 1047 1006V1078Q1047 1107 1068.0 1128.5Q1089 1150 1118 1150Z" style="fill:#000000;stroke:none" transform="scale(1,-1) translate(0,-256)" /></svg>