<?xml version="1.0" encoding="utf-8" ?>
<svg baseProfile="full" height="256" version="1.1" width="256" xmlns="http://www.w3.org/2000/svg" xmlns:ev="http://www.w3.org/2001/xml-events" xmlns:xlink="http://www.w3.org/1999/xlink"><defs /><path d="M676 289V1078Q676 1167 699.0 1251.0Q722 1335 765.5 1409.0Q809 1483 871.5 1544.0Q934 1605 1012 1647L1027 1648Q1098 1686 1175.5 1705.5Q1253 1725 1334 1725Q1414 1725 1491.0 1705.5Q1568 1686 1639 1649L1655 1648Q1734 1605 1796.0 1544.0Q1858 1483 1901.5 1409.5Q1945 1336 1968.0 1251.5Q1991 1167 1991 1078V289Z" style="fill:#8e562e;stroke:none" transform="scale(1,-1) translate(0,-256)" /></svg>