<?xml version="1.0" encoding="utf-8" ?>
<svg baseProfile="full" height="256" version="1.1" width="256" xmlns="http://www.w3.org/2000/svg" xmlns:ev="http://www.w3.org/2001/xml-events" xmlns:xlink="http://www.w3.org/1999/xlink"><defs /><path d="M1666 1796Q1677 1796 1689.0 1796.5Q1701 1797 1712 1797Q1782 1797 1852.5 1782.0Q1923 1767 1987 1738Q2072 1698 2137.0 1641.5Q2202 1585 2249.0 1515.5Q2296 1446 2327.5 1366.0Q2359 1286 2378.0 1201.0Q2397 1116 2404.5 1028.5Q2412 941 2412 855V72Q2412 33 2402.5 -4.0Q2393 -41 2374.5 -74.0Q2356 -107 2329.0 -134.0Q2302 -161 2268 -180V-431H400V-180Q366 -161 339.5 -134.0Q313 -107 294.5 -74.0Q276 -41 266.0 -3.5Q256 34 256 72V855Q256 941 263.5 1028.5Q271 1116 290.0 1201.0Q309 1286 340.5 1366.0Q372 1446 419.0 1515.5Q466 1585 530.5 1641.5Q595 1698 681 1738Q745 1767 815.5 1782.0Q886 1797 956 1797Q967 1797 978.5 1796.5Q990 1796 1001 1796Q1079 1833 1163.0 1851.0Q1247 1869 1334 1869Q1420 1869 1504.0 1850.5Q1588 1832 1666 1796Z" style="fill:#000000;stroke:none" transform="scale(1,-1) translate(0,-256)" /></svg>