<?xml version="1.0" encoding="utf-8" ?>
<svg baseProfile="full" height="256" version="1.1" width="256" xmlns="http://www.w3.org/2000/svg" xmlns:ev="http://www.w3.org/2001/xml-events" xmlns:xlink="http://www.w3.org/1999/xlink"><defs /><path d="M686 293Q608 216 575.5 126.0Q543 36 543 -72Q511 -72 485.0 -61.0Q459 -50 440.0 -31.0Q421 -12 410.5 14.5Q400 41 400 72V855Q400 946 410.5 1040.5Q421 1135 446.0 1223.5Q471 1312 512.5 1390.5Q554 1469 616.0 1527.0Q678 1585 762.0 1619.0Q846 1653 957 1653Q975 1653 992.5 1652.0Q1010 1651 1028 1649Q949 1607 886.0 1546.0Q823 1485 778.5 1410.5Q734 1336 710.0 1251.5Q686 1167 686 1078ZM1640 1648Q1658 1651 1676.5 1652.0Q1695 1653 1713 1653Q1776 1653 1836.0 1639.5Q1896 1626 1952 1597Q2017 1563 2066.0 1513.0Q2115 1463 2150.0 1403.0Q2185 1343 2208.0 1275.0Q2231 1207 2244.5 1136.0Q2258 1065 2263.0 993.5Q2268 922 2268 855V72Q2268 41 2257.5 14.5Q2247 -12 2228.0 -31.0Q2209 -50 2182.5 -61.0Q2156 -72 2125 -72Q2125 36 2092.0 126.5Q2059 217 1981 294V1078Q1981 1167 1957.0 1251.5Q1933 1336 1889.0 1410.0Q1845 1484 1782.0 1545.0Q1719 1606 1640 1648Z" style="fill:#e5e5e5;stroke:none" transform="scale(1,-1) translate(0,-256)" /></svg>