<?xml version="1.0" encoding="utf-8" ?>
<svg baseProfile="full" height="256" version="1.1" width="256" xmlns="http://www.w3.org/2000/svg" xmlns:ev="http://www.w3.org/2001/xml-events" xmlns:xlink="http://www.w3.org/1999/xlink"><defs /><path d="M1644 431Q1739 431 1825.5 395.5Q1912 360 1981 294L1999 296Q2034 261 2060.0 219.0Q2086 177 2103.5 130.5Q2121 84 2129.5 35.0Q2138 -14 2138 -63L2125 -72V-287H543V-72L534 -61V-43Q534 54 565.0 139.0Q596 224 665 293H686Q755 360 841.5 395.5Q928 431 1024 431ZM1824 1501Q1772 1474 1710.5 1454.0Q1649 1434 1584.5 1420.5Q1520 1407 1455.5 1400.5Q1391 1394 1333 1394Q1274 1394 1211.0 1400.5Q1148 1407 1086.5 1422.0Q1025 1437 966.5 1460.5Q908 1484 859 1519Q860 1554 883.5 1571.5Q907 1589 939 1591Q981 1565 1029.5 1547.0Q1078 1529 1129.0 1517.5Q1180 1506 1232.0 1500.5Q1284 1495 1333 1495Q1381 1495 1436.0 1500.0Q1491 1505 1546.0 1514.5Q1601 1524 1654.0 1539.0Q1707 1554 1751 1574Q1779 1571 1801.0 1550.5Q1823 1530 1824 1501Z" style="fill:#ffffff;stroke:none" transform="scale(1,-1) translate(0,-256)" /></svg>