<?xml version="1.0" encoding="utf-8" ?>
<svg baseProfile="full" height="256" version="1.1" width="256" xmlns="http://www.w3.org/2000/svg" xmlns:ev="http://www.w3.org/2001/xml-events" xmlns:xlink="http://www.w3.org/1999/xlink"><defs /><path d="M1406 1366Q1434 1305 1481.5 1264.0Q1529 1223 1587.5 1197.5Q1646 1172 1710.5 1161.0Q1775 1150 1837 1150V1008Q1837 904 1797.5 812.0Q1758 720 1689.5 651.5Q1621 583 1529.5 543.0Q1438 503 1334 503Q1230 503 1138.0 543.0Q1046 583 978.0 651.5Q910 720 870.5 812.0Q831 904 831 1008V1150Q880 1150 925.0 1166.5Q970 1183 1007.5 1211.5Q1045 1240 1073.5 1279.0Q1102 1318 1117 1364Q1138 1322 1169.5 1295.0Q1201 1268 1239.5 1251.5Q1278 1235 1320.5 1228.5Q1363 1222 1406 1222ZM1478 431Q1507 431 1528.5 410.0Q1550 389 1550 360Q1550 352 1547.5 344.0Q1545 336 1541 328L1397 40Q1388 22 1371.0 11.0Q1354 0 1334 0Q1314 0 1296.5 11.0Q1279 22 1270 40L1127 328Q1123 336 1120.5 344.0Q1118 352 1118 360Q1118 389 1139.5 410.0Q1161 431 1190 431Z" style="fill:#ffc83d;stroke:none" transform="scale(1,-1) translate(0,-256)" /></svg>