<?xml version="1.0" encoding="utf-8" ?>
<svg baseProfile="full" height="256" version="1.1" width="256" xmlns="http://www.w3.org/2000/svg" xmlns:ev="http://www.w3.org/2001/xml-events" xmlns:xlink="http://www.w3.org/1999/xlink"><defs /><path d="M2272 935Q2315 934 2353.5 916.5Q2392 899 2421.0 870.0Q2450 841 2466.5 802.5Q2483 764 2483 720V212Q2518 177 2536.5 131.5Q2555 86 2555 37Q2555 -12 2536.5 -58.0Q2518 -104 2483 -139V-431H1908V-216H902V-431H327V-139Q292 -104 273.5 -58.0Q255 -12 255 37Q255 86 273.5 131.5Q292 177 327 212V720Q327 763 344.0 802.0Q361 841 390.0 870.0Q419 899 457.5 916.5Q496 934 539 935Q566 1044 593.5 1150.5Q621 1257 647 1366H2165Z" style="fill:#000000;stroke:none" transform="scale(1,-1) translate(0,-256)" /></svg>