<?xml version="1.0" encoding="utf-8" ?>
<svg baseProfile="full" height="256" version="1.1" width="256" xmlns="http://www.w3.org/2000/svg" xmlns:ev="http://www.w3.org/2001/xml-events" xmlns:xlink="http://www.w3.org/1999/xlink"><defs /><path d="M723 432Q745 432 765.0 423.5Q785 415 799.5 400.5Q814 386 822.5 366.0Q831 346 831 324Q831 301 822.5 281.5Q814 262 799.0 248.0Q784 234 764.5 225.5Q745 217 723 217Q701 217 681.5 225.5Q662 234 647.0 248.5Q632 263 623.5 282.5Q615 302 615 324Q615 346 623.5 365.5Q632 385 647.0 400.0Q662 415 681.5 423.5Q701 432 723 432ZM2089 432Q2111 432 2130.5 423.5Q2150 415 2165.0 400.0Q2180 385 2188.5 365.5Q2197 346 2197 324Q2197 302 2188.5 282.5Q2180 263 2165.0 248.5Q2150 234 2130.5 225.5Q2111 217 2089 217Q2067 217 2047.5 225.5Q2028 234 2013.0 248.0Q1998 262 1989.5 281.5Q1981 301 1981 324Q1981 346 1989.5 366.0Q1998 386 2012.5 400.5Q2027 415 2046.5 423.5Q2066 432 2089 432Z" style="fill:#faec6e;stroke:none" transform="scale(1,-1) translate(0,-256)" /></svg>