<?xml version="1.0" encoding="utf-8" ?>
<svg baseProfile="full" height="256" version="1.1" width="256" xmlns="http://www.w3.org/2000/svg" xmlns:ev="http://www.w3.org/2001/xml-events" xmlns:xlink="http://www.w3.org/1999/xlink"><defs /><path d="M2053 504H759L615 648L759 1223H2053L2197 648ZM2304 145Q2326 145 2345.5 136.5Q2365 128 2380.0 113.0Q2395 98 2403.5 78.5Q2412 59 2412 37Q2412 14 2403.5 -5.5Q2395 -25 2380.5 -39.5Q2366 -54 2346.0 -62.5Q2326 -71 2304 -71H508Q485 -71 465.5 -62.5Q446 -54 431.5 -39.5Q417 -25 408.5 -5.5Q400 14 400 37Q400 59 408.5 78.5Q417 98 432.0 113.0Q447 128 466.5 136.5Q486 145 508 145Z" style="fill:#0078d7;stroke:none" transform="scale(1,-1) translate(0,-256)" /></svg>