<?xml version="1.0" encoding="utf-8" ?>
<svg baseProfile="full" height="256" version="1.1" width="256" xmlns="http://www.w3.org/2000/svg" xmlns:ev="http://www.w3.org/2001/xml-events" xmlns:xlink="http://www.w3.org/1999/xlink"><defs /><path d="M2197 683Q2227 683 2258.0 666.0Q2289 649 2314.5 622.5Q2340 596 2356.0 564.5Q2372 533 2372 503Q2372 473 2355.5 443.5Q2339 414 2313.5 390.5Q2288 367 2257.0 352.5Q2226 338 2197 338H1765V332Q1765 312 1764.0 291.0Q1763 270 1756.5 253.5Q1750 237 1735.5 226.5Q1721 216 1695 216V144Q1695 114 1683.5 88.0Q1672 62 1652.5 42.5Q1633 23 1606.5 11.5Q1580 0 1550 0H1334Q1234 0 1140.0 36.0Q1046 72 972 141L615 -215H400Q400 -170 399.0 -125.0Q398 -80 398 -35Q398 -26 398.0 -17.5Q398 -9 400 0L458 355Q481 495 503.0 634.5Q525 774 550 914Q557 953 570.0 990.0Q583 1027 598 1064Q630 1142 667.0 1202.5Q704 1263 752.5 1308.5Q801 1354 864.0 1386.0Q927 1418 1011 1438Q1086 1456 1162.0 1469.0Q1238 1482 1316 1482Q1402 1482 1472.0 1454.5Q1542 1427 1593 1353Q1644 1278 1668.5 1187.5Q1693 1097 1693 1006V863L1837 575L1693 503V431H2197Q2226 431 2247.0 452.5Q2268 474 2268 503Q2268 532 2247.0 553.5Q2226 575 2197 575Q2167 575 2146.0 554.0Q2125 533 2125 503H2053Q2040 525 2040 553Q2040 581 2055.0 605.0Q2070 629 2093.0 646.5Q2116 664 2143.5 673.5Q2171 683 2197 683ZM1981 683Q1981 668 1970.5 657.5Q1960 647 1945 647Q1930 647 1919.5 657.5Q1909 668 1909 683Q1909 698 1919.5 708.5Q1930 719 1945 719Q1960 719 1970.5 708.5Q1981 698 1981 683Z" style="fill:#69eaff;stroke:none" transform="scale(1,-1) translate(0,-256)" /></svg>