<?xml version="1.0" encoding="utf-8" ?>
<svg baseProfile="full" height="256" version="1.1" width="256" xmlns="http://www.w3.org/2000/svg" xmlns:ev="http://www.w3.org/2001/xml-events" xmlns:xlink="http://www.w3.org/1999/xlink"><defs /><path d="M2197 314Q2212 314 2229.0 304.5Q2246 295 2261.0 280.0Q2276 265 2286.0 248.0Q2296 231 2296 216Q2296 201 2286.0 184.0Q2276 167 2261.0 152.5Q2246 138 2229.0 128.5Q2212 119 2197 119Q2178 119 2157.0 128.5Q2136 138 2116.0 152.5Q2096 167 2079.5 184.0Q2063 201 2053 216H1693V314ZM1981 108Q1981 93 1970.5 82.5Q1960 72 1945 72Q1930 72 1919.5 82.5Q1909 93 1909 108Q1909 123 1919.5 133.5Q1930 144 1945 144Q1960 144 1970.5 133.5Q1981 123 1981 108Z" style="fill:#31d2f7;stroke:none" transform="scale(1,-1) translate(0,-256)" /></svg>