<?xml version="1.0" encoding="utf-8" ?>
<svg baseProfile="full" height="256" version="1.1" width="256" xmlns="http://www.w3.org/2000/svg" xmlns:ev="http://www.w3.org/2001/xml-events" xmlns:xlink="http://www.w3.org/1999/xlink"><defs /><path d="M1406 719Q1392 719 1368.0 723.5Q1344 728 1320.5 737.0Q1297 746 1279.5 759.5Q1262 773 1262 791Q1262 805 1273.0 816.0Q1284 827 1298 827Q1305 827 1315.5 821.5Q1326 816 1339.5 809.0Q1353 802 1370.0 796.5Q1387 791 1406 791Q1425 791 1441.5 796.5Q1458 802 1471.5 809.0Q1485 816 1495.5 821.5Q1506 827 1514 827Q1528 827 1539.0 816.0Q1550 805 1550 791Q1550 773 1532.5 759.5Q1515 746 1491.5 737.0Q1468 728 1444.0 723.5Q1420 719 1406 719Z" style="fill:#2b2b2b;stroke:none" transform="scale(1,-1) translate(0,-256)" /></svg>