<?xml version="1.0" encoding="utf-8" ?>
<svg baseProfile="full" height="256" version="1.1" width="256" xmlns="http://www.w3.org/2000/svg" xmlns:ev="http://www.w3.org/2001/xml-events" xmlns:xlink="http://www.w3.org/1999/xlink"><defs /><path d="M1514 899Q1506 899 1495.5 904.5Q1485 910 1471.5 917.0Q1458 924 1441.5 929.5Q1425 935 1406 935Q1387 935 1370.0 929.5Q1353 924 1339.5 917.0Q1326 910 1315.5 904.5Q1305 899 1298 899Q1283 899 1272.5 909.5Q1262 920 1262 935Q1262 953 1279.0 966.5Q1296 980 1319.5 989.0Q1343 998 1367.5 1002.0Q1392 1006 1406 1006Q1420 1006 1444.5 1002.0Q1469 998 1492.5 989.0Q1516 980 1533.0 966.5Q1550 953 1550 935Q1550 920 1539.5 909.5Q1529 899 1514 899Z" style="fill:#3a96dd;stroke:none" transform="scale(1,-1) translate(0,-256)" /></svg>