<?xml version="1.0" encoding="utf-8" ?>
<svg baseProfile="full" height="256" version="1.1" width="256" xmlns="http://www.w3.org/2000/svg" xmlns:ev="http://www.w3.org/2001/xml-events" xmlns:xlink="http://www.w3.org/1999/xlink"><defs /><path d="M1622 1653V1510Q1622 1420 1588.0 1341.5Q1554 1263 1495.5 1204.5Q1437 1146 1358.5 1112.0Q1280 1078 1190 1078V935Q1190 890 1173.5 851.0Q1157 812 1127.5 782.5Q1098 753 1059.0 736.0Q1020 719 975 719V575Q975 456 930.0 351.0Q885 246 807.0 168.0Q729 90 624.0 45.0Q519 0 400 0V1078Q400 1197 445.0 1302.0Q490 1407 568.0 1485.0Q646 1563 751.0 1608.0Q856 1653 975 1653ZM2412 503Q2412 444 2382.0 393.5Q2352 343 2301 315Q2340 274 2340 216Q2340 186 2329.0 160.0Q2318 134 2298.5 114.5Q2279 95 2253.0 83.5Q2227 72 2197 72Q2167 72 2141.0 83.5Q2115 95 2095.5 114.5Q2076 134 2064.5 160.0Q2053 186 2053 216H2125Q2125 186 2146.0 165.0Q2167 144 2197 144Q2226 144 2247.0 165.5Q2268 187 2268 216Q2268 245 2247.0 266.5Q2226 288 2197 288H1729Q1715 288 1704.0 299.0Q1693 310 1693 324Q1693 338 1704.0 349.0Q1715 360 1729 360H2197Q2227 360 2253.0 371.0Q2279 382 2298.5 401.5Q2318 421 2329.0 447.0Q2340 473 2340 503Q2340 533 2329.0 559.0Q2318 585 2298.5 604.5Q2279 624 2253.0 635.5Q2227 647 2197 647Q2167 647 2140.5 635.5Q2114 624 2094.5 604.5Q2075 585 2064.0 559.0Q2053 533 2053 503H1981Q1981 548 1998.0 587.0Q2015 626 2044.5 655.5Q2074 685 2113.0 702.0Q2152 719 2197 719Q2241 719 2280.0 701.5Q2319 684 2348.5 654.5Q2378 625 2395.0 585.5Q2412 546 2412 503Z" style="fill:#00bcf2;stroke:none" transform="scale(1,-1) translate(0,-256)" /></svg>