<?xml version="1.0" encoding="utf-8" ?>
<svg baseProfile="full" height="256" version="1.1" width="256" xmlns="http://www.w3.org/2000/svg" xmlns:ev="http://www.w3.org/2001/xml-events" xmlns:xlink="http://www.w3.org/1999/xlink"><defs /><path d="M2556 503Q2556 442 2535.5 384.0Q2515 326 2477 279Q2484 250 2484 216Q2484 157 2461.0 105.0Q2438 53 2399.0 13.5Q2360 -26 2307.5 -49.0Q2255 -72 2197 -72Q2161 -72 2123.0 -63.0Q2085 -54 2055 -34Q2032 -52 2003.0 -62.0Q1974 -72 1945 -72Q1903 -72 1864.0 -52.0Q1825 -32 1800 2Q1772 -47 1738.0 -76.0Q1704 -105 1664.5 -120.5Q1625 -136 1579.0 -140.5Q1533 -145 1481 -145H1450Q1385 -145 1327.0 -143.0Q1269 -141 1213.0 -131.5Q1157 -122 1101.0 -102.5Q1045 -83 986 -48L675 -359H256V1078Q256 1177 281.5 1269.0Q307 1361 354.0 1441.0Q401 1521 466.5 1586.5Q532 1652 612.0 1699.0Q692 1746 784.0 1771.5Q876 1797 975 1797H1765V1510Q1765 1442 1748 1371Q1780 1310 1798.0 1253.5Q1816 1197 1824.5 1140.0Q1833 1083 1835.0 1023.5Q1837 964 1837 897L1864 843Q1882 854 1903.0 858.5Q1924 863 1945 863Q1973 863 1999.5 855.0Q2026 847 2048 830Q2063 838 2082.0 844.5Q2101 851 2121.0 855.0Q2141 859 2160.5 861.0Q2180 863 2197 863Q2271 863 2336.5 834.5Q2402 806 2450.5 757.0Q2499 708 2527.5 642.5Q2556 577 2556 503Z" style="fill:#000000;stroke:none" transform="scale(1,-1) translate(0,-256)" /></svg>