<?xml version="1.0" encoding="utf-8" ?>
<svg baseProfile="full" height="256" version="1.1" width="256" xmlns="http://www.w3.org/2000/svg" xmlns:ev="http://www.w3.org/2001/xml-events" xmlns:xlink="http://www.w3.org/1999/xlink"><defs /><path d="M2374 915Q2374 905 2367 901L1801 489Q1793 484 1793 474Q1793 472 1801.5 444.5Q1810 417 1824.5 372.5Q1839 328 1857.5 271.0Q1876 214 1896.0 154.0Q1916 94 1935.0 35.0Q1954 -24 1970.0 -72.5Q1986 -121 1997.0 -154.5Q2008 -188 2011 -197Q2012 -199 2012 -203Q2012 -210 2006.5 -215.0Q2001 -220 1994 -220Q1987 -220 1983 -217L1960 -200Q1939 -185 1904.5 -159.5Q1870 -134 1828.0 -103.0Q1786 -72 1739.0 -38.0Q1692 -4 1646.0 29.5Q1600 63 1558.0 93.5Q1516 124 1483.0 147.5Q1450 171 1429.5 184.5Q1409 198 1406 198Q1401 198 1395 194L829 -217Q824 -220 818 -220Q811 -220 805.5 -215.0Q800 -210 800 -203Q800 -202 808.5 -174.0Q817 -146 831.5 -101.5Q846 -57 864.5 0.0Q883 57 902.5 117.5Q922 178 941.5 236.5Q961 295 976.5 344.0Q992 393 1003.0 426.5Q1014 460 1017 469Q1018 471 1018 475Q1018 484 1011 489L444 901Q437 906 437 915Q437 923 442.0 928.0Q447 933 455 933H1155Q1167 933 1172 946L1389 1612Q1392 1624 1406 1624Q1420 1624 1423 1612L1639 946Q1643 933 1656 933H2357Q2365 933 2369.5 928.0Q2374 923 2374 915Z" style="fill:#ffc83d;stroke:none" transform="scale(1,-1) translate(0,-256)" /></svg>