<?xml version="1.0" encoding="utf-8" ?>
<svg baseProfile="full" height="256" version="1.1" width="256" xmlns="http://www.w3.org/2000/svg" xmlns:ev="http://www.w3.org/2001/xml-events" xmlns:xlink="http://www.w3.org/1999/xlink"><defs /><path d="M2519 916Q2519 877 2501.5 842.5Q2484 808 2452 785L1959 427L2147 -152Q2155 -178 2155 -203Q2155 -236 2142.5 -265.5Q2130 -295 2108.0 -317.0Q2086 -339 2056.5 -351.5Q2027 -364 1994 -364Q1942 -364 1899 -333L1406 25L913 -333Q871 -364 818 -364Q785 -364 755.5 -351.0Q726 -338 704.0 -316.0Q682 -294 669.0 -264.5Q656 -235 656 -201Q656 -178 664 -152L853 427L360 785Q328 808 310.5 842.5Q293 877 293 916Q293 949 306.0 978.5Q319 1008 341.0 1030.0Q363 1052 392.5 1065.0Q422 1078 455 1078H1064L1252 1657Q1269 1707 1311.0 1738.0Q1353 1769 1406 1769Q1459 1769 1501.0 1738.0Q1543 1707 1560 1657L1748 1078H2357Q2390 1078 2419.5 1065.0Q2449 1052 2471.0 1030.0Q2493 1008 2506.0 978.5Q2519 949 2519 916Z" style="fill:#000000;stroke:none" transform="scale(1,-1) translate(0,-256)" /></svg>