<?xml version="1.0" encoding="utf-8" ?>
<svg baseProfile="full" height="256" version="1.1" width="256" xmlns="http://www.w3.org/2000/svg" xmlns:ev="http://www.w3.org/2001/xml-events" xmlns:xlink="http://www.w3.org/1999/xlink"><defs /><path d="M759 1099Q759 1129 780.0 1150.0Q801 1171 831 1171Q897 1171 946.0 1182.0Q995 1193 1037.5 1215.0Q1080 1237 1120.5 1268.5Q1161 1300 1208 1341Q1222 1353 1233.0 1359.5Q1244 1366 1263 1366Q1292 1366 1313.0 1345.0Q1334 1324 1334 1295Q1334 1281 1329.0 1269.0Q1324 1257 1316 1246Q1279 1195 1221.5 1154.5Q1164 1114 1097.5 1085.5Q1031 1057 961.5 1042.0Q892 1027 831 1027Q802 1027 780.5 1048.5Q759 1070 759 1099ZM1550 1366Q1566 1366 1582.0 1357.0Q1598 1348 1612.0 1335.0Q1626 1322 1639.0 1308.0Q1652 1294 1664 1284Q1695 1257 1733.0 1235.5Q1771 1214 1812.5 1200.0Q1854 1186 1896.5 1178.5Q1939 1171 1981 1171Q2011 1171 2032.0 1150.0Q2053 1129 2053 1099Q2053 1070 2031.5 1048.5Q2010 1027 1981 1027Q1919 1027 1849.5 1042.0Q1780 1057 1713.5 1085.0Q1647 1113 1590.0 1153.5Q1533 1194 1496 1246Q1488 1257 1483.0 1269.0Q1478 1281 1478 1295Q1478 1324 1499.5 1345.0Q1521 1366 1550 1366Z" style="fill:#d48c00;stroke:none" transform="scale(1,-1) translate(0,-256)" /></svg>