<?xml version="1.0" encoding="utf-8" ?>
<svg baseProfile="full" height="256" version="1.1" width="256" xmlns="http://www.w3.org/2000/svg" xmlns:ev="http://www.w3.org/2001/xml-events" xmlns:xlink="http://www.w3.org/1999/xlink"><defs /><path d="M1478 1366Q1506 1307 1552.0 1254.5Q1598 1202 1655.5 1163.0Q1713 1124 1778.5 1101.0Q1844 1078 1910 1078V936Q1910 832 1870.5 740.0Q1831 648 1762.5 579.5Q1694 511 1602.0 471.0Q1510 431 1406 431Q1302 431 1210.0 471.0Q1118 511 1050.0 579.5Q982 648 942.5 740.0Q903 832 903 936V1079Q952 1079 997.0 1095.5Q1042 1112 1080.0 1140.5Q1118 1169 1146.5 1208.0Q1175 1247 1190 1293Q1211 1251 1242.0 1223.0Q1273 1195 1311.0 1179.0Q1349 1163 1391.5 1156.5Q1434 1150 1478 1150ZM1335 1653Q1335 1629 1325.5 1614.5Q1316 1600 1301.0 1592.5Q1286 1585 1266.5 1583.0Q1247 1581 1228 1581H1191Q1172 1581 1150.5 1577.0Q1129 1573 1109.5 1564.0Q1090 1555 1074.5 1541.0Q1059 1527 1052 1508H764Q783 1544 813.0 1582.5Q843 1621 879.5 1652.5Q916 1684 958.5 1704.5Q1001 1725 1045 1725H1263Q1292 1725 1313.5 1703.5Q1335 1682 1335 1653ZM1761 1508Q1750 1534 1730.0 1548.5Q1710 1563 1685.5 1570.5Q1661 1578 1634.5 1579.5Q1608 1581 1584 1581Q1564 1581 1545.0 1583.0Q1526 1585 1511.0 1592.5Q1496 1600 1487.0 1614.5Q1478 1629 1478 1653Q1478 1683 1499.0 1704.0Q1520 1725 1550 1725H1767Q1811 1725 1853.5 1704.5Q1896 1684 1933.0 1652.5Q1970 1621 2000.0 1582.5Q2030 1544 2049 1508ZM1550 360Q1579 360 1600.5 338.5Q1622 317 1622 288Q1622 272 1614 256L1470 -31Q1461 -50 1444.0 -61.0Q1427 -72 1406 -72Q1386 -72 1368.5 -61.0Q1351 -50 1342 -32L1199 256Q1191 272 1191 288Q1191 317 1212.5 338.5Q1234 360 1263 360Z" style="fill:#ffc83d;stroke:none" transform="scale(1,-1) translate(0,-256)" /></svg>