<?xml version="1.0" encoding="utf-8" ?>
<svg baseProfile="full" height="256" version="1.1" width="256" xmlns="http://www.w3.org/2000/svg" xmlns:ev="http://www.w3.org/2001/xml-events" xmlns:xlink="http://www.w3.org/1999/xlink"><defs /><path d="M1406 575Q1376 575 1350.0 586.5Q1324 598 1304.5 617.5Q1285 637 1273.5 663.0Q1262 689 1262 719H1550Q1550 689 1538.5 662.5Q1527 636 1507.5 616.5Q1488 597 1462.0 586.0Q1436 575 1406 575ZM1622 1078Q1652 1078 1673.0 1057.0Q1694 1036 1694 1006V935Q1694 905 1673.0 884.0Q1652 863 1622 863Q1592 863 1571.0 884.0Q1550 905 1550 935V1006Q1550 1036 1571.0 1057.0Q1592 1078 1622 1078ZM1263 935Q1263 906 1241.5 884.5Q1220 863 1191 863Q1161 863 1140.0 884.0Q1119 905 1119 935V1006Q1119 1036 1140.0 1057.0Q1161 1078 1191 1078Q1220 1078 1241.5 1056.5Q1263 1035 1263 1006Z" style="fill:#000000;stroke:none" transform="scale(1,-1) translate(0,-256)" /></svg>