<?xml version="1.0" encoding="utf-8" ?>
<svg baseProfile="full" height="256" version="1.1" width="256" xmlns="http://www.w3.org/2000/svg" xmlns:ev="http://www.w3.org/2001/xml-events" xmlns:xlink="http://www.w3.org/1999/xlink"><defs /><path d="M1767 1869Q1812 1869 1856.0 1855.5Q1900 1842 1941.0 1819.5Q1982 1797 2018.0 1768.0Q2054 1739 2084 1707Q2096 1694 2107.5 1680.5Q2119 1667 2128 1652Q2176 1572 2219.0 1490.0Q2262 1408 2307 1326Q2361 1226 2416.0 1128.0Q2471 1030 2524 929Q2540 898 2547.5 862.5Q2555 827 2555 792Q2555 737 2537 685L2155 -431H657L274 687Q256 738 256 793Q256 823 263.5 860.5Q271 898 285 925L637 1577Q667 1632 709.5 1684.5Q752 1737 805.0 1778.0Q858 1819 918.5 1844.0Q979 1869 1045 1869H1262Q1302 1869 1339.5 1854.5Q1377 1840 1406 1814Q1435 1840 1472.5 1854.5Q1510 1869 1549 1869Z" style="fill:#000000;stroke:none" transform="scale(1,-1) translate(0,-256)" /></svg>