<?xml version="1.0" encoding="utf-8" ?>
<svg baseProfile="full" height="256" version="1.1" width="256" xmlns="http://www.w3.org/2000/svg" xmlns:ev="http://www.w3.org/2001/xml-events" xmlns:xlink="http://www.w3.org/1999/xlink"><defs /><path d="M688 291V1033Q688 1039 694.5 1057.5Q701 1076 709.5 1097.5Q718 1119 726.5 1138.5Q735 1158 738 1166Q783 1266 850.5 1354.5Q918 1443 1003.5 1509.5Q1089 1576 1191.0 1614.5Q1293 1653 1407 1653Q1522 1653 1625.5 1614.0Q1729 1575 1815.5 1507.5Q1902 1440 1969.5 1350.0Q2037 1260 2081 1158Q2084 1150 2091.5 1132.0Q2099 1114 2106.5 1093.5Q2114 1073 2119.5 1056.0Q2125 1039 2125 1033V291Z" style="fill:#8e562e;stroke:none" transform="scale(1,-1) translate(0,-256)" /></svg>