<?xml version="1.0" encoding="utf-8" ?>
<svg baseProfile="full" height="256" version="1.1" width="256" xmlns="http://www.w3.org/2000/svg" xmlns:ev="http://www.w3.org/2001/xml-events" xmlns:xlink="http://www.w3.org/1999/xlink"><defs /><path d="M479 204 886 -203Q845 -244 792.0 -265.5Q739 -287 682 -287Q622 -287 570.0 -264.5Q518 -242 479.0 -203.0Q440 -164 417.5 -111.5Q395 -59 395 0Q395 57 417.0 110.0Q439 163 479 204ZM1185 360Q1185 409 1201.0 454.0Q1217 499 1245.5 535.5Q1274 572 1314.0 599.0Q1354 626 1401 638V431Q1401 385 1390.0 349.5Q1379 314 1360.0 284.0Q1341 254 1315.0 226.5Q1289 199 1258 169Q1223 209 1204.0 257.5Q1185 306 1185 360Z" style="fill:#757575;stroke:none" transform="scale(1,-1) translate(0,-256)" /></svg>