<?xml version="1.0" encoding="utf-8" ?>
<svg baseProfile="full" height="256" version="1.1" width="256" xmlns="http://www.w3.org/2000/svg" xmlns:ev="http://www.w3.org/2001/xml-events" xmlns:xlink="http://www.w3.org/1999/xlink"><defs /><path d="M1165 1415 1679 1672 1744 1543 1692 1398 1840 1350 1993 1045Q2004 1022 2014.5 1004.5Q2025 987 2034.5 969.5Q2044 952 2052.5 934.0Q2061 916 2069 892Q2076 869 2080.0 850.0Q2084 831 2086.0 812.5Q2088 794 2090.0 774.5Q2092 755 2096 731L2151 409L1984 -91H1643L1439 91L1575 500Q1582 521 1582 545Q1582 580 1567 610L1326 1093L1395 1248L1229 1286Z" style="fill:#ffffff;stroke:none" transform="scale(1,-1) translate(0,-256)" /></svg>