<?xml version="1.0" encoding="utf-8" ?>
<svg baseProfile="full" height="256" version="1.1" width="256" xmlns="http://www.w3.org/2000/svg" xmlns:ev="http://www.w3.org/2001/xml-events" xmlns:xlink="http://www.w3.org/1999/xlink"><defs /><path d="M1439 91 1984 -91Q1969 -135 1942.0 -171.0Q1915 -207 1879.5 -232.5Q1844 -258 1801.0 -272.5Q1758 -287 1712 -287Q1653 -287 1600.5 -264.5Q1548 -242 1509.0 -203.0Q1470 -164 1447.0 -112.0Q1424 -60 1424 0Q1424 47 1439 91ZM2151 409Q2110 425 2077.0 452.0Q2044 479 2020.5 514.0Q1997 549 1984.0 590.0Q1971 631 1971 675Q1971 737 1996.5 794.0Q2022 851 2069 892L2161 707Q2192 645 2192 578Q2192 533 2178.5 492.0Q2165 451 2151 409Z" style="fill:#a6a6a6;stroke:none" transform="scale(1,-1) translate(0,-256)" /></svg>