<?xml version="1.0" encoding="utf-8" ?>
<svg baseProfile="full" height="256" version="1.1" width="256" xmlns="http://www.w3.org/2000/svg" xmlns:ev="http://www.w3.org/2001/xml-events" xmlns:xlink="http://www.w3.org/1999/xlink"><defs /><path d="M1711 -431Q1622 -431 1545.5 -397.5Q1469 -364 1412.0 -306.5Q1355 -249 1321.5 -172.0Q1288 -95 1285 -8L987 -305Q925 -366 847.0 -398.5Q769 -431 682 -431Q593 -431 515.5 -398.0Q438 -365 380.0 -307.0Q322 -249 289.0 -171.5Q256 -94 256 -5Q256 86 290.5 168.5Q325 251 389 316L682 610V1653H1321L1744 1865L2290 772Q2336 682 2336 580Q2336 511 2313 442L2120 -136Q2098 -202 2057.5 -256.5Q2017 -311 1963.0 -349.5Q1909 -388 1845.0 -409.5Q1781 -431 1711 -431Z" style="fill:#000000;stroke:none" transform="scale(1,-1) translate(0,-256)" /></svg>