<?xml version="1.0" encoding="utf-8" ?>
<svg baseProfile="full" height="256" version="1.1" width="256" xmlns="http://www.w3.org/2000/svg" xmlns:ev="http://www.w3.org/2001/xml-events" xmlns:xlink="http://www.w3.org/1999/xlink"><defs /><path d="M2315 719Q2315 699 2323.0 680.0Q2331 661 2343.5 644.5Q2356 628 2372.0 614.0Q2388 600 2404 590Q2383 421 2307.5 270.5Q2232 120 2111 1Q2035 -8 1986.5 -22.5Q1938 -37 1902.0 -62.5Q1866 -88 1833.5 -127.5Q1801 -167 1756 -225Q1587 -287 1406 -287Q1295 -287 1187.5 -264.0Q1080 -241 980 -193Q960 -154 940.0 -127.5Q920 -101 895.0 -84.5Q870 -68 837.5 -61.0Q805 -54 761 -53Q629 56 543.0 199.0Q457 342 422 510Q433 534 450.5 559.5Q468 585 484.5 611.5Q501 638 513.0 665.0Q525 692 525 719Q525 746 511.0 771.0Q497 796 479.0 821.5Q461 847 444.0 873.0Q427 899 422 928Q457 1096 543.0 1239.0Q629 1382 761 1491Q798 1491 833.0 1497.5Q868 1504 896.5 1520.0Q925 1536 946.0 1562.5Q967 1589 977 1629Q1078 1677 1186.0 1701.0Q1294 1725 1406 1725Q1496 1725 1583.5 1709.5Q1671 1694 1756 1662Q1769 1611 1799.5 1569.0Q1830 1527 1871.5 1497.0Q1913 1467 1962.5 1450.5Q2012 1434 2064 1434Q2087 1434 2111 1437Q2232 1318 2307.5 1167.5Q2383 1017 2404 848Q2388 839 2372.0 825.0Q2356 811 2343.5 794.0Q2331 777 2323.0 758.0Q2315 739 2315 719Z" style="fill:#757575;stroke:none" transform="scale(1,-1) translate(0,-256)" /></svg>