<?xml version="1.0" encoding="utf-8" ?>
<svg baseProfile="full" height="256" version="1.1" width="256" xmlns="http://www.w3.org/2000/svg" xmlns:ev="http://www.w3.org/2001/xml-events" xmlns:xlink="http://www.w3.org/1999/xlink"><defs /><path d="M1406 1725Q1545 1725 1673.5 1689.0Q1802 1653 1914.0 1587.5Q2026 1522 2117.5 1430.5Q2209 1339 2274.5 1227.0Q2340 1115 2376.0 986.5Q2412 858 2412 719Q2412 580 2376.0 451.5Q2340 323 2274.5 211.0Q2209 99 2117.5 7.5Q2026 -84 1914.0 -149.5Q1802 -215 1673.5 -251.0Q1545 -287 1406 -287Q1267 -287 1138.5 -251.0Q1010 -215 898.0 -149.5Q786 -84 694.5 7.5Q603 99 537.5 211.0Q472 323 436.0 451.5Q400 580 400 719Q400 858 436.0 986.5Q472 1115 537.5 1227.0Q603 1339 694.5 1430.5Q786 1522 898.0 1587.5Q1010 1653 1138.5 1689.0Q1267 1725 1406 1725ZM1406 0Q1505 0 1597.0 25.5Q1689 51 1769.0 98.0Q1849 145 1914.5 210.5Q1980 276 2027.0 356.0Q2074 436 2099.5 528.0Q2125 620 2125 719Q2125 818 2099.5 910.0Q2074 1002 2027.0 1082.0Q1980 1162 1914.5 1227.5Q1849 1293 1769.0 1340.0Q1689 1387 1597.0 1412.5Q1505 1438 1406 1438Q1307 1438 1215.0 1412.5Q1123 1387 1043.0 1340.0Q963 1293 897.5 1227.5Q832 1162 785.0 1082.0Q738 1002 712.5 910.0Q687 818 687 719Q687 620 712.5 528.0Q738 436 785.0 356.0Q832 276 897.5 210.5Q963 145 1043.0 98.0Q1123 51 1215.0 25.5Q1307 0 1406 0Z" style="fill:#f03a17;stroke:none" transform="scale(1,-1) translate(0,-256)" /></svg>