<?xml version="1.0" encoding="utf-8" ?>
<svg baseProfile="full" height="256" version="1.1" width="256" xmlns="http://www.w3.org/2000/svg" xmlns:ev="http://www.w3.org/2001/xml-events" xmlns:xlink="http://www.w3.org/1999/xlink"><defs /><path d="M1406 1869Q1565 1869 1712.0 1828.0Q1859 1787 1986.5 1712.0Q2114 1637 2219.0 1532.0Q2324 1427 2399.0 1299.5Q2474 1172 2515.0 1025.0Q2556 878 2556 719Q2556 560 2515.0 413.0Q2474 266 2399.0 138.5Q2324 11 2219.0 -94.0Q2114 -199 1986.5 -274.0Q1859 -349 1712.0 -390.0Q1565 -431 1406 -431Q1247 -431 1100.0 -390.0Q953 -349 825.5 -274.0Q698 -199 593.0 -94.0Q488 11 413.0 138.5Q338 266 297.0 413.0Q256 560 256 719Q256 878 297.0 1025.0Q338 1172 413.0 1299.5Q488 1427 593.0 1532.0Q698 1637 825.5 1712.0Q953 1787 1100.0 1828.0Q1247 1869 1406 1869ZM1406 144Q1525 144 1630.0 189.0Q1735 234 1813.0 312.0Q1891 390 1936.0 495.0Q1981 600 1981 719Q1981 838 1936.0 943.0Q1891 1048 1813.0 1126.0Q1735 1204 1630.0 1249.0Q1525 1294 1406 1294Q1287 1294 1182.0 1249.0Q1077 1204 999.0 1126.0Q921 1048 876.0 943.0Q831 838 831 719Q831 600 876.0 495.0Q921 390 999.0 312.0Q1077 234 1182.0 189.0Q1287 144 1406 144Z" style="fill:#000000;stroke:none" transform="scale(1,-1) translate(0,-256)" /></svg>