<?xml version="1.0" encoding="utf-8" ?>
<svg baseProfile="full" height="256" version="1.1" width="256" xmlns="http://www.w3.org/2000/svg" xmlns:ev="http://www.w3.org/2001/xml-events" xmlns:xlink="http://www.w3.org/1999/xlink"><defs /><path d="M1837 791Q1882 791 1921.0 774.0Q1960 757 1989.5 727.5Q2019 698 2036.0 659.0Q2053 620 2053 575H1981Q1981 605 1960.0 626.0Q1939 647 1909 647H1693Q1663 647 1642.5 625.5Q1622 604 1622 575H1550Q1550 620 1567.0 659.0Q1584 698 1613.0 727.5Q1642 757 1681.0 774.0Q1720 791 1765 791ZM1190 575Q1190 605 1169.0 626.0Q1148 647 1118 647H903Q873 647 852.0 626.0Q831 605 831 575H759Q759 620 776.0 659.0Q793 698 822.5 727.5Q852 757 891.0 774.0Q930 791 975 791H1047Q1092 791 1131.0 774.0Q1170 757 1199.0 727.5Q1228 698 1245.0 659.0Q1262 620 1262 575ZM975 109Q975 147 1007 169Q1048 199 1097.0 221.0Q1146 243 1197.5 257.5Q1249 272 1302.5 279.5Q1356 287 1406 287Q1456 287 1509.5 279.5Q1563 272 1614.5 257.5Q1666 243 1715.0 221.0Q1764 199 1805 169Q1837 147 1837 109Q1837 79 1816.0 58.0Q1795 37 1765 37Q1754 37 1744.0 40.5Q1734 44 1725 49Q1648 95 1572.5 119.5Q1497 144 1406 144Q1360 144 1319.0 138.0Q1278 132 1239.5 120.0Q1201 108 1163.5 90.0Q1126 72 1087 49Q1078 44 1068.0 40.5Q1058 37 1047 37Q1017 37 996.0 58.0Q975 79 975 109Z" style="fill:#000000;stroke:none" transform="scale(1,-1) translate(0,-256)" /></svg>