<?xml version="1.0" encoding="utf-8" ?>
<svg baseProfile="full" height="256" version="1.1" width="256" xmlns="http://www.w3.org/2000/svg" xmlns:ev="http://www.w3.org/2001/xml-events" xmlns:xlink="http://www.w3.org/1999/xlink"><defs /><path d="M561 1294H1532Q1518 1235 1496.0 1186.5Q1474 1138 1444.5 1095.5Q1415 1053 1378.0 1013.5Q1341 974 1298 935Q1216 861 1167.0 774.5Q1118 688 1118 575V431H975V575Q975 632 962.0 681.5Q949 731 925.5 775.0Q902 819 869.0 858.0Q836 897 795 935Q752 974 715.5 1013.5Q679 1053 649.5 1096.0Q620 1139 597.5 1187.5Q575 1236 561 1294ZM831 252Q831 267 841.5 277.5Q852 288 867 288Q882 288 892.5 277.5Q903 267 903 252Q903 237 892.5 226.5Q882 216 867 216Q852 216 841.5 226.5Q831 237 831 252ZM831 36Q831 51 841.5 61.5Q852 72 867 72Q882 72 892.5 61.5Q903 51 903 36Q903 21 892.5 10.5Q882 0 867 0Q852 0 841.5 10.5Q831 21 831 36ZM615 36Q615 51 625.5 61.5Q636 72 651 72Q666 72 676.5 61.5Q687 51 687 36Q687 21 676.5 10.5Q666 0 651 0Q636 0 625.5 10.5Q615 21 615 36Z" style="fill:#ffc83d;stroke:none" transform="scale(1,-1) translate(0,-256)" /></svg>