<?xml version="1.0" encoding="utf-8" ?>
<svg baseProfile="full" height="256" version="1.1" width="256" xmlns="http://www.w3.org/2000/svg" xmlns:ev="http://www.w3.org/2001/xml-events" xmlns:xlink="http://www.w3.org/1999/xlink"><defs /><path d="M472 -72Q472 62 523.0 188.0Q574 314 665 413Q688 437 712.0 458.5Q736 480 759 503Q794 540 812.5 586.0Q831 632 831 683Q831 734 812.5 780.0Q794 826 759 863Q736 886 712.0 907.5Q688 929 665 953Q574 1052 523.0 1178.0Q472 1304 472 1438Q497 1470 539.0 1494.5Q581 1519 632.5 1536.5Q684 1554 741.0 1565.5Q798 1577 853.5 1584.0Q909 1591 960.0 1593.5Q1011 1596 1050 1596Q1088 1596 1138.5 1593.5Q1189 1591 1244.5 1584.5Q1300 1578 1356.5 1567.0Q1413 1556 1464.0 1538.5Q1515 1521 1556.0 1496.0Q1597 1471 1622 1438Q1622 1303 1570.5 1177.5Q1519 1052 1428 953Q1405 929 1381.0 907.5Q1357 886 1334 863Q1299 826 1280.5 780.0Q1262 734 1262 683Q1262 632 1280.5 586.0Q1299 540 1334 503Q1357 480 1381.0 458.5Q1405 437 1428 413Q1519 314 1570.5 188.5Q1622 63 1622 -72Q1603 -105 1563.5 -128.5Q1524 -152 1473.5 -168.0Q1423 -184 1365.0 -193.5Q1307 -203 1251.5 -208.5Q1196 -214 1146.0 -215.5Q1096 -217 1062 -217Q999 -217 927.0 -213.5Q855 -210 782.5 -198.5Q710 -187 641.5 -166.5Q573 -146 519 -113Q504 -104 493.0 -95.5Q482 -87 472 -72Z" style="fill:#f2f2f2;stroke:none" transform="scale(1,-1) translate(0,-256)" /></svg>