<?xml version="1.0" encoding="utf-8" ?>
<svg baseProfile="full" height="256" version="1.1" width="256" xmlns="http://www.w3.org/2000/svg" xmlns:ev="http://www.w3.org/2001/xml-events" xmlns:xlink="http://www.w3.org/1999/xlink"><defs /><path d="M1622 1653Q1651 1653 1672.0 1631.5Q1693 1610 1693 1581Q1693 1552 1672.0 1531.0Q1651 1510 1622 1510H472Q443 1510 421.5 1531.0Q400 1552 400 1581Q400 1611 421.0 1632.0Q442 1653 472 1653ZM472 -287Q442 -287 421.0 -266.0Q400 -245 400 -215Q400 -186 421.5 -165.0Q443 -144 472 -144H1622Q1651 -144 1672.0 -165.0Q1693 -186 1693 -215Q1693 -244 1672.0 -265.5Q1651 -287 1622 -287Z" style="fill:#f03a17;stroke:none" transform="scale(1,-1) translate(0,-256)" /></svg>