<?xml version="1.0" encoding="utf-8" ?>
<svg baseProfile="full" height="256" version="1.1" width="256" xmlns="http://www.w3.org/2000/svg" xmlns:ev="http://www.w3.org/2001/xml-events" xmlns:xlink="http://www.w3.org/1999/xlink"><defs /><path d="M472 -431Q427 -431 388.0 -414.0Q349 -397 319.5 -367.5Q290 -338 273.0 -299.0Q256 -260 256 -215Q256 -170 275.0 -127.5Q294 -85 328 -55Q331 105 388.5 241.5Q446 378 549 499Q566 519 583.5 537.5Q601 556 621 573Q631 581 641.5 589.5Q652 598 660 608Q674 624 680.5 643.0Q687 662 687 683Q687 704 680.5 723.0Q674 742 660 758Q652 768 641.5 776.5Q631 785 621 793Q601 810 583.5 828.5Q566 847 549 867Q446 988 388.5 1124.5Q331 1261 328 1421Q294 1451 275.0 1493.5Q256 1536 256 1581Q256 1626 273.0 1665.0Q290 1704 319.5 1733.5Q349 1763 388.0 1780.0Q427 1797 472 1797H1622Q1666 1797 1705.0 1779.5Q1744 1762 1773.5 1732.5Q1803 1703 1820.0 1663.5Q1837 1624 1837 1581Q1837 1536 1818.0 1493.5Q1799 1451 1765 1421Q1762 1261 1704.5 1124.5Q1647 988 1544 867Q1527 847 1509.5 828.5Q1492 810 1472 793Q1462 785 1452.0 776.5Q1442 768 1433 758Q1419 742 1412.5 723.0Q1406 704 1406 683Q1406 662 1412.5 643.0Q1419 624 1433 608Q1442 598 1452.0 589.5Q1462 581 1472 573Q1492 556 1509.5 537.5Q1527 519 1544 499Q1647 378 1704.5 241.5Q1762 105 1765 -55Q1799 -85 1818.0 -127.5Q1837 -170 1837 -215Q1837 -259 1820.0 -298.0Q1803 -337 1773.5 -366.5Q1744 -396 1705.0 -413.5Q1666 -431 1622 -431Z" style="fill:#000000;stroke:none" transform="scale(1,-1) translate(0,-256)" /></svg>