<?xml version="1.0" encoding="utf-8" ?>
<svg baseProfile="full" height="256" version="1.1" width="256" xmlns="http://www.w3.org/2000/svg" xmlns:ev="http://www.w3.org/2001/xml-events" xmlns:xlink="http://www.w3.org/1999/xlink"><defs /><path d="M2106 735Q2187 697 2267.0 648.5Q2347 600 2411.5 536.5Q2476 473 2516.0 394.0Q2556 315 2556 216Q2556 131 2525.5 58.5Q2495 -14 2443.0 -74.5Q2391 -135 2322.5 -184.0Q2254 -233 2178.5 -270.5Q2103 -308 2025.0 -335.0Q1947 -362 1876 -379Q1760 -406 1642.5 -418.5Q1525 -431 1406 -431Q1287 -431 1169.5 -418.5Q1052 -406 936 -379Q865 -362 787.0 -335.0Q709 -308 633.5 -270.5Q558 -233 489.5 -184.0Q421 -135 369.0 -74.5Q317 -14 286.5 58.5Q256 131 256 216Q256 286 277.5 348.0Q299 410 336.5 463.0Q374 516 424.0 561.0Q474 606 531.0 642.5Q588 679 649.0 708.0Q710 737 769 758L748 785Q701 846 663.0 903.5Q625 961 599.0 1021.5Q573 1082 559.0 1148.5Q545 1215 545 1294Q545 1361 558.0 1431.5Q571 1502 597.0 1569.0Q623 1636 660.5 1696.0Q698 1756 748 1803Q783 1835 819.0 1852.0Q855 1869 903 1869Q938 1869 971.0 1857.5Q1004 1846 1031.0 1826.0Q1058 1806 1078.0 1778.0Q1098 1750 1108 1716Q1129 1746 1152.0 1774.0Q1175 1802 1202.0 1823.0Q1229 1844 1261.5 1856.5Q1294 1869 1334 1869Q1370 1869 1402.5 1858.0Q1435 1847 1462.0 1826.5Q1489 1806 1509.0 1778.0Q1529 1750 1539 1716Q1561 1746 1583.5 1774.0Q1606 1802 1633.0 1823.0Q1660 1844 1692.0 1856.5Q1724 1869 1765 1869Q1810 1869 1849.0 1852.0Q1888 1835 1917.5 1805.5Q1947 1776 1964.0 1737.0Q1981 1698 1981 1653Q1981 1616 1970.5 1588.0Q1960 1560 1944.0 1535.5Q1928 1511 1909.0 1487.5Q1890 1464 1874.0 1436.5Q1858 1409 1847.5 1374.0Q1837 1339 1837 1293Q1837 1260 1842.0 1232.5Q1847 1205 1857.5 1180.0Q1868 1155 1883.5 1131.5Q1899 1108 1920 1084Q1956 1041 1985.0 1002.0Q2014 963 2036.5 922.5Q2059 882 2076.5 836.5Q2094 791 2106 735Z" style="fill:#000000;stroke:none" transform="scale(1,-1) translate(0,-256)" /></svg>