<?xml version="1.0" encoding="utf-8" ?>
<svg baseProfile="full" height="256" version="1.1" width="256" xmlns="http://www.w3.org/2000/svg" xmlns:ev="http://www.w3.org/2001/xml-events" xmlns:xlink="http://www.w3.org/1999/xlink"><defs /><path d="M2053 601Q2111 577 2174.5 540.5Q2238 504 2290.5 455.5Q2343 407 2377.5 347.0Q2412 287 2412 216Q2412 149 2382.5 92.0Q2353 35 2304.0 -12.5Q2255 -60 2192.0 -98.0Q2129 -136 2062.0 -164.5Q1995 -193 1929.0 -213.0Q1863 -233 1809 -245Q1709 -267 1608.5 -277.0Q1508 -287 1406 -287Q1304 -287 1203.5 -277.0Q1103 -267 1003 -245Q949 -233 883.0 -213.0Q817 -193 750.0 -164.5Q683 -136 620.0 -98.0Q557 -60 508.0 -12.5Q459 35 429.5 92.0Q400 149 400 216Q400 275 423.5 326.0Q447 377 486.0 420.5Q525 464 575.5 500.0Q626 536 681.0 564.5Q736 593 791.5 614.0Q847 635 895 649Q903 609 903 574Q903 541 897 508Q862 497 813.5 478.0Q765 459 721.0 431.5Q677 404 646.0 368.0Q615 332 615 288Q615 247 641.0 212.5Q667 178 709.0 150.5Q751 123 803.0 102.0Q855 81 907.5 65.5Q960 50 1007.0 40.0Q1054 30 1086 25Q1166 12 1245.5 6.0Q1325 0 1406 0Q1487 0 1566.5 6.0Q1646 12 1726 25Q1757 30 1804.5 40.0Q1852 50 1904.0 65.5Q1956 81 2008.5 102.5Q2061 124 2103.0 151.5Q2145 179 2171.0 213.0Q2197 247 2197 288Q2197 317 2183.5 342.0Q2170 367 2149.0 388.0Q2128 409 2102.5 425.0Q2077 441 2053 452ZM1334 144Q1304 144 1283.0 165.0Q1262 186 1262 216Q1262 233 1267.0 243.0Q1272 253 1282 266Q1291 278 1301.0 288.5Q1311 299 1320 311Q1362 366 1384.0 436.0Q1406 506 1406 575Q1406 667 1374.0 742.0Q1342 817 1282 885Q1201 976 1159.5 1073.5Q1118 1171 1118 1294Q1118 1346 1128.5 1403.5Q1139 1461 1160.0 1515.5Q1181 1570 1211.5 1619.0Q1242 1668 1282 1703Q1295 1714 1305.5 1719.5Q1316 1725 1334 1725Q1363 1725 1384.5 1704.0Q1406 1683 1406 1654Q1406 1637 1401.0 1626.5Q1396 1616 1386 1603Q1377 1591 1367.0 1580.5Q1357 1570 1348 1558Q1306 1503 1284.0 1433.0Q1262 1363 1262 1294Q1262 1202 1294.0 1127.5Q1326 1053 1386 985Q1467 894 1508.0 796.0Q1549 698 1549 575Q1549 522 1538.5 465.0Q1528 408 1507.5 353.0Q1487 298 1456.5 249.5Q1426 201 1386 166Q1373 155 1362.5 149.5Q1352 144 1334 144ZM903 144Q873 144 852.0 165.0Q831 186 831 216Q831 232 836.5 243.0Q842 254 851 266Q860 278 870.0 288.5Q880 299 889 311Q931 366 953.0 436.0Q975 506 975 575Q975 667 943.0 742.0Q911 817 851 885Q770 976 728.5 1073.5Q687 1171 687 1294Q687 1346 697.5 1403.5Q708 1461 729.0 1515.5Q750 1570 780.5 1619.0Q811 1668 851 1703Q864 1714 874.5 1719.5Q885 1725 903 1725Q933 1725 954.0 1704.0Q975 1683 975 1653Q975 1636 970.0 1626.0Q965 1616 955 1603Q946 1591 936.0 1580.5Q926 1570 917 1558Q875 1503 853.0 1433.0Q831 1363 831 1294Q831 1202 863.0 1127.5Q895 1053 955 985Q1036 894 1077.0 796.0Q1118 698 1118 575Q1118 524 1107.0 467.0Q1096 410 1075.5 354.5Q1055 299 1024.5 250.0Q994 201 955 166Q942 155 931.0 149.5Q920 144 903 144ZM1765 144Q1735 144 1714.0 165.0Q1693 186 1693 216Q1693 233 1698.5 243.0Q1704 253 1714 266Q1723 278 1733.0 288.5Q1743 299 1752 311Q1794 367 1815.5 436.5Q1837 506 1837 575Q1837 666 1805.5 742.0Q1774 818 1714 885Q1633 976 1591.5 1073.5Q1550 1171 1550 1294Q1550 1347 1560.5 1404.0Q1571 1461 1592.0 1515.5Q1613 1570 1643.5 1618.5Q1674 1667 1714 1703Q1728 1715 1738.0 1720.0Q1748 1725 1766 1725Q1795 1725 1816.0 1703.5Q1837 1682 1837 1653Q1837 1636 1832.0 1626.0Q1827 1616 1817 1603Q1808 1591 1798.0 1580.5Q1788 1570 1779 1558Q1737 1503 1715.0 1433.0Q1693 1363 1693 1294Q1693 1202 1725.0 1127.5Q1757 1053 1817 985Q1898 894 1939.0 796.0Q1980 698 1980 575Q1980 522 1969.5 465.0Q1959 408 1938.5 353.0Q1918 298 1887.5 249.5Q1857 201 1817 166Q1804 155 1793.5 149.5Q1783 144 1765 144Z" style="fill:#f03a17;stroke:none" transform="scale(1,-1) translate(0,-256)" /></svg>