<?xml version="1.0" encoding="utf-8" ?>
<svg baseProfile="full" height="256" version="1.1" width="256" xmlns="http://www.w3.org/2000/svg" xmlns:ev="http://www.w3.org/2001/xml-events" xmlns:xlink="http://www.w3.org/1999/xlink"><defs /><path d="M1406 935Q1451 935 1490.0 918.0Q1529 901 1558.0 871.5Q1587 842 1604.0 803.0Q1621 764 1621 719Q1621 674 1604.0 635.0Q1587 596 1558.0 566.5Q1529 537 1490.0 520.0Q1451 503 1406 503Q1361 503 1322.0 520.0Q1283 537 1253.5 566.5Q1224 596 1207.0 635.0Q1190 674 1190 719Q1190 764 1207.0 803.0Q1224 842 1253.5 871.5Q1283 901 1322.0 918.0Q1361 935 1406 935ZM1406 1438Q1505 1438 1597.0 1412.5Q1689 1387 1769.0 1340.0Q1849 1293 1914.5 1227.5Q1980 1162 2027.0 1082.0Q2074 1002 2099.5 910.0Q2125 818 2125 719Q2125 620 2099.5 528.0Q2074 436 2027.0 356.0Q1980 276 1914.5 210.5Q1849 145 1769.0 98.0Q1689 51 1597.0 25.5Q1505 0 1406 0Q1307 0 1215.0 25.5Q1123 51 1043.0 98.0Q963 145 897.5 210.5Q832 276 785.0 356.0Q738 436 712.5 528.0Q687 620 687 719Q687 818 712.5 910.0Q738 1002 785.0 1082.0Q832 1162 897.5 1227.5Q963 1293 1043.0 1340.0Q1123 1387 1215.0 1412.5Q1307 1438 1406 1438ZM1406 216Q1510 216 1601.5 255.5Q1693 295 1761.5 363.5Q1830 432 1869.5 523.5Q1909 615 1909 719Q1909 823 1869.5 914.5Q1830 1006 1761.5 1074.5Q1693 1143 1601.5 1182.5Q1510 1222 1406 1222Q1302 1222 1210.5 1182.5Q1119 1143 1050.5 1074.5Q982 1006 942.5 914.5Q903 823 903 719Q903 615 942.5 523.0Q982 431 1050.0 363.0Q1118 295 1210.0 255.5Q1302 216 1406 216Z" style="fill:#ffffff;stroke:none" transform="scale(1,-1) translate(0,-256)" /></svg>