<?xml version="1.0" encoding="utf-8" ?>
<svg baseProfile="full" height="256" version="1.1" width="256" xmlns="http://www.w3.org/2000/svg" xmlns:ev="http://www.w3.org/2001/xml-events" xmlns:xlink="http://www.w3.org/1999/xlink"><defs /><path d="M2268 994 2442 821Q2462 801 2473.0 774.5Q2484 748 2484 719Q2484 690 2473.0 663.5Q2462 637 2442 617L2268 444V216Q2268 186 2257.0 160.0Q2246 134 2226.5 114.5Q2207 95 2181.0 83.5Q2155 72 2125 72H1897L1723 -101Q1703 -121 1677.0 -132.5Q1651 -144 1622 -144Q1593 -144 1566.5 -132.5Q1540 -121 1520 -101L1406 13L1292 -101Q1272 -121 1245.5 -132.5Q1219 -144 1190 -144Q1161 -144 1135.0 -132.5Q1109 -121 1089 -101L946 41L464 -200Q434 -215 400 -215Q370 -215 344.0 -204.0Q318 -193 298.5 -173.5Q279 -154 267.5 -128.0Q256 -102 256 -72Q256 -37 271 -7L512 475L370 617Q350 637 339.0 663.5Q328 690 328 719Q328 748 339.0 774.5Q350 801 370 821L543 994V1222Q543 1251 554.5 1277.5Q566 1304 585.5 1323.5Q605 1343 631.5 1354.5Q658 1366 687 1366H915L1089 1539Q1131 1581 1190 1581Q1219 1581 1245.5 1570.0Q1272 1559 1292 1539L1406 1425L1520 1539Q1540 1559 1566.5 1570.0Q1593 1581 1622 1581Q1681 1581 1723 1539L1897 1366H2125Q2155 1366 2181.0 1354.5Q2207 1343 2226.5 1323.5Q2246 1304 2257.0 1278.0Q2268 1252 2268 1222Z" style="fill:#000000;stroke:none" transform="scale(1,-1) translate(0,-256)" /></svg>