<?xml version="1.0" encoding="utf-8" ?>
<svg baseProfile="full" height="256" version="1.1" width="256" xmlns="http://www.w3.org/2000/svg" xmlns:ev="http://www.w3.org/2001/xml-events" xmlns:xlink="http://www.w3.org/1999/xlink"><defs /><path d="M1256 966Q1285 966 1306.5 944.5Q1328 923 1328 894Q1328 874 1318.5 858.0Q1309 842 1292 832L1105 724L1033 849L1220 956Q1238 966 1256 966ZM1177 600 1285 413Q1295 395 1295 377Q1295 348 1273.0 326.5Q1251 305 1222 305Q1202 305 1186.0 314.5Q1170 324 1160 341L1089 465ZM1044 398Q1051 386 1061.5 369.0Q1072 352 1082.5 334.0Q1093 316 1100.5 299.0Q1108 282 1108 269Q1108 240 1086.5 218.5Q1065 197 1036 197Q1004 197 987.0 217.5Q970 238 956 264Z" style="fill:#ffffff;stroke:none" transform="scale(1,-1) translate(0,-256)" /></svg>