<?xml version="1.0" encoding="utf-8" ?>
<svg baseProfile="full" height="256" version="1.1" width="256" xmlns="http://www.w3.org/2000/svg" xmlns:ev="http://www.w3.org/2001/xml-events" xmlns:xlink="http://www.w3.org/1999/xlink"><defs /><path d="M2305 1314Q2319 1314 2330.0 1303.0Q2341 1292 2341 1278Q2341 1257 2323 1247L1701 887Q1691 882 1683 882Q1668 882 1657.5 892.5Q1647 903 1647 918Q1647 938 1665 949L2287 1309Q2297 1314 2305 1314ZM2042 1411Q2057 1411 2067.5 1400.5Q2078 1390 2078 1375Q2078 1354 2060 1344L1593 1074Q1583 1069 1575 1069Q1561 1069 1550.0 1080.0Q1539 1091 1539 1105Q1539 1114 1544.0 1122.5Q1549 1131 1557 1136L2024 1406Q2034 1411 2042 1411ZM2376 1107Q2390 1107 2401.0 1096.0Q2412 1085 2412 1071Q2412 1062 2407.0 1053.5Q2402 1045 2394 1040L1809 701Q1806 699 1800.5 697.5Q1795 696 1791 696Q1777 696 1766.0 707.0Q1755 718 1755 732Q1755 741 1760.0 749.5Q1765 758 1773 763L2358 1102Q2368 1107 2376 1107Z" style="fill:#b3dbf2;stroke:none" transform="scale(1,-1) translate(0,-256)" /></svg>