<?xml version="1.0" encoding="utf-8" ?>
<svg baseProfile="full" height="256" version="1.1" width="256" xmlns="http://www.w3.org/2000/svg" xmlns:ev="http://www.w3.org/2001/xml-events" xmlns:xlink="http://www.w3.org/1999/xlink"><defs /><path d="M2474 1220Q2513 1194 2534.5 1154.5Q2556 1115 2556 1067Q2556 943 2555.5 821.0Q2555 699 2555 575L972 -364Q915 -397 851.0 -414.0Q787 -431 721 -431Q654 -431 590.0 -413.5Q526 -396 469.5 -363.5Q413 -331 365.5 -284.5Q318 -238 285 -179Q256 -129 256 -72Q256 -28 273.0 11.5Q290 51 319.0 80.5Q348 110 387.5 127.0Q427 144 471 144Q534 144 570.0 121.5Q606 99 629.0 72.0Q652 45 671.5 22.5Q691 0 721 0Q733 0 747.5 5.5Q762 11 776.5 19.5Q791 28 804.5 37.0Q818 46 829 52L742 202L1008 605Q937 729 866.5 850.5Q796 972 722 1094Q696 1137 696 1187Q696 1227 710.5 1259.5Q725 1292 750.5 1315.5Q776 1339 810.0 1352.0Q844 1365 883 1365Q896 1414 925.0 1465.0Q954 1516 995.0 1558.0Q1036 1600 1086.0 1626.5Q1136 1653 1191 1653Q1248 1653 1298.5 1624.5Q1349 1596 1378 1546L1528 1285L1952 1530Q1994 1554 2042 1554Q2102 1554 2147.0 1520.5Q2192 1487 2212 1432L2215 1433L2219 1435Q2242 1445 2260.5 1451.0Q2279 1457 2305 1457Q2342 1457 2374.5 1443.0Q2407 1429 2431.5 1405.0Q2456 1381 2470.5 1348.5Q2485 1316 2485 1279Q2485 1265 2482.5 1249.0Q2480 1233 2474 1220Z" style="fill:#000000;stroke:none" transform="scale(1,-1) translate(0,-256)" /></svg>