<?xml version="1.0" encoding="utf-8" ?>
<svg baseProfile="full" height="256" version="1.1" width="256" xmlns="http://www.w3.org/2000/svg" xmlns:ev="http://www.w3.org/2001/xml-events" xmlns:xlink="http://www.w3.org/1999/xlink"><defs /><path d="M1361 1287 1209 1044H926Q920 1050 906.0 1069.5Q892 1089 877.0 1112.5Q862 1136 851.0 1157.0Q840 1178 840 1186Q840 1202 850.5 1211.5Q861 1221 876 1221H1013Q1012 1228 1012.0 1235.0Q1012 1242 1012 1249Q1012 1326 1050.0 1394.0Q1088 1462 1155 1500Q1173 1510 1191 1510Q1211 1510 1227.0 1500.5Q1243 1491 1253 1474Z" style="fill:#cccccc;stroke:none" transform="scale(1,-1) translate(0,-256)" /></svg>