<?xml version="1.0" encoding="utf-8" ?>
<svg baseProfile="full" height="256" version="1.1" width="256" xmlns="http://www.w3.org/2000/svg" xmlns:ev="http://www.w3.org/2001/xml-events" xmlns:xlink="http://www.w3.org/1999/xlink"><defs /><path d="M721 -144Q778 -144 828 -115L2411 804V638L900 -239Q859 -262 813.5 -274.5Q768 -287 721 -287Q675 -287 629.0 -274.5Q583 -262 541.0 -239.0Q499 -216 465.0 -182.5Q431 -149 409 -108Q404 -99 401.5 -91.0Q399 -83 399 -72Q399 -43 420.5 -21.5Q442 0 471 0Q493 0 507.5 -9.5Q522 -19 534 -36Q569 -88 612.5 -116.0Q656 -144 721 -144Z" style="fill:#31d2f7;stroke:none" transform="scale(1,-1) translate(0,-256)" /></svg>