<?xml version="1.0" encoding="utf-8" ?>
<svg baseProfile="full" height="256" version="1.1" width="256" xmlns="http://www.w3.org/2000/svg" xmlns:ev="http://www.w3.org/2001/xml-events" xmlns:xlink="http://www.w3.org/1999/xlink"><defs /><path d="M2336 1075Q2408 1003 2446.0 912.0Q2484 821 2484 719Q2484 612 2446.0 526.0Q2408 440 2336 362Q2327 297 2301.5 236.5Q2276 176 2236.5 125.0Q2197 74 2145.5 33.5Q2094 -7 2033 -32Q1997 -47 1965.5 -55.0Q1934 -63 1903.0 -67.0Q1872 -71 1840.5 -71.5Q1809 -72 1772 -72H1758Q1681 -140 1596.0 -177.5Q1511 -215 1406 -215Q1301 -215 1216.0 -177.5Q1131 -140 1054 -72H1020Q990 -72 960.5 -71.0Q931 -70 901 -66Q895 -109 875.5 -147.5Q856 -186 826.0 -216.0Q796 -246 757.5 -264.5Q719 -283 675 -286Q666 -318 645.0 -344.5Q624 -371 596.5 -390.5Q569 -410 536.5 -420.5Q504 -431 472 -431Q427 -431 387.5 -414.0Q348 -397 319.0 -368.0Q290 -339 273.0 -299.5Q256 -260 256 -215Q256 -183 266.5 -150.5Q277 -118 296.5 -90.5Q316 -63 342.5 -42.0Q369 -21 401 -12Q406 51 442.5 104.5Q479 158 535 187Q490 268 476 362Q404 440 366.0 526.0Q328 612 328 719Q328 821 366.0 912.0Q404 1003 476 1075Q485 1141 510.5 1201.0Q536 1261 575.5 1312.0Q615 1363 666.5 1403.5Q718 1444 779 1470Q815 1485 846.0 1493.0Q877 1501 907.0 1505.0Q937 1509 968.0 1509.5Q999 1510 1035 1510H1054Q1131 1578 1216.0 1615.5Q1301 1653 1406 1653Q1511 1653 1596.0 1615.5Q1681 1578 1758 1510H1772Q1809 1510 1841.0 1509.5Q1873 1509 1903.5 1505.0Q1934 1501 1965.5 1493.0Q1997 1485 2033 1470Q2094 1444 2145.5 1403.5Q2197 1363 2236.5 1312.0Q2276 1261 2301.5 1201.0Q2327 1141 2336 1075Z" style="fill:#000000;stroke:none" transform="scale(1,-1) translate(0,-256)" /></svg>