<?xml version="1.0" encoding="utf-8" ?>
<svg baseProfile="full" height="256" version="1.1" width="256" xmlns="http://www.w3.org/2000/svg" xmlns:ev="http://www.w3.org/2001/xml-events" xmlns:xlink="http://www.w3.org/1999/xlink"><defs /><path d="M472 -144Q501 -144 522.0 -165.0Q543 -186 543 -215Q543 -244 522.0 -265.5Q501 -287 472 -287Q442 -287 421.0 -266.0Q400 -245 400 -215Q400 -186 421.5 -165.0Q443 -144 472 -144ZM651 72Q673 72 693.0 63.5Q713 55 727.5 40.5Q742 26 750.5 6.0Q759 -14 759 -36Q759 -58 750.5 -77.5Q742 -97 727.0 -112.0Q712 -127 692.5 -135.5Q673 -144 651 -144Q629 -144 609.5 -135.5Q590 -127 575.0 -112.0Q560 -97 551.5 -77.5Q543 -58 543 -36Q543 -14 551.5 5.5Q560 25 575.0 40.0Q590 55 609.5 63.5Q629 72 651 72ZM615 1006Q615 1081 643.5 1146.5Q672 1212 720.5 1260.5Q769 1309 834.5 1337.5Q900 1366 975 1366H1118Q1169 1434 1245.0 1472.0Q1321 1510 1406 1510Q1491 1510 1566.5 1472.0Q1642 1434 1693 1366H1837Q1912 1366 1977.5 1337.5Q2043 1309 2091.5 1260.5Q2140 1212 2168.5 1146.5Q2197 1081 2197 1006Q2266 955 2303.0 879.5Q2340 804 2340 719Q2340 634 2302.5 558.0Q2265 482 2197 431Q2197 357 2168.5 291.5Q2140 226 2091.0 177.5Q2042 129 1976.5 100.5Q1911 72 1837 72H1693Q1642 4 1566.5 -34.0Q1491 -72 1406 -72Q1321 -72 1245.0 -34.0Q1169 4 1118 72H975Q901 72 835.5 100.5Q770 129 721.0 177.5Q672 226 643.5 291.5Q615 357 615 431Q547 482 509.5 558.0Q472 634 472 719Q472 804 509.0 879.5Q546 955 615 1006Z" style="fill:#ffffff;stroke:none" transform="scale(1,-1) translate(0,-256)" /></svg>