<?xml version="1.0" encoding="utf-8" ?>
<svg baseProfile="full" height="256" version="1.1" width="256" xmlns="http://www.w3.org/2000/svg" xmlns:ev="http://www.w3.org/2001/xml-events" xmlns:xlink="http://www.w3.org/1999/xlink"><defs /><path d="M1586 0Q1689 0 1786.5 19.5Q1884 39 1981 72V-3Q1887 -38 1786.5 -55.0Q1686 -72 1586 -72Q1490 -72 1397.0 -56.5Q1304 -41 1213 -11L458 241Q459 248 461.5 256.0Q464 264 467.5 271.0Q471 278 477.0 283.0Q483 288 492 288Q513 288 533.0 286.5Q553 285 573 278L1236 57Q1405 0 1586 0Z" style="fill:#83beec;stroke:none" transform="scale(1,-1) translate(0,-256)" /></svg>