<?xml version="1.0" encoding="utf-8" ?>
<svg baseProfile="full" height="256" version="1.1" width="256" xmlns="http://www.w3.org/2000/svg" xmlns:ev="http://www.w3.org/2001/xml-events" xmlns:xlink="http://www.w3.org/1999/xlink"><defs /><path d="M2272 -144H2374Q2353 -163 2328 -172Q2261 -194 2201.0 -215.0Q2141 -236 2081.5 -252.0Q2022 -268 1960.5 -277.5Q1899 -287 1829 -287H1627Q1588 -287 1550.0 -283.5Q1512 -280 1474 -274L1237 -235Q1202 -229 1177.5 -222.0Q1153 -215 1118 -215H975V-287H472V-215Q459 -198 448.5 -180.5Q438 -163 428 -144H1130L1481 -203Q1553 -215 1627 -215H1829Q1900 -215 1967.0 -204.0Q2034 -193 2101 -171Q2183 -144 2272 -144ZM2010 35Q2013 30 2020.0 17.0Q2027 4 2034.5 -10.5Q2042 -25 2047.5 -38.0Q2053 -51 2053 -55Q2053 -63 2048.0 -67.5Q2043 -72 2035 -72H1927Q1919 -72 1914.0 -67.0Q1909 -62 1909 -55Q1909 -50 1914.5 -37.0Q1920 -24 1927.5 -10.0Q1935 4 1942.0 17.0Q1949 30 1952 36Q1949 42 1942.0 54.5Q1935 67 1927.5 81.0Q1920 95 1914.5 107.5Q1909 120 1909 125Q1909 133 1914.0 138.0Q1919 143 1927 143H2035Q2043 143 2048.0 138.0Q2053 133 2053 125Q2053 120 2047.5 107.5Q2042 95 2034.5 81.0Q2027 67 2020.0 54.0Q2013 41 2010 35Z" style="fill:#0063b1;stroke:none" transform="scale(1,-1) translate(0,-256)" /></svg>