<?xml version="1.0" encoding="utf-8" ?>
<svg baseProfile="full" height="256" version="1.1" width="256" xmlns="http://www.w3.org/2000/svg" xmlns:ev="http://www.w3.org/2001/xml-events" xmlns:xlink="http://www.w3.org/1999/xlink"><defs /><path d="M429 -143Q400 -79 400 -9Q400 22 406.0 54.0Q412 86 421.0 117.5Q430 149 440.0 180.5Q450 212 458 241L1219 33Q1277 17 1350.5 6.5Q1424 -4 1501.0 -10.0Q1578 -16 1653.0 -18.5Q1728 -21 1790 -21L1981 72H2290Q2317 72 2339.0 62.0Q2361 52 2377.5 34.5Q2394 17 2403.0 -6.0Q2412 -29 2412 -55Q2412 -81 2402.0 -103.0Q2392 -125 2374 -144Q2372 -146 2350.5 -150.5Q2329 -155 2294.5 -161.0Q2260 -167 2216.0 -174.5Q2172 -182 2125.0 -189.5Q2078 -197 2032.0 -204.5Q1986 -212 1948.0 -217.5Q1910 -223 1882.5 -227.5Q1855 -232 1846 -233Q1823 -237 1794.0 -243.0Q1765 -249 1742 -249Q1704 -249 1663.5 -244.0Q1623 -239 1584 -235L1291 -210Q1074 -192 860.0 -175.0Q646 -158 429 -143Z" style="fill:#3a96dd;stroke:none" transform="scale(1,-1) translate(0,-256)" /></svg>