<?xml version="1.0" encoding="utf-8" ?>
<svg baseProfile="full" height="256" version="1.1" width="256" xmlns="http://www.w3.org/2000/svg" xmlns:ev="http://www.w3.org/2001/xml-events" xmlns:xlink="http://www.w3.org/1999/xlink"><defs /><path d="M1679 544H1204Q1195 483 1179.5 430.5Q1164 378 1141.5 330.0Q1119 282 1088.5 236.5Q1058 191 1018 145Q1013 139 1004.5 130.0Q996 121 987 121Q978 121 968.0 131.0Q958 141 952 147Q930 168 903.5 184.5Q877 201 849 213Q908 270 957.5 337.5Q1007 405 1030 485Q1044 534 1052.0 585.5Q1060 637 1064.0 689.5Q1068 742 1069.0 794.5Q1070 847 1070 898V1096Q1070 1142 1068.5 1187.0Q1067 1232 1067 1278Q1067 1294 1083 1294Q1128 1294 1172.0 1292.0Q1216 1290 1261 1290H1643Q1687 1290 1730.5 1292.0Q1774 1294 1818 1294Q1835 1294 1835 1278Q1835 1232 1834.5 1187.0Q1834 1142 1834 1096V603Q1834 525 1835.5 449.0Q1837 373 1837 295Q1837 235 1816.5 201.5Q1796 168 1762.0 152.0Q1728 136 1684.5 133.0Q1641 130 1595 130H1573Q1559 130 1545.5 131.0Q1532 132 1520 138Q1508 175 1495.0 217.0Q1482 259 1463 292Q1506 288 1548.0 287.0Q1590 286 1633 286Q1679 286 1679 331ZM1679 683V851H1225Q1223 809 1222.5 767.0Q1222 725 1218 683ZM1679 988V1150H1225V988Z" style="fill:#ffffff;stroke:none" transform="scale(1,-1) translate(0,-256)" /></svg>