<?xml version="1.0" encoding="utf-8" ?>
<svg baseProfile="full" height="256" version="1.1" width="256" xmlns="http://www.w3.org/2000/svg" xmlns:ev="http://www.w3.org/2001/xml-events" xmlns:xlink="http://www.w3.org/1999/xlink"><defs /><path d="M1118 288Q1044 288 978.5 316.0Q913 344 864.0 393.0Q815 442 787.0 507.5Q759 573 759 647Q759 721 787.5 786.5Q816 852 864.5 900.5Q913 949 978.5 977.5Q1044 1006 1118 1006H2125V503H1981V288ZM795 1581Q781 1581 770.0 1592.0Q759 1603 759 1617Q759 1632 769.5 1642.5Q780 1653 795 1653H1083Q1097 1653 1107.5 1642.0Q1118 1631 1118 1617Q1118 1603 1107.5 1592.0Q1097 1581 1083 1581Z" style="fill:#000000;stroke:none" transform="scale(1,-1) translate(0,-256)" /></svg>