<?xml version="1.0" encoding="utf-8" ?>
<svg baseProfile="full" height="256" version="1.1" width="256" xmlns="http://www.w3.org/2000/svg" xmlns:ev="http://www.w3.org/2001/xml-events" xmlns:xlink="http://www.w3.org/1999/xlink"><defs /><path d="M1114 446Q1070 446 1033.5 461.5Q997 477 971.5 504.0Q946 531 932.0 568.0Q918 605 918 649Q918 694 932.0 733.5Q946 773 972.0 801.5Q998 830 1035.5 846.5Q1073 863 1120 863Q1166 863 1201.5 847.5Q1237 832 1262.0 804.0Q1287 776 1300.0 738.5Q1313 701 1313 657Q1313 612 1299.5 573.5Q1286 535 1260.0 506.5Q1234 478 1197.0 462.0Q1160 446 1114 446ZM1981 782H1839V683H1969V610H1839V453H1748V856H1981ZM1649 782H1507V683H1637V610H1507V453H1416V856H1649ZM1118 785Q1091 785 1071.0 773.5Q1051 762 1038.5 743.5Q1026 725 1020.0 701.5Q1014 678 1014 654Q1014 630 1019.5 607.0Q1025 584 1037.0 565.5Q1049 547 1068.5 536.0Q1088 525 1115 525Q1143 525 1162.5 535.5Q1182 546 1194.0 563.5Q1206 581 1211.5 604.0Q1217 627 1217 652Q1217 676 1212.0 700.0Q1207 724 1196.0 742.5Q1185 761 1165.5 773.0Q1146 785 1118 785Z" style="fill:#f2f2f2;stroke:none" transform="scale(1,-1) translate(0,-256)" /></svg>