<?xml version="1.0" encoding="utf-8" ?>
<svg baseProfile="full" height="256" version="1.1" width="256" xmlns="http://www.w3.org/2000/svg" xmlns:ev="http://www.w3.org/2001/xml-events" xmlns:xlink="http://www.w3.org/1999/xlink"><defs /><path d="M436 -431Q398 -431 365.5 -417.0Q333 -403 308.5 -378.5Q284 -354 270.0 -321.5Q256 -289 256 -251V1689Q256 1726 270.0 1759.0Q284 1792 308.5 1816.5Q333 1841 365.5 1855.0Q398 1869 436 1869H1442Q1479 1869 1512.0 1855.0Q1545 1841 1569.5 1816.5Q1594 1792 1608.0 1759.0Q1622 1726 1622 1689V-251Q1622 -289 1608.0 -321.5Q1594 -354 1569.5 -378.5Q1545 -403 1512.0 -417.0Q1479 -431 1442 -431Z" style="fill:#000000;stroke:none" transform="scale(1,-1) translate(0,-256)" /></svg>