<?xml version="1.0" encoding="utf-8" ?>
<svg baseProfile="full" height="256" version="1.1" width="256" xmlns="http://www.w3.org/2000/svg" xmlns:ev="http://www.w3.org/2001/xml-events" xmlns:xlink="http://www.w3.org/1999/xlink"><defs /><path d="M1871 935H2053Q2098 935 2137.0 918.0Q2176 901 2205.0 871.5Q2234 842 2251.0 803.0Q2268 764 2268 719Q2268 674 2251.0 635.0Q2234 596 2205.0 566.5Q2176 537 2137.0 520.0Q2098 503 2053 503H1871Q1861 473 1845 441L1990 296Q2020 266 2036.5 226.5Q2053 187 2053 144Q2053 99 2036.0 60.0Q2019 21 1989.5 -8.5Q1960 -38 1921.0 -55.0Q1882 -72 1837 -72Q1794 -72 1754.5 -55.5Q1715 -39 1685 -9L1540 136Q1525 128 1509.5 122.0Q1494 116 1478 110V-72Q1478 -117 1461.0 -156.0Q1444 -195 1414.5 -224.0Q1385 -253 1346.0 -270.0Q1307 -287 1262 -287Q1217 -287 1178.0 -270.0Q1139 -253 1110.0 -224.0Q1081 -195 1064.0 -156.0Q1047 -117 1047 -72V110Q1031 116 1015.0 122.0Q999 128 984 136L840 -9Q810 -39 770.0 -55.5Q730 -72 687 -72Q642 -72 603.0 -55.0Q564 -38 535.0 -8.5Q506 21 489.0 60.0Q472 99 472 144Q472 233 535 296L679 441Q672 456 665.5 471.5Q659 487 653 503H472Q427 503 388.0 520.0Q349 537 319.5 566.5Q290 596 273.0 635.0Q256 674 256 719Q256 764 273.0 803.0Q290 842 319.5 871.5Q349 901 388.0 918.0Q427 935 472 935H653Q659 951 665.5 966.5Q672 982 679 997L535 1141Q504 1172 488.0 1211.0Q472 1250 472 1294Q472 1338 489.0 1377.5Q506 1417 535.0 1446.5Q564 1476 603.5 1493.0Q643 1510 687 1510Q731 1510 770.0 1493.5Q809 1477 840 1446L984 1302Q999 1310 1015.0 1316.0Q1031 1322 1047 1328V1510Q1047 1554 1064.0 1593.0Q1081 1632 1110.5 1661.5Q1140 1691 1179.0 1708.0Q1218 1725 1262 1725Q1305 1725 1344.5 1708.0Q1384 1691 1413.5 1661.5Q1443 1632 1460.5 1593.0Q1478 1554 1478 1510V1328Q1494 1322 1509.5 1316.0Q1525 1310 1540 1302L1685 1446Q1717 1477 1754.5 1493.5Q1792 1510 1837 1510Q1882 1510 1921.0 1493.0Q1960 1476 1989.5 1446.5Q2019 1417 2036.0 1378.0Q2053 1339 2053 1294Q2053 1251 2036.5 1211.0Q2020 1171 1990 1141L1845 997Q1861 965 1871 935Z" style="fill:#000000;stroke:none" transform="scale(1,-1) translate(0,-256)" /></svg>