<?xml version="1.0" encoding="utf-8" ?>
<svg baseProfile="full" height="256" version="1.1" width="256" xmlns="http://www.w3.org/2000/svg" xmlns:ev="http://www.w3.org/2001/xml-events" xmlns:xlink="http://www.w3.org/1999/xlink"><defs /><path d="M1262 1222Q1366 1222 1457.5 1182.5Q1549 1143 1617.5 1074.5Q1686 1006 1725.5 914.5Q1765 823 1765 719Q1765 615 1725.5 523.5Q1686 432 1617.5 363.5Q1549 295 1457.5 255.5Q1366 216 1262 216Q1158 216 1066.0 255.5Q974 295 906.0 363.0Q838 431 798.5 523.0Q759 615 759 719Q759 823 798.5 914.5Q838 1006 906.5 1074.5Q975 1143 1066.5 1182.5Q1158 1222 1262 1222ZM1262 360Q1337 360 1402.5 388.0Q1468 416 1516.5 465.0Q1565 514 1593.5 579.0Q1622 644 1622 719Q1622 793 1593.5 858.5Q1565 924 1516.0 972.5Q1467 1021 1401.5 1049.5Q1336 1078 1262 1078Q1188 1078 1122.5 1049.5Q1057 1021 1008.5 972.5Q960 924 931.5 858.5Q903 793 903 719Q903 645 931.0 579.5Q959 514 1008.0 465.0Q1057 416 1122.5 388.0Q1188 360 1262 360ZM615 144Q615 174 636 195L708 267Q729 288 759 288Q789 288 810.0 267.0Q831 246 831 216Q831 186 810 165L738 93Q717 72 687 72Q657 72 636.0 93.0Q615 114 615 144ZM687 1366Q717 1366 738 1345L810 1273Q831 1252 831 1222Q831 1192 810.0 1171.0Q789 1150 759 1150Q729 1150 708 1171L636 1243Q615 1264 615 1294Q615 1324 636.0 1345.0Q657 1366 687 1366ZM1693 1222Q1693 1251 1715 1273L1786 1345Q1807 1366 1837 1366Q1867 1366 1888.0 1345.0Q1909 1324 1909 1294Q1909 1264 1888 1243L1816 1171Q1795 1150 1765 1150Q1736 1150 1714.5 1171.5Q1693 1193 1693 1222ZM1765 288Q1795 288 1816 267L1888 195Q1909 174 1909 144Q1909 114 1888.0 93.0Q1867 72 1837 72Q1807 72 1786 93L1715 165Q1693 187 1693 216Q1693 245 1714.5 266.5Q1736 288 1765 288ZM2053 791Q2083 791 2104.0 770.0Q2125 749 2125 719Q2125 689 2104.0 668.0Q2083 647 2053 647H1981Q1951 647 1930.0 668.0Q1909 689 1909 719Q1909 749 1930.0 770.0Q1951 791 1981 791ZM1262 72Q1292 72 1313.0 51.0Q1334 30 1334 0V-72Q1334 -101 1312.5 -122.5Q1291 -144 1262 -144Q1233 -144 1211.5 -122.5Q1190 -101 1190 -72V0Q1190 29 1211.5 50.5Q1233 72 1262 72ZM543 791Q573 791 594.0 770.0Q615 749 615 719Q615 689 594.0 668.0Q573 647 543 647H472Q442 647 421.0 668.0Q400 689 400 719Q400 749 421.0 770.0Q442 791 472 791ZM1262 1581Q1291 1581 1312.5 1560.0Q1334 1539 1334 1510V1438Q1334 1408 1313.0 1387.0Q1292 1366 1262 1366Q1233 1366 1211.5 1387.5Q1190 1409 1190 1438V1510Q1190 1539 1211.5 1560.0Q1233 1581 1262 1581Z" style="fill:#fff100;stroke:none" transform="scale(1,-1) translate(0,-256)" /></svg>