<?xml version="1.0" encoding="utf-8" ?>
<svg baseProfile="full" height="256" version="1.1" width="256" xmlns="http://www.w3.org/2000/svg" xmlns:ev="http://www.w3.org/2001/xml-events" xmlns:xlink="http://www.w3.org/1999/xlink"><defs /><path d="M2125 1725H2269V1581Q2269 1491 2235.0 1412.5Q2201 1334 2142.5 1275.5Q2084 1217 2005.5 1183.5Q1927 1150 1837 1150H1694V1294Q1694 1383 1728.0 1461.5Q1762 1540 1820.5 1598.5Q1879 1657 1957.5 1691.0Q2036 1725 2125 1725ZM1622 575Q1622 650 1650.0 715.5Q1678 781 1727.0 829.5Q1776 878 1841.0 906.5Q1906 935 1981 935H2269Q2269 860 2240.5 794.5Q2212 729 2163.5 680.5Q2115 632 2049.5 603.5Q1984 575 1909 575ZM615 863Q615 937 643.5 1002.5Q672 1068 721.0 1116.5Q770 1165 835.5 1193.5Q901 1222 975 1222V935Q975 860 946.5 794.5Q918 729 869.5 680.5Q821 632 755.5 603.5Q690 575 615 575ZM1478 1438Q1478 1364 1449.5 1298.5Q1421 1233 1372.5 1184.0Q1324 1135 1258.5 1106.5Q1193 1078 1119 1078V1366Q1119 1440 1147.5 1505.5Q1176 1571 1224.5 1619.5Q1273 1668 1338.5 1696.5Q1404 1725 1478 1725ZM1119 72Q1119 147 1147.0 212.0Q1175 277 1224.0 326.0Q1273 375 1338.0 403.0Q1403 431 1478 431H1765Q1765 357 1736.5 291.5Q1708 226 1659.5 177.5Q1611 129 1545.5 100.5Q1480 72 1406 72Z" style="fill:#13a10e;stroke:none" transform="scale(1,-1) translate(0,-256)" /></svg>