<?xml version="1.0" encoding="utf-8" ?>
<svg baseProfile="full" height="256" version="1.1" width="256" xmlns="http://www.w3.org/2000/svg" xmlns:ev="http://www.w3.org/2001/xml-events" xmlns:xlink="http://www.w3.org/1999/xlink"><defs /><path d="M472 -431Q427 -431 388.0 -414.0Q349 -397 319.5 -367.5Q290 -338 273.0 -299.0Q256 -260 256 -215Q256 -184 266.5 -146.5Q277 -109 294.5 -68.0Q312 -27 335.0 14.5Q358 56 382.0 94.5Q406 133 429.5 166.5Q453 200 472 224V863Q472 967 511.5 1058.5Q551 1150 619.5 1218.5Q688 1287 779.5 1326.5Q871 1366 975 1366Q975 1470 1014.5 1561.5Q1054 1653 1122.5 1721.5Q1191 1790 1282.5 1829.5Q1374 1869 1478 1869H1622V1572Q1660 1641 1714.0 1696.0Q1768 1751 1833.0 1789.5Q1898 1828 1972.5 1848.5Q2047 1869 2125 1869H2412V1581Q2412 1503 2391.0 1429.0Q2370 1355 2331.5 1289.5Q2293 1224 2238.0 1170.0Q2183 1116 2115 1078H2412V935Q2412 831 2372.5 739.5Q2333 648 2264.5 579.5Q2196 511 2104.5 471.0Q2013 431 1909 431Q1909 327 1869.5 235.5Q1830 144 1761.5 75.5Q1693 7 1601.5 -32.5Q1510 -72 1406 -72H788Q752 -123 727.0 -175.5Q702 -228 676 -284Q660 -318 641.0 -345.5Q622 -373 597.5 -392.0Q573 -411 542.5 -421.0Q512 -431 472 -431Z" style="fill:#000000;stroke:none" transform="scale(1,-1) translate(0,-256)" /></svg>