<?xml version="1.0" encoding="utf-8" ?>
<svg baseProfile="full" height="256" version="1.1" width="256" xmlns="http://www.w3.org/2000/svg" xmlns:ev="http://www.w3.org/2001/xml-events" xmlns:xlink="http://www.w3.org/1999/xlink"><defs /><path d="M1909 1438Q1939 1438 1960.0 1417.0Q1981 1396 1981 1366Q1981 1336 1960 1315L1364 719H1837V673L1623 575H1220L861 216H1334V173L1119 72H719Q688 37 663.0 0.0Q638 -37 617.0 -75.5Q596 -114 577.0 -155.0Q558 -196 540 -238Q530 -260 513.5 -273.5Q497 -287 472 -287Q442 -287 421.0 -266.5Q400 -246 400 -216Q400 -210 401.0 -204.5Q402 -199 404 -193Q436 -92 490.5 0.5Q545 93 615 172V576L717 791H759V317L1119 677V1080L1226 1294H1262V821L1858 1417Q1879 1438 1909 1438Z" style="fill:#bad80a;stroke:none" transform="scale(1,-1) translate(0,-256)" /></svg>