<?xml version="1.0" encoding="utf-8" ?>
<svg baseProfile="full" height="256" version="1.1" width="256" xmlns="http://www.w3.org/2000/svg" xmlns:ev="http://www.w3.org/2001/xml-events" xmlns:xlink="http://www.w3.org/1999/xlink"><defs /><path d="M1406 992Q1477 992 1540.0 965.0Q1603 938 1650.0 891.0Q1697 844 1724.0 781.0Q1751 718 1751 647Q1751 576 1724.0 513.0Q1697 450 1650.0 403.0Q1603 356 1540.0 329.0Q1477 302 1406 302Q1335 302 1272.0 329.0Q1209 356 1162.0 403.0Q1115 450 1088.0 513.0Q1061 576 1061 647Q1061 719 1088.0 781.5Q1115 844 1162.0 891.0Q1209 938 1271.5 965.0Q1334 992 1406 992Z" style="fill:#2b2b2b;stroke:none" transform="scale(1,-1) translate(0,-256)" /></svg>