<?xml version="1.0" encoding="utf-8" ?>
<svg baseProfile="full" height="256" version="1.1" width="256" xmlns="http://www.w3.org/2000/svg" xmlns:ev="http://www.w3.org/2001/xml-events" xmlns:xlink="http://www.w3.org/1999/xlink"><defs /><path d="M2268 1294H2412V1006H400V1294Q425 1294 450.0 1293.0Q475 1292 500 1292Q548 1292 591.5 1307.0Q635 1322 680 1334Q689 1332 712.0 1325.5Q735 1319 759.5 1312.0Q784 1305 805.0 1299.5Q826 1294 831 1294H1047L1190 1438L1260 1364H1551L1622 1438L1765 1294H1837L1907 1334L1981 1294H2125L2195 1334Z" style="fill:#e5e5e5;stroke:none" transform="scale(1,-1) translate(0,-256)" /></svg>