<?xml version="1.0" encoding="utf-8" ?>
<svg baseProfile="full" height="256" version="1.1" width="256" xmlns="http://www.w3.org/2000/svg" xmlns:ev="http://www.w3.org/2001/xml-events" xmlns:xlink="http://www.w3.org/1999/xlink"><defs /><path d="M1717 1711Q1838 1691 1947.0 1644.0Q2056 1597 2149.5 1527.5Q2243 1458 2318.0 1369.0Q2393 1280 2446.0 1176.5Q2499 1073 2527.5 957.0Q2556 841 2556 719V-431H1188L1404 72H1322L1258 9Q1246 -85 1202.0 -165.5Q1158 -246 1091.5 -305.0Q1025 -364 939.5 -397.5Q854 -431 759 -431Q655 -431 563.5 -391.5Q472 -352 403.5 -283.5Q335 -215 295.5 -123.5Q256 -32 256 72Q256 141 274.5 202.0Q293 263 325 323L691 1006H559Q584 1076 607.0 1146.5Q630 1217 663 1283Q707 1372 770.5 1446.5Q834 1521 912.5 1577.5Q991 1634 1082.0 1670.5Q1173 1707 1272 1719Q1283 1752 1303.5 1780.0Q1324 1808 1351.0 1827.5Q1378 1847 1410.5 1858.0Q1443 1869 1478 1869Q1519 1869 1552.0 1854.5Q1585 1840 1613.5 1817.5Q1642 1795 1667.0 1767.0Q1692 1739 1717 1711Z" style="fill:#000000;stroke:none" transform="scale(1,-1) translate(0,-256)" /></svg>