<?xml version="1.0" encoding="utf-8" ?>
<svg baseProfile="full" height="256" version="1.1" width="256" xmlns="http://www.w3.org/2000/svg" xmlns:ev="http://www.w3.org/2001/xml-events" xmlns:xlink="http://www.w3.org/1999/xlink"><defs /><path d="M2038 1371 2096 1176Q2103 1152 2112.5 1127.5Q2122 1103 2125 1078L2269 -192Q2263 -195 2240.0 -203.0Q2217 -211 2185.5 -221.5Q2154 -232 2118.0 -243.5Q2082 -255 2052.0 -264.5Q2022 -274 2001.5 -280.5Q1981 -287 1979 -287H1406L1622 216H1262Q1174 261 1086.5 303.0Q999 345 911 390Q860 445 833.5 501.5Q807 558 807 633Q807 687 821.0 733.5Q835 780 858 828L1124 1374L1405 1579V1616Q1405 1635 1407.0 1654.5Q1409 1674 1416.5 1690.0Q1424 1706 1438.5 1715.5Q1453 1725 1478 1725Q1496 1725 1508.0 1718.0Q1520 1711 1532 1699Q1547 1685 1560.5 1668.0Q1574 1651 1588.0 1634.5Q1602 1618 1616.5 1602.5Q1631 1587 1648 1575Q1678 1555 1712.0 1539.5Q1746 1524 1778 1507Z" style="fill:#f7894a;stroke:none" transform="scale(1,-1) translate(0,-256)" /></svg>