<?xml version="1.0" encoding="utf-8" ?>
<svg baseProfile="full" height="256" version="1.1" width="256" xmlns="http://www.w3.org/2000/svg" xmlns:ev="http://www.w3.org/2001/xml-events" xmlns:xlink="http://www.w3.org/1999/xlink"><defs /><path d="M1647 1576Q1756 1564 1855.0 1526.0Q1954 1488 2039.0 1429.5Q2124 1371 2193.0 1293.5Q2262 1216 2310.5 1125.0Q2359 1034 2385.5 931.0Q2412 828 2412 719V-287H1979Q2048 -235 2086.5 -160.5Q2125 -86 2125 0H1684Q1753 38 1808.0 92.0Q1863 146 1901.5 211.0Q1940 276 1960.5 350.5Q1981 425 1981 503V1150Q1981 1170 1974.5 1189.5Q1968 1209 1957.5 1228.0Q1947 1247 1934.5 1263.5Q1922 1280 1909 1294ZM1406 1581V1298Q1334 1226 1241.5 1188.0Q1149 1150 1047 1150H762Q798 1247 858.5 1326.5Q919 1406 998.5 1462.5Q1078 1519 1173.0 1550.0Q1268 1581 1372 1581Z" style="fill:#613d30;stroke:none" transform="scale(1,-1) translate(0,-256)" /></svg>