<?xml version="1.0" encoding="utf-8" ?>
<svg baseProfile="full" height="256" version="1.1" width="256" xmlns="http://www.w3.org/2000/svg" xmlns:ev="http://www.w3.org/2001/xml-events" xmlns:xlink="http://www.w3.org/1999/xlink"><defs /><path d="M1622 1222V1006Q1622 961 1605.0 922.0Q1588 883 1558.5 854.0Q1529 825 1490.0 808.0Q1451 791 1406 791H1118V863H1245Q1219 892 1204.5 929.5Q1190 967 1190 1006Q1190 1051 1207.0 1090.0Q1224 1129 1253.5 1158.5Q1283 1188 1322.0 1205.0Q1361 1222 1406 1222Q1446 1222 1483.5 1207.5Q1521 1193 1550 1167V1222L1478 1294H1693ZM1406 575Q1465 575 1517.5 552.5Q1570 530 1609.0 491.0Q1648 452 1670.5 399.5Q1693 347 1693 288H1118Q1118 347 1141.0 399.0Q1164 451 1203.5 490.0Q1243 529 1295.0 552.0Q1347 575 1406 575ZM1262 1006Q1262 976 1273.5 950.0Q1285 924 1304.5 904.5Q1324 885 1350.0 874.0Q1376 863 1406 863Q1436 863 1462.0 874.0Q1488 885 1507.5 904.5Q1527 924 1538.5 950.0Q1550 976 1550 1006Q1550 1036 1538.5 1062.0Q1527 1088 1507.5 1107.5Q1488 1127 1462.0 1138.5Q1436 1150 1406 1150Q1376 1150 1350.0 1138.5Q1324 1127 1304.5 1107.5Q1285 1088 1273.5 1062.0Q1262 1036 1262 1006Z" style="fill:#ffb900;stroke:none" transform="scale(1,-1) translate(0,-256)" /></svg>