<?xml version="1.0" encoding="utf-8" ?>
<svg baseProfile="full" height="256" version="1.1" width="256" xmlns="http://www.w3.org/2000/svg" xmlns:ev="http://www.w3.org/2001/xml-events" xmlns:xlink="http://www.w3.org/1999/xlink"><defs /><path d="M759 216Q789 216 815.0 204.5Q841 193 860.5 173.5Q880 154 891.5 128.0Q903 102 903 72V-287H831V-215H687V-287H615V72Q615 102 626.5 128.0Q638 154 657.5 173.5Q677 193 703.0 204.5Q729 216 759 216ZM1837 1725V1581H975V1725ZM1765 1294H2412V1150H1765ZM400 1150V1294H1047V1150Z" style="fill:#af0d1a;stroke:none" transform="scale(1,-1) translate(0,-256)" /></svg>