<?xml version="1.0" encoding="utf-8" ?>
<svg baseProfile="full" height="256" version="1.1" width="256" xmlns="http://www.w3.org/2000/svg" xmlns:ev="http://www.w3.org/2001/xml-events" xmlns:xlink="http://www.w3.org/1999/xlink"><defs /><path d="M759 863Q789 863 815.0 851.5Q841 840 860.5 820.5Q880 801 891.5 775.0Q903 749 903 719V575H615V719Q615 749 626.5 775.0Q638 801 657.5 820.5Q677 840 703.0 851.5Q729 863 759 863ZM2053 863Q2083 863 2109.0 851.5Q2135 840 2154.5 820.5Q2174 801 2185.5 775.0Q2197 749 2197 719V575H1909V719Q1909 749 1920.5 775.0Q1932 801 1951.5 820.5Q1971 840 1997.0 851.5Q2023 863 2053 863Z" style="fill:#31d2f7;stroke:none" transform="scale(1,-1) translate(0,-256)" /></svg>