<?xml version="1.0" encoding="utf-8" ?>
<svg baseProfile="full" height="256" version="1.1" width="256" xmlns="http://www.w3.org/2000/svg" xmlns:ev="http://www.w3.org/2001/xml-events" xmlns:xlink="http://www.w3.org/1999/xlink"><defs /><path d="M475 1078Q504 1078 525.0 1056.5Q546 1035 546 1006Q546 977 525.0 956.0Q504 935 475 935Q446 935 424.5 956.0Q403 977 403 1006Q403 1036 424.0 1057.0Q445 1078 475 1078ZM1553 1294Q1582 1294 1603.5 1272.5Q1625 1251 1625 1222Q1625 1193 1603.5 1171.5Q1582 1150 1553 1150Q1523 1150 1502.0 1171.0Q1481 1192 1481 1222Q1481 1252 1502.0 1273.0Q1523 1294 1553 1294ZM1337 1078Q1367 1078 1388.0 1057.0Q1409 1036 1409 1006Q1409 977 1387.5 956.0Q1366 935 1337 935Q1308 935 1286.5 956.0Q1265 977 1265 1006Q1265 1036 1286.0 1057.0Q1307 1078 1337 1078ZM546 1366Q517 1366 496.0 1387.5Q475 1409 475 1438Q475 1467 496.0 1488.5Q517 1510 546 1510Q575 1510 596.5 1488.5Q618 1467 618 1438Q618 1408 597.0 1387.0Q576 1366 546 1366ZM978 1653Q978 1624 956.5 1602.5Q935 1581 906 1581Q877 1581 855.5 1602.5Q834 1624 834 1653Q834 1683 855.0 1704.0Q876 1725 906 1725Q936 1725 957.0 1704.0Q978 1683 978 1653ZM1337 1653Q1367 1653 1388.0 1632.0Q1409 1611 1409 1581Q1409 1552 1387.5 1531.0Q1366 1510 1337 1510Q1308 1510 1286.5 1531.0Q1265 1552 1265 1581Q1265 1611 1286.0 1632.0Q1307 1653 1337 1653ZM1337 647Q1367 647 1388.0 626.0Q1409 605 1409 575Q1409 545 1388.0 524.0Q1367 503 1337 503Q1307 503 1286.0 524.0Q1265 545 1265 575Q1265 605 1286.0 626.0Q1307 647 1337 647ZM618 647Q648 647 669.0 626.0Q690 605 690 575Q690 545 669.0 524.0Q648 503 618 503Q589 503 567.5 524.5Q546 546 546 575Q546 604 567.5 625.5Q589 647 618 647ZM1050 216Q1050 187 1028.5 165.5Q1007 144 978 144Q948 144 927.0 165.0Q906 186 906 216Q906 246 927.0 267.0Q948 288 978 288Q1007 288 1028.5 266.5Q1050 245 1050 216ZM1190 216Q1210 216 1223.5 205.5Q1237 195 1245 178L1406 -144L1334 -215L1262 -144L1190 -215L1118 -144L1047 -215L975 -144L1136 178Q1144 193 1158.0 204.5Q1172 216 1190 216Z" style="fill:#f03a17;stroke:none" transform="scale(1,-1) translate(0,-256)" /></svg>