<?xml version="1.0" encoding="utf-8" ?>
<svg baseProfile="full" height="256" version="1.1" width="256" xmlns="http://www.w3.org/2000/svg" xmlns:ev="http://www.w3.org/2001/xml-events" xmlns:xlink="http://www.w3.org/1999/xlink"><defs /><path d="M475 1294Q504 1294 525.0 1272.5Q546 1251 546 1222Q546 1193 525.0 1171.5Q504 1150 475 1150Q445 1150 424.0 1171.0Q403 1192 403 1222Q403 1252 424.0 1273.0Q445 1294 475 1294ZM1553 1078Q1582 1078 1603.5 1056.5Q1625 1035 1625 1006Q1625 977 1603.5 956.0Q1582 935 1553 935Q1524 935 1502.5 956.0Q1481 977 1481 1006Q1481 1036 1502.0 1057.0Q1523 1078 1553 1078ZM1553 1438Q1553 1408 1532.0 1387.0Q1511 1366 1481 1366Q1451 1366 1430.0 1387.0Q1409 1408 1409 1438Q1409 1467 1430.5 1488.5Q1452 1510 1481 1510Q1510 1510 1531.5 1488.5Q1553 1467 1553 1438ZM762 1581Q762 1552 740.5 1531.0Q719 1510 690 1510Q661 1510 639.5 1531.0Q618 1552 618 1581Q618 1611 639.0 1632.0Q660 1653 690 1653Q720 1653 741.0 1632.0Q762 1611 762 1581ZM1193 1653Q1193 1624 1171.5 1602.5Q1150 1581 1121 1581Q1092 1581 1071.0 1602.5Q1050 1624 1050 1653Q1050 1682 1071.0 1703.5Q1092 1725 1121 1725Q1151 1725 1172.0 1704.0Q1193 1683 1193 1653ZM1193 863Q1223 863 1244.0 842.0Q1265 821 1265 791Q1265 761 1244.0 740.0Q1223 719 1193 719Q1164 719 1142.5 740.5Q1121 762 1121 791Q1121 820 1142.5 841.5Q1164 863 1193 863ZM475 863Q504 863 525.0 841.5Q546 820 546 791Q546 762 525.0 740.5Q504 719 475 719Q445 719 424.0 740.0Q403 761 403 791Q403 821 424.0 842.0Q445 863 475 863ZM1193 431Q1222 431 1243.5 410.0Q1265 389 1265 360Q1265 330 1244.0 309.0Q1223 288 1193 288Q1164 288 1142.5 309.5Q1121 331 1121 360Q1121 389 1142.5 410.0Q1164 431 1193 431ZM762 431Q791 431 812.5 410.0Q834 389 834 360Q834 330 813.0 309.0Q792 288 762 288Q732 288 711.0 309.0Q690 330 690 360Q690 389 711.5 410.0Q733 431 762 431Z" style="fill:#8e562e;stroke:none" transform="scale(1,-1) translate(0,-256)" /></svg>