<?xml version="1.0" encoding="utf-8" ?>
<svg baseProfile="full" height="256" version="1.1" width="256" xmlns="http://www.w3.org/2000/svg" xmlns:ev="http://www.w3.org/2001/xml-events" xmlns:xlink="http://www.w3.org/1999/xlink"><defs /><path d="M1442 821 1406 791Q1439 779 1465.5 756.5Q1492 734 1510.5 705.0Q1529 676 1539.5 642.5Q1550 609 1550 575Q1550 505 1510.0 450.5Q1470 396 1405 372Q1405 368 1405.5 364.0Q1406 360 1406 356Q1406 328 1398.0 301.5Q1390 275 1376 252Q1396 215 1414.0 177.5Q1432 140 1450 102L1581 -172L1334 -431L1262 -359L1190 -431L1118 -359L1047 -431L800 -172L894 16Q852 34 819.5 67.5Q787 101 772 145Q724 145 682.5 160.0Q641 175 610.0 203.0Q579 231 561.0 270.5Q543 310 543 360Q543 364 545 372Q476 398 438.5 452.0Q401 506 401 578V588Q369 599 342.0 619.5Q315 640 296.0 666.5Q277 693 266.5 725.0Q256 757 256 791Q256 820 264.0 847.0Q272 874 286 899Q272 923 264.0 950.0Q256 977 256 1006Q256 1035 264.0 1062.0Q272 1089 286 1114Q272 1139 264.0 1166.0Q256 1193 256 1222Q256 1270 276.5 1313.0Q297 1356 334 1387Q328 1412 328 1438Q328 1474 339.5 1506.5Q351 1539 371.0 1566.0Q391 1593 419.5 1613.0Q448 1633 482 1643Q492 1677 512.0 1705.5Q532 1734 559.0 1754.0Q586 1774 618.5 1785.5Q651 1797 687 1797Q700 1797 712.5 1795.0Q725 1793 738 1790Q768 1828 811.5 1848.5Q855 1869 903 1869Q932 1869 959.0 1861.0Q986 1853 1011 1839Q1059 1869 1118 1869Q1166 1869 1209.5 1848.5Q1253 1828 1283 1790Q1296 1793 1308.5 1795.0Q1321 1797 1334 1797Q1370 1797 1402.5 1785.5Q1435 1774 1462.0 1754.0Q1489 1734 1509.0 1705.5Q1529 1677 1540 1643Q1574 1632 1602.0 1612.0Q1630 1592 1650.0 1565.5Q1670 1539 1681.5 1506.5Q1693 1474 1693 1438Q1693 1412 1687 1387Q1724 1356 1744.5 1313.0Q1765 1270 1765 1222Q1765 1193 1757.0 1166.0Q1749 1139 1735 1114Q1749 1089 1757.0 1062.0Q1765 1035 1765 1006Q1765 962 1748.0 923.0Q1731 884 1701.5 854.5Q1672 825 1633.0 808.0Q1594 791 1550 791Q1521 791 1494.0 799.0Q1467 807 1442 821ZM1334 1222Q1334 1324 1287.5 1392.0Q1241 1460 1144 1493Q1096 1510 1047 1510H975Q926 1510 877 1493Q780 1461 733.5 1392.0Q687 1323 687 1222V791Q720 778 746.5 755.5Q773 733 791.5 704.5Q810 676 820.5 642.5Q831 609 831 575Q861 575 887.0 564.5Q913 554 932.0 535.5Q951 517 962.5 491.5Q974 466 975 436Q976 465 986.5 490.0Q997 515 1015.0 533.5Q1033 552 1057.5 563.0Q1082 574 1111 575Q1081 576 1056.0 587.5Q1031 599 1013.0 618.5Q995 638 985.0 663.5Q975 689 975 719V863Q975 894 985.5 920.5Q996 947 1015.0 966.0Q1034 985 1060.0 995.5Q1086 1006 1118 1006Q1118 1053 1134.0 1093.0Q1150 1133 1178.5 1161.5Q1207 1190 1247.0 1206.0Q1287 1222 1334 1222Z" style="fill:#000000;stroke:none" transform="scale(1,-1) translate(0,-256)" /></svg>