<?xml version="1.0" encoding="utf-8" ?>
<svg baseProfile="full" height="256" version="1.1" width="256" xmlns="http://www.w3.org/2000/svg" xmlns:ev="http://www.w3.org/2001/xml-events" xmlns:xlink="http://www.w3.org/1999/xlink"><defs /><path d="M1406 1725Q1442 1725 1478.0 1722.0Q1514 1719 1550 1714Q1493 1706 1447.0 1669.0Q1401 1632 1365.5 1578.0Q1330 1524 1303.0 1457.0Q1276 1390 1257.0 1323.0Q1238 1256 1226.0 1193.0Q1214 1130 1208 1083Q1184 901 1184 719Q1184 536 1208 355Q1214 308 1226.0 245.0Q1238 182 1257.0 115.0Q1276 48 1303.0 -19.0Q1330 -86 1365.5 -140.0Q1401 -194 1447.0 -231.0Q1493 -268 1550 -276Q1514 -281 1478.0 -284.0Q1442 -287 1406 -287Q1295 -287 1187.5 -264.0Q1080 -241 980 -193Q972 -178 964.5 -161.5Q957 -145 948.5 -129.0Q940 -113 929.5 -98.5Q919 -84 904 -75Q891 -67 872.5 -63.0Q854 -59 834.5 -57.5Q815 -56 795.5 -55.5Q776 -55 761 -53Q629 56 543.0 199.0Q457 342 422 510Q441 542 445.5 580.5Q450 619 450 656Q450 675 450.5 694.5Q451 714 451 734Q451 784 446.0 833.5Q441 883 422 928Q457 1096 543.0 1239.0Q629 1382 761 1491Q777 1493 796.5 1497.5Q816 1502 835.5 1508.5Q855 1515 873.0 1524.0Q891 1533 904 1543Q915 1552 923.5 1563.5Q932 1575 940.5 1586.5Q949 1598 957.5 1609.0Q966 1620 977 1629Q985 1636 998.0 1640.5Q1011 1645 1021 1649Q1204 1725 1406 1725Z" style="fill:#757575;stroke:none" transform="scale(1,-1) translate(0,-256)" /></svg>