<?xml version="1.0" encoding="utf-8" ?>
<svg baseProfile="full" height="256" version="1.1" width="256" xmlns="http://www.w3.org/2000/svg" xmlns:ev="http://www.w3.org/2001/xml-events" xmlns:xlink="http://www.w3.org/1999/xlink"><defs /><path d="M1550 1714Q1565 1714 1590.5 1709.0Q1616 1704 1647.0 1696.0Q1678 1688 1711.0 1677.5Q1744 1667 1773.5 1656.0Q1803 1645 1827.0 1634.5Q1851 1624 1863 1615Q1876 1606 1885.5 1594.0Q1895 1582 1904.0 1569.5Q1913 1557 1922.5 1545.5Q1932 1534 1945 1526Q1956 1519 1968.0 1516.5Q1980 1514 1992.5 1512.5Q2005 1511 2017.0 1508.0Q2029 1505 2041 1498Q2064 1484 2087.5 1460.0Q2111 1436 2130 1416Q2190 1353 2235.0 1288.5Q2280 1224 2313.0 1154.5Q2346 1085 2368.0 1009.0Q2390 933 2404 848Q2405 845 2405.0 841.5Q2405 838 2405 835Q2405 805 2396.0 777.0Q2387 749 2387 719Q2387 689 2396.0 661.0Q2405 633 2405 603Q2405 600 2405.0 596.5Q2405 593 2404 590Q2389 500 2360.5 409.0Q2332 318 2288.0 234.0Q2244 150 2185.0 76.5Q2126 3 2051 -53Q2045 -58 2033 -58Q2025 -58 2016.0 -56.5Q2007 -55 1999 -55Q1986 -55 1976.5 -65.5Q1967 -76 1958.5 -90.5Q1950 -105 1942.5 -119.5Q1935 -134 1926 -142Q1913 -154 1885.0 -168.5Q1857 -183 1821.5 -198.0Q1786 -213 1745.5 -227.0Q1705 -241 1667.5 -252.0Q1630 -263 1599.0 -269.5Q1568 -276 1550 -276Q1531 -276 1513.0 -272.0Q1495 -268 1477 -263Q1235 -207 1044 -48Q1040 -25 1024.5 -11.5Q1009 2 993 17Q977 33 963.0 49.0Q949 65 926 70Q808 208 747.5 373.0Q687 538 687 719Q687 900 747.5 1065.0Q808 1230 926 1368Q949 1373 962.0 1388.5Q975 1404 991 1420Q1007 1436 1023.0 1449.0Q1039 1462 1044 1486Q1235 1645 1477 1701Q1495 1706 1513.0 1710.0Q1531 1714 1550 1714Z" style="fill:#ffc83d;stroke:none" transform="scale(1,-1) translate(0,-256)" /></svg>