<?xml version="1.0" encoding="utf-8" ?>
<svg baseProfile="full" height="256" version="1.1" width="256" xmlns="http://www.w3.org/2000/svg" xmlns:ev="http://www.w3.org/2001/xml-events" xmlns:xlink="http://www.w3.org/1999/xlink"><defs /><path d="M1693 431H2197Q2227 431 2253.0 420.0Q2279 409 2298.5 389.5Q2318 370 2329.0 344.0Q2340 318 2340 288V144Q2166 144 1995.0 143.0Q1824 142 1650 142Q1642 142 1636.0 142.5Q1630 143 1622 144L921 216L543 1725Q585 1725 626.0 1725.5Q667 1726 709 1726Q716 1726 720 1725L1011 1668L1114 1725Q1137 1725 1161.0 1726.0Q1185 1727 1208 1727Q1240 1727 1270.0 1723.0Q1300 1719 1324.5 1707.0Q1349 1695 1367.0 1673.0Q1385 1651 1394 1616Z" style="fill:#83beec;stroke:none" transform="scale(1,-1) translate(0,-256)" /></svg>