<?xml version="1.0" encoding="utf-8" ?>
<svg baseProfile="full" height="256" version="1.1" width="256" xmlns="http://www.w3.org/2000/svg" xmlns:ev="http://www.w3.org/2001/xml-events" xmlns:xlink="http://www.w3.org/1999/xlink"><defs /><path d="M974 431H1478Q1508 431 1534.0 420.0Q1560 409 1579.5 389.5Q1599 370 1610.5 344.0Q1622 318 1622 288V144H871Q820 144 782.0 174.0Q744 204 732 253L404 1552Q400 1567 400 1586Q400 1614 411.0 1639.5Q422 1665 441.0 1684.0Q460 1703 485.0 1714.0Q510 1725 539 1725Q587 1725 625.0 1696.0Q663 1667 675 1620Z" style="fill:#3a96dd;stroke:none" transform="scale(1,-1) translate(0,-256)" /></svg>