<?xml version="1.0" encoding="utf-8" ?>
<svg baseProfile="full" height="256" version="1.1" width="256" xmlns="http://www.w3.org/2000/svg" xmlns:ev="http://www.w3.org/2001/xml-events" xmlns:xlink="http://www.w3.org/1999/xlink"><defs /><path d="M2147 575H2197Q2256 575 2308.5 552.5Q2361 530 2400.0 491.0Q2439 452 2461.5 399.5Q2484 347 2484 288V-431H687V67Q614 128 592 218L265 1517Q256 1551 256 1587Q256 1635 271.5 1678.5Q287 1722 316 1760Q320 1765 323.5 1768.0Q327 1771 331 1774Q357 1800 390.0 1818.0Q423 1836 460.0 1847.5Q497 1859 535.0 1864.0Q573 1869 609 1869H1255Q1304 1869 1349.5 1853.0Q1395 1837 1432.0 1808.0Q1469 1779 1495.5 1739.0Q1522 1699 1534 1651L1714 935H2057Z" style="fill:#000000;stroke:none" transform="scale(1,-1) translate(0,-256)" /></svg>