<?xml version="1.0" encoding="utf-8" ?>
<svg baseProfile="full" height="256" version="1.1" width="256" xmlns="http://www.w3.org/2000/svg" xmlns:ev="http://www.w3.org/2001/xml-events" xmlns:xlink="http://www.w3.org/1999/xlink"><defs /><path d="M760 -431Q715 -431 676.0 -414.0Q637 -397 607.5 -367.5Q578 -338 561.0 -299.0Q544 -260 544 -215V-56Q474 24 420.5 115.5Q367 207 330.5 305.5Q294 404 275.5 508.5Q257 613 257 719Q257 825 275.5 929.0Q294 1033 330.5 1132.0Q367 1231 420.5 1322.5Q474 1414 544 1494V1653Q544 1698 561.0 1737.0Q578 1776 607.5 1805.5Q637 1835 676.0 1852.0Q715 1869 760 1869H1766Q1811 1869 1850.0 1852.0Q1889 1835 1918.5 1805.5Q1948 1776 1965.0 1737.0Q1982 1698 1982 1653V1494Q2052 1414 2105.5 1323.0Q2159 1232 2195.0 1133.0Q2231 1034 2249.5 929.5Q2268 825 2268 719Q2268 613 2249.5 508.5Q2231 404 2195.0 305.5Q2159 207 2105.5 115.5Q2052 24 1982 -56V-215Q1982 -260 1965.0 -299.0Q1948 -338 1918.5 -367.5Q1889 -397 1850.0 -414.0Q1811 -431 1766 -431Z" style="fill:#000000;stroke:none" transform="scale(1,-1) translate(0,-256)" /></svg>