<?xml version="1.0" encoding="utf-8" ?>
<svg baseProfile="full" height="256" version="1.1" width="256" xmlns="http://www.w3.org/2000/svg" xmlns:ev="http://www.w3.org/2001/xml-events" xmlns:xlink="http://www.w3.org/1999/xlink"><defs /><path d="M688 0Q655 34 625 72Q628 74 635.5 79.5Q643 85 650.5 91.0Q658 97 664.0 103.0Q670 109 670 113Q670 118 657.0 123.0Q644 128 627.0 132.5Q610 137 594.0 140.0Q578 143 573 144Q525 213 493 288Q496 290 505.0 295.5Q514 301 523.5 307.5Q533 314 540.5 320.0Q548 326 548 330Q548 334 536.5 338.5Q525 343 510.5 347.5Q496 352 482.0 355.0Q468 358 464 359Q451 394 441.0 430.0Q431 466 423 503Q424 503 426 505L430 507Q436 510 444.0 514.0Q452 518 459.0 522.5Q466 527 471.0 531.5Q476 536 476 539Q476 542 467.0 547.0Q458 552 446.5 557.5Q435 563 424.0 568.0Q413 573 410 575Q401 647 401 719Q405 720 416.0 724.0Q427 728 438.5 733.5Q450 739 459.0 744.5Q468 750 468 753Q468 756 459.0 761.5Q450 767 439.0 773.0Q428 779 417.0 784.0Q406 789 403 791Q405 827 410.0 863.5Q415 900 423 935Q424 935 424.5 935.5Q425 936 426 936Q432 937 445.0 941.0Q458 945 471.0 949.0Q484 953 493.5 957.5Q503 962 503 965Q503 969 494.5 975.5Q486 982 475.5 988.0Q465 994 454.5 999.0Q444 1004 440 1006Q451 1043 464.0 1079.0Q477 1115 493 1150Q498 1151 512.0 1154.0Q526 1157 541.0 1161.0Q556 1165 568.0 1169.5Q580 1174 580 1177Q580 1183 573.5 1189.5Q567 1196 559.0 1202.5Q551 1209 542.0 1214.0Q533 1219 529 1222Q549 1259 572.5 1297.0Q596 1335 625 1366Q626 1367 644.5 1377.0Q663 1387 684.0 1397.5Q705 1408 723.0 1417.0Q741 1426 742 1426Q981 1426 1217.5 1428.5Q1454 1431 1693 1431Q1723 1431 1753.5 1420.0Q1784 1409 1811 1397Q1818 1394 1831.5 1390.0Q1845 1386 1859.5 1381.5Q1874 1377 1885.5 1373.0Q1897 1369 1901 1366Q1905 1362 1921.0 1340.5Q1937 1319 1953.5 1293.5Q1970 1268 1983.5 1246.5Q1997 1225 1997 1222Q1997 1220 1991.0 1215.0Q1985 1210 1978.5 1203.5Q1972 1197 1966.0 1190.5Q1960 1184 1960 1179Q1960 1177 1971.0 1172.5Q1982 1168 1995.5 1163.5Q2009 1159 2020.5 1155.0Q2032 1151 2033 1150Q2039 1144 2046.5 1124.5Q2054 1105 2061.5 1082.0Q2069 1059 2076.0 1037.5Q2083 1016 2086 1006Q2083 1003 2077.0 997.5Q2071 992 2065.5 986.0Q2060 980 2055.5 974.0Q2051 968 2051 964Q2051 961 2058.0 956.5Q2065 952 2074.0 947.5Q2083 943 2091.5 939.5Q2100 936 2103 935Q2111 900 2116.0 863.5Q2121 827 2123 791Q2120 789 2111.0 784.5Q2102 780 2092.5 774.0Q2083 768 2075.5 762.5Q2068 757 2068 754Q2068 750 2075.5 744.5Q2083 739 2093.0 733.5Q2103 728 2112.5 724.0Q2122 720 2126 719Q2126 683 2123.5 647.0Q2121 611 2116 575Q2112 573 2101.5 569.0Q2091 565 2079.5 559.5Q2068 554 2059.5 549.0Q2051 544 2051 540Q2051 536 2057.5 530.5Q2064 525 2073.0 519.5Q2082 514 2090.5 509.5Q2099 505 2103 503Q2095 467 2085.5 431.0Q2076 395 2062 360Q2059 359 2048.0 355.0Q2037 351 2026.0 346.5Q2015 342 2006.0 337.5Q1997 333 1997 331Q1997 326 2001.0 319.5Q2005 313 2011.0 307.0Q2017 301 2023.0 296.0Q2029 291 2033 288Q2001 213 1953 144Q1948 143 1934.5 140.5Q1921 138 1907.0 134.0Q1893 130 1882.0 125.0Q1871 120 1871 114Q1871 110 1874.5 104.0Q1878 98 1883.0 92.0Q1888 86 1893.0 80.5Q1898 75 1901 72Q1886 53 1870.5 35.0Q1855 17 1838 0Z" style="fill:#e81224;stroke:none" transform="scale(1,-1) translate(0,-256)" /></svg>