<?xml version="1.0" encoding="utf-8" ?>
<svg baseProfile="full" height="256" version="1.1" width="256" xmlns="http://www.w3.org/2000/svg" xmlns:ev="http://www.w3.org/2001/xml-events" xmlns:xlink="http://www.w3.org/1999/xlink"><defs /><path d="M688 -215V0Q715 22 758.5 38.5Q802 55 854.0 66.5Q906 78 963.0 85.5Q1020 93 1075.0 97.0Q1130 101 1178.5 102.5Q1227 104 1262 104Q1296 104 1345.0 102.5Q1394 101 1449.0 96.5Q1504 92 1562.0 85.0Q1620 78 1672.5 66.5Q1725 55 1768.0 38.5Q1811 22 1838 0V-215Q1838 -245 1817.0 -266.0Q1796 -287 1766 -287H760Q730 -287 709.0 -266.0Q688 -245 688 -215ZM1766 1725Q1796 1725 1817.0 1704.0Q1838 1683 1838 1653V1438Q1812 1417 1769.0 1401.5Q1726 1386 1673.5 1374.5Q1621 1363 1563.0 1356.0Q1505 1349 1449.5 1344.5Q1394 1340 1345.0 1338.5Q1296 1337 1262 1337Q1228 1337 1179.5 1338.5Q1131 1340 1075.5 1344.5Q1020 1349 962.0 1356.0Q904 1363 851.5 1374.5Q799 1386 756.0 1401.5Q713 1417 688 1438V1653Q688 1683 709.0 1704.0Q730 1725 760 1725Z" style="fill:#383838;stroke:none" transform="scale(1,-1) translate(0,-256)" /></svg>