<?xml version="1.0" encoding="utf-8" ?>
<svg baseProfile="full" height="256" version="1.1" width="256" xmlns="http://www.w3.org/2000/svg" xmlns:ev="http://www.w3.org/2001/xml-events" xmlns:xlink="http://www.w3.org/1999/xlink"><defs /><path d="M403 791H2123Q2126 755 2126 719H401V755Q401 764 401.5 773.0Q402 782 403 791ZM423 503Q418 521 415.5 539.0Q413 557 410 575H2116Q2113 557 2110.5 539.0Q2108 521 2103 503ZM423 935Q427 953 431.0 971.0Q435 989 440 1006H2086Q2091 989 2095.0 971.0Q2099 953 2103 935ZM493 288Q485 305 478.0 323.5Q471 342 464 360H2062Q2056 341 2048.5 323.0Q2041 305 2033 288ZM493 1150Q509 1187 529 1222H1997Q2016 1187 2033 1150ZM625 72Q611 89 598.0 107.0Q585 125 573 144H1954Q1941 125 1928.0 107.0Q1915 89 1901 72ZM1901 1366H625Q655 1403 688 1438H1838Q1871 1403 1901 1366Z" style="fill:#af0d1a;stroke:none" transform="scale(1,-1) translate(0,-256)" /></svg>