<?xml version="1.0" encoding="utf-8" ?>
<svg baseProfile="full" height="256" version="1.1" width="256" xmlns="http://www.w3.org/2000/svg" xmlns:ev="http://www.w3.org/2001/xml-events" xmlns:xlink="http://www.w3.org/1999/xlink"><defs /><path d="M2053 1653 2237 1661 2355 1549 2340 1366 1621 647 1536 664 1550 575 903 -72H617V216L1262 863L1354 848L1334 934ZM424 -215Q445 -215 460.0 -230.0Q475 -245 475 -266Q475 -287 460.0 -302.0Q445 -317 424 -317Q403 -317 388.0 -302.0Q373 -287 373 -266Q373 -245 388.0 -230.0Q403 -215 424 -215Z" style="fill:#757575;stroke:none" transform="scale(1,-1) translate(0,-256)" /></svg>