<?xml version="1.0" encoding="utf-8" ?>
<svg baseProfile="full" height="256" version="1.1" width="256" xmlns="http://www.w3.org/2000/svg" xmlns:ev="http://www.w3.org/2001/xml-events" xmlns:xlink="http://www.w3.org/1999/xlink"><defs /><path d="M403 -215 618 216 906 -72 475 -287ZM2209 1725Q2251 1725 2288.0 1709.0Q2325 1693 2352.5 1665.5Q2380 1638 2396.0 1601.0Q2412 1564 2412 1522Q2412 1477 2393.5 1436.0Q2375 1395 2340 1366L2053 1653Q2082 1688 2123.0 1706.5Q2164 1725 2209 1725ZM1622 985Q1622 1007 1636 1021L2053 1438L2125 1366L1708 949Q1694 935 1672 935Q1650 935 1636.0 949.0Q1622 963 1622 985ZM1262 863 1334 935 1622 647 1550 575Z" style="fill:#cccccc;stroke:none" transform="scale(1,-1) translate(0,-256)" /></svg>