<?xml version="1.0" encoding="utf-8" ?>
<svg baseProfile="full" height="256" version="1.1" width="256" xmlns="http://www.w3.org/2000/svg" xmlns:ev="http://www.w3.org/2001/xml-events" xmlns:xlink="http://www.w3.org/1999/xlink"><defs /><path d="M2209 1869Q2281 1869 2344.0 1841.5Q2407 1814 2454.0 1767.0Q2501 1720 2528.5 1657.0Q2556 1594 2556 1522Q2556 1447 2526.5 1383.0Q2497 1319 2445 1267L988 -190Q987 -191 959.0 -205.5Q931 -220 889.0 -241.0Q847 -262 797.0 -287.0Q747 -312 702.0 -334.5Q657 -357 623.0 -373.5Q589 -390 580 -394Q556 -405 534.0 -411.0Q512 -417 485 -417Q441 -417 402.5 -400.0Q364 -383 335.5 -354.5Q307 -326 290.0 -287.5Q273 -249 273 -205Q273 -157 295 -111L497 301L1964 1767Q2066 1869 2209 1869Z" style="fill:#000000;stroke:none" transform="scale(1,-1) translate(0,-256)" /></svg>