<?xml version="1.0" encoding="utf-8" ?>
<svg baseProfile="full" height="256" version="1.1" width="256" xmlns="http://www.w3.org/2000/svg" xmlns:ev="http://www.w3.org/2001/xml-events" xmlns:xlink="http://www.w3.org/1999/xlink"><defs /><path d="M1525 371 1520 296Q1534 269 1542.0 240.0Q1550 211 1550 180Q1550 128 1530.0 82.0Q1510 36 1476.0 2.0Q1442 -32 1396.0 -52.0Q1350 -72 1298 -72H687V0H1298Q1335 0 1368.0 14.0Q1401 28 1425.5 52.5Q1450 77 1464.0 109.5Q1478 142 1478 180Q1478 197 1474.5 212.5Q1471 228 1466 244L1410 248L1403 260L1427 304Q1395 335 1367.0 345.0Q1339 355 1314.0 356.5Q1289 358 1267.5 358.5Q1246 359 1227 371Q1213 360 1194 360H579Q557 360 537.5 351.5Q518 343 503.5 328.0Q489 313 480.5 293.5Q472 274 472 252Q472 230 480.5 210.5Q489 191 503.5 176.0Q518 161 537.5 152.5Q557 144 579 144H1154Q1169 144 1179.5 154.5Q1190 165 1190 180Q1190 195 1179.5 205.5Q1169 216 1154 216H687V288H1154Q1176 288 1195.5 279.5Q1215 271 1230.0 256.0Q1245 241 1253.5 221.5Q1262 202 1262 180Q1262 157 1253.5 137.5Q1245 118 1230.5 103.5Q1216 89 1196.0 80.5Q1176 72 1154 72H579Q542 72 509.5 86.0Q477 100 452.5 124.5Q428 149 414.0 182.0Q400 215 400 252Q400 289 414.0 321.5Q428 354 452.5 378.5Q477 403 509.5 417.0Q542 431 579 431H1190Q1199 431 1208.5 429.0Q1218 427 1227 427Q1236 427 1244.5 429.0Q1253 431 1262 431Q1293 431 1321.0 428.5Q1349 426 1374.5 418.5Q1400 411 1424.0 397.5Q1448 384 1472 361L1511 386ZM2233 1581Q2270 1581 2302.5 1567.0Q2335 1553 2359.5 1528.5Q2384 1504 2398.0 1471.5Q2412 1439 2412 1402Q2412 1365 2398.0 1332.0Q2384 1299 2359.5 1274.5Q2335 1250 2302.5 1236.0Q2270 1222 2233 1222H1658Q1635 1222 1615.5 1230.5Q1596 1239 1581.5 1253.5Q1567 1268 1558.5 1287.5Q1550 1307 1550 1330Q1550 1352 1558.5 1371.5Q1567 1391 1582.0 1406.0Q1597 1421 1616.5 1429.5Q1636 1438 1658 1438H2125V1366H1658Q1643 1366 1632.5 1355.5Q1622 1345 1622 1330Q1622 1315 1632.5 1304.5Q1643 1294 1658 1294H2233Q2255 1294 2275.0 1302.5Q2295 1311 2309.0 1326.0Q2323 1341 2331.5 1360.5Q2340 1380 2340 1402Q2340 1424 2331.5 1443.5Q2323 1463 2308.5 1478.0Q2294 1493 2274.5 1501.5Q2255 1510 2233 1510H1514Q1481 1510 1451.5 1499.0Q1422 1488 1398.5 1468.5Q1375 1449 1359.0 1421.5Q1343 1394 1337 1362L1377 1323L1376 1316L1339 1289Q1352 1235 1386.5 1203.0Q1421 1171 1473 1155Q1497 1149 1514 1138Q1521 1143 1529.5 1146.5Q1538 1150 1546 1150H2125V1078H1550Q1539 1078 1529.0 1082.5Q1519 1087 1511 1093L1478 1082Q1437 1088 1401.5 1106.0Q1366 1124 1337.5 1151.5Q1309 1179 1290.5 1214.5Q1272 1250 1266 1291L1220 1306Q1220 1320 1227 1332L1265 1363Q1271 1409 1293.0 1449.0Q1315 1489 1348.5 1518.5Q1382 1548 1424.5 1564.5Q1467 1581 1514 1581Z" style="fill:#e5e5e5;stroke:none" transform="scale(1,-1) translate(0,-256)" /></svg>