<?xml version="1.0" encoding="utf-8" ?>
<svg baseProfile="full" height="256" version="1.1" width="256" xmlns="http://www.w3.org/2000/svg" xmlns:ev="http://www.w3.org/2001/xml-events" xmlns:xlink="http://www.w3.org/1999/xlink"><defs /><path d="M543 -215V-70Q482 -63 429.5 -35.0Q377 -7 338.5 36.5Q300 80 278.0 135.0Q256 190 256 252Q256 319 281.5 377.5Q307 436 351.0 480.0Q395 524 453.5 549.5Q512 575 579 575H903V1114Q903 1174 920.5 1230.0Q938 1286 970.5 1333.5Q1003 1381 1048.0 1418.5Q1093 1456 1149 1479Q1171 1534 1208.5 1579.5Q1246 1625 1294.0 1657.5Q1342 1690 1398.0 1707.5Q1454 1725 1514 1725H2233Q2300 1725 2358.5 1699.5Q2417 1674 2461.0 1630.0Q2505 1586 2530.5 1527.5Q2556 1469 2556 1402Q2556 1340 2534.0 1285.0Q2512 1230 2473.0 1186.5Q2434 1143 2381.5 1115.0Q2329 1087 2268 1080V935H1693V180Q1693 98 1662.0 26.0Q1631 -46 1577.5 -99.5Q1524 -153 1452.0 -184.0Q1380 -215 1298 -215Z" style="fill:#000000;stroke:none" transform="scale(1,-1) translate(0,-256)" /></svg>