<?xml version="1.0" encoding="utf-8" ?>
<svg baseProfile="full" height="256" version="1.1" width="256" xmlns="http://www.w3.org/2000/svg" xmlns:ev="http://www.w3.org/2001/xml-events" xmlns:xlink="http://www.w3.org/1999/xlink"><defs /><path d="M1262 1330Q1262 1308 1266 1291Q1234 1285 1206.5 1269.0Q1179 1253 1159.5 1229.5Q1140 1206 1129.0 1176.5Q1118 1147 1118 1114V503H1047V1114Q1047 1161 1063.5 1203.5Q1080 1246 1109.5 1279.5Q1139 1313 1178.5 1335.0Q1218 1357 1265 1363Q1264 1355 1263.0 1346.5Q1262 1338 1262 1330ZM1337 1362Q1382 1355 1421.0 1332.5Q1460 1310 1488.5 1276.5Q1517 1243 1533.5 1201.5Q1550 1160 1550 1114V396Q1550 343 1520 296Q1504 332 1472 361Q1474 369 1476.0 378.0Q1478 387 1478 396V1114Q1478 1145 1467.5 1173.5Q1457 1202 1438.5 1225.0Q1420 1248 1394.5 1265.0Q1369 1282 1339 1289Q1334 1311 1334 1330Q1334 1345 1337 1362ZM1370 288Q1402 288 1427 304Q1440 291 1449.5 276.0Q1459 261 1466 244Q1421 216 1370 216Q1332 216 1299.5 230.0Q1267 244 1242.5 268.5Q1218 293 1204.0 325.5Q1190 358 1190 396V971Q1190 993 1198.5 1012.5Q1207 1032 1222.0 1046.5Q1237 1061 1256.5 1069.5Q1276 1078 1298 1078Q1320 1078 1339.5 1069.5Q1359 1061 1374.0 1046.5Q1389 1032 1397.5 1012.5Q1406 993 1406 971V503H1334V971Q1334 985 1323.0 995.5Q1312 1006 1298 1006Q1284 1006 1273.0 995.5Q1262 985 1262 971V396Q1262 374 1270.5 354.5Q1279 335 1294.0 320.0Q1309 305 1328.5 296.5Q1348 288 1370 288Z" style="fill:#cccccc;stroke:none" transform="scale(1,-1) translate(0,-256)" /></svg>