<?xml version="1.0" encoding="utf-8" ?>
<svg baseProfile="full" height="256" version="1.1" width="256" xmlns="http://www.w3.org/2000/svg" xmlns:ev="http://www.w3.org/2001/xml-events" xmlns:xlink="http://www.w3.org/1999/xlink"><defs /><path d="M2221 144H2412V-288H400V144H723L759 72Q802 72 839.0 92.0Q876 112 903 144Q930 112 967.0 92.0Q1004 72 1047 72Q1089 72 1126.5 92.0Q1164 112 1190 144Q1217 112 1254.0 92.0Q1291 72 1334 72Q1377 72 1414.0 92.0Q1451 112 1478 144Q1505 112 1542.0 92.0Q1579 72 1622 72Q1664 72 1701.5 92.0Q1739 112 1765 144Q1792 112 1829.0 92.0Q1866 72 1909 72Q1952 72 1989.0 92.0Q2026 112 2053 144Q2080 112 2117.0 92.0Q2154 72 2197 72Z" style="fill:#00bcf2;stroke:none" transform="scale(1,-1) translate(0,-256)" /></svg>