<?xml version="1.0" encoding="utf-8" ?>
<svg baseProfile="full" height="256" version="1.1" width="256" xmlns="http://www.w3.org/2000/svg" xmlns:ev="http://www.w3.org/2001/xml-events" xmlns:xlink="http://www.w3.org/1999/xlink"><defs /><path d="M1909 719Q1939 719 1960.0 698.0Q1981 677 1981 647Q1981 618 1959.5 596.5Q1938 575 1909 575Q1880 575 1858.5 596.5Q1837 618 1837 647Q1837 677 1858.0 698.0Q1879 719 1909 719ZM1334 719Q1364 719 1385.0 698.0Q1406 677 1406 647Q1406 618 1384.5 596.5Q1363 575 1334 575Q1305 575 1283.5 596.5Q1262 618 1262 647Q1262 677 1283.0 698.0Q1304 719 1334 719ZM1047 719Q1076 719 1097.0 697.5Q1118 676 1118 647Q1118 618 1097.0 596.5Q1076 575 1047 575Q1018 575 996.5 596.5Q975 618 975 647Q975 677 996.0 698.0Q1017 719 1047 719ZM1622 719Q1651 719 1672.0 697.5Q1693 676 1693 647Q1693 618 1672.0 596.5Q1651 575 1622 575Q1593 575 1571.5 596.5Q1550 618 1550 647Q1550 677 1571.0 698.0Q1592 719 1622 719ZM1945 863 1981 791H1765V863ZM903 791 975 863H1118V791Z" style="fill:#31d2f7;stroke:none" transform="scale(1,-1) translate(0,-256)" /></svg>