<?xml version="1.0" encoding="utf-8" ?>
<svg baseProfile="full" height="256" version="1.1" width="256" xmlns="http://www.w3.org/2000/svg" xmlns:ev="http://www.w3.org/2001/xml-events" xmlns:xlink="http://www.w3.org/1999/xlink"><defs /><path d="M687 -72Q687 -102 675.5 -128.0Q664 -154 644.5 -173.5Q625 -193 599.0 -204.0Q573 -215 543 -215Q513 -215 487.0 -204.0Q461 -193 441.5 -173.5Q422 -154 411.0 -128.0Q400 -102 400 -72Q400 -42 411.0 -16.0Q422 10 441.5 29.5Q461 49 487.0 60.5Q513 72 543 72Q573 72 599.0 60.5Q625 49 644.5 29.5Q664 10 675.5 -16.0Q687 -42 687 -72ZM1550 -144Q1550 -114 1561.0 -88.0Q1572 -62 1591.5 -42.5Q1611 -23 1637.0 -11.5Q1663 0 1693 0Q1723 0 1749.0 -11.5Q1775 -23 1794.5 -42.5Q1814 -62 1825.5 -88.0Q1837 -114 1837 -144Q1837 -174 1825.5 -200.0Q1814 -226 1794.5 -245.5Q1775 -265 1749.0 -276.0Q1723 -287 1693 -287Q1663 -287 1637.0 -276.0Q1611 -265 1591.5 -245.5Q1572 -226 1561.0 -200.0Q1550 -174 1550 -144Z" style="fill:#f03a17;stroke:none" transform="scale(1,-1) translate(0,-256)" /></svg>