<?xml version="1.0" encoding="utf-8" ?>
<svg baseProfile="full" height="256" version="1.1" width="256" xmlns="http://www.w3.org/2000/svg" xmlns:ev="http://www.w3.org/2001/xml-events" xmlns:xlink="http://www.w3.org/1999/xlink"><defs /><path d="M1262 647 1322 431 1262 216H975L896 431L975 647ZM1262 1222H975L923 1438L975 1653H1262L1319 1438ZM1262 0 1316 -108 1262 -215H975L902 -108L975 0ZM1837 1222V1653H1981V1222L1907 1169ZM1837 647 1904 671 1981 647V216H1837ZM1406 -215 1313 -72H1693V-215ZM1406 360 1352 434 1406 503H1550L1607 434L1550 360ZM1406 1510H1550L1580 1442L1550 1366H1406L1358 1442Z" style="fill:#cccccc;stroke:none" transform="scale(1,-1) translate(0,-256)" /></svg>