<?xml version="1.0" encoding="utf-8" ?>
<svg baseProfile="full" height="256" version="1.1" width="256" xmlns="http://www.w3.org/2000/svg" xmlns:ev="http://www.w3.org/2001/xml-events" xmlns:xlink="http://www.w3.org/1999/xlink"><defs /><path d="M975 216Q961 216 950.0 227.0Q939 238 939 252Q939 266 946.5 274.0Q954 282 966 287Q970 289 993.0 295.0Q1016 301 1047.5 309.5Q1079 318 1115.0 326.5Q1151 335 1182.0 342.5Q1213 350 1235.0 355.0Q1257 360 1261 360Q1276 360 1287.0 349.0Q1298 338 1298 323Q1298 309 1290.0 301.5Q1282 294 1271 289Q1265 286 1242.0 279.5Q1219 273 1188.0 265.0Q1157 257 1121.5 248.5Q1086 240 1055.5 232.5Q1025 225 1002.5 220.5Q980 216 975 216ZM975 0Q960 0 949.5 10.5Q939 21 939 36Q939 50 946.5 58.0Q954 66 966 71Q970 73 992.5 79.0Q1015 85 1047.0 93.0Q1079 101 1115.0 110.0Q1151 119 1183.0 126.5Q1215 134 1237.0 139.0Q1259 144 1262 144Q1276 144 1287.0 133.0Q1298 122 1298 108Q1298 94 1290.5 86.0Q1283 78 1271 73Q1266 71 1243.5 64.5Q1221 58 1189.5 50.0Q1158 42 1122.5 33.0Q1087 24 1056.0 17.0Q1025 10 1002.5 5.0Q980 0 975 0ZM975 432Q960 432 949.5 442.5Q939 453 939 468Q939 482 947.0 489.5Q955 497 966 502Q971 504 994.0 510.5Q1017 517 1049.0 525.0Q1081 533 1116.5 542.0Q1152 551 1183.0 558.0Q1214 565 1236.0 570.0Q1258 575 1262 575Q1276 575 1287.0 564.0Q1298 553 1298 539Q1298 525 1290.5 517.5Q1283 510 1271 504Q1265 501 1242.5 495.0Q1220 489 1189.0 481.0Q1158 473 1122.5 464.5Q1087 456 1056.0 448.5Q1025 441 1002.5 436.5Q980 432 975 432ZM975 -215Q960 -215 949.5 -204.5Q939 -194 939 -179Q939 -165 946.0 -157.5Q953 -150 966 -145Q973 -143 996.0 -136.5Q1019 -130 1050.5 -122.0Q1082 -114 1117.0 -105.0Q1152 -96 1182.5 -88.5Q1213 -81 1235.0 -76.5Q1257 -72 1262 -72Q1276 -72 1287.0 -83.0Q1298 -94 1298 -108Q1298 -123 1291.0 -130.0Q1284 -137 1271 -142Q1263 -145 1240.0 -151.5Q1217 -158 1186.0 -166.0Q1155 -174 1120.5 -182.5Q1086 -191 1055.5 -198.5Q1025 -206 1003.0 -210.5Q981 -215 975 -215ZM975 647Q960 647 949.5 657.5Q939 668 939 683Q939 697 946.5 705.0Q954 713 966 718Q970 720 993.0 726.0Q1016 732 1047.5 740.5Q1079 749 1115.0 757.5Q1151 766 1182.0 773.5Q1213 781 1235.0 786.0Q1257 791 1261 791Q1276 791 1287.0 780.5Q1298 770 1298 755Q1298 741 1290.5 733.0Q1283 725 1271 720Q1266 718 1243.5 711.5Q1221 705 1189.5 697.0Q1158 689 1122.5 680.0Q1087 671 1056.0 664.0Q1025 657 1002.5 652.0Q980 647 975 647ZM975 863Q961 863 950.0 874.0Q939 885 939 899Q939 913 946.0 921.0Q953 929 966 934Q972 936 995.5 942.5Q1019 949 1050.0 957.0Q1081 965 1116.5 973.5Q1152 982 1182.5 989.5Q1213 997 1235.0 1001.5Q1257 1006 1262 1006Q1277 1006 1287.5 995.5Q1298 985 1298 970Q1298 956 1290.0 948.5Q1282 941 1271 936Q1265 933 1242.0 926.5Q1219 920 1188.0 912.0Q1157 904 1121.5 895.5Q1086 887 1055.5 879.5Q1025 872 1002.5 867.5Q980 863 975 863ZM975 1078Q960 1078 949.5 1089.0Q939 1100 939 1115Q939 1129 947.0 1136.5Q955 1144 966 1149Q971 1151 994.0 1157.5Q1017 1164 1049.0 1172.0Q1081 1180 1116.5 1189.0Q1152 1198 1183.0 1205.0Q1214 1212 1236.0 1217.0Q1258 1222 1262 1222Q1276 1222 1287.0 1211.0Q1298 1200 1298 1186Q1298 1172 1290.5 1164.0Q1283 1156 1271 1151Q1266 1149 1243.5 1142.5Q1221 1136 1189.5 1128.0Q1158 1120 1122.5 1111.0Q1087 1102 1056.0 1095.0Q1025 1088 1002.5 1083.0Q980 1078 975 1078ZM975 1581Q960 1581 949.5 1592.0Q939 1603 939 1618Q939 1632 947.0 1639.5Q955 1647 966 1652Q973 1655 996.0 1661.5Q1019 1668 1050.0 1676.0Q1081 1684 1116.0 1693.0Q1151 1702 1181.5 1709.0Q1212 1716 1234.0 1720.5Q1256 1725 1262 1725Q1276 1725 1287.0 1714.0Q1298 1703 1298 1689Q1298 1675 1290.5 1667.0Q1283 1659 1271 1654Q1267 1652 1244.0 1646.0Q1221 1640 1189.0 1631.5Q1157 1623 1121.0 1614.5Q1085 1606 1053.5 1598.5Q1022 1591 1000.0 1586.0Q978 1581 975 1581Z" style="fill:#a6a6a6;stroke:none" transform="scale(1,-1) translate(0,-256)" /></svg>