<?xml version="1.0" encoding="utf-8" ?>
<svg baseProfile="full" height="256" version="1.1" width="256" xmlns="http://www.w3.org/2000/svg" xmlns:ev="http://www.w3.org/2001/xml-events" xmlns:xlink="http://www.w3.org/1999/xlink"><defs /><path d="M1909 216Q1909 112 1869.5 20.5Q1830 -71 1761.5 -139.5Q1693 -208 1601.5 -247.5Q1510 -287 1406 -287Q1302 -287 1210.0 -247.5Q1118 -208 1050.0 -140.0Q982 -72 942.5 20.0Q903 112 903 216Q903 320 942.5 411.5Q982 503 1050.5 571.5Q1119 640 1210.5 679.5Q1302 719 1406 719Q1510 719 1601.5 679.5Q1693 640 1761.5 571.5Q1830 503 1869.5 411.5Q1909 320 1909 216Z" style="fill:#ffb900;stroke:none" transform="scale(1,-1) translate(0,-256)" /></svg>