<?xml version="1.0" encoding="utf-8" ?>
<svg baseProfile="full" height="256" version="1.1" width="256" xmlns="http://www.w3.org/2000/svg" xmlns:ev="http://www.w3.org/2001/xml-events" xmlns:xlink="http://www.w3.org/1999/xlink"><defs /><path d="M2305 1727Q2324 1727 2343.5 1724.5Q2363 1722 2378.0 1714.0Q2393 1706 2402.5 1691.5Q2412 1677 2412 1653Q2412 1643 2408.5 1633.5Q2405 1624 2400 1616L1694 431H1118L411 1616Q400 1633 400 1653Q400 1679 410.5 1693.5Q421 1708 438.0 1715.5Q455 1723 476.0 1725.0Q497 1727 517 1727Q543 1727 559.0 1726.0Q575 1725 588.0 1722.0Q601 1719 615.0 1713.5Q629 1708 653 1699L717 1725H932L1406 920L1880 1725H2095L2159 1699Q2182 1706 2198.5 1711.5Q2215 1717 2230.0 1720.5Q2245 1724 2262.5 1725.5Q2280 1727 2305 1727Z" style="fill:#31d2f7;stroke:none" transform="scale(1,-1) translate(0,-256)" /></svg>