<?xml version="1.0" encoding="utf-8" ?>
<svg baseProfile="full" height="256" version="1.1" width="256" xmlns="http://www.w3.org/2000/svg" xmlns:ev="http://www.w3.org/2001/xml-events" xmlns:xlink="http://www.w3.org/1999/xlink"><defs /><path d="M2556 1653Q2556 1621 2547.5 1594.0Q2539 1567 2523 1540L1945 573Q1999 493 2026.0 403.0Q2053 313 2053 216Q2053 127 2030.0 44.0Q2007 -39 1964.5 -110.5Q1922 -182 1863.0 -241.0Q1804 -300 1732.5 -342.5Q1661 -385 1578.0 -408.0Q1495 -431 1406 -431Q1317 -431 1234.0 -408.0Q1151 -385 1079.5 -342.5Q1008 -300 949.0 -241.0Q890 -182 847.5 -110.5Q805 -39 782.0 44.0Q759 127 759 216Q759 313 786.0 403.0Q813 493 867 573L288 1543Q273 1568 264.5 1596.0Q256 1624 256 1653Q256 1698 273.0 1737.0Q290 1776 319.5 1805.5Q349 1835 388.0 1852.0Q427 1869 472 1869H2340Q2385 1869 2424.0 1852.0Q2463 1835 2492.5 1805.5Q2522 1776 2539.0 1737.0Q2556 1698 2556 1653Z" style="fill:#000000;stroke:none" transform="scale(1,-1) translate(0,-256)" /></svg>