<?xml version="1.0" encoding="utf-8" ?>
<svg baseProfile="full" height="256" version="1.1" width="256" xmlns="http://www.w3.org/2000/svg" xmlns:ev="http://www.w3.org/2001/xml-events" xmlns:xlink="http://www.w3.org/1999/xlink"><defs /><path d="M903 -359V-215Q903 -137 926.0 -63.5Q949 10 994 73Q959 76 929.5 91.5Q900 107 878.0 131.0Q856 155 843.5 186.0Q831 217 831 252V321Q813 300 793.5 281.0Q774 262 752.0 247.5Q730 233 705.5 224.5Q681 216 651 216Q613 216 580.5 230.0Q548 244 523.5 268.5Q499 293 485.0 325.5Q471 358 471 396Q471 425 479.5 450.0Q488 475 503.0 497.0Q518 519 537.0 538.5Q556 558 577 575H256L495 802Q442 816 398.5 846.0Q355 876 323.0 917.5Q291 959 273.5 1009.5Q256 1060 256 1114Q256 1186 282.5 1242.0Q309 1298 357 1349Q452 1451 576.0 1533.5Q700 1616 838.0 1674.5Q976 1733 1121.5 1765.0Q1267 1797 1406 1797H1622Q1808 1797 1974.5 1746.0Q2141 1695 2296 1592Q2327 1572 2360.0 1548.5Q2393 1525 2420.5 1497.0Q2448 1469 2466.0 1435.0Q2484 1401 2484 1360Q2484 1327 2472.5 1296.5Q2461 1266 2440.5 1242.5Q2420 1219 2392.0 1203.0Q2364 1187 2331 1182Q2440 1053 2498.0 898.5Q2556 744 2556 575Q2556 446 2522.5 327.0Q2489 208 2428.0 104.0Q2367 0 2282.0 -85.0Q2197 -170 2093.0 -231.0Q1989 -292 1870.0 -325.5Q1751 -359 1622 -359Z" style="fill:#000000;stroke:none" transform="scale(1,-1) translate(0,-256)" /></svg>