<?xml version="1.0" encoding="utf-8" ?>
<svg baseProfile="full" height="256" version="1.1" width="256" xmlns="http://www.w3.org/2000/svg" xmlns:ev="http://www.w3.org/2001/xml-events" xmlns:xlink="http://www.w3.org/1999/xlink"><defs /><path d="M1622 1366Q1647 1366 1672.0 1364.5Q1697 1363 1722 1359Q1788 1317 1857.0 1283.5Q1926 1250 1995 1213Q2050 1184 2103.5 1152.5Q2157 1121 2215 1097Q2296 1005 2345.5 893.5Q2395 782 2408 660Q2389 645 2381.5 622.5Q2374 600 2374 577Q2374 542 2363.0 509.0Q2352 476 2344 442Q2335 406 2327.5 369.0Q2320 332 2320 294Q2320 256 2330 223Q2283 131 2215.5 53.5Q2148 -24 2062 -81Q1990 -90 1936.5 -100.5Q1883 -111 1834.5 -126.5Q1786 -142 1736.0 -163.5Q1686 -185 1622 -215H1047Q1047 -141 1075.5 -75.5Q1104 -10 1152.5 38.5Q1201 87 1266.5 115.5Q1332 144 1406 144H1622Q1639 126 1662.5 117.5Q1686 109 1711 109Q1753 109 1769.5 133.0Q1786 157 1786 195Q1824 221 1851.5 258.5Q1879 296 1894 340Q1948 362 1948 423Q1948 452 1935.5 481.5Q1923 511 1894 523Q1879 567 1851.5 604.5Q1824 642 1786 668Q1766 713 1734.0 737.0Q1702 761 1651 761Q1631 761 1608.0 754.0Q1585 747 1561.5 739.0Q1538 731 1515.5 724.0Q1493 717 1474 717Q1467 717 1457 719L1262 524V252Q1262 237 1251.5 226.5Q1241 216 1226 216Q1211 216 1200.5 226.5Q1190 237 1190 252V539Q1190 554 1201 565L1355 719H1241L1047 524V252Q1047 237 1036.5 226.5Q1026 216 1011 216Q996 216 985.5 226.5Q975 237 975 252V539Q975 555 985 565L1140 719H1026L677 370Q666 359 651 359Q637 359 626.0 370.0Q615 381 615 395Q615 410 626 421L924 719H615L759 863L615 1006Q687 1078 781.0 1143.5Q875 1209 979.0 1258.5Q1083 1308 1192.5 1337.0Q1302 1366 1406 1366Z" style="fill:#f7630c;stroke:none" transform="scale(1,-1) translate(0,-256)" /></svg>