<?xml version="1.0" encoding="utf-8" ?>
<svg baseProfile="full" height="256" version="1.1" width="256" xmlns="http://www.w3.org/2000/svg" xmlns:ev="http://www.w3.org/2001/xml-events" xmlns:xlink="http://www.w3.org/1999/xlink"><defs /><path d="M1495 719 1774 998Q1804 1028 1820.5 1067.5Q1837 1107 1837 1150Q1837 1193 1821.0 1231.5Q1805 1270 1777.0 1299.0Q1749 1328 1711.5 1346.0Q1674 1364 1631 1366Q1715 1365 1796.0 1346.5Q1877 1328 1951.5 1293.5Q2026 1259 2093.0 1209.5Q2160 1160 2215 1097L1785 667Q1734 702 1682.0 711.0Q1630 720 1574 720Q1554 720 1534.5 719.5Q1515 719 1495 719ZM2407 660Q2409 639 2410.5 617.5Q2412 596 2412 575Q2412 483 2390.5 394.5Q2369 306 2329 224L1894 340Q1901 362 1905.0 385.0Q1909 408 1909 431Q1909 454 1905.0 477.0Q1901 500 1894 523ZM1622 144Q1666 144 1708.0 157.0Q1750 170 1785 196L2062 -81Q1964 -147 1852.0 -181.0Q1740 -215 1622 -215Z" style="fill:#f7b189;stroke:none" transform="scale(1,-1) translate(0,-256)" /></svg>