<?xml version="1.0" encoding="utf-8" ?>
<svg baseProfile="full" height="256" version="1.1" width="256" xmlns="http://www.w3.org/2000/svg" xmlns:ev="http://www.w3.org/2001/xml-events" xmlns:xlink="http://www.w3.org/1999/xlink"><defs /><path d="M1011 1150Q1033 1150 1053.0 1141.5Q1073 1133 1087.0 1118.0Q1101 1103 1109.5 1083.5Q1118 1064 1118 1042V899Q1118 877 1109.5 857.5Q1101 838 1087.0 823.0Q1073 808 1053.0 799.5Q1033 791 1011 791Q988 791 968.5 799.5Q949 808 934.5 822.5Q920 837 911.5 856.5Q903 876 903 899V1042Q903 1064 911.5 1084.0Q920 1104 934.5 1118.5Q949 1133 968.5 1141.5Q988 1150 1011 1150Z" style="fill:#000000;stroke:none" transform="scale(1,-1) translate(0,-256)" /></svg>