<?xml version="1.0" encoding="utf-8" ?>
<svg baseProfile="full" height="256" version="1.1" width="256" xmlns="http://www.w3.org/2000/svg" xmlns:ev="http://www.w3.org/2001/xml-events" xmlns:xlink="http://www.w3.org/1999/xlink"><defs /><path d="M1622 1653Q1718 1653 1813.0 1636.0Q1908 1619 1998.5 1585.0Q2089 1551 2172.0 1501.5Q2255 1452 2326 1388Q2334 1381 2337.0 1376.0Q2340 1371 2340 1360Q2340 1345 2329.5 1334.5Q2319 1324 2304 1324Q2296 1324 2290.0 1327.0Q2284 1330 2278 1335Q2200 1394 2125.0 1440.0Q2050 1486 1972.0 1517.5Q1894 1549 1808.0 1565.0Q1722 1581 1622 1581H1406Q1227 1581 1066.0 1529.0Q905 1477 754 1385Q722 1365 691.0 1345.5Q660 1326 632 1302L503 1190Q487 1176 479.0 1155.0Q471 1134 471 1114Q471 1092 479.5 1072.5Q488 1053 503.0 1038.0Q518 1023 537.5 1014.5Q557 1006 579 1006H759V935H579Q543 935 510.5 949.5Q478 964 453.5 988.5Q429 1013 414.5 1045.5Q400 1078 400 1114Q400 1153 415.0 1185.0Q430 1217 456 1245Q541 1336 653.5 1411.0Q766 1486 892.0 1540.0Q1018 1594 1150.0 1623.5Q1282 1653 1406 1653Z" style="fill:#f7b189;stroke:none" transform="scale(1,-1) translate(0,-256)" /></svg>