<?xml version="1.0" encoding="utf-8" ?>
<svg baseProfile="full" height="256" version="1.1" width="256" xmlns="http://www.w3.org/2000/svg" xmlns:ev="http://www.w3.org/2001/xml-events" xmlns:xlink="http://www.w3.org/1999/xlink"><defs /><path d="M1190 1689Q1210 1689 1219.5 1677.5Q1229 1666 1238.0 1652.5Q1247 1639 1259.5 1628.0Q1272 1617 1298 1617H1334V1552Q1334 1522 1323.0 1494.5Q1312 1467 1293.0 1446.5Q1274 1426 1247.5 1413.5Q1221 1401 1190 1401Q1160 1401 1134.0 1412.5Q1108 1424 1088.5 1444.0Q1069 1464 1058.0 1490.0Q1047 1516 1047 1546V1617H1083Q1108 1617 1121.0 1628.0Q1134 1639 1143.0 1652.5Q1152 1666 1161.5 1677.5Q1171 1689 1190 1689Z" style="fill:#fff100;stroke:none" transform="scale(1,-1) translate(0,-256)" /></svg>