<?xml version="1.0" encoding="utf-8" ?>
<svg baseProfile="full" height="256" version="1.1" width="256" xmlns="http://www.w3.org/2000/svg" xmlns:ev="http://www.w3.org/2001/xml-events" xmlns:xlink="http://www.w3.org/1999/xlink"><defs /><path d="M1210 1498Q1287 1494 1358.5 1481.5Q1430 1469 1490.0 1439.5Q1550 1410 1595.5 1359.0Q1641 1308 1666 1226Q1677 1193 1685.0 1153.0Q1693 1113 1693 1078V1006Q1693 902 1653.5 810.5Q1614 719 1545.5 650.5Q1477 582 1385.5 542.5Q1294 503 1190 503Q1086 503 994.5 542.5Q903 582 834.5 650.5Q766 719 726.5 810.5Q687 902 687 1006Q687 1024 686.5 1042.0Q686 1060 687 1078Q689 1113 699.5 1152.5Q710 1192 724 1225Q754 1300 800.5 1352.0Q847 1404 906.5 1436.5Q966 1469 1036.0 1483.5Q1106 1498 1183 1498ZM1334 271H1047L1118 431H1262Z" style="fill:#ffc83d;stroke:none" transform="scale(1,-1) translate(0,-256)" /></svg>