<?xml version="1.0" encoding="utf-8" ?>
<svg baseProfile="full" height="256" version="1.1" width="256" xmlns="http://www.w3.org/2000/svg" xmlns:ev="http://www.w3.org/2001/xml-events" xmlns:xlink="http://www.w3.org/1999/xlink"><defs /><path d="M1981 -48V-287H1765L1622 -215L1478 -287H1298L1190 -199L1083 -287H903L759 -215L615 -287H400V-48Q400 52 438.0 139.0Q476 226 541.0 291.0Q606 356 694.0 393.5Q782 431 881 431H903L1095 360H1118L1190 300L1261 360H1286L1478 431H1501Q1600 431 1687.5 393.5Q1775 356 1840.5 291.0Q1906 226 1943.5 138.5Q1981 51 1981 -48ZM1742 1572Q1763 1566 1780.5 1554.0Q1798 1542 1810.5 1525.5Q1823 1509 1830.0 1489.0Q1837 1469 1837 1447Q1837 1402 1809 1366L1693 1222Q1689 1223 1671.5 1227.0Q1654 1231 1630.0 1236.5Q1606 1242 1579.0 1248.5Q1552 1255 1529.5 1260.0Q1507 1265 1491.5 1268.5Q1476 1272 1475 1272H857Q857 1272 845.0 1268.5Q833 1265 815.0 1259.5Q797 1254 776.0 1248.0Q755 1242 736.0 1236.5Q717 1231 703.5 1227.0Q690 1223 687 1222L572 1366Q558 1383 550.5 1403.5Q543 1424 543 1447Q543 1469 550.0 1489.0Q557 1509 569.5 1525.5Q582 1542 599.5 1554.0Q617 1566 638 1572L1190 1725Z" style="fill:#3a96dd;stroke:none" transform="scale(1,-1) translate(0,-256)" /></svg>