<?xml version="1.0" encoding="utf-8" ?>
<svg baseProfile="full" height="256" version="1.1" width="256" xmlns="http://www.w3.org/2000/svg" xmlns:ev="http://www.w3.org/2001/xml-events" xmlns:xlink="http://www.w3.org/1999/xlink"><defs /><path d="M2125 -48V-431H256V-48Q256 59 290.5 157.0Q325 255 387.0 335.0Q449 415 536.0 472.5Q623 530 727 556Q639 647 591.0 763.0Q543 879 543 1006V1172Q517 1204 491.0 1234.5Q465 1265 445.0 1297.5Q425 1330 412.5 1366.5Q400 1403 400 1447Q400 1493 414.5 1535.5Q429 1578 455.5 1612.5Q482 1647 519.0 1672.5Q556 1698 600 1710L1149 1863Q1168 1869 1190 1869Q1211 1869 1231 1863L1781 1710Q1825 1698 1861.5 1672.5Q1898 1647 1924.5 1612.0Q1951 1577 1966.0 1535.0Q1981 1493 1981 1447Q1981 1403 1968.0 1367.0Q1955 1331 1934.5 1298.0Q1914 1265 1888.5 1234.5Q1863 1204 1837 1172V1006Q1837 880 1790.0 764.0Q1743 648 1655 557Q1759 531 1845.5 473.0Q1932 415 1994.0 335.0Q2056 255 2090.5 157.0Q2125 59 2125 -48Z" style="fill:#000000;stroke:none" transform="scale(1,-1) translate(0,-256)" /></svg>