<?xml version="1.0" encoding="utf-8" ?>
<svg baseProfile="full" height="256" version="1.1" width="256" xmlns="http://www.w3.org/2000/svg" xmlns:ev="http://www.w3.org/2001/xml-events" xmlns:xlink="http://www.w3.org/1999/xlink"><defs /><path d="M1406 -431Q1295 -431 1188.0 -406.5Q1081 -382 983.5 -335.5Q886 -289 800.5 -220.5Q715 -152 646 -65Q612 -21 585.5 24.0Q559 69 533 117Q470 237 406.5 356.0Q343 475 280 595Q268 617 262.0 637.0Q256 657 256 683Q256 720 270.0 753.0Q284 786 308.5 810.5Q333 835 365.5 849.0Q398 863 436 863H472V1653Q472 1698 489.0 1737.0Q506 1776 535.0 1805.5Q564 1835 603.0 1852.0Q642 1869 687 1869Q717 1869 745.5 1860.5Q774 1852 800 1837L1230 1581H1582L2017 1840Q2040 1854 2069.0 1861.5Q2098 1869 2125 1869Q2170 1869 2209.0 1852.0Q2248 1835 2277.0 1805.5Q2306 1776 2323.0 1737.0Q2340 1698 2340 1653V863H2376Q2413 863 2446.0 849.0Q2479 835 2503.5 810.5Q2528 786 2542.0 753.0Q2556 720 2556 683Q2556 657 2549.5 636.5Q2543 616 2531 593L2276 113Q2250 65 2224.0 20.5Q2198 -24 2164 -66Q2095 -153 2009.5 -221.0Q1924 -289 1827.0 -335.5Q1730 -382 1623.5 -406.5Q1517 -431 1406 -431Z" style="fill:#000000;stroke:none" transform="scale(1,-1) translate(0,-256)" /></svg>