<?xml version="1.0" encoding="utf-8" ?>
<svg baseProfile="full" height="256" version="1.1" width="256" xmlns="http://www.w3.org/2000/svg" xmlns:ev="http://www.w3.org/2001/xml-events" xmlns:xlink="http://www.w3.org/1999/xlink"><defs /><path d="M2412 683Q2412 679 2402.0 657.5Q2392 636 2375.0 603.0Q2358 570 2336.0 528.0Q2314 486 2290.5 442.0Q2267 398 2243.5 355.0Q2220 312 2201.0 276.5Q2182 241 2168.0 215.0Q2154 189 2149 180Q2128 140 2106.0 102.5Q2084 65 2056 30Q1997 -45 1924.0 -104.0Q1851 -163 1767.5 -203.5Q1684 -244 1592.5 -265.5Q1501 -287 1406 -287Q1311 -287 1219.5 -265.5Q1128 -244 1044.5 -203.5Q961 -163 887.5 -104.0Q814 -45 755 30Q727 65 705.0 102.5Q683 140 662 180Q655 192 633.5 232.5Q612 273 582.5 327.5Q553 382 521.0 442.0Q489 502 462.0 554.0Q435 606 417.5 642.0Q400 678 400 683Q400 698 410.5 708.5Q421 719 436 719H615V1165L713 1426L615 1635V1653Q615 1683 636.0 1704.0Q657 1725 687 1725Q692 1725 706.5 1721.0Q721 1717 726 1714L1190 1438Q1190 1438 1201.0 1426.5Q1212 1415 1224.5 1401.5Q1237 1388 1248.5 1376.0Q1260 1364 1262 1362L1334 1438H1478L1550 1355Q1552 1357 1563.5 1370.5Q1575 1384 1587.5 1399.0Q1600 1414 1611.0 1426.0Q1622 1438 1622 1438L2085 1714Q2090 1717 2104.5 1721.0Q2119 1725 2125 1725Q2164 1725 2180.5 1698.5Q2197 1672 2197 1638L2090 1449L2197 1165V719H2376Q2391 719 2401.5 708.5Q2412 698 2412 683Z" style="fill:#ffc83d;stroke:none" transform="scale(1,-1) translate(0,-256)" /></svg>