<?xml version="1.0" encoding="utf-8" ?>
<svg baseProfile="full" height="256" version="1.1" width="256" xmlns="http://www.w3.org/2000/svg" xmlns:ev="http://www.w3.org/2001/xml-events" xmlns:xlink="http://www.w3.org/1999/xlink"><defs /><path d="M1406 1869Q1565 1869 1712.0 1828.0Q1859 1787 1986.5 1712.0Q2114 1637 2219.0 1532.0Q2324 1427 2399.0 1299.5Q2474 1172 2515.0 1025.0Q2556 878 2556 719Q2556 560 2515.0 413.0Q2474 266 2399.0 138.5Q2324 11 2219.0 -94.0Q2114 -199 1986.5 -274.0Q1859 -349 1712.0 -390.0Q1565 -431 1406 -431Q1304 -431 1204.5 -412.5Q1105 -394 1009 -359H723Q671 -359 625.5 -339.0Q580 -319 546.0 -285.0Q512 -251 492.0 -205.5Q472 -160 472 -108V50Q366 199 311.0 367.5Q256 536 256 719Q256 878 297.0 1025.0Q338 1172 413.0 1299.5Q488 1427 593.0 1532.0Q698 1637 825.5 1712.0Q953 1787 1100.0 1828.0Q1247 1869 1406 1869Z" style="fill:#000000;stroke:none" transform="scale(1,-1) translate(0,-256)" /></svg>