<?xml version="1.0" encoding="utf-8" ?>
<svg baseProfile="full" height="256" version="1.1" width="256" xmlns="http://www.w3.org/2000/svg" xmlns:ev="http://www.w3.org/2001/xml-events" xmlns:xlink="http://www.w3.org/1999/xlink"><defs /><path d="M831 360H1442Q1464 360 1483.5 351.5Q1503 343 1518.0 328.0Q1533 313 1541.5 293.5Q1550 274 1550 252Q1550 230 1541.5 210.5Q1533 191 1518.0 176.0Q1503 161 1483.5 152.5Q1464 144 1442 144H1190V-108Q1190 -130 1181.5 -149.5Q1173 -169 1158.5 -183.5Q1144 -198 1124.5 -206.5Q1105 -215 1083 -215H723Q701 -215 681.5 -206.5Q662 -198 647.0 -183.5Q632 -169 623.5 -149.5Q615 -130 615 -108V396Q615 418 623.5 437.5Q632 457 647.0 471.5Q662 486 681.5 494.5Q701 503 723 503Q745 503 764.5 494.5Q784 486 799.0 472.0Q814 458 822.5 438.0Q831 418 831 396ZM1622 1510Q1685 1510 1754.0 1495.0Q1823 1480 1888.5 1451.5Q1954 1423 2011.0 1382.5Q2068 1342 2107 1291Q2125 1268 2125 1243Q2125 1214 2103.5 1192.5Q2082 1171 2053 1171Q2036 1171 2024.0 1177.5Q2012 1184 1999 1195Q1953 1235 1912.5 1266.5Q1872 1298 1828.5 1320.0Q1785 1342 1735.5 1354.0Q1686 1366 1622 1366Q1592 1366 1571.0 1387.0Q1550 1408 1550 1438Q1550 1467 1571.5 1488.5Q1593 1510 1622 1510ZM1262 1438Q1262 1408 1241.0 1387.0Q1220 1366 1190 1366Q1126 1366 1076.5 1354.5Q1027 1343 983.5 1321.0Q940 1299 899.5 1267.0Q859 1235 813 1195Q800 1184 788.5 1177.5Q777 1171 759 1171Q729 1171 708.0 1192.0Q687 1213 687 1243Q687 1268 705 1291Q744 1342 801.0 1382.5Q858 1423 923.5 1451.5Q989 1480 1058.0 1495.0Q1127 1510 1190 1510Q1219 1510 1240.5 1488.5Q1262 1467 1262 1438Z" style="fill:#d48c00;stroke:none" transform="scale(1,-1) translate(0,-256)" /></svg>