<?xml version="1.0" encoding="utf-8" ?>
<svg baseProfile="full" height="256" version="1.1" width="256" xmlns="http://www.w3.org/2000/svg" xmlns:ev="http://www.w3.org/2001/xml-events" xmlns:xlink="http://www.w3.org/1999/xlink"><defs /><path d="M1837 647Q1867 647 1888.0 626.0Q1909 605 1909 575Q1909 546 1887.5 524.5Q1866 503 1837 503H1622Q1569 503 1517.0 492.0Q1465 481 1416.0 459.5Q1367 438 1323.5 406.5Q1280 375 1246 335Q1229 315 1215.5 293.5Q1202 272 1186 252Q1173 235 1159.5 225.5Q1146 216 1123 216Q1094 216 1072.5 237.5Q1051 259 1051 288Q1051 299 1053.5 307.0Q1056 315 1061 324Q1101 398 1162.5 458.0Q1224 518 1298.0 560.0Q1372 602 1455.5 624.5Q1539 647 1622 647ZM1119 899Q1119 877 1110.5 857.5Q1102 838 1087.0 823.0Q1072 808 1052.5 799.5Q1033 791 1011 791Q988 791 968.5 799.5Q949 808 934.5 822.5Q920 837 911.5 856.5Q903 876 903 899V1042Q903 1064 911.5 1084.0Q920 1104 934.5 1118.5Q949 1133 968.5 1141.5Q988 1150 1011 1150Q1033 1150 1052.5 1141.5Q1072 1133 1087.0 1118.0Q1102 1103 1110.5 1083.5Q1119 1064 1119 1042ZM1658 863Q1635 863 1615.5 871.5Q1596 880 1581.5 894.5Q1567 909 1558.5 928.5Q1550 948 1550 971Q1550 993 1558.5 1013.0Q1567 1033 1582.0 1047.0Q1597 1061 1616.5 1069.5Q1636 1078 1658 1078H1801Q1823 1078 1842.5 1069.5Q1862 1061 1877.0 1047.0Q1892 1033 1900.5 1013.0Q1909 993 1909 971Q1909 948 1900.5 928.5Q1892 909 1877.5 894.5Q1863 880 1843.0 871.5Q1823 863 1801 863Z" style="fill:#000000;stroke:none" transform="scale(1,-1) translate(0,-256)" /></svg>