<?xml version="1.0" encoding="utf-8" ?>
<svg baseProfile="full" height="256" version="1.1" width="256" xmlns="http://www.w3.org/2000/svg" xmlns:ev="http://www.w3.org/2001/xml-events" xmlns:xlink="http://www.w3.org/1999/xlink"><defs /><path d="M687 -431Q598 -431 519.5 -397.0Q441 -363 382.5 -304.5Q324 -246 290.0 -167.5Q256 -89 256 0V1438Q256 1527 290.0 1605.5Q324 1684 382.5 1742.5Q441 1801 519.5 1835.0Q598 1869 687 1869H1406Q1495 1869 1573.5 1835.0Q1652 1801 1710.5 1742.5Q1769 1684 1803.0 1605.5Q1837 1527 1837 1438V0Q1837 -89 1803.0 -167.5Q1769 -246 1710.5 -304.5Q1652 -363 1573.5 -397.0Q1495 -431 1406 -431Z" style="fill:#000000;stroke:none" transform="scale(1,-1) translate(0,-256)" /></svg>