<?xml version="1.0" encoding="utf-8" ?>
<svg baseProfile="full" height="256" version="1.1" width="256" xmlns="http://www.w3.org/2000/svg" xmlns:ev="http://www.w3.org/2001/xml-events" xmlns:xlink="http://www.w3.org/1999/xlink"><defs /><path d="M1550 1438H1262V1510H1550ZM1550 -72H1262V0H1550ZM831 144H543V216H831ZM831 1222H543V1294H831ZM1550 1006H1262V1078H1550ZM831 1006H543V1078H831ZM831 791H543V863H831ZM1550 575H1262V647H1550ZM831 575H543V647H831ZM1550 791H1262V863H1550ZM1550 1222H1262V1294H1550ZM831 1438H543V1510H831ZM1550 144H1262V216H1550ZM831 -72H543V0H831ZM831 360H543V431H831ZM1550 360H1262V431H1550Z" style="fill:#a6a6a6;stroke:none" transform="scale(1,-1) translate(0,-256)" /></svg>