<?xml version="1.0" encoding="utf-8" ?>
<svg baseProfile="full" height="256" version="1.1" width="256" xmlns="http://www.w3.org/2000/svg" xmlns:ev="http://www.w3.org/2001/xml-events" xmlns:xlink="http://www.w3.org/1999/xlink"><defs /><path d="M1693 1441V-4Q1693 -63 1670.0 -114.5Q1647 -166 1607.5 -204.0Q1568 -242 1516.0 -264.5Q1464 -287 1406 -287H687Q629 -287 577.0 -264.5Q525 -242 485.5 -204.0Q446 -166 423.0 -114.5Q400 -63 400 -4V1441Q400 1499 423.0 1551.0Q446 1603 485.5 1641.5Q525 1680 577.0 1702.5Q629 1725 687 1725H1406Q1464 1725 1516.0 1702.5Q1568 1680 1607.5 1641.5Q1647 1603 1670.0 1551.0Q1693 1499 1693 1441Z" style="fill:#e5e5e5;stroke:none" transform="scale(1,-1) translate(0,-256)" /></svg>