<?xml version="1.0" encoding="utf-8" ?>
<svg baseProfile="full" height="256" version="1.1" width="256" xmlns="http://www.w3.org/2000/svg" xmlns:ev="http://www.w3.org/2001/xml-events" xmlns:xlink="http://www.w3.org/1999/xlink"><defs /><path d="M2125 719V575Q2125 463 2083.0 360.0Q2041 257 1963 176Q2001 159 2042.0 151.5Q2083 144 2125 144V0Q2049 0 1976.0 19.5Q1903 39 1837 77Q1771 39 1698.0 19.5Q1625 0 1550 0V144Q1634 144 1712 176Q1634 257 1592.0 360.0Q1550 463 1550 575V1006Q1550 1036 1538.5 1062.0Q1527 1088 1507.5 1107.5Q1488 1127 1462.0 1138.5Q1436 1150 1406 1150Q1376 1150 1350.0 1138.5Q1324 1127 1304.5 1107.5Q1285 1088 1273.5 1062.0Q1262 1036 1262 1006V288H1118V1006Q1118 1036 1107.0 1062.0Q1096 1088 1076.5 1107.5Q1057 1127 1031.0 1138.5Q1005 1150 975 1150Q945 1150 918.5 1138.5Q892 1127 872.5 1107.5Q853 1088 842.0 1062.0Q831 1036 831 1006V288H687V1006Q687 1036 675.5 1062.0Q664 1088 644.5 1107.5Q625 1127 599.0 1138.5Q573 1150 543 1150V1294Q606 1294 661.5 1268.0Q717 1242 759 1195Q801 1242 856.5 1268.0Q912 1294 975 1294Q1038 1294 1093.0 1268.5Q1148 1243 1190 1195Q1232 1242 1287.5 1268.0Q1343 1294 1406 1294Q1464 1294 1516.5 1271.0Q1569 1248 1608.0 1208.5Q1647 1169 1670.0 1116.5Q1693 1064 1693 1006V968Q1760 1006 1837 1006Q1895 1006 1947.5 983.0Q2000 960 2039.5 921.0Q2079 882 2102.0 829.5Q2125 777 2125 719ZM1981 575V719Q1981 749 1969.5 775.0Q1958 801 1938.5 820.5Q1919 840 1893.0 851.5Q1867 863 1837 863Q1807 863 1781.0 851.5Q1755 840 1735.5 820.5Q1716 801 1704.5 775.0Q1693 749 1693 719V575Q1693 481 1730.5 399.0Q1768 317 1837 254Q1906 317 1943.5 399.0Q1981 481 1981 575Z" style="fill:#ffffff;stroke:none" transform="scale(1,-1) translate(0,-256)" /></svg>