<?xml version="1.0" encoding="utf-8" ?>
<svg baseProfile="full" height="256" version="1.1" width="256" xmlns="http://www.w3.org/2000/svg" xmlns:ev="http://www.w3.org/2001/xml-events" xmlns:xlink="http://www.w3.org/1999/xlink"><defs /><path d="M1245 503Q1264 503 1280.5 495.0Q1297 487 1309.0 474.0Q1321 461 1327.5 444.0Q1334 427 1334 409V253L1200 331Q1178 344 1165.0 365.0Q1152 386 1152 412Q1152 431 1159.5 447.5Q1167 464 1179.5 476.5Q1192 489 1209.0 496.0Q1226 503 1245 503ZM1567 503Q1586 503 1602.5 496.0Q1619 489 1632.0 476.5Q1645 464 1652.5 447.5Q1660 431 1660 412Q1660 387 1646.5 365.0Q1633 343 1612 331L1478 253V409Q1478 427 1484.5 444.0Q1491 461 1503.0 474.0Q1515 487 1531.5 495.0Q1548 503 1567 503Z" style="fill:#af0d1a;stroke:none" transform="scale(1,-1) translate(0,-256)" /></svg>