<?xml version="1.0" encoding="utf-8" ?>
<svg baseProfile="full" height="256" version="1.1" width="256" xmlns="http://www.w3.org/2000/svg" xmlns:ev="http://www.w3.org/2001/xml-events" xmlns:xlink="http://www.w3.org/1999/xlink"><defs /><path d="M1879 1622Q1906 1677 1947.0 1723.0Q1988 1769 2038.5 1801.0Q2089 1833 2147.5 1851.0Q2206 1869 2268 1869H2556V1294Q2556 1227 2536.0 1164.5Q2516 1102 2479.5 1049.5Q2443 997 2392.0 956.0Q2341 915 2278 891Q2378 782 2431.0 645.0Q2484 508 2484 360Q2484 251 2455.5 150.0Q2427 49 2375.5 -39.0Q2324 -127 2252.0 -199.0Q2180 -271 2092.0 -322.5Q2004 -374 1903.0 -402.5Q1802 -431 1693 -431H1118Q1009 -431 908.0 -402.5Q807 -374 719.5 -322.5Q632 -271 559.5 -199.0Q487 -127 435.5 -39.0Q384 49 356.0 150.0Q328 251 328 360Q328 508 381.0 645.0Q434 782 534 891Q471 915 420.0 956.0Q369 997 332.5 1049.5Q296 1102 276.0 1164.5Q256 1227 256 1294V1869H543Q605 1869 663.5 1851.5Q722 1834 773.0 1801.5Q824 1769 865.0 1723.5Q906 1678 933 1622Q978 1638 1024.0 1645.5Q1070 1653 1118 1653H1693Q1790 1653 1879 1622Z" style="fill:#000000;stroke:none" transform="scale(1,-1) translate(0,-256)" /></svg>