<?xml version="1.0" encoding="utf-8" ?>
<svg baseProfile="full" height="256" version="1.1" width="256" xmlns="http://www.w3.org/2000/svg" xmlns:ev="http://www.w3.org/2001/xml-events" xmlns:xlink="http://www.w3.org/1999/xlink"><defs /><path d="M1693 1510Q1793 1510 1881.0 1466.5Q1969 1423 2032 1345L2131 1319L2100 1222H1801Q1749 1222 1703.5 1202.0Q1658 1182 1624.0 1148.0Q1590 1114 1570.0 1068.5Q1550 1023 1550 971V575H1262V971Q1262 1023 1242.0 1068.5Q1222 1114 1188.0 1148.0Q1154 1182 1108.5 1202.0Q1063 1222 1011 1222H712L664 1322L779 1343Q840 1422 929.0 1466.0Q1018 1510 1118 1510Z" style="fill:#eec7c2;stroke:none" transform="scale(1,-1) translate(0,-256)" /></svg>