<?xml version="1.0" encoding="utf-8" ?>
<svg baseProfile="full" height="256" version="1.1" width="256" xmlns="http://www.w3.org/2000/svg" xmlns:ev="http://www.w3.org/2001/xml-events" xmlns:xlink="http://www.w3.org/1999/xlink"><defs /><path d="M2125 840Q2228 746 2284.0 623.0Q2340 500 2340 360Q2340 270 2317.0 187.5Q2294 105 2252.0 33.0Q2210 -39 2151.0 -98.0Q2092 -157 2020.0 -199.0Q1948 -241 1865.0 -264.0Q1782 -287 1693 -287H1118Q984 -287 866.5 -236.0Q749 -185 661.0 -97.5Q573 -10 522.5 108.0Q472 226 472 360Q472 500 528.0 623.0Q584 746 687 840V1005L566 1206Q551 1232 534.0 1255.0Q517 1278 506 1306Q492 1340 486.0 1375.5Q480 1411 471 1446L400 1725H543Q603 1725 655.5 1702.5Q708 1680 747.0 1641.0Q786 1602 808.5 1550.0Q831 1498 831 1438V1399H1981V1438Q1981 1497 2003.5 1549.5Q2026 1602 2065.0 1641.0Q2104 1680 2156.5 1702.5Q2209 1725 2268 1725H2412L2325 1449Q2314 1414 2304.5 1379.0Q2295 1344 2281 1311Q2270 1285 2256.0 1260.5Q2242 1236 2229 1210L2125 1007Z" style="fill:#ee9889;stroke:none" transform="scale(1,-1) translate(0,-256)" /></svg>