<?xml version="1.0" encoding="utf-8" ?>
<svg baseProfile="full" height="256" version="1.1" width="256" xmlns="http://www.w3.org/2000/svg" xmlns:ev="http://www.w3.org/2001/xml-events" xmlns:xlink="http://www.w3.org/1999/xlink"><defs /><path d="M400 1294V1725L780 1345Q748 1304 730.0 1264.5Q712 1225 702.0 1184.5Q692 1144 689.5 1100.0Q687 1056 687 1006Q627 1006 575.0 1028.5Q523 1051 484.0 1090.0Q445 1129 422.5 1181.5Q400 1234 400 1294ZM2032 1345 2412 1725V1294Q2412 1234 2389.5 1181.5Q2367 1129 2328.0 1090.0Q2289 1051 2237.0 1028.5Q2185 1006 2125 1006Q2125 1056 2122.5 1100.0Q2120 1144 2110.0 1184.5Q2100 1225 2081.5 1264.5Q2063 1304 2032 1345ZM1406 791Q1435 791 1460.5 780.0Q1486 769 1508 749L1755 528Q1793 494 1815.0 453.0Q1837 412 1837 360Q1837 315 1820.0 276.0Q1803 237 1774.0 207.5Q1745 178 1706.0 161.0Q1667 144 1622 144H1190Q1145 144 1106.0 161.0Q1067 178 1038.0 207.5Q1009 237 992.0 276.0Q975 315 975 360Q975 408 994.0 448.0Q1013 488 1048 520L1304 749Q1327 769 1351.5 780.0Q1376 791 1406 791Z" style="fill:#ef6950;stroke:none" transform="scale(1,-1) translate(0,-256)" /></svg>