<?xml version="1.0" encoding="utf-8" ?>
<svg baseProfile="full" height="256" version="1.1" width="256" xmlns="http://www.w3.org/2000/svg" xmlns:ev="http://www.w3.org/2001/xml-events" xmlns:xlink="http://www.w3.org/1999/xlink"><defs /><path d="M2412 347Q2444 338 2470.5 317.0Q2497 296 2516.0 268.5Q2535 241 2545.5 208.5Q2556 176 2556 144Q2556 112 2545.5 79.5Q2535 47 2516.0 19.0Q2497 -9 2470.5 -29.5Q2444 -50 2412 -59V-287H2184Q2175 -319 2154.0 -345.5Q2133 -372 2105.5 -391.0Q2078 -410 2045.5 -420.5Q2013 -431 1981 -431Q1949 -431 1916.5 -420.5Q1884 -410 1856.0 -391.0Q1828 -372 1807.5 -345.5Q1787 -319 1778 -287H1034Q1025 -319 1004.0 -345.5Q983 -372 955.5 -391.0Q928 -410 895.5 -420.5Q863 -431 831 -431Q799 -431 766.5 -420.5Q734 -410 706.0 -391.0Q678 -372 657.5 -345.5Q637 -319 628 -287H400V-59Q368 -50 341.5 -29.5Q315 -9 296.0 19.0Q277 47 266.5 79.5Q256 112 256 144Q256 176 266.5 208.5Q277 241 296.0 268.5Q315 296 341.5 317.0Q368 338 400 347V1091Q368 1100 341.5 1120.5Q315 1141 296.0 1169.0Q277 1197 266.5 1229.5Q256 1262 256 1294Q256 1326 266.5 1358.5Q277 1391 296.0 1418.5Q315 1446 341.5 1467.0Q368 1488 400 1497V1725H628Q637 1757 657.5 1783.5Q678 1810 706.0 1829.0Q734 1848 766.5 1858.5Q799 1869 831 1869Q863 1869 895.5 1858.5Q928 1848 955.5 1829.0Q983 1810 1004.0 1783.5Q1025 1757 1034 1725H1778Q1787 1757 1807.5 1783.5Q1828 1810 1856.0 1829.0Q1884 1848 1916.5 1858.5Q1949 1869 1981 1869Q2013 1869 2045.5 1858.5Q2078 1848 2105.5 1829.0Q2133 1810 2154.0 1783.5Q2175 1757 2184 1725H2412V1497Q2444 1488 2470.5 1467.0Q2497 1446 2516.0 1418.5Q2535 1391 2545.5 1358.5Q2556 1326 2556 1294Q2556 1262 2545.5 1229.5Q2535 1197 2516.0 1169.0Q2497 1141 2470.5 1120.5Q2444 1100 2412 1091Z" style="fill:#000000;stroke:none" transform="scale(1,-1) translate(0,-256)" /></svg>