<?xml version="1.0" encoding="utf-8" ?>
<svg baseProfile="full" height="256" version="1.1" width="256" xmlns="http://www.w3.org/2000/svg" xmlns:ev="http://www.w3.org/2001/xml-events" xmlns:xlink="http://www.w3.org/1999/xlink"><defs /><path d="M1769 1294Q1842 1294 1907.0 1266.0Q1972 1238 2020.0 1189.5Q2068 1141 2096.0 1076.0Q2124 1011 2124 938Q2124 868 2097.5 802.5Q2071 737 2021 687L1406 72L791 687Q740 738 713.5 802.0Q687 866 687 938Q687 1011 715.0 1076.0Q743 1141 791.5 1189.5Q840 1238 904.5 1266.0Q969 1294 1043 1294Q1102 1294 1148.5 1278.5Q1195 1263 1234.5 1237.0Q1274 1211 1309.5 1176.5Q1345 1142 1381 1104L1406 1078L1433 1107Q1469 1145 1504.0 1179.0Q1539 1213 1578.0 1238.5Q1617 1264 1663.5 1279.0Q1710 1294 1769 1294ZM1981 -287Q1951 -287 1930.0 -266.0Q1909 -245 1909 -215V-72Q1909 -42 1930.0 -21.0Q1951 0 1981 0Q2011 0 2032.0 -21.0Q2053 -42 2053 -72V-215Q2053 -245 2032.0 -266.0Q2011 -287 1981 -287ZM2340 72H2197Q2167 72 2146.0 93.0Q2125 114 2125 144Q2125 174 2146.0 195.0Q2167 216 2197 216H2340Q2370 216 2391.0 195.0Q2412 174 2412 144Q2412 114 2391.0 93.0Q2370 72 2340 72ZM831 -287Q801 -287 780.0 -266.0Q759 -245 759 -215V-72Q759 -42 780.0 -21.0Q801 0 831 0Q861 0 882.0 -21.0Q903 -42 903 -72V-215Q903 -245 882.0 -266.0Q861 -287 831 -287ZM615 72H472Q442 72 421.0 93.0Q400 114 400 144Q400 174 421.0 195.0Q442 216 472 216H615Q645 216 666.0 195.0Q687 174 687 144Q687 114 666.0 93.0Q645 72 615 72ZM1981 1725Q2011 1725 2032.0 1704.0Q2053 1683 2053 1653V1510Q2053 1480 2032.0 1459.0Q2011 1438 1981 1438Q1951 1438 1930.0 1459.0Q1909 1480 1909 1510V1653Q1909 1683 1930.0 1704.0Q1951 1725 1981 1725ZM2340 1366Q2370 1366 2391.0 1345.0Q2412 1324 2412 1294Q2412 1264 2391.0 1243.0Q2370 1222 2340 1222H2197Q2167 1222 2146.0 1243.0Q2125 1264 2125 1294Q2125 1324 2146.0 1345.0Q2167 1366 2197 1366ZM831 1725Q861 1725 882.0 1704.0Q903 1683 903 1653V1510Q903 1480 882.0 1459.0Q861 1438 831 1438Q801 1438 780.0 1459.0Q759 1480 759 1510V1653Q759 1683 780.0 1704.0Q801 1725 831 1725ZM615 1366Q645 1366 666.0 1345.0Q687 1324 687 1294Q687 1264 666.0 1243.0Q645 1222 615 1222H472Q442 1222 421.0 1243.0Q400 1264 400 1294Q400 1324 421.0 1345.0Q442 1366 472 1366Z" style="fill:#e81224;stroke:none" transform="scale(1,-1) translate(0,-256)" /></svg>