<?xml version="1.0" encoding="utf-8" ?>
<svg baseProfile="full" height="256" version="1.1" width="256" xmlns="http://www.w3.org/2000/svg" xmlns:ev="http://www.w3.org/2001/xml-events" xmlns:xlink="http://www.w3.org/1999/xlink"><defs /><path d="M759 863Q759 833 747.5 806.5Q736 780 716.5 760.5Q697 741 671.0 730.0Q645 719 615 719Q585 719 559.0 730.5Q533 742 513.5 761.5Q494 781 483.0 807.0Q472 833 472 863Q472 893 483.0 919.0Q494 945 513.5 964.5Q533 984 559.0 995.0Q585 1006 615 1006Q645 1006 671.0 995.0Q697 984 716.5 964.5Q736 945 747.5 919.0Q759 893 759 863Z" style="fill:#00bcf2;stroke:none" transform="scale(1,-1) translate(0,-256)" /></svg>