<?xml version="1.0" encoding="utf-8" ?>
<svg baseProfile="full" height="256" version="1.1" width="256" xmlns="http://www.w3.org/2000/svg" xmlns:ev="http://www.w3.org/2001/xml-events" xmlns:xlink="http://www.w3.org/1999/xlink"><defs /><path d="M1226 647Q1239 647 1248.0 636.5Q1257 626 1266.0 610.0Q1275 594 1286.5 575.0Q1298 556 1317.5 540.0Q1337 524 1367.0 513.5Q1397 503 1442 503Q1457 503 1467.5 492.5Q1478 482 1478 467Q1478 453 1467.0 442.0Q1456 431 1442 431Q1400 431 1360.0 442.0Q1320 453 1286.5 474.5Q1253 496 1228.0 528.5Q1203 561 1191 603Q1190 605 1190 611Q1190 625 1201.0 636.0Q1212 647 1226 647ZM1406 647Q1376 647 1355.0 668.0Q1334 689 1334 719H1478Q1478 689 1457.0 668.0Q1436 647 1406 647Z" style="fill:#f7894a;stroke:none" transform="scale(1,-1) translate(0,-256)" /></svg>