<?xml version="1.0" encoding="utf-8" ?>
<svg baseProfile="full" height="256" version="1.1" width="256" xmlns="http://www.w3.org/2000/svg" xmlns:ev="http://www.w3.org/2001/xml-events" xmlns:xlink="http://www.w3.org/1999/xlink"><defs /><path d="M2053 216Q2053 246 2064.5 272.0Q2076 298 2095.5 317.5Q2115 337 2141.0 348.5Q2167 360 2197 360Q2227 360 2253.0 348.5Q2279 337 2298.5 317.5Q2318 298 2329.0 272.0Q2340 246 2340 216Q2340 186 2329.0 160.0Q2318 134 2298.5 114.5Q2279 95 2253.0 83.5Q2227 72 2197 72Q2167 72 2140.5 83.0Q2114 94 2094.5 113.5Q2075 133 2064.0 159.5Q2053 186 2053 216Z" style="fill:#13a10e;stroke:none" transform="scale(1,-1) translate(0,-256)" /></svg>