<?xml version="1.0" encoding="utf-8" ?>
<svg baseProfile="full" height="256" version="1.1" width="256" xmlns="http://www.w3.org/2000/svg" xmlns:ev="http://www.w3.org/2001/xml-events" xmlns:xlink="http://www.w3.org/1999/xlink"><defs /><path d="M1047 1725Q1077 1725 1103.0 1713.5Q1129 1702 1148.5 1682.5Q1168 1663 1179.0 1637.0Q1190 1611 1190 1581Q1190 1551 1179.0 1525.0Q1168 1499 1148.5 1479.5Q1129 1460 1103.0 1449.0Q1077 1438 1047 1438Q1017 1438 991.0 1449.0Q965 1460 945.5 1479.5Q926 1499 914.5 1525.0Q903 1551 903 1581Q903 1611 914.0 1637.0Q925 1663 944.5 1682.5Q964 1702 990.5 1713.5Q1017 1725 1047 1725ZM1550 144V-72L1406 0L1262 -72V144L1406 72Z" style="fill:#f03a17;stroke:none" transform="scale(1,-1) translate(0,-256)" /></svg>