<?xml version="1.0" encoding="utf-8" ?>
<svg baseProfile="full" height="256" version="1.1" width="256" xmlns="http://www.w3.org/2000/svg" xmlns:ev="http://www.w3.org/2001/xml-events" xmlns:xlink="http://www.w3.org/1999/xlink"><defs /><path d="M1622 935Q1651 935 1672.0 913.5Q1693 892 1693 863V791Q1693 762 1672.0 740.5Q1651 719 1622 719Q1592 719 1571.0 740.0Q1550 761 1550 791V863Q1550 892 1571.5 913.5Q1593 935 1622 935ZM1190 935Q1219 935 1240.5 913.5Q1262 892 1262 863V791Q1262 761 1241.0 740.0Q1220 719 1190 719Q1161 719 1139.5 740.5Q1118 762 1118 791V863Q1118 892 1139.5 913.5Q1161 935 1190 935Z" style="fill:#000000;stroke:none" transform="scale(1,-1) translate(0,-256)" /></svg>