<?xml version="1.0" encoding="utf-8" ?>
<svg baseProfile="full" height="256" version="1.1" width="256" xmlns="http://www.w3.org/2000/svg" xmlns:ev="http://www.w3.org/2001/xml-events" xmlns:xlink="http://www.w3.org/1999/xlink"><defs /><path d="M1981 1294Q1981 1324 1992.5 1350.0Q2004 1376 2023.5 1395.5Q2043 1415 2069.0 1426.5Q2095 1438 2125 1438Q2155 1438 2181.0 1426.5Q2207 1415 2226.5 1395.5Q2246 1376 2257.0 1350.0Q2268 1324 2268 1294Q2268 1264 2257.0 1238.0Q2246 1212 2226.5 1192.5Q2207 1173 2181.0 1161.5Q2155 1150 2125 1150Q2095 1150 2069.0 1161.5Q2043 1173 2023.5 1192.5Q2004 1212 1992.5 1238.0Q1981 1264 1981 1294Z" style="fill:#fff100;stroke:none" transform="scale(1,-1) translate(0,-256)" /></svg>