<?xml version="1.0" encoding="utf-8" ?>
<svg baseProfile="full" height="256" version="1.1" width="256" xmlns="http://www.w3.org/2000/svg" xmlns:ev="http://www.w3.org/2001/xml-events" xmlns:xlink="http://www.w3.org/1999/xlink"><defs /><path d="M2380 -4Q2418 -11 2450.0 -30.5Q2482 -50 2505.5 -78.0Q2529 -106 2542.5 -141.0Q2556 -176 2556 -215Q2556 -260 2539.0 -299.0Q2522 -338 2492.5 -367.5Q2463 -397 2424.0 -414.0Q2385 -431 2340 -431H685L256 170V575Q256 629 280.5 676.0Q305 723 350 753Q328 808 328 863Q328 922 350.5 974.5Q373 1027 412.0 1066.0Q451 1105 503.5 1127.5Q556 1150 615 1150Q670 1150 725 1128Q760 1181 811.0 1201.5Q862 1222 924 1222Q937 1267 960 1309Q915 1323 878.0 1349.5Q841 1376 814.5 1412.0Q788 1448 773.5 1491.0Q759 1534 759 1581Q759 1641 781.5 1693.5Q804 1746 843.0 1785.0Q882 1824 934.5 1846.5Q987 1869 1047 1869Q1108 1869 1160.5 1845.5Q1213 1822 1251.0 1782.0Q1289 1742 1311.0 1688.5Q1333 1635 1333 1575Q1351 1578 1369.5 1580.0Q1388 1582 1406 1582Q1473 1582 1537.0 1564.0Q1601 1546 1657.0 1513.0Q1713 1480 1760.0 1433.0Q1807 1386 1841 1328Q1847 1382 1872.0 1428.5Q1897 1475 1935.0 1508.5Q1973 1542 2022.0 1561.5Q2071 1581 2125 1581Q2184 1581 2236.5 1558.5Q2289 1536 2328.0 1497.0Q2367 1458 2389.5 1405.5Q2412 1353 2412 1294Q2412 1235 2389.0 1183.0Q2366 1131 2327.0 1091.5Q2288 1052 2235.5 1029.0Q2183 1006 2125 1006Q2125 972 2114.0 940.5Q2103 909 2084.0 882.5Q2065 856 2038.5 835.5Q2012 815 1981 803V719Q1981 613 1943.0 513.5Q1905 414 1833 336Q1856 328 1878.0 317.0Q1900 306 1921 293Q1934 339 1960.5 378.0Q1987 417 2023.5 444.5Q2060 472 2104.5 487.5Q2149 503 2197 503Q2256 503 2308.5 480.5Q2361 458 2400.0 419.0Q2439 380 2461.5 327.5Q2484 275 2484 216Q2484 153 2456.0 95.5Q2428 38 2380 -4Z" style="fill:#000000;stroke:none" transform="scale(1,-1) translate(0,-256)" /></svg>