<?xml version="1.0" encoding="utf-8" ?>
<svg baseProfile="full" height="256" version="1.1" width="256" xmlns="http://www.w3.org/2000/svg" xmlns:ev="http://www.w3.org/2001/xml-events" xmlns:xlink="http://www.w3.org/1999/xlink"><defs /><path d="M1693 216Q1753 216 1805.5 193.5Q1858 171 1897.0 132.0Q1936 93 1958.5 40.5Q1981 -12 1981 -72V-287H1693L1658 -267L1622 -287H1190L1154 -253L1118 -287H759L400 216L615 288L838 -9Q849 40 875.5 81.0Q902 122 939.0 152.0Q976 182 1022.0 199.0Q1068 216 1118 216Q1123 207 1133.0 199.0Q1143 191 1154 191Q1166 191 1176.0 198.5Q1186 206 1191 216H1622Q1624 204 1635.0 196.0Q1646 188 1658 188Q1670 188 1680.5 196.0Q1691 204 1693 216Z" style="fill:#ffffff;stroke:none" transform="scale(1,-1) translate(0,-256)" /></svg>