<?xml version="1.0" encoding="utf-8" ?>
<svg baseProfile="full" height="256" version="1.1" width="256" xmlns="http://www.w3.org/2000/svg" xmlns:ev="http://www.w3.org/2001/xml-events" xmlns:xlink="http://www.w3.org/1999/xlink"><defs /><path d="M1981 1006Q1981 977 1959.5 956.0Q1938 935 1909 935H903Q874 935 852.5 956.0Q831 977 831 1006Q831 1036 852.0 1057.0Q873 1078 903 1078H1047Q1047 1153 1075.0 1218.5Q1103 1284 1152.0 1332.5Q1201 1381 1266.0 1409.5Q1331 1438 1406 1438Q1480 1438 1545.5 1409.5Q1611 1381 1659.5 1332.0Q1708 1283 1736.5 1217.5Q1765 1152 1765 1078H1909Q1939 1078 1960.0 1057.0Q1981 1036 1981 1006ZM1118 216H1190V-287H1118ZM1622 216H1693V-287H1622Z" style="fill:#757575;stroke:none" transform="scale(1,-1) translate(0,-256)" /></svg>