<?xml version="1.0" encoding="utf-8" ?>
<svg baseProfile="full" height="256" version="1.1" width="256" xmlns="http://www.w3.org/2000/svg" xmlns:ev="http://www.w3.org/2001/xml-events" xmlns:xlink="http://www.w3.org/1999/xlink"><defs /><path d="M975 1006H1837V719Q1837 630 1803.0 551.5Q1769 473 1710.5 414.5Q1652 356 1573.5 322.0Q1495 288 1406 288Q1317 288 1238.5 322.0Q1160 356 1101.5 414.5Q1043 473 1009.0 551.5Q975 630 975 719ZM2412 -215Q2412 -245 2391.0 -266.0Q2370 -287 2340 -287H1981Q1966 -272 1959.0 -250.5Q1952 -229 1952 -208Q1952 -191 1958.5 -172.0Q1965 -153 1981 -144Q1981 -114 2002.0 -93.0Q2023 -72 2053 -72H2125Q2154 -72 2175.5 -93.5Q2197 -115 2197 -144H2340Q2369 -144 2390.5 -165.0Q2412 -186 2412 -215ZM543 431Q572 431 593.5 410.0Q615 389 615 360V288Q615 256 594.5 237.5Q574 219 543 216L409 203L400 216V575Q400 605 421.0 626.0Q442 647 472 647Q501 647 522.0 625.5Q543 604 543 575Z" style="fill:#ffc83d;stroke:none" transform="scale(1,-1) translate(0,-256)" /></svg>