<?xml version="1.0" encoding="utf-8" ?>
<svg baseProfile="full" height="256" version="1.1" width="256" xmlns="http://www.w3.org/2000/svg" xmlns:ev="http://www.w3.org/2001/xml-events" xmlns:xlink="http://www.w3.org/1999/xlink"><defs /><path d="M2197 719H2376Q2391 719 2401.5 708.5Q2412 698 2412 683Q2412 677 2394.5 642.0Q2377 607 2350.5 556.0Q2324 505 2292.5 445.5Q2261 386 2231.5 332.0Q2202 278 2179.5 236.5Q2157 195 2149 180Q2128 141 2106.0 103.0Q2084 65 2056 30Q1997 -45 1924.0 -104.0Q1851 -163 1767.5 -203.5Q1684 -244 1593.0 -265.5Q1502 -287 1406 -287Q1310 -287 1219.0 -265.5Q1128 -244 1045.0 -203.0Q962 -162 889.0 -103.5Q816 -45 756 30Q728 65 705.5 103.0Q683 141 662 180Q647 207 622.0 253.5Q597 300 568.0 354.0Q539 408 509.0 464.0Q479 520 455.0 567.0Q431 614 415.5 646.0Q400 678 400 683Q400 698 410.5 708.5Q421 719 436 719H615V1653Q615 1683 636.0 1704.0Q657 1725 687 1725Q698 1725 707.5 1721.5Q717 1718 726 1713L1190 1438H1622L2085 1713Q2092 1717 2104.5 1721.0Q2117 1725 2125 1725Q2154 1725 2175.5 1703.5Q2197 1682 2197 1653Z" style="fill:#ffc83d;stroke:none" transform="scale(1,-1) translate(0,-256)" /></svg>