<?xml version="1.0" encoding="utf-8" ?>
<svg baseProfile="full" height="256" version="1.1" width="256" xmlns="http://www.w3.org/2000/svg" xmlns:ev="http://www.w3.org/2001/xml-events" xmlns:xlink="http://www.w3.org/1999/xlink"><defs /><path d="M1981 863H2053V827Q2053 775 2033.0 729.0Q2013 683 1979.0 649.0Q1945 615 1899.0 595.0Q1853 575 1801 575Q1749 575 1703.0 595.0Q1657 615 1623.0 649.0Q1589 683 1569.5 729.0Q1550 775 1550 827V863H1622Q1622 825 1636.0 792.5Q1650 760 1674.0 735.5Q1698 711 1730.5 697.0Q1763 683 1801 683Q1838 683 1871.0 697.0Q1904 711 1928.5 735.5Q1953 760 1967.0 792.5Q1981 825 1981 863ZM1011 683Q1048 683 1081.0 697.0Q1114 711 1138.0 735.5Q1162 760 1176.0 792.5Q1190 825 1190 863H1262V827Q1262 775 1242.5 729.0Q1223 683 1189.0 649.0Q1155 615 1109.0 595.0Q1063 575 1011 575Q959 575 913.0 595.0Q867 615 833.0 649.0Q799 683 779.0 729.0Q759 775 759 827V863H831Q831 825 845.0 792.5Q859 760 883.5 735.5Q908 711 940.5 697.0Q973 683 1011 683Z" style="fill:#000000;stroke:none" transform="scale(1,-1) translate(0,-256)" /></svg>