<?xml version="1.0" encoding="utf-8" ?>
<svg baseProfile="full" height="256" version="1.1" width="256" xmlns="http://www.w3.org/2000/svg" xmlns:ev="http://www.w3.org/2001/xml-events" xmlns:xlink="http://www.w3.org/1999/xlink"><defs /><path d="M2340 863H2376Q2413 863 2446.0 849.0Q2479 835 2503.5 810.5Q2528 786 2542.0 753.0Q2556 720 2556 683Q2556 659 2549.0 636.5Q2542 614 2531 593L2277 113Q2252 66 2224.5 21.0Q2197 -24 2165 -66Q2096 -153 2010.5 -221.0Q1925 -289 1827.5 -335.5Q1730 -382 1623.0 -406.5Q1516 -431 1406 -431Q1207 -431 1030.5 -357.5Q854 -284 714 -141Q647 -133 589.5 -102.5Q532 -72 490.0 -24.5Q448 23 424.0 83.0Q400 143 400 211Q400 272 420 330L280 595Q269 615 262.5 637.5Q256 660 256 683Q256 720 270.0 753.0Q284 786 308.5 810.5Q333 835 365.5 849.0Q398 863 436 863H472V1653Q472 1698 489.0 1737.0Q506 1776 535.0 1805.5Q564 1835 603.0 1852.0Q642 1869 687 1869Q716 1869 745.5 1860.0Q775 1851 800 1837L1230 1581H1582L2017 1840Q2040 1854 2069.5 1861.5Q2099 1869 2125 1869Q2170 1869 2209.0 1852.0Q2248 1835 2277.0 1805.5Q2306 1776 2323.0 1737.0Q2340 1698 2340 1653Z" style="fill:#000000;stroke:none" transform="scale(1,-1) translate(0,-256)" /></svg>