<?xml version="1.0" encoding="utf-8" ?>
<svg baseProfile="full" height="256" version="1.1" width="256" xmlns="http://www.w3.org/2000/svg" xmlns:ev="http://www.w3.org/2001/xml-events" xmlns:xlink="http://www.w3.org/1999/xlink"><defs /><path d="M975 1402Q975 1391 969.5 1383.5Q964 1376 956 1371L615 1165V1638L956 1433Q966 1427 970.5 1420.0Q975 1413 975 1402ZM1837 1402Q1837 1413 1841.5 1420.0Q1846 1427 1856 1433L2197 1638V1165L1856 1371Q1848 1376 1842.5 1383.5Q1837 1391 1837 1402ZM1190 1078V1438H1334V1078Q1334 1049 1312.5 1027.5Q1291 1006 1262 1006Q1233 1006 1211.5 1027.5Q1190 1049 1190 1078ZM1478 1078V1438H1622V1078Q1622 1049 1600.5 1027.5Q1579 1006 1550 1006Q1521 1006 1499.5 1027.5Q1478 1049 1478 1078ZM1047 1222Q1076 1222 1097.0 1200.5Q1118 1179 1118 1150Q1118 1116 1098.0 1099.5Q1078 1083 1047 1078Q1005 1072 975.0 1061.5Q945 1051 918.5 1036.5Q892 1022 866.5 1002.0Q841 982 810 956Q798 946 786.5 940.5Q775 935 759 935Q730 935 708.5 956.0Q687 977 687 1006Q687 1023 692.0 1034.0Q697 1045 708 1057Q736 1088 776.5 1117.5Q817 1147 863.0 1170.5Q909 1194 956.5 1208.0Q1004 1222 1047 1222ZM1765 1222Q1807 1222 1855.0 1207.5Q1903 1193 1949.0 1170.0Q1995 1147 2035.5 1117.5Q2076 1088 2104 1057Q2115 1045 2120.0 1034.0Q2125 1023 2125 1006Q2125 977 2103.5 956.0Q2082 935 2053 935Q2037 935 2025.5 940.5Q2014 946 2002 956Q1999 959 1993 963Q1963 987 1939.0 1006.0Q1915 1025 1890.0 1039.0Q1865 1053 1835.5 1062.5Q1806 1072 1765 1078Q1734 1083 1714.0 1100.0Q1694 1117 1694 1151Q1694 1180 1715.0 1201.0Q1736 1222 1765 1222Z" style="fill:#d48c00;stroke:none" transform="scale(1,-1) translate(0,-256)" /></svg>