<?xml version="1.0" encoding="utf-8" ?>
<svg baseProfile="full" height="256" version="1.1" width="256" xmlns="http://www.w3.org/2000/svg" xmlns:ev="http://www.w3.org/2001/xml-events" xmlns:xlink="http://www.w3.org/1999/xlink"><defs /><path d="M400 719Q400 858 436.0 986.5Q472 1115 537.5 1227.0Q603 1339 694.5 1430.5Q786 1522 898.0 1587.5Q1010 1653 1138.5 1689.0Q1267 1725 1406 1725Q1282 1706 1170.0 1659.0Q1058 1612 962.0 1542.0Q866 1472 788.5 1381.5Q711 1291 656.5 1185.5Q602 1080 572.5 962.0Q543 844 543 719Q543 619 574.5 527.0Q606 435 663.0 359.5Q720 284 799.5 228.0Q879 172 975 144Q856 144 751.0 189.0Q646 234 568.0 312.0Q490 390 445.0 495.0Q400 600 400 719ZM1981 719Q1981 580 1945.0 451.5Q1909 323 1843.5 211.0Q1778 99 1686.5 7.5Q1595 -84 1483.0 -149.5Q1371 -215 1242.5 -251.0Q1114 -287 975 -287Q1099 -268 1211.0 -221.0Q1323 -174 1419.0 -104.0Q1515 -34 1592.0 56.5Q1669 147 1723.5 252.0Q1778 357 1807.5 475.5Q1837 594 1837 719Q1837 819 1805.5 911.0Q1774 1003 1717.5 1078.5Q1661 1154 1581.5 1210.0Q1502 1266 1406 1294Q1525 1294 1630.0 1249.0Q1735 1204 1813.0 1126.0Q1891 1048 1936.0 943.0Q1981 838 1981 719Z" style="fill:#3a96dd;stroke:none" transform="scale(1,-1) translate(0,-256)" /></svg>