<?xml version="1.0" encoding="utf-8" ?>
<svg baseProfile="full" height="256" version="1.1" width="256" xmlns="http://www.w3.org/2000/svg" xmlns:ev="http://www.w3.org/2001/xml-events" xmlns:xlink="http://www.w3.org/1999/xlink"><defs /><path d="M1190 1150Q1279 1150 1357.5 1116.0Q1436 1082 1495.0 1023.5Q1554 965 1588.0 886.5Q1622 808 1622 719Q1622 600 1576.5 495.5Q1531 391 1453.0 313.0Q1375 235 1270.0 189.5Q1165 144 1047 144L1190 288Q1101 288 1022.5 322.0Q944 356 885.5 414.5Q827 473 793.0 551.5Q759 630 759 719Q759 838 804.0 943.0Q849 1048 927.0 1126.0Q1005 1204 1110.0 1249.0Q1215 1294 1334 1294Z" style="fill:#b3dbf2;stroke:none" transform="scale(1,-1) translate(0,-256)" /></svg>