<?xml version="1.0" encoding="utf-8" ?>
<svg baseProfile="full" height="256" version="1.1" width="256" xmlns="http://www.w3.org/2000/svg" xmlns:ev="http://www.w3.org/2001/xml-events" xmlns:xlink="http://www.w3.org/1999/xlink"><defs /><path d="M256 719Q256 877 297.0 1024.0Q338 1171 413.0 1299.0Q488 1427 593.0 1532.0Q698 1637 826.0 1712.0Q954 1787 1100.5 1828.0Q1247 1869 1406 1869H1753L1489 1605Q1631 1557 1748.0 1469.0Q1865 1381 1949.0 1264.0Q2033 1147 2079.0 1008.0Q2125 869 2125 719Q2125 560 2084.0 413.5Q2043 267 1968.0 139.0Q1893 11 1788.0 -94.0Q1683 -199 1555.0 -274.0Q1427 -349 1280.0 -390.0Q1133 -431 975 -431H628L892 -167Q750 -119 633.0 -31.0Q516 57 432.0 174.0Q348 291 302.0 430.0Q256 569 256 719Z" style="fill:#000000;stroke:none" transform="scale(1,-1) translate(0,-256)" /></svg>