<?xml version="1.0" encoding="utf-8" ?>
<svg baseProfile="full" height="256" version="1.1" width="256" xmlns="http://www.w3.org/2000/svg" xmlns:ev="http://www.w3.org/2001/xml-events" xmlns:xlink="http://www.w3.org/1999/xlink"><defs /><path d="M1190 1510Q1299 1510 1400.0 1482.0Q1501 1454 1589.0 1402.5Q1677 1351 1749.5 1278.5Q1822 1206 1873.5 1118.0Q1925 1030 1953.0 929.0Q1981 828 1981 719Q1981 700 1973.0 684.0Q1965 668 1959 651Q1941 601 1924.0 551.5Q1907 502 1889.0 453.0Q1871 404 1850.5 355.5Q1830 307 1805 260Q1736 134 1652.0 36.5Q1568 -61 1465.5 -129.5Q1363 -198 1241.0 -237.5Q1119 -277 975 -287L1190 -72Q1081 -72 980.0 -43.5Q879 -15 791.5 36.5Q704 88 631.5 160.0Q559 232 507.5 320.0Q456 408 428.0 509.0Q400 610 400 719Q400 815 426.0 903.5Q452 992 496.0 1073.5Q540 1155 597.0 1229.0Q654 1303 717 1371Q788 1448 864.0 1513.0Q940 1578 1024.0 1625.0Q1108 1672 1202.5 1698.5Q1297 1725 1406 1725Z" style="fill:#0078d7;stroke:none" transform="scale(1,-1) translate(0,-256)" /></svg>