<?xml version="1.0" encoding="utf-8" ?>
<svg baseProfile="full" height="256" version="1.1" width="256" xmlns="http://www.w3.org/2000/svg" xmlns:ev="http://www.w3.org/2001/xml-events" xmlns:xlink="http://www.w3.org/1999/xlink"><defs /><path d="M1190 863Q1220 863 1246.0 851.5Q1272 840 1291.5 820.5Q1311 801 1322.5 775.0Q1334 749 1334 719Q1334 674 1317.0 635.0Q1300 596 1270.5 566.5Q1241 537 1202.0 520.0Q1163 503 1118 503L1190 575Q1160 575 1134.0 586.5Q1108 598 1088.5 617.5Q1069 637 1058.0 663.0Q1047 689 1047 719Q1047 764 1064.0 803.0Q1081 842 1110.0 871.5Q1139 901 1178.0 918.0Q1217 935 1262 935Z" style="fill:#ffffff;stroke:none" transform="scale(1,-1) translate(0,-256)" /></svg>