<?xml version="1.0" encoding="utf-8" ?>
<svg baseProfile="full" height="256" version="1.1" width="256" xmlns="http://www.w3.org/2000/svg" xmlns:ev="http://www.w3.org/2001/xml-events" xmlns:xlink="http://www.w3.org/1999/xlink"><defs /><path d="M1118 1510 905 1438 687 1510V1653Q687 1683 708.0 1704.0Q729 1725 759 1725H1047Q1076 1725 1097.0 1703.5Q1118 1682 1118 1653ZM1406 -72Q1406 -117 1389.0 -156.0Q1372 -195 1342.5 -224.0Q1313 -253 1274.0 -270.0Q1235 -287 1190 -287H615Q570 -287 531.0 -270.0Q492 -253 463.0 -224.0Q434 -195 417.0 -156.0Q400 -117 400 -72Z" style="fill:#ffb900;stroke:none" transform="scale(1,-1) translate(0,-256)" /></svg>