<?xml version="1.0" encoding="utf-8" ?>
<svg baseProfile="full" height="256" version="1.1" width="256" xmlns="http://www.w3.org/2000/svg" xmlns:ev="http://www.w3.org/2001/xml-events" xmlns:xlink="http://www.w3.org/1999/xlink"><defs /><path d="M615 -144Q586 -144 564.5 -122.5Q543 -101 543 -72V899Q543 950 556.0 988.0Q569 1026 591.5 1058.5Q614 1091 644.0 1120.5Q674 1150 708 1184Q729 1205 759 1205Q789 1205 810.0 1184.0Q831 1163 831 1133Q831 1113 820.5 1096.5Q810 1080 794.0 1064.0Q778 1048 759.0 1032.0Q740 1016 724.0 997.0Q708 978 697.5 954.0Q687 930 687 899V-72Q687 -101 665.5 -122.5Q644 -144 615 -144Z" style="fill:#ffd679;stroke:none" transform="scale(1,-1) translate(0,-256)" /></svg>