<?xml version="1.0" encoding="utf-8" ?>
<svg baseProfile="full" height="256" version="1.1" width="256" xmlns="http://www.w3.org/2000/svg" xmlns:ev="http://www.w3.org/2001/xml-events" xmlns:xlink="http://www.w3.org/1999/xlink"><defs /><path d="M1406 -72 903 -199 400 -72V72Q405 94 410.5 112.0Q416 130 422.0 146.5Q428 163 434.5 180.5Q441 198 448 220L543 517Q543 518 534.0 546.5Q525 575 510.5 618.0Q496 661 478.5 711.5Q461 762 445.0 808.0Q429 854 417.0 889.0Q405 924 401 935Q407 1012 439.5 1081.5Q472 1151 526 1205L687 1366L903 1438L1118 1366L1280 1205Q1334 1151 1366.0 1081.0Q1398 1011 1405 935Q1401 924 1390.5 888.0Q1380 852 1366.0 804.5Q1352 757 1336.5 704.5Q1321 652 1308.5 607.5Q1296 563 1288.0 533.5Q1280 504 1280 503Q1282 496 1292.0 461.0Q1302 426 1316.0 378.5Q1330 331 1346.0 277.0Q1362 223 1375.0 177.5Q1388 132 1397.0 102.0Q1406 72 1406 72Z" style="fill:#ffc83d;stroke:none" transform="scale(1,-1) translate(0,-256)" /></svg>