<?xml version="1.0" encoding="utf-8" ?>
<svg baseProfile="full" height="256" version="1.1" width="256" xmlns="http://www.w3.org/2000/svg" xmlns:ev="http://www.w3.org/2001/xml-events" xmlns:xlink="http://www.w3.org/1999/xlink"><defs /><path d="M2340 926Q2389 876 2418.0 825.5Q2447 775 2462.0 722.5Q2477 670 2481.5 614.5Q2486 559 2486 501Q2486 464 2485.0 426.0Q2484 388 2484 347L2556 275V-431H2125V-149L2004 -431H1553L1765 100V144H1478V-59L1406 -131V-431H975V218Q934 248 906.5 279.5Q879 311 859.0 345.5Q839 380 823.0 419.0Q807 458 788 503H687Q628 503 576.0 526.0Q524 549 485.0 588.5Q446 628 423.0 680.0Q400 732 400 791V830Q333 868 294.5 934.5Q256 1001 256 1078V1138L514 1396Q560 1442 618.5 1473.0Q677 1504 743 1509Q773 1561 819.0 1601.5Q865 1642 920.0 1669.5Q975 1697 1035.0 1711.0Q1095 1725 1154 1725Q1191 1725 1224.0 1711.0Q1257 1697 1281.5 1672.5Q1306 1648 1320.0 1615.5Q1334 1583 1334 1546Q1334 1514 1323.5 1485.0Q1313 1456 1294.0 1432.5Q1275 1409 1248.5 1392.5Q1222 1376 1191 1370L1440 1119Q1459 1100 1490.0 1089.0Q1521 1078 1547 1078H1909V1366H2053Q2111 1366 2163.5 1343.0Q2216 1320 2255.0 1280.5Q2294 1241 2317.0 1188.5Q2340 1136 2340 1078Z" style="fill:#000000;stroke:none" transform="scale(1,-1) translate(0,-256)" /></svg>