<?xml version="1.0" encoding="utf-8" ?>
<svg baseProfile="full" height="256" version="1.1" width="256" xmlns="http://www.w3.org/2000/svg" xmlns:ev="http://www.w3.org/2001/xml-events" xmlns:xlink="http://www.w3.org/1999/xlink"><defs /><path d="M2195 863Q2264 812 2302.0 736.5Q2340 661 2340 575V288L2412 216V-287H2268V72L2125 216L1995 192L1909 288H1334V0L1262 -72V-287H1118V302Q1098 309 1076.5 323.0Q1055 337 1035.0 354.5Q1015 372 999.0 391.5Q983 411 975 431L759 935H687V647Q657 647 631.0 658.5Q605 670 585.5 689.5Q566 709 554.5 735.0Q543 761 543 791V935Q505 935 472.0 954.0Q439 973 420 1006L458 1050L400 1078L615 1294Q640 1319 664.0 1334.0Q688 1349 713.5 1356.5Q739 1364 767.5 1366.0Q796 1368 831 1368Q863 1368 893.0 1367.0Q923 1366 950.5 1359.5Q978 1353 1004.0 1340.0Q1030 1327 1054 1303L1338 1018Q1357 999 1382.0 983.5Q1407 968 1434.5 957.5Q1462 947 1491.0 941.0Q1520 935 1547 935H1981Q2015 935 2053 927V1222Q2083 1222 2109.0 1210.5Q2135 1199 2154.5 1179.5Q2174 1160 2185.5 1134.0Q2197 1108 2197 1078Q2197 1024 2196.5 970.5Q2196 917 2195 863Z" style="fill:#ffffff;stroke:none" transform="scale(1,-1) translate(0,-256)" /></svg>