<?xml version="1.0" encoding="utf-8" ?>
<svg baseProfile="full" height="256" version="1.1" width="256" xmlns="http://www.w3.org/2000/svg" xmlns:ev="http://www.w3.org/2001/xml-events" xmlns:xlink="http://www.w3.org/1999/xlink"><defs /><path d="M1154 1581Q1168 1581 1179.0 1570.5Q1190 1560 1190 1546Q1190 1531 1179.5 1520.5Q1169 1510 1154 1510Q1137 1510 1121.0 1505.5Q1105 1501 1089 1495Q1057 1482 1035.0 1461.0Q1013 1440 999.5 1414.0Q986 1388 980.5 1357.5Q975 1327 975 1294Q975 1264 954.0 1243.0Q933 1222 903 1222Q873 1222 852.0 1243.0Q831 1264 831 1294Q831 1404 887.5 1468.5Q944 1533 1046 1564Q1100 1581 1154 1581Z" style="fill:#ffb900;stroke:none" transform="scale(1,-1) translate(0,-256)" /></svg>