<?xml version="1.0" encoding="utf-8" ?>
<svg baseProfile="full" height="256" version="1.1" width="256" xmlns="http://www.w3.org/2000/svg" xmlns:ev="http://www.w3.org/2001/xml-events" xmlns:xlink="http://www.w3.org/1999/xlink"><defs /><path d="M651 216Q637 216 626.0 226.5Q615 237 615 251Q615 266 626 277L1560 1212Q1570 1222 1585 1222Q1600 1222 1610.5 1211.5Q1621 1201 1621 1186Q1621 1171 1611 1161L677 226Q667 216 651 216ZM1622 1294 1675 1312 1693 1366 1711 1312 1765 1294 1711 1276 1693 1222 1675 1276Z" style="fill:#b4a0ff;stroke:none" transform="scale(1,-1) translate(0,-256)" /></svg>