<?xml version="1.0" encoding="utf-8" ?>
<svg baseProfile="full" height="256" version="1.1" width="256" xmlns="http://www.w3.org/2000/svg" xmlns:ev="http://www.w3.org/2001/xml-events" xmlns:xlink="http://www.w3.org/1999/xlink"><defs /><path d="M2285 1869Q2341 1869 2390.5 1847.5Q2440 1826 2476.5 1789.5Q2513 1753 2534.5 1703.5Q2556 1654 2556 1598Q2556 1541 2535.5 1494.5Q2515 1448 2477 1407Q2428 1356 2378.0 1307.0Q2328 1258 2278 1208Q2309 1195 2334.0 1174.0Q2359 1153 2377.0 1126.5Q2395 1100 2404.5 1068.5Q2414 1037 2414 1004Q2414 960 2397.5 920.0Q2381 880 2350 849L1239 -262Q1157 -344 1052.5 -387.5Q948 -431 832 -431Q753 -431 679.5 -410.5Q606 -390 542.0 -352.5Q478 -315 425.0 -262.0Q372 -209 334.5 -145.0Q297 -81 276.5 -7.5Q256 66 256 145Q256 261 299.5 365.5Q343 470 425 552L1677 1805Q1708 1836 1748.5 1852.5Q1789 1869 1833 1869Q1901 1869 1955.5 1832.0Q2010 1795 2036 1732Q2064 1761 2090.0 1786.0Q2116 1811 2145.0 1829.5Q2174 1848 2208.0 1858.5Q2242 1869 2285 1869Z" style="fill:#000000;stroke:none" transform="scale(1,-1) translate(0,-256)" /></svg>