<?xml version="1.0" encoding="utf-8" ?>
<svg baseProfile="full" height="256" version="1.1" width="256" xmlns="http://www.w3.org/2000/svg" xmlns:ev="http://www.w3.org/2001/xml-events" xmlns:xlink="http://www.w3.org/1999/xlink"><defs /><path d="M2125 360 1837 72V288H1262Q1158 288 1066.5 327.5Q975 367 906.5 435.5Q838 504 798.5 595.5Q759 687 759 791Q759 895 798.5 986.5Q838 1078 906.5 1146.5Q975 1215 1066.5 1254.5Q1158 1294 1262 1294H1837V1150H1262Q1188 1150 1122.5 1121.5Q1057 1093 1008.5 1044.5Q960 996 931.5 930.5Q903 865 903 791Q903 717 931.5 651.5Q960 586 1008.5 537.0Q1057 488 1122.5 459.5Q1188 431 1262 431H1837V647Z" style="fill:#ffffff;stroke:none" transform="scale(1,-1) translate(0,-256)" /></svg>