<?xml version="1.0" encoding="utf-8" ?>
<svg baseProfile="full" height="256" version="1.1" width="256" xmlns="http://www.w3.org/2000/svg" xmlns:ev="http://www.w3.org/2001/xml-events" xmlns:xlink="http://www.w3.org/1999/xlink"><defs /><path d="M1118 1222Q1148 1222 1169 1201L1601 770Q1622 749 1622 719Q1622 690 1600.5 668.5Q1579 647 1550 647Q1520 647 1499 668L1089 1078H1047V1006L903 946L759 1006V1078H717L543 905V863L493 791L543 719V575Q543 546 522.0 524.5Q501 503 472 503Q442 503 421.0 524.0Q400 545 400 575V719L450 791L400 863Q400 876 399.0 889.0Q398 902 398 915Q398 934 402.5 952.5Q407 971 421 985L636 1201Q657 1222 687 1222L725 1201L759 1222H1047L1084 1201ZM867 1294Q829 1294 796.5 1308.0Q764 1322 739.5 1346.5Q715 1371 701.0 1403.5Q687 1436 687 1474V1510L877 1561L1047 1510V1474Q1047 1436 1033.0 1403.5Q1019 1371 994.5 1346.5Q970 1322 937.0 1308.0Q904 1294 867 1294ZM1118 0V288H1262V0L1198 -30ZM543 0V288H687V0L615 -30Z" style="fill:#ffc83d;stroke:none" transform="scale(1,-1) translate(0,-256)" /></svg>