<?xml version="1.0" encoding="utf-8" ?>
<svg baseProfile="full" height="256" version="1.1" width="256" xmlns="http://www.w3.org/2000/svg" xmlns:ev="http://www.w3.org/2001/xml-events" xmlns:xlink="http://www.w3.org/1999/xlink"><defs /><path d="M1592 539Q1598 530 1604.0 520.5Q1610 511 1618 503Q1607 449 1569.0 411.5Q1531 374 1477 363Q1469 371 1460.0 377.5Q1451 384 1442 390Q1422 379 1406 363Q1352 374 1314.5 411.5Q1277 449 1266 503Q1274 511 1280.0 520.5Q1286 530 1292 539Q1282 557 1266 575Q1277 629 1314.0 666.5Q1351 704 1405 715Q1413 707 1422.5 701.0Q1432 695 1442 689L1445 691Q1454 696 1462.0 701.5Q1470 707 1478 715Q1532 704 1569.5 666.5Q1607 629 1618 575Q1610 567 1604.0 557.5Q1598 548 1592 539Z" style="fill:#f7630c;stroke:none" transform="scale(1,-1) translate(0,-256)" /></svg>