<?xml version="1.0" encoding="utf-8" ?>
<svg baseProfile="full" height="256" version="1.1" width="256" xmlns="http://www.w3.org/2000/svg" xmlns:ev="http://www.w3.org/2001/xml-events" xmlns:xlink="http://www.w3.org/1999/xlink"><defs /><path d="M1765 719Q1765 677 1750 638Q1765 590 1765 539Q1765 469 1739.0 410.0Q1713 351 1668.0 308.0Q1623 265 1563.0 241.0Q1503 217 1436 217Q1428 217 1421.0 217.0Q1414 217 1406 218V-127Q1452 -170 1466.0 -221.5Q1480 -273 1480 -333Q1480 -358 1479.0 -382.0Q1478 -406 1478 -431H975V40L903 182L832 40V-431H328Q328 -405 327.0 -379.5Q326 -354 326 -328Q326 -270 340.0 -218.5Q354 -167 400 -127V322L422 365Q386 374 355.5 394.0Q325 414 303.0 441.5Q281 469 268.5 503.0Q256 537 256 575V934Q256 978 272.0 1017.0Q288 1056 319 1087L535 1303Q547 1315 564 1327Q550 1361 546.0 1395.0Q542 1429 542 1465Q542 1485 542.5 1505.5Q543 1526 543 1546Q543 1613 568.5 1671.5Q594 1730 638.0 1774.0Q682 1818 741.0 1843.5Q800 1869 867 1869Q934 1869 992.5 1843.5Q1051 1818 1095.0 1774.0Q1139 1730 1164.5 1671.5Q1190 1613 1190 1546V1479Q1190 1448 1188.0 1417.0Q1186 1386 1179 1356Q1205 1348 1228.5 1335.0Q1252 1322 1271 1303L1702 871Q1765 808 1765 719Z" style="fill:#000000;stroke:none" transform="scale(1,-1) translate(0,-256)" /></svg>