<?xml version="1.0" encoding="utf-8" ?>
<svg baseProfile="full" height="256" version="1.1" width="256" xmlns="http://www.w3.org/2000/svg" xmlns:ev="http://www.w3.org/2001/xml-events" xmlns:xlink="http://www.w3.org/1999/xlink"><defs /><path d="M723 431Q745 431 765.0 422.5Q785 414 799.5 399.5Q814 385 822.5 365.0Q831 345 831 323Q831 300 822.5 280.5Q814 261 799.0 247.0Q784 233 764.5 224.5Q745 216 723 216Q701 216 681.5 224.5Q662 233 647.0 247.5Q632 262 623.5 281.5Q615 301 615 323Q615 345 623.5 364.5Q632 384 647.0 399.0Q662 414 681.5 422.5Q701 431 723 431ZM2089 431Q2111 431 2130.5 422.5Q2150 414 2165.0 399.0Q2180 384 2188.5 364.5Q2197 345 2197 323Q2197 301 2188.5 281.5Q2180 262 2165.0 247.5Q2150 233 2130.5 224.5Q2111 216 2089 216Q2067 216 2047.5 224.5Q2028 233 2013.0 247.0Q1998 261 1989.5 280.5Q1981 300 1981 323Q1981 345 1989.5 365.0Q1998 385 2012.5 399.5Q2027 414 2046.5 422.5Q2066 431 2089 431Z" style="fill:#f8ffb3;stroke:none" transform="scale(1,-1) translate(0,-256)" /></svg>