<?xml version="1.0" encoding="utf-8" ?>
<svg baseProfile="full" height="256" version="1.1" width="256" xmlns="http://www.w3.org/2000/svg" xmlns:ev="http://www.w3.org/2001/xml-events" xmlns:xlink="http://www.w3.org/1999/xlink"><defs /><path d="M2304 144Q2326 144 2345.5 135.5Q2365 127 2380.0 112.0Q2395 97 2403.5 77.5Q2412 58 2412 36Q2412 13 2403.5 -6.5Q2395 -26 2380.5 -40.5Q2366 -55 2346.0 -63.5Q2326 -72 2304 -72H508Q485 -72 465.5 -63.5Q446 -55 431.5 -40.5Q417 -26 408.5 -6.5Q400 13 400 36Q400 58 408.5 77.5Q417 97 432.0 112.0Q447 127 466.5 135.5Q486 144 508 144ZM1837 431V216H975V431ZM1837 1294V1222Q1822 1219 1797.5 1212.0Q1773 1205 1747.5 1198.5Q1722 1192 1698.5 1187.0Q1675 1182 1663 1182H1132Q1127 1182 1105.0 1187.5Q1083 1193 1057.0 1200.0Q1031 1207 1007.5 1213.5Q984 1220 975 1222V1294Q980 1295 993.5 1299.5Q1007 1304 1024.5 1309.5Q1042 1315 1061.5 1321.0Q1081 1327 1097.5 1332.0Q1114 1337 1125.0 1340.5Q1136 1344 1138 1344H1666Q1671 1344 1694.0 1337.0Q1717 1330 1745.0 1321.5Q1773 1313 1799.5 1305.0Q1826 1297 1837 1294ZM543 647Q514 647 493.0 668.5Q472 690 472 719Q472 748 493.0 769.5Q514 791 543 791H687V647ZM2340 719Q2340 689 2319.0 668.0Q2298 647 2268 647H2125V791H2268Q2297 791 2318.5 769.5Q2340 748 2340 719Z" style="fill:#cccccc;stroke:none" transform="scale(1,-1) translate(0,-256)" /></svg>