<?xml version="1.0" encoding="utf-8" ?>
<svg baseProfile="full" height="256" version="1.1" width="256" xmlns="http://www.w3.org/2000/svg" xmlns:ev="http://www.w3.org/2001/xml-events" xmlns:xlink="http://www.w3.org/1999/xlink"><defs /><path d="M2197 1150H2340L2268 863Q2180 840 2093.5 818.5Q2007 797 1919 775Q1861 761 1804.0 745.5Q1747 730 1689 719Q1691 701 1692.0 683.0Q1693 665 1693 647Q1693 528 1647.5 423.5Q1602 319 1524.0 241.0Q1446 163 1341.0 117.5Q1236 72 1118 72Q1020 72 930.0 103.5Q840 135 766.5 192.0Q693 249 640.0 328.0Q587 407 562 502L1118 1222V1316H1262V1204Q1353 1181 1431.0 1130.0Q1509 1079 1567 1006H2053Z" style="fill:#ffc83d;stroke:none" transform="scale(1,-1) translate(0,-256)" /></svg>