<?xml version="1.0" encoding="utf-8" ?>
<svg baseProfile="full" height="256" version="1.1" width="256" xmlns="http://www.w3.org/2000/svg" xmlns:ev="http://www.w3.org/2001/xml-events" xmlns:xlink="http://www.w3.org/1999/xlink"><defs /><path d="M619 -47H545Q544 -44 543.5 -41.5Q543 -39 543 -36Q543 -21 554 -10L841 277Q851 287 867 287Q881 287 891.5 276.0Q902 265 902 251Q902 236 892 226ZM1618 -47 1345 226Q1334 237 1334 251Q1334 266 1344.5 276.5Q1355 287 1370 287Q1385 287 1395 277L1683 -10Q1694 -21 1694 -36Q1694 -39 1693.5 -41.5Q1693 -44 1692 -47ZM1190 1438Q1220 1438 1241.0 1417.0Q1262 1396 1262 1366V1294H1190L1133 1316Q1132 1319 1129.5 1327.0Q1127 1335 1124.5 1343.0Q1122 1351 1120.0 1357.5Q1118 1364 1118 1366Q1118 1395 1139.5 1416.5Q1161 1438 1190 1438Z" style="fill:#757575;stroke:none" transform="scale(1,-1) translate(0,-256)" /></svg>