<?xml version="1.0" encoding="utf-8" ?>
<svg baseProfile="full" height="256" version="1.1" width="256" xmlns="http://www.w3.org/2000/svg" xmlns:ev="http://www.w3.org/2001/xml-events" xmlns:xlink="http://www.w3.org/1999/xlink"><defs /><path d="M256 1150V1510H1030Q1060 1544 1102.5 1563.0Q1145 1582 1190 1582Q1236 1582 1278.0 1563.0Q1320 1544 1351 1510H2125V1282L2137 1294H2524L2387 744L1836 606Q1830 494 1789.0 389.5Q1748 285 1679 197L1732 144H1981V-215H256V144H505L558 197Q482 294 441.0 408.5Q400 523 400 647Q400 791 453.0 919.0Q506 1047 606 1150Z" style="fill:#000000;stroke:none" transform="scale(1,-1) translate(0,-256)" /></svg>