<?xml version="1.0" encoding="utf-8" ?>
<svg baseProfile="full" height="256" version="1.1" width="256" xmlns="http://www.w3.org/2000/svg" xmlns:ev="http://www.w3.org/2001/xml-events" xmlns:xlink="http://www.w3.org/1999/xlink"><defs /><path d="M543 647Q543 765 588.5 870.0Q634 975 712.0 1053.0Q790 1131 894.5 1176.5Q999 1222 1118 1222V647L975 503H562Q553 538 548.0 574.0Q543 610 543 647ZM1406 1006Q1435 1006 1456.5 985.0Q1478 964 1478 935V719Q1478 690 1456.5 668.5Q1435 647 1406 647H1334Q1305 647 1283.5 668.5Q1262 690 1262 719V935Q1262 964 1283.5 985.0Q1305 1006 1334 1006Z" style="fill:#31d2f7;stroke:none" transform="scale(1,-1) translate(0,-256)" /></svg>