<?xml version="1.0" encoding="utf-8" ?>
<svg baseProfile="full" height="256" version="1.1" width="256" xmlns="http://www.w3.org/2000/svg" xmlns:ev="http://www.w3.org/2001/xml-events" xmlns:xlink="http://www.w3.org/1999/xlink"><defs /><path d="M1118 1366Q1163 1366 1202.0 1349.0Q1241 1332 1270.5 1302.5Q1300 1273 1317.0 1234.0Q1334 1195 1334 1150Q1334 1105 1317.0 1066.0Q1300 1027 1270.5 998.0Q1241 969 1202.0 952.0Q1163 935 1118 935Q1035 935 952.5 935.5Q870 936 787 937L870 1108Q879 1126 888.5 1144.0Q898 1162 905 1181Q910 1196 913.5 1211.5Q917 1227 923 1241Q934 1269 954.5 1292.5Q975 1316 1001.5 1332.0Q1028 1348 1058.0 1357.0Q1088 1366 1118 1366ZM400 -144H2125V-287H1981V-215H543V-287H400ZM1262 216 1118 360H1550L1406 216ZM1334 1581Q1304 1581 1278.0 1592.5Q1252 1604 1232.5 1623.5Q1213 1643 1201.5 1669.0Q1190 1695 1190 1725H1478Q1478 1695 1466.5 1669.0Q1455 1643 1435.5 1623.5Q1416 1604 1390.0 1592.5Q1364 1581 1334 1581Z" style="fill:#757575;stroke:none" transform="scale(1,-1) translate(0,-256)" /></svg>