<?xml version="1.0" encoding="utf-8" ?>
<svg baseProfile="full" height="256" version="1.1" width="256" xmlns="http://www.w3.org/2000/svg" xmlns:ev="http://www.w3.org/2001/xml-events" xmlns:xlink="http://www.w3.org/1999/xlink"><defs /><path d="M905 1181Q904 1175 904.0 1168.5Q904 1162 904 1156Q904 1112 919.0 1072.5Q934 1033 961.0 1003.0Q988 973 1025.5 954.5Q1063 936 1108 935Q1051 933 1000.5 909.0Q950 885 912.5 846.0Q875 807 853.0 755.5Q831 704 831 647V0H543V647Q543 735 569.0 817.5Q595 900 642.5 969.5Q690 1039 756.5 1093.5Q823 1148 905 1181ZM1118 1222Q1148 1222 1169.0 1201.0Q1190 1180 1190 1150Q1190 1121 1168.5 1099.5Q1147 1078 1118 1078Q1089 1078 1068.0 1099.5Q1047 1121 1047 1150Q1047 1179 1068.0 1200.5Q1089 1222 1118 1222Z" style="fill:#e5e5e5;stroke:none" transform="scale(1,-1) translate(0,-256)" /></svg>