<?xml version="1.0" encoding="utf-8" ?>
<svg baseProfile="full" height="256" version="1.1" width="256" xmlns="http://www.w3.org/2000/svg" xmlns:ev="http://www.w3.org/2001/xml-events" xmlns:xlink="http://www.w3.org/1999/xlink"><defs /><path d="M1837 216V144H2268V-431H1837V-359H687V-431H256V144H400V647Q400 748 426.5 842.5Q453 937 503.0 1019.5Q553 1102 624.5 1169.5Q696 1237 786 1284Q812 1350 862.0 1400.0Q912 1450 975 1479V1653H1056Q1049 1680 1047.0 1707.5Q1045 1735 1045 1764Q1045 1790 1046.0 1816.5Q1047 1843 1047 1869H1622Q1622 1844 1622.5 1820.0Q1623 1796 1623 1771Q1623 1741 1621.0 1711.5Q1619 1682 1612 1653H1693V300L1609 216Z" style="fill:#000000;stroke:none" transform="scale(1,-1) translate(0,-256)" /></svg>