<?xml version="1.0" encoding="utf-8" ?>
<svg baseProfile="full" height="256" version="1.1" width="256" xmlns="http://www.w3.org/2000/svg" xmlns:ev="http://www.w3.org/2001/xml-events" xmlns:xlink="http://www.w3.org/1999/xlink"><defs /><path d="M2484 1725V1150H2340V1112Q2407 1073 2445.5 1007.0Q2484 941 2484 863V-144Q2484 -203 2461.5 -255.5Q2439 -308 2400.0 -347.0Q2361 -386 2308.5 -408.5Q2256 -431 2197 -431H543Q484 -431 431.5 -408.5Q379 -386 340.0 -347.0Q301 -308 278.5 -255.5Q256 -203 256 -144V863Q256 941 294.5 1007.0Q333 1073 400 1112V1150H256V1725H556L628 1797H819L891 1725H1850L1921 1797H2112L2184 1725Z" style="fill:#000000;stroke:none" transform="scale(1,-1) translate(0,-256)" /></svg>