<?xml version="1.0" encoding="utf-8" ?>
<svg baseProfile="full" height="256" version="1.1" width="256" xmlns="http://www.w3.org/2000/svg" xmlns:ev="http://www.w3.org/2001/xml-events" xmlns:xlink="http://www.w3.org/1999/xlink"><defs /><path d="M2340 1581V1510L2309 1473L2340 1438V1294H400V1438L452 1467L400 1510V1581ZM975 72H687Q658 72 636.5 93.5Q615 115 615 144V719Q615 748 636.5 769.5Q658 791 687 791H975Q1004 791 1025.5 769.5Q1047 748 1047 719V144Q1047 115 1025.5 93.5Q1004 72 975 72ZM831 1366V1459H615V1366ZM2125 1366V1459H1909V1366ZM687 1253H759V1038H687ZM1981 1253H2053V1038H1981ZM1550 1366V1459H1478V1366ZM975 1366V1459H903V1366ZM1837 1366V1459H1765V1366ZM1406 1366V1459H1334V1366ZM1262 1366V1459H1190V1366ZM1693 1366V1459H1622V1366ZM2197 1366H2268V1459H2197ZM1118 1366V1459H1047V1366ZM543 1366V1459H472V1366Z" style="fill:#cccccc;stroke:none" transform="scale(1,-1) translate(0,-256)" /></svg>