<?xml version="1.0" encoding="utf-8" ?>
<svg baseProfile="full" height="256" version="1.1" width="256" xmlns="http://www.w3.org/2000/svg" xmlns:ev="http://www.w3.org/2001/xml-events" xmlns:xlink="http://www.w3.org/1999/xlink"><defs /><path d="M1729 360Q1744 360 1754.5 349.5Q1765 339 1765 324V252Q1765 237 1754.5 226.5Q1744 216 1729 216Q1715 216 1704.0 227.0Q1693 238 1693 252V324Q1693 338 1704.0 349.0Q1715 360 1729 360ZM1641 1602Q1756 1561 1855.5 1493.5Q1955 1426 2033.5 1337.5Q2112 1249 2167.0 1142.0Q2222 1035 2248 915Q2227 892 2205.5 871.5Q2184 851 2166.0 829.0Q2148 807 2136.5 780.5Q2125 754 2125 720Q2095 720 2074.0 741.0Q2053 762 2053 792Q2053 822 2041.5 848.0Q2030 874 2010.5 893.5Q1991 913 1965.0 924.5Q1939 936 1909 936Q1880 936 1865.0 947.0Q1850 958 1837.5 971.5Q1825 985 1809.5 996.0Q1794 1007 1765 1007Q1765 978 1786.5 957.0Q1808 936 1837 936Q1837 906 1826.0 880.0Q1815 854 1795.5 834.5Q1776 815 1750.0 803.5Q1724 792 1694 792Q1694 820 1686.5 842.0Q1679 864 1666.0 883.5Q1653 903 1636.5 920.5Q1620 938 1601 956Q1611 934 1616.5 911.0Q1622 888 1622 864Q1622 834 1633.0 808.0Q1644 782 1663.5 762.5Q1683 743 1709.0 731.5Q1735 720 1765 720Q1699 666 1660.5 592.0Q1622 518 1622 432Q1622 406 1610.5 390.0Q1599 374 1585.5 360.5Q1572 347 1561.0 331.0Q1550 315 1550 289Q1550 244 1533.0 205.0Q1516 166 1486.5 136.5Q1457 107 1418.0 90.0Q1379 73 1334 73Q1309 73 1295.0 82.0Q1281 91 1273.5 106.0Q1266 121 1264.0 140.0Q1262 159 1262 178V217Q1262 242 1250.5 258.0Q1239 274 1225.5 288.5Q1212 303 1201.0 319.0Q1190 335 1190 361V504Q1190 534 1179.0 560.0Q1168 586 1148.5 605.5Q1129 625 1103.0 636.5Q1077 648 1047 648H903Q873 648 846.5 659.0Q820 670 800.5 689.5Q781 709 770.0 735.5Q759 762 759 792V864Q759 890 770.0 906.0Q781 922 794.5 935.5Q808 949 819.5 965.0Q831 981 831 1007Q831 1037 852.0 1058.0Q873 1079 903 1079H975Q1000 1079 1016.0 1090.0Q1032 1101 1046.5 1114.5Q1061 1128 1077.0 1139.5Q1093 1151 1119 1151H1190Q1209 1151 1215.5 1139.5Q1222 1128 1226.0 1114.5Q1230 1101 1236.0 1090.0Q1242 1079 1262 1079H1406Q1446 1079 1483.5 1065.0Q1521 1051 1550 1024V1079Q1550 1104 1541.0 1118.0Q1532 1132 1517.0 1139.5Q1502 1147 1483.0 1149.0Q1464 1151 1445 1151H1406Q1386 1151 1380.0 1162.0Q1374 1173 1370.0 1186.5Q1366 1200 1359.5 1211.5Q1353 1223 1334 1223Q1314 1223 1308.0 1211.5Q1302 1200 1298.0 1186.5Q1294 1173 1287.5 1162.0Q1281 1151 1262 1151Q1236 1151 1220.0 1162.0Q1204 1173 1190.5 1186.5Q1177 1200 1161.0 1211.5Q1145 1223 1119 1223Q1093 1223 1077.0 1211.5Q1061 1200 1046.5 1186.5Q1032 1173 1016.0 1162.0Q1000 1151 975 1151Q945 1151 924.0 1172.0Q903 1193 903 1223Q903 1242 914.0 1248.5Q925 1255 938.5 1259.0Q952 1263 963.5 1269.0Q975 1275 975 1295Q975 1314 963.5 1320.5Q952 1327 938.5 1331.0Q925 1335 914.0 1341.0Q903 1347 903 1367Q903 1397 924.0 1418.0Q945 1439 975 1439Q990 1439 1000.5 1428.5Q1011 1418 1011 1403Q1011 1388 1021.5 1377.5Q1032 1367 1047 1367Q1073 1367 1089.0 1355.5Q1105 1344 1118.5 1330.5Q1132 1317 1148.0 1306.0Q1164 1295 1190 1295Q1215 1295 1231.0 1306.0Q1247 1317 1261.5 1330.5Q1276 1344 1292.0 1355.5Q1308 1367 1334 1367Q1364 1367 1385.0 1388.0Q1406 1409 1406 1439Q1406 1468 1384.5 1489.5Q1363 1511 1334 1511Q1319 1511 1308.5 1500.5Q1298 1490 1298 1475Q1298 1455 1286.5 1449.0Q1275 1443 1261.5 1439.0Q1248 1435 1237.0 1428.5Q1226 1422 1226 1403Q1226 1388 1215.5 1377.5Q1205 1367 1190 1367Q1161 1367 1140.0 1388.5Q1119 1410 1119 1439Q1119 1468 1140.0 1489.5Q1161 1511 1190 1511Q1216 1511 1231.5 1522.0Q1247 1533 1261.0 1546.5Q1275 1560 1291.0 1571.0Q1307 1582 1334 1582Q1361 1582 1377.0 1571.0Q1393 1560 1407.0 1546.5Q1421 1533 1436.5 1522.0Q1452 1511 1478 1511Q1506 1511 1528.5 1518.0Q1551 1525 1570.0 1537.5Q1589 1550 1606.0 1566.5Q1623 1583 1641 1602Z" style="fill:#16c60c;stroke:none" transform="scale(1,-1) translate(0,-256)" /></svg>