<?xml version="1.0" encoding="utf-8" ?>
<svg baseProfile="full" height="256" version="1.1" width="256" xmlns="http://www.w3.org/2000/svg" xmlns:ev="http://www.w3.org/2001/xml-events" xmlns:xlink="http://www.w3.org/1999/xlink"><defs /><path d="M1981 503Q1981 384 1935.5 279.5Q1890 175 1812.0 97.0Q1734 19 1629.5 -26.5Q1525 -72 1406 -72Q1287 -72 1182.5 -26.5Q1078 19 1000.0 97.0Q922 175 876.5 279.5Q831 384 831 503ZM1334 899Q1334 879 1323.0 861.0Q1312 843 1294 834L759 575V647L1101 899L759 1150V1222L1294 963Q1312 954 1323.0 936.5Q1334 919 1334 899ZM2053 1150 1710 899 2053 647V575L1518 834Q1500 843 1489.0 861.0Q1478 879 1478 899Q1478 919 1489.0 936.5Q1500 954 1518 963L2053 1222Z" style="fill:#000000;stroke:none" transform="scale(1,-1) translate(0,-256)" /></svg>