<?xml version="1.0" encoding="utf-8" ?>
<svg baseProfile="full" height="256" version="1.1" width="256" xmlns="http://www.w3.org/2000/svg" xmlns:ev="http://www.w3.org/2001/xml-events" xmlns:xlink="http://www.w3.org/1999/xlink"><defs /><path d="M1802 1726Q1816 1726 1826 1716L1946 1597L2065 1716Q2075 1726 2090 1726Q2104 1726 2114.5 1715.0Q2125 1704 2125 1690V1510H2305Q2320 1510 2330.5 1499.5Q2341 1489 2341 1474Q2341 1460 2331 1450L2212 1330L2332 1209Q2341 1200 2341 1187Q2341 1172 2330.5 1161.5Q2320 1151 2305 1151H2054Q1969 1151 1893.5 1113.0Q1818 1075 1767 1006L1621 1152Q1690 1203 1728.0 1278.0Q1766 1353 1766 1438V1690Q1766 1705 1776.5 1715.5Q1787 1726 1802 1726Z" style="fill:#8cbd18;stroke:none" transform="scale(1,-1) translate(0,-256)" /></svg>