<?xml version="1.0" encoding="utf-8" ?>
<svg baseProfile="full" height="256" version="1.1" width="256" xmlns="http://www.w3.org/2000/svg" xmlns:ev="http://www.w3.org/2001/xml-events" xmlns:xlink="http://www.w3.org/1999/xlink"><defs /><path d="M1685 536 1570 546 1567 455 1177 186H1073L1057 102L512 -274Q492 -287 471 -287Q442 -287 420.5 -266.0Q399 -245 399 -216Q399 -195 409 -179L918 673L1001 710L994 801L1173 1101Q1200 1146 1237.0 1181.5Q1274 1217 1318.0 1242.0Q1362 1267 1411.5 1280.5Q1461 1294 1513 1294Q1595 1294 1667.0 1263.0Q1739 1232 1792.5 1178.5Q1846 1125 1877.0 1053.0Q1908 981 1908 899Q1908 821 1878.5 747.5Q1849 674 1793 619Q1769 595 1741.0 575.5Q1713 556 1685 536Z" style="fill:#f7630c;stroke:none" transform="scale(1,-1) translate(0,-256)" /></svg>