<?xml version="1.0" encoding="utf-8" ?>
<svg baseProfile="full" height="256" version="1.1" width="256" xmlns="http://www.w3.org/2000/svg" xmlns:ev="http://www.w3.org/2001/xml-events" xmlns:xlink="http://www.w3.org/1999/xlink"><defs /><path d="M1685 536 1567 455 1354 668Q1333 689 1333 719Q1333 749 1354.0 770.0Q1375 791 1405 791Q1435 791 1456 770L1672 554Q1676 550 1679.0 545.5Q1682 541 1685 536ZM1118 503Q1104 503 1090.5 508.5Q1077 514 1067 524L918 673L994 801L1169 626Q1190 605 1190 575Q1190 546 1169.0 524.5Q1148 503 1118 503ZM1177 186 1057 102 923 237Q902 260 902 288Q902 318 923.0 339.0Q944 360 974 360Q1004 360 1025 339Z" style="fill:#ca5010;stroke:none" transform="scale(1,-1) translate(0,-256)" /></svg>