<?xml version="1.0" encoding="utf-8" ?>
<svg baseProfile="full" height="256" version="1.1" width="256" xmlns="http://www.w3.org/2000/svg" xmlns:ev="http://www.w3.org/2001/xml-events" xmlns:xlink="http://www.w3.org/1999/xlink"><defs /><path d="M472 -431Q427 -431 387.5 -414.0Q348 -397 319.0 -368.0Q290 -339 273.0 -299.5Q256 -260 256 -215Q256 -156 287 -105L1050 1174Q1086 1235 1136.0 1284.0Q1186 1333 1246.0 1367.0Q1306 1401 1373.5 1419.0Q1441 1437 1512 1437Q1540 1437 1567.5 1434.0Q1595 1431 1622 1426V1689Q1622 1726 1636.0 1759.0Q1650 1792 1674.5 1816.5Q1699 1841 1732.0 1855.0Q1765 1869 1802 1869Q1850 1869 1881.5 1850.0Q1913 1831 1945 1799Q1975 1831 2009.5 1850.0Q2044 1869 2089 1869Q2126 1869 2159.0 1855.0Q2192 1841 2216.5 1816.5Q2241 1792 2255.0 1759.0Q2269 1726 2269 1689V1653H2304Q2341 1653 2374.0 1639.0Q2407 1625 2431.5 1600.5Q2456 1576 2470.0 1543.5Q2484 1511 2484 1474Q2484 1429 2465.0 1394.0Q2446 1359 2414 1330Q2446 1298 2465.0 1266.0Q2484 1234 2484 1186Q2484 1149 2470.0 1116.0Q2456 1083 2431.5 1058.5Q2407 1034 2374.0 1020.0Q2341 1006 2304 1006H2041Q2052 951 2052 899Q2052 791 2011.0 692.0Q1970 593 1894 517Q1865 488 1832.5 464.5Q1800 441 1767 418L1259 68Q1091 -47 926.5 -162.5Q762 -278 594 -393Q539 -431 472 -431Z" style="fill:#000000;stroke:none" transform="scale(1,-1) translate(0,-256)" /></svg>