<?xml version="1.0" encoding="utf-8" ?>
<svg baseProfile="full" height="256" version="1.1" width="256" xmlns="http://www.w3.org/2000/svg" xmlns:ev="http://www.w3.org/2001/xml-events" xmlns:xlink="http://www.w3.org/1999/xlink"><defs /><path d="M2197 935Q2197 867 2180.0 803.5Q2163 740 2125 683Q2098 642 2083.5 604.5Q2069 567 2062.0 528.0Q2055 489 2054.0 448.0Q2053 407 2053 360Q2053 315 2036.0 276.0Q2019 237 1989.5 207.5Q1960 178 1921.0 161.0Q1882 144 1837 144Q1799 144 1765.0 124.5Q1731 105 1713 72H1622V-102Q1622 -116 1616.0 -124.5Q1610 -133 1600.5 -137.5Q1591 -142 1579.0 -143.5Q1567 -145 1555 -145Q1545 -145 1536.0 -144.5Q1527 -144 1519 -144Q1502 -144 1490.0 -131.5Q1478 -119 1478 -102V72H1406V-102Q1406 -116 1400.0 -124.5Q1394 -133 1385.0 -137.5Q1376 -142 1364.0 -143.5Q1352 -145 1340 -145Q1330 -145 1321.0 -144.5Q1312 -144 1304 -144Q1287 -144 1274.5 -131.5Q1262 -119 1262 -102V72H1190V-102Q1190 -116 1184.5 -124.5Q1179 -133 1170.0 -137.5Q1161 -142 1150.0 -143.5Q1139 -145 1127 -145Q1116 -145 1106.0 -144.5Q1096 -144 1088 -144Q1071 -144 1059.0 -131.5Q1047 -119 1047 -102V72H955Q939 101 919.5 115.0Q900 129 877.5 135.0Q855 141 831.0 143.5Q807 146 781.5 151.5Q756 157 730.0 169.0Q704 181 678 207Q655 230 642.0 253.5Q629 277 623.0 301.5Q617 326 616.0 352.0Q615 378 615 407V431Q615 500 598.0 563.0Q581 626 543 683Q517 723 502.5 761.0Q488 799 481.0 838.0Q474 877 473.0 917.0Q472 957 472 1001V1042Q472 1156 514.5 1255.0Q557 1354 628.5 1434.0Q700 1514 793.5 1573.5Q887 1633 989 1668Q1072 1697 1159.0 1711.0Q1246 1725 1334 1725Q1422 1725 1509.0 1711.0Q1596 1697 1680 1668Q1782 1633 1875.5 1573.5Q1969 1514 2040.5 1434.5Q2112 1355 2154.5 1256.0Q2197 1157 2197 1042Z" style="fill:#f2f2f2;stroke:none" transform="scale(1,-1) translate(0,-256)" /></svg>