<?xml version="1.0" encoding="utf-8" ?>
<svg baseProfile="full" height="256" version="1.1" width="256" xmlns="http://www.w3.org/2000/svg" xmlns:ev="http://www.w3.org/2001/xml-events" xmlns:xlink="http://www.w3.org/1999/xlink"><defs /><path d="M903 1078Q948 1078 987.0 1061.0Q1026 1044 1055.0 1015.0Q1084 986 1101.0 947.0Q1118 908 1118 863V791Q1118 746 1101.0 707.0Q1084 668 1055.0 638.5Q1026 609 987.0 592.0Q948 575 903 575Q858 575 819.0 592.0Q780 609 750.5 638.5Q721 668 704.0 707.0Q687 746 687 791V863Q687 908 704.0 947.0Q721 986 750.5 1015.0Q780 1044 819.0 1061.0Q858 1078 903 1078ZM1765 1078Q1810 1078 1849.0 1061.0Q1888 1044 1917.5 1015.0Q1947 986 1964.0 947.0Q1981 908 1981 863V791Q1981 746 1964.0 707.0Q1947 668 1917.5 638.5Q1888 609 1849.0 592.0Q1810 575 1765 575Q1720 575 1681.0 592.0Q1642 609 1613.0 638.5Q1584 668 1567.0 707.0Q1550 746 1550 791V863Q1550 908 1567.0 947.0Q1584 986 1613.0 1015.0Q1642 1044 1681.0 1061.0Q1720 1078 1765 1078ZM1479 337Q1479 317 1468.0 303.0Q1457 289 1435 289H1234Q1212 289 1201.0 303.5Q1190 318 1190 338Q1190 348 1192.5 358.0Q1195 368 1199 377L1299 610Q1304 621 1312.0 634.0Q1320 647 1334 647Q1348 647 1356.5 634.5Q1365 622 1370 611L1470 377Q1474 368 1476.5 358.0Q1479 348 1479 337Z" style="fill:#000000;stroke:none" transform="scale(1,-1) translate(0,-256)" /></svg>