<?xml version="1.0" encoding="utf-8" ?>
<svg baseProfile="full" height="256" version="1.1" width="256" xmlns="http://www.w3.org/2000/svg" xmlns:ev="http://www.w3.org/2001/xml-events" xmlns:xlink="http://www.w3.org/1999/xlink"><defs /><path d="M1334 1869Q1437 1869 1538.5 1852.0Q1640 1835 1737 1800Q1859 1756 1968.5 1683.0Q2078 1610 2160.5 1513.0Q2243 1416 2291.5 1297.0Q2340 1178 2340 1042V935Q2340 841 2316.5 760.5Q2293 680 2243 601Q2226 575 2217.0 549.5Q2208 524 2203.5 498.5Q2199 473 2198.0 446.5Q2197 420 2197 392V360Q2197 286 2168.5 220.5Q2140 155 2091.5 106.0Q2043 57 1977.5 28.5Q1912 0 1838 0Q1838 -27 1837.5 -54.0Q1837 -81 1837 -108Q1837 -160 1817.0 -205.5Q1797 -251 1763.0 -285.0Q1729 -319 1683.5 -339.0Q1638 -359 1586 -359H1514Q1496 -359 1477.5 -356.5Q1459 -354 1442 -349Q1420 -356 1397.0 -358.0Q1374 -360 1351 -360Q1337 -360 1324.0 -359.5Q1311 -359 1298 -359Q1280 -359 1261.5 -356.5Q1243 -354 1226 -349Q1204 -356 1181.0 -358.0Q1158 -360 1135 -360Q1121 -360 1108.5 -359.5Q1096 -359 1083 -359Q1031 -359 985.5 -339.0Q940 -319 905.5 -285.0Q871 -251 851.0 -205.5Q831 -160 831 -108V-1Q757 0 691.5 28.5Q626 57 577.0 105.5Q528 154 500.0 219.5Q472 285 472 360V431Q472 478 461.0 520.0Q450 562 425 601Q389 657 369.5 706.5Q350 756 341.0 805.0Q332 854 330.0 906.0Q328 958 328 1021V1042Q328 1178 376.5 1297.0Q425 1416 507.5 1513.0Q590 1610 699.5 1683.0Q809 1756 931 1800Q1028 1835 1129.5 1852.0Q1231 1869 1334 1869Z" style="fill:#000000;stroke:none" transform="scale(1,-1) translate(0,-256)" /></svg>