<?xml version="1.0" encoding="utf-8" ?>
<svg baseProfile="full" height="256" version="1.1" width="256" xmlns="http://www.w3.org/2000/svg" xmlns:ev="http://www.w3.org/2001/xml-events" xmlns:xlink="http://www.w3.org/1999/xlink"><defs /><path d="M1334 183 1713 72Q1693 38 1693 0V-108Q1693 -130 1684.5 -149.5Q1676 -169 1661.5 -183.5Q1647 -198 1627.5 -206.5Q1608 -215 1586 -215H1514Q1494 -215 1475.5 -208.5Q1457 -202 1442 -188Q1422 -206 1398.5 -211.0Q1375 -216 1349 -216Q1336 -216 1323.5 -215.5Q1311 -215 1298 -215Q1278 -215 1259.5 -208.5Q1241 -202 1226 -188Q1206 -206 1182.0 -211.0Q1158 -216 1133 -216Q1120 -216 1108.0 -215.5Q1096 -215 1083 -215Q1061 -215 1041.5 -206.5Q1022 -198 1007.0 -184.0Q992 -170 983.5 -150.5Q975 -131 975 -108Q975 -91 976.0 -72.0Q977 -53 977 -33Q977 -5 973.0 22.0Q969 49 955 72Z" style="fill:#a6a6a6;stroke:none" transform="scale(1,-1) translate(0,-256)" /></svg>