<?xml version="1.0" encoding="utf-8" ?>
<svg baseProfile="full" height="256" version="1.1" width="256" xmlns="http://www.w3.org/2000/svg" xmlns:ev="http://www.w3.org/2001/xml-events" xmlns:xlink="http://www.w3.org/1999/xlink"><defs /><path d="M2412 755Q2412 743 2408.5 724.0Q2405 705 2400.0 684.5Q2395 664 2390.0 644.5Q2385 625 2382 613Q2362 530 2342.5 448.0Q2323 366 2303 284Q2297 260 2290.5 232.0Q2284 204 2277.5 175.0Q2271 146 2264.0 119.0Q2257 92 2250 70Q2245 56 2232 56Q2220 56 2215 70Q2208 92 2201.0 119.0Q2194 146 2187.5 175.0Q2181 204 2174.5 232.0Q2168 260 2162 284Q2142 366 2122.5 448.0Q2103 530 2083 613Q2080 625 2075.0 644.5Q2070 664 2065.0 684.5Q2060 705 2056.5 724.0Q2053 743 2053 755Q2053 792 2067.0 825.0Q2081 858 2105.5 882.5Q2130 907 2163.0 921.0Q2196 935 2233 935Q2270 935 2302.5 921.0Q2335 907 2359.5 882.5Q2384 858 2398.0 825.0Q2412 792 2412 755ZM759 755Q759 743 755.5 724.0Q752 705 747.0 684.5Q742 664 737.0 644.5Q732 625 729 613Q709 530 689.5 448.0Q670 366 650 284Q644 260 637.5 232.0Q631 204 624.5 175.0Q618 146 611.0 119.0Q604 92 597 70Q592 56 579 56Q567 56 562 70Q555 92 548.0 119.0Q541 146 534.5 175.0Q528 204 521.5 232.0Q515 260 509 284Q489 366 469.5 448.0Q450 530 430 613Q427 625 422.0 644.5Q417 664 412.0 684.5Q407 705 403.5 724.0Q400 743 400 755Q400 792 414.0 825.0Q428 858 452.5 882.5Q477 907 509.5 921.0Q542 935 579 935Q616 935 649.0 921.0Q682 907 706.5 882.5Q731 858 745.0 825.0Q759 792 759 755ZM2125 180Q2125 171 2122.0 157.0Q2119 143 2115.0 128.0Q2111 113 2107.0 99.0Q2103 85 2101 75Q2081 -7 2060.0 -88.5Q2039 -170 2017 -251Q1995 -170 1974.0 -88.5Q1953 -7 1933 75Q1931 85 1927.0 99.0Q1923 113 1919.0 128.0Q1915 143 1912.0 157.0Q1909 171 1909 180Q1909 202 1917.5 221.5Q1926 241 1941.0 256.0Q1956 271 1975.5 279.5Q1995 288 2017 288Q2039 288 2058.5 279.5Q2078 271 2093.0 256.0Q2108 241 2116.5 221.5Q2125 202 2125 180ZM903 180Q903 171 900.0 157.0Q897 143 893.0 128.0Q889 113 885.0 99.0Q881 85 879 75Q859 -7 838.0 -88.5Q817 -170 795 -251Q773 -170 752.0 -88.5Q731 -7 711 75Q709 85 705.0 99.0Q701 113 697.0 128.0Q693 143 690.0 157.0Q687 171 687 180Q687 202 695.5 221.5Q704 241 719.0 256.0Q734 271 753.5 279.5Q773 288 795 288Q817 288 836.5 279.5Q856 271 871.0 256.0Q886 241 894.5 221.5Q903 202 903 180ZM1478 288V144H1334V288ZM1262 288V144H1118V288ZM1693 288V144H1550V288ZM1478 497V360H1334V497Q1370 503 1406 503Q1442 503 1478 497ZM1262 479V360H1118V394Q1182 450 1262 479ZM1693 394V360H1550V479Q1589 465 1625.5 443.5Q1662 422 1693 394ZM1047 288V144H981Q993 223 1032 288ZM1831 144H1765V288H1780Q1799 254 1812.0 218.0Q1825 182 1831 144Z" style="fill:#ffffff;stroke:none" transform="scale(1,-1) translate(0,-256)" /></svg>