<?xml version="1.0" encoding="utf-8" ?>
<svg baseProfile="full" height="256" version="1.1" width="256" xmlns="http://www.w3.org/2000/svg" xmlns:ev="http://www.w3.org/2001/xml-events" xmlns:xlink="http://www.w3.org/1999/xlink"><defs /><path d="M1406 1869Q1564 1869 1711.0 1828.0Q1858 1787 1986.0 1712.0Q2114 1637 2219.0 1532.0Q2324 1427 2399.0 1299.5Q2474 1172 2515.0 1025.0Q2556 878 2556 719Q2556 622 2540.0 526.5Q2524 431 2492 339Q2475 294 2456 249Q2449 235 2441.0 221.0Q2433 207 2428 191Q2417 153 2408.5 113.5Q2400 74 2389 35Q2373 -24 2329.5 -55.5Q2286 -87 2226 -87L2202 -111Q2196 -136 2189.0 -165.0Q2182 -194 2174.5 -223.0Q2167 -252 2159.5 -280.5Q2152 -309 2144 -333Q2129 -378 2097.0 -404.5Q2065 -431 2017 -431Q1995 -431 1973.0 -423.0Q1951 -415 1933.0 -401.0Q1915 -387 1903.0 -367.5Q1891 -348 1888 -325Q1775 -378 1653.0 -404.5Q1531 -431 1406 -431Q1281 -431 1159.0 -404.5Q1037 -378 924 -325Q921 -348 909.0 -367.5Q897 -387 879.0 -401.0Q861 -415 839.0 -423.0Q817 -431 795 -431Q747 -431 715.0 -404.5Q683 -378 668 -333Q660 -309 652.5 -280.5Q645 -252 637.5 -223.0Q630 -194 623.0 -165.0Q616 -136 610 -111L586 -87Q526 -87 482.5 -55.5Q439 -24 423 35Q412 74 403.5 113.5Q395 153 384 191Q379 207 371.0 221.0Q363 235 356 249Q336 294 320 339Q288 431 272.0 526.5Q256 622 256 719Q256 878 297.0 1025.0Q338 1172 413.0 1299.5Q488 1427 593.0 1532.0Q698 1637 826.0 1712.0Q954 1787 1100.5 1828.0Q1247 1869 1406 1869Z" style="fill:#000000;stroke:none" transform="scale(1,-1) translate(0,-256)" /></svg>