<?xml version="1.0" encoding="utf-8" ?>
<svg baseProfile="full" height="256" version="1.1" width="256" xmlns="http://www.w3.org/2000/svg" xmlns:ev="http://www.w3.org/2001/xml-events" xmlns:xlink="http://www.w3.org/1999/xlink"><defs /><path d="M903 72Q903 176 942.5 267.5Q982 359 1050.0 427.5Q1118 496 1210.0 535.5Q1302 575 1406 575Q1510 575 1601.5 535.5Q1693 496 1761.5 427.5Q1830 359 1869.5 267.5Q1909 176 1909 72ZM1801 791Q1779 791 1759.5 799.5Q1740 808 1725.0 823.0Q1710 838 1701.5 857.5Q1693 877 1693 899V1042Q1693 1064 1701.5 1083.5Q1710 1103 1725.0 1118.0Q1740 1133 1759.5 1141.5Q1779 1150 1801 1150Q1823 1150 1843.0 1141.5Q1863 1133 1877.5 1118.5Q1892 1104 1900.5 1084.0Q1909 1064 1909 1042V899Q1909 876 1900.5 856.5Q1892 837 1877.5 822.5Q1863 808 1843.0 799.5Q1823 791 1801 791ZM1011 791Q988 791 968.5 799.5Q949 808 934.5 822.5Q920 837 911.5 856.5Q903 876 903 899V1042Q903 1064 911.5 1084.0Q920 1104 934.5 1118.5Q949 1133 968.5 1141.5Q988 1150 1011 1150Q1033 1150 1053.0 1141.5Q1073 1133 1087.0 1118.0Q1101 1103 1109.5 1083.5Q1118 1064 1118 1042V899Q1118 877 1109.5 857.5Q1101 838 1087.0 823.0Q1073 808 1053.0 799.5Q1033 791 1011 791Z" style="fill:#000000;stroke:none" transform="scale(1,-1) translate(0,-256)" /></svg>