<?xml version="1.0" encoding="utf-8" ?>
<svg baseProfile="full" height="256" version="1.1" width="256" xmlns="http://www.w3.org/2000/svg" xmlns:ev="http://www.w3.org/2001/xml-events" xmlns:xlink="http://www.w3.org/1999/xlink"><defs /><path d="M759 1078Q759 1108 770.0 1134.0Q781 1160 800.5 1179.5Q820 1199 846.5 1210.5Q873 1222 903 1222Q933 1222 959.0 1233.5Q985 1245 1004.5 1264.5Q1024 1284 1035.5 1310.0Q1047 1336 1047 1366Q1047 1411 1064.0 1450.0Q1081 1489 1110.0 1518.0Q1139 1547 1178.0 1564.0Q1217 1581 1262 1581H1873Q1895 1581 1914.5 1572.5Q1934 1564 1949.0 1550.0Q1964 1536 1972.5 1516.0Q1981 1496 1981 1474Q1981 1451 1972.5 1431.5Q1964 1412 1949.5 1397.5Q1935 1383 1915.0 1374.5Q1895 1366 1873 1366H1334Q1304 1366 1283.0 1345.0Q1262 1324 1262 1294Q1262 1264 1283.0 1243.0Q1304 1222 1334 1222H1909Q1939 1222 1965.0 1210.5Q1991 1199 2010.5 1179.5Q2030 1160 2041.5 1134.0Q2053 1108 2053 1078Z" style="fill:#f7630c;stroke:none" transform="scale(1,-1) translate(0,-256)" /></svg>