<?xml version="1.0" encoding="utf-8" ?>
<svg baseProfile="full" height="256" version="1.1" width="256" xmlns="http://www.w3.org/2000/svg" xmlns:ev="http://www.w3.org/2001/xml-events" xmlns:xlink="http://www.w3.org/1999/xlink"><defs /><path d="M1047 -287Q938 -287 837.0 -259.0Q736 -231 648.0 -179.5Q560 -128 488.0 -55.5Q416 17 364.5 104.5Q313 192 284.5 293.0Q256 394 256 503Q256 605 282.0 702.0Q308 799 356.5 884.5Q405 970 474.5 1043.0Q544 1116 630 1170Q645 1214 672.0 1250.0Q699 1286 735.0 1312.0Q771 1338 813.5 1352.0Q856 1366 903 1366Q903 1440 931.0 1505.5Q959 1571 1008.0 1619.5Q1057 1668 1122.5 1696.5Q1188 1725 1262 1725H1873Q1925 1725 1970.5 1705.0Q2016 1685 2050.5 1651.0Q2085 1617 2105.0 1571.5Q2125 1526 2125 1474Q2125 1431 2110.5 1390.5Q2096 1350 2070 1317Q2109 1291 2137.5 1253.0Q2166 1215 2181 1170Q2267 1116 2336.5 1043.5Q2406 971 2454.5 885.0Q2503 799 2529.5 702.0Q2556 605 2556 503Q2556 394 2527.5 293.0Q2499 192 2447.5 104.5Q2396 17 2324.0 -55.5Q2252 -128 2164.0 -179.5Q2076 -231 1975.0 -259.0Q1874 -287 1765 -287Z" style="fill:#000000;stroke:none" transform="scale(1,-1) translate(0,-256)" /></svg>