<?xml version="1.0" encoding="utf-8" ?>
<svg baseProfile="full" height="256" version="1.1" width="256" xmlns="http://www.w3.org/2000/svg" xmlns:ev="http://www.w3.org/2001/xml-events" xmlns:xlink="http://www.w3.org/1999/xlink"><defs /><path d="M2053 1078Q2144 1030 2218.0 958.0Q2292 886 2340 795Q2341 792 2346.5 781.0Q2352 770 2358.0 757.5Q2364 745 2368.5 733.5Q2373 722 2373 719Q2374 703 2374.0 690.0Q2374 677 2374 664V287Q2374 282 2367.5 265.5Q2361 249 2352.0 230.5Q2343 212 2334.0 196.0Q2325 180 2322 174Q2278 100 2217.5 41.0Q2157 -18 2085.0 -59.0Q2013 -100 1932.0 -122.0Q1851 -144 1765 -144H1047Q961 -144 879.5 -122.0Q798 -100 726.0 -59.0Q654 -18 593.5 41.0Q533 100 490 174Q487 180 478.0 196.0Q469 212 460.0 230.5Q451 249 444.0 265.5Q437 282 437 287V575Q437 596 437.0 613.0Q437 630 437.0 646.5Q437 663 437.5 680.5Q438 698 439 719Q439 722 443.5 733.5Q448 745 454.0 757.5Q460 770 465.5 781.0Q471 792 472 795Q520 886 594.0 958.0Q668 1030 759 1078L1200 1126Q1232 1129 1258.5 1133.5Q1285 1138 1310.0 1141.5Q1335 1145 1361.5 1147.5Q1388 1150 1420 1150Q1451 1150 1476.5 1147.5Q1502 1145 1526.0 1141.5Q1550 1138 1575.0 1133.5Q1600 1129 1631 1126Z" style="fill:#cccccc;stroke:none" transform="scale(1,-1) translate(0,-256)" /></svg>