<?xml version="1.0" encoding="utf-8" ?>
<svg baseProfile="full" height="256" version="1.1" width="256" xmlns="http://www.w3.org/2000/svg" xmlns:ev="http://www.w3.org/2001/xml-events" xmlns:xlink="http://www.w3.org/1999/xlink"><defs /><path d="M1730 575Q1680 575 1644.0 585.5Q1608 596 1579.5 612.0Q1551 628 1527.5 647.0Q1504 666 1480.5 682.0Q1457 698 1430.5 708.5Q1404 719 1370 719Q1336 719 1310.0 708.5Q1284 698 1260.5 682.0Q1237 666 1213.5 647.0Q1190 628 1161.5 612.0Q1133 596 1096.5 585.5Q1060 575 1011 575Q961 575 924.5 585.5Q888 596 859.5 612.0Q831 628 807.5 647.0Q784 666 761.0 682.0Q738 698 711.5 708.5Q685 719 651 719Q615 719 589.0 707.5Q563 696 543.5 682.5Q524 669 507.0 658.0Q490 647 472 647Q443 647 421.5 668.0Q400 689 400 718Q400 736 405.0 746.5Q410 757 422 770Q443 792 470.0 809.5Q497 827 527.0 838.5Q557 850 589.0 856.0Q621 862 651 862Q700 862 736.5 851.5Q773 841 801.5 825.0Q830 809 853.5 790.0Q877 771 901.0 755.0Q925 739 951.0 728.5Q977 718 1011 718Q1045 718 1071.0 728.5Q1097 739 1121.0 755.0Q1145 771 1168.0 790.0Q1191 809 1220.0 825.0Q1249 841 1285.0 851.5Q1321 862 1370 862Q1419 862 1455.5 851.5Q1492 841 1521.0 825.0Q1550 809 1573.5 790.0Q1597 771 1620.0 755.0Q1643 739 1669.0 728.5Q1695 718 1729 718Q1763 718 1789.0 728.5Q1815 739 1838.5 755.0Q1862 771 1885.5 790.0Q1909 809 1937.5 825.0Q1966 841 2002.5 851.5Q2039 862 2089 862Q2108 862 2134.0 857.5Q2160 853 2188.0 845.0Q2216 837 2243.5 824.5Q2271 812 2292.5 796.5Q2314 781 2327.5 761.5Q2341 742 2341 719Q2341 689 2319.0 668.0Q2297 647 2268 647Q2250 647 2233.5 658.0Q2217 669 2197.0 682.5Q2177 696 2151.0 707.5Q2125 719 2089 719Q2055 719 2029.0 708.5Q2003 698 1979.5 682.0Q1956 666 1932.5 647.0Q1909 628 1880.5 612.0Q1852 596 1815.5 585.5Q1779 575 1730 575Z" style="fill:#757575;stroke:none" transform="scale(1,-1) translate(0,-256)" /></svg>