<?xml version="1.0" encoding="utf-8" ?>
<svg baseProfile="full" height="256" version="1.1" width="256" xmlns="http://www.w3.org/2000/svg" xmlns:ev="http://www.w3.org/2001/xml-events" xmlns:xlink="http://www.w3.org/1999/xlink"><defs /><path d="M1730 431Q1696 431 1659.0 436.5Q1622 442 1586.0 452.5Q1550 463 1516.5 479.5Q1483 496 1456 517L1400 563Q1386 575 1370 575Q1362 575 1354.5 572.0Q1347 569 1340 564Q1325 553 1311.5 540.5Q1298 528 1284 517Q1227 475 1154.0 453.0Q1081 431 1011 431Q977 431 940.0 436.5Q903 442 867.0 452.5Q831 463 797.5 479.5Q764 496 737 517L681 563Q667 575 651 575Q640 575 623.5 563.5Q607 552 585.0 538.5Q563 525 534.5 514.0Q506 503 472 503Q427 503 388.0 520.0Q349 537 319.5 566.5Q290 596 273.0 635.0Q256 674 256 719Q256 765 274.0 804.5Q292 844 323.0 876.0Q354 908 394.0 932.5Q434 957 478.0 973.0Q522 989 566.5 997.5Q611 1006 651 1006Q685 1006 722.0 1000.5Q759 995 795.0 984.5Q831 974 864.5 957.5Q898 941 925 920L981 874Q995 862 1011 862Q1020 862 1027.0 865.5Q1034 869 1041 874Q1055 885 1069.0 897.0Q1083 909 1097 920Q1154 962 1226.5 984.0Q1299 1006 1370 1006Q1441 1006 1513.0 984.0Q1585 962 1643 920Q1658 909 1671.5 897.0Q1685 885 1700 874Q1707 869 1714.0 865.5Q1721 862 1730 862Q1738 862 1745.0 865.5Q1752 869 1759 874Q1774 885 1787.5 897.0Q1801 909 1816 920Q1874 962 1946.0 984.0Q2018 1006 2089 1006Q2129 1006 2173.5 997.5Q2218 989 2262.0 972.5Q2306 956 2346.0 931.5Q2386 907 2417.0 875.0Q2448 843 2466.0 803.5Q2484 764 2484 718Q2484 674 2467.0 635.0Q2450 596 2420.5 566.5Q2391 537 2352.0 520.0Q2313 503 2269 503Q2233 503 2204.5 514.0Q2176 525 2153.5 538.5Q2131 552 2115.0 563.5Q2099 575 2089 575Q2081 575 2073.5 572.0Q2066 569 2059 564Q2044 553 2030.5 540.5Q2017 528 2003 517Q1946 475 1873.0 453.0Q1800 431 1730 431Z" style="fill:#000000;stroke:none" transform="scale(1,-1) translate(0,-256)" /></svg>