<?xml version="1.0" encoding="utf-8" ?>
<svg baseProfile="full" height="256" version="1.1" width="256" xmlns="http://www.w3.org/2000/svg" xmlns:ev="http://www.w3.org/2001/xml-events" xmlns:xlink="http://www.w3.org/1999/xlink"><defs /><path d="M759 1150Q759 1180 780.0 1201.0Q801 1222 831 1222Q947 1222 1037.5 1266.5Q1128 1311 1208 1392Q1231 1417 1263 1417Q1292 1417 1313.0 1396.0Q1334 1375 1334 1346Q1334 1320 1316 1297Q1273 1245 1217.0 1204.5Q1161 1164 1097.0 1136.0Q1033 1108 965.0 1093.0Q897 1078 831 1078Q802 1078 780.5 1099.5Q759 1121 759 1150ZM2053 1150Q2053 1121 2031.5 1099.5Q2010 1078 1981 1078Q1915 1078 1847.0 1092.5Q1779 1107 1715.0 1135.0Q1651 1163 1595.0 1204.0Q1539 1245 1496 1297Q1478 1320 1478 1346Q1478 1375 1499.0 1396.0Q1520 1417 1549 1417Q1581 1417 1604 1392Q1684 1311 1774.5 1266.5Q1865 1222 1981 1222Q2011 1222 2032.0 1201.0Q2053 1180 2053 1150ZM920 -287Q854 -287 798.5 -262.0Q743 -237 702.0 -194.0Q661 -151 638.0 -93.5Q615 -36 615 29V431Q615 460 636.5 481.5Q658 503 687 503Q717 503 738.0 482.0Q759 461 759 431V288L1135 664Q1154 683 1181 683Q1199 683 1211.0 675.5Q1223 668 1235 656V598L1289 602L1370 521L1368 474L1424 467Q1441 450 1459.0 432.0Q1477 414 1477 387Q1477 371 1468.5 356.0Q1460 341 1447.5 327.5Q1435 314 1421.0 301.5Q1407 289 1397 279V229L1450 225Q1463 214 1470.5 201.0Q1478 188 1478 171Q1478 144 1459 125L1136 -198Q1093 -241 1036.5 -264.0Q980 -287 920 -287Z" style="fill:#d48c00;stroke:none" transform="scale(1,-1) translate(0,-256)" /></svg>