<?xml version="1.0" encoding="utf-8" ?>
<svg baseProfile="full" height="256" version="1.1" width="256" xmlns="http://www.w3.org/2000/svg" xmlns:ev="http://www.w3.org/2001/xml-events" xmlns:xlink="http://www.w3.org/1999/xlink"><defs /><path d="M1047 182Q1047 166 1058.0 155.0Q1069 144 1085 144Q1101 144 1112 155L1424 467L1370 521L1062 214Q1047 199 1047 182ZM1289 602 980 293Q969 282 953 282Q937 282 926.0 294.0Q915 306 915 321Q915 335 927 347L1235 656ZM1451 225 1273 47Q1262 36 1246 36Q1229 36 1218.5 46.5Q1208 57 1208 74Q1208 94 1223.5 107.5Q1239 121 1251 133L1397 279Z" style="fill:#8e562e;stroke:none" transform="scale(1,-1) translate(0,-256)" /></svg>