<?xml version="1.0" encoding="utf-8" ?>
<svg baseProfile="full" height="256" version="1.1" width="256" xmlns="http://www.w3.org/2000/svg" xmlns:ev="http://www.w3.org/2001/xml-events" xmlns:xlink="http://www.w3.org/1999/xlink"><defs /><path d="M1693 216Q1693 156 1670.5 103.5Q1648 51 1609.0 12.0Q1570 -27 1518.0 -49.5Q1466 -72 1406 -72Q1346 -72 1293.5 -49.5Q1241 -27 1202.0 12.0Q1163 51 1140.5 103.5Q1118 156 1118 216V288Q1118 347 1141.0 399.5Q1164 452 1203.0 491.0Q1242 530 1294.5 552.5Q1347 575 1406 575Q1465 575 1517.5 552.5Q1570 530 1609.0 491.0Q1648 452 1670.5 399.5Q1693 347 1693 288ZM1118 791H831Q801 791 780.0 812.0Q759 833 759 863Q759 892 780.5 913.5Q802 935 831 935H1118Q1147 935 1168.5 913.5Q1190 892 1190 863Q1190 833 1169.0 812.0Q1148 791 1118 791ZM1981 791H1693Q1664 791 1643.0 812.5Q1622 834 1622 863Q1622 892 1643.0 913.5Q1664 935 1693 935H1981Q2010 935 2031.5 913.5Q2053 892 2053 863Q2053 833 2032.0 812.0Q2011 791 1981 791Z" style="fill:#000000;stroke:none" transform="scale(1,-1) translate(0,-256)" /></svg>