<?xml version="1.0" encoding="utf-8" ?>
<svg baseProfile="full" height="256" version="1.1" width="256" xmlns="http://www.w3.org/2000/svg" xmlns:ev="http://www.w3.org/2001/xml-events" xmlns:xlink="http://www.w3.org/1999/xlink"><defs /><path d="M1406 1869Q1564 1869 1711.0 1828.0Q1858 1787 1986.0 1712.0Q2114 1637 2219.0 1532.0Q2324 1427 2399.0 1299.0Q2474 1171 2515.0 1024.0Q2556 877 2556 719Q2556 561 2515.0 414.0Q2474 267 2399.0 139.0Q2324 11 2219.0 -94.0Q2114 -199 1986.0 -274.0Q1858 -349 1711.0 -390.0Q1564 -431 1406 -431Q1329 -431 1254.0 -421.0Q1179 -411 1105 -391Q1016 -431 920 -431Q827 -431 745.5 -395.5Q664 -360 603.0 -299.0Q542 -238 507.0 -156.5Q472 -75 472 18V49Q366 196 311.0 366.5Q256 537 256 719Q256 877 297.0 1024.0Q338 1171 413.0 1299.0Q488 1427 593.0 1532.0Q698 1637 826.0 1712.0Q954 1787 1100.5 1828.0Q1247 1869 1406 1869Z" style="fill:#000000;stroke:none" transform="scale(1,-1) translate(0,-256)" /></svg>