<?xml version="1.0" encoding="utf-8" ?>
<svg baseProfile="full" height="256" version="1.1" width="256" xmlns="http://www.w3.org/2000/svg" xmlns:ev="http://www.w3.org/2001/xml-events" xmlns:xlink="http://www.w3.org/1999/xlink"><defs /><path d="M1152 392Q1158 376 1172.0 340.5Q1186 305 1204.5 257.0Q1223 209 1245.0 152.0Q1267 95 1289.0 37.5Q1311 -20 1331.0 -74.5Q1351 -129 1366.5 -172.5Q1382 -216 1391.5 -245.0Q1401 -274 1401 -281Q1401 -286 1394.5 -286.5Q1388 -287 1385 -287H508Q493 -287 482.5 -276.5Q472 -266 472 -251V-146Q472 -102 486.0 -73.5Q500 -45 521.5 -23.0Q543 -1 568.0 20.5Q593 42 615 72Q638 103 653.0 138.0Q668 173 687 206Q663 206 621.5 212.5Q580 219 536.5 230.5Q493 242 455.0 256.5Q417 271 400 288Q400 330 411.0 354.0Q422 378 435.5 396.0Q449 414 460.5 432.5Q472 451 472 482V719Q472 726 468.5 742.0Q465 758 459.5 779.0Q454 800 447.0 824.0Q440 848 433.5 869.5Q427 891 421.5 908.5Q416 926 413 935Q423 958 442 977L687 1222L759 1510L933 1683Q975 1725 1034 1725H1255Q1262 1725 1262 1720Q1262 1677 1258.0 1635.5Q1254 1594 1250 1551Q1244 1482 1238.5 1415.0Q1233 1348 1228 1279Q1210 1056 1191.0 835.5Q1172 615 1152 392Z" style="fill:#cccccc;stroke:none" transform="scale(1,-1) translate(0,-256)" /></svg>