<?xml version="1.0" encoding="utf-8" ?>
<svg baseProfile="full" height="256" version="1.1" width="256" xmlns="http://www.w3.org/2000/svg" xmlns:ev="http://www.w3.org/2001/xml-events" xmlns:xlink="http://www.w3.org/1999/xlink"><defs /><path d="M1502 1686Q1525 1671 1537.5 1646.5Q1550 1622 1550 1595Q1550 1586 1549 1581L1415 673Q1410 641 1387.0 626.0Q1364 611 1334 611V601Q1334 581 1333.5 562.0Q1333 543 1329.0 525.5Q1325 508 1316.5 492.0Q1308 476 1292 461Q1284 453 1276.0 447.0Q1268 441 1262 432L1110 215Q1101 202 1081.0 189.5Q1061 177 1035.5 166.0Q1010 155 980.5 145.0Q951 135 923.0 128.0Q895 121 871.0 117.0Q847 113 831 113Q776 113 722.5 125.5Q669 138 615 144Q609 145 603.0 145.0Q597 145 591 145Q579 145 567.0 144.5Q555 144 543 144Q513 144 487.0 155.5Q461 167 441.5 186.5Q422 206 411.0 232.0Q400 258 400 288H687L1118 719V1510L1262 1724Q1278 1722 1303.0 1717.0Q1328 1712 1353.5 1706.0Q1379 1700 1402.5 1693.0Q1426 1686 1441 1679L1442 1689ZM1550 -32Q1550 -77 1543.0 -108.5Q1536 -140 1521.0 -165.5Q1506 -191 1482.5 -214.0Q1459 -237 1427 -266Q1421 -271 1415.0 -275.5Q1409 -280 1401 -282L1047 72L1190 311L1334 288L1476 146Q1511 111 1530.5 64.5Q1550 18 1550 -32ZM831 863 594 801 400 863Q400 882 402.5 900.0Q405 918 413 935H558Q615 935 647 983L903 1366L954 1340L975 1294Z" style="fill:#a6a6a6;stroke:none" transform="scale(1,-1) translate(0,-256)" /></svg>