<?xml version="1.0" encoding="utf-8" ?>
<svg baseProfile="full" height="256" version="1.1" width="256" xmlns="http://www.w3.org/2000/svg" xmlns:ev="http://www.w3.org/2001/xml-events" xmlns:xlink="http://www.w3.org/1999/xlink"><defs /><path d="M1190 1324Q1190 1307 1180.5 1289.0Q1171 1271 1156.0 1256.0Q1141 1241 1123.0 1231.5Q1105 1222 1089 1222Q1069 1222 1054.5 1225.5Q1040 1229 1026 1243L924 1345Q903 1366 873 1366Q854 1366 839.0 1362.5Q824 1359 810 1345L687 1222V1438L759 1510H1104Q1113 1510 1127.5 1500.0Q1142 1490 1156.0 1475.5Q1170 1461 1180.0 1446.5Q1190 1432 1190 1423ZM1262 431Q1263 384 1282.5 352.0Q1302 320 1334 288H1262L1047 72H615V144H856Q913 144 966.0 166.0Q1019 188 1059 228ZM579 647Q561 647 546.0 654.0Q531 661 518.5 671.5Q506 682 495.0 694.5Q484 707 472 719Q461 730 448.5 741.0Q436 752 425.0 764.0Q414 776 407.0 790.0Q400 804 400 821V863H831L641 672Q616 647 579 647Z" style="fill:#757575;stroke:none" transform="scale(1,-1) translate(0,-256)" /></svg>