<?xml version="1.0" encoding="utf-8" ?>
<svg baseProfile="full" height="256" version="1.1" width="256" xmlns="http://www.w3.org/2000/svg" xmlns:ev="http://www.w3.org/2001/xml-events" xmlns:xlink="http://www.w3.org/1999/xlink"><defs /><path d="M975 575Q975 545 963.5 519.0Q952 493 932.5 473.5Q913 454 887.0 442.5Q861 431 831 431Q800 431 778.0 441.5Q756 452 742.0 470.5Q728 489 721.5 513.5Q715 538 715 566Q715 588 717.0 605.0Q719 622 724.0 637.0Q729 652 737.5 667.0Q746 682 759 700Q794 719 831 719Q861 719 887.0 707.5Q913 696 932.5 676.5Q952 657 963.5 631.0Q975 605 975 575Z" style="fill:#ffc83d;stroke:none" transform="scale(1,-1) translate(0,-256)" /></svg>