<?xml version="1.0" encoding="utf-8" ?>
<svg baseProfile="full" height="256" version="1.1" width="256" xmlns="http://www.w3.org/2000/svg" xmlns:ev="http://www.w3.org/2001/xml-events" xmlns:xlink="http://www.w3.org/1999/xlink"><defs /><path d="M747 -431H400V-287H346L256 1150H678L696 863Q742 863 788.0 863.5Q834 864 880 864Q910 864 939.5 850.5Q969 837 996.0 816.0Q1023 795 1044.5 769.0Q1066 743 1080 719H2125Q2172 719 2213.5 700.0Q2255 681 2286 646Q2328 643 2364.0 624.5Q2400 606 2427.0 577.0Q2454 548 2469.0 510.5Q2484 473 2484 431V288H2556V-287H2484V-431H2137L1993 -287H890Z" style="fill:#000000;stroke:none" transform="scale(1,-1) translate(0,-256)" /></svg>