<?xml version="1.0" encoding="utf-8" ?>
<svg baseProfile="full" height="256" version="1.1" width="256" xmlns="http://www.w3.org/2000/svg" xmlns:ev="http://www.w3.org/2001/xml-events" xmlns:xlink="http://www.w3.org/1999/xlink"><defs /><path d="M2486 296Q2513 252 2534.5 207.5Q2556 163 2556 109Q2556 40 2523.0 -18.0Q2490 -76 2430 -110L1926 -398Q1869 -431 1801 -431Q1769 -431 1737.5 -422.5Q1706 -414 1678 -397Q1546 -431 1406 -431Q1266 -431 1134 -397Q1106 -414 1074.5 -422.5Q1043 -431 1011 -431Q943 -431 885 -398L382 -110Q322 -76 289.0 -18.0Q256 40 256 109Q256 163 277.5 207.5Q299 252 326 296L333 308Q295 407 275.5 510.0Q256 613 256 719Q256 878 297.0 1025.0Q338 1172 413.0 1299.5Q488 1427 593.0 1532.0Q698 1637 825.5 1712.0Q953 1787 1100.0 1828.0Q1247 1869 1406 1869Q1565 1869 1712.0 1828.0Q1859 1787 1986.5 1712.0Q2114 1637 2219.0 1532.0Q2324 1427 2399.0 1299.5Q2474 1172 2515.0 1025.0Q2556 878 2556 719Q2556 613 2536.5 510.0Q2517 407 2479 308Z" style="fill:#000000;stroke:none" transform="scale(1,-1) translate(0,-256)" /></svg>