<?xml version="1.0" encoding="utf-8" ?>
<svg baseProfile="full" height="256" version="1.1" width="256" xmlns="http://www.w3.org/2000/svg" xmlns:ev="http://www.w3.org/2001/xml-events" xmlns:xlink="http://www.w3.org/1999/xlink"><defs /><path d="M1836 863Q1865 863 1886.5 841.5Q1908 820 1908 791Q1908 780 1905.5 772.0Q1903 764 1898 754Q1863 690 1809.0 638.5Q1755 587 1689.0 550.5Q1623 514 1550.5 494.5Q1478 475 1406 475Q1334 475 1261.0 494.5Q1188 514 1122.0 550.5Q1056 587 1001.5 638.5Q947 690 913 754Q908 764 905.5 772.0Q903 780 903 791Q903 820 924.5 841.5Q946 863 975 863Q998 863 1010.5 854.0Q1023 845 1036 828Q1050 811 1062.0 793.0Q1074 775 1088 758Q1116 725 1153.0 699.0Q1190 673 1232.0 655.0Q1274 637 1318.0 628.0Q1362 619 1406 619Q1449 619 1493.5 628.5Q1538 638 1579.5 655.5Q1621 673 1657.5 699.0Q1694 725 1723 758Q1737 775 1749.0 793.0Q1761 811 1775 828Q1788 845 1800.5 854.0Q1813 863 1836 863ZM1801 1366Q1853 1366 1899.0 1346.0Q1945 1326 1979.0 1292.0Q2013 1258 2033.0 1212.0Q2053 1166 2053 1114V1078H1981Q1981 1115 1967.0 1148.0Q1953 1181 1928.5 1205.5Q1904 1230 1871.0 1244.0Q1838 1258 1801 1258Q1763 1258 1730.5 1244.0Q1698 1230 1674.0 1205.5Q1650 1181 1636.0 1148.0Q1622 1115 1622 1078H1550V1114Q1550 1166 1569.5 1212.0Q1589 1258 1623.0 1292.0Q1657 1326 1703.0 1346.0Q1749 1366 1801 1366ZM1190 1078Q1190 1115 1176.0 1148.0Q1162 1181 1138.0 1205.5Q1114 1230 1081.0 1244.0Q1048 1258 1011 1258Q973 1258 940.5 1244.0Q908 1230 883.5 1205.5Q859 1181 845.0 1148.0Q831 1115 831 1078H759V1114Q759 1166 779.0 1212.0Q799 1258 833.0 1292.0Q867 1326 913.0 1346.0Q959 1366 1011 1366Q1063 1366 1109.0 1346.0Q1155 1326 1189.0 1292.0Q1223 1258 1242.5 1212.0Q1262 1166 1262 1114V1078Z" style="fill:#000000;stroke:none" transform="scale(1,-1) translate(0,-256)" /></svg>