<?xml version="1.0" encoding="utf-8" ?>
<svg baseProfile="full" height="256" version="1.1" width="256" xmlns="http://www.w3.org/2000/svg" xmlns:ev="http://www.w3.org/2001/xml-events" xmlns:xlink="http://www.w3.org/1999/xlink"><defs /><path d="M2196 403Q2225 403 2250.5 388.5Q2276 374 2290 349L2398 162Q2405 150 2409.0 136.0Q2413 122 2413 108Q2413 47 2358 15L1855 -273Q1843 -280 1829.5 -284.0Q1816 -288 1802 -288Q1779 -288 1759.5 -279.5Q1740 -271 1725.5 -256.0Q1711 -241 1702.5 -221.5Q1694 -202 1694 -179V324Q1694 346 1702.5 366.0Q1711 386 1725.5 400.0Q1740 414 1759.5 422.5Q1779 431 1801 431Q1823 431 1842.5 422.5Q1862 414 1877.0 400.0Q1892 386 1900.5 366.0Q1909 346 1909 324V255L2143 388Q2155 395 2168.5 399.0Q2182 403 2196 403ZM1011 431Q1033 431 1052.5 422.5Q1072 414 1087.0 399.5Q1102 385 1110.5 365.5Q1119 346 1119 324V-179Q1119 -202 1110.5 -221.5Q1102 -241 1087.0 -256.0Q1072 -271 1052.0 -279.5Q1032 -288 1010 -288Q996 -288 982.5 -284.0Q969 -280 957 -273L454 15Q399 47 399 108Q399 122 403.0 136.0Q407 150 414 162L522 349Q536 374 561.5 388.5Q587 403 616 403Q630 403 643.5 399.0Q657 395 669 388L903 255V324Q903 346 911.5 366.0Q920 386 935.0 400.0Q950 414 969.5 422.5Q989 431 1011 431Z" style="fill:#d48c00;stroke:none" transform="scale(1,-1) translate(0,-256)" /></svg>