<?xml version="1.0" encoding="utf-8" ?>
<svg baseProfile="full" height="256" version="1.1" width="256" xmlns="http://www.w3.org/2000/svg" xmlns:ev="http://www.w3.org/2001/xml-events" xmlns:xlink="http://www.w3.org/1999/xlink"><defs /><path d="M1693 1294H1981Q1981 1264 1969.5 1238.0Q1958 1212 1938.5 1192.5Q1919 1173 1893.0 1161.5Q1867 1150 1837 1150Q1807 1150 1781.0 1161.5Q1755 1173 1735.5 1192.5Q1716 1212 1704.5 1238.0Q1693 1264 1693 1294ZM1123 892 1377 1146Q1402 1121 1415.5 1087.5Q1429 1054 1429 1019Q1429 982 1415.0 949.0Q1401 916 1376.5 891.5Q1352 867 1319.5 853.0Q1287 839 1250 839Q1215 839 1181.5 853.0Q1148 867 1123 892Z" style="fill:#af0d1a;stroke:none" transform="scale(1,-1) translate(0,-256)" /></svg>