<?xml version="1.0" encoding="utf-8" ?>
<svg baseProfile="full" height="256" version="1.1" width="256" xmlns="http://www.w3.org/2000/svg" xmlns:ev="http://www.w3.org/2001/xml-events" xmlns:xlink="http://www.w3.org/1999/xlink"><defs /><path d="M1859 791H1909Q1939 791 1965.0 779.5Q1991 768 2010.5 748.5Q2030 729 2041.5 703.0Q2053 677 2053 647Q2053 617 2041.5 591.0Q2030 565 2010.5 545.5Q1991 526 1965.0 514.5Q1939 503 1909 503H903Q873 503 847.0 514.5Q821 526 801.5 545.5Q782 565 770.5 591.0Q759 617 759 647Q759 677 770.5 703.0Q782 729 801.5 748.5Q821 768 847.0 779.5Q873 791 903 791H953Q932 812 913.0 830.5Q894 849 879.5 869.5Q865 890 856.0 914.0Q847 938 847 970Q847 1007 861.0 1040.0Q875 1073 899.5 1097.5Q924 1122 956.5 1136.0Q989 1150 1027 1150Q1068 1150 1099.5 1134.0Q1131 1118 1157.5 1094.0Q1184 1070 1208.5 1042.5Q1233 1015 1261.5 991.0Q1290 967 1324.5 951.0Q1359 935 1406 935Q1452 935 1487.0 951.0Q1522 967 1550.0 991.0Q1578 1015 1602.5 1042.5Q1627 1070 1653.5 1094.0Q1680 1118 1711.5 1134.0Q1743 1150 1785 1150Q1822 1150 1854.5 1136.0Q1887 1122 1911.5 1097.5Q1936 1073 1950.0 1040.0Q1964 1007 1964 970Q1964 938 1955.5 914.0Q1947 890 1932.5 869.5Q1918 849 1899.0 830.5Q1880 812 1859 791Z" style="fill:#79db75;stroke:none" transform="scale(1,-1) translate(0,-256)" /></svg>