<?xml version="1.0" encoding="utf-8" ?>
<svg baseProfile="full" height="256" version="1.1" width="256" xmlns="http://www.w3.org/2000/svg" xmlns:ev="http://www.w3.org/2001/xml-events" xmlns:xlink="http://www.w3.org/1999/xlink"><defs /><path d="M765 438 442 761Q400 803 400 862Q400 892 411.0 918.0Q422 944 441.5 963.5Q461 983 487.0 994.5Q513 1006 543 1006Q575 1006 597.0 995.0Q619 984 636.0 971.0Q653 958 668.5 947.0Q684 936 704 936Q728 936 743.5 954.5Q759 973 759 996Q759 1021 741 1039L586 1192Q566 1212 554.5 1238.5Q543 1265 543 1294Q543 1324 554.5 1350.0Q566 1376 585.5 1395.5Q605 1415 631.0 1426.5Q657 1438 687 1438Q716 1438 742.5 1427.0Q769 1416 789 1396L948 1237Q963 1222 986 1222Q1011 1222 1029.0 1240.0Q1047 1258 1047 1283V1510Q1047 1540 1058.0 1566.0Q1069 1592 1088.5 1611.5Q1108 1631 1134.0 1642.0Q1160 1653 1190 1653Q1220 1653 1246.0 1642.0Q1272 1631 1291.5 1611.5Q1311 1592 1322.5 1566.0Q1334 1540 1334 1510V1366Q1334 1336 1355.0 1315.0Q1376 1294 1406 1294Q1436 1294 1457.0 1315.0Q1478 1336 1478 1366V1510Q1478 1540 1489.5 1566.0Q1501 1592 1520.5 1611.5Q1540 1631 1566.0 1642.0Q1592 1653 1622 1653Q1652 1653 1678.0 1642.0Q1704 1631 1723.5 1611.5Q1743 1592 1754.0 1566.0Q1765 1540 1765 1510V1283Q1765 1257 1782.5 1239.5Q1800 1222 1826 1222Q1849 1222 1864 1237L2023 1396Q2065 1438 2124 1438Q2154 1438 2180.0 1426.5Q2206 1415 2225.5 1395.5Q2245 1376 2256.5 1350.0Q2268 1324 2268 1294Q2268 1265 2257.0 1238.5Q2246 1212 2226 1192L2071 1039Q2053 1021 2053 996Q2053 973 2068.5 954.5Q2084 936 2108 936Q2127 936 2143.0 947.0Q2159 958 2176.0 971.0Q2193 984 2214.5 995.0Q2236 1006 2268 1006Q2298 1006 2324.0 994.5Q2350 983 2369.5 963.5Q2389 944 2400.5 918.0Q2412 892 2412 862Q2412 803 2370 761L2047 438Z" style="fill:#13a10e;stroke:none" transform="scale(1,-1) translate(0,-256)" /></svg>