<?xml version="1.0" encoding="utf-8" ?>
<svg baseProfile="full" height="256" version="1.1" width="256" xmlns="http://www.w3.org/2000/svg" xmlns:ev="http://www.w3.org/2001/xml-events" xmlns:xlink="http://www.w3.org/1999/xlink"><defs /><path d="M687 1150Q717 1150 743.0 1138.5Q769 1127 788.5 1107.5Q808 1088 819.5 1062.0Q831 1036 831 1006Q831 976 819.5 950.0Q808 924 788.5 904.5Q769 885 743.0 874.0Q717 863 687 863Q657 863 631.0 874.0Q605 885 585.5 904.5Q566 924 554.5 950.0Q543 976 543 1006Q543 1036 554.5 1062.0Q566 1088 585.5 1107.5Q605 1127 631.0 1138.5Q657 1150 687 1150Z" style="fill:#eba300;stroke:none" transform="scale(1,-1) translate(0,-256)" /></svg>