<?xml version="1.0" encoding="utf-8" ?>
<svg baseProfile="full" height="256" version="1.1" width="256" xmlns="http://www.w3.org/2000/svg" xmlns:ev="http://www.w3.org/2001/xml-events" xmlns:xlink="http://www.w3.org/1999/xlink"><defs /><path d="M2340 647Q2370 647 2391.0 626.0Q2412 605 2412 575V431Q2412 395 2409 359L2324 279Q2351 244 2379 216Q2344 103 2276.5 10.5Q2209 -82 2118.5 -148.0Q2028 -214 1919.0 -250.5Q1810 -287 1693 -287H1118Q1001 -287 892.0 -250.5Q783 -214 693.0 -148.0Q603 -82 535.5 10.5Q468 103 433 215L502 288Q476 305 451.0 322.5Q426 340 403 360Q400 396 400 431V575Q400 605 421.0 626.0Q442 647 472 647Z" style="fill:#ffffff;stroke:none" transform="scale(1,-1) translate(0,-256)" /></svg>