<?xml version="1.0" encoding="utf-8" ?>
<svg baseProfile="full" height="256" version="1.1" width="256" xmlns="http://www.w3.org/2000/svg" xmlns:ev="http://www.w3.org/2001/xml-events" xmlns:xlink="http://www.w3.org/1999/xlink"><defs /><path d="M1693 863Q1723 863 1749.0 851.5Q1775 840 1794.5 820.5Q1814 801 1825.5 775.0Q1837 749 1837 719Q1837 689 1825.5 663.0Q1814 637 1794.5 617.5Q1775 598 1749.0 586.5Q1723 575 1693 575Q1663 575 1637.0 586.5Q1611 598 1591.5 617.5Q1572 637 1561.0 663.0Q1550 689 1550 719Q1550 749 1561.0 775.0Q1572 801 1591.5 820.5Q1611 840 1637.0 851.5Q1663 863 1693 863Z" style="fill:#ffb900;stroke:none" transform="scale(1,-1) translate(0,-256)" /></svg>