<?xml version="1.0" encoding="utf-8" ?>
<svg baseProfile="full" height="256" version="1.1" width="256" xmlns="http://www.w3.org/2000/svg" xmlns:ev="http://www.w3.org/2001/xml-events" xmlns:xlink="http://www.w3.org/1999/xlink"><defs /><path d="M2364 1134Q2407 1119 2442.5 1092.0Q2478 1065 2503.5 1029.5Q2529 994 2542.5 951.5Q2556 909 2556 863V431Q2556 312 2525.0 202.0Q2494 92 2438.0 -3.5Q2382 -99 2303.0 -178.0Q2224 -257 2128.0 -313.0Q2032 -369 1922.0 -400.0Q1812 -431 1693 -431H1118Q999 -431 889.0 -400.0Q779 -369 683.5 -313.0Q588 -257 509.0 -178.0Q430 -99 374.0 -3.5Q318 92 287.0 202.0Q256 312 256 431V863Q256 904 268.0 944.0Q280 984 302.0 1018.0Q324 1052 355.0 1079.0Q386 1106 425 1122L440 1150Q421 1183 411.0 1220.5Q401 1258 401 1296Q401 1355 423.5 1407.0Q446 1459 485.0 1497.5Q524 1536 576.0 1558.5Q628 1581 687 1581Q745 1581 799.5 1558.5Q854 1536 894 1494L903 1505Q903 1565 925.0 1618.5Q947 1672 985.5 1711.5Q1024 1751 1076.5 1774.0Q1129 1797 1190 1797Q1253 1797 1308.5 1771.5Q1364 1746 1406 1700Q1448 1746 1503.5 1771.5Q1559 1797 1622 1797Q1681 1797 1733.5 1774.5Q1786 1752 1825.0 1713.0Q1864 1674 1886.5 1621.5Q1909 1569 1909 1510H1935Q1974 1545 2023.5 1563.0Q2073 1581 2125 1581Q2185 1581 2237.0 1558.5Q2289 1536 2328.0 1497.0Q2367 1458 2389.5 1406.0Q2412 1354 2412 1294Q2412 1252 2399.5 1210.5Q2387 1169 2364 1134Z" style="fill:#000000;stroke:none" transform="scale(1,-1) translate(0,-256)" /></svg>