<?xml version="1.0" encoding="utf-8" ?>
<svg baseProfile="full" height="256" version="1.1" width="256" xmlns="http://www.w3.org/2000/svg" xmlns:ev="http://www.w3.org/2001/xml-events" xmlns:xlink="http://www.w3.org/1999/xlink"><defs /><path d="M1622 1294H1694L1841 1233L1981 1294H2053Q2053 1249 2036.0 1210.0Q2019 1171 1989.5 1141.5Q1960 1112 1921.0 1095.0Q1882 1078 1837 1078Q1792 1078 1753.0 1095.0Q1714 1112 1685.0 1141.5Q1656 1171 1639.0 1210.0Q1622 1249 1622 1294ZM1047 816 1123 892 1312 978 1377 1146 1453 1222Q1494 1181 1515.5 1128.5Q1537 1076 1537 1019Q1537 960 1514.0 908.0Q1491 856 1452.0 816.5Q1413 777 1360.5 754.0Q1308 731 1250 731Q1193 731 1140.5 753.0Q1088 775 1047 816ZM1190 1330Q1190 1308 1181.5 1288.5Q1173 1269 1159.0 1254.0Q1145 1239 1125.0 1230.5Q1105 1222 1083 1222Q1060 1222 1040.5 1230.5Q1021 1239 1006.5 1253.5Q992 1268 983.5 1287.5Q975 1307 975 1330Q975 1352 983.5 1371.5Q992 1391 1007.0 1406.0Q1022 1421 1041.5 1429.5Q1061 1438 1083 1438Q1105 1438 1124.5 1429.5Q1144 1421 1158.5 1406.0Q1173 1391 1181.5 1371.5Q1190 1352 1190 1330Z" style="fill:#ef6950;stroke:none" transform="scale(1,-1) translate(0,-256)" /></svg>