<?xml version="1.0" encoding="utf-8" ?>
<svg baseProfile="full" height="256" version="1.1" width="256" xmlns="http://www.w3.org/2000/svg" xmlns:ev="http://www.w3.org/2001/xml-events" xmlns:xlink="http://www.w3.org/1999/xlink"><defs /><path d="M903 0H1118V-179Q1118 -201 1109.5 -220.5Q1101 -240 1087.0 -255.0Q1073 -270 1053.0 -278.5Q1033 -287 1011 -287Q988 -287 968.5 -278.5Q949 -270 934.5 -255.5Q920 -241 911.5 -221.5Q903 -202 903 -179ZM1586 -72Q1608 -72 1627.5 -80.5Q1647 -89 1661.5 -103.5Q1676 -118 1684.5 -137.5Q1693 -157 1693 -179V-287H1478V-179Q1478 -157 1486.5 -137.0Q1495 -117 1510.0 -103.0Q1525 -89 1544.5 -80.5Q1564 -72 1586 -72Z" style="fill:#ca5010;stroke:none" transform="scale(1,-1) translate(0,-256)" /></svg>