<?xml version="1.0" encoding="utf-8" ?>
<svg baseProfile="full" height="256" version="1.1" width="256" xmlns="http://www.w3.org/2000/svg" xmlns:ev="http://www.w3.org/2001/xml-events" xmlns:xlink="http://www.w3.org/1999/xlink"><defs /><path d="M994 1601Q1016 1580 1038.0 1558.5Q1060 1537 1078.0 1513.5Q1096 1490 1107.0 1462.5Q1118 1435 1118 1402Q1118 1365 1104.0 1332.5Q1090 1300 1066.0 1275.5Q1042 1251 1009.5 1237.0Q977 1223 940 1223Q881 1223 831 1259L759 1489ZM1514 1725Q1536 1725 1556.0 1716.5Q1576 1708 1590.5 1693.5Q1605 1679 1613.5 1659.0Q1622 1639 1622 1617Q1622 1594 1613.5 1574.5Q1605 1555 1590.0 1541.0Q1575 1527 1555.5 1518.5Q1536 1510 1514 1510Q1492 1510 1474 1517Q1465 1482 1435.5 1460.0Q1406 1438 1370 1438Q1348 1438 1328.5 1446.5Q1309 1455 1294.0 1470.0Q1279 1485 1270.5 1504.5Q1262 1524 1262 1546Q1262 1568 1270.5 1587.5Q1279 1607 1294.0 1621.5Q1309 1636 1328.5 1644.5Q1348 1653 1370 1653Q1389 1653 1410 1645Q1420 1680 1448.5 1702.5Q1477 1725 1514 1725Z" style="fill:#ffc83d;stroke:none" transform="scale(1,-1) translate(0,-256)" /></svg>