<?xml version="1.0" encoding="utf-8" ?>
<svg baseProfile="full" height="256" version="1.1" width="256" xmlns="http://www.w3.org/2000/svg" xmlns:ev="http://www.w3.org/2001/xml-events" xmlns:xlink="http://www.w3.org/1999/xlink"><defs /><path d="M1784 1514Q1797 1491 1810.5 1468.5Q1824 1446 1835.5 1423.0Q1847 1400 1854.0 1375.0Q1861 1350 1861 1323Q1861 1270 1837.5 1223.5Q1814 1177 1771 1147Q1803 1081 1820.0 1009.0Q1837 937 1837 863V-431H1334V64L1262 -43V-179Q1262 -231 1242.0 -276.5Q1222 -322 1188.0 -356.5Q1154 -391 1108.5 -411.0Q1063 -431 1011 -431Q959 -431 913.0 -411.0Q867 -391 833.0 -357.0Q799 -323 779.0 -277.0Q759 -231 759 -179V44L1047 475V821Q987 849 938.0 895.0Q889 941 863 1002L687 905V791Q687 747 670.0 708.0Q653 669 623.5 639.5Q594 610 555.0 592.5Q516 575 472 575Q427 575 388.0 592.0Q349 609 319.5 638.5Q290 668 273.0 707.0Q256 746 256 791V951Q256 976 261.5 1002.5Q267 1029 278.5 1052.5Q290 1076 307.5 1095.5Q325 1115 348 1128L612 1274Q579 1317 561.5 1368.0Q544 1419 544 1473Q544 1540 569.5 1599.0Q595 1658 639.0 1702.0Q683 1746 741.5 1771.5Q800 1797 867 1797Q915 1797 952.0 1786.5Q989 1776 1021.0 1757.5Q1053 1739 1082.5 1712.5Q1112 1686 1144 1655Q1172 1712 1222.5 1749.0Q1273 1786 1336 1795Q1371 1830 1417.5 1849.5Q1464 1869 1514 1869Q1576 1869 1631 1840Q1654 1854 1679.0 1861.5Q1704 1869 1730 1869Q1767 1869 1799.5 1855.0Q1832 1841 1856.5 1816.5Q1881 1792 1895.0 1759.5Q1909 1727 1909 1690Q1909 1625 1874.0 1583.5Q1839 1542 1784 1514Z" style="fill:#000000;stroke:none" transform="scale(1,-1) translate(0,-256)" /></svg>