<?xml version="1.0" encoding="utf-8" ?>
<svg baseProfile="full" height="256" version="1.1" width="256" xmlns="http://www.w3.org/2000/svg" xmlns:ev="http://www.w3.org/2001/xml-events" xmlns:xlink="http://www.w3.org/1999/xlink"><defs /><path d="M1274 1395 543 989V791Q543 762 522.0 740.5Q501 719 472 719Q442 719 421.0 740.0Q400 761 400 791V954Q400 965 403.5 980.5Q407 996 418 1002L1239 1458ZM1538 1582Q1580 1582 1600 1546L1708 1359Q1718 1341 1718 1323Q1718 1282 1682 1261L1370 1081Q1352 1071 1334 1071Q1305 1071 1283.5 1092.5Q1262 1114 1262 1143Q1262 1184 1298 1205L1547 1349L1476 1474Q1466 1492 1466 1510Q1466 1539 1487.5 1560.5Q1509 1582 1538 1582Z" style="fill:#cccccc;stroke:none" transform="scale(1,-1) translate(0,-256)" /></svg>