<?xml version="1.0" encoding="utf-8" ?>
<svg baseProfile="full" height="256" version="1.1" width="256" xmlns="http://www.w3.org/2000/svg" xmlns:ev="http://www.w3.org/2001/xml-events" xmlns:xlink="http://www.w3.org/1999/xlink"><defs /><path d="M797 360Q832 360 865.0 374.0Q898 388 924 412L975 361Q940 326 893.5 307.0Q847 288 797 288Q724 288 662.5 326.5Q601 365 569 431H473V503H548Q545 521 545 539Q545 557 548 575H473V647H569Q585 680 609.0 706.5Q633 733 662.5 752.0Q692 771 726.0 781.0Q760 791 797 791Q847 791 893.5 771.5Q940 752 975 717L924 666Q871 719 797 719Q754 719 716.5 700.0Q679 681 653 647H833V575H621Q617 559 617 539Q617 519 621 503H833V431H653Q679 398 717.0 379.0Q755 360 797 360Z" style="fill:#757575;stroke:none" transform="scale(1,-1) translate(0,-256)" /></svg>