<?xml version="1.0" encoding="utf-8" ?>
<svg baseProfile="full" height="256" version="1.1" width="256" xmlns="http://www.w3.org/2000/svg" xmlns:ev="http://www.w3.org/2001/xml-events" xmlns:xlink="http://www.w3.org/1999/xlink"><defs /><path d="M1687 473V574Q1714 553 1745.5 540.5Q1777 528 1812 528Q1823 528 1836.5 530.0Q1850 532 1861.5 537.0Q1873 542 1881.0 551.0Q1889 560 1889 574Q1889 594 1874.0 607.0Q1859 620 1836.0 631.0Q1813 642 1787.0 653.5Q1761 665 1738.0 681.5Q1715 698 1700.0 722.0Q1685 746 1685 782Q1685 819 1701.0 844.5Q1717 870 1742.5 886.0Q1768 902 1799.5 909.0Q1831 916 1863 916Q1892 916 1920.5 913.0Q1949 910 1976 899V804Q1956 820 1925.0 828.0Q1894 836 1869 836Q1858 836 1845.0 834.0Q1832 832 1820.5 827.0Q1809 822 1801.0 813.0Q1793 804 1793 790Q1793 771 1808.0 758.5Q1823 746 1845.5 735.5Q1868 725 1894.5 714.0Q1921 703 1943.5 686.0Q1966 669 1981.0 644.5Q1996 620 1996 583Q1996 544 1980.5 518.0Q1965 492 1940.0 476.5Q1915 461 1882.5 454.5Q1850 448 1817 448Q1784 448 1751.0 453.5Q1718 459 1687 473ZM1404 448Q1353 448 1312.5 465.0Q1272 482 1243.5 512.5Q1215 543 1199.5 584.5Q1184 626 1184 676Q1184 728 1199.5 772.0Q1215 816 1244.0 848.0Q1273 880 1315.0 898.0Q1357 916 1411 916Q1462 916 1502.5 898.5Q1543 881 1571.0 850.0Q1599 819 1613.5 776.5Q1628 734 1628 685Q1628 634 1612.5 591.0Q1597 548 1568.0 516.0Q1539 484 1497.5 466.0Q1456 448 1404 448ZM1408 828Q1377 828 1355.0 815.5Q1333 803 1318.5 782.5Q1304 762 1297.5 735.5Q1291 709 1291 682Q1291 655 1297.5 629.0Q1304 603 1317.5 582.5Q1331 562 1352.5 549.0Q1374 536 1405 536Q1436 536 1458.0 548.0Q1480 560 1494.0 580.5Q1508 601 1514.0 627.0Q1520 653 1520 680Q1520 707 1514.5 733.5Q1509 760 1495.5 781.0Q1482 802 1460.5 815.0Q1439 828 1408 828ZM824 473V574Q850 552 882.5 540.0Q915 528 949 528Q960 528 973.0 530.0Q986 532 997.5 537.0Q1009 542 1017.0 551.0Q1025 560 1025 574Q1025 594 1010.0 607.0Q995 620 972.5 631.0Q950 642 923.5 652.5Q897 663 874.5 679.5Q852 696 837.0 720.5Q822 745 822 782Q822 819 838.0 844.5Q854 870 879.5 886.0Q905 902 936.5 909.0Q968 916 1000 916Q1029 916 1057.5 913.0Q1086 910 1113 899V804Q1090 821 1062.0 828.5Q1034 836 1006 836Q995 836 982.0 834.0Q969 832 957.0 827.0Q945 822 937.0 813.0Q929 804 929 790Q929 771 944.0 759.0Q959 747 982.0 736.0Q1005 725 1031.0 714.0Q1057 703 1080.0 686.0Q1103 669 1118.0 644.5Q1133 620 1133 583Q1133 544 1117.0 518.5Q1101 493 1075.5 477.0Q1050 461 1018.0 454.5Q986 448 953 448Q920 448 887.0 453.0Q854 458 824 473Z" style="fill:#ffffff;stroke:none" transform="scale(1,-1) translate(0,-256)" /></svg>