<?xml version="1.0" encoding="utf-8" ?>
<svg baseProfile="full" height="256" version="1.1" width="256" xmlns="http://www.w3.org/2000/svg" xmlns:ev="http://www.w3.org/2001/xml-events" xmlns:xlink="http://www.w3.org/1999/xlink"><defs /><path d="M2032 503H2233Q2247 503 2257.5 492.0Q2268 481 2268 467Q2268 453 2257.5 442.0Q2247 431 2233 431H1945Q1931 431 1920.0 442.0Q1909 453 1909 467Q1909 504 1895.0 537.0Q1881 570 1856.5 594.5Q1832 619 1799.0 633.0Q1766 647 1729 647H1660L2000 216H1909L1550 671Q1550 725 1568.5 773.0Q1587 821 1620.0 857.0Q1653 893 1699.0 914.0Q1745 935 1801 935Q1816 935 1826.5 924.5Q1837 914 1837 899Q1837 884 1826.5 873.5Q1816 863 1801 863Q1769 863 1740.0 852.0Q1711 841 1688.0 822.0Q1665 803 1648.5 776.5Q1632 750 1626 719H1689Q1720 719 1748.5 717.0Q1777 715 1804.5 707.0Q1832 699 1858.0 683.5Q1884 668 1909 642V827Q1909 842 1919.5 852.5Q1930 863 1945 863Q1960 863 1970.5 852.5Q1981 842 1981 827V554L2135 708Q2145 718 2160 718Q2175 718 2185.5 708.0Q2196 698 2196 683Q2196 668 2186 658Z" style="fill:#d48c00;stroke:none" transform="scale(1,-1) translate(0,-256)" /></svg>