<?xml version="1.0" encoding="utf-8" ?>
<svg baseProfile="full" height="256" version="1.1" width="256" xmlns="http://www.w3.org/2000/svg" xmlns:ev="http://www.w3.org/2001/xml-events" xmlns:xlink="http://www.w3.org/1999/xlink"><defs /><path d="M2197 1150Q2242 1150 2281.0 1133.0Q2320 1116 2349.0 1087.0Q2378 1058 2395.0 1019.0Q2412 980 2412 935V431Q2412 386 2395.0 347.0Q2378 308 2349.0 279.0Q2320 250 2281.0 233.0Q2242 216 2197 216H2000L1936 242L1909 216Q1925 200 1933.5 179.0Q1942 158 1942 135Q1942 108 1932.0 84.0Q1922 60 1904.5 41.0Q1887 22 1863.0 11.0Q1839 0 1812 0Q1787 0 1764.0 10.0Q1741 20 1724 37L1545 216H1478Q1419 216 1367.0 239.0Q1315 262 1275.5 301.0Q1236 340 1213.0 392.0Q1190 444 1190 503H472Q442 503 421.0 524.0Q400 545 400 575V1078Q400 1108 421.0 1129.0Q442 1150 472 1150Z" style="fill:#ffc83d;stroke:none" transform="scale(1,-1) translate(0,-256)" /></svg>