<?xml version="1.0" encoding="utf-8" ?>
<svg baseProfile="full" height="256" version="1.1" width="256" xmlns="http://www.w3.org/2000/svg" xmlns:ev="http://www.w3.org/2001/xml-events" xmlns:xlink="http://www.w3.org/1999/xlink"><defs /><path d="M1812 -144Q1757 -144 1712.5 -123.5Q1668 -103 1629.0 -71.5Q1590 -40 1555.0 -1.5Q1520 37 1485 72Q1415 72 1350.5 92.0Q1286 112 1232.0 149.5Q1178 187 1136.5 240.5Q1095 294 1071 360H472Q427 360 388.0 377.0Q349 394 319.5 423.0Q290 452 273.0 491.0Q256 530 256 575V1078Q256 1123 273.0 1162.0Q290 1201 319.5 1230.5Q349 1260 388.0 1277.0Q427 1294 472 1294H2197Q2271 1294 2336.5 1265.5Q2402 1237 2450.5 1188.5Q2499 1140 2527.5 1074.5Q2556 1009 2556 935V431Q2556 357 2527.5 291.5Q2499 226 2450.5 177.5Q2402 129 2336.5 100.5Q2271 72 2197 72H2078Q2067 25 2042.5 -14.5Q2018 -54 1982.5 -82.5Q1947 -111 1903.5 -127.5Q1860 -144 1812 -144Z" style="fill:#000000;stroke:none" transform="scale(1,-1) translate(0,-256)" /></svg>