<?xml version="1.0" encoding="utf-8" ?>
<svg baseProfile="full" height="256" version="1.1" width="256" xmlns="http://www.w3.org/2000/svg" xmlns:ev="http://www.w3.org/2001/xml-events" xmlns:xlink="http://www.w3.org/1999/xlink"><defs /><path d="M687 1006Q716 1006 737.5 985.0Q759 964 759 935V503Q759 474 737.5 452.5Q716 431 687 431Q658 431 636.5 452.5Q615 474 615 503V935Q615 964 636.5 985.0Q658 1006 687 1006ZM615 1366V1725H759V1366Q759 1336 738.0 1315.0Q717 1294 687 1294Q657 1294 636.0 1315.0Q615 1336 615 1366ZM687 144Q717 144 738.0 123.0Q759 102 759 72V-287H615V72Q615 102 636.0 123.0Q657 144 687 144ZM1406 575Q1436 575 1457.0 554.0Q1478 533 1478 503V72Q1478 42 1457.0 21.0Q1436 0 1406 0Q1376 0 1355.0 21.0Q1334 42 1334 72V503Q1334 533 1355.0 554.0Q1376 575 1406 575ZM1406 1438Q1436 1438 1457.0 1417.0Q1478 1396 1478 1366V935Q1478 905 1457.0 884.0Q1436 863 1406 863Q1376 863 1355.0 884.0Q1334 905 1334 935V1366Q1334 1396 1355.0 1417.0Q1376 1438 1406 1438Z" style="fill:#cccccc;stroke:none" transform="scale(1,-1) translate(0,-256)" /></svg>