<?xml version="1.0" encoding="utf-8" ?>
<svg baseProfile="full" height="256" version="1.1" width="256" xmlns="http://www.w3.org/2000/svg" xmlns:ev="http://www.w3.org/2001/xml-events" xmlns:xlink="http://www.w3.org/1999/xlink"><defs /><path d="M1837 1438Q1837 1352 1799.5 1276.5Q1762 1201 1693 1150Q1762 1099 1799.5 1023.5Q1837 948 1837 863V575Q1837 490 1799.5 414.5Q1762 339 1693 288Q1762 237 1799.5 161.5Q1837 86 1837 0V-431H472V-185Q424 -164 384.0 -130.0Q344 -96 315.5 -52.5Q287 -9 271.5 41.0Q256 91 256 144V431Q256 516 294.0 592.0Q332 668 400 719Q332 770 294.0 845.5Q256 921 256 1006V1294Q256 1347 271.5 1397.0Q287 1447 315.5 1490.5Q344 1534 384.0 1568.0Q424 1602 472 1623V1869H1837Z" style="fill:#000000;stroke:none" transform="scale(1,-1) translate(0,-256)" /></svg>