<?xml version="1.0" encoding="utf-8" ?>
<svg baseProfile="full" height="256" version="1.1" width="256" xmlns="http://www.w3.org/2000/svg" xmlns:ev="http://www.w3.org/2001/xml-events" xmlns:xlink="http://www.w3.org/1999/xlink"><defs /><path d="M759 1510Q804 1510 843.0 1493.0Q882 1476 911.5 1446.5Q941 1417 958.0 1378.0Q975 1339 975 1294V1006Q975 961 958.0 922.0Q941 883 911.5 854.0Q882 825 843.0 808.0Q804 791 759 791H615Q570 791 531.0 808.0Q492 825 463.0 854.0Q434 883 417.0 922.0Q400 961 400 1006V1294Q400 1339 417.0 1378.0Q434 1417 463.0 1446.5Q492 1476 531.0 1493.0Q570 1510 615 1510ZM759 647Q804 647 843.0 630.0Q882 613 911.5 583.5Q941 554 958.0 515.0Q975 476 975 431V144Q975 99 958.0 60.0Q941 21 911.5 -8.5Q882 -38 843.0 -55.0Q804 -72 759 -72H615Q570 -72 531.0 -55.0Q492 -38 463.0 -8.5Q434 21 417.0 60.0Q400 99 400 144V431Q400 476 417.0 515.0Q434 554 463.0 583.5Q492 613 531.0 630.0Q570 647 615 647ZM1478 1078Q1523 1078 1562.0 1061.0Q1601 1044 1630.0 1015.0Q1659 986 1676.0 947.0Q1693 908 1693 863V575Q1693 530 1676.0 491.0Q1659 452 1630.0 423.0Q1601 394 1562.0 377.0Q1523 360 1478 360H1334Q1289 360 1250.0 377.0Q1211 394 1181.5 423.0Q1152 452 1135.0 491.0Q1118 530 1118 575V863Q1118 908 1135.0 947.0Q1152 986 1181.5 1015.0Q1211 1044 1250.0 1061.0Q1289 1078 1334 1078ZM1478 1366Q1508 1366 1529.0 1387.0Q1550 1408 1550 1438V1725H1693V1438Q1693 1393 1676.0 1354.0Q1659 1315 1630.0 1285.5Q1601 1256 1562.0 1239.0Q1523 1222 1478 1222H1334Q1289 1222 1250.0 1239.0Q1211 1256 1181.5 1285.5Q1152 1315 1135.0 1354.0Q1118 1393 1118 1438V1725H1262V1438Q1262 1408 1283.0 1387.0Q1304 1366 1334 1366ZM1478 216Q1523 216 1562.0 199.0Q1601 182 1630.0 152.5Q1659 123 1676.0 84.0Q1693 45 1693 0V-287H1550V0Q1550 30 1529.0 51.0Q1508 72 1478 72H1334Q1304 72 1283.0 51.0Q1262 30 1262 0V-287H1118V0Q1118 45 1135.0 84.0Q1152 123 1181.5 152.5Q1211 182 1250.0 199.0Q1289 216 1334 216ZM1550 575V863Q1550 892 1528.5 913.5Q1507 935 1478 935H1334Q1305 935 1283.5 913.5Q1262 892 1262 863V575Q1262 545 1283.0 524.0Q1304 503 1334 503H1478Q1508 503 1529.0 524.0Q1550 545 1550 575ZM831 1006V1294Q831 1324 810.0 1345.0Q789 1366 759 1366H615Q586 1366 564.5 1344.5Q543 1323 543 1294V1006Q543 977 564.5 956.0Q586 935 615 935H759Q788 935 809.5 956.0Q831 977 831 1006ZM831 144V431Q831 461 810.0 482.0Q789 503 759 503H615Q586 503 564.5 481.5Q543 460 543 431V144Q543 115 564.5 93.5Q586 72 615 72H759Q789 72 810.0 93.0Q831 114 831 144Z" style="fill:#e5e5e5;stroke:none" transform="scale(1,-1) translate(0,-256)" /></svg>