<?xml version="1.0" encoding="utf-8" ?>
<svg baseProfile="full" height="256" version="1.1" width="256" xmlns="http://www.w3.org/2000/svg" xmlns:ev="http://www.w3.org/2001/xml-events" xmlns:xlink="http://www.w3.org/1999/xlink"><defs /><path d="M939 1510Q976 1510 1008.5 1496.0Q1041 1482 1065.5 1457.5Q1090 1433 1104.0 1400.0Q1118 1367 1118 1330V1258Q1118 1214 1096 1173L1036 1233Q1042 1238 1044.5 1244.5Q1047 1251 1047 1258Q1047 1272 1036.0 1283.0Q1025 1294 1011 1294Q996 1294 985 1283L903 1366H763Q769 1397 785.5 1423.5Q802 1450 825.5 1469.0Q849 1488 878.0 1499.0Q907 1510 939 1510Z" style="fill:#8e562e;stroke:none" transform="scale(1,-1) translate(0,-256)" /></svg>