<?xml version="1.0" encoding="utf-8" ?>
<svg baseProfile="full" height="256" version="1.1" width="256" xmlns="http://www.w3.org/2000/svg" xmlns:ev="http://www.w3.org/2001/xml-events" xmlns:xlink="http://www.w3.org/1999/xlink"><defs /><path d="M1622 1581Q1622 1551 1610.5 1525.0Q1599 1499 1579.5 1479.5Q1560 1460 1534.0 1449.0Q1508 1438 1478 1438Q1448 1438 1422.0 1449.0Q1396 1460 1376.5 1479.5Q1357 1499 1345.5 1525.0Q1334 1551 1334 1581Q1334 1611 1345.0 1637.0Q1356 1663 1375.5 1682.5Q1395 1702 1421.5 1713.5Q1448 1725 1478 1725Q1508 1725 1534.0 1713.5Q1560 1702 1579.5 1682.5Q1599 1663 1610.5 1637.0Q1622 1611 1622 1581Z" style="fill:#f03a17;stroke:none" transform="scale(1,-1) translate(0,-256)" /></svg>