<?xml version="1.0" encoding="utf-8" ?>
<svg baseProfile="full" height="256" version="1.1" width="256" xmlns="http://www.w3.org/2000/svg" xmlns:ev="http://www.w3.org/2001/xml-events" xmlns:xlink="http://www.w3.org/1999/xlink"><defs /><path d="M1622 863Q1652 863 1678.0 851.5Q1704 840 1723.5 820.5Q1743 801 1754.0 775.0Q1765 749 1765 719V360H1622L1586 405L1550 360H1478V465L1099 843Q1073 869 1059.5 901.0Q1046 933 1046 970Q1046 1007 1060.0 1040.0Q1074 1073 1098.5 1097.5Q1123 1122 1155.5 1136.0Q1188 1150 1226 1150Q1301 1150 1353 1098L1591 859Q1599 861 1606.5 862.0Q1614 863 1622 863Z" style="fill:#e81224;stroke:none" transform="scale(1,-1) translate(0,-256)" /></svg>