<?xml version="1.0" encoding="utf-8" ?>
<svg baseProfile="full" height="256" version="1.1" width="256" xmlns="http://www.w3.org/2000/svg" xmlns:ev="http://www.w3.org/2001/xml-events" xmlns:xlink="http://www.w3.org/1999/xlink"><defs /><path d="M1190 1078Q1219 1078 1240.5 1057.0Q1262 1036 1262 1007Q1262 972 1233 949L946 733Q927 719 903 719H687L615 755L543 719H505Q485 719 466.5 721.0Q448 723 433.0 730.5Q418 738 409.0 752.5Q400 767 400 791Q400 815 409.0 829.5Q418 844 433.0 851.5Q448 859 466.5 861.0Q485 863 505 863H543L615 827L687 863H879L1147 1064Q1166 1078 1190 1078ZM939 1482Q965 1482 987.0 1468.0Q1009 1454 1026.5 1433.0Q1044 1412 1058.0 1388.0Q1072 1364 1082 1344Q1095 1318 1098.0 1298.5Q1101 1279 1101 1251Q1101 1231 1100.5 1211.5Q1100 1192 1097 1172Q1073 1129 1031.0 1103.5Q989 1078 939 1078Q901 1078 868.5 1092.0Q836 1106 811.5 1130.5Q787 1155 773.0 1187.5Q759 1220 759 1258V1330Q759 1350 763 1366Q784 1388 801.0 1408.5Q818 1429 837.5 1445.5Q857 1462 881.0 1472.0Q905 1482 939 1482ZM1622 1294Q1622 1260 1595 1238L1441 1115H1333L1339 1217L1478 1328V1581Q1478 1611 1499.0 1632.0Q1520 1653 1550 1653Q1579 1653 1600.5 1631.5Q1622 1610 1622 1581ZM1478 431H1693V144L1586 113L1478 144ZM1693 719 1945 467 1891 360 1802 324 1693 431ZM2197 431 2255 360 2197 288H1981L1945 360L1981 431ZM1622 65 1708 87 1816 -21 1802 -93 1715 -122 1607 -15Z" style="fill:#ffc83d;stroke:none" transform="scale(1,-1) translate(0,-256)" /></svg>