<?xml version="1.0" encoding="utf-8" ?>
<svg baseProfile="full" height="256" version="1.1" width="256" xmlns="http://www.w3.org/2000/svg" xmlns:ev="http://www.w3.org/2001/xml-events" xmlns:xlink="http://www.w3.org/1999/xlink"><defs /><path d="M2556 575V72Q2530 72 2504.5 71.0Q2479 70 2453 70Q2395 70 2343.5 84.0Q2292 98 2252 144H1855L2125 -126V-431H1550Q1550 -404 1549.0 -377.5Q1548 -351 1548 -324Q1548 -288 1552.5 -252.0Q1557 -216 1572 -183Q1548 -159 1513.0 -127.0Q1478 -95 1443.5 -59.5Q1409 -24 1381.5 11.5Q1354 47 1344 79Q1336 105 1333.5 145.0Q1331 185 1331 230Q1331 278 1332.5 325.0Q1334 372 1334 405L1083 656Q1042 622 1000.0 598.5Q958 575 903 575H472Q427 575 388.0 592.0Q349 609 319.5 638.5Q290 668 273.0 707.0Q256 746 256 791Q256 836 273.0 875.0Q290 914 319.5 943.0Q349 972 388.0 989.0Q427 1006 472 1006H738Q701 1037 677.5 1069.0Q654 1101 640.0 1137.0Q626 1173 620.5 1213.0Q615 1253 615 1300Q615 1324 616.0 1347.5Q617 1371 622 1395Q633 1451 662.5 1498.0Q692 1545 734.5 1579.5Q777 1614 829.5 1633.5Q882 1653 939 1653Q1017 1653 1084.0 1619.5Q1151 1586 1197 1523Q1194 1537 1192.0 1552.0Q1190 1567 1190 1581Q1190 1641 1212.5 1693.5Q1235 1746 1274.0 1785.0Q1313 1824 1365.5 1846.5Q1418 1869 1478 1869Q1536 1869 1588.5 1846.0Q1641 1823 1680.0 1783.5Q1719 1744 1742.0 1691.5Q1765 1639 1765 1581V1294Q1765 1249 1750.5 1215.5Q1736 1182 1713.0 1155.0Q1690 1128 1659.5 1104.5Q1629 1081 1598 1056L1649 1005Q1708 999 1756.0 973.5Q1804 948 1838.0 908.0Q1872 868 1890.5 816.5Q1909 765 1909 707L2040 575Z" style="fill:#000000;stroke:none" transform="scale(1,-1) translate(0,-256)" /></svg>