<?xml version="1.0" encoding="utf-8" ?>
<svg baseProfile="full" height="256" version="1.1" width="256" xmlns="http://www.w3.org/2000/svg" xmlns:ev="http://www.w3.org/2001/xml-events" xmlns:xlink="http://www.w3.org/1999/xlink"><defs /><path d="M903 1186Q879 1162 850.0 1130.5Q821 1099 795 1078Q781 1067 760.0 1057.0Q739 1047 723 1039Q707 1047 686.0 1057.0Q665 1067 651 1078Q625 1099 596.0 1130.5Q567 1162 543 1186ZM903 108Q892 97 878.0 82.0Q864 67 849.5 52.0Q835 37 821.0 23.0Q807 9 795 0L723 -36L651 0Q639 9 625.0 23.0Q611 37 596.5 52.0Q582 67 568.0 82.0Q554 97 543 108ZM903 324 795 216H651L543 324ZM903 539 795 431H651L543 539ZM903 755 795 647H651L543 755Z" style="fill:#af0d1a;stroke:none" transform="scale(1,-1) translate(0,-256)" /></svg>