<?xml version="1.0" encoding="utf-8" ?>
<svg baseProfile="full" height="256" version="1.1" width="256" xmlns="http://www.w3.org/2000/svg" xmlns:ev="http://www.w3.org/2001/xml-events" xmlns:xlink="http://www.w3.org/1999/xlink"><defs /><path d="M759 1229H687V1366L723 1396L759 1366ZM1190 1229H1118V1366L1154 1396L1190 1366ZM2053 1229H1981V1366L2017 1396L2053 1366ZM1622 1229H1550V1366L1586 1396L1622 1366ZM759 809H687V935L723 963L759 935ZM2053 809H1981V935L2017 963L2053 935ZM1190 809H1118V935L1154 963L1190 935ZM1622 809H1550V935L1586 963L1622 935Z" style="fill:#d8b094;stroke:none" transform="scale(1,-1) translate(0,-256)" /></svg>