<?xml version="1.0" encoding="utf-8" ?>
<svg baseProfile="full" height="256" version="1.1" width="256" xmlns="http://www.w3.org/2000/svg" xmlns:ev="http://www.w3.org/2001/xml-events" xmlns:xlink="http://www.w3.org/1999/xlink"><defs /><path d="M1765 1186Q1741 1162 1712.5 1130.5Q1684 1099 1658 1078Q1644 1067 1623.0 1057.0Q1602 1047 1586 1039Q1570 1047 1549.0 1057.0Q1528 1067 1514 1078Q1488 1099 1459.0 1130.5Q1430 1162 1406 1186ZM1765 108Q1754 97 1740.0 82.0Q1726 67 1712.0 52.0Q1698 37 1684.0 23.0Q1670 9 1658 0L1586 -36L1514 0Q1502 9 1488.0 23.0Q1474 37 1459.5 52.0Q1445 67 1431.0 82.0Q1417 97 1406 108ZM1765 324 1658 216H1514L1406 324ZM1765 539 1658 431H1514L1406 539ZM1765 755 1658 647H1514L1406 755Z" style="fill:#107c10;stroke:none" transform="scale(1,-1) translate(0,-256)" /></svg>