<?xml version="1.0" encoding="utf-8" ?>
<svg baseProfile="full" height="256" version="1.1" width="256" xmlns="http://www.w3.org/2000/svg" xmlns:ev="http://www.w3.org/2001/xml-events" xmlns:xlink="http://www.w3.org/1999/xlink"><defs /><path d="M1334 1186Q1310 1162 1281.0 1130.5Q1252 1099 1226 1078Q1212 1067 1191.0 1057.0Q1170 1047 1154 1039Q1139 1047 1118.0 1057.0Q1097 1067 1083 1078Q1056 1100 1028.0 1130.5Q1000 1161 975 1186ZM1334 108Q1323 97 1309.0 82.0Q1295 67 1280.5 52.0Q1266 37 1252.0 23.0Q1238 9 1226 0L1154 -36L1083 0Q1071 10 1056.5 23.5Q1042 37 1028.0 52.0Q1014 67 1000.5 81.5Q987 96 975 108ZM1334 324 1226 216H1083L975 324ZM1334 539 1226 431H1083L975 539ZM1334 755 1226 647H1083L975 755Z" style="fill:#0063b1;stroke:none" transform="scale(1,-1) translate(0,-256)" /></svg>