<?xml version="1.0" encoding="utf-8" ?>
<svg baseProfile="full" height="256" version="1.1" width="256" xmlns="http://www.w3.org/2000/svg" xmlns:ev="http://www.w3.org/2001/xml-events" xmlns:xlink="http://www.w3.org/1999/xlink"><defs /><path d="M2197 1186Q2173 1162 2144.0 1130.5Q2115 1099 2089 1078Q2075 1067 2054.0 1057.0Q2033 1047 2017 1039Q2001 1047 1980.0 1057.0Q1959 1067 1945 1078Q1919 1099 1890.0 1130.5Q1861 1162 1837 1186ZM2197 108Q2186 97 2172.0 82.0Q2158 67 2143.5 52.0Q2129 37 2115.0 23.0Q2101 9 2089 0L2017 -36L1945 0Q1933 9 1919.0 23.0Q1905 37 1890.5 52.0Q1876 67 1862.0 82.0Q1848 97 1837 108ZM2197 324 2089 216H1945L1837 324ZM2197 539 2089 431H1945L1837 539ZM2197 755 2089 647H1945L1837 755Z" style="fill:#ca5010;stroke:none" transform="scale(1,-1) translate(0,-256)" /></svg>