<?xml version="1.0" encoding="utf-8" ?>
<svg baseProfile="full" height="256" version="1.1" width="256" xmlns="http://www.w3.org/2000/svg" xmlns:ev="http://www.w3.org/2001/xml-events" xmlns:xlink="http://www.w3.org/1999/xlink"><defs /><path d="M1331 755Q1347 755 1358.5 745.5Q1370 736 1370 719Q1370 702 1358.5 692.5Q1347 683 1331 683Q1325 644 1305.5 611.0Q1286 578 1257.5 554.0Q1229 530 1193.0 516.5Q1157 503 1118 503Q1079 503 1043.0 516.5Q1007 530 978.5 554.0Q950 578 931.0 611.0Q912 644 906 683Q890 683 878.5 692.5Q867 702 867 719Q867 736 878.5 745.5Q890 755 906 755Q912 794 931.0 827.0Q950 860 978.5 884.0Q1007 908 1043.0 921.5Q1079 935 1118 935Q1157 935 1193.0 921.5Q1229 908 1257.5 884.0Q1286 860 1305.5 827.0Q1325 794 1331 755Z" style="fill:#d8b094;stroke:none" transform="scale(1,-1) translate(0,-256)" /></svg>