<?xml version="1.0" encoding="utf-8" ?>
<svg baseProfile="full" height="256" version="1.1" width="256" xmlns="http://www.w3.org/2000/svg" xmlns:ev="http://www.w3.org/2001/xml-events" xmlns:xlink="http://www.w3.org/1999/xlink"><defs /><path d="M1190 863Q1163 863 1141.5 843.5Q1120 824 1118 797Q1116 825 1096.0 844.0Q1076 863 1047 863Q1018 863 992.5 852.0Q967 841 947.5 822.5Q928 804 916.0 778.5Q904 753 903 725V791Q903 854 918.5 914.5Q934 975 962.0 1030.0Q990 1085 1030.0 1134.0Q1070 1183 1118 1222Q1167 1182 1206.5 1133.5Q1246 1085 1274.5 1030.5Q1303 976 1318.5 915.5Q1334 855 1334 791V725Q1333 753 1321.0 778.5Q1309 804 1289.5 822.5Q1270 841 1244.0 852.0Q1218 863 1190 863Z" style="fill:#ffb900;stroke:none" transform="scale(1,-1) translate(0,-256)" /></svg>