<?xml version="1.0" encoding="utf-8" ?>
<svg baseProfile="full" height="256" version="1.1" width="256" xmlns="http://www.w3.org/2000/svg" xmlns:ev="http://www.w3.org/2001/xml-events" xmlns:xlink="http://www.w3.org/1999/xlink"><defs /><path d="M1262 755V719Q1262 704 1251.5 693.5Q1241 683 1226 683Q1211 683 1200.5 693.5Q1190 704 1190 719V755Q1190 770 1200.5 780.5Q1211 791 1226 791Q1241 791 1251.5 780.5Q1262 770 1262 755ZM1046 755V719Q1046 704 1035.5 693.5Q1025 683 1010 683Q995 683 984.5 693.5Q974 704 974 719V755Q974 770 984.5 780.5Q995 791 1010 791Q1025 791 1035.5 780.5Q1046 770 1046 755Z" style="fill:#000000;stroke:none" transform="scale(1,-1) translate(0,-256)" /></svg>