<?xml version="1.0" encoding="utf-8" ?>
<svg baseProfile="full" height="256" version="1.1" width="256" xmlns="http://www.w3.org/2000/svg" xmlns:ev="http://www.w3.org/2001/xml-events" xmlns:xlink="http://www.w3.org/1999/xlink"><defs /><path d="M1622 -215H1550V-36Q1550 -14 1558.5 6.0Q1567 26 1581.5 40.5Q1596 55 1615.5 63.5Q1635 72 1658 72Q1680 72 1700.0 63.5Q1720 55 1734.0 40.0Q1748 25 1756.5 5.5Q1765 -14 1765 -36V-72H1693V-60Q1693 -50 1692.5 -39.5Q1692 -29 1688.5 -20.0Q1685 -11 1678.0 -5.5Q1671 0 1658 0Q1643 0 1632.5 -10.5Q1622 -21 1622 -36ZM615 1653H687V1474Q687 1451 678.5 1431.5Q670 1412 655.5 1397.5Q641 1383 621.0 1374.5Q601 1366 579 1366Q556 1366 536.5 1374.5Q517 1383 503.0 1398.0Q489 1413 480.5 1432.5Q472 1452 472 1474V1510H543V1499Q543 1489 543.5 1478.0Q544 1467 547.5 1458.0Q551 1449 558.5 1443.5Q566 1438 579 1438Q594 1438 604.5 1448.5Q615 1459 615 1474Z" style="fill:#757575;stroke:none" transform="scale(1,-1) translate(0,-256)" /></svg>