<?xml version="1.0" encoding="utf-8" ?>
<svg baseProfile="full" height="256" version="1.1" width="256" xmlns="http://www.w3.org/2000/svg" xmlns:ev="http://www.w3.org/2001/xml-events" xmlns:xlink="http://www.w3.org/1999/xlink"><defs /><path d="M1406 1438Q1505 1438 1597.0 1412.0Q1689 1386 1768.5 1339.5Q1848 1293 1914.0 1227.0Q1980 1161 2026.5 1081.5Q2073 1002 2099.0 910.0Q2125 818 2125 719Q2125 620 2099.0 528.0Q2073 436 2026.5 356.5Q1980 277 1914.0 211.0Q1848 145 1768.5 98.5Q1689 52 1597.0 26.0Q1505 0 1406 0Q1257 0 1126.5 56.5Q996 113 898.0 211.0Q800 309 743.5 439.5Q687 570 687 719Q687 818 713.0 910.0Q739 1002 785.5 1081.5Q832 1161 898.0 1227.0Q964 1293 1043.5 1339.5Q1123 1386 1215.0 1412.0Q1307 1438 1406 1438ZM1860 367Q1920 442 1950.5 532.5Q1981 623 1981 719Q1981 828 1943.0 925.5Q1905 1023 1837.5 1099.0Q1770 1175 1678.0 1225.0Q1586 1275 1478 1289V749ZM831 719Q831 623 861.5 532.5Q892 442 952 367L1334 749V1289Q1226 1275 1134.0 1225.0Q1042 1175 974.5 1099.0Q907 1023 869.0 925.5Q831 828 831 719ZM1054 265Q1115 217 1186.5 188.0Q1258 159 1334 148V545ZM1478 148Q1554 159 1625.5 188.0Q1697 217 1758 265L1478 545Z" style="fill:#ffffff;stroke:none" transform="scale(1,-1) translate(0,-256)" /></svg>