<?xml version="1.0" encoding="utf-8" ?>
<svg baseProfile="full" height="256" version="1.1" width="256" xmlns="http://www.w3.org/2000/svg" xmlns:ev="http://www.w3.org/2001/xml-events" xmlns:xlink="http://www.w3.org/1999/xlink"><defs /><path d="M1298 1366Q1341 1366 1386.5 1355.0Q1432 1344 1474.0 1323.5Q1516 1303 1552.0 1274.0Q1588 1245 1613 1209Q1617 1204 1619.5 1198.5Q1622 1193 1622 1186Q1622 1171 1611.5 1160.5Q1601 1150 1586 1150Q1571 1150 1549.0 1172.5Q1527 1195 1493.5 1222.0Q1460 1249 1412.5 1271.5Q1365 1294 1298 1294Q1283 1294 1272.5 1304.5Q1262 1315 1262 1330Q1262 1345 1272.5 1355.5Q1283 1366 1298 1366ZM2018 1222Q2029 1222 2040 1214Q2059 1200 2074.5 1180.5Q2090 1161 2101.5 1138.0Q2113 1115 2119.0 1090.0Q2125 1065 2125 1042Q2125 1028 2114.0 1017.0Q2103 1006 2089 1006Q2075 1006 2064.0 1017.0Q2053 1028 2053 1042Q2053 1072 2041.5 1094.0Q2030 1116 2016.5 1132.5Q2003 1149 1992.0 1162.0Q1981 1175 1981 1186Q1981 1202 1992.0 1212.0Q2003 1222 2018 1222Z" style="fill:#ca5010;stroke:none" transform="scale(1,-1) translate(0,-256)" /></svg>