<?xml version="1.0" encoding="utf-8" ?>
<svg baseProfile="full" height="256" version="1.1" width="256" xmlns="http://www.w3.org/2000/svg" xmlns:ev="http://www.w3.org/2001/xml-events" xmlns:xlink="http://www.w3.org/1999/xlink"><defs /><path d="M2268 1725Q2298 1725 2324.0 1713.5Q2350 1702 2369.5 1682.5Q2389 1663 2400.5 1637.0Q2412 1611 2412 1581Q2412 1554 2401.5 1541.0Q2391 1528 2375.0 1521.0Q2359 1514 2340.0 1510.0Q2321 1506 2305.0 1499.0Q2289 1492 2278.5 1478.5Q2268 1465 2268 1438Q2268 1246 2222.0 1065.0Q2176 884 2091.5 719.5Q2007 555 1887.5 409.5Q1768 264 1622 144L759 1006Q894 1169 1055.0 1302.0Q1216 1435 1398.0 1529.0Q1580 1623 1781.0 1674.0Q1982 1725 2197 1725ZM400 0V144H1550V0Q1550 -39 1532.5 -72.0Q1515 -105 1486.5 -132.0Q1458 -159 1421.5 -181.0Q1385 -203 1346.0 -219.5Q1307 -236 1268.5 -247.5Q1230 -259 1199 -265Q1090 -287 975 -287Q860 -287 751 -265Q720 -259 681.5 -247.5Q643 -236 604.0 -219.5Q565 -203 528.5 -181.0Q492 -159 463.5 -132.0Q435 -105 417.5 -72.0Q400 -39 400 0Z" style="fill:#f7630c;stroke:none" transform="scale(1,-1) translate(0,-256)" /></svg>