<?xml version="1.0" encoding="utf-8" ?>
<svg baseProfile="full" height="256" version="1.1" width="256" xmlns="http://www.w3.org/2000/svg" xmlns:ev="http://www.w3.org/2001/xml-events" xmlns:xlink="http://www.w3.org/1999/xlink"><defs /><path d="M975 431Q1035 431 1094.5 425.0Q1154 419 1213 406Q1259 396 1317.0 375.0Q1375 354 1427.0 321.5Q1479 289 1514.5 244.5Q1550 200 1550 144Q1550 86 1513.0 41.0Q1476 -4 1422.0 -37.0Q1368 -70 1307.0 -91.0Q1246 -112 1199 -121Q1086 -144 975 -144Q864 -144 751 -121Q704 -112 643.0 -91.0Q582 -70 528.0 -37.0Q474 -4 437.0 41.0Q400 86 400 144Q400 181 416.5 213.5Q433 246 460.5 273.0Q488 300 523.0 321.5Q558 343 595.5 359.5Q633 376 669.5 387.5Q706 399 737 406Q796 419 855.5 425.0Q915 431 975 431Z" style="fill:#ffd679;stroke:none" transform="scale(1,-1) translate(0,-256)" /></svg>