<?xml version="1.0" encoding="utf-8" ?>
<svg baseProfile="full" height="256" version="1.1" width="256" xmlns="http://www.w3.org/2000/svg" xmlns:ev="http://www.w3.org/2001/xml-events" xmlns:xlink="http://www.w3.org/1999/xlink"><defs /><path d="M2268 1869Q2328 1869 2380.5 1846.5Q2433 1824 2472.0 1785.0Q2511 1746 2533.5 1693.5Q2556 1641 2556 1581Q2556 1547 2545.5 1515.0Q2535 1483 2516.0 1456.5Q2497 1430 2470.0 1409.5Q2443 1389 2411 1378Q2404 1179 2355.0 999.5Q2306 820 2221.0 657.5Q2136 495 2018.5 349.0Q1901 203 1757 71Q1741 57 1725.5 43.5Q1710 30 1693 17Q1693 -69 1658.5 -135.5Q1624 -202 1567.0 -252.0Q1510 -302 1435.5 -336.0Q1361 -370 1281.0 -391.0Q1201 -412 1121.5 -421.5Q1042 -431 974 -431Q835 -431 700 -401Q652 -390 600.0 -372.0Q548 -354 499.0 -328.5Q450 -303 405.5 -269.5Q361 -236 328.0 -195.5Q295 -155 275.5 -106.0Q256 -57 256 0V144Q256 215 285.5 273.0Q315 331 363.0 376.5Q411 422 470.5 456.0Q530 490 590 512Q543 648 543 791Q543 895 582.0 980.5Q621 1066 688 1144Q832 1310 1002.5 1444.0Q1173 1578 1364.5 1672.5Q1556 1767 1765.5 1818.0Q1975 1869 2197 1869Z" style="fill:#000000;stroke:none" transform="scale(1,-1) translate(0,-256)" /></svg>