<?xml version="1.0" encoding="utf-8" ?>
<svg baseProfile="full" height="256" version="1.1" width="256" xmlns="http://www.w3.org/2000/svg" xmlns:ev="http://www.w3.org/2001/xml-events" xmlns:xlink="http://www.w3.org/1999/xlink"><defs /><path d="M1406 72Q1307 72 1215.0 97.5Q1123 123 1043.0 170.0Q963 217 897.5 282.5Q832 348 785.0 428.0Q738 508 712.5 600.0Q687 692 687 791Q687 865 715.5 930.5Q744 996 793.0 1044.5Q842 1093 907.5 1121.5Q973 1150 1047 1150Q1146 1150 1238.0 1124.5Q1330 1099 1409.5 1052.0Q1489 1005 1554.5 939.5Q1620 874 1667.0 794.0Q1714 714 1739.5 622.0Q1765 530 1765 431Q1765 357 1736.5 291.5Q1708 226 1659.5 177.5Q1611 129 1545.5 100.5Q1480 72 1406 72Z" style="fill:#ffb900;stroke:none" transform="scale(1,-1) translate(0,-256)" /></svg>