<?xml version="1.0" encoding="utf-8" ?>
<svg baseProfile="full" height="256" version="1.1" width="256" xmlns="http://www.w3.org/2000/svg" xmlns:ev="http://www.w3.org/2001/xml-events" xmlns:xlink="http://www.w3.org/1999/xlink"><defs /><path d="M1406 1438Q1525 1438 1635.0 1407.0Q1745 1376 1841.0 1320.0Q1937 1264 2015.5 1185.0Q2094 1106 2150.0 1010.0Q2206 914 2237.0 804.0Q2268 694 2268 575Q2268 456 2237.0 346.0Q2206 236 2150.0 140.0Q2094 44 2015.5 -34.5Q1937 -113 1841.0 -169.0Q1745 -225 1635.0 -256.0Q1525 -287 1406 -287Q1287 -287 1177.0 -256.0Q1067 -225 971.0 -169.0Q875 -113 796.0 -34.5Q717 44 661.0 140.0Q605 236 574.0 346.0Q543 456 543 575Q543 694 574.0 804.0Q605 914 661.0 1010.0Q717 1106 796.0 1185.0Q875 1264 971.0 1320.0Q1067 1376 1177.0 1407.0Q1287 1438 1406 1438ZM1406 -144Q1505 -144 1597.0 -118.5Q1689 -93 1769.0 -46.0Q1849 1 1914.5 66.5Q1980 132 2027.0 212.0Q2074 292 2099.5 384.0Q2125 476 2125 575Q2125 674 2099.5 766.0Q2074 858 2027.0 938.0Q1980 1018 1914.5 1083.5Q1849 1149 1769.0 1196.0Q1689 1243 1597.0 1268.5Q1505 1294 1406 1294Q1307 1294 1215.0 1268.5Q1123 1243 1043.0 1196.0Q963 1149 897.5 1083.5Q832 1018 785.0 938.0Q738 858 712.5 766.0Q687 674 687 575Q687 476 712.5 384.0Q738 292 785.0 212.0Q832 132 897.5 66.5Q963 1 1043.0 -46.0Q1123 -93 1215.0 -118.5Q1307 -144 1406 -144ZM1478 575Q1478 546 1456.5 524.5Q1435 503 1406 503Q1377 503 1355.5 524.5Q1334 546 1334 575Q1334 605 1355.0 626.0Q1376 647 1406 647Q1436 647 1457.0 626.0Q1478 605 1478 575Z" style="fill:#f03a17;stroke:none" transform="scale(1,-1) translate(0,-256)" /></svg>