<?xml version="1.0" encoding="utf-8" ?>
<svg baseProfile="full" height="256" version="1.1" width="256" xmlns="http://www.w3.org/2000/svg" xmlns:ev="http://www.w3.org/2001/xml-events" xmlns:xlink="http://www.w3.org/1999/xlink"><defs /><path d="M2195 575Q2195 466 2167.0 365.0Q2139 264 2087.5 176.5Q2036 89 1964.0 17.0Q1892 -55 1804.5 -106.5Q1717 -158 1616.0 -186.0Q1515 -214 1406 -214Q1297 -214 1196.0 -186.0Q1095 -158 1007.5 -106.5Q920 -55 848.0 17.0Q776 89 724.5 176.5Q673 264 645.0 365.0Q617 466 617 575Q617 684 645.0 785.0Q673 886 724.5 973.5Q776 1061 848.0 1133.0Q920 1205 1007.5 1256.5Q1095 1308 1196.0 1336.0Q1297 1364 1406 1364Q1515 1364 1616.0 1336.0Q1717 1308 1804.5 1256.5Q1892 1205 1964.0 1133.0Q2036 1061 2087.5 973.5Q2139 886 2167.0 785.0Q2195 684 2195 575Z" style="fill:#ffffff;stroke:none" transform="scale(1,-1) translate(0,-256)" /></svg>