<?xml version="1.0" encoding="utf-8" ?>
<svg baseProfile="full" height="256" version="1.1" width="256" xmlns="http://www.w3.org/2000/svg" xmlns:ev="http://www.w3.org/2001/xml-events" xmlns:xlink="http://www.w3.org/1999/xlink"><defs /><path d="M1406 503Q1376 503 1355 524L421 1459Q400 1480 400 1509Q400 1538 421.0 1559.5Q442 1581 471 1581Q501 1581 522 1560L1457 626Q1478 605 1478 575Q1478 545 1457.0 524.0Q1436 503 1406 503ZM1837 935Q1808 935 1786.5 956.0Q1765 977 1765 1006Q1765 1036 1786 1057L2290 1560Q2311 1581 2340 1581Q2370 1581 2391.0 1560.0Q2412 1539 2412 1509Q2412 1480 2391 1459L1888 956Q1867 935 1837 935Z" style="fill:#757575;stroke:none" transform="scale(1,-1) translate(0,-256)" /></svg>