<?xml version="1.0" encoding="utf-8" ?>
<svg baseProfile="full" height="256" version="1.1" width="256" xmlns="http://www.w3.org/2000/svg" xmlns:ev="http://www.w3.org/2001/xml-events" xmlns:xlink="http://www.w3.org/1999/xlink"><defs /><path d="M2556 1226Q2556 1107 2509.0 1014.0Q2462 921 2377 840Q2377 833 2378 830Q2392 767 2402.0 704.0Q2412 641 2412 575Q2412 458 2385.0 343.0Q2358 228 2304 124Q2290 98 2273.5 74.0Q2257 50 2247 23L2318 -119Q2340 -163 2340 -214Q2340 -259 2323.5 -298.5Q2307 -338 2277.5 -367.5Q2248 -397 2209.0 -414.0Q2170 -431 2125 -431Q2051 -431 2001.5 -392.0Q1952 -353 1920 -289L1914 -292Q1850 -325 1790.0 -351.0Q1730 -377 1669.0 -395.0Q1608 -413 1543.5 -422.0Q1479 -431 1406 -431Q1270 -431 1138.5 -395.5Q1007 -360 892 -288Q861 -354 811.5 -392.5Q762 -431 687 -431Q643 -431 603.5 -414.0Q564 -397 534.5 -367.5Q505 -338 488.0 -298.5Q471 -259 471 -215Q471 -186 481.0 -154.5Q491 -123 505.5 -92.0Q520 -61 536.0 -31.5Q552 -2 565 23Q484 147 442.0 287.0Q400 427 400 575Q400 641 410.0 704.0Q420 767 434 831Q435 834 435 839Q393 881 360.0 924.0Q327 967 304.0 1014.0Q281 1061 269.0 1113.5Q257 1166 257 1227Q257 1315 287 1398Q256 1451 256 1510Q256 1555 273.0 1594.0Q290 1633 319.5 1662.0Q349 1691 388.0 1708.0Q427 1725 472 1725Q530 1725 583 1694Q664 1725 755 1725Q816 1725 868.0 1713.0Q920 1701 967.0 1677.5Q1014 1654 1057.0 1621.0Q1100 1588 1142 1546Q1208 1561 1273.5 1571.0Q1339 1581 1406 1581Q1473 1581 1538.5 1570.5Q1604 1560 1670 1546Q1712 1588 1754.5 1621.0Q1797 1654 1844.0 1677.0Q1891 1700 1943.5 1712.5Q1996 1725 2056 1725Q2101 1725 2144.0 1717.5Q2187 1710 2229 1694Q2254 1710 2282.5 1717.5Q2311 1725 2340 1725Q2385 1725 2424.0 1708.0Q2463 1691 2492.5 1662.0Q2522 1633 2539.0 1594.0Q2556 1555 2556 1510Q2556 1451 2525 1398Q2556 1313 2556 1226Z" style="fill:#000000;stroke:none" transform="scale(1,-1) translate(0,-256)" /></svg>