<?xml version="1.0" encoding="utf-8" ?>
<svg baseProfile="full" height="256" version="1.1" width="256" xmlns="http://www.w3.org/2000/svg" xmlns:ev="http://www.w3.org/2001/xml-events" xmlns:xlink="http://www.w3.org/1999/xlink"><defs /><path d="M2412 1225Q2412 1153 2385.5 1089.0Q2359 1025 2308 974L2304 971L1801 1474L1805 1477Q1836 1502 1863.5 1521.0Q1891 1540 1920.0 1553.5Q1949 1567 1982.0 1574.0Q2015 1581 2056 1581Q2130 1581 2195.0 1553.0Q2260 1525 2308.0 1477.0Q2356 1429 2384.0 1364.0Q2412 1299 2412 1225ZM755 1581Q797 1581 829.5 1574.0Q862 1567 891.5 1554.0Q921 1541 948.5 1521.5Q976 1502 1007 1477L1011 1474L508 971L504 974Q453 1025 426.5 1089.0Q400 1153 400 1225Q400 1298 428.0 1363.0Q456 1428 504.0 1476.5Q552 1525 616.5 1553.0Q681 1581 755 1581ZM2043 108 2189 -183Q2197 -199 2197 -215Q2197 -245 2176.0 -266.0Q2155 -287 2125 -287Q2105 -287 2087.0 -276.5Q2069 -266 2060 -248L1935 3Q1994 50 2043 108ZM764 98Q789 70 816.5 44.5Q844 19 873 -4L751 -248Q742 -267 724.5 -277.0Q707 -287 687 -287Q657 -287 636.0 -266.0Q615 -245 615 -215Q615 -199 623 -183ZM1694 1006Q1664 1006 1642.5 1027.5Q1621 1049 1621 1079Q1621 1109 1643.0 1129.5Q1665 1150 1694 1150Q1723 1150 1744.5 1128.5Q1766 1107 1766 1078Q1766 1049 1744.5 1027.5Q1723 1006 1694 1006ZM1191 1079Q1191 1049 1169.5 1027.5Q1148 1006 1118 1006Q1089 1006 1067.5 1027.5Q1046 1049 1046 1078Q1046 1107 1067.5 1128.5Q1089 1150 1118 1150Q1147 1150 1169.0 1129.5Q1191 1109 1191 1079ZM1118 144Q1147 144 1169.0 122.5Q1191 101 1191 72Q1191 43 1169.5 21.5Q1148 0 1119 0Q1089 0 1067.5 21.5Q1046 43 1046 73Q1046 102 1067.5 123.0Q1089 144 1118 144ZM1621 72Q1621 101 1643.0 122.5Q1665 144 1694 144Q1723 144 1744.5 123.0Q1766 102 1766 73Q1766 43 1744.5 21.5Q1723 0 1693 0Q1664 0 1642.5 21.5Q1621 43 1621 72ZM831 647Q861 647 882.0 626.0Q903 605 903 575Q903 546 881.5 524.5Q860 503 831 503Q802 503 780.5 524.5Q759 546 759 575Q759 605 780.0 626.0Q801 647 831 647ZM1334 0Q1334 30 1355.0 51.0Q1376 72 1406 72Q1436 72 1457.0 51.0Q1478 30 1478 0Q1478 -29 1456.5 -50.5Q1435 -72 1406 -72Q1377 -72 1355.5 -50.5Q1334 -29 1334 0ZM903 360Q932 360 953.5 338.5Q975 317 975 288Q975 258 954.0 237.0Q933 216 903 216Q873 216 852.0 237.0Q831 258 831 288Q831 317 852.5 338.5Q874 360 903 360ZM1981 503Q1952 503 1930.5 524.5Q1909 546 1909 575Q1909 605 1930.0 626.0Q1951 647 1981 647Q2011 647 2032.0 626.0Q2053 605 2053 575Q2053 546 2031.5 524.5Q2010 503 1981 503ZM1478 1150Q1478 1121 1456.5 1099.5Q1435 1078 1406 1078Q1377 1078 1355.5 1099.5Q1334 1121 1334 1150Q1334 1180 1355.0 1201.0Q1376 1222 1406 1222Q1436 1222 1457.0 1201.0Q1478 1180 1478 1150ZM975 863Q975 833 953.5 812.0Q932 791 902 791Q873 791 852.0 812.0Q831 833 831 862Q831 892 852.0 913.5Q873 935 903 935Q932 935 953.5 913.5Q975 892 975 863ZM1910 791Q1880 791 1858.5 812.0Q1837 833 1837 863Q1837 892 1858.5 913.5Q1880 935 1909 935Q1938 935 1959.5 913.5Q1981 892 1981 863Q1981 834 1960.0 812.5Q1939 791 1910 791ZM1837 288Q1837 317 1858.5 338.5Q1880 360 1909 360Q1938 360 1959.5 338.5Q1981 317 1981 288Q1981 259 1959.5 237.5Q1938 216 1909 216Q1879 216 1858.0 237.0Q1837 258 1837 288Z" style="fill:#cccccc;stroke:none" transform="scale(1,-1) translate(0,-256)" /></svg>