<?xml version="1.0" encoding="utf-8" ?>
<svg baseProfile="full" height="256" version="1.1" width="256" xmlns="http://www.w3.org/2000/svg" xmlns:ev="http://www.w3.org/2001/xml-events" xmlns:xlink="http://www.w3.org/1999/xlink"><defs /><path d="M903 0Q933 0 959.0 -11.5Q985 -23 1004.5 -42.5Q1024 -62 1035.5 -88.0Q1047 -114 1047 -144Q1047 -174 1035.5 -200.0Q1024 -226 1004.5 -245.5Q985 -265 959.0 -276.0Q933 -287 903 -287Q873 -287 847.0 -276.0Q821 -265 801.5 -245.5Q782 -226 770.5 -200.0Q759 -174 759 -144Q759 -114 770.5 -88.0Q782 -62 801.5 -42.5Q821 -23 847.0 -11.5Q873 0 903 0ZM1693 0Q1723 0 1749.0 -11.5Q1775 -23 1794.5 -42.5Q1814 -62 1825.5 -88.0Q1837 -114 1837 -144Q1837 -174 1825.5 -200.0Q1814 -226 1794.5 -245.5Q1775 -265 1749.0 -276.0Q1723 -287 1693 -287Q1663 -287 1637.0 -276.0Q1611 -265 1591.5 -245.5Q1572 -226 1561.0 -200.0Q1550 -174 1550 -144Q1550 -114 1561.0 -88.0Q1572 -62 1591.5 -42.5Q1611 -23 1637.0 -11.5Q1663 0 1693 0Z" style="fill:#757575;stroke:none" transform="scale(1,-1) translate(0,-256)" /></svg>