<?xml version="1.0" encoding="utf-8" ?>
<svg baseProfile="full" height="256" version="1.1" width="256" xmlns="http://www.w3.org/2000/svg" xmlns:ev="http://www.w3.org/2001/xml-events" xmlns:xlink="http://www.w3.org/1999/xlink"><defs /><path d="M2412 1510Q2412 1480 2400.5 1453.5Q2389 1427 2369.5 1407.5Q2350 1388 2324.0 1377.0Q2298 1366 2268 1366Q2238 1366 2212.0 1377.5Q2186 1389 2166.5 1408.5Q2147 1428 2136.0 1454.0Q2125 1480 2125 1510Q2125 1540 2136.0 1566.0Q2147 1592 2166.5 1611.5Q2186 1631 2212.0 1642.0Q2238 1653 2268 1653Q2298 1653 2324.0 1642.0Q2350 1631 2369.5 1611.5Q2389 1592 2400.5 1566.0Q2412 1540 2412 1510Z" style="fill:#f03a17;stroke:none" transform="scale(1,-1) translate(0,-256)" /></svg>