<?xml version="1.0" encoding="utf-8" ?>
<svg baseProfile="full" height="256" version="1.1" width="256" xmlns="http://www.w3.org/2000/svg" xmlns:ev="http://www.w3.org/2001/xml-events" xmlns:xlink="http://www.w3.org/1999/xlink"><defs /><path d="M2268 1581Q2297 1581 2318.5 1560.0Q2340 1539 2340 1510Q2340 1483 2327.5 1468.0Q2315 1453 2292 1442Q2241 1417 2203.0 1386.0Q2165 1355 2136.5 1316.5Q2108 1278 2087.5 1233.0Q2067 1188 2051 1134L1840 429Q1846 416 1858.0 393.0Q1870 370 1885.0 341.0Q1900 312 1915.5 281.0Q1931 250 1944.0 222.5Q1957 195 1965.5 174.0Q1974 153 1974 144Q1974 114 1952.5 93.0Q1931 72 1901 72H472Q472 102 483.0 128.0Q494 154 513.5 173.5Q533 193 559.0 204.5Q585 216 615 216H1785L1713 360H687Q660 360 644.0 373.5Q628 387 618 411Q598 462 584.5 514.5Q571 567 555 619Q549 640 535.0 684.0Q521 728 503.5 783.0Q486 838 468.0 897.5Q450 957 434.5 1009.0Q419 1061 409.5 1100.0Q400 1139 400 1151Q400 1180 421.5 1201.0Q443 1222 472 1222H1927Q1960 1325 2020.0 1404.0Q2080 1483 2172 1541Q2192 1554 2217.5 1567.5Q2243 1581 2268 1581ZM1406 861H1622V1078H1406ZM1047 1078H831V861H1047ZM1334 1078H1118V861H1334ZM831 503H1047V719H831ZM1622 503V719H1406V503ZM1118 719V503H1334V719ZM759 1078H568L633 861H759ZM1819 861 1884 1078H1693V861ZM1693 503H1712L1777 719H1693ZM741 503H759V719H676Z" style="fill:#cccccc;stroke:none" transform="scale(1,-1) translate(0,-256)" /></svg>