<?xml version="1.0" encoding="utf-8" ?>
<svg baseProfile="full" height="256" version="1.1" width="256" xmlns="http://www.w3.org/2000/svg" xmlns:ev="http://www.w3.org/2001/xml-events" xmlns:xlink="http://www.w3.org/1999/xlink"><defs /><path d="M485 -359Q440 -359 401.0 -342.5Q362 -326 333.0 -297.0Q304 -268 287.5 -229.0Q271 -190 271 -145Q271 -95 294 -49L440 244Q454 273 465.5 302.0Q477 331 497 357Q523 390 554.5 418.5Q586 447 615 476L1981 1842L2472 1351L1219 99Q1164 44 1109 -8Q1076 -40 1044.0 -73.5Q1012 -107 975 -134Q952 -151 926.0 -162.0Q900 -173 874 -186L583 -336Q537 -359 485 -359Z" style="fill:#000000;stroke:none" transform="scale(1,-1) translate(0,-256)" /></svg>