<?xml version="1.0" encoding="utf-8" ?>
<svg baseProfile="full" height="256" version="1.1" width="256" xmlns="http://www.w3.org/2000/svg" xmlns:ev="http://www.w3.org/2001/xml-events" xmlns:xlink="http://www.w3.org/1999/xlink"><defs /><path d="M579 -72Q594 -72 604.5 -82.5Q615 -93 615 -108Q615 -122 604.0 -133.0Q593 -144 579 -144Q565 -144 554.0 -133.0Q543 -122 543 -108Q543 -94 554.0 -83.0Q565 -72 579 -72ZM795 -72Q810 -72 820.5 -82.5Q831 -93 831 -108Q831 -122 820.0 -133.0Q809 -144 795 -144Q781 -144 770.0 -133.0Q759 -122 759 -108Q759 -93 769.5 -82.5Q780 -72 795 -72ZM579 144Q594 144 604.5 133.5Q615 123 615 108Q615 93 604.5 82.5Q594 72 579 72Q565 72 554.0 83.0Q543 94 543 108Q543 122 554.0 133.0Q565 144 579 144Z" style="fill:#ffc83d;stroke:none" transform="scale(1,-1) translate(0,-256)" /></svg>