<?xml version="1.0" encoding="utf-8" ?>
<svg baseProfile="full" height="256" version="1.1" width="256" xmlns="http://www.w3.org/2000/svg" xmlns:ev="http://www.w3.org/2001/xml-events" xmlns:xlink="http://www.w3.org/1999/xlink"><defs /><path d="M977 1222Q986 1222 1010.5 1217.0Q1035 1212 1067.5 1204.0Q1100 1196 1137.0 1186.5Q1174 1177 1208.5 1168.0Q1243 1159 1270.5 1151.5Q1298 1144 1313 1140L2412 863V288H1909Q1879 288 1858.0 309.0Q1837 330 1837 360Q1837 389 1815.5 410.0Q1794 431 1765 431H1478Q1449 431 1427.5 452.5Q1406 474 1406 503Q1406 533 1385.0 554.0Q1364 575 1334 575H1047Q1017 575 996.0 596.0Q975 617 975 647Q975 677 954.0 698.0Q933 719 903 719H400V1222Z" style="fill:#00bcf2;stroke:none" transform="scale(1,-1) translate(0,-256)" /></svg>