<?xml version="1.0" encoding="utf-8" ?>
<svg baseProfile="full" height="256" version="1.1" width="256" xmlns="http://www.w3.org/2000/svg" xmlns:ev="http://www.w3.org/2001/xml-events" xmlns:xlink="http://www.w3.org/1999/xlink"><defs /><path d="M579 1725Q616 1725 649.0 1711.0Q682 1697 706.5 1672.5Q731 1648 745.0 1615.5Q759 1583 759 1546Q759 1508 745.0 1475.5Q731 1443 706.5 1418.5Q682 1394 649.0 1380.0Q616 1366 579 1366Q542 1366 509.5 1380.0Q477 1394 452.5 1418.5Q428 1443 414.0 1476.0Q400 1509 400 1546Q400 1583 414.0 1615.5Q428 1648 452.5 1672.5Q477 1697 509.5 1711.0Q542 1725 579 1725Z" style="fill:#fce100;stroke:none" transform="scale(1,-1) translate(0,-256)" /></svg>