<?xml version="1.0" encoding="utf-8" ?>
<svg baseProfile="full" height="256" version="1.1" width="256" xmlns="http://www.w3.org/2000/svg" xmlns:ev="http://www.w3.org/2001/xml-events" xmlns:xlink="http://www.w3.org/1999/xlink"><defs /><path d="M1913 649Q1902 703 1880.0 769.5Q1858 836 1825.0 898.0Q1792 960 1747.5 1010.5Q1703 1061 1648 1082Q1612 1096 1574.0 1101.0Q1536 1106 1498 1106Q1410 1106 1317.0 1085.5Q1224 1065 1142 1034L737 1236Q793 1348 877.0 1438.0Q961 1528 1064.0 1592.0Q1167 1656 1285.5 1690.5Q1404 1725 1529 1725Q1621 1725 1710.5 1706.5Q1800 1688 1885 1650Q1894 1653 1905 1653Q1922 1653 1933.0 1643.5Q1944 1634 1949 1618Q2056 1560 2142.0 1477.0Q2228 1394 2288.0 1293.0Q2348 1192 2380.0 1077.0Q2412 962 2412 840Q2412 737 2388.5 637.5Q2365 538 2319 446ZM2412 216V144H1765Q1736 144 1714.5 165.5Q1693 187 1693 216Q1693 245 1672.0 266.5Q1651 288 1622 288H1334Q1304 288 1283.0 309.0Q1262 330 1262 360Q1262 389 1240.5 410.0Q1219 431 1190 431H903Q874 431 852.5 452.5Q831 474 831 503Q831 533 810.0 554.0Q789 575 759 575H400V647H831Q861 647 882.0 626.0Q903 605 903 575Q903 545 924.0 524.0Q945 503 975 503H1262Q1292 503 1313.0 482.0Q1334 461 1334 431Q1334 402 1355.5 381.0Q1377 360 1406 360H1693Q1722 360 1743.5 338.5Q1765 317 1765 288Q1765 258 1786.0 237.0Q1807 216 1837 216Z" style="fill:#f2f2f2;stroke:none" transform="scale(1,-1) translate(0,-256)" /></svg>