<?xml version="1.0" encoding="utf-8" ?>
<svg baseProfile="full" height="256" version="1.1" width="256" xmlns="http://www.w3.org/2000/svg" xmlns:ev="http://www.w3.org/2001/xml-events" xmlns:xlink="http://www.w3.org/1999/xlink"><defs /><path d="M2219 -79Q2222 -82 2230.5 -90.0Q2239 -98 2247.0 -107.0Q2255 -116 2261.5 -124.0Q2268 -132 2268 -136Q2268 -142 2258.5 -144.0Q2249 -146 2237 -146Q2225 -146 2213.0 -145.0Q2201 -144 2197 -144Q2196 -148 2191.5 -160.0Q2187 -172 2181.5 -184.5Q2176 -197 2170.5 -206.5Q2165 -216 2161 -216Q2156 -216 2150.5 -206.5Q2145 -197 2139.5 -184.5Q2134 -172 2130.0 -160.5Q2126 -149 2125 -144Q2115 -144 2105.0 -145.0Q2095 -146 2084 -146Q2082 -146 2076.5 -146.0Q2071 -146 2066.0 -145.0Q2061 -144 2057.0 -142.0Q2053 -140 2053 -136Q2053 -132 2060.0 -124.0Q2067 -116 2076.0 -108.0Q2085 -100 2094.0 -92.5Q2103 -85 2107 -81Q2105 -76 2102.0 -66.0Q2099 -56 2096.0 -45.0Q2093 -34 2091.0 -24.0Q2089 -14 2089 -9Q2089 0 2096 0Q2100 0 2109.5 -4.5Q2119 -9 2128.5 -15.0Q2138 -21 2147.0 -27.0Q2156 -33 2161 -36Q2165 -34 2175.0 -28.0Q2185 -22 2195.0 -16.0Q2205 -10 2213.5 -5.0Q2222 0 2225 0Q2232 0 2232 -9Q2232 -27 2227.0 -44.5Q2222 -62 2219 -79Z" style="fill:#f7630c;stroke:none" transform="scale(1,-1) translate(0,-256)" /></svg>