<?xml version="1.0" encoding="utf-8" ?>
<svg baseProfile="full" height="256" version="1.1" width="256" xmlns="http://www.w3.org/2000/svg" xmlns:ev="http://www.w3.org/2001/xml-events" xmlns:xlink="http://www.w3.org/1999/xlink"><defs /><path d="M759 647H2053V575Q2053 486 2030.0 403.0Q2007 320 1964.5 248.5Q1922 177 1863.0 118.0Q1804 59 1732.5 16.5Q1661 -26 1578.0 -49.0Q1495 -72 1406 -72Q1317 -72 1234.0 -49.0Q1151 -26 1079.5 16.5Q1008 59 949.0 118.0Q890 177 847.5 248.5Q805 320 782.0 403.0Q759 486 759 575ZM1801 1042Q1764 1042 1731.5 1028.0Q1699 1014 1674.5 989.5Q1650 965 1636.0 932.5Q1622 900 1622 863H1550V899Q1550 951 1569.5 997.0Q1589 1043 1623.0 1077.0Q1657 1111 1702.5 1130.5Q1748 1150 1801 1150Q1853 1150 1899.0 1130.5Q1945 1111 1979.0 1077.0Q2013 1043 2033.0 997.0Q2053 951 2053 899V863H1981Q1981 900 1967.0 933.0Q1953 966 1928.5 990.0Q1904 1014 1871.0 1028.0Q1838 1042 1801 1042ZM1011 1042Q973 1042 940.5 1028.0Q908 1014 883.5 990.0Q859 966 845.0 933.0Q831 900 831 863H759V899Q759 951 779.0 997.0Q799 1043 833.0 1077.0Q867 1111 913.0 1130.5Q959 1150 1011 1150Q1063 1150 1109.0 1130.5Q1155 1111 1189.0 1077.0Q1223 1043 1242.5 997.0Q1262 951 1262 899V863H1190Q1190 900 1176.0 932.5Q1162 965 1137.5 989.5Q1113 1014 1080.5 1028.0Q1048 1042 1011 1042Z" style="fill:#000000;stroke:none" transform="scale(1,-1) translate(0,-256)" /></svg>