<?xml version="1.0" encoding="utf-8" ?>
<svg baseProfile="full" height="256" version="1.1" width="256" xmlns="http://www.w3.org/2000/svg" xmlns:ev="http://www.w3.org/2001/xml-events" xmlns:xlink="http://www.w3.org/1999/xlink"><defs /><path d="M1334 288H1478V5Q1460 3 1442.0 1.5Q1424 0 1406 0Q1388 0 1370.0 1.5Q1352 3 1334 5ZM1118 288H1262V19Q1186 39 1118 78ZM1550 288H1693V78Q1624 38 1550 19ZM1478 360H1334V575H1478ZM1262 360H1118V575H1262ZM1047 360H903V575H1047ZM1909 360H1765V575H1909ZM1693 360H1550V575H1693ZM1765 127V288H1903Q1850 194 1765 127ZM909 288H1047V127Q962 194 909 288Z" style="fill:#ffffff;stroke:none" transform="scale(1,-1) translate(0,-256)" /></svg>