<?xml version="1.0" encoding="utf-8" ?>
<svg baseProfile="full" height="256" version="1.1" width="256" xmlns="http://www.w3.org/2000/svg" xmlns:ev="http://www.w3.org/2001/xml-events" xmlns:xlink="http://www.w3.org/1999/xlink"><defs /><path d="M1702 633Q1663 678 1628.5 728.5Q1594 779 1568.0 834.0Q1542 889 1527.0 947.5Q1512 1006 1512 1067Q1512 1171 1553.5 1257.5Q1595 1344 1662.0 1414.5Q1729 1485 1813.5 1538.5Q1898 1592 1985 1630Q1869 1615 1757.0 1588.5Q1645 1562 1541.5 1521.0Q1438 1480 1345.0 1423.0Q1252 1366 1174.5 1290.5Q1097 1215 1036.5 1119.5Q976 1024 937 905H449Q502 1040 586.0 1147.0Q670 1254 777.0 1337.0Q884 1420 1009.5 1481.0Q1135 1542 1271.5 1585.0Q1408 1628 1551.5 1655.5Q1695 1683 1837.0 1698.5Q1979 1714 2115.5 1719.5Q2252 1725 2375 1725Q2391 1725 2401.5 1715.0Q2412 1705 2412 1689Q2412 1673 2402.0 1663.0Q2392 1653 2376 1653Q2311 1653 2245.5 1636.5Q2180 1620 2120.0 1589.5Q2060 1559 2007.5 1516.0Q1955 1473 1916.5 1419.5Q1878 1366 1856.0 1303.5Q1834 1241 1834 1172Q1834 1112 1849.0 1053.5Q1864 995 1889.0 940.0Q1914 885 1947.0 833.5Q1980 782 2016 736Z" style="fill:#b3dbf2;stroke:none" transform="scale(1,-1) translate(0,-256)" /></svg>