<?xml version="1.0" encoding="utf-8" ?>
<svg baseProfile="full" height="256" version="1.1" width="256" xmlns="http://www.w3.org/2000/svg" xmlns:ev="http://www.w3.org/2001/xml-events" xmlns:xlink="http://www.w3.org/1999/xlink"><defs /><path d="M490 917Q543 1043 625.5 1142.5Q708 1242 812.5 1320.0Q917 1398 1039.5 1455.5Q1162 1513 1295.0 1554.0Q1428 1595 1567.5 1621.5Q1707 1648 1845.0 1663.0Q1983 1678 2115.5 1683.5Q2248 1689 2367 1689H2376Q2306 1689 2236.0 1671.0Q2166 1653 2101.5 1620.5Q2037 1588 1982.0 1542.0Q1927 1496 1886.0 1438.5Q1845 1381 1821.5 1314.0Q1798 1247 1798 1173Q1798 1101 1818.0 1031.0Q1838 961 1871.0 895.0Q1904 829 1946.5 769.0Q1989 709 2035 656Z" style="fill:#83beec;stroke:none" transform="scale(1,-1) translate(0,-256)" /></svg>