<?xml version="1.0" encoding="utf-8" ?>
<svg baseProfile="full" height="256" version="1.1" width="256" xmlns="http://www.w3.org/2000/svg" xmlns:ev="http://www.w3.org/2001/xml-events" xmlns:xlink="http://www.w3.org/1999/xlink"><defs /><path d="M1039 1048Q1159 1048 1279.5 1019.5Q1400 991 1510 946Q1559 926 1619.5 894.5Q1680 863 1742.0 823.0Q1804 783 1863.0 734.5Q1922 686 1967.5 632.0Q2013 578 2041.0 519.0Q2069 460 2069 398Q2069 351 2051.5 315.0Q2034 279 2005.0 253.0Q1976 227 1937.5 209.5Q1899 192 1858.0 182.0Q1817 172 1775.0 167.5Q1733 163 1696 163Q1576 163 1455.5 191.5Q1335 220 1225 265Q1176 285 1115.5 316.5Q1055 348 993.0 388.0Q931 428 872.0 476.5Q813 525 767.5 579.0Q722 633 694.0 692.0Q666 751 666 813Q666 860 683.5 896.0Q701 932 730.0 958.0Q759 984 797.0 1001.5Q835 1019 876.5 1029.0Q918 1039 960.0 1043.5Q1002 1048 1039 1048ZM1711 234Q1750 234 1799.5 240.5Q1849 247 1892.5 265.0Q1936 283 1966.0 315.0Q1996 347 1996 399Q1996 454 1963.5 509.5Q1931 565 1883.5 615.0Q1836 665 1783.0 706.5Q1730 748 1688 774Q1638 806 1587.0 831.5Q1536 857 1482 880Q1379 923 1263.5 949.5Q1148 976 1036 976Q997 976 945.5 970.0Q894 964 848.0 946.0Q802 928 770.5 895.5Q739 863 739 811Q739 791 743.5 771.5Q748 752 756 734Q787 658 848.5 591.5Q910 525 990.5 469.5Q1071 414 1165.0 370.0Q1259 326 1355.0 296.0Q1451 266 1542.5 250.0Q1634 234 1711 234Z" style="fill:#f7b189;stroke:none" transform="scale(1,-1) translate(0,-256)" /></svg>