<?xml version="1.0" encoding="utf-8" ?>
<svg baseProfile="full" height="256" version="1.1" width="256" xmlns="http://www.w3.org/2000/svg" xmlns:ev="http://www.w3.org/2001/xml-events" xmlns:xlink="http://www.w3.org/1999/xlink"><defs /><path d="M2253 185Q2232 92 2175.5 28.5Q2119 -35 2043.0 -74.5Q1967 -114 1879.0 -131.5Q1791 -149 1706 -149Q1632 -149 1557.0 -139.0Q1482 -129 1407.5 -111.0Q1333 -93 1261.0 -68.5Q1189 -44 1121 -15Q1048 16 966.5 58.5Q885 101 805.5 154.0Q726 207 654.0 270.5Q582 334 526.5 407.0Q471 480 438.5 562.5Q406 645 406 736Q406 789 419.5 839.0Q433 889 461 934Q456 917 454.5 898.5Q453 880 453 862Q453 802 472.0 743.0Q491 684 523.0 629.0Q555 574 597.5 522.5Q640 471 687.5 425.5Q735 380 784.5 341.0Q834 302 880 271Q950 224 1023.5 185.0Q1097 146 1174 114Q1312 56 1463.0 21.0Q1614 -14 1765 -14Q1829 -14 1899.5 -5.0Q1970 4 2036.5 26.5Q2103 49 2160.0 87.5Q2217 126 2253 185Z" style="fill:#ca5010;stroke:none" transform="scale(1,-1) translate(0,-256)" /></svg>