<?xml version="1.0" encoding="utf-8" ?>
<svg baseProfile="full" height="256" version="1.1" width="256" xmlns="http://www.w3.org/2000/svg" xmlns:ev="http://www.w3.org/2001/xml-events" xmlns:xlink="http://www.w3.org/1999/xlink"><defs /><path d="M1706 -111Q1625 -111 1527.0 -94.0Q1429 -77 1323.5 -45.0Q1218 -13 1111.0 33.0Q1004 79 904.5 138.0Q805 197 718.0 267.0Q631 337 566.0 417.5Q501 498 464.0 587.0Q427 676 427 772Q427 810 435.5 854.5Q444 899 461 934Q465 942 472.5 952.0Q480 962 489.0 972.5Q498 983 507.0 992.5Q516 1002 522 1008Q565 1050 617.5 1078.0Q670 1106 727.0 1123.0Q784 1140 843.5 1147.5Q903 1155 962 1155Q1111 1155 1260.5 1117.0Q1410 1079 1547 1022Q1620 991 1701.0 949.0Q1782 907 1861.5 854.0Q1941 801 2013.5 737.0Q2086 673 2141.0 600.0Q2196 527 2229.0 444.5Q2262 362 2262 271Q2262 263 2261.5 251.0Q2261 239 2260.0 227.0Q2259 215 2257.0 203.5Q2255 192 2253 185Q2245 160 2225.5 130.5Q2206 101 2189 81Q2145 28 2089.0 -8.5Q2033 -45 1970.0 -67.5Q1907 -90 1839.5 -100.5Q1772 -111 1706 -111Z" style="fill:#f7630c;stroke:none" transform="scale(1,-1) translate(0,-256)" /></svg>