<?xml version="1.0" encoding="utf-8" ?>
<svg baseProfile="full" height="256" version="1.1" width="256" xmlns="http://www.w3.org/2000/svg" xmlns:ev="http://www.w3.org/2001/xml-events" xmlns:xlink="http://www.w3.org/1999/xlink"><defs /><path d="M2376 1869Q2415 1869 2448.0 1855.5Q2481 1842 2504.5 1818.0Q2528 1794 2541.0 1761.0Q2554 1728 2554 1689Q2554 1650 2541.0 1617.0Q2528 1584 2504.5 1560.5Q2481 1537 2448.0 1523.5Q2415 1510 2376 1510Q2338 1510 2297.5 1500.0Q2257 1490 2222 1476Q2173 1456 2129.0 1427.5Q2085 1399 2051.5 1361.5Q2018 1324 1998.5 1276.5Q1979 1229 1979 1172Q1979 1121 1994.5 1069.0Q2010 1017 2035.5 967.5Q2061 918 2092.5 873.0Q2124 828 2156 791Q2178 765 2184.5 759.0Q2191 753 2194.0 750.5Q2197 748 2203.5 740.5Q2210 733 2233 705Q2270 660 2302.5 609.5Q2335 559 2359.5 504.5Q2384 450 2398.0 392.0Q2412 334 2412 274Q2412 241 2407.5 211.0Q2403 181 2395.0 153.0Q2387 125 2376.0 97.5Q2365 70 2352 40Q2310 -55 2242.5 -118.0Q2175 -181 2091.0 -218.5Q2007 -256 1912.0 -271.0Q1817 -286 1721 -286Q1593 -286 1465.5 -263.5Q1338 -241 1216 -202Q1116 -170 1007.0 -121.5Q898 -73 793.0 -8.5Q688 56 593.5 135.5Q499 215 427.5 309.0Q356 403 314.0 510.0Q272 617 272 737Q272 801 285.0 863.5Q298 926 323 986Q382 1129 472.0 1243.0Q562 1357 675.5 1445.5Q789 1534 922.0 1600.0Q1055 1666 1199.5 1713.0Q1344 1760 1495.5 1790.5Q1647 1821 1798.0 1838.5Q1949 1856 2095.5 1862.5Q2242 1869 2376 1869Z" style="fill:#000000;stroke:none" transform="scale(1,-1) translate(0,-256)" /></svg>