<?xml version="1.0" encoding="utf-8" ?>
<svg baseProfile="full" height="256" version="1.1" width="256" xmlns="http://www.w3.org/2000/svg" xmlns:ev="http://www.w3.org/2001/xml-events" xmlns:xlink="http://www.w3.org/1999/xlink"><defs /><path d="M2041 -431Q1938 -431 1847.0 -391.5Q1756 -352 1688.0 -284.0Q1620 -216 1580.5 -125.0Q1541 -34 1541 69Q1541 172 1580.5 263.0Q1620 354 1688.0 422.0Q1756 490 1847.0 529.5Q1938 569 2041 569Q2077 569 2113 563V1111L1256 1025V69Q1256 -34 1216.5 -125.0Q1177 -216 1109.0 -284.0Q1041 -352 950.0 -391.5Q859 -431 756 -431Q687 -431 623.0 -413.0Q559 -395 503.5 -362.5Q448 -330 402.5 -284.5Q357 -239 324.5 -183.5Q292 -128 274.0 -64.0Q256 0 256 69Q256 172 295.5 263.0Q335 354 403.0 422.0Q471 490 562.0 529.5Q653 569 756 569Q792 569 827 563V1698L2541 1869V69Q2541 0 2523.0 -64.0Q2505 -128 2472.5 -183.5Q2440 -239 2394.5 -284.5Q2349 -330 2293.5 -362.5Q2238 -395 2174.0 -413.0Q2110 -431 2041 -431Z" style="fill:#000000;stroke:none" transform="scale(1,-1) translate(0,-256)" /></svg>