<?xml version="1.0" encoding="utf-8" ?>
<svg baseProfile="full" height="256" version="1.1" width="256" xmlns="http://www.w3.org/2000/svg" xmlns:ev="http://www.w3.org/2001/xml-events" xmlns:xlink="http://www.w3.org/1999/xlink"><defs /><path d="M970 1568 2398 1711V69Q2398 -5 2370.0 -70.0Q2342 -135 2293.5 -183.5Q2245 -232 2180.0 -260.0Q2115 -288 2041 -288Q1967 -288 1902.0 -260.0Q1837 -232 1788.5 -183.5Q1740 -135 1712.0 -70.0Q1684 -5 1684 69Q1684 143 1712.0 208.0Q1740 273 1788.5 321.5Q1837 370 1902.0 398.0Q1967 426 2041 426Q2099 426 2154.0 407.0Q2209 388 2255 353V1268L1113 1154V69Q1113 -5 1085.0 -70.0Q1057 -135 1008.5 -183.5Q960 -232 895.0 -260.0Q830 -288 756 -288Q682 -288 617.0 -260.0Q552 -232 503.5 -183.5Q455 -135 427.0 -70.0Q399 -5 399 69Q399 143 427.0 208.0Q455 273 503.5 321.5Q552 370 617.0 398.0Q682 426 756 426Q814 426 868.5 407.0Q923 388 970 353Z" style="fill:#735bc1;stroke:none" transform="scale(1,-1) translate(0,-256)" /></svg>