<?xml version="1.0" encoding="utf-8" ?>
<svg baseProfile="full" height="256" version="1.1" width="256" xmlns="http://www.w3.org/2000/svg" xmlns:ev="http://www.w3.org/2001/xml-events" xmlns:xlink="http://www.w3.org/1999/xlink"><defs /><path d="M1556 281Q1542 243 1535.0 202.5Q1528 162 1528 120Q1528 92 1531.5 64.0Q1535 36 1541 9L1215 335Q1158 392 1127.0 466.5Q1096 541 1096 622Q1096 660 1104 703L1118 719ZM476 1362 967 870Q961 846 957.5 820.5Q954 795 954 769Q954 761 954.0 754.0Q954 747 955 739L494 1200Q472 1256 472 1319Q472 1330 473.0 1340.5Q474 1351 476 1362Z" style="fill:#cccccc;stroke:none" transform="scale(1,-1) translate(0,-256)" /></svg>