<?xml version="1.0" encoding="utf-8" ?>
<svg baseProfile="full" height="256" version="1.1" width="256" xmlns="http://www.w3.org/2000/svg" xmlns:ev="http://www.w3.org/2001/xml-events" xmlns:xlink="http://www.w3.org/1999/xlink"><defs /><path d="M1964 -431Q1875 -431 1792.0 -397.0Q1709 -363 1646 -300L417 929Q339 1007 297.5 1108.0Q256 1209 256 1319Q256 1433 299.0 1533.0Q342 1633 417.0 1708.0Q492 1783 592.0 1826.0Q692 1869 806 1869Q917 1869 1017.0 1827.5Q1117 1786 1195 1708L2395 508Q2473 430 2514.5 330.0Q2556 230 2556 119Q2556 8 2514.5 -92.0Q2473 -192 2395 -270L2293 -371L2250 -328Q2190 -379 2116.0 -405.0Q2042 -431 1964 -431Z" style="fill:#000000;stroke:none" transform="scale(1,-1) translate(0,-256)" /></svg>