<?xml version="1.0" encoding="utf-8" ?>
<svg baseProfile="full" height="256" version="1.1" width="256" xmlns="http://www.w3.org/2000/svg" xmlns:ev="http://www.w3.org/2001/xml-events" xmlns:xlink="http://www.w3.org/1999/xlink"><defs /><path d="M1963 -287Q1919 -287 1882.0 -276.5Q1845 -266 1812.5 -247.0Q1780 -228 1750.5 -201.5Q1721 -175 1693 -144Q1688 -138 1674.5 -123.0Q1661 -108 1646.0 -91.0Q1631 -74 1619.0 -59.5Q1607 -45 1605 -40L1355 458L1622 689L2179 233Q2201 215 2217.5 189.5Q2234 164 2245.0 134.5Q2256 105 2262.0 74.5Q2268 44 2268 17Q2268 -46 2244.0 -101.5Q2220 -157 2178.5 -198.0Q2137 -239 2081.5 -263.0Q2026 -287 1963 -287Z" style="fill:#cccccc;stroke:none" transform="scale(1,-1) translate(0,-256)" /></svg>