<?xml version="1.0" encoding="utf-8" ?>
<svg baseProfile="full" height="256" version="1.1" width="256" xmlns="http://www.w3.org/2000/svg" xmlns:ev="http://www.w3.org/2001/xml-events" xmlns:xlink="http://www.w3.org/1999/xlink"><defs /><path d="M2005 526Q1921 526 1847.0 494.0Q1773 462 1718.0 406.5Q1663 351 1631.0 277.0Q1599 203 1599 119Q1599 38 1630.0 -36.5Q1661 -111 1718 -168L1600 -50Q1585 -35 1570.0 -21.0Q1555 -7 1541 9Q1520 34 1506.0 63.0Q1492 92 1476 120L1347 341H1209L519 1031Q462 1088 431.0 1162.5Q400 1237 400 1318Q400 1402 432.0 1476.0Q464 1550 519.0 1605.5Q574 1661 648.0 1693.0Q722 1725 806 1725Q887 1725 962.0 1694.0Q1037 1663 1094 1606L2293 407Q2236 464 2161.0 495.0Q2086 526 2005 526Z" style="fill:#ffffff;stroke:none" transform="scale(1,-1) translate(0,-256)" /></svg>