<?xml version="1.0" encoding="utf-8" ?>
<svg baseProfile="full" height="256" version="1.1" width="256" xmlns="http://www.w3.org/2000/svg" xmlns:ev="http://www.w3.org/2001/xml-events" xmlns:xlink="http://www.w3.org/1999/xlink"><defs /><path d="M2137 -431 1993 -287H890L747 -431H400V-287H346L256 1150H678L710 647Q733 647 754.5 648.0Q776 649 799 649Q825 649 851.5 646.0Q878 643 903 635Q937 647 975 647H2268Q2313 647 2352.0 630.0Q2391 613 2420.5 583.5Q2450 554 2467.0 515.0Q2484 476 2484 431V288H2556V-287H2484V-431Z" style="fill:#000000;stroke:none" transform="scale(1,-1) translate(0,-256)" /></svg>