<?xml version="1.0" encoding="utf-8" ?>
<svg baseProfile="full" height="256" version="1.1" width="256" xmlns="http://www.w3.org/2000/svg" xmlns:ev="http://www.w3.org/2001/xml-events" xmlns:xlink="http://www.w3.org/1999/xlink"><defs /><path d="M1801 288Q1734 288 1675.5 313.5Q1617 339 1573.0 383.0Q1529 427 1503.5 485.5Q1478 544 1478 611Q1478 720 1527.0 809.0Q1576 898 1657 967Q1596 987 1533.0 996.0Q1470 1005 1406 1005Q1342 1005 1279.0 996.0Q1216 987 1155 967Q1194 933 1227.0 893.0Q1260 853 1283.5 808.0Q1307 763 1320.5 713.5Q1334 664 1334 611Q1334 544 1308.5 485.5Q1283 427 1239.0 383.0Q1195 339 1136.5 313.5Q1078 288 1011 288Q944 288 885.0 313.5Q826 339 782.0 383.0Q738 427 712.5 485.5Q687 544 687 611Q687 664 700.5 713.5Q714 763 737.5 808.0Q761 853 794.0 893.0Q827 933 866 967Q805 987 742.0 996.5Q679 1006 615 1006V1150Q718 1150 817.5 1128.0Q917 1106 1010 1061Q1103 1106 1203.0 1128.0Q1303 1150 1406 1150Q1509 1150 1608.5 1128.0Q1708 1106 1801 1061Q1894 1106 1994.0 1128.0Q2094 1150 2197 1150V1006Q2133 1006 2070.0 996.5Q2007 987 1946 967Q1985 933 2018.0 893.0Q2051 853 2074.5 808.0Q2098 763 2111.5 713.5Q2125 664 2125 611Q2125 544 2099.5 485.5Q2074 427 2030.0 383.0Q1986 339 1927.0 313.5Q1868 288 1801 288ZM1801 898Q1764 874 1731.5 843.5Q1699 813 1674.5 776.5Q1650 740 1636.0 698.5Q1622 657 1622 611Q1622 574 1636.0 541.0Q1650 508 1674.5 483.5Q1699 459 1731.5 445.0Q1764 431 1801 431Q1838 431 1871.0 445.0Q1904 459 1928.5 483.5Q1953 508 1967.0 540.5Q1981 573 1981 611Q1981 657 1967.0 698.5Q1953 740 1928.5 776.5Q1904 813 1871.0 843.5Q1838 874 1801 898ZM1011 898Q974 874 941.0 843.5Q908 813 883.5 776.5Q859 740 845.0 698.5Q831 657 831 611Q831 573 845.0 540.5Q859 508 883.5 483.5Q908 459 940.5 445.0Q973 431 1011 431Q1048 431 1080.5 445.0Q1113 459 1137.5 483.5Q1162 508 1176.0 541.0Q1190 574 1190 611Q1190 657 1176.0 698.5Q1162 740 1137.5 776.5Q1113 813 1080.5 843.5Q1048 874 1011 898Z" style="fill:#ffffff;stroke:none" transform="scale(1,-1) translate(0,-256)" /></svg>