<?xml version="1.0" encoding="utf-8" ?>
<svg baseProfile="full" height="256" version="1.1" width="256" xmlns="http://www.w3.org/2000/svg" xmlns:ev="http://www.w3.org/2001/xml-events" xmlns:xlink="http://www.w3.org/1999/xlink"><defs /><path d="M1046 1438Q1075 1438 1096.5 1416.5Q1118 1395 1118 1366Q1118 1344 1107.5 1328.0Q1097 1312 1078 1302Q1033 1278 996.5 1252.0Q960 1226 929.5 1195.5Q899 1165 873.0 1128.0Q847 1091 823 1046Q803 1007 759 1007Q729 1007 708.0 1027.5Q687 1048 687 1079Q687 1096 694 1110Q744 1214 827.5 1297.0Q911 1380 1014 1430Q1030 1438 1046 1438ZM1693 1294Q1760 1294 1828.0 1279.5Q1896 1265 1959.5 1237.0Q2023 1209 2079.5 1168.0Q2136 1127 2179 1075Q2197 1052 2197 1027Q2197 1013 2191.0 1000.0Q2185 987 2175.5 977.0Q2166 967 2153.0 961.0Q2140 955 2125 955Q2094 955 2071 980Q1992 1061 1900.0 1105.5Q1808 1150 1693 1150Q1664 1150 1643.0 1171.5Q1622 1193 1622 1222Q1622 1251 1643.0 1272.5Q1664 1294 1693 1294Z" style="fill:#d48c00;stroke:none" transform="scale(1,-1) translate(0,-256)" /></svg>