<?xml version="1.0" encoding="utf-8" ?>
<svg baseProfile="full" height="256" version="1.1" width="256" xmlns="http://www.w3.org/2000/svg" xmlns:ev="http://www.w3.org/2001/xml-events" xmlns:xlink="http://www.w3.org/1999/xlink"><defs /><path d="M1083 -287Q1051 -287 1003.0 -283.5Q955 -280 900.5 -271.5Q846 -263 791.0 -248.5Q736 -234 691.0 -211.0Q646 -188 615.5 -156.5Q585 -125 580 -82L401 1422L472 1430L651 -74Q653 -95 671.0 -112.0Q689 -129 715.5 -143.0Q742 -157 774.0 -168.0Q806 -179 837.0 -186.5Q868 -194 894.5 -199.0Q921 -204 936 -206Q1008 -215 1083 -215Q1156 -215 1230 -206Q1245 -204 1271.5 -199.0Q1298 -194 1328.5 -186.5Q1359 -179 1391.0 -168.0Q1423 -157 1449.5 -143.0Q1476 -129 1493.5 -111.5Q1511 -94 1514 -74L1693 1430L1764 1422L1585 -82Q1580 -125 1549.5 -156.5Q1519 -188 1474.0 -210.5Q1429 -233 1374.0 -248.0Q1319 -263 1265.0 -271.5Q1211 -280 1163.0 -283.5Q1115 -287 1083 -287Z" style="fill:#cccccc;stroke:none" transform="scale(1,-1) translate(0,-256)" /></svg>