<?xml version="1.0" encoding="utf-8" ?>
<svg baseProfile="full" height="256" version="1.1" width="256" xmlns="http://www.w3.org/2000/svg" xmlns:ev="http://www.w3.org/2001/xml-events" xmlns:xlink="http://www.w3.org/1999/xlink"><defs /><path d="M1636 791 1549 -78Q1547 -101 1533.0 -118.5Q1519 -136 1502 -150Q1464 -180 1411.5 -199.5Q1359 -219 1301.0 -230.5Q1243 -242 1186.0 -246.5Q1129 -251 1083 -251Q1037 -251 978.5 -246.5Q920 -242 861.0 -230.0Q802 -218 748.5 -197.5Q695 -177 658 -146Q643 -133 630.5 -116.0Q618 -99 616 -78L529 791Z" style="fill:#e5e5e5;stroke:none" transform="scale(1,-1) translate(0,-256)" /></svg>