<?xml version="1.0" encoding="utf-8" ?>
<svg baseProfile="full" height="256" version="1.1" width="256" xmlns="http://www.w3.org/2000/svg" xmlns:ev="http://www.w3.org/2001/xml-events" xmlns:xlink="http://www.w3.org/1999/xlink"><defs /><path d="M1622 791Q1622 784 1621 781Q1612 738 1578.5 706.0Q1545 674 1496.5 651.0Q1448 628 1389.5 613.5Q1331 599 1274.5 590.5Q1218 582 1167.0 578.5Q1116 575 1083 575Q1030 575 977.5 579.0Q925 583 873 592Q850 596 817.0 603.5Q784 611 747.0 622.5Q710 634 673.5 650.5Q637 667 608.0 687.5Q579 708 561.0 734.0Q543 760 543 791Q543 822 561.0 847.5Q579 873 608.0 894.0Q637 915 673.5 931.0Q710 947 747.0 958.5Q784 970 817.0 977.5Q850 985 873 989Q925 998 977.5 1002.0Q1030 1006 1083 1006Q1196 1006 1303 987Q1325 983 1357.5 975.5Q1390 968 1425.5 956.0Q1461 944 1496.0 928.0Q1531 912 1559.0 892.0Q1587 872 1604.5 846.5Q1622 821 1622 791Z" style="fill:#ffffff;stroke:none" transform="scale(1,-1) translate(0,-256)" /></svg>