<?xml version="1.0" encoding="utf-8" ?>
<svg baseProfile="full" height="256" version="1.1" width="256" xmlns="http://www.w3.org/2000/svg" xmlns:ev="http://www.w3.org/2001/xml-events" xmlns:xlink="http://www.w3.org/1999/xlink"><defs /><path d="M1083 -431Q1029 -431 962.5 -425.5Q896 -420 827.0 -405.5Q758 -391 691.0 -367.0Q624 -343 570.5 -306.0Q517 -269 481.0 -218.5Q445 -168 437 -100L258 1403Q257 1412 256.5 1420.5Q256 1429 256 1438Q256 1498 277.0 1547.5Q298 1597 333.5 1637.0Q369 1677 415.5 1709.0Q462 1741 514.0 1765.0Q566 1789 619.5 1805.5Q673 1822 722 1833Q811 1853 901.5 1861.0Q992 1869 1083 1869Q1174 1869 1264.0 1861.0Q1354 1853 1443 1833Q1492 1822 1546.0 1805.5Q1600 1789 1651.5 1765.0Q1703 1741 1750.0 1709.0Q1797 1677 1832.0 1637.0Q1867 1597 1888.0 1547.5Q1909 1498 1909 1438Q1909 1429 1908.5 1420.5Q1908 1412 1907 1403L1728 -100Q1720 -168 1684.0 -218.5Q1648 -269 1594.5 -306.0Q1541 -343 1474.5 -367.0Q1408 -391 1339.0 -405.5Q1270 -420 1203.5 -425.5Q1137 -431 1083 -431Z" style="fill:#000000;stroke:none" transform="scale(1,-1) translate(0,-256)" /></svg>