<?xml version="1.0" encoding="utf-8" ?>
<svg baseProfile="full" height="256" version="1.1" width="256" xmlns="http://www.w3.org/2000/svg" xmlns:ev="http://www.w3.org/2001/xml-events" xmlns:xlink="http://www.w3.org/1999/xlink"><defs /><path d="M1083 1689Q1150 1689 1217.0 1683.5Q1284 1678 1350 1667Q1376 1662 1414.0 1653.5Q1452 1645 1494.5 1631.5Q1537 1618 1578.5 1599.5Q1620 1581 1653.5 1557.0Q1687 1533 1708.0 1503.5Q1729 1474 1729 1438V1426L1636 647H529L436 1426V1438Q436 1475 458.0 1505.0Q480 1535 515.0 1559.5Q550 1584 593.5 1602.5Q637 1621 681.0 1634.5Q725 1648 764.5 1656.5Q804 1665 831 1669Q894 1680 957.0 1684.5Q1020 1689 1083 1689Z" style="fill:#a6a6a6;stroke:none" transform="scale(1,-1) translate(0,-256)" /></svg>