<?xml version="1.0" encoding="utf-8" ?>
<svg baseProfile="full" height="256" version="1.1" width="256" xmlns="http://www.w3.org/2000/svg" xmlns:ev="http://www.w3.org/2001/xml-events" xmlns:xlink="http://www.w3.org/1999/xlink"><defs /><path d="M1083 1150Q1039 1150 985.0 1153.0Q931 1156 873.0 1163.5Q815 1171 756.0 1183.5Q697 1196 642.5 1214.0Q588 1232 541.5 1256.5Q495 1281 462 1313Q436 1339 418.0 1369.5Q400 1400 400 1438Q400 1476 418.0 1506.0Q436 1536 462 1562Q495 1594 541.5 1618.5Q588 1643 642.5 1661.0Q697 1679 756.0 1691.5Q815 1704 873.0 1711.5Q931 1719 985.0 1722.0Q1039 1725 1083 1725Q1126 1725 1180.0 1721.5Q1234 1718 1292.0 1710.5Q1350 1703 1409.0 1691.0Q1468 1679 1522.5 1661.0Q1577 1643 1623.5 1618.5Q1670 1594 1703 1562Q1729 1536 1747.0 1506.0Q1765 1476 1765 1438Q1765 1396 1744.5 1363.5Q1724 1331 1693 1305Q1640 1259 1563.0 1229.0Q1486 1199 1402.0 1181.5Q1318 1164 1234.0 1157.0Q1150 1150 1083 1150ZM1083 1653Q1044 1653 994.5 1650.0Q945 1647 891.0 1641.0Q837 1635 782.0 1624.0Q727 1613 676.5 1597.0Q626 1581 583.0 1559.0Q540 1537 511 1509Q496 1495 484.0 1477.5Q472 1460 472 1438Q472 1416 484.0 1398.0Q496 1380 511 1366Q541 1337 584.0 1315.5Q627 1294 677.5 1278.0Q728 1262 782.5 1251.0Q837 1240 890.5 1233.5Q944 1227 993.5 1224.5Q1043 1222 1083 1222Q1123 1222 1171.5 1225.0Q1220 1228 1272.5 1234.0Q1325 1240 1378.5 1250.5Q1432 1261 1481.0 1276.5Q1530 1292 1573.0 1312.5Q1616 1333 1647 1360Q1665 1375 1679.0 1394.0Q1693 1413 1693 1438Q1693 1460 1681.0 1477.5Q1669 1495 1654 1509Q1624 1537 1581.5 1559.0Q1539 1581 1488.5 1597.0Q1438 1613 1383.0 1623.5Q1328 1634 1274.5 1641.0Q1221 1648 1171.5 1650.5Q1122 1653 1083 1653Z" style="fill:#f2f2f2;stroke:none" transform="scale(1,-1) translate(0,-256)" /></svg>