<?xml version="1.0" encoding="utf-8" ?>
<svg baseProfile="full" height="256" version="1.1" width="256" xmlns="http://www.w3.org/2000/svg" xmlns:ev="http://www.w3.org/2001/xml-events" xmlns:xlink="http://www.w3.org/1999/xlink"><defs /><path d="M1873 1869Q1910 1869 1943.0 1855.0Q1976 1841 2000.5 1816.5Q2025 1792 2039.0 1759.0Q2053 1726 2053 1689V-251Q2053 -289 2039.0 -321.5Q2025 -354 2000.5 -378.5Q1976 -403 1943.0 -417.0Q1910 -431 1873 -431H867Q829 -431 796.5 -417.0Q764 -403 739.5 -378.5Q715 -354 701.0 -321.5Q687 -289 687 -251V503H256V935H687V1689Q687 1726 701.0 1759.0Q715 1792 739.5 1816.5Q764 1841 796.5 1855.0Q829 1869 867 1869Z" style="fill:#000000;stroke:none" transform="scale(1,-1) translate(0,-256)" /></svg>