<?xml version="1.0" encoding="utf-8" ?>
<svg baseProfile="full" height="256" version="1.1" width="256" xmlns="http://www.w3.org/2000/svg" xmlns:ev="http://www.w3.org/2001/xml-events" xmlns:xlink="http://www.w3.org/1999/xlink"><defs /><path d="M1406 360Q1451 360 1490.0 343.0Q1529 326 1558.5 296.5Q1588 267 1605.0 228.0Q1622 189 1622 144Q1622 99 1605.0 60.0Q1588 21 1558.5 -8.5Q1529 -38 1490.0 -55.0Q1451 -72 1406 -72Q1361 -72 1322.0 -55.0Q1283 -38 1253.5 -8.5Q1224 21 1207.0 60.0Q1190 99 1190 144Q1190 189 1207.0 228.0Q1224 267 1253.5 296.5Q1283 326 1322.0 343.0Q1361 360 1406 360ZM1262 719Q1262 674 1245.0 635.0Q1228 596 1199.0 566.5Q1170 537 1131.0 520.0Q1092 503 1047 503H975Q930 503 891.0 520.0Q852 537 822.5 566.5Q793 596 776.0 635.0Q759 674 759 719H831Q831 689 852.0 668.0Q873 647 903 647H1118Q1148 647 1169.0 668.0Q1190 689 1190 719ZM2053 719Q2053 674 2036.0 635.0Q2019 596 1989.5 566.5Q1960 537 1921.0 520.0Q1882 503 1837 503H1765Q1720 503 1681.0 520.0Q1642 537 1613.0 566.5Q1584 596 1567.0 635.0Q1550 674 1550 719H1622Q1622 690 1642.5 668.5Q1663 647 1693 647H1909Q1939 647 1960.0 668.0Q1981 689 1981 719Z" style="fill:#000000;stroke:none" transform="scale(1,-1) translate(0,-256)" /></svg>