<?xml version="1.0" encoding="utf-8" ?>
<svg baseProfile="full" height="256" version="1.1" width="256" xmlns="http://www.w3.org/2000/svg" xmlns:ev="http://www.w3.org/2001/xml-events" xmlns:xlink="http://www.w3.org/1999/xlink"><defs /><path d="M780 503 626 658Q615 669 615 683Q615 697 626.0 707.5Q637 718 651 718Q667 718 677 708L831 554V827Q831 842 841.5 852.5Q852 863 867 863Q882 863 892.5 852.5Q903 842 903 827V642Q928 668 954.0 683.5Q980 699 1007.0 707.0Q1034 715 1062.5 717.0Q1091 719 1122 719H1186Q1180 750 1163.5 776.5Q1147 803 1124.0 822.0Q1101 841 1071.5 852.0Q1042 863 1011 863Q996 863 985.5 873.5Q975 884 975 899Q975 914 985.5 924.5Q996 935 1011 935Q1066 935 1112.5 914.0Q1159 893 1192.0 857.0Q1225 821 1243.5 773.0Q1262 725 1262 671L903 216H812L1152 647H1083Q1045 647 1012.5 633.0Q980 619 955.5 594.5Q931 570 917.0 537.0Q903 504 903 467Q903 453 892.0 442.0Q881 431 867 431H579Q565 431 554.0 442.0Q543 453 543 467Q543 481 554.0 492.0Q565 503 579 503Z" style="fill:#d48c00;stroke:none" transform="scale(1,-1) translate(0,-256)" /></svg>