<?xml version="1.0" encoding="utf-8" ?>
<svg baseProfile="full" height="256" version="1.1" width="256" xmlns="http://www.w3.org/2000/svg" xmlns:ev="http://www.w3.org/2001/xml-events" xmlns:xlink="http://www.w3.org/1999/xlink"><defs /><path d="M615 1150H2340Q2370 1150 2391.0 1129.0Q2412 1108 2412 1078V575Q2412 545 2391.0 524.0Q2370 503 2340 503H1622Q1622 444 1599.0 392.0Q1576 340 1536.5 301.0Q1497 262 1444.5 239.0Q1392 216 1334 216H1267L1088 37Q1071 20 1048.0 10.0Q1025 0 1000 0Q973 0 949.5 11.0Q926 22 908.0 41.0Q890 60 880.0 84.0Q870 108 870 135Q870 158 878.5 179.0Q887 200 903 216L885 247L812 216H615Q570 216 531.0 233.0Q492 250 463.0 279.0Q434 308 417.0 347.0Q400 386 400 431V935Q400 980 417.0 1019.0Q434 1058 463.0 1087.0Q492 1116 531.0 1133.0Q570 1150 615 1150Z" style="fill:#ffc83d;stroke:none" transform="scale(1,-1) translate(0,-256)" /></svg>