<?xml version="1.0" encoding="utf-8" ?>
<svg baseProfile="full" height="256" version="1.1" width="256" xmlns="http://www.w3.org/2000/svg" xmlns:ev="http://www.w3.org/2001/xml-events" xmlns:xlink="http://www.w3.org/1999/xlink"><defs /><path d="M1000 -144Q952 -144 908.5 -127.5Q865 -111 829.5 -82.5Q794 -54 769.5 -14.5Q745 25 734 72H615Q541 72 475.5 100.0Q410 128 361.0 177.0Q312 226 284.0 291.5Q256 357 256 431V935Q256 1009 284.5 1074.5Q313 1140 361.5 1188.5Q410 1237 475.5 1265.5Q541 1294 615 1294H2340Q2385 1294 2424.0 1277.0Q2463 1260 2492.5 1230.5Q2522 1201 2539.0 1162.0Q2556 1123 2556 1078V575Q2556 530 2539.0 491.0Q2522 452 2492.5 423.0Q2463 394 2424.0 377.0Q2385 360 2340 360H1741Q1717 294 1675.5 240.5Q1634 187 1580.0 149.5Q1526 112 1461.5 92.0Q1397 72 1327 72Q1292 37 1257.0 -1.5Q1222 -40 1183.0 -71.5Q1144 -103 1099.5 -123.5Q1055 -144 1000 -144Z" style="fill:#000000;stroke:none" transform="scale(1,-1) translate(0,-256)" /></svg>