<?xml version="1.0" encoding="utf-8" ?>
<svg baseProfile="full" height="256" version="1.1" width="256" xmlns="http://www.w3.org/2000/svg" xmlns:ev="http://www.w3.org/2001/xml-events" xmlns:xlink="http://www.w3.org/1999/xlink"><defs /><path d="M1859 1004Q1886 1007 1912 1007Q2015 1007 2106.0 966.5Q2197 926 2265.0 857.0Q2333 788 2372.5 696.5Q2412 605 2412 503Q2412 399 2372.5 307.5Q2333 216 2264.5 147.5Q2196 79 2104.5 39.5Q2013 0 1909 0Q1843 0 1780.0 17.0Q1717 34 1661.0 65.5Q1605 97 1558.5 142.0Q1512 187 1478 244Q1478 218 1477.5 192.5Q1477 167 1477 141Q1477 84 1482.0 35.5Q1487 -13 1503.0 -56.5Q1519 -100 1547.0 -139.0Q1575 -178 1622 -215V-287H1190V-215Q1236 -177 1264.5 -139.0Q1293 -101 1309.0 -59.0Q1325 -17 1330.0 31.0Q1335 79 1335 136Q1335 163 1334.5 190.0Q1334 217 1334 244Q1300 187 1253.5 142.0Q1207 97 1151.0 65.5Q1095 34 1032.0 17.0Q969 0 903 0Q799 0 707.0 39.5Q615 79 547.0 147.0Q479 215 439.5 307.0Q400 399 400 503Q400 607 439.5 698.5Q479 790 547.5 858.5Q616 927 707.5 966.5Q799 1006 903 1006H934Q939 1006 943.0 1006.0Q947 1006 952 1004Q927 1055 915.0 1110.0Q903 1165 903 1222Q903 1326 942.5 1417.5Q982 1509 1050.5 1577.5Q1119 1646 1210.5 1685.5Q1302 1725 1406 1725Q1510 1725 1601.5 1685.5Q1693 1646 1761.5 1577.5Q1830 1509 1869.5 1417.5Q1909 1326 1909 1222Q1909 1107 1859 1004Z" style="fill:#2b2b2b;stroke:none" transform="scale(1,-1) translate(0,-256)" /></svg>