<?xml version="1.0" encoding="utf-8" ?>
<svg baseProfile="full" height="256" version="1.1" width="256" xmlns="http://www.w3.org/2000/svg" xmlns:ev="http://www.w3.org/2001/xml-events" xmlns:xlink="http://www.w3.org/1999/xlink"><defs /><path d="M1047 -431V-148L1082 -119Q1038 -131 993.0 -137.5Q948 -144 903 -144Q769 -144 651.5 -93.0Q534 -42 446.0 46.0Q358 134 307.0 251.5Q256 369 256 503Q256 617 294.0 721.0Q332 825 399.5 909.0Q467 993 560.5 1052.0Q654 1111 765 1135Q759 1178 759 1222Q759 1311 782.0 1394.0Q805 1477 847.5 1548.5Q890 1620 949.0 1679.0Q1008 1738 1079.5 1780.5Q1151 1823 1234.0 1846.0Q1317 1869 1406 1869Q1495 1869 1578.0 1846.0Q1661 1823 1732.5 1780.5Q1804 1738 1863.0 1679.0Q1922 1620 1964.5 1548.5Q2007 1477 2030.0 1394.0Q2053 1311 2053 1222Q2053 1178 2047 1135Q2158 1111 2251.5 1052.0Q2345 993 2412.5 909.0Q2480 825 2518.0 721.0Q2556 617 2556 503Q2556 414 2533.0 331.5Q2510 249 2467.5 177.0Q2425 105 2366.0 46.0Q2307 -13 2235.0 -55.5Q2163 -98 2080.5 -121.0Q1998 -144 1909 -144Q1864 -144 1819.0 -137.5Q1774 -131 1730 -119L1765 -148V-431Z" style="fill:#000000;stroke:none" transform="scale(1,-1) translate(0,-256)" /></svg>