<?xml version="1.0" encoding="utf-8" ?>
<svg baseProfile="full" height="256" version="1.1" width="256" xmlns="http://www.w3.org/2000/svg" xmlns:ev="http://www.w3.org/2001/xml-events" xmlns:xlink="http://www.w3.org/1999/xlink"><defs /><path d="M1406 -431Q1263 -431 1144.5 -379.5Q1026 -328 923 -231Q806 -119 696.0 -2.5Q586 114 472 229V369Q425 381 385.0 407.5Q345 434 316.5 471.0Q288 508 272.0 553.0Q256 598 256 647V935Q256 990 276.0 1040.0Q296 1090 331.5 1128.5Q367 1167 414.5 1191.5Q462 1216 517 1221Q563 1366 650.5 1485.0Q738 1604 855.5 1689.5Q973 1775 1113.5 1822.0Q1254 1869 1406 1869Q1557 1869 1697.5 1822.0Q1838 1775 1955.5 1689.5Q2073 1604 2161.0 1484.5Q2249 1365 2295 1221Q2350 1216 2397.5 1191.5Q2445 1167 2480.5 1128.5Q2516 1090 2536.0 1040.0Q2556 990 2556 935V647Q2556 598 2540.0 553.0Q2524 508 2495.5 471.0Q2467 434 2427.0 407.5Q2387 381 2340 369V229L1890 -230Q1794 -327 1668.5 -379.0Q1543 -431 1406 -431Z" style="fill:#000000;stroke:none" transform="scale(1,-1) translate(0,-256)" /></svg>