<?xml version="1.0" encoding="utf-8" ?>
<svg baseProfile="full" height="256" version="1.1" width="256" xmlns="http://www.w3.org/2000/svg" xmlns:ev="http://www.w3.org/2001/xml-events" xmlns:xlink="http://www.w3.org/1999/xlink"><defs /><path d="M1406 1725Q1519 1725 1628.0 1692.5Q1737 1660 1832.0 1600.0Q1927 1540 2002.5 1455.0Q2078 1370 2124 1266Q2144 1220 2157.0 1173.0Q2170 1126 2184 1078Q2196 1039 2214.0 1002.0Q2232 965 2250.0 928.0Q2268 891 2282.5 853.0Q2297 815 2302 774L2197 503V288L1787 -129Q1712 -205 1612.0 -246.0Q1512 -287 1406 -287Q1300 -287 1200.0 -246.0Q1100 -205 1025 -129L615 288V503L497 805Q502 838 519.0 871.5Q536 905 556.5 939.5Q577 974 597.0 1009.0Q617 1044 628 1078Q643 1126 655.5 1173.0Q668 1220 688 1266Q734 1371 809.5 1455.5Q885 1540 979.5 1600.0Q1074 1660 1183.0 1692.5Q1292 1725 1406 1725Z" style="fill:#613d30;stroke:none" transform="scale(1,-1) translate(0,-256)" /></svg>