<?xml version="1.0" encoding="utf-8" ?>
<svg baseProfile="full" height="256" version="1.1" width="256" xmlns="http://www.w3.org/2000/svg" xmlns:ev="http://www.w3.org/2001/xml-events" xmlns:xlink="http://www.w3.org/1999/xlink"><defs /><path d="M2556 504Q2556 413 2529.5 325.5Q2503 238 2467 156Q2444 105 2428.5 50.0Q2413 -5 2413 -62V-432H1766V-374Q1678 -403 1588.5 -417.5Q1499 -432 1407 -432Q1315 -432 1225.0 -417.5Q1135 -403 1047 -374V-432H400V-61Q400 -4 384.5 50.5Q369 105 346 156Q311 237 283.5 324.5Q256 412 256 502L257 899Q257 958 284 1011Q289 1021 293.5 1027.0Q298 1033 303 1043Q313 1065 319.0 1088.0Q325 1111 334 1134Q351 1179 371.5 1221.0Q392 1263 416 1304Q494 1435 601.0 1540.0Q708 1645 836.5 1718.5Q965 1792 1109.5 1831.0Q1254 1870 1407 1870Q1560 1870 1704.5 1831.0Q1849 1792 1977.0 1718.5Q2105 1645 2212.0 1540.5Q2319 1436 2397 1304Q2421 1263 2441.5 1221.0Q2462 1179 2479 1134Q2488 1111 2494.0 1088.0Q2500 1065 2510 1043Q2515 1033 2519.5 1027.0Q2524 1021 2529 1011Q2556 958 2556 899Z" style="fill:#000000;stroke:none" transform="scale(1,-1) translate(0,-256)" /></svg>