<?xml version="1.0" encoding="utf-8" ?>
<svg baseProfile="full" height="256" version="1.1" width="256" xmlns="http://www.w3.org/2000/svg" xmlns:ev="http://www.w3.org/2001/xml-events" xmlns:xlink="http://www.w3.org/1999/xlink"><defs /><path d="M1837 1366Q1882 1366 1921.0 1349.0Q1960 1332 1989.5 1302.5Q2019 1273 2036.0 1234.0Q2053 1195 2053 1150V936Q1950 984 1842.0 1016.0Q1734 1048 1622 1063V1150Q1622 1195 1639.0 1234.0Q1656 1273 1685.0 1302.5Q1714 1332 1753.0 1349.0Q1792 1366 1837 1366ZM975 1366Q1020 1366 1059.0 1349.0Q1098 1332 1127.0 1302.5Q1156 1273 1173.0 1234.0Q1190 1195 1190 1150V1063Q1078 1048 970.0 1016.0Q862 984 759 936V1150Q759 1195 776.0 1234.0Q793 1273 822.5 1302.5Q852 1332 891.0 1349.0Q930 1366 975 1366Z" style="fill:#0063b1;stroke:none" transform="scale(1,-1) translate(0,-256)" /></svg>