<?xml version="1.0" encoding="utf-8" ?>
<svg baseProfile="full" height="256" version="1.1" width="256" xmlns="http://www.w3.org/2000/svg" xmlns:ev="http://www.w3.org/2001/xml-events" xmlns:xlink="http://www.w3.org/1999/xlink"><defs /><path d="M759 936Q768 954 783.5 979.5Q799 1005 819.0 1033.0Q839 1061 861.5 1088.5Q884 1116 908.5 1137.5Q933 1159 958.0 1172.5Q983 1186 1006 1186Q1031 1186 1056.0 1172.5Q1081 1159 1105.0 1140.0Q1129 1121 1150.5 1099.5Q1172 1078 1190 1063V935Q1190 890 1173.0 851.0Q1156 812 1127.0 782.5Q1098 753 1059.0 736.0Q1020 719 975 719Q930 719 890.5 736.0Q851 753 822.0 782.5Q793 812 776.0 851.5Q759 891 759 936ZM1622 1063Q1656 1091 1695.5 1109.0Q1735 1127 1780 1127Q1820 1127 1863.0 1112.0Q1906 1097 1944.0 1070.5Q1982 1044 2011.0 1009.5Q2040 975 2053 936V935Q2053 890 2036.0 851.0Q2019 812 1989.5 782.5Q1960 753 1921.0 736.0Q1882 719 1837 719Q1792 719 1753.0 736.0Q1714 753 1685.0 782.5Q1656 812 1639.0 851.0Q1622 890 1622 935Z" style="fill:#8e562e;stroke:none" transform="scale(1,-1) translate(0,-256)" /></svg>