<?xml version="1.0" encoding="utf-8" ?>
<svg baseProfile="full" height="256" version="1.1" width="256" xmlns="http://www.w3.org/2000/svg" xmlns:ev="http://www.w3.org/2001/xml-events" xmlns:xlink="http://www.w3.org/1999/xlink"><defs /><path d="M975 1294Q1005 1294 1031.0 1282.5Q1057 1271 1076.5 1251.5Q1096 1232 1107.0 1206.0Q1118 1180 1118 1150V935Q1118 905 1107.0 878.5Q1096 852 1076.5 832.5Q1057 813 1031.0 802.0Q1005 791 975 791Q945 791 918.5 802.0Q892 813 872.5 832.5Q853 852 842.0 878.5Q831 905 831 935V1150Q831 1180 842.0 1206.0Q853 1232 872.5 1251.5Q892 1271 918.5 1282.5Q945 1294 975 1294ZM1837 1294Q1867 1294 1893.0 1282.5Q1919 1271 1938.5 1251.5Q1958 1232 1969.5 1206.0Q1981 1180 1981 1150V935Q1981 905 1969.5 878.5Q1958 852 1938.5 832.5Q1919 813 1893.0 802.0Q1867 791 1837 791Q1807 791 1781.0 802.0Q1755 813 1735.5 832.5Q1716 852 1705.0 878.5Q1694 905 1694 935V1150Q1694 1180 1705.0 1206.0Q1716 1232 1735.5 1251.5Q1755 1271 1781.0 1282.5Q1807 1294 1837 1294Z" style="fill:#f2f2f2;stroke:none" transform="scale(1,-1) translate(0,-256)" /></svg>