<?xml version="1.0" encoding="utf-8" ?>
<svg baseProfile="full" height="256" version="1.1" width="256" xmlns="http://www.w3.org/2000/svg" xmlns:ev="http://www.w3.org/2001/xml-events" xmlns:xlink="http://www.w3.org/1999/xlink"><defs /><path d="M2230 839Q2200 858 2169.5 875.5Q2139 893 2108 909Q2095 915 2079.5 921.5Q2064 928 2053 936L2022 967Q2004 986 1982.5 1009.5Q1961 1033 1937.0 1054.5Q1913 1076 1888.0 1093.5Q1863 1111 1837 1119Q1808 1127 1782 1127Q1737 1127 1697.0 1108.5Q1657 1090 1622 1063Q1514 1078 1406 1078Q1298 1078 1190 1063Q1158 1080 1123.5 1092.5Q1089 1105 1052 1105Q1027 1105 1004.0 1099.5Q981 1094 958 1087Q923 1076 893.5 1064.5Q864 1053 839.5 1036.0Q815 1019 795.0 995.0Q775 971 759 936Q713 914 669.0 890.0Q625 866 582 839Q582 860 582.0 883.0Q582 906 575.5 925.5Q569 945 554.0 958.0Q539 971 509 971Q477 971 456.5 949.5Q436 928 436 897H415Q436 1017 484.0 1125.0Q532 1233 601.5 1325.0Q671 1417 760.0 1491.0Q849 1565 952.0 1617.0Q1055 1669 1169.5 1697.0Q1284 1725 1406 1725Q1528 1725 1642.5 1697.0Q1757 1669 1860.0 1617.0Q1963 1565 2052.0 1491.0Q2141 1417 2210.5 1325.0Q2280 1233 2328.0 1125.0Q2376 1017 2397 897H2376Q2376 928 2355.5 949.5Q2335 971 2303 971Q2273 971 2258.0 958.0Q2243 945 2236.5 925.5Q2230 906 2230.0 883.0Q2230 860 2230 839Z" style="fill:#83beec;stroke:none" transform="scale(1,-1) translate(0,-256)" /></svg>