<?xml version="1.0" encoding="utf-8" ?>
<svg baseProfile="full" height="256" version="1.1" width="256" xmlns="http://www.w3.org/2000/svg" xmlns:ev="http://www.w3.org/2001/xml-events" xmlns:xlink="http://www.w3.org/1999/xlink"><defs /><path d="M903 66V-287H543Q543 -213 544.0 -150.0Q545 -87 540.5 -27.0Q536 33 521.0 93.0Q506 153 475 220Q461 251 447.5 286.0Q434 321 423.5 358.0Q413 395 406.5 432.0Q400 469 400 503L401 899Q401 921 409.5 941.0Q418 961 433.0 975.0Q448 989 467.5 997.5Q487 1006 509 1006Q531 1006 550.5 997.5Q570 989 585.0 974.5Q600 960 608.5 940.5Q617 921 617 899V475L832 259Q849 242 862.5 218.5Q876 195 885.0 169.0Q894 143 898.5 116.5Q903 90 903 66ZM2412 503Q2412 470 2405.5 433.0Q2399 396 2388.5 358.5Q2378 321 2364.5 285.5Q2351 250 2337 220Q2305 152 2290.5 92.5Q2276 33 2271.0 -26.5Q2266 -86 2267.0 -149.5Q2268 -213 2268 -287H1909V66Q1909 90 1913.5 117.0Q1918 144 1927.0 169.5Q1936 195 1949.5 218.0Q1963 241 1980 259L2195 475V899Q2195 921 2203.5 940.5Q2212 960 2227.0 974.5Q2242 989 2261.5 997.5Q2281 1006 2303 1006Q2325 1006 2344.5 997.5Q2364 989 2379.0 975.0Q2394 961 2402.5 941.0Q2411 921 2411 899Z" style="fill:#d48c00;stroke:none" transform="scale(1,-1) translate(0,-256)" /></svg>