<?xml version="1.0" encoding="utf-8" ?>
<svg baseProfile="full" height="256" version="1.1" width="256" xmlns="http://www.w3.org/2000/svg" xmlns:ev="http://www.w3.org/2001/xml-events" xmlns:xlink="http://www.w3.org/1999/xlink"><defs /><path d="M1406 791Q1466 791 1518.0 768.5Q1570 746 1609.0 707.0Q1648 668 1670.5 615.5Q1693 563 1693 503V288Q1693 228 1670.5 175.5Q1648 123 1609.0 84.0Q1570 45 1518.0 22.5Q1466 0 1406 0Q1346 0 1293.5 22.5Q1241 45 1202.0 84.0Q1163 123 1140.5 175.5Q1118 228 1118 288V503Q1118 563 1140.5 615.5Q1163 668 1202.0 707.0Q1241 746 1293.5 768.5Q1346 791 1406 791Z" style="fill:#000000;stroke:none" transform="scale(1,-1) translate(0,-256)" /></svg>