<?xml version="1.0" encoding="utf-8" ?>
<svg baseProfile="full" height="256" version="1.1" width="256" xmlns="http://www.w3.org/2000/svg" xmlns:ev="http://www.w3.org/2001/xml-events" xmlns:xlink="http://www.w3.org/1999/xlink"><defs /><path d="M975 109Q975 130 983.0 143.0Q991 156 1007 169Q1044 199 1093.0 221.0Q1142 243 1196.0 258.0Q1250 273 1304.5 280.0Q1359 287 1406 287Q1453 287 1507.5 280.0Q1562 273 1616.0 258.0Q1670 243 1719.0 221.0Q1768 199 1805 169Q1821 156 1829.0 143.0Q1837 130 1837 109Q1837 79 1816.0 58.0Q1795 37 1765 37Q1754 37 1744.5 40.5Q1735 44 1725 49Q1683 71 1646.0 88.5Q1609 106 1572.0 118.5Q1535 131 1495.0 137.5Q1455 144 1406 144Q1357 144 1317.0 137.5Q1277 131 1240.0 119.0Q1203 107 1166.0 89.0Q1129 71 1087 49Q1076 44 1067.5 40.5Q1059 37 1047 37Q1018 37 996.5 58.5Q975 80 975 109ZM1334 683Q1334 663 1323.0 645.5Q1312 628 1294 619L759 360V431L1101 683L759 935V1006L1294 747Q1312 738 1323.0 720.5Q1334 703 1334 683ZM2053 935 1710 683 2053 431V360L1518 619Q1500 628 1489.0 645.5Q1478 663 1478 683Q1478 703 1489.0 720.5Q1500 738 1518 747L2053 1006Z" style="fill:#000000;stroke:none" transform="scale(1,-1) translate(0,-256)" /></svg>