<?xml version="1.0" encoding="utf-8" ?>
<svg baseProfile="full" height="256" version="1.1" width="256" xmlns="http://www.w3.org/2000/svg" xmlns:ev="http://www.w3.org/2001/xml-events" xmlns:xlink="http://www.w3.org/1999/xlink"><defs /><path d="M1981 1294Q1981 1264 1960 1243L1672 956Q1651 935 1621 935Q1592 935 1571.0 956.0Q1550 977 1550 1006Q1550 1036 1571 1057L1858 1345Q1879 1366 1909 1366Q1939 1366 1960.0 1345.0Q1981 1324 1981 1294ZM1190 935Q1161 935 1140 956L852 1243Q831 1264 831 1294Q831 1324 852.0 1345.0Q873 1366 903 1366Q933 1366 954 1345L1241 1057Q1262 1036 1262 1006Q1262 977 1240.5 956.0Q1219 935 1190 935Z" style="fill:#d48c00;stroke:none" transform="scale(1,-1) translate(0,-256)" /></svg>