<?xml version="1.0" encoding="utf-8" ?>
<svg baseProfile="full" height="256" version="1.1" width="256" xmlns="http://www.w3.org/2000/svg" xmlns:ev="http://www.w3.org/2001/xml-events" xmlns:xlink="http://www.w3.org/1999/xlink"><defs /><path d="M975 935Q1033 935 1084.0 956.5Q1135 978 1174.0 1015.0Q1213 1052 1236.5 1102.5Q1260 1153 1262 1210V216Q1262 141 1290.5 75.5Q1319 10 1367.5 -38.5Q1416 -87 1481.5 -115.5Q1547 -144 1622 -144H1406Q1331 -144 1266.0 -115.5Q1201 -87 1152.0 -38.5Q1103 10 1075.0 75.5Q1047 141 1047 216V719Q1047 751 1035.5 787.5Q1024 824 1002 849Q974 887 931.0 910.0Q888 933 841 935Z" style="fill:#ffffff;stroke:none" transform="scale(1,-1) translate(0,-256)" /></svg>