<?xml version="1.0" encoding="utf-8" ?>
<svg baseProfile="full" height="256" version="1.1" width="256" xmlns="http://www.w3.org/2000/svg" xmlns:ev="http://www.w3.org/2001/xml-events" xmlns:xlink="http://www.w3.org/1999/xlink"><defs /><path d="M634 1163Q634 1139 617.5 1122.5Q601 1106 578.0 1096.0Q555 1086 529.0 1082.0Q503 1078 485 1078Q473 1078 460.5 1079.0Q448 1080 436 1083Q418 1115 409.0 1150.5Q400 1186 400 1222Q473 1222 543 1253ZM975 1725Q1016 1705 1057.5 1682.0Q1099 1659 1141 1642Q1157 1635 1169.0 1635.5Q1181 1636 1198 1633Q1214 1630 1225.5 1628.0Q1237 1626 1252 1622Q1253 1622 1253.5 1621.5Q1254 1621 1255 1621Q1367 1595 1469 1549Q1635 1475 1769.5 1359.5Q1904 1244 1999.0 1098.0Q2094 952 2145.5 782.0Q2197 612 2197 431Q2197 346 2177.5 264.5Q2158 183 2121.0 109.5Q2084 36 2030.5 -28.5Q1977 -93 1909 -144L1532 -197L1262 -18L1202 174Q1197 188 1192.5 199.0Q1188 210 1184.0 221.0Q1180 232 1177.0 243.5Q1174 255 1172 270Q1167 310 1164.5 343.0Q1162 376 1160.5 407.5Q1159 439 1158.0 472.0Q1157 505 1154 545L1118 1096L795 1438Q782 1452 771.5 1459.5Q761 1467 750 1481Q719 1517 703.0 1561.0Q687 1605 687 1653H831V1725L975 1653Z" style="fill:#613d30;stroke:none" transform="scale(1,-1) translate(0,-256)" /></svg>