<?xml version="1.0" encoding="utf-8" ?>
<svg baseProfile="full" height="256" version="1.1" width="256" xmlns="http://www.w3.org/2000/svg" xmlns:ev="http://www.w3.org/2001/xml-events" xmlns:xlink="http://www.w3.org/1999/xlink"><defs /><path d="M2412 -72H2197Q1983 -72 1788.5 -11.0Q1594 50 1415 168Q1374 195 1335.5 224.0Q1297 253 1262 288H903Q858 288 819.0 271.0Q780 254 750.5 224.5Q721 195 704.0 156.0Q687 117 687 72V-144H903Q903 -174 891.5 -200.0Q880 -226 860.5 -245.5Q841 -265 815.0 -276.0Q789 -287 759 -287H687Q627 -287 575.0 -264.5Q523 -242 484.0 -203.0Q445 -164 422.5 -112.0Q400 -60 400 0V72Q400 161 434.0 239.5Q468 318 526.5 376.5Q585 435 663.5 469.0Q742 503 831 503H1047V719Q1047 808 1081.0 886.5Q1115 965 1173.5 1023.5Q1232 1082 1310.5 1116.0Q1389 1150 1478 1150H1550Q1610 1150 1662.0 1127.5Q1714 1105 1753.0 1066.0Q1792 1027 1814.5 975.0Q1837 923 1837 863V791Q1837 761 1825.5 734.5Q1814 708 1794.5 688.5Q1775 669 1749.0 658.0Q1723 647 1693 647V863H1478Q1441 863 1407.0 850.5Q1373 838 1345.5 816.5Q1318 795 1298.0 764.5Q1278 734 1269 698Q1464 480 1707.0 343.5Q1950 207 2233 140Q2243 137 2250.0 135.5Q2257 134 2263.0 132.5Q2269 131 2275.5 128.5Q2282 126 2292 122Q2347 95 2379.5 42.0Q2412 -11 2412 -72Z" style="fill:#ffb900;stroke:none" transform="scale(1,-1) translate(0,-256)" /></svg>