<?xml version="1.0" encoding="utf-8" ?>
<svg baseProfile="full" height="256" version="1.1" width="256" xmlns="http://www.w3.org/2000/svg" xmlns:ev="http://www.w3.org/2001/xml-events" xmlns:xlink="http://www.w3.org/1999/xlink"><defs /><path d="M1097 921 1190 360 639 458Q521 647 460.5 859.0Q400 1071 400 1294V1510Q400 1555 417.0 1594.0Q434 1633 463.0 1662.0Q492 1691 531.0 1708.0Q570 1725 615 1725Q697 1725 750.0 1678.5Q803 1632 826 1556Q830 1543 832.5 1530.0Q835 1517 838 1503Q851 1451 868 1397Q907 1270 966.0 1151.0Q1025 1032 1097 921Z" style="fill:#ffd679;stroke:none" transform="scale(1,-1) translate(0,-256)" /></svg>