<?xml version="1.0" encoding="utf-8" ?>
<svg baseProfile="full" height="256" version="1.1" width="256" xmlns="http://www.w3.org/2000/svg" xmlns:ev="http://www.w3.org/2001/xml-events" xmlns:xlink="http://www.w3.org/1999/xlink"><defs /><path d="M2404 590Q2383 421 2307.5 270.5Q2232 120 2111 1Q2053 -10 2002.5 -38.0Q1952 -66 1902 -95Q1877 -110 1856.0 -121.5Q1835 -133 1817.5 -147.0Q1800 -161 1785.0 -179.0Q1770 -197 1756 -225Q1587 -287 1406 -287Q1295 -287 1187.5 -264.0Q1080 -241 980 -193Q948 -126 889.5 -93.5Q831 -61 761 -53Q629 56 543.0 199.0Q457 342 422 510Q437 561 442.5 613.5Q448 666 448 719Q448 772 442.0 824.5Q436 877 422 928Q452 1073 517.5 1191.5Q583 1310 683 1418Q690 1426 700.0 1436.5Q710 1447 720.5 1457.5Q731 1468 741.5 1477.0Q752 1486 761 1491Q775 1499 790.5 1501.5Q806 1504 822 1504Q836 1504 850.5 1503.0Q865 1502 879 1502Q908 1502 922.5 1509.0Q937 1516 943.0 1526.5Q949 1537 949.5 1551.0Q950 1565 951.5 1579.0Q953 1593 957.5 1606.0Q962 1619 977 1629Q991 1638 1007.0 1644.0Q1023 1650 1038 1656Q1128 1691 1218.5 1708.0Q1309 1725 1406 1725Q1496 1725 1583.5 1709.5Q1671 1694 1756 1662Q1780 1612 1819.0 1574.0Q1858 1536 1905.5 1508.0Q1953 1480 2006.0 1462.5Q2059 1445 2111 1437Q2232 1318 2307.5 1167.5Q2383 1017 2404 848Q2389 828 2380.0 810.0Q2371 792 2366.5 773.0Q2362 754 2360.5 733.5Q2359 713 2359 689Q2359 656 2367.0 633.0Q2375 610 2404 590Z" style="fill:#ffc83d;stroke:none" transform="scale(1,-1) translate(0,-256)" /></svg>