<?xml version="1.0" encoding="utf-8" ?>
<svg baseProfile="full" height="256" version="1.1" width="256" xmlns="http://www.w3.org/2000/svg" xmlns:ev="http://www.w3.org/2001/xml-events" xmlns:xlink="http://www.w3.org/1999/xlink"><defs /><path d="M981 1630Q1010 1610 1028.5 1578.0Q1047 1546 1047 1510Q1047 1480 1035.5 1454.0Q1024 1428 1004.5 1408.5Q985 1389 959.0 1377.5Q933 1366 903 1366Q876 1366 851.5 1375.5Q827 1385 808.0 1401.5Q789 1418 776.5 1441.0Q764 1464 761 1491Q863 1575 981 1630ZM1693 1510Q1693 1552 1709.5 1591.5Q1726 1631 1756 1661Q1856 1624 1946.0 1567.5Q2036 1511 2111 1436Q2099 1404 2078.5 1378.0Q2058 1352 2032.0 1333.0Q2006 1314 1974.5 1304.0Q1943 1294 1909 1294Q1864 1294 1825.0 1311.0Q1786 1328 1756.5 1357.5Q1727 1387 1710.0 1426.0Q1693 1465 1693 1510ZM903 72Q933 72 959.0 60.5Q985 49 1004.5 29.5Q1024 10 1035.5 -16.0Q1047 -42 1047 -72Q1047 -108 1028.5 -140.0Q1010 -172 981 -192Q863 -137 761 -53Q764 -26 776.5 -3.5Q789 19 808.5 36.0Q828 53 852.0 62.5Q876 72 903 72ZM1909 144Q1943 144 1974.5 133.5Q2006 123 2032.0 104.5Q2058 86 2078.5 59.5Q2099 33 2111 2Q2036 -73 1946.0 -129.5Q1856 -186 1756 -223Q1726 -193 1709.5 -153.5Q1693 -114 1693 -72Q1693 -27 1710.0 12.0Q1727 51 1756.5 80.5Q1786 110 1825.0 127.0Q1864 144 1909 144ZM2403 848Q2407 816 2409.5 783.5Q2412 751 2412 719Q2412 687 2409.5 654.5Q2407 622 2403 590Q2388 583 2372.5 579.0Q2357 575 2340 575Q2310 575 2284.0 586.5Q2258 598 2238.5 617.5Q2219 637 2208.0 663.0Q2197 689 2197 719Q2197 749 2208.0 775.0Q2219 801 2238.5 820.5Q2258 840 2284.0 851.5Q2310 863 2340 863Q2357 863 2372.5 859.0Q2388 855 2403 848ZM472 935Q517 935 556.0 918.0Q595 901 624.0 871.5Q653 842 670.0 803.0Q687 764 687 719Q687 674 670.0 635.0Q653 596 624.0 566.5Q595 537 556.0 520.0Q517 503 472 503Q459 503 446.5 505.0Q434 507 422 510Q411 562 405.5 614.0Q400 666 400 719Q400 772 405.5 824.0Q411 876 422 928Q434 931 446.5 933.0Q459 935 472 935ZM1550 971Q1550 919 1530.0 873.0Q1510 827 1476.0 793.0Q1442 759 1396.0 739.0Q1350 719 1298 719Q1246 719 1200.0 739.0Q1154 759 1120.0 793.0Q1086 827 1066.5 873.0Q1047 919 1047 971Q1047 1023 1067.0 1068.5Q1087 1114 1121.0 1148.0Q1155 1182 1200.5 1202.0Q1246 1222 1298 1222Q1350 1222 1395.5 1202.0Q1441 1182 1475.5 1148.0Q1510 1114 1530.0 1068.5Q1550 1023 1550 971ZM1981 503Q1981 473 1969.5 447.0Q1958 421 1938.5 401.5Q1919 382 1893.0 371.0Q1867 360 1837 360Q1807 360 1781.0 371.0Q1755 382 1735.5 401.5Q1716 421 1704.5 447.0Q1693 473 1693 503Q1693 533 1704.5 559.0Q1716 585 1735.5 604.5Q1755 624 1781.0 635.5Q1807 647 1837 647Q1867 647 1893.0 635.5Q1919 624 1938.5 604.5Q1958 585 1969.5 559.0Q1981 533 1981 503ZM1262 396Q1262 373 1253.5 353.5Q1245 334 1230.5 319.5Q1216 305 1196.0 296.5Q1176 288 1154 288Q1131 288 1111.5 296.5Q1092 305 1078.0 320.0Q1064 335 1055.5 354.5Q1047 374 1047 396Q1047 418 1055.5 437.5Q1064 457 1078.5 471.5Q1093 486 1112.5 494.5Q1132 503 1154 503Q1176 503 1195.5 494.5Q1215 486 1230.0 472.0Q1245 458 1253.5 438.0Q1262 418 1262 396Z" style="fill:#eba300;stroke:none" transform="scale(1,-1) translate(0,-256)" /></svg>