<?xml version="1.0" encoding="utf-8" ?>
<svg baseProfile="full" height="256" version="1.1" width="256" xmlns="http://www.w3.org/2000/svg" xmlns:ev="http://www.w3.org/2001/xml-events" xmlns:xlink="http://www.w3.org/1999/xlink"><defs /><path d="M2304 1725Q2326 1725 2346.0 1716.5Q2366 1708 2380.5 1693.5Q2395 1679 2403.5 1659.0Q2412 1639 2412 1617Q2412 1583 2392.0 1555.0Q2372 1527 2340 1516V791Q2340 761 2329.0 735.0Q2318 709 2298.5 689.5Q2279 670 2253.0 658.5Q2227 647 2197 647H2125V1078Q2125 1088 2128.0 1102.0Q2131 1116 2135.5 1131.0Q2140 1146 2144.0 1160.0Q2148 1174 2151 1185Q2172 1273 2194.0 1359.5Q2216 1446 2237 1534Q2218 1549 2207.5 1571.0Q2197 1593 2197 1617Q2197 1639 2205.5 1658.5Q2214 1678 2228.5 1693.0Q2243 1708 2262.5 1716.5Q2282 1725 2304 1725ZM687 647H615Q585 647 559.0 658.5Q533 670 513.5 689.5Q494 709 483.0 735.0Q472 761 472 791V1516Q440 1527 420.0 1555.0Q400 1583 400 1617Q400 1639 408.5 1659.0Q417 1679 431.5 1693.5Q446 1708 465.5 1716.5Q485 1725 508 1725Q530 1725 549.5 1716.5Q569 1708 583.5 1693.0Q598 1678 606.5 1658.5Q615 1639 615 1617Q615 1593 604.5 1571.0Q594 1549 575 1534Q596 1446 618.0 1359.5Q640 1273 661 1185Q664 1174 668.0 1160.0Q672 1146 676.5 1131.0Q681 1116 684.0 1102.0Q687 1088 687 1078Z" style="fill:#757575;stroke:none" transform="scale(1,-1) translate(0,-256)" /></svg>