<?xml version="1.0" encoding="utf-8" ?>
<svg baseProfile="full" height="256" version="1.1" width="256" xmlns="http://www.w3.org/2000/svg" xmlns:ev="http://www.w3.org/2001/xml-events" xmlns:xlink="http://www.w3.org/1999/xlink"><defs /><path d="M1945 935Q1967 935 1986.5 926.5Q2006 918 2021.0 903.0Q2036 888 2044.5 868.5Q2053 849 2053 827V539Q2053 517 2044.5 497.5Q2036 478 2021.0 463.0Q2006 448 1986.5 439.5Q1967 431 1945 431H867Q845 431 825.5 439.5Q806 448 791.0 463.0Q776 478 767.5 497.5Q759 517 759 539V827Q759 849 767.5 868.5Q776 888 791.0 903.0Q806 918 825.5 926.5Q845 935 867 935ZM1118 72V216H1693V72Z" style="fill:#000000;stroke:none" transform="scale(1,-1) translate(0,-256)" /></svg>