<?xml version="1.0" encoding="utf-8" ?>
<svg baseProfile="full" height="256" version="1.1" width="256" xmlns="http://www.w3.org/2000/svg" xmlns:ev="http://www.w3.org/2001/xml-events" xmlns:xlink="http://www.w3.org/1999/xlink"><defs /><path d="M915 221Q944 191 959.5 152.5Q975 114 975 72V-159Q891 -104 824.0 -31.5Q757 41 710.5 126.0Q664 211 639.5 306.5Q615 402 615 503ZM1837 72Q1837 112 1852.5 152.5Q1868 193 1897 221L2197 503Q2197 403 2172.0 307.5Q2147 212 2100.5 126.5Q2054 41 1987.5 -31.5Q1921 -104 1837 -159Z" style="fill:#757575;stroke:none" transform="scale(1,-1) translate(0,-256)" /></svg>