<?xml version="1.0" encoding="utf-8" ?>
<svg baseProfile="full" height="256" version="1.1" width="256" xmlns="http://www.w3.org/2000/svg" xmlns:ev="http://www.w3.org/2001/xml-events" xmlns:xlink="http://www.w3.org/1999/xlink"><defs /><path d="M1765 1438Q1855 1438 1933.5 1404.0Q2012 1370 2070.5 1311.5Q2129 1253 2163.0 1174.5Q2197 1096 2197 1006V503Q2156 418 2110.5 335.5Q2065 253 2018.0 171.0Q1971 89 1925.0 7.0Q1879 -75 1837 -159Q1740 -222 1630.5 -254.5Q1521 -287 1406 -287Q1291 -287 1181.0 -254.5Q1071 -222 974 -159Q931 -82 886.5 -7.0Q842 68 797 144Q746 232 701.5 321.5Q657 411 615 503V1006Q615 1096 649.0 1174.5Q683 1253 741.5 1311.5Q800 1370 878.5 1404.0Q957 1438 1047 1438Z" style="fill:#cccccc;stroke:none" transform="scale(1,-1) translate(0,-256)" /></svg>