<?xml version="1.0" encoding="utf-8" ?>
<svg baseProfile="full" height="256" version="1.1" width="256" xmlns="http://www.w3.org/2000/svg" xmlns:ev="http://www.w3.org/2001/xml-events" xmlns:xlink="http://www.w3.org/1999/xlink"><defs /><path d="M2304 1869Q2356 1869 2402.0 1849.0Q2448 1829 2482.0 1795.0Q2516 1761 2536.0 1715.0Q2556 1669 2556 1617Q2556 1568 2537.5 1522.5Q2519 1477 2484 1442V791Q2484 713 2445.5 647.0Q2407 581 2340 542V503Q2340 374 2306.5 255.0Q2273 136 2212.0 32.0Q2151 -72 2066.0 -157.0Q1981 -242 1877.0 -303.0Q1773 -364 1654.0 -397.5Q1535 -431 1406 -431Q1277 -431 1158.0 -397.5Q1039 -364 935.0 -303.0Q831 -242 746.0 -157.0Q661 -72 600.0 32.0Q539 136 505.5 255.0Q472 374 472 503V542Q405 581 366.5 647.0Q328 713 328 791V1442Q293 1477 274.5 1522.5Q256 1568 256 1617Q256 1669 276.0 1715.0Q296 1761 330.0 1795.0Q364 1829 410.0 1849.0Q456 1869 508 1869Q560 1869 605.5 1849.0Q651 1829 685.0 1794.5Q719 1760 739.0 1714.5Q759 1669 759 1617Q759 1587 752.0 1557.5Q745 1528 731 1502L734 1489Q804 1535 883.5 1558.0Q963 1581 1047 1581H1765Q1849 1581 1928.5 1558.0Q2008 1535 2078 1489L2081 1502Q2067 1528 2060.0 1557.5Q2053 1587 2053 1617Q2053 1669 2073.0 1714.5Q2093 1760 2127.0 1794.5Q2161 1829 2206.5 1849.0Q2252 1869 2304 1869Z" style="fill:#000000;stroke:none" transform="scale(1,-1) translate(0,-256)" /></svg>