<?xml version="1.0" encoding="utf-8" ?>
<svg baseProfile="full" height="256" version="1.1" width="256" xmlns="http://www.w3.org/2000/svg" xmlns:ev="http://www.w3.org/2001/xml-events" xmlns:xlink="http://www.w3.org/1999/xlink"><defs /><path d="M543 575Q573 575 599.0 563.5Q625 552 644.5 532.5Q664 513 675.5 487.0Q687 461 687 431Q687 401 675.5 375.0Q664 349 644.5 329.5Q625 310 599.0 299.0Q573 288 543 288Q513 288 487.0 299.0Q461 310 441.5 329.5Q422 349 411.0 375.0Q400 401 400 431Q400 461 411.0 487.0Q422 513 441.5 532.5Q461 552 487.0 563.5Q513 575 543 575ZM2268 575Q2298 575 2324.0 563.5Q2350 552 2369.5 532.5Q2389 513 2400.5 487.0Q2412 461 2412 431Q2412 401 2400.5 375.0Q2389 349 2369.5 329.5Q2350 310 2324.0 299.0Q2298 288 2268 288Q2238 288 2212.0 299.0Q2186 310 2166.5 329.5Q2147 349 2136.0 375.0Q2125 401 2125 431Q2125 461 2136.0 487.0Q2147 513 2166.5 532.5Q2186 552 2212.0 563.5Q2238 575 2268 575Z" style="fill:#f03a17;stroke:none" transform="scale(1,-1) translate(0,-256)" /></svg>