<?xml version="1.0" encoding="utf-8" ?>
<svg baseProfile="full" height="256" version="1.1" width="256" xmlns="http://www.w3.org/2000/svg" xmlns:ev="http://www.w3.org/2001/xml-events" xmlns:xlink="http://www.w3.org/1999/xlink"><defs /><path d="M2376 -72H436Q421 -72 410.5 -61.5Q400 -51 400 -36Q400 -21 410.5 -10.5Q421 0 436 0H2376Q2391 0 2401.5 -10.5Q2412 -21 2412 -36Q2412 -51 2401.5 -61.5Q2391 -72 2376 -72ZM2376 144H436Q421 144 410.5 154.5Q400 165 400 180Q400 195 410.5 205.5Q421 216 436 216H2376Q2391 216 2401.5 205.5Q2412 195 2412 180Q2412 165 2401.5 154.5Q2391 144 2376 144Z" style="fill:#eba300;stroke:none" transform="scale(1,-1) translate(0,-256)" /></svg>