<?xml version="1.0" encoding="utf-8" ?>
<svg baseProfile="full" height="256" version="1.1" width="256" xmlns="http://www.w3.org/2000/svg" xmlns:ev="http://www.w3.org/2001/xml-events" xmlns:xlink="http://www.w3.org/1999/xlink"><defs /><path d="M1406 647Q1443 647 1476.0 633.0Q1509 619 1533.5 594.5Q1558 570 1572.0 537.0Q1586 504 1586 467Q1586 430 1572.0 397.5Q1558 365 1533.5 340.5Q1509 316 1476.0 302.0Q1443 288 1406 288Q1369 288 1336.0 302.0Q1303 316 1278.5 340.5Q1254 365 1240.0 397.5Q1226 430 1226 467Q1226 504 1240.0 537.0Q1254 570 1278.5 594.5Q1303 619 1336.0 633.0Q1369 647 1406 647Z" style="fill:#0099bc;stroke:none" transform="scale(1,-1) translate(0,-256)" /></svg>