<?xml version="1.0" encoding="utf-8" ?>
<svg baseProfile="full" height="256" version="1.1" width="256" xmlns="http://www.w3.org/2000/svg" xmlns:ev="http://www.w3.org/2001/xml-events" xmlns:xlink="http://www.w3.org/1999/xlink"><defs /><path d="M1981 575Q2011 575 2037.0 563.5Q2063 552 2082.5 532.5Q2102 513 2113.5 487.0Q2125 461 2125 431Q2125 401 2113.5 375.0Q2102 349 2082.5 329.5Q2063 310 2037.0 299.0Q2011 288 1981 288Q1951 288 1925.0 299.0Q1899 310 1879.5 329.5Q1860 349 1848.5 375.0Q1837 401 1837 431Q1837 461 1848.5 487.0Q1860 513 1879.5 532.5Q1899 552 1925.0 563.5Q1951 575 1981 575ZM831 575Q861 575 887.0 563.5Q913 552 932.5 532.5Q952 513 963.5 487.0Q975 461 975 431Q975 401 963.5 375.0Q952 349 932.5 329.5Q913 310 887.0 299.0Q861 288 831 288Q801 288 775.0 299.0Q749 310 729.5 329.5Q710 349 698.5 375.0Q687 401 687 431Q687 461 698.5 487.0Q710 513 729.5 532.5Q749 552 775.0 563.5Q801 575 831 575Z" style="fill:#b4009e;stroke:none" transform="scale(1,-1) translate(0,-256)" /></svg>