<?xml version="1.0" encoding="utf-8" ?>
<svg baseProfile="full" height="256" version="1.1" width="256" xmlns="http://www.w3.org/2000/svg" xmlns:ev="http://www.w3.org/2001/xml-events" xmlns:xlink="http://www.w3.org/1999/xlink"><defs /><path d="M2268 1222Q2298 1222 2319.0 1201.0Q2340 1180 2340 1150V-36H472V1150Q472 1178 490.5 1199.0Q509 1220 537 1222H549Q580 1220 606.5 1203.0Q633 1186 647 1158L871 711Q886 682 914.0 664.5Q942 647 975 647Q1007 647 1036.0 664.5Q1065 682 1079 711L1302 1158Q1316 1187 1345.0 1204.5Q1374 1222 1406 1222Q1438 1222 1467.0 1204.5Q1496 1187 1510 1158L1733 711Q1747 682 1776.0 664.5Q1805 647 1837 647Q1870 647 1898.0 664.5Q1926 682 1941 711L2164 1158Q2178 1186 2204.5 1203.0Q2231 1220 2262 1222ZM1550 1366Q1550 1336 1538.5 1310.0Q1527 1284 1507.5 1264.5Q1488 1245 1462.0 1233.5Q1436 1222 1406 1222Q1376 1222 1350.0 1233.5Q1324 1245 1304.5 1264.5Q1285 1284 1273.5 1310.0Q1262 1336 1262 1366Q1262 1396 1273.5 1422.0Q1285 1448 1304.5 1467.5Q1324 1487 1350.0 1498.5Q1376 1510 1406 1510Q1436 1510 1462.0 1498.5Q1488 1487 1507.5 1467.5Q1527 1448 1538.5 1422.0Q1550 1396 1550 1366ZM687 1366Q687 1337 676.5 1311.0Q666 1285 647.0 1265.5Q628 1246 603.0 1234.5Q578 1223 549 1222H537Q508 1223 483.0 1235.0Q458 1247 439.5 1266.5Q421 1286 410.5 1311.5Q400 1337 400 1366Q400 1396 411.0 1422.0Q422 1448 441.5 1467.5Q461 1487 487.0 1498.5Q513 1510 543 1510Q573 1510 599.0 1498.5Q625 1487 644.5 1467.5Q664 1448 675.5 1422.0Q687 1396 687 1366ZM2412 1366Q2412 1336 2400.5 1309.5Q2389 1283 2369.5 1263.5Q2350 1244 2324.0 1233.0Q2298 1222 2268 1222H2262Q2233 1223 2208.0 1235.0Q2183 1247 2164.5 1266.5Q2146 1286 2135.5 1311.5Q2125 1337 2125 1366Q2125 1396 2136.0 1422.0Q2147 1448 2166.5 1467.5Q2186 1487 2212.0 1498.5Q2238 1510 2268 1510Q2298 1510 2324.0 1498.5Q2350 1487 2369.5 1467.5Q2389 1448 2400.5 1422.0Q2412 1396 2412 1366Z" style="fill:#ffc83d;stroke:none" transform="scale(1,-1) translate(0,-256)" /></svg>