<?xml version="1.0" encoding="utf-8" ?>
<svg baseProfile="full" height="256" version="1.1" width="256" xmlns="http://www.w3.org/2000/svg" xmlns:ev="http://www.w3.org/2001/xml-events" xmlns:xlink="http://www.w3.org/1999/xlink"><defs /><path d="M2484 621Q2519 582 2537.5 532.5Q2556 483 2556 431Q2556 394 2546.5 358.0Q2537 322 2518 290Q2536 267 2546.0 238.5Q2556 210 2556 180Q2556 151 2547.0 123.0Q2538 95 2520 72Q2556 25 2556 -36Q2556 -73 2542.0 -105.5Q2528 -138 2503.5 -162.5Q2479 -187 2446.0 -201.0Q2413 -215 2376 -215H436Q399 -215 366.0 -201.0Q333 -187 308.5 -162.5Q284 -138 270.0 -105.5Q256 -73 256 -36Q256 25 292 72Q274 95 265.0 123.0Q256 151 256 180Q256 210 266.0 238.5Q276 267 294 290Q275 322 265.5 358.0Q256 394 256 431Q256 483 274.5 532.5Q293 582 328 621V1150Q328 1156 328.0 1162.0Q328 1168 329 1174Q294 1214 275.0 1263.5Q256 1313 256 1366Q256 1425 278.5 1477.5Q301 1530 340.0 1569.0Q379 1608 431.5 1630.5Q484 1653 543 1653Q589 1653 631.5 1639.0Q674 1625 709.5 1600.0Q745 1575 772.5 1539.5Q800 1504 815 1461Q887 1510 975 1510Q1063 1510 1135 1461Q1150 1504 1177.0 1539.5Q1204 1575 1239.5 1600.0Q1275 1625 1317.5 1639.0Q1360 1653 1406 1653Q1452 1653 1494.5 1639.0Q1537 1625 1572.5 1600.0Q1608 1575 1635.0 1539.5Q1662 1504 1677 1461Q1749 1510 1837 1510Q1925 1510 1997 1461Q2012 1504 2039.0 1539.5Q2066 1575 2101.5 1600.0Q2137 1625 2179.5 1639.0Q2222 1653 2268 1653Q2327 1653 2379.5 1630.5Q2432 1608 2471.0 1569.0Q2510 1530 2533.0 1477.5Q2556 1425 2556 1366Q2556 1313 2537.0 1263.5Q2518 1214 2483 1174Q2484 1168 2484.0 1162.0Q2484 1156 2484 1150Z" style="fill:#000000;stroke:none" transform="scale(1,-1) translate(0,-256)" /></svg>