<?xml version="1.0" encoding="utf-8" ?>
<svg baseProfile="full" height="256" version="1.1" width="256" xmlns="http://www.w3.org/2000/svg" xmlns:ev="http://www.w3.org/2001/xml-events" xmlns:xlink="http://www.w3.org/1999/xlink"><defs /><path d="M1981 1222Q1981 1193 1970.0 1167.5Q1959 1142 1940.5 1122.5Q1922 1103 1896.5 1091.0Q1871 1079 1843 1078Q1874 1076 1900.5 1059.0Q1927 1042 1941 1014L2197 503H1478L1733 1014Q1747 1042 1773.5 1059.0Q1800 1076 1831 1078Q1802 1079 1777.0 1091.0Q1752 1103 1733.0 1122.5Q1714 1142 1703.5 1167.5Q1693 1193 1693 1222Q1693 1252 1704.5 1278.0Q1716 1304 1735.5 1323.5Q1755 1343 1781.0 1354.5Q1807 1366 1837 1366Q1867 1366 1893.0 1354.5Q1919 1343 1938.5 1323.5Q1958 1304 1969.5 1278.0Q1981 1252 1981 1222ZM1118 1222Q1118 1193 1107.5 1167.5Q1097 1142 1078.0 1122.5Q1059 1103 1034.0 1091.0Q1009 1079 981 1078Q1012 1076 1038.5 1059.0Q1065 1042 1079 1014L1334 503H615L871 1014Q885 1042 911.0 1059.0Q937 1076 969 1078Q940 1079 915.0 1091.0Q890 1103 871.0 1122.5Q852 1142 841.5 1167.5Q831 1193 831 1222Q831 1252 842.5 1278.0Q854 1304 873.5 1323.5Q893 1343 919.0 1354.5Q945 1366 975 1366Q1005 1366 1031.0 1354.5Q1057 1343 1076.5 1323.5Q1096 1304 1107.0 1278.0Q1118 1252 1118 1222Z" style="fill:#d48c00;stroke:none" transform="scale(1,-1) translate(0,-256)" /></svg>