<?xml version="1.0" encoding="utf-8" ?>
<svg baseProfile="full" height="256" version="1.1" width="256" xmlns="http://www.w3.org/2000/svg" xmlns:ev="http://www.w3.org/2001/xml-events" xmlns:xlink="http://www.w3.org/1999/xlink"><defs /><path d="M849 467Q849 445 833.0 429.0Q817 413 795 413Q773 413 757.0 429.0Q741 445 741 467Q741 490 756.5 505.5Q772 521 795 521Q818 521 833.5 505.5Q849 490 849 467ZM1999 467Q1999 445 1983.0 429.0Q1967 413 1945 413Q1923 413 1907.0 429.0Q1891 445 1891 467Q1891 490 1906.5 505.5Q1922 521 1945 521Q1968 521 1983.5 505.5Q1999 490 1999 467Z" style="fill:#cc76ca;stroke:none" transform="scale(1,-1) translate(0,-256)" /></svg>