<?xml version="1.0" encoding="utf-8" ?>
<svg baseProfile="full" height="256" version="1.1" width="256" xmlns="http://www.w3.org/2000/svg" xmlns:ev="http://www.w3.org/2001/xml-events" xmlns:xlink="http://www.w3.org/1999/xlink"><defs /><path d="M1424 -144H1316Q1305 -144 1295.5 -138.5Q1286 -133 1277.5 -125.0Q1269 -117 1262.0 -107.5Q1255 -98 1250 -90Q1223 -48 1203.0 9.0Q1183 66 1168.5 130.5Q1154 195 1144.0 264.5Q1134 334 1128.5 400.5Q1123 467 1120.5 528.5Q1118 590 1118 638Q1118 687 1120.5 748.5Q1123 810 1128.5 876.0Q1134 942 1144.0 1010.5Q1154 1079 1168.5 1143.0Q1183 1207 1203.5 1263.5Q1224 1320 1250 1363L1322 1478Q1332 1494 1342.0 1502.0Q1352 1510 1372 1510Q1389 1510 1399.5 1501.0Q1410 1492 1418 1478L1490 1363Q1516 1320 1536.5 1263.5Q1557 1207 1571.5 1143.0Q1586 1079 1595.5 1010.5Q1605 942 1611.0 876.0Q1617 810 1619.5 748.5Q1622 687 1622 638Q1622 589 1619.5 528.0Q1617 467 1611.5 400.5Q1606 334 1596.0 264.5Q1586 195 1571.5 130.5Q1557 66 1537.0 9.0Q1517 -48 1490 -90Q1485 -98 1478.0 -107.5Q1471 -117 1462.5 -125.0Q1454 -133 1444.0 -138.5Q1434 -144 1424 -144Z" style="fill:#ffd679;stroke:none" transform="scale(1,-1) translate(0,-256)" /></svg>