<?xml version="1.0" encoding="utf-8" ?>
<svg baseProfile="full" height="256" version="1.1" width="256" xmlns="http://www.w3.org/2000/svg" xmlns:ev="http://www.w3.org/2001/xml-events" xmlns:xlink="http://www.w3.org/1999/xlink"><defs /><path d="M1658 -431Q1595 -431 1540 -402Q1496 -431 1442 -431Q1423 -431 1405.0 -427.0Q1387 -423 1370 -416Q1353 -423 1335.0 -427.0Q1317 -431 1298 -431Q1244 -431 1200 -402Q1145 -431 1083 -431Q1043 -431 1010.0 -416.0Q977 -401 953.0 -375.5Q929 -350 916.0 -316.0Q903 -282 903 -243Q760 -197 641.0 -109.0Q522 -21 436.5 96.0Q351 213 303.5 352.5Q256 492 256 643Q256 779 294.5 907.5Q333 1036 404.5 1147.0Q476 1258 576.5 1346.5Q677 1435 801 1491L1047 1602V1869H1693V1602L1938 1491Q2062 1434 2163.0 1346.0Q2264 1258 2335.5 1147.5Q2407 1037 2445.5 908.5Q2484 780 2484 643Q2484 492 2436.5 352.5Q2389 213 2303.5 96.0Q2218 -21 2099.0 -109.0Q1980 -197 1837 -243Q1837 -282 1824.0 -316.0Q1811 -350 1787.5 -375.5Q1764 -401 1731.0 -416.0Q1698 -431 1658 -431Z" style="fill:#000000;stroke:none" transform="scale(1,-1) translate(0,-256)" /></svg>