<?xml version="1.0" encoding="utf-8" ?>
<svg baseProfile="full" height="256" version="1.1" width="256" xmlns="http://www.w3.org/2000/svg" xmlns:ev="http://www.w3.org/2001/xml-events" xmlns:xlink="http://www.w3.org/1999/xlink"><defs /><path d="M1550 1725V1602Q1550 1557 1573.0 1524.0Q1596 1491 1634 1471Q1642 1466 1651.5 1463.0Q1661 1460 1669 1455Q1691 1441 1712.0 1425.5Q1733 1410 1754 1395Q1841 1333 1898.5 1244.5Q1956 1156 1990.5 1054.5Q2025 953 2039.0 845.5Q2053 738 2053 638Q2053 539 2036.0 433.0Q2019 327 1983.0 225.5Q1947 124 1890.0 35.0Q1833 -54 1752 -118Q1653 -144 1553 -144H1424L1370 -101L1316 -144H1276Q1202 -144 1131.5 -141.0Q1061 -138 988 -118Q907 -54 850.0 35.0Q793 124 757.0 225.5Q721 327 704.0 433.0Q687 539 687 638Q687 738 701.0 845.5Q715 953 749.5 1054.5Q784 1156 841.5 1244.5Q899 1333 986 1395Q1007 1410 1028.0 1425.5Q1049 1441 1071 1455Q1079 1460 1088.5 1463.0Q1098 1466 1106 1471Q1144 1491 1167.0 1524.0Q1190 1557 1190 1602V1725Z" style="fill:#d48c00;stroke:none" transform="scale(1,-1) translate(0,-256)" /></svg>