<?xml version="1.0" encoding="utf-8" ?>
<svg baseProfile="full" height="256" version="1.1" width="256" xmlns="http://www.w3.org/2000/svg" xmlns:ev="http://www.w3.org/2001/xml-events" xmlns:xlink="http://www.w3.org/1999/xlink"><defs /><path d="M759 638Q759 728 771.5 827.5Q784 927 814.5 1021.5Q845 1116 896.5 1198.0Q948 1280 1027 1336L1191 1452Q1198 1457 1206.0 1466.5Q1214 1476 1221.5 1486.0Q1229 1496 1235.0 1503.0Q1241 1510 1243 1510Q1251 1510 1251 1502Q1251 1500 1242.0 1485.5Q1233 1471 1222.0 1453.5Q1211 1436 1201.0 1420.5Q1191 1405 1189 1401Q1160 1354 1138.0 1294.0Q1116 1234 1100.5 1167.5Q1085 1101 1074.5 1030.0Q1064 959 1058.0 890.0Q1052 821 1049.5 756.5Q1047 692 1047 638Q1047 586 1049.5 520.0Q1052 454 1058.5 382.5Q1065 311 1076.0 237.0Q1087 163 1103.5 94.0Q1120 25 1143.0 -35.0Q1166 -95 1197 -139Q1114 -126 1048.0 -76.0Q982 -26 932.0 42.5Q882 111 848.0 190.5Q814 270 795 343Q759 487 759 638ZM1543 -139Q1574 -95 1597.0 -35.0Q1620 25 1636.5 94.0Q1653 163 1664.0 237.0Q1675 311 1681.5 382.5Q1688 454 1690.5 520.0Q1693 586 1693 638Q1693 692 1690.5 756.5Q1688 821 1682.0 890.0Q1676 959 1665.5 1030.0Q1655 1101 1639.5 1167.5Q1624 1234 1602.0 1294.0Q1580 1354 1551 1401Q1549 1405 1539.0 1420.5Q1529 1436 1518.0 1453.5Q1507 1471 1498.0 1485.5Q1489 1500 1489 1502Q1489 1510 1497 1510Q1499 1510 1505.0 1503.0Q1511 1496 1518.5 1486.0Q1526 1476 1534.0 1466.5Q1542 1457 1549 1452L1713 1336Q1792 1280 1843.5 1198.0Q1895 1116 1925.5 1021.5Q1956 927 1968.5 827.5Q1981 728 1981 638Q1981 487 1945 343Q1926 270 1892.0 190.5Q1858 111 1808.0 42.5Q1758 -26 1692.0 -76.0Q1626 -126 1543 -139Z" style="fill:#ffc83d;stroke:none" transform="scale(1,-1) translate(0,-256)" /></svg>