<?xml version="1.0" encoding="utf-8" ?>
<svg baseProfile="full" height="256" version="1.1" width="256" xmlns="http://www.w3.org/2000/svg" xmlns:ev="http://www.w3.org/2001/xml-events" xmlns:xlink="http://www.w3.org/1999/xlink"><defs /><path d="M1516 1691V1568Q1516 1547 1528.5 1531.5Q1541 1516 1559.5 1505.0Q1578 1494 1598.5 1486.0Q1619 1478 1634 1471L1879 1360Q1984 1312 2069.5 1237.5Q2155 1163 2215.0 1069.5Q2275 976 2307.5 867.5Q2340 759 2340 643Q2340 509 2296.5 385.5Q2253 262 2175.0 161.5Q2097 61 1988.5 -12.0Q1880 -85 1750 -119Q1702 -108 1652.0 -99.5Q1602 -91 1553 -91H1187Q1137 -91 1086.5 -99.5Q1036 -108 988 -118Q858 -84 750.0 -11.5Q642 61 564.0 162.0Q486 263 443.0 386.0Q400 509 400 643Q400 759 432.5 867.5Q465 976 525.0 1069.5Q585 1163 670.5 1237.5Q756 1312 861 1360L1106 1471Q1122 1478 1142.5 1486.5Q1163 1495 1182.0 1506.5Q1201 1518 1214.0 1533.5Q1227 1549 1227 1571V1694Z" style="fill:#ffb900;stroke:none" transform="scale(1,-1) translate(0,-256)" /></svg>