<?xml version="1.0" encoding="utf-8" ?>
<svg baseProfile="full" height="256" version="1.1" width="256" xmlns="http://www.w3.org/2000/svg" xmlns:ev="http://www.w3.org/2001/xml-events" xmlns:xlink="http://www.w3.org/1999/xlink"><defs /><path d="M1083 -287Q1068 -287 1057.5 -276.5Q1047 -266 1047 -251Q1047 -231 1058.0 -225.0Q1069 -219 1082.5 -215.5Q1096 -212 1107.0 -205.5Q1118 -199 1118 -179V-36Q1118 -22 1129.0 -11.0Q1140 0 1154 0Q1169 0 1179.5 -10.5Q1190 -21 1190 -36V-179Q1190 -201 1181.5 -220.5Q1173 -240 1159.0 -255.0Q1145 -270 1125.0 -278.5Q1105 -287 1083 -287ZM1658 -287Q1635 -287 1615.5 -278.5Q1596 -270 1581.5 -255.5Q1567 -241 1558.5 -221.5Q1550 -202 1550 -179V-36Q1550 -21 1560.5 -10.5Q1571 0 1586 0Q1600 0 1611.0 -11.0Q1622 -22 1622 -36V-179Q1622 -199 1633.0 -205.5Q1644 -212 1657.5 -215.0Q1671 -218 1682.0 -224.5Q1693 -231 1693 -251Q1693 -265 1682.5 -276.0Q1672 -287 1658 -287ZM1298 -287Q1283 -287 1272.5 -276.5Q1262 -266 1262 -251V-107Q1262 -93 1273.0 -82.0Q1284 -71 1298 -71Q1312 -71 1323.0 -82.0Q1334 -93 1334 -107V-251Q1334 -266 1323.5 -276.5Q1313 -287 1298 -287ZM1442 -287Q1427 -287 1416.5 -276.5Q1406 -266 1406 -251V-107Q1406 -93 1417.0 -82.0Q1428 -71 1442 -71Q1456 -71 1467.0 -82.0Q1478 -93 1478 -107V-251Q1478 -266 1467.5 -276.5Q1457 -287 1442 -287Z" style="fill:#d8b094;stroke:none" transform="scale(1,-1) translate(0,-256)" /></svg>