<?xml version="1.0" encoding="utf-8" ?>
<svg baseProfile="full" height="256" version="1.1" width="256" xmlns="http://www.w3.org/2000/svg" xmlns:ev="http://www.w3.org/2001/xml-events" xmlns:xlink="http://www.w3.org/1999/xlink"><defs /><path d="M2125 647Q2214 647 2292.5 613.0Q2371 579 2429.5 520.5Q2488 462 2522.0 383.5Q2556 305 2556 216V-72Q2556 -129 2528.5 -178.0Q2501 -227 2453 -256Q2424 -300 2382.0 -327.5Q2340 -355 2286 -358Q2286 -360 2278.5 -367.0Q2271 -374 2269 -376Q2240 -402 2201.5 -416.5Q2163 -431 2125 -431H687Q639 -431 598.5 -412.0Q558 -393 526 -358Q470 -354 429.0 -327.5Q388 -301 359 -256Q311 -227 283.5 -178.0Q256 -129 256 -72V216Q256 305 290.0 383.5Q324 462 382.5 520.5Q441 579 519.5 613.0Q598 647 687 647H925Q845 735 802.0 847.0Q759 959 759 1078V1222Q759 1311 782.0 1394.0Q805 1477 847.5 1548.5Q890 1620 949.0 1679.0Q1008 1738 1079.5 1780.5Q1151 1823 1234.0 1846.0Q1317 1869 1406 1869Q1495 1869 1578.0 1846.0Q1661 1823 1732.5 1780.5Q1804 1738 1863.0 1679.0Q1922 1620 1964.5 1548.5Q2007 1477 2030.0 1394.0Q2053 1311 2053 1222V1078Q2053 959 2009.0 847.5Q1965 736 1887 647Z" style="fill:#000000;stroke:none" transform="scale(1,-1) translate(0,-256)" /></svg>