<?xml version="1.0" encoding="utf-8" ?>
<svg baseProfile="full" height="256" version="1.1" width="256" xmlns="http://www.w3.org/2000/svg" xmlns:ev="http://www.w3.org/2001/xml-events" xmlns:xlink="http://www.w3.org/1999/xlink"><defs /><path d="M1693 1365 1909 1149V1078Q1909 974 1869.5 882.0Q1830 790 1761.5 722.0Q1693 654 1601.5 614.5Q1510 575 1406 575Q1302 575 1210.0 614.5Q1118 654 1050.0 722.0Q982 790 942.5 882.0Q903 974 903 1078V1149L1118 1365L1190 1293L1262 1365L1334 1293L1406 1365L1478 1293L1550 1365L1622 1293ZM1819 -23Q1787 -23 1764.5 -0.5Q1742 22 1742 54Q1742 69 1748.0 83.0Q1754 97 1765 108L1930 276Q1969 316 2021.5 338.0Q2074 360 2131 360Q2189 360 2240.0 337.5Q2291 315 2329.5 277.0Q2368 239 2390.0 187.5Q2412 136 2412 78V-72Q2412 -101 2390.5 -122.5Q2369 -144 2340 -144L2268 -215Q2239 -215 2218.0 -194.0Q2197 -173 2197 -144L2125 -287Q2100 -287 2086.0 -277.5Q2072 -268 2064.5 -253.0Q2057 -238 2055.0 -219.5Q2053 -201 2053 -182V-144L1981 -215Q1952 -215 1930.5 -194.0Q1909 -173 1909 -144V41Q1890 18 1870.5 -2.5Q1851 -23 1819 -23ZM993 -22Q977 -22 964.5 -16.0Q952 -10 941.5 -1.0Q931 8 921.5 19.0Q912 30 903 41V-144Q903 -173 881.5 -194.0Q860 -215 831 -215L759 -144V-182Q759 -201 757.0 -219.5Q755 -238 747.5 -253.0Q740 -268 726.0 -277.5Q712 -287 687 -287L615 -144Q615 -173 593.5 -194.0Q572 -215 543 -215L472 -144Q443 -144 421.5 -122.5Q400 -101 400 -72V78Q400 136 422.0 187.5Q444 239 482.5 277.0Q521 315 572.0 337.5Q623 360 681 360Q737 360 790.0 338.0Q843 316 882 276L1047 108Q1069 86 1069 54Q1069 22 1047.0 0.0Q1025 -22 993 -22Z" style="fill:#bad80a;stroke:none" transform="scale(1,-1) translate(0,-256)" /></svg>