<?xml version="1.0" encoding="utf-8" ?>
<svg baseProfile="full" height="256" version="1.1" width="256" xmlns="http://www.w3.org/2000/svg" xmlns:ev="http://www.w3.org/2001/xml-events" xmlns:xlink="http://www.w3.org/1999/xlink"><defs /><path d="M400 72V216Q400 276 422.5 328.0Q445 380 484.0 419.0Q523 458 575.0 480.5Q627 503 687 503Q747 503 799.5 480.5Q852 458 891.0 419.0Q930 380 952.5 328.0Q975 276 975 216V72ZM1837 72V216Q1837 276 1859.5 328.0Q1882 380 1921.0 419.0Q1960 458 2012.5 480.5Q2065 503 2125 503Q2184 503 2236.5 480.5Q2289 458 2328.0 419.0Q2367 380 2389.5 327.5Q2412 275 2412 216V72Z" style="fill:#0063b1;stroke:none" transform="scale(1,-1) translate(0,-256)" /></svg>