<?xml version="1.0" encoding="utf-8" ?>
<svg baseProfile="full" height="256" version="1.1" width="256" xmlns="http://www.w3.org/2000/svg" xmlns:ev="http://www.w3.org/2001/xml-events" xmlns:xlink="http://www.w3.org/1999/xlink"><defs /><path d="M903 72H472V216Q472 261 489.0 300.0Q506 339 535.0 368.0Q564 397 603.0 414.0Q642 431 687 431Q732 431 771.0 414.0Q810 397 839.5 368.0Q869 339 886.0 300.0Q903 261 903 216ZM2340 72H1909V216Q1909 261 1926.0 300.0Q1943 339 1972.5 368.0Q2002 397 2041.0 414.0Q2080 431 2125 431Q2170 431 2209.0 414.0Q2248 397 2277.0 368.0Q2306 339 2323.0 300.0Q2340 261 2340 216Z" style="fill:#1f1f1f;stroke:none" transform="scale(1,-1) translate(0,-256)" /></svg>