<?xml version="1.0" encoding="utf-8" ?>
<svg baseProfile="full" height="256" version="1.1" width="256" xmlns="http://www.w3.org/2000/svg" xmlns:ev="http://www.w3.org/2001/xml-events" xmlns:xlink="http://www.w3.org/1999/xlink"><defs /><path d="M2125 -287H687V503H1118Q1119 503 1139.0 498.0Q1159 493 1189.0 485.5Q1219 478 1254.5 469.0Q1290 460 1322.0 452.0Q1354 444 1377.0 438.0Q1400 432 1405 431Q1410 432 1433.5 438.0Q1457 444 1488.5 452.0Q1520 460 1555.5 469.0Q1591 478 1621.5 485.5Q1652 493 1672.0 498.0Q1692 503 1693 503H2125Z" style="fill:#3a96dd;stroke:none" transform="scale(1,-1) translate(0,-256)" /></svg>