<?xml version="1.0" encoding="utf-8" ?>
<svg baseProfile="full" height="256" version="1.1" width="256" xmlns="http://www.w3.org/2000/svg" xmlns:ev="http://www.w3.org/2001/xml-events" xmlns:xlink="http://www.w3.org/1999/xlink"><defs /><path d="M1478 287 1406 215 1334 287V359H1262V431H1190L1118 503H1693L1550 359H1478ZM687 -287Q658 -287 636.5 -265.5Q615 -244 615 -215V36Q615 51 625.5 61.5Q636 72 651 72Q666 72 676.5 61.5Q687 51 687 36ZM2125 -287V36Q2125 51 2135.5 61.5Q2146 72 2161 72Q2175 72 2186.0 61.0Q2197 50 2197 36V-215Q2197 -244 2175.5 -265.5Q2154 -287 2125 -287ZM1981 -215V36Q1981 51 1991.5 61.5Q2002 72 2017 72Q2032 72 2042.5 61.5Q2053 51 2053 36V-144Q2053 -173 2031.5 -194.0Q2010 -215 1981 -215ZM831 -215Q802 -215 780.5 -194.0Q759 -173 759 -144V36Q759 51 769.5 61.5Q780 72 795 72Q810 72 820.5 61.5Q831 51 831 36ZM2268 -215V36Q2268 50 2279.0 61.0Q2290 72 2304 72Q2319 72 2329.5 61.5Q2340 51 2340 36V-144Q2340 -173 2318.5 -194.0Q2297 -215 2268 -215ZM543 -215Q514 -215 493.0 -194.0Q472 -173 472 -144V36Q472 51 482.5 61.5Q493 72 508 72Q522 72 532.5 61.0Q543 50 543 36Z" style="fill:#8cbd18;stroke:none" transform="scale(1,-1) translate(0,-256)" /></svg>