<?xml version="1.0" encoding="utf-8" ?>
<svg baseProfile="full" height="256" version="1.1" width="256" xmlns="http://www.w3.org/2000/svg" xmlns:ev="http://www.w3.org/2001/xml-events" xmlns:xlink="http://www.w3.org/1999/xlink"><defs /><path d="M1262 719Q1262 749 1273.5 775.0Q1285 801 1304.5 820.5Q1324 840 1350.0 851.5Q1376 863 1406 863Q1436 863 1462.0 851.5Q1488 840 1507.5 820.5Q1527 801 1538.5 775.0Q1550 749 1550 719ZM1262 1150V1078Q1262 1049 1240.5 1027.5Q1219 1006 1190 1006Q1161 1006 1139.5 1027.5Q1118 1049 1118 1078V1150ZM1693 1150V1078Q1693 1049 1672.0 1027.5Q1651 1006 1622 1006Q1593 1006 1571.5 1027.5Q1550 1049 1550 1078V1150Z" style="fill:#000000;stroke:none" transform="scale(1,-1) translate(0,-256)" /></svg>