<?xml version="1.0" encoding="utf-8" ?>
<svg baseProfile="full" height="256" version="1.1" width="256" xmlns="http://www.w3.org/2000/svg" xmlns:ev="http://www.w3.org/2001/xml-events" xmlns:xlink="http://www.w3.org/1999/xlink"><defs /><path d="M1693 1438Q1753 1438 1805.0 1415.5Q1857 1393 1896.0 1354.0Q1935 1315 1957.5 1262.5Q1980 1210 1980 1150Q1980 969 1980.5 790.5Q1981 612 1981 431Q1981 417 1977.0 401.5Q1973 386 1967.0 370.0Q1961 354 1954.0 339.5Q1947 325 1940 313Q1901 247 1838.5 205.0Q1776 163 1703.0 139.0Q1630 115 1552.5 105.5Q1475 96 1405 96Q1336 96 1258.0 105.0Q1180 114 1106.5 138.5Q1033 163 970.5 205.0Q908 247 871 313Q865 324 858.0 339.0Q851 354 845.0 370.0Q839 386 835.0 402.0Q831 418 831 431V1150Q831 1210 853.5 1262.5Q876 1315 915.0 1354.0Q954 1393 1006.0 1415.5Q1058 1438 1118 1438Z" style="fill:#e5e5e5;stroke:none" transform="scale(1,-1) translate(0,-256)" /></svg>