<?xml version="1.0" encoding="utf-8" ?>
<svg baseProfile="full" height="256" version="1.1" width="256" xmlns="http://www.w3.org/2000/svg" xmlns:ev="http://www.w3.org/2001/xml-events" xmlns:xlink="http://www.w3.org/1999/xlink"><defs /><path d="M975 214 1047 143 812 -92Q781 -69 751.5 -44.5Q722 -20 695 7L903 214Q908 215 912.0 215.0Q916 215 921 215Q935 215 948.0 215.0Q961 215 975 214ZM1909 214 2116 6Q2089 -21 2059.5 -45.0Q2030 -69 2000 -92L1765 143L1837 214Q1855 214 1866.0 214.5Q1877 215 1884.0 215.5Q1891 216 1895.0 216.0Q1899 216 1902 216Q1905 216 1909 214Z" style="fill:#cccccc;stroke:none" transform="scale(1,-1) translate(0,-256)" /></svg>