<?xml version="1.0" encoding="utf-8" ?>
<svg baseProfile="full" height="256" version="1.1" width="256" xmlns="http://www.w3.org/2000/svg" xmlns:ev="http://www.w3.org/2001/xml-events" xmlns:xlink="http://www.w3.org/1999/xlink"><defs /><path d="M2080 -27 1406 647 732 -27Q652 45 590.5 130.0Q529 215 486.5 310.5Q444 406 422.0 509.0Q400 612 400 719Q400 858 436.0 986.5Q472 1115 537.5 1227.0Q603 1339 694.5 1430.5Q786 1522 898.0 1587.5Q1010 1653 1138.5 1689.0Q1267 1725 1406 1725Q1545 1725 1673.5 1689.0Q1802 1653 1914.0 1587.5Q2026 1522 2117.5 1430.5Q2209 1339 2274.5 1227.0Q2340 1115 2376.0 986.5Q2412 858 2412 719Q2412 612 2389.5 509.0Q2367 406 2324.5 311.0Q2282 216 2220.5 130.5Q2159 45 2080 -27Z" style="fill:#383838;stroke:none" transform="scale(1,-1) translate(0,-256)" /></svg>