<?xml version="1.0" encoding="utf-8" ?>
<svg baseProfile="full" height="256" version="1.1" width="256" xmlns="http://www.w3.org/2000/svg" xmlns:ev="http://www.w3.org/2001/xml-events" xmlns:xlink="http://www.w3.org/1999/xlink"><defs /><path d="M1981 431Q1979 342 1945.5 263.5Q1912 185 1854.0 126.5Q1796 68 1718.0 34.0Q1640 0 1550 0H1262Q1173 0 1094.5 34.0Q1016 68 957.5 126.5Q899 185 865.0 263.5Q831 342 831 431Q870 383 919.0 343.0Q968 303 1023.0 275.0Q1078 247 1138.5 231.5Q1199 216 1262 216H1550Q1628 216 1703.0 239.0Q1778 262 1844 306L1848 309Q1859 317 1870.5 325.0Q1882 333 1892 342Q1915 364 1936.5 386.0Q1958 408 1981 431Z" style="fill:#f03a17;stroke:none" transform="scale(1,-1) translate(0,-256)" /></svg>