<?xml version="1.0" encoding="utf-8" ?>
<svg baseProfile="full" height="256" version="1.1" width="256" xmlns="http://www.w3.org/2000/svg" xmlns:ev="http://www.w3.org/2001/xml-events" xmlns:xlink="http://www.w3.org/1999/xlink"><defs /><path d="M400 1244V1253Q400 1321 424.5 1380.5Q449 1440 492.5 1484.5Q536 1529 594.5 1555.0Q653 1581 722 1581Q804 1581 876.0 1550.0Q948 1519 1002.0 1465.5Q1056 1412 1087.0 1340.0Q1118 1268 1118 1186Q1118 1142 1106.0 1088.5Q1094 1035 1075.0 976.5Q1056 918 1031.0 856.5Q1006 795 981.0 737.0Q956 679 932.0 626.5Q908 574 890 533Q884 519 874.0 495.5Q864 472 854.5 447.0Q845 422 838.0 398.5Q831 375 831 360Q831 340 836.0 319.5Q841 299 850.0 279.5Q859 260 872.5 243.5Q886 227 903 216Q927 311 979.5 390.5Q1032 470 1105.0 527.0Q1178 584 1267.5 615.5Q1357 647 1455 647H2109Q2149 647 2187.5 653.5Q2226 660 2263.0 670.5Q2300 681 2337.0 693.5Q2374 706 2412 719V518Q2412 429 2393.0 343.0Q2374 257 2337.5 178.0Q2301 99 2248.0 28.5Q2195 -42 2128 -100Q2121 -105 2115.0 -111.0Q2109 -117 2103 -122Q2062 -157 2025.0 -187.5Q1988 -218 1947.5 -240.0Q1907 -262 1860.5 -274.5Q1814 -287 1755 -287H860Q762 -287 678.0 -244.5Q594 -202 532.0 -132.0Q470 -62 435.0 27.5Q400 117 400 211Q400 359 485 480L841 990Q871 1033 887.0 1083.0Q903 1133 903 1186Q903 1208 894.5 1228.0Q886 1248 871.5 1262.5Q857 1277 837.0 1285.5Q817 1294 795 1294Q772 1294 752.5 1285.5Q733 1277 718.5 1262.5Q704 1248 695.5 1228.0Q687 1208 687 1186Q687 1162 677.0 1140.0Q667 1118 650 1101L478 1065Z" style="fill:#f2f2f2;stroke:none" transform="scale(1,-1) translate(0,-256)" /></svg>