<?xml version="1.0" encoding="utf-8" ?>
<svg baseProfile="full" height="256" version="1.1" width="256" xmlns="http://www.w3.org/2000/svg" xmlns:ev="http://www.w3.org/2001/xml-events" xmlns:xlink="http://www.w3.org/1999/xlink"><defs /><path d="M860 -431Q774 -431 696.5 -406.5Q619 -382 551.5 -338.0Q484 -294 429.5 -233.5Q375 -173 336.5 -102.0Q298 -31 277.0 49.0Q256 129 256 211Q256 285 269.5 344.0Q283 403 307.0 455.0Q331 507 364.0 557.0Q397 607 437 663Q441 668 444.0 673.0Q447 678 451 683Q446 682 442.5 682.0Q439 682 434 682Q397 682 364.5 696.0Q332 710 308.0 734.5Q284 759 270.0 791.5Q256 824 256 861V1253Q256 1350 292.0 1436.0Q328 1522 391.0 1586.5Q454 1651 539.5 1688.0Q625 1725 723 1725Q834 1725 932.5 1682.5Q1031 1640 1104.0 1567.0Q1177 1494 1219.5 1395.5Q1262 1297 1262 1186Q1262 1130 1249.0 1068.0Q1236 1006 1216.0 943.5Q1196 881 1172.0 821.5Q1148 762 1126 711Q1202 750 1285.5 770.5Q1369 791 1455 791H2109Q2172 791 2234 811L2556 918V518Q2556 414 2533.5 312.5Q2511 211 2468.5 118.0Q2426 25 2363.5 -58.0Q2301 -141 2222 -209L2119 -296Q2041 -362 1949.5 -396.5Q1858 -431 1755 -431Z" style="fill:#000000;stroke:none" transform="scale(1,-1) translate(0,-256)" /></svg>