<?xml version="1.0" encoding="utf-8" ?>
<svg baseProfile="full" height="256" version="1.1" width="256" xmlns="http://www.w3.org/2000/svg" xmlns:ev="http://www.w3.org/2001/xml-events" xmlns:xlink="http://www.w3.org/1999/xlink"><defs /><path d="M529 1253Q529 1222 551 1200L650 1101L462 841Q452 826 434 826Q420 826 410.0 836.5Q400 847 400 861V899L455 1076L400 1178V1244Q427 1244 444.5 1255.0Q462 1266 475.5 1283.0Q489 1300 501.0 1321.0Q513 1342 527 1362Q535 1373 548 1373Q558 1373 565.0 1366.0Q572 1359 572 1349Q572 1340 565.5 1330.5Q559 1321 550.5 1309.0Q542 1297 535.5 1283.0Q529 1269 529 1253Z" style="fill:#383838;stroke:none" transform="scale(1,-1) translate(0,-256)" /></svg>