<?xml version="1.0" encoding="utf-8" ?>
<svg baseProfile="full" height="256" version="1.1" width="256" xmlns="http://www.w3.org/2000/svg" xmlns:ev="http://www.w3.org/2001/xml-events" xmlns:xlink="http://www.w3.org/1999/xlink"><defs /><path d="M1664 1510H2059Q2104 1510 2143.0 1493.0Q2182 1476 2211.5 1446.5Q2241 1417 2258.0 1378.0Q2275 1339 2275 1294V575H550V1294Q550 1339 567.0 1378.0Q584 1417 613.5 1446.5Q643 1476 682.0 1493.0Q721 1510 766 1510H1161Q1161 1540 1172.5 1566.0Q1184 1592 1203.5 1611.5Q1223 1631 1249.0 1642.0Q1275 1653 1305 1653Q1336 1653 1364.0 1640.0Q1392 1627 1412 1604Q1432 1627 1460.5 1640.0Q1489 1653 1520 1653Q1550 1653 1576.0 1642.0Q1602 1631 1621.5 1611.5Q1641 1592 1652.5 1566.0Q1664 1540 1664 1510Z" style="fill:#ffb900;stroke:none" transform="scale(1,-1) translate(0,-256)" /></svg>