<?xml version="1.0" encoding="utf-8" ?>
<svg baseProfile="full" height="256" version="1.1" width="256" xmlns="http://www.w3.org/2000/svg" xmlns:ev="http://www.w3.org/2001/xml-events" xmlns:xlink="http://www.w3.org/1999/xlink"><defs /><path d="M2347 575Q2340 503 2318.0 433.0Q2296 363 2266 297Q2204 163 2116.5 66.5Q2029 -30 1920.5 -92.5Q1812 -155 1684.0 -185.0Q1556 -215 1412 -215Q1269 -215 1140.5 -185.0Q1012 -155 903.5 -92.0Q795 -29 707.5 67.5Q620 164 559 297Q528 363 506.5 432.5Q485 502 478 575L694 791V1150Q694 1195 711.0 1234.0Q728 1273 757.0 1302.5Q786 1332 825.0 1349.0Q864 1366 909 1366H1916Q1961 1366 2000.0 1349.0Q2039 1332 2068.0 1302.5Q2097 1273 2114.0 1234.0Q2131 1195 2131 1150V791Z" style="fill:#e84757;stroke:none" transform="scale(1,-1) translate(0,-256)" /></svg>