<?xml version="1.0" encoding="utf-8" ?>
<svg baseProfile="full" height="256" version="1.1" width="256" xmlns="http://www.w3.org/2000/svg" xmlns:ev="http://www.w3.org/2001/xml-events" xmlns:xlink="http://www.w3.org/1999/xlink"><defs /><path d="M2418 707 2495 629 2489 562Q2480 465 2451.5 373.0Q2423 281 2378 195Q2303 52 2202.0 -52.0Q2101 -156 1978.0 -224.5Q1855 -293 1712.0 -326.0Q1569 -359 1411 -359Q1253 -359 1110.5 -326.0Q968 -293 845.0 -224.5Q722 -156 621.0 -52.0Q520 52 445 195Q400 281 372.0 373.0Q344 465 334 562L328 629L405 707V1294Q405 1368 433.5 1433.5Q462 1499 511.0 1547.5Q560 1596 625.5 1624.5Q691 1653 765 1653H1055Q1094 1720 1160.0 1758.5Q1226 1797 1304 1797Q1360 1797 1411 1776Q1462 1797 1519 1797Q1597 1797 1663.0 1758.5Q1729 1720 1768 1653H2058Q2132 1653 2197.5 1624.5Q2263 1596 2312.0 1547.5Q2361 1499 2389.5 1433.5Q2418 1368 2418 1294Z" style="fill:#000000;stroke:none" transform="scale(1,-1) translate(0,-256)" /></svg>