<?xml version="1.0" encoding="utf-8" ?>
<svg baseProfile="full" height="256" version="1.1" width="256" xmlns="http://www.w3.org/2000/svg" xmlns:ev="http://www.w3.org/2001/xml-events" xmlns:xlink="http://www.w3.org/1999/xlink"><defs /><path d="M1334 1725Q1443 1725 1544.0 1697.0Q1645 1669 1733.0 1617.5Q1821 1566 1893.0 1493.5Q1965 1421 2016.5 1333.5Q2068 1246 2096.5 1145.0Q2125 1044 2125 935V719H1981Q1981 754 1981.5 790.0Q1982 826 1982 861Q1982 935 1975.0 1007.5Q1968 1080 1943 1150H1406Q1319 1150 1249.0 1182.5Q1179 1215 1118 1275L944 1449Q884 1403 836.5 1345.5Q789 1288 755.5 1222.0Q722 1156 704.5 1083.5Q687 1011 687 935V719H543V935Q543 1044 571.5 1145.0Q600 1246 651.5 1333.5Q703 1421 775.0 1493.5Q847 1566 935.0 1617.5Q1023 1669 1124.0 1697.0Q1225 1725 1334 1725ZM1693 288Q1723 288 1749.0 276.5Q1775 265 1794.5 245.5Q1814 226 1825.5 200.0Q1837 174 1837 144H831Q831 174 842.5 200.0Q854 226 873.5 245.5Q893 265 919.0 276.5Q945 288 975 288Z" style="fill:#8e562e;stroke:none" transform="scale(1,-1) translate(0,-256)" /></svg>