<?xml version="1.0" encoding="utf-8" ?>
<svg baseProfile="full" height="256" version="1.1" width="256" xmlns="http://www.w3.org/2000/svg" xmlns:ev="http://www.w3.org/2001/xml-events" xmlns:xlink="http://www.w3.org/1999/xlink"><defs /><path d="M1533 1677Q1651 1635 1747.0 1560.5Q1843 1486 1911.0 1388.5Q1979 1291 2016.0 1175.0Q2053 1059 2053 935V593Q2053 520 2067.5 457.5Q2082 395 2109.5 339.0Q2137 283 2177.0 232.0Q2217 181 2268 132V-215H1592Q1570 -264 1536.0 -303.5Q1502 -343 1459.0 -371.5Q1416 -400 1366.0 -415.5Q1316 -431 1262 -431Q1209 -431 1158.5 -415.5Q1108 -400 1065.0 -372.0Q1022 -344 988.0 -304.0Q954 -264 933 -215H256V132Q306 180 346.0 231.5Q386 283 414.0 339.5Q442 396 457.0 459.0Q472 522 472 593V935Q472 1059 509.0 1175.0Q546 1291 614.0 1388.5Q682 1486 778.0 1560.5Q874 1635 991 1677Q1006 1720 1033.0 1755.5Q1060 1791 1096.0 1816.0Q1132 1841 1174.5 1855.0Q1217 1869 1262 1869Q1308 1869 1350.5 1855.0Q1393 1841 1428.5 1816.0Q1464 1791 1491.0 1755.5Q1518 1720 1533 1677Z" style="fill:#000000;stroke:none" transform="scale(1,-1) translate(0,-256)" /></svg>