<?xml version="1.0" encoding="utf-8" ?>
<svg baseProfile="full" height="256" version="1.1" width="256" xmlns="http://www.w3.org/2000/svg" xmlns:ev="http://www.w3.org/2001/xml-events" xmlns:xlink="http://www.w3.org/1999/xlink"><defs /><path d="M1404 1565Q1515 1540 1607.5 1481.0Q1700 1422 1767.0 1338.5Q1834 1255 1871.5 1151.5Q1909 1048 1909 935V593Q1909 444 1964.0 310.5Q2019 177 2125 72L2053 0H472L400 72Q505 177 560.0 311.0Q615 445 615 593V935Q615 1048 652.5 1151.5Q690 1255 757.0 1338.5Q824 1422 916.5 1481.0Q1009 1540 1120 1565Q1119 1570 1118.5 1576.0Q1118 1582 1118 1587Q1118 1615 1130.0 1640.0Q1142 1665 1162.0 1684.0Q1182 1703 1208.0 1714.0Q1234 1725 1262 1725Q1293 1725 1321.0 1712.0Q1349 1699 1369.0 1676.5Q1389 1654 1399.0 1625.0Q1409 1596 1404 1565Z" style="fill:#ffc83d;stroke:none" transform="scale(1,-1) translate(0,-256)" /></svg>