<?xml version="1.0" encoding="utf-8" ?>
<svg baseProfile="full" height="256" version="1.1" width="256" xmlns="http://www.w3.org/2000/svg" xmlns:ev="http://www.w3.org/2001/xml-events" xmlns:xlink="http://www.w3.org/1999/xlink"><defs /><path d="M723 89Q746 89 764.0 97.5Q782 106 799 121Q821 141 842.0 163.0Q863 185 883.5 207.5Q904 230 925.0 251.5Q946 273 970 292Q988 306 1007.5 317.0Q1027 328 1047 340L1170 220Q1158 197 1147.0 180.0Q1136 163 1124.0 147.0Q1112 131 1098.0 116.0Q1084 101 1066 83Q1027 44 991.5 6.5Q956 -31 916.5 -60.5Q877 -90 830.5 -108.0Q784 -126 723 -126Q656 -126 597.0 -100.5Q538 -75 494.5 -31.0Q451 13 425.5 72.0Q400 131 400 198Q400 220 408.5 239.5Q417 259 432.0 273.5Q447 288 466.5 296.5Q486 305 508 305Q530 305 549.5 296.5Q569 288 583.5 273.5Q598 259 606.5 239.5Q615 220 615 198Q615 176 623.5 156.0Q632 136 647.0 121.0Q662 106 681.5 97.5Q701 89 723 89Z" style="fill:#f7b189;stroke:none" transform="scale(1,-1) translate(0,-256)" /></svg>