<?xml version="1.0" encoding="utf-8" ?>
<svg baseProfile="full" height="256" version="1.1" width="256" xmlns="http://www.w3.org/2000/svg" xmlns:ev="http://www.w3.org/2001/xml-events" xmlns:xlink="http://www.w3.org/1999/xlink"><defs /><path d="M2556 1510Q2556 1466 2539.5 1427.0Q2523 1388 2493 1357L1323 137Q1372 126 1413.5 99.5Q1455 73 1485.5 36.0Q1516 -1 1533.0 -47.0Q1550 -93 1550 -144Q1550 -203 1527.0 -255.0Q1504 -307 1464.5 -346.0Q1425 -385 1372.5 -408.0Q1320 -431 1262 -431Q1210 -431 1162.5 -413.0Q1115 -395 1077.5 -363.5Q1040 -332 1014.5 -288.0Q989 -244 980 -193Q923 -231 857.5 -250.5Q792 -270 723 -270Q626 -270 541.0 -233.0Q456 -196 392.5 -132.5Q329 -69 292.5 16.0Q256 101 256 198Q256 250 276.0 295.5Q296 341 330.5 375.0Q365 409 410.5 429.0Q456 449 508 449Q549 449 587.0 436.0Q625 423 656.5 399.5Q688 376 711.5 344.0Q735 312 748 273L2191 1665Q2254 1725 2340 1725Q2385 1725 2424.0 1708.0Q2463 1691 2492.5 1662.0Q2522 1633 2539.0 1594.0Q2556 1555 2556 1510Z" style="fill:#000000;stroke:none" transform="scale(1,-1) translate(0,-256)" /></svg>