<?xml version="1.0" encoding="utf-8" ?>
<svg baseProfile="full" height="256" version="1.1" width="256" xmlns="http://www.w3.org/2000/svg" xmlns:ev="http://www.w3.org/2001/xml-events" xmlns:xlink="http://www.w3.org/1999/xlink"><defs /><path d="M1406 -144Q1406 -174 1394.5 -200.0Q1383 -226 1363.5 -245.5Q1344 -265 1318.0 -276.0Q1292 -287 1262 -287Q1232 -287 1206.0 -276.0Q1180 -265 1160.5 -245.5Q1141 -226 1129.5 -200.0Q1118 -174 1118 -144Q1118 -114 1129.5 -88.0Q1141 -62 1160.5 -42.5Q1180 -23 1206.0 -11.5Q1232 0 1262 0Q1292 0 1318.0 -11.5Q1344 -23 1363.5 -42.5Q1383 -62 1394.5 -88.0Q1406 -114 1406 -144Z" style="fill:#ffffff;stroke:none" transform="scale(1,-1) translate(0,-256)" /></svg>