<?xml version="1.0" encoding="utf-8" ?>
<svg baseProfile="full" height="256" version="1.1" width="256" xmlns="http://www.w3.org/2000/svg" xmlns:ev="http://www.w3.org/2001/xml-events" xmlns:xlink="http://www.w3.org/1999/xlink"><defs /><path d="M1406 72Q1446 72 1488.5 77.5Q1531 83 1572.5 93.5Q1614 104 1653.5 120.0Q1693 136 1727 157Q1739 164 1752.5 174.0Q1766 184 1780.5 193.5Q1795 203 1809.5 209.5Q1824 216 1838 216Q1868 216 1888.5 195.0Q1909 174 1909 144Q1909 124 1901.0 111.5Q1893 99 1880 86Q1842 48 1783.0 18.5Q1724 -11 1657.5 -31.0Q1591 -51 1524.5 -61.0Q1458 -71 1406 -71Q1352 -71 1286.0 -61.0Q1220 -51 1154.0 -31.0Q1088 -11 1029.5 18.0Q971 47 932 86Q918 100 910.5 112.0Q903 124 903 144Q903 173 924.5 194.5Q946 216 975 216Q988 216 1003.0 209.5Q1018 203 1032.5 193.5Q1047 184 1060.5 174.0Q1074 164 1085 157Q1118 136 1157.5 120.0Q1197 104 1239.5 93.5Q1282 83 1324.5 77.5Q1367 72 1406 72ZM1262 683Q1262 631 1242.5 585.0Q1223 539 1189.0 505.0Q1155 471 1109.0 451.0Q1063 431 1011 431Q959 431 913.0 451.0Q867 471 833.0 505.0Q799 539 779.0 585.0Q759 631 759 683V719H831Q831 681 845.0 648.5Q859 616 883.5 591.5Q908 567 940.5 553.0Q973 539 1011 539Q1048 539 1081.0 553.0Q1114 567 1138.0 591.5Q1162 616 1176.0 648.5Q1190 681 1190 719H1262ZM1981 719H2053V683Q2053 631 2033.0 585.0Q2013 539 1979.0 505.0Q1945 471 1899.0 451.0Q1853 431 1801 431Q1749 431 1703.0 451.0Q1657 471 1623.0 505.0Q1589 539 1569.5 585.0Q1550 631 1550 683V719H1622Q1622 681 1636.0 648.5Q1650 616 1674.0 591.5Q1698 567 1730.5 553.0Q1763 539 1801 539Q1838 539 1871.0 553.0Q1904 567 1928.5 591.5Q1953 616 1967.0 648.5Q1981 681 1981 719Z" style="fill:#000000;stroke:none" transform="scale(1,-1) translate(0,-256)" /></svg>