<?xml version="1.0" encoding="utf-8" ?>
<svg baseProfile="full" height="256" version="1.1" width="256" xmlns="http://www.w3.org/2000/svg" xmlns:ev="http://www.w3.org/2001/xml-events" xmlns:xlink="http://www.w3.org/1999/xlink"><defs /><path d="M1190 1150Q1220 1150 1241.0 1129.0Q1262 1108 1262 1078Q1262 1049 1240.5 1027.5Q1219 1006 1190 1006Q1126 1006 1076.5 994.5Q1027 983 983.5 961.0Q940 939 899.5 907.5Q859 876 813 836Q799 824 789.0 818.0Q779 812 760 812Q731 812 709.0 832.5Q687 853 687 883Q687 897 692.0 908.5Q697 920 705 931Q742 982 799.5 1022.5Q857 1063 923.0 1091.5Q989 1120 1058.5 1135.0Q1128 1150 1190 1150ZM1622 1150Q1685 1150 1754.0 1135.0Q1823 1120 1889.0 1092.0Q1955 1064 2012.0 1023.0Q2069 982 2107 931Q2115 920 2120.0 909.0Q2125 898 2125 884Q2125 854 2103.5 833.0Q2082 812 2052 812Q2033 812 2023.0 818.0Q2013 824 1999 836Q1953 876 1912.5 907.5Q1872 939 1828.5 961.0Q1785 983 1735.0 994.5Q1685 1006 1622 1006Q1593 1006 1571.5 1027.5Q1550 1049 1550 1078Q1550 1108 1571.0 1129.0Q1592 1150 1622 1150Z" style="fill:#d48c00;stroke:none" transform="scale(1,-1) translate(0,-256)" /></svg>