<?xml version="1.0" encoding="utf-8" ?>
<svg baseProfile="full" height="256" version="1.1" width="256" xmlns="http://www.w3.org/2000/svg" xmlns:ev="http://www.w3.org/2001/xml-events" xmlns:xlink="http://www.w3.org/1999/xlink"><defs /><path d="M1118 1725Q1217 1725 1308.5 1699.5Q1400 1674 1480.0 1627.0Q1560 1580 1625.5 1514.5Q1691 1449 1738.0 1369.0Q1785 1289 1810.5 1197.5Q1836 1106 1836 1007Q1811 1007 1795.0 995.5Q1779 984 1765.0 970.5Q1751 957 1734.5 946.0Q1718 935 1693 935Q1667 935 1651.0 946.0Q1635 957 1620.5 970.5Q1606 984 1590.0 995.5Q1574 1007 1549 1007Q1523 1007 1507.0 995.5Q1491 984 1476.5 970.5Q1462 957 1446.0 946.0Q1430 935 1405 935Q1380 935 1364.0 946.0Q1348 957 1334.0 970.5Q1320 984 1303.5 995.5Q1287 1007 1262 1007Q1236 1007 1220.0 995.5Q1204 984 1189.5 970.5Q1175 957 1159.0 946.0Q1143 935 1118 935Q1092 935 1076.0 946.0Q1060 957 1045.5 970.5Q1031 984 1015.0 995.5Q999 1007 974 1007Q949 1007 933.0 995.5Q917 984 903.0 970.5Q889 957 872.5 946.0Q856 935 831 935Q805 935 789.0 946.0Q773 957 758.5 970.5Q744 984 728.0 995.5Q712 1007 687 1007Q661 1007 645.0 995.5Q629 984 614.5 970.5Q600 957 584.0 946.0Q568 935 543 935Q517 935 501.0 946.0Q485 957 470.5 970.5Q456 984 440.0 995.5Q424 1007 400 1007Q400 1106 425.5 1197.5Q451 1289 498.0 1369.0Q545 1449 610.5 1514.5Q676 1580 756.0 1627.0Q836 1674 927.5 1699.5Q1019 1725 1118 1725Z" style="fill:#ee3f86;stroke:none" transform="scale(1,-1) translate(0,-256)" /></svg>