<?xml version="1.0" encoding="utf-8" ?>
<svg baseProfile="full" height="256" version="1.1" width="256" xmlns="http://www.w3.org/2000/svg" xmlns:ev="http://www.w3.org/2001/xml-events" xmlns:xlink="http://www.w3.org/1999/xlink"><defs /><path d="M256 1007Q256 1126 287.0 1236.0Q318 1346 374.0 1441.5Q430 1537 509.0 1616.0Q588 1695 683.5 1751.0Q779 1807 889.0 1838.0Q999 1869 1118 1869Q1222 1869 1322.5 1844.0Q1423 1819 1516 1771Q1554 1810 1594.5 1834.5Q1635 1859 1692 1859Q1737 1859 1776.0 1842.0Q1815 1825 1844.5 1795.5Q1874 1766 1891.0 1727.0Q1908 1688 1908 1643Q1908 1592 1889.5 1555.0Q1871 1518 1837 1482Q1907 1376 1943.5 1255.0Q1980 1134 1980 1007Q1980 960 1973.0 916.5Q1966 873 1954.5 830.5Q1943 788 1927.5 746.5Q1912 705 1896 662L1892 651L1238 -366Q1218 -396 1186.0 -413.5Q1154 -431 1118 -431Q1082 -431 1050.0 -413.5Q1018 -396 998 -366L344 651L340 662Q323 705 308.0 746.5Q293 788 281.5 830.5Q270 873 263.0 916.5Q256 960 256 1007Z" style="fill:#000000;stroke:none" transform="scale(1,-1) translate(0,-256)" /></svg>