<?xml version="1.0" encoding="utf-8" ?>
<svg baseProfile="full" height="256" version="1.1" width="256" xmlns="http://www.w3.org/2000/svg" xmlns:ev="http://www.w3.org/2001/xml-events" xmlns:xlink="http://www.w3.org/1999/xlink"><defs /><path d="M1836 1007Q1836 934 1817.5 859.5Q1799 785 1765 720Q1601 690 1437.5 674.0Q1274 658 1107 658Q787 658 471 720Q436 785 418.0 859.5Q400 934 400 1007Q400 1070 440.5 1117.0Q481 1164 545.5 1197.0Q610 1230 690.5 1251.0Q771 1272 851.0 1284.0Q931 1296 1001.5 1300.5Q1072 1305 1118 1305Q1152 1305 1201.0 1302.5Q1250 1300 1307.0 1294.0Q1364 1288 1425.0 1277.5Q1486 1267 1545.0 1251.0Q1604 1235 1657.0 1213.0Q1710 1191 1749.5 1161.0Q1789 1131 1812.5 1093.0Q1836 1055 1836 1007Z" style="fill:#f2f2f2;stroke:none" transform="scale(1,-1) translate(0,-256)" /></svg>