<?xml version="1.0" encoding="utf-8" ?>
<svg baseProfile="full" height="256" version="1.1" width="256" xmlns="http://www.w3.org/2000/svg" xmlns:ev="http://www.w3.org/2001/xml-events" xmlns:xlink="http://www.w3.org/1999/xlink"><defs /><path d="M687 1401Q687 1386 676.5 1375.5Q666 1365 651 1365Q636 1365 625.5 1375.5Q615 1386 615 1401Q615 1416 625.5 1426.5Q636 1437 651 1437Q666 1437 676.5 1426.5Q687 1416 687 1401ZM687 1257Q687 1242 676.5 1231.5Q666 1221 651 1221Q636 1221 625.5 1231.5Q615 1242 615 1257Q615 1272 625.5 1282.5Q636 1293 651 1293Q666 1293 676.5 1282.5Q687 1272 687 1257ZM831 1257Q831 1242 820.5 1231.5Q810 1221 795 1221Q780 1221 769.5 1231.5Q759 1242 759 1257Q759 1272 769.5 1282.5Q780 1293 795 1293Q810 1293 820.5 1282.5Q831 1272 831 1257Z" style="fill:#f495bf;stroke:none" transform="scale(1,-1) translate(0,-256)" /></svg>