<?xml version="1.0" encoding="utf-8" ?>
<svg baseProfile="full" height="256" version="1.1" width="256" xmlns="http://www.w3.org/2000/svg" xmlns:ev="http://www.w3.org/2001/xml-events" xmlns:xlink="http://www.w3.org/1999/xlink"><defs /><path d="M1119 971V827Q1119 805 1110.5 785.5Q1102 766 1087.0 751.0Q1072 736 1052.5 727.5Q1033 719 1011 719Q988 719 968.5 727.5Q949 736 934.5 750.5Q920 765 911.5 784.5Q903 804 903 827V971Q903 993 911.5 1013.0Q920 1033 935.0 1047.0Q950 1061 969.5 1069.5Q989 1078 1011 1078Q1033 1078 1052.5 1069.5Q1072 1061 1087.0 1046.5Q1102 1032 1110.5 1012.5Q1119 993 1119 971ZM1801 1078Q1823 1078 1842.5 1069.5Q1862 1061 1877.0 1047.0Q1892 1033 1900.5 1013.0Q1909 993 1909 971V827Q1909 804 1900.5 784.5Q1892 765 1877.5 750.5Q1863 736 1843.0 727.5Q1823 719 1801 719Q1778 719 1758.5 727.5Q1739 736 1725.0 751.0Q1711 766 1702.5 785.5Q1694 805 1694 827V971Q1694 993 1702.5 1012.5Q1711 1032 1725.5 1046.5Q1740 1061 1759.5 1069.5Q1779 1078 1801 1078ZM1190 440Q1275 440 1359.5 417.0Q1444 394 1519.0 350.5Q1594 307 1655.5 245.5Q1717 184 1756 107Q1765 90 1765 72Q1765 43 1744.0 21.5Q1723 0 1694 0Q1673 0 1655.5 14.0Q1638 28 1623.0 47.5Q1608 67 1595.5 88.0Q1583 109 1571 123Q1536 165 1492.5 197.5Q1449 230 1399.5 252.0Q1350 274 1297.0 285.5Q1244 297 1190 297Q1161 297 1139.5 318.0Q1118 339 1118 368Q1118 397 1139.5 418.5Q1161 440 1190 440Z" style="fill:#000000;stroke:none" transform="scale(1,-1) translate(0,-256)" /></svg>