<?xml version="1.0" encoding="utf-8" ?>
<svg baseProfile="full" height="256" version="1.1" width="256" xmlns="http://www.w3.org/2000/svg" xmlns:ev="http://www.w3.org/2001/xml-events" xmlns:xlink="http://www.w3.org/1999/xlink"><defs /><path d="M687 1078Q687 1108 708 1129L996 1417Q1017 1438 1046 1438Q1075 1438 1096.5 1416.5Q1118 1395 1118 1366Q1118 1336 1097 1315L810 1028Q788 1006 759 1006Q730 1006 708.5 1027.5Q687 1049 687 1078ZM1765 1438Q1795 1438 1816 1417L2104 1129Q2125 1108 2125 1078Q2125 1049 2103.5 1027.5Q2082 1006 2053 1006Q2024 1006 2002 1028L1715 1315Q1693 1337 1693 1366Q1693 1395 1714.5 1416.5Q1736 1438 1765 1438Z" style="fill:#d48c00;stroke:none" transform="scale(1,-1) translate(0,-256)" /></svg>