<?xml version="1.0" encoding="utf-8" ?>
<svg baseProfile="full" height="256" version="1.1" width="256" xmlns="http://www.w3.org/2000/svg" xmlns:ev="http://www.w3.org/2001/xml-events" xmlns:xlink="http://www.w3.org/1999/xlink"><defs /><path d="M472 1366 687 1581 903 1366 1118 1581 1334 1366 1550 1581 1765 1366 1981 1581 2197 1366 1981 1150 2197 935 1981 719 2197 503 1981 288 2197 72 1981 -144 1765 72 1550 -144 1334 72 1118 -144 903 72 687 -144 472 72 687 288 472 503 687 719 472 935 687 1150Z" style="fill:#8e562e;stroke:none" transform="scale(1,-1) translate(0,-256)" /></svg>