<?xml version="1.0" encoding="utf-8" ?>
<svg baseProfile="full" height="256" version="1.1" width="256" xmlns="http://www.w3.org/2000/svg" xmlns:ev="http://www.w3.org/2001/xml-events" xmlns:xlink="http://www.w3.org/1999/xlink"><defs /><path d="M400 431Q400 499 430.5 556.5Q461 614 510.5 662.0Q560 710 624.5 748.0Q689 786 757.5 815.0Q826 844 892.5 863.5Q959 883 1014 895Q1111 915 1208.5 925.0Q1306 935 1406 935Q1506 935 1603.5 925.0Q1701 915 1798 895Q1853 883 1919.5 863.5Q1986 844 2054.5 815.0Q2123 786 2187.5 748.0Q2252 710 2301.5 662.0Q2351 614 2381.5 556.5Q2412 499 2412 431Q2412 364 2383.0 308.0Q2354 252 2306.5 205.0Q2259 158 2197.5 120.5Q2136 83 2070.5 54.0Q2005 25 1940.5 5.0Q1876 -15 1822 -27Q1719 -50 1615.5 -61.0Q1512 -72 1406 -72Q1300 -72 1196.5 -61.0Q1093 -50 990 -27Q936 -15 871.5 5.0Q807 25 741.5 54.0Q676 83 614.5 120.5Q553 158 505.5 205.0Q458 252 429.0 308.5Q400 365 400 431Z" style="fill:#bb9167;stroke:none" transform="scale(1,-1) translate(0,-256)" /></svg>