<?xml version="1.0" encoding="utf-8" ?>
<svg baseProfile="full" height="256" version="1.1" width="256" xmlns="http://www.w3.org/2000/svg" xmlns:ev="http://www.w3.org/2001/xml-events" xmlns:xlink="http://www.w3.org/1999/xlink"><defs /><path d="M1083 1150Q1068 1150 1057.5 1160.5Q1047 1171 1047 1186Q1047 1216 1036.5 1238.0Q1026 1260 1010.0 1279.0Q994 1298 975.0 1316.0Q956 1334 940.0 1356.0Q924 1378 913.5 1406.0Q903 1434 903 1474Q903 1489 913.5 1499.5Q924 1510 939 1510Q954 1510 964.5 1499.5Q975 1489 975 1474Q975 1444 985.5 1422.0Q996 1400 1012.0 1381.0Q1028 1362 1046.5 1343.5Q1065 1325 1081.0 1303.0Q1097 1281 1107.5 1253.0Q1118 1225 1118 1186Q1118 1172 1107.5 1161.0Q1097 1150 1083 1150ZM1442 1150Q1427 1150 1416.5 1160.5Q1406 1171 1406 1186Q1406 1216 1395.5 1238.0Q1385 1260 1369.0 1279.0Q1353 1298 1334.0 1316.0Q1315 1334 1299.0 1356.0Q1283 1378 1272.5 1406.0Q1262 1434 1262 1474Q1262 1489 1272.5 1499.5Q1283 1510 1298 1510Q1313 1510 1323.5 1499.5Q1334 1489 1334 1474Q1334 1444 1344.5 1422.0Q1355 1400 1371.0 1381.0Q1387 1362 1406.0 1344.0Q1425 1326 1441.0 1303.5Q1457 1281 1467.5 1253.0Q1478 1225 1478 1186Q1478 1171 1467.5 1160.5Q1457 1150 1442 1150ZM1801 1150Q1786 1150 1775.5 1160.5Q1765 1171 1765 1186Q1765 1216 1754.5 1237.5Q1744 1259 1728.0 1278.0Q1712 1297 1693.5 1315.0Q1675 1333 1659.0 1355.0Q1643 1377 1632.5 1405.5Q1622 1434 1622 1474Q1622 1489 1632.5 1499.5Q1643 1510 1658 1510Q1672 1510 1682.5 1499.0Q1693 1488 1693 1474Q1693 1444 1703.5 1422.0Q1714 1400 1730.0 1381.0Q1746 1362 1765.0 1344.0Q1784 1326 1800.0 1303.5Q1816 1281 1826.5 1253.0Q1837 1225 1837 1186Q1837 1171 1826.5 1160.5Q1816 1150 1801 1150Z" style="fill:#f8ffb3;stroke:none" transform="scale(1,-1) translate(0,-256)" /></svg>