<?xml version="1.0" encoding="utf-8" ?>
<svg baseProfile="full" height="256" version="1.1" width="256" xmlns="http://www.w3.org/2000/svg" xmlns:ev="http://www.w3.org/2001/xml-events" xmlns:xlink="http://www.w3.org/1999/xlink"><defs /><path d="M2340 1150Q2340 1133 2337.0 1113.5Q2334 1094 2327 1078Q2316 1052 2277.0 1031.5Q2238 1011 2180.0 995.0Q2122 979 2050.0 968.0Q1978 957 1902.0 949.0Q1826 941 1749.5 936.5Q1673 932 1606.5 929.5Q1540 927 1487.5 926.0Q1435 925 1406 925Q1377 925 1324.5 926.0Q1272 927 1205.5 929.5Q1139 932 1062.5 936.5Q986 941 910.0 949.0Q834 957 762.0 968.0Q690 979 632.0 995.0Q574 1011 535.0 1031.5Q496 1052 485 1078Q478 1094 475.0 1113.5Q472 1133 472 1150Q472 1210 502.0 1261.0Q532 1312 580.5 1353.5Q629 1395 691.5 1427.5Q754 1460 818.5 1484.5Q883 1509 945.0 1525.0Q1007 1541 1055 1550Q1143 1566 1230.0 1573.5Q1317 1581 1406 1581Q1494 1581 1581.5 1573.5Q1669 1566 1756 1550Q1804 1541 1866.0 1525.0Q1928 1509 1993.0 1484.5Q2058 1460 2120.0 1427.5Q2182 1395 2231.0 1353.5Q2280 1312 2310.0 1261.5Q2340 1211 2340 1150Z" style="fill:#cccccc;stroke:none" transform="scale(1,-1) translate(0,-256)" /></svg>