<?xml version="1.0" encoding="utf-8" ?>
<svg baseProfile="full" height="256" version="1.1" width="256" xmlns="http://www.w3.org/2000/svg" xmlns:ev="http://www.w3.org/2001/xml-events" xmlns:xlink="http://www.w3.org/1999/xlink"><defs /><path d="M1406 719Q1341 719 1254.5 726.0Q1168 733 1075.0 749.0Q982 765 888.0 791.5Q794 818 713.5 858.0Q633 898 572.5 952.5Q512 1007 486 1078Q513 1149 573.5 1203.5Q634 1258 714.0 1298.0Q794 1338 887.5 1365.0Q981 1392 1074.0 1408.0Q1167 1424 1253.5 1431.0Q1340 1438 1406 1438Q1472 1438 1558.5 1431.0Q1645 1424 1738.0 1408.0Q1831 1392 1924.5 1365.0Q2018 1338 2098.0 1298.0Q2178 1258 2238.5 1203.5Q2299 1149 2326 1078Q2299 1007 2239.0 952.5Q2179 898 2098.5 858.0Q2018 818 1924.0 791.5Q1830 765 1737.0 749.0Q1644 733 1557.5 726.0Q1471 719 1406 719Z" style="fill:#bad80a;stroke:none" transform="scale(1,-1) translate(0,-256)" /></svg>