<?xml version="1.0" encoding="utf-8" ?>
<svg baseProfile="full" height="256" version="1.1" width="256" xmlns="http://www.w3.org/2000/svg" xmlns:ev="http://www.w3.org/2001/xml-events" xmlns:xlink="http://www.w3.org/1999/xlink"><defs /><path d="M2556 1150Q2556 1032 2533.0 918.0Q2510 804 2462 696Q2495 655 2513.5 616.5Q2532 578 2541.5 537.5Q2551 497 2553.5 453.5Q2556 410 2556 360Q2556 273 2523.5 198.5Q2491 124 2436.5 62.5Q2382 1 2310.0 -48.5Q2238 -98 2159.0 -135.5Q2080 -173 1999.0 -199.5Q1918 -226 1846 -242Q1737 -265 1627.5 -276.0Q1518 -287 1406 -287Q1294 -287 1184.5 -276.0Q1075 -265 966 -242Q893 -226 812.5 -199.5Q732 -173 653.0 -135.5Q574 -98 502.0 -48.5Q430 1 375.5 62.5Q321 124 288.5 198.5Q256 273 256 360Q256 410 258.5 453.5Q261 497 270.5 537.0Q280 577 298.5 616.0Q317 655 349 696Q303 804 279.5 918.0Q256 1032 256 1150Q256 1237 288.5 1311.5Q321 1386 375.5 1447.5Q430 1509 502.0 1558.5Q574 1608 653.0 1645.5Q732 1683 813.0 1709.5Q894 1736 966 1752Q1075 1775 1184.5 1786.0Q1294 1797 1406 1797Q1518 1797 1627.5 1786.0Q1737 1775 1846 1752Q1918 1736 1999.0 1709.5Q2080 1683 2159.0 1645.5Q2238 1608 2310.0 1558.5Q2382 1509 2436.5 1447.5Q2491 1386 2523.5 1311.5Q2556 1237 2556 1150Z" style="fill:#000000;stroke:none" transform="scale(1,-1) translate(0,-256)" /></svg>