<?xml version="1.0" encoding="utf-8" ?>
<svg baseProfile="full" height="256" version="1.1" width="256" xmlns="http://www.w3.org/2000/svg" xmlns:ev="http://www.w3.org/2001/xml-events" xmlns:xlink="http://www.w3.org/1999/xlink"><defs /><path d="M2412 360Q2412 292 2381.5 234.5Q2351 177 2301.5 129.0Q2252 81 2187.5 43.0Q2123 5 2054.5 -24.0Q1986 -53 1919.5 -73.0Q1853 -93 1798 -104Q1701 -124 1603.5 -134.0Q1506 -144 1406 -144Q1306 -144 1208.5 -134.0Q1111 -124 1014 -104Q959 -93 892.5 -73.0Q826 -53 757.5 -24.0Q689 5 624.5 43.0Q560 81 510.5 129.0Q461 177 430.5 234.5Q400 292 400 360V431H2412Z" style="fill:#8e562e;stroke:none" transform="scale(1,-1) translate(0,-256)" /></svg>