<?xml version="1.0" encoding="utf-8" ?>
<svg baseProfile="full" height="256" version="1.1" width="256" xmlns="http://www.w3.org/2000/svg" xmlns:ev="http://www.w3.org/2001/xml-events" xmlns:xlink="http://www.w3.org/1999/xlink"><defs /><path d="M1806 1509Q1820 1509 1831.0 1498.5Q1842 1488 1842 1474Q1842 1464 1837.5 1452.0Q1833 1440 1826.5 1427.5Q1820 1415 1813.5 1403.0Q1807 1391 1804 1381Q1801 1379 1797.0 1378.5Q1793 1378 1789 1378Q1774 1378 1758.0 1388.0Q1742 1398 1740 1414L1774 1488Q1784 1509 1806 1509ZM1445 599Q1452 585 1469.5 548.5Q1487 512 1510.5 461.0Q1534 410 1562.5 349.0Q1591 288 1619.0 226.5Q1647 165 1673.5 106.5Q1700 48 1720.5 2.0Q1741 -44 1753.0 -74.0Q1765 -104 1765 -108Q1765 -123 1754.5 -133.0Q1744 -143 1729 -143Q1706 -143 1696 -122L1406 512L1116 -122Q1106 -143 1083 -143Q1068 -143 1057.5 -133.0Q1047 -123 1047 -108Q1047 -104 1059.0 -74.0Q1071 -44 1091.5 2.0Q1112 48 1138.0 106.5Q1164 165 1192.5 227.0Q1221 289 1249.0 349.5Q1277 410 1300.5 461.0Q1324 512 1341.5 548.5Q1359 585 1366 599L1364 603Q1359 613 1349.0 634.5Q1339 656 1329.0 678.0Q1319 700 1311.5 718.0Q1304 736 1304 739Q1304 746 1309.0 753.0Q1314 760 1321.5 764.5Q1329 769 1337.5 772.0Q1346 775 1352 775Q1360 775 1367 770L1406 685L1445 770Q1450 775 1458 775Q1464 775 1472.5 772.0Q1481 769 1489.5 764.5Q1498 760 1503.5 753.5Q1509 747 1509 740Q1509 737 1500.0 717.5Q1491 698 1480.0 674.0Q1469 650 1458.5 628.0Q1448 606 1445 599ZM1006 1509Q1028 1509 1038 1488L1072 1414Q1070 1399 1054.0 1388.5Q1038 1378 1024 1378Q1015 1378 1008 1381Q1005 1391 998.5 1403.0Q992 1415 985.5 1427.5Q979 1440 974.5 1452.0Q970 1464 970 1474Q970 1488 981.0 1498.5Q992 1509 1006 1509Z" style="fill:#757575;stroke:none" transform="scale(1,-1) translate(0,-256)" /></svg>