<?xml version="1.0" encoding="utf-8" ?>
<svg baseProfile="full" height="256" version="1.1" width="256" xmlns="http://www.w3.org/2000/svg" xmlns:ev="http://www.w3.org/2001/xml-events" xmlns:xlink="http://www.w3.org/1999/xlink"><defs /><path d="M2127 1027Q2127 1005 2138.5 987.5Q2150 970 2170 961L2368 874Q2386 866 2398.5 849.0Q2411 832 2411 812Q2411 805 2402.0 780.0Q2393 755 2378.5 718.0Q2364 681 2345.0 635.5Q2326 590 2305.0 542.0Q2284 494 2263.5 447.5Q2243 401 2225.0 361.5Q2207 322 2193.5 293.5Q2180 265 2174 253Q2164 235 2148.5 222.0Q2133 209 2111 209Q2103 209 2085.5 214.5Q2068 220 2045.5 229.0Q2023 238 1998.0 249.0Q1973 260 1950.5 270.5Q1928 281 1909.5 289.5Q1891 298 1882 303Q1862 314 1850.5 329.0Q1839 344 1839 368Q1839 385 1845.5 400.0Q1852 415 1859.5 430.0Q1867 445 1873.5 460.0Q1880 475 1880 492Q1880 515 1868.5 531.0Q1857 547 1837 558L1445 770L1740 1414L2125 1216Q2145 1205 2156.5 1189.0Q2168 1173 2168 1150Q2168 1133 2161.5 1118.0Q2155 1103 2147.5 1088.5Q2140 1074 2133.5 1059.0Q2127 1044 2127 1027ZM644 1150Q644 1173 655.5 1189.0Q667 1205 687 1216L1072 1414L1367 770L975 558Q955 547 943.5 531.0Q932 515 932 492Q932 475 938.5 460.0Q945 445 952.5 430.0Q960 415 966.5 400.0Q973 385 973 368Q973 343 962.5 328.5Q952 314 930 303Q916 296 883.0 280.5Q850 265 813.5 249.0Q777 233 745.0 221.0Q713 209 701 209Q680 209 663.5 222.0Q647 235 638 253Q597 331 564.5 412.5Q532 494 497 575Q474 626 450.0 676.5Q426 727 407 780Q400 797 400 812Q400 832 413.0 849.0Q426 866 444 874L642 961Q662 970 673.5 987.5Q685 1005 685 1027Q685 1044 678.5 1059.0Q672 1074 664.5 1088.5Q657 1103 650.5 1118.0Q644 1133 644 1150Z" style="fill:#ffffff;stroke:none" transform="scale(1,-1) translate(0,-256)" /></svg>