<?xml version="1.0" encoding="utf-8" ?>
<svg baseProfile="full" height="256" version="1.1" width="256" xmlns="http://www.w3.org/2000/svg" xmlns:ev="http://www.w3.org/2001/xml-events" xmlns:xlink="http://www.w3.org/1999/xlink"><defs /><path d="M2294 1064Q2339 1044 2385.5 1024.5Q2432 1005 2470.0 978.0Q2508 951 2532.0 911.5Q2556 872 2556 813Q2556 790 2550.5 766.5Q2545 743 2536 722L2305 195Q2293 166 2273.0 142.5Q2253 119 2227.5 101.5Q2202 84 2172.0 74.5Q2142 65 2111 65Q2088 65 2065.5 70.5Q2043 76 2021 84Q1990 96 1961.0 112.5Q1932 129 1903 144Q1868 161 1833.0 178.0Q1798 195 1765 216L1893 -33Q1902 -50 1905.5 -69.0Q1909 -88 1909 -108Q1909 -146 1895.0 -178.5Q1881 -211 1856.5 -235.0Q1832 -259 1799.0 -273.0Q1766 -287 1729 -287Q1671 -287 1630.5 -259.0Q1590 -231 1565 -180L1406 144L1246 -182Q1223 -230 1180.0 -258.5Q1137 -287 1083 -287Q1046 -287 1013.0 -273.0Q980 -259 955.5 -234.5Q931 -210 917.0 -177.5Q903 -145 903 -108Q903 -90 906.5 -71.0Q910 -52 918 -35L1047 216Q1011 194 973.0 176.0Q935 158 897 138Q871 124 845.0 109.5Q819 95 791 84Q770 76 747.0 70.5Q724 65 701 65Q637 65 585.0 101.0Q533 137 507 195L276 722Q267 743 261.5 766.5Q256 790 256 813Q256 872 280.0 911.5Q304 951 342.0 978.0Q380 1005 426.5 1024.5Q473 1044 518 1064Q500 1104 500 1150Q500 1216 533.5 1266.0Q567 1316 624 1345L827 1450Q826 1455 826.0 1461.0Q826 1467 826 1472Q826 1509 840.0 1542.0Q854 1575 878.0 1599.5Q902 1624 934.5 1638.5Q967 1653 1005 1653Q1063 1653 1103.5 1625.0Q1144 1597 1170 1546L1406 1078L1643 1548Q1668 1597 1709.0 1625.0Q1750 1653 1806 1653Q1843 1653 1876.0 1639.0Q1909 1625 1933.5 1601.0Q1958 1577 1972.5 1544.5Q1987 1512 1987 1476Q1987 1470 1986.5 1463.5Q1986 1457 1985 1450L2188 1345Q2246 1315 2279.0 1265.0Q2312 1215 2312 1149Q2312 1104 2294 1064Z" style="fill:#000000;stroke:none" transform="scale(1,-1) translate(0,-256)" /></svg>