<?xml version="1.0" encoding="utf-8" ?>
<svg baseProfile="full" height="256" version="1.1" width="256" xmlns="http://www.w3.org/2000/svg" xmlns:ev="http://www.w3.org/2001/xml-events" xmlns:xlink="http://www.w3.org/1999/xlink"><defs /><path d="M2412 747Q2412 696 2409.0 646.5Q2406 597 2398 547Q2272 452 2131.0 383.5Q1990 315 1838 273Q1840 167 1874.5 69.5Q1909 -28 1975 -111Q1946 -131 1914.5 -149.5Q1883 -168 1851 -184Q1782 -91 1742.5 18.0Q1703 127 1696 242Q1588 223 1478 218V-285Q1460 -286 1442.0 -286.5Q1424 -287 1406 -287Q1388 -287 1370.0 -286.5Q1352 -286 1334 -285V218Q1224 223 1116 242Q1109 127 1069.5 18.0Q1030 -91 961 -184Q929 -168 898.0 -149.5Q867 -131 837 -111Q903 -28 937.5 69.5Q972 167 974 273Q822 315 681.0 383.5Q540 452 414 547Q406 597 403.0 646.5Q400 696 400 747Q525 635 669.5 553.0Q814 471 975 423V503Q975 634 926.5 751.0Q878 868 785 961L530 1215Q549 1247 569.0 1277.5Q589 1308 612 1337L887 1062Q999 950 1058.5 806.0Q1118 662 1118 503V388Q1172 377 1226.0 371.5Q1280 366 1334 363V1723Q1352 1724 1370.0 1724.5Q1388 1725 1406 1725Q1424 1725 1442.0 1724.5Q1460 1724 1478 1723V363Q1532 366 1585.5 371.5Q1639 377 1693 388V503Q1693 662 1753.0 806.0Q1813 950 1925 1062L2200 1337Q2223 1308 2243.0 1277.5Q2263 1247 2282 1215L2027 961Q1934 868 1885.5 751.0Q1837 634 1837 503V423Q1998 471 2142.5 553.0Q2287 635 2412 747Z" style="fill:#af0d1a;stroke:none" transform="scale(1,-1) translate(0,-256)" /></svg>