<?xml version="1.0" encoding="utf-8" ?>
<svg baseProfile="full" height="256" version="1.1" width="256" xmlns="http://www.w3.org/2000/svg" xmlns:ev="http://www.w3.org/2001/xml-events" xmlns:xlink="http://www.w3.org/1999/xlink"><defs /><path d="M2339 619Q2356 602 2369.5 583.5Q2383 565 2398 547Q2381 447 2344.0 353.5Q2307 260 2253.0 176.0Q2199 92 2128.5 19.0Q2058 -54 1975 -111L1867 -82L1851 -184Q1763 -227 1668.5 -252.5Q1574 -278 1476 -285Q1458 -266 1440.5 -246.5Q1423 -227 1406 -207Q1371 -248 1334 -285Q1237 -277 1143.5 -252.0Q1050 -227 962 -184Q962 -161 960.0 -138.5Q958 -116 953 -93Q924 -100 895.0 -105.0Q866 -110 836 -111Q753 -54 683.0 18.5Q613 91 559.0 175.0Q505 259 468.5 352.5Q432 446 415 545Q433 564 449.5 584.0Q466 604 485 622Q465 654 443.5 685.0Q422 716 400 747Q404 871 437.0 989.0Q470 1107 530 1215Q558 1215 585.5 1214.5Q613 1214 641 1213Q631 1244 624.5 1275.5Q618 1307 613 1339Q722 1479 870.5 1573.0Q1019 1667 1193 1702Q1228 1709 1263.5 1713.5Q1299 1718 1334 1723L1406 1653L1475 1723Q1513 1723 1547.5 1717.0Q1582 1711 1617 1703Q1796 1661 1942.0 1572.0Q2088 1483 2200 1337Q2200 1308 2197.0 1279.5Q2194 1251 2189 1222Q2212 1219 2235.5 1217.0Q2259 1215 2282 1215Q2342 1107 2375.0 988.5Q2408 870 2412 746Q2392 715 2372.5 684.5Q2353 654 2339 619Z" style="fill:#f7630c;stroke:none" transform="scale(1,-1) translate(0,-256)" /></svg>