<?xml version="1.0" encoding="utf-8" ?>
<svg baseProfile="full" height="256" version="1.1" width="256" xmlns="http://www.w3.org/2000/svg" xmlns:ev="http://www.w3.org/2001/xml-events" xmlns:xlink="http://www.w3.org/1999/xlink"><defs /><path d="M1766 935 2197 1150V288L1766 503L1738 540L1694 503H616L582 539L544 503Q514 503 488.0 514.5Q462 526 442.5 545.5Q423 565 411.5 591.0Q400 617 400 647V791Q400 821 411.5 847.0Q423 873 442.5 892.5Q462 912 488.0 923.5Q514 935 544 935L581 890L616 935H1694L1736 900Z" style="fill:#757575;stroke:none" transform="scale(1,-1) translate(0,-256)" /></svg>