<?xml version="1.0" encoding="utf-8" ?>
<svg baseProfile="full" height="256" version="1.1" width="256" xmlns="http://www.w3.org/2000/svg" xmlns:ev="http://www.w3.org/2001/xml-events" xmlns:xlink="http://www.w3.org/1999/xlink"><defs /><path d="M2163 144 1732 360H544Q485 360 432.5 382.5Q380 405 341.0 444.0Q302 483 279.5 535.5Q257 588 257 647V791Q257 850 279.5 902.5Q302 955 341.0 994.0Q380 1033 432.5 1055.5Q485 1078 544 1078H1732L2163 1294H2413V1132Q2483 1044 2519.5 937.5Q2556 831 2556 719Q2556 607 2519.5 500.5Q2483 394 2413 306V144Z" style="fill:#000000;stroke:none" transform="scale(1,-1) translate(0,-256)" /></svg>