<?xml version="1.0" encoding="utf-8" ?>
<svg baseProfile="full" height="256" version="1.1" width="256" xmlns="http://www.w3.org/2000/svg" xmlns:ev="http://www.w3.org/2001/xml-events" xmlns:xlink="http://www.w3.org/1999/xlink"><defs /><path d="M2269 360Q2240 390 2221.0 438.0Q2202 486 2190.5 540.0Q2179 594 2174.0 647.0Q2169 700 2169 741Q2169 763 2171.0 793.5Q2173 824 2177.0 857.0Q2181 890 2188.5 923.5Q2196 957 2207.0 987.0Q2218 1017 2233.5 1041.0Q2249 1065 2269 1078Q2338 1006 2375.5 912.5Q2413 819 2413 719Q2413 619 2375.5 525.5Q2338 432 2269 360Z" style="fill:#ffc83d;stroke:none" transform="scale(1,-1) translate(0,-256)" /></svg>