<?xml version="1.0" encoding="utf-8" ?>
<svg baseProfile="full" height="256" version="1.1" width="256" xmlns="http://www.w3.org/2000/svg" xmlns:ev="http://www.w3.org/2001/xml-events" xmlns:xlink="http://www.w3.org/1999/xlink"><defs /><path d="M490 863Q482 863 477.0 868.0Q472 873 472 881V988Q472 996 477.0 1001.0Q482 1006 490 1006H597Q605 1006 610.0 1001.0Q615 996 615 988V881Q615 873 610.0 868.0Q605 863 597 863ZM831 881Q831 873 826.0 868.0Q821 863 813 863H705Q697 863 692.0 868.0Q687 873 687 881V988Q687 996 692.0 1001.0Q697 1006 705 1006H813Q821 1006 826.0 1001.0Q831 996 831 988ZM1047 881Q1047 874 1042.0 868.5Q1037 863 1029 863H921Q913 863 908.0 868.0Q903 873 903 881V988Q903 996 908.0 1001.0Q913 1006 921 1006H1029Q1037 1006 1042.0 1000.5Q1047 995 1047 988ZM1136 863Q1128 863 1123.0 868.5Q1118 874 1118 881V988Q1118 995 1123.0 1000.5Q1128 1006 1136 1006H1244Q1252 1006 1257.0 1001.0Q1262 996 1262 988V881Q1262 873 1257.0 868.0Q1252 863 1244 863ZM1352 863Q1344 863 1339.0 868.0Q1334 873 1334 881V988Q1334 996 1339.0 1001.0Q1344 1006 1352 1006H1460Q1468 1006 1473.0 1001.0Q1478 996 1478 988V881Q1478 873 1473.0 868.0Q1468 863 1460 863ZM1568 863Q1560 863 1555.0 868.0Q1550 873 1550 881V988Q1550 996 1555.0 1001.0Q1560 1006 1568 1006H1675Q1683 1006 1688.0 1001.0Q1693 996 1693 988V881Q1693 873 1688.0 868.0Q1683 863 1675 863ZM1783 863Q1775 863 1770.0 868.0Q1765 873 1765 881V988Q1765 996 1770.0 1001.0Q1775 1006 1783 1006H1891Q1899 1006 1904.0 1001.0Q1909 996 1909 988V881Q1909 873 1904.0 868.0Q1899 863 1891 863ZM1999 863Q1991 863 1986.0 868.0Q1981 873 1981 881V988Q1981 996 1986.0 1001.0Q1991 1006 1999 1006H2107Q2115 1006 2120.0 1001.0Q2125 996 2125 988V881Q2125 873 2120.0 868.0Q2115 863 2107 863ZM2322 1006Q2330 1006 2335.0 1001.0Q2340 996 2340 988V881Q2340 873 2335.0 868.0Q2330 863 2322 863H2215Q2207 863 2202.0 868.0Q2197 873 2197 881V988Q2197 996 2202.0 1001.0Q2207 1006 2215 1006ZM669 575Q677 575 682.0 570.0Q687 565 687 557V449Q687 441 681.5 436.0Q676 431 669 431H490Q483 431 477.5 436.0Q472 441 472 449V557Q472 565 477.0 570.0Q482 575 490 575ZM885 575Q893 575 898.0 570.0Q903 565 903 557V449Q903 441 897.5 436.0Q892 431 885 431H777Q770 431 764.5 436.0Q759 441 759 449V557Q759 565 764.0 570.0Q769 575 777 575ZM1819 575Q1827 575 1832.0 570.0Q1837 565 1837 557V449Q1837 441 1831.5 436.0Q1826 431 1819 431H993Q986 431 980.5 436.0Q975 441 975 449V557Q975 565 980.0 570.0Q985 575 993 575ZM2035 575Q2043 575 2048.0 570.0Q2053 565 2053 557V449Q2053 441 2047.5 436.0Q2042 431 2035 431H1927Q1920 431 1914.5 436.0Q1909 441 1909 449V557Q1909 565 1914.0 570.0Q1919 575 1927 575ZM2322 575Q2330 575 2335.0 570.0Q2340 565 2340 557V449Q2340 441 2334.5 436.0Q2329 431 2322 431H2143Q2136 431 2130.5 436.0Q2125 441 2125 449V557Q2125 565 2130.0 570.0Q2135 575 2143 575ZM885 791Q893 791 898.0 786.0Q903 781 903 773V665Q903 657 898.0 652.0Q893 647 885 647H777Q769 647 764.0 652.0Q759 657 759 665V773Q759 781 764.0 786.0Q769 791 777 791ZM975 773Q975 781 980.0 786.0Q985 791 993 791H1100Q1108 791 1113.0 786.0Q1118 781 1118 773V665Q1118 657 1113.0 652.0Q1108 647 1100 647H993Q985 647 980.0 652.0Q975 657 975 665ZM1190 773Q1190 781 1195.0 786.0Q1200 791 1208 791H1316Q1324 791 1329.0 786.0Q1334 781 1334 773V665Q1334 657 1329.0 652.0Q1324 647 1316 647H1208Q1200 647 1195.0 652.0Q1190 657 1190 665ZM1406 773Q1406 781 1411.0 786.0Q1416 791 1424 791H1532Q1540 791 1545.0 786.0Q1550 781 1550 773V665Q1550 657 1545.0 652.0Q1540 647 1532 647H1424Q1416 647 1411.0 652.0Q1406 657 1406 665ZM1622 773Q1622 781 1627.0 786.0Q1632 791 1640 791H1747Q1755 791 1760.0 786.0Q1765 781 1765 773V665Q1765 657 1760.0 652.0Q1755 647 1747 647H1640Q1632 647 1627.0 652.0Q1622 657 1622 665ZM1981 665Q1981 657 1976.0 652.0Q1971 647 1963 647H1855Q1847 647 1842.0 652.0Q1837 657 1837 665V773Q1837 781 1842.0 786.0Q1847 791 1855 791H1963Q1971 791 1976.0 786.0Q1981 781 1981 773ZM669 791Q677 791 682.0 786.0Q687 781 687 773V665Q687 657 682.0 652.0Q677 647 669 647H490Q482 647 477.0 652.0Q472 657 472 665V773Q472 781 477.0 786.0Q482 791 490 791ZM2322 791Q2330 791 2335.0 786.0Q2340 781 2340 773V665Q2340 657 2335.0 652.0Q2330 647 2322 647H2071Q2063 647 2058.0 652.0Q2053 657 2053 665V773Q2053 781 2058.0 786.0Q2063 791 2071 791Z" style="fill:#f2f2f2;stroke:none" transform="scale(1,-1) translate(0,-256)" /></svg>