<?xml version="1.0" encoding="utf-8" ?>
<svg baseProfile="full" height="256" version="1.1" width="256" xmlns="http://www.w3.org/2000/svg" xmlns:ev="http://www.w3.org/2001/xml-events" xmlns:xlink="http://www.w3.org/1999/xlink"><defs /><path d="M1186 68Q1176 -42 1134.0 -150.5Q1092 -259 1023 -346Q991 -385 947.0 -408.0Q903 -431 852 -431Q811 -431 773.5 -416.5Q736 -402 706.5 -376.0Q677 -350 658.0 -314.5Q639 -279 635 -238L449 -52Q408 -48 372.5 -29.0Q337 -10 311.0 19.0Q285 48 270.5 85.0Q256 122 256 163Q256 215 278.0 259.0Q300 303 340 335Q427 405 535.5 446.5Q644 488 755 499V574Q755 694 789.5 806.0Q824 918 887.5 1014.0Q951 1110 1041.0 1185.5Q1131 1261 1241 1307Q1284 1325 1324.5 1337.0Q1365 1349 1405.5 1356.5Q1446 1364 1488.0 1367.0Q1530 1370 1577 1370H1626Q1637 1482 1678.5 1589.5Q1720 1697 1790 1785Q1822 1825 1866.0 1847.0Q1910 1869 1962 1869Q2003 1869 2040.5 1854.5Q2078 1840 2107.0 1814.0Q2136 1788 2154.5 1752.5Q2173 1717 2177 1676L2363 1489Q2404 1484 2439.5 1465.5Q2475 1447 2501.0 1418.5Q2527 1390 2541.5 1353.0Q2556 1316 2556 1274Q2556 1222 2533.5 1178.0Q2511 1134 2471 1102Q2384 1033 2275.5 991.0Q2167 949 2057 939V864Q2057 757 2029.0 657.0Q2001 557 1950.0 468.5Q1899 380 1828.0 306.5Q1757 233 1670.0 180.0Q1583 127 1483.5 97.5Q1384 68 1277 68Z" style="fill:#000000;stroke:none" transform="scale(1,-1) translate(0,-256)" /></svg>