<?xml version="1.0" encoding="utf-8" ?>
<svg baseProfile="full" height="256" version="1.1" width="256" xmlns="http://www.w3.org/2000/svg" xmlns:ev="http://www.w3.org/2001/xml-events" xmlns:xlink="http://www.w3.org/1999/xlink"><defs /><path d="M2333 1342Q2362 1342 2383.5 1321.0Q2405 1300 2405 1271Q2405 1252 2398.0 1239.0Q2391 1226 2377 1214Q2364 1203 2348.5 1192.5Q2333 1182 2319 1174Q2318 1173 2317.0 1173.0Q2316 1173 2315 1172Q2239 1126 2154.0 1102.0Q2069 1078 1981 1078H1550Q1446 1078 1354.0 1038.5Q1262 999 1194.0 930.5Q1126 862 1086.5 770.5Q1047 679 1047 575V431H903V575Q903 664 926.0 747.0Q949 830 991.5 901.5Q1034 973 1093.0 1032.0Q1152 1091 1223.5 1133.5Q1295 1176 1378.0 1199.0Q1461 1222 1550 1222H1981Q2028 1222 2068.0 1228.5Q2108 1235 2144.0 1248.5Q2180 1262 2215.0 1281.5Q2250 1301 2288 1327Q2309 1342 2333 1342ZM783 -208Q783 -184 798 -163Q823 -127 842.5 -91.5Q862 -56 875.5 -18.5Q889 19 896.0 59.0Q903 99 903 144H1047Q1047 93 1038.0 39.5Q1029 -14 1012.0 -65.5Q995 -117 969.5 -164.5Q944 -212 911 -252Q888 -280 854 -280Q825 -280 804.0 -258.5Q783 -237 783 -208Z" style="fill:#fce100;stroke:none" transform="scale(1,-1) translate(0,-256)" /></svg>