<?xml version="1.0" encoding="utf-8" ?>
<svg baseProfile="full" height="256" version="1.1" width="256" xmlns="http://www.w3.org/2000/svg" xmlns:ev="http://www.w3.org/2001/xml-events" xmlns:xlink="http://www.w3.org/1999/xlink"><defs /><path d="M2030 1647Q2030 1633 2026.0 1623.0Q2022 1613 2014 1602Q1963 1530 1936.0 1456.5Q1909 1383 1909 1294H1765Q1765 1345 1773.5 1398.5Q1782 1452 1799.5 1503.5Q1817 1555 1842.5 1602.5Q1868 1650 1901 1690Q1912 1703 1927.0 1710.5Q1942 1718 1959 1718Q1988 1718 2009.0 1697.0Q2030 1676 2030 1647ZM407 166Q407 185 414.0 198.5Q421 212 435 224Q448 235 463.5 245.5Q479 256 493 265Q570 312 655.5 336.0Q741 360 831 360H1262Q1335 360 1402.5 379.5Q1470 399 1528.5 436.0Q1587 473 1634.5 524.5Q1682 576 1715 641Q1741 692 1753.0 745.5Q1765 799 1765 856V1006H1909V863Q1909 777 1886.5 695.5Q1864 614 1823.0 542.0Q1782 470 1724.5 410.0Q1667 350 1597.0 307.0Q1527 264 1446.0 240.0Q1365 216 1278 216H831Q786 216 746.0 209.0Q706 202 668.5 188.5Q631 175 595.5 155.5Q560 136 523 111Q512 103 502.0 99.0Q492 95 478 95Q449 95 428.0 116.0Q407 137 407 166Z" style="fill:#e81224;stroke:none" transform="scale(1,-1) translate(0,-256)" /></svg>