<?xml version="1.0" encoding="utf-8" ?>
<svg baseProfile="full" height="256" version="1.1" width="256" xmlns="http://www.w3.org/2000/svg" xmlns:ev="http://www.w3.org/2001/xml-events" xmlns:xlink="http://www.w3.org/1999/xlink"><defs /><path d="M1047 1725Q1181 1725 1298.5 1674.0Q1416 1623 1504.0 1535.5Q1592 1448 1642.5 1330.0Q1693 1212 1693 1078V935Q1693 784 1633.5 663.0Q1574 542 1465 442Q1380 364 1293.0 291.5Q1206 219 1118 144V72Q1118 -2 1089.5 -67.5Q1061 -133 1012.5 -181.5Q964 -230 898.5 -258.5Q833 -287 759 -287Q685 -287 619.5 -259.0Q554 -231 505.0 -182.0Q456 -133 428.0 -67.5Q400 -2 400 72V1078Q400 1167 423.0 1250.0Q446 1333 488.0 1405.0Q530 1477 589.0 1536.0Q648 1595 720.0 1637.0Q792 1679 874.5 1702.0Q957 1725 1047 1725Z" style="fill:#ffc83d;stroke:none" transform="scale(1,-1) translate(0,-256)" /></svg>