<?xml version="1.0" encoding="utf-8" ?>
<svg baseProfile="full" height="256" version="1.1" width="256" xmlns="http://www.w3.org/2000/svg" xmlns:ev="http://www.w3.org/2001/xml-events" xmlns:xlink="http://www.w3.org/1999/xlink"><defs /><path d="M759 -431Q655 -431 563.5 -391.5Q472 -352 403.5 -283.5Q335 -215 295.5 -123.5Q256 -32 256 72V1078Q256 1187 284.5 1288.0Q313 1389 364.5 1477.0Q416 1565 488.0 1637.0Q560 1709 648.0 1760.5Q736 1812 837.0 1840.5Q938 1869 1047 1869Q1156 1869 1257.0 1840.5Q1358 1812 1445.5 1760.5Q1533 1709 1605.5 1637.0Q1678 1565 1729.5 1477.0Q1781 1389 1809.0 1288.0Q1837 1187 1837 1078V935Q1837 749 1765.0 603.0Q1693 457 1558 333Q1486 267 1411.5 204.0Q1337 141 1262 78Q1262 -27 1223.0 -119.5Q1184 -212 1116.0 -281.5Q1048 -351 956.5 -391.0Q865 -431 759 -431Z" style="fill:#000000;stroke:none" transform="scale(1,-1) translate(0,-256)" /></svg>