<?xml version="1.0" encoding="utf-8" ?>
<svg baseProfile="full" height="256" version="1.1" width="256" xmlns="http://www.w3.org/2000/svg" xmlns:ev="http://www.w3.org/2001/xml-events" xmlns:xlink="http://www.w3.org/1999/xlink"><defs /><path d="M1047 1581Q1151 1581 1242.5 1541.5Q1334 1502 1402.5 1433.5Q1471 1365 1510.5 1273.5Q1550 1182 1550 1078V863Q1550 818 1533.0 779.0Q1516 740 1486.5 710.5Q1457 681 1418.0 664.0Q1379 647 1334 647H1118Q1088 647 1062.0 635.5Q1036 624 1016.5 604.5Q997 585 986.0 559.0Q975 533 975 503V236Q941 294 883.5 327.0Q826 360 759 360Q692 360 634.5 327.0Q577 294 543 236V503Q543 540 548.0 577.0Q553 614 558.5 651.0Q564 688 569.0 724.5Q574 761 574 799Q574 834 569.0 869.0Q564 904 558.5 938.5Q553 973 548.0 1008.0Q543 1043 543 1078Q543 1182 583.0 1273.5Q623 1365 691.5 1433.5Q760 1502 851.5 1541.5Q943 1581 1047 1581ZM1334 1006Q1363 1006 1384.5 1027.5Q1406 1049 1406 1078Q1406 1152 1377.5 1217.5Q1349 1283 1300.5 1332.0Q1252 1381 1186.5 1409.5Q1121 1438 1047 1438Q1017 1438 996.0 1417.0Q975 1396 975 1366Q975 1336 996.0 1315.0Q1017 1294 1047 1294Q1091 1294 1130.0 1276.5Q1169 1259 1198.5 1229.5Q1228 1200 1245.0 1161.0Q1262 1122 1262 1078Q1262 1049 1283.5 1027.5Q1305 1006 1334 1006Z" style="fill:#d48c00;stroke:none" transform="scale(1,-1) translate(0,-256)" /></svg>