<?xml version="1.0" encoding="utf-8" ?>
<svg baseProfile="full" height="256" version="1.1" width="256" xmlns="http://www.w3.org/2000/svg" xmlns:ev="http://www.w3.org/2001/xml-events" xmlns:xlink="http://www.w3.org/1999/xlink"><defs /><path d="M2412 934Q2389 918 2371.5 895.0Q2354 872 2342.0 845.5Q2330 819 2324.0 790.5Q2318 762 2318 735Q2318 705 2325.0 673.0Q2332 641 2344.5 611.0Q2357 581 2374.0 553.0Q2391 525 2412 503V0L2065 -53Q2021 -60 1979.0 -70.0Q1937 -80 1892 -80Q1844 -80 1798.5 -70.0Q1753 -60 1706 -53L1333 0Q1322 2 1310.5 2.0Q1299 2 1288 2Q1245 2 1202.5 1.0Q1160 0 1117 0H686Q641 0 602.0 17.0Q563 34 534.0 63.5Q505 93 488.0 132.0Q471 171 471 216Q471 234 471.5 251.5Q472 269 472 287Q491 297 512.0 321.0Q533 345 553.0 377.0Q573 409 592.0 446.0Q611 483 627.5 518.5Q644 554 657.0 585.5Q670 617 678 638Q702 701 720.5 767.5Q739 834 739 901Q739 912 737.5 926.5Q736 941 733.0 955.5Q730 970 724.5 983.0Q719 996 710 1003L802 1078H2331L2412 1006Z" style="fill:#f2f2f2;stroke:none" transform="scale(1,-1) translate(0,-256)" /></svg>