<?xml version="1.0" encoding="utf-8" ?>
<svg baseProfile="full" height="256" version="1.1" width="256" xmlns="http://www.w3.org/2000/svg" xmlns:ev="http://www.w3.org/2001/xml-events" xmlns:xlink="http://www.w3.org/1999/xlink"><defs /><path d="M2411 0 2381 -75 2411 -144V-216Q2405 -219 2379.5 -227.0Q2354 -235 2325.5 -243.5Q2297 -252 2273.0 -259.0Q2249 -266 2246 -266H628Q626 -266 603.5 -259.0Q581 -252 554.0 -243.0Q527 -234 502.5 -226.0Q478 -218 471 -216L686 0Q702 17 757.0 28.5Q812 40 886.5 48.0Q961 56 1047.0 60.5Q1133 65 1212.5 67.0Q1292 69 1356.0 69.5Q1420 70 1451 70Q1646 70 1839.5 63.0Q2033 56 2228 32Q2283 25 2326.5 18.0Q2370 11 2411 0Z" style="fill:#0078d7;stroke:none" transform="scale(1,-1) translate(0,-256)" /></svg>