<?xml version="1.0" encoding="utf-8" ?>
<svg baseProfile="full" height="256" version="1.1" width="256" xmlns="http://www.w3.org/2000/svg" xmlns:ev="http://www.w3.org/2001/xml-events" xmlns:xlink="http://www.w3.org/1999/xlink"><defs /><path d="M1561 1294Q1601 1294 1648.0 1274.0Q1695 1254 1742.0 1221.0Q1789 1188 1832.0 1145.0Q1875 1102 1908.0 1055.0Q1941 1008 1961.0 961.0Q1981 914 1981 874Q1981 835 1959.0 813.0Q1937 791 1897 791Q1857 791 1810.0 811.0Q1763 831 1716.5 864.0Q1670 897 1627.0 940.0Q1584 983 1551.0 1029.5Q1518 1076 1498.0 1123.0Q1478 1170 1478 1210Q1478 1250 1500.0 1272.0Q1522 1294 1561 1294Z" style="fill:#ee9889;stroke:none" transform="scale(1,-1) translate(0,-256)" /></svg>