<?xml version="1.0" encoding="utf-8" ?>
<svg baseProfile="full" height="256" version="1.1" width="256" xmlns="http://www.w3.org/2000/svg" xmlns:ev="http://www.w3.org/2001/xml-events" xmlns:xlink="http://www.w3.org/1999/xlink"><defs /><path d="M820 -431Q760 -431 694.5 -406.0Q629 -381 566.5 -338.5Q504 -296 447.5 -240.0Q391 -184 348.5 -121.5Q306 -59 281.0 6.5Q256 72 256 132Q256 177 272.0 220.5Q288 264 320 296L1398 1374Q1430 1406 1472.0 1422.0Q1514 1438 1560 1438Q1614 1438 1666.0 1420.0Q1718 1402 1765 1375V1725H1957L2089 1857L2220 1725H2412V1533L2544 1402L2412 1270V1078H2063Q2089 1031 2107.0 979.0Q2125 927 2125 872Q2125 826 2109.5 785.0Q2094 744 2061 711L983 -367Q951 -399 908.5 -415.0Q866 -431 820 -431Z" style="fill:#000000;stroke:none" transform="scale(1,-1) translate(0,-256)" /></svg>