<?xml version="1.0" encoding="utf-8" ?>
<svg baseProfile="full" height="256" version="1.1" width="256" xmlns="http://www.w3.org/2000/svg" xmlns:ev="http://www.w3.org/2001/xml-events" xmlns:xlink="http://www.w3.org/1999/xlink"><defs /><path d="M1262 -431Q1123 -431 994.5 -395.0Q866 -359 754.5 -293.5Q643 -228 551.0 -136.0Q459 -44 393.5 67.5Q328 179 292.0 307.5Q256 436 256 575Q256 667 273.0 757.5Q290 848 322.5 933.5Q355 1019 402.5 1098.0Q450 1177 512 1246Q452 1286 404.5 1339.0Q357 1392 324.0 1453.5Q291 1515 273.5 1584.0Q256 1653 256 1725V1869H831Q903 1869 972.0 1852.0Q1041 1835 1104 1800Q1135 1832 1176.0 1850.5Q1217 1869 1262 1869Q1307 1869 1346.0 1852.0Q1385 1835 1414.5 1805.5Q1444 1776 1461.0 1737.0Q1478 1698 1478 1653V1557Q1592 1532 1695.0 1482.0Q1798 1432 1886.0 1362.0Q1974 1292 2044.5 1204.0Q2115 1116 2164.5 1015.5Q2214 915 2241.0 803.5Q2268 692 2268 575Q2268 436 2232.0 307.5Q2196 179 2130.5 67.5Q2065 -44 1973.0 -136.0Q1881 -228 1769.5 -293.5Q1658 -359 1529.5 -395.0Q1401 -431 1262 -431Z" style="fill:#000000;stroke:none" transform="scale(1,-1) translate(0,-256)" /></svg>