<?xml version="1.0" encoding="utf-8" ?>
<svg baseProfile="full" height="256" version="1.1" width="256" xmlns="http://www.w3.org/2000/svg" xmlns:ev="http://www.w3.org/2001/xml-events" xmlns:xlink="http://www.w3.org/1999/xlink"><defs /><path d="M1514 935Q1536 935 1555.5 926.5Q1575 918 1590.0 903.0Q1605 888 1613.5 868.5Q1622 849 1622 827Q1622 805 1613.5 785.5Q1605 766 1590.0 751.0Q1575 736 1555.5 727.5Q1536 719 1514 719Q1491 719 1471.5 727.5Q1452 736 1437.5 750.5Q1423 765 1414.5 784.5Q1406 804 1406 827Q1406 849 1414.5 868.5Q1423 888 1438.0 903.0Q1453 918 1472.5 926.5Q1492 935 1514 935ZM1226 647Q1248 647 1268.0 638.5Q1288 630 1302.5 615.5Q1317 601 1325.5 581.0Q1334 561 1334 539Q1334 517 1325.5 497.5Q1317 478 1302.0 463.0Q1287 448 1267.5 439.5Q1248 431 1226 431Q1204 431 1184.5 439.5Q1165 448 1150.0 463.0Q1135 478 1126.5 497.5Q1118 517 1118 539Q1118 561 1126.5 580.5Q1135 600 1150.0 615.0Q1165 630 1184.5 638.5Q1204 647 1226 647ZM1801 647Q1823 647 1843.0 638.5Q1863 630 1877.5 615.5Q1892 601 1900.5 581.0Q1909 561 1909 539Q1909 517 1900.5 497.5Q1892 478 1877.0 463.0Q1862 448 1842.5 439.5Q1823 431 1801 431Q1779 431 1759.5 439.5Q1740 448 1725.0 463.0Q1710 478 1701.5 497.5Q1693 517 1693 539Q1693 561 1701.5 580.5Q1710 600 1725.0 615.0Q1740 630 1759.5 638.5Q1779 647 1801 647ZM1514 360Q1536 360 1555.5 351.5Q1575 343 1590.0 328.0Q1605 313 1613.5 293.5Q1622 274 1622 252Q1622 230 1613.5 210.5Q1605 191 1590.0 176.0Q1575 161 1555.5 152.5Q1536 144 1514 144Q1491 144 1471.5 152.5Q1452 161 1437.5 175.5Q1423 190 1414.5 209.5Q1406 229 1406 252Q1406 274 1414.5 293.5Q1423 313 1438.0 328.0Q1453 343 1472.5 351.5Q1492 360 1514 360Z" style="fill:#da3b01;stroke:none" transform="scale(1,-1) translate(0,-256)" /></svg>