<?xml version="1.0" encoding="utf-8" ?>
<svg baseProfile="full" height="256" version="1.1" width="256" xmlns="http://www.w3.org/2000/svg" xmlns:ev="http://www.w3.org/2001/xml-events" xmlns:xlink="http://www.w3.org/1999/xlink"><defs /><path d="M1785 894 1885 861Q1896 857 1902.5 847.0Q1909 837 1909 826Q1909 812 1898.5 801.5Q1888 791 1874 791Q1870 791 1862 793Q1820 803 1795.0 811.5Q1770 820 1752.0 830.5Q1734 841 1718.0 856.5Q1702 872 1678 898L1655 923L1622 791L1729 575H1683Q1687 567 1690.0 558.0Q1693 549 1693 539V396Q1693 382 1682.5 371.0Q1672 360 1658 360Q1646 360 1638.5 365.5Q1631 371 1627.0 380.0Q1623 389 1622.0 399.5Q1621 410 1621 419Q1621 433 1622.5 447.0Q1624 461 1624 475Q1624 485 1623.5 499.0Q1623 513 1621.5 526.5Q1620 540 1617.0 553.0Q1614 566 1608 575H1524L1477 387Q1474 375 1464.0 367.5Q1454 360 1442 360Q1427 360 1416.5 370.0Q1406 380 1406 395Q1406 409 1411.0 433.0Q1416 457 1423.5 483.5Q1431 510 1438.0 535.0Q1445 560 1450 575H1406L1492 919L1406 876V755Q1406 740 1395.5 729.5Q1385 719 1370 719Q1362 719 1341.0 728.5Q1320 738 1295.5 750.0Q1271 762 1249.0 774.0Q1227 786 1218 791L1180 637L1252 565Q1262 555 1262 539V396Q1262 381 1251.5 370.5Q1241 360 1226 360Q1211 360 1200.5 370.5Q1190 381 1190 396V524Q1184 530 1176.5 539.0Q1169 548 1161.0 555.5Q1153 563 1144.0 568.5Q1135 574 1125 574Q1112 574 1100.0 566.5Q1088 559 1085 546L1045 387Q1042 375 1033.0 367.5Q1024 360 1011 360Q996 360 985.5 370.0Q975 380 975 395Q975 421 984.0 448.5Q993 476 999 502Q1016 572 1035.0 641.0Q1054 710 1070 780L1037 764L989 667Q980 647 957 647Q943 647 932.0 658.0Q921 669 921 683Q921 688 922.0 691.5Q923 695 925 699L934 722Q946 750 955.5 770.0Q965 790 978.0 805.0Q991 820 1011.5 832.5Q1032 845 1066 859Q1076 863 1083 863H1226Q1233 863 1248.0 856.5Q1263 850 1279.5 842.0Q1296 834 1311.0 825.5Q1326 817 1334 813V899Q1334 911 1339.0 918.0Q1344 925 1354 931Q1363 937 1386.0 949.0Q1409 961 1434.5 974.0Q1460 987 1483.0 996.5Q1506 1006 1514 1006H1658Q1673 1006 1683 996ZM1622 1078Q1593 1078 1571.5 1099.5Q1550 1121 1550 1150Q1550 1180 1571.0 1201.0Q1592 1222 1622 1222Q1651 1222 1672.0 1200.5Q1693 1179 1693 1150Q1693 1121 1672.0 1099.5Q1651 1078 1622 1078ZM1190 935Q1161 935 1139.5 956.0Q1118 977 1118 1006Q1118 1035 1139.5 1056.5Q1161 1078 1190 1078Q1220 1078 1241.0 1057.0Q1262 1036 1262 1006Q1262 977 1240.5 956.0Q1219 935 1190 935Z" style="fill:#000000;stroke:none" transform="scale(1,-1) translate(0,-256)" /></svg>