<?xml version="1.0" encoding="utf-8" ?>
<svg baseProfile="full" height="256" version="1.1" width="256" xmlns="http://www.w3.org/2000/svg" xmlns:ev="http://www.w3.org/2001/xml-events" xmlns:xlink="http://www.w3.org/1999/xlink"><defs /><path d="M2268 503Q2311 503 2348.0 523.0Q2385 543 2412 575V-287H400V575Q426 543 463.5 523.0Q501 503 543 503Q586 503 623.0 523.0Q660 543 687 575Q714 543 751.0 523.0Q788 503 831 503Q874 503 911.0 523.0Q948 543 975 575Q1001 543 1038.5 523.0Q1076 503 1118 503Q1161 503 1198.0 523.0Q1235 543 1262 575Q1289 543 1326.0 523.0Q1363 503 1406 503Q1449 503 1486.0 523.0Q1523 543 1550 575Q1576 543 1613.5 523.0Q1651 503 1693 503Q1736 503 1773.0 523.0Q1810 543 1837 575Q1864 543 1901.0 523.0Q1938 503 1981 503Q2024 503 2061.0 523.0Q2098 543 2125 575Q2151 543 2188.5 523.0Q2226 503 2268 503Z" style="fill:#00bcf2;stroke:none" transform="scale(1,-1) translate(0,-256)" /></svg>