<?xml version="1.0" encoding="utf-8" ?>
<svg baseProfile="full" height="256" version="1.1" width="256" xmlns="http://www.w3.org/2000/svg" xmlns:ev="http://www.w3.org/2001/xml-events" xmlns:xlink="http://www.w3.org/1999/xlink"><defs /><path d="M1981 360H2268Q2242 327 2205.0 307.5Q2168 288 2125 288Q2082 288 2045.0 308.0Q2008 328 1981 360ZM1622 360H1909Q1882 328 1845.0 308.0Q1808 288 1765 288Q1722 288 1685.0 307.5Q1648 327 1622 360ZM903 144H1190Q1164 112 1126.5 92.0Q1089 72 1047 72Q1004 72 967.0 92.0Q930 112 903 144ZM543 144H831Q804 112 767.0 92.0Q730 72 687 72Q644 72 607.0 92.0Q570 112 543 144ZM1981 -72H2268Q2242 -104 2204.5 -124.0Q2167 -144 2125 -144Q2082 -144 2045.0 -124.0Q2008 -104 1981 -72ZM1622 -72H1909Q1882 -104 1845.0 -124.0Q1808 -144 1765 -144Q1723 -144 1685.5 -124.0Q1648 -104 1622 -72Z" style="fill:#31d2f7;stroke:none" transform="scale(1,-1) translate(0,-256)" /></svg>