<?xml version="1.0" encoding="utf-8" ?>
<svg baseProfile="full" height="256" version="1.1" width="256" xmlns="http://www.w3.org/2000/svg" xmlns:ev="http://www.w3.org/2001/xml-events" xmlns:xlink="http://www.w3.org/1999/xlink"><defs /><path d="M2125 1006Q2125 907 2099.5 815.0Q2074 723 2027.0 643.5Q1980 564 1914.5 498.5Q1849 433 1769.0 386.0Q1689 339 1597.0 313.5Q1505 288 1406 288Q1307 288 1215.0 313.5Q1123 339 1043.0 386.0Q963 433 897.5 498.5Q832 564 785.0 643.5Q738 723 712.5 815.0Q687 907 687 1006Q687 1105 712.5 1197.0Q738 1289 785.0 1369.0Q832 1449 897.5 1514.5Q963 1580 1043.0 1627.0Q1123 1674 1215.0 1699.5Q1307 1725 1406 1725Q1505 1725 1597.0 1699.5Q1689 1674 1769.0 1627.0Q1849 1580 1914.5 1514.5Q1980 1449 2027.0 1369.0Q2074 1289 2099.5 1197.0Q2125 1105 2125 1006Z" style="fill:#ffc83d;stroke:none" transform="scale(1,-1) translate(0,-256)" /></svg>