<?xml version="1.0" encoding="utf-8" ?>
<svg baseProfile="full" height="256" version="1.1" width="256" xmlns="http://www.w3.org/2000/svg" xmlns:ev="http://www.w3.org/2001/xml-events" xmlns:xlink="http://www.w3.org/1999/xlink"><defs /><path d="M2412 863H400V1006H2412ZM400 413V487Q547 459 676.0 390.0Q805 321 906.5 219.5Q1008 118 1077.0 -11.0Q1146 -140 1174 -287H1100Q1073 -155 1010.0 -39.5Q947 76 855.0 168.0Q763 260 647.5 323.0Q532 386 400 413ZM2412 413V487Q2265 459 2136.0 390.0Q2007 321 1905.5 219.5Q1804 118 1735.0 -11.0Q1666 -140 1638 -287H1712Q1739 -155 1802.0 -39.5Q1865 76 1957.0 168.0Q2049 260 2164.5 323.0Q2280 386 2412 413Z" style="fill:#83beec;stroke:none" transform="scale(1,-1) translate(0,-256)" /></svg>