<?xml version="1.0" encoding="utf-8" ?>
<svg baseProfile="full" height="256" version="1.1" width="256" xmlns="http://www.w3.org/2000/svg" xmlns:ev="http://www.w3.org/2001/xml-events" xmlns:xlink="http://www.w3.org/1999/xlink"><defs /><path d="M1071 911Q1120 914 1160.0 918.5Q1200 923 1238.0 926.5Q1276 930 1316.5 932.5Q1357 935 1406 935Q1455 935 1495.5 932.5Q1536 930 1574.0 926.5Q1612 923 1652.0 918.5Q1692 914 1741 911L2412 863V487Q2128 393 1930.5 195.0Q1733 -3 1638 -287H1174Q1129 -149 1054.5 -27.0Q980 95 881.0 194.5Q782 294 660.5 368.5Q539 443 400 487V863Z" style="fill:#3a96dd;stroke:none" transform="scale(1,-1) translate(0,-256)" /></svg>