<?xml version="1.0" encoding="utf-8" ?>
<svg baseProfile="full" height="256" version="1.1" width="256" xmlns="http://www.w3.org/2000/svg" xmlns:ev="http://www.w3.org/2001/xml-events" xmlns:xlink="http://www.w3.org/1999/xlink"><defs /><path d="M1047 0Q1017 0 980.5 1.0Q944 2 905.0 6.0Q866 10 827.5 19.0Q789 28 756.5 44.0Q724 60 700.0 84.5Q676 109 666 144Q572 226 522.0 338.0Q472 450 472 575L518 665H2218L2268 575Q2268 535 2267.0 495.5Q2266 456 2266 416Q2266 389 2269.0 368.0Q2272 347 2277.5 327.5Q2283 308 2289.5 288.0Q2296 268 2304 243L2375 8Q2054 7 1736.0 5.5Q1418 4 1097 4Q1084 4 1072.0 2.0Q1060 0 1047 0Z" style="fill:#e5e5e5;stroke:none" transform="scale(1,-1) translate(0,-256)" /></svg>