<?xml version="1.0" encoding="utf-8" ?>
<svg baseProfile="full" height="256" version="1.1" width="256" xmlns="http://www.w3.org/2000/svg" xmlns:ev="http://www.w3.org/2001/xml-events" xmlns:xlink="http://www.w3.org/1999/xlink"><defs /><path d="M2412 144V-287H400V144H666Q712 102 768 72H781Q812 72 838.5 73.5Q865 75 888.5 82.0Q912 89 933.0 103.5Q954 118 975 144Q1001 112 1038.5 92.0Q1076 72 1118 72Q1161 72 1198.0 92.0Q1235 112 1262 144Q1289 112 1326.0 92.0Q1363 72 1406 72Q1449 72 1486.0 92.0Q1523 112 1550 144Q1576 112 1613.5 92.0Q1651 72 1693 72Q1736 72 1773.0 92.0Q1810 112 1837 144Q1864 112 1901.0 92.0Q1938 72 1981 72Q2024 72 2061.0 92.0Q2098 112 2125 144Q2151 112 2188.5 92.0Q2226 72 2268 72Q2311 72 2348.0 92.0Q2385 112 2412 144Z" style="fill:#00bcf2;stroke:none" transform="scale(1,-1) translate(0,-256)" /></svg>