<?xml version="1.0" encoding="utf-8" ?>
<svg baseProfile="full" height="256" version="1.1" width="256" xmlns="http://www.w3.org/2000/svg" xmlns:ev="http://www.w3.org/2001/xml-events" xmlns:xlink="http://www.w3.org/1999/xlink"><defs /><path d="M769 790Q742 790 727.0 810.5Q712 831 706 854L547 1489Q547 1495 545.0 1502.0Q543 1509 543 1516Q543 1546 561.0 1564.0Q579 1582 609 1582Q622 1582 634 1579Q634 1579 637.0 1578.0Q640 1577 658.0 1572.5Q676 1568 714.5 1558.5Q753 1549 823.5 1531.0Q894 1513 1002.5 1486.0Q1111 1459 1270 1419Q1293 1413 1313.5 1398.0Q1334 1383 1334 1356Q1334 1339 1325.0 1323.5Q1316 1308 1304 1296L828 820Q816 808 801.0 799.0Q786 790 769 790Z" style="fill:#757575;stroke:none" transform="scale(1,-1) translate(0,-256)" /></svg>