<?xml version="1.0" encoding="utf-8" ?>
<svg baseProfile="full" height="256" version="1.1" width="256" xmlns="http://www.w3.org/2000/svg" xmlns:ev="http://www.w3.org/2001/xml-events" xmlns:xlink="http://www.w3.org/1999/xlink"><defs /><path d="M2310 -431Q2209 -431 2137 -359L1653 125Q1622 99 1584.0 85.5Q1546 72 1506 72Q1459 72 1417.0 89.5Q1375 107 1342 140L1042 440Q1037 445 1033.0 449.5Q1029 454 1025 460Q950 486 886.5 533.5Q823 581 778 647Q695 647 640.5 694.0Q586 741 566 820L435 1342L410 1366Q381 1393 353.5 1420.5Q326 1448 304.5 1479.0Q283 1510 269.5 1545.5Q256 1581 256 1623Q256 1674 275.5 1718.5Q295 1763 328.0 1796.5Q361 1830 405.5 1849.5Q450 1869 501 1869Q549 1869 587.5 1852.0Q626 1835 658.5 1808.5Q691 1782 721.0 1750.5Q751 1719 783 1689L1305 1559Q1341 1550 1373.0 1531.5Q1405 1513 1428.0 1486.5Q1451 1460 1464.5 1427.0Q1478 1394 1478 1356V1346Q1544 1301 1591.5 1238.0Q1639 1175 1665 1100Q1671 1096 1675.5 1091.5Q1680 1087 1685 1082L1985 782Q2017 750 2035.0 707.5Q2053 665 2053 619Q2053 579 2039.5 541.0Q2026 503 2000 472L2484 -12Q2519 -47 2537.5 -92.0Q2556 -137 2556 -186Q2556 -237 2536.5 -281.5Q2517 -326 2484.0 -359.5Q2451 -393 2406.0 -412.0Q2361 -431 2310 -431Z" style="fill:#000000;stroke:none" transform="scale(1,-1) translate(0,-256)" /></svg>