<?xml version="1.0" encoding="utf-8" ?>
<svg baseProfile="full" height="256" version="1.1" width="256" xmlns="http://www.w3.org/2000/svg" xmlns:ev="http://www.w3.org/2001/xml-events" xmlns:xlink="http://www.w3.org/1999/xlink"><defs /><path d="M1549 935Q1549 860 1521.0 794.5Q1493 729 1444.0 680.5Q1395 632 1330.0 603.5Q1265 575 1190 575Q1116 575 1050.5 603.5Q985 632 936.5 681.0Q888 730 859.5 795.5Q831 861 831 935Q831 1009 859.5 1074.5Q888 1140 936.5 1188.5Q985 1237 1050.5 1265.5Q1116 1294 1190 1294Q1264 1294 1329.5 1265.5Q1395 1237 1443.5 1188.5Q1492 1140 1520.5 1074.5Q1549 1009 1549 935Z" style="fill:#ffb900;stroke:none" transform="scale(1,-1) translate(0,-256)" /></svg>