<?xml version="1.0" encoding="utf-8" ?>
<svg baseProfile="full" height="256" version="1.1" width="256" xmlns="http://www.w3.org/2000/svg" xmlns:ev="http://www.w3.org/2001/xml-events" xmlns:xlink="http://www.w3.org/1999/xlink"><defs /><path d="M1657 790Q1671 790 1682.0 779.5Q1693 769 1693 755Q1693 740 1683.0 729.0Q1673 718 1657 718Q1642 718 1631.5 729.0Q1621 740 1621 755Q1621 769 1632.0 779.5Q1643 790 1657 790ZM1477 755Q1477 769 1488.0 779.5Q1499 790 1513 790Q1527 790 1538.0 779.5Q1549 769 1549 755Q1549 740 1539.0 729.0Q1529 718 1513 718Q1498 718 1487.5 729.0Q1477 740 1477 755ZM1477 898Q1477 912 1488.0 923.0Q1499 934 1513 934Q1528 934 1538.5 923.5Q1549 913 1549 898Q1549 884 1538.0 873.0Q1527 862 1513 862Q1499 862 1488.0 873.0Q1477 884 1477 898Z" style="fill:#ffffff;stroke:none" transform="scale(1,-1) translate(0,-256)" /></svg>