<?xml version="1.0" encoding="utf-8" ?>
<svg baseProfile="full" height="256" version="1.1" width="256" xmlns="http://www.w3.org/2000/svg" xmlns:ev="http://www.w3.org/2001/xml-events" xmlns:xlink="http://www.w3.org/1999/xlink"><defs /><path d="M1406 216Q1337 216 1269.0 238.0Q1201 260 1147 302Q1133 313 1125.5 327.5Q1118 342 1118 359Q1118 389 1139.5 410.0Q1161 431 1191 431Q1213 431 1233 417Q1312 361 1406 361Q1455 361 1496.5 375.0Q1538 389 1578 417Q1598 431 1621 431Q1651 431 1672.0 410.5Q1693 390 1693 360Q1693 324 1665 302Q1611 260 1542.5 238.0Q1474 216 1406 216ZM1083 719Q1060 719 1040.5 727.5Q1021 736 1006.5 750.5Q992 765 983.5 784.5Q975 804 975 827V899Q975 921 983.5 941.0Q992 961 1007.0 975.0Q1022 989 1041.5 997.5Q1061 1006 1083 1006Q1105 1006 1124.5 997.5Q1144 989 1158.5 974.5Q1173 960 1181.5 940.5Q1190 921 1190 899V827Q1190 805 1181.5 785.5Q1173 766 1159.0 751.0Q1145 736 1125.0 727.5Q1105 719 1083 719ZM1729 719Q1706 719 1686.5 727.5Q1667 736 1653.0 751.0Q1639 766 1630.5 785.5Q1622 805 1622 827V899Q1622 921 1630.5 940.5Q1639 960 1653.5 974.5Q1668 989 1687.5 997.5Q1707 1006 1729 1006Q1751 1006 1770.5 997.5Q1790 989 1805.0 975.0Q1820 961 1828.5 941.0Q1837 921 1837 899V827Q1837 804 1828.5 784.5Q1820 765 1805.5 750.5Q1791 736 1771.0 727.5Q1751 719 1729 719Z" style="fill:#000000;stroke:none" transform="scale(1,-1) translate(0,-256)" /></svg>