<?xml version="1.0" encoding="utf-8" ?>
<svg baseProfile="full" height="256" version="1.1" width="256" xmlns="http://www.w3.org/2000/svg" xmlns:ev="http://www.w3.org/2001/xml-events" xmlns:xlink="http://www.w3.org/1999/xlink"><defs /><path d="M788 989 543 1136V446L781 589L818 527L543 360L823 189L786 128L543 273V-251Q543 -265 532.5 -276.0Q522 -287 508 -287Q493 -287 482.5 -276.5Q472 -266 472 -251V1516Q440 1527 420.0 1555.0Q400 1583 400 1617Q400 1639 408.5 1659.0Q417 1679 431.5 1693.5Q446 1708 465.5 1716.5Q485 1725 508 1725Q530 1725 550.0 1716.5Q570 1708 584.0 1693.0Q598 1678 606.5 1658.5Q615 1639 615 1617Q615 1583 595.0 1555.0Q575 1527 543 1516V1308L786 1454L823 1392L543 1222L808 1060Z" style="fill:#cccccc;stroke:none" transform="scale(1,-1) translate(0,-256)" /></svg>