<?xml version="1.0" encoding="utf-8" ?>
<svg baseProfile="full" height="256" version="1.1" width="256" xmlns="http://www.w3.org/2000/svg" xmlns:ev="http://www.w3.org/2001/xml-events" xmlns:xlink="http://www.w3.org/1999/xlink"><defs /><path d="M975 1006H831V1438H975Q1020 1438 1059.0 1421.0Q1098 1404 1127.0 1374.5Q1156 1345 1173.0 1306.0Q1190 1267 1190 1222Q1190 1177 1173.0 1138.0Q1156 1099 1127.0 1069.5Q1098 1040 1059.0 1023.0Q1020 1006 975 1006ZM1622 1438H1125Q1119 1456 1119 1474Q1119 1496 1127.5 1515.5Q1136 1535 1150.5 1549.5Q1165 1564 1184.5 1572.5Q1204 1581 1226 1581Q1240 1581 1250.0 1578.5Q1260 1576 1272 1571ZM1190 1006H1472Q1478 989 1478 971Q1478 949 1469.5 929.0Q1461 909 1446.0 894.0Q1431 879 1411.5 870.5Q1392 862 1370 862Q1350 862 1329.0 870.5Q1308 879 1294 894Z" style="fill:#0078d7;stroke:none" transform="scale(1,-1) translate(0,-256)" /></svg>