<?xml version="1.0" encoding="utf-8" ?>
<svg baseProfile="full" height="256" version="1.1" width="256" xmlns="http://www.w3.org/2000/svg" xmlns:ev="http://www.w3.org/2001/xml-events" xmlns:xlink="http://www.w3.org/1999/xlink"><defs /><path d="M1298 503Q1313 503 1323.5 492.5Q1334 482 1334 467V252Q1334 237 1323.5 226.5Q1313 216 1298 216Q1283 216 1272.5 226.5Q1262 237 1262 252V467Q1262 482 1272.5 492.5Q1283 503 1298 503ZM1442 503Q1457 503 1467.5 492.5Q1478 482 1478 467V252Q1478 237 1467.5 226.5Q1457 216 1442 216Q1427 216 1416.5 226.5Q1406 237 1406 252V467Q1406 482 1416.5 492.5Q1427 503 1442 503ZM1586 503Q1601 503 1611.5 492.5Q1622 482 1622 467V252Q1622 237 1611.5 226.5Q1601 216 1586 216Q1571 216 1560.5 226.5Q1550 237 1550 252V467Q1550 482 1560.5 492.5Q1571 503 1586 503ZM1729 503Q1744 503 1754.5 492.5Q1765 482 1765 467V252Q1765 237 1754.5 226.5Q1744 216 1729 216Q1715 216 1704.5 227.0Q1694 238 1694 252V467Q1694 481 1704.5 492.0Q1715 503 1729 503ZM1873 503Q1888 503 1898.5 492.5Q1909 482 1909 467V252Q1909 237 1898.5 226.5Q1888 216 1873 216Q1858 216 1847.5 226.5Q1837 237 1837 252V467Q1837 482 1847.5 492.5Q1858 503 1873 503Z" style="fill:#f7b189;stroke:none" transform="scale(1,-1) translate(0,-256)" /></svg>