<?xml version="1.0" encoding="utf-8" ?>
<svg baseProfile="full" height="256" version="1.1" width="256" xmlns="http://www.w3.org/2000/svg" xmlns:ev="http://www.w3.org/2001/xml-events" xmlns:xlink="http://www.w3.org/1999/xlink"><defs /><path d="M1298 1366Q1313 1366 1323.5 1355.5Q1334 1345 1334 1330V1114Q1334 1099 1323.5 1088.5Q1313 1078 1298 1078Q1283 1078 1272.5 1088.5Q1262 1099 1262 1114V1330Q1262 1345 1272.5 1355.5Q1283 1366 1298 1366ZM1442 1366Q1457 1366 1467.5 1355.5Q1478 1345 1478 1330V1114Q1478 1099 1467.5 1088.5Q1457 1078 1442 1078Q1427 1078 1416.5 1088.5Q1406 1099 1406 1114V1330Q1406 1345 1416.5 1355.5Q1427 1366 1442 1366ZM1586 1366Q1601 1366 1611.5 1355.5Q1622 1345 1622 1330V1114Q1622 1099 1611.5 1088.5Q1601 1078 1586 1078Q1571 1078 1560.5 1088.5Q1550 1099 1550 1114V1330Q1550 1345 1560.5 1355.5Q1571 1366 1586 1366ZM1729 1366Q1744 1366 1754.5 1355.5Q1765 1345 1765 1330V1114Q1765 1099 1754.5 1088.5Q1744 1078 1729 1078Q1715 1078 1704.5 1089.0Q1694 1100 1694 1114V1330Q1694 1344 1704.5 1355.0Q1715 1366 1729 1366ZM1873 1366Q1888 1366 1898.5 1355.5Q1909 1345 1909 1330V1114Q1909 1099 1898.5 1088.5Q1888 1078 1873 1078Q1858 1078 1847.5 1088.5Q1837 1099 1837 1114V1330Q1837 1345 1847.5 1355.5Q1858 1366 1873 1366Z" style="fill:#69eaff;stroke:none" transform="scale(1,-1) translate(0,-256)" /></svg>