<?xml version="1.0" encoding="utf-8" ?>
<svg baseProfile="full" height="256" version="1.1" width="256" xmlns="http://www.w3.org/2000/svg" xmlns:ev="http://www.w3.org/2001/xml-events" xmlns:xlink="http://www.w3.org/1999/xlink"><defs /><path d="M975 144H831V575H975Q1020 575 1059.0 558.0Q1098 541 1127.0 512.0Q1156 483 1173.0 444.0Q1190 405 1190 360Q1190 315 1173.0 276.0Q1156 237 1127.0 207.5Q1098 178 1059.0 161.0Q1020 144 975 144ZM1622 575H1125Q1119 593 1119 612Q1119 634 1127.5 653.5Q1136 673 1150.5 687.5Q1165 702 1184.5 710.5Q1204 719 1226 719Q1240 719 1249.5 716.5Q1259 714 1272 709ZM1190 144H1472Q1478 126 1478 108Q1478 86 1469.5 66.5Q1461 47 1446.0 32.0Q1431 17 1411.5 8.5Q1392 0 1370 0Q1350 0 1329.0 8.5Q1308 17 1294 32Z" style="fill:#e81224;stroke:none" transform="scale(1,-1) translate(0,-256)" /></svg>