<?xml version="1.0" encoding="utf-8" ?>
<svg baseProfile="full" height="256" version="1.1" width="256" xmlns="http://www.w3.org/2000/svg" xmlns:ev="http://www.w3.org/2001/xml-events" xmlns:xlink="http://www.w3.org/1999/xlink"><defs /><path d="M2269 360Q2269 337 2282.0 308.5Q2295 280 2313.0 252.0Q2331 224 2351.0 198.5Q2371 173 2386 156Q2398 142 2405.0 126.5Q2412 111 2412 92Q2412 54 2386.0 27.0Q2360 0 2321 0Q2301 0 2288.5 5.0Q2276 10 2266.0 18.0Q2256 26 2247.5 37.5Q2239 49 2227 61Q2194 96 2148.5 120.0Q2103 144 2053 144H1471Q1464 135 1452.5 125.5Q1441 116 1428.0 107.5Q1415 99 1401.5 94.0Q1388 89 1376 89Q1357 89 1332.0 94.5Q1307 100 1281.5 108.0Q1256 116 1232.5 126.0Q1209 136 1191 144H985L907 178L831 144V123Q831 104 825.5 88.0Q820 72 795 72Q780 72 769.5 82.5Q759 93 759 108V611Q759 626 769.5 636.5Q780 647 795 647Q820 647 825.5 631.0Q831 615 831 596V575L912 535L983 575H1125Q1126 586 1135.0 594.0Q1144 602 1156.0 606.5Q1168 611 1180.5 613.0Q1193 615 1202 615Q1280 615 1356.5 606.0Q1433 597 1510 588Q1538 585 1565.0 580.0Q1592 575 1620 575H2053Q2103 575 2148.5 599.0Q2194 623 2227 658Q2239 670 2247.5 681.5Q2256 693 2266.0 701.0Q2276 709 2288.5 714.0Q2301 719 2321 719Q2359 719 2385.5 692.5Q2412 666 2412 628Q2412 608 2405.5 593.5Q2399 579 2386 563Q2385 561 2381 557L2376 551Q2361 532 2342.5 508.0Q2324 484 2307.5 458.0Q2291 432 2280.0 406.5Q2269 381 2269 360Z" style="fill:#f7630c;stroke:none" transform="scale(1,-1) translate(0,-256)" /></svg>