<?xml version="1.0" encoding="utf-8" ?>
<svg baseProfile="full" height="256" version="1.1" width="256" xmlns="http://www.w3.org/2000/svg" xmlns:ev="http://www.w3.org/2001/xml-events" xmlns:xlink="http://www.w3.org/1999/xlink"><defs /><path d="M975 1366Q1004 1366 1025.5 1344.5Q1047 1323 1047 1294V1222Q1047 1193 1025.5 1171.5Q1004 1150 975 1150Q945 1150 924.0 1171.0Q903 1192 903 1222V1294Q903 1324 924.0 1345.0Q945 1366 975 1366ZM975 503Q1004 503 1025.5 481.5Q1047 460 1047 431V360Q1047 331 1025.5 309.5Q1004 288 975 288Q945 288 924.0 309.0Q903 330 903 360V431Q903 461 924.0 482.0Q945 503 975 503Z" style="fill:#ffffff;stroke:none" transform="scale(1,-1) translate(0,-256)" /></svg>