<?xml version="1.0" encoding="utf-8" ?>
<svg baseProfile="full" height="256" version="1.1" width="256" xmlns="http://www.w3.org/2000/svg" xmlns:ev="http://www.w3.org/2001/xml-events" xmlns:xlink="http://www.w3.org/1999/xlink"><defs /><path d="M2416 360Q2435 322 2459.5 293.5Q2484 265 2505.5 236.5Q2527 208 2541.5 174.0Q2556 140 2556 92Q2556 43 2537.5 0.0Q2519 -43 2487.0 -75.0Q2455 -107 2412.5 -125.5Q2370 -144 2321 -144Q2281 -144 2250.5 -133.5Q2220 -123 2196.5 -107.0Q2173 -91 2154.0 -72.0Q2135 -53 2118.5 -37.0Q2102 -21 2086.5 -10.5Q2071 0 2053 0H1597Q1582 -33 1558.0 -59.5Q1534 -86 1504.5 -104.5Q1475 -123 1440.5 -133.5Q1406 -144 1370 -144Q1326 -144 1292.5 -133.0Q1259 -122 1231.5 -102.5Q1204 -83 1179.0 -56.5Q1154 -30 1127 0H939Q913 -33 875.0 -52.5Q837 -72 795 -72Q766 -72 738.0 -62.5Q710 -53 687 -36V-251Q687 -288 673.0 -321.0Q659 -354 634.5 -378.5Q610 -403 577.5 -417.0Q545 -431 508 -431Q470 -431 437.5 -417.0Q405 -403 380.5 -378.5Q356 -354 342.0 -321.5Q328 -289 328 -251V1442Q293 1477 274.5 1522.5Q256 1568 256 1617Q256 1669 276.0 1715.0Q296 1761 330.0 1795.0Q364 1829 410.0 1849.0Q456 1869 508 1869Q555 1869 597.5 1852.0Q640 1835 673.5 1805.5Q707 1776 729.0 1735.5Q751 1695 757 1649Q773 1653 795 1653Q838 1653 875.5 1634.0Q913 1615 939 1581H999Q1014 1614 1038.0 1640.5Q1062 1667 1092.0 1685.5Q1122 1704 1156.0 1714.5Q1190 1725 1226 1725Q1252 1725 1277.5 1719.0Q1303 1713 1327 1704L1648 1581H2053Q2071 1581 2087.0 1591.5Q2103 1602 2119.0 1618.0Q2135 1634 2153.5 1653.0Q2172 1672 2195.5 1688.0Q2219 1704 2249.5 1714.5Q2280 1725 2321 1725Q2369 1725 2412.0 1706.5Q2455 1688 2487.0 1656.0Q2519 1624 2537.5 1581.0Q2556 1538 2556 1490Q2556 1441 2541.5 1407.5Q2527 1374 2505.5 1345.5Q2484 1317 2459.5 1288.5Q2435 1260 2416 1222Q2435 1184 2459.5 1155.5Q2484 1127 2505.5 1098.5Q2527 1070 2541.5 1036.5Q2556 1003 2556 954Q2556 909 2539.0 866.0Q2522 823 2490 791Q2522 758 2539.0 715.5Q2556 673 2556 627Q2556 578 2541.5 544.5Q2527 511 2505.5 483.0Q2484 455 2459.5 426.5Q2435 398 2416 360Z" style="fill:#000000;stroke:none" transform="scale(1,-1) translate(0,-256)" /></svg>