<?xml version="1.0" encoding="utf-8" ?>
<svg baseProfile="full" height="256" version="1.1" width="256" xmlns="http://www.w3.org/2000/svg" xmlns:ev="http://www.w3.org/2001/xml-events" xmlns:xlink="http://www.w3.org/1999/xlink"><defs /><path d="M975 1150Q945 1150 924.0 1171.0Q903 1192 903 1222Q903 1252 924.0 1273.0Q945 1294 975 1294Q1004 1294 1025.5 1272.5Q1047 1251 1047 1222Q1047 1193 1025.5 1171.5Q1004 1150 975 1150ZM975 431Q1004 431 1025.5 410.0Q1047 389 1047 360Q1047 331 1025.5 309.5Q1004 288 975 288Q945 288 924.0 309.0Q903 330 903 360Q903 389 924.5 410.0Q946 431 975 431Z" style="fill:#000000;stroke:none" transform="scale(1,-1) translate(0,-256)" /></svg>