<?xml version="1.0" encoding="utf-8" ?>
<svg baseProfile="full" height="256" version="1.1" width="256" xmlns="http://www.w3.org/2000/svg" xmlns:ev="http://www.w3.org/2001/xml-events" xmlns:xlink="http://www.w3.org/1999/xlink"><defs /><path d="M2269 1212Q2269 1201 2274.0 1187.0Q2279 1173 2286.5 1158.5Q2294 1144 2302.0 1131.0Q2310 1118 2316 1109Q2332 1084 2350.5 1063.0Q2369 1042 2386 1019L2391 1013Q2412 986 2412 950Q2412 932 2404.5 916.0Q2397 900 2384.0 888.0Q2371 876 2355.0 869.5Q2339 863 2321 863Q2299 863 2283.5 870.5Q2268 878 2256.0 890.0Q2244 902 2232.5 916.0Q2221 930 2206 943Q2192 955 2174.0 966.5Q2156 978 2136.0 986.5Q2116 995 2095.5 1000.5Q2075 1006 2057 1006H1472Q1466 995 1455.0 985.5Q1444 976 1430.5 968.0Q1417 960 1403.0 955.5Q1389 951 1377 951Q1357 951 1333.0 956.5Q1309 962 1283.5 970.0Q1258 978 1234.0 987.5Q1210 997 1192 1005H1175Q1158 1005 1140.5 1005.5Q1123 1006 1106 1006Q1085 1006 1063.5 1005.0Q1042 1004 1021 1004Q1015 1004 1009.5 1005.0Q1004 1006 999 1006H831V995Q831 985 830.5 974.5Q830 964 826.5 955.0Q823 946 815.5 940.5Q808 935 795 935Q778 935 768.5 945.0Q759 955 759 971V1474Q759 1491 770.0 1500.5Q781 1510 798 1510Q810 1510 816.5 1504.0Q823 1498 826.5 1488.5Q830 1479 830.5 1468.0Q831 1457 831 1448V1438Q879 1438 926.0 1439.0Q973 1440 1021 1440Q1047 1440 1073.0 1439.0Q1099 1438 1125 1438Q1127 1451 1142.0 1460.5Q1157 1470 1176.0 1476.5Q1195 1483 1214.5 1486.0Q1234 1489 1245 1489Q1313 1489 1380.0 1479.5Q1447 1470 1513 1457Q1540 1452 1566.5 1445.0Q1593 1438 1621 1438H2057Q2108 1438 2151.0 1463.0Q2194 1488 2229 1523Q2242 1536 2255.0 1551.5Q2268 1567 2285 1574Q2303 1581 2325 1581Q2328 1581 2330.5 1580.5Q2333 1580 2336 1580Q2369 1568 2390.5 1549.0Q2412 1530 2412 1490Q2412 1461 2389.5 1430.5Q2367 1400 2340.5 1366.0Q2314 1332 2291.5 1293.5Q2269 1255 2269 1212Z" style="fill:#00bcf2;stroke:none" transform="scale(1,-1) translate(0,-256)" /></svg>