<?xml version="1.0" encoding="utf-8" ?>
<svg baseProfile="full" height="256" version="1.1" width="256" xmlns="http://www.w3.org/2000/svg" xmlns:ev="http://www.w3.org/2001/xml-events" xmlns:xlink="http://www.w3.org/1999/xlink"><defs /><path d="M1982 1725 2125 1610V1006H1982V863H832V1006H688V1610L832 1725V1294H1982ZM1407 1366Q1333 1366 1267.5 1394.0Q1202 1422 1153.0 1471.0Q1104 1520 1075.5 1585.5Q1047 1651 1047 1725H1191Q1191 1680 1208.0 1641.0Q1225 1602 1254.5 1573.0Q1284 1544 1323.0 1527.0Q1362 1510 1407 1510Q1452 1510 1491.0 1527.0Q1530 1544 1559.0 1573.0Q1588 1602 1605.0 1641.0Q1622 1680 1622 1725H1766Q1766 1651 1737.5 1585.5Q1709 1520 1660.5 1471.5Q1612 1423 1546.5 1394.5Q1481 1366 1407 1366Z" style="fill:#ffffff;stroke:none" transform="scale(1,-1) translate(0,-256)" /></svg>