<?xml version="1.0" encoding="utf-8" ?>
<svg baseProfile="full" height="256" version="1.1" width="256" xmlns="http://www.w3.org/2000/svg" xmlns:ev="http://www.w3.org/2001/xml-events" xmlns:xlink="http://www.w3.org/1999/xlink"><defs /><path d="M2039 1630Q2060 1625 2082.5 1622.0Q2105 1619 2125 1610Q2148 1599 2169.5 1583.0Q2191 1567 2213 1553L2389 1438L2245 1006H2125Q2117 1006 2090.5 1014.0Q2064 1022 2032.5 1032.5Q2001 1043 1971.0 1053.0Q1941 1063 1928 1067Q1930 1061 1935.0 1044.5Q1940 1028 1946.0 1006.5Q1952 985 1958.0 961.0Q1964 937 1969.5 916.5Q1975 896 1978.5 881.0Q1982 866 1982 863V431L1880 212L1982 0V-287H832V0Q832 1 837.0 16.5Q842 32 849.0 54.0Q856 76 865.0 102.5Q874 129 882.0 153.0Q890 177 896.0 195.0Q902 213 904 219Q902 224 896.0 241.0Q890 258 882.0 281.5Q874 305 865.5 331.0Q857 357 849.5 379.0Q842 401 837.0 415.5Q832 430 832 431V863Q832 864 836.5 878.5Q841 893 847.5 913.5Q854 934 862.0 958.5Q870 983 877.5 1005.0Q885 1027 890.5 1043.0Q896 1059 898 1064Q884 1061 852.5 1051.5Q821 1042 787.0 1032.0Q753 1022 724.5 1014.0Q696 1006 688 1006H569L425 1438Q491 1481 555.0 1526.5Q619 1572 688 1610Q706 1621 725.0 1627.5Q744 1634 764 1642L832 1725H1047Q1062 1705 1087.5 1675.5Q1113 1646 1144.5 1613.5Q1176 1581 1211.5 1548.5Q1247 1516 1282.0 1490.0Q1317 1464 1349.5 1447.5Q1382 1431 1407 1431Q1433 1431 1465.0 1447.5Q1497 1464 1531.5 1490.0Q1566 1516 1600.5 1548.5Q1635 1581 1666.5 1614.0Q1698 1647 1723.5 1676.5Q1749 1706 1766 1725H1982Z" style="fill:#f03a17;stroke:none" transform="scale(1,-1) translate(0,-256)" /></svg>