<?xml version="1.0" encoding="utf-8" ?>
<svg baseProfile="full" height="256" version="1.1" width="256" xmlns="http://www.w3.org/2000/svg" xmlns:ev="http://www.w3.org/2001/xml-events" xmlns:xlink="http://www.w3.org/1999/xlink"><defs /><path d="M1836 460Q1865 460 1886.5 438.5Q1908 417 1908 388Q1908 377 1905.5 369.0Q1903 361 1898 351Q1863 287 1809.0 235.5Q1755 184 1689.0 147.5Q1623 111 1550.5 91.5Q1478 72 1406 72Q1334 72 1261.0 91.5Q1188 111 1122.0 147.5Q1056 184 1001.5 235.5Q947 287 913 351Q908 361 905.5 369.0Q903 377 903 388Q903 417 924.0 438.5Q945 460 974 460Q996 460 1009.5 450.5Q1023 441 1036 425Q1050 408 1062.0 390.0Q1074 372 1088 355Q1117 322 1154.0 296.0Q1191 270 1232.0 252.0Q1273 234 1317.5 225.0Q1362 216 1406 216Q1449 216 1493.5 225.5Q1538 235 1579.5 252.5Q1621 270 1657.5 296.0Q1694 322 1723 355Q1737 372 1749.0 390.0Q1761 408 1775 425Q1788 442 1800.5 451.0Q1813 460 1836 460ZM1190 791Q1190 828 1176.0 861.0Q1162 894 1138.0 918.5Q1114 943 1081.0 957.0Q1048 971 1011 971Q973 971 940.5 957.0Q908 943 883.5 918.5Q859 894 845.0 861.0Q831 828 831 791H759V827Q759 879 779.0 925.0Q799 971 833.0 1005.0Q867 1039 913.0 1058.5Q959 1078 1011 1078Q1063 1078 1109.0 1058.5Q1155 1039 1189.0 1005.0Q1223 971 1242.5 925.0Q1262 879 1262 827V791ZM1801 1078Q1853 1078 1899.0 1058.5Q1945 1039 1979.0 1005.0Q2013 971 2033.0 925.0Q2053 879 2053 827V791H1981Q1981 828 1967.0 861.0Q1953 894 1928.5 918.5Q1904 943 1871.0 957.0Q1838 971 1801 971Q1763 971 1730.5 957.0Q1698 943 1674.0 918.5Q1650 894 1636.0 861.0Q1622 828 1622 791H1550V827Q1550 879 1569.5 925.0Q1589 971 1623.0 1005.0Q1657 1039 1702.5 1058.5Q1748 1078 1801 1078Z" style="fill:#000000;stroke:none" transform="scale(1,-1) translate(0,-256)" /></svg>