<?xml version="1.0" encoding="utf-8" ?>
<svg baseProfile="full" height="256" version="1.1" width="256" xmlns="http://www.w3.org/2000/svg" xmlns:ev="http://www.w3.org/2001/xml-events" xmlns:xlink="http://www.w3.org/1999/xlink"><defs /><path d="M1047 1402Q1047 1350 1027.0 1304.0Q1007 1258 973.0 1224.0Q939 1190 893.0 1170.0Q847 1150 795 1150Q743 1150 697.0 1170.0Q651 1190 617.0 1224.0Q583 1258 563.0 1304.0Q543 1350 543 1402Q543 1454 563.0 1500.0Q583 1546 617.0 1580.0Q651 1614 697.0 1633.5Q743 1653 795 1653Q847 1653 893.0 1633.5Q939 1614 973.0 1580.0Q1007 1546 1027.0 1500.0Q1047 1454 1047 1402Z" style="fill:#ffffff;stroke:none" transform="scale(1,-1) translate(0,-256)" /></svg>