<?xml version="1.0" encoding="utf-8" ?>
<svg baseProfile="full" height="256" version="1.1" width="256" xmlns="http://www.w3.org/2000/svg" xmlns:ev="http://www.w3.org/2001/xml-events" xmlns:xlink="http://www.w3.org/1999/xlink"><defs /><path d="M543 -431Q484 -431 431.5 -408.5Q379 -386 340.0 -347.0Q301 -308 278.5 -255.5Q256 -203 256 -144Q256 -26 340 60Q391 111 441.5 161.5Q492 212 543 263V863Q543 973 567 1078Q487 1134 443.5 1219.5Q400 1305 400 1402Q400 1484 431.0 1556.0Q462 1628 515.5 1681.5Q569 1735 641.0 1766.0Q713 1797 795 1797Q858 1797 917.0 1777.5Q976 1758 1027 1722Q1145 1794 1278.0 1831.5Q1411 1869 1550 1869Q1689 1869 1817.5 1833.0Q1946 1797 2057.5 1731.5Q2169 1666 2261.0 1574.0Q2353 1482 2418.5 1370.5Q2484 1259 2520.0 1130.5Q2556 1002 2556 863Q2556 724 2520.0 595.5Q2484 467 2418.5 355.0Q2353 243 2261.5 151.0Q2170 59 2058.0 -6.5Q1946 -72 1817.5 -108.0Q1689 -144 1550 -144H950Q899 -195 848.5 -245.5Q798 -296 747 -347Q661 -431 543 -431Z" style="fill:#000000;stroke:none" transform="scale(1,-1) translate(0,-256)" /></svg>