<?xml version="1.0" encoding="utf-8" ?>
<svg baseProfile="full" height="256" version="1.1" width="256" xmlns="http://www.w3.org/2000/svg" xmlns:ev="http://www.w3.org/2001/xml-events" xmlns:xlink="http://www.w3.org/1999/xlink"><defs /><path d="M1406 0 891 213 687 719V863Q687 982 718.0 1092.0Q749 1202 805.0 1298.0Q861 1394 940.0 1472.5Q1019 1551 1115.0 1607.0Q1211 1663 1321.0 1694.0Q1431 1725 1550 1725Q1669 1725 1779.0 1694.0Q1889 1663 1985.0 1607.0Q2081 1551 2159.5 1472.5Q2238 1394 2294.0 1298.0Q2350 1202 2381.0 1092.0Q2412 982 2412 863Q2412 744 2381.0 634.0Q2350 524 2294.0 428.0Q2238 332 2159.5 253.0Q2081 174 1985.0 118.0Q1889 62 1779.0 31.0Q1669 0 1550 0Z" style="fill:#f03a17;stroke:none" transform="scale(1,-1) translate(0,-256)" /></svg>