<?xml version="1.0" encoding="utf-8" ?>
<svg baseProfile="full" height="256" version="1.1" width="256" xmlns="http://www.w3.org/2000/svg" xmlns:ev="http://www.w3.org/2001/xml-events" xmlns:xlink="http://www.w3.org/1999/xlink"><defs /><path d="M1262 1366H1622Q1622 1306 1599.5 1253.5Q1577 1201 1538.0 1162.0Q1499 1123 1446.5 1100.5Q1394 1078 1334 1078H1046Q1046 1006 1046.5 934.5Q1047 863 1047 791Q1047 731 1024.5 678.5Q1002 626 963.0 587.0Q924 548 871.5 525.5Q819 503 759 503V863H400Q400 922 422.5 974.5Q445 1027 484.0 1066.0Q523 1105 575.5 1127.5Q628 1150 687 1150V1438H975Q975 1497 997.5 1549.5Q1020 1602 1059.0 1641.0Q1098 1680 1150.5 1702.5Q1203 1725 1262 1725Z" style="fill:#107c10;stroke:none" transform="scale(1,-1) translate(0,-256)" /></svg>