<?xml version="1.0" encoding="utf-8" ?>
<svg baseProfile="full" height="256" version="1.1" width="256" xmlns="http://www.w3.org/2000/svg" xmlns:ev="http://www.w3.org/2001/xml-events" xmlns:xlink="http://www.w3.org/1999/xlink"><defs /><path d="M1586 1581Q1694 1581 1791.5 1545.5Q1889 1510 1968.0 1447.0Q2047 1384 2102.5 1296.0Q2158 1208 2182 1103L2400 159Q2405 137 2408.5 116.0Q2412 95 2412 72Q2412 -2 2383.5 -67.5Q2355 -133 2306.5 -181.5Q2258 -230 2192.5 -258.5Q2127 -287 2053 -287Q2035 -287 2017.0 -285.5Q1999 -284 1982 -280Q1889 -261 1797.5 -238.5Q1706 -216 1614 -194Q1471 -161 1330.5 -128.5Q1190 -96 1047 -62Q1010 -53 975.0 -43.0Q940 -33 905 -18Q823 17 756.0 75.5Q689 134 642.0 207.5Q595 281 569.0 365.5Q543 450 543 539Q543 643 576.0 738.0Q609 833 669.0 911.0Q729 989 812.5 1045.5Q896 1102 996 1129Q1023 1229 1079.5 1312.0Q1136 1395 1214.0 1455.0Q1292 1515 1387.0 1548.0Q1482 1581 1586 1581Z" style="fill:#f03a17;stroke:none" transform="scale(1,-1) translate(0,-256)" /></svg>