<?xml version="1.0" encoding="utf-8" ?>
<svg baseProfile="full" height="256" version="1.1" width="256" xmlns="http://www.w3.org/2000/svg" xmlns:ev="http://www.w3.org/2001/xml-events" xmlns:xlink="http://www.w3.org/1999/xlink"><defs /><path d="M2053 -431Q2029 -431 2004.0 -428.5Q1979 -426 1955 -421L1018 -202Q967 -190 918.5 -175.5Q870 -161 822 -138Q725 -92 647.0 -20.5Q569 51 514.0 139.5Q459 228 429.5 330.0Q400 432 400 539Q400 632 422 719H256V863Q256 931 277.0 994.5Q298 1058 335.5 1111.5Q373 1165 426.0 1205.5Q479 1246 543 1269V1581H856Q878 1646 918.5 1699.0Q959 1752 1012.5 1790.0Q1066 1828 1130.0 1848.5Q1194 1869 1262 1869H1406V1703Q1493 1725 1586 1725Q1719 1725 1839.5 1681.0Q1960 1637 2057.0 1558.0Q2154 1479 2223.0 1370.5Q2292 1262 2322 1133L2540 192Q2547 163 2551.5 133.0Q2556 103 2556 72Q2556 -32 2516.5 -123.5Q2477 -215 2408.5 -283.5Q2340 -352 2248.5 -391.5Q2157 -431 2053 -431Z" style="fill:#000000;stroke:none" transform="scale(1,-1) translate(0,-256)" /></svg>