<?xml version="1.0" encoding="utf-8" ?>
<svg baseProfile="full" height="256" version="1.1" width="256" xmlns="http://www.w3.org/2000/svg" xmlns:ev="http://www.w3.org/2001/xml-events" xmlns:xlink="http://www.w3.org/1999/xlink"><defs /><path d="M1549 1078Q1579 1078 1600 1057L1672 985Q1693 964 1693 934Q1693 905 1671.5 884.0Q1650 863 1621 863Q1592 863 1571 884L1499 956Q1478 977 1478 1006Q1478 1035 1499.0 1056.5Q1520 1078 1549 1078ZM2053 863Q2023 863 2002 884L1930 956Q1909 977 1909 1006Q1909 1035 1930.5 1056.5Q1952 1078 1981 1078Q2011 1078 2032 1057L2104 985Q2125 964 2125 934Q2125 905 2103.5 884.0Q2082 863 2053 863ZM1981 647Q2011 647 2032 626L2104 554Q2125 533 2125 503Q2125 474 2103.5 452.5Q2082 431 2053 431Q2023 431 2002 452L1930 524Q1909 545 1909 575Q1909 605 1930.0 626.0Q1951 647 1981 647ZM1981 216Q2011 216 2032 195L2104 123Q2125 102 2125 72Q2125 42 2104.0 21.0Q2083 0 2053 0Q2023 0 2002 21L1930 93Q1909 114 1909 144Q1909 174 1930.0 195.0Q1951 216 1981 216ZM1549 647Q1579 647 1600 626L1672 554Q1693 533 1693 503Q1693 474 1671.5 452.5Q1650 431 1621 431Q1592 431 1571 452L1499 524Q1478 545 1478 575Q1478 604 1499.0 625.5Q1520 647 1549 647ZM1549 216Q1579 216 1600 195L1672 123Q1693 102 1693 72Q1693 43 1671.5 21.5Q1650 0 1621 0Q1592 0 1571 21L1499 93Q1478 114 1478 144Q1478 173 1499.0 194.5Q1520 216 1549 216ZM1118 647Q1148 647 1169 626L1241 554Q1262 533 1262 503Q1262 474 1240.5 452.5Q1219 431 1190 431Q1160 431 1139 452L1068 524Q1047 545 1047 575Q1047 604 1068.0 625.5Q1089 647 1118 647ZM1118 216Q1148 216 1169 195L1241 123Q1262 102 1262 72Q1262 43 1240.5 21.5Q1219 0 1190 0Q1160 0 1139 21L1068 93Q1047 114 1047 144Q1047 173 1068.0 194.5Q1089 216 1118 216Z" style="fill:#af0d1a;stroke:none" transform="scale(1,-1) translate(0,-256)" /></svg>