<?xml version="1.0" encoding="utf-8" ?>
<svg baseProfile="full" height="256" version="1.1" width="256" xmlns="http://www.w3.org/2000/svg" xmlns:ev="http://www.w3.org/2001/xml-events" xmlns:xlink="http://www.w3.org/1999/xlink"><defs /><path d="M400 360V575Q400 578 407.5 602.5Q415 627 426.5 662.5Q438 698 452.0 740.5Q466 783 478.5 821.0Q491 859 500.5 888.0Q510 917 514 927L831 1006V719Q831 645 802.5 579.5Q774 514 725.5 465.5Q677 417 611.5 388.5Q546 360 472 360ZM1981 719V1006L2272 936L2412 575V360H2340Q2266 360 2200.5 388.0Q2135 416 2086.0 465.0Q2037 514 2009.0 579.5Q1981 645 1981 719Z" style="fill:#8e562e;stroke:none" transform="scale(1,-1) translate(0,-256)" /></svg>