<?xml version="1.0" encoding="utf-8" ?>
<svg baseProfile="full" height="256" version="1.1" width="256" xmlns="http://www.w3.org/2000/svg" xmlns:ev="http://www.w3.org/2001/xml-events" xmlns:xlink="http://www.w3.org/1999/xlink"><defs /><path d="M1693 431Q1738 431 1777.0 414.0Q1816 397 1845.5 368.0Q1875 339 1892.0 300.0Q1909 261 1909 216V72Q1909 27 1892.0 -12.0Q1875 -51 1845.5 -80.5Q1816 -110 1777.0 -127.0Q1738 -144 1693 -144H1118Q1073 -144 1034.0 -127.0Q995 -110 966.0 -80.5Q937 -51 920.0 -12.0Q903 27 903 72V216Q903 261 920.0 300.0Q937 339 966.0 368.0Q995 397 1034.0 414.0Q1073 431 1118 431Z" style="fill:#f7894a;stroke:none" transform="scale(1,-1) translate(0,-256)" /></svg>