<?xml version="1.0" encoding="utf-8" ?>
<svg baseProfile="full" height="256" version="1.1" width="256" xmlns="http://www.w3.org/2000/svg" xmlns:ev="http://www.w3.org/2001/xml-events" xmlns:xlink="http://www.w3.org/1999/xlink"><defs /><path d="M1047 144Q1047 163 1054.0 180.5Q1061 198 1073.5 211.5Q1086 225 1103.0 232.5Q1120 240 1140 240Q1154 240 1167.5 236.0Q1181 232 1193 225L1334 144L1193 63Q1181 56 1167.5 52.0Q1154 48 1140 48Q1120 48 1103.0 55.5Q1086 63 1073.5 76.5Q1061 90 1054.0 107.0Q1047 124 1047 144ZM1672 240Q1692 240 1709.0 232.5Q1726 225 1738.5 211.5Q1751 198 1758.0 180.5Q1765 163 1765 144Q1765 102 1739.0 75.0Q1713 48 1671 48Q1657 48 1644.0 52.0Q1631 56 1619 63L1478 144L1619 225Q1631 232 1644.5 236.0Q1658 240 1672 240Z" style="fill:#ca5010;stroke:none" transform="scale(1,-1) translate(0,-256)" /></svg>