<?xml version="1.0" encoding="utf-8" ?>
<svg baseProfile="full" height="256" version="1.1" width="256" xmlns="http://www.w3.org/2000/svg" xmlns:ev="http://www.w3.org/2001/xml-events" xmlns:xlink="http://www.w3.org/1999/xlink"><defs /><path d="M2197 1869H2340Q2385 1869 2424.0 1852.0Q2463 1835 2492.5 1805.5Q2522 1776 2539.0 1737.0Q2556 1698 2556 1653V1510Q2556 1407 2516.5 1314.5Q2477 1222 2405 1150Q2477 1078 2516.5 986.0Q2556 894 2556 791V216H2340Q2293 216 2247.0 224.5Q2201 233 2157 250Q2139 202 2112.5 157.5Q2086 113 2053 74Q2053 10 2031.5 -49.0Q2010 -108 1971.5 -155.0Q1933 -202 1879.5 -235.0Q1826 -268 1763 -280Q1691 -352 1600.0 -391.5Q1509 -431 1406 -431Q1303 -431 1211.5 -391.5Q1120 -352 1048 -280Q985 -267 931.5 -234.5Q878 -202 840.0 -155.0Q802 -108 780.5 -49.5Q759 9 759 74Q726 113 699.5 157.5Q673 202 655 250Q611 233 565.0 224.5Q519 216 472 216H256V791Q256 894 295.5 986.0Q335 1078 407 1150Q335 1222 295.5 1314.5Q256 1407 256 1510V1653Q256 1698 273.0 1737.0Q290 1776 319.5 1805.5Q349 1835 388.0 1852.0Q427 1869 472 1869H615V1653Q615 1624 636.5 1602.5Q658 1581 687 1581H2125Q2154 1581 2175.5 1602.5Q2197 1624 2197 1653Z" style="fill:#000000;stroke:none" transform="scale(1,-1) translate(0,-256)" /></svg>