<?xml version="1.0" encoding="utf-8" ?>
<svg baseProfile="full" height="256" version="1.1" width="256" xmlns="http://www.w3.org/2000/svg" xmlns:ev="http://www.w3.org/2001/xml-events" xmlns:xlink="http://www.w3.org/1999/xlink"><defs /><path d="M1406 -287Q1332 -287 1266.5 -259.0Q1201 -231 1152.0 -182.0Q1103 -133 1075.0 -67.5Q1047 -2 1047 72H1765Q1765 -2 1736.5 -67.5Q1708 -133 1659.5 -181.5Q1611 -230 1545.5 -258.5Q1480 -287 1406 -287ZM1406 1294Q1451 1294 1490.0 1277.0Q1529 1260 1558.5 1230.5Q1588 1201 1605.0 1162.0Q1622 1123 1622 1078V719Q1622 672 1632.0 622.5Q1642 573 1660.5 526.0Q1679 479 1705.5 436.0Q1732 393 1765 360H1047Q1080 393 1106.5 436.0Q1133 479 1151.5 526.0Q1170 573 1180.0 622.5Q1190 672 1190 719V1078Q1190 1123 1207.0 1162.0Q1224 1201 1253.5 1230.5Q1283 1260 1322.0 1277.0Q1361 1294 1406 1294Z" style="fill:#ffffff;stroke:none" transform="scale(1,-1) translate(0,-256)" /></svg>