<?xml version="1.0" encoding="utf-8" ?>
<svg baseProfile="full" height="256" version="1.1" width="256" xmlns="http://www.w3.org/2000/svg" xmlns:ev="http://www.w3.org/2001/xml-events" xmlns:xlink="http://www.w3.org/1999/xlink"><defs /><path d="M2053 1150Q2127 1150 2192.5 1121.5Q2258 1093 2306.5 1044.5Q2355 996 2383.5 930.5Q2412 865 2412 791V575L2053 935V467Q2053 370 2016.5 285.0Q1980 200 1916.5 136.5Q1853 73 1768.0 36.5Q1683 0 1586 0Q1491 0 1406 36Q1320 0 1226 0Q1129 0 1044.0 36.5Q959 73 895.5 136.5Q832 200 795.5 285.0Q759 370 759 467V935L400 575V791Q400 865 428.5 930.5Q457 996 505.5 1044.5Q554 1093 619.5 1121.5Q685 1150 759 1150Q759 1210 781.5 1262.5Q804 1315 843.0 1354.0Q882 1393 934.5 1415.5Q987 1438 1047 1438H1765Q1825 1438 1877.5 1415.5Q1930 1393 1969.0 1354.0Q2008 1315 2030.5 1262.5Q2053 1210 2053 1150Z" style="fill:#bb9167;stroke:none" transform="scale(1,-1) translate(0,-256)" /></svg>