<?xml version="1.0" encoding="utf-8" ?>
<svg baseProfile="full" height="256" version="1.1" width="256" xmlns="http://www.w3.org/2000/svg" xmlns:ev="http://www.w3.org/2001/xml-events" xmlns:xlink="http://www.w3.org/1999/xlink"><defs /><path d="M1334 -431Q1275 -431 1222.5 -408.5Q1170 -386 1131.0 -347.0Q1092 -308 1069.5 -255.5Q1047 -203 1047 -144V-105Q980 -66 941.5 0.0Q903 66 903 144V431H508Q456 431 410.0 451.0Q364 471 330.0 505.0Q296 539 276.0 585.0Q256 631 256 683Q256 735 276.0 781.0Q296 827 330.0 861.0Q364 895 410.0 915.0Q456 935 508 935H1119Q1119 995 1141.5 1047.0Q1164 1099 1203.0 1138.0Q1242 1177 1294.0 1199.5Q1346 1222 1406 1222Q1463 1222 1515.5 1200.5Q1568 1179 1609 1138L2139 608Q2145 602 2156.5 596.0Q2168 590 2181.5 585.5Q2195 581 2207.5 578.0Q2220 575 2229 575H2556V-431Z" style="fill:#000000;stroke:none" transform="scale(1,-1) translate(0,-256)" /></svg>