<?xml version="1.0" encoding="utf-8" ?>
<svg baseProfile="full" height="256" version="1.1" width="256" xmlns="http://www.w3.org/2000/svg" xmlns:ev="http://www.w3.org/2001/xml-events" xmlns:xlink="http://www.w3.org/1999/xlink"><defs /><path d="M903 1330Q903 1295 881.5 1266.0Q860 1237 826 1227L1190 863L1118 503L636 1267Q626 1282 620.5 1297.0Q615 1312 615 1330Q615 1352 623.5 1371.5Q632 1391 647.0 1406.0Q662 1421 681.5 1429.5Q701 1438 723 1438H795Q817 1438 836.5 1429.5Q856 1421 871.0 1406.0Q886 1391 894.5 1371.5Q903 1352 903 1330ZM2017 1438Q2039 1438 2058.5 1429.5Q2078 1421 2093.0 1406.0Q2108 1391 2116.5 1371.5Q2125 1352 2125 1330Q2125 1312 2119.5 1297.0Q2114 1282 2104 1267L1622 503L1550 863L1914 1227Q1880 1237 1858.5 1266.0Q1837 1295 1837 1330Q1837 1352 1845.5 1371.5Q1854 1391 1869.0 1406.0Q1884 1421 1903.5 1429.5Q1923 1438 1945 1438Z" style="fill:#ffc83d;stroke:none" transform="scale(1,-1) translate(0,-256)" /></svg>