<?xml version="1.0" encoding="utf-8" ?>
<svg baseProfile="full" height="256" version="1.1" width="256" xmlns="http://www.w3.org/2000/svg" xmlns:ev="http://www.w3.org/2001/xml-events" xmlns:xlink="http://www.w3.org/1999/xlink"><defs /><path d="M831 1366H1909V1294H831ZM2233 1725Q2247 1725 2257.5 1714.0Q2268 1703 2268 1689V1042Q2268 1028 2257.5 1017.0Q2247 1006 2233 1006Q2219 1006 2208.0 1017.0Q2197 1028 2197 1042V1689Q2197 1704 2207.5 1714.5Q2218 1725 2233 1725ZM508 1725Q522 1725 532.5 1714.0Q543 1703 543 1689V1042Q543 1028 532.5 1017.0Q522 1006 508 1006Q494 1006 483.0 1017.0Q472 1028 472 1042V1689Q472 1704 482.5 1714.5Q493 1725 508 1725Z" style="fill:#757575;stroke:none" transform="scale(1,-1) translate(0,-256)" /></svg>