<?xml version="1.0" encoding="utf-8" ?>
<svg baseProfile="full" height="256" version="1.1" width="256" xmlns="http://www.w3.org/2000/svg" xmlns:ev="http://www.w3.org/2001/xml-events" xmlns:xlink="http://www.w3.org/1999/xlink"><defs /><path d="M2304 1653Q2319 1653 2329.5 1642.5Q2340 1632 2340 1617V1114Q2340 1099 2329.5 1088.5Q2319 1078 2304 1078H2161Q2146 1078 2135.5 1088.5Q2125 1099 2125 1114V1617Q2125 1632 2135.5 1642.5Q2146 1653 2161 1653ZM579 1653Q594 1653 604.5 1642.5Q615 1632 615 1617V1114Q615 1099 604.5 1088.5Q594 1078 579 1078H436Q421 1078 410.5 1088.5Q400 1099 400 1114V1617Q400 1632 410.5 1642.5Q421 1653 436 1653Z" style="fill:#cccccc;stroke:none" transform="scale(1,-1) translate(0,-256)" /></svg>