<?xml version="1.0" encoding="utf-8" ?>
<svg baseProfile="full" height="256" version="1.1" width="256" xmlns="http://www.w3.org/2000/svg" xmlns:ev="http://www.w3.org/2001/xml-events" xmlns:xlink="http://www.w3.org/1999/xlink"><defs /><path d="M1622 -72V-144Q1622 -174 1610.5 -200.0Q1599 -226 1579.5 -245.5Q1560 -265 1534.0 -276.0Q1508 -287 1478 -287Q1451 -287 1425.5 -277.0Q1400 -267 1380.5 -249.0Q1361 -231 1348.0 -207.0Q1335 -183 1334 -156V-215H1118V252Q1118 274 1126.5 293.5Q1135 313 1150.0 328.0Q1165 343 1184.5 351.5Q1204 360 1226 360Q1248 360 1267.5 351.5Q1287 343 1302.0 328.0Q1317 313 1325.5 293.5Q1334 274 1334 252V-72ZM1370 943 1550 863V827Q1550 789 1536.0 756.5Q1522 724 1497.5 699.5Q1473 675 1440.0 661.0Q1407 647 1370 647Q1332 647 1299.5 661.0Q1267 675 1242.5 699.5Q1218 724 1204.0 756.5Q1190 789 1190 827V863Z" style="fill:#ffc83d;stroke:none" transform="scale(1,-1) translate(0,-256)" /></svg>