<?xml version="1.0" encoding="utf-8" ?>
<svg baseProfile="full" height="256" version="1.1" width="256" xmlns="http://www.w3.org/2000/svg" xmlns:ev="http://www.w3.org/2001/xml-events" xmlns:xlink="http://www.w3.org/1999/xlink"><defs /><path d="M2390 1775Q2434 1752 2459.0 1709.0Q2484 1666 2484 1617V1114Q2484 1064 2458.5 1022.0Q2433 980 2390 956Q2367 914 2324.0 888.5Q2281 863 2233 863Q2185 863 2142.5 887.5Q2100 912 2076 954L1765 462V-144Q1765 -203 1742.5 -255.5Q1720 -308 1681.0 -347.0Q1642 -386 1589.5 -408.5Q1537 -431 1478 -431H975V462L664 954Q640 912 598.0 887.5Q556 863 508 863Q459 863 416.0 887.5Q373 912 350 956Q307 980 281.5 1022.0Q256 1064 256 1114V1617Q256 1666 281.0 1709.0Q306 1752 350 1775Q373 1820 415.0 1844.5Q457 1869 508 1869Q557 1869 599.5 1844.0Q642 1819 665 1775Q694 1759 712.5 1738.5Q731 1718 741.5 1693.0Q752 1668 755.5 1640.0Q759 1612 759 1581Q821 1581 872.5 1567.5Q924 1554 971 1510H1769Q1815 1554 1867.0 1567.5Q1919 1581 1981 1581Q1981 1612 1984.5 1640.0Q1988 1668 1998.5 1693.0Q2009 1718 2027.5 1738.5Q2046 1759 2075 1775Q2098 1820 2140.0 1844.5Q2182 1869 2233 1869Q2282 1869 2324.5 1844.0Q2367 1819 2390 1775Z" style="fill:#000000;stroke:none" transform="scale(1,-1) translate(0,-256)" /></svg>