<?xml version="1.0" encoding="utf-8" ?>
<svg baseProfile="full" height="256" version="1.1" width="256" xmlns="http://www.w3.org/2000/svg" xmlns:ev="http://www.w3.org/2001/xml-events" xmlns:xlink="http://www.w3.org/1999/xlink"><defs /><path d="M2053 1725Q2083 1725 2104.0 1704.0Q2125 1683 2125 1653V1626L2028 1356Q2031 1345 2039.0 1322.0Q2047 1299 2058.0 1269.5Q2069 1240 2080.5 1208.5Q2092 1177 2102.0 1150.5Q2112 1124 2118.5 1105.5Q2125 1087 2125 1085V719L1723 470Q1689 449 1668.5 423.0Q1648 397 1637.5 368.0Q1627 339 1623.5 306.5Q1620 274 1620 241Q1620 217 1621.0 192.5Q1622 168 1622 144L1408 51L1190 144Q1190 168 1190.5 192.0Q1191 216 1191 240Q1191 276 1187.0 309.0Q1183 342 1172.0 371.0Q1161 400 1141.0 425.0Q1121 450 1088 470L687 719V1082L794 1340L687 1628Q687 1646 690.0 1663.5Q693 1681 701.0 1694.5Q709 1708 723.0 1716.5Q737 1725 759 1725Q787 1725 807 1706L1261 1294H1548L2005 1706Q2025 1725 2053 1725Z" style="fill:#f7630c;stroke:none" transform="scale(1,-1) translate(0,-256)" /></svg>