<?xml version="1.0" encoding="utf-8" ?>
<svg baseProfile="full" height="256" version="1.1" width="256" xmlns="http://www.w3.org/2000/svg" xmlns:ev="http://www.w3.org/2001/xml-events" xmlns:xlink="http://www.w3.org/1999/xlink"><defs /><path d="M1011 1006Q1033 1006 1052.5 997.5Q1072 989 1086.5 974.5Q1101 960 1109.5 940.5Q1118 921 1118 899V755Q1118 733 1109.5 713.5Q1101 694 1086.5 679.0Q1072 664 1052.5 655.5Q1033 647 1011 647Q989 647 969.5 655.5Q950 664 935.0 679.0Q920 694 911.5 713.5Q903 733 903 755V899Q903 921 911.5 941.0Q920 961 935.0 975.0Q950 989 969.5 997.5Q989 1006 1011 1006ZM1801 1006Q1823 1006 1842.5 997.5Q1862 989 1877.0 975.0Q1892 961 1900.5 941.0Q1909 921 1909 899V755Q1909 733 1900.5 713.5Q1892 694 1877.0 679.0Q1862 664 1842.5 655.5Q1823 647 1801 647Q1779 647 1759.5 655.5Q1740 664 1725.0 679.0Q1710 694 1701.5 713.5Q1693 733 1693 755V899Q1693 921 1701.5 940.5Q1710 960 1725.0 974.5Q1740 989 1759.5 997.5Q1779 1006 1801 1006ZM1406 -72Q1392 -72 1378.5 -67.0Q1365 -62 1355 -51L1190 144H1622L1457 -51Q1447 -62 1433.5 -67.0Q1420 -72 1406 -72Z" style="fill:#000000;stroke:none" transform="scale(1,-1) translate(0,-256)" /></svg>