<?xml version="1.0" encoding="utf-8" ?>
<svg baseProfile="full" height="256" version="1.1" width="256" xmlns="http://www.w3.org/2000/svg" xmlns:ev="http://www.w3.org/2001/xml-events" xmlns:xlink="http://www.w3.org/1999/xlink"><defs /><path d="M2125 905 2340 503H2153L2268 288H1909Q1864 288 1825.0 271.0Q1786 254 1756.5 224.5Q1727 195 1710.0 156.0Q1693 117 1693 72V0Q1693 -60 1670.5 -112.0Q1648 -164 1609.0 -203.0Q1570 -242 1518.0 -264.5Q1466 -287 1406 -287Q1346 -287 1293.5 -264.5Q1241 -242 1202.0 -203.0Q1163 -164 1140.5 -112.0Q1118 -60 1118 0V72Q1118 117 1101.0 156.0Q1084 195 1055.0 224.5Q1026 254 987.0 271.0Q948 288 903 288H543L659 503H472L687 905Z" style="fill:#ffffff;stroke:none" transform="scale(1,-1) translate(0,-256)" /></svg>