<?xml version="1.0" encoding="utf-8" ?>
<svg baseProfile="full" height="256" version="1.1" width="256" xmlns="http://www.w3.org/2000/svg" xmlns:ev="http://www.w3.org/2001/xml-events" xmlns:xlink="http://www.w3.org/1999/xlink"><defs /><path d="M1406 -431Q1317 -431 1238.5 -397.0Q1160 -363 1101.5 -304.5Q1043 -246 1009.0 -167.5Q975 -89 975 0V72Q975 101 953.5 122.5Q932 144 903 144H303L419 360H256L543 935V1653Q543 1698 560.0 1737.0Q577 1776 606.5 1805.5Q636 1835 675.0 1852.0Q714 1869 759 1869Q802 1869 837.5 1854.5Q873 1840 905 1811L1316 1438H1493L1908 1813Q1970 1869 2053 1869Q2098 1869 2137.0 1852.0Q2176 1835 2205.0 1805.5Q2234 1776 2251.0 1737.0Q2268 1698 2268 1653V935L2556 360H2393L2509 144H1909Q1879 144 1858.0 123.0Q1837 102 1837 72V0Q1837 -89 1803.0 -167.5Q1769 -246 1710.5 -304.5Q1652 -363 1573.5 -397.0Q1495 -431 1406 -431Z" style="fill:#000000;stroke:none" transform="scale(1,-1) translate(0,-256)" /></svg>