<?xml version="1.0" encoding="utf-8" ?>
<svg baseProfile="full" height="256" version="1.1" width="256" xmlns="http://www.w3.org/2000/svg" xmlns:ev="http://www.w3.org/2001/xml-events" xmlns:xlink="http://www.w3.org/1999/xlink"><defs /><path d="M1550 935Q1566 935 1582 927L1869 783Q1887 774 1898.0 756.5Q1909 739 1909 719Q1909 690 1887.5 668.5Q1866 647 1837 647Q1821 647 1805 655L1620 747Q1622 739 1622.0 732.0Q1622 725 1622 717V647H1190V710Q1190 719 1190.5 728.5Q1191 738 1192 747L1007 655Q991 647 974 647Q945 647 924.0 668.0Q903 689 903 718Q903 738 914.0 756.0Q925 774 943 783L1230 927Q1246 935 1262 935ZM1406 1006Q1368 1006 1335.5 1020.0Q1303 1034 1278.5 1058.5Q1254 1083 1240.0 1115.5Q1226 1148 1226 1186Q1226 1223 1240.0 1256.0Q1254 1289 1278.5 1313.5Q1303 1338 1335.5 1352.0Q1368 1366 1406 1366Q1443 1366 1476.0 1352.0Q1509 1338 1533.5 1313.5Q1558 1289 1572.0 1256.0Q1586 1223 1586 1186Q1586 1148 1572.0 1115.5Q1558 1083 1533.5 1058.5Q1509 1034 1476.0 1020.0Q1443 1006 1406 1006ZM1220 360 1313 267Q1334 246 1334 216Q1334 186 1313.0 165.0Q1292 144 1262 144Q1232 144 1211 165L1068 309Q1047 330 1047 359Q1047 389 1068 410L1175 518L1277 417ZM1636 518 1744 410Q1765 389 1765 359Q1765 330 1744 309L1601 165Q1580 144 1550 144Q1520 144 1499.0 165.0Q1478 186 1478 216Q1478 246 1499 267L1592 360L1535 417Z" style="fill:#ffffff;stroke:none" transform="scale(1,-1) translate(0,-256)" /></svg>