<?xml version="1.0" encoding="utf-8" ?>
<svg baseProfile="full" height="256" version="1.1" width="256" xmlns="http://www.w3.org/2000/svg" xmlns:ev="http://www.w3.org/2001/xml-events" xmlns:xlink="http://www.w3.org/1999/xlink"><defs /><path d="M2197 597Q2268 488 2268 360Q2268 262 2231.0 171.5Q2194 81 2125 12V-144L2053 -287H1837V-215Q1837 -191 1846.0 -177.0Q1855 -163 1870.0 -155.5Q1885 -148 1904.0 -145.5Q1923 -143 1942 -143Q1955 -143 1966.5 -143.5Q1978 -144 1989 -144L1925 0H1170L1047 -287H831V-215Q831 -191 840.5 -176.5Q850 -162 865.0 -155.0Q880 -148 899.0 -146.0Q918 -144 937 -144H975V0Q975 45 958.0 84.0Q941 123 911.5 152.5Q882 182 843.0 199.0Q804 216 759 216H543Q505 216 472.0 235.5Q439 255 419 288Q427 294 435.0 304.0Q443 314 443 324Q443 327 437.5 332.5Q432 338 424.5 343.5Q417 349 410.0 353.5Q403 358 400 360Q415 375 433.5 394.5Q452 414 471.5 434.0Q491 454 509.5 472.5Q528 491 543 503Q550 509 560.5 515.0Q571 521 582.5 526.5Q594 532 605.0 537.5Q616 543 624 548Q632 553 640.0 561.0Q648 569 657 575Q683 592 714.0 601.5Q745 611 777 611Q829 611 865.0 600.5Q901 590 927.5 574.0Q954 558 974.5 539.0Q995 520 1018.5 504.0Q1042 488 1071.0 477.5Q1100 467 1142 467Q1206 467 1253.0 486.5Q1300 506 1346 551Q1444 648 1571.0 701.5Q1698 755 1837 755Q1898 755 1961.0 742.5Q2024 730 2083 714Q2125 782 2125 861Q2125 869 2124.5 876.0Q2124 883 2123 891Q2117 948 2091.0 995.5Q2065 1043 2024.5 1077.5Q1984 1112 1932.5 1131.0Q1881 1150 1825 1150H1118Q1059 1150 1006.5 1173.0Q954 1196 915.0 1235.0Q876 1274 853.5 1326.5Q831 1379 831 1438L931 1373L1062 1438Q1135 1438 1198.0 1465.0Q1261 1492 1314 1542Q1408 1631 1521.5 1678.0Q1635 1725 1765 1725Q1854 1725 1936.5 1702.0Q2019 1679 2091.0 1637.0Q2163 1595 2222.0 1535.5Q2281 1476 2323.5 1404.5Q2366 1333 2389.0 1250.5Q2412 1168 2412 1079Q2412 940 2356.0 815.0Q2300 690 2197 597Z" style="fill:#474747;stroke:none" transform="scale(1,-1) translate(0,-256)" /></svg>