<?xml version="1.0" encoding="utf-8" ?>
<svg baseProfile="full" height="256" version="1.1" width="256" xmlns="http://www.w3.org/2000/svg" xmlns:ev="http://www.w3.org/2001/xml-events" xmlns:xlink="http://www.w3.org/1999/xlink"><defs /><path d="M1765 1581Q1868 1581 1959.5 1541.5Q2051 1502 2119.5 1433.5Q2188 1365 2228.0 1274.0Q2268 1183 2268 1080Q2268 1021 2256 966Q2237 1039 2195.5 1099.0Q2154 1159 2096.0 1202.5Q2038 1246 1968.5 1270.0Q1899 1294 1825 1294H975Q945 1294 918.5 1305.0Q892 1316 872.5 1335.5Q853 1355 842.0 1381.5Q831 1408 831 1438H1314Q1360 1438 1400.5 1452.5Q1441 1467 1479 1492Q1545 1536 1615.0 1558.5Q1685 1581 1765 1581ZM1832 791Q1927 791 2011.0 754.5Q2095 718 2158 647H1833Q1718 647 1624.0 605.0Q1530 563 1448 485Q1383 424 1313.5 392.0Q1244 360 1154 360Q1091 360 1036.5 374.5Q982 389 930 425Q939 444 939 467Q939 489 930.5 508.5Q922 528 907.0 543.0Q892 558 872.5 566.5Q853 575 831 575V498Q811 503 795 503H543Q569 530 593.5 555.5Q618 581 645.0 601.5Q672 622 703.5 634.5Q735 647 776 647Q829 647 865.0 636.5Q901 626 927.5 610.0Q954 594 975.0 575.0Q996 556 1019.0 540.0Q1042 524 1071.0 513.5Q1100 503 1142 503Q1175 503 1202.0 508.0Q1229 513 1253.0 523.0Q1277 533 1299.5 549.0Q1322 565 1346 587Q1449 683 1569.0 737.0Q1689 791 1832 791Z" style="fill:#f2f2f2;stroke:none" transform="scale(1,-1) translate(0,-256)" /></svg>