<?xml version="1.0" encoding="utf-8" ?>
<svg baseProfile="full" height="256" version="1.1" width="256" xmlns="http://www.w3.org/2000/svg" xmlns:ev="http://www.w3.org/2001/xml-events" xmlns:xlink="http://www.w3.org/1999/xlink"><defs /><path d="M1334 -431V-215Q1334 -179 1346 -144H1265L1141 -431H687V-215Q687 -181 697.5 -149.5Q708 -118 727.0 -91.0Q746 -64 772.5 -44.0Q799 -24 831 -12V0Q831 30 810.0 51.0Q789 72 759 72H543Q484 72 431.5 95.0Q379 118 340.0 157.0Q301 196 278.5 248.5Q256 301 256 360V419L522 686Q578 743 647.5 767.0Q717 791 795 791Q862 791 924.5 770.0Q987 749 1041 708L1081 672Q1100 655 1114.5 651.0Q1129 647 1154 647Q1180 647 1199.5 655.5Q1219 664 1237 681L1245 689Q1365 807 1514.0 870.5Q1663 934 1832 934Q1901 934 1969 919Q1949 960 1909.5 983.0Q1870 1006 1825 1006H1118Q1029 1006 950.5 1040.0Q872 1074 813.5 1133.0Q755 1192 721.0 1270.5Q687 1349 687 1438V1581H1062Q1107 1581 1144.5 1598.0Q1182 1615 1214 1645Q1332 1754 1468.0 1811.5Q1604 1869 1765 1869Q1873 1869 1974.0 1841.0Q2075 1813 2163.0 1761.5Q2251 1710 2323.5 1638.0Q2396 1566 2447.5 1478.5Q2499 1391 2527.5 1290.5Q2556 1190 2556 1081Q2556 941 2509.0 809.5Q2462 678 2372 571Q2412 468 2412 360Q2412 249 2375.5 145.5Q2339 42 2268 -43V-177L2142 -431Z" style="fill:#000000;stroke:none" transform="scale(1,-1) translate(0,-256)" /></svg>