<?xml version="1.0" encoding="utf-8" ?>
<svg baseProfile="full" height="256" version="1.1" width="256" xmlns="http://www.w3.org/2000/svg" xmlns:ev="http://www.w3.org/2001/xml-events" xmlns:xlink="http://www.w3.org/1999/xlink"><defs /><path d="M1075 1150Q1177 1150 1263.5 1105.5Q1350 1061 1414.0 988.0Q1478 915 1514.0 821.5Q1550 728 1550 631V503Q1521 503 1500.5 522.0Q1480 541 1478 569V503Q1448 503 1427.0 524.0Q1406 545 1406 575H1185L1180 565L1351 393Q1360 396 1370 396Q1399 396 1420.5 374.5Q1442 353 1442 324Q1442 294 1421.0 273.0Q1400 252 1370 252Q1343 252 1322 270L759 82V0Q730 0 708.5 21.5Q687 43 687 72V107Q687 119 693.5 128.5Q700 138 712 142L1300 338L1301 342L1129 514Q1118 506 1103 506Q1092 506 1080.0 514.0Q1068 522 1056.5 533.5Q1045 545 1034.5 556.5Q1024 568 1017 575H1011V569Q1011 558 1010.5 547.5Q1010 537 1006.5 528.0Q1003 519 995.5 512.5Q988 506 975 504L939 480L903 504Q889 506 882.0 512.5Q875 519 871.5 528.0Q868 537 867.5 547.5Q867 558 867 569V575H759Q682 575 616.0 606.0Q550 637 502.0 689.0Q454 741 427.0 809.5Q400 878 400 953Q400 1030 430.0 1102.5Q460 1175 514 1229L752 1466Q759 1473 759 1484Q759 1495 752.0 1502.5Q745 1510 734 1510Q719 1510 704.0 1510.5Q689 1511 674 1511Q659 1511 644.0 1510.0Q629 1509 615 1507L570 1626L615 1723Q624 1724 633.0 1724.5Q642 1725 651 1725H700Q742 1725 779.0 1709.0Q816 1693 843.5 1665.5Q871 1638 887.0 1601.0Q903 1564 903 1522Q903 1481 887.5 1444.0Q872 1407 843 1378L575 1110Q561 1096 552.0 1077.0Q543 1058 543 1037Q543 1016 551.0 997.5Q559 979 573.5 964.5Q588 950 606.5 942.0Q625 934 646 934Q667 934 686.0 943.0Q705 952 719 966L781 1028Q840 1087 916.0 1118.5Q992 1150 1075 1150Z" style="fill:#ef6950;stroke:none" transform="scale(1,-1) translate(0,-256)" /></svg>