<?xml version="1.0" encoding="utf-8" ?>
<svg baseProfile="full" height="256" version="1.1" width="256" xmlns="http://www.w3.org/2000/svg" xmlns:ev="http://www.w3.org/2001/xml-events" xmlns:xlink="http://www.w3.org/1999/xlink"><defs /><path d="M1693 360H1583Q1586 342 1586 323Q1586 279 1569.0 240.0Q1552 201 1522.5 171.5Q1493 142 1454.0 125.0Q1415 108 1371 108Q1344 108 1314 116L1118 50V-431H687Q687 -406 686.0 -381.0Q685 -356 685 -331Q685 -306 687.0 -281.0Q689 -256 695.0 -232.0Q701 -208 712.5 -185.5Q724 -163 743 -143Q701 -140 664.5 -122.0Q628 -104 601.0 -74.5Q574 -45 558.5 -7.5Q543 30 543 72Q543 134 555.5 172.0Q568 210 593.0 233.5Q618 257 656.0 272.0Q694 287 745 304L759 309V431Q652 431 560.0 473.0Q468 515 400.5 586.5Q333 658 294.5 752.5Q256 847 256 952Q256 1035 281.0 1114.0Q306 1193 354 1261Q309 1280 282.5 1320.5Q256 1361 256 1409V1474Q256 1555 287.0 1627.0Q318 1699 372.0 1753.0Q426 1807 498.0 1838.0Q570 1869 651 1869H700Q772 1869 835.0 1841.5Q898 1814 945.0 1767.0Q992 1720 1019.5 1657.0Q1047 1594 1047 1522Q1047 1453 1021.5 1391.0Q996 1329 948 1280Q1013 1294 1075 1294Q1162 1294 1242.0 1268.5Q1322 1243 1390.5 1197.5Q1459 1152 1515.0 1089.5Q1571 1027 1610.5 953.0Q1650 879 1671.5 797.0Q1693 715 1693 631Z" style="fill:#000000;stroke:none" transform="scale(1,-1) translate(0,-256)" /></svg>