<?xml version="1.0" encoding="utf-8" ?>
<svg baseProfile="full" height="256" version="1.1" width="256" xmlns="http://www.w3.org/2000/svg" xmlns:ev="http://www.w3.org/2001/xml-events" xmlns:xlink="http://www.w3.org/1999/xlink"><defs /><path d="M1064 647Q1020 647 980.5 664.0Q941 681 912.0 710.0Q883 739 866.0 778.5Q849 818 849 862Q849 911 866.5 950.5Q884 990 914.5 1018.5Q945 1047 986.5 1062.5Q1028 1078 1075 1078Q1159 1078 1231.5 1040.5Q1304 1003 1358.0 942.5Q1412 882 1443.5 804.5Q1475 727 1478 647ZM975 242Q992 233 1001.5 216.0Q1011 199 1011 180Q1011 161 1001.5 144.5Q992 128 975 118V-287H831Q831 -258 852.5 -236.5Q874 -215 903 -215V118Q886 127 876.5 143.5Q867 160 867 180Q867 199 876.5 216.0Q886 233 903 242V504Q905 503 915.5 502.5Q926 502 939 502Q952 502 962.5 502.5Q973 503 975 504Z" style="fill:#ee9889;stroke:none" transform="scale(1,-1) translate(0,-256)" /></svg>