<?xml version="1.0" encoding="utf-8" ?>
<svg baseProfile="full" height="256" version="1.1" width="256" xmlns="http://www.w3.org/2000/svg" xmlns:ev="http://www.w3.org/2001/xml-events" xmlns:xlink="http://www.w3.org/1999/xlink"><defs /><path d="M903 879Q937 848 956.0 806.5Q975 765 975 719Q975 673 956.0 631.5Q937 590 903 559H872V575H851Q846 560 839.5 540.0Q833 520 831 517Q814 511 796.0 507.0Q778 503 759 503Q740 503 722.0 507.0Q704 511 687 517L663 575H646V559H615Q581 590 562.0 631.5Q543 673 543 719Q543 765 562.0 806.5Q581 848 615 879H646V857H661L687 921Q704 927 722.0 931.0Q740 935 759 935Q778 935 796.0 931.0Q814 927 831 921Q831 919 833.5 912.0Q836 905 839.5 895.0Q843 885 846.5 874.5Q850 864 852 857H872V879Z" style="fill:#bad80a;stroke:none" transform="scale(1,-1) translate(0,-256)" /></svg>