<?xml version="1.0" encoding="utf-8" ?>
<svg baseProfile="full" height="256" version="1.1" width="256" xmlns="http://www.w3.org/2000/svg" xmlns:ev="http://www.w3.org/2001/xml-events" xmlns:xlink="http://www.w3.org/1999/xlink"><defs /><path d="M2125 1222H2262Q2268 1186 2268 1150H2125V1006H2244Q2228 968 2211 935H2125V828L2016 719H1909V633Q1892 622 1874.0 614.5Q1856 607 1837 600V719H1693V575Q1657 575 1621 581V719H1406V935H1268Q1262 969 1262 1006H1406V1150H1287Q1299 1187 1320 1222H1406V1329L1515 1438H1621V1524Q1655 1543 1693 1557V1438H1837V1581Q1855 1581 1873.0 1580.0Q1891 1579 1909 1576V1438H2125ZM1837 791V935H1693V791ZM2053 1006V1150H1909V1006ZM1837 1222V1366H1693V1222ZM1837 1006V1150H1693V1006ZM2053 1222V1366H1909V1222ZM2053 791V935H1909V791ZM1621 1006V1150H1478V1006ZM1621 1222V1366H1478V1222ZM1621 791V935H1478V791Z" style="fill:#83beec;stroke:none" transform="scale(1,-1) translate(0,-256)" /></svg>