<?xml version="1.0" encoding="utf-8" ?>
<svg baseProfile="full" height="256" version="1.1" width="256" xmlns="http://www.w3.org/2000/svg" xmlns:ev="http://www.w3.org/2001/xml-events" xmlns:xlink="http://www.w3.org/1999/xlink"><defs /><path d="M1837 1725Q1956 1725 2061.0 1680.0Q2166 1635 2244.0 1557.0Q2322 1479 2367.0 1374.0Q2412 1269 2412 1150Q2412 1035 2368.5 930.5Q2325 826 2244 744L2100 600Q2017 518 1913.5 474.5Q1810 431 1693 431H1271L1080 241L927 249V393L1118 584Q1118 690 1118.5 795.0Q1119 900 1119 1006Q1119 1122 1162.5 1226.5Q1206 1331 1287 1413L1431 1557Q1513 1638 1617.0 1681.5Q1721 1725 1837 1725Z" style="fill:#886ce4;stroke:none" transform="scale(1,-1) translate(0,-256)" /></svg>