<?xml version="1.0" encoding="utf-8" ?>
<svg baseProfile="full" height="256" version="1.1" width="256" xmlns="http://www.w3.org/2000/svg" xmlns:ev="http://www.w3.org/2001/xml-events" xmlns:xlink="http://www.w3.org/1999/xlink"><defs /><path d="M1837 1869Q1936 1869 2028.0 1843.5Q2120 1818 2200.0 1771.0Q2280 1724 2345.5 1658.5Q2411 1593 2458.0 1513.0Q2505 1433 2530.5 1341.0Q2556 1249 2556 1150Q2556 1004 2502.0 875.0Q2448 746 2345 642L2201 498Q2097 395 1968.0 341.5Q1839 288 1693 288H1334L685 -357Q649 -393 603.5 -412.0Q558 -431 507 -431Q455 -431 409.5 -411.0Q364 -391 330.0 -357.0Q296 -323 276.0 -277.5Q256 -232 256 -180Q256 -129 275.0 -83.5Q294 -38 330 -2L697 366Q633 377 578.5 409.0Q524 441 484.5 488.5Q445 536 422.5 595.0Q400 654 400 719Q400 793 428.5 858.5Q457 924 505.5 972.5Q554 1021 619.5 1049.5Q685 1078 759 1078Q818 1078 873.0 1058.5Q928 1039 975 1004Q975 1150 1028.5 1281.0Q1082 1412 1185 1515L1329 1658Q1434 1761 1562.0 1815.0Q1690 1869 1837 1869Z" style="fill:#000000;stroke:none" transform="scale(1,-1) translate(0,-256)" /></svg>