<?xml version="1.0" encoding="utf-8" ?>
<svg baseProfile="full" height="256" version="1.1" width="256" xmlns="http://www.w3.org/2000/svg" xmlns:ev="http://www.w3.org/2001/xml-events" xmlns:xlink="http://www.w3.org/1999/xlink"><defs /><path d="M784 249 912 234 936 97 793 -46 661 -25 641 106ZM399 -179Q399 -155 408.5 -136.0Q418 -117 433.0 -100.0Q448 -83 465.0 -68.0Q482 -53 497 -38L616 -72L649 -190Q634 -205 619.0 -222.5Q604 -240 587.0 -254.5Q570 -269 550.5 -278.5Q531 -288 507 -288Q484 -288 464.5 -279.5Q445 -271 430.5 -256.0Q416 -241 407.5 -221.5Q399 -202 399 -179Z" style="fill:#cccccc;stroke:none" transform="scale(1,-1) translate(0,-256)" /></svg>