<?xml version="1.0" encoding="utf-8" ?>
<svg baseProfile="full" height="256" version="1.1" width="256" xmlns="http://www.w3.org/2000/svg" xmlns:ev="http://www.w3.org/2001/xml-events" xmlns:xlink="http://www.w3.org/1999/xlink"><defs /><path d="M1909 1576Q2037 1553 2127.0 1470.5Q2217 1388 2253 1263Q2256 1253 2259.0 1243.0Q2262 1233 2262 1222Q2262 1217 2257.0 1212.0Q2252 1207 2245.0 1202.5Q2238 1198 2230.5 1194.5Q2223 1191 2219 1190Q2223 1188 2231.0 1183.5Q2239 1179 2247.0 1173.0Q2255 1167 2261.5 1161.0Q2268 1155 2268 1151Q2268 1140 2266.5 1119.0Q2265 1098 2262.0 1076.0Q2259 1054 2254.5 1034.5Q2250 1015 2244 1006Q2241 1001 2233.5 997.0Q2226 993 2217.5 989.0Q2209 985 2200.5 981.5Q2192 978 2186 975Q2192 970 2202.0 958.5Q2212 947 2212 939Q2212 932 2201.0 916.0Q2190 900 2175.0 882.5Q2160 865 2145.5 849.5Q2131 834 2125 828L2081 843L2059 781L2002 759L2016 719Q1947 651 1869.0 613.0Q1791 575 1693 575Q1683 589 1675.0 603.5Q1667 618 1659 633Q1651 619 1641.5 605.5Q1632 592 1621 581Q1553 593 1493.5 624.5Q1434 656 1387.5 702.5Q1341 749 1310.0 808.0Q1279 867 1268 935Q1279 945 1292.0 953.0Q1305 961 1319 968Q1304 976 1289.5 985.0Q1275 994 1262 1006Q1262 1082 1287 1150Q1303 1159 1318.5 1168.0Q1334 1177 1349 1187Q1344 1197 1336.0 1205.5Q1328 1214 1320 1222Q1337 1252 1359.5 1278.5Q1382 1305 1406 1329L1438 1326L1475 1381L1543 1392L1515 1438Q1539 1462 1565.5 1484.0Q1592 1506 1621 1524L1662 1498Q1668 1514 1676.0 1528.5Q1684 1543 1693 1557Q1766 1582 1838 1582Q1846 1569 1854.5 1556.5Q1863 1544 1873 1532Q1883 1542 1892.0 1553.5Q1901 1565 1909 1576Z" style="fill:#b3dbf2;stroke:none" transform="scale(1,-1) translate(0,-256)" /></svg>