<?xml version="1.0" encoding="utf-8" ?>
<svg baseProfile="full" height="256" version="1.1" width="256" xmlns="http://www.w3.org/2000/svg" xmlns:ev="http://www.w3.org/2001/xml-events" xmlns:xlink="http://www.w3.org/1999/xlink"><defs /><path d="M1909 72V288L2082 115L1909 -287H1765ZM2340 216H2412V-72Q2382 -72 2356.0 -60.5Q2330 -49 2310.5 -29.5Q2291 -10 2279.5 16.0Q2268 42 2268 72V144Q2268 173 2289.5 194.5Q2311 216 2340 216ZM903 859V1006L1148 761Q1128 741 1101.5 730.0Q1075 719 1046 719Q1017 719 991.5 730.0Q966 741 946.0 760.0Q926 779 914.5 804.5Q903 830 903 859Z" style="fill:#613d30;stroke:none" transform="scale(1,-1) translate(0,-256)" /></svg>