<?xml version="1.0" encoding="utf-8" ?>
<svg baseProfile="full" height="256" version="1.1" width="256" xmlns="http://www.w3.org/2000/svg" xmlns:ev="http://www.w3.org/2001/xml-events" xmlns:xlink="http://www.w3.org/1999/xlink"><defs /><path d="M1476 1006H1981Q2070 1006 2148.5 972.0Q2227 938 2285.5 879.5Q2344 821 2378.0 742.5Q2412 664 2412 575V216L2340 166V503L2268 318V-287H2125V72L2082 114L1959 143L1910 287L1868 329Q1839 306 1811.5 285.5Q1784 265 1755.0 249.5Q1726 234 1693.5 225.0Q1661 216 1622 216H1334V0L1262 -72V-287H1118V360L831 647H687L492 735L472 863L687 1078Q706 1097 732.5 1110.5Q759 1124 788.0 1133.0Q817 1142 847.0 1146.0Q877 1150 903 1150H1190Q1275 1150 1350.0 1112.0Q1425 1074 1476 1006Z" style="fill:#8e562e;stroke:none" transform="scale(1,-1) translate(0,-256)" /></svg>