<?xml version="1.0" encoding="utf-8" ?>
<svg baseProfile="full" height="256" version="1.1" width="256" xmlns="http://www.w3.org/2000/svg" xmlns:ev="http://www.w3.org/2001/xml-events" xmlns:xlink="http://www.w3.org/1999/xlink"><defs /><path d="M651 1366Q666 1366 676.5 1355.5Q687 1345 687 1330Q687 1285 705.5 1251.5Q724 1218 754.5 1195.5Q785 1173 823.5 1161.5Q862 1150 903 1150Q933 1150 954.0 1129.0Q975 1108 975 1078Q975 1049 953.5 1027.5Q932 1006 903 1006Q792 1006 727.5 1062.5Q663 1119 632 1222Q615 1276 615 1330Q615 1345 625.5 1355.5Q636 1366 651 1366Z" style="fill:#ffb900;stroke:none" transform="scale(1,-1) translate(0,-256)" /></svg>