<?xml version="1.0" encoding="utf-8" ?>
<svg baseProfile="full" height="256" version="1.1" width="256" xmlns="http://www.w3.org/2000/svg" xmlns:ev="http://www.w3.org/2001/xml-events" xmlns:xlink="http://www.w3.org/1999/xlink"><defs /><path d="M1541 1150H1981Q2099 1150 2204.0 1104.5Q2309 1059 2387.0 981.0Q2465 903 2510.5 798.0Q2556 693 2556 575V-215H2412V-431H1553L1764 96Q1718 80 1670.0 75.5Q1622 71 1574 71Q1550 71 1526.0 71.5Q1502 72 1478 72V-59L1406 -131V-431H975V300L771 503H543Q484 503 432.0 526.0Q380 549 341.0 588.5Q302 628 279.0 680.0Q256 732 256 791V850L519 1113Q497 1164 484.5 1218.5Q472 1273 472 1329Q472 1366 486.0 1399.0Q500 1432 524.0 1456.5Q548 1481 580.5 1495.5Q613 1510 651 1510Q681 1510 708.5 1500.0Q736 1490 759.5 1472.5Q783 1455 800.0 1431.0Q817 1407 825 1378Q828 1367 827.5 1354.0Q827 1341 831 1330Q840 1303 857.0 1298.5Q874 1294 898 1294H1190Q1290 1294 1379.5 1256.5Q1469 1219 1541 1150Z" style="fill:#000000;stroke:none" transform="scale(1,-1) translate(0,-256)" /></svg>