<?xml version="1.0" encoding="utf-8" ?>
<svg baseProfile="full" height="256" version="1.1" width="256" xmlns="http://www.w3.org/2000/svg" xmlns:ev="http://www.w3.org/2001/xml-events" xmlns:xlink="http://www.w3.org/1999/xlink"><defs /><path d="M2506 178Q2556 58 2556 -72V-431H256V-69Q256 -5 269.0 57.0Q282 119 306 178Q282 220 269.0 266.0Q256 312 256 360Q256 417 273.5 470.5Q291 524 323.5 569.0Q356 614 401.0 648.0Q446 682 500 700Q514 732 536.0 758.5Q558 785 587 805Q558 843 549.5 886.5Q541 930 541 976Q541 1002 542.0 1027.0Q543 1052 543 1078H687V1222H831V1349Q784 1388 770.5 1440.0Q757 1492 757 1551Q757 1577 758.0 1602.0Q759 1627 759 1653H903V1797H1334L1406 1869L1478 1797H1909V1653H2053Q2053 1627 2054.0 1602.5Q2055 1578 2055 1552Q2055 1493 2041.0 1442.0Q2027 1391 1981 1349V1222H2125V1078H2268V935Q2268 863 2225 805Q2254 785 2276.0 758.5Q2298 732 2312 700Q2366 682 2411.0 648.0Q2456 614 2488.5 569.0Q2521 524 2538.5 470.5Q2556 417 2556 360Q2556 312 2543.0 266.0Q2530 220 2506 178Z" style="fill:#000000;stroke:none" transform="scale(1,-1) translate(0,-256)" /></svg>