<?xml version="1.0" encoding="utf-8" ?>
<svg baseProfile="full" height="256" version="1.1" width="256" xmlns="http://www.w3.org/2000/svg" xmlns:ev="http://www.w3.org/2001/xml-events" xmlns:xlink="http://www.w3.org/1999/xlink"><defs /><path d="M2412 360Q2412 312 2392.0 269.5Q2372 227 2335 196Q2373 136 2392.5 68.0Q2412 0 2412 -71L2341 -215H1427Q1408 -155 1406 -91Q1404 -123 1398.5 -153.5Q1393 -184 1385 -215H461L400 -71Q400 0 419.5 67.5Q439 135 477 195Q440 226 420.0 269.0Q400 312 400 360Q400 405 417.0 444.0Q434 483 463.0 512.0Q492 541 531.0 558.0Q570 575 615 575Q615 605 626.5 631.0Q638 657 657.5 676.5Q677 696 703.0 707.5Q729 719 759 719Q789 719 815.0 707.5Q841 696 860.5 676.5Q880 657 891.5 631.0Q903 605 903 575Q903 530 879.5 495.0Q856 460 814 443L820 424Q863 432 903 432Q1007 432 1098.5 392.5Q1190 353 1258.5 284.5Q1327 216 1366.5 124.5Q1406 33 1406 -71Q1406 33 1445.5 124.5Q1485 216 1553.5 284.0Q1622 352 1713.5 391.5Q1805 431 1909 431Q1930 431 1951.0 429.5Q1972 428 1992 424L1998 443Q1956 460 1932.5 495.0Q1909 530 1909 575Q1909 605 1920.0 631.0Q1931 657 1950.5 676.5Q1970 696 1996.5 707.5Q2023 719 2053 719Q2083 719 2109.0 707.5Q2135 696 2154.5 676.5Q2174 657 2185.5 631.0Q2197 605 2197 575Q2242 575 2281.0 558.0Q2320 541 2349.0 512.0Q2378 483 2395.0 444.0Q2412 405 2412 360Z" style="fill:#16c60c;stroke:none" transform="scale(1,-1) translate(0,-256)" /></svg>