<?xml version="1.0" encoding="utf-8" ?>
<svg baseProfile="full" height="256" version="1.1" width="256" xmlns="http://www.w3.org/2000/svg" xmlns:ev="http://www.w3.org/2001/xml-events" xmlns:xlink="http://www.w3.org/1999/xlink"><defs /><path d="M2197 503Q2197 473 2208.0 447.0Q2219 421 2238.5 401.5Q2258 382 2284.0 371.0Q2310 360 2340 360Q2340 330 2319.0 309.0Q2298 288 2268 288H543Q513 288 492.5 309.5Q472 331 472 360Q502 360 528.0 371.0Q554 382 573.5 401.5Q593 421 604.0 447.0Q615 473 615 503H831L1190 863H759Q729 863 708.0 884.0Q687 905 687 935Q717 935 743.0 946.0Q769 957 788.5 976.5Q808 996 819.5 1022.0Q831 1048 831 1078H1981Q1981 1048 1992.5 1022.0Q2004 996 2023.5 976.5Q2043 957 2069.0 946.0Q2095 935 2125 935Q2125 905 2104.0 884.0Q2083 863 2053 863H1625Q1716 772 1804.0 683.0Q1892 594 1982 503ZM1765 1653Q1765 1623 1776.5 1597.0Q1788 1571 1807.5 1551.5Q1827 1532 1853.0 1521.0Q1879 1510 1909 1510Q1909 1480 1888.0 1459.0Q1867 1438 1837 1438H1551Q1516 1473 1481.0 1509.0Q1446 1545 1408 1579L1262 1438H975Q945 1438 924.0 1459.0Q903 1480 903 1510Q933 1510 959.0 1521.0Q985 1532 1004.5 1551.5Q1024 1571 1035.5 1597.0Q1047 1623 1047 1653H1334L1406 1725L1480 1653Z" style="fill:#757575;stroke:none" transform="scale(1,-1) translate(0,-256)" /></svg>