<?xml version="1.0" encoding="utf-8" ?>
<svg baseProfile="full" height="256" version="1.1" width="256" xmlns="http://www.w3.org/2000/svg" xmlns:ev="http://www.w3.org/2001/xml-events" xmlns:xlink="http://www.w3.org/1999/xlink"><defs /><path d="M1406 575Q1376 575 1350.0 586.5Q1324 598 1304.5 617.5Q1285 637 1273.5 663.0Q1262 689 1262 719H1550Q1550 689 1538.5 663.0Q1527 637 1507.5 617.5Q1488 598 1462.0 586.5Q1436 575 1406 575ZM981 1630Q1010 1610 1028.5 1578.0Q1047 1546 1047 1510Q1047 1480 1035.5 1454.0Q1024 1428 1004.5 1408.5Q985 1389 959.0 1377.5Q933 1366 903 1366Q876 1366 851.5 1375.5Q827 1385 808.0 1401.5Q789 1418 776.5 1441.0Q764 1464 761 1491Q777 1521 801.5 1544.0Q826 1567 855.0 1583.5Q884 1600 916.5 1611.5Q949 1623 981 1630ZM1693 1510Q1693 1552 1709.5 1591.5Q1726 1631 1756 1661Q1810 1647 1863.5 1627.0Q1917 1607 1965 1576Q2008 1548 2042.0 1510.5Q2076 1473 2111 1436Q2099 1404 2078.5 1378.0Q2058 1352 2032.0 1333.0Q2006 1314 1974.5 1304.0Q1943 1294 1909 1294Q1864 1294 1825.0 1311.0Q1786 1328 1756.5 1357.5Q1727 1387 1710.0 1426.0Q1693 1465 1693 1510ZM903 72Q933 72 959.0 60.5Q985 49 1004.5 29.5Q1024 10 1035.5 -16.0Q1047 -42 1047 -72Q1047 -108 1028.5 -140.0Q1010 -172 981 -192Q936 -181 908.0 -170.0Q880 -159 857.5 -143.5Q835 -128 813.5 -106.5Q792 -85 761 -53Q764 -26 776.5 -3.5Q789 19 808.5 36.0Q828 53 852.0 62.5Q876 72 903 72ZM1909 144Q1943 144 1974.5 133.5Q2006 123 2032.0 104.5Q2058 86 2078.5 59.5Q2099 33 2111 2Q2045 -83 1953.5 -142.5Q1862 -202 1756 -223Q1726 -193 1709.5 -153.5Q1693 -114 1693 -72Q1693 -27 1710.0 12.0Q1727 51 1756.5 80.5Q1786 110 1825.0 127.0Q1864 144 1909 144ZM2403 848Q2414 816 2418.0 784.0Q2422 752 2422 719Q2422 651 2403 590Q2388 583 2372.5 579.0Q2357 575 2340 575Q2310 575 2284.0 586.5Q2258 598 2238.5 617.5Q2219 637 2208.0 663.0Q2197 689 2197 719Q2197 749 2208.0 775.0Q2219 801 2238.5 820.5Q2258 840 2284.0 851.5Q2310 863 2340 863Q2357 863 2372.5 859.0Q2388 855 2403 848ZM472 935Q517 935 556.0 918.0Q595 901 624.0 871.5Q653 842 670.0 803.0Q687 764 687 719Q687 674 670.0 635.0Q653 596 624.0 566.5Q595 537 556.0 520.0Q517 503 472 503Q459 503 446.5 505.0Q434 507 422 510Q406 561 397.5 613.0Q389 665 389 719Q389 773 397.5 825.0Q406 877 422 928Q434 931 446.5 933.0Q459 935 472 935Z" style="fill:#383838;stroke:none" transform="scale(1,-1) translate(0,-256)" /></svg>