<?xml version="1.0" encoding="utf-8" ?>
<svg baseProfile="full" height="256" version="1.1" width="256" xmlns="http://www.w3.org/2000/svg" xmlns:ev="http://www.w3.org/2001/xml-events" xmlns:xlink="http://www.w3.org/1999/xlink"><defs /><path d="M1981 1370V1290L1462 1030Q1470 1007 1474.0 983.0Q1478 959 1478 935Q1478 875 1455.5 822.5Q1433 770 1394.0 731.0Q1355 692 1302.5 669.5Q1250 647 1190 647Q1131 647 1078.5 670.0Q1026 693 987.0 732.0Q948 771 925.5 823.5Q903 876 903 935Q903 959 907.0 983.0Q911 1007 919 1030L400 1290V1370L951 1094Q991 1154 1054.5 1188.0Q1118 1222 1190 1222Q1262 1222 1325.5 1188.0Q1389 1154 1429 1094Z" style="fill:#af0d1a;stroke:none" transform="scale(1,-1) translate(0,-256)" /></svg>