<?xml version="1.0" encoding="utf-8" ?>
<svg baseProfile="full" height="256" version="1.1" width="256" xmlns="http://www.w3.org/2000/svg" xmlns:ev="http://www.w3.org/2001/xml-events" xmlns:xlink="http://www.w3.org/1999/xlink"><defs /><path d="M1478 1006Q1478 947 1455.0 894.5Q1432 842 1393.0 803.0Q1354 764 1301.5 741.5Q1249 719 1190 719Q1131 719 1078.5 741.5Q1026 764 987.0 803.0Q948 842 925.5 894.5Q903 947 903 1006Q903 1065 925.5 1117.5Q948 1170 987.0 1209.0Q1026 1248 1078.5 1271.0Q1131 1294 1190 1294Q1250 1294 1302.5 1271.5Q1355 1249 1394.0 1210.0Q1433 1171 1455.5 1118.5Q1478 1066 1478 1006Z" style="fill:#ffb900;stroke:none" transform="scale(1,-1) translate(0,-256)" /></svg>