<?xml version="1.0" encoding="utf-8" ?>
<svg baseProfile="full" height="256" version="1.1" width="256" xmlns="http://www.w3.org/2000/svg" xmlns:ev="http://www.w3.org/2001/xml-events" xmlns:xlink="http://www.w3.org/1999/xlink"><defs /><path d="M2053 360 1554 275Q1523 270 1492.0 262.5Q1461 255 1430.0 248.0Q1399 241 1367.5 236.5Q1336 232 1305 232Q1270 232 1235.0 236.5Q1200 241 1165.5 248.0Q1131 255 1096.0 262.5Q1061 270 1027 275L471 360L704 1292Q716 1340 742.5 1380.0Q769 1420 806.0 1449.0Q843 1478 888.0 1494.0Q933 1510 983 1510H1541Q1590 1510 1635.5 1494.0Q1681 1478 1718.0 1449.0Q1755 1420 1781.5 1380.0Q1808 1340 1820 1292Z" style="fill:#e81224;stroke:none" transform="scale(1,-1) translate(0,-256)" /></svg>