<?xml version="1.0" encoding="utf-8" ?>
<svg baseProfile="full" height="256" version="1.1" width="256" xmlns="http://www.w3.org/2000/svg" xmlns:ev="http://www.w3.org/2001/xml-events" xmlns:xlink="http://www.w3.org/1999/xlink"><defs /><path d="M471 -72Q426 -72 387.0 -55.0Q348 -38 319.0 -8.5Q290 21 273.0 60.0Q256 99 256 144V288Q256 342 280.5 389.0Q305 436 350 466L565 1326Q583 1398 622.5 1458.0Q662 1518 717.5 1561.5Q773 1605 841.0 1629.0Q909 1653 983 1653H1541Q1615 1653 1683.0 1629.0Q1751 1605 1806.5 1561.5Q1862 1518 1901.5 1458.0Q1941 1398 1959 1326L2174 466Q2204 445 2223.0 420.5Q2242 396 2252.5 367.5Q2263 339 2266.5 307.5Q2270 276 2270 241Q2270 217 2269.0 192.5Q2268 168 2268 144Q2268 100 2251.0 61.0Q2234 22 2204.5 -7.5Q2175 -37 2136.0 -54.5Q2097 -72 2053 -72Z" style="fill:#000000;stroke:none" transform="scale(1,-1) translate(0,-256)" /></svg>