<?xml version="1.0" encoding="utf-8" ?>
<svg baseProfile="full" height="256" version="1.1" width="256" xmlns="http://www.w3.org/2000/svg" xmlns:ev="http://www.w3.org/2001/xml-events" xmlns:xlink="http://www.w3.org/1999/xlink"><defs /><path d="M1493 360 1251 240 1031 360Q1032 368 1032.5 377.0Q1033 386 1033 394Q1033 460 1009.5 520.0Q986 580 945.0 628.0Q904 676 848.5 709.0Q793 742 729 754Q795 768 850.5 802.0Q906 836 946.5 884.5Q987 933 1009.5 993.5Q1032 1054 1032 1122Q1032 1137 1030.5 1152.0Q1029 1167 1027 1182Q1078 1145 1138.5 1125.5Q1199 1106 1262 1106Q1325 1106 1385.5 1125.5Q1446 1145 1497 1182Q1495 1167 1493.5 1152.0Q1492 1137 1492 1122Q1492 1055 1514.5 994.5Q1537 934 1577.5 885.0Q1618 836 1673.0 802.5Q1728 769 1794 756Q1730 744 1675.0 710.0Q1620 676 1579.0 627.5Q1538 579 1514.5 518.5Q1491 458 1491 394Q1491 386 1491.5 377.0Q1492 368 1493 360Z" style="fill:#ef6950;stroke:none" transform="scale(1,-1) translate(0,-256)" /></svg>