<?xml version="1.0" encoding="utf-8" ?>
<svg baseProfile="full" height="256" version="1.1" width="256" xmlns="http://www.w3.org/2000/svg" xmlns:ev="http://www.w3.org/2001/xml-events" xmlns:xlink="http://www.w3.org/1999/xlink"><defs /><path d="M1350 1294Q1468 1294 1573.0 1248.5Q1678 1203 1756.0 1125.0Q1834 1047 1879.5 942.0Q1925 837 1925 719Q1925 600 1879.5 495.5Q1834 391 1756.0 313.0Q1678 235 1573.0 189.5Q1468 144 1350 144Q1231 144 1126.0 189.0Q1021 234 943.0 312.0Q865 390 820.0 495.0Q775 600 775 719Q775 838 820.0 943.0Q865 1048 943.0 1126.0Q1021 1204 1126.0 1249.0Q1231 1294 1350 1294ZM1350 216Q1454 216 1545.5 255.5Q1637 295 1705.5 363.5Q1774 432 1813.5 523.5Q1853 615 1853 719Q1853 823 1813.5 914.5Q1774 1006 1705.5 1074.5Q1637 1143 1545.5 1182.5Q1454 1222 1350 1222Q1246 1222 1154.5 1182.5Q1063 1143 994.5 1074.5Q926 1006 886.0 914.5Q846 823 846 719Q846 615 885.5 523.0Q925 431 993.5 363.0Q1062 295 1154.0 255.5Q1246 216 1350 216Z" style="fill:#757575;stroke:none" transform="scale(1,-1) translate(0,-256)" /></svg>