<?xml version="1.0" encoding="utf-8" ?>
<svg baseProfile="full" height="256" version="1.1" width="256" xmlns="http://www.w3.org/2000/svg" xmlns:ev="http://www.w3.org/2001/xml-events" xmlns:xlink="http://www.w3.org/1999/xlink"><defs /><path d="M1350 288Q1260 288 1181.5 321.5Q1103 355 1044.5 413.5Q986 472 952.0 550.5Q918 629 918 719Q918 809 952.0 887.5Q986 966 1044.5 1024.5Q1103 1083 1181.5 1116.5Q1260 1150 1350 1150Q1439 1150 1517.5 1116.0Q1596 1082 1654.5 1023.5Q1713 965 1747.0 886.5Q1781 808 1781 719Q1781 630 1747.0 551.5Q1713 473 1654.5 414.5Q1596 356 1517.5 322.0Q1439 288 1350 288Z" style="fill:#cccccc;stroke:none" transform="scale(1,-1) translate(0,-256)" /></svg>