<?xml version="1.0" encoding="utf-8" ?>
<svg baseProfile="full" height="256" version="1.1" width="256" xmlns="http://www.w3.org/2000/svg" xmlns:ev="http://www.w3.org/2001/xml-events" xmlns:xlink="http://www.w3.org/1999/xlink"><defs /><path d="M1350 503Q1305 503 1266.0 520.0Q1227 537 1197.5 566.5Q1168 596 1151.0 635.0Q1134 674 1134 719Q1134 764 1151.0 803.0Q1168 842 1197.5 871.5Q1227 901 1266.0 918.0Q1305 935 1350 935Q1395 935 1434.0 918.0Q1473 901 1502.0 871.5Q1531 842 1548.0 803.0Q1565 764 1565 719Q1565 674 1548.0 635.0Q1531 596 1502.0 566.5Q1473 537 1434.0 520.0Q1395 503 1350 503Z" style="fill:#000000;stroke:none" transform="scale(1,-1) translate(0,-256)" /></svg>