<?xml version="1.0" encoding="utf-8" ?>
<svg baseProfile="full" height="256" version="1.1" width="256" xmlns="http://www.w3.org/2000/svg" xmlns:ev="http://www.w3.org/2001/xml-events" xmlns:xlink="http://www.w3.org/1999/xlink"><defs /><path d="M975 181Q975 202 983.5 214.5Q992 227 1007 241Q1041 271 1091.0 293.0Q1141 315 1196.0 330.0Q1251 345 1306.0 352.0Q1361 359 1406 359Q1451 359 1506.0 352.0Q1561 345 1616.0 330.0Q1671 315 1720.5 293.0Q1770 271 1805 241Q1820 227 1828.5 214.5Q1837 202 1837 181Q1837 151 1816.0 130.0Q1795 109 1765 109Q1753 109 1744.5 112.5Q1736 116 1725 121L1711 129Q1671 149 1636.5 165.0Q1602 181 1566.5 192.5Q1531 204 1492.5 210.0Q1454 216 1406 216Q1354 216 1314.5 209.0Q1275 202 1239.5 189.0Q1204 176 1168.0 159.0Q1132 142 1087 121Q1077 116 1067.5 112.5Q1058 109 1047 109Q1018 109 996.5 130.5Q975 152 975 181ZM1262 791Q1262 746 1245.0 707.0Q1228 668 1199.0 638.5Q1170 609 1131.0 592.0Q1092 575 1047 575H975Q930 575 891.0 592.0Q852 609 822.5 638.5Q793 668 776.0 707.0Q759 746 759 791H831Q831 761 852.0 740.0Q873 719 903 719H1118Q1148 719 1169.0 740.0Q1190 761 1190 791ZM1981 791H2053Q2053 746 2036.0 707.0Q2019 668 1989.5 638.5Q1960 609 1921.0 592.0Q1882 575 1837 575H1765Q1720 575 1681.0 592.0Q1642 609 1613.0 638.5Q1584 668 1567.0 707.0Q1550 746 1550 791H1622Q1622 762 1642.5 740.5Q1663 719 1693 719H1909Q1939 719 1960.0 740.0Q1981 761 1981 791Z" style="fill:#000000;stroke:none" transform="scale(1,-1) translate(0,-256)" /></svg>