<?xml version="1.0" encoding="utf-8" ?>
<svg baseProfile="full" height="256" version="1.1" width="256" xmlns="http://www.w3.org/2000/svg" xmlns:ev="http://www.w3.org/2001/xml-events" xmlns:xlink="http://www.w3.org/1999/xlink"><defs /><path d="M831 1006Q831 1036 852 1057L1140 1345Q1161 1366 1190 1366Q1219 1366 1240.5 1344.5Q1262 1323 1262 1294Q1262 1264 1241 1243L954 956Q933 935 903 935Q874 935 852.5 956.0Q831 977 831 1006ZM1621 1366Q1651 1366 1672 1345L1960 1057Q1981 1036 1981 1006Q1981 977 1959.5 956.0Q1938 935 1909 935Q1879 935 1858 956L1571 1243Q1550 1264 1550 1294Q1550 1323 1571.0 1344.5Q1592 1366 1621 1366Z" style="fill:#d48c00;stroke:none" transform="scale(1,-1) translate(0,-256)" /></svg>