<?xml version="1.0" encoding="utf-8" ?>
<svg baseProfile="full" height="256" version="1.1" width="256" xmlns="http://www.w3.org/2000/svg" xmlns:ev="http://www.w3.org/2001/xml-events" xmlns:xlink="http://www.w3.org/1999/xlink"><defs /><path d="M1455 677 1405 719 1435 758 1405 791V863L1455 904H1643L1693 862L1663 830L1693 790V719L1643 677ZM1456 329H1643L1693 288V216L1663 177L1693 144L1643 102H1456L1406 144V216L1436 248L1406 288ZM881 677 831 719 861 758 831 791V863L881 904H1068L1118 862L1088 830L1118 790V719L1068 677ZM881 102 831 144 861 183 831 216V288L881 329H1068L1118 287L1088 255L1118 215V144L1068 102ZM881 -186 831 -144 861 -105 831 -72V0L881 41H1068L1118 -1L1088 -33L1118 -73V-144L1068 -186Z" style="fill:#383838;stroke:none" transform="scale(1,-1) translate(0,-256)" /></svg>