<?xml version="1.0" encoding="utf-8" ?>
<svg baseProfile="full" height="256" version="1.1" width="256" xmlns="http://www.w3.org/2000/svg" xmlns:ev="http://www.w3.org/2001/xml-events" xmlns:xlink="http://www.w3.org/1999/xlink"><defs /><path d="M2340 288 2412 216V-287H2268V72L1936 404Q1889 350 1827.0 319.0Q1765 288 1693 288H1262V0L1190 -72V-287H1047V288Q1000 288 958.0 304.0Q916 320 883.0 348.5Q850 377 827.5 416.0Q805 455 798 501L724 982Q719 1017 715.0 1045.5Q711 1074 707.5 1102.0Q704 1130 699.0 1158.5Q694 1187 687 1222Q684 1237 680.0 1248.5Q676 1260 671.5 1271.0Q667 1282 662.5 1293.5Q658 1305 653 1319L584 1514Q616 1546 658.0 1563.5Q700 1581 745 1581H759V1700Q759 1711 766.5 1718.0Q774 1725 785 1725Q795 1725 802 1718Q835 1685 854.5 1667.0Q874 1649 885.0 1631.5Q896 1614 899.5 1590.0Q903 1566 903 1521Q922 1504 937.0 1482.5Q952 1461 962 1437L1130 1024Q1147 983 1183.0 959.0Q1219 935 1263 935H1981Q2039 935 2094.5 916.5Q2150 898 2197 862Q2263 811 2301.5 736.5Q2340 662 2340 575Z" style="fill:#bb9167;stroke:none" transform="scale(1,-1) translate(0,-256)" /></svg>