<?xml version="1.0" encoding="utf-8" ?>
<svg baseProfile="full" height="256" version="1.1" width="256" xmlns="http://www.w3.org/2000/svg" xmlns:ev="http://www.w3.org/2001/xml-events" xmlns:xlink="http://www.w3.org/1999/xlink"><defs /><path d="M2125 575V216L1909 -287H1765L1909 72V575ZM2053 863Q2053 893 2064.5 919.0Q2076 945 2095.5 964.5Q2115 984 2141.0 995.0Q2167 1006 2197 1006Q2227 1006 2253.0 995.0Q2279 984 2298.5 964.5Q2318 945 2329.0 919.0Q2340 893 2340 863Q2340 833 2329.0 807.0Q2318 781 2298.5 761.5Q2279 742 2253.0 730.5Q2227 719 2197 719Q2167 719 2140.5 730.0Q2114 741 2094.5 760.5Q2075 780 2064.0 806.5Q2053 833 2053 863ZM759 1474H615V1700Q615 1711 622.5 1718.0Q630 1725 641 1725Q652 1725 659 1718Q675 1702 692.5 1686.0Q710 1670 725.0 1652.5Q740 1635 749.5 1615.0Q759 1595 759 1570Z" style="fill:#8e562e;stroke:none" transform="scale(1,-1) translate(0,-256)" /></svg>