<?xml version="1.0" encoding="utf-8" ?>
<svg baseProfile="full" height="256" version="1.1" width="256" xmlns="http://www.w3.org/2000/svg" xmlns:ev="http://www.w3.org/2001/xml-events" xmlns:xlink="http://www.w3.org/1999/xlink"><defs /><path d="M2125 -431V-149L2004 -431H1553L1765 100V150Q1729 144 1693 144H1406V-59L1334 -131V-431H903V171Q854 190 812.0 221.0Q770 252 738.0 291.5Q706 331 685.0 378.5Q664 426 656 478L564 1078H508Q456 1078 410.0 1098.0Q364 1118 330.0 1152.0Q296 1186 276.0 1232.0Q256 1278 256 1330V1389L472 1605V1700Q472 1735 485.5 1765.5Q499 1796 522.0 1819.0Q545 1842 575.5 1855.5Q606 1869 641 1869Q676 1869 713 1853Q748 1869 784 1869Q819 1869 849.0 1856.0Q879 1843 904 1819L922 1802Q948 1777 970.5 1753.5Q993 1730 1009.5 1703.5Q1026 1677 1036.0 1646.5Q1046 1616 1047 1576Q1061 1556 1073.5 1535.5Q1086 1515 1095 1492L1263 1079Q1450 1079 1634.5 1078.5Q1819 1078 2006 1078Q2046 1113 2095.0 1131.5Q2144 1150 2197 1150Q2256 1150 2308.5 1127.5Q2361 1105 2400.0 1066.0Q2439 1027 2461.5 974.5Q2484 922 2484 863Q2484 800 2456 739Q2470 700 2477.0 658.5Q2484 617 2484 575V347L2556 275V-431Z" style="fill:#000000;stroke:none" transform="scale(1,-1) translate(0,-256)" /></svg>