<?xml version="1.0" encoding="utf-8" ?>
<svg baseProfile="full" height="256" version="1.1" width="256" xmlns="http://www.w3.org/2000/svg" xmlns:ev="http://www.w3.org/2001/xml-events" xmlns:xlink="http://www.w3.org/1999/xlink"><defs /><path d="M618 -69H296Q279 -69 267.5 -57.5Q256 -46 256 -29Q256 -13 268 -1L684 416L710 424L413 1018Q379 1028 350.5 1048.0Q322 1068 302.0 1095.0Q282 1122 270.5 1154.5Q259 1187 259 1223Q259 1256 267.0 1282.0Q275 1308 289.0 1330.5Q303 1353 321.5 1373.5Q340 1394 362 1416Q451 1504 553.5 1575.0Q656 1646 768.5 1695.5Q881 1745 1002.0 1772.0Q1123 1799 1250 1799Q1409 1799 1561.5 1760.5Q1714 1722 1853 1644Q1870 1649 1907.5 1662.0Q1945 1675 1994.0 1691.5Q2043 1708 2100.5 1728.0Q2158 1748 2215.5 1767.5Q2273 1787 2327.5 1805.5Q2382 1824 2425.5 1838.0Q2469 1852 2498.0 1860.5Q2527 1869 2533 1869Q2543 1869 2549.5 1862.5Q2556 1856 2556 1846Q2556 1840 2547.5 1811.0Q2539 1782 2525.0 1738.5Q2511 1695 2492.5 1640.5Q2474 1586 2454.5 1528.5Q2435 1471 2415.0 1413.5Q2395 1356 2378.5 1307.0Q2362 1258 2349.0 1220.5Q2336 1183 2331 1166Q2486 886 2486 567Q2486 310 2394.0 95.5Q2302 -119 2125 -303L2119 -309Q2096 -333 2074.5 -354.5Q2053 -376 2028.0 -392.5Q2003 -409 1974.5 -418.5Q1946 -428 1910 -428Q1875 -428 1842.0 -416.5Q1809 -405 1782.0 -384.5Q1755 -364 1735.0 -336.0Q1715 -308 1705 -274L1111 23L1103 -3L686 -419Q674 -431 658 -431Q641 -431 629.5 -419.5Q618 -408 618 -391ZM1020 607 1665 1253Q1574 1310 1467.0 1339.0Q1360 1368 1254 1368Q1110 1368 977.0 1319.0Q844 1270 735 1176ZM1863 48Q1957 157 2006.0 290.0Q2055 423 2055 567Q2055 676 2026.0 780.5Q1997 885 1940 978L1295 332Z" style="fill:#000000;stroke:none" transform="scale(1,-1) translate(0,-256)" /></svg>