<?xml version="1.0" encoding="utf-8" ?>
<svg baseProfile="full" height="256" version="1.1" width="256" xmlns="http://www.w3.org/2000/svg" xmlns:ev="http://www.w3.org/2001/xml-events" xmlns:xlink="http://www.w3.org/1999/xlink"><defs /><path d="M1254 1655Q1364 1655 1471.5 1633.5Q1579 1612 1681 1569L1693 1473Q1662 1473 1631.5 1468.0Q1601 1463 1570 1458Q1416 1511 1254 1511Q1062 1511 893.0 1441.0Q724 1371 587 1235L525 1173Q504 1152 474 1152Q445 1152 424.0 1173.5Q403 1195 403 1224Q403 1240 411.5 1256.0Q420 1272 433.0 1286.5Q446 1301 460.0 1314.0Q474 1327 485 1337Q646 1490 838.0 1572.5Q1030 1655 1254 1655ZM2256 994Q2299 892 2320.5 784.5Q2342 677 2342 567Q2342 343 2259.5 151.0Q2177 -41 2024 -202Q2014 -213 2001.0 -227.0Q1988 -241 1973.5 -254.0Q1959 -267 1943.0 -275.5Q1927 -284 1911 -284Q1882 -284 1860.5 -263.0Q1839 -242 1839 -213Q1839 -183 1860 -162L1922 -100Q2058 37 2128.5 206.0Q2199 375 2199 567Q2199 648 2185.0 727.5Q2171 807 2145 883Q2149 909 2154.5 936.0Q2160 963 2160 989Q2160 994 2160.0 998.5Q2160 1003 2159 1008Z" style="fill:#ca5010;stroke:none" transform="scale(1,-1) translate(0,-256)" /></svg>