<?xml version="1.0" encoding="utf-8" ?>
<svg baseProfile="full" height="256" version="1.1" width="256" xmlns="http://www.w3.org/2000/svg" xmlns:ev="http://www.w3.org/2001/xml-events" xmlns:xlink="http://www.w3.org/1999/xlink"><defs /><path d="M508 1653Q530 1653 549.5 1644.5Q569 1636 583.5 1621.5Q598 1607 606.5 1587.5Q615 1568 615 1546V978Q615 960 628.0 947.5Q641 935 659 935Q673 935 680.5 940.5Q688 946 696 957Q698 959 706.0 979.0Q714 999 725.0 1028.0Q736 1057 749.0 1091.5Q762 1126 773.5 1156.5Q785 1187 793.5 1209.5Q802 1232 805 1238Q823 1284 841.0 1329.5Q859 1375 876 1422Q885 1445 893.0 1469.5Q901 1494 912 1517Q925 1546 952.0 1563.5Q979 1581 1011 1581Q1033 1581 1052.5 1572.5Q1072 1564 1086.5 1549.0Q1101 1534 1109.5 1514.5Q1118 1495 1118 1473Q1118 1451 1109 1430L903 935L939 891L975 935H1047Q1075 935 1101.0 923.0Q1127 911 1147.0 891.5Q1167 872 1178.5 845.5Q1190 819 1190 791L1226 756L1262 791H1334Q1364 791 1390.0 779.5Q1416 768 1435.5 748.5Q1455 729 1466.5 703.0Q1478 677 1478 647V252Q1478 140 1435.5 42.0Q1393 -56 1320.0 -129.0Q1247 -202 1149.0 -244.5Q1051 -287 939 -287Q827 -287 729.0 -244.5Q631 -202 558.0 -129.0Q485 -56 442.5 42.0Q400 140 400 252V1546Q400 1568 408.5 1588.0Q417 1608 432.0 1622.0Q447 1636 466.5 1644.5Q486 1653 508 1653Z" style="fill:#ffc83d;stroke:none" transform="scale(1,-1) translate(0,-256)" /></svg>