<?xml version="1.0" encoding="utf-8" ?>
<svg baseProfile="full" height="256" version="1.1" width="256" xmlns="http://www.w3.org/2000/svg" xmlns:ev="http://www.w3.org/2001/xml-events" xmlns:xlink="http://www.w3.org/1999/xlink"><defs /><path d="M939 -431Q845 -431 757.5 -406.5Q670 -382 594.0 -337.5Q518 -293 456.0 -231.0Q394 -169 349.5 -93.0Q305 -17 280.5 70.5Q256 158 256 252V1546Q256 1598 276.0 1643.5Q296 1689 330.5 1723.0Q365 1757 410.5 1777.0Q456 1797 508 1797Q560 1797 605.5 1777.0Q651 1757 685.0 1723.0Q719 1689 739.0 1643.5Q759 1598 759 1546V1520Q764 1533 769.0 1547.0Q774 1561 780 1574Q812 1644 872.5 1684.5Q933 1725 1011 1725Q1063 1725 1109.0 1705.0Q1155 1685 1189.5 1650.5Q1224 1616 1243.5 1570.0Q1263 1524 1263 1472Q1263 1446 1257.5 1422.0Q1252 1398 1242 1375L1115 1070Q1173 1056 1219.5 1022.5Q1266 989 1295 935H1334Q1394 935 1446.5 912.5Q1499 890 1538.0 851.0Q1577 812 1599.5 759.5Q1622 707 1622 647V252Q1622 158 1597.5 71.0Q1573 -16 1528.5 -92.0Q1484 -168 1421.5 -230.5Q1359 -293 1283.0 -337.5Q1207 -382 1120.0 -406.5Q1033 -431 939 -431Z" style="fill:#000000;stroke:none" transform="scale(1,-1) translate(0,-256)" /></svg>