<?xml version="1.0" encoding="utf-8" ?>
<svg baseProfile="full" height="256" version="1.1" width="256" xmlns="http://www.w3.org/2000/svg" xmlns:ev="http://www.w3.org/2001/xml-events" xmlns:xlink="http://www.w3.org/1999/xlink"><defs /><path d="M1406 1222Q1510 1222 1601.5 1182.5Q1693 1143 1761.5 1074.5Q1830 1006 1869.5 914.5Q1909 823 1909 719Q1909 615 1869.5 523.5Q1830 432 1761.5 363.5Q1693 295 1601.5 255.5Q1510 216 1406 216Q1302 216 1210.0 255.5Q1118 295 1050.0 363.0Q982 431 942.5 523.0Q903 615 903 719Q903 823 942.5 914.5Q982 1006 1050.5 1074.5Q1119 1143 1210.5 1182.5Q1302 1222 1406 1222ZM1406 360Q1480 360 1545.5 388.5Q1611 417 1659.5 465.5Q1708 514 1736.5 579.5Q1765 645 1765 719Q1765 793 1736.5 858.5Q1708 924 1659.5 972.5Q1611 1021 1545.5 1049.5Q1480 1078 1406 1078Q1332 1078 1266.5 1049.5Q1201 1021 1152.5 972.5Q1104 924 1075.5 858.5Q1047 793 1047 719Q1047 644 1075.0 579.0Q1103 514 1152.0 465.0Q1201 416 1266.0 388.0Q1331 360 1406 360ZM2340 791Q2370 791 2391.0 770.0Q2412 749 2412 719Q2412 689 2391.0 668.0Q2370 647 2340 647H2125Q2095 647 2074.0 668.0Q2053 689 2053 719Q2053 749 2074.0 770.0Q2095 791 2125 791ZM1406 1725Q1436 1725 1457.0 1704.0Q1478 1683 1478 1653V1438Q1478 1408 1457.0 1387.0Q1436 1366 1406 1366Q1376 1366 1355.0 1387.0Q1334 1408 1334 1438V1653Q1334 1683 1355.0 1704.0Q1376 1725 1406 1725ZM1406 72Q1436 72 1457.0 51.0Q1478 30 1478 0V-215Q1478 -245 1457.0 -266.0Q1436 -287 1406 -287Q1376 -287 1355.0 -266.0Q1334 -245 1334 -215V0Q1334 30 1355.0 51.0Q1376 72 1406 72ZM687 791Q717 791 738.0 770.0Q759 749 759 719Q759 689 738.0 668.0Q717 647 687 647H472Q442 647 421.0 668.0Q400 689 400 719Q400 749 421.0 770.0Q442 791 472 791ZM1909 288Q1939 288 1960 267L2104 123Q2125 102 2125 72Q2125 42 2104.0 21.0Q2083 0 2053 0Q2023 0 2002 21L1858 165Q1837 186 1837 216Q1837 246 1858.0 267.0Q1879 288 1909 288ZM687 72Q687 102 708 123L852 267Q873 288 903 288Q933 288 954.0 267.0Q975 246 975 216Q975 186 954 165L810 21Q789 0 759 0Q729 0 708.0 21.0Q687 42 687 72ZM1837 1222Q1837 1252 1858 1273L2002 1417Q2023 1438 2053 1438Q2083 1438 2104.0 1417.0Q2125 1396 2125 1366Q2125 1336 2104 1315L1960 1171Q1939 1150 1909 1150Q1879 1150 1858.0 1171.0Q1837 1192 1837 1222ZM759 1438Q789 1438 810 1417L954 1273Q975 1252 975 1222Q975 1192 954.0 1171.0Q933 1150 903 1150Q873 1150 852 1171L708 1315Q687 1336 687 1366Q687 1396 708.0 1417.0Q729 1438 759 1438Z" style="fill:#fff100;stroke:none" transform="scale(1,-1) translate(0,-256)" /></svg>