<?xml version="1.0" encoding="utf-8" ?>
<svg baseProfile="full" height="256" version="1.1" width="256" xmlns="http://www.w3.org/2000/svg" xmlns:ev="http://www.w3.org/2001/xml-events" xmlns:xlink="http://www.w3.org/1999/xlink"><defs /><path d="M2015 935H2340Q2385 935 2424.0 918.0Q2463 901 2492.5 871.5Q2522 842 2539.0 803.0Q2556 764 2556 719Q2556 674 2539.0 635.0Q2522 596 2492.5 566.5Q2463 537 2424.0 520.0Q2385 503 2340 503H2015Q2009 487 2003.0 471.5Q1997 456 1989 441L2205 225Q2236 194 2252.0 155.0Q2268 116 2268 72Q2268 28 2251.0 -11.0Q2234 -50 2204.5 -79.5Q2175 -109 2136.0 -126.5Q2097 -144 2053 -144Q2010 -144 1970.0 -127.0Q1930 -110 1900 -80L1683 137Q1651 121 1622 110V-215Q1622 -260 1605.0 -299.0Q1588 -338 1558.5 -367.5Q1529 -397 1490.0 -414.0Q1451 -431 1406 -431Q1361 -431 1322.0 -414.0Q1283 -397 1253.5 -367.5Q1224 -338 1207.0 -299.0Q1190 -260 1190 -215V110Q1174 116 1158.5 122.0Q1143 128 1128 136L912 -80Q882 -110 842.0 -127.0Q802 -144 759 -144Q715 -144 675.5 -127.0Q636 -110 606.5 -80.5Q577 -51 560.0 -11.5Q543 28 543 72Q543 115 560.0 155.0Q577 195 607 225L823 441Q815 456 809.0 471.5Q803 487 797 503H472Q427 503 388.0 520.0Q349 537 319.5 566.5Q290 596 273.0 635.0Q256 674 256 719Q256 764 273.0 803.0Q290 842 319.5 871.5Q349 901 388.0 918.0Q427 935 472 935H797Q803 951 809.0 966.5Q815 982 823 997L607 1213Q577 1243 560.0 1283.0Q543 1323 543 1366Q543 1410 560.5 1449.0Q578 1488 607.5 1517.5Q637 1547 676.0 1564.0Q715 1581 759 1581Q803 1581 842.0 1565.0Q881 1549 912 1518L1128 1302Q1143 1310 1158.5 1316.0Q1174 1322 1190 1328V1653Q1190 1698 1207.0 1737.0Q1224 1776 1253.5 1805.5Q1283 1835 1322.0 1852.0Q1361 1869 1406 1869Q1451 1869 1490.0 1852.0Q1529 1835 1558.5 1805.5Q1588 1776 1605.0 1737.0Q1622 1698 1622 1653V1328Q1638 1322 1653.5 1316.0Q1669 1310 1684 1302L1900 1518Q1931 1549 1970.0 1565.0Q2009 1581 2053 1581Q2098 1581 2137.0 1564.0Q2176 1547 2205.0 1518.0Q2234 1489 2251.0 1450.0Q2268 1411 2268 1366Q2268 1322 2252.0 1283.0Q2236 1244 2205 1213L1989 997Q1997 982 2003.0 966.5Q2009 951 2015 935Z" style="fill:#000000;stroke:none" transform="scale(1,-1) translate(0,-256)" /></svg>