<?xml version="1.0" encoding="utf-8" ?>
<svg baseProfile="full" height="256" version="1.1" width="256" xmlns="http://www.w3.org/2000/svg" xmlns:ev="http://www.w3.org/2001/xml-events" xmlns:xlink="http://www.w3.org/1999/xlink"><defs /><path d="M1406 359Q1452 359 1506.5 352.0Q1561 345 1615.5 330.0Q1670 315 1719.5 293.0Q1769 271 1805 241Q1821 227 1829.0 214.5Q1837 202 1837 181Q1837 151 1816.0 130.0Q1795 109 1765 109Q1754 109 1744.5 112.5Q1735 116 1725 121L1711 128Q1671 148 1636.5 164.0Q1602 180 1566.5 191.5Q1531 203 1492.5 209.5Q1454 216 1406 216Q1359 216 1321.5 210.0Q1284 204 1250.5 193.0Q1217 182 1183.5 167.0Q1150 152 1112 133L1087 121Q1076 116 1067.5 112.5Q1059 109 1047 109Q1017 109 996.0 130.0Q975 151 975 181Q975 202 983.0 214.5Q991 227 1007 241Q1043 271 1092.5 293.0Q1142 315 1196.5 330.0Q1251 345 1305.5 352.0Q1360 359 1406 359ZM1154 575Q1131 575 1111.5 583.5Q1092 592 1078.0 607.0Q1064 622 1055.5 641.5Q1047 661 1047 683V719H831Q801 719 780.0 740.0Q759 761 759 791Q759 821 780.0 842.0Q801 863 831 863H1262V683Q1262 660 1253.5 640.5Q1245 621 1230.5 606.5Q1216 592 1196.0 583.5Q1176 575 1154 575ZM1622 863H2053V683Q2053 660 2044.5 640.5Q2036 621 2021.5 606.5Q2007 592 1987.0 583.5Q1967 575 1945 575Q1922 575 1902.5 583.5Q1883 592 1868.5 606.5Q1854 621 1845.5 640.5Q1837 660 1837 683V719H1622Q1592 719 1571.0 740.0Q1550 761 1550 791Q1550 821 1571.0 842.0Q1592 863 1622 863Z" style="fill:#000000;stroke:none" transform="scale(1,-1) translate(0,-256)" /></svg>