<?xml version="1.0" encoding="utf-8" ?>
<svg baseProfile="full" height="256" version="1.1" width="256" xmlns="http://www.w3.org/2000/svg" xmlns:ev="http://www.w3.org/2001/xml-events" xmlns:xlink="http://www.w3.org/1999/xlink"><defs /><path d="M2017 1078Q2003 1078 1980.5 1089.0Q1958 1100 1929.5 1113.5Q1901 1127 1868.0 1138.0Q1835 1149 1801 1149Q1766 1149 1733.0 1138.0Q1700 1127 1671.5 1113.5Q1643 1100 1620.5 1089.0Q1598 1078 1585 1078Q1556 1078 1535.0 1099.5Q1514 1121 1514 1150Q1514 1174 1530.0 1194.5Q1546 1215 1571.5 1231.0Q1597 1247 1629.0 1258.5Q1661 1270 1693.0 1277.5Q1725 1285 1753.5 1289.0Q1782 1293 1801 1293Q1820 1293 1848.5 1289.0Q1877 1285 1909.0 1277.5Q1941 1270 1973.0 1258.5Q2005 1247 2031.0 1231.0Q2057 1215 2073.0 1195.0Q2089 1175 2089 1151Q2089 1121 2068.0 1099.5Q2047 1078 2017 1078ZM1226 1078Q1212 1078 1190.0 1089.0Q1168 1100 1139.5 1113.5Q1111 1127 1078.0 1138.0Q1045 1149 1010 1149Q975 1149 942.0 1138.0Q909 1127 881.0 1113.5Q853 1100 831.0 1089.0Q809 1078 795 1078Q765 1078 744.0 1099.5Q723 1121 723 1151Q723 1175 739.0 1195.5Q755 1216 780.5 1231.5Q806 1247 838.0 1258.5Q870 1270 902.0 1278.0Q934 1286 962.5 1289.5Q991 1293 1010 1293Q1029 1293 1057.5 1289.0Q1086 1285 1118.0 1277.5Q1150 1270 1182.0 1258.5Q1214 1247 1240.0 1231.0Q1266 1215 1282.0 1194.5Q1298 1174 1298 1150Q1298 1121 1276.5 1099.5Q1255 1078 1226 1078Z" style="fill:#d48c00;stroke:none" transform="scale(1,-1) translate(0,-256)" /></svg>