<?xml version="1.0" encoding="utf-8" ?>
<svg baseProfile="full" height="256" version="1.1" width="256" xmlns="http://www.w3.org/2000/svg" xmlns:ev="http://www.w3.org/2001/xml-events" xmlns:xlink="http://www.w3.org/1999/xlink"><defs /><path d="M795 431Q817 431 836.5 422.5Q856 414 871.0 400.0Q886 386 894.5 366.0Q903 346 903 324Q903 315 901.0 306.0Q899 297 896 288H622Q619 297 617.0 306.0Q615 315 615 324Q615 346 623.5 365.5Q632 385 647.0 399.5Q662 414 681.5 422.5Q701 431 723 431Q741 431 759 425Q777 431 795 431ZM1442 431Q1464 431 1483.5 422.5Q1503 414 1518.0 399.5Q1533 385 1541.5 365.5Q1550 346 1550 324Q1550 315 1548.0 306.0Q1546 297 1543 288H1269Q1266 297 1264.0 306.0Q1262 315 1262 324Q1262 346 1270.5 366.0Q1279 386 1294.0 400.0Q1309 414 1328.5 422.5Q1348 431 1370 431Q1388 431 1406 425Q1424 431 1442 431ZM2197 324Q2197 315 2195.0 306.0Q2193 297 2190 288H1916Q1913 297 1911.0 306.0Q1909 315 1909 324Q1909 346 1917.5 366.0Q1926 386 1941.0 400.0Q1956 414 1975.5 422.5Q1995 431 2017 431Q2035 431 2053 425Q2071 431 2089 431Q2111 431 2130.5 422.5Q2150 414 2165.0 399.5Q2180 385 2188.5 365.5Q2197 346 2197 324Z" style="fill:#ffb900;stroke:none" transform="scale(1,-1) translate(0,-256)" /></svg>