<?xml version="1.0" encoding="utf-8" ?>
<svg baseProfile="full" height="256" version="1.1" width="256" xmlns="http://www.w3.org/2000/svg" xmlns:ev="http://www.w3.org/2001/xml-events" xmlns:xlink="http://www.w3.org/1999/xlink"><defs /><path d="M2294 -144H518Q494 -144 472.5 -134.5Q451 -125 435.0 -108.5Q419 -92 409.5 -70.5Q400 -49 400 -25V1607Q400 1631 409.5 1652.5Q419 1674 435.0 1690.0Q451 1706 472.5 1715.5Q494 1725 518 1725H2294Q2318 1725 2339.5 1715.5Q2361 1706 2377.0 1690.0Q2393 1674 2402.5 1652.5Q2412 1631 2412 1607V-25Q2412 -49 2402.5 -70.5Q2393 -92 2377.0 -108.5Q2361 -125 2339.5 -134.5Q2318 -144 2294 -144Z" style="fill:#757575;stroke:none" transform="scale(1,-1) translate(0,-256)" /></svg>