<?xml version="1.0" encoding="utf-8" ?>
<svg baseProfile="full" height="256" version="1.1" width="256" xmlns="http://www.w3.org/2000/svg" xmlns:ev="http://www.w3.org/2001/xml-events" xmlns:xlink="http://www.w3.org/1999/xlink"><defs /><path d="M1550 1027Q1502 942 1467.0 858.0Q1432 774 1417 676H1325Q1340 767 1374.5 847.5Q1409 928 1456 1006H1269V1078H1550ZM903 1027Q855 942 819.5 857.5Q784 773 770 676H678Q692 765 727.0 848.0Q762 931 810 1006H623V1078H903ZM2197 1027Q2149 942 2114.0 858.0Q2079 774 2064 676H1971Q1989 768 2022.5 846.5Q2056 925 2103 1006H1916V1078H2197Z" style="fill:#f03a17;stroke:none" transform="scale(1,-1) translate(0,-256)" /></svg>