<?xml version="1.0" encoding="utf-8" ?>
<svg baseProfile="full" height="256" version="1.1" width="256" xmlns="http://www.w3.org/2000/svg" xmlns:ev="http://www.w3.org/2001/xml-events" xmlns:xlink="http://www.w3.org/1999/xlink"><defs /><path d="M1013 288H896L759 368L620 288H505Q491 288 481.5 298.0Q472 308 472 322V503Q472 535 478.0 565.5Q484 596 489 628L522 877Q523 882 523 891Q523 917 516.0 941.5Q509 966 505 992Q502 1016 496.0 1046.5Q490 1077 485.0 1108.5Q480 1140 476.0 1170.0Q472 1200 472 1222V1404Q472 1418 481.5 1428.0Q491 1438 505 1438H615Q617 1438 637.5 1431.0Q658 1424 683.0 1415.0Q708 1406 731.0 1398.0Q754 1390 763 1388Q769 1390 791.5 1398.0Q814 1406 838.5 1415.0Q863 1424 882.5 1431.0Q902 1438 903 1438H1013Q1027 1438 1037.0 1428.0Q1047 1418 1047 1404V1222Q1047 1202 1043.0 1171.5Q1039 1141 1034.0 1108.5Q1029 1076 1023.5 1045.0Q1018 1014 1014 992Q1009 963 1003.0 934.5Q997 906 997 877Q997 845 1003.0 814.5Q1009 784 1014 752L1036 586Q1039 565 1043.0 544.5Q1047 524 1047 503V322Q1047 308 1037.0 298.0Q1027 288 1013 288ZM1660 288H1543L1406 368L1269 288H1152Q1138 288 1128.0 298.0Q1118 308 1118 322V505Q1118 537 1124.0 567.0Q1130 597 1135 629L1168 877Q1169 882 1169 891Q1169 917 1162.0 941.5Q1155 966 1151 992Q1148 1016 1142.0 1046.5Q1136 1077 1131.0 1108.5Q1126 1140 1122.0 1170.0Q1118 1200 1118 1222V1404Q1118 1418 1128.0 1428.0Q1138 1438 1152 1438H1262Q1264 1438 1284.0 1431.0Q1304 1424 1328.0 1415.0Q1352 1406 1375.0 1398.0Q1398 1390 1406 1388Q1414 1390 1437.0 1398.0Q1460 1406 1484.0 1415.0Q1508 1424 1528.0 1431.0Q1548 1438 1550 1438H1660Q1674 1438 1683.5 1428.0Q1693 1418 1693 1404V1222Q1693 1192 1687.0 1164.0Q1681 1136 1676 1107L1643 877Q1642 873 1642 863Q1642 835 1649.0 807.5Q1656 780 1660 752L1682 586Q1685 565 1689.0 544.5Q1693 524 1693 503V322Q1693 308 1683.5 298.0Q1674 288 1660 288ZM2306 288H2190L2053 368L1916 288H1799Q1785 288 1775.0 298.0Q1765 308 1765 322V503Q1765 535 1771.0 565.5Q1777 596 1782 628L1815 877Q1816 882 1816 891Q1816 917 1809.0 941.5Q1802 966 1798 992Q1795 1016 1789.0 1046.5Q1783 1077 1778.0 1108.5Q1773 1140 1769.0 1170.0Q1765 1200 1765 1222V1404Q1765 1418 1775.0 1428.0Q1785 1438 1799 1438H1909Q1911 1438 1931.5 1431.0Q1952 1424 1976.5 1415.0Q2001 1406 2024.5 1398.0Q2048 1390 2056 1388Q2063 1390 2085.5 1398.0Q2108 1406 2132.0 1415.0Q2156 1424 2175.5 1431.0Q2195 1438 2197 1438H2306Q2320 1438 2330.0 1428.0Q2340 1418 2340 1404V1222Q2340 1192 2334.0 1164.0Q2328 1136 2323 1107L2290 877Q2289 873 2289 863Q2289 835 2296.0 807.5Q2303 780 2307 752L2329 586Q2332 565 2336.0 544.5Q2340 524 2340 503V322Q2340 308 2330.0 298.0Q2320 288 2306 288Z" style="fill:#f2f2f2;stroke:none" transform="scale(1,-1) translate(0,-256)" /></svg>