<?xml version="1.0" encoding="utf-8" ?>
<svg baseProfile="full" height="256" version="1.1" width="256" xmlns="http://www.w3.org/2000/svg" xmlns:ev="http://www.w3.org/2001/xml-events" xmlns:xlink="http://www.w3.org/1999/xlink"><defs /><path d="M759 -431V-287H543Q484 -287 431.5 -264.5Q379 -242 340.0 -203.0Q301 -164 278.5 -111.5Q256 -59 256 0V1581Q256 1639 279.0 1691.5Q302 1744 341.0 1783.5Q380 1823 432.0 1846.0Q484 1869 543 1869H2268Q2328 1869 2380.5 1846.5Q2433 1824 2472.0 1785.0Q2511 1746 2533.5 1693.5Q2556 1641 2556 1581V0Q2556 -59 2533.0 -111.0Q2510 -163 2470.5 -202.0Q2431 -241 2378.5 -264.0Q2326 -287 2268 -287H2053V-431Z" style="fill:#000000;stroke:none" transform="scale(1,-1) translate(0,-256)" /></svg>