<?xml version="1.0" encoding="utf-8" ?>
<svg baseProfile="full" height="256" version="1.1" width="256" xmlns="http://www.w3.org/2000/svg" xmlns:ev="http://www.w3.org/2001/xml-events" xmlns:xlink="http://www.w3.org/1999/xlink"><defs /><path d="M2197 1438Q2197 1408 2185.5 1382.0Q2174 1356 2154.5 1336.5Q2135 1317 2109.0 1305.5Q2083 1294 2053 1294Q2023 1294 1996.5 1305.0Q1970 1316 1950.5 1335.5Q1931 1355 1920.0 1381.5Q1909 1408 1909 1438ZM1262 1438H1550Q1550 1408 1538.5 1382.0Q1527 1356 1507.5 1336.5Q1488 1317 1462.0 1305.5Q1436 1294 1406 1294Q1376 1294 1350.0 1305.5Q1324 1317 1304.5 1336.5Q1285 1356 1273.5 1382.0Q1262 1408 1262 1438ZM615 1438H903Q903 1408 891.5 1382.0Q880 1356 860.5 1336.5Q841 1317 815.0 1305.5Q789 1294 759 1294Q729 1294 703.0 1305.5Q677 1317 657.5 1336.5Q638 1356 626.5 1382.0Q615 1408 615 1438Z" style="fill:#886ce4;stroke:none" transform="scale(1,-1) translate(0,-256)" /></svg>