<?xml version="1.0" encoding="utf-8" ?>
<svg baseProfile="full" height="256" version="1.1" width="256" xmlns="http://www.w3.org/2000/svg" xmlns:ev="http://www.w3.org/2001/xml-events" xmlns:xlink="http://www.w3.org/1999/xlink"><defs /><path d="M1838 719Q1838 615 1798.5 523.0Q1759 431 1690.5 363.0Q1622 295 1530.5 255.5Q1439 216 1335 216Q1231 216 1139.0 255.5Q1047 295 979.0 363.0Q911 431 871.5 523.0Q832 615 832 719Q832 823 871.5 914.5Q911 1006 979.0 1074.5Q1047 1143 1139.0 1182.5Q1231 1222 1335 1222Q1439 1222 1530.5 1182.5Q1622 1143 1690.5 1074.5Q1759 1006 1798.5 914.5Q1838 823 1838 719Z" style="fill:#fce100;stroke:none" transform="scale(1,-1) translate(0,-256)" /></svg>