<?xml version="1.0" encoding="utf-8" ?>
<svg baseProfile="full" height="256" version="1.1" width="256" xmlns="http://www.w3.org/2000/svg" xmlns:ev="http://www.w3.org/2001/xml-events" xmlns:xlink="http://www.w3.org/1999/xlink"><defs /><path d="M2198 791Q2243 791 2282.0 774.0Q2321 757 2350.0 727.5Q2379 698 2396.0 659.0Q2413 620 2413 575Q2413 530 2396.0 491.0Q2379 452 2350.0 423.0Q2321 394 2282.0 377.0Q2243 360 2198 360H1407Q1347 360 1295.0 382.5Q1243 405 1204.0 444.0Q1165 483 1142.5 535.0Q1120 587 1120 647Q1120 707 1142.5 759.5Q1165 812 1204.0 851.0Q1243 890 1295.0 912.5Q1347 935 1407 935Q1456 935 1502 918Q1522 970 1556.0 1013.0Q1590 1056 1634.0 1086.5Q1678 1117 1730.0 1133.5Q1782 1150 1838 1150Q1912 1150 1977.5 1122.0Q2043 1094 2092.0 1045.0Q2141 996 2169.5 931.0Q2198 866 2198 791Z" style="fill:#ffffff;stroke:none" transform="scale(1,-1) translate(0,-256)" /></svg>