<?xml version="1.0" encoding="utf-8" ?>
<svg baseProfile="full" height="256" version="1.1" width="256" xmlns="http://www.w3.org/2000/svg" xmlns:ev="http://www.w3.org/2001/xml-events" xmlns:xlink="http://www.w3.org/1999/xlink"><defs /><path d="M1967 88 1648 194 1634 186 1566 -144 1343 108H1327L1104 -144L1037 186L1023 194L704 88L810 406L802 420L473 488L724 711V727L473 950L802 1017L810 1031L704 1350L1023 1244L1037 1252L1104 1581L1327 1330H1343L1566 1581L1634 1252L1648 1244L1967 1350L1860 1031Q1903 960 1924.5 880.5Q1946 801 1946 719Q1946 636 1924.0 556.5Q1902 477 1860 406Z" style="fill:#ffb900;stroke:none" transform="scale(1,-1) translate(0,-256)" /></svg>