<?xml version="1.0" encoding="utf-8" ?>
<svg baseProfile="full" height="256" version="1.1" width="256" xmlns="http://www.w3.org/2000/svg" xmlns:ev="http://www.w3.org/2001/xml-events" xmlns:xlink="http://www.w3.org/1999/xlink"><defs /><path d="M1335 -100 1128 -333Q1104 -360 1068 -360Q1039 -360 1017.0 -342.5Q995 -325 989 -296L926 10Q914 6 888.0 -3.0Q862 -12 828.5 -23.5Q795 -35 759.0 -47.5Q723 -60 691.5 -70.0Q660 -80 636.0 -86.5Q612 -93 604 -93Q571 -93 547.5 -69.0Q524 -45 524 -12Q524 -4 530.5 20.0Q537 44 547.0 76.0Q557 108 569.0 144.0Q581 180 592.5 213.0Q604 246 613.0 272.0Q622 298 626 310L321 372Q292 378 274.0 400.5Q256 423 256 452Q256 488 283 512L517 719L283 926Q256 950 256 986Q256 1015 274.0 1037.5Q292 1060 321 1066L626 1128Q622 1140 613.0 1166.0Q604 1192 592.5 1225.5Q581 1259 569.0 1295.0Q557 1331 547.0 1362.5Q537 1394 530.5 1418.0Q524 1442 524 1450Q524 1483 547.5 1507.0Q571 1531 604 1531Q612 1531 636.0 1524.5Q660 1518 691.5 1508.0Q723 1498 759.0 1485.5Q795 1473 828.5 1461.5Q862 1450 888.0 1441.0Q914 1432 926 1428L989 1734Q995 1763 1017.0 1780.5Q1039 1798 1068 1798Q1104 1798 1128 1771L1335 1538L1542 1771Q1566 1798 1603 1798Q1632 1798 1654.0 1780.0Q1676 1762 1682 1733L1745 1428Q1757 1432 1783.0 1441.0Q1809 1450 1842.5 1461.5Q1876 1473 1912.0 1485.5Q1948 1498 1979.5 1508.0Q2011 1518 2035.0 1524.5Q2059 1531 2067 1531Q2100 1531 2123.5 1507.0Q2147 1483 2147 1450Q2147 1438 2138.0 1408.0Q2129 1378 2117.5 1344.0Q2106 1310 2095.0 1278.5Q2084 1247 2079 1232Q2173 1181 2237.5 1097.5Q2302 1014 2327 910Q2379 890 2421.5 856.0Q2464 822 2494.0 778.0Q2524 734 2540.5 682.0Q2557 630 2557 575Q2557 498 2526.5 432.5Q2496 367 2444.0 319.0Q2392 271 2324.0 243.5Q2256 216 2181 216H2075Q2078 206 2085.0 187.5Q2092 169 2100.0 146.5Q2108 124 2116.5 99.5Q2125 75 2131.5 53.0Q2138 31 2142.5 13.5Q2147 -4 2147 -12Q2147 -45 2123.5 -69.0Q2100 -93 2067 -93Q2059 -93 2035.0 -86.5Q2011 -80 1979.5 -70.0Q1948 -60 1912.0 -47.5Q1876 -35 1842.5 -23.5Q1809 -12 1783.0 -3.0Q1757 6 1745 10L1682 -296Q1676 -325 1654.0 -342.5Q1632 -360 1603 -360Q1566 -360 1542 -333Z" style="fill:#000000;stroke:none" transform="scale(1,-1) translate(0,-256)" /></svg>