<?xml version="1.0" encoding="utf-8" ?>
<svg baseProfile="full" height="256" version="1.1" width="256" xmlns="http://www.w3.org/2000/svg" xmlns:ev="http://www.w3.org/2001/xml-events" xmlns:xlink="http://www.w3.org/1999/xlink"><defs /><path d="M1478 746Q1431 746 1388.5 733.5Q1346 721 1308.0 698.0Q1270 675 1237.5 643.5Q1205 612 1180 575H1534L1239 527Q1217 524 1199.5 520.5Q1182 517 1165.0 513.5Q1148 510 1130.5 507.5Q1113 505 1091 503Q1080 502 1071.0 501.5Q1062 501 1054 501Q1037 501 1020.5 502.0Q1004 503 983 503H767Q729 503 699.0 480.0Q669 457 661 419L616 216H795Q830 216 858.5 195.0Q887 174 898 141Q883 144 867 144Q844 144 818 136Q808 144 795 144H600L543 -115L479 -72L591 434Q598 465 614.5 491.0Q631 517 654.5 535.5Q678 554 706.5 564.5Q735 575 767 575H829L1105 661Q1138 706 1179.5 743.0Q1221 780 1268.0 807.0Q1315 834 1368.0 848.5Q1421 863 1478 863Q1538 863 1595.0 845.5Q1652 828 1703 796L1659 690Q1618 716 1572.0 731.0Q1526 746 1478 746Z" style="fill:#b4009e;stroke:none" transform="scale(1,-1) translate(0,-256)" /></svg>