<?xml version="1.0" encoding="utf-8" ?>
<svg baseProfile="full" height="256" version="1.1" width="256" xmlns="http://www.w3.org/2000/svg" xmlns:ev="http://www.w3.org/2001/xml-events" xmlns:xlink="http://www.w3.org/1999/xlink"><defs /><path d="M1981 791Q2050 791 2109.0 768.0Q2168 745 2215.5 705.5Q2263 666 2300.0 613.5Q2337 561 2361.5 501.0Q2386 441 2399.0 377.0Q2412 313 2412 252Q2412 191 2399.5 127.0Q2387 63 2362.0 3.0Q2337 -57 2300.5 -109.5Q2264 -162 2216.0 -201.5Q2168 -241 2109.0 -264.0Q2050 -287 1981 -287Q1912 -287 1853.0 -264.0Q1794 -241 1746.0 -201.5Q1698 -162 1661.5 -109.5Q1625 -57 1600.0 3.0Q1575 63 1562.5 127.0Q1550 191 1550 252Q1550 313 1563.0 377.0Q1576 441 1600.5 501.0Q1625 561 1662.0 613.5Q1699 666 1746.5 705.5Q1794 745 1853.0 768.0Q1912 791 1981 791ZM1981 -179Q2062 -179 2122.5 -137.5Q2183 -96 2223.5 -32.5Q2264 31 2284.0 107.0Q2304 183 2304 252Q2304 321 2284.0 397.0Q2264 473 2223.5 536.5Q2183 600 2122.5 641.5Q2062 683 1981 683Q1900 683 1839.5 641.5Q1779 600 1738.5 536.5Q1698 473 1678.0 397.0Q1658 321 1658 252Q1658 183 1678.0 107.0Q1698 31 1738.5 -32.5Q1779 -96 1839.5 -137.5Q1900 -179 1981 -179ZM1329 141Q1365 133 1393.0 112.0Q1421 91 1439.5 61.5Q1458 32 1468.0 -3.0Q1478 -38 1478 -72Q1478 -110 1465.5 -148.5Q1453 -187 1430.0 -218.0Q1407 -249 1373.5 -268.0Q1340 -287 1298 -287Q1256 -287 1222.5 -268.0Q1189 -249 1166.0 -218.0Q1143 -187 1130.5 -148.5Q1118 -110 1118 -72Q1118 -40 1126.5 -7.5Q1135 25 1151.5 53.0Q1168 81 1192.5 103.0Q1217 125 1249 136Q1262 125 1262 108V64Q1262 62 1260.0 51.0Q1258 40 1255.0 24.0Q1252 8 1248.0 -11.0Q1244 -30 1241.0 -47.0Q1238 -64 1235.5 -77.0Q1233 -90 1232 -94Q1232 -101 1242.5 -110.0Q1253 -119 1266.5 -126.5Q1280 -134 1293.5 -139.0Q1307 -144 1313 -144Q1320 -144 1328.0 -136.0Q1336 -128 1343.5 -117.5Q1351 -107 1356.0 -95.5Q1361 -84 1361 -76Q1354 -41 1346.5 -6.0Q1339 29 1334 64Q1333 69 1333.0 75.0Q1333 81 1333 86V107Q1333 125 1329 141ZM2053 252Q2053 237 2049.0 218.0Q2045 199 2036.0 182.5Q2027 166 2013.5 155.0Q2000 144 1981 144Q1962 144 1948.5 155.0Q1935 166 1926.0 182.5Q1917 199 1913.0 218.0Q1909 237 1909 252Q1909 267 1913.0 286.0Q1917 305 1926.0 321.5Q1935 338 1948.5 349.0Q1962 360 1981 360Q2000 360 2013.5 349.0Q2027 338 2036.0 321.5Q2045 305 2049.0 286.0Q2053 267 2053 252Z" style="fill:#757575;stroke:none" transform="scale(1,-1) translate(0,-256)" /></svg>