<?xml version="1.0" encoding="utf-8" ?>
<svg baseProfile="full" height="256" version="1.1" width="256" xmlns="http://www.w3.org/2000/svg" xmlns:ev="http://www.w3.org/2001/xml-events" xmlns:xlink="http://www.w3.org/1999/xlink"><defs /><path d="M1981 719Q2040 719 2089.5 698.5Q2139 678 2178.5 643.0Q2218 608 2248.5 562.0Q2279 516 2299.0 464.0Q2319 412 2329.5 357.5Q2340 303 2340 252Q2340 201 2330.0 146.5Q2320 92 2299.5 40.0Q2279 -12 2249.0 -58.0Q2219 -104 2179.0 -139.0Q2139 -174 2089.5 -194.5Q2040 -215 1981 -215Q1922 -215 1872.5 -194.5Q1823 -174 1783.0 -139.0Q1743 -104 1713.0 -58.0Q1683 -12 1662.5 40.0Q1642 92 1632.0 146.5Q1622 201 1622 252Q1622 303 1632.5 357.5Q1643 412 1663.0 464.0Q1683 516 1713.5 562.0Q1744 608 1783.5 643.0Q1823 678 1872.5 698.5Q1922 719 1981 719ZM1981 -144Q2029 -144 2069.5 -126.0Q2110 -108 2142.0 -77.5Q2174 -47 2197.5 -7.5Q2221 32 2236.5 76.0Q2252 120 2260.0 165.5Q2268 211 2268 252Q2268 293 2260.0 338.0Q2252 383 2236.5 427.0Q2221 471 2197.5 511.0Q2174 551 2142.0 581.0Q2110 611 2069.5 629.0Q2029 647 1981 647Q1932 647 1892.0 629.0Q1852 611 1820.0 581.0Q1788 551 1764.0 511.0Q1740 471 1724.5 427.0Q1709 383 1701.0 338.0Q1693 293 1693 252Q1693 211 1701.0 165.5Q1709 120 1724.5 76.0Q1740 32 1764.0 -7.5Q1788 -47 1820.0 -77.5Q1852 -108 1892.0 -126.0Q1932 -144 1981 -144ZM1334 64Q1370 45 1388.0 6.0Q1406 -33 1406 -72Q1406 -95 1399.0 -120.0Q1392 -145 1378.5 -166.0Q1365 -187 1345.0 -201.0Q1325 -215 1298 -215Q1272 -215 1251.5 -201.0Q1231 -187 1217.5 -166.0Q1204 -145 1197.0 -120.0Q1190 -95 1190 -72Q1190 -33 1208.0 6.0Q1226 45 1262 64V-72Q1262 -87 1272.5 -97.5Q1283 -108 1298 -108Q1313 -108 1323.5 -97.5Q1334 -87 1334 -72Z" style="fill:#cccccc;stroke:none" transform="scale(1,-1) translate(0,-256)" /></svg>