<?xml version="1.0" encoding="utf-8" ?>
<svg baseProfile="full" height="256" version="1.1" width="256" xmlns="http://www.w3.org/2000/svg" xmlns:ev="http://www.w3.org/2001/xml-events" xmlns:xlink="http://www.w3.org/1999/xlink"><defs /><path d="M1981 -431Q1915 -431 1850.5 -413.5Q1786 -396 1729 -363Q1672 -396 1608.0 -413.5Q1544 -431 1478 -431Q1429 -431 1377 -420Q1336 -431 1298 -431Q1237 -431 1181.5 -406.5Q1126 -382 1083 -339Q1039 -382 984.0 -406.5Q929 -431 867 -431Q787 -431 720.0 -392.0Q653 -353 609 -287H256V72H363L451 466Q461 514 484.5 555.0Q508 596 541.5 628.5Q575 661 617.0 683.0Q659 705 707 714Q738 782 800.0 822.5Q862 863 937 863H1099Q1147 904 1202.5 934.5Q1258 965 1319 982L1348 1181Q1354 1220 1373.0 1254.0Q1392 1288 1420.5 1313.0Q1449 1338 1485.0 1352.0Q1521 1366 1561 1366H2082Q2121 1366 2155.0 1351.0Q2189 1336 2214.5 1310.5Q2240 1285 2254.5 1251.0Q2269 1217 2269 1178Q2269 1172 2268.5 1166.0Q2268 1160 2267 1154L2232 911Q2261 880 2277 838Q2346 788 2398.5 722.0Q2451 656 2486.0 579.5Q2521 503 2538.5 419.5Q2556 336 2556 252Q2556 170 2538.0 88.0Q2520 6 2486.0 -70.0Q2452 -146 2402.5 -212.0Q2353 -278 2289.0 -326.5Q2225 -375 2147.5 -403.0Q2070 -431 1981 -431Z" style="fill:#000000;stroke:none" transform="scale(1,-1) translate(0,-256)" /></svg>