<?xml version="1.0" encoding="utf-8" ?>
<svg baseProfile="full" height="256" version="1.1" width="256" xmlns="http://www.w3.org/2000/svg" xmlns:ev="http://www.w3.org/2001/xml-events" xmlns:xlink="http://www.w3.org/1999/xlink"><defs /><path d="M2082 838Q2108 827 2127.5 812.5Q2147 798 2147 763Q2147 744 2138.5 725.5Q2130 707 2123 690Q2093 709 2060 723L1997 283Q1995 269 1985.0 260.5Q1975 252 1961 252Q1945 252 1935.0 262.5Q1925 273 1925 289Q1925 302 1929.0 331.5Q1933 361 1938.0 393.5Q1943 426 1948.0 456.5Q1953 487 1955 503H1198Q1160 503 1130.5 480.0Q1101 457 1093 419L1047 216H1226Q1254 216 1279.0 202.0Q1304 188 1318 164Q1322 159 1324.0 152.5Q1326 146 1329 141Q1335 130 1341.5 119.5Q1348 109 1355 98L1369 -88L1298 -133L1232 -92V-78Q1232 -57 1233.0 -27.0Q1234 3 1235.5 34.0Q1237 65 1240.5 92.5Q1244 120 1249 136Q1239 144 1226 144H1032L974 -115Q971 -127 961.5 -135.5Q952 -144 939 -144H400V-72H910L1022 434Q1029 465 1045.5 491.0Q1062 517 1085.5 535.5Q1109 554 1137.5 564.5Q1166 575 1198 575H1515Q1546 636 1590.0 688.5Q1634 741 1688.5 780.0Q1743 819 1806.5 841.0Q1870 863 1941 863Q1957 863 1973.0 861.5Q1989 860 2005 858L2058 1222Q2069 1222 2081.0 1221.0Q2093 1220 2102.5 1216.0Q2112 1212 2118.5 1203.5Q2125 1195 2125 1180L2077 840ZM1989 742Q1977 744 1965.0 745.0Q1953 746 1941 746Q1894 746 1851.5 733.0Q1809 720 1771.5 697.5Q1734 675 1701.5 643.5Q1669 612 1643 575H1965Z" style="fill:#c239b3;stroke:none" transform="scale(1,-1) translate(0,-256)" /></svg>