<?xml version="1.0" encoding="utf-8" ?>
<svg baseProfile="full" height="256" version="1.1" width="256" xmlns="http://www.w3.org/2000/svg" xmlns:ev="http://www.w3.org/2001/xml-events" xmlns:xlink="http://www.w3.org/1999/xlink"><defs /><path d="M1981 216H1908Q1903 128 1872.0 38.5Q1841 -51 1786.5 -123.5Q1732 -196 1654.0 -241.5Q1576 -287 1478 -287Q1409 -287 1350.0 -264.0Q1291 -241 1243.0 -201.5Q1195 -162 1158.5 -109.5Q1122 -57 1097.0 3.0Q1072 63 1059.5 127.0Q1047 191 1047 252Q1047 313 1060.0 377.0Q1073 441 1097.5 501.0Q1122 561 1159.0 613.5Q1196 666 1243.5 705.5Q1291 745 1350.0 768.0Q1409 791 1478 791Q1576 791 1654.0 745.5Q1732 700 1786.5 627.5Q1841 555 1872.0 465.5Q1903 376 1908 288H1981ZM1764 288Q1760 346 1740.5 409.5Q1721 473 1685.0 525.5Q1649 578 1597.0 612.5Q1545 647 1478 647Q1429 647 1389.0 629.0Q1349 611 1317.0 581.0Q1285 551 1261.0 511.0Q1237 471 1221.5 427.0Q1206 383 1198.0 338.0Q1190 293 1190 252Q1190 211 1198.0 165.5Q1206 120 1221.5 76.0Q1237 32 1261.0 -7.5Q1285 -47 1317.0 -77.5Q1349 -108 1389.0 -126.0Q1429 -144 1478 -144Q1545 -144 1597.0 -109.5Q1649 -75 1685.0 -22.0Q1721 31 1740.5 94.5Q1760 158 1764 216H1546Q1543 204 1537.5 191.0Q1532 178 1523.5 167.5Q1515 157 1503.5 150.5Q1492 144 1478 144Q1459 144 1445.5 155.0Q1432 166 1423.0 182.5Q1414 199 1410.0 218.0Q1406 237 1406 252Q1406 267 1410.0 286.0Q1414 305 1423.0 321.5Q1432 338 1445.5 349.0Q1459 360 1478 360Q1492 360 1503.5 353.0Q1515 346 1523.5 335.5Q1532 325 1537.5 312.5Q1543 300 1546 288ZM850 161Q861 161 874.0 153.0Q887 145 898 141Q910 136 921.0 133.0Q932 130 944 123Q969 109 988.5 87.5Q1008 66 1021.0 40.0Q1034 14 1040.5 -15.0Q1047 -44 1047 -72Q1047 -110 1034.5 -148.5Q1022 -187 999.0 -218.0Q976 -249 942.5 -268.0Q909 -287 867 -287Q825 -287 791.5 -268.0Q758 -249 735.0 -218.0Q712 -187 699.5 -148.5Q687 -110 687 -72Q687 -40 695.5 -7.5Q704 25 720.5 53.5Q737 82 761.5 103.5Q786 125 818 136Q822 144 831.5 152.5Q841 161 850 161Z" style="fill:#474747;stroke:none" transform="scale(1,-1) translate(0,-256)" /></svg>