<?xml version="1.0" encoding="utf-8" ?>
<svg baseProfile="full" height="256" version="1.1" width="256" xmlns="http://www.w3.org/2000/svg" xmlns:ev="http://www.w3.org/2001/xml-events" xmlns:xlink="http://www.w3.org/1999/xlink"><defs /><path d="M1334 863Q1364 863 1390.0 851.5Q1416 840 1435.5 820.5Q1455 801 1466.5 775.0Q1478 749 1478 719Q1478 689 1466.5 663.0Q1455 637 1435.5 617.5Q1416 598 1390.0 586.5Q1364 575 1334 575Q1304 575 1278.0 586.5Q1252 598 1232.5 617.5Q1213 637 1201.5 663.0Q1190 689 1190 719Q1190 749 1201.5 775.0Q1213 801 1232.5 820.5Q1252 840 1278.0 851.5Q1304 863 1334 863Z" style="fill:#000000;stroke:none" transform="scale(1,-1) translate(0,-256)" /></svg>