<?xml version="1.0" encoding="utf-8" ?>
<svg baseProfile="full" height="256" version="1.1" width="256" xmlns="http://www.w3.org/2000/svg" xmlns:ev="http://www.w3.org/2001/xml-events" xmlns:xlink="http://www.w3.org/1999/xlink"><defs /><path d="M2340 1095H2194L2125 1150V1365H1406Q1376 1365 1350.0 1354.0Q1324 1343 1304.5 1323.5Q1285 1304 1273.5 1278.0Q1262 1252 1262 1222V898Q1262 869 1240.5 847.5Q1219 826 1190 826Q1161 826 1139.5 847.5Q1118 869 1118 898V1222Q1118 1282 1140.5 1334.0Q1163 1386 1202.0 1425.0Q1241 1464 1293.5 1486.5Q1346 1509 1406 1509H2340ZM400 862Q430 862 456.0 851.0Q482 840 501.5 820.5Q521 801 532.0 775.0Q543 749 543 719Q543 669 558.0 629.5Q573 590 601.5 561.5Q630 533 669.5 518.0Q709 503 759 503H1025V359H759Q681 359 615.5 386.0Q550 413 502.0 461.0Q454 509 427.0 575.0Q400 641 400 719Z" style="fill:#a6a6a6;stroke:none" transform="scale(1,-1) translate(0,-256)" /></svg>