<?xml version="1.0" encoding="utf-8" ?>
<svg baseProfile="full" height="256" version="1.1" width="256" xmlns="http://www.w3.org/2000/svg" xmlns:ev="http://www.w3.org/2001/xml-events" xmlns:xlink="http://www.w3.org/1999/xlink"><defs /><path d="M2340 647Q2370 647 2391.0 626.0Q2412 605 2412 575V503Q2412 533 2391.0 554.0Q2370 575 2340 575H975Q946 575 920.0 564.5Q894 554 874.5 535.0Q855 516 843.5 491.0Q832 466 831 437V503Q831 533 842.0 559.0Q853 585 872.5 604.5Q892 624 918.5 635.5Q945 647 975 647ZM2340 790Q2369 790 2390.5 769.0Q2412 748 2412 719V647Q2412 676 2390.5 697.5Q2369 719 2340 719H975Q946 719 920.5 708.0Q895 697 875.5 678.5Q856 660 844.0 634.5Q832 609 831 581V647Q831 677 842.5 703.0Q854 729 873.5 748.5Q893 768 919.0 779.0Q945 790 975 790Z" style="fill:#bb9167;stroke:none" transform="scale(1,-1) translate(0,-256)" /></svg>