<?xml version="1.0" encoding="utf-8" ?>
<svg baseProfile="full" height="256" version="1.1" width="256" xmlns="http://www.w3.org/2000/svg" xmlns:ev="http://www.w3.org/2001/xml-events" xmlns:xlink="http://www.w3.org/1999/xlink"><defs /><path d="M2340 935Q2369 935 2390.5 913.5Q2412 892 2412 863V719H2400Q2400 717 2402.0 708.5Q2404 700 2406.5 690.5Q2409 681 2410.5 673.0Q2412 665 2412 664V575H2397Q2397 573 2399.5 564.5Q2402 556 2405.0 546.0Q2408 536 2410.0 528.0Q2412 520 2412 520V360H1844Q1802 365 1768.0 368.5Q1734 372 1702.0 374.0Q1670 376 1636.0 377.0Q1602 378 1560 378Q1524 378 1495.0 375.0Q1466 372 1438.5 367.5Q1411 363 1382.0 357.5Q1353 352 1317 348L831 288V452Q831 463 834.5 478.0Q838 493 840 504L831 503V597Q831 607 833.5 618.5Q836 630 838 640L831 647V791Q831 821 842.5 847.0Q854 873 873.5 892.5Q893 912 919.0 923.5Q945 935 975 935Z" style="fill:#d8b094;stroke:none" transform="scale(1,-1) translate(0,-256)" /></svg>