<?xml version="1.0" encoding="utf-8" ?>
<svg baseProfile="full" height="256" version="1.1" width="256" xmlns="http://www.w3.org/2000/svg" xmlns:ev="http://www.w3.org/2001/xml-events" xmlns:xlink="http://www.w3.org/1999/xlink"><defs /><path d="M2125 0H2412V-144H759Q682 -144 616.0 -117.0Q550 -90 502.0 -42.0Q454 6 427.0 71.5Q400 137 400 215V359Q430 359 456.0 348.0Q482 337 501.5 317.5Q521 298 532.0 272.0Q543 246 543 216Q543 166 558.0 126.5Q573 87 601.5 58.5Q630 30 669.5 15.0Q709 0 759 0H1118V288H1262V0H1981V288H2125ZM2340 1509Q2370 1509 2391.0 1488.0Q2412 1467 2412 1437V1078Q2412 1053 2402.5 1039.0Q2393 1025 2378.0 1017.5Q2363 1010 2344.0 1008.0Q2325 1006 2306 1006H2268V539Q2268 510 2247.0 488.5Q2226 467 2197 467Q2167 467 2146.0 488.0Q2125 509 2125 539V1006H1406Q1376 1006 1349.5 994.5Q1323 983 1303.5 963.5Q1284 944 1273.0 918.0Q1262 892 1262 862V539Q1262 509 1241.0 488.0Q1220 467 1190 467Q1161 467 1139.5 488.5Q1118 510 1118 539V862Q1118 922 1140.5 974.5Q1163 1027 1202.0 1066.0Q1241 1105 1293.5 1127.5Q1346 1150 1406 1150H2268V1437Q2268 1466 2289.5 1487.5Q2311 1509 2340 1509Z" style="fill:#e5e5e5;stroke:none" transform="scale(1,-1) translate(0,-256)" /></svg>