<?xml version="1.0" encoding="utf-8" ?>
<svg baseProfile="full" height="256" version="1.1" width="256" xmlns="http://www.w3.org/2000/svg" xmlns:ev="http://www.w3.org/2001/xml-events" xmlns:xlink="http://www.w3.org/1999/xlink"><defs /><path d="M2340 1653Q2385 1653 2424.0 1636.0Q2463 1619 2492.5 1590.0Q2522 1561 2539.0 1522.0Q2556 1483 2556 1438V360Q2556 316 2540.0 277.5Q2524 239 2496.0 210.0Q2468 181 2430.0 163.0Q2392 145 2349 144H2556V-287H759Q651 -287 559.0 -249.0Q467 -211 399.5 -143.5Q332 -76 294.0 16.0Q256 108 256 216V1006H400Q459 1006 511.5 983.5Q564 961 603.0 922.0Q642 883 664.5 830.5Q687 778 687 719V791Q687 851 710.0 903.0Q733 955 772.0 994.0Q811 1033 863.5 1055.5Q916 1078 975 1078V1222Q975 1311 1009.0 1389.5Q1043 1468 1101.5 1526.5Q1160 1585 1238.5 1619.0Q1317 1653 1406 1653Z" style="fill:#000000;stroke:none" transform="scale(1,-1) translate(0,-256)" /></svg>