<?xml version="1.0" encoding="utf-8" ?>
<svg baseProfile="full" height="256" version="1.1" width="256" xmlns="http://www.w3.org/2000/svg" xmlns:ev="http://www.w3.org/2001/xml-events" xmlns:xlink="http://www.w3.org/1999/xlink"><defs /><path d="M759 791V575Q759 486 782.0 403.0Q805 320 847.5 248.5Q890 177 949.0 118.0Q1008 59 1079.5 16.5Q1151 -26 1234.0 -49.0Q1317 -72 1406 -72Q1495 -72 1578.0 -49.0Q1661 -26 1732.5 16.5Q1804 59 1863.0 118.0Q1922 177 1964.5 248.5Q2007 320 2030.0 403.0Q2053 486 2053 575V791H2197V575Q2197 467 2166.5 361.0Q2136 255 2079.5 161.5Q2023 68 1943.0 -7.5Q1863 -83 1764 -130Q1735 -144 1688.0 -152.0Q1641 -160 1589.0 -164.0Q1537 -168 1487.5 -169.5Q1438 -171 1406 -171Q1384 -171 1354.5 -170.5Q1325 -170 1291.5 -168.5Q1258 -167 1223.0 -164.0Q1188 -161 1155.5 -156.5Q1123 -152 1095.0 -145.5Q1067 -139 1048 -130Q949 -83 869.0 -7.5Q789 68 732.5 161.5Q676 255 645.5 361.0Q615 467 615 575V791Z" style="fill:#757575;stroke:none" transform="scale(1,-1) translate(0,-256)" /></svg>