<?xml version="1.0" encoding="utf-8" ?>
<svg baseProfile="full" height="256" version="1.1" width="256" xmlns="http://www.w3.org/2000/svg" xmlns:ev="http://www.w3.org/2001/xml-events" xmlns:xlink="http://www.w3.org/1999/xlink"><defs /><path d="M2197 863Q2305 863 2358.5 809.5Q2412 756 2412 650H400Q400 756 453.5 809.5Q507 863 615 863V1150Q615 1225 643.5 1290.5Q672 1356 720.5 1404.5Q769 1453 834.5 1481.5Q900 1510 975 1510Q1011 1510 1046.5 1510.5Q1082 1511 1118 1514L1190 1653H1622L1693 1522Q1729 1513 1764.5 1511.5Q1800 1510 1837 1510Q1912 1510 1977.5 1481.5Q2043 1453 2091.5 1404.5Q2140 1356 2168.5 1290.5Q2197 1225 2197 1150Z" style="fill:#f03a17;stroke:none" transform="scale(1,-1) translate(0,-256)" /></svg>