<?xml version="1.0" encoding="utf-8" ?>
<svg baseProfile="full" height="256" version="1.1" width="256" xmlns="http://www.w3.org/2000/svg" xmlns:ev="http://www.w3.org/2001/xml-events" xmlns:xlink="http://www.w3.org/1999/xlink"><defs /><path d="M2340 984Q2396 964 2436.5 930.5Q2477 897 2503.5 853.0Q2530 809 2543.0 756.5Q2556 704 2556 647V503H2338Q2328 382 2289.0 271.0Q2250 160 2187.0 64.0Q2124 -32 2039.0 -110.0Q1954 -188 1853.5 -243.5Q1753 -299 1640.0 -329.0Q1527 -359 1406 -359Q1285 -359 1172.0 -329.0Q1059 -299 958.5 -243.5Q858 -188 773.0 -110.0Q688 -32 625.0 63.5Q562 159 522.5 270.5Q483 382 474 503H256V647Q256 704 269.0 756.5Q282 809 308.5 853.0Q335 897 375.5 930.5Q416 964 472 984V1150Q472 1258 512.5 1350.5Q553 1443 623.0 1510.0Q693 1577 786.5 1615.0Q880 1653 987 1653L1131 1797H1681L1825 1653Q1931 1653 2025.0 1615.0Q2119 1577 2189.0 1510.0Q2259 1443 2299.5 1350.5Q2340 1258 2340 1150ZM1406 72Q1499 72 1583.5 104.5Q1668 137 1735.0 195.0Q1802 253 1846.0 331.5Q1890 410 1904 503H908Q921 410 965.5 331.5Q1010 253 1077.0 195.0Q1144 137 1228.5 104.5Q1313 72 1406 72Z" style="fill:#000000;stroke:none" transform="scale(1,-1) translate(0,-256)" /></svg>