<?xml version="1.0" encoding="utf-8" ?>
<svg baseProfile="full" height="256" version="1.1" width="256" xmlns="http://www.w3.org/2000/svg" xmlns:ev="http://www.w3.org/2001/xml-events" xmlns:xlink="http://www.w3.org/1999/xlink"><defs /><path d="M1275 1725H1622V-287H1275Q1164 -181 1058.0 -73.0Q952 35 843 144H472Q427 144 388.0 161.0Q349 178 319.5 207.5Q290 237 273.0 276.0Q256 315 256 360V1078Q256 1123 273.0 1162.0Q290 1201 319.5 1230.5Q349 1260 388.0 1277.0Q427 1294 472 1294H843Q952 1403 1058.0 1511.0Q1164 1619 1275 1725Z" style="fill:#000000;stroke:none" transform="scale(1,-1) translate(0,-256)" /></svg>