<?xml version="1.0" encoding="utf-8" ?>
<svg baseProfile="full" height="256" version="1.1" width="256" xmlns="http://www.w3.org/2000/svg" xmlns:ev="http://www.w3.org/2001/xml-events" xmlns:xlink="http://www.w3.org/1999/xlink"><defs /><path d="M1174 222Q1174 214 1175.0 205.5Q1176 197 1176 189Q1176 181 1173.5 171.5Q1171 162 1160 162H1049Q1034 162 1034 176Q1034 230 1036.5 283.5Q1039 337 1039 391V498Q1039 535 1037.5 571.0Q1036 607 1036 644Q1036 657 1050 657Q1092 657 1133.0 655.0Q1174 653 1216 653H1606Q1648 653 1689.5 655.0Q1731 657 1773 657Q1787 657 1787 644Q1787 612 1785.5 579.5Q1784 547 1784 515V394Q1784 340 1785.5 288.0Q1787 236 1787 182Q1787 172 1785.0 170.0Q1783 168 1773 168H1662Q1653 168 1650.5 176.0Q1648 184 1648 195Q1648 203 1648.5 210.5Q1649 218 1649 222ZM1654 868V774Q1654 761 1641 761Q1606 761 1572.5 762.5Q1539 764 1504 764H1316Q1281 764 1247.5 762.5Q1214 761 1179 761Q1166 761 1166 774V868Q1156 862 1136.0 848.0Q1116 834 1091.0 817.5Q1066 801 1038.0 783.0Q1010 765 985.5 750.0Q961 735 942.0 725.5Q923 716 916 716Q913 716 909.5 720.0Q906 724 902.5 729.0Q899 734 896.5 739.0Q894 744 893 747Q881 770 864.5 790.0Q848 810 828 827Q874 847 926.0 875.0Q978 903 1030.0 937.0Q1082 971 1132.0 1011.0Q1182 1051 1224.0 1095.5Q1266 1140 1297.5 1188.0Q1329 1236 1345 1286Q1355 1284 1381.0 1279.5Q1407 1275 1434.5 1268.0Q1462 1261 1483.0 1251.5Q1504 1242 1504 1231Q1504 1224 1494.5 1218.5Q1485 1213 1480 1211Q1583 1080 1715.0 992.0Q1847 904 2002 847Q1982 824 1966.0 798.5Q1950 773 1939 745Q1939 739 1933.5 729.5Q1928 720 1920 720Q1912 720 1891.5 729.0Q1871 738 1844.5 752.5Q1818 767 1788.0 784.0Q1758 801 1731.0 817.5Q1704 834 1683.5 847.5Q1663 861 1654 868ZM1174 336H1649V539H1174ZM1632 885Q1567 932 1511.5 988.0Q1456 1044 1409 1109Q1361 1046 1306.5 989.5Q1252 933 1189 885Q1210 883 1231.5 882.5Q1253 882 1274 882Q1324 882 1373.0 881.0Q1422 880 1473 880Q1513 880 1552.5 881.0Q1592 882 1632 885Z" style="fill:#ffffff;stroke:none" transform="scale(1,-1) translate(0,-256)" /></svg>