<?xml version="1.0" encoding="utf-8" ?>
<svg baseProfile="full" height="256" version="1.1" width="256" xmlns="http://www.w3.org/2000/svg" xmlns:ev="http://www.w3.org/2001/xml-events" xmlns:xlink="http://www.w3.org/1999/xlink"><defs /><path d="M1622 360Q1622 329 1609.0 302.0Q1596 275 1575 254L1406 85V-287H615V85L446 254Q424 276 412.0 302.5Q400 329 400 360V791Q400 821 411.0 847.0Q422 873 441.5 892.5Q461 912 487.0 923.5Q513 935 543 935H615Q615 965 626.5 991.0Q638 1017 657.5 1036.5Q677 1056 703.0 1067.0Q729 1078 759 1078H831Q831 1078 836.0 1076.5Q841 1075 847.5 1073.0Q854 1071 859.5 1069.0Q865 1067 867 1067L903 1078V1617Q903 1639 911.5 1659.0Q920 1679 934.5 1693.5Q949 1708 968.5 1716.5Q988 1725 1011 1725Q1033 1725 1052.5 1716.5Q1072 1708 1086.5 1693.0Q1101 1678 1109.5 1658.5Q1118 1639 1118 1617V1078L1154 1069Q1169 1075 1185.0 1077.0Q1201 1079 1217 1079Q1228 1079 1239.5 1078.5Q1251 1078 1262 1078Q1292 1078 1318.0 1067.0Q1344 1056 1363.5 1036.5Q1383 1017 1394.5 991.0Q1406 965 1406 935H1478Q1508 935 1534.0 923.5Q1560 912 1579.5 892.5Q1599 873 1610.5 847.0Q1622 821 1622 791Z" style="fill:#ffc83d;stroke:none" transform="scale(1,-1) translate(0,-256)" /></svg>