<?xml version="1.0" encoding="utf-8" ?>
<svg baseProfile="full" height="256" version="1.1" width="256" xmlns="http://www.w3.org/2000/svg" xmlns:ev="http://www.w3.org/2001/xml-events" xmlns:xlink="http://www.w3.org/1999/xlink"><defs /><path d="M1765 791V360Q1765 296 1741.5 245.0Q1718 194 1673 149L1550 26V-431H472V25L344 153Q301 196 278.5 247.5Q256 299 256 360V791Q256 845 275.5 894.0Q295 943 329.0 981.5Q363 1020 409.5 1044.5Q456 1069 510 1075Q548 1144 614.5 1183.0Q681 1222 759 1222V1617Q759 1669 779.0 1715.0Q799 1761 833.0 1795.0Q867 1829 913.0 1849.0Q959 1869 1011 1869Q1063 1869 1108.5 1849.0Q1154 1829 1188.0 1794.5Q1222 1760 1242.0 1714.5Q1262 1669 1262 1617V1222Q1340 1222 1407.0 1183.5Q1474 1145 1512 1076Q1566 1070 1612.5 1045.0Q1659 1020 1692.5 981.5Q1726 943 1745.5 894.0Q1765 845 1765 791Z" style="fill:#000000;stroke:none" transform="scale(1,-1) translate(0,-256)" /></svg>