<?xml version="1.0" encoding="utf-8" ?>
<svg baseProfile="full" height="256" version="1.1" width="256" xmlns="http://www.w3.org/2000/svg" xmlns:ev="http://www.w3.org/2001/xml-events" xmlns:xlink="http://www.w3.org/1999/xlink"><defs /><path d="M1302 1797Q1363 1797 1421.5 1780.5Q1480 1764 1531.0 1733.0Q1582 1702 1624.0 1658.0Q1666 1614 1694 1559L2205 565Q2269 441 2269 301Q2269 185 2224.0 84.5Q2179 -16 2103.0 -93.0Q2027 -170 1926.5 -219.5Q1826 -269 1715 -282Q1684 -318 1641.0 -338.5Q1598 -359 1550 -359H975Q927 -359 884.0 -338.5Q841 -318 810 -282Q698 -269 597.5 -220.0Q497 -171 421.0 -94.0Q345 -17 300.5 84.0Q256 185 256 301Q256 441 320 565L831 1559Q859 1614 901.0 1658.5Q943 1703 994.0 1733.5Q1045 1764 1103.5 1780.5Q1162 1797 1224 1797Z" style="fill:#000000;stroke:none" transform="scale(1,-1) translate(0,-256)" /></svg>