<?xml version="1.0" encoding="utf-8" ?>
<svg baseProfile="full" height="256" version="1.1" width="256" xmlns="http://www.w3.org/2000/svg" xmlns:ev="http://www.w3.org/2001/xml-events" xmlns:xlink="http://www.w3.org/1999/xlink"><defs /><path d="M1302 1653Q1344 1653 1383.0 1642.0Q1422 1631 1456.5 1610.0Q1491 1589 1519.0 1559.5Q1547 1530 1566 1493L2077 499Q2100 453 2112.5 402.5Q2125 352 2125 300Q2125 202 2083.0 120.0Q2041 38 1971.5 -20.5Q1902 -79 1813.5 -111.5Q1725 -144 1632 -144H893Q800 -144 711.0 -111.5Q622 -79 553.0 -20.0Q484 39 442.0 120.5Q400 202 400 301Q400 352 412.5 402.5Q425 453 448 499L959 1493Q978 1530 1006.0 1559.5Q1034 1589 1068.5 1610.0Q1103 1631 1142.5 1642.0Q1182 1653 1224 1653Z" style="fill:#f2f2f2;stroke:none" transform="scale(1,-1) translate(0,-256)" /></svg>