<?xml version="1.0" encoding="utf-8" ?>
<svg baseProfile="full" height="256" version="1.1" width="256" xmlns="http://www.w3.org/2000/svg" xmlns:ev="http://www.w3.org/2001/xml-events" xmlns:xlink="http://www.w3.org/1999/xlink"><defs /><path d="M1227 863Q1212 863 1201.0 873.0Q1190 883 1190 898Q1190 913 1201 924L1273 996Q1283 1006 1298 1006Q1313 1006 1323.5 995.5Q1334 985 1334 970Q1334 955 1324 945L1252 873Q1242 863 1227 863ZM1298 1366Q1283 1366 1273 1376L1201 1448Q1190 1459 1190 1473Q1190 1487 1201.0 1498.0Q1212 1509 1226 1509Q1242 1509 1252 1499L1324 1427Q1334 1417 1334 1401Q1334 1386 1323.5 1376.0Q1313 1366 1298 1366ZM1802 -72Q1788 -72 1776.5 -61.5Q1765 -51 1765 -36Q1765 -21 1776 -10L1848 62Q1858 72 1873 72Q1888 72 1898.5 61.5Q1909 51 1909 36Q1909 21 1899 11L1827 -61Q1816 -72 1802 -72ZM1802 360Q1786 360 1776 370L1704 442Q1693 453 1693 467Q1693 481 1704.0 492.0Q1715 503 1729 503Q1745 503 1755 493L1827 421Q1837 411 1837 395Q1837 381 1826.5 370.5Q1816 360 1802 360Z" style="fill:#cccccc;stroke:none" transform="scale(1,-1) translate(0,-256)" /></svg>