<?xml version="1.0" encoding="utf-8" ?>
<svg baseProfile="full" height="256" version="1.1" width="256" xmlns="http://www.w3.org/2000/svg" xmlns:ev="http://www.w3.org/2001/xml-events" xmlns:xlink="http://www.w3.org/1999/xlink"><defs /><path d="M2556 719Q2556 606 2534.0 496.0Q2512 386 2469.5 283.5Q2427 181 2365.5 87.5Q2304 -6 2226 -87Q2247 -115 2257.5 -147.5Q2268 -180 2268 -215Q2268 -260 2251.0 -299.0Q2234 -338 2205.0 -367.5Q2176 -397 2137.0 -414.0Q2098 -431 2053 -431H759Q714 -431 675.0 -414.0Q636 -397 606.5 -367.5Q577 -338 560.0 -299.0Q543 -260 543 -215Q543 -144 586 -87Q506 -7 444.5 87.0Q383 181 341.0 283.5Q299 386 277.5 496.0Q256 606 256 719Q256 877 297.0 1024.0Q338 1171 413.0 1299.0Q488 1427 593.0 1532.0Q698 1637 826.0 1712.0Q954 1787 1100.5 1828.0Q1247 1869 1406 1869Q1564 1869 1711.0 1828.0Q1858 1787 1986.0 1712.0Q2114 1637 2219.0 1532.0Q2324 1427 2399.0 1299.0Q2474 1171 2515.0 1024.0Q2556 877 2556 719Z" style="fill:#000000;stroke:none" transform="scale(1,-1) translate(0,-256)" /></svg>