<?xml version="1.0" encoding="utf-8" ?>
<svg baseProfile="full" height="256" version="1.1" width="256" xmlns="http://www.w3.org/2000/svg" xmlns:ev="http://www.w3.org/2001/xml-events" xmlns:xlink="http://www.w3.org/1999/xlink"><defs /><path d="M1406 647Q1465 647 1517.5 624.5Q1570 602 1609.0 563.0Q1648 524 1670.5 471.5Q1693 419 1693 360L1729 324L1693 288Q1693 228 1670.5 175.5Q1648 123 1609.5 84.0Q1571 45 1518.5 22.5Q1466 0 1406 0Q1346 0 1293.5 22.5Q1241 45 1202.0 84.0Q1163 123 1140.5 175.5Q1118 228 1118 288L1084 324L1118 360Q1118 420 1140.5 472.0Q1163 524 1202.0 563.0Q1241 602 1293.5 624.5Q1346 647 1406 647ZM1550 791Q1550 836 1567.0 875.0Q1584 914 1613.0 943.0Q1642 972 1681.0 989.0Q1720 1006 1765 1006H1837Q1882 1006 1921.0 989.0Q1960 972 1989.5 943.0Q2019 914 2036.0 875.0Q2053 836 2053 791H1981L1693 863Q1680 866 1667.5 860.0Q1655 854 1645.0 843.0Q1635 832 1628.5 818.0Q1622 804 1622 791ZM759 791Q759 836 776.0 875.0Q793 914 822.5 943.0Q852 972 891.0 989.0Q930 1006 975 1006H1047Q1092 1006 1131.0 989.0Q1170 972 1199.0 943.0Q1228 914 1245.0 875.0Q1262 836 1262 791H1190Q1190 804 1183.5 818.5Q1177 833 1166.5 844.0Q1156 855 1143.5 860.5Q1131 866 1118 863L831 791Z" style="fill:#000000;stroke:none" transform="scale(1,-1) translate(0,-256)" /></svg>