<?xml version="1.0" encoding="utf-8" ?>
<svg baseProfile="full" height="256" version="1.1" width="256" xmlns="http://www.w3.org/2000/svg" xmlns:ev="http://www.w3.org/2001/xml-events" xmlns:xlink="http://www.w3.org/1999/xlink"><defs /><path d="M2412 719Q2412 620 2393.0 524.5Q2374 429 2338.0 339.5Q2302 250 2248.5 168.0Q2195 86 2126 16Q2094 -17 2057.0 -49.5Q2020 -82 1981 -107Q1952 -126 1908.0 -139.0Q1864 -152 1811.0 -161.5Q1758 -171 1701.0 -177.0Q1644 -183 1590.0 -186.5Q1536 -190 1488.0 -191.0Q1440 -192 1406 -192Q1372 -192 1324.0 -191.0Q1276 -190 1222.0 -186.5Q1168 -183 1111.0 -177.0Q1054 -171 1001.0 -161.5Q948 -152 904.0 -139.0Q860 -126 831 -107Q792 -82 755.0 -49.5Q718 -17 686 16Q617 86 563.5 168.0Q510 250 474.0 339.5Q438 429 419.0 524.5Q400 620 400 719Q400 858 436.0 986.5Q472 1115 537.5 1227.0Q603 1339 694.5 1430.5Q786 1522 898.0 1587.5Q1010 1653 1138.5 1689.0Q1267 1725 1406 1725Q1545 1725 1673.5 1689.0Q1802 1653 1914.0 1587.5Q2026 1522 2117.5 1430.5Q2209 1339 2274.5 1227.0Q2340 1115 2376.0 986.5Q2412 858 2412 719Z" style="fill:#ffc83d;stroke:none" transform="scale(1,-1) translate(0,-256)" /></svg>