<?xml version="1.0" encoding="utf-8" ?>
<svg baseProfile="full" height="256" version="1.1" width="256" xmlns="http://www.w3.org/2000/svg" xmlns:ev="http://www.w3.org/2001/xml-events" xmlns:xlink="http://www.w3.org/1999/xlink"><defs /><path d="M687 1078Q658 1078 636.5 1099.5Q615 1121 615 1150Q615 1180 636.0 1201.0Q657 1222 687 1222Q802 1222 894.5 1266.5Q987 1311 1065 1392Q1076 1404 1089.0 1410.5Q1102 1417 1119 1417Q1148 1417 1169.5 1396.0Q1191 1375 1191 1346Q1191 1319 1172 1297Q1129 1245 1073.0 1204.0Q1017 1163 953.5 1135.0Q890 1107 822.0 1092.5Q754 1078 687 1078ZM2125 1078Q2058 1078 1990.0 1092.5Q1922 1107 1858.5 1135.0Q1795 1163 1739.0 1204.0Q1683 1245 1640 1297Q1621 1319 1621 1346Q1621 1375 1642.5 1396.0Q1664 1417 1693 1417Q1710 1417 1723.0 1410.5Q1736 1404 1747 1393Q1787 1352 1829.0 1320.0Q1871 1288 1917.0 1266.0Q1963 1244 2014.5 1233.0Q2066 1222 2125 1222Q2154 1222 2175.5 1200.5Q2197 1179 2197 1150Q2197 1121 2175.5 1099.5Q2154 1078 2125 1078Z" style="fill:#d48c00;stroke:none" transform="scale(1,-1) translate(0,-256)" /></svg>