<?xml version="1.0" encoding="utf-8" ?>
<svg baseProfile="full" height="256" version="1.1" width="256" xmlns="http://www.w3.org/2000/svg" xmlns:ev="http://www.w3.org/2001/xml-events" xmlns:xlink="http://www.w3.org/1999/xlink"><defs /><path d="M2125 -215Q2125 -245 2104.0 -266.0Q2083 -287 2053 -287H759Q729 -287 708.0 -266.0Q687 -245 687 -215Q687 -184 701.5 -169.0Q716 -154 738.0 -148.0Q760 -142 785.0 -142.5Q810 -143 831 -143V791Q831 821 852.0 842.0Q873 863 903 863H1118V-143H1693V863H1909Q1939 863 1960.0 842.0Q1981 821 1981 791V-143Q2002 -143 2027.0 -142.5Q2052 -142 2074.0 -148.0Q2096 -154 2110.5 -169.0Q2125 -184 2125 -215Z" style="fill:#00bcf2;stroke:none" transform="scale(1,-1) translate(0,-256)" /></svg>