<?xml version="1.0" encoding="utf-8" ?>
<svg baseProfile="full" height="256" version="1.1" width="256" xmlns="http://www.w3.org/2000/svg" xmlns:ev="http://www.w3.org/2001/xml-events" xmlns:xlink="http://www.w3.org/1999/xlink"><defs /><path d="M828 -214Q791 -214 758.5 -200.5Q726 -187 702.0 -163.0Q678 -139 664.5 -107.0Q651 -75 651 -38Q651 -19 656.5 7.5Q662 34 673 50L830 289L980 64Q994 42 1002.5 17.5Q1011 -7 1011 -33Q1011 -72 996.5 -105.0Q982 -138 957.5 -162.0Q933 -186 899.5 -200.0Q866 -214 828 -214ZM2158 1114Q2132 1114 2107.5 1122.5Q2083 1131 2061 1145L1836 1295L2075 1452Q2090 1462 2117.5 1467.5Q2145 1473 2163 1473Q2200 1473 2232.0 1459.5Q2264 1446 2288.0 1422.0Q2312 1398 2325.5 1366.0Q2339 1334 2339 1297Q2339 1259 2325.0 1225.5Q2311 1192 2287.0 1167.0Q2263 1142 2230.0 1128.0Q2197 1114 2158 1114Z" style="fill:#00bcf2;stroke:none" transform="scale(1,-1) translate(0,-256)" /></svg>