<?xml version="1.0" encoding="utf-8" ?>
<svg baseProfile="full" height="256" version="1.1" width="256" xmlns="http://www.w3.org/2000/svg" xmlns:ev="http://www.w3.org/2001/xml-events" xmlns:xlink="http://www.w3.org/1999/xlink"><defs /><path d="M2411 718Q2411 579 2375.0 450.5Q2339 322 2273.5 210.5Q2208 99 2116.5 7.0Q2025 -85 1913.0 -150.0Q1801 -215 1672.5 -251.0Q1544 -287 1405 -287Q1266 -287 1137.5 -251.0Q1009 -215 897.5 -150.0Q786 -85 694.0 7.0Q602 99 537.0 210.5Q472 322 436.0 450.5Q400 579 400 718Q400 857 436.0 985.5Q472 1114 537.0 1226.0Q602 1338 694.0 1430.0Q786 1522 897.5 1587.5Q1009 1653 1137.5 1689.0Q1266 1725 1405 1725Q1544 1725 1673.0 1689.0Q1802 1653 1913.5 1587.5Q2025 1522 2117.0 1430.0Q2209 1338 2274.0 1226.0Q2339 1114 2375.0 985.5Q2411 857 2411 718Z" style="fill:#ffc83d;stroke:none" transform="scale(1,-1) translate(0,-256)" /></svg>