<?xml version="1.0" encoding="utf-8" ?>
<svg baseProfile="full" height="256" version="1.1" width="256" xmlns="http://www.w3.org/2000/svg" xmlns:ev="http://www.w3.org/2001/xml-events" xmlns:xlink="http://www.w3.org/1999/xlink"><defs /><path d="M2460 1176Q2507 1067 2531.0 951.5Q2555 836 2555 717Q2555 559 2514.0 412.5Q2473 266 2398.0 138.5Q2323 11 2218.0 -94.0Q2113 -199 1985.5 -274.0Q1858 -349 1711.5 -390.0Q1565 -431 1407 -431Q1289 -431 1173.5 -407.0Q1058 -383 949 -336Q920 -347 890.5 -352.5Q861 -358 830 -358Q764 -358 705.5 -333.5Q647 -309 603.5 -266.0Q560 -223 534.5 -165.0Q509 -107 509 -40Q509 -30 509.0 -20.5Q509 -11 511 -1Q386 152 321.0 335.5Q256 519 256 717Q256 875 297.0 1022.0Q338 1169 413.0 1297.0Q488 1425 593.0 1530.5Q698 1636 826.0 1711.0Q954 1786 1100.5 1827.5Q1247 1869 1406 1869Q1604 1869 1788.0 1804.0Q1972 1739 2126 1614Q2136 1616 2145.5 1616.0Q2155 1616 2165 1616Q2232 1616 2290.0 1590.5Q2348 1565 2391.0 1521.5Q2434 1478 2458.5 1419.5Q2483 1361 2483 1295Q2483 1234 2460 1176Z" style="fill:#000000;stroke:none" transform="scale(1,-1) translate(0,-256)" /></svg>