<?xml version="1.0" encoding="utf-8" ?>
<svg baseProfile="full" height="256" version="1.1" width="256" xmlns="http://www.w3.org/2000/svg" xmlns:ev="http://www.w3.org/2001/xml-events" xmlns:xlink="http://www.w3.org/1999/xlink"><defs /><path d="M1956 982Q2037 901 2081.0 795.5Q2125 690 2125 575Q2125 456 2079.5 351.5Q2034 247 1956.0 169.0Q1878 91 1773.0 46.0Q1668 1 1549 1Q1434 1 1329.0 44.5Q1224 88 1143 169ZM1296 962Q1296 975 1301 988L1513 1546L1561 1498L1483 1084L1896 1162L1944 1114L1387 902Q1376 898 1361 898Q1335 898 1315.5 916.5Q1296 935 1296 962ZM1227 764Q1227 749 1223 738L1011 181L963 229L1041 642L627 564L579 612L1137 824Q1150 829 1163 829Q1190 829 1208.5 809.5Q1227 790 1227 764Z" style="fill:#000000;stroke:none" transform="scale(1,-1) translate(0,-256)" /></svg>