<?xml version="1.0" encoding="utf-8" ?>
<svg baseProfile="full" height="256" version="1.1" width="256" xmlns="http://www.w3.org/2000/svg" xmlns:ev="http://www.w3.org/2001/xml-events" xmlns:xlink="http://www.w3.org/1999/xlink"><defs /><path d="M831 1222Q861 1222 882.0 1201.0Q903 1180 903 1150Q903 1120 882.0 1099.0Q861 1078 831 1078Q801 1078 780.0 1099.0Q759 1120 759 1150Q759 1180 780.0 1201.0Q801 1222 831 1222ZM1334 1222Q1364 1222 1385.0 1201.0Q1406 1180 1406 1150Q1406 1120 1385.0 1099.0Q1364 1078 1334 1078Q1304 1078 1283.0 1099.0Q1262 1120 1262 1150Q1262 1180 1283.0 1201.0Q1304 1222 1334 1222ZM1837 1222Q1867 1222 1888.0 1201.0Q1909 1180 1909 1150Q1909 1120 1888.0 1099.0Q1867 1078 1837 1078Q1808 1078 1786.5 1099.5Q1765 1121 1765 1150Q1765 1179 1786.5 1200.5Q1808 1222 1837 1222Z" style="fill:#0099bc;stroke:none" transform="scale(1,-1) translate(0,-256)" /></svg>