<?xml version="1.0" encoding="utf-8" ?>
<svg baseProfile="full" height="256" version="1.1" width="256" xmlns="http://www.w3.org/2000/svg" xmlns:ev="http://www.w3.org/2001/xml-events" xmlns:xlink="http://www.w3.org/1999/xlink"><defs /><path d="M2125 1653Q2154 1653 2175.5 1631.5Q2197 1610 2197 1581Q2197 1552 2175.5 1531.0Q2154 1510 2125 1510V1006H543V1510Q514 1510 493.0 1531.0Q472 1552 472 1581Q472 1610 493.0 1631.5Q514 1653 543 1653Q573 1653 594.0 1632.0Q615 1611 615 1581Q615 1564 607.0 1549.5Q599 1535 586 1525L759 1294H831L1004 1525Q991 1535 983.0 1549.5Q975 1564 975 1581Q975 1611 996.0 1632.0Q1017 1653 1047 1653Q1076 1653 1097.0 1631.5Q1118 1610 1118 1581Q1118 1564 1110.0 1549.5Q1102 1535 1089 1525L1262 1294H1406L1579 1525Q1566 1535 1558.0 1549.5Q1550 1564 1550 1581Q1550 1611 1571.0 1632.0Q1592 1653 1622 1653Q1651 1653 1672.0 1631.5Q1693 1610 1693 1581Q1693 1564 1685.0 1549.5Q1677 1535 1664 1525L1837 1294H1909L2082 1525Q2069 1535 2061.0 1549.5Q2053 1564 2053 1581Q2053 1611 2074.0 1632.0Q2095 1653 2125 1653Z" style="fill:#fff100;stroke:none" transform="scale(1,-1) translate(0,-256)" /></svg>