<?xml version="1.0" encoding="utf-8" ?>
<svg baseProfile="full" height="256" version="1.1" width="256" xmlns="http://www.w3.org/2000/svg" xmlns:ev="http://www.w3.org/2001/xml-events" xmlns:xlink="http://www.w3.org/1999/xlink"><defs /><path d="M1334 360Q1304 360 1278.0 371.0Q1252 382 1232.5 401.5Q1213 421 1201.5 447.0Q1190 473 1190 503H1478Q1478 473 1466.5 447.0Q1455 421 1435.5 401.5Q1416 382 1390.0 371.0Q1364 360 1334 360ZM1622 216Q1651 216 1672.5 194.5Q1694 173 1694 144Q1694 118 1673.0 97.0Q1652 76 1618.5 60.0Q1585 44 1543.5 32.5Q1502 21 1462.0 14.0Q1422 7 1388.0 3.5Q1354 0 1334 0Q1314 0 1280.0 3.5Q1246 7 1206.0 14.0Q1166 21 1124.5 32.5Q1083 44 1049.5 60.0Q1016 76 995.0 97.0Q974 118 974 144Q974 173 995.5 194.5Q1017 216 1046 216Q1055 216 1063.5 213.5Q1072 211 1080 207Q1113 193 1143.0 181.5Q1173 170 1203.5 162.0Q1234 154 1266.0 149.5Q1298 145 1334 145Q1370 145 1402.0 149.5Q1434 154 1464.5 162.0Q1495 170 1525.0 181.5Q1555 193 1588 207Q1596 211 1604.5 213.5Q1613 216 1622 216Z" style="fill:#f7894a;stroke:none" transform="scale(1,-1) translate(0,-256)" /></svg>