<?xml version="1.0" encoding="utf-8" ?>
<svg baseProfile="full" height="256" version="1.1" width="256" xmlns="http://www.w3.org/2000/svg" xmlns:ev="http://www.w3.org/2001/xml-events" xmlns:xlink="http://www.w3.org/1999/xlink"><defs /><path d="M2088 935H2161Q2183 935 2202.5 926.5Q2222 918 2236.5 903.0Q2251 888 2259.5 868.5Q2268 849 2268 827V611Q2268 581 2257.0 560.5Q2246 540 2227.0 527.5Q2208 515 2184.0 509.0Q2160 503 2135 503H2125Q2125 394 2096.5 293.0Q2068 192 2016.5 104.5Q1965 17 1893.0 -55.5Q1821 -128 1733.0 -179.5Q1645 -231 1544.0 -259.0Q1443 -287 1334 -287Q1225 -287 1124.0 -259.0Q1023 -231 935.0 -179.5Q847 -128 775.0 -55.5Q703 17 651.5 104.5Q600 192 571.5 293.0Q543 394 543 503H532Q506 503 482.0 509.0Q458 515 440.0 527.5Q422 540 411.0 560.5Q400 581 400 611V827Q400 849 408.5 868.5Q417 888 432.0 903.0Q447 918 466.5 926.5Q486 935 508 935H568Q568 1049 596.5 1140.5Q625 1232 675.5 1303.0Q726 1374 797.0 1424.5Q868 1475 953.0 1508.0Q1038 1541 1134.5 1556.5Q1231 1572 1334 1572Q1488 1572 1625.0 1536.0Q1762 1500 1865.0 1423.0Q1968 1346 2028.0 1225.5Q2088 1105 2088 935Z" style="fill:#ffc83d;stroke:none" transform="scale(1,-1) translate(0,-256)" /></svg>