<?xml version="1.0" encoding="utf-8" ?>
<svg baseProfile="full" height="256" version="1.1" width="256" xmlns="http://www.w3.org/2000/svg" xmlns:ev="http://www.w3.org/2001/xml-events" xmlns:xlink="http://www.w3.org/1999/xlink"><defs /><path d="M1981 863V1222H687V863H543V1006Q567 1023 584.0 1047.5Q601 1072 601 1103Q601 1137 583.0 1167.5Q565 1198 543 1222Q573 1333 634.5 1425.0Q696 1517 781.0 1584.0Q866 1651 970.0 1688.0Q1074 1725 1190 1725H2268Q2268 1647 2244.0 1570.0Q2220 1493 2175 1429Q2164 1412 2150.5 1397.5Q2137 1383 2125 1366Q2071 1292 2071 1199Q2071 1148 2086.5 1099.5Q2102 1051 2125 1006V863Z" style="fill:#8e562e;stroke:none" transform="scale(1,-1) translate(0,-256)" /></svg>