<?xml version="1.0" encoding="utf-8" ?>
<svg baseProfile="full" height="256" version="1.1" width="256" xmlns="http://www.w3.org/2000/svg" xmlns:ev="http://www.w3.org/2001/xml-events" xmlns:xlink="http://www.w3.org/1999/xlink"><defs /><path d="M2412 1869V1725Q2412 1613 2374.5 1507.0Q2337 1401 2268 1313V1054Q2334 1023 2373.0 961.5Q2412 900 2412 827V611Q2412 535 2370.5 473.0Q2329 411 2260 380Q2245 264 2203.0 159.0Q2161 54 2097.0 -36.5Q2033 -127 1949.5 -199.5Q1866 -272 1768.0 -323.5Q1670 -375 1560.5 -403.0Q1451 -431 1334 -431Q1217 -431 1107.5 -403.0Q998 -375 900.0 -323.5Q802 -272 718.5 -199.0Q635 -126 571.0 -36.0Q507 54 465.0 159.0Q423 264 408 380Q374 395 346.0 419.0Q318 443 298.0 473.0Q278 503 267.0 538.0Q256 573 256 611V827Q256 900 295.0 961.5Q334 1023 400 1054V1421Q366 1451 347.0 1493.0Q328 1535 328 1581Q328 1625 345.0 1664.5Q362 1704 391.0 1733.5Q420 1763 459.5 1780.0Q499 1797 543 1797Q594 1797 638.0 1775.0Q682 1753 714 1714Q819 1792 939.0 1830.5Q1059 1869 1190 1869Z" style="fill:#000000;stroke:none" transform="scale(1,-1) translate(0,-256)" /></svg>