<?xml version="1.0" encoding="utf-8" ?>
<svg baseProfile="full" height="256" version="1.1" width="256" xmlns="http://www.w3.org/2000/svg" xmlns:ev="http://www.w3.org/2001/xml-events" xmlns:xlink="http://www.w3.org/1999/xlink"><defs /><path d="M2066 922 1962 1026Q1937 1051 1924.0 1083.0Q1911 1115 1911 1150Q1911 1170 1917.5 1195.0Q1924 1220 1936.0 1242.0Q1948 1264 1966.0 1279.0Q1984 1294 2008 1294H2053Q2101 1294 2133.0 1313.5Q2165 1333 2197 1366Q2226 1397 2226 1438Q2226 1459 2218.0 1478.0Q2210 1497 2196.0 1510.5Q2182 1524 2163.5 1532.0Q2145 1540 2124 1540Q2083 1540 2053 1510L1890 1346Q1865 1321 1832.5 1308.0Q1800 1295 1765 1295Q1738 1295 1716.5 1301.0Q1695 1307 1677.0 1318.0Q1659 1329 1643.0 1344.5Q1627 1360 1609 1379L1860 1630Q1906 1676 1965.0 1700.5Q2024 1725 2089 1725Q2155 1725 2214.0 1699.5Q2273 1674 2317.0 1630.0Q2361 1586 2386.5 1527.0Q2412 1468 2412 1402Q2412 1337 2387.5 1278.0Q2363 1219 2317 1173ZM689 502Q603 496 523 459L929 1676Q937 1698 955.0 1711.5Q973 1725 996 1725Q1026 1725 1047.5 1704.0Q1069 1683 1069 1654Q1069 1648 1068.0 1642.0Q1067 1636 1065 1631Z" style="fill:#bac8cc;stroke:none" transform="scale(1,-1) translate(0,-256)" /></svg>