<?xml version="1.0" encoding="utf-8" ?>
<svg baseProfile="full" height="256" version="1.1" width="256" xmlns="http://www.w3.org/2000/svg" xmlns:ev="http://www.w3.org/2001/xml-events" xmlns:xlink="http://www.w3.org/1999/xlink"><defs /><path d="M1864 923H1965V821L952 -193Q906 -239 847.0 -263.0Q788 -287 723 -287Q656 -287 597.5 -261.5Q539 -236 495.0 -192.0Q451 -148 425.5 -89.5Q400 -31 400 36Q400 103 425.5 162.0Q451 221 495.0 265.0Q539 309 597.5 334.5Q656 360 723 360Q781 360 833.5 340.5Q886 321 928.0 286.0Q970 251 999.5 203.5Q1029 156 1040 99ZM723 -144Q760 -144 793.0 -130.0Q826 -116 850.5 -91.5Q875 -67 889.0 -34.0Q903 -1 903 36Q903 73 889.0 106.0Q875 139 850.5 163.5Q826 188 793.0 202.0Q760 216 723 216Q686 216 653.0 202.0Q620 188 595.5 163.5Q571 139 557.0 106.0Q543 73 543 36Q543 -1 557.0 -34.0Q571 -67 595.5 -91.5Q620 -116 653.0 -130.0Q686 -144 723 -144Z" style="fill:#a0aeb2;stroke:none" transform="scale(1,-1) translate(0,-256)" /></svg>