<?xml version="1.0" encoding="utf-8" ?>
<svg baseProfile="full" height="256" version="1.1" width="256" xmlns="http://www.w3.org/2000/svg" xmlns:ev="http://www.w3.org/2001/xml-events" xmlns:xlink="http://www.w3.org/1999/xlink"><defs /><path d="M2089 1869Q2185 1869 2270.0 1832.0Q2355 1795 2418.5 1731.5Q2482 1668 2519.0 1583.0Q2556 1498 2556 1402Q2556 1308 2520.5 1223.0Q2485 1138 2419 1072L1053 -294Q987 -360 902.0 -395.5Q817 -431 723 -431Q627 -431 542.0 -394.0Q457 -357 393.5 -293.5Q330 -230 293.0 -145.0Q256 -60 256 36Q256 112 280 184L792 1722Q803 1755 823.5 1782.0Q844 1809 871.0 1828.5Q898 1848 930.0 1858.5Q962 1869 997 1869Q1041 1869 1080.5 1852.0Q1120 1835 1149.5 1806.0Q1179 1777 1196.0 1738.0Q1213 1699 1213 1655Q1213 1619 1201 1585L836 489Q907 472 968.5 433.5Q1030 395 1078 340L1784 1046Q1775 1072 1771.0 1098.0Q1767 1124 1767 1151Q1702 1151 1643.5 1175.0Q1585 1199 1539 1245L1405 1379L1759 1732Q1825 1798 1910.0 1833.5Q1995 1869 2089 1869Z" style="fill:#000000;stroke:none" transform="scale(1,-1) translate(0,-256)" /></svg>