<?xml version="1.0" encoding="utf-8" ?>
<svg baseProfile="full" height="256" version="1.1" width="256" xmlns="http://www.w3.org/2000/svg" xmlns:ev="http://www.w3.org/2001/xml-events" xmlns:xlink="http://www.w3.org/1999/xlink"><defs /><path d="M689 502 638 348Q628 319 611.0 291.5Q594 264 571.5 239.5Q549 215 523.5 195.0Q498 175 471 161Q460 155 445.5 149.0Q431 143 418 143L523 459Q525 465 539.0 481.5Q553 498 571.0 516.0Q589 534 605.5 547.5Q622 561 628 561Q637 561 646.0 554.5Q655 548 663.5 538.5Q672 529 678.5 519.0Q685 509 689 502Z" style="fill:#69797e;stroke:none" transform="scale(1,-1) translate(0,-256)" /></svg>