<?xml version="1.0" encoding="utf-8" ?>
<svg baseProfile="full" height="256" version="1.1" width="256" xmlns="http://www.w3.org/2000/svg" xmlns:ev="http://www.w3.org/2001/xml-events" xmlns:xlink="http://www.w3.org/1999/xlink"><defs /><path d="M831 1653V1617Q831 1603 820.0 1592.0Q809 1581 795 1581Q781 1581 770.0 1592.0Q759 1603 759 1617V1653ZM543 1546Q543 1532 532.5 1521.0Q522 1510 508 1510Q493 1510 482.5 1520.5Q472 1531 472 1546Q472 1560 483.0 1570.5Q494 1581 508 1581Q522 1581 532.5 1570.5Q543 1560 543 1546Z" style="fill:#000000;stroke:none" transform="scale(1,-1) translate(0,-256)" /></svg>