<?xml version="1.0" encoding="utf-8" ?>
<svg baseProfile="full" height="256" version="1.1" width="256" xmlns="http://www.w3.org/2000/svg" xmlns:ev="http://www.w3.org/2001/xml-events" xmlns:xlink="http://www.w3.org/1999/xlink"><defs /><path d="M2226 589Q2281 517 2310.5 432.0Q2340 347 2340 256Q2340 181 2320.5 111.5Q2301 42 2266.0 -18.0Q2231 -78 2181.0 -128.0Q2131 -178 2071.0 -213.0Q2011 -248 1941.5 -267.5Q1872 -287 1797 -287Q1880 -287 1953.0 -256.5Q2026 -226 2080.0 -173.0Q2134 -120 2165.5 -48.0Q2197 24 2197 108Q2197 190 2166.0 262.0Q2135 334 2081.0 387.5Q2027 441 1955.0 472.0Q1883 503 1801 503Q1797 503 1793.0 502.5Q1789 502 1785 502Q1780 502 1775.0 502.5Q1770 503 1765 503L1622 216L1693 72L1586 -287H1478L1419 -251L1478 -215V36L1262 216V288L1347 513Q1281 527 1222.0 559.0Q1163 591 1116.0 636.5Q1069 682 1035.5 740.0Q1002 798 987 864L975 863V719H759L723 693L687 719Q687 743 696.5 757.5Q706 772 721.0 779.5Q736 787 755.0 789.5Q774 792 794 792Q810 792 824.5 791.5Q839 791 852 791L708 935H672L657 985Q678 1006 708 1006Q736 1006 759 985L834 911Q840 849 858 791H903V935Q903 965 924.5 985.5Q946 1006 975 1006V1222Q975 1252 963.5 1278.0Q952 1304 932.5 1323.5Q913 1343 887.0 1354.5Q861 1366 831 1366Q831 1336 810.0 1315.0Q789 1294 759 1294H543Q513 1294 492.5 1315.5Q472 1337 472 1366H687Q702 1366 712.5 1376.5Q723 1387 723 1402Q723 1417 712.5 1427.5Q702 1438 687 1438L669 1415L615 1438L590 1415L543 1438L524 1415L472 1438L450 1415L400 1438V1581Q400 1611 421.0 1632.0Q442 1653 472 1653H687Q687 1683 708.0 1704.0Q729 1725 759 1725H797Q816 1725 835.0 1723.0Q854 1721 869.0 1713.5Q884 1706 893.5 1692.0Q903 1678 903 1653Q941 1653 974.0 1634.0Q1007 1615 1027 1582L1008 1555L1047 1510V1438L1016 1402L1047 1366V1294Q1047 1237 1067.0 1184.0Q1087 1131 1125 1089Q1133 1081 1148.0 1069.5Q1163 1058 1168 1051Q1171 1047 1171.5 1041.5Q1172 1036 1172.5 1029.5Q1173 1023 1174.0 1016.5Q1175 1010 1178 1006Q1180 1004 1182.0 1002.5Q1184 1001 1186 998Q1190 993 1190.0 987.5Q1190 982 1201 979L1300 994L1378 968L1422 921Q1437 921 1455.0 922.5Q1473 924 1490 924Q1497 924 1503.5 923.5Q1510 923 1516 922Q1533 920 1555.0 911.0Q1577 902 1594 896L1650 845L1732 850L1809 824L1859 777Q1873 778 1884.0 778.5Q1895 779 1905 779Q1924 779 1940.0 777.0Q1956 775 1971.0 770.5Q1986 766 2003.0 758.5Q2020 751 2041 741Q2046 727 2053.5 714.5Q2061 702 2078 702Q2084 702 2090.0 702.5Q2096 703 2102 704Q2144 678 2174 646Q2176 632 2178.5 621.5Q2181 611 2186.0 604.0Q2191 597 2200.0 593.0Q2209 589 2226 589Z" style="fill:#bb9167;stroke:none" transform="scale(1,-1) translate(0,-256)" /></svg>