<?xml version="1.0" encoding="utf-8" ?>
<svg baseProfile="full" height="256" version="1.1" width="256" xmlns="http://www.w3.org/2000/svg" xmlns:ev="http://www.w3.org/2001/xml-events" xmlns:xlink="http://www.w3.org/1999/xlink"><defs /><path d="M2053 72Q2053 123 2038.5 166.0Q2024 209 1997.0 243.5Q1970 278 1932.0 304.0Q1894 330 1848 347Q1828 354 1806.5 357.0Q1785 360 1765 360H1442Q1341 360 1248.5 391.5Q1156 423 1079.0 479.5Q1002 536 945.0 615.5Q888 695 858 791Q839 808 822.5 833.0Q806 858 806 884Q806 896 814.5 902.5Q823 909 834 911Q831 941 831 971V1366Q840 1377 852.0 1381.5Q864 1386 878 1386Q900 1386 922.0 1375.5Q944 1365 961.5 1348.0Q979 1331 990.5 1309.0Q1002 1287 1003 1265L1019 971Q1019 968 1019.5 965.0Q1020 962 1020 959Q1022 932 1023.5 906.5Q1025 881 1031 855Q1057 741 1131.0 669.5Q1205 598 1318 574Q1347 568 1376.0 566.5Q1405 565 1435 563Q1523 559 1611.5 554.0Q1700 549 1788 549H1847Q1931 549 2003.5 509.0Q2076 469 2130.0 405.0Q2184 341 2214.5 261.5Q2245 182 2245 103Q2245 49 2226.0 -1.0Q2207 -51 2174.0 -94.5Q2141 -138 2097.0 -173.5Q2053 -209 2003.0 -234.0Q1953 -259 1900.0 -273.0Q1847 -287 1797 -287H1693Q1693 -257 1712.0 -238.5Q1731 -220 1760 -216Q1802 -210 1842.5 -200.0Q1883 -190 1917.5 -171.0Q1952 -152 1980.5 -123.5Q2009 -95 2027 -52Q2053 8 2053 72Z" style="fill:#f7d7c4;stroke:none" transform="scale(1,-1) translate(0,-256)" /></svg>