<?xml version="1.0" encoding="utf-8" ?>
<svg baseProfile="full" height="256" version="1.1" width="256" xmlns="http://www.w3.org/2000/svg" xmlns:ev="http://www.w3.org/2001/xml-events" xmlns:xlink="http://www.w3.org/1999/xlink"><defs /><path d="M1478 -287H1334Q1334 -258 1355.5 -236.5Q1377 -215 1406 -215H1478ZM1190 -287H1047Q1047 -258 1068.0 -236.5Q1089 -215 1118 -215H1190ZM759 647Q729 647 708.0 668.0Q687 689 687 719H759ZM657 884Q636 905 636 934Q636 964 657 985L708 935ZM472 1438V1366L400 1438ZM615 1438V1366L543 1438ZM687 1438V1366L615 1438ZM543 1438V1366L472 1438Z" style="fill:#ffffff;stroke:none" transform="scale(1,-1) translate(0,-256)" /></svg>