<?xml version="1.0" encoding="utf-8" ?>
<svg baseProfile="full" height="256" version="1.1" width="256" xmlns="http://www.w3.org/2000/svg" xmlns:ev="http://www.w3.org/2001/xml-events" xmlns:xlink="http://www.w3.org/1999/xlink"><defs /><path d="M1007 1777Q1048 1761 1082.0 1734.0Q1116 1707 1140.0 1672.0Q1164 1637 1177.0 1595.5Q1190 1554 1190 1510V1294Q1190 1254 1209.0 1218.5Q1228 1183 1261 1162Q1268 1158 1274.5 1154.5Q1281 1151 1289 1149L2015 907Q2120 872 2206.5 807.5Q2293 743 2354.5 657.5Q2416 572 2450.0 469.5Q2484 367 2484 256Q2484 161 2459.5 73.5Q2435 -14 2390.0 -90.5Q2345 -167 2282.5 -229.5Q2220 -292 2143.5 -337.0Q2067 -382 1979.5 -406.5Q1892 -431 1797 -431H903V-287Q903 -253 913.5 -221.5Q924 -190 943.0 -163.0Q962 -136 988.5 -116.0Q1015 -96 1047 -84V-31L831 149V314L886 460L849 503H759Q714 503 675.0 520.0Q636 537 606.5 566.5Q577 596 560.0 635.0Q543 674 543 719Q543 751 554 784Q525 814 509.0 853.5Q493 893 493 935Q493 977 508.0 1014.0Q523 1051 549.0 1079.5Q575 1108 610.5 1126.5Q646 1145 687 1149Q659 1149 637.5 1148.5Q616 1148 596 1148Q564 1148 534.0 1150.5Q504 1153 476.0 1162.0Q448 1171 422.0 1187.5Q396 1204 374 1233Q339 1246 311.0 1271.0Q283 1296 267 1330Q265 1335 260.5 1348.0Q256 1361 256 1366V1581Q256 1626 273.0 1665.0Q290 1704 319.5 1733.5Q349 1763 388.0 1780.0Q427 1797 472 1797H598Q629 1831 671.0 1850.0Q713 1869 759 1869H771Q807 1869 840.0 1867.5Q873 1866 902.0 1857.0Q931 1848 957.5 1829.5Q984 1811 1007 1777Z" style="fill:#000000;stroke:none" transform="scale(1,-1) translate(0,-256)" /></svg>