<?xml version="1.0" encoding="utf-8" ?>
<svg baseProfile="full" height="256" version="1.1" width="256" xmlns="http://www.w3.org/2000/svg" xmlns:ev="http://www.w3.org/2001/xml-events" xmlns:xlink="http://www.w3.org/1999/xlink"><defs /><path d="M2556 828 2051 323 2328 46 2226 -56Q2149 -133 2049.5 -174.0Q1950 -215 1841 -215Q1728 -215 1622 -169V-215Q1622 -260 1605.0 -299.0Q1588 -338 1558.5 -367.5Q1529 -397 1490.0 -414.0Q1451 -431 1406 -431Q1361 -431 1322.0 -414.0Q1283 -397 1253.5 -367.5Q1224 -338 1207.0 -299.0Q1190 -260 1190 -215V-169Q1084 -215 971 -215Q862 -215 762.0 -174.5Q662 -134 585 -56L484 46L761 323L256 828L405 977L398 989Q387 1007 377.5 1023.5Q368 1040 361.0 1057.0Q354 1074 350.0 1092.5Q346 1111 346 1134Q346 1177 363.0 1216.0Q380 1255 409.0 1284.5Q438 1314 476.5 1331.0Q515 1348 559 1348Q605 1348 638.5 1332.5Q672 1317 709 1294L717 1289L866 1438L975 1329V1653H1185Q1195 1697 1212.0 1736.5Q1229 1776 1255.0 1805.5Q1281 1835 1318.0 1852.0Q1355 1869 1406 1869Q1456 1869 1493.5 1852.0Q1531 1835 1557.5 1805.5Q1584 1776 1600.5 1737.0Q1617 1698 1626 1653H1837V1329L1946 1438L2095 1289L2109 1297Q2144 1318 2176.5 1333.0Q2209 1348 2253 1348Q2297 1348 2335.5 1331.0Q2374 1314 2403.0 1284.5Q2432 1255 2449.0 1216.0Q2466 1177 2466 1134Q2466 1088 2451.0 1056.5Q2436 1025 2414 989L2407 977Z" style="fill:#000000;stroke:none" transform="scale(1,-1) translate(0,-256)" /></svg>