<?xml version="1.0" encoding="utf-8" ?>
<svg baseProfile="full" height="256" version="1.1" width="256" xmlns="http://www.w3.org/2000/svg" xmlns:ev="http://www.w3.org/2001/xml-events" xmlns:xlink="http://www.w3.org/1999/xlink"><defs /><path d="M2353 828 1848 323 2125 46Q2068 -11 1995.0 -41.5Q1922 -72 1841 -72Q1760 -72 1687.0 -41.5Q1614 -11 1557 46L1406 197L1255 46Q1198 -11 1125.0 -41.5Q1052 -72 971 -72Q890 -72 817.0 -41.5Q744 -11 687 46L964 323L459 828Q501 870 560 870Q589 870 615.5 859.0Q642 848 662 828L503 1093Q497 1103 493.5 1113.0Q490 1123 490 1135Q490 1164 510.0 1184.0Q530 1204 559 1204Q571 1204 581.0 1200.5Q591 1197 601 1191L866 1031Q846 1051 835.0 1077.5Q824 1104 824 1133Q824 1162 835.0 1188.5Q846 1215 866 1235L1118 982V1510Q1148 1510 1174.0 1498.5Q1200 1487 1219.5 1467.5Q1239 1448 1250.5 1422.0Q1262 1396 1262 1366L1337 1666Q1344 1692 1360.5 1708.5Q1377 1725 1406 1725Q1435 1725 1451.5 1708.5Q1468 1692 1475 1666L1550 1366Q1550 1396 1561.0 1422.0Q1572 1448 1591.5 1467.5Q1611 1487 1637.0 1498.5Q1663 1510 1693 1510V982L1946 1234Q1966 1214 1977.0 1187.5Q1988 1161 1988 1132Q1988 1073 1946 1031L2211 1191Q2221 1197 2231.0 1200.5Q2241 1204 2253 1204Q2282 1204 2302.0 1184.0Q2322 1164 2322 1135Q2322 1113 2309 1092L2149 828Q2169 848 2195.5 859.0Q2222 870 2251 870Q2280 870 2306.5 859.0Q2333 848 2353 828Z" style="fill:#f03a17;stroke:none" transform="scale(1,-1) translate(0,-256)" /></svg>