<?xml version="1.0" encoding="utf-8" ?>
<svg baseProfile="full" height="256" version="1.1" width="256" xmlns="http://www.w3.org/2000/svg" xmlns:ev="http://www.w3.org/2001/xml-events" xmlns:xlink="http://www.w3.org/1999/xlink"><defs /><path d="M1406 935 1662 615Q1670 605 1681.0 598.5Q1692 592 1701 584Q1732 555 1748.5 514.0Q1765 473 1765 431Q1765 386 1748.0 347.0Q1731 308 1702.0 279.0Q1673 250 1634.0 233.0Q1595 216 1550 216H1262Q1217 216 1178.0 233.0Q1139 250 1110.0 279.0Q1081 308 1064.0 347.0Q1047 386 1047 431Q1047 473 1063.5 514.0Q1080 555 1111 584Q1120 592 1131.0 598.5Q1142 605 1150 615Z" style="fill:#f7894a;stroke:none" transform="scale(1,-1) translate(0,-256)" /></svg>