<?xml version="1.0" encoding="utf-8" ?>
<svg baseProfile="full" height="256" version="1.1" width="256" xmlns="http://www.w3.org/2000/svg" xmlns:ev="http://www.w3.org/2001/xml-events" xmlns:xlink="http://www.w3.org/1999/xlink"><defs /><path d="M1837 791Q1867 791 1888.0 770.0Q1909 749 1909 719Q1909 689 1888 668L1478 258V-215Q1478 -245 1457.0 -266.0Q1436 -287 1406 -287Q1376 -287 1355.0 -266.0Q1334 -245 1334 -215V258L924 668Q903 689 903 719Q903 748 924.0 769.5Q945 791 974 791Q1004 791 1025 770L1334 461V1006Q1334 1036 1355.0 1057.0Q1376 1078 1406 1078Q1436 1078 1457.0 1057.0Q1478 1036 1478 1006V461L1786 770Q1807 791 1837 791Z" style="fill:#af0d1a;stroke:none" transform="scale(1,-1) translate(0,-256)" /></svg>