<?xml version="1.0" encoding="utf-8" ?>
<svg baseProfile="full" height="256" version="1.1" width="256" xmlns="http://www.w3.org/2000/svg" xmlns:ev="http://www.w3.org/2001/xml-events" xmlns:xlink="http://www.w3.org/1999/xlink"><defs /><path d="M1402 213Q1289 213 1200.0 251.5Q1111 290 1049.0 358.0Q987 426 954.5 519.0Q922 612 922 721Q922 836 954.5 933.5Q987 1031 1050.0 1102.0Q1113 1173 1205.5 1213.0Q1298 1253 1418 1253Q1530 1253 1617.5 1214.0Q1705 1175 1765.5 1106.5Q1826 1038 1857.5 945.5Q1889 853 1889 746Q1889 632 1858.0 534.5Q1827 437 1765.5 365.5Q1704 294 1613.0 253.5Q1522 213 1402 213ZM1409 1107Q1330 1107 1271.5 1075.0Q1213 1043 1174.5 990.5Q1136 938 1117.0 870.5Q1098 803 1098 732Q1098 661 1116.0 594.0Q1134 527 1171.0 475.0Q1208 423 1265.5 391.0Q1323 359 1402 359Q1485 359 1544.0 389.0Q1603 419 1641.0 469.5Q1679 520 1696.5 587.5Q1714 655 1714 730Q1714 804 1697.5 872.0Q1681 940 1645.0 992.5Q1609 1045 1551.0 1076.0Q1493 1107 1409 1107Z" style="fill:#ffffff;stroke:none" transform="scale(1,-1) translate(0,-256)" /></svg>