<?xml version="1.0" encoding="utf-8" ?>
<svg baseProfile="full" height="256" version="1.1" width="256" xmlns="http://www.w3.org/2000/svg" xmlns:ev="http://www.w3.org/2001/xml-events" xmlns:xlink="http://www.w3.org/1999/xlink"><defs /><path d="M646 1706 687 1725H831Q846 1717 866.5 1715.5Q887 1714 904 1714Q920 1714 940.5 1716.0Q961 1718 975 1725H1118Q1121 1721 1130.5 1719.0Q1140 1717 1151.0 1716.0Q1162 1715 1172.5 1714.5Q1183 1714 1188 1714Q1203 1714 1226.0 1716.5Q1249 1719 1262 1725H1406L1443 1707V902Q1434 883 1426.0 863.5Q1418 844 1406 826Q1397 813 1378.0 789.5Q1359 766 1337.5 741.0Q1316 716 1295.0 695.0Q1274 674 1262 667H1237Q1224 667 1211.5 666.5Q1199 666 1186 664Q1169 661 1152.0 654.0Q1135 647 1118 647H975L957 656Q925 656 894.0 659.5Q863 663 831 667Q818 674 797.5 694.5Q777 715 755.5 740.0Q734 765 715.0 789.0Q696 813 687 826Q673 847 665.0 871.5Q657 896 646 919Z" style="fill:#ffffff;stroke:none" transform="scale(1,-1) translate(0,-256)" /></svg>