<?xml version="1.0" encoding="utf-8" ?>
<svg baseProfile="full" height="256" version="1.1" width="256" xmlns="http://www.w3.org/2000/svg" xmlns:ev="http://www.w3.org/2001/xml-events" xmlns:xlink="http://www.w3.org/1999/xlink"><defs /><path d="M1298 108Q1298 56 1278.0 10.5Q1258 -35 1224.0 -69.5Q1190 -104 1144.5 -124.0Q1099 -144 1047 -144Q995 -144 949.0 -124.0Q903 -104 869.0 -70.0Q835 -36 815.0 10.0Q795 56 795 108Q795 160 815.0 206.0Q835 252 869.0 286.0Q903 320 949.0 340.0Q995 360 1047 360Q1099 360 1144.5 340.0Q1190 320 1224.0 285.5Q1258 251 1278.0 205.5Q1298 160 1298 108Z" style="fill:#d48c00;stroke:none" transform="scale(1,-1) translate(0,-256)" /></svg>