<?xml version="1.0" encoding="utf-8" ?>
<svg baseProfile="full" height="256" version="1.1" width="256" xmlns="http://www.w3.org/2000/svg" xmlns:ev="http://www.w3.org/2001/xml-events" xmlns:xlink="http://www.w3.org/1999/xlink"><defs /><path d="M1118 497Q1188 484 1247.5 448.5Q1307 413 1350.0 361.0Q1393 309 1417.5 244.5Q1442 180 1442 108Q1442 26 1411.0 -46.0Q1380 -118 1326.5 -171.5Q1273 -225 1201.0 -256.0Q1129 -287 1047 -287Q965 -287 893.0 -256.0Q821 -225 767.0 -171.5Q713 -118 682.0 -46.0Q651 26 651 108Q651 180 675.5 244.5Q700 309 743.0 361.0Q786 413 845.5 448.5Q905 484 975 497V719H1118Z" style="fill:#ffb900;stroke:none" transform="scale(1,-1) translate(0,-256)" /></svg>