<?xml version="1.0" encoding="utf-8" ?>
<svg baseProfile="full" height="256" version="1.1" width="256" xmlns="http://www.w3.org/2000/svg" xmlns:ev="http://www.w3.org/2001/xml-events" xmlns:xlink="http://www.w3.org/1999/xlink"><defs /><path d="M1550 1725Q1580 1725 1606.0 1713.5Q1632 1702 1651.5 1682.5Q1671 1663 1682.0 1637.0Q1693 1611 1693 1581V1222Q1693 1193 1683.5 1170.5Q1674 1148 1656 1126L1406 826V1725ZM400 1581Q400 1611 411.0 1637.0Q422 1663 441.5 1682.5Q461 1702 487.0 1713.5Q513 1725 543 1725H687V826L437 1126Q419 1148 409.5 1170.5Q400 1193 400 1222Z" style="fill:#3a96dd;stroke:none" transform="scale(1,-1) translate(0,-256)" /></svg>