<?xml version="1.0" encoding="utf-8" ?>
<svg baseProfile="full" height="256" version="1.1" width="256" xmlns="http://www.w3.org/2000/svg" xmlns:ev="http://www.w3.org/2001/xml-events" xmlns:xlink="http://www.w3.org/1999/xlink"><defs /><path d="M1047 -431Q936 -431 837.5 -388.5Q739 -346 666.0 -273.0Q593 -200 550.5 -101.5Q508 -3 508 108Q508 175 524.0 238.5Q540 302 570.0 359.5Q600 417 643.5 466.0Q687 515 742 553Q726 564 711.5 576.5Q697 589 685 604L327 1034Q292 1076 274.0 1121.5Q256 1167 256 1222V1581Q256 1639 279.0 1691.5Q302 1744 341.0 1783.5Q380 1823 432.0 1846.0Q484 1869 543 1869H1550Q1608 1869 1660.5 1846.0Q1713 1823 1752.0 1783.5Q1791 1744 1814.0 1691.5Q1837 1639 1837 1581V1222Q1837 1165 1817.5 1119.0Q1798 1073 1762 1029L1409 605Q1396 590 1381.5 577.0Q1367 564 1351 553Q1406 515 1449.5 466.0Q1493 417 1523.5 359.5Q1554 302 1570.0 238.5Q1586 175 1586 108Q1586 -3 1543.5 -101.5Q1501 -200 1428.0 -273.0Q1355 -346 1256.5 -388.5Q1158 -431 1047 -431Z" style="fill:#000000;stroke:none" transform="scale(1,-1) translate(0,-256)" /></svg>