<?xml version="1.0" encoding="utf-8" ?>
<svg baseProfile="full" height="256" version="1.1" width="256" xmlns="http://www.w3.org/2000/svg" xmlns:ev="http://www.w3.org/2001/xml-events" xmlns:xlink="http://www.w3.org/1999/xlink"><defs /><path d="M867 1078Q904 1078 937.0 1064.0Q970 1050 994.5 1025.5Q1019 1001 1033.0 968.5Q1047 936 1047 899Q1047 861 1033.0 828.5Q1019 796 994.5 771.5Q970 747 937.0 733.0Q904 719 867 719Q829 719 796.5 733.0Q764 747 739.5 771.5Q715 796 701.0 828.5Q687 861 687 899Q687 936 701.0 968.5Q715 1001 739.5 1025.5Q764 1050 797.0 1064.0Q830 1078 867 1078ZM1981 575Q2011 575 2037.0 563.5Q2063 552 2082.5 532.5Q2102 513 2113.5 487.0Q2125 461 2125 431V0H1837V431Q1837 461 1848.5 487.0Q1860 513 1879.5 532.5Q1899 552 1925.0 563.5Q1951 575 1981 575ZM1550 575Q1580 575 1606.0 563.5Q1632 552 1651.5 532.5Q1671 513 1682.0 487.0Q1693 461 1693 431V0H1406V431Q1406 461 1417.0 487.0Q1428 513 1447.5 532.5Q1467 552 1493.5 563.5Q1520 575 1550 575Z" style="fill:#31d2f7;stroke:none" transform="scale(1,-1) translate(0,-256)" /></svg>