<?xml version="1.0" encoding="utf-8" ?>
<svg baseProfile="full" height="256" version="1.1" width="256" xmlns="http://www.w3.org/2000/svg" xmlns:ev="http://www.w3.org/2001/xml-events" xmlns:xlink="http://www.w3.org/1999/xlink"><defs /><path d="M2408 1075Q2480 1003 2518.0 912.0Q2556 821 2556 719Q2556 612 2518.0 526.0Q2480 440 2408 362Q2396 279 2358.5 205.5Q2321 132 2264.5 75.0Q2208 18 2135.0 -19.0Q2062 -56 1978 -67Q1906 -139 1815.0 -177.0Q1724 -215 1622 -215Q1518 -215 1426.0 -175.5Q1334 -136 1265.5 -68.0Q1197 0 1157.5 92.0Q1118 184 1118 288H472Q427 288 388.0 305.0Q349 322 319.5 351.0Q290 380 273.0 419.0Q256 458 256 503Q256 578 295.0 628.0Q334 678 400 707V731Q334 760 295.0 810.0Q256 860 256 935Q256 980 273.0 1019.0Q290 1058 319.5 1087.0Q349 1116 388.0 1133.0Q427 1150 472 1150H1118Q1118 1254 1158.0 1345.5Q1198 1437 1266.5 1505.5Q1335 1574 1426.5 1613.5Q1518 1653 1622 1653Q1724 1653 1815.0 1615.0Q1906 1577 1978 1505Q2061 1494 2134.5 1456.5Q2208 1419 2265.0 1362.0Q2322 1305 2359.5 1231.5Q2397 1158 2408 1075Z" style="fill:#000000;stroke:none" transform="scale(1,-1) translate(0,-256)" /></svg>