<?xml version="1.0" encoding="utf-8" ?>
<svg baseProfile="full" height="256" version="1.1" width="256" xmlns="http://www.w3.org/2000/svg" xmlns:ev="http://www.w3.org/2001/xml-events" xmlns:xlink="http://www.w3.org/1999/xlink"><defs /><path d="M2268 1006Q2340 952 2376.0 876.0Q2412 800 2412 710Q2412 670 2401.5 630.5Q2391 591 2371.5 555.0Q2352 519 2325.5 487.0Q2299 455 2268 431Q2268 357 2239.5 292.0Q2211 227 2162.0 178.0Q2113 129 2047.5 100.5Q1982 72 1909 72Q1858 5 1782.5 -33.5Q1707 -72 1622 -72Q1547 -72 1481.5 -43.5Q1416 -15 1367.5 33.5Q1319 82 1290.5 147.5Q1262 213 1262 288H1406Q1406 318 1394.5 344.0Q1383 370 1363.5 389.5Q1344 409 1318.0 420.0Q1292 431 1262 431H472Q443 431 421.5 452.5Q400 474 400 503Q400 533 421.0 554.0Q442 575 472 575H1514Q1529 575 1539.5 585.5Q1550 596 1550 611Q1550 626 1539.5 636.5Q1529 647 1514 647H615Q586 647 564.5 668.5Q543 690 543 719Q543 748 564.5 769.5Q586 791 615 791H1514Q1529 791 1539.5 801.5Q1550 812 1550 827Q1550 842 1539.5 852.5Q1529 863 1514 863H472Q442 863 421.0 884.0Q400 905 400 935Q400 964 421.5 985.0Q443 1006 472 1006H1262Q1292 1006 1318.0 1017.5Q1344 1029 1363.5 1048.5Q1383 1068 1394.5 1094.0Q1406 1120 1406 1150H1262Q1262 1225 1290.5 1290.5Q1319 1356 1367.5 1404.5Q1416 1453 1481.5 1481.5Q1547 1510 1622 1510Q1712 1510 1782.0 1471.5Q1852 1433 1909 1366Q1985 1364 2050.0 1336.5Q2115 1309 2163.0 1261.0Q2211 1213 2238.5 1147.5Q2266 1082 2268 1006Z" style="fill:#ffffff;stroke:none" transform="scale(1,-1) translate(0,-256)" /></svg>