<?xml version="1.0" encoding="utf-8" ?>
<svg baseProfile="full" height="256" version="1.1" width="256" xmlns="http://www.w3.org/2000/svg" xmlns:ev="http://www.w3.org/2001/xml-events" xmlns:xlink="http://www.w3.org/1999/xlink"><defs /><path d="M1693 1078Q1693 944 1642.5 826.0Q1592 708 1504.0 620.5Q1416 533 1298.5 482.0Q1181 431 1047 431Q958 431 875.0 454.0Q792 477 720.5 519.5Q649 562 590.0 621.0Q531 680 488.5 751.5Q446 823 423.0 906.0Q400 989 400 1078Q400 1167 423.0 1250.0Q446 1333 488.0 1405.0Q530 1477 589.0 1536.0Q648 1595 720.0 1637.0Q792 1679 874.5 1702.0Q957 1725 1047 1725Q1181 1725 1298.5 1674.0Q1416 1623 1504.0 1535.5Q1592 1448 1642.5 1330.0Q1693 1212 1693 1078ZM1693 575H1804L1550 321V431Z" style="fill:#cccccc;stroke:none" transform="scale(1,-1) translate(0,-256)" /></svg>