<?xml version="1.0" encoding="utf-8" ?>
<svg baseProfile="full" height="256" version="1.1" width="256" xmlns="http://www.w3.org/2000/svg" xmlns:ev="http://www.w3.org/2001/xml-events" xmlns:xlink="http://www.w3.org/1999/xlink"><defs /><path d="M472 1078Q472 1197 517.0 1302.0Q562 1407 640.0 1485.0Q718 1563 823.0 1608.0Q928 1653 1047 1653Q1166 1653 1270.5 1607.5Q1375 1562 1453.0 1484.0Q1531 1406 1576.5 1301.5Q1622 1197 1622 1078Q1622 959 1576.5 854.5Q1531 750 1453.0 672.0Q1375 594 1270.5 548.5Q1166 503 1047 503Q928 503 823.5 548.5Q719 594 641.0 672.0Q563 750 517.5 854.5Q472 959 472 1078Z" style="fill:#83beec;stroke:none" transform="scale(1,-1) translate(0,-256)" /></svg>