<?xml version="1.0" encoding="utf-8" ?>
<svg baseProfile="full" height="256" version="1.1" width="256" xmlns="http://www.w3.org/2000/svg" xmlns:ev="http://www.w3.org/2001/xml-events" xmlns:xlink="http://www.w3.org/1999/xlink"><defs /><path d="M1406 144Q1336 144 1253.5 150.0Q1171 156 1084.5 170.5Q998 185 911.0 207.5Q824 230 745.0 263.5Q666 297 599.0 341.0Q532 385 485 442Q447 489 423.5 536.5Q400 584 400 647Q400 709 423.5 757.5Q447 806 485 853Q531 910 598.5 954.0Q666 998 745.0 1031.0Q824 1064 911.0 1086.5Q998 1109 1085.0 1123.5Q1172 1138 1254.5 1144.0Q1337 1150 1406 1150Q1475 1150 1557.5 1144.0Q1640 1138 1727.0 1123.5Q1814 1109 1901.0 1086.5Q1988 1064 2067.5 1031.0Q2147 998 2213.5 954.0Q2280 910 2327 853Q2365 806 2388.5 757.5Q2412 709 2412 647Q2412 585 2388.5 536.5Q2365 488 2327 442Q2280 385 2213.0 341.0Q2146 297 2067.0 264.0Q1988 231 1901.0 208.0Q1814 185 1727.5 171.0Q1641 157 1558.5 150.5Q1476 144 1406 144ZM1406 1078Q1341 1078 1264.0 1072.0Q1187 1066 1105.5 1053.0Q1024 1040 942.0 1019.5Q860 999 785.0 968.5Q710 938 647.0 897.5Q584 857 539 805Q510 771 491.0 732.0Q472 693 472 647Q472 600 491.0 562.0Q510 524 539 489Q583 436 646.5 395.5Q710 355 784.5 324.5Q859 294 941.0 273.5Q1023 253 1104.5 240.0Q1186 227 1263.5 221.5Q1341 216 1406 216Q1471 216 1548.0 222.0Q1625 228 1707.0 241.0Q1789 254 1871.0 275.0Q1953 296 2027.5 326.5Q2102 357 2165.5 397.0Q2229 437 2273 489Q2302 523 2321.0 562.0Q2340 601 2340 647Q2340 693 2321.0 732.0Q2302 771 2273 805Q2229 857 2165.5 897.0Q2102 937 2027.5 967.5Q1953 998 1871.0 1019.0Q1789 1040 1707.0 1053.0Q1625 1066 1548.0 1072.0Q1471 1078 1406 1078Z" style="fill:#e5e5e5;stroke:none" transform="scale(1,-1) translate(0,-256)" /></svg>