<?xml version="1.0" encoding="utf-8" ?>
<svg baseProfile="full" height="256" version="1.1" width="256" xmlns="http://www.w3.org/2000/svg" xmlns:ev="http://www.w3.org/2001/xml-events" xmlns:xlink="http://www.w3.org/1999/xlink"><defs /><path d="M1406 1014Q1558 1014 1710.0 983.5Q1862 953 2002 894Q2032 881 2070.0 862.5Q2108 844 2147.5 820.5Q2187 797 2225.0 769.0Q2263 741 2293.0 709.0Q2323 677 2341.0 641.5Q2359 606 2359 569Q2359 559 2354.5 547.5Q2350 536 2344.0 524.5Q2338 513 2330.5 502.5Q2323 492 2317 485Q2272 544 2206.5 589.5Q2141 635 2063.0 669.0Q1985 703 1898.5 726.0Q1812 749 1726.0 763.5Q1640 778 1558.0 784.5Q1476 791 1406 791Q1336 791 1254.0 784.5Q1172 778 1086.0 763.5Q1000 749 913.5 726.0Q827 703 749.0 669.0Q671 635 605.5 589.5Q540 544 495 485Q489 493 481.5 504.0Q474 515 467.5 527.0Q461 539 457.0 551.0Q453 563 453 574Q453 628 485.5 676.0Q518 724 570.0 765.0Q622 806 688.0 840.0Q754 874 820.5 900.5Q887 927 948.0 945.0Q1009 963 1052 973Q1228 1014 1406 1014Z" style="fill:#383838;stroke:none" transform="scale(1,-1) translate(0,-256)" /></svg>