<?xml version="1.0" encoding="utf-8" ?>
<svg baseProfile="full" height="256" version="1.1" width="256" xmlns="http://www.w3.org/2000/svg" xmlns:ev="http://www.w3.org/2001/xml-events" xmlns:xlink="http://www.w3.org/1999/xlink"><defs /><path d="M565 413Q572 454 607.0 489.0Q642 524 692.5 553.0Q743 582 804.0 605.0Q865 628 925.0 645.5Q985 663 1038.5 674.5Q1092 686 1127 692Q1196 704 1265.5 710.5Q1335 717 1406 717Q1478 717 1548.0 710.0Q1618 703 1688 690Q1720 684 1772.5 672.0Q1825 660 1886.0 642.0Q1947 624 2009.5 600.5Q2072 577 2123.5 548.0Q2175 519 2208.5 485.0Q2242 451 2246 413Q2167 347 2063.5 302.5Q1960 258 1847.5 230.5Q1735 203 1620.5 191.5Q1506 180 1406 180Q1305 180 1191.0 191.5Q1077 203 964.5 230.5Q852 258 748.0 302.5Q644 347 565 413Z" style="fill:#000000;stroke:none" transform="scale(1,-1) translate(0,-256)" /></svg>