<?xml version="1.0" encoding="utf-8" ?>
<svg baseProfile="full" height="256" version="1.1" width="256" xmlns="http://www.w3.org/2000/svg" xmlns:ev="http://www.w3.org/2001/xml-events" xmlns:xlink="http://www.w3.org/1999/xlink"><defs /><path d="M2556 647Q2556 565 2525.0 494.5Q2494 424 2441.5 364.0Q2389 304 2320.0 255.5Q2251 207 2176.0 168.5Q2101 130 2025.0 102.5Q1949 75 1881 58Q1764 29 1645.5 14.5Q1527 0 1406 0Q1285 0 1166.5 14.5Q1048 29 931 58Q863 75 787.0 102.5Q711 130 636.0 168.5Q561 207 492.0 255.5Q423 304 370.5 364.0Q318 424 287.0 494.5Q256 565 256 647Q256 729 287.0 799.5Q318 870 370.5 930.0Q423 990 492.0 1038.5Q561 1087 636.0 1125.5Q711 1164 787.0 1191.5Q863 1219 931 1236Q1048 1265 1166.5 1279.5Q1285 1294 1406 1294Q1527 1294 1645.5 1279.5Q1764 1265 1881 1236Q1949 1219 2025.0 1191.5Q2101 1164 2176.0 1125.5Q2251 1087 2320.0 1038.5Q2389 990 2441.5 930.0Q2494 870 2525.0 799.5Q2556 729 2556 647ZM2412 647Q2412 715 2381.5 772.5Q2351 830 2301.0 877.5Q2251 925 2186.5 963.0Q2122 1001 2054.0 1030.0Q1986 1059 1919.0 1079.0Q1852 1099 1798 1110Q1701 1130 1603.5 1140.0Q1506 1150 1406 1150Q1306 1150 1208.5 1140.0Q1111 1130 1014 1110Q959 1098 892.5 1078.5Q826 1059 758.0 1030.0Q690 1001 625.5 963.0Q561 925 511.0 877.5Q461 830 430.5 772.5Q400 715 400 647Q400 579 430.5 521.5Q461 464 510.5 416.0Q560 368 624.5 330.0Q689 292 757.5 263.0Q826 234 892.5 214.0Q959 194 1014 183Q1207 144 1406 144Q1604 144 1798 183Q1853 194 1919.5 214.0Q1986 234 2054.5 263.0Q2123 292 2187.5 330.0Q2252 368 2301.5 416.0Q2351 464 2381.5 521.5Q2412 579 2412 647Z" style="fill:#000000;stroke:none" transform="scale(1,-1) translate(0,-256)" /></svg>