<?xml version="1.0" encoding="utf-8" ?>
<svg baseProfile="full" height="256" version="1.1" width="256" xmlns="http://www.w3.org/2000/svg" xmlns:ev="http://www.w3.org/2001/xml-events" xmlns:xlink="http://www.w3.org/1999/xlink"><defs /><path d="M1406 869Q1473 869 1544.5 861.0Q1616 853 1687.5 838.5Q1759 824 1828.5 803.5Q1898 783 1960 759Q1982 750 2017.0 735.5Q2052 721 2092.0 701.5Q2132 682 2172.5 658.5Q2213 635 2246.0 609.5Q2279 584 2299.5 557.0Q2320 530 2320 503Q2320 492 2312.0 479.5Q2304 467 2293.0 455.0Q2282 443 2270.0 432.5Q2258 422 2249 415L2246 413Q2166 479 2062.5 524.0Q1959 569 1847.0 596.0Q1735 623 1621.0 635.0Q1507 647 1406 647Q1305 647 1191.0 635.0Q1077 623 964.5 596.0Q852 569 748.0 524.0Q644 479 565 413Q528 445 495 485Q494 489 494 499Q494 543 528.0 582.5Q562 622 615.5 656.5Q669 691 735.5 720.0Q802 749 867.5 771.5Q933 794 990.0 809.5Q1047 825 1082 833Q1162 850 1243.0 859.5Q1324 869 1406 869Z" style="fill:#1f1f1f;stroke:none" transform="scale(1,-1) translate(0,-256)" /></svg>