<?xml version="1.0" encoding="utf-8" ?>
<svg baseProfile="full" height="256" version="1.1" width="256" xmlns="http://www.w3.org/2000/svg" xmlns:ev="http://www.w3.org/2001/xml-events" xmlns:xlink="http://www.w3.org/1999/xlink"><defs /><path d="M1406 935Q1314 935 1223.5 926.5Q1133 918 1042 901Q992 891 935.5 876.0Q879 861 820.5 839.5Q762 818 705.5 790.0Q649 762 600.0 727.0Q551 692 513.0 649.5Q475 607 454 557Q436 599 436 647Q436 709 465.0 762.0Q494 815 541.5 859.0Q589 903 649.5 938.0Q710 973 774.5 999.5Q839 1026 901.0 1044.5Q963 1063 1013 1074Q1110 1095 1208.0 1104.5Q1306 1114 1406 1114Q1506 1114 1604.0 1104.5Q1702 1095 1799 1074Q1849 1063 1911.0 1044.5Q1973 1026 2037.5 999.5Q2102 973 2162.5 938.0Q2223 903 2270.5 859.0Q2318 815 2347.0 762.5Q2376 710 2376 647Q2376 599 2358 557Q2337 607 2299.0 649.5Q2261 692 2212.0 727.0Q2163 762 2106.5 790.5Q2050 819 1992.0 840.5Q1934 862 1877.0 877.0Q1820 892 1770 901Q1679 918 1588.5 926.5Q1498 935 1406 935Z" style="fill:#757575;stroke:none" transform="scale(1,-1) translate(0,-256)" /></svg>