<?xml version="1.0" encoding="utf-8" ?>
<svg baseProfile="full" height="256" version="1.1" width="256" xmlns="http://www.w3.org/2000/svg" xmlns:ev="http://www.w3.org/2001/xml-events" xmlns:xlink="http://www.w3.org/1999/xlink"><defs /><path d="M1865 1127 1810 1173Q1855 1229 1918.0 1261.5Q1981 1294 2053 1294H2197L2232 1258L2197 1222Q2171 1222 2146.5 1222.5Q2122 1223 2096 1223Q2059 1223 2027.5 1219.0Q1996 1215 1968.0 1204.5Q1940 1194 1914.5 1175.0Q1889 1156 1865 1127ZM1937 983 1881 1029Q1926 1084 1989.5 1117.0Q2053 1150 2125 1150H2268L2296 1114L2268 1078Q2242 1078 2217.0 1078.5Q2192 1079 2166 1079Q2130 1079 2098.5 1075.0Q2067 1071 2039.0 1060.5Q2011 1050 1986.0 1031.5Q1961 1013 1937 983Z" style="fill:#e84757;stroke:none" transform="scale(1,-1) translate(0,-256)" /></svg>