<?xml version="1.0" encoding="utf-8" ?>
<svg baseProfile="full" height="256" version="1.1" width="256" xmlns="http://www.w3.org/2000/svg" xmlns:ev="http://www.w3.org/2001/xml-events" xmlns:xlink="http://www.w3.org/1999/xlink"><defs /><path d="M2197 0 2340 72 2390 -103 2340 -287 2197 -215H1778L1753 -195Q1675 -200 1597.5 -207.5Q1520 -215 1442 -215Q1343 -215 1249.0 -189.5Q1155 -164 1071.5 -117.5Q988 -71 917.5 -5.5Q847 60 796.0 140.0Q745 220 716.5 312.0Q688 404 688 503V539Q688 652 687.5 763.5Q687 875 687 988Q687 1081 668.0 1173.0Q649 1265 612.5 1350.5Q576 1436 522.5 1513.0Q469 1590 400 1653L678 1686Q713 1691 747.5 1697.0Q782 1703 817 1703Q849 1703 879.5 1697.0Q910 1691 942 1686L1191 1653Q1064 1538 991.0 1389.0Q918 1240 905 1069Q913 1060 924.0 1054.0Q935 1048 946 1044L988 1142Q1087 1217 1202.5 1255.5Q1318 1294 1442 1294Q1595 1294 1736 1235Q1775 1181 1822.5 1134.0Q1870 1087 1919 1042Q1975 991 2029.5 939.0Q2084 887 2138 833Q2197 692 2197 539Q2197 385 2138.0 246.5Q2079 108 1970 0L1986 -40L2067 0ZM903 539Q903 428 945.5 329.5Q988 231 1061.0 158.0Q1134 85 1232.5 42.5Q1331 0 1442 0Q1553 0 1651.5 42.5Q1750 85 1823.0 158.0Q1896 231 1938.5 329.5Q1981 428 1981 539Q1981 579 1976.0 620.5Q1971 662 1957 700Q1952 713 1947.0 725.0Q1942 737 1938 750Q1934 764 1932.5 778.0Q1931 792 1928 806Q1918 854 1903.0 900.5Q1888 947 1871 992L1856 994Q1804 1002 1753.0 1011.0Q1702 1020 1652 1036Q1623 1046 1598.5 1053.5Q1574 1061 1550.0 1066.5Q1526 1072 1500.0 1075.0Q1474 1078 1442 1078Q1370 1078 1302.0 1059.5Q1234 1041 1173.5 1006.0Q1113 971 1062.5 921.0Q1012 871 976 809Q962 817 948.5 827.0Q935 837 924 849Q917 771 910.0 694.0Q903 617 903 539Z" style="fill:#ffc83d;stroke:none" transform="scale(1,-1) translate(0,-256)" /></svg>