<?xml version="1.0" encoding="utf-8" ?>
<svg baseProfile="full" height="256" version="1.1" width="256" xmlns="http://www.w3.org/2000/svg" xmlns:ev="http://www.w3.org/2001/xml-events" xmlns:xlink="http://www.w3.org/1999/xlink"><defs /><path d="M590 -431 256 403V1581Q256 1640 282.5 1688.5Q309 1737 360 1766Q379 1800 404.5 1820.5Q430 1841 459.0 1852.0Q488 1863 521.5 1866.5Q555 1870 591 1870Q615 1870 639.5 1869.5Q664 1869 688 1869Q737 1869 776.5 1851.5Q816 1834 844.0 1804.0Q872 1774 887.5 1733.0Q903 1692 903 1644Q947 1631 980.0 1601.5Q1013 1572 1031 1530Q1140 1624 1273.0 1674.5Q1406 1725 1550 1725Q1659 1725 1760.0 1696.5Q1861 1668 1949.0 1616.5Q2037 1565 2109.0 1493.0Q2181 1421 2232.5 1333.0Q2284 1245 2312.5 1144.0Q2341 1043 2341 934V278Q2444 188 2500.0 65.5Q2556 -57 2556 -194V-431Z" style="fill:#000000;stroke:none" transform="scale(1,-1) translate(0,-256)" /></svg>