<?xml version="1.0" encoding="utf-8" ?>
<svg baseProfile="full" height="256" version="1.1" width="256" xmlns="http://www.w3.org/2000/svg" xmlns:ev="http://www.w3.org/2001/xml-events" xmlns:xlink="http://www.w3.org/1999/xlink"><defs /><path d="M759 1510Q771 1510 783.5 1510.5Q796 1511 808 1511Q825 1511 842.0 1509.0Q859 1507 873.0 1500.5Q887 1494 896.0 1481.5Q905 1469 905 1448Q905 1436 900.0 1423.5Q895 1411 886 1403L687 1222V1150H401V1581Q401 1613 421.0 1633.0Q441 1653 473 1653Q473 1685 492.5 1705.0Q512 1725 544 1725H688Q720 1725 739.5 1705.0Q759 1685 759 1653ZM1693 288Q1723 288 1744.0 267.0Q1765 246 1765 216Q1765 200 1757 184L1613 -103Q1604 -122 1587.5 -133.0Q1571 -144 1550 -144Q1530 -144 1512.0 -133.0Q1494 -122 1485 -104L1342 184Q1334 200 1334 216Q1334 246 1355.0 267.0Q1376 288 1406 288ZM1621 1294Q1649 1234 1695.0 1182.0Q1741 1130 1798.5 1091.0Q1856 1052 1921.0 1029.5Q1986 1007 2053 1007V864Q2053 760 2013.5 668.5Q1974 577 1905.5 508.5Q1837 440 1745.5 400.0Q1654 360 1550 360Q1446 360 1354.0 399.5Q1262 439 1194.0 507.5Q1126 576 1086.5 668.0Q1047 760 1047 864V1007Q1152 1008 1227.0 1064.0Q1302 1120 1332 1220Q1351 1183 1384.0 1156.5Q1417 1130 1456.5 1112.5Q1496 1095 1539.0 1086.5Q1582 1078 1621 1078Z" style="fill:#ffc83d;stroke:none" transform="scale(1,-1) translate(0,-256)" /></svg>