<?xml version="1.0" encoding="utf-8" ?>
<svg baseProfile="full" height="256" version="1.1" width="256" xmlns="http://www.w3.org/2000/svg" xmlns:ev="http://www.w3.org/2001/xml-events" xmlns:xlink="http://www.w3.org/1999/xlink"><defs /><path d="M1932 288Q2032 288 2119.5 250.0Q2207 212 2272.0 146.5Q2337 81 2374.5 -6.5Q2412 -94 2412 -194V-287H687L400 431V1150Q407 1169 424.0 1182.0Q441 1195 461.5 1203.0Q482 1211 504.0 1214.5Q526 1218 544 1218Q583 1218 614.0 1207.0Q645 1196 674 1168Q677 1165 681.5 1160.0Q686 1155 687 1150L831 431Q832 426 839.5 415.5Q847 405 850 400Q887 351 935.0 319.0Q983 287 1047 287Q1270 287 1489.5 287.5Q1709 288 1932 288Z" style="fill:#886ce4;stroke:none" transform="scale(1,-1) translate(0,-256)" /></svg>