<?xml version="1.0" encoding="utf-8" ?>
<svg baseProfile="full" height="256" version="1.1" width="256" xmlns="http://www.w3.org/2000/svg" xmlns:ev="http://www.w3.org/2001/xml-events" xmlns:xlink="http://www.w3.org/1999/xlink"><defs /><path d="M1693 647Q1693 617 1682.0 591.0Q1671 565 1651.5 545.5Q1632 526 1606.0 514.5Q1580 503 1550 503Q1520 503 1494.0 514.5Q1468 526 1448.5 545.5Q1429 565 1417.5 591.0Q1406 617 1406 647ZM1334 1006Q1363 1006 1384.5 985.0Q1406 964 1406 935V863Q1406 833 1385.0 812.0Q1364 791 1334 791Q1304 791 1283.0 812.0Q1262 833 1262 863V935Q1262 964 1283.5 985.0Q1305 1006 1334 1006ZM1765 1006Q1794 1006 1815.5 985.0Q1837 964 1837 935V863Q1837 833 1816.0 812.0Q1795 791 1765 791Q1736 791 1714.5 812.5Q1693 834 1693 863V935Q1693 964 1714.5 985.0Q1736 1006 1765 1006Z" style="fill:#000000;stroke:none" transform="scale(1,-1) translate(0,-256)" /></svg>