<?xml version="1.0" encoding="utf-8" ?>
<svg baseProfile="full" height="256" version="1.1" width="256" xmlns="http://www.w3.org/2000/svg" xmlns:ev="http://www.w3.org/2001/xml-events" xmlns:xlink="http://www.w3.org/1999/xlink"><defs /><path d="M1478 1725Q1577 1725 1669.0 1699.5Q1761 1674 1841.0 1627.0Q1921 1580 1986.5 1514.5Q2052 1449 2099.0 1369.0Q2146 1289 2171.5 1197.0Q2197 1105 2197 1006Q2167 1006 2141.0 1017.5Q2115 1029 2095.5 1048.5Q2076 1068 2064.5 1094.0Q2053 1120 2053 1150Q2053 1180 2041.5 1206.0Q2030 1232 2010.5 1251.5Q1991 1271 1965.0 1282.5Q1939 1294 1909 1294Q1876 1294 1853.5 1283.5Q1831 1273 1813.0 1257.0Q1795 1241 1779.5 1222.0Q1764 1203 1746.5 1187.0Q1729 1171 1706.0 1160.5Q1683 1150 1651 1150Q1618 1150 1595.5 1160.5Q1573 1171 1556.5 1187.0Q1540 1203 1526.5 1222.0Q1513 1241 1497.0 1257.0Q1481 1273 1459.5 1283.5Q1438 1294 1406 1294Q1374 1294 1352.5 1283.5Q1331 1273 1315.0 1257.0Q1299 1241 1285.5 1222.0Q1272 1203 1255.5 1187.0Q1239 1171 1216.5 1160.5Q1194 1150 1160 1150Q1128 1150 1105.5 1160.5Q1083 1171 1065.0 1187.0Q1047 1203 1031.5 1222.0Q1016 1241 997.5 1257.0Q979 1273 956.5 1283.5Q934 1294 902 1294Q872 1294 846.0 1282.5Q820 1271 800.5 1251.5Q781 1232 770.0 1206.0Q759 1180 759 1150Q759 1120 747.5 1094.0Q736 1068 716.5 1048.5Q697 1029 671.0 1017.5Q645 1006 615 1006Q615 1105 640.5 1197.0Q666 1289 713.0 1369.0Q760 1449 825.5 1514.5Q891 1580 971.0 1627.0Q1051 1674 1143.0 1699.5Q1235 1725 1334 1725Z" style="fill:#f03a17;stroke:none" transform="scale(1,-1) translate(0,-256)" /></svg>