<?xml version="1.0" encoding="utf-8" ?>
<svg baseProfile="full" height="256" version="1.1" width="256" xmlns="http://www.w3.org/2000/svg" xmlns:ev="http://www.w3.org/2001/xml-events" xmlns:xlink="http://www.w3.org/1999/xlink"><defs /><path d="M1011 791Q1033 791 1053.0 782.5Q1073 774 1087.0 759.0Q1101 744 1109.5 724.5Q1118 705 1118 683V539Q1118 517 1109.5 497.5Q1101 478 1086.5 463.0Q1072 448 1052.5 439.5Q1033 431 1011 431Q989 431 969.5 439.5Q950 448 935.0 463.0Q920 478 911.5 497.5Q903 517 903 539V683Q903 705 911.5 725.0Q920 745 934.5 759.5Q949 774 968.5 782.5Q988 791 1011 791ZM1801 791Q1823 791 1843.0 782.5Q1863 774 1877.5 759.5Q1892 745 1900.5 725.0Q1909 705 1909 683V539Q1909 517 1900.5 497.5Q1892 478 1877.0 463.0Q1862 448 1842.5 439.5Q1823 431 1801 431Q1779 431 1759.5 439.5Q1740 448 1725.0 463.0Q1710 478 1701.5 497.5Q1693 517 1693 539V683Q1693 705 1701.5 724.5Q1710 744 1725.0 759.0Q1740 774 1759.5 782.5Q1779 791 1801 791Z" style="fill:#000000;stroke:none" transform="scale(1,-1) translate(0,-256)" /></svg>