<?xml version="1.0" encoding="utf-8" ?>
<svg baseProfile="full" height="256" version="1.1" width="256" xmlns="http://www.w3.org/2000/svg" xmlns:ev="http://www.w3.org/2001/xml-events" xmlns:xlink="http://www.w3.org/1999/xlink"><defs /><path d="M1406 -431Q1239 -431 1086.5 -375.0Q934 -319 807 -212Q690 -201 589.5 -148.5Q489 -96 414.5 -14.0Q340 68 298.0 173.5Q256 279 256 396V899Q256 954 273.5 1004.5Q291 1055 323.0 1096.0Q355 1137 399.0 1167.0Q443 1197 496 1211Q531 1356 610.5 1477.0Q690 1598 801.0 1685.0Q912 1772 1048.5 1820.5Q1185 1869 1334 1869H1478Q1627 1869 1763.5 1820.5Q1900 1772 2011.0 1685.0Q2122 1598 2201.5 1477.0Q2281 1356 2316 1211Q2369 1197 2413.0 1167.0Q2457 1137 2489.0 1096.0Q2521 1055 2538.5 1004.5Q2556 954 2556 899V396Q2556 279 2514.0 173.5Q2472 68 2397.5 -14.0Q2323 -96 2222.5 -148.5Q2122 -201 2005 -212Q1878 -319 1725.5 -375.0Q1573 -431 1406 -431Z" style="fill:#000000;stroke:none" transform="scale(1,-1) translate(0,-256)" /></svg>