<?xml version="1.0" encoding="utf-8" ?>
<svg baseProfile="full" height="256" version="1.1" width="256" xmlns="http://www.w3.org/2000/svg" xmlns:ev="http://www.w3.org/2001/xml-events" xmlns:xlink="http://www.w3.org/1999/xlink"><defs /><path d="M2053 575H2125V467Q2125 427 2111.5 394.0Q2098 361 2074.0 337.5Q2050 314 2017.0 301.0Q1984 288 1945 288H1658Q1619 288 1586.0 301.0Q1553 314 1529.0 337.5Q1505 361 1491.5 394.0Q1478 427 1478 467V503Q1478 533 1457.0 554.0Q1436 575 1406 575Q1376 575 1355.0 554.0Q1334 533 1334 503V467Q1334 427 1320.5 394.0Q1307 361 1283.0 337.5Q1259 314 1226.0 301.0Q1193 288 1154 288H867Q828 288 795.0 301.0Q762 314 738.0 337.5Q714 361 700.5 394.0Q687 427 687 467V575H759Q759 558 758.5 540.0Q758 522 758 505Q758 476 762.0 449.5Q766 423 777.5 403.0Q789 383 810.5 371.5Q832 360 867 360H1154Q1190 360 1211.5 371.0Q1233 382 1244.5 401.5Q1256 421 1259.0 447.0Q1262 473 1262 503Q1262 533 1273.5 559.0Q1285 585 1304.5 604.5Q1324 624 1350.0 635.5Q1376 647 1406 647Q1436 647 1462.0 635.5Q1488 624 1507.5 604.5Q1527 585 1538.5 559.0Q1550 533 1550 503Q1550 473 1553.0 447.0Q1556 421 1567.5 401.5Q1579 382 1600.5 371.0Q1622 360 1658 360H1945Q1981 360 2003.0 372.5Q2025 385 2036.0 405.0Q2047 425 2050.5 451.5Q2054 478 2054 505Q2054 523 2053.5 540.5Q2053 558 2053 575Z" style="fill:#757575;stroke:none" transform="scale(1,-1) translate(0,-256)" /></svg>