<?xml version="1.0" encoding="utf-8" ?>
<svg baseProfile="full" height="256" version="1.1" width="256" xmlns="http://www.w3.org/2000/svg" xmlns:ev="http://www.w3.org/2001/xml-events" xmlns:xlink="http://www.w3.org/1999/xlink"><defs /><path d="M2142 1078H2233Q2270 1078 2302.5 1064.0Q2335 1050 2359.5 1025.5Q2384 1001 2398.0 968.5Q2412 936 2412 899V396Q2412 299 2375.5 214.0Q2339 129 2275.5 65.5Q2212 2 2127.0 -35.0Q2042 -72 1945 -72H867Q770 -72 685.0 -35.0Q600 2 536.5 65.5Q473 129 436.5 214.0Q400 299 400 396V899Q400 936 414.0 968.5Q428 1001 452.5 1025.5Q477 1050 509.5 1064.0Q542 1078 579 1078H670Q714 1192 788.5 1285.0Q863 1378 960.0 1443.5Q1057 1509 1170.5 1545.0Q1284 1581 1406 1581Q1528 1581 1641.5 1545.0Q1755 1509 1852.0 1443.5Q1949 1378 2023.5 1285.0Q2098 1192 2142 1078Z" style="fill:#e5e5e5;stroke:none" transform="scale(1,-1) translate(0,-256)" /></svg>