<?xml version="1.0" encoding="utf-8" ?>
<svg baseProfile="full" height="256" version="1.1" width="256" xmlns="http://www.w3.org/2000/svg" xmlns:ev="http://www.w3.org/2001/xml-events" xmlns:xlink="http://www.w3.org/1999/xlink"><defs /><path d="M2197 935Q2152 935 2113.0 952.0Q2074 969 2044.5 998.0Q2015 1027 1998.0 1066.0Q1981 1105 1981 1150Q1981 1180 1960.0 1200.5Q1939 1221 1909 1221Q1890 1221 1874.0 1210.5Q1858 1200 1842.5 1184.0Q1827 1168 1809.5 1149.5Q1792 1131 1769.5 1115.0Q1747 1099 1718.0 1088.5Q1689 1078 1650 1078Q1609 1078 1580.0 1088.5Q1551 1099 1530.0 1115.0Q1509 1131 1494.0 1150.0Q1479 1169 1465.5 1185.0Q1452 1201 1438.0 1211.5Q1424 1222 1406 1222Q1387 1222 1373.5 1211.5Q1360 1201 1347.0 1185.0Q1334 1169 1319.0 1150.0Q1304 1131 1283.0 1115.0Q1262 1099 1232.5 1088.5Q1203 1078 1160 1078Q1120 1078 1091.0 1088.5Q1062 1099 1040.0 1115.0Q1018 1131 1001.5 1149.5Q985 1168 969.5 1184.0Q954 1200 938.5 1210.5Q923 1221 903 1221Q873 1221 852.0 1200.5Q831 1180 831 1150Q831 1105 814.0 1066.0Q797 1027 767.5 998.0Q738 969 699.0 952.0Q660 935 615 935Q586 935 564.5 956.0Q543 977 543 1006Q543 1035 564.5 1056.5Q586 1078 615 1078Q644 1078 665.5 1099.5Q687 1121 687 1150Q687 1195 704.0 1234.5Q721 1274 750.0 1302.5Q779 1331 818.5 1347.5Q858 1364 903 1364Q942 1364 971.5 1353.5Q1001 1343 1023.5 1327.0Q1046 1311 1063.5 1293.0Q1081 1275 1096.5 1259.0Q1112 1243 1127.0 1232.5Q1142 1222 1160 1222Q1180 1222 1194.5 1232.5Q1209 1243 1223.0 1259.0Q1237 1275 1252.5 1294.0Q1268 1313 1288.5 1329.0Q1309 1345 1337.5 1355.5Q1366 1366 1406 1366Q1446 1366 1474.5 1355.5Q1503 1345 1523.5 1329.0Q1544 1313 1559.0 1294.0Q1574 1275 1588.0 1259.0Q1602 1243 1616.5 1232.5Q1631 1222 1651 1222Q1669 1222 1685.0 1232.5Q1701 1243 1716.5 1259.0Q1732 1275 1750.0 1293.0Q1768 1311 1790.5 1327.0Q1813 1343 1842.0 1353.5Q1871 1364 1910 1364Q1955 1364 1994.0 1347.5Q2033 1331 2062.5 1302.0Q2092 1273 2108.5 1234.0Q2125 1195 2125 1150Q2125 1121 2146.5 1099.5Q2168 1078 2197 1078Q2226 1078 2247.0 1056.5Q2268 1035 2268 1006Q2268 977 2247.0 956.0Q2226 935 2197 935Z" style="fill:#ffffff;stroke:none" transform="scale(1,-1) translate(0,-256)" /></svg>