<?xml version="1.0" encoding="utf-8" ?>
<svg baseProfile="full" height="256" version="1.1" width="256" xmlns="http://www.w3.org/2000/svg" xmlns:ev="http://www.w3.org/2001/xml-events" xmlns:xlink="http://www.w3.org/1999/xlink"><defs /><path d="M1826 1278 1999 1267Q2026 1237 2043.0 1211.5Q2060 1186 2072.5 1160.5Q2085 1135 2097.0 1107.0Q2109 1079 2125 1044V175Q2077 70 2002.0 -15.5Q1927 -101 1833.5 -161.5Q1740 -222 1631.0 -254.5Q1522 -287 1406 -287Q1290 -287 1181.0 -254.5Q1072 -222 978.5 -161.5Q885 -101 810.0 -15.5Q735 70 687 175V863H1056Q1166 863 1269.5 895.5Q1373 928 1464 991Q1487 1007 1507.5 1024.5Q1528 1042 1550 1059Q1586 1087 1622.0 1112.0Q1658 1137 1693.0 1162.0Q1728 1187 1762.0 1215.0Q1796 1243 1826 1278Z" style="fill:#ffc83d;stroke:none" transform="scale(1,-1) translate(0,-256)" /></svg>