<?xml version="1.0" encoding="utf-8" ?>
<svg baseProfile="full" height="256" version="1.1" width="256" xmlns="http://www.w3.org/2000/svg" xmlns:ev="http://www.w3.org/2001/xml-events" xmlns:xlink="http://www.w3.org/1999/xlink"><defs /><path d="M1406 72Q1443 72 1476.0 83.0Q1509 94 1536.5 107.5Q1564 121 1585.5 132.5Q1607 144 1622 144Q1651 144 1672.5 122.5Q1694 101 1694 72Q1694 48 1678.0 28.0Q1662 8 1636.0 -8.0Q1610 -24 1578.0 -36.0Q1546 -48 1514.0 -56.0Q1482 -64 1453.5 -68.0Q1425 -72 1406 -72Q1387 -72 1358.5 -68.0Q1330 -64 1298.0 -56.0Q1266 -48 1234.0 -36.0Q1202 -24 1176.0 -8.0Q1150 8 1134.0 28.0Q1118 48 1118 72Q1118 101 1139.5 122.5Q1161 144 1190 144Q1205 144 1226.5 132.5Q1248 121 1275.5 107.5Q1303 94 1335.5 83.0Q1368 72 1406 72Z" style="fill:#f03a17;stroke:none" transform="scale(1,-1) translate(0,-256)" /></svg>