<?xml version="1.0" encoding="utf-8" ?>
<svg baseProfile="full" height="256" version="1.1" width="256" xmlns="http://www.w3.org/2000/svg" xmlns:ev="http://www.w3.org/2001/xml-events" xmlns:xlink="http://www.w3.org/1999/xlink"><defs /><path d="M1406 1653H1495L1513 1420L1190 1366Q1190 1425 1166.0 1478.0Q1142 1531 1097 1569Q1170 1611 1245.5 1632.0Q1321 1653 1406 1653ZM1891 1572Q1995 1523 2081 1452L1765 1294L1622 1438ZM2245 1282Q2274 1244 2299.0 1202.5Q2324 1161 2344 1116L2113 1000L1981 1150ZM2412 647H2125L2018 719L2125 791H2412ZM2412 -72H2125L2045 0L2125 72H2412ZM2412 288H2125L2045 360L2125 431H2412Z" style="fill:#a6a6a6;stroke:none" transform="scale(1,-1) translate(0,-256)" /></svg>