<?xml version="1.0" encoding="utf-8" ?>
<svg baseProfile="full" height="256" version="1.1" width="256" xmlns="http://www.w3.org/2000/svg" xmlns:ev="http://www.w3.org/2001/xml-events" xmlns:xlink="http://www.w3.org/1999/xlink"><defs /><path d="M831 506 1010 330Q1062 279 1090.0 211.5Q1118 144 1118 72Q1118 -3 1090.0 -68.0Q1062 -133 1013.0 -182.0Q964 -231 899.0 -259.0Q834 -287 759 -287Q684 -287 619.0 -259.0Q554 -231 505.0 -182.0Q456 -133 428.0 -68.0Q400 -3 400 72Q400 102 404.0 127.5Q408 153 415.5 176.5Q423 200 434.5 223.0Q446 246 460 272L831 957Z" style="fill:#383838;stroke:none" transform="scale(1,-1) translate(0,-256)" /></svg>