<?xml version="1.0" encoding="utf-8" ?>
<svg baseProfile="full" height="256" version="1.1" width="256" xmlns="http://www.w3.org/2000/svg" xmlns:ev="http://www.w3.org/2001/xml-events" xmlns:xlink="http://www.w3.org/1999/xlink"><defs /><path d="M1645 1788Q1684 1782 1723.0 1774.5Q1762 1767 1800 1757Q1903 1730 1999.0 1679.5Q2095 1629 2179.0 1559.0Q2263 1489 2332.5 1403.5Q2402 1318 2451.5 1221.5Q2501 1125 2528.5 1020.0Q2556 915 2556 808V-431H1188L1404 72H1322L1258 9Q1246 -86 1202.5 -166.5Q1159 -247 1092.0 -306.0Q1025 -365 939.5 -398.0Q854 -431 759 -431Q655 -431 563.0 -391.5Q471 -352 403.0 -284.0Q335 -216 295.5 -124.0Q256 -32 256 72Q256 113 261.0 147.0Q266 181 276.5 213.0Q287 245 301.5 276.5Q316 308 336 344L851 1297Q866 1324 879.0 1347.5Q892 1371 906.5 1392.5Q921 1414 938.5 1435.5Q956 1457 980 1480L852 1592Q912 1627 965.0 1659.5Q1018 1692 1072.0 1718.5Q1126 1745 1184.0 1764.0Q1242 1783 1312 1791Q1343 1828 1386.5 1848.5Q1430 1869 1478 1869Q1526 1869 1571.0 1847.5Q1616 1826 1645 1788Z" style="fill:#000000;stroke:none" transform="scale(1,-1) translate(0,-256)" /></svg>