<?xml version="1.0" encoding="utf-8" ?>
<svg baseProfile="full" height="256" version="1.1" width="256" xmlns="http://www.w3.org/2000/svg" xmlns:ev="http://www.w3.org/2001/xml-events" xmlns:xlink="http://www.w3.org/1999/xlink"><defs /><path d="M629 0 764 638Q774 684 780.5 722.5Q787 761 794.0 798.0Q801 835 809.5 873.0Q818 911 831 957Q831 958 841.5 977.0Q852 996 867.0 1024.0Q882 1052 899.5 1084.5Q917 1117 933.0 1146.5Q949 1176 960.5 1197.0Q972 1218 975 1224L979 1231Q990 1251 1000.0 1269.5Q1010 1288 1021.0 1305.0Q1032 1322 1045.5 1339.0Q1059 1356 1076 1373Q1142 1439 1227.0 1474.5Q1312 1510 1406 1510V1653Q1406 1683 1427.0 1704.0Q1448 1725 1478 1725Q1495 1725 1508.0 1718.0Q1521 1711 1532 1699L1703 1516Q1721 1496 1736.5 1478.5Q1752 1461 1764.0 1441.5Q1776 1422 1783.0 1399.5Q1790 1377 1791 1349L1833 1322Q1884 1290 1928.0 1260.0Q1972 1230 2007.5 1193.5Q2043 1157 2070.0 1110.5Q2097 1064 2113 1000L1693 791H2125V647L1693 431H2125V-72L1693 -287H1406L1504 -59L2053 216H1262L1118 72Z" style="fill:#ffffff;stroke:none" transform="scale(1,-1) translate(0,-256)" /></svg>