<?xml version="1.0" encoding="utf-8" ?>
<svg baseProfile="full" height="256" version="1.1" width="256" xmlns="http://www.w3.org/2000/svg" xmlns:ev="http://www.w3.org/2001/xml-events" xmlns:xlink="http://www.w3.org/1999/xlink"><defs /><path d="M473 1366Q499 1398 536.5 1418.0Q574 1438 616 1438Q691 1438 756.5 1409.5Q822 1381 870.5 1332.5Q919 1284 947.5 1218.5Q976 1153 976 1078Q976 1005 990 929L1048 1006L1371 731L1694 1006Q1739 1006 1778.0 989.0Q1817 972 1846.5 943.0Q1876 914 1893.0 875.0Q1910 836 1910 791Q1910 727 1880.5 671.0Q1851 615 1802 575L1982 216L1766 108L1838 36L1730 -72Q1707 -49 1684.0 -28.0Q1661 -7 1641 18Q1630 32 1626.5 43.0Q1623 54 1623 72Q1623 90 1626.5 101.0Q1630 112 1641 126Q1669 160 1702.0 190.5Q1735 221 1766 252L1515 503H1048L976 360H544V180L616 108L508 0Q485 23 462.0 44.0Q439 65 419 90Q408 104 404.5 115.0Q401 126 401 144V431Q401 461 422.0 482.0Q443 503 473 503H616V575L690 647L616 719V791L688 1078L658 1107L590 1037L616 1006V971Q616 948 607.5 928.5Q599 909 584.5 894.5Q570 880 550.0 871.5Q530 863 508 863Q485 863 465.5 871.5Q446 880 432.0 895.0Q418 910 409.5 929.5Q401 949 401 971V1006L431 1044L401 1078V1294L431 1332L401 1366V1438Q430 1438 451.5 1416.5Q473 1395 473 1366Z" style="fill:#f2f2f2;stroke:none" transform="scale(1,-1) translate(0,-256)" /></svg>