<?xml version="1.0" encoding="utf-8" ?>
<svg baseProfile="full" height="256" version="1.1" width="256" xmlns="http://www.w3.org/2000/svg" xmlns:ev="http://www.w3.org/2001/xml-events" xmlns:xlink="http://www.w3.org/1999/xlink"><defs /><path d="M1263 926H1191V1144Q1190 1115 1178.5 1090.0Q1167 1065 1147.5 1046.0Q1128 1027 1102.5 1016.5Q1077 1006 1048 1006H904V1150H832V1294H760L616 1438H1048Q1048 1409 1037.0 1383.5Q1026 1358 1007.5 1338.5Q989 1319 963.5 1307.0Q938 1295 910 1294H1119Q1119 1265 1108.5 1239.5Q1098 1214 1079.5 1194.5Q1061 1175 1036.0 1163.0Q1011 1151 982 1150H1191V1725H1263ZM2341 431Q2341 402 2319.5 381.0Q2298 360 2269 360H2198Q2168 360 2142.0 371.0Q2116 382 2096.5 401.5Q2077 421 2065.5 447.0Q2054 473 2054 503V719Q2054 749 2033.0 770.0Q2012 791 1982 791H1838V863H2054Q2084 863 2110.0 851.5Q2136 840 2155.5 820.5Q2175 801 2186.5 775.0Q2198 749 2198 719V503Q2198 479 2207.5 464.5Q2217 450 2232.0 442.5Q2247 435 2266.0 433.0Q2285 431 2304 431H2324ZM1191 -287V583H1263V-287Z" style="fill:#ffb900;stroke:none" transform="scale(1,-1) translate(0,-256)" /></svg>