<?xml version="1.0" encoding="utf-8" ?>
<svg baseProfile="full" height="256" version="1.1" width="256" xmlns="http://www.w3.org/2000/svg" xmlns:ev="http://www.w3.org/2001/xml-events" xmlns:xlink="http://www.w3.org/1999/xlink"><defs /><path d="M1551 1078Q1580 1078 1601.5 1056.5Q1623 1035 1623 1006V791H1479V755Q1479 732 1470.5 712.5Q1462 693 1447.5 678.5Q1433 664 1413.0 655.5Q1393 647 1371 647Q1348 647 1328.5 655.5Q1309 664 1294.5 678.5Q1280 693 1271.5 712.5Q1263 732 1263 755V791H1119V1006H1479Q1508 1006 1529.5 1027.5Q1551 1049 1551 1078ZM976 1078Q976 1048 997.0 1027.0Q1018 1006 1048 1006Q1048 916 1014.0 837.5Q980 759 921.5 700.5Q863 642 784.5 608.5Q706 575 616 575V719Q690 719 755.5 747.5Q821 776 870.0 824.5Q919 873 947.5 938.5Q976 1004 976 1078Z" style="fill:#00bcf2;stroke:none" transform="scale(1,-1) translate(0,-256)" /></svg>