<?xml version="1.0" encoding="utf-8" ?>
<svg baseProfile="full" height="256" version="1.1" width="256" xmlns="http://www.w3.org/2000/svg" xmlns:ev="http://www.w3.org/2001/xml-events" xmlns:xlink="http://www.w3.org/1999/xlink"><defs /><path d="M760 360 688 216V180L760 108L652 0Q634 18 617.5 38.0Q601 58 580 72L472 145L544 216Q557 229 565.5 248.5Q574 268 581.5 289.0Q589 310 596.5 329.0Q604 348 616 360L685 430ZM2054 72H1910Q1896 72 1882.5 79.5Q1869 87 1859 97L1745 212Q1805 213 1863.5 214.5Q1922 216 1982 216H2054ZM1982 431Q1959 386 1937.0 341.5Q1915 297 1892 252L1712 503H1838Z" style="fill:#cccccc;stroke:none" transform="scale(1,-1) translate(0,-256)" /></svg>