<?xml version="1.0" encoding="utf-8" ?>
<svg baseProfile="full" height="256" version="1.1" width="256" xmlns="http://www.w3.org/2000/svg" xmlns:ev="http://www.w3.org/2001/xml-events" xmlns:xlink="http://www.w3.org/1999/xlink"><defs /><path d="M1407 1222Q1433 1222 1457.5 1223.0Q1482 1224 1507 1224Q1564 1224 1615.5 1211.0Q1667 1198 1712 1150Q1792 1146 1862.5 1108.0Q1933 1070 1981 1006H2054Q2113 1006 2165.5 983.5Q2218 961 2257.0 922.0Q2296 883 2318.5 830.5Q2341 778 2341 719V575H2485V431Q2485 387 2468.0 347.5Q2451 308 2421.5 279.0Q2392 250 2352.5 233.0Q2313 216 2269 216H2198V-72H1934L1730 -275L1539 -83Q1508 -52 1493.5 -11.5Q1479 29 1479 72Q1479 131 1500.0 171.5Q1521 212 1563 252L1455 360H1407V-431H1048V216H856L963 108L652 -203L580 -131L508 -203L317 -12Q286 19 271.5 60.0Q257 101 257 144V431Q257 476 274.0 515.0Q291 554 320.5 583.5Q350 613 389.0 630.0Q428 647 473 647V721Q426 728 386.5 750.5Q347 773 318.5 806.0Q290 839 273.5 881.5Q257 924 257 971V1581Q282 1581 306.5 1582.0Q331 1583 357 1583Q393 1583 429.0 1578.5Q465 1574 498 1558Q556 1581 616 1581H1048V1869H1407Z" style="fill:#000000;stroke:none" transform="scale(1,-1) translate(0,-256)" /></svg>