<?xml version="1.0" encoding="utf-8" ?>
<svg baseProfile="full" height="256" version="1.1" width="256" xmlns="http://www.w3.org/2000/svg" xmlns:ev="http://www.w3.org/2001/xml-events" xmlns:xlink="http://www.w3.org/1999/xlink"><defs /><path d="M1263 891H1479L1623 1006H1694V719H1547Q1541 688 1524.5 661.5Q1508 635 1484.5 616.0Q1461 597 1431.5 586.0Q1402 575 1371 575Q1339 575 1310.0 586.0Q1281 597 1257.5 616.0Q1234 635 1217.5 661.5Q1201 688 1195 719H1048V1006H1119ZM401 1366Q461 1366 513.0 1343.5Q565 1321 604.0 1282.0Q643 1243 665.5 1190.5Q688 1138 688 1078Q658 1078 637.0 1057.0Q616 1036 616 1006H401V1078H616Q616 1123 599.0 1162.0Q582 1201 553.0 1230.5Q524 1260 485.0 1277.0Q446 1294 401 1294Z" style="fill:#f03a17;stroke:none" transform="scale(1,-1) translate(0,-256)" /></svg>