<?xml version="1.0" encoding="utf-8" ?>
<svg baseProfile="full" height="256" version="1.1" width="256" xmlns="http://www.w3.org/2000/svg" xmlns:ev="http://www.w3.org/2001/xml-events" xmlns:xlink="http://www.w3.org/1999/xlink"><defs /><path d="M1683 1006H2089Q2156 1006 2214.5 980.5Q2273 955 2317.0 911.0Q2361 867 2386.5 808.5Q2412 750 2412 683V503Q2412 425 2373.5 359.0Q2335 293 2268 254L2209 160Q2193 164 2159.5 173.0Q2126 182 2090.0 191.5Q2054 201 2023.0 208.5Q1992 216 1981 216H1680Q1668 184 1648.0 157.5Q1628 131 1601.5 112.0Q1575 93 1543.5 82.5Q1512 72 1478 72H1334L1217 22L1118 72H1047Q1002 72 963.0 89.0Q924 106 894.5 135.5Q865 165 848.0 204.0Q831 243 831 288V399Q764 437 725.5 503.5Q687 570 687 647V863Q687 893 695.5 924.5Q704 956 710 985Q722 1050 733.5 1107.5Q745 1165 759 1222Q729 1222 708.0 1243.0Q687 1264 687 1294Q687 1324 708.0 1345.0Q729 1366 759 1366H975Q1005 1366 1031.0 1354.5Q1057 1343 1076.5 1323.5Q1096 1304 1107.0 1278.0Q1118 1252 1118 1222H1406Q1455 1222 1499.5 1206.0Q1544 1190 1581.0 1161.5Q1618 1133 1644.5 1093.0Q1671 1053 1683 1006Z" style="fill:#ffffff;stroke:none" transform="scale(1,-1) translate(0,-256)" /></svg>