<?xml version="1.0" encoding="utf-8" ?>
<svg baseProfile="full" height="256" version="1.1" width="256" xmlns="http://www.w3.org/2000/svg" xmlns:ev="http://www.w3.org/2001/xml-events" xmlns:xlink="http://www.w3.org/1999/xlink"><defs /><path d="M831 1222Q876 1222 915.0 1205.0Q954 1188 983.5 1158.5Q1013 1129 1030.0 1090.0Q1047 1051 1047 1006Q1047 961 1030.0 922.0Q1013 883 983.5 854.0Q954 825 915.0 808.0Q876 791 831 791H543Q505 791 472.0 810.5Q439 830 420 863L444 905L400 935L615 1150Q628 1163 645.0 1176.0Q662 1189 680.5 1199.0Q699 1209 719.0 1215.5Q739 1222 759 1222ZM1981 216Q2007 216 2031.5 215.5Q2056 215 2082 215Q2130 215 2178.0 222.0Q2226 229 2268 254V-287H2125V72ZM1118 72H1334V0L1262 -72V-287H1118Z" style="fill:#757575;stroke:none" transform="scale(1,-1) translate(0,-256)" /></svg>