<?xml version="1.0" encoding="utf-8" ?>
<svg baseProfile="full" height="256" version="1.1" width="256" xmlns="http://www.w3.org/2000/svg" xmlns:ev="http://www.w3.org/2001/xml-events" xmlns:xlink="http://www.w3.org/1999/xlink"><defs /><path d="M1778 1150H2089Q2185 1150 2270.0 1113.0Q2355 1076 2418.5 1012.5Q2482 949 2519.0 864.0Q2556 779 2556 683Q2556 657 2556.5 630.5Q2557 604 2557 578Q2557 517 2552.0 464.0Q2547 411 2532.0 362.5Q2517 314 2488.5 270.0Q2460 226 2412 183V-431H1981V13L1921 72H1764Q1710 -3 1633.0 -37.5Q1556 -72 1465 -72L1406 -131V-431H975V-65Q912 -52 859.5 -19.5Q807 13 768.5 60.5Q730 108 708.5 166.0Q687 224 687 288V327Q618 388 580.5 471.5Q543 555 543 647Q484 647 432.0 670.0Q380 693 341.0 732.5Q302 772 279.0 824.0Q256 876 256 935V994L514 1252Q522 1260 529.0 1266.5Q536 1273 544 1279Q544 1327 559.0 1369.0Q574 1411 601.5 1442.5Q629 1474 669.0 1492.0Q709 1510 759 1510H975Q1053 1510 1119.0 1471.5Q1185 1433 1224 1366H1406Q1464 1366 1518.5 1351.0Q1573 1336 1621.0 1308.0Q1669 1280 1709.0 1240.0Q1749 1200 1778 1150Z" style="fill:#000000;stroke:none" transform="scale(1,-1) translate(0,-256)" /></svg>