<?xml version="1.0" encoding="utf-8" ?>
<svg baseProfile="full" height="256" version="1.1" width="256" xmlns="http://www.w3.org/2000/svg" xmlns:ev="http://www.w3.org/2001/xml-events" xmlns:xlink="http://www.w3.org/1999/xlink"><defs /><path d="M2256 247Q2291 265 2319.0 291.5Q2347 318 2367.5 350.0Q2388 382 2399.5 419.0Q2411 456 2412 495V360Q2412 271 2389.0 188.0Q2366 105 2323.5 33.5Q2281 -38 2222.0 -97.0Q2163 -156 2091.5 -198.5Q2020 -241 1937.0 -264.0Q1854 -287 1765 -287H831Q801 -287 780.0 -266.0Q759 -245 759 -215Q759 -185 780.5 -164.5Q802 -144 831 -144H1765Q1853 -144 1933.0 -115.0Q2013 -86 2078.5 -34.0Q2144 18 2190.0 89.5Q2236 161 2256 247ZM1154 1438Q1191 1438 1224.0 1424.0Q1257 1410 1281.5 1385.5Q1306 1361 1320.0 1328.0Q1334 1295 1334 1258Q1334 1220 1320.0 1187.5Q1306 1155 1281.5 1130.5Q1257 1106 1224.0 1092.0Q1191 1078 1154 1078H975V1258Q975 1295 989.0 1328.0Q1003 1361 1027.5 1385.5Q1052 1410 1084.5 1424.0Q1117 1438 1154 1438ZM1180 360H1406L1262 72H903Q903 102 914.5 128.0Q926 154 945.5 173.5Q965 193 991.0 204.5Q1017 216 1047 216H1118ZM1478 72Q1478 102 1489.5 128.0Q1501 154 1520.5 173.5Q1540 193 1566.0 204.5Q1592 216 1622 216H2125Q2125 186 2113.5 160.0Q2102 134 2082.5 114.5Q2063 95 2037.0 83.5Q2011 72 1981 72ZM432 1078Q400 1147 400 1222H615Q615 1192 604.0 1166.0Q593 1140 573.5 1120.5Q554 1101 528.0 1089.5Q502 1078 472 1078Z" style="fill:#ee9889;stroke:none" transform="scale(1,-1) translate(0,-256)" /></svg>