<?xml version="1.0" encoding="utf-8" ?>
<svg baseProfile="full" height="256" version="1.1" width="256" xmlns="http://www.w3.org/2000/svg" xmlns:ev="http://www.w3.org/2001/xml-events" xmlns:xlink="http://www.w3.org/1999/xlink"><defs /><path d="M1909 1222Q2013 1222 2104.5 1182.5Q2196 1143 2264.5 1074.5Q2333 1006 2372.5 914.5Q2412 823 2412 719V503Q2412 442 2402.5 382.5Q2393 323 2382 263Q2350 258 2317.5 256.0Q2285 254 2253 246Q2242 243 2233.0 238.5Q2224 234 2213 230Q2169 216 2125 216L1974 156L1837 216Q1792 216 1753.0 233.0Q1714 250 1685.0 279.0Q1656 308 1639.0 347.0Q1622 386 1622 431V503H1478L1406 360L1282 309L1180 360L1269 568L975 863H759Q706 863 656.0 878.5Q606 894 563.5 922.0Q521 950 487.0 989.5Q453 1029 432 1078L615 1222Z" style="fill:#757575;stroke:none" transform="scale(1,-1) translate(0,-256)" /></svg>