<?xml version="1.0" encoding="utf-8" ?>
<svg baseProfile="full" height="256" version="1.1" width="256" xmlns="http://www.w3.org/2000/svg" xmlns:ev="http://www.w3.org/2001/xml-events" xmlns:xlink="http://www.w3.org/1999/xlink"><defs /><path d="M2556 719V360Q2556 251 2527.5 150.0Q2499 49 2447.5 -39.0Q2396 -127 2324.0 -199.0Q2252 -271 2164.0 -322.5Q2076 -374 1975.0 -402.5Q1874 -431 1765 -431H831Q786 -431 747.0 -414.0Q708 -397 678.5 -367.5Q649 -338 632.0 -299.0Q615 -260 615 -215Q615 -181 625.5 -149.5Q636 -118 655.0 -91.5Q674 -65 700.5 -44.5Q727 -24 759 -12V72Q759 128 779.5 178.0Q800 228 835.5 266.5Q871 305 919.0 329.5Q967 354 1023 359L1099 535L915 719H759Q656 719 564.5 759.0Q473 799 404.5 867.5Q336 936 296.0 1027.5Q256 1119 256 1222V1366H849Q866 1414 896.5 1453.5Q927 1493 967.5 1521.5Q1008 1550 1055.5 1565.5Q1103 1581 1154 1581Q1205 1581 1252.5 1565.5Q1300 1550 1340.0 1521.5Q1380 1493 1411.0 1453.5Q1442 1414 1459 1366H1909Q1998 1366 2081.0 1343.0Q2164 1320 2235.5 1277.5Q2307 1235 2366.0 1176.0Q2425 1117 2467.5 1045.5Q2510 974 2533.0 891.0Q2556 808 2556 719Z" style="fill:#000000;stroke:none" transform="scale(1,-1) translate(0,-256)" /></svg>