<?xml version="1.0" encoding="utf-8" ?>
<svg baseProfile="full" height="256" version="1.1" width="256" xmlns="http://www.w3.org/2000/svg" xmlns:ev="http://www.w3.org/2001/xml-events" xmlns:xlink="http://www.w3.org/1999/xlink"><defs /><path d="M255 767Q255 785 260.5 806.0Q266 827 274.0 848.5Q282 870 292.0 890.0Q302 910 310 926Q415 1127 582.5 1235.5Q750 1344 975 1366Q1016 1456 1087.0 1523.5Q1158 1591 1245.5 1635.5Q1333 1680 1430.5 1702.5Q1528 1725 1622 1725H1909V1325Q1987 1296 2053.5 1247.0Q2120 1198 2168 1131Q2202 1160 2235.0 1178.0Q2268 1196 2302.5 1206.0Q2337 1216 2375.0 1219.5Q2413 1223 2456 1223Q2481 1223 2506.0 1222.5Q2531 1222 2556 1222V-72H2470Q2419 -72 2375.0 -68.0Q2331 -64 2291.5 -51.5Q2252 -39 2215.0 -16.5Q2178 6 2141 44Q2107 11 2066.5 -13.0Q2026 -37 1981 -51V-287Q1955 -287 1930.0 -287.5Q1905 -288 1879 -288Q1808 -288 1746.0 -277.5Q1684 -267 1622 -230V-287H1478Q1356 -287 1268.5 -229.5Q1181 -172 1118 -72Q979 -70 857.5 -31.5Q736 7 635.5 78.0Q535 149 456.0 249.5Q377 350 322 476Q292 545 273.5 618.0Q255 691 255 767Z" style="fill:#000000;stroke:none" transform="scale(1,-1) translate(0,-256)" /></svg>