<?xml version="1.0" encoding="utf-8" ?>
<svg baseProfile="full" height="256" version="1.1" width="256" xmlns="http://www.w3.org/2000/svg" xmlns:ev="http://www.w3.org/2001/xml-events" xmlns:xlink="http://www.w3.org/1999/xlink"><defs /><path d="M2125 791Q2137 840 2162.0 891.5Q2187 943 2224.0 984.0Q2261 1025 2308.0 1051.5Q2355 1078 2412 1078V575L2325 463H1765L1181 171Q1146 153 1115.0 139.5Q1084 126 1052.5 116.5Q1021 107 987.5 102.0Q954 97 914 97Q908 97 892.5 102.0Q877 107 859.5 113.5Q842 120 826.0 126.5Q810 133 803 136Q733 167 676.0 213.0Q619 259 573.5 315.5Q528 372 493.5 437.5Q459 503 435 574Q423 609 413.5 645.0Q404 681 400 719H615L492 903Q547 984 615.0 1043.5Q683 1103 762.5 1143.0Q842 1183 931.5 1202.5Q1021 1222 1118 1222H1693Q1730 1222 1766.5 1215.0Q1803 1208 1838 1197Q1984 1149 2054.5 1046.0Q2125 943 2125 791Z" style="fill:#00bcf2;stroke:none" transform="scale(1,-1) translate(0,-256)" /></svg>