<?xml version="1.0" encoding="utf-8" ?>
<svg baseProfile="full" height="256" version="1.1" width="256" xmlns="http://www.w3.org/2000/svg" xmlns:ev="http://www.w3.org/2001/xml-events" xmlns:xlink="http://www.w3.org/1999/xlink"><defs /><path d="M939 1006Q961 1006 980.5 997.5Q1000 989 1015.0 974.5Q1030 960 1038.5 940.5Q1047 921 1047 899V755Q1047 733 1038.5 713.5Q1030 694 1015.0 679.0Q1000 664 980.5 655.5Q961 647 939 647Q916 647 896.5 655.5Q877 664 862.5 678.5Q848 693 839.5 712.5Q831 732 831 755V899Q831 921 839.5 941.0Q848 961 863.0 975.0Q878 989 897.5 997.5Q917 1006 939 1006Z" style="fill:#000000;stroke:none" transform="scale(1,-1) translate(0,-256)" /></svg>