<?xml version="1.0" encoding="utf-8" ?>
<svg baseProfile="full" height="256" version="1.1" width="256" xmlns="http://www.w3.org/2000/svg" xmlns:ev="http://www.w3.org/2001/xml-events" xmlns:xlink="http://www.w3.org/1999/xlink"><defs /><path d="M1765 1438Q1733 1438 1702.0 1429.0Q1671 1420 1644.0 1403.0Q1617 1386 1596.0 1361.5Q1575 1337 1564 1307Q1556 1286 1555.0 1265.0Q1554 1244 1550 1222Q1544 1187 1519.5 1165.0Q1495 1143 1462.5 1130.0Q1430 1117 1394.5 1112.5Q1359 1108 1330 1108Q1304 1108 1276.0 1111.0Q1248 1114 1221.0 1122.0Q1194 1130 1171.0 1144.5Q1148 1159 1133 1182Q1127 1191 1122.5 1201.0Q1118 1211 1118 1222Q1118 1228 1122.0 1241.0Q1126 1254 1132.0 1268.0Q1138 1282 1144.0 1295.5Q1150 1309 1153 1315Q1188 1384 1237.5 1434.5Q1287 1485 1347.5 1517.5Q1408 1550 1477.5 1565.5Q1547 1581 1622 1581H1765ZM1550 72Q1560 123 1598.5 156.5Q1637 190 1690 190Q1719 190 1741.5 180.5Q1764 171 1781.5 154.5Q1799 138 1812.5 117.0Q1826 96 1837 72V-144Q1788 -144 1743.0 -127.5Q1698 -111 1660.0 -82.0Q1622 -53 1593.5 -13.5Q1565 26 1550 72ZM1478 -144Q1429 -144 1383.5 -127.5Q1338 -111 1300.0 -82.0Q1262 -53 1233.5 -13.5Q1205 26 1190 72Q1194 97 1208.5 117.0Q1223 137 1243.0 150.5Q1263 164 1287.5 171.0Q1312 178 1336 178Q1383 178 1416.0 160.0Q1449 142 1470 99Q1473 93 1475.5 86.0Q1478 79 1478 72Z" style="fill:#006f94;stroke:none" transform="scale(1,-1) translate(0,-256)" /></svg>