<?xml version="1.0" encoding="utf-8" ?>
<svg baseProfile="full" height="256" version="1.1" width="256" xmlns="http://www.w3.org/2000/svg" xmlns:ev="http://www.w3.org/2001/xml-events" xmlns:xlink="http://www.w3.org/1999/xlink"><defs /><path d="M1981 863Q2011 863 2032.0 842.0Q2053 821 2053 791Q2053 761 2032.0 740.0Q2011 719 1981 719Q1951 719 1930.0 740.0Q1909 761 1909 791Q1909 821 1930.0 842.0Q1951 863 1981 863ZM1765 1078Q1795 1078 1816.0 1057.0Q1837 1036 1837 1006Q1837 977 1815.5 956.0Q1794 935 1765 935Q1736 935 1714.5 956.0Q1693 977 1693 1006Q1693 1035 1714.5 1056.5Q1736 1078 1765 1078ZM1190 1078Q1220 1078 1241.0 1057.0Q1262 1036 1262 1006Q1262 977 1240.5 956.0Q1219 935 1190 935Q1161 935 1139.5 956.0Q1118 977 1118 1006Q1118 1035 1139.5 1056.5Q1161 1078 1190 1078ZM1478 1078Q1508 1078 1529.0 1057.0Q1550 1036 1550 1006Q1550 977 1528.5 956.0Q1507 935 1478 935Q1449 935 1427.5 956.0Q1406 977 1406 1006Q1406 1036 1427.0 1057.0Q1448 1078 1478 1078Z" style="fill:#ffffff;stroke:none" transform="scale(1,-1) translate(0,-256)" /></svg>