<?xml version="1.0" encoding="utf-8" ?>
<svg baseProfile="full" height="256" version="1.1" width="256" xmlns="http://www.w3.org/2000/svg" xmlns:ev="http://www.w3.org/2001/xml-events" xmlns:xlink="http://www.w3.org/1999/xlink"><defs /><path d="M1262 575H2412V72Q2355 72 2308.0 98.5Q2261 125 2224.0 166.5Q2187 208 2162.0 259.0Q2137 310 2125 360Q2125 333 2119.5 306.5Q2114 280 2105 254Q2073 160 2003.5 116.0Q1934 72 1837 72H1118Q1013 72 914 97Q991 122 1055.0 169.5Q1119 217 1165.0 280.0Q1211 343 1236.5 418.5Q1262 494 1262 575Z" style="fill:#b3dbf2;stroke:none" transform="scale(1,-1) translate(0,-256)" /></svg>