<?xml version="1.0" encoding="utf-8" ?>
<svg baseProfile="full" height="256" version="1.1" width="256" xmlns="http://www.w3.org/2000/svg" xmlns:ev="http://www.w3.org/2001/xml-events" xmlns:xlink="http://www.w3.org/1999/xlink"><defs /><path d="M1083 1869Q1161 1869 1218.5 1829.5Q1276 1790 1311 1723L1793 800Q1814 760 1825.5 726.5Q1837 693 1837 647V360Q1837 251 1809.0 150.0Q1781 49 1729.5 -39.0Q1678 -127 1605.5 -199.0Q1533 -271 1445.5 -322.5Q1358 -374 1257.0 -402.5Q1156 -431 1047 -431Q938 -431 837.0 -402.5Q736 -374 648.0 -322.5Q560 -271 488.0 -199.0Q416 -127 364.5 -39.0Q313 49 284.5 150.0Q256 251 256 360Q256 379 255.5 397.5Q255 416 255 435Q255 484 263.5 526.5Q272 569 301 611Q256 675 256 755Q256 807 276.0 853.0Q296 899 330.0 933.0Q364 967 410.0 986.5Q456 1006 508 1006H763Q726 1043 689.0 1078.5Q652 1114 617 1152Q581 1192 562.0 1233.5Q543 1275 543 1330Q543 1382 563.0 1428.0Q583 1474 617.0 1508.0Q651 1542 697.0 1561.5Q743 1581 795 1581Q814 1581 834 1578Q831 1597 831 1617Q831 1669 851.0 1715.0Q871 1761 905.0 1795.0Q939 1829 985.0 1849.0Q1031 1869 1083 1869ZM903 216Q933 216 959.0 227.5Q985 239 1004.5 258.5Q1024 278 1035.5 304.0Q1047 330 1047 360Q1047 390 1035.5 416.0Q1024 442 1004.5 461.5Q985 481 959.0 492.0Q933 503 903 503H759V360Q759 330 770.5 304.0Q782 278 801.5 258.5Q821 239 847.0 227.5Q873 216 903 216Z" style="fill:#000000;stroke:none" transform="scale(1,-1) translate(0,-256)" /></svg>