<?xml version="1.0" encoding="utf-8" ?>
<svg baseProfile="full" height="256" version="1.1" width="256" xmlns="http://www.w3.org/2000/svg" xmlns:ev="http://www.w3.org/2001/xml-events" xmlns:xlink="http://www.w3.org/1999/xlink"><defs /><path d="M1083 1725Q1118 1725 1142.0 1707.5Q1166 1690 1182 1660L1669 727Q1680 706 1686.5 689.0Q1693 672 1693 647V360Q1693 226 1642.5 108.0Q1592 -10 1504.0 -97.5Q1416 -185 1298.5 -236.0Q1181 -287 1047 -287Q957 -287 874.5 -264.0Q792 -241 720.0 -199.0Q648 -157 589.0 -98.0Q530 -39 488.0 33.0Q446 105 423.0 188.0Q400 271 400 360V467Q400 489 408.5 509.0Q417 529 431.5 543.5Q446 558 465.5 566.5Q485 575 508 575Q530 575 549.5 566.5Q569 558 583.5 543.0Q598 528 606.5 508.5Q615 489 615 467V360Q615 300 637.5 247.5Q660 195 699.0 156.0Q738 117 790.5 94.5Q843 72 903 72Q963 72 1015.0 94.5Q1067 117 1106.0 156.0Q1145 195 1167.5 247.5Q1190 300 1190 360Q1190 419 1167.5 471.5Q1145 524 1106.0 563.0Q1067 602 1014.5 624.5Q962 647 903 647H508Q485 647 465.5 655.5Q446 664 431.5 678.5Q417 693 408.5 712.5Q400 732 400 755Q400 777 408.5 796.5Q417 816 432.0 831.0Q447 846 466.5 854.5Q486 863 508 863H1335L984 1573Q979 1584 977.0 1595.0Q975 1606 975 1617Q975 1639 983.5 1659.0Q992 1679 1006.5 1693.5Q1021 1708 1040.5 1716.5Q1060 1725 1083 1725Z" style="fill:#ffc83d;stroke:none" transform="scale(1,-1) translate(0,-256)" /></svg>