<?xml version="1.0" encoding="utf-8" ?>
<svg baseProfile="full" height="256" version="1.1" width="256" xmlns="http://www.w3.org/2000/svg" xmlns:ev="http://www.w3.org/2001/xml-events" xmlns:xlink="http://www.w3.org/1999/xlink"><defs /><path d="M496 987Q496 949 513.5 918.0Q531 887 560.0 861.0Q589 835 625.5 815.0Q662 795 700.5 779.5Q739 764 776.5 754.0Q814 744 844 738Q895 728 945.5 723.5Q996 719 1047 719Q1151 719 1249 738Q1294 747 1353.5 765.5Q1413 784 1467.0 814.5Q1521 845 1558.5 888.0Q1596 931 1596 987L1584 811Q1534 764 1468.5 733.0Q1403 702 1331.5 682.5Q1260 663 1186.5 655.0Q1113 647 1047 647Q981 647 907.5 655.0Q834 663 762.5 682.5Q691 702 625.5 733.0Q560 764 510 811ZM550 295Q557 252 586.5 218.5Q616 185 659.5 160.5Q703 136 756.0 119.0Q809 102 862.0 91.5Q915 81 963.5 76.5Q1012 72 1047 72Q1093 72 1139.0 76.0Q1185 80 1230 89Q1269 96 1320.0 112.0Q1371 128 1418.0 153.5Q1465 179 1500.0 214.0Q1535 249 1542 295L1531 145Q1485 104 1426.0 76.5Q1367 49 1303.0 32.0Q1239 15 1173.0 7.5Q1107 0 1047 0Q987 0 921.0 7.5Q855 15 790.5 32.0Q726 49 667.0 76.5Q608 104 562 145ZM1544 315Q1544 310 1543.5 305.5Q1543 301 1542 296ZM549 315 550 295Q549 300 549.0 305.0Q549 310 549 315Z" style="fill:#af0d1a;stroke:none" transform="scale(1,-1) translate(0,-256)" /></svg>