<?xml version="1.0" encoding="utf-8" ?>
<svg baseProfile="full" height="256" version="1.1" width="256" xmlns="http://www.w3.org/2000/svg" xmlns:ev="http://www.w3.org/2001/xml-events" xmlns:xlink="http://www.w3.org/1999/xlink"><defs /><path d="M1047 1581Q1105 1581 1162.5 1576.5Q1220 1572 1277 1562Q1309 1556 1352.5 1546.0Q1396 1536 1442.5 1520.0Q1489 1504 1534.0 1482.5Q1579 1461 1614.0 1433.0Q1649 1405 1671.0 1370.5Q1693 1336 1693 1294Q1693 1251 1668.0 1215.0Q1643 1179 1611 1153Q1589 1102 1553.0 1063.0Q1517 1024 1470.5 995.0Q1424 966 1371.0 946.5Q1318 927 1262.5 915.0Q1207 903 1151.5 898.0Q1096 893 1047 893Q1004 893 949.5 899.5Q895 906 837.5 919.0Q780 932 722.5 953.0Q665 974 616.5 1002.5Q568 1031 532.5 1068.5Q497 1106 483 1153Q450 1176 425.0 1214.0Q400 1252 400 1294Q400 1333 420.0 1366.0Q440 1399 472.5 1426.5Q505 1454 546.0 1475.5Q587 1497 630.0 1513.0Q673 1529 713.5 1540.0Q754 1551 785 1557Q914 1581 1047 1581ZM1246 1093Q1286 1099 1333.5 1110.0Q1381 1121 1428.0 1138.0Q1475 1155 1517.0 1177.5Q1559 1200 1588 1230Q1601 1243 1611.5 1258.5Q1622 1274 1622 1294Q1622 1320 1604.5 1340.0Q1587 1360 1569 1375Q1522 1414 1457.0 1439.5Q1392 1465 1320.5 1481.0Q1249 1497 1178.0 1503.5Q1107 1510 1047 1510Q987 1510 916.0 1503.5Q845 1497 773.5 1481.0Q702 1465 637.0 1439.5Q572 1414 525 1375Q504 1358 488.0 1338.0Q472 1318 472 1289Q472 1281 477.0 1269.0Q482 1257 487 1251Q507 1220 549.0 1194.5Q591 1169 640.0 1149.5Q689 1130 738.0 1116.5Q787 1103 823 1097Q879 1087 934.5 1082.5Q990 1078 1047 1078Q1058 1078 1069.5 1078.5Q1081 1079 1092 1079L1178 1129Z" style="fill:#f2f2f2;stroke:none" transform="scale(1,-1) translate(0,-256)" /></svg>