<?xml version="1.0" encoding="utf-8" ?>
<svg baseProfile="full" height="256" version="1.1" width="256" xmlns="http://www.w3.org/2000/svg" xmlns:ev="http://www.w3.org/2001/xml-events" xmlns:xlink="http://www.w3.org/1999/xlink"><defs /><path d="M1047 1028Q984 1028 906.0 1035.5Q828 1043 750.0 1061.0Q672 1079 601.5 1108.5Q531 1138 483 1182Q459 1205 440.5 1232.0Q422 1259 422 1294Q422 1326 438.5 1353.0Q455 1380 478 1402Q524 1447 595.5 1477.5Q667 1508 746.5 1526.0Q826 1544 905.5 1552.0Q985 1560 1047 1560Q1110 1560 1189.0 1552.0Q1268 1544 1347.0 1525.5Q1426 1507 1497.0 1477.0Q1568 1447 1615 1402Q1638 1381 1655.0 1353.5Q1672 1326 1672 1294Q1672 1262 1655.0 1234.5Q1638 1207 1615 1186Q1568 1141 1497.0 1111.0Q1426 1081 1347.0 1062.5Q1268 1044 1189.0 1036.0Q1110 1028 1047 1028Z" style="fill:#cccccc;stroke:none" transform="scale(1,-1) translate(0,-256)" /></svg>