<?xml version="1.0" encoding="utf-8" ?>
<svg baseProfile="full" height="256" version="1.1" width="256" xmlns="http://www.w3.org/2000/svg" xmlns:ev="http://www.w3.org/2001/xml-events" xmlns:xlink="http://www.w3.org/1999/xlink"><defs /><path d="M1047 1006Q1113 1006 1189.5 1013.0Q1266 1020 1342.0 1037.5Q1418 1055 1488.0 1083.0Q1558 1111 1611 1153Q1608 1075 1600.0 997.5Q1592 920 1572 845L1584 817Q1573 686 1564.5 556.5Q1556 427 1543 296Q1539 261 1533.0 227.0Q1527 193 1522 158H1532Q1531 143 1528.5 108.5Q1526 74 1523.5 36.5Q1521 -1 1518.0 -34.0Q1515 -67 1513 -77Q1503 -120 1475.0 -152.5Q1447 -185 1407.5 -208.0Q1368 -231 1320.5 -246.5Q1273 -262 1224.5 -271.0Q1176 -280 1130.0 -283.5Q1084 -287 1047 -287Q1014 -287 968.0 -283.0Q922 -279 872.0 -269.5Q822 -260 772.0 -244.5Q722 -229 681.0 -205.5Q640 -182 612.5 -150.0Q585 -118 580 -77Q572 -19 569.0 40.0Q566 99 561 158H586Q583 170 577.0 186.5Q571 203 565.5 220.5Q560 238 556.0 254.0Q552 270 551 281L509 817L523 831Q502 909 493.5 990.5Q485 1072 483 1153Q536 1111 606.0 1083.0Q676 1055 752.0 1037.5Q828 1020 904.5 1013.0Q981 1006 1047 1006ZM2053 1653 1442 1623Q1420 1622 1401.0 1613.0Q1382 1604 1366.5 1589.5Q1351 1575 1339.5 1556.5Q1328 1538 1321 1518Q1310 1487 1303.0 1456.0Q1296 1425 1288 1393Q1269 1323 1251.0 1253.5Q1233 1184 1213 1115L1168 1084Q1149 1082 1130.0 1080.5Q1111 1079 1092 1079L1235 1570Q1245 1604 1265.0 1632.5Q1285 1661 1312.5 1681.5Q1340 1702 1373.0 1713.5Q1406 1725 1442 1725H2053Z" style="fill:#e81224;stroke:none" transform="scale(1,-1) translate(0,-256)" /></svg>