<?xml version="1.0" encoding="utf-8" ?>
<svg baseProfile="full" height="256" version="1.1" width="256" xmlns="http://www.w3.org/2000/svg" xmlns:ev="http://www.w3.org/2001/xml-events" xmlns:xlink="http://www.w3.org/1999/xlink"><defs /><path d="M2197 1869V1438H1798Q1817 1405 1827.0 1368.5Q1837 1332 1837 1294Q1837 1234 1813.5 1181.5Q1790 1129 1749 1086L1656 -90Q1651 -156 1618.5 -207.0Q1586 -258 1536.0 -296.0Q1486 -334 1423.0 -360.0Q1360 -386 1294.5 -401.5Q1229 -417 1164.5 -424.0Q1100 -431 1047 -431Q978 -431 900.0 -421.5Q822 -412 747.0 -389.0Q672 -366 606.0 -328.0Q540 -290 495 -232Q470 -200 454.5 -164.5Q439 -129 436 -88L344 1086Q303 1129 279.5 1181.5Q256 1234 256 1294Q256 1355 278.5 1406.0Q301 1457 339.0 1498.5Q377 1540 427.0 1572.0Q477 1604 531.5 1628.0Q586 1652 642.0 1669.0Q698 1686 749 1696Q823 1711 897.5 1718.0Q972 1725 1047 1725Q1099 1725 1152 1722Q1203 1791 1279.5 1830.0Q1356 1869 1442 1869Z" style="fill:#000000;stroke:none" transform="scale(1,-1) translate(0,-256)" /></svg>