<?xml version="1.0" encoding="utf-8" ?>
<svg baseProfile="full" height="256" version="1.1" width="256" xmlns="http://www.w3.org/2000/svg" xmlns:ev="http://www.w3.org/2001/xml-events" xmlns:xlink="http://www.w3.org/1999/xlink"><defs /><path d="M2340 -144Q2369 -144 2390.5 -165.0Q2412 -186 2412 -215V-287H1837L1802 -252L1837 -215Q1837 -186 1858.5 -165.0Q1880 -144 1909 -144H2125Q2125 -114 2146.0 -93.0Q2167 -72 2197 -72Q2216 -72 2233 -81Q2249 -72 2268 -72Q2298 -72 2319.0 -93.0Q2340 -114 2340 -144ZM1334 -144Q1363 -144 1384.5 -165.0Q1406 -186 1406 -215L1442 -249L1406 -287H975L935 -254L975 -215Q975 -186 996.5 -165.0Q1018 -144 1047 -144ZM543 -72V-216L563 -253L543 -287H400V-215Q400 -186 421.5 -165.0Q443 -144 472 -144Q472 -115 493.0 -93.5Q514 -72 543 -72Z" style="fill:#16c60c;stroke:none" transform="scale(1,-1) translate(0,-256)" /></svg>