<?xml version="1.0" encoding="utf-8" ?>
<svg baseProfile="full" height="256" version="1.1" width="256" xmlns="http://www.w3.org/2000/svg" xmlns:ev="http://www.w3.org/2001/xml-events" xmlns:xlink="http://www.w3.org/1999/xlink"><defs /><path d="M1406 1869Q1564 1869 1710.5 1828.0Q1857 1787 1985.0 1712.0Q2113 1637 2218.0 1532.0Q2323 1427 2398.0 1299.5Q2473 1172 2514.5 1025.0Q2556 878 2556 720Q2556 625 2541 532Q2556 481 2556 428Q2556 337 2512.5 257.5Q2469 178 2393 128Q2315 -2 2208.0 -105.5Q2101 -209 1973.0 -281.5Q1845 -354 1701.0 -392.5Q1557 -431 1406 -431Q1247 -431 1100.5 -390.0Q954 -349 826.0 -274.0Q698 -199 593.0 -94.0Q488 11 413.0 139.0Q338 267 297.0 414.0Q256 561 256 719Q256 877 297.0 1024.0Q338 1171 413.0 1299.0Q488 1427 593.0 1532.0Q698 1637 826.0 1712.0Q954 1787 1100.5 1828.0Q1247 1869 1406 1869Z" style="fill:#000000;stroke:none" transform="scale(1,-1) translate(0,-256)" /></svg>