<?xml version="1.0" encoding="utf-8" ?>
<svg baseProfile="full" height="256" version="1.1" width="256" xmlns="http://www.w3.org/2000/svg" xmlns:ev="http://www.w3.org/2001/xml-events" xmlns:xlink="http://www.w3.org/1999/xlink"><defs /><path d="M1622 360Q1651 360 1672.0 338.5Q1693 317 1693 288V0Q1693 -60 1670.5 -112.0Q1648 -164 1609.0 -203.0Q1570 -242 1518.0 -264.5Q1466 -287 1406 -287Q1346 -287 1293.5 -264.5Q1241 -242 1202.0 -203.0Q1163 -164 1140.5 -112.0Q1118 -60 1118 0V288Q1118 317 1139.5 338.5Q1161 360 1190 360H1334L1406 302L1478 360Z" style="fill:#e476c1;stroke:none" transform="scale(1,-1) translate(0,-256)" /></svg>