<?xml version="1.0" encoding="utf-8" ?>
<svg baseProfile="full" height="256" version="1.1" width="256" xmlns="http://www.w3.org/2000/svg" xmlns:ev="http://www.w3.org/2001/xml-events" xmlns:xlink="http://www.w3.org/1999/xlink"><defs /><path d="M1011 1078Q1033 1078 1052.5 1069.5Q1072 1061 1087.0 1046.5Q1102 1032 1110.5 1012.5Q1119 993 1119 971V827Q1119 805 1110.5 785.5Q1102 766 1087.0 751.0Q1072 736 1052.5 727.5Q1033 719 1011 719Q988 719 968.5 727.5Q949 736 934.5 750.5Q920 765 911.5 784.5Q903 804 903 827V971Q903 993 911.5 1013.0Q920 1033 935.0 1047.0Q950 1061 969.5 1069.5Q989 1078 1011 1078ZM1801 1078Q1823 1078 1842.5 1069.5Q1862 1061 1877.0 1047.0Q1892 1033 1900.5 1013.0Q1909 993 1909 971V827Q1909 804 1900.5 784.5Q1892 765 1877.5 750.5Q1863 736 1843.0 727.5Q1823 719 1801 719Q1778 719 1758.5 727.5Q1739 736 1725.0 751.0Q1711 766 1702.5 785.5Q1694 805 1694 827V971Q1694 993 1702.5 1012.5Q1711 1032 1725.5 1046.5Q1740 1061 1759.5 1069.5Q1779 1078 1801 1078ZM1729 575Q1781 575 1827.0 555.5Q1873 536 1907.0 502.0Q1941 468 1961.0 422.0Q1981 376 1981 324Q1981 272 1961.0 226.0Q1941 180 1907.0 146.0Q1873 112 1827.0 92.0Q1781 72 1729 72H1083Q1031 72 985.0 92.0Q939 112 905.0 146.0Q871 180 851.0 226.0Q831 272 831 324Q831 376 851.0 422.0Q871 468 905.0 502.0Q939 536 985.0 555.5Q1031 575 1083 575Z" style="fill:#000000;stroke:none" transform="scale(1,-1) translate(0,-256)" /></svg>