<?xml version="1.0" encoding="utf-8" ?>
<svg baseProfile="full" height="256" version="1.1" width="256" xmlns="http://www.w3.org/2000/svg" xmlns:ev="http://www.w3.org/2001/xml-events" xmlns:xlink="http://www.w3.org/1999/xlink"><defs /><path d="M1514 1006Q1536 1006 1555.5 997.5Q1575 989 1590.0 974.5Q1605 960 1613.5 940.5Q1622 921 1622 899Q1622 877 1613.5 857.5Q1605 838 1590.0 823.0Q1575 808 1555.5 799.5Q1536 791 1514 791Q1491 791 1471.5 799.5Q1452 808 1437.5 822.5Q1423 837 1414.5 856.5Q1406 876 1406 899Q1406 921 1414.5 941.0Q1423 961 1438.0 975.0Q1453 989 1472.5 997.5Q1492 1006 1514 1006ZM1873 791Q1851 791 1831.5 799.5Q1812 808 1797.0 823.0Q1782 838 1773.5 857.5Q1765 877 1765 899Q1765 921 1773.5 940.5Q1782 960 1797.0 974.5Q1812 989 1831.5 997.5Q1851 1006 1873 1006Q1895 1006 1914.5 997.5Q1934 989 1949.0 975.0Q1964 961 1972.5 941.0Q1981 921 1981 899Q1981 876 1972.5 856.5Q1964 837 1949.5 822.5Q1935 808 1915.0 799.5Q1895 791 1873 791ZM1514 647Q1536 647 1555.5 638.5Q1575 630 1590.0 615.0Q1605 600 1613.5 580.5Q1622 561 1622 539Q1622 517 1613.5 497.5Q1605 478 1590.0 463.0Q1575 448 1555.5 439.5Q1536 431 1514 431Q1492 431 1472.5 439.5Q1453 448 1438.0 463.0Q1423 478 1414.5 497.5Q1406 517 1406 539Q1406 561 1414.5 581.0Q1423 601 1437.5 615.5Q1452 630 1471.5 638.5Q1491 647 1514 647ZM1873 647Q1895 647 1915.0 638.5Q1935 630 1949.5 615.5Q1964 601 1972.5 581.0Q1981 561 1981 539Q1981 517 1972.5 497.5Q1964 478 1949.0 463.0Q1934 448 1914.5 439.5Q1895 431 1873 431Q1851 431 1831.5 439.5Q1812 448 1797.0 463.0Q1782 478 1773.5 497.5Q1765 517 1765 539Q1765 561 1773.5 580.5Q1782 600 1797.0 615.0Q1812 630 1831.5 638.5Q1851 647 1873 647Z" style="fill:#73aa24;stroke:none" transform="scale(1,-1) translate(0,-256)" /></svg>