<?xml version="1.0" encoding="utf-8" ?>
<svg baseProfile="full" height="256" version="1.1" width="256" xmlns="http://www.w3.org/2000/svg" xmlns:ev="http://www.w3.org/2001/xml-events" xmlns:xlink="http://www.w3.org/1999/xlink"><defs /><path d="M831 1545Q857 1545 881.5 1539.5Q906 1534 931 1526Q1034 1492 1135.5 1454.5Q1237 1417 1340 1381Q1480 1331 1618.0 1282.5Q1756 1234 1896 1183Q2012 1140 2107.5 1070.0Q2203 1000 2270.5 908.0Q2338 816 2375.0 704.5Q2412 593 2412 467Q2412 363 2385.0 266.5Q2358 170 2309.0 86.5Q2260 3 2191.0 -66.0Q2122 -135 2038.5 -184.0Q1955 -233 1858.5 -260.0Q1762 -287 1658 -287Q1538 -287 1431.0 -253.5Q1324 -220 1234.5 -158.0Q1145 -96 1075.0 -8.0Q1005 80 957 188Q912 291 871.0 395.0Q830 499 788 603Q734 736 680.5 867.0Q627 998 574 1131L572 1135Q565 1151 559.5 1165.5Q554 1180 550.5 1194.0Q547 1208 545.0 1223.5Q543 1239 543 1258Q543 1336 581.5 1402.0Q620 1468 687 1507L759 1438Z" style="fill:#bad80a;stroke:none" transform="scale(1,-1) translate(0,-256)" /></svg>