<?xml version="1.0" encoding="utf-8" ?>
<svg baseProfile="full" height="256" version="1.1" width="256" xmlns="http://www.w3.org/2000/svg" xmlns:ev="http://www.w3.org/2001/xml-events" xmlns:xlink="http://www.w3.org/1999/xlink"><defs /><path d="M1658 -431Q1518 -431 1390.0 -391.0Q1262 -351 1153.5 -277.0Q1045 -203 960.0 -98.5Q875 6 823 135L443 1072Q433 1097 425.0 1119.0Q417 1141 411.5 1163.0Q406 1185 403.0 1208.0Q400 1231 400 1258Q400 1328 423 1397Q397 1423 371.0 1449.0Q345 1475 319 1501Q256 1566 256 1653Q256 1698 273.0 1737.5Q290 1777 319.0 1806.0Q348 1835 387.5 1852.0Q427 1869 472 1869Q507 1869 537.0 1858.0Q567 1847 593.0 1829.0Q619 1811 642.5 1788.5Q666 1766 689 1742L700 1730Q770 1797 860.0 1833.0Q950 1869 1047 1869H1550V1725Q1550 1661 1533.5 1599.5Q1517 1538 1487 1481L1945 1318Q2083 1269 2195.5 1185.0Q2308 1101 2388.0 990.5Q2468 880 2512.0 747.0Q2556 614 2556 467Q2556 343 2524.0 228.5Q2492 114 2433.5 14.0Q2375 -86 2293.0 -168.0Q2211 -250 2111.0 -308.5Q2011 -367 1896.5 -399.0Q1782 -431 1658 -431Z" style="fill:#000000;stroke:none" transform="scale(1,-1) translate(0,-256)" /></svg>