<?xml version="1.0" encoding="utf-8" ?>
<svg baseProfile="full" height="256" version="1.1" width="256" xmlns="http://www.w3.org/2000/svg" xmlns:ev="http://www.w3.org/2001/xml-events" xmlns:xlink="http://www.w3.org/1999/xlink"><defs /><path d="M1981 0Q1981 -30 1992.5 -56.0Q2004 -82 2023.5 -101.5Q2043 -121 2069.0 -132.5Q2095 -144 2125 -144Q2155 -144 2181.0 -155.0Q2207 -166 2226.5 -185.5Q2246 -205 2257.0 -231.0Q2268 -257 2268 -287H1765Q1720 -287 1681.0 -270.0Q1642 -253 1613.0 -224.0Q1584 -195 1567.0 -156.0Q1550 -117 1550 -72V0L1794 71Z" style="fill:#8e562e;stroke:none" transform="scale(1,-1) translate(0,-256)" /></svg>