<?xml version="1.0" encoding="utf-8" ?>
<svg baseProfile="full" height="256" version="1.1" width="256" xmlns="http://www.w3.org/2000/svg" xmlns:ev="http://www.w3.org/2001/xml-events" xmlns:xlink="http://www.w3.org/1999/xlink"><defs /><path d="M2556 72Q2556 31 2542.0 -5.0Q2528 -41 2503.0 -69.0Q2478 -97 2444.5 -116.0Q2411 -135 2371 -141Q2398 -183 2406.0 -230.5Q2414 -278 2414 -327Q2414 -353 2413.0 -379.0Q2412 -405 2412 -431H1765Q1698 -431 1637.0 -407.0Q1576 -383 1526 -338Q1503 -381 1461.0 -406.0Q1419 -431 1370 -431H1083Q1045 -431 1012.5 -417.0Q980 -403 955.5 -378.5Q931 -354 917.0 -321.5Q903 -289 903 -251Q903 -211 918.0 -178.0Q933 -145 958.5 -121.5Q984 -98 1018.0 -85.0Q1052 -72 1091 -72L1253 362L1159 647H903V791H591Q556 763 519.5 741.0Q483 719 436 719Q398 719 365.5 733.0Q333 747 308.5 771.5Q284 796 270.0 828.5Q256 861 256 899Q256 916 260.5 939.5Q265 963 274 978L353 1106Q387 1160 432.0 1191.0Q477 1222 543 1222H1287L1872 1806Q1902 1836 1942.0 1852.5Q1982 1869 2024 1869H2233Q2270 1869 2302.5 1855.0Q2335 1841 2359.5 1816.5Q2384 1792 2398.0 1759.0Q2412 1726 2412 1689Q2412 1652 2398.0 1619.5Q2384 1587 2359.5 1562.5Q2335 1538 2302.5 1524.0Q2270 1510 2233 1510H2186L1861 1185L1962 1084L1828 950L1949 647Q2004 647 2048.0 636.0Q2092 625 2133 584L2493 225Q2523 195 2539.5 155.0Q2556 115 2556 72Z" style="fill:#000000;stroke:none" transform="scale(1,-1) translate(0,-256)" /></svg>