<?xml version="1.0" encoding="utf-8" ?>
<svg baseProfile="full" height="256" version="1.1" width="256" xmlns="http://www.w3.org/2000/svg" xmlns:ev="http://www.w3.org/2001/xml-events" xmlns:xlink="http://www.w3.org/1999/xlink"><defs /><path d="M1703 531Q1722 531 1741.0 526.5Q1760 522 1778.0 517.0Q1796 512 1814.5 507.5Q1833 503 1852 503H1981Q2011 503 2032 482L2391 123Q2412 102 2412 72Q2412 42 2391.0 21.0Q2370 0 2340 0Q2311 0 2290 21L1951 360H1909Q1903 370 1891.5 375.0Q1880 380 1869 380Q1860 380 1849.5 375.0Q1839 370 1837 360H1550L1334 -215H1355Q1374 -215 1390.0 -220.5Q1406 -226 1406 -251Q1406 -266 1395.5 -276.5Q1385 -287 1370 -287H1083Q1068 -287 1057.5 -276.5Q1047 -266 1047 -251Q1047 -236 1057.5 -225.5Q1068 -215 1083 -215H1190L1406 360Q1420 374 1438.0 382.5Q1456 391 1475 391Q1488 391 1500.0 387.0Q1512 383 1523 377L1530 565Q1530 573 1536.5 580.0Q1543 587 1552.0 592.5Q1561 598 1570.5 601.5Q1580 605 1587 605Q1593 605 1608.0 596.5Q1623 588 1640.0 576.5Q1657 565 1673.5 553.0Q1690 541 1699 534ZM2126 1653 1536 1063 1483 1149Q1492 1163 1501.0 1182.0Q1510 1201 1519.0 1220.5Q1528 1240 1537.5 1257.5Q1547 1275 1557 1287Q1589 1325 1625.0 1358.0Q1661 1391 1696 1426L1974 1704Q1995 1725 2024 1725H2233Q2247 1725 2257.5 1714.0Q2268 1703 2268 1689Q2268 1675 2257.5 1664.0Q2247 1653 2233 1653ZM1146 1030 1190 935H543Q535 929 520.5 917.0Q506 905 490.5 893.0Q475 881 460.0 872.0Q445 863 436 863Q421 863 410.5 873.5Q400 884 400 899Q400 907 410.0 926.5Q420 946 433.5 967.5Q447 989 459.5 1009.0Q472 1029 478 1037Q487 1055 505.0 1066.5Q523 1078 543 1078H1047ZM1765 288Q1810 288 1849.0 271.0Q1888 254 1917.5 224.5Q1947 195 1964.0 156.0Q1981 117 1981 72V0H1550V72Q1550 117 1567.0 156.0Q1584 195 1613.0 224.5Q1642 254 1681.0 271.0Q1720 288 1765 288Z" style="fill:#ffc83d;stroke:none" transform="scale(1,-1) translate(0,-256)" /></svg>