<?xml version="1.0" encoding="utf-8" ?>
<svg baseProfile="full" height="256" version="1.1" width="256" xmlns="http://www.w3.org/2000/svg" xmlns:ev="http://www.w3.org/2001/xml-events" xmlns:xlink="http://www.w3.org/1999/xlink"><defs /><path d="M1478 1581Q1478 1551 1466.5 1525.0Q1455 1499 1435.5 1479.5Q1416 1460 1390.0 1449.0Q1364 1438 1334 1438Q1304 1438 1278.0 1449.0Q1252 1460 1232.5 1479.5Q1213 1499 1201.5 1525.0Q1190 1551 1190 1581Q1190 1611 1201.5 1637.0Q1213 1663 1232.5 1682.5Q1252 1702 1278.0 1713.5Q1304 1725 1334 1725Q1364 1725 1390.0 1713.5Q1416 1702 1435.5 1682.5Q1455 1663 1466.5 1637.0Q1478 1611 1478 1581Z" style="fill:#af0d1a;stroke:none" transform="scale(1,-1) translate(0,-256)" /></svg>