<?xml version="1.0" encoding="utf-8" ?>
<svg baseProfile="full" height="256" version="1.1" width="256" xmlns="http://www.w3.org/2000/svg" xmlns:ev="http://www.w3.org/2001/xml-events" xmlns:xlink="http://www.w3.org/1999/xlink"><defs /><path d="M1550 719Q1484 665 1445.0 591.5Q1406 518 1406 431V-72Q1406 -102 1417.5 -128.0Q1429 -154 1448.5 -173.5Q1468 -193 1494.0 -204.0Q1520 -215 1550 -215H1693Q1722 -215 1743.5 -236.5Q1765 -258 1765 -287H903Q903 -258 924.5 -236.5Q946 -215 975 -215H1118Q1148 -215 1174.0 -204.0Q1200 -193 1219.5 -173.5Q1239 -154 1250.5 -128.0Q1262 -102 1262 -72V431Q1262 518 1223.0 591.5Q1184 665 1118 719Z" style="fill:#e5e5e5;stroke:none" transform="scale(1,-1) translate(0,-256)" /></svg>