<?xml version="1.0" encoding="utf-8" ?>
<svg baseProfile="full" height="256" version="1.1" width="256" xmlns="http://www.w3.org/2000/svg" xmlns:ev="http://www.w3.org/2001/xml-events" xmlns:xlink="http://www.w3.org/1999/xlink"><defs /><path d="M2161 719Q2171 719 2179.0 715.0Q2187 711 2192 701Q2180 591 2142.5 491.0Q2105 391 2046.5 305.5Q1988 220 1911.0 150.0Q1834 80 1742.5 31.0Q1651 -18 1548.0 -45.0Q1445 -72 1334 -72Q1215 -72 1105.0 -41.0Q995 -10 899.0 46.0Q803 102 724.5 181.0Q646 260 590.0 356.0Q534 452 503.0 562.0Q472 672 472 791H1981Q2011 791 2032.0 770.0Q2053 749 2053 719V611Q2053 596 2063.5 585.5Q2074 575 2089 575Q2113 575 2119.5 592.5Q2126 610 2126 631Q2126 640 2125.5 648.5Q2125 657 2125 664Q2125 673 2126.0 683.0Q2127 693 2130.5 701.0Q2134 709 2141.0 714.0Q2148 719 2161 719Z" style="fill:#f2f2f2;stroke:none" transform="scale(1,-1) translate(0,-256)" /></svg>