<?xml version="1.0" encoding="utf-8" ?>
<svg baseProfile="full" height="256" version="1.1" width="256" xmlns="http://www.w3.org/2000/svg" xmlns:ev="http://www.w3.org/2001/xml-events" xmlns:xlink="http://www.w3.org/1999/xlink"><defs /><path d="M1949 1287Q2018 1202 2061.0 1101.5Q2104 1001 2118 892Q2091 863 2053 863Q2026 863 2010.0 874.0Q1994 885 1980.0 898.5Q1966 912 1950.5 923.5Q1935 935 1909 935Q1883 935 1867.5 923.5Q1852 912 1838.0 898.5Q1824 885 1808.0 874.0Q1792 863 1765 863Q1739 863 1723.0 874.0Q1707 885 1693.5 898.5Q1680 912 1664.0 923.5Q1648 935 1622 935Q1596 935 1580.5 923.5Q1565 912 1551.0 898.5Q1537 885 1521.0 874.0Q1505 863 1478 863Q1451 863 1435.0 874.0Q1419 885 1405.0 898.5Q1391 912 1375.5 923.5Q1360 935 1334 935Q1308 935 1292.5 923.5Q1277 912 1263.0 898.5Q1249 885 1233.0 874.0Q1217 863 1190 863Q1164 863 1148.0 874.0Q1132 885 1118.5 898.5Q1105 912 1089.0 923.5Q1073 935 1047 935Q1021 935 1005.5 923.5Q990 912 976.0 898.5Q962 885 946.0 874.0Q930 863 903 863Q876 863 860.0 874.0Q844 885 830.0 898.5Q816 912 800.5 923.5Q785 935 759 935Q733 935 717.5 923.5Q702 912 688.0 898.5Q674 885 658.0 874.0Q642 863 615 863Q596 863 579.5 871.0Q563 879 550 892Q561 980 592.0 1063.5Q623 1147 671 1222Q700 1222 717.5 1214.5Q735 1207 744.5 1194.0Q754 1181 757.0 1163.5Q760 1146 760 1126Q760 1110 759.0 1093.5Q758 1077 758 1060Q758 1050 759.0 1040.5Q760 1031 764.0 1023.5Q768 1016 775.5 1011.0Q783 1006 795 1006Q807 1006 814.5 1011.0Q822 1016 826.0 1024.5Q830 1033 831.0 1043.0Q832 1053 832 1063Q832 1080 830.5 1095.5Q829 1111 829 1128Q829 1138 830.0 1148.5Q831 1159 835.0 1167.0Q839 1175 846.5 1180.5Q854 1186 867 1186Q884 1186 891.5 1178.0Q899 1170 901.0 1158.0Q903 1146 903.0 1132.0Q903 1118 905.0 1106.0Q907 1094 914.5 1086.0Q922 1078 939 1078Q954 1078 964.5 1088.5Q975 1099 975 1114V1150Q975 1180 986.0 1206.0Q997 1232 1016.5 1251.5Q1036 1271 1062.0 1282.5Q1088 1294 1118 1294Q1145 1294 1161.0 1282.5Q1177 1271 1191.0 1257.5Q1205 1244 1220.5 1233.0Q1236 1222 1262 1222Q1287 1222 1303.0 1233.0Q1319 1244 1333.5 1257.5Q1348 1271 1364.0 1282.5Q1380 1294 1406 1294Q1431 1294 1447.0 1282.5Q1463 1271 1477.5 1257.5Q1492 1244 1508.0 1233.0Q1524 1222 1550 1222Q1576 1222 1592.0 1233.0Q1608 1244 1621.5 1257.5Q1635 1271 1651.0 1282.5Q1667 1294 1693 1294Q1720 1294 1736.0 1282.5Q1752 1271 1766.0 1257.5Q1780 1244 1795.5 1233.0Q1811 1222 1837 1222Q1858 1222 1872.0 1229.5Q1886 1237 1897.5 1247.5Q1909 1258 1920.5 1269.0Q1932 1280 1949 1287Z" style="fill:#f2d6c9;stroke:none" transform="scale(1,-1) translate(0,-256)" /></svg>