<?xml version="1.0" encoding="utf-8" ?>
<svg baseProfile="full" height="256" version="1.1" width="256" xmlns="http://www.w3.org/2000/svg" xmlns:ev="http://www.w3.org/2001/xml-events" xmlns:xlink="http://www.w3.org/1999/xlink"><defs /><path d="M2197 935Q2226 935 2247.0 913.5Q2268 892 2268 863V539Q2268 525 2257.5 514.0Q2247 503 2233 503Q2219 503 2211.5 510.0Q2204 517 2200.5 527.5Q2197 538 2196.0 550.5Q2195 563 2195 573Q2195 594 2196.5 615.5Q2198 637 2198 658Q2198 669 2197.0 680.5Q2196 692 2191 703L2160 669Q2159 651 2156.0 629.0Q2153 607 2144.5 587.0Q2136 567 2121.5 553.5Q2107 540 2083 540Q2068 540 2051.5 543.5Q2035 547 2021.5 554.5Q2008 562 1999.0 575.0Q1990 588 1990 606L568 678L472 791Q442 791 421.0 812.0Q400 833 400 863Q400 892 421.5 913.5Q443 935 472 935Q495 935 516.0 922.5Q537 910 550 891L681 995Q685 993 699.0 992.0Q713 991 729.5 990.5Q746 990 762.5 990.0Q779 990 789 990H796Q997 990 1196.5 993.5Q1396 997 1597 1002Q1679 1004 1761.0 1007.0Q1843 1010 1925 1010Q1934 1010 1946.5 996.5Q1959 983 1972.5 967.0Q1986 951 1999.5 937.0Q2013 923 2022 923L2026 925Q2032 922 2045.5 916.5Q2059 911 2073.0 906.0Q2087 901 2100.0 896.5Q2113 892 2119 892Q2133 910 2153.0 922.5Q2173 935 2197 935ZM975 1258 939 1222 903 1258 939 1294Z" style="fill:#f4abba;stroke:none" transform="scale(1,-1) translate(0,-256)" /></svg>