<?xml version="1.0" encoding="utf-8" ?>
<svg baseProfile="full" height="256" version="1.1" width="256" xmlns="http://www.w3.org/2000/svg" xmlns:ev="http://www.w3.org/2001/xml-events" xmlns:xlink="http://www.w3.org/1999/xlink"><defs /><path d="M671 1222Q726 1306 799.0 1372.5Q872 1439 957.5 1485.5Q1043 1532 1138.5 1556.5Q1234 1581 1334 1581Q1424 1581 1510.0 1561.5Q1596 1542 1675.0 1504.5Q1754 1467 1823.5 1412.0Q1893 1357 1949 1287V1253Q1949 1235 1948.0 1215.5Q1947 1196 1940 1179Q1939 1177 1930.0 1175.0Q1921 1173 1909.5 1171.0Q1898 1169 1888.5 1167.5Q1879 1166 1877 1166Q1768 1151 1660.5 1141.5Q1553 1132 1444 1122Q1337 1113 1230.5 1103.5Q1124 1094 1016 1088Q1012 1080 1004.0 1067.5Q996 1055 985.5 1043.5Q975 1032 963.5 1024.0Q952 1016 942 1016Q929 1016 909.5 1007.5Q890 999 869.5 989.5Q849 980 829.5 971.5Q810 963 797 963Q786 963 771.5 971.0Q757 979 743.0 991.0Q729 1003 717.0 1015.5Q705 1028 701 1037Q693 1053 687.5 1074.5Q682 1096 679.0 1119.5Q676 1143 674.5 1166.5Q673 1190 672 1210Q672 1213 671.5 1216.0Q671 1219 671 1222Z" style="fill:#e6808a;stroke:none" transform="scale(1,-1) translate(0,-256)" /></svg>