<?xml version="1.0" encoding="utf-8" ?>
<svg baseProfile="full" height="256" version="1.1" width="256" xmlns="http://www.w3.org/2000/svg" xmlns:ev="http://www.w3.org/2001/xml-events" xmlns:xlink="http://www.w3.org/1999/xlink"><defs /><path d="M759 -431V-287Q759 -229 788.0 -179.0Q817 -129 868 -100Q756 -41 662.5 44.0Q569 129 499.5 232.0Q430 335 387.0 453.5Q344 572 332 698Q297 729 276.5 772.0Q256 815 256 863Q256 903 270.5 940.0Q285 977 310.0 1005.5Q335 1034 369.5 1053.0Q404 1072 445 1077Q479 1184 539.5 1281.0Q600 1378 681.0 1458.0Q762 1538 859.5 1596.5Q957 1655 1066 1685Q1082 1727 1109.0 1761.0Q1136 1795 1171.5 1819.0Q1207 1843 1248.0 1856.0Q1289 1869 1334 1869Q1379 1869 1420.0 1856.0Q1461 1843 1496.5 1819.0Q1532 1795 1559.0 1761.0Q1586 1727 1602 1685Q1662 1669 1716.0 1642.0Q1770 1615 1824 1586L2044 1806Q2075 1837 2114.0 1853.0Q2153 1869 2197 1869Q2242 1869 2281.0 1852.0Q2320 1835 2349.0 1805.5Q2378 1776 2395.0 1737.0Q2412 1698 2412 1653Q2412 1610 2395.5 1570.5Q2379 1531 2349 1501L2129 1281Q2189 1183 2223 1077Q2263 1072 2297.5 1053.0Q2332 1034 2357.5 1005.5Q2383 977 2397.5 940.0Q2412 903 2412 863V539Q2412 504 2399.0 472.0Q2386 440 2363.0 416.0Q2340 392 2309.0 377.0Q2278 362 2243 360Q2173 210 2060.5 93.0Q1948 -24 1801 -100Q1836 -121 1857.5 -145.5Q1879 -170 1890.5 -199.0Q1902 -228 1906.0 -261.5Q1910 -295 1910 -333Q1910 -358 1909.5 -382.0Q1909 -406 1909 -431Z" style="fill:#000000;stroke:none" transform="scale(1,-1) translate(0,-256)" /></svg>