<?xml version="1.0" encoding="utf-8" ?>
<svg baseProfile="full" height="256" version="1.1" width="256" xmlns="http://www.w3.org/2000/svg" xmlns:ev="http://www.w3.org/2001/xml-events" xmlns:xlink="http://www.w3.org/1999/xlink"><defs /><path d="M831 1084Q850 1084 856.5 1095.0Q863 1106 867.0 1119.5Q871 1133 877.5 1144.5Q884 1156 903 1156L938 1078L903 1005V940Q903 939 907.5 925.0Q912 911 918.0 894.0Q924 877 929.5 862.5Q935 848 937 846L903 760Q903 775 892.5 785.5Q882 796 867 796Q852 796 841.5 785.5Q831 775 831 760Q831 740 842.0 734.0Q853 728 866.5 724.0Q880 720 891.5 713.5Q903 707 903 688Q903 672 909 659L903 652Q873 652 847.0 663.5Q821 675 801.5 694.5Q782 714 770.5 740.0Q759 766 759 796V940Q759 970 738.0 991.0Q717 1012 687 1012Q661 1012 645.5 1000.5Q630 989 616.0 975.5Q602 962 586.0 951.0Q570 940 543 940Q543 959 554.0 965.5Q565 972 578.5 976.0Q592 980 603.5 986.5Q615 993 615 1012V1048Q615 1067 617.0 1086.5Q619 1106 626.5 1121.5Q634 1137 648.5 1146.5Q663 1156 687 1156Q712 1156 728.5 1144.5Q745 1133 759.0 1119.5Q773 1106 789.0 1095.0Q805 1084 831 1084ZM1873 652Q1886 652 1893.5 647.0Q1901 642 1904.5 633.5Q1908 625 1908.5 615.0Q1909 605 1909 595L1928 544L1909 515Q1877 526 1857.0 554.0Q1837 582 1837 616Q1837 631 1847.5 641.5Q1858 652 1873 652ZM1765 1227Q1791 1227 1806.5 1216.0Q1822 1205 1836.0 1191.5Q1850 1178 1866.0 1167.0Q1882 1156 1909 1156Q1916 1102 1930.0 1047.5Q1944 993 1944 939Q1944 907 1938.0 875.5Q1932 844 1925.5 811.5Q1919 779 1913.0 747.0Q1907 715 1907 684Q1907 677 1907.5 670.5Q1908 664 1909 657Q1901 657 1892.0 667.5Q1883 678 1873.0 690.5Q1863 703 1854.0 713.5Q1845 724 1837 724Q1807 724 1786.0 703.0Q1765 682 1765 652Q1746 652 1739.5 663.0Q1733 674 1729.0 687.5Q1725 701 1718.5 712.5Q1712 724 1693 724Q1674 724 1668.0 712.5Q1662 701 1658.0 687.5Q1654 674 1647.5 663.0Q1641 652 1622 652Q1622 626 1610.5 610.0Q1599 594 1585.5 580.5Q1572 567 1561.0 551.0Q1550 535 1550 509V473Q1550 451 1541.5 431.5Q1533 412 1518.0 397.0Q1503 382 1483.5 373.5Q1464 365 1442 365Q1419 365 1412.0 384.0Q1405 403 1405 427Q1405 444 1406.5 459.5Q1408 475 1408 486Q1408 536 1398.0 584.0Q1388 632 1388 682Q1388 713 1397.0 742.5Q1406 772 1406 803Q1406 819 1401.0 836.5Q1396 854 1390 869Q1395 895 1400.5 922.0Q1406 949 1406 976Q1406 991 1416.5 1001.5Q1427 1012 1442 1012Q1461 1012 1467.5 1023.0Q1474 1034 1478.0 1047.5Q1482 1061 1488.0 1072.5Q1494 1084 1514 1084Q1523 1084 1529.0 1080.0Q1535 1076 1540.5 1070.5Q1546 1065 1552.5 1061.0Q1559 1057 1568 1057Q1578 1057 1584.0 1061.0Q1590 1065 1595.0 1070.5Q1600 1076 1606.0 1080.0Q1612 1084 1622 1084Q1636 1084 1647.0 1095.0Q1658 1106 1658 1120Q1658 1134 1668.5 1145.0Q1679 1156 1693 1156Q1712 1156 1718.5 1167.0Q1725 1178 1729.0 1191.5Q1733 1205 1739.5 1216.0Q1746 1227 1765 1227Z" style="fill:#13a10e;stroke:none" transform="scale(1,-1) translate(0,-256)" /></svg>