<?xml version="1.0" encoding="utf-8" ?>
<svg baseProfile="full" height="256" version="1.1" width="256" xmlns="http://www.w3.org/2000/svg" xmlns:ev="http://www.w3.org/2001/xml-events" xmlns:xlink="http://www.w3.org/1999/xlink"><defs /><path d="M2017 1012Q1994 1012 1987.5 997.5Q1981 983 1981 963V940Q1981 920 1992.0 914.0Q2003 908 2016.5 904.0Q2030 900 2041.5 893.5Q2053 887 2053 868Q2053 842 2041.5 826.0Q2030 810 2016.5 795.5Q2003 781 1992.0 765.0Q1981 749 1981 724Q1981 704 1970.0 697.5Q1959 691 1946.0 687.5Q1933 684 1921.5 679.0Q1910 674 1909 656V1156Q1936 1156 1952.0 1167.0Q1968 1178 1982.0 1191.5Q1996 1205 2011.5 1216.0Q2027 1227 2053 1227Q2082 1227 2103.5 1206.0Q2125 1185 2125 1156V976Q2125 961 2114.5 950.5Q2104 940 2089 940Q2069 940 2063.0 951.0Q2057 962 2053.0 975.5Q2049 989 2042.5 1000.5Q2036 1012 2017 1012ZM1154 509Q1154 490 1146.0 475.0Q1138 460 1126.0 446.5Q1114 433 1100.5 418.5Q1087 404 1075.0 386.5Q1063 369 1055.0 346.5Q1047 324 1047 293V221Q1017 221 996.0 242.0Q975 263 975 293V401Q975 426 963.5 442.0Q952 458 938.5 472.5Q925 487 914.0 503.0Q903 519 903 545V581Q903 591 908.5 594.0Q914 597 921.0 599.0Q928 601 933.5 604.0Q939 607 939 616Q939 631 928.5 641.5Q918 652 903 652V681Q904 667 914.5 659.5Q925 652 939 652H1011Q1029 652 1043.5 645.5Q1058 639 1071.0 628.5Q1084 618 1095.5 605.5Q1107 593 1118 581L1122 577Q1137 561 1145.5 547.5Q1154 534 1154 509ZM1190 1227Q1219 1227 1240.5 1206.0Q1262 1185 1262 1156Q1262 1129 1250.5 1113.0Q1239 1097 1225.5 1083.0Q1212 1069 1201.0 1053.0Q1190 1037 1190 1012V976Q1190 961 1179.5 950.5Q1169 940 1154 940Q1141 940 1133.5 946.5Q1126 953 1122.0 962.5Q1118 972 1117.0 983.5Q1116 995 1116 1005Q1116 1027 1118.0 1048.5Q1120 1070 1120 1092Q1120 1102 1119.0 1113.0Q1118 1124 1114.0 1133.5Q1110 1143 1103.0 1149.5Q1096 1156 1083 1156Q1070 1156 1062.5 1150.5Q1055 1145 1051.5 1136.0Q1048 1127 1047.5 1116.0Q1047 1105 1047 1095V1084Q1047 1055 1025.5 1033.5Q1004 1012 975 1012H956Q939 1012 922.0 1007.0Q905 1002 903 982V1156Q930 1156 946.0 1167.0Q962 1178 976.0 1191.5Q990 1205 1005.5 1216.0Q1021 1227 1047 1227ZM1011 1012Q1026 1012 1036.5 1001.5Q1047 991 1047 976Q1047 957 1058.0 950.5Q1069 944 1082.5 940.0Q1096 936 1107.0 929.5Q1118 923 1118 904Q1118 890 1107.5 879.0Q1097 868 1083 868Q1060 868 1040.5 859.5Q1021 851 1006.5 836.5Q992 822 983.5 802.0Q975 782 975 760Q975 745 964.5 734.5Q954 724 939 724Q924 724 913.5 734.5Q903 745 903 760V969Q904 955 914.5 947.5Q925 940 939 940Q958 940 964.5 951.0Q971 962 975.0 975.5Q979 989 985.0 1000.5Q991 1012 1011 1012ZM1262 652Q1262 682 1273.0 708.0Q1284 734 1303.5 753.5Q1323 773 1349.5 784.5Q1376 796 1406 796V515Q1404 542 1382.5 561.5Q1361 581 1334 581Q1305 581 1283.5 602.0Q1262 623 1262 652ZM1945 293Q1930 293 1919.5 303.5Q1909 314 1909 329Q1909 351 1917.5 371.0Q1926 391 1940.5 405.5Q1955 420 1974.5 428.5Q1994 437 2017 437H2053Q2083 437 2104.0 416.0Q2125 395 2125 365V329Q2125 314 2114.5 303.5Q2104 293 2089 293Q2076 293 2068.0 298.5Q2060 304 2053.0 311.0Q2046 318 2038.0 323.5Q2030 329 2017 329Q2004 329 1996.0 323.5Q1988 318 1981.0 311.0Q1974 304 1966.0 298.5Q1958 293 1945 293ZM1945 509Q1927 509 1909 515V609Q1911 596 1921.5 588.5Q1932 581 1945 581Q1958 581 1966.0 586.5Q1974 592 1981.0 598.5Q1988 605 1996.0 610.5Q2004 616 2017 616Q2029 616 2037.0 611.5Q2045 607 2053 599Q2062 591 2074.0 587.5Q2086 584 2097.5 579.5Q2109 575 2117.0 567.5Q2125 560 2125 545Q2125 530 2114.5 519.5Q2104 509 2089 509Q2076 509 2068.0 514.5Q2060 520 2053.0 527.0Q2046 534 2038.0 539.5Q2030 545 2017 545Q2004 545 1996.0 539.5Q1988 534 1981.0 527.0Q1974 520 1966.0 514.5Q1958 509 1945 509ZM1334 904Q1334 923 1344.5 929.5Q1355 936 1368.0 940.0Q1381 944 1392.5 949.5Q1404 955 1406 972V814Q1391 796 1370 796Q1355 796 1344.5 806.5Q1334 817 1334 832Q1334 843 1343.0 850.0Q1352 857 1352 868Q1352 879 1343.0 886.0Q1334 893 1334 904Z" style="fill:#16c60c;stroke:none" transform="scale(1,-1) translate(0,-256)" /></svg>