<?xml version="1.0" encoding="utf-8" ?>
<svg baseProfile="full" height="256" version="1.1" width="256" xmlns="http://www.w3.org/2000/svg" xmlns:ev="http://www.w3.org/2001/xml-events" xmlns:xlink="http://www.w3.org/1999/xlink"><defs /><path d="M1406 -54 1337 413Q1329 472 1315.5 529.0Q1302 586 1302 646Q1302 700 1315.0 752.0Q1328 804 1337 858L1406 1281L1909 1497L1987 1032Q1997 974 2011.5 916.5Q2026 859 2026 800Q2026 745 2011.5 693.0Q1997 641 1987 587L1909 162ZM543 1343 903 1497 971 1023Q979 964 992.0 905.0Q1005 846 1005 786Q1005 732 992.0 681.0Q979 630 971 578L903 162L543 8Z" style="fill:#0063b1;stroke:none" transform="scale(1,-1) translate(0,-256)" /></svg>