<?xml version="1.0" encoding="utf-8" ?>
<svg baseProfile="full" height="256" version="1.1" width="256" xmlns="http://www.w3.org/2000/svg" xmlns:ev="http://www.w3.org/2001/xml-events" xmlns:xlink="http://www.w3.org/1999/xlink"><defs /><path d="M1909 1810Q2070 1738 2232.5 1671.0Q2395 1604 2556 1532V-428Q2394 -358 2233.0 -289.0Q2072 -220 1909 -151L1406 -366L903 -151Q740 -220 579.0 -289.0Q418 -358 256 -428V1532Q417 1604 579.5 1671.0Q742 1738 903 1810Q1028 1753 1153.5 1700.5Q1279 1648 1406 1594Q1533 1648 1658.5 1700.5Q1784 1753 1909 1810Z" style="fill:#000000;stroke:none" transform="scale(1,-1) translate(0,-256)" /></svg>