<?xml version="1.0" encoding="utf-8" ?>
<svg baseProfile="full" height="256" version="1.1" width="256" xmlns="http://www.w3.org/2000/svg" xmlns:ev="http://www.w3.org/2001/xml-events" xmlns:xlink="http://www.w3.org/1999/xlink"><defs /><path d="M1616 931Q1748 922 1868.5 881.0Q1989 840 2093.5 772.5Q2198 705 2283.0 614.5Q2368 524 2428.5 415.5Q2489 307 2522.0 183.5Q2555 60 2555 -72V-431H1693Q1554 -431 1425.5 -395.0Q1297 -359 1185.5 -293.5Q1074 -228 982.0 -136.0Q890 -44 824.5 67.5Q759 179 723.0 307.5Q687 436 687 575V630Q593 736 520.0 857.0Q447 978 393.5 1108.5Q340 1239 306.0 1376.5Q272 1514 257 1654Q256 1659 256.0 1663.5Q256 1668 256 1673Q256 1710 271.0 1745.5Q286 1781 311.5 1808.5Q337 1836 370.5 1852.5Q404 1869 442 1869Q491 1869 528.5 1854.0Q566 1839 592.0 1812.0Q618 1785 633.5 1747.0Q649 1709 654 1663Q688 1677 724 1677Q801 1677 846.0 1635.5Q891 1594 916 1525Q921 1509 925.0 1493.0Q929 1477 934 1461Q978 1483 1023 1483Q1086 1483 1126.5 1454.0Q1167 1425 1199 1373Q1218 1343 1235.0 1312.0Q1252 1281 1272 1252Q1305 1203 1346.0 1160.5Q1387 1118 1431.5 1079.0Q1476 1040 1523.0 1003.5Q1570 967 1616 931Z" style="fill:#000000;stroke:none" transform="scale(1,-1) translate(0,-256)" /></svg>