<?xml version="1.0" encoding="utf-8" ?>
<svg baseProfile="full" height="256" version="1.1" width="256" xmlns="http://www.w3.org/2000/svg" xmlns:ev="http://www.w3.org/2001/xml-events" xmlns:xlink="http://www.w3.org/1999/xlink"><defs /><path d="M1938 144 2175 -93Q2196 -114 2196 -144Q2196 -173 2174.5 -194.5Q2153 -216 2124 -216Q2110 -216 2096.5 -210.0Q2083 -204 2073 -194L1837 42V-144Q1837 -173 1815.5 -194.5Q1794 -216 1765 -216Q1736 -216 1714.5 -194.5Q1693 -173 1693 -144V186L1549 330V144Q1549 114 1528.0 93.0Q1507 72 1477 72Q1448 72 1427.0 93.5Q1406 115 1406 144V453Q1349 493 1289.5 522.5Q1230 552 1167 579Q1145 588 1131.5 605.0Q1118 622 1118 647Q1118 676 1139.5 697.0Q1161 718 1190 718Q1214 718 1254.5 701.5Q1295 685 1338.5 661.5Q1382 638 1421.5 614.0Q1461 590 1482 575H1837Q1866 575 1887.0 553.5Q1908 532 1908 503Q1908 474 1887.0 452.5Q1866 431 1837 431H1651L1794 287H2124Q2153 287 2174.5 266.0Q2196 245 2196 216Q2196 186 2175.0 165.0Q2154 144 2124 144Z" style="fill:#107c10;stroke:none" transform="scale(1,-1) translate(0,-256)" /></svg>