<?xml version="1.0" encoding="utf-8" ?>
<svg baseProfile="full" height="256" version="1.1" width="256" xmlns="http://www.w3.org/2000/svg" xmlns:ev="http://www.w3.org/2001/xml-events" xmlns:xlink="http://www.w3.org/1999/xlink"><defs /><path d="M928 789H1549Q1668 789 1778.0 758.0Q1888 727 1984.0 671.0Q2080 615 2158.5 536.5Q2237 458 2293.0 362.0Q2349 266 2380.0 156.0Q2411 46 2411 -73V-288H1693Q1574 -288 1464.0 -257.0Q1354 -226 1258.0 -170.0Q1162 -114 1083.5 -35.5Q1005 43 949.0 139.0Q893 235 862.0 345.0Q831 455 831 574V684Q819 697 798.0 721.5Q777 746 752.5 776.5Q728 807 703.0 840.5Q678 874 657.5 905.5Q637 937 624.0 963.0Q611 989 611 1005Q611 1034 631.5 1056.0Q652 1078 682 1078Q706 1078 718.5 1068.5Q731 1059 745 1041Q758 1024 768.5 1005.0Q779 986 790 968Q820 920 855.0 875.5Q890 831 928 789Z" style="fill:#73aa24;stroke:none" transform="scale(1,-1) translate(0,-256)" /></svg>