<?xml version="1.0" encoding="utf-8" ?>
<svg baseProfile="full" height="256" version="1.1" width="256" xmlns="http://www.w3.org/2000/svg" xmlns:ev="http://www.w3.org/2001/xml-events" xmlns:xlink="http://www.w3.org/1999/xlink"><defs /><path d="M454 1724Q478 1724 490.0 1710.5Q502 1697 507 1675Q512 1650 513.5 1625.0Q515 1600 520 1575Q536 1490 559.0 1407.0Q582 1324 611 1243Q615 1234 615 1223Q615 1200 599.5 1184.5Q584 1169 561 1169Q544 1169 531.5 1178.0Q519 1187 511 1202Q499 1224 486.0 1260.0Q473 1296 461.0 1340.0Q449 1384 437.5 1431.5Q426 1479 418.0 1523.5Q410 1568 405.0 1606.5Q400 1645 400 1671Q400 1694 415.5 1709.0Q431 1724 454 1724ZM670 1479Q670 1501 686.0 1517.0Q702 1533 724 1533Q745 1533 757.0 1520.5Q769 1508 777 1491Q792 1459 799.5 1422.0Q807 1385 818 1351Q856 1236 920.5 1131.0Q985 1026 1063 934H923Q832 1052 768.5 1186.0Q705 1320 672 1466Q670 1474 670 1479ZM1023 1338Q1041 1338 1051.5 1330.0Q1062 1322 1071 1308Q1087 1284 1100.5 1258.5Q1114 1233 1130 1209Q1156 1167 1183.5 1130.5Q1211 1094 1241.0 1060.0Q1271 1026 1305.0 995.0Q1339 964 1378 934H1215Q1183 965 1147.5 1004.0Q1112 1043 1079.0 1086.5Q1046 1130 1018.0 1174.5Q990 1219 974 1260Q969 1273 969 1284Q969 1306 985.0 1322.0Q1001 1338 1023 1338Z" style="fill:#83beec;stroke:none" transform="scale(1,-1) translate(0,-256)" /></svg>