<?xml version="1.0" encoding="utf-8" ?>
<svg baseProfile="full" height="256" version="1.1" width="256" xmlns="http://www.w3.org/2000/svg" xmlns:ev="http://www.w3.org/2001/xml-events" xmlns:xlink="http://www.w3.org/1999/xlink"><defs /><path d="M1406 641Q1438 630 1458.0 602.0Q1478 574 1478 539Q1478 517 1469.5 497.5Q1461 478 1446.0 463.0Q1431 448 1411.5 439.5Q1392 431 1370 431Q1348 431 1328.5 439.5Q1309 448 1294.0 463.0Q1279 478 1270.5 497.5Q1262 517 1262 539Q1262 561 1272 584L1205 517L1241 482L1189 431L1154 467L1118 431L1068 482L1104 517L1037 584Q1047 561 1047 539Q1047 517 1038.5 497.5Q1030 478 1015.0 463.0Q1000 448 980.5 439.5Q961 431 939 431Q917 431 897.5 439.5Q878 448 863.0 463.0Q848 478 839.5 497.5Q831 517 831 539Q831 574 851.0 602.0Q871 630 903 641V718L400 1221V1236L429 1294L903 820V1366H975V791H1334V1366H1406V820L1880 1294L1909 1236V1221L1406 718ZM1262 360V144H1047V360L1118 324V216H1190V324ZM1154 568 1305 719H1004ZM1370 503Q1385 503 1395.5 513.5Q1406 524 1406 539Q1406 554 1395.5 564.5Q1385 575 1370 575Q1355 575 1344.5 564.5Q1334 554 1334 539Q1334 524 1344.5 513.5Q1355 503 1370 503ZM939 503Q954 503 964.5 513.5Q975 524 975 539Q975 554 964.5 564.5Q954 575 939 575Q924 575 913.5 564.5Q903 554 903 539Q903 524 913.5 513.5Q924 503 939 503Z" style="fill:#e5e5e5;stroke:none" transform="scale(1,-1) translate(0,-256)" /></svg>