<?xml version="1.0" encoding="utf-8" ?>
<svg baseProfile="full" height="256" version="1.1" width="256" xmlns="http://www.w3.org/2000/svg" xmlns:ev="http://www.w3.org/2001/xml-events" xmlns:xlink="http://www.w3.org/1999/xlink"><defs /><path d="M1154 1725Q1211 1678 1257.5 1621.5Q1304 1565 1337.0 1501.0Q1370 1437 1388.0 1367.0Q1406 1297 1406 1222Q1384 1253 1356.5 1279.0Q1329 1305 1297.0 1324.5Q1265 1344 1229.0 1355.0Q1193 1366 1154 1366Q1115 1366 1079.0 1355.0Q1043 1344 1011.5 1324.5Q980 1305 952.5 1279.0Q925 1253 903 1222Q903 1297 921.0 1367.0Q939 1437 971.5 1501.0Q1004 1565 1050.5 1621.5Q1097 1678 1154 1725Z" style="fill:#00cea6;stroke:none" transform="scale(1,-1) translate(0,-256)" /></svg>