<?xml version="1.0" encoding="utf-8" ?>
<svg baseProfile="full" height="256" version="1.1" width="256" xmlns="http://www.w3.org/2000/svg" xmlns:ev="http://www.w3.org/2001/xml-events" xmlns:xlink="http://www.w3.org/1999/xlink"><defs /><path d="M1154 1725H1406Q1510 1725 1601.5 1685.5Q1693 1646 1761.5 1577.5Q1830 1509 1869.5 1417.5Q1909 1326 1909 1222Q1887 1253 1859.5 1279.0Q1832 1305 1800.0 1324.5Q1768 1344 1732.0 1355.0Q1696 1366 1657 1366Q1618 1366 1582.0 1355.0Q1546 1344 1514.5 1324.5Q1483 1305 1455.5 1279.0Q1428 1253 1406 1222ZM1262 431Q1262 402 1240.5 381.0Q1219 360 1190 360Q1190 374 1179.0 385.0Q1168 396 1154 396Q1140 396 1129.0 385.0Q1118 374 1118 360Q1089 360 1068.0 381.0Q1047 402 1047 431Z" style="fill:#41dabc;stroke:none" transform="scale(1,-1) translate(0,-256)" /></svg>