<?xml version="1.0" encoding="utf-8" ?>
<svg baseProfile="full" height="256" version="1.1" width="256" xmlns="http://www.w3.org/2000/svg" xmlns:ev="http://www.w3.org/2001/xml-events" xmlns:xlink="http://www.w3.org/1999/xlink"><defs /><path d="M1154 539Q1176 539 1196.0 530.5Q1216 522 1230.5 507.5Q1245 493 1253.5 473.0Q1262 453 1262 431V360L1190 288H1118L1047 360V431Q1047 453 1055.5 472.5Q1064 492 1078.0 507.0Q1092 522 1111.5 530.5Q1131 539 1154 539ZM1478 -36V-72H1370Q1355 -72 1344.5 -61.5Q1334 -51 1334 -36V0H1406ZM1190 -144H1262L1334 -179V-215H1226Q1211 -215 1200.5 -204.5Q1190 -194 1190 -179ZM1370 539Q1385 539 1395.5 528.5Q1406 518 1406 503Q1406 488 1395.5 477.5Q1385 467 1370 467Q1355 467 1344.5 477.5Q1334 488 1334 503Q1334 518 1344.5 528.5Q1355 539 1370 539ZM939 539Q954 539 964.5 528.5Q975 518 975 503Q975 488 964.5 477.5Q954 467 939 467Q924 467 913.5 477.5Q903 488 903 503Q903 518 913.5 528.5Q924 539 939 539Z" style="fill:#5c2e91;stroke:none" transform="scale(1,-1) translate(0,-256)" /></svg>