<?xml version="1.0" encoding="utf-8" ?>
<svg baseProfile="full" height="256" version="1.1" width="256" xmlns="http://www.w3.org/2000/svg" xmlns:ev="http://www.w3.org/2001/xml-events" xmlns:xlink="http://www.w3.org/1999/xlink"><defs /><path d="M1406 1869Q1496 1869 1579.0 1846.0Q1662 1823 1734.0 1781.0Q1806 1739 1865.0 1680.0Q1924 1621 1965.5 1549.0Q2007 1477 2030.0 1394.0Q2053 1311 2053 1221Q2053 1162 2011 1120L1575 684Q1598 652 1610.0 615.0Q1622 578 1622 539Q1622 489 1603.5 443.5Q1585 398 1550 363Q1550 286 1504 227Q1533 196 1541.5 163.0Q1550 130 1550 89Q1583 69 1602.5 35.5Q1622 2 1622 -36V-72Q1622 -102 1610.5 -128.0Q1599 -154 1579.5 -173.5Q1560 -193 1534.0 -204.0Q1508 -215 1478 -215Q1478 -245 1466.5 -271.0Q1455 -297 1435.5 -316.5Q1416 -336 1390.0 -347.5Q1364 -359 1334 -359H1226Q1189 -359 1156.5 -345.0Q1124 -331 1099.5 -306.5Q1075 -282 1061.0 -249.0Q1047 -216 1047 -179V-131L1018 -103Q983 -70 961.0 -46.0Q939 -22 926.0 4.5Q913 31 908.0 65.5Q903 100 903 156Q836 180 797.5 236.5Q759 293 759 363Q724 398 705.5 444.0Q687 490 687 539Q687 578 698.5 615.0Q710 652 733 684L298 1120Q278 1140 267.0 1166.5Q256 1193 256 1222Q256 1357 306.5 1475.0Q357 1593 444.5 1680.5Q532 1768 650.0 1818.5Q768 1869 903 1869H1406Z" style="fill:#000000;stroke:none" transform="scale(1,-1) translate(0,-256)" /></svg>