<?xml version="1.0" encoding="utf-8" ?>
<svg baseProfile="full" height="256" version="1.1" width="256" xmlns="http://www.w3.org/2000/svg" xmlns:ev="http://www.w3.org/2001/xml-events" xmlns:xlink="http://www.w3.org/1999/xlink"><defs /><path d="M1154 1725Q1091 1599 1027.5 1474.5Q964 1350 903 1222Q881 1253 853.5 1279.0Q826 1305 794.0 1324.5Q762 1344 726.0 1355.0Q690 1366 651 1366Q612 1366 576.0 1355.0Q540 1344 508.5 1324.5Q477 1305 449.5 1279.0Q422 1253 400 1222Q400 1326 439.5 1417.5Q479 1509 547.0 1577.5Q615 1646 707.0 1685.5Q799 1725 903 1725Z" style="fill:#00b294;stroke:none" transform="scale(1,-1) translate(0,-256)" /></svg>