<?xml version="1.0" encoding="utf-8" ?>
<svg baseProfile="full" height="256" version="1.1" width="256" xmlns="http://www.w3.org/2000/svg" xmlns:ev="http://www.w3.org/2001/xml-events" xmlns:xlink="http://www.w3.org/1999/xlink"><defs /><path d="M1406 503V360Q1406 335 1396.5 321.0Q1387 307 1372.0 299.5Q1357 292 1338.0 290.0Q1319 288 1300 288H1262L1190 195H1118L1047 288H1009Q990 288 971.0 290.0Q952 292 937.0 299.5Q922 307 912.5 321.0Q903 335 903 360V503H975V360H1334V503ZM1406 -36 1334 0V72H1190L1262 0V-166L1190 -144V-72L1068 51Q1047 74 1047 102V144L1154 180Q1164 177 1178.5 171.5Q1193 166 1208.0 160.5Q1223 155 1237.5 150.0Q1252 145 1262 144Q1269 143 1277.0 142.5Q1285 142 1295 142Q1315 142 1335.5 143.0Q1356 144 1370 144Q1385 144 1395.5 133.5Q1406 123 1406 108Z" style="fill:#8764b8;stroke:none" transform="scale(1,-1) translate(0,-256)" /></svg>