<?xml version="1.0" encoding="utf-8" ?>
<svg baseProfile="full" height="256" version="1.1" width="256" xmlns="http://www.w3.org/2000/svg" xmlns:ev="http://www.w3.org/2001/xml-events" xmlns:xlink="http://www.w3.org/1999/xlink"><defs /><path d="M1406 1725Q1525 1725 1641.0 1697.5Q1757 1670 1863 1615Q1886 1555 1931.5 1527.0Q1977 1499 2039 1499Q2114 1439 2176.0 1365.5Q2238 1292 2284.5 1208.5Q2331 1125 2361.5 1034.0Q2392 943 2404 848Q2381 821 2367.5 787.5Q2354 754 2354 719Q2354 685 2370.0 651.5Q2386 618 2404 590Q2392 497 2362.5 407.5Q2333 318 2288.0 235.5Q2243 153 2183.0 80.0Q2123 7 2051 -53Q2004 -53 1973.5 -77.0Q1943 -101 1926 -143Q1808 -215 1676.0 -251.0Q1544 -287 1406 -287Q1370 -287 1334.0 -284.0Q1298 -281 1262 -276Q1319 -268 1364.5 -231.0Q1410 -194 1446.0 -139.5Q1482 -85 1508.5 -18.5Q1535 48 1554.0 115.5Q1573 183 1585.0 245.5Q1597 308 1604 355Q1617 446 1622.5 536.5Q1628 627 1628 719Q1628 811 1622.5 901.5Q1617 992 1604 1083Q1597 1130 1585.0 1192.5Q1573 1255 1554.0 1322.5Q1535 1390 1508.5 1456.5Q1482 1523 1446.0 1577.5Q1410 1632 1364.5 1669.0Q1319 1706 1262 1714Q1298 1719 1334.0 1722.0Q1370 1725 1406 1725Z" style="fill:#757575;stroke:none" transform="scale(1,-1) translate(0,-256)" /></svg>