<?xml version="1.0" encoding="utf-8" ?>
<svg baseProfile="full" height="256" version="1.1" width="256" xmlns="http://www.w3.org/2000/svg" xmlns:ev="http://www.w3.org/2001/xml-events" xmlns:xlink="http://www.w3.org/1999/xlink"><defs /><path d="M2125 719Q2125 562 2079.5 418.5Q2034 275 1951.0 154.0Q1868 33 1750.5 -61.5Q1633 -156 1488 -216Q1468 -224 1438.0 -234.5Q1408 -245 1375.5 -254.0Q1343 -263 1312.5 -269.5Q1282 -276 1262 -276Q1236 -276 1198.0 -267.0Q1160 -258 1120.0 -245.0Q1080 -232 1042.5 -217.5Q1005 -203 981 -192Q970 -162 945.0 -138.0Q920 -114 889.0 -96.5Q858 -79 824.5 -68.0Q791 -57 761 -53Q629 56 543.0 199.0Q457 342 422 510Q431 556 434.0 602.0Q437 648 437 695Q437 754 435.0 812.0Q433 870 422 928Q457 1096 543.0 1239.0Q629 1382 761 1491Q809 1491 841.5 1496.0Q874 1501 898.5 1516.0Q923 1531 942.0 1558.0Q961 1585 981 1630Q1005 1641 1042.5 1655.5Q1080 1670 1120.0 1683.0Q1160 1696 1198.0 1705.0Q1236 1714 1262 1714Q1281 1714 1311.5 1707.5Q1342 1701 1375.0 1691.5Q1408 1682 1439.0 1671.5Q1470 1661 1488 1654Q1632 1596 1749.5 1501.0Q1867 1406 1950.5 1284.0Q2034 1162 2079.5 1018.0Q2125 874 2125 719Z" style="fill:#ffc83d;stroke:none" transform="scale(1,-1) translate(0,-256)" /></svg>