<?xml version="1.0" encoding="utf-8" ?>
<svg baseProfile="full" height="256" version="1.1" width="256" xmlns="http://www.w3.org/2000/svg" xmlns:ev="http://www.w3.org/2001/xml-events" xmlns:xlink="http://www.w3.org/1999/xlink"><defs /><path d="M2137 129Q2069 60 1991.0 9.0Q1913 -42 1828.5 -76.5Q1744 -111 1655.5 -128.0Q1567 -145 1477 -145Q1387 -145 1298.5 -128.0Q1210 -111 1125.5 -76.5Q1041 -42 963.0 9.0Q885 60 816 129Q748 197 696.5 275.0Q645 353 611.0 437.5Q577 522 560.0 610.5Q543 699 543 789Q543 879 560.0 967.5Q577 1056 611.5 1140.5Q646 1225 697.0 1303.0Q748 1381 817 1450L918 1552L1021 1449L1375 712L2137 332L2239 230Z" style="fill:#bad80a;stroke:none" transform="scale(1,-1) translate(0,-256)" /></svg>