<?xml version="1.0" encoding="utf-8" ?>
<svg baseProfile="full" height="256" version="1.1" width="256" xmlns="http://www.w3.org/2000/svg" xmlns:ev="http://www.w3.org/2001/xml-events" xmlns:xlink="http://www.w3.org/1999/xlink"><defs /><path d="M1477 -431Q1231 -431 1009.5 -339.0Q788 -247 614 -73Q527 14 460.5 113.5Q394 213 348.5 323.0Q303 433 279.5 550.5Q256 668 256 791Q256 913 279.5 1031.0Q303 1149 348.5 1258.5Q394 1368 460.5 1468.0Q527 1568 614 1655L832 1869L2556 144L2340 -73Q2166 -247 1944.5 -339.0Q1723 -431 1477 -431Z" style="fill:#000000;stroke:none" transform="scale(1,-1) translate(0,-256)" /></svg>