<?xml version="1.0" encoding="utf-8" ?>
<svg baseProfile="full" height="256" version="1.1" width="256" xmlns="http://www.w3.org/2000/svg" xmlns:ev="http://www.w3.org/2001/xml-events" xmlns:xlink="http://www.w3.org/1999/xlink"><defs /><path d="M1046 431Q1076 431 1097.0 410.0Q1118 389 1118 360Q1118 330 1097.0 309.0Q1076 288 1046 288Q1016 288 995.0 309.0Q974 330 974 360Q974 389 995.0 410.0Q1016 431 1046 431ZM1477 863Q1507 863 1528.0 842.0Q1549 821 1549 791Q1549 761 1528.0 740.0Q1507 719 1477 719Q1447 719 1426.0 740.0Q1405 761 1405 791Q1405 821 1426.0 842.0Q1447 863 1477 863ZM1908 431Q1938 431 1959.0 410.0Q1980 389 1980 360Q1980 330 1959.0 309.0Q1938 288 1908 288Q1878 288 1857.0 309.0Q1836 330 1836 360Q1836 389 1857.0 410.0Q1878 431 1908 431ZM1477 431Q1507 431 1528.0 410.0Q1549 389 1549 360Q1549 330 1528.0 309.0Q1507 288 1477 288Q1447 288 1426.0 309.0Q1405 330 1405 360Q1405 389 1426.0 410.0Q1447 431 1477 431ZM1046 863Q1076 863 1097.0 842.0Q1118 821 1118 791Q1118 761 1097.0 740.0Q1076 719 1046 719Q1016 719 995.0 740.0Q974 761 974 791Q974 821 995.0 842.0Q1016 863 1046 863ZM1046 1222Q1076 1222 1097.0 1201.0Q1118 1180 1118 1150Q1118 1120 1097.0 1099.0Q1076 1078 1046 1078Q1016 1078 995.0 1099.0Q974 1120 974 1150Q974 1180 995.0 1201.0Q1016 1222 1046 1222Z" style="fill:#000000;stroke:none" transform="scale(1,-1) translate(0,-256)" /></svg>