<?xml version="1.0" encoding="utf-8" ?>
<svg baseProfile="full" height="256" version="1.1" width="256" xmlns="http://www.w3.org/2000/svg" xmlns:ev="http://www.w3.org/2001/xml-events" xmlns:xlink="http://www.w3.org/1999/xlink"><defs /><path d="M2239 27Q2160 -52 2070.0 -111.5Q1980 -171 1882.5 -210.5Q1785 -250 1682.5 -269.5Q1580 -289 1477 -289Q1373 -289 1271.0 -269.5Q1169 -250 1071.5 -210.5Q974 -171 883.5 -111.5Q793 -52 714 27Q635 106 576.0 196.0Q517 286 477.5 383.5Q438 481 418.5 583.0Q399 685 399 789Q399 892 418.5 994.5Q438 1097 477.5 1194.5Q517 1292 576.5 1382.5Q636 1473 715 1552L817 1653L919 1551L1373 701L2137 332L2340 129Z" style="fill:#13a10e;stroke:none" transform="scale(1,-1) translate(0,-256)" /></svg>