<?xml version="1.0" encoding="utf-8" ?>
<svg baseProfile="full" height="256" version="1.1" width="256" xmlns="http://www.w3.org/2000/svg" xmlns:ev="http://www.w3.org/2001/xml-events" xmlns:xlink="http://www.w3.org/1999/xlink"><defs /><path d="M1836 1078Q1911 1078 1976.5 1050.0Q2042 1022 2091.0 973.0Q2140 924 2168.5 858.5Q2197 793 2197 718Q2197 644 2168.5 579.0Q2140 514 2091.0 465.0Q2042 416 1976.5 388.0Q1911 360 1837 360Q1781 360 1734.5 375.0Q1688 390 1647.5 415.5Q1607 441 1569.5 474.0Q1532 507 1495 542L1474 562L1581 659Q1608 633 1636.0 607.5Q1664 582 1693 558Q1725 532 1760.0 517.5Q1795 503 1837 503Q1882 503 1921.0 520.0Q1960 537 1989.5 566.5Q2019 596 2036.0 635.0Q2053 674 2053 719Q2053 764 2036.0 803.0Q2019 842 1989.5 871.5Q1960 901 1921.0 918.0Q1882 935 1837 935Q1797 935 1760.0 920.5Q1723 906 1694 880L1214 451Q1165 407 1103.0 383.5Q1041 360 975 360Q901 360 835.5 388.0Q770 416 721.0 465.0Q672 514 643.5 579.0Q615 644 615 719Q615 794 643.5 859.0Q672 924 721.0 973.0Q770 1022 835.5 1050.0Q901 1078 976 1078Q1044 1078 1103.5 1055.0Q1163 1032 1214 987Q1246 960 1277.0 932.5Q1308 905 1338 876L1231 779Q1203 805 1175.0 830.5Q1147 856 1118 880Q1086 906 1051.5 920.5Q1017 935 975 935Q930 935 891.0 918.0Q852 901 822.5 871.5Q793 842 776.0 803.0Q759 764 759 719Q759 674 776.0 635.0Q793 596 822.5 566.5Q852 537 891.0 520.0Q930 503 975 503Q1015 503 1052.0 517.5Q1089 532 1118 558L1598 987Q1648 1032 1709.0 1055.0Q1770 1078 1836 1078Z" style="fill:#ffffff;stroke:none" transform="scale(1,-1) translate(0,-256)" /></svg>