<?xml version="1.0" encoding="utf-8" ?>
<svg baseProfile="full" height="256" version="1.1" width="256" xmlns="http://www.w3.org/2000/svg" xmlns:ev="http://www.w3.org/2001/xml-events" xmlns:xlink="http://www.w3.org/1999/xlink"><defs /><path d="M1346 -431 1634 -144Q1577 -144 1520.0 -144.0Q1463 -144 1406 -143V-275L1250 -431H700L936 -195Q917 -200 898.0 -204.5Q879 -209 859 -211Q822 -248 786.0 -284.5Q750 -321 713 -357Q678 -392 633.0 -411.5Q588 -431 538 -431Q466 -431 404 -391Q371 -369 343.5 -346.5Q316 -324 296.5 -297.5Q277 -271 266.5 -238.0Q256 -205 256 -162Q256 -140 259.5 -120.0Q263 -100 270 -80Q274 -66 283.0 -41.5Q292 -17 301.0 9.5Q310 36 318.0 59.5Q326 83 328 95V222Q328 258 336.5 284.5Q345 311 360.0 333.5Q375 356 394.5 376.5Q414 397 437 421Q474 460 508.5 498.5Q543 537 584 572Q742 711 932.0 787.0Q1122 863 1334 863H1981Q2100 863 2204.5 817.5Q2309 772 2387.0 694.0Q2465 616 2510.5 511.5Q2556 407 2556 288V108Q2556 65 2537.0 27.5Q2518 -10 2484 -36V-431Z" style="fill:#000000;stroke:none" transform="scale(1,-1) translate(0,-256)" /></svg>