<?xml version="1.0" encoding="utf-8" ?>
<svg baseProfile="full" height="256" version="1.1" width="256" xmlns="http://www.w3.org/2000/svg" xmlns:ev="http://www.w3.org/2001/xml-events" xmlns:xlink="http://www.w3.org/1999/xlink"><defs /><path d="M423 -72Q427 -61 434.5 -40.5Q442 -20 450.0 1.5Q458 23 464.0 42.5Q470 62 472 72Q473 78 473.5 84.5Q474 91 474 99Q474 120 472.0 144.5Q470 169 470 192Q470 216 474.0 237.5Q478 259 492 273Q504 286 517.0 298.5Q530 311 543 324Q575 357 604.5 390.5Q634 424 669 455Q808 580 977.0 649.5Q1146 719 1334 719H1981Q2070 719 2148.5 685.0Q2227 651 2285.5 592.5Q2344 534 2378.0 455.5Q2412 377 2412 288V108Q2412 93 2401.5 82.5Q2391 72 2376 72Q2361 72 2350.5 82.5Q2340 93 2340 108V278Q2337 187 2283 115L2340 0V-287H2161L2197 -215V-144L2053 0L1459 99H1455Q1449 99 1439.5 98.5Q1430 98 1428 97Q1381 92 1339.0 73.5Q1297 55 1262 25V-215L1190 -287H1047L1118 -215V-72L1060 46Q1028 13 987.5 -13.5Q947 -40 903 -54Q886 -60 868.0 -64.0Q850 -68 832 -70H813Q808 -70 804.0 -70.0Q800 -70 795 -72L582 -141Z" style="fill:#859599;stroke:none" transform="scale(1,-1) translate(0,-256)" /></svg>