<?xml version="1.0" encoding="utf-8" ?>
<svg baseProfile="full" height="256" version="1.1" width="256" xmlns="http://www.w3.org/2000/svg" xmlns:ev="http://www.w3.org/2001/xml-events" xmlns:xlink="http://www.w3.org/1999/xlink"><defs /><path d="M1586 1725H1622Q1731 1725 1832.0 1697.0Q1933 1669 2020.5 1617.5Q2108 1566 2180.5 1493.5Q2253 1421 2304.5 1333.5Q2356 1246 2384.0 1145.0Q2412 1044 2412 935V719Q2412 580 2376.0 451.5Q2340 323 2274.5 211.0Q2209 99 2117.5 7.5Q2026 -84 1914.0 -149.5Q1802 -215 1673.5 -251.0Q1545 -287 1406 -287Q1370 -287 1334.0 -284.5Q1298 -282 1262 -277L1082 81L1262 288Q1341 288 1415 322Q1430 317 1444 317Q1459 317 1476.0 320.0Q1493 323 1507.5 330.0Q1522 337 1531.5 349.0Q1541 361 1541 379Q1541 389 1540.0 398.0Q1539 407 1538 417L1569 459Q1582 467 1598.5 478.0Q1615 489 1630.0 502.5Q1645 516 1655.5 531.5Q1666 547 1666 565Q1666 585 1651.0 602.0Q1636 619 1621 630V641Q1621 660 1620.5 681.0Q1620 702 1620 724Q1620 751 1622.0 777.5Q1624 804 1630 825Q1612 826 1594.0 826.0Q1576 826 1558 826Q1534 826 1514.5 821.5Q1495 817 1474 804Q1396 823 1330.5 866.0Q1265 909 1217.5 969.5Q1170 1030 1144.0 1103.5Q1118 1177 1118 1258Q1118 1355 1155.0 1440.0Q1192 1525 1255.5 1588.5Q1319 1652 1404.0 1688.5Q1489 1725 1586 1725Z" style="fill:#ffb900;stroke:none" transform="scale(1,-1) translate(0,-256)" /></svg>