<?xml version="1.0" encoding="utf-8" ?>
<svg baseProfile="full" height="256" version="1.1" width="256" xmlns="http://www.w3.org/2000/svg" xmlns:ev="http://www.w3.org/2001/xml-events" xmlns:xlink="http://www.w3.org/1999/xlink"><defs /><path d="M1478 1510Q1478 1480 1457.0 1459.0Q1436 1438 1406 1438Q1376 1438 1355.0 1459.0Q1334 1480 1334 1510Q1334 1539 1355.5 1560.0Q1377 1581 1406 1581Q1435 1581 1456.5 1560.0Q1478 1539 1478 1510ZM1765 1510Q1765 1480 1744.0 1459.0Q1723 1438 1693 1438Q1664 1438 1643.0 1459.5Q1622 1481 1622 1510Q1622 1539 1643.0 1560.0Q1664 1581 1693 1581Q1722 1581 1743.5 1560.0Q1765 1539 1765 1510ZM1478 1222Q1478 1192 1457.0 1171.0Q1436 1150 1406 1150Q1376 1150 1355.0 1171.0Q1334 1192 1334 1222Q1334 1252 1355.0 1273.0Q1376 1294 1406 1294Q1436 1294 1457.0 1273.0Q1478 1252 1478 1222ZM1622 778V791Q1584 791 1547.5 792.5Q1511 794 1474 804Q1498 856 1531.5 912.5Q1565 969 1604.0 1024.0Q1643 1079 1686.0 1128.0Q1729 1177 1773 1213Q1796 1231 1822 1231Q1851 1231 1872.5 1210.0Q1894 1189 1894 1159Q1894 1130 1870 1106Q1831 1068 1796.5 1030.5Q1762 993 1731.5 953.0Q1701 913 1673.5 870.0Q1646 827 1622 778ZM2058 611Q2058 582 2036.5 560.5Q2015 539 1986 539Q1878 539 1773.0 519.5Q1668 500 1568 459Q1592 497 1605.5 541.0Q1619 585 1621 630Q1710 657 1801.5 670.0Q1893 683 1986 683Q2016 683 2037.0 662.0Q2058 641 2058 611ZM1719 81Q1682 81 1660 111Q1608 178 1550.0 230.5Q1492 283 1415 321Q1486 356 1538 417Q1554 407 1579.0 389.0Q1604 371 1632.0 348.0Q1660 325 1688.0 299.0Q1716 273 1739.0 247.0Q1762 221 1776.0 196.5Q1790 172 1790 153Q1790 123 1769.5 102.0Q1749 81 1719 81Z" style="fill:#d48c00;stroke:none" transform="scale(1,-1) translate(0,-256)" /></svg>