<?xml version="1.0" encoding="utf-8" ?>
<svg baseProfile="full" height="256" version="1.1" width="256" xmlns="http://www.w3.org/2000/svg" xmlns:ev="http://www.w3.org/2001/xml-events" xmlns:xlink="http://www.w3.org/1999/xlink"><defs /><path d="M1406 -431Q1247 -431 1100.0 -390.0Q953 -349 825.5 -274.0Q698 -199 593.0 -94.0Q488 11 413.0 138.5Q338 266 297.0 413.0Q256 560 256 719V1725H400Q471 1725 535.5 1698.5Q600 1672 651 1622Q687 1657 723.5 1678.0Q760 1699 797.5 1709.5Q835 1720 875.0 1723.0Q915 1726 957 1726Q979 1726 1001.5 1725.5Q1024 1725 1047 1725V1545Q1087 1620 1144.5 1680.0Q1202 1740 1271.5 1782.0Q1341 1824 1421.0 1846.5Q1501 1869 1586 1869H1622Q1751 1869 1870.0 1835.5Q1989 1802 2093.0 1741.0Q2197 1680 2282.0 1595.0Q2367 1510 2428.0 1406.0Q2489 1302 2522.5 1183.0Q2556 1064 2556 935V719Q2556 560 2515.0 413.5Q2474 267 2399.0 139.0Q2324 11 2219.0 -94.0Q2114 -199 1986.0 -274.0Q1858 -349 1711.0 -390.0Q1564 -431 1406 -431ZM1047 647Q1047 602 1064.0 563.0Q1081 524 1110.0 494.5Q1139 465 1178.0 448.0Q1217 431 1262 431Q1310 431 1349.5 449.0Q1389 467 1417.5 497.5Q1446 528 1462.0 569.0Q1478 610 1478 657Q1409 669 1345.5 696.5Q1282 724 1226.5 764.5Q1171 805 1125.5 857.0Q1080 909 1047 971Z" style="fill:#000000;stroke:none" transform="scale(1,-1) translate(0,-256)" /></svg>