<?xml version="1.0" encoding="utf-8" ?>
<svg baseProfile="full" height="256" version="1.1" width="256" xmlns="http://www.w3.org/2000/svg" xmlns:ev="http://www.w3.org/2001/xml-events" xmlns:xlink="http://www.w3.org/1999/xlink"><defs /><path d="M903 791V647H403Q401 665 400.5 683.0Q400 701 400 719V791ZM1064 347 710 -7Q684 18 660.0 44.5Q636 71 613 100L962 449Q1003 388 1064 347ZM903 1581V1366Q859 1366 820.5 1350.0Q782 1334 753.0 1306.0Q724 1278 706.0 1240.0Q688 1202 687 1159V1366Q687 1411 704.0 1450.0Q721 1489 750.5 1518.0Q780 1547 819.0 1564.0Q858 1581 903 1581ZM615 1366V1150Q615 1195 598.0 1234.0Q581 1273 552.0 1302.5Q523 1332 484.0 1349.0Q445 1366 400 1366V1581Q445 1581 484.0 1564.0Q523 1547 552.0 1518.0Q581 1489 598.0 1450.0Q615 1411 615 1366Z" style="fill:#f03a17;stroke:none" transform="scale(1,-1) translate(0,-256)" /></svg>