<?xml version="1.0" encoding="utf-8" ?>
<svg baseProfile="full" height="256" version="1.1" width="256" xmlns="http://www.w3.org/2000/svg" xmlns:ev="http://www.w3.org/2001/xml-events" xmlns:xlink="http://www.w3.org/1999/xlink"><defs /><path d="M1083 647Q1150 647 1208.5 621.5Q1267 596 1311.0 552.0Q1355 508 1380.5 449.5Q1406 391 1406 324Q1406 257 1380.5 198.0Q1355 139 1311.0 95.0Q1267 51 1208.5 25.5Q1150 0 1083 0Q1016 0 957.0 25.5Q898 51 854.0 95.0Q810 139 784.5 198.0Q759 257 759 324Q759 391 784.5 449.5Q810 508 854.0 552.0Q898 596 957.0 621.5Q1016 647 1083 647ZM907 756Q826 722 763 664Q761 678 760.0 691.5Q759 705 759 719Q759 808 793.0 886.5Q827 965 885.5 1023.5Q944 1082 1022.5 1116.0Q1101 1150 1190 1150H1622V1366L1909 1078L1622 791V1006H1190Q1136 1006 1087.5 987.0Q1039 968 1001.5 934.5Q964 901 939.0 855.0Q914 809 907 756ZM1985 951Q2018 899 2035.5 840.0Q2053 781 2053 719Q2053 630 2019.0 551.5Q1985 473 1926.5 414.5Q1868 356 1789.5 322.0Q1711 288 1622 288H1548Q1549 297 1549.5 306.0Q1550 315 1550 324Q1550 351 1546.5 378.0Q1543 405 1537 431H1622Q1680 431 1732.5 454.0Q1785 477 1824.0 516.5Q1863 556 1886.0 608.0Q1909 660 1909 719Q1909 786 1879 845ZM1137 122V534H1084Q1057 513 1026.5 497.5Q996 482 963 474V399Q986 402 1008.0 410.5Q1030 419 1049 434V122Z" style="fill:#ffffff;stroke:none" transform="scale(1,-1) translate(0,-256)" /></svg>