<?xml version="1.0" encoding="utf-8" ?>
<svg baseProfile="full" height="256" version="1.1" width="256" xmlns="http://www.w3.org/2000/svg" xmlns:ev="http://www.w3.org/2001/xml-events" xmlns:xlink="http://www.w3.org/1999/xlink"><defs /><path d="M975 1078Q1004 1078 1025.5 1056.5Q1047 1035 1047 1006V431Q1047 402 1025.5 380.5Q1004 359 975 359H687Q658 359 636.5 380.5Q615 402 615 431V1006Q615 1035 636.5 1056.5Q658 1078 687 1078ZM723 0Q745 0 765.0 -8.5Q785 -17 799.5 -31.5Q814 -46 822.5 -66.0Q831 -86 831 -108Q831 -130 822.5 -149.5Q814 -169 799.0 -184.0Q784 -199 764.5 -207.5Q745 -216 723 -216Q688 -216 660.0 -196.0Q632 -176 621 -144H723Q738 -144 748.5 -133.5Q759 -123 759 -108Q759 -93 748.5 -82.5Q738 -72 723 -72H621Q632 -40 660.0 -20.0Q688 0 723 0ZM1837 -108Q1837 -123 1847.5 -133.5Q1858 -144 1873 -144H1975Q1964 -176 1936.0 -196.0Q1908 -216 1873 -216Q1851 -216 1831.5 -207.5Q1812 -199 1797.0 -184.0Q1782 -169 1773.5 -149.5Q1765 -130 1765 -108Q1765 -86 1773.5 -66.5Q1782 -47 1797.0 -32.0Q1812 -17 1831.5 -8.5Q1851 0 1873 0Q1908 0 1936.0 -20.0Q1964 -40 1975 -72H1873Q1858 -72 1847.5 -82.5Q1837 -93 1837 -108ZM2089 0Q2111 0 2130.5 -8.5Q2150 -17 2165.0 -32.0Q2180 -47 2188.5 -66.5Q2197 -86 2197 -108Q2197 -130 2188.5 -149.5Q2180 -169 2165.0 -184.0Q2150 -199 2130.5 -207.5Q2111 -216 2089 -216Q2054 -216 2026.0 -196.0Q1998 -176 1987 -144H2089Q2104 -144 2114.5 -133.5Q2125 -123 2125 -108Q2125 -93 2114.5 -82.5Q2104 -72 2089 -72H1987Q1998 -40 2026.0 -20.0Q2054 0 2089 0ZM472 -108Q472 -123 482.5 -133.5Q493 -144 508 -144H609Q598 -176 570.0 -196.0Q542 -216 508 -216Q486 -216 466.5 -207.5Q447 -199 432.0 -184.0Q417 -169 408.5 -149.5Q400 -130 400 -108Q400 -86 408.5 -66.0Q417 -46 431.5 -31.5Q446 -17 465.5 -8.5Q485 0 508 0Q542 0 570.0 -20.0Q598 -40 609 -72H508Q493 -72 482.5 -82.5Q472 -93 472 -108Z" style="fill:#cccccc;stroke:none" transform="scale(1,-1) translate(0,-256)" /></svg>