<?xml version="1.0" encoding="utf-8" ?>
<svg baseProfile="full" height="256" version="1.1" width="256" xmlns="http://www.w3.org/2000/svg" xmlns:ev="http://www.w3.org/2001/xml-events" xmlns:xlink="http://www.w3.org/1999/xlink"><defs /><path d="M2340 0V-72H2158L2127 -175Q2114 -172 2094.0 -167.0Q2074 -162 2053.0 -157.0Q2032 -152 2012.5 -148.0Q1993 -144 1983 -144Q1945 -144 1908.5 -155.0Q1872 -166 1835 -173L1814 -72H1693L1622 -144H975L903 -72H793V-168Q749 -163 704.5 -153.5Q660 -144 616 -144Q571 -144 528.5 -153.0Q486 -162 442 -167Q466 -98 494.0 -31.0Q522 36 557 100H2177L2206 0Z" style="fill:#757575;stroke:none" transform="scale(1,-1) translate(0,-256)" /></svg>