<?xml version="1.0" encoding="utf-8" ?>
<svg baseProfile="full" height="256" version="1.1" width="256" xmlns="http://www.w3.org/2000/svg" xmlns:ev="http://www.w3.org/2001/xml-events" xmlns:xlink="http://www.w3.org/1999/xlink"><defs /><path d="M2257 815Q2257 785 2262.5 752.5Q2268 720 2278.5 687.5Q2289 655 2304.5 626.0Q2320 597 2340 575V287L2255 213H499L400 287V575Q418 597 433.5 625.0Q449 653 460.0 683.0Q471 713 477.0 744.0Q483 775 483 804Q483 830 478.5 859.0Q474 888 464.0 915.0Q454 942 438.0 966.0Q422 990 400 1006V1150L552 1237H2218L2340 1150V1006Q2317 994 2301.0 971.5Q2285 949 2275.5 922.5Q2266 896 2261.5 867.5Q2257 839 2257 815Z" style="fill:#f2f2f2;stroke:none" transform="scale(1,-1) translate(0,-256)" /></svg>