<?xml version="1.0" encoding="utf-8" ?>
<svg baseProfile="full" height="256" version="1.1" width="256" xmlns="http://www.w3.org/2000/svg" xmlns:ev="http://www.w3.org/2001/xml-events" xmlns:xlink="http://www.w3.org/1999/xlink"><defs /><path d="M1190 288Q1190 333 1207.0 372.0Q1224 411 1253.5 440.0Q1283 469 1322.0 486.0Q1361 503 1406 503Q1451 503 1490.0 486.0Q1529 469 1558.5 440.0Q1588 411 1605.0 372.0Q1622 333 1622 288V216Q1622 171 1605.0 132.0Q1588 93 1558.5 63.5Q1529 34 1490.0 17.0Q1451 0 1406 0Q1361 0 1322.0 17.0Q1283 34 1253.5 63.5Q1224 93 1207.0 132.0Q1190 171 1190 216ZM1801 1150Q1823 1150 1843.0 1141.5Q1863 1133 1877.5 1118.5Q1892 1104 1900.5 1084.0Q1909 1064 1909 1042V899Q1909 876 1900.5 856.5Q1892 837 1877.5 822.5Q1863 808 1843.0 799.5Q1823 791 1801 791Q1779 791 1759.5 799.5Q1740 808 1725.0 823.0Q1710 838 1701.5 857.5Q1693 877 1693 899V1042Q1693 1064 1701.5 1083.5Q1710 1103 1725.0 1118.0Q1740 1133 1759.5 1141.5Q1779 1150 1801 1150ZM1011 1150Q1033 1150 1053.0 1141.5Q1073 1133 1087.0 1118.0Q1101 1103 1109.5 1083.5Q1118 1064 1118 1042V899Q1118 877 1109.5 857.5Q1101 838 1087.0 823.0Q1073 808 1053.0 799.5Q1033 791 1011 791Q988 791 968.5 799.5Q949 808 934.5 822.5Q920 837 911.5 856.5Q903 876 903 899V1042Q903 1064 911.5 1084.0Q920 1104 934.5 1118.5Q949 1133 968.5 1141.5Q988 1150 1011 1150Z" style="fill:#000000;stroke:none" transform="scale(1,-1) translate(0,-256)" /></svg>