<?xml version="1.0" encoding="utf-8" ?>
<svg baseProfile="full" height="256" version="1.1" width="256" xmlns="http://www.w3.org/2000/svg" xmlns:ev="http://www.w3.org/2001/xml-events" xmlns:xlink="http://www.w3.org/1999/xlink"><defs /><path d="M1478 755Q1478 667 1450.0 584.5Q1422 502 1369 431H508Q455 502 427.5 584.5Q400 667 400 755V1438Q498 1438 589.5 1412.0Q681 1386 761.0 1339.0Q841 1292 906.5 1226.0Q972 1160 1019.0 1080.0Q1066 1000 1092.0 908.5Q1118 817 1118 719V647Q1148 647 1169.0 668.0Q1190 689 1190 719V1438H1478Z" style="fill:#f03a17;stroke:none" transform="scale(1,-1) translate(0,-256)" /></svg>