<?xml version="1.0" encoding="utf-8" ?>
<svg baseProfile="full" height="256" version="1.1" width="256" xmlns="http://www.w3.org/2000/svg" xmlns:ev="http://www.w3.org/2001/xml-events" xmlns:xlink="http://www.w3.org/1999/xlink"><defs /><path d="M1078 235 1325 -12Q1329 -16 1331.5 -23.5Q1334 -31 1334 -36Q1334 -59 1319.0 -65.5Q1304 -72 1285 -72Q1228 -72 1176.5 -59.5Q1125 -47 1080.5 -21.5Q1036 4 1000.0 42.5Q964 81 939 134Q889 31 801.0 -20.5Q713 -72 600 -72Q591 -72 580.5 -71.0Q570 -70 562.0 -66.5Q554 -63 548.5 -55.5Q543 -48 543 -36Q543 -22 553 -12L799 235Q711 258 636.5 309.0Q562 360 508 432Q516 448 528.0 460.0Q540 472 554 483Q595 516 643.0 536.5Q691 557 742.5 569.0Q794 581 846.5 585.5Q899 590 950 590Q996 590 1047.5 586.0Q1099 582 1149.0 570.5Q1199 559 1245.0 538.5Q1291 518 1327 486Q1340 475 1351.0 462.0Q1362 449 1369 432Q1315 360 1240.5 309.0Q1166 258 1078 235Z" style="fill:#13a10e;stroke:none" transform="scale(1,-1) translate(0,-256)" /></svg>