<?xml version="1.0" encoding="utf-8" ?>
<svg baseProfile="full" height="256" version="1.1" width="256" xmlns="http://www.w3.org/2000/svg" xmlns:ev="http://www.w3.org/2001/xml-events" xmlns:xlink="http://www.w3.org/1999/xlink"><defs /><path d="M2197 863Q2242 863 2281.0 846.0Q2320 829 2349.0 799.5Q2378 770 2395.0 731.0Q2412 692 2412 647V503L2375 467L2412 431V-215Q2412 -245 2391.0 -266.0Q2370 -287 2340 -287H472Q442 -287 421.0 -266.0Q400 -245 400 -215H1765V431H400V503H1765V647Q1765 692 1782.0 731.0Q1799 770 1828.5 799.5Q1858 829 1897.0 846.0Q1936 863 1981 863Z" style="fill:#af0d1a;stroke:none" transform="scale(1,-1) translate(0,-256)" /></svg>