<?xml version="1.0" encoding="utf-8" ?>
<svg baseProfile="full" height="256" version="1.1" width="256" xmlns="http://www.w3.org/2000/svg" xmlns:ev="http://www.w3.org/2001/xml-events" xmlns:xlink="http://www.w3.org/1999/xlink"><defs /><path d="M795 575H867Q882 575 892.5 564.5Q903 554 903 539V324Q903 301 894.5 281.5Q886 262 871.5 247.5Q857 233 837.0 224.5Q817 216 795 216H723ZM1514 575H1586Q1600 575 1611.0 564.0Q1622 553 1622 539V324Q1622 302 1613.5 282.5Q1605 263 1590.0 248.0Q1575 233 1555.5 224.5Q1536 216 1514 216H1442Z" style="fill:#757575;stroke:none" transform="scale(1,-1) translate(0,-256)" /></svg>