<?xml version="1.0" encoding="utf-8" ?>
<svg baseProfile="full" height="256" version="1.1" width="256" xmlns="http://www.w3.org/2000/svg" xmlns:ev="http://www.w3.org/2001/xml-events" xmlns:xlink="http://www.w3.org/1999/xlink"><defs /><path d="M723 216Q701 216 681.5 224.5Q662 233 647.0 248.0Q632 263 623.5 282.5Q615 302 615 324V431L650 467L615 503V539Q615 554 625.5 564.5Q636 575 651 575H795Q810 575 820.5 564.5Q831 554 831 539V503L788 467L831 431V324Q831 301 822.5 281.5Q814 262 799.5 247.5Q785 233 765.0 224.5Q745 216 723 216ZM1442 216Q1419 216 1399.5 224.5Q1380 233 1365.5 247.5Q1351 262 1342.5 281.5Q1334 301 1334 324V431L1370 467L1334 503V539Q1334 554 1344.5 564.5Q1355 575 1370 575H1514Q1529 575 1539.5 564.5Q1550 554 1550 539V503L1515 467L1550 431V324Q1550 302 1541.5 282.5Q1533 263 1518.0 248.0Q1503 233 1483.5 224.5Q1464 216 1442 216Z" style="fill:#e5e5e5;stroke:none" transform="scale(1,-1) translate(0,-256)" /></svg>