<?xml version="1.0" encoding="utf-8" ?>
<svg baseProfile="full" height="256" version="1.1" width="256" xmlns="http://www.w3.org/2000/svg" xmlns:ev="http://www.w3.org/2001/xml-events" xmlns:xlink="http://www.w3.org/1999/xlink"><defs /><path d="M472 -431Q427 -431 388.0 -414.0Q349 -397 319.5 -367.5Q290 -338 273.0 -299.0Q256 -260 256 -215V647Q256 721 284.0 786.5Q312 852 361.0 900.5Q410 949 475.5 977.5Q541 1006 615 1006H903Q903 1065 925.5 1117.5Q948 1170 987.0 1209.0Q1026 1248 1078.5 1271.0Q1131 1294 1190 1294H1550Q1609 1294 1661.5 1271.0Q1714 1248 1753.0 1209.0Q1792 1170 1814.5 1117.5Q1837 1065 1837 1006H2197Q2271 1006 2336.5 977.5Q2402 949 2450.5 900.5Q2499 852 2527.5 786.5Q2556 721 2556 647V-215Q2556 -260 2539.0 -299.0Q2522 -338 2492.5 -367.5Q2463 -397 2424.0 -414.0Q2385 -431 2340 -431Z" style="fill:#000000;stroke:none" transform="scale(1,-1) translate(0,-256)" /></svg>