<?xml version="1.0" encoding="utf-8" ?>
<svg baseProfile="full" height="256" version="1.1" width="256" xmlns="http://www.w3.org/2000/svg" xmlns:ev="http://www.w3.org/2001/xml-events" xmlns:xlink="http://www.w3.org/1999/xlink"><defs /><path d="M1621 1639Q1685 1621 1738.0 1584.0Q1791 1547 1829.0 1497.0Q1867 1447 1888.0 1385.5Q1909 1324 1909 1258V647Q1909 512 1878.5 383.5Q1848 255 1792.0 137.5Q1736 20 1656.5 -85.5Q1577 -191 1478 -281V-431H687V-281Q589 -191 509.5 -85.5Q430 20 373.5 138.0Q317 256 286.5 384.0Q256 512 256 647V1258Q256 1324 277.0 1385.5Q298 1447 336.0 1497.0Q374 1547 427.0 1584.0Q480 1621 544 1639Q544 1686 559.0 1727.5Q574 1769 602.0 1800.5Q630 1832 670.0 1850.5Q710 1869 759 1869H1406Q1475 1869 1528.0 1832.0Q1581 1795 1605 1731Q1610 1718 1613.0 1708.0Q1616 1698 1617.5 1688.5Q1619 1679 1619.5 1669.0Q1620 1659 1621 1645Z" style="fill:#000000;stroke:none" transform="scale(1,-1) translate(0,-256)" /></svg>