<?xml version="1.0" encoding="utf-8" ?>
<svg baseProfile="full" height="256" version="1.1" width="256" xmlns="http://www.w3.org/2000/svg" xmlns:ev="http://www.w3.org/2001/xml-events" xmlns:xlink="http://www.w3.org/1999/xlink"><defs /><path d="M1334 1510Q1334 1441 1349.5 1382.0Q1365 1323 1393.0 1270.5Q1421 1218 1461.0 1171.0Q1501 1124 1550 1078Q1599 1033 1638.5 985.5Q1678 938 1706.0 885.5Q1734 833 1749.5 774.5Q1765 716 1765 647Q1765 518 1734.0 397.5Q1703 277 1647.0 168.0Q1591 59 1511.0 -37.5Q1431 -134 1334 -215H831Q733 -134 653.5 -37.5Q574 59 518.0 168.0Q462 277 431.0 397.5Q400 518 400 647Q400 716 415.5 774.5Q431 833 459.0 885.5Q487 938 526.5 985.5Q566 1033 615 1078Q664 1124 704.0 1171.0Q744 1218 772.0 1270.5Q800 1323 815.5 1382.0Q831 1441 831 1510Q831 1539 812.0 1559.0Q793 1579 765 1581H1400Q1371 1579 1352.5 1559.0Q1334 1539 1334 1510Z" style="fill:#ffb900;stroke:none" transform="scale(1,-1) translate(0,-256)" /></svg>