<?xml version="1.0" encoding="utf-8" ?>
<svg baseProfile="full" height="256" version="1.1" width="256" xmlns="http://www.w3.org/2000/svg" xmlns:ev="http://www.w3.org/2001/xml-events" xmlns:xlink="http://www.w3.org/1999/xlink"><defs /><path d="M903 1150H759V1258Q759 1280 750.5 1300.0Q742 1320 727.5 1334.5Q713 1349 693.0 1357.5Q673 1366 651 1366Q629 1366 609.5 1357.5Q590 1349 575.0 1334.0Q560 1319 551.5 1299.5Q543 1280 543 1258V647H400V1258Q400 1310 419.5 1356.0Q439 1402 473.0 1436.0Q507 1470 553.0 1490.0Q599 1510 651 1510Q703 1510 749.0 1490.0Q795 1470 829.0 1436.0Q863 1402 883.0 1356.0Q903 1310 903 1258ZM1514 1510Q1566 1510 1612.0 1490.0Q1658 1470 1692.0 1436.0Q1726 1402 1745.5 1356.0Q1765 1310 1765 1258V647H1622V1258Q1622 1280 1613.5 1299.5Q1605 1319 1590.0 1334.0Q1575 1349 1555.5 1357.5Q1536 1366 1514 1366Q1491 1366 1471.5 1357.5Q1452 1349 1437.5 1334.5Q1423 1320 1414.5 1300.0Q1406 1280 1406 1258V1150H1262V1258Q1262 1310 1282.0 1356.0Q1302 1402 1336.0 1436.0Q1370 1470 1416.0 1490.0Q1462 1510 1514 1510ZM687 1653Q687 1683 708.0 1704.0Q729 1725 759 1725H1406Q1436 1725 1457.0 1704.0Q1478 1683 1478 1653Q1478 1616 1452.5 1598.5Q1427 1581 1394 1581Q1379 1581 1361.5 1572.5Q1344 1564 1327.5 1552.0Q1311 1540 1296.0 1526.5Q1281 1513 1271 1503H874Q860 1516 848.0 1530.0Q836 1544 822.5 1555.5Q809 1567 794.0 1574.0Q779 1581 759 1581Q730 1581 708.5 1602.5Q687 1624 687 1653ZM831 -287V-135H1334V-287Z" style="fill:#d48c00;stroke:none" transform="scale(1,-1) translate(0,-256)" /></svg>