<?xml version="1.0" encoding="utf-8" ?>
<svg baseProfile="full" height="256" version="1.1" width="256" xmlns="http://www.w3.org/2000/svg" xmlns:ev="http://www.w3.org/2001/xml-events" xmlns:xlink="http://www.w3.org/1999/xlink"><defs /><path d="M1190 1438Q1250 1438 1302.5 1415.5Q1355 1393 1394.0 1354.0Q1433 1315 1455.5 1262.5Q1478 1210 1478 1150Q1478 1098 1459.0 1049.5Q1440 1001 1406 962V144Q1406 114 1394.5 87.5Q1383 61 1363.5 41.5Q1344 22 1318.0 11.0Q1292 0 1262 0H687Q657 0 631.0 11.5Q605 23 585.5 42.5Q566 62 554.5 88.0Q543 114 543 144V962Q509 1001 490.5 1049.5Q472 1098 472 1150Q472 1210 494.5 1262.5Q517 1315 556.0 1354.0Q595 1393 647.0 1415.5Q699 1438 759 1438ZM651 72Q666 72 676.5 82.5Q687 93 687 108Q687 123 676.5 133.5Q666 144 651 144Q636 144 625.5 133.5Q615 123 615 108Q615 93 625.5 82.5Q636 72 651 72ZM651 216Q666 216 676.5 226.5Q687 237 687 252Q687 267 676.5 277.5Q666 288 651 288Q636 288 625.5 277.5Q615 267 615 252Q615 237 625.5 226.5Q636 216 651 216ZM795 72Q810 72 820.5 82.5Q831 93 831 108Q831 123 820.5 133.5Q810 144 795 144Q780 144 769.5 133.5Q759 123 759 108Q759 93 769.5 82.5Q780 72 795 72Z" style="fill:#ffd679;stroke:none" transform="scale(1,-1) translate(0,-256)" /></svg>