<?xml version="1.0" encoding="utf-8" ?>
<svg baseProfile="full" height="256" version="1.1" width="256" xmlns="http://www.w3.org/2000/svg" xmlns:ev="http://www.w3.org/2001/xml-events" xmlns:xlink="http://www.w3.org/1999/xlink"><defs /><path d="M2053 1653Q2157 1653 2248.5 1613.5Q2340 1574 2408.5 1505.5Q2477 1437 2516.5 1345.5Q2556 1254 2556 1150Q2556 1082 2537.5 1016.5Q2519 951 2484 893V144Q2484 70 2455.5 4.5Q2427 -61 2378.5 -109.5Q2330 -158 2264.5 -186.5Q2199 -215 2125 -215H687Q613 -215 547.5 -187.0Q482 -159 433.0 -110.0Q384 -61 356.0 4.5Q328 70 328 144V893Q293 951 274.5 1016.5Q256 1082 256 1150Q256 1254 295.5 1345.5Q335 1437 403.5 1505.5Q472 1574 563.5 1613.5Q655 1653 759 1653Z" style="fill:#000000;stroke:none" transform="scale(1,-1) translate(0,-256)" /></svg>