<?xml version="1.0" encoding="utf-8" ?>
<svg baseProfile="full" height="256" version="1.1" width="256" xmlns="http://www.w3.org/2000/svg" xmlns:ev="http://www.w3.org/2001/xml-events" xmlns:xlink="http://www.w3.org/1999/xlink"><defs /><path d="M2412 1150Q2412 1092 2393.5 1037.5Q2375 983 2340 937V144Q2340 99 2323.0 60.0Q2306 21 2277.0 -8.5Q2248 -38 2209.0 -55.0Q2170 -72 2125 -72H687Q642 -72 603.0 -55.0Q564 -38 535.0 -8.5Q506 21 489.0 60.0Q472 99 472 144V937Q437 983 418.5 1037.5Q400 1092 400 1150Q400 1224 428.5 1289.5Q457 1355 505.5 1404.0Q554 1453 619.5 1481.5Q685 1510 759 1510H2053Q2127 1510 2192.5 1481.5Q2258 1453 2306.5 1404.0Q2355 1355 2383.5 1289.5Q2412 1224 2412 1150Z" style="fill:#eba300;stroke:none" transform="scale(1,-1) translate(0,-256)" /></svg>