<?xml version="1.0" encoding="utf-8" ?>
<svg baseProfile="full" height="256" version="1.1" width="256" xmlns="http://www.w3.org/2000/svg" xmlns:ev="http://www.w3.org/2001/xml-events" xmlns:xlink="http://www.w3.org/1999/xlink"><defs /><path d="M1909 791 1945 719Q1935 694 1931.0 667.5Q1927 641 1927 615Q1927 515 1979.0 451.5Q2031 388 2125 359L2025 230H981L831 359Q868 369 905.5 403.0Q943 437 973.0 481.0Q1003 525 1022.0 572.5Q1041 620 1041 658Q1041 675 1035.0 693.0Q1029 711 1011 719L1047 791H1190L1200 810H1396L1406 791Z" style="fill:#f2f2f2;stroke:none" transform="scale(1,-1) translate(0,-256)" /></svg>