<?xml version="1.0" encoding="utf-8" ?>
<svg baseProfile="full" height="256" version="1.1" width="256" xmlns="http://www.w3.org/2000/svg" xmlns:ev="http://www.w3.org/2001/xml-events" xmlns:xlink="http://www.w3.org/1999/xlink"><defs /><path d="M2340 359Q2370 359 2391.0 338.0Q2412 317 2412 287V-33L2268 -72Q2268 -117 2251.0 -156.0Q2234 -195 2205.0 -224.5Q2176 -254 2137.0 -271.0Q2098 -288 2053 -288Q2008 -288 1969.0 -271.0Q1930 -254 1900.5 -224.5Q1871 -195 1854.0 -156.0Q1837 -117 1837 -72L1768 -32H1120L1047 -72Q1047 -117 1030.0 -156.0Q1013 -195 983.5 -224.5Q954 -254 915.0 -271.0Q876 -288 831 -288Q786 -288 747.0 -271.0Q708 -254 678.5 -224.5Q649 -195 632.0 -156.0Q615 -117 615 -72L400 72V144Q426 147 439.5 170.0Q453 193 453 217Q453 241 440.0 263.0Q427 285 400 287Q400 317 421.0 338.0Q442 359 472 359Z" style="fill:#383838;stroke:none" transform="scale(1,-1) translate(0,-256)" /></svg>