<?xml version="1.0" encoding="utf-8" ?>
<svg baseProfile="full" height="256" version="1.1" width="256" xmlns="http://www.w3.org/2000/svg" xmlns:ev="http://www.w3.org/2001/xml-events" xmlns:xlink="http://www.w3.org/1999/xlink"><defs /><path d="M543 955Q543 984 564.5 1005.5Q586 1027 615 1027Q678 1027 728.0 1038.5Q778 1050 822.0 1071.5Q866 1093 907.0 1125.0Q948 1157 993 1198Q1006 1210 1016.5 1216.0Q1027 1222 1046 1222Q1075 1222 1097.0 1201.0Q1119 1180 1119 1150Q1119 1136 1114.0 1125.0Q1109 1114 1101 1103Q1062 1051 1005.0 1010.0Q948 969 882.5 941.0Q817 913 748.0 898.5Q679 884 615 884Q586 884 564.5 905.0Q543 926 543 955ZM1766 1222Q1784 1222 1795.0 1216.0Q1806 1210 1819 1198Q1864 1157 1905.0 1125.0Q1946 1093 1990.0 1071.5Q2034 1050 2084.0 1038.5Q2134 1027 2197 1027Q2226 1027 2247.0 1005.5Q2268 984 2268 955Q2268 926 2247.0 905.0Q2226 884 2197 884Q2133 884 2063.5 898.5Q1994 913 1928.5 941.0Q1863 969 1806.5 1009.5Q1750 1050 1711 1103Q1703 1114 1698.0 1125.0Q1693 1136 1693 1150Q1693 1180 1715.0 1201.0Q1737 1222 1766 1222Z" style="fill:#107c10;stroke:none" transform="scale(1,-1) translate(0,-256)" /></svg>