<?xml version="1.0" encoding="utf-8" ?>
<svg baseProfile="full" height="256" version="1.1" width="256" xmlns="http://www.w3.org/2000/svg" xmlns:ev="http://www.w3.org/2001/xml-events" xmlns:xlink="http://www.w3.org/1999/xlink"><defs /><path d="M1011 575Q988 575 968.5 583.5Q949 592 934.5 606.5Q920 621 911.5 640.5Q903 660 903 683V827Q903 849 911.5 868.5Q920 888 935.0 903.0Q950 918 969.5 926.5Q989 935 1011 935Q1033 935 1052.5 926.5Q1072 918 1086.5 903.0Q1101 888 1109.5 868.5Q1118 849 1118 827V683Q1118 661 1109.5 641.5Q1101 622 1087.0 607.0Q1073 592 1053.0 583.5Q1033 575 1011 575ZM1801 935Q1823 935 1842.5 926.5Q1862 918 1877.0 903.0Q1892 888 1900.5 868.5Q1909 849 1909 827V683Q1909 660 1900.5 640.5Q1892 621 1877.5 606.5Q1863 592 1843.0 583.5Q1823 575 1801 575Q1779 575 1759.5 583.5Q1740 592 1725.0 607.0Q1710 622 1701.5 641.5Q1693 661 1693 683V827Q1693 849 1701.5 868.5Q1710 888 1725.0 903.0Q1740 918 1759.5 926.5Q1779 935 1801 935ZM1641 350Q1656 384 1680.0 412.5Q1704 441 1734.0 461.0Q1764 481 1799.5 492.0Q1835 503 1873 503H1909V431Q1871 431 1838.5 417.0Q1806 403 1781.5 379.0Q1757 355 1743.0 322.0Q1729 289 1729 252Q1729 214 1743.0 181.5Q1757 149 1781.5 124.5Q1806 100 1838.5 86.0Q1871 72 1909 72V0H1873Q1825 0 1782.5 17.0Q1740 34 1707.0 63.5Q1674 93 1652.5 133.0Q1631 173 1625 220Q1577 255 1521.0 271.5Q1465 288 1406 288Q1347 288 1291.0 271.5Q1235 255 1187 220Q1181 173 1159.5 133.0Q1138 93 1105.0 63.5Q1072 34 1029.5 17.0Q987 0 939 0H903V72Q940 72 973.0 86.0Q1006 100 1030.5 124.5Q1055 149 1069.0 181.5Q1083 214 1083 252Q1083 289 1069.0 322.0Q1055 355 1030.5 379.0Q1006 403 973.0 417.0Q940 431 903 431V503H939Q977 503 1012.5 492.0Q1048 481 1078.0 461.0Q1108 441 1132.0 412.5Q1156 384 1171 350Q1219 395 1280.5 413.5Q1342 432 1406 432Q1470 432 1531.5 413.5Q1593 395 1641 350Z" style="fill:#000000;stroke:none" transform="scale(1,-1) translate(0,-256)" /></svg>