<?xml version="1.0" encoding="utf-8" ?>
<svg baseProfile="full" height="256" version="1.1" width="256" xmlns="http://www.w3.org/2000/svg" xmlns:ev="http://www.w3.org/2001/xml-events" xmlns:xlink="http://www.w3.org/1999/xlink"><defs /><path d="M1513 1144 1655 1408Q1670 1436 1697.5 1458.5Q1725 1481 1754 1493L2125 1653L1779 962Q1734 1033 1664.5 1080.5Q1595 1128 1513 1144ZM400 1653 771 1493Q801 1480 827.5 1458.5Q854 1437 870 1408L1012 1144Q928 1129 859.5 1081.5Q791 1034 746 962ZM1262 72Q1248 72 1234.5 77.0Q1221 82 1211 93L1047 288H1478L1313 93Q1303 82 1289.5 77.0Q1276 72 1262 72Z" style="fill:#ee9889;stroke:none" transform="scale(1,-1) translate(0,-256)" /></svg>