<?xml version="1.0" encoding="utf-8" ?>
<svg baseProfile="full" height="256" version="1.1" width="256" xmlns="http://www.w3.org/2000/svg" xmlns:ev="http://www.w3.org/2001/xml-events" xmlns:xlink="http://www.w3.org/1999/xlink"><defs /><path d="M2053 1869Q2098 1869 2137.0 1852.0Q2176 1835 2205.0 1805.5Q2234 1776 2251.0 1737.0Q2268 1698 2268 1653V1619L1939 961Q1967 891 1974.0 826.0Q1981 761 1981 692V611Q2030 573 2070.0 524.0Q2110 475 2138.0 419.5Q2166 364 2181.5 303.5Q2197 243 2197 180Q2197 112 2181 49Q2221 17 2244.5 -19.0Q2268 -55 2268 -108Q2268 -150 2249.5 -188.5Q2231 -227 2196 -251Q2196 -288 2182.0 -320.5Q2168 -353 2143.5 -377.5Q2119 -402 2086.5 -416.5Q2054 -431 2017 -431Q1990 -431 1966.5 -423.5Q1943 -416 1921.5 -403.0Q1900 -390 1880.5 -374.5Q1861 -359 1842 -342L1829 -331Q1787 -345 1744.5 -352.0Q1702 -359 1658 -359Q1585 -359 1511 -339Q1489 -372 1463.0 -390.5Q1437 -409 1407.0 -418.5Q1377 -428 1344.0 -430.5Q1311 -433 1275 -433H1269Q1231 -433 1195.5 -431.5Q1160 -430 1128.0 -421.0Q1096 -412 1067.0 -393.0Q1038 -374 1014 -339Q940 -359 867 -359Q823 -359 780.0 -352.0Q737 -345 695 -331L685 -340Q665 -357 645.5 -373.5Q626 -390 604.5 -402.5Q583 -415 559.0 -423.0Q535 -431 508 -431Q470 -431 437.5 -417.0Q405 -403 380.5 -378.5Q356 -354 342.0 -321.5Q328 -289 328 -251Q293 -225 274.5 -188.0Q256 -151 256 -107Q256 -55 279.0 -17.5Q302 20 344 49Q328 112 328 180Q328 243 343.0 304.0Q358 365 385.5 420.5Q413 476 453.0 524.5Q493 573 543 611V692Q543 761 549.5 827.0Q556 893 585 961L256 1619V1653Q256 1698 273.0 1737.0Q290 1776 319.5 1805.5Q349 1835 388.0 1852.0Q427 1869 472 1869Q500 1869 521.0 1863.0Q542 1857 567 1846L901 1696Q953 1673 997.0 1636.0Q1041 1599 1068 1548L1204 1294H1320L1458 1552Q1484 1600 1530.5 1637.5Q1577 1675 1626 1697L1957 1846Q1982 1857 2004.0 1863.0Q2026 1869 2053 1869Z" style="fill:#000000;stroke:none" transform="scale(1,-1) translate(0,-256)" /></svg>