<?xml version="1.0" encoding="utf-8" ?>
<svg baseProfile="full" height="256" version="1.1" width="256" xmlns="http://www.w3.org/2000/svg" xmlns:ev="http://www.w3.org/2001/xml-events" xmlns:xlink="http://www.w3.org/1999/xlink"><defs /><path d="M867 863Q889 863 908.5 854.5Q928 846 943.0 831.0Q958 816 966.5 796.5Q975 777 975 755V611Q975 589 966.5 569.5Q958 550 943.0 535.0Q928 520 908.5 511.5Q889 503 867 503Q845 503 825.5 511.5Q806 520 791.0 535.0Q776 550 767.5 569.5Q759 589 759 611V755Q759 777 767.5 796.5Q776 816 791.0 831.0Q806 846 825.5 854.5Q845 863 867 863ZM1658 863Q1680 863 1699.5 854.5Q1719 846 1733.5 831.0Q1748 816 1756.5 796.5Q1765 777 1765 755V611Q1765 589 1756.5 569.5Q1748 550 1733.5 535.0Q1719 520 1699.5 511.5Q1680 503 1658 503Q1636 503 1616.5 511.5Q1597 520 1582.0 535.0Q1567 550 1558.5 569.5Q1550 589 1550 611V755Q1550 777 1558.5 796.5Q1567 816 1582.0 831.0Q1597 846 1616.5 854.5Q1636 863 1658 863Z" style="fill:#000000;stroke:none" transform="scale(1,-1) translate(0,-256)" /></svg>