<?xml version="1.0" encoding="utf-8" ?>
<svg baseProfile="full" height="256" version="1.1" width="256" xmlns="http://www.w3.org/2000/svg" xmlns:ev="http://www.w3.org/2001/xml-events" xmlns:xlink="http://www.w3.org/1999/xlink"><defs /><path d="M1477 489 2009 360Q2030 318 2041.5 272.5Q2053 227 2053 180Q2053 98 2022.0 26.0Q1991 -46 1937.5 -99.5Q1884 -153 1812.0 -184.0Q1740 -215 1658 -215Q1576 -215 1504.0 -184.0Q1432 -153 1378.0 -99.5Q1324 -46 1293.0 26.0Q1262 98 1262 180Q1262 98 1231.0 26.0Q1200 -46 1146.5 -99.5Q1093 -153 1021.0 -184.0Q949 -215 867 -215Q785 -215 713.0 -184.0Q641 -153 587.5 -99.5Q534 -46 503.0 26.0Q472 98 472 180Q472 277 516 360L1048 489V1053H1477Z" style="fill:#ffffff;stroke:none" transform="scale(1,-1) translate(0,-256)" /></svg>