<?xml version="1.0" encoding="utf-8" ?>
<svg baseProfile="full" height="256" version="1.1" width="256" xmlns="http://www.w3.org/2000/svg" xmlns:ev="http://www.w3.org/2001/xml-events" xmlns:xlink="http://www.w3.org/1999/xlink"><defs /><path d="M2125 1653 1753 1307 1779 961Q1837 866 1837 755V532Q1892 503 1936.0 459.0Q1980 415 2009 360H1586Q1549 360 1516.0 374.0Q1483 388 1458.5 412.5Q1434 437 1420.0 469.5Q1406 502 1406 539V863Q1406 893 1394.5 919.0Q1383 945 1363.5 964.5Q1344 984 1318.0 995.0Q1292 1006 1262 1006Q1232 1006 1206.0 995.0Q1180 984 1160.5 964.5Q1141 945 1130.0 919.0Q1119 893 1119 863Q1119 782 1118.5 701.0Q1118 620 1118 539Q1118 502 1104.0 469.5Q1090 437 1065.5 412.5Q1041 388 1008.5 374.0Q976 360 939 360H516Q545 415 588.5 459.0Q632 503 687 532V755Q687 810 702.0 862.0Q717 914 746 961V1316L400 1653Q400 1683 421.0 1704.0Q442 1725 472 1725Q479 1725 505.5 1714.5Q532 1704 569.5 1688.5Q607 1673 649.5 1653.5Q692 1634 731.0 1616.5Q770 1599 800.0 1585.0Q830 1571 842 1565Q872 1550 899.0 1530.0Q926 1510 942 1480L1118 1150H1406L1583 1480Q1599 1510 1625.5 1530.0Q1652 1550 1682 1565Q1694 1571 1724.0 1585.0Q1754 1599 1793.0 1617.0Q1832 1635 1875.0 1654.0Q1918 1673 1955.0 1689.0Q1992 1705 2019.0 1715.0Q2046 1725 2053 1725Q2083 1725 2104.0 1704.0Q2125 1683 2125 1653ZM1729 216Q1742 216 1752 208L2111 -79Q2125 -90 2125 -107Q2125 -122 2114.5 -132.5Q2104 -143 2089 -143Q2083 -143 2077.0 -141.5Q2071 -140 2066 -136L1707 152Q1693 163 1693 180Q1693 194 1704.0 205.0Q1715 216 1729 216ZM1657 72Q1670 72 1680 64L2039 -223Q2053 -234 2053 -251Q2053 -266 2042.5 -276.5Q2032 -287 2017 -287Q2004 -287 1994 -279L1635 8Q1622 20 1622 37Q1622 52 1632.0 62.0Q1642 72 1657 72ZM400 -107Q400 -89 413 -79L773 208Q783 216 795 216Q809 216 820.0 205.0Q831 194 831 180Q831 163 817 152L458 -136Q451 -141 447.5 -142.0Q444 -143 436 -143Q421 -143 410.5 -132.5Q400 -122 400 -107ZM472 -252Q472 -235 485 -223L844 64Q854 72 867 72Q882 72 892.5 61.5Q903 51 903 36Q903 19 889 8L530 -279Q520 -287 508 -287Q493 -287 482.5 -277.0Q472 -267 472 -252Z" style="fill:#757575;stroke:none" transform="scale(1,-1) translate(0,-256)" /></svg>