<?xml version="1.0" encoding="utf-8" ?>
<svg baseProfile="full" height="256" version="1.1" width="256" xmlns="http://www.w3.org/2000/svg" xmlns:ev="http://www.w3.org/2001/xml-events" xmlns:xlink="http://www.w3.org/1999/xlink"><defs /><path d="M2326 526Q2376 513 2418.5 485.0Q2461 457 2491.5 418.0Q2522 379 2539.0 331.5Q2556 284 2556 232Q2556 169 2532.0 113.5Q2508 58 2467.0 17.0Q2426 -24 2370.5 -48.0Q2315 -72 2252 -72H1853Q1804 -72 1759.0 -57.0Q1714 -42 1676.0 -14.5Q1638 13 1609.5 51.0Q1581 89 1565 135Q1534 121 1504.0 102.5Q1474 84 1441 76L787 -87L476 224Q428 236 387.5 262.5Q347 289 318.0 326.0Q289 363 272.5 408.0Q256 453 256 503Q256 545 268.0 585.0Q280 625 302.0 659.5Q324 694 355.0 721.0Q386 748 425 765Q442 803 469.0 834.0Q496 865 529.5 887.0Q563 909 602.5 921.5Q642 934 683 935Q651 980 633.0 1033.0Q615 1086 615 1142Q615 1197 631.5 1248.0Q648 1299 678.5 1342.5Q709 1386 751.5 1419.5Q794 1453 845 1472Q864 1524 897.0 1566.0Q930 1608 973.5 1638.0Q1017 1668 1068.0 1684.5Q1119 1701 1174 1701Q1226 1701 1274.5 1686.5Q1323 1672 1365.0 1645.0Q1407 1618 1440.5 1579.5Q1474 1541 1495 1494Q1568 1492 1630.5 1463.0Q1693 1434 1739.0 1385.5Q1785 1337 1811.0 1272.5Q1837 1208 1837 1136Q1870 1154 1900.5 1169.5Q1931 1185 1962.5 1197.0Q1994 1209 2027.5 1215.5Q2061 1222 2099 1222Q2178 1222 2248.0 1192.0Q2318 1162 2370.5 1109.5Q2423 1057 2453.0 987.0Q2483 917 2483 838Q2483 805 2476.5 770.5Q2470 736 2457.5 702.0Q2445 668 2427.5 637.5Q2410 607 2388 583Q2374 567 2358.0 553.5Q2342 540 2326 526Z" style="fill:#000000;stroke:none" transform="scale(1,-1) translate(0,-256)" /></svg>