<?xml version="1.0" encoding="utf-8" ?>
<svg baseProfile="full" height="256" version="1.1" width="256" xmlns="http://www.w3.org/2000/svg" xmlns:ev="http://www.w3.org/2001/xml-events" xmlns:xlink="http://www.w3.org/1999/xlink"><defs /><path d="M2322 925Q2339 880 2339 835Q2339 769 2313.0 725.0Q2287 681 2246.5 649.5Q2206 618 2155.5 594.0Q2105 570 2056 545Q2035 551 2013 551Q1962 551 1921.5 523.5Q1881 496 1863 448L1558 293Q1520 273 1483.5 252.0Q1447 231 1406 216Q1359 199 1310.5 189.5Q1262 180 1214 168L831 72L759 144L1479 504L1495 536L963 1071L975 1114L1046 1150L1909 719ZM579 324 436 467 615 575 903 503Z" style="fill:#3a96dd;stroke:none" transform="scale(1,-1) translate(0,-256)" /></svg>