<?xml version="1.0" encoding="utf-8" ?>
<svg baseProfile="full" height="256" version="1.1" width="256" xmlns="http://www.w3.org/2000/svg" xmlns:ev="http://www.w3.org/2001/xml-events" xmlns:xlink="http://www.w3.org/1999/xlink"><defs /><path d="M903 647Q933 647 959.0 636.0Q985 625 1004.5 605.5Q1024 586 1035.5 560.0Q1047 534 1047 504Q1047 474 1035.5 448.0Q1024 422 1004.5 402.5Q985 383 959.0 371.5Q933 360 903 360H543Q513 360 487.0 371.5Q461 383 441.5 402.5Q422 422 411.0 448.0Q400 474 400 504Q400 534 411.0 560.0Q422 586 441.5 605.5Q461 625 487.0 636.0Q513 647 543 647Q543 677 554.5 703.0Q566 729 585.5 748.5Q605 768 631.0 779.5Q657 791 687 791Q716 791 742.5 779.5Q769 768 788.5 748.5Q808 729 819.5 703.0Q831 677 831 648Q831 643 830.5 638.0Q830 633 829 628Q847 636 865.5 641.5Q884 647 903 647ZM1486 1350Q1529 1350 1566.5 1333.5Q1604 1317 1632.0 1288.5Q1660 1260 1676.5 1222.5Q1693 1185 1693 1142Q1693 1099 1676.5 1061.5Q1660 1024 1632.0 996.0Q1604 968 1566.5 951.5Q1529 935 1486 935H967Q924 935 886.5 951.5Q849 968 820.5 996.0Q792 1024 775.5 1061.5Q759 1099 759 1142Q759 1185 775.5 1223.0Q792 1261 820.0 1289.0Q848 1317 886.0 1333.5Q924 1350 967 1350Q967 1393 983.5 1430.5Q1000 1468 1028.0 1496.0Q1056 1524 1093.5 1540.5Q1131 1557 1174 1557Q1217 1557 1255.0 1541.0Q1293 1525 1321.0 1497.0Q1349 1469 1365.5 1431.0Q1382 1393 1382 1350Q1382 1343 1381.0 1336.5Q1380 1330 1379 1323L1382 1321Q1429 1350 1486 1350ZM2252 392Q2285 392 2314.0 379.5Q2343 367 2365.0 345.0Q2387 323 2399.5 294.0Q2412 265 2412 232Q2412 199 2399.5 170.0Q2387 141 2365.0 119.0Q2343 97 2314.0 84.5Q2285 72 2252 72H1853Q1820 72 1791.0 84.5Q1762 97 1740.0 119.0Q1718 141 1705.5 170.0Q1693 199 1693 232Q1693 265 1705.5 294.0Q1718 323 1740.0 345.0Q1762 367 1791.0 379.5Q1820 392 1853 392Q1853 422 1863 448Q1860 458 1860 469Q1860 493 1872.0 512.0Q1884 531 1903.0 544.0Q1922 557 1945.0 564.0Q1968 571 1989 571Q2007 571 2025.0 565.0Q2043 559 2056 545Q2081 538 2102.5 523.0Q2124 508 2140.0 488.0Q2156 468 2164.5 443.5Q2173 419 2173 392Q2173 387 2172.0 381.5Q2171 376 2170 371L2173 369Q2191 380 2211.0 386.0Q2231 392 2252 392Z" style="fill:#ffffff;stroke:none" transform="scale(1,-1) translate(0,-256)" /></svg>