<?xml version="1.0" encoding="utf-8" ?>
<svg baseProfile="full" height="256" version="1.1" width="256" xmlns="http://www.w3.org/2000/svg" xmlns:ev="http://www.w3.org/2001/xml-events" xmlns:xlink="http://www.w3.org/1999/xlink"><defs /><path d="M2197 719H2376Q2391 719 2401.5 708.5Q2412 698 2412 683Q2412 677 2394.5 642.0Q2377 607 2350.5 556.0Q2324 505 2292.5 445.5Q2261 386 2231.5 332.0Q2202 278 2179.5 236.5Q2157 195 2149 180Q2128 141 2106.0 103.0Q2084 65 2056 30Q1997 -45 1924.0 -104.0Q1851 -163 1767.5 -203.5Q1684 -244 1593.0 -265.5Q1502 -287 1406 -287Q1310 -287 1219.0 -265.5Q1128 -244 1045.0 -203.0Q962 -162 889.0 -103.5Q816 -45 756 30L654 194Q641 217 617.5 261.0Q594 305 565.5 357.5Q537 410 507.5 465.5Q478 521 454.5 567.5Q431 614 415.5 646.0Q400 678 400 683Q400 698 410.5 708.5Q421 719 436 719H615V1170L619 1176V1628L615 1635Q615 1653 618.5 1669.0Q622 1685 630.5 1697.5Q639 1710 653.0 1717.5Q667 1725 687 1725Q698 1725 707.5 1721.5Q717 1718 726 1713L1190 1438H1194L1197 1434H1321L1327 1438H1481L1486 1434H1611L1615 1438H1622L2085 1713Q2092 1717 2104.5 1721.0Q2117 1725 2125 1725Q2146 1725 2160.0 1717.5Q2174 1710 2182.0 1697.0Q2190 1684 2193.5 1668.0Q2197 1652 2197 1634V1630L2193 1623V1182Q2193 1179 2195.0 1176.0Q2197 1173 2197 1170Z" style="fill:#ffc83d;stroke:none" transform="scale(1,-1) translate(0,-256)" /></svg>