<?xml version="1.0" encoding="utf-8" ?>
<svg baseProfile="full" height="256" version="1.1" width="256" xmlns="http://www.w3.org/2000/svg" xmlns:ev="http://www.w3.org/2001/xml-events" xmlns:xlink="http://www.w3.org/1999/xlink"><defs /><path d="M1981 1078Q2010 1078 2031.5 1056.5Q2053 1035 2053 1006Q2053 968 2021 947L1909 872V683Q1909 661 1900.5 641.5Q1892 622 1877.0 607.0Q1862 592 1842.5 583.5Q1823 575 1801 575Q1779 575 1759.5 583.5Q1740 592 1725.0 607.0Q1710 622 1701.5 641.5Q1693 661 1693 683V863Q1693 901 1725 922L1941 1066Q1959 1078 1981 1078ZM831 1078Q853 1078 871 1066L1086 922Q1118 901 1118 863V683Q1118 661 1109.5 641.5Q1101 622 1086.5 607.0Q1072 592 1052.5 583.5Q1033 575 1011 575Q989 575 969.5 583.5Q950 592 935.0 607.0Q920 622 911.5 641.5Q903 661 903 683V872L791 947Q759 968 759 1006Q759 1035 780.5 1056.5Q802 1078 831 1078Z" style="fill:#000000;stroke:none" transform="scale(1,-1) translate(0,-256)" /></svg>