<?xml version="1.0" encoding="utf-8" ?>
<svg baseProfile="full" height="256" version="1.1" width="256" xmlns="http://www.w3.org/2000/svg" xmlns:ev="http://www.w3.org/2001/xml-events" xmlns:xlink="http://www.w3.org/1999/xlink"><defs /><path d="M831 216Q831 275 853.5 327.5Q876 380 915.0 419.0Q954 458 1006.5 480.5Q1059 503 1118 503H1198L1202 499H1608L1615 503H1693Q1753 503 1805.5 480.5Q1858 458 1897.0 419.0Q1936 380 1958.5 328.0Q1981 276 1981 216Q1981 93 1934.0 -1.0Q1887 -95 1807.5 -158.5Q1728 -222 1624.0 -254.5Q1520 -287 1406 -287Q1292 -287 1188.0 -254.5Q1084 -222 1004.5 -158.5Q925 -95 878.0 -1.0Q831 93 831 216Z" style="fill:#ffffff;stroke:none" transform="scale(1,-1) translate(0,-256)" /></svg>