<?xml version="1.0" encoding="utf-8" ?>
<svg baseProfile="full" height="256" version="1.1" width="256" xmlns="http://www.w3.org/2000/svg" xmlns:ev="http://www.w3.org/2001/xml-events" xmlns:xlink="http://www.w3.org/1999/xlink"><defs /><path d="M1406 -72H1190Q1161 -72 1139.5 -50.5Q1118 -29 1118 0Q1118 29 1139.5 50.5Q1161 72 1190 72H1406Q1458 72 1499.5 83.0Q1541 94 1576.0 114.5Q1611 135 1642.0 165.0Q1673 195 1705 233Q1718 248 1731.5 256.5Q1745 265 1765 265Q1794 265 1815.5 244.0Q1837 223 1837 194Q1837 182 1834.0 173.0Q1831 164 1825 154Q1794 101 1747.5 59.0Q1701 17 1645.0 -12.0Q1589 -41 1527.5 -56.5Q1466 -72 1406 -72Z" style="fill:#cccccc;stroke:none" transform="scale(1,-1) translate(0,-256)" /></svg>