<?xml version="1.0" encoding="utf-8" ?>
<svg baseProfile="full" height="256" version="1.1" width="256" xmlns="http://www.w3.org/2000/svg" xmlns:ev="http://www.w3.org/2001/xml-events" xmlns:xlink="http://www.w3.org/1999/xlink"><defs /><path d="M615 1638 956 1433Q966 1427 970.5 1420.0Q975 1413 975 1402Q975 1391 969.5 1383.5Q964 1376 956 1371L615 1165ZM1837 1402Q1837 1413 1841.5 1420.0Q1846 1427 1856 1433L2197 1638V1165L1856 1371Q1848 1376 1842.5 1383.5Q1837 1391 1837 1402ZM1190 1078V1438H1334V1078Q1334 1049 1312.5 1027.5Q1291 1006 1262 1006Q1233 1006 1211.5 1027.5Q1190 1049 1190 1078ZM1478 1078V1438H1622V1078Q1622 1049 1600.5 1027.5Q1579 1006 1550 1006Q1521 1006 1499.5 1027.5Q1478 1049 1478 1078Z" style="fill:#d48c00;stroke:none" transform="scale(1,-1) translate(0,-256)" /></svg>