<?xml version="1.0" encoding="utf-8" ?>
<svg baseProfile="full" height="256" version="1.1" width="256" xmlns="http://www.w3.org/2000/svg" xmlns:ev="http://www.w3.org/2001/xml-events" xmlns:xlink="http://www.w3.org/1999/xlink"><defs /><path d="M1226 647Q1248 647 1268.0 638.5Q1288 630 1302.5 615.5Q1317 601 1325.5 581.0Q1334 561 1334 539V0Q1334 -59 1311.5 -111.5Q1289 -164 1250.0 -203.0Q1211 -242 1158.5 -264.5Q1106 -287 1047 -287Q987 -287 935.5 -265.0Q884 -243 842 -201L421 218Q400 239 400 268Q400 295 414.0 309.5Q428 324 451 335L472 370Q461 380 448.5 391.0Q436 402 425.0 415.0Q414 428 407.0 442.0Q400 456 400 472Q400 488 407.0 502.5Q414 517 425.0 529.0Q436 541 448.5 552.0Q461 563 472 573L514 587L521 623L529 632Q548 653 571.5 674.5Q595 696 624 696Q641 696 655.0 688.5Q669 681 681.0 670.0Q693 659 704.0 646.5Q715 634 726 624L758 645Q769 668 784.5 682.0Q800 696 827 696Q843 696 855.0 690.5Q867 685 878 675Q920 638 966.5 595.0Q1013 552 1047 507Q1056 495 1062.5 481.5Q1069 468 1077 455L1118 435V539Q1118 561 1126.5 580.5Q1135 600 1150.0 615.0Q1165 630 1184.5 638.5Q1204 647 1226 647ZM2340 370 2354 341Q2379 328 2395.5 313.5Q2412 299 2412 268Q2412 239 2391 218L1970 -201Q1928 -243 1876.5 -265.0Q1825 -287 1765 -287Q1706 -287 1653.5 -264.5Q1601 -242 1562.0 -203.0Q1523 -164 1500.5 -111.5Q1478 -59 1478 0V539Q1478 561 1486.5 581.0Q1495 601 1509.5 615.5Q1524 630 1543.5 638.5Q1563 647 1586 647Q1608 647 1627.5 638.5Q1647 630 1662.0 615.0Q1677 600 1685.5 580.5Q1694 561 1694 539Q1694 513 1693.5 487.0Q1693 461 1693 435Q1706 442 1715.5 450.5Q1725 459 1732.5 468.0Q1740 477 1747.5 487.0Q1755 497 1765 507L1934 675Q1955 696 1984 696Q2011 696 2025.5 683.0Q2040 670 2051 647L2086 624Q2096 635 2107.0 647.5Q2118 660 2130.5 671.0Q2143 682 2157.0 689.0Q2171 696 2188 696Q2207 696 2225.0 685.5Q2243 675 2258.5 659.5Q2274 644 2287.5 626.0Q2301 608 2310 594Q2324 585 2342.0 571.5Q2360 558 2375.5 542.5Q2391 527 2401.5 509.0Q2412 491 2412 472Q2412 455 2405.0 441.0Q2398 427 2387.0 414.5Q2376 402 2363.5 391.0Q2351 380 2340 370Z" style="fill:#ffc83d;stroke:none" transform="scale(1,-1) translate(0,-256)" /></svg>