<?xml version="1.0" encoding="utf-8" ?>
<svg baseProfile="full" height="256" version="1.1" width="256" xmlns="http://www.w3.org/2000/svg" xmlns:ev="http://www.w3.org/2001/xml-events" xmlns:xlink="http://www.w3.org/1999/xlink"><defs /><path d="M2556 472Q2556 417 2530 370Q2555 324 2555 268Q2555 226 2539.0 186.0Q2523 146 2493 116L2071 -303Q2007 -366 1931.5 -398.5Q1856 -431 1765 -431Q1711 -431 1659.0 -418.0Q1607 -405 1561.0 -380.0Q1515 -355 1475.5 -319.0Q1436 -283 1406 -238Q1376 -283 1336.5 -319.0Q1297 -355 1250.5 -380.0Q1204 -405 1152.0 -418.0Q1100 -431 1046 -431Q955 -431 878.5 -398.0Q802 -365 739 -302L319 116Q289 146 272.5 186.0Q256 226 256 268Q256 324 281 370Q268 393 262.0 419.5Q256 446 256 472Q256 559 319 624L472 777Q502 807 541.5 823.5Q581 840 624 840Q650 840 676.5 834.0Q703 828 726 815Q772 840 827 840Q866 840 895.5 829.5Q925 819 949.5 801.5Q974 784 996.5 761.0Q1019 738 1044 713Q1080 750 1127.5 770.5Q1175 791 1226 791Q1277 791 1323.5 771.0Q1370 751 1406 715Q1442 751 1488.0 771.0Q1534 791 1585 791Q1637 791 1685.0 771.0Q1733 751 1768 713Q1793 738 1815.5 761.0Q1838 784 1862.5 801.5Q1887 819 1916.5 829.5Q1946 840 1985 840Q2040 840 2086 815Q2109 828 2135.5 834.0Q2162 840 2188 840Q2231 840 2270.5 823.5Q2310 807 2340 777L2493 624Q2523 594 2539.5 554.5Q2556 515 2556 472Z" style="fill:#000000;stroke:none" transform="scale(1,-1) translate(0,-256)" /></svg>