<?xml version="1.0" encoding="utf-8" ?>
<svg baseProfile="full" height="256" version="1.1" width="256" xmlns="http://www.w3.org/2000/svg" xmlns:ev="http://www.w3.org/2001/xml-events" xmlns:xlink="http://www.w3.org/1999/xlink"><defs /><path d="M1765 305Q1833 259 1871.0 188.5Q1909 118 1909 36V-108Q1909 -122 1898.0 -133.0Q1887 -144 1873 -144Q1859 -144 1848.0 -133.0Q1837 -122 1837 -108V36Q1837 109 1798.0 170.0Q1759 231 1693 262V435L1765 507ZM1046 305V507L1118 435V262Q1085 247 1059.0 223.5Q1033 200 1014.0 170.0Q995 140 985.0 105.5Q975 71 975 36V-108Q975 -122 964.0 -133.0Q953 -144 939 -144Q925 -144 914.0 -133.0Q903 -122 903 -108V36Q903 118 940.5 188.5Q978 259 1046 305ZM2290 624 2340 573 2023 256Q2012 245 1998 245Q1984 245 1973.0 256.0Q1962 267 1962 281Q1962 296 1973 307ZM522 624 839 307Q850 296 850 281Q850 267 839.0 256.0Q828 245 814 245Q800 245 789 256L472 573ZM472 370 687 155Q698 144 698 129Q698 114 686.5 103.5Q675 93 661 93Q647 93 636 104L421 319ZM2340 370 2391 319 2176 104Q2165 93 2150 93Q2136 93 2125.0 104.0Q2114 115 2114 129Q2114 144 2125 155ZM1845 397Q1831 397 1820.0 408.0Q1809 419 1809 433Q1809 448 1820 459L2035 675L2086 624L1870 408Q1859 397 1845 397ZM966 397Q953 397 942 408L726 624L776 675L992 459Q1003 448 1003 433Q1003 419 991.5 408.0Q980 397 966 397Z" style="fill:#d48c00;stroke:none" transform="scale(1,-1) translate(0,-256)" /></svg>