<?xml version="1.0" encoding="utf-8" ?>
<svg baseProfile="full" height="256" version="1.1" width="256" xmlns="http://www.w3.org/2000/svg" xmlns:ev="http://www.w3.org/2001/xml-events" xmlns:xlink="http://www.w3.org/1999/xlink"><defs /><path d="M1376 1366Q1397 1366 1415.5 1358.0Q1434 1350 1448.0 1336.0Q1462 1322 1470.0 1303.5Q1478 1285 1478 1264Q1478 1222 1448 1192L931 679Q905 647 861 647Q840 647 821.5 655.0Q803 663 789.0 677.0Q775 691 767.0 709.5Q759 728 759 749Q759 791 789 821L1308 1332Q1320 1350 1337.5 1358.0Q1355 1366 1376 1366ZM1478 288 1837 647V431L1693 288Z" style="fill:#2b2b2b;stroke:none" transform="scale(1,-1) translate(0,-256)" /></svg>