<?xml version="1.0" encoding="utf-8" ?>
<svg baseProfile="full" height="256" version="1.1" width="256" xmlns="http://www.w3.org/2000/svg" xmlns:ev="http://www.w3.org/2001/xml-events" xmlns:xlink="http://www.w3.org/1999/xlink"><defs /><path d="M1406 1222 1858 770Q1879 749 1879 719Q1879 694 1866.5 678.5Q1854 663 1837 647L1759 424L1837 431Q1918 364 1984.5 283.5Q2051 203 2098.5 112.0Q2146 21 2171.5 -79.5Q2197 -180 2197 -287H1981Q1981 -202 1960.0 -121.5Q1939 -41 1901.5 32.0Q1864 105 1810.5 169.5Q1757 234 1693 288V381L1478 288Q1462 271 1446.5 258.5Q1431 246 1406 246Q1376 246 1355 267L903 719Z" style="fill:#383838;stroke:none" transform="scale(1,-1) translate(0,-256)" /></svg>