<?xml version="1.0" encoding="utf-8" ?>
<svg baseProfile="full" height="256" version="1.1" width="256" xmlns="http://www.w3.org/2000/svg" xmlns:ev="http://www.w3.org/2001/xml-events" xmlns:xlink="http://www.w3.org/1999/xlink"><defs /><path d="M1981 591V497Q2063 420 2129.5 331.0Q2196 242 2243.0 142.5Q2290 43 2315.0 -65.0Q2340 -173 2340 -287V-431H1837V-287Q1837 -160 1783.5 -51.5Q1730 57 1639 144H1534Q1506 124 1473.5 113.0Q1441 102 1406 102Q1362 102 1323.0 118.0Q1284 134 1253 165L910 508Q898 506 885.5 504.5Q873 503 861 503Q810 503 765.5 522.5Q721 542 687.5 575.0Q654 608 635.0 653.0Q616 698 616 749Q616 787 627.0 822.5Q638 858 660 889L256 1294L831 1869L1235 1465Q1266 1486 1302.0 1498.0Q1338 1510 1376 1510Q1427 1510 1471.5 1490.5Q1516 1471 1549.0 1438.0Q1582 1405 1601.5 1360.5Q1621 1316 1621 1265Q1621 1252 1619.5 1239.5Q1618 1227 1616 1215L1960 871Q2023 808 2023 719Q2023 684 2012.0 651.5Q2001 619 1981 591Z" style="fill:#000000;stroke:none" transform="scale(1,-1) translate(0,-256)" /></svg>