<?xml version="1.0" encoding="utf-8" ?>
<svg baseProfile="full" height="256" version="1.1" width="256" xmlns="http://www.w3.org/2000/svg" xmlns:ev="http://www.w3.org/2001/xml-events" xmlns:xlink="http://www.w3.org/1999/xlink"><defs /><path d="M1334 482Q1334 503 1349 518L1607 776Q1622 791 1643 791Q1664 791 1678.5 776.0Q1693 761 1693 740Q1693 718 1679 704L1421 446Q1406 431 1385 431Q1364 431 1349.0 446.0Q1334 461 1334 482ZM1190 626Q1190 647 1205 662L1463 920Q1478 935 1499 935Q1520 935 1535.0 920.0Q1550 905 1550 884Q1550 863 1535 848L1277 590Q1262 575 1241 575Q1220 575 1205.0 590.0Q1190 605 1190 626Z" style="fill:#1f1f1f;stroke:none" transform="scale(1,-1) translate(0,-256)" /></svg>