<?xml version="1.0" encoding="utf-8" ?>
<svg baseProfile="full" height="256" version="1.1" width="256" xmlns="http://www.w3.org/2000/svg" xmlns:ev="http://www.w3.org/2001/xml-events" xmlns:xlink="http://www.w3.org/1999/xlink"><defs /><path d="M1909 431H2053Q2157 431 2248.5 391.5Q2340 352 2408.5 283.5Q2477 215 2516.5 123.5Q2556 32 2556 -72V-431H1275L1131 -287H1034L890 -431H256V431Q256 489 279.0 541.5Q302 594 341.0 633.5Q380 673 432.0 696.0Q484 719 543 719H1005Q1026 767 1060.0 807.0Q1094 847 1137.5 875.5Q1181 904 1231.0 919.5Q1281 935 1334 935H1394L1466 862Q1470 863 1478 863Q1523 863 1562.0 846.0Q1601 829 1630.0 799.5Q1659 770 1676.0 731.0Q1693 692 1693 647Q1738 647 1777.5 630.0Q1817 613 1846.0 584.0Q1875 555 1892.0 515.5Q1909 476 1909 431Z" style="fill:#000000;stroke:none" transform="scale(1,-1) translate(0,-256)" /></svg>