<?xml version="1.0" encoding="utf-8" ?>
<svg baseProfile="full" height="256" version="1.1" width="256" xmlns="http://www.w3.org/2000/svg" xmlns:ev="http://www.w3.org/2001/xml-events" xmlns:xlink="http://www.w3.org/1999/xlink"><defs /><path d="M1837 288H2053Q2127 288 2192.5 259.5Q2258 231 2306.5 182.0Q2355 133 2383.5 67.5Q2412 2 2412 -72L2359 -123H448L400 -72V431Q400 461 411.0 487.0Q422 513 441.5 532.5Q461 552 487.0 563.5Q513 575 543 575L615 431H975Q1005 431 1031.0 442.5Q1057 454 1076.5 473.5Q1096 493 1107.0 519.0Q1118 545 1118 575Q1118 620 1135.0 659.0Q1152 698 1181.5 727.5Q1211 757 1250.0 774.0Q1289 791 1334 791Z" style="fill:#ca5010;stroke:none" transform="scale(1,-1) translate(0,-256)" /></svg>