<?xml version="1.0" encoding="utf-8" ?>
<svg baseProfile="full" height="256" version="1.1" width="256" xmlns="http://www.w3.org/2000/svg" xmlns:ev="http://www.w3.org/2001/xml-events" xmlns:xlink="http://www.w3.org/1999/xlink"><defs /><path d="M400 -72H2412V-287H1334L1190 -144H975L831 -287H400ZM1334 431Q1305 431 1283.5 452.5Q1262 474 1262 503Q1262 533 1283 554L1427 698Q1448 719 1478 719Q1508 719 1529.0 698.0Q1550 677 1550 647Q1550 617 1529 596L1385 453Q1363 431 1334 431ZM1550 216Q1520 216 1499.0 237.0Q1478 258 1478 288Q1478 318 1499 339L1643 482Q1664 503 1693 503Q1723 503 1744.0 482.0Q1765 461 1765 431Q1765 402 1744 381L1601 237Q1580 216 1550 216Z" style="fill:#613d30;stroke:none" transform="scale(1,-1) translate(0,-256)" /></svg>