<?xml version="1.0" encoding="utf-8" ?>
<svg baseProfile="full" height="256" version="1.1" width="256" xmlns="http://www.w3.org/2000/svg" xmlns:ev="http://www.w3.org/2001/xml-events" xmlns:xlink="http://www.w3.org/1999/xlink"><defs /><path d="M1873 967Q1859 967 1848.0 956.5Q1837 946 1837 932Q1816 914 1799.0 889.5Q1782 865 1770.0 837.0Q1758 809 1751.5 780.0Q1745 751 1745 723Q1745 664 1770.0 605.0Q1795 546 1837 505V-287H975V503Q991 525 1006.0 552.5Q1021 580 1031.5 609.0Q1042 638 1048.5 668.0Q1055 698 1055 726Q1055 780 1033.0 835.5Q1011 891 975 932Q975 946 964.0 956.5Q953 967 939 967Q926 967 917.0 959.5Q908 952 904 940L759 431L472 572L759 1363Q787 1441 839.5 1493.0Q892 1545 971 1568Q990 1573 1008.5 1577.0Q1027 1581 1047 1581Q1050 1581 1064.0 1577.0Q1078 1573 1084 1571Q1124 1563 1161 1563Q1187 1563 1214.5 1567.0Q1242 1571 1266 1581H1549Q1574 1572 1600.5 1568.0Q1627 1564 1653 1564Q1693 1564 1727 1571Q1735 1573 1747.0 1577.0Q1759 1581 1765 1581Q1785 1581 1803.5 1577.0Q1822 1573 1841 1568Q1920 1545 1972.5 1493.0Q2025 1441 2053 1363L2340 572L2053 431L1908 940Q1904 952 1895.0 959.5Q1886 967 1873 967Z" style="fill:#3a96dd;stroke:none" transform="scale(1,-1) translate(0,-256)" /></svg>