<?xml version="1.0" encoding="utf-8" ?>
<svg baseProfile="full" height="256" version="1.1" width="256" xmlns="http://www.w3.org/2000/svg" xmlns:ev="http://www.w3.org/2001/xml-events" xmlns:xlink="http://www.w3.org/1999/xlink"><defs /><path d="M1765 1725Q1817 1725 1869.5 1710.5Q1922 1696 1970.0 1670.0Q2018 1644 2059.0 1608.0Q2100 1572 2130 1529Q2150 1500 2163.5 1470.0Q2177 1440 2189 1408Q2275 1181 2356.0 955.0Q2437 729 2520 500L1981 236V-431H831V236L292 500Q376 729 456.0 957.0Q536 1185 624 1412Q637 1446 652.0 1477.5Q667 1509 688 1538Q717 1580 757.5 1614.0Q798 1648 845.0 1673.0Q892 1698 943.0 1711.5Q994 1725 1045 1725Z" style="fill:#000000;stroke:none" transform="scale(1,-1) translate(0,-256)" /></svg>