<?xml version="1.0" encoding="utf-8" ?>
<svg baseProfile="full" height="256" version="1.1" width="256" xmlns="http://www.w3.org/2000/svg" xmlns:ev="http://www.w3.org/2001/xml-events" xmlns:xlink="http://www.w3.org/1999/xlink"><defs /><path d="M1550 1438Q1669 1438 1779.0 1407.0Q1889 1376 1985.0 1320.0Q2081 1264 2159.5 1185.0Q2238 1106 2294.0 1010.0Q2350 914 2381.0 804.0Q2412 694 2412 575Q2412 456 2381.0 346.0Q2350 236 2294.0 140.0Q2238 44 2159.5 -34.5Q2081 -113 1985.0 -169.0Q1889 -225 1779.0 -256.0Q1669 -287 1550 -287H1262Q1143 -287 1033.0 -256.0Q923 -225 827.0 -169.0Q731 -113 652.5 -34.5Q574 44 518.0 140.0Q462 236 431.0 346.0Q400 456 400 575Q400 694 431.0 804.0Q462 914 518.0 1010.0Q574 1106 652.5 1185.0Q731 1264 827.0 1320.0Q923 1376 1033.0 1407.0Q1143 1438 1262 1438ZM1550 -72Q1644 -49 1723.0 8.0Q1802 65 1859.5 143.5Q1917 222 1949.0 315.0Q1981 408 1981 503H1837L1726 307Q1716 288 1694 288Q1680 288 1674.0 292.5Q1668 297 1662 308L1550 503H1262L1151 307Q1141 288 1119 288Q1105 288 1099.0 292.5Q1093 297 1087 308L975 503H831Q831 408 863.0 315.0Q895 222 952.5 143.5Q1010 65 1089.0 8.0Q1168 -49 1262 -72L1374 124Q1386 144 1406 144Q1426 144 1438 124ZM1011 1150Q995 1150 986.5 1144.0Q978 1138 970 1125Q965 1116 952.5 1093.0Q940 1070 924.5 1039.5Q909 1009 892.5 975.5Q876 942 862.5 912.5Q849 883 840.0 862.0Q831 841 831 835Q831 816 844.0 803.5Q857 791 876 791H1145Q1164 791 1177.5 803.5Q1191 816 1191 835Q1191 840 1182.0 861.5Q1173 883 1159.0 912.5Q1145 942 1128.0 976.0Q1111 1010 1095.5 1040.0Q1080 1070 1067.5 1093.5Q1055 1117 1050 1125Q1042 1137 1034.0 1143.5Q1026 1150 1011 1150ZM1801 1150Q1786 1150 1777.5 1143.5Q1769 1137 1761 1125Q1756 1117 1743.5 1093.5Q1731 1070 1715.5 1040.0Q1700 1010 1683.5 976.0Q1667 942 1653.0 912.5Q1639 883 1630.0 861.5Q1621 840 1621 835Q1621 816 1634.0 803.5Q1647 791 1666 791H1936Q1955 791 1968.0 803.5Q1981 816 1981 835Q1981 840 1972.0 861.5Q1963 883 1949.0 912.5Q1935 942 1918.5 976.0Q1902 1010 1886.5 1040.0Q1871 1070 1858.5 1093.5Q1846 1117 1841 1125Q1833 1137 1824.5 1143.5Q1816 1150 1801 1150ZM1406 863Q1394 863 1387.0 858.0Q1380 853 1374 843Q1369 835 1359.0 816.0Q1349 797 1337.0 773.0Q1325 749 1311.5 722.5Q1298 696 1287.0 673.0Q1276 650 1269.0 632.5Q1262 615 1262 610Q1262 596 1273.0 585.5Q1284 575 1298 575H1514Q1528 575 1539.0 585.5Q1550 596 1550 610Q1550 615 1543.0 632.0Q1536 649 1525.0 672.5Q1514 696 1500.5 723.0Q1487 750 1474.5 774.0Q1462 798 1452.0 816.5Q1442 835 1438 842Q1433 851 1425.0 857.0Q1417 863 1406 863Z" style="fill:#f7630c;stroke:none" transform="scale(1,-1) translate(0,-256)" /></svg>