<?xml version="1.0" encoding="utf-8" ?>
<svg baseProfile="full" height="256" version="1.1" width="256" xmlns="http://www.w3.org/2000/svg" xmlns:ev="http://www.w3.org/2001/xml-events" xmlns:xlink="http://www.w3.org/1999/xlink"><defs /><path d="M1765 1557Q1879 1532 1982.5 1482.0Q2086 1432 2174.0 1362.0Q2262 1292 2332.5 1204.5Q2403 1117 2452.5 1016.0Q2502 915 2529.0 803.5Q2556 692 2556 575Q2556 436 2520.0 307.5Q2484 179 2418.5 67.5Q2353 -44 2261.0 -136.0Q2169 -228 2057.5 -293.5Q1946 -359 1817.5 -395.0Q1689 -431 1550 -431H1262Q1123 -431 994.5 -395.0Q866 -359 754.5 -293.5Q643 -228 551.0 -136.0Q459 -44 393.5 67.5Q328 179 292.0 307.5Q256 436 256 575Q256 686 280.5 793.5Q305 901 351.0 999.5Q397 1098 463.5 1185.5Q530 1273 615 1345Q564 1401 535.5 1456.0Q507 1511 493.0 1569.0Q479 1627 475.5 1689.5Q472 1752 472 1824V1869H1765Z" style="fill:#000000;stroke:none" transform="scale(1,-1) translate(0,-256)" /></svg>