<?xml version="1.0" encoding="utf-8" ?>
<svg baseProfile="full" height="256" version="1.1" width="256" xmlns="http://www.w3.org/2000/svg" xmlns:ev="http://www.w3.org/2001/xml-events" xmlns:xlink="http://www.w3.org/1999/xlink"><defs /><path d="M1190 1222Q1220 1222 1241.0 1201.0Q1262 1180 1262 1150V1078Q1262 1049 1240.5 1027.5Q1219 1006 1190 1006Q1161 1006 1139.5 1027.5Q1118 1049 1118 1078V1150Q1118 1179 1139.5 1200.5Q1161 1222 1190 1222ZM1622 1222Q1651 1222 1672.0 1200.5Q1693 1179 1693 1150V1078Q1693 1049 1672.0 1027.5Q1651 1006 1622 1006Q1593 1006 1571.5 1027.5Q1550 1049 1550 1078V1150Q1550 1180 1571.0 1201.0Q1592 1222 1622 1222Z" style="fill:#000000;stroke:none" transform="scale(1,-1) translate(0,-256)" /></svg>