<?xml version="1.0" encoding="utf-8" ?>
<svg baseProfile="full" height="256" version="1.1" width="256" xmlns="http://www.w3.org/2000/svg" xmlns:ev="http://www.w3.org/2001/xml-events" xmlns:xlink="http://www.w3.org/1999/xlink"><defs /><path d="M2125 0 1586 -287H903L723 -35L903 425Q962 464 1029.5 484.0Q1097 504 1168 504H1190L1406 387Q1488 385 1570.0 381.0Q1652 377 1734 377Q1734 377 1746.5 380.5Q1759 384 1777.5 389.0Q1796 394 1817.5 400.0Q1839 406 1858.5 411.5Q1878 417 1892.0 420.5Q1906 424 1909 425Q1959 392 1999.0 348.0Q2039 304 2067.0 252.0Q2095 200 2110.0 142.5Q2125 85 2125 25Z" style="fill:#8cbd18;stroke:none" transform="scale(1,-1) translate(0,-256)" /></svg>