<?xml version="1.0" encoding="utf-8" ?>
<svg baseProfile="full" height="256" version="1.1" width="256" xmlns="http://www.w3.org/2000/svg" xmlns:ev="http://www.w3.org/2001/xml-events" xmlns:xlink="http://www.w3.org/1999/xlink"><defs /><path d="M1478 1510Q1508 1444 1552.0 1391.0Q1596 1338 1650.5 1300.5Q1705 1263 1770.0 1242.5Q1835 1222 1909 1222V1080Q1909 976 1869.5 884.0Q1830 792 1762.0 723.5Q1694 655 1602.5 615.0Q1511 575 1406 575Q1301 575 1209.5 615.0Q1118 655 1050.0 723.5Q982 792 942.5 884.0Q903 976 903 1080V1222Q1009 1223 1083.0 1279.5Q1157 1336 1188 1436Q1207 1399 1240.0 1372.5Q1273 1346 1313.5 1328.5Q1354 1311 1397.0 1302.5Q1440 1294 1478 1294ZM903 -287H554Q522 -287 494.0 -275.0Q466 -263 445.0 -242.0Q424 -221 412.0 -193.0Q400 -165 400 -133Q400 -104 410.5 -76.0Q421 -48 441 -27L652 199Q665 214 687 217V72H831Q863 72 883.0 52.5Q903 33 903 1ZM1406 72 1190 504H1622ZM1909 0H2125V-287H1909Z" style="fill:#ffc83d;stroke:none" transform="scale(1,-1) translate(0,-256)" /></svg>