<?xml version="1.0" encoding="utf-8" ?>
<svg baseProfile="full" height="256" version="1.1" width="256" xmlns="http://www.w3.org/2000/svg" xmlns:ev="http://www.w3.org/2001/xml-events" xmlns:xlink="http://www.w3.org/1999/xlink"><defs /><path d="M831 607Q831 595 822.5 586.0Q814 577 802 577Q796 577 790.0 579.0Q784 581 780 586L723 654L667 586Q659 577 645 577Q633 577 624.0 586.0Q615 595 615 607V690L552 741Q548 744 545.5 750.5Q543 757 543 762Q543 774 551.5 783.5Q560 793 573 793H644L696 885Q705 900 723 900Q741 900 750 885L802 793H873Q885 793 894.0 784.5Q903 776 903 764Q903 759 900.5 751.5Q898 744 894 741L831 690Z" style="fill:#ffb900;stroke:none" transform="scale(1,-1) translate(0,-256)" /></svg>