<?xml version="1.0" encoding="utf-8" ?>
<svg baseProfile="full" height="256" version="1.1" width="256" xmlns="http://www.w3.org/2000/svg" xmlns:ev="http://www.w3.org/2001/xml-events" xmlns:xlink="http://www.w3.org/1999/xlink"><defs /><path d="M1406 144Q1406 283 1442.0 411.5Q1478 540 1543.5 652.0Q1609 764 1700.5 855.5Q1792 947 1904.0 1012.5Q2016 1078 2144.5 1114.0Q2273 1150 2412 1150V1078L1406 72L400 1078V1150Q539 1150 667.5 1114.0Q796 1078 908.0 1012.5Q1020 947 1111.5 855.5Q1203 764 1268.5 652.0Q1334 540 1370.0 411.5Q1406 283 1406 144Z" style="fill:#ffffff;stroke:none" transform="scale(1,-1) translate(0,-256)" /></svg>