<?xml version="1.0" encoding="utf-8" ?>
<svg baseProfile="full" height="256" version="1.1" width="256" xmlns="http://www.w3.org/2000/svg" xmlns:ev="http://www.w3.org/2001/xml-events" xmlns:xlink="http://www.w3.org/1999/xlink"><defs /><path d="M2556 1006Q2556 896 2535.0 788.5Q2514 681 2473.5 580.0Q2433 479 2374.0 386.5Q2315 294 2239 214Q2268 121 2268 25V-431H543Q484 -431 431.5 -406.0Q379 -381 340.0 -339.5Q301 -298 278.5 -244.5Q256 -191 256 -133Q256 -75 276.5 -23.5Q297 28 336 71L523 271Q393 426 324.5 615.0Q256 804 256 1006V1294H278Q385 1294 487.5 1288.5Q590 1283 695 1255Q714 1387 777.5 1499.5Q841 1612 936.5 1694.0Q1032 1776 1152.0 1822.5Q1272 1869 1406 1869Q1539 1869 1659.5 1822.5Q1780 1776 1875.5 1694.0Q1971 1612 2034.0 1499.5Q2097 1387 2117 1255Q2261 1294 2412 1294H2556Z" style="fill:#000000;stroke:none" transform="scale(1,-1) translate(0,-256)" /></svg>