<?xml version="1.0" encoding="utf-8" ?>
<svg baseProfile="full" height="256" version="1.1" width="256" xmlns="http://www.w3.org/2000/svg" xmlns:ev="http://www.w3.org/2001/xml-events" xmlns:xlink="http://www.w3.org/1999/xlink"><defs /><path d="M1406 719Q1391 719 1366.5 724.5Q1342 730 1319.0 740.5Q1296 751 1279.0 765.5Q1262 780 1262 799Q1262 813 1272.0 823.0Q1282 833 1296 833Q1306 833 1315.5 826.0Q1325 819 1337.0 810.5Q1349 802 1365.5 795.0Q1382 788 1406 788Q1430 788 1446.5 795.0Q1463 802 1475.0 810.5Q1487 819 1496.0 826.0Q1505 833 1515 833Q1530 833 1540.0 823.0Q1550 813 1550 799Q1550 780 1533.0 765.5Q1516 751 1493.0 740.5Q1470 730 1445.5 724.5Q1421 719 1406 719ZM1478 1006Q1478 977 1456.5 956.0Q1435 935 1406 935Q1377 935 1355.5 956.0Q1334 977 1334 1006Z" style="fill:#f7894a;stroke:none" transform="scale(1,-1) translate(0,-256)" /></svg>