<?xml version="1.0" encoding="utf-8" ?>
<svg baseProfile="full" height="256" version="1.1" width="256" xmlns="http://www.w3.org/2000/svg" xmlns:ev="http://www.w3.org/2001/xml-events" xmlns:xlink="http://www.w3.org/1999/xlink"><defs /><path d="M2412 1078V1006Q2412 867 2376.0 738.5Q2340 610 2274.5 498.0Q2209 386 2117.5 294.5Q2026 203 1914.0 137.5Q1802 72 1673.5 36.0Q1545 0 1406 0Q1267 0 1138.5 36.0Q1010 72 898.0 137.5Q786 203 694.5 294.5Q603 386 537.5 498.0Q472 610 436.0 738.5Q400 867 400 1006V1078L995 695L1406 72L1787 719Z" style="fill:#f2f2f2;stroke:none" transform="scale(1,-1) translate(0,-256)" /></svg>