<?xml version="1.0" encoding="utf-8" ?>
<svg baseProfile="full" height="256" version="1.1" width="256" xmlns="http://www.w3.org/2000/svg" xmlns:ev="http://www.w3.org/2001/xml-events" xmlns:xlink="http://www.w3.org/1999/xlink"><defs /><path d="M2049 791Q2060 791 2069.5 791.5Q2079 792 2090 792Q2109 792 2128.5 789.5Q2148 787 2163.0 779.5Q2178 772 2187.5 757.5Q2197 743 2197 719Q2197 695 2187.0 680.5Q2177 666 2161.0 658.5Q2145 651 2125.0 649.0Q2105 647 2086 647H2049Q2038 555 2003.5 471.0Q1969 387 1911 315Q1921 304 1933.5 293.5Q1946 283 1956.5 271.5Q1967 260 1974.0 246.5Q1981 233 1981 216Q1981 186 1960.0 165.0Q1939 144 1909 144Q1892 144 1878.5 150.5Q1865 157 1853.0 167.5Q1841 178 1830.5 190.5Q1820 203 1810 214Q1738 156 1654.0 121.5Q1570 87 1478 76Q1478 65 1478.5 55.0Q1479 45 1479 34Q1479 14 1476.5 -5.0Q1474 -24 1466.5 -39.0Q1459 -54 1444.5 -63.0Q1430 -72 1406 -72Q1381 -72 1367.0 -62.5Q1353 -53 1345.5 -37.0Q1338 -21 1336.0 -2.0Q1334 17 1334 37V76Q1242 87 1158.0 121.5Q1074 156 1002 214Q992 203 981.5 191.0Q971 179 959.0 168.5Q947 158 933.0 151.0Q919 144 903 144Q873 144 852.0 165.0Q831 186 831 216Q831 232 838.0 246.0Q845 260 855.5 272.0Q866 284 878.0 294.5Q890 305 901 315Q843 387 808.5 471.0Q774 555 763 647Q752 647 742.0 646.5Q732 646 721 646Q701 646 682.0 648.5Q663 651 648.0 658.5Q633 666 624.0 680.5Q615 695 615 719Q615 744 624.5 758.0Q634 772 650.0 779.5Q666 787 685.0 789.0Q704 791 724 791H763Q774 883 808.5 967.0Q843 1051 901 1123Q890 1133 877.5 1143.5Q865 1154 854.5 1166.0Q844 1178 837.5 1191.5Q831 1205 831 1222Q831 1252 852.0 1273.0Q873 1294 903 1294Q920 1294 933.5 1287.0Q947 1280 958.5 1269.5Q970 1259 980.5 1246.5Q991 1234 1002 1224Q1074 1282 1158.0 1316.5Q1242 1351 1334 1362Q1334 1373 1333.5 1382.5Q1333 1392 1333 1403Q1333 1422 1335.5 1441.5Q1338 1461 1345.5 1476.0Q1353 1491 1367.5 1500.5Q1382 1510 1406 1510Q1430 1510 1444.5 1500.0Q1459 1490 1466.5 1474.0Q1474 1458 1476.0 1438.0Q1478 1418 1478 1399V1362Q1570 1351 1654.0 1316.5Q1738 1282 1810 1224Q1820 1234 1831.0 1246.5Q1842 1259 1853.5 1269.5Q1865 1280 1878.5 1287.0Q1892 1294 1909 1294Q1939 1294 1960.0 1273.0Q1981 1252 1981 1222Q1981 1205 1974.0 1191.5Q1967 1178 1956.5 1166.5Q1946 1155 1933.5 1144.0Q1921 1133 1911 1123Q1969 1051 2003.5 967.0Q2038 883 2049 791ZM1406 575Q1436 575 1462.0 586.5Q1488 598 1507.5 617.5Q1527 637 1538.5 663.0Q1550 689 1550 719Q1550 749 1538.5 775.0Q1527 801 1507.5 820.5Q1488 840 1462.0 851.5Q1436 863 1406 863Q1376 863 1350.0 851.5Q1324 840 1304.5 820.5Q1285 801 1273.5 775.0Q1262 749 1262 719Q1262 689 1273.5 663.0Q1285 637 1304.5 617.5Q1324 598 1350.0 586.5Q1376 575 1406 575ZM1334 1217Q1271 1208 1213.5 1184.0Q1156 1160 1105 1122L1260 967Q1294 986 1334 997ZM1904 791Q1895 854 1871.0 911.5Q1847 969 1809 1020L1654 865Q1673 831 1684 791ZM1707 1122Q1656 1160 1598.5 1184.0Q1541 1208 1478 1217V997Q1518 986 1552 967ZM1809 418Q1847 469 1871.0 526.5Q1895 584 1904 647H1684Q1673 607 1654 573ZM1478 221Q1541 230 1598.5 254.0Q1656 278 1707 316L1552 471Q1518 452 1478 441ZM908 647Q917 584 941.0 526.5Q965 469 1003 418L1158 573Q1139 607 1128 647ZM1105 316Q1156 278 1213.5 254.0Q1271 230 1334 221V441Q1294 452 1260 471ZM1003 1020Q965 969 941.0 911.5Q917 854 908 791H1128Q1139 831 1158 865Z" style="fill:#ffffff;stroke:none" transform="scale(1,-1) translate(0,-256)" /></svg>