<?xml version="1.0" encoding="utf-8" ?>
<svg baseProfile="full" height="256" version="1.1" width="256" xmlns="http://www.w3.org/2000/svg" xmlns:ev="http://www.w3.org/2001/xml-events" xmlns:xlink="http://www.w3.org/1999/xlink"><defs /><path d="M1406 360Q1467 360 1531.0 341.0Q1595 322 1647.0 285.5Q1699 249 1732.0 195.0Q1765 141 1765 72Q1765 42 1744.0 21.0Q1723 0 1693 0Q1667 0 1641.0 4.5Q1615 9 1589 14Q1543 24 1498.0 29.5Q1453 35 1406 35Q1359 35 1314.0 29.5Q1269 24 1223 14Q1197 9 1170.5 4.5Q1144 0 1118 0Q1089 0 1068.0 21.5Q1047 43 1047 72Q1047 141 1080.0 195.0Q1113 249 1164.5 285.5Q1216 322 1280.0 341.0Q1344 360 1406 360ZM1262 827Q1262 774 1242.5 728.5Q1223 683 1189.0 649.0Q1155 615 1109.0 595.5Q1063 576 1011 576Q959 576 913.0 595.5Q867 615 833.0 649.0Q799 683 779.0 729.0Q759 775 759 827V863H831Q831 825 845.0 792.5Q859 760 883.5 735.5Q908 711 940.5 697.0Q973 683 1011 683Q1048 683 1081.0 697.0Q1114 711 1138.0 735.5Q1162 760 1176.0 793.0Q1190 826 1190 863H1262ZM2053 863V827Q2053 775 2033.0 729.0Q2013 683 1979.0 649.0Q1945 615 1899.0 595.5Q1853 576 1801 576Q1748 576 1702.5 595.5Q1657 615 1623.0 649.0Q1589 683 1569.5 728.5Q1550 774 1550 827V863H1622Q1622 826 1636.0 793.0Q1650 760 1674.0 735.5Q1698 711 1730.5 697.0Q1763 683 1801 683Q1838 683 1871.0 697.0Q1904 711 1928.5 735.5Q1953 760 1967.0 792.5Q1981 825 1981 863Z" style="fill:#000000;stroke:none" transform="scale(1,-1) translate(0,-256)" /></svg>