<?xml version="1.0" encoding="utf-8" ?>
<svg baseProfile="full" height="256" version="1.1" width="256" xmlns="http://www.w3.org/2000/svg" xmlns:ev="http://www.w3.org/2001/xml-events" xmlns:xlink="http://www.w3.org/1999/xlink"><defs /><path d="M2412 144Q2412 92 2392.5 46.0Q2373 0 2339.0 -34.0Q2305 -68 2259.0 -88.0Q2213 -108 2161 -108Q2109 -108 2063.0 -88.0Q2017 -68 1983.0 -34.0Q1949 0 1929.0 46.0Q1909 92 1909 144V216Q1909 261 1892.0 300.0Q1875 339 1845.5 368.5Q1816 398 1777.0 414.5Q1738 431 1693 431V503H1909Q1963 503 2021.5 494.5Q2080 486 2136.0 467.5Q2192 449 2242.0 420.5Q2292 392 2330.0 352.0Q2368 312 2390.0 260.5Q2412 209 2412 144Z" style="fill:#00bcf2;stroke:none" transform="scale(1,-1) translate(0,-256)" /></svg>