<?xml version="1.0" encoding="utf-8" ?>
<svg baseProfile="full" height="256" version="1.1" width="256" xmlns="http://www.w3.org/2000/svg" xmlns:ev="http://www.w3.org/2001/xml-events" xmlns:xlink="http://www.w3.org/1999/xlink"><defs /><path d="M1190 1294Q1220 1294 1241.0 1273.0Q1262 1252 1262 1222Q1262 1192 1241.0 1171.0Q1220 1150 1190 1150Q1075 1150 983.0 1105.5Q891 1061 813 980Q790 955 759 955Q729 955 708.0 976.5Q687 998 687 1027Q687 1052 705 1075Q748 1127 804.5 1168.0Q861 1209 924.0 1237.0Q987 1265 1055.0 1279.5Q1123 1294 1190 1294ZM1622 1294Q1689 1294 1757.0 1279.5Q1825 1265 1888.0 1237.0Q1951 1209 2007.0 1168.0Q2063 1127 2107 1075Q2125 1052 2125 1027Q2125 1013 2119.0 1000.0Q2113 987 2103.5 977.0Q2094 967 2081.0 961.0Q2068 955 2053 955Q2022 955 1999 980Q1920 1061 1828.5 1105.5Q1737 1150 1622 1150Q1592 1150 1571.0 1171.0Q1550 1192 1550 1222Q1550 1252 1571.0 1273.0Q1592 1294 1622 1294Z" style="fill:#d48c00;stroke:none" transform="scale(1,-1) translate(0,-256)" /></svg>