<?xml version="1.0" encoding="utf-8" ?>
<svg baseProfile="full" height="256" version="1.1" width="256" xmlns="http://www.w3.org/2000/svg" xmlns:ev="http://www.w3.org/2001/xml-events" xmlns:xlink="http://www.w3.org/1999/xlink"><defs /><path d="M472 945 1354 651Q1326 623 1295.5 595.0Q1265 567 1242 535L447 800Q451 837 457.0 873.5Q463 910 472 945ZM1590 883Q1558 860 1530.0 829.5Q1502 799 1474 771L1180 1653Q1216 1661 1252.0 1667.5Q1288 1674 1325 1678ZM1099 333Q1099 274 1116 215L753 34Q728 62 706.0 91.0Q684 120 664 152L1100 370Q1099 361 1099.0 351.5Q1099 342 1099 333ZM2091 1372 1909 1009Q1884 1017 1852.5 1021.5Q1821 1026 1791 1026Q1781 1026 1772.0 1026.0Q1763 1026 1755 1024L1973 1461Q2005 1441 2034.0 1419.0Q2063 1397 2091 1372Z" style="fill:#ffc83d;stroke:none" transform="scale(1,-1) translate(0,-256)" /></svg>