<?xml version="1.0" encoding="utf-8" ?>
<svg baseProfile="full" height="256" version="1.1" width="256" xmlns="http://www.w3.org/2000/svg" xmlns:ev="http://www.w3.org/2001/xml-events" xmlns:xlink="http://www.w3.org/1999/xlink"><defs /><path d="M1464 -431Q1335 -431 1212.0 -402.0Q1089 -373 977.0 -317.5Q865 -262 767.5 -181.5Q670 -101 592 2Q524 20 483 79Q437 146 402.5 220.5Q368 295 345.0 374.5Q322 454 310.5 535.5Q299 617 299 698Q299 783 311 867Q285 893 270.5 926.5Q256 960 256 997Q256 1020 262 1043Q286 1139 329.5 1230.5Q373 1322 432.0 1405.0Q491 1488 563.5 1561.0Q636 1634 719.0 1693.0Q802 1752 893.5 1795.5Q985 1839 1082 1863Q1104 1869 1129 1869Q1165 1869 1199.0 1854.5Q1233 1840 1258 1814Q1300 1821 1342.0 1824.0Q1384 1827 1427 1827Q1507 1827 1589.0 1815.0Q1671 1803 1750.5 1780.0Q1830 1757 1905.0 1722.5Q1980 1688 2046 1642Q2105 1601 2123 1533Q2226 1455 2306.5 1357.5Q2387 1260 2442.5 1148.0Q2498 1036 2527.0 913.0Q2556 790 2556 661V641Q2556 623 2555.0 604.5Q2554 586 2550 569Q2540 525 2517.0 489.0Q2494 453 2461.5 427.0Q2429 401 2388.5 386.5Q2348 372 2303 372Q2250 372 2204.0 392.0Q2158 412 2124.0 446.0Q2090 480 2070.0 526.0Q2050 572 2050 625Q2050 671 2034.5 713.0Q2019 755 1991.0 788.5Q1963 822 1925.0 845.5Q1887 869 1842 878L1812 819L1794 815Q1763 808 1742.5 802.0Q1722 796 1705.0 787.0Q1688 778 1670.5 763.0Q1653 748 1629 722Q1628 675 1610.5 634.5Q1593 594 1562.5 563.0Q1532 532 1491.0 514.5Q1450 497 1403 497Q1377 472 1362.0 454.5Q1347 437 1338.0 419.5Q1329 402 1323.0 381.0Q1317 360 1310 328L1306 312L1247 283Q1256 238 1279.5 200.0Q1303 162 1336.5 134.0Q1370 106 1412.0 90.5Q1454 75 1500 75Q1552 75 1598.5 55.0Q1645 35 1679.0 1.0Q1713 -33 1733.0 -79.5Q1753 -126 1753 -178Q1753 -223 1736.5 -266.0Q1720 -309 1690.5 -343.5Q1661 -378 1621.5 -401.0Q1582 -424 1536 -429Q1525 -431 1514.5 -431.0Q1504 -431 1493 -431Z" style="fill:#000000;stroke:none" transform="scale(1,-1) translate(0,-256)" /></svg>