<?xml version="1.0" encoding="utf-8" ?>
<svg baseProfile="full" height="256" version="1.1" width="256" xmlns="http://www.w3.org/2000/svg" xmlns:ev="http://www.w3.org/2001/xml-events" xmlns:xlink="http://www.w3.org/1999/xlink"><defs /><path d="M2411 633Q2411 585 2383.5 550.0Q2356 515 2303 515Q2280 515 2260.0 523.5Q2240 532 2225.0 547.0Q2210 562 2201.5 582.0Q2193 602 2193 625Q2193 708 2161.5 781.0Q2130 854 2075.5 908.5Q2021 963 1948.0 994.5Q1875 1026 1792 1026Q1783 1026 1773.5 1026.0Q1764 1026 1755 1024L1714 943Q1680 935 1648.5 920.0Q1617 905 1590 883Q1579 886 1569 886Q1554 886 1535.5 879.5Q1517 873 1506 862L1473 771Q1477 759 1480.5 747.5Q1484 736 1484 723Q1484 689 1460.0 665.0Q1436 641 1402 641Q1390 641 1378.0 644.0Q1366 647 1354 651L1236 633Q1230 625 1227.5 612.0Q1225 599 1225 589Q1225 558 1242 535Q1220 508 1205.0 476.5Q1190 445 1182 411Q1157 399 1136.5 390.0Q1116 381 1101.0 369.0Q1086 357 1077.5 339.0Q1069 321 1069 291Q1069 262 1078.5 244.5Q1088 227 1116 215Q1135 152 1172.5 99.5Q1210 47 1261.0 10.0Q1312 -27 1373.0 -47.5Q1434 -68 1500 -68Q1523 -68 1543.0 -76.5Q1563 -85 1578.0 -100.0Q1593 -115 1601.5 -135.0Q1610 -155 1610 -178Q1610 -220 1585.0 -247.5Q1560 -275 1522 -285Q1519 -286 1515 -286Q1510 -287 1506.5 -287.0Q1503 -287 1500 -287H1464Q1362 -287 1263.0 -265.5Q1164 -244 1073.5 -203.5Q983 -163 901.5 -103.5Q820 -44 752 33Q762 56 762 77Q762 99 753.0 113.0Q744 127 730.0 135.0Q716 143 698.5 147.0Q681 151 663 152Q656 148 649.0 144.5Q642 141 634 141Q614 141 603 158Q563 214 533.0 280.0Q503 346 482.5 416.0Q462 486 452.0 557.5Q442 629 442 698Q442 724 443.5 749.0Q445 774 447 800Q470 811 487.5 831.0Q505 851 505 878Q505 897 494.5 914.0Q484 931 473 945Q463 948 450.5 951.5Q438 955 426.5 960.0Q415 965 407.5 973.5Q400 982 400 996Q400 1002 401 1005Q436 1136 504.0 1251.5Q572 1367 665.0 1460.0Q758 1553 873.5 1621.0Q989 1689 1120 1724Q1123 1725 1129 1725Q1142 1725 1151.0 1717.0Q1160 1709 1165.0 1698.0Q1170 1687 1173.5 1674.5Q1177 1662 1180 1652Q1193 1638 1208.0 1627.5Q1223 1617 1243 1617Q1272 1617 1293.0 1634.0Q1314 1651 1325 1678Q1351 1680 1376.0 1681.5Q1401 1683 1427 1683Q1495 1683 1567.0 1672.5Q1639 1662 1709.0 1642.0Q1779 1622 1845.0 1592.0Q1911 1562 1967 1522Q1984 1510 1984 1491Q1984 1483 1981.0 1476.0Q1978 1469 1973 1462Q1972 1455 1971.5 1448.0Q1971 1441 1971 1434Q1971 1400 1989.0 1379.5Q2007 1359 2042 1359Q2069 1359 2091 1372Q2168 1304 2227.5 1223.0Q2287 1142 2328.0 1051.0Q2369 960 2390.5 861.5Q2412 763 2412 661Q2412 654 2411.5 647.0Q2411 640 2411 633Z" style="fill:#eba300;stroke:none" transform="scale(1,-1) translate(0,-256)" /></svg>