<?xml version="1.0" encoding="utf-8" ?>
<svg baseProfile="full" height="256" version="1.1" width="256" xmlns="http://www.w3.org/2000/svg" xmlns:ev="http://www.w3.org/2001/xml-events" xmlns:xlink="http://www.w3.org/1999/xlink"><defs /><path d="M1334 1722Q1423 1722 1501.5 1688.0Q1580 1654 1638.5 1595.5Q1697 1537 1731.0 1458.5Q1765 1380 1765 1291V716H615V1291Q615 1381 649.0 1459.5Q683 1538 741.5 1596.5Q800 1655 879.0 1688.5Q958 1722 1047 1722ZM1837 141Q1852 141 1862.5 130.5Q1873 120 1873 105Q1873 90 1862.5 79.5Q1852 69 1837 69H1430Q1376 34 1315.0 15.5Q1254 -3 1190 -3Q1126 -3 1065.0 15.5Q1004 34 950 69H543Q529 69 518.5 80.0Q508 91 508 105Q508 119 518.5 130.0Q529 141 543 141H868L1004 209Q1043 176 1091.0 158.5Q1139 141 1190 141Q1241 141 1289.0 158.5Q1337 176 1376 209L1513 141Z" style="fill:#383838;stroke:none" transform="scale(1,-1) translate(0,-256)" /></svg>