<?xml version="1.0" encoding="utf-8" ?>
<svg baseProfile="full" height="256" version="1.1" width="256" xmlns="http://www.w3.org/2000/svg" xmlns:ev="http://www.w3.org/2001/xml-events" xmlns:xlink="http://www.w3.org/1999/xlink"><defs /><path d="M2010 58Q2065 -17 2095.0 -105.0Q2125 -193 2125 -287V-431H256V-405Q256 -338 258.0 -279.0Q260 -220 270.5 -164.5Q281 -109 304.5 -54.5Q328 0 371 58Q364 80 364 108Q364 145 378.0 178.0Q392 211 416.5 235.5Q441 260 473.5 274.0Q506 288 543 288H709Q654 349 616.0 421.5Q578 494 560 575H472V1294Q472 1413 517.5 1517.5Q563 1622 641.0 1700.0Q719 1778 823.5 1823.5Q928 1869 1047 1869H1334Q1453 1869 1557.5 1823.5Q1662 1778 1740.0 1700.0Q1818 1622 1863.5 1517.5Q1909 1413 1909 1294V575H1821Q1803 495 1765.0 422.0Q1727 349 1672 288H1837Q1874 288 1907.0 274.0Q1940 260 1964.5 235.5Q1989 211 2003.0 178.0Q2017 145 2017 108Q2017 95 2015.0 82.5Q2013 70 2010 58Z" style="fill:#000000;stroke:none" transform="scale(1,-1) translate(0,-256)" /></svg>