<?xml version="1.0" encoding="utf-8" ?>
<svg baseProfile="full" height="256" version="1.1" width="256" xmlns="http://www.w3.org/2000/svg" xmlns:ev="http://www.w3.org/2001/xml-events" xmlns:xlink="http://www.w3.org/1999/xlink"><defs /><path d="M1190 241Q1118 241 1050.5 261.5Q983 282 925.5 320.0Q868 358 823.0 412.0Q778 466 750 533Q736 566 728.5 595.5Q721 625 717.0 653.5Q713 682 712.5 711.5Q712 741 712 775V789Q712 801 715.5 815.5Q719 830 721 842Q735 908 765.5 969.5Q796 1031 847 1077Q881 1108 920.5 1128.5Q960 1149 1003.0 1162.0Q1046 1175 1091.0 1180.5Q1136 1186 1181 1186Q1251 1186 1320.5 1177.0Q1390 1168 1451.0 1142.5Q1512 1117 1560.0 1072.0Q1608 1027 1635 954Q1642 936 1647.5 915.5Q1653 895 1657.5 873.0Q1662 851 1665.0 830.0Q1668 809 1668 790V719Q1668 620 1630.5 532.5Q1593 445 1528.5 380.5Q1464 316 1376.5 278.5Q1289 241 1190 241Z" style="fill:#ffc83d;stroke:none" transform="scale(1,-1) translate(0,-256)" /></svg>