<?xml version="1.0" encoding="utf-8" ?>
<svg baseProfile="full" height="256" version="1.1" width="256" xmlns="http://www.w3.org/2000/svg" xmlns:ev="http://www.w3.org/2001/xml-events" xmlns:xlink="http://www.w3.org/1999/xlink"><defs /><path d="M1406 791Q1436 791 1457.0 770.0Q1478 749 1478 719V647Q1478 617 1457.0 596.0Q1436 575 1406 575Q1376 575 1355.0 596.0Q1334 617 1334 647V719Q1334 749 1355.0 770.0Q1376 791 1406 791ZM1047 647Q1047 618 1025.5 596.5Q1004 575 975 575Q945 575 924.0 596.0Q903 617 903 647V719Q903 749 924.0 770.0Q945 791 975 791Q1004 791 1025.5 769.5Q1047 748 1047 719Z" style="fill:#000000;stroke:none" transform="scale(1,-1) translate(0,-256)" /></svg>