<?xml version="1.0" encoding="utf-8" ?>
<svg baseProfile="full" height="256" version="1.1" width="256" xmlns="http://www.w3.org/2000/svg" xmlns:ev="http://www.w3.org/2001/xml-events" xmlns:xlink="http://www.w3.org/1999/xlink"><defs /><path d="M1981 -287H1047L1011 -237L975 -287H400Q400 -234 413.0 -182.5Q426 -131 450.5 -84.5Q475 -38 510.0 1.5Q545 41 590 70Q618 88 647.0 98.0Q676 108 706.5 112.5Q737 117 768.0 118.0Q799 119 831 119H1550Q1581 119 1612.0 118.0Q1643 117 1673.0 112.5Q1703 108 1732.0 98.5Q1761 89 1788 72Q1833 43 1869.0 3.5Q1905 -36 1929.5 -83.0Q1954 -130 1967.5 -182.0Q1981 -234 1981 -287Z" style="fill:#f03a17;stroke:none" transform="scale(1,-1) translate(0,-256)" /></svg>