<?xml version="1.0" encoding="utf-8" ?>
<svg baseProfile="full" height="256" version="1.1" width="256" xmlns="http://www.w3.org/2000/svg" xmlns:ev="http://www.w3.org/2001/xml-events" xmlns:xlink="http://www.w3.org/1999/xlink"><defs /><path d="M1190 1438Q1101 1438 1022.5 1404.0Q944 1370 885.5 1311.5Q827 1253 793.0 1174.0Q759 1095 759 1006V719Q759 630 793.0 551.5Q827 473 885.5 414.5Q944 356 1022.5 322.0Q1101 288 1190 288Q1279 288 1358.0 321.5Q1437 355 1495.5 413.5Q1554 472 1588.0 550.5Q1622 629 1622 719V1006Q1622 1095 1588.0 1174.0Q1554 1253 1495.5 1311.5Q1437 1370 1358.0 1404.0Q1279 1438 1190 1438ZM1190 1510Q1294 1510 1385.5 1470.5Q1477 1431 1545.5 1362.5Q1614 1294 1653.5 1202.0Q1693 1110 1693 1006V719Q1693 615 1653.5 523.0Q1614 431 1545.5 363.0Q1477 295 1385.5 255.5Q1294 216 1190 216Q1086 216 994.0 255.5Q902 295 834.0 363.0Q766 431 726.5 523.0Q687 615 687 719V1006Q687 1110 726.5 1202.0Q766 1294 834.0 1362.5Q902 1431 994.0 1470.5Q1086 1510 1190 1510Z" style="fill:#d48c00;stroke:none" transform="scale(1,-1) translate(0,-256)" /></svg>