<?xml version="1.0" encoding="utf-8" ?>
<svg baseProfile="full" height="256" version="1.1" width="256" xmlns="http://www.w3.org/2000/svg" xmlns:ev="http://www.w3.org/2001/xml-events" xmlns:xlink="http://www.w3.org/1999/xlink"><defs /><path d="M1118 647Q1176 647 1228.5 624.0Q1281 601 1320.5 562.0Q1360 523 1383.0 470.5Q1406 418 1406 360Q1406 300 1383.5 247.5Q1361 195 1322.0 156.0Q1283 117 1230.5 94.5Q1178 72 1118 72Q1059 72 1007.0 95.0Q955 118 916.0 157.5Q877 197 854.0 249.0Q831 301 831 360Q831 419 853.5 471.5Q876 524 915.0 563.0Q954 602 1006.5 624.5Q1059 647 1118 647ZM1118 144Q1163 144 1202.5 161.0Q1242 178 1271.0 207.0Q1300 236 1317.0 275.5Q1334 315 1334 360Q1334 405 1317.0 444.0Q1300 483 1270.5 512.0Q1241 541 1202.0 558.0Q1163 575 1118 575Q1073 575 1034.0 558.0Q995 541 966.0 512.0Q937 483 920.0 444.0Q903 405 903 360Q903 315 920.0 276.0Q937 237 966.0 207.5Q995 178 1034.0 161.0Q1073 144 1118 144Z" style="fill:#cccccc;stroke:none" transform="scale(1,-1) translate(0,-256)" /></svg>