<?xml version="1.0" encoding="utf-8" ?>
<svg baseProfile="full" height="256" version="1.1" width="256" xmlns="http://www.w3.org/2000/svg" xmlns:ev="http://www.w3.org/2001/xml-events" xmlns:xlink="http://www.w3.org/1999/xlink"><defs /><path d="M1978 103Q1954 110 1929.5 115.0Q1905 120 1880.5 125.5Q1856 131 1832.0 138.5Q1808 146 1786 157Q1745 177 1714.5 218.0Q1684 259 1662.0 312.0Q1640 365 1625.5 425.5Q1611 486 1602.0 545.5Q1593 605 1589.5 659.5Q1586 714 1586 755Q1586 797 1589.5 851.5Q1593 906 1601.5 965.0Q1610 1024 1624.5 1083.5Q1639 1143 1661.0 1195.5Q1683 1248 1714.0 1289.5Q1745 1331 1786 1353Q1807 1364 1831.0 1371.5Q1855 1379 1880.0 1385.0Q1905 1391 1930.0 1396.0Q1955 1401 1978 1407Z" style="fill:#e81224;stroke:none" transform="scale(1,-1) translate(0,-256)" /></svg>