<?xml version="1.0" encoding="utf-8" ?>
<svg baseProfile="full" height="256" version="1.1" width="256" xmlns="http://www.w3.org/2000/svg" xmlns:ev="http://www.w3.org/2001/xml-events" xmlns:xlink="http://www.w3.org/1999/xlink"><defs /><path d="M2089 144Q2053 144 2023.0 164.0Q1993 184 1969.0 216.0Q1945 248 1926.5 289.0Q1908 330 1894.0 371.0Q1880 412 1871.0 450.5Q1862 489 1857 517Q1846 577 1841.5 636.0Q1837 695 1837 755Q1837 815 1841.5 874.0Q1846 933 1857 993Q1862 1021 1871.0 1059.5Q1880 1098 1894.0 1139.0Q1908 1180 1926.5 1221.0Q1945 1262 1969.0 1294.0Q1993 1326 2023.0 1346.0Q2053 1366 2089 1366Q2123 1366 2152.0 1347.0Q2181 1328 2205.0 1297.0Q2229 1266 2248.0 1227.0Q2267 1188 2281.0 1148.5Q2295 1109 2304.0 1072.0Q2313 1035 2318 1008Q2329 945 2334.5 882.0Q2340 819 2340 755Q2340 691 2334.5 628.0Q2329 565 2318 502Q2313 475 2304.0 438.0Q2295 401 2281.0 361.5Q2267 322 2248.0 283.0Q2229 244 2205.0 213.0Q2181 182 2152.0 163.0Q2123 144 2089 144Z" style="fill:#2b2b2b;stroke:none" transform="scale(1,-1) translate(0,-256)" /></svg>