<?xml version="1.0" encoding="utf-8" ?>
<svg baseProfile="full" height="256" version="1.1" width="256" xmlns="http://www.w3.org/2000/svg" xmlns:ev="http://www.w3.org/2001/xml-events" xmlns:xlink="http://www.w3.org/1999/xlink"><defs /><path d="M2017 -72Q1960 -72 1906.5 -53.0Q1853 -34 1808 1Q1790 6 1770.5 10.5Q1751 15 1734 22Q1729 24 1725.0 26.5Q1721 29 1716 31L1465 104Q1404 20 1312.5 -26.0Q1221 -72 1118 -72Q1032 -72 956.5 -41.0Q881 -10 823.5 44.5Q766 99 730.0 172.5Q694 246 688 331Q631 348 575.0 365.5Q519 383 462 397Q442 401 431.5 403.5Q421 406 403 416Q359 440 331.0 478.5Q303 517 286.0 563.5Q269 610 262.5 660.0Q256 710 256 755Q256 799 263.0 849.0Q270 899 287.0 946.0Q304 993 332.0 1032.0Q360 1071 403 1094Q418 1102 432.0 1104.5Q446 1107 462 1112L1716 1479Q1721 1481 1725.0 1483.5Q1729 1486 1734 1488Q1751 1495 1770.5 1499.0Q1790 1503 1808 1508Q1843 1535 1875.5 1549.5Q1908 1564 1941.5 1571.0Q1975 1578 2011.0 1579.5Q2047 1581 2089 1581Q2183 1581 2254.5 1540.0Q2326 1499 2378.0 1431.0Q2430 1363 2464.0 1276.0Q2498 1189 2518.5 1097.0Q2539 1005 2547.5 916.0Q2556 827 2556 755Q2556 683 2547.5 593.5Q2539 504 2518.5 412.5Q2498 321 2464.0 233.5Q2430 146 2378.0 78.5Q2326 11 2254.5 -30.5Q2183 -72 2089 -72Z" style="fill:#000000;stroke:none" transform="scale(1,-1) translate(0,-256)" /></svg>