<?xml version="1.0" encoding="utf-8" ?>
<svg baseProfile="full" height="256" version="1.1" width="256" xmlns="http://www.w3.org/2000/svg" xmlns:ev="http://www.w3.org/2001/xml-events" xmlns:xlink="http://www.w3.org/1999/xlink"><defs /><path d="M1914 222 1772 164 488 539Q479 542 474.5 543.0Q470 544 462 549Q444 560 432.5 586.5Q421 613 413.5 643.5Q406 674 403.0 704.5Q400 735 400 755Q400 775 403.0 805.5Q406 836 413.5 866.5Q421 897 432.5 923.5Q444 950 462 961Q470 966 474.5 967.0Q479 968 488 971L1772 1345L1920 1287Z" style="fill:#f2f2f2;stroke:none" transform="scale(1,-1) translate(0,-256)" /></svg>