<?xml version="1.0" encoding="utf-8" ?>
<svg baseProfile="full" height="256" version="1.1" width="256" xmlns="http://www.w3.org/2000/svg" xmlns:ev="http://www.w3.org/2001/xml-events" xmlns:xlink="http://www.w3.org/1999/xlink"><defs /><path d="M1371 719Q1393 719 1413.0 710.5Q1433 702 1447.5 687.5Q1462 673 1470.5 653.0Q1479 633 1479 611Q1479 589 1470.5 569.5Q1462 550 1447.0 535.0Q1432 520 1412.5 511.5Q1393 503 1371 503Q1349 503 1329.5 511.5Q1310 520 1295.0 535.0Q1280 550 1271.5 569.5Q1263 589 1263 611Q1263 633 1271.5 653.0Q1280 673 1294.5 687.5Q1309 702 1328.5 710.5Q1348 719 1371 719ZM868 431Q890 431 909.5 422.5Q929 414 944.0 399.5Q959 385 967.5 365.5Q976 346 976 324Q976 302 967.5 282.5Q959 263 944.0 248.0Q929 233 909.5 224.5Q890 216 868 216Q845 216 825.5 224.5Q806 233 791.5 247.5Q777 262 768.5 281.5Q760 301 760 324Q760 346 768.5 366.0Q777 386 792.0 400.0Q807 414 826.5 422.5Q846 431 868 431Z" style="fill:#fce100;stroke:none" transform="scale(1,-1) translate(0,-256)" /></svg>