<?xml version="1.0" encoding="utf-8" ?>
<svg baseProfile="full" height="256" version="1.1" width="256" xmlns="http://www.w3.org/2000/svg" xmlns:ev="http://www.w3.org/2001/xml-events" xmlns:xlink="http://www.w3.org/1999/xlink"><defs /><path d="M1119 755Q1119 733 1110.5 713.5Q1102 694 1088.0 679.0Q1074 664 1054.0 655.5Q1034 647 1012 647Q989 647 969.5 655.5Q950 664 935.5 678.5Q921 693 912.5 712.5Q904 732 904 755Q904 777 912.5 796.5Q921 816 936.0 831.0Q951 846 970.5 854.5Q990 863 1012 863Q1034 863 1053.5 854.5Q1073 846 1087.5 831.0Q1102 816 1110.5 796.5Q1119 777 1119 755Z" style="fill:#00bcf2;stroke:none" transform="scale(1,-1) translate(0,-256)" /></svg>