<?xml version="1.0" encoding="utf-8" ?>
<svg baseProfile="full" height="256" version="1.1" width="256" xmlns="http://www.w3.org/2000/svg" xmlns:ev="http://www.w3.org/2001/xml-events" xmlns:xlink="http://www.w3.org/1999/xlink"><defs /><path d="M2033 54Q2051 31 2067.5 9.0Q2084 -13 2097.0 -36.5Q2110 -60 2117.5 -86.0Q2125 -112 2125 -142Q2125 -187 2108.0 -226.5Q2091 -266 2062.0 -295.5Q2033 -325 1993.5 -342.0Q1954 -359 1909 -359Q1873 -359 1841.5 -347.5Q1810 -336 1781.5 -317.5Q1753 -299 1727.0 -277.0Q1701 -255 1674 -234Q1661 -262 1640.5 -285.0Q1620 -308 1594.0 -324.5Q1568 -341 1538.5 -350.0Q1509 -359 1478 -359V-431H903V-359Q840 -359 786.5 -325.5Q733 -292 707 -234Q680 -255 654.0 -277.0Q628 -299 599.5 -317.5Q571 -336 539.5 -347.5Q508 -359 472 -359Q427 -359 388.0 -342.0Q349 -325 319.5 -296.0Q290 -267 273.5 -227.5Q257 -188 257 -143Q257 -114 263.5 -89.5Q270 -65 281.0 -43.0Q292 -21 306.5 -0.5Q321 20 338 41L348 54Q339 76 333.5 99.0Q328 122 328 145Q328 213 368 269L505 461Q488 487 480.0 516.0Q472 545 472 575Q472 611 483.5 643.0Q495 675 516 704L628 861Q616 897 616 935Q616 972 627.5 1003.0Q639 1034 660 1063L901 1402Q869 1431 850.5 1466.0Q832 1501 832 1546Q832 1582 845.5 1614.5Q859 1647 883.0 1671.5Q907 1696 939.0 1710.5Q971 1725 1007 1725Q1022 1756 1038.5 1782.5Q1055 1809 1076.0 1828.0Q1097 1847 1125.0 1858.0Q1153 1869 1191 1869Q1229 1869 1257.0 1858.5Q1285 1848 1306.0 1828.5Q1327 1809 1343.5 1782.5Q1360 1756 1375 1725Q1411 1725 1443.0 1710.5Q1475 1696 1499.0 1671.0Q1523 1646 1537.0 1614.0Q1551 1582 1551 1546Q1551 1499 1531.5 1466.0Q1512 1433 1480 1401L1723 1061Q1743 1032 1754.5 1001.0Q1766 970 1766 935Q1766 916 1762.5 897.5Q1759 879 1753 861L1867 701Q1887 672 1898.0 641.0Q1909 610 1909 575Q1909 545 1901.0 516.0Q1893 487 1876 461L2013 269Q2053 213 2053 145Q2053 122 2047.5 99.0Q2042 76 2033 54Z" style="fill:#000000;stroke:none" transform="scale(1,-1) translate(0,-256)" /></svg>