<?xml version="1.0" encoding="utf-8" ?>
<svg baseProfile="full" height="256" version="1.1" width="256" xmlns="http://www.w3.org/2000/svg" xmlns:ev="http://www.w3.org/2001/xml-events" xmlns:xlink="http://www.w3.org/1999/xlink"><defs /><path d="M1443 360Q1465 360 1484.5 351.5Q1504 343 1519.0 328.0Q1534 313 1542.5 293.5Q1551 274 1551 252Q1551 230 1542.5 210.5Q1534 191 1519.0 176.0Q1504 161 1484.5 152.5Q1465 144 1443 144Q1420 144 1400.5 152.5Q1381 161 1366.5 175.5Q1352 190 1343.5 209.5Q1335 229 1335 252Q1335 274 1343.5 293.5Q1352 313 1367.0 328.0Q1382 343 1401.5 351.5Q1421 360 1443 360ZM1227 1150Q1249 1150 1269.0 1141.5Q1289 1133 1303.5 1118.5Q1318 1104 1326.5 1084.0Q1335 1064 1335 1042Q1335 1019 1326.5 999.5Q1318 980 1303.0 966.0Q1288 952 1268.5 943.5Q1249 935 1227 935Q1205 935 1185.5 943.5Q1166 952 1151.0 966.5Q1136 981 1127.5 1000.5Q1119 1020 1119 1042Q1119 1064 1127.5 1083.5Q1136 1103 1151.0 1118.0Q1166 1133 1185.5 1141.5Q1205 1150 1227 1150Z" style="fill:#f03a17;stroke:none" transform="scale(1,-1) translate(0,-256)" /></svg>