<?xml version="1.0" encoding="utf-8" ?>
<svg baseProfile="full" height="256" version="1.1" width="256" xmlns="http://www.w3.org/2000/svg" xmlns:ev="http://www.w3.org/2001/xml-events" xmlns:xlink="http://www.w3.org/1999/xlink"><defs /><path d="M1335 1459V1330Q1335 1315 1324.0 1304.5Q1313 1294 1298 1294Q1284 1294 1274 1304L1191 1387L1109 1304Q1099 1294 1084 1294Q1069 1294 1058.0 1304.5Q1047 1315 1047 1330V1459L986 1520Q976 1530 976 1546Q976 1561 986.5 1571.0Q997 1581 1012 1581H1096L1159 1707Q1164 1715 1173.0 1720.0Q1182 1725 1191 1725Q1200 1725 1209.0 1720.0Q1218 1715 1223 1707L1286 1581H1371Q1386 1581 1396.5 1570.5Q1407 1560 1407 1545Q1407 1531 1396 1520Z" style="fill:#fff100;stroke:none" transform="scale(1,-1) translate(0,-256)" /></svg>