<?xml version="1.0" encoding="utf-8" ?>
<svg baseProfile="full" height="256" version="1.1" width="256" xmlns="http://www.w3.org/2000/svg" xmlns:ev="http://www.w3.org/2001/xml-events" xmlns:xlink="http://www.w3.org/1999/xlink"><defs /><path d="M1843 73 1968 -102Q1981 -121 1981 -143Q1981 -173 1960.0 -194.0Q1939 -215 1909 -215Q1884 -215 1865 -200L1550 45V-144Q1550 -174 1529.0 -194.5Q1508 -215 1478 -215Q1446 -215 1424 -191L1191 72L957 -191Q935 -215 903 -215Q874 -215 852.5 -194.0Q831 -173 831 -144V45L516 -200Q496 -215 472 -215Q442 -215 421.0 -194.5Q400 -174 400 -144Q400 -131 402.5 -122.0Q405 -113 413 -102L538 73Q509 75 490.5 95.0Q472 115 472 144Q472 157 474.5 166.0Q477 175 485 186L712 503Q693 503 676.0 506.0Q659 509 645.5 517.0Q632 525 624.0 539.0Q616 553 616 575Q616 587 620.0 597.5Q624 608 631 618L809 867Q788 875 773.5 893.5Q759 912 759 935Q759 947 763.5 957.5Q768 968 775 977L1133 1478Q1143 1492 1158.5 1501.0Q1174 1510 1191 1510Q1208 1510 1223.0 1501.0Q1238 1492 1248 1478L1606 977Q1606 975 1609 972Q1615 963 1618.5 955.5Q1622 948 1622 935Q1622 912 1607.5 893.5Q1593 875 1572 867L1750 618Q1757 608 1761.5 597.5Q1766 587 1766 575Q1766 553 1758.0 539.0Q1750 525 1736.5 517.0Q1723 509 1705.5 506.0Q1688 503 1669 503L1896 186Q1904 175 1906.5 166.0Q1909 157 1909 144Q1909 115 1890.5 95.0Q1872 75 1843 73Z" style="fill:#13a10e;stroke:none" transform="scale(1,-1) translate(0,-256)" /></svg>