<?xml version="1.0" encoding="utf-8" ?>
<svg baseProfile="full" height="256" version="1.1" width="256" xmlns="http://www.w3.org/2000/svg" xmlns:ev="http://www.w3.org/2001/xml-events" xmlns:xlink="http://www.w3.org/1999/xlink"><defs /><path d="M1298 647Q1260 647 1227.5 661.0Q1195 675 1170.5 699.5Q1146 724 1132.0 756.5Q1118 789 1118 827Q1118 864 1132.0 896.5Q1146 929 1170.5 953.5Q1195 978 1228.0 992.0Q1261 1006 1298 1006Q1335 1006 1368.0 992.0Q1401 978 1425.5 953.5Q1450 929 1464.0 896.5Q1478 864 1478 827Q1478 789 1464.0 756.5Q1450 724 1425.5 699.5Q1401 675 1368.0 661.0Q1335 647 1298 647Z" style="fill:#ffb900;stroke:none" transform="scale(1,-1) translate(0,-256)" /></svg>