<?xml version="1.0" encoding="utf-8" ?>
<svg baseProfile="full" height="256" version="1.1" width="256" xmlns="http://www.w3.org/2000/svg" xmlns:ev="http://www.w3.org/2001/xml-events" xmlns:xlink="http://www.w3.org/1999/xlink"><defs /><path d="M1965 363 2370 -42Q2390 -62 2401.0 -88.5Q2412 -115 2412 -144Q2412 -174 2400.5 -200.0Q2389 -226 2369.5 -245.5Q2350 -265 2324.0 -276.0Q2298 -287 2268 -287Q2209 -287 2167 -245L1762 160Q1653 82 1525.0 41.0Q1397 0 1262 0Q1143 0 1033.0 31.0Q923 62 827.0 118.0Q731 174 652.5 253.0Q574 332 518.0 428.0Q462 524 431.0 634.0Q400 744 400 863Q400 982 431.0 1092.0Q462 1202 518.0 1298.0Q574 1394 652.5 1472.5Q731 1551 827.0 1607.0Q923 1663 1033.0 1694.0Q1143 1725 1262 1725Q1381 1725 1491.0 1694.0Q1601 1663 1697.0 1607.0Q1793 1551 1872.0 1472.5Q1951 1394 2007.0 1298.0Q2063 1202 2094.0 1092.0Q2125 982 2125 863Q2125 727 2084.0 600.5Q2043 474 1965 363Z" style="fill:#757575;stroke:none" transform="scale(1,-1) translate(0,-256)" /></svg>