<?xml version="1.0" encoding="utf-8" ?>
<svg baseProfile="full" height="256" version="1.1" width="256" xmlns="http://www.w3.org/2000/svg" xmlns:ev="http://www.w3.org/2001/xml-events" xmlns:xlink="http://www.w3.org/1999/xlink"><defs /><path d="M2268 -72Q2298 -72 2319.0 -93.0Q2340 -114 2340 -144Q2340 -173 2318.5 -194.0Q2297 -215 2268 -215Q2239 -215 2218.0 -194.0Q2197 -173 2197 -144Q2197 -115 2218.0 -93.5Q2239 -72 2268 -72ZM1262 1366Q1366 1366 1457.5 1326.5Q1549 1287 1617.5 1218.5Q1686 1150 1725.5 1058.5Q1765 967 1765 863Q1765 759 1725.5 667.5Q1686 576 1617.5 507.5Q1549 439 1457.5 399.5Q1366 360 1262 360Q1158 360 1066.0 399.5Q974 439 906.0 507.0Q838 575 798.5 667.0Q759 759 759 863Q759 967 798.5 1058.5Q838 1150 906.5 1218.5Q975 1287 1066.5 1326.5Q1158 1366 1262 1366Z" style="fill:#ffffff;stroke:none" transform="scale(1,-1) translate(0,-256)" /></svg>