<?xml version="1.0" encoding="utf-8" ?>
<svg baseProfile="full" height="256" version="1.1" width="256" xmlns="http://www.w3.org/2000/svg" xmlns:ev="http://www.w3.org/2001/xml-events" xmlns:xlink="http://www.w3.org/1999/xlink"><defs /><path d="M1262 72Q1153 72 1052.0 100.5Q951 129 863.5 180.5Q776 232 703.5 304.0Q631 376 579.5 464.0Q528 552 500.0 653.0Q472 754 472 863Q472 972 500.0 1073.0Q528 1174 579.5 1261.5Q631 1349 703.5 1421.5Q776 1494 863.5 1545.5Q951 1597 1052.0 1625.0Q1153 1653 1262 1653Q1371 1653 1472.0 1625.0Q1573 1597 1661.0 1545.5Q1749 1494 1821.0 1421.5Q1893 1349 1944.5 1261.5Q1996 1174 2024.5 1073.0Q2053 972 2053 863Q2053 754 2025.0 653.0Q1997 552 1945.5 464.0Q1894 376 1821.5 303.5Q1749 231 1661.0 179.5Q1573 128 1472.0 100.0Q1371 72 1262 72Z" style="fill:#383838;stroke:none" transform="scale(1,-1) translate(0,-256)" /></svg>