<?xml version="1.0" encoding="utf-8" ?>
<svg baseProfile="full" height="256" version="1.1" width="256" xmlns="http://www.w3.org/2000/svg" xmlns:ev="http://www.w3.org/2001/xml-events" xmlns:xlink="http://www.w3.org/1999/xlink"><defs /><path d="M2147 384 2472 60Q2513 19 2534.5 -34.0Q2556 -87 2556 -144Q2556 -204 2533.5 -256.0Q2511 -308 2472.0 -347.0Q2433 -386 2380.5 -408.5Q2328 -431 2268 -431Q2211 -431 2158.0 -409.0Q2105 -387 2065 -347L1740 -22Q1630 -82 1509.0 -113.0Q1388 -144 1262 -144Q1123 -144 994.5 -108.0Q866 -72 754.0 -6.5Q642 59 550.5 151.0Q459 243 393.5 355.0Q328 467 292.0 595.5Q256 724 256 863Q256 1002 292.0 1130.5Q328 1259 393.5 1370.5Q459 1482 551.0 1574.0Q643 1666 754.5 1731.5Q866 1797 994.5 1833.0Q1123 1869 1262 1869Q1401 1869 1529.5 1833.0Q1658 1797 1769.5 1731.5Q1881 1666 1973.0 1574.0Q2065 1482 2130.5 1370.5Q2196 1259 2232.0 1130.5Q2268 1002 2268 863Q2268 737 2237.5 616.0Q2207 495 2147 384Z" style="fill:#000000;stroke:none" transform="scale(1,-1) translate(0,-256)" /></svg>