<?xml version="1.0" encoding="utf-8" ?>
<svg baseProfile="full" height="256" version="1.1" width="256" xmlns="http://www.w3.org/2000/svg" xmlns:ev="http://www.w3.org/2001/xml-events" xmlns:xlink="http://www.w3.org/1999/xlink"><defs /><path d="M1550 1438 1693 1725 1837 1510V1474Q1837 1437 1823.0 1404.0Q1809 1371 1784.5 1346.5Q1760 1322 1727.5 1308.0Q1695 1294 1658 1294H1550V-278Q1478 -287 1406 -287Q1334 -287 1262 -278V1294H1154Q1117 1294 1084.5 1308.0Q1052 1322 1027.5 1346.5Q1003 1371 989.0 1404.0Q975 1437 975 1474V1510L1118 1725L1262 1438ZM472 1078Q486 1154 525 1219L831 791H687ZM2282 1212Q2300 1180 2314.5 1146.5Q2329 1113 2340 1078L2125 791H1981ZM1406 72Q1436 72 1457.0 93.0Q1478 114 1478 144Q1478 174 1457.0 195.0Q1436 216 1406 216Q1376 216 1355.0 195.0Q1334 174 1334 144Q1334 114 1355.0 93.0Q1376 72 1406 72ZM1406 1150Q1436 1150 1457.0 1171.0Q1478 1192 1478 1222Q1478 1252 1457.0 1273.0Q1436 1294 1406 1294Q1376 1294 1355.0 1273.0Q1334 1252 1334 1222Q1334 1192 1355.0 1171.0Q1376 1150 1406 1150ZM1406 791Q1436 791 1457.0 812.0Q1478 833 1478 863Q1478 892 1456.5 913.5Q1435 935 1406 935Q1377 935 1355.5 913.5Q1334 892 1334 863Q1334 833 1355.0 812.0Q1376 791 1406 791ZM1406 431Q1435 431 1456.5 452.5Q1478 474 1478 503Q1478 533 1457.0 554.0Q1436 575 1406 575Q1376 575 1355.0 554.0Q1334 533 1334 503Q1334 474 1355.5 452.5Q1377 431 1406 431Z" style="fill:#e84757;stroke:none" transform="scale(1,-1) translate(0,-256)" /></svg>