<?xml version="1.0" encoding="utf-8" ?>
<svg baseProfile="full" height="256" version="1.1" width="256" xmlns="http://www.w3.org/2000/svg" xmlns:ev="http://www.w3.org/2001/xml-events" xmlns:xlink="http://www.w3.org/1999/xlink"><defs /><path d="M2075 647Q2105 479 2136.5 313.5Q2168 148 2203 -20Q2151 -132 2063.0 -210.5Q1975 -289 1867.0 -338.0Q1759 -387 1639.5 -409.0Q1520 -431 1405 -431Q1288 -431 1169.5 -409.0Q1051 -387 944.0 -338.0Q837 -289 749.5 -211.0Q662 -133 608 -21L730 647H615L317 1044Q331 1110 348.0 1171.0Q365 1232 400 1291Q439 1358 492.5 1412.5Q546 1467 609.0 1510.0Q672 1553 742.5 1584.5Q813 1616 886 1636L1041 1869H1770L1920 1644Q2081 1613 2204.0 1518.5Q2327 1424 2407 1282Q2438 1228 2459.0 1169.5Q2480 1111 2500 1052L2196 647Z" style="fill:#000000;stroke:none" transform="scale(1,-1) translate(0,-256)" /></svg>