<?xml version="1.0" encoding="utf-8" ?>
<svg baseProfile="full" height="256" version="1.1" width="256" xmlns="http://www.w3.org/2000/svg" xmlns:ev="http://www.w3.org/2001/xml-events" xmlns:xlink="http://www.w3.org/1999/xlink"><defs /><path d="M2053 0Q2033 -40 1999.5 -75.0Q1966 -110 1924.0 -140.0Q1882 -170 1834.0 -194.5Q1786 -219 1737.0 -236.5Q1688 -254 1639.5 -265.0Q1591 -276 1549 -279H1541Q1524 -279 1507.5 -273.5Q1491 -268 1474.5 -261.0Q1458 -254 1441.0 -248.5Q1424 -243 1406 -243Q1387 -243 1369.5 -248.5Q1352 -254 1334.5 -261.0Q1317 -268 1299.5 -273.5Q1282 -279 1263 -279Q1244 -279 1225.0 -275.5Q1206 -272 1188 -267Q1186 -267 1185.0 -266.5Q1184 -266 1182 -266Q1126 -254 1063.0 -231.0Q1000 -208 941.5 -174.0Q883 -140 834.5 -96.5Q786 -53 759 0L903 791H752L525 1219Q556 1271 595.0 1311.5Q634 1352 679.5 1383.5Q725 1415 776.0 1439.5Q827 1464 882 1485Q890 1488 902.5 1492.5Q915 1497 928.5 1500.5Q942 1504 954.5 1507.0Q967 1510 975 1510H1837Q1862 1510 1886.0 1505.0Q1910 1500 1934 1494Q2049 1463 2137.0 1389.0Q2225 1315 2282 1212L2060 791H1909Z" style="fill:#e6808a;stroke:none" transform="scale(1,-1) translate(0,-256)" /></svg>