<?xml version="1.0" encoding="utf-8" ?>
<svg baseProfile="full" height="256" version="1.1" width="256" xmlns="http://www.w3.org/2000/svg" xmlns:ev="http://www.w3.org/2001/xml-events" xmlns:xlink="http://www.w3.org/1999/xlink"><defs /><path d="M1960 979Q1989 979 2010.5 957.5Q2032 936 2032 907Q2032 867 1997 846L1887 780Q1879 735 1852.5 697.0Q1826 659 1787 636L1679 745Q1613 619 1508.0 561.0Q1403 503 1263 503Q1125 503 1021.0 560.0Q917 617 851 741L739 636Q700 659 673.5 697.0Q647 735 639 780L529 846Q494 867 494 907Q494 936 515.5 957.5Q537 979 566 979Q587 979 603 969L781 862Q760 932 760 1008V1150Q865 1152 939.5 1208.0Q1014 1264 1045 1364Q1064 1327 1097.0 1300.0Q1130 1273 1170.0 1256.0Q1210 1239 1253.0 1230.5Q1296 1222 1335 1222V1438Q1363 1378 1408.5 1325.5Q1454 1273 1511.0 1234.0Q1568 1195 1633.5 1172.5Q1699 1150 1766 1150V1008Q1766 971 1760.5 934.0Q1755 897 1744 862Q1759 871 1789.5 890.5Q1820 910 1853.0 929.5Q1886 949 1916.0 964.0Q1946 979 1960 979ZM1407 431Q1436 431 1457.5 410.0Q1479 389 1479 360Q1479 352 1476.5 344.0Q1474 336 1470 328L1326 40Q1317 22 1300.0 11.0Q1283 0 1263 0Q1243 0 1225.5 11.0Q1208 22 1199 40L1056 328Q1052 336 1049.5 344.0Q1047 352 1047 360Q1047 389 1068.5 410.0Q1090 431 1119 431Z" style="fill:#ffc83d;stroke:none" transform="scale(1,-1) translate(0,-256)" /></svg>