<?xml version="1.0" encoding="utf-8" ?>
<svg baseProfile="full" height="256" version="1.1" width="256" xmlns="http://www.w3.org/2000/svg" xmlns:ev="http://www.w3.org/2001/xml-events" xmlns:xlink="http://www.w3.org/1999/xlink"><defs /><path d="M2144 206Q2204 155 2236.5 83.5Q2269 12 2269 -66Q2269 -138 2241.5 -203.5Q2214 -269 2166.5 -319.5Q2119 -370 2055.0 -400.0Q1991 -430 1918 -430H607Q535 -430 471.0 -400.0Q407 -370 359.5 -320.0Q312 -270 284.5 -204.5Q257 -139 257 -68Q257 12 290.5 85.0Q324 158 385 209Q419 285 472 350V712Q415 743 382.5 792.5Q350 842 350 908Q350 939 358.5 968.5Q367 998 383.0 1023.0Q399 1048 422.0 1068.5Q445 1089 473 1102Q476 1208 506.0 1306.5Q536 1405 588.5 1490.0Q641 1575 713.0 1645.0Q785 1715 871.5 1765.0Q958 1815 1057.0 1842.0Q1156 1869 1263 1869Q1370 1869 1469.0 1842.0Q1568 1815 1655.0 1765.0Q1742 1715 1814.0 1645.0Q1886 1575 1938.0 1490.0Q1990 1405 2020.0 1306.5Q2050 1208 2053 1101Q2110 1075 2142.5 1022.5Q2175 970 2175 908Q2175 841 2143.0 792.5Q2111 744 2054 712V351Q2107 286 2144 206Z" style="fill:#000000;stroke:none" transform="scale(1,-1) translate(0,-256)" /></svg>