<?xml version="1.0" encoding="utf-8" ?>
<svg baseProfile="full" height="256" version="1.1" width="256" xmlns="http://www.w3.org/2000/svg" xmlns:ev="http://www.w3.org/2001/xml-events" xmlns:xlink="http://www.w3.org/1999/xlink"><defs /><path d="M1529 414 2021 119Q2070 90 2098.0 40.5Q2126 -9 2126 -66Q2126 -108 2109.5 -147.5Q2093 -187 2065.0 -218.0Q2037 -249 1999.5 -268.0Q1962 -287 1919 -287Q1884 -287 1856.0 -277.5Q1828 -268 1799 -251Q1746 -220 1700.0 -180.5Q1654 -141 1607 -103Q1519 -31 1434.0 41.0Q1349 113 1263 186Q1177 113 1092.0 41.0Q1007 -31 919 -103Q872 -141 826.0 -180.5Q780 -220 727 -251Q698 -268 669.5 -277.5Q641 -287 607 -287Q564 -287 526.5 -268.0Q489 -249 461.0 -218.0Q433 -187 416.5 -147.5Q400 -108 400 -66Q400 -9 428.0 40.5Q456 90 505 119L997 414Q932 470 867.5 524.5Q803 579 739 636L849 821L1263 573L1676 821L1787 636Q1723 579 1658.5 524.5Q1594 470 1529 414Z" style="fill:#b4a0ff;stroke:none" transform="scale(1,-1) translate(0,-256)" /></svg>