<?xml version="1.0" encoding="utf-8" ?>
<svg baseProfile="full" height="256" version="1.1" width="256" xmlns="http://www.w3.org/2000/svg" xmlns:ev="http://www.w3.org/2001/xml-events" xmlns:xlink="http://www.w3.org/1999/xlink"><defs /><path d="M1047 1150Q1077 1150 1098.0 1129.0Q1119 1108 1119 1078V1006Q1119 977 1097.5 956.0Q1076 935 1047 935Q1018 935 996.5 956.0Q975 977 975 1006V1078Q975 1107 996.5 1128.5Q1018 1150 1047 1150ZM1478 1150Q1508 1150 1529.0 1129.0Q1550 1108 1550 1078V1006Q1550 977 1528.5 956.0Q1507 935 1478 935Q1449 935 1427.5 956.0Q1406 977 1406 1006V1078Q1406 1108 1427.0 1129.0Q1448 1150 1478 1150ZM1335 719Q1335 689 1314.0 668.0Q1293 647 1263 647Q1233 647 1212.0 668.0Q1191 689 1191 719Q1191 749 1212.0 770.0Q1233 791 1263 791Q1293 791 1314.0 770.0Q1335 749 1335 719Z" style="fill:#000000;stroke:none" transform="scale(1,-1) translate(0,-256)" /></svg>