<?xml version="1.0" encoding="utf-8" ?>
<svg baseProfile="full" height="256" version="1.1" width="256" xmlns="http://www.w3.org/2000/svg" xmlns:ev="http://www.w3.org/2001/xml-events" xmlns:xlink="http://www.w3.org/1999/xlink"><defs /><path d="M903 72Q933 72 959.0 60.5Q985 49 1004.5 29.5Q1024 10 1035.5 -16.0Q1047 -42 1047 -72Q1047 -108 1028.5 -140.0Q1010 -172 981 -192Q920 -167 864.5 -132.5Q809 -98 761 -53Q764 -26 776.5 -3.5Q789 19 808.5 36.0Q828 53 852.0 62.5Q876 72 903 72ZM1909 144Q1943 144 1974.5 133.5Q2006 123 2032.0 104.5Q2058 86 2078.5 59.5Q2099 33 2111 2Q2039 -77 1948.5 -134.0Q1858 -191 1756 -223Q1726 -193 1709.5 -153.5Q1693 -114 1693 -72Q1693 -27 1710.0 12.0Q1727 51 1756.5 80.5Q1786 110 1825.0 127.0Q1864 144 1909 144ZM2404 840Q2409 808 2412.0 775.5Q2415 743 2415 711Q2415 679 2411.5 646.5Q2408 614 2403 582Q2388 575 2372.5 571.0Q2357 567 2340 567Q2310 567 2284.0 578.5Q2258 590 2238.5 609.5Q2219 629 2208.0 655.0Q2197 681 2197 711Q2197 741 2208.0 767.0Q2219 793 2238.5 812.5Q2258 832 2284.0 843.5Q2310 855 2340 855Q2357 855 2373.0 851.0Q2389 847 2404 840ZM472 927Q517 927 556.0 910.0Q595 893 624.0 863.5Q653 834 670.0 795.0Q687 756 687 711Q687 666 670.0 627.0Q653 588 624.0 558.5Q595 529 556.0 512.0Q517 495 472 495Q459 495 446.5 497.0Q434 499 422 502Q411 554 401.5 605.5Q392 657 392 711Q392 765 401.0 816.5Q410 868 421 920Q434 923 446.5 925.0Q459 927 472 927ZM1693 1510Q1693 1552 1709.5 1591.5Q1726 1631 1756 1661Q1810 1641 1856.5 1618.5Q1903 1596 1946.0 1569.0Q1989 1542 2029.5 1509.0Q2070 1476 2111 1436Q2099 1404 2078.5 1378.0Q2058 1352 2032.0 1333.0Q2006 1314 1974.5 1304.0Q1943 1294 1909 1294Q1864 1294 1825.0 1311.0Q1786 1328 1756.5 1357.5Q1727 1387 1710.0 1426.0Q1693 1465 1693 1510ZM981 1630Q1010 1610 1028.5 1578.0Q1047 1546 1047 1510Q1047 1480 1035.5 1454.0Q1024 1428 1004.5 1408.5Q985 1389 959.0 1377.5Q933 1366 903 1366Q876 1366 851.5 1375.5Q827 1385 808.0 1401.5Q789 1418 776.5 1441.0Q764 1464 761 1491Q812 1533 866.5 1568.5Q921 1604 981 1630Z" style="fill:#eba300;stroke:none" transform="scale(1,-1) translate(0,-256)" /></svg>