<?xml version="1.0" encoding="utf-8" ?>
<svg baseProfile="full" height="256" version="1.1" width="256" xmlns="http://www.w3.org/2000/svg" xmlns:ev="http://www.w3.org/2001/xml-events" xmlns:xlink="http://www.w3.org/1999/xlink"><defs /><path d="M1406 -287Q1347 -287 1293.0 -281.0Q1239 -275 1187.0 -263.0Q1135 -251 1083.5 -233.0Q1032 -215 978 -192L971 -189Q944 -174 919.0 -156.0Q894 -138 868 -121Q842 -104 815.5 -90.0Q789 -76 765 -57Q698 -6 643.5 58.0Q589 122 546.0 195.0Q503 268 472.0 347.0Q441 426 422 506Q420 512 420 515Q413 566 409.5 617.0Q406 668 406 720Q406 770 408.0 819.0Q410 868 419 917Q435 999 466.0 1080.0Q497 1161 541.0 1235.0Q585 1309 641.0 1374.5Q697 1440 763 1493Q789 1513 816.5 1529.0Q844 1545 871 1562Q896 1578 920.0 1595.0Q944 1612 970 1626Q1013 1650 1068.0 1668.5Q1123 1687 1182.0 1699.5Q1241 1712 1299.0 1718.5Q1357 1725 1406 1725Q1494 1725 1585.5 1710.5Q1677 1696 1759 1662Q1809 1642 1853.0 1609.0Q1897 1576 1942 1547Q1984 1520 2026.5 1495.5Q2069 1471 2108 1440L2111 1437Q2233 1309 2309.0 1161.5Q2385 1014 2405 837Q2408 810 2408 784Q2408 754 2407.5 724.5Q2407 695 2407 665Q2407 570 2385.0 479.5Q2363 389 2323.5 304.5Q2284 220 2229.5 143.5Q2175 67 2110 0L2106 -4Q2070 -34 2029.0 -64.5Q1988 -95 1944.0 -123.0Q1900 -151 1855.0 -176.0Q1810 -201 1768 -220Q1734 -236 1687.5 -248.5Q1641 -261 1591.0 -269.5Q1541 -278 1492.5 -282.5Q1444 -287 1406 -287Z" style="fill:#ffc83d;stroke:none" transform="scale(1,-1) translate(0,-256)" /></svg>