<?xml version="1.0" encoding="utf-8" ?>
<svg baseProfile="full" height="256" version="1.1" width="256" xmlns="http://www.w3.org/2000/svg" xmlns:ev="http://www.w3.org/2001/xml-events" xmlns:xlink="http://www.w3.org/1999/xlink"><defs /><path d="M615 635Q615 693 638.0 745.5Q661 798 700.5 837.0Q740 876 792.0 899.0Q844 922 903 922Q962 922 1014.5 899.5Q1067 877 1106.0 838.0Q1145 799 1167.5 746.5Q1190 694 1190 635Q1190 575 1167.5 522.5Q1145 470 1106.0 431.0Q1067 392 1015.0 369.5Q963 347 903 347Q843 347 790.5 369.5Q738 392 699.0 431.0Q660 470 637.5 522.5Q615 575 615 635Z" style="fill:#ef6950;stroke:none" transform="scale(1,-1) translate(0,-256)" /></svg>