<?xml version="1.0" encoding="utf-8" ?>
<svg baseProfile="full" height="256" version="1.1" width="256" xmlns="http://www.w3.org/2000/svg" xmlns:ev="http://www.w3.org/2001/xml-events" xmlns:xlink="http://www.w3.org/1999/xlink"><defs /><path d="M1190 -431Q1061 -431 942.0 -397.5Q823 -364 719.0 -303.0Q615 -242 530.0 -157.0Q445 -72 384.0 32.0Q323 136 289.5 255.0Q256 374 256 503Q256 623 285.5 736.5Q315 850 370.5 951.5Q426 1053 506.0 1139.0Q586 1225 687 1290V1438H1131L1406 1713L1681 1438H2125V1290Q2226 1225 2306.0 1139.0Q2386 1053 2441.5 951.5Q2497 850 2526.5 736.5Q2556 623 2556 503Q2556 374 2522.5 255.0Q2489 136 2428.0 32.0Q2367 -72 2282.0 -157.0Q2197 -242 2093.0 -303.0Q1989 -364 1870.0 -397.5Q1751 -431 1622 -431Z" style="fill:#000000;stroke:none" transform="scale(1,-1) translate(0,-256)" /></svg>