<?xml version="1.0" encoding="utf-8" ?>
<svg baseProfile="full" height="256" version="1.1" width="256" xmlns="http://www.w3.org/2000/svg" xmlns:ev="http://www.w3.org/2001/xml-events" xmlns:xlink="http://www.w3.org/1999/xlink"><defs /><path d="M1981 1294Q1981 1261 1970.5 1229.5Q1960 1198 1941.5 1171.5Q1923 1145 1897.0 1124.5Q1871 1104 1840 1092Q1869 1062 1884.5 1023.5Q1900 985 1900 943Q1900 900 1883.5 860.5Q1867 821 1837 791L1622 1006L1406 791L1190 1006L975 791Q945 821 928.5 860.5Q912 900 912 943Q912 985 927.5 1023.5Q943 1062 972 1092Q941 1104 915.0 1124.5Q889 1145 870.5 1171.5Q852 1198 841.5 1229.5Q831 1261 831 1294H1118L1154 1264Q1220 1323 1281.5 1385.0Q1343 1447 1406 1510Q1469 1447 1530.5 1385.5Q1592 1324 1656 1264L1693 1294Z" style="fill:#107c10;stroke:none" transform="scale(1,-1) translate(0,-256)" /></svg>