<?xml version="1.0" encoding="utf-8" ?>
<svg baseProfile="full" height="256" version="1.1" width="256" xmlns="http://www.w3.org/2000/svg" xmlns:ev="http://www.w3.org/2001/xml-events" xmlns:xlink="http://www.w3.org/1999/xlink"><defs /><path d="M1118 1150Q1141 1150 1160.0 1136.5Q1179 1123 1187 1101Q1192 1087 1204.5 1050.0Q1217 1013 1233.5 965.0Q1250 917 1267.5 864.5Q1285 812 1300.0 766.0Q1315 720 1324.5 687.0Q1334 654 1334 646Q1334 617 1312.5 596.0Q1291 575 1262 575Q1239 575 1220.5 588.5Q1202 602 1194 624L1118 851V0Q1118 -29 1097.0 -50.5Q1076 -72 1047 -72Q1017 -72 996.0 -51.0Q975 -30 975 0V467Q975 482 964.5 492.5Q954 503 939 503Q924 503 913.5 492.5Q903 482 903 467V0Q903 -30 882.0 -51.0Q861 -72 831 -72Q801 -72 780.0 -51.0Q759 -30 759 0V851L684 624Q676 602 657.5 588.5Q639 575 616 575Q586 575 565.0 596.5Q544 618 544 648Q544 656 553.5 688.5Q563 721 577.5 766.5Q592 812 609.5 864.5Q627 917 643.0 965.0Q659 1013 672.0 1049.5Q685 1086 691 1101Q699 1123 717.5 1136.5Q736 1150 759 1150ZM939 1222Q909 1222 882.5 1233.0Q856 1244 836.5 1263.5Q817 1283 806.0 1309.5Q795 1336 795 1366Q795 1396 806.5 1422.0Q818 1448 837.5 1467.5Q857 1487 883.0 1498.5Q909 1510 939 1510Q969 1510 995.0 1498.5Q1021 1487 1040.5 1467.5Q1060 1448 1071.5 1422.0Q1083 1396 1083 1366Q1083 1336 1071.5 1310.0Q1060 1284 1040.5 1264.5Q1021 1245 995.0 1233.5Q969 1222 939 1222ZM1873 1222Q1843 1222 1817.0 1233.5Q1791 1245 1771.5 1264.5Q1752 1284 1741.0 1310.0Q1730 1336 1730 1366Q1730 1396 1741.0 1422.0Q1752 1448 1771.5 1467.5Q1791 1487 1817.0 1498.5Q1843 1510 1873 1510Q1903 1510 1929.0 1498.5Q1955 1487 1974.5 1467.5Q1994 1448 2005.5 1422.0Q2017 1396 2017 1366Q2017 1336 2005.5 1309.5Q1994 1283 1974.5 1263.5Q1955 1244 1929.0 1233.0Q1903 1222 1873 1222ZM2053 1150Q2074 1150 2090.5 1139.5Q2107 1129 2117 1110L2333 679Q2340 665 2340 647Q2340 618 2319.0 596.5Q2298 575 2269 575Q2249 575 2231.0 586.0Q2213 597 2204 615L2053 918V719Q2053 717 2062.5 688.0Q2072 659 2086.5 615.0Q2101 571 2119.0 519.0Q2137 467 2153.0 419.5Q2169 372 2181.0 336.0Q2193 300 2197 288H2053V0Q2053 -30 2032.0 -51.0Q2011 -72 1981 -72Q1951 -72 1930.0 -51.0Q1909 -30 1909 0V288H1837V0Q1837 -30 1816.0 -51.0Q1795 -72 1765 -72Q1736 -72 1714.5 -50.5Q1693 -29 1693 0V288H1550Q1554 300 1566.0 336.0Q1578 372 1594.0 419.5Q1610 467 1627.5 519.0Q1645 571 1659.5 615.0Q1674 659 1683.5 688.0Q1693 717 1693 719V918L1542 615Q1533 596 1516.0 585.5Q1499 575 1478 575Q1449 575 1427.5 596.5Q1406 618 1406 647Q1406 663 1414 679L1629 1110Q1638 1129 1655.0 1139.5Q1672 1150 1693 1150Z" style="fill:#ffffff;stroke:none" transform="scale(1,-1) translate(0,-256)" /></svg>