<?xml version="1.0" encoding="utf-8" ?>
<svg baseProfile="full" height="256" version="1.1" width="256" xmlns="http://www.w3.org/2000/svg" xmlns:ev="http://www.w3.org/2001/xml-events" xmlns:xlink="http://www.w3.org/1999/xlink"><defs /><path d="M687 719Q687 828 715.0 929.0Q743 1030 794.5 1118.0Q846 1206 918.5 1278.5Q991 1351 1079.0 1402.5Q1167 1454 1268.0 1482.0Q1369 1510 1478 1510Q1587 1510 1688.0 1481.5Q1789 1453 1876.5 1401.5Q1964 1350 2036.5 1278.0Q2109 1206 2160.5 1118.0Q2212 1030 2240.0 929.0Q2268 828 2268 719Q2268 610 2240.0 509.0Q2212 408 2160.5 320.0Q2109 232 2036.5 160.0Q1964 88 1876.5 36.5Q1789 -15 1688.0 -43.5Q1587 -72 1478 -72Q1369 -72 1268.0 -44.0Q1167 -16 1079.0 35.5Q991 87 918.5 159.5Q846 232 794.5 320.0Q743 408 715.0 509.0Q687 610 687 719Z" style="fill:#fce100;stroke:none" transform="scale(1,-1) translate(0,-256)" /></svg>