<?xml version="1.0" encoding="utf-8" ?>
<svg baseProfile="full" height="256" version="1.1" width="256" xmlns="http://www.w3.org/2000/svg" xmlns:ev="http://www.w3.org/2001/xml-events" xmlns:xlink="http://www.w3.org/1999/xlink"><defs /><path d="M1671 623 2120 398Q2068 294 1985.5 211.5Q1903 129 1799 77L1574 526Q1528 503 1478 503Q1433 503 1394.0 520.0Q1355 537 1325.5 566.5Q1296 596 1279.0 635.0Q1262 674 1262 719Q1262 779 1292.5 829.5Q1323 880 1375 908L1134 1350Q1174 1372 1216.5 1388.5Q1259 1405 1304 1416L1426 928Q1439 931 1452.0 933.0Q1465 935 1478 935Q1523 935 1562.0 918.0Q1601 901 1630.0 871.5Q1659 842 1676.0 803.0Q1693 764 1693 719Q1693 670 1671 623Z" style="fill:#c19c00;stroke:none" transform="scale(1,-1) translate(0,-256)" /></svg>