<?xml version="1.0" encoding="utf-8" ?>
<svg baseProfile="full" height="256" version="1.1" width="256" xmlns="http://www.w3.org/2000/svg" xmlns:ev="http://www.w3.org/2001/xml-events" xmlns:xlink="http://www.w3.org/1999/xlink"><defs /><path d="M835 1040 1478 719 1652 21Q1609 11 1566.0 5.5Q1523 0 1478 0Q1379 0 1287.0 25.5Q1195 51 1115.0 98.0Q1035 145 969.5 210.5Q904 276 857.0 356.0Q810 436 784.5 528.0Q759 620 759 719Q759 803 778.0 884.0Q797 965 835 1040ZM1478 1438Q1577 1438 1669.0 1412.5Q1761 1387 1841.0 1340.0Q1921 1293 1986.5 1227.5Q2052 1162 2099.0 1082.0Q2146 1002 2171.5 910.0Q2197 818 2197 719Q2197 635 2177.5 553.5Q2158 472 2121 397H1812L1490 727L1281 1202L1303 1416Q1387 1438 1478 1438Z" style="fill:#dfbe00;stroke:none" transform="scale(1,-1) translate(0,-256)" /></svg>