<?xml version="1.0" encoding="utf-8" ?>
<svg baseProfile="full" height="256" version="1.1" width="256" xmlns="http://www.w3.org/2000/svg" xmlns:ev="http://www.w3.org/2001/xml-events" xmlns:xlink="http://www.w3.org/1999/xlink"><defs /><path d="M256 1006H2556V431H256ZM1406 1087Q1334 1087 1270.0 1114.5Q1206 1142 1158.5 1190.0Q1111 1238 1083.5 1302.0Q1056 1366 1056 1438Q1056 1510 1083.5 1574.0Q1111 1638 1158.5 1685.5Q1206 1733 1270.0 1760.5Q1334 1788 1406 1788Q1478 1788 1542.0 1760.5Q1606 1733 1653.5 1685.5Q1701 1638 1728.5 1574.0Q1756 1510 1756 1438Q1756 1366 1728.5 1302.0Q1701 1238 1653.5 1190.0Q1606 1142 1542.0 1114.5Q1478 1087 1406 1087ZM1406 351Q1478 351 1542.0 323.5Q1606 296 1653.5 248.0Q1701 200 1728.5 136.0Q1756 72 1756 0Q1756 -72 1728.5 -136.0Q1701 -200 1653.5 -247.5Q1606 -295 1542.0 -322.5Q1478 -350 1406 -350Q1334 -350 1270.0 -322.5Q1206 -295 1158.5 -247.5Q1111 -200 1083.5 -136.0Q1056 -72 1056 0Q1056 72 1083.5 136.0Q1111 200 1158.5 248.0Q1206 296 1270.0 323.5Q1334 351 1406 351Z" style="fill:#000000;stroke:none" transform="scale(1,-1) translate(0,-256)" /></svg>