<?xml version="1.0" encoding="utf-8" ?>
<svg baseProfile="full" height="256" version="1.1" width="256" xmlns="http://www.w3.org/2000/svg" xmlns:ev="http://www.w3.org/2001/xml-events" xmlns:xlink="http://www.w3.org/1999/xlink"><defs /><path d="M400 575V863H2412V575ZM1406 1662Q1452 1662 1493.0 1644.5Q1534 1627 1565.0 1596.5Q1596 1566 1613.5 1525.0Q1631 1484 1631 1438Q1631 1391 1613.5 1350.5Q1596 1310 1565.0 1279.0Q1534 1248 1493.0 1230.5Q1452 1213 1406 1213Q1359 1213 1318.5 1230.5Q1278 1248 1247.0 1279.0Q1216 1310 1198.5 1350.5Q1181 1391 1181 1438Q1181 1484 1198.5 1525.0Q1216 1566 1247.0 1596.5Q1278 1627 1318.5 1644.5Q1359 1662 1406 1662ZM1406 225Q1452 225 1493.0 207.5Q1534 190 1565.0 159.0Q1596 128 1613.5 87.0Q1631 46 1631 0Q1631 -47 1613.5 -87.5Q1596 -128 1565.0 -158.5Q1534 -189 1493.0 -206.5Q1452 -224 1406 -224Q1359 -224 1318.5 -206.5Q1278 -189 1247.0 -158.5Q1216 -128 1198.5 -87.5Q1181 -47 1181 0Q1181 46 1198.5 87.0Q1216 128 1247.0 159.0Q1278 190 1318.5 207.5Q1359 225 1406 225Z" style="fill:#a6a6a6;stroke:none" transform="scale(1,-1) translate(0,-256)" /></svg>