<?xml version="1.0" encoding="utf-8" ?>
<svg baseProfile="full" height="256" version="1.1" width="256" xmlns="http://www.w3.org/2000/svg" xmlns:ev="http://www.w3.org/2001/xml-events" xmlns:xlink="http://www.w3.org/1999/xlink"><defs /><path d="M2335 574Q2341 575 2347.5 575.5Q2354 576 2360 576Q2400 576 2435.5 560.0Q2471 544 2498.0 517.0Q2525 490 2540.5 454.0Q2556 418 2556 378V306Q2556 241 2534.5 181.5Q2513 122 2474.5 73.5Q2436 25 2383.5 -10.0Q2331 -45 2268 -61V-177L2142 -431H1334V-215Q1334 -181 1345.0 -149.5Q1356 -118 1375.0 -91.5Q1394 -65 1420.5 -44.5Q1447 -24 1478 -12V72H1357L1141 -431H687V-215Q687 -181 698.0 -149.5Q709 -118 728.0 -91.5Q747 -65 773.5 -44.5Q800 -24 831 -12V228L700 360H508Q456 360 410.0 379.5Q364 399 330.0 433.0Q296 467 276.0 513.0Q256 559 256 611V779L442 964Q492 1013 556.0 1045.5Q620 1078 691 1078Q726 1113 771.5 1131.5Q817 1150 867 1150Q917 1150 962.5 1131.5Q1008 1113 1043 1078H1118Q1203 1078 1278.5 1040.0Q1354 1002 1405 935H1909Q1988 935 2059.5 907.5Q2131 880 2188.0 832.0Q2245 784 2283.5 718.0Q2322 652 2335 574Z" style="fill:#000000;stroke:none" transform="scale(1,-1) translate(0,-256)" /></svg>