<?xml version="1.0" encoding="utf-8" ?>
<svg baseProfile="full" height="256" version="1.1" width="256" xmlns="http://www.w3.org/2000/svg" xmlns:ev="http://www.w3.org/2001/xml-events" xmlns:xlink="http://www.w3.org/1999/xlink"><defs /><path d="M1765 360 1829 216H1262V360ZM400 647Q402 647 403 648L411 652Q424 659 443.5 669.5Q463 680 482.5 689.5Q502 699 518.5 706.0Q535 713 542 713Q544 713 551.5 709.5Q559 706 561 705Q586 691 600.5 665.5Q615 640 615 611Q615 589 606.5 569.5Q598 550 583.5 535.0Q569 520 549.5 511.5Q530 503 508 503Q486 503 466.5 511.5Q447 520 432.0 535.0Q417 550 408.5 569.5Q400 589 400 611ZM759 503H687L975 791V719Q975 674 958.0 635.0Q941 596 911.5 566.5Q882 537 843.0 520.0Q804 503 759 503Z" style="fill:#ffffff;stroke:none" transform="scale(1,-1) translate(0,-256)" /></svg>