<?xml version="1.0" encoding="utf-8" ?>
<svg baseProfile="full" height="256" version="1.1" width="256" xmlns="http://www.w3.org/2000/svg" xmlns:ev="http://www.w3.org/2001/xml-events" xmlns:xlink="http://www.w3.org/1999/xlink"><defs /><path d="M1654 559 2100 336Q2037 211 1939.5 114.0Q1842 17 1717 -46L1494 399Q1456 381 1416.0 370.5Q1376 360 1334 360Q1260 360 1194.5 388.0Q1129 416 1080.0 465.0Q1031 514 1003.0 579.5Q975 645 975 719Q975 768 988.0 814.5Q1001 861 1025.5 901.5Q1050 942 1085.0 975.5Q1120 1009 1163 1033L924 1471Q972 1497 1022.5 1516.5Q1073 1536 1126 1550L1247 1067Q1291 1078 1334 1078Q1408 1078 1473.5 1049.5Q1539 1021 1587.5 972.5Q1636 924 1664.5 858.5Q1693 793 1693 719Q1693 677 1682.5 637.0Q1672 597 1654 559ZM1334 431Q1394 431 1446.5 453.5Q1499 476 1538.0 515.0Q1577 554 1599.5 606.5Q1622 659 1622 719Q1622 779 1599.5 831.0Q1577 883 1538.0 922.0Q1499 961 1446.5 983.5Q1394 1006 1334 1006Q1274 1006 1222.0 983.5Q1170 961 1131.0 922.0Q1092 883 1069.5 831.0Q1047 779 1047 719Q1047 659 1069.5 606.5Q1092 554 1131.0 515.0Q1170 476 1222.0 453.5Q1274 431 1334 431Z" style="fill:#a6a6a6;stroke:none" transform="scale(1,-1) translate(0,-256)" /></svg>