<?xml version="1.0" encoding="utf-8" ?>
<svg baseProfile="full" height="256" version="1.1" width="256" xmlns="http://www.w3.org/2000/svg" xmlns:ev="http://www.w3.org/2001/xml-events" xmlns:xlink="http://www.w3.org/1999/xlink"><defs /><path d="M1414 401Q1443 271 1476.5 144.0Q1510 17 1542 -112Q1438 -138 1334 -138Q1216 -138 1106.5 -107.5Q997 -77 902.0 -21.0Q807 35 729.0 113.5Q651 192 595.0 287.0Q539 382 508.5 491.5Q478 601 478 719Q478 819 500.5 916.0Q523 1013 568 1102L1041 865Q1024 831 1015.5 794.0Q1007 757 1007 719Q1007 651 1033.0 591.5Q1059 532 1103.0 487.5Q1147 443 1206.5 417.0Q1266 391 1334 391Q1377 391 1414 401ZM1334 1575Q1452 1575 1561.5 1544.5Q1671 1514 1766.0 1458.0Q1861 1402 1939.5 1324.0Q2018 1246 2074.0 1151.0Q2130 1056 2160.5 946.5Q2191 837 2191 719Q2191 619 2168.0 522.0Q2145 425 2100 336L1681 177L1505 439Q1580 488 1621.0 558.0Q1662 628 1662 719Q1662 786 1636.0 846.0Q1610 906 1565.5 950.0Q1521 994 1461.0 1020.0Q1401 1046 1334 1046Q1302 1046 1269.5 1040.0Q1237 1034 1207 1021L1039 1449L1126 1550Q1177 1563 1229.0 1569.0Q1281 1575 1334 1575Z" style="fill:#cccccc;stroke:none" transform="scale(1,-1) translate(0,-256)" /></svg>