<?xml version="1.0" encoding="utf-8" ?>
<svg baseProfile="full" height="256" version="1.1" width="256" xmlns="http://www.w3.org/2000/svg" xmlns:ev="http://www.w3.org/2001/xml-events" xmlns:xlink="http://www.w3.org/1999/xlink"><defs /><path d="M2268 1222Q2298 1222 2324.0 1210.5Q2350 1199 2369.5 1179.5Q2389 1160 2400.5 1134.0Q2412 1108 2412 1078H400Q400 1108 411.0 1134.0Q422 1160 441.5 1179.5Q461 1199 487.0 1210.5Q513 1222 543 1222ZM2053 216Q2131 216 2197.0 177.5Q2263 139 2302 72H2412V-72H2268Q2268 -27 2251.0 12.0Q2234 51 2205.0 80.5Q2176 110 2137.0 127.0Q2098 144 2053 144Q2008 144 1969.0 127.0Q1930 110 1900.5 80.5Q1871 51 1854.0 12.0Q1837 -27 1837 -72H975Q975 -27 958.0 12.0Q941 51 911.5 80.5Q882 110 843.0 127.0Q804 144 759 144Q714 144 675.0 127.0Q636 110 606.5 80.5Q577 51 560.0 12.0Q543 -27 543 -72H400V72H510Q549 139 615.0 177.5Q681 216 759 216Q837 216 903.0 177.5Q969 139 1008 72H1804Q1843 139 1909.0 177.5Q1975 216 2053 216ZM759 0Q789 0 810.0 -21.0Q831 -42 831 -72Q831 -102 810.0 -123.0Q789 -144 759 -144Q729 -144 708.0 -123.0Q687 -102 687 -72Q687 -42 708.0 -21.0Q729 0 759 0ZM2053 0Q2083 0 2104.0 -21.0Q2125 -42 2125 -72Q2125 -102 2104.0 -123.0Q2083 -144 2053 -144Q2023 -144 2002.0 -123.0Q1981 -102 1981 -72Q1981 -42 2002.0 -21.0Q2023 0 2053 0Z" style="fill:#e5e5e5;stroke:none" transform="scale(1,-1) translate(0,-256)" /></svg>