<?xml version="1.0" encoding="utf-8" ?>
<svg baseProfile="full" height="256" version="1.1" width="256" xmlns="http://www.w3.org/2000/svg" xmlns:ev="http://www.w3.org/2001/xml-events" xmlns:xlink="http://www.w3.org/1999/xlink"><defs /><path d="M759 184Q827 184 869.5 167.0Q912 150 935.5 117.0Q959 84 967.0 36.5Q975 -11 975 -72Q975 -117 958.0 -156.0Q941 -195 911.5 -224.5Q882 -254 843.0 -271.0Q804 -288 759 -288Q714 -288 675.0 -271.0Q636 -254 606.5 -224.5Q577 -195 560.0 -156.0Q543 -117 543 -72Q543 -11 551.0 36.5Q559 84 582.5 117.0Q606 150 648.5 167.0Q691 184 759 184ZM2053 184Q2121 184 2163.0 167.0Q2205 150 2228.5 117.0Q2252 84 2260.0 36.5Q2268 -11 2268 -72Q2268 -117 2251.0 -156.0Q2234 -195 2205.0 -224.5Q2176 -254 2137.0 -271.0Q2098 -288 2053 -288Q2008 -288 1969.0 -271.0Q1930 -254 1900.5 -224.5Q1871 -195 1854.0 -156.0Q1837 -117 1837 -72Q1837 -11 1845.0 36.5Q1853 84 1876.5 117.0Q1900 150 1942.5 167.0Q1985 184 2053 184Z" style="fill:#383838;stroke:none" transform="scale(1,-1) translate(0,-256)" /></svg>