<?xml version="1.0" encoding="utf-8" ?>
<svg baseProfile="full" height="256" version="1.1" width="256" xmlns="http://www.w3.org/2000/svg" xmlns:ev="http://www.w3.org/2001/xml-events" xmlns:xlink="http://www.w3.org/1999/xlink"><defs /><path d="M2556 1078V-216H2382Q2361 -264 2327.0 -304.0Q2293 -344 2249.5 -372.5Q2206 -401 2156.0 -416.5Q2106 -432 2053 -432Q2000 -432 1950.0 -416.5Q1900 -401 1857.0 -372.5Q1814 -344 1779.5 -304.0Q1745 -264 1723 -216H1088Q1067 -264 1033.0 -304.0Q999 -344 955.5 -372.5Q912 -401 862.0 -416.5Q812 -432 759 -432Q706 -432 656.0 -416.5Q606 -401 562.5 -372.5Q519 -344 485.0 -304.0Q451 -264 430 -216H256V1078Q256 1136 279.0 1188.5Q302 1241 341.0 1280.5Q380 1320 432.0 1343.0Q484 1366 543 1366H2268Q2328 1366 2380.5 1343.5Q2433 1321 2472.0 1282.0Q2511 1243 2533.5 1190.5Q2556 1138 2556 1078Z" style="fill:#000000;stroke:none" transform="scale(1,-1) translate(0,-256)" /></svg>