<?xml version="1.0" encoding="utf-8" ?>
<svg baseProfile="full" height="256" version="1.1" width="256" xmlns="http://www.w3.org/2000/svg" xmlns:ev="http://www.w3.org/2001/xml-events" xmlns:xlink="http://www.w3.org/1999/xlink"><defs /><path d="M1693 827Q1693 798 1683.5 770.0Q1674 742 1657 719Q1506 706 1356.5 699.5Q1207 693 1055 693Q899 693 745.0 699.5Q591 706 436 719Q419 742 409.5 770.0Q400 798 400 827Q400 856 409.5 884.5Q419 913 436.5 936.0Q454 959 478.0 976.0Q502 993 531 1000Q542 1003 554.5 1003.5Q567 1004 579 1006Q695 1019 811.5 1025.5Q928 1032 1045 1032Q1163 1032 1280.0 1025.5Q1397 1019 1514 1006Q1526 1004 1538.5 1003.5Q1551 1003 1562 1000Q1590 993 1614.5 976.0Q1639 959 1656.0 935.5Q1673 912 1683.0 884.0Q1693 856 1693 827ZM1550 1114Q1550 1094 1546 1078Q1297 1042 1045 1042Q794 1042 547 1078Q543 1094 543 1114Q543 1142 552.0 1169.0Q561 1196 577.5 1219.0Q594 1242 616.5 1259.0Q639 1276 666 1285Q679 1289 699.0 1292.5Q719 1296 740.5 1298.5Q762 1301 782.5 1303.0Q803 1305 817 1307Q873 1315 929.5 1317.0Q986 1319 1043 1319Q1119 1319 1195.0 1312.0Q1271 1305 1347 1297Q1379 1293 1396.0 1291.5Q1413 1290 1427 1285Q1454 1276 1476.5 1259.0Q1499 1242 1515.5 1219.0Q1532 1196 1541.0 1169.0Q1550 1142 1550 1114ZM1406 1438Q1406 1420 1403.5 1401.5Q1401 1383 1396 1366Q1222 1330 1043 1330Q865 1330 691 1366Q687 1382 687 1402Q687 1439 701.0 1471.5Q715 1504 739.5 1528.5Q764 1553 797.0 1567.0Q830 1581 867 1581H975Q1005 1581 1031.0 1592.5Q1057 1604 1076.5 1623.5Q1096 1643 1107.0 1669.0Q1118 1695 1118 1725Q1178 1725 1230.5 1702.5Q1283 1680 1322.0 1641.0Q1361 1602 1383.5 1550.0Q1406 1498 1406 1438Z" style="fill:#ffffff;stroke:none" transform="scale(1,-1) translate(0,-256)" /></svg>