<?xml version="1.0" encoding="utf-8" ?>
<svg baseProfile="full" height="256" version="1.1" width="256" xmlns="http://www.w3.org/2000/svg" xmlns:ev="http://www.w3.org/2001/xml-events" xmlns:xlink="http://www.w3.org/1999/xlink"><defs /><path d="M436 719H1657Q1638 695 1618.0 680.5Q1598 666 1575.5 658.5Q1553 651 1528.0 649.0Q1503 647 1474 647Q1445 647 1425.5 625.0Q1406 603 1406 575V488Q1406 479 1405.0 468.5Q1404 458 1400.5 450.0Q1397 442 1389.5 436.5Q1382 431 1370 431Q1356 431 1348.5 437.5Q1341 444 1337.0 454.0Q1333 464 1332.0 475.5Q1331 487 1331 497Q1331 520 1333.0 541.5Q1335 563 1335 586Q1335 595 1334.0 605.5Q1333 616 1330.0 625.5Q1327 635 1320.0 641.0Q1313 647 1301 647Q1275 647 1268.5 630.0Q1262 613 1262 592Q1262 582 1262.5 572.5Q1263 563 1263 555Q1263 535 1257.0 519.0Q1251 503 1227 503Q1203 503 1197.0 518.0Q1191 533 1191 552V575Q1191 603 1171.5 625.0Q1152 647 1123 647H579Q537 647 499.5 667.0Q462 687 436 719ZM691 1366H1396Q1391 1347 1384.0 1329.0Q1377 1311 1366 1294H724Q712 1310 703.5 1328.0Q695 1346 691 1366ZM547 1078H1546Q1542 1058 1533.5 1040.0Q1525 1022 1513 1006H580Q556 1037 547 1078Z" style="fill:#e5e5e5;stroke:none" transform="scale(1,-1) translate(0,-256)" /></svg>