<?xml version="1.0" encoding="utf-8" ?>
<svg baseProfile="full" height="256" version="1.1" width="256" xmlns="http://www.w3.org/2000/svg" xmlns:ev="http://www.w3.org/2001/xml-events" xmlns:xlink="http://www.w3.org/1999/xlink"><defs /><path d="M877 -431Q824 -431 778.0 -414.0Q732 -397 695.0 -366.0Q658 -335 632.0 -293.0Q606 -251 595 -200Q566 -67 540.5 65.0Q515 197 489 331Q459 353 441.0 378.5Q423 404 414.0 432.0Q405 460 402.5 491.5Q400 523 400 558Q334 604 295.0 675.0Q256 746 256 827Q256 908 294.0 979.5Q332 1051 400 1096Q400 1186 434.0 1259.0Q468 1332 544 1383Q544 1388 543.5 1392.5Q543 1397 543 1402Q543 1469 568.5 1527.5Q594 1586 638.0 1630.0Q682 1674 741.0 1699.5Q800 1725 867 1725H975V1869H1118Q1207 1869 1285.5 1835.0Q1364 1801 1423.0 1742.5Q1482 1684 1516.0 1605.5Q1550 1527 1550 1438Q1550 1424 1549.0 1411.5Q1548 1399 1546 1385Q1624 1334 1658.5 1260.5Q1693 1187 1693 1096Q1761 1051 1799.0 979.5Q1837 908 1837 827Q1837 746 1799.5 675.0Q1762 604 1694 559Q1694 523 1691.5 491.5Q1689 460 1680.0 432.0Q1671 404 1653.5 379.0Q1636 354 1605 331L1498 -200Q1488 -250 1462.0 -292.5Q1436 -335 1398.5 -366.0Q1361 -397 1314.0 -414.0Q1267 -431 1216 -431Z" style="fill:#000000;stroke:none" transform="scale(1,-1) translate(0,-256)" /></svg>