<?xml version="1.0" encoding="utf-8" ?>
<svg baseProfile="full" height="256" version="1.1" width="256" xmlns="http://www.w3.org/2000/svg" xmlns:ev="http://www.w3.org/2001/xml-events" xmlns:xlink="http://www.w3.org/1999/xlink"><defs /><path d="M903 -179Q903 -194 892.5 -204.5Q882 -215 867 -215Q852 -215 841.5 -204.5Q831 -194 831 -179Q831 -165 842.0 -154.5Q853 -144 867 -144Q881 -144 892.0 -154.5Q903 -165 903 -179ZM975 -36Q975 -51 964.5 -61.5Q954 -72 939 -72Q924 -72 913.5 -61.5Q903 -51 903 -36Q903 -21 913.5 -10.5Q924 0 939 0Q954 0 964.5 -10.5Q975 -21 975 -36ZM831 -36Q831 -51 820.5 -61.5Q810 -72 795 -72Q780 -72 769.5 -61.5Q759 -51 759 -36Q759 -21 769.5 -10.5Q780 0 795 0Q810 0 820.5 -10.5Q831 -21 831 -36Z" style="fill:#faec6e;stroke:none" transform="scale(1,-1) translate(0,-256)" /></svg>