<?xml version="1.0" encoding="utf-8" ?>
<svg baseProfile="full" height="256" version="1.1" width="256" xmlns="http://www.w3.org/2000/svg" xmlns:ev="http://www.w3.org/2001/xml-events" xmlns:xlink="http://www.w3.org/1999/xlink"><defs /><path d="M1981 51 2010 0H1515L1406 186L1297 0H802L831 51V360Q831 389 852.5 410.0Q874 431 903 431Q927 431 941.5 422.5Q956 414 963.5 399.5Q971 385 973.0 367.0Q975 349 975 331V300L1102 521Q1116 546 1141.5 561.0Q1167 576 1196 576Q1210 576 1224.0 572.0Q1238 568 1250 561L1406 470L1562 561Q1574 568 1588.0 572.0Q1602 576 1616 576Q1645 576 1670.5 561.0Q1696 546 1710 521L1837 300V317Q1837 337 1838.5 357.5Q1840 378 1846.5 394.5Q1853 411 1867.5 421.0Q1882 431 1909 431Q1938 431 1959.5 410.0Q1981 389 1981 360Z" style="fill:#f7894a;stroke:none" transform="scale(1,-1) translate(0,-256)" /></svg>