<?xml version="1.0" encoding="utf-8" ?>
<svg baseProfile="full" height="256" version="1.1" width="256" xmlns="http://www.w3.org/2000/svg" xmlns:ev="http://www.w3.org/2001/xml-events" xmlns:xlink="http://www.w3.org/1999/xlink"><defs /><path d="M2197 935 2282 766 2197 549V288L1909 0H2010Q2018 -15 2037.0 -45.5Q2056 -76 2075.5 -109.5Q2095 -143 2110.0 -173.0Q2125 -203 2125 -215Q2125 -245 2104.0 -266.0Q2083 -287 2053 -287H1723Q1703 -287 1687.0 -276.0Q1671 -265 1660 -248L1599 -144H1213L1152 -248Q1141 -265 1125.0 -276.0Q1109 -287 1089 -287H759Q729 -287 708.0 -266.0Q687 -245 687 -215Q687 -203 702.0 -173.0Q717 -143 736.5 -109.5Q756 -76 775.0 -45.5Q794 -15 802 0H903L615 288V530L536 737L615 935Q615 1044 643.5 1145.0Q672 1246 723.5 1333.5Q775 1421 847.0 1493.5Q919 1566 1007.0 1617.5Q1095 1669 1196.0 1697.0Q1297 1725 1406 1725Q1515 1725 1616.0 1697.0Q1717 1669 1805.0 1617.5Q1893 1566 1965.0 1493.5Q2037 1421 2088.5 1333.5Q2140 1246 2168.5 1145.0Q2197 1044 2197 935Z" style="fill:#613d30;stroke:none" transform="scale(1,-1) translate(0,-256)" /></svg>