<?xml version="1.0" encoding="utf-8" ?>
<svg baseProfile="full" height="256" version="1.1" width="256" xmlns="http://www.w3.org/2000/svg" xmlns:ev="http://www.w3.org/2001/xml-events" xmlns:xlink="http://www.w3.org/1999/xlink"><defs /><path d="M2295 1221Q2350 1216 2397.5 1191.5Q2445 1167 2480.5 1128.5Q2516 1090 2536.0 1040.0Q2556 990 2556 935V647Q2556 598 2540.0 553.0Q2524 508 2495.5 471.0Q2467 434 2427.0 407.5Q2387 381 2340 369V228L2153 41Q2168 14 2188.0 -17.5Q2208 -49 2225.5 -83.0Q2243 -117 2255.5 -150.5Q2268 -184 2268 -215Q2268 -260 2251.0 -299.0Q2234 -338 2205.0 -367.5Q2176 -397 2137.0 -414.0Q2098 -431 2053 -431H1723Q1647 -431 1598.0 -391.0Q1549 -351 1516 -287H1296Q1278 -319 1258.5 -345.5Q1239 -372 1214.0 -391.0Q1189 -410 1158.5 -420.5Q1128 -431 1089 -431H759Q714 -431 675.0 -414.0Q636 -397 606.5 -367.5Q577 -338 560.0 -299.0Q543 -260 543 -215Q543 -185 555.5 -151.0Q568 -117 586.0 -83.0Q604 -49 624.0 -17.0Q644 15 659 41L472 228V369Q425 381 385.0 407.5Q345 434 316.5 471.0Q288 508 272.0 553.0Q256 598 256 647V935Q256 990 276.0 1040.0Q296 1090 331.5 1128.5Q367 1167 414.5 1191.5Q462 1216 517 1221Q563 1366 650.5 1485.0Q738 1604 855.5 1689.5Q973 1775 1113.5 1822.0Q1254 1869 1406 1869Q1557 1869 1697.5 1822.0Q1838 1775 1955.5 1689.5Q2073 1604 2161.0 1484.5Q2249 1365 2295 1221Z" style="fill:#000000;stroke:none" transform="scale(1,-1) translate(0,-256)" /></svg>