<?xml version="1.0" encoding="utf-8" ?>
<svg baseProfile="full" height="256" version="1.1" width="256" xmlns="http://www.w3.org/2000/svg" xmlns:ev="http://www.w3.org/2001/xml-events" xmlns:xlink="http://www.w3.org/1999/xlink"><defs /><path d="M1083 1006Q1105 1006 1124.5 997.5Q1144 989 1158.5 974.5Q1173 960 1181.5 940.5Q1190 921 1190 899V755Q1190 733 1181.5 713.5Q1173 694 1159.0 679.0Q1145 664 1125.0 655.5Q1105 647 1083 647Q1060 647 1040.5 655.5Q1021 664 1006.5 678.5Q992 693 983.5 712.5Q975 732 975 755V899Q975 921 983.5 941.0Q992 961 1007.0 975.0Q1022 989 1041.5 997.5Q1061 1006 1083 1006ZM1729 1006Q1751 1006 1770.5 997.5Q1790 989 1805.0 975.0Q1820 961 1828.5 941.0Q1837 921 1837 899V755Q1837 732 1828.5 712.5Q1820 693 1805.5 678.5Q1791 664 1771.0 655.5Q1751 647 1729 647Q1706 647 1686.5 655.5Q1667 664 1653.0 679.0Q1639 694 1630.5 713.5Q1622 733 1622 755V899Q1622 921 1630.5 940.5Q1639 960 1653.5 974.5Q1668 989 1687.5 997.5Q1707 1006 1729 1006Z" style="fill:#000000;stroke:none" transform="scale(1,-1) translate(0,-256)" /></svg>