<?xml version="1.0" encoding="utf-8" ?>
<svg baseProfile="full" height="256" version="1.1" width="256" xmlns="http://www.w3.org/2000/svg" xmlns:ev="http://www.w3.org/2001/xml-events" xmlns:xlink="http://www.w3.org/1999/xlink"><defs /><path d="M687 1725Q745 1725 797.5 1702.0Q850 1679 889.5 1640.0Q929 1601 952.0 1548.5Q975 1496 975 1438V216H903V1438Q903 1483 886.0 1522.0Q869 1561 839.5 1590.0Q810 1619 771.0 1636.0Q732 1653 687 1653Q642 1653 603.0 1636.0Q564 1619 535.0 1590.0Q506 1561 489.0 1522.0Q472 1483 472 1438V-72Q472 -102 483.0 -128.0Q494 -154 513.5 -173.5Q533 -193 559.0 -204.0Q585 -215 615 -215Q645 -215 671.0 -204.0Q697 -193 716.5 -173.5Q736 -154 747.5 -128.0Q759 -102 759 -72V1078Q759 1108 738.0 1129.0Q717 1150 687 1150Q658 1150 636.5 1128.5Q615 1107 615 1078V216H543V1078Q543 1108 554.5 1134.0Q566 1160 585.5 1179.5Q605 1199 631.0 1210.5Q657 1222 687 1222Q717 1222 743.0 1210.5Q769 1199 788.5 1179.5Q808 1160 819.5 1134.0Q831 1108 831 1078V-72Q831 -116 814.0 -155.5Q797 -195 767.5 -224.0Q738 -253 698.5 -270.0Q659 -287 615 -287Q570 -287 531.0 -270.0Q492 -253 463.0 -224.0Q434 -195 417.0 -156.0Q400 -117 400 -72V1438Q400 1497 422.5 1549.5Q445 1602 484.0 1641.0Q523 1680 575.5 1702.5Q628 1725 687 1725Z" style="fill:#cccccc;stroke:none" transform="scale(1,-1) translate(0,-256)" /></svg>