<?xml version="1.0" encoding="utf-8" ?>
<svg baseProfile="full" height="256" version="1.1" width="256" xmlns="http://www.w3.org/2000/svg" xmlns:ev="http://www.w3.org/2001/xml-events" xmlns:xlink="http://www.w3.org/1999/xlink"><defs /><path d="M687 1869Q777 1869 855.5 1835.5Q934 1802 992.5 1743.5Q1051 1685 1084.5 1606.5Q1118 1528 1118 1438V72H975V-72Q975 -146 946.5 -211.5Q918 -277 869.0 -325.5Q820 -374 754.5 -402.5Q689 -431 615 -431Q540 -431 475.0 -403.0Q410 -375 361.0 -326.0Q312 -277 284.0 -212.0Q256 -147 256 -72V1438Q256 1527 290.0 1605.5Q324 1684 382.5 1742.5Q441 1801 519.5 1835.0Q598 1869 687 1869Z" style="fill:#000000;stroke:none" transform="scale(1,-1) translate(0,-256)" /></svg>