<?xml version="1.0" encoding="utf-8" ?>
<svg baseProfile="full" height="256" version="1.1" width="256" xmlns="http://www.w3.org/2000/svg" xmlns:ev="http://www.w3.org/2001/xml-events" xmlns:xlink="http://www.w3.org/1999/xlink"><defs /><path d="M1693 1475 1406 325V72Q1369 67 1333.5 56.0Q1298 45 1262 37L1221 203L1118 152L543 1302L672 1366Q689 1332 705.0 1297.5Q721 1263 740 1230Q752 1210 765.5 1192.0Q779 1174 793 1155Q825 1112 851.5 1066.0Q878 1020 904 973L909 964Q993 812 1060.5 654.5Q1128 497 1188 334L903 1475L1042 1510Q1062 1429 1080.5 1348.5Q1099 1268 1123 1188Q1131 1160 1143.5 1134.0Q1156 1108 1167 1082Q1199 1004 1225.5 922.0Q1252 840 1262 755V1438H1406V917L1554 1510ZM2197 1302 1693 295 1585 349 1550 242 1413 288 1773 1366 1909 1320 1637 503 2068 1366Z" style="fill:#ffc83d;stroke:none" transform="scale(1,-1) translate(0,-256)" /></svg>