<?xml version="1.0" encoding="utf-8" ?>
<svg baseProfile="full" height="256" version="1.1" width="256" xmlns="http://www.w3.org/2000/svg" xmlns:ev="http://www.w3.org/2001/xml-events" xmlns:xlink="http://www.w3.org/1999/xlink"><defs /><path d="M2197 935 1693 360H1118L615 935Q615 1044 643.5 1145.0Q672 1246 723.5 1333.5Q775 1421 847.0 1493.5Q919 1566 1007.0 1617.5Q1095 1669 1196.0 1697.0Q1297 1725 1406 1725Q1515 1725 1616.0 1697.0Q1717 1669 1805.0 1617.5Q1893 1566 1965.0 1493.5Q2037 1421 2088.5 1333.5Q2140 1246 2168.5 1145.0Q2197 1044 2197 935Z" style="fill:#af0d1a;stroke:none" transform="scale(1,-1) translate(0,-256)" /></svg>