<?xml version="1.0" encoding="utf-8" ?>
<svg baseProfile="full" height="256" version="1.1" width="256" xmlns="http://www.w3.org/2000/svg" xmlns:ev="http://www.w3.org/2001/xml-events" xmlns:xlink="http://www.w3.org/1999/xlink"><defs /><path d="M2461 1222Q2432 1160 2401.0 1099.5Q2370 1039 2339 978Q2340 969 2340.5 960.0Q2341 951 2341 942Q2341 923 2336 900L2120 37Q2095 -63 2071.0 -161.0Q2047 -259 2021 -359H791Q765 -259 741.0 -161.0Q717 -63 692 37L472 917L268 1120L405 1257L351 1366Q436 1409 521.0 1450.0Q606 1491 691 1536Q758 1615 839.0 1677.0Q920 1739 1011.5 1781.5Q1103 1824 1202.5 1846.5Q1302 1869 1406 1869Q1519 1869 1627.5 1842.5Q1736 1816 1833.5 1765.5Q1931 1715 2015.5 1642.5Q2100 1570 2166 1478Q2222 1449 2277.0 1421.0Q2332 1393 2389 1366L2346 1280Z" style="fill:#000000;stroke:none" transform="scale(1,-1) translate(0,-256)" /></svg>