<?xml version="1.0" encoding="utf-8" ?>
<svg baseProfile="full" height="256" version="1.1" width="256" xmlns="http://www.w3.org/2000/svg" xmlns:ev="http://www.w3.org/2001/xml-events" xmlns:xlink="http://www.w3.org/1999/xlink"><defs /><path d="M1765 1320 1461 408 1545 72 1406 37 1372 174 1342 184 1277 152 738 1230 867 1294 1310 408 1312 414 1118 1187 1258 1222 1396 668 1629 1366ZM2268 1158 1873 367 1755 426 1717 314 1581 360 1845 1150 1981 1105 1780 503 2140 1222ZM472 1120 573 1222 861 935 759 833Z" style="fill:#ffd679;stroke:none" transform="scale(1,-1) translate(0,-256)" /></svg>