<?xml version="1.0" encoding="utf-8" ?>
<svg baseProfile="full" height="256" version="1.1" width="256" xmlns="http://www.w3.org/2000/svg" xmlns:ev="http://www.w3.org/2001/xml-events" xmlns:xlink="http://www.w3.org/1999/xlink"><defs /><path d="M2278 442 2405 273Q2412 265 2412 252Q2412 237 2401.5 226.5Q2391 216 2376 216L2340 72H2125V245Q2122 231 2112.5 223.5Q2103 216 2089 216Q2083 216 2074.5 219.0Q2066 222 2062 228L1981 359L1900 228Q1896 222 1887.5 219.0Q1879 216 1873 216Q1857 216 1847.0 226.0Q1837 236 1837 252V346L1608 223Q1596 216 1586 216Q1571 216 1560.5 226.5Q1550 237 1550 252Q1550 264 1556 273L1683 442Q1672 431 1657 431Q1642 431 1632.0 442.5Q1622 454 1622 468Q1622 479 1628 488L1742 647Q1723 647 1708.0 653.5Q1693 660 1693 683Q1693 692 1706.0 712.0Q1719 732 1735.5 754.5Q1752 777 1768.0 798.0Q1784 819 1790 829Q1779 833 1772.0 842.5Q1765 852 1765 863Q1765 869 1767.5 874.0Q1770 879 1773 884L1952 1134Q1963 1150 1981 1150Q1999 1150 2010 1134L2189 884Q2192 880 2194.5 874.0Q2197 868 2197 863Q2197 852 2190.0 842.5Q2183 833 2172 829L2261 704Q2268 693 2268 683Q2268 660 2254.0 653.5Q2240 647 2220 647L2334 488Q2340 479 2340 468Q2340 453 2329.5 442.0Q2319 431 2304 431Q2296 431 2290.0 434.0Q2284 437 2278 442ZM1622 414Q1622 391 1606.5 375.5Q1591 360 1568 360Q1551 360 1535 371L1262 575V413Q1262 390 1246.5 375.0Q1231 360 1208 360Q1183 360 1168 378L1011 575L853 378Q838 360 813 360Q790 360 774.5 375.0Q759 390 759 413V575L487 371Q471 360 454 360Q431 360 415.5 375.0Q400 390 400 413Q400 432 410 445L697 822Q709 838 722.0 841.5Q735 845 751 845H771Q760 857 750.5 869.0Q741 881 741 899Q741 922 756.5 937.5Q772 953 795 953Q810 953 817.0 947.0Q824 941 835 934L1011 832L1186 934Q1197 941 1204.5 947.0Q1212 953 1227 953Q1250 953 1265.0 937.0Q1280 921 1280 898Q1280 883 1272.5 872.5Q1265 862 1255 851L1250 845H1258Q1279 845 1295.5 841.5Q1312 838 1324 822L1612 445Q1622 432 1622 414Z" style="fill:#107c10;stroke:none" transform="scale(1,-1) translate(0,-256)" /></svg>