<?xml version="1.0" encoding="utf-8" ?>
<svg baseProfile="full" height="256" version="1.1" width="256" xmlns="http://www.w3.org/2000/svg" xmlns:ev="http://www.w3.org/2001/xml-events" xmlns:xlink="http://www.w3.org/1999/xlink"><defs /><path d="M867 216Q888 216 899 196L932 130L903 72H881Q876 81 867.5 95.5Q859 110 851.0 125.5Q843 141 837.0 156.0Q831 171 831 180Q831 194 842.0 205.0Q853 216 867 216ZM2363 72H2282L2344 196Q2355 216 2376 216Q2390 216 2401.0 205.0Q2412 194 2412 180Q2412 171 2406.0 156.5Q2400 142 2392.0 126.5Q2384 111 2375.5 96.5Q2367 82 2363 72ZM1716 72H1635L1697 196Q1708 216 1729 216Q1744 216 1754.5 205.0Q1765 194 1765 179Q1765 169 1759.0 155.0Q1753 141 1745.0 125.5Q1737 110 1728.5 96.0Q1720 82 1716 72Z" style="fill:#e5e5e5;stroke:none" transform="scale(1,-1) translate(0,-256)" /></svg>