<?xml version="1.0" encoding="utf-8" ?>
<svg baseProfile="full" height="256" version="1.1" width="256" xmlns="http://www.w3.org/2000/svg" xmlns:ev="http://www.w3.org/2001/xml-events" xmlns:xlink="http://www.w3.org/1999/xlink"><defs /><path d="M2552 216H2556V-431H256V216H378L385 228Q326 251 291.0 301.0Q256 351 256 414Q256 441 263.0 464.5Q270 488 281.5 509.0Q293 530 308.0 549.5Q323 569 339 589L352 606Q328 649 328 701Q328 730 336.5 756.5Q345 783 358.5 807.0Q372 831 388.5 854.0Q405 877 421 900Q410 920 405.0 942.5Q400 965 400 988Q400 1055 440 1107L549 1249Q543 1271 543 1294Q543 1329 553.5 1356.5Q564 1384 584 1412L850 1785Q878 1824 920.5 1846.5Q963 1869 1011 1869Q1061 1869 1102.0 1846.0Q1143 1823 1172 1783L1439 1409Q1457 1383 1467.5 1354.5Q1478 1326 1478 1294Q1478 1274 1473 1249L1581 1107Q1622 1054 1622 988Q1622 962 1614 935H1637Q1647 955 1658 970L1835 1218Q1860 1253 1899.0 1273.5Q1938 1294 1981 1294Q2026 1294 2064.0 1273.0Q2102 1252 2128 1216L2306 967Q2323 944 2332.0 919.0Q2341 894 2341 866Q2341 860 2340.5 854.0Q2340 848 2339 842Q2354 823 2367.0 805.0Q2380 787 2390.0 768.5Q2400 750 2406.0 729.0Q2412 708 2412 683Q2412 659 2406 635Q2421 614 2435.0 595.5Q2449 577 2460.0 557.5Q2471 538 2477.5 516.0Q2484 494 2484 467Q2484 454 2482.0 441.5Q2480 429 2477 417Q2492 396 2506.0 378.0Q2520 360 2531.0 341.0Q2542 322 2548.5 300.0Q2555 278 2555 251Q2555 242 2553.5 233.5Q2552 225 2552 216Z" style="fill:#000000;stroke:none" transform="scale(1,-1) translate(0,-256)" /></svg>