<?xml version="1.0" encoding="utf-8" ?>
<svg baseProfile="full" height="256" version="1.1" width="256" xmlns="http://www.w3.org/2000/svg" xmlns:ev="http://www.w3.org/2001/xml-events" xmlns:xlink="http://www.w3.org/1999/xlink"><defs /><path d="M2363 72H2412V-287H400V72H880L1084 173H2145ZM525 647Q502 647 487.0 662.5Q472 678 472 701Q472 718 482 732L616 935Q602 935 589.0 937.0Q576 939 566.0 945.0Q556 951 549.5 961.0Q543 971 543 988Q543 1005 555 1020L725 1243Q708 1248 697.5 1262.5Q687 1277 687 1294Q687 1304 690.5 1311.0Q694 1318 699 1326L967 1702Q983 1725 1011 1725Q1038 1725 1054 1702L1322 1326Q1327 1318 1330.5 1311.0Q1334 1304 1334 1294Q1334 1277 1324.0 1262.5Q1314 1248 1297 1243L1466 1020Q1478 1005 1478 988Q1478 955 1455.5 945.0Q1433 935 1405 935L1540 732Q1550 717 1550 702Q1550 679 1534.5 663.0Q1519 647 1496 647Q1477 647 1463 658L1149 902L1061 681Q1055 666 1041.5 656.5Q1028 647 1011 647Q994 647 980.5 656.0Q967 665 961 681L872 902L559 658Q543 647 525 647Z" style="fill:#13a10e;stroke:none" transform="scale(1,-1) translate(0,-256)" /></svg>