<?xml version="1.0" encoding="utf-8" ?>
<svg baseProfile="full" height="256" version="1.1" width="256" xmlns="http://www.w3.org/2000/svg" xmlns:ev="http://www.w3.org/2001/xml-events" xmlns:xlink="http://www.w3.org/1999/xlink"><defs /><path d="M1981 791 2326 101 2282 72H1716L1676 92Q1666 87 1656.0 82.0Q1646 77 1635 72Q1606 72 1577.5 79.5Q1549 87 1520 93Q1455 107 1391.0 122.5Q1327 138 1262 152V791ZM615 72Q647 45 667.0 8.0Q687 -29 687 -72Q687 -101 665.5 -122.5Q644 -144 615 -144Q586 -144 564.5 -122.5Q543 -101 543 -72Q543 -29 563.0 8.0Q583 45 615 72Z" style="fill:#ffb900;stroke:none" transform="scale(1,-1) translate(0,-256)" /></svg>