<?xml version="1.0" encoding="utf-8" ?>
<svg baseProfile="full" height="256" version="1.1" width="256" xmlns="http://www.w3.org/2000/svg" xmlns:ev="http://www.w3.org/2001/xml-events" xmlns:xlink="http://www.w3.org/1999/xlink"><defs /><path d="M508 -144Q522 -144 532.5 -154.5Q543 -165 543 -179Q543 -193 532.5 -204.0Q522 -215 508 -215Q493 -215 482.5 -204.5Q472 -194 472 -179Q472 -165 483.0 -154.5Q494 -144 508 -144ZM723 -144Q737 -144 748.0 -154.5Q759 -165 759 -179Q759 -194 748.5 -204.5Q738 -215 723 -215Q708 -215 697.5 -204.5Q687 -194 687 -179Q687 -165 698.0 -154.5Q709 -144 723 -144Z" style="fill:#f7d7c4;stroke:none" transform="scale(1,-1) translate(0,-256)" /></svg>