<?xml version="1.0" encoding="utf-8" ?>
<svg baseProfile="full" height="256" version="1.1" width="256" xmlns="http://www.w3.org/2000/svg" xmlns:ev="http://www.w3.org/2001/xml-events" xmlns:xlink="http://www.w3.org/1999/xlink"><defs /><path d="M1190 1294Q1220 1294 1241.0 1273.0Q1262 1252 1262 1222Q1262 1192 1241.0 1171.0Q1220 1150 1190 1150Q1126 1150 1076.5 1138.5Q1027 1127 983.5 1105.0Q940 1083 899.5 1051.5Q859 1020 813 980Q799 968 788.5 961.5Q778 955 759 955Q729 955 708.0 976.0Q687 997 687 1027Q687 1041 692.0 1052.5Q697 1064 705 1075Q742 1126 799.5 1166.5Q857 1207 923.0 1235.5Q989 1264 1058.5 1279.0Q1128 1294 1190 1294ZM1622 1294Q1685 1294 1754.0 1279.0Q1823 1264 1889.0 1236.0Q1955 1208 2012.0 1167.0Q2069 1126 2107 1075Q2115 1064 2120.0 1053.0Q2125 1042 2125 1028Q2125 998 2104.0 976.5Q2083 955 2053 955Q2034 955 2023.5 961.5Q2013 968 1999 980Q1953 1020 1912.5 1051.5Q1872 1083 1828.5 1105.0Q1785 1127 1735.5 1138.5Q1686 1150 1622 1150Q1592 1150 1571.0 1171.0Q1550 1192 1550 1222Q1550 1252 1571.0 1273.0Q1592 1294 1622 1294Z" style="fill:#d48c00;stroke:none" transform="scale(1,-1) translate(0,-256)" /></svg>