<?xml version="1.0" encoding="utf-8" ?>
<svg baseProfile="full" height="256" version="1.1" width="256" xmlns="http://www.w3.org/2000/svg" xmlns:ev="http://www.w3.org/2001/xml-events" xmlns:xlink="http://www.w3.org/1999/xlink"><defs /><path d="M1011 863Q1033 863 1052.5 854.5Q1072 846 1087.0 831.0Q1102 816 1110.5 796.5Q1119 777 1119 755V611Q1119 589 1110.5 569.5Q1102 550 1087.0 535.0Q1072 520 1052.5 511.5Q1033 503 1011 503Q989 503 969.5 511.5Q950 520 935.0 535.0Q920 550 911.5 569.5Q903 589 903 611V755Q903 777 911.5 796.5Q920 816 935.0 831.0Q950 846 969.5 854.5Q989 863 1011 863ZM1801 863Q1823 863 1842.5 854.5Q1862 846 1877.0 831.0Q1892 816 1900.5 796.5Q1909 777 1909 755V611Q1909 589 1900.5 569.5Q1892 550 1877.0 535.0Q1862 520 1842.5 511.5Q1823 503 1801 503Q1779 503 1759.5 511.5Q1740 520 1725.5 535.0Q1711 550 1702.5 569.5Q1694 589 1694 611V755Q1694 777 1702.5 796.5Q1711 816 1725.5 831.0Q1740 846 1759.5 854.5Q1779 863 1801 863ZM1406 431Q1451 431 1490.0 414.0Q1529 397 1558.5 368.0Q1588 339 1605.0 300.0Q1622 261 1622 216Q1622 171 1605.0 132.0Q1588 93 1558.5 63.5Q1529 34 1490.0 17.0Q1451 0 1406 0Q1361 0 1322.0 17.0Q1283 34 1253.5 63.5Q1224 93 1207.0 132.0Q1190 171 1190 216Q1190 261 1207.0 300.0Q1224 339 1253.5 368.0Q1283 397 1322.0 414.0Q1361 431 1406 431Z" style="fill:#000000;stroke:none" transform="scale(1,-1) translate(0,-256)" /></svg>