<?xml version="1.0" encoding="utf-8" ?>
<svg baseProfile="full" height="256" version="1.1" width="256" xmlns="http://www.w3.org/2000/svg" xmlns:ev="http://www.w3.org/2001/xml-events" xmlns:xlink="http://www.w3.org/1999/xlink"><defs /><path d="M651 863Q666 863 676.5 852.5Q687 842 687 827V683Q687 668 676.5 657.5Q666 647 651 647Q636 647 625.5 657.5Q615 668 615 683V827Q615 842 625.5 852.5Q636 863 651 863ZM1837 899V755Q1837 740 1826.5 729.5Q1816 719 1801 719Q1786 719 1775.5 729.5Q1765 740 1765 755V899Q1765 914 1775.5 924.5Q1786 935 1801 935Q1816 935 1826.5 924.5Q1837 914 1837 899ZM1298 719Q1313 719 1323.5 708.5Q1334 698 1334 683V539Q1334 524 1323.5 513.5Q1313 503 1298 503Q1283 503 1272.5 513.5Q1262 524 1262 539V683Q1262 698 1272.5 708.5Q1283 719 1298 719ZM867 503Q852 503 841.5 513.5Q831 524 831 539V683Q831 698 841.5 708.5Q852 719 867 719Q882 719 892.5 708.5Q903 698 903 683V539Q903 524 892.5 513.5Q882 503 867 503ZM1298 288Q1313 288 1323.5 277.5Q1334 267 1334 252V108Q1334 93 1323.5 82.5Q1313 72 1298 72Q1283 72 1272.5 82.5Q1262 93 1262 108V252Q1262 267 1272.5 277.5Q1283 288 1298 288ZM1082 1366Q1097 1366 1107.5 1355.5Q1118 1345 1118 1330V1186Q1118 1171 1107.5 1160.5Q1097 1150 1082 1150Q1068 1150 1057.0 1161.0Q1046 1172 1046 1186V1330Q1046 1344 1057.0 1355.0Q1068 1366 1082 1366ZM1082 935Q1097 935 1107.5 924.5Q1118 914 1118 899V755Q1118 740 1107.5 729.5Q1097 719 1082 719Q1068 719 1057.0 730.0Q1046 741 1046 755V899Q1046 913 1057.0 924.0Q1068 935 1082 935ZM1729 647Q1744 647 1754.5 636.5Q1765 626 1765 611V467Q1765 453 1754.0 442.0Q1743 431 1729 431Q1715 431 1704.0 442.0Q1693 453 1693 467V611Q1693 626 1703.5 636.5Q1714 647 1729 647ZM1082 72Q1097 72 1107.5 61.5Q1118 51 1118 36V-108Q1118 -122 1107.0 -133.0Q1096 -144 1082 -144Q1068 -144 1057.0 -133.0Q1046 -122 1046 -108V36Q1046 50 1057.0 61.0Q1068 72 1082 72ZM615 1114V971Q615 956 604.5 945.5Q594 935 579 935Q564 935 553.5 945.5Q543 956 543 971V1114Q543 1129 553.5 1139.5Q564 1150 579 1150Q594 1150 604.5 1139.5Q615 1129 615 1114ZM1298 1150Q1313 1150 1323.5 1139.5Q1334 1129 1334 1114V971Q1334 956 1323.5 945.5Q1313 935 1298 935Q1283 935 1272.5 945.5Q1262 956 1262 971V1114Q1262 1129 1272.5 1139.5Q1283 1150 1298 1150ZM1550 324Q1550 309 1539.5 298.5Q1529 288 1514 288Q1499 288 1488.5 298.5Q1478 309 1478 324V467Q1478 482 1488.5 492.5Q1499 503 1514 503Q1529 503 1539.5 492.5Q1550 482 1550 467ZM1298 1581Q1312 1581 1323.0 1570.5Q1334 1560 1334 1546V1402Q1334 1387 1323.5 1376.5Q1313 1366 1298 1366Q1283 1366 1272.5 1376.5Q1262 1387 1262 1402V1546Q1262 1560 1273.0 1570.5Q1284 1581 1298 1581ZM1082 503Q1097 503 1107.5 492.5Q1118 482 1118 467V324Q1118 309 1107.5 298.5Q1097 288 1082 288Q1068 288 1057.0 299.0Q1046 310 1046 324V467Q1046 481 1057.0 492.0Q1068 503 1082 503ZM1405 -108Q1405 -93 1416 -82L1488 -10Q1498 0 1513 0Q1528 0 1538.5 -10.5Q1549 -21 1549 -36Q1549 -51 1539 -61L1467 -133Q1456 -144 1441 -144Q1427 -144 1416.0 -133.0Q1405 -122 1405 -108ZM1405 755Q1405 769 1416 780L1488 852Q1498 862 1513 862Q1527 862 1538.0 851.5Q1549 841 1549 827Q1549 811 1539 801L1467 729Q1456 718 1441 718Q1426 718 1415.5 729.0Q1405 740 1405 755ZM866 1078Q882 1078 892 1068L964 996Q974 986 974 970Q974 956 963.0 945.0Q952 934 938 934Q924 934 913 945L841 1017Q830 1028 830 1042Q830 1056 841.0 1067.0Q852 1078 866 1078ZM435 934Q451 934 461 924L533 852Q543 842 543 826Q543 812 532.0 801.0Q521 790 507 790Q493 790 482 801L410 873Q399 884 399 898Q399 912 410.0 923.0Q421 934 435 934ZM866 1509Q882 1509 892 1499L964 1427Q974 1417 974 1401Q974 1387 963.0 1376.0Q952 1365 938 1365Q924 1365 913 1376L841 1448Q830 1459 830 1473Q830 1487 841.0 1498.0Q852 1509 866 1509ZM1405 1186Q1405 1200 1416 1211L1488 1283Q1498 1293 1513 1293Q1528 1293 1538.5 1283.0Q1549 1273 1549 1258Q1549 1243 1539 1233L1467 1161Q1456 1150 1441 1150Q1427 1150 1416.0 1161.0Q1405 1172 1405 1186ZM866 215Q882 215 892 205L964 133Q974 123 974 108Q974 93 963.5 82.5Q953 72 938 72Q924 72 913 83L841 155Q830 166 830 180Q830 194 841.0 204.5Q852 215 866 215ZM1945 719Q1960 719 1970.0 708.5Q1980 698 1980 683Q1980 668 1970 658L1898 586Q1887 575 1873 575Q1859 575 1848.0 586.0Q1837 597 1837 611Q1837 626 1848 637L1920 708Q1931 719 1945 719Z" style="fill:#13a10e;stroke:none" transform="scale(1,-1) translate(0,-256)" /></svg>