<?xml version="1.0" encoding="utf-8" ?>
<svg baseProfile="full" height="256" version="1.1" width="256" xmlns="http://www.w3.org/2000/svg" xmlns:ev="http://www.w3.org/2001/xml-events" xmlns:xlink="http://www.w3.org/1999/xlink"><defs /><path d="M759 -431V34Q726 66 706.5 99.0Q687 132 687 180Q687 210 696.0 238.5Q705 267 724 290L465 475Q425 504 398.5 532.5Q372 561 356.5 594.0Q341 627 334.5 665.5Q328 704 328 753Q295 785 275.5 818.0Q256 851 256 899Q256 946 274.5 980.0Q293 1014 328 1043V1150Q328 1208 351.0 1260.5Q374 1313 413.0 1352.5Q452 1392 504.0 1415.0Q556 1438 615 1438Q654 1438 693 1427Q687 1449 687 1473Q687 1533 721.5 1580.0Q756 1627 813 1645Q841 1697 881.5 1738.5Q922 1780 971.0 1809.0Q1020 1838 1075.5 1853.5Q1131 1869 1190 1869Q1279 1869 1357.5 1835.0Q1436 1801 1494.5 1742.5Q1553 1684 1587.0 1605.5Q1621 1527 1621 1438V1402Q1656 1377 1674.5 1338.5Q1693 1300 1693 1258Q1693 1233 1687 1211Q1726 1222 1765 1222Q1823 1222 1875.5 1199.0Q1928 1176 1967.5 1137.0Q2007 1098 2030.0 1045.5Q2053 993 2053 935V827Q2087 799 2105.5 763.5Q2124 728 2124 683Q2124 635 2104.5 602.0Q2085 569 2053 537Q2053 489 2046.5 450.0Q2040 411 2024.0 378.0Q2008 345 1982.0 316.0Q1956 287 1916 259L1656 74Q1675 51 1684.0 22.5Q1693 -6 1693 -36Q1693 -84 1674.0 -117.5Q1655 -151 1621 -182V-431Z" style="fill:#000000;stroke:none" transform="scale(1,-1) translate(0,-256)" /></svg>