<?xml version="1.0" encoding="utf-8" ?>
<svg baseProfile="full" height="256" version="1.1" width="256" xmlns="http://www.w3.org/2000/svg" xmlns:ev="http://www.w3.org/2001/xml-events" xmlns:xlink="http://www.w3.org/1999/xlink"><defs /><path d="M1262 647Q1292 647 1313.0 626.0Q1334 605 1334 575V360L1262 324L1190 360V575Q1190 604 1211.5 625.5Q1233 647 1262 647ZM1550 647Q1579 647 1600.5 625.5Q1622 604 1622 575V360L1550 324L1478 360V575Q1478 605 1499.0 626.0Q1520 647 1550 647ZM759 216H615V431Q615 460 636.5 481.5Q658 503 687 503Q717 503 738.0 482.0Q759 461 759 431ZM2197 216H2053V431Q2053 461 2074.0 482.0Q2095 503 2125 503Q2154 503 2175.5 481.5Q2197 460 2197 431Z" style="fill:#1f1f1f;stroke:none" transform="scale(1,-1) translate(0,-256)" /></svg>