<?xml version="1.0" encoding="utf-8" ?>
<svg baseProfile="full" height="256" version="1.1" width="256" xmlns="http://www.w3.org/2000/svg" xmlns:ev="http://www.w3.org/2001/xml-events" xmlns:xlink="http://www.w3.org/1999/xlink"><defs /><path d="M1622 -72V-287H1550Q1550 -287 1530.0 -279.5Q1510 -272 1484.5 -263.0Q1459 -254 1436.0 -246.0Q1413 -238 1406 -236Q1399 -238 1376.0 -246.0Q1353 -254 1327.5 -263.0Q1302 -272 1282.0 -279.5Q1262 -287 1262 -287H1190V-72Q1190 -27 1207.0 12.0Q1224 51 1253.5 80.5Q1283 110 1322.0 127.0Q1361 144 1406 144Q1451 144 1490.0 127.0Q1529 110 1558.5 80.5Q1588 51 1605.0 12.0Q1622 -27 1622 -72Z" style="fill:#613d30;stroke:none" transform="scale(1,-1) translate(0,-256)" /></svg>