<?xml version="1.0" encoding="utf-8" ?>
<svg baseProfile="full" height="256" version="1.1" width="256" xmlns="http://www.w3.org/2000/svg" xmlns:ev="http://www.w3.org/2001/xml-events" xmlns:xlink="http://www.w3.org/1999/xlink"><defs /><path d="M2268 144H2412V-287H1622Q1620 -287 1605.5 -282.0Q1591 -277 1569.0 -270.0Q1547 -263 1521.0 -254.0Q1495 -245 1471.5 -237.0Q1448 -229 1430.0 -223.0Q1412 -217 1406 -215Q1400 -217 1382.0 -223.0Q1364 -229 1340.5 -237.0Q1317 -245 1291.0 -254.0Q1265 -263 1243.0 -270.0Q1221 -277 1206.0 -282.0Q1191 -287 1190 -287H400V144H543V72H687V144H831V72H975V144H1047V791L1406 895L1765 791V144H1837V72H1981V144H2125V72H2268Z" style="fill:#e5e5e5;stroke:none" transform="scale(1,-1) translate(0,-256)" /></svg>