<?xml version="1.0" encoding="utf-8" ?>
<svg baseProfile="full" height="256" version="1.1" width="256" xmlns="http://www.w3.org/2000/svg" xmlns:ev="http://www.w3.org/2001/xml-events" xmlns:xlink="http://www.w3.org/1999/xlink"><defs /><path d="M903 216V144L687 96L472 144V216H615L687 253L759 216ZM2340 216V144Q2314 140 2287.0 134.0Q2260 128 2233.0 122.0Q2206 116 2179.0 112.0Q2152 108 2125 108Q2098 108 2071.0 112.0Q2044 116 2016.5 122.0Q1989 128 1962.0 134.0Q1935 140 1909 144V216H2053L2125 243L2197 216Z" style="fill:#a6a6a6;stroke:none" transform="scale(1,-1) translate(0,-256)" /></svg>