<?xml version="1.0" encoding="utf-8" ?>
<svg baseProfile="full" height="256" version="1.1" width="256" xmlns="http://www.w3.org/2000/svg" xmlns:ev="http://www.w3.org/2001/xml-events" xmlns:xlink="http://www.w3.org/1999/xlink"><defs /><path d="M975 971Q975 949 966.5 929.5Q958 910 943.0 895.0Q928 880 908.5 871.5Q889 863 867 863Q844 863 824.5 871.5Q805 880 790.5 894.5Q776 909 767.5 928.5Q759 948 759 971Q759 993 767.5 1013.0Q776 1033 791.0 1047.0Q806 1061 825.5 1069.5Q845 1078 867 1078Q889 1078 908.5 1069.5Q928 1061 943.0 1046.5Q958 1032 966.5 1012.5Q975 993 975 971ZM1765 611Q1765 589 1756.5 569.5Q1748 550 1733.5 535.0Q1719 520 1699.5 511.5Q1680 503 1658 503Q1636 503 1616.5 511.5Q1597 520 1582.0 535.0Q1567 550 1558.5 569.5Q1550 589 1550 611Q1550 633 1558.5 653.0Q1567 673 1581.5 687.5Q1596 702 1615.5 710.5Q1635 719 1658 719Q1680 719 1700.0 710.5Q1720 702 1734.0 687.0Q1748 672 1756.5 652.5Q1765 633 1765 611ZM1118 647H1184Q1190 629 1190 611Q1190 593 1184 575H1118V510Q1099 503 1083 503Q1074 503 1065.0 505.0Q1056 507 1047 510V575H981Q975 593 975 611Q975 629 981 647H1047V712Q1056 715 1065.0 717.0Q1074 719 1083 719Q1099 719 1118 712Z" style="fill:#757575;stroke:none" transform="scale(1,-1) translate(0,-256)" /></svg>