<?xml version="1.0" encoding="utf-8" ?>
<svg baseProfile="full" height="256" version="1.1" width="256" xmlns="http://www.w3.org/2000/svg" xmlns:ev="http://www.w3.org/2001/xml-events" xmlns:xlink="http://www.w3.org/1999/xlink"><defs /><path d="M2197 1303Q2238 1268 2267.0 1230.5Q2296 1193 2315 1142Q2359 1023 2395.5 902.5Q2432 782 2475 662Q2494 609 2509.0 559.5Q2524 510 2534.5 460.5Q2545 411 2550.5 359.5Q2556 308 2556 252Q2556 182 2535.0 111.5Q2514 41 2472.5 -16.0Q2431 -73 2371.0 -108.5Q2311 -144 2233 -144Q2185 -144 2143.5 -126.0Q2102 -108 2068 -74L1737 256Q1721 272 1700.5 280.0Q1680 288 1658 288H1154Q1133 288 1112.0 280.5Q1091 273 1076 258L746 -73Q712 -107 669.5 -125.5Q627 -144 579 -144Q501 -144 441.0 -108.5Q381 -73 339.5 -16.0Q298 41 277.0 111.5Q256 182 256 252Q256 309 261.5 360.0Q267 411 277.0 460.5Q287 510 302.0 559.5Q317 609 337 662Q381 781 416.5 902.0Q452 1023 497 1142Q516 1192 545.5 1230.0Q575 1268 615 1303V1379Q670 1409 720.5 1433.0Q771 1457 822.0 1474.5Q873 1492 928.0 1501.0Q983 1510 1047 1510Q1074 1510 1099.0 1503.0Q1124 1496 1148.0 1485.5Q1172 1475 1195.5 1462.5Q1219 1450 1242 1438H1570Q1593 1450 1616.5 1462.5Q1640 1475 1664.0 1485.5Q1688 1496 1713.0 1503.0Q1738 1510 1765 1510Q1828 1510 1883.0 1501.0Q1938 1492 1990.0 1474.5Q2042 1457 2092.5 1433.0Q2143 1409 2197 1379Z" style="fill:#000000;stroke:none" transform="scale(1,-1) translate(0,-256)" /></svg>