<?xml version="1.0" encoding="utf-8" ?>
<svg baseProfile="full" height="256" version="1.1" width="256" xmlns="http://www.w3.org/2000/svg" xmlns:ev="http://www.w3.org/2001/xml-events" xmlns:xlink="http://www.w3.org/1999/xlink"><defs /><path d="M2053 1222Q2072 1214 2091.5 1200.5Q2111 1187 2128.5 1170.5Q2146 1154 2159.5 1134.5Q2173 1115 2179 1096L2340 611Q2346 594 2353.0 577.5Q2360 561 2366 544Q2391 474 2401.5 400.0Q2412 326 2412 252Q2412 213 2401.0 169.0Q2390 125 2368.0 87.5Q2346 50 2312.5 25.0Q2279 0 2233 0Q2197 0 2170 27L1837 360Q1802 395 1755.0 413.0Q1708 431 1658 431H1154Q1104 431 1057.0 413.0Q1010 395 975 360L642 27Q615 0 579 0Q533 0 499.5 25.0Q466 50 444.0 87.5Q422 125 411.0 169.0Q400 213 400 252Q400 326 410.5 400.0Q421 474 446 544Q452 561 459.0 577.5Q466 594 472 611L633 1096Q639 1115 652.5 1134.5Q666 1154 683.5 1170.5Q701 1187 720.5 1200.5Q740 1214 759 1222L831 1294H1981Z" style="fill:#383838;stroke:none" transform="scale(1,-1) translate(0,-256)" /></svg>