<?xml version="1.0" encoding="utf-8" ?>
<svg baseProfile="full" height="256" version="1.1" width="256" xmlns="http://www.w3.org/2000/svg" xmlns:ev="http://www.w3.org/2001/xml-events" xmlns:xlink="http://www.w3.org/1999/xlink"><defs /><path d="M759 1222V1293Q825 1329 898.5 1347.5Q972 1366 1047 1366Q1069 1366 1090.0 1355.5Q1111 1345 1132.0 1331.5Q1153 1318 1175.0 1306.5Q1197 1295 1221 1294Q1103 1293 987.0 1275.0Q871 1257 759 1222ZM1765 1366Q1840 1366 1913.5 1347.5Q1987 1329 2053 1293V1222Q1828 1292 1590 1294Q1614 1295 1636.0 1306.5Q1658 1318 1679.0 1331.5Q1700 1345 1721.0 1355.5Q1742 1366 1765 1366Z" style="fill:#2b2b2b;stroke:none" transform="scale(1,-1) translate(0,-256)" /></svg>