<?xml version="1.0" encoding="utf-8" ?>
<svg baseProfile="full" height="256" version="1.1" width="256" xmlns="http://www.w3.org/2000/svg" xmlns:ev="http://www.w3.org/2001/xml-events" xmlns:xlink="http://www.w3.org/1999/xlink"><defs /><path d="M2125 72V0H1837Q1792 0 1753.0 17.0Q1714 34 1685.0 63.5Q1656 93 1639.0 132.0Q1622 171 1622 216Q1697 216 1768.5 235.5Q1840 255 1905 292ZM1047 791Q1021 791 994.0 801.0Q967 811 948 830L843 935H1190Q1190 905 1179.0 879.0Q1168 853 1148.5 833.5Q1129 814 1103.0 802.5Q1077 791 1047 791ZM400 791 472 863 687 647H543Q513 647 487.0 658.5Q461 670 441.5 689.5Q422 709 411.0 735.0Q400 761 400 791Z" style="fill:#ee9889;stroke:none" transform="scale(1,-1) translate(0,-256)" /></svg>