<?xml version="1.0" encoding="utf-8" ?>
<svg baseProfile="full" height="256" version="1.1" width="256" xmlns="http://www.w3.org/2000/svg" xmlns:ev="http://www.w3.org/2001/xml-events" xmlns:xlink="http://www.w3.org/1999/xlink"><defs /><path d="M1177 1150H1981Q2101 1150 2205.5 1105.0Q2310 1060 2388.0 982.0Q2466 904 2511.0 799.5Q2556 695 2556 575V-215H2412V-431H1553L1682 -108Q1624 -80 1579.0 -34.0Q1534 12 1508 72H1478V-59L1406 -131V-431H975V110Q931 134 902.0 169.0Q873 204 853 249L738 503H543Q484 503 432.0 526.0Q380 549 341.0 588.5Q302 628 279.0 680.0Q256 732 256 791V850L586 1180Q643 1237 714.0 1265.5Q785 1294 866 1294Q918 1294 959.5 1284.5Q1001 1275 1037.5 1257.0Q1074 1239 1107.5 1212.0Q1141 1185 1177 1150Z" style="fill:#000000;stroke:none" transform="scale(1,-1) translate(0,-256)" /></svg>