<?xml version="1.0" encoding="utf-8" ?>
<svg baseProfile="full" height="256" version="1.1" width="256" xmlns="http://www.w3.org/2000/svg" xmlns:ev="http://www.w3.org/2001/xml-events" xmlns:xlink="http://www.w3.org/1999/xlink"><defs /><path d="M1118 1006H1622V647Q1622 617 1610.5 591.0Q1599 565 1579.5 545.5Q1560 526 1534.0 514.5Q1508 503 1478 503H1334Q1290 503 1262.5 522.5Q1235 542 1210 575L916 968Q903 986 903 1006Q903 1030 912.0 1044.0Q921 1058 935.5 1065.5Q950 1073 968.5 1075.5Q987 1078 1007 1078H1045ZM1981 1006Q2060 1006 2131.5 979.0Q2203 952 2259.0 904.0Q2315 856 2353.5 790.5Q2392 725 2406 647H2197Q2123 647 2057.5 675.0Q1992 703 1943.0 752.0Q1894 801 1865.5 866.5Q1837 932 1837 1006Z" style="fill:#383838;stroke:none" transform="scale(1,-1) translate(0,-256)" /></svg>