<?xml version="1.0" encoding="utf-8" ?>
<svg baseProfile="full" height="256" version="1.1" width="256" xmlns="http://www.w3.org/2000/svg" xmlns:ev="http://www.w3.org/2001/xml-events" xmlns:xlink="http://www.w3.org/1999/xlink"><defs /><path d="M1837 1006 2406 647Q2412 611 2412 575V216L2340 146V503L2268 318V-287H2125V0L1622 216H1334V0L1262 -72V-287H1118V216Q1071 216 1038.0 239.0Q1005 262 986 304L831 647H687L492 734L472 863L687 1078Q724 1115 769.5 1132.5Q815 1150 866 1150Q917 1150 963.0 1132.5Q1009 1115 1045 1078L1121 874Q1224 897 1323.5 925.5Q1423 954 1524 981Q1530 982 1544.5 986.5Q1559 991 1575.0 995.0Q1591 999 1604.5 1002.5Q1618 1006 1622 1006Z" style="fill:#ffffff;stroke:none" transform="scale(1,-1) translate(0,-256)" /></svg>