<?xml version="1.0" encoding="utf-8" ?>
<svg baseProfile="full" height="256" version="1.1" width="256" xmlns="http://www.w3.org/2000/svg" xmlns:ev="http://www.w3.org/2001/xml-events" xmlns:xlink="http://www.w3.org/1999/xlink"><defs /><path d="M2340 391Q2340 366 2335.5 341.5Q2331 317 2319 295L1732 422Q1658 438 1584.5 449.5Q1511 461 1439 485Q1367 509 1300.0 544.0Q1233 579 1164 611L615 862V1123L778 1140Q783 1136 799.0 1126.0Q815 1116 836.0 1103.0Q857 1090 880.5 1075.5Q904 1061 925.0 1049.0Q946 1037 961.0 1028.0Q976 1019 981 1018L2171 627Q2228 608 2270.0 564.5Q2312 521 2329 464Q2318 451 2318 435Q2318 422 2324.0 410.5Q2330 399 2340 391Z" style="fill:#e5e5e5;stroke:none" transform="scale(1,-1) translate(0,-256)" /></svg>