<?xml version="1.0" encoding="utf-8" ?>
<svg baseProfile="full" height="256" version="1.1" width="256" xmlns="http://www.w3.org/2000/svg" xmlns:ev="http://www.w3.org/2001/xml-events" xmlns:xlink="http://www.w3.org/1999/xlink"><defs /><path d="M2017 90Q2017 52 1991.0 26.0Q1965 0 1927 0Q1889 0 1863.0 26.0Q1837 52 1837 90Q1837 128 1863.0 154.0Q1889 180 1927 180Q1965 180 1991.0 154.0Q2017 128 2017 90ZM1154 378Q1154 341 1128.0 314.5Q1102 288 1065 288Q1027 288 1001.0 314.0Q975 340 975 378Q975 415 1001.5 441.0Q1028 467 1065 467Q1102 467 1128.0 441.0Q1154 415 1154 378Z" style="fill:#cccccc;stroke:none" transform="scale(1,-1) translate(0,-256)" /></svg>