<?xml version="1.0" encoding="utf-8" ?>
<svg baseProfile="full" height="256" version="1.1" width="256" xmlns="http://www.w3.org/2000/svg" xmlns:ev="http://www.w3.org/2001/xml-events" xmlns:xlink="http://www.w3.org/1999/xlink"><defs /><path d="M1878 441 2319 295Q2304 262 2280.5 234.0Q2257 206 2227.5 186.0Q2198 166 2163.5 155.0Q2129 144 2092 144Q2072 144 2052.5 147.5Q2033 151 2014 157L1429 348Q1355 372 1281.5 392.0Q1208 412 1137 444Q1090 465 1048.5 493.5Q1007 522 963 548L615 757V862L1406 598L1438 610V1408L1478 1414L1563 1385ZM615 1123V1332L824 1279L981 1018Z" style="fill:#3a96dd;stroke:none" transform="scale(1,-1) translate(0,-256)" /></svg>