<?xml version="1.0" encoding="utf-8" ?>
<svg baseProfile="full" height="256" version="1.1" width="256" xmlns="http://www.w3.org/2000/svg" xmlns:ev="http://www.w3.org/2001/xml-events" xmlns:xlink="http://www.w3.org/1999/xlink"><defs /><path d="M1478 1438Q1478 1391 1457.5 1358.0Q1437 1325 1406 1294L890 778Q928 761 951.5 725.0Q975 689 975 647Q975 617 963.5 591.0Q952 565 932.5 545.5Q913 526 887.0 514.5Q861 503 831 503Q801 503 775.0 514.5Q749 526 729.5 545.5Q710 565 698.5 591.0Q687 617 687 647Q687 694 707.0 726.5Q727 759 759 791L975 1006V1139L1118 1150L1275 1307Q1237 1324 1213.5 1360.0Q1190 1396 1190 1438Q1190 1468 1201.5 1494.0Q1213 1520 1232.5 1539.5Q1252 1559 1278.0 1570.0Q1304 1581 1334 1581Q1364 1581 1390.0 1570.0Q1416 1559 1435.5 1539.5Q1455 1520 1466.5 1494.0Q1478 1468 1478 1438Z" style="fill:#fce100;stroke:none" transform="scale(1,-1) translate(0,-256)" /></svg>