<?xml version="1.0" encoding="utf-8" ?>
<svg baseProfile="full" height="256" version="1.1" width="256" xmlns="http://www.w3.org/2000/svg" xmlns:ev="http://www.w3.org/2001/xml-events" xmlns:xlink="http://www.w3.org/1999/xlink"><defs /><path d="M543 1869Q594 1869 639.0 1853.0Q684 1837 720.5 1808.0Q757 1779 783.5 1738.5Q810 1698 823 1649L1047 1425Q1047 1487 1068.0 1542.0Q1089 1597 1127.0 1637.5Q1165 1678 1217.5 1701.5Q1270 1725 1334 1725Q1393 1725 1445.5 1702.0Q1498 1679 1537.0 1640.0Q1576 1601 1599.0 1549.0Q1622 1497 1622 1438Q1622 1377 1601.5 1327.5Q1581 1278 1548.0 1235.5Q1515 1193 1474.5 1155.0Q1434 1117 1394 1078L2298 174Q2314 158 2325 136L2469 -151Q2484 -181 2484 -215Q2484 -245 2472.5 -271.5Q2461 -298 2441.5 -317.5Q2422 -337 2396.0 -348.0Q2370 -359 2340 -359Q2306 -359 2276 -344L1989 -200Q1967 -189 1951 -173L1118 660Q1118 598 1097.0 543.0Q1076 488 1038.0 447.5Q1000 407 947.5 383.5Q895 360 831 360Q772 360 719.5 383.0Q667 406 628.0 445.0Q589 484 566.0 536.0Q543 588 543 647Q543 708 564.0 757.0Q585 806 618.0 848.5Q651 891 691.5 929.0Q732 967 771 1006L476 1302Q428 1315 387.5 1341.0Q347 1367 317.5 1403.5Q288 1440 272.0 1485.0Q256 1530 256 1581Q256 1640 279.0 1692.5Q302 1745 341.0 1784.0Q380 1823 432.0 1846.0Q484 1869 543 1869Z" style="fill:#000000;stroke:none" transform="scale(1,-1) translate(0,-256)" /></svg>