<?xml version="1.0" encoding="utf-8" ?>
<svg baseProfile="full" height="256" version="1.1" width="256" xmlns="http://www.w3.org/2000/svg" xmlns:ev="http://www.w3.org/2001/xml-events" xmlns:xlink="http://www.w3.org/1999/xlink"><defs /><path d="M400 1581Q400 1611 411.0 1637.0Q422 1663 441.5 1682.5Q461 1702 487.0 1713.5Q513 1725 543 1725Q573 1725 599.0 1713.5Q625 1702 644.5 1682.5Q664 1663 675.5 1637.0Q687 1611 687 1581Q687 1551 675.5 1525.0Q664 1499 644.5 1479.5Q625 1460 599.0 1449.0Q573 1438 543 1438Q513 1438 487.0 1449.0Q461 1460 441.5 1479.5Q422 1499 411.0 1525.0Q400 1551 400 1581Z" style="fill:#dfbe00;stroke:none" transform="scale(1,-1) translate(0,-256)" /></svg>