<?xml version="1.0" encoding="utf-8" ?>
<svg baseProfile="full" height="256" version="1.1" width="256" xmlns="http://www.w3.org/2000/svg" xmlns:ev="http://www.w3.org/2001/xml-events" xmlns:xlink="http://www.w3.org/1999/xlink"><defs /><path d="M1550 216Q1595 216 1634.0 199.0Q1673 182 1702.0 152.5Q1731 123 1748.0 84.0Q1765 45 1765 0Q1765 -45 1748.0 -84.0Q1731 -123 1702.0 -152.0Q1673 -181 1634.0 -198.0Q1595 -215 1550 -215H434Q420 -215 410.0 -204.0Q400 -193 400 -179Q400 -165 410.0 -154.5Q420 -144 434 -144H1389Q1363 -114 1348.5 -77.0Q1334 -40 1334 0Q1334 45 1351.0 84.0Q1368 123 1397.5 152.5Q1427 182 1466.0 199.0Q1505 216 1550 216ZM1550 -144Q1580 -144 1606.0 -132.5Q1632 -121 1651.5 -101.5Q1671 -82 1682.0 -56.0Q1693 -30 1693 0Q1693 30 1682.0 56.0Q1671 82 1651.5 101.5Q1632 121 1606.0 132.5Q1580 144 1550 144Q1520 144 1493.5 132.5Q1467 121 1447.5 101.5Q1428 82 1417.0 56.0Q1406 30 1406 0Q1406 -30 1417.5 -56.0Q1429 -82 1448.5 -101.5Q1468 -121 1494.0 -132.5Q1520 -144 1550 -144Z" style="fill:#757575;stroke:none" transform="scale(1,-1) translate(0,-256)" /></svg>