<?xml version="1.0" encoding="utf-8" ?>
<svg baseProfile="full" height="256" version="1.1" width="256" xmlns="http://www.w3.org/2000/svg" xmlns:ev="http://www.w3.org/2001/xml-events" xmlns:xlink="http://www.w3.org/1999/xlink"><defs /><path d="M1909 0Q1909 -60 1890.0 -115.0Q1871 -170 1837.0 -215.5Q1803 -261 1755.0 -294.5Q1707 -328 1650 -345Q1620 -387 1574.5 -409.0Q1529 -431 1478 -431H472Q427 -431 387.5 -414.0Q348 -397 319.0 -368.0Q290 -339 273.0 -299.5Q256 -260 256 -215Q256 -170 273.0 -131.0Q290 -92 319.5 -63.0Q349 -34 388.0 -17.0Q427 0 472 0H550Q558 23 575.0 40.5Q592 58 615 66V918Q581 948 562.0 990.5Q543 1033 543 1078Q543 1114 554.5 1147.0Q566 1180 587.0 1207.5Q608 1235 636.5 1255.0Q665 1275 700 1285Q695 1305 691.0 1325.5Q687 1346 687 1366Q687 1486 739.5 1587.5Q792 1689 883 1764L975 1840L1066 1764Q1157 1688 1209.5 1587.0Q1262 1486 1262 1366Q1262 1345 1258.5 1325.0Q1255 1305 1249 1285Q1283 1275 1312.0 1255.0Q1341 1235 1362.0 1207.5Q1383 1180 1394.5 1147.0Q1406 1114 1406 1078V340Q1406 333 1404 329Q1439 345 1475.5 352.5Q1512 360 1550 360Q1624 360 1689.5 331.5Q1755 303 1803.5 254.0Q1852 205 1880.5 139.5Q1909 74 1909 0Z" style="fill:#000000;stroke:none" transform="scale(1,-1) translate(0,-256)" /></svg>