<?xml version="1.0" encoding="utf-8" ?>
<svg baseProfile="full" height="256" version="1.1" width="256" xmlns="http://www.w3.org/2000/svg" xmlns:ev="http://www.w3.org/2001/xml-events" xmlns:xlink="http://www.w3.org/1999/xlink"><defs /><path d="M1190 1150Q1220 1150 1241.0 1129.0Q1262 1108 1262 1078V360Q1262 330 1241.0 309.0Q1220 288 1190 288Q1161 288 1139.5 309.5Q1118 331 1118 360V899Q1118 913 1107.5 924.0Q1097 935 1083 935Q1069 935 1058.0 924.0Q1047 913 1047 899V539Q1047 524 1036.5 513.5Q1026 503 1011 503Q996 503 985.5 513.5Q975 524 975 539V935Q975 964 953.5 985.0Q932 1006 903 1006H759Q730 1006 708.5 1027.5Q687 1049 687 1078Q687 1108 708.0 1129.0Q729 1150 759 1150ZM1047 -72Q1060 -72 1067.0 -77.5Q1074 -83 1077.5 -91.0Q1081 -99 1083.0 -108.0Q1085 -117 1088.5 -125.0Q1092 -133 1098.5 -138.5Q1105 -144 1118 -144L1031 -184H756L687 -144Q687 -114 708.0 -93.0Q729 -72 759 -72Z" style="fill:#e5e5e5;stroke:none" transform="scale(1,-1) translate(0,-256)" /></svg>