<?xml version="1.0" encoding="utf-8" ?>
<svg baseProfile="full" height="256" version="1.1" width="256" xmlns="http://www.w3.org/2000/svg" xmlns:ev="http://www.w3.org/2001/xml-events" xmlns:xlink="http://www.w3.org/1999/xlink"><defs /><path d="M400 1294Q400 1383 434.0 1461.5Q468 1540 526.5 1598.5Q585 1657 663.5 1691.0Q742 1725 831 1725Q849 1725 871.0 1724.5Q893 1724 915.5 1722.5Q938 1721 959.0 1718.0Q980 1715 997 1710L1357 1603V-195L1262 -287H1118V-144H685L544 -287H400ZM1917 -76 2051 -66 2086 -195 1981 -287H1837V-144Z" style="fill:#0078d7;stroke:none" transform="scale(1,-1) translate(0,-256)" /></svg>