<?xml version="1.0" encoding="utf-8" ?>
<svg baseProfile="full" height="256" version="1.1" width="256" xmlns="http://www.w3.org/2000/svg" xmlns:ev="http://www.w3.org/2001/xml-events" xmlns:xlink="http://www.w3.org/1999/xlink"><defs /><path d="M975 1653V1869H1693V1433Q1785 1420 1864.0 1376.5Q1943 1333 2001.0 1267.5Q2059 1202 2092.0 1118.0Q2125 1034 2125 941V786Q2216 773 2295.0 729.5Q2374 686 2432.0 620.0Q2490 554 2523.0 470.5Q2556 387 2556 294V-215H1837V-431H1118V0Q1118 13 1112.0 26.0Q1106 39 1096.0 49.5Q1086 60 1073.0 66.0Q1060 72 1047 72Q973 72 907.5 100.5Q842 129 793.0 177.5Q744 226 715.5 291.5Q687 357 687 431V647Q687 675 665.0 697.0Q643 719 615 719Q541 719 475.5 747.0Q410 775 361.0 824.0Q312 873 284.0 938.5Q256 1004 256 1078V1653Z" style="fill:#000000;stroke:none" transform="scale(1,-1) translate(0,-256)" /></svg>