<?xml version="1.0" encoding="utf-8" ?>
<svg baseProfile="full" height="256" version="1.1" width="256" xmlns="http://www.w3.org/2000/svg" xmlns:ev="http://www.w3.org/2001/xml-events" xmlns:xlink="http://www.w3.org/1999/xlink"><defs /><path d="M1837 647H1873Q1954 647 2025.5 616.5Q2097 586 2151.0 533.5Q2205 481 2236.5 410.0Q2268 339 2268 258V-72H2125V258Q2125 325 2099.0 382.5Q2073 440 2029.0 483.0Q1985 526 1926.0 550.5Q1867 575 1801 575Q1790 575 1779.0 574.0Q1768 573 1757 573Q1748 573 1736.5 574.0Q1725 575 1715.5 579.0Q1706 583 1699.5 590.5Q1693 598 1693 611V905Q1693 971 1667.0 1029.0Q1641 1087 1597.0 1130.0Q1553 1173 1494.5 1197.5Q1436 1222 1370 1222Q1358 1222 1346.5 1221.0Q1335 1220 1323 1220Q1313 1220 1302.5 1221.0Q1292 1222 1283.0 1226.0Q1274 1230 1268.0 1237.5Q1262 1245 1262 1258V1725H1406V1294H1442Q1523 1294 1594.5 1263.5Q1666 1233 1720.0 1180.5Q1774 1128 1805.5 1057.0Q1837 986 1837 905ZM1118 431H1154Q1235 431 1307.0 400.5Q1379 370 1433.0 317.5Q1487 265 1518.5 194.0Q1550 123 1550 42V-287H1406V42Q1406 108 1380.0 166.0Q1354 224 1310.0 267.0Q1266 310 1207.5 335.0Q1149 360 1083 360Q1071 360 1059.5 359.0Q1048 358 1036 358Q1026 358 1015.5 359.0Q1005 360 996.0 364.0Q987 368 981.0 375.5Q975 383 975 396V689Q975 756 949.0 813.5Q923 871 879.0 914.0Q835 957 776.0 981.5Q717 1006 651 1006Q640 1006 629.0 1005.0Q618 1004 607 1004Q598 1004 586.5 1005.0Q575 1006 565.5 1010.0Q556 1014 549.5 1021.5Q543 1029 543 1042V1510H687V1078H723Q804 1078 875.5 1047.5Q947 1017 1001.0 964.5Q1055 912 1086.5 841.0Q1118 770 1118 689Z" style="fill:#f7b189;stroke:none" transform="scale(1,-1) translate(0,-256)" /></svg>