<?xml version="1.0" encoding="utf-8" ?>
<svg baseProfile="full" height="256" version="1.1" width="256" xmlns="http://www.w3.org/2000/svg" xmlns:ev="http://www.w3.org/2001/xml-events" xmlns:xlink="http://www.w3.org/1999/xlink"><defs /><path d="M1981 647H2053Q2126 647 2191.0 619.5Q2256 592 2305.0 544.0Q2354 496 2383.0 431.5Q2412 367 2412 294V-72H2268L2197 -6L2125 -72H1981V216Q1981 259 1963.5 298.5Q1946 338 1916.5 367.0Q1887 396 1847.5 413.5Q1808 431 1765 431Q1720 431 1681.0 448.0Q1642 465 1613.0 494.5Q1584 524 1567.0 563.0Q1550 602 1550 647V863Q1550 906 1532.5 945.0Q1515 984 1485.0 1013.5Q1455 1043 1416.0 1060.5Q1377 1078 1334 1078Q1289 1078 1250.0 1095.0Q1211 1112 1181.5 1141.5Q1152 1171 1135.0 1210.0Q1118 1249 1118 1294V1725H1262L1334 1659L1406 1725H1550V1294H1622Q1695 1294 1760.0 1266.5Q1825 1239 1874.0 1191.0Q1923 1143 1952.0 1078.5Q1981 1014 1981 941ZM1262 431H1334Q1407 431 1472.0 403.5Q1537 376 1586.0 328.0Q1635 280 1664.0 215.5Q1693 151 1693 78V-287H1550L1478 -249L1406 -287H1262V0Q1262 43 1244.5 82.0Q1227 121 1197.5 151.0Q1168 181 1129.0 198.5Q1090 216 1047 216Q1002 216 963.0 233.0Q924 250 894.5 279.0Q865 308 848.0 347.0Q831 386 831 431V647Q831 690 813.5 729.5Q796 769 766.5 798.5Q737 828 697.5 845.5Q658 863 615 863Q570 863 531.0 880.0Q492 897 463.0 926.0Q434 955 417.0 994.0Q400 1033 400 1078V1510H543L615 1416L687 1510H831V1078H903Q976 1078 1041.0 1050.5Q1106 1023 1155.0 975.0Q1204 927 1233.0 862.5Q1262 798 1262 725Z" style="fill:#da3b01;stroke:none" transform="scale(1,-1) translate(0,-256)" /></svg>