<?xml version="1.0" encoding="utf-8" ?>
<svg baseProfile="full" height="256" version="1.1" width="256" xmlns="http://www.w3.org/2000/svg" xmlns:ev="http://www.w3.org/2001/xml-events" xmlns:xlink="http://www.w3.org/1999/xlink"><defs /><path d="M1118 647Q1089 647 1068.0 668.5Q1047 690 1047 719H1262Q1262 689 1241.0 668.0Q1220 647 1190 647ZM1262 1078Q1262 1063 1251.5 1052.5Q1241 1042 1226 1042Q1211 1042 1200.5 1052.5Q1190 1063 1190 1078V1114Q1190 1129 1200.5 1139.5Q1211 1150 1226 1150Q1241 1150 1251.5 1139.5Q1262 1129 1262 1114ZM1047 1114Q1047 1129 1057.5 1139.5Q1068 1150 1083 1150Q1097 1150 1107.5 1139.0Q1118 1128 1118 1114V1078Q1118 1064 1107.5 1053.0Q1097 1042 1083 1042Q1068 1042 1057.5 1052.5Q1047 1063 1047 1078Z" style="fill:#000000;stroke:none" transform="scale(1,-1) translate(0,-256)" /></svg>