<?xml version="1.0" encoding="utf-8" ?>
<svg baseProfile="full" height="256" version="1.1" width="256" xmlns="http://www.w3.org/2000/svg" xmlns:ev="http://www.w3.org/2001/xml-events" xmlns:xlink="http://www.w3.org/1999/xlink"><defs /><path d="M1765 431Q1795 431 1821.0 420.0Q1847 409 1866.5 389.5Q1886 370 1897.5 344.0Q1909 318 1909 288V144Q1909 129 1898.5 118.5Q1888 108 1873 108Q1858 108 1847.5 118.5Q1837 129 1837 144Q1837 174 1825.5 200.0Q1814 226 1794.5 245.5Q1775 265 1749.0 276.5Q1723 288 1693 288L1729 324L1693 360L1729 396L1693 431ZM766 -144Q768 -137 771.5 -130.5Q775 -124 779 -118L1118 -287H687Q658 -287 636.5 -265.5Q615 -244 615 -215Q615 -191 624.5 -177.0Q634 -163 649.5 -155.5Q665 -148 684.0 -145.5Q703 -143 722 -143Q734 -143 745.0 -143.5Q756 -144 766 -144ZM1154 1006Q1100 1006 1052.0 980.5Q1004 955 975 910V1114Q975 1136 983.5 1156.0Q992 1176 1006.5 1190.5Q1021 1205 1040.5 1213.5Q1060 1222 1083 1222Q1124 1222 1154 1195Q1169 1209 1187.5 1215.5Q1206 1222 1226 1222Q1248 1222 1268.0 1213.5Q1288 1205 1302.5 1190.5Q1317 1176 1325.5 1156.0Q1334 1136 1334 1114V910Q1304 955 1256.0 980.5Q1208 1006 1154 1006Z" style="fill:#4a5459;stroke:none" transform="scale(1,-1) translate(0,-256)" /></svg>