<?xml version="1.0" encoding="utf-8" ?>
<svg baseProfile="full" height="256" version="1.1" width="256" xmlns="http://www.w3.org/2000/svg" xmlns:ev="http://www.w3.org/2001/xml-events" xmlns:xlink="http://www.w3.org/1999/xlink"><defs /><path d="M1118 899Q1118 885 1107.5 874.0Q1097 863 1083 863Q1068 863 1057.5 873.5Q1047 884 1047 899Q1047 913 1058.0 924.0Q1069 935 1083 935Q1097 935 1107.5 924.0Q1118 913 1118 899ZM1262 899Q1262 884 1251.5 873.5Q1241 863 1226 863Q1211 863 1200.5 873.5Q1190 884 1190 899Q1190 913 1201.0 924.0Q1212 935 1226 935Q1240 935 1251.0 924.0Q1262 913 1262 899Z" style="fill:#383838;stroke:none" transform="scale(1,-1) translate(0,-256)" /></svg>