<?xml version="1.0" encoding="utf-8" ?>
<svg baseProfile="full" height="256" version="1.1" width="256" xmlns="http://www.w3.org/2000/svg" xmlns:ev="http://www.w3.org/2001/xml-events" xmlns:xlink="http://www.w3.org/1999/xlink"><defs /><path d="M1154 1438Q1206 1438 1251.5 1418.5Q1297 1399 1331.5 1365.0Q1366 1331 1386.0 1285.5Q1406 1240 1406 1188Q1406 1186 1403 1186V791Q1392 873 1334 931L1330 925Q1331 921 1331.5 917.0Q1332 913 1334 910Q1337 903 1341.5 897.0Q1346 891 1349 883Q1370 841 1370 791Q1370 746 1353.0 707.0Q1336 668 1306.5 638.5Q1277 609 1238.0 592.0Q1199 575 1154 575Q1109 575 1070.0 592.0Q1031 609 1002.0 638.5Q973 668 956.0 707.0Q939 746 939 791Q939 823 948.0 853.5Q957 884 975 910L978 923L975 931Q946 902 928.5 866.5Q911 831 903 791V1186Q903 1238 922.5 1284.0Q942 1330 976.0 1364.0Q1010 1398 1056.0 1418.0Q1102 1438 1154 1438ZM1471 -144Q1481 -144 1492.0 -143.5Q1503 -143 1515 -143Q1534 -143 1553.0 -145.5Q1572 -148 1587.5 -155.5Q1603 -163 1612.5 -177.0Q1622 -191 1622 -215Q1622 -244 1600.5 -265.5Q1579 -287 1550 -287H1118V-215Q1118 -185 1129.5 -159.0Q1141 -133 1160.5 -113.5Q1180 -94 1206.0 -83.0Q1232 -72 1262 -72H1370Q1405 -72 1432.5 -92.0Q1460 -112 1471 -144ZM1406 1653 1442 1617 1406 1581H1190Q1190 1573 1191.0 1560.5Q1192 1548 1192 1534Q1192 1511 1185.0 1492.5Q1178 1474 1154 1474Q1140 1474 1129.0 1485.0Q1118 1496 1118 1510V1653Q1118 1682 1139.5 1703.5Q1161 1725 1190 1725H1406L1442 1689Z" style="fill:#69797e;stroke:none" transform="scale(1,-1) translate(0,-256)" /></svg>