<?xml version="1.0" encoding="utf-8" ?>
<svg baseProfile="full" height="256" version="1.1" width="256" xmlns="http://www.w3.org/2000/svg" xmlns:ev="http://www.w3.org/2001/xml-events" xmlns:xlink="http://www.w3.org/1999/xlink"><defs /><path d="M1403 791Q1434 791 1456.0 771.0Q1478 751 1478 719V431H831V719Q831 749 852.0 770.0Q873 791 905 791Q904 784 904.0 777.0Q904 770 904 763Q904 710 922.0 663.0Q940 616 973.0 580.5Q1006 545 1052.0 524.0Q1098 503 1154 503Q1206 503 1252.0 523.0Q1298 543 1332.0 577.0Q1366 611 1386.0 657.0Q1406 703 1406 755Q1406 773 1403 791ZM687 216H1550L1118 0Z" style="fill:#ca5010;stroke:none" transform="scale(1,-1) translate(0,-256)" /></svg>