<?xml version="1.0" encoding="utf-8" ?>
<svg baseProfile="full" height="256" version="1.1" width="256" xmlns="http://www.w3.org/2000/svg" xmlns:ev="http://www.w3.org/2001/xml-events" xmlns:xlink="http://www.w3.org/1999/xlink"><defs /><path d="M1406 1725Q1421 1725 1436.0 1725.5Q1451 1726 1465 1726Q1500 1726 1532.0 1718.5Q1564 1711 1592 1683L2126 1149Q2160 1115 2178.5 1071.0Q2197 1027 2197 979V863Q2197 833 2185.5 807.0Q2174 781 2154.5 761.5Q2135 742 2109.0 730.5Q2083 719 2053 719V857Q2052 828 2040.5 803.0Q2029 778 2009.5 759.0Q1990 740 1964.0 729.5Q1938 719 1909 719V857Q1908 828 1896.5 803.0Q1885 778 1865.5 759.0Q1846 740 1820.0 729.5Q1794 719 1765 719V863Q1735 863 1709.0 851.5Q1683 840 1663.5 820.5Q1644 801 1633.0 775.0Q1622 749 1622 719V431H1693L1757 400L1760 312L1742 286Q1783 278 1810.0 245.5Q1837 213 1837 171Q1837 129 1826.0 95.0Q1815 61 1773 40L1118 -287L867 -234L779 -118L489 28Q448 48 424.0 86.5Q400 125 400 171Q400 195 409.0 216.5Q418 238 433.5 253.5Q449 269 470.5 278.5Q492 288 516 288Q531 288 543 284V719Q543 779 565.5 831.0Q588 883 627.0 922.0Q666 961 718.5 983.5Q771 1006 831 1006V1222Q831 1265 850.0 1302.5Q869 1340 903 1366H831Q893 1435 977.5 1472.5Q1062 1510 1154 1510Q1247 1510 1331.5 1473.0Q1416 1436 1478 1366H1406Q1440 1340 1459.0 1302.5Q1478 1265 1478 1222V1078H1909L1406 1581Q1391 1596 1377.5 1616.0Q1364 1636 1351 1653L1406 1725Z" style="fill:#f7630c;stroke:none" transform="scale(1,-1) translate(0,-256)" /></svg>