<?xml version="1.0" encoding="utf-8" ?>
<svg baseProfile="full" height="256" version="1.1" width="256" xmlns="http://www.w3.org/2000/svg" xmlns:ev="http://www.w3.org/2001/xml-events" xmlns:xlink="http://www.w3.org/1999/xlink"><defs /><path d="M695 -431Q649 -431 608.5 -414.5Q568 -398 537.5 -369.0Q507 -340 489.5 -300.5Q472 -261 472 -214Q472 -171 488 -133L442 -110Q402 -90 368.0 -60.5Q334 -31 309.0 5.0Q284 41 270.0 83.0Q256 125 256 171Q256 208 266.0 243.0Q276 278 295.0 308.0Q314 338 340.5 362.5Q367 387 400 404V719Q400 787 421.0 850.5Q442 914 479.5 967.5Q517 1021 570.0 1062.0Q623 1103 687 1126V1222Q654 1222 630.5 1245.0Q607 1268 607 1302Q607 1331 628 1355L658 1388Q694 1429 727.0 1464.5Q760 1500 796.5 1529.5Q833 1559 876.0 1583.0Q919 1607 975 1625V1653Q975 1698 992.0 1737.0Q1009 1776 1038.0 1805.5Q1067 1835 1106.0 1852.0Q1145 1869 1190 1869H1550Q1609 1869 1651 1827L2228 1250Q2270 1208 2292.5 1166.0Q2315 1124 2325.5 1080.0Q2336 1036 2338.0 987.5Q2340 939 2340 885V863Q2340 803 2317.5 750.5Q2295 698 2256.0 659.0Q2217 620 2165.0 597.5Q2113 575 2053 575H1777Q1834 573 1884.0 549.5Q1934 526 1971.5 487.0Q2009 448 2031.0 397.0Q2053 346 2053 288V144Q2053 113 2042.5 84.0Q2032 55 2013.5 32.0Q1995 9 1969.0 -7.5Q1943 -24 1913 -31Q1879 -68 1836.0 -89.5Q1793 -111 1749 -133Q1765 -171 1765 -214Q1765 -261 1747.5 -300.5Q1730 -340 1699.5 -369.0Q1669 -398 1628.5 -414.5Q1588 -431 1542 -431Z" style="fill:#000000;stroke:none" transform="scale(1,-1) translate(0,-256)" /></svg>