<?xml version="1.0" encoding="utf-8" ?>
<svg baseProfile="full" height="256" version="1.1" width="256" xmlns="http://www.w3.org/2000/svg" xmlns:ev="http://www.w3.org/2001/xml-events" xmlns:xlink="http://www.w3.org/1999/xlink"><defs /><path d="M2053 863H2125Q2185 863 2237.0 840.5Q2289 818 2328.0 779.0Q2367 740 2389.5 687.5Q2412 635 2412 575Q2412 516 2389.5 463.5Q2367 411 2328.0 372.0Q2289 333 2236.5 310.5Q2184 288 2125 288H903Q829 288 763.5 316.0Q698 344 649.0 393.0Q600 442 571.5 507.0Q543 572 543 647Q543 722 571.5 787.0Q600 852 648.5 901.0Q697 950 762.5 978.0Q828 1006 903 1006Q944 1006 983.0 997.5Q1022 989 1058 971Q1077 1058 1123.0 1130.5Q1169 1203 1234.5 1255.5Q1300 1308 1380.5 1337.0Q1461 1366 1550 1366Q1654 1366 1745.5 1326.5Q1837 1287 1905.5 1218.5Q1974 1150 2013.5 1058.5Q2053 967 2053 863Z" style="fill:#ffffff;stroke:none" transform="scale(1,-1) translate(0,-256)" /></svg>