<?xml version="1.0" encoding="utf-8" ?>
<svg baseProfile="full" height="256" version="1.1" width="256" xmlns="http://www.w3.org/2000/svg" xmlns:ev="http://www.w3.org/2001/xml-events" xmlns:xlink="http://www.w3.org/1999/xlink"><defs /><path d="M2181 1003Q2261 992 2329.5 954.5Q2398 917 2448.5 860.0Q2499 803 2527.5 730.0Q2556 657 2556 576Q2556 484 2520.0 405.0Q2484 326 2423.0 268.0Q2362 210 2281.0 177.0Q2200 144 2109 144H918Q812 144 717.5 182.0Q623 220 552.5 287.5Q482 355 440.5 447.0Q399 539 399 647Q399 719 420 788L320 809Q309 811 298.0 817.0Q287 823 277.5 832.0Q268 841 262.0 852.0Q256 863 256 875Q256 898 259.0 914.5Q262 931 282 948L429 1078L282 1208Q274 1216 265.0 1230.0Q256 1244 256 1255Q256 1290 269.0 1315.0Q282 1340 320 1348L511 1387Q506 1402 495.0 1432.0Q484 1462 473.0 1495.0Q462 1528 453.5 1557.0Q445 1586 445 1599Q445 1632 469.0 1655.5Q493 1679 526 1679Q538 1679 567.5 1670.5Q597 1662 630.0 1651.0Q663 1640 693.0 1629.0Q723 1618 738 1613L777 1805Q779 1815 785.0 1826.5Q791 1838 800.0 1847.5Q809 1857 820.0 1863.0Q831 1869 843 1869Q866 1869 883.0 1865.5Q900 1862 917 1843L1047 1696L1177 1843Q1185 1851 1198.5 1860.0Q1212 1869 1224 1869Q1259 1869 1283.5 1856.0Q1308 1843 1316 1805L1356 1613Q1371 1618 1401.0 1629.0Q1431 1640 1464.0 1651.0Q1497 1662 1526.0 1670.5Q1555 1679 1567 1679Q1600 1679 1624.0 1655.5Q1648 1632 1648 1599Q1648 1576 1638.5 1551.5Q1629 1527 1621 1506Q1724 1494 1816.0 1452.0Q1908 1410 1981.5 1344.0Q2055 1278 2106.5 1191.0Q2158 1104 2181 1003Z" style="fill:#000000;stroke:none" transform="scale(1,-1) translate(0,-256)" /></svg>