<?xml version="1.0" encoding="utf-8" ?>
<svg baseProfile="full" height="256" version="1.1" width="256" xmlns="http://www.w3.org/2000/svg" xmlns:ev="http://www.w3.org/2001/xml-events" xmlns:xlink="http://www.w3.org/1999/xlink"><defs /><path d="M1765 1150Q1879 1150 1987.0 1108.0Q2095 1066 2176 985L2392 769Q2402 759 2407.0 746.0Q2412 733 2412 719H1909V503Q1909 443 1890.0 389.5Q1871 336 1836 288L1766 194H1047L976 288Q941 335 922.0 389.5Q903 444 903 503V719H400Q400 733 405.0 746.0Q410 759 420 769L636 985Q717 1066 825.0 1108.0Q933 1150 1047 1150V1366Q1047 1440 1075.5 1505.5Q1104 1571 1152.5 1619.5Q1201 1668 1266.5 1696.5Q1332 1725 1406 1725Q1480 1725 1545.5 1696.5Q1611 1668 1659.5 1619.5Q1708 1571 1736.5 1505.5Q1765 1440 1765 1366Z" style="fill:#ffb900;stroke:none" transform="scale(1,-1) translate(0,-256)" /></svg>