<?xml version="1.0" encoding="utf-8" ?>
<svg baseProfile="full" height="256" version="1.1" width="256" xmlns="http://www.w3.org/2000/svg" xmlns:ev="http://www.w3.org/2001/xml-events" xmlns:xlink="http://www.w3.org/1999/xlink"><defs /><path d="M1909 1280Q2015 1259 2110.5 1208.5Q2206 1158 2282 1082L2493 870Q2523 840 2539.5 800.5Q2556 761 2556 719V575H2053Q2053 518 2049.5 470.5Q2046 423 2035.5 379.0Q2025 335 2004.5 292.0Q1984 249 1950 201Q1905 138 1858.5 76.5Q1812 15 1765 -47V-72Q1810 -72 1849.0 -89.0Q1888 -106 1917.5 -135.0Q1947 -164 1964.0 -203.0Q1981 -242 1981 -287V-431H831V-287Q831 -242 848.0 -203.0Q865 -164 894.5 -135.0Q924 -106 963.0 -89.0Q1002 -72 1047 -72V-47L861 202Q826 249 806.0 292.0Q786 335 775.5 379.0Q765 423 762.0 470.5Q759 518 759 575H256Q256 600 255.0 624.0Q254 648 254 673Q254 700 256.0 726.5Q258 753 265.0 778.0Q272 803 284.5 826.0Q297 849 317 869L535 1087Q610 1162 704.5 1211.0Q799 1260 903 1280V1366Q903 1470 942.5 1561.5Q982 1653 1050.5 1721.5Q1119 1790 1210.5 1829.5Q1302 1869 1406 1869Q1510 1869 1601.5 1829.5Q1693 1790 1761.5 1721.5Q1830 1653 1869.5 1561.5Q1909 1470 1909 1366Z" style="fill:#000000;stroke:none" transform="scale(1,-1) translate(0,-256)" /></svg>