<?xml version="1.0" encoding="utf-8" ?>
<svg baseProfile="full" height="256" version="1.1" width="256" xmlns="http://www.w3.org/2000/svg" xmlns:ev="http://www.w3.org/2001/xml-events" xmlns:xlink="http://www.w3.org/1999/xlink"><defs /><path d="M1837 -287H975Q975 -258 996.5 -236.5Q1018 -215 1047 -215H1190V144Q1190 174 1211.0 195.0Q1232 216 1262 216Q1292 216 1313.0 195.0Q1334 174 1334 144V-215H1478V144Q1478 174 1499.0 195.0Q1520 216 1550 216Q1579 216 1600.5 194.5Q1622 173 1622 144V-215H1765Q1794 -215 1815.5 -236.5Q1837 -258 1837 -287ZM1478 1222Q1508 1222 1529.0 1201.0Q1550 1180 1550 1150Q1550 1136 1545.0 1125.5Q1540 1115 1532 1104L1406 935L1278 1107Q1271 1116 1266.5 1127.0Q1262 1138 1262 1150Q1262 1180 1283.0 1201.0Q1304 1222 1334 1222Z" style="fill:#f7630c;stroke:none" transform="scale(1,-1) translate(0,-256)" /></svg>