<?xml version="1.0" encoding="utf-8" ?>
<svg baseProfile="full" height="256" version="1.1" width="256" xmlns="http://www.w3.org/2000/svg" xmlns:ev="http://www.w3.org/2001/xml-events" xmlns:xlink="http://www.w3.org/1999/xlink"><defs /><path d="M1190 1438Q1220 1438 1241.0 1417.0Q1262 1396 1262 1366V1294Q1262 1264 1241.0 1243.0Q1220 1222 1190 1222Q1161 1222 1139.5 1243.5Q1118 1265 1118 1294V1366Q1118 1395 1139.5 1416.5Q1161 1438 1190 1438ZM1622 1438Q1651 1438 1672.0 1416.5Q1693 1395 1693 1366V1294Q1693 1265 1672.0 1243.5Q1651 1222 1622 1222Q1592 1222 1571.0 1243.0Q1550 1264 1550 1294V1366Q1550 1396 1571.0 1417.0Q1592 1438 1622 1438Z" style="fill:#000000;stroke:none" transform="scale(1,-1) translate(0,-256)" /></svg>