<?xml version="1.0" encoding="utf-8" ?>
<svg baseProfile="full" height="256" version="1.1" width="256" xmlns="http://www.w3.org/2000/svg" xmlns:ev="http://www.w3.org/2001/xml-events" xmlns:xlink="http://www.w3.org/1999/xlink"><defs /><path d="M975 -431V-148L986 -139Q966 -141 947.0 -142.0Q928 -143 908 -143Q773 -143 654.0 -92.0Q535 -41 446.5 47.0Q358 135 307.0 254.0Q256 373 256 508Q256 641 304.5 758.0Q353 875 447 969L1334 1857L2221 969Q2315 875 2363.0 757.5Q2411 640 2411 508Q2411 373 2360.0 254.5Q2309 136 2221.0 47.5Q2133 -41 2014.5 -92.0Q1896 -143 1761 -143Q1741 -143 1722.0 -142.0Q1703 -141 1683 -139L1693 -148V-431Z" style="fill:#000000;stroke:none" transform="scale(1,-1) translate(0,-256)" /></svg>