<?xml version="1.0" encoding="utf-8" ?>
<svg baseProfile="full" height="256" version="1.1" width="256" xmlns="http://www.w3.org/2000/svg" xmlns:ev="http://www.w3.org/2001/xml-events" xmlns:xlink="http://www.w3.org/1999/xlink"><defs /><path d="M1334 1653 2120 868Q2192 796 2230.0 703.0Q2268 610 2268 508Q2268 403 2228.5 310.5Q2189 218 2120.0 149.0Q2051 80 1958.5 40.0Q1866 0 1761 0Q1661 0 1569.5 37.5Q1478 75 1406 144V72Q1406 -15 1445.0 -88.0Q1484 -161 1550 -215V-287H1118V-215Q1184 -161 1223.0 -88.0Q1262 -15 1262 72V144Q1190 75 1098.5 37.5Q1007 0 907 0Q837 0 772.0 18.5Q707 37 651.0 70.0Q595 103 548.5 149.5Q502 196 469.0 252.5Q436 309 418.0 373.5Q400 438 400 508Q400 610 438.5 703.0Q477 796 549 868Z" style="fill:#2b2b2b;stroke:none" transform="scale(1,-1) translate(0,-256)" /></svg>