<?xml version="1.0" encoding="utf-8" ?>
<svg baseProfile="full" height="256" version="1.1" width="256" xmlns="http://www.w3.org/2000/svg" xmlns:ev="http://www.w3.org/2001/xml-events" xmlns:xlink="http://www.w3.org/1999/xlink"><defs /><path d="M1406 1078Q1129 1078 871.0 986.5Q613 895 400 717V719Q400 858 436.0 986.5Q472 1115 537.5 1227.0Q603 1339 694.5 1430.5Q786 1522 898.0 1587.5Q1010 1653 1138.5 1689.0Q1267 1725 1406 1725Q1545 1725 1674.0 1689.0Q1803 1653 1915.0 1587.5Q2027 1522 2118.5 1430.0Q2210 1338 2275.0 1226.0Q2340 1114 2376.0 985.0Q2412 856 2412 717Q2199 895 1941.0 986.5Q1683 1078 1406 1078Z" style="fill:#83beec;stroke:none" transform="scale(1,-1) translate(0,-256)" /></svg>