<?xml version="1.0" encoding="utf-8" ?>
<svg baseProfile="full" height="256" version="1.1" width="256" xmlns="http://www.w3.org/2000/svg" xmlns:ev="http://www.w3.org/2001/xml-events" xmlns:xlink="http://www.w3.org/1999/xlink"><defs /><path d="M1047 0Q1047 75 1075.0 140.5Q1103 206 1152.0 254.5Q1201 303 1266.0 331.5Q1331 360 1406 360Q1480 360 1545.5 331.5Q1611 303 1659.5 254.0Q1708 205 1736.5 139.5Q1765 74 1765 0ZM1119 611Q1119 588 1110.5 568.5Q1102 549 1087.0 535.0Q1072 521 1052.5 512.5Q1033 504 1011 504Q989 504 969.5 512.5Q950 521 935.0 535.5Q920 550 911.5 569.5Q903 589 903 611V755Q903 777 911.5 796.5Q920 816 935.0 831.0Q950 846 969.5 854.5Q989 863 1011 863Q1033 863 1053.0 854.5Q1073 846 1087.5 831.5Q1102 817 1110.5 797.0Q1119 777 1119 755ZM1801 863Q1823 863 1843.0 854.5Q1863 846 1877.5 831.5Q1892 817 1900.5 797.0Q1909 777 1909 755V611Q1909 588 1900.5 568.5Q1892 549 1877.0 535.0Q1862 521 1842.5 512.5Q1823 504 1801 504Q1779 504 1759.5 512.5Q1740 521 1725.5 535.5Q1711 550 1702.5 569.5Q1694 589 1694 611V755Q1694 777 1702.5 796.5Q1711 816 1725.0 831.0Q1739 846 1758.5 854.5Q1778 863 1801 863Z" style="fill:#000000;stroke:none" transform="scale(1,-1) translate(0,-256)" /></svg>