<?xml version="1.0" encoding="utf-8" ?>
<svg baseProfile="full" height="256" version="1.1" width="256" xmlns="http://www.w3.org/2000/svg" xmlns:ev="http://www.w3.org/2001/xml-events" xmlns:xlink="http://www.w3.org/1999/xlink"><defs /><path d="M2412 719Q2412 580 2376.0 451.5Q2340 323 2274.5 211.0Q2209 99 2117.5 7.5Q2026 -84 1914.0 -149.5Q1802 -215 1673.5 -251.0Q1545 -287 1406 -287Q1267 -287 1138.5 -251.0Q1010 -215 898.0 -149.5Q786 -84 694.5 7.5Q603 99 537.5 211.0Q472 323 436.0 451.5Q400 580 400 719Q400 731 406.5 758.5Q413 786 422.0 816.0Q431 846 440.0 873.0Q449 900 454 912Q515 1070 613.5 1173.0Q712 1276 837.5 1336.0Q963 1396 1110.0 1419.5Q1257 1443 1413 1443Q1536 1443 1645.0 1435.5Q1754 1428 1850.5 1397.0Q1947 1366 2032.5 1304.5Q2118 1243 2194 1135Q2262 1039 2314.0 933.0Q2366 827 2412 719Z" style="fill:#ffc83d;stroke:none" transform="scale(1,-1) translate(0,-256)" /></svg>