<?xml version="1.0" encoding="utf-8" ?>
<svg baseProfile="full" height="256" version="1.1" width="256" xmlns="http://www.w3.org/2000/svg" xmlns:ev="http://www.w3.org/2001/xml-events" xmlns:xlink="http://www.w3.org/1999/xlink"><defs /><path d="M1118 1417Q1147 1417 1169.0 1396.0Q1191 1375 1191 1346Q1191 1319 1172 1297Q1129 1245 1073.0 1204.0Q1017 1163 953.5 1135.0Q890 1107 822.0 1092.5Q754 1078 687 1078Q658 1078 636.5 1099.5Q615 1121 615 1150Q615 1180 636.0 1201.0Q657 1222 687 1222Q774 1222 855.5 1251.0Q937 1280 1004 1335Q1021 1349 1035.0 1363.5Q1049 1378 1064 1393Q1088 1417 1118 1417ZM2196 1150Q2196 1121 2175.0 1099.5Q2154 1078 2125 1078Q2058 1078 1990.0 1092.5Q1922 1107 1858.5 1135.0Q1795 1163 1738.5 1204.0Q1682 1245 1639 1297Q1621 1320 1621 1345Q1621 1374 1642.0 1395.5Q1663 1417 1692 1417Q1723 1417 1747 1393Q1762 1378 1776.0 1363.5Q1790 1349 1807 1335Q1874 1280 1956.0 1251.0Q2038 1222 2125 1222Q2154 1222 2175.0 1200.5Q2196 1179 2196 1150Z" style="fill:#0063b1;stroke:none" transform="scale(1,-1) translate(0,-256)" /></svg>