<?xml version="1.0" encoding="utf-8" ?>
<svg baseProfile="full" height="256" version="1.1" width="256" xmlns="http://www.w3.org/2000/svg" xmlns:ev="http://www.w3.org/2001/xml-events" xmlns:xlink="http://www.w3.org/1999/xlink"><defs /><path d="M1586 1653V1581L1406 1042L1226 1581V1653ZM1406 539Q1406 524 1395.5 513.5Q1385 503 1370 503Q1355 503 1344.5 513.5Q1334 524 1334 539Q1334 554 1344.5 564.5Q1355 575 1370 575Q1385 575 1395.5 564.5Q1406 554 1406 539ZM1406 -36Q1406 -51 1395.5 -61.5Q1385 -72 1370 -72Q1355 -72 1344.5 -61.5Q1334 -51 1334 -36Q1334 -21 1344.5 -10.5Q1355 0 1370 0Q1385 0 1395.5 -10.5Q1406 -21 1406 -36ZM1406 252Q1406 237 1395.5 226.5Q1385 216 1370 216Q1355 216 1344.5 226.5Q1334 237 1334 252Q1334 267 1344.5 277.5Q1355 288 1370 288Q1385 288 1395.5 277.5Q1406 267 1406 252ZM1406 827Q1406 812 1395.5 801.5Q1385 791 1370 791Q1355 791 1344.5 801.5Q1334 812 1334 827Q1334 842 1344.5 852.5Q1355 863 1370 863Q1385 863 1395.5 852.5Q1406 842 1406 827Z" style="fill:#757575;stroke:none" transform="scale(1,-1) translate(0,-256)" /></svg>