<?xml version="1.0" encoding="utf-8" ?>
<svg baseProfile="full" height="256" version="1.1" width="256" xmlns="http://www.w3.org/2000/svg" xmlns:ev="http://www.w3.org/2001/xml-events" xmlns:xlink="http://www.w3.org/1999/xlink"><defs /><path d="M1622 503Q1622 475 1611.0 449.5Q1600 424 1581.0 404.5Q1562 385 1537.0 373.0Q1512 361 1484 360Q1512 359 1537.5 347.0Q1563 335 1581.5 315.5Q1600 296 1611.0 270.0Q1622 244 1622 216Q1622 186 1610.5 160.0Q1599 134 1579.5 114.5Q1560 95 1534.0 83.5Q1508 72 1478 72H1262Q1247 72 1236.5 82.5Q1226 93 1226 108Q1226 123 1236.5 133.5Q1247 144 1262 144H1478Q1507 144 1528.5 165.5Q1550 187 1550 216Q1550 245 1528.5 266.5Q1507 288 1478 288H1370Q1340 288 1319.0 309.0Q1298 330 1298 360Q1298 389 1319.5 410.0Q1341 431 1370 431H1478Q1507 431 1528.5 452.5Q1550 474 1550 503Q1550 532 1528.5 553.5Q1507 575 1478 575H1262Q1247 575 1236.5 585.5Q1226 596 1226 611Q1226 626 1236.5 636.5Q1247 647 1262 647H1478Q1508 647 1534.0 635.5Q1560 624 1579.5 604.5Q1599 585 1610.5 559.0Q1622 533 1622 503Z" style="fill:#d48c00;stroke:none" transform="scale(1,-1) translate(0,-256)" /></svg>