<?xml version="1.0" encoding="utf-8" ?>
<svg baseProfile="full" height="256" version="1.1" width="256" xmlns="http://www.w3.org/2000/svg" xmlns:ev="http://www.w3.org/2001/xml-events" xmlns:xlink="http://www.w3.org/1999/xlink"><defs /><path d="M1801 1078Q1853 1078 1899.0 1058.5Q1945 1039 1979.0 1005.0Q2013 971 2033.0 925.0Q2053 879 2053 827V791H1981Q1981 828 1967.0 861.0Q1953 894 1928.5 918.0Q1904 942 1871.0 956.0Q1838 970 1801 970Q1764 970 1731.5 956.0Q1699 942 1674.5 917.5Q1650 893 1636.0 860.5Q1622 828 1622 791H1550V827Q1550 879 1569.5 925.0Q1589 971 1623.0 1005.0Q1657 1039 1702.5 1058.5Q1748 1078 1801 1078ZM1011 1078Q1063 1078 1109.0 1058.5Q1155 1039 1189.0 1005.0Q1223 971 1242.5 925.0Q1262 879 1262 827V791H1190Q1190 828 1176.0 860.5Q1162 893 1137.5 917.5Q1113 942 1080.5 956.0Q1048 970 1011 970Q973 970 940.5 956.0Q908 942 883.5 918.0Q859 894 845.0 861.0Q831 828 831 791H759V827Q759 879 779.0 925.0Q799 971 833.0 1005.0Q867 1039 913.0 1058.5Q959 1078 1011 1078Z" style="fill:#000000;stroke:none" transform="scale(1,-1) translate(0,-256)" /></svg>