<?xml version="1.0" encoding="utf-8" ?>
<svg baseProfile="full" height="256" version="1.1" width="256" xmlns="http://www.w3.org/2000/svg" xmlns:ev="http://www.w3.org/2001/xml-events" xmlns:xlink="http://www.w3.org/1999/xlink"><defs /><path d="M472 -431Q427 -431 388.0 -414.0Q349 -397 319.5 -367.5Q290 -338 273.0 -299.0Q256 -260 256 -215Q256 -171 273.0 -132.0Q290 -93 319.5 -63.5Q349 -34 388.5 -17.0Q428 0 472 0H491Q498 15 516.0 48.5Q534 82 552.0 118.5Q570 155 584.0 187.5Q598 220 598 233Q598 244 595 255L344 1015Q328 1062 328 1115Q328 1209 376.0 1285.5Q424 1362 508 1404L1359 1825Q1449 1869 1549 1869Q1638 1869 1717.0 1835.5Q1796 1802 1854.5 1744.5Q1913 1687 1947.0 1609.0Q1981 1531 1981 1441Q1981 1374 1961.0 1311.5Q1941 1249 1905.0 1195.5Q1869 1142 1818.0 1100.5Q1767 1059 1705 1035Q1673 1023 1642.0 1017.0Q1611 1011 1577 1007Q1529 1002 1483.5 995.0Q1438 988 1390 981L1359 977Q1281 966 1203.5 953.5Q1126 941 1050 919Q1074 845 1087.5 781.5Q1101 718 1107.5 656.5Q1114 595 1116.0 530.5Q1118 466 1118 391Q1118 377 1118.5 363.0Q1119 349 1121 335Q1161 319 1194.0 292.0Q1227 265 1250.0 230.5Q1273 196 1285.5 155.0Q1298 114 1298 71Q1298 -15 1253.0 -83.0Q1208 -151 1132 -189L649 -431Z" style="fill:#000000;stroke:none" transform="scale(1,-1) translate(0,-256)" /></svg>