<?xml version="1.0" encoding="utf-8" ?>
<svg baseProfile="full" height="256" version="1.1" width="256" xmlns="http://www.w3.org/2000/svg" xmlns:ev="http://www.w3.org/2001/xml-events" xmlns:xlink="http://www.w3.org/1999/xlink"><defs /><path d="M1765 431H2268V72H1981L1837 288L1693 72H687V216H1622ZM1693 719Q1693 690 1672.0 668.5Q1651 647 1622 647H1280Q1306 679 1327.0 716.0Q1348 753 1365 791H1622Q1651 791 1672.0 769.5Q1693 748 1693 719ZM1693 1006Q1693 977 1672.0 956.0Q1651 935 1622 935H1401Q1404 958 1405.0 980.5Q1406 1003 1406 1026V1078H1622Q1651 1078 1672.0 1056.5Q1693 1035 1693 1006Z" style="fill:#cccccc;stroke:none" transform="scale(1,-1) translate(0,-256)" /></svg>