<?xml version="1.0" encoding="utf-8" ?>
<svg baseProfile="full" height="256" version="1.1" width="256" xmlns="http://www.w3.org/2000/svg" xmlns:ev="http://www.w3.org/2001/xml-events" xmlns:xlink="http://www.w3.org/1999/xlink"><defs /><path d="M2412 0H2556V-431H759Q655 -431 563.5 -391.5Q472 -352 403.5 -283.5Q335 -215 295.5 -123.5Q256 -32 256 72V216H543V288Q543 346 566.0 398.5Q589 451 628.5 490.0Q668 529 720.0 552.0Q772 575 831 575Q920 575 998.5 609.0Q1077 643 1135.5 701.5Q1194 760 1228.0 838.5Q1262 917 1262 1006V1510H2268V998Q2338 927 2375.0 837.0Q2412 747 2412 647Z" style="fill:#000000;stroke:none" transform="scale(1,-1) translate(0,-256)" /></svg>