<?xml version="1.0" encoding="utf-8" ?>
<svg baseProfile="full" height="256" version="1.1" width="256" xmlns="http://www.w3.org/2000/svg" xmlns:ev="http://www.w3.org/2001/xml-events" xmlns:xlink="http://www.w3.org/1999/xlink"><defs /><path d="M2125 933Q2194 882 2231.0 807.0Q2268 732 2268 647V431L2198 351V143H1981L1837 359L1693 143H742Q729 162 715.0 180.0Q701 198 687 216V288Q687 318 698.5 344.0Q710 370 729.5 389.5Q749 409 775.0 420.0Q801 431 831 431Q964 431 1080.0 487.5Q1196 544 1280 647Q1315 661 1349.5 676.5Q1384 692 1418 709Q1404 729 1391.0 750.0Q1378 771 1364 791Q1378 826 1387.0 861.5Q1396 897 1401 934Q1424 950 1446.0 968.0Q1468 986 1487 1006L1406 1078V1366H2125Z" style="fill:#ffffff;stroke:none" transform="scale(1,-1) translate(0,-256)" /></svg>