<?xml version="1.0" encoding="utf-8" ?>
<svg baseProfile="full" height="256" version="1.1" width="256" xmlns="http://www.w3.org/2000/svg" xmlns:ev="http://www.w3.org/2001/xml-events" xmlns:xlink="http://www.w3.org/1999/xlink"><defs /><path d="M1406 -431Q1294 -431 1184.5 -411.5Q1075 -392 969.0 -359.0Q863 -326 760.5 -281.0Q658 -236 560 -185Q510 -159 468.5 -135.5Q427 -112 391 -82Q327 -29 291.5 32.5Q256 94 256 180Q256 203 259.5 224.0Q263 245 269 267L595 1487Q617 1571 663.5 1641.5Q710 1712 773.5 1762.5Q837 1813 916.0 1841.0Q995 1869 1083 1869H1262Q1322 1869 1374.5 1846.5Q1427 1824 1466.0 1785.0Q1505 1746 1527.5 1693.5Q1550 1641 1550 1581V1294Q1550 1249 1533.0 1210.0Q1516 1171 1486.5 1141.5Q1457 1112 1418.0 1095.0Q1379 1078 1334 1078H1118V571Q1129 582 1138.5 592.5Q1148 603 1158 614Q1219 679 1278.5 737.5Q1338 796 1405.0 840.0Q1472 884 1550.5 909.5Q1629 935 1729 935H1945Q2071 935 2182.5 887.0Q2294 839 2377.0 756.0Q2460 673 2508.0 561.5Q2556 450 2556 324Q2556 235 2533.0 155.0Q2510 75 2467.5 6.0Q2425 -63 2363.5 -119.5Q2302 -176 2225 -219Q2189 -239 2152.0 -254.0Q2115 -269 2077 -283Q1997 -313 1914.5 -340.0Q1832 -367 1748.0 -387.5Q1664 -408 1578.5 -419.5Q1493 -431 1406 -431Z" style="fill:#000000;stroke:none" transform="scale(1,-1) translate(0,-256)" /></svg>