<?xml version="1.0" encoding="utf-8" ?>
<svg baseProfile="full" height="256" version="1.1" width="256" xmlns="http://www.w3.org/2000/svg" xmlns:ev="http://www.w3.org/2001/xml-events" xmlns:xlink="http://www.w3.org/1999/xlink"><defs /><path d="M2017 431Q2031 431 2042.0 420.5Q2053 410 2053 396Q2053 329 2027.5 270.0Q2002 211 1958.0 167.0Q1914 123 1855.0 97.5Q1796 72 1729 72H1370Q1355 72 1344.5 82.5Q1334 93 1334 108Q1334 123 1344.5 133.5Q1355 144 1370 144H1729Q1781 144 1827.0 164.0Q1873 184 1907.0 218.0Q1941 252 1961.0 298.0Q1981 344 1981 396Q1981 410 1992.0 420.5Q2003 431 2017 431ZM1406 1438V1366H1083Q1060 1366 1040.5 1374.5Q1021 1383 1006.5 1397.5Q992 1412 983.5 1431.5Q975 1451 975 1474Q975 1496 983.5 1516.0Q992 1536 1007.0 1550.0Q1022 1564 1041.5 1572.5Q1061 1581 1083 1581Q1105 1581 1124.5 1572.5Q1144 1564 1158.5 1549.5Q1173 1535 1181.5 1515.5Q1190 1496 1190 1474V1438Z" style="fill:#d48c00;stroke:none" transform="scale(1,-1) translate(0,-256)" /></svg>