<?xml version="1.0" encoding="utf-8" ?>
<svg baseProfile="full" height="256" version="1.1" width="256" xmlns="http://www.w3.org/2000/svg" xmlns:ev="http://www.w3.org/2001/xml-events" xmlns:xlink="http://www.w3.org/1999/xlink"><defs /><path d="M687 288H472L400 1725H759ZM759 -108Q759 -145 745.0 -177.5Q731 -210 706.5 -234.5Q682 -259 649.0 -273.0Q616 -287 579 -287Q542 -287 509.5 -273.0Q477 -259 452.5 -234.5Q428 -210 414.0 -177.5Q400 -145 400 -108Q400 -71 414.0 -38.0Q428 -5 452.5 19.5Q477 44 509.5 58.0Q542 72 579 72Q616 72 649.0 58.0Q682 44 706.5 19.5Q731 -5 745.0 -38.0Q759 -71 759 -108Z" style="fill:#f2f2f2;stroke:none" transform="scale(1,-1) translate(0,-256)" /></svg>