<?xml version="1.0" encoding="utf-8" ?>
<svg baseProfile="full" height="256" version="1.1" width="256" xmlns="http://www.w3.org/2000/svg" xmlns:ev="http://www.w3.org/2001/xml-events" xmlns:xlink="http://www.w3.org/1999/xlink"><defs /><path d="M1654 556Q1757 530 1844.0 472.5Q1931 415 1993.0 335.0Q2055 255 2090.0 157.0Q2125 59 2125 -48V-431H256V-48Q256 31 275.0 105.5Q294 180 330.0 247.0Q366 314 418.0 370.5Q470 427 536 471Q581 501 627.5 520.5Q674 540 726 555L728 556Q640 646 591.5 763.0Q543 880 543 1006H400V1150Q400 1228 438.5 1294.5Q477 1361 545 1400Q551 1474 581.0 1540.5Q611 1607 659.5 1659.5Q708 1712 772.0 1746.5Q836 1781 910 1792L987 1869H1394L1470 1792Q1544 1781 1608.5 1746.5Q1673 1712 1721.5 1660.0Q1770 1608 1800.0 1541.5Q1830 1475 1836 1400Q1903 1361 1942.0 1294.5Q1981 1228 1981 1150V1006H1837Q1838 879 1790.0 763.0Q1742 647 1654 556Z" style="fill:#000000;stroke:none" transform="scale(1,-1) translate(0,-256)" /></svg>