<?xml version="1.0" encoding="utf-8" ?>
<svg baseProfile="full" height="256" version="1.1" width="256" xmlns="http://www.w3.org/2000/svg" xmlns:ev="http://www.w3.org/2001/xml-events" xmlns:xlink="http://www.w3.org/1999/xlink"><defs /><path d="M1688 935Q1675 842 1631.0 763.0Q1587 684 1520.0 626.0Q1453 568 1368.5 535.5Q1284 503 1190 503Q1096 503 1011.5 535.5Q927 568 860.5 626.0Q794 684 750.0 763.0Q706 842 693 935Q713 953 718.0 970.5Q723 988 723 1013Q723 1040 723.0 1076.5Q723 1113 725.5 1151.5Q728 1190 734.0 1225.0Q740 1260 753 1284Q786 1344 832.5 1384.5Q879 1425 934.5 1450.5Q990 1476 1052.5 1487.0Q1115 1498 1179 1498Q1254 1498 1329.5 1488.0Q1405 1478 1470.0 1449.5Q1535 1421 1585.5 1370.5Q1636 1320 1662 1239Q1667 1225 1667 1205Q1667 1180 1662.0 1156.5Q1657 1133 1657 1108Q1657 1084 1657.5 1060.5Q1658 1037 1658 1013Q1658 988 1663.0 970.0Q1668 952 1688 935ZM1442 144H939L975 431H1406Z" style="fill:#ffc83d;stroke:none" transform="scale(1,-1) translate(0,-256)" /></svg>