<?xml version="1.0" encoding="utf-8" ?>
<svg baseProfile="full" height="256" version="1.1" width="256" xmlns="http://www.w3.org/2000/svg" xmlns:ev="http://www.w3.org/2001/xml-events" xmlns:xlink="http://www.w3.org/1999/xlink"><defs /><path d="M1837 1150H543Q543 1180 554.5 1206.0Q566 1232 585.5 1251.5Q605 1271 631.0 1282.5Q657 1294 687 1294V1366Q687 1426 709.5 1478.0Q732 1530 771.0 1569.0Q810 1608 862.5 1630.5Q915 1653 975 1653L1011 1623L1047 1725H1334L1370 1623L1406 1653Q1466 1653 1518.0 1630.5Q1570 1608 1609.0 1569.0Q1648 1530 1670.5 1478.0Q1693 1426 1693 1366V1294Q1723 1294 1749.0 1282.5Q1775 1271 1794.5 1251.5Q1814 1232 1825.5 1206.0Q1837 1180 1837 1150ZM831 429V-287H687V391Q758 420 831 429ZM1693 391V-287H1550V429Q1625 421 1693 391Z" style="fill:#fce100;stroke:none" transform="scale(1,-1) translate(0,-256)" /></svg>