<?xml version="1.0" encoding="utf-8" ?>
<svg baseProfile="full" height="256" version="1.1" width="256" xmlns="http://www.w3.org/2000/svg" xmlns:ev="http://www.w3.org/2001/xml-events" xmlns:xlink="http://www.w3.org/1999/xlink"><defs /><path d="M759 1285V935H693Q687 969 687 1006V1222H690Q699 1222 706.5 1231.5Q714 1241 722.0 1252.5Q730 1264 739.0 1274.0Q748 1284 759 1285ZM1693 1222V1006Q1693 988 1692.0 970.0Q1691 952 1688 935H1622V1266L1626 1267Q1634 1267 1642.5 1259.0Q1651 1251 1659.5 1242.0Q1668 1233 1676.5 1226.5Q1685 1220 1693 1222Z" style="fill:#8e562e;stroke:none" transform="scale(1,-1) translate(0,-256)" /></svg>