<?xml version="1.0" encoding="utf-8" ?>
<svg baseProfile="full" height="256" version="1.1" width="256" xmlns="http://www.w3.org/2000/svg" xmlns:ev="http://www.w3.org/2001/xml-events" xmlns:xlink="http://www.w3.org/1999/xlink"><defs /><path d="M1190 647Q1175 647 1151.0 652.5Q1127 658 1103.5 668.5Q1080 679 1063.0 694.0Q1046 709 1046 727Q1046 741 1056.5 751.0Q1067 761 1081 761Q1090 761 1099.5 754.0Q1109 747 1121.0 739.0Q1133 731 1149.5 724.0Q1166 717 1190 717Q1214 717 1230.5 724.0Q1247 731 1259.5 739.0Q1272 747 1281.5 754.0Q1291 761 1300 761Q1314 761 1324.0 751.0Q1334 741 1334 727Q1334 708 1317.0 693.5Q1300 679 1277.0 668.5Q1254 658 1229.5 652.5Q1205 647 1190 647ZM1261 935Q1261 906 1240.0 884.5Q1219 863 1190 863Q1160 863 1139.0 884.0Q1118 905 1118 935Z" style="fill:#f7894a;stroke:none" transform="scale(1,-1) translate(0,-256)" /></svg>