<?xml version="1.0" encoding="utf-8" ?>
<svg baseProfile="full" height="256" version="1.1" width="256" xmlns="http://www.w3.org/2000/svg" xmlns:ev="http://www.w3.org/2001/xml-events" xmlns:xlink="http://www.w3.org/1999/xlink"><defs /><path d="M1981 -48V-287H1837L1622 -166L1335 -287H1046L795 -166L543 -287H400V-48Q400 49 437.0 137.0Q474 225 543 293Q559 287 581.0 279.5Q603 272 625.5 265.5Q648 259 670.5 254.5Q693 250 711 250Q737 250 759 264Q768 270 788.0 292.5Q808 315 830.0 342.0Q852 369 872.5 394.0Q893 419 902 431H975Q975 386 992.0 347.0Q1009 308 1038.0 279.0Q1067 250 1106.0 233.0Q1145 216 1190 216Q1235 216 1274.0 233.0Q1313 250 1342.5 279.0Q1372 308 1389.0 347.0Q1406 386 1406 431H1478Q1492 419 1514.5 400.5Q1537 382 1561.0 363.0Q1585 344 1608.0 328.0Q1631 312 1646 306Q1658 301 1673.0 298.0Q1688 295 1704.0 293.5Q1720 292 1735.5 291.5Q1751 291 1764 291Q1801 291 1837 294Q1906 226 1943.5 137.5Q1981 49 1981 -48Z" style="fill:#3a96dd;stroke:none" transform="scale(1,-1) translate(0,-256)" /></svg>