<?xml version="1.0" encoding="utf-8" ?>
<svg baseProfile="full" height="256" version="1.1" width="256" xmlns="http://www.w3.org/2000/svg" xmlns:ev="http://www.w3.org/2001/xml-events" xmlns:xlink="http://www.w3.org/1999/xlink"><defs /><path d="M1837 293V-287H1693L1622 -210L1550 -287H1335L1478 431H1501Q1513 431 1525.5 431.0Q1538 431 1550 429Q1554 419 1563.0 408.0Q1572 397 1582.5 388.0Q1593 379 1605.0 373.5Q1617 368 1629 368Q1646 368 1662.5 374.0Q1679 380 1693 391Q1706 385 1727.5 373.5Q1749 362 1770.5 348.0Q1792 334 1810.5 319.5Q1829 305 1837 293ZM1046 -287H831L759 -210L687 -287H543V293Q604 354 687 391Q700 377 717.0 364.0Q734 351 754 351Q769 351 781.0 359.0Q793 367 802.5 379.0Q812 391 819.0 404.5Q826 418 831 429Q846 427 866.0 429.0Q886 431 902 431Z" style="fill:#f7894a;stroke:none" transform="scale(1,-1) translate(0,-256)" /></svg>