<?xml version="1.0" encoding="utf-8" ?>
<svg baseProfile="full" height="256" version="1.1" width="256" xmlns="http://www.w3.org/2000/svg" xmlns:ev="http://www.w3.org/2001/xml-events" xmlns:xlink="http://www.w3.org/1999/xlink"><defs /><path d="M1406 647Q1439 647 1455.0 666.0Q1471 685 1478 714L1484 743Q1492 782 1501.0 816.0Q1510 850 1525.5 879.5Q1541 909 1567.0 933.5Q1593 958 1635 977Q1698 1006 1766 1006Q1825 1006 1877.5 983.5Q1930 961 1969.0 922.0Q2008 883 2030.5 830.5Q2053 778 2053 719V588Q2053 528 2031.0 473.5Q2009 419 1970.5 378.0Q1932 337 1879.0 312.5Q1826 288 1765 288Q1714 288 1667.5 305.0Q1621 322 1583.5 353.0Q1546 384 1520.0 426.0Q1494 468 1484 518L1468 513Q1478 476 1478 433Q1478 373 1455.0 320.0Q1432 267 1392.5 228.0Q1353 189 1300.0 166.5Q1247 144 1187 144Q1098 144 1020.5 178.5Q943 213 884.5 271.5Q826 330 792.5 408.5Q759 487 759 575Q759 605 780.0 626.0Q801 647 831 647Q861 647 882.0 626.0Q903 605 903 575Q903 518 925.0 466.0Q947 414 985.5 374.5Q1024 335 1075.0 311.5Q1126 288 1184 288Q1213 288 1240.0 299.0Q1267 310 1288.0 329.5Q1309 349 1321.5 375.0Q1334 401 1334 431Q1334 482 1318.0 515.5Q1302 549 1278.0 573.5Q1254 598 1226.0 617.0Q1198 636 1174.0 659.0Q1150 682 1134.0 713.0Q1118 744 1118 791H1154Q1173 791 1192.5 793.0Q1212 795 1227.5 802.5Q1243 810 1252.5 824.5Q1262 839 1262 863Q1262 892 1240.5 913.5Q1219 935 1190 935Q1164 935 1141.5 922.0Q1119 909 1102 889L991 980Q1029 1025 1079.5 1052.0Q1130 1079 1190 1079Q1235 1079 1274.5 1062.0Q1314 1045 1343.0 1015.5Q1372 986 1389.0 946.5Q1406 907 1406 862Q1406 819 1389.5 779.5Q1373 740 1343 710Q1377 681 1406 647ZM1909 575V719Q1909 749 1897.5 775.0Q1886 801 1866.5 820.5Q1847 840 1821.0 851.5Q1795 863 1765 863Q1735 863 1709.0 851.5Q1683 840 1663.5 820.5Q1644 801 1633.0 775.0Q1622 749 1622 719V575Q1622 545 1633.0 519.0Q1644 493 1663.5 473.5Q1683 454 1709.0 442.5Q1735 431 1765 431Q1795 431 1821.0 442.5Q1847 454 1866.5 473.5Q1886 493 1897.5 519.0Q1909 545 1909 575ZM1689 1178Q1719 1178 1739.5 1158.0Q1760 1138 1760 1108Q1760 1078 1738.5 1058.5Q1717 1039 1686.0 1027.0Q1655 1015 1622.0 1010.5Q1589 1006 1567 1006Q1538 1006 1509.5 1011.5Q1481 1017 1458.0 1030.0Q1435 1043 1420.5 1065.5Q1406 1088 1406 1123Q1406 1145 1414.5 1165.5Q1423 1186 1438 1202Q1464 1177 1498.0 1163.5Q1532 1150 1568 1150Q1584 1150 1599.0 1154.5Q1614 1159 1628.5 1164.0Q1643 1169 1658.0 1173.5Q1673 1178 1689 1178ZM1550 1222Q1520 1222 1499.0 1243.0Q1478 1264 1478 1294Q1478 1324 1499.0 1345.0Q1520 1366 1550 1366Q1579 1366 1600.5 1344.5Q1622 1323 1622 1294Q1622 1265 1600.5 1243.5Q1579 1222 1550 1222Z" style="fill:#ffffff;stroke:none" transform="scale(1,-1) translate(0,-256)" /></svg>