<?xml version="1.0" encoding="utf-8" ?>
<svg baseProfile="full" height="256" version="1.1" width="256" xmlns="http://www.w3.org/2000/svg" xmlns:ev="http://www.w3.org/2001/xml-events" xmlns:xlink="http://www.w3.org/1999/xlink"><defs /><path d="M2257 -204Q2231 -215 2197 -215Q2154 -215 2117.0 -195.5Q2080 -176 2053 -143Q2026 -175 1989.0 -195.0Q1952 -215 1909 -215Q1866 -215 1829.0 -195.0Q1792 -175 1765 -143Q1739 -176 1702.0 -195.5Q1665 -215 1622 -215Q1579 -215 1542.0 -195.5Q1505 -176 1478 -143Q1451 -175 1414.0 -195.0Q1377 -215 1334 -215Q1291 -215 1254.0 -195.0Q1217 -175 1190 -143Q1164 -176 1127.0 -195.5Q1090 -215 1047 -215Q1004 -215 967.0 -195.5Q930 -176 903 -143Q876 -175 839.0 -195.0Q802 -215 759 -215Q716 -215 679.0 -195.0Q642 -175 615 -143Q589 -176 552.0 -195.5Q515 -215 472 -215Q562 -128 667.0 -61.0Q772 6 886.5 51.5Q1001 97 1123.0 120.5Q1245 144 1370 144Q1493 144 1613.5 121.5Q1734 99 1847.0 55.0Q1960 11 2063.5 -54.0Q2167 -119 2257 -204Z" style="fill:#ffb900;stroke:none" transform="scale(1,-1) translate(0,-256)" /></svg>