<?xml version="1.0" encoding="utf-8" ?>
<svg baseProfile="full" height="256" version="1.1" width="256" xmlns="http://www.w3.org/2000/svg" xmlns:ev="http://www.w3.org/2001/xml-events" xmlns:xlink="http://www.w3.org/1999/xlink"><defs /><path d="M1765 -64Q1765 -69 1761.5 -70.5Q1758 -72 1754 -72H1693Q1692 -75 1688.0 -86.5Q1684 -98 1678.5 -111.0Q1673 -124 1667.5 -134.0Q1662 -144 1657 -144Q1652 -144 1646.5 -134.0Q1641 -124 1636.0 -111.0Q1631 -98 1627.0 -86.5Q1623 -75 1622 -72H1561Q1557 -72 1553.5 -70.5Q1550 -69 1550 -64Q1550 -60 1557.5 -52.0Q1565 -44 1574.0 -35.0Q1583 -26 1592.0 -19.0Q1601 -12 1604 -9Q1602 -3 1599.0 7.0Q1596 17 1593.0 28.0Q1590 39 1588.0 48.5Q1586 58 1586 63Q1586 72 1593 72Q1596 72 1605.5 67.0Q1615 62 1625.5 56.0Q1636 50 1645.0 44.0Q1654 38 1658 36Q1662 38 1671.0 44.0Q1680 50 1690.0 56.0Q1700 62 1709.0 67.0Q1718 72 1722 72Q1729 72 1729 63Q1729 47 1724.0 28.0Q1719 9 1716 -7Q1719 -10 1727.0 -17.5Q1735 -25 1743.5 -34.0Q1752 -43 1758.5 -51.5Q1765 -60 1765 -64Z" style="fill:#f7630c;stroke:none" transform="scale(1,-1) translate(0,-256)" /></svg>