<?xml version="1.0" encoding="utf-8" ?>
<svg baseProfile="full" height="256" version="1.1" width="256" xmlns="http://www.w3.org/2000/svg" xmlns:ev="http://www.w3.org/2001/xml-events" xmlns:xlink="http://www.w3.org/1999/xlink"><defs /><path d="M1334 1006Q1334 976 1322.5 950.0Q1311 924 1291.5 904.5Q1272 885 1246.0 874.0Q1220 863 1190 863Q1160 863 1134.0 874.0Q1108 885 1088.5 904.5Q1069 924 1058.0 950.0Q1047 976 1047 1006Q1047 1057 1079 1097L1108 1067L1191 1150Q1221 1150 1247.0 1138.5Q1273 1127 1292.5 1107.5Q1312 1088 1323.0 1062.0Q1334 1036 1334 1006ZM1622 1078Q1622 1048 1610.5 1022.0Q1599 996 1579.5 976.5Q1560 957 1534.0 946.0Q1508 935 1478 935Q1448 935 1422.0 946.0Q1396 957 1376.5 976.5Q1357 996 1345.5 1022.0Q1334 1048 1334 1078Q1334 1120 1357.0 1155.5Q1380 1191 1418 1209L1560 1067L1615 1122Q1618 1111 1620.0 1100.0Q1622 1089 1622 1078Z" style="fill:#613d30;stroke:none" transform="scale(1,-1) translate(0,-256)" /></svg>