<?xml version="1.0" encoding="utf-8" ?>
<svg baseProfile="full" height="256" version="1.1" width="256" xmlns="http://www.w3.org/2000/svg" xmlns:ev="http://www.w3.org/2001/xml-events" xmlns:xlink="http://www.w3.org/1999/xlink"><defs /><path d="M1226 -431Q1132 -431 1045.0 -406.5Q958 -382 882.0 -337.5Q806 -293 743.5 -230.5Q681 -168 636.5 -92.0Q592 -16 567.5 71.0Q543 158 543 252V372L271 1100Q256 1142 256 1188Q256 1239 276.0 1284.5Q296 1330 330.5 1364.0Q365 1398 410.5 1418.0Q456 1438 507 1438Q547 1438 584.5 1425.5Q622 1413 654 1390Q651 1410 648.0 1430.5Q645 1451 645 1472Q645 1524 664.5 1570.5Q684 1617 717.5 1651.0Q751 1685 797.0 1705.0Q843 1725 896 1725Q946 1725 990.5 1706.5Q1035 1688 1071 1654Q1087 1686 1111.0 1712.5Q1135 1739 1164.5 1757.5Q1194 1776 1228.0 1786.5Q1262 1797 1298 1797Q1346 1797 1388.5 1780.0Q1431 1763 1464.5 1733.5Q1498 1704 1520.0 1663.5Q1542 1623 1548 1576Q1583 1612 1630.5 1632.5Q1678 1653 1729 1653Q1780 1653 1826.0 1633.5Q1872 1614 1906.5 1580.0Q1941 1546 1961.0 1501.0Q1981 1456 1981 1404Q1981 1376 1975 1349L1844 703Q1870 724 1893.0 740.5Q1916 757 1940.0 768.0Q1964 779 1991.0 785.0Q2018 791 2053 791Q2113 791 2165.0 768.5Q2217 746 2256.0 707.0Q2295 668 2317.5 615.5Q2340 563 2340 503Q2340 445 2319.0 393.0Q2298 341 2256 300L1707 -233Q1607 -330 1486.5 -380.5Q1366 -431 1226 -431Z" style="fill:#000000;stroke:none" transform="scale(1,-1) translate(0,-256)" /></svg>