<?xml version="1.0" encoding="utf-8" ?>
<svg baseProfile="full" height="256" version="1.1" width="256" xmlns="http://www.w3.org/2000/svg" xmlns:ev="http://www.w3.org/2001/xml-events" xmlns:xlink="http://www.w3.org/1999/xlink"><defs /><path d="M2197 503Q2197 475 2186.0 448.5Q2175 422 2155 402L1607 -130Q1529 -206 1432.0 -246.5Q1335 -287 1226 -287Q1114 -287 1016.0 -244.5Q918 -202 845.0 -129.0Q772 -56 729.5 42.0Q687 140 687 252V398L406 1150Q399 1169 399 1187Q399 1209 407.5 1228.5Q416 1248 431.0 1262.5Q446 1277 465.5 1285.5Q485 1294 507 1294Q542 1294 569.0 1274.0Q596 1254 609 1222L793 778Q793 777 793.5 776.5Q794 776 794 775Q802 757 810.5 746.0Q819 735 842 735Q859 735 876.0 748.5Q893 762 893 780V785L789 1459Q788 1464 788 1474Q788 1496 796.5 1516.0Q805 1536 819.5 1550.0Q834 1564 853.5 1572.5Q873 1581 896 1581Q938 1581 967.0 1556.0Q996 1531 1003 1489L1107 862Q1111 841 1119.0 831.5Q1127 822 1150 822Q1167 822 1178.5 834.0Q1190 846 1190 863V1546Q1190 1568 1198.5 1587.5Q1207 1607 1222.0 1621.5Q1237 1636 1256.5 1644.5Q1276 1653 1298 1653Q1320 1653 1339.5 1644.5Q1359 1636 1374.0 1621.5Q1389 1607 1397.5 1587.5Q1406 1568 1406 1546V863Q1406 846 1417.5 834.0Q1429 822 1446 822Q1466 822 1477.5 833.0Q1489 844 1494 863L1624 1424Q1633 1462 1661.5 1486.0Q1690 1510 1729 1510Q1751 1510 1771.0 1501.0Q1791 1492 1805.5 1477.0Q1820 1462 1828.5 1442.0Q1837 1422 1837 1400Q1837 1395 1836.5 1389.5Q1836 1384 1835 1379L1657 503L1637 474Q1638 465 1646.0 455.0Q1654 445 1664.5 437.5Q1675 430 1686.5 425.0Q1698 420 1707 420Q1733 420 1755 439L1951 605Q1975 625 1998.0 636.0Q2021 647 2053 647Q2083 647 2109.0 635.5Q2135 624 2154.5 604.5Q2174 585 2185.5 559.0Q2197 533 2197 503Z" style="fill:#ffc83d;stroke:none" transform="scale(1,-1) translate(0,-256)" /></svg>