<?xml version="1.0" encoding="utf-8" ?>
<svg baseProfile="full" height="256" version="1.1" width="256" xmlns="http://www.w3.org/2000/svg" xmlns:ev="http://www.w3.org/2001/xml-events" xmlns:xlink="http://www.w3.org/1999/xlink"><defs /><path d="M1047 108Q1047 190 1078.0 262.0Q1109 334 1162.5 387.5Q1216 441 1288.0 472.0Q1360 503 1442 503H1657Q1655 496 1653.0 489.0Q1651 482 1651 474Q1651 463 1657.0 450.0Q1663 437 1674 431H1442Q1375 431 1316.0 405.5Q1257 380 1213.0 336.0Q1169 292 1143.5 233.5Q1118 175 1118 108Q1118 93 1107.5 82.5Q1097 72 1082 72Q1068 72 1057.5 83.0Q1047 94 1047 108Z" style="fill:#d48c00;stroke:none" transform="scale(1,-1) translate(0,-256)" /></svg>