<?xml version="1.0" encoding="utf-8" ?>
<svg baseProfile="full" height="256" version="1.1" width="256" xmlns="http://www.w3.org/2000/svg" xmlns:ev="http://www.w3.org/2001/xml-events" xmlns:xlink="http://www.w3.org/1999/xlink"><defs /><path d="M903 1725Q948 1725 987.0 1708.0Q1026 1691 1055.0 1662.0Q1084 1633 1101.0 1594.0Q1118 1555 1118 1510V1438Q1118 1420 1115 1402Q1101 1403 1092.0 1413.5Q1083 1424 1083 1438Q1083 1467 1061.5 1488.5Q1040 1510 1011 1510H903Q875 1510 854.0 1528.5Q833 1547 831 1575V1474Q798 1474 778.5 1496.5Q759 1519 759 1550V1554Q734 1531 729.0 1505.0Q724 1479 723.0 1456.5Q722 1434 718.0 1418.5Q714 1403 690 1402Q687 1420 687 1438V1510Q687 1555 704.0 1594.0Q721 1633 750.5 1662.0Q780 1691 819.0 1708.0Q858 1725 903 1725Z" style="fill:#8e562e;stroke:none" transform="scale(1,-1) translate(0,-256)" /></svg>