<?xml version="1.0" encoding="utf-8" ?>
<svg baseProfile="full" height="256" version="1.1" width="256" xmlns="http://www.w3.org/2000/svg" xmlns:ev="http://www.w3.org/2001/xml-events" xmlns:xlink="http://www.w3.org/1999/xlink"><defs /><path d="M1011 1438Q1025 1438 1036.0 1427.0Q1047 1416 1047 1402Q1047 1388 1036.0 1377.0Q1025 1366 1011 1366Q996 1366 985.5 1376.5Q975 1387 975 1402Q975 1417 985.5 1427.5Q996 1438 1011 1438ZM795 1438Q810 1438 820.5 1427.5Q831 1417 831 1402Q831 1387 820.5 1376.5Q810 1366 795 1366Q780 1366 769.5 1376.5Q759 1387 759 1402Q759 1417 769.5 1427.5Q780 1438 795 1438Z" style="fill:#000000;stroke:none" transform="scale(1,-1) translate(0,-256)" /></svg>