<?xml version="1.0" encoding="utf-8" ?>
<svg baseProfile="full" height="256" version="1.1" width="256" xmlns="http://www.w3.org/2000/svg" xmlns:ev="http://www.w3.org/2001/xml-events" xmlns:xlink="http://www.w3.org/1999/xlink"><defs /><path d="M1218 1265Q1269 1239 1307.5 1195.5Q1346 1152 1364 1097L1539 571Q1550 536 1550 504Q1550 459 1533.0 419.5Q1516 380 1487.0 351.0Q1458 322 1418.5 305.0Q1379 288 1334 288Q1296 288 1262 300V-127Q1296 -157 1315.0 -199.0Q1334 -241 1334 -287V-431H472Q472 -406 471.0 -381.0Q470 -356 470 -331Q470 -303 472.5 -275.0Q475 -247 483.0 -221.5Q491 -196 505.5 -172.0Q520 -148 544 -127V300Q509 288 472 288Q427 288 388.0 304.5Q349 321 319.5 350.5Q290 380 273.0 419.0Q256 458 256 503Q256 536 267 571L442 1097Q460 1152 498.5 1195.5Q537 1239 588 1265Q566 1305 555.0 1349.0Q544 1393 544 1438V1510Q544 1584 572.0 1649.5Q600 1715 649.0 1763.5Q698 1812 763.5 1840.5Q829 1869 903 1869Q977 1869 1042.5 1840.5Q1108 1812 1156.5 1763.5Q1205 1715 1233.5 1649.5Q1262 1584 1262 1510V1494Q1262 1462 1261.5 1433.5Q1261 1405 1256.5 1377.5Q1252 1350 1243.0 1322.5Q1234 1295 1218 1265Z" style="fill:#000000;stroke:none" transform="scale(1,-1) translate(0,-256)" /></svg>