<?xml version="1.0" encoding="utf-8" ?>
<svg baseProfile="full" height="256" version="1.1" width="256" xmlns="http://www.w3.org/2000/svg" xmlns:ev="http://www.w3.org/2001/xml-events" xmlns:xlink="http://www.w3.org/1999/xlink"><defs /><path d="M1032 1150Q1063 1150 1093.0 1148.5Q1123 1147 1148.5 1137.5Q1174 1128 1194.5 1108.0Q1215 1088 1227 1052L1315 791L1250 735L1163 791L1118 922V575Q1111 574 1093.5 570.5Q1076 567 1053.5 563.0Q1031 559 1006.5 555.0Q982 551 960.5 547.5Q939 544 923.0 541.5Q907 539 903 539Q898 539 882.5 541.5Q867 544 845.5 547.5Q824 551 799.0 555.0Q774 559 751.5 563.0Q729 567 711.5 570.5Q694 574 687 575V922L642 791L558 747L491 791L578 1052Q593 1097 630.5 1123.5Q668 1150 715 1150H795L903 1096L1011 1150Z" style="fill:#00b294;stroke:none" transform="scale(1,-1) translate(0,-256)" /></svg>