<?xml version="1.0" encoding="utf-8" ?>
<svg baseProfile="full" height="256" version="1.1" width="256" xmlns="http://www.w3.org/2000/svg" xmlns:ev="http://www.w3.org/2001/xml-events" xmlns:xlink="http://www.w3.org/1999/xlink"><defs /><path d="M1550 1078Q1550 980 1518.0 890.0Q1486 800 1429.0 726.5Q1372 653 1292.5 599.5Q1213 546 1118 522V360H1334V72H1118V-215H831V72H615V360H831V522Q736 546 657.0 599.5Q578 653 521.0 726.5Q464 800 432.0 890.0Q400 980 400 1078Q400 1197 445.5 1301.5Q491 1406 569.0 1484.0Q647 1562 751.5 1607.5Q856 1653 975 1653Q1094 1653 1198.5 1607.5Q1303 1562 1381.0 1484.0Q1459 1406 1504.5 1301.5Q1550 1197 1550 1078ZM687 1078Q687 1019 710.0 966.5Q733 914 772.0 875.0Q811 836 863.5 813.5Q916 791 975 791Q1034 791 1086.5 813.5Q1139 836 1178.0 875.0Q1217 914 1239.5 966.5Q1262 1019 1262 1078Q1262 1137 1239.5 1189.5Q1217 1242 1178.0 1281.0Q1139 1320 1086.5 1343.0Q1034 1366 975 1366Q915 1366 862.5 1343.5Q810 1321 771.0 1282.0Q732 1243 709.5 1190.5Q687 1138 687 1078Z" style="fill:#ffb900;stroke:none" transform="scale(1,-1) translate(0,-256)" /></svg>