<?xml version="1.0" encoding="utf-8" ?>
<svg baseProfile="full" height="256" version="1.1" width="256" xmlns="http://www.w3.org/2000/svg" xmlns:ev="http://www.w3.org/2001/xml-events" xmlns:xlink="http://www.w3.org/1999/xlink"><defs /><path d="M1693 1078Q1693 993 1673.5 912.0Q1654 831 1617.0 757.0Q1580 683 1526.5 618.5Q1473 554 1406 503H1478V-72H1262V-359H687V-72H472V503H543Q475 554 422.0 618.5Q369 683 332.0 757.0Q295 831 275.5 912.0Q256 993 256 1078Q256 1177 281.5 1269.0Q307 1361 354.0 1441.0Q401 1521 466.5 1586.5Q532 1652 612.0 1699.0Q692 1746 784.0 1771.5Q876 1797 975 1797Q1074 1797 1165.5 1771.0Q1257 1745 1337.0 1698.5Q1417 1652 1482.5 1586.0Q1548 1520 1595.0 1440.5Q1642 1361 1667.5 1269.0Q1693 1177 1693 1078Z" style="fill:#000000;stroke:none" transform="scale(1,-1) translate(0,-256)" /></svg>