<?xml version="1.0" encoding="utf-8" ?>
<svg baseProfile="full" height="256" version="1.1" width="256" xmlns="http://www.w3.org/2000/svg" xmlns:ev="http://www.w3.org/2001/xml-events" xmlns:xlink="http://www.w3.org/1999/xlink"><defs /><path d="M1550 572Q1611 565 1663.5 537.0Q1716 509 1754.5 466.5Q1793 424 1815.0 368.5Q1837 313 1837 252Q1837 185 1811.5 126.0Q1786 67 1742.0 23.0Q1698 -21 1639.5 -46.5Q1581 -72 1514 -72H1298Q1231 -72 1172.5 -46.5Q1114 -21 1070.0 23.0Q1026 67 1000.5 126.0Q975 185 975 252Q975 313 997.0 368.5Q1019 424 1057.5 466.5Q1096 509 1148.5 537.0Q1201 565 1262 572V1150Q1262 1180 1273.5 1206.0Q1285 1232 1304.5 1251.5Q1324 1271 1350.0 1282.5Q1376 1294 1406 1294Q1436 1294 1462.0 1282.5Q1488 1271 1507.5 1251.5Q1527 1232 1538.5 1206.0Q1550 1180 1550 1150Z" style="fill:#ffffff;stroke:none" transform="scale(1,-1) translate(0,-256)" /></svg>