<?xml version="1.0" encoding="utf-8" ?>
<svg baseProfile="full" height="256" version="1.1" width="256" xmlns="http://www.w3.org/2000/svg" xmlns:ev="http://www.w3.org/2001/xml-events" xmlns:xlink="http://www.w3.org/1999/xlink"><defs /><path d="M1778 1549Q1794 1547 1827.5 1542.0Q1861 1537 1903.0 1530.5Q1945 1524 1990.5 1515.0Q2036 1506 2075.0 1496.5Q2114 1487 2141.5 1476.0Q2169 1465 2175 1454Q2181 1443 2182.0 1429.5Q2183 1416 2183 1404Q2183 1310 2170.5 1217.5Q2158 1125 2142 1032L2289 682Q2340 562 2340 431Q2340 297 2289.0 179.5Q2238 62 2150.5 -26.0Q2063 -114 1945.0 -164.5Q1827 -215 1693 -215H1118Q984 -215 866.5 -164.5Q749 -114 661.0 -26.0Q573 62 522.5 179.5Q472 297 472 431Q472 499 485.0 560.0Q498 621 524 684L669 1032Q658 1113 650.0 1194.0Q642 1275 642 1357Q642 1378 643.5 1399.0Q645 1420 653 1440Q657 1449 676.0 1459.0Q695 1469 723.0 1478.0Q751 1487 784.0 1495.5Q817 1504 848.5 1511.5Q880 1519 906.0 1524.0Q932 1529 946 1532Q949 1532 962.0 1534.0Q975 1536 990.0 1539.0Q1005 1542 1018.0 1545.0Q1031 1548 1033 1549Q1057 1560 1079.5 1573.0Q1102 1586 1126 1596Q1193 1625 1263.5 1639.0Q1334 1653 1406 1653Q1505 1653 1599.0 1626.5Q1693 1600 1778 1549Z" style="fill:#cccccc;stroke:none" transform="scale(1,-1) translate(0,-256)" /></svg>