<?xml version="1.0" encoding="utf-8" ?>
<svg baseProfile="full" height="256" version="1.1" width="256" xmlns="http://www.w3.org/2000/svg" xmlns:ev="http://www.w3.org/2001/xml-events" xmlns:xlink="http://www.w3.org/1999/xlink"><defs /><path d="M1762 1720Q1819 1758 1884.0 1777.5Q1949 1797 2017 1797H2556Q2556 1772 2556.5 1747.0Q2557 1722 2557 1697Q2557 1662 2554.0 1629.5Q2551 1597 2543.0 1567.0Q2535 1537 2521.0 1508.0Q2507 1479 2484 1451V1330Q2484 1227 2442.0 1135.0Q2400 1043 2322 976Q2350 910 2378.5 844.0Q2407 778 2430.5 710.5Q2454 643 2469.0 573.5Q2484 504 2484 431Q2484 322 2455.5 221.5Q2427 121 2375.5 33.0Q2324 -55 2251.5 -127.0Q2179 -199 2091.5 -250.5Q2004 -302 1903.0 -330.5Q1802 -359 1693 -359H1118Q1009 -359 908.5 -330.5Q808 -302 720.0 -250.5Q632 -199 560.0 -127.0Q488 -55 436.5 33.0Q385 121 356.5 221.5Q328 322 328 431Q328 506 342.5 575.5Q357 645 380.0 711.5Q403 778 432.0 843.5Q461 909 490 976Q412 1043 370.0 1135.0Q328 1227 328 1330V1451Q305 1479 290.5 1508.0Q276 1537 268.0 1567.5Q260 1598 257.5 1630.5Q255 1663 255 1698Q255 1723 255.5 1747.5Q256 1772 256 1797H795Q863 1797 928.0 1777.5Q993 1758 1050 1720Q1134 1758 1224.0 1777.5Q1314 1797 1406 1797Q1498 1797 1588.0 1777.5Q1678 1758 1762 1720Z" style="fill:#000000;stroke:none" transform="scale(1,-1) translate(0,-256)" /></svg>