<?xml version="1.0" encoding="utf-8" ?>
<svg baseProfile="full" height="256" version="1.1" width="256" xmlns="http://www.w3.org/2000/svg" xmlns:ev="http://www.w3.org/2001/xml-events" xmlns:xlink="http://www.w3.org/1999/xlink"><defs /><path d="M939 935Q961 935 980.5 926.5Q1000 918 1015.0 903.0Q1030 888 1038.5 868.5Q1047 849 1047 827V683Q1047 661 1038.5 641.5Q1030 622 1015.0 607.0Q1000 592 980.5 583.5Q961 575 939 575Q916 575 896.5 583.5Q877 592 862.5 606.5Q848 621 839.5 640.5Q831 660 831 683V827Q831 849 839.5 868.5Q848 888 863.0 903.0Q878 918 897.5 926.5Q917 935 939 935ZM1873 935Q1895 935 1914.5 926.5Q1934 918 1949.0 903.0Q1964 888 1972.5 868.5Q1981 849 1981 827V683Q1981 660 1972.5 640.5Q1964 621 1949.5 606.5Q1935 592 1915.0 583.5Q1895 575 1873 575Q1851 575 1831.5 583.5Q1812 592 1797.0 607.0Q1782 622 1773.5 641.5Q1765 661 1765 683V827Q1765 849 1773.5 868.5Q1782 888 1797.0 903.0Q1812 918 1831.5 926.5Q1851 935 1873 935ZM1190 418 1338 244Q1351 230 1369.0 223.0Q1387 216 1406 216Q1425 216 1443.0 223.0Q1461 230 1474 244L1622 418V360Q1622 315 1605.0 276.0Q1588 237 1558.5 207.5Q1529 178 1490.0 161.0Q1451 144 1406 144Q1361 144 1322.0 161.0Q1283 178 1253.5 207.5Q1224 237 1207.0 276.0Q1190 315 1190 360Z" style="fill:#000000;stroke:none" transform="scale(1,-1) translate(0,-256)" /></svg>