<?xml version="1.0" encoding="utf-8" ?>
<svg baseProfile="full" height="256" version="1.1" width="256" xmlns="http://www.w3.org/2000/svg" xmlns:ev="http://www.w3.org/2001/xml-events" xmlns:xlink="http://www.w3.org/1999/xlink"><defs /><path d="M1406 863Q1451 863 1490.0 846.0Q1529 829 1558.5 799.5Q1588 770 1605.0 731.0Q1622 692 1622 647V418L1537 221Q1525 210 1507.5 204.0Q1490 198 1470.0 195.0Q1450 192 1430.5 191.5Q1411 191 1396 191Q1382 191 1366.0 191.5Q1350 192 1334.0 194.5Q1318 197 1303.0 202.0Q1288 207 1277 216L1190 418V647Q1190 692 1207.0 731.0Q1224 770 1253.5 799.5Q1283 829 1322.0 846.0Q1361 863 1406 863ZM795 1653Q863 1653 925.0 1626.5Q987 1600 1033 1549Q1006 1532 979.0 1513.0Q952 1494 929 1472Q925 1469 923.5 1466.0Q922 1463 917 1461L719 1377V1164L669 1032Q624 1051 587.5 1081.5Q551 1112 525.5 1151.0Q500 1190 486.0 1235.5Q472 1281 472 1330V1510Q440 1536 420.0 1573.5Q400 1611 400 1653ZM2017 1653H2412Q2412 1611 2392.0 1573.5Q2372 1536 2340 1510V1330Q2340 1281 2326.0 1235.5Q2312 1190 2286.5 1151.0Q2261 1112 2224.5 1081.5Q2188 1051 2143 1032L2087 1164L2122 1416L1894 1461Q1840 1512 1779 1549Q1825 1600 1887.0 1626.5Q1949 1653 2017 1653Z" style="fill:#757575;stroke:none" transform="scale(1,-1) translate(0,-256)" /></svg>