<?xml version="1.0" encoding="utf-8" ?>
<svg baseProfile="full" height="256" version="1.1" width="256" xmlns="http://www.w3.org/2000/svg" xmlns:ev="http://www.w3.org/2001/xml-events" xmlns:xlink="http://www.w3.org/1999/xlink"><defs /><path d="M1190 1438H2268V1222H1190V-287H1118V-215L975 -287H903V1222H400V1294L472 1438H903V1510L975 1653V1725H1118V1653L1190 1510ZM1765 1294H2053L2017 1366H1729ZM1118 1078V1222L975 1150ZM975 647 1118 719 975 791ZM1118 791V935L975 863ZM1118 -72V72L975 0ZM975 72 1118 144 975 216ZM1118 216V360L975 288ZM1118 503V647L975 575ZM975 360 1118 431 975 503ZM975 -215 1118 -144 975 -72ZM1047 1653 975 1510H1118ZM975 935 1118 1006 975 1078ZM1406 1294H1478L1514 1366H1370ZM831 1294H975L939 1366H867ZM1190 1294H1334L1298 1366H1226ZM687 1294H759L795 1366H651ZM1550 1294H1693L1658 1366H1586ZM1047 1294H1118L1154 1366H1011ZM472 1294H615L579 1366H508ZM2197 1294V1366H2089L2125 1294Z" style="fill:#ffc83d;stroke:none" transform="scale(1,-1) translate(0,-256)" /></svg>