<?xml version="1.0" encoding="utf-8" ?>
<svg baseProfile="full" height="256" version="1.1" width="256" xmlns="http://www.w3.org/2000/svg" xmlns:ev="http://www.w3.org/2001/xml-events" xmlns:xlink="http://www.w3.org/1999/xlink"><defs /><path d="M1154 -72Q1176 -72 1195.5 -80.5Q1215 -89 1230.0 -103.0Q1245 -117 1253.5 -137.0Q1262 -157 1262 -179Q1262 -202 1253.5 -221.5Q1245 -241 1230.5 -255.5Q1216 -270 1196.0 -278.5Q1176 -287 1154 -287Q1131 -287 1111.5 -278.5Q1092 -270 1078.0 -255.0Q1064 -240 1055.5 -220.5Q1047 -201 1047 -179Q1047 -157 1055.5 -137.5Q1064 -118 1078.5 -103.5Q1093 -89 1112.5 -80.5Q1132 -72 1154 -72ZM1514 -72Q1536 -72 1555.5 -80.5Q1575 -89 1590.0 -103.5Q1605 -118 1613.5 -137.5Q1622 -157 1622 -179Q1622 -201 1613.5 -220.5Q1605 -240 1590.0 -255.0Q1575 -270 1555.5 -278.5Q1536 -287 1514 -287Q1491 -287 1471.5 -278.5Q1452 -270 1437.5 -255.5Q1423 -241 1414.5 -221.5Q1406 -202 1406 -179Q1406 -157 1414.5 -137.0Q1423 -117 1438.0 -103.0Q1453 -89 1472.5 -80.5Q1492 -72 1514 -72ZM2233 -72Q2255 -72 2274.5 -80.5Q2294 -89 2308.5 -103.5Q2323 -118 2331.5 -137.5Q2340 -157 2340 -179Q2340 -201 2331.5 -220.5Q2323 -240 2309.0 -255.0Q2295 -270 2275.0 -278.5Q2255 -287 2233 -287Q2210 -287 2190.5 -278.5Q2171 -270 2156.5 -255.5Q2142 -241 2133.5 -221.5Q2125 -202 2125 -179Q2125 -157 2133.5 -137.0Q2142 -117 2157.0 -103.0Q2172 -89 2191.5 -80.5Q2211 -72 2233 -72Z" style="fill:#757575;stroke:none" transform="scale(1,-1) translate(0,-256)" /></svg>