<?xml version="1.0" encoding="utf-8" ?>
<svg baseProfile="full" height="256" version="1.1" width="256" xmlns="http://www.w3.org/2000/svg" xmlns:ev="http://www.w3.org/2001/xml-events" xmlns:xlink="http://www.w3.org/1999/xlink"><defs /><path d="M2412 863Q2403 852 2396.5 833.0Q2390 814 2386.5 793.0Q2383 772 2381.5 751.0Q2380 730 2380 716Q2380 701 2381.5 681.5Q2383 662 2386.5 642.5Q2390 623 2396.5 605.5Q2403 588 2412 575V144L2374 84H958L903 144V431Q925 447 941.0 472.5Q957 498 967.0 526.5Q977 555 981.5 585.0Q986 615 986 641Q986 668 981.0 699.5Q976 731 966.0 761.5Q956 792 940.5 818.5Q925 845 903 863V1006L994 1086H2362L2412 1006Z" style="fill:#f2f2f2;stroke:none" transform="scale(1,-1) translate(0,-256)" /></svg>