<?xml version="1.0" encoding="utf-8" ?>
<svg baseProfile="full" height="256" version="1.1" width="256" xmlns="http://www.w3.org/2000/svg" xmlns:ev="http://www.w3.org/2001/xml-events" xmlns:xlink="http://www.w3.org/1999/xlink"><defs /><path d="M1478 216H1190Q1161 216 1139.5 237.5Q1118 259 1118 288V863Q1118 892 1139.5 913.5Q1161 935 1190 935H1478Q1507 935 1528.5 913.5Q1550 892 1550 863V288Q1550 259 1528.5 237.5Q1507 216 1478 216ZM1154 -215Q1140 -215 1129.0 -204.0Q1118 -193 1118 -179Q1118 -165 1129.0 -154.5Q1140 -144 1154 -144H1514Q1528 -144 1539.0 -154.5Q1550 -165 1550 -179Q1550 -194 1539.5 -204.5Q1529 -215 1514 -215ZM2233 -215Q2218 -215 2207.5 -204.5Q2197 -194 2197 -179Q2197 -165 2208.0 -154.5Q2219 -144 2233 -144H2412V-215Z" style="fill:#cccccc;stroke:none" transform="scale(1,-1) translate(0,-256)" /></svg>