<?xml version="1.0" encoding="utf-8" ?>
<svg baseProfile="full" height="256" version="1.1" width="256" xmlns="http://www.w3.org/2000/svg" xmlns:ev="http://www.w3.org/2001/xml-events" xmlns:xlink="http://www.w3.org/1999/xlink"><defs /><path d="M2053 1078 1765 791V1006H1047V791L759 1078L1047 1366V1150H1765V1366ZM1039 17Q988 17 947.5 34.0Q907 51 878.5 81.5Q850 112 835.0 153.5Q820 195 820 245Q820 297 835.5 341.0Q851 385 880.0 417.0Q909 449 951.0 467.0Q993 485 1047 485Q1098 485 1138.5 467.5Q1179 450 1206.5 419.0Q1234 388 1248.5 345.5Q1263 303 1263 254Q1263 203 1248.0 159.5Q1233 116 1204.0 84.5Q1175 53 1133.5 35.0Q1092 17 1039 17ZM1752 24H1649Q1595 105 1541.0 183.5Q1487 262 1439 347Q1441 328 1441.0 310.0Q1441 292 1441 273V24H1344V477H1454Q1505 399 1557.0 322.5Q1609 246 1657 165Q1655 176 1655.0 185.5Q1655 195 1655 206V477H1752ZM1044 397Q1013 397 991.0 384.5Q969 372 954.5 351.0Q940 330 933.5 303.5Q927 277 927 250Q927 223 933.5 197.0Q940 171 953.5 150.5Q967 130 989.0 117.5Q1011 105 1041 105Q1072 105 1094.0 117.0Q1116 129 1130.0 149.0Q1144 169 1150.0 194.5Q1156 220 1156 248Q1156 275 1150.5 301.5Q1145 328 1132.0 349.5Q1119 371 1097.5 384.0Q1076 397 1044 397ZM1962 477 1950 165H1869L1857 477ZM1910 17Q1887 17 1869.5 31.5Q1852 46 1852 70Q1852 95 1869.5 108.0Q1887 121 1910 121Q1934 121 1951.0 108.5Q1968 96 1968 70Q1968 45 1950.5 31.0Q1933 17 1910 17Z" style="fill:#ffffff;stroke:none" transform="scale(1,-1) translate(0,-256)" /></svg>