<?xml version="1.0" encoding="utf-8" ?>
<svg baseProfile="full" height="256" version="1.1" width="256" xmlns="http://www.w3.org/2000/svg" xmlns:ev="http://www.w3.org/2001/xml-events" xmlns:xlink="http://www.w3.org/1999/xlink"><defs /><path d="M1557 177Q1546 150 1526.0 133.0Q1506 116 1475 116Q1449 116 1430.5 126.0Q1412 136 1400.5 152.5Q1389 169 1383.5 190.5Q1378 212 1378 235Q1378 263 1385.5 292.0Q1393 321 1408.5 344.5Q1424 368 1447.5 383.0Q1471 398 1504 398Q1524 398 1540.0 390.0Q1556 382 1563 362L1567 393H1638Q1633 348 1628.5 305.0Q1624 262 1624 217Q1624 211 1624.5 203.5Q1625 196 1627.5 189.0Q1630 182 1635.0 177.5Q1640 173 1648 173Q1667 173 1678.5 187.0Q1690 201 1696.0 220.0Q1702 239 1704.0 259.5Q1706 280 1706 294Q1706 334 1692.5 365.5Q1679 397 1655.5 418.5Q1632 440 1599.5 451.0Q1567 462 1528 462Q1482 462 1443.5 445.0Q1405 428 1377.0 399.0Q1349 370 1333.5 330.0Q1318 290 1318 245Q1318 199 1332.5 164.0Q1347 129 1373.0 105.0Q1399 81 1436.0 68.5Q1473 56 1517 56Q1587 56 1647 84V23Q1614 9 1578.5 4.5Q1543 0 1508 0Q1451 0 1403.0 16.5Q1355 33 1320.0 64.5Q1285 96 1265.0 142.0Q1245 188 1245 247Q1245 307 1266.5 357.0Q1288 407 1325.5 443.0Q1363 479 1414.0 498.5Q1465 518 1524 518Q1575 518 1621.0 504.0Q1667 490 1702.0 462.5Q1737 435 1757.5 393.5Q1778 352 1778 297Q1778 264 1768.5 231.5Q1759 199 1740.5 173.5Q1722 148 1694.0 132.0Q1666 116 1629 116Q1601 116 1580.0 131.5Q1559 147 1557 177ZM1191 397 1178 340H1120L1103 262H1168L1154 205H1091L1066 96H1003L1026 205H954L930 96H867L890 205H831L843 262H902L919 340H855L866 397H930L954 510H1019L995 397H1068L1092 510H1156L1132 397ZM1978 512 1965 200H1884L1873 512ZM1515 344Q1497 344 1484.5 332.5Q1472 321 1464.5 304.0Q1457 287 1454.0 268.5Q1451 250 1451 236Q1451 226 1453.0 214.5Q1455 203 1460.0 193.5Q1465 184 1473.5 178.0Q1482 172 1494 172Q1514 172 1526.5 184.5Q1539 197 1546.0 215.5Q1553 234 1555.5 254.0Q1558 274 1558 289Q1558 309 1548.0 326.5Q1538 344 1515 344ZM1926 52Q1903 52 1885.5 66.5Q1868 81 1868 105Q1868 130 1885.5 143.5Q1903 157 1926 157Q1949 157 1966.0 143.0Q1983 129 1983 105Q1983 80 1966.5 66.0Q1950 52 1926 52ZM1056 340H983L966 262H1038Z" style="fill:#ffffff;stroke:none" transform="scale(1,-1) translate(0,-256)" /></svg>