<?xml version="1.0" encoding="utf-8" ?>
<svg baseProfile="full" height="256" version="1.1" width="256" xmlns="http://www.w3.org/2000/svg" xmlns:ev="http://www.w3.org/2001/xml-events" xmlns:xlink="http://www.w3.org/1999/xlink"><defs /><path d="M2197 -72H615V575H2197ZM903 1510Q933 1510 954 1489L1241 1201Q1262 1180 1262 1150Q1262 1120 1241.0 1099.0Q1220 1078 1190 1078Q1161 1078 1140 1099L852 1387Q831 1408 831 1438Q831 1467 852.5 1488.5Q874 1510 903 1510ZM1909 1510Q1938 1510 1959.5 1488.5Q1981 1467 1981 1438Q1981 1408 1960 1387L1672 1099Q1651 1078 1622 1078Q1592 1078 1571.0 1099.0Q1550 1120 1550 1150Q1550 1180 1571 1201L1858 1489Q1879 1510 1909 1510ZM1801 1078Q1823 1078 1842.5 1069.5Q1862 1061 1877.0 1047.0Q1892 1033 1900.5 1013.0Q1909 993 1909 971V827Q1909 804 1900.5 784.5Q1892 765 1877.5 750.5Q1863 736 1843.0 727.5Q1823 719 1801 719Q1779 719 1759.5 727.5Q1740 736 1725.0 751.0Q1710 766 1701.5 785.5Q1693 805 1693 827V971Q1693 993 1701.5 1012.5Q1710 1032 1725.0 1046.5Q1740 1061 1759.5 1069.5Q1779 1078 1801 1078ZM1011 1078Q1033 1078 1052.5 1069.5Q1072 1061 1086.5 1046.5Q1101 1032 1109.5 1012.5Q1118 993 1118 971V827Q1118 805 1109.5 785.5Q1101 766 1087.0 751.0Q1073 736 1053.0 727.5Q1033 719 1011 719Q988 719 968.5 727.5Q949 736 934.5 750.5Q920 765 911.5 784.5Q903 804 903 827V971Q903 993 911.5 1013.0Q920 1033 935.0 1047.0Q950 1061 969.5 1069.5Q989 1078 1011 1078Z" style="fill:#000000;stroke:none" transform="scale(1,-1) translate(0,-256)" /></svg>