<?xml version="1.0" encoding="utf-8" ?>
<svg baseProfile="full" height="256" version="1.1" width="256" xmlns="http://www.w3.org/2000/svg" xmlns:ev="http://www.w3.org/2001/xml-events" xmlns:xlink="http://www.w3.org/1999/xlink"><defs /><path d="M2125 1294Q2214 1294 2292.5 1260.0Q2371 1226 2429.5 1167.5Q2488 1109 2522.0 1030.5Q2556 952 2556 863V647Q2556 528 2510.5 423.5Q2465 319 2387.0 241.0Q2309 163 2204.5 117.5Q2100 72 1981 72H903Q784 72 679.5 117.5Q575 163 497.0 241.0Q419 319 373.5 423.5Q328 528 328 647V918Q294 948 275.0 990.0Q256 1032 256 1078V1222H415Q493 1291 591.5 1328.5Q690 1366 795 1366Q900 1366 998.5 1328.5Q1097 1291 1175 1222H1334V1078Q1334 1060 1331 1042Q1375 1017 1407.5 979.5Q1440 942 1458 895Q1477 883 1495 863H1732Q1758 908 1798.0 940.5Q1838 973 1886 990Q1837 1062 1837 1150V1294H2125Z" style="fill:#000000;stroke:none" transform="scale(1,-1) translate(0,-256)" /></svg>