<?xml version="1.0" encoding="utf-8" ?>
<svg baseProfile="full" height="256" version="1.1" width="256" xmlns="http://www.w3.org/2000/svg" xmlns:ev="http://www.w3.org/2001/xml-events" xmlns:xlink="http://www.w3.org/1999/xlink"><defs /><path d="M1118 835 1068 770Q1058 757 1052.5 746.5Q1047 736 1047 719Q1047 690 1025.5 668.5Q1004 647 975 647H687Q663 647 648.5 656.0Q634 665 626.5 679.5Q619 694 616.5 712.5Q614 731 614 750Q614 761 614.5 771.5Q615 782 615 791L491 863Q472 895 472 935V1006Q472 1024 472.5 1042.0Q473 1060 474 1078Q536 1147 619.0 1184.5Q702 1222 795 1222Q889 1222 972.5 1184.0Q1056 1146 1118 1076ZM2053 863V843Q2020 824 2000.5 790.5Q1981 757 1981 719Q1981 689 1969.5 662.5Q1958 636 1938.5 616.5Q1919 597 1893.0 586.0Q1867 575 1837 575Q1807 575 1781.0 563.5Q1755 552 1735.5 532.5Q1716 513 1704.5 487.0Q1693 461 1693 431H984Q1031 433 1069.0 451.5Q1107 470 1134.0 501.0Q1161 532 1175.5 572.5Q1190 613 1190 659L1224 719Q1224 746 1210.5 767.5Q1197 789 1168 791H1334Q1364 791 1385.0 770.0Q1406 749 1406 719H1837Q1837 749 1848.5 775.0Q1860 801 1879.5 820.5Q1899 840 1925.0 851.5Q1951 863 1981 863Z" style="fill:#bb9167;stroke:none" transform="scale(1,-1) translate(0,-256)" /></svg>