<?xml version="1.0" encoding="utf-8" ?>
<svg baseProfile="full" height="256" version="1.1" width="256" xmlns="http://www.w3.org/2000/svg" xmlns:ev="http://www.w3.org/2001/xml-events" xmlns:xlink="http://www.w3.org/1999/xlink"><defs /><path d="M795 1078Q817 1078 836.5 1069.5Q856 1061 871.0 1047.0Q886 1033 894.5 1013.0Q903 993 903 971V935Q903 905 924.0 884.0Q945 863 975 863H1118V791H615Q577 791 544.0 810.5Q511 830 491 863H615Q645 863 666.0 884.0Q687 905 687 935V971Q687 993 695.5 1013.0Q704 1033 719.0 1047.0Q734 1061 753.5 1069.5Q773 1078 795 1078Z" style="fill:#d8b094;stroke:none" transform="scale(1,-1) translate(0,-256)" /></svg>