<?xml version="1.0" encoding="utf-8" ?>
<svg baseProfile="full" height="256" version="1.1" width="256" xmlns="http://www.w3.org/2000/svg" xmlns:ev="http://www.w3.org/2001/xml-events" xmlns:xlink="http://www.w3.org/1999/xlink"><defs /><path d="M975 1042Q975 1057 985.5 1067.5Q996 1078 1011 1078Q1025 1078 1036.0 1067.0Q1047 1056 1047 1042V1006Q1047 992 1036.0 981.5Q1025 971 1011 971Q997 971 986.0 981.5Q975 992 975 1006ZM543 1006Q543 992 554.0 981.5Q565 971 579 971Q593 971 604.0 981.5Q615 992 615 1006V1042Q615 1057 604.5 1067.5Q594 1078 579 1078Q565 1078 554.0 1067.0Q543 1056 543 1042Z" style="fill:#000000;stroke:none" transform="scale(1,-1) translate(0,-256)" /></svg>