<?xml version="1.0" encoding="utf-8" ?>
<svg baseProfile="full" height="256" version="1.1" width="256" xmlns="http://www.w3.org/2000/svg" xmlns:ev="http://www.w3.org/2001/xml-events" xmlns:xlink="http://www.w3.org/1999/xlink"><defs /><path d="M1118 935Q1165 935 1205.0 919.0Q1245 903 1273.5 874.0Q1302 845 1318.0 805.5Q1334 766 1334 719Q1334 689 1313.0 668.0Q1292 647 1262 647Q1224 647 1190 659V676Q1190 695 1188.5 715.5Q1187 736 1180.5 753.0Q1174 770 1159.5 780.5Q1145 791 1118 791Q1089 791 1068 770Q1047 813 1047 863Q1047 892 1068.0 913.5Q1089 935 1118 935Z" style="fill:#bac8cc;stroke:none" transform="scale(1,-1) translate(0,-256)" /></svg>