<?xml version="1.0" encoding="utf-8" ?>
<svg baseProfile="full" height="256" version="1.1" width="256" xmlns="http://www.w3.org/2000/svg" xmlns:ev="http://www.w3.org/2001/xml-events" xmlns:xlink="http://www.w3.org/1999/xlink"><defs /><path d="M2125 1150Q2184 1150 2236.5 1127.5Q2289 1105 2328.0 1066.0Q2367 1027 2389.5 974.5Q2412 922 2412 863V647Q2412 558 2378.0 479.5Q2344 401 2285.5 342.5Q2227 284 2148.5 250.0Q2070 216 1981 216H903Q814 216 735.5 250.0Q657 284 598.5 342.5Q540 401 506.0 479.5Q472 558 472 647V935H1118L1406 647H1837L1909 818L2053 843Q2087 863 2125 863H2197Q2197 853 2197.5 843.0Q2198 833 2198 822Q2198 804 2196.0 787.0Q2194 770 2187.5 755.5Q2181 741 2168.0 731.5Q2155 722 2134 719Q2162 721 2186.5 733.0Q2211 745 2229.0 764.5Q2247 784 2257.5 809.0Q2268 834 2268 863Q2268 893 2257.0 919.0Q2246 945 2226.5 964.5Q2207 984 2181.0 995.0Q2155 1006 2125 1006Q2095 1006 2069.0 1017.5Q2043 1029 2023.5 1048.5Q2004 1068 1992.5 1094.0Q1981 1120 1981 1150ZM472 1006Q443 1006 421.5 1027.5Q400 1049 400 1078H579V1006ZM1011 1006V1078H1190Q1190 1049 1168.5 1027.5Q1147 1006 1118 1006Z" style="fill:#8e562e;stroke:none" transform="scale(1,-1) translate(0,-256)" /></svg>