<?xml version="1.0" encoding="utf-8" ?>
<svg baseProfile="full" height="256" version="1.1" width="256" xmlns="http://www.w3.org/2000/svg" xmlns:ev="http://www.w3.org/2001/xml-events" xmlns:xlink="http://www.w3.org/1999/xlink"><defs /><path d="M745 204 903 288V108Q903 85 894.5 65.5Q886 46 871.5 31.5Q857 17 837.0 8.5Q817 0 795 0Q772 0 752.5 8.5Q733 17 718.5 31.5Q704 46 695.5 65.5Q687 85 687 108Q687 138 703.0 163.5Q719 189 745 204ZM1895 204 2053 288V108Q2053 85 2044.5 65.5Q2036 46 2021.5 31.5Q2007 17 1987.0 8.5Q1967 0 1945 0Q1922 0 1902.5 8.5Q1883 17 1868.5 31.5Q1854 46 1845.5 65.5Q1837 85 1837 108Q1837 138 1853.0 163.5Q1869 189 1895 204ZM1320 204 1478 288V108Q1478 85 1469.5 65.5Q1461 46 1446.5 31.5Q1432 17 1412.0 8.5Q1392 0 1370 0Q1347 0 1327.5 8.5Q1308 17 1293.5 31.5Q1279 46 1270.5 65.5Q1262 85 1262 108Q1262 138 1278.0 163.5Q1294 189 1320 204ZM903 -179Q903 -148 918.5 -123.0Q934 -98 961 -84L1118 0V-179Q1118 -201 1109.5 -220.5Q1101 -240 1087.0 -255.0Q1073 -270 1053.0 -278.5Q1033 -287 1011 -287Q988 -287 968.5 -278.5Q949 -270 934.5 -255.5Q920 -241 911.5 -221.5Q903 -202 903 -179ZM1478 -179Q1478 -148 1493.5 -123.0Q1509 -98 1536 -84L1693 0V-179Q1693 -201 1684.5 -220.5Q1676 -240 1662.0 -255.0Q1648 -270 1628.0 -278.5Q1608 -287 1586 -287Q1563 -287 1543.5 -278.5Q1524 -270 1509.5 -255.5Q1495 -241 1486.5 -221.5Q1478 -202 1478 -179Z" style="fill:#00bcf2;stroke:none" transform="scale(1,-1) translate(0,-256)" /></svg>