<?xml version="1.0" encoding="utf-8" ?>
<svg baseProfile="full" height="256" version="1.1" width="256" xmlns="http://www.w3.org/2000/svg" xmlns:ev="http://www.w3.org/2001/xml-events" xmlns:xlink="http://www.w3.org/1999/xlink"><defs /><path d="M1047 791Q988 791 935.5 813.5Q883 836 844.0 875.0Q805 914 782.0 966.5Q759 1019 759 1078Q759 1138 781.5 1190.5Q804 1243 843.0 1282.0Q882 1321 934.5 1343.5Q987 1366 1047 1366Q1106 1366 1158.5 1343.0Q1211 1320 1250.0 1281.0Q1289 1242 1311.5 1189.5Q1334 1137 1334 1078Q1334 1019 1311.5 966.5Q1289 914 1250.0 875.0Q1211 836 1158.5 813.5Q1106 791 1047 791Z" style="fill:#fce100;stroke:none" transform="scale(1,-1) translate(0,-256)" /></svg>