<?xml version="1.0" encoding="utf-8" ?>
<svg baseProfile="full" height="256" version="1.1" width="256" xmlns="http://www.w3.org/2000/svg" xmlns:ev="http://www.w3.org/2001/xml-events" xmlns:xlink="http://www.w3.org/1999/xlink"><defs /><path d="M2181 1003Q2261 992 2329.5 954.5Q2398 917 2448.5 860.0Q2499 803 2527.5 730.0Q2556 657 2556 576Q2556 496 2529.0 425.5Q2502 355 2454.0 299.5Q2406 244 2340.0 205.5Q2274 167 2197 152V108Q2197 56 2177.0 10.0Q2157 -36 2123.0 -70.0Q2089 -104 2043.0 -124.0Q1997 -144 1945 -144Q1916 -144 1889.5 -137.0Q1863 -130 1837 -118V-179Q1837 -231 1817.0 -276.5Q1797 -322 1763.0 -356.5Q1729 -391 1683.5 -411.0Q1638 -431 1586 -431Q1534 -431 1488.0 -411.0Q1442 -391 1408.0 -357.0Q1374 -323 1354.0 -277.0Q1334 -231 1334 -179Q1334 -169 1334.0 -159.5Q1334 -150 1335 -140Q1316 -137 1297.5 -131.5Q1279 -126 1262 -118V-179Q1262 -231 1242.0 -276.5Q1222 -322 1188.0 -356.5Q1154 -391 1108.5 -411.0Q1063 -431 1011 -431Q959 -431 913.0 -411.0Q867 -391 833.0 -357.0Q799 -323 779.0 -277.0Q759 -231 759 -179Q759 -169 759.5 -159.5Q760 -150 761 -140Q714 -134 674.5 -112.0Q635 -90 605.5 -57.0Q576 -24 559.5 18.5Q543 61 543 108Q543 148 555.5 185.5Q568 223 591 255Q499 327 449.0 428.5Q399 530 399 647Q399 719 420 788Q403 791 375.5 795.5Q348 800 321.5 809.0Q295 818 275.5 833.5Q256 849 256 875Q256 898 259.0 914.5Q262 931 282 948L429 1078L282 1208Q274 1216 265.0 1230.0Q256 1244 256 1255Q256 1290 269.0 1315.0Q282 1340 320 1348L511 1387Q506 1402 495.0 1432.5Q484 1463 473.0 1496.0Q462 1529 453.5 1558.5Q445 1588 445 1600Q445 1616 451.5 1630.5Q458 1645 469.5 1655.5Q481 1666 495.5 1672.5Q510 1679 526 1679Q538 1679 567.5 1670.5Q597 1662 630.0 1651.0Q663 1640 693.0 1629.0Q723 1618 738 1613L777 1805Q779 1815 785.0 1826.5Q791 1838 800.0 1847.5Q809 1857 820.0 1863.0Q831 1869 843 1869Q866 1869 883.0 1865.5Q900 1862 917 1843L1047 1696L1177 1843Q1185 1851 1198.5 1860.0Q1212 1869 1224 1869Q1259 1869 1283.5 1856.0Q1308 1843 1316 1805L1356 1613Q1371 1618 1401.0 1629.0Q1431 1640 1464.0 1651.0Q1497 1662 1526.0 1670.5Q1555 1679 1567 1679Q1600 1679 1624.0 1655.5Q1648 1632 1648 1599Q1648 1576 1638.5 1551.5Q1629 1527 1621 1506Q1724 1494 1816.0 1452.0Q1908 1410 1981.5 1344.0Q2055 1278 2106.5 1191.0Q2158 1104 2181 1003Z" style="fill:#000000;stroke:none" transform="scale(1,-1) translate(0,-256)" /></svg>