<?xml version="1.0" encoding="utf-8" ?>
<svg baseProfile="full" height="256" version="1.1" width="256" xmlns="http://www.w3.org/2000/svg" xmlns:ev="http://www.w3.org/2001/xml-events" xmlns:xlink="http://www.w3.org/1999/xlink"><defs /><path d="M1118 647Q1118 617 1107.0 591.0Q1096 565 1076.5 545.5Q1057 526 1031.0 514.5Q1005 503 975 503Q945 503 919.0 514.5Q893 526 873.5 545.5Q854 565 842.5 591.0Q831 617 831 647ZM2268 647Q2268 617 2257.0 591.0Q2246 565 2226.5 545.5Q2207 526 2181.0 514.5Q2155 503 2125 503Q2095 503 2069.0 514.5Q2043 526 2023.5 545.5Q2004 565 1992.5 591.0Q1981 617 1981 647ZM1693 647Q1693 617 1682.0 591.0Q1671 565 1651.5 545.5Q1632 526 1606.0 514.5Q1580 503 1550 503Q1520 503 1494.0 514.5Q1468 526 1448.5 545.5Q1429 565 1417.5 591.0Q1406 617 1406 647ZM543 647Q543 617 532.0 591.0Q521 565 501.5 545.5Q482 526 456.0 514.5Q430 503 400 503V647Z" style="fill:#af0d1a;stroke:none" transform="scale(1,-1) translate(0,-256)" /></svg>