<?xml version="1.0" encoding="utf-8" ?>
<svg baseProfile="full" height="256" version="1.1" width="256" xmlns="http://www.w3.org/2000/svg" xmlns:ev="http://www.w3.org/2001/xml-events" xmlns:xlink="http://www.w3.org/1999/xlink"><defs /><path d="M1406 1510 831 647V-287H543V647ZM1981 647V-287H1837L1693 -202V364Q1693 419 1697.0 462.0Q1701 505 1701 550Q1701 573 1699.5 596.5Q1698 620 1693 647Q1685 691 1674.5 725.5Q1664 760 1651.5 792.5Q1639 825 1625.0 859.0Q1611 893 1597 935L1406 1510ZM1406 1510V-202H1118V647Q1118 647 1129.5 682.0Q1141 717 1160.0 774.5Q1179 832 1204.0 906.0Q1229 980 1255.0 1058.0Q1281 1136 1306.5 1212.5Q1332 1289 1353.0 1351.5Q1374 1414 1388.0 1456.5Q1402 1499 1406 1510ZM2412 647H2340V-287H2268V647L1406 1510Z" style="fill:#f2f2f2;stroke:none" transform="scale(1,-1) translate(0,-256)" /></svg>