<?xml version="1.0" encoding="utf-8" ?>
<svg baseProfile="full" height="256" version="1.1" width="256" xmlns="http://www.w3.org/2000/svg" xmlns:ev="http://www.w3.org/2001/xml-events" xmlns:xlink="http://www.w3.org/1999/xlink"><defs /><path d="M1406 -157Q1399 -159 1364.5 -169.5Q1330 -180 1282.0 -194.5Q1234 -209 1180.5 -225.5Q1127 -242 1081.0 -255.5Q1035 -269 1005.0 -278.0Q975 -287 975 -287Q930 -287 891.0 -270.0Q852 -253 822.5 -224.0Q793 -195 776.0 -156.0Q759 -117 759 -72Q848 -72 931.0 -49.0Q1014 -26 1085.5 16.5Q1157 59 1216.0 118.0Q1275 177 1317.5 248.5Q1360 320 1383.0 403.0Q1406 486 1406 575Q1406 486 1429.0 403.0Q1452 320 1494.5 248.5Q1537 177 1596.0 118.0Q1655 59 1726.5 16.5Q1798 -26 1881.0 -49.0Q1964 -72 2053 -72Q2053 -117 2036.0 -156.0Q2019 -195 1989.5 -224.0Q1960 -253 1921.0 -270.0Q1882 -287 1837 -287Q1837 -287 1807.0 -278.0Q1777 -269 1731.0 -255.5Q1685 -242 1631.5 -225.5Q1578 -209 1530.0 -194.5Q1482 -180 1447.5 -169.5Q1413 -159 1406 -157ZM831 647Q831 617 819.5 591.0Q808 565 788.5 545.5Q769 526 743.0 514.5Q717 503 687 503Q657 503 631.0 514.5Q605 526 585.5 545.5Q566 565 554.5 591.0Q543 617 543 647ZM1406 647Q1406 617 1394.5 591.0Q1383 565 1363.5 545.5Q1344 526 1318.0 514.5Q1292 503 1262 503Q1232 503 1206.0 514.5Q1180 526 1160.5 545.5Q1141 565 1129.5 591.0Q1118 617 1118 647ZM1981 647Q1981 617 1969.5 591.0Q1958 565 1938.5 545.5Q1919 526 1893.0 514.5Q1867 503 1837 503Q1807 503 1781.0 514.5Q1755 526 1735.5 545.5Q1716 565 1704.5 591.0Q1693 617 1693 647ZM2412 647V503Q2382 503 2356.0 514.5Q2330 526 2310.5 545.5Q2291 565 2279.5 591.0Q2268 617 2268 647Z" style="fill:#cccccc;stroke:none" transform="scale(1,-1) translate(0,-256)" /></svg>