<?xml version="1.0" encoding="utf-8" ?>
<svg baseProfile="full" height="256" version="1.1" width="256" xmlns="http://www.w3.org/2000/svg" xmlns:ev="http://www.w3.org/2001/xml-events" xmlns:xlink="http://www.w3.org/1999/xlink"><defs /><path d="M1550 1294Q1654 1294 1745.5 1254.5Q1837 1215 1905.5 1146.5Q1974 1078 2013.5 986.5Q2053 895 2053 791Q2053 687 2013.5 595.5Q1974 504 1905.5 435.5Q1837 367 1745.5 327.5Q1654 288 1550 288H975V72L687 360L975 647V431H1550Q1624 431 1689.5 459.5Q1755 488 1803.5 537.0Q1852 586 1880.5 651.5Q1909 717 1909 791Q1909 865 1880.5 930.5Q1852 996 1803.5 1044.5Q1755 1093 1689.5 1121.5Q1624 1150 1550 1150H975V1294Z" style="fill:#ffffff;stroke:none" transform="scale(1,-1) translate(0,-256)" /></svg>