<?xml version="1.0" encoding="utf-8" ?>
<svg baseProfile="full" height="256" version="1.1" width="256" xmlns="http://www.w3.org/2000/svg" xmlns:ev="http://www.w3.org/2001/xml-events" xmlns:xlink="http://www.w3.org/1999/xlink"><defs /><path d="M831 1438Q921 1438 999.5 1404.0Q1078 1370 1136.5 1311.5Q1195 1253 1228.5 1174.5Q1262 1096 1262 1006V144Q1262 55 1228.0 -23.5Q1194 -102 1135.5 -160.5Q1077 -219 998.5 -253.0Q920 -287 831 -287Q742 -287 663.5 -253.0Q585 -219 526.5 -160.5Q468 -102 434.0 -23.5Q400 55 400 144V1006Q400 1096 433.5 1174.5Q467 1253 525.5 1311.5Q584 1370 662.5 1404.0Q741 1438 831 1438ZM1981 1438Q2071 1438 2149.5 1404.0Q2228 1370 2286.5 1311.5Q2345 1253 2378.5 1174.5Q2412 1096 2412 1006V144Q2412 55 2378.0 -23.5Q2344 -102 2285.5 -160.5Q2227 -219 2148.5 -253.0Q2070 -287 1981 -287Q1892 -287 1813.5 -253.0Q1735 -219 1676.5 -160.5Q1618 -102 1584.0 -23.5Q1550 55 1550 144V1006Q1550 1096 1583.5 1174.5Q1617 1253 1675.5 1311.5Q1734 1370 1812.5 1404.0Q1891 1438 1981 1438Z" style="fill:#ffffff;stroke:none" transform="scale(1,-1) translate(0,-256)" /></svg>