<?xml version="1.0" encoding="utf-8" ?>
<svg baseProfile="full" height="256" version="1.1" width="256" xmlns="http://www.w3.org/2000/svg" xmlns:ev="http://www.w3.org/2001/xml-events" xmlns:xlink="http://www.w3.org/1999/xlink"><defs /><path d="M759 719Q833 719 898.5 690.5Q964 662 1012.5 613.5Q1061 565 1089.5 499.5Q1118 434 1118 360Q1118 285 1090.0 219.5Q1062 154 1013.0 105.5Q964 57 899.0 28.5Q834 0 759 0Q685 0 619.5 28.5Q554 57 505.5 106.0Q457 155 428.5 220.5Q400 286 400 360Q400 434 428.5 499.5Q457 565 505.5 613.5Q554 662 619.5 690.5Q685 719 759 719ZM867 360Q889 360 908.5 368.5Q928 377 943.0 391.5Q958 406 966.5 425.5Q975 445 975 467Q975 489 966.5 508.5Q958 528 943.0 543.0Q928 558 908.5 566.5Q889 575 867 575Q844 575 824.5 566.5Q805 558 790.5 543.5Q776 529 767.5 509.0Q759 489 759 467Q759 444 767.5 424.5Q776 405 791.0 391.0Q806 377 825.5 368.5Q845 360 867 360ZM1909 719Q1983 719 2048.5 690.5Q2114 662 2162.5 613.5Q2211 565 2239.5 499.5Q2268 434 2268 360Q2268 285 2240.0 219.5Q2212 154 2163.0 105.5Q2114 57 2049.0 28.5Q1984 0 1909 0Q1835 0 1769.5 28.5Q1704 57 1655.5 106.0Q1607 155 1578.5 220.5Q1550 286 1550 360Q1550 434 1578.5 499.5Q1607 565 1655.5 613.5Q1704 662 1769.5 690.5Q1835 719 1909 719ZM2017 360Q2039 360 2058.5 368.5Q2078 377 2093.0 391.5Q2108 406 2116.5 425.5Q2125 445 2125 467Q2125 489 2116.5 508.5Q2108 528 2093.0 543.0Q2078 558 2058.5 566.5Q2039 575 2017 575Q1994 575 1974.5 566.5Q1955 558 1940.5 543.5Q1926 529 1917.5 509.0Q1909 489 1909 467Q1909 444 1917.5 424.5Q1926 405 1941.0 391.0Q1956 377 1975.5 368.5Q1995 360 2017 360Z" style="fill:#000000;stroke:none" transform="scale(1,-1) translate(0,-256)" /></svg>