<?xml version="1.0" encoding="utf-8" ?>
<svg baseProfile="full" height="256" version="1.1" width="256" xmlns="http://www.w3.org/2000/svg" xmlns:ev="http://www.w3.org/2001/xml-events" xmlns:xlink="http://www.w3.org/1999/xlink"><defs /><path d="M1981 1581Q2099 1581 2204.0 1535.5Q2309 1490 2387.0 1412.0Q2465 1334 2510.5 1229.0Q2556 1124 2556 1006V144Q2556 25 2510.5 -79.5Q2465 -184 2387.0 -262.0Q2309 -340 2204.0 -385.5Q2099 -431 1981 -431Q1862 -431 1757.5 -385.5Q1653 -340 1575.0 -262.0Q1497 -184 1451.5 -79.5Q1406 25 1406 144Q1406 25 1360.5 -79.5Q1315 -184 1237.0 -262.0Q1159 -340 1054.0 -385.5Q949 -431 831 -431Q712 -431 607.5 -385.5Q503 -340 425.0 -262.0Q347 -184 301.5 -79.5Q256 25 256 144V1006Q256 1124 301.5 1229.0Q347 1334 425.0 1412.0Q503 1490 607.5 1535.5Q712 1581 831 1581Q949 1581 1054.0 1535.5Q1159 1490 1237.0 1412.0Q1315 1334 1360.5 1229.0Q1406 1124 1406 1006Q1406 1124 1451.5 1229.0Q1497 1334 1575.0 1412.0Q1653 1490 1757.5 1535.5Q1862 1581 1981 1581Z" style="fill:#000000;stroke:none" transform="scale(1,-1) translate(0,-256)" /></svg>