<?xml version="1.0" encoding="utf-8" ?>
<svg baseProfile="full" height="256" version="1.1" width="256" xmlns="http://www.w3.org/2000/svg" xmlns:ev="http://www.w3.org/2001/xml-events" xmlns:xlink="http://www.w3.org/1999/xlink"><defs /><path d="M1118 0Q1113 4 1100.0 16.5Q1087 29 1070.0 45.5Q1053 62 1034.5 81.0Q1016 100 1001.0 116.0Q986 132 976.0 144.0Q966 156 966 159Q966 173 990.0 182.5Q1014 192 1051.0 198.0Q1088 204 1133.5 207.5Q1179 211 1222.0 212.5Q1265 214 1300.0 214.5Q1335 215 1353 215H1359Q1394 215 1454.0 214.5Q1514 214 1588.5 212.5Q1663 211 1747.5 207.5Q1832 204 1917.0 197.0Q2002 190 2082.5 180.0Q2163 170 2229.5 155.0Q2296 140 2344.0 119.5Q2392 99 2412 72V0Z" style="fill:#0078d7;stroke:none" transform="scale(1,-1) translate(0,-256)" /></svg>