<?xml version="1.0" encoding="utf-8" ?>
<svg baseProfile="full" height="256" version="1.1" width="256" xmlns="http://www.w3.org/2000/svg" xmlns:ev="http://www.w3.org/2001/xml-events" xmlns:xlink="http://www.w3.org/1999/xlink"><defs /><path d="M687 431Q789 456 908.0 473.5Q1027 491 1150.5 501.5Q1274 512 1395.0 516.5Q1516 521 1622 521Q1673 521 1738.5 519.5Q1804 518 1877.0 514.5Q1950 511 2026.0 505.0Q2102 499 2173.0 489.0Q2244 479 2305.5 464.5Q2367 450 2412 431V287Q2412 280 2393.5 272.5Q2375 265 2351.5 259.0Q2328 253 2305.5 248.5Q2283 244 2276 243Q2148 221 2020.0 217.0Q1892 213 1762 213Q1728 213 1670.0 213.5Q1612 214 1539.5 215.0Q1467 216 1385.0 218.0Q1303 220 1220.0 223.5Q1137 227 1058.0 232.5Q979 238 912.5 246.0Q846 254 797.0 264.0Q748 274 726 287Q707 320 697.0 356.5Q687 393 687 431Z" style="fill:#3a96dd;stroke:none" transform="scale(1,-1) translate(0,-256)" /></svg>