<?xml version="1.0" encoding="utf-8" ?>
<svg baseProfile="full" height="256" version="1.1" width="256" xmlns="http://www.w3.org/2000/svg" xmlns:ev="http://www.w3.org/2001/xml-events" xmlns:xlink="http://www.w3.org/1999/xlink"><defs /><path d="M795 1653Q817 1653 836.5 1644.5Q856 1636 871.0 1622.0Q886 1608 894.5 1588.0Q903 1568 903 1546V1438H687V1546Q687 1568 695.5 1588.0Q704 1608 719.0 1622.0Q734 1636 753.5 1644.5Q773 1653 795 1653ZM2017 1653Q2039 1653 2058.5 1644.5Q2078 1636 2093.0 1621.5Q2108 1607 2116.5 1587.5Q2125 1568 2125 1546V1438H1909V1546Q1909 1568 1917.5 1588.0Q1926 1608 1941.0 1622.0Q1956 1636 1975.5 1644.5Q1995 1653 2017 1653Z" style="fill:#2b2b2b;stroke:none" transform="scale(1,-1) translate(0,-256)" /></svg>