<?xml version="1.0" encoding="utf-8" ?>
<svg baseProfile="full" height="256" version="1.1" width="256" xmlns="http://www.w3.org/2000/svg" xmlns:ev="http://www.w3.org/2001/xml-events" xmlns:xlink="http://www.w3.org/1999/xlink"><defs /><path d="M1406 1294Q1451 1294 1490.0 1277.0Q1529 1260 1558.5 1230.5Q1588 1201 1605.0 1162.0Q1622 1123 1622 1078Q1622 1033 1605.0 994.0Q1588 955 1558.5 926.0Q1529 897 1490.0 880.0Q1451 863 1406 863Q1361 863 1322.0 880.0Q1283 897 1253.5 926.0Q1224 955 1207.0 994.0Q1190 1033 1190 1078Q1190 1123 1207.0 1162.0Q1224 1201 1253.5 1230.5Q1283 1260 1322.0 1277.0Q1361 1294 1406 1294Z" style="fill:#757575;stroke:none" transform="scale(1,-1) translate(0,-256)" /></svg>