<?xml version="1.0" encoding="utf-8" ?>
<svg baseProfile="full" height="256" version="1.1" width="256" xmlns="http://www.w3.org/2000/svg" xmlns:ev="http://www.w3.org/2001/xml-events" xmlns:xlink="http://www.w3.org/1999/xlink"><defs /><path d="M2017 1869Q2084 1869 2142.5 1843.5Q2201 1818 2245.0 1774.0Q2289 1730 2314.5 1671.5Q2340 1613 2340 1546V791H2556V-431H256V791H472V1546Q472 1613 497.5 1671.5Q523 1730 567.0 1774.0Q611 1818 669.5 1843.5Q728 1869 795 1869Q858 1869 915.0 1845.5Q972 1822 1015.5 1781.5Q1059 1741 1086.5 1686.0Q1114 1631 1118 1568L1406 1857L1694 1568Q1698 1631 1725.5 1686.0Q1753 1741 1796.5 1781.5Q1840 1822 1897.0 1845.5Q1954 1869 2017 1869Z" style="fill:#000000;stroke:none" transform="scale(1,-1) translate(0,-256)" /></svg>