<?xml version="1.0" encoding="utf-8" ?>
<svg baseProfile="full" height="256" version="1.1" width="256" xmlns="http://www.w3.org/2000/svg" xmlns:ev="http://www.w3.org/2001/xml-events" xmlns:xlink="http://www.w3.org/1999/xlink"><defs /><path d="M795 1725Q832 1725 865.0 1711.0Q898 1697 922.5 1672.5Q947 1648 961.0 1615.5Q975 1583 975 1546V1006L955 971L975 935V647L945 614L975 575V-287H615V935L631 971L615 1006V1546Q615 1583 629.0 1615.5Q643 1648 667.5 1672.5Q692 1697 725.0 1711.0Q758 1725 795 1725ZM2017 1725Q2054 1725 2087.0 1711.0Q2120 1697 2144.5 1672.5Q2169 1648 2183.0 1615.5Q2197 1583 2197 1546V1006L2173 978L2197 935V-287H1837V575L1865 611L1837 647V935L1859 971L1837 1006V1546Q1837 1583 1851.0 1615.5Q1865 1648 1889.5 1672.5Q1914 1697 1947.0 1711.0Q1980 1725 2017 1725ZM1118 -144V-72H1693V-144Z" style="fill:#f2f2f2;stroke:none" transform="scale(1,-1) translate(0,-256)" /></svg>