<?xml version="1.0" encoding="utf-8" ?>
<svg baseProfile="full" height="256" version="1.1" width="256" xmlns="http://www.w3.org/2000/svg" xmlns:ev="http://www.w3.org/2001/xml-events" xmlns:xlink="http://www.w3.org/1999/xlink"><defs /><path d="M795 503Q817 503 836.5 494.5Q856 486 871.0 472.0Q886 458 894.5 438.0Q903 418 903 396V-72H687V396Q687 418 695.5 438.0Q704 458 719.0 472.0Q734 486 753.5 494.5Q773 503 795 503ZM2017 503Q2039 503 2058.5 494.5Q2078 486 2093.0 471.5Q2108 457 2116.5 437.5Q2125 418 2125 396V-72H1909V396Q1909 418 1917.5 438.0Q1926 458 1941.0 472.0Q1956 486 1975.5 494.5Q1995 503 2017 503Z" style="fill:#f4abba;stroke:none" transform="scale(1,-1) translate(0,-256)" /></svg>