<?xml version="1.0" encoding="utf-8" ?>
<svg baseProfile="full" height="256" version="1.1" width="256" xmlns="http://www.w3.org/2000/svg" xmlns:ev="http://www.w3.org/2001/xml-events" xmlns:xlink="http://www.w3.org/1999/xlink"><defs /><path d="M400 575 1079 671Q1121 677 1163.5 685.0Q1206 693 1248.0 700.5Q1290 708 1332.5 713.5Q1375 719 1418 719Q1460 719 1501.5 713.5Q1543 708 1584.0 700.5Q1625 693 1666.5 685.0Q1708 677 1749 671L2412 575V-215L1741 -248Q1656 -252 1573.5 -258.5Q1491 -265 1406 -265Q1321 -265 1238.5 -258.5Q1156 -252 1071 -248L400 -215Z" style="fill:#cccccc;stroke:none" transform="scale(1,-1) translate(0,-256)" /></svg>