<?xml version="1.0" encoding="utf-8" ?>
<svg baseProfile="full" height="256" version="1.1" width="256" xmlns="http://www.w3.org/2000/svg" xmlns:ev="http://www.w3.org/2001/xml-events" xmlns:xlink="http://www.w3.org/1999/xlink"><defs /><path d="M400 -287V-215Q544 -215 686.0 -215.5Q828 -216 972 -216Q1051 -216 1129.5 -207.5Q1208 -199 1286 -191Q1316 -188 1346.0 -183.5Q1376 -179 1406 -179Q1436 -179 1466.0 -183.5Q1496 -188 1526 -191Q1604 -199 1681.5 -208.5Q1759 -218 1837 -218Q1873 -218 1909.0 -216.5Q1945 -215 1981 -215H2412V-287H2197Q2186 -287 2160.0 -283.0Q2134 -279 2105.0 -273.0Q2076 -267 2050.0 -261.0Q2024 -255 2012 -251Q1995 -256 1971.5 -262.0Q1948 -268 1923.5 -273.5Q1899 -279 1876.0 -283.0Q1853 -287 1837 -287H975Q969 -287 943.0 -280.5Q917 -274 886.0 -266.0Q855 -258 826.5 -250.5Q798 -243 788 -240Q776 -243 750.0 -250.5Q724 -258 696.0 -266.0Q668 -274 644.5 -280.5Q621 -287 615 -287Z" style="fill:#757575;stroke:none" transform="scale(1,-1) translate(0,-256)" /></svg>