<?xml version="1.0" encoding="utf-8" ?>
<svg baseProfile="full" height="256" version="1.1" width="256" xmlns="http://www.w3.org/2000/svg" xmlns:ev="http://www.w3.org/2001/xml-events" xmlns:xlink="http://www.w3.org/1999/xlink"><defs /><path d="M1047 -215V-144Q1059 -144 1070.5 -144.5Q1082 -145 1094 -145Q1100 -145 1106.0 -145.0Q1112 -145 1118 -144L1310 -120Q1334 -117 1358.0 -112.5Q1382 -108 1406 -108Q1430 -108 1454.0 -112.5Q1478 -117 1502 -120L1693 -144Q1699 -145 1705.0 -145.0Q1711 -145 1717 -145Q1729 -145 1741.0 -144.5Q1753 -144 1765 -144V-215Z" style="fill:#cccccc;stroke:none" transform="scale(1,-1) translate(0,-256)" /></svg>