<?xml version="1.0" encoding="utf-8" ?>
<svg baseProfile="full" height="256" version="1.1" width="256" xmlns="http://www.w3.org/2000/svg" xmlns:ev="http://www.w3.org/2001/xml-events" xmlns:xlink="http://www.w3.org/1999/xlink"><defs /><path d="M1693 1366Q1722 1366 1743.5 1344.5Q1765 1323 1765 1294V144Q1765 114 1744.0 93.0Q1723 72 1693 72H1118Q1089 72 1068.0 93.5Q1047 115 1047 144V1294Q1047 1323 1068.0 1344.5Q1089 1366 1118 1366ZM1693 288V1150H1118V288ZM1298 1294Q1283 1294 1272.5 1283.5Q1262 1273 1262 1258Q1262 1243 1272.5 1232.5Q1283 1222 1298 1222H1514Q1529 1222 1539.5 1232.5Q1550 1243 1550 1258Q1550 1273 1539.5 1283.5Q1529 1294 1514 1294ZM1406 144Q1421 144 1431.5 154.5Q1442 165 1442 180Q1442 195 1431.5 205.5Q1421 216 1406 216Q1391 216 1380.5 205.5Q1370 195 1370 180Q1370 165 1380.5 154.5Q1391 144 1406 144Z" style="fill:#000000;stroke:none" transform="scale(1,-1) translate(0,-256)" /></svg>