<?xml version="1.0" encoding="utf-8" ?>
<svg baseProfile="full" height="256" version="1.1" width="256" xmlns="http://www.w3.org/2000/svg" xmlns:ev="http://www.w3.org/2001/xml-events" xmlns:xlink="http://www.w3.org/1999/xlink"><defs /><path d="M2071 281Q2116 271 2152.5 247.5Q2189 224 2214.5 190.5Q2240 157 2254.0 116.0Q2268 75 2268 29Q2268 -35 2242.0 -92.5Q2216 -150 2172.5 -193.5Q2129 -237 2071.0 -262.5Q2013 -288 1950 -288Q1921 -288 1894 -282Q1841 -271 1789.5 -260.0Q1738 -249 1686 -238Q1652 -231 1615.0 -225.0Q1578 -219 1547 -203Q1493 -211 1440.0 -213.5Q1387 -216 1333 -216Q1279 -216 1226.5 -213.5Q1174 -211 1120 -203Q1109 -208 1097.5 -212.5Q1086 -217 1074 -219L774 -282Q747 -288 718 -288Q655 -288 597.0 -262.0Q539 -236 495.5 -192.5Q452 -149 426.0 -91.5Q400 -34 400 29Q400 75 414.0 116.0Q428 157 453.5 190.5Q479 224 515.5 247.5Q552 271 597 281Q572 308 557.5 342.5Q543 377 543 414Q543 448 555.5 477.5Q568 507 589.5 528.5Q611 550 640.5 562.5Q670 575 704 575Q739 575 772.0 588.5Q805 602 825 634Q834 649 842.0 665.0Q850 681 860 696Q900 756 954.0 802.0Q1008 848 1073 879Q1038 905 1010.0 937.0Q982 969 960 1006H867L891 1078H831L935 1392Q915 1412 896.5 1429.5Q878 1447 863.5 1466.5Q849 1486 840.0 1509.5Q831 1533 831 1563Q831 1596 843.5 1625.5Q856 1655 877.5 1677.0Q899 1699 928.5 1712.0Q958 1725 992 1725Q1022 1725 1045.5 1716.0Q1069 1707 1089.0 1692.0Q1109 1677 1127.0 1658.0Q1145 1639 1165 1619Q1205 1636 1247.5 1644.5Q1290 1653 1334 1653Q1378 1653 1420.0 1644.5Q1462 1636 1502 1619Q1522 1639 1540.0 1658.0Q1558 1677 1578.0 1692.0Q1598 1707 1621.5 1716.0Q1645 1725 1675 1725Q1708 1725 1737.5 1712.0Q1767 1699 1789.0 1677.0Q1811 1655 1824.0 1625.5Q1837 1596 1837 1563Q1837 1533 1828.0 1510.0Q1819 1487 1804.5 1467.0Q1790 1447 1771.0 1429.0Q1752 1411 1732 1392L1837 1078H1777L1801 1006H1707Q1664 931 1595 879Q1726 816 1807 696Q1818 681 1826.0 665.5Q1834 650 1843 634Q1860 606 1891.0 590.5Q1922 575 1954 575Q1990 575 2021.0 564.0Q2052 553 2075.0 532.0Q2098 511 2111.0 481.0Q2124 451 2124 414Q2124 377 2110.0 342.5Q2096 308 2071 281Z" style="fill:#d48c00;stroke:none" transform="scale(1,-1) translate(0,-256)" /></svg>