<?xml version="1.0" encoding="utf-8" ?>
<svg baseProfile="full" height="256" version="1.1" width="256" xmlns="http://www.w3.org/2000/svg" xmlns:ev="http://www.w3.org/2001/xml-events" xmlns:xlink="http://www.w3.org/1999/xlink"><defs /><path d="M2261 347Q2335 289 2373.0 206.5Q2411 124 2411 30Q2411 -63 2374.0 -147.0Q2337 -231 2274.0 -294.0Q2211 -357 2127.5 -394.0Q2044 -431 1951 -431Q1907 -431 1865 -422L1522 -351Q1521 -351 1514.5 -351.5Q1508 -352 1499.5 -353.0Q1491 -354 1483.5 -354.5Q1476 -355 1474 -355Q1439 -357 1404.0 -358.0Q1369 -359 1334 -359Q1271 -359 1210 -356Q1194 -355 1177.5 -353.0Q1161 -351 1145 -351Q1143 -351 1127.5 -354.5Q1112 -358 1092.5 -362.0Q1073 -366 1055.5 -369.5Q1038 -373 1034 -374Q1001 -381 960.0 -390.5Q919 -400 876.0 -409.0Q833 -418 791.5 -424.5Q750 -431 717 -431Q624 -431 540.0 -394.0Q456 -357 393.0 -294.0Q330 -231 293.0 -147.0Q256 -63 256 30Q256 124 295.0 206.5Q334 289 407 347Q400 378 400 415Q400 480 424.0 535.5Q448 591 489.0 632.0Q530 673 586.0 696.0Q642 719 707 719Q750 798 810 863H667L691 935H631L771 1353Q730 1396 708.5 1450.5Q687 1505 687 1564Q687 1627 711.0 1682.5Q735 1738 776.5 1779.5Q818 1821 874.0 1845.0Q930 1869 993 1869Q1052 1869 1107.0 1847.0Q1162 1825 1205 1783Q1237 1791 1269.0 1794.0Q1301 1797 1333 1797Q1397 1797 1462 1783Q1505 1825 1560.0 1847.0Q1615 1869 1675 1869Q1738 1869 1793.5 1845.0Q1849 1821 1891.0 1779.5Q1933 1738 1957.0 1682.5Q1981 1627 1981 1564Q1981 1505 1959.0 1450.5Q1937 1396 1897 1353L2036 935H1976L2000 863H1858Q1918 798 1961 719Q2025 719 2081.5 696.0Q2138 673 2179.0 632.0Q2220 591 2244.0 535.5Q2268 480 2268 415Q2268 378 2261 347Z" style="fill:#000000;stroke:none" transform="scale(1,-1) translate(0,-256)" /></svg>