<?xml version="1.0" encoding="utf-8" ?>
<svg baseProfile="full" height="256" version="1.1" width="256" xmlns="http://www.w3.org/2000/svg" xmlns:ev="http://www.w3.org/2001/xml-events" xmlns:xlink="http://www.w3.org/1999/xlink"><defs /><path d="M1046 1222V1294Q1046 1324 1067.0 1345.0Q1088 1366 1118 1366Q1148 1366 1169.0 1345.0Q1190 1324 1190 1294V1222Q1190 1192 1169.0 1171.0Q1148 1150 1118 1150Q1088 1150 1067.0 1171.0Q1046 1192 1046 1222ZM1477 1222V1294Q1477 1323 1498.5 1344.5Q1520 1366 1549 1366Q1579 1366 1600.0 1345.0Q1621 1324 1621 1294V1222Q1621 1192 1600.0 1171.0Q1579 1150 1549 1150Q1520 1150 1498.5 1171.5Q1477 1193 1477 1222ZM1333 970Q1322 970 1313.0 976.0Q1304 982 1296.5 991.0Q1289 1000 1282.5 1009.5Q1276 1019 1270 1026Q1262 1036 1262 1047Q1262 1060 1271.5 1069.0Q1281 1078 1294 1078H1373Q1387 1078 1396.5 1069.0Q1406 1060 1406 1046Q1406 1036 1398 1026Q1392 1019 1385.5 1009.5Q1379 1000 1371.0 991.0Q1363 982 1353.5 976.0Q1344 970 1333 970Z" style="fill:#000000;stroke:none" transform="scale(1,-1) translate(0,-256)" /></svg>