<?xml version="1.0" encoding="utf-8" ?>
<svg baseProfile="full" height="256" version="1.1" width="256" xmlns="http://www.w3.org/2000/svg" xmlns:ev="http://www.w3.org/2001/xml-events" xmlns:xlink="http://www.w3.org/1999/xlink"><defs /><path d="M1666 223Q1625 220 1587.5 202.5Q1550 185 1520.0 157.0Q1490 129 1469.0 93.0Q1448 57 1441 17Q1387 0 1333 0Q1280 0 1226 17Q1219 58 1198.5 94.0Q1178 130 1148.0 157.5Q1118 185 1080.0 202.5Q1042 220 1001 223Q987 255 980.5 289.5Q974 324 974 359Q974 434 1002.5 499.5Q1031 565 1080.0 613.5Q1129 662 1194.5 690.5Q1260 719 1334 719Q1408 719 1473.5 690.5Q1539 662 1587.5 613.5Q1636 565 1664.5 499.5Q1693 434 1693 360Q1693 287 1666 223ZM527 29Q527 57 536.5 81.0Q546 105 563.5 122.5Q581 140 604.5 150.0Q628 160 657 160Q694 160 728.0 144.5Q762 129 788.0 102.5Q814 76 830.0 42.0Q846 8 846 -29Q846 -86 810.0 -122.5Q774 -159 717 -159Q680 -159 645.5 -143.5Q611 -128 585.0 -102.0Q559 -76 543.0 -42.0Q527 -8 527 29ZM2141 29Q2141 -8 2125.0 -42.0Q2109 -76 2083.0 -102.0Q2057 -128 2022.5 -143.5Q1988 -159 1951 -159Q1894 -159 1857.5 -123.5Q1821 -88 1821 -31Q1821 6 1836.5 41.0Q1852 76 1878.5 102.0Q1905 128 1939.0 144.0Q1973 160 2011 160Q2069 160 2105.0 123.5Q2141 87 2141 29ZM615 414Q615 453 640.5 478.0Q666 503 704 503Q729 503 752.0 492.5Q775 482 792.5 464.5Q810 447 820.5 424.0Q831 401 831 376Q831 338 805.5 313.0Q780 288 742 288Q717 288 694.0 298.5Q671 309 653.5 326.5Q636 344 625.5 366.5Q615 389 615 414ZM2053 414Q2053 389 2042.5 366.5Q2032 344 2014.5 326.5Q1997 309 1974.0 298.5Q1951 288 1926 288Q1888 288 1862.5 313.0Q1837 338 1837 377Q1837 402 1847.5 424.5Q1858 447 1875.5 464.5Q1893 482 1915.5 492.5Q1938 503 1963 503Q2001 503 2027.0 477.5Q2053 452 2053 414ZM1099 1584Q1022 1534 972 1457Q960 1468 948.0 1479.5Q936 1491 925.5 1503.5Q915 1516 908.5 1530.5Q902 1545 902 1563Q902 1582 909.0 1598.5Q916 1615 928.5 1627.0Q941 1639 957.5 1646.0Q974 1653 993 1653Q1011 1653 1025.5 1646.5Q1040 1640 1052.5 1630.0Q1065 1620 1076.0 1608.0Q1087 1596 1099 1584ZM1696 1457Q1671 1495 1639.0 1527.0Q1607 1559 1569 1584Q1581 1596 1592.0 1608.5Q1603 1621 1615.5 1630.5Q1628 1640 1642.5 1646.5Q1657 1653 1675 1653Q1713 1653 1739.0 1627.0Q1765 1601 1765 1563Q1765 1545 1758.5 1530.5Q1752 1516 1742.5 1503.5Q1733 1491 1720.5 1480.0Q1708 1469 1696 1457ZM1262 1150H1406Q1436 1150 1462.0 1138.5Q1488 1127 1507.5 1107.5Q1527 1088 1538.0 1062.0Q1549 1036 1549 1006Q1549 978 1543.0 957.0Q1537 936 1526.0 918.5Q1515 901 1500.0 885.0Q1485 869 1467 852L1456 842Q1403 791 1334 791Q1306 791 1284.5 797.5Q1263 804 1245.0 815.5Q1227 827 1210.5 842.5Q1194 858 1176 876L1169 884Q1118 935 1118 1006Q1118 1036 1129.0 1062.0Q1140 1088 1159.5 1107.5Q1179 1127 1205.5 1138.5Q1232 1150 1262 1150Z" style="fill:#ffd679;stroke:none" transform="scale(1,-1) translate(0,-256)" /></svg>