<?xml version="1.0" encoding="utf-8" ?>
<svg baseProfile="full" height="256" version="1.1" width="256" xmlns="http://www.w3.org/2000/svg" xmlns:ev="http://www.w3.org/2001/xml-events" xmlns:xlink="http://www.w3.org/1999/xlink"><defs /><path d="M1011 0Q1025 0 1036.0 -11.0Q1047 -22 1047 -36Q1047 -50 1036.0 -61.0Q1025 -72 1011 -72Q996 -72 985.5 -61.5Q975 -51 975 -36Q975 -21 985.5 -10.5Q996 0 1011 0ZM1011 72Q996 72 985.5 82.5Q975 93 975 108Q975 123 985.5 133.5Q996 144 1011 144Q1025 144 1036.0 133.0Q1047 122 1047 108Q1047 94 1036.0 83.0Q1025 72 1011 72ZM867 0Q882 0 892.5 -10.5Q903 -21 903 -36Q903 -51 892.5 -61.5Q882 -72 867 -72Q852 -72 841.5 -61.5Q831 -51 831 -36Q831 -21 841.5 -10.5Q852 0 867 0Z" style="fill:#f2f2f2;stroke:none" transform="scale(1,-1) translate(0,-256)" /></svg>