<?xml version="1.0" encoding="utf-8" ?>
<svg baseProfile="full" height="256" version="1.1" width="256" xmlns="http://www.w3.org/2000/svg" xmlns:ev="http://www.w3.org/2001/xml-events" xmlns:xlink="http://www.w3.org/1999/xlink"><defs /><path d="M1262 1136Q1287 1115 1301.0 1092.5Q1315 1070 1322.5 1045.0Q1330 1020 1332.0 992.5Q1334 965 1334 935V-144Q1334 -203 1311.5 -255.5Q1289 -308 1250.0 -347.0Q1211 -386 1158.5 -408.5Q1106 -431 1047 -431H543Q484 -431 431.5 -408.5Q379 -386 340.0 -347.0Q301 -308 278.5 -255.5Q256 -203 256 -144V935Q256 965 258.0 992.5Q260 1020 267.0 1045.0Q274 1070 288.5 1093.0Q303 1116 328 1136V1222Q328 1256 338.5 1288.0Q349 1320 368.0 1346.0Q387 1372 413.5 1392.5Q440 1413 472 1425L482 1434Q490 1441 500.5 1451.5Q511 1462 520.5 1472.5Q530 1483 536.5 1493.0Q543 1503 543 1510V1617Q543 1669 563.0 1715.0Q583 1761 617.0 1795.0Q651 1829 697.0 1849.0Q743 1869 795 1869Q847 1869 893.0 1849.0Q939 1829 973.0 1795.0Q1007 1761 1027.0 1715.0Q1047 1669 1047 1617V1510Q1047 1503 1053.5 1493.0Q1060 1483 1069.5 1472.5Q1079 1462 1089.5 1451.5Q1100 1441 1108 1434L1118 1425Q1150 1413 1176.5 1392.5Q1203 1372 1222.0 1346.0Q1241 1320 1251.5 1288.0Q1262 1256 1262 1222Z" style="fill:#000000;stroke:none" transform="scale(1,-1) translate(0,-256)" /></svg>