<?xml version="1.0" encoding="utf-8" ?>
<svg baseProfile="full" height="256" version="1.1" width="256" xmlns="http://www.w3.org/2000/svg" xmlns:ev="http://www.w3.org/2001/xml-events" xmlns:xlink="http://www.w3.org/1999/xlink"><defs /><path d="M543 1294Q567 1318 592.5 1340.5Q618 1363 639.0 1388.5Q660 1414 673.5 1443.5Q687 1473 687 1510V1617Q687 1639 695.5 1659.0Q704 1679 718.5 1693.5Q733 1708 752.5 1716.5Q772 1725 795 1725Q817 1725 837.0 1716.5Q857 1708 871.5 1693.5Q886 1679 894.5 1659.0Q903 1639 903 1617V1510Q903 1473 916.5 1443.5Q930 1414 951.0 1388.5Q972 1363 997.5 1340.5Q1023 1318 1047 1294V1170H542Z" style="fill:#ffb900;stroke:none" transform="scale(1,-1) translate(0,-256)" /></svg>