<?xml version="1.0" encoding="utf-8" ?>
<svg baseProfile="full" height="256" version="1.1" width="256" xmlns="http://www.w3.org/2000/svg" xmlns:ev="http://www.w3.org/2001/xml-events" xmlns:xlink="http://www.w3.org/1999/xlink"><defs /><path d="M2161 -144Q2100 -144 2049 -105L1900 7Q1839 -30 1781.0 -58.0Q1723 -86 1664.0 -105.0Q1605 -124 1541.5 -134.0Q1478 -144 1406 -144Q1269 -144 1148.0 -105.5Q1027 -67 912 7L760 -107Q711 -144 651 -144Q618 -144 589.0 -133.0Q560 -122 536.5 -102.5Q513 -83 497.0 -56.0Q481 -29 475 3Q443 9 416.0 25.0Q389 41 369.5 64.5Q350 88 339.0 117.5Q328 147 328 179Q328 227 350.0 266.0Q372 305 411 332Q337 397 296.5 485.5Q256 574 256 673Q256 726 266.0 770.5Q276 815 294.5 855.0Q313 895 340.0 932.0Q367 969 401 1008Q374 1051 359.0 1091.0Q344 1131 337.0 1171.0Q330 1211 329.0 1252.5Q328 1294 328 1342V1366Q328 1410 345.0 1449.0Q362 1488 391.0 1517.5Q420 1547 459.5 1564.0Q499 1581 543 1581H650Q729 1581 804.5 1555.0Q880 1529 942 1479Q1051 1530 1168.0 1555.5Q1285 1581 1405 1581Q1526 1581 1643.5 1555.5Q1761 1530 1870 1479Q1916 1516 1961.0 1537.0Q2006 1558 2051.5 1567.5Q2097 1577 2146.0 1579.0Q2195 1581 2251 1581H2268Q2313 1581 2352.0 1564.0Q2391 1547 2420.5 1518.0Q2450 1489 2467.0 1450.0Q2484 1411 2484 1366V1259Q2484 1193 2465.0 1129.0Q2446 1065 2411 1008Q2480 934 2518.0 855.5Q2556 777 2556 674Q2556 575 2515.5 486.5Q2475 398 2401 332Q2439 306 2461.5 265.5Q2484 225 2484 179Q2484 146 2473.0 117.0Q2462 88 2442.5 64.5Q2423 41 2396.0 25.0Q2369 9 2337 3Q2331 -29 2315.0 -55.5Q2299 -82 2275.5 -102.0Q2252 -122 2222.5 -133.0Q2193 -144 2161 -144Z" style="fill:#000000;stroke:none" transform="scale(1,-1) translate(0,-256)" /></svg>