<?xml version="1.0" encoding="utf-8" ?>
<svg baseProfile="full" height="256" version="1.1" width="256" xmlns="http://www.w3.org/2000/svg" xmlns:ev="http://www.w3.org/2001/xml-events" xmlns:xlink="http://www.w3.org/1999/xlink"><defs /><path d="M1083 791Q1105 791 1125.0 782.5Q1145 774 1159.0 759.0Q1173 744 1181.5 724.5Q1190 705 1190 683V611Q1190 589 1181.5 569.5Q1173 550 1158.5 535.0Q1144 520 1124.5 511.5Q1105 503 1083 503Q1061 503 1041.5 511.5Q1022 520 1007.0 535.0Q992 550 983.5 569.5Q975 589 975 611V683Q975 705 983.5 725.0Q992 745 1006.5 759.5Q1021 774 1040.5 782.5Q1060 791 1083 791ZM1729 791Q1751 791 1771.0 782.5Q1791 774 1805.5 759.5Q1820 745 1828.5 725.0Q1837 705 1837 683V611Q1837 589 1828.5 569.5Q1820 550 1805.0 535.0Q1790 520 1770.5 511.5Q1751 503 1729 503Q1707 503 1687.5 511.5Q1668 520 1653.5 535.0Q1639 550 1630.5 569.5Q1622 589 1622 611V683Q1622 705 1630.5 724.5Q1639 744 1653.0 759.0Q1667 774 1686.5 782.5Q1706 791 1729 791ZM1406 72Q1393 72 1377.5 77.5Q1362 83 1354 93L1278 183Q1262 202 1262 224Q1262 250 1281.5 269.0Q1301 288 1327 288H1485Q1511 288 1530.5 269.0Q1550 250 1550 224Q1550 201 1534 183L1457 93Q1449 83 1434.0 77.5Q1419 72 1406 72Z" style="fill:#000000;stroke:none" transform="scale(1,-1) translate(0,-256)" /></svg>