<?xml version="1.0" encoding="utf-8" ?>
<svg baseProfile="full" height="256" version="1.1" width="256" xmlns="http://www.w3.org/2000/svg" xmlns:ev="http://www.w3.org/2001/xml-events" xmlns:xlink="http://www.w3.org/1999/xlink"><defs /><path d="M493 452Q448 496 424.0 553.0Q400 610 400 673Q400 730 420.0 783.0Q440 836 478 879L640 1061L698 1213Q736 1226 775.5 1237.5Q815 1249 853 1263Q864 1267 873.0 1275.0Q882 1283 892 1289Q942 1320 993 1345Q1090 1391 1194.0 1414.5Q1298 1438 1406 1438Q1513 1438 1617.5 1414.5Q1722 1391 1819 1344Q1845 1332 1870.0 1318.0Q1895 1304 1919 1289Q1929 1283 1938.0 1275.0Q1947 1267 1958 1263Q1996 1249 2035.5 1237.5Q2075 1226 2113 1213L2172 1061L2334 879Q2372 836 2392.0 783.0Q2412 730 2412 673Q2412 610 2388.0 553.0Q2364 496 2319 452Z" style="fill:#a6a6a6;stroke:none" transform="scale(1,-1) translate(0,-256)" /></svg>