<?xml version="1.0" encoding="utf-8" ?>
<svg baseProfile="full" height="256" version="1.1" width="256" xmlns="http://www.w3.org/2000/svg" xmlns:ev="http://www.w3.org/2001/xml-events" xmlns:xlink="http://www.w3.org/1999/xlink"><defs /><path d="M1729 1006Q1795 1006 1853.0 982.0Q1911 958 1957 912L2235 635Q2272 598 2293.5 551.0Q2315 504 2319 452Q2312 445 2295.5 432.0Q2279 419 2257.5 404.0Q2236 389 2212.0 373.0Q2188 357 2167.5 344.0Q2147 331 2131.0 321.5Q2115 312 2110 310H1873Q1862 285 1842.5 248.5Q1823 212 1800.0 176.0Q1777 140 1752.0 109.0Q1727 78 1706 64Q1705 63 1700.0 61.0Q1695 59 1689.0 56.5Q1683 54 1678.0 52.0Q1673 50 1672 50Q1545 0 1406 0Q1267 0 1140 50Q1139 50 1134.0 52.0Q1129 54 1123.0 56.5Q1117 59 1112.0 61.0Q1107 63 1106 64Q1085 77 1060.5 108.0Q1036 139 1012.5 175.5Q989 212 970.0 248.5Q951 285 940 310H702Q697 312 681.5 321.5Q666 331 645.0 344.5Q624 358 600.5 373.5Q577 389 555.5 404.5Q534 420 517.0 432.5Q500 445 493 452Q497 504 519.0 550.5Q541 597 577 634L854 912Q900 958 958.5 982.0Q1017 1006 1083 1006Q1135 1006 1181.0 986.5Q1227 967 1261.0 933.0Q1295 899 1314.5 853.0Q1334 807 1334 755V503H1478V755Q1478 807 1498.0 852.5Q1518 898 1552.0 932.0Q1586 966 1631.5 986.0Q1677 1006 1729 1006Z" style="fill:#ffffff;stroke:none" transform="scale(1,-1) translate(0,-256)" /></svg>