<?xml version="1.0" encoding="utf-8" ?>
<svg baseProfile="full" height="256" version="1.1" width="256" xmlns="http://www.w3.org/2000/svg" xmlns:ev="http://www.w3.org/2001/xml-events" xmlns:xlink="http://www.w3.org/1999/xlink"><defs /><path d="M975 935H796Q729 935 670.0 960.5Q611 986 567.0 1030.0Q523 1074 497.5 1133.0Q472 1192 472 1259V1366Q472 1395 492.5 1416.5Q513 1438 543 1438H650Q717 1438 776.0 1412.5Q835 1387 879.5 1342.5Q924 1298 949.5 1239.0Q975 1180 975 1113ZM1837 935V1113Q1837 1180 1862.5 1239.0Q1888 1298 1932.5 1342.5Q1977 1387 2036.0 1412.5Q2095 1438 2162 1438H2268Q2298 1438 2319.0 1417.0Q2340 1396 2340 1366V1259Q2340 1192 2314.5 1133.0Q2289 1074 2245.0 1030.0Q2201 986 2142.0 960.5Q2083 935 2016 935Z" style="fill:#e5e5e5;stroke:none" transform="scale(1,-1) translate(0,-256)" /></svg>