<?xml version="1.0" encoding="utf-8" ?>
<svg baseProfile="full" height="256" version="1.1" width="256" xmlns="http://www.w3.org/2000/svg" xmlns:ev="http://www.w3.org/2001/xml-events" xmlns:xlink="http://www.w3.org/1999/xlink"><defs /><path d="M1262 683V501Q1216 495 1177.0 474.0Q1138 453 1109.0 420.0Q1080 387 1063.5 345.5Q1047 304 1047 258V206Q1047 166 1062.0 129.0Q1077 92 1106 64Q1077 77 1049.0 92.5Q1021 108 994 125L700 311Q670 330 653.0 363.5Q636 397 636 432Q636 491 678 533L955 810Q981 836 1014.0 849.5Q1047 863 1083 863Q1120 863 1152.5 849.0Q1185 835 1209.5 810.5Q1234 786 1248.0 753.0Q1262 720 1262 683ZM1706 64Q1720 74 1731.0 91.0Q1742 108 1749.5 128.5Q1757 149 1761.0 169.5Q1765 190 1765 206V258Q1765 304 1748.5 346.0Q1732 388 1703.5 420.5Q1675 453 1635.5 474.0Q1596 495 1550 501V683Q1550 720 1564.0 753.0Q1578 786 1602.5 810.5Q1627 835 1659.5 849.0Q1692 863 1729 863Q1765 863 1798.0 849.5Q1831 836 1857 810L2134 533Q2176 491 2176 432Q2176 397 2159.0 363.5Q2142 330 2112 311L1818 125Q1791 108 1763.0 92.5Q1735 77 1706 64ZM853 1263Q791 1219 740.5 1168.5Q690 1118 640 1061Q594 1096 568.5 1148.5Q543 1201 543 1259V1366H650Q710 1366 763.5 1338.5Q817 1311 853 1263ZM2268 1366V1259Q2268 1201 2243.0 1148.5Q2218 1096 2172 1061Q2122 1118 2071.5 1168.5Q2021 1219 1958 1263Q1994 1311 2048.0 1338.5Q2102 1366 2162 1366ZM1643 39 1679 52Q1670 48 1661.0 45.0Q1652 42 1643 39ZM1705 63Q1699 60 1692.5 57.5Q1686 55 1679 52Z" style="fill:#383838;stroke:none" transform="scale(1,-1) translate(0,-256)" /></svg>