<?xml version="1.0" encoding="utf-8" ?>
<svg baseProfile="full" height="256" version="1.1" width="256" xmlns="http://www.w3.org/2000/svg" xmlns:ev="http://www.w3.org/2001/xml-events" xmlns:xlink="http://www.w3.org/1999/xlink"><defs /><path d="M2197 612Q2243 588 2278.5 550.0Q2314 512 2335 464L2531 18Q2544 -11 2550.0 -44.0Q2556 -77 2556 -108Q2556 -175 2530.5 -233.5Q2505 -292 2461.0 -336.0Q2417 -380 2358.5 -405.5Q2300 -431 2233 -431H579Q512 -431 453.0 -405.5Q394 -380 350.5 -336.0Q307 -292 281.5 -233.0Q256 -174 256 -107Q256 -75 262.0 -43.0Q268 -11 281 18L477 464Q498 512 533.5 550.0Q569 588 615 612V1079Q615 1188 643.5 1288.5Q672 1389 723.5 1477.0Q775 1565 847.5 1637.0Q920 1709 1007.5 1760.5Q1095 1812 1196.0 1840.5Q1297 1869 1406 1869Q1515 1869 1616.0 1840.5Q1717 1812 1804.5 1760.5Q1892 1709 1964.5 1637.0Q2037 1565 2088.5 1477.0Q2140 1389 2168.5 1288.5Q2197 1188 2197 1079Z" style="fill:#000000;stroke:none" transform="scale(1,-1) translate(0,-256)" /></svg>