<?xml version="1.0" encoding="utf-8" ?>
<svg baseProfile="full" height="256" version="1.1" width="256" xmlns="http://www.w3.org/2000/svg" xmlns:ev="http://www.w3.org/2001/xml-events" xmlns:xlink="http://www.w3.org/1999/xlink"><defs /><path d="M1406 -72V-287H579Q542 -287 509.5 -273.0Q477 -259 452.5 -234.5Q428 -210 414.0 -177.5Q400 -145 400 -108Q400 -90 403.0 -72.5Q406 -55 414 -38L576 331Q593 370 620.5 401.5Q648 433 682.0 455.5Q716 478 756.0 490.5Q796 503 839 503H1149Q1160 496 1172.0 490.0Q1184 484 1196 478Q1197 474 1206.0 455.5Q1215 437 1228.0 410.0Q1241 383 1257.0 352.0Q1273 321 1287.0 293.0Q1301 265 1311.5 244.0Q1322 223 1326 216H887L795 0L871 -73ZM2398 -38Q2406 -55 2409.0 -72.5Q2412 -90 2412 -108Q2412 -145 2398.0 -177.5Q2384 -210 2359.5 -234.5Q2335 -259 2302.5 -273.0Q2270 -287 2233 -287H1913Q1950 -285 1965.5 -260.0Q1981 -235 1981 -201Q2008 -167 2022.5 -126.5Q2037 -86 2037 -42Q2037 -19 2031.0 11.5Q2025 42 2014 62Q2052 133 2120.0 174.5Q2188 216 2268 216H2287Z" style="fill:#886ce4;stroke:none" transform="scale(1,-1) translate(0,-256)" /></svg>