<?xml version="1.0" encoding="utf-8" ?>
<svg baseProfile="full" height="256" version="1.1" width="256" xmlns="http://www.w3.org/2000/svg" xmlns:ev="http://www.w3.org/2001/xml-events" xmlns:xlink="http://www.w3.org/1999/xlink"><defs /><path d="M1406 719Q1376 719 1355.0 740.0Q1334 761 1334 791H1478Q1478 761 1457.0 740.0Q1436 719 1406 719ZM1409 535Q1395 535 1371.0 540.5Q1347 546 1324.0 556.5Q1301 567 1284.5 581.0Q1268 595 1268 613Q1268 627 1277.5 637.0Q1287 647 1301 647Q1310 647 1319.5 640.5Q1329 634 1341.0 625.5Q1353 617 1369.5 610.5Q1386 604 1409 604Q1432 604 1448.0 610.5Q1464 617 1476.0 625.5Q1488 634 1497.5 640.5Q1507 647 1516 647Q1530 647 1540.0 637.0Q1550 627 1550 613Q1550 595 1533.5 581.0Q1517 567 1494.0 556.5Q1471 546 1447.0 540.5Q1423 535 1409 535Z" style="fill:#f7894a;stroke:none" transform="scale(1,-1) translate(0,-256)" /></svg>