<?xml version="1.0" encoding="utf-8" ?>
<svg baseProfile="full" height="256" version="1.1" width="256" xmlns="http://www.w3.org/2000/svg" xmlns:ev="http://www.w3.org/2001/xml-events" xmlns:xlink="http://www.w3.org/1999/xlink"><defs /><path d="M1190 1006Q1219 1006 1240.5 985.0Q1262 964 1262 935V863Q1262 833 1241.0 812.0Q1220 791 1190 791Q1161 791 1139.5 812.5Q1118 834 1118 863V935Q1118 964 1139.5 985.0Q1161 1006 1190 1006ZM1622 1006Q1651 1006 1672.0 985.0Q1693 964 1693 935V863Q1693 834 1672.0 812.5Q1651 791 1622 791Q1592 791 1571.0 812.0Q1550 833 1550 863V935Q1550 964 1571.5 985.0Q1593 1006 1622 1006Z" style="fill:#000000;stroke:none" transform="scale(1,-1) translate(0,-256)" /></svg>