<?xml version="1.0" encoding="utf-8" ?>
<svg baseProfile="full" height="256" version="1.1" width="256" xmlns="http://www.w3.org/2000/svg" xmlns:ev="http://www.w3.org/2001/xml-events" xmlns:xlink="http://www.w3.org/1999/xlink"><defs /><path d="M1909 0Q1939 0 1960.0 -21.0Q1981 -42 1981 -72V-201L2018 -230Q2018 -251 2006.5 -262.5Q1995 -274 1978.5 -279.5Q1962 -285 1943.0 -286.0Q1924 -287 1909 -287H1406V-72H1473L1673 128Q1689 144 1711 144Q1734 144 1749.5 128.5Q1765 113 1765 90V0ZM1142 364 1196 478Q1246 455 1299.0 443.0Q1352 431 1407 431Q1516 431 1616 477L1469 184Q1461 168 1448 158Q1437 156 1427.0 152.5Q1417 149 1407 144Q1390 144 1378.0 149.0Q1366 154 1358.0 162.5Q1350 171 1343.5 182.0Q1337 193 1331 206L1326 216Z" style="fill:#ffb900;stroke:none" transform="scale(1,-1) translate(0,-256)" /></svg>