<?xml version="1.0" encoding="utf-8" ?>
<svg baseProfile="full" height="256" version="1.1" width="256" xmlns="http://www.w3.org/2000/svg" xmlns:ev="http://www.w3.org/2001/xml-events" xmlns:xlink="http://www.w3.org/1999/xlink"><defs /><path d="M1973 503Q2016 503 2056.0 491.0Q2096 479 2130.0 456.5Q2164 434 2191.0 402.0Q2218 370 2236 331L2287 216L2268 0Q2262 -2 2239.0 -11.0Q2216 -20 2185.0 -32.0Q2154 -44 2119.5 -57.0Q2085 -70 2055.5 -81.5Q2026 -93 2005.5 -100.5Q1985 -108 1983 -108Q1951 -113 1925.5 -114.5Q1900 -116 1875.0 -117.0Q1850 -118 1824.0 -118.0Q1798 -118 1767 -120L1334 -144V199L1196 478Q1129 509 1075.0 557.0Q1021 605 983.0 664.5Q945 724 924.5 793.0Q904 862 904 936V1007Q952 1007 997.5 1023.5Q1043 1040 1080.5 1068.5Q1118 1097 1146.5 1136.0Q1175 1175 1190 1221Q1211 1179 1242.0 1151.0Q1273 1123 1311.5 1107.0Q1350 1091 1392.5 1084.5Q1435 1078 1479 1078V1294Q1507 1234 1552.5 1182.0Q1598 1130 1655.5 1091.0Q1713 1052 1778.0 1029.0Q1843 1006 1910 1006V936Q1910 869 1893.0 806.0Q1876 743 1844.0 687.0Q1812 631 1766.5 584.0Q1721 537 1664 503Z" style="fill:#ffc83d;stroke:none" transform="scale(1,-1) translate(0,-256)" /></svg>