<?xml version="1.0" encoding="utf-8" ?>
<svg baseProfile="full" height="256" version="1.1" width="256" xmlns="http://www.w3.org/2000/svg" xmlns:ev="http://www.w3.org/2001/xml-events" xmlns:xlink="http://www.w3.org/1999/xlink"><defs /><path d="M1406 1797V1366Q1406 1248 1348.0 1156.0Q1290 1064 1190 1006V863Q1190 833 1201.5 807.0Q1213 781 1232.5 761.5Q1252 742 1278.0 730.5Q1304 719 1334 719H1825L1537 431L1825 144H1118Q1153 114 1171.5 81.0Q1190 48 1190 0Q1190 -46 1171.5 -88.0Q1153 -130 1118 -160V-431H543V-160Q508 -130 490.0 -88.0Q472 -46 472 0Q472 46 490.5 88.0Q509 130 543 161V271Q509 301 490.5 343.5Q472 386 472 431Q472 478 490.5 511.5Q509 545 543 575Q517 582 493.0 593.5Q469 605 447 620Q345 689 300.5 787.0Q256 885 256 1006V1510H472Q472 1541 492.0 1561.0Q512 1581 543 1581V1869H1118V1797Z" style="fill:#000000;stroke:none" transform="scale(1,-1) translate(0,-256)" /></svg>