<?xml version="1.0" encoding="utf-8" ?>
<svg baseProfile="full" height="256" version="1.1" width="256" xmlns="http://www.w3.org/2000/svg" xmlns:ev="http://www.w3.org/2001/xml-events" xmlns:xlink="http://www.w3.org/1999/xlink"><defs /><path d="M400 1366Q460 1366 512.0 1343.5Q564 1321 603.0 1282.0Q642 1243 664.5 1190.5Q687 1138 687 1078Q729 1047 751.5 998.0Q774 949 774 898Q774 874 768.0 848.5Q762 823 750.5 798.5Q739 774 723.0 753.0Q707 732 687 719Q628 719 575.5 741.5Q523 764 484.0 803.0Q445 842 422.5 894.5Q400 947 400 1006ZM975 1366Q975 1426 997.5 1478.0Q1020 1530 1059.0 1569.0Q1098 1608 1150.0 1630.5Q1202 1653 1262 1653V1366Q1262 1307 1239.0 1255.0Q1216 1203 1177.0 1163.5Q1138 1124 1085.5 1101.0Q1033 1078 975 1078Q962 1089 953.5 1109.0Q945 1129 940.5 1151.5Q936 1174 934.0 1196.0Q932 1218 932 1234Q932 1246 933.5 1266.5Q935 1287 939.5 1308.0Q944 1329 952.5 1345.5Q961 1362 975 1366Z" style="fill:#79db75;stroke:none" transform="scale(1,-1) translate(0,-256)" /></svg>