<?xml version="1.0" encoding="utf-8" ?>
<svg baseProfile="full" height="256" version="1.1" width="256" xmlns="http://www.w3.org/2000/svg" xmlns:ev="http://www.w3.org/2001/xml-events" xmlns:xlink="http://www.w3.org/1999/xlink"><defs /><path d="M1334 288Q1214 288 1109.5 333.0Q1005 378 927.0 456.0Q849 534 804.0 638.5Q759 743 759 863H831Q847 877 865.5 880.5Q884 884 904 884Q924 884 942.0 880.5Q960 877 975 863H1047Q1047 803 1069.5 750.5Q1092 698 1130.5 659.0Q1169 620 1221.5 597.5Q1274 575 1334 575H1478L1334 431L1478 288Z" style="fill:#f03a17;stroke:none" transform="scale(1,-1) translate(0,-256)" /></svg>