<?xml version="1.0" encoding="utf-8" ?>
<svg baseProfile="full" height="256" version="1.1" width="256" xmlns="http://www.w3.org/2000/svg" xmlns:ev="http://www.w3.org/2001/xml-events" xmlns:xlink="http://www.w3.org/1999/xlink"><defs /><path d="M975 1078Q1004 1078 1025.5 1056.5Q1047 1035 1047 1006Q1047 977 1025.5 956.0Q1004 935 975 935Q970 929 961.0 925.0Q952 921 941.0 919.0Q930 917 919.0 916.0Q908 915 901 915Q895 915 884.5 915.5Q874 916 863.0 918.5Q852 921 843.0 925.0Q834 929 831 935H687Q658 935 636.5 956.0Q615 977 615 1006Q615 1036 636.0 1057.0Q657 1078 687 1078ZM975 72Q1004 72 1025.5 50.5Q1047 29 1047 0Q1047 -29 1025.5 -50.5Q1004 -72 975 -72H687Q657 -72 636.0 -51.0Q615 -30 615 0Q615 30 636.0 51.0Q657 72 687 72ZM687 1366Q657 1366 636.0 1387.0Q615 1408 615 1438Q615 1467 636.5 1488.5Q658 1510 687 1510H975Q1004 1510 1025.5 1488.5Q1047 1467 1047 1438Q1047 1409 1025.5 1387.5Q1004 1366 975 1366ZM975 503Q1004 503 1025.5 481.5Q1047 460 1047 431Q1047 402 1025.5 381.0Q1004 360 975 360H687Q658 360 636.5 381.0Q615 402 615 431Q615 461 636.0 482.0Q657 503 687 503Z" style="fill:#107c10;stroke:none" transform="scale(1,-1) translate(0,-256)" /></svg>