<?xml version="1.0" encoding="utf-8" ?>
<svg baseProfile="full" height="256" version="1.1" width="256" xmlns="http://www.w3.org/2000/svg" xmlns:ev="http://www.w3.org/2001/xml-events" xmlns:xlink="http://www.w3.org/1999/xlink"><defs /><path d="M831 1581Q876 1581 915.0 1564.0Q954 1547 983.5 1518.0Q1013 1489 1030.0 1450.0Q1047 1411 1047 1366H543Q543 1411 560.0 1450.0Q577 1489 606.5 1518.0Q636 1547 675.0 1564.0Q714 1581 759 1581ZM1478 144V-72H1190Q1190 -42 1201.5 -16.0Q1213 10 1232.5 29.5Q1252 49 1278.0 60.5Q1304 72 1334 72V144Z" style="fill:#ffffff;stroke:none" transform="scale(1,-1) translate(0,-256)" /></svg>