<?xml version="1.0" encoding="utf-8" ?>
<svg baseProfile="full" height="256" version="1.1" width="256" xmlns="http://www.w3.org/2000/svg" xmlns:ev="http://www.w3.org/2001/xml-events" xmlns:xlink="http://www.w3.org/1999/xlink"><defs /><path d="M2017 647Q2128 647 2226.5 604.5Q2325 562 2398.0 489.0Q2471 416 2513.5 317.5Q2556 219 2556 108Q2556 -3 2513.5 -101.5Q2471 -200 2398.0 -273.0Q2325 -346 2226.5 -388.5Q2128 -431 2017 -431Q1953 -431 1892.0 -416.5Q1831 -402 1775.5 -374.0Q1720 -346 1671.5 -306.0Q1623 -266 1585 -215H1226Q1188 -266 1140.0 -306.0Q1092 -346 1036.0 -373.5Q980 -401 919.0 -416.0Q858 -431 795 -431Q684 -431 585.5 -388.5Q487 -346 414.0 -273.0Q341 -200 298.5 -101.5Q256 -3 256 108Q256 189 279.0 264.5Q302 340 344.5 404.5Q387 469 447.0 520.0Q507 571 581 603Q558 645 551.0 686.0Q544 727 544 774Q544 840 566.5 886.0Q589 932 634 978Q567 1016 524.5 1080.5Q482 1145 474 1222H400V1366Q400 1440 428.5 1505.5Q457 1571 505.5 1619.5Q554 1668 619.5 1696.5Q685 1725 759 1725H831Q905 1725 970.5 1696.5Q1036 1668 1084.5 1619.5Q1133 1571 1161.5 1505.5Q1190 1440 1190 1366H1262Q1421 1366 1568.0 1316.0Q1715 1266 1840 1166Q1906 1114 1943.5 1049.5Q1981 985 1981 899V854Q1981 790 1959.0 733.0Q1937 676 1890 632Q1953 647 2017 647Z" style="fill:#000000;stroke:none" transform="scale(1,-1) translate(0,-256)" /></svg>