<?xml version="1.0" encoding="utf-8" ?>
<svg baseProfile="full" height="256" version="1.1" width="256" xmlns="http://www.w3.org/2000/svg" xmlns:ev="http://www.w3.org/2001/xml-events" xmlns:xlink="http://www.w3.org/1999/xlink"><defs /><path d="M967 1208Q953 1160 916.0 1126.0Q879 1092 830 1082Q820 1093 811.5 1104.5Q803 1116 795 1128Q780 1106 759 1082Q728 1088 701.5 1104.5Q675 1121 656.0 1144.5Q637 1168 626.0 1197.0Q615 1226 615 1258V1438L939 1388ZM1551 640V502L1478 431V144L1412 84L1334 144V539Q1334 559 1340.0 574.0Q1346 589 1355.5 602.0Q1365 615 1377.0 626.5Q1389 638 1402 651ZM1047 935 1118 998 1190 935V791Q1190 761 1169.0 740.0Q1148 719 1118 719H759Q729 719 708.0 740.0Q687 761 687 791Q687 821 708.0 842.0Q729 863 759 863H1047Z" style="fill:#ffc83d;stroke:none" transform="scale(1,-1) translate(0,-256)" /></svg>