<?xml version="1.0" encoding="utf-8" ?>
<svg baseProfile="full" height="256" version="1.1" width="256" xmlns="http://www.w3.org/2000/svg" xmlns:ev="http://www.w3.org/2001/xml-events" xmlns:xlink="http://www.w3.org/1999/xlink"><defs /><path d="M795 503Q877 503 949.0 472.0Q1021 441 1074.5 387.5Q1128 334 1159.0 262.0Q1190 190 1190 108Q1190 26 1159.0 -46.0Q1128 -118 1074.5 -171.5Q1021 -225 949.0 -256.0Q877 -287 795 -287Q713 -287 641.0 -256.0Q569 -225 515.5 -171.5Q462 -118 431.0 -46.0Q400 26 400 108Q400 190 431.0 262.0Q462 334 515.5 387.5Q569 441 641.0 472.0Q713 503 795 503ZM2017 503Q2099 503 2171.0 472.0Q2243 441 2296.5 387.5Q2350 334 2381.0 262.0Q2412 190 2412 108Q2412 26 2381.0 -46.0Q2350 -118 2296.5 -171.5Q2243 -225 2171.0 -256.0Q2099 -287 2017 -287Q1935 -287 1863.0 -256.0Q1791 -225 1737.5 -171.5Q1684 -118 1653.0 -46.0Q1622 26 1622 108Q1622 190 1653.0 262.0Q1684 334 1737.5 387.5Q1791 441 1863.0 472.0Q1935 503 2017 503ZM2017 -184Q2077 -184 2130.5 -161.0Q2184 -138 2223.5 -98.5Q2263 -59 2286.0 -5.5Q2309 48 2309 108Q2309 168 2286.0 221.5Q2263 275 2223.5 314.5Q2184 354 2130.5 377.0Q2077 400 2017 400Q1957 400 1903.5 377.0Q1850 354 1810.5 314.5Q1771 275 1748.0 221.5Q1725 168 1725 108Q1725 48 1748.0 -5.5Q1771 -59 1810.5 -98.5Q1850 -138 1903.5 -161.0Q1957 -184 2017 -184ZM795 -184Q855 -184 908.5 -161.0Q962 -138 1001.5 -98.5Q1041 -59 1064.0 -5.5Q1087 48 1087 108Q1087 168 1064.0 221.5Q1041 275 1001.5 314.5Q962 354 908.5 377.0Q855 400 795 400Q735 400 681.5 377.0Q628 354 588.5 314.5Q549 275 526.0 221.5Q503 168 503 108Q503 48 526.0 -5.5Q549 -59 588.5 -98.5Q628 -138 681.5 -161.0Q735 -184 795 -184ZM867 575Q829 575 796.5 589.0Q764 603 739.5 627.5Q715 652 701.0 684.5Q687 717 687 755Q687 792 701.0 825.0Q715 858 739.5 882.5Q764 907 796.5 921.0Q829 935 867 935H1011Q1026 935 1036.5 924.5Q1047 914 1047 899L1087 853L1047 791Q1047 776 1036.5 765.5Q1026 755 1011 755Q987 755 981.0 772.0Q975 789 975 809V833Q971 834 954.0 839.0Q937 844 918.0 849.0Q899 854 883.5 858.5Q868 863 867 863Q845 863 825.5 854.5Q806 846 791.0 831.0Q776 816 767.5 796.5Q759 777 759 755Q759 732 767.5 712.5Q776 693 790.5 678.5Q805 664 824.5 655.5Q844 647 867 647Q882 647 892.5 636.5Q903 626 903 611Q903 596 892.5 585.5Q882 575 867 575Z" style="fill:#757575;stroke:none" transform="scale(1,-1) translate(0,-256)" /></svg>