<?xml version="1.0" encoding="utf-8" ?>
<svg baseProfile="full" height="256" version="1.1" width="256" xmlns="http://www.w3.org/2000/svg" xmlns:ev="http://www.w3.org/2001/xml-events" xmlns:xlink="http://www.w3.org/1999/xlink"><defs /><path d="M1988 577Q1976 572 1960.5 565.0Q1945 558 1932.0 548.5Q1919 539 1910.0 527.0Q1901 515 1901 499Q1901 483 1903.5 467.0Q1906 451 1911 436L1895 414L1822 387L1763 270L1619 241L1477 111Q1355 72 1226 72Q1126 72 1030.0 95.5Q934 119 847.0 164.0Q760 209 685.0 273.5Q610 338 552 420Q554 434 555.0 447.0Q556 460 556 474Q556 495 550.0 507.5Q544 520 533.5 528.0Q523 536 508.5 541.0Q494 546 476 551Q460 584 448.0 618.5Q436 653 426 688L477 855L408 1018Q414 1056 423.0 1094.0Q432 1132 445 1169Q465 1173 478.5 1178.5Q492 1184 499.5 1193.0Q507 1202 510.0 1215.5Q513 1229 513 1249Q513 1279 510 1311Q558 1395 624.0 1465.0Q690 1535 771 1588L866 1592L904 1661Q939 1675 974.5 1686.5Q1010 1698 1047 1706L1195 1668L1236 1725Q1367 1723 1488.5 1682.0Q1610 1641 1716 1564Q1710 1559 1701.0 1551.0Q1692 1543 1683.5 1533.5Q1675 1524 1669.0 1514.5Q1663 1505 1663 1497Q1663 1487 1683.5 1478.0Q1704 1469 1732.0 1461.0Q1760 1453 1790.0 1447.0Q1820 1441 1839 1437Q1845 1435 1847 1435Q1855 1433 1856 1433Q1885 1401 1909.5 1364.5Q1934 1328 1954 1290Q1944 1279 1930.5 1259.0Q1917 1239 1917 1223Q1917 1214 1929.0 1203.0Q1941 1192 1957.0 1181.5Q1973 1171 1989.5 1162.0Q2006 1153 2014 1149Q2053 1027 2053 898Q2053 815 2036.5 734.0Q2020 653 1988 577Z" style="fill:#107c10;stroke:none" transform="scale(1,-1) translate(0,-256)" /></svg>