<?xml version="1.0" encoding="utf-8" ?>
<svg baseProfile="full" height="256" version="1.1" width="256" xmlns="http://www.w3.org/2000/svg" xmlns:ev="http://www.w3.org/2001/xml-events" xmlns:xlink="http://www.w3.org/1999/xlink"><defs /><path d="M1988 577Q1956 501 1911 436Q1699 448 1497.0 506.5Q1295 565 1109.0 661.5Q923 758 755.5 887.0Q588 1016 445 1169Q471 1243 510 1311Q629 1176 765.5 1061.0Q902 946 1054.0 855.5Q1206 765 1372.5 701.5Q1539 638 1717 605Q1784 593 1851.5 585.5Q1919 578 1988 577ZM2412 -215Q2412 -245 2391.0 -266.0Q2370 -287 2340 -287H1873Q1836 -287 1803.0 -273.0Q1770 -259 1745.5 -234.5Q1721 -210 1707.0 -177.5Q1693 -145 1693 -108Q1693 -71 1707.0 -38.0Q1721 -5 1745.5 19.5Q1770 44 1803.0 58.0Q1836 72 1873 72H2017Q2032 72 2042.5 82.5Q2053 93 2053 108Q2053 123 2042.5 133.5Q2032 144 2017 144H1553L1531 186Q1205 255 922.0 416.0Q639 577 404 812Q402 833 400.5 854.5Q399 876 399 898Q399 958 408 1018Q512 900 631.5 796.5Q751 693 883.5 607.5Q1016 522 1160.0 457.0Q1304 392 1457 351Q1620 308 1789 294L1783 288H2017Q2054 288 2087.0 274.0Q2120 260 2144.5 235.5Q2169 211 2183.0 178.0Q2197 145 2197 108Q2197 71 2183.0 38.0Q2169 5 2144.5 -19.5Q2120 -44 2087.0 -58.0Q2054 -72 2017 -72H1873Q1858 -72 1847.5 -82.5Q1837 -93 1837 -108Q1837 -122 1848.0 -133.0Q1859 -144 1873 -144H2340Q2369 -144 2390.5 -165.0Q2412 -186 2412 -215Z" style="fill:#13a10e;stroke:none" transform="scale(1,-1) translate(0,-256)" /></svg>