<?xml version="1.0" encoding="utf-8" ?>
<svg baseProfile="full" height="256" version="1.1" width="256" xmlns="http://www.w3.org/2000/svg" xmlns:ev="http://www.w3.org/2001/xml-events" xmlns:xlink="http://www.w3.org/1999/xlink"><defs /><path d="M2014 1149Q1802 1140 1599.0 1085.0Q1396 1030 1210.0 935.5Q1024 841 857.5 710.5Q691 580 553 421Q530 452 511.0 484.0Q492 516 477 551Q621 708 789.5 838.5Q958 969 1145.0 1064.5Q1332 1160 1535.5 1218.0Q1739 1276 1954 1290Q1991 1222 2014 1149ZM1856 1433Q1660 1420 1466.0 1367.5Q1272 1315 1097 1224Q902 1123 736.0 987.0Q570 851 426 688Q415 733 408.0 779.0Q401 825 400 872Q530 1010 681.0 1126.5Q832 1243 999.0 1332.0Q1166 1421 1346.5 1480.5Q1527 1540 1716 1564Q1755 1535 1790.0 1503.0Q1825 1471 1856 1433Z" style="fill:#79db75;stroke:none" transform="scale(1,-1) translate(0,-256)" /></svg>