<?xml version="1.0" encoding="utf-8" ?>
<svg baseProfile="full" height="256" version="1.1" width="256" xmlns="http://www.w3.org/2000/svg" xmlns:ev="http://www.w3.org/2001/xml-events" xmlns:xlink="http://www.w3.org/1999/xlink"><defs /><path d="M1873 -431Q1807 -431 1748.0 -405.5Q1689 -380 1645.0 -336.0Q1601 -292 1575.5 -233.5Q1550 -175 1550 -108Q1550 -58 1565 -11Q1484 -41 1399.0 -57.0Q1314 -73 1227 -73Q1093 -73 968.5 -38.0Q844 -3 736.5 60.5Q629 124 540.5 213.0Q452 302 388.5 410.0Q325 518 290.5 642.5Q256 767 256 901Q256 1034 291.0 1157.5Q326 1281 389.0 1388.5Q452 1496 540.5 1584.5Q629 1673 737.0 1736.5Q845 1800 968.5 1834.5Q1092 1869 1225 1869Q1359 1869 1483.5 1834.5Q1608 1800 1716.0 1736.5Q1824 1673 1912.5 1584.5Q2001 1496 2064.5 1388.0Q2128 1280 2162.5 1155.5Q2197 1031 2197 897Q2197 773 2165.5 654.0Q2134 535 2074 426Q2132 416 2181.0 387.0Q2230 358 2265.5 315.5Q2301 273 2321.0 219.5Q2341 166 2341 108Q2341 55 2322 0H2340Q2384 0 2423.5 -17.0Q2463 -34 2492.5 -63.5Q2522 -93 2539.0 -132.0Q2556 -171 2556 -215Q2556 -260 2539.0 -299.0Q2522 -338 2492.5 -367.5Q2463 -397 2424.0 -414.0Q2385 -431 2340 -431Z" style="fill:#000000;stroke:none" transform="scale(1,-1) translate(0,-256)" /></svg>