<?xml version="1.0" encoding="utf-8" ?>
<svg baseProfile="full" height="256" version="1.1" width="256" xmlns="http://www.w3.org/2000/svg" xmlns:ev="http://www.w3.org/2001/xml-events" xmlns:xlink="http://www.w3.org/1999/xlink"><defs /><path d="M1349 288H1193L785 917Q777 929 770.5 940.5Q764 952 759 966H755Q759 949 760.0 932.5Q761 916 761 899V288H623V1143H788L1183 529Q1191 516 1200.0 503.5Q1209 491 1215 477Q1212 510 1212 546V1143H1349ZM2216 346Q2147 309 2071.5 291.0Q1996 273 1918 273Q1822 273 1743.5 304.5Q1665 336 1609.5 393.0Q1554 450 1523.5 529.5Q1493 609 1493 704Q1493 803 1527.0 886.5Q1561 970 1621.5 1030.5Q1682 1091 1765.5 1124.5Q1849 1158 1948 1158Q2010 1158 2070.5 1149.0Q2131 1140 2188 1116V970Q2136 1005 2076.0 1020.0Q2016 1035 1954 1035Q1883 1035 1825.5 1010.5Q1768 986 1727.0 943.0Q1686 900 1664.0 840.5Q1642 781 1642 712Q1642 646 1659.0 588.0Q1676 530 1710.5 487.5Q1745 445 1798.0 420.5Q1851 396 1922 396Q1961 396 2000.0 403.5Q2039 411 2074 430V633H1894V752H2216Z" style="fill:#ffffff;stroke:none" transform="scale(1,-1) translate(0,-256)" /></svg>