<?xml version="1.0" encoding="utf-8" ?>
<svg baseProfile="full" height="256" version="1.1" width="256" xmlns="http://www.w3.org/2000/svg" xmlns:ev="http://www.w3.org/2001/xml-events" xmlns:xlink="http://www.w3.org/1999/xlink"><defs /><path d="M543 647Q573 647 598.0 636.0Q623 625 645 605L831 431Q848 446 848 471Q848 488 843.0 503.5Q838 519 831 533V1366Q831 1396 842.5 1422.0Q854 1448 873.5 1467.5Q893 1487 919.0 1498.5Q945 1510 975 1510Q994 1510 1012.0 1504.5Q1030 1499 1047 1490Q1057 1451 1073.0 1423.0Q1089 1395 1118 1366V1510Q1118 1540 1129.5 1566.0Q1141 1592 1160.5 1611.5Q1180 1631 1206.0 1642.0Q1232 1653 1262 1653Q1299 1653 1334 1634Q1338 1619 1345.5 1601.5Q1353 1584 1362.5 1567.0Q1372 1550 1383.0 1535.0Q1394 1520 1406 1510Q1406 1540 1417.5 1566.0Q1429 1592 1448.5 1611.5Q1468 1631 1494.0 1642.0Q1520 1653 1550 1653Q1587 1653 1622 1634Q1629 1607 1640.0 1581.5Q1651 1556 1658 1529Q1660 1522 1660.0 1515.0Q1660 1508 1661 1500L1693 1294Q1693 1316 1701.5 1335.5Q1710 1355 1725.0 1370.0Q1740 1385 1759.5 1393.5Q1779 1402 1801 1402Q1823 1402 1843.0 1393.5Q1863 1385 1877.5 1370.5Q1892 1356 1900.5 1336.0Q1909 1316 1909 1294L1878 1222L1909 1150V252Q1909 140 1866.5 42.0Q1824 -56 1751.0 -129.0Q1678 -202 1580.0 -244.5Q1482 -287 1370 -287Q1261 -287 1164.0 -246.5Q1067 -206 989 -130L442 402Q422 422 411.0 448.5Q400 475 400 503Q400 533 411.0 559.0Q422 585 441.5 604.5Q461 624 487.0 635.5Q513 647 543 647Z" style="fill:#ffc83d;stroke:none" transform="scale(1,-1) translate(0,-256)" /></svg>