<?xml version="1.0" encoding="utf-8" ?>
<svg baseProfile="full" height="256" version="1.1" width="256" xmlns="http://www.w3.org/2000/svg" xmlns:ev="http://www.w3.org/2001/xml-events" xmlns:xlink="http://www.w3.org/1999/xlink"><defs /><path d="M1370 -431Q1230 -431 1109.5 -380.5Q989 -330 889 -233L340 300Q298 341 277.0 392.5Q256 444 256 503Q256 563 278.5 615.5Q301 668 340.0 707.0Q379 746 431.0 768.5Q483 791 543 791Q581 791 617.5 781.0Q654 771 687 752V1366Q687 1432 712.0 1485.5Q737 1539 779.5 1576.0Q822 1613 879.0 1633.0Q936 1653 999 1653Q1002 1653 1005.5 1653.0Q1009 1653 1012 1651Q1031 1685 1058.0 1712.0Q1085 1739 1117.5 1758.0Q1150 1777 1186.5 1787.0Q1223 1797 1262 1797Q1300 1797 1336.5 1787.0Q1373 1777 1406 1758Q1438 1778 1475.0 1787.5Q1512 1797 1550 1797Q1604 1797 1653.0 1777.5Q1702 1758 1740.5 1724.0Q1779 1690 1804.0 1643.5Q1829 1597 1835 1543Q1881 1537 1921.0 1515.0Q1961 1493 1990.5 1459.5Q2020 1426 2036.5 1383.5Q2053 1341 2053 1294V252Q2053 158 2028.5 71.0Q2004 -16 1959.5 -92.0Q1915 -168 1852.5 -230.5Q1790 -293 1714.0 -337.5Q1638 -382 1551.0 -406.5Q1464 -431 1370 -431Z" style="fill:#000000;stroke:none" transform="scale(1,-1) translate(0,-256)" /></svg>