<?xml version="1.0" encoding="utf-8" ?>
<svg baseProfile="full" height="256" version="1.1" width="256" xmlns="http://www.w3.org/2000/svg" xmlns:ev="http://www.w3.org/2001/xml-events" xmlns:xlink="http://www.w3.org/1999/xlink"><defs /><path d="M1334 1633Q1367 1614 1386.5 1581.0Q1406 1548 1406 1510V827Q1406 812 1395.5 801.5Q1385 791 1370 791Q1355 791 1344.5 801.5Q1334 812 1334 827V1366H1291Q1266 1366 1247.0 1368.5Q1228 1371 1215.5 1381.5Q1203 1392 1196.5 1411.5Q1190 1431 1190 1466V1510Q1190 1534 1199.0 1548.0Q1208 1562 1222.5 1569.5Q1237 1577 1255.0 1579.5Q1273 1582 1292 1582Q1303 1582 1313.5 1581.5Q1324 1581 1334 1581ZM1621 1633Q1654 1614 1673.5 1581.0Q1693 1548 1693 1510V827Q1693 812 1682.5 801.5Q1672 791 1657 791Q1643 791 1632.0 802.0Q1621 813 1621 827V1366H1580Q1554 1366 1535.0 1368.5Q1516 1371 1503.5 1381.5Q1491 1392 1484.5 1411.5Q1478 1431 1478 1466V1510Q1478 1534 1487.0 1548.5Q1496 1563 1511.0 1570.0Q1526 1577 1544.5 1579.0Q1563 1581 1582 1581H1621ZM1046 1490Q1078 1470 1098.0 1437.0Q1118 1404 1118 1366V827Q1118 812 1107.5 801.5Q1097 791 1082 791Q1068 791 1057.0 802.0Q1046 813 1046 827V1222H1009Q990 1222 971.0 1224.0Q952 1226 937.0 1233.5Q922 1241 912.5 1255.5Q903 1270 903 1294V1366Q903 1390 912.5 1404.5Q922 1419 937.0 1426.5Q952 1434 971.0 1436.0Q990 1438 1009 1438H1046ZM543 575Q558 575 572.0 567.5Q586 560 599.0 549.0Q612 538 623.5 525.5Q635 513 645 503Q666 482 666 452Q666 423 644.5 402.0Q623 381 594 381Q577 381 555.5 393.5Q534 406 515.5 424.5Q497 443 484.5 464.5Q472 486 472 503Q472 532 493.0 553.5Q514 575 543 575ZM1837 1294H1909V1150H1837Q1807 1150 1786.0 1171.0Q1765 1192 1765 1222Q1765 1252 1786.0 1273.0Q1807 1294 1837 1294ZM831 533 941 423Q951 413 951 397Q951 383 940.5 372.0Q930 361 916 361Q901 361 890 372L831 431Z" style="fill:#d48c00;stroke:none" transform="scale(1,-1) translate(0,-256)" /></svg>