<?xml version="1.0" encoding="utf-8" ?>
<svg baseProfile="full" height="256" version="1.1" width="256" xmlns="http://www.w3.org/2000/svg" xmlns:ev="http://www.w3.org/2001/xml-events" xmlns:xlink="http://www.w3.org/1999/xlink"><defs /><path d="M939 -431Q845 -431 757.5 -406.5Q670 -382 594.0 -337.5Q518 -293 456.0 -231.0Q394 -169 349.5 -93.0Q305 -17 280.5 70.5Q256 158 256 252V647Q256 707 278.5 759.5Q301 812 340.0 851.0Q379 890 431.5 912.5Q484 935 544 935H582Q611 986 658.5 1021.0Q706 1056 763 1070L635 1375Q625 1398 619.5 1422.0Q614 1446 614 1471Q614 1523 634.0 1569.5Q654 1616 688.0 1650.5Q722 1685 768.0 1705.0Q814 1725 867 1725Q916 1725 956.0 1709.5Q996 1694 1027.0 1666.5Q1058 1639 1080.5 1601.5Q1103 1564 1118 1520V1546Q1118 1598 1138.0 1643.5Q1158 1689 1192.5 1723.0Q1227 1757 1272.5 1777.0Q1318 1797 1370 1797Q1422 1797 1467.5 1777.0Q1513 1757 1547.5 1723.0Q1582 1689 1602.0 1643.5Q1622 1598 1622 1546V252Q1622 158 1597.5 71.0Q1573 -16 1528.5 -92.0Q1484 -168 1421.5 -230.5Q1359 -293 1283.0 -337.5Q1207 -382 1120.0 -406.5Q1033 -431 939 -431Z" style="fill:#000000;stroke:none" transform="scale(1,-1) translate(0,-256)" /></svg>