<?xml version="1.0" encoding="utf-8" ?>
<svg baseProfile="full" height="256" version="1.1" width="256" xmlns="http://www.w3.org/2000/svg" xmlns:ev="http://www.w3.org/2001/xml-events" xmlns:xlink="http://www.w3.org/1999/xlink"><defs /><path d="M1478 453V262Q1476 312 1455.0 356.0Q1434 400 1400.0 432.5Q1366 465 1321.0 484.0Q1276 503 1226 503H651Q629 503 609.5 494.5Q590 486 575.0 471.5Q560 457 551.5 437.5Q543 418 543 396Q543 374 551.5 354.5Q560 335 575.0 320.0Q590 305 609.5 296.5Q629 288 651 288H867Q882 288 892.5 277.5Q903 267 903 252V-36Q903 -51 892.5 -61.5Q882 -72 867 -72Q852 -72 841.5 -61.5Q831 -51 831 -36V216H651Q614 216 581.5 230.0Q549 244 524.5 268.5Q500 293 486.0 326.0Q472 359 472 396Q472 427 482.5 456.5Q493 486 512.0 509.5Q531 533 557.5 549.5Q584 566 615 572V791H687V575H903V935H975V575H1226Q1301 575 1365.5 543.0Q1430 511 1478 453Z" style="fill:#d48c00;stroke:none" transform="scale(1,-1) translate(0,-256)" /></svg>