<?xml version="1.0" encoding="utf-8" ?>
<svg baseProfile="full" height="256" version="1.1" width="256" xmlns="http://www.w3.org/2000/svg" xmlns:ev="http://www.w3.org/2001/xml-events" xmlns:xlink="http://www.w3.org/1999/xlink"><defs /><path d="M1370 1653Q1392 1653 1411.5 1644.5Q1431 1636 1446.0 1621.5Q1461 1607 1469.5 1587.5Q1478 1568 1478 1546V452Q1478 438 1475.5 423.0Q1473 408 1473 394Q1473 359 1475.5 323.0Q1478 287 1478 252Q1478 140 1435.5 42.0Q1393 -56 1320.0 -129.0Q1247 -202 1149.0 -244.5Q1051 -287 939 -287Q827 -287 729.0 -244.5Q631 -202 558.0 -129.0Q485 -56 442.5 42.0Q400 140 400 252V647Q400 677 411.0 703.0Q422 729 441.5 748.5Q461 768 487.5 779.5Q514 791 544 791H615Q615 791 620.5 789.0Q626 787 633.0 785.0Q640 783 645.5 781.0Q651 779 653 778L687 791Q687 821 698.5 847.0Q710 873 729.5 892.5Q749 912 775.0 923.5Q801 935 831 935H903Q911 935 919.5 932.5Q928 930 936 927Q938 927 938.5 926.0Q939 925 941 925L975 935L768 1430Q759 1451 759 1474Q759 1496 767.5 1515.5Q776 1535 790.5 1549.5Q805 1564 824.5 1572.5Q844 1581 866 1581Q900 1581 925.5 1563.5Q951 1546 966 1517Q977 1494 985.0 1470.0Q993 1446 1002 1422Q1005 1414 1014.0 1389.5Q1023 1365 1036.0 1330.5Q1049 1296 1065.0 1255.5Q1081 1215 1097.0 1173.5Q1113 1132 1128.0 1093.0Q1143 1054 1154.5 1024.0Q1166 994 1173.5 975.5Q1181 957 1181 957Q1189 947 1197.0 941.0Q1205 935 1219 935Q1237 935 1249.5 947.5Q1262 960 1262 978V1546Q1262 1568 1270.5 1587.5Q1279 1607 1294.0 1621.5Q1309 1636 1328.5 1644.5Q1348 1653 1370 1653Z" style="fill:#ffc83d;stroke:none" transform="scale(1,-1) translate(0,-256)" /></svg>