<?xml version="1.0" encoding="utf-8" ?>
<svg baseProfile="full" height="256" version="1.1" width="256" xmlns="http://www.w3.org/2000/svg" xmlns:ev="http://www.w3.org/2001/xml-events" xmlns:xlink="http://www.w3.org/1999/xlink"><defs /><path d="M2294 -72V-287H1359V-72ZM2114 863Q2129 863 2139.5 873.5Q2150 884 2150 899V1366Q2150 1388 2158.5 1407.5Q2167 1427 2182.0 1442.0Q2197 1457 2216.5 1465.5Q2236 1474 2258 1474Q2280 1474 2299.5 1465.5Q2319 1457 2334.0 1442.0Q2349 1427 2357.5 1407.5Q2366 1388 2366 1366V324Q2366 253 2347.5 184.5Q2329 116 2294 55V0H1359V26L898 474Q878 494 867.0 520.5Q856 547 856 575Q856 605 867.5 631.0Q879 657 898.5 676.5Q918 696 944.0 707.5Q970 719 1000 719Q1032 719 1055.0 708.0Q1078 697 1102 677Q1153 634 1205.5 591.5Q1258 549 1307 503H1539Q1606 503 1665.0 477.5Q1724 452 1768.0 408.0Q1812 364 1837.5 305.5Q1863 247 1863 180Q1863 165 1873.5 154.5Q1884 144 1899 144Q1913 144 1923.5 155.0Q1934 166 1934 180Q1934 262 1903.0 334.0Q1872 406 1818.5 459.5Q1765 513 1693.0 544.0Q1621 575 1539 575H1288V1438Q1288 1468 1299.0 1494.0Q1310 1520 1329.5 1539.5Q1349 1559 1375.0 1570.5Q1401 1582 1431 1582Q1451 1582 1469.0 1576.5Q1487 1571 1504 1562V899Q1504 883 1514.5 873.0Q1525 863 1539 863Q1554 863 1564.5 873.5Q1575 884 1575 899V1581Q1575 1611 1586.0 1637.0Q1597 1663 1616.5 1682.5Q1636 1702 1662.5 1713.5Q1689 1725 1719 1725Q1723 1725 1734.5 1723.5Q1746 1722 1759.0 1719.0Q1772 1716 1782.0 1712.5Q1792 1709 1792 1705V899Q1792 883 1802.5 873.0Q1813 863 1827 863Q1842 863 1852.5 873.5Q1863 884 1863 899V1581Q1863 1611 1874.0 1637.0Q1885 1663 1904.5 1682.5Q1924 1702 1950.0 1713.5Q1976 1725 2006 1725Q2044 1725 2079 1706V1685Q2079 1667 2079.0 1621.5Q2079 1576 2079.0 1487.0Q2079 1398 2078.5 1255.0Q2078 1112 2078 899Q2078 884 2088.5 873.5Q2099 863 2114 863Z" style="fill:#bb9167;stroke:none" transform="scale(1,-1) translate(0,-256)" /></svg>