<?xml version="1.0" encoding="utf-8" ?>
<svg baseProfile="full" height="256" version="1.1" width="256" xmlns="http://www.w3.org/2000/svg" xmlns:ev="http://www.w3.org/2001/xml-events" xmlns:xlink="http://www.w3.org/1999/xlink"><defs /><path d="M812 1433Q828 1437 847 1437Q876 1437 903.0 1426.5Q930 1416 950 1396L1435 915Q1443 901 1443 887Q1443 873 1432.5 862.0Q1422 851 1407 851Q1393 851 1382 862ZM609 1229Q618 1232 627.0 1233.0Q636 1234 646 1234Q673 1234 700.0 1223.5Q727 1213 747 1193L1230 710Q1240 700 1240 684Q1240 670 1229.5 659.0Q1219 648 1204 648Q1190 648 1179 659ZM507 925Q523 929 542 929Q571 929 598.0 918.5Q625 908 645 888L1027 507Q1037 497 1037 481Q1037 467 1026.5 456.0Q1016 445 1001 445Q987 445 976 456Z" style="fill:#613d30;stroke:none" transform="scale(1,-1) translate(0,-256)" /></svg>