<?xml version="1.0" encoding="utf-8" ?>
<svg baseProfile="full" height="256" version="1.1" width="256" xmlns="http://www.w3.org/2000/svg" xmlns:ev="http://www.w3.org/2001/xml-events" xmlns:xlink="http://www.w3.org/1999/xlink"><defs /><path d="M2292 1615Q2338 1609 2378.0 1586.5Q2418 1564 2447.0 1531.0Q2476 1498 2492.5 1455.5Q2509 1413 2509 1366V324Q2509 244 2491.0 167.0Q2473 90 2438 19V-431H1216V-287Q1106 -178 997.0 -71.5Q888 35 779 144Q668 254 559.0 363.5Q450 473 340 583Q300 623 278.0 675.5Q256 728 256 785Q256 852 285.0 912.5Q314 973 368 1013Q357 1052 357 1089Q357 1138 372.5 1183.0Q388 1228 416.5 1265.0Q445 1302 484.0 1329.0Q523 1356 571 1368Q603 1466 674.0 1523.5Q745 1581 849 1581Q898 1581 943.5 1565.0Q989 1549 1027 1520Q1059 1545 1097.5 1558.0Q1136 1571 1177 1571Q1214 1643 1282.0 1684.0Q1350 1725 1431 1725Q1441 1725 1450.0 1724.0Q1459 1723 1469 1723Q1488 1757 1515.0 1784.0Q1542 1811 1574.5 1830.0Q1607 1849 1643.5 1859.0Q1680 1869 1719 1869Q1757 1869 1793.5 1859.0Q1830 1849 1863 1830Q1895 1850 1931.5 1859.5Q1968 1869 2006 1869Q2060 1869 2109.5 1849.5Q2159 1830 2197.0 1796.0Q2235 1762 2260.5 1715.5Q2286 1669 2292 1615Z" style="fill:#000000;stroke:none" transform="scale(1,-1) translate(0,-256)" /></svg>