<?xml version="1.0" encoding="utf-8" ?>
<svg baseProfile="full" height="256" version="1.1" width="256" xmlns="http://www.w3.org/2000/svg" xmlns:ev="http://www.w3.org/2001/xml-events" xmlns:xlink="http://www.w3.org/1999/xlink"><defs /><path d="M2412 719Q2412 580 2376.0 451.5Q2340 323 2274.5 211.0Q2209 99 2117.5 7.5Q2026 -84 1914.0 -149.5Q1802 -215 1673.5 -251.0Q1545 -287 1406 -287Q1267 -287 1138.5 -251.0Q1010 -215 898.0 -149.5Q786 -84 694.5 7.5Q603 99 537.5 211.0Q472 323 436.0 451.5Q400 580 400 719Q400 755 402.5 791.0Q405 827 410 863L505 971L466 1078Q522 1224 617.0 1343.5Q712 1463 835.0 1547.5Q958 1632 1103.5 1678.5Q1249 1725 1406 1725Q1563 1725 1708.5 1678.5Q1854 1632 1977.0 1547.5Q2100 1463 2195.0 1343.5Q2290 1224 2346 1078L2307 973L2402 863Q2407 827 2409.5 791.0Q2412 755 2412 719Z" style="fill:#ffc83d;stroke:none" transform="scale(1,-1) translate(0,-256)" /></svg>