<?xml version="1.0" encoding="utf-8" ?>
<svg baseProfile="full" height="256" version="1.1" width="256" xmlns="http://www.w3.org/2000/svg" xmlns:ev="http://www.w3.org/2001/xml-events" xmlns:xlink="http://www.w3.org/1999/xlink"><defs /><path d="M939 1078Q991 1078 1037.0 1058.5Q1083 1039 1117.0 1005.0Q1151 971 1170.5 925.0Q1190 879 1190 827Q1190 775 1170.5 729.0Q1151 683 1117.0 649.0Q1083 615 1037.0 595.0Q991 575 939 575Q887 575 841.0 595.0Q795 615 761.0 649.0Q727 683 707.0 729.0Q687 775 687 827Q687 879 707.0 925.0Q727 971 761.0 1005.0Q795 1039 841.0 1058.5Q887 1078 939 1078ZM1873 1078Q1925 1078 1971.0 1058.5Q2017 1039 2051.0 1005.0Q2085 971 2105.0 925.0Q2125 879 2125 827Q2125 775 2105.0 729.0Q2085 683 2051.0 649.0Q2017 615 1971.0 595.0Q1925 575 1873 575Q1821 575 1775.0 595.0Q1729 615 1695.0 649.0Q1661 683 1641.5 729.0Q1622 775 1622 827Q1622 879 1641.5 925.0Q1661 971 1695.0 1005.0Q1729 1039 1775.0 1058.5Q1821 1078 1873 1078ZM1550 144H1262V360H1550ZM939 719Q961 719 980.5 727.5Q1000 736 1015.0 751.0Q1030 766 1038.5 785.5Q1047 805 1047 827Q1047 849 1038.5 868.5Q1030 888 1015.0 903.0Q1000 918 980.5 926.5Q961 935 939 935Q917 935 897.5 926.5Q878 918 863.0 903.0Q848 888 839.5 868.5Q831 849 831 827Q831 804 839.5 784.5Q848 765 862.5 750.5Q877 736 896.5 727.5Q916 719 939 719ZM1873 719Q1895 719 1915.0 727.5Q1935 736 1949.5 750.5Q1964 765 1972.5 784.5Q1981 804 1981 827Q1981 849 1972.5 868.5Q1964 888 1949.0 903.0Q1934 918 1914.5 926.5Q1895 935 1873 935Q1851 935 1831.5 926.5Q1812 918 1797.0 903.0Q1782 888 1773.5 868.5Q1765 849 1765 827Q1765 805 1773.5 785.5Q1782 766 1797.0 751.0Q1812 736 1831.5 727.5Q1851 719 1873 719ZM1334 1078H1478V863H1334Z" style="fill:#ffffff;stroke:none" transform="scale(1,-1) translate(0,-256)" /></svg>