<?xml version="1.0" encoding="utf-8" ?>
<svg baseProfile="full" height="256" version="1.1" width="256" xmlns="http://www.w3.org/2000/svg" xmlns:ev="http://www.w3.org/2001/xml-events" xmlns:xlink="http://www.w3.org/1999/xlink"><defs /><path d="M1406 308Q1410 309 1432.5 317.5Q1455 326 1481.0 335.5Q1507 345 1528.5 352.5Q1550 360 1550 360H1909Q1909 282 1886.5 210.0Q1864 138 1822.0 76.5Q1780 15 1721.0 -32.5Q1662 -80 1590 -108L1406 -64L1222 -108Q1150 -80 1091.0 -32.5Q1032 15 990.0 76.5Q948 138 925.5 210.0Q903 282 903 360H1262Q1262 360 1283.5 352.5Q1305 345 1331.0 335.5Q1357 326 1379.5 317.5Q1402 309 1406 308ZM2346 1078Q2366 1026 2380.0 972.0Q2394 918 2402 863H2267Q2268 855 2268.0 846.5Q2268 838 2268 830Q2268 748 2238.0 675.5Q2208 603 2154.5 548.5Q2101 494 2029.0 462.5Q1957 431 1873 431Q1791 431 1719.0 462.0Q1647 493 1593.5 547.0Q1540 601 1509.0 673.0Q1478 745 1478 827V874H1334V827Q1334 745 1303.0 673.0Q1272 601 1218.5 547.0Q1165 493 1093.0 462.0Q1021 431 939 431Q857 431 785.0 462.0Q713 493 659.0 547.0Q605 601 574.0 673.0Q543 745 543 827Q543 836 543.5 845.0Q544 854 545 863H410Q418 918 432.0 972.0Q446 1026 466 1078H634Q691 1147 770.5 1184.5Q850 1222 939 1222Q1028 1222 1107.0 1184.5Q1186 1147 1243 1078H1334V1067H1478V1078H1569Q1626 1147 1705.0 1184.5Q1784 1222 1873 1222Q1962 1222 2041.5 1184.5Q2121 1147 2178 1078Z" style="fill:#000000;stroke:none" transform="scale(1,-1) translate(0,-256)" /></svg>