<?xml version="1.0" encoding="utf-8" ?>
<svg baseProfile="full" height="256" version="1.1" width="256" xmlns="http://www.w3.org/2000/svg" xmlns:ev="http://www.w3.org/2001/xml-events" xmlns:xlink="http://www.w3.org/1999/xlink"><defs /><path d="M1209 1258 1063 1112 935 1240 1081 1386ZM1927 248 1799 376 1945 522 2073 394ZM885 1189 1012 1062 867 916 739 1044ZM2251 216 2105 70 1978 198 2123 343ZM1876 198 1731 52 1603 180 1749 325ZM885 1291 757 1418 903 1564 1030 1436ZM1927 147 2054 19 1909 -126 1782 2ZM834 1240 688 1095 561 1222 706 1367Z" style="fill:#0078d7;stroke:none" transform="scale(1,-1) translate(0,-256)" /></svg>