<?xml version="1.0" encoding="utf-8" ?>
<svg baseProfile="full" height="256" version="1.1" width="256" xmlns="http://www.w3.org/2000/svg" xmlns:ev="http://www.w3.org/2001/xml-events" xmlns:xlink="http://www.w3.org/1999/xlink"><defs /><path d="M2311 1366Q2311 1336 2290 1315L2197 1222H2125L2053 1150L1959 1243L1862 1018L1604 1276L1725 1397Q1757 1429 1801 1429Q1823 1429 1842.0 1420.5Q1861 1412 1877 1397L1981 1294L2197 1510L2290 1417Q2311 1396 2311 1366ZM769 82 1092 405Q1095 401 1096.0 395.5Q1097 390 1097 384Q1097 378 1096.5 372.0Q1096 366 1096 361Q1096 349 1101 342Q1122 310 1139.0 280.5Q1156 251 1167.0 220.0Q1178 189 1184.0 155.5Q1190 122 1190 83Q1190 -2 1158.5 -78.5Q1127 -155 1067 -215Z" style="fill:#a6a6a6;stroke:none" transform="scale(1,-1) translate(0,-256)" /></svg>