<?xml version="1.0" encoding="utf-8" ?>
<svg baseProfile="full" height="256" version="1.1" width="256" xmlns="http://www.w3.org/2000/svg" xmlns:ev="http://www.w3.org/2001/xml-events" xmlns:xlink="http://www.w3.org/1999/xlink"><defs /><path d="M2556 216 1909 -431 1385 94Q1361 87 1334 87V83Q1334 -30 1291.5 -133.5Q1249 -237 1169 -317L1067 -419L811 -163Q797 -192 776.5 -214.5Q756 -237 730.5 -253.5Q705 -270 675.5 -278.5Q646 -287 615 -287Q570 -287 530.5 -270.5Q491 -254 462.0 -225.0Q433 -196 416.5 -156.5Q400 -117 400 -72Q400 -41 408.5 -11.5Q417 18 433.5 43.5Q450 69 472.5 89.5Q495 110 524 124L268 380L370 482Q451 563 555.0 605.0Q659 647 774 647Q774 675 781 697L256 1222L903 1869L1412 1360Q1434 1383 1456.5 1407.0Q1479 1431 1503.5 1450.5Q1528 1470 1556.0 1482.5Q1584 1495 1619 1495Q1648 1526 1686.0 1545.0Q1724 1564 1766 1570L1881 1685Q1916 1720 1960.0 1738.0Q2004 1756 2053 1756Q2101 1756 2146.0 1737.5Q2191 1719 2225 1685L2372 1538Q2406 1504 2424.5 1459.0Q2443 1414 2443 1366Q2443 1317 2425.0 1273.0Q2407 1229 2372 1194L2257 1079Q2252 1037 2232.0 999.0Q2212 961 2182 932Q2181 897 2168.5 869.0Q2156 841 2137.0 816.5Q2118 792 2094.0 770.0Q2070 748 2047 725Z" style="fill:#000000;stroke:none" transform="scale(1,-1) translate(0,-256)" /></svg>