<?xml version="1.0" encoding="utf-8" ?>
<svg baseProfile="full" height="256" version="1.1" width="256" xmlns="http://www.w3.org/2000/svg" xmlns:ev="http://www.w3.org/2001/xml-events" xmlns:xlink="http://www.w3.org/1999/xlink"><defs /><path d="M1025 112 815 88 820 83 685 -53Q686 -58 686.5 -62.5Q687 -67 687 -72Q687 -101 665.5 -122.5Q644 -144 615 -144Q586 -144 564.5 -122.5Q543 -101 543 -72Q543 -39 565.0 -20.0Q587 -1 618 -1Q622 -1 626.0 -1.0Q630 -1 634 -2L744 108L472 380Q532 440 608.5 471.5Q685 503 770 503Q809 503 842.5 497.0Q876 491 907.0 480.0Q938 469 967.5 452.0Q997 435 1029 414Q1035 409 1049 409Q1054 409 1060.0 409.5Q1066 410 1071 410Q1076 410 1081.5 409.5Q1087 409 1092 405ZM2197 1510 1998 1205 1837 1366 1909 1438V1510L2002 1603Q2023 1624 2053 1624Q2083 1624 2104 1603Z" style="fill:#cccccc;stroke:none" transform="scale(1,-1) translate(0,-256)" /></svg>