<?xml version="1.0" encoding="utf-8" ?>
<svg baseProfile="full" height="256" version="1.1" width="256" xmlns="http://www.w3.org/2000/svg" xmlns:ev="http://www.w3.org/2001/xml-events" xmlns:xlink="http://www.w3.org/1999/xlink"><defs /><path d="M1874 352 1773 250 1532 492 1556 580 1633 593ZM2017 971 1837 1150 1981 1294 2084 1190Q2099 1174 2107.5 1155.0Q2116 1136 2116 1114Q2116 1090 2106.0 1070.5Q2096 1051 2081.5 1034.0Q2067 1017 2049.5 1001.5Q2032 986 2017 971ZM1280 946 1275 847H1179L996 1028L1097 1129ZM1154 396 1101 342Q1069 382 1029 414L1083 467Z" style="fill:#757575;stroke:none" transform="scale(1,-1) translate(0,-256)" /></svg>