<?xml version="1.0" encoding="utf-8" ?>
<svg baseProfile="full" height="256" version="1.1" width="256" xmlns="http://www.w3.org/2000/svg" xmlns:ev="http://www.w3.org/2001/xml-events" xmlns:xlink="http://www.w3.org/1999/xlink"><defs /><path d="M1405 216Q1459 216 1502.5 228.5Q1546 241 1580.0 260.0Q1614 279 1641.0 301.0Q1668 323 1690.0 342.0Q1712 361 1730.0 373.5Q1748 386 1765 386Q1794 386 1815.5 364.5Q1837 343 1837 314Q1837 299 1833.0 289.5Q1829 280 1821 268Q1791 223 1742.0 186.5Q1693 150 1636.0 124.5Q1579 99 1518.5 85.5Q1458 72 1405 72Q1352 72 1291.5 85.0Q1231 98 1174.0 123.0Q1117 148 1068.5 184.5Q1020 221 990 267Q982 278 978.0 288.0Q974 298 974 312Q974 342 995.0 363.0Q1016 384 1046 384Q1064 384 1082.0 371.5Q1100 359 1121.5 340.5Q1143 322 1169.5 300.0Q1196 278 1230.0 259.5Q1264 241 1307.0 228.5Q1350 216 1405 216ZM1119 755Q1119 733 1110.5 713.5Q1102 694 1087.0 679.0Q1072 664 1052.5 655.5Q1033 647 1011 647Q988 647 968.5 655.5Q949 664 934.5 678.5Q920 693 911.5 712.5Q903 732 903 755V899Q903 921 911.5 941.0Q920 961 935.0 975.0Q950 989 969.5 997.5Q989 1006 1011 1006Q1033 1006 1052.5 997.5Q1072 989 1087.0 974.5Q1102 960 1110.5 940.5Q1119 921 1119 899ZM1837 935Q1882 935 1921.0 918.0Q1960 901 1989.5 871.5Q2019 842 2036.0 803.0Q2053 764 2053 719H1981Q1981 749 1960.0 770.0Q1939 791 1909 791H1693Q1663 791 1642.5 769.5Q1622 748 1622 719H1550Q1550 764 1567.0 803.0Q1584 842 1613.0 871.5Q1642 901 1681.0 918.0Q1720 935 1765 935Z" style="fill:#000000;stroke:none" transform="scale(1,-1) translate(0,-256)" /></svg>