<?xml version="1.0" encoding="utf-8" ?>
<svg baseProfile="full" height="256" version="1.1" width="256" xmlns="http://www.w3.org/2000/svg" xmlns:ev="http://www.w3.org/2001/xml-events" xmlns:xlink="http://www.w3.org/1999/xlink"><defs /><path d="M1478 288Q1478 184 1438.5 92.0Q1399 0 1330.5 -68.0Q1262 -136 1170.5 -175.5Q1079 -215 975 -215Q894 -215 818.5 -190.0Q743 -165 680.5 -120.0Q618 -75 570.5 -11.5Q523 52 497 129L512 404L619 643Q690 715 782.0 753.0Q874 791 975 791Q1079 791 1170.5 751.5Q1262 712 1330.5 643.5Q1399 575 1438.5 483.5Q1478 392 1478 288ZM2070 1239 1926 1383 1964 1421 2108 1277Z" style="fill:#ffffff;stroke:none" transform="scale(1,-1) translate(0,-256)" /></svg>