<?xml version="1.0" encoding="utf-8" ?>
<svg baseProfile="full" height="256" version="1.1" width="256" xmlns="http://www.w3.org/2000/svg" xmlns:ev="http://www.w3.org/2001/xml-events" xmlns:xlink="http://www.w3.org/1999/xlink"><defs /><path d="M975 -431Q876 -431 784.0 -405.5Q692 -380 612.0 -333.0Q532 -286 466.5 -220.5Q401 -155 354.0 -75.0Q307 5 281.5 97.0Q256 189 256 288Q256 387 282.0 478.5Q308 570 354.5 650.0Q401 730 467.0 795.5Q533 861 612.5 908.0Q692 955 784.0 980.5Q876 1006 975 1006Q1134 1006 1279 939L1837 1497V1569Q1847 1628 1887.0 1669.5Q1927 1711 1984 1722Q1990 1754 2006.0 1781.0Q2022 1808 2046.0 1827.5Q2070 1847 2099.5 1858.0Q2129 1869 2161 1869Q2177 1869 2192 1866Q2208 1869 2226 1869Q2269 1869 2308.5 1852.5Q2348 1836 2379 1806L2493 1692Q2523 1661 2539.0 1621.5Q2555 1582 2555 1539Q2555 1530 2554.0 1521.5Q2553 1513 2553 1505Q2553 1497 2554.5 1489.5Q2556 1482 2556 1474Q2556 1442 2545.0 1412.5Q2534 1383 2514.5 1359.0Q2495 1335 2468.0 1319.0Q2441 1303 2409 1297Q2404 1269 2390.5 1244.5Q2377 1220 2357.0 1200.5Q2337 1181 2311.5 1168.5Q2286 1156 2258 1152H2184L1626 592Q1693 447 1693 288Q1693 189 1667.5 97.0Q1642 5 1595.0 -74.5Q1548 -154 1482.5 -220.0Q1417 -286 1337.0 -332.5Q1257 -379 1165.5 -405.0Q1074 -431 975 -431Z" style="fill:#000000;stroke:none" transform="scale(1,-1) translate(0,-256)" /></svg>