<?xml version="1.0" encoding="utf-8" ?>
<svg baseProfile="full" height="256" version="1.1" width="256" xmlns="http://www.w3.org/2000/svg" xmlns:ev="http://www.w3.org/2001/xml-events" xmlns:xlink="http://www.w3.org/1999/xlink"><defs /><path d="M2268 1330Q2268 1315 2257.5 1304.5Q2247 1294 2232 1294Q2218 1294 2207.5 1305.0Q2197 1316 2197 1330Q2197 1344 2207.5 1355.0Q2218 1366 2232 1366Q2247 1366 2257.5 1355.5Q2268 1345 2268 1330ZM2412 1474Q2412 1459 2401.5 1448.5Q2391 1438 2376 1438Q2361 1438 2350.5 1448.5Q2340 1459 2340 1474Q2340 1488 2351.0 1499.0Q2362 1510 2376 1510Q2390 1510 2401.0 1499.0Q2412 1488 2412 1474ZM2197 1689Q2197 1675 2186.0 1664.0Q2175 1653 2161 1653Q2146 1653 2135.5 1663.5Q2125 1674 2125 1689Q2125 1704 2135.5 1714.5Q2146 1725 2161 1725Q2175 1725 2186.0 1714.0Q2197 1703 2197 1689ZM2053 1545Q2053 1531 2042.0 1520.5Q2031 1510 2017 1510Q2003 1510 1992.0 1520.5Q1981 1531 1981 1545Q1981 1560 1991.5 1570.5Q2002 1581 2017 1581Q2032 1581 2042.5 1570.5Q2053 1560 2053 1545Z" style="fill:#cccccc;stroke:none" transform="scale(1,-1) translate(0,-256)" /></svg>