<?xml version="1.0" encoding="utf-8" ?>
<svg baseProfile="full" height="256" version="1.1" width="256" xmlns="http://www.w3.org/2000/svg" xmlns:ev="http://www.w3.org/2001/xml-events" xmlns:xlink="http://www.w3.org/1999/xlink"><defs /><path d="M1550 288Q1550 169 1504.5 64.5Q1459 -40 1381.0 -118.0Q1303 -196 1198.5 -241.5Q1094 -287 975 -287Q856 -287 751.0 -242.0Q646 -197 568.0 -119.0Q490 -41 445.0 64.0Q400 169 400 288Q400 407 445.5 511.5Q491 616 569.0 694.0Q647 772 751.5 817.5Q856 863 975 863Q1094 863 1198.5 817.5Q1303 772 1381.0 694.0Q1459 616 1504.5 511.5Q1550 407 1550 288ZM2226 1725Q2256 1725 2277 1704L2391 1590Q2412 1569 2412 1539Q2412 1522 2405.0 1508.0Q2398 1494 2387.0 1482.0Q2376 1470 2363.5 1459.0Q2351 1448 2340 1438H2268V1366L2197 1294H2125L2089 1258L1945 1402L1981 1438V1510L2053 1581H2125V1653Q2135 1663 2146.0 1676.0Q2157 1689 2169.5 1699.5Q2182 1710 2195.5 1717.5Q2209 1725 2226 1725Z" style="fill:#757575;stroke:none" transform="scale(1,-1) translate(0,-256)" /></svg>