<?xml version="1.0" encoding="utf-8" ?>
<svg baseProfile="full" height="256" version="1.1" width="256" xmlns="http://www.w3.org/2000/svg" xmlns:ev="http://www.w3.org/2001/xml-events" xmlns:xlink="http://www.w3.org/1999/xlink"><defs /><path d="M2164 503Q2252 503 2324.5 470.5Q2397 438 2449.0 381.5Q2501 325 2529.5 249.5Q2558 174 2558 89Q2558 57 2557.0 26.5Q2556 -4 2556 -36Q2556 -118 2525.0 -190.0Q2494 -262 2440.5 -315.5Q2387 -369 2315.0 -400.0Q2243 -431 2161 -431Q2105 -431 2052.5 -416.0Q2000 -401 1954.0 -373.0Q1908 -345 1871.0 -305.0Q1834 -265 1809 -215H1334Q1253 -215 1177.5 -188.5Q1102 -162 1039 -111Q1025 -181 989.5 -239.5Q954 -298 902.5 -340.5Q851 -383 786.5 -407.0Q722 -431 651 -431Q569 -431 497.0 -400.0Q425 -369 371.5 -315.5Q318 -262 287.0 -190.0Q256 -118 256 -36Q256 36 280.0 100.0Q304 164 346.5 215.5Q389 267 448.0 302.5Q507 338 577 352L922 1438H831Q786 1438 747.0 1455.0Q708 1472 678.5 1501.0Q649 1530 632.0 1569.0Q615 1608 615 1653Q615 1698 632.0 1737.0Q649 1776 678.5 1805.5Q708 1835 747.0 1852.0Q786 1869 831 1869H1550Q1595 1869 1634.0 1852.0Q1673 1835 1702.0 1805.5Q1731 1776 1748.0 1737.0Q1765 1698 1765 1653Q1765 1608 1748.0 1569.0Q1731 1530 1702.0 1501.0Q1673 1472 1634.0 1455.0Q1595 1438 1550 1438H1367L1061 474L1247 288H1784L1808 312Q1847 352 1884.0 386.5Q1921 421 1962.5 447.0Q2004 473 2052.5 488.0Q2101 503 2164 503Z" style="fill:#000000;stroke:none" transform="scale(1,-1) translate(0,-256)" /></svg>