<?xml version="1.0" encoding="utf-8" ?>
<svg baseProfile="full" height="256" version="1.1" width="256" xmlns="http://www.w3.org/2000/svg" xmlns:ev="http://www.w3.org/2001/xml-events" xmlns:xlink="http://www.w3.org/1999/xlink"><defs /><path d="M2161 72Q2183 72 2203.0 63.5Q2223 55 2237.0 40.0Q2251 25 2259.5 5.5Q2268 -14 2268 -36Q2268 -58 2259.5 -77.5Q2251 -97 2236.5 -112.0Q2222 -127 2202.5 -135.5Q2183 -144 2161 -144Q2139 -144 2119.5 -135.5Q2100 -127 2085.0 -112.0Q2070 -97 2061.5 -77.5Q2053 -58 2053 -36Q2053 -14 2061.5 6.0Q2070 26 2084.5 40.5Q2099 55 2118.5 63.5Q2138 72 2161 72ZM651 72Q673 72 693.0 63.5Q713 55 727.5 40.5Q742 26 750.5 6.0Q759 -14 759 -36Q759 -58 750.5 -77.5Q742 -97 727.0 -112.0Q712 -127 692.5 -135.5Q673 -144 651 -144Q629 -144 609.5 -135.5Q590 -127 575.0 -112.0Q560 -97 551.5 -77.5Q543 -58 543 -36Q543 -14 551.5 5.5Q560 25 575.0 40.0Q590 55 609.5 63.5Q629 72 651 72Z" style="fill:#cccccc;stroke:none" transform="scale(1,-1) translate(0,-256)" /></svg>