<?xml version="1.0" encoding="utf-8" ?>
<svg baseProfile="full" height="256" version="1.1" width="256" xmlns="http://www.w3.org/2000/svg" xmlns:ev="http://www.w3.org/2001/xml-events" xmlns:xlink="http://www.w3.org/1999/xlink"><defs /><path d="M1550 1725Q1579 1725 1600.5 1703.5Q1622 1682 1622 1653Q1622 1624 1600.5 1602.5Q1579 1581 1550 1581H1334Q1299 1595 1263.0 1602.0Q1227 1609 1190 1609Q1117 1609 1047 1581H831Q802 1581 780.5 1602.5Q759 1624 759 1653Q759 1683 780.0 1704.0Q801 1725 831 1725H1047Q1048 1725 1054.5 1723.0Q1061 1721 1069.5 1718.5Q1078 1716 1085.5 1714.0Q1093 1712 1095 1711Q1141 1699 1191 1699Q1215 1699 1239.5 1701.5Q1264 1704 1287 1711Q1290 1712 1297.0 1714.5Q1304 1717 1311.5 1719.0Q1319 1721 1325.5 1723.0Q1332 1725 1334 1725Z" style="fill:#f03a17;stroke:none" transform="scale(1,-1) translate(0,-256)" /></svg>