<?xml version="1.0" encoding="utf-8" ?>
<svg baseProfile="full" height="256" version="1.1" width="256" xmlns="http://www.w3.org/2000/svg" xmlns:ev="http://www.w3.org/2001/xml-events" xmlns:xlink="http://www.w3.org/1999/xlink"><defs /><path d="M903 -36Q903 -88 883.0 -134.0Q863 -180 829.0 -214.0Q795 -248 749.0 -267.5Q703 -287 651 -287Q598 -287 552.5 -267.5Q507 -248 473.0 -214.0Q439 -180 419.5 -134.5Q400 -89 400 -36Q400 16 419.5 62.0Q439 108 473.0 142.0Q507 176 553.0 196.0Q599 216 651 216Q703 216 749.0 196.0Q795 176 829.0 142.0Q863 108 883.0 62.0Q903 16 903 -36Z" style="fill:#383838;stroke:none" transform="scale(1,-1) translate(0,-256)" /></svg>