<?xml version="1.0" encoding="utf-8" ?>
<svg baseProfile="full" height="256" version="1.1" width="256" xmlns="http://www.w3.org/2000/svg" xmlns:ev="http://www.w3.org/2001/xml-events" xmlns:xlink="http://www.w3.org/1999/xlink"><defs /><path d="M2412 -36Q2412 -89 2392.5 -134.5Q2373 -180 2339.0 -214.0Q2305 -248 2259.0 -267.5Q2213 -287 2161 -287Q2109 -287 2063.0 -267.5Q2017 -248 1983.0 -214.0Q1949 -180 1929.0 -134.0Q1909 -88 1909 -36Q1909 16 1929.0 62.0Q1949 108 1983.0 142.0Q2017 176 2063.0 196.0Q2109 216 2161 216Q2213 216 2259.0 196.0Q2305 176 2339.0 142.0Q2373 108 2392.5 62.0Q2412 16 2412 -36Z" style="fill:#383838;stroke:none" transform="scale(1,-1) translate(0,-256)" /></svg>