<?xml version="1.0" encoding="utf-8" ?>
<svg baseProfile="full" height="256" version="1.1" width="256" xmlns="http://www.w3.org/2000/svg" xmlns:ev="http://www.w3.org/2001/xml-events" xmlns:xlink="http://www.w3.org/1999/xlink"><defs /><path d="M1981 1725V1006Q1981 961 1998.0 922.0Q2015 883 2044.5 854.0Q2074 825 2113.0 808.0Q2152 791 2197 791H2268V-287H1514Q1477 -287 1444.0 -273.0Q1411 -259 1386.5 -234.5Q1362 -210 1348.0 -177.5Q1334 -145 1334 -108L1135 360L1268 815Q1278 848 1284.5 875.5Q1291 903 1298.0 929.0Q1305 955 1313.0 982.5Q1321 1010 1334 1042Q1348 1076 1361.0 1103.5Q1374 1131 1388.0 1157.0Q1402 1183 1416.5 1210.0Q1431 1237 1448 1270L1675 1725Z" style="fill:#f7630c;stroke:none" transform="scale(1,-1) translate(0,-256)" /></svg>