<?xml version="1.0" encoding="utf-8" ?>
<svg baseProfile="full" height="256" version="1.1" width="256" xmlns="http://www.w3.org/2000/svg" xmlns:ev="http://www.w3.org/2001/xml-events" xmlns:xlink="http://www.w3.org/1999/xlink"><defs /><path d="M1729 360Q1707 360 1687.5 368.5Q1668 377 1653.5 391.5Q1639 406 1630.5 425.5Q1622 445 1622 467Q1622 489 1630.5 508.5Q1639 528 1653.0 543.0Q1667 558 1686.5 566.5Q1706 575 1729 575Q1751 575 1771.0 566.5Q1791 558 1805.5 543.5Q1820 529 1828.5 509.0Q1837 489 1837 467Q1837 444 1828.5 424.5Q1820 405 1805.0 391.0Q1790 377 1770.5 368.5Q1751 360 1729 360ZM1442 288Q1464 288 1483.5 279.5Q1503 271 1518.0 256.0Q1533 241 1541.5 221.5Q1550 202 1550 180Q1550 158 1541.5 138.5Q1533 119 1518.0 104.0Q1503 89 1483.5 80.5Q1464 72 1442 72Q1419 72 1399.5 80.5Q1380 89 1365.5 103.5Q1351 118 1342.5 137.5Q1334 157 1334 180Q1334 202 1342.5 221.5Q1351 241 1366.0 256.0Q1381 271 1400.5 279.5Q1420 288 1442 288ZM1873 216Q1895 216 1915.0 207.5Q1935 199 1949.5 184.5Q1964 170 1972.5 150.0Q1981 130 1981 108Q1981 85 1972.5 65.5Q1964 46 1949.5 31.5Q1935 17 1915.0 8.5Q1895 0 1873 0Q1851 0 1831.5 8.5Q1812 17 1797.0 32.0Q1782 47 1773.5 66.5Q1765 86 1765 108Q1765 130 1773.5 149.5Q1782 169 1797.0 184.0Q1812 199 1831.5 207.5Q1851 216 1873 216Z" style="fill:#eba300;stroke:none" transform="scale(1,-1) translate(0,-256)" /></svg>