<?xml version="1.0" encoding="utf-8" ?>
<svg baseProfile="full" height="256" version="1.1" width="256" xmlns="http://www.w3.org/2000/svg" xmlns:ev="http://www.w3.org/2001/xml-events" xmlns:xlink="http://www.w3.org/1999/xlink"><defs /><path d="M621 1360Q728 1467 865.0 1524.0Q1002 1581 1154 1581Q1296 1581 1413.0 1535.5Q1530 1490 1627.0 1412.5Q1724 1335 1803.5 1232.5Q1883 1130 1949.0 1015.5Q2015 901 2069.5 782.0Q2124 663 2173 553Q2192 510 2210.0 478.5Q2228 447 2249.0 420.5Q2270 394 2295.5 369.0Q2321 344 2355 313Q2383 287 2397.5 260.0Q2412 233 2412 195Q2412 172 2406.0 153.0Q2400 134 2388 114Q2339 37 2269.5 -24.0Q2200 -85 2117.5 -127.5Q2035 -170 1945.0 -192.5Q1855 -215 1765 -215Q1610 -215 1452.0 -177.0Q1294 -139 1145.0 -71.0Q996 -3 862.0 90.0Q728 183 621 293Q599 316 579.0 339.0Q559 362 541 388Z" style="fill:#f7630c;stroke:none" transform="scale(1,-1) translate(0,-256)" /></svg>