<?xml version="1.0" encoding="utf-8" ?>
<svg baseProfile="full" height="256" version="1.1" width="256" xmlns="http://www.w3.org/2000/svg" xmlns:ev="http://www.w3.org/2001/xml-events" xmlns:xlink="http://www.w3.org/1999/xlink"><defs /><path d="M1765 -359Q1594 -359 1416.0 -315.5Q1238 -272 1070.0 -194.0Q902 -116 752.5 -9.0Q603 98 489 224Q457 218 424.0 217.0Q391 216 358 216H256V1078Q256 1175 292.0 1265.0Q328 1355 395 1425L374 1445Q351 1467 329.5 1489.0Q308 1511 291.5 1535.5Q275 1560 265.5 1588.5Q256 1617 256 1653Q256 1698 273.0 1737.0Q290 1776 319.0 1805.5Q348 1835 387.5 1852.0Q427 1869 472 1869Q515 1869 554.0 1852.5Q593 1836 624 1806Q665 1766 704.5 1726.0Q744 1686 784 1645Q872 1685 965.0 1705.0Q1058 1725 1154 1725Q1335 1725 1498.0 1657.5Q1661 1590 1789 1462Q1881 1370 1953.5 1269.0Q2026 1168 2087.0 1060.0Q2148 952 2200.5 839.0Q2253 726 2305 609Q2331 552 2363.5 509.5Q2396 467 2444 426Q2498 380 2527.0 323.5Q2556 267 2556 195Q2556 108 2507 33Q2447 -59 2364.5 -131.5Q2282 -204 2185.0 -254.5Q2088 -305 1981.0 -332.0Q1874 -359 1765 -359Z" style="fill:#000000;stroke:none" transform="scale(1,-1) translate(0,-256)" /></svg>