<?xml version="1.0" encoding="utf-8" ?>
<svg baseProfile="full" height="256" version="1.1" width="256" xmlns="http://www.w3.org/2000/svg" xmlns:ev="http://www.w3.org/2001/xml-events" xmlns:xlink="http://www.w3.org/1999/xlink"><defs /><path d="M1765 1510Q1907 1510 2026.0 1472.5Q2145 1435 2231.0 1360.0Q2317 1285 2364.5 1173.0Q2412 1061 2412 912Q2412 759 2376.5 612.0Q2341 465 2269 330Q2249 292 2232.5 264.0Q2216 236 2196 216Q2185 205 2151.0 191.5Q2117 178 2076.5 166.0Q2036 154 1998.5 144.5Q1961 135 1943 132Q1950 115 1952.0 99.0Q1954 83 1954 65V43L1908 -32V-287Q1853 -287 1813.0 -275.5Q1773 -264 1745.5 -246.5Q1718 -229 1701.0 -208.0Q1684 -187 1673.0 -168.5Q1662 -150 1656.0 -137.0Q1650 -124 1646 -122Q1623 -111 1600.0 -100.0Q1577 -89 1554 -77V112Q1545 110 1539.5 110.0Q1534 110 1529 110Q1479 110 1429.5 112.5Q1380 115 1329 117Q1263 120 1203.5 131.5Q1144 143 1092.5 168.0Q1041 193 998.5 234.5Q956 276 925 339Q910 370 900.0 403.0Q890 436 888 471L566 984Q562 990 561.5 991.5Q561 993 561.0 994.0Q561 995 559.5 996.5Q558 998 553 1004Q549 1008 536.0 1019.5Q523 1031 508.5 1043.5Q494 1056 482.5 1066.0Q471 1076 471 1078Q471 1109 481.5 1135.5Q492 1162 511.5 1181.5Q531 1201 557.0 1211.5Q583 1222 615 1222H1189Q1237 1222 1276.5 1206.0Q1316 1190 1344.5 1161.5Q1373 1133 1388.5 1093.5Q1404 1054 1404 1006V935Q1404 908 1410.5 882.0Q1417 856 1428 831Q1451 779 1486.0 743.5Q1521 708 1564.5 686.5Q1608 665 1658.5 656.0Q1709 647 1763 647Q1786 647 1808.5 651.0Q1831 655 1854 662Q1954 692 2002.5 762.0Q2051 832 2051 935Q2051 958 2047.0 981.0Q2043 1004 2036 1026Q2006 1126 1937.0 1174.0Q1868 1222 1765 1222Q1765 1204 1760.5 1186.5Q1756 1169 1749 1152Q1732 1110 1703.0 1082.0Q1674 1054 1638.0 1037.0Q1602 1020 1561.0 1013.0Q1520 1006 1478 1006V1294L1550 1366L1478 1438V1725Q1520 1725 1561.0 1718.0Q1602 1711 1638.0 1694.0Q1674 1677 1703.0 1649.5Q1732 1622 1749 1580Q1756 1563 1760.5 1545.5Q1765 1528 1765 1510Z" style="fill:#00bcf2;stroke:none" transform="scale(1,-1) translate(0,-256)" /></svg>