<?xml version="1.0" encoding="utf-8" ?>
<svg baseProfile="full" height="256" version="1.1" width="256" xmlns="http://www.w3.org/2000/svg" xmlns:ev="http://www.w3.org/2001/xml-events" xmlns:xlink="http://www.w3.org/1999/xlink"><defs /><path d="M1876 1648Q2038 1634 2164.5 1574.5Q2291 1515 2378.0 1417.5Q2465 1320 2510.5 1187.0Q2556 1054 2556 893V863Q2556 810 2549.0 758.0Q2542 706 2532 654Q2509 538 2469.5 428.5Q2430 319 2370.5 220.0Q2311 121 2232.0 36.0Q2153 -49 2052 -114V-431H1982Q1920 -431 1863.5 -427.0Q1807 -423 1755.5 -407.0Q1704 -391 1658.0 -361.0Q1612 -331 1572 -278Q1489 -287 1405 -287Q1219 -287 1053.5 -250.5Q888 -214 750.0 -134.0Q612 -54 504.0 72.5Q396 199 326 379Q311 416 298.5 459.0Q286 502 276.5 546.0Q267 590 261.5 634.5Q256 679 256 719Q256 745 255.0 770.0Q254 795 254 821Q254 850 256.5 878.5Q259 907 267.0 933.0Q275 959 289.5 982.5Q304 1006 328 1026V1078Q328 1139 350.0 1192.0Q372 1245 410.0 1283.5Q448 1322 500.5 1344.0Q553 1366 615 1366H1189Q1227 1366 1263.0 1360.0Q1299 1354 1334 1340V1869H1477Q1540 1869 1599.5 1856.5Q1659 1844 1711.0 1817.5Q1763 1791 1805.5 1749.0Q1848 1707 1876 1648ZM1907 935Q1907 967 1895.5 999.0Q1884 1031 1858 1051Q1810 972 1734.5 927.5Q1659 883 1569 869Q1584 845 1606.5 830.0Q1629 815 1655.0 806.0Q1681 797 1709.5 794.0Q1738 791 1764 791Q1833 791 1870.0 828.5Q1907 866 1907 935Z" style="fill:#000000;stroke:none" transform="scale(1,-1) translate(0,-256)" /></svg>