<?xml version="1.0" encoding="utf-8" ?>
<svg baseProfile="full" height="256" version="1.1" width="256" xmlns="http://www.w3.org/2000/svg" xmlns:ev="http://www.w3.org/2001/xml-events" xmlns:xlink="http://www.w3.org/1999/xlink"><defs /><path d="M1620 216V0Q1620 -32 1627.0 -62.5Q1634 -93 1646 -122Q1586 -133 1525.5 -138.5Q1465 -144 1404 -144Q1243 -144 1098.0 -113.0Q953 -82 831.0 -14.0Q709 54 613.5 163.5Q518 273 457 431Q445 462 434.0 498.5Q423 535 415.5 572.5Q408 610 403.5 647.5Q399 685 399 719V863Q399 895 419.0 915.0Q439 935 471 935H901Q932 935 959.0 924.5Q986 914 1005.5 895.0Q1025 876 1036.0 849.5Q1047 823 1047 791V431Q1047 384 1062.5 344.5Q1078 305 1106.5 276.5Q1135 248 1174.5 232.0Q1214 216 1261 216ZM1816 216H2196Q2081 59 1908 -32Q1908 5 1904.5 39.0Q1901 73 1891.5 104.0Q1882 135 1864.0 163.0Q1846 191 1816 216Z" style="fill:#69eaff;stroke:none" transform="scale(1,-1) translate(0,-256)" /></svg>