<?xml version="1.0" encoding="utf-8" ?>
<svg baseProfile="full" height="256" version="1.1" width="256" xmlns="http://www.w3.org/2000/svg" xmlns:ev="http://www.w3.org/2001/xml-events" xmlns:xlink="http://www.w3.org/1999/xlink"><defs /><path d="M939 1477Q939 1438 922 1402L759 1078V1116Q759 1147 757.5 1176.5Q756 1206 748 1237Q754 1249 767.5 1274.0Q781 1299 795.5 1326.5Q810 1354 820.5 1379.0Q831 1404 831 1415Q831 1434 819.5 1447.5Q808 1461 794.5 1473.5Q781 1486 770.0 1501.0Q759 1516 759 1539V1653H780Q799 1653 814.0 1648.5Q829 1644 841.5 1636.0Q854 1628 865.5 1617.5Q877 1607 890 1594Q939 1545 939 1477Z" style="fill:#383838;stroke:none" transform="scale(1,-1) translate(0,-256)" /></svg>