<?xml version="1.0" encoding="utf-8" ?>
<svg baseProfile="full" height="256" version="1.1" width="256" xmlns="http://www.w3.org/2000/svg" xmlns:ev="http://www.w3.org/2001/xml-events" xmlns:xlink="http://www.w3.org/1999/xlink"><defs /><path d="M700 1348Q683 1322 655.5 1308.0Q628 1294 597 1294Q572 1294 549.0 1304.0Q526 1314 509 1331Q508 1326 508.0 1321.5Q508 1317 508 1312Q508 1271 531 1239Q471 1265 435.5 1319.0Q400 1373 400 1438Q400 1474 409 1509Q497 1507 574.5 1464.5Q652 1422 700 1348ZM1201 288H1334Q1364 288 1385.0 267.0Q1406 246 1406 216H687Q687 246 708.0 267.0Q729 288 759 288H913L1055 535Q1070 525 1085.5 516.0Q1101 507 1117 499L996 288H1118L1242 503H1325ZM1730 720Q1646 727 1574.0 763.5Q1502 800 1448.5 858.0Q1395 916 1364.5 991.0Q1334 1066 1334 1150V1366L1410 1290Q1528 1170 1609.0 1027.5Q1690 885 1730 720Z" style="fill:#ffb900;stroke:none" transform="scale(1,-1) translate(0,-256)" /></svg>