<?xml version="1.0" encoding="utf-8" ?>
<svg baseProfile="full" height="256" version="1.1" width="256" xmlns="http://www.w3.org/2000/svg" xmlns:ev="http://www.w3.org/2001/xml-events" xmlns:xlink="http://www.w3.org/1999/xlink"><defs /><path d="M732 1481 439 1581Q477 1649 543.0 1687.0Q609 1725 687 1725H763Q865 1725 960.0 1685.0Q1055 1645 1127 1573L1334 1366Q1435 1131 1534.0 898.0Q1633 665 1737 431Q1768 362 1803.5 295.0Q1839 228 1873 160V41L1981 -56L2089 -272Q2059 -287 2024 -287Q1983 -287 1948.5 -266.0Q1914 -245 1896 -208L1788 8L1810 59Q1801 69 1784.5 87.0Q1768 105 1750.5 125.0Q1733 145 1718.0 163.0Q1703 181 1697 190Q1683 213 1675.5 230.0Q1668 247 1657 270L1576 431Q1545 431 1516.5 430.5Q1488 430 1461 430Q1416 430 1374.0 432.0Q1332 434 1290.5 441.0Q1249 448 1206.5 462.0Q1164 476 1117 499L1068 488L1055 535Q986 580 931.0 639.5Q876 699 838.0 769.0Q800 839 779.5 917.5Q759 996 759 1078Q759 1078 762.5 1091.5Q766 1105 771.5 1125.0Q777 1145 783.0 1168.5Q789 1192 795.0 1213.0Q801 1234 805.0 1249.5Q809 1265 810 1268Z" style="fill:#e81224;stroke:none" transform="scale(1,-1) translate(0,-256)" /></svg>