<?xml version="1.0" encoding="utf-8" ?>
<svg baseProfile="full" height="256" version="1.1" width="256" xmlns="http://www.w3.org/2000/svg" xmlns:ev="http://www.w3.org/2001/xml-events" xmlns:xlink="http://www.w3.org/1999/xlink"><defs /><path d="M1730 720Q1748 649 1756.5 576.5Q1765 504 1765 431Q1676 431 1597.5 465.0Q1519 499 1460.5 557.5Q1402 616 1368.0 695.0Q1334 774 1334 863V1150ZM1873 160 1981 -56Q1951 -71 1917 -71Q1876 -71 1841.0 -49.5Q1806 -28 1788 8L1697 190Q1718 168 1746.5 156.0Q1775 144 1806 144Q1839 144 1873 160Z" style="fill:#0078d7;stroke:none" transform="scale(1,-1) translate(0,-256)" /></svg>