<?xml version="1.0" encoding="utf-8" ?>
<svg baseProfile="full" height="256" version="1.1" width="256" xmlns="http://www.w3.org/2000/svg" xmlns:ev="http://www.w3.org/2001/xml-events" xmlns:xlink="http://www.w3.org/1999/xlink"><defs /><path d="M869 1503 856 1335 748 1237Q741 1266 729.0 1294.0Q717 1322 700 1347L409 1509Q409 1514 412.5 1524.0Q416 1534 421.0 1545.5Q426 1557 431.0 1566.5Q436 1576 439 1581Q468 1581 487.0 1586.5Q506 1592 519.5 1600.0Q533 1608 543.5 1617.0Q554 1626 565.5 1634.0Q577 1642 592.0 1647.5Q607 1653 630 1653H759Z" style="fill:#f2f2f2;stroke:none" transform="scale(1,-1) translate(0,-256)" /></svg>