<?xml version="1.0" encoding="utf-8" ?>
<svg baseProfile="full" height="256" version="1.1" width="256" xmlns="http://www.w3.org/2000/svg" xmlns:ev="http://www.w3.org/2001/xml-events" xmlns:xlink="http://www.w3.org/1999/xlink"><defs /><path d="M2025 -431Q1971 -431 1920.0 -411.0Q1869 -391 1829 -355Q1760 -343 1707.5 -302.5Q1655 -262 1624 -200L1487 72H543V216Q543 261 560.0 300.0Q577 339 606.5 368.0Q636 397 675.0 414.0Q714 431 759 431H830L868 499Q753 606 687.5 747.5Q622 889 616 1046L474 1107Q424 1129 384.0 1163.0Q344 1197 315.5 1240.0Q287 1283 271.5 1333.5Q256 1384 256 1438Q256 1528 290.0 1606.5Q324 1685 382.5 1743.5Q441 1802 519.5 1835.5Q598 1869 687 1869Q729 1869 770.5 1868.5Q812 1868 854 1863Q905 1858 956.5 1841.0Q1008 1824 1056.5 1799.0Q1105 1774 1149.0 1742.0Q1193 1710 1229 1674L1511 1392Q1608 1295 1682.5 1183.0Q1757 1071 1807.0 948.0Q1857 825 1883.0 693.5Q1909 562 1909 425V409L2282 -336Q2252 -352 2221.0 -368.5Q2190 -385 2158.5 -399.0Q2127 -413 2093.5 -422.0Q2060 -431 2025 -431Z" style="fill:#000000;stroke:none" transform="scale(1,-1) translate(0,-256)" /></svg>