<?xml version="1.0" encoding="utf-8" ?>
<svg baseProfile="full" height="256" version="1.1" width="256" xmlns="http://www.w3.org/2000/svg" xmlns:ev="http://www.w3.org/2001/xml-events" xmlns:xlink="http://www.w3.org/1999/xlink"><defs /><path d="M1514 662 1945 -200Q1915 -215 1881 -215Q1840 -215 1805.0 -193.5Q1770 -172 1752 -136L1644 80L1673 131Q1668 136 1649.5 156.5Q1631 177 1610.0 199.5Q1589 222 1571.5 240.5Q1554 259 1553 262Q1543 278 1536.0 291.0Q1529 304 1523.0 317.0Q1517 330 1511.0 343.5Q1505 357 1497 374L1385 598Z" style="fill:#af0d1a;stroke:none" transform="scale(1,-1) translate(0,-256)" /></svg>