<?xml version="1.0" encoding="utf-8" ?>
<svg baseProfile="full" height="256" version="1.1" width="256" xmlns="http://www.w3.org/2000/svg" xmlns:ev="http://www.w3.org/2001/xml-events" xmlns:xlink="http://www.w3.org/1999/xlink"><defs /><path d="M1519 688Q1571 658 1610.0 610.5Q1649 563 1681 513L1860 230H1665L1505 499Q1477 545 1455.0 573.0Q1433 601 1407.5 615.0Q1382 629 1348.5 633.5Q1315 638 1264 638H1249V230H1083V1236H1414Q1478 1236 1537.5 1221.0Q1597 1206 1643.0 1173.0Q1689 1140 1716.0 1088.5Q1743 1037 1743 965Q1743 911 1726.5 866.5Q1710 822 1680.5 787.5Q1651 753 1610.0 728.0Q1569 703 1519 688ZM1388 774Q1427 774 1460.0 786.0Q1493 798 1516.5 820.5Q1540 843 1553.0 875.0Q1566 907 1566 947Q1566 988 1552.5 1017.0Q1539 1046 1515.0 1065.0Q1491 1084 1458.5 1092.5Q1426 1101 1389 1101H1249V774Z" style="fill:#000000;stroke:none" transform="scale(1,-1) translate(0,-256)" /></svg>