<?xml version="1.0" encoding="utf-8" ?>
<svg baseProfile="full" height="256" version="1.1" width="256" xmlns="http://www.w3.org/2000/svg" xmlns:ev="http://www.w3.org/2001/xml-events" xmlns:xlink="http://www.w3.org/1999/xlink"><defs /><path d="M1621 1869V1797H1837V1701Q1888 1682 1934.0 1652.5Q1980 1623 2015 1581H2484V934H2412V862H2556V-419H2555V-431H2208L2136 -359H676L603 -431H256V-156L742 330Q687 448 687 575V1294Q687 1363 707.5 1426.5Q728 1490 766.0 1543.0Q804 1596 856.5 1636.5Q909 1677 974 1701V1797H1190V1869Z" style="fill:#000000;stroke:none" transform="scale(1,-1) translate(0,-256)" /></svg>