<?xml version="1.0" encoding="utf-8" ?>
<svg baseProfile="full" height="256" version="1.1" width="256" xmlns="http://www.w3.org/2000/svg" xmlns:ev="http://www.w3.org/2001/xml-events" xmlns:xlink="http://www.w3.org/1999/xlink"><defs /><path d="M1981 1294V575Q1981 567 1978.5 557.5Q1976 548 1974 541Q1960 484 1924.0 431.5Q1888 379 1837 348H974Q950 361 924.5 388.0Q899 415 878.0 447.0Q857 479 844.0 513.0Q831 547 831 575V1294Q831 1339 845.0 1381.5Q859 1424 884.5 1460.5Q910 1497 945.5 1524.5Q981 1552 1024 1566Q1047 1574 1071.0 1575.5Q1095 1577 1118 1582L1334 1622V1725H1478V1622L1693 1582Q1716 1577 1740.0 1575.5Q1764 1574 1787 1566Q1830 1552 1866.0 1524.5Q1902 1497 1927.5 1461.0Q1953 1425 1967.0 1382.0Q1981 1339 1981 1294ZM2124 1294Q2138 1322 2169.5 1334.5Q2201 1347 2230 1347Q2261 1347 2292.0 1333.5Q2323 1320 2340 1294V1078H2268L2231 1060L2196 1078H2124Z" style="fill:#e5e5e5;stroke:none" transform="scale(1,-1) translate(0,-256)" /></svg>