<?xml version="1.0" encoding="utf-8" ?>
<svg baseProfile="full" height="256" version="1.1" width="256" xmlns="http://www.w3.org/2000/svg" xmlns:ev="http://www.w3.org/2001/xml-events" xmlns:xlink="http://www.w3.org/1999/xlink"><defs /><path d="M1693 647Q1723 647 1744.0 626.0Q1765 605 1765 575Q1765 546 1743.5 524.5Q1722 503 1693 503Q1664 503 1643.0 524.5Q1622 546 1622 575Q1622 604 1643.0 625.5Q1664 647 1693 647ZM1118 647Q1148 647 1169.0 626.0Q1190 605 1190 575Q1190 546 1168.5 524.5Q1147 503 1118 503Q1089 503 1068.0 524.5Q1047 546 1047 575Q1047 604 1068.0 625.5Q1089 647 1118 647Z" style="fill:#fce100;stroke:none" transform="scale(1,-1) translate(0,-256)" /></svg>