<?xml version="1.0" encoding="utf-8" ?>
<svg baseProfile="full" height="256" version="1.1" width="256" xmlns="http://www.w3.org/2000/svg" xmlns:ev="http://www.w3.org/2001/xml-events" xmlns:xlink="http://www.w3.org/1999/xlink"><defs /><path d="M1477 1186Q1477 1148 1468.5 1111.0Q1460 1074 1448 1038Q1418 949 1371.0 871.0Q1324 793 1262.5 726.5Q1201 660 1128.5 604.0Q1056 548 975 503Q981 496 993.0 481.5Q1005 467 1017.0 450.5Q1029 434 1038.0 418.5Q1047 403 1047 395Q1047 378 1036.0 369.0Q1025 360 1009 360H867Q852 360 841.5 369.5Q831 379 831 395Q831 403 840.0 418.5Q849 434 861.0 450.5Q873 467 885.0 481.5Q897 496 903 503Q823 548 750.0 604.0Q677 660 615.5 727.0Q554 794 506.5 871.5Q459 949 429 1038Q417 1074 408.0 1111.0Q399 1148 399 1186Q399 1298 441.5 1396.0Q484 1494 557.0 1567.0Q630 1640 728.0 1682.5Q826 1725 938 1725Q1050 1725 1148.0 1682.5Q1246 1640 1319.0 1567.0Q1392 1494 1434.5 1396.0Q1477 1298 1477 1186Z" style="fill:#f03a17;stroke:none" transform="scale(1,-1) translate(0,-256)" /></svg>