<?xml version="1.0" encoding="utf-8" ?>
<svg baseProfile="full" height="256" version="1.1" width="256" xmlns="http://www.w3.org/2000/svg" xmlns:ev="http://www.w3.org/2001/xml-events" xmlns:xlink="http://www.w3.org/1999/xlink"><defs /><path d="M1261 1114Q1232 1114 1210.5 1135.5Q1189 1157 1189 1186Q1189 1238 1169.0 1283.5Q1149 1329 1115.0 1363.5Q1081 1398 1035.5 1418.0Q990 1438 938 1438Q908 1438 887.0 1459.0Q866 1480 866 1510Q866 1539 887.5 1560.0Q909 1581 938 1581Q1020 1581 1092.0 1550.0Q1164 1519 1217.5 1465.5Q1271 1412 1302.0 1340.0Q1333 1268 1333 1186Q1333 1156 1312.0 1135.0Q1291 1114 1261 1114Z" style="fill:#ee9889;stroke:none" transform="scale(1,-1) translate(0,-256)" /></svg>