<?xml version="1.0" encoding="utf-8" ?>
<svg baseProfile="full" height="256" version="1.1" width="256" xmlns="http://www.w3.org/2000/svg" xmlns:ev="http://www.w3.org/2001/xml-events" xmlns:xlink="http://www.w3.org/1999/xlink"><defs /><path d="M1874 -431Q1836 -431 1803.5 -417.0Q1771 -403 1746.5 -378.5Q1722 -354 1708.0 -321.5Q1694 -289 1694 -251V-215Q1694 -185 1683.0 -159.0Q1672 -133 1652.5 -113.5Q1633 -94 1607.0 -83.0Q1581 -72 1551 -72H1191Q1119 -72 1053.0 -49.0Q987 -26 932.0 15.0Q877 56 837.0 113.5Q797 171 777 240Q735 264 711.5 306.0Q688 348 688 396Q688 429 701 463Q628 515 563.0 576.5Q498 638 444.0 708.5Q390 779 349.0 858.0Q308 937 283 1024Q272 1064 264.0 1104.0Q256 1144 256 1186Q256 1280 280.5 1367.5Q305 1455 349.5 1531.0Q394 1607 456.0 1669.0Q518 1731 594.0 1775.5Q670 1820 757.5 1844.5Q845 1869 939 1869Q1033 1869 1120.0 1844.5Q1207 1820 1283.0 1775.5Q1359 1731 1421.5 1668.5Q1484 1606 1528.5 1530.0Q1573 1454 1597.5 1367.0Q1622 1280 1622 1186Q1622 1144 1614.0 1104.0Q1606 1064 1595 1024Q1570 938 1529.0 858.5Q1488 779 1434.0 708.5Q1380 638 1315.0 576.0Q1250 514 1178 463Q1191 431 1191 395Q1191 368 1183.5 342.5Q1176 317 1160 295Q1172 291 1190.0 289.0Q1208 287 1228.0 286.0Q1248 285 1267.5 285.0Q1287 285 1302 285Q1369 285 1430.0 286.5Q1491 288 1551 288Q1655 288 1746.5 248.5Q1838 209 1906.5 140.5Q1975 72 2014.5 -19.5Q2054 -111 2054 -215V-251Q2054 -289 2040.0 -321.5Q2026 -354 2001.5 -378.5Q1977 -403 1944.0 -417.0Q1911 -431 1874 -431Z" style="fill:#000000;stroke:none" transform="scale(1,-1) translate(0,-256)" /></svg>