<?xml version="1.0" encoding="utf-8" ?>
<svg baseProfile="full" height="256" version="1.1" width="256" xmlns="http://www.w3.org/2000/svg" xmlns:ev="http://www.w3.org/2001/xml-events" xmlns:xlink="http://www.w3.org/1999/xlink"><defs /><path d="M903 360Q903 366 908.0 369.0Q913 372 920.0 373.5Q927 375 934.0 375.5Q941 376 945 376Q956 376 962.5 373.5Q969 371 975 360Q978 355 979.5 345.5Q981 336 982.5 325.0Q984 314 986.0 303.5Q988 293 990 286Q1012 220 1066.5 182.0Q1121 144 1190 144H1550Q1624 144 1689.5 115.5Q1755 87 1803.5 38.5Q1852 -10 1880.5 -75.5Q1909 -141 1909 -215V-238Q1909 -257 1902.5 -272.0Q1896 -287 1873 -287Q1858 -287 1847.5 -276.5Q1837 -266 1837 -251V-215Q1837 -156 1814.5 -103.5Q1792 -51 1753.0 -12.0Q1714 27 1661.5 49.5Q1609 72 1550 72H1190Q1131 72 1079.0 95.0Q1027 118 988.0 157.5Q949 197 926.0 249.0Q903 301 903 360Z" style="fill:#ffffff;stroke:none" transform="scale(1,-1) translate(0,-256)" /></svg>