<?xml version="1.0" encoding="utf-8" ?>
<svg baseProfile="full" height="256" version="1.1" width="256" xmlns="http://www.w3.org/2000/svg" xmlns:ev="http://www.w3.org/2001/xml-events" xmlns:xlink="http://www.w3.org/1999/xlink"><defs /><path d="M2412 899Q2412 894 2397.5 864.0Q2383 834 2361.0 791.5Q2339 749 2312.5 699.5Q2286 650 2262.0 605.0Q2238 560 2220.0 526.5Q2202 493 2196 482Q2193 375 2163.0 276.5Q2133 178 2081.0 92.5Q2029 7 1957.5 -63.0Q1886 -133 1799.0 -183.0Q1712 -233 1612.5 -260.0Q1513 -287 1406 -287Q1299 -287 1200.0 -259.5Q1101 -232 1014.0 -182.5Q927 -133 855.0 -63.0Q783 7 731.0 92.5Q679 178 649.0 276.5Q619 375 616 482Q610 493 592.0 526.5Q574 560 550.0 605.0Q526 650 499.5 699.5Q473 749 451.0 792.0Q429 835 414.5 864.5Q400 894 400 899Q400 913 411.0 924.0Q422 935 436 935H615V1165L761 1397L615 1638V1653Q615 1682 636.5 1703.5Q658 1725 687 1725Q693 1725 707.5 1721.0Q722 1717 727 1714L1190 1438L1264 1330L1334 1438H1478L1558 1347L1622 1438L2086 1714Q2092 1718 2105.5 1721.5Q2119 1725 2125 1725Q2164 1725 2180.5 1698.5Q2197 1672 2197 1638L2083 1421L2197 1165V935H2376Q2390 935 2401.0 924.0Q2412 913 2412 899Z" style="fill:#ffc83d;stroke:none" transform="scale(1,-1) translate(0,-256)" /></svg>