<?xml version="1.0" encoding="utf-8" ?>
<svg baseProfile="full" height="256" version="1.1" width="256" xmlns="http://www.w3.org/2000/svg" xmlns:ev="http://www.w3.org/2001/xml-events" xmlns:xlink="http://www.w3.org/1999/xlink"><defs /><path d="M2527 801Q2556 745 2556 683V360Q2556 260 2518.5 170.5Q2481 81 2412 9V-431H400V9Q331 81 293.5 170.5Q256 260 256 360V683Q256 745 285 801Q271 825 263.5 848.0Q256 871 256 899Q256 936 270.0 968.5Q284 1001 308.5 1025.5Q333 1050 366.0 1064.0Q399 1078 436 1078H472V1653Q472 1698 489.0 1737.0Q506 1776 535.0 1805.5Q564 1835 603.0 1852.0Q642 1869 687 1869Q717 1869 745.5 1860.5Q774 1852 800 1837L1230 1581H1582L2017 1840Q2040 1854 2069.0 1861.5Q2098 1869 2125 1869Q2170 1869 2209.0 1852.0Q2248 1835 2277.0 1805.5Q2306 1776 2323.0 1737.0Q2340 1698 2340 1653V1078H2376Q2413 1078 2446.0 1064.0Q2479 1050 2503.5 1025.5Q2528 1001 2542.0 968.5Q2556 936 2556 899Q2556 872 2548.5 848.0Q2541 824 2527 801Z" style="fill:#000000;stroke:none" transform="scale(1,-1) translate(0,-256)" /></svg>