<?xml version="1.0" encoding="utf-8" ?>
<svg baseProfile="full" height="256" version="1.1" width="256" xmlns="http://www.w3.org/2000/svg" xmlns:ev="http://www.w3.org/2001/xml-events" xmlns:xlink="http://www.w3.org/1999/xlink"><defs /><path d="M2304 791Q2326 791 2346.0 782.5Q2366 774 2380.5 759.5Q2395 745 2403.5 725.0Q2412 705 2412 683V360Q2412 275 2375.0 200.0Q2338 125 2269 74V-287H1909V72Q1909 117 1920.0 156.0Q1931 195 1950.5 230.5Q1970 266 1996.5 298.0Q2023 330 2053 360L2197 503V683Q2197 705 2205.5 724.5Q2214 744 2228.0 759.0Q2242 774 2261.5 782.5Q2281 791 2304 791ZM903 72V-287H543V74Q474 125 437.0 200.0Q400 275 400 360V683Q400 705 408.5 725.0Q417 745 431.5 759.5Q446 774 465.5 782.5Q485 791 508 791Q530 791 550.0 782.5Q570 774 584.0 759.0Q598 744 606.5 724.5Q615 705 615 683V503L759 360Q789 330 815.5 298.0Q842 266 861.5 230.5Q881 195 892.0 156.0Q903 117 903 72ZM1765 719Q1720 719 1681.0 736.0Q1642 753 1613.0 782.5Q1584 812 1567.0 851.0Q1550 890 1550 935V1078Q1550 1123 1567.0 1162.0Q1584 1201 1613.0 1230.5Q1642 1260 1681.0 1277.0Q1720 1294 1765 1294Q1810 1294 1849.0 1277.0Q1888 1260 1917.5 1230.5Q1947 1201 1964.0 1162.0Q1981 1123 1981 1078V935Q1981 890 1964.0 851.0Q1947 812 1917.5 782.5Q1888 753 1849.0 736.0Q1810 719 1765 719ZM1046 719Q1002 719 962.5 736.0Q923 753 894.0 782.5Q865 812 848.0 851.5Q831 891 831 935V1078Q831 1122 848.0 1161.5Q865 1201 894.0 1230.5Q923 1260 962.5 1277.0Q1002 1294 1046 1294Q1091 1294 1130.0 1277.0Q1169 1260 1198.5 1230.5Q1228 1201 1245.0 1162.0Q1262 1123 1262 1078V935Q1262 890 1245.0 851.0Q1228 812 1198.5 782.5Q1169 753 1130.0 736.0Q1091 719 1046 719ZM2197 1165 1856 1371Q1846 1377 1841.5 1384.0Q1837 1391 1837 1402Q1837 1413 1841.5 1420.0Q1846 1427 1856 1433L2197 1638ZM975 1402Q975 1391 970.5 1384.0Q966 1377 956 1371L615 1165V1638L956 1433Q966 1427 970.5 1420.0Q975 1413 975 1402ZM1190 1438H1334V1294Q1334 1264 1313.0 1243.0Q1292 1222 1262 1222Q1232 1222 1211.0 1243.0Q1190 1264 1190 1294ZM1478 1438H1622V1294Q1622 1265 1600.5 1243.5Q1579 1222 1550 1222Q1520 1222 1499.0 1243.0Q1478 1264 1478 1294Z" style="fill:#d48c00;stroke:none" transform="scale(1,-1) translate(0,-256)" /></svg>