<?xml version="1.0" encoding="utf-8" ?>
<svg baseProfile="full" height="256" version="1.1" width="256" xmlns="http://www.w3.org/2000/svg" xmlns:ev="http://www.w3.org/2001/xml-events" xmlns:xlink="http://www.w3.org/1999/xlink"><defs /><path d="M1622 791Q1682 791 1734.0 768.5Q1786 746 1825.0 707.0Q1864 668 1886.5 615.5Q1909 563 1909 503Q1909 425 1870.5 360.0Q1832 295 1765 256V72Q1765 -2 1736.5 -67.5Q1708 -133 1659.5 -181.5Q1611 -230 1545.5 -258.5Q1480 -287 1406 -287Q1332 -287 1266.5 -259.0Q1201 -231 1152.0 -182.0Q1103 -133 1075.0 -67.5Q1047 -2 1047 72V256Q980 295 941.5 360.0Q903 425 903 503Q903 563 925.5 615.5Q948 668 987.0 707.0Q1026 746 1078.0 768.5Q1130 791 1190 791L1408 693ZM1765 1222Q1795 1222 1821.0 1210.5Q1847 1199 1866.5 1179.5Q1886 1160 1897.5 1134.0Q1909 1108 1909 1078V935Q1909 905 1897.5 878.5Q1886 852 1866.5 832.5Q1847 813 1821.0 802.0Q1795 791 1765 791Q1735 791 1709.0 802.0Q1683 813 1663.5 832.5Q1644 852 1633.0 878.5Q1622 905 1622 935V1078Q1622 1108 1633.0 1134.0Q1644 1160 1663.5 1179.5Q1683 1199 1709.0 1210.5Q1735 1222 1765 1222ZM1190 935Q1190 905 1179.0 878.5Q1168 852 1148.5 832.5Q1129 813 1103.0 802.0Q1077 791 1047 791Q1017 791 990.5 802.0Q964 813 944.5 832.5Q925 852 914.0 878.5Q903 905 903 935V1078Q903 1108 914.0 1134.0Q925 1160 944.5 1179.5Q964 1199 990.5 1210.5Q1017 1222 1047 1222Q1077 1222 1103.0 1210.5Q1129 1199 1148.5 1179.5Q1168 1160 1179.0 1134.0Q1190 1108 1190 1078Z" style="fill:#ffffff;stroke:none" transform="scale(1,-1) translate(0,-256)" /></svg>