<?xml version="1.0" encoding="utf-8" ?>
<svg baseProfile="full" height="256" version="1.1" width="256" xmlns="http://www.w3.org/2000/svg" xmlns:ev="http://www.w3.org/2001/xml-events" xmlns:xlink="http://www.w3.org/1999/xlink"><defs /><path d="M2340 275 2499 117Q2526 90 2541.0 54.0Q2556 18 2556 -20Q2556 -61 2540.5 -96.5Q2525 -132 2499.0 -158.0Q2473 -184 2437.0 -199.5Q2401 -215 2361 -215H451Q410 -215 374.5 -199.5Q339 -184 313.0 -158.0Q287 -132 271.5 -96.5Q256 -61 256 -20Q256 18 271.0 54.0Q286 90 313 117L472 275V1294Q472 1339 489.0 1378.0Q506 1417 535.0 1446.5Q564 1476 603.0 1493.0Q642 1510 687 1510H2125Q2170 1510 2209.0 1493.0Q2248 1476 2277.0 1446.5Q2306 1417 2323.0 1378.0Q2340 1339 2340 1294Z" style="fill:#000000;stroke:none" transform="scale(1,-1) translate(0,-256)" /></svg>