<?xml version="1.0" encoding="utf-8" ?>
<svg baseProfile="full" height="256" version="1.1" width="256" xmlns="http://www.w3.org/2000/svg" xmlns:ev="http://www.w3.org/2001/xml-events" xmlns:xlink="http://www.w3.org/1999/xlink"><defs /><path d="M1406 1581Q1512 1581 1616.5 1565.0Q1721 1549 1822 1517Q1931 1482 2036.5 1422.0Q2142 1362 2225.5 1279.5Q2309 1197 2360.5 1092.5Q2412 988 2412 863V791Q2412 763 2408.0 736.0Q2404 709 2401 682Q2399 661 2398.5 639.5Q2398 618 2398 597Q2398 557 2393.0 523.5Q2388 490 2377.5 459.0Q2367 428 2351.0 398.0Q2335 368 2314 335Q2242 225 2140.5 144.0Q2039 63 1920.0 10.5Q1801 -42 1671.5 -67.5Q1542 -93 1415 -93Q1292 -93 1167.0 -69.5Q1042 -46 925.5 2.5Q809 51 707.0 125.0Q605 199 530 300Q514 322 498.0 347.5Q482 373 468.0 400.5Q454 428 443.0 456.0Q432 484 427 511Q419 553 417.5 596.0Q416 639 411 681Q406 727 403.0 772.0Q400 817 400 863Q400 988 451.5 1092.5Q503 1197 586.5 1279.5Q670 1362 775.5 1422.0Q881 1482 990 1517Q1091 1549 1195.5 1565.0Q1300 1581 1406 1581Z" style="fill:#8e562e;stroke:none" transform="scale(1,-1) translate(0,-256)" /></svg>