<?xml version="1.0" encoding="utf-8" ?>
<svg baseProfile="full" height="256" version="1.1" width="256" xmlns="http://www.w3.org/2000/svg" xmlns:ev="http://www.w3.org/2001/xml-events" xmlns:xlink="http://www.w3.org/1999/xlink"><defs /><path d="M1406 647Q1365 647 1322.5 652.5Q1280 658 1240.0 671.0Q1200 684 1163.0 704.5Q1126 725 1095 754Q1125 784 1162.0 804.5Q1199 825 1239.5 838.0Q1280 851 1322.5 857.0Q1365 863 1406 863Q1446 863 1488.5 857.0Q1531 851 1571.5 838.0Q1612 825 1649.0 804.5Q1686 784 1716 754Q1686 725 1649.0 704.5Q1612 684 1571.5 671.0Q1531 658 1488.5 652.5Q1446 647 1406 647Z" style="fill:#ffffff;stroke:none" transform="scale(1,-1) translate(0,-256)" /></svg>