<?xml version="1.0" encoding="utf-8" ?>
<svg baseProfile="full" height="256" version="1.1" width="256" xmlns="http://www.w3.org/2000/svg" xmlns:ev="http://www.w3.org/2001/xml-events" xmlns:xlink="http://www.w3.org/1999/xlink"><defs /><path d="M2401 683Q2409 645 2410.5 606.5Q2412 568 2412 529V503Q2412 419 2388.0 344.0Q2364 269 2322.0 204.0Q2280 139 2222.5 83.0Q2165 27 2098.5 -18.0Q2032 -63 1959.0 -97.0Q1886 -131 1813 -154Q1713 -185 1611.5 -200.0Q1510 -215 1406 -215Q1302 -215 1200.5 -200.0Q1099 -185 999 -154Q926 -131 853.0 -97.0Q780 -63 713.5 -18.0Q647 27 589.5 83.0Q532 139 490.0 204.0Q448 269 424.0 344.0Q400 419 400 503V529Q400 568 401.5 606.5Q403 645 411 683Q434 575 494.5 486.0Q555 397 638.0 327.0Q721 257 819.5 207.0Q918 157 1018 127Q1113 99 1210.0 85.5Q1307 72 1406 72Q1505 72 1602.0 85.5Q1699 99 1794 127Q1894 157 1992.5 207.0Q2091 257 2174.0 327.0Q2257 397 2317.5 486.0Q2378 575 2401 683ZM1302 728Q1249 728 1198.0 737.0Q1147 746 1095 754Q1073 776 1060.0 803.5Q1047 831 1047 863Q1047 902 1065.0 933.5Q1083 965 1112.5 988.5Q1142 1012 1180.0 1029.0Q1218 1046 1258.0 1057.0Q1298 1068 1336.5 1073.0Q1375 1078 1406 1078Q1437 1078 1475.5 1073.0Q1514 1068 1554.0 1057.0Q1594 1046 1632.0 1029.0Q1670 1012 1699.5 988.5Q1729 965 1747.0 933.5Q1765 902 1765 863Q1765 831 1751.5 803.5Q1738 776 1716 754Q1679 750 1642.5 746.0Q1606 742 1568 742Q1522 742 1477.0 735.5Q1432 729 1386 729Q1365 729 1344.0 728.5Q1323 728 1302 728Z" style="fill:#eba300;stroke:none" transform="scale(1,-1) translate(0,-256)" /></svg>