<?xml version="1.0" encoding="utf-8" ?>
<svg baseProfile="full" height="256" version="1.1" width="256" xmlns="http://www.w3.org/2000/svg" xmlns:ev="http://www.w3.org/2001/xml-events" xmlns:xlink="http://www.w3.org/1999/xlink"><defs /><path d="M2160 934Q2176 934 2186 924L2258 852Q2268 842 2268 826Q2268 812 2257.5 801.5Q2247 791 2233 791Q2217 791 2207 801L2135 873Q2124 884 2124 898Q2124 912 2135.0 923.0Q2146 934 2160 934ZM1442 359Q1457 359 1467 349L1539 277Q1549 267 1549 251Q1549 237 1538.5 226.5Q1528 216 1514 216Q1498 216 1488 226L1416 298Q1405 309 1405 323Q1405 339 1416.0 349.0Q1427 359 1442 359ZM1442 1437Q1456 1437 1466.5 1426.0Q1477 1415 1477 1401Q1477 1386 1467 1376L1395 1304Q1385 1294 1370 1294Q1355 1294 1344.5 1304.5Q1334 1315 1334 1330Q1334 1344 1345 1355L1416 1427Q1426 1437 1442 1437ZM543 755Q543 769 554 780L626 852Q636 862 651 862Q666 862 676.5 851.5Q687 841 687 826Q687 811 677 801L605 729Q595 719 579 719Q564 719 553.5 729.5Q543 740 543 755Z" style="fill:#e6808a;stroke:none" transform="scale(1,-1) translate(0,-256)" /></svg>