<?xml version="1.0" encoding="utf-8" ?>
<svg baseProfile="full" height="256" version="1.1" width="256" xmlns="http://www.w3.org/2000/svg" xmlns:ev="http://www.w3.org/2001/xml-events" xmlns:xlink="http://www.w3.org/1999/xlink"><defs /><path d="M1406 -359Q1291 -359 1179.5 -342.5Q1068 -326 959 -291Q870 -263 784.0 -221.0Q698 -179 619.5 -124.0Q541 -69 474.5 -2.0Q408 65 359.5 143.5Q311 222 283.5 312.0Q256 402 256 503V863Q256 963 283.5 1053.0Q311 1143 360.0 1222.0Q409 1301 475.5 1368.0Q542 1435 620.0 1490.0Q698 1545 784.5 1587.0Q871 1629 959 1657Q1068 1692 1179.5 1708.5Q1291 1725 1406 1725Q1521 1725 1632.5 1708.5Q1744 1692 1853 1657Q1941 1628 2027.5 1586.5Q2114 1545 2192.0 1490.0Q2270 1435 2336.5 1368.0Q2403 1301 2452.0 1222.0Q2501 1143 2528.5 1053.0Q2556 963 2556 863V503Q2556 402 2528.5 312.0Q2501 222 2452.5 143.5Q2404 65 2337.5 -2.0Q2271 -69 2192.5 -124.0Q2114 -179 2027.5 -221.0Q1941 -263 1853 -291Q1744 -326 1632.5 -342.5Q1521 -359 1406 -359Z" style="fill:#000000;stroke:none" transform="scale(1,-1) translate(0,-256)" /></svg>