<?xml version="1.0" encoding="utf-8" ?>
<svg baseProfile="full" height="256" version="1.1" width="256" xmlns="http://www.w3.org/2000/svg" xmlns:ev="http://www.w3.org/2001/xml-events" xmlns:xlink="http://www.w3.org/1999/xlink"><defs /><path d="M902 395Q902 410 913 421L985 493Q995 503 1010 503Q1025 503 1035.5 492.5Q1046 482 1046 467Q1046 452 1036 442L964 370Q954 360 939 360Q924 360 913.0 370.0Q902 380 902 395ZM939 1150Q924 1150 913 1161L841 1233Q830 1244 830 1258Q830 1273 841.0 1283.0Q852 1293 867 1293Q882 1293 892 1283L964 1212Q974 1202 974 1186Q974 1172 963.5 1161.0Q953 1150 939 1150ZM1873 1078Q1859 1078 1848 1089L1776 1161Q1765 1172 1765 1186Q1765 1200 1776.0 1211.0Q1787 1222 1801 1222Q1817 1222 1827 1212L1899 1140Q1909 1130 1909 1114Q1909 1100 1898.0 1089.0Q1887 1078 1873 1078ZM1945 575Q1960 575 1970.0 564.5Q1980 554 1980 539Q1980 524 1970 514L1899 442Q1888 431 1873 431Q1859 431 1848.0 442.0Q1837 453 1837 467Q1837 482 1848 493L1920 565Q1930 575 1945 575Z" style="fill:#31d2f7;stroke:none" transform="scale(1,-1) translate(0,-256)" /></svg>