<?xml version="1.0" encoding="utf-8" ?>
<svg baseProfile="full" height="256" version="1.1" width="256" xmlns="http://www.w3.org/2000/svg" xmlns:ev="http://www.w3.org/2001/xml-events" xmlns:xlink="http://www.w3.org/1999/xlink"><defs /><path d="M2484 -431H256V1006Q256 1064 279.0 1116.5Q302 1169 341.0 1208.5Q380 1248 432.0 1271.0Q484 1294 543 1294H1047V1366H1131L975 1522V1797H1693V1522L1657 1485Q1675 1459 1684.0 1428.5Q1693 1398 1693 1366Q1693 1328 1681 1294H2197Q2255 1294 2307.5 1271.0Q2360 1248 2399.0 1208.5Q2438 1169 2461.0 1116.5Q2484 1064 2484 1006Z" style="fill:#000000;stroke:none" transform="scale(1,-1) translate(0,-256)" /></svg>