<?xml version="1.0" encoding="utf-8" ?>
<svg baseProfile="full" height="256" version="1.1" width="256" xmlns="http://www.w3.org/2000/svg" xmlns:ev="http://www.w3.org/2001/xml-events" xmlns:xlink="http://www.w3.org/1999/xlink"><defs /><path d="M2257 641 2340 431V144L2260 69H463L400 144V431Q400 431 405.0 445.5Q410 460 417.5 481.5Q425 503 433.5 528.5Q442 554 450.5 577.0Q459 600 465.0 617.5Q471 635 473 641Q471 647 465.0 665.5Q459 684 450.5 708.0Q442 732 433.5 759.0Q425 786 417.5 808.5Q410 831 405.0 846.0Q400 861 400 863V1006L523 1086H2218L2340 1006V863Z" style="fill:#f03a17;stroke:none" transform="scale(1,-1) translate(0,-256)" /></svg>