<?xml version="1.0" encoding="utf-8" ?>
<svg baseProfile="full" height="256" version="1.1" width="256" xmlns="http://www.w3.org/2000/svg" xmlns:ev="http://www.w3.org/2001/xml-events" xmlns:xlink="http://www.w3.org/1999/xlink"><defs /><path d="M1478 1438Q1507 1438 1528.5 1416.5Q1550 1395 1550 1366Q1550 1332 1527.5 1313.5Q1505 1295 1475 1295Q1471 1295 1467.0 1295.0Q1463 1295 1459 1296L1288 1125L1237 1175L1408 1347Q1407 1352 1406.5 1356.5Q1406 1361 1406 1366Q1406 1371 1406.5 1375.0Q1407 1379 1408 1384L1237 1556L1288 1607L1459 1435Q1468 1438 1478 1438ZM651 -72Q673 -72 693.0 -80.5Q713 -89 727.5 -103.5Q742 -118 750.5 -138.0Q759 -158 759 -180Q759 -203 750.5 -222.5Q742 -242 727.0 -256.0Q712 -270 692.5 -278.5Q673 -287 651 -287Q629 -287 609.5 -278.5Q590 -270 575.0 -255.5Q560 -241 551.5 -221.5Q543 -202 543 -180Q543 -158 551.5 -138.5Q560 -119 575.0 -104.0Q590 -89 609.5 -80.5Q629 -72 651 -72ZM651 -216Q665 -216 676.0 -205.0Q687 -194 687 -180Q687 -165 676.5 -154.5Q666 -144 651 -144Q636 -144 625.5 -154.5Q615 -165 615 -180Q615 -194 626.0 -205.0Q637 -216 651 -216ZM1011 -72Q1033 -72 1053.0 -80.5Q1073 -89 1087.0 -104.0Q1101 -119 1109.5 -138.5Q1118 -158 1118 -180Q1118 -202 1109.5 -221.5Q1101 -241 1086.5 -255.5Q1072 -270 1052.5 -278.5Q1033 -287 1011 -287Q989 -287 969.5 -278.5Q950 -270 935.0 -256.0Q920 -242 911.5 -222.5Q903 -203 903 -180Q903 -158 911.5 -138.0Q920 -118 934.5 -103.5Q949 -89 968.5 -80.5Q988 -72 1011 -72ZM1011 -216Q1025 -216 1036.0 -205.0Q1047 -194 1047 -180Q1047 -166 1036.0 -155.0Q1025 -144 1011 -144Q996 -144 985.5 -154.5Q975 -165 975 -180Q975 -194 986.0 -205.0Q997 -216 1011 -216ZM1729 -72Q1751 -72 1771.0 -80.5Q1791 -89 1805.5 -103.5Q1820 -118 1828.5 -138.0Q1837 -158 1837 -180Q1837 -203 1828.5 -222.5Q1820 -242 1805.0 -256.0Q1790 -270 1770.5 -278.5Q1751 -287 1729 -287Q1707 -287 1687.5 -278.5Q1668 -270 1653.5 -255.5Q1639 -241 1630.5 -221.5Q1622 -202 1622 -180Q1622 -158 1630.5 -138.5Q1639 -119 1653.0 -104.0Q1667 -89 1686.5 -80.5Q1706 -72 1729 -72ZM1729 -216Q1743 -216 1754.0 -205.0Q1765 -194 1765 -180Q1765 -165 1754.5 -154.5Q1744 -144 1729 -144Q1715 -144 1704.0 -155.0Q1693 -166 1693 -180Q1693 -194 1704.0 -205.0Q1715 -216 1729 -216ZM2089 -72Q2111 -72 2130.5 -80.5Q2150 -89 2165.0 -104.0Q2180 -119 2188.5 -138.5Q2197 -158 2197 -180Q2197 -202 2188.5 -221.5Q2180 -241 2165.0 -255.5Q2150 -270 2130.5 -278.5Q2111 -287 2089 -287Q2067 -287 2047.5 -278.5Q2028 -270 2013.0 -256.0Q1998 -242 1989.5 -222.5Q1981 -203 1981 -180Q1981 -158 1989.5 -138.0Q1998 -118 2012.5 -103.5Q2027 -89 2046.5 -80.5Q2066 -72 2089 -72ZM2089 -216Q2103 -216 2114.0 -205.0Q2125 -194 2125 -180Q2125 -165 2114.5 -154.5Q2104 -144 2089 -144Q2074 -144 2063.5 -154.5Q2053 -165 2053 -180Q2053 -194 2064.0 -205.0Q2075 -216 2089 -216Z" style="fill:#757575;stroke:none" transform="scale(1,-1) translate(0,-256)" /></svg>