<?xml version="1.0" encoding="utf-8" ?>
<svg baseProfile="full" height="256" version="1.1" width="256" xmlns="http://www.w3.org/2000/svg" xmlns:ev="http://www.w3.org/2001/xml-events" xmlns:xlink="http://www.w3.org/1999/xlink"><defs /><path d="M1484 516V882Q1484 922 1483.0 961.5Q1482 1001 1479 1041Q1487 1041 1511.0 1040.0Q1535 1039 1561.0 1036.5Q1587 1034 1607.0 1029.0Q1627 1024 1627 1016Q1627 1008 1625.5 1002.5Q1624 997 1622 990Q1617 974 1616.0 958.5Q1615 943 1615 926V635Q1638 670 1662.0 717.5Q1686 765 1709.0 819.5Q1732 874 1752.0 932.0Q1772 990 1787.5 1046.5Q1803 1103 1813.0 1155.0Q1823 1207 1825 1249Q1860 1239 1895.0 1228.5Q1930 1218 1963 1202Q1964 1201 1974.0 1193.5Q1984 1186 1984 1178Q1984 1169 1979.0 1162.0Q1974 1155 1969 1147Q1959 1133 1953.0 1117.5Q1947 1102 1942 1085Q1913 999 1880.5 913.5Q1848 828 1809.0 746.0Q1770 664 1722.5 586.5Q1675 509 1615 440V313Q1615 299 1621.0 290.5Q1627 282 1636.0 277.5Q1645 273 1656.5 272.0Q1668 271 1680 271H1708Q1717 271 1730.0 271.0Q1743 271 1756.5 272.5Q1770 274 1781.5 277.0Q1793 280 1801 286Q1814 296 1821.0 320.0Q1828 344 1831.5 372.5Q1835 401 1836.0 428.5Q1837 456 1838 472L1847 468Q1868 457 1888.5 447.5Q1909 438 1932 430Q1945 425 1953.5 421.5Q1962 418 1962 401Q1962 341 1945 281Q1931 229 1908.0 201.0Q1885 173 1854.0 160.0Q1823 147 1784.0 144.5Q1745 142 1699 142H1694Q1666 142 1630.0 144.0Q1594 146 1561.5 155.5Q1529 165 1506.5 186.5Q1484 208 1484 247V337Q1478 329 1461.5 313.5Q1445 298 1423.0 279.5Q1401 261 1377.0 241.0Q1353 221 1330.5 205.0Q1308 189 1290.0 178.5Q1272 168 1264 168Q1255 168 1250.0 177.5Q1245 187 1242 193Q1216 244 1172 280Q1260 325 1340.5 382.5Q1421 440 1484 516ZM1143 866Q1155 834 1166.5 810.5Q1178 787 1191.5 767.0Q1205 747 1223.0 728.0Q1241 709 1266 686Q1250 664 1236.5 641.0Q1223 618 1211 594Q1209 590 1204.5 580.5Q1200 571 1195 571Q1189 571 1180.0 585.5Q1171 600 1161.5 620.0Q1152 640 1143.5 661.5Q1135 683 1130 697L1127 704Q1126 706 1126.0 707.5Q1126 709 1125 710Q1127 564 1130.5 419.5Q1134 275 1134 129Q1134 117 1120 117H1009Q1004 117 998.5 119.5Q993 122 993 129Q993 268 996.0 404.5Q999 541 1001 680Q990 643 976.5 602.5Q963 562 946.0 522.5Q929 483 909.0 445.5Q889 408 866 377Q863 373 857.0 366.0Q851 359 846 359Q841 359 838.0 367.0Q835 375 833 379Q821 409 809.0 438.0Q797 467 782 496Q851 577 897.5 671.0Q944 765 974 866H934Q906 866 879.0 864.5Q852 863 824 863Q812 863 812 875V978Q812 990 824 990Q852 990 879.0 988.5Q906 987 934 987H998V1133Q989 1130 974.0 1125.5Q959 1121 943.0 1117.5Q927 1114 912.0 1111.0Q897 1108 888 1108Q880 1108 875.5 1115.5Q871 1123 869 1130Q869 1138 863.0 1151.0Q857 1164 848.5 1178.0Q840 1192 831.5 1204.5Q823 1217 817 1223Q854 1229 907.0 1239.0Q960 1249 1014.5 1263.5Q1069 1278 1118.0 1296.5Q1167 1315 1196 1338Q1198 1337 1198.5 1336.0Q1199 1335 1201 1333L1214 1322Q1225 1312 1238.0 1299.5Q1251 1287 1262.5 1274.5Q1274 1262 1281.5 1250.5Q1289 1239 1289 1232Q1289 1221 1280.0 1218.0Q1271 1215 1263 1213Q1229 1203 1196.5 1190.5Q1164 1178 1131 1167V987H1258Q1260 988 1263 988Q1271 988 1271 978V875Q1271 863 1258 863Q1229 863 1200.5 864.5Q1172 866 1143 866ZM2084 532Q2084 528 2069.0 517.0Q2054 506 2034.5 495.0Q2015 484 1997.0 475.0Q1979 466 1974 466Q1969 466 1967.5 468.0Q1966 470 1964 475Q1964 493 1959.0 516.0Q1954 539 1947.5 563.0Q1941 587 1933.5 609.5Q1926 632 1920 650Q1909 685 1895.5 717.5Q1882 750 1871 784Q1869 790 1869 795Q1869 798 1883.5 807.5Q1898 817 1917.0 827.5Q1936 838 1953.0 846.5Q1970 855 1975 855Q1978 855 1980.5 850.5Q1983 846 1984 844Q1991 828 2001.0 803.5Q2011 779 2022.0 749.5Q2033 720 2044.5 688.0Q2056 656 2064.5 626.5Q2073 597 2078.5 572.0Q2084 547 2084 532ZM1439 828Q1439 826 1438.5 825.5Q1438 825 1438 823Q1432 782 1425.5 737.5Q1419 693 1410.0 649.0Q1401 605 1387.5 562.5Q1374 520 1355 483Q1355 482 1351.5 478.0Q1348 474 1345 474Q1340 474 1325.0 483.5Q1310 493 1293.5 505.5Q1277 518 1264.0 529.5Q1251 541 1251 544Q1251 547 1252.0 550.0Q1253 553 1254 555Q1285 632 1302.5 709.5Q1320 787 1334 868Q1335 871 1336.0 876.5Q1337 882 1342 882Q1347 882 1363.0 875.5Q1379 869 1396.0 860.0Q1413 851 1426.0 842.0Q1439 833 1439 828ZM1733 1161Q1733 1156 1721.0 1141.5Q1709 1127 1693.5 1111.0Q1678 1095 1663.5 1081.0Q1649 1067 1643 1063Q1640 1063 1638.0 1065.0Q1636 1067 1634 1069Q1605 1097 1577.0 1119.5Q1549 1142 1520.5 1161.5Q1492 1181 1462.0 1200.0Q1432 1219 1399 1240Q1393 1244 1393 1248Q1393 1251 1405.5 1265.5Q1418 1280 1433.5 1295.5Q1449 1311 1462.5 1324.0Q1476 1337 1478 1337Q1486 1337 1508.0 1325.5Q1530 1314 1558.0 1296.5Q1586 1279 1617.0 1257.5Q1648 1236 1674.0 1216.5Q1700 1197 1716.5 1181.5Q1733 1166 1733 1161Z" style="fill:#ffffff;stroke:none" transform="scale(1,-1) translate(0,-256)" /></svg>