<?xml version="1.0" encoding="utf-8" ?>
<svg baseProfile="full" height="256" version="1.1" width="256" xmlns="http://www.w3.org/2000/svg" xmlns:ev="http://www.w3.org/2001/xml-events" xmlns:xlink="http://www.w3.org/1999/xlink"><defs /><path d="M1047 647Q1101 647 1150.0 666.5Q1199 686 1237.0 719.5Q1275 753 1300.0 799.0Q1325 845 1332 899Q1333 890 1333.5 881.0Q1334 872 1334 863Q1334 804 1311.5 751.5Q1289 699 1250.0 660.0Q1211 621 1158.5 598.0Q1106 575 1047 575Q987 575 934.5 597.5Q882 620 843.0 659.0Q804 698 781.5 750.5Q759 803 759 863Q759 872 759.5 881.0Q760 890 761 899Q768 845 793.0 799.0Q818 753 856.5 719.0Q895 685 944.0 666.0Q993 647 1047 647ZM903 1006Q903 1036 924.0 1057.0Q945 1078 975 1078Q1004 1078 1025.5 1056.5Q1047 1035 1047 1006Q1047 977 1025.5 956.0Q1004 935 975 935Q946 935 924.5 956.0Q903 977 903 1006ZM1765 647Q1819 647 1868.0 666.0Q1917 685 1955.5 719.0Q1994 753 2019.0 799.0Q2044 845 2051 899Q2052 890 2052.5 881.0Q2053 872 2053 863Q2053 803 2030.5 750.5Q2008 698 1969.0 659.0Q1930 620 1877.5 597.5Q1825 575 1765 575Q1705 575 1653.0 597.5Q1601 620 1562.0 659.0Q1523 698 1500.5 750.5Q1478 803 1478 863Q1478 872 1478.5 881.0Q1479 890 1480 899Q1487 845 1512.0 799.0Q1537 753 1575.0 719.5Q1613 686 1662.0 666.5Q1711 647 1765 647ZM1622 1006Q1622 1035 1643.0 1056.5Q1664 1078 1693 1078Q1723 1078 1744.0 1057.0Q1765 1036 1765 1006Q1765 977 1743.5 956.0Q1722 935 1693 935Q1664 935 1643.0 956.0Q1622 977 1622 1006Z" style="fill:#ffffff;stroke:none" transform="scale(1,-1) translate(0,-256)" /></svg>