<?xml version="1.0" encoding="utf-8" ?>
<svg baseProfile="full" height="256" version="1.1" width="256" xmlns="http://www.w3.org/2000/svg" xmlns:ev="http://www.w3.org/2001/xml-events" xmlns:xlink="http://www.w3.org/1999/xlink"><defs /><path d="M1118 1438Q1148 1438 1169.0 1417.0Q1190 1396 1190 1366Q1190 1336 1169.0 1315.0Q1148 1294 1118 1294Q1003 1294 911.0 1249.5Q819 1205 741 1124Q718 1099 687 1099Q657 1099 636.0 1120.5Q615 1142 615 1171Q615 1196 633 1219Q676 1271 732.0 1311.5Q788 1352 852.0 1380.0Q916 1408 984.0 1423.0Q1052 1438 1118 1438ZM1693 1438Q1759 1438 1827.5 1423.5Q1896 1409 1959.5 1381.0Q2023 1353 2079.5 1312.0Q2136 1271 2179 1219Q2197 1196 2197 1171Q2197 1142 2176.0 1120.5Q2155 1099 2125 1099Q2094 1099 2071 1124Q1992 1205 1900.0 1249.5Q1808 1294 1693 1294Q1664 1294 1643.0 1315.5Q1622 1337 1622 1366Q1622 1395 1643.0 1416.5Q1664 1438 1693 1438Z" style="fill:#d48c00;stroke:none" transform="scale(1,-1) translate(0,-256)" /></svg>