<?xml version="1.0" encoding="utf-8" ?>
<svg baseProfile="full" height="256" version="1.1" width="256" xmlns="http://www.w3.org/2000/svg" xmlns:ev="http://www.w3.org/2001/xml-events" xmlns:xlink="http://www.w3.org/1999/xlink"><defs /><path d="M975 144Q975 182 1007 204Q1048 234 1097.0 256.0Q1146 278 1197.5 292.5Q1249 307 1302.5 314.5Q1356 322 1406 322Q1456 322 1509.5 314.5Q1563 307 1614.5 292.5Q1666 278 1715.0 256.0Q1764 234 1805 204Q1837 182 1837 144Q1837 114 1816.0 93.0Q1795 72 1765 72Q1754 72 1744.0 75.5Q1734 79 1725 84Q1648 130 1572.5 154.5Q1497 179 1406 179Q1360 179 1319.0 173.0Q1278 167 1239.5 155.0Q1201 143 1163.5 125.0Q1126 107 1087 84Q1078 79 1068.0 75.5Q1058 72 1047 72Q1017 72 996.0 93.0Q975 114 975 144ZM1047 1150Q1090 1150 1131.0 1137.0Q1172 1124 1206.5 1101.0Q1241 1078 1268.0 1045.0Q1295 1012 1312 972Q1315 966 1318.5 956.0Q1322 946 1325.0 935.5Q1328 925 1330.0 915.0Q1332 905 1332 899Q1332 893 1329.0 876.5Q1326 860 1322.5 841.5Q1319 823 1315.0 806.5Q1311 790 1309 786Q1292 751 1264.0 719.0Q1236 687 1201.5 663.0Q1167 639 1127.0 625.0Q1087 611 1047 611Q1044 611 1037.0 612.5Q1030 614 1022.0 616.5Q1014 619 1007.0 621.0Q1000 623 997 624Q965 634 934.0 649.0Q903 664 874.5 684.5Q846 705 822.0 730.0Q798 755 782 785Q779 790 775.5 806.0Q772 822 769.0 840.5Q766 859 763.5 876.0Q761 893 761 899Q761 905 763.0 915.0Q765 925 768.0 935.5Q771 946 774.5 956.0Q778 966 781 972Q797 1012 824.5 1045.0Q852 1078 887.0 1101.5Q922 1125 962.5 1137.5Q1003 1150 1047 1150ZM1765 1150Q1808 1150 1849.0 1137.5Q1890 1125 1925.0 1101.5Q1960 1078 1987.0 1045.0Q2014 1012 2031 972Q2034 966 2037.5 956.0Q2041 946 2044.0 935.5Q2047 925 2049.0 915.0Q2051 905 2051 899Q2051 893 2048.0 876.5Q2045 860 2041.5 841.5Q2038 823 2034.0 807.0Q2030 791 2027 786Q2009 750 1981.5 718.5Q1954 687 1919.5 663.0Q1885 639 1845.5 625.0Q1806 611 1765 611Q1762 611 1755.0 612.5Q1748 614 1740.0 616.5Q1732 619 1725.0 621.0Q1718 623 1715 624Q1683 634 1652.0 649.5Q1621 665 1592.5 685.0Q1564 705 1540.5 730.0Q1517 755 1501 785Q1498 790 1494.5 806.0Q1491 822 1488.0 840.5Q1485 859 1482.5 876.0Q1480 893 1480 899Q1480 905 1482.0 915.0Q1484 925 1487.0 935.5Q1490 946 1493.5 956.0Q1497 966 1500 972Q1516 1012 1543.5 1045.0Q1571 1078 1605.5 1101.0Q1640 1124 1680.5 1137.0Q1721 1150 1765 1150Z" style="fill:#000000;stroke:none" transform="scale(1,-1) translate(0,-256)" /></svg>