<?xml version="1.0" encoding="utf-8" ?>
<svg baseProfile="full" height="256" version="1.1" width="256" xmlns="http://www.w3.org/2000/svg" xmlns:ev="http://www.w3.org/2001/xml-events" xmlns:xlink="http://www.w3.org/1999/xlink"><defs /><path d="M2412 719Q2412 580 2376.0 452.0Q2340 324 2274.5 212.0Q2209 100 2117.5 8.0Q2026 -84 1914.0 -149.5Q1802 -215 1673.5 -251.0Q1545 -287 1406 -287Q1267 -287 1139.0 -251.0Q1011 -215 899.0 -149.5Q787 -84 695.0 7.5Q603 99 537.5 211.0Q472 323 436.0 451.5Q400 580 400 719Q400 857 436.0 985.5Q472 1114 537.5 1226.0Q603 1338 694.5 1430.0Q786 1522 898.0 1587.5Q1010 1653 1138.5 1689.0Q1267 1725 1406 1725Q1544 1725 1672.5 1689.0Q1801 1653 1913.0 1587.5Q2025 1522 2117.0 1430.5Q2209 1339 2274.5 1227.0Q2340 1115 2376.0 986.5Q2412 858 2412 719Z" style="fill:#ffc83d;stroke:none" transform="scale(1,-1) translate(0,-256)" /></svg>