<?xml version="1.0" encoding="utf-8" ?>
<svg baseProfile="full" height="256" version="1.1" width="256" xmlns="http://www.w3.org/2000/svg" xmlns:ev="http://www.w3.org/2001/xml-events" xmlns:xlink="http://www.w3.org/1999/xlink"><defs /><path d="M2020 740Q2064 634 2064 520Q2064 401 2018.5 296.5Q1973 192 1895.0 114.0Q1817 36 1712.0 -9.5Q1607 -55 1488 -55Q1401 -55 1319.5 -30.0Q1238 -5 1168.5 41.5Q1099 88 1044.5 153.5Q990 219 957 300ZM1622 992Q1589 992 1560.5 1004.5Q1532 1017 1510.5 1038.5Q1489 1060 1476.5 1088.5Q1464 1117 1464 1150Q1464 1183 1476.5 1211.5Q1489 1240 1510.5 1261.5Q1532 1283 1560.5 1295.5Q1589 1308 1622 1308Q1655 1308 1683.5 1295.5Q1712 1283 1733.5 1261.5Q1755 1240 1767.5 1211.5Q1780 1183 1780 1150Q1780 1117 1767.5 1088.5Q1755 1060 1733.5 1038.5Q1712 1017 1683.5 1004.5Q1655 992 1622 992ZM975 516Q948 516 924.0 526.5Q900 537 882.5 554.5Q865 572 854.5 596.0Q844 620 844 647Q844 674 854.5 698.0Q865 722 882.5 739.5Q900 757 924.0 767.5Q948 778 975 778Q1002 778 1026.0 767.5Q1050 757 1067.5 739.5Q1085 722 1095.5 698.0Q1106 674 1106 647Q1106 620 1095.5 596.0Q1085 572 1067.5 554.5Q1050 537 1026.0 526.5Q1002 516 975 516Z" style="fill:#000000;stroke:none" transform="scale(1,-1) translate(0,-256)" /></svg>