<?xml version="1.0" encoding="utf-8" ?>
<svg baseProfile="full" height="256" version="1.1" width="256" xmlns="http://www.w3.org/2000/svg" xmlns:ev="http://www.w3.org/2001/xml-events" xmlns:xlink="http://www.w3.org/1999/xlink"><defs /><path d="M1658 1437Q1725 1437 1783.5 1411.5Q1842 1386 1886.0 1342.0Q1930 1298 1955.5 1239.5Q1981 1181 1981 1114Q1981 1047 1955.5 988.5Q1930 930 1886.0 886.0Q1842 842 1783.5 816.5Q1725 791 1658 791Q1591 791 1532.0 816.5Q1473 842 1429.0 886.0Q1385 930 1359.5 988.5Q1334 1047 1334 1114Q1334 1181 1359.5 1240.0Q1385 1299 1429.0 1342.5Q1473 1386 1532.0 1411.5Q1591 1437 1658 1437ZM975 1006Q1035 1006 1087.0 983.5Q1139 961 1178.0 922.0Q1217 883 1239.5 831.0Q1262 779 1262 719Q1262 659 1239.5 607.0Q1217 555 1178.0 516.0Q1139 477 1087.0 454.5Q1035 432 975 432Q915 432 862.5 454.5Q810 477 771.0 516.0Q732 555 709.5 607.0Q687 659 687 719Q687 779 709.5 831.0Q732 883 771.0 922.0Q810 961 862.5 983.5Q915 1006 975 1006ZM1151 147Q1123 172 1099.5 201.5Q1076 231 1056 263L1976 644Q1984 613 1987.5 582.0Q1991 551 1991 519V495ZM1622 997Q1653 997 1681.0 1009.0Q1709 1021 1730.0 1042.0Q1751 1063 1763.0 1090.5Q1775 1118 1775 1150Q1775 1181 1763.0 1209.0Q1751 1237 1730.0 1258.0Q1709 1279 1681.0 1291.0Q1653 1303 1622 1303Q1590 1303 1562.5 1291.0Q1535 1279 1514.0 1258.0Q1493 1237 1481.0 1209.0Q1469 1181 1469 1150Q1469 1118 1481.0 1090.5Q1493 1063 1514.0 1042.0Q1535 1021 1562.5 1009.0Q1590 997 1622 997ZM975 521Q1001 521 1024.0 531.0Q1047 541 1064.0 558.0Q1081 575 1091.0 598.0Q1101 621 1101 647Q1101 673 1091.0 696.0Q1081 719 1064.0 736.0Q1047 753 1024.0 763.0Q1001 773 975 773Q949 773 926.0 763.0Q903 753 886.0 736.0Q869 719 859.0 696.0Q849 673 849 647Q849 621 859.0 598.0Q869 575 886.0 558.0Q903 541 926.0 531.0Q949 521 975 521Z" style="fill:#ffffff;stroke:none" transform="scale(1,-1) translate(0,-256)" /></svg>