<?xml version="1.0" encoding="utf-8" ?>
<svg baseProfile="full" height="256" version="1.1" width="256" xmlns="http://www.w3.org/2000/svg" xmlns:ev="http://www.w3.org/2001/xml-events" xmlns:xlink="http://www.w3.org/1999/xlink"><defs /><path d="M1622 216Q1651 216 1672.0 194.5Q1693 173 1693 144Q1693 115 1672.0 93.5Q1651 72 1622 72H1190Q1161 72 1139.5 93.5Q1118 115 1118 144Q1118 173 1139.5 194.5Q1161 216 1190 216ZM1765 1131Q1765 1157 1775.0 1180.5Q1785 1204 1805 1221Q1862 1221 1916.0 1200.5Q1970 1180 2013 1142Q2014 1138 2014 1131Q2014 1105 2004.5 1082.5Q1995 1060 1978.0 1043.0Q1961 1026 1938.5 1016.0Q1916 1006 1890 1006Q1864 1006 1841.5 1016.0Q1819 1026 1802.0 1043.0Q1785 1060 1775.0 1082.5Q1765 1105 1765 1131ZM975 1131Q975 1157 985.0 1180.5Q995 1204 1014 1221Q1072 1221 1125.5 1200.5Q1179 1180 1223 1142Q1223 1115 1214.5 1090.0Q1206 1065 1190.0 1046.5Q1174 1028 1151.0 1017.0Q1128 1006 1099 1006Q1073 1006 1050.5 1016.0Q1028 1026 1011.0 1043.0Q994 1060 984.5 1082.5Q975 1105 975 1131Z" style="fill:#000000;stroke:none" transform="scale(1,-1) translate(0,-256)" /></svg>