<?xml version="1.0" encoding="utf-8" ?>
<svg baseProfile="full" height="256" version="1.1" width="256" xmlns="http://www.w3.org/2000/svg" xmlns:ev="http://www.w3.org/2001/xml-events" xmlns:xlink="http://www.w3.org/1999/xlink"><defs /><path d="M1014 1222Q1032 1201 1057.0 1185.5Q1082 1170 1109.5 1160.5Q1137 1151 1166.5 1146.5Q1196 1142 1223 1142Q1277 1097 1305.5 1033.0Q1334 969 1334 899Q1334 832 1308.5 773.0Q1283 714 1239.0 670.0Q1195 626 1136.5 600.5Q1078 575 1011 575Q944 575 885.0 600.5Q826 626 782.0 670.0Q738 714 712.5 773.0Q687 832 687 899Q687 967 713.0 1026.0Q739 1085 783.0 1128.5Q827 1172 886.5 1197.0Q946 1222 1014 1222ZM1805 1222Q1840 1186 1884.0 1162.5Q1928 1139 1979 1139Q1996 1139 2014 1142Q2068 1097 2096.5 1033.0Q2125 969 2125 899Q2125 832 2099.5 773.0Q2074 714 2030.0 670.0Q1986 626 1927.0 600.5Q1868 575 1801 575Q1734 575 1675.5 600.5Q1617 626 1573.0 670.0Q1529 714 1503.5 773.0Q1478 832 1478 899Q1478 967 1504.0 1026.0Q1530 1085 1574.0 1128.5Q1618 1172 1677.5 1197.0Q1737 1222 1805 1222Z" style="fill:#ffffff;stroke:none" transform="scale(1,-1) translate(0,-256)" /></svg>