<?xml version="1.0" encoding="utf-8" ?>
<svg baseProfile="full" height="256" version="1.1" width="256" xmlns="http://www.w3.org/2000/svg" xmlns:ev="http://www.w3.org/2001/xml-events" xmlns:xlink="http://www.w3.org/1999/xlink"><defs /><path d="M2015 976Q2038 999 2068.0 1011.5Q2098 1024 2130 1024Q2159 1024 2184.5 1013.0Q2210 1002 2228.5 982.5Q2247 963 2258.0 937.5Q2269 912 2269 883Q2269 863 2263.5 844.5Q2258 826 2248 809H2268Q2298 809 2324.0 797.5Q2350 786 2369.5 766.5Q2389 747 2400.5 720.5Q2412 694 2412 664Q2412 632 2399.0 606.0Q2386 580 2364.5 561.0Q2343 542 2315.0 531.5Q2287 521 2257 521H2197V511L2292 415Q2315 392 2327.5 362.5Q2340 333 2340 301Q2340 272 2329.0 246.5Q2318 221 2298.5 202.0Q2279 183 2253.5 172.5Q2228 162 2199 162Q2170 162 2143.5 173.0Q2117 184 2097 204L1983 318V178Q1983 151 1974.0 126.5Q1965 102 1949.5 82.0Q1934 62 1911.5 48.5Q1889 35 1862 31Q1857 30 1851.5 29.5Q1846 29 1840 29Q1810 29 1784.0 40.5Q1758 52 1738.5 71.5Q1719 91 1708.0 117.0Q1697 143 1697 173Q1697 203 1676.0 224.0Q1655 245 1625 245Q1596 245 1574.5 223.5Q1553 202 1553 173Q1553 142 1542.5 114.0Q1532 86 1513.0 64.5Q1494 43 1467.5 30.5Q1441 18 1409 18Q1379 18 1353.0 29.5Q1327 41 1307.5 60.5Q1288 80 1277.0 106.0Q1266 132 1266 162Q1266 196 1248.5 220.5Q1231 245 1194 245Q1164 245 1143.0 224.0Q1122 203 1122 173Q1122 143 1111.0 117.0Q1100 91 1080.5 71.5Q1061 52 1035.0 40.5Q1009 29 979 29Q947 29 920.5 41.5Q894 54 875.0 75.5Q856 97 845.5 125.0Q835 153 835 184V308Q831 312 829 312Q828 312 823.5 307.5Q819 303 813.5 298.0Q808 293 803.5 288.0Q799 283 798 282Q775 259 745.5 246.5Q716 234 684 234Q655 234 629.5 245.5Q604 257 585.0 276.5Q566 296 555.5 321.5Q545 347 545 376Q545 398 550.0 415.0Q555 432 563.5 446.0Q572 460 584.0 473.5Q596 487 610 501L615 506V521H555Q525 521 497.0 531.5Q469 542 447.5 561.0Q426 580 413.0 606.0Q400 632 400 664Q400 698 412.5 725.0Q425 752 446.0 770.5Q467 789 495.5 799.0Q524 809 556 809Q539 825 523.5 840.5Q508 856 497.0 873.5Q486 891 479.5 911.0Q473 931 473 957Q473 986 484.5 1011.5Q496 1037 515.5 1055.5Q535 1074 560.5 1085.0Q586 1096 615 1096Q644 1096 670.5 1085.0Q697 1074 717 1054Z" style="fill:#13a10e;stroke:none" transform="scale(1,-1) translate(0,-256)" /></svg>