<?xml version="1.0" encoding="utf-8" ?>
<svg baseProfile="full" height="256" version="1.1" width="256" xmlns="http://www.w3.org/2000/svg" xmlns:ev="http://www.w3.org/2001/xml-events" xmlns:xlink="http://www.w3.org/1999/xlink"><defs /><path d="M2556 665Q2556 599 2527.5 542.0Q2499 485 2448 444Q2465 411 2474.5 375.0Q2484 339 2484 301Q2484 219 2442.5 152.5Q2401 86 2327 49Q2311 -10 2277.5 -58.5Q2244 -107 2198.5 -141.5Q2153 -176 2097.0 -195.5Q2041 -215 1981 -215H1232Q1174 -250 1108.5 -268.5Q1043 -287 975 -287Q875 -287 786.5 -250.5Q698 -214 630.5 -150.0Q563 -86 521.0 0.5Q479 87 473 186Q440 224 421.0 272.5Q402 321 402 372Q402 383 402.5 394.0Q403 405 404 416Q335 455 296.0 520.5Q257 586 257 666Q257 723 279.0 777.5Q301 832 343 871Q337 892 333.5 913.5Q330 935 330 958Q330 1034 367.5 1098.5Q405 1163 472 1201V1222Q472 1326 511.5 1417.5Q551 1509 619.5 1577.5Q688 1646 779.5 1685.5Q871 1725 975 1725Q1043 1725 1108.5 1706.5Q1174 1688 1232 1653H1981Q2055 1653 2120.5 1624.5Q2186 1596 2234.5 1547.5Q2283 1499 2311.5 1433.5Q2340 1368 2340 1294V1073Q2369 1040 2387.0 1000.0Q2405 960 2410 915Q2479 876 2517.5 810.0Q2556 744 2556 665Z" style="fill:#000000;stroke:none" transform="scale(1,-1) translate(0,-256)" /></svg>