<?xml version="1.0" encoding="utf-8" ?>
<svg baseProfile="full" height="256" version="1.1" width="256" xmlns="http://www.w3.org/2000/svg" xmlns:ev="http://www.w3.org/2001/xml-events" xmlns:xlink="http://www.w3.org/1999/xlink"><defs /><path d="M2197 406V144Q2197 99 2180.0 60.0Q2163 21 2133.5 -8.5Q2104 -38 2065.0 -55.0Q2026 -72 1981 -72H1188Q1180 -65 1168.0 -56.0Q1156 -47 1143.0 -38.5Q1130 -30 1116.5 -24.5Q1103 -19 1093 -19Q1080 -19 1062.5 -34.5Q1045 -50 1028.0 -70.5Q1011 -91 996.5 -112.0Q982 -133 975 -144Q900 -144 834.5 -115.5Q769 -87 720.5 -38.5Q672 10 643.5 75.5Q615 141 615 216V406Z" style="fill:#eba300;stroke:none" transform="scale(1,-1) translate(0,-256)" /></svg>