<?xml version="1.0" encoding="utf-8" ?>
<svg baseProfile="full" height="256" version="1.1" width="256" xmlns="http://www.w3.org/2000/svg" xmlns:ev="http://www.w3.org/2001/xml-events" xmlns:xlink="http://www.w3.org/1999/xlink"><defs /><path d="M1981 1510Q2026 1510 2065.0 1493.0Q2104 1476 2133.5 1446.5Q2163 1417 2180.0 1378.0Q2197 1339 2197 1294V575Q2197 530 2180.0 491.0Q2163 452 2133.5 423.0Q2104 394 2065.0 377.0Q2026 360 1981 360H1188Q1179 365 1166.0 371.5Q1153 378 1139.0 383.5Q1125 389 1111.0 392.5Q1097 396 1087 396Q1073 396 1056.5 383.5Q1040 371 1024.5 353.5Q1009 336 995.5 317.5Q982 299 975 288Q901 288 835.5 316.0Q770 344 721.0 393.0Q672 442 643.5 507.0Q615 572 615 647V1222Q615 1297 643.5 1362.0Q672 1427 720.5 1476.0Q769 1525 834.5 1553.0Q900 1581 975 1581Q1032 1581 1087.0 1563.0Q1142 1545 1188 1510ZM2125 1294Q2125 1324 2113.5 1350.0Q2102 1376 2082.5 1395.5Q2063 1415 2037.0 1426.5Q2011 1438 1981 1438H1163Q1124 1472 1075.5 1491.0Q1027 1510 975 1510Q915 1510 862.5 1487.5Q810 1465 771.0 1426.0Q732 1387 709.5 1334.5Q687 1282 687 1222V791Q687 731 709.5 678.5Q732 626 771.0 587.0Q810 548 862.5 525.5Q915 503 975 503Q994 489 1016.5 478.5Q1039 468 1063 468Q1085 468 1105.0 477.5Q1125 487 1141.5 502.5Q1158 518 1170.0 537.0Q1182 556 1190 575H1981Q2011 575 2037.0 586.5Q2063 598 2082.5 617.5Q2102 637 2113.5 663.0Q2125 689 2125 719ZM1837 1348Q1852 1348 1862.5 1337.5Q1873 1327 1873 1312Q1873 1297 1862.5 1286.5Q1852 1276 1837 1276Q1822 1276 1811.5 1286.5Q1801 1297 1801 1312Q1801 1327 1811.5 1337.5Q1822 1348 1837 1348ZM1981 1204Q1996 1204 2006.5 1193.5Q2017 1183 2017 1168Q2017 1153 2006.5 1142.5Q1996 1132 1981 1132Q1966 1132 1955.5 1142.5Q1945 1153 1945 1168Q1945 1183 1955.5 1193.5Q1966 1204 1981 1204ZM1981 1348Q1996 1348 2006.5 1337.5Q2017 1327 2017 1312Q2017 1297 2006.5 1286.5Q1996 1276 1981 1276Q1966 1276 1955.5 1286.5Q1945 1297 1945 1312Q1945 1327 1955.5 1337.5Q1966 1348 1981 1348Z" style="fill:#eba300;stroke:none" transform="scale(1,-1) translate(0,-256)" /></svg>