<?xml version="1.0" encoding="utf-8" ?>
<svg baseProfile="full" height="256" version="1.1" width="256" xmlns="http://www.w3.org/2000/svg" xmlns:ev="http://www.w3.org/2001/xml-events" xmlns:xlink="http://www.w3.org/1999/xlink"><defs /><path d="M1329 523Q1331 509 1332.5 495.0Q1334 481 1334 467Q1334 404 1310.0 348.0Q1286 292 1245.0 251.0Q1204 210 1148.0 186.0Q1092 162 1029 162Q987 162 953.0 171.0Q919 180 889.5 196.0Q860 212 832.5 235.0Q805 258 777 287Q734 330 710.5 385.5Q687 441 687 502Q687 507 687.5 512.5Q688 518 688 523ZM2120 523Q2104 429 2035 359Q2006 330 1979.0 307.0Q1952 284 1922.5 268.0Q1893 252 1859.0 243.0Q1825 234 1783 234Q1722 234 1668.0 256.5Q1614 279 1573.0 318.0Q1532 357 1506.5 409.5Q1481 462 1478 523Z" style="fill:#e81224;stroke:none" transform="scale(1,-1) translate(0,-256)" /></svg>