<?xml version="1.0" encoding="utf-8" ?>
<svg baseProfile="full" height="256" version="1.1" width="256" xmlns="http://www.w3.org/2000/svg" xmlns:ev="http://www.w3.org/2001/xml-events" xmlns:xlink="http://www.w3.org/1999/xlink"><defs /><path d="M2053 360Q2083 360 2109.0 348.5Q2135 337 2154.5 317.5Q2174 298 2185.5 272.0Q2197 246 2197 216V123Q2197 102 2182.0 87.0Q2167 72 2145 72Q2125 72 2110 87L1981 216H975Q960 208 941.0 199.0Q922 190 901.5 180.5Q881 171 862.5 161.5Q844 152 831 144Q820 137 809.5 124.5Q799 112 788.5 100.0Q778 88 765.5 79.5Q753 71 738 71Q717 71 702.0 86.0Q687 101 687 122V216Q687 246 698.5 272.0Q710 298 729.5 317.5Q749 337 775.0 348.5Q801 360 831 360Z" style="fill:#fff100;stroke:none" transform="scale(1,-1) translate(0,-256)" /></svg>