<?xml version="1.0" encoding="utf-8" ?>
<svg baseProfile="full" height="256" version="1.1" width="256" xmlns="http://www.w3.org/2000/svg" xmlns:ev="http://www.w3.org/2001/xml-events" xmlns:xlink="http://www.w3.org/1999/xlink"><defs /><path d="M1981 1483Q2020 1483 2054.0 1468.0Q2088 1453 2114.0 1427.0Q2140 1401 2155.0 1367.0Q2170 1333 2170 1294V719Q2170 680 2155.0 645.5Q2140 611 2114.5 585.5Q2089 560 2054.5 545.0Q2020 530 1981 530H1179Q1136 495 1083.0 476.5Q1030 458 975 458Q906 458 845.5 484.0Q785 510 739.5 555.5Q694 601 668.0 661.5Q642 722 642 791V1222Q642 1291 668.5 1351.5Q695 1412 740.0 1457.0Q785 1502 845.5 1528.5Q906 1555 975 1555Q1032 1555 1083.0 1536.0Q1134 1517 1179 1483Z" style="fill:#ffd679;stroke:none" transform="scale(1,-1) translate(0,-256)" /></svg>