<?xml version="1.0" encoding="utf-8" ?>
<svg baseProfile="full" height="256" version="1.1" width="256" xmlns="http://www.w3.org/2000/svg" xmlns:ev="http://www.w3.org/2001/xml-events" xmlns:xlink="http://www.w3.org/1999/xlink"><defs /><path d="M1453 1294H2556V-431H256V-72H412L427 -57Q346 4 301.0 94.0Q256 184 256 286Q256 347 272.5 405.0Q289 463 319.5 513.0Q350 563 394.0 604.0Q438 645 493 673L695 775Q724 789 758.5 803.5Q793 818 818 837Q843 856 864.0 880.0Q885 904 908 927L1089 1108Q1131 1150 1169.5 1184.0Q1208 1218 1250.5 1242.5Q1293 1267 1342.0 1280.5Q1391 1294 1453 1294Z" style="fill:#000000;stroke:none" transform="scale(1,-1) translate(0,-256)" /></svg>