<?xml version="1.0" encoding="utf-8" ?>
<svg baseProfile="full" height="256" version="1.1" width="256" xmlns="http://www.w3.org/2000/svg" xmlns:ev="http://www.w3.org/2001/xml-events" xmlns:xlink="http://www.w3.org/1999/xlink"><defs /><path d="M1190 -144 1334 0Q1336 15 1368.5 25.5Q1401 36 1450.5 42.5Q1500 49 1558.5 52.5Q1617 56 1671.5 57.5Q1726 59 1768.0 59.5Q1810 60 1826 60H1953Q1997 60 2052.5 59.5Q2108 59 2165.0 56.0Q2222 53 2276.0 46.5Q2330 40 2371 28Q2372 28 2372.5 27.5Q2373 27 2374 27Q2383 24 2398.5 17.5Q2414 11 2414 3Q2414 -34 2413.5 -70.5Q2413 -107 2413 -144Z" style="fill:#383838;stroke:none" transform="scale(1,-1) translate(0,-256)" /></svg>