<?xml version="1.0" encoding="utf-8" ?>
<svg baseProfile="full" height="256" version="1.1" width="256" xmlns="http://www.w3.org/2000/svg" xmlns:ev="http://www.w3.org/2001/xml-events" xmlns:xlink="http://www.w3.org/1999/xlink"><defs /><path d="M1453 1150H2412V287L1550 96Q1496 84 1443.0 67.5Q1390 51 1336.5 36.0Q1283 21 1229.0 10.5Q1175 0 1119 0H687Q665 30 646.5 67.0Q628 104 615.0 144.0Q602 184 594.5 224.0Q587 264 587 302Q587 340 594.5 381.5Q602 423 615.0 463.5Q628 504 646.5 541.5Q665 579 687 610Q741 637 794.0 666.5Q847 696 903 719Q917 725 932.0 728.5Q947 732 962 737Q996 748 1038.0 770.0Q1080 792 1116.5 822.0Q1153 852 1178.0 889.0Q1203 926 1203 967Q1203 978 1200.5 988.0Q1198 998 1190 1006Q1220 1036 1248.0 1062.0Q1276 1088 1306.5 1107.5Q1337 1127 1372.5 1138.5Q1408 1150 1453 1150Z" style="fill:#f2f2f2;stroke:none" transform="scale(1,-1) translate(0,-256)" /></svg>