<?xml version="1.0" encoding="utf-8" ?>
<svg baseProfile="full" height="256" version="1.1" width="256" xmlns="http://www.w3.org/2000/svg" xmlns:ev="http://www.w3.org/2001/xml-events" xmlns:xlink="http://www.w3.org/1999/xlink"><defs /><path d="M1907 -431Q1775 -431 1658.5 -383.0Q1542 -335 1448 -241L446 761Q353 854 304.5 971.5Q256 1089 256 1220Q256 1355 307.0 1473.0Q358 1591 446.0 1679.0Q534 1767 652.0 1818.0Q770 1869 905 1869Q1034 1869 1153.5 1819.5Q1273 1770 1364 1679L2366 677Q2459 584 2507.5 466.5Q2556 349 2556 218Q2556 83 2505.0 -35.0Q2454 -153 2366.0 -241.0Q2278 -329 2160.0 -380.0Q2042 -431 1907 -431Z" style="fill:#000000;stroke:none" transform="scale(1,-1) translate(0,-256)" /></svg>