<?xml version="1.0" encoding="utf-8" ?>
<svg baseProfile="full" height="256" version="1.1" width="256" xmlns="http://www.w3.org/2000/svg" xmlns:ev="http://www.w3.org/2001/xml-events" xmlns:xlink="http://www.w3.org/1999/xlink"><defs /><path d="M1761 1078Q1758 1073 1757.5 1068.5Q1757 1064 1757 1059Q1757 1030 1758.5 1000.0Q1760 970 1760 941Q1760 928 1745.0 902.0Q1730 876 1706.5 843.0Q1683 810 1654.0 774.5Q1625 739 1597.5 706.5Q1570 674 1547.5 649.0Q1525 624 1513 613Q1503 603 1481.5 582.5Q1460 562 1432.5 536.0Q1405 510 1375.0 482.5Q1345 455 1318.5 431.5Q1292 408 1271.5 391.5Q1251 375 1243 373Q1231 369 1213.0 368.0Q1195 367 1175 367Q1155 367 1136.5 367.5Q1118 368 1104 368Q1090 368 1075.0 367.5Q1060 367 1046 364L547 863Q475 935 437.0 1026.5Q399 1118 399 1220Q399 1290 417.0 1354.5Q435 1419 468.0 1475.0Q501 1531 547.5 1577.0Q594 1623 650.0 1656.0Q706 1689 770.5 1707.0Q835 1725 905 1725Q1007 1725 1098.5 1687.0Q1190 1649 1262 1577Z" style="fill:#e81224;stroke:none" transform="scale(1,-1) translate(0,-256)" /></svg>