<?xml version="1.0" encoding="utf-8" ?>
<svg baseProfile="full" height="256" version="1.1" width="256" xmlns="http://www.w3.org/2000/svg" xmlns:ev="http://www.w3.org/2001/xml-events" xmlns:xlink="http://www.w3.org/1999/xlink"><defs /><path d="M1761 1078 2264 575Q2336 503 2374.0 411.5Q2412 320 2412 218Q2412 148 2394.0 83.5Q2376 19 2343.0 -37.0Q2310 -93 2264.0 -139.5Q2218 -186 2162.0 -219.0Q2106 -252 2041.5 -270.0Q1977 -288 1907 -288Q1805 -288 1713.0 -249.5Q1621 -211 1549 -139L1046 364Q1047 512 1103.5 641.5Q1160 771 1257.0 867.5Q1354 964 1483.5 1020.5Q1613 1077 1761 1078Z" style="fill:#ffc83d;stroke:none" transform="scale(1,-1) translate(0,-256)" /></svg>