<?xml version="1.0" encoding="utf-8" ?>
<svg baseProfile="full" height="256" version="1.1" width="256" xmlns="http://www.w3.org/2000/svg" xmlns:ev="http://www.w3.org/2001/xml-events" xmlns:xlink="http://www.w3.org/1999/xlink"><defs /><path d="M1446 1791Q1518 1781 1589.0 1764.0Q1660 1747 1726 1718Q1866 1656 1979.5 1561.0Q2093 1466 2173.0 1346.5Q2253 1227 2296.5 1086.0Q2340 945 2340 791Q2340 761 2329.0 735.0Q2318 709 2298.5 689.5Q2279 670 2253.0 658.5Q2227 647 2197 647Q2165 647 2142.5 657.5Q2120 668 2102.0 684.0Q2084 700 2068.5 719.0Q2053 738 2035.5 754.0Q2018 770 1996.5 780.5Q1975 791 1945 791Q1915 791 1893.5 780.5Q1872 770 1854.5 754.0Q1837 738 1821.5 719.0Q1806 700 1788.0 684.0Q1770 668 1747.0 657.5Q1724 647 1693 647Q1664 647 1643.0 656.5Q1622 666 1599 683Q1570 705 1541.0 723.5Q1512 742 1478 756V-144Q1478 -203 1455.0 -255.0Q1432 -307 1392.5 -346.0Q1353 -385 1300.5 -408.0Q1248 -431 1190 -431Q1131 -431 1079.0 -408.0Q1027 -385 988.0 -346.0Q949 -307 926.0 -255.0Q903 -203 903 -144V-121Q903 -81 915.5 -46.0Q928 -11 951.5 15.5Q975 42 1008.0 57.0Q1041 72 1083 72Q1103 72 1118 68V756Q1084 742 1055.5 723.0Q1027 704 998 683Q975 666 954.0 656.5Q933 647 903 647Q871 647 848.5 657.5Q826 668 808.0 684.0Q790 700 774.5 719.0Q759 738 741.5 754.0Q724 770 702.5 780.5Q681 791 651 791Q621 791 599.5 780.5Q578 770 560.5 754.0Q543 738 527.5 719.0Q512 700 494.0 684.0Q476 668 453.5 657.5Q431 647 400 647Q370 647 343.5 658.0Q317 669 297.5 688.5Q278 708 267.0 734.5Q256 761 256 791Q256 920 286.5 1040.0Q317 1160 374.0 1266.0Q431 1372 511.5 1461.0Q592 1550 691.0 1618.0Q790 1686 906.0 1730.5Q1022 1775 1150 1791Q1175 1828 1214.0 1848.5Q1253 1869 1298 1869Q1343 1869 1382.0 1848.5Q1421 1828 1446 1791Z" style="fill:#000000;stroke:none" transform="scale(1,-1) translate(0,-256)" /></svg>