<?xml version="1.0" encoding="utf-8" ?>
<svg baseProfile="full" height="256" version="1.1" width="256" xmlns="http://www.w3.org/2000/svg" xmlns:ev="http://www.w3.org/2001/xml-events" xmlns:xlink="http://www.w3.org/1999/xlink"><defs /><path d="M1298 1725Q1313 1725 1323.5 1714.5Q1334 1704 1334 1689V-144Q1334 -173 1322.5 -199.0Q1311 -225 1291.0 -244.5Q1271 -264 1245.0 -275.5Q1219 -287 1190 -287Q1161 -287 1135.0 -275.5Q1109 -264 1089.5 -244.5Q1070 -225 1058.5 -199.0Q1047 -173 1047 -144V-121Q1047 -101 1053.5 -86.5Q1060 -72 1083 -72Q1107 -72 1112.5 -88.0Q1118 -104 1118 -123V-144Q1118 -173 1139.5 -194.0Q1161 -215 1190 -215Q1219 -215 1240.5 -194.0Q1262 -173 1262 -144V1689Q1262 1704 1272.5 1714.5Q1283 1725 1298 1725Z" style="fill:#d48c00;stroke:none" transform="scale(1,-1) translate(0,-256)" /></svg>