<?xml version="1.0" encoding="utf-8" ?>
<svg baseProfile="full" height="256" version="1.1" width="256" xmlns="http://www.w3.org/2000/svg" xmlns:ev="http://www.w3.org/2001/xml-events" xmlns:xlink="http://www.w3.org/1999/xlink"><defs /><path d="M400 72V216H448Q471 216 493.5 221.5Q516 227 539 232Q576 240 612.5 243.0Q649 246 687 246Q725 246 762.0 243.0Q799 240 836 232Q852 228 869.5 222.0Q887 216 903 216H1622Q1640 216 1657.5 220.0Q1675 224 1693 226Q1731 231 1769.5 233.5Q1808 236 1846 236Q1916 236 1985 227Q2002 225 2019.0 220.5Q2036 216 2053 216H2125V72ZM400 575H2125V431H1478Q1473 431 1464.5 428.5Q1456 426 1446.0 423.0Q1436 420 1426.5 417.0Q1417 414 1411 413Q1374 405 1337.0 401.0Q1300 397 1262 397Q1189 397 1119 412Q1112 413 1102.0 416.5Q1092 420 1081.5 423.0Q1071 426 1061.5 428.5Q1052 431 1047 431H400Z" style="fill:#eba300;stroke:none" transform="scale(1,-1) translate(0,-256)" /></svg>