<?xml version="1.0" encoding="utf-8" ?>
<svg baseProfile="full" height="256" version="1.1" width="256" xmlns="http://www.w3.org/2000/svg" xmlns:ev="http://www.w3.org/2001/xml-events" xmlns:xlink="http://www.w3.org/1999/xlink"><defs /><path d="M256 -431V863Q256 900 266.5 937.0Q277 974 295.5 1007.0Q314 1040 341.0 1067.0Q368 1094 401 1112L764 1309Q772 1345 790.0 1378.0Q808 1411 835 1437L1095 1685Q1153 1740 1221.5 1768.5Q1290 1797 1370 1797Q1390 1797 1408.5 1795.0Q1427 1793 1446 1789Q1491 1827 1544.5 1848.0Q1598 1869 1658 1869H2184L2009 1694L2018 1684L2498 1035Q2526 997 2541.0 953.5Q2556 910 2556 863V-144Q2556 -203 2533.0 -255.0Q2510 -307 2470.5 -346.0Q2431 -385 2378.5 -408.0Q2326 -431 2268 -431Z" style="fill:#000000;stroke:none" transform="scale(1,-1) translate(0,-256)" /></svg>