<?xml version="1.0" encoding="utf-8" ?>
<svg baseProfile="full" height="256" version="1.1" width="256" xmlns="http://www.w3.org/2000/svg" xmlns:ev="http://www.w3.org/2001/xml-events" xmlns:xlink="http://www.w3.org/1999/xlink"><defs /><path d="M687 431Q732 431 771.0 414.0Q810 397 839.5 368.0Q869 339 886.0 300.0Q903 261 903 216H472Q472 261 489.0 300.0Q506 339 535.0 368.0Q564 397 603.0 414.0Q642 431 687 431ZM1837 431Q1882 431 1921.0 414.0Q1960 397 1989.5 368.0Q2019 339 2036.0 300.0Q2053 261 2053 216H1622Q1622 261 1639.0 300.0Q1656 339 1685.0 368.0Q1714 397 1753.0 414.0Q1792 431 1837 431ZM1262 216Q1217 216 1178.0 233.0Q1139 250 1110.0 279.0Q1081 308 1064.0 347.0Q1047 386 1047 431H1478Q1478 386 1461.0 347.0Q1444 308 1414.5 279.0Q1385 250 1346.0 233.0Q1307 216 1262 216ZM1370 1653Q1422 1653 1468.0 1633.5Q1514 1614 1548.0 1580.0Q1582 1546 1602.0 1500.0Q1622 1454 1622 1402Q1622 1350 1602.0 1304.0Q1582 1258 1548.0 1224.0Q1514 1190 1468.0 1170.0Q1422 1150 1370 1150H1011Q988 1150 968.5 1158.5Q949 1167 934.5 1181.5Q920 1196 911.5 1215.5Q903 1235 903 1258Q903 1279 911.0 1299.5Q919 1320 935 1335L1194 1581Q1269 1653 1370 1653Z" style="fill:#f03a17;stroke:none" transform="scale(1,-1) translate(0,-256)" /></svg>