<?xml version="1.0" encoding="utf-8" ?>
<svg baseProfile="full" height="256" version="1.1" width="256" xmlns="http://www.w3.org/2000/svg" xmlns:ev="http://www.w3.org/2001/xml-events" xmlns:xlink="http://www.w3.org/1999/xlink"><defs /><path d="M1622 1510H1909L1782 1383Q1756 1357 1723.5 1343.5Q1691 1330 1655 1330Q1623 1330 1585.5 1343.5Q1548 1357 1528 1383Q1522 1392 1513.0 1414.5Q1504 1437 1496.5 1462.5Q1489 1488 1483.5 1511.5Q1478 1535 1478 1546Q1478 1583 1492.0 1615.5Q1506 1648 1530.5 1672.5Q1555 1697 1588.0 1711.0Q1621 1725 1658 1725H1837Z" style="fill:#107c10;stroke:none" transform="scale(1,-1) translate(0,-256)" /></svg>