<?xml version="1.0" encoding="utf-8" ?>
<svg baseProfile="full" height="256" version="1.1" width="256" xmlns="http://www.w3.org/2000/svg" xmlns:ev="http://www.w3.org/2001/xml-events" xmlns:xlink="http://www.w3.org/1999/xlink"><defs /><path d="M2268 1006Q2298 1006 2324.0 995.0Q2350 984 2369.5 964.5Q2389 945 2400.5 919.0Q2412 893 2412 863V-144Q2412 -174 2400.5 -200.0Q2389 -226 2369.5 -245.5Q2350 -265 2324.0 -276.0Q2298 -287 2268 -287Q2239 -287 2210.5 -288.0Q2182 -289 2153 -289Q2145 -289 2139.0 -288.5Q2133 -288 2125 -287L502 -115L400 863Q400 866 399.5 868.5Q399 871 399 874Q399 901 412.0 925.0Q425 949 445.5 967.0Q466 985 491.5 995.5Q517 1006 543 1006Z" style="fill:#ffffff;stroke:none" transform="scale(1,-1) translate(0,-256)" /></svg>