<?xml version="1.0" encoding="utf-8" ?>
<svg baseProfile="full" height="256" version="1.1" width="256" xmlns="http://www.w3.org/2000/svg" xmlns:ev="http://www.w3.org/2001/xml-events" xmlns:xlink="http://www.w3.org/1999/xlink"><defs /><path d="M1406 1150Q1510 1150 1601.5 1110.5Q1693 1071 1761.5 1002.5Q1830 934 1869.5 842.5Q1909 751 1909 647Q1909 543 1869.5 451.5Q1830 360 1761.5 291.5Q1693 223 1601.5 183.5Q1510 144 1406 144Q1302 144 1210.0 183.5Q1118 223 1050.0 291.0Q982 359 942.5 451.0Q903 543 903 647Q903 751 942.5 842.5Q982 934 1050.5 1002.5Q1119 1071 1210.5 1110.5Q1302 1150 1406 1150ZM1622 1438V1294H1190V1438ZM543 1294V1366H831V1294ZM1837 1294V1366H1981V1294ZM2125 1366H2268V1294H2125Z" style="fill:#cccccc;stroke:none" transform="scale(1,-1) translate(0,-256)" /></svg>