<?xml version="1.0" encoding="utf-8" ?>
<svg baseProfile="full" height="256" version="1.1" width="256" xmlns="http://www.w3.org/2000/svg" xmlns:ev="http://www.w3.org/2001/xml-events" xmlns:xlink="http://www.w3.org/1999/xlink"><defs /><path d="M1406 1078Q1495 1078 1573.5 1044.0Q1652 1010 1710.5 951.5Q1769 893 1803.0 814.5Q1837 736 1837 647Q1837 558 1803.0 479.5Q1769 401 1710.5 342.5Q1652 284 1573.5 250.0Q1495 216 1406 216Q1317 216 1238.5 250.0Q1160 284 1101.5 342.5Q1043 401 1009.0 479.5Q975 558 975 647Q975 736 1009.0 814.5Q1043 893 1101.5 951.5Q1160 1010 1238.5 1044.0Q1317 1078 1406 1078ZM1406 360Q1466 360 1518.0 382.5Q1570 405 1609.0 444.0Q1648 483 1670.5 535.0Q1693 587 1693 647Q1693 707 1670.5 759.5Q1648 812 1609.0 851.0Q1570 890 1518.0 912.5Q1466 935 1406 935Q1346 935 1293.5 912.5Q1241 890 1202.0 851.0Q1163 812 1140.5 759.5Q1118 707 1118 647Q1118 587 1140.5 535.0Q1163 483 1202.0 444.0Q1241 405 1293.5 382.5Q1346 360 1406 360ZM1981 288Q2011 288 2032.0 267.0Q2053 246 2053 216Q2053 186 2032.0 165.0Q2011 144 1981 144Q1951 144 1930.0 165.0Q1909 186 1909 216Q1909 246 1930.0 267.0Q1951 288 1981 288ZM1355 596 1457 698Q1478 677 1478 647Q1478 617 1457.0 596.0Q1436 575 1406 575Q1376 575 1355 596Z" style="fill:#1f1f1f;stroke:none" transform="scale(1,-1) translate(0,-256)" /></svg>