<?xml version="1.0" encoding="utf-8" ?>
<svg baseProfile="full" height="256" version="1.1" width="256" xmlns="http://www.w3.org/2000/svg" xmlns:ev="http://www.w3.org/2001/xml-events" xmlns:xlink="http://www.w3.org/1999/xlink"><defs /><path d="M2412 1522Q2412 1483 2399.0 1451.5Q2386 1420 2366.0 1393.5Q2346 1367 2320.0 1343.0Q2294 1319 2269 1294L2149 1283L1982 1461V1581Q2007 1606 2030.5 1632.0Q2054 1658 2080.5 1678.5Q2107 1699 2138.5 1712.0Q2170 1725 2209 1725Q2251 1725 2288.0 1709.0Q2325 1693 2352.5 1665.5Q2380 1638 2396.0 1601.0Q2412 1564 2412 1522Z" style="fill:#e84757;stroke:none" transform="scale(1,-1) translate(0,-256)" /></svg>