<?xml version="1.0" encoding="utf-8" ?>
<svg baseProfile="full" height="256" version="1.1" width="256" xmlns="http://www.w3.org/2000/svg" xmlns:ev="http://www.w3.org/2001/xml-events" xmlns:xlink="http://www.w3.org/1999/xlink"><defs /><path d="M1837 719Q1837 630 1803.0 551.5Q1769 473 1710.5 414.5Q1652 356 1573.5 322.0Q1495 288 1406 288Q1317 288 1238.5 322.0Q1160 356 1101.5 414.5Q1043 473 1009.0 551.5Q975 630 975 719Q975 808 1009.0 886.5Q1043 965 1101.5 1023.5Q1160 1082 1238.5 1116.0Q1317 1150 1406 1150Q1495 1150 1573.5 1116.0Q1652 1082 1710.5 1023.5Q1769 965 1803.0 886.5Q1837 808 1837 719Z" style="fill:#83beec;stroke:none" transform="scale(1,-1) translate(0,-256)" /></svg>