<?xml version="1.0" encoding="utf-8" ?>
<svg baseProfile="full" height="256" version="1.1" width="256" xmlns="http://www.w3.org/2000/svg" xmlns:ev="http://www.w3.org/2001/xml-events" xmlns:xlink="http://www.w3.org/1999/xlink"><defs /><path d="M867 1653Q964 1653 1049.0 1616.5Q1134 1580 1197.5 1516.5Q1261 1453 1297.5 1368.0Q1334 1283 1334 1186Q1334 1089 1297.5 1004.0Q1261 919 1197.5 855.5Q1134 792 1049.0 755.5Q964 719 867 719Q770 719 685.0 755.5Q600 792 536.5 855.5Q473 919 436.5 1004.0Q400 1089 400 1186Q400 1283 436.5 1368.0Q473 1453 536.5 1516.5Q600 1580 685.0 1616.5Q770 1653 867 1653ZM1945 1653Q2042 1653 2127.0 1616.5Q2212 1580 2275.5 1516.5Q2339 1453 2375.5 1368.0Q2412 1283 2412 1186Q2412 1089 2375.5 1004.0Q2339 919 2275.5 855.5Q2212 792 2127.0 755.5Q2042 719 1945 719Q1848 719 1763.0 755.5Q1678 792 1614.5 855.5Q1551 919 1514.5 1004.0Q1478 1089 1478 1186Q1478 1283 1514.5 1368.0Q1551 1453 1614.5 1516.5Q1678 1580 1763.0 1616.5Q1848 1653 1945 1653ZM1047 -287V431H1765V-287ZM1981 864Q2015 871 2042.0 888.0Q2069 905 2087.5 930.0Q2106 955 2115.5 985.5Q2125 1016 2125 1050Q2125 1097 2103.5 1126.5Q2082 1156 2050.0 1175.5Q2018 1195 1981.0 1208.5Q1944 1222 1912.0 1237.0Q1880 1252 1858.5 1271.5Q1837 1291 1837 1322Q1837 1370 1865.5 1404.0Q1894 1438 1945 1438Q1967 1438 1986.5 1429.5Q2006 1421 2021.0 1406.0Q2036 1391 2044.5 1371.5Q2053 1352 2053 1330V1294H2125V1330Q2125 1361 2114.0 1390.5Q2103 1420 2084.0 1443.5Q2065 1467 2038.5 1483.5Q2012 1500 1981 1506V1581H1909V1506Q1874 1499 1847.5 1482.0Q1821 1465 1802.5 1440.5Q1784 1416 1774.5 1385.0Q1765 1354 1765 1320Q1765 1273 1786.5 1243.5Q1808 1214 1839.5 1194.5Q1871 1175 1908.5 1161.5Q1946 1148 1977.5 1133.5Q2009 1119 2030.5 1099.5Q2052 1080 2052 1048Q2052 1000 2023.5 966.0Q1995 932 1944 932Q1922 932 1902.5 940.5Q1883 949 1868.5 964.0Q1854 979 1845.5 998.5Q1837 1018 1837 1040V1076H1765V1040Q1765 1008 1776.0 979.0Q1787 950 1806.0 926.5Q1825 903 1851.5 886.5Q1878 870 1909 864V791H1981ZM904 864Q938 871 965.0 888.0Q992 905 1010.0 930.0Q1028 955 1037.5 985.5Q1047 1016 1047 1050Q1047 1096 1025.5 1125.5Q1004 1155 972.0 1175.0Q940 1195 903.0 1208.5Q866 1222 834.0 1236.5Q802 1251 780.5 1270.5Q759 1290 759 1321Q759 1345 766.5 1366.0Q774 1387 788.0 1403.0Q802 1419 822.0 1428.5Q842 1438 867 1438Q889 1438 908.5 1429.5Q928 1421 943.0 1406.0Q958 1391 966.5 1371.5Q975 1352 975 1330V1294H1047V1330Q1047 1362 1036.5 1391.0Q1026 1420 1007.0 1443.5Q988 1467 961.5 1483.5Q935 1500 904 1506V1581H832V1506Q798 1499 771.0 1482.0Q744 1465 725.5 1440.0Q707 1415 697.0 1384.5Q687 1354 687 1320Q687 1273 708.5 1243.5Q730 1214 762.0 1194.5Q794 1175 831.0 1161.5Q868 1148 900.0 1133.5Q932 1119 953.5 1099.5Q975 1080 975 1048Q975 1024 967.5 1003.0Q960 982 945.5 966.5Q931 951 911.0 941.5Q891 932 867 932Q845 932 825.5 940.5Q806 949 791.0 964.0Q776 979 767.5 998.5Q759 1018 759 1040V1076H687V1040Q687 1008 698.0 978.5Q709 949 728.0 925.5Q747 902 773.5 886.0Q800 870 832 864V791H904Z" style="fill:#16c60c;stroke:none" transform="scale(1,-1) translate(0,-256)" /></svg>