<?xml version="1.0" encoding="utf-8" ?>
<svg baseProfile="full" height="256" version="1.1" width="256" xmlns="http://www.w3.org/2000/svg" xmlns:ev="http://www.w3.org/2001/xml-events" xmlns:xlink="http://www.w3.org/1999/xlink"><defs /><path d="M831 575H1981Q1981 456 1935.5 351.5Q1890 247 1812.0 169.0Q1734 91 1629.0 45.5Q1524 0 1406 0Q1287 0 1182.5 45.5Q1078 91 1000.0 169.0Q922 247 876.5 351.5Q831 456 831 575ZM1295 1186Q1295 1097 1261.5 1019.5Q1228 942 1169.5 883.5Q1111 825 1033.0 791.5Q955 758 867 758Q778 758 700.5 791.5Q623 825 564.5 883.5Q506 942 472.5 1019.5Q439 1097 439 1186Q439 1274 472.5 1352.0Q506 1430 564.5 1488.5Q623 1547 700.5 1580.5Q778 1614 867 1614Q955 1614 1033.0 1580.5Q1111 1547 1169.5 1488.5Q1228 1430 1261.5 1352.0Q1295 1274 1295 1186ZM2373 1186Q2373 1097 2339.5 1019.5Q2306 942 2247.5 883.5Q2189 825 2111.0 791.5Q2033 758 1945 758Q1856 758 1778.5 791.5Q1701 825 1642.5 883.5Q1584 942 1550.5 1019.5Q1517 1097 1517 1186Q1517 1274 1550.5 1352.0Q1584 1430 1642.5 1488.5Q1701 1547 1778.5 1580.5Q1856 1614 1945 1614Q2033 1614 2111.0 1580.5Q2189 1547 2247.5 1488.5Q2306 1430 2339.5 1352.0Q2373 1274 2373 1186Z" style="fill:#000000;stroke:none" transform="scale(1,-1) translate(0,-256)" /></svg>