<?xml version="1.0" encoding="utf-8" ?>
<svg baseProfile="full" height="256" version="1.1" width="256" xmlns="http://www.w3.org/2000/svg" xmlns:ev="http://www.w3.org/2001/xml-events" xmlns:xlink="http://www.w3.org/1999/xlink"><defs /><path d="M2556 1186Q2556 1083 2523 989Q2539 923 2547.5 855.5Q2556 788 2556 719Q2556 560 2515.0 413.0Q2474 266 2399.0 138.5Q2324 11 2219.0 -94.0Q2114 -199 1986.5 -274.0Q1859 -349 1712.0 -390.0Q1565 -431 1406 -431Q1247 -431 1100.0 -390.0Q953 -349 825.5 -274.0Q698 -199 593.0 -94.0Q488 11 413.0 138.5Q338 266 297.0 413.0Q256 560 256 719Q256 788 264.5 855.5Q273 923 289 989Q256 1083 256 1186Q256 1312 304.0 1423.5Q352 1535 435.0 1618.0Q518 1701 629.5 1749.0Q741 1797 867 1797Q896 1797 923.5 1794.0Q951 1791 979 1786Q1081 1828 1188.5 1848.5Q1296 1869 1406 1869Q1516 1869 1623.5 1848.5Q1731 1828 1833 1786Q1861 1791 1888.5 1794.0Q1916 1797 1945 1797Q2071 1797 2182.5 1749.0Q2294 1701 2377.0 1618.0Q2460 1535 2508.0 1423.5Q2556 1312 2556 1186Z" style="fill:#000000;stroke:none" transform="scale(1,-1) translate(0,-256)" /></svg>