<?xml version="1.0" encoding="utf-8" ?>
<svg baseProfile="full" height="256" version="1.1" width="256" xmlns="http://www.w3.org/2000/svg" xmlns:ev="http://www.w3.org/2001/xml-events" xmlns:xlink="http://www.w3.org/1999/xlink"><defs /><path d="M1190 -72Q1220 -72 1241.0 -93.0Q1262 -114 1262 -144Q1262 -173 1240.5 -194.0Q1219 -215 1190 -215Q1161 -215 1139.5 -194.0Q1118 -173 1118 -144Q1118 -115 1139.5 -93.5Q1161 -72 1190 -72ZM1622 -72Q1651 -72 1672.0 -93.5Q1693 -115 1693 -144Q1693 -173 1672.0 -194.0Q1651 -215 1622 -215Q1593 -215 1571.5 -194.0Q1550 -173 1550 -144Q1550 -114 1571.0 -93.0Q1592 -72 1622 -72ZM1622 216Q1622 186 1610.5 160.0Q1599 134 1579.5 114.5Q1560 95 1534.0 83.5Q1508 72 1478 72H1334Q1304 72 1278.0 83.5Q1252 95 1232.5 114.5Q1213 134 1201.5 160.0Q1190 186 1190 216Q1190 246 1201.5 272.0Q1213 298 1232.5 317.5Q1252 337 1278.0 348.5Q1304 360 1334 360H1478Q1508 360 1534.0 348.5Q1560 337 1579.5 317.5Q1599 298 1610.5 272.0Q1622 246 1622 216Z" style="fill:#aae5aa;stroke:none" transform="scale(1,-1) translate(0,-256)" /></svg>