<?xml version="1.0" encoding="utf-8" ?>
<svg baseProfile="full" height="256" version="1.1" width="256" xmlns="http://www.w3.org/2000/svg" xmlns:ev="http://www.w3.org/2001/xml-events" xmlns:xlink="http://www.w3.org/1999/xlink"><defs /><path d="M2125 1431Q2176 1413 2227.5 1389.0Q2279 1365 2324.0 1333.5Q2369 1302 2405.5 1261.0Q2442 1220 2465 1167Q2510 1061 2533.0 948.0Q2556 835 2556 719Q2556 560 2515.0 413.5Q2474 267 2399.0 139.0Q2324 11 2219.0 -94.0Q2114 -199 1986.0 -274.0Q1858 -349 1711.0 -390.0Q1564 -431 1406 -431Q1247 -431 1100.5 -390.0Q954 -349 826.5 -274.0Q699 -199 594.0 -94.0Q489 11 414.0 139.0Q339 267 298.0 414.0Q257 561 257 719Q257 835 279.5 948.5Q302 1062 347 1168Q369 1220 406.0 1261.0Q443 1302 488.5 1333.5Q534 1365 585.0 1389.0Q636 1413 687 1431Q687 1434 686.5 1437.0Q686 1440 686 1443Q686 1457 688.0 1471.0Q690 1485 692 1497Q701 1562 733.5 1617.0Q766 1672 814.0 1712.0Q862 1752 922.0 1774.5Q982 1797 1047 1797Q1094 1832 1150.0 1850.0Q1206 1868 1264 1868Q1301 1868 1336.5 1861.0Q1372 1854 1406 1839Q1440 1854 1475.5 1861.0Q1511 1868 1548 1868Q1606 1868 1662.0 1850.0Q1718 1832 1765 1797Q1827 1797 1886.5 1775.0Q1946 1753 1994.5 1714.0Q2043 1675 2076.5 1621.0Q2110 1567 2119 1504Q2119 1502 2119.5 1501.0Q2120 1500 2120 1498Q2122 1485 2124.0 1470.0Q2126 1455 2126 1442Q2126 1439 2125.5 1436.5Q2125 1434 2125 1431Z" style="fill:#000000;stroke:none" transform="scale(1,-1) translate(0,-256)" /></svg>