<?xml version="1.0" encoding="utf-8" ?>
<svg baseProfile="full" height="256" version="1.1" width="256" xmlns="http://www.w3.org/2000/svg" xmlns:ev="http://www.w3.org/2001/xml-events" xmlns:xlink="http://www.w3.org/1999/xlink"><defs /><path d="M1118 936Q1148 936 1174.0 924.5Q1200 913 1219.5 893.5Q1239 874 1250.5 848.0Q1262 822 1262 792Q1262 762 1250.5 735.5Q1239 709 1219.5 689.5Q1200 670 1174.0 659.0Q1148 648 1118 648Q1113 648 1109.0 648.0Q1105 648 1100 649Q1080 616 1046.5 596.0Q1013 576 975 576Q945 576 919.0 587.5Q893 599 873.5 618.5Q854 638 842.5 664.0Q831 690 831 720Q831 750 842.5 776.0Q854 802 873.5 821.5Q893 841 919.0 852.5Q945 864 975 864Q980 864 984.0 863.5Q988 863 993 862Q1012 896 1045.5 916.0Q1079 936 1118 936ZM1819 862Q1825 863 1830.5 863.5Q1836 864 1841 864Q1869 864 1894.5 852.5Q1920 841 1939.5 821.0Q1959 801 1970.0 775.0Q1981 749 1981 720Q1981 690 1969.5 664.0Q1958 638 1938.5 618.5Q1919 599 1893.0 587.5Q1867 576 1837 576Q1799 576 1765.5 596.0Q1732 616 1712 649Q1707 648 1702.0 647.5Q1697 647 1692 647Q1663 647 1637.5 658.5Q1612 670 1592.5 690.0Q1573 710 1561.5 736.5Q1550 763 1550 792Q1550 822 1561.0 848.0Q1572 874 1591.5 893.5Q1611 913 1637.0 924.5Q1663 936 1693 936Q1732 936 1765.5 916.0Q1799 896 1819 862Z" style="fill:#f2f2f2;stroke:none" transform="scale(1,-1) translate(0,-256)" /></svg>