<?xml version="1.0" encoding="utf-8" ?>
<svg baseProfile="full" height="256" version="1.1" width="256" xmlns="http://www.w3.org/2000/svg" xmlns:ev="http://www.w3.org/2001/xml-events" xmlns:xlink="http://www.w3.org/1999/xlink"><defs /><path d="M2340 1071Q2340 996 2311.0 939.0Q2282 882 2232.5 839.0Q2183 796 2116.5 765.5Q2050 735 1975.0 715.0Q1900 695 1821.0 683.5Q1742 672 1666.5 666.5Q1591 661 1524.0 659.5Q1457 658 1406 658Q1314 658 1223.5 664.5Q1133 671 1042 686Q993 694 932.0 707.5Q871 721 808.0 742.5Q745 764 684.5 794.5Q624 825 577.0 865.0Q530 905 501.0 956.0Q472 1007 472 1071Q472 1118 503.5 1156.5Q535 1195 585.0 1226.0Q635 1257 696.5 1280.5Q758 1304 819.0 1321.5Q880 1339 933.5 1349.5Q987 1360 1020 1365Q1117 1380 1213.0 1387.0Q1309 1394 1406 1394Q1503 1394 1599.0 1387.0Q1695 1380 1792 1365Q1825 1360 1878.5 1349.5Q1932 1339 1993.0 1321.5Q2054 1304 2115.5 1280.5Q2177 1257 2227.0 1226.0Q2277 1195 2308.5 1156.5Q2340 1118 2340 1071Z" style="fill:#d48c00;stroke:none" transform="scale(1,-1) translate(0,-256)" /></svg>