<?xml version="1.0" encoding="utf-8" ?>
<svg baseProfile="full" height="256" version="1.1" width="256" xmlns="http://www.w3.org/2000/svg" xmlns:ev="http://www.w3.org/2001/xml-events" xmlns:xlink="http://www.w3.org/1999/xlink"><defs /><path d="M1765 1295Q1804 1295 1840.0 1308.5Q1876 1322 1904.5 1346.0Q1933 1370 1952.5 1403.0Q1972 1436 1978 1475Q1981 1457 1981 1439Q1981 1394 1964.0 1355.0Q1947 1316 1917.5 1286.5Q1888 1257 1849.0 1240.0Q1810 1223 1765 1223Q1752 1223 1739.5 1225.0Q1727 1227 1715 1230Q1684 1193 1641.0 1172.0Q1598 1151 1550 1151Q1510 1151 1472.5 1166.0Q1435 1181 1406 1207Q1377 1181 1339.5 1166.0Q1302 1151 1262 1151Q1214 1151 1171.0 1172.0Q1128 1193 1097 1230Q1085 1227 1072.5 1225.0Q1060 1223 1047 1223Q1002 1223 963.0 1240.0Q924 1257 894.5 1286.5Q865 1316 848.0 1355.0Q831 1394 831 1439Q831 1457 834 1475Q840 1436 859.5 1403.0Q879 1370 907.5 1346.0Q936 1322 972.0 1308.5Q1008 1295 1047 1295Q1060 1295 1072.5 1297.0Q1085 1299 1097 1302Q1128 1265 1171.0 1244.0Q1214 1223 1262 1223Q1302 1223 1339.5 1238.0Q1377 1253 1406 1279Q1435 1253 1472.5 1238.0Q1510 1223 1550 1223Q1598 1223 1641.0 1244.0Q1684 1265 1715 1302Q1727 1299 1739.5 1297.0Q1752 1295 1765 1295Z" style="fill:#757575;stroke:none" transform="scale(1,-1) translate(0,-256)" /></svg>