<?xml version="1.0" encoding="utf-8" ?>
<svg baseProfile="full" height="256" version="1.1" width="256" xmlns="http://www.w3.org/2000/svg" xmlns:ev="http://www.w3.org/2001/xml-events" xmlns:xlink="http://www.w3.org/1999/xlink"><defs /><path d="M1765 1654Q1802 1654 1838.5 1640.5Q1875 1627 1904.5 1603.0Q1934 1579 1953.5 1546.5Q1973 1514 1978 1475V1467Q1978 1455 1974.5 1442.5Q1971 1430 1970 1417L1964 1404Q1946 1367 1930.0 1338.5Q1914 1310 1893.0 1290.5Q1872 1271 1842.0 1261.0Q1812 1251 1765 1251Q1739 1251 1715 1257Q1685 1220 1641.5 1200.0Q1598 1180 1550 1180Q1510 1180 1472.5 1194.0Q1435 1208 1406 1234Q1377 1208 1339.5 1194.0Q1302 1180 1262 1180Q1214 1180 1170.5 1200.5Q1127 1221 1096 1257Q1072 1251 1047 1251Q1012 1251 984.0 1257.0Q956 1263 933.5 1276.5Q911 1290 893.0 1312.0Q875 1334 860 1366Q854 1377 848.0 1390.5Q842 1404 839 1417Q836 1428 835.0 1443.0Q834 1458 834 1470V1475Q841 1514 860.0 1547.0Q879 1580 907.5 1603.5Q936 1627 971.5 1640.5Q1007 1654 1047 1654Q1060 1654 1072.5 1651.0Q1085 1648 1097 1648H1715Q1727 1648 1739.5 1651.0Q1752 1654 1765 1654Z" style="fill:#cccccc;stroke:none" transform="scale(1,-1) translate(0,-256)" /></svg>