<?xml version="1.0" encoding="utf-8" ?>
<svg baseProfile="full" height="256" version="1.1" width="256" xmlns="http://www.w3.org/2000/svg" xmlns:ev="http://www.w3.org/2001/xml-events" xmlns:xlink="http://www.w3.org/1999/xlink"><defs /><path d="M2340 1071Q2340 1079 2339.0 1088.5Q2338 1098 2335 1106Q2374 1014 2393.0 917.0Q2412 820 2412 720Q2412 581 2376.0 452.5Q2340 324 2274.5 212.0Q2209 100 2117.5 8.5Q2026 -83 1914.0 -148.5Q1802 -214 1673.5 -250.0Q1545 -286 1406 -286Q1267 -286 1138.5 -250.0Q1010 -214 898.0 -148.5Q786 -83 694.5 8.5Q603 100 537.5 212.0Q472 324 436.0 452.5Q400 581 400 720Q400 821 419.5 919.0Q439 1017 478 1111Q474 1100 473.0 1090.5Q472 1081 472 1071Q472 1021 507.0 980.5Q542 940 597.0 908.0Q652 876 720.5 852.0Q789 828 855.5 811.0Q922 794 980.0 783.5Q1038 773 1073 769Q1156 758 1239.0 752.5Q1322 747 1406 747Q1490 747 1573.0 752.5Q1656 758 1739 769Q1774 773 1832.0 783.5Q1890 794 1956.5 811.0Q2023 828 2091.5 852.0Q2160 876 2215.0 908.0Q2270 940 2305.0 980.5Q2340 1021 2340 1071Z" style="fill:#ffc83d;stroke:none" transform="scale(1,-1) translate(0,-256)" /></svg>