<?xml version="1.0" encoding="utf-8" ?>
<svg baseProfile="full" height="256" version="1.1" width="256" xmlns="http://www.w3.org/2000/svg" xmlns:ev="http://www.w3.org/2001/xml-events" xmlns:xlink="http://www.w3.org/1999/xlink"><defs /><path d="M1406 658Q1365 658 1304.0 660.0Q1243 662 1170.5 667.5Q1098 673 1019.0 684.0Q940 695 864.0 712.5Q788 730 719.5 756.5Q651 783 599.0 819.5Q547 856 516.5 903.5Q486 951 486 1013Q486 1053 522.0 1086.5Q558 1120 613.5 1146.5Q669 1173 736.5 1193.5Q804 1214 867.5 1229.5Q931 1245 983.0 1255.0Q1035 1265 1059 1271Q1231 1295 1406 1295Q1494 1295 1580.0 1289.0Q1666 1283 1753 1270Q1793 1264 1845.5 1254.0Q1898 1244 1955.0 1229.0Q2012 1214 2069.5 1193.5Q2127 1173 2177.0 1146.5Q2227 1120 2266.5 1087.0Q2306 1054 2326 1014V1013Q2326 949 2295.5 900.0Q2265 851 2214.0 814.0Q2163 777 2094.5 751.0Q2026 725 1950.5 708.0Q1875 691 1796.5 681.0Q1718 671 1645.0 666.0Q1572 661 1510.0 659.5Q1448 658 1406 658Z" style="fill:#1f1f1f;stroke:none" transform="scale(1,-1) translate(0,-256)" /></svg>