<?xml version="1.0" encoding="utf-8" ?>
<svg baseProfile="full" height="256" version="1.1" width="256" xmlns="http://www.w3.org/2000/svg" xmlns:ev="http://www.w3.org/2001/xml-events" xmlns:xlink="http://www.w3.org/1999/xlink"><defs /><path d="M1550 988Q1583 968 1602.5 935.0Q1622 902 1622 864Q1622 834 1610.5 808.0Q1599 782 1579.5 762.5Q1560 743 1534.0 731.5Q1508 720 1478 720Q1441 720 1406 739Q1371 720 1334 720Q1304 720 1278.0 731.5Q1252 743 1232.5 762.5Q1213 782 1201.5 808.0Q1190 834 1190 864Q1190 902 1209.5 935.0Q1229 968 1262 988V1295Q1262 1325 1283.0 1346.0Q1304 1367 1334 1367Q1364 1367 1385.0 1346.0Q1406 1325 1406 1295Q1406 1325 1427.0 1346.0Q1448 1367 1478 1367Q1508 1367 1529.0 1346.0Q1550 1325 1550 1295Z" style="fill:#a6a6a6;stroke:none" transform="scale(1,-1) translate(0,-256)" /></svg>