<?xml version="1.0" encoding="utf-8" ?>
<svg baseProfile="full" height="256" version="1.1" width="256" xmlns="http://www.w3.org/2000/svg" xmlns:ev="http://www.w3.org/2001/xml-events" xmlns:xlink="http://www.w3.org/1999/xlink"><defs /><path d="M1011 647Q1033 647 1053.0 638.5Q1073 630 1087.0 615.0Q1101 600 1109.5 580.5Q1118 561 1118 539V396Q1118 374 1109.5 354.5Q1101 335 1087.0 320.0Q1073 305 1053.0 296.5Q1033 288 1011 288Q988 288 968.5 296.5Q949 305 934.5 319.5Q920 334 911.5 353.5Q903 373 903 396V539Q903 561 911.5 581.0Q920 601 934.5 615.5Q949 630 968.5 638.5Q988 647 1011 647ZM1801 647Q1823 647 1843.0 638.5Q1863 630 1877.5 615.5Q1892 601 1900.5 581.0Q1909 561 1909 539V396Q1909 373 1900.5 353.5Q1892 334 1877.5 319.5Q1863 305 1843.0 296.5Q1823 288 1801 288Q1779 288 1759.5 296.5Q1740 305 1725.0 320.0Q1710 335 1701.5 354.5Q1693 374 1693 396V539Q1693 561 1701.5 580.5Q1710 600 1725.0 615.0Q1740 630 1759.5 638.5Q1779 647 1801 647ZM1406 216Q1451 216 1490.0 199.0Q1529 182 1558.0 152.5Q1587 123 1604.0 84.0Q1621 45 1621 0Q1621 -45 1604.0 -84.0Q1587 -123 1558.0 -152.0Q1529 -181 1490.0 -198.0Q1451 -215 1406 -215Q1361 -215 1322.0 -198.0Q1283 -181 1253.5 -152.0Q1224 -123 1207.0 -84.0Q1190 -45 1190 0Q1190 45 1207.0 84.0Q1224 123 1253.5 152.5Q1283 182 1322.0 199.0Q1361 216 1406 216Z" style="fill:#000000;stroke:none" transform="scale(1,-1) translate(0,-256)" /></svg>