<?xml version="1.0" encoding="utf-8" ?>
<svg baseProfile="full" height="256" version="1.1" width="256" xmlns="http://www.w3.org/2000/svg" xmlns:ev="http://www.w3.org/2001/xml-events" xmlns:xlink="http://www.w3.org/1999/xlink"><defs /><path d="M1262 1582Q1193 1582 1137.5 1542.5Q1082 1503 1059 1438Q1047 1472 1047 1510Q1047 1555 1064.0 1594.0Q1081 1633 1110.0 1662.0Q1139 1691 1178.0 1708.0Q1217 1725 1262 1725Q1302 1725 1339.5 1710.5Q1377 1696 1406 1670Q1435 1696 1472.5 1710.5Q1510 1725 1550 1725Q1595 1725 1634.0 1708.0Q1673 1691 1702.0 1662.0Q1731 1633 1748.0 1594.0Q1765 1555 1765 1510Q1765 1472 1753 1438Q1730 1503 1674.5 1542.5Q1619 1582 1550 1582Q1510 1582 1472.5 1568.0Q1435 1554 1406 1528Q1377 1554 1339.5 1568.0Q1302 1582 1262 1582ZM1478 864Q1508 864 1534.0 852.5Q1560 841 1579.5 821.5Q1599 802 1610.5 776.0Q1622 750 1622 720Q1622 690 1610.5 664.0Q1599 638 1579.5 618.5Q1560 599 1534.0 587.5Q1508 576 1478 576Q1441 576 1406 595Q1371 576 1334 576Q1304 576 1278.0 587.5Q1252 599 1232.5 618.5Q1213 638 1201.5 664.0Q1190 690 1190 720Q1190 750 1201.5 776.0Q1213 802 1232.5 821.5Q1252 841 1278.0 852.5Q1304 864 1334 864V1203L1405 1245L1478 1203Z" style="fill:#e5e5e5;stroke:none" transform="scale(1,-1) translate(0,-256)" /></svg>