<?xml version="1.0" encoding="utf-8" ?>
<svg baseProfile="full" height="256" version="1.1" width="256" xmlns="http://www.w3.org/2000/svg" xmlns:ev="http://www.w3.org/2001/xml-events" xmlns:xlink="http://www.w3.org/1999/xlink"><defs /><path d="M1262 -72Q1262 -117 1245.0 -156.0Q1228 -195 1199.0 -224.0Q1170 -253 1131.0 -270.0Q1092 -287 1047 -287Q1002 -287 963.0 -270.0Q924 -253 894.5 -224.0Q865 -195 848.0 -156.0Q831 -117 831 -72V1510Q831 1553 815.0 1591.5Q799 1630 771.0 1659.0Q743 1688 705.0 1705.5Q667 1723 624 1725H1981Q2026 1725 2065.0 1708.0Q2104 1691 2133.5 1662.0Q2163 1633 2180.0 1594.0Q2197 1555 2197 1510V-72Z" style="fill:#f7d7c4;stroke:none" transform="scale(1,-1) translate(0,-256)" /></svg>