<?xml version="1.0" encoding="utf-8" ?>
<svg baseProfile="full" height="256" version="1.1" width="256" xmlns="http://www.w3.org/2000/svg" xmlns:ev="http://www.w3.org/2001/xml-events" xmlns:xlink="http://www.w3.org/1999/xlink"><defs /><path d="M2196 -72H2412Q2412 -117 2395.0 -156.0Q2378 -195 2349.0 -224.0Q2320 -253 2281.0 -270.0Q2242 -287 2197 -287H1047V-256Q1047 -220 1049.0 -180.5Q1051 -141 1061.0 -104.0Q1071 -67 1092.5 -37.0Q1114 -7 1153 8Q1167 13 1188.0 18.0Q1209 23 1223 23H2090ZM642 1725Q660 1725 678.5 1722.5Q697 1720 715 1717Q759 1709 797.5 1694.5Q836 1680 864.5 1655.5Q893 1631 909.0 1595.5Q925 1560 925 1510H400Q400 1555 417.0 1594.0Q434 1633 463.0 1662.0Q492 1691 531.0 1708.0Q570 1725 615 1725Z" style="fill:#d8b094;stroke:none" transform="scale(1,-1) translate(0,-256)" /></svg>