<?xml version="1.0" encoding="utf-8" ?>
<svg baseProfile="full" height="256" version="1.1" width="256" xmlns="http://www.w3.org/2000/svg" xmlns:ev="http://www.w3.org/2001/xml-events" xmlns:xlink="http://www.w3.org/1999/xlink"><defs /><path d="M1616 1143 1382 288H1221L1058 886Q1048 926 1046 970Q1042 949 1038.0 928.0Q1034 907 1029 887L865 288H701L462 1143H618L773 517Q778 497 780.5 476.0Q783 455 785 434Q788 456 793.5 476.5Q799 497 805 517L980 1143H1126L1288 512Q1293 493 1296.0 474.5Q1299 456 1301 436Q1305 456 1308.5 475.0Q1312 494 1317 514L1469 1143ZM2306 323Q2250 294 2189.5 283.5Q2129 273 2066 273Q1971 273 1895.0 304.5Q1819 336 1765.5 393.0Q1712 450 1683.5 528.0Q1655 606 1655 699Q1655 798 1687.0 882.0Q1719 966 1777.0 1027.5Q1835 1089 1917.0 1123.5Q1999 1158 2100 1158Q2153 1158 2205.0 1150.5Q2257 1143 2306 1122V982Q2262 1008 2214.0 1020.5Q2166 1033 2115 1033Q2043 1033 1985.0 1008.5Q1927 984 1887.0 940.5Q1847 897 1825.5 837.0Q1804 777 1804 707Q1804 640 1823.5 583.0Q1843 526 1880.5 485.0Q1918 444 1972.0 420.5Q2026 397 2096 397Q2152 397 2205.0 411.0Q2258 425 2306 455Z" style="fill:#ffffff;stroke:none" transform="scale(1,-1) translate(0,-256)" /></svg>