<?xml version="1.0" encoding="utf-8" ?>
<svg baseProfile="full" height="256" version="1.1" width="256" xmlns="http://www.w3.org/2000/svg" xmlns:ev="http://www.w3.org/2001/xml-events" xmlns:xlink="http://www.w3.org/1999/xlink"><defs /><path d="M2053 1078Q2082 1078 2103.5 1056.5Q2125 1035 2125 1006Q2125 970 2096 949L1909 809V611Q1909 589 1900.5 569.5Q1892 550 1877.0 535.0Q1862 520 1842.5 511.5Q1823 503 1801 503Q1779 503 1759.5 511.5Q1740 520 1725.0 535.0Q1710 550 1701.5 569.5Q1693 589 1693 611V791Q1695 808 1701.5 823.0Q1708 838 1722 848L2010 1064Q2029 1078 2053 1078ZM1011 503Q989 503 969.5 511.5Q950 520 935.0 535.0Q920 550 911.5 569.5Q903 589 903 611V809L716 949Q687 970 687 1006Q687 1036 708.0 1057.0Q729 1078 759 1078Q783 1078 802 1064L1090 848Q1117 828 1117 791V611Q1117 589 1108.5 569.5Q1100 550 1085.5 535.0Q1071 520 1051.5 511.5Q1032 503 1011 503ZM1836 360Q1866 360 1887.0 338.0Q1908 316 1908 287Q1908 276 1905.5 268.0Q1903 260 1898 250Q1864 185 1809.5 133.5Q1755 82 1689.5 46.0Q1624 10 1551.0 -9.0Q1478 -28 1406 -28Q1334 -28 1261.0 -9.0Q1188 10 1122.0 46.0Q1056 82 1001.5 133.5Q947 185 913 250Q908 260 905.5 268.0Q903 276 903 287Q903 316 924.0 338.0Q945 360 975 360Q998 360 1010.0 351.0Q1022 342 1036 325Q1050 308 1062.0 290.0Q1074 272 1088 255Q1116 221 1153.0 195.0Q1190 169 1231.5 151.0Q1273 133 1317.5 124.0Q1362 115 1406 115Q1449 115 1493.0 124.5Q1537 134 1579.0 152.0Q1621 170 1658.0 196.0Q1695 222 1723 255Q1737 272 1749.0 290.0Q1761 308 1775 325Q1789 342 1801.0 351.0Q1813 360 1836 360Z" style="fill:#000000;stroke:none" transform="scale(1,-1) translate(0,-256)" /></svg>