<?xml version="1.0" encoding="utf-8" ?>
<svg baseProfile="full" height="256" version="1.1" width="256" xmlns="http://www.w3.org/2000/svg" xmlns:ev="http://www.w3.org/2001/xml-events" xmlns:xlink="http://www.w3.org/1999/xlink"><defs /><path d="M1402 557 1837 360 1693 72V-72Q1693 -110 1674.0 -143.0Q1655 -176 1622 -196Q1615 -188 1606.0 -180.0Q1597 -172 1586 -172Q1582 -172 1577.0 -177.5Q1572 -183 1566.5 -190.5Q1561 -198 1556.5 -205.0Q1552 -212 1550 -215Q1524 -248 1486.0 -267.5Q1448 -287 1406 -287Q1364 -287 1326.0 -267.5Q1288 -248 1262 -215Q1260 -212 1255.0 -204.5Q1250 -197 1245.0 -188.5Q1240 -180 1234.5 -174.0Q1229 -168 1226 -168Q1216 -168 1206.0 -178.0Q1196 -188 1190 -196Q1157 -176 1137.5 -143.0Q1118 -110 1118 -72V72L975 360Z" style="fill:#bad80a;stroke:none" transform="scale(1,-1) translate(0,-256)" /></svg>