<?xml version="1.0" encoding="utf-8" ?>
<svg baseProfile="full" height="256" version="1.1" width="256" xmlns="http://www.w3.org/2000/svg" xmlns:ev="http://www.w3.org/2001/xml-events" xmlns:xlink="http://www.w3.org/1999/xlink"><defs /><path d="M1442 216Q1428 216 1425 230L1353 568H1530L1459 230Q1456 216 1442 216ZM1244 144Q1233 144 1228 154L1096 408Q1108 416 1130.0 427.5Q1152 439 1176.5 450.5Q1201 462 1224.5 471.0Q1248 480 1262 484V162Q1262 154 1257.0 149.0Q1252 144 1244 144ZM1550 557Q1592 545 1634.5 522.5Q1677 500 1716 481L1584 226Q1579 216 1568 216Q1560 216 1555.0 221.0Q1550 226 1550 234ZM1550 0Q1579 0 1600.5 -21.5Q1622 -43 1622 -72V-196Q1587 -215 1550 -215ZM1190 -144Q1190 -114 1211.0 -93.0Q1232 -72 1262 -72V-215Q1225 -215 1190 -196Z" style="fill:#8cbd18;stroke:none" transform="scale(1,-1) translate(0,-256)" /></svg>