<?xml version="1.0" encoding="utf-8" ?>
<svg baseProfile="full" height="256" version="1.1" width="256" xmlns="http://www.w3.org/2000/svg" xmlns:ev="http://www.w3.org/2001/xml-events" xmlns:xlink="http://www.w3.org/1999/xlink"><defs /><path d="M2407 926Q2407 899 2399.0 872.5Q2391 846 2391 820Q2391 792 2380.0 762.5Q2369 733 2355 709Q2330 662 2294.0 620.5Q2258 579 2214.5 546.0Q2171 513 2120.5 492.0Q2070 471 2016 467Q1954 398 1870.5 360.0Q1787 322 1693 322Q1614 322 1539.5 350.5Q1465 379 1406 432Q1346 378 1272.0 350.0Q1198 322 1118 322Q1025 322 941.5 360.0Q858 398 796 467Q743 471 693.0 490.5Q643 510 599.5 540.5Q556 571 520.0 611.0Q484 651 459 697Q445 721 434.5 749.5Q424 778 424 806Q424 836 415.0 866.0Q406 896 406 927V934Q434 1085 545 1185Q552 1269 588.5 1341.5Q625 1414 682.5 1467.0Q740 1520 815.5 1550.5Q891 1581 975 1581Q1026 1581 1074 1569Q1136 1644 1222.5 1684.5Q1309 1725 1406 1725Q1503 1725 1589.5 1684.5Q1676 1644 1738 1569Q1786 1581 1837 1581Q1921 1581 1996.5 1550.5Q2072 1520 2129.5 1467.0Q2187 1414 2223.5 1341.5Q2260 1269 2267 1185Q2378 1085 2406 934Q2406 932 2406.5 930.0Q2407 928 2407 926Z" style="fill:#13a10e;stroke:none" transform="scale(1,-1) translate(0,-256)" /></svg>