<?xml version="1.0" encoding="utf-8" ?>
<svg baseProfile="full" height="256" version="1.1" width="256" xmlns="http://www.w3.org/2000/svg" xmlns:ev="http://www.w3.org/2001/xml-events" xmlns:xlink="http://www.w3.org/1999/xlink"><defs /><path d="M1406 -431Q1347 -431 1293.0 -409.5Q1239 -388 1194 -350Q1146 -337 1106.0 -311.0Q1066 -285 1036.5 -248.5Q1007 -212 991.0 -167.0Q975 -122 975 -72V38L900 187Q852 207 809.0 234.5Q766 262 728 297Q626 315 539.5 367.0Q453 419 390.0 495.0Q327 571 291.5 665.0Q256 759 256 863Q256 972 295.5 1072.5Q335 1173 409 1253Q428 1358 481.0 1444.5Q534 1531 610.5 1593.5Q687 1656 782.5 1690.0Q878 1724 982 1724Q993 1724 1002.5 1724.0Q1012 1724 1023 1723Q1102 1794 1201.0 1831.5Q1300 1869 1406 1869Q1512 1869 1611.0 1831.5Q1710 1794 1789 1723Q1801 1724 1813.0 1724.5Q1825 1725 1837 1725Q1940 1725 2034.5 1689.5Q2129 1654 2205.0 1591.0Q2281 1528 2333.0 1441.5Q2385 1355 2403 1253Q2477 1173 2516.5 1072.5Q2556 972 2556 863Q2556 759 2520.5 665.0Q2485 571 2422.0 495.0Q2359 419 2272.5 367.0Q2186 315 2084 297Q2046 262 2003.0 234.5Q1960 207 1912 187L1837 38V-72Q1837 -110 1827.0 -146.0Q1817 -182 1798.0 -214.5Q1779 -247 1753.0 -274.0Q1727 -301 1694 -320Q1680 -328 1657.5 -338.0Q1635 -348 1618 -350Q1573 -388 1519.0 -409.5Q1465 -431 1406 -431Z" style="fill:#000000;stroke:none" transform="scale(1,-1) translate(0,-256)" /></svg>