<?xml version="1.0" encoding="utf-8" ?>
<svg baseProfile="full" height="256" version="1.1" width="256" xmlns="http://www.w3.org/2000/svg" xmlns:ev="http://www.w3.org/2001/xml-events" xmlns:xlink="http://www.w3.org/1999/xlink"><defs /><path d="M2016 577Q2089 583 2154.5 612.5Q2220 642 2271.5 689.0Q2323 736 2358.5 799.0Q2394 862 2406 934Q2412 899 2412 863Q2412 779 2381.5 703.5Q2351 628 2298.0 570.5Q2245 513 2172.5 476.5Q2100 440 2016 433Q1954 364 1870.5 326.0Q1787 288 1693 288Q1614 288 1539.5 316.5Q1465 345 1406 398Q1346 344 1272.0 316.0Q1198 288 1118 288Q1025 288 941.5 326.0Q858 364 796 433Q712 440 639.5 476.5Q567 513 514.0 570.5Q461 628 430.5 703.5Q400 779 400 863Q400 899 406 934Q418 862 453.0 799.0Q488 736 540.0 689.0Q592 642 657.5 612.5Q723 583 796 577Q858 508 941.5 469.5Q1025 431 1118 431Q1198 431 1272.0 459.5Q1346 488 1406 542Q1465 488 1539.0 459.5Q1613 431 1693 431Q1787 431 1870.5 469.5Q1954 508 2016 577ZM1945 1222Q1960 1222 1970.5 1211.5Q1981 1201 1981 1186Q1981 1171 1970.5 1160.5Q1960 1150 1945 1150Q1930 1150 1919.5 1160.5Q1909 1171 1909 1186Q1909 1201 1919.5 1211.5Q1930 1222 1945 1222ZM1801 1366Q1816 1366 1826.5 1355.5Q1837 1345 1837 1330Q1837 1315 1826.5 1304.5Q1816 1294 1801 1294Q1786 1294 1775.5 1304.5Q1765 1315 1765 1330Q1765 1345 1775.5 1355.5Q1786 1366 1801 1366ZM1945 1366Q1960 1366 1970.5 1355.5Q1981 1345 1981 1330Q1981 1315 1970.5 1304.5Q1960 1294 1945 1294Q1930 1294 1919.5 1304.5Q1909 1315 1909 1330Q1909 1345 1919.5 1355.5Q1930 1366 1945 1366Z" style="fill:#107c10;stroke:none" transform="scale(1,-1) translate(0,-256)" /></svg>