<?xml version="1.0" encoding="utf-8" ?>
<svg baseProfile="full" height="256" version="1.1" width="256" xmlns="http://www.w3.org/2000/svg" xmlns:ev="http://www.w3.org/2001/xml-events" xmlns:xlink="http://www.w3.org/1999/xlink"><defs /><path d="M1550 1222H1837V1006H1406Q1376 1006 1350.0 995.0Q1324 984 1304.5 964.5Q1285 945 1273.5 919.0Q1262 893 1262 863V791H1047V863Q1047 937 1075.5 1002.5Q1104 1068 1152.5 1116.5Q1201 1165 1266.5 1193.5Q1332 1222 1406 1222H1478V1294H1370Q1355 1294 1344.5 1304.5Q1334 1315 1334 1330Q1334 1345 1344.5 1355.5Q1355 1366 1370 1366H1675Q1690 1366 1700.5 1355.5Q1711 1345 1711 1330Q1711 1315 1700.5 1304.5Q1690 1294 1675 1294H1550ZM1262 431V647H1334V144H975V647H1047V431Z" style="fill:#ffffff;stroke:none" transform="scale(1,-1) translate(0,-256)" /></svg>