<?xml version="1.0" encoding="utf-8" ?>
<svg baseProfile="full" height="256" version="1.1" width="256" xmlns="http://www.w3.org/2000/svg" xmlns:ev="http://www.w3.org/2001/xml-events" xmlns:xlink="http://www.w3.org/1999/xlink"><defs /><path d="M1909 863 2197 -287H1981Q1882 -147 1785.0 -8.0Q1688 131 1590 271Q1562 311 1536.0 352.0Q1510 393 1478 431Q1460 453 1439.0 472.0Q1418 491 1398 511L1238 671Q1208 701 1180.5 733.5Q1153 766 1118 791L400 1294V1510L1550 1222ZM1137 231 1046 163 1190 144V-287H1047L903 0L968 105Q895 50 820.5 -3.0Q746 -56 675 -114Q661 -126 646.0 -143.0Q631 -160 614.5 -176.0Q598 -192 580.5 -203.5Q563 -215 543 -215Q514 -215 493.0 -194.0Q472 -173 472 -144Q472 -127 477.0 -116.0Q482 -105 493 -93Q513 -72 534.0 -53.5Q555 -35 573 -13L938 420ZM848 334 687 216 400 360V503H831Z" style="fill:#3a96dd;stroke:none" transform="scale(1,-1) translate(0,-256)" /></svg>