<?xml version="1.0" encoding="utf-8" ?>
<svg baseProfile="full" height="256" version="1.1" width="256" xmlns="http://www.w3.org/2000/svg" xmlns:ev="http://www.w3.org/2001/xml-events" xmlns:xlink="http://www.w3.org/1999/xlink"><defs /><path d="M1837 -287 1406 575 1262 719 400 1150V1294L975 1007Q999 995 1041.0 976.5Q1083 958 1127.0 937.5Q1171 917 1209.0 897.0Q1247 877 1262 863Q1307 820 1350.5 776.0Q1394 732 1439 687Q1467 659 1495.5 631.5Q1524 604 1550 575Q1563 560 1583.0 522.0Q1603 484 1624.0 439.5Q1645 395 1664.0 353.0Q1683 311 1694 288L1981 -287Z" style="fill:#0078d7;stroke:none" transform="scale(1,-1) translate(0,-256)" /></svg>