<?xml version="1.0" encoding="utf-8" ?>
<svg baseProfile="full" height="256" version="1.1" width="256" xmlns="http://www.w3.org/2000/svg" xmlns:ev="http://www.w3.org/2001/xml-events" xmlns:xlink="http://www.w3.org/1999/xlink"><defs /><path d="M256 271V647H772L876 751Q720 829 566.5 907.0Q413 985 256 1061V1694L1137 1473Q1156 1495 1175.5 1514.5Q1195 1534 1216.0 1549.0Q1237 1564 1262.0 1572.5Q1287 1581 1319 1581Q1348 1581 1372.5 1572.5Q1397 1564 1418.5 1550.0Q1440 1536 1459.5 1517.5Q1479 1499 1497 1478Q1511 1462 1521.0 1447.5Q1531 1433 1539 1413L1881 1753Q1997 1869 2161 1869Q2243 1869 2315.0 1838.0Q2387 1807 2440.5 1753.0Q2494 1699 2525.0 1627.0Q2556 1555 2556 1473Q2556 1394 2526.5 1323.0Q2497 1252 2441 1195L2100 852Q2120 844 2134.5 834.0Q2149 824 2165 810Q2186 792 2204.5 772.5Q2223 753 2237.0 731.5Q2251 710 2259.5 685.5Q2268 661 2268 632Q2268 600 2259.5 575.0Q2251 550 2236.0 529.0Q2221 508 2201.5 488.5Q2182 469 2160 450L2381 -431H1748Q1672 -274 1594.0 -120.5Q1516 33 1438 189L1334 85V-431H958Q928 -371 898.0 -312.0Q868 -253 839 -193Q819 -202 798.0 -210.5Q777 -219 760 -232Q741 -246 727.0 -263.0Q713 -280 696 -296Q631 -359 543 -359Q499 -359 459.5 -342.0Q420 -325 391.0 -296.0Q362 -267 345.0 -227.5Q328 -188 328 -144Q328 -57 391 9Q407 26 424.0 40.5Q441 55 455 73Q468 90 476.5 111.0Q485 132 494 152Q434 181 375.0 211.0Q316 241 256 271Z" style="fill:#000000;stroke:none" transform="scale(1,-1) translate(0,-256)" /></svg>