<?xml version="1.0" encoding="utf-8" ?>
<svg baseProfile="full" height="256" version="1.1" width="256" xmlns="http://www.w3.org/2000/svg" xmlns:ev="http://www.w3.org/2001/xml-events" xmlns:xlink="http://www.w3.org/1999/xlink"><defs /><path d="M2160 1725Q2212 1725 2257.5 1705.0Q2303 1685 2337.5 1651.0Q2372 1617 2392.0 1571.5Q2412 1526 2412 1474Q2412 1424 2392.5 1377.5Q2373 1331 2338 1296L1573 528Q1527 482 1480.5 431.0Q1434 380 1386.5 329.5Q1339 279 1290.0 231.0Q1241 183 1190 144Q1179 135 1161.5 126.0Q1144 117 1125.0 108.0Q1106 99 1087.5 90.5Q1069 82 1055 75L808 -47Q775 -64 741.0 -80.0Q707 -96 675 -114L990 201Q1011 222 1011 252Q1011 282 990.0 303.0Q969 324 939 324Q909 324 888 303L573 -12Q591 20 607.0 54.0Q623 88 640 121L762 368Q768 381 777.0 400.0Q786 419 795.0 438.5Q804 458 813.5 475.5Q823 493 831 503Q870 553 917.5 602.0Q965 651 1016.0 699.0Q1067 747 1118.0 794.0Q1169 841 1215 886L1983 1652Q2018 1687 2064.0 1706.0Q2110 1725 2160 1725Z" style="fill:#e5e5e5;stroke:none" transform="scale(1,-1) translate(0,-256)" /></svg>