<?xml version="1.0" encoding="utf-8" ?>
<svg baseProfile="full" height="256" version="1.1" width="256" xmlns="http://www.w3.org/2000/svg" xmlns:ev="http://www.w3.org/2001/xml-events" xmlns:xlink="http://www.w3.org/1999/xlink"><defs /><path d="M759 935Q771 935 783.5 934.0Q796 933 808 933Q823 933 840.5 937.0Q858 941 875.5 946.5Q893 952 909.5 958.0Q926 964 941 969Q980 956 1014.5 944.5Q1049 933 1090 933Q1116 933 1140.5 934.0Q1165 935 1190 935V-72H400V144L440 215L400 287L434 362L400 431Q400 455 409.5 469.5Q419 484 434.0 491.5Q449 499 468.0 501.0Q487 503 506 503H543L722 654V861Z" style="fill:#ffffff;stroke:none" transform="scale(1,-1) translate(0,-256)" /></svg>