<?xml version="1.0" encoding="utf-8" ?>
<svg baseProfile="full" height="256" version="1.1" width="256" xmlns="http://www.w3.org/2000/svg" xmlns:ev="http://www.w3.org/2001/xml-events" xmlns:xlink="http://www.w3.org/1999/xlink"><defs /><path d="M2556 1366V-215H2382Q2361 -264 2327.0 -303.5Q2293 -343 2249.5 -371.5Q2206 -400 2156.0 -415.5Q2106 -431 2053 -431Q1999 -431 1949.0 -415.5Q1899 -400 1856.0 -371.5Q1813 -343 1779.0 -303.5Q1745 -264 1723 -215H1160Q1139 -264 1105.0 -303.5Q1071 -343 1027.5 -371.5Q984 -400 934.0 -415.5Q884 -431 831 -431Q778 -431 728.0 -415.5Q678 -400 634.5 -371.5Q591 -343 557.0 -303.5Q523 -264 502 -215H256V431Q256 473 271.0 510.5Q286 548 313.0 577.5Q340 607 376.0 625.0Q412 643 454 646L759 1222H975V1366Z" style="fill:#000000;stroke:none" transform="scale(1,-1) translate(0,-256)" /></svg>