<?xml version="1.0" encoding="utf-8" ?>
<svg baseProfile="full" height="256" version="1.1" width="256" xmlns="http://www.w3.org/2000/svg" xmlns:ev="http://www.w3.org/2001/xml-events" xmlns:xlink="http://www.w3.org/1999/xlink"><defs /><path d="M2340 72 2376 95 2412 72V-72H2194Q2194 -101 2183.0 -126.5Q2172 -152 2152.5 -171.0Q2133 -190 2107.5 -201.0Q2082 -212 2053 -212Q2024 -212 1998.5 -201.0Q1973 -190 1953.5 -171.0Q1934 -152 1923.0 -126.5Q1912 -101 1912 -72H972Q972 -101 961.0 -126.5Q950 -152 930.5 -171.0Q911 -190 885.5 -201.0Q860 -212 831 -212Q802 -212 776.5 -201.0Q751 -190 731.5 -171.0Q712 -152 701.0 -126.5Q690 -101 690 -72H400V72H582Q621 139 687.0 177.5Q753 216 831 216Q909 216 975.0 177.5Q1041 139 1080 72H1804Q1823 105 1850.0 132.0Q1877 159 1909.0 177.5Q1941 196 1977.5 206.0Q2014 216 2053 216Q2131 216 2197.0 177.5Q2263 139 2302 72ZM1047 935H831V1006L936 1042L1047 1006Z" style="fill:#e5e5e5;stroke:none" transform="scale(1,-1) translate(0,-256)" /></svg>