<?xml version="1.0" encoding="utf-8" ?>
<svg baseProfile="full" height="256" version="1.1" width="256" xmlns="http://www.w3.org/2000/svg" xmlns:ev="http://www.w3.org/2001/xml-events" xmlns:xlink="http://www.w3.org/1999/xlink"><defs /><path d="M1868 575V360H2227V288H502V360H1796V575ZM502 72H2227V0H933V-215H862V0H502ZM1652 1222 1365 1150 1005 1366 1293 1438ZM790 1006 430 1222 718 1294 1077 1078ZM2227 1366 1940 1294 1580 1510 1868 1581ZM1652 647 1940 935H2227L1940 647ZM502 647 790 935H1077L790 647ZM1652 935 1365 647H1077L1365 935Z" style="fill:#f2f2f2;stroke:none" transform="scale(1,-1) translate(0,-256)" /></svg>