<?xml version="1.0" encoding="utf-8" ?>
<svg baseProfile="full" height="256" version="1.1" width="256" xmlns="http://www.w3.org/2000/svg" xmlns:ev="http://www.w3.org/2001/xml-events" xmlns:xlink="http://www.w3.org/1999/xlink"><defs /><path d="M1827 707 1940 647H2227V360L2179 322L2227 288V72L2179 34L2227 0V-215Q2227 -245 2206.0 -266.0Q2185 -287 2155 -287H574Q545 -287 523.5 -265.5Q502 -244 502 -215V0L553 37L502 72V288L553 325L502 360V647L661 707L790 647H1077L1231 707L1365 647H1652Q1652 647 1664.0 651.0Q1676 655 1694.0 661.0Q1712 667 1733.0 674.5Q1754 682 1773.0 688.5Q1792 695 1807.0 700.0Q1822 705 1827 707ZM646 1078Q616 1078 590.0 1067.0Q564 1056 544.5 1036.5Q525 1017 513.5 991.0Q502 965 502 935L430 1222Q474 1216 516.5 1207.0Q559 1198 603 1198Q635 1198 669.0 1209.0Q703 1220 735 1225L718 1294L1005 1366Q1048 1360 1090.5 1351.5Q1133 1343 1177 1343Q1209 1343 1243.0 1354.0Q1277 1365 1309 1370L1293 1438L1580 1510Q1623 1505 1665.0 1496.0Q1707 1487 1751 1487Q1783 1487 1817.0 1498.0Q1851 1509 1883 1514L1868 1581L2155 1653L2227 1366L2093 1391L1940 1349V1294L1652 1222L1525 1246L1363 1216V1150L1077 1078L957 1108L675 1075Q666 1075 659.5 1076.5Q653 1078 646 1078ZM646 1006Q675 1006 696.5 985.0Q718 964 718 935Q718 905 697.0 884.0Q676 863 646 863Q616 863 595.0 884.0Q574 905 574 935Q574 964 595.5 985.0Q617 1006 646 1006Z" style="fill:#383838;stroke:none" transform="scale(1,-1) translate(0,-256)" /></svg>