<?xml version="1.0" encoding="utf-8" ?>
<svg baseProfile="full" height="256" version="1.1" width="256" xmlns="http://www.w3.org/2000/svg" xmlns:ev="http://www.w3.org/2001/xml-events" xmlns:xlink="http://www.w3.org/1999/xlink"><defs /><path d="M1586 144Q1586 155 1581 167L1615 209L1565 195Q1544 216 1514 216L1485 205L1478 216H1460L1481 360H1514Q1557 360 1594.0 340.0Q1631 320 1657 287L1623 215L1691 203Q1692 197 1692.5 191.5Q1693 186 1693 180Q1693 133 1670 92L1621 89L1581 121Q1586 133 1586 144ZM1154 1222Q1154 1211 1159 1199L1124 1156L1175 1171Q1196 1150 1226 1150L1255 1161L1262 1150H1280L1259 1006H1226Q1183 1006 1146.0 1026.0Q1109 1046 1083 1079L1117 1150L1049 1163Q1048 1169 1047.5 1174.5Q1047 1180 1047 1186Q1047 1209 1053.5 1231.5Q1060 1254 1071 1274L1119 1277L1159 1245Q1154 1233 1154 1222ZM1442 1114Q1464 1114 1483.5 1105.5Q1503 1097 1518.0 1082.0Q1533 1067 1541.5 1047.5Q1550 1028 1550 1006Q1550 984 1541.5 964.5Q1533 945 1518.0 930.5Q1503 916 1483.5 907.5Q1464 899 1442 899H1280Q1192 899 1112.5 939.5Q1033 980 979 1049Q975 1054 975 1061Q975 1078 993 1078Q999 1078 1020.5 1055.5Q1042 1033 1078.0 1006.5Q1114 980 1164.5 957.5Q1215 935 1280 935H1442Q1471 935 1492.5 956.0Q1514 977 1514 1006Q1514 1036 1493.0 1057.0Q1472 1078 1442 1078ZM1298 252Q1276 252 1256.5 260.5Q1237 269 1222.0 284.0Q1207 299 1198.5 318.5Q1190 338 1190 360Q1190 382 1198.5 401.5Q1207 421 1222.0 435.5Q1237 450 1256.5 458.5Q1276 467 1298 467H1460Q1551 467 1628.0 426.5Q1705 386 1761 317Q1765 312 1765 306Q1765 288 1747 288Q1741 288 1719.5 310.5Q1698 333 1662.0 359.5Q1626 386 1575.5 408.5Q1525 431 1460 431H1298Q1269 431 1247.5 410.0Q1226 389 1226 360Q1226 330 1247.0 309.0Q1268 288 1298 288ZM1514 72Q1544 72 1565 93L1617 79L1621 37Q1598 20 1570.5 10.0Q1543 0 1514 0L1474 42ZM1226 1294Q1196 1294 1175 1273L1123 1287L1119 1329Q1142 1346 1169.5 1356.0Q1197 1366 1226 1366L1266 1324Z" style="fill:#f7b189;stroke:none" transform="scale(1,-1) translate(0,-256)" /></svg>