<?xml version="1.0" encoding="utf-8" ?>
<svg baseProfile="full" height="256" version="1.1" width="256" xmlns="http://www.w3.org/2000/svg" xmlns:ev="http://www.w3.org/2001/xml-events" xmlns:xlink="http://www.w3.org/1999/xlink"><defs /><path d="M2412 1384Q2412 1355 2399.5 1330.5Q2387 1306 2368.0 1284.5Q2349 1263 2327.0 1243.0Q2305 1223 2287 1205Q2350 1093 2381.0 970.0Q2412 847 2412 719Q2412 580 2376.0 451.5Q2340 323 2274.5 211.0Q2209 99 2117.5 7.5Q2026 -84 1914.0 -149.5Q1802 -215 1673.5 -251.0Q1545 -287 1406 -287Q1278 -287 1155.0 -256.0Q1032 -225 920 -162Q902 -181 882.0 -203.0Q862 -225 840.5 -243.5Q819 -262 794.0 -274.5Q769 -287 741 -287Q687 -287 649 -249L438 -38Q400 0 400 54Q400 82 412.5 107.0Q425 132 443.5 153.5Q462 175 484.0 195.0Q506 215 525 233Q462 345 431.0 468.0Q400 591 400 719Q400 858 436.0 986.5Q472 1115 537.5 1227.0Q603 1339 694.5 1430.5Q786 1522 898.0 1587.5Q1010 1653 1138.5 1689.0Q1267 1725 1406 1725Q1534 1725 1657.0 1694.0Q1780 1663 1892 1600Q1910 1618 1930.0 1640.0Q1950 1662 1971.5 1681.0Q1993 1700 2017.5 1712.5Q2042 1725 2071 1725Q2097 1725 2121.0 1715.0Q2145 1705 2163 1687L2374 1476Q2392 1458 2402.0 1434.0Q2412 1410 2412 1384ZM687 -165Q702 -165 713 -154L790 -77Q689 2 610 103L533 26Q522 15 522 0Q522 -14 533 -25L662 -154Q673 -165 687 -165ZM2289 1437Q2289 1453 2279 1463L2150 1592Q2140 1602 2124 1602Q2109 1602 2099 1592L2022 1515Q2122 1435 2202 1335L2279 1412Q2289 1422 2289 1437Z" style="fill:#383838;stroke:none" transform="scale(1,-1) translate(0,-256)" /></svg>