<?xml version="1.0" encoding="utf-8" ?>
<svg baseProfile="full" height="256" version="1.1" width="256" xmlns="http://www.w3.org/2000/svg" xmlns:ev="http://www.w3.org/2001/xml-events" xmlns:xlink="http://www.w3.org/1999/xlink"><defs /><path d="M903 719Q932 719 953.5 697.5Q975 676 975 647Q975 618 953.5 596.5Q932 575 903 575Q873 575 852.0 596.0Q831 617 831 647Q831 677 852.0 698.0Q873 719 903 719ZM1981 1006Q2010 1006 2031.5 985.0Q2053 964 2053 935Q2053 905 2032.0 884.0Q2011 863 1981 863Q1951 863 1930.0 884.0Q1909 905 1909 935Q1909 964 1930.5 985.0Q1952 1006 1981 1006ZM1909 431Q1938 431 1959.5 410.0Q1981 389 1981 360Q1981 330 1960.0 309.0Q1939 288 1909 288Q1879 288 1858.0 309.0Q1837 330 1837 360Q1837 389 1858.5 410.0Q1880 431 1909 431Z" style="fill:#107c10;stroke:none" transform="scale(1,-1) translate(0,-256)" /></svg>