<?xml version="1.0" encoding="utf-8" ?>
<svg baseProfile="full" height="256" version="1.1" width="256" xmlns="http://www.w3.org/2000/svg" xmlns:ev="http://www.w3.org/2001/xml-events" xmlns:xlink="http://www.w3.org/1999/xlink"><defs /><path d="M1406 -431Q1288 -431 1173.0 -407.5Q1058 -384 949 -336Q911 -382 856.0 -406.5Q801 -431 741 -431Q686 -431 636.0 -410.5Q586 -390 547 -351L336 -140Q297 -101 276.5 -51.0Q256 -1 256 54Q256 114 280.5 169.0Q305 224 351 262Q303 371 279.5 486.0Q256 601 256 719Q256 877 297.0 1024.0Q338 1171 413.0 1299.0Q488 1427 593.0 1532.0Q698 1637 826.0 1712.0Q954 1787 1100.5 1828.0Q1247 1869 1406 1869Q1524 1869 1639.0 1845.5Q1754 1822 1863 1774Q1901 1819 1957.0 1844.0Q2013 1869 2071 1869Q2125 1869 2175.5 1848.0Q2226 1827 2264 1789L2476 1577Q2514 1539 2535.0 1488.5Q2556 1438 2556 1384Q2556 1326 2531.0 1270.0Q2506 1214 2461 1176Q2509 1067 2532.5 952.0Q2556 837 2556 719Q2556 560 2515.0 413.5Q2474 267 2399.0 139.0Q2324 11 2219.0 -94.0Q2114 -199 1986.0 -274.0Q1858 -349 1711.0 -390.0Q1564 -431 1406 -431Z" style="fill:#000000;stroke:none" transform="scale(1,-1) translate(0,-256)" /></svg>