<?xml version="1.0" encoding="utf-8" ?>
<svg baseProfile="full" height="256" version="1.1" width="256" xmlns="http://www.w3.org/2000/svg" xmlns:ev="http://www.w3.org/2001/xml-events" xmlns:xlink="http://www.w3.org/1999/xlink"><defs /><path d="M903 935Q933 935 959.0 923.5Q985 912 1004.5 892.5Q1024 873 1035.5 847.0Q1047 821 1047 791H759Q759 821 770.5 847.0Q782 873 801.5 892.5Q821 912 847.0 923.5Q873 935 903 935ZM1837 1222Q1867 1222 1893.0 1210.5Q1919 1199 1938.5 1179.5Q1958 1160 1969.5 1134.0Q1981 1108 1981 1078H1693Q1693 1108 1704.5 1134.0Q1716 1160 1735.5 1179.5Q1755 1199 1781.0 1210.5Q1807 1222 1837 1222ZM1334 719Q1364 719 1390.0 707.5Q1416 696 1435.5 676.5Q1455 657 1466.5 631.0Q1478 605 1478 575H1190Q1190 605 1201.5 631.0Q1213 657 1232.5 676.5Q1252 696 1278.0 707.5Q1304 719 1334 719Z" style="fill:#ffd679;stroke:none" transform="scale(1,-1) translate(0,-256)" /></svg>