<?xml version="1.0" encoding="utf-8" ?>
<svg baseProfile="full" height="256" version="1.1" width="256" xmlns="http://www.w3.org/2000/svg" xmlns:ev="http://www.w3.org/2001/xml-events" xmlns:xlink="http://www.w3.org/1999/xlink"><defs /><path d="M795 360Q781 360 770.0 370.5Q759 381 759 395Q759 410 770 421L841 493Q851 503 867 503Q881 503 891.5 492.0Q902 481 902 467Q902 452 892 442L820 370Q810 360 795 360ZM1550 755Q1550 740 1539.0 729.0Q1528 718 1513 718Q1499 718 1488 729L1416 801Q1405 812 1405 826Q1405 842 1416.0 852.0Q1427 862 1442 862Q1457 862 1467 852L1539 780Q1550 769 1550 755ZM2017 575Q2002 575 1991 586L1920 658Q1909 669 1909 683Q1909 697 1920.0 707.5Q1931 718 1945 718Q1960 718 1970 708L2042 637Q2052 627 2052 611Q2052 597 2041.5 586.0Q2031 575 2017 575Z" style="fill:#eba300;stroke:none" transform="scale(1,-1) translate(0,-256)" /></svg>