<?xml version="1.0" encoding="utf-8" ?>
<svg baseProfile="full" height="256" version="1.1" width="256" xmlns="http://www.w3.org/2000/svg" xmlns:ev="http://www.w3.org/2001/xml-events" xmlns:xlink="http://www.w3.org/1999/xlink"><defs /><path d="M759 1042Q759 1057 770 1068L841 1140Q851 1150 867 1150Q881 1150 891.5 1139.0Q902 1128 902 1114Q902 1099 892 1089L820 1017Q809 1006 795 1006Q781 1006 770.0 1017.0Q759 1028 759 1042ZM1550 1258Q1550 1273 1560 1283L1632 1355Q1642 1365 1657 1365Q1671 1365 1682.0 1354.5Q1693 1344 1693 1330Q1693 1314 1683 1304L1611 1233Q1600 1222 1585 1222Q1571 1222 1560.5 1233.0Q1550 1244 1550 1258ZM1154 72Q1140 72 1129 83L1057 154Q1046 165 1046 180Q1046 194 1057.0 204.5Q1068 215 1082 215Q1098 215 1108 205L1180 133Q1190 123 1190 108Q1190 94 1179.0 83.0Q1168 72 1154 72ZM1622 539Q1622 555 1632 565L1704 637Q1714 647 1729 647Q1744 647 1754.5 636.5Q1765 626 1765 611Q1765 596 1755 586L1683 514Q1672 503 1657 503Q1643 503 1632.5 514.0Q1622 525 1622 539Z" style="fill:#ffc83d;stroke:none" transform="scale(1,-1) translate(0,-256)" /></svg>