<?xml version="1.0" encoding="utf-8" ?>
<svg baseProfile="full" height="256" version="1.1" width="256" xmlns="http://www.w3.org/2000/svg" xmlns:ev="http://www.w3.org/2001/xml-events" xmlns:xlink="http://www.w3.org/1999/xlink"><defs /><path d="M1442 1114 1478 1078Q1451 1046 1414.0 1026.0Q1377 1006 1334 1006H1259Q1248 1006 1236.0 1010.0Q1224 1014 1213.5 1021.0Q1203 1028 1196.5 1038.0Q1190 1048 1190 1060Q1190 1070 1193.5 1077.0Q1197 1084 1203 1091Q1215 1104 1224.0 1115.0Q1233 1126 1243.0 1133.5Q1253 1141 1266.0 1145.5Q1279 1150 1298 1150L1334 1186V1258H1370V1186L1334 1150H1370L1442 1222V1186L1406 1150H1478ZM1298 252 1262 288Q1289 320 1326.0 340.0Q1363 360 1406 360H1481Q1492 360 1504.0 356.0Q1516 352 1526.5 345.0Q1537 338 1543.5 328.0Q1550 318 1550 306Q1550 296 1546.5 289.0Q1543 282 1537 275Q1525 262 1516.0 251.5Q1507 241 1497.0 233.0Q1487 225 1474.0 220.5Q1461 216 1442 216L1406 180V108H1370V180L1406 216H1370L1298 144V180L1334 216H1262ZM1159 1199Q1162 1191 1166.0 1184.0Q1170 1177 1175 1171L1083 1079Q1069 1098 1060.5 1119.0Q1052 1140 1049 1163ZM1581 167Q1578 175 1574.0 182.0Q1570 189 1565 195L1657 287Q1685 248 1691 203ZM1334 1366Q1334 1336 1313.0 1315.0Q1292 1294 1262 1294H1226V1366ZM1406 0Q1406 30 1427.0 51.0Q1448 72 1478 72H1514V0ZM1670 92Q1660 76 1648.0 62.0Q1636 48 1621 37L1565 93Q1570 99 1574.0 106.0Q1578 113 1581 121ZM1071 1274Q1080 1290 1092.0 1304.0Q1104 1318 1119 1329L1175 1273Q1170 1267 1166.0 1260.0Q1162 1253 1159 1245ZM1226 1150 1262 1186V1258H1298V1186L1262 1150ZM1514 216 1478 180V108H1442V180L1478 216Z" style="fill:#f7630c;stroke:none" transform="scale(1,-1) translate(0,-256)" /></svg>