<?xml version="1.0" encoding="utf-8" ?>
<svg baseProfile="full" height="256" version="1.1" width="256" xmlns="http://www.w3.org/2000/svg" xmlns:ev="http://www.w3.org/2001/xml-events" xmlns:xlink="http://www.w3.org/1999/xlink"><defs /><path d="M1909 431Q1909 327 1869.5 235.5Q1830 144 1761.5 75.5Q1693 7 1601.5 -32.5Q1510 -72 1406 -72Q1302 -72 1210.5 -32.5Q1119 7 1050.5 75.5Q982 144 942.5 235.5Q903 327 903 431H975V575Q975 635 997.5 687.5Q1020 740 1059.0 779.0Q1098 818 1150.0 840.5Q1202 863 1262 863Q1262 803 1284.5 750.5Q1307 698 1346.0 659.0Q1385 620 1437.5 597.5Q1490 575 1550 575H1837V431ZM831 1 1217 -149Q1237 -157 1249.5 -175.5Q1262 -194 1262 -215Q1262 -245 1241.0 -266.0Q1220 -287 1190 -287H831ZM1550 -215Q1550 -194 1562.5 -175.5Q1575 -157 1595 -149L1981 1V-287H1622Q1592 -287 1571.0 -266.0Q1550 -245 1550 -215Z" style="fill:#ffc83d;stroke:none" transform="scale(1,-1) translate(0,-256)" /></svg>