<?xml version="1.0" encoding="utf-8" ?>
<svg baseProfile="full" height="256" version="1.1" width="256" xmlns="http://www.w3.org/2000/svg" xmlns:ev="http://www.w3.org/2001/xml-events" xmlns:xlink="http://www.w3.org/1999/xlink"><defs /><path d="M1190 360Q1219 360 1240.5 338.5Q1262 317 1262 288V216Q1262 186 1241.0 165.0Q1220 144 1190 144Q1161 144 1140.0 165.5Q1119 187 1119 216V288Q1119 317 1140.0 338.5Q1161 360 1190 360ZM1622 360Q1651 360 1672.5 338.5Q1694 317 1694 288V216Q1694 187 1672.5 165.5Q1651 144 1622 144Q1592 144 1571.0 165.0Q1550 186 1550 216V288Q1550 317 1571.5 338.5Q1593 360 1622 360Z" style="fill:#000000;stroke:none" transform="scale(1,-1) translate(0,-256)" /></svg>