<?xml version="1.0" encoding="utf-8" ?>
<svg baseProfile="full" height="256" version="1.1" width="256" xmlns="http://www.w3.org/2000/svg" xmlns:ev="http://www.w3.org/2001/xml-events" xmlns:xlink="http://www.w3.org/1999/xlink"><defs /><path d="M1909 432Q1952 432 1992.0 415.0Q2032 398 2062 368L2349 81Q2379 51 2395.5 11.0Q2412 -29 2412 -72Q2412 -116 2395.0 -155.0Q2378 -194 2348.5 -223.5Q2319 -253 2280.0 -270.0Q2241 -287 2197 -287H615Q571 -287 531.5 -270.0Q492 -253 463.0 -224.0Q434 -195 417.0 -155.5Q400 -116 400 -72Q400 -29 416.5 11.0Q433 51 463 81L750 368Q780 398 820.0 415.0Q860 432 903 432ZM1098 1208Q1093 1208 1075.0 1213.0Q1057 1218 1032.0 1225.5Q1007 1233 979.0 1242.5Q951 1252 925.5 1261.0Q900 1270 881.0 1277.0Q862 1284 855 1287Q844 1292 837.5 1300.0Q831 1308 831 1322Q831 1329 834.0 1335.0Q837 1341 842 1346L994 1499Q1005 1510 1019 1510Q1033 1510 1041.0 1503.5Q1049 1497 1054 1485Q1057 1478 1064.0 1459.0Q1071 1440 1080.0 1414.5Q1089 1389 1098.0 1361.0Q1107 1333 1115.0 1308.5Q1123 1284 1128.0 1266.0Q1133 1248 1133 1243Q1133 1229 1122.5 1218.5Q1112 1208 1098 1208ZM1714 1208Q1700 1208 1689.5 1218.5Q1679 1229 1679 1243Q1679 1248 1684.0 1266.0Q1689 1284 1697.0 1308.5Q1705 1333 1714.0 1361.0Q1723 1389 1732.0 1414.5Q1741 1440 1748.0 1459.0Q1755 1478 1758 1485Q1763 1497 1771.0 1503.5Q1779 1510 1793 1510Q1807 1510 1818 1499L1970 1346Q1981 1335 1981 1321Q1981 1298 1957 1287Q1951 1284 1932.0 1277.0Q1913 1270 1887.5 1261.0Q1862 1252 1833.5 1243.0Q1805 1234 1780.0 1226.0Q1755 1218 1737.0 1213.0Q1719 1208 1714 1208ZM1406 1292Q1394 1292 1386.5 1297.0Q1379 1302 1374 1312Q1370 1320 1360.0 1339.0Q1350 1358 1337.5 1382.0Q1325 1406 1311.5 1432.5Q1298 1459 1287.0 1482.5Q1276 1506 1269.0 1523.5Q1262 1541 1262 1546Q1262 1561 1272.5 1571.0Q1283 1581 1298 1581H1514Q1529 1581 1539.5 1571.0Q1550 1561 1550 1546Q1550 1541 1543.0 1523.5Q1536 1506 1525.0 1482.5Q1514 1459 1500.5 1432.5Q1487 1406 1474.5 1382.0Q1462 1358 1452.0 1339.0Q1442 1320 1438 1312Q1433 1302 1425.5 1297.0Q1418 1292 1406 1292Z" style="fill:#3a96dd;stroke:none" transform="scale(1,-1) translate(0,-256)" /></svg>