<?xml version="1.0" encoding="utf-8" ?>
<svg baseProfile="full" height="256" version="1.1" width="256" xmlns="http://www.w3.org/2000/svg" xmlns:ev="http://www.w3.org/2001/xml-events" xmlns:xlink="http://www.w3.org/1999/xlink"><defs /><path d="M1909 431Q1909 399 1891.5 372.5Q1874 346 1845.0 324.5Q1816 303 1780.0 286.0Q1744 269 1707.0 257.0Q1670 245 1635.5 237.0Q1601 229 1576 225Q1534 218 1491.5 215.0Q1449 212 1406 212H1394Q1351 212 1308.5 217.0Q1266 222 1224 230Q1204 234 1172.0 243.5Q1140 253 1104.5 267.0Q1069 281 1033.0 299.0Q997 317 968.0 338.0Q939 359 921.0 382.5Q903 406 903 431V575Q903 679 942.5 770.5Q982 862 1050.5 930.5Q1119 999 1210.5 1038.5Q1302 1078 1406 1078Q1510 1078 1601.5 1038.5Q1693 999 1761.5 930.5Q1830 862 1869.5 770.5Q1909 679 1909 575Z" style="fill:#8e562e;stroke:none" transform="scale(1,-1) translate(0,-256)" /></svg>