<?xml version="1.0" encoding="utf-8" ?>
<svg baseProfile="full" height="256" version="1.1" width="256" xmlns="http://www.w3.org/2000/svg" xmlns:ev="http://www.w3.org/2001/xml-events" xmlns:xlink="http://www.w3.org/1999/xlink"><defs /><path d="M1622 503Q1622 475 1611.0 449.5Q1600 424 1581.0 404.5Q1562 385 1537.0 373.0Q1512 361 1484 360Q1512 359 1537.5 347.0Q1563 335 1581.5 315.5Q1600 296 1611.0 270.0Q1622 244 1622 216Q1622 186 1610.5 160.0Q1599 134 1579.5 114.5Q1560 95 1534.0 83.5Q1508 72 1478 72H1262Q1247 72 1236.5 82.5Q1226 93 1226 108Q1226 123 1236.5 133.5Q1247 144 1262 144H1478Q1507 144 1528.5 165.5Q1550 187 1550 216Q1550 245 1528.5 266.5Q1507 288 1478 288H1370Q1340 288 1319.0 309.0Q1298 330 1298 360Q1298 389 1319.5 410.0Q1341 431 1370 431H1478Q1507 431 1528.5 452.5Q1550 474 1550 503Q1550 532 1528.5 553.5Q1507 575 1478 575H1262Q1247 575 1236.5 585.5Q1226 596 1226 611Q1226 626 1236.5 636.5Q1247 647 1262 647H1478Q1508 647 1534.0 635.5Q1560 624 1579.5 604.5Q1599 585 1610.5 559.0Q1622 533 1622 503ZM1802 1292Q1820 1292 1848.5 1288.5Q1877 1285 1909.0 1277.0Q1941 1269 1973.0 1257.5Q2005 1246 2031.0 1230.5Q2057 1215 2073.0 1195.0Q2089 1175 2089 1151Q2089 1121 2068.0 1099.5Q2047 1078 2017 1078Q2003 1078 1982.5 1089.0Q1962 1100 1934.5 1113.5Q1907 1127 1873.5 1138.0Q1840 1149 1801 1149Q1761 1149 1727.5 1138.0Q1694 1127 1667.0 1113.5Q1640 1100 1619.5 1089.0Q1599 1078 1585 1078Q1556 1078 1535.0 1099.5Q1514 1121 1514 1150Q1514 1174 1530.0 1194.5Q1546 1215 1572.0 1230.5Q1598 1246 1630.0 1257.5Q1662 1269 1694.0 1277.0Q1726 1285 1754.5 1288.5Q1783 1292 1802 1292ZM1011 1292Q1030 1292 1058.5 1288.5Q1087 1285 1119.0 1277.0Q1151 1269 1183.0 1257.5Q1215 1246 1240.5 1230.5Q1266 1215 1282.0 1195.0Q1298 1175 1298 1150Q1298 1121 1276.5 1099.5Q1255 1078 1226 1078Q1212 1078 1191.5 1089.0Q1171 1100 1144.0 1113.5Q1117 1127 1083.5 1138.0Q1050 1149 1010 1149Q970 1149 937.0 1138.0Q904 1127 877.0 1113.5Q850 1100 829.5 1089.0Q809 1078 795 1078Q765 1078 744.0 1099.5Q723 1121 723 1151Q723 1175 739.0 1195.0Q755 1215 781.0 1230.5Q807 1246 839.0 1257.5Q871 1269 903.0 1277.0Q935 1285 964.0 1288.5Q993 1292 1011 1292Z" style="fill:#d48c00;stroke:none" transform="scale(1,-1) translate(0,-256)" /></svg>