<?xml version="1.0" encoding="utf-8" ?>
<svg baseProfile="full" height="256" version="1.1" width="256" xmlns="http://www.w3.org/2000/svg" xmlns:ev="http://www.w3.org/2001/xml-events" xmlns:xlink="http://www.w3.org/1999/xlink"><defs /><path d="M903 647Q948 647 987.0 630.0Q1026 613 1055.0 583.5Q1084 554 1101.0 515.0Q1118 476 1118 431Q1118 386 1101.0 347.0Q1084 308 1055.0 279.0Q1026 250 987.0 233.0Q948 216 903 216Q858 216 819.0 233.0Q780 250 750.5 279.0Q721 308 704.0 347.0Q687 386 687 431Q687 476 704.0 515.0Q721 554 750.5 583.5Q780 613 819.0 630.0Q858 647 903 647ZM1909 647Q1954 647 1993.0 630.0Q2032 613 2061.5 583.5Q2091 554 2108.0 515.0Q2125 476 2125 431Q2125 386 2108.0 347.0Q2091 308 2061.5 279.0Q2032 250 1993.0 233.0Q1954 216 1909 216Q1864 216 1825.0 233.0Q1786 250 1756.5 279.0Q1727 308 1710.0 347.0Q1693 386 1693 431Q1693 476 1710.0 515.0Q1727 554 1756.5 583.5Q1786 613 1825.0 630.0Q1864 647 1909 647Z" style="fill:#f7894a;stroke:none" transform="scale(1,-1) translate(0,-256)" /></svg>