<?xml version="1.0" encoding="utf-8" ?>
<svg baseProfile="full" height="256" version="1.1" width="256" xmlns="http://www.w3.org/2000/svg" xmlns:ev="http://www.w3.org/2001/xml-events" xmlns:xlink="http://www.w3.org/1999/xlink"><defs /><path d="M1929 847Q1975 814 2011.0 771.5Q2047 729 2072.5 680.5Q2098 632 2111.5 578.0Q2125 524 2125 467Q2125 370 2088.5 285.0Q2052 200 1988.5 136.5Q1925 73 1840.0 36.5Q1755 0 1658 0H867Q770 0 685.0 36.5Q600 73 536.5 136.5Q473 200 436.5 285.0Q400 370 400 467Q400 523 413.5 577.0Q427 631 452.0 680.0Q477 729 513.5 771.5Q550 814 595 847Q569 892 556.0 941.5Q543 991 543 1042Q543 1126 574.0 1197.5Q605 1269 658.5 1322.0Q712 1375 784.0 1405.5Q856 1436 939 1438Q940 1438 940.5 1437.5Q941 1437 942 1437Q949 1498 976.5 1550.5Q1004 1603 1047.0 1642.0Q1090 1681 1145.0 1703.0Q1200 1725 1262 1725Q1323 1725 1378.5 1703.0Q1434 1681 1476.5 1642.0Q1519 1603 1547.0 1550.5Q1575 1498 1582 1437Q1583 1437 1584.0 1437.5Q1585 1438 1586 1438Q1668 1438 1740.0 1406.5Q1812 1375 1865.5 1321.0Q1919 1267 1950.0 1195.0Q1981 1123 1981 1042Q1981 991 1968.0 941.5Q1955 892 1929 847Z" style="fill:#13a10e;stroke:none" transform="scale(1,-1) translate(0,-256)" /></svg>