<?xml version="1.0" encoding="utf-8" ?>
<svg baseProfile="full" height="256" version="1.1" width="256" xmlns="http://www.w3.org/2000/svg" xmlns:ev="http://www.w3.org/2001/xml-events" xmlns:xlink="http://www.w3.org/1999/xlink"><defs /><path d="M1190 1294Q1190 1249 1173.0 1210.0Q1156 1171 1127.0 1141.5Q1098 1112 1059.0 1095.0Q1020 1078 975 1078Q975 1123 992.0 1162.0Q1009 1201 1038.0 1230.5Q1067 1260 1106.0 1277.0Q1145 1294 1190 1294ZM1334 1294Q1379 1294 1418.0 1277.0Q1457 1260 1486.5 1230.5Q1516 1201 1533.0 1162.0Q1550 1123 1550 1078Q1505 1078 1466.0 1095.0Q1427 1112 1397.5 1141.5Q1368 1171 1351.0 1210.0Q1334 1249 1334 1294ZM975 216Q975 261 992.0 300.0Q1009 339 1038.0 368.0Q1067 397 1106.0 414.0Q1145 431 1190 431Q1190 386 1173.0 347.0Q1156 308 1127.0 279.0Q1098 250 1059.0 233.0Q1020 216 975 216ZM1334 431Q1379 431 1418.0 414.0Q1457 397 1486.5 368.0Q1516 339 1533.0 300.0Q1550 261 1550 216Q1505 216 1466.0 233.0Q1427 250 1397.5 279.0Q1368 308 1351.0 347.0Q1334 386 1334 431ZM687 647Q687 692 704.0 731.0Q721 770 750.5 799.5Q780 829 819.0 846.0Q858 863 903 863Q903 818 886.0 779.0Q869 740 839.5 710.5Q810 681 771.0 664.0Q732 647 687 647ZM1047 863Q1092 863 1131.0 846.0Q1170 829 1199.0 799.5Q1228 770 1245.0 731.0Q1262 692 1262 647Q1217 647 1178.0 664.0Q1139 681 1110.0 710.5Q1081 740 1064.0 779.0Q1047 818 1047 863ZM1622 863Q1667 863 1706.0 846.0Q1745 829 1774.0 799.5Q1803 770 1820.0 731.0Q1837 692 1837 647Q1792 647 1753.0 664.0Q1714 681 1685.0 710.5Q1656 740 1639.0 779.0Q1622 818 1622 863Z" style="fill:#107c10;stroke:none" transform="scale(1,-1) translate(0,-256)" /></svg>