<?xml version="1.0" encoding="utf-8" ?>
<svg baseProfile="full" height="256" version="1.1" width="256" xmlns="http://www.w3.org/2000/svg" xmlns:ev="http://www.w3.org/2001/xml-events" xmlns:xlink="http://www.w3.org/1999/xlink"><defs /><path d="M975 -431V-144H867Q741 -144 630.0 -96.0Q519 -48 435.5 35.5Q352 119 304.0 230.0Q256 341 256 467Q256 584 299.0 692.5Q342 801 423 886Q400 964 400 1042Q400 1137 432.0 1224.0Q464 1311 521.0 1381.5Q578 1452 656.5 1501.0Q735 1550 828 1570Q854 1637 898.0 1692.0Q942 1747 999.0 1786.5Q1056 1826 1123.0 1847.5Q1190 1869 1262 1869Q1334 1869 1401.5 1847.5Q1469 1826 1526.0 1786.5Q1583 1747 1627.0 1692.0Q1671 1637 1697 1570Q1790 1550 1868.5 1501.0Q1947 1452 2004.0 1381.5Q2061 1311 2093.0 1224.0Q2125 1137 2125 1042Q2125 961 2101 886Q2182 801 2225.0 692.5Q2268 584 2268 467Q2268 341 2220.0 230.0Q2172 119 2089.0 35.5Q2006 -48 1895.0 -96.0Q1784 -144 1658 -144H1550V-431Z" style="fill:#000000;stroke:none" transform="scale(1,-1) translate(0,-256)" /></svg>