<?xml version="1.0" encoding="utf-8" ?>
<svg baseProfile="full" height="256" version="1.1" width="256" xmlns="http://www.w3.org/2000/svg" xmlns:ev="http://www.w3.org/2001/xml-events" xmlns:xlink="http://www.w3.org/1999/xlink"><defs /><path d="M2017 -431Q1969 -431 1922.0 -419.5Q1875 -408 1832.5 -385.5Q1790 -363 1754.0 -331.5Q1718 -300 1691 -259Q1658 -273 1622.0 -280.0Q1586 -287 1550 -287H1262Q1155 -287 1067 -230Q1041 -276 1004.0 -313.0Q967 -350 922.0 -376.5Q877 -403 826.0 -417.0Q775 -431 723 -431Q639 -431 567.0 -399.5Q495 -368 442.0 -314.0Q389 -260 358.5 -187.5Q328 -115 328 -34Q328 -26 328.0 -17.0Q328 -8 329 0H256V144Q256 211 280.0 272.5Q304 334 346.5 382.0Q389 430 447.0 461.5Q505 493 572 501L693 791H615V1366H831Q884 1366 933.0 1346.5Q982 1327 1021 1292Q1029 1293 1035.0 1293.5Q1041 1294 1047 1294Q1092 1294 1134.5 1275.0Q1177 1256 1207 1222H1226Q1263 1222 1296.0 1208.0Q1329 1194 1353.5 1169.5Q1378 1145 1392.0 1112.0Q1406 1079 1406 1042Q1406 1022 1401.0 1002.0Q1396 982 1388 964L1668 1061Q1716 1078 1765 1078H1981Q2038 1078 2090.5 1055.5Q2143 1033 2182.5 995.0Q2222 957 2245.5 905.5Q2269 854 2269 796Q2269 775 2266 754Q2334 715 2373.0 648.0Q2412 581 2412 503V452Q2481 373 2518.5 275.0Q2556 177 2556 72V-215H2368Q2343 -264 2305.5 -303.5Q2268 -343 2222.5 -371.5Q2177 -400 2124.5 -415.5Q2072 -431 2017 -431Z" style="fill:#000000;stroke:none" transform="scale(1,-1) translate(0,-256)" /></svg>