<?xml version="1.0" encoding="utf-8" ?>
<svg baseProfile="full" height="256" version="1.1" width="256" xmlns="http://www.w3.org/2000/svg" xmlns:ev="http://www.w3.org/2001/xml-events" xmlns:xlink="http://www.w3.org/1999/xlink"><defs /><path d="M1981 935Q2011 935 2037.0 923.5Q2063 912 2082.5 892.5Q2102 873 2113.5 847.0Q2125 821 2125 791Q2125 761 2113.5 735.0Q2102 709 2082.5 689.5Q2063 670 2037.0 658.5Q2011 647 1981 647H1334Q1304 647 1283.0 668.0Q1262 689 1262 719Q1262 745 1277.0 762.0Q1292 779 1315 787L1715 925Q1729 930 1740.0 932.5Q1751 935 1765 935Z" style="fill:#ca5010;stroke:none" transform="scale(1,-1) translate(0,-256)" /></svg>