<?xml version="1.0" encoding="utf-8" ?>
<svg baseProfile="full" height="256" version="1.1" width="256" xmlns="http://www.w3.org/2000/svg" xmlns:ev="http://www.w3.org/2001/xml-events" xmlns:xlink="http://www.w3.org/1999/xlink"><defs /><path d="M2268 360 1702 224Q1732 194 1748.5 154.0Q1765 114 1765 71Q1765 27 1748.0 -12.0Q1731 -51 1701.5 -80.5Q1672 -110 1633.0 -127.0Q1594 -144 1550 -144H1262Q1220 -144 1179.5 -127.5Q1139 -111 1110 -81L894 144H400Q400 189 417.0 228.0Q434 267 463.0 296.5Q492 326 531.0 343.0Q570 360 615 360H669L980 1106Q988 1126 1006.5 1138.0Q1025 1150 1047 1150Q1076 1150 1097.0 1128.5Q1118 1107 1118 1078Q1118 1062 1113 1051L868 464L1110 207Q1130 185 1151.5 172.5Q1173 160 1196.0 153.5Q1219 147 1244.0 145.5Q1269 144 1297 144H1334Q1379 144 1418.0 161.0Q1457 178 1486.5 207.0Q1516 236 1533.0 275.0Q1550 314 1550 359Q1550 402 1533.5 442.0Q1517 482 1487 512L1307 692L1909 719Z" style="fill:#00bcf2;stroke:none" transform="scale(1,-1) translate(0,-256)" /></svg>