<?xml version="1.0" encoding="utf-8" ?>
<svg baseProfile="full" height="256" version="1.1" width="256" xmlns="http://www.w3.org/2000/svg" xmlns:ev="http://www.w3.org/2001/xml-events" xmlns:xlink="http://www.w3.org/1999/xlink"><defs /><path d="M723 72Q745 72 765.0 63.5Q785 55 799.5 40.5Q814 26 822.5 6.0Q831 -14 831 -36Q831 -58 822.5 -77.5Q814 -97 799.0 -112.0Q784 -127 764.5 -135.5Q745 -144 723 -144Q701 -144 681.5 -135.5Q662 -127 647.0 -112.0Q632 -97 623.5 -77.5Q615 -58 615 -36Q615 -14 623.5 5.5Q632 25 647.0 40.0Q662 55 681.5 63.5Q701 72 723 72ZM2017 72Q2039 72 2058.5 63.5Q2078 55 2093.0 40.0Q2108 25 2116.5 5.5Q2125 -14 2125 -36Q2125 -58 2116.5 -77.5Q2108 -97 2093.0 -112.0Q2078 -127 2058.5 -135.5Q2039 -144 2017 -144Q1995 -144 1975.5 -135.5Q1956 -127 1941.0 -112.0Q1926 -97 1917.5 -77.5Q1909 -58 1909 -36Q1909 -14 1917.5 6.0Q1926 26 1940.5 40.5Q1955 55 1974.5 63.5Q1994 72 2017 72Z" style="fill:#cccccc;stroke:none" transform="scale(1,-1) translate(0,-256)" /></svg>