<?xml version="1.0" encoding="utf-8" ?>
<svg baseProfile="full" height="256" version="1.1" width="256" xmlns="http://www.w3.org/2000/svg" xmlns:ev="http://www.w3.org/2001/xml-events" xmlns:xlink="http://www.w3.org/1999/xlink"><defs /><path d="M723 216Q775 216 821.0 196.0Q867 176 901.0 142.0Q935 108 955.0 62.0Q975 16 975 -36Q975 -88 955.0 -134.0Q935 -180 901.0 -214.0Q867 -248 821.0 -267.5Q775 -287 723 -287Q670 -287 624.5 -267.5Q579 -248 545.0 -214.0Q511 -180 491.5 -134.5Q472 -89 472 -36Q472 16 491.5 62.0Q511 108 545.0 142.0Q579 176 625.0 196.0Q671 216 723 216ZM2017 216Q2069 216 2115.0 196.0Q2161 176 2195.0 142.0Q2229 108 2248.5 62.0Q2268 16 2268 -36Q2268 -89 2248.5 -134.5Q2229 -180 2195.0 -214.0Q2161 -248 2115.0 -267.5Q2069 -287 2017 -287Q1965 -287 1919.0 -267.5Q1873 -248 1839.0 -214.0Q1805 -180 1785.0 -134.0Q1765 -88 1765 -36Q1765 16 1785.0 62.0Q1805 108 1839.0 142.0Q1873 176 1919.0 196.0Q1965 216 2017 216Z" style="fill:#383838;stroke:none" transform="scale(1,-1) translate(0,-256)" /></svg>