<?xml version="1.0" encoding="utf-8" ?>
<svg baseProfile="full" height="256" version="1.1" width="256" xmlns="http://www.w3.org/2000/svg" xmlns:ev="http://www.w3.org/2001/xml-events" xmlns:xlink="http://www.w3.org/1999/xlink"><defs /><path d="M2263 319Q2266 302 2267.0 285.5Q2268 269 2268 252Q2268 135 2223.0 50.0Q2178 -35 2103.5 -95.0Q2029 -155 1932.5 -192.5Q1836 -230 1732.0 -251.0Q1628 -272 1525.0 -279.5Q1422 -287 1334 -287H400Q400 -249 409.5 -212.5Q419 -176 439 -144H1334Q1415 -144 1511.0 -138.0Q1607 -132 1704.5 -114.5Q1802 -97 1895.5 -65.0Q1989 -33 2065.0 18.5Q2141 70 2193.5 144.0Q2246 218 2263 319ZM1909 656Q1928 650 1946.0 643.5Q1964 637 1981 629V543Q1981 512 1980.0 484.5Q1979 457 1975.0 430.0Q1971 403 1963.5 376.0Q1956 349 1944 320Q1926 336 1904.5 347.0Q1883 358 1861 367Q1821 292 1765.0 237.0Q1709 182 1641.0 145.0Q1573 108 1495.0 90.0Q1417 72 1334 72H1118Q1068 72 1006.0 77.5Q944 83 880.5 96.5Q817 110 756.0 133.5Q695 157 648.0 193.0Q601 229 572.0 279.0Q543 329 543 396Q543 432 554 468Q570 416 605.5 377.0Q641 338 688.5 310.0Q736 282 792.0 264.0Q848 246 905.5 235.0Q963 224 1018.0 220.0Q1073 216 1118 216H1334Q1444 216 1547.5 250.0Q1651 284 1731.5 349.0Q1812 414 1860.5 507.0Q1909 600 1909 719ZM1406 575Q1460 575 1513.5 572.5Q1567 570 1621 564Q1619 522 1599.5 487.5Q1580 453 1548 427Q1513 429 1477.0 430.0Q1441 431 1406 431H1118Q1058 431 995.5 423.5Q933 416 876 396V419Q876 459 901.5 488.0Q927 517 964.5 536.5Q1002 556 1044.0 565.5Q1086 575 1118 575ZM1603 1294Q1653 1224 1673.0 1140.0Q1693 1056 1693 971V710H1688Q1671 712 1655.0 713.0Q1639 714 1622 715V971Q1622 1056 1602.0 1140.0Q1582 1224 1531 1294Z" style="fill:#73aa24;stroke:none" transform="scale(1,-1) translate(0,-256)" /></svg>