<?xml version="1.0" encoding="utf-8" ?>
<svg baseProfile="full" height="256" version="1.1" width="256" xmlns="http://www.w3.org/2000/svg" xmlns:ev="http://www.w3.org/2001/xml-events" xmlns:xlink="http://www.w3.org/1999/xlink"><defs /><path d="M1909 640Q1918 628 1927.5 618.5Q1937 609 1953 609Q1973 609 1981 629Q2030 609 2080.5 576.5Q2131 544 2171.5 501.5Q2212 459 2237.5 407.5Q2263 356 2263 297Q2263 281 2262.5 265.5Q2262 250 2258 234Q2243 167 2217.5 100.5Q2192 34 2148 -20Q2105 -73 2045.5 -110.0Q1986 -147 1916.0 -172.5Q1846 -198 1769.5 -213.0Q1693 -228 1616.5 -235.5Q1540 -243 1467.5 -245.5Q1395 -248 1334 -248Q1295 -248 1263.5 -247.5Q1232 -247 1202.0 -246.0Q1172 -245 1140.5 -244.0Q1109 -243 1070 -242H543Q537 -232 531.0 -227.0Q525 -222 520 -219Q495 -205 472.0 -187.5Q449 -170 438 -143Q457 -110 484.0 -83.5Q511 -57 543.5 -38.5Q576 -20 612.5 -10.0Q649 0 687 0H1334Q1375 0 1438.5 2.5Q1502 5 1574.0 13.5Q1646 22 1718.5 39.0Q1791 56 1849.5 84.0Q1908 112 1944.5 153.0Q1981 194 1981 252Q1981 272 1970.0 289.5Q1959 307 1944 320Q1943 336 1936.0 346.5Q1929 357 1918.5 364.0Q1908 371 1895.0 376.0Q1882 381 1869 385L1861 388Q1813 328 1754.0 278.5Q1695 229 1627.5 193.5Q1560 158 1486.0 138.5Q1412 119 1334 119H1118Q1052 119 984.5 129.5Q917 140 852.5 161.5Q788 183 729.0 216.5Q670 250 621 295Q615 300 607.0 308.0Q599 316 591.0 325.0Q583 334 576.5 343.0Q570 352 569 360Q563 386 559.0 413.5Q555 441 555 468Q555 473 559.5 483.0Q564 493 570.5 504.5Q577 516 583.5 525.5Q590 535 593 540Q634 595 697.5 629.5Q761 664 833.5 684.0Q906 704 980.5 711.5Q1055 719 1118 719H1478Q1514 719 1550.0 718.0Q1586 717 1622 715L1646 886Q1650 911 1654.0 928.0Q1658 945 1658 971Q1658 1010 1652.0 1057.5Q1646 1105 1632.0 1150.5Q1618 1196 1593.0 1234.5Q1568 1273 1531 1294H1047Q970 1294 915.5 1325.0Q861 1356 826.5 1406.5Q792 1457 775.5 1521.5Q759 1586 759 1653V1725H1271Q1274 1725 1277.5 1724.5Q1281 1724 1284 1724Q1438 1713 1554.5 1649.0Q1671 1585 1750.0 1483.0Q1829 1381 1869.0 1249.0Q1909 1117 1909 971ZM1334 360Q1390 360 1446.5 375.5Q1503 391 1548 426Q1537 442 1521.0 454.0Q1505 466 1485.5 474.0Q1466 482 1445.5 485.5Q1425 489 1406 489H1118Q981 489 876 396Q932 375 995.5 367.5Q1059 360 1118 360Z" style="fill:#bad80a;stroke:none" transform="scale(1,-1) translate(0,-256)" /></svg>