<?xml version="1.0" encoding="utf-8" ?>
<svg baseProfile="full" height="256" version="1.1" width="256" xmlns="http://www.w3.org/2000/svg" xmlns:ev="http://www.w3.org/2001/xml-events" xmlns:xlink="http://www.w3.org/1999/xlink"><defs /><path d="M256 -431V-287Q256 -221 275.0 -160.0Q294 -99 329.5 -47.0Q365 5 414.5 46.0Q464 87 524 112Q464 169 432.0 241.0Q400 313 400 396Q400 487 433.0 557.0Q466 627 521.5 679.0Q577 731 650.0 766.5Q723 802 803.0 823.5Q883 845 964.0 854.0Q1045 863 1118 863Q1209 863 1298.0 863.0Q1387 863 1478 862V971Q1478 1017 1471.0 1062.0Q1464 1107 1447 1150H1047Q953 1150 872.0 1185.5Q791 1221 731 1294H508Q471 1294 438.0 1308.0Q405 1322 380.5 1346.5Q356 1371 342.0 1404.0Q328 1437 328 1474Q328 1519 348.0 1557.5Q368 1596 405 1621Q403 1638 401.5 1655.0Q400 1672 400 1689Q400 1726 414.0 1759.0Q428 1792 452.5 1816.5Q477 1841 509.5 1855.0Q542 1869 579 1869H1282Q1355 1869 1430.5 1850.5Q1506 1832 1572 1802Q1696 1746 1786.5 1658.5Q1877 1571 1936.0 1461.5Q1995 1352 2024.0 1227.0Q2053 1102 2053 971V755Q2132 720 2198.0 670.5Q2264 621 2311.5 557.5Q2359 494 2385.5 417.0Q2412 340 2412 252Q2412 177 2393.5 103.5Q2375 30 2338 -36Q2291 -120 2222.0 -181.5Q2153 -243 2070.5 -287.0Q1988 -331 1894.5 -359.0Q1801 -387 1705.5 -403.0Q1610 -419 1515.0 -425.0Q1420 -431 1334 -431Z" style="fill:#000000;stroke:none" transform="scale(1,-1) translate(0,-256)" /></svg>