<?xml version="1.0" encoding="utf-8" ?>
<svg baseProfile="full" height="256" version="1.1" width="256" xmlns="http://www.w3.org/2000/svg" xmlns:ev="http://www.w3.org/2001/xml-events" xmlns:xlink="http://www.w3.org/1999/xlink"><defs /><path d="M1789 0H2268V-287H400V0H879L903 -72Q946 -72 983.0 -52.0Q1020 -32 1047 0Q1073 -32 1110.5 -52.0Q1148 -72 1190 -72Q1233 -72 1270.0 -52.0Q1307 -32 1334 0Q1361 -32 1398.0 -52.0Q1435 -72 1478 -72Q1521 -72 1558.0 -52.0Q1595 -32 1622 0Q1648 -32 1685.5 -52.0Q1723 -72 1765 -72Z" style="fill:#00bcf2;stroke:none" transform="scale(1,-1) translate(0,-256)" /></svg>