<?xml version="1.0" encoding="utf-8" ?>
<svg baseProfile="full" height="256" version="1.1" width="256" xmlns="http://www.w3.org/2000/svg" xmlns:ev="http://www.w3.org/2001/xml-events" xmlns:xlink="http://www.w3.org/1999/xlink"><defs /><path d="M759 1725Q824 1671 877.5 1606.5Q931 1542 968.5 1469.5Q1006 1397 1026.5 1316.5Q1047 1236 1047 1150Q1047 1090 1024.5 1038.0Q1002 986 963.0 947.0Q924 908 871.5 885.5Q819 863 759 863Q699 863 647.0 885.5Q595 908 556.0 947.0Q517 986 494.5 1038.0Q472 1090 472 1150Q472 1236 492.5 1316.5Q513 1397 550.5 1469.5Q588 1542 641.0 1606.5Q694 1671 759 1725Z" style="fill:#f7630c;stroke:none" transform="scale(1,-1) translate(0,-256)" /></svg>