<?xml version="1.0" encoding="utf-8" ?>
<svg baseProfile="full" height="256" version="1.1" width="256" xmlns="http://www.w3.org/2000/svg" xmlns:ev="http://www.w3.org/2001/xml-events" xmlns:xlink="http://www.w3.org/1999/xlink"><defs /><path d="M903 1006Q903 957 873.0 918.0Q843 879 795 867V794Q793 808 783.0 817.5Q773 827 759 827Q745 827 734.5 817.5Q724 808 723 794V867Q675 879 645.0 918.0Q615 957 615 1006Q615 1093 654.0 1166.5Q693 1240 759 1294Q825 1240 864.0 1166.5Q903 1093 903 1006ZM965 514Q915 514 869 534Q829 581 812.5 634.5Q796 688 795 748Q796 714 810.0 684.5Q824 655 846.5 633.0Q869 611 899.5 598.5Q930 586 964 586Q1004 586 1036 602Q1046 607 1079.0 623.0Q1112 639 1155.5 660.0Q1199 681 1247.5 704.0Q1296 727 1337.5 746.5Q1379 766 1408.0 778.5Q1437 791 1442 791Q1457 791 1467.5 780.0Q1478 769 1478 754Q1478 744 1472.0 735.5Q1466 727 1457 722L1067 537Q1018 514 965 514Z" style="fill:#ffffff;stroke:none" transform="scale(1,-1) translate(0,-256)" /></svg>