<?xml version="1.0" encoding="utf-8" ?>
<svg baseProfile="full" height="256" version="1.1" width="256" xmlns="http://www.w3.org/2000/svg" xmlns:ev="http://www.w3.org/2001/xml-events" xmlns:xlink="http://www.w3.org/1999/xlink"><defs /><path d="M2340 863Q2340 823 2327 790L993 935L485 790Q472 823 472 863Q472 924 503.0 975.5Q534 1027 584.0 1068.5Q634 1110 697.5 1142.5Q761 1175 826.5 1199.5Q892 1224 954.0 1239.5Q1016 1255 1063 1264Q1148 1280 1233.5 1287.0Q1319 1294 1406 1294Q1492 1294 1577.0 1287.0Q1662 1280 1747 1264Q1794 1255 1856.0 1239.5Q1918 1224 1984.0 1200.0Q2050 1176 2114.0 1143.0Q2178 1110 2228.0 1068.5Q2278 1027 2309.0 975.5Q2340 924 2340 863Z" style="fill:#8e562e;stroke:none" transform="scale(1,-1) translate(0,-256)" /></svg>