<?xml version="1.0" encoding="utf-8" ?>
<svg baseProfile="full" height="256" version="1.1" width="256" xmlns="http://www.w3.org/2000/svg" xmlns:ev="http://www.w3.org/2001/xml-events" xmlns:xlink="http://www.w3.org/1999/xlink"><defs /><path d="M543 1078Q543 1142 558.5 1202.5Q574 1263 602.5 1318.0Q631 1373 670.5 1421.0Q710 1469 759 1510Q808 1469 847.5 1421.0Q887 1373 915.5 1318.0Q944 1263 959.5 1202.5Q975 1142 975 1078Q975 1033 958.0 994.0Q941 955 911.5 926.0Q882 897 843.0 880.0Q804 863 759 863Q714 863 675.0 880.0Q636 897 606.5 926.0Q577 955 560.0 994.0Q543 1033 543 1078Z" style="fill:#fce100;stroke:none" transform="scale(1,-1) translate(0,-256)" /></svg>