<?xml version="1.0" encoding="utf-8" ?>
<svg baseProfile="full" height="256" version="1.1" width="256" xmlns="http://www.w3.org/2000/svg" xmlns:ev="http://www.w3.org/2001/xml-events" xmlns:xlink="http://www.w3.org/1999/xlink"><defs /><path d="M2326 790Q2308 740 2270.5 698.5Q2233 657 2184.0 623.5Q2135 590 2077.5 563.5Q2020 537 1961.5 516.5Q1903 496 1847.0 482.0Q1791 468 1745 460Q1660 445 1575.5 438.0Q1491 431 1406 431H1397Q1272 431 1147.0 447.5Q1022 464 902 500L869 534Q863 558 851.0 585.5Q839 613 826.5 641.0Q814 669 804.5 695.0Q795 721 795 742V791Q795 797 792.5 807.0Q790 817 785.5 826.5Q781 836 774.0 843.0Q767 850 759 850Q751 850 744.0 843.0Q737 836 732.5 826.5Q728 817 725.5 807.0Q723 797 723 791Q723 764 719.0 738.5Q715 713 705.0 691.0Q695 669 677.5 651.0Q660 633 632 622Q584 654 546.0 695.0Q508 736 486 790Q486 797 493.5 811.0Q501 825 510.5 839.5Q520 854 530.0 867.0Q540 880 545 885Q591 936 655.0 975.5Q719 1015 793.0 1044.5Q867 1074 948.0 1094.0Q1029 1114 1109.0 1126.5Q1189 1139 1265.0 1144.5Q1341 1150 1406 1150Q1471 1150 1557.0 1143.5Q1643 1137 1735.5 1120.5Q1828 1104 1921.5 1077.5Q2015 1051 2095.5 1011.0Q2176 971 2237.0 916.5Q2298 862 2326 790Z" style="fill:#f7894a;stroke:none" transform="scale(1,-1) translate(0,-256)" /></svg>