<?xml version="1.0" encoding="utf-8" ?>
<svg baseProfile="full" height="256" version="1.1" width="256" xmlns="http://www.w3.org/2000/svg" xmlns:ev="http://www.w3.org/2001/xml-events" xmlns:xlink="http://www.w3.org/1999/xlink"><defs /><path d="M903 -36Q903 -2 918.0 27.0Q933 56 958.5 80.0Q984 104 1016.0 123.0Q1048 142 1082.5 156.0Q1117 170 1150.0 180.0Q1183 190 1210 196Q1258 207 1307.0 211.5Q1356 216 1406 216Q1456 216 1505.0 211.5Q1554 207 1602 196Q1629 190 1662.0 180.0Q1695 170 1729.5 156.0Q1764 142 1796.0 123.0Q1828 104 1853.5 80.0Q1879 56 1894.0 27.0Q1909 -2 1909 -36Q1909 -69 1894.5 -97.5Q1880 -126 1856.0 -149.5Q1832 -173 1801.0 -191.5Q1770 -210 1737.0 -224.5Q1704 -239 1672.0 -249.0Q1640 -259 1614 -265Q1563 -276 1511.0 -281.5Q1459 -287 1406 -287Q1353 -287 1301.0 -281.5Q1249 -276 1198 -265Q1172 -259 1140.0 -249.0Q1108 -239 1075.0 -224.5Q1042 -210 1011.0 -191.5Q980 -173 956.0 -149.5Q932 -126 917.5 -97.5Q903 -69 903 -36Z" style="fill:#33211a;stroke:none" transform="scale(1,-1) translate(0,-256)" /></svg>