<?xml version="1.0" encoding="utf-8" ?>
<svg baseProfile="full" height="256" version="1.1" width="256" xmlns="http://www.w3.org/2000/svg" xmlns:ev="http://www.w3.org/2001/xml-events" xmlns:xlink="http://www.w3.org/1999/xlink"><defs /><path d="M2412 863Q2412 795 2382.0 738.0Q2352 681 2303.0 634.0Q2254 587 2190.5 549.0Q2127 511 2060.0 482.5Q1993 454 1927.5 434.0Q1862 414 1809 402Q1709 380 1608.5 370.0Q1508 360 1406 360H1394Q1331 360 1268.0 366.0Q1205 372 1144 386Q1121 391 1098.5 399.5Q1076 408 1053 413Q1042 420 1027.0 425.5Q1012 431 1001 436Q977 447 949.0 464.0Q921 481 898.0 502.5Q875 524 859.5 550.5Q844 577 844 607Q844 622 846.5 646.5Q849 671 852.5 698.0Q856 725 860.5 750.0Q865 775 869 790H847L839 810Q837 818 827.5 833.0Q818 848 805.5 862.5Q793 877 780.0 888.0Q767 899 759 899Q750 899 736.0 887.5Q722 876 708.5 861.0Q695 846 684.5 830.5Q674 815 673 807L652 767Q653 743 658.0 719.0Q663 695 663 671Q663 653 655.5 641.5Q648 630 636.0 623.5Q624 617 609.5 614.0Q595 611 580 611Q541 611 508.0 637.5Q475 664 451.0 703.0Q427 742 413.5 785.5Q400 829 400 863Q400 930 430.0 987.5Q460 1045 509.0 1092.0Q558 1139 621.5 1177.0Q685 1215 752.0 1243.5Q819 1272 884.5 1292.0Q950 1312 1003 1324Q1103 1346 1203.5 1356.0Q1304 1366 1406 1366Q1508 1366 1608.5 1356.0Q1709 1346 1809 1324Q1862 1312 1927.5 1292.0Q1993 1272 2060.0 1243.5Q2127 1215 2190.5 1177.0Q2254 1139 2303.0 1092.0Q2352 1045 2382.0 988.0Q2412 931 2412 863Z" style="fill:#ca5010;stroke:none" transform="scale(1,-1) translate(0,-256)" /></svg>