<?xml version="1.0" encoding="utf-8" ?>
<svg baseProfile="full" height="256" version="1.1" width="256" xmlns="http://www.w3.org/2000/svg" xmlns:ev="http://www.w3.org/2001/xml-events" xmlns:xlink="http://www.w3.org/1999/xlink"><defs /><path d="M2053 109Q2053 94 2042.5 83.0Q2032 72 2017 72H1442Q1424 72 1413 86L1021 609L829 95Q820 72 795 72Q780 72 769.5 82.5Q759 93 759 108Q759 110 768.0 135.0Q777 160 791.5 200.5Q806 241 824.5 292.5Q843 344 863.0 398.0Q883 452 902.5 504.0Q922 556 938.0 598.0Q954 640 964.5 667.0Q975 694 978 698L981 701Q991 719 1011 719L1065 791L1118 719H1586Q1603 719 1614 705L2046 130Q2051 125 2052.0 121.0Q2053 117 2053 109ZM1945 144 1568 647H1083L1460 144Z" style="fill:#00bcf2;stroke:none" transform="scale(1,-1) translate(0,-256)" /></svg>