<?xml version="1.0" encoding="utf-8" ?>
<svg baseProfile="full" height="256" version="1.1" width="256" xmlns="http://www.w3.org/2000/svg" xmlns:ev="http://www.w3.org/2001/xml-events" xmlns:xlink="http://www.w3.org/1999/xlink"><defs /><path d="M1693 1869Q1721 1869 1749.5 1862.5Q1778 1856 1804.0 1843.5Q1830 1831 1852.5 1812.5Q1875 1794 1892 1771L2556 837V-431H256V680L415 1010Q432 1046 450.5 1071.5Q469 1097 504 1118Q480 1167 474 1222H400V1366Q400 1440 428.5 1505.5Q457 1571 505.5 1619.5Q554 1668 619.5 1696.5Q685 1725 759 1725H831Q905 1725 970.5 1696.5Q1036 1668 1084.5 1619.5Q1133 1571 1161.5 1505.5Q1190 1440 1190 1366H1207L1491 1766Q1525 1814 1579.5 1841.5Q1634 1869 1693 1869Z" style="fill:#000000;stroke:none" transform="scale(1,-1) translate(0,-256)" /></svg>