<?xml version="1.0" encoding="utf-8" ?>
<svg baseProfile="full" height="256" version="1.1" width="256" xmlns="http://www.w3.org/2000/svg" xmlns:ev="http://www.w3.org/2001/xml-events" xmlns:xlink="http://www.w3.org/1999/xlink"><defs /><path d="M795 503Q877 503 949.0 472.0Q1021 441 1074.5 387.5Q1128 334 1159.0 262.0Q1190 190 1190 108Q1190 26 1159.0 -46.0Q1128 -118 1074.5 -171.5Q1021 -225 949.0 -256.0Q877 -287 795 -287Q713 -287 641.0 -256.0Q569 -225 515.5 -171.5Q462 -118 431.0 -46.0Q400 26 400 108Q400 190 431.0 262.0Q462 334 515.5 387.5Q569 441 641.0 472.0Q713 503 795 503ZM2017 503Q2099 503 2171.0 472.0Q2243 441 2296.5 387.5Q2350 334 2381.0 262.0Q2412 190 2412 108Q2412 26 2381.0 -46.0Q2350 -118 2296.5 -171.5Q2243 -225 2171.0 -256.0Q2099 -287 2017 -287Q1935 -287 1863.0 -256.0Q1791 -225 1737.5 -171.5Q1684 -118 1653.0 -46.0Q1622 26 1622 108Q1622 190 1653.0 262.0Q1684 334 1737.5 387.5Q1791 441 1863.0 472.0Q1935 503 2017 503ZM2017 -180Q2077 -180 2129.5 -157.5Q2182 -135 2221.0 -96.0Q2260 -57 2282.5 -4.5Q2305 48 2305 108Q2305 168 2282.5 220.5Q2260 273 2221.0 312.0Q2182 351 2129.5 373.5Q2077 396 2017 396Q1957 396 1904.5 373.5Q1852 351 1813.0 312.0Q1774 273 1751.5 220.5Q1729 168 1729 108Q1729 48 1751.5 -4.5Q1774 -57 1813.0 -96.0Q1852 -135 1904.5 -157.5Q1957 -180 2017 -180ZM795 -179Q855 -179 907.5 -156.5Q960 -134 999.0 -95.0Q1038 -56 1060.5 -4.0Q1083 48 1083 108Q1083 168 1060.5 220.5Q1038 273 999.0 312.0Q960 351 907.5 373.5Q855 396 795 396Q735 396 683.0 373.5Q631 351 592.0 312.0Q553 273 530.5 220.5Q508 168 508 108Q508 48 530.5 -4.0Q553 -56 592.0 -95.0Q631 -134 683.0 -156.5Q735 -179 795 -179ZM651 719Q636 719 625.5 729.5Q615 740 615 755Q615 770 625.5 780.5Q636 791 651 791H1047V647H975V719L874 766L759 719Z" style="fill:#000000;stroke:none" transform="scale(1,-1) translate(0,-256)" /></svg>