<?xml version="1.0" encoding="utf-8" ?>
<svg baseProfile="full" height="256" version="1.1" width="256" xmlns="http://www.w3.org/2000/svg" xmlns:ev="http://www.w3.org/2001/xml-events" xmlns:xlink="http://www.w3.org/1999/xlink"><defs /><path d="M2412 791V-287H400V647L503 863L615 909L633 897Q649 886 668.0 872.5Q687 859 705.0 845.0Q723 831 738.5 817.0Q754 803 763 791L1108 855Q1149 949 1191.5 1040.0Q1234 1131 1281 1222Q1293 1244 1312.5 1272.5Q1332 1301 1353.5 1330.5Q1375 1360 1396.5 1388.0Q1418 1416 1434 1438L1693 1493L1953 1438Z" style="fill:#13a10e;stroke:none" transform="scale(1,-1) translate(0,-256)" /></svg>