<?xml version="1.0" encoding="utf-8" ?>
<svg baseProfile="full" height="256" version="1.1" width="256" xmlns="http://www.w3.org/2000/svg" xmlns:ev="http://www.w3.org/2001/xml-events" xmlns:xlink="http://www.w3.org/1999/xlink"><defs /><path d="M1693 1725Q1718 1725 1741.0 1714.0Q1764 1703 1778 1683L1953 1438H1837V1294L1693 1438L1550 1294V1438H1434L1608 1683Q1622 1702 1646.0 1713.5Q1670 1725 1693 1725ZM615 1006Q638 1006 654.5 994.0Q671 982 682 962Q703 920 721.0 877.0Q739 834 759 791H687L615 863L543 791V863H503L548 955Q559 978 573.0 992.0Q587 1006 615 1006Z" style="fill:#f2f2f2;stroke:none" transform="scale(1,-1) translate(0,-256)" /></svg>