<?xml version="1.0" encoding="utf-8" ?>
<svg baseProfile="full" height="256" version="1.1" width="256" xmlns="http://www.w3.org/2000/svg" xmlns:ev="http://www.w3.org/2001/xml-events" xmlns:xlink="http://www.w3.org/1999/xlink"><defs /><path d="M795 1510Q816 1510 836.0 1492.5Q856 1475 874.0 1447.0Q892 1419 907.0 1384.5Q922 1350 934.0 1316.5Q946 1283 954.5 1253.5Q963 1224 967 1207Q953 1159 916.5 1125.5Q880 1092 831 1082Q826 1087 814.0 1097.0Q802 1107 795 1107Q791 1107 786.0 1104.0Q781 1101 776.0 1097.0Q771 1093 766.5 1089.0Q762 1085 759 1082Q728 1088 701.5 1104.5Q675 1121 656.0 1144.5Q637 1168 626.0 1197.0Q615 1226 615 1258V1330Q615 1367 629.0 1400.0Q643 1433 667.5 1457.5Q692 1482 724.5 1496.0Q757 1510 795 1510ZM1528 626 1551 502 1478 431V144L1402 72L1334 144V539Q1334 559 1340.0 574.0Q1346 589 1355.5 602.0Q1365 615 1377.0 626.5Q1389 638 1402 651ZM1047 935 1118 995 1190 935V791Q1190 761 1169.0 740.0Q1148 719 1118 719H759Q729 719 708.0 740.0Q687 761 687 791Q687 821 708.0 842.0Q729 863 759 863H1047Z" style="fill:#ffc83d;stroke:none" transform="scale(1,-1) translate(0,-256)" /></svg>