<?xml version="1.0" encoding="utf-8" ?>
<svg baseProfile="full" height="256" version="1.1" width="256" xmlns="http://www.w3.org/2000/svg" xmlns:ev="http://www.w3.org/2001/xml-events" xmlns:xlink="http://www.w3.org/1999/xlink"><defs /><path d="M2376 820Q2413 820 2446.0 806.0Q2479 792 2503.5 767.5Q2528 743 2542.0 710.5Q2556 678 2556 641Q2556 593 2532.0 551.0Q2508 509 2466 485L956 -388Q881 -431 795 -431Q750 -431 705.0 -419.0Q660 -407 624.0 -382.0Q588 -357 565.5 -319.5Q543 -282 543 -232Q543 -195 557.0 -162.5Q571 -130 595.5 -105.5Q620 -81 653.0 -67.0Q686 -53 723 -53Q741 -53 759.0 -56.0Q777 -59 794 -67L1280 214L1278 218L1395 454L1253 699L870 479Q843 464 817.5 448.5Q792 433 765.5 420.5Q739 408 710.5 400.0Q682 392 651 392Q599 392 553.0 412.0Q507 432 473.0 466.5Q439 501 419.5 546.5Q400 592 400 644Q400 699 416.0 738.0Q432 777 459.5 806.0Q487 835 524.0 858.5Q561 882 602 905L878 1063L829 1149Q782 1114 727.5 1096.0Q673 1078 615 1078Q541 1078 475.5 1106.5Q410 1135 361.0 1184.0Q312 1233 284.0 1298.5Q256 1364 256 1438V1510Q256 1584 284.0 1649.5Q312 1715 361.0 1763.5Q410 1812 475.5 1840.5Q541 1869 615 1869Q666 1869 713.5 1855.5Q761 1842 801.5 1816.5Q842 1791 875.0 1754.5Q908 1718 932 1673Q946 1685 969.0 1694.5Q992 1704 1018.5 1710.5Q1045 1717 1070.5 1721.0Q1096 1725 1114 1725H1785Q1843 1725 1890.5 1710.0Q1938 1695 1988 1666Q1996 1695 2012.5 1719.0Q2029 1743 2052.0 1760.5Q2075 1778 2103.0 1787.5Q2131 1797 2161 1797Q2190 1797 2217.0 1788.0Q2244 1779 2267 1762Q2295 1779 2319.0 1788.0Q2343 1797 2376 1797Q2413 1797 2446.0 1783.0Q2479 1769 2503.5 1744.5Q2528 1720 2542.0 1687.5Q2556 1655 2556 1618Q2556 1558 2526.5 1518.5Q2497 1479 2447 1451Q2448 1446 2448.0 1441.5Q2448 1437 2448 1432Q2448 1395 2434.0 1362.0Q2420 1329 2396.0 1304.5Q2372 1280 2339.5 1265.5Q2307 1251 2269 1251Q2235 1251 2212.0 1260.5Q2189 1270 2160 1285L2151 1280Q2136 1201 2089.0 1136.0Q2042 1071 1972 1030L1787 923L1968 612L2286 796Q2326 820 2376 820Z" style="fill:#000000;stroke:none" transform="scale(1,-1) translate(0,-256)" /></svg>