<?xml version="1.0" encoding="utf-8" ?>
<svg baseProfile="full" height="256" version="1.1" width="256" xmlns="http://www.w3.org/2000/svg" xmlns:ev="http://www.w3.org/2001/xml-events" xmlns:xlink="http://www.w3.org/1999/xlink"><defs /><path d="M543 643Q543 672 558.0 697.5Q573 723 598 737L691 791L799 604Q785 596 767.0 584.0Q749 572 729.5 561.0Q710 550 690.0 542.5Q670 535 652 535Q630 535 610.0 543.5Q590 552 575.0 567.0Q560 582 551.5 601.5Q543 621 543 643ZM615 1725Q660 1725 699.0 1708.0Q738 1691 767.5 1662.0Q797 1633 814.0 1594.0Q831 1555 831 1510L805 1473L831 1438Q831 1398 816.5 1360.5Q802 1323 776 1294H759L687 1366H615L400 1510Q400 1555 417.0 1594.0Q434 1633 463.0 1662.0Q492 1691 531.0 1708.0Q570 1725 615 1725Z" style="fill:#f03a17;stroke:none" transform="scale(1,-1) translate(0,-256)" /></svg>