<?xml version="1.0" encoding="utf-8" ?>
<svg baseProfile="full" height="256" version="1.1" width="256" xmlns="http://www.w3.org/2000/svg" xmlns:ev="http://www.w3.org/2001/xml-events" xmlns:xlink="http://www.w3.org/1999/xlink"><defs /><path d="M2376 677Q2392 677 2402.0 666.0Q2412 655 2412 641Q2412 621 2394 610L884 -264Q843 -287 796 -287Q784 -287 765.5 -284.5Q747 -282 729.5 -275.5Q712 -269 699.5 -258.5Q687 -248 687 -232Q687 -217 697.5 -206.5Q708 -196 723 -196Q737 -196 755.0 -206.0Q773 -216 796 -216Q810 -216 823.0 -212.0Q836 -208 848 -201L2358 672Q2368 677 2376 677ZM1020 876 2125 1514Q2124 1531 2124.0 1548.0Q2124 1565 2124 1582V1593Q2124 1603 2124.5 1613.5Q2125 1624 2129.0 1633.0Q2133 1642 2140.0 1647.5Q2147 1653 2161 1653Q2182 1653 2192 1635L2228 1573Q2237 1578 2258.0 1591.5Q2279 1605 2302.5 1618.5Q2326 1632 2346.5 1642.5Q2367 1653 2376 1653Q2391 1653 2401.5 1642.0Q2412 1631 2412 1617Q2412 1608 2407.0 1599.5Q2402 1591 2394 1586L2264 1511Q2268 1503 2275.0 1493.5Q2282 1484 2288.5 1473.0Q2295 1462 2299.5 1451.0Q2304 1440 2304 1431Q2304 1416 2294.0 1405.5Q2284 1395 2269 1395Q2260 1395 2244.5 1402.0Q2229 1409 2212.5 1418.5Q2196 1428 2181.0 1437.0Q2166 1446 2159 1450L1056 814Z" style="fill:#cccccc;stroke:none" transform="scale(1,-1) translate(0,-256)" /></svg>