<?xml version="1.0" encoding="utf-8" ?>
<svg baseProfile="full" height="256" version="1.1" width="256" xmlns="http://www.w3.org/2000/svg" xmlns:ev="http://www.w3.org/2001/xml-events" xmlns:xlink="http://www.w3.org/1999/xlink"><defs /><path d="M1216 1272 1540 1440Q1564 1452 1583.0 1463.0Q1602 1474 1620.5 1484.0Q1639 1494 1658.5 1503.5Q1678 1513 1702 1524Q1703 1524 1716.0 1527.0Q1729 1530 1748.0 1533.5Q1767 1537 1789.0 1541.0Q1811 1545 1831.0 1549.0Q1851 1553 1865.5 1555.5Q1880 1558 1884 1559Q1944 1530 1979.5 1475.0Q2015 1420 2015 1353Q2015 1291 1984.5 1238.5Q1954 1186 1900 1155L1591 976L1735 727L1666 568L1486 583L1163 1143Z" style="fill:#0078d7;stroke:none" transform="scale(1,-1) translate(0,-256)" /></svg>