<?xml version="1.0" encoding="utf-8" ?>
<svg baseProfile="full" height="256" version="1.1" width="256" xmlns="http://www.w3.org/2000/svg" xmlns:ev="http://www.w3.org/2001/xml-events" xmlns:xlink="http://www.w3.org/1999/xlink"><defs /><path d="M1753 791 2037 507Q2054 490 2076.5 476.0Q2099 462 2123.5 452.0Q2148 442 2174.0 436.5Q2200 431 2224 431H2412V-287H1334Q1304 -287 1278.0 -276.0Q1252 -265 1232.5 -245.5Q1213 -226 1201.5 -200.0Q1190 -174 1190 -144V-72L1206 -35L1190 0Q1160 0 1134.0 11.5Q1108 23 1088.5 42.5Q1069 62 1058.0 88.0Q1047 114 1047 144V217L1069 252L1047 286V503L1066 540L1047 575H508Q485 575 465.5 583.5Q446 592 431.5 606.5Q417 621 408.5 640.5Q400 660 400 683Q400 705 408.5 725.0Q417 745 431.5 759.5Q446 774 465.5 782.5Q485 791 508 791H1346L1506 895Z" style="fill:#ffc83d;stroke:none" transform="scale(1,-1) translate(0,-256)" /></svg>