<?xml version="1.0" encoding="utf-8" ?>
<svg baseProfile="full" height="256" version="1.1" width="256" xmlns="http://www.w3.org/2000/svg" xmlns:ev="http://www.w3.org/2001/xml-events" xmlns:xlink="http://www.w3.org/1999/xlink"><defs /><path d="M1334 1653Q1427 1653 1517.5 1635.0Q1608 1617 1694 1581Q1710 1564 1728.5 1543.0Q1747 1522 1766.0 1500.5Q1785 1479 1804.0 1459.5Q1823 1440 1840 1427Q1858 1413 1877.5 1403.5Q1897 1394 1917 1383L2071 1294Q2168 1170 2218.0 1023.0Q2268 876 2268 719Q2268 590 2234.5 470.5Q2201 351 2140.5 247.5Q2080 144 1994.5 58.5Q1909 -27 1805.5 -87.5Q1702 -148 1582.5 -181.5Q1463 -215 1334 -215Q1205 -215 1085.5 -181.5Q966 -148 862.5 -87.5Q759 -27 673.5 58.5Q588 144 527.5 247.5Q467 351 433.5 470.5Q400 590 400 719Q400 877 450.5 1023.0Q501 1169 598 1294L837 1392L910 1552Q1009 1603 1116.0 1628.0Q1223 1653 1334 1653Z" style="fill:#0078d7;stroke:none" transform="scale(1,-1) translate(0,-256)" /></svg>