<?xml version="1.0" encoding="utf-8" ?>
<svg baseProfile="full" height="256" version="1.1" width="256" xmlns="http://www.w3.org/2000/svg" xmlns:ev="http://www.w3.org/2001/xml-events" xmlns:xlink="http://www.w3.org/1999/xlink"><defs /><path d="M1526 1510Q1508 1510 1493.0 1502.5Q1478 1495 1478 1474Q1478 1450 1495.5 1443.5Q1513 1437 1534 1437Q1543 1437 1551.5 1437.5Q1560 1438 1567 1438Q1577 1438 1586.5 1437.0Q1596 1436 1604.0 1432.5Q1612 1429 1617.0 1421.5Q1622 1414 1622 1402Q1622 1388 1616.5 1380.5Q1611 1373 1602.0 1369.5Q1593 1366 1582.5 1365.5Q1572 1365 1562 1365Q1582 1361 1596.5 1349.5Q1611 1338 1625.0 1325.5Q1639 1313 1654.5 1303.5Q1670 1294 1693 1294H1729Q1744 1294 1754.5 1283.5Q1765 1273 1765 1258Q1765 1233 1749.0 1227.5Q1733 1222 1714 1222H1693Q1679 1222 1668.5 1211.0Q1658 1200 1658 1186Q1658 1172 1647.0 1161.0Q1636 1150 1622 1150Q1592 1150 1571.0 1129.0Q1550 1108 1550 1078Q1550 1052 1538.5 1036.0Q1527 1020 1513.5 1005.5Q1500 991 1489.0 975.5Q1478 960 1478 935V915Q1478 906 1477.0 896.5Q1476 887 1472.5 879.5Q1469 872 1461.5 867.5Q1454 863 1442 863Q1422 863 1416.0 874.0Q1410 885 1406.0 898.5Q1402 912 1396.0 923.5Q1390 935 1370 935H1262Q1236 935 1222.0 924.5Q1208 914 1200.5 898.0Q1193 882 1191.5 862.5Q1190 843 1190 825Q1190 805 1192.0 786.0Q1194 767 1201.5 752.0Q1209 737 1223.5 728.0Q1238 719 1262 719Q1282 719 1288.0 730.0Q1294 741 1298.0 754.5Q1302 768 1308.0 779.5Q1314 791 1334 791Q1354 791 1360.0 779.5Q1366 768 1370.0 754.5Q1374 741 1380.0 730.0Q1386 719 1406 719Q1426 719 1432.0 707.5Q1438 696 1442.0 682.5Q1446 669 1452.0 658.0Q1458 647 1478 647H1693Q1723 647 1749.0 635.5Q1775 624 1794.5 604.5Q1814 585 1825.5 559.0Q1837 533 1837 503Q1837 474 1858.5 452.5Q1880 431 1909 431Q1938 431 1959.5 410.0Q1981 389 1981 360Q1981 313 1961.0 280.5Q1941 248 1909 216L1693 0Q1672 -21 1655.0 -35.0Q1638 -49 1619.5 -57.0Q1601 -65 1579.0 -68.5Q1557 -72 1527 -72Q1507 -72 1492.5 -65.5Q1478 -59 1478 -36Q1478 -16 1489.0 -10.0Q1500 -4 1513.5 0.0Q1527 4 1538.5 10.0Q1550 16 1550 36V216Q1550 246 1529.0 267.0Q1508 288 1478 288Q1454 288 1439.5 297.0Q1425 306 1417.5 320.5Q1410 335 1408.0 353.5Q1406 372 1406 391Q1406 421 1408.0 446.0Q1410 471 1417.5 493.0Q1425 515 1439.5 535.0Q1454 555 1478 575Q1433 575 1398.0 595.0Q1363 615 1334 647Q1313 671 1293.5 685.0Q1274 699 1253.5 706.5Q1233 714 1209.0 716.5Q1185 719 1154 719H1118Q1089 719 1068.0 740.5Q1047 762 1047 791Q1047 826 1036.5 851.0Q1026 876 1010.0 896.5Q994 917 975.0 934.5Q956 952 940.0 972.5Q924 993 913.5 1018.0Q903 1043 903 1078Q903 1123 886.0 1162.0Q869 1201 839.5 1230.5Q810 1260 771.0 1277.0Q732 1294 687 1294H599Q662 1375 741.5 1439.5Q821 1504 912 1552L975 1510H1118Q1139 1510 1144.5 1498.5Q1150 1487 1152.0 1473.5Q1154 1460 1160.5 1449.0Q1167 1438 1190 1438Q1205 1438 1217.5 1448.0Q1230 1458 1230 1474Q1234 1492 1243.0 1511.0Q1252 1530 1265.0 1545.5Q1278 1561 1295.5 1571.0Q1313 1581 1334 1581H1694Q1806 1535 1900.5 1461.5Q1995 1388 2070 1294H1981Q1928 1294 1890.0 1310.0Q1852 1326 1821.5 1350.0Q1791 1374 1764.5 1402.0Q1738 1430 1708.0 1454.0Q1678 1478 1640.0 1494.0Q1602 1510 1550 1510ZM1442 1438Q1422 1438 1416.0 1426.5Q1410 1415 1406.0 1401.5Q1402 1388 1396.0 1377.0Q1390 1366 1370 1366Q1358 1366 1346.5 1367.0Q1335 1368 1323 1368Q1313 1368 1302.5 1367.0Q1292 1366 1283.0 1362.0Q1274 1358 1268.0 1350.5Q1262 1343 1262 1330Q1262 1317 1268.0 1309.5Q1274 1302 1283.0 1298.0Q1292 1294 1302.5 1293.0Q1313 1292 1323 1292Q1335 1292 1346.5 1293.0Q1358 1294 1370 1294Q1390 1294 1396.0 1282.5Q1402 1271 1406.0 1257.5Q1410 1244 1416.0 1233.0Q1422 1222 1442 1222Q1467 1222 1472.5 1238.0Q1478 1254 1478 1273V1294Q1478 1322 1496.0 1342.5Q1514 1363 1542 1366H1514Q1494 1366 1488.0 1377.0Q1482 1388 1478.5 1401.5Q1475 1415 1468.5 1426.5Q1462 1438 1442 1438ZM1556 1366Q1558 1365 1561 1365Z" style="fill:#16c60c;stroke:none" transform="scale(1,-1) translate(0,-256)" /></svg>