<?xml version="1.0" encoding="utf-8" ?>
<svg baseProfile="full" height="256" version="1.1" width="256" xmlns="http://www.w3.org/2000/svg" xmlns:ev="http://www.w3.org/2001/xml-events" xmlns:xlink="http://www.w3.org/1999/xlink"><defs /><path d="M472 -431Q427 -431 388.0 -414.0Q349 -397 319.5 -367.5Q290 -338 273.0 -299.0Q256 -260 256 -215V1510Q256 1554 273.5 1593.0Q291 1632 320.5 1661.5Q350 1691 389.0 1708.0Q428 1725 472 1725H619Q625 1756 641.5 1782.5Q658 1809 681.5 1828.0Q705 1847 734.0 1858.0Q763 1869 795 1869H1154Q1185 1869 1214.5 1858.0Q1244 1847 1267.5 1828.0Q1291 1809 1307.5 1782.5Q1324 1756 1330 1725H1478Q1522 1725 1561.0 1708.0Q1600 1691 1629.5 1661.5Q1659 1632 1676.0 1593.0Q1693 1554 1693 1510V-215Q1693 -260 1676.0 -299.0Q1659 -338 1630.0 -367.5Q1601 -397 1562.0 -414.0Q1523 -431 1478 -431Z" style="fill:#000000;stroke:none" transform="scale(1,-1) translate(0,-256)" /></svg>