<?xml version="1.0" encoding="utf-8" ?>
<svg baseProfile="full" height="256" version="1.1" width="256" xmlns="http://www.w3.org/2000/svg" xmlns:ev="http://www.w3.org/2001/xml-events" xmlns:xlink="http://www.w3.org/1999/xlink"><defs /><path d="M1011 1294Q1033 1294 1053.0 1285.5Q1073 1277 1087.0 1262.0Q1101 1247 1109.5 1227.5Q1118 1208 1118 1186V1042Q1118 1020 1109.5 1000.5Q1101 981 1086.5 966.5Q1072 952 1052.5 943.5Q1033 935 1011 935Q989 935 969.5 943.5Q950 952 935.0 966.0Q920 980 911.5 999.5Q903 1019 903 1042V1186Q903 1208 911.5 1228.0Q920 1248 934.5 1262.5Q949 1277 968.5 1285.5Q988 1294 1011 1294ZM1801 1294Q1823 1294 1843.0 1285.5Q1863 1277 1877.5 1262.5Q1892 1248 1900.5 1228.0Q1909 1208 1909 1186V1042Q1909 1019 1900.5 999.5Q1892 980 1877.0 966.0Q1862 952 1842.5 943.5Q1823 935 1801 935Q1779 935 1759.5 943.5Q1740 952 1725.0 966.5Q1710 981 1701.5 1000.5Q1693 1020 1693 1042V1186Q1693 1208 1701.5 1227.5Q1710 1247 1725.0 1262.0Q1740 1277 1759.5 1285.5Q1779 1294 1801 1294ZM1406 360Q1392 360 1378.0 365.0Q1364 370 1355 381L1190 575H1622L1457 381Q1448 370 1434.0 365.0Q1420 360 1406 360Z" style="fill:#000000;stroke:none" transform="scale(1,-1) translate(0,-256)" /></svg>