<?xml version="1.0" encoding="utf-8" ?>
<svg baseProfile="full" height="256" version="1.1" width="256" xmlns="http://www.w3.org/2000/svg" xmlns:ev="http://www.w3.org/2001/xml-events" xmlns:xlink="http://www.w3.org/1999/xlink"><defs /><path d="M400 0Q400 14 401.0 29.0Q402 44 405 58L639 1122Q655 1194 686.5 1262.0Q718 1330 761.5 1391.0Q805 1452 859.5 1504.5Q914 1557 975 1597V0Q975 -60 952.5 -112.0Q930 -164 891.0 -203.0Q852 -242 799.5 -264.5Q747 -287 687 -287Q627 -287 575.0 -264.5Q523 -242 484.0 -203.0Q445 -164 422.5 -112.0Q400 -60 400 0ZM1837 1597Q1898 1557 1952.5 1505.0Q2007 1453 2050.5 1391.5Q2094 1330 2125.5 1262.0Q2157 1194 2173 1122L2406 58Q2412 30 2412 0Q2412 -59 2389.5 -111.5Q2367 -164 2328.0 -203.0Q2289 -242 2236.5 -264.5Q2184 -287 2125 -287Q2065 -287 2012.5 -264.5Q1960 -242 1921.0 -203.0Q1882 -164 1859.5 -112.0Q1837 -60 1837 0Z" style="fill:#8e562e;stroke:none" transform="scale(1,-1) translate(0,-256)" /></svg>