<?xml version="1.0" encoding="utf-8" ?>
<svg baseProfile="full" height="256" version="1.1" width="256" xmlns="http://www.w3.org/2000/svg" xmlns:ev="http://www.w3.org/2001/xml-events" xmlns:xlink="http://www.w3.org/1999/xlink"><defs /><path d="M1478 1721 1555 1056Q1557 1038 1557.0 1020.5Q1557 1003 1562 985Q1571 950 1591.0 930.0Q1611 910 1637.5 900.0Q1664 890 1694.5 887.5Q1725 885 1755 885L1981 791Q1968 778 1955.0 761.0Q1942 744 1932.0 725.5Q1922 707 1915.5 686.5Q1909 666 1909 647V252Q1909 200 1889.0 154.5Q1869 109 1835.0 74.5Q1801 40 1755.5 20.0Q1710 0 1658 0Q1608 0 1563.0 18.5Q1518 37 1483.5 69.5Q1449 102 1428.5 146.0Q1408 190 1406 241Q1404 191 1383.0 147.0Q1362 103 1328.0 70.5Q1294 38 1249.0 19.0Q1204 0 1154 0Q1102 0 1056.0 20.0Q1010 40 976.0 74.0Q942 108 922.5 154.0Q903 200 903 252V647Q903 691 880.5 725.0Q858 759 831.0 791.0Q804 823 781.5 857.0Q759 891 759 935V1387Q814 1466 885.5 1529.0Q957 1592 1040.5 1635.5Q1124 1679 1217.0 1702.0Q1310 1725 1406 1725Q1424 1725 1442.0 1724.0Q1460 1723 1478 1721Z" style="fill:#ffffff;stroke:none" transform="scale(1,-1) translate(0,-256)" /></svg>