<?xml version="1.0" encoding="utf-8" ?>
<svg baseProfile="full" height="256" version="1.1" width="256" xmlns="http://www.w3.org/2000/svg" xmlns:ev="http://www.w3.org/2001/xml-events" xmlns:xlink="http://www.w3.org/1999/xlink"><defs /><path d="M2125 -431Q2065 -431 2008.0 -414.5Q1951 -398 1901.5 -368.0Q1852 -338 1811.0 -295.0Q1770 -252 1742 -199Q1722 -251 1688.0 -294.0Q1654 -337 1610.0 -367.5Q1566 -398 1514.0 -414.5Q1462 -431 1406 -431Q1350 -431 1298.0 -414.5Q1246 -398 1202.0 -367.5Q1158 -337 1124.0 -294.0Q1090 -251 1070 -199Q1042 -252 1001.0 -295.0Q960 -338 910.5 -368.0Q861 -398 804.0 -414.5Q747 -431 687 -431Q598 -431 519.5 -397.0Q441 -363 382.5 -304.5Q324 -246 290.0 -167.5Q256 -89 256 0Q256 42 265 86Q291 220 321.5 352.5Q352 485 381 619Q410 753 437.5 886.0Q465 1019 498 1153Q537 1311 622.5 1442.5Q708 1574 827.5 1669.0Q947 1764 1094.5 1816.5Q1242 1869 1406 1869Q1568 1869 1715.5 1816.5Q1863 1764 1982.5 1669.5Q2102 1575 2188.0 1444.5Q2274 1314 2313 1157Q2348 1015 2377.5 872.5Q2407 730 2438 587Q2465 462 2494.5 338.0Q2524 214 2547 88Q2551 66 2553.5 44.5Q2556 23 2556 0Q2556 -89 2522.0 -167.5Q2488 -246 2429.5 -304.5Q2371 -363 2292.5 -397.0Q2214 -431 2125 -431Z" style="fill:#000000;stroke:none" transform="scale(1,-1) translate(0,-256)" /></svg>