<?xml version="1.0" encoding="utf-8" ?>
<svg baseProfile="full" height="256" version="1.1" width="256" xmlns="http://www.w3.org/2000/svg" xmlns:ev="http://www.w3.org/2001/xml-events" xmlns:xlink="http://www.w3.org/1999/xlink"><defs /><path d="M1981 1366Q2029 1366 2072.5 1351.0Q2116 1336 2152.0 1309.0Q2188 1282 2215.0 1244.5Q2242 1207 2256 1162Q2231 1102 2173.5 1056.5Q2116 1011 2039.5 977.5Q1963 944 1874.5 922.0Q1786 900 1699.5 887.0Q1613 874 1535.5 868.5Q1458 863 1403 863Q1276 863 1150.0 878.5Q1024 894 903 931V503Q903 473 891.5 447.0Q880 421 860.5 401.5Q841 382 815.0 371.0Q789 360 759 360H543Q513 360 487.0 371.0Q461 382 441.5 401.5Q422 421 411.0 447.0Q400 473 400 503V1091Q400 1148 424.0 1198.0Q448 1248 488.0 1285.5Q528 1323 580.0 1344.5Q632 1366 687 1366Z" style="fill:#0078d7;stroke:none" transform="scale(1,-1) translate(0,-256)" /></svg>