<?xml version="1.0" encoding="utf-8" ?>
<svg baseProfile="full" height="256" version="1.1" width="256" xmlns="http://www.w3.org/2000/svg" xmlns:ev="http://www.w3.org/2001/xml-events" xmlns:xlink="http://www.w3.org/1999/xlink"><defs /><path d="M2349 1222Q2349 1167 2319.5 1121.5Q2290 1076 2242.0 1039.0Q2194 1002 2133.5 973.0Q2073 944 2011.5 922.5Q1950 901 1893.0 886.5Q1836 872 1796 864Q1699 846 1601.5 837.5Q1504 829 1406 829Q1308 829 1210.5 837.5Q1113 846 1016 864Q975 872 918.5 886.5Q862 901 800.5 922.5Q739 944 678.5 973.0Q618 1002 570.0 1039.0Q522 1076 492.5 1122.0Q463 1168 463 1222Q463 1278 494.0 1324.5Q525 1371 575.0 1409.0Q625 1447 688.0 1476.0Q751 1505 815.0 1527.0Q879 1549 938.0 1563.0Q997 1577 1039 1584Q1130 1600 1221.5 1607.5Q1313 1615 1406 1615Q1499 1615 1590.5 1607.5Q1682 1600 1773 1584Q1815 1577 1874.0 1563.0Q1933 1549 1997.0 1527.0Q2061 1505 2124.0 1476.0Q2187 1447 2237.0 1409.0Q2287 1371 2318.0 1324.5Q2349 1278 2349 1222Z" style="fill:#cccccc;stroke:none" transform="scale(1,-1) translate(0,-256)" /></svg>