<?xml version="1.0" encoding="utf-8" ?>
<svg baseProfile="full" height="256" version="1.1" width="256" xmlns="http://www.w3.org/2000/svg" xmlns:ev="http://www.w3.org/2001/xml-events" xmlns:xlink="http://www.w3.org/1999/xlink"><defs /><path d="M2243 1197Q2256 1168 2261.5 1139.0Q2267 1110 2268 1078Q2269 1007 2270.5 936.5Q2272 866 2272 795Q2272 783 2268.5 756.5Q2265 730 2260.5 699.5Q2256 669 2251.5 640.5Q2247 612 2245 598L2207 567L2228 472Q2228 471 2227.5 467.0Q2227 463 2227 462L2177 360L2204 295L2193 219Q2183 209 2173.0 195.5Q2163 182 2163 168Q2163 154 2166.0 141.0Q2169 128 2169 114Q2169 98 2156.5 70.0Q2144 42 2127.0 12.0Q2110 -18 2092.0 -44.0Q2074 -70 2063 -82Q2058 -87 2051.0 -89.0Q2044 -91 2036.5 -92.5Q2029 -94 2022.0 -96.0Q2015 -98 2010 -103Q2005 -108 2003.5 -114.5Q2002 -121 2001.0 -128.0Q2000 -135 1998.0 -142.0Q1996 -149 1991 -153Q1979 -165 1952.5 -183.0Q1926 -201 1896.0 -218.0Q1866 -235 1837.5 -247.0Q1809 -259 1793 -259Q1781 -259 1769.0 -256.5Q1757 -254 1745 -254Q1734 -254 1727.5 -258.0Q1721 -262 1715.5 -267.5Q1710 -273 1704.5 -278.0Q1699 -283 1690 -284Q1679 -286 1667.5 -286.5Q1656 -287 1645 -287H1623Q1622 -287 1613.0 -282.0Q1604 -277 1593.5 -271.0Q1583 -265 1574.5 -260.0Q1566 -255 1565 -255L1478 -287Q1470 -288 1463.0 -288.5Q1456 -289 1448 -289Q1416 -289 1383.0 -283.0Q1350 -277 1323 -267Q1298 -275 1279.0 -281.0Q1260 -287 1234 -287Q1223 -287 1213.0 -287.0Q1203 -287 1192 -285Q1183 -284 1177.5 -278.5Q1172 -273 1166.5 -266.5Q1161 -260 1155.0 -255.0Q1149 -250 1140 -250Q1124 -250 1109.5 -256.5Q1095 -263 1079 -263Q1071 -263 1053.0 -257.0Q1035 -251 1012.5 -241.0Q990 -231 966.5 -218.5Q943 -206 923.0 -193.5Q903 -181 890.5 -170.0Q878 -159 878 -152Q878 -141 882.0 -130.5Q886 -120 886 -109Q886 -99 880.5 -96.5Q875 -94 867 -94Q856 -94 845.0 -96.0Q834 -98 823 -98Q820 -98 816.0 -97.5Q812 -97 809 -94Q798 -84 779.5 -58.5Q761 -33 743.0 -3.0Q725 27 712.0 54.5Q699 82 699 95Q699 111 706.5 125.5Q714 140 714 156Q714 169 703.5 174.5Q693 180 690 191L671 200L648 327L673 390Q659 419 644.5 446.5Q630 474 616 503L559 813Q555 831 549.0 856.0Q543 881 543 899V1078Q543 1122 556.5 1164.0Q570 1206 595 1242L556 1281Q561 1294 564.5 1307.5Q568 1321 572.0 1334.0Q576 1347 582.0 1359.5Q588 1372 599 1382L687 1294H903L939 1330L764 1505Q790 1516 816.5 1525.0Q843 1534 870 1542L1011 1402L1154 1546L1114 1586Q1172 1594 1231.5 1594.5Q1291 1595 1350 1597L1298 1546L1442 1402L1586 1546L1532 1599Q1588 1595 1643.5 1587.5Q1699 1580 1754 1570L1729 1546L1873 1402L1990 1519Q2016 1510 2038.5 1496.5Q2061 1483 2085 1470L1945 1330L1981 1294H2171L2184 1281L2255 1353Q2272 1330 2286.0 1306.5Q2300 1283 2300 1254ZM1226 1474 1083 1330 1118 1294H1334L1370 1330ZM1658 1474 1514 1330 1550 1294H1765L1801 1330Z" style="fill:#e5e5e5;stroke:none" transform="scale(1,-1) translate(0,-256)" /></svg>