<?xml version="1.0" encoding="utf-8" ?>
<svg baseProfile="full" height="256" version="1.1" width="256" xmlns="http://www.w3.org/2000/svg" xmlns:ev="http://www.w3.org/2001/xml-events" xmlns:xlink="http://www.w3.org/1999/xlink"><defs /><path d="M1047 1040V503Q1047 473 1035.5 447.0Q1024 421 1004.5 401.5Q985 382 959.0 371.0Q933 360 903 360H759L543 503V1091Q543 1130 558.0 1171.0Q573 1212 595 1244Q627 1207 672.0 1177.5Q717 1148 767.0 1125.0Q817 1102 869.0 1085.5Q921 1069 968 1057Q987 1052 1007.0 1047.0Q1027 1042 1047 1040Z" style="fill:#0063b1;stroke:none" transform="scale(1,-1) translate(0,-256)" /></svg>