<?xml version="1.0" encoding="utf-8" ?>
<svg baseProfile="full" height="256" version="1.1" width="256" xmlns="http://www.w3.org/2000/svg" xmlns:ev="http://www.w3.org/2001/xml-events" xmlns:xlink="http://www.w3.org/1999/xlink"><defs /><path d="M2412 1150Q2412 1081 2381.5 1023.5Q2351 966 2300.5 918.0Q2250 870 2185.5 832.5Q2121 795 2053.0 766.0Q1985 737 1918.5 717.0Q1852 697 1798 686Q1701 666 1603.0 656.5Q1505 647 1406 647Q1307 647 1209.0 656.5Q1111 666 1014 686Q960 697 893.5 717.0Q827 737 759.0 766.0Q691 795 626.5 832.5Q562 870 511.5 918.0Q461 966 430.5 1023.5Q400 1081 400 1150V1222H2412Z" style="fill:#e5e5e5;stroke:none" transform="scale(1,-1) translate(0,-256)" /></svg>