<?xml version="1.0" encoding="utf-8" ?>
<svg baseProfile="full" height="256" version="1.1" width="256" xmlns="http://www.w3.org/2000/svg" xmlns:ev="http://www.w3.org/2001/xml-events" xmlns:xlink="http://www.w3.org/1999/xlink"><defs /><path d="M1406 1869Q1525 1869 1642.5 1856.5Q1760 1844 1876 1816Q1946 1799 2024.0 1772.5Q2102 1746 2177.5 1708.5Q2253 1671 2321.5 1622.5Q2390 1574 2442.0 1513.5Q2494 1453 2525.0 1380.0Q2556 1307 2556 1222V1150Q2556 1061 2520.0 982.5Q2484 904 2424 840L2336 200Q2321 87 2274.5 -13.5Q2228 -114 2156.0 -194.0Q2084 -274 1989.0 -331.0Q1894 -388 1782 -413Q1722 -427 1663.0 -429.0Q1604 -431 1542 -431H1239Q1163 -431 1088.5 -415.0Q1014 -399 945.0 -368.0Q876 -337 814.0 -292.0Q752 -247 702 -189Q660 -141 630.5 -94.5Q601 -48 580.0 1.0Q559 50 545.5 102.5Q532 155 521 217Q465 221 416.5 245.0Q368 269 332.5 307.5Q297 346 276.5 396.5Q256 447 256 503V1222Q256 1307 287.0 1380.0Q318 1453 370.0 1513.5Q422 1574 490.5 1622.5Q559 1671 634.5 1708.5Q710 1746 787.5 1772.5Q865 1799 936 1816Q1052 1844 1169.5 1856.5Q1287 1869 1406 1869Z" style="fill:#000000;stroke:none" transform="scale(1,-1) translate(0,-256)" /></svg>