<?xml version="1.0" encoding="utf-8" ?>
<svg baseProfile="full" height="256" version="1.1" width="256" xmlns="http://www.w3.org/2000/svg" xmlns:ev="http://www.w3.org/2001/xml-events" xmlns:xlink="http://www.w3.org/1999/xlink"><defs /><path d="M1406 1725Q1505 1725 1603.0 1715.5Q1701 1706 1798 1686Q1852 1674 1918.5 1654.5Q1985 1635 2053.0 1606.0Q2121 1577 2185.5 1539.5Q2250 1502 2300.5 1454.0Q2351 1406 2381.5 1348.0Q2412 1290 2412 1222Q2412 1153 2381.5 1095.5Q2351 1038 2300.5 990.0Q2250 942 2185.5 904.5Q2121 867 2053.0 838.0Q1985 809 1918.5 789.0Q1852 769 1798 758Q1701 738 1603.0 728.5Q1505 719 1406 719Q1307 719 1209.0 728.5Q1111 738 1014 758Q960 769 893.5 789.0Q827 809 759.0 838.0Q691 867 626.5 904.5Q562 942 511.5 990.0Q461 1038 430.5 1095.5Q400 1153 400 1222Q400 1290 430.5 1348.0Q461 1406 511.5 1454.0Q562 1502 626.5 1539.5Q691 1577 759.0 1606.0Q827 1635 893.5 1654.5Q960 1674 1014 1686Q1111 1706 1209.0 1715.5Q1307 1725 1406 1725ZM1582 1006Q1645 1006 1708.0 1006.5Q1771 1007 1834 1010Q1864 1011 1903.5 1013.5Q1943 1016 1985.0 1022.0Q2027 1028 2069.5 1038.0Q2112 1048 2149.0 1064.0Q2186 1080 2214.0 1104.0Q2242 1128 2256 1162Q2268 1190 2268 1222Q2268 1272 2240.0 1314.5Q2212 1357 2167.5 1391.0Q2123 1425 2066.5 1451.5Q2010 1478 1952.5 1498.0Q1895 1518 1842.0 1531.0Q1789 1544 1751 1551Q1666 1567 1580.0 1574.0Q1494 1581 1406 1581Q1318 1581 1231.5 1574.0Q1145 1567 1058 1551Q1020 1544 967.5 1531.0Q915 1518 858.0 1498.0Q801 1478 745.0 1451.5Q689 1425 644.0 1391.0Q599 1357 571.5 1315.0Q544 1273 544 1223Q544 1190 556 1162Q570 1128 598.0 1104.0Q626 1080 662.5 1064.0Q699 1048 741.5 1038.0Q784 1028 826.5 1022.0Q869 1016 908.5 1013.5Q948 1011 978 1010Q1041 1007 1104.0 1006.5Q1167 1006 1230 1006Z" style="fill:#f2f2f2;stroke:none" transform="scale(1,-1) translate(0,-256)" /></svg>