<?xml version="1.0" encoding="utf-8" ?>
<svg baseProfile="full" height="256" version="1.1" width="256" xmlns="http://www.w3.org/2000/svg" xmlns:ev="http://www.w3.org/2001/xml-events" xmlns:xlink="http://www.w3.org/1999/xlink"><defs /><path d="M2295 961 2272 795 2161 683 2245 598 2228 472 2089 611 1945 467 2089 324 2227 462 2204 295 2161 252 2194 219Q2185 159 2167 102L2089 180L1945 36L2063 -82Q2046 -102 2028.5 -119.0Q2011 -136 1991 -153L1873 -36L1729 -179L1807 -257Q1750 -277 1690 -284L1658 -251L1622 -287H1478L1586 -179L1442 -36L1298 -179L1406 -287H1262L1226 -251L1192 -285Q1131 -281 1071 -262L1154 -179L1011 -36L883 -163Q863 -147 844.5 -130.0Q826 -113 809 -94L939 36L795 180L701 86Q690 114 683.0 142.0Q676 170 671 199L723 252L647 328L615 503L795 324L939 467L551 855L530 974Q552 954 575.5 937.0Q599 920 624 905L656 886Q660 884 664.5 882.0Q669 880 672 877L1011 539L1154 683L1094 744Q1154 733 1213.5 727.5Q1273 722 1333 720L1298 683L1442 539L1586 683L1550 719L1555 724Q1619 729 1681.5 737.5Q1744 746 1807 760L1729 683L1873 539L2017 683L1913 787Q1940 795 1967.0 804.0Q1994 813 2020 823L2089 755ZM1298 252 1442 108 1586 252 1442 396ZM2017 252 1873 396 1729 252 1873 108ZM867 252 1011 108 1154 252 1011 396ZM1226 -108 1370 36 1226 180 1083 36ZM1658 -108 1801 36 1658 180 1514 36ZM1226 611 1083 467 1226 324 1370 467ZM1658 611 1514 467 1658 324 1801 467Z" style="fill:#cccccc;stroke:none" transform="scale(1,-1) translate(0,-256)" /></svg>