<?xml version="1.0" encoding="utf-8" ?>
<svg baseProfile="full" height="256" version="1.1" width="256" xmlns="http://www.w3.org/2000/svg" xmlns:ev="http://www.w3.org/2001/xml-events" xmlns:xlink="http://www.w3.org/1999/xlink"><defs /><path d="M1239 -144Q1161 -144 1090.0 -117.5Q1019 -91 963.0 -44.0Q907 3 868.0 68.0Q829 133 815 210L687 912Q686 914 686.0 926.0Q686 938 686 955Q686 972 686.0 991.5Q686 1011 686.5 1028.5Q687 1046 687.0 1059.5Q687 1073 687 1078Q687 1108 698.5 1134.0Q710 1160 729.5 1179.5Q749 1199 775.0 1210.5Q801 1222 831 1222H1981Q2011 1222 2037.0 1210.5Q2063 1199 2082.5 1179.5Q2102 1160 2113.5 1134.0Q2125 1108 2125 1078V778Q2125 751 2122.5 729.0Q2120 707 2116.0 686.5Q2112 666 2108.0 644.0Q2104 622 2100 595L2050 230Q2039 150 2001.0 82.0Q1963 14 1906.0 -36.5Q1849 -87 1776.5 -115.5Q1704 -144 1623 -144Z" style="fill:#0063b1;stroke:none" transform="scale(1,-1) translate(0,-256)" /></svg>