<?xml version="1.0" encoding="utf-8" ?>
<svg baseProfile="full" height="256" version="1.1" width="256" xmlns="http://www.w3.org/2000/svg" xmlns:ev="http://www.w3.org/2001/xml-events" xmlns:xlink="http://www.w3.org/1999/xlink"><defs /><path d="M1254 1066Q1332 1066 1388.0 1038.5Q1444 1011 1480.0 963.5Q1516 916 1533.0 853.0Q1550 790 1550 719V-218Q1543 -220 1525.5 -226.0Q1508 -232 1484.5 -240.0Q1461 -248 1435.5 -256.0Q1410 -264 1388.0 -271.0Q1366 -278 1351.0 -282.5Q1336 -287 1334 -287H1192Q1191 -287 1176.0 -282.0Q1161 -277 1139.0 -269.5Q1117 -262 1091.0 -252.5Q1065 -243 1041.5 -235.0Q1018 -227 999.5 -220.5Q981 -214 975 -212V719Q975 785 990.5 847.5Q1006 910 1040.0 958.5Q1074 1007 1126.5 1036.5Q1179 1066 1254 1066Z" style="fill:#ffffff;stroke:none" transform="scale(1,-1) translate(0,-256)" /></svg>