<?xml version="1.0" encoding="utf-8" ?>
<svg baseProfile="full" height="256" version="1.1" width="256" xmlns="http://www.w3.org/2000/svg" xmlns:ev="http://www.w3.org/2001/xml-events" xmlns:xlink="http://www.w3.org/1999/xlink"><defs /><path d="M2268 647V357L1837 542V144Q1837 34 1810 -71Q1843 -100 1863.0 -131.0Q1883 -162 1893.5 -195.0Q1904 -228 1907.0 -263.0Q1910 -298 1910 -335Q1910 -358 1909.5 -382.0Q1909 -406 1909 -431H615Q615 -407 614.5 -383.0Q614 -359 614 -335Q614 -295 618.0 -259.0Q622 -223 633.0 -190.5Q644 -158 663.5 -128.5Q683 -99 715 -71Q701 -18 694.0 36.0Q687 90 687 144V542L256 357V647Q256 728 288.5 794.0Q321 860 378 916L831 1355V1438H472V1581Q472 1640 495.0 1692.5Q518 1745 557.0 1784.0Q596 1823 648.0 1846.0Q700 1869 759 1869H1262Q1360 1869 1439.5 1832.5Q1519 1796 1575.5 1733.0Q1632 1670 1662.5 1586.0Q1693 1502 1693 1408V1355L2146 916Q2203 860 2235.5 794.0Q2268 728 2268 647Z" style="fill:#000000;stroke:none" transform="scale(1,-1) translate(0,-256)" /></svg>