<?xml version="1.0" encoding="utf-8" ?>
<svg baseProfile="full" height="256" version="1.1" width="256" xmlns="http://www.w3.org/2000/svg" xmlns:ev="http://www.w3.org/2001/xml-events" xmlns:xlink="http://www.w3.org/1999/xlink"><defs /><path d="M2125 575 1693 760V144Q1693 47 1667.5 -47.0Q1642 -141 1591 -224L1543 -261L1447 -215H1071L976 -257Q962 -244 947.5 -231.5Q933 -219 922 -204Q916 -196 912.0 -186.0Q908 -176 903 -167Q868 -93 849.5 -15.0Q831 63 831 144V760L400 575V608Q400 642 402.5 668.5Q405 695 413.0 718.5Q421 742 436.0 764.0Q451 786 476 810L975 1294V1438Q975 1497 997.5 1549.5Q1020 1602 1059.0 1641.0Q1098 1680 1150.5 1702.5Q1203 1725 1262 1725Q1321 1725 1373.5 1702.0Q1426 1679 1465.0 1640.0Q1504 1601 1527.0 1549.0Q1550 1497 1550 1438V1294L2049 810Q2077 783 2092.5 759.0Q2108 735 2115.0 710.5Q2122 686 2123.5 659.0Q2125 632 2125 599Z" style="fill:#383838;stroke:none" transform="scale(1,-1) translate(0,-256)" /></svg>