<?xml version="1.0" encoding="utf-8" ?>
<svg baseProfile="full" height="256" version="1.1" width="256" xmlns="http://www.w3.org/2000/svg" xmlns:ev="http://www.w3.org/2001/xml-events" xmlns:xlink="http://www.w3.org/1999/xlink"><defs /><path d="M1262 1150Q1321 1150 1373.5 1127.0Q1426 1104 1465.0 1065.0Q1504 1026 1527.0 974.0Q1550 922 1550 863V731Q1548 789 1524.5 839.0Q1501 889 1461.5 926.0Q1422 963 1370.5 984.5Q1319 1006 1262 1006Q1205 1006 1153.5 984.5Q1102 963 1063.0 926.0Q1024 889 1000.5 839.0Q977 789 975 731V863Q975 922 997.5 974.5Q1020 1027 1059.0 1066.0Q1098 1105 1150.5 1127.5Q1203 1150 1262 1150ZM1406 1581Q1436 1581 1462.0 1570.0Q1488 1559 1507.5 1539.5Q1527 1520 1538.5 1494.0Q1550 1468 1550 1438Q1550 1408 1538.5 1382.0Q1527 1356 1507.5 1336.5Q1488 1317 1462.0 1305.5Q1436 1294 1406 1294H1262V1438Q1262 1468 1273.5 1494.0Q1285 1520 1304.5 1539.5Q1324 1559 1350.0 1570.0Q1376 1581 1406 1581ZM1047 -144Q1077 -144 1103.0 -155.0Q1129 -166 1148.5 -185.5Q1168 -205 1179.0 -231.0Q1190 -257 1190 -287H759Q759 -257 770.5 -231.0Q782 -205 801.5 -185.5Q821 -166 847.0 -155.0Q873 -144 903 -144L975 -215ZM1622 -144Q1652 -144 1678.0 -155.0Q1704 -166 1723.5 -185.5Q1743 -205 1754.0 -231.0Q1765 -257 1765 -287H1334Q1334 -257 1345.5 -231.0Q1357 -205 1376.5 -185.5Q1396 -166 1422.0 -155.0Q1448 -144 1478 -144L1550 -215Z" style="fill:#ffb900;stroke:none" transform="scale(1,-1) translate(0,-256)" /></svg>