<?xml version="1.0" encoding="utf-8" ?>
<svg baseProfile="full" height="256" version="1.1" width="256" xmlns="http://www.w3.org/2000/svg" xmlns:ev="http://www.w3.org/2001/xml-events" xmlns:xlink="http://www.w3.org/1999/xlink"><defs /><path d="M2412 360Q2412 330 2391.0 309.0Q2370 288 2340 288H2197L2412 72Q2412 42 2391.0 21.0Q2370 0 2340 0H2197V-287H1118L1334 216L903 935V1134L1072 1210Q1093 1220 1113.0 1230.5Q1133 1241 1156 1248Q1177 1255 1198.5 1257.0Q1220 1259 1242 1263L1414 1292L1478 1222H1550Q1639 1222 1722.0 1199.0Q1805 1176 1876.5 1133.5Q1948 1091 2007.0 1032.0Q2066 973 2108.5 901.5Q2151 830 2174.0 747.0Q2197 664 2197 575Z" style="fill:#ffffff;stroke:none" transform="scale(1,-1) translate(0,-256)" /></svg>