<?xml version="1.0" encoding="utf-8" ?>
<svg baseProfile="full" height="256" version="1.1" width="256" xmlns="http://www.w3.org/2000/svg" xmlns:ev="http://www.w3.org/2001/xml-events" xmlns:xlink="http://www.w3.org/1999/xlink"><defs /><path d="M1764 1336Q1883 1303 1984.0 1236.0Q2085 1169 2160.0 1076.5Q2235 984 2281.5 872.0Q2328 760 2338 637L2556 419V412Q2556 379 2554.5 351.0Q2553 323 2546.0 297.5Q2539 272 2525.0 248.5Q2511 225 2486 201L2556 132V72Q2556 27 2539.0 -12.0Q2522 -51 2492.5 -80.5Q2463 -110 2424.0 -127.0Q2385 -144 2340 -144V-431H900L1036 -115Q991 -75 964.0 -33.5Q937 8 923.5 52.5Q910 97 906.0 144.0Q902 191 902 241Q902 270 902.5 299.5Q903 329 903 360H803Q758 360 718.0 363.5Q678 367 640.5 378.5Q603 390 567.5 410.0Q532 430 498 463L256 343V575Q256 658 282.0 735.0Q308 812 355.5 875.5Q403 939 469.0 986.0Q535 1033 615 1057V1330Q615 1382 635.0 1428.0Q655 1474 689.0 1508.0Q723 1542 769.0 1561.5Q815 1581 867 1581H927Q943 1614 966.5 1640.5Q990 1667 1019.5 1685.5Q1049 1704 1083.5 1714.5Q1118 1725 1154 1725H1229Q1268 1792 1334.0 1830.5Q1400 1869 1478 1869H1765V1366Q1765 1358 1765.0 1351.0Q1765 1344 1764 1336Z" style="fill:#000000;stroke:none" transform="scale(1,-1) translate(0,-256)" /></svg>