<?xml version="1.0" encoding="utf-8" ?>
<svg baseProfile="full" height="256" version="1.1" width="256" xmlns="http://www.w3.org/2000/svg" xmlns:ev="http://www.w3.org/2001/xml-events" xmlns:xlink="http://www.w3.org/1999/xlink"><defs /><path d="M1370 1078Q1392 1078 1411.5 1069.5Q1431 1061 1446.0 1047.0Q1461 1033 1469.5 1013.0Q1478 993 1478 971V827Q1478 804 1469.5 784.5Q1461 765 1446.5 750.5Q1432 736 1412.0 727.5Q1392 719 1370 719Q1347 719 1327.5 727.5Q1308 736 1293.5 750.5Q1279 765 1270.5 784.5Q1262 804 1262 827V971Q1262 993 1270.5 1013.0Q1279 1033 1294.0 1047.0Q1309 1061 1328.5 1069.5Q1348 1078 1370 1078Z" style="fill:#000000;stroke:none" transform="scale(1,-1) translate(0,-256)" /></svg>