<?xml version="1.0" encoding="utf-8" ?>
<svg baseProfile="full" height="256" version="1.1" width="256" xmlns="http://www.w3.org/2000/svg" xmlns:ev="http://www.w3.org/2001/xml-events" xmlns:xlink="http://www.w3.org/1999/xlink"><defs /><path d="M1047 647Q987 647 934.5 669.5Q882 692 843.0 731.0Q804 770 781.5 822.5Q759 875 759 935Q759 994 782.0 1046.5Q805 1099 844.0 1138.0Q883 1177 935.5 1199.5Q988 1222 1047 1222Q1106 1222 1158.5 1199.5Q1211 1177 1250.0 1138.0Q1289 1099 1311.5 1046.5Q1334 994 1334 935Q1334 876 1311.5 823.5Q1289 771 1250.0 732.0Q1211 693 1158.5 670.0Q1106 647 1047 647Z" style="fill:#fce100;stroke:none" transform="scale(1,-1) translate(0,-256)" /></svg>