<?xml version="1.0" encoding="utf-8" ?>
<svg baseProfile="full" height="256" version="1.1" width="256" xmlns="http://www.w3.org/2000/svg" xmlns:ev="http://www.w3.org/2001/xml-events" xmlns:xlink="http://www.w3.org/1999/xlink"><defs /><path d="M2181 1003Q2261 992 2329.5 954.5Q2398 917 2448.5 860.0Q2499 803 2527.5 730.0Q2556 657 2556 576Q2556 484 2520.0 405.0Q2484 326 2423.0 268.0Q2362 210 2281.0 177.0Q2200 144 2109 144H903Q799 144 707.5 183.5Q616 223 547.5 291.0Q479 359 439.5 450.5Q400 542 400 646Q400 651 377.5 655.5Q355 660 328.0 668.5Q301 677 278.5 691.5Q256 706 256 731Q256 754 259.5 771.0Q263 788 282 805L429 935L282 1065Q274 1072 265.0 1086.0Q256 1100 256 1111Q256 1146 269.0 1171.0Q282 1196 320 1204L511 1244Q506 1259 495.0 1289.0Q484 1319 473.0 1352.0Q462 1385 453.5 1414.5Q445 1444 445 1456Q445 1489 469.0 1512.5Q493 1536 526 1536Q538 1536 567.5 1527.5Q597 1519 630.0 1508.0Q663 1497 693.0 1486.0Q723 1475 738 1470L777 1662Q783 1691 805.0 1708.5Q827 1726 856 1726Q893 1726 917 1699L1047 1552L1177 1699Q1201 1726 1237 1726Q1266 1726 1288.0 1708.5Q1310 1691 1316 1662L1354 1479Q1402 1494 1451.0 1502.0Q1500 1510 1550 1510Q1663 1510 1766.5 1472.5Q1870 1435 1954.0 1367.5Q2038 1300 2097.5 1207.0Q2157 1114 2181 1003Z" style="fill:#000000;stroke:none" transform="scale(1,-1) translate(0,-256)" /></svg>