<?xml version="1.0" encoding="utf-8" ?>
<svg baseProfile="full" height="256" version="1.1" width="256" xmlns="http://www.w3.org/2000/svg" xmlns:ev="http://www.w3.org/2001/xml-events" xmlns:xlink="http://www.w3.org/1999/xlink"><defs /><path d="M1796 492V206H1850V132H1796V39H1705V132H1508V210Q1564 272 1616.0 344.5Q1668 417 1703 492ZM1631 898H1823V815H1521V849Q1521 889 1536.0 919.0Q1551 949 1573.0 972.5Q1595 996 1621.5 1015.0Q1648 1034 1670.0 1052.5Q1692 1071 1707.0 1091.5Q1722 1112 1722 1137Q1722 1169 1703.0 1182.5Q1684 1196 1655 1196Q1623 1196 1594.5 1183.0Q1566 1170 1543 1150V1237Q1572 1257 1607.0 1266.5Q1642 1276 1677 1276Q1707 1276 1734.0 1268.0Q1761 1260 1780.5 1244.0Q1800 1228 1811.5 1204.0Q1823 1180 1823 1147Q1823 1110 1809.0 1082.0Q1795 1054 1773.5 1031.5Q1752 1009 1727.0 991.5Q1702 974 1680.5 958.5Q1659 943 1645.0 928.5Q1631 914 1631 898ZM982 54V141Q1005 123 1032.0 115.0Q1059 107 1088 107Q1103 107 1117.5 110.5Q1132 114 1143.5 121.5Q1155 129 1162.0 141.0Q1169 153 1169 170Q1169 193 1156.0 206.0Q1143 219 1124.0 225.0Q1105 231 1082.5 232.0Q1060 233 1042 233H1028V309H1044Q1061 309 1080.5 310.0Q1100 311 1116.5 316.5Q1133 322 1144.0 334.0Q1155 346 1155 368Q1155 400 1135.5 411.5Q1116 423 1087 423Q1063 423 1041.0 415.5Q1019 408 999 394V475Q1025 489 1053.0 494.0Q1081 499 1110 499Q1136 499 1162.5 493.0Q1189 487 1210.0 473.5Q1231 460 1244.0 439.0Q1257 418 1257 387Q1257 341 1234.0 314.0Q1211 287 1167 276Q1212 269 1241.0 242.5Q1270 216 1270 168Q1270 130 1255.0 104.0Q1240 78 1215.5 62.0Q1191 46 1160.0 38.5Q1129 31 1096 31Q1067 31 1037.5 35.5Q1008 40 982 54ZM1207 1278V815H1108V1166Q1088 1149 1063.0 1139.0Q1038 1129 1012 1126V1210Q1048 1221 1082.5 1238.0Q1117 1255 1147 1278ZM1597 206H1705V365Q1683 322 1655.0 283.0Q1627 244 1597 206Z" style="fill:#ffffff;stroke:none" transform="scale(1,-1) translate(0,-256)" /></svg>