<?xml version="1.0" encoding="utf-8" ?>
<svg baseProfile="full" height="256" version="1.1" width="256" xmlns="http://www.w3.org/2000/svg" xmlns:ev="http://www.w3.org/2001/xml-events" xmlns:xlink="http://www.w3.org/1999/xlink"><defs /><path d="M1370 1007Q1384 1007 1395.0 996.0Q1406 985 1406 971V688Q1401 710 1376 718Q1345 728 1312.0 732.0Q1279 736 1247 742Q1179 756 1111.5 768.0Q1044 780 975 791V935ZM400 971Q400 985 411.0 996.0Q422 1007 436 1007Q438 1007 439.0 1006.5Q440 1006 442 1006L831 935V791Q762 780 695.0 768.0Q628 756 559 742Q527 736 493.5 732.5Q460 729 429 718Q418 714 410.0 707.5Q402 701 400 690Z" style="fill:#fce100;stroke:none" transform="scale(1,-1) translate(0,-256)" /></svg>