<?xml version="1.0" encoding="utf-8" ?>
<svg baseProfile="full" height="256" version="1.1" width="256" xmlns="http://www.w3.org/2000/svg" xmlns:ev="http://www.w3.org/2001/xml-events" xmlns:xlink="http://www.w3.org/1999/xlink"><defs /><path d="M808 935H2393Q2376 874 2344.5 819.0Q2313 764 2268 719H1406V698Q1406 679 1400.5 663.0Q1395 647 1370 647Q1368 647 1367.0 647.5Q1366 648 1364 648L1118 692V431L1047 467L975 431V718Q973 719 968.0 719.0Q963 719 957 719H884Q870 719 857.5 719.0Q845 719 831 718V431L759 467L687 431V692L442 648Q440 648 439.0 647.5Q438 647 436 647Q421 647 410.5 657.5Q400 668 400 683Q400 697 407.5 710.5Q415 724 429 726L825 798L821 804Q817 821 812.5 838.0Q808 855 808 873Z" style="fill:#eba300;stroke:none" transform="scale(1,-1) translate(0,-256)" /></svg>