<?xml version="1.0" encoding="utf-8" ?>
<svg baseProfile="full" height="256" version="1.1" width="256" xmlns="http://www.w3.org/2000/svg" xmlns:ev="http://www.w3.org/2001/xml-events" xmlns:xlink="http://www.w3.org/1999/xlink"><defs /><path d="M975 1402Q975 1391 970.5 1384.0Q966 1377 956 1371L615 1165V1638L956 1433Q966 1427 970.5 1420.0Q975 1413 975 1402ZM2197 1638V1165L1856 1371Q1846 1377 1841.5 1384.0Q1837 1391 1837 1402Q1837 1413 1841.5 1420.0Q1846 1427 1856 1433ZM1190 1438H1334V1222Q1334 1192 1313.0 1171.0Q1292 1150 1262 1150Q1232 1150 1211.0 1171.0Q1190 1192 1190 1222ZM1478 1438H1622V1222Q1622 1193 1600.5 1171.5Q1579 1150 1550 1150Q1520 1150 1499.0 1171.0Q1478 1192 1478 1222Z" style="fill:#d48c00;stroke:none" transform="scale(1,-1) translate(0,-256)" /></svg>