<?xml version="1.0" encoding="utf-8" ?>
<svg baseProfile="full" height="256" version="1.1" width="256" xmlns="http://www.w3.org/2000/svg" xmlns:ev="http://www.w3.org/2001/xml-events" xmlns:xlink="http://www.w3.org/1999/xlink"><defs /><path d="M1406 -431Q1295 -431 1188.0 -406.5Q1081 -382 983.5 -335.5Q886 -289 800.5 -220.5Q715 -152 646 -65Q612 -21 585.5 24.0Q559 69 533 117Q470 237 406.5 356.0Q343 475 280 595Q269 617 262.5 637.5Q256 658 256 683Q256 715 267.0 744.5Q278 774 297.0 797.5Q316 821 342.5 837.0Q369 853 401 859Q400 867 400.0 874.0Q400 881 400 888Q400 946 418.5 1001.0Q437 1056 472 1102V1653Q472 1698 489.0 1737.0Q506 1776 535.0 1805.5Q564 1835 603.0 1852.0Q642 1869 687 1869Q713 1869 742.5 1861.5Q772 1854 795 1840L1230 1581H1234L1237 1579Q1260 1578 1284.0 1579.5Q1308 1581 1331 1581H1523L1526 1579H1579L2017 1840Q2040 1854 2069.0 1861.5Q2098 1869 2125 1869Q2170 1869 2209.0 1852.0Q2248 1835 2277.0 1805.5Q2306 1776 2323.0 1737.0Q2340 1698 2340 1653V1102Q2380 1048 2398.0 987.0Q2416 926 2411 859Q2442 853 2469.0 837.0Q2496 821 2515.0 797.5Q2534 774 2545.0 744.5Q2556 715 2556 683Q2556 657 2549.5 636.0Q2543 615 2531 593L2276 113Q2250 65 2224.0 20.5Q2198 -24 2164 -66Q2095 -153 2009.5 -221.0Q1924 -289 1827.0 -335.5Q1730 -382 1623.5 -406.5Q1517 -431 1406 -431Z" style="fill:#000000;stroke:none" transform="scale(1,-1) translate(0,-256)" /></svg>