<?xml version="1.0" encoding="utf-8" ?>
<svg baseProfile="full" height="256" version="1.1" width="256" xmlns="http://www.w3.org/2000/svg" xmlns:ev="http://www.w3.org/2001/xml-events" xmlns:xlink="http://www.w3.org/1999/xlink"><defs /><path d="M1981 288Q1981 169 1936.0 64.0Q1891 -41 1813.0 -119.0Q1735 -197 1630.0 -242.0Q1525 -287 1406 -287Q1287 -287 1182.0 -242.0Q1077 -197 999.0 -119.0Q921 -41 876.0 64.0Q831 169 831 288V360Q831 420 853.5 472.0Q876 524 915.0 563.0Q954 602 1006.5 624.5Q1059 647 1119 647H1190L1410 547L1622 647H1693Q1753 647 1805.5 624.5Q1858 602 1897.0 563.0Q1936 524 1958.5 472.0Q1981 420 1981 360Z" style="fill:#ffffff;stroke:none" transform="scale(1,-1) translate(0,-256)" /></svg>