<?xml version="1.0" encoding="utf-8" ?>
<svg baseProfile="full" height="256" version="1.1" width="256" xmlns="http://www.w3.org/2000/svg" xmlns:ev="http://www.w3.org/2001/xml-events" xmlns:xlink="http://www.w3.org/1999/xlink"><defs /><path d="M1478 1066 1580 743 1478 659V-179Q1478 -202 1469.5 -221.5Q1461 -241 1446.5 -255.5Q1432 -270 1412.0 -278.5Q1392 -287 1370 -287Q1347 -287 1327.5 -278.5Q1308 -270 1293.5 -255.5Q1279 -241 1270.5 -221.5Q1262 -202 1262 -179V360L1226 373Q1225 373 1219.5 370.5Q1214 368 1207.5 366.0Q1201 364 1195.5 362.0Q1190 360 1190 360H975Q975 360 970.0 361.5Q965 363 959.0 365.0Q953 367 947.5 369.0Q942 371 940 371Q925 363 908.0 361.0Q891 359 874 359Q863 359 852.5 359.5Q842 360 831 360Q801 360 775.0 371.0Q749 382 729.5 401.5Q710 421 698.5 447.0Q687 473 687 503L650 517L615 503H544Q514 503 488.0 514.5Q462 526 442.5 545.5Q423 565 411.5 591.0Q400 617 400 647V1725H1118V1538Q1118 1514 1123.5 1488.0Q1129 1462 1139.0 1437.0Q1149 1412 1163.0 1389.5Q1177 1367 1194 1350Z" style="fill:#ffc83d;stroke:none" transform="scale(1,-1) translate(0,-256)" /></svg>