<?xml version="1.0" encoding="utf-8" ?>
<svg baseProfile="full" height="256" version="1.1" width="256" xmlns="http://www.w3.org/2000/svg" xmlns:ev="http://www.w3.org/2001/xml-events" xmlns:xlink="http://www.w3.org/1999/xlink"><defs /><path d="M1334 -36Q1334 6 1321.0 44.0Q1308 82 1284.0 113.5Q1260 145 1227.0 168.5Q1194 192 1154 204V216H1083Q1031 216 985.0 196.0Q939 176 905.0 142.0Q871 108 851.0 62.0Q831 16 831 -36Q831 -88 851.0 -134.0Q871 -180 905.0 -214.0Q939 -248 985.0 -267.5Q1031 -287 1083 -287H1154V-276Q1194 -264 1227.0 -240.5Q1260 -217 1284.0 -185.5Q1308 -154 1321.0 -116.0Q1334 -78 1334 -36ZM1909 -108Q1909 -71 1895.0 -38.0Q1881 -5 1856.5 19.5Q1832 44 1799.0 58.0Q1766 72 1729 72Q1692 72 1659.5 58.0Q1627 44 1602.5 19.5Q1578 -5 1564.0 -38.0Q1550 -71 1550 -108Q1550 -145 1564.0 -177.5Q1578 -210 1602.5 -234.5Q1627 -259 1659.5 -273.0Q1692 -287 1729 -287H1801V-272Q1850 -251 1879.5 -206.5Q1909 -162 1909 -108ZM1262 -36Q1262 -58 1253.5 -77.5Q1245 -97 1230.0 -112.0Q1215 -127 1195.5 -135.5Q1176 -144 1154 -144Q1132 -144 1112.5 -135.5Q1093 -127 1078.5 -112.0Q1064 -97 1055.5 -77.5Q1047 -58 1047 -36Q1047 -14 1055.5 5.5Q1064 25 1078.0 40.0Q1092 55 1111.5 63.5Q1131 72 1154 72Q1176 72 1196.0 63.5Q1216 55 1230.5 40.5Q1245 26 1253.5 6.0Q1262 -14 1262 -36ZM1873 -108Q1873 -137 1851.5 -158.0Q1830 -179 1801 -179Q1772 -179 1750.5 -158.0Q1729 -137 1729 -108Q1729 -79 1750.5 -57.5Q1772 -36 1801 -36Q1831 -36 1852.0 -57.0Q1873 -78 1873 -108ZM975 252H903V395H975ZM1406 252H1334V395H1406ZM1837 252H1765V395H1837Z" style="fill:#383838;stroke:none" transform="scale(1,-1) translate(0,-256)" /></svg>