<?xml version="1.0" encoding="utf-8" ?>
<svg baseProfile="full" height="256" version="1.1" width="256" xmlns="http://www.w3.org/2000/svg" xmlns:ev="http://www.w3.org/2001/xml-events" xmlns:xlink="http://www.w3.org/1999/xlink"><defs /><path d="M1837 -36Q1837 -88 1817.5 -134.0Q1798 -180 1764.0 -214.0Q1730 -248 1684.0 -267.5Q1638 -287 1586 -287Q1534 -287 1488.0 -267.5Q1442 -248 1408.0 -214.0Q1374 -180 1354.0 -134.0Q1334 -88 1334 -36Q1334 16 1354.0 62.0Q1374 108 1408.0 142.0Q1442 176 1488.0 196.0Q1534 216 1586 216Q1638 216 1684.0 196.0Q1730 176 1764.0 142.0Q1798 108 1817.5 62.0Q1837 16 1837 -36ZM2140 935H1190Q1184 935 1182 934Q1167 932 1144.0 926.5Q1121 921 1099.5 911.5Q1078 902 1062.5 889.5Q1047 877 1047 863L1118 791H2125L2017 360H2089L2210 845Q2212 850 2212.0 854.0Q2212 858 2212 863Q2212 893 2190.5 914.0Q2169 935 2140 935ZM2412 -108Q2412 -145 2398.0 -177.5Q2384 -210 2359.5 -234.5Q2335 -259 2302.5 -273.0Q2270 -287 2233 -287Q2196 -287 2163.0 -273.0Q2130 -259 2105.5 -234.5Q2081 -210 2067.0 -177.5Q2053 -145 2053 -108Q2053 -71 2067.0 -38.0Q2081 -5 2105.5 19.5Q2130 44 2162.5 58.0Q2195 72 2233 72Q2270 72 2302.5 58.0Q2335 44 2359.5 19.5Q2384 -5 2398.0 -38.0Q2412 -71 2412 -108ZM858 -144H588L831 -22V58L420 -147Q410 -152 405.0 -161.0Q400 -170 400 -180Q400 -196 410.5 -205.5Q421 -215 436 -215H867Q873 -215 902.0 -202.5Q931 -190 971.0 -170.5Q1011 -151 1057.5 -127.5Q1104 -104 1146.0 -82.5Q1188 -61 1220.0 -44.5Q1252 -28 1263 -22Q1264 2 1269.5 25.0Q1275 48 1285 70Q1283 68 1253.0 53.0Q1223 38 1178.5 16.0Q1134 -6 1081.5 -32.5Q1029 -59 982.5 -82.0Q936 -105 901.5 -122.5Q867 -140 858 -144ZM2125 68Q2136 71 2146.5 71.5Q2157 72 2168 72H2197V108Q2197 130 2188.5 149.5Q2180 169 2165.0 184.0Q2150 199 2130.5 207.5Q2111 216 2089 216H1981V144H2089Q2104 144 2114.5 133.5Q2125 123 2125 108ZM1729 1006H1586Q1586 1036 1607.0 1057.0Q1628 1078 1658 1078Q1687 1078 1708.0 1056.5Q1729 1035 1729 1006ZM1586 647 1568 575H1640L1658 647ZM2125 1366H2053V1438H2125Z" style="fill:#757575;stroke:none" transform="scale(1,-1) translate(0,-256)" /></svg>