<?xml version="1.0" encoding="utf-8" ?>
<svg baseProfile="full" height="256" version="1.1" width="256" xmlns="http://www.w3.org/2000/svg" xmlns:ev="http://www.w3.org/2001/xml-events" xmlns:xlink="http://www.w3.org/1999/xlink"><defs /><path d="M1693 -36Q1693 -58 1684.5 -77.5Q1676 -97 1661.5 -112.0Q1647 -127 1627.5 -135.5Q1608 -144 1586 -144Q1564 -144 1544.5 -135.5Q1525 -127 1510.0 -112.0Q1495 -97 1486.5 -77.5Q1478 -58 1478 -36Q1478 -14 1486.5 6.0Q1495 26 1509.5 40.5Q1524 55 1543.5 63.5Q1563 72 1586 72Q1608 72 1628.0 63.5Q1648 55 1662.0 40.0Q1676 25 1684.5 5.5Q1693 -14 1693 -36ZM1478 863Q1478 892 1499.5 913.5Q1521 935 1550 935H1687Q1665 933 1652.0 923.5Q1639 914 1632.0 899.0Q1625 884 1623.0 866.0Q1621 848 1621 830Q1621 819 1621.5 809.5Q1622 800 1622 791H1478ZM975 863Q975 892 996.5 913.5Q1018 935 1047 935H1184Q1161 933 1148.0 923.5Q1135 914 1128.0 899.0Q1121 884 1119.0 866.0Q1117 848 1117 830Q1117 819 1117.5 809.5Q1118 800 1118 791H975ZM2304 -108Q2304 -137 2283.0 -158.0Q2262 -179 2233 -179Q2204 -179 2182.5 -158.0Q2161 -137 2161 -108Q2161 -78 2182.0 -57.0Q2203 -36 2233 -36Q2262 -36 2283.0 -57.5Q2304 -79 2304 -108ZM1909 1366V1438H2053V1366Z" style="fill:#cccccc;stroke:none" transform="scale(1,-1) translate(0,-256)" /></svg>