<?xml version="1.0" encoding="utf-8" ?>
<svg baseProfile="full" height="256" version="1.1" width="256" xmlns="http://www.w3.org/2000/svg" xmlns:ev="http://www.w3.org/2001/xml-events" xmlns:xlink="http://www.w3.org/1999/xlink"><defs /><path d="M2125 1725V1438L2053 1402L2125 1366H2196L2053 647H1658L1618 622L1586 647Q1569 647 1553.0 651.0Q1537 655 1525.0 663.5Q1513 672 1505.5 685.5Q1498 699 1498 719Q1498 724 1498.5 727.5Q1499 731 1500 736L1644 1311Q1650 1335 1669.0 1350.5Q1688 1366 1713 1366Q1736 1366 1775.0 1365.0Q1814 1364 1850 1364Q1868 1364 1883.0 1364.5Q1898 1365 1909 1366Q1921 1367 1940.0 1371.5Q1959 1376 1980.0 1381.5Q2001 1387 2020.5 1393.0Q2040 1399 2053 1402L1909 1438Q1904 1440 1898.5 1439.5Q1893 1439 1888 1441Q1865 1448 1851.0 1467.5Q1837 1487 1837 1510V1653Q1837 1683 1858.0 1704.0Q1879 1725 1909 1725ZM1765 -36Q1765 -78 1752.0 -116.0Q1739 -154 1715.5 -185.5Q1692 -217 1659.0 -240.5Q1626 -264 1586 -276V-287H1514Q1462 -287 1416.0 -267.5Q1370 -248 1336.0 -214.0Q1302 -180 1282.0 -134.0Q1262 -88 1262 -36Q1262 16 1282.0 62.0Q1302 108 1336.0 142.0Q1370 176 1416.0 196.0Q1462 216 1514 216H1586V204Q1626 192 1659.0 168.5Q1692 145 1715.5 113.5Q1739 82 1752.0 44.0Q1765 6 1765 -36ZM1550 360H687V467Q687 489 695.5 509.0Q704 529 718.5 543.5Q733 558 752.5 566.5Q772 575 795 575H1550ZM2233 57Q2282 35 2311.0 -9.5Q2340 -54 2340 -108Q2340 -161 2311.0 -206.0Q2282 -251 2233 -272V-287H2161Q2124 -287 2091.0 -273.0Q2058 -259 2033.5 -234.5Q2009 -210 1995.0 -177.5Q1981 -145 1981 -108Q1981 -76 1991.5 -47.0Q2002 -18 2021.5 5.5Q2041 29 2067.0 45.5Q2093 62 2125 68L2161 96L2197 72H2233Z" style="fill:#a6a6a6;stroke:none" transform="scale(1,-1) translate(0,-256)" /></svg>