<?xml version="1.0" encoding="utf-8" ?>
<svg baseProfile="full" height="256" version="1.1" width="256" xmlns="http://www.w3.org/2000/svg" xmlns:ev="http://www.w3.org/2001/xml-events" xmlns:xlink="http://www.w3.org/1999/xlink"><defs /><path d="M2053 360H1190V467Q1190 489 1198.5 508.5Q1207 528 1222.0 543.0Q1237 558 1256.5 566.5Q1276 575 1298 575H1568L1622 596L1640 575H2089ZM2109 647H2053Q2024 647 2002.5 668.0Q1981 689 1981 719Q1981 724 1981.5 727.5Q1982 731 1983 736L2127 1311Q2133 1335 2152.0 1350.5Q2171 1366 2196 1366Q2226 1366 2247.0 1345.0Q2268 1324 2268 1295Q2268 1290 2267.5 1286.0Q2267 1282 2266 1277ZM2125 1438Q2095 1438 2074.0 1459.0Q2053 1480 2053 1510V1653Q2053 1683 2074.0 1704.0Q2095 1725 2125 1725Q2155 1725 2176.0 1704.0Q2197 1683 2197 1653V1510Q2197 1480 2176.0 1459.0Q2155 1438 2125 1438ZM1693 918H1622V1023H1693Z" style="fill:#5c5c5c;stroke:none" transform="scale(1,-1) translate(0,-256)" /></svg>