<?xml version="1.0" encoding="utf-8" ?>
<svg baseProfile="full" height="256" version="1.1" width="256" xmlns="http://www.w3.org/2000/svg" xmlns:ev="http://www.w3.org/2001/xml-events" xmlns:xlink="http://www.w3.org/1999/xlink"><defs /><path d="M2161 -431Q2113 -431 2067.0 -417.0Q2021 -403 1981 -376Q1951 -397 1923.0 -408.0Q1895 -419 1866.5 -424.0Q1838 -429 1807.5 -430.0Q1777 -431 1743 -431H1729Q1692 -431 1661 -424Q1638 -429 1615.0 -430.0Q1592 -431 1569 -431H1514Q1420 -431 1334 -388Q1302 -404 1274.0 -413.0Q1246 -422 1217.5 -426.0Q1189 -430 1159.0 -430.5Q1129 -431 1095 -431H1083Q1022 -431 963.5 -412.5Q905 -394 855 -359H436Q399 -359 366.0 -345.0Q333 -331 308.5 -306.5Q284 -282 270.0 -249.5Q256 -217 256 -180Q256 -129 282.5 -85.5Q309 -42 355 -19L687 147V216H543V467Q543 519 563.0 565.0Q583 611 617.0 645.0Q651 679 697.0 699.0Q743 719 795 719H831V863Q831 908 848.0 947.0Q865 986 894.5 1015.0Q924 1044 963.0 1061.0Q1002 1078 1047 1078H1438L1504 1346Q1512 1380 1530.0 1408.5Q1548 1437 1573.0 1458.5Q1598 1480 1628.5 1493.0Q1659 1506 1694 1509V1653Q1694 1698 1711.0 1737.0Q1728 1776 1757.0 1805.5Q1786 1835 1825.0 1852.0Q1864 1869 1909 1869H2125Q2170 1869 2209.0 1852.0Q2248 1835 2277.0 1805.5Q2306 1776 2323.0 1737.0Q2340 1698 2340 1653V1510Q2340 1497 2338.5 1484.5Q2337 1472 2335 1460Q2371 1428 2391.5 1385.5Q2412 1343 2412 1294Q2412 1267 2406 1242L2335 957Q2356 913 2356 862Q2356 835 2350 810L2230 332Q2265 311 2294.5 276.5Q2324 242 2333 200Q2383 184 2424.0 153.5Q2465 123 2494.5 82.5Q2524 42 2540.0 -7.0Q2556 -56 2556 -108Q2556 -175 2530.5 -233.5Q2505 -292 2461.0 -336.0Q2417 -380 2358.5 -405.5Q2300 -431 2233 -431Z" style="fill:#000000;stroke:none" transform="scale(1,-1) translate(0,-256)" /></svg>