<?xml version="1.0" encoding="utf-8" ?>
<svg baseProfile="full" height="256" version="1.1" width="256" xmlns="http://www.w3.org/2000/svg" xmlns:ev="http://www.w3.org/2001/xml-events" xmlns:xlink="http://www.w3.org/1999/xlink"><defs /><path d="M2125 1150Q2183 1150 2231.5 1129.5Q2280 1109 2316.5 1073.0Q2353 1037 2377.0 989.0Q2401 941 2410 886L2556 12V8Q2556 -82 2523.0 -162.0Q2490 -242 2432.0 -302.0Q2374 -362 2295.0 -396.5Q2216 -431 2125 -431H687Q595 -431 516.5 -396.5Q438 -362 380.0 -302.0Q322 -242 289.0 -162.0Q256 -82 256 8V12L403 894Q403 898 405 902Q423 952 447.5 997.0Q472 1042 505.5 1076.0Q539 1110 583.5 1130.0Q628 1150 687 1150V1186Q687 1280 711.5 1367.0Q736 1454 780.5 1530.0Q825 1606 887.5 1668.5Q950 1731 1026.0 1775.5Q1102 1820 1189.0 1844.5Q1276 1869 1370 1869H1442Q1536 1869 1623.0 1844.5Q1710 1820 1786.0 1775.5Q1862 1731 1924.5 1668.5Q1987 1606 2031.5 1530.0Q2076 1454 2100.5 1367.0Q2125 1280 2125 1186ZM1370 1366Q1332 1366 1299.5 1352.0Q1267 1338 1242.5 1313.5Q1218 1289 1204.0 1256.0Q1190 1223 1190 1186V1150H1622V1186Q1622 1223 1608.0 1256.0Q1594 1289 1569.5 1313.5Q1545 1338 1512.0 1352.0Q1479 1366 1442 1366Z" style="fill:#000000;stroke:none" transform="scale(1,-1) translate(0,-256)" /></svg>