<?xml version="1.0" encoding="utf-8" ?>
<svg baseProfile="full" height="256" version="1.1" width="256" xmlns="http://www.w3.org/2000/svg" xmlns:ev="http://www.w3.org/2001/xml-events" xmlns:xlink="http://www.w3.org/1999/xlink"><defs /><path d="M1442 1725Q1553 1725 1651.5 1682.5Q1750 1640 1823.0 1567.0Q1896 1494 1938.5 1395.5Q1981 1297 1981 1186V719H1765V1186Q1765 1253 1739.5 1312.0Q1714 1371 1670.0 1415.0Q1626 1459 1567.5 1484.5Q1509 1510 1442 1510H1370Q1303 1510 1244.5 1484.5Q1186 1459 1142.0 1415.0Q1098 1371 1072.5 1312.0Q1047 1253 1047 1186V719H831V1186Q831 1297 873.5 1395.5Q916 1494 989.0 1567.0Q1062 1640 1160.5 1682.5Q1259 1725 1370 1725ZM831 467V575H1047V467Q1047 445 1038.5 425.5Q1030 406 1015.0 391.5Q1000 377 980.5 368.5Q961 360 939 360Q917 360 897.5 368.5Q878 377 863.0 391.0Q848 405 839.5 424.5Q831 444 831 467ZM1765 467V575H1981V467Q1981 444 1972.5 424.5Q1964 405 1949.0 391.0Q1934 377 1914.5 368.5Q1895 360 1873 360Q1851 360 1831.5 368.5Q1812 377 1797.0 391.5Q1782 406 1773.5 425.5Q1765 445 1765 467Z" style="fill:#f7d7c4;stroke:none" transform="scale(1,-1) translate(0,-256)" /></svg>