<?xml version="1.0" encoding="utf-8" ?>
<svg baseProfile="full" height="256" version="1.1" width="256" xmlns="http://www.w3.org/2000/svg" xmlns:ev="http://www.w3.org/2001/xml-events" xmlns:xlink="http://www.w3.org/1999/xlink"><defs /><path d="M2413 -8Q2413 -66 2389.5 -116.5Q2366 -167 2326.0 -205.0Q2286 -243 2234.0 -265.0Q2182 -287 2125 -287H687Q630 -287 578.0 -265.0Q526 -243 486.0 -205.0Q446 -167 422.5 -116.5Q399 -66 399 -8Q399 -6 399.5 -4.0Q400 -2 400 0L543 863Q547 889 559.5 914.5Q572 940 591.0 960.5Q610 981 634.0 993.5Q658 1006 687 1006H2125Q2156 1006 2180.5 994.0Q2205 982 2223.0 962.5Q2241 943 2252.0 917.0Q2263 891 2268 863L2412 0Q2412 -2 2412.5 -4.0Q2413 -6 2413 -8Z" style="fill:#8e562e;stroke:none" transform="scale(1,-1) translate(0,-256)" /></svg>