<?xml version="1.0" encoding="utf-8" ?>
<svg baseProfile="full" height="256" version="1.1" width="256" xmlns="http://www.w3.org/2000/svg" xmlns:ev="http://www.w3.org/2001/xml-events" xmlns:xlink="http://www.w3.org/1999/xlink"><defs /><path d="M2400 935 2184 719 2400 503 2184 288 2400 72 1981 -347 1765 -131 1550 -347 1334 -131 1118 -347 903 -131 687 -347Q582 -241 477.5 -137.5Q373 -34 268 72L484 288L268 503L484 719L268 935L484 1150L268 1366Q480 1573 687 1785L903 1569L1118 1785L1334 1569L1550 1785L1765 1569L1981 1785Q2087 1680 2190.5 1575.5Q2294 1471 2400 1366L2184 1150Z" style="fill:#000000;stroke:none" transform="scale(1,-1) translate(0,-256)" /></svg>