<?xml version="1.0" encoding="utf-8" ?>
<svg baseProfile="full" height="256" version="1.1" width="256" xmlns="http://www.w3.org/2000/svg" xmlns:ev="http://www.w3.org/2001/xml-events" xmlns:xlink="http://www.w3.org/1999/xlink"><defs /><path d="M1693 482 1812 601 1863 550 1744 431ZM1118 1057 1237 1176 1288 1125 1169 1006ZM831 1345 949 1463 1000 1412 882 1294ZM1981 195 2099 313 2150 262 2032 144ZM1406 770 1524 888 1575 837 1457 719ZM1381 1032 1431 981 1385 935 1334 985ZM806 1607 856 1556 810 1510 759 1560ZM1668 744 1719 694 1672 647 1622 698ZM1093 1319 1144 1269 1097 1222 1047 1273ZM1956 457 2006 406 1960 360 1909 410ZM2243 169 2294 119 2247 72 2197 123Z" style="fill:#383838;stroke:none" transform="scale(1,-1) translate(0,-256)" /></svg>