<?xml version="1.0" encoding="utf-8" ?>
<svg baseProfile="full" height="256" version="1.1" width="256" xmlns="http://www.w3.org/2000/svg" xmlns:ev="http://www.w3.org/2001/xml-events" xmlns:xlink="http://www.w3.org/1999/xlink"><defs /><path d="M2340 72 2053 -215 472 1366 759 1653 806 1607 792 1541 856 1556 949 1463 932 1394 1000 1412 1093 1319 1076 1256 1144 1269 1237 1175 1212 1102 1287 1125 1381 1032 1362 966 1431 981 1524 888 1499 813 1575 837 1668 744 1652 678 1719 694 1812 600 1793 528 1862 550 1956 457 1941 393 2006 406 2099 313 2076 237 2150 262 2243 169 2226 102 2294 119Z" style="fill:#ffb900;stroke:none" transform="scale(1,-1) translate(0,-256)" /></svg>