<?xml version="1.0" encoding="utf-8" ?>
<svg baseProfile="full" height="256" version="1.1" width="256" xmlns="http://www.w3.org/2000/svg" xmlns:ev="http://www.w3.org/2001/xml-events" xmlns:xlink="http://www.w3.org/1999/xlink"><defs /><path d="M1981 1078V431Q1981 312 1950.0 202.0Q1919 92 1863.0 -4.0Q1807 -100 1728.0 -178.5Q1649 -257 1553.0 -313.0Q1457 -369 1347.0 -400.0Q1237 -431 1118 -431Q999 -431 889.0 -400.0Q779 -369 683.0 -313.0Q587 -257 508.5 -178.5Q430 -100 374.0 -4.0Q318 92 287.0 202.0Q256 312 256 431Q256 531 276.0 629.5Q296 728 334.5 820.0Q373 912 428.5 995.5Q484 1079 555 1150H472V1438Q472 1480 484.5 1521.0Q497 1562 520.0 1597.0Q543 1632 575.0 1659.5Q607 1687 647 1703Q684 1718 717.5 1721.5Q751 1725 786 1725H831V1869H918Q969 1869 1019.0 1866.5Q1069 1864 1119 1854Q1224 1834 1316.5 1783.0Q1409 1732 1482.5 1658.5Q1556 1585 1607.0 1492.0Q1658 1399 1679 1295Q1689 1248 1691.0 1200.5Q1693 1153 1693 1105V1057Q1750 1070 1806.0 1074.0Q1862 1078 1919 1078Z" style="fill:#000000;stroke:none" transform="scale(1,-1) translate(0,-256)" /></svg>