<?xml version="1.0" encoding="utf-8" ?>
<svg baseProfile="full" height="256" version="1.1" width="256" xmlns="http://www.w3.org/2000/svg" xmlns:ev="http://www.w3.org/2001/xml-events" xmlns:xlink="http://www.w3.org/1999/xlink"><defs /><path d="M1113 -239Q1060 -239 1008.0 -243.5Q956 -248 903 -254Q844 -236 790.0 -208.0Q736 -180 687 -144V72Q687 133 703.0 177.0Q719 221 743.0 256.5Q767 292 795.0 323.5Q823 355 847.0 390.5Q871 426 887.0 470.0Q903 514 903 575Q992 575 1070.5 541.0Q1149 507 1207.5 448.5Q1266 390 1300.0 311.5Q1334 233 1334 144Q1380 180 1436.0 198.0Q1492 216 1550 216V-144Q1501 -180 1447.0 -208.0Q1393 -236 1334 -254Q1279 -248 1224.0 -243.5Q1169 -239 1113 -239Z" style="fill:#fce100;stroke:none" transform="scale(1,-1) translate(0,-256)" /></svg>