<?xml version="1.0" encoding="utf-8" ?>
<svg baseProfile="full" height="256" version="1.1" width="256" xmlns="http://www.w3.org/2000/svg" xmlns:ev="http://www.w3.org/2001/xml-events" xmlns:xlink="http://www.w3.org/1999/xlink"><defs /><path d="M400 431Q400 529 419.5 616.5Q439 704 476.0 783.5Q513 863 566.0 936.0Q619 1009 687 1078Q756 1148 809.5 1220.5Q863 1293 899.5 1371.5Q936 1450 955.5 1537.5Q975 1625 975 1725Q1094 1725 1199.0 1680.0Q1304 1635 1382.0 1557.0Q1460 1479 1505.0 1374.0Q1550 1269 1550 1150V791Q1604 857 1677.5 896.0Q1751 935 1837 935V431Q1837 346 1817.5 265.0Q1798 184 1761.0 110.0Q1724 36 1670.5 -28.5Q1617 -93 1550 -144Q1527 -142 1504.5 -140.5Q1482 -139 1459 -139Q1417 -139 1375.5 -144.5Q1334 -150 1292.0 -156.5Q1250 -163 1208.5 -168.5Q1167 -174 1125 -174Q1015 -174 905.5 -165.5Q796 -157 687 -144Q619 -93 566.0 -28.5Q513 36 476.0 110.0Q439 184 419.5 265.5Q400 347 400 431ZM615 1438Q615 1468 626.5 1494.0Q638 1520 657.5 1539.5Q677 1559 703.0 1570.0Q729 1581 759 1581V1438Q759 1408 747.5 1381.5Q736 1355 716.5 1335.5Q697 1316 671.0 1305.0Q645 1294 615 1294Z" style="fill:#f7630c;stroke:none" transform="scale(1,-1) translate(0,-256)" /></svg>