<?xml version="1.0" encoding="utf-8" ?>
<svg baseProfile="full" height="256" version="1.1" width="256" xmlns="http://www.w3.org/2000/svg" xmlns:ev="http://www.w3.org/2001/xml-events" xmlns:xlink="http://www.w3.org/1999/xlink"><defs /><path d="M1837 1222Q1882 1222 1921.0 1205.0Q1960 1188 1989.5 1158.5Q2019 1129 2036.0 1090.0Q2053 1051 2053 1006V719Q2053 700 2046.5 680.0Q2040 660 2030.0 641.0Q2020 622 2007.0 605.0Q1994 588 1981 575L1693 288V72H687V288Q687 297 677.5 327.0Q668 357 655.5 391.5Q643 426 631.0 458.0Q619 490 615 504L472 935H1693V1222Z" style="fill:#af0d1a;stroke:none" transform="scale(1,-1) translate(0,-256)" /></svg>