<?xml version="1.0" encoding="utf-8" ?>
<svg baseProfile="full" height="256" version="1.1" width="256" xmlns="http://www.w3.org/2000/svg" xmlns:ev="http://www.w3.org/2001/xml-events" xmlns:xlink="http://www.w3.org/1999/xlink"><defs /><path d="M1478 -107Q1478 -121 1467.0 -132.0Q1456 -143 1442 -143Q1430 -143 1421 -137L1190 28L960 -137Q951 -143 939 -143Q925 -143 914.0 -132.0Q903 -121 903 -107Q903 -90 918 -78L1128 72L918 223Q903 235 903 252Q903 267 913.5 277.5Q924 288 939 288Q949 288 960 281L1190 116L1421 281Q1431 288 1442 288Q1457 288 1467.5 277.5Q1478 267 1478 252Q1478 235 1463 223L1252 72L1463 -78Q1478 -90 1478 -107Z" style="fill:#ffffff;stroke:none" transform="scale(1,-1) translate(0,-256)" /></svg>