<?xml version="1.0" encoding="utf-8" ?>
<svg baseProfile="full" height="256" version="1.1" width="256" xmlns="http://www.w3.org/2000/svg" xmlns:ev="http://www.w3.org/2001/xml-events" xmlns:xlink="http://www.w3.org/1999/xlink"><defs /><path d="M1478 1725Q1537 1725 1589.5 1702.5Q1642 1680 1681.0 1641.0Q1720 1602 1742.5 1549.5Q1765 1497 1765 1438V1006Q1765 947 1742.5 894.5Q1720 842 1681.0 803.0Q1642 764 1589.5 741.5Q1537 719 1478 719H687Q628 719 575.5 741.5Q523 764 484.0 803.0Q445 842 422.5 894.5Q400 947 400 1006V1438Q400 1497 422.5 1549.5Q445 1602 484.0 1641.0Q523 1680 575.5 1702.5Q628 1725 687 1725Z" style="fill:#f03a17;stroke:none" transform="scale(1,-1) translate(0,-256)" /></svg>