<?xml version="1.0" encoding="utf-8" ?>
<svg baseProfile="full" height="256" version="1.1" width="256" xmlns="http://www.w3.org/2000/svg" xmlns:ev="http://www.w3.org/2001/xml-events" xmlns:xlink="http://www.w3.org/1999/xlink"><defs /><path d="M543 -431V32Q543 70 545.5 108.0Q548 146 548 184Q548 204 547.0 224.0Q546 244 543 264Q541 274 535.5 292.5Q530 311 523.0 331.5Q516 352 509.0 370.5Q502 389 498 400Q475 471 451.0 540.5Q427 610 405 681Q333 742 294.5 827.0Q256 912 256 1006V1438Q256 1527 290.0 1605.5Q324 1684 382.5 1742.5Q441 1801 519.5 1835.0Q598 1869 687 1869H1478Q1567 1869 1645.5 1835.0Q1724 1801 1782.5 1742.5Q1841 1684 1875.0 1605.5Q1909 1527 1909 1438V1359Q1972 1346 2024.5 1313.5Q2077 1281 2115.5 1233.5Q2154 1186 2175.5 1128.0Q2197 1070 2197 1006V719Q2197 685 2188.0 651.5Q2179 618 2163.5 586.5Q2148 555 2127.0 526.5Q2106 498 2083 474L1837 228V-431Z" style="fill:#000000;stroke:none" transform="scale(1,-1) translate(0,-256)" /></svg>